<svg xmlns="http://www.w3.org/2000/svg" width="316.954" height="203.618" viewBox="0 0 316.954 203.618">
  <defs>
    <style>
      .cls-1 {
        fill: none;
        stroke: #fff;
        stroke-width: 2px;
      }

      .cls-2 {
        fill: #fff;
      }

      .cls-3 {
        fill: #fcd41e;
      }

      .cls-4 {
        fill: #fef439;
      }

      .cls-5 {
        fill: #ccd9ff;
      }

      .cls-6 {
        fill: #8ca6fd;
      }
    </style>
  </defs>
  <g id="组_6949" data-name="组 6949" transform="translate(-438 -284.102)">
    <path id="路径_8679" data-name="路径 8679" class="cls-1" d="M3442.1,1820.255l100.28,37.247,30.8-99.563,102.429,32.949,23.1-94.549" transform="translate(-2970 -1386)"/>
    <g id="组_1406" data-name="组 1406" transform="translate(-13.52 -5.38)">
      <path id="路径_2626" data-name="路径 2626" class="cls-2" d="M740.944,394.632s5.691-1.069,4.729,2.9a4.7,4.7,0,0,1-1.46,2.367c-4.321,3.875-5.976,6.689-3.811,12.7,1.514,4.151,2.987,4.515,4.443,5.628s2.029,5.882-1.616,6.8-44.923,6.539-51.355-1.184,20.094-35.585,20.7-36.232,8.074-10.045,11.593-3.528a4.331,4.331,0,0,1,.273.648c1.4,4.061,3.041,5.811,3.694,6.383a4.184,4.184,0,0,1,.516.541C729.514,392.743,732.947,396.155,740.944,394.632Z"/>
      <path id="路径_2627" data-name="路径 2627" class="cls-3" d="M735.54,397.675s4.7-.876,3.91,2.41a3.882,3.882,0,0,1-1.2,1.956c-3.562,3.2-4.924,5.529-3.127,10.509a7.584,7.584,0,0,0,3.678,4.666c1.2.925,1.684,4.873-1.324,5.632s-37.088,5.342-42.411-1.06S711.6,392.361,712.1,391.826s6.652-8.3,9.568-2.9a3.563,3.563,0,0,1,.226.536,12.252,12.252,0,0,0,3.061,5.29,3.481,3.481,0,0,1,.427.449C726.1,396.094,728.939,398.925,735.54,397.675Z"/>
      <path id="路径_2628" data-name="路径 2628" class="cls-3" d="M735.54,397.675s4.7-.876,3.91,2.41a3.882,3.882,0,0,1-1.2,1.956c-3.562,3.2-4.924,5.529-3.127,10.509a7.584,7.584,0,0,0,3.678,4.666c1.2.925,1.684,4.873-1.324,5.632s-37.088,5.342-42.411-1.06S711.6,392.361,712.1,391.826s6.652-8.3,9.568-2.9a3.563,3.563,0,0,1,.226.536,12.252,12.252,0,0,0,3.061,5.29,3.481,3.481,0,0,1,.427.449C726.1,396.094,728.939,398.925,735.54,397.675Z"/>
      <path id="路径_2629" data-name="路径 2629" class="cls-4" d="M733.918,397.973,703.239,413.22s4.922-10.627,18.983-22.833C722.222,390.387,724.947,398.786,733.918,397.973Z"/>
      <path id="路径_2630" data-name="路径 2630" class="cls-4" d="M739.115,401.024l-33.568,16.818s18.6.212,30.243-1.612a3.084,3.084,0,0,1,1.717.226l.037-.093S730.886,410.409,739.115,401.024Z"/>
      <path id="路径_2631" data-name="路径 2631" class="cls-4" d="M739.49,419.3s-35.815,5.265-42.846,2.334a6.968,6.968,0,0,0-1.692.2s3.89,8.1,43.223.86C740.6,421.131,739.592,419.269,739.49,419.3Z"/>
      <path id="路径_2632" data-name="路径 2632" class="cls-4" d="M720.119,387.379s-22.505,21.357-24.239,26.071C697.366,410.538,714.823,383.768,720.119,387.379Z"/>
    </g>
    <g id="组_1407" data-name="组 1407" transform="translate(-53.066 13.908)">
      <path id="路径_2633" data-name="路径 2633" class="cls-2" d="M647.745,440.572s5.691-1.069,4.729,2.9a4.714,4.714,0,0,1-1.46,2.366c-4.321,3.876-5.976,6.69-3.811,12.7,1.513,4.152,2.987,4.515,4.442,5.629s2.029,5.882-1.615,6.805-44.924,6.538-51.355-1.184,20.094-35.586,20.7-36.233,8.075-10.045,11.594-3.528a4.345,4.345,0,0,1,.273.648c1.4,4.062,3.041,5.812,3.694,6.383a4.263,4.263,0,0,1,.516.542C636.314,438.683,639.748,442.1,647.745,440.572Z"/>
      <path id="路径_2634" data-name="路径 2634" class="cls-3" d="M642.341,443.616s4.7-.876,3.909,2.409a3.872,3.872,0,0,1-1.2,1.957c-3.562,3.2-4.924,5.528-3.127,10.509a7.584,7.584,0,0,0,3.677,4.666c1.2.924,1.685,4.873-1.323,5.631s-37.088,5.343-42.411-1.06S618.4,438.3,618.9,437.767s6.653-8.3,9.569-2.9a3.6,3.6,0,0,1,.226.537,12.259,12.259,0,0,0,3.061,5.29,3.421,3.421,0,0,1,.427.449C632.9,442.034,635.739,444.865,642.341,443.616Z"/>
      <path id="路径_2635" data-name="路径 2635" class="cls-3" d="M642.341,443.616s4.7-.876,3.909,2.409a3.872,3.872,0,0,1-1.2,1.957c-3.562,3.2-4.924,5.528-3.127,10.509a7.584,7.584,0,0,0,3.677,4.666c1.2.924,1.685,4.873-1.323,5.631s-37.088,5.343-42.411-1.06S618.4,438.3,618.9,437.767s6.653-8.3,9.569-2.9a3.6,3.6,0,0,1,.226.537,12.259,12.259,0,0,0,3.061,5.29,3.421,3.421,0,0,1,.427.449C632.9,442.034,635.739,444.865,642.341,443.616Z"/>
      <path id="路径_2636" data-name="路径 2636" class="cls-4" d="M640.719,443.913,610.04,459.161s4.921-10.628,18.983-22.834C629.023,436.327,631.748,444.727,640.719,443.913Z"/>
      <path id="路径_2637" data-name="路径 2637" class="cls-4" d="M645.915,446.964l-33.567,16.818s18.6.212,30.243-1.612a3.077,3.077,0,0,1,1.717.227l.037-.093S637.687,456.349,645.915,446.964Z"/>
      <path id="路径_2638" data-name="路径 2638" class="cls-4" d="M646.29,465.236s-35.815,5.265-42.846,2.335a6.963,6.963,0,0,0-1.691.2s3.89,8.1,43.223.859C647.405,467.071,646.393,465.21,646.29,465.236Z"/>
      <path id="路径_2639" data-name="路径 2639" class="cls-4" d="M626.92,433.319s-22.505,21.358-24.239,26.072C604.167,456.478,621.624,429.709,626.92,433.319Z"/>
    </g>
    <g id="组_1408" data-name="组 1408" transform="translate(10.199 -6.936)">
      <path id="路径_2640" data-name="路径 2640" class="cls-2" d="M739.73,303.866s5.69-1.069,4.728,2.9a4.7,4.7,0,0,1-1.46,2.366c-4.32,3.876-5.976,6.69-3.81,12.7,1.513,4.152,2.986,4.515,4.442,5.629s2.029,5.882-1.616,6.8-44.923,6.538-51.354-1.184,20.094-35.586,20.7-36.232,8.074-10.046,11.593-3.528a4.181,4.181,0,0,1,.273.647c1.4,4.062,3.042,5.812,3.7,6.384a4.187,4.187,0,0,1,.516.541C728.3,301.977,731.733,305.39,739.73,303.866Z"/>
      <path id="路径_2641" data-name="路径 2641" class="cls-3" d="M734.326,306.91s4.7-.876,3.909,2.409a3.872,3.872,0,0,1-1.2,1.957c-3.562,3.2-4.925,5.528-3.127,10.509a7.584,7.584,0,0,0,3.677,4.666c1.2.924,1.684,4.873-1.324,5.631s-37.088,5.343-42.411-1.06,16.539-29.427,17.038-29.961,6.652-8.3,9.568-2.9a3.618,3.618,0,0,1,.227.537,12.238,12.238,0,0,0,3.061,5.29,3.554,3.554,0,0,1,.426.449C724.883,305.329,727.724,308.159,734.326,306.91Z"/>
      <path id="路径_2642" data-name="路径 2642" class="cls-3" d="M734.326,306.91s4.7-.876,3.909,2.409a3.872,3.872,0,0,1-1.2,1.957c-3.562,3.2-4.925,5.528-3.127,10.509a7.584,7.584,0,0,0,3.677,4.666c1.2.924,1.684,4.873-1.324,5.631s-37.088,5.343-42.411-1.06,16.539-29.427,17.038-29.961,6.652-8.3,9.568-2.9a3.618,3.618,0,0,1,.227.537,12.238,12.238,0,0,0,3.061,5.29,3.554,3.554,0,0,1,.426.449C724.883,305.329,727.724,308.159,734.326,306.91Z"/>
      <path id="路径_2643" data-name="路径 2643" class="cls-4" d="M732.7,307.207l-30.68,15.248s4.922-10.628,18.984-22.834C721.008,299.621,723.733,308.021,732.7,307.207Z"/>
      <path id="路径_2644" data-name="路径 2644" class="cls-4" d="M737.9,310.258l-33.568,16.818s18.6.212,30.243-1.612a3.085,3.085,0,0,1,1.717.227l.038-.093S729.672,319.643,737.9,310.258Z"/>
      <path id="路径_2645" data-name="路径 2645" class="cls-4" d="M738.275,328.531s-35.815,5.264-42.846,2.334a6.964,6.964,0,0,0-1.691.2s3.889,8.1,43.223.859C739.39,330.366,738.377,328.5,738.275,328.531Z"/>
      <path id="路径_2646" data-name="路径 2646" class="cls-4" d="M718.9,296.614s-22.5,21.357-24.239,26.071C696.151,319.772,713.609,293,718.9,296.614Z"/>
    </g>
    <g id="组_6946" data-name="组 6946" transform="translate(-1135.689 1119.862)">
      <g id="组_5057" data-name="组 5057">
        <rect id="矩形_2541" data-name="矩形 2541" class="cls-5" width="68.38" height="68.38" rx="5" transform="translate(1573.69 -720.862)"/>
        <rect id="矩形_2542" data-name="矩形 2542" class="cls-6" width="55.575" height="55.575" rx="4.064" transform="translate(1580.092 -714.46)"/>
      </g>
      <g id="组_5058" data-name="组 5058">
        <path id="路径_13445" data-name="路径 13445" class="cls-2" d="M1611.574-702.075v24.684a15.26,15.26,0,0,0,.245,3.551,2.294,2.294,0,0,0,1.024,1.257,4.836,4.836,0,0,0,2.493.49h.69v.823h-15.892v-.823h.8a6.2,6.2,0,0,0,2.76-.445,2.282,2.282,0,0,0,1.112-1.225,13.475,13.475,0,0,0,.29-3.628v-15.647a9.9,9.9,0,0,0-.2-2.615,1.909,1.909,0,0,0-.746-.891,2.206,2.206,0,0,0-1.258-.367,7.148,7.148,0,0,0-2.759.712l-.4-.8,11.106-5.075Z"/>
      </g>
    </g>
    <g id="组_6940" data-name="组 6940" transform="translate(-1399.661 1058.862)">
      <g id="组_5069" data-name="组 5069">
        <rect id="矩形_2549" data-name="矩形 2549" class="cls-5" width="68.38" height="68.38" rx="5" transform="translate(1966.661 -720.862)"/>
        <rect id="矩形_2550" data-name="矩形 2550" class="cls-6" width="55.575" height="55.575" rx="4.064" transform="translate(1973.063 -714.46)"/>
      </g>
      <g id="组_5070" data-name="组 5070">
        <path id="路径_13449" data-name="路径 13449" class="cls-2" d="M1996.488-702.075h14.134l-2.248,5.743h-11.886l-1.135,3q7.68.29,11.819,3.828a9.172,9.172,0,0,1,3.405,7.257A10.526,10.526,0,0,1,2009-676.8a10.517,10.517,0,0,1-4.452,4.1,13.882,13.882,0,0,1-6.3,1.435,9.861,9.861,0,0,1-5.676-1.38,2.751,2.751,0,0,1-1.38-2.225,2.341,2.341,0,0,1,.724-1.692,2.284,2.284,0,0,1,1.68-.734,4.717,4.717,0,0,1,1.758.356,18.676,18.676,0,0,1,3.049,1.869,10.857,10.857,0,0,0,2.337,1.291,4.293,4.293,0,0,0,1.558.267,4.144,4.144,0,0,0,3.106-1.335,4.469,4.469,0,0,0,1.28-3.2q0-3.918-3.918-6.366a18.345,18.345,0,0,0-9.882-2.448q-.6,0-1.8.022Z"/>
      </g>
    </g>
  </g>
</svg>
