<svg xmlns="http://www.w3.org/2000/svg" width="317.738" height="231.214" viewBox="0 0 317.738 231.214">
  <defs>
    <style>
      .cls-1 {
        fill: none;
        stroke: #fff;
        stroke-width: 2px;
      }

      .cls-2 {
        fill: #fff;
      }

      .cls-3 {
        fill: #fdbf3f;
      }

      .cls-4 {
        fill: #ffd68e;
      }

      .cls-5 {
        fill: #ccd9ff;
      }

      .cls-6 {
        fill: #8ca6fd;
      }
    </style>
  </defs>
  <g id="组_6950" data-name="组 6950" transform="translate(-787.896 -307.166)">
    <path id="路径_8680" data-name="路径 8680" class="cls-1" d="M3797.2,1865.022l98.573,27.426,31.791-97.621,105.735,20.979,26.06-90.459" transform="translate(-2990.145 -1384.621)"/>
    <g id="组_1469" data-name="组 1469" transform="translate(-85.901 41.833)">
      <path id="路径_2701" data-name="路径 2701" class="cls-2" d="M876.375,425.688c-2.83,4.382-3.784,8.655-.516,18.091,4.309,9.125,11.046,11.626,15.894,12.18a20.859,20.859,0,0,0,7.785-.72c2.995-.807,6.664-1.058,7.942,1.838.086,2.848,4.614,5.781,12.11,1.293,6.416-3.841,3.194-11.728,2.22-12.649s8.99-5.5,7.639-12.456c-1.2-6.174-7.574-8.759-7.625-8.919,0,0,4.517-7.735-5.8-13.6-5.788-3.626-14.479,2.1-13.466,1.022,0,0,1.126-4.563-3.387-8.267-5.828-4.784-16.951,1.083-16.959,5.925a8.789,8.789,0,0,0,.042,2.89c.413,1.149-.468,4,2.325,5.551C880.041,419.8,878.468,422.447,876.375,425.688Z"/>
      <g id="组_1464" data-name="组 1464">
        <path id="路径_2702" data-name="路径 2702" class="cls-3" d="M892.691,404.557a7.823,7.823,0,0,1,6.529,3.146c1.311,1.9,1.813,4.516-2.013,7.049-1.941,1.285-4.364,2.35-6.744,1.782-3.43-.819-4.743-4.5-3.964-7.691C887.209,405.932,889.863,404.576,892.691,404.557Z"/>
      </g>
      <g id="组_1465" data-name="组 1465">
        <path id="路径_2703" data-name="路径 2703" class="cls-3" d="M910.227,412.37c3.226-.446,6.589,1.924,8.241,4.543a4.7,4.7,0,0,1-.4,5.928,9.53,9.53,0,0,1-2.87,2.034,6.822,6.822,0,0,1-3.214.858,4.922,4.922,0,0,1-1.8-.585,15.119,15.119,0,0,1-1.777-.957,8.377,8.377,0,0,1-1.878-1.629,5.621,5.621,0,0,1-1.184-2.334,6.207,6.207,0,0,1,.162-3.128q.048-.164.1-.324a6.449,6.449,0,0,1,3.371-4.07A5.056,5.056,0,0,1,910.227,412.37Z"/>
      </g>
      <g id="组_1466" data-name="组 1466">
        <path id="路径_2704" data-name="路径 2704" class="cls-3" d="M924.563,430.458a9.12,9.12,0,0,0-2.29-2.073c-1.741-1.167-3.947-1.8-5.844-.6a5.559,5.559,0,0,0-2.315,4.869c-.011,1.836.238,4.321,1.549,5.736a6.912,6.912,0,0,0,5.634,1.918c3.84-.39,5.251-5.693,3.907-8.757-.016-.037-.033-.074-.05-.111A5.594,5.594,0,0,0,924.563,430.458Z"/>
      </g>
      <g id="组_1467" data-name="组 1467">
        <path id="路径_2705" data-name="路径 2705" class="cls-3" d="M919.623,448.022a7.591,7.591,0,0,0-3.977-2.8c-3.56-.947-6.486,2.757-6.67,6.021a5.6,5.6,0,0,0,1.78,4.379c2.389,2.059,6.727,1.147,8.632-1.117a5.258,5.258,0,0,0,.886-5.353A5.328,5.328,0,0,0,919.623,448.022Z"/>
      </g>
      <g id="组_1468" data-name="组 1468">
        <path id="路径_2706" data-name="路径 2706" class="cls-3" d="M886.429,424.51a16.975,16.975,0,0,1,15.284,2.965c4.031,3.11,8.145,9.044,7.971,14.326-.192,5.821-6.349,9.062-11.312,10.274-6.484,1.582-12.651-.059-17-5.347a17.855,17.855,0,0,1-1.69-2.44c-2.379-4.14-1.95-9.977.112-14.147A10.953,10.953,0,0,1,886.429,424.51Z"/>
        <path id="路径_2707" data-name="路径 2707" class="cls-4" d="M890.435,446.384a13.044,13.044,0,0,0,4.387.448c2.988-.13,6.056-1.271,7.224-4.256,1.029-2.628.136-5.366-1.453-7.557-1.54-2.121-3.926-4.769-6.631-5.288a9.863,9.863,0,0,0-8.1,2.557c-4.088,3.694-1.229,10.986,2.908,13.374l.151.086A8.029,8.029,0,0,0,890.435,446.384Z"/>
      </g>
    </g>
    <g id="组_1475" data-name="组 1475" transform="translate(-47.052 21.177)">
      <path id="路径_2708" data-name="路径 2708" class="cls-2" d="M968.534,378.15c-2.831,4.382-3.784,8.655-.516,18.091,4.308,9.125,11.046,11.626,15.893,12.18a20.856,20.856,0,0,0,7.785-.72c3-.807,6.665-1.058,7.943,1.838.085,2.848,4.614,5.781,12.109,1.293,6.417-3.841,3.194-11.728,2.22-12.649s8.991-5.5,7.639-12.456c-1.2-6.174-7.573-8.759-7.625-8.919,0,0,4.518-7.735-5.8-13.6-5.788-3.626-14.479,2.1-13.465,1.022,0,0,1.126-4.563-3.387-8.267-5.829-4.784-16.951,1.083-16.96,5.925a8.761,8.761,0,0,0,.043,2.89c.412,1.149-.468,4,2.324,5.551C972.2,372.264,970.627,374.909,968.534,378.15Z"/>
      <g id="组_1470" data-name="组 1470">
        <path id="路径_2709" data-name="路径 2709" class="cls-3" d="M984.85,357.019a7.825,7.825,0,0,1,6.529,3.146c1.311,1.9,1.812,4.516-2.014,7.049-1.94,1.285-4.364,2.35-6.743,1.782-3.431-.819-4.743-4.5-3.965-7.691C979.368,358.394,982.022,357.038,984.85,357.019Z"/>
      </g>
      <g id="组_1471" data-name="组 1471">
        <path id="路径_2710" data-name="路径 2710" class="cls-3" d="M1002.385,364.832c3.227-.446,6.59,1.924,8.242,4.543a4.7,4.7,0,0,1-.4,5.928,9.514,9.514,0,0,1-2.869,2.034,6.823,6.823,0,0,1-3.214.858,4.926,4.926,0,0,1-1.8-.585,15.115,15.115,0,0,1-1.777-.957,8.377,8.377,0,0,1-1.878-1.629,5.618,5.618,0,0,1-1.183-2.334,6.207,6.207,0,0,1,.161-3.128c.032-.109.066-.217.1-.324a6.445,6.445,0,0,1,3.37-4.07A5.08,5.08,0,0,1,1002.385,364.832Z"/>
      </g>
      <g id="组_1472" data-name="组 1472">
        <path id="路径_2711" data-name="路径 2711" class="cls-3" d="M1016.722,382.92a9.126,9.126,0,0,0-2.291-2.073c-1.741-1.167-3.946-1.795-5.844-.595a5.558,5.558,0,0,0-2.314,4.869c-.012,1.836.237,4.321,1.549,5.736a6.91,6.91,0,0,0,5.633,1.918c3.841-.39,5.252-5.693,3.907-8.757-.016-.037-.033-.074-.05-.111A5.592,5.592,0,0,0,1016.722,382.92Z"/>
      </g>
      <g id="组_1473" data-name="组 1473">
        <path id="路径_2712" data-name="路径 2712" class="cls-3" d="M1011.782,400.484a7.6,7.6,0,0,0-3.978-2.8c-3.56-.947-6.485,2.757-6.67,6.021a5.606,5.606,0,0,0,1.78,4.379c2.389,2.059,6.728,1.147,8.633-1.117a5.262,5.262,0,0,0,.886-5.353A5.325,5.325,0,0,0,1011.782,400.484Z"/>
      </g>
      <g id="组_1474" data-name="组 1474">
        <path id="路径_2713" data-name="路径 2713" class="cls-3" d="M978.587,376.972a16.974,16.974,0,0,1,15.284,2.965c4.032,3.11,8.146,9.044,7.971,14.326-.192,5.821-6.348,9.062-11.311,10.274-6.485,1.582-12.651-.059-17-5.347a17.845,17.845,0,0,1-1.689-2.44c-2.38-4.14-1.95-9.977.111-14.147A10.959,10.959,0,0,1,978.587,376.972Z"/>
        <path id="路径_2714" data-name="路径 2714" class="cls-4" d="M982.593,398.846a13.049,13.049,0,0,0,4.387.448c2.989-.13,6.056-1.271,7.225-4.256,1.029-2.628.136-5.366-1.454-7.557-1.539-2.121-3.926-4.769-6.63-5.288a9.865,9.865,0,0,0-8.1,2.557c-4.088,3.694-1.228,10.986,2.908,13.374l.152.086A8.05,8.05,0,0,0,982.593,398.846Z"/>
      </g>
    </g>
    <g id="组_1481" data-name="组 1481" transform="translate(-8.202 0.52)">
      <path id="路径_2715" data-name="路径 2715" class="cls-2" d="M1060.636,330.61c-2.83,4.382-3.783,8.655-.516,18.091,4.309,9.125,11.047,11.626,15.894,12.18a20.859,20.859,0,0,0,7.785-.72c3-.807,6.665-1.058,7.942,1.838.086,2.848,4.614,5.781,12.11,1.293,6.416-3.841,3.194-11.728,2.22-12.649s8.99-5.5,7.639-12.456c-1.2-6.174-7.574-8.759-7.625-8.919,0,0,4.517-7.735-5.8-13.6-5.788-3.626-14.479,2.1-13.465,1.022,0,0,1.125-4.563-3.387-8.267-5.829-4.784-16.951,1.083-16.96,5.925a8.761,8.761,0,0,0,.043,2.89c.412,1.149-.469,4,2.324,5.551C1064.3,324.724,1062.729,327.369,1060.636,330.61Z"/>
      <g id="组_1476" data-name="组 1476">
        <path id="路径_2716" data-name="路径 2716" class="cls-3" d="M1076.952,309.479a7.826,7.826,0,0,1,6.53,3.146c1.31,1.9,1.812,4.516-2.014,7.049-1.94,1.285-4.364,2.35-6.744,1.782-3.43-.819-4.742-4.5-3.964-7.691C1071.471,310.854,1074.125,309.5,1076.952,309.479Z"/>
      </g>
      <g id="组_1477" data-name="组 1477">
        <path id="路径_2717" data-name="路径 2717" class="cls-3" d="M1094.488,317.292c3.227-.446,6.589,1.924,8.241,4.543a4.7,4.7,0,0,1-.4,5.928,9.527,9.527,0,0,1-2.869,2.034,6.829,6.829,0,0,1-3.215.858,4.922,4.922,0,0,1-1.8-.585,15.119,15.119,0,0,1-1.777-.957,8.378,8.378,0,0,1-1.878-1.629,5.608,5.608,0,0,1-1.183-2.334,6.2,6.2,0,0,1,.161-3.128q.048-.164.1-.324a6.449,6.449,0,0,1,3.371-4.07A5.068,5.068,0,0,1,1094.488,317.292Z"/>
      </g>
      <g id="组_1478" data-name="组 1478">
        <path id="路径_2718" data-name="路径 2718" class="cls-3" d="M1108.825,335.38a9.143,9.143,0,0,0-2.291-2.073c-1.741-1.167-3.946-1.8-5.844-.6a5.559,5.559,0,0,0-2.315,4.869c-.011,1.836.238,4.321,1.549,5.736a6.914,6.914,0,0,0,5.634,1.918c3.841-.39,5.251-5.693,3.907-8.757-.016-.037-.033-.074-.05-.111A5.593,5.593,0,0,0,1108.825,335.38Z"/>
      </g>
      <g id="组_1479" data-name="组 1479">
        <path id="路径_2719" data-name="路径 2719" class="cls-3" d="M1103.884,352.944a7.592,7.592,0,0,0-3.977-2.8c-3.56-.947-6.485,2.757-6.67,6.021a5.606,5.606,0,0,0,1.78,4.379c2.389,2.059,6.728,1.147,8.633-1.117a5.109,5.109,0,0,0,.234-6.482Z"/>
      </g>
      <g id="组_1480" data-name="组 1480">
        <path id="路径_2720" data-name="路径 2720" class="cls-3" d="M1070.69,329.432a16.974,16.974,0,0,1,15.284,2.965c4.032,3.11,8.145,9.044,7.971,14.326-.192,5.821-6.348,9.062-11.311,10.274-6.485,1.582-12.651-.059-17-5.348a17.869,17.869,0,0,1-1.69-2.439c-2.379-4.14-1.949-9.977.112-14.147A10.959,10.959,0,0,1,1070.69,329.432Z"/>
        <path id="路径_2721" data-name="路径 2721" class="cls-4" d="M1074.7,351.306a13.049,13.049,0,0,0,4.387.448c2.988-.13,6.056-1.271,7.224-4.256,1.029-2.628.136-5.366-1.453-7.557-1.539-2.121-3.926-4.769-6.63-5.288a9.863,9.863,0,0,0-8.1,2.557c-4.088,3.694-1.228,10.986,2.908,13.374l.152.086A8.023,8.023,0,0,0,1074.7,351.306Z"/>
      </g>
    </g>
    <g id="组_6947" data-name="组 6947" transform="translate(-801.933 1190.862)">
      <g id="组_5060" data-name="组 5060">
        <rect id="矩形_2543" data-name="矩形 2543" class="cls-5" width="68.38" height="68.38" rx="5" transform="translate(1671.932 -720.862)"/>
        <rect id="矩形_2544" data-name="矩形 2544" class="cls-6" width="55.575" height="55.575" rx="4.064" transform="translate(1678.335 -714.46)"/>
      </g>
      <g id="组_5061" data-name="组 5061">
        <path id="路径_13446" data-name="路径 13446" class="cls-2" d="M1714.157-671.27H1696.4v-.489q8.167-9.728,9.915-13.088a14.167,14.167,0,0,0,1.748-6.566,5.464,5.464,0,0,0-1.447-3.884,4.66,4.66,0,0,0-3.539-1.547,5.848,5.848,0,0,0-5.32,3.428l-.823-.29a12.334,12.334,0,0,1,3.65-6.321,8.555,8.555,0,0,1,5.654-2.048,8.372,8.372,0,0,1,4.185,1.069,7.732,7.732,0,0,1,2.959,2.927,7.052,7.052,0,0,1,1.069,3.483,12.582,12.582,0,0,1-1.647,6.01q-2.249,4.117-9.816,11.485h6.521a14.953,14.953,0,0,0,3.128-.2,2.6,2.6,0,0,0,1.191-.679,8.833,8.833,0,0,0,1.224-2.015h.8Z"/>
      </g>
    </g>
    <g id="组_6941" data-name="组 6941" transform="translate(-1056.904 1115.862)">
      <g id="组_5072" data-name="组 5072">
        <rect id="矩形_2551" data-name="矩形 2551" class="cls-5" width="68.38" height="68.38" rx="5" transform="translate(2064.904 -720.862)"/>
        <rect id="矩形_2552" data-name="矩形 2552" class="cls-6" width="55.575" height="55.575" rx="4.064" transform="translate(2071.306 -714.46)"/>
      </g>
      <g id="组_5073" data-name="组 5073">
        <path id="路径_13450" data-name="路径 13450" class="cls-2" d="M2108.954-702.386v.623a21.244,21.244,0,0,0-6.466,2.638,12.579,12.579,0,0,0-3.85,3.917,18.967,18.967,0,0,0-2.193,5.709,6.567,6.567,0,0,1,1.625-.868,9.862,9.862,0,0,1,2.916-.445,7.343,7.343,0,0,1,5.642,2.46,9.536,9.536,0,0,1,2.259,6.71,12.255,12.255,0,0,1-1.224,5.476,9.03,9.03,0,0,1-3.472,3.85,9.147,9.147,0,0,1-4.808,1.358,9.29,9.29,0,0,1-5.141-1.525,10.059,10.059,0,0,1-3.684-4.462,15.363,15.363,0,0,1-1.324-6.389,19.1,19.1,0,0,1,2.437-9.448,18.15,18.15,0,0,1,6.922-6.967A20.659,20.659,0,0,1,2108.954-702.386Zm-12.8,14.69q-.178,3.072-.178,4.5a29.561,29.561,0,0,0,.589,5.943,8.966,8.966,0,0,0,1.614,4.029,2.257,2.257,0,0,0,1.737.823,2.24,2.24,0,0,0,1.824-1.19q.8-1.191.8-4.842,0-6.142-1.491-8.48a2.93,2.93,0,0,0-2.582-1.513A5.425,5.425,0,0,0,2096.156-687.7Z"/>
      </g>
    </g>
  </g>
</svg>
