<svg xmlns="http://www.w3.org/2000/svg" width="485.92" height="357.659" viewBox="0 0 485.92 357.659">
  <defs>
    <style>
      .cls-1 {
        fill: none;
        stroke: #fff;
        stroke-width: 2px;
      }

      .cls-2 {
        fill: #fff;
      }

      .cls-3 {
        fill: #5faa38;
      }

      .cls-4 {
        fill: #b6ff8c;
      }

      .cls-5 {
        fill: #ccd9ff;
      }

      .cls-6 {
        fill: #8ca6fd;
      }
    </style>
  </defs>
  <g id="组_6948" data-name="组 6948" transform="translate(-52.208 -181.28)">
    <path id="路径_8678" data-name="路径 8678" class="cls-1" d="M3047.873,1901.558l21.518-102.047,77.594,54.773,24.941-104.573,80.529,47.926,16.872-95.037,83.463,46.948,26.082-107.589,82.24,54.447,18.584-101.069" transform="translate(-2970 -1386)"/>
    <g id="组_1427" data-name="组 1427" transform="translate(28.646 0.296)">
      <g id="组_1426" data-name="组 1426">
        <path id="路径_2649" data-name="路径 2649" class="cls-2" d="M248.849,326.2c-.028-.063-.056-.125-.083-.189-3.63-9.521-3.649-17.065-.072-22.454,4.085-6.154,11.538-7.531,14.094-7.828a9.885,9.885,0,0,1,1.7-5.427,8.657,8.657,0,0,1,7.972-3.732c9.244,2.215,10.468,8.416,10.391,11.915a18.768,18.768,0,0,1-.2,2.108,11.823,11.823,0,0,1,8.1-.6A10.52,10.52,0,0,1,297.5,306.2c2.513,5.783-2.131,10.724-4.3,12.619a8.852,8.852,0,0,1,3.768,4.907,10.222,10.222,0,0,1-1.553,9.676,9.613,9.613,0,0,1-8.408,3.774,8.882,8.882,0,0,1-5.279-2.137c-4.711,4.785-10.39,6.906-16.072,5.982C258.737,339.895,252.466,334.36,248.849,326.2Z"/>
      </g>
      <path id="路径_2650" data-name="路径 2650" class="cls-3" d="M264.318,297.779s-22.927,1-12.972,27.078c5.974,13.7,19.563,18.769,29.7,7.739a7.2,7.2,0,0,0,4.933,2.318c6.118.461,10.422-5.686,8.386-11.473a7.08,7.08,0,0,0-4.161-4.629s7.38-5.178,4.6-11.566-9.61-7.027-14.133-4.127c.053.115,3.725-10.748-8.352-13.726C264.8,289.07,263.792,296.627,264.318,297.779Z"/>
      <path id="路径_2651" data-name="路径 2651" class="cls-3" d="M264.318,297.779s-22.927,1-12.972,27.078c5.974,13.7,19.563,18.769,29.7,7.739a7.2,7.2,0,0,0,4.933,2.318c6.118.461,10.422-5.686,8.386-11.473a7.08,7.08,0,0,0-4.161-4.629s7.38-5.178,4.6-11.566-9.61-7.027-14.133-4.127c.053.115,3.725-10.748-8.352-13.726C264.8,289.07,263.792,296.627,264.318,297.779Z"/>
      <path id="路径_2652" data-name="路径 2652" class="cls-4" d="M283.917,305.953s-6.744,3.218-.982,8.522a4.556,4.556,0,0,0,6.421-2.1C291.665,307.984,286.734,304.807,283.917,305.953Z"/>
      <path id="路径_2653" data-name="路径 2653" class="cls-4" d="M269.331,296.594s-3.945,5.792,3.229,7.368a4.273,4.273,0,0,0,4.212-4.731C276.567,294.58,271.072,294.334,269.331,296.594Z"/>
      <path id="路径_2654" data-name="路径 2654" class="cls-4" d="M287.38,324.416s3.455,2.181,2.4,5.166-2.828,3.054-4.3,2.983-5.491-4.407-3.19-6.988A4.287,4.287,0,0,1,287.38,324.416Z"/>
      <path id="路径_2655" data-name="路径 2655" class="cls-4" d="M267.2,308.25s10.812-1.316,10.607,10.33c-.676,7.361-8.918,8.618-11.838,4.661S259.087,311.627,267.2,308.25Z"/>
    </g>
    <g id="组_1429" data-name="组 1429" transform="translate(65.73 -19.422)">
      <g id="组_1428" data-name="组 1428">
        <path id="路径_2656" data-name="路径 2656" class="cls-2" d="M423.023,240.342c-.028-.063-.056-.125-.083-.189-3.63-9.522-3.649-17.065-.072-22.454,4.085-6.154,11.539-7.531,14.094-7.828a9.9,9.9,0,0,1,1.7-5.428,8.658,8.658,0,0,1,7.972-3.731c9.244,2.215,10.468,8.416,10.391,11.915a18.728,18.728,0,0,1-.2,2.107,11.823,11.823,0,0,1,8.1-.6,10.517,10.517,0,0,1,6.748,6.212c2.513,5.782-2.13,10.724-4.3,12.619a8.855,8.855,0,0,1,3.769,4.907,10.222,10.222,0,0,1-1.553,9.675,9.614,9.614,0,0,1-8.409,3.775,8.882,8.882,0,0,1-5.279-2.137c-4.711,4.785-10.39,6.906-16.072,5.982C432.912,254.04,426.64,248.5,423.023,240.342Z"/>
      </g>
      <path id="路径_2657" data-name="路径 2657" class="cls-3" d="M438.492,211.924s-22.927,1-12.972,27.078c5.974,13.7,19.563,18.769,29.7,7.739a7.2,7.2,0,0,0,4.933,2.317c6.118.461,10.422-5.685,8.386-11.473a7.081,7.081,0,0,0-4.161-4.628s7.38-5.178,4.6-11.566-9.61-7.027-14.132-4.128c.052.116,3.724-10.747-8.353-13.725C438.971,203.215,437.967,210.772,438.492,211.924Z"/>
      <path id="路径_2658" data-name="路径 2658" class="cls-3" d="M438.492,211.924s-22.927,1-12.972,27.078c5.974,13.7,19.563,18.769,29.7,7.739a7.2,7.2,0,0,0,4.933,2.317c6.118.461,10.422-5.685,8.386-11.473a7.081,7.081,0,0,0-4.161-4.628s7.38-5.178,4.6-11.566-9.61-7.027-14.132-4.128c.052.116,3.724-10.747-8.353-13.725C438.971,203.215,437.967,210.772,438.492,211.924Z"/>
      <path id="路径_2659" data-name="路径 2659" class="cls-4" d="M458.091,220.1s-6.743,3.217-.982,8.521a4.556,4.556,0,0,0,6.421-2.1C465.839,222.129,460.908,218.951,458.091,220.1Z"/>
      <path id="路径_2660" data-name="路径 2660" class="cls-4" d="M443.505,210.738s-3.944,5.793,3.229,7.369a4.274,4.274,0,0,0,4.213-4.731C450.742,208.725,445.246,208.478,443.505,210.738Z"/>
      <path id="路径_2661" data-name="路径 2661" class="cls-4" d="M461.554,238.561s3.455,2.181,2.405,5.166-2.828,3.054-4.3,2.983-5.491-4.407-3.19-6.988A4.287,4.287,0,0,1,461.554,238.561Z"/>
      <path id="路径_2662" data-name="路径 2662" class="cls-4" d="M441.37,222.4s10.812-1.316,10.607,10.33c-.676,7.361-8.918,8.618-11.837,4.661S433.261,225.772,441.37,222.4Z"/>
    </g>
    <g id="组_1431" data-name="组 1431" transform="translate(46.628 -31.917)">
      <g id="组_1430" data-name="组 1430">
        <path id="路径_2663" data-name="路径 2663" class="cls-2" d="M421.537,350.633l-.087-.19c-3.8-9.545-3.856-17.093-.18-22.469,4.2-6.138,11.9-7.481,14.548-7.766a9.6,9.6,0,0,1,1.733-5.423c1.256-1.791,3.7-3.887,8.232-3.7,9.577,2.26,10.872,8.471,10.809,11.972a18.114,18.114,0,0,1-.2,2.108,12.594,12.594,0,0,1,8.379-.565,10.913,10.913,0,0,1,7.013,6.247c2.627,5.8-2.155,10.722-4.387,12.608a9.021,9.021,0,0,1,3.923,4.927A10,10,0,0,1,461.077,361.8a9.437,9.437,0,0,1-5.473-2.163c-4.852,4.766-10.719,6.862-16.6,5.91C431.834,364.386,425.319,358.817,421.537,350.633Z"/>
      </g>
      <path id="路径_2664" data-name="路径 2664" class="cls-3" d="M437.411,322.269s-23.721.893-13.3,27.035c6.246,13.734,20.333,18.873,30.771,7.883A7.605,7.605,0,0,0,460,359.529a8.465,8.465,0,0,0,8.625-11.441,7.274,7.274,0,0,0-4.328-4.651s7.613-5.146,4.709-11.551-9.978-7.077-14.644-4.2c.055.116,3.8-10.737-8.709-13.773C437.866,313.557,436.862,321.114,437.411,322.269Z"/>
      <path id="路径_2665" data-name="路径 2665" class="cls-3" d="M437.411,322.269s-23.721.893-13.3,27.035c6.246,13.734,20.333,18.873,30.771,7.883A7.605,7.605,0,0,0,460,359.529a8.465,8.465,0,0,0,8.625-11.441,7.274,7.274,0,0,0-4.328-4.651s7.613-5.146,4.709-11.551-9.978-7.077-14.644-4.2c.055.116,3.8-10.737-8.709-13.773C437.866,313.557,436.862,321.114,437.411,322.269Z"/>
      <path id="路径_2666" data-name="路径 2666" class="cls-4" d="M457.732,330.541s-6.964,3.188-.977,8.522c0,0,4.266,2.32,6.635-2.067S460.641,329.407,457.732,330.541Z"/>
      <path id="路径_2667" data-name="路径 2667" class="cls-4" d="M442.593,321.106s-4.054,5.778,3.376,7.389c0,0,4.571-.059,4.337-4.714S444.384,318.853,442.593,321.106Z"/>
      <path id="路径_2668" data-name="路径 2668" class="cls-4" d="M461.4,349.032s3.585,2.2,2.513,5.18-2.913,3.043-4.435,2.965-5.7-4.435-3.334-7.008A4.533,4.533,0,0,1,461.4,349.032Z"/>
      <path id="路径_2669" data-name="路径 2669" class="cls-4" d="M440.438,332.761s11.184-1.267,11.026,10.386c-.665,7.363-9.188,8.581-12.228,4.608S432.063,336.1,440.438,332.761Z"/>
    </g>
    <g id="组_1433" data-name="组 1433" transform="translate(22.789 -19.241)">
      <g id="组_1432" data-name="组 1432">
        <path id="路径_2670" data-name="路径 2670" class="cls-2" d="M336.642,391.09l-.087-.19c-3.8-9.545-3.856-17.093-.18-22.469,4.2-6.138,11.9-7.481,14.549-7.766a9.587,9.587,0,0,1,1.732-5.423c1.256-1.791,3.7-3.887,8.232-3.7,9.577,2.26,10.873,8.471,10.809,11.972a18.1,18.1,0,0,1-.2,2.108,12.594,12.594,0,0,1,8.379-.565,10.913,10.913,0,0,1,7.013,6.247c2.628,5.8-2.154,10.722-4.387,12.608a9.027,9.027,0,0,1,3.924,4.927,10,10,0,0,1-10.245,13.412,9.437,9.437,0,0,1-5.473-2.163c-4.853,4.766-10.72,6.862-16.6,5.91C346.94,404.843,340.424,399.274,336.642,391.09Z"/>
      </g>
      <path id="路径_2671" data-name="路径 2671" class="cls-3" d="M352.517,362.726s-23.721.893-13.3,27.035c6.247,13.734,20.333,18.873,30.771,7.883a7.606,7.606,0,0,0,5.116,2.342,8.464,8.464,0,0,0,8.624-11.441,7.274,7.274,0,0,0-4.328-4.651s7.613-5.146,4.709-11.551-9.978-7.077-14.644-4.2c.055.116,3.8-10.737-8.709-13.773C352.971,354.014,351.967,361.571,352.517,362.726Z"/>
      <path id="路径_2672" data-name="路径 2672" class="cls-3" d="M352.517,362.726s-23.721.893-13.3,27.035c6.247,13.734,20.333,18.873,30.771,7.883a7.606,7.606,0,0,0,5.116,2.342,8.464,8.464,0,0,0,8.624-11.441,7.274,7.274,0,0,0-4.328-4.651s7.613-5.146,4.709-11.551-9.978-7.077-14.644-4.2c.055.116,3.8-10.737-8.709-13.773C352.971,354.014,351.967,361.571,352.517,362.726Z"/>
      <path id="路径_2673" data-name="路径 2673" class="cls-4" d="M372.837,371s-6.963,3.188-.976,8.522c0,0,4.265,2.32,6.634-2.067S375.747,369.864,372.837,371Z"/>
      <path id="路径_2674" data-name="路径 2674" class="cls-4" d="M357.7,361.563s-4.054,5.778,3.377,7.389c0,0,4.571-.059,4.337-4.714S359.489,359.31,357.7,361.563Z"/>
      <path id="路径_2675" data-name="路径 2675" class="cls-4" d="M376.507,389.489s3.586,2.2,2.513,5.18-2.912,3.043-4.434,2.965-5.7-4.435-3.334-7.008A4.532,4.532,0,0,1,376.507,389.489Z"/>
      <path id="路径_2676" data-name="路径 2676" class="cls-4" d="M355.544,373.218s11.183-1.267,11.025,10.386c-.665,7.363-9.188,8.581-12.228,4.608S347.168,376.558,355.544,373.218Z"/>
    </g>
    <g id="组_1435" data-name="组 1435" transform="translate(7.779 -11.26)">
      <g id="组_1434" data-name="组 1434">
        <path id="路径_2677" data-name="路径 2677" class="cls-2" d="M252.3,432.665c-.03-.063-.058-.126-.087-.19-3.8-9.544-3.857-17.093-.18-22.469,4.2-6.138,11.905-7.481,14.548-7.766a9.589,9.589,0,0,1,1.733-5.423c1.256-1.791,3.7-3.887,8.232-3.7,9.577,2.259,10.872,8.471,10.809,11.971a18.1,18.1,0,0,1-.2,2.108,12.594,12.594,0,0,1,8.379-.565,10.914,10.914,0,0,1,7.013,6.248c2.627,5.8-2.155,10.721-4.387,12.607a9.025,9.025,0,0,1,3.923,4.927,10,10,0,0,1-10.245,13.412,9.437,9.437,0,0,1-5.473-2.163c-4.852,4.766-10.719,6.862-16.6,5.91C262.6,446.418,256.081,440.849,252.3,432.665Z"/>
      </g>
      <path id="路径_2678" data-name="路径 2678" class="cls-3" d="M268.173,404.3s-23.721.894-13.3,27.035c6.247,13.734,20.334,18.873,30.772,7.884a7.607,7.607,0,0,0,5.115,2.341,8.463,8.463,0,0,0,8.624-11.44,7.265,7.265,0,0,0-4.327-4.651s7.612-5.147,4.709-11.552-9.978-7.077-14.645-4.2c.055.116,3.8-10.736-8.708-13.773C268.628,395.589,267.624,403.146,268.173,404.3Z"/>
      <path id="路径_2679" data-name="路径 2679" class="cls-3" d="M268.173,404.3s-23.721.894-13.3,27.035c6.247,13.734,20.334,18.873,30.772,7.884a7.607,7.607,0,0,0,5.115,2.341,8.463,8.463,0,0,0,8.624-11.44,7.265,7.265,0,0,0-4.327-4.651s7.612-5.147,4.709-11.552-9.978-7.077-14.645-4.2c.055.116,3.8-10.736-8.708-13.773C268.628,395.589,267.624,403.146,268.173,404.3Z"/>
      <path id="路径_2680" data-name="路径 2680" class="cls-4" d="M288.493,412.573s-6.963,3.188-.976,8.522c0,0,4.266,2.32,6.635-2.067S291.4,411.439,288.493,412.573Z"/>
      <path id="路径_2681" data-name="路径 2681" class="cls-4" d="M273.355,403.139s-4.055,5.777,3.376,7.388c0,0,4.571-.059,4.337-4.714S275.146,400.886,273.355,403.139Z"/>
      <path id="路径_2682" data-name="路径 2682" class="cls-4" d="M292.164,431.064s3.585,2.2,2.513,5.18-2.913,3.043-4.435,2.965-5.7-4.435-3.334-7.008A4.533,4.533,0,0,1,292.164,431.064Z"/>
      <path id="路径_2683" data-name="路径 2683" class="cls-4" d="M271.2,414.793s11.183-1.267,11.026,10.386c-.665,7.363-9.188,8.581-12.228,4.609S262.825,418.134,271.2,414.793Z"/>
    </g>
    <g id="组_1437" data-name="组 1437" transform="translate(-28.422 7.988)">
      <g id="组_1436" data-name="组 1436">
        <path id="路径_2684" data-name="路径 2684" class="cls-2" d="M83.612,515.815c-.03-.063-.058-.126-.087-.189-3.8-9.545-3.857-17.093-.18-22.469,4.2-6.139,11.9-7.482,14.548-7.767a9.591,9.591,0,0,1,1.733-5.423c1.256-1.791,3.7-3.887,8.232-3.7,9.577,2.26,10.872,8.471,10.809,11.971a18.072,18.072,0,0,1-.2,2.108,12.606,12.606,0,0,1,8.379-.565,10.92,10.92,0,0,1,7.013,6.248c2.627,5.8-2.155,10.721-4.387,12.607a9.024,9.024,0,0,1,3.923,4.928,10,10,0,0,1-10.245,13.412,9.437,9.437,0,0,1-5.473-2.164c-4.852,4.767-10.719,6.862-16.6,5.911C93.909,529.568,87.394,524,83.612,515.815Z"/>
      </g>
      <path id="路径_2685" data-name="路径 2685" class="cls-3" d="M99.486,487.452s-23.721.893-13.3,27.034c6.246,13.735,20.333,18.873,30.771,7.884a7.605,7.605,0,0,0,5.115,2.342,8.464,8.464,0,0,0,8.624-11.441,7.265,7.265,0,0,0-4.327-4.651s7.612-5.147,4.709-11.552-9.978-7.076-14.644-4.2c.054.115,3.8-10.737-8.709-13.774C99.941,478.739,98.937,486.3,99.486,487.452Z"/>
      <path id="路径_2686" data-name="路径 2686" class="cls-3" d="M99.486,487.452s-23.721.893-13.3,27.034c6.246,13.735,20.333,18.873,30.771,7.884a7.605,7.605,0,0,0,5.115,2.342,8.464,8.464,0,0,0,8.624-11.441,7.265,7.265,0,0,0-4.327-4.651s7.612-5.147,4.709-11.552-9.978-7.076-14.644-4.2c.054.115,3.8-10.737-8.709-13.774C99.941,478.739,98.937,486.3,99.486,487.452Z"/>
      <path id="路径_2687" data-name="路径 2687" class="cls-4" d="M119.806,495.723s-6.963,3.188-.976,8.523c0,0,4.266,2.319,6.635-2.067S122.716,494.589,119.806,495.723Z"/>
      <path id="路径_2688" data-name="路径 2688" class="cls-4" d="M104.668,486.289s-4.055,5.777,3.376,7.388c0,0,4.571-.058,4.337-4.714S106.459,484.036,104.668,486.289Z"/>
      <path id="路径_2689" data-name="路径 2689" class="cls-4" d="M123.477,514.214s3.585,2.2,2.513,5.181-2.913,3.042-4.435,2.964-5.7-4.435-3.334-7.007A4.532,4.532,0,0,1,123.477,514.214Z"/>
      <path id="路径_2690" data-name="路径 2690" class="cls-4" d="M102.513,497.943s11.183-1.266,11.026,10.387c-.665,7.362-9.188,8.581-12.228,4.608S94.138,501.284,102.513,497.943Z"/>
    </g>
    <g id="组_1439" data-name="组 1439" transform="translate(18.465 4.577)">
      <g id="组_1438" data-name="组 1438">
        <path id="路径_2691" data-name="路径 2691" class="cls-2" d="M160.9,368.911c-.029-.063-.058-.125-.087-.189-3.8-9.545-3.857-17.093-.18-22.469,4.2-6.139,11.9-7.481,14.548-7.766a9.6,9.6,0,0,1,1.733-5.423c1.256-1.792,3.7-3.887,8.232-3.7,9.577,2.26,10.872,8.471,10.809,11.972a18.108,18.108,0,0,1-.2,2.108,12.594,12.594,0,0,1,8.379-.565,10.915,10.915,0,0,1,7.013,6.247c2.627,5.8-2.155,10.721-4.387,12.608a9.018,9.018,0,0,1,3.923,4.927,10,10,0,0,1-10.245,13.412,9.437,9.437,0,0,1-5.473-2.164c-4.852,4.767-10.719,6.862-16.6,5.911C171.2,382.665,164.687,377.1,160.9,368.911Z"/>
      </g>
      <path id="路径_2692" data-name="路径 2692" class="cls-3" d="M176.779,340.548s-23.721.893-13.3,27.034c6.246,13.735,20.333,18.873,30.771,7.884a7.605,7.605,0,0,0,5.115,2.342,8.465,8.465,0,0,0,8.625-11.441,7.274,7.274,0,0,0-4.328-4.651s7.613-5.146,4.709-11.552-9.978-7.076-14.644-4.2c.055.115,3.8-10.737-8.709-13.773C177.234,331.836,176.23,339.393,176.779,340.548Z"/>
      <path id="路径_2693" data-name="路径 2693" class="cls-3" d="M176.779,340.548s-23.721.893-13.3,27.034c6.246,13.735,20.333,18.873,30.771,7.884a7.605,7.605,0,0,0,5.115,2.342,8.465,8.465,0,0,0,8.625-11.441,7.274,7.274,0,0,0-4.328-4.651s7.613-5.146,4.709-11.552-9.978-7.076-14.644-4.2c.055.115,3.8-10.737-8.709-13.773C177.234,331.836,176.23,339.393,176.779,340.548Z"/>
      <path id="路径_2694" data-name="路径 2694" class="cls-4" d="M197.1,348.82s-6.963,3.187-.976,8.522c0,0,4.266,2.319,6.635-2.067S200.009,347.685,197.1,348.82Z"/>
      <path id="路径_2695" data-name="路径 2695" class="cls-4" d="M181.961,339.385s-4.055,5.778,3.376,7.388c0,0,4.571-.058,4.337-4.713S183.752,337.132,181.961,339.385Z"/>
      <path id="路径_2696" data-name="路径 2696" class="cls-4" d="M200.77,367.31s3.585,2.2,2.513,5.181-2.913,3.043-4.435,2.965-5.7-4.436-3.334-7.008A4.534,4.534,0,0,1,200.77,367.31Z"/>
      <path id="路径_2697" data-name="路径 2697" class="cls-4" d="M179.806,351.04s11.183-1.267,11.026,10.386c-.665,7.362-9.188,8.581-12.228,4.608S171.431,354.38,179.806,351.04Z"/>
    </g>
    <g id="组_6936" data-name="组 6936" transform="translate(-1509.689 1103.862)">
      <g id="组_5057" data-name="组 5057">
        <rect id="矩形_2541" data-name="矩形 2541" class="cls-5" width="68.38" height="68.38" rx="5" transform="translate(1573.69 -720.862)"/>
        <rect id="矩形_2542" data-name="矩形 2542" class="cls-6" width="55.575" height="55.575" rx="4.064" transform="translate(1580.092 -714.46)"/>
      </g>
      <g id="组_5058" data-name="组 5058">
        <path id="路径_13445" data-name="路径 13445" class="cls-2" d="M1611.574-702.075v24.684a15.26,15.26,0,0,0,.245,3.551,2.294,2.294,0,0,0,1.024,1.257,4.836,4.836,0,0,0,2.493.49h.69v.823h-15.892v-.823h.8a6.2,6.2,0,0,0,2.76-.445,2.282,2.282,0,0,0,1.112-1.225,13.475,13.475,0,0,0,.29-3.628v-15.647a9.9,9.9,0,0,0-.2-2.615,1.909,1.909,0,0,0-.746-.891,2.206,2.206,0,0,0-1.258-.367,7.148,7.148,0,0,0-2.759.712l-.4-.8,11.106-5.075Z"/>
      </g>
    </g>
    <g id="组_6937" data-name="组 6937" transform="translate(-1528.933 1152.862)">
      <g id="组_5060" data-name="组 5060">
        <rect id="矩形_2543" data-name="矩形 2543" class="cls-5" width="68.38" height="68.38" rx="5" transform="translate(1671.932 -720.862)"/>
        <rect id="矩形_2544" data-name="矩形 2544" class="cls-6" width="55.575" height="55.575" rx="4.064" transform="translate(1678.335 -714.46)"/>
      </g>
      <g id="组_5061" data-name="组 5061">
        <path id="路径_13446" data-name="路径 13446" class="cls-2" d="M1714.157-671.27H1696.4v-.489q8.167-9.728,9.915-13.088a14.167,14.167,0,0,0,1.748-6.566,5.464,5.464,0,0,0-1.447-3.884,4.66,4.66,0,0,0-3.539-1.547,5.848,5.848,0,0,0-5.32,3.428l-.823-.29a12.334,12.334,0,0,1,3.65-6.321,8.555,8.555,0,0,1,5.654-2.048,8.372,8.372,0,0,1,4.185,1.069,7.732,7.732,0,0,1,2.959,2.927,7.052,7.052,0,0,1,1.069,3.483,12.582,12.582,0,0,1-1.647,6.01q-2.249,4.117-9.816,11.485h6.521a14.953,14.953,0,0,0,3.128-.2,2.6,2.6,0,0,0,1.191-.679,8.833,8.833,0,0,0,1.224-2.015h.8Z"/>
      </g>
    </g>
    <g id="组_6942" data-name="组 6942" transform="translate(-1790.146 949.862)">
      <g id="组_5075" data-name="组 5075">
        <rect id="矩形_2553" data-name="矩形 2553" class="cls-5" width="68.38" height="68.38" rx="5" transform="translate(2163.147 -720.862)"/>
        <rect id="矩形_2554" data-name="矩形 2554" class="cls-6" width="55.575" height="55.575" rx="4.064" transform="translate(2169.549 -714.46)"/>
      </g>
      <g id="组_5076" data-name="组 5076">
        <path id="路径_13451" data-name="路径 13451" class="cls-2" d="M2193.8-671.27l8.213-24.906h-6.254a12.409,12.409,0,0,0-5.521.957,5.03,5.03,0,0,0-2.136,2.515h-.846l2.181-9.371h17.984l-10.126,30.8Z"/>
      </g>
    </g>
  </g>
</svg>
