<svg xmlns="http://www.w3.org/2000/svg" width="107.956" height="53.15" viewBox="0 0 107.956 53.15">
  <defs>
    <style>
      .cls-1, .cls-3, .cls-5 {
        fill: #fff;
      }

      .cls-1 {
        stroke-miterlimit: 10;
      }

      .cls-2 {
        fill: #8ca6fd;
      }

      .cls-4, .cls-5 {
        stroke: none;
      }
    </style>
  </defs>
  <g id="组_1605" data-name="组 1605" transform="translate(-38.453 -1011.089)">
    <g id="路径_2851" data-name="路径 2851" class="cls-1">
      <path class="cls-4" d="M 121.431999206543 1062.739013671875 L 92.43099975585938 1062.739013671875 L 63.42900085449219 1062.739013671875 C 61.7515869140625 1062.739013671875 60.10771560668945 1062.280517578125 58.67509841918945 1061.4130859375 L 42.74919891357422 1051.772216796875 C 41.02445602416992 1050.728149414063 39.95299911499023 1048.827880859375 39.95299911499023 1046.81298828125 L 39.95299911499023 1037.663940429688 L 39.95299911499023 1027.784057617188 C 39.95299911499023 1025.697021484375 41.0831413269043 1023.762268066406 42.90240097045898 1022.734924316406 L 58.79214096069336 1013.773498535156 C 60.16398620605469 1012.998718261719 61.72372817993164 1012.588989257813 63.30199813842773 1012.588989257813 L 92.43099975585938 1012.588989257813 L 121.5589981079102 1012.588989257813 C 123.1372680664063 1012.588989257813 124.6970138549805 1012.998718261719 126.0696258544922 1013.77392578125 L 141.9578552246094 1022.734497070313 C 143.7783203125 1023.761779785156 144.9089965820313 1025.696533203125 144.9089965820313 1027.784057617188 L 144.9089965820313 1037.663940429688 L 144.9089965820313 1046.81298828125 C 144.9089965820313 1048.827880859375 143.8375396728516 1050.728149414063 142.1127777099609 1051.772216796875 L 126.1867980957031 1061.413208007813 C 124.7529296875 1062.280639648438 123.10888671875 1062.739013671875 121.431999206543 1062.739013671875 Z"/>
      <path class="cls-5" d="M 121.431999206543 1061.239013671875 C 122.8349990844727 1061.239013671875 124.2099990844727 1060.85595703125 125.4099960327148 1060.130004882813 L 141.3359985351563 1050.489013671875 C 142.6230010986328 1049.7099609375 143.4089965820313 1048.316040039063 143.4089965820313 1046.81298828125 L 143.4089965820313 1037.663940429688 L 143.4089965820313 1027.784057617188 C 143.4089965820313 1026.234008789063 142.572998046875 1024.803955078125 141.2209930419922 1024.041015625 L 125.3320007324219 1015.080017089844 C 124.1809997558594 1014.429992675781 122.8809967041016 1014.088989257813 121.5589981079102 1014.088989257813 L 92.43099975585938 1014.088989257813 L 63.30199813842773 1014.088989257813 C 61.97999954223633 1014.088989257813 60.68000030517578 1014.429992675781 59.52899932861328 1015.080017089844 L 43.63999938964844 1024.041015625 C 42.28900146484375 1024.803955078125 41.45299911499023 1026.234008789063 41.45299911499023 1027.784057617188 L 41.45299911499023 1037.663940429688 L 41.45299911499023 1046.81298828125 C 41.45299911499023 1048.316040039063 42.23899841308594 1049.7099609375 43.5260009765625 1050.489013671875 L 59.45199966430664 1060.130004882813 C 60.6510009765625 1060.85595703125 62.02700042724609 1061.239013671875 63.42900085449219 1061.239013671875 L 92.43099975585938 1061.239013671875 L 121.431999206543 1061.239013671875 M 121.431999206543 1064.239013671875 L 92.43099975585938 1064.239013671875 L 63.42900085449219 1064.239013671875 C 61.4776611328125 1064.239013671875 59.56513977050781 1063.70556640625 57.89820098876953 1062.6962890625 L 41.9724006652832 1053.055419921875 C 40.90063858032227 1052.406616210938 40.00891876220703 1051.487060546875 39.39371871948242 1050.396118164063 C 38.77830123901367 1049.3046875 38.45299911499023 1048.065673828125 38.45299911499023 1046.81298828125 L 38.45299911499023 1037.663940429688 L 38.45299911499023 1027.784057617188 C 38.45299911499023 1025.156982421875 39.87527847290039 1022.721740722656 42.16479873657227 1021.428771972656 L 58.05527877807617 1012.466918945313 C 59.6510009765625 1011.565734863281 61.4658203125 1011.088989257813 63.30199813842773 1011.088989257813 L 92.43099975585938 1011.088989257813 L 121.5589981079102 1011.088989257813 C 123.3951797485352 1011.088989257813 125.2099990844727 1011.565734863281 126.807243347168 1012.4677734375 L 142.6947174072266 1021.427917480469 C 144.9860229492188 1022.720947265625 146.4089965820313 1025.156372070313 146.4089965820313 1027.784057617188 L 146.4089965820313 1037.663940429688 L 146.4089965820313 1046.81298828125 C 146.4089965820313 1048.065673828125 146.0836944580078 1049.3046875 145.4682769775391 1050.396118164063 C 144.8530731201172 1051.487060546875 143.9613647460938 1052.406616210938 142.8895416259766 1053.055419921875 L 126.9636001586914 1062.696411132813 C 125.2951431274414 1063.705688476563 123.3826217651367 1064.239013671875 121.431999206543 1064.239013671875 Z"/>
    </g>
    <path id="路径_2852" data-name="路径 2852" class="cls-2" d="M92.431,1057.738H118.7a7.293,7.293,0,0,0,3.6-.945l14.424-8.209a3.618,3.618,0,0,0,1.878-3.13v-16.2a3.63,3.63,0,0,0-1.981-3.188l-14.391-7.63a7.3,7.3,0,0,0-3.417-.844H66.049a7.3,7.3,0,0,0-3.417.844l-14.391,7.63a3.63,3.63,0,0,0-1.981,3.188v16.2a3.619,3.619,0,0,0,1.877,3.13l14.425,8.209a7.293,7.293,0,0,0,3.6.945Z"/>
    <g id="组_1604" data-name="组 1604">
      <path id="路径_2853" data-name="路径 2853" class="cls-3" d="M57.776,1041.737H73.433v2.474H57.776Zm1.171-10.058H72.228v2.441H58.947Z"/>
      <path id="路径_2854" data-name="路径 2854" class="cls-3" d="M84.337,1043.145l-8.13-3.751v-1.318l8.13-3.964v2l-5.827,2.58v.049l5.827,2.4Z"/>
      <path id="路径_2855" data-name="路径 2855" class="cls-3" d="M92.035,1032.5v9.025a5.645,5.645,0,0,0,.089,1.3.841.841,0,0,0,.375.459,1.762,1.762,0,0,0,.911.179h.253v.3H87.852v-.3h.293a2.264,2.264,0,0,0,1.009-.162.838.838,0,0,0,.407-.448,4.915,4.915,0,0,0,.106-1.326v-5.721a3.654,3.654,0,0,0-.073-.956.694.694,0,0,0-.273-.326.807.807,0,0,0-.46-.134,2.621,2.621,0,0,0-1.009.26l-.146-.292,4.061-1.856Z"/>
      <path id="路径_2856" data-name="路径 2856" class="cls-3" d="M105.356,1039.3l-8.13,3.752v-1.994l5.844-2.392v-.041l-5.844-2.588v-2l8.13,3.947Z"/>
      <path id="路径_2857" data-name="路径 2857" class="cls-3" d="M108.147,1044.813l-.244-2.148q.929-.1,1.9-.236V1038.4h-1.6v-1.986h1.6v-3.336h-1.676v-2.018h5.257v2.018h-1.563v3.336h1.432v1.986h-1.432v3.735q.839-.131,1.709-.284-.114,1.172-.146,2.1Zm7.763-14.566h1.954v8.008a10.4,10.4,0,0,1-2.979,7.844q-.83-.765-1.725-1.449a8.383,8.383,0,0,0,2.75-6.754Zm-2.49,9.374q.2-2.994.163-6.444h1.742q-.018,3.255-.147,6.607A17.131,17.131,0,0,0,113.42,1039.621Zm4.167,3.6h2.246v-4.41H118.3v-1.986h1.53v-3.808H118.14V1031h5.615v2.018h-1.774v3.808h1.595v1.986h-1.595v4.41h2.083v2.018h-6.477Z"/>
    </g>
  </g>
</svg>
