<svg xmlns="http://www.w3.org/2000/svg" width="107.956" height="53.15" viewBox="0 0 107.956 53.15">
  <defs>
    <style>
      .cls-1, .cls-3, .cls-5 {
        fill: #fff;
      }

      .cls-1 {
        stroke-miterlimit: 10;
      }

      .cls-2 {
        fill: #8ca6fd;
      }

      .cls-4, .cls-5 {
        stroke: none;
      }
    </style>
  </defs>
  <g id="组_1611" data-name="组 1611" transform="translate(-150.453 -1123.089)">
    <g id="路径_2872" data-name="路径 2872" class="cls-1">
      <path class="cls-4" d="M 233.4320068359375 1174.739013671875 L 204.4309997558594 1174.739013671875 L 175.4290008544922 1174.739013671875 C 173.7515869140625 1174.739013671875 172.1077117919922 1174.280517578125 170.6750946044922 1173.4130859375 L 154.7492065429688 1163.772216796875 C 153.0244598388672 1162.728149414063 151.9530029296875 1160.827880859375 151.9530029296875 1158.81298828125 L 151.9530029296875 1149.663940429688 L 151.9530029296875 1139.784057617188 C 151.9530029296875 1137.697021484375 153.0831451416016 1135.762329101563 154.9024047851563 1134.73486328125 L 170.7921600341797 1125.7734375 C 172.1641845703125 1124.998657226563 173.7238922119141 1124.588989257813 175.302001953125 1124.588989257813 L 204.4309997558594 1124.588989257813 L 233.5590057373047 1124.588989257813 C 235.1370849609375 1124.588989257813 236.6967926025391 1124.998657226563 238.0695343017578 1125.773803710938 L 253.9578552246094 1134.734497070313 C 255.7783203125 1135.76171875 256.9089965820313 1137.696533203125 256.9089965820313 1139.784057617188 L 256.9089965820313 1149.663940429688 L 256.9089965820313 1158.81298828125 C 256.9089965820313 1160.827880859375 255.8375396728516 1162.728149414063 254.1127777099609 1163.772216796875 L 238.1867980957031 1173.413208007813 C 236.7529602050781 1174.280639648438 235.1089019775391 1174.739013671875 233.4320068359375 1174.739013671875 Z"/>
      <path class="cls-5" d="M 233.4320068359375 1173.239013671875 C 234.8350067138672 1173.239013671875 236.2100067138672 1172.85595703125 237.4100036621094 1172.130004882813 L 253.3359985351563 1162.489013671875 C 254.6230010986328 1161.7099609375 255.4089965820313 1160.316040039063 255.4089965820313 1158.81298828125 L 255.4089965820313 1149.663940429688 L 255.4089965820313 1139.784057617188 C 255.4089965820313 1138.234008789063 254.572998046875 1136.803955078125 253.2209930419922 1136.041015625 L 237.3320007324219 1127.079956054688 C 236.1809997558594 1126.430053710938 234.8809967041016 1126.088989257813 233.5590057373047 1126.088989257813 L 204.4309997558594 1126.088989257813 L 175.302001953125 1126.088989257813 C 173.9799957275391 1126.088989257813 172.6799926757813 1126.430053710938 171.5290069580078 1127.079956054688 L 155.6399993896484 1136.041015625 C 154.2890014648438 1136.803955078125 153.4530029296875 1138.234008789063 153.4530029296875 1139.784057617188 L 153.4530029296875 1149.663940429688 L 153.4530029296875 1158.81298828125 C 153.4530029296875 1160.316040039063 154.2389984130859 1161.7099609375 155.5260009765625 1162.489013671875 L 171.4519958496094 1172.130004882813 C 172.6510009765625 1172.85595703125 174.0269927978516 1173.239013671875 175.4290008544922 1173.239013671875 L 204.4309997558594 1173.239013671875 L 233.4320068359375 1173.239013671875 M 233.4320068359375 1176.239013671875 L 204.4309997558594 1176.239013671875 L 175.4290008544922 1176.239013671875 C 173.4776611328125 1176.239013671875 171.5651397705078 1175.70556640625 169.898193359375 1174.6962890625 L 153.9723968505859 1165.055419921875 C 152.900634765625 1164.406616210938 152.0089263916016 1163.487060546875 151.3937225341797 1162.396118164063 C 150.7783050537109 1161.3046875 150.4530029296875 1160.065673828125 150.4530029296875 1158.81298828125 L 150.4530029296875 1149.663940429688 L 150.4530029296875 1139.784057617188 C 150.4530029296875 1137.156982421875 151.8752746582031 1134.7216796875 154.164794921875 1133.428833007813 L 170.0552825927734 1124.466918945313 C 171.6513061523438 1123.565673828125 173.4660339355469 1123.088989257813 175.302001953125 1123.088989257813 L 204.4309997558594 1123.088989257813 L 233.5590057373047 1123.088989257813 C 235.3949584960938 1123.088989257813 237.2097015380859 1123.565673828125 238.8070220947266 1124.467651367188 L 254.6947174072266 1133.427978515625 C 256.9860229492188 1134.720947265625 258.4089965820313 1137.156372070313 258.4089965820313 1139.784057617188 L 258.4089965820313 1149.663940429688 L 258.4089965820313 1158.81298828125 C 258.4089965820313 1160.065673828125 258.0837097167969 1161.3046875 257.4682922363281 1162.396118164063 C 256.8530883789063 1163.487060546875 255.9613647460938 1164.406616210938 254.8895416259766 1165.055419921875 L 238.9635925292969 1174.696411132813 C 237.2951354980469 1175.705688476563 235.3826141357422 1176.239013671875 233.4320068359375 1176.239013671875 Z"/>
    </g>
    <path id="路径_2873" data-name="路径 2873" class="cls-2" d="M204.431,1169.738H230.7a7.293,7.293,0,0,0,3.6-.945l14.424-8.209a3.618,3.618,0,0,0,1.878-3.13v-16.2a3.63,3.63,0,0,0-1.981-3.188l-14.391-7.63a7.3,7.3,0,0,0-3.417-.844H178.049a7.3,7.3,0,0,0-3.417.844l-14.391,7.63a3.63,3.63,0,0,0-1.981,3.188v16.2a3.619,3.619,0,0,0,1.877,3.13l14.425,8.209a7.293,7.293,0,0,0,3.6.945Z"/>
    <g id="组_1610" data-name="组 1610">
      <path id="路径_2874" data-name="路径 2874" class="cls-3" d="M169.743,1154.551h15.722v2.409H169.743Zm1.009-11.3h13.639v2.409H170.752Zm.732,5.5h12.174v2.344H171.484Z"/>
      <path id="路径_2875" data-name="路径 2875" class="cls-3" d="M196.337,1155.145l-8.13-3.751v-1.318l8.13-3.964v2l-5.827,2.58v.049l5.827,2.4Z"/>
      <path id="路径_2876" data-name="路径 2876" class="cls-3" d="M205.508,1155.764h-6.494v-.179a35.909,35.909,0,0,0,3.625-4.785,5.186,5.186,0,0,0,.639-2.4,2,2,0,0,0-.529-1.42,1.7,1.7,0,0,0-1.293-.565,2.137,2.137,0,0,0-1.945,1.253l-.3-.106a4.517,4.517,0,0,1,1.335-2.311,3.129,3.129,0,0,1,2.067-.749,3.064,3.064,0,0,1,1.53.391,2.823,2.823,0,0,1,1.082,1.07,2.583,2.583,0,0,1,.391,1.273,4.608,4.608,0,0,1-.6,2.2,20.908,20.908,0,0,1-3.589,4.2h2.384a5.4,5.4,0,0,0,1.143-.074.945.945,0,0,0,.436-.248,3.187,3.187,0,0,0,.447-.736h.293Z"/>
      <path id="路径_2877" data-name="路径 2877" class="cls-3" d="M217.356,1151.3l-8.13,3.752v-1.994l5.844-2.392v-.041l-5.844-2.588v-2l8.13,3.947Z"/>
      <path id="路径_2878" data-name="路径 2878" class="cls-3" d="M220.147,1156.813l-.244-2.148q.929-.1,1.9-.236V1150.4h-1.6v-1.986h1.6v-3.336h-1.676v-2.018h5.257v2.018h-1.563v3.336h1.432v1.986h-1.432v3.735q.839-.131,1.709-.284-.114,1.172-.146,2.1Zm7.763-14.566h1.954v8.008a10.4,10.4,0,0,1-2.979,7.844q-.829-.765-1.725-1.449a8.383,8.383,0,0,0,2.75-6.754Zm-2.49,9.374q.2-2.994.163-6.444h1.742q-.018,3.255-.147,6.607A17.131,17.131,0,0,0,225.42,1151.621Zm4.167,3.6h2.246v-4.41H230.3v-1.986h1.53v-3.808H230.14V1143h5.615v2.018h-1.774v3.808h1.6v1.986h-1.6v4.41h2.083v2.018h-6.477Z"/>
    </g>
  </g>
</svg>
