<svg xmlns="http://www.w3.org/2000/svg" width="101.956" height="47.15" viewBox="0 0 101.956 47.15">
  <defs>
    <style>
      .cls-1 {
        fill: #ccd9ff;
      }

      .cls-2 {
        fill: #8ca6fd;
      }

      .cls-3 {
        fill: #fff;
      }
    </style>
  </defs>
  <g id="组_1858" data-name="组 1858" transform="translate(225.581 307.353)">
    <path id="路径_3934" data-name="路径 3934" class="cls-1" d="M-174.6-260.2h29a7.676,7.676,0,0,0,3.977-1.109l15.926-9.641a4.3,4.3,0,0,0,2.074-3.676v-19.029a4.3,4.3,0,0,0-2.188-3.743l-15.889-8.961a7.673,7.673,0,0,0-3.773-.991h-58.257a7.673,7.673,0,0,0-3.773.991l-15.889,8.961a4.3,4.3,0,0,0-2.187,3.743v19.029a4.3,4.3,0,0,0,2.073,3.676l15.926,9.641A7.679,7.679,0,0,0-203.6-260.2Z"/>
    <path id="路径_3935" data-name="路径 3935" class="cls-2" d="M-174.6-263.7h26.267a7.294,7.294,0,0,0,3.6-.945l14.424-8.209a3.618,3.618,0,0,0,1.878-3.13v-16.2a3.629,3.629,0,0,0-1.982-3.188l-14.39-7.63a7.305,7.305,0,0,0-3.418-.844h-52.763a7.305,7.305,0,0,0-3.418.844l-14.39,7.63a3.631,3.631,0,0,0-1.982,3.188v16.2a3.618,3.618,0,0,0,1.878,3.13l14.424,8.209a7.3,7.3,0,0,0,3.6.945Z"/>
    <g id="组_1857" data-name="组 1857">
      <path id="路径_3936" data-name="路径 3936" class="cls-3" d="M-209.291-278.891h15.721v2.409h-15.721Zm1.009-11.3h13.638v2.409h-13.638Zm.732,5.5h12.174v2.344H-207.55Z"/>
      <path id="路径_3937" data-name="路径 3937" class="cls-3" d="M-182.7-278.3l-8.13-3.751v-1.318l8.13-3.964v2l-5.827,2.58v.049l5.827,2.4Z"/>
      <path id="路径_3938" data-name="路径 3938" class="cls-3" d="M-175-288.941v9.025a5.645,5.645,0,0,0,.089,1.3.842.842,0,0,0,.375.46,1.774,1.774,0,0,0,.911.178h.252v.3h-5.81v-.3h.293a2.264,2.264,0,0,0,1.009-.162.838.838,0,0,0,.407-.448,4.957,4.957,0,0,0,.106-1.326v-5.721a3.59,3.59,0,0,0-.074-.956.692.692,0,0,0-.272-.326.807.807,0,0,0-.46-.134,2.608,2.608,0,0,0-1.009.261l-.147-.293,4.061-1.856Z"/>
      <path id="路径_3939" data-name="路径 3939" class="cls-3" d="M-161.678-282.146l-8.13,3.752v-1.994l5.843-2.392v-.041l-5.843-2.588v-2l8.13,3.947Z"/>
      <path id="路径_3940" data-name="路径 3940" class="cls-3" d="M-158.887-276.629l-.244-2.148q.929-.1,1.9-.236v-4.028h-1.6v-1.985h1.6v-3.337H-158.9v-2.018h5.257v2.018h-1.563v3.337h1.432v1.985h-1.432v3.735q.839-.131,1.709-.284-.114,1.172-.146,2.1Zm7.763-14.566h1.953v8.008a10.405,10.405,0,0,1-2.978,7.844q-.831-.765-1.726-1.449a8.38,8.38,0,0,0,2.751-6.754Zm-2.49,9.375q.2-3,.163-6.445h1.742q-.018,3.255-.147,6.607A16.846,16.846,0,0,0-153.614-281.82Zm4.166,3.6h2.246v-4.411h-1.529v-1.986h1.529v-3.808h-1.692v-2.018h5.615v2.018h-1.774v3.808h1.6v1.986h-1.6v4.411h2.083v2.017h-6.478Z"/>
    </g>
  </g>
</svg>
