<svg xmlns="http://www.w3.org/2000/svg" width="107.956" height="53.15" viewBox="0 0 107.956 53.15">
  <defs>
    <style>
      .cls-1, .cls-3, .cls-5 {
        fill: #fff;
      }

      .cls-1 {
        stroke-miterlimit: 10;
      }

      .cls-2 {
        fill: #8ca6fd;
      }

      .cls-4, .cls-5 {
        stroke: none;
      }
    </style>
  </defs>
  <g id="组_1623" data-name="组 1623" transform="translate(-150.453 -901.089)">
    <g id="路径_2914" data-name="路径 2914" class="cls-1">
      <path class="cls-4" d="M 233.4320068359375 952.739013671875 L 204.4309997558594 952.739013671875 L 175.4290008544922 952.739013671875 C 173.75146484375 952.739013671875 172.1075897216797 952.280517578125 170.6750640869141 951.4130859375 L 154.7492065429688 941.772216796875 C 153.0244750976563 940.728271484375 151.9530029296875 938.8280029296875 151.9530029296875 936.81298828125 L 151.9530029296875 927.6640014648438 L 151.9530029296875 917.7839965820313 C 151.9530029296875 915.6970825195313 153.0831298828125 913.7623291015625 154.9023590087891 912.7349243164063 L 170.7921600341797 903.7734985351563 C 172.1639862060547 902.9987182617188 173.7237243652344 902.5889892578125 175.302001953125 902.5889892578125 L 204.4309997558594 902.5889892578125 L 233.5590057373047 902.5889892578125 C 235.1372680664063 902.5889892578125 236.697021484375 902.9987182617188 238.0696258544922 903.77392578125 L 253.9578552246094 912.7344970703125 C 255.7783355712891 913.7618408203125 256.9089965820313 915.6966552734375 256.9089965820313 917.7839965820313 L 256.9089965820313 927.6640014648438 L 256.9089965820313 936.81298828125 C 256.9089965820313 938.8280029296875 255.8375244140625 940.728271484375 254.1127319335938 941.7722778320313 L 238.1867980957031 951.4132080078125 C 236.7530822753906 952.2806396484375 235.1090087890625 952.739013671875 233.4320068359375 952.739013671875 Z"/>
      <path class="cls-5" d="M 233.4320068359375 951.239013671875 C 234.8350067138672 951.239013671875 236.2100067138672 950.8560180664063 237.4100036621094 950.1300048828125 L 253.3359985351563 940.489013671875 C 254.6230010986328 939.7100219726563 255.4089965820313 938.3159790039063 255.4089965820313 936.81298828125 L 255.4089965820313 927.6640014648438 L 255.4089965820313 917.7839965820313 C 255.4089965820313 916.2340087890625 254.572998046875 914.8040161132813 253.2209930419922 914.041015625 L 237.3320007324219 905.0800170898438 C 236.1809997558594 904.4299926757813 234.8809967041016 904.0889892578125 233.5590057373047 904.0889892578125 L 204.4309997558594 904.0889892578125 L 175.302001953125 904.0889892578125 C 173.9799957275391 904.0889892578125 172.6799926757813 904.4299926757813 171.5290069580078 905.0800170898438 L 155.6399993896484 914.041015625 C 154.2890014648438 914.8040161132813 153.4530029296875 916.2340087890625 153.4530029296875 917.7839965820313 L 153.4530029296875 927.6640014648438 L 153.4530029296875 936.81298828125 C 153.4530029296875 938.3159790039063 154.2389984130859 939.7100219726563 155.5260009765625 940.489013671875 L 171.4519958496094 950.1300048828125 C 172.6510009765625 950.8560180664063 174.0269927978516 951.239013671875 175.4290008544922 951.239013671875 L 204.4309997558594 951.239013671875 L 233.4320068359375 951.239013671875 M 233.4320068359375 954.239013671875 L 204.4309997558594 954.239013671875 L 175.4290008544922 954.239013671875 C 173.4775238037109 954.239013671875 171.5649566650391 953.7055053710938 169.8981018066406 952.6962280273438 L 153.9723968505859 943.055419921875 C 152.9006958007813 942.40673828125 152.0089416503906 941.4871215820313 151.3937072753906 940.3960571289063 C 150.7783050537109 939.3046875 150.4530029296875 938.065673828125 150.4530029296875 936.81298828125 L 150.4530029296875 927.6640014648438 L 150.4530029296875 917.7839965820313 C 150.4530029296875 915.156982421875 151.875244140625 912.7218627929688 154.1647186279297 911.4288330078125 L 170.0552825927734 902.4669189453125 C 171.6510009765625 901.5657348632813 173.4658203125 901.0889892578125 175.302001953125 901.0889892578125 L 204.4309997558594 901.0889892578125 L 233.5590057373047 901.0889892578125 C 235.3951873779297 901.0889892578125 237.2100067138672 901.5657348632813 238.8072357177734 902.4677734375 L 254.6947174072266 911.4279174804688 C 256.9860534667969 912.7210693359375 258.4089965820313 915.1563720703125 258.4089965820313 917.7839965820313 L 258.4089965820313 927.6640014648438 L 258.4089965820313 936.81298828125 C 258.4089965820313 938.065673828125 258.0837097167969 939.3046875 257.4682922363281 940.3960571289063 C 256.8530578613281 941.4871215820313 255.9613037109375 942.40673828125 254.8894348144531 943.0554809570313 L 238.9635925292969 952.6964111328125 C 237.2953186035156 953.7057495117188 235.3827362060547 954.239013671875 233.4320068359375 954.239013671875 Z"/>
    </g>
    <path id="路径_2915" data-name="路径 2915" class="cls-2" d="M204.431,947.738H230.7a7.293,7.293,0,0,0,3.6-.945l14.424-8.209a3.618,3.618,0,0,0,1.878-3.13v-16.2a3.63,3.63,0,0,0-1.981-3.188l-14.391-7.63a7.3,7.3,0,0,0-3.417-.844H178.049a7.3,7.3,0,0,0-3.417.844l-14.391,7.63a3.63,3.63,0,0,0-1.981,3.188v16.2a3.619,3.619,0,0,0,1.877,3.13l14.425,8.209a7.293,7.293,0,0,0,3.6.945Z"/>
    <g id="组_1622" data-name="组 1622">
      <path id="路径_2916" data-name="路径 2916" class="cls-3" d="M169.743,926.692h15.722V929.1H169.743Z"/>
      <path id="路径_2917" data-name="路径 2917" class="cls-3" d="M196.337,933.145l-8.13-3.751v-1.318l8.13-3.964v2l-5.827,2.58v.049l5.827,2.4Z"/>
      <path id="路径_2918" data-name="路径 2918" class="cls-3" d="M205.508,933.764h-6.494v-.179a35.907,35.907,0,0,0,3.625-4.785,5.186,5.186,0,0,0,.639-2.4,2,2,0,0,0-.529-1.42,1.7,1.7,0,0,0-1.293-.565,2.137,2.137,0,0,0-1.945,1.253l-.3-.106a4.517,4.517,0,0,1,1.335-2.311,3.129,3.129,0,0,1,2.067-.749,3.064,3.064,0,0,1,1.53.391,2.823,2.823,0,0,1,1.082,1.07,2.583,2.583,0,0,1,.391,1.273,4.608,4.608,0,0,1-.6,2.2,20.911,20.911,0,0,1-3.589,4.2h2.384a5.405,5.405,0,0,0,1.143-.074.945.945,0,0,0,.436-.248,3.184,3.184,0,0,0,.447-.736h.293Z"/>
      <path id="路径_2919" data-name="路径 2919" class="cls-3" d="M217.356,929.3l-8.13,3.752v-1.994l5.844-2.392v-.041l-5.844-2.588v-2l8.13,3.947Z"/>
      <path id="路径_2920" data-name="路径 2920" class="cls-3" d="M220.147,934.813l-.244-2.148q.929-.1,1.9-.236V928.4h-1.6v-1.986h1.6v-3.336h-1.676v-2.018h5.257v2.018h-1.563v3.336h1.432V928.4h-1.432v3.735q.839-.13,1.709-.284-.114,1.172-.146,2.1Zm7.763-14.566h1.954v8.008a10.4,10.4,0,0,1-2.979,7.844q-.829-.765-1.725-1.449a8.383,8.383,0,0,0,2.75-6.754Zm-2.49,9.374q.2-2.994.163-6.444h1.742q-.018,3.255-.147,6.607A17.13,17.13,0,0,0,225.42,929.621Zm4.167,3.6h2.246v-4.41H230.3v-1.986h1.53v-3.808H230.14V921h5.615v2.018h-1.774v3.808h1.6v1.986h-1.6v4.41h2.083v2.018h-6.477Z"/>
    </g>
  </g>
</svg>
