<svg xmlns="http://www.w3.org/2000/svg" width="101.956" height="47.15" viewBox="0 0 101.956 47.15">
  <defs>
    <style>
      .cls-1 {
        fill: #ccd9ff;
      }

      .cls-2 {
        fill: #8ca6fd;
      }

      .cls-3 {
        fill: #fff;
      }
    </style>
  </defs>
  <g id="组_1856" data-name="组 1856" transform="translate(102.382 244.788)">
    <path id="路径_3932" data-name="路径 3932" class="cls-1" d="M-51.4-197.638h29a7.68,7.68,0,0,0,3.977-1.11L-2.5-208.389a4.3,4.3,0,0,0,2.073-3.676v-19.028a4.3,4.3,0,0,0-2.187-3.743L-18.5-243.8a7.683,7.683,0,0,0-3.773-.99H-80.532a7.683,7.683,0,0,0-3.773.99l-15.889,8.962a4.3,4.3,0,0,0-2.188,3.743v19.028a4.3,4.3,0,0,0,2.073,3.676l15.927,9.641a7.677,7.677,0,0,0,3.977,1.11Z"/>
    <path id="路径_3933" data-name="路径 3933" class="cls-2" d="M-51.4-201.139h26.267a7.3,7.3,0,0,0,3.6-.945l14.424-8.209a3.618,3.618,0,0,0,1.877-3.13v-16.2a3.628,3.628,0,0,0-1.981-3.187l-14.39-7.631a7.3,7.3,0,0,0-3.418-.843H-77.786a7.3,7.3,0,0,0-3.417.843l-14.39,7.631a3.627,3.627,0,0,0-1.982,3.187v16.2a3.619,3.619,0,0,0,1.878,3.13l14.424,8.209a7.293,7.293,0,0,0,3.6.945Z"/>
    <path id="路径_4036" data-name="路径 4036" class="cls-3" d="M1,2.053V-12.76H15.489v14.8H13.155V1.022H3.333v1.03ZM13.139-5.37a16.916,16.916,0,0,0-.419,2.125h-1.9q-1.9,0-1.9-1.98v-5.362H7.326v3.252A5.364,5.364,0,0,1,4.991-2.568Q4.38-3.083,3.333-3.84v2.689h9.822v-9.435H11.045v4.46a.669.669,0,0,0,.757.757ZM5.2-7.511v-3.075H3.333v6.61A3.72,3.72,0,0,0,5.2-7.511Zm21.592,6.9L18.75-4.323v-1.3l8.043-3.921v1.98L21.028-5.016v.048l5.764,2.375Zm4.685-4.863v-.282a5.27,5.27,0,0,0,1.272-.5,1.888,1.888,0,0,0,.612-.7,1.969,1.969,0,0,0,.258-.954,1.552,1.552,0,0,0-.487-1.147,1.659,1.659,0,0,0-1.212-.479A2.276,2.276,0,0,0,30-8.34l-.3-.1a4.836,4.836,0,0,1,1.485-2.021,3.29,3.29,0,0,1,2.017-.676,2.624,2.624,0,0,1,1.872.692,2.155,2.155,0,0,1,.737,1.618,2.2,2.2,0,0,1-.342,1.163,2.972,2.972,0,0,1-1.075.986,3.809,3.809,0,0,1,1.437,1.131,2.768,2.768,0,0,1,.5,1.687A3.887,3.887,0,0,1,35.1-.962a4.562,4.562,0,0,1-3.313,1.2,3.5,3.5,0,0,1-2.021-.459.975.975,0,0,1-.459-.829.855.855,0,0,1,.266-.632.847.847,0,0,1,.612-.262,1.133,1.133,0,0,1,.5.113,10.334,10.334,0,0,1,.914.7,2.392,2.392,0,0,0,1.469.64,1.333,1.333,0,0,0,1.022-.471,1.713,1.713,0,0,0,.427-1.2A3.113,3.113,0,0,0,33.74-4.19,4.051,4.051,0,0,0,31.478-5.474ZM47.587-4.42,39.545-.708V-2.681l5.78-2.367v-.04l-5.78-2.56v-1.98l8.043,3.9Zm10.442-8.952h1.932V-5.45a10.294,10.294,0,0,1-2.947,7.761q-.821-.757-1.707-1.433A8.293,8.293,0,0,0,58.029-5.8ZM59.687-.539h2.222V-4.9H60.4V-6.867h1.514v-3.768H60.235v-2H65.79v2H64.035v3.768h1.578V-4.9H64.035V-.539H66.1v2H59.687ZM50.349,1.039l-.242-2.125q.918-.1,1.884-.233V-5.305H50.413V-7.27h1.578v-3.3H50.333v-2h5.2v2H53.987v3.3H55.4v1.964H53.987v3.7q.829-.129,1.691-.282Q55.565-.733,55.533.185ZM55.565-4.1q.193-2.963.161-6.376h1.723q-.016,3.22-.145,6.537A16.367,16.367,0,0,0,55.565-4.1Z" transform="translate(-85.981 -215.341)"/>
  </g>
</svg>
