<svg id="组_419" data-name="组 419" xmlns="http://www.w3.org/2000/svg" width="714.187" height="651.547" viewBox="0 0 714.187 651.547">
  <defs>
    <style>
      .cls-1 {
        fill: #b5765d;
      }

      .cls-2 {
        fill: #d4977f;
      }

      .cls-3 {
        fill: #fff6d6;
      }

      .cls-4 {
        fill: #e6ddc0;
      }

      .cls-5 {
        fill: #f8f8f6;
      }

      .cls-6 {
        fill: #e8dfc2;
      }

      .cls-7 {
        fill: #ccc4aa;
      }

      .cls-8 {
        fill: #f2eacb;
      }

      .cls-9 {
        fill: #c46e50;
      }

      .cls-10 {
        fill: #a35c43;
      }

      .cls-11 {
        fill: #fff;
      }

      .cls-12 {
        fill: #cf8d6e;
      }

      .cls-13 {
        fill: #f2e1dc;
      }

      .cls-14 {
        fill: #fbfcb8;
      }

      .cls-15 {
        fill: #bd7553;
      }

      .cls-16 {
        fill: #eb351c;
      }

      .cls-17 {
        fill: #3e64af;
      }

      .cls-18 {
        fill: #f9e108;
      }

      .cls-19 {
        fill: #7aa9f9;
      }

      .cls-20 {
        fill: #f94f33;
      }

      .cls-21 {
        fill: #588df9;
      }

      .cls-22 {
        fill: #223f58;
      }

      .cls-23 {
        fill: #fac65f;
      }

      .cls-24 {
        fill: #fad999;
      }

      .cls-25 {
        fill: #d4a548;
      }

      .cls-26 {
        fill: #deb152;
      }

      .cls-27 {
        fill: #e3b65f;
      }

      .cls-28 {
        fill: #bd923e;
      }

      .cls-29 {
        fill: #f0ca7f;
      }

      .cls-30 {
        fill: #decfc9;
      }

      .cls-31 {
        fill: #d9c6b8;
      }

      .cls-32 {
        fill: #cbfffb;
      }

      .cls-33 {
        fill: #ded4d4;
      }

      .cls-34 {
        fill: #4b9e5b;
      }
    </style>
  </defs>
  <g id="组_381" data-name="组 381" transform="translate(623.062 180.862)">
    <rect id="矩形_77" data-name="矩形 77" class="cls-1" width="31.858" height="10.013" transform="translate(0 17.295)"/>
    <rect id="矩形_78" data-name="矩形 78" class="cls-1" width="31.858" height="10.013" transform="translate(0 36.713)"/>
    <rect id="矩形_79" data-name="矩形 79" class="cls-2" width="66.751" height="62.503" transform="translate(24.374)"/>
    <rect id="矩形_80" data-name="矩形 80" class="cls-1" width="31.858" height="10.013" transform="translate(0 131.075)"/>
    <rect id="矩形_81" data-name="矩形 81" class="cls-1" width="31.858" height="10.013" transform="translate(0 150.493)"/>
    <rect id="矩形_82" data-name="矩形 82" class="cls-2" width="66.751" height="62.503" transform="translate(24.374 113.78)"/>
    <rect id="矩形_83" data-name="矩形 83" class="cls-1" width="31.858" height="10.013" transform="translate(0 244.855)"/>
    <rect id="矩形_84" data-name="矩形 84" class="cls-1" width="31.858" height="10.013" transform="translate(0 264.273)"/>
    <rect id="矩形_85" data-name="矩形 85" class="cls-2" width="66.751" height="62.503" transform="translate(24.374 227.56)"/>
    <rect id="矩形_86" data-name="矩形 86" class="cls-1" width="31.858" height="10.013" transform="translate(0 358.635)"/>
    <rect id="矩形_87" data-name="矩形 87" class="cls-1" width="31.858" height="10.013" transform="translate(0 378.053)"/>
    <rect id="矩形_88" data-name="矩形 88" class="cls-2" width="66.751" height="62.503" transform="translate(24.374 341.34)"/>
  </g>
  <g id="组_382" data-name="组 382" transform="translate(28.473 124.742)">
    <rect id="矩形_89" data-name="矩形 89" class="cls-3" width="594.303" height="208.87" transform="translate(0.244 18.709)"/>
    <rect id="矩形_90" data-name="矩形 90" class="cls-3" width="193.881" height="524.94"/>
    <rect id="矩形_91" data-name="矩形 91" class="cls-3" width="184.568" height="524.94" transform="translate(409.912)"/>
    <path id="路径_785" data-name="路径 785" class="cls-4" d="M836.306,157.908l187,222.813h-187Z" transform="translate(-426.102 -141.141)"/>
    <rect id="矩形_92" data-name="矩形 92" class="cls-5" width="228.208" height="14.564" transform="translate(208.456 19.372) rotate(90)"/>
    <rect id="矩形_93" data-name="矩形 93" class="cls-6" width="244" height="14.564" transform="translate(410.456 18.58) rotate(90)"/>
    <path id="路径_786" data-name="路径 786" class="cls-4" d="M426.623,176.721H619.306l15.252-8.34,187.748-1,17,8.34,181,1V157.908l-184-.187v2h-217V158.01h-193Z" transform="translate(-426.102 -141.141)"/>
    <path id="路径_787" data-name="路径 787" class="cls-7" d="M822.3,159.346l.005,9.375,14,7V159.346Z" transform="translate(-426.102 -141.141)"/>
    <path id="路径_788" data-name="路径 788" class="cls-8" d="M619.5,159.346l0,17.375,14.8-8v-9.375Z" transform="translate(-426.102 -141.141)"/>
  </g>
  <g id="组_399" data-name="组 399">
    <path id="矩形_94" data-name="矩形 94" class="cls-9" d="M36.036,0h77.346a36.036,36.036,0,0,1,36.036,36.036v0a0,0,0,0,1,0,0H0a0,0,0,0,1,0,0v0A36.036,36.036,0,0,1,36.036,0Z" transform="translate(255.655 62.111)"/>
    <rect id="矩形_95" data-name="矩形 95" class="cls-9" width="217" height="33.221" transform="translate(221.677 110.321)"/>
    <rect id="矩形_96" data-name="矩形 96" class="cls-10" width="188.971" height="31.788" transform="translate(235.879 83.645)"/>
    <rect id="矩形_97" data-name="矩形 97" class="cls-9" width="222.513" height="9.668" transform="translate(219.107 105.908)"/>
    <rect id="矩形_98" data-name="矩形 98" class="cls-9" width="221.623" height="14.564" transform="translate(0.053 121.09)"/>
    <rect id="矩形_99" data-name="矩形 99" class="cls-9" width="213.704" height="14.564" transform="translate(437.677 121.09)"/>
    <g id="组_383" data-name="组 383" transform="translate(0 121.039)">
      <rect id="矩形_100" data-name="矩形 100" class="cls-10" width="222.301" height="6.068" transform="translate(0.053 14.503)"/>
      <rect id="矩形_101" data-name="矩形 101" class="cls-10" width="212.671" height="6.068" transform="translate(438.677 14.503)"/>
      <rect id="矩形_102" data-name="矩形 102" class="cls-10" width="28.486" height="32.946" transform="translate(622.971)"/>
      <rect id="矩形_103" data-name="矩形 103" class="cls-10" width="28.486" height="32.946" transform="translate(0 0.19)"/>
    </g>
    <rect id="矩形_104" data-name="矩形 104" class="cls-11" width="85.11" height="85.11" transform="translate(287.809 2.637)"/>
    <g id="组_397" data-name="组 397" transform="translate(297.184 12.012)">
      <circle id="椭圆_130" data-name="椭圆 130" class="cls-12" cx="33.18" cy="33.18" r="33.18"/>
      <circle id="椭圆_131" data-name="椭圆 131" class="cls-13" cx="29.774" cy="29.774" r="29.774" transform="translate(3.406 3.406)"/>
      <circle id="椭圆_132" data-name="椭圆 132" class="cls-14" cx="1.161" cy="1.161" r="1.161" transform="translate(32.018 32.018)"/>
      <g id="组_396" data-name="组 396" transform="translate(3.406 3.406)">
        <g id="组_395" data-name="组 395">
          <g id="组_384" data-name="组 384" transform="translate(27.293 27.293)">
            <circle id="椭圆_133" data-name="椭圆 133" class="cls-15" cx="2.481" cy="2.481" r="2.481"/>
          </g>
          <g id="组_385" data-name="组 385" transform="translate(28.533)">
            <rect id="矩形_105" data-name="矩形 105" class="cls-12" width="1.241" height="4.962"/>
          </g>
          <g id="组_386" data-name="组 386" transform="translate(29.774 54.586)">
            <rect id="矩形_106" data-name="矩形 106" class="cls-12" width="1.241" height="4.962"/>
          </g>
          <g id="组_387" data-name="组 387" transform="translate(54.586 28.533)">
            <rect id="矩形_107" data-name="矩形 107" class="cls-12" width="4.962" height="1.241"/>
          </g>
          <g id="组_388" data-name="组 388" transform="translate(47.43 46.81)">
            <rect id="矩形_108" data-name="矩形 108" class="cls-12" width="1.241" height="4.674" transform="translate(0 0.877) rotate(-45)"/>
          </g>
          <g id="组_389" data-name="组 389" transform="translate(8.538 7.93)">
            <rect id="矩形_109" data-name="矩形 109" class="cls-12" width="1.241" height="4.674" transform="translate(0 0.877) rotate(-45)"/>
          </g>
          <g id="组_390" data-name="组 390" transform="translate(47.25 7.912)">
            <rect id="矩形_110" data-name="矩形 110" class="cls-12" width="4.674" height="1.241" transform="translate(0 3.305) rotate(-45)"/>
          </g>
          <g id="组_391" data-name="组 391" transform="translate(8.171 46.99)">
            <rect id="矩形_111" data-name="矩形 111" class="cls-12" width="4.674" height="1.241" transform="translate(0 3.305) rotate(-45)"/>
          </g>
          <g id="组_392" data-name="组 392" transform="translate(0 28.533)">
            <rect id="矩形_112" data-name="矩形 112" class="cls-12" width="4.962" height="1.241"/>
          </g>
          <g id="组_393" data-name="组 393" transform="translate(28.319 13.102)">
            <path id="路径_789" data-name="路径 789" class="cls-15" d="M727.226,45.987V60.721h1.465V45.995h.615L728.07,44.92l-1.531,1.075Z" transform="translate(-726.539 -44.92)"/>
          </g>
          <g id="组_394" data-name="组 394" transform="translate(17.086 26.904)">
            <path id="路径_790" data-name="路径 790" class="cls-15" d="M716.184,62.389h12.122V59.806H716.19V58.722l-.884,2.179.884,2.7S716.184,62.285,716.184,62.389Z" transform="translate(-715.306 -58.722)"/>
          </g>
        </g>
      </g>
    </g>
    <rect id="矩形_113" data-name="矩形 113" class="cls-13" width="85.147" height="3.076" transform="translate(372.891 85.202) rotate(-90)"/>
    <rect id="矩形_114" data-name="矩形 114" class="cls-13" width="85.147" height="3.076" transform="translate(286.59 85.15) rotate(-90)"/>
    <rect id="矩形_115" data-name="矩形 115" class="cls-13" width="188.971" height="9.229" transform="translate(235.879 81.302)"/>
    <rect id="矩形_116" data-name="矩形 116" class="cls-13" width="85.147" height="3.076" transform="translate(287.791)"/>
    <g id="组_398" data-name="组 398" transform="translate(16.14 71.388)">
      <path id="路径_791" data-name="路径 791" class="cls-16" d="M424.049,97.287c-.038,0-.023.054.047.161C424.065,97.295,424.057,97.233,424.049,97.287Zm-.907,6.5c-.038.008-.008.062.085.154C423.157,103.792,423.134,103.738,423.142,103.792Zm.154,5.26c-.092-.139-.123-.192-.108-.139C423.15,108.921,423.188,108.975,423.3,109.052Z" transform="translate(-413.769 -87.788)"/>
      <path id="路径_792" data-name="路径 792" class="cls-17" d="M458.936,117.01c1.915-6.113-3.46-12.564-10.765-13.433a10.862,10.862,0,0,0-3.045.015c-3.053.523-6.044,1.023-8.781.193-4.914-1.615-11.673-5.468-12.257-6.337a21.022,21.022,0,0,0,3.414,8.359,18.244,18.244,0,0,1-4.283-1.861,23.956,23.956,0,0,0,3.868,6.267,15.613,15.613,0,0,1-3.8-1.161,25.391,25.391,0,0,0,10.058,9.319,52.335,52.335,0,0,0,11.9,4.629c6.036,1.638,12.1-.884,13.687-5.99Z" transform="translate(-413.769 -87.788)"/>
      <path id="路径_793" data-name="路径 793" class="cls-18" d="M463.535,94.742c.353-.085,14.771,2.73,14.771,2.73l-12.834,9.665Z" transform="translate(-413.769 -87.788)"/>
      <path id="路径_794" data-name="路径 794" class="cls-19" d="M459.951,88.89c-19.469-6.974-19.2,21.1-30.357,29.389-3.507,2.453-11.588,4.852-15.825,6.667,0,0,16.178,8.2,21.537,7.775,9.089.123,17.079-1.731,23.33-5.784,5.329-3.452,9.1-11.88,9.9-14.079,4.253-11.549.231-20.815-8.589-23.968Z" transform="translate(-413.769 -87.788)"/>
      <path id="路径_795" data-name="路径 795" class="cls-20" d="M417.129,107.46c-.046.015,0,.069.1.146C417.144,107.46,417.114,107.4,417.129,107.46Zm1.353,7c-.038.023.016.062.139.123C418.505,114.457,418.459,114.411,418.482,114.465Zm2.007,5.352c-.138-.115-.192-.154-.161-.108C420.3,119.732,420.359,119.771,420.489,119.817Z" transform="translate(-413.769 -87.788)"/>
      <path id="路径_796" data-name="路径 796" class="cls-21" d="M459.936,115.442c-.185-6.959-7.982-11.7-15.794-10.02a11.464,11.464,0,0,0-3.122,1.092c-2.953,1.615-5.852,3.176-8.958,3.291-5.621.07-13.918-1.507-14.833-2.191A22.812,22.812,0,0,0,423.68,115a19.744,19.744,0,0,1-5.059-.407,26.213,26.213,0,0,0,6.182,5.083,16.948,16.948,0,0,1-4.306.146,27.615,27.615,0,0,0,13.618,6.036,57.078,57.078,0,0,0,13.864.569C454.753,125.976,460.09,121.247,459.936,115.442Z" transform="translate(-413.769 -87.788)"/>
      <path id="路径_797" data-name="路径 797" class="cls-11" d="M457.2,98.748a2.714,2.714,0,1,0,5.428,0v0a2.714,2.714,0,1,0-5.428,0Z" transform="translate(-413.769 -87.788)"/>
      <rect id="矩形_117" data-name="矩形 117" class="cls-22" width="1" height="9" transform="translate(21.537 40.933)"/>
      <rect id="矩形_118" data-name="矩形 118" class="cls-22" width="1" height="9" transform="translate(26.537 40.933)"/>
    </g>
  </g>
  <g id="组_400" data-name="组 400" transform="translate(28.4 357.321)">
    <rect id="矩形_119" data-name="矩形 119" class="cls-23" width="194" height="202" transform="translate(0.277 51)"/>
    <rect id="矩形_120" data-name="矩形 120" class="cls-23" width="184" height="202" transform="translate(410.277 51)"/>
    <rect id="矩形_121" data-name="矩形 121" class="cls-24" width="253.83" height="14.564" transform="translate(208.528 0.954) rotate(90)"/>
    <rect id="矩形_122" data-name="矩形 122" class="cls-25" width="292" height="14.564" transform="translate(410.528 0) rotate(90)"/>
    <path id="路径_798" data-name="路径 798" class="cls-26" d="M836.306,424.908l187,201.813h-187Z" transform="translate(-426.029 -373.721)"/>
    <rect id="矩形_123" data-name="矩形 123" class="cls-23" width="188" height="228" transform="translate(208.277 40)"/>
    <path id="路径_799" data-name="路径 799" class="cls-27" d="M426.347,437.721H619.306l15.252-10H822.306l14,10h184.362V424.908H836.306V413.721l-217-1V425.01H426.029Z" transform="translate(-426.029 -373.721)"/>
    <rect id="矩形_124" data-name="矩形 124" class="cls-11" width="14" height="15.433" transform="translate(194.277 252.567)"/>
    <rect id="矩形_125" data-name="矩形 125" class="cls-11" width="14" height="15.433" transform="translate(396.277 252.567)"/>
    <path id="路径_800" data-name="路径 800" class="cls-28" d="M822.3,413.721l.005,14,14,10v-24Z" transform="translate(-426.029 -373.721)"/>
    <path id="路径_801" data-name="路径 801" class="cls-29" d="M619.5,413.721l0,24,14.8-10v-14Z" transform="translate(-426.029 -373.721)"/>
  </g>
  <g id="组_403" data-name="组 403" transform="translate(9.677 352.321)">
    <g id="组_401" data-name="组 401">
      <path id="路径_802" data-name="路径 802" class="cls-11" d="M620.306,397.721l-213-10,14-7.433h199Z" transform="translate(-407.306 -368.721)"/>
      <path id="路径_803" data-name="路径 803" class="cls-11" d="M850.306,378.721h-245l14.972-10,216.028.567Z" transform="translate(-407.306 -368.721)"/>
      <path id="路径_804" data-name="路径 804" class="cls-11" d="M1036.306,387.721l-200,10V380.288h187Z" transform="translate(-407.306 -368.721)"/>
    </g>
    <rect id="矩形_126" data-name="矩形 126" class="cls-13" width="212.677" height="22.727" transform="translate(0 19.349)"/>
    <rect id="矩形_127" data-name="矩形 127" class="cls-13" width="245" height="22.727" transform="translate(198 10)"/>
    <rect id="矩形_128" data-name="矩形 128" class="cls-13" width="200.075" height="22.727" transform="translate(428.925 19.349)"/>
    <g id="组_402" data-name="组 402" transform="translate(0 32)">
      <path id="路径_805" data-name="路径 805" class="cls-30" d="M620.306,424.721h-199l-14-15,213-2.433Z" transform="translate(-407.306 -400.721)"/>
      <path id="路径_806" data-name="路径 806" class="cls-30" d="M1023.306,424.721h-187V407.288l200,2.433Z" transform="translate(-407.306 -400.721)"/>
      <path id="路径_807" data-name="路径 807" class="cls-30" d="M836.306,413.721H620.278l-14.972-13,245,1Z" transform="translate(-407.306 -400.721)"/>
    </g>
  </g>
  <g id="组_416" data-name="组 416" transform="translate(57.051 160.543)">
    <g id="组_404" data-name="组 404" transform="translate(2.144 2.928)">
      <rect id="矩形_129" data-name="矩形 129" class="cls-31" width="110.877" height="51.409" transform="translate(10.989 12.017)"/>
      <rect id="矩形_130" data-name="矩形 130" class="cls-32" width="93.485" height="43.345" transform="translate(19.686 16.049)"/>
      <path id="路径_808" data-name="路径 808" class="cls-31" d="M468.436,189.607s55.09-22.58,110.339,1.032v5.719s-50.876-20.446-111.045.03C468.108,196.573,467.3,189.607,468.436,189.607Z" transform="translate(-456.825 -179.87)"/>
      <path id="路径_809" data-name="路径 809" class="cls-11" d="M589.68,244.08H456.825l6.541-4.813h120Z" transform="translate(-456.825 -179.87)"/>
      <rect id="矩形_131" data-name="矩形 131" class="cls-33" width="132.63" height="7.368" transform="translate(0.225 64.21)"/>
      <path id="路径_810" data-name="路径 810" class="cls-11" d="M545.188,195.92,515.969,239.2l18.594.064,26.729-43.347Z" transform="translate(-456.825 -179.87)"/>
    </g>
    <g id="组_405" data-name="组 405" transform="translate(2.144 101.874)">
      <rect id="矩形_132" data-name="矩形 132" class="cls-31" width="110.877" height="51.409" transform="translate(10.989 12.017)"/>
      <rect id="矩形_133" data-name="矩形 133" class="cls-32" width="93.485" height="43.345" transform="translate(19.686 16.049)"/>
      <path id="路径_811" data-name="路径 811" class="cls-31" d="M468.436,288.553s55.09-22.579,110.339,1.033V295.3s-50.876-20.445-111.045.031C468.108,295.519,467.3,288.553,468.436,288.553Z" transform="translate(-456.825 -278.817)"/>
      <path id="路径_812" data-name="路径 812" class="cls-11" d="M589.68,344.08H456.825l7.594-5.866H582.312Z" transform="translate(-456.825 -278.817)"/>
      <path id="路径_813" data-name="路径 813" class="cls-11" d="M545.188,294.866,515.969,338.15l18.594.064,26.729-43.347Z" transform="translate(-456.825 -278.817)"/>
      <rect id="矩形_134" data-name="矩形 134" class="cls-33" width="132.63" height="7.368" transform="translate(0.225 65.263)"/>
    </g>
    <g id="组_406" data-name="组 406" transform="translate(1.881 267.136)">
      <rect id="矩形_135" data-name="矩形 135" class="cls-31" width="110.877" height="51.409" transform="translate(11.252 12.017)"/>
      <rect id="矩形_136" data-name="矩形 136" class="cls-32" width="93.485" height="43.345" transform="translate(19.948 16.049)"/>
      <path id="路径_814" data-name="路径 814" class="cls-31" d="M468.436,453.815s55.09-22.579,110.339,1.033v5.718S527.9,440.121,467.73,460.6C468.108,460.781,467.3,453.815,468.436,453.815Z" transform="translate(-456.562 -444.079)"/>
      <path id="路径_815" data-name="路径 815" class="cls-11" d="M545.188,460.128l-29.219,43.284,18.594.064,26.729-43.347Z" transform="translate(-456.562 -444.079)"/>
      <rect id="矩形_137" data-name="矩形 137" class="cls-33" width="132.63" height="7.368" transform="translate(0.422 65.049)"/>
      <path id="路径_816" data-name="路径 816" class="cls-11" d="M589.418,509.128H456.562l7.594-5.866H582.049Z" transform="translate(-456.562 -444.079)"/>
    </g>
    <g id="组_407" data-name="组 407" transform="translate(0 365.03)">
      <rect id="矩形_138" data-name="矩形 138" class="cls-31" width="110.877" height="51.409" transform="translate(13.134 12.017)"/>
      <rect id="矩形_139" data-name="矩形 139" class="cls-32" width="93.485" height="43.345" transform="translate(21.83 16.049)"/>
      <path id="路径_817" data-name="路径 817" class="cls-31" d="M468.436,551.709s55.09-22.58,110.339,1.033v5.718s-50.876-20.445-111.045.031C468.108,558.675,467.3,551.709,468.436,551.709Z" transform="translate(-454.681 -541.973)"/>
      <path id="路径_818" data-name="路径 818" class="cls-11" d="M545.188,558.022l-29.219,43.284,18.594.064,26.729-43.347Z" transform="translate(-454.681 -541.973)"/>
      <rect id="矩形_140" data-name="矩形 140" class="cls-33" width="132.63" height="7.368" transform="translate(0.422 64.624)"/>
      <path id="路径_819" data-name="路径 819" class="cls-11" d="M587.536,606.6H454.681l7.594-5.866H580.168Z" transform="translate(-454.681 -541.973)"/>
    </g>
    <g id="组_408" data-name="组 408" transform="translate(399.628 0.016)">
      <rect id="矩形_141" data-name="矩形 141" class="cls-31" width="112.345" height="52.09" transform="translate(10.703 12.176)"/>
      <rect id="矩形_142" data-name="矩形 142" class="cls-32" width="94.722" height="43.919" transform="translate(19.514 16.261)"/>
      <path id="路径_820" data-name="路径 820" class="cls-31" d="M865.642,186.824s55.819-22.878,111.8,1.046v5.794s-51.55-20.716-112.515.031C865.31,193.882,864.492,186.824,865.642,186.824Z" transform="translate(-854.309 -176.959)"/>
      <path id="路径_821" data-name="路径 821" class="cls-11" d="M943.41,193.22,913.8,237.077l18.84.064,27.082-43.921Z" transform="translate(-854.309 -176.959)"/>
      <path id="路径_822" data-name="路径 822" class="cls-11" d="M988.923,242.891H854.309L862,236.948H981.457Z" transform="translate(-854.309 -176.959)"/>
      <rect id="矩形_143" data-name="矩形 143" class="cls-33" width="134.386" height="7.466" transform="translate(0.228 65.932)"/>
    </g>
    <g id="组_409" data-name="组 409" transform="translate(399.56 100.272)">
      <rect id="矩形_144" data-name="矩形 144" class="cls-31" width="112.345" height="52.09" transform="translate(10.771 12.176)"/>
      <rect id="矩形_145" data-name="矩形 145" class="cls-32" width="94.722" height="43.919" transform="translate(19.582 16.262)"/>
      <path id="路径_823" data-name="路径 823" class="cls-31" d="M865.642,287.08s55.819-22.878,111.8,1.046v5.795s-51.55-20.717-112.515.031C865.31,294.138,864.492,287.08,865.642,287.08Z" transform="translate(-854.241 -277.215)"/>
      <path id="路径_824" data-name="路径 824" class="cls-11" d="M943.41,293.477,913.8,337.333l18.84.064,27.082-43.921Z" transform="translate(-854.241 -277.215)"/>
      <path id="路径_825" data-name="路径 825" class="cls-11" d="M988.855,343.783H854.241l7.694-5.944H981.389Z" transform="translate(-854.241 -277.215)"/>
      <rect id="矩形_146" data-name="矩形 146" class="cls-33" width="134.386" height="7.466" transform="translate(0.228 66.568)"/>
    </g>
    <g id="组_410" data-name="组 410" transform="translate(399.243 267.721)">
      <rect id="矩形_147" data-name="矩形 147" class="cls-31" width="112.345" height="52.09" transform="translate(11.089 12.176)"/>
      <rect id="矩形_148" data-name="矩形 148" class="cls-32" width="94.722" height="43.919" transform="translate(19.9 16.261)"/>
      <path id="路径_826" data-name="路径 826" class="cls-31" d="M865.642,454.529s55.819-22.878,111.8,1.047v5.794s-51.55-20.716-112.515.031C865.31,461.588,864.492,454.529,865.642,454.529Z" transform="translate(-853.923 -444.664)"/>
      <path id="路径_827" data-name="路径 827" class="cls-11" d="M943.41,460.926,913.8,504.782l18.84.064,27.082-43.921Z" transform="translate(-853.923 -444.664)"/>
      <path id="路径_828" data-name="路径 828" class="cls-11" d="M988.537,510.324H853.923l7.694-5.944H981.071Z" transform="translate(-853.923 -444.664)"/>
      <rect id="矩形_149" data-name="矩形 149" class="cls-33" width="134.386" height="7.466" transform="translate(0.228 65.66)"/>
    </g>
    <g id="组_411" data-name="组 411" transform="translate(399.401 366.911)">
      <rect id="矩形_150" data-name="矩形 150" class="cls-31" width="112.345" height="52.09" transform="translate(10.93 12.176)"/>
      <rect id="矩形_151" data-name="矩形 151" class="cls-32" width="94.722" height="43.919" transform="translate(19.741 16.262)"/>
      <path id="路径_829" data-name="路径 829" class="cls-31" d="M865.642,553.719s55.819-22.879,111.8,1.046v5.794s-51.55-20.716-112.515.031C865.31,560.777,864.492,553.719,865.642,553.719Z" transform="translate(-854.082 -543.854)"/>
      <path id="路径_830" data-name="路径 830" class="cls-11" d="M943.41,560.115,913.8,603.972l18.84.064,27.082-43.921Z" transform="translate(-854.082 -543.854)"/>
      <path id="路径_831" data-name="路径 831" class="cls-11" d="M988.7,610.581H854.082l7.694-5.944H981.23Z" transform="translate(-854.082 -543.854)"/>
      <rect id="矩形_152" data-name="矩形 152" class="cls-33" width="134.386" height="7.466" transform="translate(0.228 66.727)"/>
    </g>
    <g id="组_412" data-name="组 412" transform="translate(208.71)">
      <rect id="矩形_153" data-name="矩形 153" class="cls-31" width="111.856" height="51.863" transform="translate(10.882 12.123)"/>
      <rect id="矩形_154" data-name="矩形 154" class="cls-32" width="94.31" height="43.728" transform="translate(19.655 16.191)"/>
      <path id="路径_832" data-name="路径 832" class="cls-31" d="M674.9,186.765s55.576-22.779,111.313,1.042v5.769s-51.326-20.626-112.026.031C674.57,193.793,673.756,186.765,674.9,186.765Z" transform="translate(-663.391 -176.943)"/>
      <path id="路径_833" data-name="路径 833" class="cls-11" d="M752.33,193.134,722.853,236.8l18.758.064,26.965-43.73Z" transform="translate(-663.391 -176.943)"/>
      <path id="路径_834" data-name="路径 834" class="cls-11" d="M797.419,242.656H663.391l7.661-5.918H789.986Z" transform="translate(-663.391 -176.943)"/>
      <rect id="矩形_155" data-name="矩形 155" class="cls-33" width="133.801" height="7.433" transform="translate(0.227 65.714)"/>
    </g>
    <g id="组_413" data-name="组 413" transform="translate(208.959 99.82)">
      <rect id="矩形_156" data-name="矩形 156" class="cls-31" width="111.856" height="51.863" transform="translate(10.634 12.123)"/>
      <rect id="矩形_157" data-name="矩形 157" class="cls-32" width="94.31" height="43.728" transform="translate(19.407 16.191)"/>
      <path id="路径_835" data-name="路径 835" class="cls-31" d="M674.9,286.585s55.576-22.779,111.313,1.042V293.4s-51.326-20.626-112.026.031C674.57,293.613,673.756,286.585,674.9,286.585Z" transform="translate(-663.639 -276.763)"/>
      <path id="路径_836" data-name="路径 836" class="cls-11" d="M752.33,292.954l-29.477,43.666,18.758.064,26.965-43.73Z" transform="translate(-663.639 -276.763)"/>
      <path id="路径_837" data-name="路径 837" class="cls-11" d="M797.668,342.793H663.639l7.661-5.918H790.234Z" transform="translate(-663.639 -276.763)"/>
      <rect id="矩形_158" data-name="矩形 158" class="cls-33" width="133.801" height="7.433" transform="translate(0.227 66.03)"/>
    </g>
    <g id="组_414" data-name="组 414" transform="translate(207.987 266.54)">
      <rect id="矩形_159" data-name="矩形 159" class="cls-31" width="111.856" height="51.863" transform="translate(11.605 12.123)"/>
      <rect id="矩形_160" data-name="矩形 160" class="cls-32" width="94.31" height="43.728" transform="translate(20.378 16.191)"/>
      <path id="路径_838" data-name="路径 838" class="cls-31" d="M674.9,453.3s55.576-22.778,111.313,1.042v5.769s-51.326-20.626-112.026.031C674.57,460.333,673.756,453.3,674.9,453.3Z" transform="translate(-662.668 -443.483)"/>
      <path id="路径_839" data-name="路径 839" class="cls-11" d="M752.33,459.674,722.853,503.34l18.758.064,26.965-43.73Z" transform="translate(-662.668 -443.483)"/>
      <path id="路径_840" data-name="路径 840" class="cls-11" d="M796.7,509.084H662.668l7.661-5.918H789.263Z" transform="translate(-662.668 -443.483)"/>
      <rect id="矩形_161" data-name="矩形 161" class="cls-33" width="133.801" height="7.433" transform="translate(0.227 65.6)"/>
    </g>
    <g id="组_415" data-name="组 415" transform="translate(207.987 365.298)">
      <rect id="矩形_162" data-name="矩形 162" class="cls-31" width="111.856" height="51.863" transform="translate(11.605 12.123)"/>
      <rect id="矩形_163" data-name="矩形 163" class="cls-32" width="94.31" height="43.728" transform="translate(20.378 16.191)"/>
      <path id="路径_841" data-name="路径 841" class="cls-31" d="M674.9,552.063s55.576-22.778,111.313,1.042v5.769s-51.326-20.626-112.026.031C674.57,559.091,673.756,552.063,674.9,552.063Z" transform="translate(-662.668 -542.241)"/>
      <path id="路径_842" data-name="路径 842" class="cls-11" d="M752.33,558.432,722.853,602.1l18.758.064,26.965-43.73Z" transform="translate(-662.668 -542.241)"/>
      <path id="路径_843" data-name="路径 843" class="cls-11" d="M796.7,607.842H662.668l7.661-5.918H789.263Z" transform="translate(-662.668 -542.241)"/>
      <rect id="矩形_164" data-name="矩形 164" class="cls-33" width="133.801" height="7.433" transform="translate(0.227 65.6)"/>
    </g>
  </g>
  <g id="组_418" data-name="组 418" transform="translate(9.677 544.321)">
    <path id="路径_844" data-name="路径 844" class="cls-11" d="M619.983,653.8,407.306,640.721l11.636-14.433H619.983Z" transform="translate(-407.306 -560.721)"/>
    <path id="路径_845" data-name="路径 845" class="cls-11" d="M1052.306,641.721,835.812,653.8V626.289h204.494Z" transform="translate(-407.306 -560.721)"/>
    <path id="路径_846" data-name="路径 846" class="cls-30" d="M1052.306,667.452l-645-1V640.721l645,1Z" transform="translate(-407.306 -560.721)"/>
    <g id="组_417" data-name="组 417" transform="translate(168.871 78.322)">
      <rect id="矩形_165" data-name="矩形 165" class="cls-13" width="43.947" height="28.903"/>
      <rect id="矩形_166" data-name="矩形 166" class="cls-13" width="43.947" height="28.903" transform="translate(260)"/>
    </g>
    <rect id="矩形_167" data-name="矩形 167" class="cls-11" width="188" height="15.433" transform="translate(227 65.568)"/>
    <path id="路径_847" data-name="路径 847" class="cls-34" d="M615.685,608.074a109.425,109.425,0,0,1-2.763,25.167H582.229a109.423,109.423,0,0,1-2.764-25.167c0-26.135,8.12-47.353,18.11-47.353C607.583,560.721,615.685,581.939,615.685,608.074Z" transform="translate(-407.306 -560.721)"/>
    <path id="路径_848" data-name="路径 848" class="cls-34" d="M875.685,608.074a109.425,109.425,0,0,1-2.763,25.167H842.229a109.423,109.423,0,0,1-2.764-25.167c0-26.135,8.12-47.353,18.11-47.353C867.583,560.721,875.685,581.939,875.685,608.074Z" transform="translate(-407.306 -560.721)"/>
  </g>
</svg>
