<svg xmlns="http://www.w3.org/2000/svg" width="107.956" height="53.15" viewBox="0 0 107.956 53.15">
  <defs>
    <style>
      .cls-1, .cls-3, .cls-5 {
        fill: #fff;
      }

      .cls-1 {
        stroke-miterlimit: 10;
      }

      .cls-2 {
        fill: #8ca6fd;
      }

      .cls-4, .cls-5 {
        stroke: none;
      }
    </style>
  </defs>
  <g id="组_1607" data-name="组 1607" transform="translate(-38.453 -1067.089)">
    <g id="路径_2858" data-name="路径 2858" class="cls-1">
      <path class="cls-4" d="M 121.431999206543 1118.739013671875 L 92.43099975585938 1118.739013671875 L 63.42900085449219 1118.739013671875 C 61.7515869140625 1118.739013671875 60.10771560668945 1118.280517578125 58.67509841918945 1117.4130859375 L 42.74919891357422 1107.772216796875 C 41.02445602416992 1106.728149414063 39.95299911499023 1104.827880859375 39.95299911499023 1102.81298828125 L 39.95299911499023 1093.663940429688 L 39.95299911499023 1083.784057617188 C 39.95299911499023 1081.697021484375 41.0831413269043 1079.762329101563 42.90240097045898 1078.73486328125 L 58.79214096069336 1069.7734375 C 60.16419982910156 1068.998657226563 61.72391510009766 1068.588989257813 63.30199813842773 1068.588989257813 L 92.43099975585938 1068.588989257813 L 121.5589981079102 1068.588989257813 C 123.1370849609375 1068.588989257813 124.6968002319336 1068.998657226563 126.0695266723633 1069.773803710938 L 141.9578552246094 1078.734497070313 C 143.7783203125 1079.76171875 144.9089965820313 1081.696533203125 144.9089965820313 1083.784057617188 L 144.9089965820313 1093.663940429688 L 144.9089965820313 1102.81298828125 C 144.9089965820313 1104.827880859375 143.8375396728516 1106.728149414063 142.1127777099609 1107.772216796875 L 126.1867980957031 1117.413208007813 C 124.7529296875 1118.280639648438 123.10888671875 1118.739013671875 121.431999206543 1118.739013671875 Z"/>
      <path class="cls-5" d="M 121.431999206543 1117.239013671875 C 122.8349990844727 1117.239013671875 124.2099990844727 1116.85595703125 125.4099960327148 1116.130004882813 L 141.3359985351563 1106.489013671875 C 142.6230010986328 1105.7099609375 143.4089965820313 1104.316040039063 143.4089965820313 1102.81298828125 L 143.4089965820313 1093.663940429688 L 143.4089965820313 1083.784057617188 C 143.4089965820313 1082.234008789063 142.572998046875 1080.803955078125 141.2209930419922 1080.041015625 L 125.3320007324219 1071.079956054688 C 124.1809997558594 1070.430053710938 122.8809967041016 1070.088989257813 121.5589981079102 1070.088989257813 L 92.43099975585938 1070.088989257813 L 63.30199813842773 1070.088989257813 C 61.97999954223633 1070.088989257813 60.68000030517578 1070.430053710938 59.52899932861328 1071.079956054688 L 43.63999938964844 1080.041015625 C 42.28900146484375 1080.803955078125 41.45299911499023 1082.234008789063 41.45299911499023 1083.784057617188 L 41.45299911499023 1093.663940429688 L 41.45299911499023 1102.81298828125 C 41.45299911499023 1104.316040039063 42.23899841308594 1105.7099609375 43.5260009765625 1106.489013671875 L 59.45199966430664 1116.130004882813 C 60.6510009765625 1116.85595703125 62.02700042724609 1117.239013671875 63.42900085449219 1117.239013671875 L 92.43099975585938 1117.239013671875 L 121.431999206543 1117.239013671875 M 121.431999206543 1120.239013671875 L 92.43099975585938 1120.239013671875 L 63.42900085449219 1120.239013671875 C 61.4776611328125 1120.239013671875 59.56513977050781 1119.70556640625 57.89820098876953 1118.6962890625 L 41.9724006652832 1109.055419921875 C 40.90063858032227 1108.406616210938 40.00891876220703 1107.487060546875 39.39371871948242 1106.396118164063 C 38.77830123901367 1105.3046875 38.45299911499023 1104.065673828125 38.45299911499023 1102.81298828125 L 38.45299911499023 1093.663940429688 L 38.45299911499023 1083.784057617188 C 38.45299911499023 1081.156982421875 39.87527847290039 1078.7216796875 42.16479873657227 1077.428833007813 L 58.05527877807617 1068.466918945313 C 59.65129852294922 1067.565673828125 61.46604156494141 1067.088989257813 63.30199813842773 1067.088989257813 L 92.43099975585938 1067.088989257813 L 121.5589981079102 1067.088989257813 C 123.3949584960938 1067.088989257813 125.2097015380859 1067.565673828125 126.8070220947266 1068.467651367188 L 142.6947174072266 1077.427978515625 C 144.9860229492188 1078.720947265625 146.4089965820313 1081.156372070313 146.4089965820313 1083.784057617188 L 146.4089965820313 1093.663940429688 L 146.4089965820313 1102.81298828125 C 146.4089965820313 1104.065673828125 146.0836944580078 1105.3046875 145.4682769775391 1106.396118164063 C 144.8530731201172 1107.487060546875 143.9613647460938 1108.406616210938 142.8895416259766 1109.055419921875 L 126.9636001586914 1118.696411132813 C 125.2951431274414 1119.705688476563 123.3826217651367 1120.239013671875 121.431999206543 1120.239013671875 Z"/>
    </g>
    <path id="路径_2859" data-name="路径 2859" class="cls-2" d="M92.431,1113.738H118.7a7.293,7.293,0,0,0,3.6-.945l14.424-8.209a3.618,3.618,0,0,0,1.878-3.13v-16.2a3.63,3.63,0,0,0-1.981-3.188l-14.391-7.63a7.3,7.3,0,0,0-3.417-.844H66.049a7.3,7.3,0,0,0-3.417.844l-14.391,7.63a3.63,3.63,0,0,0-1.981,3.188v16.2a3.619,3.619,0,0,0,1.877,3.13l14.425,8.209a7.293,7.293,0,0,0,3.6.945Z"/>
    <g id="组_1606" data-name="组 1606">
      <path id="路径_2860" data-name="路径 2860" class="cls-3" d="M57.776,1097.737H73.433v2.474H57.776Zm1.171-10.058H72.228v2.441H58.947Z"/>
      <path id="路径_2861" data-name="路径 2861" class="cls-3" d="M84.337,1099.145l-8.13-3.751v-1.318l8.13-3.964v2l-5.827,2.58v.049l5.827,2.4Z"/>
      <path id="路径_2862" data-name="路径 2862" class="cls-3" d="M89.073,1094.23v-.285a5.338,5.338,0,0,0,1.285-.5,1.908,1.908,0,0,0,.619-.708,1.989,1.989,0,0,0,.261-.964,1.571,1.571,0,0,0-.493-1.16,1.675,1.675,0,0,0-1.225-.484,2.3,2.3,0,0,0-1.936,1.2l-.3-.106a4.885,4.885,0,0,1,1.5-2.042,3.324,3.324,0,0,1,2.038-.684,2.658,2.658,0,0,1,1.893.7,2.18,2.18,0,0,1,.744,1.636,2.219,2.219,0,0,1-.346,1.176,3.008,3.008,0,0,1-1.086,1,3.849,3.849,0,0,1,1.453,1.143,2.8,2.8,0,0,1,.5,1.705,3.93,3.93,0,0,1-1.249,2.933A4.611,4.611,0,0,1,89.382,1100a3.538,3.538,0,0,1-2.042-.463.983.983,0,0,1-.464-.838.908.908,0,0,1,.887-.9,1.142,1.142,0,0,1,.5.113,10.607,10.607,0,0,1,.924.712,2.419,2.419,0,0,0,1.485.647,1.346,1.346,0,0,0,1.033-.476,1.728,1.728,0,0,0,.432-1.208,3.147,3.147,0,0,0-.781-2.055A4.1,4.1,0,0,0,89.073,1094.23Z"/>
      <path id="路径_2863" data-name="路径 2863" class="cls-3" d="M105.356,1095.3l-8.13,3.752v-1.994l5.844-2.392v-.041l-5.844-2.588v-2l8.13,3.947Z"/>
      <path id="路径_2864" data-name="路径 2864" class="cls-3" d="M108.147,1100.813l-.244-2.148q.929-.1,1.9-.236V1094.4h-1.6v-1.986h1.6v-3.336h-1.676v-2.018h5.257v2.018h-1.563v3.336h1.432v1.986h-1.432v3.735q.839-.131,1.709-.284-.114,1.172-.146,2.1Zm7.763-14.566h1.954v8.008a10.4,10.4,0,0,1-2.979,7.844q-.83-.765-1.725-1.449a8.383,8.383,0,0,0,2.75-6.754Zm-2.49,9.374q.2-2.994.163-6.444h1.742q-.018,3.255-.147,6.607A17.131,17.131,0,0,0,113.42,1095.621Zm4.167,3.6h2.246v-4.41H118.3v-1.986h1.53v-3.808H118.14V1087h5.615v2.018h-1.774v3.808h1.595v1.986h-1.595v4.41h2.083v2.018h-6.477Z"/>
    </g>
  </g>
</svg>
