<svg xmlns="http://www.w3.org/2000/svg" width="101.956" height="47.15" viewBox="0 0 101.956 47.15">
  <defs>
    <style>
      .cls-1 {
        fill: #ccd9ff;
      }

      .cls-2 {
        fill: #8ca6fd;
      }

      .cls-3 {
        fill: #fff;
      }
    </style>
  </defs>
  <g id="组_1647" data-name="组 1647" transform="translate(-413.635 -904.089)">
    <path id="路径_2998" data-name="路径 2998" class="cls-1" d="M464.613,951.239h29a7.682,7.682,0,0,0,3.978-1.109l15.926-9.641a4.3,4.3,0,0,0,2.073-3.676V917.784a4.3,4.3,0,0,0-2.188-3.743l-15.889-8.961a7.673,7.673,0,0,0-3.773-.991H435.484a7.673,7.673,0,0,0-3.773.991l-15.889,8.961a4.3,4.3,0,0,0-2.187,3.743v19.029a4.3,4.3,0,0,0,2.073,3.676l15.926,9.641a7.679,7.679,0,0,0,3.977,1.109Z"/>
    <path id="路径_2999" data-name="路径 2999" class="cls-2" d="M464.613,947.738H490.88a7.293,7.293,0,0,0,3.6-.945l14.424-8.209a3.618,3.618,0,0,0,1.878-3.13v-16.2a3.63,3.63,0,0,0-1.981-3.188l-14.391-7.63a7.3,7.3,0,0,0-3.417-.844H438.231a7.3,7.3,0,0,0-3.417.844l-14.391,7.63a3.63,3.63,0,0,0-1.981,3.188v16.2a3.619,3.619,0,0,0,1.877,3.13l14.425,8.209a7.293,7.293,0,0,0,3.6.945Z"/>
    <g id="组_1646" data-name="组 1646">
      <path id="路径_3000" data-name="路径 3000" class="cls-3" d="M429.925,926.692h15.722V929.1H429.925Z"/>
      <path id="路径_3001" data-name="路径 3001" class="cls-3" d="M456.519,933.145l-8.13-3.751v-1.318l8.13-3.964v2l-5.827,2.58v.049l5.827,2.4Z"/>
      <path id="路径_3002" data-name="路径 3002" class="cls-3" d="M465.69,933.764H459.2v-.179a35.909,35.909,0,0,0,3.625-4.785,5.186,5.186,0,0,0,.639-2.4,2,2,0,0,0-.529-1.42,1.7,1.7,0,0,0-1.294-.565,2.137,2.137,0,0,0-1.944,1.253l-.3-.106a4.517,4.517,0,0,1,1.335-2.311,3.129,3.129,0,0,1,2.067-.749,3.057,3.057,0,0,1,1.529.391,2.818,2.818,0,0,1,1.083,1.07,2.583,2.583,0,0,1,.391,1.273,4.608,4.608,0,0,1-.6,2.2,20.912,20.912,0,0,1-3.589,4.2h2.384a5.405,5.405,0,0,0,1.143-.074.945.945,0,0,0,.436-.248,3.185,3.185,0,0,0,.447-.736h.293Z"/>
      <path id="路径_3003" data-name="路径 3003" class="cls-3" d="M477.538,929.3l-8.13,3.752v-1.994l5.843-2.392v-.041l-5.843-2.588v-2l8.13,3.947Z"/>
      <path id="路径_3004" data-name="路径 3004" class="cls-3" d="M480.329,934.813l-.244-2.148q.929-.1,1.9-.236V928.4h-1.6v-1.986h1.6v-3.336h-1.676v-2.018h5.257v2.018h-1.563v3.336h1.432V928.4h-1.432v3.735q.839-.13,1.709-.284-.114,1.172-.146,2.1Zm7.763-14.566h1.954v8.008a10.406,10.406,0,0,1-2.979,7.844q-.829-.765-1.725-1.449a8.383,8.383,0,0,0,2.75-6.754Zm-2.49,9.374q.2-2.994.163-6.444h1.742q-.018,3.255-.147,6.607A17.129,17.129,0,0,0,485.6,929.621Zm4.166,3.6h2.247v-4.41h-1.53v-1.986h1.53v-3.808h-1.693V921h5.615v2.018h-1.774v3.808h1.6v1.986h-1.6v4.41h2.083v2.018h-6.478Z"/>
    </g>
  </g>
</svg>
