<svg xmlns="http://www.w3.org/2000/svg" width="107.956" height="53.151" viewBox="0 0 107.956 53.151">
  <defs>
    <style>
      .cls-1, .cls-3, .cls-5 {
        fill: #fff;
      }

      .cls-1 {
        stroke-linejoin: round;
      }

      .cls-2 {
        fill: #8ca6fd;
      }

      .cls-4, .cls-5 {
        stroke: none;
      }
    </style>
  </defs>
  <g id="组_1876" data-name="组 1876" transform="translate(379.498 371.953)">
    <g id="路径_3997" data-name="路径 3997" class="cls-1">
      <path class="cls-4" d="M -296.5180053710938 -320.302001953125 L -325.5199890136719 -320.302001953125 L -354.5220031738281 -320.302001953125 C -356.1984252929688 -320.302001953125 -357.84228515625 -320.7608337402344 -359.2759094238281 -321.6288757324219 L -375.2017822265625 -331.2698059082031 C -376.926513671875 -332.3137512207031 -377.9979858398438 -334.2140197753906 -377.9979858398438 -336.22900390625 L -377.9979858398438 -345.3779907226563 L -377.9979858398438 -355.2579956054688 C -377.9979858398438 -357.3453674316406 -376.8673095703125 -359.2801513671875 -375.0472106933594 -360.3073425292969 L -359.1588745117188 -369.2685241699219 C -357.7856140136719 -370.0433654785156 -356.2256774902344 -370.4530029296875 -354.6480102539063 -370.4530029296875 L -325.5199890136719 -370.4530029296875 L -296.3909912109375 -370.4530029296875 C -294.8139343261719 -370.4530029296875 -293.2543640136719 -370.0433654785156 -291.8808898925781 -369.2684020996094 L -275.9931030273438 -360.3075256347656 C -274.1726684570313 -359.2801513671875 -273.0419921875 -357.3453674316406 -273.0419921875 -355.2579956054688 L -273.0419921875 -345.3779907226563 L -273.0419921875 -336.22900390625 C -273.0419921875 -334.2140502929688 -274.1134643554688 -332.3137817382813 -275.8382568359375 -331.269775390625 L -291.7641906738281 -321.6287841796875 C -293.1976928710938 -320.7608337402344 -294.8415832519531 -320.302001953125 -296.5180053710938 -320.302001953125 Z"/>
      <path class="cls-5" d="M -296.5180053710938 -321.802001953125 C -295.1159973144531 -321.802001953125 -293.739990234375 -322.1860046386719 -292.5409851074219 -322.9119873046875 L -276.614990234375 -332.5530090332031 C -275.3280029296875 -333.3320007324219 -274.5419921875 -334.7260131835938 -274.5419921875 -336.22900390625 L -274.5419921875 -345.3779907226563 L -274.5419921875 -355.2579956054688 C -274.5419921875 -356.8080139160156 -275.3779907226563 -358.2380065917969 -276.7300109863281 -359.0010070800781 L -292.6180114746094 -367.9620056152344 C -293.7699890136719 -368.6119995117188 -295.0690002441406 -368.9530029296875 -296.3909912109375 -368.9530029296875 L -325.5199890136719 -368.9530029296875 L -354.6480102539063 -368.9530029296875 C -355.9710083007813 -368.9530029296875 -357.2699890136719 -368.6119995117188 -358.4219970703125 -367.9620056152344 L -374.3099975585938 -359.0010070800781 C -375.6619873046875 -358.2380065917969 -376.4979858398438 -356.8080139160156 -376.4979858398438 -355.2579956054688 L -376.4979858398438 -345.3779907226563 L -376.4979858398438 -336.22900390625 C -376.4979858398438 -334.7260131835938 -375.7120056152344 -333.3320007324219 -374.4249877929688 -332.5530090332031 L -358.4989929199219 -322.9119873046875 C -357.2999877929688 -322.1860046386719 -355.9240112304688 -321.802001953125 -354.5220031738281 -321.802001953125 L -325.5199890136719 -321.802001953125 L -296.5180053710938 -321.802001953125 M -296.5180053710938 -318.802001953125 L -325.5199890136719 -318.802001953125 L -354.5220031738281 -318.802001953125 C -356.4723205566406 -318.802001953125 -358.3848266601563 -319.3358154296875 -360.0527954101563 -320.345703125 L -375.9785766601563 -329.9866333007813 C -377.05029296875 -330.6352844238281 -377.9420471191406 -331.5549011230469 -378.5572814941406 -332.6459350585938 C -379.1726989746094 -333.7373046875 -379.4979858398438 -334.9762878417969 -379.4979858398438 -336.22900390625 L -379.4979858398438 -345.3779907226563 L -379.4979858398438 -355.2579956054688 C -379.4979858398438 -357.8856201171875 -378.0750427246094 -360.3209838867188 -375.784423828125 -361.6136779785156 L -359.8957824707031 -370.5750427246094 C -358.2982177734375 -371.4764404296875 -356.4834289550781 -371.9530029296875 -354.6480102539063 -371.9530029296875 L -325.5199890136719 -371.9530029296875 L -296.3909912109375 -371.9530029296875 C -294.5562133789063 -371.9530029296875 -292.7417602539063 -371.4764404296875 -291.143798828125 -370.5747985839844 L -275.2562255859375 -361.6140441894531 C -272.9649353027344 -360.3209838867188 -271.5419921875 -357.8856201171875 -271.5419921875 -355.2579956054688 L -271.5419921875 -345.3779907226563 L -271.5419921875 -336.22900390625 C -271.5419921875 -334.9762878417969 -271.8672790527344 -333.7373046875 -272.4827270507813 -332.6459350585938 C -273.0979614257813 -331.5549011230469 -273.9896850585938 -330.6353149414063 -275.0615539550781 -329.9865417480469 L -290.9873962402344 -320.3455810546875 C -292.6551513671875 -319.3358154296875 -294.5676574707031 -318.802001953125 -296.5180053710938 -318.802001953125 Z"/>
    </g>
    <path id="路径_3998" data-name="路径 3998" class="cls-2" d="M-325.52-325.3h26.267a7.294,7.294,0,0,0,3.6-.945l14.425-8.209a3.619,3.619,0,0,0,1.877-3.13v-16.2a3.628,3.628,0,0,0-1.981-3.187l-14.391-7.631a7.3,7.3,0,0,0-3.417-.844H-351.9a7.3,7.3,0,0,0-3.417.844l-14.391,7.631a3.628,3.628,0,0,0-1.981,3.187v16.2a3.619,3.619,0,0,0,1.877,3.13l14.425,8.209a7.294,7.294,0,0,0,3.6.945Z"/>
    <path id="路径_4039" data-name="路径 4039" class="cls-3" d="M1,2.053V-12.76H15.489v14.8H13.155V1.022H3.333v1.03ZM13.139-5.37a16.916,16.916,0,0,0-.419,2.125h-1.9q-1.9,0-1.9-1.98v-5.362H7.326v3.252A5.364,5.364,0,0,1,4.991-2.568Q4.38-3.083,3.333-3.84v2.689h9.822v-9.435H11.045v4.46a.669.669,0,0,0,.757.757ZM5.2-7.511v-3.075H3.333v6.61A3.72,3.72,0,0,0,5.2-7.511Zm21.592,6.9L18.75-4.323v-1.3l8.043-3.921v1.98L21.028-5.016v.048l5.764,2.375Zm7.616-10.53v8.928A5.533,5.533,0,0,0,34.5-.93a.832.832,0,0,0,.37.455,1.752,1.752,0,0,0,.9.177h.25V0H30.27V-.3h.29a2.244,2.244,0,0,0,1-.161.826.826,0,0,0,.4-.443,4.9,4.9,0,0,0,.1-1.312v-5.66a3.571,3.571,0,0,0-.072-.946.684.684,0,0,0-.27-.322.8.8,0,0,0-.455-.133,2.583,2.583,0,0,0-1,.258l-.145-.29,4.017-1.836ZM47.587-4.42,39.545-.708V-2.681l5.78-2.367v-.04l-5.78-2.56v-1.98l8.043,3.9Zm10.442-8.952h1.932V-5.45a10.294,10.294,0,0,1-2.947,7.761q-.821-.757-1.707-1.433A8.293,8.293,0,0,0,58.029-5.8ZM59.687-.539h2.222V-4.9H60.4V-6.867h1.514v-3.768H60.235v-2H65.79v2H64.035v3.768h1.578V-4.9H64.035V-.539H66.1v2H59.687ZM50.349,1.039l-.242-2.125q.918-.1,1.884-.233V-5.305H50.413V-7.27h1.578v-3.3H50.333v-2h5.2v2H53.987v3.3H55.4v1.964H53.987v3.7q.829-.129,1.691-.282Q55.565-.733,55.533.185ZM55.565-4.1q.193-2.963.161-6.376h1.723q-.016,3.22-.145,6.537A16.367,16.367,0,0,0,55.565-4.1Z" transform="translate(-360.097 -339.506)"/>
  </g>
</svg>
