<svg xmlns="http://www.w3.org/2000/svg" width="107.956" height="53.15" viewBox="0 0 107.956 53.15">
  <defs>
    <style>
      .cls-1, .cls-3, .cls-5 {
        fill: #fff;
      }

      .cls-1 {
        stroke-linejoin: round;
      }

      .cls-2 {
        fill: #8ca6fd;
      }

      .cls-4, .cls-5 {
        stroke: none;
      }
    </style>
  </defs>
  <g id="组_1877" data-name="组 1877" transform="translate(379.498 310.353)">
    <g id="路径_3999" data-name="路径 3999" class="cls-1">
      <path class="cls-4" d="M -296.5180053710938 -258.7030029296875 L -325.5199890136719 -258.7030029296875 L -354.5220031738281 -258.7030029296875 C -356.1995239257813 -258.7030029296875 -357.8434143066406 -259.1614990234375 -359.2759399414063 -260.0289001464844 L -375.2017822265625 -269.6697998046875 C -376.926513671875 -270.7137451171875 -377.9979858398438 -272.614013671875 -377.9979858398438 -274.6289978027344 L -377.9979858398438 -283.7780151367188 L -377.9979858398438 -293.6579895019531 C -377.9979858398438 -295.745361328125 -376.8673095703125 -297.6801452636719 -375.0472106933594 -298.7073364257813 L -359.1588745117188 -307.6685180664063 C -357.7855834960938 -308.443359375 -356.2256469726563 -308.8529968261719 -354.6480102539063 -308.8529968261719 L -325.5199890136719 -308.8529968261719 L -296.3909912109375 -308.8529968261719 C -294.81396484375 -308.8529968261719 -293.25439453125 -308.443359375 -291.8808898925781 -307.6683959960938 L -275.9931030273438 -298.70751953125 C -274.1726684570313 -297.6801452636719 -273.0419921875 -295.745361328125 -273.0419921875 -293.6579895019531 L -273.0419921875 -283.7780151367188 L -273.0419921875 -274.6289978027344 C -273.0419921875 -272.6140441894531 -274.1134643554688 -270.7137756347656 -275.8382568359375 -269.6697692871094 L -291.7641906738281 -260.02880859375 C -293.1965637207031 -259.1614990234375 -294.8404541015625 -258.7030029296875 -296.5180053710938 -258.7030029296875 Z"/>
      <path class="cls-5" d="M -296.5180053710938 -260.2030029296875 C -295.1159973144531 -260.2030029296875 -293.739990234375 -260.5859985351563 -292.5409851074219 -261.31201171875 L -276.614990234375 -270.9530029296875 C -275.3280029296875 -271.7319946289063 -274.5419921875 -273.1260070800781 -274.5419921875 -274.6289978027344 L -274.5419921875 -283.7780151367188 L -274.5419921875 -293.6579895019531 C -274.5419921875 -295.2080078125 -275.3779907226563 -296.6380004882813 -276.7300109863281 -297.4010009765625 L -292.6180114746094 -306.3619995117188 C -293.7699890136719 -307.0119934082031 -295.0690002441406 -307.3529968261719 -296.3909912109375 -307.3529968261719 L -325.5199890136719 -307.3529968261719 L -354.6480102539063 -307.3529968261719 C -355.9710083007813 -307.3529968261719 -357.2699890136719 -307.0119934082031 -358.4219970703125 -306.3619995117188 L -374.3099975585938 -297.4010009765625 C -375.6619873046875 -296.6380004882813 -376.4979858398438 -295.2080078125 -376.4979858398438 -293.6579895019531 L -376.4979858398438 -283.7780151367188 L -376.4979858398438 -274.6289978027344 C -376.4979858398438 -273.1260070800781 -375.7120056152344 -271.7319946289063 -374.4249877929688 -270.9530029296875 L -358.4989929199219 -261.31201171875 C -357.2999877929688 -260.5859985351563 -355.9240112304688 -260.2030029296875 -354.5220031738281 -260.2030029296875 L -325.5199890136719 -260.2030029296875 L -296.5180053710938 -260.2030029296875 M -296.5180053710938 -257.2030029296875 L -325.5199890136719 -257.2030029296875 L -354.5220031738281 -257.2030029296875 C -356.4734802246094 -257.2030029296875 -358.3860168457031 -257.7364807128906 -360.0528869628906 -258.7457885742188 L -375.9785766601563 -268.3866271972656 C -377.05029296875 -269.0352783203125 -377.9420471191406 -269.9548950195313 -378.5572814941406 -271.0459289550781 C -379.1726989746094 -272.1372985839844 -379.4979858398438 -273.3762817382813 -379.4979858398438 -274.6289978027344 L -379.4979858398438 -283.7780151367188 L -379.4979858398438 -293.6579895019531 C -379.4979858398438 -296.2856140136719 -378.0750427246094 -298.7209777832031 -375.784423828125 -300.013671875 L -359.8957824707031 -308.9750366210938 C -358.2982482910156 -309.8764038085938 -356.4834289550781 -310.3529968261719 -354.6480102539063 -310.3529968261719 L -325.5199890136719 -310.3529968261719 L -296.3909912109375 -310.3529968261719 C -294.5561828613281 -310.3529968261719 -292.7417297363281 -309.8764038085938 -291.1437683105469 -308.9747924804688 L -275.2562255859375 -300.0140380859375 C -272.9649353027344 -298.7209777832031 -271.5419921875 -296.2856140136719 -271.5419921875 -293.6579895019531 L -271.5419921875 -283.7780151367188 L -271.5419921875 -274.6289978027344 C -271.5419921875 -273.3762817382813 -271.8672790527344 -272.1372985839844 -272.4827270507813 -271.0459289550781 C -273.0979309082031 -269.9548950195313 -273.9896850585938 -269.0353088378906 -275.0615234375 -268.3865356445313 L -290.9873962402344 -258.7456359863281 C -292.6539611816406 -257.7364807128906 -294.5664978027344 -257.2030029296875 -296.5180053710938 -257.2030029296875 Z"/>
    </g>
    <path id="路径_4000" data-name="路径 4000" class="cls-2" d="M-325.52-263.7h26.267a7.293,7.293,0,0,0,3.6-.945l14.425-8.209a3.619,3.619,0,0,0,1.877-3.13v-16.2a3.63,3.63,0,0,0-1.981-3.188l-14.391-7.63a7.3,7.3,0,0,0-3.417-.844H-351.9a7.3,7.3,0,0,0-3.417.844l-14.391,7.63a3.63,3.63,0,0,0-1.981,3.188v16.2a3.619,3.619,0,0,0,1.877,3.13l14.425,8.209a7.294,7.294,0,0,0,3.6.945Z"/>
    <path id="路径_4038" data-name="路径 4038" class="cls-3" d="M1,2.053V-12.76H15.489v14.8H13.155V1.022H3.333v1.03ZM13.139-5.37a16.916,16.916,0,0,0-.419,2.125h-1.9q-1.9,0-1.9-1.98v-5.362H7.326v3.252A5.364,5.364,0,0,1,4.991-2.568Q4.38-3.083,3.333-3.84v2.689h9.822v-9.435H11.045v4.46a.669.669,0,0,0,.757.757ZM5.2-7.511v-3.075H3.333v6.61A3.72,3.72,0,0,0,5.2-7.511Zm21.592,6.9L18.75-4.323v-1.3l8.043-3.921v1.98L21.028-5.016v.048l5.764,2.375ZM35.866,0H29.441V-.177a35.5,35.5,0,0,0,3.587-4.734,5.13,5.13,0,0,0,.632-2.375,1.976,1.976,0,0,0-.523-1.4,1.685,1.685,0,0,0-1.28-.56,2.115,2.115,0,0,0-1.924,1.24l-.3-.1a4.461,4.461,0,0,1,1.32-2.286A3.094,3.094,0,0,1,33-11.142a3.024,3.024,0,0,1,1.514.386A2.8,2.8,0,0,1,35.584-9.7a2.549,2.549,0,0,1,.386,1.26,4.55,4.55,0,0,1-.6,2.174,20.632,20.632,0,0,1-3.55,4.154h2.359a5.387,5.387,0,0,0,1.131-.072.938.938,0,0,0,.431-.246,3.178,3.178,0,0,0,.443-.729h.29ZM47.587-4.42,39.545-.708V-2.681l5.78-2.367v-.04l-5.78-2.56v-1.98l8.043,3.9Zm10.442-8.952h1.932V-5.45a10.294,10.294,0,0,1-2.947,7.761q-.821-.757-1.707-1.433A8.293,8.293,0,0,0,58.029-5.8ZM59.687-.539h2.222V-4.9H60.4V-6.867h1.514v-3.768H60.235v-2H65.79v2H64.035v3.768h1.578V-4.9H64.035V-.539H66.1v2H59.687ZM50.349,1.039l-.242-2.125q.918-.1,1.884-.233V-5.305H50.413V-7.27h1.578v-3.3H50.333v-2h5.2v2H53.987v3.3H55.4v1.964H53.987v3.7q.829-.129,1.691-.282Q55.565-.733,55.533.185ZM55.565-4.1q.193-2.963.161-6.376h1.723q-.016,3.22-.145,6.537A16.367,16.367,0,0,0,55.565-4.1Z" transform="translate(-360.097 -277.906)"/>
  </g>
</svg>
