<svg xmlns="http://www.w3.org/2000/svg" width="101.956" height="47.15" viewBox="0 0 101.956 47.15">
  <defs>
    <style>
      .cls-1 {
        fill: #ccd9ff;
      }

      .cls-2 {
        fill: #8ca6fd;
      }

      .cls-3 {
        fill: #fff;
      }
    </style>
  </defs>
  <g id="组_1855" data-name="组 1855" transform="translate(102.382 307.353)">
    <path id="路径_3930" data-name="路径 3930" class="cls-1" d="M-51.4-260.2h29a7.679,7.679,0,0,0,3.977-1.109L-2.5-270.953a4.3,4.3,0,0,0,2.073-3.676v-19.029A4.3,4.3,0,0,0-2.613-297.4L-18.5-306.362a7.673,7.673,0,0,0-3.773-.991H-80.532a7.673,7.673,0,0,0-3.773.991l-15.889,8.961a4.3,4.3,0,0,0-2.188,3.743v19.029a4.3,4.3,0,0,0,2.073,3.676l15.927,9.641A7.676,7.676,0,0,0-80.4-260.2Z"/>
    <path id="路径_3931" data-name="路径 3931" class="cls-2" d="M-51.4-263.7h26.267a7.3,7.3,0,0,0,3.6-.945l14.424-8.209a3.617,3.617,0,0,0,1.877-3.13v-16.2a3.63,3.63,0,0,0-1.981-3.188l-14.39-7.63a7.305,7.305,0,0,0-3.418-.844H-77.786a7.3,7.3,0,0,0-3.417.844l-14.39,7.63a3.629,3.629,0,0,0-1.982,3.188v16.2a3.618,3.618,0,0,0,1.878,3.13l14.424,8.209a7.294,7.294,0,0,0,3.6.945Z"/>
    <path id="路径_4035" data-name="路径 4035" class="cls-3" d="M1,2.053V-12.76H15.489v14.8H13.155V1.022H3.333v1.03ZM13.139-5.37a16.916,16.916,0,0,0-.419,2.125h-1.9q-1.9,0-1.9-1.98v-5.362H7.326v3.252A5.364,5.364,0,0,1,4.991-2.568Q4.38-3.083,3.333-3.84v2.689h9.822v-9.435H11.045v4.46a.669.669,0,0,0,.757.757ZM5.2-7.511v-3.075H3.333v6.61A3.72,3.72,0,0,0,5.2-7.511Zm21.592,6.9L18.75-4.323v-1.3l8.043-3.921v1.98L21.028-5.016v.048l5.764,2.375ZM35.866,0H29.441V-.177a35.5,35.5,0,0,0,3.587-4.734,5.13,5.13,0,0,0,.632-2.375,1.976,1.976,0,0,0-.523-1.4,1.685,1.685,0,0,0-1.28-.56,2.115,2.115,0,0,0-1.924,1.24l-.3-.1a4.461,4.461,0,0,1,1.32-2.286A3.094,3.094,0,0,1,33-11.142a3.024,3.024,0,0,1,1.514.386A2.8,2.8,0,0,1,35.584-9.7a2.549,2.549,0,0,1,.386,1.26,4.55,4.55,0,0,1-.6,2.174,20.632,20.632,0,0,1-3.55,4.154h2.359a5.387,5.387,0,0,0,1.131-.072.938.938,0,0,0,.431-.246,3.178,3.178,0,0,0,.443-.729h.29ZM47.587-4.42,39.545-.708V-2.681l5.78-2.367v-.04l-5.78-2.56v-1.98l8.043,3.9Zm10.442-8.952h1.932V-5.45a10.294,10.294,0,0,1-2.947,7.761q-.821-.757-1.707-1.433A8.293,8.293,0,0,0,58.029-5.8ZM59.687-.539h2.222V-4.9H60.4V-6.867h1.514v-3.768H60.235v-2H65.79v2H64.035v3.768h1.578V-4.9H64.035V-.539H66.1v2H59.687ZM50.349,1.039l-.242-2.125q.918-.1,1.884-.233V-5.305H50.413V-7.27h1.578v-3.3H50.333v-2h5.2v2H53.987v3.3H55.4v1.964H53.987v3.7q.829-.129,1.691-.282Q55.565-.733,55.533.185ZM55.565-4.1q.193-2.963.161-6.376h1.723q-.016,3.22-.145,6.537A16.367,16.367,0,0,0,55.565-4.1Z" transform="translate(-85.981 -277.906)"/>
  </g>
</svg>
