<svg xmlns="http://www.w3.org/2000/svg" width="107.956" height="53.15" viewBox="0 0 107.956 53.15">
  <defs>
    <style>
      .cls-1, .cls-3, .cls-5 {
        fill: #fff;
      }

      .cls-1 {
        stroke-linejoin: round;
      }

      .cls-2 {
        fill: #8ca6fd;
      }

      .cls-4, .cls-5 {
        stroke: none;
      }
    </style>
  </defs>
  <g id="组_1878" data-name="组 1878" transform="translate(379.498 247.788)">
    <g id="路径_4001" data-name="路径 4001" class="cls-1">
      <path class="cls-4" d="M -296.5180053710938 -196.1380004882813 L -325.5199890136719 -196.1380004882813 L -354.5220031738281 -196.1380004882813 C -356.1984252929688 -196.1380004882813 -357.8423156738281 -196.5968322753906 -359.2759094238281 -197.4648895263672 L -375.2017822265625 -207.1058044433594 C -376.926513671875 -208.1497344970703 -377.9979858398438 -210.0500030517578 -377.9979858398438 -212.0650024414063 L -377.9979858398438 -221.2129974365234 L -377.9979858398438 -231.0930023193359 C -377.9979858398438 -233.1817321777344 -376.8670349121094 -235.1166839599609 -375.0464782714844 -236.1427459716797 L -359.158935546875 -245.1044769287109 C -357.7843933105469 -245.8788757324219 -356.2247619628906 -246.2879943847656 -354.6480102539063 -246.2879943847656 L -325.5199890136719 -246.2879943847656 L -296.3909912109375 -246.2879943847656 C -294.8148498535156 -246.2879943847656 -293.2555847167969 -245.8788757324219 -291.8817443847656 -245.1048736572266 L -275.9930419921875 -236.1424865722656 C -274.1729431152344 -235.1166839599609 -273.0419921875 -233.1817474365234 -273.0419921875 -231.0930023193359 L -273.0419921875 -221.2129974365234 L -273.0419921875 -212.0650024414063 C -273.0419921875 -210.0500335693359 -274.1134643554688 -208.1497497558594 -275.8382873535156 -207.1057739257813 L -291.7641906738281 -197.4647979736328 C -293.1976623535156 -196.5968322753906 -294.841552734375 -196.1380004882813 -296.5180053710938 -196.1380004882813 Z"/>
      <path class="cls-5" d="M -296.5180053710938 -197.6380004882813 C -295.1159973144531 -197.6380004882813 -293.739990234375 -198.0220031738281 -292.5409851074219 -198.7480010986328 L -276.614990234375 -208.3890075683594 C -275.3280029296875 -209.1679992675781 -274.5419921875 -210.5619964599609 -274.5419921875 -212.0650024414063 L -274.5419921875 -221.2129974365234 L -274.5419921875 -231.0930023193359 C -274.5419921875 -232.6439971923828 -275.3779907226563 -234.0739898681641 -276.7300109863281 -234.8359985351563 L -292.6180114746094 -243.7980041503906 C -293.7699890136719 -244.4470062255859 -295.0690002441406 -244.7879943847656 -296.3909912109375 -244.7879943847656 L -325.5199890136719 -244.7879943847656 L -354.6480102539063 -244.7879943847656 C -355.9710083007813 -244.7879943847656 -357.2699890136719 -244.4470062255859 -358.4219970703125 -243.7980041503906 L -374.3099975585938 -234.8359985351563 C -375.6619873046875 -234.0739898681641 -376.4979858398438 -232.6439971923828 -376.4979858398438 -231.0930023193359 L -376.4979858398438 -221.2129974365234 L -376.4979858398438 -212.0650024414063 C -376.4979858398438 -210.5619964599609 -375.7120056152344 -209.1679992675781 -374.4249877929688 -208.3890075683594 L -358.4989929199219 -198.7480010986328 C -357.2999877929688 -198.0220031738281 -355.9240112304688 -197.6380004882813 -354.5220031738281 -197.6380004882813 L -325.5199890136719 -197.6380004882813 L -296.5180053710938 -197.6380004882813 M -296.5180053710938 -194.6380004882813 L -325.5199890136719 -194.6380004882813 L -354.5220031738281 -194.6380004882813 C -356.4723815917969 -194.6380004882813 -358.3849182128906 -195.1718292236328 -360.0528564453125 -196.1817626953125 L -375.9785766601563 -205.8226318359375 C -377.05029296875 -206.4712829589844 -377.9420471191406 -207.3908843994141 -378.5572814941406 -208.48193359375 C -379.1726989746094 -209.5732879638672 -379.4979858398438 -210.8122863769531 -379.4979858398438 -212.0650024414063 L -379.4979858398438 -221.2129974365234 L -379.4979858398438 -231.0930023193359 C -379.4979858398438 -233.7223052978516 -378.0744934082031 -236.1579742431641 -375.782958984375 -237.4494934082031 L -359.8959045410156 -246.4109649658203 C -358.29638671875 -247.3120880126953 -356.482177734375 -247.7879943847656 -354.6480102539063 -247.7879943847656 L -325.5199890136719 -247.7879943847656 L -296.3909912109375 -247.7879943847656 C -294.5574645996094 -247.7879943847656 -292.7435607910156 -247.3120880126953 -291.1454467773438 -246.4117431640625 L -275.256103515625 -237.4489593505859 C -272.9655151367188 -236.1579895019531 -271.5419921875 -233.7223205566406 -271.5419921875 -231.0930023193359 L -271.5419921875 -221.2129974365234 L -271.5419921875 -212.0650024414063 C -271.5419921875 -210.8122863769531 -271.8672790527344 -209.5732727050781 -272.4827270507813 -208.4819183349609 C -273.0979614257813 -207.3908996582031 -273.9896850585938 -206.4712982177734 -275.0615539550781 -205.8225402832031 L -290.9873962402344 -196.1816101074219 C -292.6550598144531 -195.1718292236328 -294.567626953125 -194.6380004882813 -296.5180053710938 -194.6380004882813 Z"/>
    </g>
    <path id="路径_4002" data-name="路径 4002" class="cls-2" d="M-325.52-201.139h26.267a7.293,7.293,0,0,0,3.6-.945l14.425-8.209a3.62,3.62,0,0,0,1.877-3.13v-16.2a3.628,3.628,0,0,0-1.981-3.187l-14.391-7.631a7.3,7.3,0,0,0-3.417-.843H-351.9a7.3,7.3,0,0,0-3.417.843l-14.391,7.631a3.628,3.628,0,0,0-1.981,3.187v16.2a3.62,3.62,0,0,0,1.877,3.13l14.425,8.209a7.293,7.293,0,0,0,3.6.945Z"/>
    <path id="路径_4037" data-name="路径 4037" class="cls-3" d="M1,2.053V-12.76H15.489v14.8H13.155V1.022H3.333v1.03ZM13.139-5.37a16.916,16.916,0,0,0-.419,2.125h-1.9q-1.9,0-1.9-1.98v-5.362H7.326v3.252A5.364,5.364,0,0,1,4.991-2.568Q4.38-3.083,3.333-3.84v2.689h9.822v-9.435H11.045v4.46a.669.669,0,0,0,.757.757ZM5.2-7.511v-3.075H3.333v6.61A3.72,3.72,0,0,0,5.2-7.511Zm21.592,6.9L18.75-4.323v-1.3l8.043-3.921v1.98L21.028-5.016v.048l5.764,2.375Zm4.685-4.863v-.282a5.27,5.27,0,0,0,1.272-.5,1.888,1.888,0,0,0,.612-.7,1.969,1.969,0,0,0,.258-.954,1.552,1.552,0,0,0-.487-1.147,1.659,1.659,0,0,0-1.212-.479A2.276,2.276,0,0,0,30-8.34l-.3-.1a4.836,4.836,0,0,1,1.485-2.021,3.29,3.29,0,0,1,2.017-.676,2.624,2.624,0,0,1,1.872.692,2.155,2.155,0,0,1,.737,1.618,2.2,2.2,0,0,1-.342,1.163,2.972,2.972,0,0,1-1.075.986,3.809,3.809,0,0,1,1.437,1.131,2.768,2.768,0,0,1,.5,1.687A3.887,3.887,0,0,1,35.1-.962a4.562,4.562,0,0,1-3.313,1.2,3.5,3.5,0,0,1-2.021-.459.975.975,0,0,1-.459-.829.855.855,0,0,1,.266-.632.847.847,0,0,1,.612-.262,1.133,1.133,0,0,1,.5.113,10.334,10.334,0,0,1,.914.7,2.392,2.392,0,0,0,1.469.64,1.333,1.333,0,0,0,1.022-.471,1.713,1.713,0,0,0,.427-1.2A3.113,3.113,0,0,0,33.74-4.19,4.051,4.051,0,0,0,31.478-5.474ZM47.587-4.42,39.545-.708V-2.681l5.78-2.367v-.04l-5.78-2.56v-1.98l8.043,3.9Zm10.442-8.952h1.932V-5.45a10.294,10.294,0,0,1-2.947,7.761q-.821-.757-1.707-1.433A8.293,8.293,0,0,0,58.029-5.8ZM59.687-.539h2.222V-4.9H60.4V-6.867h1.514v-3.768H60.235v-2H65.79v2H64.035v3.768h1.578V-4.9H64.035V-.539H66.1v2H59.687ZM50.349,1.039l-.242-2.125q.918-.1,1.884-.233V-5.305H50.413V-7.27h1.578v-3.3H50.333v-2h5.2v2H53.987v3.3H55.4v1.964H53.987v3.7q.829-.129,1.691-.282Q55.565-.733,55.533.185ZM55.565-4.1q.193-2.963.161-6.376h1.723q-.016,3.22-.145,6.537A16.367,16.367,0,0,0,55.565-4.1Z" transform="translate(-360.097 -215.341)"/>
  </g>
</svg>
