<svg xmlns="http://www.w3.org/2000/svg" width="101.956" height="47.15" viewBox="0 0 101.956 47.15">
  <defs>
    <style>
      .cls-1 {
        fill: #ccd9ff;
      }

      .cls-2 {
        fill: #8ca6fd;
      }

      .cls-3 {
        fill: #fff;
      }
    </style>
  </defs>
  <g id="组_1631" data-name="组 1631" transform="translate(-301.635 -1070.089)">
    <path id="路径_2942" data-name="路径 2942" class="cls-1" d="M352.613,1117.239h29a7.683,7.683,0,0,0,3.978-1.109l15.926-9.641a4.3,4.3,0,0,0,2.073-3.676v-19.029a4.3,4.3,0,0,0-2.188-3.743l-15.889-8.961a7.674,7.674,0,0,0-3.773-.991H323.484a7.674,7.674,0,0,0-3.773.991l-15.889,8.961a4.3,4.3,0,0,0-2.187,3.743v19.029a4.3,4.3,0,0,0,2.073,3.676l15.926,9.641a7.679,7.679,0,0,0,3.977,1.109Z"/>
    <path id="路径_2943" data-name="路径 2943" class="cls-2" d="M352.613,1113.738H378.88a7.293,7.293,0,0,0,3.6-.945l14.424-8.209a3.618,3.618,0,0,0,1.878-3.13v-16.2a3.63,3.63,0,0,0-1.981-3.188l-14.391-7.63a7.3,7.3,0,0,0-3.417-.844H326.231a7.3,7.3,0,0,0-3.417.844l-14.391,7.63a3.63,3.63,0,0,0-1.981,3.188v16.2a3.619,3.619,0,0,0,1.877,3.13l14.425,8.209a7.293,7.293,0,0,0,3.6.945Z"/>
    <g id="组_1630" data-name="组 1630">
      <path id="路径_2944" data-name="路径 2944" class="cls-3" d="M317.958,1097.737h15.656v2.474H317.958Zm1.171-10.058H332.41v2.441H319.129Z"/>
      <path id="路径_2945" data-name="路径 2945" class="cls-3" d="M344.519,1099.145l-8.13-3.751v-1.318l8.13-3.964v2l-5.827,2.58v.049l5.827,2.4Z"/>
      <path id="路径_2946" data-name="路径 2946" class="cls-3" d="M349.255,1094.23v-.285a5.338,5.338,0,0,0,1.285-.5,1.908,1.908,0,0,0,.619-.708,1.989,1.989,0,0,0,.261-.964,1.571,1.571,0,0,0-.493-1.16,1.675,1.675,0,0,0-1.225-.484,2.3,2.3,0,0,0-1.936,1.2l-.3-.106a4.885,4.885,0,0,1,1.5-2.042A3.324,3.324,0,0,1,351,1088.5a2.658,2.658,0,0,1,1.893.7,2.18,2.18,0,0,1,.744,1.636,2.219,2.219,0,0,1-.346,1.176,3.008,3.008,0,0,1-1.086,1,3.845,3.845,0,0,1,1.452,1.143,2.8,2.8,0,0,1,.5,1.705,3.93,3.93,0,0,1-1.249,2.933,4.611,4.611,0,0,1-3.349,1.208,3.538,3.538,0,0,1-2.042-.463.983.983,0,0,1-.464-.838.908.908,0,0,1,.886-.9,1.143,1.143,0,0,1,.505.113,10.606,10.606,0,0,1,.924.712,2.419,2.419,0,0,0,1.485.647,1.347,1.347,0,0,0,1.033-.476,1.728,1.728,0,0,0,.431-1.208,3.147,3.147,0,0,0-.781-2.055A4.1,4.1,0,0,0,349.255,1094.23Z"/>
      <path id="路径_2947" data-name="路径 2947" class="cls-3" d="M365.538,1095.3l-8.13,3.752v-1.994l5.843-2.392v-.041l-5.843-2.588v-2l8.13,3.947Z"/>
      <path id="路径_2948" data-name="路径 2948" class="cls-3" d="M368.329,1100.813l-.244-2.148q.929-.1,1.9-.236V1094.4h-1.6v-1.986h1.6v-3.336h-1.676v-2.018h5.257v2.018h-1.563v3.336h1.432v1.986h-1.432v3.735q.839-.131,1.709-.284-.114,1.172-.146,2.1Zm7.763-14.566h1.954v8.008a10.406,10.406,0,0,1-2.979,7.844q-.829-.765-1.725-1.449a8.383,8.383,0,0,0,2.75-6.754Zm-2.49,9.374q.2-2.994.163-6.444h1.742q-.018,3.255-.147,6.607A17.13,17.13,0,0,0,373.6,1095.621Zm4.166,3.6h2.247v-4.41h-1.53v-1.986h1.53v-3.808h-1.693V1087h5.615v2.018h-1.774v3.808h1.6v1.986h-1.6v4.41h2.083v2.018h-6.478Z"/>
    </g>
  </g>
</svg>
