<svg xmlns="http://www.w3.org/2000/svg" width="107.956" height="53.15" viewBox="0 0 107.956 53.15">
  <defs>
    <style>
      .cls-1, .cls-3, .cls-5 {
        fill: #fff;
      }

      .cls-1 {
        stroke-miterlimit: 10;
      }

      .cls-2 {
        fill: #8ca6fd;
      }

      .cls-4, .cls-5 {
        stroke: none;
      }
    </style>
  </defs>
  <g id="组_1603" data-name="组 1603" transform="translate(-38.453 -956.089)">
    <g id="路径_2844" data-name="路径 2844" class="cls-1">
      <path class="cls-4" d="M 121.431999206543 1007.739013671875 L 92.43099975585938 1007.739013671875 L 63.42900085449219 1007.739013671875 C 61.75147247314453 1007.739013671875 60.10758590698242 1007.280517578125 58.67505645751953 1006.4130859375 L 42.74919891357422 996.772216796875 C 41.02447128295898 995.728271484375 39.95299911499023 993.8280029296875 39.95299911499023 991.81298828125 L 39.95299911499023 982.6640014648438 L 39.95299911499023 972.7839965820313 C 39.95299911499023 970.6970825195313 41.0831298828125 968.7623291015625 42.9023551940918 967.7349243164063 L 58.79214096069336 958.7734985351563 C 60.16398620605469 957.9987182617188 61.72372817993164 957.5889892578125 63.30199813842773 957.5889892578125 L 92.43099975585938 957.5889892578125 L 121.5589981079102 957.5889892578125 C 123.1372680664063 957.5889892578125 124.6970138549805 957.9987182617188 126.0696258544922 958.77392578125 L 141.9578552246094 967.7344970703125 C 143.7783355712891 968.7618408203125 144.9089965820313 970.6966552734375 144.9089965820313 972.7839965820313 L 144.9089965820313 982.6640014648438 L 144.9089965820313 991.81298828125 C 144.9089965820313 993.8280029296875 143.8375244140625 995.728271484375 142.1127319335938 996.7722778320313 L 126.1867980957031 1006.413208007813 C 124.753059387207 1007.280639648438 123.1089859008789 1007.739013671875 121.431999206543 1007.739013671875 Z"/>
      <path class="cls-5" d="M 121.431999206543 1006.239013671875 C 122.8349990844727 1006.239013671875 124.2099990844727 1005.856018066406 125.4099960327148 1005.130004882813 L 141.3359985351563 995.489013671875 C 142.6230010986328 994.7100219726563 143.4089965820313 993.3159790039063 143.4089965820313 991.81298828125 L 143.4089965820313 982.6640014648438 L 143.4089965820313 972.7839965820313 C 143.4089965820313 971.2340087890625 142.572998046875 969.8040161132813 141.2209930419922 969.041015625 L 125.3320007324219 960.0800170898438 C 124.1809997558594 959.4299926757813 122.8809967041016 959.0889892578125 121.5589981079102 959.0889892578125 L 92.43099975585938 959.0889892578125 L 63.30199813842773 959.0889892578125 C 61.97999954223633 959.0889892578125 60.68000030517578 959.4299926757813 59.52899932861328 960.0800170898438 L 43.63999938964844 969.041015625 C 42.28900146484375 969.8040161132813 41.45299911499023 971.2340087890625 41.45299911499023 972.7839965820313 L 41.45299911499023 982.6640014648438 L 41.45299911499023 991.81298828125 C 41.45299911499023 993.3159790039063 42.23899841308594 994.7100219726563 43.5260009765625 995.489013671875 L 59.45199966430664 1005.130004882813 C 60.6510009765625 1005.856018066406 62.02700042724609 1006.239013671875 63.42900085449219 1006.239013671875 L 92.43099975585938 1006.239013671875 L 121.431999206543 1006.239013671875 M 121.431999206543 1009.239013671875 L 92.43099975585938 1009.239013671875 L 63.42900085449219 1009.239013671875 C 61.47751998901367 1009.239013671875 59.56496047973633 1008.705505371094 57.89809799194336 1007.696228027344 L 41.9724006652832 998.055419921875 C 40.90069961547852 997.40673828125 40.00894165039063 996.4871215820313 39.39369964599609 995.3960571289063 C 38.77830123901367 994.3046875 38.45299911499023 993.065673828125 38.45299911499023 991.81298828125 L 38.45299911499023 982.6640014648438 L 38.45299911499023 972.7839965820313 C 38.45299911499023 970.156982421875 39.87524032592773 967.7218627929688 42.16471862792969 966.4288330078125 L 58.05527877807617 957.4669189453125 C 59.6510009765625 956.5657348632813 61.4658203125 956.0889892578125 63.30199813842773 956.0889892578125 L 92.43099975585938 956.0889892578125 L 121.5589981079102 956.0889892578125 C 123.3951797485352 956.0889892578125 125.2099990844727 956.5657348632813 126.807243347168 957.4677734375 L 142.6947174072266 966.4279174804688 C 144.9860534667969 967.7210693359375 146.4089965820313 970.1563720703125 146.4089965820313 972.7839965820313 L 146.4089965820313 982.6640014648438 L 146.4089965820313 991.81298828125 C 146.4089965820313 993.065673828125 146.0836944580078 994.3046875 145.4682922363281 995.3960571289063 C 144.8530578613281 996.4871215820313 143.9613037109375 997.40673828125 142.8894348144531 998.0554809570313 L 126.9636001586914 1007.696411132813 C 125.2953186035156 1008.705749511719 123.3827362060547 1009.239013671875 121.431999206543 1009.239013671875 Z"/>
    </g>
    <path id="路径_2845" data-name="路径 2845" class="cls-2" d="M92.431,1002.738H118.7a7.293,7.293,0,0,0,3.6-.945l14.424-8.209a3.618,3.618,0,0,0,1.878-3.13v-16.2a3.63,3.63,0,0,0-1.981-3.188l-14.391-7.63a7.3,7.3,0,0,0-3.417-.844H66.049a7.3,7.3,0,0,0-3.417.844l-14.391,7.63a3.63,3.63,0,0,0-1.981,3.188v16.2a3.619,3.619,0,0,0,1.877,3.13l14.425,8.209a7.293,7.293,0,0,0,3.6.945Z"/>
    <g id="组_1602" data-name="组 1602">
      <path id="路径_2846" data-name="路径 2846" class="cls-3" d="M57.743,981.692H73.465V984.1H57.743Z"/>
      <path id="路径_2847" data-name="路径 2847" class="cls-3" d="M84.337,988.145l-8.13-3.751v-1.318l8.13-3.964v2l-5.827,2.58v.049l5.827,2.4Z"/>
      <path id="路径_2848" data-name="路径 2848" class="cls-3" d="M89.073,983.23v-.285a5.343,5.343,0,0,0,1.285-.5,1.908,1.908,0,0,0,.619-.708,1.988,1.988,0,0,0,.261-.964,1.571,1.571,0,0,0-.493-1.16,1.675,1.675,0,0,0-1.225-.484,2.3,2.3,0,0,0-1.936,1.2l-.3-.106a4.885,4.885,0,0,1,1.5-2.042,3.324,3.324,0,0,1,2.038-.684,2.659,2.659,0,0,1,1.893.7,2.18,2.18,0,0,1,.744,1.636,2.219,2.219,0,0,1-.346,1.176,3.009,3.009,0,0,1-1.086,1,3.849,3.849,0,0,1,1.453,1.143,2.8,2.8,0,0,1,.5,1.7,3.93,3.93,0,0,1-1.249,2.933A4.611,4.611,0,0,1,89.382,989a3.538,3.538,0,0,1-2.042-.463.983.983,0,0,1-.464-.838.909.909,0,0,1,.887-.9,1.14,1.14,0,0,1,.5.113,10.6,10.6,0,0,1,.924.712,2.419,2.419,0,0,0,1.485.647,1.346,1.346,0,0,0,1.033-.476,1.728,1.728,0,0,0,.432-1.208,3.147,3.147,0,0,0-.781-2.055A4.1,4.1,0,0,0,89.073,983.23Z"/>
      <path id="路径_2849" data-name="路径 2849" class="cls-3" d="M105.356,984.3l-8.13,3.752v-1.994l5.844-2.392v-.041l-5.844-2.588v-2l8.13,3.947Z"/>
      <path id="路径_2850" data-name="路径 2850" class="cls-3" d="M108.147,989.813l-.244-2.148q.929-.1,1.9-.236V983.4h-1.6v-1.986h1.6v-3.336h-1.676v-2.018h5.257v2.018h-1.563v3.336h1.432V983.4h-1.432v3.735q.839-.13,1.709-.284-.114,1.172-.146,2.1Zm7.763-14.566h1.954v8.008a10.4,10.4,0,0,1-2.979,7.844q-.83-.765-1.725-1.449a8.383,8.383,0,0,0,2.75-6.754Zm-2.49,9.374q.2-2.994.163-6.444h1.742q-.018,3.255-.147,6.607A17.13,17.13,0,0,0,113.42,984.621Zm4.167,3.6h2.246v-4.41H118.3v-1.986h1.53v-3.808H118.14V976h5.615v2.018h-1.774v3.808h1.595v1.986h-1.595v4.41h2.083v2.018h-6.477Z"/>
    </g>
  </g>
</svg>
