<svg xmlns="http://www.w3.org/2000/svg" width="101.956" height="47.151" viewBox="0 0 101.956 47.151">
  <defs>
    <style>
      .cls-1 {
        fill: #ccd9ff;
      }

      .cls-2 {
        fill: #8ca6fd;
      }

      .cls-3 {
        fill: #fff;
      }
    </style>
  </defs>
  <g id="组_1862" data-name="组 1862" transform="translate(102.382 490.088)">
    <path id="路径_3948" data-name="路径 3948" class="cls-1" d="M-51.4-442.937h29a7.68,7.68,0,0,0,3.977-1.11L-2.5-453.688a4.3,4.3,0,0,0,2.073-3.676v-19.029a4.3,4.3,0,0,0-2.187-3.743L-18.5-489.1a7.673,7.673,0,0,0-3.773-.991H-80.532a7.673,7.673,0,0,0-3.773.991l-15.889,8.961a4.3,4.3,0,0,0-2.188,3.743v19.029a4.3,4.3,0,0,0,2.073,3.676l15.927,9.641a7.677,7.677,0,0,0,3.977,1.11Z"/>
    <path id="路径_3949" data-name="路径 3949" class="cls-2" d="M-51.4-446.439h26.267a7.3,7.3,0,0,0,3.6-.945l14.424-8.209a3.617,3.617,0,0,0,1.877-3.13v-16.2a3.63,3.63,0,0,0-1.981-3.188l-14.39-7.63a7.305,7.305,0,0,0-3.418-.844H-77.786a7.3,7.3,0,0,0-3.417.844l-14.39,7.63a3.629,3.629,0,0,0-1.982,3.188v16.2a3.618,3.618,0,0,0,1.878,3.13l14.424,8.209a7.293,7.293,0,0,0,3.6.945Z"/>
    <g id="组_1861" data-name="组 1861">
      <path id="路径_3950" data-name="路径 3950" class="cls-3" d="M-86.059-462.44H-70.4v2.474H-86.059Zm1.172-10.058h13.28v2.441h-13.28Z"/>
      <path id="路径_3951" data-name="路径 3951" class="cls-3" d="M-59.5-461.031l-8.129-3.752V-466.1l8.129-3.964v2l-5.826,2.58v.049l5.826,2.4Z"/>
      <path id="路径_3952" data-name="路径 3952" class="cls-3" d="M-50.326-460.413H-56.82v-.179a36,36,0,0,0,3.625-4.785,5.186,5.186,0,0,0,.639-2.4,2,2,0,0,0-.529-1.42,1.7,1.7,0,0,0-1.294-.565,2.138,2.138,0,0,0-1.945,1.253l-.3-.106a4.51,4.51,0,0,1,1.335-2.311,3.125,3.125,0,0,1,2.066-.749,3.061,3.061,0,0,1,1.53.391,2.833,2.833,0,0,1,1.083,1.07,2.581,2.581,0,0,1,.39,1.274,4.608,4.608,0,0,1-.6,2.2,20.843,20.843,0,0,1-3.589,4.2h2.384a5.421,5.421,0,0,0,1.144-.074.956.956,0,0,0,.436-.248A3.257,3.257,0,0,0-50-463.6h.293Z"/>
      <path id="路径_3953" data-name="路径 3953" class="cls-3" d="M-38.478-464.881l-8.13,3.752v-1.994l5.843-2.392v-.041l-5.843-2.588v-2l8.13,3.947Z"/>
      <path id="路径_3954" data-name="路径 3954" class="cls-3" d="M-35.687-459.364l-.244-2.148q.927-.1,1.9-.236v-4.028h-1.6v-1.985h1.6V-471.1H-35.7v-2.018h5.258v2.018h-1.563v3.337h1.432v1.985h-1.432v3.735q.838-.131,1.709-.284-.114,1.172-.146,2.1Zm7.763-14.566h1.953v8.008a10.4,10.4,0,0,1-2.979,7.844q-.829-.765-1.725-1.449a8.38,8.38,0,0,0,2.751-6.754Zm-2.49,9.375q.195-3,.162-6.445h1.742q-.016,3.255-.146,6.607A16.846,16.846,0,0,0-30.414-464.555Zm4.166,3.6H-24v-4.411h-1.529v-1.986H-24v-3.808h-1.692v-2.018h5.615v2.018h-1.774v3.808h1.594v1.986h-1.594v4.411h2.083v2.017h-6.478Z"/>
    </g>
  </g>
</svg>
