<svg xmlns="http://www.w3.org/2000/svg" width="90" height="39.129" viewBox="0 0 90 39.129">
  <defs>
    <style>
      .cls-1 {
        fill: #afd8f4;
        opacity: 0.7;
      }

      .cls-2 {
        fill: #fff;
      }
    </style>
  </defs>
  <g id="组_572" data-name="组 572" transform="translate(-477.737 -197.86)">
    <path id="路径_1089" data-name="路径 1089" class="cls-1" d="M522.737,236.989h25.6a7.1,7.1,0,0,0,3.511-.921l14.059-8a3.529,3.529,0,0,0,1.83-3.051V209.225a3.537,3.537,0,0,0-1.931-3.106l-14.026-7.437a7.115,7.115,0,0,0-3.331-.822H497.024a7.121,7.121,0,0,0-3.331.822l-14.025,7.437a3.537,3.537,0,0,0-1.931,3.106v15.792a3.529,3.529,0,0,0,1.83,3.051l14.058,8a7.1,7.1,0,0,0,3.511.921Z"/>
    <g id="组_571" data-name="组 571">
      <g id="组_570" data-name="组 570">
        <path id="路径_1090" data-name="路径 1090" class="cls-2" d="M547.482,236.88h-4.993v-3.006h4.993a5.641,5.641,0,0,0,2.679-.665l1.187-.641,1.429,2.645-1.187.641A8.66,8.66,0,0,1,547.482,236.88Zm-14.869,0h-9.876l-.028-3.006h9.9Zm-19.78,0h-9.876v-3.006h9.876ZM492.671,235.2l-8.689-4.694,1.429-2.645,8.689,4.694Zm68.8-4.68-1.429-2.645,3.713-2.006a1.717,1.717,0,0,0,.981-1.477v-2.177h3.006v2.177a4.733,4.733,0,0,1-2.558,4.122Zm-80.723-8.334h-3.006V212.31h3.006Zm86.994-9.847h-3.006V209.9a1.747,1.747,0,0,0-1.04-1.508l-3.439-1.731,1.352-2.685,3.439,1.731a4.731,4.731,0,0,1,2.694,4.193Zm-82.49-5.689-1.352-2.685,8.822-4.44,1.351,2.685Zm66.184-4.427-1.3-.652a5.681,5.681,0,0,0-2.544-.594H542.5V197.97h5.088a8.708,8.708,0,0,1,3.9.914l1.3.653Zm-18.8-1.246h-9.876V197.97h9.876Zm-19.752,0H503V197.97h9.876Z"/>
      </g>
    </g>
  </g>
</svg>
