<svg xmlns="http://www.w3.org/2000/svg" width="107.956" height="53.151" viewBox="0 0 107.956 53.151">
  <defs>
    <style>
      .cls-1, .cls-3, .cls-5 {
        fill: #fff;
      }

      .cls-1 {
        stroke-linejoin: round;
      }

      .cls-2 {
        fill: #8ca6fd;
      }

      .cls-4, .cls-5 {
        stroke: none;
      }
    </style>
  </defs>
  <g id="组_1884" data-name="组 1884" transform="translate(379.498 493.088)">
    <g id="路径_4017" data-name="路径 4017" class="cls-1">
      <path class="cls-4" d="M -296.5180053710938 -441.43701171875 L -325.5199890136719 -441.43701171875 L -354.5220031738281 -441.43701171875 C -356.1984252929688 -441.43701171875 -357.84228515625 -441.8958435058594 -359.2759094238281 -442.7638854980469 L -375.2017822265625 -452.40478515625 C -376.926513671875 -453.4487609863281 -377.9979858398438 -455.3490600585938 -377.9979858398438 -457.364013671875 L -377.9979858398438 -466.5130004882813 L -377.9979858398438 -476.3930053710938 C -377.9979858398438 -478.4803466796875 -376.8673095703125 -480.4151306152344 -375.0472106933594 -481.4423217773438 L -359.1588745117188 -490.4035034179688 C -357.78564453125 -491.1783752441406 -356.2257080078125 -491.5880126953125 -354.6480102539063 -491.5880126953125 L -325.5199890136719 -491.5880126953125 L -296.3909912109375 -491.5880126953125 C -294.8139038085938 -491.5880126953125 -293.2543334960938 -491.1783752441406 -291.880859375 -490.4033508300781 L -275.9931030273438 -481.4425048828125 C -274.1726684570313 -480.4151306152344 -273.0419921875 -478.4803466796875 -273.0419921875 -476.3930053710938 L -273.0419921875 -466.5130004882813 L -273.0419921875 -457.364013671875 C -273.0419921875 -455.3490600585938 -274.1134338378906 -453.4487915039063 -275.8382263183594 -452.4047546386719 L -291.7641906738281 -442.7637939453125 C -293.1976928710938 -441.8958435058594 -294.8415832519531 -441.43701171875 -296.5180053710938 -441.43701171875 Z"/>
      <path class="cls-5" d="M -296.5180053710938 -442.93701171875 C -295.1159973144531 -442.93701171875 -293.739990234375 -443.3210144042969 -292.5409851074219 -444.0469970703125 L -276.614990234375 -453.68798828125 C -275.3280029296875 -454.4670104980469 -274.5419921875 -455.8609924316406 -274.5419921875 -457.364013671875 L -274.5419921875 -466.5130004882813 L -274.5419921875 -476.3930053710938 C -274.5419921875 -477.9429931640625 -275.3779907226563 -479.3729858398438 -276.7300109863281 -480.135986328125 L -292.6180114746094 -489.0969848632813 C -293.7699890136719 -489.7470092773438 -295.0690002441406 -490.0880126953125 -296.3909912109375 -490.0880126953125 L -325.5199890136719 -490.0880126953125 L -354.6480102539063 -490.0880126953125 C -355.9710083007813 -490.0880126953125 -357.2699890136719 -489.7470092773438 -358.4219970703125 -489.0969848632813 L -374.3099975585938 -480.135986328125 C -375.6619873046875 -479.3729858398438 -376.4979858398438 -477.9429931640625 -376.4979858398438 -476.3930053710938 L -376.4979858398438 -466.5130004882813 L -376.4979858398438 -457.364013671875 C -376.4979858398438 -455.8609924316406 -375.7120056152344 -454.4670104980469 -374.4249877929688 -453.68798828125 L -358.4989929199219 -444.0469970703125 C -357.2999877929688 -443.3210144042969 -355.9240112304688 -442.93701171875 -354.5220031738281 -442.93701171875 L -325.5199890136719 -442.93701171875 L -296.5180053710938 -442.93701171875 M -296.5180053710938 -439.93701171875 L -325.5199890136719 -439.93701171875 L -354.5220031738281 -439.93701171875 C -356.4723205566406 -439.93701171875 -358.3848266601563 -440.4708251953125 -360.0527954101563 -441.480712890625 L -375.9785766601563 -451.1216125488281 C -377.0503234863281 -451.7702941894531 -377.9420471191406 -452.6899108886719 -378.5572814941406 -453.7809448242188 C -379.1726989746094 -454.8722839355469 -379.4979858398438 -456.1112976074219 -379.4979858398438 -457.364013671875 L -379.4979858398438 -466.5130004882813 L -379.4979858398438 -476.3930053710938 C -379.4979858398438 -479.0205993652344 -378.0750427246094 -481.4559631347656 -375.784423828125 -482.7486572265625 L -359.8957824707031 -491.7100219726563 C -358.2982788085938 -492.6114196777344 -356.4834594726563 -493.0880126953125 -354.6480102539063 -493.0880126953125 L -325.5199890136719 -493.0880126953125 L -296.3909912109375 -493.0880126953125 C -294.5561828613281 -493.0880126953125 -292.74169921875 -492.6114196777344 -291.1437377929688 -491.7097473144531 L -275.2562255859375 -482.7490234375 C -272.9649353027344 -481.4559631347656 -271.5419921875 -479.0206298828125 -271.5419921875 -476.3930053710938 L -271.5419921875 -466.5130004882813 L -271.5419921875 -457.364013671875 C -271.5419921875 -456.1112976074219 -271.8672790527344 -454.8722839355469 -272.4827270507813 -453.7809143066406 C -273.0979309082031 -452.68994140625 -273.9896545410156 -451.7703247070313 -275.0615234375 -451.1215209960938 L -290.9873962402344 -441.4805908203125 C -292.6551513671875 -440.4708251953125 -294.5676574707031 -439.93701171875 -296.5180053710938 -439.93701171875 Z"/>
    </g>
    <path id="路径_4018" data-name="路径 4018" class="cls-2" d="M-325.52-446.439h26.267a7.293,7.293,0,0,0,3.6-.945l14.425-8.209a3.619,3.619,0,0,0,1.877-3.13v-16.2a3.63,3.63,0,0,0-1.981-3.188l-14.391-7.63a7.3,7.3,0,0,0-3.417-.844H-351.9a7.3,7.3,0,0,0-3.417.844l-14.391,7.63a3.63,3.63,0,0,0-1.981,3.188v16.2a3.619,3.619,0,0,0,1.877,3.13l14.425,8.209a7.293,7.293,0,0,0,3.6.945Z"/>
    <g id="组_1883" data-name="组 1883">
      <path id="路径_4019" data-name="路径 4019" class="cls-3" d="M-360.175-462.44h15.657v2.474h-15.657ZM-359-472.5h13.281v2.441H-359Z"/>
      <path id="路径_4020" data-name="路径 4020" class="cls-3" d="M-333.614-461.031l-8.13-3.752V-466.1l8.13-3.964v2l-5.827,2.58v.049l5.827,2.4Z"/>
      <path id="路径_4021" data-name="路径 4021" class="cls-3" d="M-324.443-460.413h-6.493v-.179a35.865,35.865,0,0,0,3.624-4.785,5.187,5.187,0,0,0,.64-2.4,2,2,0,0,0-.529-1.42,1.706,1.706,0,0,0-1.294-.565,2.138,2.138,0,0,0-1.945,1.253l-.3-.106a4.517,4.517,0,0,1,1.335-2.311,3.129,3.129,0,0,1,2.067-.749,3.061,3.061,0,0,1,1.53.391,2.823,2.823,0,0,1,1.082,1.07,2.583,2.583,0,0,1,.391,1.274,4.608,4.608,0,0,1-.6,2.2,20.911,20.911,0,0,1-3.589,4.2h2.384a5.428,5.428,0,0,0,1.144-.074.947.947,0,0,0,.435-.248,3.213,3.213,0,0,0,.448-.736h.292Z"/>
      <path id="路径_4022" data-name="路径 4022" class="cls-3" d="M-312.6-464.881l-8.129,3.752v-1.994l5.843-2.392v-.041l-5.843-2.588v-2l8.129,3.947Z"/>
      <path id="路径_4023" data-name="路径 4023" class="cls-3" d="M-309.8-459.364l-.245-2.148q.929-.1,1.9-.236v-4.028h-1.594v-1.985h1.594V-471.1h-1.676v-2.018h5.257v2.018h-1.562v3.337h1.432v1.985h-1.432v3.735q.837-.131,1.708-.284-.113,1.172-.146,2.1Zm7.762-14.566h1.954v8.008a10.4,10.4,0,0,1-2.979,7.844q-.829-.765-1.725-1.449a8.38,8.38,0,0,0,2.75-6.754Zm-2.49,9.375q.2-3,.163-6.445h1.742q-.016,3.255-.147,6.607A16.8,16.8,0,0,0-304.531-464.555Zm4.167,3.6h2.246v-4.411h-1.53v-1.986h1.53v-3.808h-1.693v-2.018h5.615v2.018h-1.774v3.808h1.6v1.986h-1.6v4.411h2.083v2.017h-6.477Z"/>
    </g>
  </g>
</svg>
