<svg xmlns="http://www.w3.org/2000/svg" width="107.956" height="53.15" viewBox="0 0 107.956 53.15">
  <defs>
    <style>
      .cls-1, .cls-3, .cls-5 {
        fill: #fff;
      }

      .cls-1 {
        stroke-linejoin: round;
      }

      .cls-2 {
        fill: #8ca6fd;
      }

      .cls-4, .cls-5 {
        stroke: none;
      }
    </style>
  </defs>
  <g id="组_1880" data-name="组 1880" transform="translate(502.698 310.353)">
    <g id="路径_4003" data-name="路径 4003" class="cls-1">
      <path class="cls-4" d="M -419.7179870605469 -258.7030029296875 L -448.7200012207031 -258.7030029296875 L -477.7210083007813 -258.7030029296875 C -479.3979797363281 -258.7030029296875 -481.0420532226563 -259.161376953125 -482.4754638671875 -260.0286254882813 L -498.4017944335938 -269.6697998046875 C -500.1265258789063 -270.7137756347656 -501.197998046875 -272.6140441894531 -501.197998046875 -274.6289978027344 L -501.197998046875 -283.7780151367188 L -501.197998046875 -293.6579895019531 C -501.197998046875 -295.745361328125 -500.0673217773438 -297.6801452636719 -498.2472229003906 -298.7073364257813 L -482.3578491210938 -307.6685485839844 C -480.9859313964844 -308.4432678222656 -479.4262084960938 -308.8529968261719 -477.8479919433594 -308.8529968261719 L -448.7200012207031 -308.8529968261719 L -419.5910034179688 -308.8529968261719 C -418.0127868652344 -308.8529968261719 -416.4530334472656 -308.4432678222656 -415.0804138183594 -307.6681213378906 L -399.192138671875 -298.7075500488281 C -397.3721008300781 -297.6796569824219 -396.2420043945313 -295.7449340820313 -396.2420043945313 -293.6579895019531 L -396.2420043945313 -283.7780151367188 L -396.2420043945313 -274.6289978027344 C -396.2420043945313 -272.6140441894531 -397.3134765625 -270.7137756347656 -399.0382690429688 -269.6697692871094 L -414.9642028808594 -260.02880859375 C -416.3965759277344 -259.1614990234375 -418.0404663085938 -258.7030029296875 -419.7179870605469 -258.7030029296875 Z"/>
      <path class="cls-5" d="M -419.7179870605469 -260.2030029296875 C -418.3160095214844 -260.2030029296875 -416.9400024414063 -260.5859985351563 -415.7409973144531 -261.31201171875 L -399.8150024414063 -270.9530029296875 C -398.5280151367188 -271.7319946289063 -397.7420043945313 -273.1260070800781 -397.7420043945313 -274.6289978027344 L -397.7420043945313 -283.7780151367188 L -397.7420043945313 -293.6579895019531 C -397.7420043945313 -295.2080078125 -398.5780029296875 -296.6380004882813 -399.9289855957031 -297.4010009765625 L -415.8179931640625 -306.3619995117188 C -416.968994140625 -307.0119934082031 -418.2690124511719 -307.3529968261719 -419.5910034179688 -307.3529968261719 L -448.7200012207031 -307.3529968261719 L -477.8479919433594 -307.3529968261719 C -479.1700134277344 -307.3529968261719 -480.4700012207031 -307.0119934082031 -481.6210021972656 -306.3619995117188 L -497.510009765625 -297.4010009765625 C -498.8619995117188 -296.6380004882813 -499.697998046875 -295.2080078125 -499.697998046875 -293.6579895019531 L -499.697998046875 -283.7780151367188 L -499.697998046875 -274.6289978027344 C -499.697998046875 -273.1260070800781 -498.9119873046875 -271.7319946289063 -497.625 -270.9530029296875 L -481.6990051269531 -261.31201171875 C -480.4989929199219 -260.5859985351563 -479.1239929199219 -260.2030029296875 -477.7210083007813 -260.2030029296875 L -448.7200012207031 -260.2030029296875 L -419.7179870605469 -260.2030029296875 M -419.7179870605469 -257.2030029296875 L -448.7200012207031 -257.2030029296875 L -477.7210083007813 -257.2030029296875 C -479.6717224121094 -257.2030029296875 -481.5842895507813 -257.7362976074219 -483.2519226074219 -258.7452087402344 L -499.1785888671875 -268.3866271972656 C -500.2503051757813 -269.0353088378906 -501.1420593261719 -269.9548950195313 -501.7572631835938 -271.0459289550781 C -502.3727111816406 -272.1372985839844 -502.697998046875 -273.3762817382813 -502.697998046875 -274.6289978027344 L -502.697998046875 -283.7780151367188 L -502.697998046875 -293.6579895019531 C -502.697998046875 -296.2856140136719 -501.2750549316406 -298.7209777832031 -498.9844360351563 -300.013671875 L -483.0946960449219 -308.9750671386719 C -481.4989624023438 -309.876220703125 -479.6841735839844 -310.3529968261719 -477.8479919433594 -310.3529968261719 L -448.7200012207031 -310.3529968261719 L -419.5910034179688 -310.3529968261719 C -417.7548217773438 -310.3529968261719 -415.9400024414063 -309.876220703125 -414.3427734375 -308.9742431640625 L -398.4552917480469 -300.0140686035156 C -396.1642456054688 -298.7201538085938 -394.7420043945313 -296.2849731445313 -394.7420043945313 -293.6579895019531 L -394.7420043945313 -283.7780151367188 L -394.7420043945313 -274.6289978027344 C -394.7420043945313 -273.3762817382813 -395.0672912597656 -272.1372985839844 -395.6827392578125 -271.0459289550781 C -396.2979431152344 -269.9548950195313 -397.189697265625 -269.0353088378906 -398.2615356445313 -268.3865356445313 L -414.1874084472656 -258.7456359863281 C -415.8539733886719 -257.7364807128906 -417.7665100097656 -257.2030029296875 -419.7179870605469 -257.2030029296875 Z"/>
    </g>
    <path id="路径_4004" data-name="路径 4004" class="cls-2" d="M-448.72-263.7h26.267a7.293,7.293,0,0,0,3.6-.945l14.425-8.209a3.619,3.619,0,0,0,1.877-3.13v-16.2a3.63,3.63,0,0,0-1.981-3.188l-14.39-7.63a7.305,7.305,0,0,0-3.418-.844H-475.1a7.3,7.3,0,0,0-3.417.844l-14.391,7.63a3.63,3.63,0,0,0-1.981,3.188v16.2a3.618,3.618,0,0,0,1.878,3.13l14.424,8.209a7.293,7.293,0,0,0,3.6.945Z"/>
    <g id="组_1879" data-name="组 1879">
      <path id="路径_4005" data-name="路径 4005" class="cls-3" d="M-483.408-278.891h15.722v2.409h-15.722Zm1.01-11.3h13.638v2.409H-482.4Zm.732,5.5h12.174v2.344h-12.174Z"/>
      <path id="路径_4006" data-name="路径 4006" class="cls-3" d="M-456.814-278.3l-8.129-3.751v-1.318l8.129-3.964v2l-5.826,2.58v.049l5.826,2.4Z"/>
      <path id="路径_4007" data-name="路径 4007" class="cls-3" d="M-449.115-288.941v9.025a5.585,5.585,0,0,0,.089,1.3.84.84,0,0,0,.374.46,1.778,1.778,0,0,0,.912.178h.252v.3h-5.81v-.3h.292a2.269,2.269,0,0,0,1.01-.162.842.842,0,0,0,.407-.448,4.959,4.959,0,0,0,.106-1.326v-5.721a3.589,3.589,0,0,0-.074-.956.7.7,0,0,0-.272-.326.812.812,0,0,0-.46-.134,2.6,2.6,0,0,0-1.009.261l-.147-.293,4.061-1.856Z"/>
      <path id="路径_4008" data-name="路径 4008" class="cls-3" d="M-435.8-282.146l-8.129,3.752v-1.994l5.843-2.392v-.041l-5.843-2.588v-2l8.129,3.947Z"/>
      <path id="路径_4009" data-name="路径 4009" class="cls-3" d="M-433-276.629l-.245-2.148q.928-.1,1.9-.236v-4.028h-1.594v-1.985h1.594v-3.337h-1.676v-2.018h5.257v2.018h-1.562v3.337h1.432v1.985h-1.432v3.735q.839-.131,1.708-.284-.112,1.172-.146,2.1Zm7.763-14.566h1.953v8.008a10.4,10.4,0,0,1-2.979,7.844q-.83-.765-1.725-1.449a8.38,8.38,0,0,0,2.751-6.754Zm-2.49,9.375q.2-3,.162-6.445h1.742q-.017,3.255-.146,6.607A16.847,16.847,0,0,0-427.73-281.82Zm4.166,3.6h2.246v-4.411h-1.53v-1.986h1.53v-3.808h-1.692v-2.018h5.615v2.018h-1.774v3.808h1.594v1.986h-1.594v4.411h2.082v2.017h-6.477Z"/>
    </g>
  </g>
</svg>
