<svg xmlns="http://www.w3.org/2000/svg" width="101.956" height="47.15" viewBox="0 0 101.956 47.15">
  <defs>
    <style>
      .cls-1 {
        fill: #ccd9ff;
      }

      .cls-2 {
        fill: #8ca6fd;
      }

      .cls-3 {
        fill: #fff;
      }
    </style>
  </defs>
  <g id="组_1629" data-name="组 1629" transform="translate(-301.635 -1014.089)">
    <path id="路径_2935" data-name="路径 2935" class="cls-1" d="M352.613,1061.239h29a7.683,7.683,0,0,0,3.978-1.109l15.926-9.641a4.3,4.3,0,0,0,2.073-3.676v-19.029a4.3,4.3,0,0,0-2.188-3.743l-15.889-8.961a7.673,7.673,0,0,0-3.773-.991H323.484a7.673,7.673,0,0,0-3.773.991l-15.889,8.961a4.3,4.3,0,0,0-2.187,3.743v19.029a4.3,4.3,0,0,0,2.073,3.676l15.926,9.641a7.679,7.679,0,0,0,3.977,1.109Z"/>
    <path id="路径_2936" data-name="路径 2936" class="cls-2" d="M352.613,1057.738H378.88a7.293,7.293,0,0,0,3.6-.945l14.424-8.209a3.618,3.618,0,0,0,1.878-3.13v-16.2a3.63,3.63,0,0,0-1.981-3.188l-14.391-7.63a7.3,7.3,0,0,0-3.417-.844H326.231a7.3,7.3,0,0,0-3.417.844l-14.391,7.63a3.63,3.63,0,0,0-1.981,3.188v16.2a3.619,3.619,0,0,0,1.877,3.13l14.425,8.209a7.293,7.293,0,0,0,3.6.945Z"/>
    <g id="组_1628" data-name="组 1628">
      <path id="路径_2937" data-name="路径 2937" class="cls-3" d="M317.958,1041.737h15.656v2.474H317.958Zm1.171-10.058H332.41v2.441H319.129Z"/>
      <path id="路径_2938" data-name="路径 2938" class="cls-3" d="M344.519,1043.145l-8.13-3.751v-1.318l8.13-3.964v2l-5.827,2.58v.049l5.827,2.4Z"/>
      <path id="路径_2939" data-name="路径 2939" class="cls-3" d="M352.217,1032.5v9.025a5.646,5.646,0,0,0,.089,1.3.841.841,0,0,0,.375.459,1.762,1.762,0,0,0,.911.179h.253v.3h-5.811v-.3h.293a2.264,2.264,0,0,0,1.009-.162.838.838,0,0,0,.407-.448,4.916,4.916,0,0,0,.106-1.326v-5.721a3.59,3.59,0,0,0-.074-.956.686.686,0,0,0-.272-.326.807.807,0,0,0-.46-.134,2.621,2.621,0,0,0-1.009.26l-.146-.292,4.061-1.856Z"/>
      <path id="路径_2940" data-name="路径 2940" class="cls-3" d="M365.538,1039.3l-8.13,3.752v-1.994l5.843-2.392v-.041l-5.843-2.588v-2l8.13,3.947Z"/>
      <path id="路径_2941" data-name="路径 2941" class="cls-3" d="M368.329,1044.813l-.244-2.148q.929-.1,1.9-.236V1038.4h-1.6v-1.986h1.6v-3.336h-1.676v-2.018h5.257v2.018h-1.563v3.336h1.432v1.986h-1.432v3.735q.839-.131,1.709-.284-.114,1.172-.146,2.1Zm7.763-14.566h1.954v8.008a10.406,10.406,0,0,1-2.979,7.844q-.829-.765-1.725-1.449a8.383,8.383,0,0,0,2.75-6.754Zm-2.49,9.374q.2-2.994.163-6.444h1.742q-.018,3.255-.147,6.607A17.13,17.13,0,0,0,373.6,1039.621Zm4.166,3.6h2.247v-4.41h-1.53v-1.986h1.53v-3.808h-1.693V1031h5.615v2.018h-1.774v3.808h1.6v1.986h-1.6v4.41h2.083v2.018h-6.478Z"/>
    </g>
  </g>
</svg>
