<svg xmlns="http://www.w3.org/2000/svg" width="107.956" height="53.15" viewBox="0 0 107.956 53.15">
  <defs>
    <style>
      .cls-1, .cls-3, .cls-5 {
        fill: #fff;
      }

      .cls-1 {
        stroke-miterlimit: 10;
      }

      .cls-2 {
        fill: #8ca6fd;
      }

      .cls-4, .cls-5 {
        stroke: none;
      }
    </style>
  </defs>
  <g id="组_1601" data-name="组 1601" transform="translate(-38.453 -901.089)">
    <g id="路径_2837" data-name="路径 2837" class="cls-1">
      <path class="cls-4" d="M 121.431999206543 952.739013671875 L 92.43099975585938 952.739013671875 L 63.42900085449219 952.739013671875 C 61.75147247314453 952.739013671875 60.10758590698242 952.280517578125 58.67505645751953 951.4130859375 L 42.74919891357422 941.772216796875 C 41.02447128295898 940.728271484375 39.95299911499023 938.8280029296875 39.95299911499023 936.81298828125 L 39.95299911499023 927.6640014648438 L 39.95299911499023 917.7839965820313 C 39.95299911499023 915.6970825195313 41.0831298828125 913.7623291015625 42.9023551940918 912.7349243164063 L 58.79214096069336 903.7734985351563 C 60.16398620605469 902.9987182617188 61.72372817993164 902.5889892578125 63.30199813842773 902.5889892578125 L 92.43099975585938 902.5889892578125 L 121.5589981079102 902.5889892578125 C 123.1372680664063 902.5889892578125 124.6970138549805 902.9987182617188 126.0696258544922 903.77392578125 L 141.9578552246094 912.7344970703125 C 143.7783355712891 913.7618408203125 144.9089965820313 915.6966552734375 144.9089965820313 917.7839965820313 L 144.9089965820313 927.6640014648438 L 144.9089965820313 936.81298828125 C 144.9089965820313 938.8280029296875 143.8375244140625 940.728271484375 142.1127319335938 941.7722778320313 L 126.1867980957031 951.4132080078125 C 124.753059387207 952.2806396484375 123.1089859008789 952.739013671875 121.431999206543 952.739013671875 Z"/>
      <path class="cls-5" d="M 121.431999206543 951.239013671875 C 122.8349990844727 951.239013671875 124.2099990844727 950.8560180664063 125.4099960327148 950.1300048828125 L 141.3359985351563 940.489013671875 C 142.6230010986328 939.7100219726563 143.4089965820313 938.3159790039063 143.4089965820313 936.81298828125 L 143.4089965820313 927.6640014648438 L 143.4089965820313 917.7839965820313 C 143.4089965820313 916.2340087890625 142.572998046875 914.8040161132813 141.2209930419922 914.041015625 L 125.3320007324219 905.0800170898438 C 124.1809997558594 904.4299926757813 122.8809967041016 904.0889892578125 121.5589981079102 904.0889892578125 L 92.43099975585938 904.0889892578125 L 63.30199813842773 904.0889892578125 C 61.97999954223633 904.0889892578125 60.68000030517578 904.4299926757813 59.52899932861328 905.0800170898438 L 43.63999938964844 914.041015625 C 42.28900146484375 914.8040161132813 41.45299911499023 916.2340087890625 41.45299911499023 917.7839965820313 L 41.45299911499023 927.6640014648438 L 41.45299911499023 936.81298828125 C 41.45299911499023 938.3159790039063 42.23899841308594 939.7100219726563 43.5260009765625 940.489013671875 L 59.45199966430664 950.1300048828125 C 60.6510009765625 950.8560180664063 62.02700042724609 951.239013671875 63.42900085449219 951.239013671875 L 92.43099975585938 951.239013671875 L 121.431999206543 951.239013671875 M 121.431999206543 954.239013671875 L 92.43099975585938 954.239013671875 L 63.42900085449219 954.239013671875 C 61.47751998901367 954.239013671875 59.56496047973633 953.7055053710938 57.89809799194336 952.6962280273438 L 41.9724006652832 943.055419921875 C 40.90069961547852 942.40673828125 40.00894165039063 941.4871215820313 39.39369964599609 940.3960571289063 C 38.77830123901367 939.3046875 38.45299911499023 938.065673828125 38.45299911499023 936.81298828125 L 38.45299911499023 927.6640014648438 L 38.45299911499023 917.7839965820313 C 38.45299911499023 915.156982421875 39.87524032592773 912.7218627929688 42.16471862792969 911.4288330078125 L 58.05527877807617 902.4669189453125 C 59.6510009765625 901.5657348632813 61.4658203125 901.0889892578125 63.30199813842773 901.0889892578125 L 92.43099975585938 901.0889892578125 L 121.5589981079102 901.0889892578125 C 123.3951797485352 901.0889892578125 125.2099990844727 901.5657348632813 126.807243347168 902.4677734375 L 142.6947174072266 911.4279174804688 C 144.9860534667969 912.7210693359375 146.4089965820313 915.1563720703125 146.4089965820313 917.7839965820313 L 146.4089965820313 927.6640014648438 L 146.4089965820313 936.81298828125 C 146.4089965820313 938.065673828125 146.0836944580078 939.3046875 145.4682922363281 940.3960571289063 C 144.8530578613281 941.4871215820313 143.9613037109375 942.40673828125 142.8894348144531 943.0554809570313 L 126.9636001586914 952.6964111328125 C 125.2953186035156 953.7057495117188 123.3827362060547 954.239013671875 121.431999206543 954.239013671875 Z"/>
    </g>
    <path id="路径_2838" data-name="路径 2838" class="cls-2" d="M92.431,947.738H118.7a7.293,7.293,0,0,0,3.6-.945l14.424-8.209a3.618,3.618,0,0,0,1.878-3.13v-16.2a3.63,3.63,0,0,0-1.981-3.188l-14.391-7.63a7.3,7.3,0,0,0-3.417-.844H66.049a7.3,7.3,0,0,0-3.417.844l-14.391,7.63a3.63,3.63,0,0,0-1.981,3.188v16.2a3.619,3.619,0,0,0,1.877,3.13l14.425,8.209a7.293,7.293,0,0,0,3.6.945Z"/>
    <g id="组_1600" data-name="组 1600">
      <path id="路径_2839" data-name="路径 2839" class="cls-3" d="M57.743,926.692H73.465V929.1H57.743Z"/>
      <path id="路径_2840" data-name="路径 2840" class="cls-3" d="M84.337,933.145l-8.13-3.751v-1.318l8.13-3.964v2l-5.827,2.58v.049l5.827,2.4Z"/>
      <path id="路径_2841" data-name="路径 2841" class="cls-3" d="M92.035,922.5v9.025a5.645,5.645,0,0,0,.089,1.3.841.841,0,0,0,.375.459,1.762,1.762,0,0,0,.911.179h.253v.3H87.852v-.3h.293a2.264,2.264,0,0,0,1.009-.162.838.838,0,0,0,.407-.448,4.913,4.913,0,0,0,.106-1.326V925.8a3.653,3.653,0,0,0-.073-.956.694.694,0,0,0-.273-.326.807.807,0,0,0-.46-.134,2.623,2.623,0,0,0-1.009.26l-.146-.292,4.061-1.856Z"/>
      <path id="路径_2842" data-name="路径 2842" class="cls-3" d="M105.356,929.3l-8.13,3.752v-1.994l5.844-2.392v-.041l-5.844-2.588v-2l8.13,3.947Z"/>
      <path id="路径_2843" data-name="路径 2843" class="cls-3" d="M108.147,934.813l-.244-2.148q.929-.1,1.9-.236V928.4h-1.6v-1.986h1.6v-3.336h-1.676v-2.018h5.257v2.018h-1.563v3.336h1.432V928.4h-1.432v3.735q.839-.13,1.709-.284-.114,1.172-.146,2.1Zm7.763-14.566h1.954v8.008a10.4,10.4,0,0,1-2.979,7.844q-.83-.765-1.725-1.449a8.383,8.383,0,0,0,2.75-6.754Zm-2.49,9.374q.2-2.994.163-6.444h1.742q-.018,3.255-.147,6.607A17.13,17.13,0,0,0,113.42,929.621Zm4.167,3.6h2.246v-4.41H118.3v-1.986h1.53v-3.808H118.14V921h5.615v2.018h-1.774v3.808h1.595v1.986h-1.595v4.41h2.083v2.018h-6.477Z"/>
    </g>
  </g>
</svg>
