<svg xmlns="http://www.w3.org/2000/svg" width="101.956" height="47.151" viewBox="0 0 101.956 47.151">
  <defs>
    <style>
      .cls-1 {
        fill: #ccd9ff;
      }

      .cls-2 {
        fill: #8ca6fd;
      }

      .cls-3 {
        fill: #fff;
      }
    </style>
  </defs>
  <g id="组_1854" data-name="组 1854" transform="translate(102.382 368.953)">
    <path id="路径_3928" data-name="路径 3928" class="cls-1" d="M-51.4-321.8h29a7.68,7.68,0,0,0,3.977-1.11L-2.5-332.553a4.3,4.3,0,0,0,2.073-3.676v-19.029A4.3,4.3,0,0,0-2.613-359L-18.5-367.962a7.673,7.673,0,0,0-3.773-.991H-80.532a7.673,7.673,0,0,0-3.773.991L-100.194-359a4.3,4.3,0,0,0-2.188,3.743v19.029a4.3,4.3,0,0,0,2.073,3.676l15.927,9.641A7.677,7.677,0,0,0-80.4-321.8Z"/>
    <path id="路径_3929" data-name="路径 3929" class="cls-2" d="M-51.4-325.3h26.267a7.3,7.3,0,0,0,3.6-.945l14.424-8.209a3.617,3.617,0,0,0,1.877-3.13v-16.2a3.628,3.628,0,0,0-1.981-3.187l-14.39-7.631a7.305,7.305,0,0,0-3.418-.844H-77.786a7.3,7.3,0,0,0-3.417.844l-14.39,7.631a3.627,3.627,0,0,0-1.982,3.187v16.2a3.618,3.618,0,0,0,1.878,3.13l14.424,8.209a7.294,7.294,0,0,0,3.6.945Z"/>
    <path id="路径_4034" data-name="路径 4034" class="cls-3" d="M1,2.053V-12.76H15.489v14.8H13.155V1.022H3.333v1.03ZM13.139-5.37a16.916,16.916,0,0,0-.419,2.125h-1.9q-1.9,0-1.9-1.98v-5.362H7.326v3.252A5.364,5.364,0,0,1,4.991-2.568Q4.38-3.083,3.333-3.84v2.689h9.822v-9.435H11.045v4.46a.669.669,0,0,0,.757.757ZM5.2-7.511v-3.075H3.333v6.61A3.72,3.72,0,0,0,5.2-7.511Zm21.592,6.9L18.75-4.323v-1.3l8.043-3.921v1.98L21.028-5.016v.048l5.764,2.375Zm7.616-10.53v8.928A5.533,5.533,0,0,0,34.5-.93a.832.832,0,0,0,.37.455,1.752,1.752,0,0,0,.9.177h.25V0H30.27V-.3h.29a2.244,2.244,0,0,0,1-.161.826.826,0,0,0,.4-.443,4.9,4.9,0,0,0,.1-1.312v-5.66a3.571,3.571,0,0,0-.072-.946.684.684,0,0,0-.27-.322.8.8,0,0,0-.455-.133,2.583,2.583,0,0,0-1,.258l-.145-.29,4.017-1.836ZM47.587-4.42,39.545-.708V-2.681l5.78-2.367v-.04l-5.78-2.56v-1.98l8.043,3.9Zm10.442-8.952h1.932V-5.45a10.294,10.294,0,0,1-2.947,7.761q-.821-.757-1.707-1.433A8.293,8.293,0,0,0,58.029-5.8ZM59.687-.539h2.222V-4.9H60.4V-6.867h1.514v-3.768H60.235v-2H65.79v2H64.035v3.768h1.578V-4.9H64.035V-.539H66.1v2H59.687ZM50.349,1.039l-.242-2.125q.918-.1,1.884-.233V-5.305H50.413V-7.27h1.578v-3.3H50.333v-2h5.2v2H53.987v3.3H55.4v1.964H53.987v3.7q.829-.129,1.691-.282Q55.565-.733,55.533.185ZM55.565-4.1q.193-2.963.161-6.376h1.723q-.016,3.22-.145,6.537A16.367,16.367,0,0,0,55.565-4.1Z" transform="translate(-85.981 -339.506)"/>
  </g>
</svg>
