<svg xmlns="http://www.w3.org/2000/svg" width="107.635" height="221.061" viewBox="0 0 107.635 221.061">
  <defs>
    <style>
      .cls-1 {
        stroke-linejoin: round;
      }

      .cls-2, .cls-4 {
        fill: #fff;
      }

      .cls-2 {
        font-size: 43.304px;
        font-family: TimesNewRomanPS-BoldMT, Times New Roman;
        font-weight: 700;
      }

      .cls-3, .cls-4 {
        stroke: none;
      }
    </style>
  </defs>
  <g id="组_3799" data-name="组 3799" transform="translate(-604.417 -1337.679)">
    <g id="路径_10304" data-name="路径 10304" class="cls-1">
      <path class="cls-3" d="M 690.9940185546875 1553.739990234375 L 690.993896484375 1553.739990234375 L 690.9889526367188 1553.739990234375 C 689.35400390625 1553.739990234375 687.7310180664063 1553.339721679688 686.2955322265625 1552.582641601563 C 683.58251953125 1551.150268554688 681.6786499023438 1548.552124023438 681.1957397460938 1545.739501953125 C 680.9574584960938 1545.444091796875 680.7218627929688 1545.106689453125 680.497314453125 1544.719604492188 C 678.6942138671875 1542.244018554688 677.9344482421875 1538.548217773438 678.1114501953125 1533.16748046875 C 678.1865844726563 1530.883666992188 678.419921875 1528.70654296875 678.6368408203125 1527.088256835938 C 677.7643432617188 1525.780517578125 677.0675659179688 1524.370971679688 676.555908203125 1522.875854492188 C 675.8846435546875 1520.914184570313 675.5265502929688 1518.834228515625 675.4612426757813 1516.517211914063 C 675.408935546875 1514.662475585938 675.5546264648438 1512.820678710938 675.7943725585938 1511.034545898438 C 675.0777587890625 1511.160888671875 674.3289184570313 1511.2265625 673.563720703125 1511.2265625 C 670.69921875 1511.2265625 668.0364990234375 1510.263427734375 666.0660400390625 1508.5146484375 C 664.8442993164063 1507.43017578125 663.95703125 1506.072265625 663.4286499023438 1504.478271484375 C 663.055419921875 1503.352294921875 662.8723754882813 1502.1259765625 662.8845825195313 1500.833374023438 C 662.8983154296875 1499.37890625 663.15625 1498.147583007813 663.3404541015625 1497.448852539063 C 663.6453247070313 1495.380737304688 664.2625122070313 1493.445922851563 665.1844482421875 1491.661865234375 C 664.3173217773438 1490.045654296875 663.4835205078125 1488.035888671875 662.8599243164063 1485.584594726563 C 659.7959594726563 1484.909057617188 655.9536743164063 1483.702270507813 651.9442138671875 1481.822021484375 C 648.455078125 1480.185791015625 645.1923217773438 1478.206298828125 642.2466430664063 1475.938354492188 C 640.1964721679688 1474.359985351563 638.2942504882813 1472.636596679688 636.5573120117188 1470.78564453125 C 634.8570556640625 1471.959228515625 632.453857421875 1472.982543945313 629.0484008789063 1473.001831054688 L 629.0342407226563 1473.001953125 L 629.02001953125 1473.001953125 L 628.9669799804688 1473.001953125 C 624.6300659179688 1473.001953125 621.060546875 1471.073364257813 619.1736450195313 1467.7109375 C 618.1212768554688 1465.833129882813 617.6675415039063 1463.618408203125 617.8600463867188 1461.3037109375 C 617.8924560546875 1460.914428710938 617.9430541992188 1460.525268554688 618.0113525390625 1460.137451171875 C 617.8543701171875 1460.050903320313 617.6954956054688 1459.959838867188 617.5357055664063 1459.8642578125 C 615.107421875 1458.412353515625 613.4514770507813 1456.467529296875 612.746826171875 1454.240112304688 C 612.2487182617188 1452.668212890625 611.8369140625 1449.683959960938 614.1653442382813 1446.466674804688 C 613.4862060546875 1445.882934570313 612.852294921875 1445.229736328125 612.2774047851563 1444.51611328125 C 610.3289184570313 1442.097778320313 609.3156127929688 1439.3046875 609.4241333007813 1436.651611328125 C 609.4967651367188 1434.869140625 610.07421875 1433.1904296875 611.0941772460938 1431.797607421875 C 612.0474853515625 1430.495727539063 613.8732299804688 1428.803100585938 617.1572265625 1428.132934570313 C 619.0264892578125 1427.751831054688 620.6195068359375 1427.478759765625 621.949951171875 1427.283203125 C 622.429443359375 1422.914672851563 623.6246948242188 1416.14404296875 626.5929565429688 1408.503051757813 C 629.0831298828125 1402.092529296875 632.4151000976563 1396.10400390625 636.4963989257813 1390.703857421875 C 641.4607543945313 1384.13525390625 647.5687866210938 1378.398071289063 654.6528930664063 1373.649658203125 C 658.7327880859375 1370.699340820313 664.742919921875 1368.018432617188 672.519287109375 1365.680297851563 C 676.04150390625 1364.621215820313 679.3369140625 1363.814697265625 681.7632446289063 1363.271118164063 C 682.1102294921875 1361.127319335938 682.7107543945313 1358.461303710938 683.7490234375 1355.769775390625 C 686.3663940429688 1348.984619140625 690.8106689453125 1344.537353515625 696.601318359375 1342.908813476563 L 696.9300537109375 1342.816284179688 L 697.2682495117188 1342.769409179688 C 697.7023315429688 1342.709228515625 698.1342163085938 1342.6787109375 698.5518798828125 1342.6787109375 C 700.7642822265625 1342.6787109375 702.7810668945313 1343.548950195313 704.2305908203125 1345.129150390625 C 706.6127319335938 1347.725952148438 706.7998046875 1351.423828125 706.7332763671875 1353.979370117188 C 706.6832885742188 1355.90087890625 706.4283447265625 1358.209716796875 705.9595336914063 1360.966064453125 L 707.051025390625 1361.245971679688 L 707.051025390625 1534.258056640625 L 707.051025390625 1539.816040039063 L 702.6928100585938 1539.354125976563 C 702.9920043945313 1540.68505859375 703.0595703125 1542.082641601563 702.8737182617188 1543.43408203125 C 702.6541137695313 1545.031127929688 702.0970458984375 1546.536010742188 701.218017578125 1547.907104492188 C 700.278076171875 1549.373168945313 698.9864501953125 1550.652709960938 697.37890625 1551.710205078125 C 695.3311157226563 1553.05712890625 693.1829833984375 1553.739990234375 690.9940185546875 1553.739990234375 Z"/>
      <path class="cls-4" d="M 690.9891357421875 1548.739990234375 C 690.9907836914063 1548.739990234375 690.9923095703125 1548.739990234375 690.9940185546875 1548.739990234375 C 692.0120239257813 1548.739990234375 693.2459716796875 1548.443969726563 694.6309814453125 1547.532958984375 C 698.9829711914063 1544.670043945313 698.2009887695313 1540.56298828125 697.1799926757813 1538.791015625 C 696.573974609375 1537.737060546875 695.2739868164063 1537.261962890625 694.5549926757813 1537.072021484375 L 694.4710083007813 1532.557006835938 C 696.8599853515625 1533.421020507813 699.4089965820313 1533.97802734375 702.051025390625 1534.258056640625 L 702.051025390625 1361.245971679688 C 701.7310180664063 1361.828979492188 701.4349975585938 1362.389038085938 701.1619873046875 1362.906005859375 C 700.8259887695313 1363.537963867188 700.448974609375 1364.2509765625 700.1160278320313 1364.816040039063 C 702.1400146484375 1355.43896484375 702.2659912109375 1350.384033203125 700.5460205078125 1348.509033203125 C 700.0401000976563 1347.95751953125 699.3854370117188 1347.6787109375 698.5519409179688 1347.6787109375 C 698.3623046875 1347.6787109375 698.16357421875 1347.693115234375 697.9550170898438 1347.722045898438 C 687.8569946289063 1350.56201171875 686.489990234375 1364.572998046875 686.3159790039063 1367.427001953125 C 683.1900024414063 1368.02294921875 666.0910034179688 1371.5 657.5130004882813 1377.751953125 C 628.552001953125 1397.113037109375 626.7410278320313 1427.203002929688 626.6370239257813 1431.807983398438 C 625.510009765625 1431.862060546875 622.7769775390625 1432.089965820313 618.156982421875 1433.031982421875 C 615.0159912109375 1433.672973632813 614.4669799804688 1435.702026367188 614.4199829101563 1436.85595703125 C 614.2979736328125 1439.838012695313 617.1890258789063 1443.426025390625 620.4860229492188 1444.385009765625 C 621.8569946289063 1444.782958984375 622.7739868164063 1445.098022460938 623.385986328125 1445.339965820313 C 622.2429809570313 1445.717041015625 620.6259765625 1446.64404296875 618.6799926757813 1448.823974609375 C 617.5029907226563 1450.141967773438 617.1099853515625 1451.45703125 617.5139770507813 1452.732055664063 C 618.2880249023438 1455.178955078125 621.8150024414063 1456.510009765625 622.989990234375 1456.784057617188 C 623.2020874023438 1456.8330078125 623.4131469726563 1456.85302734375 623.6190795898438 1456.85302734375 C 624.0693969726563 1456.85302734375 624.4956665039063 1456.757446289063 624.8579711914063 1456.660034179688 C 624.7100219726563 1456.932983398438 624.4869995117188 1457.319946289063 624.1489868164063 1457.864990234375 C 622.6309814453125 1460.317993164063 622.3889770507813 1463.220947265625 623.5339965820313 1465.264038085938 C 624.5250244140625 1467.030029296875 626.4520263671875 1468.001953125 628.9669799804688 1468.001953125 L 629.02001953125 1468.001953125 C 632.8900146484375 1467.97998046875 634.5020141601563 1466.156005859375 635.6790161132813 1464.824951171875 C 636.2639770507813 1464.161987304688 636.655029296875 1463.741943359375 637.0969848632813 1463.634033203125 C 646.958984375 1477.036010742188 662.4869995117188 1480.797973632813 667.1019897460938 1481.224975585938 C 667.7509765625 1485.97900390625 669.3790283203125 1489.449951171875 671.1320190429688 1491.671997070313 C 669.7169799804688 1493.402954101563 668.6090087890625 1495.619995117188 668.2459716796875 1498.47705078125 C 668.1920166015625 1498.64501953125 666.9559936523438 1502.619018554688 669.385009765625 1504.775024414063 C 670.57958984375 1505.835205078125 672.1377563476563 1506.2265625 673.5637817382813 1506.2265625 C 675.0469360351563 1506.2265625 676.3871459960938 1505.803344726563 677.0269775390625 1505.26904296875 C 677.5369873046875 1504.843994140625 677.9829711914063 1503.631958007813 678.791015625 1501.348022460938 C 679.35498046875 1499.751953125 680.85400390625 1495.511962890625 681.5969848632813 1495.511962890625 L 681.5989990234375 1495.511962890625 C 681.9810180664063 1495.517944335938 682.2470092773438 1495.54296875 682.4400024414063 1495.607055664063 C 682.5859985351563 1495.800048828125 682.7329711914063 1495.993041992188 682.8930053710938 1496.192993164063 C 683.2020263671875 1497.4189453125 682.7750244140625 1500.381958007813 682.3410034179688 1502.946044921875 C 682.1530151367188 1504.06103515625 681.9249877929688 1505.204956054688 681.6950073242188 1506.363037109375 C 680.405029296875 1512.840942382813 678.9559936523438 1520.126953125 683.89599609375 1525.744018554688 C 683.5599975585938 1527.714965820313 681.864990234375 1538.594970703125 684.698974609375 1541.98095703125 C 685.0789794921875 1542.744995117188 685.4769897460938 1542.998046875 685.7429809570313 1543.16796875 C 685.9459838867188 1543.296997070313 686.0579833984375 1543.366943359375 686.0759887695313 1544.39599609375 C 686.1019897460938 1545.85498046875 687.1279907226563 1547.368041992188 688.6279907226563 1548.160034179688 C 689.1541748046875 1548.4375 689.9614868164063 1548.739990234375 690.9891357421875 1548.739990234375 M 690.9940185546875 1558.739990234375 C 690.993896484375 1558.739990234375 690.9937744140625 1558.739990234375 690.99365234375 1558.739990234375 C 688.5458984375 1558.739868164063 686.11474609375 1558.140014648438 683.9630737304688 1557.00537109375 C 680.287109375 1555.064331054688 677.5941162109375 1551.65869140625 676.5509643554688 1547.841918945313 C 676.5074462890625 1547.775512695313 676.4641723632813 1547.708129882813 676.4210815429688 1547.639526367188 C 674.8049926757813 1545.489013671875 672.0348510742188 1540.431274414063 673.4442749023438 1528.193603515625 C 671.20263671875 1524.157958984375 670.4705810546875 1519.942504882813 670.4548950195313 1515.948364257813 C 667.552734375 1515.42041015625 664.8871459960938 1514.153686523438 662.7469482421875 1512.254028320313 C 657.691650390625 1507.766967773438 657.2368774414063 1501.137817382813 658.442626953125 1496.40234375 C 658.7022705078125 1494.78271484375 659.115234375 1493.227172851563 659.6791381835938 1491.7412109375 C 659.399169921875 1491.08984375 659.1387939453125 1490.421875 658.8980712890625 1489.737670898438 C 652.0745239257813 1487.80322265625 643.2349243164063 1483.850341796875 635.6080932617188 1476.858520507813 C 633.7860107421875 1477.536010742188 631.6258544921875 1477.9873046875 629.0767822265625 1478.001831054688 C 622.8607177734375 1478.001953125 617.5696411132813 1475.069580078125 614.8132934570313 1470.157836914063 C 613.52685546875 1467.862426757813 612.8641967773438 1465.284790039063 612.8146362304688 1462.643920898438 C 610.6845092773438 1460.907470703125 608.888427734375 1458.620849609375 607.9796752929688 1455.748046875 C 607.0933227539063 1452.950805664063 607.1622924804688 1450.050903320313 608.1215209960938 1447.323120117188 C 605.6842651367188 1444.146850585938 604.271484375 1440.281127929688 604.4283447265625 1436.447143554688 C 604.6982421875 1429.820068359375 609.30224609375 1424.6328125 616.1575317382813 1423.23388671875 C 616.6138916015625 1423.140869140625 617.055419921875 1423.0537109375 617.4825439453125 1422.972045898438 C 619.593994140625 1409.849975585938 626.8901977539063 1386.195190429688 651.955322265625 1369.438598632813 C 658.885498046875 1364.38037109375 669.8895874023438 1361.005126953125 677.480712890625 1359.133666992188 C 679.715576171875 1349.865356445313 685.1746826171875 1340.928466796875 695.2476806640625 1338.095581054688 C 695.6852416992188 1337.972412109375 696.1306762695313 1337.87939453125 696.5809326171875 1337.81689453125 C 697.0362548828125 1337.753784179688 698.09228515625 1337.6787109375 698.5519409179688 1337.6787109375 C 702.1819458007813 1337.6787109375 705.5071411132813 1339.124267578125 707.9149780273438 1341.748901367188 C 711.4827880859375 1345.638305664063 712.2289428710938 1350.9462890625 711.459228515625 1357.854248046875 C 711.843505859375 1358.919555664063 712.051025390625 1360.0634765625 712.051025390625 1361.245971679688 L 712.051025390625 1534.258056640625 C 712.051025390625 1537.093627929688 710.84716796875 1539.796020507813 708.7390747070313 1541.692504882813 C 708.4869995117188 1541.919189453125 708.2249145507813 1542.1318359375 707.9539184570313 1542.330078125 C 707.8148193359375 1547.247192382813 705.4780883789063 1552.367065429688 700.1268310546875 1555.887329101563 C 697.2894287109375 1557.753662109375 694.1315307617188 1558.739990234375 690.9940185546875 1558.739990234375 Z"/>
    </g>
    <text id="_4" data-name="4" class="cls-2" transform="translate(658.218 1442.749)"><tspan x="0" y="0">4</tspan></text>
  </g>
</svg>
