<svg xmlns="http://www.w3.org/2000/svg" width="73.139" height="153.285" viewBox="0 0 73.139 153.285">
  <defs>
    <style>
      .cls-1 {
        fill: #fff;
        font-size: 43.304px;
        font-family: TimesNewRomanPS-BoldMT, Times New Roman;
        font-weight: 700;
      }
    </style>
  </defs>
  <g id="组_3795" data-name="组 3795" transform="translate(-1152.706 -1114.907)">
    <path id="路径_10300" data-name="路径 10300" d="M1218.509,1259.68c-.448-.455-.994-1.009-1.184-1.254a34.43,34.43,0,0,1,2.07-5.52,26.471,26.471,0,0,0,6.45,1.128V1116.288c-.075,0-.149-.005-.224-.005a61.164,61.164,0,0,0-38.3,13.04c-2.379-4.334-6.958-11.225-13.035-13.594a11.313,11.313,0,0,0-9.1.278c-11.848,5.385-12.662,19.1-12.462,24.75l.009.306c0,1.554,3.271,10.629,17.318,15.577a42.787,42.787,0,0,0-.9,8.656,44.044,44.044,0,0,0,8.257,25.491,35.607,35.607,0,0,0,7.635,9c.122.107.244.215.368.322.669.577,1.362,1.156,2.109,1.739.955.745,1.922,1.439,2.894,2.1.3.205.61.4.915.6.682.447,1.365.882,2.053,1.291.18.107.35.228.531.334l.21.122.034-.009a60.281,60.281,0,0,0,13.074,5.555,2.048,2.048,0,0,0-.684,1.03c-.05.171-.23.791-.472,1.738a83.637,83.637,0,0,0-10.635,1.646c-2.476.547-4.382-1.557-5.779-3.094a8.879,8.879,0,0,0-1.21-1.195c-.706-.505-2.176-1.557-3.393-.93-.878.452-1.3,1.616-1.3,3.56l.017.141c1.537,6.385,9.943,7.594,16.091,7.594,1.846,0,3.478-.109,4.67-.22-1.385,8.79-1.817,21.35,5.595,26.291.714.476,1.416.908,2.113,1.316-1.163,1.685-4.63,6.909-4.789,9.53-.066,1.1.6,2.421,1.976,3.939,2.085,2.3,5.862,4.928,7.8,5,.052,0,.1,0,.156,0a4.861,4.861,0,0,0,3.841-1.977,2.787,2.787,0,0,0,.516-2.583C1221.339,1262.554,1219.77,1260.961,1218.509,1259.68Z"/>
    <text id="_8" data-name="8" class="cls-1" transform="translate(1193.909 1181.003)"><tspan x="0" y="0">8</tspan></text>
  </g>
</svg>
