<svg xmlns="http://www.w3.org/2000/svg" width="95.96" height="178.471" viewBox="0 0 95.96 178.471">
  <defs>
    <style>
      .cls-1 {
        stroke-linejoin: round;
      }

      .cls-2, .cls-4 {
        fill: #fff;
      }

      .cls-2 {
        font-size: 43.305px;
        font-family: TimesNewRomanPS-BoldMT, Times New Roman;
        font-weight: 700;
      }

      .cls-3, .cls-4 {
        stroke: none;
      }
    </style>
  </defs>
  <g id="组_3820" data-name="组 3820" transform="translate(-330.887 -1356.267)">
    <g id="路径_10326" data-name="路径 10326" class="cls-1">
      <path class="cls-3" d="M 348.3619995117188 1529.738037109375 C 346.2045593261719 1529.738037109375 344.2201232910156 1528.937255859375 342.6225891113281 1527.421997070313 L 342.6225891113281 1527.421997070313 C 340.1390075683594 1525.069580078125 338.705078125 1521.107421875 338.1099853515625 1514.953002929688 C 337.9482727050781 1513.28076171875 337.8693542480469 1511.619018554688 337.8368225097656 1510.131469726563 L 335.8869934082031 1509.977294921875 L 335.8869934082031 1505.357055664063 L 335.8869934082031 1367.654052734375 L 335.8869934082031 1362.684326171875 L 340.8566284179688 1362.654174804688 C 340.9028625488281 1362.65380859375 340.9488220214844 1362.652099609375 340.994873046875 1362.650756835938 C 341.1126403808594 1362.647216796875 341.2592163085938 1362.642944335938 341.4289855957031 1362.642944335938 C 349.663330078125 1362.642944335938 357.6622924804688 1364.056274414063 365.2037048339844 1366.843627929688 C 368.8384094238281 1368.187133789063 372.3460998535156 1369.850708007813 375.62939453125 1371.788330078125 C 377.1383666992188 1372.678833007813 378.6061706542969 1373.630859375 380.0241088867188 1374.63818359375 C 380.8088989257813 1373.436401367188 381.69482421875 1372.188110351563 382.6768188476563 1370.962280273438 C 386.0262451171875 1366.781005859375 389.64990234375 1363.910522460938 393.4471435546875 1362.430419921875 C 395.4267578125 1361.65869140625 397.459716796875 1361.267333984375 399.4894104003906 1361.267333984375 C 401.834716796875 1361.267333984375 404.1688842773438 1361.787719726563 406.4269714355469 1362.814086914063 C 409.8893432617188 1364.387939453125 412.8430786132813 1366.654296875 415.2061462402344 1369.550048828125 C 417.1697387695313 1371.956420898438 418.7268676757813 1374.803344726563 419.8342895507813 1378.011962890625 C 421.6974182128906 1383.41015625 421.9421691894531 1388.746337890625 421.8184509277344 1392.277709960938 L 421.8110046386719 1392.53076171875 C 421.7813720703125 1394.145874023438 421.0949096679688 1395.921630859375 420.5169982910156 1397.138793945313 C 419.6209716796875 1399.02587890625 418.3253784179688 1400.955810546875 416.7702026367188 1402.7197265625 C 414.8193054199219 1404.932739257813 412.445556640625 1406.925903320313 409.7148742675781 1408.644287109375 C 407.5811767578125 1409.986938476563 405.224853515625 1411.16259765625 402.6756896972656 1412.158081054688 C 402.8202209472656 1413.663208007813 402.8930053710938 1415.166625976563 402.8930053710938 1416.656982421875 C 402.8930053710938 1422.336303710938 401.8876342773438 1427.936279296875 399.9048156738281 1433.30126953125 C 398.6322021484375 1436.744750976563 396.9690246582031 1440.060913085938 394.9383239746094 1443.209350585938 C 397.2210388183594 1442.125610351563 399.513427734375 1441.578369140625 401.7842102050781 1441.578369140625 C 405.64404296875 1441.578369140625 409.294189453125 1443.18798828125 412.3401184082031 1446.233032226563 C 413.5514831542969 1447.444458007813 414.3677978515625 1449.110961914063 414.6390686035156 1450.925903320313 C 414.9231262207031 1452.826538085938 414.6050720214844 1454.739379882813 413.7193298339844 1456.457885742188 C 412.9593200683594 1457.931518554688 411.7970275878906 1459.1826171875 410.3576049804688 1460.077026367188 C 408.6025695800781 1461.16748046875 406.4851684570313 1461.720336914063 404.0641784667969 1461.720336914063 C 403.0829467773438 1461.720336914063 402.0346374511719 1461.627807617188 400.947998046875 1461.445068359375 C 400.8613586425781 1461.449584960938 400.0686645507813 1461.522827148438 398.4497680664063 1462.691162109375 C 397.0733642578125 1463.684448242188 395.5046081542969 1465.18359375 393.9130554199219 1467.0263671875 C 390.6917419433594 1470.756103515625 388.3706970214844 1474.711059570313 387.8975524902344 1475.905395507813 C 386.3997802734375 1479.684936523438 384.2134094238281 1484.583740234375 380.5684204101563 1488.959350585938 C 378.7511291503906 1491.140991210938 376.6786499023438 1493.053344726563 374.4086608886719 1494.643432617188 C 372.5230102539063 1495.96435546875 370.4480895996094 1497.1005859375 368.2182312011719 1498.035034179688 C 367.5448303222656 1499.406005859375 366.7335815429688 1500.653930664063 365.7933654785156 1501.762939453125 C 364.1527709960938 1503.6982421875 362.1187438964844 1505.21826171875 359.7477111816406 1506.28076171875 C 358.9710388183594 1506.629272460938 358.2195739746094 1506.951538085938 357.4882507324219 1507.24951171875 C 357.9103393554688 1514.390991210938 358.0672302246094 1518.3466796875 357.6426086425781 1521.239501953125 C 357.279541015625 1523.712768554688 356.4136657714844 1525.5986328125 354.9955444335938 1527.005004882813 C 353.4431762695313 1528.54443359375 351.5451049804688 1529.175659179688 350.06494140625 1529.553588867188 L 349.747802734375 1529.634521484375 L 349.4227905273438 1529.673461914063 C 349.0652770996094 1529.71630859375 348.7083740234375 1529.738037109375 348.3619995117188 1529.738037109375 Z M 369.4489135742188 1475.815673828125 C 369.4574584960938 1475.854125976563 369.4658508300781 1475.89208984375 369.4740295410156 1475.929443359375 C 369.5269775390625 1476.171508789063 369.5801086425781 1476.422485351563 369.6329956054688 1476.681884765625 C 369.8299865722656 1476.357055664063 370.0303649902344 1476.02001953125 370.2343444824219 1475.669921875 C 369.9783630371094 1475.71826171875 369.7161560058594 1475.766845703125 369.4489135742188 1475.815673828125 Z"/>
      <path class="cls-4" d="M 399.4894104003906 1366.267333984375 C 398.0801391601563 1366.267211914063 396.668701171875 1366.541015625 395.2630004882813 1367.088989257813 C 388.4490051269531 1369.744995117188 383.5199890136719 1378.083984375 381.4630126953125 1382.130004882813 C 371.2279968261719 1373.18896484375 357.06201171875 1367.642944335938 341.4289855957031 1367.642944335938 C 341.2470092773438 1367.642944335938 341.0679931640625 1367.652954101563 340.8869934082031 1367.654052734375 L 340.8869934082031 1505.357055664063 C 341.5570068359375 1505.410034179688 342.2200012207031 1505.441040039063 342.8739929199219 1505.441040039063 C 342.7529907226563 1508.427978515625 342.5 1520.4189453125 346.0610046386719 1523.7919921875 C 346.7200012207031 1524.41796875 347.4760131835938 1524.738037109375 348.3619995117188 1524.738037109375 C 348.5130004882813 1524.738037109375 348.6690063476563 1524.72802734375 348.8280029296875 1524.708984375 C 353.4649963378906 1523.525024414063 353.3559875488281 1521.660034179688 352.2739868164063 1503.842041015625 C 354.1340026855469 1503.239013671875 355.9400024414063 1502.509033203125 357.7030029296875 1501.718017578125 C 361.2510070800781 1500.128051757813 363.31201171875 1497.336059570313 364.4429931640625 1494.128051757813 C 375.3880004882813 1490.328979492188 379.9859924316406 1482.297973632813 383.2489929199219 1474.06396484375 C 384.82958984375 1470.073974609375 394.1136474609375 1456.446166992188 400.9532165527344 1456.44482421875 C 401.2276306152344 1456.444702148438 401.4971008300781 1456.466674804688 401.7630004882813 1456.511962890625 C 402.6194763183594 1456.656616210938 403.3832397460938 1456.720336914063 404.0641784667969 1456.720336914063 C 407.3935546875 1456.720336914063 408.7436828613281 1455.197265625 409.2749938964844 1454.1669921875 C 410.1430053710938 1452.483032226563 409.6809997558594 1450.64501953125 408.8049926757813 1449.76904296875 C 406.6789855957031 1447.6435546875 404.3124084472656 1446.578369140625 401.7842102050781 1446.578369140625 C 399.5616455078125 1446.578369140625 397.2141723632813 1447.401489257813 394.7950134277344 1449.051025390625 C 389.9509887695313 1452.35400390625 384.0459899902344 1461.625 380.5299987792969 1467.557006835938 C 377.1610717773438 1464.840698242188 371.5779724121094 1464.217407226563 367.1653747558594 1464.217407226563 C 364.2627868652344 1464.217407226563 361.8669128417969 1464.486938476563 360.9400024414063 1464.608032226563 C 360.8269958496094 1464.323974609375 360.7200012207031 1464.077026367188 360.6170043945313 1463.85302734375 C 366.0830078125 1462.447021484375 370.635986328125 1460.336059570313 374.4089965820313 1457.926025390625 L 374.4349975585938 1457.927978515625 L 374.6059875488281 1457.817993164063 C 374.9200134277344 1457.615966796875 375.2239990234375 1457.399047851563 375.5320129394531 1457.18896484375 L 375.5509948730469 1457.176025390625 C 380.1289978027344 1454.06298828125 384.1210021972656 1450.094970703125 387.1270141601563 1445.6240234375 L 387.239013671875 1445.45703125 L 387.2359924316406 1445.4169921875 C 387.4140014648438 1445.151977539063 387.5849914550781 1444.891967773438 387.7479858398438 1444.636962890625 C 394.1329956054688 1436.697021484375 397.8930053710938 1427.052978515625 397.8930053710938 1416.656982421875 C 397.8930053710938 1413.968994140625 397.6319885253906 1411.3330078125 397.1499938964844 1408.761962890625 L 397.2789916992188 1408.723999023438 C 413.2099914550781 1403.996948242188 416.81201171875 1394.056030273438 416.81201171875 1392.422973632813 L 416.8210144042969 1392.116943359375 C 417.02099609375 1386.468994140625 416.2070007324219 1372.751953125 404.3580017089844 1367.365966796875 C 402.7472839355469 1366.6337890625 401.1198120117188 1366.267333984375 399.4894104003906 1366.267333984375 M 365.5180053710938 1489.001953125 C 365.9460144042969 1484.410034179688 365.1990051269531 1479.784057617188 364.5899963378906 1477 C 364.322998046875 1475.781982421875 363.8190002441406 1473.818969726563 363.2330017089844 1471.740966796875 C 365.8349914550781 1471.410034179688 369.5690002441406 1470.741943359375 371.6050109863281 1470.2919921875 C 371.877685546875 1470.23193359375 372.1435852050781 1470.2041015625 372.4025268554688 1470.2041015625 C 374.4123229980469 1470.2041015625 376.010986328125 1471.882202148438 377.2369995117188 1473.22705078125 C 377.1650085449219 1473.364013671875 377.0809936523438 1473.529052734375 376.9660034179688 1473.754028320313 C 372.3049926757813 1482.878051757813 368.4849853515625 1487.18896484375 365.5180053710938 1489.001953125 M 399.4891662597656 1356.267333984375 C 399.4892883300781 1356.267333984375 399.4893798828125 1356.267333984375 399.4895324707031 1356.267333984375 C 402.5536804199219 1356.267333984375 405.5839233398438 1356.938598632813 408.4960021972656 1358.262329101563 C 420.5314636230469 1363.733032226563 427.3795471191406 1376.521240234375 426.8147583007813 1392.470825195313 C 426.8124084472656 1398.362548828125 421.5270385742188 1408.82861328125 407.8763122558594 1415.3525390625 C 407.8874206542969 1415.7880859375 407.8930053710938 1416.22314453125 407.8930053710938 1416.656982421875 C 407.8930053710938 1423.574584960938 406.5540161132813 1430.33154296875 403.957275390625 1436.70263671875 C 408.3486633300781 1437.209228515625 412.4330749511719 1439.255859375 415.8751525878906 1442.697143554688 C 419.9792785644531 1446.800903320313 420.9200439453125 1453.4013671875 418.16357421875 1458.748779296875 C 415.5892028808594 1463.740844726563 410.3187255859375 1466.720336914063 404.0641784667969 1466.720336914063 C 403.2957153320313 1466.720336914063 402.4656372070313 1466.677978515625 401.5696716308594 1466.578735351563 C 398.7953186035156 1468.356201171875 393.7286987304688 1474.977783203125 392.5337829589844 1477.777099609375 C 389.2160949707031 1486.14990234375 383.8723449707031 1496.21435546875 371.8010864257813 1501.914184570313 C 369.6017150878906 1505.620361328125 366.504150390625 1508.515625 362.6586303710938 1510.433837890625 C 363.2885437011719 1524.299560546875 362.20068359375 1531.615356445313 351.3019409179688 1534.398071289063 C 350.8790893554688 1534.506103515625 350.4496459960938 1534.586303710938 350.0163269042969 1534.63818359375 C 349.6219787597656 1534.685302734375 348.7591857910156 1534.738037109375 348.3619995117188 1534.738037109375 C 344.9459228515625 1534.738037109375 341.6828918457031 1533.425537109375 339.1739807128906 1531.04248046875 C 337.6378784179688 1529.58740234375 333.31005859375 1525.488525390625 332.8450622558594 1511.301147460938 C 331.61181640625 1509.634643554688 330.8869934082031 1507.5751953125 330.8869934082031 1505.357055664063 L 330.8869934082031 1367.654052734375 C 330.8869934082031 1362.154663085938 335.3275756835938 1357.687255859375 340.8268737792969 1357.654174804688 C 340.8434753417969 1357.654174804688 340.861083984375 1357.654174804688 340.877685546875 1357.654174804688 C 354.8148193359375 1357.654052734375 367.8122253417969 1361.214599609375 378.7599487304688 1367.82666015625 C 382.1251220703125 1363.6259765625 386.3898315429688 1359.814819335938 391.6313171386719 1357.771728515625 C 394.1919555664063 1356.773559570313 396.8358764648438 1356.267333984375 399.4891662597656 1356.267333984375 Z"/>
    </g>
    <text id="_2" data-name="2" class="cls-2" transform="translate(352.538 1429.745)"><tspan x="0" y="0">2</tspan></text>
  </g>
</svg>
