<svg xmlns="http://www.w3.org/2000/svg" width="52.998" height="216.043" viewBox="0 0 52.998 216.043">
  <defs>
    <style>
      .cls-1 {
        fill: #fff;
        font-size: 43.305px;
        font-family: TimesNewRomanPS-BoldMT, Times New Roman;
        font-weight: 700;
      }
    </style>
  </defs>
  <g id="组_3801" data-name="组 3801" transform="translate(-207.112 -1072.268)">
    <path id="路径_10306" data-name="路径 10306" d="M260.11,1276.422V1154.56a68.453,68.453,0,0,0-7.142.384l-1.621-49.887c0-1.34-.218-32.789-19.4-32.789h-.006a11.8,11.8,0,0,0-8.269,5.4c-13.192,19.263,1.551,82.659,2.185,85.347l.112.234a7.475,7.475,0,0,0,.584.627c-11.858,7.542-19.438,18.984-19.438,31.775a32.233,32.233,0,0,0,1.1,8.335l.071.261c.025.089.061.175.086.264q.319,1.122.719,2.219c.087.244.174.488.268.731.3.782.627,1.557.988,2.319.145.307.31.606.463.91.234.459.475.916.729,1.367.229.408.463.812.709,1.213.189.308.392.611.591.915q.783,1.2,1.668,2.359c.146.19.289.382.438.57.39.492.791.979,1.208,1.458.055.064.114.125.169.189q1.248,1.417,2.655,2.755c.133.127.265.255.4.381.488.455.986.9,1.5,1.343.059.051.121.1.18.149.59.5,1.173,1,1.8,1.48l.291.224.035-.017a56.4,56.4,0,0,0,16.84,8.584l-1.075,2.215c-1.678.369-9.514,2.508-10.522,10.459-.046.143-1.092,3.511.977,5.349a5.732,5.732,0,0,0,6.5.414c.445-.371.819-1.389,1.5-3.307.531-1.5,1.634-4.619,2.243-4.794.472.007.732.037.845.173.561.675-.082,4.47-.324,5.9-.157.928-.347,1.88-.538,2.844-1.076,5.4-2.281,11.475,1.824,16.18-.336,1.954-1.676,10.7.691,13.547a2.278,2.278,0,0,0,.9,1.018c.134.086.217.138.231.94a3.942,3.942,0,0,0,2.179,3.221,4.326,4.326,0,0,0,2.017.495,5.563,5.563,0,0,0,3.082-1.022c3.686-2.424,3.021-5.909,2.155-7.413a3.584,3.584,0,0,0-2.175-1.461l-.065-3.541a27.8,27.8,0,0,0,9.312,1.562C259.879,1276.436,260,1276.423,260.11,1276.422Z"/>
    <text id="_1" data-name="1" class="cls-1" transform="translate(233.349 1210.313)"><tspan x="0" y="0">1</tspan></text>
  </g>
</svg>
