<svg xmlns="http://www.w3.org/2000/svg" width="114.046" height="197.01" viewBox="0 0 114.046 197.01">
  <defs>
    <style>
      .cls-1 {
        stroke-linejoin: round;
      }

      .cls-2, .cls-4 {
        fill: #fff;
      }

      .cls-2 {
        font-size: 51.966px;
        font-family: TimesNewRomanPS-BoldMT, Times New Roman;
        font-weight: 700;
      }

      .cls-3, .cls-4 {
        stroke: none;
      }
    </style>
  </defs>
  <g id="组_3817" data-name="组 3817" transform="translate(-740.098 -1346.997)">
    <g id="路径_10323" data-name="路径 10323" class="cls-1">
      <path class="cls-3" d="M 763.2080078125 1539.006958007813 C 761.406005859375 1539.006958007813 758.7322387695313 1538.8603515625 756.2279052734375 1538.162109375 C 751.5613403320313 1536.861083984375 749.94580078125 1534.234741210938 749.4122314453125 1532.260620117188 C 749.2412109375 1531.629028320313 749.0494384765625 1530.697875976563 748.9005126953125 1528.917114257813 L 745.0980224609375 1528.597900390625 L 745.0980224609375 1524 L 745.0980224609375 1372.97802734375 L 745.0980224609375 1368.421997070313 L 749.6343994140625 1367.99951171875 C 750.221435546875 1367.944946289063 750.8212890625 1367.917236328125 751.4172973632813 1367.917236328125 C 752.5542602539063 1367.917236328125 753.7341918945313 1368.018310546875 754.9244995117188 1368.217895507813 L 756.0098876953125 1368.400024414063 L 763.5346069335938 1369.663452148438 L 759.3726806640625 1376.058349609375 L 758.7888793945313 1376.955444335938 C 758.7347412109375 1377.042846679688 758.2479248046875 1377.841430664063 757.86083984375 1378.868286132813 C 757.7483520507813 1379.166748046875 757.6636962890625 1379.432983398438 757.6005859375 1379.667114257813 C 760.0059204101563 1379.888305664063 763.0523071289063 1380.417846679688 766.4393920898438 1381.368408203125 C 767.3667602539063 1378.496704101563 768.6028442382813 1375.729125976563 770.136474609375 1373.096557617188 C 772.58203125 1368.898681640625 775.7054443359375 1365.174682617188 779.4200439453125 1362.028076171875 C 783.1642456054688 1358.8564453125 787.3811645507813 1356.38037109375 791.9537353515625 1354.668823242188 C 796.6904296875 1352.895874023438 801.6736450195313 1351.996948242188 806.7650146484375 1351.996948242188 C 830.1328735351563 1351.996948242188 849.1439819335938 1371.008056640625 849.1439819335938 1394.3759765625 C 849.1439819335938 1417.559326171875 830.4312133789063 1436.454345703125 807.3163452148438 1436.75048828125 C 806.9561157226563 1439.103759765625 806.8400268554688 1442.029418945313 807.9279174804688 1444.75146484375 C 808.4028930664063 1445.939819335938 808.8365478515625 1447.121704101563 809.2254638671875 1448.287475585938 L 809.375732421875 1448.320190429688 L 810.1622314453125 1451.269775390625 L 810.2742309570313 1451.689819335938 C 814.3165283203125 1466.855102539063 809.763916015625 1479.008056640625 797.4567260742188 1485.911010742188 C 797.4179077148438 1485.932861328125 797.3787231445313 1485.954467773438 797.33935546875 1485.975708007813 L 797.338134765625 1485.976318359375 C 796.8363647460938 1486.255004882813 796.3252563476563 1486.523681640625 795.8189697265625 1486.775146484375 C 795.4854736328125 1486.941772460938 795.2003784179688 1487.079956054688 794.9236450195313 1487.209106445313 L 794.9237060546875 1487.209106445313 C 794.7592163085938 1487.286254882813 794.5891723632813 1487.3642578125 794.4181518554688 1487.441284179688 L 794.4181518554688 1487.441284179688 C 793.8860473632813 1487.681396484375 793.4031372070313 1487.889404296875 792.941650390625 1488.077270507813 L 792.9390258789063 1488.078369140625 L 792.9363403320313 1488.079345703125 C 789.3502197265625 1489.534057617188 785.1480712890625 1490.793579101563 780.3870239257813 1491.843017578125 C 786.3925170898438 1502.46337890625 786.7656860351563 1503.961791992188 786.9595947265625 1504.739990234375 C 787.4390869140625 1506.66650390625 787.1535034179688 1508.680053710938 786.1340942382813 1510.564208984375 C 786.1244506835938 1510.58203125 786.11474609375 1510.599853515625 786.1050415039063 1510.617553710938 C 788.367431640625 1512.045532226563 790.2258911132813 1514.127319335938 791.4058837890625 1516.615844726563 C 793.7241821289063 1521.516235351563 793.4776000976563 1524.855590820313 793.3468627929688 1525.762451171875 L 793.2289428710938 1526.589599609375 L 792.4029541015625 1532.384765625 L 786.8082275390625 1530.662841796875 L 786.0022583007813 1530.414794921875 L 785.9979858398438 1530.413452148438 L 785.99365234375 1530.412109375 C 785.3880615234375 1530.224487304688 784.4483032226563 1529.829833984375 783.4105224609375 1529.0146484375 C 782.16162109375 1528.033569335938 781.1385498046875 1526.734741210938 780.3696899414063 1525.154052734375 C 780.1334838867188 1524.669067382813 779.9212036132813 1524.313598632813 779.7462768554688 1524.057250976563 C 777.8955688476563 1525.23193359375 775.8584594726563 1525.918212890625 773.7865600585938 1526.067504882813 C 773.9168090820313 1526.397705078125 774.032470703125 1526.7275390625 774.1334838867188 1527.057006835938 C 774.8027954101563 1529.240112304688 774.8027954101563 1531.389892578125 774.1334838867188 1533.273803710938 C 773.18505859375 1535.947021484375 770.9871215820313 1537.869873046875 768.1038818359375 1538.547485351563 C 766.3953857421875 1538.947387695313 764.3033447265625 1539.006958007813 763.2080078125 1539.006958007813 Z"/>
      <path class="cls-4" d="M 806.7650146484375 1356.996948242188 C 788.3980102539063 1356.996948242188 773.093017578125 1370.317993164063 769.9769897460938 1387.803955078125 C 763.6429443359375 1385.372436523438 758.0134887695313 1384.542114257813 755.1173095703125 1384.542114257813 C 754.762939453125 1384.542114257813 754.4498291015625 1384.554565429688 754.1810302734375 1384.578002929688 C 750.0440063476563 1381.326049804688 754.5349731445313 1374.324951171875 754.5819702148438 1374.253051757813 L 755.1820068359375 1373.3310546875 L 754.0980224609375 1373.149047851563 C 753.1312866210938 1372.987060546875 752.2424926757813 1372.917236328125 751.4173583984375 1372.917236328125 C 750.958740234375 1372.917236328125 750.5198974609375 1372.938720703125 750.0980224609375 1372.97802734375 L 750.0980224609375 1524 C 751.1099853515625 1524.0849609375 752.1119995117188 1524.139038085938 753.0809936523438 1524.139038085938 C 753.2839965820313 1524.139038085938 753.4810180664063 1524.130981445313 753.6810302734375 1524.126953125 C 753.7369995117188 1526.738037109375 753.8829956054688 1529.640991210938 754.239013671875 1530.9560546875 C 754.8619995117188 1533.260986328125 759.510986328125 1534.006958007813 763.2080078125 1534.006958007813 C 764.7410278320313 1534.006958007813 766.1099853515625 1533.879028320313 766.9600219726563 1533.680053710938 C 768.1900024414063 1533.390991210938 769.0419921875 1532.671020507813 769.4219970703125 1531.599975585938 C 770.0479736328125 1529.838012695313 769.2979736328125 1527.391967773438 767.364990234375 1524.890014648438 C 764.9539794921875 1521.77099609375 765.9249877929688 1519.494995117188 765.97998046875 1519.3740234375 L 766.1389770507813 1519.04296875 C 766.489013671875 1518.77294921875 766.8099975585938 1518.496948242188 767.10400390625 1518.223999023438 C 767.7119750976563 1519.068969726563 768.7880249023438 1519.97705078125 770.1599731445313 1520.5419921875 C 771.0654907226563 1520.9140625 771.9966430664063 1521.098388671875 772.9266357421875 1521.098388671875 C 774.433837890625 1521.098388671875 775.938720703125 1520.614624023438 777.3319702148438 1519.661010742188 C 778.2911376953125 1519.0029296875 779.2102661132813 1518.671997070313 780.0679931640625 1518.671997070313 C 780.3495483398438 1518.671997070313 780.6243896484375 1518.707641601563 780.8920288085938 1518.779052734375 C 781.9039916992188 1519.046020507813 783.416015625 1519.989990234375 784.8660278320313 1522.967041015625 C 785.9030151367188 1525.098999023438 787.3150024414063 1525.587036132813 787.4730224609375 1525.635986328125 L 788.2789916992188 1525.884033203125 L 788.3980102539063 1525.048950195313 C 788.4119873046875 1524.952026367188 788.7169799804688 1522.6240234375 786.8880004882813 1518.758056640625 C 785.8049926757813 1516.473999023438 783.864013671875 1514.723022460938 781.56201171875 1513.953002929688 C 780.7113647460938 1513.669067382813 779.83935546875 1513.527709960938 778.9611206054688 1513.527709960938 C 777.54736328125 1513.527709960938 776.1168212890625 1513.893798828125 774.72900390625 1514.620971679688 C 773.9675903320313 1515.020874023438 773.2763061523438 1515.222534179688 772.661865234375 1515.222534179688 C 772.2974243164063 1515.222534179688 771.9600219726563 1515.151611328125 771.6510009765625 1515.009033203125 C 770.3629760742188 1514.416015625 769.8330078125 1512.744995117188 769.7219848632813 1512.343994140625 C 769.968994140625 1509.336059570313 769.9130249023438 1503.68603515625 769.8300170898438 1499.72998046875 C 771.5709838867188 1504.233032226563 774.1389770507813 1510.243041992188 775.7119750976563 1511.017944335938 C 776.080322265625 1511.199829101563 776.5011596679688 1511.288208007813 776.9511108398438 1511.288208007813 C 777.9732666015625 1511.288208007813 779.1463012695313 1510.832641601563 780.2009887695313 1509.982055664063 C 781.3720092773438 1509.036010742188 782.489013671875 1507.47998046875 782.1079711914063 1505.948974609375 C 781.6290283203125 1504.026977539063 775.0819702148438 1492.595947265625 772.56201171875 1488.238037109375 C 779.635986328125 1487.097045898438 786.0180053710938 1485.489990234375 791.0570068359375 1483.446044921875 C 791.4920043945313 1483.26904296875 791.927001953125 1483.079956054688 792.3610229492188 1482.884033203125 C 792.510009765625 1482.817016601563 792.656005859375 1482.75 792.801025390625 1482.682006835938 C 793.0670166015625 1482.557983398438 793.3309936523438 1482.428955078125 793.594970703125 1482.296997070313 C 794.0479736328125 1482.072021484375 794.4860229492188 1481.840942382813 794.9110107421875 1481.60498046875 C 794.9409790039063 1481.588012695313 794.9719848632813 1481.572021484375 795.0020141601563 1481.555053710938 C 807.8660278320313 1474.345947265625 807.9149780273438 1462.251953125 805.4429931640625 1452.97802734375 L 805.3309936523438 1452.557983398438 L 805.2990112304688 1452.551025390625 C 804.7839965820313 1450.673950195313 804.1199951171875 1448.696044921875 803.2849731445313 1446.607055664063 C 801.0919799804688 1441.119995117188 802.4000244140625 1435.442016601563 803.0269775390625 1432.713012695313 C 803.1339721679688 1432.248046875 803.219970703125 1431.873046875 803.2650146484375 1431.60498046875 L 803.2680053710938 1431.5849609375 C 804.4199829101563 1431.692993164063 805.5850219726563 1431.754028320313 806.7650146484375 1431.754028320313 C 827.375 1431.754028320313 844.1439819335938 1414.987060546875 844.1439819335938 1394.3759765625 C 844.1439819335938 1373.765014648438 827.375 1356.996948242188 806.7650146484375 1356.996948242188 M 806.7650146484375 1346.996948242188 C 832.889892578125 1346.996948242188 854.1439819335938 1368.251098632813 854.1439819335938 1394.3759765625 C 854.1439819335938 1418.668212890625 835.7646484375 1438.749267578125 812.1820678710938 1441.4462890625 C 812.2619018554688 1441.94873046875 812.3873291015625 1442.436645507813 812.57080078125 1442.895874023438 C 813.440185546875 1445.07080078125 814.1503295898438 1447.14501953125 814.7227172851563 1449.12451171875 C 814.8252563476563 1449.404296875 814.915771484375 1449.690307617188 814.993408203125 1449.981567382813 C 819.7260131835938 1467.736206054688 814.180419921875 1482.2705078125 799.8907470703125 1490.278564453125 L 798.0428466796875 1491.253295898438 C 797.9692993164063 1491.289794921875 797.1014404296875 1491.71044921875 797.027099609375 1491.7451171875 L 794.8258666992188 1492.708618164063 C 792.705810546875 1493.568603515625 790.3963012695313 1494.362548828125 787.9065551757813 1495.088134765625 C 791.2435302734375 1501.253173828125 791.5594482421875 1502.520751953125 791.8112182617188 1503.531127929688 C 792.2548828125 1505.3134765625 792.2940063476563 1507.139038085938 791.9627685546875 1508.916748046875 C 793.5822143554688 1510.503784179688 794.9322509765625 1512.382690429688 795.9237060546875 1514.473754882813 C 798.7628173828125 1520.474731445313 798.5279541015625 1524.867797851563 798.2952880859375 1526.478393554688 C 797.8776245117188 1529.370361328125 796.1564331054688 1532.3525390625 793.6876220703125 1533.91552734375 C 791.9026489257813 1535.045654296875 789.7935180664063 1535.788696289063 787.7066040039063 1535.788696289063 C 786.9071655273438 1535.788696289063 786.1112060546875 1535.6796875 785.337646484375 1535.441650390625 C 783.7894287109375 1534.963012695313 781.5946655273438 1534.094848632813 779.51220703125 1532.236450195313 C 779.3818969726563 1533.15576171875 779.1598510742188 1534.061279296875 778.844970703125 1534.947631835938 C 777.3175048828125 1539.2529296875 773.8189697265625 1542.340576171875 769.2478637695313 1543.414794921875 C 767.155517578125 1543.904541015625 764.809326171875 1544.006958007813 763.2080078125 1544.006958007813 C 749.4602661132813 1544.006958007813 745.639404296875 1537.46484375 744.5853881835938 1533.565185546875 C 744.4781494140625 1533.1689453125 744.3687744140625 1532.70849609375 744.264404296875 1532.123168945313 C 741.7304077148438 1530.30078125 740.0980224609375 1527.328002929688 740.0980224609375 1524 L 740.0980224609375 1372.97802734375 C 740.0980224609375 1367.814575195313 744.029296875 1363.5 749.1705322265625 1363.021118164063 C 749.8890380859375 1362.954223632813 750.6363525390625 1362.917236328125 751.4173583984375 1362.917236328125 C 752.7511596679688 1362.917236328125 754.1883544921875 1363.024658203125 755.7510375976563 1363.28662109375 L 756.8378295898438 1363.469116210938 C 760.162841796875 1364.02734375 762.9826049804688 1366.223510742188 764.338134765625 1369.310546875 C 764.6985473632813 1370.13134765625 764.9425659179688 1370.98583984375 765.072021484375 1371.850952148438 C 773.149169921875 1356.869873046875 788.9427490234375 1346.996948242188 806.7650146484375 1346.996948242188 Z"/>
    </g>
    <text id="_5" data-name="5" class="cls-2" transform="translate(762.991 1455.909)"><tspan x="0" y="0">5</tspan></text>
  </g>
</svg>
