<svg xmlns="http://www.w3.org/2000/svg" width="115.12" height="179.858" viewBox="0 0 115.12 179.858">
  <defs>
    <style>
      .cls-1 {
        fill: #fff;
        font-size: 43.305px;
        font-family: TimesNewRomanPS-BoldMT, Times New Roman;
        font-weight: 700;
      }
    </style>
  </defs>
  <g id="组_3810" data-name="组 3810" transform="translate(-456.107 -1103.083)">
    <path id="路径_10316" data-name="路径 10316" d="M570.813,1274.038c.138,0,.276-.008.414-.01V1105.81c-.2,0-.389-.013-.585-.013a52.042,52.042,0,0,0-32.721,11.667,23.962,23.962,0,0,0-12.806-12.7c-7.817-3.131-17.416-1.885-28.531,3.7-31.328,15.741-36.212,35.767-39.778,50.39l-.212.864c-3.481,14.226,12.307,38.862,27.673,49.051,7.627,5.058,19.866,8.841,30.5,8.841a32.434,32.434,0,0,0,10.221-1.5,1.886,1.886,0,0,0,.053.346,2.194,2.194,0,0,0-1.474,2.415,5.773,5.773,0,0,0,.42,1.388,1.742,1.742,0,0,0-.925.543,1.3,1.3,0,0,0-.243,1.086c.135.949.437,3.066,3.218,3.066.1,0,.229-.016.342-.022a3.271,3.271,0,0,0,1,1.01c2.331,1.615,8.814,3.463,16.251,1.547.4-.074.506.06.558.124.729.9-.083,4.925-1.849,9.162-1,2.412-5.716,14.8.186,21.763.769,1.307,2.462,2.554,4.815,3.668-.112,3.59-.276,13.22,1.048,15.792a7.479,7.479,0,0,0-1.205,1.961,1.189,1.189,0,0,0,.45,1.187,3.918,3.918,0,0,0,3.049,1.095,2.023,2.023,0,0,0,.639-.37c.012.045.024.088.036.134l.09.328.328.092a16,16,0,0,0,3.864.512,10.548,10.548,0,0,0,1.31-.078,2.567,2.567,0,0,0,1.636-.761,2.693,2.693,0,0,0,1.053.287,11.013,11.013,0,0,0,6.311-1.847c.676-.689.051-2.489-.593-3.879l-.146-.316c.143-.874.268-1.841.364-2.84A24.649,24.649,0,0,0,570.813,1274.038Zm-27.691-60.591c-.708.244-4.2,1.107-10.109-2.773a13.419,13.419,0,0,0,1.96-3.811c.212.2.429.386.644.579s.431.394.651.585c.488.425.985.834,1.486,1.24.212.172.423.345.637.514s.41.339.621.5l.418.319.02-.02q1.9,1.418,3.909,2.664A1.791,1.791,0,0,0,543.122,1213.447Z"/>
    <text id="_3" data-name="3" class="cls-1" transform="translate(519.21 1175.324)"><tspan x="0" y="0">3</tspan></text>
  </g>
</svg>
