<svg xmlns="http://www.w3.org/2000/svg" width="101.942" height="167.54" viewBox="0 0 101.942 167.54">
  <defs>
    <style>
      .cls-1 {
        stroke-linejoin: round;
      }

      .cls-2, .cls-3 {
        isolation: isolate;
      }

      .cls-3, .cls-5 {
        fill: #fff;
      }

      .cls-3 {
        font-size: 43.305px;
        font-family: TimesNewRomanPS-BoldMT, Times New Roman;
        font-weight: 700;
      }

      .cls-4, .cls-5 {
        stroke: none;
      }
    </style>
  </defs>
  <g id="组_3788" data-name="组 3788" transform="translate(-275.933 -1551.07)">
    <g id="路径_10293" data-name="路径 10293" class="cls-1">
      <path class="cls-4" d="M 357.3908081054688 1713.612182617188 C 356.1206359863281 1713.612182617188 354.8435668945313 1713.490112304688 353.594482421875 1713.249267578125 C 350.9210510253906 1712.751586914063 348.6897583007813 1710.858154296875 347.7661437988281 1708.300048828125 L 347.7618408203125 1708.288208007813 L 347.7575988769531 1708.276245117188 C 347.1390686035156 1706.53564453125 347.1352844238281 1704.562622070313 347.7466430664063 1702.570556640625 C 348.2077026367188 1701.068237304688 349.0077514648438 1699.560546875 350.1254577636719 1698.087158203125 C 350.09814453125 1698.04248046875 350.0712890625 1697.997680664063 350.0447387695313 1697.952392578125 L 349.9756164550781 1697.834716796875 L 349.9129943847656 1697.713500976563 C 349.8248901367188 1697.542724609375 349.74169921875 1697.365844726563 349.6632385253906 1697.181762695313 C 349.0371398925781 1697.3701171875 348.3805236816406 1697.468505859375 347.7121887207031 1697.468505859375 C 347.1305541992188 1697.468505859375 346.5502624511719 1697.393432617188 345.9874572753906 1697.2451171875 L 345.7792358398438 1697.190307617188 L 345.5764770507813 1697.11767578125 C 342.4793090820313 1696.009521484375 340.0561828613281 1693.6025390625 338.9283752441406 1690.514038085938 L 338.8747863769531 1690.367309570313 L 338.8304748535156 1690.217651367188 C 337.9810791015625 1687.346923828125 339.1892700195313 1684.611450195313 339.5863342285156 1683.712524414063 C 340.2379760742188 1682.237060546875 341.1258850097656 1680.746704101563 342.0659484863281 1679.1689453125 L 342.595947265625 1678.274780273438 L 342.595947265625 1678.274780273438 C 342.9463195800781 1677.68115234375 343.4389343261719 1676.736206054688 344.041259765625 1675.507446289063 C 339.3506774902344 1674.729370117188 335.1477966308594 1673.6865234375 331.489990234375 1672.390747070313 C 325.05517578125 1670.111083984375 320.4263000488281 1667.05224609375 317.7313842773438 1663.298828125 C 317.6663513183594 1663.209106445313 317.6058654785156 1663.123657226563 317.5470581054688 1663.03857421875 C 317.1993713378906 1662.538696289063 316.8789367675781 1662.01513671875 316.5935363769531 1661.48046875 L 316.5606384277344 1661.41943359375 L 316.5466613769531 1661.393432617188 L 316.5136413574219 1661.332153320313 L 316.4823303222656 1661.269897460938 C 316.0972595214844 1660.50439453125 315.7557983398438 1659.779541015625 315.4388427734375 1659.054565429688 C 315.3663024902344 1658.891967773438 315.3052368164063 1658.744506835938 315.255615234375 1658.624755859375 C 315.2382507324219 1658.582885742188 315.2208557128906 1658.540771484375 315.2030944824219 1658.498657226563 L 315.2008056640625 1658.493286132813 L 315.1985168457031 1658.48779296875 C 314.9256896972656 1657.837768554688 314.6722106933594 1657.182373046875 314.4450378417969 1656.539916992188 L 314.4364929199219 1656.515747070313 L 314.4312438964844 1656.500366210938 L 314.4157409667969 1656.4580078125 C 314.3865966796875 1656.37841796875 314.3449401855469 1656.264892578125 314.2989501953125 1656.125 C 313.4604187011719 1653.704467773438 312.9110107421875 1651.185668945313 312.6659545898438 1648.6376953125 L 312.6430053710938 1648.39892578125 L 312.6430053710938 1648.376586914063 C 312.5054321289063 1646.775756835938 312.5006713867188 1645.154296875 312.6289978027344 1643.552734375 L 312.6304016113281 1643.534790039063 L 312.6319885253906 1643.516845703125 C 312.6437377929688 1643.38232421875 312.6573791503906 1643.267700195313 312.6664123535156 1643.191772460938 L 312.6714477539063 1643.14892578125 C 312.7279357910156 1642.564453125 312.7989501953125 1641.997924804688 312.8822631835938 1641.4677734375 L 312.8837890625 1641.45361328125 C 312.8948669433594 1641.3505859375 312.9133605957031 1641.17822265625 312.9461669921875 1640.9755859375 L 312.9505920410156 1640.9482421875 L 312.955322265625 1640.9208984375 L 313.0133361816406 1640.585815429688 L 313.50341796875 1637.755737304688 L 313.7450561523438 1637.665649414063 C 314.3939208984375 1635.465454101563 315.2827453613281 1633.346435546875 316.4018249511719 1631.334228515625 C 316.3994750976563 1631.198364257813 316.3949279785156 1631.06298828125 316.3882141113281 1630.928588867188 L 316.3855285644531 1630.874755859375 L 316.3840026855469 1630.820922851563 C 316.3611755371094 1630.017578125 316.3516235351563 1629.211181640625 316.355224609375 1628.404052734375 C 308.0196838378906 1628.23876953125 299.9581909179688 1625.168334960938 293.5839538574219 1619.715698242188 C 290.3406677246094 1616.94140625 287.6406860351563 1613.6552734375 285.5590515136719 1609.948608398438 C 283.4039001464844 1606.111083984375 281.9807739257813 1601.940673828125 281.3292236328125 1597.553466796875 C 280.6122131347656 1592.726318359375 280.86279296875 1587.900268554688 282.073974609375 1583.209350585938 C 283.2431640625 1578.681274414063 285.2537231445313 1574.472900390625 288.0497741699219 1570.701416015625 C 290.8457946777344 1566.929931640625 294.2880554199219 1563.782958984375 298.2809143066406 1561.34814453125 C 302.4171752929688 1558.825805664063 306.9620666503906 1557.183349609375 311.7893371582031 1556.46630859375 C 313.5614013671875 1556.203002929688 315.3623046875 1556.069580078125 317.1419677734375 1556.069580078125 C 325.7268676757813 1556.069580078125 334.0648803710938 1559.156860351563 340.6199951171875 1564.762817382813 C 343.8638916015625 1567.536987304688 346.5643615722656 1570.822998046875 348.6464233398438 1574.529418945313 C 349.4366149902344 1575.936157226563 350.1285095214844 1577.387817382813 350.7200012207031 1578.878173828125 C 351.3017272949219 1576.203735351563 352.6289367675781 1574.542602539063 353.7447814941406 1573.573608398438 L 353.9541015625 1573.391845703125 L 354.1822509765625 1573.234375 L 354.2952270507813 1573.156372070313 L 354.539794921875 1572.987548828125 L 354.8026733398438 1572.848876953125 L 357.9317016601563 1571.197875976563 L 365.1395874023438 1567.394653320313 L 365.1792602539063 1569.984252929688 C 365.8064880371094 1569.79443359375 366.4544677734375 1569.648315429688 367.1205139160156 1569.546997070313 L 372.8728942871094 1568.671264648438 L 372.8729858398438 1574.489868164063 L 372.875 1700.2099609375 L 372.8750915527344 1705.731567382813 L 370.2653198242188 1705.47216796875 C 370.203125 1705.948608398438 370.1322937011719 1706.42333984375 370.0527954101563 1706.896118164063 L 370.0121765136719 1707.1376953125 L 369.9481201171875 1707.374145507813 C 369.64208984375 1708.504150390625 368.877685546875 1710.1220703125 366.9740905761719 1711.412841796875 C 366.0546264648438 1712.036254882813 364.9801635742188 1712.514404296875 363.6893310546875 1712.87451171875 C 361.5305786132813 1713.476928710938 359.2437438964844 1713.607666015625 357.6911315917969 1713.609985351563 C 357.5910034179688 1713.611450195313 357.490966796875 1713.612182617188 357.3908081054688 1713.612182617188 Z"/>
      <path class="cls-5" d="M 317.1419982910156 1561.069580078125 C 315.6181640625 1561.069580078125 314.0765380859375 1561.181396484375 312.5239868164063 1561.411987304688 C 295.4979858398438 1563.941040039063 283.7459716796875 1579.79296875 286.2749938964844 1596.818969726563 C 288.5724182128906 1612.288818359375 301.8718872070313 1623.411010742188 317.0648498535156 1623.411010742188 C 318.5567626953125 1623.411010742188 320.066162109375 1623.303833007813 321.5859985351563 1623.0830078125 C 321.3779907226563 1625.609008789063 321.3099975585938 1628.14501953125 321.3819885253906 1630.678955078125 C 321.4159851074219 1631.359008789063 321.4100036621094 1632.0400390625 321.3659973144531 1632.718994140625 C 321.3099975585938 1632.83203125 321.2149963378906 1632.994995117188 321.0910034179688 1633.2060546875 C 319.5929870605469 1635.751953125 318.5360107421875 1638.531982421875 317.9639892578125 1641.430053710938 L 317.9400024414063 1641.43896484375 L 317.8819885253906 1641.774047851563 C 317.8599853515625 1641.910034179688 317.8519897460938 1642.047973632813 317.8309936523438 1642.18505859375 C 317.7539978027344 1642.6650390625 317.6940002441406 1643.155029296875 317.6470031738281 1643.642944335938 C 317.6369934082031 1643.745971679688 317.6220092773438 1643.848999023438 317.6130065917969 1643.952026367188 C 317.5010070800781 1645.349975585938 317.510986328125 1646.755981445313 317.6430053710938 1648.151977539063 L 317.6430053710938 1648.159057617188 C 317.8519897460938 1650.33203125 318.3210144042969 1652.472045898438 319.0390014648438 1654.532958984375 C 319.0769958496094 1654.652954101563 319.1199951171875 1654.759033203125 319.1589965820313 1654.873046875 C 319.3569946289063 1655.432983398438 319.5740051269531 1655.993041992188 319.8089904785156 1656.552978515625 C 319.8770141601563 1656.713989257813 319.9410095214844 1656.875 320.0119934082031 1657.032958984375 C 320.3009948730469 1657.694946289063 320.6119995117188 1658.35302734375 320.9490051269531 1659.02294921875 L 320.9630126953125 1659.048950195313 L 320.968994140625 1659.058959960938 C 321.1740112304688 1659.449951171875 321.4039916992188 1659.828002929688 321.6570129394531 1660.191040039063 C 321.6990051269531 1660.251953125 321.7409973144531 1660.31103515625 321.7860107421875 1660.373046875 C 326.1610107421875 1666.47998046875 337.85400390625 1670.052978515625 351.4460144042969 1671.449951171875 C 350.1830139160156 1674.261962890625 348.1029968261719 1678.781005859375 346.9020080566406 1680.816040039063 L 346.3619995117188 1681.72705078125 C 344.6300048828125 1684.634033203125 343.135009765625 1687.142944335938 343.625 1688.798950195313 C 344.239990234375 1690.483032226563 345.572998046875 1691.806030273438 347.260986328125 1692.410034179688 C 347.4103393554688 1692.449340820313 347.5619812011719 1692.468505859375 347.7121887207031 1692.468505859375 C 348.2187805175781 1692.468505859375 348.7100830078125 1692.2509765625 349.0509948730469 1691.85595703125 C 350.9330139160156 1688.881958007813 352.6189880371094 1685.787963867188 354.0979919433594 1682.594970703125 C 353.7260131835938 1686.618041992188 353.1940002441406 1693.1689453125 354.3559875488281 1695.420043945313 C 354.614990234375 1695.860961914063 354.9649963378906 1696.239990234375 355.3840026855469 1696.531982421875 C 355.5409851074219 1696.990966796875 355.9460144042969 1698.72998046875 354.1839904785156 1701.010986328125 C 352.572998046875 1703.095947265625 351.9469909667969 1705.133056640625 352.468994140625 1706.60205078125 C 352.7950134277344 1707.505004882813 353.5780029296875 1708.1650390625 354.5220031738281 1708.336059570313 C 355.4673461914063 1708.51953125 356.4279174804688 1708.612182617188 357.3904113769531 1708.612182617188 C 357.4766235351563 1708.612182617188 357.562744140625 1708.611450195313 357.6489868164063 1708.609985351563 C 360.72900390625 1708.609985351563 364.6019897460938 1707.987060546875 365.1220092773438 1706.067016601563 C 365.4630126953125 1704.038940429688 365.6209716796875 1701.984008789063 365.594970703125 1699.927978515625 C 366.3510131835938 1700.047973632813 367.1109924316406 1700.134033203125 367.875 1700.2099609375 L 367.8729858398438 1574.489990234375 C 363.2550048828125 1575.192993164063 361.6239929199219 1578.885009765625 360.8380126953125 1580.663940429688 L 360.760009765625 1580.838989257813 C 360.4410095214844 1579.447998046875 360.2799987792969 1578.026000976563 360.2799987792969 1576.598999023438 L 360.2650146484375 1575.619995117188 L 357.135986328125 1577.27099609375 L 357.0230102539063 1577.348999023438 C 354.8510131835938 1579.234985351563 355.4169921875 1583.120971679688 355.7219848632813 1584.572021484375 C 354.5610046386719 1584.968017578125 351.5929870605469 1586.026977539063 347.9320068359375 1587.661010742188 C 345.6336364746094 1572.1875 332.3292236328125 1561.069580078125 317.1419982910156 1561.069580078125 M 317.1419982910156 1551.069580078125 C 331.0666198730469 1551.069580078125 343.6969604492188 1558.231811523438 351.1824035644531 1569.23193359375 C 351.2349853515625 1569.194091796875 351.2879638671875 1569.15673828125 351.3412780761719 1569.119873046875 C 351.6671752929688 1568.894897460938 352.1191101074219 1568.611450195313 352.4693603515625 1568.426635742188 L 355.598388671875 1566.775634765625 C 357.0607299804688 1566.004028320313 358.6638488769531 1565.619995117188 360.2647399902344 1565.619995117188 C 360.8639831542969 1565.619995117188 361.4628601074219 1565.673828125 362.0540161132813 1565.78125 C 363.400634765625 1565.228881835938 364.8387756347656 1564.836669921875 366.3680114746094 1564.603881835938 C 366.8694763183594 1564.527587890625 367.3728637695313 1564.489990234375 367.8731994628906 1564.489868164063 C 370.248046875 1564.48974609375 372.5641174316406 1565.336303710938 374.3902282714844 1566.905395507813 C 376.6010437011719 1568.80517578125 377.8729248046875 1571.574951171875 377.8729858398438 1574.489868164063 L 377.875 1700.209838867188 C 377.8750305175781 1702.806030273438 376.8658752441406 1705.291015625 375.0766906738281 1707.14794921875 C 375.0469360351563 1707.340576171875 375.0158996582031 1707.533081054688 374.9836120605469 1707.72509765625 C 373.9657287597656 1711.66650390625 370.678466796875 1718.609985351563 357.6489868164063 1718.609985351563 C 357.6357116699219 1718.609985351563 357.6223449707031 1718.609985351563 357.6091003417969 1718.609985351563 C 355.765625 1718.609985351563 354.1785583496094 1718.4560546875 352.616455078125 1718.15283203125 C 348.3019714355469 1717.371948242188 344.5943603515625 1714.238403320313 343.0633239746094 1709.998168945313 C 342.0909118652344 1707.261840820313 342.05908203125 1704.296020507813 342.9084777832031 1701.354125976563 C 338.5879821777344 1699.377197265625 335.6777038574219 1696.188720703125 334.2317199707031 1692.229248046875 C 332.6714782714844 1687.011474609375 334.3609008789063 1682.683471679688 336.3529968261719 1679.055786132813 C 325.4898986816406 1676.399047851563 317.8824157714844 1672.09521484375 313.6567993164063 1666.19677734375 C 312.9601440429688 1665.201782226563 312.5123291015625 1664.464965820313 312.1128540039063 1663.703247070313 C 311.5953063964844 1662.681396484375 311.2078857421875 1661.859985351563 310.8473205566406 1661.034057617188 C 310.2781066894531 1659.68408203125 309.9922180175781 1658.9453125 309.7311096191406 1658.20703125 C 308.615478515625 1655.009399414063 307.9739685058594 1652.080078125 307.6889343261719 1649.116333007813 C 307.5005187988281 1647.114013671875 307.4867553710938 1645.128051757813 307.6449584960938 1643.153442382813 C 307.7601623535156 1641.9873046875 307.8471984863281 1641.287109375 307.9572448730469 1640.60107421875 C 308.0159301757813 1640.2353515625 308.095458984375 1639.868041992188 308.1946716308594 1639.501831054688 L 308.1532897949219 1639.49365234375 C 308.6062316894531 1637.19873046875 309.2752990722656 1634.966674804688 310.1531677246094 1632.816650390625 C 292.9823303222656 1629.838989257813 279.011962890625 1615.986938476563 276.3834838867188 1598.287963867188 C 273.0484619140625 1575.835571289063 288.6018981933594 1554.855590820313 311.0547180175781 1551.5205078125 C 313.1011657714844 1551.216552734375 315.1333312988281 1551.069580078125 317.1419982910156 1551.069580078125 Z"/>
    </g>
    <g id="_5" data-name=" 5" class="cls-2">
      <text id="_5-2" data-name="5" class="cls-3" transform="translate(337.997 1644.731)"><tspan x="0" y="0">5</tspan></text>
    </g>
  </g>
</svg>
