<svg xmlns="http://www.w3.org/2000/svg" width="135.132" height="199.857" viewBox="0 0 135.132 199.857">
  <defs>
    <style>
      .cls-1 {
        stroke-linejoin: round;
      }

      .cls-2, .cls-4 {
        fill: #fff;
      }

      .cls-2 {
        font-size: 43.305px;
        font-family: TimesNewRomanPS-BoldMT, Times New Roman;
        font-weight: 700;
      }

      .cls-3, .cls-4 {
        stroke: none;
      }
    </style>
  </defs>
  <g id="组_3811" data-name="组 3811" transform="translate(-446.095 -1356.267)">
    <g id="路径_10317" data-name="路径 10317" class="cls-1">
      <path class="cls-3" d="M 555.6380004882813 1551.1240234375 C 553.3102416992188 1551.1240234375 551.2965698242188 1550.656005859375 550.6154174804688 1550.478149414063 C 550.4935913085938 1550.484741210938 550.3710327148438 1550.488037109375 550.2478637695313 1550.488037109375 C 547.86767578125 1550.488037109375 545.47265625 1549.201293945313 544.1549072265625 1547.926025390625 C 542.4467163085938 1546.27197265625 541.77392578125 1543.999267578125 542.3540649414063 1541.845458984375 L 542.3566284179688 1541.836181640625 L 542.3591918945313 1541.826782226563 C 542.4889526367188 1541.352294921875 542.6790161132813 1540.873291015625 542.9411010742188 1540.368774414063 C 542.657958984375 1538.899658203125 542.431884765625 1536.84619140625 542.3275146484375 1533.844970703125 C 542.260498046875 1531.918579101563 542.2567749023438 1529.953491210938 542.2761840820313 1528.293212890625 C 540.59765625 1527.19287109375 539.3369140625 1525.990356445313 538.4628295898438 1524.660278320313 C 536.656982421875 1522.42138671875 535.470947265625 1519.7021484375 534.9354248046875 1516.57080078125 C 534.515625 1514.116333007813 534.49853515625 1511.394653320313 534.8845825195313 1508.4814453125 C 535.520751953125 1503.680786132813 537.0809326171875 1499.580810546875 537.7222290039063 1498.040893554688 C 537.9515991210938 1497.490478515625 538.15380859375 1496.966186523438 538.3313598632813 1496.472534179688 C 537.9586791992188 1496.486328125 537.5856323242188 1496.4931640625 537.212890625 1496.4931640625 C 532.2863159179688 1496.4931640625 527.4267578125 1495.24658203125 524.5304565429688 1493.239990234375 C 524.3969116210938 1493.1474609375 524.26708984375 1493.052734375 524.1409912109375 1492.9560546875 C 522.1151123046875 1492.542236328125 520.4329223632813 1491.447509765625 519.2959594726563 1489.772827148438 C 518.2081298828125 1488.17041015625 517.9686279296875 1486.501708984375 517.8665771484375 1485.784423828125 C 517.862060546875 1485.753051757813 517.8577880859375 1485.721923828125 517.853759765625 1485.690673828125 C 516.8472900390625 1485.759399414063 515.8167114257813 1485.7939453125 514.7639770507813 1485.7939453125 C 509.1678466796875 1485.7939453125 503.0157165527344 1484.850463867188 496.97265625 1483.065551757813 C 491.0794982910156 1481.324951171875 485.7305297851563 1478.923583984375 481.5039978027344 1476.121215820313 C 477.42724609375 1473.417724609375 473.1945495605469 1469.691650390625 469.2630920410156 1465.345581054688 C 465.4467468261719 1461.126831054688 461.917236328125 1456.332885742188 459.0561828613281 1451.482055664063 C 456.003662109375 1446.306640625 453.7870788574219 1441.25341796875 452.4679260253906 1436.462890625 C 450.9432678222656 1430.92578125 450.6974182128906 1425.963500976563 451.7372436523438 1421.713623046875 L 451.9483642578125 1420.853271484375 L 451.9483642578125 1420.853271484375 C 453.7707214355469 1413.380981445313 456.0386962890625 1404.081420898438 462.0619506835938 1394.585083007813 C 465.3768920898438 1389.358642578125 469.3978576660156 1384.702270507813 474.3545532226563 1380.349731445313 C 479.8781433105469 1375.499389648438 486.6019592285156 1371.068969726563 494.3391723632813 1367.181274414063 C 498.1789855957031 1365.251831054688 501.92578125 1363.776000976563 505.475341796875 1362.794677734375 C 509.141357421875 1361.781127929688 512.6964111328125 1361.267211914063 516.0418090820313 1361.267211914063 C 519.91650390625 1361.267211914063 523.594482421875 1361.953247070313 526.9735717773438 1363.306274414063 C 533.0855712890625 1365.752563476563 537.0692749023438 1369.8564453125 539.514404296875 1373.317993164063 C 543.2509155273438 1370.875366210938 547.224853515625 1368.88330078125 551.38427734375 1367.370971679688 C 557.5728759765625 1365.120849609375 564.0521240234375 1363.97998046875 570.6420288085938 1363.97998046875 C 570.8282470703125 1363.97998046875 570.990478515625 1363.984985351563 571.120849609375 1363.989135742188 C 571.1737670898438 1363.99072265625 571.226806640625 1363.992797851563 571.2801513671875 1363.993286132813 L 576.2269897460938 1364.0458984375 L 576.2269897460938 1368.993041992188 L 576.2269897460938 1537.211059570313 L 576.2269897460938 1542.14111328125 L 571.2974243164063 1542.210571289063 C 571.2695922851563 1542.211059570313 571.2415161132813 1542.212158203125 571.2135009765625 1542.213134765625 C 571.4127807617188 1544.831787109375 570.280029296875 1546.449096679688 569.5169067382813 1547.226806640625 C 568.6027221679688 1548.157836914063 567.1697998046875 1548.966918945313 565.2567138671875 1549.6328125 C 563.99951171875 1550.070434570313 562.0865478515625 1550.592163085938 560.1128540039063 1550.592163085938 C 559.8729858398438 1550.592163085938 559.6351318359375 1550.584228515625 559.4031982421875 1550.568725585938 C 558.8280029296875 1550.779418945313 558.2155151367188 1550.926879882813 557.572509765625 1551.0078125 C 556.960693359375 1551.0849609375 556.3096923828125 1551.1240234375 555.6380004882813 1551.1240234375 Z"/>
      <path class="cls-4" d="M 555.6380004882813 1546.1240234375 C 556.0689697265625 1546.1240234375 556.510986328125 1546.10205078125 556.947998046875 1546.046997070313 C 557.655029296875 1545.9580078125 558.2030029296875 1545.702026367188 558.583984375 1545.285034179688 C 558.8469848632813 1545.427001953125 559.1909790039063 1545.535034179688 559.6370239257813 1545.572021484375 C 559.790771484375 1545.585693359375 559.9498291015625 1545.592163085938 560.1129150390625 1545.592163085938 C 562.3267211914063 1545.592163085938 565.2876586914063 1544.3974609375 565.947998046875 1543.724975585938 C 566.6240234375 1543.036010742188 565.9990234375 1541.235961914063 565.35498046875 1539.845947265625 L 565.208984375 1539.530029296875 C 565.3519897460938 1538.656982421875 565.4769897460938 1537.68994140625 565.572998046875 1536.691040039063 C 567.2369995117188 1537.055053710938 569.02001953125 1537.220947265625 570.81298828125 1537.220947265625 C 570.9509887695313 1537.220947265625 571.0889892578125 1537.213012695313 571.2269897460938 1537.211059570313 L 571.2269897460938 1368.993041992188 C 571.031005859375 1368.990966796875 570.8380126953125 1368.97998046875 570.6420288085938 1368.97998046875 C 558.364013671875 1368.97998046875 547.0289916992188 1373.3310546875 537.9210205078125 1380.64697265625 C 537.177978515625 1378.840942382813 533.6599731445313 1371.368041992188 525.114990234375 1367.947998046875 C 522.3153076171875 1366.827026367188 519.2864379882813 1366.267211914063 516.0418090820313 1366.267211914063 C 510.2271118164063 1366.267211914063 503.7181396484375 1368.064331054688 496.5840148925781 1371.649047851563 C 465.2560119628906 1387.390014648438 460.3720092773438 1407.416015625 456.8060302734375 1422.037963867188 L 456.593994140625 1422.901977539063 C 453.1130065917969 1437.129028320313 468.9010314941406 1461.764038085938 484.2669677734375 1471.953979492188 C 491.8940124511719 1477.010986328125 504.1329956054688 1480.7939453125 514.7639770507813 1480.7939453125 C 518.4569702148438 1480.7939453125 521.9409790039063 1480.316040039063 524.9849853515625 1479.296997070313 C 525 1479.411987304688 525 1479.52294921875 525.0380249023438 1479.642944335938 C 524.4190063476563 1479.941040039063 523.2960205078125 1480.610961914063 523.5640258789063 1482.058959960938 C 523.676025390625 1482.655029296875 523.823974609375 1483.10498046875 523.9840087890625 1483.446044921875 C 523.625 1483.5419921875 523.291015625 1483.7060546875 523.0590209960938 1483.989990234375 C 522.8369750976563 1484.260986328125 522.7470092773438 1484.597045898438 522.8159790039063 1485.074951171875 C 522.9509887695313 1486.024047851563 523.2529907226563 1488.141967773438 526.0339965820313 1488.141967773438 C 526.1389770507813 1488.141967773438 526.2630004882813 1488.1259765625 526.3759765625 1488.119018554688 C 526.572021484375 1488.4580078125 526.89599609375 1488.796020507813 527.3779907226563 1489.130004882813 C 529.0017700195313 1490.255004882813 532.6406860351563 1491.4931640625 537.212890625 1491.4931640625 C 539.2044067382813 1491.4931640625 541.37255859375 1491.25830078125 543.6290283203125 1490.677001953125 C 543.7117309570313 1490.66162109375 543.7819213867188 1490.6552734375 543.8416137695313 1490.6552734375 C 544.070068359375 1490.6552734375 544.1458129882813 1490.74951171875 544.18701171875 1490.801025390625 C 544.916015625 1491.701049804688 544.10400390625 1495.724975585938 542.3380126953125 1499.963012695313 C 541.333984375 1502.3740234375 536.6220092773438 1514.765014648438 542.5239868164063 1521.725952148438 C 543.2930297851563 1523.031982421875 544.9860229492188 1524.279052734375 547.3389892578125 1525.392944335938 C 547.2269897460938 1528.983032226563 547.06298828125 1538.614013671875 548.3870239257813 1541.18505859375 C 547.9869995117188 1541.694946289063 547.3359985351563 1542.5830078125 547.1820068359375 1543.14599609375 C 547.1090087890625 1543.4169921875 547.1270141601563 1543.843994140625 547.6320190429688 1544.3330078125 C 548.1864013671875 1544.869506835938 549.3601684570313 1545.488037109375 550.2478637695313 1545.488037109375 C 550.402587890625 1545.488037109375 550.5484619140625 1545.46923828125 550.6810302734375 1545.427978515625 C 550.8770141601563 1545.368041992188 551.0980224609375 1545.237060546875 551.3200073242188 1545.058959960938 C 551.3319702148438 1545.10302734375 551.343994140625 1545.14697265625 551.3560180664063 1545.192016601563 L 551.4459838867188 1545.52099609375 L 551.7739868164063 1545.612060546875 C 551.864013671875 1545.637939453125 553.6380004882813 1546.1240234375 555.6380004882813 1546.1240234375 M 534.9730224609375 1470.046997070313 C 535.1849975585938 1470.244018554688 535.4019775390625 1470.432983398438 535.6170043945313 1470.6259765625 C 535.833984375 1470.821044921875 536.0479736328125 1471.01904296875 536.2680053710938 1471.211059570313 C 536.7559814453125 1471.635986328125 537.2529907226563 1472.045043945313 537.7540283203125 1472.451049804688 C 537.9660034179688 1472.623046875 538.177001953125 1472.796020507813 538.3909912109375 1472.963989257813 C 538.5999755859375 1473.128051757813 538.801025390625 1473.303955078125 539.0120239257813 1473.463989257813 L 539.4299926757813 1473.784057617188 L 539.4500122070313 1473.764038085938 C 540.7150268554688 1474.708984375 542.0180053710938 1475.597045898438 543.3590087890625 1476.427001953125 C 543.2789916992188 1476.494995117188 543.1799926757813 1476.557983398438 543.1220092773438 1476.630004882813 C 542.8684692382813 1476.717407226563 542.257080078125 1476.884399414063 541.3056030273438 1476.884399414063 C 539.6005859375 1476.884399414063 536.8031005859375 1476.348388671875 533.0130004882813 1473.858032226563 C 533.8579711914063 1472.720947265625 534.5079956054688 1471.447021484375 534.9730224609375 1470.046997070313 M 555.6380004882813 1556.1240234375 C 553.3193359375 1556.1240234375 551.2646484375 1555.758422851563 550.0570678710938 1555.486450195313 C 546.103759765625 1555.423217773438 542.6290283203125 1553.407348632813 540.6776733398438 1551.518920898438 C 537.6436767578125 1548.5810546875 536.46630859375 1544.479248046875 537.5263061523438 1540.544677734375 C 537.5979614257813 1540.282592773438 537.67919921875 1540.021606445313 537.7703857421875 1539.76123046875 C 537.4815063476563 1537.636596679688 537.2786254882813 1534.756591796875 537.2603759765625 1530.766357421875 C 536.1361694335938 1529.793090820313 535.1939697265625 1528.745483398438 534.4246215820313 1527.6162109375 C 527.71533203125 1519.11962890625 529.37841796875 1507.87939453125 531.3914794921875 1501.000732421875 C 527.610107421875 1500.351196289063 524.1861572265625 1499.084228515625 521.68310546875 1497.349975585938 C 521.6564331054688 1497.33154296875 521.6298217773438 1497.31298828125 521.6033935546875 1497.294311523438 C 518.4957275390625 1496.2734375 515.7415771484375 1494.220825195313 514.1507568359375 1490.79052734375 C 502.0371398925781 1490.655883789063 488.2057800292969 1486.56396484375 478.7409362792969 1480.288452148438 C 462.0405578613281 1469.213500976563 441.8414306640625 1441.12060546875 446.8805236816406 1420.525390625 C 450.8917846679688 1404.0830078125 456.6359252929688 1380.529907226563 492.0943298339844 1362.713623046875 C 500.6069641113281 1358.436157226563 508.6641235351563 1356.267211914063 516.0418090820313 1356.267211914063 C 520.5560302734375 1356.267211914063 524.859375 1357.073852539063 528.8321533203125 1358.66455078125 C 533.9476928710938 1360.712036132813 537.7977294921875 1363.74560546875 540.6304321289063 1366.792236328125 C 549.8243408203125 1361.656127929688 560.03076171875 1358.97998046875 570.6420288085938 1358.97998046875 C 576.1648559570313 1358.97998046875 581.2269897460938 1363.47021484375 581.2269897460938 1368.993041992188 L 581.2269897460938 1537.211059570313 C 581.2269897460938 1541.0986328125 579.0066528320313 1544.473876953125 575.7583618164063 1546.127807617188 C 575.1599731445313 1548.255249023438 574.0350952148438 1549.76123046875 573.0859375 1550.728515625 C 569.9829711914063 1553.888549804688 564.0867309570313 1555.592163085938 560.1129150390625 1555.592163085938 C 560.1090698242188 1555.592163085938 560.1051025390625 1555.592163085938 560.1011352539063 1555.592163085938 C 559.486083984375 1555.760498046875 558.8504028320313 1555.886474609375 558.1969604492188 1555.96875 C 557.3434448242188 1556.076171875 556.4801025390625 1556.1240234375 555.6380004882813 1556.1240234375 Z"/>
    </g>
    <text id="_3" data-name="3" class="cls-2" transform="translate(519.21 1438.508)"><tspan x="0" y="0">3</tspan></text>
  </g>
</svg>
