<svg xmlns="http://www.w3.org/2000/svg" width="87.33" height="179.685" viewBox="0 0 87.33 179.685">
  <defs>
    <style>
      .cls-1 {
        fill: #fcfdea;
      }

      .cls-2 {
        fill: #f1afa1;
      }

      .cls-3 {
        fill: #fff;
      }

      .cls-4 {
        fill: #2b71b0;
      }

      .cls-5 {
        fill: #e7ffff;
      }

      .cls-6 {
        fill: #eeac9e;
      }

      .cls-7 {
        fill: #f6afa2;
      }

      .cls-8 {
        fill: none;
        stroke: #eeac9e;
        stroke-linecap: round;
        stroke-linejoin: round;
        stroke-width: 2px;
      }

      .cls-9 {
        fill: #fcb2a9;
      }
    </style>
  </defs>
  <g id="组_3731" data-name="组 3731" transform="translate(-978.405 -267.649)">
    <path id="路径_9800" data-name="路径 9800" class="cls-1" d="M1007.044,431.074s-1.6,8.816.463,11.167c.532,1.119.993.3,1.021,1.9s2.326,3.786,5.291,1.837a4.047,4.047,0,0,0,1.636-5.511,2.928,2.928,0,0,0-1.871-1.064l-.075-4.072.081-3.122S1009.711,428.151,1007.044,431.074Z"/>
    <path id="路径_9801" data-name="路径 9801" class="cls-1" d="M1026.012,436.5s-1.746,8.091.768,9.966a4.061,4.061,0,0,0,6.454-2.247c.722-2.77,1.3-12.1,1.3-12.1l-.116-2.791-8.952,1.97Z"/>
    <path id="路径_9802" data-name="路径 9802" class="cls-1" d="M1004.771,403.987s-7.714,1.234-8.634,8.427c0,0-.831,2.6.67,3.931a4.3,4.3,0,0,0,4.759.336c.736-.614,2.126-6.889,3.446-6.867s1.836.223.919,5.643-3.142,11.754,1.713,16.222,11.714,5.909,18.368,4.821,9.627-5.271,11.426-8.39-.494-11.911-.983-13.918-1.221-4.971-1.221-4.971-.711-1.239,1.286-.815,11.036,1.173,12.492-5.472c.8-3.135,1.243-5.818-2.332-6.221a6.351,6.351,0,0,0-3.739,2.546c-1.484,2.142-3.887,4.17-7.374,3.3s-11.813-5.22-11.813-5.22l-15.477-.576Z"/>
    <circle id="椭圆_1585" data-name="椭圆 1585" class="cls-2" cx="11.229" cy="11.229" r="11.229" transform="translate(1010.036 408.189)"/>
    <path id="路径_9803" data-name="路径 9803" class="cls-1" d="M994.009,342.715s-16.973-72,4.654-75.011c15.6,0,15.6,26.829,15.6,26.829l1.369,42.159s9.034-.547,10.4-.547.274-67.346,16.7-68.441,14.783,14.51,15.057,17.795-9.308,54.752-11.5,57.216C1044.108,346,1001.127,351.749,994.009,342.715Z"/>
    <ellipse id="椭圆_1586" data-name="椭圆 1586" class="cls-1" cx="43.665" cy="33.739" rx="43.665" ry="33.739" transform="translate(978.405 336.287)"/>
    <circle id="椭圆_1587" data-name="椭圆 1587" class="cls-3" cx="7.842" cy="7.842" r="7.842" transform="translate(995.914 352.494)"/>
    <circle id="椭圆_1588" data-name="椭圆 1588" class="cls-4" cx="6.097" cy="6.097" r="6.097" transform="translate(998.517 355.85)"/>
    <circle id="椭圆_1589" data-name="椭圆 1589" class="cls-5" cx="2.416" cy="2.416" r="2.416" transform="translate(997.344 358.49)"/>
    <circle id="椭圆_1590" data-name="椭圆 1590" class="cls-3" cx="7.842" cy="7.842" r="7.842" transform="translate(1030.626 352.494)"/>
    <circle id="椭圆_1591" data-name="椭圆 1591" class="cls-4" cx="6.097" cy="6.097" r="6.097" transform="translate(1033.23 355.85)"/>
    <circle id="椭圆_1592" data-name="椭圆 1592" class="cls-5" cx="2.416" cy="2.416" r="2.416" transform="translate(1032.056 358.49)"/>
    <path id="路径_9804" data-name="路径 9804" class="cls-6" d="M1016.283,368.42s-2.751.46-2.125,2.482,3.41,5.878,4.874,6.311,4.106-.125,4.476-.865,3.868-4.425,3.822-5.247S1028.333,366.93,1016.283,368.42Z"/>
    <path id="路径_9805" data-name="路径 9805" class="cls-2" d="M1030.625,338.2s3.815.129,11.908,3.217c.959,0,15.4-60.57,4.586-60.981s-10.4,12.593-10.814,17.384S1030.693,336.556,1030.625,338.2Z"/>
    <path id="路径_9806" data-name="路径 9806" class="cls-7" d="M1011.6,338.526s-3.817,0-12.01,2.816c-.957-.032-13.363-61.051-2.542-61.1s9.976,12.934,10.226,17.736S1011.585,336.882,1011.6,338.526Z"/>
    <line id="直线_121" data-name="直线 121" class="cls-8" y2="4.881" transform="translate(1020.701 377.364)"/>
    <path id="路径_9807" data-name="路径 9807" class="cls-8" d="M1013.406,379.748s6.7,6.484,14.88,0"/>
    <path id="路径_9808" data-name="路径 9808" class="cls-9" d="M1064.169,378.976a10.518,10.518,0,1,0-12.095,15.548A33.447,33.447,0,0,0,1064.169,378.976Z"/>
    <path id="路径_9809" data-name="路径 9809" class="cls-9" d="M986.821,373.955a10.49,10.49,0,0,0-7.46,3.1,32.458,32.458,0,0,0,11.962,16.92,10.516,10.516,0,0,0-4.5-20.023Z"/>
  </g>
</svg>
