<svg xmlns="http://www.w3.org/2000/svg" width="189.445" height="148.873" viewBox="0 0 189.445 148.873">
  <defs>
    <style>
      .cls-1 {
        fill: #a7a5a5;
      }

      .cls-2 {
        fill: #c6c4c5;
      }

      .cls-3 {
        fill: #c3c5c7;
      }

      .cls-4 {
        fill: #ece7e6;
      }

      .cls-5 {
        fill: #fff;
      }

      .cls-6 {
        fill: #2b71b0;
      }

      .cls-7 {
        fill: #fcb2a9;
      }

      .cls-8 {
        fill: none;
        stroke: #a7a5a5;
        stroke-miterlimit: 10;
      }
    </style>
  </defs>
  <g id="组_3736" data-name="组 3736" transform="translate(-537.608 -509.453)">
    <path id="路径_9831" data-name="路径 9831" class="cls-1" d="M609.962,601.322s-3.28,1.639-9.391-2.535c-1.938,2.187-4.721,9.789-4.572,11.18s6.435,4.1,13.963,2.162c2.385-.447.969,4.845-.522,8.422s-4.248,12.522.124,17.69c3.976,6.757,39.156,11.329,48.3-1.392,2.783-5.068-.2-12.124-1.291-16.3a61.148,61.148,0,0,0-2.373-7.714c-.3-.522.522-1.528,2.459-.3s12.969.112,13.417-3.354-3.243-8.87-5.367-9.205c-2.161.522-6.372,4.248-11.664,2.236C648.123,601.1,611.453,597.967,609.962,601.322Z"/>
    <path id="路径_9832" data-name="路径 9832" class="cls-1" d="M613.655,641.263s-.414,12.282.978,13.475,10.633,2.484,12.621,0c.695-2.882,1.06-8.414.431-10.17S613.92,639.465,613.655,641.263Z"/>
    <path id="路径_9833" data-name="路径 9833" class="cls-1" d="M652.473,641.263s.414,12.282-.978,13.475-10.633,2.484-12.621,0c-.7-2.882-1.06-8.414-.43-10.17S652.208,639.465,652.473,641.263Z"/>
    <path id="路径_9834" data-name="路径 9834" class="cls-2" d="M638.566,653.8s-1.029,2.225-.59,2.673a8.951,8.951,0,0,0,4.861,1.391c1.788-.149,1.05-1.854,1.05-1.854s-.684,2,1.294,2.251a12.1,12.1,0,0,0,4.115-.347s.579-2.123,0-2.02.547,1.672,1.193,1.871,2.435-.746,2.286-1.292a7.969,7.969,0,0,0-1.143-1.739A12.521,12.521,0,0,1,638.566,653.8Z"/>
    <path id="路径_9835" data-name="路径 9835" class="cls-2" d="M627.706,653.8s1.029,2.225.591,2.673a8.958,8.958,0,0,1-4.862,1.391c-1.788-.149-1.05-1.854-1.05-1.854s.685,2-1.294,2.251a12.1,12.1,0,0,1-4.115-.347s-.579-2.123,0-2.02-.547,1.672-1.193,1.871-2.434-.746-2.285-1.292a7.936,7.936,0,0,1,1.142-1.739A12.521,12.521,0,0,0,627.706,653.8Z"/>
    <path id="路径_9836" data-name="路径 9836" class="cls-2" d="M659.7,521.434s7.46-20.833,33.885-7.557,30.128,30.383,33.064,42.383-10.723,32.3-22.851,40.341-37.623,11.915-41.639-1.7S659.7,521.434,659.7,521.434Z"/>
    <path id="路径_9837" data-name="路径 9837" class="cls-1" d="M667.314,529.274s4.953-13.992,21.549-4.546,22.723,18.128,25.4,26.681-2.17,21.575-8.681,27.958-24.827,22.581-34.434,12.5c-3.121-2.779-2.9-3.936-2.9-3.936Z"/>
    <path id="路径_9838" data-name="路径 9838" class="cls-2" d="M604.96,521.434s-7.459-20.833-33.885-7.557-30.128,30.383-33.064,42.383,10.724,32.3,22.851,40.341,37.623,11.915,41.639-1.7S604.96,521.434,604.96,521.434Z"/>
    <path id="路径_9839" data-name="路径 9839" class="cls-1" d="M597.347,529.274s-4.953-13.992-21.548-4.546-22.724,18.128-25.405,26.681,2.17,21.575,8.681,27.958,24.827,22.581,34.435,12.5c3.374-2.483,2.9-3.936,2.9-3.936Z"/>
    <ellipse id="椭圆_1611" data-name="椭圆 1611" class="cls-3" cx="44.766" cy="47.532" rx="44.766" ry="47.532" transform="translate(587.799 511.707)"/>
    <path id="路径_9840" data-name="路径 9840" class="cls-3" d="M623.2,605.727s1.958,25.086-.851,34.789,7.277,11.361,15.192,9.957,5.744-9.7,5.234-10.6-2.969-26.046-.846-34.15A43.745,43.745,0,0,1,623.2,605.727Z"/>
    <path id="路径_9841" data-name="路径 9841" class="cls-4" d="M655.416,595.707c0,2.468-2.107,13.532-4.575,13.532s-4.361-11.064-4.361-13.532a4.468,4.468,0,0,1,8.936,0Z"/>
    <path id="路径_9842" data-name="路径 9842" class="cls-4" d="M618.788,595.707c0,2.468-2.107,13.532-4.575,13.532s-4.361-11.064-4.361-13.532a4.468,4.468,0,0,1,8.936,0Z"/>
    <circle id="椭圆_1612" data-name="椭圆 1612" class="cls-5" cx="7.532" cy="7.532" r="7.532" transform="translate(605.257 569.18)"/>
    <circle id="椭圆_1613" data-name="椭圆 1613" class="cls-6" cx="4.851" cy="4.851" r="4.851" transform="translate(609.404 571.348)"/>
    <circle id="椭圆_1614" data-name="椭圆 1614" class="cls-5" cx="7.532" cy="7.532" r="7.532" transform="translate(644.638 569.18)"/>
    <circle id="椭圆_1615" data-name="椭圆 1615" class="cls-6" cx="4.851" cy="4.851" r="4.851" transform="translate(645.852 571.348)"/>
    <path id="路径_9843" data-name="路径 9843" class="cls-7" d="M665.335,581.2a9.783,9.783,0,0,0-6.844,16.777,46.848,46.848,0,0,0,12.738-14.79A9.728,9.728,0,0,0,665.335,581.2Z"/>
    <path id="路径_9844" data-name="路径 9844" class="cls-7" d="M599.563,581.2a9.728,9.728,0,0,0-5.729,1.864,46.854,46.854,0,0,0,12.676,14.815,9.785,9.785,0,0,0-6.947-16.679Z"/>
    <path id="路径_9845" data-name="路径 9845" class="cls-8" d="M625.973,617.461a7.746,7.746,0,0,1,12.844,0"/>
    <path id="路径_9846" data-name="路径 9846" class="cls-8" d="M625.973,622.623a7.746,7.746,0,0,1,12.844,0"/>
    <path id="路径_9847" data-name="路径 9847" class="cls-8" d="M625.973,627.785a7.746,7.746,0,0,1,12.844,0"/>
    <path id="路径_9848" data-name="路径 9848" class="cls-8" d="M625.973,632.947a7.746,7.746,0,0,1,12.844,0"/>
    <path id="路径_9849" data-name="路径 9849" class="cls-8" d="M625.973,638.109a7.747,7.747,0,0,1,12.844,0"/>
    <path id="路径_9850" data-name="路径 9850" class="cls-2" d="M664.694,599.928s2.506-1.407,3.066,0,0,1.9,0,1.9,1.089-.036,1.385.633.759,1.232.3,2.041c0,.176,1.435.387,1.22,1.619s-.61,1.495-.709,1.53,1.385-.07,1.27.775-.237,2.357-2.484,2.058c0,0-1.216-1.467-.413-2.194a1.153,1.153,0,0,1-1.093-1.589c.445-1.513.4-1.249.4-1.249s-1.071.7-1.582-.352a2.131,2.131,0,0,1,.36-2.1s-1.976-.009-1.96-1.047A10.877,10.877,0,0,1,664.694,599.928Z"/>
    <path id="路径_9851" data-name="路径 9851" class="cls-2" d="M600.571,598.787s-2.833-1.49-3.466,0,0,2.013,0,2.013-1.23-.037-1.565.671-.857,1.3-.336,2.161c0,.186-1.621.41-1.379,1.714s.69,1.584.8,1.621-1.566-.074-1.435.82.267,2.5,2.807,2.18c0,0,1.374-1.553.466-2.323,0,0,1.739-.08,1.236-1.683s-.447-1.323-.447-1.323,1.211.746,1.789-.372a2.157,2.157,0,0,0-.407-2.227s2.233-.009,2.214-1.109A10.78,10.78,0,0,0,600.571,598.787Z"/>
  </g>
</svg>
