<svg xmlns="http://www.w3.org/2000/svg" width="72.998" height="236.821" viewBox="0 0 72.998 236.821">
  <defs>
    <style>
      .cls-1 {
        stroke-linejoin: round;
      }

      .cls-2, .cls-4 {
        fill: #fff;
      }

      .cls-2 {
        font-size: 43.304px;
        font-family: TimesNewRomanPS-BoldMT, Times New Roman;
        font-weight: 700;
      }

      .cls-3, .cls-4 {
        stroke: none;
      }
    </style>
  </defs>
  <g id="组_3823" data-name="组 3823" transform="translate(-1267.316 -1311.334)">
    <g id="路径_10329" data-name="路径 10329" class="cls-1">
      <path class="cls-3" d="M 1285.990966796875 1543.155029296875 C 1283.713134765625 1543.155029296875 1281.510620117188 1542.411010742188 1279.621459960938 1541.00341796875 C 1278.078857421875 1539.853393554688 1276.980102539063 1538.180541992188 1276.355224609375 1536.030517578125 C 1275.965942382813 1534.691284179688 1275.754760742188 1533.122436523438 1275.7275390625 1531.367797851563 C 1275.723510742188 1531.105102539063 1275.723510742188 1530.842529296875 1275.72705078125 1530.581298828125 L 1272.316040039063 1530.628051757813 L 1272.316040039063 1525.558959960938 L 1272.316040039063 1403.697998046875 L 1272.316040039063 1398.697998046875 L 1277.11962890625 1398.697998046875 C 1277.2236328125 1397.021850585938 1277.328369140625 1395.084594726563 1277.417358398438 1393.439086914063 C 1278.056030273438 1381.61279296875 1279.021240234375 1363.740356445313 1281.86328125 1348.369018554688 C 1283.502197265625 1339.5048828125 1285.51806640625 1332.734985351563 1288.026245117188 1327.672607421875 C 1289.608276367188 1324.479370117188 1291.351196289063 1322.030029296875 1293.354736328125 1320.184814453125 C 1295.850219726563 1317.886474609375 1298.673095703125 1316.6171875 1301.744995117188 1316.412109375 C 1302.518432617188 1316.360473632813 1303.286010742188 1316.334350585938 1304.026611328125 1316.334350585938 C 1306.955810546875 1316.334350585938 1309.660522460938 1316.742797851563 1312.065673828125 1317.548583984375 C 1314.630004882813 1318.40771484375 1316.887939453125 1319.724609375 1318.77685546875 1321.462768554688 C 1321.759033203125 1324.20703125 1323.801635742188 1327.974853515625 1324.847778320313 1332.661865234375 C 1325.642822265625 1336.224243164063 1325.69775390625 1339.587036132813 1325.730224609375 1341.59765625 L 1325.732543945313 1341.728515625 C 1325.740966796875 1342.196655273438 1325.74951171875 1342.680786132813 1325.766967773438 1342.890625 C 1325.826904296875 1343.607666015625 1325.927856445313 1344.813720703125 1324.280029296875 1354.830932617188 C 1323.305419921875 1360.756225585938 1321.974365234375 1368.1982421875 1320.532348632813 1375.785888671875 C 1319.095092773438 1383.348388671875 1315.867065429688 1399.8564453125 1313.445556640625 1408.728881835938 C 1315.84375 1410.246704101563 1318.091674804688 1411.914794921875 1320.159790039063 1413.713256835938 C 1323.271850585938 1416.41943359375 1325.972778320313 1419.416748046875 1328.187377929688 1422.6220703125 C 1330.47314453125 1425.930419921875 1332.239501953125 1429.45849609375 1333.437377929688 1433.108276367188 C 1334.6826171875 1436.902587890625 1335.31396484375 1440.831176757813 1335.31396484375 1444.785034179688 C 1335.31396484375 1448.179565429688 1334.842529296875 1451.56494140625 1333.910278320313 1454.878173828125 L 1333.973266601563 1454.989990234375 L 1333.204956054688 1457.138427734375 L 1333.110107421875 1457.403686523438 C 1333.052368164063 1457.566040039063 1332.997802734375 1457.697875976563 1332.96044921875 1457.785400390625 C 1332.672973632813 1458.565673828125 1332.3603515625 1459.338012695313 1332.029052734375 1460.0869140625 C 1332.01220703125 1460.125732421875 1331.99560546875 1460.16455078125 1331.978881835938 1460.203491210938 C 1331.922241210938 1460.335815429688 1331.858032226563 1460.485717773438 1331.780517578125 1460.654418945313 C 1331.347900390625 1461.59375 1330.91455078125 1462.455078125 1330.453857421875 1463.291870117188 C 1330.352661132813 1463.475708007813 1330.257446289063 1463.634887695313 1330.181030273438 1463.762817382813 C 1330.150634765625 1463.813720703125 1330.119873046875 1463.864379882813 1330.090698242188 1463.915649414063 L 1330.085205078125 1463.92529296875 L 1330.07958984375 1463.934936523438 C 1329.71484375 1464.568725585938 1329.338500976563 1465.188354492188 1328.961059570313 1465.776489257813 L 1328.957275390625 1465.782470703125 L 1328.953369140625 1465.788452148438 C 1328.737426757813 1466.123046875 1328.518920898438 1466.453002929688 1328.30419921875 1466.76904296875 L 1328.298583984375 1466.777465820313 L 1328.29296875 1466.78564453125 C 1327.978393554688 1467.244995117188 1327.636108398438 1467.721313476563 1327.215698242188 1468.28466796875 C 1326.84326171875 1468.784912109375 1326.453979492188 1469.285522460938 1326.061401367188 1469.768920898438 C 1325.721069335938 1470.188598632813 1325.311157226563 1470.688232421875 1324.866088867188 1471.193725585938 C 1324.5126953125 1471.594970703125 1324.16650390625 1471.96630859375 1323.782836914063 1472.375610351563 L 1323.776733398438 1472.382080078125 L 1323.770751953125 1472.388549804688 C 1323.49609375 1472.679321289063 1323.19970703125 1472.98486328125 1322.864624023438 1473.322387695313 L 1322.79345703125 1473.394287109375 C 1322.432983398438 1473.7578125 1322.060180664063 1474.1337890625 1321.64453125 1474.524169921875 C 1321.430908203125 1474.724975585938 1321.227294921875 1474.905029296875 1321.04736328125 1475.06396484375 C 1320.972045898438 1475.130493164063 1320.896728515625 1475.196899414063 1320.822265625 1475.263793945313 C 1320.02783203125 1475.9794921875 1319.21484375 1476.669067382813 1318.408935546875 1477.310913085938 L 1318.409057617188 1477.310913085938 C 1318.12939453125 1477.534057617188 1317.797119140625 1477.797607421875 1317.45166015625 1478.060791015625 C 1317.392700195313 1478.105712890625 1317.314208984375 1478.168701171875 1317.231079101563 1478.2353515625 C 1317.068603515625 1478.365844726563 1316.866455078125 1478.528076171875 1316.631225585938 1478.700439453125 L 1316.397827148438 1478.872436523438 L 1315.863159179688 1479.266357421875 C 1315.919677734375 1479.85205078125 1315.9296875 1480.461791992188 1315.892944335938 1481.0947265625 C 1315.8095703125 1482.533081054688 1315.512817382813 1483.934204101563 1315.091674804688 1485.586181640625 C 1313.614990234375 1492.130981445313 1308.068115234375 1496.210693359375 1300.085083007813 1496.726318359375 L 1300.111572265625 1496.833618164063 L 1300.112426757813 1496.8369140625 L 1300.11328125 1496.84033203125 L 1300.115478515625 1496.849731445313 C 1300.525024414063 1498.513793945313 1301.377075195313 1501.976440429688 1301.840454101563 1505.568359375 C 1302.529174804688 1510.908569335938 1302.13818359375 1514.630737304688 1300.610107421875 1517.282592773438 C 1299.66552734375 1518.917846679688 1298.730590820313 1520.305053710938 1297.73388671875 1521.543212890625 C 1297.472534179688 1525.280639648438 1296.903198242188 1532.26904296875 1296.13134765625 1535.230102539063 C 1295.235961914063 1538.66650390625 1292.724243164063 1541.411254882813 1289.41259765625 1542.571655273438 C 1288.308959960938 1542.958618164063 1287.157470703125 1543.155029296875 1285.990966796875 1543.155029296875 Z"/>
      <path class="cls-4" d="M 1285.990966796875 1538.155029296875 C 1286.5849609375 1538.155029296875 1287.180053710938 1538.056030273438 1287.759033203125 1537.85302734375 C 1289.496948242188 1537.244018554688 1290.817993164063 1535.7919921875 1291.29296875 1533.968994140625 C 1292.10205078125 1530.864990234375 1292.744995117188 1521.306030273438 1292.85595703125 1519.5439453125 C 1294.2900390625 1518.003051757813 1295.380981445313 1516.338989257813 1296.277954101563 1514.786010742188 C 1298.453979492188 1511.010009765625 1296.047973632813 1501.244995117188 1295.258056640625 1498.035034179688 L 1295.161010742188 1497.642944335938 C 1294.573974609375 1495.233032226563 1293.694946289063 1491.675048828125 1293.694946289063 1491.675048828125 L 1293.633056640625 1491.52099609375 C 1293.610473632813 1491.4814453125 1293.55322265625 1491.373046875 1293.528076171875 1491.369140625 C 1293.525390625 1491.3701171875 1293.52294921875 1491.37109375 1293.52099609375 1491.371948242188 C 1293.522583007813 1491.369995117188 1293.524536132813 1491.369018554688 1293.526733398438 1491.369018554688 C 1293.527221679688 1491.369018554688 1293.527587890625 1491.369018554688 1293.528076171875 1491.369140625 C 1293.559448242188 1491.357543945313 1293.640991210938 1491.335815429688 1293.80126953125 1491.335815429688 C 1293.958984375 1491.335815429688 1294.19287109375 1491.356811523438 1294.530029296875 1491.428955078125 C 1295.431274414063 1491.619506835938 1296.787475585938 1491.781982421875 1298.33447265625 1491.781982421875 C 1302.819458007813 1491.781982421875 1308.914916992188 1490.418334960938 1310.22802734375 1484.423950195313 C 1310.8759765625 1481.892944335938 1311.365966796875 1479.487060546875 1310.256958007813 1477.879028320313 C 1310.100952148438 1477.651977539063 1309.916015625 1477.451049804688 1309.70703125 1477.27001953125 C 1310.985961914063 1476.501953125 1312.218994140625 1475.691040039063 1313.401000976563 1474.838012695313 L 1313.432006835938 1474.847045898438 L 1313.675048828125 1474.66796875 C 1313.932983398438 1474.47900390625 1314.1689453125 1474.276000976563 1314.421020507813 1474.083984375 C 1314.714965820313 1473.859985351563 1315.003051757813 1473.631958007813 1315.2900390625 1473.402954101563 C 1316.046020507813 1472.801025390625 1316.774047851563 1472.181030273438 1317.47900390625 1471.546020507813 C 1317.725952148438 1471.323974609375 1317.98095703125 1471.10595703125 1318.222045898438 1470.879028320313 C 1318.598022460938 1470.526000976563 1318.9560546875 1470.162963867188 1319.316040039063 1469.800048828125 C 1319.593017578125 1469.52099609375 1319.866943359375 1469.239990234375 1320.135009765625 1468.9560546875 C 1320.465942382813 1468.60302734375 1320.796020507813 1468.25 1321.113037109375 1467.890014648438 C 1321.48095703125 1467.472045898438 1321.83203125 1467.046020507813 1322.180053710938 1466.616943359375 C 1322.534057617188 1466.181030273438 1322.8759765625 1465.740966796875 1323.2080078125 1465.295043945313 C 1323.536987304688 1464.85400390625 1323.859008789063 1464.411010742188 1324.16796875 1463.9599609375 C 1324.366943359375 1463.6669921875 1324.56201171875 1463.371948242188 1324.753051757813 1463.076049804688 C 1325.098999023438 1462.536987304688 1325.428955078125 1461.991943359375 1325.745971679688 1461.441040039063 C 1325.85302734375 1461.253051757813 1325.969970703125 1461.068969726563 1326.073974609375 1460.880004882813 C 1326.491943359375 1460.120971679688 1326.876953125 1459.348999023438 1327.237060546875 1458.567016601563 C 1327.31103515625 1458.406005859375 1327.379028320313 1458.241943359375 1327.449951171875 1458.078979492188 C 1327.756958007813 1457.385986328125 1328.038940429688 1456.68603515625 1328.297973632813 1455.97705078125 C 1328.328979492188 1455.891967773438 1328.369995117188 1455.81103515625 1328.400024414063 1455.725952148438 L 1328.496948242188 1455.454956054688 L 1328.493041992188 1455.447998046875 C 1329.673950195313 1452.045043945313 1330.31396484375 1448.473022460938 1330.31396484375 1444.785034179688 C 1330.31396484375 1430.822998046875 1321.276000976563 1418.472045898438 1307.505981445313 1411.0439453125 C 1311.141967773438 1401.2919921875 1321.08203125 1346.864990234375 1320.784057617188 1343.303955078125 C 1320.7509765625 1342.905029296875 1320.743041992188 1342.35205078125 1320.73095703125 1341.682006835938 C 1320.6689453125 1337.849975585938 1320.537963867188 1329.878051757813 1315.390991210938 1325.141967773438 C 1312.642456054688 1322.612670898438 1308.82470703125 1321.334350585938 1304.026611328125 1321.334350585938 C 1303.393798828125 1321.334350585938 1302.744750976563 1321.3564453125 1302.078002929688 1321.401000976563 C 1286.258056640625 1322.45703125 1283.659057617188 1370.5810546875 1282.410034179688 1393.708984375 C 1282.159057617188 1398.35205078125 1281.93896484375 1402.4169921875 1281.702026367188 1403.534057617188 C 1280.93603515625 1403.555053710938 1279.505981445313 1403.6240234375 1277.890991210938 1403.7099609375 C 1277.698974609375 1403.7080078125 1277.509033203125 1403.697998046875 1277.316040039063 1403.697998046875 L 1277.316040039063 1525.558959960938 C 1278.625 1525.541015625 1279.953979492188 1525.433959960938 1281.296020507813 1525.25 C 1280.828979492188 1527.786987304688 1279.807983398438 1534.906005859375 1282.609008789063 1536.994018554688 C 1283.636962890625 1537.760009765625 1284.81103515625 1538.155029296875 1285.990966796875 1538.155029296875 M 1299.406005859375 1482.116943359375 C 1298.19287109375 1483.007568359375 1296.876342773438 1483.452880859375 1295.464111328125 1483.452880859375 C 1295.387329101563 1483.452880859375 1295.310424804688 1483.451538085938 1295.233032226563 1483.448974609375 C 1296.655029296875 1483.052001953125 1298.0439453125 1482.60400390625 1299.406005859375 1482.116943359375 M 1285.990966796875 1548.155029296875 C 1282.628540039063 1548.155029296875 1279.392944335938 1547.068481445313 1276.634033203125 1545.012817382813 C 1273.16357421875 1542.425659179688 1271.214233398438 1538.450805664063 1270.799072265625 1533.143798828125 C 1270.625854492188 1532.994873046875 1270.457153320313 1532.839599609375 1270.293579101563 1532.67822265625 C 1268.388549804688 1530.799072265625 1267.316040039063 1528.23486328125 1267.316040039063 1525.558959960938 L 1267.316040039063 1403.697998046875 C 1267.316040039063 1399.99267578125 1269.331420898438 1396.758056640625 1272.325561523438 1395.0302734375 C 1272.357299804688 1394.427612304688 1272.390258789063 1393.804321289063 1272.424560546875 1393.169311523438 C 1274.704223632813 1350.95849609375 1278.636596679688 1312.943481445313 1301.411987304688 1311.423217773438 C 1302.306518554688 1311.363525390625 1303.177612304688 1311.334350585938 1304.026611328125 1311.334350585938 C 1313.223876953125 1311.334350585938 1318.965454101563 1314.841430664063 1322.16259765625 1317.783569335938 C 1330.46923828125 1325.427124023438 1330.651733398438 1336.70458984375 1330.729614257813 1341.520263671875 L 1330.75341796875 1342.525756835938 C 1331.177734375 1347.592651367188 1323.643310546875 1387.927124023438 1319.11572265625 1406.521362304688 C 1332.520874023438 1416.135375976563 1340.31396484375 1429.992797851563 1340.31396484375 1444.785034179688 C 1340.31396484375 1449.497192382813 1339.515380859375 1454.187744140625 1337.9404296875 1458.726440429688 C 1337.860717773438 1458.955932617188 1337.626953125 1459.590942382813 1337.53076171875 1459.814086914063 C 1337.35546875 1460.326416015625 1336.990356445313 1461.232421875 1336.592895507813 1462.12939453125 C 1335.860229492188 1463.748779296875 1335.367553710938 1464.734130859375 1334.833740234375 1465.703491210938 C 1334.015991210938 1467.119140625 1333.602416992188 1467.802001953125 1333.168823242188 1468.477416992188 L 1332.440551757813 1469.578247070313 L 1331.223876953125 1471.27392578125 L 1329.94287109375 1472.9208984375 L 1328.619506835938 1474.4970703125 L 1327.430908203125 1475.794921875 L 1326.413452148438 1476.844604492188 L 1325.0673828125 1478.168823242188 C 1325.01513671875 1478.217895507813 1324.219360351563 1478.933349609375 1324.166137695313 1478.981323242188 C 1323.317504882813 1479.74560546875 1322.43505859375 1480.49658203125 1321.51904296875 1481.225952148438 L 1320.857421875 1481.744018554688 C 1320.701171875 1483.835327148438 1320.235961914063 1485.65283203125 1319.915649414063 1486.904052734375 C 1318.427734375 1493.7177734375 1313.35205078125 1498.707397460938 1306.106811523438 1500.755493164063 C 1307.51708984375 1507.927856445313 1307.876586914063 1514.68701171875 1304.942260742188 1519.779052734375 C 1304.17578125 1521.10595703125 1303.409790039063 1522.296020507813 1302.61474609375 1523.390014648438 C 1302.27880859375 1527.873779296875 1301.7314453125 1533.568603515625 1300.9697265625 1536.4912109375 C 1299.653930664063 1541.541015625 1295.951538085938 1545.578369140625 1291.066040039063 1547.290405273438 C 1289.430297851563 1547.863891601563 1287.72216796875 1548.155029296875 1285.990966796875 1548.155029296875 Z"/>
    </g>
    <text id="_9" data-name="9" class="cls-2" transform="translate(1285.145 1454.235)"><tspan x="0" y="0">9</tspan></text>
  </g>
</svg>
