<svg xmlns="http://www.w3.org/2000/svg" width="93.139" height="173.285" viewBox="0 0 93.139 173.285">
  <defs>
    <style>
      .cls-1 {
        stroke-linejoin: round;
      }

      .cls-2, .cls-4 {
        fill: #fff;
      }

      .cls-2 {
        font-size: 43.304px;
        font-family: TimesNewRomanPS-BoldMT, Times New Roman;
        font-weight: 700;
      }

      .cls-3, .cls-4 {
        stroke: none;
      }
    </style>
  </defs>
  <g id="组_3796" data-name="组 3796" transform="translate(-1142.706 -1372.114)">
    <g id="路径_10301" data-name="路径 10301" class="cls-1">
      <path class="cls-3" d="M 1217.383056640625 1540.399047851563 C 1217.271118164063 1540.399047851563 1217.155517578125 1540.396850585938 1217.039428710938 1540.392456054688 C 1215.162109375 1540.322509765625 1213.066650390625 1539.509399414063 1210.634887695313 1537.906616210938 C 1208.828857421875 1536.71630859375 1207.039916992188 1535.202514648438 1205.726806640625 1533.753295898438 C 1204.724731445313 1532.648681640625 1203.97412109375 1531.58740234375 1203.433959960938 1530.510864257813 C 1202.70458984375 1529.057250976563 1202.378540039063 1527.592407226563 1202.465087890625 1526.157104492188 C 1202.58251953125 1524.22119140625 1203.423095703125 1521.915649414063 1205.110595703125 1518.899658203125 C 1205.2255859375 1518.6943359375 1205.341674804688 1518.490600585938 1205.458251953125 1518.289184570313 C 1203.833618164063 1516.8134765625 1202.487670898438 1514.991088867188 1201.442016601563 1512.847045898438 C 1200.290405273438 1510.485717773438 1199.495483398438 1507.700317382813 1199.079223632813 1504.568237304688 C 1198.678955078125 1501.557006835938 1198.617065429688 1498.197387695313 1198.891967773438 1494.530883789063 C 1194.83056640625 1494.453247070313 1191.305541992188 1493.886352539063 1188.401489257813 1492.842895507813 C 1181.936645507813 1490.519653320313 1179.67431640625 1486.271240234375 1178.914916992188 1483.1162109375 L 1178.84716796875 1482.8349609375 L 1178.812377929688 1482.5478515625 L 1178.79541015625 1482.407836914063 L 1178.759033203125 1482.108032226563 L 1178.759033203125 1481.806030273438 C 1178.759033203125 1480.227416992188 1178.964721679688 1478.89892578125 1179.3876953125 1477.744750976563 C 1180.209716796875 1475.502319335938 1181.68359375 1474.361694335938 1182.775268554688 1473.799560546875 C 1183.373291015625 1473.491943359375 1184.002319335938 1473.278442382813 1184.65576171875 1473.160522460938 C 1184.5869140625 1473.107299804688 1184.5185546875 1473.054321289063 1184.450439453125 1473.001220703125 C 1183.726928710938 1472.436401367188 1182.996704101563 1471.834228515625 1182.151489257813 1471.105346679688 C 1182.049194335938 1471.01708984375 1181.947875976563 1470.928100585938 1181.846801757813 1470.839233398438 L 1181.752319335938 1470.756225585938 L 1181.74951171875 1470.753784179688 L 1181.746704101563 1470.751342773438 C 1178.032470703125 1467.484375 1175.153198242188 1464.094360351563 1173.184936523438 1460.671752929688 C 1167.277709960938 1452.20263671875 1164.156982421875 1442.467895507813 1164.156982421875 1432.503051757813 C 1164.156982421875 1430.679931640625 1164.267456054688 1428.83544921875 1164.486572265625 1426.986328125 C 1162.360107421875 1426.011474609375 1160.387084960938 1424.899780273438 1158.58984375 1423.66259765625 C 1156.154541015625 1421.986083984375 1154.035888671875 1420.077758789063 1152.292724609375 1417.990478515625 C 1149.56494140625 1414.724243164063 1147.788940429688 1410.96875 1147.740112304688 1408.379028320313 L 1147.732543945313 1408.1220703125 C 1147.60888671875 1404.590942382813 1147.853881835938 1399.255981445313 1149.716552734375 1393.85888671875 C 1150.823974609375 1390.650512695313 1152.380981445313 1387.803466796875 1154.344360351563 1385.397338867188 C 1156.707275390625 1382.50146484375 1159.660766601563 1380.235107421875 1163.122802734375 1378.661254882813 C 1165.380126953125 1377.634521484375 1167.714721679688 1377.113647460938 1170.060913085938 1377.113647460938 C 1172.091430664063 1377.113647460938 1174.125122070313 1377.50537109375 1176.105346679688 1378.278076171875 C 1181.41259765625 1380.345947265625 1185.637817382813 1384.834106445313 1188.742065429688 1389.313232421875 C 1199.35205078125 1382.301391601563 1212.242919921875 1378.489013671875 1225.620971679688 1378.489013671875 C 1225.736206054688 1378.489013671875 1225.831420898438 1378.492065429688 1225.891479492188 1378.494018554688 L 1230.844970703125 1378.494018554688 L 1230.844970703125 1383.494018554688 L 1230.844970703125 1521.240966796875 L 1230.844970703125 1526.492919921875 L 1225.599365234375 1526.234985351563 C 1225.28466796875 1526.219482421875 1224.969970703125 1526.199096679688 1224.655517578125 1526.174072265625 C 1225.446411132813 1527.143920898438 1226.04931640625 1528.081420898438 1226.42626953125 1529.094848632813 L 1226.42724609375 1529.097534179688 L 1226.42822265625 1529.10009765625 C 1226.89306640625 1530.354125976563 1226.996215820313 1531.731079101563 1226.726440429688 1533.081909179688 C 1226.495727539063 1534.237182617188 1226.008666992188 1535.335815429688 1225.278930664063 1536.347412109375 C 1224.387329101563 1537.58056640625 1223.189086914063 1538.604614257813 1221.810913085938 1539.312744140625 C 1220.427734375 1540.0234375 1218.896606445313 1540.399047851563 1217.383056640625 1540.399047851563 Z"/>
      <path class="cls-4" d="M 1217.383056640625 1535.399047851563 C 1218.85302734375 1535.399047851563 1220.347045898438 1534.635009765625 1221.223999023438 1533.421997070313 C 1221.843017578125 1532.56396484375 1222.031005859375 1531.623046875 1221.739990234375 1530.838012695313 C 1221.338989257813 1529.760009765625 1219.77001953125 1528.1669921875 1218.509033203125 1526.885986328125 C 1218.06103515625 1526.431030273438 1217.515014648438 1525.876953125 1217.324951171875 1525.631958007813 C 1217.485961914063 1524.733032226563 1218.883056640625 1520.987060546875 1219.39501953125 1520.112060546875 C 1221.628051757813 1520.791015625 1223.77294921875 1521.139038085938 1225.844970703125 1521.240966796875 L 1225.844970703125 1383.494018554688 C 1225.77001953125 1383.494018554688 1225.696044921875 1383.489013671875 1225.620971679688 1383.489013671875 C 1210.85205078125 1383.489013671875 1197.39599609375 1388.442993164063 1187.322998046875 1396.529052734375 C 1184.943969726563 1392.196044921875 1180.364990234375 1385.303955078125 1174.287963867188 1382.93603515625 C 1172.882446289063 1382.3876953125 1171.47021484375 1382.113647460938 1170.060913085938 1382.113647460938 C 1168.429931640625 1382.113647460938 1166.802856445313 1382.480224609375 1165.192016601563 1383.213012695313 C 1153.343994140625 1388.598999023438 1152.530029296875 1402.316040039063 1152.72998046875 1407.963012695313 L 1152.739013671875 1408.27001953125 C 1152.739013671875 1409.822998046875 1156.010009765625 1418.899047851563 1170.057006835938 1423.847045898438 C 1169.47705078125 1426.659057617188 1169.156982421875 1429.547973632813 1169.156982421875 1432.503051757813 C 1169.156982421875 1441.8330078125 1172.178955078125 1450.56201171875 1177.413940429688 1457.994018554688 C 1178.9560546875 1460.732055664063 1181.420043945313 1463.805053710938 1185.048950195313 1466.996948242188 C 1185.171020507813 1467.10400390625 1185.29296875 1467.212036132813 1185.4169921875 1467.318969726563 C 1186.086059570313 1467.89599609375 1186.779052734375 1468.475952148438 1187.526000976563 1469.058959960938 C 1188.48095703125 1469.803955078125 1189.447998046875 1470.496948242188 1190.420043945313 1471.161010742188 C 1190.720947265625 1471.365966796875 1191.030029296875 1471.557983398438 1191.3349609375 1471.758056640625 C 1192.016967773438 1472.203979492188 1192.699951171875 1472.639038085938 1193.387939453125 1473.047973632813 C 1193.567993164063 1473.156005859375 1193.738037109375 1473.276977539063 1193.9189453125 1473.381958007813 L 1194.129028320313 1473.504028320313 L 1194.162963867188 1473.495971679688 C 1198.516967773438 1475.996948242188 1202.942993164063 1477.7900390625 1207.237060546875 1479.050048828125 C 1206.885009765625 1479.357055664063 1206.651000976563 1479.697021484375 1206.552978515625 1480.079956054688 C 1206.503051757813 1480.251953125 1206.322998046875 1480.870971679688 1206.0810546875 1481.817993164063 C 1204.197021484375 1481.829956054688 1198.233032226563 1482.848999023438 1195.446044921875 1483.463989257813 C 1195.172119140625 1483.524658203125 1194.904663085938 1483.552734375 1194.64453125 1483.552856445313 C 1192.553955078125 1483.553100585938 1190.909423828125 1481.736938476563 1189.6669921875 1480.369995117188 C 1189.18798828125 1479.843017578125 1188.807983398438 1479.426025390625 1188.45703125 1479.175048828125 C 1187.905029296875 1478.7802734375 1186.886108398438 1478.051635742188 1185.886108398438 1478.051635742188 C 1185.607055664063 1478.051635742188 1185.329467773438 1478.1083984375 1185.06396484375 1478.244995117188 C 1184.18603515625 1478.697021484375 1183.759033203125 1479.860961914063 1183.759033203125 1481.806030273438 L 1183.776000976563 1481.946044921875 C 1185.31298828125 1488.3310546875 1193.718994140625 1489.5400390625 1199.866943359375 1489.5400390625 C 1201.713012695313 1489.5400390625 1203.344970703125 1489.431030273438 1204.536987304688 1489.321044921875 C 1203.151977539063 1498.110961914063 1202.719970703125 1510.670043945313 1210.131958007813 1515.612060546875 C 1210.845947265625 1516.087036132813 1211.547973632813 1516.51904296875 1212.244995117188 1516.927001953125 C 1211.08203125 1518.612060546875 1207.614990234375 1523.836059570313 1207.4560546875 1526.4580078125 C 1207.390014648438 1527.552978515625 1208.055053710938 1528.878051757813 1209.432006835938 1530.39599609375 C 1211.516967773438 1532.697021484375 1215.2939453125 1535.323974609375 1217.22705078125 1535.39599609375 C 1217.279052734375 1535.39794921875 1217.3310546875 1535.399047851563 1217.383056640625 1535.399047851563 M 1217.383056640625 1545.399047851563 C 1217.2568359375 1545.399047851563 1216.974487304688 1545.3935546875 1216.848388671875 1545.388793945313 C 1209.479614257813 1545.114379882813 1202.76318359375 1537.928955078125 1202.021606445313 1537.110595703125 C 1198.771240234375 1533.52734375 1197.239990234375 1529.739501953125 1197.474243164063 1525.856079101563 C 1197.534545898438 1524.8603515625 1197.659301757813 1522.802490234375 1199.412231445313 1519.047729492188 C 1196.248046875 1514.874633789063 1193.795654296875 1508.6015625 1193.730102539063 1499.177001953125 C 1179.456176757813 1497.380004882813 1175.266357421875 1489.323974609375 1174.0537109375 1484.286376953125 C 1173.963500976563 1483.91162109375 1173.89501953125 1483.531860351563 1173.8486328125 1483.149169921875 C 1173.80029296875 1482.75 1173.759033203125 1482.208129882813 1173.759033203125 1481.806030273438 C 1173.759033203125 1477.597045898438 1174.97998046875 1474.686401367188 1176.499389648438 1472.694213867188 C 1173.236694335938 1469.538818359375 1170.780395507813 1466.470825195313 1168.9619140625 1463.356567382813 C 1162.546020507813 1454.085327148438 1159.156982421875 1443.427124023438 1159.156982421875 1432.503051757813 C 1159.156982421875 1431.645874023438 1159.178955078125 1430.784912109375 1159.222778320313 1429.921264648438 C 1147.349853515625 1423.322143554688 1142.739013671875 1413.655395507813 1142.739013671875 1408.27001953125 C 1142.171508789063 1392.368041992188 1149.019165039063 1379.580200195313 1161.0537109375 1374.109497070313 C 1163.96435546875 1372.785522460938 1166.99560546875 1372.113647460938 1170.060913085938 1372.113647460938 C 1172.715698242188 1372.113647460938 1175.360717773438 1372.620483398438 1177.922729492188 1373.619995117188 C 1182.754638671875 1375.502807617188 1186.759521484375 1378.931274414063 1189.966064453125 1382.705932617188 C 1200.56103515625 1376.7138671875 1212.892456054688 1373.489013671875 1225.620971679688 1373.489013671875 C 1231.143798828125 1373.489013671875 1235.844970703125 1377.97119140625 1235.844970703125 1383.494018554688 L 1235.844970703125 1521.240966796875 C 1235.844970703125 1523.978393554688 1234.722778320313 1526.59619140625 1232.740234375 1528.483642578125 C 1232.401489257813 1528.80615234375 1232.042846679688 1529.102294921875 1231.667236328125 1529.371337890625 C 1232.28515625 1532.743041992188 1231.465087890625 1536.318603515625 1229.333740234375 1539.272827148438 C 1226.558471679688 1543.11181640625 1222.093017578125 1545.399047851563 1217.383056640625 1545.399047851563 Z"/>
    </g>
    <text id="_8" data-name="8" class="cls-2" transform="translate(1193.909 1448.209)"><tspan x="0" y="0">8</tspan></text>
  </g>
</svg>
