<svg xmlns="http://www.w3.org/2000/svg" width="72.998" height="236.044" viewBox="0 0 72.998 236.044">
  <defs>
    <style>
      .cls-1 {
        stroke-linejoin: round;
      }

      .cls-2, .cls-4 {
        fill: #fff;
      }

      .cls-2 {
        font-size: 43.305px;
        font-family: TimesNewRomanPS-BoldMT, Times New Roman;
        font-weight: 700;
      }

      .cls-3, .cls-4 {
        stroke: none;
      }
    </style>
  </defs>
  <g id="组_3802" data-name="组 3802" transform="translate(-210.774 -1310.711)">
    <g id="路径_10307" data-name="路径 10307" class="cls-1">
      <path class="cls-3" d="M 261.1180114746094 1541.755004882813 C 259.602294921875 1541.755004882813 258.0985107421875 1541.383911132813 256.768798828125 1540.681762695313 L 256.768798828125 1540.681762695313 C 254.3320617675781 1539.396850585938 252.5969085693359 1537.086181640625 252.0802307128906 1534.554931640625 C 251.9131164550781 1534.332885742188 251.7485961914063 1534.088012695313 251.5898895263672 1533.817504882813 C 249.9876251220703 1531.595336914063 249.3009338378906 1528.3974609375 249.4340057373047 1523.825927734375 C 249.4874267578125 1521.990966796875 249.6697692871094 1520.213012695313 249.8493499755859 1518.837158203125 C 249.1647491455078 1517.759521484375 248.6122283935547 1516.606689453125 248.1983489990234 1515.39013671875 C 247.6142883300781 1513.673461914063 247.3031311035156 1511.859252929688 247.2470703125 1509.843872070313 C 247.2139892578125 1508.654907226563 247.2742309570313 1507.478393554688 247.3912506103516 1506.3271484375 C 247.1307983398438 1506.344482421875 246.8675689697266 1506.353149414063 246.6024169921875 1506.353149414063 C 243.9847564697266 1506.353149414063 241.5468292236328 1505.46826171875 239.7377014160156 1503.861450195313 C 237.8057556152344 1502.146118164063 236.7539520263672 1499.62890625 236.7765350341797 1496.774169921875 C 236.7866821289063 1495.491333007813 237.0084991455078 1494.397583007813 237.1748657226563 1493.75390625 C 237.8041229248047 1489.545288085938 239.9008483886719 1485.960571289063 243.2774505615234 1483.302978515625 C 240.8305816650391 1482.100952148438 238.4977111816406 1480.753173828125 236.2888031005859 1479.2646484375 L 236.1474761962891 1479.329223632813 L 233.7624816894531 1477.502319335938 L 233.4714813232422 1477.279418945313 C 232.8515472412109 1476.804443359375 232.3025970458984 1476.339233398438 231.7717590332031 1475.889404296875 C 231.6777954101563 1475.809692382813 231.5838470458984 1475.730102539063 231.4897308349609 1475.650634765625 L 231.4718933105469 1475.635620117188 L 231.4598541259766 1475.625732421875 C 231.4076385498047 1475.583251953125 231.3556976318359 1475.540649414063 231.3047637939453 1475.49755859375 L 231.2978820800781 1475.49169921875 L 231.291015625 1475.48583984375 C 230.7600860595703 1475.033203125 230.216796875 1474.547241210938 229.6303558349609 1474.000610351563 C 229.5037841796875 1473.88330078125 229.3898620605469 1473.773803710938 229.2891387939453 1473.676879882813 C 229.2532958984375 1473.642456054688 229.2174530029297 1473.608032226563 229.1814117431641 1473.573608398438 C 228.1283874511719 1472.56884765625 227.1368255615234 1471.539672851563 226.2350006103516 1470.515014648438 C 226.2234802246094 1470.502197265625 226.2115478515625 1470.4892578125 226.1996612548828 1470.476196289063 C 226.1557006835938 1470.428100585938 226.1118927001953 1470.379760742188 226.0686950683594 1470.3310546875 L 226.0515441894531 1470.311767578125 L 226.0345764160156 1470.292236328125 C 225.5910339355469 1469.78173828125 225.1492309570313 1469.248168945313 224.6839141845703 1468.661254882813 L 224.6793212890625 1468.655517578125 L 224.6747283935547 1468.649658203125 C 224.5496978759766 1468.490966796875 224.4334106445313 1468.338256835938 224.3307952880859 1468.20361328125 C 224.2869110107422 1468.14599609375 224.2430419921875 1468.08837890625 224.1988525390625 1468.030883789063 L 224.1941680908203 1468.024780273438 L 224.1895141601563 1468.018676757813 C 223.5243835449219 1467.147338867188 222.8910064697266 1466.2509765625 222.3069763183594 1465.354858398438 C 222.2660522460938 1465.292358398438 222.2249145507813 1465.22998046875 222.1838226318359 1465.16748046875 C 222.0185699462891 1464.916625976563 221.8312530517578 1464.632202148438 221.6435089111328 1464.326293945313 C 221.3916015625 1463.915649414063 221.1361846923828 1463.47900390625 220.8392944335938 1462.951416015625 C 220.5787048339844 1462.490234375 220.3152465820313 1461.99609375 220.0105438232422 1461.397094726563 L 220.0072021484375 1461.390502929688 L 220.0038604736328 1461.383911132813 C 219.9587249755859 1461.294555664063 219.912109375 1461.205810546875 219.8655700683594 1461.116821289063 C 219.7495880126953 1460.895141601563 219.6183471679688 1460.644287109375 219.4828186035156 1460.356079101563 C 219.1004943847656 1459.548706054688 218.7316741943359 1458.683715820313 218.3554229736328 1457.711791992188 L 218.3554229736328 1457.711791992188 C 218.2452239990234 1457.42822265625 218.1476287841797 1457.15625 218.0615081787109 1456.916381835938 L 218.0418701171875 1456.861694335938 C 217.74560546875 1456.040893554688 217.4784088134766 1455.218383789063 217.2470397949219 1454.4150390625 C 217.2173156738281 1454.328857421875 217.1740417480469 1454.19921875 217.1298522949219 1454.042114257813 L 217.123291015625 1454.018798828125 L 217.116943359375 1453.995361328125 L 217.0459747314453 1453.7333984375 L 217.0436401367188 1453.724853515625 L 217.0413513183594 1453.716186523438 C 216.2004089355469 1450.567626953125 215.7740173339844 1447.329223632813 215.7740173339844 1444.090942382813 C 215.7740173339844 1440.465576171875 216.3056335449219 1436.853515625 217.3541717529297 1433.355102539063 C 218.3659210205078 1429.979370117188 219.8639526367188 1426.692138671875 221.806640625 1423.584716796875 C 223.6903228759766 1420.571655273438 225.999755859375 1417.71533203125 228.6707305908203 1415.095092773438 C 230.3571472167969 1413.440673828125 232.1916046142578 1411.876586914063 234.1517181396484 1410.42041015625 C 232.9553070068359 1405.040771484375 230.0377960205078 1391.088989257813 228.2708282470703 1375.56298828125 C 227.0182647705078 1364.557006835938 226.5991058349609 1354.92236328125 227.0249481201172 1346.926513671875 C 227.2839202880859 1342.06396484375 227.8639526367188 1337.725341796875 228.7488861083984 1334.031127929688 C 229.7854766845703 1329.703857421875 231.2849426269531 1326.087646484375 233.20556640625 1323.282958984375 C 236.1256713867188 1319.02001953125 240.1730651855469 1316.418334960938 244.9105987548828 1315.7587890625 L 245.253662109375 1315.711059570313 L 245.6000061035156 1315.711059570313 L 245.6060028076172 1315.711059570313 C 248.6339111328125 1315.711059570313 251.4810791015625 1316.325317382813 254.0683288574219 1317.536987304688 C 256.4124145507813 1318.634643554688 258.5492248535156 1320.22705078125 260.4193725585938 1322.269897460938 C 263.3395385742188 1325.459716796875 265.6490783691406 1329.790771484375 267.2837829589844 1335.142822265625 C 269.8660888671875 1343.597290039063 270.0035400390625 1352.096923828125 270.0088195800781 1353.412841796875 L 271.4580993652344 1398.04296875 C 272.2361450195313 1398.01708984375 273.0081787109375 1398.004028320313 273.7720031738281 1398.004028320313 L 278.7720031738281 1398.004028320313 L 278.7720031738281 1403.004028320313 L 278.7720031738281 1524.864990234375 L 278.7720031738281 1529.78076171875 L 273.9044799804688 1529.863525390625 L 273.89892578125 1529.86376953125 C 273.7987976074219 1529.869506835938 273.6311950683594 1529.879028320313 273.427001953125 1529.879028320313 C 272.9397888183594 1529.879028320313 272.4544372558594 1529.868896484375 271.9718322753906 1529.848876953125 C 272.0607299804688 1530.68408203125 272.0515441894531 1531.530883789063 271.9384155273438 1532.3583984375 C 271.7381591796875 1533.823120117188 271.2288208007813 1535.202880859375 270.424560546875 1536.459228515625 C 269.5701599121094 1537.7939453125 268.4002685546875 1538.955078125 266.9473571777344 1539.91064453125 C 265.087158203125 1541.13427734375 263.1257019042969 1541.755004882813 261.1180114746094 1541.755004882813 Z"/>
      <path class="cls-4" d="M 261.1180114746094 1536.755004882813 C 261.9830017089844 1536.755004882813 263.0280151367188 1536.504028320313 264.2000122070313 1535.733032226563 C 267.885986328125 1533.308959960938 267.2210083007813 1529.822998046875 266.3550109863281 1528.319946289063 C 265.8460083007813 1527.43701171875 264.8090209960938 1527.031005859375 264.1800231933594 1526.859008789063 L 264.1149597167969 1523.317016601563 C 267.0010070800781 1524.342041015625 270.1440124511719 1524.879028320313 273.427001953125 1524.879028320313 C 273.5409851074219 1524.879028320313 273.657958984375 1524.866943359375 273.7720031738281 1524.864990234375 L 273.7720031738281 1403.004028320313 C 271.3480224609375 1403.004028320313 268.9670104980469 1403.141967773438 266.6289978027344 1403.387939453125 L 265.0090026855469 1353.5 C 265.0090026855469 1352.161010742188 264.7909851074219 1320.711059570313 245.6060028076172 1320.711059570313 L 245.6000061035156 1320.711059570313 C 242.2460174560547 1321.177978515625 239.4640045166016 1322.994018554688 237.3310089111328 1326.108032226563 C 224.1390075683594 1345.371948242188 238.8820037841797 1408.766967773438 239.5160064697266 1411.4560546875 L 239.6280059814453 1411.68994140625 C 239.8010101318359 1411.910034179688 240.0090026855469 1412.112060546875 240.2120056152344 1412.317016601563 C 228.35400390625 1419.858032226563 220.7740173339844 1431.300048828125 220.7740173339844 1444.090942382813 C 220.7740173339844 1446.946044921875 221.1530151367188 1449.734008789063 221.8720092773438 1452.426025390625 L 221.9430084228516 1452.68798828125 C 221.968017578125 1452.776977539063 222.0040130615234 1452.863037109375 222.0290069580078 1452.952026367188 C 222.2420043945313 1453.698974609375 222.4830169677734 1454.43896484375 222.7470092773438 1455.170043945313 C 222.8350067138672 1455.4150390625 222.9220123291016 1455.659057617188 223.0160064697266 1455.901000976563 C 223.3190155029297 1456.683959960938 223.6430053710938 1457.458984375 224.0040130615234 1458.220947265625 C 224.1480102539063 1458.527954101563 224.3140106201172 1458.827026367188 224.4670104980469 1459.130004882813 C 224.7010040283203 1459.589965820313 224.9410095214844 1460.046997070313 225.1960144042969 1460.498046875 C 225.4250030517578 1460.905029296875 225.6590118408203 1461.31005859375 225.9050140380859 1461.711059570313 C 226.0940093994141 1462.01904296875 226.2970123291016 1462.321044921875 226.4960174560547 1462.625 C 227.0180053710938 1463.426025390625 227.5740051269531 1464.212036132813 228.1640167236328 1464.984985351563 C 228.3100128173828 1465.175048828125 228.4530029296875 1465.365966796875 228.6020050048828 1465.555053710938 C 228.9920043945313 1466.046997070313 229.3920135498047 1466.532958984375 229.8090057373047 1467.012939453125 C 229.8650054931641 1467.076049804688 229.9230041503906 1467.137939453125 229.97900390625 1467.201049804688 C 230.8110046386719 1468.14697265625 231.6980133056641 1469.06396484375 232.6340026855469 1469.95703125 C 232.7670135498047 1470.083984375 232.8980102539063 1470.212036132813 233.0340118408203 1470.338012695313 C 233.5220031738281 1470.79296875 234.0200042724609 1471.241943359375 234.5350036621094 1471.681030273438 C 234.5940093994141 1471.73095703125 234.656005859375 1471.779052734375 234.7150115966797 1471.829956054688 C 235.3050079345703 1472.328002929688 235.8880157470703 1472.83203125 236.5120086669922 1473.31005859375 L 236.8030090332031 1473.532958984375 L 236.8380126953125 1473.516967773438 C 241.6580047607422 1477.154052734375 247.3620147705078 1480.087036132813 253.6780090332031 1482.100952148438 L 252.6030120849609 1484.316040039063 C 250.9250030517578 1484.68505859375 243.0890045166016 1486.823974609375 242.0810089111328 1494.775024414063 C 242.0350036621094 1494.91796875 240.989013671875 1498.286010742188 243.0580139160156 1500.123046875 C 244.0694427490234 1501.021362304688 245.3914031982422 1501.353149414063 246.6024627685547 1501.353149414063 C 247.8651580810547 1501.353149414063 249.0073547363281 1500.992797851563 249.5530090332031 1500.537963867188 C 249.9980163574219 1500.1669921875 250.3720092773438 1499.14794921875 251.0500030517578 1497.23095703125 C 251.5810089111328 1495.73095703125 252.6840057373047 1492.612060546875 253.2930145263672 1492.43701171875 C 253.7640075683594 1492.443969726563 254.0250091552734 1492.473022460938 254.1380157470703 1492.609008789063 C 254.6980133056641 1493.284057617188 254.0560150146484 1497.079956054688 253.8140106201172 1498.510009765625 C 253.6570129394531 1499.43798828125 253.4670104980469 1500.389038085938 253.2760162353516 1501.35400390625 C 252.2000122070313 1506.755981445313 250.9950103759766 1512.828002929688 255.1000061035156 1517.532958984375 C 254.7640075683594 1519.487060546875 253.4240112304688 1528.232055664063 255.791015625 1531.0810546875 C 256.0910034179688 1531.682006835938 256.4000244140625 1531.912963867188 256.6910095214844 1532.098999023438 C 256.8250122070313 1532.18505859375 256.9070129394531 1532.235961914063 256.9209594726563 1533.038940429688 C 256.9440002441406 1534.288940429688 257.8190002441406 1535.5830078125 259.1010131835938 1536.259033203125 C 259.5490112304688 1536.495971679688 260.2399597167969 1536.755004882813 261.1180114746094 1536.755004882813 M 261.1180114746094 1546.755004882813 C 258.788330078125 1546.755004882813 256.4740600585938 1546.182250976563 254.4254302978516 1545.0986328125 C 250.9647369384766 1543.273681640625 248.4679107666016 1540.188110351563 247.4400024414063 1536.635498046875 C 245.9642333984375 1534.612060546875 243.5940856933594 1530.074096679688 244.6778869628906 1519.8759765625 C 243.1236572265625 1516.860473632813 242.4663848876953 1513.747924804688 242.3023529052734 1510.7744140625 C 240.1066436767578 1510.16552734375 238.0931854248047 1509.088256835938 236.417236328125 1507.599731445313 C 231.6390228271484 1503.357177734375 231.1693267822266 1497.156372070313 232.2772216796875 1492.711303710938 C 232.7838287353516 1489.607177734375 233.8898620605469 1486.922973632813 235.3829345703125 1484.634765625 C 234.0544128417969 1483.807250976563 232.763916015625 1482.934936523438 231.5122985839844 1482.01806640625 C 231.2419128417969 1481.849853515625 230.9781494140625 1481.667724609375 230.7223968505859 1481.471801757813 C 229.7770538330078 1480.747680664063 229.1569366455078 1480.227294921875 228.5400543212891 1479.70458984375 C 227.4187774658203 1478.755004882813 226.8106231689453 1478.207763671875 226.2152099609375 1477.652587890625 C 224.5809326171875 1476.094970703125 223.4923248291016 1474.967529296875 222.4702453613281 1473.805419921875 C 221.743896484375 1472.977294921875 221.2485046386719 1472.376342773438 220.7658996582031 1471.767578125 C 219.4731292724609 1470.080444335938 218.7743225097656 1469.091918945313 218.1178894042969 1468.084594726563 L 217.382080078125 1466.941772460938 L 216.4808197021484 1465.401611328125 L 215.5541229248047 1463.664306640625 L 214.9504699707031 1462.467529296875 C 214.5011596679688 1461.519409179688 214.0809326171875 1460.520263671875 213.6900177001953 1459.510009765625 C 213.6606292724609 1459.434204101563 213.3632049560547 1458.626953125 213.3357086181641 1458.550415039063 C 212.9996185302734 1457.619873046875 212.6881713867188 1456.661499023438 212.412353515625 1455.694213867188 C 211.2573547363281 1451.437133789063 210.7740173339844 1447.7646484375 210.7740173339844 1444.090942382813 C 210.7740173339844 1430.570922851563 217.1760101318359 1417.9052734375 228.5788116455078 1408.435668945313 C 224.0469818115234 1387.632690429688 215.7008056640625 1339.995483398438 229.0802001953125 1320.457885742188 C 232.8170471191406 1315.002319335938 238.0525054931641 1311.665283203125 244.2211608886719 1310.806518554688 C 244.6780548095703 1310.743041992188 245.1387481689453 1310.711059570313 245.6000061035156 1310.711059570313 C 265.9154968261719 1310.711059570313 275.0090026855469 1332.20166015625 275.0090026855469 1353.5 L 276.3065795898438 1393.328002929688 C 280.6020202636719 1394.4501953125 283.7720031738281 1398.35693359375 283.7720031738281 1403.004028320313 L 283.7720031738281 1524.864990234375 C 283.7720031738281 1529.392700195313 280.7604675292969 1533.226928710938 276.617919921875 1534.453979492188 C 275.7804870605469 1538.0478515625 273.5931091308594 1541.5244140625 269.6947326660156 1544.088134765625 C 267.0430908203125 1545.83251953125 264.076904296875 1546.755004882813 261.1180114746094 1546.755004882813 Z"/>
    </g>
    <path id="路径_10308" data-name="路径 10308" d="M273.772,1524.865V1403a68.206,68.206,0,0,0-7.143.384l-1.62-49.888c0-1.339-.218-32.789-19.4-32.789H245.6a11.8,11.8,0,0,0-8.269,5.4c-13.192,19.264,1.551,82.659,2.185,85.348l.112.234a7.588,7.588,0,0,0,.584.627c-11.858,7.541-19.438,18.983-19.438,31.774a32.228,32.228,0,0,0,1.1,8.335l.071.262c.025.089.061.175.086.264.213.747.454,1.487.718,2.218.088.245.175.489.269.731.3.783.627,1.558.988,2.32.144.307.31.606.463.909.234.46.474.917.729,1.368.229.407.463.812.709,1.213.189.308.392.61.591.914q.783,1.2,1.668,2.36c.146.19.289.381.438.57.39.492.79.978,1.207,1.458.056.063.114.125.17.188q1.248,1.419,2.655,2.756c.133.127.264.255.4.381.488.455.986.9,1.5,1.343.059.05.121.1.18.149.59.5,1.173,1,1.8,1.48l.291.223.035-.016a56.4,56.4,0,0,0,16.84,8.584l-1.075,2.215c-1.678.369-9.514,2.508-10.522,10.459-.046.143-1.092,3.511.977,5.348a5.733,5.733,0,0,0,6.495.415c.445-.371.819-1.39,1.5-3.307.531-1.5,1.634-4.619,2.243-4.794.471.007.732.036.845.172.56.675-.082,4.471-.324,5.9-.157.928-.347,1.879-.538,2.844-1.076,5.4-2.281,11.474,1.824,16.179-.336,1.954-1.676,10.7.691,13.548a2.279,2.279,0,0,0,.9,1.018c.134.086.216.137.23.94a3.944,3.944,0,0,0,2.18,3.22,4.313,4.313,0,0,0,2.017.5,5.571,5.571,0,0,0,3.082-1.022c3.686-2.424,3.021-5.91,2.155-7.413a3.582,3.582,0,0,0-2.175-1.461l-.065-3.542a27.8,27.8,0,0,0,9.312,1.562C273.541,1524.879,273.658,1524.867,273.772,1524.865Z"/>
    <text id="_1" data-name="1" class="cls-2" transform="translate(247.01 1458.756)"><tspan x="0" y="0">1</tspan></text>
  </g>
</svg>
