<svg xmlns="http://www.w3.org/2000/svg" width="94.046" height="177.01" viewBox="0 0 94.046 177.01">
  <defs>
    <style>
      .cls-1 {
        fill: #fff;
        font-size: 51.966px;
        font-family: TimesNewRomanPS-BoldMT, Times New Roman;
        font-weight: 700;
      }
    </style>
  </defs>
  <g id="组_3816" data-name="组 3816" transform="translate(-750.098 -1097.585)">
    <path id="路径_10322" data-name="路径 10322" d="M806.765,1097.585a37.432,37.432,0,0,0-36.788,30.807c-7.109-2.73-13.33-3.441-15.8-3.227-4.137-3.251.354-10.253.4-10.325l.6-.921-1.084-.182a15.361,15.361,0,0,0-4-.171v151.021c1.012.085,2.014.139,2.983.139.2,0,.4-.007.6-.011a38.011,38.011,0,0,0,.558,6.829c.623,2.3,5.272,3.051,8.969,3.051a18.079,18.079,0,0,0,3.752-.328,3.232,3.232,0,0,0,2.462-2.08c.626-1.762-.124-4.208-2.057-6.71-2.411-3.118-1.44-5.394-1.385-5.516l.159-.331c.35-.27.671-.545.965-.818a7.23,7.23,0,0,0,3.056,2.317,7.393,7.393,0,0,0,7.172-.881,4.31,4.31,0,0,1,3.56-.882c1.012.268,2.524,1.212,3.974,4.189a4.82,4.82,0,0,0,2.607,2.668l.806.248.119-.834c.014-.1.319-2.426-1.51-6.291a9.2,9.2,0,0,0-5.326-4.806,8.593,8.593,0,0,0-6.833.669,3.467,3.467,0,0,1-3.078.388,4.3,4.3,0,0,1-1.929-2.665c.247-3.009.191-8.659.108-12.615,1.741,4.5,4.309,10.513,5.882,11.288,1.205.6,2.97.189,4.489-1.035,1.171-.946,2.288-2.5,1.907-4.034-.479-1.922-7.026-13.353-9.546-17.71a87.665,87.665,0,0,0,18.495-4.793c.435-.176.87-.366,1.3-.562.149-.066.295-.133.44-.2.266-.124.53-.254.794-.386q.68-.337,1.316-.692l.091-.05c12.864-7.208,12.913-19.3,10.441-28.576l-.112-.42-.032-.007a55.762,55.762,0,0,0-2.014-5.945c-2.193-5.486-.885-11.165-.258-13.893.107-.466.193-.841.238-1.108l0-.02c1.152.107,2.317.169,3.5.169a37.379,37.379,0,1,0,0-74.757Z"/>
    <text id="_5" data-name="5" class="cls-1" transform="translate(762.991 1196.496)"><tspan x="0" y="0">5</tspan></text>
  </g>
</svg>
