<svg xmlns="http://www.w3.org/2000/svg" width="133.239" height="199.857" viewBox="0 0 133.239 199.857">
  <defs>
    <style>
      .cls-1 {
        stroke-linejoin: round;
      }

      .cls-2, .cls-4 {
        fill: #fff;
      }

      .cls-2 {
        font-size: 43.305px;
        font-family: TimesNewRomanPS-BoldMT, Times New Roman;
        font-weight: 700;
      }

      .cls-3, .cls-4 {
        stroke: none;
      }
    </style>
  </defs>
  <g id="组_3814" data-name="组 3814" transform="translate(-998.347 -1356.267)">
    <g id="路径_10320" data-name="路径 10320" class="cls-1">
      <path class="cls-3" d="M 1024.1240234375 1551.1240234375 C 1023.452209472656 1551.1240234375 1022.801147460938 1551.0849609375 1022.18896484375 1551.0078125 C 1021.545349121094 1550.9267578125 1020.932250976563 1550.779052734375 1020.356689453125 1550.568115234375 C 1020.134521484375 1550.582275390625 1019.908996582031 1550.58935546875 1019.681701660156 1550.58935546875 C 1017.714172363281 1550.58935546875 1015.799133300781 1550.072143554688 1014.5390625 1549.63818359375 C 1012.60791015625 1548.973266601563 1011.164123535156 1548.163452148438 1010.247741699219 1547.231567382813 L 1010.243286132813 1547.22705078125 L 1010.238891601563 1547.222534179688 C 1009.477661132813 1546.444458007813 1008.34765625 1544.82666015625 1008.548645019531 1542.20849609375 C 1008.504455566406 1542.209350585938 1008.460388183594 1542.2099609375 1008.416198730469 1542.210571289063 L 1003.346984863281 1542.28076171875 L 1003.346984863281 1537.211059570313 L 1003.346984863281 1368.994018554688 L 1003.346984863281 1363.935913085938 L 1008.404724121094 1363.994384765625 C 1014.775939941406 1364.06787109375 1021.039794921875 1365.207641601563 1027.022338867188 1367.381713867188 C 1031.034057617188 1368.839599609375 1034.875244140625 1370.745483398438 1038.495239257813 1373.070922851563 C 1038.91845703125 1372.484619140625 1039.3857421875 1371.881103515625 1039.899780273438 1371.2724609375 C 1042.931396484375 1367.68310546875 1046.617553710938 1365.002807617188 1050.855712890625 1363.30615234375 C 1054.232543945313 1361.953125 1057.910278320313 1361.266723632813 1061.785278320313 1361.266723632813 C 1065.130004882813 1361.266723632813 1068.684936523438 1361.780639648438 1072.351440429688 1362.794189453125 C 1075.901000976563 1363.775390625 1079.64794921875 1365.2509765625 1083.48828125 1367.179931640625 C 1091.2265625 1371.068115234375 1097.95068359375 1375.498901367188 1103.474609375 1380.349487304688 C 1108.431640625 1384.7021484375 1112.452758789063 1389.35888671875 1115.767822265625 1394.585571289063 C 1121.791381835938 1404.08251953125 1124.059326171875 1413.382690429688 1125.881713867188 1420.85546875 L 1125.882446289063 1420.858642578125 L 1125.88330078125 1420.861938476563 L 1126.090087890625 1421.714965820313 C 1127.129760742188 1425.964477539063 1126.884033203125 1430.92626953125 1125.35986328125 1436.462646484375 C 1124.040893554688 1441.253295898438 1121.824584960938 1446.306518554688 1118.772338867188 1451.48193359375 C 1115.911376953125 1456.332763671875 1112.382080078125 1461.126831054688 1108.565795898438 1465.345581054688 C 1104.634399414063 1469.691650390625 1100.401733398438 1473.417724609375 1096.325317382813 1476.120971679688 C 1092.099243164063 1478.923583984375 1086.749877929688 1481.3251953125 1080.85546875 1483.06591796875 C 1074.8125 1484.8505859375 1068.66064453125 1485.7939453125 1063.06494140625 1485.7939453125 C 1061.931030273438 1485.7939453125 1060.82373046875 1485.75439453125 1059.74560546875 1485.675537109375 C 1059.739868164063 1485.913696289063 1059.720825195313 1486.153442382813 1059.688232421875 1486.39404296875 C 1059.599853515625 1487.059204101563 1059.392211914063 1488.5966796875 1058.491821289063 1490.101684570313 C 1057.877563476563 1491.128540039063 1057.06005859375 1491.963500976563 1056.062133789063 1492.583251953125 C 1055.4560546875 1492.959716796875 1054.800048828125 1493.245849609375 1054.100341796875 1493.439819335938 C 1053.584350585938 1493.771728515625 1053.023803710938 1494.079711914063 1052.423217773438 1494.361328125 C 1049.068115234375 1495.935791015625 1044.632568359375 1496.601684570313 1041.424072265625 1496.724609375 C 1041.607055664063 1497.390869140625 1041.790771484375 1498.075805664063 1041.973510742188 1498.773193359375 L 1041.974975585938 1498.778564453125 L 1041.976318359375 1498.783935546875 C 1042.161376953125 1499.496215820313 1042.420654296875 1500.353393554688 1042.694946289063 1501.260864257813 L 1042.7080078125 1501.303833007813 C 1044.392211914063 1506.880493164063 1046.936767578125 1515.305419921875 1043.0146484375 1522.44775390625 L 1042.86962890625 1522.711791992188 L 1042.693969726563 1522.956420898438 C 1041.305053710938 1524.891723632813 1039.500854492188 1526.630004882813 1037.310302734375 1528.147094726563 C 1037.330932617188 1529.786254882813 1037.329345703125 1531.743530273438 1037.265380859375 1533.676513671875 C 1037.167358398438 1536.635864257813 1036.950439453125 1538.671264648438 1036.686889648438 1540.125 C 1037.104614257813 1540.873657226563 1037.29248046875 1541.423950195313 1037.403198242188 1541.829345703125 L 1037.406127929688 1541.840087890625 L 1037.409057617188 1541.850830078125 C 1037.987182617188 1544.0048828125 1037.31201171875 1546.277099609375 1035.60302734375 1547.929077148438 C 1034.287841796875 1549.201782226563 1031.892822265625 1550.488037109375 1029.511596679688 1550.488037109375 C 1029.388916015625 1550.488037109375 1029.266723632813 1550.484741210938 1029.145385742188 1550.478149414063 C 1028.47705078125 1550.651733398438 1026.4443359375 1551.1240234375 1024.1240234375 1551.1240234375 Z"/>
      <path class="cls-4" d="M 1061.785278320313 1366.266723632813 C 1058.540405273438 1366.2666015625 1055.513061523438 1366.826416015625 1052.713989257813 1367.947998046875 C 1044.623046875 1371.18701171875 1041.041015625 1378.056030273438 1040.051025390625 1380.31298828125 C 1031.166015625 1373.316040039063 1020.20703125 1369.130981445313 1008.346923828125 1368.994018554688 L 1008.346923828125 1537.211059570313 C 1010.223999023438 1537.18505859375 1012.096923828125 1536.998046875 1013.828002929688 1536.691040039063 C 1013.89208984375 1536.678955078125 1013.948974609375 1536.661987304688 1014.010986328125 1536.650024414063 C 1014.117919921875 1537.76904296875 1014.260986328125 1538.85205078125 1014.425048828125 1539.806030273438 L 1014.406005859375 1539.847045898438 C 1013.762939453125 1541.235961914063 1013.137939453125 1543.036010742188 1013.81298828125 1543.725952148438 C 1014.476440429688 1544.400634765625 1017.470947265625 1545.58935546875 1019.681762695313 1545.58935546875 C 1019.833618164063 1545.58935546875 1019.981567382813 1545.583740234375 1020.125 1545.572021484375 C 1020.571044921875 1545.535034179688 1020.9140625 1545.427001953125 1021.177978515625 1545.285034179688 C 1021.557983398438 1545.702026367188 1022.10693359375 1545.9580078125 1022.81396484375 1546.046997070313 C 1023.2509765625 1546.10205078125 1023.692993164063 1546.1240234375 1024.1240234375 1546.1240234375 C 1026.123046875 1546.1240234375 1027.89697265625 1545.637939453125 1027.988037109375 1545.612060546875 L 1028.316040039063 1545.52099609375 L 1028.405029296875 1545.192993164063 C 1028.41796875 1545.14697265625 1028.428955078125 1545.10400390625 1028.441040039063 1545.058959960938 C 1028.663940429688 1545.235961914063 1028.885009765625 1545.369018554688 1029.0810546875 1545.427978515625 C 1029.212280273438 1545.46923828125 1029.357543945313 1545.488037109375 1029.511596679688 1545.488037109375 C 1030.395751953125 1545.488037109375 1031.574462890625 1544.86962890625 1032.128051757813 1544.333984375 C 1032.635009765625 1543.843994140625 1032.652954101563 1543.4189453125 1032.579956054688 1543.14697265625 C 1032.410034179688 1542.525024414063 1031.636962890625 1541.511962890625 1031.261962890625 1541.045043945313 C 1032.517944335938 1538.29296875 1032.359985351563 1528.923950195313 1032.2490234375 1525.391967773438 C 1034.95703125 1523.925048828125 1037.129028320313 1522.135009765625 1038.631958007813 1520.041015625 C 1041.54296875 1514.739990234375 1039.449951171875 1507.81005859375 1037.921997070313 1502.7509765625 C 1037.6259765625 1501.77197265625 1037.349975585938 1500.860961914063 1037.136962890625 1500.041015625 C 1035.829956054688 1495.055053710938 1034.633056640625 1491.344970703125 1034.237060546875 1490.663940429688 C 1034.238037109375 1490.651000976563 1034.261962890625 1490.594970703125 1034.362060546875 1490.5439453125 C 1034.448974609375 1490.501098632813 1034.566650390625 1490.475463867188 1034.713500976563 1490.475463867188 C 1035.080322265625 1490.475463867188 1035.629516601563 1490.635375976563 1036.338012695313 1491.086059570313 C 1037.033569335938 1491.5283203125 1038.525390625 1491.745971679688 1040.345336914063 1491.745971679688 C 1043.48828125 1491.745971679688 1047.610107421875 1491.096801757813 1050.301025390625 1489.833984375 C 1051.02001953125 1489.496948242188 1051.610961914063 1489.129028320313 1052.078979492188 1488.734008789063 C 1054.327026367188 1488.5830078125 1054.60498046875 1486.68994140625 1054.733032226563 1485.725952148438 C 1054.782958984375 1485.364013671875 1054.692993164063 1485.032958984375 1054.473999023438 1484.766967773438 C 1054.27001953125 1484.52099609375 1053.982055664063 1484.370971679688 1053.68896484375 1484.280029296875 C 1053.8310546875 1483.958984375 1053.961059570313 1483.536987304688 1054.057006835938 1482.982055664063 C 1054.29296875 1481.629028320313 1053.317993164063 1480.984985351563 1052.755004882813 1480.693969726563 C 1052.9150390625 1480.142944335938 1052.81298828125 1479.666015625 1052.649047851563 1479.239013671875 C 1055.738037109375 1480.302978515625 1059.29296875 1480.7939453125 1063.06494140625 1480.7939453125 C 1073.693969726563 1480.7939453125 1085.93505859375 1477.011962890625 1093.56201171875 1471.953979492188 C 1108.927978515625 1461.764038085938 1124.714965820313 1437.129028320313 1121.233032226563 1422.901977539063 L 1121.024047851563 1422.0400390625 C 1117.4580078125 1407.4169921875 1112.573974609375 1387.390014648438 1081.244018554688 1371.64794921875 C 1074.109252929688 1368.064208984375 1067.598999023438 1366.266845703125 1061.785278320313 1366.266723632813 M 1036.141235351563 1478.285034179688 C 1035.613403320313 1478.285034179688 1035.072509765625 1478.24462890625 1034.517944335938 1478.155029296875 C 1034.64794921875 1477.60400390625 1034.766967773438 1477.057983398438 1034.876953125 1476.52197265625 C 1036.219970703125 1475.697021484375 1037.526000976563 1474.816040039063 1038.7919921875 1473.8759765625 L 1038.81005859375 1473.892944335938 L 1039.222045898438 1473.58203125 C 1039.447998046875 1473.410034179688 1039.663940429688 1473.223022460938 1039.887939453125 1473.048950195313 C 1040.150024414063 1472.843994140625 1040.409057617188 1472.635009765625 1040.6669921875 1472.426025390625 C 1041.1259765625 1472.052978515625 1041.58203125 1471.677001953125 1042.031005859375 1471.287963867188 C 1042.295043945313 1471.058959960938 1042.553955078125 1470.822998046875 1042.81396484375 1470.588989257813 C 1042.8740234375 1470.536010742188 1042.933959960938 1470.483032226563 1042.993041992188 1470.428955078125 C 1043.628051757813 1472.176025390625 1044.56494140625 1473.715942382813 1045.81005859375 1475.036987304688 L 1045.800048828125 1475.0419921875 C 1045.151000976563 1475.255981445313 1044.416015625 1475.618041992188 1043.578979492188 1476.036987304688 C 1041.592895507813 1477.032958984375 1039.078125 1478.285034179688 1036.141235351563 1478.285034179688 M 1061.784423828125 1356.266723632813 C 1061.784545898438 1356.266723632813 1061.78466796875 1356.266723632813 1061.784790039063 1356.266723632813 C 1069.161376953125 1356.266967773438 1077.218627929688 1358.435424804688 1085.732543945313 1362.7119140625 C 1121.1943359375 1380.530029296875 1126.938354492188 1404.084350585938 1130.7392578125 1419.670776367188 C 1135.98681640625 1441.1201171875 1115.78857421875 1469.213500976563 1099.088745117188 1480.287963867188 C 1089.629516601563 1486.56103515625 1075.807495117188 1490.65234375 1063.69580078125 1490.790405273438 C 1062.171142578125 1494.627075195313 1059.276245117188 1496.888305664063 1056.289306640625 1497.964477539063 C 1055.736328125 1498.294677734375 1055.154296875 1498.603149414063 1054.545532226563 1498.888549804688 C 1052.481323242188 1499.857177734375 1050.141967773438 1500.539184570313 1047.83544921875 1500.993408203125 C 1049.651611328125 1507.10009765625 1052.021362304688 1516.433959960938 1047.397338867188 1524.854370117188 C 1047.204223632813 1525.206176757813 1046.989990234375 1525.546020507813 1046.755981445313 1525.871948242188 C 1045.524047851563 1527.58837890625 1044.043823242188 1529.169921875 1042.32861328125 1530.605224609375 C 1042.315551757813 1534.49609375 1042.127197265625 1537.319946289063 1041.8623046875 1539.405029296875 C 1042.004638671875 1539.7744140625 1042.125610351563 1540.142578125 1042.226440429688 1540.51171875 C 1043.294311523438 1544.489868164063 1042.112915039063 1548.590698242188 1039.077758789063 1551.5244140625 C 1037.127075195313 1553.411987304688 1033.642578125 1555.431518554688 1029.678344726563 1555.48681640625 C 1028.375732421875 1555.777954101563 1026.367065429688 1556.1240234375 1024.1240234375 1556.1240234375 C 1023.281616210938 1556.1240234375 1022.417846679688 1556.076171875 1021.563720703125 1555.968505859375 C 1020.906860351563 1555.885864257813 1020.26806640625 1555.759033203125 1019.650024414063 1555.58935546875 C 1015.66162109375 1555.580444335938 1009.773193359375 1553.880493164063 1006.682495117188 1550.737060546875 C 1005.739135742188 1549.77294921875 1004.628295898438 1548.28662109375 1004.012573242188 1546.222900390625 C 1003.027709960938 1545.749267578125 1002.118041992188 1545.113037109375 1001.324951171875 1544.330932617188 C 999.4195556640625 1542.451782226563 998.346923828125 1539.88720703125 998.346923828125 1537.211059570313 L 998.346923828125 1368.994018554688 C 998.346923828125 1366.321899414063 999.4163818359375 1363.760864257813 1001.316772460938 1361.882202148438 C 1003.189697265625 1360.030883789063 1005.71630859375 1358.994140625 1008.3466796875 1358.994018554688 C 1008.385375976563 1358.994018554688 1008.423706054688 1358.994262695313 1008.46240234375 1358.994750976563 C 1018.661743164063 1359.112426757813 1028.492309570313 1361.711181640625 1037.375244140625 1366.584594726563 C 1040.190185546875 1363.60693359375 1043.983154296875 1360.671630859375 1048.997436523438 1358.664306640625 C 1052.966796875 1357.07373046875 1057.27001953125 1356.266723632813 1061.784423828125 1356.266723632813 Z"/>
    </g>
    <text id="_7" data-name="7" class="cls-2" transform="translate(1048.987 1435.682)"><tspan x="0" y="0">7</tspan></text>
  </g>
</svg>
