<svg xmlns="http://www.w3.org/2000/svg" width="87.635" height="201.062" viewBox="0 0 87.635 201.062">
  <defs>
    <style>
      .cls-1 {
        fill: #fff;
        font-size: 43.304px;
        font-family: TimesNewRomanPS-BoldMT, Times New Roman;
        font-weight: 700;
      }
    </style>
  </defs>
  <g id="组_3798" data-name="组 3798" transform="translate(-614.416 -1091.019)">
    <path id="路径_10303" data-name="路径 10303" d="M694.555,1280.412l-.084-4.514a32.337,32.337,0,0,0,7.58,1.7V1104.586c-.32.584-.616,1.144-.889,1.66-.336.633-.713,1.346-1.046,1.91,2.024-9.377,2.15-14.431.43-16.306a2.755,2.755,0,0,0-2.591-.788c-10.1,2.841-11.465,16.852-11.639,19.7-3.126.6-20.225,4.074-28.8,10.326a69.121,69.121,0,0,0-30.876,54.056,58.1,58.1,0,0,0-8.48,1.223c-3.141.641-3.69,2.671-3.737,3.824-.122,2.982,2.769,6.571,6.066,7.529,1.371.4,2.288.714,2.9.955a11.414,11.414,0,0,0-4.706,3.484,3.947,3.947,0,0,0-1.166,3.909c.774,2.446,4.3,3.778,5.476,4.052a3.852,3.852,0,0,0,1.868-.124c-.148.273-.371.659-.709,1.2a7.482,7.482,0,0,0-.615,7.4c.991,1.766,2.918,2.737,5.433,2.737h.053a7.939,7.939,0,0,0,6.659-3.177c.585-.662.976-1.083,1.418-1.19,9.862,13.4,25.39,17.164,30.005,17.59a21.536,21.536,0,0,0,4.03,10.448,13.144,13.144,0,0,0-2.886,6.805c-.054.167-1.29,4.141,1.139,6.3a6.739,6.739,0,0,0,7.642.495c.51-.425.956-1.637,1.764-3.921.564-1.6,2.063-5.836,2.806-5.836h0a2.973,2.973,0,0,1,.841.094c.146.193.293.386.453.587.309,1.225-.118,4.188-.552,6.752-.188,1.116-.416,2.26-.646,3.417-1.29,6.479-2.739,13.765,2.2,19.381-.336,1.972-2.031,12.852.8,16.237a2.616,2.616,0,0,0,1.044,1.187c.2.129.315.2.333,1.228a4.618,4.618,0,0,0,2.552,3.765,5.066,5.066,0,0,0,2.366.58,6.586,6.586,0,0,0,3.637-1.207c4.352-2.863,3.57-6.971,2.549-8.743A4.3,4.3,0,0,0,694.555,1280.412Z"/>
    <text id="_4" data-name="4" class="cls-1" transform="translate(658.218 1186.09)"><tspan x="0" y="0">4</tspan></text>
  </g>
</svg>
