<svg xmlns="http://www.w3.org/2000/svg" width="89.337" height="201.248" viewBox="0 0 89.337 201.248">
  <defs>
    <style>
      .cls-1 {
        fill: #fff;
        font-size: 43.304px;
        font-family: TimesNewRomanPS-BoldMT, Times New Roman;
        font-weight: 700;
      }
    </style>
  </defs>
  <g id="组_3806" data-name="组 3806" transform="translate(-877.106 -1090.926)">
    <g id="组_3805" data-name="组 3805">
      <path id="路径_10311" data-name="路径 10311" d="M877.106,1106.287c1.793-8.66,1.847-13.4.2-15.194a2.352,2.352,0,0,0-.2-.167Z"/>
      <path id="路径_10312" data-name="路径 10312" d="M966.4,1165.366a5.325,5.325,0,0,0-2.3-4.3c-2.938-1.883-7.514-.276-7.752-.188a15.341,15.341,0,0,1-2.734.982c.1-.127.233-.289.421-.491,2.1-2.26,11.408-14.166,10.014-18.034a2,2,0,0,0-1.758-1.316c-4.491-.589-10.556,3.817-12.665,5.479-1.417-4.827-9.063-22.487-27.106-31.485-14.875-7.417-26.56-7.6-30.96-7.672-.222,0-.446-.007-.649-.012,1.357-2.223,4.7-8.285,3.027-11.583-.678-1.339-2.048-2.071-4.069-2.173-6.015-.327-9.731,6.719-11.953,10.918-.261.492-.542,1.014-.813,1.5v169.642a34.9,34.9,0,0,0,5.435.435,38.263,38.263,0,0,0,5.341-.407c-.542,2.869-1.876,11.631,1.5,14.148a6.658,6.658,0,0,0,3.991,1.371,6.263,6.263,0,0,0,2.083-.357,6.585,6.585,0,0,0,4.167-4.582c.838-3.215,1.528-12.229,1.785-15.974.175-.343.35-.7.529-1.071.318-.661.653-1.35,1.035-2.036.652-.839,1.234-1.687,1.764-2.526,1.99-2.217,5.162-3.923,11.125-3.766,12.276.29,15.779-8.8,15.842-9l0-.018a5.29,5.29,0,0,0,1.606-.3c3.243-1.179,4.927-5.266,5.41-7.495.933-4.3-.765-12.829-7.579-14.549-.822-.053-1.815-.027-2.209.641s.068,1.386.438,1.971c.1.164.251.424.29.395a3.053,3.053,0,0,0-.042.362c-.047.648-.146,2-3.505,4.158l-.128.111c-.121.14-2.957,3.451-2.579,7.321a7.8,7.8,0,0,0,3.273,5.453c.225.175.447.308.67.459-2.654,4.576-6.554,4.807-11.068,5.073-3.007.178-6.382.4-9.61,2.035-.039-5.21-1.633-11.683-2.294-14.358l-.111-.452c-.705-2.894-1.76-7.167-1.76-7.167l-.06-.15a1.054,1.054,0,0,1-.112-.337s.255-.183,1.317.044c4.186.889,16.61,1.267,18.712-8.325.771-3.014,1.356-5.876.052-7.765a4.277,4.277,0,0,0-2.265-1.574c.413-2,1.548-2.771,4.755-4.928,1.116-.751,2.463-1.657,4.065-2.81a51.926,51.926,0,0,0,21.942-30.529c.116-.405.222-.777.3-1.033a17.708,17.708,0,0,0,12.266-5.456A10.831,10.831,0,0,0,966.4,1165.366Z"/>
    </g>
    <text id="_6" data-name="6" class="cls-1" transform="translate(895.386 1180.319)"><tspan x="0" y="0">6</tspan></text>
  </g>
</svg>
