<svg xmlns="http://www.w3.org/2000/svg" width="263" height="206.675" viewBox="0 0 263 206.675">
  <defs>
    <style>
      .cls-1 {
        fill: #a7a5a5;
      }

      .cls-2 {
        fill: #c6c4c5;
      }

      .cls-3 {
        fill: #e26537;
      }

      .cls-4 {
        fill: #c3c5c7;
      }

      .cls-5, .cls-7 {
        fill: #fff;
      }

      .cls-5 {
        opacity: 0.442;
      }

      .cls-6 {
        fill: #ece7e6;
      }

      .cls-8 {
        fill: #2b71b0;
      }

      .cls-9 {
        fill: #fcb2a9;
      }

      .cls-10 {
        fill: none;
        stroke: #a7a5a5;
        stroke-miterlimit: 10;
      }

      .cls-11 {
        fill: #ffd977;
      }
    </style>
  </defs>
  <g id="组_12569" data-name="组 12569" transform="translate(-1010.204 -35.453)">
    <g id="组_12569-2" data-name="组 12569" transform="translate(1010.204 35.453)">
      <path id="路径_9831" data-name="路径 9831" class="cls-1" d="M615.385,602.306s-4.553,2.275-13.037-3.519c-2.69,3.036-6.554,13.59-6.347,15.521s8.933,5.692,19.384,3c3.311-.621,1.345,6.726-.725,11.692s-5.9,17.384.172,24.558c5.52,9.38,54.359,15.728,67.05-1.932,3.864-7.036-.275-16.831-1.792-22.626a84.9,84.9,0,0,0-3.294-10.709c-.414-.725.725-2.121,3.414-.414s18,.156,18.626-4.656-4.5-12.314-7.451-12.779c-3,.725-8.846,5.9-16.193,3.1C668.363,602,617.456,597.649,615.385,602.306Z" transform="translate(-514.939 -474.767)"/>
      <path id="路径_9832" data-name="路径 9832" class="cls-1" d="M613.677,641.463s-.575,17.051,1.358,18.707,14.761,3.448,17.521,0c.965-4,1.472-11.681.6-14.119S614.045,638.967,613.677,641.463Z" transform="translate(-508.104 -458.476)"/>
      <path id="路径_9833" data-name="路径 9833" class="cls-1" d="M658.046,641.463s.575,17.051-1.358,18.707-14.761,3.448-17.521,0c-.965-4-1.472-11.681-.6-14.119S657.678,638.967,658.046,641.463Z" transform="translate(-498.583 -458.476)"/>
      <path id="路径_9834" data-name="路径 9834" class="cls-2" d="M638.837,653.8s-1.428,3.089-.819,3.711a12.427,12.427,0,0,0,6.748,1.931c2.482-.207,1.458-2.574,1.458-2.574s-.95,2.781,1.8,3.125a16.792,16.792,0,0,0,5.713-.482s.8-2.947,0-2.8.759,2.321,1.656,2.6,3.38-1.036,3.174-1.794a11.063,11.063,0,0,0-1.587-2.414A17.383,17.383,0,0,1,638.837,653.8Z" transform="translate(-498.681 -453.406)"/>
      <path id="路径_9835" data-name="路径 9835" class="cls-2" d="M633.226,653.8s1.428,3.089.82,3.711a12.437,12.437,0,0,1-6.75,1.931c-2.482-.207-1.458-2.574-1.458-2.574s.951,2.781-1.8,3.125a16.792,16.792,0,0,1-5.713-.482s-.8-2.947,0-2.8-.759,2.321-1.656,2.6-3.379-1.036-3.172-1.794a11.018,11.018,0,0,1,1.585-2.414A17.383,17.383,0,0,0,633.226,653.8Z" transform="translate(-508.146 -453.406)"/>
      <path id="路径_9836" data-name="路径 9836" class="cls-2" d="M659.816,526.086s10.357-28.922,47.041-10.491,41.826,42.18,45.9,58.839-14.886,44.838-31.723,56-52.231,16.541-57.806-2.36S659.816,526.086,659.816,526.086Z" transform="translate(-490.319 -509.453)"/>
      <path id="路径_9837" data-name="路径 9837" class="cls-1" d="M667.314,532.311S674.19,512.886,697.23,526s31.546,25.166,35.268,37.04-3.013,29.952-12.052,38.813-34.466,31.348-47.8,17.357c-4.333-3.858-4.025-5.464-4.025-5.464Z" transform="translate(-487.248 -504.793)"/>
      <path id="路径_9838" data-name="路径 9838" class="cls-2" d="M631.11,526.086s-10.355-28.922-47.041-10.491-41.826,42.18-45.9,58.839,14.888,44.838,31.723,56,52.231,16.541,57.806-2.36S631.11,526.086,631.11,526.086Z" transform="translate(-537.608 -509.453)"/>
      <path id="路径_9839" data-name="路径 9839" class="cls-1" d="M615.869,532.311s-6.876-19.425-29.914-6.311-31.547,25.166-35.269,37.04,3.013,29.952,12.052,38.813,34.466,31.348,47.8,17.357c4.684-3.447,4.023-5.464,4.023-5.464Z" transform="translate(-532.936 -504.793)"/>
      <path id="路径_25660" data-name="路径 25660" class="cls-3" d="M627.865,607.492l-12.685-6.158s.53,22.511-1.54,27.477-7.7,22.046,0,30.8c5.52,9.38,54.359,15.728,67.05-1.933,3.864-7.036-.1-23.078-1.62-28.872S671.481,604,671.481,604l-8.268,3.489s3.285,12.661-18.17,12.709S628.968,605.01,627.865,607.492Z" transform="translate(-513.919 -474.578)"/>
      <ellipse id="椭圆_1611" data-name="椭圆 1611" class="cls-4" cx="62.147" cy="65.987" rx="62.147" ry="65.987" transform="translate(69.678 3.13)"/>
      <path id="路径_25663" data-name="路径 25663" class="cls-5" d="M1169.416,583.463s.612-5.621,3.556-4.918.836,4.918.836,4.918,3.865-2.81,4.743,0-1.054,4.86-2.811,4.626c1.756,1.523,1.756,4.685,0,4.86s-3.865-3.338-3.865-3.338-1.581,3.865-5.27,2.283,1.406-3.806,1.406-3.806-5.448-.761-3.515-4.977S1169.416,583.463,1169.416,583.463Z" transform="translate(-1028.941 -433.913)"/>
      <path id="路径_9840" data-name="路径 9840" class="cls-4" d="M623.72,605.727s2.718,34.826-1.181,48.3,10.1,15.772,21.091,13.823,7.974-13.469,7.266-14.71-4.122-36.159-1.174-47.409A60.727,60.727,0,0,1,623.72,605.727Z" transform="translate(-504.891 -472.073)"/>
      <path id="路径_9841" data-name="路径 9841" class="cls-6" d="M658.885,597.442c0,3.426-2.925,18.786-6.351,18.786s-6.054-15.36-6.054-18.786a6.2,6.2,0,0,1,12.406,0Z" transform="translate(-495.337 -477.698)"/>
      <path id="路径_9842" data-name="路径 9842" class="cls-6" d="M622.258,597.442c0,3.426-2.925,18.786-6.351,18.786s-6.054-15.36-6.054-18.786a6.2,6.2,0,0,1,12.406,0Z" transform="translate(-509.558 -477.698)"/>
      <circle id="椭圆_1612" data-name="椭圆 1612" class="cls-7" cx="10.456" cy="10.456" r="10.456" transform="translate(93.914 82.917)"/>
      <circle id="椭圆_1613" data-name="椭圆 1613" class="cls-8" cx="6.735" cy="6.735" r="6.735" transform="translate(99.672 85.927)"/>
      <circle id="椭圆_1614" data-name="椭圆 1614" class="cls-7" cx="10.456" cy="10.456" r="10.456" transform="translate(148.585 82.917)"/>
      <circle id="椭圆_1615" data-name="椭圆 1615" class="cls-8" cx="6.735" cy="6.735" r="6.735" transform="translate(150.271 85.927)"/>
      <path id="路径_9843" data-name="路径 9843" class="cls-9" d="M669.135,581.2a13.581,13.581,0,0,0-9.5,23.291,65.039,65.039,0,0,0,17.684-20.532A13.5,13.5,0,0,0,669.135,581.2Z" transform="translate(-491.816 -481.596)"/>
      <path id="路径_9844" data-name="路径 9844" class="cls-9" d="M601.787,581.2a13.5,13.5,0,0,0-7.953,2.588,65.046,65.046,0,0,0,17.6,20.567,13.584,13.584,0,0,0-9.644-23.155Z" transform="translate(-515.777 -481.596)"/>
      <path id="路径_9845" data-name="路径 9845" class="cls-10" d="M625.973,618.787a10.753,10.753,0,0,1,17.831,0" transform="translate(-503.299 -468.843)"/>
      <path id="路径_9846" data-name="路径 9846" class="cls-10" d="M625.973,623.949a10.753,10.753,0,0,1,17.831,0" transform="translate(-503.299 -466.839)"/>
      <path id="路径_9847" data-name="路径 9847" class="cls-10" d="M625.973,629.111a10.753,10.753,0,0,1,17.831,0" transform="translate(-503.299 -464.834)"/>
      <path id="路径_9848" data-name="路径 9848" class="cls-10" d="M625.973,634.273a10.753,10.753,0,0,1,17.831,0" transform="translate(-503.299 -462.83)"/>
      <path id="路径_9849" data-name="路径 9849" class="cls-10" d="M625.973,639.435a10.755,10.755,0,0,1,17.831,0" transform="translate(-503.299 -460.826)"/>
      <path id="路径_9850" data-name="路径 9850" class="cls-2" d="M664.79,600.171s3.479-1.953,4.256,0,0,2.639,0,2.639,1.512-.05,1.923.879,1.054,1.71.412,2.833c0,.244,1.992.537,1.694,2.248s-.847,2.076-.984,2.124,1.923-.1,1.763,1.076-.329,3.272-3.448,2.857c0,0-1.688-2.037-.573-3.046a1.6,1.6,0,0,1-1.517-2.206c.618-2.1.548-1.734.548-1.734s-1.487.977-2.2-.489a2.959,2.959,0,0,1,.5-2.918s-2.743-.013-2.721-1.454A15.1,15.1,0,0,1,664.79,600.171Z" transform="translate(-488.361 -474.567)"/>
      <path id="路径_9851" data-name="路径 9851" class="cls-2" d="M603.439,599.044s-3.933-2.069-4.812,0,0,2.795,0,2.795-1.708-.051-2.173.932-1.19,1.81-.466,3c0,.258-2.25.569-1.914,2.38s.958,2.2,1.113,2.25-2.174-.1-1.992,1.138.371,3.466,3.9,3.026c0,0,1.907-2.156.647-3.225,0,0,2.414-.111,1.716-2.336s-.621-1.837-.621-1.837,1.681,1.036,2.484-.516a3,3,0,0,0-.565-3.092s3.1-.012,3.074-1.54A14.964,14.964,0,0,0,603.439,599.044Z" transform="translate(-516.03 -475.024)"/>
      <path id="路径_25661" data-name="路径 25661" class="cls-7" d="M1181.952,595.163s2.049-18.83,11.911-16.475,2.8,16.475,2.8,16.475,12.946-9.414,15.887,0-3.531,16.28-9.415,15.5c5.883,5.1,5.883,15.692,0,16.28s-12.946-11.18-12.946-11.18-5.3,12.946-17.654,7.649,4.709-12.749,4.709-12.749-18.25-2.55-11.774-16.672S1181.952,595.163,1181.952,595.163Z" transform="translate(-1013.9 -574.446)"/>
    </g>
    <path id="路径_25659" data-name="路径 25659" class="cls-5" d="M1168.151,582.282s.467-4.288,2.713-3.752.638,3.752.638,3.752,2.948-2.144,3.618,0-.8,3.708-2.144,3.529c1.34,1.162,1.34,3.574,0,3.708s-2.948-2.546-2.948-2.546-1.206,2.948-4.021,1.742,1.072-2.9,1.072-2.9-4.156-.581-2.681-3.8S1168.151,582.282,1168.151,582.282Z" transform="translate(-2.622 -381.062)"/>
    <path id="路径_25662" data-name="路径 25662" class="cls-5" d="M1169.416,583.463s.612-5.621,3.556-4.918.836,4.918.836,4.918,3.865-2.81,4.743,0-1.054,4.86-2.811,4.626c1.756,1.523,1.756,4.685,0,4.86s-3.865-3.338-3.865-3.338-1.581,3.865-5.27,2.283,1.406-3.806,1.406-3.806-5.448-.761-3.515-4.977S1169.416,583.463,1169.416,583.463Z" transform="translate(-50.968 -386.642)"/>
    <ellipse id="椭圆_11090" data-name="椭圆 11090" class="cls-11" cx="7.878" cy="7.88" rx="7.878" ry="7.88" transform="translate(1176.759 57.228)"/>
  </g>
</svg>
