<svg xmlns="http://www.w3.org/2000/svg" width="133.038" height="121.92" viewBox="0 0 133.038 121.92">
  <defs>
    <style>
      .cls-1 {
        fill: #b6b9c7;
      }

      .cls-2 {
        fill: #ece7e6;
      }

      .cls-3 {
        fill: #9aaab5;
      }

      .cls-4 {
        fill: #fec1c3;
      }

      .cls-5 {
        fill: #f8696c;
      }

      .cls-6 {
        fill: none;
        stroke: #f8696c;
        stroke-linecap: round;
        stroke-linejoin: round;
        stroke-width: 2px;
      }

      .cls-7 {
        fill: #fff;
      }

      .cls-8 {
        fill: #2b71b0;
      }

      .cls-9 {
        fill: #e7ffff;
      }

      .cls-10 {
        fill: #9ea1af;
      }

      .cls-11 {
        fill: #fcb2a9;
      }
    </style>
  </defs>
  <g id="组_3732" data-name="组 3732" transform="translate(-718.021 -325.414)">
    <path id="路径_9810" data-name="路径 9810" class="cls-1" d="M773.433,415.061s-3.177,7.274-4.71,9.871-3.065,4.957-2.681,6.256,2.638,3.541,3.666,2.36,4.954-9.325,5.241-9.8-1.341,10.269,0,12.866,14.367,5.43,18.486,2.833,5.651-3.305,5.938-6.61,0-11.8,0-11.8,3.448,9.678,4.885,10.387,4.119-1.417,3.735-2.951-7.182-13.216-7.182-13.216S792.51,402.475,773.433,415.061Z"/>
    <path id="路径_9811" data-name="路径 9811" class="cls-1" d="M775.776,437.461s.9,1.871-1.018,4.35-2.012,4.839,0,5.311,7.758.236,8.237-1.534.383-8.127.383-8.127Z"/>
    <path id="路径_9812" data-name="路径 9812" class="cls-1" d="M796.826,437.461s-.9,1.871,1.019,4.35,2.011,4.839,0,5.311-7.759.236-8.238-1.534-.383-8.127-.383-8.127Z"/>
    <ellipse id="椭圆_1593" data-name="椭圆 1593" class="cls-2" cx="8.647" cy="10.656" rx="8.647" ry="10.656" transform="translate(778.488 412.565)"/>
    <path id="路径_9813" data-name="路径 9813" class="cls-3" d="M799.373,432.84s.838,3.748,4.215,1.977a5.545,5.545,0,0,1,7.758,2.644,7.958,7.958,0,0,1,1.005,4.084,2.907,2.907,0,0,1-1.508-1.593c-.647-1.328-2.586-4.8-5.962-2.491s-6.493-.373-6.7-1.42S799.373,432.84,799.373,432.84Z"/>
    <circle id="椭圆_1594" data-name="椭圆 1594" class="cls-1" cx="25.457" cy="25.457" r="25.457" transform="translate(718.021 325.414)"/>
    <circle id="椭圆_1595" data-name="椭圆 1595" class="cls-4" cx="19.905" cy="19.905" r="19.905" transform="translate(723.573 330.966)"/>
    <circle id="椭圆_1596" data-name="椭圆 1596" class="cls-1" cx="25.457" cy="25.457" r="25.457" transform="translate(800.145 325.414)"/>
    <circle id="椭圆_1597" data-name="椭圆 1597" class="cls-4" cx="19.905" cy="19.905" r="19.905" transform="translate(805.697 330.966)"/>
    <path id="路径_9814" data-name="路径 9814" class="cls-1" d="M788.944,336.623s-3.561,5.448,0,7.962c2.515-.349,16.553,1.467,25.143,12.362s8.8,18.438,8.591,19.7-1.8,6.077.043,10.686,7.012,18.757-8.215,24.933c-18.96,7.691-61.2,6.1-67.383-5.952s-.293-20.238.336-21.495-3.283-22.559,15.609-34.153a77.361,77.361,0,0,1,13.165-5.866s-1.169-4.243.821-5.972l1.886-.995s.052,3.667.785,4.4S780.825,335.262,788.944,336.623Z"/>
    <path id="路径_9815" data-name="路径 9815" class="cls-5" d="M778.468,392.147s-.628-3.771,6.286-3.352,7.543.1,7.752,2.409-3.771,8.695-5.866,9.115S780.668,400.423,778.468,392.147Z"/>
    <line id="直线_122" data-name="直线 122" class="cls-6" x2="0.067" y2="6.364" transform="translate(784.923 400.425)"/>
    <path id="路径_9816" data-name="路径 9816" class="cls-2" d="M782.09,406.085l-.217,4.553s1.781.419,2.462,0,.768-3.981.768-3.981.489,3.934.961,4.167,2.3.291,2.409,0,0-4.739,0-4.739A18.243,18.243,0,0,1,782.09,406.085Z"/>
    <path id="路径_9817" data-name="路径 9817" class="cls-6" d="M773.44,402.274s9.638,9.079,24.654,0"/>
    <circle id="椭圆_1598" data-name="椭圆 1598" class="cls-7" cx="7.618" cy="7.618" r="7.618" transform="translate(798.433 376.543)"/>
    <circle id="椭圆_1599" data-name="椭圆 1599" class="cls-8" cx="5.923" cy="5.923" r="5.923" transform="translate(799.294 379.803)"/>
    <circle id="椭圆_1600" data-name="椭圆 1600" class="cls-9" cx="2.347" cy="2.347" r="2.347" transform="translate(806.904 382.368)"/>
    <circle id="椭圆_1601" data-name="椭圆 1601" class="cls-7" cx="7.618" cy="7.618" r="7.618" transform="translate(758.732 376.412)"/>
    <circle id="椭圆_1602" data-name="椭圆 1602" class="cls-8" cx="5.923" cy="5.923" r="5.923" transform="translate(761.261 379.673)"/>
    <circle id="椭圆_1603" data-name="椭圆 1603" class="cls-9" cx="2.347" cy="2.347" r="2.347" transform="translate(760.121 382.237)"/>
    <path id="路径_9818" data-name="路径 9818" class="cls-10" d="M801.887,366.819s-2.569-2.316,1.626-2.433,7.37,2.367,7.576,4.173-2.187,1.384-3.281.7-3.008-1.568-3.935-1.483S801.887,366.819,801.887,366.819Z"/>
    <path id="路径_9819" data-name="路径 9819" class="cls-10" d="M768.206,366.769s2.261-2.617-1.915-2.212-7.02,3.264-7,5.082,2.342,1.1,3.343.287,2.79-1.93,3.72-1.96S768.206,366.769,768.206,366.769Z"/>
    <path id="路径_9820" data-name="路径 9820" class="cls-11" d="M809.251,403.607a12.182,12.182,0,0,0,4.078,9.1c.4-.146.8-.289,1.177-.443,11.8-4.785,11.351-14.354,9.694-20.566a12.2,12.2,0,0,0-14.949,11.912Z"/>
    <path id="路径_9821" data-name="路径 9821" class="cls-11" d="M761.26,403.607A12.2,12.2,0,0,0,744.6,392.221a22.133,22.133,0,0,0,2.52,14.088c1.456,2.84,4.932,5.091,9.618,6.785A12.2,12.2,0,0,0,761.26,403.607Z"/>
  </g>
</svg>
