<svg xmlns="http://www.w3.org/2000/svg" width="145.058" height="167.269" viewBox="0 0 145.058 167.269">
  <defs>
    <style>
      .cls-1 {
        fill: #efc56a;
      }

      .cls-2 {
        fill: #f5b01a;
      }

      .cls-3 {
        fill: #f0d5b7;
      }

      .cls-4 {
        fill: #ee7b1c;
      }

      .cls-5 {
        fill: #f6af1a;
      }

      .cls-6 {
        fill: #ef7a1a;
      }

      .cls-7 {
        fill: #805121;
      }

      .cls-8 {
        fill: none;
        stroke: #805121;
        stroke-linecap: round;
        stroke-linejoin: round;
        stroke-width: 2px;
      }

      .cls-9 {
        fill: #fff;
      }

      .cls-10 {
        fill: #2b71b0;
      }

      .cls-11 {
        fill: #e7ffff;
      }

      .cls-12 {
        fill: #edd7b3;
      }

      .cls-13 {
        fill: #fcb2a9;
      }
    </style>
  </defs>
  <g id="组_3725" data-name="组 3725" transform="translate(-226.951 -280.066)">
    <path id="路径_9693" data-name="路径 9693" class="cls-1" d="M312.525,432.963s3.121-8.516,9.759-12.431,14.043.523,18.085-6.462,2.7.919,2.7.919-2.726,7.329-12.7,7.086-11.064,5.691-12.851,8.755-4.255,6.468-5.787,5.532S312.525,432.963,312.525,432.963Z"/>
    <path id="路径_9694" data-name="路径 9694" class="cls-1" d="M284.886,427.8s-1.928,10.59.555,13.412c.639,1.345,1.193.362,1.227,2.281s2.794,4.547,6.354,2.2,2.557-5.591,1.966-6.618a3.52,3.52,0,0,0-2.247-1.279l-.09-4.89.1-3.75S288.089,424.294,284.886,427.8Z"/>
    <path id="路径_9695" data-name="路径 9695" class="cls-1" d="M307.667,434.322s-2.1,9.717.923,11.97a4.877,4.877,0,0,0,7.751-2.7c.868-3.327,1.562-14.536,1.562-14.536l-.139-3.352-10.752,2.366Z"/>
    <path id="路径_9696" data-name="路径 9696" class="cls-2" d="M282.155,395.271s-9.265,1.481-10.37,10.122c0,0-1,3.119.8,4.721a5.169,5.169,0,0,0,5.716.4c.884-.738,2.553-8.274,4.139-8.248s2.2.268,1.1,6.778-3.774,14.118,2.057,19.484,14.069,7.1,22.061,5.791,11.563-6.331,13.724-10.078-.593-14.3-1.181-16.716-1.466-5.971-1.466-5.971-.854-1.488,1.544-.978,13.255,1.409,15-6.573c.964-3.765,1.494-6.987-2.8-7.472a7.624,7.624,0,0,0-4.49,3.058c-1.783,2.573-4.669,5.009-8.857,3.964s-14.188-6.27-14.188-6.27l-18.589-.692Z"/>
    <circle id="椭圆_1549" data-name="椭圆 1549" class="cls-3" cx="13.486" cy="13.486" r="13.486" transform="translate(288.48 400.318)"/>
    <path id="路径_9697" data-name="路径 9697" class="cls-4" d="M286.848,296.45s.421-13.845,9.354-16.358c2.752-.378,3.538,3.251.891,14.953,1.254,1.632,4.381-11.746,11.582-11.381s.445,10.763.072,11.33,11.264-1.33,26.939,6.486S357.835,325.5,358.2,328.159c0,0,6.459-5.525,10.788-4.959s-4.711,12.63-7.181,15.288,2.5.387,2.5.387,7.164-2.571,7.672,3.329-5.446,10.712-12.507,10.906c-.675,1.339-3.077,16.4-18.461,26.369-5.825,4.192-7.355,4.316-7.686,7.54s-.223,11.842-5.78,7.965c-2.1-2.16-2.132-6.15-2.132-6.15s-1.209,10.6-5.655,11.384c-2.866.393-4.819-3.119-4.819-3.119s.077,11.758-9.912,11.581-10.376-8.714-10.376-8.714-4.622,9.439-10.169,3.757c-3.525-4.091-3.457-6.42-3.457-6.42s-1.765,4.043-3.545,4.223-5.775-3.589-6.68-11.132c-3.177-.144-16.863-3.164-25.211-14.712-1.877-.065-2.078,3.635-6.971,3.662s-5.635-4.446-3.631-7.685.23-1.3-1.278-1.65-6.348-2.437-3.332-5.814,4.97-2.915,4.97-2.915.417-.4-3.7-1.6-7.12-7.443-1.981-8.491a40.6,40.6,0,0,1,7.463-1.023s-.62-27.648,25.512-45.118C270.375,299.417,286.848,296.45,286.848,296.45Z"/>
    <path id="路径_9698" data-name="路径 9698" class="cls-5" d="M263.149,336.938s-11.46-10.284-4.089-17.608,13.964-2.473,16.592,1.032l2.628,3.506s16-11.128,40.644-1.793c0,0,5.188-12.909,16.092-8.563s3.922,17.33-1.322,21.056c-.448.491,9.065,16.625,4.571,30.212-2.161,1.155-77.038,1.37-77.038,1.37S252.642,351.779,263.149,336.938Z"/>
    <path id="路径_9699" data-name="路径 9699" class="cls-3" d="M338.265,364.78c-8.263-8.111-21.461-12-36.7-12.25-16.836-.272-32,4.315-40.343,13.62a57.822,57.822,0,0,0,33.482,15.234C313.267,383.024,329.828,375.238,338.265,364.78Z"/>
    <path id="路径_9700" data-name="路径 9700" class="cls-6" d="M292.82,352.842s.373-14.182,10.16-12.345c5.13,1.7,5.866,12.448,5.866,12.448s-.1,2.052-1.186,2.888S291.811,358.573,292.82,352.842Z"/>
    <path id="路径_9701" data-name="路径 9701" class="cls-7" d="M291.587,354.514s-1.378,3.368,1.972,4.8,15.759,1.877,15.958-1.758-2.906-5.615-4.432-6.093a31.178,31.178,0,0,0-9.725-.127C292.888,351.857,291.587,354.514,291.587,354.514Z"/>
    <path id="路径_9702" data-name="路径 9702" class="cls-8" d="M280.147,365.834s4.28,9.818,15.147,5.763c5.347-2.565,4.363-6.735,4.363-6.735"/>
    <path id="路径_9703" data-name="路径 9703" class="cls-8" d="M319.341,365.12s-3.384,10.161-14.57,7.1c-5.555-2.076-4.948-6.318-4.948-6.318"/>
    <circle id="椭圆_1550" data-name="椭圆 1550" class="cls-9" cx="7.849" cy="7.849" r="7.849" transform="translate(311.514 337.316)"/>
    <circle id="椭圆_1551" data-name="椭圆 1551" class="cls-10" cx="6.102" cy="6.102" r="6.102" transform="translate(312.628 340.777)"/>
    <circle id="椭圆_1552" data-name="椭圆 1552" class="cls-11" cx="2.418" cy="2.418" r="2.418" transform="translate(320.288 342.864)"/>
    <circle id="椭圆_1553" data-name="椭圆 1553" class="cls-9" cx="7.849" cy="7.849" r="7.849" transform="translate(274.87 337.204)"/>
    <circle id="椭圆_1554" data-name="椭圆 1554" class="cls-10" cx="6.102" cy="6.102" r="6.102" transform="translate(275.984 340.665)"/>
    <circle id="椭圆_1555" data-name="椭圆 1555" class="cls-11" cx="2.418" cy="2.418" r="2.418" transform="translate(283.644 342.752)"/>
    <path id="路径_9704" data-name="路径 9704" class="cls-6" d="M316.888,331.975s-2.647-2.386,1.675-2.506,7.593,2.438,7.805,4.3-2.253,1.426-3.38.721-3.1-1.615-4.054-1.527S316.888,331.975,316.888,331.975Z"/>
    <path id="路径_9705" data-name="路径 9705" class="cls-6" d="M282.19,331.924s2.329-2.7-1.974-2.279-7.231,3.363-7.21,5.236,2.412,1.134,3.443.295,2.875-1.988,3.833-2.019S282.19,331.924,282.19,331.924Z"/>
    <path id="路径_9706" data-name="路径 9706" class="cls-12" d="M266.4,331.811s6.85-6.738,7.139-6.821-1.15-6.2-5.545-5.983-7.145,3.643-6.425,6.078S264.571,331.331,266.4,331.811Z"/>
    <path id="路径_9707" data-name="路径 9707" class="cls-12" d="M332.477,329.549s-7.9-5.472-8.2-5.5.077-6.305,4.444-6.84,7.662,2.372,7.367,4.894S334.2,328.765,332.477,329.549Z"/>
    <path id="路径_9708" data-name="路径 9708" class="cls-4" d="M339.173,403.129s-4.946,5.688.507,9.922,8.544-1.392,9.239-4.6-.45-10.145-5.859-11.518c-2.8-.178-.606,1.567-.712,2.1S342.613,400.917,339.173,403.129Z"/>
    <path id="路径_9709" data-name="路径 9709" class="cls-13" d="M337.717,365.41a8.29,8.29,0,0,0-1.341-2.328,34.585,34.585,0,0,0-3.217-2.393,8.312,8.312,0,0,0-7.853,14.559A42.9,42.9,0,0,0,337.717,365.41Z"/>
    <path id="路径_9710" data-name="路径 9710" class="cls-13" d="M271.231,360.047a8.307,8.307,0,0,0-8.278,7.65,59.122,59.122,0,0,0,12.14,8.016,8.308,8.308,0,0,0-3.862-15.666Z"/>
  </g>
</svg>
