<svg xmlns="http://www.w3.org/2000/svg" width="122.621" height="131.067" viewBox="0 0 122.621 131.067">
  <defs>
    <style>
      .cls-1 {
        fill: #7c4319;
      }

      .cls-2 {
        fill: #955824;
      }

      .cls-3 {
        fill: #edce9f;
      }

      .cls-4 {
        fill: #774c1d;
      }

      .cls-5 {
        fill: #763c19;
      }

      .cls-6 {
        fill: none;
        stroke: #763c19;
        stroke-linecap: round;
        stroke-linejoin: round;
        stroke-width: 2px;
      }

      .cls-7 {
        fill: #fff;
      }

      .cls-8 {
        fill: #2b71b0;
      }

      .cls-9 {
        fill: #e7ffff;
      }

      .cls-10 {
        fill: #fcb2a9;
      }
    </style>
  </defs>
  <g id="组_3724" data-name="组 3724" transform="translate(-104.405 -316.268)">
    <g id="组_3723" data-name="组 3723">
      <path id="路径_9679" data-name="路径 9679" class="cls-1" d="M166.343,414.249s-.733,12.13,14.662,8.4c10.711-2.6,14.967-9.443,18.054-17.234,1.195-3.015,9.6-16.013,15.977-14.936s6.778-3.425,5.431-4.772-5.116-4.577-11.04-.538-13.913,19.2-14.272,19.61-7.091,15.665-14,14.677-7.45-3.68-8.078-5.924S168.318,409.941,166.343,414.249Z"/>
      <path id="路径_9680" data-name="路径 9680" class="cls-2" d="M149.267,397.539s-6.745,22.714,2.777,29.062,17.358,5.455,25.987,1.587,6.15-16.862,5.455-20.036-2.777-10.316-3.57-11.407S150.258,393.485,149.267,397.539Z"/>
      <path id="路径_9681" data-name="路径 9681" class="cls-2" d="M180.684,398.258s16.441-2.455,18.375,5.579c0,3.869-2.083,2.53-3.125,1.786s-3.145-4.337-6.222-3.656-8.358,1.5-9.028,1.35A3.141,3.141,0,0,1,180.684,398.258Z"/>
      <path id="路径_9682" data-name="路径 9682" class="cls-2" d="M148.663,404.424s-16.44,2.455-18.374-5.579c0-3.868,2.083-2.529,3.124-1.785s3.146,4.336,6.223,3.656,8.358-1.5,9.027-1.35A3.139,3.139,0,0,1,148.663,404.424Z"/>
      <path id="路径_9683" data-name="路径 9683" class="cls-2" d="M154.248,427.955s-4.064,5.676-4.213,8.131,5.654,6.844,7.663,6.918,3.756-1.823,3.273-3.124-3.645-4-3.72-4.4,1.614-5.016,2.072-5.274S156.489,425.59,154.248,427.955Z"/>
      <path id="路径_9684" data-name="路径 9684" class="cls-2" d="M166.4,431.221s-.97,16.693,4.312,16.1c3.5-.893,3.38-2.311,2.471-17.28C170.493,430.039,167.522,426.617,166.4,431.221Z"/>
    </g>
    <ellipse id="椭圆_1539" data-name="椭圆 1539" class="cls-2" cx="46.553" cy="40.344" rx="46.553" ry="40.344" transform="translate(118.121 317.414)"/>
    <path id="路径_9685" data-name="路径 9685" class="cls-2" d="M197.614,331.041s8.06-19.008,19.294-13.9,10.085,19.4,10.085,20.426-2.861,9.229-15.92,13.1C205.929,349.182,197.135,332.078,197.614,331.041Z"/>
    <circle id="椭圆_1540" data-name="椭圆 1540" class="cls-3" cx="8.947" cy="8.947" r="8.947" transform="translate(203.875 324.521)"/>
    <path id="路径_9686" data-name="路径 9686" class="cls-2" d="M133.817,331.041s-8.06-19.008-19.294-13.9-10.085,19.4-10.085,20.426,2.861,9.229,15.92,13.1C125.5,349.182,134.3,332.078,133.817,331.041Z"/>
    <circle id="椭圆_1541" data-name="椭圆 1541" class="cls-3" cx="8.947" cy="8.947" r="8.947" transform="translate(109.661 324.521)"/>
    <path id="路径_9687" data-name="路径 9687" class="cls-3" d="M131.928,366.78s-2.672-35.12,19.278-37.029c11.452-.954,13.256,3.627,13.256,3.627s11.748-9.734,24.918.763c11.643,10.117,7.253,32.639,7.253,32.639s8.016.191,9.734,2.863S201,394.219,175.13,397.651c0,0-23.1,4.839-41.894-9.823-10.237-7.984-11.424-15.576-8.879-17.23S129.956,366.78,131.928,366.78Z"/>
    <path id="路径_9688" data-name="路径 9688" class="cls-4" d="M183.9,343.822a2.536,2.536,0,0,0-2.894,2.34c0,1.745,1.873,1.447,2.894,1.872s.851-.212,4.638,2.341c1.745,1.191,3.4-1.532,2-2.936S189.048,345.609,183.9,343.822Z"/>
    <path id="路径_9689" data-name="路径 9689" class="cls-4" d="M147.892,343.822a2.535,2.535,0,0,1,2.893,2.34c0,1.745-1.872,1.447-2.893,1.872s-.851-.212-4.639,2.341c-1.744,1.191-3.4-1.532-2-2.936S142.743,345.609,147.892,343.822Z"/>
    <ellipse id="椭圆_1542" data-name="椭圆 1542" class="cls-5" cx="5.62" cy="3.429" rx="5.62" ry="3.429" transform="translate(159.241 367.419)"/>
    <line id="直线_119" data-name="直线 119" class="cls-6" y2="7.076" transform="translate(164.861 374.276)"/>
    <path id="路径_9690" data-name="路径 9690" class="cls-6" d="M152.482,376.118s11.575,12.936,24.83,0"/>
    <circle id="椭圆_1543" data-name="椭圆 1543" class="cls-7" cx="8.451" cy="8.451" r="8.451" transform="translate(175.67 351.582)"/>
    <circle id="椭圆_1544" data-name="椭圆 1544" class="cls-8" cx="6.391" cy="6.391" r="6.391" transform="translate(177.73 353.642)"/>
    <ellipse id="椭圆_1545" data-name="椭圆 1545" class="cls-9" cx="3.168" cy="1.879" rx="3.168" ry="1.879" transform="translate(184.728 358.154)"/>
    <circle id="椭圆_1546" data-name="椭圆 1546" class="cls-7" cx="8.451" cy="8.451" r="8.451" transform="translate(138.838 351.582)"/>
    <circle id="椭圆_1547" data-name="椭圆 1547" class="cls-8" cx="6.391" cy="6.391" r="6.391" transform="translate(140.898 353.642)"/>
    <ellipse id="椭圆_1548" data-name="椭圆 1548" class="cls-9" cx="3.168" cy="1.879" rx="3.168" ry="1.879" transform="translate(147.896 358.154)"/>
    <path id="路径_9691" data-name="路径 9691" class="cls-10" d="M202.34,381.619a9.522,9.522,0,1,0-10.289,10.02A35.5,35.5,0,0,0,202.34,381.619Z"/>
    <path id="路径_9692" data-name="路径 9692" class="cls-10" d="M145.756,382.151a9.524,9.524,0,0,0-19.02-.724,36.183,36.183,0,0,0,6.5,6.4,47.118,47.118,0,0,0,5.271,3.565A9.523,9.523,0,0,0,145.756,382.151Z"/>
  </g>
</svg>
