<svg xmlns="http://www.w3.org/2000/svg" width="109.337" height="217.614" viewBox="0 0 109.337 217.614">
  <defs>
    <style>
      .cls-1 {
        stroke-linejoin: round;
      }

      .cls-2, .cls-4 {
        fill: #fff;
      }

      .cls-2 {
        font-size: 43.304px;
        font-family: TimesNewRomanPS-BoldMT, Times New Roman;
        font-weight: 700;
      }

      .cls-3, .cls-4 {
        stroke: none;
      }
    </style>
  </defs>
  <g id="组_3808" data-name="组 3808" transform="translate(-867.106 -1347.245)">
    <g id="组_3807" data-name="组 3807">
      <path id="路径_10313" data-name="路径 10313" d="M877.106,1368.972c1.793-8.66,1.847-13.4.2-15.194a2.581,2.581,0,0,0-.2-.167Z"/>
      <g id="路径_10314" data-name="路径 10314" class="cls-1">
        <path class="cls-3" d="M 893.3720092773438 1559.859008789063 C 890.8759765625 1559.859008789063 888.4614868164063 1559.041381835938 886.3897094726563 1557.494506835938 C 884.7034301757813 1556.237548828125 883.5053100585938 1554.37646484375 882.831298828125 1551.965454101563 C 882.40234375 1550.430908203125 882.1774291992188 1548.619750976563 882.1627807617188 1546.582397460938 C 882.1583251953125 1545.9658203125 882.173095703125 1545.349975585938 882.2021484375 1544.745483398438 C 880.2701416015625 1544.72802734375 878.2951049804688 1544.561767578125 876.325927734375 1544.250732421875 L 872.1060180664063 1543.584228515625 L 872.1060180664063 1539.31201171875 L 872.1060180664063 1369.670043945313 L 872.1060180664063 1368.358642578125 L 872.7496337890625 1367.216064453125 C 873.020263671875 1366.735595703125 873.30859375 1366.195434570313 873.501953125 1365.8310546875 L 873.5148315429688 1365.806640625 C 874.6915283203125 1363.58349609375 876.3031005859375 1360.538696289063 878.554443359375 1357.905883789063 C 879.9417114257813 1356.283569335938 881.4337158203125 1354.9931640625 882.9889526367188 1354.070556640625 C 885.0308227539063 1352.859130859375 887.2110595703125 1352.244995117188 889.468994140625 1352.244995117188 C 889.6865844726563 1352.244995117188 889.907470703125 1352.250854492188 890.1259155273438 1352.262451171875 C 895.2979736328125 1352.524291992188 897.531494140625 1355.451293945313 898.4024658203125 1357.1728515625 C 899.2216186523438 1358.7900390625 899.5380249023438 1360.678100585938 899.341796875 1362.782470703125 C 899.2367553710938 1363.908447265625 898.9801025390625 1365.122192382813 898.5771484375 1366.40087890625 C 904.8628540039063 1367.050048828125 914.04150390625 1368.880859375 924.754150390625 1374.222412109375 C 929.3441772460938 1376.51123046875 933.647705078125 1379.47900390625 937.5452880859375 1383.04345703125 C 940.7855834960938 1386.0068359375 943.762451171875 1389.395751953125 946.3931884765625 1393.115844726563 C 948.4736328125 1396.057983398438 950.3041381835938 1399.152099609375 951.8336791992188 1402.31201171875 C 951.8789672851563 1402.405639648438 951.924072265625 1402.499389648438 951.9688110351563 1402.593139648438 C 952.053955078125 1402.545288085938 952.1393432617188 1402.497802734375 952.2254028320313 1402.450439453125 C 955.6027221679688 1400.591552734375 958.7035522460938 1399.649047851563 961.441650390625 1399.649047851563 C 961.9517211914063 1399.649047851563 962.4575805664063 1399.681518554688 962.9452514648438 1399.74560546875 C 965.6746826171875 1400.103637695313 967.84619140625 1401.812377929688 968.7531127929688 1404.316162109375 L 968.7544555664063 1404.31982421875 L 968.7557373046875 1404.323486328125 C 969.2238159179688 1405.6220703125 969.316162109375 1407.091674804688 969.030029296875 1408.691650390625 C 968.8436279296875 1409.734008789063 968.5012817382813 1410.842407226563 967.9833984375 1412.080200195313 C 967.2259521484375 1413.890502929688 966.0730590820313 1415.999755859375 964.5567626953125 1418.349365234375 C 964.5363159179688 1418.381103515625 964.515869140625 1418.412719726563 964.495361328125 1418.4443359375 C 965.3192138671875 1418.7177734375 966.0890502929688 1419.083129882813 966.801025390625 1419.539428710938 C 968.20458984375 1420.43994140625 969.316162109375 1421.6455078125 970.1068115234375 1423.123657226563 C 970.8117065429688 1424.441528320313 971.241943359375 1425.954956054688 971.3855590820313 1427.621826171875 C 971.5750122070313 1429.819091796875 971.2999877929688 1431.984497070313 970.5681762695313 1434.057373046875 C 969.8568725585938 1436.072143554688 968.7282104492188 1437.953857421875 967.213623046875 1439.650146484375 C 965.3448486328125 1441.743286132813 962.8948974609375 1443.499633789063 960.12890625 1444.728881835938 C 958.538330078125 1445.435791015625 956.8353271484375 1445.9716796875 955.0882568359375 1446.320556640625 C 954.1773071289063 1449.258911132813 952.6109619140625 1453.640625 949.815673828125 1458.49365234375 C 945.3880004882813 1466.1806640625 939.3250122070313 1472.563232421875 931.7939453125 1477.465576171875 C 930.1812133789063 1478.623779296875 928.8184814453125 1479.540771484375 927.7192993164063 1480.280517578125 L 927.6975708007813 1480.295166015625 C 927.4934692382813 1480.432495117188 927.2847900390625 1480.572875976563 927.0775146484375 1480.713134765625 C 927.9251708984375 1482.326904296875 928.289306640625 1484.23876953125 928.1591796875 1486.409790039063 C 928.1156005859375 1487.136474609375 928.0230712890625 1487.860229492188 927.8907470703125 1488.60888671875 C 928.6531982421875 1488.33544921875 929.5629272460938 1488.16259765625 930.6441040039063 1488.16259765625 C 930.8998413085938 1488.16259765625 931.166015625 1488.171630859375 931.4577026367188 1488.190063476563 L 931.9185791015625 1488.21923828125 L 932.3663940429688 1488.332275390625 C 936.9417114257813 1489.48779296875 940.531982421875 1492.78759765625 942.4758911132813 1497.623779296875 C 943.1985473632813 1499.421630859375 943.6795043945313 1501.425048828125 943.86669921875 1503.417236328125 C 944.0458984375 1505.324584960938 943.9561767578125 1507.182495117188 943.607177734375 1508.789916992188 C 943.19189453125 1510.706176757813 942.356201171875 1512.781494140625 941.3147583007813 1514.481811523438 C 939.6969604492188 1517.123168945313 937.5325317382813 1518.999633789063 935.05322265625 1519.910766601563 C 934.310546875 1521.093627929688 933.279296875 1522.44873046875 931.9262084960938 1523.740478515625 C 929.1480102539063 1526.392944335938 924.2042846679688 1529.5546875 916.4298095703125 1529.5546875 C 916.2028198242188 1529.5546875 915.9714965820313 1529.552001953125 915.7423095703125 1529.546630859375 L 915.7349243164063 1529.54638671875 L 915.7276000976563 1529.546264648438 C 915.5173950195313 1529.540649414063 915.3079833984375 1529.537841796875 915.1052856445313 1529.537841796875 C 910.9615478515625 1529.537841796875 909.3832397460938 1530.706787109375 908.7030639648438 1531.389404296875 C 908.2011108398438 1532.164306640625 907.697265625 1532.884521484375 907.1753540039063 1533.5732421875 C 906.9293823242188 1534.035278320313 906.6943359375 1534.518310546875 906.4403686523438 1535.04541015625 C 906.4015502929688 1535.126098632813 906.3634033203125 1535.205078125 906.3258056640625 1535.282470703125 C 905.9185791015625 1540.993896484375 905.2821044921875 1548.0283203125 904.4603881835938 1551.18115234375 C 903.4762573242188 1554.947509765625 900.7283935546875 1557.951782226563 897.1090087890625 1559.220458984375 C 895.9028930664063 1559.644165039063 894.6456298828125 1559.859008789063 893.3720092773438 1559.859008789063 Z M 909.233154296875 1505.6064453125 C 909.6892700195313 1507.451904296875 910.53271484375 1510.8662109375 911.0983276367188 1514.60400390625 C 912.89013671875 1514.317016601563 914.55810546875 1514.2177734375 915.9849243164063 1514.1328125 C 917.84033203125 1514.02392578125 919.1473388671875 1513.915161132813 920.1234741210938 1513.693725585938 C 919.1815795898438 1512.140258789063 918.6080322265625 1510.435424804688 918.4307861328125 1508.626708984375 C 918.2056884765625 1506.322387695313 918.6461181640625 1503.886108398438 919.7069091796875 1501.5341796875 C 919.4376220703125 1501.682373046875 919.162109375 1501.82470703125 918.8803100585938 1501.961059570313 C 915.4144897460938 1503.639282226563 911.6385498046875 1504.094848632813 908.8782348632813 1504.155639648438 C 908.9631958007813 1504.503173828125 909.0457153320313 1504.841186523438 909.123779296875 1505.161743164063 L 909.2332153320313 1505.6064453125 L 909.233154296875 1505.6064453125 Z"/>
        <path class="cls-4" d="M 889.468994140625 1357.244995117188 C 883.6903076171875 1357.244995117188 880.0909423828125 1364.070434570313 877.9190063476563 1368.173950195313 C 877.6580200195313 1368.666015625 877.3770141601563 1369.18896484375 877.1060180664063 1369.670043945313 L 877.1060180664063 1539.31201171875 C 878.8720092773438 1539.590942382813 880.6849975585938 1539.746948242188 882.541015625 1539.746948242188 C 884.291015625 1539.746948242188 886.0789794921875 1539.594970703125 887.8820190429688 1539.339965820313 C 887.3400268554688 1542.208984375 886.0059814453125 1550.972045898438 889.3809814453125 1553.488037109375 C 890.593017578125 1554.392944335938 891.97900390625 1554.859008789063 893.3720092773438 1554.859008789063 C 894.0709838867188 1554.859008789063 894.7730102539063 1554.741943359375 895.4550170898438 1554.501953125 C 897.5029907226563 1553.784057617188 899.0599975585938 1552.071044921875 899.6220092773438 1549.920043945313 C 900.4600219726563 1546.704956054688 901.1500244140625 1537.691040039063 901.406982421875 1533.947021484375 C 901.5819702148438 1533.60302734375 901.7570190429688 1533.246948242188 901.9359741210938 1532.875 C 902.2540283203125 1532.214965820313 902.5889892578125 1531.526000976563 902.9710083007813 1530.838989257813 C 903.6229858398438 1530.0009765625 904.2050170898438 1529.152954101563 904.7349853515625 1528.31396484375 C 906.6392211914063 1526.191528320313 909.6265869140625 1524.537963867188 915.1052856445313 1524.537841796875 C 915.3519897460938 1524.537841796875 915.60302734375 1524.541137695313 915.8599853515625 1524.547973632813 C 916.0517578125 1524.552490234375 916.2422485351563 1524.5546875 916.4298095703125 1524.5546875 C 928.2454223632813 1524.5546875 931.6399536132813 1515.742797851563 931.7020263671875 1515.545043945313 L 931.7050170898438 1515.526977539063 C 932.2509765625 1515.505981445313 932.7880249023438 1515.413940429688 933.3109741210938 1515.223999023438 C 936.5540161132813 1514.045043945313 938.2379760742188 1509.9580078125 938.7210083007813 1507.72900390625 C 939.6539916992188 1503.432006835938 937.9559936523438 1494.901000976563 931.1420288085938 1493.180053710938 C 930.980712890625 1493.169799804688 930.812744140625 1493.16259765625 930.6441040039063 1493.16259765625 C 929.9532470703125 1493.16259765625 929.2496948242188 1493.284057617188 928.9329833984375 1493.821044921875 C 928.5419921875 1494.47998046875 929.0009765625 1495.2080078125 929.3709716796875 1495.7919921875 C 929.4694213867188 1495.947265625 929.6063842773438 1496.189331054688 929.6538696289063 1496.189331054688 C 929.6565551757813 1496.189331054688 929.658935546875 1496.188598632813 929.6610107421875 1496.18701171875 C 929.6400146484375 1496.288940429688 929.6300048828125 1496.409057617188 929.6190185546875 1496.548950195313 C 929.572021484375 1497.197021484375 929.4730224609375 1498.548950195313 926.114013671875 1500.70703125 L 925.9860229492188 1500.818969726563 C 925.864990234375 1500.9580078125 923.0289916992188 1504.27001953125 923.406982421875 1508.139038085938 C 923.6119995117188 1510.23095703125 924.7130126953125 1512.06494140625 926.6799926757813 1513.592041015625 C 926.905029296875 1513.766967773438 927.1270141601563 1513.900024414063 927.3499755859375 1514.052001953125 C 924.6959838867188 1518.626953125 920.7960205078125 1518.859008789063 916.281982421875 1519.1240234375 C 913.2750244140625 1519.302978515625 909.9000244140625 1519.52001953125 906.6719970703125 1521.159057617188 C 906.6329956054688 1515.948974609375 905.0390014648438 1509.475952148438 904.3779907226563 1506.801025390625 L 904.2670288085938 1506.349975585938 C 903.56201171875 1503.454956054688 902.5070190429688 1499.182983398438 902.5070190429688 1499.182983398438 L 902.447021484375 1499.032958984375 C 902.3820190429688 1498.912963867188 902.3319702148438 1498.73095703125 902.3350219726563 1498.694946289063 C 902.3356323242188 1498.693725585938 902.4317626953125 1498.625 902.7520751953125 1498.625 C 902.953125 1498.625 903.242431640625 1498.652099609375 903.6519775390625 1498.739990234375 C 904.7283935546875 1498.968383789063 906.3505249023438 1499.1630859375 908.2008056640625 1499.1630859375 C 913.5460205078125 1499.1630859375 920.802490234375 1497.539794921875 922.364013671875 1490.4150390625 C 923.135009765625 1487.401000976563 923.719970703125 1484.538940429688 922.416015625 1482.650024414063 C 921.9110107421875 1481.9169921875 921.14697265625 1481.409057617188 920.1510009765625 1481.076049804688 C 920.5640258789063 1479.074951171875 921.698974609375 1478.305053710938 924.906005859375 1476.14697265625 C 926.02197265625 1475.39599609375 927.3690185546875 1474.489990234375 928.9710083007813 1473.337036132813 C 945.1749877929688 1462.837036132813 949.4929809570313 1447.761962890625 950.9130249023438 1442.808959960938 C 951.0289916992188 1442.402954101563 951.135009765625 1442.031982421875 951.218017578125 1441.775024414063 C 956.0670166015625 1441.5419921875 960.6279907226563 1439.51904296875 963.4840087890625 1436.319946289063 C 965.6519775390625 1433.891967773438 966.6610107421875 1431.031982421875 966.4039916992188 1428.051025390625 C 966.2329711914063 1426.066040039063 965.458984375 1424.619018554688 964.10302734375 1423.7490234375 C 963.0288696289063 1423.060546875 961.7352905273438 1422.838745117188 960.5153198242188 1422.838745117188 C 958.3983154296875 1422.838623046875 956.501953125 1423.506225585938 956.3510131835938 1423.56201171875 C 955.3359985351563 1424.026000976563 954.2490234375 1424.409057617188 953.6170043945313 1424.5439453125 C 953.7150268554688 1424.416015625 953.8499755859375 1424.254028320313 954.0380249023438 1424.052978515625 C 956.1389770507813 1421.7919921875 965.4459838867188 1409.885986328125 964.052001953125 1406.01904296875 C 963.864013671875 1405.5 963.406982421875 1404.848999023438 962.2940063476563 1404.703002929688 C 962.0155029296875 1404.666381835938 961.73095703125 1404.649047851563 961.441650390625 1404.649047851563 C 957.0659790039063 1404.649047851563 951.607177734375 1408.623046875 949.6290283203125 1410.181030273438 C 948.2119750976563 1405.35400390625 940.5659790039063 1387.693969726563 922.5230102539063 1378.697021484375 C 907.6480102539063 1371.280029296875 895.9630126953125 1371.094970703125 891.56298828125 1371.024047851563 C 891.3410034179688 1371.02099609375 891.1170043945313 1371.016967773438 890.9140014648438 1371.012939453125 C 892.27099609375 1368.7900390625 895.6110229492188 1362.72705078125 893.9409790039063 1359.430053710938 C 893.2630004882813 1358.089965820313 891.8930053710938 1357.358032226563 889.8720092773438 1357.255981445313 C 889.7365112304688 1357.248657226563 889.6021728515625 1357.244995117188 889.468994140625 1357.244995117188 M 889.468994140625 1347.244995117188 C 889.6498413085938 1347.244995117188 890.2337036132813 1347.260864257813 890.414306640625 1347.270629882813 C 895.9974365234375 1347.552612304688 900.5490112304688 1350.33984375 902.8640747070313 1354.915771484375 C 903.9808959960938 1357.12060546875 904.4935913085938 1359.545654296875 904.4036865234375 1362.18017578125 C 910.6294555664063 1363.276000976563 918.341552734375 1365.437866210938 926.9852294921875 1369.747802734375 C 941.0559692382813 1376.764038085938 949.4888916015625 1387.757080078125 954.18115234375 1396.057006835938 C 956.5204467773438 1395.194580078125 958.9749755859375 1394.649047851563 961.4417114257813 1394.649047851563 C 961.8770751953125 1394.649047851563 963.164306640625 1394.7314453125 963.595947265625 1394.7880859375 C 968.2130126953125 1395.393798828125 971.8988037109375 1398.319213867188 973.4542846679688 1402.613525390625 C 975.01611328125 1406.946044921875 973.6648559570313 1412.045776367188 971.3562622070313 1416.738037109375 C 974.2452392578125 1419.3134765625 976.0014038085938 1422.94775390625 976.3670654296875 1427.192749023438 C 976.8595581054688 1432.904541015625 974.933349609375 1438.511596679688 970.9431762695313 1442.980346679688 C 967.8231201171875 1446.47509765625 963.6463623046875 1449.065307617188 958.9524536132813 1450.504272460938 C 955.983154296875 1458.847900390625 949.573974609375 1471.902465820313 934.4089965820313 1481.729125976563 C 933.940673828125 1482.071533203125 933.4545288085938 1482.416259765625 932.96875 1482.75439453125 C 933.0025634765625 1482.958618164063 933.0321044921875 1483.162231445313 933.0576782226563 1483.365234375 C 933.2363891601563 1483.400146484375 933.4141235351563 1483.43994140625 933.5908203125 1483.484497070313 C 946.3500366210938 1486.70703125 950.4437866210938 1500.867553710938 948.4933471679688 1509.850708007813 C 947.4010620117188 1514.89111328125 944.1923217773438 1520.995483398438 938.3970336914063 1523.90283203125 C 934.8072509765625 1528.863159179688 927.8880615234375 1534.5546875 916.4298095703125 1534.5546875 L 915.1052856445313 1524.537841796875 L 915.1055297851563 1534.537841796875 C 913.5115356445313 1534.537841796875 912.7115478515625 1534.756225585938 912.3884887695313 1534.878784179688 C 912.093017578125 1535.314331054688 911.7857055664063 1535.750122070313 911.4651489257813 1536.18505859375 L 911.2412719726563 1536.62841796875 C 910.6681518554688 1544.377563476563 910.0155639648438 1549.692016601563 909.2987060546875 1552.442260742188 C 907.8927612304688 1557.823364257813 903.9547729492188 1562.119018554688 898.7630615234375 1563.93896484375 C 897.0320434570313 1564.548095703125 895.21435546875 1564.859008789063 893.3720092773438 1564.859008789063 C 889.7896118164063 1564.859008789063 886.3408203125 1563.697875976563 883.3984985351563 1561.501098632813 C 879.8851928710938 1558.882080078125 877.8474731445313 1554.841430664063 877.2981567382813 1549.432495117188 C 876.710205078125 1549.362426757813 876.1260375976563 1549.28125 875.5458984375 1549.189575195313 C 870.6856079101563 1548.421875 867.1060180664063 1544.232543945313 867.1060180664063 1539.31201171875 L 867.1060180664063 1369.670043945313 C 867.1060180664063 1367.950561523438 867.5493774414063 1366.260131835938 868.393310546875 1364.761962890625 L 869.0847778320313 1363.488159179688 C 871.8826293945313 1358.202026367188 877.6820678710938 1347.244995117188 889.468994140625 1347.244995117188 Z"/>
      </g>
    </g>
    <text id="_6" data-name="6" class="cls-2" transform="translate(895.386 1443.005)"><tspan x="0" y="0">6</tspan></text>
  </g>
</svg>
