<svg xmlns="http://www.w3.org/2000/svg" width="52.998" height="216.821" viewBox="0 0 52.998 216.821">
  <defs>
    <style>
      .cls-1 {
        fill: #fff;
        font-size: 43.304px;
        font-family: TimesNewRomanPS-BoldMT, Times New Roman;
        font-weight: 700;
      }
    </style>
  </defs>
  <g id="组_3822" data-name="组 3822" transform="translate(-1277.316 -1066.914)">
    <path id="路径_10328" data-name="路径 10328" d="M1330.314,1190.365c0-13.963-9.038-26.313-22.808-33.741,3.636-9.753,13.576-64.18,13.278-67.741-.033-.4-.041-.952-.053-1.621-.062-3.832-.193-11.8-5.34-16.541-3.111-2.863-7.591-4.122-13.313-3.74-15.82,1.055-18.419,49.18-19.668,72.308-.251,4.643-.471,8.708-.708,9.825-.766.02-2.2.089-3.811.175-.192,0-.382-.011-.575-.011h0v121.86a32.4,32.4,0,0,0,3.98-.308c-.467,2.536-1.488,9.655,1.313,11.743a5.645,5.645,0,0,0,3.382,1.162,5.331,5.331,0,0,0,1.768-.3,5.577,5.577,0,0,0,3.534-3.883c.809-3.1,1.452-12.664,1.563-14.426a25.855,25.855,0,0,0,3.422-4.758c2.176-3.776-.23-13.541-1.02-16.751l-.1-.392c-.587-2.41-1.466-5.967-1.466-5.967l-.062-.155c-.025-.043-.093-.172-.112-.149a1.94,1.94,0,0,1,1.009.058c3.514.743,13.932,1.057,15.7-7.006.648-2.531,1.138-4.937.029-6.545a3.276,3.276,0,0,0-.55-.609q1.918-1.152,3.694-2.432l.031.01.243-.18c.258-.188.494-.392.746-.584.294-.224.582-.451.869-.68q1.134-.9,2.189-1.857c.247-.223.5-.441.743-.667.376-.354.734-.717,1.094-1.08.277-.279.551-.559.819-.844.331-.352.661-.705.978-1.066.368-.417.719-.844,1.067-1.273s.7-.876,1.028-1.322.651-.884.96-1.335q.3-.439.585-.884.519-.807.993-1.635c.107-.188.224-.372.328-.561.418-.759.8-1.531,1.163-2.312.074-.162.142-.326.213-.489q.461-1.038.848-2.1c.031-.084.072-.166.1-.251l.1-.271,0-.007A32.4,32.4,0,0,0,1330.314,1190.365Zm-35.081,38.663c1.422-.4,2.811-.845,4.173-1.332A6.519,6.519,0,0,1,1295.233,1229.028Z"/>
    <text id="_9" data-name="9" class="cls-1" transform="translate(1285.145 1199.814)"><tspan x="0" y="0">9</tspan></text>
  </g>
</svg>
