<svg xmlns="http://www.w3.org/2000/svg" width="75.958" height="158.47" viewBox="0 0 75.958 158.47">
  <defs>
    <style>
      .cls-1 {
        fill: #fff;
        font-size: 43.305px;
        font-family: TimesNewRomanPS-BoldMT, Times New Roman;
        font-weight: 700;
      }
    </style>
  </defs>
  <g id="组_3819" data-name="组 3819" transform="translate(-340.887 -1118.072)">
    <path id="路径_10325" data-name="路径 10325" d="M404.358,1119.171a11.31,11.31,0,0,0-9.1-.277c-6.814,2.656-11.743,10.995-13.8,15.041a60.829,60.829,0,0,0-40.034-14.487c-.182,0-.361.01-.542.011v137.7c.67.054,1.333.085,1.987.085-.121,2.986-.374,14.978,3.187,18.351a3.225,3.225,0,0,0,2.3.945,3.949,3.949,0,0,0,.466-.028c4.637-1.184,4.528-3.049,3.446-20.867a53.878,53.878,0,0,0,5.429-2.124,12.449,12.449,0,0,0,6.74-7.59c10.945-3.8,15.543-11.831,18.806-20.064,1.644-4.15,11.621-18.727,18.514-17.553,5.044.853,6.872-1.1,7.512-2.345a3.89,3.89,0,0,0-.47-4.4c-3.995-3.994-8.839-4.244-14.01-.718-4.844,3.3-10.749,12.574-14.265,18.506-5.585-4.5-17.254-3.254-19.59-2.949-.113-.285-.22-.531-.323-.755a47.384,47.384,0,0,0,13.792-5.927l.026,0,.171-.111c.314-.2.618-.419.926-.628l.019-.013a43.418,43.418,0,0,0,11.576-11.552l.112-.167,0-.04q.267-.4.512-.78a44.454,44.454,0,0,0,10.145-27.981,42.783,42.783,0,0,0-.743-7.894l.129-.039c15.931-4.726,19.533-14.667,19.533-16.3l.009-.306C417.021,1138.274,416.207,1124.557,404.358,1119.171ZM371.605,1222.1c2.389-.526,4.248,1.417,5.632,2.935-.072.137-.156.3-.271.527-4.661,9.124-8.481,13.434-11.448,15.248a40.918,40.918,0,0,0-.928-12c-.267-1.218-.771-3.181-1.357-5.259C365.835,1223.215,369.569,1222.547,371.605,1222.1Z"/>
    <text id="_2" data-name="2" class="cls-1" transform="translate(352.538 1181.55)"><tspan x="0" y="0">2</tspan></text>
  </g>
</svg>
