<svg xmlns="http://www.w3.org/2000/svg" width="81.942" height="147.543" viewBox="0 0 81.942 147.543">
  <defs>
    <style>
      .cls-1, .cls-2 {
        isolation: isolate;
      }

      .cls-2 {
        fill: #fff;
        font-size: 43.305px;
        font-family: TimesNewRomanPS-BoldMT, Times New Roman;
        font-weight: 700;
      }
    </style>
  </defs>
  <g id="组_3788" data-name="组 3788" transform="translate(-285.933 -1400.219)">
    <path id="路径_10293" data-name="路径 10293" d="M367.873,1413.639c-4.618.7-6.249,4.4-7.035,6.174l-.078.175a18.966,18.966,0,0,1-.48-4.24l-.015-.979-3.129,1.651-.113.078c-2.172,1.885-1.606,5.772-1.3,7.223-1.161.4-4.129,1.455-7.79,3.089a31.167,31.167,0,1,0-26.346,35.422,68.763,68.763,0,0,0-.2,7.6,17.8,17.8,0,0,1-.016,2.04c-.056.113-.151.276-.275.487a26.234,26.234,0,0,0-3.127,8.224l-.024.009-.058.335c-.022.136-.03.274-.051.41-.077.48-.137.971-.184,1.458-.01.1-.025.207-.034.31a24.144,24.144,0,0,0,.03,4.2v.007a27.33,27.33,0,0,0,1.4,6.374c.038.12.081.226.12.34q.3.84.65,1.68c.068.161.132.322.2.48.289.662.6,1.32.937,1.99l.014.026.006.01a10.529,10.529,0,0,0,.688,1.132c.042.061.084.12.129.182,4.375,6.107,16.068,9.68,29.66,11.077-1.263,2.812-3.343,7.331-4.544,9.366l-.54.911c-1.732,2.907-3.227,5.416-2.737,7.072a6.035,6.035,0,0,0,3.636,3.611,1.771,1.771,0,0,0,1.79-.554,80.927,80.927,0,0,0,5.047-9.261c-.372,4.023-.9,10.574.258,12.825a3.537,3.537,0,0,0,1.028,1.112c.157.459.562,2.2-1.2,4.479-1.611,2.085-2.237,4.122-1.715,5.591a2.692,2.692,0,0,0,2.053,1.734,15.049,15.049,0,0,0,3.127.274c3.08,0,6.953-.623,7.473-2.543a34.4,34.4,0,0,0,.473-6.139c.756.12,1.516.206,2.28.282Z"/>
    <g id="_5" data-name=" 5" class="cls-1">
      <text id="_5-2" data-name="5" class="cls-2" transform="translate(337.997 1483.88)"><tspan x="0" y="0">5</tspan></text>
    </g>
  </g>
</svg>
