<svg xmlns="http://www.w3.org/2000/svg" width="113.374" height="179.858" viewBox="0 0 113.374 179.858">
  <defs>
    <style>
      .cls-1 {
        fill: #fff;
        font-size: 43.305px;
        font-family: TimesNewRomanPS-BoldMT, Times New Roman;
        font-weight: 700;
      }
    </style>
  </defs>
  <g id="组_3813" data-name="组 3813" transform="translate(-1008.347 -1103.083)">
    <path id="路径_10319" data-name="路径 10319" d="M1121.233,1159.719l-.209-.863c-3.566-14.622-8.45-34.65-39.78-50.392-11.117-5.584-20.716-6.83-28.53-3.7a23.951,23.951,0,0,0-12.663,12.364,52.03,52.03,0,0,0-31.7-11.319v168.218a34.466,34.466,0,0,0,5.481-.521c.064-.011.121-.029.183-.041.107,1.12.25,2.2.414,3.156l-.019.041c-.643,1.39-1.268,3.19-.593,3.879a11.163,11.163,0,0,0,6.312,1.847,2.682,2.682,0,0,0,1.053-.287,2.57,2.57,0,0,0,1.636.762,10.544,10.544,0,0,0,1.31.077,15.969,15.969,0,0,0,3.864-.512l.328-.092.089-.328c.013-.045.024-.089.036-.133a2.07,2.07,0,0,0,.64.369c.885.278,2.4-.465,3.047-1.095a1.187,1.187,0,0,0,.452-1.187,8.076,8.076,0,0,0-1.318-2.1c1.256-2.752,1.1-12.12.987-15.652a18.64,18.64,0,0,0,6.383-5.352c2.911-5.3.818-12.231-.71-17.29-.3-.978-.572-1.89-.785-2.709a71.04,71.04,0,0,0-2.9-9.377c0-.013.025-.07.125-.12.3-.15.984-.089,1.976.541,1.9,1.206,9.714.742,13.963-1.251a8,8,0,0,0,1.778-1.1c2.248-.15,2.526-2.043,2.654-3.008a1.206,1.206,0,0,0-.259-.958,1.635,1.635,0,0,0-.785-.488,5.551,5.551,0,0,0,.368-1.3,2.091,2.091,0,0,0-1.3-2.289,2.193,2.193,0,0,0-.106-1.455,32.206,32.206,0,0,0,10.416,1.556c10.629,0,22.87-3.783,30.5-8.841C1108.928,1198.581,1124.715,1173.946,1121.233,1159.719Zm-75.433,52.139a17.955,17.955,0,0,0-2.221.995c-2.343,1.175-5.421,2.706-9.061,2.118.13-.55.249-1.1.359-1.632q2.015-1.237,3.915-2.646l.018.017.412-.312c.226-.171.442-.358.666-.533q.393-.307.779-.622c.459-.373.915-.75,1.364-1.138.264-.229.523-.465.783-.7.06-.054.12-.106.179-.16a13.217,13.217,0,0,0,2.817,4.607Z"/>
    <text id="_7" data-name="7" class="cls-1" transform="translate(1048.987 1172.499)"><tspan x="0" y="0">7</tspan></text>
  </g>
</svg>
