<svg xmlns="http://www.w3.org/2000/svg" width="417.556" height="329.049" viewBox="0 0 417.556 329.049">
  <defs>
    <style>
      .cls-1 {
        fill: #3a8c9e;
      }

      .cls-2 {
        fill: #54a5b8;
      }

      .cls-3 {
        fill: #7199c3;
      }

      .cls-4 {
        fill: #c7e3ff;
      }

      .cls-5 {
        fill: #93bbe7;
      }

      .cls-6 {
        fill: #fec505;
      }

      .cls-7 {
        fill: #f5ede6;
      }

      .cls-8 {
        fill: #ff9b09;
      }

      .cls-19, .cls-9 {
        fill: #fff;
      }

      .cls-10, .cls-9 {
        font-size: 42.687px;
        font-family: TimesNewRomanPS-BoldMT, Times New Roman;
        font-weight: 700;
      }

      .cls-10, .cls-12 {
        fill: #964615;
      }

      .cls-11, .cls-18 {
        fill: none;
        stroke-linecap: round;
      }

      .cls-11 {
        stroke: #964615;
        stroke-miterlimit: 10;
        stroke-width: 3px;
      }

      .cls-13 {
        fill: #7c4319;
      }

      .cls-14 {
        fill: #955824;
      }

      .cls-15 {
        fill: #edce9f;
      }

      .cls-16 {
        fill: #774c1d;
      }

      .cls-17 {
        fill: #763c19;
      }

      .cls-18 {
        stroke: #763c19;
        stroke-linejoin: round;
        stroke-width: 2px;
      }

      .cls-20 {
        fill: #2b71b0;
      }

      .cls-21 {
        fill: #e7ffff;
      }

      .cls-22 {
        fill: #fcb2a9;
      }
    </style>
  </defs>
  <g id="组_3860" data-name="组 3860" transform="translate(-55.393 -285.052)">
    <g id="组_3841" data-name="组 3841">
      <g id="组_3840" data-name="组 3840">
        <g id="组_3839" data-name="组 3839">
          <rect id="矩形_1306" data-name="矩形 1306" class="cls-1" width="306.969" height="309.018" rx="24.464" transform="translate(55.393 289.328)"/>
          <rect id="矩形_1307" data-name="矩形 1307" class="cls-2" width="306.969" height="309.018" rx="24.464" transform="translate(55.393 285.052)"/>
          <rect id="矩形_1308" data-name="矩形 1308" class="cls-3" width="282.482" height="278.469" rx="21.262" transform="translate(67.637 303.359)"/>
          <rect id="矩形_1309" data-name="矩形 1309" class="cls-4" width="282.482" height="274.765" rx="21.12" transform="translate(67.637 300.653)"/>
          <rect id="矩形_1310" data-name="矩形 1310" class="cls-5" width="282.482" height="269.259" rx="21.014" transform="translate(67.637 306.159)"/>
        </g>
      </g>
    </g>
    <g id="组_3843" data-name="组 3843">
      <g id="组_3842" data-name="组 3842">
        <path id="路径_10384" data-name="路径 10384" class="cls-6" d="M472.949,598.345c0,1.715-1.4,3.363-3.989,4.9a37.234,37.234,0,0,1-7.448,3.189,99.446,99.446,0,0,1-10.34,2.678c-2.583.538-5.362,1.042-8.315,1.507q-5.268.827-11.222,1.48-4.269.474-8.84.834-6.116.493-12.7.78-5.247.233-10.744.323-3.46.062-7,.061c-2.381,0-4.742-.02-7.07-.061-3.97-.067-7.865-.188-11.646-.37q-6.4-.293-12.358-.78-3.916-.324-7.623-.727c-3.962-.417-7.723-.908-11.241-1.446q-4.42-.7-8.316-1.487H334.1a102.3,102.3,0,0,1-10.368-2.631,40,40,0,0,1-7.474-3.067c-2.9-1.622-4.481-3.364-4.481-5.187a3.651,3.651,0,0,1,.559-1.864l1.863-6.149,5.1-16.866,3.559-11.746H461.869l3.693,12.21,5.093,16.839,1.729,5.712A3.593,3.593,0,0,1,472.949,598.345Z"/>
        <ellipse id="椭圆_1775" data-name="椭圆 1775" class="cls-7" cx="69.507" cy="13.586" rx="69.507" ry="13.586" transform="translate(322.857 548.136)"/>
      </g>
      <circle id="椭圆_1776" data-name="椭圆 1776" class="cls-8" cx="8.836" cy="8.836" r="8.836" transform="translate(341.169 582.693)"/>
      <path id="路径_10385" data-name="路径 10385" class="cls-8" d="M326.254,582.1a8.839,8.839,0,0,1-12.056,8.228l5.1-16.866A8.84,8.84,0,0,1,326.254,582.1Z"/>
      <circle id="椭圆_1777" data-name="椭圆 1777" class="cls-8" cx="8.836" cy="8.836" r="8.836" transform="translate(427.512 582.693)"/>
      <path id="路径_10386" data-name="路径 10386" class="cls-8" d="M470.655,590.769a9.024,9.024,0,0,1-1.722.169,8.839,8.839,0,0,1-3.371-17.008Z"/>
      <circle id="椭圆_1778" data-name="椭圆 1778" class="cls-8" cx="8.836" cy="8.836" r="8.836" transform="translate(383.529 587.911)"/>
    </g>
    <g id="组_3846" data-name="组 3846">
      <text id="_7" data-name="7" class="cls-9" transform="translate(229.791 358.639)"><tspan x="0" y="0">7</tspan></text>
      <text id="_7-2" data-name="7" class="cls-9" transform="translate(110.377 358.639)"><tspan x="0" y="0">7</tspan></text>
      <text id="_" data-name="+" class="cls-10" transform="translate(168.107 358.639)"><tspan x="0" y="0">+</tspan></text>
      <path id="路径_10389" data-name="路径 10389" class="cls-11" d="M200.04,501.073v15.8H120.552V369.368"/>
      <text id="_10" data-name="10" class="cls-9" transform="translate(136.9 558.249)"><tspan x="0" y="0">10</tspan></text>
      <g id="组_3844" data-name="组 3844">
        <line id="直线_133" data-name="直线 133" class="cls-12" y1="38.043" x2="27.83" transform="translate(204.9 369.368)"/>
        <path id="路径_10390" data-name="路径 10390" class="cls-12" d="M232.731,367.868a1.5,1.5,0,0,0-1.211.614l-27.83,38.043a1.5,1.5,0,1,0,2.42,1.771l27.83-38.042a1.5,1.5,0,0,0-1.209-2.386Z"/>
      </g>
      <g id="组_3845" data-name="组 3845">
        <line id="直线_134" data-name="直线 134" class="cls-12" x2="27.588" y2="37.021" transform="translate(248.304 369.368)"/>
        <path id="路径_10391" data-name="路径 10391" class="cls-12" d="M248.3,367.868a1.5,1.5,0,0,0-1.2,2.4l27.588,37.022a1.5,1.5,0,1,0,2.4-1.793l-27.588-37.022A1.5,1.5,0,0,0,248.3,367.868Z"/>
      </g>
    </g>
    <g id="图层_2" data-name="图层 2">
      <g id="图层_1-2" data-name="图层 1-2">
        <path id="路径_10433" data-name="路径 10433" class="cls-13" d="M392.9,533.54s-.73,12.13,14.66,8.4c10.71-2.6,15-9.44,18.05-17.23,1.2-3,9.61-16,16-14.94s6.78-3.43,5.43-4.77-5.11-4.58-11-.54-13.97,19.18-14.33,19.59-7.09,15.66-14,14.68-7.45-3.68-8.08-5.93S394.875,529.21,392.9,533.54Z"/>
        <path id="路径_10434" data-name="路径 10434" class="cls-14" d="M375.825,516.81s-6.74,22.73,2.78,29.06,17.36,5.46,26,1.59,6.15-16.86,5.45-20-2.78-10.31-3.57-11.4S376.815,512.76,375.825,516.81Z"/>
        <path id="路径_10435" data-name="路径 10435" class="cls-14" d="M407.245,517.54s16.44-2.45,18.37,5.58c0,3.87-2.08,2.53-3.12,1.78s-3.15-4.36-6.22-3.66-8.36,1.5-9,1.35a3.14,3.14,0,0,1-.03-5.05Z"/>
        <path id="路径_10436" data-name="路径 10436" class="cls-14" d="M375.225,523.7s-16.44,2.45-18.38-5.58c0-3.87,2.09-2.53,3.13-1.79s3.14,4.34,6.22,3.66,8.36-1.5,9-1.35a3.14,3.14,0,0,1,.03,5.06Z"/>
        <path id="路径_10437" data-name="路径 10437" class="cls-14" d="M380.8,547.23s-4.06,5.67-4.21,8.13,5.65,6.84,7.66,6.92,3.76-1.83,3.28-3.13-3.65-4-3.72-4.4,1.61-5,2.07-5.27S383.045,544.86,380.8,547.23Z"/>
        <path id="路径_10438" data-name="路径 10438" class="cls-14" d="M392.965,550.54s-1,16.7,4.31,16.1c3.5-.89,3.38-2.31,2.47-17.28C397.055,549.31,394.085,545.89,392.965,550.54Z"/>
        <ellipse id="椭圆_1789" data-name="椭圆 1789" class="cls-14" cx="46.55" cy="40.34" rx="46.55" ry="40.34" transform="translate(344.685 436.69)"/>
        <path id="路径_10439" data-name="路径 10439" class="cls-14" d="M424.175,450.31s8.06-19,19.29-13.9,10.09,19.41,10.09,20.43-2.86,9.23-15.92,13.1C432.485,468.45,423.7,451.35,424.175,450.31Z"/>
        <circle id="椭圆_1790" data-name="椭圆 1790" class="cls-15" cx="8.95" cy="8.95" r="8.95" transform="translate(430.435 443.79)"/>
        <path id="路径_10440" data-name="路径 10440" class="cls-14" d="M360.375,450.31s-8.06-19.01-19.29-13.9-10.12,19.41-10.12,20.43,2.89,9.23,16,13.1C352.065,468.45,360.855,451.35,360.375,450.31Z"/>
        <circle id="椭圆_1791" data-name="椭圆 1791" class="cls-15" cx="8.95" cy="8.95" r="8.95" transform="translate(336.215 443.79)"/>
        <path id="路径_10441" data-name="路径 10441" class="cls-15" d="M358.485,486.05s-2.67-35.12,19.28-37c11.45-1,13.26,3.63,13.26,3.63s11.74-9.76,24.94.73c11.62,10.13,7.23,32.64,7.23,32.64s8,.19,9.73,2.87-5.36,24.62-31.24,28c0,0-23.09,4.84-41.89-9.82-10.24-7.98-11.42-15.56-8.83-17.23S356.515,486.05,358.485,486.05Z"/>
        <path id="路径_10442" data-name="路径 10442" class="cls-16" d="M410.455,463.09a2.54,2.54,0,0,0-2.871,2.159c-.008.06-.015.121-.019.181,0,1.75,1.87,1.45,2.89,1.88s.85-.22,4.64,2.34c1.75,1.19,3.41-1.53,2-2.94S415.605,464.88,410.455,463.09Z"/>
        <path id="路径_10443" data-name="路径 10443" class="cls-16" d="M374.455,463.09a2.54,2.54,0,0,1,2.871,2.159c.008.06.015.121.019.181,0,1.75-1.87,1.45-2.89,1.88s-.85-.22-4.64,2.34c-1.75,1.19-3.41-1.53-2-2.94S369.3,464.88,374.455,463.09Z"/>
        <ellipse id="椭圆_1792" data-name="椭圆 1792" class="cls-17" cx="5.62" cy="3.43" rx="5.62" ry="3.43" transform="translate(385.805 486.69)"/>
        <line id="直线_135" data-name="直线 135" class="cls-18" y2="7.07" transform="translate(391.425 493.55)"/>
        <path id="路径_10444" data-name="路径 10444" class="cls-18" d="M379.045,495.39s11.57,12.94,24.83,0"/>
        <circle id="椭圆_1793" data-name="椭圆 1793" class="cls-19" cx="8.45" cy="8.45" r="8.45" transform="translate(402.235 470.85)"/>
        <circle id="椭圆_1794" data-name="椭圆 1794" class="cls-20" cx="6.39" cy="6.39" r="6.39" transform="translate(404.295 472.91)"/>
        <ellipse id="椭圆_1795" data-name="椭圆 1795" class="cls-21" cx="3.17" cy="1.88" rx="3.17" ry="1.88" transform="translate(411.285 477.42)"/>
        <circle id="椭圆_1796" data-name="椭圆 1796" class="cls-19" cx="8.45" cy="8.45" r="8.45" transform="translate(365.395 470.85)"/>
        <circle id="椭圆_1797" data-name="椭圆 1797" class="cls-20" cx="6.39" cy="6.39" r="6.39" transform="translate(367.455 472.91)"/>
        <ellipse id="椭圆_1798" data-name="椭圆 1798" class="cls-21" cx="3.17" cy="1.88" rx="3.17" ry="1.88" transform="translate(374.455 477.42)"/>
        <path id="路径_10445" data-name="路径 10445" class="cls-22" d="M428.9,500.89a9.52,9.52,0,1,0-10.29,10A35.49,35.49,0,0,0,428.9,500.89Z"/>
        <path id="路径_10446" data-name="路径 10446" class="cls-22" d="M372.315,501.42a9.52,9.52,0,0,0-19-.72,35.9,35.9,0,0,0,6.5,6.4,47.423,47.423,0,0,0,5.27,3.57A9.53,9.53,0,0,0,372.315,501.42Z"/>
      </g>
    </g>
  </g>
</svg>
