<svg xmlns="http://www.w3.org/2000/svg" width="428.379" height="329.049" viewBox="0 0 428.379 329.049">
  <defs>
    <style>
      .cls-1 {
        fill: #7867b5;
      }

      .cls-2 {
        fill: #9484c9;
      }

      .cls-3 {
        fill: #ac99cc;
      }

      .cls-4 {
        fill: #fcfbff;
      }

      .cls-5 {
        fill: #cabae3;
      }

      .cls-6 {
        fill: #fe624b;
      }

      .cls-7 {
        fill: #e84f38;
      }

      .cls-8 {
        fill: #f5ede6;
      }

      .cls-21, .cls-9 {
        fill: #fff;
      }

      .cls-10, .cls-9 {
        font-size: 42.687px;
        font-family: TimesNewRomanPS-BoldMT, Times New Roman;
        font-weight: 700;
      }

      .cls-10, .cls-12 {
        fill: #964615;
      }

      .cls-11, .cls-20 {
        fill: none;
        stroke-linecap: round;
      }

      .cls-11 {
        stroke: #964615;
        stroke-miterlimit: 10;
        stroke-width: 3px;
      }

      .cls-13 {
        fill: #efc56a;
      }

      .cls-14 {
        fill: #f5b01a;
      }

      .cls-15 {
        fill: #ee7b1c;
      }

      .cls-16 {
        fill: #f6af1a;
      }

      .cls-17 {
        fill: #f0d5b7;
      }

      .cls-18 {
        fill: #ef7a1a;
      }

      .cls-19 {
        fill: #805121;
      }

      .cls-20 {
        stroke: #805121;
        stroke-linejoin: round;
        stroke-width: 2px;
      }

      .cls-22 {
        fill: #2b71b0;
      }

      .cls-23 {
        fill: #e7ffff;
      }

      .cls-24 {
        fill: #edd7b3;
      }

      .cls-25 {
        fill: #fcb2a9;
      }
    </style>
  </defs>
  <g id="组_3862" data-name="组 3862" transform="translate(-625.249 -285.052)">
    <g id="组_3853" data-name="组 3853">
      <g id="组_3852" data-name="组 3852">
        <g id="组_3851" data-name="组 3851">
          <rect id="矩形_1311" data-name="矩形 1311" class="cls-1" width="306.969" height="309.018" rx="24.464" transform="translate(625.249 289.328)"/>
          <rect id="矩形_1312" data-name="矩形 1312" class="cls-2" width="306.969" height="309.018" rx="24.464" transform="translate(625.249 285.052)"/>
          <rect id="矩形_1313" data-name="矩形 1313" class="cls-3" width="282.482" height="278.469" rx="21.262" transform="translate(637.493 303.359)"/>
          <rect id="矩形_1314" data-name="矩形 1314" class="cls-4" width="282.482" height="274.765" rx="21.12" transform="translate(637.493 300.653)"/>
          <rect id="矩形_1315" data-name="矩形 1315" class="cls-5" width="282.482" height="269.259" rx="21.014" transform="translate(637.493 306.159)"/>
        </g>
      </g>
    </g>
    <g id="组_3856" data-name="组 3856">
      <g id="组_3855" data-name="组 3855">
        <g id="组_3854" data-name="组 3854">
          <path id="路径_10447" data-name="路径 10447" class="cls-6" d="M1053.625,597.886c0,1.766-1.44,3.462-4.1,5.047a38.33,38.33,0,0,1-7.664,3.282,102.487,102.487,0,0,1-10.642,2.756c-2.658.553-5.518,1.073-8.557,1.55q-5.421.852-11.548,1.523-4.394.489-9.1.859-6.294.508-13.065.8-5.4.238-11.056.332-3.562.063-7.2.063c-2.45,0-4.881-.021-7.276-.063-4.085-.069-8.093-.193-11.984-.38q-6.585-.3-12.718-.8-4.03-.333-7.845-.748c-4.078-.429-7.948-.935-11.569-1.489q-4.548-.715-8.557-1.53h-.007a105.355,105.355,0,0,1-10.669-2.707,41.184,41.184,0,0,1-7.692-3.157c-2.984-1.668-4.61-3.461-4.61-5.338a3.754,3.754,0,0,1,.574-1.918l1.918-6.327,5.248-17.357,3.662-12.088h143.057l3.8,12.566,5.24,17.329,1.78,5.877A3.7,3.7,0,0,1,1053.625,597.886Z"/>
        </g>
      </g>
      <path id="路径_10448" data-name="路径 10448" class="cls-7" d="M899.165,560.2l-11.4,37.688L928.224,560.2Z"/>
      <path id="路径_10449" data-name="路径 10449" class="cls-7" d="M970.7,560.2l-29.313,52.862L928.224,560.2Z"/>
      <path id="路径_10450" data-name="路径 10450" class="cls-7" d="M1042.225,560.2l11.4,37.688L1013.166,560.2Z"/>
      <path id="路径_10451" data-name="路径 10451" class="cls-7" d="M970.7,560.2l29.313,52.862,13.158-52.862Z"/>
      <ellipse id="椭圆_1799" data-name="椭圆 1799" class="cls-8" cx="71.53" cy="13.982" rx="71.53" ry="13.982" transform="translate(899.165 546.216)"/>
    </g>
    <g id="组_3859" data-name="组 3859">
      <text id="_6" data-name="6" class="cls-9" transform="translate(821.046 365.873)"><tspan x="0" y="0">6</tspan></text>
      <text id="_4" data-name="4" class="cls-9" transform="translate(858.509 474.231)"><tspan x="0" y="0">4</tspan></text>
      <text id="_" data-name="+" class="cls-10" transform="translate(768.361 365.873)"><tspan x="0" y="0">+</tspan></text>
      <path id="路径_10454" data-name="路径 10454" class="cls-11" d="M791.294,508.307v15.8H711.806v-129"/>
      <text id="_10" data-name="10" class="cls-9" transform="translate(728.154 565.483)"><tspan x="0" y="0">10</tspan></text>
      <g id="组_3857" data-name="组 3857">
        <line id="直线_136" data-name="直线 136" class="cls-12" y1="38.043" x2="27.83" transform="translate(796.154 376.602)"/>
        <path id="路径_10455" data-name="路径 10455" class="cls-12" d="M823.985,375.1a1.5,1.5,0,0,0-1.211.614l-27.83,38.043a1.5,1.5,0,1,0,2.421,1.771l27.83-38.042a1.5,1.5,0,0,0-1.21-2.386Z"/>
      </g>
      <g id="组_3858" data-name="组 3858">
        <line id="直线_137" data-name="直线 137" class="cls-12" x2="27.588" y2="37.021" transform="translate(839.558 376.602)"/>
        <path id="路径_10456" data-name="路径 10456" class="cls-12" d="M839.557,375.1a1.5,1.5,0,0,0-1.2,2.4l27.588,37.022a1.5,1.5,0,1,0,2.405-1.793L840.761,375.7A1.5,1.5,0,0,0,839.557,375.1Z"/>
      </g>
    </g>
    <g id="图层_2" data-name="图层 2">
      <g id="图层_1-2" data-name="图层 1-2">
        <path id="路径_10457" data-name="路径 10457" class="cls-13" d="M979.813,550.922s3.12-8.52,9.76-12.43,14,.52,18.09-6.46,2.69.91,2.69.91-2.72,7.33-12.69,7.09-11.07,5.69-12.85,8.75-4.26,6.47-5.79,5.54S979.813,550.922,979.813,550.922Z"/>
        <path id="路径_10458" data-name="路径 10458" class="cls-13" d="M952.173,545.762s-1.92,10.59.56,13.41c.64,1.35,1.19.36,1.23,2.28s2.79,4.55,6.35,2.21a4.912,4.912,0,0,0,2-6.62,3.5,3.5,0,0,0-2.25-1.28l-.09-4.89.1-3.75S955.383,542.252,952.173,545.762Z"/>
        <path id="路径_10459" data-name="路径 10459" class="cls-13" d="M974.963,552.282s-2.1,9.71.92,12a4.88,4.88,0,0,0,7.75-2.7c.87-3.36,1.61-14.56,1.61-14.56l-.14-3.35-10.8,2.35Z"/>
        <path id="路径_10460" data-name="路径 10460" class="cls-14" d="M949.443,513.232s-9.26,1.48-10.37,10.12c0,0-1,3.12.81,4.72a5.171,5.171,0,0,0,5.72.4c.88-.74,2.55-8.27,4.13-8.25s2.21.27,1.11,6.78-3.78,14.12,2,19.49,14.07,7.09,22.07,5.79,11.56-6.33,13.72-10.08-.59-14.31-1.18-16.72-1.47-6-1.47-6-.85-1.49,1.55-1,13.25,1.41,15-6.57c1-3.76,1.49-7-2.8-7.47a7.587,7.587,0,0,0-4.49,3.06c-1.78,2.57-4.67,5-8.86,4s-14.14-6.26-14.14-6.26l-18.58-.69Z"/>
        <path id="路径_10461" data-name="路径 10461" class="cls-15" d="M954.143,414.4s.42-13.84,9.35-16.38c2.75-.38,3.54,3.25.89,15,1.26,1.61,4.38-11.77,11.58-11.4s.45,10.76.08,11.33,11.26-1.33,26.93,6.48,22.15,24,22.52,26.68c0,0,6.46-5.52,10.79-5s-4.72,12.62-7.19,15.28,2.51.39,2.51.39,7.16-2.57,7.67,3.33-5.45,10.71-12.51,10.91c-.67,1.33-3.08,16.39-18.46,26.36-5.83,4.2-7.35,4.32-7.69,7.54s-.22,11.85-5.78,8c-2.1-2.16-2.13-6.15-2.13-6.15s-1.21,10.6-5.65,11.38c-2.87.42-4.81-3.13-4.81-3.13s.07,11.76-9.91,11.59-10.39-8.69-10.39-8.69-4.62,9.44-10.17,3.76c-3.52-4.09-3.46-6.42-3.46-6.42s-1.76,4-3.54,4.22-5.78-3.59-6.68-11.13c-3.18-.15-16.86-3.17-25.21-14.71-1.88-.07-2.08,3.63-7,3.66s-5.64-4.45-3.64-7.69.23-1.29-1.28-1.65-6.31-2.43-3.29-5.81,5-2.92,5-2.92.41-.4-3.7-1.59-7.12-7.45-2-8.49a40.868,40.868,0,0,1,7.46-1s-.63-27.67,25.5-45.13C937.663,417.372,954.143,414.4,954.143,414.4Z"/>
        <path id="路径_10462" data-name="路径 10462" class="cls-16" d="M930.443,454.892s-11.46-10.28-4.09-17.61,14-2.47,16.59,1l2.63,3.5s16-11.08,40.67-1.76c0,0,5.19-12.91,16.09-8.56s3.93,17.33-1.32,21c-.45.49,9.07,16.63,4.57,30.21-2.16,1.16-77,1.38-77,1.38S919.933,469.732,930.443,454.892Z"/>
        <path id="路径_10463" data-name="路径 10463" class="cls-17" d="M1005.553,482.732c-8.26-8.11-21.46-12-36.69-12.24-16.84-.28-32,4.31-40.34,13.62A57.864,57.864,0,0,0,962,499.342C980.563,501.022,997.123,493.192,1005.553,482.732Z"/>
        <path id="路径_10464" data-name="路径 10464" class="cls-18" d="M960.113,470.8s.37-14.19,10.13-12.35c5.13,1.7,5.86,12.45,5.86,12.45s-.09,2.05-1.18,2.89S959.1,476.532,960.113,470.8Z"/>
        <path id="路径_10465" data-name="路径 10465" class="cls-19" d="M958.883,472.472a3.624,3.624,0,0,0,2,4.8c3.38,1.43,15.76,1.87,16-1.76s-2.91-5.62-4.44-6.09a31.129,31.129,0,0,0-9.72-.13A6.277,6.277,0,0,0,958.883,472.472Z"/>
        <path id="路径_10466" data-name="路径 10466" class="cls-20" d="M947.443,483.792s4.28,9.82,15.14,5.76c5.35-2.56,4.37-6.73,4.37-6.73"/>
        <path id="路径_10467" data-name="路径 10467" class="cls-20" d="M986.633,483.072s-3.39,10.17-14.57,7.1c-5.56-2.08-4.95-6.32-4.95-6.32"/>
        <circle id="椭圆_1800" data-name="椭圆 1800" class="cls-21" cx="7.85" cy="7.85" r="7.85" transform="translate(978.803 455.272)"/>
        <circle id="椭圆_1801" data-name="椭圆 1801" class="cls-22" cx="6.1" cy="6.1" r="6.1" transform="translate(979.923 458.732)"/>
        <circle id="椭圆_1802" data-name="椭圆 1802" class="cls-23" cx="2.42" cy="2.42" r="2.42" transform="translate(987.573 460.822)"/>
        <circle id="椭圆_1803" data-name="椭圆 1803" class="cls-21" cx="7.85" cy="7.85" r="7.85" transform="translate(942.163 455.162)"/>
        <circle id="椭圆_1804" data-name="椭圆 1804" class="cls-22" cx="6.1" cy="6.1" r="6.1" transform="translate(943.273 458.622)"/>
        <circle id="椭圆_1805" data-name="椭圆 1805" class="cls-23" cx="2.42" cy="2.42" r="2.42" transform="translate(950.933 460.702)"/>
        <path id="路径_10468" data-name="路径 10468" class="cls-18" d="M984.183,449.932s-2.65-2.39,1.67-2.51,7.59,2.44,7.81,4.3-2.26,1.43-3.38.72-3.1-1.61-4.04-1.52A3.377,3.377,0,0,1,984.183,449.932Z"/>
        <path id="路径_10469" data-name="路径 10469" class="cls-18" d="M949.483,449.882s2.33-2.7-2-2.28-7.24,3.36-7.19,5.24,2.42,1.13,3.45.29,2.87-2,3.83-2S949.483,449.882,949.483,449.882Z"/>
        <path id="路径_10470" data-name="路径 10470" class="cls-24" d="M933.693,449.772s6.85-6.75,7.14-6.82-1.15-6.2-5.55-6-7.14,3.65-6.42,6.07S931.863,449.292,933.693,449.772Z"/>
        <path id="路径_10471" data-name="路径 10471" class="cls-24" d="M999.773,447.5s-7.9-5.48-8.2-5.48.08-6.3,4.44-6.84,7.66,2.37,7.37,4.89S1001.483,446.722,999.773,447.5Z"/>
        <path id="路径_10472" data-name="路径 10472" class="cls-15" d="M1006.463,521.082s-4.94,5.69.51,9.93,8.54-1.4,9.24-4.6-.45-10.15-5.86-11.52c-2.8-.18-.61,1.57-.71,2.1S1009.9,518.872,1006.463,521.082Z"/>
        <path id="路径_10473" data-name="路径 10473" class="cls-25" d="M1005.013,483.362a8.359,8.359,0,0,0-1.35-2.34,34.89,34.89,0,0,0-3.21-2.4,8.31,8.31,0,0,0-7.86,14.56A42.824,42.824,0,0,0,1005.013,483.362Z"/>
        <path id="路径_10474" data-name="路径 10474" class="cls-25" d="M938.523,478.022a8.31,8.31,0,0,0-8.28,7.63,59.236,59.236,0,0,0,12.14,8,8.31,8.31,0,0,0-3.86-15.63Z"/>
      </g>
    </g>
  </g>
</svg>
