<svg xmlns="http://www.w3.org/2000/svg" width="411.063" height="329.13" viewBox="0 0 411.063 329.13">
  <defs>
    <style>
      .cls-1 {
        fill: #8f552b;
      }

      .cls-2 {
        fill: #ad7043;
      }

      .cls-3 {
        fill: #ba915f;
      }

      .cls-4 {
        fill: #ffddb5;
      }

      .cls-5 {
        fill: #e3b781;
      }

      .cls-16, .cls-6 {
        fill: #fff;
      }

      .cls-6 {
        font-size: 42.687px;
        font-family: TimesNewRomanPS-BoldMT, Times New Roman;
        font-weight: 700;
      }

      .cls-19, .cls-7 {
        fill: none;
        stroke-miterlimit: 10;
      }

      .cls-7 {
        stroke: #964615;
        stroke-linecap: round;
        stroke-width: 3px;
      }

      .cls-8 {
        fill: #964615;
      }

      .cls-9 {
        fill: #ff9b09;
      }

      .cls-10 {
        fill: #ff7d07;
      }

      .cls-11 {
        fill: #f5ede6;
      }

      .cls-12 {
        fill: #a7a5a5;
      }

      .cls-13 {
        fill: #c6c4c5;
      }

      .cls-14 {
        fill: #c3c5c7;
      }

      .cls-15 {
        fill: #ece7e6;
      }

      .cls-17 {
        fill: #2b71b0;
      }

      .cls-18 {
        fill: #fcb2a9;
      }

      .cls-19 {
        stroke: #a7a5a5;
      }
    </style>
  </defs>
  <g id="组_3861" data-name="组 3861" transform="translate(-223.315 -11.895)">
    <g id="组_3833" data-name="组 3833">
      <g id="组_3832" data-name="组 3832">
        <g id="组_3828" data-name="组 3828">
          <rect id="矩形_1296" data-name="矩形 1296" class="cls-1" width="306.969" height="309.018" rx="24.464" transform="translate(223.315 16.171)"/>
          <rect id="矩形_1297" data-name="矩形 1297" class="cls-2" width="306.969" height="309.018" rx="24.464" transform="translate(223.315 11.895)"/>
          <rect id="矩形_1298" data-name="矩形 1298" class="cls-3" width="282.482" height="278.469" rx="21.262" transform="translate(235.559 30.202)"/>
          <rect id="矩形_1299" data-name="矩形 1299" class="cls-4" width="282.482" height="274.765" rx="21.12" transform="translate(235.559 27.495)"/>
          <rect id="矩形_1300" data-name="矩形 1300" class="cls-5" width="282.482" height="269.259" rx="21.014" transform="translate(235.559 33.002)"/>
        </g>
        <g id="组_3831" data-name="组 3831">
          <text id="_5" data-name="5" class="cls-6" transform="translate(274.327 215.245)"><tspan x="0" y="0">5</tspan></text>
          <text id="_1" data-name="1" class="cls-6" transform="translate(355.38 215.245)"><tspan x="0" y="0">1</tspan></text>
          <path id="路径_10350" data-name="路径 10350" class="cls-7" d="M366.923,223.611v15.8h79.488V142.163"/>
          <text id="_10" data-name="10" class="cls-6" transform="translate(384.453 281.391)"><tspan x="0" y="0">10</tspan></text>
          <g id="组_3829" data-name="组 3829">
            <line id="直线_131" data-name="直线 131" class="cls-8" y1="38.043" x2="27.83" transform="translate(291.656 142.163)"/>
            <path id="路径_10351" data-name="路径 10351" class="cls-8" d="M319.487,140.663a1.5,1.5,0,0,0-1.211.614l-27.83,38.043a1.5,1.5,0,1,0,2.42,1.771L320.7,143.049a1.5,1.5,0,0,0-1.21-2.386Z"/>
          </g>
          <g id="组_3830" data-name="组 3830">
            <line id="直线_132" data-name="直线 132" class="cls-8" x2="27.588" y2="37.021" transform="translate(335.06 142.163)"/>
            <path id="路径_10352" data-name="路径 10352" class="cls-8" d="M335.059,140.663a1.5,1.5,0,0,0-1.2,2.4l27.588,37.022a1.5,1.5,0,1,0,2.4-1.793l-27.588-37.021A1.5,1.5,0,0,0,335.059,140.663Z"/>
          </g>
        </g>
      </g>
      <path id="路径_26454" data-name="路径 26454" class="cls-8" d="M.9-16.711H11.7V-27.492h2.942v10.781h10.8v2.965h-10.8V-3.055H11.7V-13.746H.9Z" transform="translate(373 106)"/>
    </g>
    <g id="组_3834" data-name="组 3834">
      <path id="路径_10353" data-name="路径 10353" class="cls-9" d="M631.739,325.331c0,1.709-1.394,3.351-3.974,4.885a37.006,37.006,0,0,1-7.418,3.176,99,99,0,0,1-10.3,2.668c-2.573.536-5.341,1.038-8.283,1.5q-5.247.823-11.177,1.474-4.252.473-8.806.831-6.092.492-12.645.777-5.226.231-10.7.322-3.447.06-6.969.06c-2.372,0-4.724-.02-7.043-.06-3.954-.067-7.834-.188-11.6-.369q-6.372-.291-12.31-.777-3.9-.321-7.592-.724c-3.947-.415-7.693-.9-11.2-1.441q-4.4-.693-8.283-1.481h-.006a101.71,101.71,0,0,1-10.327-2.62,39.868,39.868,0,0,1-7.445-3.055c-2.888-1.615-4.463-3.351-4.463-5.167a3.629,3.629,0,0,1,.556-1.856l10.481-34.625H620.7l10.474,34.625A3.583,3.583,0,0,1,631.739,325.331Z"/>
      <path id="路径_10354" data-name="路径 10354" class="cls-10" d="M488.836,288.85,475.661,330.5c-2.888-1.615-4.463-3.351-4.463-5.167a3.629,3.629,0,0,1,.556-1.856l10.481-34.625Z"/>
      <path id="路径_10355" data-name="路径 10355" class="cls-10" d="M558.434,340.965q-3.447.06-6.969.06c-2.372,0-4.724-.02-7.043-.06l1.943-52.115h9.677Z"/>
      <path id="路径_10356" data-name="路径 10356" class="cls-10" d="M534.88,288.85,532.822,340.6q-6.372-.291-12.31-.777l6-50.969Z"/>
      <path id="路径_10357" data-name="路径 10357" class="cls-10" d="M581.781,339.866q-6.092.492-12.645.777l-2.647-51.793h7.975Z"/>
      <path id="路径_10358" data-name="路径 10358" class="cls-10" d="M519.5,288.85,512.92,339.1c-3.947-.415-7.693-.9-11.2-1.441l11.3-48.8Z"/>
      <path id="路径_10359" data-name="路径 10359" class="cls-10" d="M503.873,288.85l-10.434,47.323h-.006a101.71,101.71,0,0,1-10.327-2.62l14.227-44.7Z"/>
      <path id="路径_10360" data-name="路径 10360" class="cls-10" d="M631.739,325.331c0,1.709-1.394,3.351-3.974,4.885L614.671,288.85H620.7l10.474,34.625A3.583,3.583,0,0,1,631.739,325.331Z"/>
      <path id="路径_10361" data-name="路径 10361" class="cls-10" d="M601.764,337.561q-5.247.823-11.177,1.474l-6.581-50.185h6.473Z"/>
      <path id="路径_10362" data-name="路径 10362" class="cls-10" d="M620.347,333.392a99,99,0,0,1-10.3,2.668l-10.414-47.21h6.541Z"/>
      <ellipse id="椭圆_1769" data-name="椭圆 1769" class="cls-11" cx="69.235" cy="13.533" rx="69.235" ry="13.533" transform="translate(482.233 275.319)"/>
    </g>
    <g id="组_3838" data-name="组 3838">
      <path id="路径_10363" data-name="路径 10363" class="cls-12" d="M531.1,238.175s-2.893,1.447-8.284-2.235c-1.709,1.929-4.163,8.634-4.032,9.861s5.676,3.616,12.316,1.907c2.1-.395.854,4.273-.461,7.428s-3.747,11.045.11,15.6c3.506,5.96,34.535,9.992,42.6-1.227,2.455-4.471-.175-10.694-1.139-14.376a53.743,53.743,0,0,0-2.093-6.8c-.263-.46.46-1.347,2.17-.263s11.438.1,11.833-2.958-2.86-7.823-4.733-8.119c-1.907.46-5.621,3.747-10.289,1.972C564.761,237.978,532.417,235.217,531.1,238.175Z"/>
      <path id="路径_10364" data-name="路径 10364" class="cls-12" d="M534.36,273.4s-.365,10.833.862,11.885,9.379,2.191,11.132,0c.614-2.542.935-7.421.38-8.97S534.594,271.818,534.36,273.4Z"/>
      <path id="路径_10365" data-name="路径 10365" class="cls-12" d="M568.6,273.4s.365,10.833-.862,11.885-9.379,2.191-11.132,0c-.614-2.542-.935-7.421-.38-8.97S568.364,271.818,568.6,273.4Z"/>
      <path id="路径_10366" data-name="路径 10366" class="cls-13" d="M556.332,284.466s-.908,1.963-.521,2.357a7.9,7.9,0,0,0,4.287,1.227c1.578-.131.927-1.635.927-1.635s-.6,1.767,1.141,1.986a10.68,10.68,0,0,0,3.63-.307s.51-1.872,0-1.781.482,1.474,1.052,1.65,2.147-.658,2.016-1.14a7.032,7.032,0,0,0-1.008-1.534A11.044,11.044,0,0,1,556.332,284.466Z"/>
      <path id="路径_10367" data-name="路径 10367" class="cls-13" d="M546.753,284.466s.908,1.963.521,2.357a7.9,7.9,0,0,1-4.288,1.227c-1.577-.131-.926-1.635-.926-1.635s.6,1.767-1.141,1.986a10.675,10.675,0,0,1-3.63-.307s-.51-1.872,0-1.781-.482,1.474-1.052,1.65-2.147-.658-2.016-1.14a7.032,7.032,0,0,1,1.008-1.534A11.043,11.043,0,0,0,546.753,284.466Z"/>
      <path id="路径_10368" data-name="路径 10368" class="cls-13" d="M574.973,167.714s6.579-18.376,29.887-6.666,26.573,26.8,29.163,37.383-9.458,28.487-20.155,35.581-33.184,10.509-36.726-1.5S574.973,167.714,574.973,167.714Z"/>
      <path id="路径_10369" data-name="路径 10369" class="cls-12" d="M581.688,174.629s4.368-12.342,19.006-4.01,20.042,15.989,22.407,23.533-1.914,19.029-7.657,24.659-21.9,19.917-30.371,11.028c-2.753-2.451-2.557-3.472-2.557-3.472Z"/>
      <path id="路径_10370" data-name="路径 10370" class="cls-13" d="M526.691,167.714s-6.579-18.376-29.887-6.666-26.573,26.8-29.163,37.383,9.458,28.487,20.155,35.581,33.184,10.509,36.726-1.5S526.691,167.714,526.691,167.714Z"/>
      <path id="路径_10371" data-name="路径 10371" class="cls-12" d="M519.976,174.629s-4.368-12.342-19.006-4.01-20.042,15.989-22.407,23.533,1.914,19.029,7.657,24.659,21.9,19.917,30.371,11.028c2.977-2.19,2.557-3.472,2.557-3.472Z"/>
      <ellipse id="椭圆_1770" data-name="椭圆 1770" class="cls-14" cx="39.484" cy="41.924" rx="39.484" ry="41.924" transform="translate(511.554 159.134)"/>
      <path id="路径_10372" data-name="路径 10372" class="cls-14" d="M542.781,242.061s1.727,22.127-.75,30.684,6.418,10.021,13.4,8.783,5.067-8.558,4.616-9.346-2.618-22.973-.746-30.121A38.579,38.579,0,0,1,542.781,242.061Z"/>
      <path id="路径_10373" data-name="路径 10373" class="cls-15" d="M571.194,233.223c0,2.177-1.859,11.936-4.035,11.936s-3.847-9.759-3.847-11.936a3.941,3.941,0,0,1,7.882,0Z"/>
      <path id="路径_10374" data-name="路径 10374" class="cls-15" d="M538.887,233.223c0,2.177-1.858,11.936-4.035,11.936s-3.847-9.759-3.847-11.936a3.941,3.941,0,0,1,7.882,0Z"/>
      <circle id="椭圆_1771" data-name="椭圆 1771" class="cls-16" cx="6.643" cy="6.643" r="6.643" transform="translate(526.953 209.826)"/>
      <circle id="椭圆_1772" data-name="椭圆 1772" class="cls-17" cx="4.279" cy="4.279" r="4.279" transform="translate(530.611 211.738)"/>
      <circle id="椭圆_1773" data-name="椭圆 1773" class="cls-16" cx="6.643" cy="6.643" r="6.643" transform="translate(561.687 209.826)"/>
      <circle id="椭圆_1774" data-name="椭圆 1774" class="cls-17" cx="4.279" cy="4.279" r="4.279" transform="translate(562.758 211.738)"/>
      <path id="路径_10375" data-name="路径 10375" class="cls-18" d="M579.943,220.427a8.629,8.629,0,0,0-6.037,14.8,41.321,41.321,0,0,0,11.235-13.046A8.583,8.583,0,0,0,579.943,220.427Z"/>
      <path id="路径_10376" data-name="路径 10376" class="cls-18" d="M521.931,220.427a8.583,8.583,0,0,0-5.054,1.644,41.327,41.327,0,0,0,11.181,13.068,8.632,8.632,0,0,0-6.127-14.712Z"/>
      <path id="路径_10377" data-name="路径 10377" class="cls-19" d="M545.224,252.411a6.832,6.832,0,0,1,11.329,0"/>
      <path id="路径_10378" data-name="路径 10378" class="cls-19" d="M545.224,256.964a6.832,6.832,0,0,1,11.329,0"/>
      <path id="路径_10379" data-name="路径 10379" class="cls-19" d="M545.224,261.517a6.832,6.832,0,0,1,11.329,0"/>
      <path id="路径_10380" data-name="路径 10380" class="cls-19" d="M545.224,266.07a6.832,6.832,0,0,1,11.329,0"/>
      <path id="路径_10381" data-name="路径 10381" class="cls-19" d="M545.224,270.623a6.832,6.832,0,0,1,11.329,0"/>
      <path id="路径_10382" data-name="路径 10382" class="cls-13" d="M579.377,236.947s2.21-1.242,2.7,0,0,1.676,0,1.676.959-.031,1.221.558.669,1.087.262,1.8c0,.155,1.265.341,1.076,1.427s-.538,1.319-.625,1.35,1.221-.062,1.119.683-.208,2.08-2.191,1.816c0,0-1.071-1.294-.363-1.935a1.018,1.018,0,0,1-.965-1.4c.393-1.334.349-1.1.349-1.1s-.945.62-1.4-.311a1.879,1.879,0,0,1,.318-1.854s-1.743-.008-1.728-.924A9.512,9.512,0,0,1,579.377,236.947Z"/>
      <path id="路径_10383" data-name="路径 10383" class="cls-13" d="M522.819,235.94s-2.5-1.314-3.057,0,0,1.775,0,1.775-1.084-.033-1.38.592-.756,1.15-.3,1.906c0,.165-1.43.362-1.216,1.512s.608,1.4.707,1.43-1.381-.065-1.266.723.236,2.2,2.476,1.923c0,0,1.212-1.37.411-2.049,0,0,1.534-.071,1.09-1.484s-.394-1.167-.394-1.167,1.068.657,1.578-.329a1.9,1.9,0,0,0-.359-1.964s1.969-.008,1.953-.978A9.564,9.564,0,0,0,522.819,235.94Z"/>
    </g>
  </g>
</svg>
