<svg xmlns="http://www.w3.org/2000/svg" width="423.869" height="329.413" viewBox="0 0 423.869 329.413">
  <defs>
    <style>
      .cls-1 {
        fill: #d1647e;
      }

      .cls-2 {
        fill: #de7e92;
      }

      .cls-3 {
        fill: #df9594;
      }

      .cls-4 {
        fill: #ffe4e9;
      }

      .cls-5 {
        fill: #eeafae;
      }

      .cls-17, .cls-6 {
        fill: #fff;
      }

      .cls-6, .cls-7 {
        font-size: 42.687px;
        font-family: TimesNewRomanPS-BoldMT, Times New Roman;
        font-weight: 700;
      }

      .cls-7 {
        fill: #964615;
      }

      .cls-8 {
        fill: #3fa7fe;
      }

      .cls-9 {
        fill: #f5ede6;
      }

      .cls-10 {
        fill: #288acd;
      }

      .cls-11 {
        fill: #e5b75c;
      }

      .cls-12 {
        fill: #7a4b18;
      }

      .cls-13 {
        fill: #f1c867;
      }

      .cls-14 {
        fill: #42362d;
      }

      .cls-15 {
        fill: #fcb2a9;
      }

      .cls-16 {
        fill: #593430;
      }

      .cls-18 {
        fill: #2b71b0;
      }

      .cls-19 {
        fill: #e7ffff;
      }
    </style>
  </defs>
  <g id="组_3863" data-name="组 3863" transform="translate(-796.625 -10.984)">
    <g id="组_3837" data-name="组 3837">
      <g id="组_3836" data-name="组 3836">
        <g id="组_3835" data-name="组 3835">
          <rect id="矩形_1301" data-name="矩形 1301" class="cls-1" width="306.969" height="309.018" rx="24.464" transform="translate(796.625 15.26)"/>
          <rect id="矩形_1302" data-name="矩形 1302" class="cls-2" width="306.969" height="309.018" rx="24.464" transform="translate(796.625 10.984)"/>
          <rect id="矩形_1303" data-name="矩形 1303" class="cls-3" width="282.482" height="278.469" rx="21.262" transform="translate(808.868 29.291)"/>
          <rect id="矩形_1304" data-name="矩形 1304" class="cls-4" width="282.482" height="274.765" rx="21.12" transform="translate(808.868 26.584)"/>
          <rect id="矩形_1305" data-name="矩形 1305" class="cls-5" width="282.482" height="269.259" rx="21.014" transform="translate(808.868 32.09)"/>
        </g>
      </g>
    </g>
    <g id="组_3847" data-name="组 3847">
      <text id="_7" data-name="7" class="cls-6" transform="translate(1012.283 99.821)"><tspan x="0" y="0">7</tspan></text>
      <text id="_7-2" data-name="7" class="cls-6" transform="translate(901.475 99.821)"><tspan x="0" y="0">7</tspan></text>
      <text id="_" data-name="+" class="cls-7" transform="translate(955.291 99.821)"><tspan x="0" y="0">+</tspan></text>
      <text id="_2" data-name="+" class="cls-7" transform="translate(955.291 168.817)"><tspan x="0" y="0">+</tspan></text>
      <text id="_3" data-name="+" class="cls-7" transform="translate(955.291 251.549)"><tspan x="0" y="0">+</tspan></text>
      <text id="_4" data-name="=" class="cls-7" transform="translate(843.074 170.769)"><tspan x="0" y="0">=</tspan></text>
      <text id="_5" data-name="=" class="cls-7" transform="translate(843.074 246.866)"><tspan x="0" y="0">=</tspan></text>
      <text id="_13" data-name="13" class="cls-6" transform="translate(890.804 170.768)"><tspan x="0" y="0">13</tspan></text>
    </g>
    <g id="组_3849" data-name="组 3849">
      <g id="组_3848" data-name="组 3848">
        <path id="路径_10395" data-name="路径 10395" class="cls-8" d="M1220.494,324.182c0,1.766-1.44,3.462-4.106,5.048a38.252,38.252,0,0,1-7.664,3.281,102.233,102.233,0,0,1-10.642,2.756c-2.658.554-5.518,1.073-8.557,1.551q-5.421.852-11.548,1.523-4.394.487-9.1.859-6.293.508-13.064.8-5.4.238-11.057.332-3.562.063-7.2.062c-2.45,0-4.881-.02-7.276-.062-4.085-.069-8.094-.194-11.985-.381q-6.584-.3-12.718-.8-4.029-.333-7.844-.748c-4.078-.429-7.948-.934-11.569-1.488q-4.55-.717-8.558-1.53h-.007a105.358,105.358,0,0,1-10.669-2.707,41.292,41.292,0,0,1-7.692-3.157c-2.984-1.669-4.611-3.462-4.611-5.339a3.752,3.752,0,0,1,.575-1.917l1.917-6.328,5.249-17.358,3.662-12.088h143.06l3.8,12.566,5.241,17.33,1.779,5.878A3.7,3.7,0,0,1,1220.494,324.182Z"/>
        <ellipse id="椭圆_1779" data-name="椭圆 1779" class="cls-9" cx="71.531" cy="13.982" rx="71.531" ry="13.982" transform="translate(1066.031 272.512)"/>
      </g>
      <circle id="椭圆_1780" data-name="椭圆 1780" class="cls-10" cx="9.093" cy="9.093" r="9.093" transform="translate(1084.876 308.075)"/>
      <path id="路径_10396" data-name="路径 10396" class="cls-10" d="M1069.527,307.469a9.1,9.1,0,0,1-12.407,8.468l5.249-17.358A9.1,9.1,0,0,1,1069.527,307.469Z"/>
      <circle id="椭圆_1781" data-name="椭圆 1781" class="cls-10" cx="9.093" cy="9.093" r="9.093" transform="translate(1173.733 308.075)"/>
      <path id="路径_10397" data-name="路径 10397" class="cls-10" d="M1218.133,316.387a9.312,9.312,0,0,1-1.773.173,9.1,9.1,0,0,1-3.468-17.5Z"/>
      <circle id="椭圆_1782" data-name="椭圆 1782" class="cls-10" cx="9.093" cy="9.093" r="9.093" transform="translate(1128.47 313.445)"/>
    </g>
    <g id="组_3850" data-name="组 3850">
      <path id="路径_10398" data-name="路径 10398" class="cls-11" d="M1124.619,270.149s-.882,12.227,0,14.867,6.162,2.07,7.042,0,1.135-12.852,1.135-12.852S1131.914,263.562,1124.619,270.149Z"/>
      <path id="路径_10399" data-name="路径 10399" class="cls-11" d="M1141.572,272.128s-1.527,15.812,4.581,14.661c6.211,0,4.244-5.707,4.244-8.4s-.733-8.466-.655-8.5S1143.1,264.882,1141.572,272.128Z"/>
      <path id="路径_10400" data-name="路径 10400" class="cls-11" d="M1124.537,191.849l-3.093,31.714s16.482,14.979,29.573.681l-2.951-32.4S1135.944,180.9,1124.537,191.849Z"/>
      <path id="路径_10401" data-name="路径 10401" class="cls-11" d="M1157.255,231.486c.065.7,6.094-.272,7.453-1.009s1.98-1.98,3.377-2.524c5.629-2.639,6.444,3.882,5.939,4.581s-5.163,6.832-11.412,6.056-7.026-.039-6.056.362c4.348,7.039,2.873,19.9,2.873,19.9s-3.028,11.8-17.857,13.275-21.66-4.192-23.213-6.443c-5.978-10.559-1.656-22.2-1.656-22.2s.724-3.7,0-4.84c-12.732.621-17.391-5.589-17.805-6.625s-.828-8.177,6.832-4.554,10.352,3.209,10.352,3.209,3.465-4.725,5.362-7.108,27.376-1.361,29.573.681C1153.3,225.861,1157.125,230.089,1157.255,231.486Z"/>
      <path id="路径_10402" data-name="路径 10402" class="cls-12" d="M1124.678,200.387l6.916.634a1.248,1.248,0,0,1,1.135,1.243v3.422a1.249,1.249,0,0,1-.728,1.135l-7.654,3.518a1.249,1.249,0,0,1-1.764-1.256l.738-7.574A1.249,1.249,0,0,1,1124.678,200.387Z"/>
      <path id="路径_10403" data-name="路径 10403" class="cls-12" d="M1135.386,194.9l-.639,6.277a1.248,1.248,0,0,0,1.131,1.37l5.376.479a1.248,1.248,0,0,0,1.277-.8l1.606-4.183a1.249,1.249,0,0,0-.7-1.6l-6.343-2.573A1.249,1.249,0,0,0,1135.386,194.9Z"/>
      <path id="路径_10404" data-name="路径 10404" class="cls-12" d="M1140.238,209.3l7.485-3.2a1.249,1.249,0,0,1,1.735,1.035l.683,7.5a1.248,1.248,0,0,1-1.174,1.36l-5.386.3a1.25,1.25,0,0,1-1.138-.6l-2.782-4.6A1.249,1.249,0,0,1,1140.238,209.3Z"/>
      <path id="路径_10405" data-name="路径 10405" class="cls-12" d="M1129.75,212.257l-4.6,5.994a.823.823,0,0,0,.14,1.145l5.106,4.067a.825.825,0,0,0,.954.052l4.235-2.677a.823.823,0,0,0,.263-1.126c-1-1.631-3.525-5.71-4.786-7.443A.822.822,0,0,0,1129.75,212.257Z"/>
      <path id="路径_10406" data-name="路径 10406" class="cls-12" d="M1141.95,222.4l-1.494,1.85a1.248,1.248,0,0,0,.074,1.652l2.541,2.631a1.249,1.249,0,0,0,1.969-.225l2.226-3.708a1.25,1.25,0,0,0-.784-1.859l-3.273-.772A1.252,1.252,0,0,0,1141.95,222.4Z"/>
      <path id="路径_10407" data-name="路径 10407" class="cls-12" d="M1134.26,231.121l3.487-1.417a1.248,1.248,0,0,1,1.369.291l2.175,2.256a1.249,1.249,0,0,1-.153,1.868l-4.022,3a1.248,1.248,0,0,1-1.9-.51l-1.639-3.84A1.248,1.248,0,0,1,1134.26,231.121Z"/>
      <path id="路径_10408" data-name="路径 10408" class="cls-12" d="M1121.675,241.732l9.823-1.259a1.25,1.25,0,0,0,1.005-1.694l-2.608-6.663a1.251,1.251,0,0,0-.829-.749l-6.154-1.709a1.25,1.25,0,0,0-1.506.771l-1.328,3.6a1.23,1.23,0,0,0-.073.531c.077.926.319,4.027.264,5.907A1.243,1.243,0,0,0,1121.675,241.732Z"/>
      <path id="路径_10409" data-name="路径 10409" class="cls-12" d="M1148.082,234.823l-5.581,5.89a.823.823,0,0,0,.286,1.328l8.507,3.47a.823.823,0,0,0,1.113-.579l1.429-6.259a.823.823,0,0,0-.325-.854l-4.354-3.1A.824.824,0,0,0,1148.082,234.823Z"/>
      <path id="路径_10410" data-name="路径 10410" class="cls-12" d="M1140.188,253.985l7.45,1.25a.608.608,0,0,1,.5.664l-.57,5.287a.606.606,0,0,1-.44.519l-5.4,1.509a.606.606,0,0,1-.76-.474l-1.482-8.047A.606.606,0,0,1,1140.188,253.985Z"/>
      <path id="路径_10411" data-name="路径 10411" class="cls-12" d="M1127.661,255.234l1.251-7.45a.607.607,0,0,1,.663-.5l5.287.569a.606.606,0,0,1,.519.44l1.51,5.4a.607.607,0,0,1-.475.76l-8.047,1.482A.606.606,0,0,1,1127.661,255.234Z"/>
      <path id="路径_10412" data-name="路径 10412" class="cls-12" d="M1116.649,247.394l4.359.515a1.1,1.1,0,0,1,.879.882l2.3,9.336a1.307,1.307,0,0,1-.7,1.564l-6.091,2.058a1.006,1.006,0,0,1-1.252-.855,40.125,40.125,0,0,1-.6-12.376A1.106,1.106,0,0,1,1116.649,247.394Z"/>
      <path id="路径_10413" data-name="路径 10413" class="cls-12" d="M1153.111,255.728,1148.6,267.71a1.248,1.248,0,0,0,1.243,1.365h1.032a1.231,1.231,0,0,0,.663-.189c1.561-.988,8.449-5.8,8.154-13.658a1.222,1.222,0,0,0-.5-.941c-1.577-1.138-2.257,1.278-4.37.4A1.244,1.244,0,0,0,1153.111,255.728Z"/>
      <path id="路径_10414" data-name="路径 10414" class="cls-12" d="M1133.857,269.443l.616,1.988a1.246,1.246,0,0,0,1.2.879c1.076-.008,2.9-.032,4.45-.1a1.248,1.248,0,0,0,.94-2l-2.026-2.663a1.25,1.25,0,0,0-1.307-.453l-2.993.774A1.249,1.249,0,0,0,1133.857,269.443Z"/>
      <path id="路径_10415" data-name="路径 10415" class="cls-12" d="M1121.48,265.713l7.276.7a1.247,1.247,0,0,1,1.1.975l.593,2.7a1.247,1.247,0,0,1-1.47,1.492,21.213,21.213,0,0,1-8.381-3.631A1.253,1.253,0,0,1,1121.48,265.713Z"/>
      <path id="路径_10416" data-name="路径 10416" class="cls-13" d="M1128.449,126.8s-4.511-8-9.617-4.595c-2.809,3.234-4.085,13.191-4.085,13.191s-19.234-9.872-23.49,1.532c0,10.553,7.234,15.4,11.4,16.17s8.937-1.021,8.937-1.021-4.341,17.872-2.554,23.66,6.639,15.489,19.405,16.851,27.4-.085,32.17-9.107,4.085-14.127,2.3-23.234c-1.277-6.468-1.873-8.255-1.873-8.255s11.83,5.7,17.7-5.106,1.361-13.788-1.7-14.639-9.106-1.787-18.553,3.064c-.51-1.277-.978-18.106-9.659-13.479a31.429,31.429,0,0,0-4.681,4.8S1136.661,120.244,1128.449,126.8Z"/>
      <path id="路径_10417" data-name="路径 10417" class="cls-14" d="M1116.873,126s6.625,5.917,9.143-2.347c-1.652-1.828-4.716-3.328-7.184-1.455A13.552,13.552,0,0,0,1116.873,126Z"/>
      <path id="路径_10418" data-name="路径 10418" class="cls-14" d="M1146.39,124.071s3.4,7.579,10.011,1.392c-.335-1.134-2.64-5.158-5.4-4.39S1148.14,122.409,1146.39,124.071Z"/>
      <path id="路径_10419" data-name="路径 10419" class="cls-12" d="M1157.874,142.734s8.958-6.234,15.553-5.6c3.788.766,2.6,3.106,1.277,5.6s-4.213,7.127-12,4.149C1157.874,144.712,1157.172,143.734,1157.874,142.734Z"/>
      <path id="路径_10420" data-name="路径 10420" class="cls-15" d="M1150.521,172.144a9.532,9.532,0,0,0,9.723,9.337c1.146-.023,1.518-.3,1.8-.954,3.382-7.723,2.313-12.143,1.4-17.479a9.525,9.525,0,0,0-12.926,9.1Z"/>
      <path id="路径_10421" data-name="路径 10421" class="cls-15" d="M1122.462,172.027a9.531,9.531,0,0,1-9.608,9.455,1.761,1.761,0,0,1-1.759-.77c-3.914-6.237-2.269-12.216-1.67-17.621a9.523,9.523,0,0,1,13.037,8.936Z"/>
      <path id="路径_10422" data-name="路径 10422" class="cls-12" d="M1114.973,142.734s-8.957-6.234-15.553-5.6c-3.787.766-2.6,3.106-1.277,5.6s4.213,7.127,12,4.149C1114.973,144.712,1115.675,143.734,1114.973,142.734Z"/>
      <path id="路径_10423" data-name="路径 10423" class="cls-16" d="M1146.306,177.138s-2.681,4.149,0,4.085,4.872-1.745,4.7-3.213S1148.029,173.883,1146.306,177.138Z"/>
      <path id="路径_10424" data-name="路径 10424" class="cls-16" d="M1127.071,177.138s2.681,4.149,0,4.085-4.872-1.745-4.7-3.213S1125.348,173.883,1127.071,177.138Z"/>
      <path id="路径_10425" data-name="路径 10425" class="cls-12" d="M1154.854,169.624v2.159a1.02,1.02,0,0,0,.77.989l1.455.368a1.02,1.02,0,0,0,1.083-.4l.735-1.042a1.019,1.019,0,0,0,.03-1.132l-1-1.582a1.022,1.022,0,0,0-.945-.473l-1.192.1A1.019,1.019,0,0,0,1154.854,169.624Z"/>
      <path id="路径_10426" data-name="路径 10426" class="cls-12" d="M1155.23,174.138h.689a1.021,1.021,0,0,1,.879.5l.03.053a1.017,1.017,0,0,1-.012,1.053l-.92,1.488-.663-.228a1.016,1.016,0,0,1-.624-.6l-.333-.884A1.02,1.02,0,0,1,1155.23,174.138Z"/>
      <path id="路径_10427" data-name="路径 10427" class="cls-12" d="M1161.037,168.193l-.448,2.043a1.023,1.023,0,0,0,.037.564l.33.915a1.02,1.02,0,0,0,1.07.668l.282-.031a1.019,1.019,0,0,0,.868-.725l.229-.778a1.019,1.019,0,0,0-.189-.935l-.814-.992a1.017,1.017,0,0,0-.372-.284Z"/>
      <path id="路径_10428" data-name="路径 10428" class="cls-12" d="M1157.936,176.518l-.2,1.255a1.023,1.023,0,0,0,.429,1l2.542,1.75a1.017,1.017,0,0,0,1.516-.439c.361-.855.836-2.026,1.124-2.92a1.018,1.018,0,0,0-.827-1.32l-1.667-.239a1,1,0,0,0-.181-.01l-1.77.064A1.019,1.019,0,0,0,1157.936,176.518Z"/>
      <path id="路径_10429" data-name="路径 10429" class="cls-12" d="M1110.465,176.337l1.317-.336a1.02,1.02,0,0,1,.792.122l1.066.665a1.018,1.018,0,0,1,.384.43l.363.771a1.019,1.019,0,0,1-.2,1.156l-.373.373a1.016,1.016,0,0,1-.406.249l-1.528.5a1.016,1.016,0,0,1-1.248-.561c-.252-.576-.586-1.348-.854-1.983A1.018,1.018,0,0,1,1110.465,176.337Z"/>
      <path id="路径_10430" data-name="路径 10430" class="cls-12" d="M1109.837,167.568l1.939.1a1.021,1.021,0,0,1,.825.5l1.08,1.81a1.017,1.017,0,0,1,.115.766l-.388,1.576a1.016,1.016,0,0,1-.51.657l-1.92,1.023a1.017,1.017,0,0,1-.583.114l-.8-.082a1.013,1.013,0,0,1-.915-.988c-.022-1.061-.034-2.889.086-4.526A1.019,1.019,0,0,1,1109.837,167.568Z"/>
      <path id="路径_10431" data-name="路径 10431" class="cls-12" d="M1116.018,169l-.112.179a1.017,1.017,0,0,0,.012,1.1l1.079,1.633a1.022,1.022,0,0,0,.851.457h1.531a1.019,1.019,0,0,0,1.016-.939l.169-2.122a1.02,1.02,0,0,0-1.135-1.093l-2.666.31A1.024,1.024,0,0,0,1116.018,169Z"/>
      <path id="路径_10432" data-name="路径 10432" class="cls-12" d="M1114.88,173.65l-.119.257a1.021,1.021,0,0,0,.239,1.181l1.225,1.117a1.02,1.02,0,0,0,1.331.037l.42-.342a1.02,1.02,0,0,0,.275-1.231l-.389-.812a1.017,1.017,0,0,0-.726-.561l-1.137-.22A1.021,1.021,0,0,0,1114.88,173.65Z"/>
      <circle id="椭圆_1783" data-name="椭圆 1783" class="cls-17" cx="7.234" cy="7.234" r="7.234" transform="translate(1141.886 144.202)"/>
      <circle id="椭圆_1784" data-name="椭圆 1784" class="cls-18" cx="5.106" cy="5.106" r="5.106" transform="translate(1142.014 146.329)"/>
      <ellipse id="椭圆_1785" data-name="椭圆 1785" class="cls-19" cx="2.026" cy="1.305" rx="2.026" ry="1.305" transform="translate(1148.426 150.131)"/>
      <circle id="椭圆_1786" data-name="椭圆 1786" class="cls-17" cx="7.234" cy="7.234" r="7.234" transform="translate(1117.173 144.202)"/>
      <circle id="椭圆_1787" data-name="椭圆 1787" class="cls-18" cx="5.106" cy="5.106" r="5.106" transform="translate(1121.301 146.329)"/>
      <ellipse id="椭圆_1788" data-name="椭圆 1788" class="cls-19" cx="2.026" cy="1.305" rx="2.026" ry="1.305" transform="translate(1120.981 150.131)"/>
    </g>
  </g>
</svg>
