<svg xmlns="http://www.w3.org/2000/svg" width="267.771" height="129.206" viewBox="0 0 267.771 129.206">
  <defs>
    <style>
      .cls-1, .cls-4, .cls-6 {
        fill: #fff;
      }

      .cls-1 {
        stroke-miterlimit: 10;
      }

      .cls-2 {
        fill: #8ca6fd;
      }

      .cls-3, .cls-4 {
        isolation: isolate;
      }

      .cls-4 {
        font-size: 56.78px;
        font-family: TimesNewRomanPS-BoldMT, Times New Roman;
        font-weight: 700;
        letter-spacing: 0.049em;
      }

      .cls-5, .cls-6 {
        stroke: none;
      }
    </style>
  </defs>
  <g id="组_3879" data-name="组 3879" transform="translate(1207.705 -1716.604)">
    <g id="路径_10532" data-name="路径 10532" class="cls-1">
      <path class="cls-5" d="M -1147.14990234375 1843.31005859375 L -1147.150024414063 1843.31005859375 L -1147.150024414063 1843.31005859375 C -1151.150756835938 1843.31005859375 -1155.075439453125 1842.214477539063 -1158.49951171875 1840.141723632813 L -1198.759643554688 1815.768676757813 C -1200.722045898438 1814.5810546875 -1202.355102539063 1812.896850585938 -1203.481811523438 1810.898071289063 C -1204.608520507813 1808.899658203125 -1205.204345703125 1806.630737304688 -1205.204956054688 1804.336669921875 L -1205.204956054688 1756.22705078125 C -1205.202514648438 1751.411865234375 -1202.596069335938 1746.953002929688 -1198.402709960938 1744.589111328125 L -1158.232299804688 1721.929565429688 C -1154.953247070313 1720.080932617188 -1151.232055664063 1719.10400390625 -1147.470581054688 1719.10400390625 L -1147.464233398438 1719.10400390625 L -1000.174987792969 1719.10400390625 C -996.4103393554688 1719.10400390625 -992.68701171875 1720.080932617188 -989.4075927734375 1721.929077148438 L -949.2367553710938 1744.589477539063 C -945.0432739257813 1746.953369140625 -942.4364013671875 1751.412231445313 -942.4340209960938 1756.225830078125 L -942.4340209960938 1804.3330078125 C -942.4346313476563 1806.62841796875 -943.03076171875 1808.897705078125 -944.157958984375 1810.896240234375 C -945.2852783203125 1812.89501953125 -946.9190063476563 1814.5791015625 -948.8825073242188 1815.766357421875 L -989.1412353515625 1840.139526367188 C -992.5642700195313 1842.211791992188 -996.4874877929688 1843.307006835938 -1000.486694335938 1843.307006835938 L -1000.49267578125 1843.307006835938 L -1073.81494140625 1843.307006835938 L -1147.14990234375 1843.31005859375 Z"/>
      <path class="cls-6" d="M -1147.150024414063 1840.81005859375 L -1073.81494140625 1840.807006835938 L -1000.492004394531 1840.807006835938 C -1000.490295410156 1840.807006835938 -1000.48828125 1840.807006835938 -1000.486511230469 1840.807006835938 C -996.943359375 1840.807006835938 -993.467529296875 1839.836181640625 -990.4359741210938 1838.0009765625 L -950.176025390625 1813.626953125 C -946.9229736328125 1811.660034179688 -944.9349975585938 1808.135009765625 -944.9340209960938 1804.3330078125 L -944.9340209960938 1756.22705078125 C -944.9359741210938 1752.307006835938 -947.0499877929688 1748.692016601563 -950.4650268554688 1746.766967773438 L -990.635009765625 1724.107055664063 C -993.5469970703125 1722.465942382813 -996.8330078125 1721.60400390625 -1000.174987792969 1721.60400390625 L -1147.464965820313 1721.60400390625 C -1147.466796875 1721.60400390625 -1147.468627929688 1721.60400390625 -1147.470458984375 1721.60400390625 C -1150.810668945313 1721.60400390625 -1154.094604492188 1722.466796875 -1157.004028320313 1724.107055664063 L -1197.175048828125 1746.766967773438 C -1200.589965820313 1748.692016601563 -1202.703002929688 1752.307006835938 -1202.704956054688 1756.22705078125 L -1202.704956054688 1804.336059570313 C -1202.703979492188 1808.136962890625 -1200.717041015625 1811.661987304688 -1197.464965820313 1813.630004882813 L -1157.204956054688 1838.003051757813 C -1154.171997070313 1839.838989257813 -1150.694946289063 1840.81005859375 -1147.150024414063 1840.81005859375 M -1147.149780273438 1845.81005859375 L -1147.14990234375 1845.81005859375 L -1147.150024414063 1845.81005859375 C -1151.607299804688 1845.81005859375 -1155.979614257813 1844.589477539063 -1159.794189453125 1842.280395507813 L -1200.054321289063 1817.9072265625 C -1202.383544921875 1816.497802734375 -1204.322021484375 1814.498413085938 -1205.65966796875 1812.125854492188 C -1206.996948242188 1809.753662109375 -1207.704223632813 1807.060424804688 -1207.704956054688 1804.33740234375 L -1207.704956054688 1756.22705078125 C -1207.7021484375 1750.51025390625 -1204.608154296875 1745.217407226563 -1199.63037109375 1742.411376953125 L -1159.460571289063 1719.752075195313 C -1155.806884765625 1717.6923828125 -1151.661254882813 1716.60400390625 -1147.470458984375 1716.60400390625 L -1147.464965820313 1716.60400390625 L -1000.174987792969 1716.60400390625 C -995.9812622070313 1716.60400390625 -991.83349609375 1717.692260742188 -988.18017578125 1719.751098632813 L -948.0084228515625 1742.411987304688 C -943.03125 1745.217651367188 -939.9368896484375 1750.510620117188 -939.9340209960938 1756.224487304688 L -939.9340209960938 1804.3330078125 C -939.9347534179688 1807.058227539063 -940.6423950195313 1809.751953125 -941.9804077148438 1812.124389648438 C -943.3186645507813 1814.497192382813 -945.258056640625 1816.496337890625 -947.5889282226563 1817.905639648438 L -987.846435546875 1842.278198242188 C -991.66015625 1844.586791992188 -996.0309448242188 1845.807006835938 -1000.486572265625 1845.807006835938 L -1000.492004394531 1845.807006835938 L -1073.81494140625 1845.807006835938 L -1147.149780273438 1845.81005859375 Z"/>
    </g>
    <path id="路径_10533" data-name="路径 10533" class="cls-2" d="M-1073.815,1831.958h66.409a18.443,18.443,0,0,0,9.108-2.389l36.468-20.755a9.147,9.147,0,0,0,4.747-7.914v-40.964a9.173,9.173,0,0,0-5.009-8.057l-36.383-19.292a18.462,18.462,0,0,0-8.64-2.133h-133.4a18.462,18.462,0,0,0-8.64,2.133l-36.383,19.292a9.175,9.175,0,0,0-5.009,8.057V1800.9a9.151,9.151,0,0,0,4.747,7.914l36.468,20.755a18.442,18.442,0,0,0,9.107,2.389Z"/>
    <g id="_3_9" data-name=" 3 9" class="cls-3">
      <text id="_3_9-2" data-name="3 + 9" class="cls-4" transform="translate(-1139.673 1797.887)"><tspan x="0" y="0">3 + 9</tspan></text>
    </g>
  </g>
</svg>
