<svg xmlns="http://www.w3.org/2000/svg" width="267.771" height="129.206" viewBox="0 0 267.771 129.206">
  <defs>
    <style>
      .cls-1, .cls-4, .cls-6 {
        fill: #fff;
      }

      .cls-1 {
        stroke-miterlimit: 10;
      }

      .cls-2 {
        fill: #8ca6fd;
      }

      .cls-3, .cls-4 {
        isolation: isolate;
      }

      .cls-4 {
        font-size: 56.78px;
        font-family: TimesNewRomanPS-BoldMT, Times New Roman;
        font-weight: 700;
        letter-spacing: 0.049em;
      }

      .cls-5, .cls-6 {
        stroke: none;
      }
    </style>
  </defs>
  <g id="组_3877" data-name="组 3877" transform="translate(1207.705 -1399.084)">
    <g id="路径_10528" data-name="路径 10528" class="cls-1">
      <path class="cls-5" d="M -1000.492004394531 1525.7900390625 L -1073.81494140625 1525.7900390625 L -1147.150024414063 1525.7900390625 C -1151.15185546875 1525.7900390625 -1155.076416015625 1524.69482421875 -1158.49951171875 1522.622680664063 L -1198.759765625 1498.24853515625 C -1200.722045898438 1497.06103515625 -1202.355102539063 1495.376953125 -1203.481811523438 1493.378540039063 C -1204.608520507813 1491.380249023438 -1205.204345703125 1489.111206054688 -1205.204956054688 1486.816650390625 L -1205.204956054688 1438.7080078125 C -1205.202514648438 1433.892822265625 -1202.596069335938 1429.433959960938 -1198.402587890625 1427.070190429688 L -1158.232299804688 1404.410522460938 C -1154.953979492188 1402.561401367188 -1151.230712890625 1401.583984375 -1147.464965820313 1401.583984375 L -1000.174987792969 1401.583984375 C -996.4097900390625 1401.583984375 -992.6863403320313 1402.561279296875 -989.4071044921875 1404.410278320313 L -949.2366943359375 1427.070678710938 C -945.0435180664063 1429.432983398438 -942.4364013671875 1433.891967773438 -942.4340209960938 1438.706787109375 L -942.4340209960938 1486.816040039063 C -942.4346313476563 1489.111328125 -943.03076171875 1491.380493164063 -944.1580200195313 1493.379028320313 C -945.2850952148438 1495.377197265625 -946.9186401367188 1497.061279296875 -948.8820190429688 1498.2490234375 L -989.1412353515625 1522.62255859375 C -992.5645751953125 1524.69482421875 -996.489501953125 1525.7900390625 -1000.492004394531 1525.7900390625 Z"/>
      <path class="cls-6" d="M -1000.492004394531 1523.2900390625 C -996.947021484375 1523.2900390625 -993.468994140625 1522.319946289063 -990.4359741210938 1520.484008789063 L -950.176025390625 1496.109985351563 C -946.9229736328125 1494.141967773438 -944.9349975585938 1490.618041992188 -944.9340209960938 1486.816040039063 L -944.9340209960938 1438.7080078125 C -944.9359741210938 1434.786987304688 -947.0499877929688 1431.171997070313 -950.4650268554688 1429.248046875 L -990.635009765625 1406.588012695313 C -993.5469970703125 1404.946044921875 -996.8330078125 1404.083984375 -1000.174987792969 1404.083984375 L -1147.464965820313 1404.083984375 C -1150.807006835938 1404.083984375 -1154.093017578125 1404.946044921875 -1157.004028320313 1406.588012695313 L -1197.175048828125 1429.248046875 C -1200.589965820313 1431.172973632813 -1202.703002929688 1434.787963867188 -1202.704956054688 1438.7080078125 L -1202.704956054688 1486.816040039063 C -1202.703979492188 1490.618041992188 -1200.717041015625 1494.141967773438 -1197.464965820313 1496.109985351563 L -1157.204956054688 1520.484008789063 C -1154.171997070313 1522.319946289063 -1150.694946289063 1523.2900390625 -1147.150024414063 1523.2900390625 L -1073.81494140625 1523.2900390625 L -1000.492004394531 1523.2900390625 M -1000.492004394531 1528.2900390625 L -1073.81494140625 1528.2900390625 L -1147.150024414063 1528.2900390625 C -1151.6083984375 1528.2900390625 -1155.980590820313 1527.06982421875 -1159.794189453125 1524.761352539063 L -1200.054443359375 1500.38720703125 C -1202.383544921875 1498.977661132813 -1204.322143554688 1496.978515625 -1205.659545898438 1494.6064453125 C -1206.996948242188 1492.234375 -1207.704223632813 1489.541015625 -1207.704956054688 1486.8173828125 L -1207.704956054688 1438.7080078125 C -1207.7021484375 1432.991088867188 -1204.608032226563 1427.6982421875 -1199.630249023438 1424.892333984375 L -1159.460571289063 1402.233154296875 C -1155.80810546875 1400.1728515625 -1151.660034179688 1399.083984375 -1147.464965820313 1399.083984375 L -1000.174987792969 1399.083984375 C -995.9805297851563 1399.083984375 -991.8323974609375 1400.172729492188 -988.17919921875 1402.232666015625 L -948.0084228515625 1424.893188476563 C -943.0316772460938 1427.697021484375 -939.9368896484375 1432.990112304688 -939.9340209960938 1438.70556640625 L -939.9340209960938 1486.816040039063 C -939.9347534179688 1489.541137695313 -940.6423950195313 1492.23486328125 -941.9805297851563 1494.607177734375 C -943.3184204101563 1496.979248046875 -945.2573852539063 1498.978149414063 -947.587890625 1500.388061523438 L -987.846435546875 1524.76123046875 C -991.660400390625 1527.06982421875 -996.0330200195313 1528.2900390625 -1000.492004394531 1528.2900390625 Z"/>
    </g>
    <path id="路径_10529" data-name="路径 10529" class="cls-2" d="M-1073.815,1514.437h66.409a18.443,18.443,0,0,0,9.108-2.389l36.468-20.755a9.146,9.146,0,0,0,4.747-7.913v-40.964a9.173,9.173,0,0,0-5.009-8.058l-36.383-19.292a18.473,18.473,0,0,0-8.64-2.133h-133.4a18.473,18.473,0,0,0-8.64,2.133l-36.383,19.291a9.175,9.175,0,0,0-5.009,8.058v40.964a9.149,9.149,0,0,0,4.747,7.913l36.468,20.755a18.443,18.443,0,0,0,9.107,2.39Z"/>
    <g id="_4_8" data-name=" 4 8" class="cls-3">
      <text id="_4_8-2" data-name="4 + 8" class="cls-4" transform="translate(-1139.673 1480.367)"><tspan x="0" y="0">4 + 8</tspan></text>
    </g>
  </g>
</svg>
