<svg xmlns="http://www.w3.org/2000/svg" width="267.771" height="129.206" viewBox="0 0 267.771 129.206">
  <defs>
    <style>
      .cls-1, .cls-4, .cls-6 {
        fill: #fff;
      }

      .cls-1 {
        stroke-miterlimit: 10;
      }

      .cls-2 {
        fill: #8ca6fd;
      }

      .cls-3, .cls-4 {
        isolation: isolate;
      }

      .cls-4 {
        font-size: 56.78px;
        font-family: TimesNewRomanPS-BoldMT, Times New Roman;
        font-weight: 700;
        letter-spacing: 0.049em;
      }

      .cls-5, .cls-6 {
        stroke: none;
      }
    </style>
  </defs>
  <g id="组_3878" data-name="组 3878" transform="translate(1207.705 -1557.844)">
    <g id="路径_10530" data-name="路径 10530" class="cls-1">
      <path class="cls-5" d="M -1000.492004394531 1684.550048828125 L -1073.81494140625 1684.550048828125 L -1147.150024414063 1684.550048828125 C -1151.15185546875 1684.550048828125 -1155.076416015625 1683.454833984375 -1158.49951171875 1681.382690429688 L -1198.759765625 1657.008544921875 C -1200.722045898438 1655.821044921875 -1202.355102539063 1654.136840820313 -1203.481811523438 1652.138061523438 C -1204.608520507813 1650.1396484375 -1205.204345703125 1647.870727539063 -1205.204956054688 1645.57666015625 L -1205.204956054688 1597.467041015625 C -1205.202514648438 1592.651977539063 -1202.596069335938 1588.193115234375 -1198.402709960938 1585.829223632813 L -1158.232299804688 1563.169555664063 C -1154.953002929688 1561.320922851563 -1151.229858398438 1560.343994140625 -1147.464965820313 1560.343994140625 L -1000.174987792969 1560.343994140625 C -996.4105834960938 1560.343994140625 -992.6873168945313 1561.320922851563 -989.4076538085938 1563.169067382813 L -949.2367553710938 1585.829467773438 C -945.0432739257813 1588.193359375 -942.4364013671875 1592.652221679688 -942.4340209960938 1597.4658203125 L -942.4340209960938 1645.576049804688 C -942.4346313476563 1647.871337890625 -943.03076171875 1650.140502929688 -944.1580200195313 1652.139038085938 C -945.2850952148438 1654.13720703125 -946.9186401367188 1655.8212890625 -948.8820190429688 1657.009033203125 L -989.1412353515625 1681.382568359375 C -992.5645751953125 1683.454833984375 -996.489501953125 1684.550048828125 -1000.492004394531 1684.550048828125 Z"/>
      <path class="cls-6" d="M -1000.492004394531 1682.050048828125 C -996.947021484375 1682.050048828125 -993.468994140625 1681.079956054688 -990.4359741210938 1679.244018554688 L -950.176025390625 1654.869995117188 C -946.9229736328125 1652.901977539063 -944.9349975585938 1649.378051757813 -944.9340209960938 1645.576049804688 L -944.9340209960938 1597.467041015625 C -944.9359741210938 1593.546997070313 -947.0499877929688 1589.932006835938 -950.4650268554688 1588.006958007813 L -990.635009765625 1565.347045898438 C -993.5469970703125 1563.7060546875 -996.8330078125 1562.843994140625 -1000.174987792969 1562.843994140625 L -1147.464965820313 1562.843994140625 C -1150.807006835938 1562.843994140625 -1154.093017578125 1563.7060546875 -1157.004028320313 1565.347045898438 L -1197.175048828125 1588.006958007813 C -1200.589965820313 1589.932006835938 -1202.703002929688 1593.546997070313 -1202.704956054688 1597.467041015625 L -1202.704956054688 1645.576049804688 C -1202.703979492188 1649.376953125 -1200.717041015625 1652.901977539063 -1197.464965820313 1654.869995117188 L -1157.204956054688 1679.244018554688 C -1154.171997070313 1681.079956054688 -1150.694946289063 1682.050048828125 -1147.150024414063 1682.050048828125 L -1073.81494140625 1682.050048828125 L -1000.492004394531 1682.050048828125 M -1000.492004394531 1687.050048828125 L -1073.81494140625 1687.050048828125 L -1147.150024414063 1687.050048828125 C -1151.6083984375 1687.050048828125 -1155.980590820313 1685.829833984375 -1159.794189453125 1683.521362304688 L -1200.054443359375 1659.147216796875 C -1202.383544921875 1657.73779296875 -1204.322021484375 1655.738403320313 -1205.65966796875 1653.365844726563 C -1206.996948242188 1650.99365234375 -1207.704223632813 1648.300415039063 -1207.704956054688 1645.577392578125 L -1207.704956054688 1597.467041015625 C -1207.7021484375 1591.750244140625 -1204.608154296875 1586.457397460938 -1199.63037109375 1583.6513671875 L -1159.460571289063 1560.9921875 C -1155.806640625 1558.932373046875 -1151.659057617188 1557.843994140625 -1147.464965820313 1557.843994140625 L -1000.174987792969 1557.843994140625 C -995.9815063476563 1557.843994140625 -991.8338012695313 1558.932250976563 -988.1802978515625 1560.991088867188 L -948.0084228515625 1583.652099609375 C -943.03125 1586.457763671875 -939.9368896484375 1591.750610351563 -939.9340209960938 1597.464477539063 L -939.9340209960938 1645.576049804688 C -939.9347534179688 1648.301147460938 -940.6423950195313 1650.994873046875 -941.9805297851563 1653.3671875 C -943.3184204101563 1655.7392578125 -945.2573852539063 1657.738159179688 -947.587890625 1659.148071289063 L -987.846435546875 1683.521240234375 C -991.660400390625 1685.829833984375 -996.0330200195313 1687.050048828125 -1000.492004394531 1687.050048828125 Z"/>
    </g>
    <path id="路径_10531" data-name="路径 10531" class="cls-2" d="M-1073.815,1673.2h66.409a18.443,18.443,0,0,0,9.108-2.389l36.468-20.755a9.147,9.147,0,0,0,4.747-7.913v-40.964a9.173,9.173,0,0,0-5.009-8.058l-36.383-19.292a18.473,18.473,0,0,0-8.64-2.133h-133.4a18.473,18.473,0,0,0-8.64,2.133l-36.383,19.292a9.175,9.175,0,0,0-5.009,8.058v40.964a9.149,9.149,0,0,0,4.747,7.913l36.468,20.755a18.442,18.442,0,0,0,9.107,2.389Z"/>
    <g id="_5_6" data-name=" 5 6" class="cls-3">
      <text id="_5_6-2" data-name="5 + 6" class="cls-4" transform="translate(-1139.673 1639.127)"><tspan x="0" y="0">5 + 6</tspan></text>
    </g>
  </g>
</svg>
