<svg xmlns="http://www.w3.org/2000/svg" width="234.335" height="108.37" viewBox="0 0 234.335 108.37">
  <defs>
    <style>
      .cls-1 {
        fill: #ccd9ff;
      }

      .cls-2 {
        fill: #8ca6fd;
      }

      .cls-3 {
        fill: #fff;
        font-size: 51.618px;
        font-family: TimesNewRomanPS-BoldMT, Times New Roman;
        font-weight: 700;
        letter-spacing: 0.05em;
      }
    </style>
  </defs>
  <g id="组_3877" data-name="组 3877" transform="translate(-826.605 -277.078)">
    <path id="路径_10528" data-name="路径 10528" class="cls-1" d="M943.772,385.448h66.657a17.651,17.651,0,0,0,9.142-2.551l36.6-22.158a9.877,9.877,0,0,0,4.765-8.449V308.555a9.876,9.876,0,0,0-5.028-8.6l-36.518-20.6a17.662,17.662,0,0,0-8.673-2.276h-133.9a17.656,17.656,0,0,0-8.672,2.276l-36.519,20.6a9.878,9.878,0,0,0-5.027,8.6V352.29a9.877,9.877,0,0,0,4.764,8.449l36.6,22.158a17.647,17.647,0,0,0,9.141,2.551Z"/>
    <path id="路径_10529" data-name="路径 10529" class="cls-2" d="M943.772,377.4h60.372a16.764,16.764,0,0,0,8.28-2.172l33.152-18.868a8.315,8.315,0,0,0,4.316-7.194v-37.24a8.339,8.339,0,0,0-4.554-7.325l-33.075-17.538a16.787,16.787,0,0,0-7.855-1.939H883.136a16.783,16.783,0,0,0-7.854,1.939L842.206,304.6a8.34,8.34,0,0,0-4.553,7.325v37.24a8.316,8.316,0,0,0,4.315,7.194l33.153,18.868A16.76,16.76,0,0,0,883.4,377.4Z"/>
    <text id="_4_8" data-name="4 + 8" class="cls-3" transform="translate(883.9 346.427)"><tspan x="0" y="0">4 + 8</tspan></text>
  </g>
</svg>
