<svg xmlns="http://www.w3.org/2000/svg" width="145.02" height="66.081" viewBox="0 0 145.02 66.081">
  <defs>
    <style>
      .cls-1, .cls-2 {
        fill: #fff;
      }

      .cls-1 {
        opacity: 0.3;
      }
    </style>
  </defs>
  <g id="组_4614" data-name="组 4614" transform="translate(-891.651 -584.069)">
    <path id="路径_11618" data-name="路径 11618" class="cls-1" d="M964.161,650.15h41.251a11.05,11.05,0,0,0,5.657-1.555l22.653-13.512a6,6,0,0,0,2.949-5.152V603.263a6.009,6.009,0,0,0-3.112-5.246l-22.6-12.559a11.056,11.056,0,0,0-5.367-1.389H922.729a11.05,11.05,0,0,0-5.366,1.389l-22.6,12.559a6.009,6.009,0,0,0-3.112,5.246v26.668a6,6,0,0,0,2.949,5.152l22.653,13.512a11.05,11.05,0,0,0,5.657,1.555Z"/>
    <g id="组_4613" data-name="组 4613">
      <g id="组_4612" data-name="组 4612">
        <path id="路径_11619" data-name="路径 11619" class="cls-2" d="M1004.034,649.965h-8.046v-5.077h8.046a8.757,8.757,0,0,0,4.317-1.122l1.913-1.083,2.3,4.467-1.913,1.083A13.448,13.448,0,0,1,1004.034,649.965Zm-23.959,0H964.161l-.045-5.077h15.959Zm-31.873,0H932.289v-5.077H948.2Zm-32.486-2.838-14-7.927,2.3-4.466,14,7.927Zm110.851-7.9-2.3-4.467,5.983-3.388a2.905,2.905,0,0,0,1.579-2.493V625.2h4.844v3.677a8.042,8.042,0,0,1-4.122,6.96ZM896.5,625.15h-4.844V608.472H896.5Zm140.175-16.63h-4.844v-4.115a2.954,2.954,0,0,0-1.675-2.547l-5.541-2.923,2.177-4.535,5.542,2.924a8.021,8.021,0,0,1,4.341,7.081Zm-132.918-9.607-2.178-4.535,14.214-7.5,2.178,4.534Zm106.643-7.477-2.088-1.1a8.815,8.815,0,0,0-4.1-1h-8.2v-5.076h8.2a13.491,13.491,0,0,1,6.276,1.545l2.089,1.1Zm-30.3-2.1H964.184v-5.076H980.1Zm-31.827,0H932.358v-5.076h15.913Z"/>
      </g>
    </g>
  </g>
</svg>
