<svg xmlns="http://www.w3.org/2000/svg" width="157.619" height="72.892" viewBox="0 0 157.619 72.892">
  <defs>
    <style>
      .cls-1 {
        fill: #ccd9ff;
      }

      .cls-2 {
        fill: #8ca6fd;
      }

      .cls-3 {
        fill: #fff;
      }
    </style>
  </defs>
  <g id="组_5583" data-name="组 5583" transform="translate(-157.18 -1019.262)">
    <g id="组_5575" data-name="组 5575">
      <path id="路径_14056" data-name="路径 14056" class="cls-1" d="M235.989,1092.154h44.836a11.865,11.865,0,0,0,6.148-1.716l24.621-14.9a6.642,6.642,0,0,0,3.205-5.683v-29.417a6.645,6.645,0,0,0-3.382-5.787l-24.563-13.854a11.872,11.872,0,0,0-5.833-1.531H190.958a11.872,11.872,0,0,0-5.833,1.531l-24.563,13.854a6.645,6.645,0,0,0-3.382,5.787v29.417a6.642,6.642,0,0,0,3.205,5.683l24.621,14.9a11.865,11.865,0,0,0,6.148,1.716Z"/>
      <path id="路径_14057" data-name="路径 14057" class="cls-2" d="M235.989,1086.741H276.6a11.272,11.272,0,0,0,5.569-1.461l22.3-12.69a5.6,5.6,0,0,0,2.9-4.839V1042.7a5.611,5.611,0,0,0-3.063-4.927l-22.247-11.8a11.3,11.3,0,0,0-5.283-1.3H195.2a11.3,11.3,0,0,0-5.283,1.3l-22.247,11.8a5.611,5.611,0,0,0-3.063,4.927v25.049a5.6,5.6,0,0,0,2.9,4.839l22.3,12.69a11.27,11.27,0,0,0,5.569,1.461Z"/>
    </g>
    <g id="组_5582" data-name="组 5582">
      <path id="路径_14058" data-name="路径 14058" class="cls-3" d="M190.9,1064.414v-.346a10.872,10.872,0,0,0,3.471-1.381,7.118,7.118,0,0,0,2.257-2.256,9.022,9.022,0,0,0,1.165-3.095,7.372,7.372,0,0,1-1.3.548,4.049,4.049,0,0,1-1.128.155,4.128,4.128,0,0,1-3.163-1.369,5.312,5.312,0,0,1-1.264-3.749,6.69,6.69,0,0,1,.685-3.027,5.065,5.065,0,0,1,7.367-2.053,5.837,5.837,0,0,1,2.084,2.429,8.154,8.154,0,0,1,.777,3.625,10.761,10.761,0,0,1-1.264,5.056,9.587,9.587,0,0,1-3.767,3.878A12.462,12.462,0,0,1,190.9,1064.414Zm7.078-8.114q.123-1.382.124-2.429a16.146,16.146,0,0,0-.518-4.181,3.149,3.149,0,0,0-.876-1.578,1.166,1.166,0,0,0-.8-.271,1.088,1.088,0,0,0-.961.53,5.5,5.5,0,0,0-.481,2.774q0,3.417.814,4.711a1.622,1.622,0,0,0,1.43.839A3.063,3.063,0,0,0,197.976,1056.3Z"/>
      <g id="组_5576" data-name="组 5576">
        <path id="路径_14059" data-name="路径 14059" class="cls-3" d="M238.282,1047v.345a11.777,11.777,0,0,0-3.582,1.462,6.97,6.97,0,0,0-2.134,2.17,10.5,10.5,0,0,0-1.214,3.163,3.6,3.6,0,0,1,.9-.481,5.476,5.476,0,0,1,1.615-.247,4.069,4.069,0,0,1,3.126,1.363,5.283,5.283,0,0,1,1.252,3.718,6.787,6.787,0,0,1-.678,3.033,5.006,5.006,0,0,1-1.924,2.134,5.071,5.071,0,0,1-2.664.752,5.146,5.146,0,0,1-2.848-.845,5.574,5.574,0,0,1-2.041-2.472,8.514,8.514,0,0,1-.734-3.539,10.58,10.58,0,0,1,1.351-5.235,10.055,10.055,0,0,1,3.835-3.86A11.452,11.452,0,0,1,238.282,1047Zm-7.091,8.139q-.1,1.7-.1,2.491a16.379,16.379,0,0,0,.326,3.292,4.953,4.953,0,0,0,.895,2.232,1.163,1.163,0,0,0,1.973-.2,5.379,5.379,0,0,0,.443-2.682q0-3.4-.826-4.7a1.621,1.621,0,0,0-1.43-.838A3.009,3.009,0,0,0,231.191,1055.141Z"/>
      </g>
      <g id="组_5579" data-name="组 5579">
        <g id="组_5577" data-name="组 5577">
          <path id="路径_14060" data-name="路径 14060" class="cls-3" d="M267.406,1047.181v13.665a8.432,8.432,0,0,0,.136,1.966,1.275,1.275,0,0,0,.566.7,2.683,2.683,0,0,0,1.381.271h.382v.456h-8.8v-.456h.443a3.422,3.422,0,0,0,1.528-.247,1.264,1.264,0,0,0,.616-.677,7.493,7.493,0,0,0,.16-2.009v-8.662a5.464,5.464,0,0,0-.111-1.448,1.044,1.044,0,0,0-.412-.493,1.217,1.217,0,0,0-.7-.2,3.943,3.943,0,0,0-1.527.394l-.222-.444,6.148-2.809Z"/>
        </g>
        <g id="组_5578" data-name="组 5578">
          <path id="路径_14061" data-name="路径 14061" class="cls-3" d="M273.256,1047.181h7.825l-1.245,3.179h-6.58l-.629,1.664a10.423,10.423,0,0,1,6.544,2.119,5.079,5.079,0,0,1,1.885,4.017,6.03,6.03,0,0,1-3.34,5.28,7.682,7.682,0,0,1-3.487.8,5.465,5.465,0,0,1-3.142-.764,1.524,1.524,0,0,1-.764-1.232,1.294,1.294,0,0,1,.4-.937,1.265,1.265,0,0,1,.93-.406,2.613,2.613,0,0,1,.973.2,10.283,10.283,0,0,1,1.688,1.035,6.078,6.078,0,0,0,1.294.715,2.388,2.388,0,0,0,.863.147,2.292,2.292,0,0,0,1.719-.739,2.475,2.475,0,0,0,.709-1.774,4.039,4.039,0,0,0-2.17-3.524,10.146,10.146,0,0,0-5.47-1.356q-.333,0-1,.012Z"/>
        </g>
      </g>
      <g id="组_5580" data-name="组 5580">
        <path id="路径_14062" data-name="路径 14062" class="cls-3" d="M207.6,1054.9h6.084v-6.071h1.657v6.071h6.084v1.67h-6.084v6.021h-1.657v-6.021H207.6Z"/>
      </g>
      <g id="组_5581" data-name="组 5581">
        <rect id="矩形_2764" data-name="矩形 2764" class="cls-3" width="13.825" height="1.67" transform="translate(244.396 1058.227)"/>
        <rect id="矩形_2765" data-name="矩形 2765" class="cls-3" width="13.825" height="1.67" transform="translate(244.396 1051.519)"/>
      </g>
    </g>
  </g>
</svg>
