<svg xmlns="http://www.w3.org/2000/svg" width="157.619" height="72.892" viewBox="0 0 157.619 72.892">
  <defs>
    <style>
      .cls-1 {
        fill: #ccd9ff;
      }

      .cls-2 {
        fill: #8ca6fd;
      }

      .cls-3 {
        fill: #fff;
      }
    </style>
  </defs>
  <g id="组_5605" data-name="组 5605" transform="translate(-330.072 -1019.262)">
    <g id="组_5594" data-name="组 5594">
      <path id="路径_14070" data-name="路径 14070" class="cls-1" d="M408.882,1092.154h44.835a11.868,11.868,0,0,0,6.149-1.716l24.621-14.9a6.643,6.643,0,0,0,3.2-5.683v-29.417a6.646,6.646,0,0,0-3.381-5.787l-24.564-13.854a11.869,11.869,0,0,0-5.833-1.531H363.851a11.876,11.876,0,0,0-5.834,1.531l-24.563,13.854a6.647,6.647,0,0,0-3.382,5.787v29.417a6.644,6.644,0,0,0,3.205,5.683l24.621,14.9a11.868,11.868,0,0,0,6.149,1.716Z"/>
      <path id="路径_14071" data-name="路径 14071" class="cls-2" d="M408.882,1086.741h40.607a11.27,11.27,0,0,0,5.569-1.461l22.3-12.69a5.6,5.6,0,0,0,2.9-4.839V1042.7a5.609,5.609,0,0,0-3.063-4.927l-22.247-11.8a11.3,11.3,0,0,0-5.283-1.3H368.1a11.3,11.3,0,0,0-5.283,1.3l-22.247,11.8a5.609,5.609,0,0,0-3.063,4.927v25.049a5.6,5.6,0,0,0,2.9,4.839l22.3,12.69a11.27,11.27,0,0,0,5.569,1.461Z"/>
    </g>
    <g id="组_5604" data-name="组 5604">
      <g id="组_5597" data-name="组 5597">
        <g id="组_5595" data-name="组 5595">
          <path id="路径_14072" data-name="路径 14072" class="cls-3" d="M443.442,1047.181v13.665a8.431,8.431,0,0,0,.136,1.966,1.274,1.274,0,0,0,.566.7,2.683,2.683,0,0,0,1.381.271h.382v.456h-8.8v-.456h.443a3.422,3.422,0,0,0,1.528-.247,1.264,1.264,0,0,0,.616-.677,7.494,7.494,0,0,0,.16-2.009v-8.662a5.463,5.463,0,0,0-.111-1.448,1.05,1.05,0,0,0-.412-.493,1.217,1.217,0,0,0-.7-.2,3.943,3.943,0,0,0-1.527.394l-.222-.444,6.148-2.809Z"/>
        </g>
        <g id="组_5596" data-name="组 5596">
          <path id="路径_14073" data-name="路径 14073" class="cls-3" d="M449.292,1047.181h7.824l-1.244,3.179h-6.58l-.629,1.664a10.42,10.42,0,0,1,6.543,2.119,5.077,5.077,0,0,1,1.886,4.017,6.03,6.03,0,0,1-3.34,5.28,7.683,7.683,0,0,1-3.487.8,5.465,5.465,0,0,1-3.142-.764,1.524,1.524,0,0,1-.764-1.232,1.294,1.294,0,0,1,.4-.937,1.263,1.263,0,0,1,.93-.406,2.613,2.613,0,0,1,.973.2,10.283,10.283,0,0,1,1.688,1.035,6.078,6.078,0,0,0,1.294.715,2.388,2.388,0,0,0,.863.147,2.292,2.292,0,0,0,1.719-.739,2.475,2.475,0,0,0,.709-1.774,4.039,4.039,0,0,0-2.17-3.524,10.146,10.146,0,0,0-5.47-1.356q-.333,0-1,.012Z"/>
        </g>
      </g>
      <g id="组_5600" data-name="组 5600">
        <g id="组_5598" data-name="组 5598">
          <path id="路径_14074" data-name="路径 14074" class="cls-3" d="M380.77,1055.708a15.846,15.846,0,0,1-.666,4.673,6.478,6.478,0,0,1-1.07,2.183,5.474,5.474,0,0,1-1.526,1.35,3.745,3.745,0,0,1-3.929-.117,5.67,5.67,0,0,1-1.638-1.763,8.812,8.812,0,0,1-.9-2.232,15.037,15.037,0,0,1-.5-3.9,16.471,16.471,0,0,1,.725-5.006,5.968,5.968,0,0,1,1.813-2.892,3.819,3.819,0,0,1,5.151-.012,5.741,5.741,0,0,1,1.76,2.67A15.594,15.594,0,0,1,380.77,1055.708Zm-3.6-.025q0-4.389-.047-5.117a4.772,4.772,0,0,0-.562-2.318,1.1,1.1,0,0,0-.947-.4,1.068,1.068,0,0,0-.8.3,2.668,2.668,0,0,0-.585,1.523q-.152,1.091-.152,7.614a30.657,30.657,0,0,0,.234,4.76,2.178,2.178,0,0,0,.5,1.171,1.238,1.238,0,0,0,.865.3,1.02,1.02,0,0,0,.877-.4,4.059,4.059,0,0,0,.562-2.133Z"/>
        </g>
        <g id="组_5599" data-name="组 5599">
          <path id="路径_14075" data-name="路径 14075" class="cls-3" d="M367.285,1047v13.837a8.618,8.618,0,0,0,.137,1.991,1.287,1.287,0,0,0,.574.7,2.708,2.708,0,0,0,1.4.275h.387v.462h-8.909v-.462h.449a3.467,3.467,0,0,0,1.547-.25,1.274,1.274,0,0,0,.624-.686,7.6,7.6,0,0,0,.162-2.034v-8.771a5.533,5.533,0,0,0-.112-1.466,1.061,1.061,0,0,0-.418-.5,1.234,1.234,0,0,0-.7-.206,4,4,0,0,0-1.547.4l-.225-.449,6.226-2.845Z"/>
        </g>
      </g>
      <g id="组_5601" data-name="组 5601">
        <path id="路径_14076" data-name="路径 14076" class="cls-3" d="M406.389,1047h7.989l-1.271,3.246h-6.718l-.641,1.7a10.645,10.645,0,0,1,6.68,2.164,5.185,5.185,0,0,1,1.925,4.1,6.161,6.161,0,0,1-3.41,5.39,7.847,7.847,0,0,1-3.56.812,5.578,5.578,0,0,1-3.208-.78,1.557,1.557,0,0,1-.78-1.258,1.324,1.324,0,0,1,.409-.957,1.3,1.3,0,0,1,.95-.415,2.67,2.67,0,0,1,.994.2,10.6,10.6,0,0,1,1.723,1.056,6.134,6.134,0,0,0,1.321.73,2.418,2.418,0,0,0,.881.151,2.34,2.34,0,0,0,1.755-.755,2.525,2.525,0,0,0,.723-1.811,4.125,4.125,0,0,0-2.214-3.6,10.364,10.364,0,0,0-5.586-1.384q-.339,0-1.019.012Z"/>
      </g>
      <g id="组_5602" data-name="组 5602">
        <path id="路径_14077" data-name="路径 14077" class="cls-3" d="M383.546,1054.9h6.084v-6.071h1.657v6.071h6.084v1.67h-6.084v6.021H389.63v-6.021h-6.084Z"/>
      </g>
      <g id="组_5603" data-name="组 5603">
        <rect id="矩形_2768" data-name="矩形 2768" class="cls-3" width="13.825" height="1.67" transform="translate(420.339 1058.227)"/>
        <rect id="矩形_2769" data-name="矩形 2769" class="cls-3" width="13.825" height="1.67" transform="translate(420.339 1051.519)"/>
      </g>
    </g>
  </g>
</svg>
