<svg xmlns="http://www.w3.org/2000/svg" width="163.619" height="78.893" viewBox="0 0 163.619 78.893">
  <defs>
    <style>
      .cls-1, .cls-3, .cls-5 {
        fill: #fff;
      }

      .cls-1 {
        stroke-linecap: round;
        stroke-linejoin: round;
      }

      .cls-2 {
        fill: #8ca6fd;
      }

      .cls-4, .cls-5 {
        stroke: none;
      }
    </style>
  </defs>
  <g id="组_5627" data-name="组 5627" transform="translate(-154.18 -1127.123)">
    <g id="路径_14086" data-name="路径 14086" class="cls-1">
      <path class="cls-4" d="M 280.8250122070313 1204.515991210938 L 235.9889984130859 1204.515991210938 L 191.1540069580078 1204.515991210938 C 188.7131958007813 1204.515991210938 186.3187103271484 1203.84765625 184.2294158935547 1202.583374023438 L 159.6082305908203 1187.67919921875 C 158.41162109375 1186.954711914063 157.4162902832031 1185.928100585938 156.7296905517578 1184.710571289063 C 156.0429840087891 1183.492797851563 155.6800079345703 1182.110473632813 155.6800079345703 1180.713012695313 L 155.6800079345703 1166.568969726563 L 155.6800079345703 1151.295043945313 C 155.6800079345703 1148.362548828125 157.2682800292969 1145.644775390625 159.8250274658203 1144.202514648438 L 184.3881072998047 1130.348510742188 C 186.3892974853516 1129.2197265625 188.6611480712891 1128.623046875 190.9580078125 1128.623046875 L 235.9889984130859 1128.623046875 L 281.02099609375 1128.623046875 C 283.31787109375 1128.623046875 285.5897216796875 1129.2197265625 287.5909423828125 1130.348510742188 L 312.1539001464844 1144.202514648438 C 314.7107238769531 1145.644775390625 316.2990112304688 1148.362548828125 316.2990112304688 1151.295043945313 L 316.2990112304688 1166.568969726563 L 316.2990112304688 1180.713012695313 C 316.2990112304688 1182.110473632813 315.93603515625 1183.492797851563 315.2493286132813 1184.710571289063 C 314.5627136230469 1185.92822265625 313.5673828125 1186.954711914063 312.3709106445313 1187.679077148438 L 287.7497863769531 1202.583251953125 C 285.6602783203125 1203.84765625 283.2658081054688 1204.515991210938 280.8250122070313 1204.515991210938 Z"/>
      <path class="cls-5" d="M 190.9580078125 1130.123046875 C 188.9140014648438 1130.123046875 186.9049987792969 1130.651000976563 185.125 1131.655029296875 L 160.56201171875 1145.509033203125 C 158.4719848632813 1146.68798828125 157.1799926757813 1148.899047851563 157.1799926757813 1151.295043945313 L 157.1799926757813 1166.568969726563 L 157.1799926757813 1180.713012695313 C 157.1799926757813 1183.036010742188 158.39501953125 1185.191040039063 160.385009765625 1186.39599609375 L 185.0059814453125 1201.300048828125 C 186.8599853515625 1202.421997070313 188.9859924316406 1203.015991210938 191.1539916992188 1203.015991210938 L 235.9889984130859 1203.015991210938 L 280.8250122070313 1203.015991210938 C 282.9929809570313 1203.015991210938 285.1189575195313 1202.421997070313 286.9729614257813 1201.300048828125 L 311.593994140625 1186.39599609375 C 313.583984375 1185.191040039063 314.7990112304688 1183.036010742188 314.7990112304688 1180.713012695313 L 314.7990112304688 1166.568969726563 L 314.7990112304688 1151.295043945313 C 314.7990112304688 1148.899047851563 313.5069580078125 1146.68798828125 311.4169921875 1145.509033203125 L 286.85400390625 1131.655029296875 C 285.0740051269531 1130.651000976563 283.0650024414063 1130.123046875 281.02099609375 1130.123046875 L 235.9889984130859 1130.123046875 L 190.9580078125 1130.123046875 M 190.9580078125 1127.123046875 L 235.9889984130859 1127.123046875 L 281.02099609375 1127.123046875 C 283.5755615234375 1127.123046875 286.1022338867188 1127.78662109375 288.3279113769531 1129.042114257813 L 312.8907775878906 1142.89599609375 C 315.9183349609375 1144.603881835938 317.7990112304688 1147.822143554688 317.7990112304688 1151.295043945313 L 317.7990112304688 1166.568969726563 L 317.7990112304688 1180.713012695313 C 317.7990112304688 1182.3681640625 317.369140625 1184.005249023438 316.555908203125 1185.447387695313 C 315.7428894042969 1186.889038085938 314.5643920898438 1188.1044921875 313.1478881835938 1188.962158203125 L 288.5265197753906 1203.866455078125 C 286.2025756835938 1205.272827148438 283.5396118164063 1206.015991210938 280.8250122070313 1206.015991210938 L 235.9889984130859 1206.015991210938 L 191.1539916992188 1206.015991210938 C 188.4393920898438 1206.015991210938 185.7763671875 1205.272827148438 183.4527893066406 1203.86669921875 L 158.8314514160156 1188.96240234375 C 157.4145812988281 1188.1044921875 156.2361450195313 1186.889038085938 155.4231262207031 1185.447387695313 C 154.6098327636719 1184.005249023438 154.1799926757813 1182.3681640625 154.1799926757813 1180.713012695313 L 154.1799926757813 1166.568969726563 L 154.1799926757813 1151.295043945313 C 154.1799926757813 1147.822143554688 156.0606384277344 1144.603759765625 159.0880737304688 1142.896118164063 L 183.6512145996094 1129.0419921875 C 185.8767700195313 1127.78662109375 188.4034423828125 1127.123046875 190.9580078125 1127.123046875 Z"/>
    </g>
    <g id="组_5626" data-name="组 5626">
      <g id="组_5618" data-name="组 5618">
        <path id="路径_14087" data-name="路径 14087" class="cls-2" d="M235.989,1197.6H276.6a11.271,11.271,0,0,0,5.569-1.461l22.3-12.691a5.594,5.594,0,0,0,2.9-4.839v-25.048a5.61,5.61,0,0,0-3.063-4.927l-22.247-11.8a11.29,11.29,0,0,0-5.283-1.3H195.2a11.289,11.289,0,0,0-5.283,1.3l-22.247,11.8a5.61,5.61,0,0,0-3.063,4.927v25.048a5.594,5.594,0,0,0,2.9,4.839l22.3,12.691a11.269,11.269,0,0,0,5.569,1.461Z"/>
      </g>
      <g id="组_5625" data-name="组 5625">
        <path id="路径_14088" data-name="路径 14088" class="cls-3" d="M190.9,1175.275v-.345a10.9,10.9,0,0,0,3.471-1.381,7.109,7.109,0,0,0,2.257-2.257,9.014,9.014,0,0,0,1.165-3.095,7.462,7.462,0,0,1-1.3.549,4.049,4.049,0,0,1-1.128.154,4.125,4.125,0,0,1-3.163-1.369,5.309,5.309,0,0,1-1.264-3.748,6.692,6.692,0,0,1,.685-3.028,5.067,5.067,0,0,1,7.367-2.053,5.834,5.834,0,0,1,2.084,2.43,8.152,8.152,0,0,1,.777,3.625,10.767,10.767,0,0,1-1.264,5.056,9.594,9.594,0,0,1-3.767,3.878A12.452,12.452,0,0,1,190.9,1175.275Zm7.078-8.114q.123-1.38.124-2.429a16.143,16.143,0,0,0-.518-4.18,3.15,3.15,0,0,0-.876-1.578,1.166,1.166,0,0,0-.8-.272,1.088,1.088,0,0,0-.961.53,5.5,5.5,0,0,0-.481,2.775q0,3.416.814,4.71a1.62,1.62,0,0,0,1.43.839A3.047,3.047,0,0,0,197.976,1167.161Z"/>
        <g id="组_5619" data-name="组 5619">
          <path id="路径_14089" data-name="路径 14089" class="cls-3" d="M238.282,1157.864v.345a11.753,11.753,0,0,0-3.582,1.461,6.971,6.971,0,0,0-2.134,2.171,10.5,10.5,0,0,0-1.214,3.162,3.667,3.667,0,0,1,.9-.481,5.479,5.479,0,0,1,1.615-.246,4.066,4.066,0,0,1,3.126,1.363,5.28,5.28,0,0,1,1.252,3.717,6.791,6.791,0,0,1-.678,3.034,5,5,0,0,1-1.924,2.133,5.07,5.07,0,0,1-2.664.752,5.153,5.153,0,0,1-2.848-.844,5.577,5.577,0,0,1-2.041-2.473,8.514,8.514,0,0,1-.734-3.539,10.579,10.579,0,0,1,1.351-5.234,10.048,10.048,0,0,1,3.835-3.86A11.43,11.43,0,0,1,238.282,1157.864ZM231.191,1166q-.1,1.7-.1,2.491a16.373,16.373,0,0,0,.326,3.292,4.953,4.953,0,0,0,.895,2.232,1.162,1.162,0,0,0,1.973-.2,5.383,5.383,0,0,0,.443-2.682q0-3.4-.826-4.7a1.622,1.622,0,0,0-1.43-.839A3.009,3.009,0,0,0,231.191,1166Z"/>
        </g>
        <g id="组_5622" data-name="组 5622">
          <g id="组_5620" data-name="组 5620">
            <path id="路径_14090" data-name="路径 14090" class="cls-3" d="M267.406,1158.042v13.666a8.414,8.414,0,0,0,.136,1.965,1.268,1.268,0,0,0,.566.7,2.681,2.681,0,0,0,1.381.272h.382v.456h-8.8v-.456h.443a3.425,3.425,0,0,0,1.528-.247,1.262,1.262,0,0,0,.616-.678,7.478,7.478,0,0,0,.16-2.008v-8.663a5.469,5.469,0,0,0-.111-1.448,1.043,1.043,0,0,0-.412-.492,1.218,1.218,0,0,0-.7-.2,3.959,3.959,0,0,0-1.527.394l-.222-.443,6.148-2.81Z"/>
          </g>
          <g id="组_5621" data-name="组 5621">
            <path id="路径_14091" data-name="路径 14091" class="cls-3" d="M273.256,1158.042h7.825l-1.245,3.18h-6.58l-.629,1.663a10.417,10.417,0,0,1,6.544,2.12,5.079,5.079,0,0,1,1.885,4.017,6.033,6.033,0,0,1-3.34,5.28,7.682,7.682,0,0,1-3.487.8,5.457,5.457,0,0,1-3.142-.765,1.525,1.525,0,0,1-.764-1.232,1.292,1.292,0,0,1,.4-.936,1.266,1.266,0,0,1,.93-.407,2.613,2.613,0,0,1,.973.2,10.448,10.448,0,0,1,1.688,1.035,6.034,6.034,0,0,0,1.294.715,2.367,2.367,0,0,0,.863.148,2.293,2.293,0,0,0,1.719-.739,2.477,2.477,0,0,0,.709-1.775,4.04,4.04,0,0,0-2.17-3.524,10.156,10.156,0,0,0-5.47-1.355q-.333,0-1,.012Z"/>
          </g>
        </g>
        <g id="组_5623" data-name="组 5623">
          <path id="路径_14092" data-name="路径 14092" class="cls-3" d="M207.6,1165.76h6.084v-6.072h1.657v6.072h6.084v1.669h-6.084v6.021h-1.657v-6.021H207.6Z"/>
        </g>
        <g id="组_5624" data-name="组 5624">
          <rect id="矩形_2772" data-name="矩形 2772" class="cls-3" width="13.825" height="1.67" transform="translate(244.396 1169.089)"/>
          <rect id="矩形_2773" data-name="矩形 2773" class="cls-3" width="13.825" height="1.67" transform="translate(244.396 1162.381)"/>
        </g>
      </g>
    </g>
  </g>
</svg>
