<svg xmlns="http://www.w3.org/2000/svg" width="163.619" height="78.893" viewBox="0 0 163.619 78.893">
  <defs>
    <style>
      .cls-1, .cls-2, .cls-5 {
        fill: #fff;
      }

      .cls-1 {
        stroke-linecap: round;
        stroke-linejoin: round;
      }

      .cls-3 {
        fill: #8ca6fd;
      }

      .cls-4, .cls-5 {
        stroke: none;
      }
    </style>
  </defs>
  <g id="组_5664" data-name="组 5664" transform="translate(-672.857 -1127.027)">
    <g id="路径_14108" data-name="路径 14108" class="cls-1" transform="translate(0 -0.096)">
      <path class="cls-4" d="M 799.5020141601562 1204.515991210938 L 754.6669921875 1204.515991210938 L 709.8319702148438 1204.515991210938 C 707.3905029296875 1204.515991210938 704.9956665039062 1203.84765625 702.9063720703125 1202.583374023438 L 678.2852783203125 1187.67919921875 C 677.0888671875 1186.954467773438 676.09375 1185.927978515625 675.4071044921875 1184.710693359375 C 674.7201538085938 1183.49267578125 674.3569946289062 1182.1103515625 674.3569946289062 1180.713012695312 L 674.3569946289062 1166.568969726562 L 674.3569946289062 1151.295043945312 C 674.3569946289062 1148.363159179688 675.9451904296875 1145.6455078125 678.5017700195312 1144.202758789062 L 703.0651245117188 1130.348510742188 C 705.0662841796875 1129.2197265625 707.3384399414062 1128.623046875 709.635986328125 1128.623046875 L 754.6669921875 1128.623046875 L 799.697998046875 1128.623046875 C 801.9960327148438 1128.623046875 804.2679443359375 1129.2197265625 806.2682495117188 1130.348754882812 L 830.8318481445312 1144.202514648438 C 833.38818359375 1145.645263671875 834.9760131835938 1148.36279296875 834.9760131835938 1151.295043945312 L 834.9760131835938 1166.568969726562 L 834.9760131835938 1180.713012695312 C 834.9760131835938 1182.1103515625 834.6130981445312 1183.49267578125 833.926513671875 1184.71044921875 C 833.2401123046875 1185.927978515625 832.2451171875 1186.954467773438 831.0491943359375 1187.678955078125 L 806.4277954101562 1202.583251953125 C 804.3383178710938 1203.84765625 801.9434814453125 1204.515991210938 799.5020141601562 1204.515991210938 Z"/>
      <path class="cls-5" d="M 709.635986328125 1130.123046875 C 707.5919799804688 1130.123046875 705.5819702148438 1130.651000976562 703.802001953125 1131.655029296875 L 679.239013671875 1145.509033203125 C 677.1500244140625 1146.68798828125 675.8569946289062 1148.899047851562 675.8569946289062 1151.295043945312 L 675.8569946289062 1166.568969726562 L 675.8569946289062 1180.713012695312 C 675.8569946289062 1183.036010742188 677.072998046875 1185.191040039062 679.06201171875 1186.39599609375 L 703.6829833984375 1201.300048828125 C 705.5369873046875 1202.421997070312 707.6640014648438 1203.015991210938 709.8319702148438 1203.015991210938 L 754.6669921875 1203.015991210938 L 799.5020141601562 1203.015991210938 C 801.6699829101562 1203.015991210938 803.7969970703125 1202.421997070312 805.6510009765625 1201.300048828125 L 830.27197265625 1186.39599609375 C 832.260986328125 1185.191040039062 833.4760131835938 1183.036010742188 833.4760131835938 1180.713012695312 L 833.4760131835938 1166.568969726562 L 833.4760131835938 1151.295043945312 C 833.4760131835938 1148.899047851562 832.1840209960938 1146.68798828125 830.094970703125 1145.509033203125 L 805.531005859375 1131.655029296875 C 803.7520141601562 1130.651000976562 801.7420043945312 1130.123046875 799.697998046875 1130.123046875 L 754.6669921875 1130.123046875 L 709.635986328125 1130.123046875 M 709.635986328125 1127.123046875 L 754.6669921875 1127.123046875 L 799.697998046875 1127.123046875 C 802.2537841796875 1127.123046875 804.7807006835938 1127.786743164062 807.0055541992188 1129.04248046875 L 831.5687255859375 1142.89599609375 C 834.5958862304688 1144.604370117188 836.4760131835938 1147.822509765625 836.4760131835938 1151.295043945312 L 836.4760131835938 1166.568969726562 L 836.4760131835938 1180.713012695312 C 836.4760131835938 1182.367919921875 836.0462036132812 1184.005004882812 835.233154296875 1185.447143554688 C 834.4203491210938 1186.888671875 833.2423706054688 1188.104125976562 831.8263549804688 1188.9619140625 L 807.2045288085938 1203.866455078125 C 804.880615234375 1205.272827148438 802.2172241210938 1206.015991210938 799.5020141601562 1206.015991210938 L 754.6669921875 1206.015991210938 L 709.8319702148438 1206.015991210938 C 707.1167602539062 1206.015991210938 704.453369140625 1205.272827148438 702.1298217773438 1203.86669921875 L 677.5084838867188 1188.96240234375 C 676.0916748046875 1188.104125976562 674.91357421875 1186.888916015625 674.1006469726562 1185.447631835938 C 673.2870483398438 1184.005249023438 672.8569946289062 1182.368041992188 672.8569946289062 1180.713012695312 L 672.8569946289062 1166.568969726562 L 672.8569946289062 1151.295043945312 C 672.8569946289062 1147.822998046875 674.7374267578125 1144.604736328125 677.7645263671875 1142.896362304688 L 702.3281860351562 1129.0419921875 C 704.5537109375 1127.78662109375 707.0807495117188 1127.123046875 709.635986328125 1127.123046875 Z"/>
    </g>
    <g id="组_12580" data-name="组 12580" transform="translate(-7.168 215)">
      <g id="组_5563" data-name="组 5563" transform="translate(683.022 915.027)">
        <path id="路径_14048" data-name="路径 14048" class="cls-2" d="M761.83,987.918h44.834a11.879,11.879,0,0,0,6.149-1.716l24.621-14.9a6.645,6.645,0,0,0,3.2-5.682V936.2a6.643,6.643,0,0,0-3.381-5.786l-24.564-13.854a11.865,11.865,0,0,0-5.832-1.531H716.8a11.869,11.869,0,0,0-5.833,1.531L686.4,930.412a6.641,6.641,0,0,0-3.381,5.786v29.417a6.642,6.642,0,0,0,3.2,5.682l24.621,14.9A11.876,11.876,0,0,0,717,987.918Z" transform="translate(-683.022 -915.027)"/>
        <path id="路径_14049" data-name="路径 14049" class="cls-3" d="M761.155,982.014h40.607a11.286,11.286,0,0,0,5.569-1.461l22.3-12.691a5.6,5.6,0,0,0,2.9-4.84V937.975a5.608,5.608,0,0,0-3.062-4.927l-22.247-11.8a11.292,11.292,0,0,0-5.283-1.3H720.37a11.3,11.3,0,0,0-5.283,1.3l-22.246,11.8a5.609,5.609,0,0,0-3.063,4.927v25.048a5.6,5.6,0,0,0,2.9,4.84l22.3,12.691a11.287,11.287,0,0,0,5.569,1.461Z" transform="translate(-682.347 -914.535)"/>
      </g>
      <g id="组_5573" data-name="组 5573" transform="translate(713.47 942.526)">
        <g id="组_5566" data-name="组 5566" transform="translate(76.492 0.419)">
          <g id="组_5564" data-name="组 5564">
            <path id="路径_14050" data-name="路径 14050" class="cls-2" d="M786.8,940.408v13.665a8.5,8.5,0,0,0,.135,1.966,1.271,1.271,0,0,0,.568.7,2.671,2.671,0,0,0,1.38.272h.382v.455h-8.8v-.455h.443a3.444,3.444,0,0,0,1.528-.246,1.268,1.268,0,0,0,.616-.678,7.51,7.51,0,0,0,.159-2.009v-8.662a5.51,5.51,0,0,0-.11-1.449,1.063,1.063,0,0,0-.414-.493,1.219,1.219,0,0,0-.7-.2,3.939,3.939,0,0,0-1.527.394l-.222-.443,6.148-2.809Z" transform="translate(-780.241 -940.408)"/>
          </g>
          <g id="组_5565" data-name="组 5565" transform="translate(9.41)">
            <path id="路径_14051" data-name="路径 14051" class="cls-2" d="M791.79,940.408h7.825l-1.245,3.179h-6.58l-.628,1.663a10.413,10.413,0,0,1,6.543,2.12,5.076,5.076,0,0,1,1.885,4.017,6.028,6.028,0,0,1-3.34,5.28,7.681,7.681,0,0,1-3.487.794,5.458,5.458,0,0,1-3.142-.763,1.526,1.526,0,0,1-.764-1.232,1.3,1.3,0,0,1,.4-.937,1.269,1.269,0,0,1,.931-.406,2.619,2.619,0,0,1,.974.2,10.322,10.322,0,0,1,1.687,1.035,6.1,6.1,0,0,0,1.295.715,2.386,2.386,0,0,0,.862.147,2.294,2.294,0,0,0,1.719-.739,2.475,2.475,0,0,0,.708-1.774,4.04,4.04,0,0,0-2.169-3.524,10.158,10.158,0,0,0-5.471-1.355c-.221,0-.554,0-1,.012Z" transform="translate(-788.796 -940.408)"/>
          </g>
        </g>
        <g id="组_5570" data-name="组 5570">
          <g id="组_5568" data-name="组 5568">
            <path id="路径_14053" data-name="路径 14053" class="cls-2" d="M717.4,940.245V954.2a8.657,8.657,0,0,0,.138,2.006,1.3,1.3,0,0,0,.579.711,2.737,2.737,0,0,0,1.41.277h.389v.465h-8.982v-.465h.453a3.5,3.5,0,0,0,1.56-.252,1.3,1.3,0,0,0,.629-.692,7.669,7.669,0,0,0,.163-2.05v-8.844a5.556,5.556,0,0,0-.113-1.478,1.068,1.068,0,0,0-.421-.5,1.24,1.24,0,0,0-.711-.207,4.053,4.053,0,0,0-1.56.4l-.227-.452,6.278-2.869Z" transform="translate(-710.702 -940.245)"/>
          </g>
          <g id="组_5569" data-name="组 5569" transform="translate(9.634)">
            <path id="路径_14054" data-name="路径 14054" class="cls-2" d="M729.5,957.657H719.46v-.277a55.486,55.486,0,0,0,5.6-7.4,8.009,8.009,0,0,0,.988-3.711,3.086,3.086,0,0,0-.818-2.194,2.633,2.633,0,0,0-2-.875,3.306,3.306,0,0,0-3.007,1.937l-.465-.164a6.977,6.977,0,0,1,2.064-3.573,4.838,4.838,0,0,1,3.2-1.157,4.726,4.726,0,0,1,2.365.6,4.379,4.379,0,0,1,1.673,1.654,3.983,3.983,0,0,1,.6,1.969,7.111,7.111,0,0,1-.931,3.4,32.222,32.222,0,0,1-5.548,6.491h3.686a8.383,8.383,0,0,0,1.768-.113,1.456,1.456,0,0,0,.673-.383,5,5,0,0,0,.692-1.138h.453Z" transform="translate(-719.46 -940.245)"/>
          </g>
        </g>
        <g id="组_5571" data-name="组 5571" transform="translate(24.456 2.065)">
          <path id="路径_14055" data-name="路径 14055" class="cls-2" d="M731.935,947.976h6.084V941.9h1.657v6.072h6.084v1.669h-6.084v6.021h-1.657v-6.021h-6.084Z" transform="translate(-731.935 -941.904)"/>
        </g>
        <g id="组_5572" data-name="组 5572" transform="translate(60.149 4.757)">
          <rect id="矩形_2762" data-name="矩形 2762" class="cls-2" width="13.825" height="1.67" transform="translate(0 6.708)"/>
          <rect id="矩形_2763" data-name="矩形 2763" class="cls-2" width="13.825" height="1.67"/>
        </g>
        <path id="路径_26413" data-name="路径 26413" class="cls-2" d="M3.875-14.3v-.431a8.066,8.066,0,0,0,1.947-.758,2.891,2.891,0,0,0,.937-1.072,3.013,3.013,0,0,0,.394-1.46,2.376,2.376,0,0,0-.746-1.756,2.54,2.54,0,0,0-1.855-.733A3.484,3.484,0,0,0,1.62-18.688l-.456-.16a7.4,7.4,0,0,1,2.274-3.093,5.036,5.036,0,0,1,3.087-1.035,4.017,4.017,0,0,1,2.865,1.06,3.3,3.3,0,0,1,1.128,2.477,3.366,3.366,0,0,1-.524,1.781,4.549,4.549,0,0,1-1.645,1.51,5.83,5.83,0,0,1,2.2,1.731,4.236,4.236,0,0,1,.758,2.582A5.95,5.95,0,0,1,9.414-7.395a6.983,6.983,0,0,1-5.071,1.83,5.358,5.358,0,0,1-3.093-.7,1.492,1.492,0,0,1-.7-1.269A1.308,1.308,0,0,1,.954-8.5a1.3,1.3,0,0,1,.937-.4,1.735,1.735,0,0,1,.764.173,15.818,15.818,0,0,1,1.4,1.078,3.661,3.661,0,0,0,2.249.98,2.04,2.04,0,0,0,1.565-.721,2.622,2.622,0,0,0,.653-1.83,4.764,4.764,0,0,0-1.183-3.111A6.2,6.2,0,0,0,3.875-14.3Z" transform="translate(42.206 22.977)"/>
      </g>
    </g>
  </g>
</svg>
