<svg xmlns="http://www.w3.org/2000/svg" width="163.619" height="78.893" viewBox="0 0 163.619 78.893">
  <defs>
    <style>
      .cls-1, .cls-3, .cls-5 {
        fill: #fff;
      }

      .cls-1 {
        stroke-linecap: round;
        stroke-linejoin: round;
      }

      .cls-2 {
        fill: #8ca6fd;
      }

      .cls-4, .cls-5 {
        stroke: none;
      }
    </style>
  </defs>
  <g id="组_5651" data-name="组 5651" transform="translate(-327.072 -1127.123)">
    <g id="路径_14100" data-name="路径 14100" class="cls-1">
      <path class="cls-4" d="M 453.7170104980469 1204.515991210938 L 408.8819885253906 1204.515991210938 L 364.0469970703125 1204.515991210938 C 361.6055603027344 1204.515991210938 359.2107238769531 1203.84765625 357.1214294433594 1202.583374023438 L 332.500244140625 1187.67919921875 C 331.3038330078125 1186.954467773438 330.3087463378906 1185.927978515625 329.6221313476563 1184.710693359375 C 328.9351196289063 1183.49267578125 328.5719909667969 1182.1103515625 328.5719909667969 1180.713012695313 L 328.5719909667969 1166.568969726563 L 328.5719909667969 1151.295043945313 C 328.5719909667969 1148.363159179688 330.1601867675781 1145.6455078125 332.716796875 1144.202758789063 L 357.2800903320313 1130.348510742188 C 359.2812805175781 1129.2197265625 361.5534973144531 1128.623046875 363.8510131835938 1128.623046875 L 408.8819885253906 1128.623046875 L 453.9129943847656 1128.623046875 C 456.2109985351563 1128.623046875 458.4829711914063 1129.2197265625 460.4832763671875 1130.348754882813 L 485.046875 1144.202514648438 C 487.6032409667969 1145.645263671875 489.1910095214844 1148.36279296875 489.1910095214844 1151.295043945313 L 489.1910095214844 1166.568969726563 L 489.1910095214844 1180.713012695313 C 489.1910095214844 1182.1103515625 488.8280944824219 1183.49267578125 488.1415405273438 1184.71044921875 C 487.4551391601563 1185.927978515625 486.4601440429688 1186.954467773438 485.2642211914063 1187.678955078125 L 460.6427612304688 1202.583251953125 C 458.5532836914063 1203.84765625 456.158447265625 1204.515991210938 453.7170104980469 1204.515991210938 Z"/>
      <path class="cls-5" d="M 363.8510131835938 1130.123046875 C 361.8070068359375 1130.123046875 359.7969970703125 1130.651000976563 358.0169982910156 1131.655029296875 L 333.4540100097656 1145.509033203125 C 331.364990234375 1146.68798828125 330.0719909667969 1148.899047851563 330.0719909667969 1151.295043945313 L 330.0719909667969 1166.568969726563 L 330.0719909667969 1180.713012695313 C 330.0719909667969 1183.036010742188 331.2879943847656 1185.191040039063 333.2770080566406 1186.39599609375 L 357.8980102539063 1201.300048828125 C 359.7520141601563 1202.421997070313 361.8789978027344 1203.015991210938 364.0469970703125 1203.015991210938 L 408.8819885253906 1203.015991210938 L 453.7170104980469 1203.015991210938 C 455.885009765625 1203.015991210938 458.0119934082031 1202.421997070313 459.8659973144531 1201.300048828125 L 484.4869995117188 1186.39599609375 C 486.4760131835938 1185.191040039063 487.6910095214844 1183.036010742188 487.6910095214844 1180.713012695313 L 487.6910095214844 1166.568969726563 L 487.6910095214844 1151.295043945313 C 487.6910095214844 1148.899047851563 486.3989868164063 1146.68798828125 484.3099975585938 1145.509033203125 L 459.7460021972656 1131.655029296875 C 457.9670104980469 1130.651000976563 455.9570007324219 1130.123046875 453.9129943847656 1130.123046875 L 408.8819885253906 1130.123046875 L 363.8510131835938 1130.123046875 M 363.8510131835938 1127.123046875 L 408.8819885253906 1127.123046875 L 453.9129943847656 1127.123046875 C 456.4687805175781 1127.123046875 458.9956970214844 1127.786743164063 461.2205200195313 1129.04248046875 L 485.7837524414063 1142.89599609375 C 488.8109436035156 1144.604370117188 490.6910095214844 1147.822631835938 490.6910095214844 1151.295043945313 L 490.6910095214844 1166.568969726563 L 490.6910095214844 1180.713012695313 C 490.6910095214844 1182.367919921875 490.26123046875 1184.005004882813 489.4481506347656 1185.447143554688 C 488.6354064941406 1186.888671875 487.4573974609375 1188.104125976563 486.0414428710938 1188.9619140625 L 461.4195556640625 1203.866455078125 C 459.0956115722656 1205.272827148438 456.4322509765625 1206.015991210938 453.7170104980469 1206.015991210938 L 408.8819885253906 1206.015991210938 L 364.0469970703125 1206.015991210938 C 361.3317565917969 1206.015991210938 358.6683959960938 1205.272827148438 356.3448181152344 1203.86669921875 L 331.7234497070313 1188.96240234375 C 330.3066711425781 1188.104125976563 329.1285705566406 1186.888916015625 328.3156127929688 1185.447631835938 C 327.5020141601563 1184.005249023438 327.0719909667969 1182.368041992188 327.0719909667969 1180.713012695313 L 327.0719909667969 1166.568969726563 L 327.0719909667969 1151.295043945313 C 327.0719909667969 1147.822875976563 328.9524230957031 1144.604736328125 331.9795227050781 1142.896362304688 L 356.543212890625 1129.0419921875 C 358.7687683105469 1127.78662109375 361.2958068847656 1127.123046875 363.8510131835938 1127.123046875 Z"/>
    </g>
    <g id="组_5650" data-name="组 5650">
      <g id="组_5639" data-name="组 5639">
        <path id="路径_14101" data-name="路径 14101" class="cls-2" d="M408.882,1197.6h40.607a11.269,11.269,0,0,0,5.569-1.461l22.3-12.691a5.593,5.593,0,0,0,2.9-4.839v-25.048a5.608,5.608,0,0,0-3.063-4.927l-22.247-11.8a11.29,11.29,0,0,0-5.283-1.3H368.1a11.289,11.289,0,0,0-5.283,1.3l-22.247,11.8a5.608,5.608,0,0,0-3.063,4.927v25.048a5.593,5.593,0,0,0,2.9,4.839l22.3,12.691a11.269,11.269,0,0,0,5.569,1.461Z"/>
      </g>
      <g id="组_5649" data-name="组 5649">
        <g id="组_5642" data-name="组 5642">
          <g id="组_5640" data-name="组 5640">
            <path id="路径_14102" data-name="路径 14102" class="cls-3" d="M443.442,1158.042v13.666a8.413,8.413,0,0,0,.136,1.965,1.267,1.267,0,0,0,.566.7,2.681,2.681,0,0,0,1.381.272h.382v.456h-8.8v-.456h.443a3.424,3.424,0,0,0,1.528-.247,1.262,1.262,0,0,0,.616-.678,7.478,7.478,0,0,0,.16-2.008v-8.663a5.468,5.468,0,0,0-.111-1.448,1.048,1.048,0,0,0-.412-.492,1.218,1.218,0,0,0-.7-.2,3.959,3.959,0,0,0-1.527.394l-.222-.443,6.148-2.81Z"/>
          </g>
          <g id="组_5641" data-name="组 5641">
            <path id="路径_14103" data-name="路径 14103" class="cls-3" d="M449.292,1158.042h7.824l-1.244,3.18h-6.58l-.629,1.663a10.414,10.414,0,0,1,6.543,2.12,5.077,5.077,0,0,1,1.886,4.017,6.033,6.033,0,0,1-3.34,5.28,7.683,7.683,0,0,1-3.487.8,5.457,5.457,0,0,1-3.142-.765,1.525,1.525,0,0,1-.764-1.232,1.292,1.292,0,0,1,.4-.936,1.264,1.264,0,0,1,.93-.407,2.613,2.613,0,0,1,.973.2,10.447,10.447,0,0,1,1.688,1.035,6.034,6.034,0,0,0,1.294.715,2.367,2.367,0,0,0,.863.148,2.292,2.292,0,0,0,1.719-.739,2.477,2.477,0,0,0,.709-1.775,4.04,4.04,0,0,0-2.17-3.524,10.156,10.156,0,0,0-5.47-1.355q-.333,0-1,.012Z"/>
          </g>
        </g>
        <g id="组_5645" data-name="组 5645">
          <g id="组_5643" data-name="组 5643">
            <path id="路径_14104" data-name="路径 14104" class="cls-3" d="M380.77,1166.57a15.856,15.856,0,0,1-.666,4.673,6.488,6.488,0,0,1-1.07,2.183,5.476,5.476,0,0,1-1.526,1.35,3.751,3.751,0,0,1-3.929-.117,5.662,5.662,0,0,1-1.638-1.764,8.793,8.793,0,0,1-.9-2.232,15.022,15.022,0,0,1-.5-3.9,16.473,16.473,0,0,1,.725-5.007,5.969,5.969,0,0,1,1.813-2.891,3.821,3.821,0,0,1,5.151-.013,5.741,5.741,0,0,1,1.76,2.67A15.6,15.6,0,0,1,380.77,1166.57Zm-3.6-.025q0-4.391-.047-5.118a4.776,4.776,0,0,0-.562-2.318,1.1,1.1,0,0,0-.947-.394,1.065,1.065,0,0,0-.8.3,2.665,2.665,0,0,0-.585,1.522q-.152,1.092-.152,7.615a30.674,30.674,0,0,0,.234,4.76,2.182,2.182,0,0,0,.5,1.171,1.242,1.242,0,0,0,.865.3,1.018,1.018,0,0,0,.877-.4,4.056,4.056,0,0,0,.562-2.133Z"/>
          </g>
          <g id="组_5644" data-name="组 5644">
            <path id="路径_14105" data-name="路径 14105" class="cls-3" d="M367.285,1157.864V1171.7a8.608,8.608,0,0,0,.137,1.99,1.292,1.292,0,0,0,.574.7,2.718,2.718,0,0,0,1.4.275h.387v.461h-8.909v-.461h.449a3.467,3.467,0,0,0,1.547-.25,1.278,1.278,0,0,0,.624-.686,7.6,7.6,0,0,0,.162-2.034v-8.771a5.544,5.544,0,0,0-.112-1.467,1.066,1.066,0,0,0-.418-.5,1.235,1.235,0,0,0-.7-.2,4,4,0,0,0-1.547.4l-.225-.449,6.226-2.845Z"/>
          </g>
        </g>
        <g id="组_5646" data-name="组 5646">
          <path id="路径_14106" data-name="路径 14106" class="cls-3" d="M406.389,1157.864h7.989l-1.271,3.246h-6.718l-.641,1.7a10.633,10.633,0,0,1,6.68,2.164,5.185,5.185,0,0,1,1.925,4.1,6.161,6.161,0,0,1-3.41,5.391,7.845,7.845,0,0,1-3.56.811,5.578,5.578,0,0,1-3.208-.78,1.556,1.556,0,0,1-.78-1.258,1.323,1.323,0,0,1,.409-.956,1.293,1.293,0,0,1,.95-.415,2.668,2.668,0,0,1,.994.2,10.636,10.636,0,0,1,1.723,1.057,6.188,6.188,0,0,0,1.321.73,2.441,2.441,0,0,0,.881.151,2.34,2.34,0,0,0,1.755-.755,2.526,2.526,0,0,0,.723-1.812,4.126,4.126,0,0,0-2.214-3.6,10.372,10.372,0,0,0-5.586-1.384c-.226,0-.566.005-1.019.013Z"/>
        </g>
        <g id="组_5647" data-name="组 5647">
          <path id="路径_14107" data-name="路径 14107" class="cls-3" d="M383.546,1165.76h6.084v-6.072h1.657v6.072h6.084v1.669h-6.084v6.021H389.63v-6.021h-6.084Z"/>
        </g>
        <g id="组_5648" data-name="组 5648">
          <rect id="矩形_2776" data-name="矩形 2776" class="cls-3" width="13.825" height="1.67" transform="translate(420.339 1169.089)"/>
          <rect id="矩形_2777" data-name="矩形 2777" class="cls-3" width="13.825" height="1.67" transform="translate(420.339 1162.381)"/>
        </g>
      </g>
    </g>
  </g>
</svg>
