<svg xmlns="http://www.w3.org/2000/svg" width="163.619" height="78.893" viewBox="0 0 163.619 78.893">
  <defs>
    <style>
      .cls-1, .cls-3, .cls-5 {
        fill: #fff;
      }

      .cls-1 {
        stroke-linecap: round;
        stroke-linejoin: round;
      }

      .cls-2 {
        fill: #8ca6fd;
      }

      .cls-4, .cls-5 {
        stroke: none;
      }
    </style>
  </defs>
  <g id="组_5638" data-name="组 5638" transform="translate(-499.965 -1127.123)">
    <g id="路径_14093" data-name="路径 14093" class="cls-1">
      <path class="cls-4" d="M 626.6090087890625 1204.515991210938 L 581.7739868164063 1204.515991210938 L 536.9390258789063 1204.515991210938 C 534.4982299804688 1204.515991210938 532.1036987304688 1203.84765625 530.014404296875 1202.583374023438 L 505.3932495117188 1187.67919921875 C 504.1966552734375 1186.954711914063 503.2012939453125 1185.92822265625 502.5146789550781 1184.710571289063 C 501.8279724121094 1183.492797851563 501.4649963378906 1182.110473632813 501.4649963378906 1180.713012695313 L 501.4649963378906 1166.568969726563 L 501.4649963378906 1151.295043945313 C 501.4649963378906 1148.362548828125 503.0532531738281 1145.644775390625 505.6100158691406 1144.202514648438 L 530.173095703125 1130.348510742188 C 532.17431640625 1129.2197265625 534.4461669921875 1128.623046875 536.7429809570313 1128.623046875 L 581.7739868164063 1128.623046875 L 626.8060302734375 1128.623046875 C 629.1029052734375 1128.623046875 631.3746948242188 1129.2197265625 633.3759155273438 1130.348510742188 L 657.9389038085938 1144.202514648438 C 660.4957275390625 1145.644775390625 662.083984375 1148.362548828125 662.083984375 1151.295043945313 L 662.083984375 1166.568969726563 L 662.083984375 1180.713012695313 C 662.083984375 1182.110473632813 661.7210083007813 1183.492797851563 661.0343017578125 1184.710571289063 C 660.3477172851563 1185.928100585938 659.3524169921875 1186.95458984375 658.1559448242188 1187.679077148438 L 633.5347900390625 1202.583251953125 C 631.4453125 1203.84765625 629.0504760742188 1204.515991210938 626.6090087890625 1204.515991210938 Z"/>
      <path class="cls-5" d="M 536.7429809570313 1130.123046875 C 534.698974609375 1130.123046875 532.6900024414063 1130.651000976563 530.9099731445313 1131.655029296875 L 506.3469848632813 1145.509033203125 C 504.2569580078125 1146.68798828125 502.9649658203125 1148.899047851563 502.9649658203125 1151.295043945313 L 502.9649658203125 1166.568969726563 L 502.9649658203125 1180.713012695313 C 502.9649658203125 1183.036010742188 504.1799926757813 1185.191040039063 506.1700439453125 1186.39599609375 L 530.791015625 1201.300048828125 C 532.64501953125 1202.421997070313 534.77099609375 1203.015991210938 536.9390258789063 1203.015991210938 L 581.7739868164063 1203.015991210938 L 626.6090087890625 1203.015991210938 C 628.7780151367188 1203.015991210938 630.9039916992188 1202.421997070313 632.7579956054688 1201.300048828125 L 657.3790283203125 1186.39599609375 C 659.3690185546875 1185.191040039063 660.583984375 1183.036010742188 660.583984375 1180.713012695313 L 660.583984375 1166.568969726563 L 660.583984375 1151.295043945313 C 660.583984375 1148.899047851563 659.2919921875 1146.68798828125 657.2020263671875 1145.509033203125 L 632.6389770507813 1131.655029296875 C 630.8590087890625 1130.651000976563 628.8499755859375 1130.123046875 626.8060302734375 1130.123046875 L 581.7739868164063 1130.123046875 L 536.7429809570313 1130.123046875 M 536.7429809570313 1127.123046875 L 581.7739868164063 1127.123046875 L 626.8060302734375 1127.123046875 C 629.360595703125 1127.123046875 631.88720703125 1127.78662109375 634.1128540039063 1129.042114257813 L 658.67578125 1142.89599609375 C 661.703369140625 1144.603881835938 663.583984375 1147.822143554688 663.583984375 1151.295043945313 L 663.583984375 1166.568969726563 L 663.583984375 1180.713012695313 C 663.583984375 1182.368041992188 663.1541748046875 1184.005249023438 662.3409423828125 1185.447387695313 C 661.5278930664063 1186.889038085938 660.3494262695313 1188.1044921875 658.932861328125 1188.962158203125 L 634.3115234375 1203.866455078125 C 631.9876098632813 1205.272827148438 629.32421875 1206.015991210938 626.6090087890625 1206.015991210938 L 581.7739868164063 1206.015991210938 L 536.9390258789063 1206.015991210938 C 534.2244262695313 1206.015991210938 531.5614013671875 1205.272827148438 529.2378540039063 1203.86669921875 L 504.6165161132813 1188.96240234375 C 503.1996459960938 1188.1044921875 502.0211181640625 1186.88916015625 501.2081298828125 1185.447387695313 C 500.3948364257813 1184.005249023438 499.9649658203125 1182.3681640625 499.9649658203125 1180.713012695313 L 499.9649658203125 1166.568969726563 L 499.9649658203125 1151.295043945313 C 499.9649658203125 1147.822143554688 501.8455810546875 1144.603759765625 504.873046875 1142.896118164063 L 529.4361572265625 1129.0419921875 C 531.6618041992188 1127.78662109375 534.1884765625 1127.123046875 536.7429809570313 1127.123046875 Z"/>
    </g>
    <g id="组_5637" data-name="组 5637">
      <g id="组_5628" data-name="组 5628">
        <path id="路径_14094" data-name="路径 14094" class="cls-2" d="M581.774,1197.6h40.608a11.274,11.274,0,0,0,5.569-1.461l22.3-12.691a5.594,5.594,0,0,0,2.9-4.839v-25.048a5.61,5.61,0,0,0-3.063-4.927l-22.247-11.8a11.29,11.29,0,0,0-5.283-1.3H540.989a11.29,11.29,0,0,0-5.283,1.3l-22.247,11.8a5.608,5.608,0,0,0-3.063,4.927v25.048a5.594,5.594,0,0,0,2.9,4.839l22.3,12.691a11.268,11.268,0,0,0,5.569,1.461Z"/>
      </g>
      <g id="组_5636" data-name="组 5636">
        <g id="组_5631" data-name="组 5631">
          <g id="组_5629" data-name="组 5629">
            <path id="路径_14095" data-name="路径 14095" class="cls-3" d="M613.3,1158.042v13.666a8.5,8.5,0,0,0,.135,1.965,1.274,1.274,0,0,0,.567.7,2.681,2.681,0,0,0,1.381.272h.382v.456h-8.8v-.456h.443a3.424,3.424,0,0,0,1.528-.247,1.262,1.262,0,0,0,.616-.678,7.478,7.478,0,0,0,.16-2.008v-8.663a5.469,5.469,0,0,0-.111-1.448,1.048,1.048,0,0,0-.412-.492,1.218,1.218,0,0,0-.7-.2,3.959,3.959,0,0,0-1.527.394l-.222-.443,6.148-2.81Z"/>
          </g>
          <g id="组_5630" data-name="组 5630">
            <path id="路径_14096" data-name="路径 14096" class="cls-3" d="M619.153,1158.042h7.824l-1.244,3.18h-6.58l-.629,1.663a10.414,10.414,0,0,1,6.543,2.12,5.076,5.076,0,0,1,1.885,4.017,6.029,6.029,0,0,1-3.339,5.28,7.682,7.682,0,0,1-3.487.8,5.457,5.457,0,0,1-3.142-.765,1.524,1.524,0,0,1-.764-1.232,1.293,1.293,0,0,1,.4-.936,1.264,1.264,0,0,1,.93-.407,2.613,2.613,0,0,1,.973.2,10.445,10.445,0,0,1,1.688,1.035,6.036,6.036,0,0,0,1.294.715,2.367,2.367,0,0,0,.863.148,2.294,2.294,0,0,0,1.719-.739,2.476,2.476,0,0,0,.708-1.775,4.041,4.041,0,0,0-2.169-3.524,10.156,10.156,0,0,0-5.47-1.355q-.333,0-1,.012Z"/>
          </g>
        </g>
        <g id="组_5632" data-name="组 5632">
          <path id="路径_14097" data-name="路径 14097" class="cls-3" d="M540.27,1175.275l4.642-14.077h-3.535a7.005,7.005,0,0,0-3.12.541,2.846,2.846,0,0,0-1.208,1.421h-.478l1.233-5.3h10.165l-5.724,17.411Z"/>
        </g>
        <g id="组_5633" data-name="组 5633">
          <path id="路径_14098" data-name="路径 14098" class="cls-3" d="M581.018,1165.45a9.313,9.313,0,0,1,2.456,2.419,4.81,4.81,0,0,1,.687,2.568,4.487,4.487,0,0,1-1.528,3.434,5.9,5.9,0,0,1-4.152,1.4,5.557,5.557,0,0,1-3.849-1.225,3.879,3.879,0,0,1-1.361-2.995,3.748,3.748,0,0,1,.786-2.363,6.892,6.892,0,0,1,2.617-1.856,10.289,10.289,0,0,1-2.555-2.488,4.356,4.356,0,0,1-.563-2.24,3.88,3.88,0,0,1,1.429-2.964,5.66,5.66,0,0,1,3.917-1.28A5.438,5.438,0,0,1,582.6,1159a3.491,3.491,0,0,1,1.293,2.716,3.348,3.348,0,0,1-.7,2.1A6.116,6.116,0,0,1,581.018,1165.45Zm-3.416,1.979a2.714,2.714,0,0,0-.544.632,4.95,4.95,0,0,0-.446,1.262,7.433,7.433,0,0,0-.2,1.732,5.544,5.544,0,0,0,.3,1.949,2.189,2.189,0,0,0,.847,1.133,2.1,2.1,0,0,0,1.133.346,2,2,0,0,0,1.521-.662,2.547,2.547,0,0,0,.619-1.813Q580.832,1169.608,577.6,1167.429Zm2.475-2.611a4.316,4.316,0,0,0,.681-1.385,6.044,6.044,0,0,0,.223-1.684,3.823,3.823,0,0,0-.693-2.462,1.732,1.732,0,0,0-1.436-.656,1.889,1.889,0,0,0-1.41.6,2.059,2.059,0,0,0-.582,1.491,3.377,3.377,0,0,0,.65,1.875A9.105,9.105,0,0,0,580.077,1164.818Z"/>
        </g>
        <g id="组_5634" data-name="组 5634">
          <path id="路径_14099" data-name="路径 14099" class="cls-3" d="M553.611,1165.76H559.7v-6.072h1.657v6.072h6.084v1.669h-6.084v6.021H559.7v-6.021h-6.084Z"/>
        </g>
        <g id="组_5635" data-name="组 5635">
          <rect id="矩形_2774" data-name="矩形 2774" class="cls-3" width="13.825" height="1.67" transform="translate(590.405 1169.089)"/>
          <rect id="矩形_2775" data-name="矩形 2775" class="cls-3" width="13.825" height="1.67" transform="translate(590.405 1162.381)"/>
        </g>
      </g>
    </g>
  </g>
</svg>
