<svg xmlns="http://www.w3.org/2000/svg" width="157.619" height="72.892" viewBox="0 0 157.619 72.892">
  <defs>
    <style>
      .cls-1 {
        fill: #ccd9ff;
      }

      .cls-2 {
        fill: #8ca6fd;
      }

      .cls-3 {
        fill: #fff;
      }
    </style>
  </defs>
  <g id="组_5593" data-name="组 5593" transform="translate(-502.965 -1019.262)">
    <g id="组_5584" data-name="组 5584">
      <path id="路径_14063" data-name="路径 14063" class="cls-1" d="M581.774,1092.154h44.835a11.868,11.868,0,0,0,6.149-1.716l24.621-14.9a6.642,6.642,0,0,0,3.2-5.683v-29.417a6.645,6.645,0,0,0-3.382-5.787l-24.563-13.854a11.872,11.872,0,0,0-5.833-1.531H536.743a11.872,11.872,0,0,0-5.833,1.531l-24.563,13.854a6.645,6.645,0,0,0-3.382,5.787v29.417a6.642,6.642,0,0,0,3.205,5.683l24.621,14.9a11.865,11.865,0,0,0,6.148,1.716Z"/>
      <path id="路径_14064" data-name="路径 14064" class="cls-2" d="M581.774,1086.741h40.608a11.275,11.275,0,0,0,5.569-1.461l22.3-12.69a5.6,5.6,0,0,0,2.9-4.839V1042.7a5.611,5.611,0,0,0-3.063-4.927l-22.247-11.8a11.3,11.3,0,0,0-5.283-1.3H540.989a11.3,11.3,0,0,0-5.283,1.3l-22.247,11.8a5.609,5.609,0,0,0-3.063,4.927v25.049a5.6,5.6,0,0,0,2.9,4.839l22.3,12.69a11.27,11.27,0,0,0,5.569,1.461Z"/>
    </g>
    <g id="组_5592" data-name="组 5592">
      <g id="组_5587" data-name="组 5587">
        <g id="组_5585" data-name="组 5585">
          <path id="路径_14065" data-name="路径 14065" class="cls-3" d="M613.3,1047.181v13.665a8.514,8.514,0,0,0,.135,1.966,1.281,1.281,0,0,0,.567.7,2.683,2.683,0,0,0,1.381.271h.382v.456h-8.8v-.456h.443a3.422,3.422,0,0,0,1.528-.247,1.264,1.264,0,0,0,.616-.677,7.494,7.494,0,0,0,.16-2.009v-8.662a5.465,5.465,0,0,0-.111-1.448,1.05,1.05,0,0,0-.412-.493,1.217,1.217,0,0,0-.7-.2,3.943,3.943,0,0,0-1.527.394l-.222-.444,6.148-2.809Z"/>
        </g>
        <g id="组_5586" data-name="组 5586">
          <path id="路径_14066" data-name="路径 14066" class="cls-3" d="M619.153,1047.181h7.824l-1.244,3.179h-6.58l-.629,1.664a10.42,10.42,0,0,1,6.543,2.119,5.076,5.076,0,0,1,1.885,4.017,6.026,6.026,0,0,1-3.339,5.28,7.682,7.682,0,0,1-3.487.8,5.465,5.465,0,0,1-3.142-.764,1.524,1.524,0,0,1-.764-1.232,1.3,1.3,0,0,1,.4-.937,1.263,1.263,0,0,1,.93-.406,2.613,2.613,0,0,1,.973.2,10.281,10.281,0,0,1,1.688,1.035,6.08,6.08,0,0,0,1.294.715,2.388,2.388,0,0,0,.863.147,2.294,2.294,0,0,0,1.719-.739,2.474,2.474,0,0,0,.708-1.774,4.04,4.04,0,0,0-2.169-3.524,10.146,10.146,0,0,0-5.47-1.356q-.333,0-1,.012Z"/>
        </g>
      </g>
      <g id="组_5588" data-name="组 5588">
        <path id="路径_14067" data-name="路径 14067" class="cls-3" d="M540.27,1064.414l4.642-14.078h-3.535a7.005,7.005,0,0,0-3.12.541,2.849,2.849,0,0,0-1.208,1.422h-.478l1.233-5.3h10.165l-5.724,17.412Z"/>
      </g>
      <g id="组_5589" data-name="组 5589">
        <path id="路径_14068" data-name="路径 14068" class="cls-3" d="M581.018,1054.588a9.328,9.328,0,0,1,2.456,2.419,4.813,4.813,0,0,1,.687,2.568,4.485,4.485,0,0,1-1.528,3.434,5.9,5.9,0,0,1-4.152,1.4,5.561,5.561,0,0,1-3.849-1.225,3.879,3.879,0,0,1-1.361-2.995,3.753,3.753,0,0,1,.786-2.364,6.905,6.905,0,0,1,2.617-1.856,10.307,10.307,0,0,1-2.555-2.487,4.359,4.359,0,0,1-.563-2.24,3.88,3.88,0,0,1,1.429-2.964A5.656,5.656,0,0,1,578.9,1047a5.438,5.438,0,0,1,3.694,1.133,3.49,3.49,0,0,1,1.293,2.716,3.345,3.345,0,0,1-.7,2.1A6.1,6.1,0,0,1,581.018,1054.588Zm-3.416,1.98a2.692,2.692,0,0,0-.544.631,4.967,4.967,0,0,0-.446,1.262,7.441,7.441,0,0,0-.2,1.733,5.551,5.551,0,0,0,.3,1.949,2.187,2.187,0,0,0,.847,1.132,2.1,2.1,0,0,0,1.133.347,2,2,0,0,0,1.521-.662,2.55,2.55,0,0,0,.619-1.813Q580.832,1058.746,577.6,1056.568Zm2.475-2.611a4.322,4.322,0,0,0,.681-1.386,6.038,6.038,0,0,0,.223-1.683,3.824,3.824,0,0,0-.693-2.463,1.732,1.732,0,0,0-1.436-.656,1.889,1.889,0,0,0-1.41.6,2.057,2.057,0,0,0-.582,1.491,3.381,3.381,0,0,0,.65,1.875A9.119,9.119,0,0,0,580.077,1053.957Z"/>
      </g>
      <g id="组_5590" data-name="组 5590">
        <path id="路径_14069" data-name="路径 14069" class="cls-3" d="M553.611,1054.9H559.7v-6.071h1.657v6.071h6.084v1.67h-6.084v6.021H559.7v-6.021h-6.084Z"/>
      </g>
      <g id="组_5591" data-name="组 5591">
        <rect id="矩形_2766" data-name="矩形 2766" class="cls-3" width="13.825" height="1.67" transform="translate(590.405 1058.227)"/>
        <rect id="矩形_2767" data-name="矩形 2767" class="cls-3" width="13.825" height="1.67" transform="translate(590.405 1051.519)"/>
      </g>
    </g>
  </g>
</svg>
