<svg xmlns="http://www.w3.org/2000/svg" width="143.29" height="66.266" viewBox="0 0 143.29 66.266">
  <defs>
    <style>
      .cls-1 {
        fill: #ccd9ff;
      }

      .cls-2 {
        fill: #8ca6fd;
      }

      .cls-3 {
        fill: #fff;
      }
    </style>
  </defs>
  <g id="组_5668" data-name="组 5668" transform="translate(-683.022 -915.027)">
    <g id="组_5563" data-name="组 5563">
      <path id="路径_14048" data-name="路径 14048" class="cls-1" d="M754.667,981.293h40.759a10.8,10.8,0,0,0,5.59-1.56l22.383-13.55a6.041,6.041,0,0,0,2.913-5.166V934.274a6.04,6.04,0,0,0-3.074-5.26l-22.331-12.595a10.787,10.787,0,0,0-5.3-1.392H713.729a10.791,10.791,0,0,0-5.3,1.392L686.1,929.014a6.038,6.038,0,0,0-3.074,5.26v26.743a6.039,6.039,0,0,0,2.913,5.166l22.383,13.55a10.8,10.8,0,0,0,5.59,1.56Z"/>
      <path id="路径_14049" data-name="路径 14049" class="cls-2" d="M754.667,976.372h36.916a10.26,10.26,0,0,0,5.063-1.328l20.272-11.537a5.088,5.088,0,0,0,2.638-4.4V936.336a5.1,5.1,0,0,0-2.784-4.479l-20.225-10.724a10.266,10.266,0,0,0-4.8-1.186H717.589a10.269,10.269,0,0,0-4.8,1.186l-20.224,10.724a5.1,5.1,0,0,0-2.785,4.479v22.771a5.089,5.089,0,0,0,2.639,4.4l20.272,11.537a10.26,10.26,0,0,0,5.063,1.328Z"/>
    </g>
    <g id="组_5573" data-name="组 5573">
      <g id="组_5566" data-name="组 5566">
        <g id="组_5564" data-name="组 5564">
          <path id="路径_14050" data-name="路径 14050" class="cls-3" d="M786.2,940.408v12.423a7.723,7.723,0,0,0,.123,1.787,1.155,1.155,0,0,0,.516.632,2.428,2.428,0,0,0,1.255.247h.347v.414h-8V955.5h.4a3.132,3.132,0,0,0,1.389-.224,1.153,1.153,0,0,0,.56-.616,6.828,6.828,0,0,0,.145-1.826v-7.875a5.006,5.006,0,0,0-.1-1.317.965.965,0,0,0-.376-.448,1.108,1.108,0,0,0-.633-.184,3.581,3.581,0,0,0-1.388.358l-.2-.4,5.589-2.554Z"/>
        </g>
        <g id="组_5565" data-name="组 5565">
          <path id="路径_14051" data-name="路径 14051" class="cls-3" d="M791.518,940.408h7.114L797.5,943.3h-5.982l-.571,1.512a9.467,9.467,0,0,1,5.948,1.927,4.614,4.614,0,0,1,1.714,3.652,5.48,5.48,0,0,1-3.036,4.8,6.982,6.982,0,0,1-3.17.722,4.962,4.962,0,0,1-2.856-.694,1.387,1.387,0,0,1-.7-1.12,1.18,1.18,0,0,1,.364-.852,1.154,1.154,0,0,1,.846-.369,2.382,2.382,0,0,1,.885.179,9.391,9.391,0,0,1,1.534.941,5.547,5.547,0,0,0,1.177.65,2.17,2.17,0,0,0,.784.134,2.086,2.086,0,0,0,1.563-.672,2.25,2.25,0,0,0,.644-1.613,3.673,3.673,0,0,0-1.972-3.2,9.234,9.234,0,0,0-4.974-1.232c-.2,0-.5,0-.907.011Z"/>
        </g>
      </g>
      <g id="组_5570" data-name="组 5570" transform="translate(0 -0.218)">
        <g id="组_5568" data-name="组 5568">
          <path id="路径_14053" data-name="路径 14053" class="cls-3" d="M716.787,940.245v12.684a7.869,7.869,0,0,0,.125,1.824,1.182,1.182,0,0,0,.526.646,2.488,2.488,0,0,0,1.282.252h.354v.423h-8.166v-.423h.412a3.18,3.18,0,0,0,1.418-.229,1.178,1.178,0,0,0,.572-.629,6.971,6.971,0,0,0,.148-1.864v-8.04a5.052,5.052,0,0,0-.1-1.344.97.97,0,0,0-.383-.458,1.127,1.127,0,0,0-.646-.188,3.683,3.683,0,0,0-1.418.365l-.206-.411,5.707-2.608Z"/>
        </g>
        <g id="组_5569" data-name="组 5569">
          <path id="路径_14054" data-name="路径 14054" class="cls-3" d="M728.586,956.074H719.46v-.252a50.441,50.441,0,0,0,5.095-6.725,7.282,7.282,0,0,0,.9-3.374,2.806,2.806,0,0,0-.744-1.995,2.393,2.393,0,0,0-1.818-.8,3.006,3.006,0,0,0-2.734,1.761l-.423-.149a6.343,6.343,0,0,1,1.876-3.248,4.4,4.4,0,0,1,2.905-1.052,4.3,4.3,0,0,1,2.15.549,3.981,3.981,0,0,1,1.521,1.5,3.622,3.622,0,0,1,.549,1.79,6.465,6.465,0,0,1-.846,3.088,29.291,29.291,0,0,1-5.044,5.9H726.2a7.62,7.62,0,0,0,1.607-.1,1.324,1.324,0,0,0,.612-.348,4.549,4.549,0,0,0,.629-1.035h.412Z"/>
        </g>
      </g>
      <g id="组_5571" data-name="组 5571" transform="translate(1)">
        <path id="路径_14055" data-name="路径 14055" class="cls-3" d="M731.935,947.424h5.531V941.9h1.506v5.52H744.5v1.517h-5.531v5.474h-1.506v-5.474h-5.531Z"/>
      </g>
      <g id="组_5572" data-name="组 5572">
        <rect id="矩形_2762" data-name="矩形 2762" class="cls-3" width="12.568" height="1.518" transform="translate(765.384 950.45)"/>
        <rect id="矩形_2763" data-name="矩形 2763" class="cls-3" width="12.568" height="1.518" transform="translate(765.384 944.352)"/>
      </g>
      <path id="路径_26413" data-name="路径 26413" class="cls-3" d="M3.573-15.09v-.392a7.333,7.333,0,0,0,1.77-.689,2.628,2.628,0,0,0,.851-.975,2.739,2.739,0,0,0,.358-1.327,2.16,2.16,0,0,0-.678-1.6,2.309,2.309,0,0,0-1.686-.667,3.168,3.168,0,0,0-2.666,1.658l-.414-.146a6.73,6.73,0,0,1,2.067-2.812,4.579,4.579,0,0,1,2.806-.941,3.652,3.652,0,0,1,2.6.963,3,3,0,0,1,1.025,2.252,3.06,3.06,0,0,1-.476,1.619,4.136,4.136,0,0,1-1.5,1.372,5.3,5.3,0,0,1,2,1.574,3.851,3.851,0,0,1,.689,2.347,5.409,5.409,0,0,1-1.72,4.038A6.349,6.349,0,0,1,4-7.147a4.871,4.871,0,0,1-2.812-.639A1.357,1.357,0,0,1,.548-8.94a1.189,1.189,0,0,1,.37-.879,1.179,1.179,0,0,1,.851-.364,1.577,1.577,0,0,1,.695.157,14.38,14.38,0,0,1,1.271.98,3.328,3.328,0,0,0,2.044.891A1.855,1.855,0,0,0,7.2-8.811,2.383,2.383,0,0,0,7.8-10.475,4.331,4.331,0,0,0,6.72-13.3,5.637,5.637,0,0,0,3.573-15.09Z" transform="translate(749.022 963.003)"/>
    </g>
  </g>
</svg>
