<svg xmlns="http://www.w3.org/2000/svg" width="294.374" height="205.145" viewBox="0 0 294.374 205.145">
  <defs>
    <style>
      .cls-1 {
        fill: #ca8f3f;
      }

      .cls-2 {
        fill: #eaad59;
      }

      .cls-3 {
        fill: #e19a3b;
      }

      .cls-4 {
        fill: #ffeac2;
      }

      .cls-5, .cls-6 {
        isolation: isolate;
      }

      .cls-6 {
        fill: #854c2b;
        font-size: 42px;
        font-family: TimesNewRomanPS-BoldMT, Times New Roman;
        font-weight: 700;
        letter-spacing: 0.049em;
      }
    </style>
  </defs>
  <g id="组_6997" data-name="组 6997" transform="translate(834.65 254.475)">
    <path id="路径_14137" data-name="路径 14137" class="cls-1" d="M-577.536-253.984s29.034-3.4,36.876,27.1c.581,20.332,0,113.855,0,113.855L-546.178-111s6.907,34.563,5.777,38.048-6.066,23.526-26.107,23.526H-809.9s-24.749-5.808-24.749-22.364S-577.536-253.984-577.536-253.984Z" transform="translate(0 0.098)"/>
    <path id="路径_14138" data-name="路径 14138" class="cls-2" d="M-551.889-92.8c.079,1.379.1,2.7.069,3.969-.6,26.912-24.075,31.855-24.075,31.855H-818.265a16.367,16.367,0,0,1-16.374-16.335c-.03-16.591-.02-42.105.268-58.31v-.208c.128-7.016.307-12.266.555-14.22-.9-3.632-.863-20.761-.625-36.34v-.05c.229-14.31.625-27.309.625-27.309l-.228-10.072-.05-2.431a25.058,25.058,0,0,1,24.1-25.612c46.432-1.747,144.218-5.349,166.9-5.647,25.751,11.234,24.977-.962,24.977-.962l45.618.665a21.05,21.05,0,0,1,20.751,20.9l.1,13.089.118,16.264.536,71.728.069,9.408s-6.588,6-7.165,6.391S-554.8-109.454-551.889-92.8Z" transform="translate(0 0)"/>
    <path id="路径_14139" data-name="路径 14139" class="cls-3" d="M-551.566-210.677-834.086-184.24s-.169-2.054-.4-5.27v-.05c.229-14.31.625-27.309.625-27.309l-.228-10.072c3.75,3.781,282.4,0,282.4,0Z" transform="translate(0.043 7.118)"/>
    <path id="路径_14140" data-name="路径 14140" class="cls-3" d="M-551.946-118c.079,1.379.1,2.7.069,3.969-5.4,0-282.551-27.587-282.551-27.587v-15.411h283.384l.069,9.408s-6.588,6-7.165,6.391S-554.855-134.648-551.946-118Z" transform="translate(0.057 25.194)"/>
    <path id="路径_14141" data-name="路径 14141" class="cls-4" d="M-807.271-232.478s1.162,14.91-6.583,44.536,8.133,105.14,7.745,107.658c8.327-1.549,101.075-4.066,124.7,2.9s99.331-8.907,99.331-8.907-13.941-16.262,2.711-75.126c6.971-26.529-2.9-71.064-2.9-71.064S-700.967-220.085-807.271-232.478Z" transform="translate(4.572 5.607)"/>
    <g id="_5_3_1" data-name=" 5 3 1" class="cls-5" transform="translate(-742.414 -175.87)">
      <text id="_8:30" data-name="8:30" class="cls-6" transform="translate(13 41)"><tspan x="0" y="0">8:30</tspan></text>
    </g>
  </g>
</svg>
