<svg xmlns="http://www.w3.org/2000/svg" width="290.417" height="377.876" viewBox="0 0 290.417 377.876">
  <defs>
    <style>
      .cls-1 {
        fill: #f69b39;
      }

      .cls-2 {
        fill: #d0680c;
      }

      .cls-3 {
        fill: #af3e13;
      }

      .cls-4 {
        fill: #fffeff;
      }

      .cls-5 {
        fill: #b6b9c7;
      }

      .cls-6 {
        fill: #ece7e6;
      }

      .cls-7 {
        fill: #9aaab5;
      }

      .cls-8 {
        fill: #fec1c3;
      }

      .cls-9 {
        fill: #f8696c;
      }

      .cls-10 {
        fill: none;
        stroke: #f8696c;
        stroke-linecap: round;
        stroke-linejoin: round;
        stroke-width: 2.69px;
      }

      .cls-11 {
        fill: #fff;
      }

      .cls-12 {
        fill: #2b71b0;
      }

      .cls-13 {
        fill: #e7ffff;
      }

      .cls-14 {
        fill: #9ea1af;
      }

      .cls-15 {
        fill: #fcb2a9;
      }

      .cls-16 {
        fill: #93e0f7;
      }

      .cls-17 {
        fill: #63bcdf;
      }

      .cls-18 {
        fill: #53a8d6;
      }
    </style>
  </defs>
  <g id="组_6649" data-name="组 6649" transform="translate(1965.485 928.273)">
    <path id="路径_16977" data-name="路径 16977" class="cls-1" d="M-1820.277-748.153l96.681,5.773s.753,3.012,4.016-15.31,6.024-61.492,6.024-61.492,9.705,7.079,9.705-.785,2.128-20.054-9.872-20.047a16.456,16.456,0,0,0-9.873,3.681s-7.362-6.191-12.214-3.681c-5.1-4.518-42.6-22.924-84.467-23.259-41.864.335-79.362,18.741-84.466,23.259-4.852-2.51-12.215,3.681-12.215,3.681a16.452,16.452,0,0,0-9.872-3.681c-11.915-.007-9.872,12.183-9.872,20.047s9.705.785,9.705.785,2.761,43.17,6.024,61.492,4.015,15.31,4.015,15.31Z"/>
    <path id="路径_16978" data-name="路径 16978" class="cls-2" d="M-1820.277-740.153l96.681,5.773s.753,3.012,4.016-15.31,6.024-61.492,6.024-61.492,9.705-.921,9.705-8.785-4.183-12.047-9.872-12.047a16.435,16.435,0,0,0-9.873,3.681s-7.362-6.191-12.214-3.681c-5.1-4.518-42.6-22.924-84.467-23.259-41.864.335-79.362,18.741-84.466,23.259-4.852-2.51-12.215,3.681-12.215,3.681a16.431,16.431,0,0,0-9.872-3.681c-5.689,0-9.872,4.183-9.872,12.047s9.705,8.785,9.705,8.785,2.761,43.17,6.024,61.492,4.015,15.31,4.015,15.31Z"/>
    <path id="路径_16979" data-name="路径 16979" class="cls-3" d="M-1900.737-735.348s-4.135,1.2-7.454-19.226-11.235-60,2.042-68.681a52.008,52.008,0,0,1,12.766-4.085S-1862.562-847-1820.27-847s77.015,21.191,77.015,21.191,5.617-2.808,11.744,3.575,6.894,11.489,6.639,16.851-2.554,68.351-12.766,70.048S-1900.737-735.348-1900.737-735.348Z"/>
    <path id="路径_16980" data-name="路径 16980" class="cls-4" d="M-1819.2-732.617h79.8s9.642-30.958-2.043-70.117c7.405-5.457,8.681-10.819,4.341-15.415s-13.022,1.277-13.022,1.277-24.021-8.171-69.074-8.171-69.075,8.171-69.075,8.171-8.68-5.873-13.021-1.277-3.064,9.958,4.341,15.415c-11.685,39.159-2.043,70.117-2.043,70.117Z"/>
    <g id="组_3940" data-name="组 3940" transform="translate(-1950.698 -928.273)">
      <path id="路径_10871" data-name="路径 10871" class="cls-5" d="M389.149,639.9S383,653.967,380.041,658.99s-5.927,9.587-5.187,12.1,5.1,6.849,7.09,4.564,9.581-18.033,10.136-18.955-2.593,19.862,0,24.885,27.788,10.5,35.755,5.479,10.93-6.392,11.485-12.783,0-22.823,0-22.823,6.669,18.718,9.449,20.09,7.966-2.741,7.226-5.707S442.1,640.277,442.1,640.277,426.056,615.555,389.149,639.9Z" transform="translate(-281.976 -466.511)"/>
      <path id="路径_10872" data-name="路径 10872" class="cls-5" d="M389.38,666.762s1.74,3.619-1.97,8.413-3.891,9.36,0,10.273,15,.456,15.932-2.968.741-15.718.741-15.718Z" transform="translate(-277.675 -450.05)"/>
      <path id="路径_10873" data-name="路径 10873" class="cls-5" d="M420.707,666.762s-1.74,3.619,1.971,8.413,3.89,9.36,0,10.273-15.008.456-15.931-2.968S406,666.762,406,666.762Z" transform="translate(-268.289 -450.05)"/>
      <ellipse id="椭圆_1892" data-name="椭圆 1892" class="cls-6" cx="16.724" cy="20.61" rx="16.724" ry="20.61" transform="translate(116.95 168.56)"/>
      <path id="路径_10874" data-name="路径 10874" class="cls-7" d="M420.362,660.547s1.621,7.249,8.152,3.824a10.726,10.726,0,0,1,14.568,4.223q.239.436.437.89a15.4,15.4,0,0,1,1.945,7.9,5.629,5.629,0,0,1-2.918-3.08c-1.25-2.568-5-9.285-11.531-4.818s-12.559-.72-12.95-2.747S420.362,660.547,420.362,660.547Z" transform="translate(-263.018 -452.772)"/>
      <circle id="椭圆_1893" data-name="椭圆 1893" class="cls-5" cx="49.237" cy="49.237" r="49.237"/>
      <circle id="椭圆_1894" data-name="椭圆 1894" class="cls-8" cx="38.499" cy="38.499" r="38.499" transform="translate(10.738 10.738)"/>
      <circle id="椭圆_1895" data-name="椭圆 1895" class="cls-5" cx="49.237" cy="49.237" r="49.237" transform="translate(158.838)"/>
      <circle id="椭圆_1896" data-name="椭圆 1896" class="cls-8" cx="38.499" cy="38.499" r="38.499" transform="translate(169.576 10.738)"/>
      <path id="路径_10875" data-name="路径 10875" class="cls-5" d="M431.911,531.226s-6.889,10.534,0,15.4c4.862-.674,32.013,2.837,48.627,23.91s17.021,35.661,16.617,38.091-3.483,11.754.082,20.669,13.563,36.278-15.888,48.223c-36.672,14.875-118.369,11.8-130.327-11.512s-.567-39.142.65-41.574-6.35-43.631,30.19-66.053a149.513,149.513,0,0,1,25.462-11.347s-2.26-8.208,1.589-11.55l3.648-1.934s.1,7.093,1.52,8.511S416.207,528.592,431.911,531.226Z" transform="translate(-294.735 -509.545)"/>
      <path id="路径_10876" data-name="路径 10876" class="cls-9" d="M391.542,607.805s-1.215-7.293,12.158-6.482,14.588.193,14.993,4.659-7.295,16.827-11.347,17.629S395.8,623.813,391.542,607.805Z" transform="translate(-274.63 -478.736)"/>
      <line id="直线_142" data-name="直线 142" class="cls-10" x2="0.13" y2="12.309" transform="translate(129.396 145.08)"/>
      <path id="路径_10877" data-name="路径 10877" class="cls-6" d="M396.531,624.56l-.418,8.806s3.444.81,4.761,0,1.485-7.7,1.485-7.7.946,7.608,1.859,8.06,4.448.562,4.659,0,0-9.166,0-9.166A35.326,35.326,0,0,1,396.531,624.56Z" transform="translate(-272.615 -468.532)"/>
      <path id="路径_10878" data-name="路径 10878" class="cls-10" d="M384.77,619.434s18.64,17.562,47.684,0" transform="translate(-277.583 -470.777)"/>
      <circle id="椭圆_1897" data-name="椭圆 1897" class="cls-11" cx="14.734" cy="14.734" r="14.734" transform="translate(155.526 98.889)"/>
      <circle id="椭圆_1898" data-name="椭圆 1898" class="cls-12" cx="11.456" cy="11.456" r="11.456" transform="translate(157.192 105.195)"/>
      <circle id="椭圆_1899" data-name="椭圆 1899" class="cls-13" cx="4.539" cy="4.539" r="4.539" transform="translate(171.91 110.156)"/>
      <circle id="椭圆_1900" data-name="椭圆 1900" class="cls-11" cx="14.734" cy="14.734" r="14.734" transform="translate(78.74 98.638)"/>
      <circle id="椭圆_1901" data-name="椭圆 1901" class="cls-12" cx="11.456" cy="11.456" r="11.456" transform="translate(83.631 104.943)"/>
      <circle id="椭圆_1902" data-name="椭圆 1902" class="cls-13" cx="4.539" cy="4.539" r="4.539" transform="translate(81.426 109.902)"/>
      <path id="路径_10879" data-name="路径 10879" class="cls-14" d="M423.49,573.181s-4.968-4.479,3.146-4.706,14.254,4.578,14.653,8.071-4.23,2.677-6.346,1.354-5.818-3.033-7.611-2.869S423.49,573.181,423.49,573.181Z" transform="translate(-261.284 -493.098)"/>
      <path id="路径_10880" data-name="路径 10880" class="cls-14" d="M382.981,573s4.373-5.062-3.7-4.278-13.577,6.313-13.538,9.828,4.53,2.128,6.465.555,5.4-3.733,7.2-3.791S382.981,573,382.981,573Z" transform="translate(-285.917 -493.021)"/>
      <path id="路径_10881" data-name="路径 10881" class="cls-15" d="M432.937,628.429a23.569,23.569,0,0,0,7.889,17.6c.774-.283,1.547-.559,2.276-.857,22.822-9.255,21.953-27.762,18.749-39.778a23.6,23.6,0,0,0-28.914,23.04Z" transform="translate(-256.488 -477.194)"/>
      <path id="路径_10882" data-name="路径 10882" class="cls-15" d="M378.35,628.429a23.61,23.61,0,0,0-32.217-22.022,42.817,42.817,0,0,0,4.875,27.248c2.815,5.493,9.539,9.847,18.6,13.123A23.6,23.6,0,0,0,378.35,628.429Z" transform="translate(-294.72 -477.194)"/>
    </g>
    <path id="路径_16981" data-name="路径 16981" class="cls-16" d="M-1926.574-717.553s-5.362-5.873,5.361-13.277,65.894-17.511,98.564-17.181,84.5,6.713,105.181,18.968c7.915,4.6,5.362,14.043,5.362,14.043s-46.213-19.2-110.043-19.2S-1926.574-717.553-1926.574-717.553Z"/>
    <path id="路径_16982" data-name="路径 16982" class="cls-17" d="M-1926.574-717.553l-23.745,72.265,257.362.5L-1712.106-715S-1824.191-768.362-1926.574-717.553Z"/>
    <rect id="矩形_3657" data-name="矩形 3657" class="cls-2" width="48.801" height="48.801" rx="7.589" transform="translate(-1941.481 -599.199)"/>
    <rect id="矩形_3658" data-name="矩形 3658" class="cls-2" width="48.801" height="48.801" rx="7.589" transform="translate(-1748.678 -599.199)"/>
    <path id="路径_16983" data-name="路径 16983" class="cls-18" d="M-1675.068-560.351c-38.305-.2-30.456-9.574-63.756-9.181h-.259c-19.012.25-27.143,2.65-37.342,4.945-7.826,1.771-16.9,3.489-33.065,4.145-37.2,1.482-32.383-14.441-66.788-14.441-2.232,0-4.371.053-6.392.171-18.354.97-28.623,6.059-37.6,9.85-5.311,2.242-10.176,4.039-16,4.262a177.644,177.644,0,0,1-29.211-1.115l14.006-83.494h259.608S-1680.684-578.909-1675.068-560.351Z"/>
  </g>
</svg>
