<svg xmlns="http://www.w3.org/2000/svg" width="171.539" height="79.329" viewBox="0 0 171.539 79.329">
  <defs>
    <style>
      .cls-1 {
        fill: #ccd9ff;
      }

      .cls-2 {
        fill: #8ca6fd;
      }

      .cls-3, .cls-4 {
        isolation: isolate;
      }

      .cls-4 {
        fill: #fff;
        font-size: 31.29px;
        font-family: MicrosoftYaHei-Bold, Microsoft YaHei;
        font-weight: 700;
        letter-spacing: 0.049em;
      }
    </style>
  </defs>
  <g id="组_3898" data-name="组 3898" transform="translate(-1033.607 -451.189)">
    <path id="路径_6991" data-name="路径 6991" class="cls-1" d="M1119.376,530.518h48.794a12.933,12.933,0,0,0,6.693-1.867l26.795-16.22a7.231,7.231,0,0,0,3.488-6.185V474.23a7.232,7.232,0,0,0-3.681-6.3l-26.732-15.077a12.931,12.931,0,0,0-6.348-1.666h-98.017a12.931,12.931,0,0,0-6.348,1.666l-26.733,15.077a7.234,7.234,0,0,0-3.68,6.3v32.016a7.231,7.231,0,0,0,3.488,6.185l26.8,16.22a12.932,12.932,0,0,0,6.692,1.867Z"/>
    <path id="路径_6992" data-name="路径 6992" class="cls-2" d="M1119.376,524.627h44.194a12.282,12.282,0,0,0,6.061-1.589l24.268-13.812a6.09,6.09,0,0,0,3.156-5.266V476.7a6.105,6.105,0,0,0-3.333-5.361l-24.21-12.837a12.282,12.282,0,0,0-5.75-1.42H1074.99a12.27,12.27,0,0,0-5.75,1.42l-24.212,12.838a6.1,6.1,0,0,0-3.334,5.362V503.96a6.089,6.089,0,0,0,3.16,5.266l24.268,13.812a12.282,12.282,0,0,0,6.061,1.589Z"/>
    <g id="_5_3_1" data-name=" 5 3 1" class="cls-3">
      <text id="转动分针" class="cls-4" transform="translate(1054.455 501.039)"><tspan x="0" y="0">转动分针</tspan></text>
    </g>
  </g>
</svg>
