<svg xmlns="http://www.w3.org/2000/svg" width="656.78" height="657.212" viewBox="0 0 656.78 657.212">
  <defs>
    <style>
      .cls-1 {
        fill: #aa6a32;
      }

      .cls-2 {
        fill: #eeb896;
      }

      .cls-3 {
        fill: #fff;
      }

      .cls-4 {
        fill: #ebb6a2;
      }

      .cls-5 {
        fill: #5fb2d6;
      }

      .cls-6 {
        fill: #b6b9c7;
      }

      .cls-7 {
        fill: #ece7e6;
      }

      .cls-8 {
        fill: #9aaab5;
      }

      .cls-9 {
        fill: #fec1c3;
      }

      .cls-10 {
        fill: #f8696c;
      }

      .cls-11 {
        fill: none;
        stroke: #f8696c;
        stroke-linecap: round;
        stroke-linejoin: round;
        stroke-width: 2.69px;
      }

      .cls-12 {
        fill: #2b71b0;
      }

      .cls-13 {
        fill: #e7ffff;
      }

      .cls-14 {
        fill: #9ea1af;
      }

      .cls-15 {
        fill: #fcb2a9;
      }
    </style>
  </defs>
  <g id="组_3893" data-name="组 3893" transform="translate(-325.098 -31.83)">
    <path id="路径_10615" data-name="路径 10615" class="cls-1" d="M653.488,31.83c-181.364,0-328.39,147.027-328.39,328.39s147.026,328.39,328.39,328.39,328.39-147.026,328.39-328.39S834.856,31.83,653.488,31.83Zm0,584.864c-141.647,0-256.474-114.827-256.474-256.474S511.841,103.746,653.488,103.746,909.962,218.574,909.962,360.22,795.134,616.694,653.488,616.694Z"/>
    <path id="路径_10616" data-name="路径 10616" class="cls-2" d="M653.488,45.714c-173.7,0-314.506,140.811-314.506,314.506s140.81,314.506,314.506,314.506S967.994,533.916,967.994,360.22,827.188,45.714,653.488,45.714Zm0,560.136c-135.658,0-245.63-109.972-245.63-245.63S517.83,114.59,653.488,114.59s245.63,109.973,245.63,245.63S789.145,605.85,653.488,605.85Z"/>
    <path id="路径_10617" data-name="路径 10617" class="cls-3" d="M378.57,360.22c-.022,151.833,123.046,274.936,274.879,274.957S928.384,512.131,928.406,360.3v-.078C928.427,208.387,805.36,85.285,653.527,85.263S378.592,208.309,378.57,360.142Z"/>
    <path id="路径_10618" data-name="路径 10618" class="cls-4" d="M643.856,53h19.268v63.967H643.856Zm0,550.484h19.268v63.967H643.856Z"/>
    <path id="路径_10619" data-name="路径 10619" class="cls-4" d="M508.226,89.325l31.98,55.4-16.677,9.631L491.543,98.962ZM783.477,566.056l31.987,55.394-16.69,9.631-31.98-55.394Z"/>
    <path id="路径_10620" data-name="路径 10620" class="cls-4" d="M392.237,198.255l55.393,31.98L438,246.925l-55.394-31.987ZM868.949,473.494l55.4,31.98-9.637,16.689-55.394-31.986Z"/>
    <path id="路径_10621" data-name="路径 10621" class="cls-4" d="M346.268,350.588h63.967v19.268H346.268Zm550.478,0h63.967v19.268H896.746Z"/>
    <path id="路径_10622" data-name="路径 10622" class="cls-4" d="M437.987,473.565l9.637,16.689-55.406,31.98-9.631-16.683Zm476.77-275.233,9.637,16.69L868.988,247l-9.631-16.683Z"/>
    <path id="路径_10623" data-name="路径 10623" class="cls-4" d="M523.491,566.05l16.683,9.631-31.98,55.4-16.69-9.638ZM798.716,89.344,815.4,98.975l-31.981,55.4-16.689-9.637Z"/>
    <path id="路径_10624" data-name="路径 10624" class="cls-5" d="M633.515,360.22a19.973,19.973,0,1,0,19.973-19.972A19.973,19.973,0,0,0,633.515,360.22Z"/>
    <path id="路径_10625" data-name="路径 10625" class="cls-3" d="M645.2,360.22a8.288,8.288,0,0,0,16.576.006v-.006a8.288,8.288,0,1,0-16.576-.006Z"/>
    <g id="组_3940" data-name="组 3940" transform="translate(15 9)">
      <path id="路径_10871" data-name="路径 10871" class="cls-6" d="M384.76,636.633s-4.273,9.784-6.334,13.277-4.122,6.667-3.607,8.415,3.548,4.763,4.931,3.174,6.663-12.541,7.049-13.182-1.8,13.813,0,17.306,19.325,7.3,24.865,3.81,7.6-4.445,7.987-8.89,0-15.872,0-15.872,4.638,13.017,6.571,13.971,5.54-1.906,5.025-3.969-9.662-17.777-9.662-17.777S410.427,619.7,384.76,636.633Z"/>
      <path id="路径_10872" data-name="路径 10872" class="cls-6" d="M387.912,666.762s1.21,2.517-1.37,5.851-2.706,6.509,0,7.144,10.435.317,11.08-2.064.515-10.931.515-10.931Z"/>
      <path id="路径_10873" data-name="路径 10873" class="cls-6" d="M416.225,666.762s-1.21,2.517,1.371,5.851,2.7,6.509,0,7.144-10.437.317-11.079-2.064S406,666.762,406,666.762Z"/>
      <ellipse id="椭圆_1892" data-name="椭圆 1892" class="cls-7" cx="11.631" cy="14.333" rx="11.631" ry="14.333" transform="translate(391.56 633.276)"/>
      <path id="路径_10874" data-name="路径 10874" class="cls-8" d="M419.651,660.547s1.127,5.041,5.669,2.659a7.459,7.459,0,0,1,10.131,2.937q.167.3.3.619a10.708,10.708,0,0,1,1.353,5.493,3.914,3.914,0,0,1-2.029-2.142c-.869-1.786-3.479-6.457-8.019-3.351s-8.734-.5-9.006-1.91S419.651,660.547,419.651,660.547Z"/>
      <circle id="椭圆_1893" data-name="椭圆 1893" class="cls-6" cx="34.241" cy="34.241" r="34.241" transform="translate(310.228 516.053)"/>
      <circle id="椭圆_1894" data-name="椭圆 1894" class="cls-9" cx="26.773" cy="26.773" r="26.773" transform="translate(317.696 523.521)"/>
      <circle id="椭圆_1895" data-name="椭圆 1895" class="cls-6" cx="34.241" cy="34.241" r="34.241" transform="translate(420.689 516.053)"/>
      <circle id="椭圆_1896" data-name="椭圆 1896" class="cls-9" cx="26.773" cy="26.773" r="26.773" transform="translate(428.157 523.521)"/>
      <path id="路径_10875" data-name="路径 10875" class="cls-6" d="M405.625,531.131s-4.791,7.326,0,10.708c3.381-.469,22.263,1.973,33.817,16.628s11.837,24.8,11.556,26.49-2.422,8.174.057,14.374,9.432,25.229-11.049,33.536c-25.5,10.345-82.318,8.205-90.634-8.006s-.394-27.221.452-28.912-4.416-30.343,20.995-45.936a103.979,103.979,0,0,1,17.707-7.891s-1.572-5.708,1.105-8.032l2.537-1.345s.069,4.933,1.057,5.919S394.7,529.3,405.625,531.131Z"/>
      <path id="路径_10876" data-name="路径 10876" class="cls-10" d="M391.533,605.812s-.845-5.072,8.455-4.508,10.145.134,10.427,3.24-5.073,11.7-7.891,12.26S394.492,616.944,391.533,605.812Z"/>
      <line id="直线_142" data-name="直线 142" class="cls-11" x2="0.09" y2="8.56" transform="translate(400.215 616.947)"/>
      <path id="路径_10877" data-name="路径 10877" class="cls-7" d="M396.4,624.56l-.291,6.124s2.395.563,3.311,0,1.033-5.355,1.033-5.355.658,5.291,1.293,5.605,3.093.391,3.24,0,0-6.374,0-6.374A24.566,24.566,0,0,1,396.4,624.56Z"/>
      <path id="路径_10878" data-name="路径 10878" class="cls-11" d="M384.77,619.434s12.963,12.213,33.161,0"/>
      <circle id="椭圆_1897" data-name="椭圆 1897" class="cls-3" cx="10.247" cy="10.247" r="10.247" transform="translate(418.387 584.824)"/>
      <circle id="椭圆_1898" data-name="椭圆 1898" class="cls-12" cx="7.967" cy="7.967" r="7.967" transform="translate(419.545 589.209)"/>
      <circle id="椭圆_1899" data-name="椭圆 1899" class="cls-13" cx="3.157" cy="3.157" r="3.157" transform="translate(429.781 592.659)"/>
      <circle id="椭圆_1900" data-name="椭圆 1900" class="cls-3" cx="10.247" cy="10.247" r="10.247" transform="translate(364.987 584.649)"/>
      <circle id="椭圆_1901" data-name="椭圆 1901" class="cls-12" cx="7.967" cy="7.967" r="7.967" transform="translate(368.388 589.034)"/>
      <circle id="椭圆_1902" data-name="椭圆 1902" class="cls-13" cx="3.157" cy="3.157" r="3.157" transform="translate(366.855 592.483)"/>
      <path id="路径_10879" data-name="路径 10879" class="cls-14" d="M423.032,571.745s-3.455-3.115,2.188-3.273,9.913,3.184,10.19,5.613-2.942,1.862-4.413.942-4.046-2.109-5.293-1.995S423.032,571.745,423.032,571.745Z"/>
      <path id="路径_10880" data-name="路径 10880" class="cls-14" d="M377.73,571.675s3.041-3.52-2.576-2.975-9.442,4.39-9.415,6.835,3.15,1.48,4.5.386,3.753-2.6,5-2.636S377.73,571.675,377.73,571.675Z"/>
      <path id="路径_10881" data-name="路径 10881" class="cls-15" d="M432.937,621.227a16.391,16.391,0,0,0,5.486,12.24c.538-.2,1.076-.389,1.583-.6,15.871-6.436,15.267-19.307,13.039-27.663a16.41,16.41,0,0,0-20.108,16.023Z"/>
      <path id="路径_10882" data-name="路径 10882" class="cls-15" d="M368.387,621.227a16.419,16.419,0,0,0-22.4-15.315,29.777,29.777,0,0,0,3.39,18.949c1.958,3.82,6.634,6.848,12.937,9.126A16.409,16.409,0,0,0,368.387,621.227Z"/>
    </g>
  </g>
</svg>
