<svg xmlns="http://www.w3.org/2000/svg" width="171.539" height="79.329" viewBox="0 0 171.539 79.329">
  <defs>
    <style>
      .cls-1 {
        fill: #ccd9ff;
      }

      .cls-2 {
        fill: #8ca6fd;
      }

      .cls-3, .cls-4 {
        isolation: isolate;
      }

      .cls-4 {
        fill: #fff;
        font-size: 31.29px;
        font-family: MicrosoftYaHei-Bold, Microsoft YaHei;
        font-weight: 700;
        letter-spacing: 0.049em;
      }
    </style>
  </defs>
  <g id="组_3897" data-name="组 3897" transform="translate(-1033.607 -562.184)">
    <path id="路径_6991" data-name="路径 6991" class="cls-1" d="M1119.376,641.513h48.794a12.933,12.933,0,0,0,6.693-1.867l26.795-16.22a7.233,7.233,0,0,0,3.488-6.186V585.225a7.232,7.232,0,0,0-3.681-6.3l-26.732-15.077a12.92,12.92,0,0,0-6.348-1.666h-98.017a12.909,12.909,0,0,0-6.348,1.666l-26.733,15.077a7.233,7.233,0,0,0-3.68,6.3V617.24a7.233,7.233,0,0,0,3.488,6.186l26.8,16.22a12.932,12.932,0,0,0,6.692,1.867Z"/>
    <path id="路径_6992" data-name="路径 6992" class="cls-2" d="M1119.376,635.621h44.194a12.27,12.27,0,0,0,6.061-1.589l24.268-13.811a6.09,6.09,0,0,0,3.156-5.266V587.692a6.107,6.107,0,0,0-3.333-5.362l-24.21-12.837a12.281,12.281,0,0,0-5.75-1.419H1074.99a12.281,12.281,0,0,0-5.75,1.419l-24.212,12.838a6.106,6.106,0,0,0-3.334,5.362v27.262a6.091,6.091,0,0,0,3.16,5.266l24.268,13.811a12.26,12.26,0,0,0,6.061,1.589Z"/>
    <g id="_5_3_1" data-name=" 5 3 1" class="cls-3">
      <text id="转动时针" class="cls-4" transform="translate(1054.455 612.035)"><tspan x="0" y="0">转动时针</tspan></text>
    </g>
  </g>
</svg>
