<svg xmlns="http://www.w3.org/2000/svg" width="257.311" height="374.835" viewBox="0 0 257.311 374.835">
  <defs>
    <style>
      .cls-1 {
        fill: #b6b9c7;
      }

      .cls-2 {
        fill: #ece7e6;
      }

      .cls-3 {
        fill: #9aaab5;
      }

      .cls-4 {
        fill: #fec1c3;
      }

      .cls-5 {
        fill: #f8696c;
      }

      .cls-6 {
        fill: none;
        stroke: #f8696c;
        stroke-linecap: round;
        stroke-linejoin: round;
        stroke-width: 2.69px;
      }

      .cls-7 {
        fill: #fff;
      }

      .cls-8 {
        fill: #2b71b0;
      }

      .cls-9 {
        fill: #e7ffff;
      }

      .cls-10 {
        fill: #9ea1af;
      }

      .cls-11 {
        fill: #fcb2a9;
      }

      .cls-12 {
        fill: #904105;
      }

      .cls-13 {
        fill: #3372bc;
      }

      .cls-14 {
        fill: #4091de;
      }

      .cls-15 {
        fill: #5daaf1;
      }

      .cls-16 {
        fill: #c9c4be;
      }

      .cls-17 {
        fill: #ede7df;
      }
    </style>
  </defs>
  <g id="组_5145" data-name="组 5145" transform="translate(-331.228 -412.053)">
    <g id="组_3940" data-name="组 3940" transform="translate(331.228 412.053)">
      <path id="路径_10871" data-name="路径 10871" class="cls-1" d="M389.149,639.9S383,653.967,380.041,658.99s-5.927,9.587-5.187,12.1,5.1,6.849,7.09,4.564,9.581-18.033,10.136-18.955-2.593,19.862,0,24.885,27.788,10.5,35.755,5.479,10.93-6.392,11.485-12.783,0-22.823,0-22.823,6.669,18.718,9.449,20.09,7.966-2.741,7.226-5.707S442.1,640.277,442.1,640.277,426.056,615.555,389.149,639.9Z" transform="translate(-281.976 -466.511)"/>
      <path id="路径_10872" data-name="路径 10872" class="cls-1" d="M389.38,666.762s1.74,3.619-1.97,8.413-3.891,9.36,0,10.273,15,.456,15.932-2.968.741-15.718.741-15.718Z" transform="translate(-277.675 -450.05)"/>
      <path id="路径_10873" data-name="路径 10873" class="cls-1" d="M420.707,666.762s-1.74,3.619,1.971,8.413,3.89,9.36,0,10.273-15.008.456-15.931-2.968S406,666.762,406,666.762Z" transform="translate(-268.289 -450.05)"/>
      <ellipse id="椭圆_1892" data-name="椭圆 1892" class="cls-2" cx="16.724" cy="20.61" rx="16.724" ry="20.61" transform="translate(116.95 168.56)"/>
      <path id="路径_10874" data-name="路径 10874" class="cls-3" d="M420.362,660.547s1.621,7.249,8.152,3.824a10.726,10.726,0,0,1,14.568,4.223q.239.436.437.89a15.4,15.4,0,0,1,1.945,7.9,5.629,5.629,0,0,1-2.918-3.08c-1.25-2.568-5-9.285-11.531-4.818s-12.559-.72-12.95-2.747S420.362,660.547,420.362,660.547Z" transform="translate(-263.018 -452.772)"/>
      <circle id="椭圆_1893" data-name="椭圆 1893" class="cls-1" cx="49.237" cy="49.237" r="49.237"/>
      <circle id="椭圆_1894" data-name="椭圆 1894" class="cls-4" cx="38.499" cy="38.499" r="38.499" transform="translate(10.738 10.738)"/>
      <circle id="椭圆_1895" data-name="椭圆 1895" class="cls-1" cx="49.237" cy="49.237" r="49.237" transform="translate(158.838)"/>
      <circle id="椭圆_1896" data-name="椭圆 1896" class="cls-4" cx="38.499" cy="38.499" r="38.499" transform="translate(169.576 10.738)"/>
      <path id="路径_10875" data-name="路径 10875" class="cls-1" d="M431.911,531.226s-6.889,10.534,0,15.4c4.862-.674,32.013,2.837,48.627,23.91s17.021,35.661,16.617,38.091-3.483,11.754.082,20.669,13.563,36.278-15.888,48.223c-36.672,14.875-118.369,11.8-130.327-11.512s-.567-39.142.65-41.574-6.35-43.631,30.19-66.053a149.513,149.513,0,0,1,25.462-11.347s-2.26-8.208,1.589-11.55l3.648-1.934s.1,7.093,1.52,8.511S416.207,528.592,431.911,531.226Z" transform="translate(-294.735 -509.545)"/>
      <path id="路径_10876" data-name="路径 10876" class="cls-5" d="M391.542,607.805s-1.215-7.293,12.158-6.482,14.588.193,14.993,4.659-7.295,16.827-11.347,17.629S395.8,623.813,391.542,607.805Z" transform="translate(-274.63 -478.736)"/>
      <line id="直线_142" data-name="直线 142" class="cls-6" x2="0.13" y2="12.309" transform="translate(129.396 145.08)"/>
      <path id="路径_10877" data-name="路径 10877" class="cls-2" d="M396.531,624.56l-.418,8.806s3.444.81,4.761,0,1.485-7.7,1.485-7.7.946,7.608,1.859,8.06,4.448.562,4.659,0,0-9.166,0-9.166A35.326,35.326,0,0,1,396.531,624.56Z" transform="translate(-272.615 -468.532)"/>
      <path id="路径_10878" data-name="路径 10878" class="cls-6" d="M384.77,619.434s18.64,17.562,47.684,0" transform="translate(-277.583 -470.777)"/>
      <circle id="椭圆_1897" data-name="椭圆 1897" class="cls-7" cx="14.734" cy="14.734" r="14.734" transform="translate(155.526 98.889)"/>
      <circle id="椭圆_1898" data-name="椭圆 1898" class="cls-8" cx="11.456" cy="11.456" r="11.456" transform="translate(157.192 105.195)"/>
      <circle id="椭圆_1899" data-name="椭圆 1899" class="cls-9" cx="4.539" cy="4.539" r="4.539" transform="translate(171.91 110.156)"/>
      <circle id="椭圆_1900" data-name="椭圆 1900" class="cls-7" cx="14.734" cy="14.734" r="14.734" transform="translate(78.74 98.638)"/>
      <circle id="椭圆_1901" data-name="椭圆 1901" class="cls-8" cx="11.456" cy="11.456" r="11.456" transform="translate(83.631 104.943)"/>
      <circle id="椭圆_1902" data-name="椭圆 1902" class="cls-9" cx="4.539" cy="4.539" r="4.539" transform="translate(81.426 109.902)"/>
      <path id="路径_10879" data-name="路径 10879" class="cls-10" d="M423.49,573.181s-4.968-4.479,3.146-4.706,14.254,4.578,14.653,8.071-4.23,2.677-6.346,1.354-5.818-3.033-7.611-2.869S423.49,573.181,423.49,573.181Z" transform="translate(-261.284 -493.098)"/>
      <path id="路径_10880" data-name="路径 10880" class="cls-10" d="M382.981,573s4.373-5.062-3.7-4.278-13.577,6.313-13.538,9.828,4.53,2.128,6.465.555,5.4-3.733,7.2-3.791S382.981,573,382.981,573Z" transform="translate(-285.917 -493.021)"/>
      <path id="路径_10881" data-name="路径 10881" class="cls-11" d="M432.937,628.429a23.569,23.569,0,0,0,7.889,17.6c.774-.283,1.547-.559,2.276-.857,22.822-9.255,21.953-27.762,18.749-39.778a23.6,23.6,0,0,0-28.914,23.04Z" transform="translate(-256.488 -477.194)"/>
      <path id="路径_10882" data-name="路径 10882" class="cls-11" d="M378.35,628.429a23.61,23.61,0,0,0-32.217-22.022,42.817,42.817,0,0,0,4.875,27.248c2.815,5.493,9.539,9.847,18.6,13.123A23.6,23.6,0,0,0,378.35,628.429Z" transform="translate(-294.72 -477.194)"/>
    </g>
    <g id="组_6642" data-name="组 6642" transform="translate(341.493 615.466)">
      <rect id="矩形_3652" data-name="矩形 3652" class="cls-12" width="39.664" height="39.664" transform="translate(19.509 131.758)"/>
      <rect id="矩形_3653" data-name="矩形 3653" class="cls-12" width="39.664" height="39.664" transform="translate(176.213 131.758)"/>
      <path id="路径_16970" data-name="路径 16970" class="cls-13" d="M-1169.939-314.608c-31.134-.262-24.754-12.856-51.821-12.326h-.208c-15.453.333-22.061,3.556-30.351,6.637-6.361,2.377-13.735,4.687-26.875,5.567-30.236,1.989-26.32-19.392-54.281-19.392-1.814,0-3.552.071-5.195.23-14.92,1.3-23.265,8.137-30.562,13.227-4.316,3.011-8.272,5.423-13.007,5.724a88.22,88.22,0,0,1-23.741-1.5l11.383-112.117h211S-1174.5-339.527-1169.939-314.608Z" transform="translate(1405.98 477.936)"/>
      <path id="路径_16971" data-name="路径 16971" class="cls-14" d="M-1401.822-397.4l21.783-49.092h166.782l22.433,49.092Z" transform="translate(1413.203 446.489)"/>
      <path id="路径_16972" data-name="路径 16972" class="cls-15" d="M-1344.116-446.488l-17.875,46.327v96.893c-14.92,1.333-23.265,8.328-30.562,13.539V-400.161l20.15-46.327Z" transform="translate(1429.302 446.488)"/>
      <path id="路径_16973" data-name="路径 16973" class="cls-15" d="M-1307.933-400.154v104.03h-.208c-15.453.341-22.061,3.64-30.351,6.795V-400.154l-17.878-46.334h28.287Z" transform="translate(1492.153 446.488)"/>
    </g>
    <g id="组_6644" data-name="组 6644" transform="translate(409.211 618.001)">
      <path id="路径_16974" data-name="路径 16974" class="cls-16" d="M-1332.364-418.39c-28.169,0-50.249-8.672-50.249-19.744h2.151c0,9.535,22.019,17.593,48.1,17.593s48.1-8.058,48.1-17.593h2.153C-1282.112-427.062-1304.195-418.39-1332.364-418.39Z" transform="translate(1382.613 459.906)"/>
      <path id="路径_16975" data-name="路径 16975" class="cls-7" d="M-1332.364-406.169c-28.169,0-50.249-8.672-50.249-19.743s22.08-19.744,50.249-19.744,50.252,8.672,50.252,19.744S-1304.195-406.169-1332.364-406.169Z" transform="translate(1382.613 445.656)"/>
      <path id="路径_16976" data-name="路径 16976" class="cls-17" d="M-1350.72-424.384c-12.484,0-22.2-3.815-22.2-8.736s9.78-8.733,22.2-8.733c12.487,0,22.2,3.812,22.2,8.733S-1338.3-424.384-1350.72-424.384Z" transform="translate(1400.969 452.863)"/>
    </g>
  </g>
</svg>
