<svg xmlns="http://www.w3.org/2000/svg" width="274.915" height="152.113" viewBox="0 0 274.915 152.113">
  <defs>
    <style>
      .cls-1, .cls-2, .cls-22 {
        fill: #fff;
      }

      .cls-1, .cls-16 {
        stroke-linejoin: round;
      }

      .cls-3 {
        fill: #679d2f;
      }

      .cls-4 {
        fill: #578e20;
      }

      .cls-5 {
        fill: #ca8f3f;
      }

      .cls-6 {
        fill: #eaad59;
      }

      .cls-7 {
        fill: #e19a3b;
      }

      .cls-10, .cls-8, .cls-9 {
        isolation: isolate;
      }

      .cls-10, .cls-9 {
        fill: #7d4921;
        font-size: 25.435px;
        font-weight: 700;
      }

      .cls-9 {
        font-family: MicrosoftYaHei-Bold, Microsoft YaHei;
      }

      .cls-10 {
        font-family: TimesNewRomanPS-BoldMT, Times New Roman;
      }

      .cls-11 {
        fill: #b6b9c7;
      }

      .cls-12 {
        fill: #ece7e6;
      }

      .cls-13 {
        fill: #9aaab5;
      }

      .cls-14 {
        fill: #fec1c3;
      }

      .cls-15 {
        fill: #f8696c;
      }

      .cls-16 {
        fill: none;
        stroke: #f8696c;
        stroke-linecap: round;
        stroke-width: 2.2px;
      }

      .cls-17 {
        fill: #2b71b0;
      }

      .cls-18 {
        fill: #e7ffff;
      }

      .cls-19 {
        fill: #9ea1af;
      }

      .cls-20 {
        fill: #fcb2a9;
      }

      .cls-21, .cls-22 {
        stroke: none;
      }
    </style>
  </defs>
  <g id="组_3947" data-name="组 3947" transform="translate(-1412.775 -1003.281)">
    <g id="路径_10901" data-name="路径 10901">
      <g id="路径_11902" data-name="路径 11902" class="cls-1">
        <path class="cls-21" d="M 1663.58203125 1153.39404296875 L 1523.39794921875 1153.39404296875 L 1522.91796875 1153.39404296875 L 1522.725952148438 1153.39404296875 L 1522.537475585938 1153.357543945313 L 1522.067504882813 1153.266479492188 C 1521.915283203125 1153.236938476563 1518.654541015625 1152.594848632813 1514.989868164063 1151.108032226563 C 1513.91162109375 1152.001342773438 1512.617919921875 1152.638549804688 1511.181396484375 1152.97607421875 C 1509.708984375 1153.321533203125 1508.046508789063 1153.39404296875 1506.911010742188 1153.39404296875 C 1505.7216796875 1153.39404296875 1503.390502929688 1153.3095703125 1501.140991210938 1152.743530273438 C 1499.464965820313 1152.320922851563 1498.040405273438 1151.674926757813 1496.882934570313 1150.81494140625 C 1495.725463867188 1151.674926757813 1494.30078125 1152.32080078125 1492.624877929688 1152.743286132813 C 1490.375610351563 1153.3095703125 1488.04443359375 1153.39404296875 1486.85498046875 1153.39404296875 C 1485.719360351563 1153.39404296875 1484.056762695313 1153.321533203125 1482.585693359375 1152.97607421875 C 1479.493896484375 1152.249755859375 1477.12939453125 1150.16796875 1476.098266601563 1147.264282226563 C 1475.384643554688 1145.250854492188 1475.388793945313 1142.992797851563 1476.109619140625 1140.733154296875 C 1476.342529296875 1140.00244140625 1476.647583007813 1139.275512695313 1477.022338867188 1138.556274414063 C 1474.874877929688 1138.349975585938 1472.8046875 1137.322875976563 1470.991577148438 1135.554931640625 C 1470.124389648438 1134.707763671875 1468.56884765625 1132.940551757813 1467.882446289063 1130.610107421875 C 1466.88671875 1127.238037109375 1468.291748046875 1124.169067382813 1468.753540039063 1123.160522460938 C 1469.384887695313 1121.779174804688 1470.187744140625 1120.431396484375 1471.037719726563 1119.00439453125 C 1471.197875976563 1118.735961914063 1471.3583984375 1118.465576171875 1471.519775390625 1118.192138671875 C 1471.560791015625 1118.122680664063 1471.609375 1118.038330078125 1471.66650390625 1117.936401367188 C 1467.904541015625 1117.193481445313 1464.517944335938 1116.266967773438 1461.570190429688 1115.172973632813 C 1458.455810546875 1114.017578125 1455.76904296875 1112.651611328125 1453.58447265625 1111.11328125 C 1450.867431640625 1109.19873046875 1448.840209960938 1106.9609375 1447.558471679688 1104.461669921875 C 1445.769653320313 1100.974243164063 1444.589477539063 1097.418823242188 1444.050903320313 1093.894165039063 C 1443.588256835938 1090.865356445313 1443.5927734375 1087.837280273438 1444.064086914063 1084.893676757813 C 1444.583374023438 1081.651733398438 1445.621459960938 1078.622436523438 1447.233032226563 1075.650146484375 L 1447.232299804688 1075.603515625 C 1447.22998046875 1075.470092773438 1447.2275390625 1075.334594726563 1447.225341796875 1075.196166992188 C 1443.401489257813 1074.921264648438 1439.684814453125 1074.028564453125 1436.151000976563 1072.534057617188 C 1431.981323242188 1070.770141601563 1428.23876953125 1068.247192382813 1425.02685546875 1065.03515625 C 1421.814819335938 1061.823364257813 1419.291870117188 1058.080688476563 1417.528076171875 1053.9111328125 C 1415.701293945313 1049.591552734375 1414.775024414063 1045.0068359375 1414.775024414063 1040.284057617188 C 1414.775024414063 1035.56201171875 1415.701293945313 1030.9775390625 1417.527954101563 1026.658081054688 C 1419.291748046875 1022.488403320313 1421.814819335938 1018.745727539063 1425.02685546875 1015.533752441406 C 1428.240600585938 1012.319946289063 1431.9833984375 1009.796936035156 1436.151245117188 1008.034851074219 C 1440.47216796875 1006.207580566406 1445.056884765625 1005.281005859375 1449.777954101563 1005.281005859375 C 1450.314331054688 1005.281005859375 1450.86962890625 1005.294738769531 1451.474731445313 1005.322998046875 L 1451.482666015625 1005.322998046875 L 1451.53515625 1005.325744628906 C 1451.683715820313 1005.333557128906 1451.812255859375 1005.343383789063 1451.91552734375 1005.351257324219 L 1451.972045898438 1005.355529785156 L 1452.067504882813 1005.362731933594 L 1452.07763671875 1005.36328125 L 1452.092163085938 1005.3642578125 C 1452.409057617188 1005.384887695313 1452.80322265625 1005.410583496094 1453.223876953125 1005.451354980469 L 1453.287353515625 1005.457458496094 L 1453.302734375 1005.4599609375 C 1453.430908203125 1005.47314453125 1453.545288085938 1005.48681640625 1453.64794921875 1005.499145507813 L 1453.744018554688 1005.510498046875 L 1453.766479492188 1005.51318359375 L 1453.788818359375 1005.516296386719 C 1453.82568359375 1005.521423339844 1453.862426757813 1005.525756835938 1453.899169921875 1005.530090332031 L 1453.90966796875 1005.531311035156 C 1454.191284179688 1005.564208984375 1454.541748046875 1005.605102539063 1454.915771484375 1005.660827636719 C 1455.13671875 1005.693115234375 1455.329467773438 1005.725646972656 1455.493041992188 1005.753601074219 L 1455.626953125 1005.7763671875 L 1455.661865234375 1005.782348632813 L 1455.668701171875 1005.783752441406 C 1455.942993164063 1005.830017089844 1456.248901367188 1005.882019042969 1456.5830078125 1005.948791503906 C 1456.807983398438 1005.993469238281 1457.018310546875 1006.039184570313 1457.203979492188 1006.079467773438 L 1457.308837890625 1006.102233886719 L 1457.312133789063 1006.102966308594 L 1457.3154296875 1006.103637695313 C 1457.587280273438 1006.163452148438 1457.88232421875 1006.229553222656 1458.19970703125 1006.308166503906 L 1458.210693359375 1006.310546875 L 1458.238891601563 1006.317687988281 C 1458.490844726563 1006.381225585938 1458.730834960938 1006.445129394531 1458.93603515625 1006.5 L 1458.949340820313 1006.503601074219 L 1458.962524414063 1006.50732421875 L 1458.9765625 1006.511291503906 L 1458.98486328125 1006.513671875 C 1459.224975585938 1006.579528808594 1459.511352539063 1006.6591796875 1459.821411132813 1006.751953125 C 1460.034545898438 1006.815856933594 1460.265502929688 1006.887756347656 1460.527465820313 1006.971557617188 L 1460.632202148438 1007.001098632813 L 1460.678588867188 1007.021301269531 C 1460.931762695313 1007.104736328125 1461.1474609375 1007.177856445313 1461.348754882813 1007.248413085938 L 1461.369506835938 1007.255249023438 L 1461.393310546875 1007.263610839844 C 1461.684448242188 1007.36669921875 1461.905151367188 1007.44677734375 1462.101684570313 1007.520751953125 L 1462.162109375 1007.541076660156 L 1462.206909179688 1007.560852050781 C 1462.43115234375 1007.646301269531 1462.666870117188 1007.739562988281 1462.925659179688 1007.845153808594 L 1462.925659179688 1007.845153808594 C 1463.141357421875 1007.932495117188 1463.384643554688 1008.031005859375 1463.648803710938 1008.144897460938 L 1463.782104492188 1008.197265625 L 1463.8193359375 1008.219909667969 C 1464.004638671875 1008.301574707031 1464.176391601563 1008.38037109375 1464.331298828125 1008.451477050781 L 1464.40625 1008.485900878906 L 1464.413208007813 1008.489074707031 L 1464.420166015625 1008.492370605469 L 1464.444702148438 1008.503784179688 L 1464.467651367188 1008.514343261719 C 1464.669189453125 1008.606872558594 1464.896240234375 1008.711181640625 1465.143798828125 1008.832214355469 L 1465.1533203125 1008.836303710938 L 1465.201293945313 1008.860046386719 C 1465.444580078125 1008.980651855469 1465.670532226563 1009.098754882813 1465.8525390625 1009.19384765625 L 1465.898315429688 1009.217163085938 L 1465.9033203125 1009.219787597656 L 1465.908447265625 1009.222412109375 L 1465.938232421875 1009.23779296875 C 1466.146850585938 1009.345581054688 1466.383178710938 1009.467834472656 1466.640258789063 1009.609985351563 C 1466.778442382813 1009.685791015625 1466.902221679688 1009.756958007813 1467.001953125 1009.814392089844 L 1467.057495117188 1009.846374511719 L 1467.07763671875 1009.85791015625 L 1467.097534179688 1009.869934082031 C 1467.120727539063 1009.883972167969 1467.14404296875 1009.897583007813 1467.167724609375 1009.911071777344 L 1467.174072265625 1009.91455078125 L 1467.191650390625 1009.924133300781 L 1467.208862304688 1009.934020996094 L 1467.330932617188 1010.004028320313 L 1467.334838867188 1010.006286621094 L 1467.338745117188 1010.008544921875 L 1467.419677734375 1010.055358886719 C 1467.60791015625 1010.164245605469 1467.821044921875 1010.287475585938 1468.05322265625 1010.4306640625 C 1468.15234375 1010.490783691406 1468.248901367188 1010.551879882813 1468.347534179688 1010.616821289063 L 1468.376586914063 1010.63525390625 L 1468.45849609375 1010.687194824219 L 1468.463134765625 1010.690856933594 C 1469.61669921875 1011.419799804688 1470.724853515625 1012.212829589844 1471.758422851563 1013.049133300781 C 1471.819580078125 1013.097106933594 1471.873901367188 1013.140747070313 1471.927734375 1013.185363769531 C 1472.278198242188 1013.472351074219 1472.593994140625 1013.74658203125 1472.836669921875 1013.959655761719 L 1472.877197265625 1013.994934082031 L 1472.902099609375 1014.016723632813 C 1472.953002929688 1014.059631347656 1473.003173828125 1014.103210449219 1473.053344726563 1014.146911621094 L 1473.076049804688 1014.166748046875 L 1473.089721679688 1014.179321289063 L 1473.093872070313 1014.182983398438 L 1473.106811523438 1014.194519042969 C 1473.449584960938 1014.502197265625 1473.76220703125 1014.799255371094 1473.996948242188 1015.024291992188 L 1474.050048828125 1015.07470703125 C 1474.102905273438 1015.124633789063 1474.156860351563 1015.175903320313 1474.21044921875 1015.227905273438 L 1474.226440429688 1015.242370605469 L 1474.259521484375 1015.275207519531 L 1474.263427734375 1015.279052734375 C 1474.582763671875 1015.591186523438 1474.876708984375 1015.897705078125 1475.113159179688 1016.144287109375 L 1475.117431640625 1016.148681640625 L 1475.121215820313 1016.152648925781 L 1475.125 1016.156555175781 L 1475.179077148438 1016.213562011719 C 1475.197875976563 1016.233520507813 1475.216064453125 1016.252380371094 1475.234130859375 1016.271179199219 C 1475.264892578125 1016.303161621094 1475.295532226563 1016.335144042969 1475.325805664063 1016.367248535156 L 1475.338012695313 1016.37939453125 L 1475.36474609375 1016.408081054688 C 1475.627197265625 1016.68994140625 1475.8974609375 1016.990966796875 1476.19091796875 1017.328247070313 L 1476.28466796875 1017.435974121094 L 1476.37548828125 1017.540405273438 L 1476.406005859375 1017.575317382813 L 1476.422119140625 1017.595458984375 C 1476.69921875 1017.920837402344 1476.957641601563 1018.235595703125 1477.211669921875 1018.55712890625 L 1477.211669921875 1018.55712890625 C 1477.255004882813 1018.611389160156 1477.298095703125 1018.665649414063 1477.34130859375 1018.721069335938 L 1477.345581054688 1018.726501464844 L 1477.349731445313 1018.73193359375 L 1477.357788085938 1018.742431640625 L 1477.372192382813 1018.759216308594 L 1477.405151367188 1018.803161621094 C 1477.668701171875 1019.140625 1477.931518554688 1019.4912109375 1478.186401367188 1019.845581054688 L 1478.189697265625 1019.85009765625 L 1478.230346679688 1019.906372070313 L 1478.234497070313 1019.9130859375 C 1478.24853515625 1019.932922363281 1478.262817382813 1019.952819824219 1478.277099609375 1019.972839355469 L 1478.322998046875 1020.037292480469 L 1478.322998046875 1020.037292480469 C 1478.567138671875 1020.379516601563 1478.806518554688 1020.729125976563 1479.035400390625 1021.078002929688 L 1479.060180664063 1021.102783203125 L 1479.185546875 1021.309692382813 L 1479.18701171875 1021.312194824219 C 1479.654541015625 1022.035522460938 1480.095703125 1022.777282714844 1480.509033203125 1023.53466796875 C 1481.04296875 1022.778076171875 1481.610473632813 1022.190551757813 1482.119750976563 1021.747680664063 L 1482.554931640625 1021.369506835938 L 1482.729370117188 1021.217895507813 L 1482.933715820313 1021.110046386719 L 1483.443725585938 1020.841003417969 L 1485.518676757813 1019.746154785156 L 1492.753540039063 1015.92822265625 L 1495.647827148438 1014.40087890625 L 1495.685668945313 1017.56689453125 C 1496.366577148438 1017.478515625 1497.062866210938 1017.434020996094 1497.77099609375 1017.434020996094 C 1498.794311523438 1017.434020996094 1499.863647460938 1017.526428222656 1500.949096679688 1017.708618164063 L 1508.618896484375 1018.99560546875 L 1511.687133789063 1019.510437011719 L 1509.944946289063 1022.088012695313 L 1506.609375 1027.022827148438 C 1506.9482421875 1027.0908203125 1507.289184570313 1027.163208007813 1507.631225585938 1027.239868164063 C 1507.65771484375 1027.173583984375 1507.685668945313 1027.104125976563 1507.715454101563 1027.03076171875 L 1507.717041015625 1027.02685546875 L 1507.718627929688 1027.02294921875 C 1507.806884765625 1026.807861328125 1507.90234375 1026.5810546875 1508.002563476563 1026.348754882813 C 1508.112182617188 1026.095581054688 1508.23193359375 1025.830810546875 1508.380493164063 1025.513305664063 C 1508.471923828125 1025.317626953125 1508.572021484375 1025.1044921875 1508.680419921875 1024.880249023438 L 1508.689331054688 1024.861938476563 L 1508.698608398438 1024.84375 L 1508.698852539063 1024.843139648438 C 1508.830810546875 1024.576538085938 1508.962036132813 1024.3232421875 1509.077392578125 1024.102416992188 L 1509.080078125 1024.09619140625 L 1509.114501953125 1024.031005859375 L 1509.183471679688 1023.899963378906 L 1509.204711914063 1023.859741210938 C 1509.265258789063 1023.74462890625 1509.333374023438 1023.615173339844 1509.409423828125 1023.47509765625 L 1509.419921875 1023.4541015625 L 1509.443237304688 1023.41259765625 C 1509.6103515625 1023.109497070313 1509.770385742188 1022.836730957031 1509.920166015625 1022.583190917969 L 1509.971435546875 1022.494934082031 C 1510.042602539063 1022.370361328125 1510.13818359375 1022.205139160156 1510.251708984375 1022.020568847656 C 1510.455200195313 1021.687866210938 1510.650390625 1021.389038085938 1510.833374023438 1021.111206054688 L 1510.859985351563 1021.068603515625 L 1510.869873046875 1021.054809570313 C 1510.876708984375 1021.044128417969 1510.883544921875 1021.033447265625 1510.890380859375 1021.022766113281 L 1510.900268554688 1021.007263183594 C 1510.957153320313 1020.918151855469 1511.034790039063 1020.796203613281 1511.132080078125 1020.653747558594 C 1511.428833007813 1020.216552734375 1511.738037109375 1019.7822265625 1512.04833984375 1019.366577148438 C 1512.12255859375 1019.267150878906 1512.19873046875 1019.168029785156 1512.28173828125 1019.062683105469 L 1512.309936523438 1019.02685546875 L 1512.322631835938 1019.010375976563 C 1512.49169921875 1018.789672851563 1512.689086914063 1018.534423828125 1512.905517578125 1018.266723632813 L 1512.947509765625 1018.186218261719 L 1513.0966796875 1018.032104492188 C 1513.185913085938 1017.924621582031 1513.266967773438 1017.830322265625 1513.343139648438 1017.742126464844 L 1513.351196289063 1017.732788085938 C 1513.371948242188 1017.708862304688 1513.392700195313 1017.684997558594 1513.412963867188 1017.661071777344 L 1513.469482421875 1017.591003417969 L 1513.4921875 1017.568298339844 C 1513.667236328125 1017.362243652344 1513.864624023438 1017.130493164063 1514.088745117188 1016.881652832031 C 1514.205322265625 1016.752136230469 1514.3125 1016.637573242188 1514.407104492188 1016.536499023438 L 1514.48291015625 1016.455444335938 L 1514.4912109375 1016.446533203125 L 1514.499633789063 1016.437683105469 L 1514.557739257813 1016.376831054688 L 1514.557861328125 1016.376708984375 C 1514.731567382813 1016.191223144531 1514.947631835938 1015.960388183594 1515.178466796875 1015.72509765625 L 1515.187866210938 1015.715576171875 L 1515.197387695313 1015.706176757813 L 1515.206420898438 1015.697204589844 L 1515.212768554688 1015.69091796875 C 1515.386352539063 1015.516235351563 1515.54931640625 1015.357482910156 1515.686157226563 1015.224792480469 C 1515.923217773438 1014.993041992188 1516.136474609375 1014.789489746094 1516.337768554688 1014.602722167969 C 1516.50830078125 1014.443908691406 1516.673706054688 1014.295532226563 1516.816528320313 1014.168395996094 L 1516.82080078125 1014.164184570313 L 1516.863647460938 1014.125854492188 C 1517.115356445313 1013.902221679688 1517.343505859375 1013.705200195313 1517.560791015625 1013.523864746094 C 1517.747924804688 1013.364807128906 1517.922241210938 1013.22021484375 1518.093505859375 1013.082153320313 C 1518.324829101563 1012.894836425781 1518.553588867188 1012.714416503906 1518.810546875 1012.516723632813 L 1518.85546875 1012.482299804688 L 1518.859008789063 1012.479797363281 L 1518.877807617188 1012.46533203125 C 1519.01611328125 1012.358825683594 1519.1826171875 1012.231384277344 1519.366943359375 1012.095642089844 C 1519.632934570313 1011.899536132813 1519.885986328125 1011.722412109375 1520.109130859375 1011.566101074219 L 1520.130004882813 1011.551574707031 L 1520.146362304688 1011.540161132813 L 1520.162475585938 1011.529296875 L 1520.257934570313 1011.462829589844 L 1520.292602539063 1011.438598632813 C 1520.40625 1011.359252929688 1520.535034179688 1011.269287109375 1520.68701171875 1011.167602539063 C 1520.947875976563 1010.994079589844 1521.212158203125 1010.824523925781 1521.547607421875 1010.615478515625 L 1521.622924804688 1010.567687988281 C 1521.7294921875 1010.498779296875 1521.8720703125 1010.407775878906 1522.041748046875 1010.305969238281 C 1522.366943359375 1010.108215332031 1522.715087890625 1009.907287597656 1523.135375976563 1009.675048828125 L 1523.136474609375 1009.674438476563 C 1523.222534179688 1009.623657226563 1523.329467773438 1009.563171386719 1523.440795898438 1009.502136230469 L 1523.444213867188 1009.500183105469 L 1523.44775390625 1009.498291015625 C 1523.881713867188 1009.262756347656 1524.325927734375 1009.034301757813 1524.803588867188 1008.801330566406 L 1524.916137695313 1008.735046386719 L 1525.004760742188 1008.704833984375 C 1525.08935546875 1008.664978027344 1525.1748046875 1008.625793457031 1525.26025390625 1008.587829589844 C 1525.269775390625 1008.583557128906 1525.279296875 1008.579345703125 1525.288818359375 1008.575134277344 L 1525.298461914063 1008.570373535156 L 1525.329345703125 1008.556274414063 L 1525.332153320313 1008.554992675781 C 1525.647583007813 1008.407775878906 1525.989501953125 1008.250305175781 1526.354370117188 1008.094604492188 C 1526.529418945313 1008.018615722656 1526.685546875 1007.955993652344 1526.82861328125 1007.899658203125 C 1526.863891601563 1007.885375976563 1526.900024414063 1007.87109375 1526.936279296875 1007.856811523438 C 1527.304321289063 1007.706298828125 1527.597290039063 1007.590942382813 1527.884765625 1007.483581542969 C 1528.05615234375 1007.419189453125 1528.214233398438 1007.363708496094 1528.341430664063 1007.319152832031 L 1528.36767578125 1007.309875488281 L 1528.5 1007.26318359375 L 1528.545288085938 1007.247192382813 L 1528.547973632813 1007.246337890625 C 1528.8623046875 1007.135925292969 1529.142700195313 1007.041076660156 1529.428344726563 1006.948486328125 L 1529.53564453125 1006.913696289063 L 1529.55078125 1006.910583496094 C 1529.746459960938 1006.849060058594 1529.931030273438 1006.7939453125 1530.0966796875 1006.744445800781 L 1530.112670898438 1006.739685058594 C 1530.42822265625 1006.645446777344 1530.7294921875 1006.559753417969 1531.033813476563 1006.477783203125 L 1531.036499023438 1006.477111816406 L 1531.0390625 1006.476379394531 C 1531.246704101563 1006.421081542969 1531.456176757813 1006.3671875 1531.698120117188 1006.306640625 L 1531.70849609375 1006.304077148438 L 1531.72802734375 1006.299194335938 L 1531.74658203125 1006.294921875 C 1532.025146484375 1006.226928710938 1532.322143554688 1006.158386230469 1532.654174804688 1006.085510253906 L 1532.866088867188 1006.039001464844 L 1532.87109375 1006.039001464844 C 1533.0146484375 1006.008422851563 1533.16357421875 1005.977600097656 1533.327270507813 1005.944580078125 L 1533.3837890625 1005.933166503906 L 1533.40283203125 1005.930419921875 C 1533.666748046875 1005.879150390625 1533.954223632813 1005.827941894531 1534.328002929688 1005.765380859375 L 1534.382690429688 1005.756225585938 L 1534.390014648438 1005.755432128906 C 1534.57373046875 1005.724487304688 1534.784057617188 1005.689697265625 1535.008544921875 1005.656494140625 C 1535.365966796875 1005.603332519531 1535.69775390625 1005.564331054688 1535.990478515625 1005.529968261719 L 1536.0263671875 1005.525695800781 L 1536.033935546875 1005.524780273438 L 1536.04150390625 1005.523986816406 L 1536.082153320313 1005.51953125 C 1536.25244140625 1005.498352050781 1536.4638671875 1005.47216796875 1536.701049804688 1005.449951171875 C 1537.086547851563 1005.411926269531 1537.43359375 1005.387939453125 1537.811889648438 1005.363098144531 L 1537.84521484375 1005.359924316406 L 1537.88623046875 1005.357788085938 C 1537.903442382813 1005.356872558594 1537.920654296875 1005.355224609375 1537.937866210938 1005.353820800781 L 1537.943603515625 1005.353332519531 L 1537.952392578125 1005.352661132813 C 1538.100708007813 1005.341491699219 1538.243408203125 1005.332336425781 1538.388671875 1005.324768066406 L 1538.393310546875 1005.324523925781 L 1538.39794921875 1005.324279785156 C 1539.009521484375 1005.295166015625 1539.57080078125 1005.281005859375 1540.114013671875 1005.281005859375 C 1544.8349609375 1005.281005859375 1549.419799804688 1006.207580566406 1553.740966796875 1008.034973144531 C 1557.908325195313 1009.797302246094 1561.650756835938 1012.320251464844 1564.864135742188 1015.533752441406 C 1568.0771484375 1018.745727539063 1570.600219726563 1022.488586425781 1572.363159179688 1026.658203125 C 1574.1904296875 1030.97900390625 1575.116943359375 1035.5634765625 1575.116943359375 1040.284057617188 C 1575.116943359375 1041.34130859375 1575.069213867188 1042.400634765625 1574.974365234375 1043.452514648438 C 1598.659912109375 1042.780395507813 1613.602294921875 1042.409301757813 1619.4052734375 1042.34912109375 L 1620.288452148438 1042.339111328125 L 1620.643432617188 1042.335083007813 L 1620.97802734375 1042.453491210938 L 1621.81201171875 1042.74853515625 C 1623.764770507813 1043.438598632813 1625.289306640625 1043.872436523438 1626.464111328125 1044.142333984375 L 1626.4521484375 1043.990600585938 L 1626.28076171875 1041.80810546875 L 1628.469848632813 1041.834106445313 L 1633.942749023438 1041.899169921875 L 1652.114501953125 1042.114501953125 C 1653.14404296875 1040.1611328125 1654.2724609375 1038.302490234375 1655.47802734375 1036.575317382813 C 1659.2734375 1031.140747070313 1663.647827148438 1027.270751953125 1668.479858398438 1025.072509765625 L 1671.913208007813 1023.511352539063 L 1673.2861328125 1022.887084960938 L 1674.263916015625 1024.035522460938 L 1676.7080078125 1026.906494140625 C 1679.988403320313 1030.757934570313 1682.771240234375 1036.68017578125 1684.342651367188 1043.154296875 C 1685.090698242188 1046.236450195313 1685.5302734375 1049.287353515625 1685.64892578125 1052.22216796875 C 1685.760375976563 1054.975219726563 1685.587280273438 1057.57421875 1685.13427734375 1059.956665039063 C 1685.140869140625 1059.9775390625 1685.147338867188 1059.998413085938 1685.15380859375 1060.019165039063 L 1685.353149414063 1060.6611328125 L 1685.43212890625 1060.915771484375 L 1685.441650390625 1061.182250976563 L 1685.4658203125 1061.853393554688 C 1685.77978515625 1070.901000976563 1685.525268554688 1108.610961914063 1685.471069335938 1116.07861328125 L 1685.469970703125 1116.232421875 L 1685.44189453125 1119.911254882813 L 1685.430786132813 1121.382202148438 L 1684.023193359375 1121.809692382813 L 1683.5791015625 1121.944580078125 C 1683.7421875 1122.685424804688 1683.898803710938 1123.409301757813 1684.04736328125 1124.110107421875 C 1684.598999023438 1126.713623046875 1685.01611328125 1128.896484375 1685.287109375 1130.598388671875 C 1685.79541015625 1133.803588867188 1685.91162109375 1135.794067382813 1685.136962890625 1137.771484375 C 1685.12158203125 1137.8115234375 1685.088623046875 1137.899780273438 1685.059692382813 1137.979370117188 L 1685.057861328125 1137.984375 L 1685.056030273438 1137.9892578125 C 1684.530883789063 1139.410522460938 1683.1357421875 1143.185668945313 1679.917724609375 1146.631103515625 C 1678.016967773438 1148.666870117188 1675.782470703125 1150.274047851563 1673.276611328125 1151.408203125 C 1670.363037109375 1152.725952148438 1667.101440429688 1153.39404296875 1663.58203125 1153.39404296875 Z"/>
        <path class="cls-22" d="M 1663.58203125 1151.39404296875 C 1666.81396484375 1151.39404296875 1669.798950195313 1150.786010742188 1672.452026367188 1149.586059570313 C 1674.717041015625 1148.56103515625 1676.737060546875 1147.107055664063 1678.4560546875 1145.265991210938 C 1681.399047851563 1142.114990234375 1682.692993164063 1138.614013671875 1683.180053710938 1137.296020507813 C 1683.214965820313 1137.199951171875 1683.255004882813 1137.093017578125 1683.27197265625 1137.048950195313 C 1683.818969726563 1135.657958984375 1683.828002929688 1134.1669921875 1683.31201171875 1130.912963867188 C 1683.048950195313 1129.260986328125 1682.639038085938 1127.112060546875 1682.090942382813 1124.525024414063 C 1681.796997070313 1123.139038085938 1681.496948242188 1121.781005859375 1681.223022460938 1120.569946289063 L 1683.442016601563 1119.89599609375 L 1683.469970703125 1116.218017578125 C 1683.483032226563 1114.400024414063 1683.802001953125 1071.576049804688 1683.467041015625 1061.925048828125 L 1683.442993164063 1061.254028320313 L 1683.244018554688 1060.613037109375 C 1683.18896484375 1060.43603515625 1683.130981445313 1060.259033203125 1683.069946289063 1060.079956054688 C 1684.069946289063 1055.3349609375 1683.842041015625 1049.571044921875 1682.399047851563 1043.6259765625 C 1680.899047851563 1037.446044921875 1678.27001953125 1031.824951171875 1675.18505859375 1028.203002929688 L 1672.740966796875 1025.33203125 L 1669.307983398438 1026.892944335938 C 1664.806030273438 1028.941040039063 1660.704956054688 1032.583984375 1657.118041992188 1037.719970703125 C 1655.511962890625 1040.02099609375 1654.251953125 1042.277954101563 1653.328979492188 1044.129028320313 L 1633.9189453125 1043.899047851563 L 1628.446044921875 1043.833984375 L 1628.657958984375 1046.531005859375 C 1627.22705078125 1046.411987304688 1624.880004882813 1045.953979492188 1621.14501953125 1044.634033203125 L 1620.31103515625 1044.338989257813 L 1619.426025390625 1044.348999023438 C 1613.444946289063 1044.411010742188 1597.739013671875 1044.803955078125 1572.702026367188 1045.517944335938 C 1572.97802734375 1043.796020507813 1573.116943359375 1042.048950195313 1573.116943359375 1040.284057617188 C 1573.116943359375 1035.8310546875 1572.243041992188 1031.509033203125 1570.52099609375 1027.43701171875 C 1568.859008789063 1023.505981445313 1566.47998046875 1019.976989746094 1563.449951171875 1016.947998046875 C 1560.421020507813 1013.919006347656 1556.891967773438 1011.539001464844 1552.962036132813 1009.877014160156 C 1548.890014648438 1008.155029296875 1544.567016601563 1007.281005859375 1540.114013671875 1007.281005859375 C 1539.592041015625 1007.281005859375 1539.06103515625 1007.294982910156 1538.493041992188 1007.322021484375 C 1538.339965820313 1007.330017089844 1538.208984375 1007.338989257813 1538.10302734375 1007.346984863281 C 1538.066040039063 1007.349975585938 1538.029052734375 1007.35302734375 1537.991943359375 1007.35498046875 L 1537.98095703125 1007.356018066406 L 1537.970947265625 1007.356994628906 C 1537.634033203125 1007.379028320313 1537.274047851563 1007.403015136719 1536.890014648438 1007.440979003906 C 1536.676025390625 1007.460998535156 1536.484008789063 1007.484985351563 1536.31494140625 1007.505981445313 L 1536.260009765625 1007.512023925781 C 1535.970947265625 1007.546020507813 1535.64404296875 1007.583984375 1535.301025390625 1007.635009765625 C 1535.071044921875 1007.669006347656 1534.85595703125 1007.705017089844 1534.6669921875 1007.736999511719 L 1534.657958984375 1007.737976074219 C 1534.31103515625 1007.796020507813 1534.02294921875 1007.846984863281 1533.751953125 1007.900024414063 L 1533.737060546875 1007.903015136719 L 1533.723022460938 1007.905029296875 C 1533.530029296875 1007.943969726563 1533.322021484375 1007.986999511719 1533.088989257813 1008.038024902344 L 1533.086059570313 1008.039001464844 L 1533.0830078125 1008.039001464844 C 1532.764038085938 1008.109008789063 1532.47802734375 1008.174987792969 1532.2080078125 1008.241027832031 L 1532.194946289063 1008.244018554688 L 1532.182983398438 1008.247009277344 C 1531.963012695313 1008.302001953125 1531.764038085938 1008.35302734375 1531.553955078125 1008.408996582031 C 1531.267944335938 1008.486022949219 1530.983032226563 1008.567016601563 1530.68505859375 1008.656005859375 C 1530.490966796875 1008.713989257813 1530.282958984375 1008.776000976563 1530.06396484375 1008.846008300781 L 1530.055053710938 1008.848999023438 L 1530.045043945313 1008.851013183594 C 1529.782958984375 1008.935974121094 1529.510009765625 1009.028015136719 1529.18603515625 1009.142028808594 L 1529.176025390625 1009.14599609375 L 1529.166015625 1009.148986816406 L 1529.030029296875 1009.197021484375 C 1528.899047851563 1009.242980957031 1528.75 1009.294982910156 1528.5849609375 1009.356994628906 C 1528.31201171875 1009.458984375 1528.032958984375 1009.568969726563 1527.681030273438 1009.713012695313 C 1527.642944335938 1009.72802734375 1527.60498046875 1009.742980957031 1527.567993164063 1009.757995605469 C 1527.451049804688 1009.804016113281 1527.305053710938 1009.861999511719 1527.141967773438 1009.932983398438 C 1526.795043945313 1010.080993652344 1526.469970703125 1010.231018066406 1526.16796875 1010.372009277344 L 1526.156982421875 1010.377014160156 L 1526.142944335938 1010.383972167969 C 1526.121948242188 1010.393981933594 1526.099975585938 1010.403015136719 1526.078002929688 1010.413024902344 C 1525.996948242188 1010.448974609375 1525.886962890625 1010.4990234375 1525.760986328125 1010.559997558594 L 1525.755004882813 1010.56201171875 L 1525.75 1010.565002441406 C 1525.274047851563 1010.796020507813 1524.8330078125 1011.02197265625 1524.401977539063 1011.255981445313 C 1524.297973632813 1011.31298828125 1524.212036132813 1011.361999511719 1524.156005859375 1011.39501953125 L 1524.129028320313 1011.411010742188 C 1523.723022460938 1011.635009765625 1523.387939453125 1011.828002929688 1523.078979492188 1012.015991210938 C 1522.932006835938 1012.10400390625 1522.805053710938 1012.184997558594 1522.703002929688 1012.2509765625 L 1522.609985351563 1012.309997558594 C 1522.288940429688 1012.510009765625 1522.037963867188 1012.671020507813 1521.798950195313 1012.830017089844 C 1521.64794921875 1012.931030273438 1521.516967773438 1013.023010253906 1521.401000976563 1013.10400390625 L 1521.288940429688 1013.182006835938 L 1521.282958984375 1013.185974121094 L 1521.276977539063 1013.190002441406 C 1521.057006835938 1013.343994140625 1520.807983398438 1013.518005371094 1520.552978515625 1013.705993652344 C 1520.385986328125 1013.828979492188 1520.233032226563 1013.945983886719 1520.098022460938 1014.049987792969 L 1520.036987304688 1014.096984863281 L 1520.032958984375 1014.099975585938 L 1520.030029296875 1014.101989746094 C 1519.77001953125 1014.302001953125 1519.553955078125 1014.473022460938 1519.348999023438 1014.638977050781 C 1519.193969726563 1014.763977050781 1519.031005859375 1014.898986816406 1518.849975585938 1015.052978515625 C 1518.628051757813 1015.237976074219 1518.406982421875 1015.429992675781 1518.192016601563 1015.620971679688 L 1518.18896484375 1015.6240234375 L 1518.18603515625 1015.627014160156 C 1518.04296875 1015.754028320313 1517.8740234375 1015.905029296875 1517.697998046875 1016.068969726563 C 1517.505004882813 1016.247985839844 1517.302001953125 1016.442016601563 1517.078002929688 1016.661010742188 C 1516.944946289063 1016.789978027344 1516.787963867188 1016.942993164063 1516.623046875 1017.109008789063 L 1516.614990234375 1017.117004394531 L 1516.60595703125 1017.1259765625 C 1516.389038085938 1017.346984863281 1516.18603515625 1017.564025878906 1516.011962890625 1017.75 L 1515.946044921875 1017.818969726563 C 1515.836059570313 1017.93701171875 1515.7099609375 1018.070007324219 1515.574951171875 1018.219970703125 C 1515.348022460938 1018.471984863281 1515.14404296875 1018.713012695313 1514.963989257813 1018.924987792969 L 1514.958984375 1018.929992675781 L 1514.954956054688 1018.934997558594 C 1514.922973632813 1018.973022460938 1514.890014648438 1019.010986328125 1514.857055664063 1019.049011230469 C 1514.781982421875 1019.135986328125 1514.68896484375 1019.244018554688 1514.588989257813 1019.366027832031 L 1514.586059570313 1019.369018554688 L 1514.583984375 1019.372985839844 C 1514.342041015625 1019.6669921875 1514.116943359375 1019.956970214844 1513.910034179688 1020.226989746094 L 1513.902954101563 1020.236999511719 L 1513.89404296875 1020.247985839844 L 1513.85302734375 1020.299987792969 C 1513.801025390625 1020.366027832031 1513.73095703125 1020.455993652344 1513.651000976563 1020.56298828125 C 1513.362060546875 1020.950012207031 1513.069946289063 1021.359985351563 1512.784057617188 1021.781005859375 C 1512.696044921875 1021.909973144531 1512.6240234375 1022.023986816406 1512.571044921875 1022.106994628906 C 1512.556030273438 1022.130004882813 1512.5419921875 1022.153015136719 1512.526977539063 1022.176025390625 L 1512.52197265625 1022.182983398438 L 1512.516967773438 1022.190979003906 C 1512.344970703125 1022.452026367188 1512.151000976563 1022.747985839844 1511.954956054688 1023.068969726563 C 1511.857055664063 1023.22802734375 1511.77197265625 1023.375 1511.703979492188 1023.494018554688 L 1511.64599609375 1023.593994140625 C 1511.487060546875 1023.862976074219 1511.343017578125 1024.109008789063 1511.192016601563 1024.383056640625 L 1511.18701171875 1024.391967773438 L 1511.182983398438 1024.400024414063 C 1511.098022460938 1024.556030273438 1511.02099609375 1024.703002929688 1510.953002929688 1024.83203125 L 1510.884033203125 1024.963012695313 L 1510.880981445313 1024.969970703125 L 1510.876953125 1024.97705078125 C 1510.753051757813 1025.213989257813 1510.620971679688 1025.468017578125 1510.489013671875 1025.734985351563 L 1510.484985351563 1025.743041992188 L 1510.48095703125 1025.7509765625 C 1510.3759765625 1025.968017578125 1510.277954101563 1026.177001953125 1510.192016601563 1026.360961914063 C 1510.053955078125 1026.656005859375 1509.942016601563 1026.902954101563 1509.838989257813 1027.140991210938 C 1509.7509765625 1027.344970703125 1509.660034179688 1027.56005859375 1509.568969726563 1027.781982421875 C 1509.451049804688 1028.072998046875 1509.348022460938 1028.3330078125 1509.256958007813 1028.577026367188 C 1509.191040039063 1028.7490234375 1509.10595703125 1028.974975585938 1509.01904296875 1029.218017578125 C 1508.974975585938 1029.342041015625 1508.931030273438 1029.468994140625 1508.885009765625 1029.60498046875 C 1506.843994140625 1029.06396484375 1504.972045898438 1028.717041015625 1503.39599609375 1028.52294921875 C 1503.56103515625 1028.108032226563 1503.767944335938 1027.681030273438 1503.983032226563 1027.337036132813 L 1508.287963867188 1020.968017578125 L 1500.618041992188 1019.681030273438 C 1499.640991210938 1019.517028808594 1498.682983398438 1019.434020996094 1497.77099609375 1019.434020996094 C 1496.338012695313 1019.434020996094 1494.97900390625 1019.638977050781 1493.714965820313 1020.041015625 L 1493.68701171875 1017.697021484375 L 1486.452026367188 1021.515014648438 L 1484.376953125 1022.609985351563 L 1483.866943359375 1022.879028320313 L 1483.432006835938 1023.257019042969 C 1482.322021484375 1024.222045898438 1481.06494140625 1025.860961914063 1480.609985351563 1028.515014648438 C 1479.7900390625 1026.369995117188 1478.743041992188 1024.306030273438 1477.491943359375 1022.3740234375 L 1477.474975585938 1022.346008300781 L 1477.470947265625 1022.341979980469 C 1477.453979492188 1022.314025878906 1477.43603515625 1022.286987304688 1477.41796875 1022.258972167969 C 1477.192016601563 1021.911987304688 1476.948974609375 1021.554992675781 1476.694946289063 1021.198974609375 C 1476.661010742188 1021.151000976563 1476.626953125 1021.10400390625 1476.593994140625 1021.057006835938 L 1476.573974609375 1021.030029296875 L 1476.568969726563 1021.02197265625 L 1476.56396484375 1021.015014648438 C 1476.322998046875 1020.679992675781 1476.072021484375 1020.344970703125 1475.817016601563 1020.018981933594 L 1475.81103515625 1020.010986328125 L 1475.805053710938 1020.004028320313 L 1475.765014648438 1019.952026367188 C 1475.725952148438 1019.901977539063 1475.68701171875 1019.85302734375 1475.64794921875 1019.804016113281 C 1475.411010742188 1019.504028320313 1475.1650390625 1019.203979492188 1474.89501953125 1018.887023925781 L 1474.881958007813 1018.872009277344 L 1474.869995117188 1018.856994628906 C 1474.807006835938 1018.784973144531 1474.744995117188 1018.713012695313 1474.682006835938 1018.640991210938 C 1474.401000976563 1018.317993164063 1474.14501953125 1018.033020019531 1473.901000976563 1017.77099609375 L 1473.89599609375 1017.765991210938 L 1473.890014648438 1017.760009765625 C 1473.837036132813 1017.703002929688 1473.781982421875 1017.64697265625 1473.72802734375 1017.590026855469 L 1473.673950195313 1017.533020019531 C 1473.43896484375 1017.288024902344 1473.160034179688 1016.997009277344 1472.859985351563 1016.703979492188 L 1472.850952148438 1016.695007324219 L 1472.840942382813 1016.685974121094 C 1472.786010742188 1016.632019042969 1472.72998046875 1016.578979492188 1472.673950195313 1016.526000976563 L 1472.615966796875 1016.471008300781 C 1472.370971679688 1016.236022949219 1472.0830078125 1015.963012695313 1471.77099609375 1015.682983398438 L 1471.755981445313 1015.669982910156 L 1471.741943359375 1015.656982421875 C 1471.694946289063 1015.616027832031 1471.64794921875 1015.575012207031 1471.599975585938 1015.534973144531 L 1471.558959960938 1015.4990234375 L 1471.556030273438 1015.497009277344 L 1471.553955078125 1015.494995117188 C 1471.280029296875 1015.254028320313 1470.98095703125 1014.994995117188 1470.656005859375 1014.72900390625 C 1470.60302734375 1014.684997558594 1470.555053710938 1014.64697265625 1470.514038085938 1014.614990234375 C 1469.512939453125 1013.804016113281 1468.43701171875 1013.036010742188 1467.316040039063 1012.331970214844 L 1467.308959960938 1012.327026367188 L 1467.305053710938 1012.323974609375 L 1467.260986328125 1012.296020507813 C 1467.198974609375 1012.255004882813 1467.114013671875 1012.200012207031 1467.010009765625 1012.137023925781 C 1466.766967773438 1011.986999511719 1466.537963867188 1011.856018066406 1466.336059570313 1011.739013671875 L 1466.213989257813 1011.669006347656 L 1466.203002929688 1011.663024902344 L 1466.192016601563 1011.656982421875 C 1466.14794921875 1011.632019042969 1466.10498046875 1011.606994628906 1466.06201171875 1011.580993652344 C 1465.953979492188 1011.518981933594 1465.819946289063 1011.440979003906 1465.671997070313 1011.359985351563 C 1465.427978515625 1011.224975585938 1465.194946289063 1011.10498046875 1464.989990234375 1010.9990234375 L 1464.93505859375 1010.971008300781 C 1464.759033203125 1010.879028320313 1464.541015625 1010.765014648438 1464.31298828125 1010.651977539063 L 1464.306030273438 1010.648986816406 L 1464.300048828125 1010.64599609375 C 1464.050048828125 1010.523010253906 1463.81396484375 1010.414978027344 1463.60498046875 1010.318969726563 L 1463.572998046875 1010.304016113281 C 1463.369995117188 1010.210998535156 1463.140991210938 1010.10498046875 1462.89599609375 1009.9990234375 L 1462.890991210938 1009.995971679688 L 1462.885986328125 1009.994018554688 C 1462.631958007813 1009.883972167969 1462.390014648438 1009.786010742188 1462.175048828125 1009.698974609375 C 1461.93994140625 1009.60302734375 1461.696044921875 1009.505981445313 1461.447998046875 1009.411987304688 L 1461.43896484375 1009.408020019531 L 1461.430053710938 1009.405029296875 C 1461.215942382813 1009.323974609375 1460.985961914063 1009.241027832031 1460.725952148438 1009.148986816406 L 1460.723022460938 1009.148010253906 L 1460.718994140625 1009.14697265625 C 1460.468994140625 1009.059020996094 1460.214965820313 1008.973999023438 1459.964965820313 1008.892028808594 L 1459.9580078125 1008.888977050781 L 1459.951049804688 1008.887023925781 C 1459.713989257813 1008.810974121094 1459.47802734375 1008.736999511719 1459.248046875 1008.668029785156 C 1458.963989257813 1008.5830078125 1458.694946289063 1008.507995605469 1458.447021484375 1008.440002441406 L 1458.432983398438 1008.435974121094 L 1458.4189453125 1008.432006835938 C 1458.217041015625 1008.377990722656 1457.988037109375 1008.317016601563 1457.75 1008.257019042969 L 1457.740966796875 1008.255004882813 L 1457.733032226563 1008.252990722656 C 1457.427001953125 1008.177001953125 1457.135986328125 1008.111999511719 1456.885986328125 1008.057006835938 C 1456.677978515625 1008.012023925781 1456.442993164063 1007.960021972656 1456.191040039063 1007.909973144531 C 1455.870971679688 1007.846008300781 1455.567993164063 1007.794982910156 1455.301025390625 1007.75 L 1455.296020507813 1007.7490234375 L 1455.291015625 1007.747985839844 L 1455.156005859375 1007.724975585938 C 1454.998046875 1007.697998046875 1454.819946289063 1007.668029785156 1454.620971679688 1007.638977050781 C 1454.27197265625 1007.586975097656 1453.944946289063 1007.549011230469 1453.661987304688 1007.515991210938 C 1453.612060546875 1007.510009765625 1453.56201171875 1007.504028320313 1453.511962890625 1007.497009277344 C 1453.375 1007.481018066406 1453.218017578125 1007.460998535156 1453.04296875 1007.443969726563 L 1453.036987304688 1007.442993164063 L 1453.031005859375 1007.442016601563 C 1452.649047851563 1007.405029296875 1452.284057617188 1007.380981445313 1451.962036132813 1007.359985351563 L 1451.942993164063 1007.359008789063 C 1451.902954101563 1007.356018066406 1451.863037109375 1007.35302734375 1451.822998046875 1007.349975585938 C 1451.715942382813 1007.341979980469 1451.58203125 1007.330993652344 1451.430053710938 1007.322998046875 L 1451.4189453125 1007.322998046875 L 1451.406982421875 1007.322021484375 C 1450.8349609375 1007.294982910156 1450.302001953125 1007.281005859375 1449.777954101563 1007.281005859375 C 1445.323974609375 1007.281005859375 1441.001953125 1008.155029296875 1436.930053710938 1009.877014160156 C 1432.9990234375 1011.539001464844 1429.469970703125 1013.919006347656 1426.441040039063 1016.947998046875 C 1423.411987304688 1019.976989746094 1421.032958984375 1023.505981445313 1419.369995117188 1027.43701171875 C 1417.64794921875 1031.509033203125 1416.775024414063 1035.8310546875 1416.775024414063 1040.284057617188 C 1416.775024414063 1044.737060546875 1417.64794921875 1049.06005859375 1419.369995117188 1053.131958007813 C 1421.032958984375 1057.06298828125 1423.411987304688 1060.592041015625 1426.441040039063 1063.620971679688 C 1429.469970703125 1066.650024414063 1432.9990234375 1069.029052734375 1436.930053710938 1070.692016601563 C 1440.828979492188 1072.340942382813 1444.95703125 1073.211059570313 1449.211059570313 1073.282958984375 C 1449.2080078125 1074.175048828125 1449.220947265625 1074.947998046875 1449.232055664063 1075.572021484375 C 1449.234985351563 1075.758056640625 1449.239013671875 1075.961059570313 1449.240966796875 1076.151977539063 C 1448.317993164063 1077.787963867188 1446.732055664063 1080.883056640625 1446.038940429688 1085.2099609375 C 1445.599975585938 1087.951049804688 1445.597045898438 1090.77099609375 1446.027954101563 1093.592041015625 C 1446.534057617188 1096.904052734375 1447.64794921875 1100.254028320313 1449.338012695313 1103.548950195313 C 1450.470947265625 1105.758056640625 1452.287963867188 1107.753051757813 1454.735961914063 1109.47802734375 C 1456.777954101563 1110.916015625 1459.31201171875 1112.202026367188 1462.265991210938 1113.297973632813 C 1465.780029296875 1114.60205078125 1469.991943359375 1115.6689453125 1474.675048828125 1116.451049804688 C 1474.072998046875 1117.68505859375 1473.58203125 1118.634033203125 1473.241943359375 1119.208984375 C 1473.078979492188 1119.484985351563 1472.9169921875 1119.758056640625 1472.755981445313 1120.027954101563 C 1471.933959960938 1121.407958984375 1471.157958984375 1122.711059570313 1470.572021484375 1123.993041992188 C 1469.904052734375 1125.452026367188 1469.098999023438 1127.66796875 1469.801025390625 1130.045043945313 C 1470.359985351563 1131.942993164063 1471.661987304688 1133.413940429688 1472.387939453125 1134.123046875 C 1474.046020507813 1135.739990234375 1475.927001953125 1136.594970703125 1477.829956054688 1136.594970703125 C 1478.472045898438 1136.594970703125 1479.094970703125 1136.498046875 1479.682006835938 1136.31201171875 C 1479.765991210938 1136.515991210938 1479.85595703125 1136.711059570313 1479.953002929688 1136.899047851563 L 1479.953979492188 1136.901977539063 L 1479.9560546875 1136.905029296875 C 1480.027954101563 1137.0439453125 1480.10498046875 1137.180053710938 1480.18701171875 1137.31494140625 C 1479.177001953125 1138.631958007813 1478.447021484375 1139.985961914063 1478.015014648438 1141.340942382813 C 1477.427978515625 1143.181030273438 1477.4169921875 1144.998046875 1477.983032226563 1146.594970703125 C 1478.781982421875 1148.844970703125 1480.625 1150.461059570313 1483.04296875 1151.029052734375 C 1484.328979492188 1151.3310546875 1485.826049804688 1151.39404296875 1486.85498046875 1151.39404296875 C 1487.953002929688 1151.39404296875 1490.098022460938 1151.317016601563 1492.135986328125 1150.803955078125 C 1494.511962890625 1150.204956054688 1495.97998046875 1149.177978515625 1496.883056640625 1148.08203125 C 1497.786010742188 1149.177978515625 1499.253051757813 1150.204956054688 1501.629028320313 1150.803955078125 C 1503.66796875 1151.317016601563 1505.81298828125 1151.39404296875 1506.911010742188 1151.39404296875 C 1507.93994140625 1151.39404296875 1509.43701171875 1151.3310546875 1510.723999023438 1151.029052734375 C 1512.277954101563 1150.663940429688 1513.594970703125 1149.864990234375 1514.548950195313 1148.744018554688 C 1518.489013671875 1150.525024414063 1522.282958984375 1151.27099609375 1522.447998046875 1151.302978515625 L 1522.91796875 1151.39404296875 L 1523.39794921875 1151.39404296875 L 1663.58203125 1151.39404296875 M 1663.58203125 1155.39404296875 L 1523.39794921875 1155.39404296875 L 1522.91796875 1155.39404296875 C 1522.66259765625 1155.39404296875 1522.40771484375 1155.36962890625 1522.156982421875 1155.321044921875 L 1521.68701171875 1155.22998046875 C 1521.323364257813 1155.159423828125 1518.590454101563 1154.608520507813 1515.286987304688 1153.371215820313 C 1514.1953125 1154.086059570313 1512.96630859375 1154.611083984375 1511.638916015625 1154.922973632813 C 1510.306518554688 1155.235717773438 1508.71630859375 1155.39404296875 1506.911010742188 1155.39404296875 C 1505.629150390625 1155.39404296875 1503.111450195313 1155.301635742188 1500.652954101563 1154.682983398438 C 1499.2490234375 1154.3291015625 1497.990112304688 1153.83349609375 1496.8828125 1153.200317382813 C 1495.775756835938 1153.833374023438 1494.51708984375 1154.328857421875 1493.113891601563 1154.6826171875 C 1490.65478515625 1155.301635742188 1488.136962890625 1155.39404296875 1486.85498046875 1155.39404296875 C 1485.049438476563 1155.39404296875 1483.459228515625 1155.235595703125 1482.128540039063 1154.923095703125 C 1480.306518554688 1154.4951171875 1478.62646484375 1153.640258789063 1477.269409179688 1152.450927734375 C 1475.890625 1151.242431640625 1474.833862304688 1149.680419921875 1474.213623046875 1147.933471679688 C 1473.352416992188 1145.50390625 1473.349487304688 1142.804565429688 1474.204223632813 1140.125244140625 C 1474.220581054688 1140.074096679688 1474.237060546875 1140.023193359375 1474.254028320313 1139.972045898438 C 1472.594970703125 1139.381469726563 1471.02099609375 1138.377075195313 1469.595336914063 1136.98681640625 C 1468.364501953125 1135.78466796875 1466.737915039063 1133.802734375 1465.963989257813 1131.175170898438 C 1465.471801757813 1129.5087890625 1465.397338867188 1127.74169921875 1465.743530273438 1125.92578125 C 1466.034912109375 1124.397338867188 1466.563110351563 1123.140380859375 1466.93505859375 1122.328002929688 C 1467.4052734375 1121.299072265625 1467.950073242188 1120.311645507813 1468.533935546875 1119.309326171875 C 1465.745483398438 1118.661010742188 1463.182861328125 1117.90478515625 1460.874267578125 1117.048095703125 C 1457.598510742188 1115.832763671875 1454.75830078125 1114.386108398438 1452.432861328125 1112.748413085938 C 1449.448120117188 1110.645263671875 1447.209716796875 1108.164428710938 1445.77880859375 1105.374267578125 C 1443.8916015625 1101.695068359375 1442.64501953125 1097.934204101563 1442.073852539063 1094.1962890625 C 1441.579833984375 1090.962158203125 1441.585083007813 1087.725952148438 1442.089233398438 1084.577392578125 C 1442.517211914063 1081.90576171875 1443.273193359375 1079.371459960938 1444.38427734375 1076.897827148438 C 1441.2890625 1076.445922851563 1438.272216796875 1075.602661132813 1435.371948242188 1074.376098632813 C 1430.9638671875 1072.511352539063 1427.007446289063 1069.844360351563 1423.612548828125 1066.449340820313 C 1420.217651367188 1063.054565429688 1417.550659179688 1059.09814453125 1415.68603515625 1054.6904296875 C 1413.75439453125 1050.122802734375 1412.775024414063 1045.276000976563 1412.775024414063 1040.284057617188 C 1412.775024414063 1035.292846679688 1413.75439453125 1030.4462890625 1415.685913085938 1025.879028320313 C 1417.550659179688 1021.470825195313 1420.217651367188 1017.514526367188 1423.612670898438 1014.119506835938 C 1427.009521484375 1010.72265625 1430.966064453125 1008.0556640625 1435.372436523438 1006.192749023438 C 1439.941040039063 1004.2607421875 1444.787841796875 1003.281005859375 1449.777954101563 1003.281005859375 C 1450.351440429688 1003.281005859375 1450.943237304688 1003.295776367188 1451.587036132813 1003.326049804688 C 1451.604736328125 1003.326782226563 1451.62255859375 1003.327575683594 1451.640380859375 1003.328552246094 C 1451.812377929688 1003.337585449219 1451.9599609375 1003.348815917969 1452.067626953125 1003.357055664063 L 1452.12109375 1003.361083984375 L 1452.200317382813 1003.367065429688 C 1452.207641601563 1003.367492675781 1452.214965820313 1003.367980957031 1452.222290039063 1003.368469238281 C 1452.53564453125 1003.388916015625 1452.964599609375 1003.416870117188 1453.416625976563 1003.460693359375 C 1453.44677734375 1003.463562011719 1453.476928710938 1003.466857910156 1453.506958007813 1003.470458984375 C 1453.652099609375 1003.4853515625 1453.77978515625 1003.500610351563 1453.885375976563 1003.513244628906 L 1453.97607421875 1003.524047851563 C 1454.006225585938 1003.527587890625 1454.0361328125 1003.531433105469 1454.066162109375 1003.535583496094 C 1454.087036132813 1003.538513183594 1454.10791015625 1003.540832519531 1454.12890625 1003.543334960938 L 1454.141967773438 1003.544860839844 C 1454.434692382813 1003.579040527344 1454.798217773438 1003.621459960938 1455.19873046875 1003.680908203125 L 1455.19873046875 1003.680908203125 C 1455.432861328125 1003.715087890625 1455.640502929688 1003.749816894531 1455.829956054688 1003.782165527344 L 1455.962890625 1003.804809570313 C 1455.977172851563 1003.807250976563 1455.991455078125 1003.809753417969 1456.005737304688 1003.812316894531 C 1456.280883789063 1003.858764648438 1456.6142578125 1003.915466308594 1456.974853515625 1003.987548828125 C 1457.215087890625 1004.035278320313 1457.434692382813 1004.082946777344 1457.628540039063 1004.125061035156 L 1457.731811523438 1004.1474609375 C 1457.736083984375 1004.1484375 1457.740478515625 1004.149353027344 1457.744873046875 1004.150329589844 C 1458.029541015625 1004.212890625 1458.339233398438 1004.282348632813 1458.67822265625 1004.3662109375 C 1458.69482421875 1004.370178222656 1458.711303710938 1004.374206542969 1458.727783203125 1004.378356933594 C 1458.994018554688 1004.445495605469 1459.241821289063 1004.511474609375 1459.453247070313 1004.568054199219 C 1459.470581054688 1004.572692871094 1459.487915039063 1004.577514648438 1459.505249023438 1004.582397460938 L 1459.519287109375 1004.586303710938 C 1459.520385742188 1004.586608886719 1459.521484375 1004.5869140625 1459.5224609375 1004.587219238281 C 1459.771850585938 1004.655700683594 1460.069091796875 1004.738464355469 1460.394653320313 1004.8359375 C 1460.620239257813 1004.903503417969 1460.862182617188 1004.978759765625 1461.13525390625 1005.066162109375 C 1461.182983398438 1005.080810546875 1461.23046875 1005.096435546875 1461.277465820313 1005.112854003906 C 1461.548950195313 1005.202209472656 1461.780395507813 1005.280517578125 1461.997314453125 1005.356384277344 C 1462.0185546875 1005.363525390625 1462.040283203125 1005.371032714844 1462.060546875 1005.378234863281 C 1462.361206054688 1005.484619140625 1462.591918945313 1005.568359375 1462.800048828125 1005.646667480469 C 1462.84033203125 1005.661254882813 1462.880249023438 1005.676513671875 1462.920043945313 1005.692321777344 C 1463.158203125 1005.783081054688 1463.40771484375 1005.881774902344 1463.6806640625 1005.993103027344 C 1463.89501953125 1006.079956054688 1464.159057617188 1006.186950683594 1464.443115234375 1006.309448242188 C 1464.481811523438 1006.32568359375 1464.520263671875 1006.342590332031 1464.558349609375 1006.360107421875 C 1464.78369140625 1006.45849609375 1464.985473632813 1006.551147460938 1465.165771484375 1006.633850097656 L 1465.239501953125 1006.667785644531 C 1465.248779296875 1006.671936035156 1465.257934570313 1006.676208496094 1465.26708984375 1006.680541992188 L 1465.284301757813 1006.688537597656 L 1465.302368164063 1006.696838378906 C 1465.505981445313 1006.790344238281 1465.757446289063 1006.905822753906 1466.030517578125 1007.039489746094 C 1466.050170898438 1007.048889160156 1466.069946289063 1007.058410644531 1466.089477539063 1007.068115234375 C 1466.348510742188 1007.196533203125 1466.591918945313 1007.323608398438 1466.771850585938 1007.417663574219 L 1466.806762695313 1007.435424804688 C 1466.8134765625 1007.438842773438 1466.820190429688 1007.442321777344 1466.826904296875 1007.44580078125 L 1466.856567382813 1007.461059570313 C 1467.063110351563 1007.567810058594 1467.319458007813 1007.700378417969 1467.596801757813 1007.853515625 C 1467.755249023438 1007.940307617188 1467.896240234375 1008.021484375 1467.99951171875 1008.080932617188 L 1468.052978515625 1008.111694335938 C 1468.079833984375 1008.127075195313 1468.106567382813 1008.142822265625 1468.133056640625 1008.158874511719 C 1468.137329101563 1008.161499023438 1468.141723632813 1008.1640625 1468.14599609375 1008.166564941406 C 1468.165405273438 1008.17724609375 1468.1845703125 1008.188049316406 1468.203735351563 1008.199035644531 L 1468.325805664063 1008.26904296875 C 1468.3310546875 1008.272033691406 1468.336303710938 1008.275024414063 1468.341430664063 1008.278015136719 L 1468.421142578125 1008.324157714844 C 1468.610229492188 1008.433532714844 1468.844848632813 1008.569213867188 1469.099853515625 1008.726379394531 C 1469.2119140625 1008.794494628906 1469.321166992188 1008.863525390625 1469.432250976563 1008.936462402344 L 1469.44775390625 1008.9462890625 C 1469.468139648438 1008.959228515625 1469.488403320313 1008.972290039063 1469.508422851563 1008.985595703125 C 1470.7314453125 1009.757202148438 1471.9072265625 1010.597717285156 1473.004516601563 1011.484741210938 C 1473.072265625 1011.537963867188 1473.135864257813 1011.589111328125 1473.197631835938 1011.640258789063 C 1473.57470703125 1011.949096679688 1473.910034179688 1012.240417480469 1474.165405273438 1012.464904785156 C 1474.175415039063 1012.473449707031 1474.185302734375 1012.481994628906 1474.195190429688 1012.490661621094 L 1474.207397460938 1012.501403808594 C 1474.261108398438 1012.546813964844 1474.314208984375 1012.592834472656 1474.367065429688 1012.638977050781 C 1474.38525390625 1012.654724121094 1474.404174804688 1012.671569824219 1474.4228515625 1012.688415527344 C 1474.429443359375 1012.694274902344 1474.43603515625 1012.700134277344 1474.442626953125 1012.7060546875 C 1474.804931640625 1013.031188964844 1475.13134765625 1013.341186523438 1475.376708984375 1013.576416015625 L 1475.422485351563 1013.619873046875 L 1475.422485351563 1013.619873046875 C 1475.481323242188 1013.675476074219 1475.5400390625 1013.731323242188 1475.59814453125 1013.787658691406 C 1475.62109375 1013.809265136719 1475.643676757813 1013.831237792969 1475.666137695313 1013.853393554688 C 1476.006591796875 1014.186401367188 1476.311279296875 1014.504089355469 1476.556640625 1014.759948730469 L 1476.560913085938 1014.764343261719 C 1476.56591796875 1014.769592285156 1476.57080078125 1014.774780273438 1476.575805664063 1014.779968261719 L 1476.6298828125 1014.836975097656 L 1476.676879882813 1014.886108398438 C 1476.709106445313 1014.919677734375 1476.741333007813 1014.953308105469 1476.773193359375 1014.986999511719 C 1476.791748046875 1015.006103515625 1476.81005859375 1015.025390625 1476.828125 1015.044860839844 C 1477.10546875 1015.342651367188 1477.390502929688 1015.660095214844 1477.69970703125 1016.015380859375 C 1477.7314453125 1016.051818847656 1477.763061523438 1016.088195800781 1477.794677734375 1016.124633789063 L 1477.881103515625 1016.223876953125 C 1477.905151367188 1016.251342773438 1477.928833007813 1016.279174804688 1477.952026367188 1016.307312011719 C 1478.24267578125 1016.648864746094 1478.513916015625 1016.979248046875 1478.780517578125 1017.316650390625 C 1478.826293945313 1017.374084472656 1478.871826171875 1017.431457519531 1478.917602539063 1017.490051269531 C 1478.923217773438 1017.497253417969 1478.928833007813 1017.504455566406 1478.934326171875 1017.51171875 L 1478.941528320313 1017.52099609375 C 1478.957153320313 1017.540649414063 1478.972534179688 1017.560424804688 1478.98779296875 1017.580383300781 C 1479.265625 1017.936218261719 1479.54248046875 1018.305786132813 1479.811157226563 1018.679260253906 L 1479.81787109375 1018.688537597656 C 1479.824462890625 1018.69775390625 1479.8310546875 1018.706970214844 1479.837524414063 1018.716247558594 C 1479.84814453125 1018.730895996094 1479.858520507813 1018.745544433594 1479.868896484375 1018.760314941406 C 1479.880493164063 1018.776794433594 1479.892333984375 1018.793273925781 1479.904174804688 1018.809814453125 C 1479.92138671875 1018.833984375 1479.938720703125 1018.858276367188 1479.9560546875 1018.882751464844 C 1480.23583984375 1019.275024414063 1480.509643554688 1019.676513671875 1480.769897460938 1020.076232910156 C 1480.773559570313 1020.081726074219 1480.777099609375 1020.087158203125 1480.780639648438 1020.092651367188 L 1480.786743164063 1020.102111816406 C 1480.7900390625 1020.107177734375 1480.793212890625 1020.112182617188 1480.796508789063 1020.117248535156 C 1480.81494140625 1020.144775390625 1480.833129882813 1020.172607421875 1480.850952148438 1020.20068359375 L 1481.243041992188 1019.859924316406 C 1481.474853515625 1019.658508300781 1481.72900390625 1019.484436035156 1482.000610351563 1019.341125488281 L 1482.510620117188 1019.072082519531 L 1484.585327148438 1017.977355957031 L 1491.820190429688 1014.159423828125 C 1492.405151367188 1013.850646972656 1493.046508789063 1013.697021484375 1493.686889648438 1013.697021484375 C 1494.3955078125 1013.697021484375 1495.10302734375 1013.885131835938 1495.732055664063 1014.259338378906 C 1496.243896484375 1014.563842773438 1496.672241210938 1014.972717285156 1496.996215820313 1015.450012207031 C 1497.253051757813 1015.439392089844 1497.511474609375 1015.434020996094 1497.77099609375 1015.434020996094 C 1498.904907226563 1015.434020996094 1500.085571289063 1015.535705566406 1501.280151367188 1015.736206054688 L 1508.949951171875 1017.023193359375 C 1509.608642578125 1017.133728027344 1510.217529296875 1017.404846191406 1510.730224609375 1017.800170898438 L 1510.732788085938 1017.796997070313 C 1510.733520507813 1017.795959472656 1510.734375 1017.794921875 1510.735229492188 1017.793823242188 C 1510.937622070313 1017.529663085938 1511.179077148438 1017.217651367188 1511.448364257813 1016.888488769531 C 1511.472534179688 1016.85791015625 1511.4970703125 1016.827758789063 1511.522094726563 1016.797912597656 C 1511.637451171875 1016.657897949219 1511.74072265625 1016.537719726563 1511.829345703125 1016.43505859375 C 1511.830932617188 1016.433227539063 1511.83251953125 1016.431396484375 1511.834106445313 1016.429504394531 L 1511.840087890625 1016.422668457031 C 1511.854248046875 1016.406311035156 1511.868408203125 1016.390014648438 1511.88232421875 1016.373718261719 C 1511.90625 1016.345031738281 1511.930419921875 1016.316711425781 1511.955078125 1016.288696289063 C 1512.13330078125 1016.078796386719 1512.353881835938 1015.819458007813 1512.6025390625 1015.543334960938 C 1512.731811523438 1015.399658203125 1512.850952148438 1015.272338867188 1512.94677734375 1015.170043945313 L 1513.019775390625 1015.091918945313 C 1513.03076171875 1015.080078125 1513.041870117188 1015.068359375 1513.053100585938 1015.056640625 L 1513.10546875 1015.001770019531 C 1513.284790039063 1014.810180664063 1513.507080078125 1014.572814941406 1513.751342773438 1014.324035644531 C 1513.764038085938 1014.311096191406 1513.776733398438 1014.298278808594 1513.789672851563 1014.285461425781 L 1513.7978515625 1014.27734375 C 1513.979125976563 1014.095031738281 1514.147827148438 1013.930541992188 1514.289916992188 1013.792785644531 C 1514.539184570313 1013.549255371094 1514.76416015625 1013.33447265625 1514.977661132813 1013.136474609375 C 1515.163940429688 1012.963073730469 1515.338745117188 1012.80615234375 1515.489135742188 1012.672424316406 C 1515.504516601563 1012.658264160156 1515.519897460938 1012.644348144531 1515.53515625 1012.630859375 C 1515.801147460938 1012.39453125 1516.043579101563 1012.185119628906 1516.276000976563 1011.991149902344 C 1516.47021484375 1011.826110839844 1516.65234375 1011.675109863281 1516.831787109375 1011.5302734375 L 1516.831787109375 1011.5302734375 C 1517.079467773438 1011.329833984375 1517.320678710938 1011.139587402344 1517.591186523438 1010.931457519531 C 1517.603393554688 1010.922119140625 1517.615600585938 1010.912841796875 1517.6279296875 1010.903564453125 L 1517.657592773438 1010.880676269531 C 1517.803955078125 1010.767944335938 1517.981201171875 1010.632263183594 1518.180786132813 1010.485290527344 C 1518.465942382813 1010.275146484375 1518.740966796875 1010.082580566406 1518.962036132813 1009.927795410156 L 1518.98291015625 1009.913269042969 C 1518.998657226563 1009.902221679688 1519.014404296875 1009.891296386719 1519.0302734375 1009.880554199219 L 1519.115478515625 1009.821228027344 L 1519.144653320313 1009.800964355469 C 1519.260620117188 1009.719848632813 1519.405151367188 1009.618896484375 1519.575073242188 1009.505187988281 C 1519.577880859375 1009.503356933594 1519.58056640625 1009.501525878906 1519.583374023438 1009.499694824219 C 1519.854858398438 1009.319030761719 1520.13232421875 1009.140991210938 1520.48095703125 1008.923645019531 L 1520.54443359375 1008.88330078125 C 1520.654663085938 1008.812194824219 1520.817504882813 1008.708251953125 1521.008911132813 1008.59326171875 C 1521.3505859375 1008.385620117188 1521.712890625 1008.176391601563 1522.14404296875 1007.937805175781 C 1522.24169921875 1007.880554199219 1522.357055664063 1007.815368652344 1522.4794921875 1007.748291015625 C 1522.484130859375 1007.745727539063 1522.488891601563 1007.7431640625 1522.493530273438 1007.740600585938 C 1522.960327148438 1007.487182617188 1523.437377929688 1007.242126464844 1523.950317382813 1006.992248535156 C 1523.997680664063 1006.968322753906 1524.04541015625 1006.945373535156 1524.093627929688 1006.92333984375 C 1524.21044921875 1006.86767578125 1524.3291015625 1006.81298828125 1524.447631835938 1006.760314941406 C 1524.4521484375 1006.758361816406 1524.45654296875 1006.75634765625 1524.4609375 1006.75439453125 C 1524.472045898438 1006.749206542969 1524.483154296875 1006.744079589844 1524.494262695313 1006.738952636719 C 1524.820068359375 1006.5869140625 1525.173828125 1006.424133300781 1525.557983398438 1006.259948730469 C 1525.756591796875 1006.173706054688 1525.929565429688 1006.104309082031 1526.087036132813 1006.042175292969 C 1526.121215820313 1006.028442382813 1526.155883789063 1006.014709472656 1526.190673828125 1006.0009765625 C 1526.570190429688 1005.845825195313 1526.8759765625 1005.725524902344 1527.17822265625 1005.612487792969 L 1527.17822265625 1005.612487792969 C 1527.373413085938 1005.539184570313 1527.54296875 1005.479675292969 1527.679321289063 1005.431884765625 L 1527.705444335938 1005.422729492188 L 1527.833740234375 1005.377380371094 C 1527.843627929688 1005.373901367188 1527.853637695313 1005.370422363281 1527.863525390625 1005.367004394531 C 1528.202514648438 1005.247802734375 1528.50390625 1005.145690917969 1528.811645507813 1005.0458984375 C 1528.846435546875 1005.03466796875 1528.881225585938 1005.023864746094 1528.916259765625 1005.013610839844 C 1529.138671875 1004.943298339844 1529.3427734375 1004.88232421875 1529.52490234375 1004.827941894531 L 1529.540405273438 1004.823303222656 C 1529.873291015625 1004.723876953125 1530.191650390625 1004.633361816406 1530.513549804688 1004.546630859375 C 1530.51708984375 1004.545654296875 1530.520751953125 1004.544738769531 1530.524291992188 1004.543823242188 C 1530.742309570313 1004.485656738281 1530.961303710938 1004.429321289063 1531.21337890625 1004.366333007813 L 1531.221923828125 1004.364196777344 C 1531.24267578125 1004.359008789063 1531.263549804688 1004.353942871094 1531.284301757813 1004.349060058594 C 1531.574462890625 1004.2783203125 1531.882568359375 1004.207275390625 1532.225219726563 1004.132080078125 C 1532.2431640625 1004.128112792969 1532.26123046875 1004.124267578125 1532.279296875 1004.12060546875 C 1532.485229492188 1004.075744628906 1532.69384765625 1004.032104492188 1532.931518554688 1003.984130859375 C 1532.963134765625 1003.977722167969 1532.994873046875 1003.971740722656 1533.026611328125 1003.966125488281 C 1533.306640625 1003.911804199219 1533.608642578125 1003.857971191406 1533.997924804688 1003.792846679688 C 1534.016967773438 1003.789672851563 1534.036010742188 1003.78662109375 1534.055053710938 1003.78369140625 C 1534.249145507813 1003.7509765625 1534.472534179688 1003.714050292969 1534.715942382813 1003.678039550781 C 1535.101928710938 1003.62060546875 1535.465087890625 1003.577880859375 1535.756958007813 1003.543579101563 L 1535.792846679688 1003.539428710938 C 1535.802734375 1003.538208007813 1535.812866210938 1003.537109375 1535.822875976563 1003.536010742188 L 1535.849975585938 1003.533020019531 C 1536.028930664063 1003.510803222656 1536.2490234375 1003.483703613281 1536.50537109375 1003.45947265625 C 1536.94189453125 1003.416564941406 1537.350830078125 1003.389038085938 1537.659912109375 1003.368774414063 C 1537.692138671875 1003.366088867188 1537.724365234375 1003.363830566406 1537.756591796875 1003.361938476563 L 1537.775512695313 1003.360412597656 C 1537.782958984375 1003.359802246094 1537.79443359375 1003.35888671875 1537.801879882813 1003.358337402344 C 1537.965454101563 1003.346008300781 1538.123168945313 1003.3359375 1538.2841796875 1003.327514648438 C 1538.290405273438 1003.3271484375 1538.296630859375 1003.326843261719 1538.302856445313 1003.326538085938 C 1538.9462890625 1003.2958984375 1539.538818359375 1003.281005859375 1540.114013671875 1003.281005859375 C 1545.104125976563 1003.281005859375 1549.950927734375 1004.2607421875 1554.52001953125 1006.192932128906 C 1558.92578125 1008.056091308594 1562.8818359375 1010.722961425781 1566.278442382813 1014.119567871094 C 1569.67431640625 1017.514404296875 1572.341552734375 1021.471130371094 1574.205200195313 1025.87939453125 C 1576.13720703125 1030.44775390625 1577.116943359375 1035.294311523438 1577.116943359375 1040.284057617188 C 1577.116943359375 1040.653076171875 1577.111450195313 1041.022338867188 1577.100463867188 1041.391479492188 C 1599.53466796875 1040.758178710938 1613.750244140625 1040.40771484375 1619.384521484375 1040.349243164063 L 1620.265869140625 1040.339233398438 C 1620.280883789063 1040.339111328125 1620.296020507813 1040.338989257813 1620.31103515625 1040.338989257813 C 1620.765380859375 1040.338989257813 1621.216430664063 1040.416381835938 1621.64501953125 1040.567993164063 L 1622.47900390625 1040.863037109375 C 1623.45556640625 1041.208129882813 1624.3125 1041.483520507813 1625.060668945313 1041.703369140625 C 1625.195068359375 1041.489990234375 1625.350219726563 1041.288208007813 1625.525146484375 1041.101196289063 C 1626.281982421875 1040.292236328125 1627.339721679688 1039.833984375 1628.446044921875 1039.833984375 C 1628.4619140625 1039.833984375 1628.477783203125 1039.834106445313 1628.49365234375 1039.834228515625 L 1633.966552734375 1039.899291992188 L 1650.93017578125 1040.100341796875 C 1651.836547851563 1038.467163085938 1652.81005859375 1036.9033203125 1653.838012695313 1035.430541992188 C 1657.841674804688 1029.69775390625 1662.489013671875 1025.6005859375 1667.651611328125 1023.252014160156 L 1671.085327148438 1021.690734863281 C 1671.61767578125 1021.44873046875 1672.181518554688 1021.331848144531 1672.739624023438 1021.331848144531 C 1673.885864257813 1021.331848144531 1675.00830078125 1021.82470703125 1675.786743164063 1022.739135742188 L 1678.230834960938 1025.610107421875 C 1679.997436523438 1027.684204101563 1681.60546875 1030.258422851563 1683.009643554688 1033.260498046875 C 1684.374633789063 1036.178833007813 1685.47705078125 1039.348876953125 1686.286254882813 1042.682495117188 C 1687.770751953125 1048.798706054688 1688.0791015625 1054.699951171875 1687.189819335938 1059.831787109375 L 1687.26318359375 1060.068237304688 C 1687.3681640625 1060.406372070313 1687.427734375 1060.7568359375 1687.4404296875 1061.110595703125 L 1687.464477539063 1061.781616210938 C 1687.780029296875 1070.872314453125 1687.525268554688 1108.619262695313 1687.470947265625 1116.093994140625 L 1687.469848632813 1116.246704101563 L 1687.44189453125 1119.926391601563 C 1687.432373046875 1121.187744140625 1686.83251953125 1122.338989257813 1685.871459960938 1123.074096679688 C 1685.916259765625 1123.282958984375 1685.96044921875 1123.489990234375 1686.00390625 1123.695068359375 C 1686.562622070313 1126.332641601563 1686.985961914063 1128.549194335938 1687.26220703125 1130.283813476563 C 1687.81396484375 1133.763305664063 1687.935791015625 1136.103759765625 1687.002563476563 1138.492309570313 C 1686.988891601563 1138.528198242188 1686.962646484375 1138.5986328125 1686.939453125 1138.662475585938 C 1686.93701171875 1138.669189453125 1686.9345703125 1138.675903320313 1686.932006835938 1138.6826171875 C 1686.36865234375 1140.207153320313 1684.872192382813 1144.256591796875 1681.379272460938 1147.996337890625 C 1679.297729492188 1150.225708007813 1676.848876953125 1151.98681640625 1674.101196289063 1153.230224609375 C 1670.926391601563 1154.666137695313 1667.387573242188 1155.39404296875 1663.58203125 1155.39404296875 Z"/>
      </g>
      <path id="路径_11903" data-name="路径 11903" class="cls-2" d="M1663.582,1146.394c11.543,0,14.386-9.52,15.037-11.175s-3.327-18.074-3.327-18.074l3.178-.965s.335-44.425,0-54.082c-.186-.6-.4-1.16-.627-1.7,2.632-9.053-1.284-22.867-6.464-28.95-8.6,3.912-13.544,14.55-14.86,17.723l-22.659-.269s.21,2.668-4.418,2.668c-2.131,0-5.287-.565-9.963-2.218-7.715.081-30.5.7-53.375,1.361a28,28,0,0,0-25.99-38.428c-.462,0-.922.013-1.379.035-.147.007-.293.021-.44.03-.308.02-.616.041-.922.071-.175.017-.348.039-.521.06-.275.032-.55.064-.822.1-.184.027-.366.058-.549.089-.26.043-.519.088-.777.138-.185.037-.37.076-.554.116-.252.055-.5.112-.751.173-.183.046-.366.092-.548.141-.249.067-.495.137-.74.21-.178.053-.355.106-.531.162-.248.08-.494.164-.739.25-.169.06-.338.117-.5.18-.255.1-.507.2-.758.3-.152.062-.306.12-.457.185-.283.121-.562.25-.841.38-.114.054-.231.1-.345.158q-.584.283-1.152.591c-.074.04-.146.084-.22.125-.3.168-.6.339-.9.519-.134.08-.264.166-.4.249-.233.145-.465.292-.693.444-.146.1-.288.2-.432.3-.209.146-.418.292-.623.443-.148.109-.293.221-.439.333-.195.15-.388.3-.579.456q-.219.177-.433.359-.279.234-.551.476c-.14.125-.28.251-.417.378-.179.166-.355.335-.53.506-.133.129-.266.259-.4.391-.174.177-.344.358-.513.539-.124.132-.249.263-.37.4-.175.194-.344.393-.513.592-.108.128-.219.253-.326.383-.2.239-.385.483-.573.728-.072.1-.149.188-.22.284q-.381.51-.739,1.039c-.076.111-.146.227-.22.339-.162.247-.324.494-.478.746-.091.148-.176.3-.263.448-.131.222-.261.443-.385.668-.09.165-.176.332-.264.5-.113.216-.226.433-.334.652-.085.174-.167.35-.249.526-.1.218-.2.436-.3.657q-.117.27-.228.542c-.091.223-.18.447-.265.673-.07.184-.139.368-.2.553-.082.23-.159.461-.234.693-.061.185-.122.37-.179.557-.072.24-.139.482-.205.724-.05.184-.1.366-.149.551-.066.261-.124.525-.183.789-.037.169-.078.337-.112.507-.07.343-.129.689-.186,1.037-.015.094-.035.187-.049.281a35.6,35.6,0,0,0-11.853-2.709,6.074,6.074,0,0,0-.788.043c-3.918-2.766,0-8.758,0-8.758a12.233,12.233,0,0,0-2.02-.178c-6.633,0-7.324,6.4-8.012,6.4a.155.155,0,0,1-.109-.055c-.807-.807-.864-4.84-.864-4.84l-2.075,1.095c-2.189,1.9-.9,6.568-.9,6.568a82.881,82.881,0,0,0-8.243,3.274,27.828,27.828,0,0,0-4.271-11.784l-.059-.091q-.3-.464-.623-.913l-.106-.149c-.206-.286-.416-.566-.632-.843-.048-.061-.095-.122-.143-.182q-.317-.4-.647-.788l-.171-.2c-.219-.252-.44-.5-.667-.743-.063-.067-.127-.133-.191-.2-.228-.239-.457-.476-.693-.707-.065-.063-.132-.125-.2-.188-.24-.23-.481-.459-.729-.681l-.179-.155c-.261-.229-.523-.456-.792-.675-.017-.015-.035-.028-.053-.042a27.98,27.98,0,0,0-2.757-1.972c-.088-.055-.173-.113-.261-.167-.223-.137-.451-.266-.678-.4-.151-.086-.3-.176-.454-.26-.209-.115-.422-.224-.635-.334-.176-.092-.352-.184-.53-.272-.2-.1-.41-.194-.617-.289s-.386-.178-.581-.263-.4-.169-.605-.251-.415-.167-.625-.247-.4-.147-.6-.218q-.326-.114-.656-.222-.3-.1-.6-.186c-.228-.069-.458-.133-.688-.2-.2-.053-.4-.106-.595-.156-.238-.059-.479-.113-.72-.166-.2-.043-.39-.086-.588-.125-.251-.05-.5-.093-.758-.136-.191-.032-.38-.066-.572-.094-.271-.04-.544-.072-.817-.1-.178-.021-.356-.045-.535-.063-.305-.03-.614-.05-.922-.07-.151-.01-.3-.024-.451-.032-.461-.022-.924-.035-1.39-.035a28,28,0,1,0,4.7,55.606c-.533,5.3-.049,9.2-.318,9.734-.692,1.383-7.169,10.393-.37,23.645,3.133,6.107,14.69,9.77,28.281,11.12-1.094,2.451-3.288,7.277-4.52,9.365-1.686,2.856-3.372,5.453-2.95,6.881.338,1.147,2,2.963,3.232,2.963a1.022,1.022,0,0,0,.8-.366c1.13-1.3,5.45-10.257,5.766-10.777.006-.011.012-.016.017-.016.223,0-1.461,11.374-.017,14.169a2.883,2.883,0,0,0,.91.928s.986,2.059-1.121,4.785-2.212,5.323,0,5.843a12.683,12.683,0,0,0,2.67.233c2.681,0,6.014-.53,6.391-1.921a35.088,35.088,0,0,0,.422-6.125,32.632,32.632,0,0,0,5.444.5c.337,0,.669-.007.993-.022a32.129,32.129,0,0,0,.415,5.645c.376,1.391,3.71,1.921,6.391,1.921a12.684,12.684,0,0,0,2.67-.233c2.213-.52,2.107-3.117,0-5.843s-1.12-4.785-1.12-4.785h-.319a12.409,12.409,0,0,0,1.151-.9c.033.16.06.321.1.478a1.45,1.45,0,0,0-.254.661c0,7.864,14.255,10.623,14.255,10.623h140.184"/>
    </g>
    <g id="组_3945" data-name="组 3945">
      <path id="路径_10902" data-name="路径 10902" class="cls-3" d="M1656.161,1050.075s5.06-14.01,15.218-18.631c6.3,7.4,10.738,26.234,3.793,34.028S1656.161,1050.075,1656.161,1050.075Z"/>
      <path id="矩形_1369" data-name="矩形 1369" class="cls-4" d="M1669.932,1043.185h0a1.228,1.228,0,0,1,1.056,1.379l-1.708,12.9a1.229,1.229,0,0,1-1.379,1.057h0a1.229,1.229,0,0,1-1.057-1.38l1.708-12.9A1.228,1.228,0,0,1,1669.932,1043.185Z"/>
      <path id="路径_10903" data-name="路径 10903" class="cls-5" d="M1657.231,1049.227s16.723-1.615,21.239,12.871c.335,9.657,0,54.082,0,54.082l-3.178.965s3.978,16.418,3.327,18.074-3.494,11.175-15.037,11.175H1523.4s-14.251-2.759-14.251-10.627S1657.231,1049.227,1657.231,1049.227Z"/>
      <path id="路径_10904" data-name="路径 10904" class="cls-6" d="M1672,1124.357a16.994,16.994,0,0,1,.036,1.8,15.939,15.939,0,0,1-.471,3.472c-2.443,9.525-13.389,11.388-13.389,11.388h-139.6c-5.2,0-9.416-3.407-9.43-7.618-.008-5.451-.008-12.968.05-19.579.022-2.776.058-5.393.109-7.626v-.094c.007-.406.022-.79.029-1.167.073-2.682.16-4.668.29-5.465-.522-1.7-.5-9.685-.362-16.948v-.029c.13-6.669.362-12.736.362-12.736l-.13-4.7-.029-1.138c-.182-6.386,6-11.7,13.881-11.946,26.74-.812,83.062-2.493,96.132-2.631,14.83,5.241,14.381-.45,14.381-.45l26.277.312c6.6.08,11.9,4.407,11.953,9.75l.058,6.1.065,7.589.3,32.286.015,1.167.036,4.386s-3.791,2.805-4.125,2.986c-.3.152,1.385,2.4,2.936,8.191.1.4.2.819.312,1.261s.217.9.319,1.377Z"/>
      <path id="路径_10905" data-name="路径 10905" class="cls-7" d="M1672.213,1078.226l-162.721,15.226s-.1-1.183-.229-3.035v-.029c.132-8.241.36-15.729.36-15.729l-.131-5.8c2.16,2.178,162.653,0,162.653,0Z"/>
      <path id="路径_10906" data-name="路径 10906" class="cls-7" d="M1672,1124.357a16.994,16.994,0,0,1,.036,1.8,15.939,15.939,0,0,1-.471,3.472c-14.171-1.131-159.043-15.483-162.371-15.809a.393.393,0,0,0-.058-.007v-8.88H1672.51l.015,1.167.036,4.386s-3.791,2.805-4.125,2.986c-.3.152,1.385,2.4,2.936,8.191.1.4.2.819.312,1.261C1671.792,1123.386,1671.894,1123.867,1672,1124.357Z"/>
      <path id="路径_10907" data-name="路径 10907" class="cls-2" d="M1527.691,1064.845s.67,6.164-3.791,18.413,4.684,43.473,4.461,44.514c4.8-.641,58.215-1.682,71.82,1.2s57.211-3.683,57.211-3.683-8.029-6.724,1.562-31.063c4.015-10.969-1.673-29.382-1.673-29.382S1588.917,1069.967,1527.691,1064.845Z"/>
      <g id="下午" class="cls-8">
        <text id="下午-2" data-name="下午" class="cls-9" transform="translate(1540.564 1105.451)"><tspan x="0" y="0">下午</tspan></text>
      </g>
      <g id="_1:30" data-name=" 1:30" class="cls-8">
        <text id="_1:30-2" data-name="1:30" class="cls-10" transform="translate(1593.503 1105.451)"><tspan x="0" y="0">1:30</tspan></text>
      </g>
    </g>
    <g id="组_3946" data-name="组 3946">
      <path id="路径_10908" data-name="路径 10908" class="cls-11" d="M1482.728,1110.893s-3.494,8-5.18,10.858-3.372,5.453-2.95,6.881,2.9,3.9,4.032,2.6,5.45-10.257,5.766-10.777-1.475,11.3,0,14.153,15.8,5.972,20.334,3.116,6.216-3.635,6.533-7.271,0-12.984,0-12.984,3.792,10.647,5.373,11.426,4.53-1.558,4.109-3.246-7.9-14.537-7.9-14.537S1503.713,1097.048,1482.728,1110.893Z"/>
      <path id="路径_10909" data-name="路径 10909" class="cls-11" d="M1485.306,1135.533s.987,2.058-1.121,4.785-2.212,5.323,0,5.843,8.534.259,9.061-1.688.422-8.94.422-8.94Z"/>
      <path id="路径_10910" data-name="路径 10910" class="cls-11" d="M1508.461,1135.533s-.987,2.058,1.12,4.785,2.213,5.323,0,5.843-8.534.259-9.061-1.688-.421-8.94-.421-8.94Z"/>
      <ellipse id="椭圆_1914" data-name="椭圆 1914" class="cls-12" cx="9.511" cy="11.721" rx="9.511" ry="11.721" transform="translate(1488.289 1108.147)"/>
      <path id="路径_10911" data-name="路径 10911" class="cls-13" d="M1511.263,1130.45s.921,4.122,4.635,2.175a6.1,6.1,0,0,1,8.285,2.4c.091.164.174.333.249.505a8.765,8.765,0,0,1,1.107,4.493,3.2,3.2,0,0,1-1.66-1.753c-.711-1.461-2.844-5.284-6.558-2.74s-7.142-.411-7.364-1.562S1511.263,1130.45,1511.263,1130.45Z"/>
      <circle id="椭圆_1915" data-name="椭圆 1915" class="cls-11" cx="28.003" cy="28.003" r="28.003" transform="translate(1421.775 1012.281)"/>
      <circle id="椭圆_1916" data-name="椭圆 1916" class="cls-14" cx="21.895" cy="21.895" r="21.895" transform="translate(1427.883 1018.389)"/>
      <circle id="椭圆_1917" data-name="椭圆 1917" class="cls-11" cx="28.003" cy="28.003" r="28.003" transform="translate(1512.111 1012.281)"/>
      <circle id="椭圆_1918" data-name="椭圆 1918" class="cls-14" cx="21.895" cy="21.895" r="21.895" transform="translate(1518.219 1018.389)"/>
      <path id="路径_10912" data-name="路径 10912" class="cls-11" d="M1499.791,1024.612s-3.918,5.992,0,8.758c2.766-.384,18.208,1.613,27.657,13.6s9.68,20.282,9.45,21.665-1.979,6.683.047,11.754,7.714,20.633-9.036,27.427c-20.856,8.459-67.323,6.7-74.122-6.548s-.322-22.262.37-23.645-3.611-24.814,17.17-37.567a85.107,85.107,0,0,1,14.482-6.454s-1.287-4.667.9-6.568l2.075-1.1s.057,4.033.864,4.84S1490.86,1023.114,1499.791,1024.612Z"/>
      <path id="路径_10913" data-name="路径 10913" class="cls-15" d="M1488.267,1085.688s-.691-4.149,6.914-3.688,8.3.116,8.528,2.651-4.149,9.564-6.453,10.025S1490.687,1094.792,1488.267,1085.688Z"/>
      <line id="直线_144" data-name="直线 144" class="cls-16" x2="0.073" y2="7.001" transform="translate(1495.367 1094.793)"/>
      <path id="路径_10914" data-name="路径 10914" class="cls-12" d="M1492.247,1101.02l-.239,5.007s1.959.461,2.708,0,.846-4.379.846-4.379.537,4.328,1.056,4.584,2.535.32,2.65,0,0-5.212,0-5.212A20.073,20.073,0,0,1,1492.247,1101.02Z"/>
      <path id="路径_10915" data-name="路径 10915" class="cls-16" d="M1482.736,1096.828s10.6,9.987,27.119,0"/>
      <circle id="椭圆_1919" data-name="椭圆 1919" class="cls-2" cx="8.38" cy="8.38" r="8.38" transform="translate(1510.229 1068.523)"/>
      <circle id="椭圆_1920" data-name="椭圆 1920" class="cls-17" cx="6.516" cy="6.516" r="6.516" transform="translate(1511.175 1072.11)"/>
      <circle id="椭圆_1921" data-name="椭圆 1921" class="cls-18" cx="2.582" cy="2.582" r="2.582" transform="translate(1519.546 1074.93)"/>
      <circle id="椭圆_1922" data-name="椭圆 1922" class="cls-2" cx="8.38" cy="8.38" r="8.38" transform="translate(1466.557 1068.38)"/>
      <circle id="椭圆_1923" data-name="椭圆 1923" class="cls-17" cx="6.516" cy="6.516" r="6.516" transform="translate(1469.339 1071.966)"/>
      <circle id="椭圆_1924" data-name="椭圆 1924" class="cls-18" cx="2.582" cy="2.582" r="2.582" transform="translate(1468.085 1074.787)"/>
      <path id="路径_10916" data-name="路径 10916" class="cls-19" d="M1514.027,1057.827s-2.825-2.548,1.789-2.676,8.107,2.6,8.334,4.59-2.405,1.522-3.609.77-3.309-1.725-4.328-1.631S1514.027,1057.827,1514.027,1057.827Z"/>
      <path id="路径_10917" data-name="路径 10917" class="cls-19" d="M1476.979,1057.767s2.487-2.879-2.107-2.433-7.722,3.59-7.7,5.59,2.576,1.211,3.677.315,3.07-2.122,4.092-2.156S1476.979,1057.767,1476.979,1057.767Z"/>
      <path id="路径_10918" data-name="路径 10918" class="cls-20" d="M1522.128,1098.294a13.4,13.4,0,0,0,4.486,10.007c.436-.161.879-.319,1.3-.487,12.978-5.265,12.485-15.79,10.663-22.623a13.415,13.415,0,0,0-16.444,13.1Z"/>
      <path id="路径_10919" data-name="路径 10919" class="cls-20" d="M1469.338,1098.294a13.428,13.428,0,0,0-18.323-12.527c-.685,4-.417,9.282,2.772,15.5,1.6,3.124,5.426,5.6,10.58,7.463A13.419,13.419,0,0,0,1469.338,1098.294Z"/>
    </g>
  </g>
</svg>
