<svg xmlns="http://www.w3.org/2000/svg" width="150.951" height="160.884" viewBox="0 0 150.951 160.884">
  <defs>
    <style>
      .cls-1 {
        fill: #fec200;
      }

      .cls-2 {
        fill: #d58f03;
      }

      .cls-3 {
        fill: #eedcb0;
      }

      .cls-4 {
        fill: #e0c897;
      }

      .cls-5 {
        fill: #dcad5f;
      }

      .cls-6 {
        fill: #b3802f;
      }

      .cls-7 {
        fill: #e8cda4;
      }

      .cls-8 {
        fill: #d79447;
      }

      .cls-9 {
        fill: #eacea3;
      }

      .cls-10 {
        fill: #fffe66;
      }

      .cls-11 {
        fill: #fce900;
      }

      .cls-12 {
        fill: #fef102;
      }

      .cls-13 {
        fill: #fff563;
      }

      .cls-14 {
        fill: #fde800;
      }

      .cls-15 {
        fill: #b67c2e;
      }

      .cls-16 {
        fill: #b2600a;
      }

      .cls-17 {
        fill: #ffffe6;
      }

      .cls-18 {
        fill: #ffc901;
      }

      .cls-19 {
        fill: #fae305;
      }

      .cls-20 {
        fill: #b17b32;
      }

      .cls-21 {
        fill: #aa6a32;
      }

      .cls-22 {
        fill: #eeb896;
      }

      .cls-23 {
        fill: #fff;
      }

      .cls-24 {
        fill: #ebb6a2;
      }

      .cls-25 {
        fill: #5fb2d6;
      }

      .cls-26 {
        fill: #f60;
      }

      .cls-27 {
        fill: #ff9b00;
      }

      .cls-28 {
        fill: #7d4921;
        font-size: 16.719px;
        font-family: TimesNewRomanPS-BoldMT, Times New Roman;
        font-weight: 700;
      }
    </style>
  </defs>
  <g id="组_6989" data-name="组 6989" transform="translate(-286 -915)">
    <g id="组_6956" data-name="组 6956" transform="translate(233.522 799.445)">
      <g id="图层_2" data-name="图层 2" transform="translate(0.085 3.781)">
        <g id="图层_1-2" data-name="图层 1-2">
          <path id="路径_14475" data-name="路径 14475" class="cls-1" d="M56.111,125.786s-7.065,3.832-1.718,8.329c2.291,2,7.064,2.831,7.637,3S67,129.784,67,129.784l19.094-1.665,10.693,2.5,3.055,3,3.819,2.331-1.91,2.165s8.975-.832,8.4-6.492c0,0-1.094-2.537-5-5.472a63.07,63.07,0,0,1-6.9-7.105c-.292-.382-7.143-9.482-21.386-6.761-2.234.381-8.628,2.547-14.422,8.588A24.612,24.612,0,0,1,56.111,125.786Z"/>
          <path id="路径_14476" data-name="路径 14476" class="cls-1" d="M101.746,138.111l1.91-2.165-3.819-2.331-3.055-3-10.693-2.5L67,129.784s-4.392,7.5-4.965,7.329-5.346-1-7.637-3c-5.347-4.5,1.718-8.329,1.718-8.329a24.591,24.591,0,0,0,6.336-4.915c5.795-6.043,12.187-8.209,14.431-8.592a25.971,25.971,0,0,1,7.922-.348,20.867,20.867,0,0,1,11.163,4.774,15.435,15.435,0,0,1,2.291,2.344c.132.172.909,1.1,2.009,2.309a56.091,56.091,0,0,0,4.544,4.5l.346.293c3.9,2.934,5,5.472,5,5.472C110.721,137.279,101.746,138.111,101.746,138.111Z"/>
          <path id="路径_14477" data-name="路径 14477" class="cls-2" d="M100.473,130.693a19.433,19.433,0,0,0-4-1.688A60.271,60.271,0,0,0,84.6,126.746a53.235,53.235,0,0,0-7.722-.219,45.555,45.555,0,0,0-13.7,2.812,22.857,22.857,0,0,0-2.656,1.2,12.016,12.016,0,0,0-2.627,1.746c-.848.847-1.039,1.806.286,2.975,2.316,2.041,8.751,3.018,8.751,3.018l23.295,1.383a34.586,34.586,0,0,0,11.512-1.555C108.34,135.2,103.982,132.1,100.473,130.693Z"/>
          <path id="路径_14478" data-name="路径 14478" class="cls-3" d="M66.932,138.283s1.56-6.526,4.485-7.59,10.678-3.055,20.622.978c2.388,1.233,2.73,2.19,3.584,5.379s4.785,21.778,3.486,25.131-11.964,8.327-29.382,4.642c-4.42-1.134-7.378-3.345-7.256-4.981S65.158,142.994,66.932,138.283Z"/>
          <path id="路径_14479" data-name="路径 14479" class="cls-4" d="M85.646,129.775s4.945,1.64,7.418,9.875S95.5,165.2,91.714,166.8c1.362-.433,7.565-1.871,7.638-5.9s-3.206-26.57-4.888-27.2C93.226,132.383,93.828,131.491,85.646,129.775Z"/>
          <path id="路径_14480" data-name="路径 14480" class="cls-5" d="M69.727,166.823s-2.469-18.993,9.817-18.88,10.3,8.109,11.038,19.165C87.426,167.719,82.4,169.262,69.727,166.823Z"/>
          <path id="路径_14481" data-name="路径 14481" class="cls-6" d="M81.99,147.943s-7.791,1.121-8.96,6.946A76.454,76.454,0,0,0,71.8,167.2l-2.066-.381s-1.99-13.036,4.527-17.311C76,147.943,78.608,147.823,81.99,147.943Z"/>
          <path id="路径_14482" data-name="路径 14482" class="cls-7" d="M70.606,144.2a1.154,1.154,0,0,0,.975,1.646c1.56.539,11.6,2.238,18.818-.191.844-.191,1.023-.695.941-1.162a1.959,1.959,0,0,0-.376-.833Z"/>
          <path id="路径_14483" data-name="路径 14483" class="cls-8" d="M73.239,137.653h6.337v-3.819A7.919,7.919,0,0,0,73.239,137.653Z"/>
          <path id="路径_14484" data-name="路径 14484" class="cls-8" d="M81.99,137.653v-3.819a9.027,9.027,0,0,1,6.11,3.819Z"/>
          <path id="路径_14485" data-name="路径 14485" class="cls-8" d="M81.99,142.946v-3.769l6.789-.107a4.32,4.32,0,0,1,.552,3.175C89.072,144.449,81.99,142.946,81.99,142.946Z"/>
          <path id="路径_14486" data-name="路径 14486" class="cls-8" d="M79.576,139.077H72.612a7.359,7.359,0,0,0-.706,3.176c1.336.928,7.67.632,7.67.632Z"/>
          <path id="路径_14487" data-name="路径 14487" class="cls-9" d="M82.4,133.893v3.76H81.99v-3.819C82.127,133.847,82.263,133.867,82.4,133.893Z"/>
          <path id="路径_14488" data-name="路径 14488" class="cls-9" d="M72.324,139.763H79.58v-.686H72.612A5.026,5.026,0,0,0,72.324,139.763Z"/>
          <path id="路径_14489" data-name="路径 14489" class="cls-9" d="M82.49,142.95v-3.187h6.648s-.255-.686-.364-.686l-6.79.107v3.77Z"/>
          <path id="路径_14490" data-name="路径 14490" class="cls-10" d="M65.979,117.692a4.845,4.845,0,0,0,.661,1.317c.34.363,1.682,4.081-1.366,5.335s-5.289.285-5.751-.8c.606-.471,2.925-2.661,2.925-2.661S64.95,118.456,65.979,117.692Z"/>
          <path id="路径_14491" data-name="路径 14491" class="cls-11" d="M63.178,129.339a22.857,22.857,0,0,0-2.656,1.2,12.016,12.016,0,0,0-2.627,1.746,2.921,2.921,0,0,1-1.564-2.515,3.244,3.244,0,0,1,3.437-3A3.335,3.335,0,0,1,63.178,129.339Z"/>
          <ellipse id="椭圆_2720" data-name="椭圆 2720" class="cls-12" cx="2.795" cy="2.438" rx="2.795" ry="2.438" transform="translate(72.295 117.354)"/>
          <path id="路径_14492" data-name="路径 14492" class="cls-13" d="M96.6,127.953a4.6,4.6,0,0,1-.121,1.052A60.271,60.271,0,0,0,84.6,126.746a5.973,5.973,0,0,1,5.919-4.09C93.876,122.656,96.6,125.028,96.6,127.953Z"/>
          <path id="路径_14493" data-name="路径 14493" class="cls-11" d="M95.963,116.7a6.621,6.621,0,0,1-5.11,2.278c-3.483,0-6.3-2.463-6.3-5.5a4.877,4.877,0,0,1,.248-1.543A20.863,20.863,0,0,1,95.963,116.7Z"/>
          <path id="路径_14494" data-name="路径 14494" class="cls-14" d="M104.807,125.851a3.7,3.7,0,0,1-2.432.878,3.229,3.229,0,0,1-3.437-3,2.883,2.883,0,0,1,1.336-2.376A56.127,56.127,0,0,0,104.807,125.851Z"/>
          <path id="路径_14495" data-name="路径 14495" class="cls-15" d="M75.946,150.438l.561-.4v17.8l-.561-.052Z"/>
          <path id="路径_14496" data-name="路径 14496" class="cls-15" d="M81.041,148l.439.036v20.085h-.491Z"/>
          <path id="路径_14497" data-name="路径 14497" class="cls-15" d="M82.958,148.243s-.539,8.867,3.3,9.4v10.2l.529-.042V149.728l-.46-.3-.025,2.592s-.317.158-.382-.373-.263-2.579-.263-2.579l-.371-.165s-.191,3.945.987,3.573c.048.265.062,2.222.062,2.222s-1.849.107-1.845-6.081l-.422-.124s-.305,6.223,2.165,6.578l.082.009-.03,2.074s-2.969.191-3.028-8.854Z"/>
          <path id="路径_14498" data-name="路径 14498" class="cls-15" d="M87.527,167.7s-.879-8.888.827-8.349c.5.085,1.581,2.241,2.148,6.421.049.894.076,1.337.076,1.337l-.256.049s-1.008-6.032-1.544-6.826c-.306-.556-.573-.8-.8.032a27.784,27.784,0,0,0-.03,7.268Z"/>
          <path id="路径_14499" data-name="路径 14499" class="cls-15" d="M90.009,167.222s-.987-6.337-1.783-5.218c-.21.269-.05,3.341.191,5.537l.393-.076s-.546-5-.218-4.724a30.437,30.437,0,0,1,1.081,4.546Z"/>
          <path id="路径_14500" data-name="路径 14500" class="cls-16" d="M100.352,126.729s2.049,4.05,1.91,4.8c-.392.1-6.11,2.242-6.924,3.2.415,0,7.938-1.89,8.32-2.291S101.96,127.7,100.352,126.729Z"/>
          <path id="路径_14501" data-name="路径 14501" class="cls-16" d="M61.719,129.954l1.115-.473s3.437,2.806,4.27,4.487C66.664,133.712,61.9,129.87,61.719,129.954Z"/>
          <path id="路径_14502" data-name="路径 14502" class="cls-16" d="M58.695,131.906s-1.1.868.19,1.178,7.484,2.28,8.211,2.656a6.737,6.737,0,0,0-1.293-1.22C65.519,134.3,60.547,129.99,58.695,131.906Z"/>
          <path id="路径_14503" data-name="路径 14503" class="cls-17" d="M71.488,142.386s-.942,1.5-.877,1.814,11.669,2.156,17.185.711c2.99-.653,3.282-1.035,3.17-1.249a17.69,17.69,0,0,0-1.642-1.417s-3.348,1.587-17.42,0C71.744,142.245,71.585,142.22,71.488,142.386Z"/>
          <ellipse id="椭圆_2721" data-name="椭圆 2721" class="cls-18" cx="2.079" cy="1.814" rx="2.079" ry="1.814" transform="translate(71.386 156.888)"/>
          <path id="路径_14504" data-name="路径 14504" class="cls-19" d="M71.385,158.7a1.545,1.545,0,0,0,.08.491,2.3,2.3,0,0,0,1.119.287,1.965,1.965,0,0,0,2.081-1.814,1.6,1.6,0,0,0-.08-.491,2.294,2.294,0,0,0-1.119-.288A1.962,1.962,0,0,0,71.385,158.7Z"/>
          <path id="路径_14505" data-name="路径 14505" class="cls-20" d="M79.576,133.825v.572s-2.933-.181-5.8,3.256h-.544S74.692,134.321,79.576,133.825Z"/>
          <path id="路径_14506" data-name="路径 14506" class="cls-20" d="M72.324,139.763H72.9a7.737,7.737,0,0,0-.434,2.545l-.572-.063A8.936,8.936,0,0,1,72.324,139.763Z"/>
        </g>
      </g>
      <g id="组_5188" data-name="组 5188" transform="translate(0.085 3.781)">
        <path id="路径_14507" data-name="路径 14507" class="cls-21" d="M134.136,134.243a69.207,69.207,0,1,0,69.208,69.208,69.208,69.208,0,0,0-69.208-69.208Zm0,123.259a54.052,54.052,0,1,1,54.051-54.051A54.051,54.051,0,0,1,134.136,257.5Z"/>
        <path id="路径_14508" data-name="路径 14508" class="cls-22" d="M134.136,137.169a66.281,66.281,0,1,0,66.281,66.282,66.282,66.282,0,0,0-66.281-66.282Zm0,118.048A51.766,51.766,0,1,1,185.9,203.451,51.767,51.767,0,0,1,134.136,255.217Z"/>
        <path id="路径_14509" data-name="路径 14509" class="cls-23" d="M76.2,203.451a57.938,57.938,0,0,0,115.876.016v-.016A57.938,57.938,0,1,0,76.2,203.434Z"/>
        <path id="路径_14510" data-name="路径 14510" class="cls-24" d="M132.058,137.169h4.157v13.8h-4.157Zm0,118.765h4.157v13.8h-4.157Z"/>
        <path id="路径_14511" data-name="路径 14511" class="cls-24" d="M102.666,145.5l6.945,12.031-3.622,2.092L99.043,147.6ZM161.98,248.152l6.947,12.029-3.625,2.092-6.945-12.03Z"/>
        <path id="路径_14512" data-name="路径 14512" class="cls-24" d="M77.737,168.646l12.03,6.945-2.092,3.624-12.029-6.946Zm102.805,59.4,12.031,6.945-2.093,3.624-12.029-6.946Z"/>
        <path id="路径_14513" data-name="路径 14513" class="cls-24" d="M67.855,201.372h13.8v4.157h-13.8Zm118.763,0h13.8v4.157h-13.8Z"/>
        <path id="路径_14514" data-name="路径 14514" class="cls-24" d="M87.643,227.9l2.079,3.6-11.954,6.9-2.078-3.6ZM190.5,168.524l2.079,3.6-11.954,6.9-2.078-3.6Z"/>
        <path id="路径_14515" data-name="路径 14515" class="cls-24" d="M106.09,247.857l3.6,2.078-6.9,11.952-3.6-2.079ZM165.468,145.01l3.6,2.078-6.9,11.952-3.6-2.079Z"/>
        <path id="路径_14516" data-name="路径 14516" class="cls-25" d="M129.927,203.451a4.209,4.209,0,1,0,4.209-4.21A4.209,4.209,0,0,0,129.927,203.451Z"/>
        <path id="路径_14517" data-name="路径 14517" class="cls-23" d="M132.389,203.451a1.747,1.747,0,0,0,3.494,0h0a1.747,1.747,0,1,0-3.494,0Z"/>
        <path id="路径_14518" data-name="路径 14518" class="cls-26" d="M150.817,201.416a24.5,24.5,0,0,0-9.517,2.007,23.249,23.249,0,0,0,19.022.055,24.478,24.478,0,0,0-9.505-2.062Z"/>
        <path id="路径_14519" data-name="路径 14519" class="cls-27" d="M124.238,183.861a60.544,60.544,0,0,0-10.392-12.281,59.23,59.23,0,0,0,17.1,26.906A60.551,60.551,0,0,0,124.238,183.861Z"/>
        <text id="_1" data-name="1" class="cls-28" transform="translate(155.201 171.58)"><tspan x="0" y="0">1</tspan></text>
        <text id="_5" data-name="5" class="cls-28" transform="translate(152.265 246.197)"><tspan x="0" y="0">5</tspan></text>
        <text id="_2" data-name="2" class="cls-28" transform="translate(170.491 186.993)"><tspan x="0" y="0">2</tspan></text>
        <text id="_12" data-name="12" class="cls-28" transform="translate(125.89 165.097)"><tspan x="0" y="0">12</tspan></text>
        <text id="_6" data-name="6" class="cls-28" transform="translate(129.927 252.435)"><tspan x="0" y="0">6</tspan></text>
        <text id="_11" data-name="11" class="cls-28" transform="translate(103.628 171.58)"><tspan x="0" y="0">11</tspan></text>
        <text id="_7" data-name="7" class="cls-28" transform="translate(107.542 246.197)"><tspan x="0" y="0">7</tspan></text>
        <text id="_10" data-name="10" class="cls-28" transform="translate(87.603 186.993)"><tspan x="0" y="0">10</tspan></text>
        <text id="_8" data-name="8" class="cls-28" transform="translate(91.273 233.335)"><tspan x="0" y="0">8</tspan></text>
        <text id="_4" data-name="4" class="cls-28" transform="translate(170.491 233.335)"><tspan x="0" y="0">4</tspan></text>
        <text id="_9" data-name="9" class="cls-28" transform="translate(84.178 208.815)"><tspan x="0" y="0">9</tspan></text>
        <text id="_3" data-name="3" class="cls-28" transform="translate(175.064 208.815)"><tspan x="0" y="0">3</tspan></text>
      </g>
    </g>
  </g>
</svg>
