<svg xmlns="http://www.w3.org/2000/svg" width="151.15" height="160.884" viewBox="0 0 151.15 160.884">
  <defs>
    <style>
      .cls-1 {
        fill: #fe7c3e;
      }

      .cls-2 {
        fill: #d55537;
      }

      .cls-3 {
        fill: #eed6ce;
      }

      .cls-4 {
        fill: #e0beb6;
      }

      .cls-5 {
        fill: #dc9186;
      }

      .cls-6 {
        fill: #b35f54;
      }

      .cls-7 {
        fill: #e8c6c3;
      }

      .cls-8 {
        fill: #d77471;
      }

      .cls-9 {
        fill: #eac6c2;
      }

      .cls-10 {
        fill: #ffd895;
      }

      .cls-11 {
        fill: #fca63d;
      }

      .cls-12 {
        fill: #feaf40;
      }

      .cls-13 {
        fill: #ffd093;
      }

      .cls-14 {
        fill: #fda53e;
      }

      .cls-15 {
        fill: #b65a54;
      }

      .cls-16 {
        fill: #b23535;
      }

      .cls-17 {
        fill: #fff;
      }

      .cls-18 {
        fill: #ff843f;
      }

      .cls-19 {
        fill: #faa242;
      }

      .cls-20 {
        fill: #b15c56;
      }

      .cls-21 {
        fill: #aa6a32;
      }

      .cls-22 {
        fill: #eeb896;
      }

      .cls-23 {
        fill: #ebb6a2;
      }

      .cls-24 {
        fill: #5fb2d6;
      }

      .cls-25 {
        fill: #f60;
      }

      .cls-26 {
        fill: #ff9b00;
      }

      .cls-27 {
        fill: #7d4921;
        font-size: 16.719px;
        font-family: TimesNewRomanPS-BoldMT, Times New Roman;
        font-weight: 700;
      }
    </style>
  </defs>
  <g id="组_6990" data-name="组 6990" transform="translate(-515 -914.555)">
    <g id="组_6962" data-name="组 6962" transform="translate(257.168 799)">
      <g id="图层_2" data-name="图层 2" transform="translate(0.085 3.781)">
        <g id="图层_1-2" data-name="图层 1-2">
          <path id="路径_14520" data-name="路径 14520" class="cls-1" d="M261.465,125.786s-7.065,3.832-1.719,8.329c2.292,2,7.065,2.831,7.638,3s4.964-7.329,4.964-7.329l19.1-1.665,10.692,2.5,3.056,3,3.818,2.331-1.909,2.165s8.974-.832,8.4-6.492c0,0-1.094-2.537-4.995-5.472a63.124,63.124,0,0,1-6.9-7.105c-.293-.382-7.144-9.482-21.386-6.761-2.234.381-8.629,2.547-14.422,8.588A24.632,24.632,0,0,1,261.465,125.786Z"/>
          <path id="路径_14521" data-name="路径 14521" class="cls-1" d="M307.1,138.111l1.909-2.165-3.818-2.331-3.056-3-10.692-2.5-19.1,1.665s-4.391,7.5-4.964,7.329-5.346-1-7.638-3c-5.346-4.5,1.719-8.329,1.719-8.329a24.577,24.577,0,0,0,6.335-4.915c5.8-6.043,12.188-8.209,14.432-8.592a25.971,25.971,0,0,1,7.922-.348,20.861,20.861,0,0,1,11.162,4.774,15.489,15.489,0,0,1,2.292,2.344c.131.172.909,1.1,2.008,2.309a56.1,56.1,0,0,0,4.545,4.5l.345.293c3.9,2.934,4.995,5.472,4.995,5.472C316.074,137.279,307.1,138.111,307.1,138.111Z"/>
          <path id="路径_14522" data-name="路径 14522" class="cls-2" d="M305.826,130.693a19.4,19.4,0,0,0-4-1.688,60.282,60.282,0,0,0-11.877-2.259,53.226,53.226,0,0,0-7.721-.219,45.555,45.555,0,0,0-13.7,2.812,22.781,22.781,0,0,0-2.656,1.2,12.024,12.024,0,0,0-2.628,1.746c-.848.847-1.039,1.806.287,2.975,2.316,2.041,8.75,3.018,8.75,3.018l23.295,1.383a34.584,34.584,0,0,0,11.512-1.555C313.693,135.2,309.336,132.1,305.826,130.693Z"/>
          <path id="路径_14523" data-name="路径 14523" class="cls-3" d="M272.285,138.283s1.56-6.526,4.486-7.59,10.677-3.055,20.621.978c2.389,1.233,2.731,2.19,3.584,5.379s4.785,21.778,3.487,25.131-11.964,8.327-29.382,4.642c-4.42-1.134-7.378-3.345-7.256-4.981S270.512,142.994,272.285,138.283Z"/>
          <path id="路径_14524" data-name="路径 14524" class="cls-4" d="M291,129.775s4.945,1.64,7.418,9.875,2.434,25.548-1.35,27.154c1.361-.433,7.565-1.871,7.638-5.9s-3.206-26.57-4.889-27.2C298.58,132.383,299.182,131.491,291,129.775Z"/>
          <path id="路径_14525" data-name="路径 14525" class="cls-5" d="M275.081,166.823s-2.469-18.993,9.816-18.88,10.3,8.109,11.039,19.165C292.779,167.719,287.758,169.262,275.081,166.823Z"/>
          <path id="路径_14526" data-name="路径 14526" class="cls-6" d="M287.343,147.943s-7.79,1.121-8.959,6.946a76.453,76.453,0,0,0-1.231,12.308l-2.066-.381s-1.99-13.036,4.527-17.311C281.353,147.943,283.962,147.823,287.343,147.943Z"/>
          <path id="路径_14527" data-name="路径 14527" class="cls-7" d="M275.959,144.2a1.154,1.154,0,0,0,.976,1.646c1.56.539,11.6,2.238,18.817-.191.844-.191,1.024-.695.942-1.162a1.973,1.973,0,0,0-.377-.833Z"/>
          <path id="路径_14528" data-name="路径 14528" class="cls-8" d="M278.592,137.653h6.338v-3.819A7.92,7.92,0,0,0,278.592,137.653Z"/>
          <path id="路径_14529" data-name="路径 14529" class="cls-8" d="M287.343,137.653v-3.819a9.025,9.025,0,0,1,6.11,3.819Z"/>
          <path id="路径_14530" data-name="路径 14530" class="cls-8" d="M287.343,142.946v-3.769l6.79-.107a4.32,4.32,0,0,1,.552,3.175C294.425,144.449,287.343,142.946,287.343,142.946Z"/>
          <path id="路径_14531" data-name="路径 14531" class="cls-8" d="M284.93,139.077h-6.964a7.344,7.344,0,0,0-.706,3.176c1.336.928,7.67.632,7.67.632Z"/>
          <path id="路径_14532" data-name="路径 14532" class="cls-9" d="M287.752,133.893v3.76h-.409v-3.819C287.48,133.847,287.617,133.867,287.752,133.893Z"/>
          <path id="路径_14533" data-name="路径 14533" class="cls-9" d="M277.678,139.763h7.256v-.686h-6.968A5.022,5.022,0,0,0,277.678,139.763Z"/>
          <path id="路径_14534" data-name="路径 14534" class="cls-9" d="M287.843,142.95v-3.187h6.649s-.256-.686-.365-.686l-6.79.107v3.77Z"/>
          <path id="路径_14535" data-name="路径 14535" class="cls-10" d="M271.333,117.692a4.832,4.832,0,0,0,.66,1.317c.34.363,1.683,4.081-1.365,5.335s-5.289.285-5.751-.8c.6-.471,2.925-2.661,2.925-2.661S270.3,118.456,271.333,117.692Z"/>
          <path id="路径_14536" data-name="路径 14536" class="cls-11" d="M268.532,129.339a22.781,22.781,0,0,0-2.656,1.2,12.024,12.024,0,0,0-2.628,1.746,2.923,2.923,0,0,1-1.564-2.515,3.244,3.244,0,0,1,3.437-3A3.335,3.335,0,0,1,268.532,129.339Z"/>
          <ellipse id="椭圆_2722" data-name="椭圆 2722" class="cls-12" cx="2.795" cy="2.438" rx="2.795" ry="2.438" transform="translate(277.649 117.354)"/>
          <path id="路径_14537" data-name="路径 14537" class="cls-13" d="M301.95,127.953a4.546,4.546,0,0,1-.12,1.052,60.282,60.282,0,0,0-11.877-2.259,5.973,5.973,0,0,1,5.92-4.09C299.229,122.656,301.95,125.028,301.95,127.953Z"/>
          <path id="路径_14538" data-name="路径 14538" class="cls-11" d="M301.316,116.7a6.617,6.617,0,0,1-5.109,2.278c-3.483,0-6.3-2.463-6.3-5.5a4.821,4.821,0,0,1,.248-1.543A20.856,20.856,0,0,1,301.316,116.7Z"/>
          <path id="路径_14539" data-name="路径 14539" class="cls-14" d="M310.161,125.851a3.7,3.7,0,0,1-2.433.878,3.23,3.23,0,0,1-3.437-3,2.886,2.886,0,0,1,1.337-2.376A56.13,56.13,0,0,0,310.161,125.851Z"/>
          <path id="路径_14540" data-name="路径 14540" class="cls-15" d="M281.3,150.438l.561-.4v17.8l-.561-.052Z"/>
          <path id="路径_14541" data-name="路径 14541" class="cls-15" d="M286.394,148l.439.036v20.085h-.491Z"/>
          <path id="路径_14542" data-name="路径 14542" class="cls-15" d="M288.311,148.243s-.538,8.867,3.3,9.4v10.2l.529-.042V149.728l-.46-.3-.025,2.592s-.317.158-.382-.373-.264-2.579-.264-2.579l-.37-.165s-.191,3.945.987,3.573c.048.265.061,2.222.061,2.222s-1.848.107-1.844-6.081l-.422-.124s-.306,6.223,2.165,6.578l.082.009-.03,2.074s-2.97.191-3.029-8.854Z"/>
          <path id="路径_14543" data-name="路径 14543" class="cls-15" d="M292.881,167.7s-.879-8.888.826-8.349c.5.085,1.581,2.241,2.148,6.421.05.894.077,1.337.077,1.337l-.256.049s-1.008-6.032-1.545-6.826c-.305-.556-.573-.8-.8.032a27.819,27.819,0,0,0-.031,7.268Z"/>
          <path id="路径_14544" data-name="路径 14544" class="cls-15" d="M295.363,167.222s-.987-6.337-1.784-5.218c-.21.269-.049,3.341.191,5.537l.394-.076s-.546-5-.218-4.724a30.689,30.689,0,0,1,1.081,4.546Z"/>
          <path id="路径_14545" data-name="路径 14545" class="cls-16" d="M305.706,126.729s2.049,4.05,1.91,4.8c-.392.1-6.111,2.242-6.924,3.2.414,0,7.937-1.89,8.319-2.291S307.314,127.7,305.706,126.729Z"/>
          <path id="路径_14546" data-name="路径 14546" class="cls-16" d="M267.073,129.954l1.115-.473s3.437,2.806,4.269,4.487C272.018,133.712,267.256,129.87,267.073,129.954Z"/>
          <path id="路径_14547" data-name="路径 14547" class="cls-16" d="M264.048,131.906s-1.1.868.191,1.178,7.483,2.28,8.211,2.656a6.767,6.767,0,0,0-1.293-1.22C270.873,134.3,265.9,129.99,264.048,131.906Z"/>
          <path id="路径_14548" data-name="路径 14548" class="cls-17" d="M276.841,142.386s-.941,1.5-.876,1.814,11.668,2.156,17.185.711c2.99-.653,3.282-1.035,3.169-1.249a17.56,17.56,0,0,0-1.642-1.417s-3.347,1.587-17.419,0C277.1,142.245,276.939,142.22,276.841,142.386Z"/>
          <ellipse id="椭圆_2723" data-name="椭圆 2723" class="cls-18" cx="2.079" cy="1.814" rx="2.079" ry="1.814" transform="translate(276.74 156.888)"/>
          <path id="路径_14549" data-name="路径 14549" class="cls-19" d="M276.738,158.7a1.6,1.6,0,0,0,.08.491,2.307,2.307,0,0,0,1.119.287,1.966,1.966,0,0,0,2.082-1.814,1.635,1.635,0,0,0-.081-.491,2.29,2.29,0,0,0-1.118-.288A1.962,1.962,0,0,0,276.738,158.7Z"/>
          <path id="路径_14550" data-name="路径 14550" class="cls-20" d="M284.93,133.825v.572s-2.933-.181-5.8,3.256h-.545S280.045,134.321,284.93,133.825Z"/>
          <path id="路径_14551" data-name="路径 14551" class="cls-20" d="M277.678,139.763h.573a7.737,7.737,0,0,0-.434,2.545l-.573-.063A8.909,8.909,0,0,1,277.678,139.763Z"/>
        </g>
      </g>
      <g id="组_5190" data-name="组 5190" transform="translate(0.085 3.781)">
        <path id="路径_14552" data-name="路径 14552" class="cls-21" d="M339.688,134.243A69.207,69.207,0,1,0,408.9,203.451a69.208,69.208,0,0,0-69.208-69.208Zm0,123.259a54.052,54.052,0,1,1,54.052-54.051A54.052,54.052,0,0,1,339.688,257.5Z"/>
        <path id="路径_14553" data-name="路径 14553" class="cls-22" d="M339.688,137.169a66.281,66.281,0,1,0,66.282,66.282,66.282,66.282,0,0,0-66.282-66.282Zm0,118.048a51.766,51.766,0,1,1,51.766-51.766A51.767,51.767,0,0,1,339.688,255.217Z"/>
        <path id="路径_14554" data-name="路径 14554" class="cls-17" d="M281.75,203.451a57.939,57.939,0,0,0,115.877.016v-.016a57.939,57.939,0,0,0-115.877-.017Z"/>
        <path id="路径_14555" data-name="路径 14555" class="cls-23" d="M337.61,137.169h4.157v13.8H337.61Zm0,118.765h4.157v13.8H337.61Z"/>
        <path id="路径_14556" data-name="路径 14556" class="cls-23" d="M308.218,145.5l6.945,12.031-3.622,2.092L304.6,147.6Zm59.315,102.648,6.946,12.029-3.624,2.092-6.945-12.03Z"/>
        <path id="路径_14557" data-name="路径 14557" class="cls-23" d="M283.289,168.646l12.03,6.945-2.092,3.624L281.2,172.269Zm102.8,59.4,12.031,6.945-2.093,3.624L384,231.673Z"/>
        <path id="路径_14558" data-name="路径 14558" class="cls-23" d="M273.407,201.372h13.8v4.157h-13.8Zm118.763,0h13.8v4.157h-13.8Z"/>
        <path id="路径_14559" data-name="路径 14559" class="cls-23" d="M293.2,227.9l2.079,3.6-11.954,6.9-2.077-3.6Zm102.861-59.38,2.079,3.6-11.954,6.9-2.077-3.6Z"/>
        <path id="路径_14560" data-name="路径 14560" class="cls-23" d="M311.642,247.857l3.6,2.078-6.9,11.952-3.6-2.079ZM371.021,145.01l3.6,2.078-6.9,11.952-3.6-2.079Z"/>
        <path id="路径_14561" data-name="路径 14561" class="cls-24" d="M335.479,203.451a4.21,4.21,0,1,0,4.209-4.21A4.21,4.21,0,0,0,335.479,203.451Z"/>
        <path id="路径_14562" data-name="路径 14562" class="cls-17" d="M337.942,203.451a1.747,1.747,0,0,0,3.493,0h0a1.747,1.747,0,1,0-3.493,0Z"/>
        <path id="路径_14563" data-name="路径 14563" class="cls-25" d="M344.039,187.5a24.484,24.484,0,0,0-2.272,9.457,23.249,23.249,0,0,0,8.214-17.157,24.471,24.471,0,0,0-5.942,7.7Z"/>
        <path id="路径_14564" data-name="路径 14564" class="cls-26" d="M342.317,225.705a60.529,60.529,0,0,0-2.372-15.912,59.224,59.224,0,0,0,.374,31.876A60.555,60.555,0,0,0,342.317,225.705Z"/>
        <text id="_1" data-name="1" class="cls-27" transform="translate(360.753 171.58)"><tspan x="0" y="0">1</tspan></text>
        <text id="_5" data-name="5" class="cls-27" transform="translate(357.817 246.197)"><tspan x="0" y="0">5</tspan></text>
        <text id="_2" data-name="2" class="cls-27" transform="translate(376.044 186.993)"><tspan x="0" y="0">2</tspan></text>
        <text id="_12" data-name="12" class="cls-27" transform="translate(331.443 165.097)"><tspan x="0" y="0">12</tspan></text>
        <text id="_6" data-name="6" class="cls-27" transform="translate(335.479 252.435)"><tspan x="0" y="0">6</tspan></text>
        <text id="_11" data-name="11" class="cls-27" transform="translate(309.18 171.58)"><tspan x="0" y="0">11</tspan></text>
        <text id="_7" data-name="7" class="cls-27" transform="translate(313.094 246.197)"><tspan x="0" y="0">7</tspan></text>
        <text id="_10" data-name="10" class="cls-27" transform="translate(293.155 186.993)"><tspan x="0" y="0">10</tspan></text>
        <text id="_8" data-name="8" class="cls-27" transform="translate(296.825 233.335)"><tspan x="0" y="0">8</tspan></text>
        <text id="_4" data-name="4" class="cls-27" transform="translate(376.044 233.335)"><tspan x="0" y="0">4</tspan></text>
        <text id="_9" data-name="9" class="cls-27" transform="translate(289.731 208.815)"><tspan x="0" y="0">9</tspan></text>
        <text id="_3" data-name="3" class="cls-27" transform="translate(380.616 208.815)"><tspan x="0" y="0">3</tspan></text>
      </g>
    </g>
  </g>
</svg>
