<svg xmlns="http://www.w3.org/2000/svg" width="267.841" height="171.816" viewBox="0 0 267.841 171.816">
  <defs>
    <style>
      .cls-1 {
        fill: #b6b9c7;
      }

      .cls-1, .cls-17 {
        stroke-linejoin: round;
      }

      .cls-2 {
        fill: #679d2f;
      }

      .cls-3 {
        fill: #578e20;
      }

      .cls-4 {
        fill: #ca8f3f;
      }

      .cls-5 {
        fill: #eaad59;
      }

      .cls-6 {
        fill: #e19a3b;
      }

      .cls-23, .cls-7 {
        fill: #fff;
      }

      .cls-8, .cls-9 {
        fill: #7d4921;
        font-size: 25.435px;
        font-weight: 700;
      }

      .cls-8 {
        font-family: MicrosoftYaHei-Bold, Microsoft YaHei;
      }

      .cls-9 {
        font-family: TimesNewRomanPS-BoldMT, Times New Roman;
      }

      .cls-10 {
        fill: #efc56a;
      }

      .cls-11 {
        fill: #f5b01a;
      }

      .cls-12 {
        fill: #f0d5b7;
      }

      .cls-13 {
        fill: #ee7b1c;
      }

      .cls-14 {
        fill: #f6af1a;
      }

      .cls-15 {
        fill: #ef7a1a;
      }

      .cls-16 {
        fill: #805121;
      }

      .cls-17 {
        fill: none;
        stroke: #805121;
        stroke-linecap: round;
        stroke-width: 2.2px;
      }

      .cls-18 {
        fill: #2b71b0;
      }

      .cls-19 {
        fill: #e7ffff;
      }

      .cls-20 {
        fill: #edd7b3;
      }

      .cls-21 {
        fill: #fcb2a9;
      }

      .cls-22, .cls-23 {
        stroke: none;
      }
    </style>
  </defs>
  <g id="组_3965" data-name="组 3965" transform="translate(-878.839 -1451.531)">
    <g id="路径_11017" data-name="路径 11017" class="cls-1">
      <path class="cls-22" d="M 965.6790771484375 1618.347412109375 C 963.6282348632813 1618.347412109375 961.6455078125 1617.677001953125 959.9453735351563 1616.408813476563 C 958.2792358398438 1615.165893554688 957.1982421875 1613.263305664063 956.7322998046875 1610.754028320313 C 956.5228271484375 1609.625610351563 956.4317626953125 1608.3310546875 956.4603271484375 1606.89501953125 C 956.3280639648438 1606.890747070313 956.1966552734375 1606.885620117188 956.0648193359375 1606.879638671875 C 956.1387329101563 1607.498901367188 956.1575317382813 1608.176635742188 956.0868530273438 1608.900756835938 C 955.8070068359375 1611.768188476563 954.1964721679688 1614.305053710938 951.5518798828125 1616.043823242188 C 949.9019775390625 1617.12939453125 948.0838012695313 1617.703857421875 946.29541015625 1617.703857421875 C 944.107177734375 1617.703857421875 942.037841796875 1616.865112304688 940.468505859375 1615.34228515625 C 939.2846069335938 1614.193481445313 938.4844360351563 1612.7373046875 938.1776733398438 1611.216918945313 C 938.0236206054688 1611.013549804688 937.871826171875 1610.788696289063 937.7254638671875 1610.53955078125 C 936.7791748046875 1609.2314453125 936.1905517578125 1607.546020507813 935.9320678710938 1605.413208007813 C 935.7612915039063 1604.00390625 935.7290649414063 1602.338012695313 935.8363037109375 1600.462036132813 C 935.9105834960938 1599.161499023438 936.0420532226563 1597.929931640625 936.168701171875 1596.943603515625 C 934.6931762695313 1594.628784179688 933.8976440429688 1591.9287109375 933.7982788085938 1588.885009765625 C 933.7611694335938 1587.748168945313 933.8204956054688 1586.618774414063 933.9367065429688 1585.512084960938 C 933.6156616210938 1585.537353515625 933.3409423828125 1585.544677734375 933.1317749023438 1585.544677734375 C 930.7665405273438 1585.544677734375 928.5677490234375 1584.74853515625 926.9404907226563 1583.303100585938 C 925.1621704101563 1581.723876953125 924.2186279296875 1579.398071289063 924.2840576171875 1576.75439453125 C 924.3097534179688 1575.715209960938 924.4845581054688 1574.826538085938 924.6234741210938 1574.273193359375 C 924.853759765625 1572.749877929688 925.2928466796875 1571.318603515625 925.9364624023438 1569.98876953125 C 925.3181762695313 1568.771728515625 924.8058471679688 1567.4404296875 924.4117431640625 1566.0263671875 C 922.1864624023438 1565.496704101563 919.5443115234375 1564.63525390625 916.8812866210938 1563.421264648438 C 914.0741577148438 1562.1416015625 911.453125 1560.580444335938 909.0911254882813 1558.781127929688 C 907.6314086914063 1557.669311523438 906.2698364257813 1556.465209960938 905.0156860351563 1555.17822265625 C 903.4107055664063 1556.135620117188 901.5397338867188 1556.626586914063 899.4539184570313 1556.637817382813 L 899.3878173828125 1556.638061523438 C 895.813720703125 1556.638061523438 892.8676147460938 1555.029541015625 891.3048706054688 1552.22509765625 C 890.420166015625 1550.637329101563 890.0513916015625 1548.772705078125 890.2384643554688 1546.832641601563 C 890.2476196289063 1546.737670898438 890.2581176757813 1546.642578125 890.2698974609375 1546.547729492188 C 888.3162231445313 1545.357666015625 886.9764404296875 1543.756713867188 886.3934326171875 1541.914916992188 C 885.9801635742188 1540.609252929688 885.9603271484375 1539.214477539063 886.3359985351563 1537.881469726563 C 886.5248413085938 1537.211547851563 886.811279296875 1536.560913085938 887.1919555664063 1535.935302734375 C 886.8212280273438 1535.578979492188 886.4712524414063 1535.1962890625 886.1458740234375 1534.78955078125 C 884.57275390625 1532.823364257813 883.7557373046875 1530.535766601563 883.8453369140625 1528.348022460938 C 883.9191284179688 1526.547119140625 884.58984375 1524.912963867188 885.78515625 1523.6220703125 C 886.9146118164063 1522.402221679688 888.47802734375 1521.560424804688 890.3063354492188 1521.187744140625 C 891.46240234375 1520.951782226563 892.4817504882813 1520.76953125 893.3709716796875 1520.62890625 C 893.7140502929688 1517.707641601563 894.4515380859375 1513.625244140625 896.0303344726563 1509.010498046875 C 897.828125 1503.755859375 900.3562622070313 1498.834838867188 903.5446166992188 1494.38427734375 C 907.5084228515625 1488.851196289063 912.4973754882813 1484.047729492188 918.3740844726563 1480.10595703125 C 921.7625732421875 1477.661865234375 926.8446655273438 1475.465942382813 933.4815063476563 1473.578491210938 C 935.4224243164063 1473.026489257813 937.2118530273438 1472.582641601563 938.6658325195313 1472.247924804688 C 938.8800659179688 1471.063354492188 939.1929321289063 1469.704956054688 939.6494750976563 1468.294311523438 C 940.4751586914063 1465.742919921875 941.6062622070313 1463.541381835938 943.01123046875 1461.750732421875 C 944.9805297851563 1459.240844726563 947.4456176757813 1457.555541992188 950.3379516601563 1456.741943359375 L 950.6710205078125 1456.648193359375 L 951.0137329101563 1456.601318359375 C 951.3529052734375 1456.554809570313 951.6931762695313 1456.53125 952.0250854492188 1456.53125 C 954.0811157226563 1456.53125 955.9109497070313 1457.404296875 957.1775512695313 1458.989501953125 C 957.6378173828125 1459.565551757813 957.9854125976563 1460.194213867188 958.2459716796875 1460.846069335938 C 959.6802368164063 1460.145629882813 961.191162109375 1459.791259765625 962.7503051757813 1459.791259765625 C 962.92138671875 1459.791259765625 963.0951538085938 1459.795654296875 963.2666625976563 1459.804443359375 C 964.728759765625 1459.878662109375 966.0393676757813 1460.227905273438 967.1619262695313 1460.842529296875 C 968.4656372070313 1461.55615234375 969.5052490234375 1462.625244140625 970.1683959960938 1463.93408203125 C 970.981689453125 1465.539428710938 971.2084350585938 1467.42236328125 970.8422241210938 1469.530639648438 C 970.7811889648438 1469.882202148438 970.7027587890625 1470.24365234375 970.6072387695313 1470.613891601563 C 971.6001586914063 1470.735107421875 972.6754150390625 1470.894409179688 973.8200073242188 1471.1044921875 C 979.209228515625 1472.093505859375 984.5718994140625 1473.90625 989.7589721679688 1476.492309570313 C 993.476806640625 1478.34619140625 996.9590454101563 1480.794311523438 1000.109130859375 1483.76904296875 C 1002.686767578125 1486.203125 1005.038269042969 1488.982666015625 1007.098388671875 1492.030639648438 C 1008.375305175781 1493.919799804688 1009.47021484375 1495.817016601563 1010.356079101563 1497.576171875 C 1012.838439941406 1496.278442382813 1015.080383300781 1495.64404296875 1017.165222167969 1495.64404296875 C 1017.583679199219 1495.64404296875 1017.999572753906 1495.670654296875 1018.401428222656 1495.723266601563 C 1020.759765625 1496.031616210938 1022.635192871094 1497.512573242188 1023.418151855469 1499.684814453125 C 1024.30126953125 1502.13525390625 1023.492797851563 1504.561157226563 1022.807861328125 1506.1728515625 C 1022.297180175781 1507.374267578125 1021.561096191406 1508.749389648438 1020.616516113281 1510.267211914063 C 1020.775329589844 1510.340576171875 1020.931396484375 1510.418579101563 1021.084716796875 1510.501220703125 C 1021.748046875 1510.859008789063 1022.345092773438 1511.294189453125 1022.869750976563 1511.799194335938 C 1052.405883789063 1510.944213867188 1070.74365234375 1510.475708007813 1077.392822265625 1510.40625 L 1078.276977539063 1510.397094726563 L 1079.110595703125 1510.691650390625 C 1082.846801757813 1512.01171875 1085.1943359375 1512.469604492188 1086.625244140625 1512.588623046875 L 1086.412841796875 1509.891479492188 L 1091.886352539063 1509.956420898438 L 1111.29638671875 1510.186767578125 C 1112.219360351563 1508.335571289063 1113.478759765625 1506.07861328125 1115.085205078125 1503.778076171875 C 1118.671752929688 1498.641845703125 1122.772827148438 1494.9990234375 1127.274291992188 1492.950927734375 L 1130.70654296875 1491.389282226563 L 1133.151489257813 1494.259887695313 C 1136.23583984375 1497.88134765625 1138.865234375 1503.5029296875 1140.365478515625 1509.683227539063 C 1141.808837890625 1515.62890625 1142.03662109375 1521.39306640625 1141.037475585938 1526.137817382813 C 1141.09765625 1526.314697265625 1141.154907226563 1526.490112304688 1141.209716796875 1526.665771484375 L 1141.410766601563 1527.309326171875 L 1141.43408203125 1527.983154296875 C 1141.767822265625 1537.634399414063 1141.450561523438 1580.456420898438 1141.436889648438 1582.274658203125 L 1141.409301757813 1585.951538085938 L 1139.190185546875 1586.626098632813 C 1139.4638671875 1587.837768554688 1139.764038085938 1589.196044921875 1140.057739257813 1590.5830078125 C 1140.60546875 1593.169311523438 1141.01611328125 1595.317993164063 1141.278442382813 1596.969604492188 C 1141.795288085938 1600.223022460938 1141.785888671875 1601.713500976563 1141.240112304688 1603.103515625 C 1141.222412109375 1603.1484375 1141.182739257813 1603.256103515625 1141.147583007813 1603.350952148438 C 1140.660766601563 1604.668823242188 1139.367431640625 1608.169677734375 1136.424682617188 1611.32177734375 C 1134.705322265625 1613.163330078125 1132.684936523438 1614.616821289063 1130.419555664063 1615.641967773438 C 1127.766479492188 1616.842407226563 1124.781982421875 1617.451049804688 1121.548950195313 1617.451049804688 L 981.364990234375 1617.451049804688 L 980.8850708007813 1617.451049804688 L 980.4138793945313 1617.359741210938 C 980.206298828125 1617.319458007813 978.3142700195313 1616.942626953125 975.8430786132813 1616.105102539063 C 974.8002319335938 1615.751586914063 973.8115234375 1615.370361328125 972.8788452148438 1614.962036132813 C 971.1251831054688 1617.056518554688 968.517578125 1618.347412109375 965.6790771484375 1618.347412109375 Z"/>
      <path class="cls-23" d="M 965.6791381835938 1613.347412109375 C 967.6364135742188 1613.347412109375 969.4334716796875 1612.008422851563 969.969970703125 1609.952026367188 C 970.1110229492188 1609.411987304688 970.2470092773438 1608.640014648438 970.375 1607.741943359375 C 974.5830078125 1611.136962890625 981.364990234375 1612.451049804688 981.364990234375 1612.451049804688 L 1121.548950195313 1612.451049804688 C 1133.090942382813 1612.451049804688 1135.93505859375 1602.932006835938 1136.586059570313 1601.276000976563 C 1137.235961914063 1599.620971679688 1133.259033203125 1583.203002929688 1133.259033203125 1583.203002929688 L 1136.43701171875 1582.237060546875 C 1136.43701171875 1582.237060546875 1136.77099609375 1537.81298828125 1136.43701171875 1528.156005859375 C 1136.25 1527.557006835938 1136.036010742188 1526.995971679688 1135.81005859375 1526.451049804688 C 1138.441040039063 1517.399047851563 1134.525024414063 1503.583984375 1129.344970703125 1497.501953125 C 1120.746948242188 1501.413940429688 1115.802001953125 1512.052001953125 1114.485961914063 1515.224975585938 L 1091.827026367188 1514.9560546875 C 1091.827026367188 1514.9560546875 1092.036987304688 1517.62353515625 1087.4091796875 1517.623657226563 C 1085.278076171875 1517.623779296875 1082.121337890625 1517.058227539063 1077.444946289063 1515.406005859375 C 1069.302978515625 1515.490966796875 1044.370971679688 1516.176025390625 1020.263977050781 1516.876953125 C 1019.670593261719 1514.90283203125 1017.988159179688 1514.407836914063 1016.450500488281 1514.407836914063 C 1014.904541015625 1514.407836914063 1013.505004882813 1514.907958984375 1013.505004882813 1514.907958984375 C 1013.505004882813 1514.907958984375 1011.709899902344 1515.727905273438 1010.946838378906 1515.72802734375 C 1010.500061035156 1515.72802734375 1010.407104492188 1515.447021484375 1011.234985351563 1514.556030273438 C 1013.476989746094 1512.14404296875 1021.682983398438 1501.194946289063 1017.752990722656 1500.681030273438 C 1017.561584472656 1500.656005859375 1017.364929199219 1500.64404296875 1017.165222167969 1500.64404296875 C 1013.265197753906 1500.64404296875 1007.960998535156 1505.181030273438 1007.960998535156 1505.181030273438 C 1007.630981445313 1502.77099609375 1001.755004882813 1488.06103515625 987.5280151367188 1480.967041015625 C 973.301025390625 1473.8740234375 962.739013671875 1475.594970703125 963.0770263671875 1475.0810546875 C 963.416015625 1474.566040039063 969.5490112304688 1465.130004882813 963.0130004882813 1464.797973632813 C 962.9248046875 1464.79345703125 962.8370971679688 1464.791259765625 962.750244140625 1464.791259765625 C 956.7700805664063 1464.791259765625 953.9595947265625 1475.251708984375 952.7138061523438 1475.252319335938 C 952.6365966796875 1475.252319335938 952.5655517578125 1475.212158203125 952.5 1475.126953125 C 954.7924194335938 1464.994750976563 954.2487182617188 1461.53125 952.0250854492188 1461.53125 C 951.9178466796875 1461.53125 951.8070068359375 1461.539306640625 951.6920166015625 1461.555053710938 C 943.583984375 1463.836059570313 943.2020263671875 1476.401977539063 943.2020263671875 1476.401977539063 C 943.2020263671875 1476.401977539063 928.2509765625 1479.094970703125 921.2329711914063 1484.208984375 C 897.5159912109375 1500.06396484375 898.0770263671875 1525.157958984375 898.0770263671875 1525.157958984375 C 898.0770263671875 1525.157958984375 898.0725708007813 1525.157958984375 898.0635986328125 1525.157958984375 C 897.8778076171875 1525.157958984375 895.754638671875 1525.178833007813 891.3049926757813 1526.087036132813 C 886.6400146484375 1527.037963867188 889.3670043945313 1532.70703125 893.1019897460938 1533.79296875 C 896.8369750976563 1534.879028320313 896.4580078125 1535.243041992188 896.4580078125 1535.243041992188 C 896.4580078125 1535.243041992188 896.3759765625 1535.2236328125 896.2200927734375 1535.2236328125 C 895.6511840820313 1535.2236328125 894.0972290039063 1535.482299804688 891.947998046875 1537.889038085938 C 889.2109985351563 1540.953979492188 893.6019897460938 1542.847045898438 894.9719848632813 1543.166015625 C 895.0949096679688 1543.194702148438 895.2199096679688 1543.20654296875 895.3440551757813 1543.20654296875 C 895.9440307617188 1543.20654296875 896.5272216796875 1542.929565429688 896.7940673828125 1542.929565429688 C 897.0869750976563 1542.929565429688 896.9984130859375 1543.263061523438 896.1320190429688 1544.662963867188 C 894.3184204101563 1547.59423828125 894.9835205078125 1551.638061523438 899.3878173828125 1551.638061523438 C 899.4010620117188 1551.638061523438 899.4137573242188 1551.638061523438 899.427001953125 1551.637939453125 C 903.8297729492188 1551.6142578125 904.0477905273438 1548.313232421875 905.7116088867188 1548.313232421875 C 905.7260131835938 1548.313232421875 905.7403564453125 1548.3134765625 905.7550048828125 1548.31396484375 C 913.3309936523438 1558.795043945313 925.7529907226563 1561.536010742188 928.635986328125 1561.6669921875 C 929.10400390625 1565.567993164063 930.4829711914063 1568.35205078125 931.8820190429688 1570 C 930.7369995117188 1571.305053710938 929.8200073242188 1573.014038085938 929.531005859375 1575.281005859375 C 929.531005859375 1575.281005859375 928.625 1578.112060546875 930.260986328125 1579.56494140625 C 931.0695190429688 1580.283081054688 932.1492919921875 1580.544555664063 933.1317749023438 1580.544555664063 C 934.1385498046875 1580.544555664063 935.0430908203125 1580.27001953125 935.448974609375 1579.931030273438 C 936.2496337890625 1579.26318359375 937.7609252929688 1572.44482421875 939.1978149414063 1572.44482421875 C 939.2002563476563 1572.44482421875 939.2025756835938 1572.444946289063 939.2050170898438 1572.444946289063 C 939.56298828125 1572.451049804688 939.8660278320313 1572.468994140625 940.10498046875 1572.583984375 C 940.2540283203125 1572.781982421875 940.4119873046875 1572.985961914063 940.5819702148438 1573.196044921875 C 940.823974609375 1573.952026367188 940.7349853515625 1575.47802734375 940.2069702148438 1578.597045898438 C 939.2520141601563 1584.241943359375 937.0139770507813 1590.79296875 941.4299926757813 1595.614013671875 L 941.4210205078125 1595.621948242188 C 941.4210205078125 1595.621948242188 939.6719970703125 1605.232055664063 941.9249877929688 1607.795043945313 C 942.5050048828125 1609.015014648438 943.0070190429688 1608.123046875 943.0380249023438 1609.864990234375 C 943.060302734375 1611.117431640625 944.36328125 1612.703735351563 946.2953491210938 1612.703735351563 C 947.0491333007813 1612.703735351563 947.8982543945313 1612.462646484375 948.8049926757813 1611.865966796875 C 952.0369873046875 1609.740966796875 951.1259765625 1606.791015625 950.5900268554688 1605.859008789063 C 950.052978515625 1604.927001953125 948.5499877929688 1604.698974609375 948.5499877929688 1604.698974609375 L 948.468017578125 1600.260009765625 L 948.468994140625 1600.251953125 C 951.3051147460938 1601.371826171875 954.3895874023438 1601.912475585938 957.5269775390625 1601.912475585938 C 959.045654296875 1601.912475585938 960.576416015625 1601.785888671875 962.0980224609375 1601.536987304688 C 962.0980224609375 1601.536987304688 960.1950073242188 1610.357055664063 962.9349975585938 1612.401000976563 C 963.809326171875 1613.05322265625 964.7618408203125 1613.347412109375 965.6791381835938 1613.347412109375 M 965.6791381835938 1623.347412109375 C 962.5424194335938 1623.347412109375 959.52587890625 1622.333862304688 956.9556274414063 1620.416381835938 C 956.4715576171875 1620.055297851563 956.026123046875 1619.670654296875 955.615966796875 1619.26416015625 C 955.2025146484375 1619.596435546875 954.7638549804688 1619.915893554688 954.2987670898438 1620.2216796875 C 951.8319702148438 1621.844848632813 949.0634155273438 1622.703735351563 946.2953491210938 1622.703735351563 C 940.2512817382813 1622.703735351563 935.0836791992188 1618.684692382813 933.5208740234375 1613.252807617188 C 933.5068969726563 1613.229736328125 933.492919921875 1613.206665039063 933.4790649414063 1613.183471679688 C 931.1177368164063 1609.680786132813 930.281005859375 1604.580932617188 930.9806518554688 1597.967895507813 C 929.6294555664063 1595.3017578125 929.0314331054688 1592.560913085938 928.8599853515625 1589.931274414063 C 926.9083862304688 1589.351928710938 925.119140625 1588.373046875 923.6201171875 1587.04150390625 C 919.1929321289063 1583.10986328125 918.7242431640625 1577.379028320313 919.72412109375 1573.2431640625 C 919.8994750976563 1572.177612304688 920.152587890625 1571.146118164063 920.4828491210938 1570.14990234375 C 915.5697021484375 1568.649658203125 909.446044921875 1565.861450195313 903.9144897460938 1561.031494140625 C 902.6122436523438 1561.398803710938 901.1386108398438 1561.62890625 899.4808349609375 1561.637817382813 C 894.0267944335938 1561.638061523438 889.372314453125 1559.029052734375 886.9371948242188 1554.658813476563 C 885.9674682617188 1552.918579101563 885.4036254882813 1550.997802734375 885.2398071289063 1549.020385742188 C 883.7332153320313 1547.646118164063 882.3862915039063 1545.823852539063 881.6265869140625 1543.423828125 C 880.9354248046875 1541.240356445313 880.8817138671875 1538.995849609375 881.4281005859375 1536.848876953125 C 879.6893310546875 1534.263549804688 878.7235107421875 1531.220336914063 878.8495483398438 1528.143432617188 C 879.0853271484375 1522.385498046875 883.1404418945313 1517.6884765625 888.980712890625 1516.359008789063 C 890.92626953125 1505.859741210938 896.9705200195313 1488.39990234375 915.6754150390625 1475.8955078125 C 920.8253784179688 1472.136352539063 928.6539306640625 1469.59716796875 934.421630859375 1468.111328125 C 936.3914794921875 1461.033813476563 940.8821411132813 1454.2080078125 948.98388671875 1451.9287109375 C 949.4271240234375 1451.804077148438 949.87841796875 1451.710083007813 950.3346557617188 1451.647583007813 C 950.7844848632813 1451.5859375 951.571044921875 1451.531372070313 952.0250854492188 1451.531372070313 C 955.178955078125 1451.531372070313 958.1339721679688 1452.776000976563 960.2984008789063 1454.981811523438 C 961.079833984375 1454.857788085938 961.896728515625 1454.791259765625 962.7503051757813 1454.791259765625 C 968.498046875 1455.063720703125 972.546875 1457.5654296875 974.628662109375 1461.674438476563 C 975.4187622070313 1463.23388671875 975.8385620117188 1464.838012695313 975.9752197265625 1466.44384765625 C 980.555419921875 1467.380859375 986.027099609375 1469.044799804688 991.9898681640625 1472.017700195313 C 1001.685119628906 1476.85205078125 1008.385437011719 1484.550415039063 1012.543518066406 1491.322998046875 C 1014.031860351563 1490.9013671875 1015.586975097656 1490.64404296875 1017.165222167969 1490.64404296875 C 1017.598999023438 1490.64404296875 1018.620056152344 1490.709228515625 1019.050170898438 1490.765502929688 C 1023.236938476563 1491.31298828125 1026.713256835938 1494.0810546875 1028.121948242188 1497.989501953125 C 1029.115966796875 1500.74755859375 1028.870727539063 1503.733154296875 1027.952758789063 1506.650756835938 C 1049.453125 1506.034423828125 1070.069580078125 1505.482421875 1077.340576171875 1505.406616210938 C 1077.375366210938 1505.40625 1077.41015625 1505.406005859375 1077.444946289063 1505.406005859375 C 1078.57958984375 1505.406005859375 1079.7060546875 1505.59912109375 1080.776245117188 1505.977172851563 C 1082.810546875 1506.695922851563 1084.304565429688 1507.101684570313 1085.357788085938 1507.330444335938 C 1087.156005859375 1505.804809570313 1089.446655273438 1504.9560546875 1091.826904296875 1504.9560546875 C 1091.866577148438 1504.9560546875 1091.905883789063 1504.956298828125 1091.945678710938 1504.956787109375 L 1108.311157226563 1505.151000976563 C 1111.605346679688 1499.355834960938 1117.090087890625 1492.09130859375 1125.20361328125 1488.399780273438 C 1126.534912109375 1487.794067382813 1127.945434570313 1487.50146484375 1129.341430664063 1487.50146484375 C 1132.206298828125 1487.50146484375 1135.011840820313 1488.73291015625 1136.9580078125 1491.017944335938 C 1143.39306640625 1498.573608398438 1148.1875 1513.69189453125 1146.172485351563 1525.87109375 C 1146.321655273438 1526.506958007813 1146.408447265625 1527.156494140625 1146.431030273438 1527.810424804688 C 1146.768432617188 1537.565551757813 1146.450439453125 1580.48974609375 1146.436767578125 1582.312255859375 C 1146.421142578125 1584.388793945313 1145.765869140625 1586.345825195313 1144.6337890625 1587.96533203125 C 1147.484252929688 1600.883666992188 1146.796997070313 1602.631958007813 1145.894165039063 1604.93115234375 C 1141.760131835938 1616.120849609375 1132.9072265625 1622.451049804688 1121.548950195313 1622.451049804688 L 981.364990234375 1622.451049804688 C 980.7265014648438 1622.451049804688 980.0895385742188 1622.389892578125 979.4627075195313 1622.268432617188 C 978.7390747070313 1622.128295898438 976.593994140625 1621.672485351563 973.9163208007813 1620.739379882813 C 971.5572509765625 1622.394775390625 968.7047119140625 1623.347412109375 965.6791381835938 1623.347412109375 Z"/>
    </g>
    <g id="组_3963" data-name="组 3963">
      <path id="路径_11018" data-name="路径 11018" class="cls-2" d="M1114.127,1516.132s5.061-14.009,15.218-18.63c6.3,7.4,10.739,26.234,3.794,34.028S1114.127,1516.132,1114.127,1516.132Z"/>
      <rect id="矩形_1375" data-name="矩形 1375" class="cls-3" width="2.457" height="15.472" rx="1.229" transform="translate(1126.68 1509.081) rotate(7.543)"/>
      <path id="路径_11019" data-name="路径 11019" class="cls-4" d="M1115.2,1515.285s16.723-1.616,21.24,12.871c.335,9.657,0,54.081,0,54.081l-3.178.966s3.977,16.418,3.327,18.073-3.5,11.175-15.037,11.175H981.365s-14.255-2.759-14.255-10.623S1115.2,1515.285,1115.2,1515.285Z"/>
      <path id="路径_11020" data-name="路径 11020" class="cls-5" d="M1129.969,1590.415a17,17,0,0,1,.037,1.8,15.95,15.95,0,0,1-.472,3.472c-2.442,9.524-13.388,11.387-13.388,11.387h-139.6c-5.2,0-9.416-3.407-9.431-7.618-.007-5.451-.007-12.968.051-19.579.022-2.776.058-5.393.109-7.625v-.095c.007-.405.022-.79.029-1.167.072-2.682.159-4.668.29-5.465-.522-1.7-.5-9.684-.362-16.947v-.029c.13-6.669.362-12.736.362-12.736l-.131-4.7-.029-1.138c-.181-6.387,6-11.7,13.882-11.946,26.74-.812,83.062-2.494,96.131-2.632,14.831,5.241,14.382-.449,14.382-.449l26.276.312c6.6.079,11.9,4.407,11.953,9.749l.058,6.1.065,7.589.3,32.285.014,1.167.036,4.386s-3.791,2.805-4.124,2.986c-.3.153,1.384,2.4,2.936,8.191.1.4.2.82.311,1.262s.218.9.319,1.377Z"/>
      <path id="路径_11021" data-name="路径 11021" class="cls-6" d="M1130.18,1544.283l-162.721,15.226s-.1-1.183-.229-3.035v-.028c.132-8.242.36-15.729.36-15.729l-.131-5.8c2.16,2.178,162.652,0,162.652,0Z"/>
      <path id="路径_11022" data-name="路径 11022" class="cls-6" d="M1129.969,1590.415a17,17,0,0,1,.037,1.8,15.95,15.95,0,0,1-.472,3.472c-14.171-1.131-159.043-15.483-162.37-15.81a.339.339,0,0,0-.058-.007v-8.88h163.371l.014,1.167.036,4.386s-3.791,2.805-4.124,2.986c-.3.153,1.384,2.4,2.936,8.191.1.4.2.82.311,1.262S1129.861,1589.922,1129.969,1590.415Z"/>
      <path id="路径_11023" data-name="路径 11023" class="cls-7" d="M985.658,1530.9s.669,6.165-3.791,18.414,4.683,43.472,4.46,44.513c4.8-.64,58.215-1.681,71.821,1.2s57.211-3.683,57.211-3.683-8.029-6.723,1.561-31.062c4.015-10.969-1.672-29.383-1.672-29.383S1046.884,1536.026,985.658,1530.9Z"/>
      <text id="中午" class="cls-8" transform="translate(998.531 1571.509)"><tspan x="0" y="0">中午</tspan></text>
      <text id="_12:00" data-name="12:00" class="cls-9" transform="translate(1051.47 1571.509)"><tspan x="0" y="0">12:00</tspan></text>
    </g>
    <g id="组_3964" data-name="组 3964">
      <path id="路径_11024" data-name="路径 11024" class="cls-10" d="M966.506,1600.3s2.833-7.73,8.858-11.283,12.746.475,16.415-5.865,2.447.834,2.447.834-2.474,6.652-11.524,6.432-10.042,5.165-11.664,7.946-3.862,5.87-5.252,5.02S966.506,1600.3,966.506,1600.3Z"/>
      <path id="路径_11025" data-name="路径 11025" class="cls-10" d="M941.421,1595.622s-1.75,9.611.5,12.173c.58,1.22,1.082.328,1.113,2.07s2.536,4.127,5.767,2a4.411,4.411,0,0,0,1.785-6.007,3.2,3.2,0,0,0-2.04-1.16l-.082-4.439.089-3.4S944.328,1592.436,941.421,1595.622Z"/>
      <path id="路径_11026" data-name="路径 11026" class="cls-10" d="M962.1,1601.537s-1.9,8.82.837,10.864a4.426,4.426,0,0,0,7.035-2.449c.788-3.02,1.417-13.193,1.417-13.193l-.126-3.043-9.758,2.147Z"/>
      <path id="路径_11027" data-name="路径 11027" class="cls-11" d="M938.942,1566.094s-8.409,1.344-9.411,9.186c0,0-.906,2.832.73,4.285a4.69,4.69,0,0,0,5.188.366c.8-.669,2.317-7.509,3.756-7.486s2,.244,1,6.152-3.424,12.814,1.867,17.684,12.77,6.442,20.024,5.256,10.494-5.746,12.455-9.147-.538-12.984-1.071-15.172-1.331-5.419-1.331-5.419-.775-1.351,1.4-.888,12.03,1.279,13.618-5.965c.875-3.418,1.355-6.342-2.543-6.782a6.918,6.918,0,0,0-4.075,2.776c-1.619,2.335-4.238,4.546-8.039,3.6s-12.877-5.69-12.877-5.69l-16.872-.629Z"/>
      <circle id="椭圆_1963" data-name="椭圆 1963" class="cls-12" cx="12.24" cy="12.24" r="12.24" transform="translate(944.683 1570.674)"/>
      <path id="路径_11028" data-name="路径 11028" class="cls-13" d="M943.2,1476.4s.382-12.566,8.49-14.847c2.5-.342,3.211,2.951.808,13.572,1.139,1.482,3.976-10.661,10.513-10.329s.4,9.768.064,10.283,10.224-1.207,24.451,5.886,20.1,21.8,20.433,24.214c0,0,5.862-5.013,9.792-4.5s-4.276,11.463-6.518,13.875,2.27.352,2.27.352,6.5-2.334,6.963,3.021-4.943,9.722-11.351,9.9c-.613,1.215-2.793,14.885-16.756,23.933-5.287,3.805-6.675,3.917-6.976,6.843s-.2,10.748-5.246,7.229c-1.906-1.96-1.935-5.582-1.935-5.582s-1.1,9.624-5.132,10.333c-2.6.356-4.374-2.831-4.374-2.831s.069,10.672-9,10.511-9.417-7.909-9.417-7.909-4.2,8.567-9.23,3.41c-3.2-3.713-3.137-5.827-3.137-5.827s-1.6,3.67-3.217,3.833-5.242-3.258-6.064-10.1c-2.883-.131-15.3-2.872-22.881-13.353-1.7-.058-1.887,3.3-6.328,3.324s-5.114-4.035-3.295-6.975.209-1.178-1.16-1.5-5.761-2.212-3.024-5.277,4.51-2.646,4.51-2.646.379-.364-3.356-1.45-6.462-6.755-1.8-7.706a36.9,36.9,0,0,1,6.772-.929,51.274,51.274,0,0,1,23.156-40.949C928.251,1479.095,943.2,1476.4,943.2,1476.4Z"/>
      <path id="路径_11029" data-name="路径 11029" class="cls-14" d="M921.692,1513.15s-10.4-9.334-3.711-15.982,12.674-2.244,15.059.938l2.385,3.181s14.521-10.1,36.889-1.627c0,0,4.709-11.717,14.606-7.772s3.56,15.729-1.2,19.111c-.407.445,8.228,15.089,4.149,27.421-1.961,1.048-69.921,1.243-69.921,1.243A25.144,25.144,0,0,1,921.692,1513.15Z"/>
      <path id="路径_11030" data-name="路径 11030" class="cls-12" d="M989.869,1538.42c-7.5-7.362-19.479-10.894-33.306-11.118-15.28-.248-29.045,3.916-36.615,12.361a52.481,52.481,0,0,0,30.389,13.827C967.18,1554.979,982.211,1547.912,989.869,1538.42Z"/>
      <path id="路径_11031" data-name="路径 11031" class="cls-15" d="M948.622,1527.584s.339-12.871,9.222-11.2c4.656,1.544,5.323,11.3,5.323,11.3a4.066,4.066,0,0,1-1.076,2.621C961.1,1531.058,947.706,1532.786,948.622,1527.584Z"/>
      <path id="路径_11032" data-name="路径 11032" class="cls-16" d="M947.5,1529.1a3.292,3.292,0,0,0,1.789,4.354c3.041,1.3,14.3,1.7,14.485-1.6s-2.638-5.1-4.023-5.53a28.311,28.311,0,0,0-8.826-.115A5.718,5.718,0,0,0,947.5,1529.1Z"/>
      <path id="路径_11033" data-name="路径 11033" class="cls-17" d="M937.12,1539.377s3.884,8.91,13.748,5.23c4.852-2.328,3.959-6.113,3.959-6.113"/>
      <path id="路径_11034" data-name="路径 11034" class="cls-17" d="M972.693,1538.728s-3.071,9.222-13.224,6.44c-5.042-1.885-4.491-5.734-4.491-5.734"/>
      <circle id="椭圆_1964" data-name="椭圆 1964" class="cls-7" cx="7.124" cy="7.124" r="7.124" transform="translate(965.589 1513.493)"/>
      <circle id="椭圆_1965" data-name="椭圆 1965" class="cls-18" cx="5.538" cy="5.538" r="5.538" transform="translate(966.6 1516.634)"/>
      <circle id="椭圆_1966" data-name="椭圆 1966" class="cls-19" cx="2.195" cy="2.195" r="2.195" transform="translate(973.552 1518.528)"/>
      <circle id="椭圆_1967" data-name="椭圆 1967" class="cls-7" cx="7.124" cy="7.124" r="7.124" transform="translate(932.331 1513.392)"/>
      <circle id="椭圆_1968" data-name="椭圆 1968" class="cls-18" cx="5.538" cy="5.538" r="5.538" transform="translate(933.341 1516.532)"/>
      <circle id="椭圆_1969" data-name="椭圆 1969" class="cls-19" cx="2.195" cy="2.195" r="2.195" transform="translate(940.293 1518.427)"/>
      <path id="路径_11035" data-name="路径 11035" class="cls-15" d="M970.467,1508.646s-2.4-2.166,1.52-2.275,6.891,2.213,7.084,3.9-2.045,1.294-3.068.654a8.412,8.412,0,0,0-3.679-1.386C971.458,1509.621,970.467,1508.646,970.467,1508.646Z"/>
      <path id="路径_11036" data-name="路径 11036" class="cls-15" d="M938.974,1508.6s2.114-2.447-1.791-2.068-6.563,3.052-6.545,4.751,2.19,1.03,3.126.269a8.414,8.414,0,0,1,3.478-1.833C938.111,1509.69,938.974,1508.6,938.974,1508.6Z"/>
      <path id="路径_11037" data-name="路径 11037" class="cls-20" d="M924.641,1508.5s6.217-6.115,6.48-6.19-1.044-5.626-5.033-5.43-6.486,3.306-5.832,5.516S922.983,1508.061,924.641,1508.5Z"/>
      <path id="路径_11038" data-name="路径 11038" class="cls-20" d="M984.615,1506.444s-7.168-4.967-7.44-5,.071-5.722,4.034-6.208,6.955,2.153,6.687,4.442S986.175,1505.732,984.615,1506.444Z"/>
      <path id="路径_11039" data-name="路径 11039" class="cls-13" d="M990.693,1573.226s-4.49,5.163.46,9.005,7.755-1.263,8.386-4.173-.409-9.208-5.318-10.454c-2.545-.161-.55,1.423-.647,1.91S993.815,1571.218,990.693,1573.226Z"/>
      <path id="路径_11040" data-name="路径 11040" class="cls-21" d="M989.372,1538.992a7.548,7.548,0,0,0-1.218-2.113,31.357,31.357,0,0,0-2.92-2.173,7.544,7.544,0,0,0-7.127,13.215A38.967,38.967,0,0,0,989.372,1538.992Z"/>
      <path id="路径_11041" data-name="路径 11041" class="cls-21" d="M929.027,1534.124a7.538,7.538,0,0,0-7.512,6.943,53.612,53.612,0,0,0,11.018,7.276,7.541,7.541,0,0,0-3.506-14.219Z"/>
    </g>
  </g>
</svg>
