<svg xmlns="http://www.w3.org/2000/svg" width="150.579" height="160.884" viewBox="0 0 150.579 160.884">
  <defs>
    <style>
      .cls-1 {
        fill: #fe675f;
      }

      .cls-2 {
        fill: #d5536e;
      }

      .cls-3 {
        fill: #eed4d6;
      }

      .cls-4 {
        fill: #e0bec4;
      }

      .cls-5 {
        fill: #dc96af;
      }

      .cls-6 {
        fill: #b36684;
      }

      .cls-7 {
        fill: #e8cad7;
      }

      .cls-8 {
        fill: #d784b7;
      }

      .cls-9 {
        fill: #eacad7;
      }

      .cls-10 {
        fill: #ffc9a9;
      }

      .cls-11 {
        fill: #fc8a5e;
      }

      .cls-12 {
        fill: #fe9161;
      }

      .cls-13 {
        fill: #ffc0a7;
      }

      .cls-14 {
        fill: #fd885f;
      }

      .cls-15 {
        fill: #b66690;
      }

      .cls-16 {
        fill: #b24d90;
      }

      .cls-17 {
        fill: #fff;
      }

      .cls-18 {
        fill: #ff6d60;
      }

      .cls-19 {
        fill: #fa8862;
      }

      .cls-20 {
        fill: #b1678d;
      }

      .cls-21 {
        fill: #aa6a32;
      }

      .cls-22 {
        fill: #eeb896;
      }

      .cls-23 {
        fill: #ebb6a2;
      }

      .cls-24 {
        fill: #5fb2d6;
      }

      .cls-25 {
        fill: #f60;
      }

      .cls-26 {
        fill: #ff9b00;
      }

      .cls-27 {
        fill: #7d4921;
        font-size: 16.719px;
        font-family: TimesNewRomanPS-BoldMT, Times New Roman;
        font-weight: 700;
      }
    </style>
  </defs>
  <g id="组_6993" data-name="组 6993" transform="translate(-1203 -914.555)">
    <g id="组_6960" data-name="组 6960" transform="translate(327.941 799)">
      <g id="图层_2" data-name="图层 2" transform="translate(0.085 3.781)">
        <g id="图层_1-2" data-name="图层 1-2">
          <path id="路径_14385" data-name="路径 14385" class="cls-1" d="M878.692,125.786s-7.065,3.832-1.718,8.329c2.291,2,7.065,2.831,7.637,3s4.965-7.329,4.965-7.329l19.094-1.665,10.693,2.5,3.055,3,3.819,2.331-1.91,2.165s8.975-.832,8.4-6.492c0,0-1.094-2.537-4.995-5.472a63.17,63.17,0,0,1-6.9-7.105c-.292-.382-7.143-9.482-21.386-6.761-2.234.381-8.628,2.547-14.421,8.588A24.647,24.647,0,0,1,878.692,125.786Z"/>
          <path id="路径_14386" data-name="路径 14386" class="cls-1" d="M924.327,138.111l1.91-2.165-3.819-2.331-3.055-3-10.693-2.5-19.094,1.665s-4.392,7.5-4.965,7.329-5.346-1-7.637-3c-5.347-4.5,1.718-8.329,1.718-8.329a24.591,24.591,0,0,0,6.336-4.915c5.795-6.043,12.188-8.209,14.431-8.592a25.973,25.973,0,0,1,7.922-.348,20.867,20.867,0,0,1,11.163,4.774,15.438,15.438,0,0,1,2.291,2.344c.132.172.909,1.1,2.009,2.309a56.087,56.087,0,0,0,4.544,4.5l.346.293c3.9,2.934,4.995,5.472,4.995,5.472C933.3,137.279,924.327,138.111,924.327,138.111Z"/>
          <path id="路径_14387" data-name="路径 14387" class="cls-2" d="M923.054,130.693a19.434,19.434,0,0,0-4-1.688,60.271,60.271,0,0,0-11.876-2.259,53.236,53.236,0,0,0-7.722-.219,45.556,45.556,0,0,0-13.7,2.812,22.854,22.854,0,0,0-2.656,1.2,12.015,12.015,0,0,0-2.627,1.746c-.848.847-1.039,1.806.286,2.975,2.316,2.041,8.751,3.018,8.751,3.018l23.295,1.383A34.586,34.586,0,0,0,924.32,138.1C930.921,135.2,926.563,132.1,923.054,130.693Z"/>
          <path id="路径_14388" data-name="路径 14388" class="cls-3" d="M889.513,138.283s1.56-6.526,4.485-7.59,10.678-3.055,20.622.978c2.389,1.233,2.73,2.19,3.584,5.379s4.785,21.778,3.487,25.131-11.965,8.327-29.383,4.642c-4.42-1.134-7.378-3.345-7.255-4.981S887.739,142.994,889.513,138.283Z"/>
          <path id="路径_14389" data-name="路径 14389" class="cls-4" d="M908.227,129.775s4.946,1.64,7.418,9.875,2.435,25.548-1.35,27.154c1.362-.433,7.565-1.871,7.638-5.9s-3.206-26.57-4.888-27.2C915.808,132.383,916.409,131.491,908.227,129.775Z"/>
          <path id="路径_14390" data-name="路径 14390" class="cls-5" d="M892.308,166.823s-2.469-18.993,9.817-18.88,10.3,8.109,11.038,19.165C910.007,167.719,904.985,169.262,892.308,166.823Z"/>
          <path id="路径_14391" data-name="路径 14391" class="cls-6" d="M904.571,147.943s-7.791,1.121-8.959,6.946A76.386,76.386,0,0,0,894.38,167.2l-2.066-.381s-1.99-13.036,4.527-17.311C898.581,147.943,901.189,147.823,904.571,147.943Z"/>
          <path id="路径_14392" data-name="路径 14392" class="cls-7" d="M893.187,144.2a1.154,1.154,0,0,0,.975,1.646c1.56.539,11.6,2.238,18.818-.191.844-.191,1.023-.695.941-1.162a1.96,1.96,0,0,0-.376-.833Z"/>
          <path id="路径_14393" data-name="路径 14393" class="cls-8" d="M895.82,137.653h6.337v-3.819A7.919,7.919,0,0,0,895.82,137.653Z"/>
          <path id="路径_14394" data-name="路径 14394" class="cls-8" d="M904.571,137.653v-3.819a9.027,9.027,0,0,1,6.11,3.819Z"/>
          <path id="路径_14395" data-name="路径 14395" class="cls-8" d="M904.571,142.946v-3.769l6.79-.107a4.323,4.323,0,0,1,.551,3.175C911.653,144.449,904.571,142.946,904.571,142.946Z"/>
          <path id="路径_14396" data-name="路径 14396" class="cls-8" d="M902.157,139.077h-6.964a7.359,7.359,0,0,0-.706,3.176c1.337.928,7.67.632,7.67.632Z"/>
          <path id="路径_14397" data-name="路径 14397" class="cls-9" d="M904.979,133.893v3.76h-.408v-3.819C904.708,133.847,904.844,133.867,904.979,133.893Z"/>
          <path id="路径_14398" data-name="路径 14398" class="cls-9" d="M894.905,139.763h7.256v-.686h-6.968A5.152,5.152,0,0,0,894.905,139.763Z"/>
          <path id="路径_14399" data-name="路径 14399" class="cls-9" d="M905.071,142.95v-3.187h6.649s-.256-.686-.365-.686l-6.79.107v3.77Z"/>
          <path id="路径_14400" data-name="路径 14400" class="cls-10" d="M888.56,117.692a4.844,4.844,0,0,0,.661,1.317c.34.363,1.682,4.081-1.365,5.335s-5.29.285-5.752-.8c.606-.471,2.926-2.661,2.926-2.661S887.531,118.456,888.56,117.692Z"/>
          <path id="路径_14401" data-name="路径 14401" class="cls-11" d="M885.759,129.339a22.854,22.854,0,0,0-2.656,1.2,12.015,12.015,0,0,0-2.627,1.746,2.921,2.921,0,0,1-1.564-2.515,3.244,3.244,0,0,1,3.437-3A3.335,3.335,0,0,1,885.759,129.339Z"/>
          <ellipse id="椭圆_2716" data-name="椭圆 2716" class="cls-12" cx="2.795" cy="2.438" rx="2.795" ry="2.438" transform="translate(894.877 117.354)"/>
          <path id="路径_14402" data-name="路径 14402" class="cls-13" d="M919.178,127.953a4.545,4.545,0,0,1-.121,1.052,60.271,60.271,0,0,0-11.876-2.259,5.973,5.973,0,0,1,5.919-4.09C916.457,122.656,919.178,125.028,919.178,127.953Z"/>
          <path id="路径_14403" data-name="路径 14403" class="cls-11" d="M918.544,116.7a6.621,6.621,0,0,1-5.11,2.278c-3.483,0-6.3-2.463-6.3-5.5a4.878,4.878,0,0,1,.248-1.543A20.863,20.863,0,0,1,918.544,116.7Z"/>
          <path id="路径_14404" data-name="路径 14404" class="cls-14" d="M927.388,125.851a3.693,3.693,0,0,1-2.432.878,3.229,3.229,0,0,1-3.437-3,2.885,2.885,0,0,1,1.336-2.376A56.3,56.3,0,0,0,927.388,125.851Z"/>
          <path id="路径_14405" data-name="路径 14405" class="cls-15" d="M898.527,150.438l.561-.4v17.8l-.561-.052Z"/>
          <path id="路径_14406" data-name="路径 14406" class="cls-15" d="M903.622,148l.439.036v20.085h-.491Z"/>
          <path id="路径_14407" data-name="路径 14407" class="cls-15" d="M905.539,148.243s-.539,8.867,3.3,9.4v10.2l.529-.042V149.728l-.46-.3-.025,2.592s-.317.158-.382-.373-.263-2.579-.263-2.579l-.371-.165s-.191,3.945.988,3.573c.047.265.061,2.222.061,2.222s-1.849.107-1.845-6.081l-.422-.124s-.3,6.223,2.165,6.578l.083.009-.031,2.074s-2.969.191-3.028-8.854Z"/>
          <path id="路径_14408" data-name="路径 14408" class="cls-15" d="M910.108,167.7s-.878-8.888.827-8.349c.5.085,1.581,2.241,2.148,6.421.049.894.076,1.337.076,1.337l-.256.049s-1.008-6.032-1.544-6.826c-.306-.556-.573-.8-.8.032a27.783,27.783,0,0,0-.03,7.268Z"/>
          <path id="路径_14409" data-name="路径 14409" class="cls-15" d="M912.59,167.222s-.987-6.337-1.783-5.218c-.21.269-.05,3.341.191,5.537l.393-.076s-.546-5-.218-4.724a30.431,30.431,0,0,1,1.081,4.546Z"/>
          <path id="路径_14410" data-name="路径 14410" class="cls-16" d="M922.934,126.729s2.048,4.05,1.909,4.8c-.391.1-6.11,2.242-6.924,3.2.415,0,7.938-1.89,8.32-2.291S924.541,127.7,922.934,126.729Z"/>
          <path id="路径_14411" data-name="路径 14411" class="cls-16" d="M884.3,129.954l1.115-.473s3.437,2.806,4.27,4.487C889.246,133.712,884.484,129.87,884.3,129.954Z"/>
          <path id="路径_14412" data-name="路径 14412" class="cls-16" d="M881.276,131.906s-1.1.868.191,1.178,7.483,2.28,8.21,2.656a6.736,6.736,0,0,0-1.293-1.22C888.1,134.3,883.128,129.99,881.276,131.906Z"/>
          <path id="路径_14413" data-name="路径 14413" class="cls-17" d="M894.069,142.386s-.942,1.5-.877,1.814,11.669,2.156,17.185.711c2.99-.653,3.283-1.035,3.17-1.249a17.686,17.686,0,0,0-1.642-1.417s-3.347,1.587-17.42,0C894.325,142.245,894.166,142.22,894.069,142.386Z"/>
          <ellipse id="椭圆_2717" data-name="椭圆 2717" class="cls-18" cx="2.079" cy="1.814" rx="2.079" ry="1.814" transform="translate(893.968 156.888)"/>
          <path id="路径_14414" data-name="路径 14414" class="cls-19" d="M893.966,158.7a1.543,1.543,0,0,0,.08.491,2.306,2.306,0,0,0,1.119.287,1.965,1.965,0,0,0,2.081-1.814,1.6,1.6,0,0,0-.08-.491,2.294,2.294,0,0,0-1.119-.288A1.962,1.962,0,0,0,893.966,158.7Z"/>
          <path id="路径_14415" data-name="路径 14415" class="cls-20" d="M902.157,133.825v.572s-2.933-.181-5.8,3.256h-.544S897.273,134.321,902.157,133.825Z"/>
          <path id="路径_14416" data-name="路径 14416" class="cls-20" d="M894.905,139.763h.573a7.71,7.71,0,0,0-.433,2.545l-.573-.063A8.936,8.936,0,0,1,894.905,139.763Z"/>
        </g>
      </g>
      <g id="组_5184" data-name="组 5184" transform="translate(0.085 3.781)">
        <path id="路径_14417" data-name="路径 14417" class="cls-21" d="M956.345,134.243a69.207,69.207,0,1,0,69.208,69.208,69.208,69.208,0,0,0-69.208-69.208Zm0,123.259a54.052,54.052,0,1,1,54.051-54.051A54.051,54.051,0,0,1,956.345,257.5Z"/>
        <path id="路径_14418" data-name="路径 14418" class="cls-22" d="M956.345,137.169a66.281,66.281,0,1,0,66.282,66.282,66.282,66.282,0,0,0-66.282-66.282Zm0,118.048a51.766,51.766,0,1,1,51.766-51.766A51.767,51.767,0,0,1,956.345,255.217Z"/>
        <path id="路径_14419" data-name="路径 14419" class="cls-17" d="M898.407,203.451a57.938,57.938,0,0,0,115.876.016v-.016a57.938,57.938,0,1,0-115.876-.017Z"/>
        <path id="路径_14420" data-name="路径 14420" class="cls-23" d="M954.267,137.169h4.157v13.8h-4.157Zm0,118.765h4.157v13.8h-4.157Z"/>
        <path id="路径_14421" data-name="路径 14421" class="cls-23" d="M924.875,145.5l6.945,12.031-3.622,2.092-6.946-12.03Zm59.314,102.648,6.947,12.029-3.624,2.092-6.946-12.03Z"/>
        <path id="路径_14422" data-name="路径 14422" class="cls-23" d="M899.946,168.646l12.03,6.945-2.092,3.624-12.029-6.946Zm102.8,59.4,12.031,6.945-2.093,3.624-12.029-6.946Z"/>
        <path id="路径_14423" data-name="路径 14423" class="cls-23" d="M890.064,201.372h13.8v4.157h-13.8Zm118.763,0h13.8v4.157h-13.8Z"/>
        <path id="路径_14424" data-name="路径 14424" class="cls-23" d="M909.852,227.9l2.079,3.6-11.954,6.9-2.078-3.6Zm102.861-59.38,2.079,3.6-11.954,6.9-2.078-3.6Z"/>
        <path id="路径_14425" data-name="路径 14425" class="cls-23" d="M928.3,247.857l3.6,2.078L925,261.887l-3.6-2.079ZM987.678,145.01l3.6,2.078-6.9,11.952-3.6-2.079Z"/>
        <path id="路径_14426" data-name="路径 14426" class="cls-24" d="M952.136,203.451a4.209,4.209,0,1,0,4.209-4.21A4.209,4.209,0,0,0,952.136,203.451Z"/>
        <path id="路径_14427" data-name="路径 14427" class="cls-17" d="M954.6,203.451a1.747,1.747,0,0,0,3.494,0h0a1.747,1.747,0,1,0-3.494,0Z"/>
        <path id="路径_14428" data-name="路径 14428" class="cls-25" d="M949.271,217.2a24.488,24.488,0,0,0-1.071,9.666,23.245,23.245,0,0,0,6-18.049,24.477,24.477,0,0,0-4.932,8.383Z"/>
        <path id="路径_14429" data-name="路径 14429" class="cls-26" d="M958.974,225.705a60.578,60.578,0,0,0-2.372-15.912,59.238,59.238,0,0,0,.373,31.876A60.528,60.528,0,0,0,958.974,225.705Z"/>
        <text id="_1" data-name="1" class="cls-27" transform="translate(977.41 171.58)"><tspan x="0" y="0">1</tspan></text>
        <text id="_5" data-name="5" class="cls-27" transform="translate(974.474 246.197)"><tspan x="0" y="0">5</tspan></text>
        <text id="_2" data-name="2" class="cls-27" transform="translate(992.701 186.993)"><tspan x="0" y="0">2</tspan></text>
        <text id="_12" data-name="12" class="cls-27" transform="translate(948.1 165.097)"><tspan x="0" y="0">12</tspan></text>
        <text id="_6" data-name="6" class="cls-27" transform="translate(952.136 252.435)"><tspan x="0" y="0">6</tspan></text>
        <text id="_11" data-name="11" class="cls-27" transform="translate(925.837 171.58)"><tspan x="0" y="0">11</tspan></text>
        <text id="_7" data-name="7" class="cls-27" transform="translate(929.751 246.197)"><tspan x="0" y="0">7</tspan></text>
        <text id="_10" data-name="10" class="cls-27" transform="translate(909.812 186.993)"><tspan x="0" y="0">10</tspan></text>
        <text id="_8" data-name="8" class="cls-27" transform="translate(913.482 233.335)"><tspan x="0" y="0">8</tspan></text>
        <text id="_4" data-name="4" class="cls-27" transform="translate(992.701 233.335)"><tspan x="0" y="0">4</tspan></text>
        <text id="_9" data-name="9" class="cls-27" transform="translate(906.388 208.815)"><tspan x="0" y="0">9</tspan></text>
        <text id="_3" data-name="3" class="cls-27" transform="translate(997.273 208.815)"><tspan x="0" y="0">3</tspan></text>
      </g>
    </g>
  </g>
</svg>
