<svg xmlns="http://www.w3.org/2000/svg" width="237.521" height="198.282" viewBox="0 0 237.521 198.282">
  <defs>
    <style>
      .cls-1 {
        fill: #b6b9c7;
      }

      .cls-1, .cls-16 {
        stroke-linejoin: round;
      }

      .cls-2 {
        fill: #679d2f;
      }

      .cls-3 {
        fill: #578e20;
      }

      .cls-4 {
        fill: #ca8f3f;
      }

      .cls-5 {
        fill: #eaad59;
      }

      .cls-6 {
        fill: #e19a3b;
      }

      .cls-19, .cls-7 {
        fill: #fff;
      }

      .cls-8, .cls-9 {
        fill: #7d4921;
        font-size: 25.435px;
        font-weight: 700;
      }

      .cls-8 {
        font-family: MicrosoftYaHei-Bold, Microsoft YaHei;
      }

      .cls-9 {
        font-family: TimesNewRomanPS-BoldMT, Times New Roman;
      }

      .cls-10 {
        fill: #fcfdea;
      }

      .cls-11 {
        fill: #f1afa1;
      }

      .cls-12 {
        fill: #2b71b0;
      }

      .cls-13 {
        fill: #e7ffff;
      }

      .cls-14 {
        fill: #eeac9e;
      }

      .cls-15 {
        fill: #f6afa2;
      }

      .cls-16 {
        fill: none;
        stroke: #eeac9e;
        stroke-linecap: round;
        stroke-width: 2.2px;
      }

      .cls-17 {
        fill: #fcb2a9;
      }

      .cls-18, .cls-19 {
        stroke: none;
      }
    </style>
  </defs>
  <g id="组_3956" data-name="组 3956" transform="translate(-327.811 -1430.451)">
    <g id="路径_10952" data-name="路径 10952" class="cls-1">
      <path class="cls-18" d="M 540.2009887695313 1623.733032226563 L 400.0169982910156 1623.733032226563 L 399.5367126464844 1623.733032226563 L 399.0652160644531 1623.6416015625 C 398.9248046875 1623.614379882813 396.5005798339844 1623.136108398438 393.5257568359375 1622.041748046875 C 392.0306701660156 1623.116088867188 390.216064453125 1623.732177734375 388.3025207519531 1623.732177734375 C 386.34033203125 1623.732177734375 384.4443969726563 1623.091674804688 382.8197326660156 1621.880004882813 C 381.2093200683594 1620.678344726563 380.1672973632813 1618.853393554688 379.7217407226563 1616.455200195313 C 379.7158813476563 1616.423706054688 379.7101440429688 1616.391967773438 379.7044677734375 1616.360229492188 C 379.0895080566406 1618.4306640625 377.7057189941406 1620.239868164063 375.6962890625 1621.56201171875 C 374.1196899414063 1622.599243164063 372.3795776367188 1623.1474609375 370.6639404296875 1623.1474609375 C 368.5545349121094 1623.1474609375 366.5597839355469 1622.3388671875 365.047119140625 1620.870727539063 C 363.93115234375 1619.78759765625 363.1681518554688 1618.419189453125 362.8564147949219 1616.984130859375 C 362.7306518554688 1616.812377929688 362.6067199707031 1616.625610351563 362.4866333007813 1616.422119140625 C 361.5873413085938 1615.171875 361.0289611816406 1613.575073242188 360.7853698730469 1611.565795898438 C 360.6266784667969 1610.256713867188 360.596435546875 1608.713745117188 360.695556640625 1606.979736328125 C 360.7598571777344 1605.8544921875 360.8707580566406 1604.784912109375 360.9806823730469 1603.906494140625 C 359.6498413085938 1601.763671875 358.9314880371094 1599.276977539063 358.8402099609375 1596.483764648438 C 358.8114624023438 1595.604370117188 358.8445739746094 1594.73193359375 358.9182739257813 1593.8740234375 C 358.8323669433594 1593.876220703125 358.7534790039063 1593.877075195313 358.6824951171875 1593.877075195313 C 356.4201049804688 1593.877075195313 354.3133544921875 1593.112670898438 352.7502136230469 1591.724731445313 C 351.0302124023438 1590.197631835938 350.1174621582031 1587.957275390625 350.1802673339844 1585.416381835938 C 350.2042541503906 1584.445434570313 350.3658752441406 1583.61083984375 350.497314453125 1583.08154296875 C 350.8568725585938 1580.724975585938 351.7451782226563 1578.597412109375 353.1406860351563 1576.752197265625 C 353.7494812011719 1575.947265625 354.44873046875 1575.205688476563 355.2323303222656 1574.532958984375 C 353.9655456542969 1573.89404296875 352.7345275878906 1573.207275390625 351.5436401367188 1572.474609375 C 347.8038330078125 1570.173706054688 344.5166015625 1567.4560546875 341.7733154296875 1564.3974609375 C 338.9370422363281 1561.235107421875 336.7295532226563 1557.760864257813 335.2120971679688 1554.0712890625 C 333.6188354492188 1550.197265625 332.8110046386719 1546.145385742188 332.8110046386719 1542.027954101563 C 332.8110046386719 1538.928588867188 333.2731628417969 1535.84375 334.1847229003906 1532.859130859375 C 335.0626220703125 1529.984497070313 336.3607788085938 1527.19140625 338.0431213378906 1524.557250976563 C 339.6697692871094 1522.01025390625 341.6610412597656 1519.603515625 343.9616088867188 1517.403686523438 C 345.2067565917969 1516.213134765625 346.5443420410156 1515.081420898438 347.9626770019531 1514.017456054688 C 346.9946594238281 1509.601196289063 344.7452392578125 1498.67919921875 343.298095703125 1486.402954101563 C 342.2019348144531 1477.103881835938 341.8027648925781 1468.96533203125 342.1117553710938 1462.21337890625 C 342.5314331054688 1453.040893554688 344.2251892089844 1446.40673828125 347.2897033691406 1441.931762695313 C 348.471923828125 1440.205444335938 349.8721618652344 1438.794311523438 351.4517211914063 1437.737670898438 C 353.1819763183594 1436.580078125 355.1231689453125 1435.844970703125 357.2214050292969 1435.552734375 L 357.5645446777344 1435.505004882813 L 357.9110107421875 1435.505004882813 C 360.5279846191406 1435.505004882813 362.9891357421875 1436.062133789063 365.2261352539063 1437.1611328125 C 367.2294311523438 1438.145141601563 369.0474853515625 1439.563720703125 370.6297912597656 1441.377319335938 C 373.0374145507813 1444.136962890625 374.9316101074219 1447.851806640625 376.2597351074219 1452.418701171875 C 378.2651672363281 1459.314697265625 378.386474609375 1466.115234375 378.3935852050781 1467.030639648438 L 379.5801086425781 1503.572143554688 C 379.9290466308594 1503.563110351563 380.2778625488281 1503.55712890625 380.6257019042969 1503.55419921875 C 380.700927734375 1502.309692382813 380.7774658203125 1500.892700195313 380.8498840332031 1499.552001953125 C 381.3340759277344 1490.587280273438 382.1445007324219 1475.582885742188 384.4475708007813 1462.812377929688 C 385.7859191894531 1455.391235351563 387.4272155761719 1449.706665039063 389.4651794433594 1445.433959960938 C 390.7783813476563 1442.680908203125 392.23291015625 1440.55908203125 393.9118957519531 1438.947265625 C 396.0942077636719 1436.852416992188 398.5833740234375 1435.697998046875 401.3102722167969 1435.51611328125 C 401.9629211425781 1435.47265625 402.6098327636719 1435.450561523438 403.2333374023438 1435.450561523438 C 407.2126770019531 1435.450561523438 410.652587890625 1436.343139648438 413.4574890136719 1438.103393554688 C 415.9486694335938 1439.666748046875 417.896240234375 1441.876831054688 419.2460632324219 1444.67236328125 C 421.4115905761719 1449.156982421875 421.4926452636719 1454.067993164063 421.5362243652344 1456.706298828125 C 421.5429382324219 1457.113525390625 421.550537109375 1457.5751953125 421.5648193359375 1457.746826171875 C 421.6231689453125 1458.446899414063 421.7115173339844 1459.506591796875 420.2650146484375 1468.20654296875 C 419.4256286621094 1473.255126953125 418.2810668945313 1479.591064453125 417.0421752929688 1486.04736328125 C 415.6985473632813 1493.049560546875 414.3923034667969 1499.425170898438 413.2647094726563 1504.485229492188 C 412.5089111328125 1507.876831054688 411.9199523925781 1510.288452148438 411.4549865722656 1512.030517578125 C 414.5035705566406 1513.98291015625 417.2348327636719 1516.222534179688 419.6184997558594 1518.72509765625 C 449.3749389648438 1517.839111328125 485.8519287109375 1516.795532226563 496.0443420410156 1516.688232421875 L 496.9287109375 1516.678955078125 L 497.7626342773438 1516.9736328125 C 501.4989013671875 1518.293701171875 503.8463134765625 1518.751586914063 505.2771301269531 1518.87060546875 L 505.0647888183594 1516.173461914063 L 510.538330078125 1516.238403320313 L 529.9478759765625 1516.46875 C 530.870361328125 1514.6181640625 532.1295776367188 1512.361328125 533.736572265625 1510.06005859375 C 537.3230590820313 1504.923828125 541.4243774414063 1501.281127929688 545.926513671875 1499.23291015625 L 549.358642578125 1497.671508789063 L 551.8035278320313 1500.542114257813 C 554.8878173828125 1504.163452148438 557.5172729492188 1509.784912109375 559.0175170898438 1515.965209960938 C 560.4608154296875 1521.910888671875 560.6885986328125 1527.674926757813 559.6893920898438 1532.419677734375 C 559.7496948242188 1532.5966796875 559.8069458007813 1532.772216796875 559.86181640625 1532.947998046875 L 560.0626831054688 1533.591430664063 L 560.0859985351563 1534.26513671875 C 560.4197998046875 1543.916381835938 560.1025390625 1586.738403320313 560.0888671875 1588.556640625 L 560.0611572265625 1592.234008789063 L 557.841552734375 1592.908447265625 C 558.1153564453125 1594.119873046875 558.4154663085938 1595.477661132813 558.709228515625 1596.864379882813 C 559.2570190429688 1599.450561523438 559.6678466796875 1601.599365234375 559.9302978515625 1603.250854492188 C 560.4472045898438 1606.504272460938 560.4379272460938 1607.994750976563 559.8922729492188 1609.385009765625 C 559.8743896484375 1609.430419921875 559.8345947265625 1609.537963867188 559.799560546875 1609.632934570313 C 559.3126220703125 1610.950927734375 558.019287109375 1614.451782226563 555.0765991210938 1617.603759765625 C 553.3572998046875 1619.4453125 551.3369140625 1620.898803710938 549.071533203125 1621.923828125 C 546.4185180664063 1623.124389648438 543.4340209960938 1623.733032226563 540.2009887695313 1623.733032226563 Z"/>
      <path class="cls-19" d="M 540.2009887695313 1618.733032226563 C 551.7429809570313 1618.733032226563 554.5869750976563 1609.213989257813 555.2379760742188 1607.557983398438 C 555.8880004882813 1605.901977539063 551.9099731445313 1589.484985351563 551.9099731445313 1589.484985351563 L 555.0889892578125 1588.51904296875 C 555.0889892578125 1588.51904296875 555.4229736328125 1544.094970703125 555.0889892578125 1534.43798828125 C 554.9019775390625 1533.838989257813 554.68798828125 1533.277954101563 554.4619750976563 1532.733032226563 C 557.093017578125 1523.681030273438 553.177001953125 1509.865966796875 547.9970092773438 1503.784057617188 C 539.3980102539063 1507.696044921875 534.4530029296875 1518.333984375 533.1380004882813 1521.506958007813 L 510.47900390625 1521.238037109375 C 510.47900390625 1521.238037109375 510.6890258789063 1523.905517578125 506.0612182617188 1523.905639648438 C 503.9300537109375 1523.90576171875 500.7733154296875 1523.340209960938 496.0969848632813 1521.68798828125 C 485.4540100097656 1521.800048828125 446.1260070800781 1522.93603515625 417.4490051269531 1523.7919921875 C 414.3080139160156 1520.067016601563 410.2479858398438 1516.845947265625 405.4960021972656 1514.344970703125 C 408.1500244140625 1508.1650390625 416.8420104980469 1461.280029296875 416.5820007324219 1458.161010742188 C 416.3201599121094 1455.01123046875 417.829833984375 1440.450561523438 403.2333068847656 1440.450561523438 C 402.7224731445313 1440.450561523438 402.1940612792969 1440.46826171875 401.6430053710938 1440.505004882813 C 385.3450012207031 1441.592041015625 386.4320068359375 1508.411987304688 385.0740051269531 1508.411987304688 C 384.60400390625 1508.411987304688 383.2219848632813 1508.47705078125 381.6199951171875 1508.56201171875 C 381.4580078125 1508.56005859375 381.2980041503906 1508.552001953125 381.135009765625 1508.552001953125 C 378.9660034179688 1508.552001953125 376.8350219726563 1508.678955078125 374.7510070800781 1508.9169921875 L 373.3940124511719 1467.125 C 373.3940124511719 1467.125 373.3940124511719 1440.505004882813 357.9110107421875 1440.505004882813 C 336.4530029296875 1443.493041992188 353.2940063476563 1514.931030273438 353.2940063476563 1514.931030273438 C 353.5440063476563 1515.2490234375 353.8450012207031 1515.546997070313 354.1820068359375 1515.828979492188 C 344.2100219726563 1521.962036132813 337.8110046386719 1531.4150390625 337.8110046386719 1542.027954101563 C 337.8110046386719 1556.171020507813 349.1679992675781 1568.256958007813 365.2160034179688 1573.160034179688 L 363.9710083007813 1575.724975585938 C 363.9710083007813 1575.724975585938 356.3180236816406 1576.947998046875 355.4049987792969 1584.086059570313 C 355.4049987792969 1584.086059570313 354.5800170898438 1586.662963867188 356.0700073242188 1587.985961914063 C 356.8057250976563 1588.639282226563 357.7884216308594 1588.877075195313 358.6824645996094 1588.877075195313 C 359.5990600585938 1588.877075195313 360.4224548339844 1588.627197265625 360.7920227050781 1588.318969726563 C 361.520751953125 1587.710083007813 362.8954162597656 1581.505004882813 364.2043762207031 1581.505004882813 C 364.2066345214844 1581.505004882813 364.2087707519531 1581.505004882813 364.2109985351563 1581.505004882813 C 365.52099609375 1581.526977539063 366.0320129394531 1581.72705078125 365.1220092773438 1587.10400390625 C 364.2530212402344 1592.243041992188 362.2160034179688 1598.204956054688 366.2349853515625 1602.592041015625 L 366.2270202636719 1602.599975585938 C 366.2270202636719 1602.599975585938 364.635009765625 1611.347045898438 366.6860046386719 1613.678955078125 C 367.2140197753906 1614.7900390625 367.6710205078125 1613.97802734375 367.6990051269531 1615.56298828125 C 367.7191467285156 1616.703247070313 368.9050598144531 1618.1474609375 370.6639099121094 1618.1474609375 C 371.3498840332031 1618.1474609375 372.122802734375 1617.927856445313 372.947998046875 1617.385009765625 C 375.8890075683594 1615.449951171875 375.0610046386719 1612.765991210938 374.572021484375 1611.9169921875 C 374.0840148925781 1611.068969726563 372.7160034179688 1610.860961914063 372.7160034179688 1610.860961914063 L 372.6410217285156 1606.822021484375 L 372.6419982910156 1606.81396484375 C 375.2236938476563 1607.833618164063 378.0306091308594 1608.325439453125 380.8861999511719 1608.325439453125 C 382.2680969238281 1608.325439453125 383.6613159179688 1608.210327148438 385.0460205078125 1607.984008789063 C 385.0460205078125 1607.984008789063 383.3150024414063 1616.010986328125 385.8090209960938 1617.871948242188 C 386.6039428710938 1618.46484375 387.4693908691406 1618.732177734375 388.302490234375 1618.732177734375 C 389.9721069335938 1618.732177734375 391.5126037597656 1617.659057617188 392.1010131835938 1615.982055664063 C 395.9070129394531 1617.93603515625 400.0169982910156 1618.733032226563 400.0169982910156 1618.733032226563 L 540.2009887695313 1618.733032226563 M 540.2009887695313 1628.733032226563 L 400.0169982910156 1628.733032226563 C 399.3780517578125 1628.733032226563 398.7406005859375 1628.671752929688 398.1133117675781 1628.550170898438 C 397.8114624023438 1628.491577148438 396.2130737304688 1628.168579101563 394.0362548828125 1627.492553710938 C 392.2677001953125 1628.29345703125 390.3206176757813 1628.732177734375 388.3025207519531 1628.732177734375 C 385.2548217773438 1628.732177734375 382.3251953125 1627.748657226563 379.8303833007813 1625.887939453125 C 379.5731506347656 1625.696044921875 379.3264770507813 1625.496948242188 379.0909423828125 1625.2919921875 C 378.881591796875 1625.444091796875 378.666015625 1625.59326171875 378.4445190429688 1625.739013671875 C 376.0496215820313 1627.314575195313 373.3591613769531 1628.1474609375 370.6639099121094 1628.1474609375 C 364.802978515625 1628.1474609375 359.7849731445313 1624.275390625 358.2107238769531 1619.020751953125 C 356.0083618164063 1615.70703125 355.2025451660156 1610.981079101563 355.8037414550781 1604.916259765625 C 354.6866760253906 1602.643188476563 354.1392517089844 1600.32666015625 353.9358215332031 1598.087890625 C 352.2688293457031 1597.509887695313 350.7375793457031 1596.624267578125 349.430419921875 1595.463623046875 C 345.1114196777344 1591.628784179688 344.6377563476563 1586.067016601563 345.5994567871094 1582.047973632813 C 345.9745483398438 1579.813232421875 346.7089538574219 1577.797241210938 347.7041931152344 1576.007080078125 C 335.2792358398438 1567.949951171875 327.8110046386719 1555.636108398438 327.8110046386719 1542.027954101563 C 327.8110046386719 1530.652709960938 333.042236328125 1520.057861328125 342.3988342285156 1512.059814453125 C 338.5912475585938 1494.33447265625 331.9976501464844 1455.412719726563 343.164306640625 1439.106567382813 C 346.4549865722656 1434.301391601563 351.0773620605469 1431.360107421875 356.5318298339844 1430.6005859375 C 356.98876953125 1430.536987304688 357.4496154785156 1430.505004882813 357.9110107421875 1430.505004882813 C 370.694580078125 1430.505004882813 378.3499755859375 1440.203857421875 381.5838623046875 1452.495849609375 C 385.1343383789063 1439.684814453125 390.9528503417969 1431.19580078125 400.9775085449219 1430.527099609375 C 401.7594604492188 1430.47509765625 402.5088500976563 1430.450561523438 403.2332763671875 1430.450561523438 C 410.109619140625 1430.450561523438 426.1454772949219 1433.000854492188 426.5355224609375 1456.623779296875 C 426.9275512695313 1461.777221679688 420.9843139648438 1493.756103515625 417.0935363769531 1509.850219726563 C 418.6963806152344 1511.04150390625 420.2083740234375 1512.3134765625 421.6255187988281 1513.663208007813 C 450.9875183105469 1512.791015625 486.0076904296875 1511.793701171875 495.99169921875 1511.688598632813 C 496.0267639160156 1511.688232421875 496.0618286132813 1511.68798828125 496.0968933105469 1511.68798828125 C 497.2314453125 1511.68798828125 498.3580017089844 1511.881103515625 499.4282531738281 1512.259155273438 C 501.4625549316406 1512.977905273438 502.9565124511719 1513.383666992188 504.0098266601563 1513.612426757813 C 505.8079833984375 1512.086791992188 508.0986633300781 1511.238037109375 510.4789428710938 1511.238037109375 C 510.5186767578125 1511.238037109375 510.5579223632813 1511.23828125 510.5977172851563 1511.23876953125 L 526.9619140625 1511.432983398438 C 530.2551879882813 1505.638061523438 535.739501953125 1498.374267578125 543.8560791015625 1494.681762695313 C 545.1873168945313 1494.076049804688 546.5975952148438 1493.783569335938 547.9935302734375 1493.783569335938 C 550.8583374023438 1493.783569335938 553.6638793945313 1495.015014648438 555.6099853515625 1497.300048828125 C 562.045166015625 1504.855590820313 566.839599609375 1519.973754882813 564.8244018554688 1532.152954101563 C 564.9736938476563 1532.788818359375 565.0604248046875 1533.4384765625 565.0830688476563 1534.092407226563 C 565.42041015625 1543.847534179688 565.1024169921875 1586.771728515625 565.0887451171875 1588.59423828125 C 565.0731201171875 1590.671020507813 564.4176025390625 1592.628295898438 563.285400390625 1594.247924804688 C 566.1359252929688 1607.162963867188 565.4491577148438 1608.912353515625 564.5465698242188 1611.211791992188 C 560.412109375 1622.40283203125 551.5592651367188 1628.733032226563 540.2009887695313 1628.733032226563 Z"/>
    </g>
    <g id="组_3954" data-name="组 3954">
      <path id="路径_10953" data-name="路径 10953" class="cls-2" d="M532.779,1522.414s5.061-14.009,15.218-18.63c6.3,7.4,10.738,26.234,3.794,34.028S532.779,1522.414,532.779,1522.414Z"/>
      <rect id="矩形_1372" data-name="矩形 1372" class="cls-3" width="2.457" height="15.472" rx="1.229" transform="translate(545.332 1515.363) rotate(7.543)"/>
      <path id="路径_10954" data-name="路径 10954" class="cls-4" d="M533.849,1521.567s16.723-1.616,21.24,12.87c.334,9.658,0,54.082,0,54.082l-3.179.966s3.978,16.418,3.328,18.073-3.495,11.175-15.037,11.175H400.017s-14.255-2.759-14.255-10.623S533.849,1521.567,533.849,1521.567Z"/>
      <path id="路径_10955" data-name="路径 10955" class="cls-5" d="M548.621,1596.7a16.71,16.71,0,0,1,.036,1.8,15.948,15.948,0,0,1-.471,3.472c-2.443,9.524-13.388,11.387-13.388,11.387H395.2c-5.2,0-9.416-3.407-9.431-7.618-.007-5.451-.007-12.968.051-19.579.022-2.776.058-5.393.109-7.625v-.095c.007-.405.022-.79.029-1.167.072-2.682.159-4.668.29-5.465-.522-1.7-.5-9.684-.363-16.947v-.029c.131-6.669.363-12.736.363-12.736l-.131-4.7-.029-1.138c-.181-6.387,6-11.7,13.882-11.946,26.74-.812,83.062-2.494,96.131-2.632,14.831,5.241,14.382-.449,14.382-.449l26.276.312c6.6.079,11.9,4.407,11.953,9.749l.058,6.1.065,7.589.3,32.285.014,1.167.036,4.386s-3.791,2.805-4.124,2.986c-.3.153,1.384,2.4,2.935,8.191.1.4.2.819.312,1.262s.218.9.319,1.377Z"/>
      <path id="路径_10956" data-name="路径 10956" class="cls-6" d="M548.832,1550.565l-162.721,15.226s-.1-1.183-.229-3.035v-.028c.131-8.242.36-15.729.36-15.729l-.131-5.8c2.16,2.178,162.652,0,162.652,0Z"/>
      <path id="路径_10957" data-name="路径 10957" class="cls-6" d="M548.621,1596.7a16.71,16.71,0,0,1,.036,1.8,15.948,15.948,0,0,1-.471,3.472c-14.171-1.131-159.043-15.483-162.37-15.81a.339.339,0,0,0-.058-.007v-8.88H549.129l.014,1.167.036,4.386s-3.791,2.805-4.124,2.986c-.3.153,1.384,2.4,2.935,8.191.1.4.2.819.312,1.262S548.512,1596.2,548.621,1596.7Z"/>
      <path id="路径_10958" data-name="路径 10958" class="cls-7" d="M404.31,1537.184s.669,6.165-3.792,18.414,4.684,43.472,4.461,44.513c4.8-.64,58.215-1.681,71.821,1.2s57.211-3.683,57.211-3.683-8.03-6.723,1.561-31.062c4.015-10.969-1.672-29.383-1.672-29.383S465.536,1542.308,404.31,1537.184Z"/>
      <text id="上午" class="cls-8" transform="translate(417.182 1577.791)"><tspan x="0" y="0">上午</tspan></text>
      <text id="_6:30" data-name="6:30" class="cls-9" transform="translate(470.121 1577.791)"><tspan x="0" y="0">6:30</tspan></text>
    </g>
    <g id="组_3955" data-name="组 3955">
      <path id="路径_10959" data-name="路径 10959" class="cls-10" d="M366.227,1602.6s-1.592,8.747.459,11.079c.528,1.111.985.3,1.013,1.884s2.308,3.757,5.249,1.822a4.015,4.015,0,0,0,1.624-5.468,2.907,2.907,0,0,0-1.856-1.056l-.074-4.039.08-3.1S368.873,1599.7,366.227,1602.6Z"/>
      <path id="路径_10960" data-name="路径 10960" class="cls-10" d="M385.046,1607.984s-1.731,8.027.763,9.888a4.029,4.029,0,0,0,6.4-2.229c.717-2.749,1.29-12.008,1.29-12.008l-.115-2.769-8.882,1.954Z"/>
      <path id="路径_10961" data-name="路径 10961" class="cls-10" d="M363.971,1575.725s-7.653,1.223-8.566,8.361c0,0-.825,2.577.665,3.9a4.271,4.271,0,0,0,4.722.333c.73-.61,2.108-6.835,3.419-6.814s1.821.222.911,5.6-3.117,11.662,1.7,16.095,11.622,5.863,18.224,4.784,9.552-5.23,11.337-8.325-.489-11.818-.975-13.81-1.211-4.932-1.211-4.932-.706-1.229,1.275-.808,10.95,1.164,12.4-5.429c.8-3.111,1.234-5.773-2.314-6.173a6.3,6.3,0,0,0-3.709,2.526c-1.473,2.126-3.857,4.138-7.317,3.274s-11.72-5.179-11.72-5.179l-15.357-.572Z"/>
      <circle id="椭圆_1941" data-name="椭圆 1941" class="cls-11" cx="11.141" cy="11.141" r="11.141" transform="translate(369.196 1579.893)"/>
      <path id="路径_10962" data-name="路径 10962" class="cls-10" d="M353.293,1514.931s-16.84-71.438,4.618-74.426c15.483,0,15.483,26.62,15.483,26.62l1.358,41.83s8.964-.543,10.322-.543.271-66.82,16.569-67.907,14.668,14.4,14.939,17.656-9.235,54.325-11.408,56.77C403,1518.19,360.356,1523.894,353.293,1514.931Z"/>
      <ellipse id="椭圆_1942" data-name="椭圆 1942" class="cls-10" cx="43.324" cy="33.475" rx="43.324" ry="33.475" transform="translate(337.811 1508.552)"/>
      <circle id="椭圆_1943" data-name="椭圆 1943" class="cls-7" cx="7.78" cy="7.78" r="7.78" transform="translate(355.183 1524.633)"/>
      <circle id="椭圆_1944" data-name="椭圆 1944" class="cls-12" cx="6.049" cy="6.049" r="6.049" transform="translate(357.766 1527.963)"/>
      <circle id="椭圆_1945" data-name="椭圆 1945" class="cls-13" cx="2.397" cy="2.397" r="2.397" transform="translate(356.602 1530.582)"/>
      <circle id="椭圆_1946" data-name="椭圆 1946" class="cls-7" cx="7.78" cy="7.78" r="7.78" transform="translate(389.625 1524.633)"/>
      <circle id="椭圆_1947" data-name="椭圆 1947" class="cls-12" cx="6.049" cy="6.049" r="6.049" transform="translate(392.208 1527.963)"/>
      <circle id="椭圆_1948" data-name="椭圆 1948" class="cls-13" cx="2.397" cy="2.397" r="2.397" transform="translate(391.044 1530.582)"/>
      <path id="路径_10963" data-name="路径 10963" class="cls-14" d="M375.394,1540.434s-2.73.458-2.108,2.463,3.383,5.832,4.835,6.262,4.074-.124,4.441-.858,3.838-4.39,3.793-5.206S387.35,1538.956,375.394,1540.434Z"/>
      <path id="路径_10964" data-name="路径 10964" class="cls-11" d="M389.623,1510.449s3.786.128,11.816,3.191c.951,0,15.279-60.1,4.55-60.5s-10.322,12.495-10.729,17.248S389.691,1508.819,389.623,1510.449Z"/>
      <path id="路径_10965" data-name="路径 10965" class="cls-15" d="M370.745,1510.774s-3.787,0-11.916,2.794c-.95-.032-13.259-60.575-2.522-60.623s9.9,12.833,10.146,17.6S370.732,1509.143,370.745,1510.774Z"/>
      <line id="直线_147" data-name="直线 147" class="cls-16" y2="4.843" transform="translate(379.777 1549.309)"/>
      <path id="路径_10966" data-name="路径 10966" class="cls-16" d="M372.539,1551.674s6.644,6.433,14.764,0"/>
      <path id="路径_10967" data-name="路径 10967" class="cls-17" d="M422.906,1550.909a10.436,10.436,0,1,0-12,15.426A33.187,33.187,0,0,0,422.906,1550.909Z"/>
      <path id="路径_10968" data-name="路径 10968" class="cls-17" d="M346.161,1545.927a10.41,10.41,0,0,0-7.4,3.078,32.2,32.2,0,0,0,11.869,16.788,10.434,10.434,0,0,0-4.468-19.866Z"/>
    </g>
  </g>
</svg>
