<svg xmlns="http://www.w3.org/2000/svg" width="187.104" height="196.333" viewBox="0 0 187.104 196.333">
  <defs>
    <style>
      .cls-1, .cls-2 {
        fill: none;
      }

      .cls-1 {
        stroke-miterlimit: 10;
      }

      .cls-3 {
        fill: #e377fe;
      }

      .cls-4 {
        fill: #aa6ce2;
      }

      .cls-5 {
        fill: #ebddf3;
      }

      .cls-6 {
        fill: #dbcce9;
      }

      .cls-7 {
        fill: #c4a9e7;
      }

      .cls-8 {
        fill: #9f81ca;
      }

      .cls-9 {
        fill: #ded5ef;
      }

      .cls-10 {
        fill: #af9ae3;
      }

      .cls-11 {
        fill: #dfd4f0;
      }

      .cls-12 {
        fill: #ffb7d4;
      }

      .cls-13 {
        fill: #fd75cd;
      }

      .cls-14 {
        fill: #fe79c4;
      }

      .cls-15 {
        fill: #ffb5e2;
      }

      .cls-16 {
        fill: #fe77d2;
      }

      .cls-17 {
        fill: #9a81cc;
      }

      .cls-18 {
        fill: #8169c9;
      }

      .cls-19, .cls-32 {
        fill: #fff;
      }

      .cls-20 {
        fill: #f078ff;
      }

      .cls-21 {
        fill: #fc7ad7;
      }

      .cls-22 {
        fill: #9a82c8;
      }

      .cls-23 {
        fill: #aa6a32;
      }

      .cls-24 {
        fill: #eeb896;
      }

      .cls-25 {
        fill: #ebb6a2;
      }

      .cls-26 {
        fill: #5fb2d6;
      }

      .cls-27 {
        fill: #f60;
      }

      .cls-28 {
        fill: #ff9b00;
      }

      .cls-29, .cls-30 {
        fill: #7d4921;
        font-family: TimesNewRomanPS-BoldMT, Times New Roman;
        font-weight: 700;
      }

      .cls-29 {
        font-size: 16px;
      }

      .cls-30 {
        font-size: 18px;
      }

      .cls-31, .cls-32 {
        stroke: none;
      }
    </style>
  </defs>
  <g id="组_6979" data-name="组 6979" transform="translate(-727 -1332.506)">
    <g id="联合_6" data-name="联合 6" class="cls-1" transform="translate(737 1342.5)">
      <path class="cls-31" d="M29.1,61.847a65.072,65.072,0,0,1-10.054-1.353c-4.857-1.246-8.108-3.676-7.974-5.474s2.953-20.712,4.9-25.889v-.006h0a39.914,39.914,0,0,1-5.645-1.343l-.159-.036C8.731,27.421,4.411,26.48,2.2,24.551.58,23.19,0,21.885,0,20.707c.009-2.931,3.659-5.068,4.053-5.29l.034-.019a40.507,40.507,0,0,0,3.949-2.631c.735-.622,2.391-2.175,2.878-2.633l.123-.125,0,0,0,0L11.048,10q.3-.312.6-.611a36.472,36.472,0,0,1,3.974-3.427l.02-.015.023-.017A29.4,29.4,0,0,1,26.907.554,28.517,28.517,0,0,1,32.028.006a26.452,26.452,0,0,1,3.445.152l.14.015a22.923,22.923,0,0,1,7.713,2.256A20.528,20.528,0,0,1,50.4,7.987c.144.189,1,1.212,2.212,2.54l.006,0A61.645,61.645,0,0,0,57.6,15.469l0,0q.192.165.382.324c4.287,3.225,5.489,6.013,5.489,6.013a5.582,5.582,0,0,1,.029.569c0,2.9-2.393,4.548-4.745,5.467a18.714,18.714,0,0,1-4.516,1.1h0l.015-.017-.024.011a41.3,41.3,0,0,1-5.951,1.329c.535,2.5,1.074,5.516,1.558,8.559,1.021,5.571,1.932,11.725,1.773,14.927q0,.126,0,.236a4.109,4.109,0,0,1-.193,1.18q-.034.121-.074.225t-.094.215c-1.219,2.719-5.205,4.027-7.184,4.614A33.5,33.5,0,0,1,38.8,61.432a37.225,37.225,0,0,1-6.419.523C31.379,61.956,30.291,61.923,29.1,61.847Z"/>
      <path class="cls-32" d="M 32.37863540649414 61.95560073852539 C 35.08760070800781 61.95557022094727 37.14806747436523 61.7138671875 38.79740142822266 61.43230056762695 C 40.76813507080078 61.13403701782227 42.52656936645508 60.71546936035156 44.05840301513672 60.22110366821289 C 46.03743362426758 59.63390350341797 50.024169921875 58.32626724243164 51.24286651611328 55.60730361938477 C 51.27799987792969 55.53500366210938 51.30940246582031 55.4633674621582 51.3369026184082 55.39230346679688 C 51.36370086669922 55.32303619384766 51.38846969604492 55.24783706665039 51.4112663269043 55.16696929931641 C 51.52896881103516 54.79783630371094 51.59663391113281 54.40503692626953 51.60420227050781 53.98650360107422 C 51.60550308227539 53.91323471069336 51.60580062866211 53.83450317382812 51.60513305664062 53.75030136108398 C 51.76383590698242 50.54850387573242 50.85320281982422 44.39447021484375 49.83206939697266 38.82310104370117 C 49.34820175170898 35.77990341186523 48.80936813354492 32.76576995849609 48.27456665039062 30.26370239257812 C 50.04056930541992 30.00420188903809 52.06280136108398 29.59000205993652 54.22590255737305 28.93500137329102 C 54.23386764526367 28.9315013885498 54.24183654785156 28.92796897888184 54.2497673034668 28.92443466186523 L 54.23490142822266 28.9413013458252 C 54.23490142822266 28.9413013458252 54.23520278930664 28.94126892089844 54.23576736450195 28.94120216369629 L 54.23490142822266 28.94220161437988 C 54.23490142822266 28.94220161437988 56.47450256347656 28.73453521728516 58.75103378295898 27.84393501281738 C 61.10303497314453 26.92450141906738 63.49443435668945 25.27713584899902 63.49596786499023 22.37696838378906 C 63.49620056152344 22.19246864318848 63.48680114746094 22.00263595581055 63.46710205078125 21.80790138244629 C 63.46710205078125 21.80790138244629 62.26470184326172 19.01970291137695 57.97800064086914 15.79500198364258 C 57.85123443603516 15.68916893005371 57.72389984130859 15.58103561401367 57.5962028503418 15.47090244293213 C 57.59686660766602 15.47030258178711 57.5975341796875 15.46976852416992 57.59820175170898 15.46920204162598 C 55.84590148925781 13.91670227050781 54.18180084228516 12.26430225372314 52.61760330200195 10.52280235290527 C 52.6157341003418 10.52396869659424 52.61386871337891 10.52523517608643 52.61200332641602 10.52643585205078 C 51.40106964111328 9.198402404785156 50.54426956176758 8.175835609436035 50.40000152587891 7.986602306365967 C 50.22466659545898 7.758402347564697 47.91580200195312 4.693668842315674 43.32566833496094 2.428502082824707 C 40.92006683349609 1.234535455703735 38.31073379516602 0.4662688076496124 35.61300277709961 0.17280213534832 C 35.56656646728516 0.1677021384239197 35.51990127563477 0.1627021282911301 35.47346878051758 0.1578354686498642 C 34.55286026000977 0.05573084577918053 33.58811569213867 0.000108124797407072 32.57915115356445 0.000108124797407072 C 32.39704513549805 0.000108124797407072 32.21334457397461 0.001922508701682091 32.02836990356445 0.005602135322988033 C 30.31070137023926 0.03370213508605957 28.59633445739746 0.2169021368026733 26.90730094909668 0.5544021129608154 C 25.03190231323242 0.8747354745864868 20.51933479309082 2.328402042388916 15.66480159759521 5.926902294158936 C 15.6574010848999 5.932368755340576 15.64960193634033 5.938135623931885 15.64220142364502 5.9436354637146 C 15.63596820831299 5.948235511779785 15.62860202789307 5.953768730163574 15.62233448028564 5.958402156829834 C 14.3066349029541 6.936602115631104 12.96710109710693 8.071768760681152 11.64793491363525 9.385368347167969 C 11.447434425354 9.585001945495605 11.24776840209961 9.788402557373047 11.04840183258057 9.996302604675293 C 11.04536819458008 9.999368667602539 11.04223442077637 10.00250244140625 11.0392017364502 10.00560188293457 C 11.0385684967041 10.00623512268066 11.03786849975586 10.00696849822998 11.03723526000977 10.00760173797607 C 11.03673458099365 10.00810241699219 11.03620147705078 10.00863552093506 11.03570175170898 10.00913524627686 C 10.99533462524414 10.04996871948242 10.95453453063965 10.09170246124268 10.91320133209229 10.1343355178833 C 10.42643451690674 10.59210205078125 8.770134925842285 12.14463520050049 8.035501480102539 12.76686859130859 C 7.079134941101074 13.50140190124512 5.816235065460205 14.36766910552979 4.086901664733887 15.39810180664062 C 4.086901664733887 15.39810180664062 4.075035095214844 15.40450191497803 4.052634716033936 15.41716861724854 C 3.659134864807129 15.63903522491455 0.009001560509204865 17.77596855163574 0.0001015604648273438 20.7071361541748 C -0.003731772769242525 21.88456916809082 0.5798348784446716 23.19013595581055 2.19780158996582 24.55110168457031 C 4.411068439483643 26.4796028137207 8.730868339538574 27.42086791992188 10.17233467102051 27.74520301818848 C 10.23010158538818 27.75820159912109 10.28323459625244 27.77020263671875 10.33140182495117 27.78123474121094 C 13.08290195465088 28.68490219116211 15.97680187225342 29.12400245666504 15.97680187225342 29.12400245666504 L 15.97830200195312 29.12410163879395 C 15.97730159759521 29.1281681060791 15.97680187225342 29.13030242919922 15.97680187225342 29.13030242919922 C 14.02830123901367 34.30800247192383 11.20950126647949 53.22060394287109 11.07540130615234 55.01970291137695 C 10.9413013458252 56.81790161132812 14.19210147857666 59.24700164794922 19.04940223693848 60.49350357055664 C 22.67443466186523 61.26036834716797 26.02993583679199 61.68573379516602 29.10316848754883 61.84673690795898 C 30.29113578796387 61.92266845703125 31.37920188903809 61.95560073852539 32.37863540649414 61.95560073852539 M 32.37876892089844 71.95560455322266 L 32.37863540649414 71.95560455322266 C 31.18456840515137 71.95560455322266 29.88460159301758 71.91709899902344 28.46526908874512 71.82637023925781 C 24.83636856079102 71.63693237304688 20.93346786499023 71.1134033203125 16.97973442077637 70.27696990966797 C 6.48850154876709 67.59410095214844 0.5643682479858398 61.50020217895508 1.10310161113739 54.27603530883789 C 1.17409074306488 53.32349014282227 2.398763179779053 44.43185043334961 3.941353321075439 36.44502639770508 C 1.23416268825531 35.61251449584961 -1.863383650779724 34.27603149414062 -4.371598243713379 32.09053421020508 C -9.018398284912109 28.18383598327637 -10.00973224639893 23.71530151367188 -9.999832153320312 20.67456817626953 C -9.97496509552002 12.48213577270508 -2.996865034103394 7.911901950836182 -0.8587651252746582 6.706368923187256 C 0.2692015469074249 6.03226900100708 1.224768280982971 5.388701915740967 1.944301605224609 4.83610200881958 C 2.209101676940918 4.596835613250732 3.6405348777771 3.246402025222778 4.0624680519104 2.849602222442627 L 4.592201709747314 2.299002170562744 C 6.272568225860596 0.6257021427154541 7.979535102844238 -0.8202978372573853 9.655868530273438 -2.066631317138672 C 15.585768699646 -6.462297916412354 21.57650184631348 -8.679864883422852 25.22360229492188 -9.302831649780273 C 27.22920227050781 -9.707597732543945 29.54476737976074 -9.955098152160645 31.86480140686035 -9.993064880371094 C 31.95034408569336 -9.993341445922852 32.03483963012695 -9.99347972869873 32.11787414550781 -9.99347972869873 C 34.08063888549805 -9.99347972869873 35.35613250732422 -9.916476249694824 36.57576751708984 -9.781230926513672 C 40.56086730957031 -9.347964286804199 44.28773498535156 -8.257964134216309 47.77146911621094 -6.528897762298584 C 53.72786712646484 -3.589531183242798 57.14053344726562 0.341568797826767 58.3303337097168 1.894802093505859 C 58.46283340454102 2.054568767547607 59.11956787109375 2.82160210609436 60.00133514404297 3.788668870925903 C 61.35420227050781 5.286168575286865 62.75463485717773 6.677468776702881 64.22966766357422 7.984302043914795 C 69.93453216552734 12.27583503723145 72.12110137939453 16.62233543395996 72.64963531494141 17.84796905517578 L 73.26093292236328 19.2655029296875 L 73.41633605957031 20.8014030456543 L 73.46773529052734 21.30966949462891 L 73.4959716796875 22.38960266113281 C 73.49250030517578 28.91740226745605 69.34146881103516 34.44090270996094 62.39190292358398 37.15760040283203 C 61.51571273803711 37.50037002563477 60.65299224853516 37.77821731567383 59.84434509277344 38.00281143188477 C 61.84675598144531 49.12428665161133 61.6563606262207 52.96466445922852 61.59286880493164 54.24536895751953 C 61.57770156860352 55.54280090332031 61.35433578491211 56.9012336730957 60.93866729736328 58.204833984375 L 60.72006988525391 58.89040374755859 L 60.23716735839844 59.97797012329102 C 57.20670318603516 66.75077056884766 49.45140075683594 69.05183410644531 46.90293502807617 69.80799865722656 C 45.13880157470703 70.38030242919922 42.85516738891602 70.93203735351562 40.2938346862793 71.3197021484375 C 37.85563659667969 71.73773193359375 35.20563507080078 71.95556640625 32.37876892089844 71.95560455322266 Z"/>
    </g>
    <g id="路径_17194" data-name="路径 17194" class="cls-2" transform="translate(687.071 1232.492)">
      <path class="cls-31" d="M140.981,134.243A76.052,76.052,0,1,0,217.033,210.3a76.053,76.053,0,0,0-76.053-76.053Zm0,135.45a59.4,59.4,0,1,1,59.4-59.4A59.4,59.4,0,0,1,140.981,269.693Z"/>
      <path class="cls-32" d="M 140.9806365966797 134.2429809570312 C 98.97846984863281 134.2429809570312 64.92900085449219 168.2935943603516 64.92900085449219 210.2958679199219 C 64.92900085449219 252.2981262207031 98.97846984863281 286.3476257324219 140.9806365966797 286.3476257324219 C 182.9828186035156 286.3476257324219 217.0333557128906 252.2981262207031 217.0333557128906 210.2958679199219 C 217.0333557128906 168.2935943603516 182.9839172363281 134.2429809570312 140.9806365966797 134.2429809570312 M 140.9806365966797 269.6926879882812 C 108.1762237548828 269.6926879882812 81.58393859863281 243.0992126464844 81.58393859863281 210.2958679199219 C 81.58393859863281 177.4914245605469 108.1762237548828 150.8979797363281 140.9806365966797 150.8979797363281 C 173.7850341796875 150.8979797363281 200.3773193359375 177.4914245605469 200.3773193359375 210.2958679199219 C 200.3773193359375 243.0992126464844 173.7850341796875 269.6926879882812 140.9806365966797 269.6926879882812 M 140.9806365966797 124.2429809570312 C 188.4302673339844 124.2429809570312 227.0333557128906 162.8461608886719 227.0333557128906 210.2958679199219 C 227.0333557128906 257.7449951171875 188.4302673339844 296.3476257324219 140.9806365966797 296.3476257324219 C 93.5316162109375 296.3476257324219 54.92900085449219 257.7449951171875 54.92900085449219 210.2958679199219 C 54.92900085449219 162.8461608886719 93.5316162109375 124.2429809570312 140.9806365966797 124.2429809570312 Z M 140.9806365966797 259.6926879882812 C 168.2180480957031 259.6926879882812 190.3773193359375 237.5333557128906 190.3773193359375 210.2958679199219 C 190.3773193359375 183.0577697753906 168.2180480957031 160.8979797363281 140.9806365966797 160.8979797363281 C 113.7431945800781 160.8979797363281 91.58393859863281 183.0577697753906 91.58393859863281 210.2958679199219 C 91.58393859863281 237.5333557128906 113.7431945800781 259.6926879882812 140.9806365966797 259.6926879882812 Z"/>
    </g>
    <g id="组_6972" data-name="组 6972" transform="translate(737 1342.555)">
      <g id="图层_2" data-name="图层 2" transform="translate(0 0)">
        <g id="图层_1-2" data-name="图层 1-2" transform="translate(0 0)">
          <path id="路径_14295" data-name="路径 14295" class="cls-3" d="M466.385,127.172s-7.764,4.211-1.888,9.153c2.518,2.195,7.763,3.111,8.392,3.295s5.456-8.054,5.456-8.054l20.982-1.83,11.75,2.745,3.357,3.295,4.2,2.562-2.1,2.379s9.863-.914,9.233-7.134c0,0-1.2-2.788-5.489-6.013a69.309,69.309,0,0,1-7.579-7.808c-.321-.42-7.849-10.42-23.5-7.43-2.455.419-9.481,2.8-15.848,9.437A27.068,27.068,0,0,1,466.385,127.172Z" transform="translate(-462.299 -111.774)"/>
          <path id="路径_14296" data-name="路径 14296" class="cls-3" d="M516.533,140.716l2.1-2.379-4.2-2.562-3.357-3.295-11.75-2.745-20.982,1.83s-4.826,8.236-5.456,8.054-5.875-1.1-8.392-3.295c-5.876-4.942,1.888-9.153,1.888-9.153a27.045,27.045,0,0,0,6.963-5.4c6.368-6.641,13.392-9.021,15.858-9.442a28.54,28.54,0,0,1,8.706-.382,22.931,22.931,0,0,1,12.267,5.246,16.961,16.961,0,0,1,2.518,2.576c.145.189,1,1.211,2.208,2.537a61.635,61.635,0,0,0,4.993,4.945l.38.322c4.287,3.224,5.489,6.013,5.489,6.013C526.4,139.8,516.533,140.716,516.533,140.716Z" transform="translate(-462.299 -111.774)"/>
          <path id="路径_14297" data-name="路径 14297" class="cls-4" d="M514.656,131.11a21.354,21.354,0,0,0-4.392-1.855,66.232,66.232,0,0,0-13.051-2.482,58.5,58.5,0,0,0-8.486-.241,50.061,50.061,0,0,0-15.055,3.09,25.112,25.112,0,0,0-2.919,1.318,13.239,13.239,0,0,0-2.888,1.919c-.931.931-1.141,1.985.315,3.269,2.545,2.243,9.617,3.316,9.617,3.316l25.6,1.52a38.007,38.007,0,0,0,12.651-1.709C523.3,136.06,518.513,132.653,514.656,131.11Z" transform="translate(-461.821 -110.32)"/>
          <path id="路径_14298" data-name="路径 14298" class="cls-5" d="M477.28,139.176s1.714-7.171,4.929-8.341,11.733-3.357,22.662,1.075c2.624,1.355,3,2.407,3.938,5.911s5.258,23.932,3.831,27.617-13.147,9.151-32.288,5.1c-4.857-1.246-8.108-3.676-7.974-5.474S475.33,144.353,477.28,139.176Z" transform="translate(-461.302 -110.045)"/>
          <path id="路径_14299" data-name="路径 14299" class="cls-6" d="M495.552,129.775s5.434,1.8,8.152,10.852,2.676,28.075-1.484,29.84c1.5-.476,8.313-2.056,8.393-6.486s-3.523-29.2-5.371-29.89C503.882,132.641,504.543,131.661,495.552,129.775Z" transform="translate(-459.01 -109.994)"/>
          <path id="路径_14300" data-name="路径 14300" class="cls-7" d="M479.653,168.69s-2.713-20.871,10.787-20.747,11.316,8.911,12.131,21.06C499.1,169.675,493.584,171.371,479.653,168.69Z" transform="translate(-460.604 -108.197)"/>
          <path id="路径_14301" data-name="路径 14301" class="cls-8" d="M493.135,147.946s-8.56,1.232-9.845,7.633a84.015,84.015,0,0,0-1.353,13.525l-2.27-.419s-2.187-14.325,4.975-19.023C486.554,147.946,489.42,147.815,493.135,147.946Z" transform="translate(-460.612 -108.2)"/>
          <path id="路径_14302" data-name="路径 14302" class="cls-9" d="M480.521,144.253a1.269,1.269,0,0,0,1.073,1.809c1.714.592,12.749,2.459,20.679-.21.927-.21,1.124-.764,1.034-1.277a2.166,2.166,0,0,0-.413-.915Z" transform="translate(-460.507 -108.62)"/>
          <path id="路径_14303" data-name="路径 14303" class="cls-10" d="M483.145,138.031h6.964v-4.2A8.7,8.7,0,0,0,483.145,138.031Z" transform="translate(-460.237 -109.592)"/>
          <path id="路径_14304" data-name="路径 14304" class="cls-10" d="M491.895,138.031v-4.2a9.921,9.921,0,0,1,6.715,4.2Z" transform="translate(-459.372 -109.592)"/>
          <path id="路径_14305" data-name="路径 14305" class="cls-10" d="M491.895,143.329v-4.142l7.462-.118a4.747,4.747,0,0,1,.607,3.489C499.679,144.981,491.895,143.329,491.895,143.329Z" transform="translate(-459.372 -109.074)"/>
          <path id="路径_14306" data-name="路径 14306" class="cls-10" d="M490.241,139.077h-7.653a8.086,8.086,0,0,0-.776,3.49c1.468,1.02,8.429.694,8.429.694Z" transform="translate(-460.369 -109.074)"/>
          <path id="路径_14307" data-name="路径 14307" class="cls-11" d="M492.344,133.9v4.132h-.449v-4.2C492.047,133.848,492.2,133.87,492.344,133.9Z" transform="translate(-459.372 -109.592)"/>
          <path id="路径_14308" data-name="路径 14308" class="cls-11" d="M482.23,139.831H490.2v-.754h-7.657A5.516,5.516,0,0,0,482.23,139.831Z" transform="translate(-460.327 -109.074)"/>
          <path id="路径_14309" data-name="路径 14309" class="cls-11" d="M492.446,143.333v-3.5h7.305s-.281-.754-.4-.754l-7.461.118v4.143Z" transform="translate(-459.372 -109.074)"/>
          <path id="路径_14310" data-name="路径 14310" class="cls-12" d="M476.524,117.692a5.324,5.324,0,0,0,.726,1.447c.373.4,1.848,4.485-1.5,5.863s-5.812.313-6.32-.884c.665-.518,3.214-2.924,3.214-2.924S475.393,118.532,476.524,117.692Z" transform="translate(-461.593 -111.189)"/>
          <path id="路径_14311" data-name="路径 14311" class="cls-13" d="M473.761,129.594a25.112,25.112,0,0,0-2.919,1.318,13.239,13.239,0,0,0-2.888,1.919,3.211,3.211,0,0,1-1.718-2.764,3.565,3.565,0,0,1,3.777-3.3A3.664,3.664,0,0,1,473.761,129.594Z" transform="translate(-461.909 -110.291)"/>
          <ellipse id="椭圆_2712" data-name="椭圆 2712" class="cls-14" cx="3.072" cy="2.679" rx="3.072" ry="2.679" transform="translate(21.871 6.132)"/>
          <path id="路径_14312" data-name="路径 14312" class="cls-15" d="M507.69,128.477a5.055,5.055,0,0,1-.133,1.156,66.232,66.232,0,0,0-13.051-2.482,6.562,6.562,0,0,1,6.5-4.495C504.7,122.656,507.69,125.263,507.69,128.477Z" transform="translate(-459.113 -110.698)"/>
          <path id="路径_14313" data-name="路径 14313" class="cls-13" d="M507,117.168a7.275,7.275,0,0,1-5.615,2.5c-3.828,0-6.924-2.707-6.924-6.045a5.359,5.359,0,0,1,.273-1.7A22.926,22.926,0,0,1,507,117.168Z" transform="translate(-459.118 -111.758)"/>
          <path id="路径_14314" data-name="路径 14314" class="cls-16" d="M515.294,126.3a4.061,4.061,0,0,1-2.674.965,3.549,3.549,0,0,1-3.777-3.3,3.172,3.172,0,0,1,1.469-2.611A61.678,61.678,0,0,0,515.294,126.3Z" transform="translate(-457.695 -110.827)"/>
          <path id="路径_14315" data-name="路径 14315" class="cls-17" d="M485.852,150.478l.617-.436V169.6l-.617-.057Z" transform="translate(-459.969 -107.989)"/>
          <path id="路径_14316" data-name="路径 14316" class="cls-17" d="M490.952,148l.483.04v22.072h-.539Z" transform="translate(-459.47 -108.191)"/>
          <path id="路径_14317" data-name="路径 14317" class="cls-17" d="M492.867,148.243s-.592,9.744,3.623,10.335v11.213l.581-.046v-19.87l-.505-.332-.028,2.848s-.348.174-.42-.41-.289-2.834-.289-2.834l-.408-.181s-.21,4.335,1.085,3.926c.053.291.067,2.442.067,2.442s-2.031.118-2.026-6.682l-.464-.136s-.336,6.838,2.379,7.229l.09.01-.033,2.279s-3.263.21-3.329-9.73Z" transform="translate(-459.278 -108.167)"/>
          <path id="路径_14318" data-name="路径 14318" class="cls-17" d="M497.455,168.531s-.966-9.767.909-9.175c.554.093,1.737,2.463,2.36,7.056.054.982.084,1.469.084,1.469l-.281.054s-1.108-6.629-1.7-7.5c-.335-.611-.629-.875-.875.035a30.531,30.531,0,0,0-.033,7.987Z" transform="translate(-458.846 -107.071)"/>
          <path id="路径_14319" data-name="路径 14319" class="cls-17" d="M500.1,167.751s-1.085-6.964-1.959-5.734c-.231.3-.055,3.671.21,6.085l.432-.084s-.6-5.5-.24-5.191a33.441,33.441,0,0,1,1.188,5Z" transform="translate(-458.764 -106.819)"/>
          <path id="路径_14320" data-name="路径 14320" class="cls-18" d="M510.754,126.729s2.252,4.451,2.1,5.279c-.431.105-6.714,2.464-7.609,3.516.456,0,8.723-2.077,9.143-2.518S512.521,127.795,510.754,126.729Z" transform="translate(-458.051 -110.295)"/>
          <path id="路径_14321" data-name="路径 14321" class="cls-18" d="M471.625,130l1.225-.52s3.777,3.084,4.692,4.931C477.059,134.13,471.826,129.908,471.625,130Z" transform="translate(-461.376 -110.023)"/>
          <path id="路径_14322" data-name="路径 14322" class="cls-18" d="M468.644,131.954s-1.207.954.209,1.294,8.223,2.505,9.023,2.919a7.406,7.406,0,0,0-1.421-1.341C476.143,134.59,470.679,129.849,468.644,131.954Z" transform="translate(-461.719 -109.831)"/>
          <path id="路径_14323" data-name="路径 14323" class="cls-19" d="M481.481,142.4s-1.035,1.652-.964,1.993,12.823,2.369,18.885.781c3.286-.718,3.607-1.137,3.484-1.373a19.434,19.434,0,0,0-1.8-1.557s-3.679,1.744-19.143,0C481.761,142.245,481.588,142.218,481.481,142.4Z" transform="translate(-460.497 -108.76)"/>
          <ellipse id="椭圆_2713" data-name="椭圆 2713" class="cls-20" cx="2.285" cy="1.993" rx="2.285" ry="1.993" transform="translate(20.872 49.576)"/>
          <path id="路径_14324" data-name="路径 14324" class="cls-21" d="M481.291,158.882a1.7,1.7,0,0,0,.088.54,2.529,2.529,0,0,0,1.23.315,2.16,2.16,0,0,0,2.287-1.993,1.762,1.762,0,0,0-.088-.54,2.524,2.524,0,0,0-1.23-.316A2.156,2.156,0,0,0,481.291,158.882Z" transform="translate(-460.42 -107.312)"/>
          <path id="路径_14325" data-name="路径 14325" class="cls-22" d="M490.109,133.825v.629s-3.223-.2-6.37,3.578h-.6S484.742,134.37,490.109,133.825Z" transform="translate(-460.237 -109.593)"/>
          <path id="路径_14326" data-name="路径 14326" class="cls-22" d="M482.273,139.763h.63a8.5,8.5,0,0,0-.477,2.8l-.629-.069A9.821,9.821,0,0,1,482.273,139.763Z" transform="translate(-460.37 -109.006)"/>
        </g>
      </g>
      <g id="组_5180" data-name="组 5180" transform="translate(15.093 24.691)">
        <path id="路径_14327" data-name="路径 14327" class="cls-23" d="M552.086,134.243A76.052,76.052,0,1,0,628.137,210.3a76.054,76.054,0,0,0-76.052-76.053Zm0,135.45a59.4,59.4,0,1,1,59.4-59.4A59.4,59.4,0,0,1,552.086,269.693Z" transform="translate(-476.033 -134.243)"/>
        <path id="路径_14328" data-name="路径 14328" class="cls-24" d="M551.8,137.169a72.837,72.837,0,1,0,72.836,72.837A72.838,72.838,0,0,0,551.8,137.169Zm0,129.723a56.886,56.886,0,1,1,56.886-56.886A56.886,56.886,0,0,1,551.8,266.892Z" transform="translate(-475.744 -133.954)"/>
        <path id="路径_14329" data-name="路径 14329" class="cls-19" d="M487.3,209.182a63.669,63.669,0,0,0,127.337.018v-.018a63.669,63.669,0,1,0-127.337-.019Z" transform="translate(-474.919 -133.129)"/>
        <path id="路径_14330" data-name="路径 14330" class="cls-25" d="M543.163,137.169h4.568v15.166h-4.568Zm0,130.511h4.568v15.165h-4.568Z" transform="translate(-469.394 -133.954)"/>
        <path id="路径_14331" data-name="路径 14331" class="cls-25" d="M514.128,145.5l7.632,13.221-3.979,2.3-7.634-13.22ZM579.31,258.3l7.633,13.219-3.982,2.3-7.632-13.22Z" transform="translate(-472.659 -133.129)"/>
        <path id="路径_14332" data-name="路径 14332" class="cls-25" d="M489.049,168.646l13.219,7.632-2.3,3.982-13.22-7.633Zm112.972,65.279,13.221,7.632-2.3,3.982-13.22-7.633Z" transform="translate(-474.973 -130.84)"/>
        <path id="路径_14333" data-name="路径 14333" class="cls-25" d="M478.959,201.372h15.166v4.568H478.959Zm130.509,0h15.166v4.568H609.468Z" transform="translate(-475.744 -127.604)"/>
        <path id="路径_14334" data-name="路径 14334" class="cls-25" d="M499.929,233.777l2.285,3.957-13.135,7.581L486.8,241.36Zm113.034-65.253,2.285,3.957-13.135,7.581-2.284-3.955Z" transform="translate(-474.969 -130.853)"/>
        <path id="路径_14335" data-name="路径 14335" class="cls-25" d="M517.876,258.029l3.956,2.284-7.582,13.134-3.957-2.285ZM583.128,145.01l3.955,2.284L579.5,160.428l-3.957-2.285Z" transform="translate(-472.645 -133.178)"/>
        <path id="路径_14336" data-name="路径 14336" class="cls-26" d="M541.031,203.867a4.626,4.626,0,1,0,4.626-4.626A4.626,4.626,0,0,0,541.031,203.867Z" transform="translate(-469.605 -127.815)"/>
        <path id="路径_14337" data-name="路径 14337" class="cls-19" d="M543.494,203.624a1.919,1.919,0,1,0,3.838,0h0a1.919,1.919,0,1,0-3.838,0Z" transform="translate(-469.361 -127.571)"/>
        <path id="路径_14338" data-name="路径 14338" class="cls-27" d="M556.523,191.494a26.931,26.931,0,0,0-6.811,8.236,25.55,25.55,0,0,0,16.4-12.966,26.907,26.907,0,0,0-9.585,4.73Z" transform="translate(-468.746 -129.049)"/>
        <path id="路径_14339" data-name="路径 14339" class="cls-28" d="M548.3,227.279a66.516,66.516,0,0,0-2.607-17.486,65.084,65.084,0,0,0,.411,35.029A66.544,66.544,0,0,0,548.3,227.279Z" transform="translate(-469.361 -126.771)"/>
        <text id="_1" data-name="1" class="cls-29" transform="translate(99.2 38.546)"><tspan x="0" y="0">1</tspan></text>
        <text id="_5" data-name="5" class="cls-29" transform="translate(95.975 120.543)"><tspan x="0" y="0">5</tspan></text>
        <text id="_2" data-name="2" class="cls-29" transform="translate(116.003 55.483)"><tspan x="0" y="0">2</tspan></text>
        <text id="_12" data-name="12" class="cls-30" transform="translate(66.991 33.422)"><tspan x="0" y="0">12</tspan></text>
        <text id="_6" data-name="6" class="cls-29" transform="translate(71.427 127.398)"><tspan x="0" y="0">6</tspan></text>
        <text id="_11" data-name="11" class="cls-30" transform="translate(42.527 40.546)"><tspan x="0" y="0">11</tspan></text>
        <text id="_7" data-name="7" class="cls-29" transform="translate(46.828 120.543)"><tspan x="0" y="0">7</tspan></text>
        <text id="_10" data-name="10" class="cls-30" transform="translate(24.917 57.483)"><tspan x="0" y="0">10</tspan></text>
        <text id="_8" data-name="8" class="cls-29" transform="translate(28.95 106.409)"><tspan x="0" y="0">8</tspan></text>
        <text id="_4" data-name="4" class="cls-29" transform="translate(116.003 106.409)"><tspan x="0" y="0">4</tspan></text>
        <text id="_9" data-name="9" class="cls-29" transform="translate(21.154 79.464)"><tspan x="0" y="0">9</tspan></text>
        <text id="_3" data-name="3" class="cls-29" transform="translate(121.028 79.464)"><tspan x="0" y="0">3</tspan></text>
      </g>
    </g>
  </g>
</svg>
