<svg xmlns="http://www.w3.org/2000/svg" width="239.887" height="148.57" viewBox="0 0 239.887 148.57">
  <defs>
    <style>
      .cls-1 {
        fill: #b6b9c7;
      }

      .cls-1, .cls-17 {
        stroke-linejoin: round;
      }

      .cls-2 {
        fill: #679d2f;
      }

      .cls-3 {
        fill: #578e20;
      }

      .cls-4 {
        fill: #ca8f3f;
      }

      .cls-5 {
        fill: #eaad59;
      }

      .cls-6 {
        fill: #e19a3b;
      }

      .cls-19, .cls-7 {
        fill: #fff;
      }

      .cls-8, .cls-9 {
        fill: #7d4921;
        font-size: 25.435px;
        font-weight: 700;
      }

      .cls-8 {
        font-family: MicrosoftYaHei-Bold, Microsoft YaHei;
      }

      .cls-9 {
        font-family: TimesNewRomanPS-BoldMT, Times New Roman;
      }

      .cls-10 {
        fill: #4e923d;
      }

      .cls-11 {
        fill: #4a8c4a;
      }

      .cls-12 {
        fill: #2b71b0;
      }

      .cls-13 {
        fill: #e7ffff;
      }

      .cls-14 {
        fill: #68af48;
      }

      .cls-15 {
        fill: #c5db82;
      }

      .cls-16 {
        fill: #fcb2a9;
      }

      .cls-17 {
        fill: none;
        stroke: #fcb2a9;
        stroke-linecap: round;
        stroke-width: 2.2px;
      }

      .cls-18, .cls-19 {
        stroke: none;
      }
    </style>
  </defs>
  <g id="组_3974" data-name="组 3974" transform="translate(-1194.165 -1467.711)">
    <g id="路径_11072" data-name="路径 11072" class="cls-1">
      <path class="cls-18" d="M 1259.721557617188 1611.281005859375 C 1257.186401367188 1611.281005859375 1255.116821289063 1610.414794921875 1253.570434570313 1608.706420898438 C 1252.37451171875 1607.385131835938 1251.54443359375 1605.648559570313 1250.814208984375 1602.92822265625 C 1250.285278320313 1602.93994140625 1249.754272460938 1602.945922851563 1249.222290039063 1602.945922851563 C 1248.81201171875 1602.945922851563 1248.402221679688 1602.9423828125 1247.993896484375 1602.935302734375 C 1247.263916015625 1605.652099609375 1246.434448242188 1607.386596679688 1245.239868164063 1608.706298828125 C 1243.693603515625 1610.414794921875 1241.6240234375 1611.281005859375 1239.088745117188 1611.281005859375 C 1238.161865234375 1611.281005859375 1237.241088867188 1611.175903320313 1236.266235351563 1611.064453125 C 1235.622802734375 1610.990966796875 1234.957397460938 1610.9150390625 1234.224243164063 1610.859985351563 C 1232.59716796875 1610.73779296875 1231.27294921875 1610.453491210938 1230.175048828125 1609.990966796875 C 1227.98095703125 1609.066650390625 1226.977661132813 1607.56591796875 1226.5224609375 1606.4697265625 C 1226.0947265625 1605.439819335938 1225.580078125 1603.33984375 1226.939086914063 1600.846313476563 C 1227.209106445313 1600.350952148438 1227.513549804688 1599.915771484375 1227.785766601563 1599.562622070313 C 1227.52880859375 1598.962768554688 1227.309204101563 1598.301513671875 1227.124145507813 1597.571655273438 C 1226.53662109375 1597.073364257813 1226.02197265625 1596.542114257813 1225.583984375 1595.981079101563 C 1223.423950195313 1593.21435546875 1221.998779296875 1589.31591796875 1221.342529296875 1584.383666992188 C 1220.137329101563 1584.539916992188 1218.82080078125 1584.6171875 1217.386108398438 1584.6171875 C 1216.97607421875 1584.6171875 1216.550659179688 1584.610717773438 1216.121704101563 1584.59765625 C 1212.856689453125 1584.49853515625 1209.9873046875 1583.5341796875 1207.823120117188 1581.808959960938 C 1205.69580078125 1580.113159179688 1204.312255859375 1577.734741210938 1203.927368164063 1575.111938476563 C 1203.604248046875 1572.910034179688 1204.012939453125 1570.647094726563 1205.078125 1568.739868164063 C 1206.239990234375 1566.659423828125 1208.123168945313 1565.09912109375 1210.380859375 1564.346557617188 C 1212.779296875 1563.546997070313 1215.978149414063 1561.406372070313 1218.09423828125 1559.839965820313 C 1216.6220703125 1558.899780273438 1215.261840820313 1557.869262695313 1214.02099609375 1556.753051757813 C 1211.879760742188 1555.2060546875 1209.693481445313 1553.023193359375 1207.680053710938 1550.419311523438 C 1205.32861328125 1547.378540039063 1203.33447265625 1543.885375976563 1201.913330078125 1540.317504882813 C 1199.306884765625 1533.77392578125 1197.237182617188 1523.566772460938 1202.179321289063 1512.099975585938 L 1202.212890625 1512.02197265625 L 1202.249145507813 1511.945190429688 C 1205.399169921875 1505.269653320313 1208.602416992188 1501.0703125 1210.734741210938 1498.722534179688 C 1210.4560546875 1497.41552734375 1210.17041015625 1495.77978515625 1210.0029296875 1493.989013671875 C 1209.75927734375 1491.3828125 1209.808227539063 1488.944702148438 1210.148559570313 1486.7421875 C 1210.618774414063 1483.698974609375 1211.649291992188 1481.071166992188 1213.21142578125 1478.931762695313 C 1214.674560546875 1476.927978515625 1216.578247070313 1475.37841796875 1218.869506835938 1474.326049804688 C 1221.20361328125 1473.254150390625 1223.940673828125 1472.710693359375 1227.004638671875 1472.710693359375 C 1228.264526367188 1472.710693359375 1229.60693359375 1472.802734375 1230.99462890625 1472.984252929688 L 1231.47119140625 1473.046630859375 L 1231.927124023438 1473.198608398438 C 1234.69287109375 1474.120483398438 1237.232177734375 1475.783325195313 1239.474609375 1478.140747070313 C 1241.127075195313 1479.878173828125 1242.621215820313 1481.998657226563 1243.915405273438 1484.443359375 C 1244.589721679688 1485.717041015625 1245.139038085938 1486.942749023438 1245.577026367188 1488.031372070313 C 1246.463134765625 1487.971313476563 1247.437622070313 1487.930786132813 1248.453979492188 1487.930786132813 C 1249.969604492188 1487.930786132813 1251.38818359375 1488.020141601563 1252.703735351563 1488.197875976563 C 1253.19189453125 1487.131958007813 1253.800170898438 1485.966430664063 1254.548950195313 1484.781127929688 C 1256.131958007813 1482.275146484375 1258.020751953125 1480.193725585938 1260.16259765625 1478.594604492188 C 1262.958251953125 1476.507446289063 1266.137573242188 1475.266845703125 1269.612548828125 1474.907470703125 C 1270.35595703125 1474.83056640625 1271.095947265625 1474.791625976563 1271.81201171875 1474.791625976563 C 1274.956909179688 1474.791625976563 1277.822265625 1475.528564453125 1280.32861328125 1476.981811523438 C 1282.389770507813 1478.177124023438 1284.1630859375 1479.831909179688 1285.599243164063 1481.900390625 C 1287.871948242188 1485.173950195313 1288.746704101563 1488.731567382813 1288.9052734375 1490.317626953125 C 1288.912963867188 1490.388916015625 1288.947875976563 1490.61376953125 1288.973388671875 1490.777954101563 C 1289.282836914063 1492.770629882813 1289.944213867188 1497.028930664063 1287.996704101563 1502.460693359375 C 1288.741088867188 1503.515380859375 1289.547241210938 1504.777221679688 1290.35205078125 1506.212524414063 C 1319.446655273438 1505.347778320313 1354.730834960938 1504.34130859375 1364.76513671875 1504.235229492188 L 1365.649780273438 1504.225952148438 L 1366.48388671875 1504.520629882813 C 1370.219116210938 1505.840576171875 1372.566162109375 1506.298828125 1373.996948242188 1506.418090820313 L 1373.784545898438 1503.7216796875 L 1379.258056640625 1503.786376953125 L 1398.668823242188 1504.015869140625 C 1399.59130859375 1502.165283203125 1400.850463867188 1499.908447265625 1402.45751953125 1497.607055664063 C 1406.044067382813 1492.470825195313 1410.145385742188 1488.828125 1414.647583007813 1486.779907226563 L 1418.079956054688 1485.218383789063 L 1420.524780273438 1488.08935546875 C 1423.609130859375 1491.711303710938 1426.238403320313 1497.3330078125 1427.738403320313 1503.512817382813 C 1429.181518554688 1509.458129882813 1429.409057617188 1515.221923828125 1428.40966796875 1519.966796875 C 1428.470703125 1520.14599609375 1428.528442382813 1520.323364257813 1428.583618164063 1520.500732421875 L 1428.78271484375 1521.141235351563 L 1428.805908203125 1521.811645507813 C 1429.140869140625 1531.464111328125 1428.822509765625 1574.286499023438 1428.808837890625 1576.104736328125 L 1428.781127929688 1579.781616210938 L 1426.562377929688 1580.455932617188 C 1426.836181640625 1581.667358398438 1427.136474609375 1583.025756835938 1427.43017578125 1584.412475585938 C 1427.977905273438 1586.998779296875 1428.388671875 1589.147583007813 1428.65087890625 1590.799194335938 C 1429.167724609375 1594.053466796875 1429.158081054688 1595.54443359375 1428.611450195313 1596.935180664063 C 1428.594970703125 1596.976928710938 1428.555419921875 1597.084106445313 1428.5205078125 1597.1787109375 C 1428.033935546875 1598.496459960938 1426.741577148438 1601.996948242188 1423.798828125 1605.149780273438 C 1422.079467773438 1606.991821289063 1420.058959960938 1608.44580078125 1417.793334960938 1609.47119140625 C 1415.139892578125 1610.672119140625 1412.15478515625 1611.281005859375 1408.921020507813 1611.281005859375 L 1268.737060546875 1611.281005859375 L 1268.256103515625 1611.281005859375 L 1267.783935546875 1611.189331054688 C 1267.680297851563 1611.169189453125 1266.942260742188 1611.022827148438 1265.827514648438 1610.725219726563 C 1265.434448242188 1610.782470703125 1265.023193359375 1610.8271484375 1264.589721679688 1610.85986328125 C 1263.853271484375 1610.9150390625 1263.187744140625 1610.991088867188 1262.544067382813 1611.064575195313 C 1261.569213867188 1611.175903320313 1260.648559570313 1611.281005859375 1259.721557617188 1611.281005859375 Z"/>
      <path class="cls-19" d="M 1259.721557617188 1606.281005859375 C 1260.854125976563 1606.281005859375 1262.29443359375 1606.017822265625 1264.213012695313 1605.8740234375 C 1264.968017578125 1605.817016601563 1265.56201171875 1605.717041015625 1266.046020507813 1605.590942382813 C 1267.635009765625 1606.067016601563 1268.737060546875 1606.281005859375 1268.737060546875 1606.281005859375 L 1408.921020507813 1606.281005859375 C 1420.463989257813 1606.281005859375 1423.307983398438 1596.760986328125 1423.9580078125 1595.10595703125 C 1424.609008789063 1593.449951171875 1420.630981445313 1577.032958984375 1420.630981445313 1577.032958984375 L 1423.808959960938 1576.067016601563 C 1423.808959960938 1576.067016601563 1424.14404296875 1531.642944335938 1423.808959960938 1521.984985351563 C 1423.623046875 1521.386962890625 1423.407958984375 1520.824951171875 1423.182006835938 1520.281005859375 C 1425.81396484375 1511.22802734375 1421.89794921875 1497.413940429688 1416.718017578125 1491.3310546875 C 1408.119018554688 1495.243041992188 1403.173950195313 1505.880981445313 1401.859008789063 1509.053955078125 L 1379.198974609375 1508.786010742188 C 1379.198974609375 1508.786010742188 1379.409057617188 1511.453002929688 1374.782836914063 1511.453369140625 C 1372.65185546875 1511.453491210938 1369.495239257813 1510.887817382813 1364.817993164063 1509.234985351563 C 1354.319946289063 1509.345947265625 1315.920043945313 1510.452026367188 1287.35595703125 1511.303955078125 C 1285.27099609375 1506.89599609375 1283.017944335938 1504.051025390625 1282.223999023438 1503.222045898438 C 1285.404052734375 1497.01904296875 1284.0849609375 1492.365966796875 1283.930053710938 1490.81494140625 C 1283.783081054688 1489.344848632813 1281.614990234375 1479.791625976563 1271.81201171875 1479.791625976563 C 1271.273559570313 1479.791625976563 1270.71240234375 1479.820434570313 1270.126953125 1479.880981445313 C 1258.883056640625 1481.0439453125 1255.858032226563 1494.150024414063 1255.858032226563 1494.150024414063 C 1253.70703125 1493.204833984375 1250.939575195313 1492.930786132813 1248.453857421875 1492.930786132813 C 1245.025390625 1492.930786132813 1242.133056640625 1493.452026367188 1242.133056640625 1493.452026367188 C 1242.133056640625 1493.452026367188 1239.031005859375 1480.837036132813 1230.345947265625 1477.942016601563 C 1229.145385742188 1477.784912109375 1228.033569335938 1477.710693359375 1227.004638671875 1477.710693359375 C 1209.070434570313 1477.710693359375 1216.284057617188 1500.276000976563 1216.284057617188 1500.276000976563 C 1216.284057617188 1500.276000976563 1211.527954101563 1503.998046875 1206.77099609375 1514.078979492188 C 1199.016967773438 1532.069946289063 1210.494018554688 1548.198974609375 1217.162963867188 1552.85205078125 C 1219.661987304688 1555.151977539063 1222.615966796875 1556.902954101563 1225.828002929688 1558.22705078125 C 1224.735961914063 1559.39404296875 1223.786010742188 1560.760986328125 1223.010009765625 1562.35302734375 C 1223.010009765625 1562.35302734375 1216.81201171875 1567.473022460938 1211.962036132813 1569.089965820313 C 1207.110961914063 1570.70703125 1207.380981445313 1579.329956054688 1216.27294921875 1579.599975585938 C 1216.658813476563 1579.611694335938 1217.030029296875 1579.6171875 1217.386108398438 1579.6171875 C 1225.235107421875 1579.6171875 1225.973999023438 1576.905029296875 1225.973999023438 1576.905029296875 C 1225.973999023438 1576.905029296875 1225.39501953125 1587.614013671875 1229.525024414063 1592.904052734375 C 1230.034057617188 1593.556030273438 1230.759033203125 1594.140014648438 1231.64697265625 1594.661010742188 C 1231.870971679688 1596.218994140625 1232.26904296875 1597.776000976563 1232.98095703125 1598.598022460938 C 1234.732055664063 1600.619018554688 1232.97802734375 1601.157958984375 1232.171020507813 1602.100952148438 C 1231.364013671875 1603.0439453125 1229.2080078125 1605.468994140625 1234.598022460938 1605.8740234375 C 1236.515991210938 1606.017822265625 1237.956420898438 1606.281005859375 1239.088745117188 1606.281005859375 C 1241.138305664063 1606.281005859375 1242.179443359375 1605.419189453125 1243.220947265625 1601.427001953125 C 1243.56396484375 1600.110961914063 1243.767944335938 1598.8740234375 1243.883056640625 1597.72705078125 C 1245.632934570313 1597.873901367188 1247.432373046875 1597.945922851563 1249.222290039063 1597.945922851563 C 1251.123901367188 1597.945922851563 1253.014770507813 1597.86474609375 1254.824951171875 1597.7060546875 C 1254.869995117188 1597.8349609375 1254.925048828125 1597.961059570313 1254.97802734375 1598.087036132813 C 1255.097045898438 1599.135009765625 1255.281005859375 1600.243041992188 1255.588989257813 1601.427001953125 C 1256.630493164063 1605.418823242188 1257.672119140625 1606.281005859375 1259.721557617188 1606.281005859375 M 1408.921020507813 1616.281005859375 L 1268.737060546875 1616.281005859375 C 1268.118041992188 1616.281005859375 1267.439208984375 1616.2119140625 1266.830810546875 1616.09765625 C 1266.830810546875 1616.09765625 1266.331176757813 1616.003784179688 1265.493774414063 1615.800170898438 C 1265.322387695313 1615.816772460938 1265.146484375 1615.83203125 1264.9658203125 1615.845581054688 L 1263.111328125 1616.0322265625 C 1261.80224609375 1616.181762695313 1260.6865234375 1616.281005859375 1259.721557617188 1616.281005859375 C 1255.351196289063 1616.281005859375 1251.90185546875 1614.6767578125 1249.404907226563 1611.496459960938 C 1246.907836914063 1614.677368164063 1243.459106445313 1616.281005859375 1239.088745117188 1616.281005859375 C 1238.123779296875 1616.281005859375 1237.0078125 1616.181762695313 1235.69873046875 1616.0322265625 L 1233.8505859375 1615.846069335938 C 1226.3017578125 1615.27880859375 1223.188110351563 1611.47705078125 1221.904907226563 1608.387573242188 C 1221.144897460938 1606.557861328125 1220.390380859375 1603.337646484375 1222.039916992188 1599.544921875 C 1221.903686523438 1599.384765625 1221.771240234375 1599.222534179688 1221.642944335938 1599.058227539063 C 1219.467163085938 1596.271118164063 1218.107177734375 1592.905517578125 1217.263916015625 1589.615356445313 L 1215.970092773438 1589.595458984375 C 1205.581787109375 1589.279907226563 1199.951904296875 1582.45849609375 1198.980346679688 1575.837890625 C 1197.9296875 1568.677612304688 1202.059326171875 1561.849975585938 1208.799682617188 1559.603149414063 C 1208.956909179688 1559.55078125 1209.125122070313 1559.486328125 1209.302856445313 1559.411254882813 C 1198.615234375 1550.4462890625 1188.744506835938 1530.638916015625 1197.587646484375 1510.120971679688 C 1200.326782226563 1504.3095703125 1203.104858398438 1500.164184570313 1205.363403320313 1497.338989257813 C 1204.424438476563 1491.484985351563 1204.223388671875 1482.762329101563 1209.17333984375 1475.983154296875 C 1211.928955078125 1472.209228515625 1217.259399414063 1467.710571289063 1227.004638671875 1467.710571289063 C 1228.432983398438 1467.710571289063 1229.9765625 1467.808471679688 1231.643188476563 1468.026489257813 C 1232.277099609375 1468.109497070313 1232.901733398438 1468.253051757813 1233.50830078125 1468.455200195313 C 1241.294189453125 1471.050537109375 1246.04248046875 1477.540649414063 1248.75634765625 1482.931884765625 C 1249.10107421875 1482.934326171875 1249.4423828125 1482.94091796875 1249.779663085938 1482.951782226563 C 1253.394409179688 1476.870239257813 1259.583374023438 1470.918212890625 1269.09814453125 1469.93408203125 C 1270.041015625 1469.836547851563 1270.944946289063 1469.791625976563 1271.81201171875 1469.791625976563 C 1286.430541992188 1469.791625976563 1293.1064453125 1482.07666015625 1293.880493164063 1489.820190429688 C 1294.1923828125 1491.81005859375 1294.828491210938 1495.89990234375 1293.599609375 1501.114013671875 C 1322.0078125 1500.27294921875 1355.02783203125 1499.337890625 1364.712280273438 1499.235595703125 C 1364.74755859375 1499.235229492188 1364.782958984375 1499.234985351563 1364.818115234375 1499.234985351563 C 1365.952880859375 1499.234985351563 1367.079467773438 1499.428100585938 1368.14990234375 1499.806396484375 C 1370.18359375 1500.525024414063 1371.677368164063 1500.930908203125 1372.730590820313 1501.159790039063 C 1374.528564453125 1499.634521484375 1376.818969726563 1498.786010742188 1379.198852539063 1498.786010742188 C 1379.238403320313 1498.786010742188 1379.277587890625 1498.786254882813 1379.317260742188 1498.786743164063 L 1395.6826171875 1498.980224609375 C 1398.975830078125 1493.185302734375 1404.460205078125 1485.92138671875 1412.577026367188 1482.228759765625 C 1413.908447265625 1481.623046875 1415.318481445313 1481.33056640625 1416.714599609375 1481.33056640625 C 1419.579467773438 1481.33056640625 1422.385498046875 1482.562377929688 1424.33154296875 1484.84765625 C 1430.766479492188 1492.404296875 1435.560302734375 1507.522216796875 1433.544555664063 1519.700805664063 C 1433.693603515625 1520.336059570313 1433.7802734375 1520.984985351563 1433.802978515625 1521.63818359375 C 1434.141479492188 1531.39501953125 1433.822387695313 1574.319946289063 1433.808715820313 1576.142456054688 C 1433.79296875 1578.21875 1433.137939453125 1580.175415039063 1432.006103515625 1581.794799804688 C 1434.857421875 1594.714233398438 1434.169189453125 1596.4638671875 1433.264770507813 1598.764526367188 C 1429.13525390625 1609.94970703125 1420.281860351563 1616.281005859375 1408.921020507813 1616.281005859375 Z"/>
    </g>
    <g id="组_3972" data-name="组 3972">
      <path id="路径_11073" data-name="路径 11073" class="cls-2" d="M1401.5,1509.962s5.06-14.01,15.218-18.631c6.3,7.4,10.738,26.235,3.793,34.029S1401.5,1509.962,1401.5,1509.962Z"/>
      <rect id="矩形_1378" data-name="矩形 1378" class="cls-3" width="2.457" height="15.472" rx="1.229" transform="translate(1414.053 1502.911) rotate(7.543)"/>
      <path id="路径_11074" data-name="路径 11074" class="cls-4" d="M1402.57,1509.114s16.723-1.615,21.239,12.871c.335,9.658,0,54.082,0,54.082l-3.178.966s3.978,16.417,3.327,18.073-3.494,11.175-15.037,11.175H1268.737s-14.255-2.759-14.255-10.623S1402.57,1509.114,1402.57,1509.114Z"/>
      <path id="路径_11075" data-name="路径 11075" class="cls-5" d="M1417.342,1584.244a17,17,0,0,1,.036,1.8,15.927,15.927,0,0,1-.471,3.472c-2.443,9.525-13.389,11.388-13.389,11.388h-139.6c-5.2,0-9.416-3.407-9.43-7.618-.008-5.451-.008-12.968.05-19.579.022-2.776.058-5.393.109-7.626v-.094c.007-.406.022-.79.029-1.167.073-2.682.16-4.668.29-5.465-.522-1.7-.5-9.685-.362-16.948v-.029c.13-6.668.362-12.736.362-12.736l-.13-4.7-.029-1.138c-.182-6.386,6-11.7,13.881-11.946,26.74-.812,83.062-2.493,96.132-2.631,14.831,5.241,14.381-.449,14.381-.449l26.277.311c6.6.08,11.9,4.408,11.953,9.75l.058,6.1.065,7.59.3,32.285.015,1.167.036,4.386s-3.791,2.8-4.125,2.986c-.3.152,1.385,2.4,2.936,8.191.1.4.2.819.312,1.261s.217.9.319,1.378Z"/>
      <path id="路径_11076" data-name="路径 11076" class="cls-6" d="M1417.552,1538.113l-162.721,15.226s-.1-1.183-.229-3.035v-.028c.132-8.242.36-15.73.36-15.73l-.131-5.8c2.16,2.178,162.653,0,162.653,0Z"/>
      <path id="路径_11077" data-name="路径 11077" class="cls-6" d="M1417.342,1584.244a17,17,0,0,1,.036,1.8,15.927,15.927,0,0,1-.471,3.472c-14.171-1.13-159.043-15.483-162.371-15.809a.334.334,0,0,0-.058-.007v-8.88h163.371l.015,1.167.036,4.386s-3.791,2.8-4.125,2.986c-.3.152,1.385,2.4,2.936,8.191.1.4.2.819.312,1.261S1417.233,1583.751,1417.342,1584.244Z"/>
      <path id="路径_11078" data-name="路径 11078" class="cls-7" d="M1273.03,1524.732s.67,6.165-3.791,18.414,4.684,43.472,4.461,44.513c4.8-.641,58.215-1.681,71.82,1.2s57.212-3.683,57.212-3.683-8.03-6.724,1.561-31.062c4.015-10.969-1.673-29.383-1.673-29.383S1334.257,1529.856,1273.03,1524.732Z"/>
      <text id="晚上" class="cls-8" transform="translate(1285.902 1565.339)"><tspan x="0" y="0">晚上</tspan></text>
      <text id="_6:30" data-name="6:30" class="cls-9" transform="translate(1338.841 1565.339)"><tspan x="0" y="0">6:30</tspan></text>
    </g>
    <g id="组_3973" data-name="组 3973">
      <path id="路径_11079" data-name="路径 11079" class="cls-10" d="M1231.364,1590.109s-.135,6.468,1.617,8.489,0,2.56-.81,3.5-2.963,3.368,2.427,3.773,7.006,1.751,8.623-4.447.269-10.779,0-11.318S1232.863,1586.471,1231.364,1590.109Z"/>
      <path id="路径_11080" data-name="路径 11080" class="cls-10" d="M1267.446,1590.109s.135,6.468-1.617,8.489,0,2.56.81,3.5,2.963,3.368-2.426,3.773-7.007,1.751-8.624-4.447-.269-10.779,0-11.318S1265.947,1586.471,1267.446,1590.109Z"/>
      <path id="路径_11081" data-name="路径 11081" class="cls-10" d="M1223.01,1562.353s-6.2,5.12-11.048,6.737-4.581,10.24,4.311,10.51,9.7-2.695,9.7-2.695-.579,10.709,3.551,16c5.611,7.187,36.686,6.279,38.488-.1a46.068,46.068,0,0,0,1.125-17.754s7.5,6.706,11.27,6.167,5.39-7.007,2.965-9.432-11.588-5.659-11.588-9.432S1232.981,1541.873,1223.01,1562.353Z"/>
      <path id="路径_11082" data-name="路径 11082" class="cls-11" d="M1216.284,1500.276s-8.065-25.229,14.062-22.334c8.685,2.9,11.787,15.51,11.787,15.51s8.607-1.551,13.725.7c0,0,3.025-13.106,14.269-14.269s13.648,9.383,13.8,10.934a18.379,18.379,0,0,1-1.706,12.407c1.784,1.862,10.934,13.881,9,31.019s-15.82,23.419-20.628,24.737c-5.04,1.551-37.92,8.143-53.429-6.126-6.669-4.653-18.146-20.782-10.392-38.773C1211.528,1504,1216.284,1500.276,1216.284,1500.276Z"/>
      <circle id="椭圆_1984" data-name="椭圆 1984" class="cls-7" cx="4.768" cy="4.768" r="4.768" transform="translate(1265.844 1487.049)"/>
      <circle id="椭圆_1985" data-name="椭圆 1985" class="cls-12" cx="3.707" cy="3.707" r="3.707" transform="translate(1266.52 1489.151)"/>
      <circle id="椭圆_1986" data-name="椭圆 1986" class="cls-13" cx="1.469" cy="1.469" r="1.469" transform="translate(1271.173 1490.419)"/>
      <circle id="椭圆_1987" data-name="椭圆 1987" class="cls-7" cx="4.768" cy="4.768" r="4.768" transform="translate(1223.532 1485.377)"/>
      <circle id="椭圆_1988" data-name="椭圆 1988" class="cls-12" cx="3.707" cy="3.707" r="3.707" transform="translate(1224.761 1487.536)"/>
      <circle id="椭圆_1989" data-name="椭圆 1989" class="cls-13" cx="1.469" cy="1.469" r="1.469" transform="translate(1224.827 1488.339)"/>
      <path id="路径_11083" data-name="路径 11083" class="cls-14" d="M1216.284,1500.276s8.944,13.958,29.261,16.75,34.729-7.757,36.679-13.8c0,0,12.521,12.25,8.7,33.034s-25.084,23.82-25.084,23.82-22.846,5.093-39.563-1.66a34.513,34.513,0,0,1-21.971-29.191C1203.566,1521.162,1206.668,1506.273,1216.284,1500.276Z"/>
      <path id="路径_11084" data-name="路径 11084" class="cls-15" d="M1217.163,1552.852s7.754-18.611,32.1-16.129,26.664,19.8,26.664,19.8-6.358,5.305-29.384,5.39C1231.741,1561.849,1220.265,1556.885,1217.163,1552.852Z"/>
      <path id="路径_11085" data-name="路径 11085" class="cls-16" d="M1269.284,1523.226a13.943,13.943,0,0,0,21.339,14.118,38.879,38.879,0,0,0-2.309-24.586,13.944,13.944,0,0,0-19.03,10.468Z"/>
      <path id="路径_11086" data-name="路径 11086" class="cls-16" d="M1227.271,1518.7a13.945,13.945,0,0,0-17-10,12.575,12.575,0,0,0-1.981.753,40.8,40.8,0,0,0-3.642,11.734,31.151,31.151,0,0,0,.27,12.006,14.494,14.494,0,0,0,12.354,2.506A13.945,13.945,0,0,0,1227.271,1518.7Z"/>
      <path id="路径_11087" data-name="路径 11087" class="cls-17" d="M1237.066,1504.412s11.787,9.615,24.3.723"/>
      <ellipse id="椭圆_1990" data-name="椭圆 1990" class="cls-15" cx="13.713" cy="12.891" rx="13.713" ry="12.891" transform="translate(1234.635 1565.552)"/>
    </g>
  </g>
</svg>
