<svg xmlns="http://www.w3.org/2000/svg" width="266.017" height="177.342" viewBox="0 0 266.017 177.342">
  <defs>
    <style>
      .cls-1 {
        fill: #b6b9c7;
      }

      .cls-1, .cls-15 {
        stroke-linejoin: round;
      }

      .cls-2 {
        fill: #679d2f;
      }

      .cls-3 {
        fill: #578e20;
      }

      .cls-4 {
        fill: #ca8f3f;
      }

      .cls-5 {
        fill: #eaad59;
      }

      .cls-6 {
        fill: #e19a3b;
      }

      .cls-20, .cls-7 {
        fill: #fff;
      }

      .cls-8, .cls-9 {
        fill: #7d4921;
        font-size: 25.435px;
        font-weight: 700;
      }

      .cls-8 {
        font-family: MicrosoftYaHei-Bold, Microsoft YaHei;
      }

      .cls-9 {
        font-family: TimesNewRomanPS-BoldMT, Times New Roman;
      }

      .cls-10 {
        fill: #9fd641;
      }

      .cls-11 {
        fill: #f7ffd4;
      }

      .cls-12 {
        fill: #44916d;
      }

      .cls-13 {
        fill: #a0c148;
      }

      .cls-14 {
        fill: #f1afa1;
      }

      .cls-15 {
        fill: none;
        stroke: #a0c148;
        stroke-linecap: round;
        stroke-width: 2.2px;
      }

      .cls-16 {
        fill: #78aa21;
      }

      .cls-17 {
        fill: #2b71b0;
      }

      .cls-18 {
        fill: #e7ffff;
      }

      .cls-19, .cls-20 {
        stroke: none;
      }
    </style>
  </defs>
  <g id="组_3982" data-name="组 3982" transform="translate(-586.026 -1450.742)">
    <g id="路径_11146" data-name="路径 11146" class="cls-1">
      <path class="cls-19" d="M 662.6616821289063 1623.08447265625 C 661.1636352539063 1623.08447265625 659.823974609375 1623.038330078125 658.7874755859375 1622.950927734375 C 657.8003540039063 1622.86767578125 656.918701171875 1622.738403320313 656.1220703125 1622.474609375 C 655.3253784179688 1622.738525390625 654.443603515625 1622.867797851563 653.4564208984375 1622.950927734375 C 652.4199829101563 1623.038330078125 651.0802001953125 1623.08447265625 649.5818481445313 1623.08447265625 C 646.7662963867188 1623.08447265625 643.7472534179688 1622.93115234375 641.298828125 1622.663818359375 C 639.8298950195313 1622.50341796875 638.5859375 1622.302856445313 637.6017456054688 1622.067749023438 C 636.2034301757813 1621.733642578125 634.4428100585938 1621.151000976563 633.2297973632813 1619.597412109375 C 632.2058715820313 1618.285888671875 631.8478393554688 1616.617309570313 632.2473754882813 1615.019287109375 C 632.5377807617188 1613.85693359375 633.1520385742188 1612.822265625 634.0236206054688 1612.028198242188 C 634.5447998046875 1611.553344726563 635.14306640625 1611.175170898438 635.8085327148438 1610.899169921875 C 634.8212280273438 1609.849365234375 634.2925415039063 1608.7626953125 634.0140380859375 1607.835327148438 C 633.871337890625 1607.846557617188 633.740234375 1607.850952148438 633.622802734375 1607.850952148438 C 633.1370239257813 1607.850952148438 632.6546020507813 1607.78173828125 632.1889038085938 1607.645263671875 C 631.8389282226563 1607.542846679688 631.5216674804688 1607.41162109375 631.2319946289063 1607.259887695313 C 630.5819702148438 1607.470092773438 629.943359375 1607.573852539063 629.3080444335938 1607.573852539063 C 628.1292724609375 1607.573852539063 627.0145263671875 1607.214233398438 626.084228515625 1606.533813476563 L 626.0817260742188 1606.531982421875 L 626.0792846679688 1606.530151367188 C 625.4181518554688 1606.04541015625 624.9378051757813 1605.470703125 624.5838012695313 1604.861938476563 C 624.484375 1604.844116210938 624.38525390625 1604.82470703125 624.2865600585938 1604.803588867188 L 624.20166015625 1604.785522460938 L 624.1175537109375 1604.764404296875 C 622.5810546875 1604.380126953125 621.2799072265625 1603.344360351563 620.5476684570313 1601.9228515625 C 619.4771118164063 1599.844360351563 619.8718872070313 1597.600219726563 620.3353881835938 1595.877197265625 C 620.5416870117188 1595.110473632813 620.77880859375 1594.421508789063 620.9268188476563 1594.014526367188 C 621.5034790039063 1591.669677734375 622.5612182617188 1589.4375 624.0741577148438 1587.374389648438 C 625.3622436523438 1585.617797851563 626.9942016601563 1583.968627929688 628.924560546875 1582.47265625 C 629.027587890625 1582.392822265625 629.1306762695313 1582.31396484375 629.2342529296875 1582.23583984375 C 624.1380615234375 1578.678466796875 622.8302612304688 1574.271606445313 622.641357421875 1571.166259765625 C 622.5932006835938 1570.374877929688 622.6095581054688 1569.573486328125 622.6900634765625 1568.763916015625 C 622.4505615234375 1568.929077148438 622.1956176757813 1569.115234375 621.9254760742188 1569.324829101563 C 621.7276611328125 1569.947509765625 621.4874267578125 1570.968872070313 621.3295288085938 1571.640014648438 L 621.3272094726563 1571.650024414063 C 620.89990234375 1573.46728515625 620.3683471679688 1575.728515625 619.3761596679688 1577.882934570313 C 618.0076293945313 1580.854858398438 616.0221557617188 1583.023071289063 613.4749145507813 1584.327392578125 C 611.4215698242188 1585.38037109375 608.949951171875 1585.93701171875 606.3270263671875 1585.93701171875 C 602.5598754882813 1585.93701171875 598.9784545898438 1584.771362304688 596.2424926757813 1582.654541015625 C 594.0279541015625 1580.942626953125 592.4325561523438 1578.633422851563 591.6300659179688 1575.977783203125 C 590.871337890625 1573.467163085938 590.815185546875 1570.722045898438 591.4630737304688 1567.81884765625 C 591.7642211914063 1566.465209960938 592.5289306640625 1565.241088867188 593.6155395507813 1564.375122070313 C 594.69091796875 1563.518188476563 596.0391235351563 1563.046264648438 597.4118041992188 1563.046264648438 C 597.8621215820313 1563.046264648438 598.3133544921875 1563.096557617188 598.75341796875 1563.195922851563 C 600.3410034179688 1563.552368164063 601.6951293945313 1564.5048828125 602.5671997070313 1565.87890625 C 603.4398803710938 1567.254028320313 603.7249145507813 1568.88623046875 603.3700561523438 1570.475463867188 L 603.3700561523438 1570.4755859375 C 603.1307983398438 1571.548217773438 603.221435546875 1572.151977539063 603.2968139648438 1572.416381835938 C 603.3563842773438 1572.625366210938 603.44873046875 1572.805297851563 603.7061767578125 1573.004272460938 C 604.3050537109375 1573.467651367188 605.28564453125 1573.743530273438 606.330810546875 1573.743530273438 C 607.107177734375 1573.743530273438 607.65380859375 1573.587280273438 607.8716430664063 1573.489868164063 C 607.9379272460938 1573.419799804688 608.1861572265625 1573.120361328125 608.5038452148438 1572.283447265625 C 608.87548828125 1571.3046875 609.1678466796875 1570.060546875 609.4505615234375 1568.857299804688 C 610.0513916015625 1566.30224609375 610.6719360351563 1563.663208007813 612.3861694335938 1561.537353515625 C 612.6181640625 1561.247924804688 612.87939453125 1560.977783203125 613.1630249023438 1560.73388671875 L 613.1663818359375 1560.731079101563 L 613.1697387695313 1560.728149414063 C 616.0377807617188 1558.270751953125 618.8893432617188 1556.635864257813 621.6884765625 1555.839233398438 C 619.4539794921875 1555.375244140625 618.048095703125 1554.220703125 617.2125244140625 1553.216186523438 C 616.2962646484375 1552.11474609375 615.7135620117188 1550.781982421875 615.4806518554688 1549.255004882813 C 615.292236328125 1548.019287109375 615.3350219726563 1546.692504882813 615.611572265625 1545.19873046875 L 615.7017822265625 1544.711547851563 L 615.8858642578125 1544.251586914063 C 616.0028686523438 1543.959106445313 616.1393432617188 1543.681518554688 616.292724609375 1543.414794921875 C 614.9147338867188 1542.965087890625 613.6122436523438 1542.253784179688 612.43701171875 1541.300903320313 C 610.6112060546875 1539.820434570313 609.2089233398438 1537.812622070313 608.4886474609375 1535.647216796875 C 607.32470703125 1532.148315429688 608.0012817382813 1528.563720703125 610.2361450195313 1525.910522460938 C 607.99267578125 1523.658935546875 606.192626953125 1520.853637695313 604.9031372070313 1517.564086914063 C 602.849609375 1512.325561523438 602.8259887695313 1507.7099609375 602.8259887695313 1507.515991210938 L 602.8259887695313 1503.087890625 L 607.2216186523438 1502.552612304688 C 607.9771118164063 1502.460693359375 608.77783203125 1502.4140625 609.6015014648438 1502.4140625 C 611.2435913085938 1502.4140625 613.0426025390625 1502.599609375 614.9852294921875 1502.968139648438 C 615.365234375 1501.312866210938 616.0158081054688 1499.973510742188 616.9473266601563 1498.916748046875 C 617.28564453125 1498.532958984375 617.65673828125 1498.192993164063 618.0546875 1497.899291992188 C 617.6044921875 1491.640014648438 618.4948120117188 1484.489135742188 620.7220458984375 1476.533325195313 C 622.5016479492188 1469.3203125 624.5470581054688 1464.1689453125 626.9744873046875 1460.785766601563 C 629.9655151367188 1456.6171875 633.1760864257813 1455.742065429688 635.3427124023438 1455.742065429688 C 636.1948852539063 1455.742065429688 637.0325317382813 1455.877807617188 637.832275390625 1456.145629882813 C 639.9851684570313 1456.866943359375 641.6527709960938 1458.299560546875 642.6561279296875 1460.2890625 C 643.5924682617188 1462.145751953125 643.9210205078125 1464.41162109375 643.6605834960938 1467.21630859375 C 643.4498291015625 1469.492065429688 642.4639892578125 1472.699829101563 641.243408203125 1476.1279296875 C 642.6132202148438 1476.203002929688 643.9299926757813 1476.627563476563 645.0757446289063 1477.3671875 C 645.7644653320313 1477.812133789063 646.3623046875 1478.345336914063 646.8599853515625 1478.953979492188 C 647.0143432617188 1478.97314453125 647.1683349609375 1478.996948242188 647.322021484375 1479.025268554688 C 647.47119140625 1478.562377929688 647.6268920898438 1478.100463867188 647.7889404296875 1477.64404296875 C 648.6167602539063 1475.313232421875 649.4837036132813 1473.478149414063 650.4392700195313 1472.033813476563 C 651.1380004882813 1470.977783203125 651.8771362304688 1470.137573242188 652.6990356445313 1469.465209960938 C 653.9263305664063 1468.461181640625 655.2874755859375 1467.876953125 656.7447509765625 1467.728637695313 C 657.396240234375 1467.662231445313 658.022705078125 1467.628540039063 658.6058959960938 1467.628540039063 C 663.9371948242188 1467.628540039063 665.9459228515625 1470.511352539063 666.8036499023438 1471.742431640625 C 666.8510131835938 1471.810302734375 666.9144897460938 1471.901489257813 666.9440307617188 1471.941162109375 C 667.66162109375 1472.80078125 668.141357421875 1473.866455078125 668.9041137695313 1476.287109375 C 668.9393310546875 1476.39892578125 668.9751586914063 1476.513793945313 669.0116577148438 1476.6318359375 C 669.7739868164063 1476.341918945313 670.5755615234375 1476.174926757813 671.4083862304688 1476.133178710938 C 670.1868286132813 1472.703369140625 669.1998901367188 1469.493774414063 668.9884033203125 1467.216430664063 C 668.728515625 1464.41064453125 669.0575561523438 1462.144897460938 669.9940185546875 1460.28857421875 C 670.99755859375 1458.29931640625 672.6651611328125 1456.866821289063 674.8165283203125 1456.14599609375 C 675.6175537109375 1455.877807617188 676.4554443359375 1455.742065429688 677.3079833984375 1455.742065429688 C 679.4747924804688 1455.742065429688 682.6859741210938 1456.616577148438 685.6790161132813 1460.782592773438 C 688.109375 1464.165283203125 690.1563110351563 1469.315551757813 691.9359130859375 1476.525268554688 C 694.000244140625 1483.90771484375 694.9157104492188 1490.599975585938 694.67919921875 1496.529907226563 C 694.9263305664063 1496.5029296875 695.17529296875 1496.4892578125 695.4246215820313 1496.4892578125 C 697.4790649414063 1496.4892578125 699.4210205078125 1497.419677734375 700.75390625 1499.042236328125 L 700.75390625 1499.042236328125 C 701.5408935546875 1499.999145507813 701.9346923828125 1501.10986328125 702.1837158203125 1502.428344726563 C 702.4527587890625 1502.419067382813 702.7178955078125 1502.414306640625 702.9786987304688 1502.414306640625 C 703.8009643554688 1502.414306640625 704.6001586914063 1502.460815429688 705.3541870117188 1502.552612304688 L 709.75 1503.087646484375 L 709.75 1507.515991210938 C 709.75 1507.82568359375 709.7205810546875 1510.650268554688 708.7012329101563 1514.411010742188 C 708.4882202148438 1515.19677734375 708.2495727539063 1515.960815429688 707.985595703125 1516.702270507813 C 738.3226318359375 1515.799194335938 772.7921142578125 1514.818603515625 782.755615234375 1514.714233398438 L 783.639892578125 1514.704956054688 L 784.4736938476563 1514.999633789063 C 788.2098999023438 1516.319702148438 790.557373046875 1516.777587890625 791.9881591796875 1516.896606445313 L 791.7758178710938 1514.199462890625 L 797.2493286132813 1514.264404296875 L 816.6593627929688 1514.494750976563 C 817.582275390625 1512.6435546875 818.8416748046875 1510.386474609375 820.4478759765625 1508.086181640625 C 824.0343017578125 1502.949829101563 828.1354370117188 1499.307006835938 832.6375122070313 1497.258911132813 L 836.069580078125 1495.697509765625 L 838.5145263671875 1498.568115234375 C 841.5988159179688 1502.189453125 844.228271484375 1507.810913085938 845.728515625 1513.9912109375 C 847.1718139648438 1519.936889648438 847.3995971679688 1525.700927734375 846.400390625 1530.445678710938 C 846.4606323242188 1530.62255859375 846.5178833007813 1530.797973632813 846.57275390625 1530.973754882813 L 846.7736206054688 1531.617065429688 L 846.7969970703125 1532.290649414063 C 847.1318359375 1541.942138671875 846.8135986328125 1584.764526367188 846.7998657226563 1586.582763671875 L 846.7721557617188 1590.259643554688 L 844.5531616210938 1590.93408203125 C 844.826904296875 1592.145751953125 845.1270751953125 1593.504028320313 845.4207763671875 1594.890991210938 C 845.9684448242188 1597.477294921875 846.379150390625 1599.6259765625 846.6414794921875 1601.277587890625 C 847.158203125 1604.531127929688 847.1488647460938 1606.021728515625 846.6028442382813 1607.411865234375 C 846.5853881835938 1607.456420898438 846.5455932617188 1607.564086914063 846.5105590820313 1607.658935546875 C 846.0236206054688 1608.976928710938 844.7302856445313 1612.477783203125 841.78759765625 1615.629760742188 C 840.0682983398438 1617.471313476563 838.0479125976563 1618.9248046875 835.7825317382813 1619.949829101563 C 833.1295166015625 1621.150390625 830.1450805664063 1621.759033203125 826.9119873046875 1621.759033203125 L 686.72802734375 1621.759033203125 L 686.2477416992188 1621.759033203125 L 685.7761840820313 1621.667602539063 C 685.634521484375 1621.64013671875 682.5161743164063 1621.026123046875 679.0164794921875 1619.594482421875 C 679.0157470703125 1619.595458984375 679.0149536132813 1619.596435546875 679.01416015625 1619.597412109375 C 677.8011474609375 1621.151123046875 676.04052734375 1621.733764648438 674.6421508789063 1622.067749023438 C 673.6578369140625 1622.302856445313 672.4139404296875 1622.50341796875 670.9448852539063 1622.663818359375 C 668.4965209960938 1622.93115234375 665.4774169921875 1623.08447265625 662.6616821289063 1623.08447265625 Z M 678.11083984375 1496.98486328125 L 682.9530029296875 1497.3232421875 C 682.9530029296875 1497.20458984375 682.9461669921875 1496.9775390625 682.9044799804688 1496.693481445313 C 682.6723022460938 1495.119506835938 680.8939208984375 1493.434448242188 678.6162719726563 1493.434448242188 C 677.5586547851563 1493.434448242188 676.5311889648438 1493.801391601563 675.775634765625 1494.43359375 L 678.11083984375 1496.98486328125 Z"/>
      <path class="cls-20" d="M 662.6616821289063 1618.08447265625 C 668.0016479492188 1618.08447265625 675.4546508789063 1617.466674804688 675.14599609375 1616.232055664063 C 674.6829833984375 1614.379028320313 670.8309936523438 1616.385986328125 670.9439697265625 1614.069946289063 C 670.93701171875 1612.5439453125 670.6610107421875 1611.035034179688 670.155029296875 1609.598022460938 C 671.083984375 1609.291015625 671.7550048828125 1608.943969726563 672.0579833984375 1608.56005859375 C 672.2780151367188 1608.281005859375 672.4520263671875 1607.848022460938 672.5900268554688 1607.303955078125 C 673.9080200195313 1614.27294921875 686.72802734375 1616.759033203125 686.72802734375 1616.759033203125 L 826.9119873046875 1616.759033203125 C 838.4539794921875 1616.759033203125 841.2979736328125 1607.239990234375 841.948974609375 1605.583984375 C 842.5989990234375 1603.928955078125 838.6220092773438 1587.510986328125 838.6220092773438 1587.510986328125 L 841.7999877929688 1586.545043945313 C 841.7999877929688 1586.545043945313 842.135009765625 1542.120971679688 841.7999877929688 1532.463989257813 C 841.6129760742188 1531.864990234375 841.3989868164063 1531.303955078125 841.1729736328125 1530.759033203125 C 843.8040161132813 1521.70703125 839.8880004882813 1507.891967773438 834.7080078125 1501.81005859375 C 826.1090087890625 1505.722045898438 821.1649780273438 1516.359985351563 819.8489990234375 1519.532958984375 L 797.1900024414063 1519.264038085938 C 797.1900024414063 1519.264038085938 797.4000244140625 1521.931518554688 792.772216796875 1521.931640625 C 790.6410522460938 1521.931762695313 787.4843139648438 1521.3662109375 782.8079833984375 1519.713989257813 C 771.5330200195313 1519.83203125 728.0670166015625 1521.099975585938 699.1749877929688 1521.968017578125 C 704.2760009765625 1516.489013671875 704.75 1508.6240234375 704.75 1507.515991210938 C 704.1806030273438 1507.446655273438 703.588134765625 1507.414306640625 702.9786987304688 1507.414306640625 C 701.3104858398438 1507.414306640625 699.512939453125 1507.656616210938 697.697998046875 1508.046997070313 C 697.572021484375 1505.066040039063 697.3040161132813 1502.718994140625 696.8920288085938 1502.218017578125 C 696.4619750976563 1501.693359375 695.9290771484375 1501.4892578125 695.4246826171875 1501.4892578125 C 694.5379638671875 1501.4892578125 693.739013671875 1502.119384765625 693.739013671875 1502.745971679688 C 693.739013671875 1503.72900390625 692.552978515625 1505.639038085938 690.2529907226563 1506.232055664063 C 690.163330078125 1506.255249023438 690.0772094726563 1506.266357421875 689.9947509765625 1506.266357421875 C 689.2431640625 1506.266479492188 688.7839965820313 1505.339111328125 688.4829711914063 1504.072998046875 C 690.1400146484375 1498.400024414063 690.5230102539063 1490 687.0999755859375 1477.797973632813 C 683.4451904296875 1462.944458007813 679.401123046875 1460.742065429688 677.3080444335938 1460.742065429688 C 676.9437255859375 1460.742065429688 676.6388549804688 1460.808715820313 676.405029296875 1460.886962890625 C 674.8289794921875 1461.4150390625 673.6019897460938 1462.81298828125 673.9669799804688 1466.754028320313 C 674.3330078125 1470.694946289063 678.5260009765625 1480.568969726563 678.5260009765625 1481.0400390625 C 678.5260009765625 1481.511962890625 679.4929809570313 1485.777954101563 679.4929809570313 1486.217041015625 C 679.4929809570313 1486.229736328125 679.48828125 1486.23583984375 679.4791259765625 1486.23583984375 C 679.2135009765625 1486.236083984375 675.1880493164063 1481.122802734375 671.8275146484375 1481.122802734375 C 671.3338623046875 1481.122802734375 670.8549194335938 1481.23291015625 670.4039916992188 1481.485961914063 C 668.5440063476563 1482.026000976563 668.4569702148438 1484.237060546875 668.6279907226563 1484.567016601563 C 669.1370239257813 1486.10400390625 669.260009765625 1487.741943359375 668.9860229492188 1489.337036132813 C 668.7714233398438 1490.23583984375 668.4189453125 1490.561767578125 668.0982055664063 1490.561767578125 C 667.78662109375 1490.561767578125 667.5050659179688 1490.254272460938 667.4089965820313 1489.865966796875 C 667.2139892578125 1489.077026367188 664.02099609375 1476.22900390625 663.1019897460938 1475.140991210938 C 662.284912109375 1474.171630859375 661.89208984375 1472.628540039063 658.6058959960938 1472.628540039063 C 658.2003173828125 1472.628540039063 657.7509765625 1472.651977539063 657.2509765625 1472.703002929688 C 652.7009887695313 1473.166015625 650.0349731445313 1489.004028320313 649.64501953125 1490.157958984375 C 649.5709228515625 1490.377197265625 649.4644775390625 1490.470336914063 649.3414306640625 1490.470458984375 C 648.8168334960938 1490.470581054688 647.9894409179688 1488.779052734375 648.0679931640625 1487.9560546875 C 648.166015625 1486.93994140625 648.5640258789063 1485.68896484375 647.4429931640625 1484.307006835938 C 646.8941040039063 1484.023315429688 646.3778686523438 1483.893920898438 645.8928833007813 1483.893920898438 C 644.9808959960938 1483.893920898438 644.1790771484375 1484.351196289063 643.4760131835938 1485.099975585938 C 643.7520141601563 1483.677978515625 643.5700073242188 1482.347045898438 642.364013671875 1481.567993164063 C 641.874267578125 1481.251831054688 641.34716796875 1481.115844726563 640.8025512695313 1481.115844726563 C 637.4596557617188 1481.115844726563 633.4440307617188 1486.2353515625 633.1788330078125 1486.23583984375 C 633.1696166992188 1486.23583984375 633.1649780273438 1486.229736328125 633.1649780273438 1486.217041015625 C 633.1649780273438 1485.777954101563 634.1240234375 1481.511962890625 634.1240234375 1481.0400390625 C 634.1240234375 1480.568969726563 638.3170166015625 1470.694946289063 638.6820068359375 1466.754028320313 C 639.0479736328125 1462.81298828125 637.8209838867188 1461.4150390625 636.2449951171875 1460.886962890625 C 636.0114135742188 1460.808715820313 635.706298828125 1460.742065429688 635.3427124023438 1460.742065429688 C 633.2515869140625 1460.742065429688 629.21337890625 1462.943481445313 625.5579833984375 1477.806030273438 C 622.0239868164063 1490.387939453125 622.5460205078125 1498.9169921875 624.3369750976563 1504.590942382813 C 623.81298828125 1504.161987304688 623.4619750976563 1502.8740234375 622.39697265625 1501.592041015625 C 622.3004760742188 1501.580688476563 622.2067260742188 1501.575073242188 622.116455078125 1501.575073242188 C 618.7278442382813 1501.575073242188 619.7150268554688 1509.385009765625 619.7150268554688 1509.385009765625 L 619.7160034179688 1509.385986328125 C 616.385986328125 1508.282348632813 612.761474609375 1507.4140625 609.6014404296875 1507.4140625 C 608.9903564453125 1507.4140625 608.3969116210938 1507.446533203125 607.8259887695313 1507.515991210938 C 607.8259887695313 1508.95703125 608.60400390625 1521.836059570313 619.3499755859375 1526.01904296875 L 619.3499755859375 1526.02001953125 C 618.3591918945313 1528.16845703125 617.2130737304688 1528.536010742188 616.2597045898438 1528.536010742188 C 615.7637939453125 1528.5361328125 615.3201293945313 1528.436645507813 614.9774169921875 1528.436645507813 C 614.8925170898438 1528.436645507813 614.8137817382813 1528.442749023438 614.7420043945313 1528.4580078125 C 610.531982421875 1531.943969726563 614.27099609375 1538.713989257813 619.5369873046875 1538.973999023438 C 624.802001953125 1539.234008789063 624.656005859375 1538.713989257813 625.030029296875 1540.224975585938 C 625.4039916992188 1541.737060546875 621.0809936523438 1544.72705078125 620.5280151367188 1546.109008789063 C 619.816650390625 1549.951416015625 621.5543823242188 1551.048217773438 623.816162109375 1551.048217773438 C 625.223388671875 1551.048217773438 626.8333129882813 1550.623779296875 628.1829833984375 1550.171997070313 C 628.7356567382813 1549.98681640625 629.1616821289063 1549.900268554688 629.4779663085938 1549.900268554688 C 631.1756591796875 1549.900268554688 629.7183227539063 1552.391235351563 627.7930297851563 1555.494995117188 C 626.474609375 1558.354125976563 627.9547729492188 1559.030883789063 629.6505737304688 1559.030883789063 C 631.1742553710938 1559.030883789063 632.8720092773438 1558.484985351563 632.8720092773438 1558.484985351563 L 632.8829956054688 1558.483032226563 C 632.2269897460938 1559.68798828125 631.7100219726563 1560.4599609375 631.7100219726563 1560.4599609375 C 631.7100219726563 1560.4599609375 631.2150268554688 1561.026977539063 630.5709838867188 1561.97705078125 C 629.791015625 1561.386962890625 628.9010009765625 1560.89794921875 627.885009765625 1560.598022460938 C 627.1519165039063 1560.38134765625 626.396728515625 1560.273071289063 625.621337890625 1560.273071289063 C 622.8080444335938 1560.273071289063 619.72412109375 1561.696533203125 616.4229736328125 1564.525024414063 C 616.3729858398438 1564.567993164063 616.3259887695313 1564.615966796875 616.2839965820313 1564.6689453125 C 615.280029296875 1565.909057617188 614.81298828125 1567.89599609375 614.3179931640625 1570.0009765625 C 613.5910034179688 1573.094970703125 612.7670288085938 1576.600952148438 610.1929931640625 1577.920043945313 C 609.168212890625 1578.445434570313 607.7910766601563 1578.743530273438 606.330810546875 1578.743530273438 C 604.3698120117188 1578.743530273438 602.2586059570313 1578.2060546875 600.6480102539063 1576.9599609375 C 598.5009765625 1575.300048828125 597.7550048828125 1572.682006835938 598.489990234375 1569.386962890625 C 598.6229858398438 1568.7939453125 598.2490234375 1568.2060546875 597.656005859375 1568.073974609375 C 597.5740966796875 1568.05517578125 597.4923095703125 1568.046264648438 597.4118041992188 1568.046264648438 C 596.9093017578125 1568.046264648438 596.456787109375 1568.396850585938 596.343017578125 1568.907958984375 C 595.4219970703125 1573.035034179688 596.4730224609375 1576.512939453125 599.302001953125 1578.699951171875 C 601.3209838867188 1580.261962890625 603.9080200195313 1580.93701171875 606.3270263671875 1580.93701171875 C 608.1500244140625 1580.93701171875 609.8790283203125 1580.552978515625 611.1959838867188 1579.876953125 C 614.676025390625 1578.094970703125 615.6649780273438 1573.886962890625 616.4600219726563 1570.505004882813 C 616.8839721679688 1568.703002929688 617.2839965820313 1566.9990234375 617.93798828125 1566.125 C 620.79296875 1563.697143554688 623.370361328125 1562.475463867188 625.6243286132813 1562.475463867188 C 626.1881103515625 1562.475463867188 626.7314453125 1562.551879882813 627.2540283203125 1562.704956054688 C 628.072998046875 1562.944946289063 628.7919921875 1563.364990234375 629.4240112304688 1563.876953125 C 627.39599609375 1567.681030273438 625.6840209960938 1573.880981445313 632.3930053710938 1578.338012695313 C 634.6019897460938 1579.806030273438 637.2319946289063 1580.996948242188 640.1160278320313 1581.93896484375 C 635.9080200195313 1583.572998046875 627.4459838867188 1587.756958007813 625.7210083007813 1595.468994140625 C 625.7210083007813 1595.468994140625 624.0960083007813 1599.60498046875 625.3309936523438 1599.913940429688 C 625.6110229492188 1599.973754882813 625.894775390625 1600.003295898438 626.17724609375 1600.003295898438 C 626.8914184570313 1600.003295898438 627.5984497070313 1599.814697265625 628.2239990234375 1599.449951171875 C 628.2341918945313 1599.441284179688 628.2440185546875 1599.437133789063 628.25341796875 1599.437133789063 C 628.4903564453125 1599.437133789063 628.4810180664063 1602.091064453125 629.0360107421875 1602.498046875 C 629.1077270507813 1602.550415039063 629.2003784179688 1602.573852539063 629.3080444335938 1602.573852539063 C 630.0668334960938 1602.573852539063 631.5712280273438 1601.41455078125 631.7420043945313 1601.108032226563 C 631.7578125 1601.079711914063 631.7806396484375 1601.066772460938 631.8094482421875 1601.066772460938 C 632.1366577148438 1601.066772460938 633.2366333007813 1602.7431640625 633.594970703125 1602.847045898438 C 633.6038208007813 1602.849609375 633.6131591796875 1602.850952148438 633.622802734375 1602.850952148438 C 634.0391235351563 1602.850952148438 635.2068481445313 1600.510009765625 635.114990234375 1599.994995117188 L 635.14697265625 1599.987060546875 C 635.14697265625 1599.987060546875 636.8480224609375 1595.364990234375 639.6290283203125 1594.182006835938 C 638.8469848632813 1598.864013671875 638.3209838867188 1603.536987304688 638.739013671875 1606.121948242188 C 638.9450073242188 1607.39404296875 640.2620239257813 1608.385009765625 642.25 1609.137939453125 L 642.2420043945313 1609.14501953125 C 641.6270141601563 1610.714965820313 641.3079833984375 1612.384033203125 641.2990112304688 1614.069946289063 C 641.4130249023438 1616.385986328125 637.5609741210938 1614.379028320313 637.0980224609375 1616.232055664063 C 636.7893676757813 1617.466552734375 644.2420043945313 1618.08447265625 649.5818481445313 1618.08447265625 C 652.2522583007813 1618.08447265625 654.3936157226563 1617.930053710938 654.7730102539063 1617.620971679688 C 655.9099731445313 1616.694946289063 655.7890014648438 1611.078979492188 655.7890014648438 1611.078979492188 L 655.7410278320313 1611.04296875 C 655.9849853515625 1611.046020507813 656.22998046875 1611.051025390625 656.4739990234375 1611.052001953125 L 656.4390258789063 1611.078979492188 C 656.4390258789063 1611.078979492188 656.3330078125 1616.694946289063 657.4710083007813 1617.620971679688 C 657.8499755859375 1617.929931640625 659.991943359375 1618.08447265625 662.6616821289063 1618.08447265625 M 677.968994140625 1496.974975585938 C 678.4390258789063 1497.328979492188 678.833984375 1497.703002929688 679.1480102539063 1498.118041992188 C 679.1370239257813 1498.128051757813 679.1209716796875 1498.135986328125 679.1110229492188 1498.14599609375 C 678.925048828125 1498.3505859375 678.759765625 1498.434448242188 678.6162719726563 1498.434448242188 C 678.2520141601563 1498.434448242188 678.027587890625 1497.89501953125 677.9580078125 1497.422973632813 C 677.947998046875 1497.359985351563 677.9530029296875 1497.203979492188 677.968994140625 1496.974975585938 M 640.5650024414063 1491.079956054688 C 639.7319946289063 1493.8740234375 639.281982421875 1496.64501953125 639.10498046875 1497.651000976563 C 638.8980102539063 1498.05078125 638.6461181640625 1498.21337890625 638.3699340820313 1498.21337890625 C 637.61328125 1498.21337890625 636.6741943359375 1496.993286132813 635.9760131835938 1496.087036132813 C 638.4910278320313 1494.326049804688 640.5430297851563 1491.109008789063 640.5430297851563 1491.109008789063 L 640.5650024414063 1491.079956054688 M 662.6616821289063 1628.08447265625 C 660.0432739257813 1628.08447265625 657.92724609375 1627.98681640625 656.1220703125 1627.628051757813 C 654.3169555664063 1627.98681640625 652.20068359375 1628.08447265625 649.5818481445313 1628.08447265625 C 634.7416381835938 1628.08447265625 631.5147094726563 1625.525390625 629.2887573242188 1622.674438476563 C 627.3936767578125 1620.247192382813 626.6497192382813 1616.7939453125 627.3966674804688 1613.806518554688 C 627.4805297851563 1613.470703125 627.6177368164063 1613.003540039063 627.8326416015625 1612.459716796875 C 626.1510009765625 1612.205200195313 624.4546508789063 1611.536743164063 623.1317138671875 1610.568969726563 C 622.522216796875 1610.1220703125 621.9970703125 1609.64111328125 621.5436401367188 1609.140380859375 C 619.1096801757813 1608.143676757813 617.2413330078125 1606.422973632813 616.1027221679688 1604.21240234375 C 614.4437866210938 1600.99169921875 614.4578247070313 1597.1572265625 616.14990234375 1592.508666992188 C 616.6465454101563 1590.595703125 617.3606567382813 1588.839233398438 618.2354736328125 1587.228881835938 C 617.4845581054688 1587.793090820313 616.659912109375 1588.31396484375 615.7537231445313 1588.777954101563 C 613.0052490234375 1590.188842773438 609.742431640625 1590.93701171875 606.3270263671875 1590.93701171875 C 601.458251953125 1590.93701171875 596.790283203125 1589.400024414063 593.1829833984375 1586.609252929688 C 587.2902221679688 1582.053833007813 584.8219604492188 1574.621337890625 586.5831298828125 1566.729858398438 C 587.720458984375 1561.619384765625 592.1738891601563 1558.046142578125 597.4118041992188 1558.046142578125 C 598.1646728515625 1558.046142578125 599.1592407226563 1558.158935546875 599.8930053710938 1558.327392578125 C 602.390625 1558.883544921875 604.6066284179688 1560.297485351563 606.1861572265625 1562.340576171875 C 606.7484130859375 1560.991577148438 607.4878540039063 1559.641479492188 608.51171875 1558.376831054688 C 608.8904418945313 1557.908935546875 609.4496459960938 1557.332275390625 609.90625 1556.940063476563 C 610.7201538085938 1556.24267578125 611.537353515625 1555.599365234375 612.3565673828125 1555.0107421875 C 611.0947875976563 1552.980712890625 610.0730590820313 1550.050170898438 610.44677734375 1546.060302734375 C 607.3740844726563 1543.9755859375 604.9655151367188 1540.896850585938 603.7442626953125 1537.225463867188 C 602.5048217773438 1533.49951171875 602.6779174804688 1529.70068359375 604.1071166992188 1526.386474609375 C 599.3438720703125 1519.907836914063 597.8259887695313 1512.111938476563 597.8259887695313 1507.515991210938 C 597.8259887695313 1502.46044921875 601.59912109375 1498.2001953125 606.6175537109375 1497.589233398438 C 607.5771484375 1497.472412109375 608.5742797851563 1497.4140625 609.6014404296875 1497.4140625 C 610.3201293945313 1497.4140625 611.0606689453125 1497.443359375 611.8225708007813 1497.501831054688 C 612.1649780273438 1496.931640625 612.5452270507813 1496.396118164063 612.9588623046875 1495.898559570313 C 612.8120727539063 1489.629272460938 613.8034057617188 1482.675048828125 615.9305419921875 1475.101806640625 C 617.5072021484375 1468.669067382813 621.916259765625 1450.742065429688 635.3427124023438 1450.742065429688 C 636.4219970703125 1450.742065429688 638.396484375 1451.061645507813 639.4199829101563 1451.404418945313 C 641.766357421875 1452.190551757813 649.1263427734375 1455.533935546875 648.7286376953125 1466.309448242188 C 650.7164306640625 1464.382080078125 653.1718139648438 1463.06640625 656.238525390625 1462.75439453125 C 657.1111450195313 1462.665405273438 657.8968505859375 1462.628540039063 658.6058959960938 1462.628540039063 C 660.71923828125 1462.628540039063 662.5028686523438 1462.962036132813 664.00244140625 1463.480590820313 C 664.8564453125 1454.931518554688 671.1030883789063 1452.117065429688 673.2279663085938 1451.405029296875 C 674.2520141601563 1451.061889648438 676.2279663085938 1450.742065429688 677.3080444335938 1450.742065429688 C 690.7410278320313 1450.742065429688 695.150390625 1468.662475585938 696.8103637695313 1475.40869140625 C 698.4892578125 1481.383911132813 699.4457397460938 1487.03173828125 699.668212890625 1492.2783203125 C 701.5728149414063 1493.012939453125 703.2832641601563 1494.24072265625 704.6259765625 1495.878784179688 C 705.0676879882813 1496.415771484375 705.444091796875 1496.974365234375 705.765869140625 1497.566650390625 C 705.8302612304688 1497.573974609375 705.8945922851563 1497.58154296875 705.9586791992188 1497.58935546875 C 710.9769897460938 1498.200317382813 714.75 1502.460571289063 714.75 1507.515991210938 C 714.75 1507.68994140625 714.7388916015625 1509.220336914063 714.3931884765625 1511.510009765625 C 742.9993286132813 1510.6650390625 773.4163818359375 1509.811767578125 782.7033081054688 1509.714477539063 C 782.7381591796875 1509.714111328125 782.7731323242188 1509.713989257813 782.8079833984375 1509.713989257813 C 783.942626953125 1509.713989257813 785.0690307617188 1509.907104492188 786.1393432617188 1510.28515625 C 788.17333984375 1511.00390625 789.66748046875 1511.40966796875 790.7207641601563 1511.638427734375 C 792.5189208984375 1510.112915039063 794.8096923828125 1509.264038085938 797.1898193359375 1509.264038085938 C 797.2295532226563 1509.264038085938 797.2688598632813 1509.264282226563 797.3086547851563 1509.264770507813 L 813.6741333007813 1509.458984375 C 816.9683837890625 1503.663696289063 822.4533081054688 1496.39892578125 830.5670166015625 1492.707763671875 C 831.8983154296875 1492.10205078125 833.3085327148438 1491.8095703125 834.7045288085938 1491.8095703125 C 837.5692749023438 1491.8095703125 840.3748779296875 1493.041137695313 842.3209838867188 1495.326049804688 C 848.7561645507813 1502.881591796875 853.5505981445313 1517.999755859375 851.535400390625 1530.178833007813 C 851.6846313476563 1530.814453125 851.7713012695313 1531.463623046875 851.7940063476563 1532.117309570313 C 852.1323852539063 1541.873168945313 851.8134765625 1584.7978515625 851.7996826171875 1586.620483398438 C 851.7840576171875 1588.69677734375 851.1285400390625 1590.653930664063 849.9967651367188 1592.273315429688 C 852.8472290039063 1605.19189453125 852.159912109375 1606.940185546875 851.2568969726563 1609.239624023438 C 847.1231689453125 1620.428833007813 838.270263671875 1626.759033203125 826.9119873046875 1626.759033203125 L 686.72802734375 1626.759033203125 C 686.0890502929688 1626.759033203125 685.4515991210938 1626.69775390625 684.8242797851563 1626.576171875 C 683.9710693359375 1626.41064453125 682.2169799804688 1626.026977539063 680.0487670898438 1625.316650390625 C 677.3413696289063 1626.93408203125 672.6118774414063 1628.08447265625 662.6616821289063 1628.08447265625 Z"/>
    </g>
    <g id="组_3979" data-name="组 3979">
      <path id="路径_11147" data-name="路径 11147" class="cls-2" d="M819.49,1520.44s5.061-14.009,15.218-18.63c6.3,7.4,10.739,26.234,3.794,34.028S819.49,1520.44,819.49,1520.44Z"/>
      <rect id="矩形_1381" data-name="矩形 1381" class="cls-3" width="2.457" height="15.472" rx="1.229" transform="translate(832.043 1513.389) rotate(7.543)"/>
      <path id="路径_11148" data-name="路径 11148" class="cls-4" d="M820.56,1519.593s16.723-1.616,21.24,12.871c.335,9.657,0,54.081,0,54.081l-3.178.966s3.977,16.418,3.327,18.073-3.495,11.175-15.037,11.175H686.728s-14.255-2.759-14.255-10.623S820.56,1519.593,820.56,1519.593Z"/>
      <path id="路径_11149" data-name="路径 11149" class="cls-5" d="M835.332,1594.723a16.989,16.989,0,0,1,.037,1.8A15.938,15.938,0,0,1,834.9,1600c-2.442,9.525-13.388,11.388-13.388,11.388h-139.6c-5.2,0-9.416-3.407-9.431-7.619-.007-5.451-.007-12.968.051-19.578.022-2.777.058-5.394.109-7.626v-.094c.007-.406.022-.79.029-1.167.072-2.682.159-4.669.29-5.466-.522-1.7-.5-9.684-.363-16.947v-.029c.131-6.669.363-12.736.363-12.736l-.131-4.7-.029-1.138c-.181-6.386,6-11.7,13.882-11.946,26.74-.812,83.062-2.494,96.131-2.631,14.831,5.24,14.382-.45,14.382-.45l26.276.312c6.6.08,11.9,4.407,11.953,9.749l.058,6.1.065,7.589.3,32.286.014,1.167.036,4.385s-3.791,2.805-4.124,2.987c-.3.152,1.384,2.4,2.936,8.191.1.4.2.819.311,1.261s.218.9.319,1.377Z"/>
      <path id="路径_11150" data-name="路径 11150" class="cls-6" d="M835.543,1548.591l-162.721,15.227s-.1-1.184-.229-3.035v-.029c.131-8.242.36-15.729.36-15.729l-.131-5.8c2.16,2.177,162.652,0,162.652,0Z"/>
      <path id="路径_11151" data-name="路径 11151" class="cls-6" d="M835.332,1594.723a16.989,16.989,0,0,1,.037,1.8A15.938,15.938,0,0,1,834.9,1600c-14.171-1.131-159.043-15.483-162.37-15.809a.294.294,0,0,0-.058-.008V1575.3H835.84l.014,1.167.036,4.385s-3.791,2.805-4.124,2.987c-.3.152,1.384,2.4,2.936,8.191.1.4.2.819.311,1.261S835.224,1594.23,835.332,1594.723Z"/>
      <path id="路径_11152" data-name="路径 11152" class="cls-7" d="M691.021,1535.21s.669,6.165-3.792,18.414,4.684,43.473,4.461,44.513c4.8-.64,58.215-1.681,71.821,1.2s57.211-3.683,57.211-3.683-8.029-6.723,1.561-31.062c4.015-10.969-1.672-29.383-1.672-29.383S752.247,1540.334,691.021,1535.21Z"/>
      <text id="快到_下午" data-name="快到
下午" class="cls-8" transform="translate(703.894 1562.472)"><tspan x="0" y="0">快到</tspan><tspan x="0" y="30.522">下午</tspan></text>
      <text id="_3:00" data-name="3:00" class="cls-9" transform="translate(756.832 1575.818)"><tspan x="0" y="0">3:00</tspan></text>
    </g>
    <g id="图层_1-2" data-name="图层 1-2">
      <path id="路径_11153" data-name="路径 11153" class="cls-10" d="M642.5,1581.117s-14.465,4-16.781,14.352c1.5,4,6.306,5.33,7.866,4.924l1.56-.406s1.975-5.38,5.153-6.022,5.688-4.226,5.688-4.624S642.5,1581.117,642.5,1581.117Z"/>
      <path id="路径_11154" data-name="路径 11154" class="cls-10" d="M670.367,1581.117s14.465,4,16.781,14.352c-1.5,4-6.306,5.33-7.866,4.924l-1.568-.406s-1.967-5.38-5.152-6.022-5.689-4.226-5.689-4.624S670.367,1581.117,670.367,1581.117Z"/>
      <path id="路径_11155" data-name="路径 11155" class="cls-10" d="M642.567,1580.061s-4.876,19.585-3.828,26.061,30.678,5.786,33.319,2.438-.975-27.524-1.5-28.532S647.89,1572.073,642.567,1580.061Z"/>
      <path id="路径_11156" data-name="路径 11156" class="cls-11" d="M625.721,1595.469s-1.625,4.136-.39,4.445a4.066,4.066,0,0,0,2.893-.464c.268-.227.235,2.625.812,3.048s2.511-1.04,2.706-1.39,1.463,1.626,1.853,1.739,1.626-2.348,1.52-2.86-2.682-.049-2.836-.049a8.111,8.111,0,0,0-3.413-1.414A19.629,19.629,0,0,0,625.721,1595.469Z"/>
      <path id="路径_11157" data-name="路径 11157" class="cls-11" d="M687.148,1595.469s1.626,4.136.391,4.445a4.065,4.065,0,0,1-2.893-.464c-.269-.227-.236,2.625-.813,3.048s-2.5-1.04-2.7-1.39-1.463,1.626-1.853,1.739-1.625-2.348-1.528-2.86,2.69-.057,2.845-.057a8.026,8.026,0,0,1,3.413-1.406A19.611,19.611,0,0,1,687.148,1595.469Z"/>
      <path id="路径_11158" data-name="路径 11158" class="cls-10" d="M642.242,1609.145a13.7,13.7,0,0,0-.943,4.925c.114,2.316-3.738.309-4.2,2.162s16.537,2.316,17.675,1.389,1.016-6.542,1.016-6.542S647.077,1604.213,642.242,1609.145Z"/>
      <path id="路径_11159" data-name="路径 11159" class="cls-10" d="M670,1609.145a13.7,13.7,0,0,1,.942,4.925c-.113,2.316,3.739.309,4.2,2.162s-16.538,2.316-17.675,1.389-1.032-6.542-1.032-6.542S665.166,1604.213,670,1609.145Z"/>
      <path id="路径_11160" data-name="路径 11160" class="cls-11" d="M646.833,1583.588s-8.549,14.668-3.25,19.658,23.461,5.257,25.939,1.779-1.016-19.828-3.25-21.437S647.622,1582.133,646.833,1583.588Z"/>
      <path id="路径_11161" data-name="路径 11161" class="cls-12" d="M632.872,1558.485s-7.582,2.438-5.079-2.99c2.284-3.682,3.909-6.5.39-5.323s-8.809,2.17-7.655-4.063c.553-1.382,4.876-4.372,4.5-5.884s-.227-.991-5.493-1.251-9-7.03-4.795-10.516c.918-.2,2.974,1.1,4.608-2.438s.365-16.635.365-16.635-1.04-8.232,2.682-7.793c1.317,1.585,1.536,3.2,2.349,3.161s5.022,1.227,5.615-2.909,4.144-7.086,4.8-6.688,2.885,4.534,3.941,2.495c.447-2.536,2.617-16.3,8.338-13.344,1.121,1.382.723,2.633.625,3.649s1.187,3.356,1.577,2.2,3.056-16.992,7.606-17.455,4.933,1.349,5.851,2.438,4.112,13.936,4.307,14.725,1.154,1.243,1.577-.529a9.861,9.861,0,0,0-.358-4.77c-.235-.455,0-4.5,4.73-2.787a18.2,18.2,0,0,1,5.753,4.266c.2.041-1.251,10.719-1.154,11.377s.5,1.447,1.154.723,4.746-.479,4.478-3.023,3.771.26,4.12,2.365.244,9.337,2.544,8.744,3.486-2.5,3.486-3.486,1.967-1.975,3.153-.528,1.187,18.211,0,21.364c-.569,2.584,2.869,4.957,4.933,4.738s5.428,6.33-1.934,10.1c-3.413,1.227-7.184-.878-7.623,1.666.813,2.015,2.365,4.063,3.771,4.64s2.625,5.689-3.251,6.314a17.328,17.328,0,0,1-4.656-.91c-.277,0-.935-.309-.626.918s3.153,4.429,3.023,6.055-.479,3.25-3.86,2.535a34.124,34.124,0,0,1-6.192-1.975c-.845-.325-9.411-10.71-9.411-10.71l-25.939-.7S636.407,1557.965,632.872,1558.485Z"/>
      <path id="路径_11162" data-name="路径 11162" class="cls-10" d="M630.434,1513.952s-13.937-7.492-22.608-6.436c0,1.707,1.089,19.455,18.537,19.8,2.974-.528,8.76-7.89,8.321-9.467S630.434,1513.952,630.434,1513.952Z"/>
      <path id="路径_11163" data-name="路径 11163" class="cls-10" d="M682.134,1513.952s13.937-7.492,22.616-6.436c0,1.707-1.1,19.455-18.536,19.8-2.982-.528-8.768-7.89-8.33-9.467S682.134,1513.952,682.134,1513.952Z"/>
      <path id="路径_11164" data-name="路径 11164" class="cls-13" d="M686.645,1515.635s7.078-3.812,11.49-3.251c0,.869-.56,9.882-9.418,10.06-1.512-.268-4.453-4.006-4.226-4.8S686.645,1515.635,686.645,1515.635Z"/>
      <path id="路径_11165" data-name="路径 11165" class="cls-13" d="M625.908,1515.635s-7.078-3.812-11.483-3.251c0,.869.553,9.882,9.41,10.06,1.512-.268,4.454-4.006,4.234-4.8S625.908,1515.635,625.908,1515.635Z"/>
      <path id="路径_11166" data-name="路径 11166" class="cls-10" d="M631.71,1514.814s.244-6.6,10.41-10.37,25.5-4.209,36.9,3.942c0,0,1.853,1.227,3.112,5.566a16.821,16.821,0,0,1,.61,2.893s8.549,4.844,4.144,8.094c-1.186.984-7.037-.723-7.037-.723s-2.926-1.577-1.991,26.427c0,0,2.438,8.346,5.412,11.572s7.054,13.669-7.143,18.927-33.4,4.063-43.736-2.8-.683-17.878-.683-17.878,4.014-5.965,3.925-10.873-2.763-24.648-4.12-24.721-5.087,3.592-6.574-.609,5.607-7.363,6.5-7.72S631.71,1514.814,631.71,1514.814Z"/>
      <path id="路径_11167" data-name="路径 11167" class="cls-14" d="M631.71,1514.814s-14.571-7.038-6.152-37.008c4.291-17.447,9.11-17.447,10.687-16.919s2.8,1.926,2.437,5.867-4.558,13.815-4.558,14.286-.959,4.738-.959,5.177,5.6-6.973,9.2-4.648-1.821,9.54-1.821,9.54a19.553,19.553,0,0,1-5.014,5.274c-2.714,1.666-3.73,3.535-2.267,8.061s2.048,6.4,2.048,6.4S635.757,1515.017,631.71,1514.814Z"/>
      <path id="路径_11168" data-name="路径 11168" class="cls-14" d="M680.948,1514.814s14.563-7.038,6.152-37.016c-4.291-17.439-9.118-17.439-10.695-16.911s-2.8,1.926-2.438,5.867,4.559,13.815,4.559,14.286.967,4.738.967,5.177-5.615-6.973-9.239-4.648,1.828,9.54,1.828,9.54a19.429,19.429,0,0,0,5.014,5.274c2.722,1.666,3.722,3.535,2.267,8.061s-2.007,6.4-2.007,6.4S676.9,1515.017,680.948,1514.814Z"/>
      <circle id="椭圆_2007" data-name="椭圆 2007" class="cls-13" cx="3.592" cy="3.592" r="3.592" transform="translate(638.528 1566.677)"/>
      <circle id="椭圆_2008" data-name="椭圆 2008" class="cls-13" cx="3.592" cy="3.592" r="3.592" transform="translate(668.23 1566.677)"/>
      <path id="路径_11169" data-name="路径 11169" class="cls-15" d="M647.711,1561.151s8.728-4.405,17.545.357"/>
      <path id="路径_11170" data-name="路径 11170" class="cls-15" d="M648.889,1557.014a16.38,16.38,0,0,1,14.985,0"/>
      <path id="路径_11171" data-name="路径 11171" class="cls-15" d="M647.711,1516.764s8.736-4.4,17.545.325"/>
      <path id="路径_11172" data-name="路径 11172" class="cls-15" d="M648.889,1512.62a16.377,16.377,0,0,1,14.985,0"/>
      <path id="路径_11173" data-name="路径 11173" class="cls-15" d="M650.076,1553.333s6.5-3.949,12.555,0"/>
      <g id="组_3980" data-name="组 3980">
        <path id="路径_11174" data-name="路径 11174" class="cls-13" d="M606.327,1580.937a11.556,11.556,0,0,1-7.025-2.237c-2.829-2.187-3.88-5.665-2.959-9.792a1.1,1.1,0,0,1,2.147.479c-.735,3.3.011,5.913,2.158,7.573a9.766,9.766,0,0,0,9.545.96c2.574-1.319,3.4-4.825,4.125-7.919.495-2.1.962-4.092,1.966-5.332a1.053,1.053,0,0,1,.139-.144c4.211-3.608,8.069-4.93,11.462-3.927,5.22,1.54,7.187,7.987,7.269,8.261a1.1,1.1,0,0,1-2.109.627c-.017-.055-1.719-5.587-5.791-6.781-2.612-.765-5.747.385-9.316,3.42a13.7,13.7,0,0,0-1.478,4.38c-.8,3.382-1.784,7.59-5.264,9.372A10.889,10.889,0,0,1,606.327,1580.937Z"/>
      </g>
      <g id="组_3981" data-name="组 3981">
        <path id="路径_11175" data-name="路径 11175" class="cls-16" d="M706.226,1580.939a10.784,10.784,0,0,1-4.858-1.064c-3.439-1.779-4.439-5.979-5.242-9.353a13.865,13.865,0,0,0-1.495-4.4c-3.569-3.036-6.7-4.186-9.317-3.42-4.072,1.194-5.773,6.726-5.791,6.781a1.1,1.1,0,0,1-2.108-.627c.081-.274,2.049-6.721,7.269-8.261,3.4-1,7.252.319,11.462,3.927a1.053,1.053,0,0,1,.139.144c1,1.241,1.479,3.234,1.981,5.344.736,3.09,1.57,6.591,4.114,7.909a9.869,9.869,0,0,0,9.523-.96c2.158-1.662,2.91-4.281,2.176-7.575a1.1,1.1,0,0,1,2.147-.479c.92,4.129-.138,7.608-2.981,9.8A11.575,11.575,0,0,1,706.226,1580.939Z"/>
      </g>
      <circle id="椭圆_2009" data-name="椭圆 2009" class="cls-7" cx="12.71" cy="12.71" r="12.71" transform="translate(658.665 1521.729)"/>
      <circle id="椭圆_2010" data-name="椭圆 2010" class="cls-17" cx="9.882" cy="9.882" r="9.882" transform="translate(660.469 1527.337)"/>
      <circle id="椭圆_2011" data-name="椭圆 2011" class="cls-18" cx="3.917" cy="3.917" r="3.917" transform="translate(672.87 1530.717)"/>
      <circle id="椭圆_2012" data-name="椭圆 2012" class="cls-7" cx="12.71" cy="12.71" r="12.71" transform="translate(628.784 1521.729)"/>
      <circle id="椭圆_2013" data-name="椭圆 2013" class="cls-17" cx="9.882" cy="9.882" r="9.882" transform="translate(632.636 1527.337)"/>
      <circle id="椭圆_2014" data-name="椭圆 2014" class="cls-18" cx="3.917" cy="3.917" r="3.917" transform="translate(632.165 1530.717)"/>
    </g>
  </g>
</svg>
