<svg xmlns="http://www.w3.org/2000/svg" width="256.916" height="134.113" viewBox="0 0 256.916 134.113">
  <defs>
    <style>
      .cls-1 {
        fill: #679d2f;
      }

      .cls-2 {
        fill: #578e20;
      }

      .cls-3 {
        fill: #ca8f3f;
      }

      .cls-4 {
        fill: #eaad59;
      }

      .cls-5 {
        fill: #e19a3b;
      }

      .cls-6 {
        fill: #fff;
      }

      .cls-7, .cls-8 {
        fill: #7d4921;
        font-size: 25.435px;
        font-weight: 700;
      }

      .cls-7 {
        font-family: MicrosoftYaHei-Bold, Microsoft YaHei;
      }

      .cls-8 {
        font-family: TimesNewRomanPS-BoldMT, Times New Roman;
      }

      .cls-9 {
        fill: #b6b9c7;
      }

      .cls-10 {
        fill: #ece7e6;
      }

      .cls-11 {
        fill: #9aaab5;
      }

      .cls-12 {
        fill: #fec1c3;
      }

      .cls-13 {
        fill: #f8696c;
      }

      .cls-14 {
        fill: none;
        stroke: #f8696c;
        stroke-linecap: round;
        stroke-linejoin: round;
        stroke-width: 2.2px;
      }

      .cls-15 {
        fill: #2b71b0;
      }

      .cls-16 {
        fill: #e7ffff;
      }

      .cls-17 {
        fill: #9ea1af;
      }

      .cls-18 {
        fill: #fcb2a9;
      }
    </style>
  </defs>
  <g id="组_3944" data-name="组 3944" transform="translate(-9.828 -1265.974)">
    <g id="组_3942" data-name="组 3942">
      <path id="路径_10883" data-name="路径 10883" class="cls-1" d="M244.214,1303.768s5.06-14.01,15.218-18.631c6.3,7.4,10.738,26.234,3.793,34.028S244.214,1303.768,244.214,1303.768Z"/>
      <rect id="矩形_1368" data-name="矩形 1368" class="cls-2" width="2.457" height="15.472" rx="1.229" transform="translate(256.767 1296.716) rotate(7.543)"/>
      <path id="路径_10884" data-name="路径 10884" class="cls-3" d="M245.284,1302.92s16.723-1.615,21.239,12.871c.335,9.657,0,54.082,0,54.082l-3.178.965s3.978,16.418,3.327,18.074-3.494,11.175-15.037,11.175H111.451S97.2,1397.328,97.2,1389.464,245.284,1302.92,245.284,1302.92Z"/>
      <path id="路径_10885" data-name="路径 10885" class="cls-4" d="M260.056,1378.05a16.986,16.986,0,0,1,.036,1.8,15.94,15.94,0,0,1-.471,3.472c-2.443,9.525-13.389,11.388-13.389,11.388H106.63c-5.2,0-9.416-3.407-9.43-7.618-.008-5.451-.008-12.968.05-19.579.022-2.776.058-5.393.109-7.626v-.094c.007-.406.022-.79.029-1.167.073-2.682.16-4.668.29-5.465-.522-1.7-.5-9.685-.362-16.948v-.029c.13-6.669.362-12.736.362-12.736l-.13-4.7-.029-1.138c-.182-6.386,6-11.7,13.881-11.946,26.74-.812,83.062-2.493,96.132-2.631,14.83,5.241,14.381-.449,14.381-.449l26.277.311c6.6.08,11.9,4.407,11.953,9.75l.058,6.1.065,7.589.3,32.286.015,1.167.036,4.386s-3.791,2.805-4.125,2.986c-.3.152,1.385,2.4,2.936,8.191.1.4.2.819.312,1.261s.217.9.319,1.378Z"/>
      <path id="路径_10886" data-name="路径 10886" class="cls-5" d="M260.266,1331.919,97.545,1347.145s-.1-1.183-.229-3.035v-.029c.132-8.241.36-15.729.36-15.729l-.131-5.8c2.16,2.178,162.653,0,162.653,0Z"/>
      <path id="路径_10887" data-name="路径 10887" class="cls-5" d="M260.056,1378.05a16.986,16.986,0,0,1,.036,1.8,15.94,15.94,0,0,1-.471,3.472c-14.171-1.131-159.043-15.483-162.371-15.809a.339.339,0,0,0-.058-.007v-8.88H260.563l.015,1.167.036,4.386s-3.791,2.805-4.125,2.986c-.3.152,1.385,2.4,2.936,8.191.1.4.2.819.312,1.261C259.845,1377.079,259.947,1377.557,260.056,1378.05Z"/>
      <path id="路径_10888" data-name="路径 10888" class="cls-6" d="M115.744,1318.538s.67,6.164-3.791,18.414,4.684,43.472,4.461,44.513c4.795-.641,58.215-1.682,71.82,1.2s57.211-3.683,57.211-3.683-8.029-6.724,1.562-31.063c4.015-10.968-1.673-29.382-1.673-29.382S176.97,1323.662,115.744,1318.538Z"/>
      <text id="下午" class="cls-7" transform="translate(128.617 1359.145)"><tspan x="0" y="0">下午</tspan></text>
      <text id="_1:30" data-name="1:30" class="cls-8" transform="translate(181.556 1359.145)"><tspan x="0" y="0">1:30</tspan></text>
    </g>
    <g id="组_3943" data-name="组 3943">
      <path id="路径_10889" data-name="路径 10889" class="cls-9" d="M70.781,1364.586s-3.494,8-5.18,10.858-3.372,5.453-2.95,6.881,2.9,3.9,4.032,2.6,5.45-10.257,5.766-10.776-1.475,11.3,0,14.152,15.8,5.973,20.334,3.116,6.216-3.635,6.533-7.271,0-12.984,0-12.984,3.792,10.647,5.373,11.426,4.53-1.558,4.109-3.246-7.9-14.537-7.9-14.537S91.766,1350.741,70.781,1364.586Z"/>
      <path id="路径_10890" data-name="路径 10890" class="cls-9" d="M73.359,1389.226s.987,2.058-1.121,4.785-2.212,5.323,0,5.843,8.534.259,9.061-1.688.422-8.94.422-8.94Z"/>
      <path id="路径_10891" data-name="路径 10891" class="cls-9" d="M96.514,1389.226s-.987,2.058,1.12,4.785,2.213,5.323,0,5.843-8.534.259-9.061-1.688-.421-8.94-.421-8.94Z"/>
      <ellipse id="椭圆_1903" data-name="椭圆 1903" class="cls-10" cx="9.511" cy="11.721" rx="9.511" ry="11.721" transform="translate(76.342 1361.84)"/>
      <path id="路径_10892" data-name="路径 10892" class="cls-11" d="M99.316,1384.143s.921,4.122,4.635,2.175a6.1,6.1,0,0,1,8.534,2.908,8.758,8.758,0,0,1,1.107,4.493,3.2,3.2,0,0,1-1.66-1.753c-.711-1.461-2.844-5.284-6.558-2.74s-7.142-.411-7.364-1.562S99.316,1384.143,99.316,1384.143Z"/>
      <circle id="椭圆_1904" data-name="椭圆 1904" class="cls-9" cx="28.003" cy="28.003" r="28.003" transform="translate(9.828 1265.974)"/>
      <circle id="椭圆_1905" data-name="椭圆 1905" class="cls-12" cx="21.895" cy="21.895" r="21.895" transform="translate(15.936 1272.082)"/>
      <circle id="椭圆_1906" data-name="椭圆 1906" class="cls-9" cx="28.003" cy="28.003" r="28.003" transform="translate(100.164 1265.974)"/>
      <circle id="椭圆_1907" data-name="椭圆 1907" class="cls-12" cx="21.895" cy="21.895" r="21.895" transform="translate(106.272 1272.082)"/>
      <path id="路径_10893" data-name="路径 10893" class="cls-9" d="M87.844,1278.305s-3.918,5.992,0,8.758c2.766-.384,18.208,1.613,27.657,13.6s9.68,20.282,9.45,21.665-1.979,6.684.047,11.754,7.714,20.633-9.036,27.427c-20.856,8.459-67.323,6.705-74.122-6.548s-.322-22.262.37-23.645S38.6,1306.5,59.38,1293.747a85.086,85.086,0,0,1,14.482-6.454s-1.287-4.667.9-6.568l2.075-1.095s.057,4.033.864,4.84S78.913,1276.807,87.844,1278.305Z"/>
      <path id="路径_10894" data-name="路径 10894" class="cls-13" d="M76.32,1339.381s-.691-4.149,6.914-3.688,8.3.116,8.528,2.651-4.149,9.565-6.453,10.025S78.74,1348.485,76.32,1339.381Z"/>
      <line id="直线_143" data-name="直线 143" class="cls-14" x2="0.073" y2="7.001" transform="translate(83.42 1348.486)"/>
      <path id="路径_10895" data-name="路径 10895" class="cls-10" d="M80.3,1354.713l-.239,5.007s1.959.461,2.708,0,.846-4.379.846-4.379.537,4.328,1.056,4.584,2.535.32,2.65,0,0-5.212,0-5.212A20.085,20.085,0,0,1,80.3,1354.713Z"/>
      <path id="路径_10896" data-name="路径 10896" class="cls-14" d="M70.789,1350.521s10.6,9.987,27.119,0"/>
      <circle id="椭圆_1908" data-name="椭圆 1908" class="cls-6" cx="8.38" cy="8.38" r="8.38" transform="translate(98.282 1322.216)"/>
      <circle id="椭圆_1909" data-name="椭圆 1909" class="cls-15" cx="6.516" cy="6.516" r="6.516" transform="translate(99.228 1325.802)"/>
      <circle id="椭圆_1910" data-name="椭圆 1910" class="cls-16" cx="2.582" cy="2.582" r="2.582" transform="translate(107.599 1328.623)"/>
      <circle id="椭圆_1911" data-name="椭圆 1911" class="cls-6" cx="8.38" cy="8.38" r="8.38" transform="translate(54.61 1322.073)"/>
      <circle id="椭圆_1912" data-name="椭圆 1912" class="cls-15" cx="6.516" cy="6.516" r="6.516" transform="translate(57.392 1325.659)"/>
      <circle id="椭圆_1913" data-name="椭圆 1913" class="cls-16" cx="2.582" cy="2.582" r="2.582" transform="translate(56.138 1328.48)"/>
      <path id="路径_10897" data-name="路径 10897" class="cls-17" d="M102.08,1311.52s-2.825-2.548,1.789-2.676,8.107,2.6,8.334,4.59-2.405,1.522-3.609.77-3.309-1.725-4.328-1.631S102.08,1311.52,102.08,1311.52Z"/>
      <path id="路径_10898" data-name="路径 10898" class="cls-17" d="M65.032,1311.465s2.487-2.879-2.107-2.433-7.722,3.59-7.7,5.59,2.576,1.211,3.677.315,3.07-2.122,4.092-2.156S65.032,1311.465,65.032,1311.465Z"/>
      <path id="路径_10899" data-name="路径 10899" class="cls-18" d="M110.181,1351.987a13.4,13.4,0,0,0,4.486,10.007c.436-.161.879-.319,1.295-.487,12.978-5.264,12.485-15.79,10.663-22.623a13.416,13.416,0,0,0-16.444,13.1Z"/>
      <path id="路径_10900" data-name="路径 10900" class="cls-18" d="M57.391,1351.987a13.428,13.428,0,0,0-18.323-12.525c-.685,4-.417,9.282,2.772,15.5,1.6,3.124,5.426,5.6,10.58,7.463A13.417,13.417,0,0,0,57.391,1351.987Z"/>
    </g>
  </g>
</svg>
