<svg xmlns="http://www.w3.org/2000/svg" width="247.819" height="151.816" viewBox="0 0 247.819 151.816">
  <defs>
    <style>
      .cls-1 {
        fill: #679d2f;
      }

      .cls-2 {
        fill: #578e20;
      }

      .cls-3 {
        fill: #ca8f3f;
      }

      .cls-4 {
        fill: #eaad59;
      }

      .cls-5 {
        fill: #e19a3b;
      }

      .cls-6 {
        fill: #fff;
      }

      .cls-7, .cls-8 {
        fill: #7d4921;
        font-size: 25.435px;
        font-weight: 700;
      }

      .cls-7 {
        font-family: MicrosoftYaHei-Bold, Microsoft YaHei;
      }

      .cls-8 {
        font-family: TimesNewRomanPS-BoldMT, Times New Roman;
      }

      .cls-9 {
        fill: #efc56a;
      }

      .cls-10 {
        fill: #f5b01a;
      }

      .cls-11 {
        fill: #f0d5b7;
      }

      .cls-12 {
        fill: #ee7b1c;
      }

      .cls-13 {
        fill: #f6af1a;
      }

      .cls-14 {
        fill: #ef7a1a;
      }

      .cls-15 {
        fill: #805121;
      }

      .cls-16 {
        fill: none;
        stroke: #805121;
        stroke-linecap: round;
        stroke-linejoin: round;
        stroke-width: 2.2px;
      }

      .cls-17 {
        fill: #2b71b0;
      }

      .cls-18 {
        fill: #e7ffff;
      }

      .cls-19 {
        fill: #edd7b3;
      }

      .cls-20 {
        fill: #fcb2a9;
      }
    </style>
  </defs>
  <g id="组_3962" data-name="组 3962" transform="translate(-888.839 -1233.887)">
    <g id="组_3960" data-name="组 3960">
      <path id="路径_10993" data-name="路径 10993" class="cls-1" d="M1114.127,1288.488s5.061-14.009,15.218-18.63c6.3,7.4,10.739,26.234,3.794,34.028S1114.127,1288.488,1114.127,1288.488Z"/>
      <rect id="矩形_1374" data-name="矩形 1374" class="cls-2" width="2.457" height="15.472" rx="1.229" transform="translate(1126.68 1281.437) rotate(7.543)"/>
      <path id="路径_10994" data-name="路径 10994" class="cls-3" d="M1115.2,1287.641s16.723-1.616,21.24,12.871c.335,9.657,0,54.081,0,54.081l-3.178.966s3.977,16.418,3.327,18.073-3.5,11.175-15.037,11.175H981.365s-14.255-2.759-14.255-10.623S1115.2,1287.641,1115.2,1287.641Z"/>
      <path id="路径_10995" data-name="路径 10995" class="cls-4" d="M1129.969,1362.771a17.007,17.007,0,0,1,.037,1.805,15.949,15.949,0,0,1-.472,3.472c-2.442,9.525-13.388,11.387-13.388,11.387h-139.6c-5.2,0-9.416-3.406-9.431-7.618-.007-5.451-.007-12.968.051-19.579.022-2.776.058-5.393.109-7.625v-.094c.007-.406.022-.791.029-1.167.072-2.682.159-4.669.29-5.466-.522-1.7-.5-9.684-.362-16.947v-.029c.13-6.669.362-12.736.362-12.736l-.131-4.7-.029-1.138c-.181-6.386,6-11.7,13.882-11.946,26.74-.812,83.062-2.494,96.131-2.631,14.831,5.24,14.382-.45,14.382-.45l26.276.312c6.6.08,11.9,4.407,11.953,9.749l.058,6.1.065,7.589.3,32.286.014,1.167.036,4.385s-3.791,2.8-4.124,2.986c-.3.153,1.384,2.4,2.936,8.191.1.4.2.82.311,1.262s.218.9.319,1.377Z"/>
      <path id="路径_10996" data-name="路径 10996" class="cls-5" d="M1130.18,1316.639l-162.721,15.226s-.1-1.183-.229-3.034v-.029c.132-8.242.36-15.729.36-15.729l-.131-5.8c2.16,2.178,162.652,0,162.652,0Z"/>
      <path id="路径_10997" data-name="路径 10997" class="cls-5" d="M1129.969,1362.771a17.007,17.007,0,0,1,.037,1.805,15.949,15.949,0,0,1-.472,3.472c-14.171-1.131-159.043-15.483-162.37-15.81a.334.334,0,0,0-.058-.007v-8.879h163.371l.014,1.167.036,4.385s-3.791,2.8-4.124,2.986c-.3.153,1.384,2.4,2.936,8.191.1.4.2.82.311,1.262S1129.861,1362.278,1129.969,1362.771Z"/>
      <path id="路径_10998" data-name="路径 10998" class="cls-6" d="M985.658,1303.258s.669,6.165-3.791,18.414,4.683,43.472,4.46,44.513c4.8-.64,58.215-1.681,71.821,1.2s57.211-3.683,57.211-3.683-8.029-6.723,1.561-31.062c4.015-10.969-1.672-29.383-1.672-29.383S1046.884,1308.382,985.658,1303.258Z"/>
      <text id="中午" class="cls-7" transform="translate(998.531 1343.865)"><tspan x="0" y="0">中午</tspan></text>
      <text id="_12:00" data-name="12:00" class="cls-8" transform="translate(1051.47 1343.865)"><tspan x="0" y="0">12:00</tspan></text>
    </g>
    <g id="组_3961" data-name="组 3961">
      <path id="路径_10999" data-name="路径 10999" class="cls-9" d="M966.506,1372.66s2.833-7.73,8.858-11.283,12.746.475,16.415-5.865,2.447.834,2.447.834-2.474,6.652-11.524,6.432-10.042,5.165-11.664,7.946-3.862,5.87-5.252,5.021S966.506,1372.66,966.506,1372.66Z"/>
      <path id="路径_11000" data-name="路径 11000" class="cls-9" d="M941.421,1367.978s-1.75,9.611.5,12.173c.58,1.22,1.082.328,1.113,2.07s2.536,4.127,5.767,2a4.412,4.412,0,0,0,1.785-6.007,3.2,3.2,0,0,0-2.04-1.16l-.082-4.439.089-3.4S944.328,1364.792,941.421,1367.978Z"/>
      <path id="路径_11001" data-name="路径 11001" class="cls-9" d="M962.1,1373.893s-1.9,8.82.837,10.864a4.426,4.426,0,0,0,7.035-2.449c.788-3.02,1.417-13.193,1.417-13.193l-.126-3.043-9.758,2.147Z"/>
      <path id="路径_11002" data-name="路径 11002" class="cls-10" d="M938.942,1338.45s-8.409,1.344-9.411,9.187c0,0-.906,2.831.73,4.284a4.69,4.69,0,0,0,5.188.366c.8-.669,2.317-7.509,3.756-7.486s2,.244,1,6.152-3.424,12.814,1.867,17.684,12.77,6.442,20.024,5.256,10.494-5.746,12.455-9.146-.538-12.985-1.071-15.173-1.331-5.419-1.331-5.419-.775-1.351,1.4-.888,12.03,1.279,13.618-5.965c.875-3.418,1.355-6.342-2.543-6.782a6.917,6.917,0,0,0-4.075,2.776c-1.619,2.335-4.238,4.546-8.039,3.6s-12.877-5.69-12.877-5.69l-16.872-.629Z"/>
      <circle id="椭圆_1956" data-name="椭圆 1956" class="cls-11" cx="12.24" cy="12.24" r="12.24" transform="translate(944.683 1343.03)"/>
      <path id="路径_11003" data-name="路径 11003" class="cls-12" d="M943.2,1248.758s.382-12.566,8.49-14.847c2.5-.342,3.211,2.951.808,13.572,1.139,1.482,3.976-10.661,10.513-10.329s.4,9.768.064,10.283,10.224-1.207,24.451,5.886,20.1,21.8,20.433,24.214c0,0,5.862-5.013,9.792-4.5s-4.276,11.463-6.518,13.875,2.27.352,2.27.352,6.5-2.334,6.963,3.022-4.943,9.721-11.351,9.9c-.613,1.215-2.793,14.885-16.756,23.933-5.287,3.805-6.675,3.917-6.976,6.843s-.2,10.748-5.246,7.23c-1.906-1.961-1.935-5.583-1.935-5.583s-1.1,9.624-5.132,10.333c-2.6.357-4.374-2.831-4.374-2.831s.069,10.672-9,10.511-9.417-7.909-9.417-7.909-4.2,8.567-9.23,3.41c-3.2-3.713-3.137-5.827-3.137-5.827s-1.6,3.67-3.217,3.833-5.242-3.258-6.064-10.1c-2.883-.131-15.3-2.872-22.881-13.352-1.7-.059-1.887,3.3-6.328,3.323s-5.114-4.035-3.295-6.975.209-1.178-1.16-1.5-5.761-2.212-3.024-5.277,4.51-2.646,4.51-2.646.379-.364-3.356-1.45-6.462-6.755-1.8-7.706a36.887,36.887,0,0,1,6.772-.929,51.275,51.275,0,0,1,23.156-40.949C928.251,1251.451,943.2,1248.758,943.2,1248.758Z"/>
      <path id="路径_11004" data-name="路径 11004" class="cls-13" d="M921.692,1285.506s-10.4-9.334-3.711-15.981,12.674-2.245,15.059.937l2.385,3.181s14.521-10.1,36.889-1.627c0,0,4.709-11.717,14.606-7.772s3.56,15.729-1.2,19.111c-.407.445,8.228,15.089,4.149,27.421-1.961,1.048-69.921,1.244-69.921,1.244A25.146,25.146,0,0,1,921.692,1285.506Z"/>
      <path id="路径_11005" data-name="路径 11005" class="cls-11" d="M989.869,1310.776c-7.5-7.362-19.479-10.894-33.306-11.118-15.28-.248-29.045,3.916-36.615,12.362a52.486,52.486,0,0,0,30.389,13.826C967.18,1327.335,982.211,1320.268,989.869,1310.776Z"/>
      <path id="路径_11006" data-name="路径 11006" class="cls-14" d="M948.622,1299.94s.339-12.871,9.222-11.2c4.656,1.544,5.323,11.3,5.323,11.3a4.066,4.066,0,0,1-1.076,2.621C961.1,1303.414,947.706,1305.143,948.622,1299.94Z"/>
      <path id="路径_11007" data-name="路径 11007" class="cls-15" d="M947.5,1301.459a3.292,3.292,0,0,0,1.789,4.354c3.041,1.3,14.3,1.7,14.485-1.6s-2.638-5.1-4.023-5.53a28.315,28.315,0,0,0-8.826-.115A5.718,5.718,0,0,0,947.5,1301.459Z"/>
      <path id="路径_11008" data-name="路径 11008" class="cls-16" d="M937.12,1311.733s3.884,8.91,13.748,5.23c4.852-2.328,3.959-6.113,3.959-6.113"/>
      <path id="路径_11009" data-name="路径 11009" class="cls-16" d="M972.693,1311.084s-3.071,9.222-13.224,6.44c-5.042-1.884-4.491-5.734-4.491-5.734"/>
      <circle id="椭圆_1957" data-name="椭圆 1957" class="cls-6" cx="7.124" cy="7.124" r="7.124" transform="translate(965.589 1285.849)"/>
      <circle id="椭圆_1958" data-name="椭圆 1958" class="cls-17" cx="5.538" cy="5.538" r="5.538" transform="translate(966.6 1288.99)"/>
      <circle id="椭圆_1959" data-name="椭圆 1959" class="cls-18" cx="2.195" cy="2.195" r="2.195" transform="translate(973.552 1290.884)"/>
      <circle id="椭圆_1960" data-name="椭圆 1960" class="cls-6" cx="7.124" cy="7.124" r="7.124" transform="translate(932.331 1285.748)"/>
      <circle id="椭圆_1961" data-name="椭圆 1961" class="cls-17" cx="5.538" cy="5.538" r="5.538" transform="translate(933.341 1288.889)"/>
      <circle id="椭圆_1962" data-name="椭圆 1962" class="cls-18" cx="2.195" cy="2.195" r="2.195" transform="translate(940.293 1290.783)"/>
      <path id="路径_11010" data-name="路径 11010" class="cls-14" d="M970.467,1281s-2.4-2.166,1.52-2.275,6.891,2.213,7.084,3.9-2.045,1.294-3.068.654a8.413,8.413,0,0,0-3.679-1.386C971.458,1281.977,970.467,1281,970.467,1281Z"/>
      <path id="路径_11011" data-name="路径 11011" class="cls-14" d="M938.974,1280.955s2.114-2.447-1.791-2.068-6.563,3.052-6.545,4.752,2.19,1.029,3.126.268a8.417,8.417,0,0,1,3.478-1.833C938.111,1282.046,938.974,1280.955,938.974,1280.955Z"/>
      <path id="路径_11012" data-name="路径 11012" class="cls-19" d="M924.641,1280.852s6.217-6.115,6.48-6.19-1.044-5.626-5.033-5.43-6.486,3.306-5.832,5.516S922.983,1280.417,924.641,1280.852Z"/>
      <path id="路径_11013" data-name="路径 11013" class="cls-19" d="M984.615,1278.8s-7.168-4.967-7.44-5,.071-5.722,4.034-6.208,6.955,2.153,6.687,4.442S986.175,1278.088,984.615,1278.8Z"/>
      <path id="路径_11014" data-name="路径 11014" class="cls-12" d="M990.693,1345.582s-4.49,5.163.46,9.005,7.755-1.263,8.386-4.173-.409-9.208-5.318-10.454c-2.545-.161-.55,1.423-.647,1.91S993.815,1343.574,990.693,1345.582Z"/>
      <path id="路径_11015" data-name="路径 11015" class="cls-20" d="M989.372,1311.348a7.549,7.549,0,0,0-1.218-2.113,31.378,31.378,0,0,0-2.92-2.173,7.544,7.544,0,0,0-7.127,13.215A38.949,38.949,0,0,0,989.372,1311.348Z"/>
      <path id="路径_11016" data-name="路径 11016" class="cls-20" d="M929.027,1306.48a7.538,7.538,0,0,0-7.512,6.943,53.607,53.607,0,0,0,11.018,7.276,7.541,7.541,0,0,0-3.506-14.219Z"/>
    </g>
  </g>
</svg>
