<svg xmlns="http://www.w3.org/2000/svg" width="152.149" height="160.884" viewBox="0 0 152.149 160.884">
  <defs>
    <style>
      .cls-1 {
        fill: #e377fe;
      }

      .cls-2 {
        fill: #aa6ce2;
      }

      .cls-3 {
        fill: #ebddf3;
      }

      .cls-4 {
        fill: #dbcce9;
      }

      .cls-5 {
        fill: #c4a9e7;
      }

      .cls-6 {
        fill: #9f81ca;
      }

      .cls-7 {
        fill: #ded5ef;
      }

      .cls-8 {
        fill: #af9ae3;
      }

      .cls-9 {
        fill: #dfd4f0;
      }

      .cls-10 {
        fill: #ffb7d4;
      }

      .cls-11 {
        fill: #fd75cd;
      }

      .cls-12 {
        fill: #fe79c4;
      }

      .cls-13 {
        fill: #ffb5e2;
      }

      .cls-14 {
        fill: #fe77d2;
      }

      .cls-15 {
        fill: #9a81cc;
      }

      .cls-16 {
        fill: #8169c9;
      }

      .cls-17 {
        fill: #fff;
      }

      .cls-18 {
        fill: #f078ff;
      }

      .cls-19 {
        fill: #fc7ad7;
      }

      .cls-20 {
        fill: #9a82c8;
      }

      .cls-21 {
        fill: #aa6a32;
      }

      .cls-22 {
        fill: #eeb896;
      }

      .cls-23 {
        fill: #ebb6a2;
      }

      .cls-24 {
        fill: #5fb2d6;
      }

      .cls-25 {
        fill: #f60;
      }

      .cls-26 {
        fill: #ff9b00;
      }

      .cls-27 {
        fill: #7d4921;
        font-size: 16.719px;
        font-family: TimesNewRomanPS-BoldMT, Times New Roman;
        font-weight: 700;
      }
    </style>
  </defs>
  <g id="组_6991" data-name="组 6991" transform="translate(-744 -914.555)">
    <g id="组_6958" data-name="组 6958" transform="translate(281.616 799)">
      <g id="图层_2" data-name="图层 2" transform="translate(0.085 3.781)">
        <g id="图层_1-2" data-name="图层 1-2">
          <path id="路径_14295" data-name="路径 14295" class="cls-1" d="M466.017,125.786s-7.065,3.832-1.718,8.329c2.291,2,7.064,2.831,7.637,3s4.965-7.329,4.965-7.329l19.094-1.665,10.693,2.5,3.055,3,3.819,2.331-1.91,2.165s8.975-.832,8.4-6.492c0,0-1.094-2.537-4.995-5.472a63.071,63.071,0,0,1-6.9-7.105c-.292-.382-7.143-9.482-21.386-6.761-2.234.381-8.628,2.547-14.422,8.588A24.632,24.632,0,0,1,466.017,125.786Z"/>
          <path id="路径_14296" data-name="路径 14296" class="cls-1" d="M511.652,138.111l1.91-2.165-3.819-2.331-3.055-3-10.693-2.5L476.9,129.784s-4.392,7.5-4.965,7.329-5.346-1-7.637-3c-5.347-4.5,1.718-8.329,1.718-8.329a24.611,24.611,0,0,0,6.336-4.915c5.8-6.043,12.187-8.209,14.431-8.592a25.971,25.971,0,0,1,7.922-.348,20.867,20.867,0,0,1,11.163,4.774,15.435,15.435,0,0,1,2.291,2.344c.132.172.909,1.1,2.009,2.309a56.087,56.087,0,0,0,4.544,4.5l.346.293c3.9,2.934,4.995,5.472,4.995,5.472C520.627,137.279,511.652,138.111,511.652,138.111Z"/>
          <path id="路径_14297" data-name="路径 14297" class="cls-2" d="M510.379,130.693a19.433,19.433,0,0,0-4-1.688,60.271,60.271,0,0,0-11.876-2.259,53.24,53.24,0,0,0-7.722-.219,45.555,45.555,0,0,0-13.7,2.812,22.855,22.855,0,0,0-2.656,1.2,12.049,12.049,0,0,0-2.628,1.746c-.847.847-1.038,1.806.287,2.975,2.316,2.041,8.751,3.018,8.751,3.018l23.295,1.383a34.586,34.586,0,0,0,11.512-1.555C518.245,135.2,513.888,132.1,510.379,130.693Z"/>
          <path id="路径_14298" data-name="路径 14298" class="cls-3" d="M476.838,138.283s1.56-6.526,4.485-7.59,10.677-3.055,20.622.978c2.388,1.233,2.73,2.19,3.584,5.379s4.785,21.778,3.486,25.131-11.964,8.327-29.382,4.642c-4.42-1.134-7.378-3.345-7.256-4.981S475.064,142.994,476.838,138.283Z"/>
          <path id="路径_14299" data-name="路径 14299" class="cls-4" d="M495.552,129.775s4.945,1.64,7.418,9.875S505.4,165.2,501.62,166.8c1.362-.433,7.565-1.871,7.638-5.9s-3.206-26.57-4.888-27.2C503.132,132.383,503.734,131.491,495.552,129.775Z"/>
          <path id="路径_14300" data-name="路径 14300" class="cls-5" d="M479.633,166.823s-2.469-18.993,9.816-18.88,10.3,8.109,11.039,19.165C497.332,167.719,492.31,169.262,479.633,166.823Z"/>
          <path id="路径_14301" data-name="路径 14301" class="cls-6" d="M491.895,147.943s-7.79,1.121-8.959,6.946A76.455,76.455,0,0,0,481.7,167.2l-2.066-.381s-1.99-13.036,4.527-17.311C485.906,147.943,488.514,147.823,491.895,147.943Z"/>
          <path id="路径_14302" data-name="路径 14302" class="cls-7" d="M480.511,144.2a1.154,1.154,0,0,0,.976,1.646c1.56.539,11.6,2.238,18.818-.191.844-.191,1.023-.695.941-1.162a1.971,1.971,0,0,0-.376-.833Z"/>
          <path id="路径_14303" data-name="路径 14303" class="cls-8" d="M483.145,137.653h6.337v-3.819A7.918,7.918,0,0,0,483.145,137.653Z"/>
          <path id="路径_14304" data-name="路径 14304" class="cls-8" d="M491.895,137.653v-3.819a9.028,9.028,0,0,1,6.111,3.819Z"/>
          <path id="路径_14305" data-name="路径 14305" class="cls-8" d="M491.895,142.946v-3.769l6.79-.107a4.32,4.32,0,0,1,.552,3.175C498.978,144.449,491.895,142.946,491.895,142.946Z"/>
          <path id="路径_14306" data-name="路径 14306" class="cls-8" d="M489.482,139.077h-6.964a7.359,7.359,0,0,0-.706,3.176c1.336.928,7.67.632,7.67.632Z"/>
          <path id="路径_14307" data-name="路径 14307" class="cls-9" d="M492.3,133.893v3.76h-.409v-3.819C492.033,133.847,492.169,133.867,492.3,133.893Z"/>
          <path id="路径_14308" data-name="路径 14308" class="cls-9" d="M482.23,139.763h7.256v-.686h-6.968A5.022,5.022,0,0,0,482.23,139.763Z"/>
          <path id="路径_14309" data-name="路径 14309" class="cls-9" d="M492.4,142.95v-3.187h6.648s-.256-.686-.364-.686l-6.79.107v3.77Z"/>
          <path id="路径_14310" data-name="路径 14310" class="cls-10" d="M475.885,117.692a4.845,4.845,0,0,0,.661,1.317c.339.363,1.682,4.081-1.366,5.335s-5.289.285-5.751-.8c.605-.471,2.925-2.661,2.925-2.661S474.856,118.456,475.885,117.692Z"/>
          <path id="路径_14311" data-name="路径 14311" class="cls-11" d="M473.084,129.339a22.855,22.855,0,0,0-2.656,1.2,12.049,12.049,0,0,0-2.628,1.746,2.922,2.922,0,0,1-1.563-2.515,3.244,3.244,0,0,1,3.437-3A3.335,3.335,0,0,1,473.084,129.339Z"/>
          <ellipse id="椭圆_2712" data-name="椭圆 2712" class="cls-12" cx="2.795" cy="2.438" rx="2.795" ry="2.438" transform="translate(482.201 117.354)"/>
          <path id="路径_14312" data-name="路径 14312" class="cls-13" d="M506.5,127.953a4.6,4.6,0,0,1-.121,1.052,60.271,60.271,0,0,0-11.876-2.259,5.972,5.972,0,0,1,5.919-4.09C503.782,122.656,506.5,125.028,506.5,127.953Z"/>
          <path id="路径_14313" data-name="路径 14313" class="cls-11" d="M505.869,116.7a6.621,6.621,0,0,1-5.11,2.278c-3.483,0-6.3-2.463-6.3-5.5a4.876,4.876,0,0,1,.248-1.543A20.863,20.863,0,0,1,505.869,116.7Z"/>
          <path id="路径_14314" data-name="路径 14314" class="cls-14" d="M514.713,125.851a3.7,3.7,0,0,1-2.433.878,3.23,3.23,0,0,1-3.437-3,2.886,2.886,0,0,1,1.337-2.376A56.125,56.125,0,0,0,514.713,125.851Z"/>
          <path id="路径_14315" data-name="路径 14315" class="cls-15" d="M485.852,150.438l.561-.4v17.8l-.561-.052Z"/>
          <path id="路径_14316" data-name="路径 14316" class="cls-15" d="M490.946,148l.439.036v20.085h-.491Z"/>
          <path id="路径_14317" data-name="路径 14317" class="cls-15" d="M492.864,148.243s-.539,8.867,3.3,9.4v10.2l.529-.042V149.728l-.46-.3-.025,2.592s-.317.158-.382-.373-.263-2.579-.263-2.579l-.371-.165s-.191,3.945.987,3.573c.048.265.061,2.222.061,2.222s-1.848.107-1.844-6.081l-.422-.124s-.306,6.223,2.165,6.578l.082.009-.03,2.074s-2.969.191-3.029-8.854Z"/>
          <path id="路径_14318" data-name="路径 14318" class="cls-15" d="M497.433,167.7s-.879-8.888.827-8.349c.5.085,1.581,2.241,2.148,6.421.049.894.076,1.337.076,1.337l-.256.049s-1.008-6.032-1.545-6.826c-.305-.556-.572-.8-.8.032a27.785,27.785,0,0,0-.03,7.268Z"/>
          <path id="路径_14319" data-name="路径 14319" class="cls-15" d="M499.915,167.222s-.987-6.337-1.783-5.218c-.21.269-.05,3.341.191,5.537l.393-.076s-.546-5-.218-4.724a30.435,30.435,0,0,1,1.081,4.546Z"/>
          <path id="路径_14320" data-name="路径 14320" class="cls-16" d="M510.258,126.729s2.049,4.05,1.91,4.8c-.392.1-6.11,2.242-6.924,3.2.415,0,7.938-1.89,8.32-2.291S511.866,127.7,510.258,126.729Z"/>
          <path id="路径_14321" data-name="路径 14321" class="cls-16" d="M471.625,129.954l1.115-.473s3.437,2.806,4.27,4.487C476.57,133.712,471.808,129.87,471.625,129.954Z"/>
          <path id="路径_14322" data-name="路径 14322" class="cls-16" d="M468.6,131.906s-1.1.868.19,1.178,7.483,2.28,8.211,2.656a6.738,6.738,0,0,0-1.293-1.22C475.425,134.3,470.453,129.99,468.6,131.906Z"/>
          <path id="路径_14323" data-name="路径 14323" class="cls-17" d="M481.394,142.386s-.942,1.5-.877,1.814,11.669,2.156,17.185.711c2.99-.653,3.282-1.035,3.17-1.249a17.69,17.69,0,0,0-1.642-1.417s-3.348,1.587-17.42,0C481.649,142.245,481.491,142.22,481.394,142.386Z"/>
          <ellipse id="椭圆_2713" data-name="椭圆 2713" class="cls-18" cx="2.079" cy="1.814" rx="2.079" ry="1.814" transform="translate(481.292 156.888)"/>
          <path id="路径_14324" data-name="路径 14324" class="cls-19" d="M481.291,158.7a1.544,1.544,0,0,0,.08.491,2.3,2.3,0,0,0,1.119.287,1.965,1.965,0,0,0,2.081-1.814,1.6,1.6,0,0,0-.08-.491,2.3,2.3,0,0,0-1.119-.288A1.962,1.962,0,0,0,481.291,158.7Z"/>
          <path id="路径_14325" data-name="路径 14325" class="cls-20" d="M489.482,133.825v.572s-2.933-.181-5.8,3.256h-.544S484.6,134.321,489.482,133.825Z"/>
          <path id="路径_14326" data-name="路径 14326" class="cls-20" d="M482.23,139.763h.573a7.737,7.737,0,0,0-.434,2.545l-.572-.063A8.935,8.935,0,0,1,482.23,139.763Z"/>
        </g>
      </g>
      <g id="组_5180" data-name="组 5180" transform="translate(0.085 3.781)">
        <path id="路径_14327" data-name="路径 14327" class="cls-21" d="M545.241,134.243a69.207,69.207,0,1,0,69.207,69.208,69.209,69.209,0,0,0-69.207-69.208Zm0,123.259a54.052,54.052,0,1,1,54.051-54.051A54.052,54.052,0,0,1,545.241,257.5Z"/>
        <path id="路径_14328" data-name="路径 14328" class="cls-22" d="M545.241,137.169a66.281,66.281,0,1,0,66.281,66.282,66.283,66.283,0,0,0-66.281-66.282Zm0,118.048a51.766,51.766,0,1,1,51.766-51.766A51.766,51.766,0,0,1,545.241,255.217Z"/>
        <path id="路径_14329" data-name="路径 14329" class="cls-17" d="M487.3,203.451a57.939,57.939,0,0,0,115.877.016v-.016a57.939,57.939,0,1,0-115.877-.017Z"/>
        <path id="路径_14330" data-name="路径 14330" class="cls-23" d="M543.163,137.169h4.157v13.8h-4.157Zm0,118.765h4.157v13.8h-4.157Z"/>
        <path id="路径_14331" data-name="路径 14331" class="cls-23" d="M513.77,145.5l6.945,12.031-3.621,2.092-6.947-12.03Zm59.315,102.648,6.946,12.029-3.624,2.092-6.945-12.03Z"/>
        <path id="路径_14332" data-name="路径 14332" class="cls-23" d="M488.842,168.646l12.029,6.945-2.091,3.624-12.03-6.946Zm102.8,59.4,12.031,6.945-2.093,3.624-12.03-6.946Z"/>
        <path id="路径_14333" data-name="路径 14333" class="cls-23" d="M478.959,201.372h13.8v4.157h-13.8Zm118.763,0h13.8v4.157h-13.8Z"/>
        <path id="路径_14334" data-name="路径 14334" class="cls-23" d="M498.747,227.9l2.079,3.6-11.953,6.9-2.078-3.6Zm102.861-59.38,2.079,3.6-11.953,6.9-2.078-3.6Z"/>
        <path id="路径_14335" data-name="路径 14335" class="cls-23" d="M517.194,247.857l3.6,2.078-6.9,11.952-3.6-2.079ZM576.573,145.01l3.6,2.078-6.9,11.952-3.6-2.079Z"/>
        <path id="路径_14336" data-name="路径 14336" class="cls-24" d="M541.031,203.451a4.21,4.21,0,1,0,4.21-4.21A4.21,4.21,0,0,0,541.031,203.451Z"/>
        <path id="路径_14337" data-name="路径 14337" class="cls-17" d="M543.494,203.451a1.746,1.746,0,1,0,3.493,0h0a1.746,1.746,0,1,0-3.493,0Z"/>
        <path id="路径_14338" data-name="路径 14338" class="cls-25" d="M555.91,191.068a24.507,24.507,0,0,0-6.2,7.5,23.25,23.25,0,0,0,14.92-11.8,24.485,24.485,0,0,0-8.722,4.3Z"/>
        <path id="路径_14339" data-name="路径 14339" class="cls-26" d="M547.869,225.705a60.53,60.53,0,0,0-2.372-15.912,59.225,59.225,0,0,0,.374,31.876A60.556,60.556,0,0,0,547.869,225.705Z"/>
        <text id="_1" data-name="1" class="cls-27" transform="translate(566.305 171.58)"><tspan x="0" y="0">1</tspan></text>
        <text id="_5" data-name="5" class="cls-27" transform="translate(563.37 246.197)"><tspan x="0" y="0">5</tspan></text>
        <text id="_2" data-name="2" class="cls-27" transform="translate(581.595 186.993)"><tspan x="0" y="0">2</tspan></text>
        <text id="_12" data-name="12" class="cls-27" transform="translate(536.995 165.097)"><tspan x="0" y="0">12</tspan></text>
        <text id="_6" data-name="6" class="cls-27" transform="translate(541.031 252.435)"><tspan x="0" y="0">6</tspan></text>
        <text id="_11" data-name="11" class="cls-27" transform="translate(514.732 171.58)"><tspan x="0" y="0">11</tspan></text>
        <text id="_7" data-name="7" class="cls-27" transform="translate(518.646 246.197)"><tspan x="0" y="0">7</tspan></text>
        <text id="_10" data-name="10" class="cls-27" transform="translate(498.708 186.993)"><tspan x="0" y="0">10</tspan></text>
        <text id="_8" data-name="8" class="cls-27" transform="translate(502.378 233.335)"><tspan x="0" y="0">8</tspan></text>
        <text id="_4" data-name="4" class="cls-27" transform="translate(581.595 233.335)"><tspan x="0" y="0">4</tspan></text>
        <text id="_9" data-name="9" class="cls-27" transform="translate(495.283 208.815)"><tspan x="0" y="0">9</tspan></text>
        <text id="_3" data-name="3" class="cls-27" transform="translate(586.169 208.815)"><tspan x="0" y="0">3</tspan></text>
      </g>
    </g>
  </g>
</svg>
