<svg xmlns="http://www.w3.org/2000/svg" width="149.082" height="160.884" viewBox="0 0 149.082 160.884">
  <defs>
    <style>
      .cls-1 {
        fill: #4ce0c5;
      }

      .cls-2 {
        fill: #4de3c7;
      }

      .cls-3 {
        fill: #41b778;
      }

      .cls-4 {
        fill: #b3d0c5;
      }

      .cls-5 {
        fill: #9ec2b0;
      }

      .cls-6 {
        fill: #7bbe90;
      }

      .cls-7 {
        fill: #509563;
      }

      .cls-8 {
        fill: #a9cab1;
      }

      .cls-9 {
        fill: #6cb971;
      }

      .cls-10 {
        fill: #a9ccb2;
      }

      .cls-11 {
        fill: #41b561;
      }

      .cls-12 {
        fill: #50985b;
      }

      .cls-13 {
        fill: #3b943e;
      }

      .cls-14 {
        fill: #fff;
      }

      .cls-15 {
        fill: #4de1d2;
      }

      .cls-16 {
        fill: #4faedc;
      }

      .cls-17 {
        fill: #51935c;
      }

      .cls-18 {
        fill: #aa6a32;
      }

      .cls-19 {
        fill: #eeb896;
      }

      .cls-20 {
        fill: #ebb6a2;
      }

      .cls-21 {
        fill: #5fb2d6;
      }

      .cls-22 {
        fill: #f60;
      }

      .cls-23 {
        fill: #ff9b00;
      }

      .cls-24 {
        fill: #7d4921;
        font-size: 16.719px;
        font-family: TimesNewRomanPS-BoldMT, Times New Roman;
        font-weight: 700;
      }
    </style>
  </defs>
  <g id="组_6994" data-name="组 6994" transform="translate(-1432 -914.555)">
    <g id="组_6961" data-name="组 6961" transform="translate(349.892 799)">
      <g id="图层_2" data-name="图层 2" transform="translate(0.085 3.781)">
        <g id="图层_1-2" data-name="图层 1-2">
          <path id="路径_14430" data-name="路径 14430" class="cls-1" d="M1085.741,125.786s-7.065,3.832-1.718,8.329c2.291,2,7.065,2.831,7.637,3s4.965-7.329,4.965-7.329l19.094-1.665,10.693,2.5,3.055,3,3.819,2.331-1.91,2.165s8.975-.832,8.4-6.492c0,0-1.094-2.537-4.995-5.472a63.068,63.068,0,0,1-6.9-7.105c-.292-.382-7.143-9.482-21.386-6.761-2.234.381-8.628,2.547-14.421,8.588A24.646,24.646,0,0,1,1085.741,125.786Z"/>
          <path id="路径_14431" data-name="路径 14431" class="cls-2" d="M1131.376,138.111l1.91-2.165-3.819-2.331-3.055-3-10.693-2.5-19.094,1.665s-4.392,7.5-4.965,7.329-5.346-1-7.637-3c-5.347-4.5,1.718-8.329,1.718-8.329a24.592,24.592,0,0,0,6.336-4.915c5.795-6.043,12.187-8.209,14.431-8.592a25.971,25.971,0,0,1,7.922-.348,20.867,20.867,0,0,1,11.163,4.774,15.435,15.435,0,0,1,2.291,2.344c.132.172.909,1.1,2.009,2.309a56.108,56.108,0,0,0,4.544,4.5l.346.293c3.9,2.934,4.995,5.472,4.995,5.472C1140.351,137.279,1131.376,138.111,1131.376,138.111Z"/>
          <path id="路径_14432" data-name="路径 14432" class="cls-3" d="M1130.1,130.693a19.433,19.433,0,0,0-4-1.688,60.27,60.27,0,0,0-11.876-2.259,53.234,53.234,0,0,0-7.722-.219,45.555,45.555,0,0,0-13.7,2.812,22.855,22.855,0,0,0-2.656,1.2,12.016,12.016,0,0,0-2.627,1.746c-.848.847-1.039,1.806.286,2.975,2.316,2.041,8.751,3.018,8.751,3.018l23.3,1.383a34.586,34.586,0,0,0,11.512-1.555C1137.97,135.2,1133.612,132.1,1130.1,130.693Z"/>
          <path id="路径_14433" data-name="路径 14433" class="cls-4" d="M1096.562,138.283s1.56-6.526,4.485-7.59,10.678-3.055,20.622.978c2.389,1.233,2.73,2.19,3.584,5.379s4.785,21.778,3.486,25.131-11.964,8.327-29.382,4.642c-4.42-1.134-7.378-3.345-7.256-4.981S1094.788,142.994,1096.562,138.283Z"/>
          <path id="路径_14434" data-name="路径 14434" class="cls-5" d="M1115.276,129.775s4.946,1.64,7.418,9.875,2.435,25.548-1.35,27.154c1.362-.433,7.565-1.871,7.638-5.9s-3.206-26.57-4.888-27.2C1122.857,132.383,1123.458,131.491,1115.276,129.775Z"/>
          <path id="路径_14435" data-name="路径 14435" class="cls-6" d="M1099.357,166.823s-2.469-18.993,9.817-18.88,10.3,8.109,11.038,19.165C1117.056,167.719,1112.034,169.262,1099.357,166.823Z"/>
          <path id="路径_14436" data-name="路径 14436" class="cls-7" d="M1111.62,147.943s-7.791,1.121-8.959,6.946a76.381,76.381,0,0,0-1.232,12.308l-2.066-.381s-1.99-13.036,4.527-17.311C1105.63,147.943,1108.238,147.823,1111.62,147.943Z"/>
          <path id="路径_14437" data-name="路径 14437" class="cls-8" d="M1100.236,144.2a1.154,1.154,0,0,0,.975,1.646c1.56.539,11.6,2.238,18.818-.191.844-.191,1.023-.695.941-1.162a1.96,1.96,0,0,0-.376-.833Z"/>
          <path id="路径_14438" data-name="路径 14438" class="cls-9" d="M1102.869,137.653h6.337v-3.819A7.919,7.919,0,0,0,1102.869,137.653Z"/>
          <path id="路径_14439" data-name="路径 14439" class="cls-9" d="M1111.62,137.653v-3.819a9.027,9.027,0,0,1,6.11,3.819Z"/>
          <path id="路径_14440" data-name="路径 14440" class="cls-9" d="M1111.62,142.946v-3.769l6.789-.107a4.32,4.32,0,0,1,.552,3.175C1118.7,144.449,1111.62,142.946,1111.62,142.946Z"/>
          <path id="路径_14441" data-name="路径 14441" class="cls-9" d="M1109.206,139.077h-6.964a7.359,7.359,0,0,0-.706,3.176c1.336.928,7.67.632,7.67.632Z"/>
          <path id="路径_14442" data-name="路径 14442" class="cls-10" d="M1112.028,133.893v3.76h-.408v-3.819C1111.757,133.847,1111.893,133.867,1112.028,133.893Z"/>
          <path id="路径_14443" data-name="路径 14443" class="cls-10" d="M1101.954,139.763h7.256v-.686h-6.968A5.16,5.16,0,0,0,1101.954,139.763Z"/>
          <path id="路径_14444" data-name="路径 14444" class="cls-10" d="M1112.12,142.95v-3.187h6.648s-.255-.686-.364-.686l-6.79.107v3.77Z"/>
          <path id="路径_14445" data-name="路径 14445" class="cls-9" d="M1095.609,117.692a4.846,4.846,0,0,0,.661,1.317c.34.363,1.682,4.081-1.366,5.335s-5.289.285-5.751-.8c.606-.471,2.926-2.661,2.926-2.661S1094.58,118.456,1095.609,117.692Z"/>
          <path id="路径_14446" data-name="路径 14446" class="cls-11" d="M1092.808,129.339a22.855,22.855,0,0,0-2.656,1.2,12.016,12.016,0,0,0-2.627,1.746,2.921,2.921,0,0,1-1.564-2.515,3.244,3.244,0,0,1,3.437-3A3.335,3.335,0,0,1,1092.808,129.339Z"/>
          <ellipse id="椭圆_2718" data-name="椭圆 2718" class="cls-11" cx="2.795" cy="2.438" rx="2.795" ry="2.438" transform="translate(1101.925 117.354)"/>
          <path id="路径_14447" data-name="路径 14447" class="cls-9" d="M1126.227,127.953a4.6,4.6,0,0,1-.121,1.052,60.27,60.27,0,0,0-11.876-2.259,5.973,5.973,0,0,1,5.919-4.09C1123.506,122.656,1126.227,125.028,1126.227,127.953Z"/>
          <path id="路径_14448" data-name="路径 14448" class="cls-11" d="M1125.593,116.7a6.621,6.621,0,0,1-5.11,2.278c-3.483,0-6.3-2.463-6.3-5.5a4.876,4.876,0,0,1,.248-1.543A20.863,20.863,0,0,1,1125.593,116.7Z"/>
          <path id="路径_14449" data-name="路径 14449" class="cls-11" d="M1134.437,125.851a3.7,3.7,0,0,1-2.432.878,3.229,3.229,0,0,1-3.437-3,2.883,2.883,0,0,1,1.336-2.376A56.124,56.124,0,0,0,1134.437,125.851Z"/>
          <path id="路径_14450" data-name="路径 14450" class="cls-12" d="M1105.576,150.438l.561-.4v17.8l-.561-.052Z"/>
          <path id="路径_14451" data-name="路径 14451" class="cls-12" d="M1110.671,148l.439.036v20.085h-.491Z"/>
          <path id="路径_14452" data-name="路径 14452" class="cls-12" d="M1112.588,148.243s-.539,8.867,3.3,9.4v10.2l.529-.042V149.728l-.46-.3-.025,2.592s-.317.158-.382-.373-.263-2.579-.263-2.579l-.371-.165s-.191,3.945.987,3.573c.048.265.062,2.222.062,2.222s-1.849.107-1.845-6.081l-.422-.124s-.3,6.223,2.165,6.578l.082.009-.03,2.074s-2.969.191-3.028-8.854Z"/>
          <path id="路径_14453" data-name="路径 14453" class="cls-12" d="M1117.157,167.7s-.878-8.888.827-8.349c.5.085,1.581,2.241,2.148,6.421.049.894.076,1.337.076,1.337l-.256.049s-1.008-6.032-1.544-6.826c-.306-.556-.573-.8-.8.032a27.779,27.779,0,0,0-.03,7.268Z"/>
          <path id="路径_14454" data-name="路径 14454" class="cls-12" d="M1119.639,167.222s-.987-6.337-1.783-5.218c-.21.269-.05,3.341.191,5.537l.393-.076s-.546-5-.218-4.724a30.43,30.43,0,0,1,1.081,4.546Z"/>
          <path id="路径_14455" data-name="路径 14455" class="cls-13" d="M1129.982,126.729s2.049,4.05,1.91,4.8c-.392.1-6.11,2.242-6.924,3.2.415,0,7.938-1.89,8.32-2.291S1131.59,127.7,1129.982,126.729Z"/>
          <path id="路径_14456" data-name="路径 14456" class="cls-13" d="M1091.349,129.954l1.115-.473s3.437,2.806,4.27,4.487C1096.3,133.712,1091.532,129.87,1091.349,129.954Z"/>
          <path id="路径_14457" data-name="路径 14457" class="cls-13" d="M1088.325,131.906s-1.1.868.191,1.178,7.483,2.28,8.21,2.656a6.736,6.736,0,0,0-1.293-1.22C1095.149,134.3,1090.177,129.99,1088.325,131.906Z"/>
          <path id="路径_14458" data-name="路径 14458" class="cls-14" d="M1101.118,142.386s-.942,1.5-.877,1.814,11.669,2.156,17.185.711c2.99-.653,3.282-1.035,3.17-1.249a17.678,17.678,0,0,0-1.642-1.417s-3.348,1.587-17.42,0C1101.374,142.245,1101.215,142.22,1101.118,142.386Z"/>
          <ellipse id="椭圆_2719" data-name="椭圆 2719" class="cls-15" cx="2.079" cy="1.814" rx="2.079" ry="1.814" transform="translate(1101.017 156.888)"/>
          <path id="路径_14459" data-name="路径 14459" class="cls-16" d="M1101.015,158.7a1.545,1.545,0,0,0,.08.491,2.3,2.3,0,0,0,1.119.287,1.965,1.965,0,0,0,2.081-1.814,1.606,1.606,0,0,0-.08-.491,2.294,2.294,0,0,0-1.119-.288A1.962,1.962,0,0,0,1101.015,158.7Z"/>
          <path id="路径_14460" data-name="路径 14460" class="cls-17" d="M1109.206,133.825v.572s-2.933-.181-5.8,3.256h-.544S1104.322,134.321,1109.206,133.825Z"/>
          <path id="路径_14461" data-name="路径 14461" class="cls-17" d="M1101.954,139.763h.573a7.736,7.736,0,0,0-.434,2.545l-.572-.063A8.937,8.937,0,0,1,1101.954,139.763Z"/>
        </g>
      </g>
      <g id="组_5186" data-name="组 5186" transform="translate(0.085 3.781)">
        <path id="路径_14462" data-name="路径 14462" class="cls-18" d="M1161.9,134.243a69.207,69.207,0,1,0,69.208,69.208,69.208,69.208,0,0,0-69.208-69.208Zm0,123.259a54.052,54.052,0,1,1,54.052-54.051A54.052,54.052,0,0,1,1161.9,257.5Z"/>
        <path id="路径_14463" data-name="路径 14463" class="cls-19" d="M1161.9,137.169a66.281,66.281,0,1,0,66.282,66.282,66.282,66.282,0,0,0-66.282-66.282Zm0,118.048a51.766,51.766,0,1,1,51.766-51.766A51.767,51.767,0,0,1,1161.9,255.217Z"/>
        <path id="路径_14464" data-name="路径 14464" class="cls-14" d="M1103.959,203.451a57.939,57.939,0,0,0,115.877.016v-.016a57.939,57.939,0,0,0-115.877-.017Z"/>
        <path id="路径_14465" data-name="路径 14465" class="cls-20" d="M1159.819,137.169h4.157v13.8h-4.157Zm0,118.765h4.157v13.8h-4.157Z"/>
        <path id="路径_14466" data-name="路径 14466" class="cls-20" d="M1130.427,145.5l6.945,12.031-3.622,2.092L1126.8,147.6Zm59.315,102.648,6.946,12.029-3.624,2.092-6.945-12.03Z"/>
        <path id="路径_14467" data-name="路径 14467" class="cls-20" d="M1105.5,168.646l12.03,6.945-2.091,3.624-12.03-6.946Zm102.8,59.4,12.031,6.945-2.092,3.624-12.03-6.946Z"/>
        <path id="路径_14468" data-name="路径 14468" class="cls-20" d="M1095.616,201.372h13.8v4.157h-13.8Zm118.763,0h13.8v4.157h-13.8Z"/>
        <path id="路径_14469" data-name="路径 14469" class="cls-20" d="M1115.4,227.9l2.079,3.6-11.953,6.9-2.078-3.6Zm102.861-59.38,2.079,3.6-11.953,6.9-2.078-3.6Z"/>
        <path id="路径_14470" data-name="路径 14470" class="cls-20" d="M1133.851,247.857l3.6,2.078-6.9,11.952-3.6-2.079ZM1193.23,145.01l3.6,2.078-6.9,11.952-3.6-2.079Z"/>
        <path id="路径_14471" data-name="路径 14471" class="cls-21" d="M1157.688,203.451a4.21,4.21,0,1,0,4.209-4.21A4.21,4.21,0,0,0,1157.688,203.451Z"/>
        <path id="路径_14472" data-name="路径 14472" class="cls-14" d="M1160.151,203.451a1.747,1.747,0,0,0,3.493,0h0a1.747,1.747,0,1,0-3.493,0Z"/>
        <path id="路径_14473" data-name="路径 14473" class="cls-22" d="M1163.932,219.3a24.5,24.5,0,0,0-2.033-9.511,23.249,23.249,0,0,0,0,19.022,24.482,24.482,0,0,0,2.036-9.511Z"/>
        <path id="路径_14474" data-name="路径 14474" class="cls-23" d="M1172.547,183.7a60.574,60.574,0,0,0-7.689,14.132,59.219,59.219,0,0,0,18.9-25.673A60.57,60.57,0,0,0,1172.547,183.7Z"/>
        <text id="_1" data-name="1" class="cls-24" transform="translate(1182.962 171.58)"><tspan x="0" y="0">1</tspan></text>
        <text id="_5" data-name="5" class="cls-24" transform="translate(1180.027 246.197)"><tspan x="0" y="0">5</tspan></text>
        <text id="_2" data-name="2" class="cls-24" transform="translate(1198.252 186.993)"><tspan x="0" y="0">2</tspan></text>
        <text id="_12" data-name="12" class="cls-24" transform="translate(1153.652 165.097)"><tspan x="0" y="0">12</tspan></text>
        <text id="_6" data-name="6" class="cls-24" transform="translate(1157.688 252.435)"><tspan x="0" y="0">6</tspan></text>
        <text id="_11" data-name="11" class="cls-24" transform="translate(1131.389 171.58)"><tspan x="0" y="0">11</tspan></text>
        <text id="_7" data-name="7" class="cls-24" transform="translate(1135.303 246.197)"><tspan x="0" y="0">7</tspan></text>
        <text id="_10" data-name="10" class="cls-24" transform="translate(1115.365 186.993)"><tspan x="0" y="0">10</tspan></text>
        <text id="_8" data-name="8" class="cls-24" transform="translate(1119.035 233.335)"><tspan x="0" y="0">8</tspan></text>
        <text id="_4" data-name="4" class="cls-24" transform="translate(1198.252 233.335)"><tspan x="0" y="0">4</tspan></text>
        <text id="_9" data-name="9" class="cls-24" transform="translate(1111.94 208.815)"><tspan x="0" y="0">9</tspan></text>
        <text id="_3" data-name="3" class="cls-24" transform="translate(1202.826 208.815)"><tspan x="0" y="0">3</tspan></text>
      </g>
    </g>
  </g>
</svg>
