<svg xmlns="http://www.w3.org/2000/svg" width="150.578" height="160.884" viewBox="0 0 150.578 160.884">
  <defs>
    <style>
      .cls-1 {
        fill: #6ba3fe;
      }

      .cls-2 {
        fill: #4a9ce8;
      }

      .cls-3 {
        fill: #d5e7f7;
      }

      .cls-4 {
        fill: #c7e4ef;
      }

      .cls-5 {
        fill: #a1dcff;
      }

      .cls-6 {
        fill: #52beff;
      }

      .cls-7 {
        fill: #cef4f2;
      }

      .cls-8 {
        fill: #95caeb;
      }

      .cls-9 {
        fill: #cdf2f4;
      }

      .cls-10 {
        fill: #b8abff;
      }

      .cls-11 {
        fill: #6a6afe;
      }

      .cls-12 {
        fill: #756dfe;
      }

      .cls-13 {
        fill: #aca9ff;
      }

      .cls-14 {
        fill: #6b6dfe;
      }

      .cls-15 {
        fill: #80dbd6;
      }

      .cls-16 {
        fill: #67d9c1;
      }

      .cls-17 {
        fill: #fff;
      }

      .cls-18 {
        fill: #6c96ff;
      }

      .cls-19 {
        fill: #6f74fd;
      }

      .cls-20 {
        fill: #82d8d5;
      }

      .cls-21 {
        fill: #aa6a32;
      }

      .cls-22 {
        fill: #eeb896;
      }

      .cls-23 {
        fill: #ebb6a2;
      }

      .cls-24 {
        fill: #5fb2d6;
      }

      .cls-25 {
        fill: #ff9b00;
      }

      .cls-26 {
        fill: #7d4921;
        font-size: 16.719px;
        font-family: TimesNewRomanPS-BoldMT, Times New Roman;
        font-weight: 700;
      }

      .cls-27 {
        fill: #f60;
      }
    </style>
  </defs>
  <g id="组_6992" data-name="组 6992" transform="translate(-975 -914.555)">
    <g id="组_6959" data-name="组 6959" transform="translate(305.493 799)">
      <g id="图层_2" data-name="图层 2" transform="translate(0.085 3.781)">
        <g id="图层_1-2" data-name="图层 1-2">
          <path id="路径_14340" data-name="路径 14340" class="cls-1" d="M673.14,125.786s-7.065,3.832-1.718,8.329c2.291,2,7.064,2.831,7.637,3s4.965-7.329,4.965-7.329l19.094-1.665,10.693,2.5,3.055,3,3.819,2.331-1.91,2.165s8.974-.832,8.4-6.492c0,0-1.094-2.537-4.995-5.472a63.077,63.077,0,0,1-6.9-7.105c-.292-.382-7.143-9.482-21.386-6.761-2.234.381-8.628,2.547-14.422,8.588A24.631,24.631,0,0,1,673.14,125.786Z"/>
          <path id="路径_14341" data-name="路径 14341" class="cls-1" d="M718.775,138.111l1.91-2.165-3.819-2.331-3.055-3-10.693-2.5-19.094,1.665s-4.392,7.5-4.965,7.329-5.346-1-7.637-3c-5.347-4.5,1.718-8.329,1.718-8.329a24.576,24.576,0,0,0,6.335-4.915c5.8-6.043,12.188-8.209,14.432-8.592a25.971,25.971,0,0,1,7.922-.348,20.867,20.867,0,0,1,11.163,4.774,15.438,15.438,0,0,1,2.291,2.344c.132.172.909,1.1,2.009,2.309a56.087,56.087,0,0,0,4.544,4.5l.346.293c3.9,2.934,4.995,5.472,4.995,5.472C727.749,137.279,718.775,138.111,718.775,138.111Z"/>
          <path id="路径_14342" data-name="路径 14342" class="cls-2" d="M717.5,130.693a19.434,19.434,0,0,0-4-1.688,60.271,60.271,0,0,0-11.876-2.259,53.24,53.24,0,0,0-7.722-.219,45.556,45.556,0,0,0-13.7,2.812,22.854,22.854,0,0,0-2.656,1.2,12.024,12.024,0,0,0-2.628,1.746c-.847.847-1.038,1.806.287,2.975,2.316,2.041,8.751,3.018,8.751,3.018l23.295,1.383a34.586,34.586,0,0,0,11.512-1.555C725.368,135.2,721.011,132.1,717.5,130.693Z"/>
          <path id="路径_14343" data-name="路径 14343" class="cls-3" d="M683.961,138.283s1.56-6.526,4.485-7.59,10.677-3.055,20.622.978c2.388,1.233,2.73,2.19,3.584,5.379s4.785,21.778,3.486,25.131-11.964,8.327-29.382,4.642c-4.42-1.134-7.378-3.345-7.256-4.981S682.187,142.994,683.961,138.283Z"/>
          <path id="路径_14344" data-name="路径 14344" class="cls-4" d="M702.675,129.775s4.945,1.64,7.418,9.875,2.435,25.548-1.35,27.154c1.361-.433,7.565-1.871,7.638-5.9s-3.206-26.57-4.888-27.2C710.255,132.383,710.857,131.491,702.675,129.775Z"/>
          <path id="路径_14345" data-name="路径 14345" class="cls-5" d="M686.756,166.823s-2.469-18.993,9.816-18.88,10.3,8.109,11.039,19.165C704.455,167.719,699.433,169.262,686.756,166.823Z"/>
          <path id="路径_14346" data-name="路径 14346" class="cls-6" d="M699.018,147.943s-7.79,1.121-8.959,6.946a76.451,76.451,0,0,0-1.231,12.308l-2.066-.381s-1.99-13.036,4.527-17.311C693.029,147.943,695.637,147.823,699.018,147.943Z"/>
          <path id="路径_14347" data-name="路径 14347" class="cls-7" d="M687.634,144.2a1.155,1.155,0,0,0,.976,1.646c1.56.539,11.6,2.238,18.817-.191.844-.191,1.024-.695.942-1.162a1.971,1.971,0,0,0-.376-.833Z"/>
          <path id="路径_14348" data-name="路径 14348" class="cls-8" d="M690.268,137.653H696.6v-3.819A7.918,7.918,0,0,0,690.268,137.653Z"/>
          <path id="路径_14349" data-name="路径 14349" class="cls-8" d="M699.018,137.653v-3.819a9.028,9.028,0,0,1,6.111,3.819Z"/>
          <path id="路径_14350" data-name="路径 14350" class="cls-8" d="M699.018,142.946v-3.769l6.79-.107a4.32,4.32,0,0,1,.552,3.175C706.1,144.449,699.018,142.946,699.018,142.946Z"/>
          <path id="路径_14351" data-name="路径 14351" class="cls-8" d="M696.6,139.077h-6.964a7.359,7.359,0,0,0-.706,3.176c1.336.928,7.67.632,7.67.632Z"/>
          <path id="路径_14352" data-name="路径 14352" class="cls-9" d="M699.427,133.893v3.76h-.409v-3.819C699.155,133.847,699.292,133.867,699.427,133.893Z"/>
          <path id="路径_14353" data-name="路径 14353" class="cls-9" d="M689.353,139.763h7.256v-.686h-6.968A5.026,5.026,0,0,0,689.353,139.763Z"/>
          <path id="路径_14354" data-name="路径 14354" class="cls-9" d="M699.519,142.95v-3.187h6.648s-.256-.686-.364-.686l-6.79.107v3.77Z"/>
          <path id="路径_14355" data-name="路径 14355" class="cls-10" d="M683.008,117.692a4.844,4.844,0,0,0,.661,1.317c.339.363,1.682,4.081-1.366,5.335s-5.289.285-5.751-.8c.6-.471,2.925-2.661,2.925-2.661S681.979,118.456,683.008,117.692Z"/>
          <path id="路径_14356" data-name="路径 14356" class="cls-11" d="M680.207,129.339a22.854,22.854,0,0,0-2.656,1.2,12.024,12.024,0,0,0-2.628,1.746,2.922,2.922,0,0,1-1.563-2.515,3.243,3.243,0,0,1,3.437-3A3.335,3.335,0,0,1,680.207,129.339Z"/>
          <ellipse id="椭圆_2714" data-name="椭圆 2714" class="cls-12" cx="2.795" cy="2.438" rx="2.795" ry="2.438" transform="translate(689.324 117.354)"/>
          <path id="路径_14357" data-name="路径 14357" class="cls-13" d="M713.625,127.953a4.547,4.547,0,0,1-.12,1.052,60.271,60.271,0,0,0-11.876-2.259,5.971,5.971,0,0,1,5.919-4.09C710.905,122.656,713.625,125.028,713.625,127.953Z"/>
          <path id="路径_14358" data-name="路径 14358" class="cls-11" d="M712.992,116.7a6.621,6.621,0,0,1-5.11,2.278c-3.483,0-6.3-2.463-6.3-5.5a4.851,4.851,0,0,1,.248-1.543A20.863,20.863,0,0,1,712.992,116.7Z"/>
          <path id="路径_14359" data-name="路径 14359" class="cls-14" d="M721.836,125.851a3.7,3.7,0,0,1-2.433.878,3.23,3.23,0,0,1-3.437-3,2.886,2.886,0,0,1,1.337-2.376A56.135,56.135,0,0,0,721.836,125.851Z"/>
          <path id="路径_14360" data-name="路径 14360" class="cls-6" d="M692.975,150.438l.561-.4v17.8l-.561-.052Z"/>
          <path id="路径_14361" data-name="路径 14361" class="cls-6" d="M698.069,148l.439.036v20.085h-.491Z"/>
          <path id="路径_14362" data-name="路径 14362" class="cls-6" d="M699.986,148.243s-.538,8.867,3.3,9.4v10.2l.529-.042V149.728l-.46-.3-.025,2.592s-.317.158-.382-.373-.263-2.579-.263-2.579l-.371-.165s-.191,3.945.987,3.573c.048.265.061,2.222.061,2.222s-1.848.107-1.844-6.081l-.422-.124s-.306,6.223,2.165,6.578l.082.009-.03,2.074s-2.969.191-3.029-8.854Z"/>
          <path id="路径_14363" data-name="路径 14363" class="cls-6" d="M704.556,167.7s-.879-8.888.826-8.349c.505.085,1.581,2.241,2.149,6.421.049.894.076,1.337.076,1.337l-.256.049s-1.008-6.032-1.545-6.826c-.305-.556-.572-.8-.8.032a27.783,27.783,0,0,0-.03,7.268Z"/>
          <path id="路径_14364" data-name="路径 14364" class="cls-15" d="M707.038,167.222s-.987-6.337-1.783-5.218c-.21.269-.05,3.341.191,5.537l.393-.076s-.546-5-.218-4.724a30.431,30.431,0,0,1,1.081,4.546Z"/>
          <path id="路径_14365" data-name="路径 14365" class="cls-16" d="M717.381,126.729s2.049,4.05,1.91,4.8c-.392.1-6.11,2.242-6.924,3.2.414,0,7.938-1.89,8.32-2.291S718.989,127.7,717.381,126.729Z"/>
          <path id="路径_14366" data-name="路径 14366" class="cls-16" d="M678.748,129.954l1.115-.473s3.437,2.806,4.27,4.487C683.693,133.712,678.931,129.87,678.748,129.954Z"/>
          <path id="路径_14367" data-name="路径 14367" class="cls-16" d="M675.723,131.906s-1.1.868.191,1.178,7.483,2.28,8.211,2.656a6.765,6.765,0,0,0-1.293-1.22C682.548,134.3,677.576,129.99,675.723,131.906Z"/>
          <path id="路径_14368" data-name="路径 14368" class="cls-17" d="M688.517,142.386s-.942,1.5-.877,1.814,11.669,2.156,17.185.711c2.99-.653,3.282-1.035,3.17-1.249a17.685,17.685,0,0,0-1.643-1.417s-3.347,1.587-17.419,0C688.772,142.245,688.614,142.22,688.517,142.386Z"/>
          <ellipse id="椭圆_2715" data-name="椭圆 2715" class="cls-18" cx="2.079" cy="1.814" rx="2.079" ry="1.814" transform="translate(688.415 156.888)"/>
          <path id="路径_14369" data-name="路径 14369" class="cls-19" d="M688.413,158.7a1.572,1.572,0,0,0,.081.491,2.3,2.3,0,0,0,1.119.287,1.965,1.965,0,0,0,2.081-1.814,1.6,1.6,0,0,0-.08-.491,2.3,2.3,0,0,0-1.119-.288A1.962,1.962,0,0,0,688.413,158.7Z"/>
          <path id="路径_14370" data-name="路径 14370" class="cls-20" d="M696.6,133.825v.572s-2.933-.181-5.8,3.256h-.544S691.721,134.321,696.6,133.825Z"/>
          <path id="路径_14371" data-name="路径 14371" class="cls-20" d="M689.353,139.763h.573a7.736,7.736,0,0,0-.434,2.545l-.573-.063A8.948,8.948,0,0,1,689.353,139.763Z"/>
        </g>
      </g>
      <g id="组_5182" data-name="组 5182" transform="translate(0.085 3.781)">
        <path id="路径_14372" data-name="路径 14372" class="cls-21" d="M750.793,134.243A69.207,69.207,0,1,0,820,203.451a69.209,69.209,0,0,0-69.207-69.208Zm0,123.259a54.052,54.052,0,1,1,54.051-54.051A54.051,54.051,0,0,1,750.793,257.5Z"/>
        <path id="路径_14373" data-name="路径 14373" class="cls-22" d="M750.793,137.169a66.281,66.281,0,1,0,66.281,66.282,66.283,66.283,0,0,0-66.281-66.282Zm0,118.048a51.766,51.766,0,1,1,51.766-51.766A51.766,51.766,0,0,1,750.793,255.217Z"/>
        <path id="路径_14374" data-name="路径 14374" class="cls-17" d="M692.855,203.451a57.938,57.938,0,0,0,115.876.016v-.016a57.938,57.938,0,1,0-115.876-.017Z"/>
        <path id="路径_14375" data-name="路径 14375" class="cls-23" d="M748.715,137.169h4.157v13.8h-4.157Zm0,118.765h4.157v13.8h-4.157Z"/>
        <path id="路径_14376" data-name="路径 14376" class="cls-23" d="M719.322,145.5l6.946,12.031-3.622,2.092L715.7,147.6Zm59.315,102.648,6.947,12.029-3.625,2.092-6.945-12.03Z"/>
        <path id="路径_14377" data-name="路径 14377" class="cls-23" d="M694.394,168.646l12.029,6.945-2.091,3.624-12.03-6.946Zm102.8,59.4,12.031,6.945-2.093,3.624-12.03-6.946Z"/>
        <path id="路径_14378" data-name="路径 14378" class="cls-23" d="M684.512,201.372h13.8v4.157h-13.8Zm118.763,0h13.8v4.157h-13.8Z"/>
        <path id="路径_14379" data-name="路径 14379" class="cls-23" d="M704.3,227.9l2.08,3.6-11.954,6.9-2.078-3.6Zm102.861-59.38,2.08,3.6-11.954,6.9-2.078-3.6Z"/>
        <path id="路径_14380" data-name="路径 14380" class="cls-23" d="M722.747,247.857l3.6,2.078-6.9,11.952-3.6-2.079ZM782.125,145.01l3.6,2.078-6.9,11.952-3.6-2.079Z"/>
        <path id="路径_14381" data-name="路径 14381" class="cls-24" d="M746.584,203.451a4.209,4.209,0,1,0,4.209-4.21A4.209,4.209,0,0,0,746.584,203.451Z"/>
        <path id="路径_14382" data-name="路径 14382" class="cls-17" d="M749.046,203.451a1.747,1.747,0,0,0,3.494,0h0a1.747,1.747,0,1,0-3.494,0Z"/>
        <path id="路径_14383" data-name="路径 14383" class="cls-25" d="M752.978,181.015a60.553,60.553,0,0,0-2.333-15.918,59.226,59.226,0,0,0,.3,31.877A60.532,60.532,0,0,0,752.978,181.015Z"/>
        <text id="_1" data-name="1" class="cls-26" transform="translate(771.858 171.58)"><tspan x="0" y="0">1</tspan></text>
        <text id="_5" data-name="5" class="cls-26" transform="translate(768.922 246.197)"><tspan x="0" y="0">5</tspan></text>
        <text id="_2" data-name="2" class="cls-26" transform="translate(787.148 186.993)"><tspan x="0" y="0">2</tspan></text>
        <text id="_12" data-name="12" class="cls-26" transform="translate(742.547 165.097)"><tspan x="0" y="0">12</tspan></text>
        <text id="_6" data-name="6" class="cls-26" transform="translate(746.584 252.435)"><tspan x="0" y="0">6</tspan></text>
        <text id="_11" data-name="11" class="cls-26" transform="translate(720.284 171.58)"><tspan x="0" y="0">11</tspan></text>
        <text id="_7" data-name="7" class="cls-26" transform="translate(724.198 246.197)"><tspan x="0" y="0">7</tspan></text>
        <text id="_10" data-name="10" class="cls-26" transform="translate(704.26 186.993)"><tspan x="0" y="0">10</tspan></text>
        <text id="_8" data-name="8" class="cls-26" transform="translate(707.93 233.335)"><tspan x="0" y="0">8</tspan></text>
        <text id="_4" data-name="4" class="cls-26" transform="translate(787.148 233.335)"><tspan x="0" y="0">4</tspan></text>
        <text id="_9" data-name="9" class="cls-26" transform="translate(700.835 208.815)"><tspan x="0" y="0">9</tspan></text>
        <text id="_3" data-name="3" class="cls-26" transform="translate(791.721 208.815)"><tspan x="0" y="0">3</tspan></text>
        <path id="路径_14384" data-name="路径 14384" class="cls-27" d="M749.046,187.987a24.48,24.48,0,0,0,2.007,9.516,23.246,23.246,0,0,0,.055-19.021,24.471,24.471,0,0,0-2.062,9.505Z"/>
      </g>
    </g>
  </g>
</svg>
