<svg xmlns="http://www.w3.org/2000/svg" width="219.852" height="128.57" viewBox="0 0 219.852 128.57">
  <defs>
    <style>
      .cls-1 {
        fill: #679d2f;
      }

      .cls-2 {
        fill: #578e20;
      }

      .cls-3 {
        fill: #ca8f3f;
      }

      .cls-4 {
        fill: #eaad59;
      }

      .cls-5 {
        fill: #e19a3b;
      }

      .cls-6 {
        fill: #fff;
      }

      .cls-7, .cls-8 {
        fill: #7d4921;
        font-size: 25.435px;
        font-weight: 700;
      }

      .cls-7 {
        font-family: MicrosoftYaHei-Bold, Microsoft YaHei;
      }

      .cls-8 {
        font-family: TimesNewRomanPS-BoldMT, Times New Roman;
      }

      .cls-9 {
        fill: #4e923d;
      }

      .cls-10 {
        fill: #4a8c4a;
      }

      .cls-11 {
        fill: #2b71b0;
      }

      .cls-12 {
        fill: #e7ffff;
      }

      .cls-13 {
        fill: #68af48;
      }

      .cls-14 {
        fill: #c5db82;
      }

      .cls-15 {
        fill: #fcb2a9;
      }

      .cls-16 {
        fill: none;
        stroke: #fcb2a9;
        stroke-linecap: round;
        stroke-linejoin: round;
        stroke-width: 2.2px;
      }
    </style>
  </defs>
  <g id="组_3971" data-name="组 3971" transform="translate(-1204.178 -1249.623)">
    <g id="组_3969" data-name="组 3969">
      <path id="路径_11057" data-name="路径 11057" class="cls-1" d="M1401.5,1281.873s5.06-14.009,15.218-18.63c6.3,7.4,10.738,26.234,3.793,34.028S1401.5,1281.873,1401.5,1281.873Z"/>
      <rect id="矩形_1377" data-name="矩形 1377" class="cls-2" width="2.457" height="15.472" rx="1.229" transform="translate(1414.053 1274.822) rotate(7.543)"/>
      <path id="路径_11058" data-name="路径 11058" class="cls-3" d="M1402.57,1281.026s16.723-1.616,21.239,12.871c.335,9.657,0,54.081,0,54.081l-3.178.966s3.978,16.418,3.327,18.073-3.494,11.175-15.037,11.175H1268.737s-14.255-2.759-14.255-10.623S1402.57,1281.026,1402.57,1281.026Z"/>
      <path id="路径_11059" data-name="路径 11059" class="cls-4" d="M1417.342,1356.156a17,17,0,0,1,.036,1.805,15.943,15.943,0,0,1-.471,3.472c-2.443,9.525-13.389,11.388-13.389,11.388h-139.6c-5.2,0-9.416-3.407-9.43-7.619-.008-5.451-.008-12.968.05-19.579.022-2.776.058-5.393.109-7.625v-.094c.007-.406.022-.79.029-1.167.073-2.682.16-4.669.29-5.466-.522-1.7-.5-9.684-.362-16.947v-.029c.13-6.669.362-12.736.362-12.736l-.13-4.7-.029-1.138c-.182-6.387,6-11.7,13.881-11.946,26.74-.812,83.062-2.494,96.132-2.632,14.831,5.241,14.381-.449,14.381-.449l26.277.312c6.6.079,11.9,4.407,11.953,9.749l.058,6.1.065,7.589.3,32.286.015,1.167.036,4.385s-3.791,2.805-4.125,2.987c-.3.152,1.385,2.4,2.936,8.191.1.4.2.819.312,1.261s.217.9.319,1.377Z"/>
      <path id="路径_11060" data-name="路径 11060" class="cls-5" d="M1417.552,1310.024l-162.721,15.226s-.1-1.183-.229-3.035v-.028c.132-8.242.36-15.729.36-15.729l-.131-5.8c2.16,2.178,162.653,0,162.653,0Z"/>
      <path id="路径_11061" data-name="路径 11061" class="cls-5" d="M1417.342,1356.156a17,17,0,0,1,.036,1.805,15.943,15.943,0,0,1-.471,3.472c-14.171-1.131-159.043-15.483-162.371-15.81a.334.334,0,0,0-.058-.007v-8.879h163.371l.015,1.167.036,4.385s-3.791,2.805-4.125,2.987c-.3.152,1.385,2.4,2.936,8.191.1.4.2.819.312,1.261S1417.233,1355.663,1417.342,1356.156Z"/>
      <path id="路径_11062" data-name="路径 11062" class="cls-6" d="M1273.03,1296.643s.67,6.165-3.791,18.414,4.684,43.472,4.461,44.513c4.8-.64,58.215-1.681,71.82,1.2s57.212-3.683,57.212-3.683-8.03-6.723,1.561-31.062c4.015-10.969-1.673-29.383-1.673-29.383S1334.257,1301.767,1273.03,1296.643Z"/>
      <text id="晚上" class="cls-7" transform="translate(1285.902 1337.25)"><tspan x="0" y="0">晚上</tspan></text>
      <text id="_6:30" data-name="6:30" class="cls-8" transform="translate(1338.841 1337.25)"><tspan x="0" y="0">6:30</tspan></text>
    </g>
    <g id="组_3970" data-name="组 3970">
      <path id="路径_11063" data-name="路径 11063" class="cls-9" d="M1231.364,1362.021s-.135,6.467,1.617,8.488,0,2.56-.81,3.5-2.963,3.369,2.427,3.773,7.006,1.752,8.623-4.446.269-10.779,0-11.318S1232.863,1358.383,1231.364,1362.021Z"/>
      <path id="路径_11064" data-name="路径 11064" class="cls-9" d="M1267.446,1362.021s.135,6.467-1.617,8.488,0,2.56.81,3.5,2.963,3.369-2.426,3.773-7.007,1.752-8.624-4.446-.269-10.779,0-11.318S1265.947,1358.383,1267.446,1362.021Z"/>
      <path id="路径_11065" data-name="路径 11065" class="cls-9" d="M1223.01,1334.265s-6.2,5.12-11.048,6.737-4.581,10.24,4.311,10.509,9.7-2.695,9.7-2.695-.579,10.71,3.551,16c5.611,7.188,36.686,6.279,38.488-.1a46.063,46.063,0,0,0,1.125-17.753s7.5,6.7,11.27,6.166,5.39-7.006,2.965-9.432-11.588-5.659-11.588-9.431S1232.981,1313.785,1223.01,1334.265Z"/>
      <path id="路径_11066" data-name="路径 11066" class="cls-10" d="M1216.284,1272.187s-8.065-25.228,14.062-22.333c8.685,2.9,11.787,15.509,11.787,15.509s8.607-1.551,13.725.7c0,0,3.025-13.1,14.269-14.269s13.648,9.383,13.8,10.934a18.382,18.382,0,0,1-1.706,12.408c1.784,1.861,10.934,13.881,9,31.018s-15.82,23.42-20.628,24.738c-5.04,1.551-37.92,8.142-53.429-6.126-6.669-4.653-18.146-20.783-10.392-38.774C1211.528,1275.909,1216.284,1272.187,1216.284,1272.187Z"/>
      <circle id="椭圆_1977" data-name="椭圆 1977" class="cls-6" cx="4.768" cy="4.768" r="4.768" transform="translate(1265.844 1258.96)"/>
      <circle id="椭圆_1978" data-name="椭圆 1978" class="cls-11" cx="3.707" cy="3.707" r="3.707" transform="translate(1266.52 1261.063)"/>
      <circle id="椭圆_1979" data-name="椭圆 1979" class="cls-12" cx="1.469" cy="1.469" r="1.469" transform="translate(1271.173 1262.33)"/>
      <circle id="椭圆_1980" data-name="椭圆 1980" class="cls-6" cx="4.768" cy="4.768" r="4.768" transform="translate(1223.532 1257.289)"/>
      <circle id="椭圆_1981" data-name="椭圆 1981" class="cls-11" cx="3.707" cy="3.707" r="3.707" transform="translate(1224.761 1259.447)"/>
      <circle id="椭圆_1982" data-name="椭圆 1982" class="cls-12" cx="1.469" cy="1.469" r="1.469" transform="translate(1224.827 1260.251)"/>
      <path id="路径_11067" data-name="路径 11067" class="cls-13" d="M1216.284,1272.187s8.944,13.958,29.261,16.75,34.729-7.756,36.679-13.8c0,0,12.521,12.249,8.7,33.033s-25.084,23.821-25.084,23.821-22.846,5.092-39.563-1.66a34.514,34.514,0,0,1-21.971-29.192C1203.566,1293.073,1206.668,1278.184,1216.284,1272.187Z"/>
      <path id="路径_11068" data-name="路径 11068" class="cls-14" d="M1217.163,1324.764s7.754-18.612,32.1-16.13,26.664,19.806,26.664,19.806-6.358,5.3-29.384,5.389C1231.741,1333.76,1220.265,1328.8,1217.163,1324.764Z"/>
      <path id="路径_11069" data-name="路径 11069" class="cls-15" d="M1269.284,1295.138a13.942,13.942,0,0,0,21.339,14.117,38.874,38.874,0,0,0-2.309-24.585,13.944,13.944,0,0,0-19.03,10.468Z"/>
      <path id="路径_11070" data-name="路径 11070" class="cls-15" d="M1227.271,1290.612a13.945,13.945,0,0,0-17-10,12.483,12.483,0,0,0-1.981.754,40.8,40.8,0,0,0-3.642,11.733,31.151,31.151,0,0,0,.27,12.006,14.491,14.491,0,0,0,12.354,2.507A13.946,13.946,0,0,0,1227.271,1290.612Z"/>
      <path id="路径_11071" data-name="路径 11071" class="cls-16" d="M1237.066,1276.323s11.787,9.616,24.3.724"/>
      <ellipse id="椭圆_1983" data-name="椭圆 1983" class="cls-14" cx="13.713" cy="12.891" rx="13.713" ry="12.891" transform="translate(1234.635 1337.464)"/>
    </g>
  </g>
</svg>
