<svg xmlns="http://www.w3.org/2000/svg" width="217.499" height="178.283" viewBox="0 0 217.499 178.283">
  <defs>
    <style>
      .cls-1 {
        fill: #679d2f;
      }

      .cls-2 {
        fill: #578e20;
      }

      .cls-3 {
        fill: #ca8f3f;
      }

      .cls-4 {
        fill: #eaad59;
      }

      .cls-5 {
        fill: #e19a3b;
      }

      .cls-6 {
        fill: #fff;
      }

      .cls-7, .cls-8 {
        fill: #7d4921;
        font-size: 25.435px;
        font-weight: 700;
      }

      .cls-7 {
        font-family: MicrosoftYaHei-Bold, Microsoft YaHei;
      }

      .cls-8 {
        font-family: TimesNewRomanPS-BoldMT, Times New Roman;
      }

      .cls-9 {
        fill: #fcfdea;
      }

      .cls-10 {
        fill: #f1afa1;
      }

      .cls-11 {
        fill: #2b71b0;
      }

      .cls-12 {
        fill: #e7ffff;
      }

      .cls-13 {
        fill: #eeac9e;
      }

      .cls-14 {
        fill: #f6afa2;
      }

      .cls-15 {
        fill: none;
        stroke: #eeac9e;
        stroke-linecap: round;
        stroke-linejoin: round;
        stroke-width: 2.2px;
      }

      .cls-16 {
        fill: #fcb2a9;
      }
    </style>
  </defs>
  <g id="组_3953" data-name="组 3953" transform="translate(-337.811 -1219.844)">
    <g id="组_3951" data-name="组 3951">
      <path id="路径_10936" data-name="路径 10936" class="cls-1" d="M532.779,1301.807s5.061-14.009,15.218-18.63c6.3,7.4,10.738,26.234,3.794,34.028S532.779,1301.807,532.779,1301.807Z"/>
      <rect id="矩形_1371" data-name="矩形 1371" class="cls-2" width="2.457" height="15.472" rx="1.229" transform="translate(545.332 1294.756) rotate(7.543)"/>
      <path id="路径_10937" data-name="路径 10937" class="cls-3" d="M533.849,1300.96s16.723-1.616,21.24,12.871c.334,9.657,0,54.081,0,54.081l-3.179.966s3.978,16.418,3.328,18.073-3.495,11.175-15.037,11.175H400.017s-14.255-2.759-14.255-10.623S533.849,1300.96,533.849,1300.96Z"/>
      <path id="路径_10938" data-name="路径 10938" class="cls-4" d="M548.621,1376.09a16.712,16.712,0,0,1,.036,1.805,15.947,15.947,0,0,1-.471,3.472c-2.443,9.525-13.388,11.387-13.388,11.387H395.2c-5.2,0-9.416-3.406-9.431-7.618-.007-5.451-.007-12.968.051-19.579.022-2.776.058-5.393.109-7.625v-.094c.007-.406.022-.79.029-1.167.072-2.682.159-4.669.29-5.466-.522-1.7-.5-9.684-.363-16.947v-.029c.131-6.669.363-12.736.363-12.736l-.131-4.7-.029-1.138c-.181-6.386,6-11.7,13.882-11.946,26.74-.812,83.062-2.494,96.131-2.631,14.831,5.24,14.382-.45,14.382-.45l26.276.312c6.6.08,11.9,4.407,11.953,9.749l.058,6.1.065,7.589.3,32.286.014,1.167.036,4.385s-3.791,2.8-4.124,2.987c-.3.152,1.384,2.4,2.935,8.19.1.4.2.82.312,1.262s.218.9.319,1.377Z"/>
      <path id="路径_10939" data-name="路径 10939" class="cls-5" d="M548.832,1329.958l-162.721,15.226s-.1-1.183-.229-3.034v-.029c.131-8.242.36-15.729.36-15.729l-.131-5.8c2.16,2.177,162.652,0,162.652,0Z"/>
      <path id="路径_10940" data-name="路径 10940" class="cls-5" d="M548.621,1376.09a16.712,16.712,0,0,1,.036,1.805,15.947,15.947,0,0,1-.471,3.472c-14.171-1.131-159.043-15.483-162.37-15.81a.339.339,0,0,0-.058-.007v-8.879H549.129l.014,1.167.036,4.385s-3.791,2.8-4.124,2.987c-.3.152,1.384,2.4,2.935,8.19.1.4.2.82.312,1.262S548.512,1375.6,548.621,1376.09Z"/>
      <path id="路径_10941" data-name="路径 10941" class="cls-6" d="M404.31,1316.577s.669,6.165-3.792,18.414,4.684,43.472,4.461,44.513c4.8-.64,58.215-1.681,71.821,1.2s57.211-3.683,57.211-3.683-8.03-6.723,1.561-31.062c4.015-10.969-1.672-29.383-1.672-29.383S465.536,1321.7,404.31,1316.577Z"/>
      <text id="上午" class="cls-7" transform="translate(417.182 1357.184)"><tspan x="0" y="0">上午</tspan></text>
      <text id="_6:30" data-name="6:30" class="cls-8" transform="translate(470.121 1357.184)"><tspan x="0" y="0">6:30</tspan></text>
    </g>
    <g id="组_3952" data-name="组 3952">
      <path id="路径_10942" data-name="路径 10942" class="cls-9" d="M366.227,1381.993s-1.592,8.747.459,11.079c.528,1.111.985.3,1.013,1.884s2.308,3.757,5.249,1.822a4.015,4.015,0,0,0,1.624-5.468,2.907,2.907,0,0,0-1.856-1.056l-.074-4.039.08-3.1S368.873,1379.093,366.227,1381.993Z"/>
      <path id="路径_10943" data-name="路径 10943" class="cls-9" d="M385.046,1387.377s-1.731,8.027.763,9.888a4.029,4.029,0,0,0,6.4-2.229c.717-2.749,1.29-12.008,1.29-12.008l-.115-2.769-8.882,1.954Z"/>
      <path id="路径_10944" data-name="路径 10944" class="cls-9" d="M363.971,1355.118s-7.653,1.223-8.566,8.361c0,0-.825,2.577.665,3.9a4.271,4.271,0,0,0,4.722.333c.73-.609,2.108-6.835,3.419-6.814s1.821.222.911,5.6-3.117,11.662,1.7,16.095,11.622,5.863,18.224,4.784,9.552-5.23,11.337-8.325-.489-11.818-.975-13.809-1.211-4.933-1.211-4.933-.706-1.229,1.275-.808,10.95,1.164,12.4-5.429c.8-3.111,1.234-5.773-2.314-6.173a6.3,6.3,0,0,0-3.709,2.526c-1.473,2.126-3.857,4.138-7.317,3.274s-11.72-5.179-11.72-5.179l-15.357-.572Z"/>
      <circle id="椭圆_1933" data-name="椭圆 1933" class="cls-10" cx="11.141" cy="11.141" r="11.141" transform="translate(369.196 1359.286)"/>
      <path id="路径_10945" data-name="路径 10945" class="cls-9" d="M353.293,1294.324s-16.84-71.438,4.618-74.426c15.483,0,15.483,26.62,15.483,26.62l1.358,41.83s8.964-.543,10.322-.543.271-66.82,16.569-67.907,14.668,14.4,14.939,17.656-9.235,54.325-11.408,56.77C403,1297.583,360.356,1303.287,353.293,1294.324Z"/>
      <ellipse id="椭圆_1934" data-name="椭圆 1934" class="cls-9" cx="43.324" cy="33.475" rx="43.324" ry="33.475" transform="translate(337.811 1287.945)"/>
      <circle id="椭圆_1935" data-name="椭圆 1935" class="cls-6" cx="7.78" cy="7.78" r="7.78" transform="translate(355.183 1304.027)"/>
      <circle id="椭圆_1936" data-name="椭圆 1936" class="cls-11" cx="6.049" cy="6.049" r="6.049" transform="translate(357.766 1307.356)"/>
      <circle id="椭圆_1937" data-name="椭圆 1937" class="cls-12" cx="2.397" cy="2.397" r="2.397" transform="translate(356.602 1309.975)"/>
      <circle id="椭圆_1938" data-name="椭圆 1938" class="cls-6" cx="7.78" cy="7.78" r="7.78" transform="translate(389.625 1304.027)"/>
      <circle id="椭圆_1939" data-name="椭圆 1939" class="cls-11" cx="6.049" cy="6.049" r="6.049" transform="translate(392.208 1307.356)"/>
      <circle id="椭圆_1940" data-name="椭圆 1940" class="cls-12" cx="2.397" cy="2.397" r="2.397" transform="translate(391.044 1309.975)"/>
      <path id="路径_10946" data-name="路径 10946" class="cls-13" d="M375.394,1319.827s-2.73.458-2.108,2.464,3.383,5.831,4.835,6.261,4.074-.124,4.441-.858,3.838-4.39,3.793-5.206S387.35,1318.349,375.394,1319.827Z"/>
      <path id="路径_10947" data-name="路径 10947" class="cls-10" d="M389.623,1289.842s3.786.128,11.816,3.192c.951,0,15.279-60.1,4.55-60.505s-10.322,12.495-10.729,17.248S389.691,1288.212,389.623,1289.842Z"/>
      <path id="路径_10948" data-name="路径 10948" class="cls-14" d="M370.745,1290.167s-3.787,0-11.916,2.794c-.95-.031-13.259-60.575-2.522-60.623s9.9,12.834,10.146,17.6S370.732,1288.536,370.745,1290.167Z"/>
      <line id="直线_146" data-name="直线 146" class="cls-15" y2="4.843" transform="translate(379.777 1328.703)"/>
      <path id="路径_10949" data-name="路径 10949" class="cls-15" d="M372.539,1331.068s6.644,6.432,14.764,0"/>
      <path id="路径_10950" data-name="路径 10950" class="cls-16" d="M422.906,1330.3a10.436,10.436,0,1,0-12,15.426A33.187,33.187,0,0,0,422.906,1330.3Z"/>
      <path id="路径_10951" data-name="路径 10951" class="cls-16" d="M346.161,1325.32a10.407,10.407,0,0,0-7.4,3.079,32.2,32.2,0,0,0,11.869,16.787,10.434,10.434,0,0,0-4.468-19.866Z"/>
    </g>
  </g>
</svg>
