<svg xmlns="http://www.w3.org/2000/svg" width="246.044" height="157.343" viewBox="0 0 246.044 157.343">
  <defs>
    <style>
      .cls-1 {
        fill: #679d2f;
      }

      .cls-2 {
        fill: #578e20;
      }

      .cls-3 {
        fill: #ca8f3f;
      }

      .cls-4 {
        fill: #eaad59;
      }

      .cls-5 {
        fill: #e19a3b;
      }

      .cls-6 {
        fill: #fff;
      }

      .cls-7, .cls-8 {
        fill: #7d4921;
        font-size: 25.435px;
        font-weight: 700;
      }

      .cls-7 {
        font-family: MicrosoftYaHei-Bold, Microsoft YaHei;
      }

      .cls-8 {
        font-family: TimesNewRomanPS-BoldMT, Times New Roman;
      }

      .cls-9 {
        fill: #9fd641;
      }

      .cls-10 {
        fill: #f7ffd4;
      }

      .cls-11 {
        fill: #44916d;
      }

      .cls-12 {
        fill: #a0c148;
      }

      .cls-13 {
        fill: #f1afa1;
      }

      .cls-14, .cls-15 {
        fill: none;
        stroke-linecap: round;
        stroke-linejoin: round;
        stroke-width: 2.2px;
      }

      .cls-14 {
        stroke: #a0c148;
      }

      .cls-15 {
        stroke: #78aa21;
      }

      .cls-16 {
        fill: #2b71b0;
      }

      .cls-17 {
        fill: #e7ffff;
      }
    </style>
  </defs>
  <g id="组_3978" data-name="组 3978" transform="translate(-595.977 -1236.098)">
    <g id="组_3977" data-name="组 3977">
      <path id="路径_11117" data-name="路径 11117" class="cls-1" d="M819.49,1295.8s5.061-14.01,15.218-18.631c6.3,7.4,10.739,26.234,3.794,34.028S819.49,1295.8,819.49,1295.8Z"/>
      <rect id="矩形_1380" data-name="矩形 1380" class="cls-2" width="2.457" height="15.472" rx="1.229" transform="translate(832.043 1288.745) rotate(7.543)"/>
      <path id="路径_11118" data-name="路径 11118" class="cls-3" d="M820.56,1294.949s16.723-1.615,21.24,12.871c.335,9.657,0,54.082,0,54.082l-3.178.965s3.977,16.418,3.327,18.074-3.495,11.175-15.037,11.175H686.728s-14.255-2.76-14.255-10.624S820.56,1294.949,820.56,1294.949Z"/>
      <path id="路径_11119" data-name="路径 11119" class="cls-4" d="M835.332,1370.079a17,17,0,0,1,.037,1.805,15.937,15.937,0,0,1-.472,3.472c-2.442,9.525-13.388,11.388-13.388,11.388h-139.6c-5.2,0-9.416-3.407-9.431-7.619-.007-5.451-.007-12.967.051-19.578.022-2.776.058-5.393.109-7.626v-.094c.007-.406.022-.79.029-1.167.072-2.682.159-4.668.29-5.466-.522-1.7-.5-9.684-.363-16.947v-.029c.131-6.669.363-12.736.363-12.736l-.131-4.7-.029-1.138c-.181-6.386,6-11.7,13.882-11.946,26.74-.812,83.062-2.493,96.131-2.631,14.831,5.241,14.382-.45,14.382-.45l26.276.312c6.6.08,11.9,4.407,11.953,9.75l.058,6.1.065,7.589.3,32.286.014,1.167.036,4.385s-3.791,2.806-4.124,2.987c-.3.152,1.384,2.4,2.936,8.191.1.4.2.819.311,1.261s.218.9.319,1.377Z"/>
      <path id="路径_11120" data-name="路径 11120" class="cls-5" d="M835.543,1323.948l-162.721,15.226s-.1-1.183-.229-3.035v-.029c.131-8.242.36-15.729.36-15.729l-.131-5.8c2.16,2.177,162.652,0,162.652,0Z"/>
      <path id="路径_11121" data-name="路径 11121" class="cls-5" d="M835.332,1370.079a17,17,0,0,1,.037,1.805,15.937,15.937,0,0,1-.472,3.472c-14.171-1.131-159.043-15.483-162.37-15.809a.339.339,0,0,0-.058-.007v-8.88H835.84l.014,1.167.036,4.385s-3.791,2.806-4.124,2.987c-.3.152,1.384,2.4,2.936,8.191.1.4.2.819.311,1.261C835.122,1369.108,835.224,1369.586,835.332,1370.079Z"/>
      <path id="路径_11122" data-name="路径 11122" class="cls-6" d="M691.021,1310.567s.669,6.164-3.792,18.413,4.684,43.473,4.461,44.514c4.8-.641,58.215-1.682,71.821,1.2s57.211-3.682,57.211-3.682-8.029-6.724,1.561-31.063c4.015-10.969-1.672-29.382-1.672-29.382S752.247,1315.69,691.021,1310.567Z"/>
      <text id="快到_下午" data-name="快到
下午" class="cls-7" transform="translate(703.894 1337.828)"><tspan x="0" y="0">快到</tspan><tspan x="0" y="30.522">下午</tspan></text>
      <text id="_3:00" data-name="3:00" class="cls-8" transform="translate(756.832 1351.174)"><tspan x="0" y="0">3:00</tspan></text>
    </g>
    <g id="图层_2" data-name="图层 2">
      <g id="图层_1-2" data-name="图层 1-2">
        <path id="路径_11123" data-name="路径 11123" class="cls-9" d="M642.5,1356.474s-14.465,4-16.781,14.351c1.5,4,6.306,5.331,7.866,4.924l1.56-.406s1.975-5.38,5.153-6.022,5.688-4.225,5.688-4.624S642.5,1356.474,642.5,1356.474Z"/>
        <path id="路径_11124" data-name="路径 11124" class="cls-9" d="M670.367,1356.474s14.465,4,16.781,14.351c-1.5,4-6.306,5.331-7.866,4.924l-1.568-.406s-1.967-5.38-5.152-6.022-5.689-4.225-5.689-4.624S670.367,1356.474,670.367,1356.474Z"/>
        <path id="路径_11125" data-name="路径 11125" class="cls-9" d="M642.567,1355.417s-4.876,19.585-3.828,26.062,30.678,5.786,33.319,2.437-.975-27.524-1.5-28.531S647.89,1347.429,642.567,1355.417Z"/>
        <path id="路径_11126" data-name="路径 11126" class="cls-10" d="M625.721,1370.825s-1.625,4.136-.39,4.445a4.061,4.061,0,0,0,2.893-.463c.268-.228.235,2.625.812,3.047s2.511-1.04,2.706-1.389,1.463,1.625,1.853,1.739,1.626-2.349,1.52-2.861-2.682-.049-2.836-.049a8.111,8.111,0,0,0-3.413-1.414A19.682,19.682,0,0,0,625.721,1370.825Z"/>
        <path id="路径_11127" data-name="路径 11127" class="cls-10" d="M687.148,1370.825s1.626,4.136.391,4.445a4.06,4.06,0,0,1-2.893-.463c-.269-.228-.236,2.625-.813,3.047s-2.5-1.04-2.7-1.389-1.463,1.625-1.853,1.739-1.625-2.349-1.528-2.861,2.69-.057,2.845-.057a8.027,8.027,0,0,1,3.413-1.406A19.621,19.621,0,0,1,687.148,1370.825Z"/>
        <path id="路径_11128" data-name="路径 11128" class="cls-9" d="M642.242,1384.5a13.7,13.7,0,0,0-.943,4.924c.114,2.316-3.738.309-4.2,2.162s16.537,2.316,17.675,1.389,1.016-6.541,1.016-6.541S647.077,1379.569,642.242,1384.5Z"/>
        <path id="路径_11129" data-name="路径 11129" class="cls-9" d="M670,1384.5a13.694,13.694,0,0,1,.942,4.924c-.113,2.316,3.739.309,4.2,2.162s-16.538,2.316-17.675,1.389-1.032-6.541-1.032-6.541S665.166,1379.569,670,1384.5Z"/>
        <path id="路径_11130" data-name="路径 11130" class="cls-10" d="M646.833,1358.944s-8.549,14.668-3.25,19.658,23.461,5.258,25.939,1.779-1.016-19.828-3.25-21.437S647.622,1357.489,646.833,1358.944Z"/>
        <path id="路径_11131" data-name="路径 11131" class="cls-11" d="M632.872,1333.841s-7.582,2.438-5.079-2.99c2.284-3.681,3.909-6.5.39-5.323s-8.809,2.17-7.655-4.063c.553-1.382,4.876-4.372,4.5-5.884s-.227-.991-5.493-1.251-9-7.03-4.795-10.516c.918-.195,2.974,1.1,4.608-2.438s.365-16.634.365-16.634-1.04-8.233,2.682-7.794c1.317,1.585,1.536,3.2,2.349,3.161s5.022,1.228,5.615-2.909,4.144-7.086,4.8-6.688,2.885,4.535,3.941,2.495c.447-2.535,2.617-16.3,8.338-13.344,1.121,1.382.723,2.633.625,3.649s1.187,3.356,1.577,2.2,3.056-16.992,7.606-17.455,4.933,1.349,5.851,2.438,4.112,13.937,4.307,14.725,1.154,1.243,1.577-.528a9.864,9.864,0,0,0-.358-4.771c-.235-.455,0-4.5,4.73-2.787a18.2,18.2,0,0,1,5.753,4.266c.2.041-1.251,10.719-1.154,11.377s.5,1.447,1.154.724,4.746-.48,4.478-3.023,3.771.26,4.12,2.364.244,9.338,2.544,8.744,3.486-2.5,3.486-3.486,1.967-1.974,3.153-.528,1.187,18.211,0,21.364c-.569,2.585,2.869,4.958,4.933,4.738s5.428,6.331-1.934,10.1c-3.413,1.227-7.184-.877-7.623,1.666.813,2.016,2.365,4.063,3.771,4.64s2.625,5.689-3.251,6.315a17.329,17.329,0,0,1-4.656-.911c-.277,0-.935-.308-.626.919s3.153,4.429,3.023,6.054-.479,3.25-3.86,2.535a34.111,34.111,0,0,1-6.192-1.974c-.845-.325-9.411-10.711-9.411-10.711l-25.939-.7S636.407,1333.321,632.872,1333.841Z"/>
        <path id="路径_11132" data-name="路径 11132" class="cls-9" d="M630.434,1289.309s-13.937-7.493-22.608-6.437c0,1.707,1.089,19.455,18.537,19.805,2.974-.529,8.76-7.891,8.321-9.468S630.434,1289.309,630.434,1289.309Z"/>
        <path id="路径_11133" data-name="路径 11133" class="cls-9" d="M682.134,1289.309s13.937-7.493,22.616-6.437c0,1.707-1.1,19.455-18.536,19.805-2.982-.529-8.768-7.891-8.33-9.468S682.134,1289.309,682.134,1289.309Z"/>
        <path id="路径_11134" data-name="路径 11134" class="cls-12" d="M686.645,1290.991s7.078-3.812,11.49-3.251c0,.87-.56,9.882-9.418,10.061-1.512-.268-4.453-4.007-4.226-4.8S686.645,1290.991,686.645,1290.991Z"/>
        <path id="路径_11135" data-name="路径 11135" class="cls-12" d="M625.908,1290.991s-7.078-3.812-11.483-3.251c0,.87.553,9.882,9.41,10.061,1.512-.268,4.454-4.007,4.234-4.8S625.908,1290.991,625.908,1290.991Z"/>
        <path id="路径_11136" data-name="路径 11136" class="cls-9" d="M631.71,1290.17s.244-6.6,10.41-10.369,25.5-4.21,36.9,3.941c0,0,1.853,1.227,3.112,5.567a16.784,16.784,0,0,1,.61,2.893s8.549,4.843,4.144,8.094c-1.186.983-7.037-.724-7.037-.724S676.925,1298,677.86,1326c0,0,2.438,8.346,5.412,11.572s7.054,13.669-7.143,18.927-33.4,4.063-43.736-2.8-.683-17.878-.683-17.878,4.014-5.965,3.925-10.873-2.763-24.647-4.12-24.721-5.087,3.592-6.574-.609,5.607-7.363,6.5-7.72S631.71,1290.17,631.71,1290.17Z"/>
        <path id="路径_11137" data-name="路径 11137" class="cls-13" d="M631.71,1290.17s-14.571-7.038-6.152-37.008c4.291-17.447,9.11-17.447,10.687-16.919s2.8,1.926,2.437,5.867-4.558,13.815-4.558,14.287-.959,4.737-.959,5.176,5.6-6.972,9.2-4.648-1.821,9.54-1.821,9.54a19.553,19.553,0,0,1-5.014,5.274c-2.714,1.666-3.73,3.535-2.267,8.062s2.048,6.4,2.048,6.4S635.757,1290.373,631.71,1290.17Z"/>
        <path id="路径_11138" data-name="路径 11138" class="cls-13" d="M680.948,1290.17s14.563-7.038,6.152-37.016c-4.291-17.439-9.118-17.439-10.695-16.911s-2.8,1.926-2.438,5.867,4.559,13.815,4.559,14.287.967,4.737.967,5.176-5.615-6.972-9.239-4.648,1.828,9.54,1.828,9.54a19.429,19.429,0,0,0,5.014,5.274c2.722,1.666,3.722,3.535,2.267,8.062s-2.007,6.4-2.007,6.4S676.9,1290.373,680.948,1290.17Z"/>
        <circle id="椭圆_1999" data-name="椭圆 1999" class="cls-12" cx="3.592" cy="3.592" r="3.592" transform="translate(638.528 1342.033)"/>
        <circle id="椭圆_2000" data-name="椭圆 2000" class="cls-12" cx="3.592" cy="3.592" r="3.592" transform="translate(668.23 1342.033)"/>
        <path id="路径_11139" data-name="路径 11139" class="cls-14" d="M647.711,1336.507s8.728-4.4,17.545.357"/>
        <path id="路径_11140" data-name="路径 11140" class="cls-14" d="M648.889,1332.371a16.377,16.377,0,0,1,14.985,0"/>
        <path id="路径_11141" data-name="路径 11141" class="cls-14" d="M647.711,1292.12s8.736-4.4,17.545.325"/>
        <path id="路径_11142" data-name="路径 11142" class="cls-14" d="M648.889,1287.976a16.377,16.377,0,0,1,14.985,0"/>
        <path id="路径_11143" data-name="路径 11143" class="cls-14" d="M650.076,1328.689s6.5-3.949,12.555,0"/>
        <path id="路径_11144" data-name="路径 11144" class="cls-14" d="M634.1,1344.528s-4.339-14.628-16.96-3.812c-2.234,2.763-1.576,11.044-6.444,13.539s-15.513.268-13.279-9.752"/>
        <path id="路径_11145" data-name="路径 11145" class="cls-15" d="M678.469,1344.528s4.34-14.628,16.96-3.812c2.235,2.763,1.626,11.044,6.445,13.539s15.513.268,13.278-9.752"/>
        <circle id="椭圆_2001" data-name="椭圆 2001" class="cls-6" cx="12.71" cy="12.71" r="12.71" transform="translate(658.665 1297.086)"/>
        <circle id="椭圆_2002" data-name="椭圆 2002" class="cls-16" cx="9.882" cy="9.882" r="9.882" transform="translate(660.469 1302.693)"/>
        <circle id="椭圆_2003" data-name="椭圆 2003" class="cls-17" cx="3.917" cy="3.917" r="3.917" transform="translate(672.87 1306.073)"/>
        <circle id="椭圆_2004" data-name="椭圆 2004" class="cls-6" cx="12.71" cy="12.71" r="12.71" transform="translate(628.784 1297.086)"/>
        <circle id="椭圆_2005" data-name="椭圆 2005" class="cls-16" cx="9.882" cy="9.882" r="9.882" transform="translate(632.636 1302.693)"/>
        <circle id="椭圆_2006" data-name="椭圆 2006" class="cls-17" cx="3.917" cy="3.917" r="3.917" transform="translate(632.165 1306.073)"/>
      </g>
    </g>
  </g>
</svg>
