<svg xmlns="http://www.w3.org/2000/svg" width="347.172" height="246.042" viewBox="0 0 347.172 246.042">
  <defs>
    <style>
      .cls-1 {
        fill: #679d2f;
      }

      .cls-2 {
        fill: #578e20;
      }

      .cls-3 {
        fill: #c58632;
      }

      .cls-4 {
        fill: #b3782d;
      }

      .cls-5 {
        fill: #ca8f3f;
      }

      .cls-6 {
        fill: #eaad59;
      }

      .cls-7 {
        fill: #e19a3b;
      }

      .cls-8 {
        fill: #ffeac2;
      }

      .cls-9 {
        fill: #b6b9c7;
      }

      .cls-10 {
        fill: #ece7e6;
      }

      .cls-11 {
        fill: #9aaab5;
      }

      .cls-12 {
        fill: #fec1c3;
      }

      .cls-13 {
        fill: #f8696c;
      }

      .cls-14 {
        fill: none;
        stroke: #f8696c;
        stroke-linecap: round;
        stroke-linejoin: round;
        stroke-width: 2.69px;
      }

      .cls-15 {
        fill: #fff;
      }

      .cls-16 {
        fill: #2b71b0;
      }

      .cls-17 {
        fill: #e7ffff;
      }

      .cls-18 {
        fill: #9ea1af;
      }

      .cls-19 {
        fill: #fcb2a9;
      }

      .cls-20 {
        fill: #854c2b;
        font-size: 38px;
        font-family: MicrosoftYaHei-Bold, Microsoft YaHei;
        font-weight: 700;
        letter-spacing: 0.049em;
        isolation: isolate;
      }
    </style>
  </defs>
  <g id="组_5146" data-name="组 5146" transform="translate(-24 -428)">
    <g id="组_5144" data-name="组 5144" transform="translate(858.65 706.941)">
      <path id="路径_14134" data-name="路径 14134" class="cls-1" d="M-702.9-69.317s12.308-9,27.309-5.538c.692,13.385-10.252,37.738-24.4,40.447S-702.9-69.317-702.9-69.317Z"/>
      <rect id="矩形_2617" data-name="矩形 2617" class="cls-2" width="3.39" height="21.344" rx="1.695" transform="translate(-688.227 -64.411) rotate(45)"/>
      <path id="路径_14135" data-name="路径 14135" class="cls-3" d="M-732.134-274.1v236.51a4.5,4.5,0,0,0,4.5,4.5H-706.9V-278.941h-20.386A4.846,4.846,0,0,0-732.134-274.1Z"/>
      <path id="路径_14136" data-name="路径 14136" class="cls-4" d="M-698.9-273.479v236.3a4.1,4.1,0,0,1-4.1,4.1h-3.9V-278.941h2.538A5.461,5.461,0,0,1-698.9-273.479Z"/>
      <path id="路径_14137" data-name="路径 14137" class="cls-5" d="M-630.353-254.007s23.07-2.7,29.3,21.529c.462,16.155,0,90.466,0,90.466l-4.385,1.615s5.488,27.463,4.59,30.232-4.82,18.693-20.744,18.693H-814.984s-19.665-4.615-19.665-17.77S-630.353-254.007-630.353-254.007Z"/>
      <path id="路径_14138" data-name="路径 14138" class="cls-6" d="M-609.975-126.014c.063,1.1.078,2.145.055,3.154-.473,21.384-19.129,25.311-19.129,25.311H-821.631a13,13,0,0,1-13.01-12.979c-.024-13.183-.016-33.456.213-46.332v-.165c.1-5.575.244-9.746.441-11.3-.717-2.886-.686-16.5-.5-28.875v-.04c.182-11.37.5-21.7.5-21.7l-.181-8-.04-1.932a19.91,19.91,0,0,1,19.153-20.351c36.894-1.388,114.592-4.25,132.617-4.487,20.461,8.926,19.846-.764,19.846-.764l36.247.528a16.726,16.726,0,0,1,16.488,16.606l.079,10.4.094,12.923.426,56.993.055,7.475s-5.235,4.77-5.693,5.078S-612.286-139.245-609.975-126.014Z"/>
      <path id="路径_14139" data-name="路径 14139" class="cls-7" d="M-609.684-214.018l-224.484,21.006s-.134-1.632-.316-4.187v-.04c.182-11.37.5-21.7.5-21.7l-.181-8c2.98,3,224.39,0,224.39,0Z"/>
      <path id="路径_14140" data-name="路径 14140" class="cls-7" d="M-609.975-126.014c.063,1.1.078,2.145.055,3.154-4.29,0-224.508-21.92-224.508-21.92v-12.245h225.17l.055,7.475s-5.235,4.77-5.693,5.078S-612.286-139.245-609.975-126.014Z"/>
      <path id="路径_14141" data-name="路径 14141" class="cls-8" d="M-809.061-232.478s.923,11.847-5.231,35.387,6.462,83.542,6.154,85.542c6.616-1.231,80.312-3.231,99.082,2.307s78.926-7.077,78.926-7.077-11.077-12.921,2.154-59.693c5.539-21.079-2.308-56.466-2.308-56.466S-724.595-222.631-809.061-232.478Z"/>
    </g>
    <g id="组_3940" data-name="组 3940" transform="translate(-118 -6)">
      <path id="路径_10871" data-name="路径 10871" class="cls-9" d="M384.76,636.633s-4.273,9.784-6.334,13.277-4.122,6.667-3.607,8.415,3.548,4.763,4.931,3.174,6.663-12.541,7.049-13.182-1.8,13.813,0,17.306,19.325,7.3,24.865,3.81,7.6-4.445,7.987-8.89,0-15.872,0-15.872,4.638,13.017,6.571,13.971,5.54-1.906,5.025-3.969-9.662-17.777-9.662-17.777S410.427,619.7,384.76,636.633Z"/>
      <path id="路径_10872" data-name="路径 10872" class="cls-9" d="M387.912,666.762s1.21,2.517-1.37,5.851-2.706,6.509,0,7.144,10.435.317,11.08-2.064.515-10.931.515-10.931Z"/>
      <path id="路径_10873" data-name="路径 10873" class="cls-9" d="M416.225,666.762s-1.21,2.517,1.371,5.851,2.7,6.509,0,7.144-10.437.317-11.079-2.064S406,666.762,406,666.762Z"/>
      <ellipse id="椭圆_1892" data-name="椭圆 1892" class="cls-10" cx="11.631" cy="14.333" rx="11.631" ry="14.333" transform="translate(391.56 633.276)"/>
      <path id="路径_10874" data-name="路径 10874" class="cls-11" d="M419.651,660.547s1.127,5.041,5.669,2.659a7.459,7.459,0,0,1,10.131,2.937q.167.3.3.619a10.708,10.708,0,0,1,1.353,5.493,3.914,3.914,0,0,1-2.029-2.142c-.869-1.786-3.479-6.457-8.019-3.351s-8.734-.5-9.006-1.91S419.651,660.547,419.651,660.547Z"/>
      <circle id="椭圆_1893" data-name="椭圆 1893" class="cls-9" cx="34.241" cy="34.241" r="34.241" transform="translate(310.228 516.053)"/>
      <circle id="椭圆_1894" data-name="椭圆 1894" class="cls-12" cx="26.773" cy="26.773" r="26.773" transform="translate(317.696 523.521)"/>
      <circle id="椭圆_1895" data-name="椭圆 1895" class="cls-9" cx="34.241" cy="34.241" r="34.241" transform="translate(420.689 516.053)"/>
      <circle id="椭圆_1896" data-name="椭圆 1896" class="cls-12" cx="26.773" cy="26.773" r="26.773" transform="translate(428.157 523.521)"/>
      <path id="路径_10875" data-name="路径 10875" class="cls-9" d="M405.625,531.131s-4.791,7.326,0,10.708c3.381-.469,22.263,1.973,33.817,16.628s11.837,24.8,11.556,26.49-2.422,8.174.057,14.374,9.432,25.229-11.049,33.536c-25.5,10.345-82.318,8.205-90.634-8.006s-.394-27.221.452-28.912-4.416-30.343,20.995-45.936a103.979,103.979,0,0,1,17.707-7.891s-1.572-5.708,1.105-8.032l2.537-1.345s.069,4.933,1.057,5.919S394.7,529.3,405.625,531.131Z"/>
      <path id="路径_10876" data-name="路径 10876" class="cls-13" d="M391.533,605.812s-.845-5.072,8.455-4.508,10.145.134,10.427,3.24-5.073,11.7-7.891,12.26S394.492,616.944,391.533,605.812Z"/>
      <line id="直线_142" data-name="直线 142" class="cls-14" x2="0.09" y2="8.56" transform="translate(400.215 616.947)"/>
      <path id="路径_10877" data-name="路径 10877" class="cls-10" d="M396.4,624.56l-.291,6.124s2.395.563,3.311,0,1.033-5.355,1.033-5.355.658,5.291,1.293,5.605,3.093.391,3.24,0,0-6.374,0-6.374A24.566,24.566,0,0,1,396.4,624.56Z"/>
      <path id="路径_10878" data-name="路径 10878" class="cls-14" d="M384.77,619.434s12.963,12.213,33.161,0"/>
      <circle id="椭圆_1897" data-name="椭圆 1897" class="cls-15" cx="10.247" cy="10.247" r="10.247" transform="translate(418.387 584.824)"/>
      <circle id="椭圆_1898" data-name="椭圆 1898" class="cls-16" cx="7.967" cy="7.967" r="7.967" transform="translate(419.545 589.209)"/>
      <circle id="椭圆_1899" data-name="椭圆 1899" class="cls-17" cx="3.157" cy="3.157" r="3.157" transform="translate(429.781 592.659)"/>
      <circle id="椭圆_1900" data-name="椭圆 1900" class="cls-15" cx="10.247" cy="10.247" r="10.247" transform="translate(364.987 584.649)"/>
      <circle id="椭圆_1901" data-name="椭圆 1901" class="cls-16" cx="7.967" cy="7.967" r="7.967" transform="translate(368.388 589.034)"/>
      <circle id="椭圆_1902" data-name="椭圆 1902" class="cls-17" cx="3.157" cy="3.157" r="3.157" transform="translate(366.855 592.483)"/>
      <path id="路径_10879" data-name="路径 10879" class="cls-18" d="M423.032,571.745s-3.455-3.115,2.188-3.273,9.913,3.184,10.19,5.613-2.942,1.862-4.413.942-4.046-2.109-5.293-1.995S423.032,571.745,423.032,571.745Z"/>
      <path id="路径_10880" data-name="路径 10880" class="cls-18" d="M377.73,571.675s3.041-3.52-2.576-2.975-9.442,4.39-9.415,6.835,3.15,1.48,4.5.386,3.753-2.6,5-2.636S377.73,571.675,377.73,571.675Z"/>
      <path id="路径_10881" data-name="路径 10881" class="cls-19" d="M432.937,621.227a16.391,16.391,0,0,0,5.486,12.24c.538-.2,1.076-.389,1.583-.6,15.871-6.436,15.267-19.307,13.039-27.663a16.41,16.41,0,0,0-20.108,16.023Z"/>
      <path id="路径_10882" data-name="路径 10882" class="cls-19" d="M368.387,621.227a16.419,16.419,0,0,0-22.4-15.315,29.777,29.777,0,0,0,3.39,18.949c1.958,3.82,6.634,6.848,12.937,9.126A16.409,16.409,0,0,0,368.387,621.227Z"/>
    </g>
    <text id="_10:00" data-name="10:00" class="cls-20" transform="translate(82.455 554.039)"><tspan x="0" y="0">10:00</tspan></text>
  </g>
</svg>
