<svg xmlns="http://www.w3.org/2000/svg" width="148.147" height="68.511" viewBox="0 0 148.147 68.511">
  <defs>
    <style>
      .cls-1 {
        fill: #ccd9ff;
      }

      .cls-2 {
        fill: #8ca6fd;
      }

      .cls-3, .cls-4 {
        isolation: isolate;
      }

      .cls-4 {
        fill: #fff;
        font-size: 37.308px;
        font-family: TimesNewRomanPS-BoldMT, Times New Roman;
        font-weight: 700;
        letter-spacing: 0.049em;
      }

      .cls-5 {
        font-family: MicrosoftYaHei-Bold, Microsoft YaHei;
      }
    </style>
  </defs>
  <g id="组_3877" data-name="组 3877" transform="translate(-875.988 -1960.833)">
    <path id="路径_10528" data-name="路径 10528" class="cls-1" d="M950.064,2029.344H992.2a11.162,11.162,0,0,0,5.78-1.613l23.138-14.008a6.246,6.246,0,0,0,3.013-5.342v-27.649a6.244,6.244,0,0,0-3.179-5.437l-23.087-13.023a11.168,11.168,0,0,0-5.483-1.439H907.735a11.167,11.167,0,0,0-5.482,1.439L879.166,1975.3a6.244,6.244,0,0,0-3.178,5.437v27.649a6.243,6.243,0,0,0,3.012,5.342l23.138,14.008a11.159,11.159,0,0,0,5.779,1.613Z"/>
    <path id="路径_10529" data-name="路径 10529" class="cls-2" d="M950.064,2024.256h38.167a10.6,10.6,0,0,0,5.235-1.373l20.958-11.929a5.255,5.255,0,0,0,2.729-4.548v-23.543a5.272,5.272,0,0,0-2.879-4.63l-20.91-11.088a10.625,10.625,0,0,0-4.966-1.226H911.73a10.618,10.618,0,0,0-4.965,1.226l-20.911,11.087a5.272,5.272,0,0,0-2.878,4.631v23.543a5.259,5.259,0,0,0,2.728,4.548l20.959,11.928a10.594,10.594,0,0,0,5.234,1.374Z"/>
    <g id="_4_8" data-name=" 4 8" class="cls-3">
      <text id="_11_时" data-name="11 时" class="cls-4" transform="translate(905.466 2007.148)"><tspan x="0" y="0">11 </tspan><tspan class="cls-5" y="0">时</tspan></text>
    </g>
  </g>
</svg>
