<svg xmlns="http://www.w3.org/2000/svg" width="148.147" height="68.51" viewBox="0 0 148.147 68.51">
  <defs>
    <style>
      .cls-1 {
        fill: #ccd9ff;
      }

      .cls-2 {
        fill: #8ca6fd;
      }

      .cls-3, .cls-4 {
        isolation: isolate;
      }

      .cls-4 {
        fill: #fff;
        font-size: 37.308px;
        font-family: TimesNewRomanPS-BoldMT, Times New Roman;
        font-weight: 700;
        letter-spacing: 0.049em;
      }

      .cls-5 {
        font-family: MicrosoftYaHei-Bold, Microsoft YaHei;
      }
    </style>
  </defs>
  <g id="组_3877" data-name="组 3877" transform="translate(-875.988 -1753.714)">
    <path id="路径_10528" data-name="路径 10528" class="cls-1" d="M950.064,1822.224H992.2a11.162,11.162,0,0,0,5.78-1.612l23.138-14.009a6.244,6.244,0,0,0,3.013-5.341v-27.649a6.244,6.244,0,0,0-3.179-5.437l-23.087-13.023a11.158,11.158,0,0,0-5.483-1.439H907.735a11.157,11.157,0,0,0-5.482,1.439l-23.087,13.023a6.243,6.243,0,0,0-3.178,5.437v27.649A6.241,6.241,0,0,0,879,1806.6l23.138,14.009a11.159,11.159,0,0,0,5.779,1.612Z"/>
    <path id="路径_10529" data-name="路径 10529" class="cls-2" d="M950.064,1817.136h38.167a10.6,10.6,0,0,0,5.235-1.373l20.958-11.928a5.258,5.258,0,0,0,2.729-4.548v-23.543a5.273,5.273,0,0,0-2.879-4.631l-20.91-11.087a10.6,10.6,0,0,0-4.966-1.226H911.73a10.593,10.593,0,0,0-4.965,1.226l-20.911,11.086a5.274,5.274,0,0,0-2.878,4.631v23.543a5.257,5.257,0,0,0,2.728,4.548l20.959,11.929a10.593,10.593,0,0,0,5.234,1.373Z"/>
    <g id="_4_8" data-name=" 4 8" class="cls-3">
      <text id="_9_时" data-name="9 时" class="cls-4" transform="translate(914.678 1800.029)"><tspan x="0" y="0">9 </tspan><tspan class="cls-5" y="0">时</tspan></text>
    </g>
  </g>
</svg>
