<svg xmlns="http://www.w3.org/2000/svg" width="154.147" height="74.51" viewBox="0 0 154.147 74.51">
  <defs>
    <style>
      .cls-1, .cls-4, .cls-7 {
        fill: #fff;
      }

      .cls-1 {
        stroke-miterlimit: 10;
      }

      .cls-2 {
        fill: #8ca6fd;
      }

      .cls-3, .cls-4 {
        isolation: isolate;
      }

      .cls-4 {
        font-size: 37.308px;
        font-family: TimesNewRomanPS-BoldMT, Times New Roman;
        font-weight: 700;
        letter-spacing: 0.049em;
      }

      .cls-5 {
        font-family: MicrosoftYaHei-Bold, Microsoft YaHei;
      }

      .cls-6, .cls-7 {
        stroke: none;
      }
    </style>
  </defs>
  <g id="组_3877" data-name="组 3877" transform="translate(-1055.363 -1750.714)">
    <g id="路径_10528" data-name="路径 10528" class="cls-1">
      <path class="cls-6" d="M 1174.578979492188 1823.723999023438 L 1132.43896484375 1823.723999023438 L 1090.2919921875 1823.723999023438 C 1087.979858398438 1823.723999023438 1085.712890625 1823.091674804688 1083.736206054688 1821.895263671875 L 1060.59814453125 1807.88623046875 C 1059.460815429688 1807.198364257813 1058.51416015625 1806.222534179688 1057.861206054688 1805.064575195313 C 1057.208251953125 1803.906616210938 1056.863037109375 1802.591674804688 1056.863037109375 1801.261962890625 L 1056.863037109375 1773.613037109375 C 1056.8642578125 1770.822143554688 1058.374633789063 1768.23828125 1060.8046875 1766.869140625 L 1083.89111328125 1753.846435546875 C 1085.783813476563 1752.778564453125 1087.934326171875 1752.213989257813 1090.109985351563 1752.213989257813 L 1174.760986328125 1752.213989257813 C 1176.937377929688 1752.213989257813 1179.088256835938 1752.778564453125 1180.981201171875 1753.846557617188 L 1204.067993164063 1766.869506835938 C 1206.498046875 1768.23876953125 1208.0087890625 1770.822509765625 1208.010009765625 1773.612426757813 L 1208.010009765625 1801.261962890625 C 1208.009399414063 1802.59228515625 1207.663940429688 1803.906982421875 1207.010864257813 1805.064697265625 C 1206.357666015625 1806.22265625 1205.411010742188 1807.198364257813 1204.273193359375 1807.886596679688 L 1181.135864257813 1821.895141601563 C 1179.159057617188 1823.091674804688 1176.891723632813 1823.723999023438 1174.578979492188 1823.723999023438 Z"/>
      <path class="cls-7" d="M 1174.578979492188 1822.223999023438 C 1176.616943359375 1822.223999023438 1178.615966796875 1821.6669921875 1180.359008789063 1820.612060546875 L 1203.496948242188 1806.60302734375 C 1205.366943359375 1805.472045898438 1206.509033203125 1803.447021484375 1206.510009765625 1801.261962890625 L 1206.510009765625 1773.613037109375 C 1206.509033203125 1771.359985351563 1205.2939453125 1769.281982421875 1203.3310546875 1768.176025390625 L 1180.244018554688 1755.152954101563 C 1178.571044921875 1754.208984375 1176.682006835938 1753.713989257813 1174.760986328125 1753.713989257813 L 1090.109985351563 1753.713989257813 C 1088.18994140625 1753.713989257813 1086.301025390625 1754.208984375 1084.628051757813 1755.152954101563 L 1061.541015625 1768.176025390625 C 1059.578002929688 1769.281982421875 1058.364013671875 1771.359985351563 1058.363037109375 1773.613037109375 L 1058.363037109375 1801.261962890625 C 1058.363037109375 1803.447021484375 1059.505004882813 1805.472045898438 1061.375 1806.60302734375 L 1084.512939453125 1820.612060546875 C 1086.255981445313 1821.6669921875 1088.254028320313 1822.223999023438 1090.2919921875 1822.223999023438 L 1132.43896484375 1822.223999023438 L 1174.578979492188 1822.223999023438 M 1174.578979492188 1825.223999023438 L 1132.43896484375 1825.223999023438 L 1090.2919921875 1825.223999023438 C 1087.7060546875 1825.223999023438 1085.170532226563 1824.516723632813 1082.959594726563 1823.178588867188 L 1059.8212890625 1809.169311523438 C 1058.464111328125 1808.348510742188 1057.334106445313 1807.183715820313 1056.5546875 1805.801391601563 C 1055.775146484375 1804.419067382813 1055.363037109375 1802.849365234375 1055.363037109375 1801.261962890625 L 1055.363037109375 1773.613037109375 C 1055.364501953125 1770.281127929688 1057.16748046875 1767.196655273438 1060.068481445313 1765.562255859375 L 1083.154174804688 1752.5400390625 C 1085.271118164063 1751.345458984375 1087.676513671875 1750.713989257813 1090.109985351563 1750.713989257813 L 1174.760986328125 1750.713989257813 C 1177.195068359375 1750.713989257813 1179.600952148438 1751.345458984375 1181.71826171875 1752.540161132813 L 1204.804931640625 1765.563110351563 C 1207.705200195313 1767.197143554688 1209.508544921875 1770.281494140625 1209.510009765625 1773.611694335938 L 1209.510009765625 1801.261962890625 C 1209.50927734375 1802.850463867188 1209.096923828125 1804.419799804688 1208.317260742188 1805.8017578125 C 1207.53759765625 1807.183837890625 1206.407592773438 1808.3486328125 1205.049438476563 1809.170043945313 L 1181.912841796875 1823.178344726563 C 1179.701416015625 1824.516723632813 1177.16552734375 1825.223999023438 1174.578979492188 1825.223999023438 Z"/>
    </g>
    <path id="路径_10529" data-name="路径 10529" class="cls-2" d="M1132.439,1817.136h38.167a10.6,10.6,0,0,0,5.235-1.373l20.958-11.928a5.257,5.257,0,0,0,2.729-4.548v-23.543a5.272,5.272,0,0,0-2.879-4.631l-20.91-11.087a10.6,10.6,0,0,0-4.966-1.226H1094.1a10.593,10.593,0,0,0-4.965,1.226l-20.911,11.086a5.274,5.274,0,0,0-2.878,4.631v23.543a5.258,5.258,0,0,0,2.728,4.548l20.959,11.929a10.594,10.594,0,0,0,5.234,1.373Z"/>
    <g id="_4_8" data-name=" 4 8" class="cls-3">
      <text id="_9_时" data-name="9 时" class="cls-4" transform="translate(1097.053 1800.029)"><tspan x="0" y="0">9 </tspan><tspan class="cls-5" y="0">时</tspan></text>
    </g>
  </g>
</svg>
