<svg xmlns="http://www.w3.org/2000/svg" width="154.147" height="74.511" viewBox="0 0 154.147 74.511">
  <defs>
    <style>
      .cls-1, .cls-4, .cls-7 {
        fill: #fff;
      }

      .cls-1 {
        stroke-miterlimit: 10;
      }

      .cls-2 {
        fill: #8ca6fd;
      }

      .cls-3, .cls-4 {
        isolation: isolate;
      }

      .cls-4 {
        font-size: 37.308px;
        font-family: TimesNewRomanPS-BoldMT, Times New Roman;
        font-weight: 700;
        letter-spacing: 0.049em;
      }

      .cls-5 {
        font-family: MicrosoftYaHei-Bold, Microsoft YaHei;
      }

      .cls-6, .cls-7 {
        stroke: none;
      }
    </style>
  </defs>
  <g id="组_3877" data-name="组 3877" transform="translate(-1055.363 -1957.833)">
    <g id="路径_10528" data-name="路径 10528" class="cls-1">
      <path class="cls-6" d="M 1174.578979492188 2030.843994140625 L 1132.43896484375 2030.843994140625 L 1090.2919921875 2030.843994140625 C 1087.980834960938 2030.843994140625 1085.7138671875 2030.211303710938 1083.736206054688 2029.01416015625 L 1060.59814453125 2015.006225585938 C 1059.460815429688 2014.318359375 1058.51416015625 2013.34228515625 1057.861083984375 2012.183959960938 C 1057.208129882813 2011.025756835938 1056.863037109375 2009.710693359375 1056.863037109375 2008.380981445313 L 1056.863037109375 1980.732055664063 C 1056.8642578125 1977.9423828125 1058.374389648438 1975.358642578125 1060.80419921875 1973.988403320313 L 1083.89111328125 1960.965454101563 C 1085.785888671875 1959.8974609375 1087.936279296875 1959.3330078125 1090.109985351563 1959.3330078125 L 1174.760986328125 1959.3330078125 C 1176.935424804688 1959.3330078125 1179.086181640625 1959.8974609375 1180.980590820313 1960.965209960938 L 1204.067993164063 1973.988525390625 C 1206.498046875 1975.357788085938 1208.0087890625 1977.941650390625 1208.010009765625 1980.7314453125 L 1208.010009765625 2008.380981445313 C 1208.009399414063 2009.711303710938 1207.663940429688 2011.026123046875 1207.010864257813 2012.18408203125 C 1206.357666015625 2013.342407226563 1205.411010742188 2014.318359375 1204.273193359375 2015.006591796875 L 1181.135864257813 2029.01416015625 C 1179.158081054688 2030.211303710938 1176.890747070313 2030.843994140625 1174.578979492188 2030.843994140625 Z"/>
      <path class="cls-7" d="M 1174.578979492188 2029.343994140625 C 1176.616943359375 2029.343994140625 1178.615966796875 2028.786010742188 1180.359008789063 2027.73095703125 L 1203.496948242188 2013.723022460938 C 1205.366943359375 2012.592041015625 1206.509033203125 2010.566040039063 1206.510009765625 2008.380981445313 L 1206.510009765625 1980.732055664063 C 1206.509033203125 1978.47900390625 1205.2939453125 1976.401000976563 1203.3310546875 1975.295043945313 L 1180.244018554688 1962.27197265625 C 1178.571044921875 1961.328979492188 1176.682006835938 1960.8330078125 1174.760986328125 1960.8330078125 L 1090.109985351563 1960.8330078125 C 1088.18994140625 1960.8330078125 1086.301025390625 1961.328979492188 1084.628051757813 1962.27197265625 L 1061.541015625 1975.295043945313 C 1059.578002929688 1976.401977539063 1058.364013671875 1978.47900390625 1058.363037109375 1980.732055664063 L 1058.363037109375 2008.380981445313 C 1058.363037109375 2010.566040039063 1059.505004882813 2012.592041015625 1061.375 2013.723022460938 L 1084.512939453125 2027.73095703125 C 1086.255981445313 2028.786010742188 1088.254028320313 2029.343994140625 1090.2919921875 2029.343994140625 L 1132.43896484375 2029.343994140625 L 1174.578979492188 2029.343994140625 M 1174.578979492188 2032.343994140625 L 1132.43896484375 2032.343994140625 L 1090.2919921875 2032.343994140625 C 1087.70703125 2032.343994140625 1085.17138671875 2031.63623046875 1082.95947265625 2030.29736328125 L 1059.8212890625 2016.289428710938 C 1058.464111328125 2015.468505859375 1057.334106445313 2014.303344726563 1056.554443359375 2012.920654296875 C 1055.775024414063 2011.5380859375 1055.363037109375 2009.96826171875 1055.363037109375 2008.380981445313 L 1055.363037109375 1980.732055664063 C 1055.364501953125 1977.401489257813 1057.167114257813 1974.3173828125 1060.067504882813 1972.681884765625 L 1083.154174804688 1959.659057617188 C 1085.273681640625 1958.464233398438 1087.6787109375 1957.8330078125 1090.109985351563 1957.8330078125 L 1174.760986328125 1957.8330078125 C 1177.192993164063 1957.8330078125 1179.598388671875 1958.464233398438 1181.717163085938 1959.658569335938 L 1204.804931640625 1972.68212890625 C 1207.705200195313 1974.316162109375 1209.508544921875 1977.400512695313 1209.510009765625 1980.730712890625 L 1209.510009765625 2008.380981445313 C 1209.50927734375 2009.969360351563 1209.096923828125 2011.538818359375 1208.317504882813 2012.9208984375 C 1207.537719726563 2014.303588867188 1206.40771484375 2015.468627929688 1205.049438476563 2016.2900390625 L 1181.912719726563 2030.297241210938 C 1179.700439453125 2031.636352539063 1177.164672851563 2032.343994140625 1174.578979492188 2032.343994140625 Z"/>
    </g>
    <path id="路径_10529" data-name="路径 10529" class="cls-2" d="M1132.439,2024.256h38.167a10.6,10.6,0,0,0,5.235-1.373l20.958-11.929a5.255,5.255,0,0,0,2.729-4.548v-23.543a5.272,5.272,0,0,0-2.879-4.63l-20.91-11.088a10.625,10.625,0,0,0-4.966-1.226H1094.1a10.618,10.618,0,0,0-4.965,1.226l-20.911,11.087a5.272,5.272,0,0,0-2.878,4.631v23.543a5.259,5.259,0,0,0,2.728,4.548l20.959,11.928a10.6,10.6,0,0,0,5.234,1.374Z"/>
    <g id="_4_8" data-name=" 4 8" class="cls-3">
      <text id="_11_时" data-name="11 时" class="cls-4" transform="translate(1087.841 2007.148)"><tspan x="0" y="0">11 </tspan><tspan class="cls-5" y="0">时</tspan></text>
    </g>
  </g>
</svg>
