<svg xmlns="http://www.w3.org/2000/svg" width="154.147" height="74.51" viewBox="0 0 154.147 74.51">
  <defs>
    <style>
      .cls-1, .cls-4, .cls-7 {
        fill: #fff;
      }

      .cls-1 {
        stroke-miterlimit: 10;
      }

      .cls-2 {
        fill: #8ca6fd;
      }

      .cls-3, .cls-4 {
        isolation: isolate;
      }

      .cls-4 {
        font-size: 37.308px;
        font-family: TimesNewRomanPS-BoldMT, Times New Roman;
        font-weight: 700;
        letter-spacing: 0.049em;
      }

      .cls-5 {
        font-family: MicrosoftYaHei-Bold, Microsoft YaHei;
      }

      .cls-6, .cls-7 {
        stroke: none;
      }
    </style>
  </defs>
  <g id="组_3877" data-name="组 3877" transform="translate(-1055.363 -1854.274)">
    <g id="路径_10528" data-name="路径 10528" class="cls-1">
      <path class="cls-6" d="M 1174.578979492188 1927.284057617188 L 1132.43896484375 1927.284057617188 L 1090.2919921875 1927.284057617188 C 1087.981079101563 1927.284057617188 1085.714111328125 1926.6513671875 1083.736328125 1925.454345703125 L 1060.59814453125 1911.446166992188 C 1059.4609375 1910.75830078125 1058.514282226563 1909.782348632813 1057.861206054688 1908.624145507813 C 1057.208129882813 1907.466064453125 1056.863037109375 1906.151245117188 1056.863037109375 1904.822021484375 L 1056.863037109375 1877.172973632813 C 1056.8642578125 1874.382202148438 1058.374633789063 1871.79833984375 1060.8046875 1870.42919921875 L 1083.89111328125 1857.405639648438 C 1085.784790039063 1856.338134765625 1087.932983398438 1855.774047851563 1090.103637695313 1855.774047851563 L 1090.11083984375 1855.774047851563 L 1174.760986328125 1855.774047851563 C 1176.9365234375 1855.774047851563 1179.087280273438 1856.338134765625 1180.980590820313 1857.4052734375 L 1204.068115234375 1870.429565429688 C 1206.498168945313 1871.798828125 1208.0087890625 1874.382690429688 1208.010009765625 1877.17236328125 L 1208.010009765625 1904.822021484375 C 1208.009399414063 1906.152221679688 1207.663940429688 1907.467041015625 1207.010864257813 1908.624755859375 C 1206.357666015625 1909.782592773438 1205.411010742188 1910.75830078125 1204.273193359375 1911.446533203125 L 1181.135864257813 1925.454223632813 C 1179.157836914063 1926.6513671875 1176.890502929688 1927.284057617188 1174.578979492188 1927.284057617188 Z"/>
      <path class="cls-7" d="M 1174.578979492188 1925.784057617188 C 1176.616943359375 1925.784057617188 1178.615966796875 1925.225952148438 1180.359008789063 1924.171020507813 L 1203.496948242188 1910.162963867188 C 1205.366943359375 1909.031982421875 1206.509033203125 1907.006958007813 1206.510009765625 1904.822021484375 L 1206.510009765625 1877.172973632813 C 1206.509033203125 1874.9189453125 1205.2939453125 1872.842041015625 1203.3310546875 1871.735961914063 L 1180.244018554688 1858.712036132813 C 1178.571044921875 1857.76904296875 1176.682006835938 1857.274047851563 1174.760986328125 1857.274047851563 L 1090.109985351563 1857.274047851563 C 1090.108032226563 1857.274047851563 1090.105712890625 1857.274047851563 1090.103759765625 1857.274047851563 C 1088.185791015625 1857.274047851563 1086.29931640625 1857.77001953125 1084.628051757813 1858.712036132813 L 1061.541015625 1871.735961914063 C 1059.578002929688 1872.842041015625 1058.364013671875 1874.920043945313 1058.363037109375 1877.172973632813 L 1058.363037109375 1904.822021484375 C 1058.363037109375 1907.005981445313 1059.505004882813 1909.031982421875 1061.375 1910.162963867188 L 1084.512939453125 1924.171020507813 C 1086.255981445313 1925.225952148438 1088.254028320313 1925.784057617188 1090.2919921875 1925.784057617188 L 1132.43896484375 1925.784057617188 L 1174.578979492188 1925.784057617188 M 1174.578979492188 1928.784057617188 L 1132.43896484375 1928.784057617188 L 1090.2919921875 1928.784057617188 C 1087.707153320313 1928.784057617188 1085.171630859375 1928.076416015625 1082.959594726563 1926.737548828125 L 1059.8212890625 1912.729248046875 C 1058.464233398438 1911.908569335938 1057.334228515625 1910.743530273438 1056.554565429688 1909.36083984375 C 1055.775024414063 1907.978393554688 1055.363037109375 1906.408935546875 1055.363037109375 1904.822021484375 L 1055.363037109375 1877.172973632813 C 1055.364501953125 1873.841186523438 1057.16748046875 1870.7568359375 1060.068359375 1869.122314453125 L 1083.154052734375 1856.09912109375 C 1085.272583007813 1854.904907226563 1087.675415039063 1854.274047851563 1090.103759765625 1854.274047851563 L 1090.109985351563 1854.274047851563 L 1174.760986328125 1854.274047851563 C 1177.194091796875 1854.274047851563 1179.599487304688 1854.904907226563 1181.717163085938 1856.0986328125 L 1204.805053710938 1869.123046875 C 1207.705200195313 1870.75732421875 1209.508544921875 1873.841552734375 1209.510009765625 1877.171630859375 L 1209.510009765625 1904.822021484375 C 1209.50927734375 1906.410400390625 1209.096923828125 1907.979736328125 1208.317260742188 1909.361694335938 C 1207.53759765625 1910.743896484375 1206.407592773438 1911.908569335938 1205.049438476563 1912.72998046875 L 1181.912719726563 1926.7373046875 C 1179.700317382813 1928.076416015625 1177.164428710938 1928.784057617188 1174.578979492188 1928.784057617188 Z"/>
    </g>
    <path id="路径_10529" data-name="路径 10529" class="cls-2" d="M1132.439,1920.7h38.167a10.6,10.6,0,0,0,5.235-1.373L1196.8,1907.4a5.257,5.257,0,0,0,2.729-4.548V1879.3a5.273,5.273,0,0,0-2.879-4.631l-20.91-11.088a10.612,10.612,0,0,0-4.966-1.225H1094.1a10.605,10.605,0,0,0-4.965,1.225l-20.911,11.087a5.273,5.273,0,0,0-2.878,4.631v23.543a5.259,5.259,0,0,0,2.728,4.548l20.959,11.928a10.587,10.587,0,0,0,5.234,1.374Z"/>
    <g id="_4_8" data-name=" 4 8" class="cls-3">
      <text id="_10_时" data-name="10 时" class="cls-4" transform="translate(1086.811 1903.589)"><tspan x="0" y="0">10 </tspan><tspan class="cls-5" y="0">时</tspan></text>
    </g>
  </g>
</svg>
