<svg xmlns="http://www.w3.org/2000/svg" width="230.862" height="282.674" viewBox="0 0 230.862 282.674">
  <defs>
    <style>
      .cls-1 {
        fill: #a35234;
      }

      .cls-2 {
        fill: #ca6f4d;
      }

      .cls-3 {
        fill: #fdba72;
      }

      .cls-4 {
        fill: #fee9c9;
      }

      .cls-5 {
        fill: #fed698;
      }

      .cls-6 {
        fill: #44882c;
      }

      .cls-7 {
        fill: #deffbd;
      }

      .cls-8 {
        fill: #699e37;
      }

      .cls-9 {
        fill: #e39739;
      }

      .cls-10 {
        fill: #b9491e;
      }
    </style>
  </defs>
  <g id="组_5247" data-name="组 5247" transform="translate(-903.932 -56.22)">
    <g id="组_5245" data-name="组 5245">
      <g id="组_5244" data-name="组 5244">
        <rect id="矩形_2802" data-name="矩形 2802" class="cls-1" width="230.862" height="278.817" rx="7.036" transform="translate(903.932 60.077)"/>
        <rect id="矩形_2803" data-name="矩形 2803" class="cls-2" width="230.862" height="278.817" rx="7.036" transform="translate(903.932 56.22)"/>
        <rect id="矩形_2804" data-name="矩形 2804" class="cls-3" width="212.446" height="252.282" rx="6.127" transform="translate(913.14 69.882)"/>
        <rect id="矩形_2805" data-name="矩形 2805" class="cls-4" width="212.446" height="238.145" rx="5.953" transform="translate(913.14 69.882)"/>
        <rect id="矩形_2806" data-name="矩形 2806" class="cls-5" width="212.446" height="236.529" rx="5.846" transform="translate(913.14 76.122)"/>
      </g>
    </g>
    <g id="组_5246" data-name="组 5246">
      <path id="路径_14869" data-name="路径 14869" class="cls-6" d="M1020.855,168.228s11.964-19.2,15.365-26.432c4.582-9.739,3.757-25.7-4.215-34.123s-19.785-12.475-28.129-4.455-10.711,18.875-6.476,29.214,17.867,34.482,18.689,36.939S1020.855,168.228,1020.855,168.228Z"/>
      <path id="路径_14870" data-name="路径 14870" class="cls-7" d="M1017.412,181.586h0a1.912,1.912,0,0,0,1.977-1.809l1.277-23.9a16.052,16.052,0,0,0,6.524-8.69.446.446,0,0,0-.756-.43,41.648,41.648,0,0,1-5.024,4.562l1.017-10.547s6.345-.643,7.63-11.417a.413.413,0,0,0-.766-.252c-2.6,4.421-5.234,5.642-5.234,5.642s2.411-11.832-4.355-14.847-3.739,13.64-3.739,13.64-6.083-1.976-8.836-7.594a.435.435,0,0,0-.816.256c.612,5.109,4.6,10.135,9.912,13.789.29,5.135.118,9.929.118,9.929a19.363,19.363,0,0,1-7.512-7.007.311.311,0,0,0-.567.232c1.034,4.561,4.195,10.173,8.149,12.494-.14,2.4-.663,18.413-.843,23.981A1.911,1.911,0,0,0,1017.412,181.586Z"/>
      <path id="路径_14871" data-name="路径 14871" class="cls-8" d="M1005.457,167.722s.332-22.624-.487-30.57c-1.1-10.707-10.049-23.949-21.225-27.048s-23.385-.47-26.391,10.706.571,21.7,9.537,28.363,33.1,20.308,35.074,21.988S1005.457,167.722,1005.457,167.722Z"/>
      <path id="路径_14872" data-name="路径 14872" class="cls-7" d="M1010.635,182.719h0a2.039,2.039,0,0,0,.81-2.74l-11.991-22.528a17.114,17.114,0,0,0,1.175-11.525.476.476,0,0,0-.928.023,44.251,44.251,0,0,1-2.076,6.93l-4.876-10.188s5.439-4.08.683-14.624a.44.44,0,0,0-.838.191c.059,5.468-1.674,8.032-1.674,8.032s-4.31-12.13-12.148-11.159,4.093,14.512,4.093,14.512-6.641,1.544-12.247-2.07a.463.463,0,0,0-.6.683c3.371,4.327,9.778,6.722,16.639,7.134,3.092,4.528,5.573,9,5.573,9a20.657,20.657,0,0,1-10.716-2.263.331.331,0,0,0-.389.523c3.454,3.6,9.43,6.98,14.317,6.922,1.192,2.269,9.528,17.177,12.429,22.36A2.037,2.037,0,0,0,1010.635,182.719Z"/>
      <path id="路径_14873" data-name="路径 14873" class="cls-8" d="M1029.549,167.722s-.332-22.624.487-30.57c1.1-10.707,10.049-23.949,21.225-27.048s23.386-.47,26.391,10.706-.571,21.7-9.536,28.363-33.1,20.308-35.075,21.988S1029.549,167.722,1029.549,167.722Z"/>
      <path id="路径_14874" data-name="路径 14874" class="cls-7" d="M1025.324,181.341h0a1.941,1.941,0,0,1-.771-2.609l11.415-21.446a16.291,16.291,0,0,1-1.119-10.971.453.453,0,0,1,.884.022,42.087,42.087,0,0,0,1.976,6.6l4.642-9.7s-5.178-3.884-.651-13.922a.419.419,0,0,1,.8.182c-.056,5.206,1.594,7.647,1.594,7.647s4.1-11.548,11.564-10.623-3.9,13.815-3.9,13.815,6.322,1.469,11.659-1.971a.441.441,0,0,1,.575.65c-3.209,4.12-9.308,6.4-15.84,6.792-2.943,4.311-5.306,8.568-5.306,8.568a19.666,19.666,0,0,0,10.2-2.154.315.315,0,0,1,.37.5c-3.288,3.423-8.976,6.645-13.629,6.59-1.135,2.16-9.071,16.352-11.832,21.286A1.94,1.94,0,0,1,1025.324,181.341Z"/>
    </g>
    <rect id="矩形_2807" data-name="矩形 2807" class="cls-9" width="72.094" height="9.863" transform="translate(983.316 277.665)"/>
    <rect id="矩形_2808" data-name="矩形 2808" class="cls-9" width="72.094" height="9.863" transform="translate(983.316 263.441)"/>
    <rect id="矩形_2809" data-name="矩形 2809" class="cls-9" width="72.094" height="9.863" transform="translate(983.316 249.217)"/>
    <rect id="矩形_2810" data-name="矩形 2810" class="cls-10" width="49.467" height="9.863" transform="translate(1024.294 199.75) rotate(90)"/>
  </g>
</svg>
