<svg xmlns="http://www.w3.org/2000/svg" width="230.862" height="282.674" viewBox="0 0 230.862 282.674">
  <defs>
    <style>
      .cls-1 {
        fill: #a35234;
      }

      .cls-2 {
        fill: #ca6f4d;
      }

      .cls-3 {
        fill: #fdba72;
      }

      .cls-4 {
        fill: #fee9c9;
      }

      .cls-5 {
        fill: #fed698;
      }

      .cls-6 {
        fill: #e39739;
      }

      .cls-7 {
        fill: #b9491e;
      }

      .cls-8 {
        fill: #fdb667;
      }

      .cls-9 {
        fill: #fda149;
      }
    </style>
  </defs>
  <g id="组_5243" data-name="组 5243" transform="translate(-527.067 -56.22)">
    <g id="组_5242" data-name="组 5242">
      <g id="组_5241" data-name="组 5241">
        <rect id="矩形_2795" data-name="矩形 2795" class="cls-1" width="230.862" height="278.817" rx="7.036" transform="translate(527.067 60.077)"/>
        <rect id="矩形_2796" data-name="矩形 2796" class="cls-2" width="230.862" height="278.817" rx="7.036" transform="translate(527.067 56.22)"/>
        <rect id="矩形_2797" data-name="矩形 2797" class="cls-3" width="212.446" height="252.282" rx="6.127" transform="translate(536.275 69.882)"/>
        <rect id="矩形_2798" data-name="矩形 2798" class="cls-4" width="212.446" height="238.145" rx="5.953" transform="translate(536.275 69.882)"/>
        <rect id="矩形_2799" data-name="矩形 2799" class="cls-5" width="212.446" height="236.529" rx="5.846" transform="translate(536.275 76.122)"/>
      </g>
    </g>
    <rect id="矩形_2800" data-name="矩形 2800" class="cls-6" width="72.094" height="9.863" transform="translate(606.451 269.02)"/>
    <rect id="矩形_2801" data-name="矩形 2801" class="cls-7" width="49.467" height="9.863" transform="translate(647.429 219.553) rotate(90)"/>
    <path id="路径_14865" data-name="路径 14865" class="cls-8" d="M666.333,182.033c-17.618,3.215-33.013-.323-36.383-18.791-3.454-18.91,9.786-27.218,27.4-30.434s40.6,4.434,43,17.584-16.407,28.427-34.015,31.641Z"/>
    <path id="路径_14866" data-name="路径 14866" class="cls-9" d="M693.3,167.572a58.685,58.685,0,0,1-6.03,1.433c-23.392,4.265-45.532-6.124-54.081-23.952-3.291,4.556-4.648,10.494-3.246,18.189,3.37,18.468,18.765,22.006,36.383,18.791A52.422,52.422,0,0,0,693.3,167.572Z"/>
    <path id="路径_14867" data-name="路径 14867" class="cls-8" d="M649.824,148.038c0,19.865-6.93,35.971-27.762,35.971-21.331,0-27.76-16.1-27.76-35.971s12.93-43.431,27.76-43.431S649.824,128.175,649.824,148.038Z"/>
    <path id="路径_14868" data-name="路径 14868" class="cls-9" d="M639.413,115.718a66.018,66.018,0,0,1,.359,6.867c0,26.377-15.756,48.477-36.914,54.257,4.314,4.5,10.526,7.169,19.206,7.169,20.83,0,27.762-16.1,27.762-35.971A58.128,58.128,0,0,0,639.413,115.718Z"/>
  </g>
</svg>
