<svg xmlns="http://www.w3.org/2000/svg" width="230.862" height="282.674" viewBox="0 0 230.862 282.674">
  <defs>
    <style>
      .cls-1 {
        fill: #a35234;
      }

      .cls-2 {
        fill: #ca6f4d;
      }

      .cls-3 {
        fill: #fdba72;
      }

      .cls-4 {
        fill: #fee9c9;
      }

      .cls-5 {
        fill: #fed698;
      }

      .cls-6 {
        fill: #e39739;
      }

      .cls-7 {
        fill: #fcfac6;
      }

      .cls-8 {
        fill: #ede391;
      }
    </style>
  </defs>
  <g id="组_5240" data-name="组 5240" transform="translate(-150.203 -56.22)">
    <g id="组_5238" data-name="组 5238">
      <g id="组_5237" data-name="组 5237">
        <rect id="矩形_2786" data-name="矩形 2786" class="cls-1" width="230.862" height="278.817" rx="7.036" transform="translate(150.203 60.077)"/>
        <rect id="矩形_2787" data-name="矩形 2787" class="cls-2" width="230.862" height="278.817" rx="7.036" transform="translate(150.203 56.22)"/>
        <rect id="矩形_2788" data-name="矩形 2788" class="cls-3" width="212.446" height="252.282" rx="6.127" transform="translate(159.411 69.882)"/>
        <rect id="矩形_2789" data-name="矩形 2789" class="cls-4" width="212.446" height="238.145" rx="5.953" transform="translate(159.411 69.882)"/>
        <rect id="矩形_2790" data-name="矩形 2790" class="cls-5" width="212.446" height="236.529" rx="5.846" transform="translate(159.411 76.122)"/>
      </g>
    </g>
    <rect id="矩形_2791" data-name="矩形 2791" class="cls-6" width="72.094" height="9.863" transform="translate(229.586 272.797)"/>
    <rect id="矩形_2792" data-name="矩形 2792" class="cls-6" width="72.094" height="9.863" transform="translate(229.586 258.573)"/>
    <rect id="矩形_2793" data-name="矩形 2793" class="cls-6" width="72.094" height="9.863" transform="translate(229.586 244.349)"/>
    <rect id="矩形_2794" data-name="矩形 2794" class="cls-6" width="72.094" height="9.863" transform="translate(229.586 229.776)"/>
    <g id="组_5239" data-name="组 5239">
      <path id="路径_14861" data-name="路径 14861" class="cls-7" d="M287.422,124.478a46.064,46.064,0,0,1-14.679-16.515c-.756-1.511-4.642-.27-7.016.7a5.361,5.361,0,0,1-3.886,0c-2.429-.972-6.26-2.213-7.016-.7a44.194,44.194,0,0,1-14.679,16.515c-18.188,12.682-33.407,56.883,23.638,56.883S305.609,137.16,287.422,124.478Z"/>
      <path id="路径_14862" data-name="路径 14862" class="cls-8" d="M224.225,159.072s.647,23.8,39.559,23.8,39.559-23.8,39.559-23.8-10.254,17.215-39.559,17.215S224.225,159.072,224.225,159.072Z"/>
      <path id="路径_14863" data-name="路径 14863" class="cls-8" d="M240.2,138.294a2.71,2.71,0,0,1-.648-.108,1.858,1.858,0,0,1-1.079-2.375c3.508-9.229,14.895-15.057,15.381-15.273a1.792,1.792,0,0,1,2.428.81,1.87,1.87,0,0,1-.809,2.482c-.108.054-10.578,5.343-13.546,13.276A1.8,1.8,0,0,1,240.2,138.294Zm13.33,2a2.338,2.338,0,0,1-.594-.107,1.881,1.881,0,0,1-1.187-2.321,36.109,36.109,0,0,1,5.72-11.172,1.836,1.836,0,1,1,2.753,2.429,31.732,31.732,0,0,0-5.019,9.93A1.732,1.732,0,0,1,253.53,140.29Zm33.676-1.025a1.9,1.9,0,0,1-1.781-1.349c-2.752-9.768-11.711-14.086-11.819-14.14a1.823,1.823,0,0,1,1.565-3.292c.432.216,10.524,5.019,13.762,16.46a1.829,1.829,0,0,1-1.241,2.267A1.5,1.5,0,0,1,287.206,139.265Zm-12.251,1.025a1.915,1.915,0,0,1-1.781-1.295,28.85,28.85,0,0,0-5.019-10.2,1.835,1.835,0,0,1,2.753-2.428c.162.161,3.616,4.155,5.774,11.6a1.828,1.828,0,0,1-1.241,2.266C275.279,140.236,275.117,140.29,274.955,140.29Z"/>
      <path id="路径_14864" data-name="路径 14864" class="cls-7" d="M270.826,110.461a1.7,1.7,0,0,1,1.605.673,42.394,42.394,0,0,0,14.084,15.845c17.45,12.169,32.1,54.577-22.68,54.577S223.653,139.2,241.1,127.031a44.2,44.2,0,0,0,14.085-15.845,1.7,1.7,0,0,1,1.6-.673,16.318,16.318,0,0,1,5.178,1.346,4.967,4.967,0,0,0,3.728,0,14.319,14.319,0,0,1,5.127-1.4m0-5.851a19.378,19.378,0,0,0-7.043,1.657,19.373,19.373,0,0,0-7.042-1.657,7.261,7.261,0,0,0-6.835,3.935,37.639,37.639,0,0,1-12.168,13.67c-12.117,8.492-21.9,27.858-17.036,43.289,3.158,9.994,13.2,21.955,43.081,21.955S303.706,175.5,306.865,165.5c4.816-15.379-4.919-34.8-17.036-43.289a37.628,37.628,0,0,1-12.168-13.67A7.329,7.329,0,0,0,270.826,104.61Z"/>
    </g>
  </g>
</svg>
