<svg xmlns="http://www.w3.org/2000/svg" width="75.218" height="75.218" viewBox="0 0 75.218 75.218">
  <defs>
    <style>
      .cls-1 {
        fill: #ccd9ff;
      }

      .cls-2 {
        fill: #8ca6fd;
      }

      .cls-3 {
        fill: #fff;
      }
    </style>
  </defs>
  <g id="组_6689" data-name="组 6689" transform="translate(-964 -602)">
    <g id="组_6675" data-name="组 6675" transform="translate(964 602)">
      <rect id="矩形_3664" data-name="矩形 3664" class="cls-1" width="75.218" height="75.218"/>
      <rect id="矩形_3665" data-name="矩形 3665" class="cls-2" width="63.218" height="63.218" transform="translate(6 6)"/>
    </g>
    <g id="组_4133" data-name="组 4133" transform="translate(985.57 623.518)">
      <path id="路径_11698" data-name="路径 11698" class="cls-3" d="M1181.412,937.469h4.95q-.128,3.333-.253,7.076h10.311v17.006q-.065,1.777,1.047,1.682h.666q1.047,0,1.269-1.524.222-1.491.445-5.33,1.839.762,4.314,1.619-.444,4-.793,5.869-.7,4.062-4.664,4.061h-2.792q-4.41,0-4.379-5.457V948.987h-5.615q-.571,13.579-9.677,19.544-1.65-1.968-3.68-4,8.185-4.983,8.534-15.547H1173.1v-4.442h8.154Q1181.38,940.77,1181.412,937.469Z" transform="translate(-1172.561 -937.469)"/>
    </g>
  </g>
</svg>
