<?xml version="1.0" encoding="UTF-8"?>
<svg width="151px" height="250px" viewBox="0 0 151 250" version="1.1" xmlns="http://www.w3.org/2000/svg" xmlns:xlink="http://www.w3.org/1999/xlink">
    <title>古人</title>
    <g id="人教一年级上" stroke="none" stroke-width="1" fill="none" fill-rule="evenodd">
        <g id="第13课练一练第3题" transform="translate(-365.000000, -399.000000)" fill-rule="nonzero">
            <g id="古人" transform="translate(365.235399, 399.272324)">
                <g id="组_11330" transform="translate(72.743302, 225.727676)" fill="#000000">
                    <path d="M6.15194529,11.5441338 C6.39331527,10.7012951 7.18217763,10.125074 8.08506768,10.1320295 C8.98795773,10.1391118 9.78612527,10.7276702 10.0409926,11.5743665 L13.1415327,21.8784711 C13.320444,22.473527 13.203286,23.1114026 12.8250986,23.6013209 C12.4469112,24.0912392 11.8515388,24.3764026 11.2170463,24.3715856 L5.17921443,24.324587 C4.54472106,24.3196008 3.94471819,24.0251448 3.55865562,23.5292854 C3.17259306,23.0334259 3.04522821,22.3936495 3.21465357,21.8013015 L6.15194529,11.5441338 Z" id="多边形_1" transform="translate(8.182408, 17.251808) rotate(-105.008914) translate(-8.182408, -17.251808) "></path>
                    <path d="M24.0026167,11.5750911 C24.257484,10.7283947 25.0556516,10.1398363 25.9585416,10.132754 C26.8614317,10.1257986 27.650294,10.7020197 27.891664,11.5448584 L30.8279445,21.8020339 C30.9973699,22.3943819 30.870005,23.0341583 30.4839425,23.5300178 C30.0978799,24.0258772 29.497877,24.3203332 28.8633837,24.3253194 L22.8255518,24.372318 C22.1910593,24.377135 21.5956869,24.0919716 21.2174995,23.6020533 C20.8393121,23.112135 20.7221541,22.4742594 20.9010654,21.8792035 L24.0026167,11.5750911 Z" id="多边形_2" transform="translate(25.860190, 17.252536) rotate(105.008914) translate(-25.860190, -17.252536) "></path>
                    <rect id="矩形_6942" x="8.13722797" y="0" width="6.87230384" height="15.1977044"></rect>
                    <rect id="矩形_6943" x="19.9183203" y="0" width="5.89054615" height="15.1977044"></rect>
                </g>
                <polygon id="路径_16997" fill="#FFCBA6" points="50.7646014 181.632157 53.5473662 185.175054 54.6403211 186.567204 54.7679444 186.727676 72.9038944 169.814512 81.7646014 161.551226 70.3159231 156.727676 50.8778311 181.491483"></polygon>
                <polygon id="路径_16995" fill="#FFCBA6" points="95.7646014 161.727676 109.660515 175.790066 122.445456 188.727676 122.579942 188.571369 122.977553 188.111952 126.764601 183.712108 126.655453 183.554745 111.775258 162.513438"></polygon>
                <g id="组_11332" transform="translate(48.764601, 150.727676)" fill="#4881EB">
                    <path d="M50.5264767,0 C50.5801476,13.5358617 51.6845503,27.045279 53.8289843,40.3973589 C56.353801,54.056932 59.8703863,67.4991516 64.348708,80.6092198 C64.348708,80.6092198 52.0828194,86 40.6656643,86 C29.2485093,86 18.6761123,80.6092198 18.6761123,80.6092198 C18.6761123,80.6092198 22.2260843,62.2232687 24.3270476,42.0668416 C26.4280108,21.9104145 27.0799653,0 27.0799653,0 L50.5264767,0 Z" id="路径_25638"></path>
                    <path d="M50.7918302,0 L75.7280974,20.772693 L78,23.5634085 L63.0368483,45.0801548 C63.0368483,45.0801548 62.3332144,45.8324526 59.9639162,42.8067728 C56.3195301,38.1548933 50.9866215,29.8095409 50.7918302,21.0787648 C50.4877172,7.39518999 50.7918302,0 50.7918302,0 Z" id="路径_25640"></path>
                    <path d="M27.2081698,0 L2.27190255,20.7737235 L0,23.564439 L14.9631517,45.0811854 C14.9631517,45.0811854 15.6667856,45.8334831 18.0360838,42.8078034 C21.6804699,38.1559238 27.0143724,29.8105715 27.2081698,21.0797953 C27.5132766,7.39518999 27.2081698,0 27.2081698,0 Z" id="路径_25644"></path>
                </g>
                <g id="编组-2" transform="translate(39.764601, 147.754379)">
                    <path d="M83.7244546,44.7875656 C83.8228973,44.8555218 83.9124802,44.9175688 84.0119073,44.9845402 L83.9912343,45.1992425 L83.6624357,48.5665234 C83.6256866,49.1221059 84.0269076,49.6105818 84.5788291,49.6822078 C85.1307506,49.7538338 85.6432664,49.3839389 85.7494212,48.8373635 L86.2603388,45.653269 C86.5064028,45.6613276 86.7527096,45.648809 86.9966903,45.6158438 L88.2380529,49.2185094 C88.4233508,49.7812339 89.0214315,50.0954448 89.5896713,49.9286029 C90.0377162,49.7842903 90.3399971,49.3653738 90.3358671,48.8944862 C90.3356085,48.7867175 90.3196912,48.6795589 90.2886146,48.5763722 L89.2195267,44.7865807 C89.3287982,44.7235488 89.3130473,44.7333976 89.4233032,44.6713506 L92.5537814,48.1479524 C92.7974721,48.4554104 93.1890803,48.6058536 93.575829,48.5405899 C93.9625777,48.4753263 94.2831941,48.2046956 94.4125973,47.8342781 C94.5420005,47.4638607 94.459689,47.0523419 94.1977747,46.7602663 L91.0042931,42.7813792 C91.0923609,42.6597989 91.1912035,42.546408 91.2996212,42.4425829 L94.3631584,44.1858081 C94.8704157,44.4955765 95.5326321,44.3352938 95.8422601,43.8278068 C96.1518882,43.3203198 95.9916781,42.6578034 95.4844209,42.3480351 L92.0615678,40.1399497 C91.722325,39.9172612 91.4686282,39.5860213 91.3419516,39.2003808 C91.3184956,39.117188 91.2905628,39.0353241 91.2582753,38.9551474 L93.7193431,38.0205029 C94.2433244,37.8314054 94.5298674,37.2671441 94.373539,36.7322588 C94.2172106,36.1973734 93.6719554,35.8764382 93.1286868,35.9995434 L89.3504555,36.7470621 C88.36656,36.2131934 87.2228689,36.053333 86.1303945,36.2969751 C85.2199876,36.4928325 84.3786638,36.9291587 83.6939374,37.5605672 C82.9107253,38.2704234 82.3643423,39.2038208 82.1286982,40.2344975 C82.067319,40.4772418 82.0287586,40.7251956 82.0135203,40.975122 C81.91879,42.1776672 82.3249114,43.3659323 83.1357672,44.2586888 C83.3149382,44.4550145 83.5127531,44.6334584 83.7264234,44.7915051" id="路径_16996" fill="#FFCBA6"></path>
                    <path d="M0.142893711,41.6219219 C0.435464126,42.1300341 1.0822598,42.3147256 1.60208322,42.0385912 L4.71845269,40.4446348 C4.82161669,40.5523308 4.91472393,40.6690969 4.99662925,40.793497 L1.65950045,44.5906901 C1.38672921,44.8665869 1.2868257,45.267981 1.39877548,45.6382357 C1.51072526,46.0084903 1.81678631,46.2889268 2.19752375,46.3701097 C2.57826119,46.4512926 2.973335,46.320356 3.22857466,46.0283955 L6.48650728,42.7264885 C6.59738193,42.7942955 6.57659293,42.7834857 6.68449772,42.8463791 L5.45695701,46.5502147 C5.268002,47.1015103 5.54989005,47.7027463 6.09646612,47.9142168 C6.65536915,48.1051127 7.26563119,47.818569 7.4715097,47.268576 L8.85744275,43.763248 C9.09869522,43.8031363 9.34251898,43.8257968 9.58703751,43.831055 L9.84442508,46.0392053 L9.95925953,46.9983307 C10.0532799,47.5289291 10.5400221,47.900341 11.080732,47.8540778 C11.6214419,47.8078147 12.036985,47.3592033 12.0381591,46.8204601 L11.8401687,43.2679619 C12.1716422,43.0789535 12.4782267,42.849872 12.7529046,42.5859609 C13.59573,41.7366655 14.0459602,40.578402 13.9962845,39.3872384 C13.9773488,38.6194653 13.7780235,37.8666952 13.4141926,37.1889152 C13.1665297,36.7307782 12.8519489,36.3115354 12.4806677,35.9448038 C11.8248451,35.2905468 11.0044553,34.8226129 10.1047825,34.5896461 C9.02925028,34.3078561 7.88754771,34.4187501 6.88743791,34.902148 L3.16719762,34.0059161 C2.63637624,33.8712063 2.09058193,34.1649708 1.91467894,34.6800629 C1.73877594,35.195155 1.99209528,35.7578372 2.49601004,35.971337 L4.89862398,36.9972867 C4.86146878,37.0754598 4.82842593,37.1554945 4.79962877,37.237068 C4.66129312,37.6131807 4.39571743,37.929957 4.04825506,38.1332999 L0.554713818,40.1753722 C0.0422754251,40.4619012 -0.148374001,41.1005816 0.12408462,41.6179911" id="路径_16998" fill="#FFCBA6"></path>
                    <g id="组_11333-2" transform="translate(5.948427, 0.000000)" fill="#D0E0FF">
                        <path d="M52.9354638,26.8540907 C52.9354638,26.8540907 50.116622,24.1423825 39.7825279,33.4079022 C29.4484337,42.673422 31.9995679,45.4623345 31.9995679,45.4623345 L33.8607956,46.9764545 C36.9945638,43.0820411 40.4609865,39.4761996 44.2225772,36.1979243 C47.3670919,33.6154442 50.8643355,31.4944629 54.6163088,29.8944139 L52.9354638,26.8540907 Z" id="路径_25637" transform="translate(43.168578, 36.730440) rotate(-142.000000) translate(-43.168578, -36.730440) "></path>
                        <polygon id="路径_25641" transform="translate(43.149495, 19.442262) rotate(30.000000) translate(-43.149495, -19.442262) " points="41.7870667 0.948113239 45.3077352 -0.769980223 46.7502465 -0.730765883 44.6512826 38.2176975 39.548743 39.6545042"></polygon>
                        <polygon id="路径_25642" transform="translate(39.249156, 9.840341) rotate(150.000000) translate(-39.249156, -9.840341) " points="36.3924539 16.2554595 42.1058575 19.5536713 41.7058695 0.127011462 36.5709942 1.26547174"></polygon>
                        <path d="M83.3116375,26.1169864 C83.3116375,26.1169864 80.6568371,23.6065525 70.4070549,32.7351145 C60.1572726,41.8636765 62.5521148,44.464897 62.5521148,44.464897 L64.2628921,46.1252291 C67.3980155,42.1978411 70.8677321,38.5674007 74.6289285,35.2790181 C77.7573133,32.7166442 81.1977013,30.5955181 84.8570869,28.9729812 L83.3116375,26.1169864 Z" id="路径_25643" transform="translate(73.583151, 35.963056) rotate(165.000000) translate(-73.583151, -35.963056) "></path>
                        <path d="M23.2528305,45.8111417 C23.2528305,45.8111417 20.5977202,48.3218517 10.346647,39.1921812 C0.0955737436,30.0625107 2.49066511,27.4579582 2.49066511,27.4579582 L4.20262346,25.7974529 C7.3381475,29.7253111 10.8083038,33.3561891 14.5699737,36.6449714 C17.6984466,39.2075764 21.1389286,41.3289597 24.7984246,42.9517811 L23.2528305,45.8111417 Z" id="路径_25645" transform="translate(13.523086, 35.962364) rotate(15.008914) translate(-13.523086, -35.962364) "></path>
                    </g>
                </g>
                <g id="编组" transform="translate(0.000000, 0.000000)">
                    <path d="M134.175434,117.184982 C137.754552,116.245142 141.32263,114.440726 142.932531,111.227516 C144.542431,108.014305 143.803724,103.701076 140.824805,101.578234 C138.863617,100.181983 133.028229,100.181983 130.335359,104.065819 L128.764601,106.8699 L128.764601,117.658762 C130.583984,117.834743 132.421592,117.672917 134.177441,117.182087" id="路径_17001" fill="#FFCBA6"></path>
                    <path d="M130.768286,110.851803 C132.094855,108.751428 134.142604,107.286397 136.473107,106.770373 C138.627717,106.318731 139.666827,109.569722 137.779584,110.8799 C136.405111,111.709415 134.881262,112.221133 133.307788,112.381558 C124.872488,113.693818 130.768286,110.851803 130.768286,110.851803" id="路径_17002" fill="#F17558"></path>
                    <path d="M40.631915,117.118484 C36.5744511,116.06827 32.5312922,114.05116 30.7074259,110.459697 C28.8835596,106.868234 29.7193706,102.051198 33.0973549,99.6785272 C35.3197129,98.1177378 41.932633,98.1177378 44.9846714,102.458108 L46.7646014,105.593251 L46.7646014,117.650373 C44.7039894,117.847441 42.6226348,117.666865 40.6339585,117.118484" id="路径_17003" fill="#FFCBA6"></path>
                    <path d="M43.5607682,110.850366 C42.1008585,108.751244 39.8482088,107.286862 37.284494,106.770343 C34.9187916,106.318979 33.7707871,109.568233 35.8470684,110.882139 C37.3592198,111.710842 39.0354466,112.222245 40.7662581,112.382945 C50.0461226,113.691244 43.5607682,110.854104 43.5607682,110.854104" id="路径_17004" fill="#F17558"></path>
                    <line x1="83.7646014" y1="87.9786765" x2="92.7646014" y2="88.4766765" id="直线_169" fill="#FFCBA6"></line>
                    <path d="M43.0004016,107.897191 L43.103777,108.559533 L43.6206542,112.052598 C44.0965501,116.026951 45.2509845,119.900341 47.0382458,123.519395 C49.3155869,128.181618 52.5903098,132.338264 56.6521605,135.722455 C58.6150431,137.350493 60.7502066,138.779457 63.0231881,139.986282 C69.1277082,143.255634 76.0420438,144.899573 83.0418395,144.745879 L82.4143507,152.772834 L88.6168763,162.727676 L95.7983672,152.772834 L95.5213211,144.475817 C99.0562178,144.020969 102.540724,143.26223 105.93226,142.208873 C107.947192,141.585571 109.921372,140.848328 111.844301,140.001066 C112.671304,139.637369 113.476599,139.254946 114.268455,138.847881 C121.040579,135.408039 126.742768,130.486799 129.98152,123.990525 C130.06422,123.838738 130.141752,123.682023 130.208946,123.524323 C130.337131,123.268059 130.451878,123.01081 130.569726,122.75159 C130.687574,122.49237 130.808523,122.205552 130.915,121.928591 L131.061793,121.547153 C132.379681,118.021062 132.942117,114.278693 132.7158,110.541631 C132.396544,105.549406 131.679462,100.587568 130.57076,95.6990585 C130.57076,95.6990585 128.224137,61.4790399 86.7044309,60.8078272 C86.7044309,60.8078272 38.9160385,56.6681896 43.0138404,107.889306" id="路径_17005" fill="#FFCBA6"></path>
                    <path d="M100.225368,107.196394 C102.150069,113.330636 109.54793,116.974386 116.749128,115.335023 C123.950327,113.695661 128.228035,107.393953 126.303759,101.259614 C124.379483,95.1252755 116.981875,91.4811539 109.780562,93.120154 C102.579212,94.7593047 98.3012275,101.060989 100.225368,107.195432" id="路径_17006" fill="#FFFFFF"></path>
                    <path d="M57.2226977,107.19843 C59.1488932,113.33216 66.5480472,116.974755 73.7496369,115.334623 C80.9512266,113.69449 85.2284718,107.392643 83.303401,101.258657 C81.3783302,95.1246699 73.9798443,91.4810909 66.7779539,93.1202654 C63.3191863,93.9071688 60.3692034,95.8323082 58.5771733,98.4720407 C56.7851433,101.111773 56.2979117,104.249789 57.2226977,107.195543" id="路径_17007" fill="#FFFFFF"></path>
                    <path d="M106.070995,104.680267 C107.010721,108.392341 109.976294,111.141322 113.584817,111.645313 C117.19334,112.149304 120.734141,110.309048 122.556086,106.982688 C124.378031,103.656328 124.122301,99.4989644 121.908148,96.4492464 C119.693994,93.3995284 115.957477,92.0580747 112.440998,93.0504276 C110.134913,93.7004029 108.167992,95.2910027 106.973139,97.4721497 C105.778286,99.6532967 105.453426,102.24623 106.07006,104.680267" id="路径_17008" fill="#7C3821"></path>
                    <path d="M113.849542,98.8730982 C114.206007,100.206559 115.576003,100.998651 116.90962,100.642348 C118.243237,100.286044 119.035535,98.9162505 118.679327,97.582721 C118.32312,96.2491915 116.953277,95.4568346 115.619591,95.8128804 C114.286279,96.1699867 113.494183,97.5394327 113.849542,98.8730982" id="路径_17009" fill="#FFFFFF"></path>
                    <path d="M106.764601,107.228526 C108.537445,110.037247 111.543221,111.727676 114.764601,111.727676 C117.985982,111.727676 120.991758,110.037247 122.764601,107.228526 C120.992385,104.418871 117.986384,102.727676 114.764601,102.727676 C111.542819,102.727676 108.536818,104.418871 106.764601,107.228526" id="路径_17010" fill="#9E5036"></path>
                    <path d="M46.767098,123.391717 C46.767098,123.391717 46.7614806,123.391717 46.767098,123.391717 C49.2425453,128.016939 52.8014776,132.140787 57.2156016,135.498729 C59.3498193,137.112948 61.6706418,138.530179 64.1408248,139.727676 C69.8190687,137.755778 73.3090893,132.748361 72.6948271,127.454553 C72.080565,122.160744 67.5106786,117.861706 61.4940856,116.917657 C55.4774927,115.973609 49.4702782,118.613021 46.7704685,123.386828" id="路径_17011" fill="#F59679"></path>
                    <path d="M108.209036,131.283627 C109.091516,134.407839 111.248681,137.0815 114.215051,138.727676 C121.303035,135.187239 127.271181,130.12208 130.660992,123.435826 C130.74755,123.279601 130.827616,123.118303 130.897944,122.95599 C131.048337,122.658756 131.183584,122.360507 131.323158,122.057186 C131.478961,121.704156 131.625027,121.347069 131.764601,120.986939 C128.085977,116.081249 121.185555,114.354068 115.388658,116.888028 C109.591761,119.421987 106.566444,125.48794 108.209036,131.283627" id="路径_17012" fill="#F59679"></path>
                    <path d="M64.0761021,104.679108 C65.0151891,108.391668 67.9799976,111.14118 71.5877607,111.64529 C75.1955238,112.1494 78.7355751,110.308806 80.5568585,106.981951 C82.378142,103.655095 82.1218964,99.4973095 79.907633,96.4477571 C77.6933696,93.3982048 73.9572597,92.0575944 70.4417999,93.0511777 C68.1332753,93.6948957 66.1632335,95.2842448 64.9683022,97.4669715 C63.7733709,99.6496983 63.4522469,102.245518 64.0761021,104.679108" id="路径_17013" fill="#7C3821"></path>
                    <path d="M72.7646014,111.727676 C75.985151,111.727676 78.9904595,110.038311 80.7646014,107.230658 C78.9926596,104.419728 75.9865599,102.727676 72.7646014,102.727676 C69.5426429,102.727676 66.5365432,104.419728 64.7646014,107.230658 C66.5387433,110.038311 69.5440518,111.727676 72.7646014,111.727676 Z" id="路径_17014" fill="#9E5036"></path>
                    <path d="M72.8494187,98.8724812 C73.1102287,99.8494701 73.9339203,100.573118 74.936352,100.705941 C75.9387836,100.838764 76.922508,100.354599 77.4287496,99.4792449 C77.9349912,98.6038907 77.8640365,97.5097641 77.2489764,96.7071283 C76.6339162,95.9044926 75.5958979,95.5514415 74.6190178,95.8126261 C73.9785163,95.9835945 73.432199,96.4020689 73.1003126,96.9759413 C72.7684263,97.5498138 72.6781733,98.232048 72.8494187,98.8724812" id="路径_17015" fill="#FFFFFF"></path>
                    <path d="M79.6160442,128.060934 C80.8539453,130.83959 83.2881191,132.85676 86.1878652,133.50692 C86.8437082,133.652112 87.512514,133.726101 88.1833264,133.727676 C89.5101891,133.727963 90.821849,133.436667 92.0307593,132.87323 C92.2689519,132.760881 92.5023616,132.642618 92.7309883,132.510559 C94.9568829,131.247048 96.58947,129.106644 97.2547352,126.579697 L97.7646014,124.655961 L79.1941849,120.727676 L78.918685,122.291697 C78.5709258,124.241825 78.8151024,126.254989 79.6179574,128.056992" id="路径_17016" fill="#DA5257"></path>
                    <path d="M79.7646014,127.75434 C81.0860417,130.683333 83.6844846,132.80964 86.7799187,133.494976 C87.480021,133.648023 88.1939608,133.726016 88.9100427,133.727676 C90.3264481,133.727979 91.7266248,133.420922 93.0171178,132.827001 C93.2713848,132.708573 93.520546,132.583912 93.7646014,132.444708 C91.5865758,130.49218 88.9639761,129.12353 86.1345503,128.46283 C84.0620831,127.881939 81.9114893,127.642742 79.7646014,127.75434" id="路径_17017" fill="#EE706E"></path>
                    <path d="M93.7646014,122.063033 L93.7646014,122.063033 C93.662564,122.600863 93.3577781,123.07452 92.917581,123.379357 C92.4773839,123.684193 91.9380066,123.79512 91.4186156,123.687628 L84.3666403,122.228808 C83.4353626,122.035389 82.7651016,121.189234 82.7646014,120.206352 L82.7646014,119.727676 L93.7646014,122.063033 Z" id="路径_17018" fill="#FFFFFF"></path>
                    <path d="M139.349664,92.2088935 C141.124802,87.4290309 142.329994,82.4722658 142.942278,77.4330417 C143.319372,74.55345 143.244039,71.6360034 142.718784,68.7777855 C142.551685,67.893555 139.56167,59.1192677 139.120949,59.4013412 C140.136071,58.7531723 138.613388,57.4568343 138.613388,57.4568343 C140.433026,57.7901899 142.287736,57.9141003 144.138075,57.8259305 C146.872764,57.4243642 149.290664,55.9053216 150.764601,53.6628453 C150.786498,53.6288364 140.573659,50.9621413 139.672373,50.6990727 C131.977497,48.4824949 128.086196,40.9845403 121.806433,36.7794441 C114.009209,31.558083 104.538914,29.1114452 95.1751438,28.1842035 C86.8843878,27.4541453 78.5349287,27.6000612 70.2774992,28.619317 C68.754816,28.619317 52.3478531,32.6693727 49.8079591,38.6629351 C50.5223043,36.9754952 45.5584408,29.1384523 43.4101835,29.2194734 C40.0682178,29.344506 42.2049871,39.4051286 43.4926883,41.2566112 C42.4013276,41.6657179 39.2985213,40.1353189 38.2332697,39.8492444 C36.3346155,39.3381111 29.235027,37.0305096 30.7796418,40.837502 C31.4699666,42.5379453 35.3142715,44.7125121 37.1774174,44.7125121 C37.434331,44.7125121 37.6160504,44.7405194 37.6557363,44.9865836 C36.4463624,46.6100068 34.418207,47.4602284 32.8986569,48.7945762 C26.9635347,54.0109361 24.0163387,65.5379409 23.0899876,72.9378699 C22.4255236,77.5978728 22.7811897,82.3393298 24.1343518,86.8604993 C25.4356297,90.9375621 28.1875296,94.4284721 30.8558804,97.7703433 C33.2788055,100.805134 35.5001684,104.77917 38.7575406,107.056764 C40.7334778,108.440125 45.6712322,111.340881 47.5855519,108.573159 C48.8607207,106.730679 47.8549979,102.813658 47.9521238,100.699107 C48.0649151,98.2724742 48.1547305,95.8438411 48.1808396,93.415208 C48.2069487,91.0515918 47.2252462,87.929778 50.8418798,88.3618907 C53.6616634,88.6979783 55.8778044,90.676494 58.9461466,90.8315345 C65.3742088,91.1546187 70.7871489,81.1100003 69.4336528,77.8701557 C68.0801567,74.6303111 74.8465929,84.0267606 76.2000891,84.999014 C76.2000891,84.999014 83.980603,83.9187324 87.1387606,77.6540994 C88.9423777,79.8146626 95.3996821,87.9147741 99.7118623,84.8369718 C99.7118623,83.7026761 98.1902235,80.1357463 98.5285975,78.0351987 C98.6977845,77.7111142 102.926416,90.8385363 125.930628,89.3761551 C125.930628,89.3761551 128.975994,90.0233238 129.991116,85.4871413 C130.160303,87.7557327 131.682986,99.2587313 133.036482,99.744858 C134.828611,100.387025 137.792517,95.7648205 138.335587,94.6025175 C138.692759,93.8363178 139.032178,93.0361092 139.351753,92.2118943" id="路径_17019" fill="#111111"></path>
                    <path d="M112.507401,87.8646686 L119.40301,89.7096429 C119.989719,89.8119308 120.561281,89.4697429 120.72179,88.9201032 C120.8823,88.3704636 120.578923,87.794291 120.021802,87.5906844 L113.126193,85.7457101 C112.539484,85.6434222 111.967922,85.9856101 111.807413,86.5352498 C111.646903,87.0848894 111.950279,87.661062 112.507401,87.8646686" id="路径_17020" fill="#060628"></path>
                    <path d="M67.1008791,87.7164257 L74.0034357,86.3795155 C74.5639682,86.2303349 74.8778305,85.789304 74.7268157,85.3630413 C74.5758008,84.9367786 74.0098676,84.6663004 73.4224705,84.7396517 L66.5199139,86.0774129 C65.9626681,86.2282418 65.651923,86.6678404 65.8024204,87.092422 C65.9529178,87.5170036 66.5152778,87.7872585 67.1008791,87.7164257" id="路径_17021" fill="#060628"></path>
                    <path d="M134.705858,70.4820755 C134.823303,70.950437 134.806525,71.6038538 134.258451,71.7135515 C133.802096,71.8089408 133.435222,71.4025824 133.205925,71.0544114 C131.769711,68.6636504 130.089157,66.3855206 128.183778,64.2464765 C126.434415,62.4340796 123.100112,61.2894079 121.764601,59.5781238 C129.041682,55.6499921 133.675703,66.3736581 134.70474,70.4820755" id="路径_17022" fill="#333333"></path>
                    <path d="M120.764601,51.7237439 C111.718113,44.671573 101.396739,38.5396353 89.8789496,36.9764188 C88.6937445,36.8151814 87.3118543,36.5831568 86.7646014,35.556743 C92.9209422,33.4380439 100.531529,35.7415761 106.160999,38.4078925 C109.260958,39.8743299 112.112795,41.7853008 114.619471,44.0757811 C116.928735,46.1866149 118.449222,49.9245702 120.762563,51.7276765" id="路径_17023" fill="#333333"></path>
                    <path d="M92.7646014,76.7276765 C91.1541178,75.0141523 88.6521165,73.8312985 86.9645597,72.1187237 C84.9203959,70.0425589 81.6212052,66.5879803 83.1615177,63.7276765 C85.6623687,64.1529722 87.5006207,68.5008618 88.3380722,70.2988756 C89.4268145,72.607692 90.9171973,74.7733519 92.7623007,76.7276765" id="路径_17024" fill="#333333"></path>
                    <path d="M66.7646014,72.7276765 C66.6568158,72.3004357 64.2855326,71.2232649 63.8339109,70.897796 C62.7090996,70.1143981 61.6800094,69.2175622 60.7652549,68.2235104 C59.2120644,66.4943943 57.3613857,64.1183711 57.8421094,61.7282409 C61.9810765,61.6506524 66.0057908,69.5928978 66.7646014,72.7276765" id="路径_17025" fill="#333333"></path>
                    <path d="M29.8872402,78.7276765 C28.8316351,78.3116482 28.0404804,77.4674313 27.7418099,76.4383536 C26.1928136,72.7029836 26.6398685,68.4684909 28.004847,64.6727432 C28.8459163,62.3361244 31.0119132,57.4274135 34.041711,56.8175982 C36.9957368,56.2198585 35.4564826,58.7295602 34.5093325,60.5771193 C33.0057994,63.5094652 31.3355679,66.0886014 30.5042408,69.3027101 C30.2682651,70.2184393 28.6943723,78.4137122 29.8850752,78.7276765" id="路径_17026" fill="#333333"></path>
                    <g id="组_11336" transform="translate(38.283793, 60.479812) rotate(6.023993) translate(-38.283793, -60.479812) translate(5.843901, 3.087483)">
                        <ellipse id="椭圆_11088" fill="#111111" transform="translate(36.146106, 28.733677) rotate(-45.000000) translate(-36.146106, -28.733677) " cx="36.1461058" cy="28.7336775" rx="19.526615" ry="21.1089414"></ellipse>
                        <path d="M54.9008389,25.0235829 C54.9008389,25.0235829 51.4368432,18.9390475 37.640039,31.4509242 C23.8432348,43.9628009 27.125613,47.5885909 27.125613,47.5885909 L29.5325544,49.5444112 C29.5325544,49.5444112 42.5406491,28.2012536 55.406919,28.2549849 C58.4821718,27.1470449 55.4548742,28.1894327 55.406919,28.2549849 C55.498748,28.2270446 54.9008389,25.0235829 54.9008389,25.0235829 Z" id="路径_25629" fill="#4881EB"></path>
                        <path d="M29.3995539,41.2813034 C29.3995539,41.2813034 -9.57388251,63.9875525 6.77656241,85.0894104 C23.1270073,106.191268 -9.94473433,68.4319616 28.8082513,45.5301072 C35.5515736,41.5442482 28.2643353,44.6269024 31.0951709,42.7168112 C31.0282115,42.5981654 29.3995539,41.2813034 29.3995539,41.2813034 Z" id="路径_25630" fill="#4881EB"></path>
                        <path d="M33.4498331,47.2155684 C33.4498331,47.2155684 -6.74513994,90.4864305 9.33163154,108.380682 C25.408403,126.274934 -4.10737205,82.1205699 35.1273079,51.5870323 C41.9544441,46.2747783 31.6149934,48.5143715 34.4849083,45.9697937 C34.4204256,45.8093314 33.4498331,47.2155684 33.4498331,47.2155684 Z" id="路径_25631" fill="#4881EB" transform="translate(21.520551, 79.235788) rotate(-10.000000) translate(-21.520551, -79.235788) "></path>
                    </g>
                </g>
            </g>
        </g>
    </g>
</svg>