<svg xmlns="http://www.w3.org/2000/svg" width="95.894" height="214.488" viewBox="0 0 95.894 214.488">
  <defs>
    <style>
      .cls-1 {
        fill: #9c321f;
      }

      .cls-2 {
        fill: #b95832;
      }

      .cls-3 {
        fill: #ba915f;
      }

      .cls-4 {
        fill: #ffddb5;
      }

      .cls-5 {
        fill: #e3b781;
      }

      .cls-6 {
        fill: #fff;
      }
    </style>
  </defs>
  <g id="组_4267" data-name="组 4267" transform="translate(-776.308 -88.819)">
    <g id="组_4225" data-name="组 4225">
      <g id="组_4224" data-name="组 4224">
        <rect id="矩形_1507" data-name="矩形 1507" class="cls-1" width="95.894" height="87.282" rx="7.036" transform="translate(776.308 216.025)"/>
        <rect id="矩形_1508" data-name="矩形 1508" class="cls-2" width="95.894" height="87.282" rx="7.036" transform="translate(776.308 214.817)"/>
        <rect id="矩形_1509" data-name="矩形 1509" class="cls-3" width="88.244" height="78.975" rx="6.127" transform="translate(780.133 219.094)"/>
        <rect id="矩形_1510" data-name="矩形 1510" class="cls-4" width="88.244" height="74.55" rx="5.953" transform="translate(780.133 219.094)"/>
        <rect id="矩形_1511" data-name="矩形 1511" class="cls-5" width="88.244" height="71.149" rx="5.846" transform="translate(780.133 222.495)"/>
      </g>
    </g>
    <g id="组_4243" data-name="组 4243">
      <g id="组_4241" data-name="组 4241">
        <rect id="矩形_1548" data-name="矩形 1548" class="cls-1" width="95.894" height="87.282" rx="7.036" transform="translate(776.308 90.026)"/>
        <rect id="矩形_1549" data-name="矩形 1549" class="cls-2" width="95.894" height="87.282" rx="7.036" transform="translate(776.308 88.819)"/>
        <rect id="矩形_1550" data-name="矩形 1550" class="cls-3" width="88.244" height="78.975" rx="6.127" transform="translate(780.133 93.096)"/>
        <rect id="矩形_1551" data-name="矩形 1551" class="cls-4" width="88.244" height="74.55" rx="5.953" transform="translate(780.133 93.096)"/>
        <rect id="矩形_1552" data-name="矩形 1552" class="cls-5" width="88.244" height="71.149" rx="5.846" transform="translate(780.133 96.496)"/>
      </g>
      <g id="组_4242" data-name="组 4242">
        <rect id="矩形_1553" data-name="矩形 1553" class="cls-6" width="64.517" height="8.726" transform="translate(791.996 142.323)"/>
      </g>
    </g>
    <rect id="矩形_1554" data-name="矩形 1554" class="cls-2" width="6.652" height="38.658" transform="translate(820.963 176.159)"/>
  </g>
</svg>
