<svg xmlns="http://www.w3.org/2000/svg" width="95.928" height="214.488" viewBox="0 0 95.928 214.488">
  <defs>
    <style>
      .cls-1 {
        fill: #9c321f;
      }

      .cls-2 {
        fill: #b95832;
      }

      .cls-3 {
        fill: #ba915f;
      }

      .cls-4 {
        fill: #ffddb5;
      }

      .cls-5 {
        fill: #e3b781;
      }

      .cls-6 {
        fill: #fff;
      }
    </style>
  </defs>
  <g id="组_4261" data-name="组 4261" transform="translate(-39.254 -88.819)">
    <g id="组_4210" data-name="组 4210">
      <g id="组_4209" data-name="组 4209">
        <rect id="矩形_1471" data-name="矩形 1471" class="cls-1" width="95.894" height="87.282" rx="7.036" transform="translate(39.288 216.025)"/>
        <rect id="矩形_1472" data-name="矩形 1472" class="cls-2" width="95.894" height="87.282" rx="7.036" transform="translate(39.288 214.817)"/>
        <rect id="矩形_1473" data-name="矩形 1473" class="cls-3" width="88.244" height="78.975" rx="6.127" transform="translate(43.113 219.094)"/>
        <rect id="矩形_1474" data-name="矩形 1474" class="cls-4" width="88.244" height="74.55" rx="5.953" transform="translate(43.113 219.094)"/>
        <rect id="矩形_1475" data-name="矩形 1475" class="cls-5" width="88.244" height="71.149" rx="5.846" transform="translate(43.113 222.495)"/>
      </g>
    </g>
    <g id="组_4213" data-name="组 4213">
      <g id="组_4211" data-name="组 4211">
        <rect id="矩形_1476" data-name="矩形 1476" class="cls-1" width="95.894" height="87.282" rx="7.036" transform="translate(39.254 90.026)"/>
        <rect id="矩形_1477" data-name="矩形 1477" class="cls-2" width="95.894" height="87.282" rx="7.036" transform="translate(39.254 88.819)"/>
        <rect id="矩形_1478" data-name="矩形 1478" class="cls-3" width="88.244" height="78.975" rx="6.127" transform="translate(43.079 93.096)"/>
        <rect id="矩形_1479" data-name="矩形 1479" class="cls-4" width="88.244" height="74.55" rx="5.953" transform="translate(43.079 93.096)"/>
        <rect id="矩形_1480" data-name="矩形 1480" class="cls-5" width="88.244" height="71.149" rx="5.846" transform="translate(43.079 96.496)"/>
      </g>
      <g id="组_4212" data-name="组 4212">
        <circle id="椭圆_2157" data-name="椭圆 2157" class="cls-6" cx="6.573" cy="6.573" r="6.573" transform="translate(70.245 114.561)"/>
        <circle id="椭圆_2158" data-name="椭圆 2158" class="cls-6" cx="6.573" cy="6.573" r="6.573" transform="translate(91.01 114.561)"/>
        <rect id="矩形_1481" data-name="矩形 1481" class="cls-6" width="64.517" height="8.726" transform="translate(54.942 142.323)"/>
      </g>
    </g>
    <rect id="矩形_1527" data-name="矩形 1527" class="cls-2" width="6.652" height="38.658" transform="translate(83.91 176.159)"/>
  </g>
</svg>
