<svg xmlns="http://www.w3.org/2000/svg" width="96.954" height="214.488" viewBox="0 0 96.954 214.488">
  <defs>
    <style>
      .cls-1 {
        fill: #9c321f;
      }

      .cls-2 {
        fill: #b95832;
      }

      .cls-3 {
        fill: #ba915f;
      }

      .cls-4 {
        fill: #ffddb5;
      }

      .cls-5 {
        fill: #e3b781;
      }

      .cls-6 {
        fill: #fff;
      }
    </style>
  </defs>
  <g id="组_4264" data-name="组 4264" transform="translate(-407.798 -88.819)">
    <g id="组_4219" data-name="组 4219">
      <g id="组_4218" data-name="组 4218">
        <rect id="矩形_1492" data-name="矩形 1492" class="cls-1" width="95.894" height="87.282" rx="7.036" transform="translate(407.798 216.025)"/>
        <rect id="矩形_1493" data-name="矩形 1493" class="cls-2" width="95.894" height="87.282" rx="7.036" transform="translate(407.798 214.817)"/>
        <rect id="矩形_1494" data-name="矩形 1494" class="cls-3" width="88.244" height="78.975" rx="6.127" transform="translate(411.623 219.094)"/>
        <rect id="矩形_1495" data-name="矩形 1495" class="cls-4" width="88.244" height="74.55" rx="5.953" transform="translate(411.623 219.094)"/>
        <rect id="矩形_1496" data-name="矩形 1496" class="cls-5" width="88.244" height="71.149" rx="5.846" transform="translate(411.623 222.495)"/>
      </g>
    </g>
    <g id="组_4252" data-name="组 4252">
      <g id="组_4250" data-name="组 4250">
        <rect id="矩形_1568" data-name="矩形 1568" class="cls-1" width="95.894" height="87.282" rx="7.036" transform="translate(408.858 90.026)"/>
        <rect id="矩形_1569" data-name="矩形 1569" class="cls-2" width="95.894" height="87.282" rx="7.036" transform="translate(408.858 88.819)"/>
        <rect id="矩形_1570" data-name="矩形 1570" class="cls-3" width="88.244" height="78.975" rx="6.127" transform="translate(412.683 93.096)"/>
        <rect id="矩形_1571" data-name="矩形 1571" class="cls-4" width="88.244" height="74.55" rx="5.953" transform="translate(412.683 93.096)"/>
        <rect id="矩形_1572" data-name="矩形 1572" class="cls-5" width="88.244" height="71.149" rx="5.846" transform="translate(412.683 96.496)"/>
      </g>
      <g id="组_4251" data-name="组 4251">
        <circle id="椭圆_2190" data-name="椭圆 2190" class="cls-6" cx="6.573" cy="6.573" r="6.573" transform="translate(439.849 114.561)"/>
        <circle id="椭圆_2191" data-name="椭圆 2191" class="cls-6" cx="6.573" cy="6.573" r="6.573" transform="translate(460.614 114.561)"/>
      </g>
    </g>
    <rect id="矩形_1573" data-name="矩形 1573" class="cls-2" width="6.652" height="38.658" transform="translate(453.514 176.159)"/>
  </g>
</svg>
