<svg xmlns="http://www.w3.org/2000/svg" width="95.894" height="214.488" viewBox="0 0 95.894 214.488">
  <defs>
    <style>
      .cls-1 {
        fill: #9c321f;
      }

      .cls-2 {
        fill: #b95832;
      }

      .cls-3 {
        fill: #ba915f;
      }

      .cls-4 {
        fill: #ffddb5;
      }

      .cls-5 {
        fill: #e3b781;
      }

      .cls-6 {
        fill: #fff;
      }
    </style>
  </defs>
  <g id="组_4263" data-name="组 4263" transform="translate(-284.961 -88.819)">
    <g id="组_4217" data-name="组 4217">
      <g id="组_4216" data-name="组 4216">
        <rect id="矩形_1487" data-name="矩形 1487" class="cls-1" width="95.894" height="87.282" rx="7.036" transform="translate(284.961 216.025)"/>
        <rect id="矩形_1488" data-name="矩形 1488" class="cls-2" width="95.894" height="87.282" rx="7.036" transform="translate(284.961 214.817)"/>
        <rect id="矩形_1489" data-name="矩形 1489" class="cls-3" width="88.244" height="78.975" rx="6.127" transform="translate(288.786 219.094)"/>
        <rect id="矩形_1490" data-name="矩形 1490" class="cls-4" width="88.244" height="74.55" rx="5.953" transform="translate(288.786 219.094)"/>
        <rect id="矩形_1491" data-name="矩形 1491" class="cls-5" width="88.244" height="71.149" rx="5.846" transform="translate(288.786 222.495)"/>
      </g>
    </g>
    <g id="组_4255" data-name="组 4255">
      <g id="组_4253" data-name="组 4253">
        <rect id="矩形_1574" data-name="矩形 1574" class="cls-1" width="95.894" height="87.282" rx="7.036" transform="translate(284.961 90.026)"/>
        <rect id="矩形_1575" data-name="矩形 1575" class="cls-2" width="95.894" height="87.282" rx="7.036" transform="translate(284.961 88.819)"/>
        <rect id="矩形_1576" data-name="矩形 1576" class="cls-3" width="88.244" height="78.975" rx="6.127" transform="translate(288.786 93.096)"/>
        <rect id="矩形_1577" data-name="矩形 1577" class="cls-4" width="88.244" height="74.55" rx="5.953" transform="translate(288.786 93.096)"/>
        <rect id="矩形_1578" data-name="矩形 1578" class="cls-5" width="88.244" height="71.149" rx="5.846" transform="translate(288.786 96.496)"/>
      </g>
      <g id="组_4254" data-name="组 4254">
        <rect id="矩形_1579" data-name="矩形 1579" class="cls-6" width="64.517" height="8.726" transform="translate(300.65 142.323)"/>
        <rect id="矩形_1580" data-name="矩形 1580" class="cls-6" width="64.517" height="8.726" transform="translate(300.65 116.625)"/>
      </g>
    </g>
    <rect id="矩形_1581" data-name="矩形 1581" class="cls-2" width="6.652" height="38.658" transform="translate(329.617 176.159)"/>
  </g>
</svg>
