<svg xmlns="http://www.w3.org/2000/svg" width="95.894" height="214.488" viewBox="0 0 95.894 214.488">
  <defs>
    <style>
      .cls-1 {
        fill: #9c321f;
      }

      .cls-2 {
        fill: #b95832;
      }

      .cls-3 {
        fill: #ba915f;
      }

      .cls-4 {
        fill: #ffddb5;
      }

      .cls-5 {
        fill: #e3b781;
      }

      .cls-6 {
        fill: #fff;
      }
    </style>
  </defs>
  <g id="组_4262" data-name="组 4262" transform="translate(-162.125 -88.819)">
    <g id="组_4215" data-name="组 4215">
      <g id="组_4214" data-name="组 4214">
        <rect id="矩形_1482" data-name="矩形 1482" class="cls-1" width="95.894" height="87.282" rx="7.036" transform="translate(162.125 216.025)"/>
        <rect id="矩形_1483" data-name="矩形 1483" class="cls-2" width="95.894" height="87.282" rx="7.036" transform="translate(162.125 214.817)"/>
        <rect id="矩形_1484" data-name="矩形 1484" class="cls-3" width="88.244" height="78.975" rx="6.127" transform="translate(165.95 219.094)"/>
        <rect id="矩形_1485" data-name="矩形 1485" class="cls-4" width="88.244" height="74.55" rx="5.953" transform="translate(165.95 219.094)"/>
        <rect id="矩形_1486" data-name="矩形 1486" class="cls-5" width="88.244" height="71.149" rx="5.846" transform="translate(165.95 222.495)"/>
      </g>
    </g>
    <g id="组_4258" data-name="组 4258">
      <g id="组_4256" data-name="组 4256">
        <rect id="矩形_1582" data-name="矩形 1582" class="cls-1" width="95.894" height="87.282" rx="7.036" transform="translate(162.125 90.026)"/>
        <rect id="矩形_1583" data-name="矩形 1583" class="cls-2" width="95.894" height="87.282" rx="7.036" transform="translate(162.125 88.819)"/>
        <rect id="矩形_1584" data-name="矩形 1584" class="cls-3" width="88.244" height="78.975" rx="6.127" transform="translate(165.95 93.096)"/>
        <rect id="矩形_1585" data-name="矩形 1585" class="cls-4" width="88.244" height="74.55" rx="5.953" transform="translate(165.95 93.096)"/>
        <rect id="矩形_1586" data-name="矩形 1586" class="cls-5" width="88.244" height="71.149" rx="5.846" transform="translate(165.95 96.496)"/>
      </g>
      <g id="组_4257" data-name="组 4257">
        <circle id="椭圆_2192" data-name="椭圆 2192" class="cls-6" cx="6.573" cy="6.573" r="6.573" transform="translate(203.498 114.561)"/>
        <circle id="椭圆_2193" data-name="椭圆 2193" class="cls-6" cx="6.573" cy="6.573" r="6.573" transform="translate(182.725 114.561)"/>
        <circle id="椭圆_2194" data-name="椭圆 2194" class="cls-6" cx="6.573" cy="6.573" r="6.573" transform="translate(224.271 114.561)"/>
      </g>
    </g>
    <rect id="矩形_1587" data-name="矩形 1587" class="cls-2" width="6.652" height="38.658" transform="translate(206.78 176.159)"/>
  </g>
</svg>
