<svg xmlns="http://www.w3.org/2000/svg" width="95.894" height="214.488" viewBox="0 0 95.894 214.488">
  <defs>
    <style>
      .cls-1 {
        fill: #9c321f;
      }

      .cls-2 {
        fill: #b95832;
      }

      .cls-3 {
        fill: #ba915f;
      }

      .cls-4 {
        fill: #ffddb5;
      }

      .cls-5 {
        fill: #e3b781;
      }

      .cls-6 {
        fill: #fff;
      }
    </style>
  </defs>
  <g id="组_4268" data-name="组 4268" transform="translate(-899.145 -88.819)">
    <g id="组_4227" data-name="组 4227">
      <g id="组_4226" data-name="组 4226">
        <rect id="矩形_1512" data-name="矩形 1512" class="cls-1" width="95.894" height="87.282" rx="7.036" transform="translate(899.145 216.025)"/>
        <rect id="矩形_1513" data-name="矩形 1513" class="cls-2" width="95.894" height="87.282" rx="7.036" transform="translate(899.145 214.817)"/>
        <rect id="矩形_1514" data-name="矩形 1514" class="cls-3" width="88.244" height="78.975" rx="6.127" transform="translate(902.969 219.094)"/>
        <rect id="矩形_1515" data-name="矩形 1515" class="cls-4" width="88.244" height="74.55" rx="5.953" transform="translate(902.969 219.094)"/>
        <rect id="矩形_1516" data-name="矩形 1516" class="cls-5" width="88.244" height="71.149" rx="5.846" transform="translate(902.969 222.495)"/>
      </g>
    </g>
    <g id="组_4249" data-name="组 4249">
      <g id="组_4247" data-name="组 4247">
        <rect id="矩形_1562" data-name="矩形 1562" class="cls-1" width="95.894" height="87.282" rx="7.036" transform="translate(899.145 90.026)"/>
        <rect id="矩形_1563" data-name="矩形 1563" class="cls-2" width="95.894" height="87.282" rx="7.036" transform="translate(899.145 88.819)"/>
        <rect id="矩形_1564" data-name="矩形 1564" class="cls-3" width="88.244" height="78.975" rx="6.127" transform="translate(902.969 93.096)"/>
        <rect id="矩形_1565" data-name="矩形 1565" class="cls-4" width="88.244" height="74.55" rx="5.953" transform="translate(902.969 93.096)"/>
        <rect id="矩形_1566" data-name="矩形 1566" class="cls-5" width="88.244" height="71.149" rx="5.846" transform="translate(902.969 96.496)"/>
      </g>
      <g id="组_4248" data-name="组 4248">
        <circle id="椭圆_2189" data-name="椭圆 2189" class="cls-6" cx="6.573" cy="6.573" r="6.573" transform="translate(940.552 114.561)"/>
      </g>
    </g>
    <rect id="矩形_1567" data-name="矩形 1567" class="cls-2" width="6.652" height="38.658" transform="translate(943.8 176.159)"/>
  </g>
</svg>
