<svg xmlns="http://www.w3.org/2000/svg" width="95.894" height="214.488" viewBox="0 0 95.894 214.488">
  <defs>
    <style>
      .cls-1 {
        fill: #9c321f;
      }

      .cls-2 {
        fill: #b95832;
      }

      .cls-3 {
        fill: #ba915f;
      }

      .cls-4 {
        fill: #ffddb5;
      }

      .cls-5 {
        fill: #e3b781;
      }

      .cls-6 {
        fill: #fff;
      }
    </style>
  </defs>
  <g id="组_4266" data-name="组 4266" transform="translate(-653.471 -88.819)">
    <g id="组_4223" data-name="组 4223">
      <g id="组_4222" data-name="组 4222">
        <rect id="矩形_1502" data-name="矩形 1502" class="cls-1" width="95.894" height="87.282" rx="7.036" transform="translate(653.471 216.025)"/>
        <rect id="矩形_1503" data-name="矩形 1503" class="cls-2" width="95.894" height="87.282" rx="7.036" transform="translate(653.471 214.817)"/>
        <rect id="矩形_1504" data-name="矩形 1504" class="cls-3" width="88.244" height="78.975" rx="6.127" transform="translate(657.296 219.094)"/>
        <rect id="矩形_1505" data-name="矩形 1505" class="cls-4" width="88.244" height="74.55" rx="5.953" transform="translate(657.296 219.094)"/>
        <rect id="矩形_1506" data-name="矩形 1506" class="cls-5" width="88.244" height="71.149" rx="5.846" transform="translate(657.296 222.495)"/>
      </g>
    </g>
    <g id="组_4234" data-name="组 4234">
      <g id="组_4232" data-name="组 4232">
        <rect id="矩形_1528" data-name="矩形 1528" class="cls-1" width="95.894" height="87.282" rx="7.036" transform="translate(653.471 90.026)"/>
        <rect id="矩形_1529" data-name="矩形 1529" class="cls-2" width="95.894" height="87.282" rx="7.036" transform="translate(653.471 88.819)"/>
        <rect id="矩形_1530" data-name="矩形 1530" class="cls-3" width="88.244" height="78.975" rx="6.127" transform="translate(657.296 93.096)"/>
        <rect id="矩形_1531" data-name="矩形 1531" class="cls-4" width="88.244" height="74.55" rx="5.953" transform="translate(657.296 93.096)"/>
        <rect id="矩形_1532" data-name="矩形 1532" class="cls-5" width="88.244" height="71.149" rx="5.846" transform="translate(657.296 96.496)"/>
      </g>
      <g id="组_4233" data-name="组 4233">
        <circle id="椭圆_2177" data-name="椭圆 2177" class="cls-6" cx="6.573" cy="6.573" r="6.573" transform="translate(686.26 114.561)"/>
        <circle id="椭圆_2178" data-name="椭圆 2178" class="cls-6" cx="6.573" cy="6.573" r="6.573" transform="translate(669.16 114.561)"/>
        <circle id="椭圆_2179" data-name="椭圆 2179" class="cls-6" cx="6.573" cy="6.573" r="6.573" transform="translate(703.361 114.561)"/>
        <circle id="椭圆_2180" data-name="椭圆 2180" class="cls-6" cx="6.573" cy="6.573" r="6.573" transform="translate(720.461 114.561)"/>
        <rect id="矩形_1533" data-name="矩形 1533" class="cls-6" width="64.517" height="8.726" transform="translate(669.16 142.323)"/>
      </g>
    </g>
    <rect id="矩形_1534" data-name="矩形 1534" class="cls-2" width="6.652" height="38.658" transform="translate(698.127 176.159)"/>
  </g>
</svg>
