<svg xmlns="http://www.w3.org/2000/svg" width="94.991" height="142.088" viewBox="0 0 94.991 142.088">
  <defs>
    <style>
      .cls-1 {
        fill: #8dbbff;
      }

      .cls-2 {
        fill: #fff;
      }

      .cls-3 {
        fill: #06297f;
      }
    </style>
  </defs>
  <g id="组_6618" data-name="组 6618" transform="translate(-132.889 -931.804)">
    <rect id="矩形_3146" data-name="矩形 3146" class="cls-1" width="94.991" height="142.088" rx="4.435" transform="translate(132.889 931.804)"/>
    <path id="路径_15227" data-name="路径 15227" class="cls-2" d="M216.281,951.4a6.992,6.992,0,0,1-6.864-7.1c0-.185.012-.373.026-.551a1.332,1.332,0,0,0,.009-.156,1.225,1.225,0,0,0-1.2-1.247H152.523a1.186,1.186,0,0,0-.887.4,1.272,1.272,0,0,0-.314.948c.016.193.03.4.03.6a6.992,6.992,0,0,1-6.864,7.1,1.227,1.227,0,0,0-1.206,1.246v101.114a1.227,1.227,0,0,0,1.206,1.246,6.992,6.992,0,0,1,6.864,7.1,1.226,1.226,0,0,0,1.205,1.246h55.655a1.226,1.226,0,0,0,1.205-1.246,6.992,6.992,0,0,1,6.864-7.1,1.227,1.227,0,0,0,1.206-1.246V952.645A1.227,1.227,0,0,0,216.281,951.4Z"/>
    <path id="路径_15230" data-name="路径 15230" class="cls-1" d="M170.761,988.233a3.546,3.546,0,0,0-1.923.561,2.947,2.947,0,0,0-.247-.32,3.258,3.258,0,0,0,1.136-2.453,3.469,3.469,0,0,0-6.933,0,3.257,3.257,0,0,0,1.137,2.453,2.923,2.923,0,0,0-.266.353,3.542,3.542,0,0,0-1.971-.595,3.336,3.336,0,1,0,0,6.667,3.471,3.471,0,0,0,3.162-1.98,3.061,3.061,0,0,0,.607.23h-.195v1.917l-1.685,1.62h5.355l-1.685-1.62V993.15h-.195a3.053,3.053,0,0,0,.555-.2,3.47,3.47,0,0,0,3.147,1.953,3.336,3.336,0,1,0,0-6.667Z" transform="translate(-9.793 -32.072)"/>
    <g id="组_6619" data-name="组 6619" transform="translate(-770.952 29.519)">
      <path id="路径_15252" data-name="路径 15252" class="cls-3" d="M946.734,995.236l11.733-35.575h-8.934q-5.246,0-7.884,1.369a7.181,7.181,0,0,0-3.053,3.591h-1.208l3.114-13.385H966.19l-14.464,44Z" transform="translate(0 0)"/>
    </g>
  </g>
</svg>
