<svg xmlns="http://www.w3.org/2000/svg" width="114.489" height="166.294" viewBox="0 0 114.489 166.294">
  <defs>
    <style>
      .cls-1, .cls-3 {
        fill: #8dbbff;
      }

      .cls-1 {
        stroke: #fff;
        stroke-linejoin: round;
        stroke-width: 5px;
      }

      .cls-2 {
        fill: #fff;
      }

      .cls-4 {
        fill: #06297f;
      }

      .cls-5 {
        stroke: none;
      }

      .cls-6 {
        fill: none;
      }
    </style>
  </defs>
  <g id="组_6637" data-name="组 6637" transform="translate(-127.889 -926.804)">
    <g id="矩形_3146" data-name="矩形 3146" class="cls-1" transform="translate(132.889 931.804)">
      <rect class="cls-5" width="104.489" height="156.294" rx="4.435"/>
      <rect class="cls-6" x="-2.5" y="-2.5" width="109.489" height="161.294" rx="6.935"/>
    </g>
    <path id="路径_15227" data-name="路径 15227" class="cls-2" d="M225.624,952.462a7.847,7.847,0,0,1-7.743-7.931c0-.207.014-.417.029-.616a1.476,1.476,0,0,0,.01-.174,1.375,1.375,0,0,0-1.358-1.393H153.706a1.344,1.344,0,0,0-1,.45,1.413,1.413,0,0,0-.354,1.059c.018.216.034.447.034.674a7.847,7.847,0,0,1-7.743,7.931,1.377,1.377,0,0,0-1.36,1.392V1066.84a1.377,1.377,0,0,0,1.36,1.392,7.847,7.847,0,0,1,7.743,7.931,1.377,1.377,0,0,0,1.359,1.392h62.778a1.377,1.377,0,0,0,1.359-1.392,7.847,7.847,0,0,1,7.743-7.931,1.377,1.377,0,0,0,1.36-1.392V953.854A1.377,1.377,0,0,0,225.624,952.462Z" transform="translate(0)"/>
    <path id="路径_15230" data-name="路径 15230" class="cls-3" d="M170.761,988.233a3.546,3.546,0,0,0-1.923.561,2.947,2.947,0,0,0-.247-.32,3.258,3.258,0,0,0,1.136-2.453,3.469,3.469,0,0,0-6.933,0,3.257,3.257,0,0,0,1.137,2.453,2.923,2.923,0,0,0-.266.353,3.542,3.542,0,0,0-1.971-.595,3.336,3.336,0,1,0,0,6.667,3.471,3.471,0,0,0,3.162-1.98,3.061,3.061,0,0,0,.607.23h-.195v1.917l-1.685,1.62h5.355l-1.685-1.62V993.15h-.195a3.053,3.053,0,0,0,.555-.2,3.47,3.47,0,0,0,3.147,1.953,3.336,3.336,0,1,0,0-6.667Z" transform="translate(-7.923 -32.072)"/>
    <g id="组_6623" data-name="组 6623" transform="translate(171.595 987.846)">
      <path id="路径_15260" data-name="路径 15260" class="cls-4" d="M1198.892,995.1v-.875a27.572,27.572,0,0,0,8.773-3.488,17.982,17.982,0,0,0,5.7-5.7,22.824,22.824,0,0,0,2.945-7.82,18.547,18.547,0,0,1-3.289,1.386,10.173,10.173,0,0,1-2.848.391,10.426,10.426,0,0,1-7.993-3.46q-3.2-3.461-3.194-9.474a16.893,16.893,0,0,1,1.73-7.649,12.721,12.721,0,0,1,4.938-5.392,12.611,12.611,0,0,1,13.678.2,14.79,14.79,0,0,1,5.269,6.14,20.639,20.639,0,0,1,1.963,9.161,27.236,27.236,0,0,1-3.195,12.776,24.252,24.252,0,0,1-9.521,9.8A31.47,31.47,0,0,1,1198.892,995.1Zm17.886-20.5q.313-3.49.313-6.14a40.821,40.821,0,0,0-1.31-10.563,7.951,7.951,0,0,0-2.213-3.987,2.945,2.945,0,0,0-2.024-.688,2.749,2.749,0,0,0-2.431,1.342q-1.217,1.837-1.216,7.011,0,8.632,2.055,11.9a4.1,4.1,0,0,0,3.615,2.122A7.767,7.767,0,0,0,1216.779,974.594Z" transform="translate(-1198.892 -951.098)"/>
    </g>
  </g>
</svg>
