<svg xmlns="http://www.w3.org/2000/svg" width="101.633" height="106.568" viewBox="0 0 101.633 106.568">
  <defs>
    <style>
      .cls-1 {
        fill: #fe6a19;
      }

      .cls-2 {
        fill: #fc8308;
      }

      .cls-3 {
        fill: #fab001;
      }

      .cls-4 {
        fill: #f9e48a;
      }

      .cls-5 {
        fill: #fece0a;
      }
    </style>
  </defs>
  <g id="组_3763" data-name="组 3763" transform="translate(-1064.219 -138.972)">
    <path id="路径_8793" data-name="路径 8793" class="cls-1" d="M1079.8,245.433l-4.5-4.5a.383.383,0,0,1,0-.53l21.926-21.926a.383.383,0,0,1,.53,0l4.5,4.5a.381.381,0,0,1,0,.53l-21.925,21.925A.381.381,0,0,1,1079.8,245.433Z"/>
    <path id="路径_8794" data-name="路径 8794" class="cls-2" d="M1099.275,220.132a3.431,3.431,0,0,0-4.217.478l-17.618,17.631a2.713,2.713,0,1,0,3.739,3.739l17.631-17.631A3.447,3.447,0,0,0,1099.275,220.132Z"/>
    <path id="路径_8795" data-name="路径 8795" class="cls-1" d="M1134.085,218.463l-4.5,4.5a.383.383,0,0,0,0,.53l21.926,21.926a.383.383,0,0,0,.53,0l4.5-4.5a.381.381,0,0,0,0-.53l-21.912-21.926a.4.4,0,0,0-.543,0Z"/>
    <path id="路径_8796" data-name="路径 8796" class="cls-2" d="M1153.578,243.765a3.43,3.43,0,0,1-4.217-.479l-17.618-17.631a2.712,2.712,0,1,1,3.739-3.738l17.631,17.631a3.447,3.447,0,0,1,.465,4.217Z"/>
    <path id="路径_8797" data-name="路径 8797" class="cls-3" d="M1070.559,190.083a45.365,45.365,0,0,0,90.729.01v-.01a45.365,45.365,0,1,0-90.729-.01Z"/>
    <path id="路径_8798" data-name="路径 8798" class="cls-4" d="M1155.169,186.59a45.3,45.3,0,0,0-19.881-37.525,45.359,45.359,0,0,0-44.848,78.543,45.376,45.376,0,0,0,64.729-41.018Z"/>
    <path id="路径_8799" data-name="路径 8799" class="cls-5" d="M1138.12,151.173a45.345,45.345,0,0,0-44.407,77.82,45.345,45.345,0,0,0,44.407-77.82Z"/>
    <path id="路径_8800" data-name="路径 8800" class="cls-1" d="M1092.509,145.385a16.574,16.574,0,0,0-23.439,23.439,2.7,2.7,0,0,0,3.829,0l19.6-19.6A2.707,2.707,0,0,0,1092.509,145.385Z"/>
    <path id="路径_8801" data-name="路径 8801" class="cls-2" d="M1089.4,148.5a16.564,16.564,0,0,0-21.77-1.436,16.58,16.58,0,0,0,1.436,21.77,2.7,2.7,0,0,0,3.829,0l16.492-16.493A2.727,2.727,0,0,0,1089.4,148.5Z"/>
    <path id="路径_8802" data-name="路径 8802" class="cls-1" d="M1137.562,143.823A16.574,16.574,0,0,1,1161,167.262a2.7,2.7,0,0,1-3.829,0l-19.61-19.6A2.717,2.717,0,0,1,1137.562,143.823Z"/>
    <path id="路径_8803" data-name="路径 8803" class="cls-2" d="M1140.667,146.94a16.565,16.565,0,0,1,21.77-1.436A16.583,16.583,0,0,1,1161,167.275a2.7,2.7,0,0,1-3.829,0l-16.505-16.506A2.7,2.7,0,0,1,1140.667,146.94Z"/>
  </g>
</svg>
