<svg xmlns="http://www.w3.org/2000/svg" width="94.991" height="142.088" viewBox="0 0 94.991 142.088">
  <defs>
    <style>
      .cls-1 {
        fill: #8dbbff;
      }

      .cls-2 {
        fill: #fff;
      }

      .cls-3 {
        fill: #06297f;
      }
    </style>
  </defs>
  <g id="组_6614" data-name="组 6614" transform="translate(-132.889 -931.804)">
    <rect id="矩形_3146" data-name="矩形 3146" class="cls-1" width="94.991" height="142.088" rx="4.435" transform="translate(132.889 931.804)"/>
    <path id="路径_15227" data-name="路径 15227" class="cls-2" d="M216.281,951.4a6.992,6.992,0,0,1-6.864-7.1c0-.185.012-.373.026-.551a1.332,1.332,0,0,0,.009-.156,1.225,1.225,0,0,0-1.2-1.247H152.523a1.186,1.186,0,0,0-.887.4,1.272,1.272,0,0,0-.314.948c.016.193.03.4.03.6a6.992,6.992,0,0,1-6.864,7.1,1.227,1.227,0,0,0-1.206,1.246v101.114a1.227,1.227,0,0,0,1.206,1.246,6.992,6.992,0,0,1,6.864,7.1,1.226,1.226,0,0,0,1.205,1.246h55.655a1.226,1.226,0,0,0,1.205-1.246,6.992,6.992,0,0,1,6.864-7.1,1.227,1.227,0,0,0,1.206-1.246V952.645A1.227,1.227,0,0,0,216.281,951.4Z"/>
    <path id="路径_15230" data-name="路径 15230" class="cls-1" d="M170.761,988.233a3.546,3.546,0,0,0-1.923.561,2.947,2.947,0,0,0-.247-.32,3.258,3.258,0,0,0,1.136-2.453,3.469,3.469,0,0,0-6.933,0,3.257,3.257,0,0,0,1.137,2.453,2.923,2.923,0,0,0-.266.353,3.542,3.542,0,0,0-1.971-.595,3.336,3.336,0,1,0,0,6.667,3.471,3.471,0,0,0,3.162-1.98,3.061,3.061,0,0,0,.607.23h-.195v1.917l-1.685,1.62h5.355l-1.685-1.62V993.15h-.195a3.053,3.053,0,0,0,.555-.2,3.47,3.47,0,0,0,3.147,1.953,3.336,3.336,0,1,0,0-6.667Z" transform="translate(-9.793 -32.072)"/>
    <g id="组_6615" data-name="组 6615" transform="translate(-510 29.691)">
      <path id="路径_15244" data-name="路径 15244" class="cls-3" d="M683.837,951.236h20.187l-3.211,8.2H683.837l-1.623,4.293q10.971.411,16.883,5.465a13.112,13.112,0,0,1,4.863,10.364,15.56,15.56,0,0,1-8.615,13.623,19.857,19.857,0,0,1-9,2.052q-5.275,0-8.106-1.974a3.928,3.928,0,0,1-1.971-3.175,3.349,3.349,0,0,1,1.034-2.419,3.267,3.267,0,0,1,2.4-1.047,6.737,6.737,0,0,1,2.512.505,26.873,26.873,0,0,1,4.354,2.673,15.6,15.6,0,0,0,3.34,1.842,6.114,6.114,0,0,0,2.225.383,5.921,5.921,0,0,0,4.435-1.91,6.38,6.38,0,0,0,1.829-4.577q0-5.594-5.6-9.092t-14.113-3.5q-.86,0-2.576.032Z" transform="translate(0 0)"/>
    </g>
  </g>
</svg>
