<svg xmlns="http://www.w3.org/2000/svg" width="192.544" height="62.998" viewBox="0 0 192.544 62.998">
  <defs>
    <style>
      .cls-1 {
        fill: #f6f5f8;
        opacity: 0.8;
        isolation: isolate;
      }

      .cls-2 {
        fill: #7d441e;
      }
    </style>
  </defs>
  <g id="组_12558" data-name="组 12558" transform="translate(-1017 -334)">
    <rect id="矩形_953" data-name="矩形 953" class="cls-1" width="192.544" height="62.998" rx="15" transform="translate(1017 334)"/>
    <g id="组_12556" data-name="组 12556" transform="translate(859.574 -157.053)">
      <path id="路径_25653" data-name="路径 25653" class="cls-2" d="M22.674-3.8H17.321L15.6-9.081H7.224L5.529-3.8H.205L8.636-26.836h5.77Zm-8.238-9.071-2.617-7.985a8.866,8.866,0,0,1-.357-2.007h-.134a8.5,8.5,0,0,1-.4,1.948L8.294-12.873ZM54.166-9.8,48.932-7.059A21.969,21.969,0,0,0,56.01-4.323Q54.493-2.419,53.3-.635a24.552,24.552,0,0,1-8.8-4.8q-.074,2.067-.03,3.2A99.932,99.932,0,0,0,34.8.406l-1.7-3.39a3.765,3.765,0,0,0,.833-2.736v-.565A51.216,51.216,0,0,1,27.7-2.479q-.684-2.29-1.4-4.134A34.832,34.832,0,0,0,35.7-12.8H26.686V-16.13H39.058v-1.963H28.946v-3.331H39.058v-1.963H27.7v-3.331H39.058v-2.558h4.193v2.558h11.48v3.331H43.251v1.963H53.333v3.331H43.251v1.963H55.683V-12.8H51.92ZM46-9.364A58.054,58.054,0,0,0,51.117-12.8H43.325A17.252,17.252,0,0,0,46-9.364Zm-6.156-2.141q-.922,1.011-1.948,1.978V-4.59l5.74-1.651A19.486,19.486,0,0,1,39.846-11.505ZM63.13-27.431H86.446v4.223H63.13Zm-2.677,8.119H89v4.223H77.524v9.844a5.447,5.447,0,0,1-.862,3.487A4.018,4.018,0,0,1,74.572-.419a35.188,35.188,0,0,1-6.3.32q-.506-2.558-1.011-4.461a37.537,37.537,0,0,0,3.777.238q1.993,0,1.993-1.606v-9.16H60.453Zm5.859,5.5,3.836,2.022A93.289,93.289,0,0,1,63.4-2.122Q61.91-3.341,59.888-4.739A63.688,63.688,0,0,0,66.312-13.81Zm16.327.149q3.509,4.253,6.9,8.892-1.606,1.041-3.866,2.587Q83-6.553,79.338-11.46Zm21.667-13.661V-8.476a11.681,11.681,0,0,0,.187,2.711,1.756,1.756,0,0,0,.782.96,3.7,3.7,0,0,0,1.9.374h.527V-3.8H95.571v-.629h.612a4.738,4.738,0,0,0,2.107-.34,1.743,1.743,0,0,0,.85-.935,10.336,10.336,0,0,0,.221-2.77V-20.423a7.538,7.538,0,0,0-.153-2,1.445,1.445,0,0,0-.569-.68,1.678,1.678,0,0,0-.96-.28,5.452,5.452,0,0,0-2.107.544l-.306-.612,8.48-3.875ZM123.7-4.13a4,4,0,0,1-1.242,3.019,3.95,3.95,0,0,1-2.8,1.19,4.088,4.088,0,0,1-3.011-1.249A4.056,4.056,0,0,1,115.4-4.13a3.932,3.932,0,0,1,1.234-2.937,4.082,4.082,0,0,1,2.944-1.2,4.038,4.038,0,0,1,2.885,1.182A3.919,3.919,0,0,1,123.7-4.13Zm-4.1,1.457a1.372,1.372,0,0,0,1-.409,1.335,1.335,0,0,0,.416-.989,1.342,1.342,0,0,0-.446-1.071,1.54,1.54,0,0,0-1.041-.387,1.267,1.267,0,0,0-1,.439,1.532,1.532,0,0,0-.387,1.048,1.368,1.368,0,0,0,.387.944A1.376,1.376,0,0,0,119.594-2.672Z" transform="translate(192.221 537.328)"/>
    </g>
  </g>
</svg>
