<svg xmlns="http://www.w3.org/2000/svg" width="114.489" height="166.294" viewBox="0 0 114.489 166.294">
  <defs>
    <style>
      .cls-1, .cls-3 {
        fill: #8dbbff;
      }

      .cls-1 {
        stroke: #fff;
        stroke-linejoin: round;
        stroke-width: 5px;
      }

      .cls-2 {
        fill: #fff;
      }

      .cls-4 {
        fill: #06297f;
      }

      .cls-5 {
        stroke: none;
      }

      .cls-6 {
        fill: none;
      }
    </style>
  </defs>
  <g id="组_6634" data-name="组 6634" transform="translate(-127.889 -926.804)">
    <g id="矩形_3146" data-name="矩形 3146" class="cls-1" transform="translate(132.889 931.804)">
      <rect class="cls-5" width="104.489" height="156.294" rx="4.435"/>
      <rect class="cls-6" x="-2.5" y="-2.5" width="109.489" height="161.294" rx="6.935"/>
    </g>
    <path id="路径_15227" data-name="路径 15227" class="cls-2" d="M225.624,952.462a7.847,7.847,0,0,1-7.743-7.931c0-.207.014-.417.029-.616a1.476,1.476,0,0,0,.01-.174,1.375,1.375,0,0,0-1.358-1.393H153.706a1.344,1.344,0,0,0-1,.45,1.413,1.413,0,0,0-.354,1.059c.018.216.034.447.034.674a7.847,7.847,0,0,1-7.743,7.931,1.377,1.377,0,0,0-1.36,1.392V1066.84a1.377,1.377,0,0,0,1.36,1.392,7.847,7.847,0,0,1,7.743,7.931,1.377,1.377,0,0,0,1.359,1.392h62.778a1.377,1.377,0,0,0,1.359-1.392,7.847,7.847,0,0,1,7.743-7.931,1.377,1.377,0,0,0,1.36-1.392V953.854A1.377,1.377,0,0,0,225.624,952.462Z" transform="translate(0)"/>
    <path id="路径_15230" data-name="路径 15230" class="cls-3" d="M170.761,988.233a3.546,3.546,0,0,0-1.923.561,2.947,2.947,0,0,0-.247-.32,3.258,3.258,0,0,0,1.136-2.453,3.469,3.469,0,0,0-6.933,0,3.257,3.257,0,0,0,1.137,2.453,2.923,2.923,0,0,0-.266.353,3.542,3.542,0,0,0-1.971-.595,3.336,3.336,0,1,0,0,6.667,3.471,3.471,0,0,0,3.162-1.98,3.061,3.061,0,0,0,.607.23h-.195v1.917l-1.685,1.62h5.355l-1.685-1.62V993.15h-.195a3.053,3.053,0,0,0,.555-.2,3.47,3.47,0,0,0,3.147,1.953,3.336,3.336,0,1,0,0-6.667Z" transform="translate(-7.923 -32.072)"/>
    <g id="组_6617" data-name="组 6617" transform="translate(171.633 988.041)">
      <path id="路径_15248" data-name="路径 15248" class="cls-4" d="M834.389,951.1v.875a29.7,29.7,0,0,0-9.054,3.69,17.56,17.56,0,0,0-5.388,5.487,26.624,26.624,0,0,0-3.072,7.99,9.342,9.342,0,0,1,2.276-1.216,13.88,13.88,0,0,1,4.082-.622,10.282,10.282,0,0,1,7.9,3.444q3.164,3.443,3.163,9.395a17.147,17.147,0,0,1-1.714,7.665,12.65,12.65,0,0,1-4.862,5.392,12.8,12.8,0,0,1-6.73,1.9,13.029,13.029,0,0,1-7.2-2.134,14.092,14.092,0,0,1-5.155-6.247,21.489,21.489,0,0,1-1.856-8.943,26.757,26.757,0,0,1,3.412-13.23,25.423,25.423,0,0,1,9.691-9.751A28.9,28.9,0,0,1,834.389,951.1Zm-17.918,20.567q-.251,4.3-.249,6.295a41.088,41.088,0,0,0,.827,8.318,12.533,12.533,0,0,0,2.257,5.641,2.942,2.942,0,0,0,4.988-.514q1.122-1.667,1.121-6.778,0-8.6-2.087-11.873a4.1,4.1,0,0,0-3.615-2.118A7.593,7.593,0,0,0,816.471,971.665Z" transform="translate(-806.779 -951.098)"/>
    </g>
  </g>
</svg>
