<svg xmlns="http://www.w3.org/2000/svg" width="94.991" height="142.088" viewBox="0 0 94.991 142.088">
  <defs>
    <style>
      .cls-1 {
        fill: #8dbbff;
      }

      .cls-2 {
        fill: #fff;
      }

      .cls-3 {
        fill: #06297f;
      }
    </style>
  </defs>
  <g id="组_6610" data-name="组 6610" transform="translate(-132.889 -931.804)">
    <rect id="矩形_3146" data-name="矩形 3146" class="cls-1" width="94.991" height="142.088" rx="4.435" transform="translate(132.889 931.804)"/>
    <path id="路径_15227" data-name="路径 15227" class="cls-2" d="M216.281,951.4a6.992,6.992,0,0,1-6.864-7.1c0-.185.012-.373.026-.551a1.332,1.332,0,0,0,.009-.156,1.225,1.225,0,0,0-1.2-1.247H152.523a1.186,1.186,0,0,0-.887.4,1.272,1.272,0,0,0-.314.948c.016.193.03.4.03.6a6.992,6.992,0,0,1-6.864,7.1,1.227,1.227,0,0,0-1.206,1.246v101.114a1.227,1.227,0,0,0,1.206,1.246,6.992,6.992,0,0,1,6.864,7.1,1.226,1.226,0,0,0,1.205,1.246h55.655a1.226,1.226,0,0,0,1.205-1.246,6.992,6.992,0,0,1,6.864-7.1,1.227,1.227,0,0,0,1.206-1.246V952.645A1.227,1.227,0,0,0,216.281,951.4Z"/>
    <path id="路径_15230" data-name="路径 15230" class="cls-1" d="M170.761,988.233a3.546,3.546,0,0,0-1.923.561,2.947,2.947,0,0,0-.247-.32,3.258,3.258,0,0,0,1.136-2.453,3.469,3.469,0,0,0-6.933,0,3.257,3.257,0,0,0,1.137,2.453,2.923,2.923,0,0,0-.266.353,3.542,3.542,0,0,0-1.971-.595,3.336,3.336,0,1,0,0,6.667,3.471,3.471,0,0,0,3.162-1.98,3.061,3.061,0,0,0,.607.23h-.195v1.917l-1.685,1.62h5.355l-1.685-1.62V993.15h-.195a3.053,3.053,0,0,0,.555-.2,3.47,3.47,0,0,0,3.147,1.953,3.336,3.336,0,1,0,0-6.667Z" transform="translate(-9.793 -32.072)"/>
    <g id="组_6611" data-name="组 6611" transform="translate(-248 29.834)">
      <path id="路径_15236" data-name="路径 15236" class="cls-3" d="M423.127,973.014v-1.088a20.436,20.436,0,0,0,4.921-1.915,7.29,7.29,0,0,0,2.366-2.71,7.6,7.6,0,0,0,1-3.691,6,6,0,0,0-1.883-4.435,6.417,6.417,0,0,0-4.688-1.855q-4.358,0-7.41,4.609l-1.152-.4a18.726,18.726,0,0,1,5.745-7.817,12.743,12.743,0,0,1,7.8-2.615,10.158,10.158,0,0,1,7.24,2.678,8.339,8.339,0,0,1,2.849,6.259,8.488,8.488,0,0,1-1.325,4.5,11.509,11.509,0,0,1-4.155,3.817,14.731,14.731,0,0,1,5.555,4.372,10.7,10.7,0,0,1,1.918,6.524,15.039,15.039,0,0,1-4.782,11.227q-4.779,4.623-12.811,4.625-5.357,0-7.817-1.776a3.772,3.772,0,0,1-1.776-3.208,3.481,3.481,0,0,1,3.394-3.454,4.378,4.378,0,0,1,1.931.435,39.387,39.387,0,0,1,3.536,2.725,9.237,9.237,0,0,0,5.681,2.473,5.157,5.157,0,0,0,3.956-1.82,6.639,6.639,0,0,0,1.65-4.625,12.036,12.036,0,0,0-2.991-7.861A15.68,15.68,0,0,0,423.127,973.014Z" transform="translate(0)"/>
    </g>
  </g>
</svg>
