<svg xmlns="http://www.w3.org/2000/svg" width="114.489" height="166.294" viewBox="0 0 114.489 166.294">
  <defs>
    <style>
      .cls-1, .cls-3 {
        fill: #8dbbff;
      }

      .cls-1 {
        stroke: #fff;
        stroke-linejoin: round;
        stroke-width: 5px;
      }

      .cls-2 {
        fill: #fff;
      }

      .cls-4 {
        fill: #06297f;
      }

      .cls-5 {
        stroke: none;
      }

      .cls-6 {
        fill: none;
      }
    </style>
  </defs>
  <g id="组_6636" data-name="组 6636" transform="translate(-127.889 -926.804)">
    <g id="矩形_3146" data-name="矩形 3146" class="cls-1" transform="translate(132.889 931.804)">
      <rect class="cls-5" width="104.489" height="156.294" rx="4.435"/>
      <rect class="cls-6" x="-2.5" y="-2.5" width="109.489" height="161.294" rx="6.935"/>
    </g>
    <path id="路径_15227" data-name="路径 15227" class="cls-2" d="M225.624,952.462a7.847,7.847,0,0,1-7.743-7.931c0-.207.014-.417.029-.616a1.476,1.476,0,0,0,.01-.174,1.375,1.375,0,0,0-1.358-1.393H153.706a1.344,1.344,0,0,0-1,.45,1.413,1.413,0,0,0-.354,1.059c.018.216.034.447.034.674a7.847,7.847,0,0,1-7.743,7.931,1.377,1.377,0,0,0-1.36,1.392V1066.84a1.377,1.377,0,0,0,1.36,1.392,7.847,7.847,0,0,1,7.743,7.931,1.377,1.377,0,0,0,1.359,1.392h62.778a1.377,1.377,0,0,0,1.359-1.392,7.847,7.847,0,0,1,7.743-7.931,1.377,1.377,0,0,0,1.36-1.392V953.854A1.377,1.377,0,0,0,225.624,952.462Z" transform="translate(0)"/>
    <path id="路径_15230" data-name="路径 15230" class="cls-3" d="M170.761,988.233a3.546,3.546,0,0,0-1.923.561,2.947,2.947,0,0,0-.247-.32,3.258,3.258,0,0,0,1.136-2.453,3.469,3.469,0,0,0-6.933,0,3.257,3.257,0,0,0,1.137,2.453,2.923,2.923,0,0,0-.266.353,3.542,3.542,0,0,0-1.971-.595,3.336,3.336,0,1,0,0,6.667,3.471,3.471,0,0,0,3.162-1.98,3.061,3.061,0,0,0,.607.23h-.195v1.917l-1.685,1.62h5.355l-1.685-1.62V993.15h-.195a3.053,3.053,0,0,0,.555-.2,3.47,3.47,0,0,0,3.147,1.953,3.336,3.336,0,1,0,0-6.667Z" transform="translate(-7.923 -32.072)"/>
    <g id="组_6621" data-name="组 6621" transform="translate(170.934 987.864)">
      <path id="路径_15256" data-name="路径 15256" class="cls-4" d="M1087.914,970.405a23.743,23.743,0,0,1,6.246,6.15,12.23,12.23,0,0,1,1.746,6.526,11.411,11.411,0,0,1-3.884,8.728q-3.886,3.571-10.554,3.569-6.324,0-9.783-3.113a9.858,9.858,0,0,1-3.461-7.613,9.525,9.525,0,0,1,2-6.007,17.547,17.547,0,0,1,6.654-4.719q-5.067-3.867-6.494-6.322a11.062,11.062,0,0,1-1.434-5.691,9.873,9.873,0,0,1,3.632-7.536q3.633-3.255,9.955-3.254,6.1,0,9.391,2.878a8.878,8.878,0,0,1,3.285,6.905,8.521,8.521,0,0,1-1.775,5.331A15.579,15.579,0,0,1,1087.914,970.405Zm-8.68,5.031a6.791,6.791,0,0,0-1.383,1.6,12.536,12.536,0,0,0-1.134,3.209,18.964,18.964,0,0,0-.5,4.4,14.109,14.109,0,0,0,.755,4.955,5.583,5.583,0,0,0,2.154,2.878,5.349,5.349,0,0,0,2.88.879,5.094,5.094,0,0,0,3.868-1.683,6.48,6.48,0,0,0,1.571-4.608Q1087.442,980.975,1079.233,975.437Zm6.29-6.638a10.976,10.976,0,0,0,1.731-3.521,15.377,15.377,0,0,0,.567-4.28,9.729,9.729,0,0,0-1.762-6.258,4.394,4.394,0,0,0-3.649-1.667,4.806,4.806,0,0,0-3.585,1.526,5.218,5.218,0,0,0-1.479,3.789,8.6,8.6,0,0,0,1.65,4.767Q1080.647,965.622,1085.524,968.8Z" transform="translate(-1068.224 -951.123)"/>
    </g>
  </g>
</svg>
