<svg xmlns="http://www.w3.org/2000/svg" width="193.186" height="89.34" viewBox="0 0 193.186 89.34">
  <defs>
    <style>
      .cls-1 {
        fill: #ccd9ff;
      }

      .cls-2 {
        fill: #8ca6fd;
      }
    </style>
  </defs>
  <g id="组_3765" data-name="组 3765" transform="translate(-1016.271 -444.587)">
    <path id="路径_8804" data-name="路径 8804" class="cls-1" d="M1112.864,533.927h54.952a14.555,14.555,0,0,0,7.536-2.1l30.177-18.268a8.141,8.141,0,0,0,3.928-6.965V470.536a8.144,8.144,0,0,0-4.145-7.092l-30.106-16.981a14.555,14.555,0,0,0-7.149-1.876H1057.671a14.555,14.555,0,0,0-7.149,1.876l-30.106,16.981a8.144,8.144,0,0,0-4.145,7.092v36.056a8.141,8.141,0,0,0,3.928,6.965l30.176,18.268a14.56,14.56,0,0,0,7.537,2.1Z"/>
    <path id="路径_8805" data-name="路径 8805" class="cls-2" d="M1112.864,527.293h49.771a13.82,13.82,0,0,0,6.825-1.79l27.332-15.555a6.858,6.858,0,0,0,3.557-5.931v-30.7a6.874,6.874,0,0,0-3.754-6.039l-27.267-14.459a13.835,13.835,0,0,0-6.475-1.6h-99.978a13.835,13.835,0,0,0-6.475,1.6l-27.267,14.459a6.874,6.874,0,0,0-3.754,6.039v30.7a6.858,6.858,0,0,0,3.557,5.931l27.332,15.555a13.821,13.821,0,0,0,6.825,1.79Z"/>
  </g>
</svg>
