<svg xmlns="http://www.w3.org/2000/svg" width="94.991" height="142.088" viewBox="0 0 94.991 142.088">
  <defs>
    <style>
      .cls-1 {
        fill: #8dbbff;
      }

      .cls-2 {
        fill: #fff;
      }

      .cls-3 {
        fill: #06297f;
      }
    </style>
  </defs>
  <g id="组_6608" data-name="组 6608" transform="translate(-132.889 -931.804)">
    <rect id="矩形_3146" data-name="矩形 3146" class="cls-1" width="94.991" height="142.088" rx="4.435" transform="translate(132.889 931.804)"/>
    <path id="路径_15227" data-name="路径 15227" class="cls-2" d="M216.281,951.4a6.992,6.992,0,0,1-6.864-7.1c0-.185.012-.373.026-.551a1.332,1.332,0,0,0,.009-.156,1.225,1.225,0,0,0-1.2-1.247H152.523a1.186,1.186,0,0,0-.887.4,1.272,1.272,0,0,0-.314.948c.016.193.03.4.03.6a6.992,6.992,0,0,1-6.864,7.1,1.227,1.227,0,0,0-1.206,1.246v101.114a1.227,1.227,0,0,0,1.206,1.246,6.992,6.992,0,0,1,6.864,7.1,1.226,1.226,0,0,0,1.205,1.246h55.655a1.226,1.226,0,0,0,1.205-1.246,6.992,6.992,0,0,1,6.864-7.1,1.227,1.227,0,0,0,1.206-1.246V952.645A1.227,1.227,0,0,0,216.281,951.4Z"/>
    <path id="路径_15230" data-name="路径 15230" class="cls-1" d="M170.761,988.233a3.546,3.546,0,0,0-1.923.561,2.947,2.947,0,0,0-.247-.32,3.258,3.258,0,0,0,1.136-2.453,3.469,3.469,0,0,0-6.933,0,3.257,3.257,0,0,0,1.137,2.453,2.923,2.923,0,0,0-.266.353,3.542,3.542,0,0,0-1.971-.595,3.336,3.336,0,1,0,0,6.667,3.471,3.471,0,0,0,3.162-1.98,3.061,3.061,0,0,0,.607.23h-.195v1.917l-1.685,1.62h5.355l-1.685-1.62V993.15h-.195a3.053,3.053,0,0,0,.555-.2,3.47,3.47,0,0,0,3.147,1.953,3.336,3.336,0,1,0,0-6.667Z" transform="translate(-9.793 -32.072)"/>
    <g id="组_6609" data-name="组 6609" transform="translate(-162.773 -59.731)">
      <path id="路径_15233" data-name="路径 15233" class="cls-3" d="M354.83,1084.658H329.461v-.7q11.663-13.893,14.16-18.694a20.23,20.23,0,0,0,2.5-9.379,7.8,7.8,0,0,0-2.067-5.548,6.647,6.647,0,0,0-5.052-2.209q-4.9,0-7.6,4.895l-1.177-.413q1.718-6.1,5.213-9.029a12.238,12.238,0,0,1,8.075-2.925,11.954,11.954,0,0,1,5.977,1.527,11.03,11.03,0,0,1,4.229,4.181,10.08,10.08,0,0,1,1.527,4.973,17.962,17.962,0,0,1-2.354,8.583q-3.209,5.884-14.018,16.407h9.313a21.345,21.345,0,0,0,4.468-.287,3.7,3.7,0,0,0,1.7-.969,12.641,12.641,0,0,0,1.748-2.878h1.142Z" transform="translate(0)"/>
    </g>
  </g>
</svg>
