<svg xmlns="http://www.w3.org/2000/svg" width="114.489" height="166.294" viewBox="0 0 114.489 166.294">
  <defs>
    <style>
      .cls-1, .cls-4 {
        fill: #8dbbff;
      }

      .cls-1 {
        stroke: #fff;
        stroke-linejoin: round;
        stroke-width: 5px;
      }

      .cls-2 {
        fill: #fff;
      }

      .cls-3 {
        fill: #06297f;
        stroke: #06297f;
      }

      .cls-5 {
        stroke: none;
      }

      .cls-6 {
        fill: none;
      }
    </style>
  </defs>
  <g id="组_6641" data-name="组 6641" transform="translate(-127.889 -926.804)">
    <g id="矩形_3146" data-name="矩形 3146" class="cls-1" transform="translate(132.889 931.804)">
      <rect class="cls-5" width="104.489" height="156.294" rx="4.435"/>
      <rect class="cls-6" x="-2.5" y="-2.5" width="109.489" height="161.294" rx="6.935"/>
    </g>
    <path id="路径_15227" data-name="路径 15227" class="cls-2" d="M225.624,952.462a7.847,7.847,0,0,1-7.743-7.931c0-.207.014-.417.029-.616a1.476,1.476,0,0,0,.01-.174,1.375,1.375,0,0,0-1.358-1.393H153.706a1.344,1.344,0,0,0-1,.45,1.413,1.413,0,0,0-.354,1.059c.018.216.034.447.034.674a7.847,7.847,0,0,1-7.743,7.931,1.377,1.377,0,0,0-1.36,1.392V1066.84a1.377,1.377,0,0,0,1.36,1.392,7.847,7.847,0,0,1,7.743,7.931,1.377,1.377,0,0,0,1.359,1.392h62.778a1.377,1.377,0,0,0,1.359-1.392,7.847,7.847,0,0,1,7.743-7.931,1.377,1.377,0,0,0,1.36-1.392V953.854A1.377,1.377,0,0,0,225.624,952.462Z" transform="translate(0)"/>
    <g id="组_5489" data-name="组 5489" transform="translate(165.727 988.423)">
      <path id="路径_15228" data-name="路径 15228" class="cls-3" d="M191.306,995.093h-6.342l-4.531-12.044H161.925l-4.277,12.044h-6.342l16.932-44h6.139Zm-12.652-17.016-6.716-18.293a20.073,20.073,0,0,1-.688-3.066H171.1a16.479,16.479,0,0,1-.717,3.066l-6.659,18.293Z" transform="translate(-151.306 -951.093)"/>
    </g>
    <path id="路径_15230" data-name="路径 15230" class="cls-4" d="M170.761,988.233a3.546,3.546,0,0,0-1.923.561,2.947,2.947,0,0,0-.247-.32,3.258,3.258,0,0,0,1.136-2.453,3.469,3.469,0,0,0-6.933,0,3.257,3.257,0,0,0,1.137,2.453,2.923,2.923,0,0,0-.266.353,3.542,3.542,0,0,0-1.971-.595,3.336,3.336,0,1,0,0,6.667,3.471,3.471,0,0,0,3.162-1.98,3.061,3.061,0,0,0,.607.23h-.195v1.917l-1.685,1.62h5.355l-1.685-1.62V993.15h-.195a3.053,3.053,0,0,0,.555-.2,3.47,3.47,0,0,0,3.147,1.953,3.336,3.336,0,1,0,0-6.667Z" transform="translate(-7.923 -32.072)"/>
  </g>
</svg>
