<svg xmlns="http://www.w3.org/2000/svg" width="134.063" height="68.188" viewBox="0 0 134.063 68.188">
  <defs>
    <style>
      .cls-1 {
        fill: #fab009;
      }

      .cls-2 {
        fill: #fece0a;
      }

      .cls-3, .cls-5 {
        fill: #fff;
      }

      .cls-4, .cls-5 {
        stroke: none;
      }
    </style>
  </defs>
  <g id="组_11326" data-name="组 11326" transform="translate(-1528.34 -142.305)">
    <g id="组_11325" data-name="组 11325" transform="translate(821 -408)">
      <g id="联合_8" data-name="联合 8" class="cls-1" transform="translate(10781.341 5217.306)">
        <path class="cls-4" d="M -9962.529296875 -4603.81298828125 L -10051.41015625 -4603.81298828125 C -10053.7822265625 -4603.81298828125 -10056.0869140625 -4604.27880859375 -10058.2587890625 -4605.197265625 C -10060.353515625 -4606.08349609375 -10062.234375 -4607.35107421875 -10063.8486328125 -4608.96533203125 C -10065.4619140625 -4610.5791015625 -10066.73046875 -4612.45947265625 -10067.6162109375 -4614.5546875 C -10068.53515625 -4616.7265625 -10069.0009765625 -4619.03076171875 -10069.0009765625 -4621.4033203125 L -10069.0009765625 -4639.98291015625 L -10069.0009765625 -4641.05126953125 C -10069.0009765625 -4643.93408203125 -10068.384765625 -4646.72900390625 -10067.16796875 -4649.35791015625 C -10066.009765625 -4651.86279296875 -10064.3603515625 -4654.103515625 -10062.2666015625 -4656.0185546875 C -10060.205078125 -4657.904296875 -10057.8115234375 -4659.3818359375 -10055.15234375 -4660.41064453125 C -10052.4248046875 -4661.4658203125 -10049.5341796875 -4662.0009765625 -10046.560546875 -4662.0009765625 L -9967.37890625 -4662.0009765625 C -9964.4052734375 -4662.0009765625 -9961.5146484375 -4661.4658203125 -9958.787109375 -4660.41064453125 C -9956.1279296875 -4659.3818359375 -9953.734375 -4657.904296875 -9951.6728515625 -4656.0185546875 C -9949.5791015625 -4654.103515625 -9947.9296875 -4651.86279296875 -9946.771484375 -4649.35791015625 C -9945.5546875 -4646.72900390625 -9944.9384765625 -4643.93408203125 -9944.9384765625 -4641.05126953125 L -9944.9384765625 -4629.1904296875 L -9944.9384765625 -4621.4033203125 C -9944.9384765625 -4619.03076171875 -9945.404296875 -4616.7265625 -9946.3232421875 -4614.5546875 C -9947.208984375 -4612.45947265625 -9948.4775390625 -4610.5791015625 -9950.0908203125 -4608.96533203125 C -9951.705078125 -4607.35107421875 -9953.5859375 -4606.08349609375 -9955.6806640625 -4605.197265625 C -9957.8525390625 -4604.27880859375 -9960.1572265625 -4603.81298828125 -9962.529296875 -4603.81298828125 Z"/>
        <path class="cls-5" d="M -9962.529296875 -4608.81298828125 C -9955.576171875 -4608.81298828125 -9949.9384765625 -4614.4501953125 -9949.9384765625 -4621.4033203125 L -9949.9384765625 -4629.1904296875 L -9949.9384765625 -4641.05126953125 C -9949.9384765625 -4649.8583984375 -9957.748046875 -4657.0009765625 -9967.37890625 -4657.0009765625 L -10046.560546875 -4657.0009765625 C -10056.19140625 -4657.0009765625 -10064.0009765625 -4649.8583984375 -10064.0009765625 -4641.05126953125 L -10064.0009765625 -4639.98291015625 L -10064.0009765625 -4621.4033203125 C -10064.0009765625 -4614.4501953125 -10058.36328125 -4608.81298828125 -10051.41015625 -4608.81298828125 L -9962.529296875 -4608.81298828125 M -9962.529296875 -4598.81298828125 L -10051.41015625 -4598.81298828125 C -10063.8671875 -4598.81298828125 -10074.0009765625 -4608.94677734375 -10074.0009765625 -4621.4033203125 L -10074.0009765625 -4639.98291015625 L -10074.0009765625 -4641.05126953125 C -10074.0009765625 -4655.35986328125 -10061.69140625 -4667.0009765625 -10046.560546875 -4667.0009765625 L -9967.37890625 -4667.0009765625 C -9952.248046875 -4667.0009765625 -9939.9384765625 -4655.35986328125 -9939.9384765625 -4641.05126953125 L -9939.9384765625 -4629.1904296875 L -9939.9384765625 -4621.4033203125 C -9939.9384765625 -4608.94677734375 -9950.072265625 -4598.81298828125 -9962.529296875 -4598.81298828125 Z"/>
      </g>
      <path id="路径_25625" data-name="路径 25625" class="cls-2" d="M17.44,0H96.621c9.632,0,17.44,7.14,17.44,15.949V27.81c0,8.808-7.808,15.949-17.44,15.949H17.44C7.808,43.758,0,36.618,0,27.81V15.949C0,7.14,7.808,0,17.44,0Z" transform="translate(717.341 560.306)"/>
      <ellipse id="椭圆_2524" data-name="椭圆 2524" class="cls-3" cx="4.231" cy="3.098" rx="4.231" ry="3.098" transform="matrix(0.908, -0.418, 0.418, 0.908, 723.239, 568.71)"/>
      <path id="路径_25666" data-name="路径 25666" class="cls-3" d="M.445-9.832H5.883v-5.742H1.734v-3.047h20.93v3.047H18.891v5.742h4.758v3.047H18.891V2.824h-3.4V-6.785H9.211a13.471,13.471,0,0,1-1.6,6.4A11.138,11.138,0,0,1,3.445,3.293Q2.133,2.145.492.9A12.879,12.879,0,0,0,4.1-1.875a8.078,8.078,0,0,0,1.658-4.91H.445Zm8.836,0h6.211v-5.742H9.281Zm35,13.031V-1.336L42.009,1.09q-.961-1-1.922-1.934a16.824,16.824,0,0,1-4.148,4.02q-1.078-1.43-2.133-2.6a14.933,14.933,0,0,0,3.938-3.633q-1.687-1.547-3.352-2.93Q35.2-8.859,35.857-12.6H33.994V-15.5h2.332q.316-2.145.6-4.547l3.117.328-.68,4.219h4.2q-.023,1.523-.117,2.895A30.307,30.307,0,0,0,48.08-20.1l3.469.984a60.909,60.909,0,0,1-4.523,6.445q2.754-.164,5.555-.4-.855-1.723-1.711-3.281L53.4-17.379q2.016,3.328,4.031,7.406L54.6-8.777l-.832-1.828q-7.008.492-9.48.938l-.891-2.215a26.4,26.4,0,0,1-1.758,8.309l2.648,2.1V-7.934h11.7V3.105H52.838V1.77H47.423V3.2ZM37.627-6.738l1.559,1.23a22.174,22.174,0,0,0,1.348-7.09H38.845Q38.271-9.527,37.627-6.738ZM52.838-4.98H47.423v3.8h5.414Z" transform="translate(745.284 591.84)"/>
    </g>
  </g>
</svg>
