<svg xmlns="http://www.w3.org/2000/svg" width="114.061" height="48.186" viewBox="0 0 114.061 48.186">
  <defs>
    <style>
      .cls-1 {
        fill: #fab009;
      }

      .cls-2 {
        fill: #fece0a;
      }

      .cls-3 {
        fill: #fff;
      }
    </style>
  </defs>
  <g id="组_11324" data-name="组 11324" transform="translate(-717.341 -560.306)">
    <rect id="矩形_2361" data-name="矩形 2361" class="cls-1" width="114.061" height="43.758" rx="12.59" transform="translate(717.341 564.733)"/>
    <path id="路径_25624" data-name="路径 25624" class="cls-2" d="M17.44,0H96.621c9.632,0,17.44,7.14,17.44,15.949V27.81c0,8.808-7.808,15.949-17.44,15.949H17.44C7.808,43.758,0,36.618,0,27.81V15.949C0,7.14,7.808,0,17.44,0Z" transform="translate(717.341 560.306)"/>
    <ellipse id="椭圆_2524" data-name="椭圆 2524" class="cls-3" cx="4.231" cy="3.098" rx="4.231" ry="3.098" transform="matrix(0.908, -0.418, 0.418, 0.908, 723.239, 568.71)"/>
    <path id="路径_25665" data-name="路径 25665" class="cls-3" d="M.445-9.832H5.883v-5.742H1.734v-3.047h20.93v3.047H18.891v5.742h4.758v3.047H18.891V2.824h-3.4V-6.785H9.211a13.471,13.471,0,0,1-1.6,6.4A11.138,11.138,0,0,1,3.445,3.293Q2.133,2.145.492.9A12.879,12.879,0,0,0,4.1-1.875a8.078,8.078,0,0,0,1.658-4.91H.445Zm8.836,0h6.211v-5.742H9.281Zm35,13.031V-1.336L42.009,1.09q-.961-1-1.922-1.934a16.824,16.824,0,0,1-4.148,4.02q-1.078-1.43-2.133-2.6a14.933,14.933,0,0,0,3.938-3.633q-1.687-1.547-3.352-2.93Q35.2-8.859,35.857-12.6H33.994V-15.5h2.332q.316-2.145.6-4.547l3.117.328-.68,4.219h4.2q-.023,1.523-.117,2.895A30.307,30.307,0,0,0,48.08-20.1l3.469.984a60.909,60.909,0,0,1-4.523,6.445q2.754-.164,5.555-.4-.855-1.723-1.711-3.281L53.4-17.379q2.016,3.328,4.031,7.406L54.6-8.777l-.832-1.828q-7.008.492-9.48.938l-.891-2.215a26.4,26.4,0,0,1-1.758,8.309l2.648,2.1V-7.934h11.7V3.105H52.838V1.77H47.423V3.2ZM37.627-6.738l1.559,1.23a22.174,22.174,0,0,0,1.348-7.09H38.845Q38.271-9.527,37.627-6.738ZM52.838-4.98H47.423v3.8h5.414Z" transform="translate(745.284 591.84)"/>
  </g>
</svg>
