<svg xmlns="http://www.w3.org/2000/svg" width="102.481" height="107.094" viewBox="0 0 102.481 107.094">
  <defs>
    <style>
      .cls-1 {
        fill: #874123;
        stroke-linejoin: round;
      }

      .cls-2 {
        fill: #fac182;
      }

      .cls-3 {
        fill: #ffe0b1;
      }

      .cls-4 {
        fill: #dbad76;
      }

      .cls-5, .cls-6 {
        stroke: none;
      }

      .cls-6 {
        fill: #fff;
      }
    </style>
  </defs>
  <g id="组_5340" data-name="组 5340" transform="translate(-1553.315 -460.095)">
    <g id="路径_14990" data-name="路径 14990" class="cls-1">
      <path class="cls-5" d="M 1638.173217773438 564.6887817382813 L 1636.823974609375 564.6887817382813 L 1558.31494140625 564.6887817382813 L 1555.81494140625 564.6887817382813 L 1555.81494140625 562.1887817382813 L 1555.81494140625 483.7157592773438 L 1555.81494140625 482.8507995605469 L 1556.349487304688 482.1707763671875 L 1570.986938476563 463.5495910644531 L 1571.737670898438 462.5945434570313 L 1572.952392578125 462.5945434570313 L 1650.13037109375 462.5945434570313 L 1652.608520507813 462.5945434570313 L 1652.630249023438 465.0726013183594 L 1653.295776367188 540.885986328125 L 1653.302490234375 541.645263671875 L 1652.8857421875 542.2799682617188 L 1638.913818359375 563.5608520507813 L 1638.173217773438 564.6887817382813 Z"/>
      <path class="cls-6" d="M 1572.952392578125 465.0945434570313 L 1558.31494140625 483.7157592773438 L 1558.31494140625 562.1887817382813 L 1636.823974609375 562.1887817382813 L 1650.7958984375 540.9078979492188 L 1650.13037109375 465.0945434570313 L 1572.952392578125 465.0945434570313 M 1572.952392578125 460.0945434570313 L 1650.13037109375 460.0945434570313 C 1652.874633789063 460.0945434570313 1655.106079101563 462.3064575195313 1655.130126953125 465.0506591796875 L 1655.795654296875 540.864013671875 C 1655.804443359375 541.8540649414063 1655.518920898438 542.8244018554688 1654.9755859375 543.6520385742188 L 1641.003662109375 564.9329223632813 C 1640.079223632813 566.3408203125 1638.508178710938 567.1887817382813 1636.823974609375 567.1887817382813 L 1558.31494140625 567.1887817382813 C 1555.553466796875 567.1887817382813 1553.31494140625 564.9501953125 1553.31494140625 562.1887817382813 L 1553.31494140625 483.7157592773438 C 1553.31494140625 482.5950927734375 1553.69140625 481.5068969726563 1554.384033203125 480.6257934570313 L 1569.021484375 462.0045776367188 C 1569.969360351563 460.7986450195313 1571.41845703125 460.0945434570313 1572.952392578125 460.0945434570313 Z"/>
    </g>
    <path id="路径_14991" data-name="路径 14991" class="cls-2" d="M1558.315,483.716h78.509v78.473h-78.509Z"/>
    <path id="路径_14992" data-name="路径 14992" class="cls-3" d="M1572.952,465.1h77.178l-13.306,18.621h-78.509Z"/>
    <path id="路径_14993" data-name="路径 14993" class="cls-4" d="M1636.824,483.716v78.473l13.972-21.281-.666-75.813Z"/>
  </g>
</svg>
