<svg xmlns="http://www.w3.org/2000/svg" width="293.092" height="561.452" viewBox="0 0 293.092 561.452">
  <defs>
    <style>
      .cls-1 {
        fill: #639686;
      }

      .cls-2 {
        fill: #9bccbd;
      }

      .cls-3 {
        fill: #2c6f71;
      }
    </style>
  </defs>
  <g id="组_5381" data-name="组 5381" transform="translate(-941.381)">
    <path id="矩形_953" data-name="矩形 953" class="cls-1" d="M1234.473,172.6V533.268c0,15.566-16.649,28.184-37.185,28.184H978.566c-20.537,0-37.185-12.618-37.185-28.184V172.6c0-15.566,16.648-28.184,37.185-28.184h218.722C1217.824,144.415,1234.473,157.033,1234.473,172.6Z"/>
    <path id="矩形_953-2" data-name="矩形 953" class="cls-2" d="M1225.647,182.17V523.7c0,14.74-15.646,26.689-34.946,26.689H985.153c-19.3,0-34.946-11.949-34.946-26.689V182.17c0-14.74,15.646-26.689,34.946-26.689H1190.7C1210,155.481,1225.647,167.43,1225.647,182.17Z"/>
    <rect id="矩形_3095" data-name="矩形 3095" class="cls-3" width="11.342" height="144.415" transform="translate(1074.824)"/>
  </g>
</svg>
