<svg xmlns="http://www.w3.org/2000/svg" width="124.729" height="74.329" viewBox="0 0 124.729 74.329">
  <defs>
    <style>
      .cls-1 {
        fill: #874123;
        stroke-linejoin: round;
      }

      .cls-2 {
        fill: #fac182;
      }

      .cls-3 {
        fill: #dbad76;
      }

      .cls-4 {
        fill: #ffe0b1;
      }

      .cls-5, .cls-6 {
        stroke: none;
      }

      .cls-6 {
        fill: #fff;
      }
    </style>
  </defs>
  <g id="组_5344" data-name="组 5344" transform="translate(-2063.351 -467.009)">
    <g id="路径_15000" data-name="路径 15000" class="cls-1">
      <path class="cls-5" d="M 2170.9931640625 538.837890625 L 2170.128173828125 538.837890625 L 2068.351318359375 538.837890625 L 2065.851318359375 538.837890625 L 2065.851318359375 536.337890625 L 2065.851318359375 481.7276000976563 L 2065.851318359375 480.4263000488281 L 2066.917236328125 479.6798095703125 L 2080.794921875 469.9611206054688 L 2081.44580078125 469.5053100585938 L 2082.240478515625 469.5089416503906 L 2183.09228515625 469.9718322753906 L 2185.580810546875 469.9832458496094 L 2185.580810546875 472.4718017578125 L 2185.580810546875 526.15625 L 2185.580810546875 527.3709716796875 L 2184.625732421875 528.1217041015625 L 2171.673095703125 538.3033447265625 L 2170.9931640625 538.837890625 Z"/>
      <path class="cls-6" d="M 2082.22900390625 472.0089111328125 L 2068.351318359375 481.7276000976563 L 2068.351318359375 536.337890625 L 2170.128173828125 536.337890625 L 2183.080810546875 526.15625 L 2183.080810546875 472.4718017578125 L 2082.22900390625 472.0089111328125 M 2082.22900390625 467.0089111328125 C 2082.236572265625 467.0089111328125 2082.244140625 467.0089111328125 2082.251953125 467.0089721679688 L 2183.103759765625 467.4718627929688 C 2185.856201171875 467.4844970703125 2188.080810546875 469.7193603515625 2188.080810546875 472.4718017578125 L 2188.080810546875 526.15625 C 2188.080810546875 527.690185546875 2187.376708984375 529.13916015625 2186.170654296875 530.087158203125 L 2173.218017578125 540.268798828125 C 2172.337158203125 540.96142578125 2171.248779296875 541.337890625 2170.128173828125 541.337890625 L 2068.351318359375 541.337890625 C 2065.58984375 541.337890625 2063.351318359375 539.0993041992188 2063.351318359375 536.337890625 L 2063.351318359375 481.7276000976563 C 2063.351318359375 480.0963745117188 2064.14697265625 478.5677490234375 2065.483154296875 477.6320190429688 L 2079.36083984375 467.913330078125 C 2080.201416015625 467.3245849609375 2081.202880859375 467.0089111328125 2082.22900390625 467.0089111328125 Z"/>
    </g>
    <path id="路径_15001" data-name="路径 15001" class="cls-2" d="M2170.128,536.338v-54.61H2068.351v54.61Z"/>
    <path id="路径_15002" data-name="路径 15002" class="cls-3" d="M2183.081,526.156V472.472l-12.953,9.256v54.61Z"/>
    <path id="路径_15003" data-name="路径 15003" class="cls-4" d="M2170.128,481.728H2068.351l13.878-9.719,100.852.463Z"/>
  </g>
</svg>
