<svg xmlns="http://www.w3.org/2000/svg" width="109.551" height="109.57" viewBox="0 0 109.551 109.57">
  <defs>
    <style>
      .cls-1 {
        fill: #874123;
        stroke-linejoin: round;
      }

      .cls-2 {
        fill: #ffe0b1;
      }

      .cls-3 {
        fill: #fac182;
      }

      .cls-4, .cls-5 {
        stroke: none;
      }

      .cls-5 {
        fill: #fff;
      }
    </style>
  </defs>
  <g id="组_5341" data-name="组 5341" transform="translate(-2265.692 -454.88)">
    <g id="路径_14994" data-name="路径 14994" class="cls-1">
      <path class="cls-4" d="M 2320.468017578125 561.9500122070313 C 2313.579833984375 561.9500122070313 2306.884765625 560.630615234375 2300.569091796875 558.0284423828125 C 2294.4697265625 555.515625 2288.958984375 551.9093627929688 2284.189453125 547.3099365234375 C 2279.4287109375 542.7188110351563 2275.62744140625 537.3515014648438 2272.8916015625 531.357177734375 C 2270.066650390625 525.1680908203125 2268.499267578125 518.5643310546875 2268.23291015625 511.7293395996094 L 2268.232421875 511.7171020507813 L 2268.23193359375 511.7048950195313 L 2268.229248046875 511.612060546875 C 2268.2109375 510.9830322265625 2268.19189453125 510.3325805664063 2268.19189453125 509.6749877929688 C 2268.19189453125 509.1744689941406 2268.19189453125 508.6575622558594 2268.233642578125 508.102783203125 C 2268.433349609375 501.2294006347656 2269.94873046875 494.580810546875 2272.737548828125 488.3397827148438 C 2275.44482421875 482.281982421875 2279.236572265625 476.8533325195313 2284.0078125 472.2046508789063 C 2288.784912109375 467.5500793457031 2294.31689453125 463.8990783691406 2300.44970703125 461.3531494140625 C 2306.80029296875 458.7167663574219 2313.53564453125 457.3800048828125 2320.468017578125 457.3800048828125 C 2327.41064453125 457.3800048828125 2334.1552734375 458.7203369140625 2340.51416015625 461.3637390136719 C 2346.65625 463.9169921875 2352.194091796875 467.5779113769531 2356.973388671875 472.2448120117188 C 2361.748291015625 476.907470703125 2365.538330078125 482.3513793945313 2368.23828125 488.4253540039063 C 2371.01953125 494.6826477050781 2372.521484375 501.3480224609375 2372.702392578125 508.2369079589844 C 2372.742919921875 508.7529296875 2372.742919921875 509.2213134765625 2372.742919921875 509.6749877929688 C 2372.742919921875 510.4268188476563 2372.72314453125 511.1426086425781 2372.7041015625 511.8348388671875 L 2372.70361328125 511.8528137207031 L 2372.702880859375 511.8707885742188 C 2372.416748046875 518.6912231445313 2370.8349609375 525.2788696289063 2368.001708984375 531.4507446289063 C 2365.257080078125 537.4290161132813 2361.45263671875 542.7808837890625 2356.693603515625 547.3576049804688 C 2351.925537109375 551.9427490234375 2346.420166015625 555.5374755859375 2340.330322265625 558.0418701171875 C 2334.0244140625 560.6351318359375 2327.341796875 561.9500122070313 2320.468017578125 561.9500122070313 Z"/>
      <path class="cls-5" d="M 2320.468017578125 459.8800048828125 C 2293.4609375 459.8800048828125 2271.47900390625 481.4020385742188 2270.73095703125 508.2359924316406 C 2270.69189453125 508.7160034179688 2270.69189453125 509.1950073242188 2270.69189453125 509.6749877929688 C 2270.69189453125 510.3269958496094 2270.7119140625 510.97900390625 2270.73095703125 511.6319885253906 C 2271.76708984375 538.2169799804688 2293.633056640625 559.4500122070313 2320.468017578125 559.4500122070313 C 2347.2451171875 559.4500122070313 2369.092041015625 538.2930297851563 2370.205078125 511.7659912109375 C 2370.22412109375 511.0750122070313 2370.242919921875 510.385009765625 2370.242919921875 509.6749877929688 C 2370.242919921875 509.2340087890625 2370.242919921875 508.81201171875 2370.205078125 508.3710021972656 C 2369.533935546875 481.4590454101563 2347.512939453125 459.8800048828125 2320.468017578125 459.8800048828125 M 2320.468017578125 454.8800048828125 C 2327.74169921875 454.8800048828125 2334.809326171875 456.2847900390625 2341.473876953125 459.0552368164063 C 2347.91015625 461.7308349609375 2353.712646484375 465.566650390625 2358.719970703125 470.4561767578125 C 2363.72265625 475.3411254882813 2367.693603515625 481.045166015625 2370.522705078125 487.409912109375 C 2373.4296875 493.94970703125 2375.0029296875 500.9127807617188 2375.199951171875 508.1091613769531 C 2375.242919921875 508.6950378417969 2375.242919921875 509.2131652832031 2375.242919921875 509.6749877929688 C 2375.242919921875 510.4621887207031 2375.2216796875 511.2280883789063 2375.203125 511.9038391113281 C 2375.202392578125 511.9277648925781 2375.20166015625 511.9516906738281 2375.20068359375 511.9755859375 C 2374.90087890625 519.1220703125 2373.2431640625 526.025390625 2370.273681640625 532.4937744140625 C 2367.39794921875 538.7576904296875 2363.412109375 544.3649291992188 2358.42626953125 549.1595458984375 C 2353.43115234375 553.9632568359375 2347.662841796875 557.7296142578125 2341.28125 560.35400390625 C 2334.672119140625 563.0718994140625 2327.66943359375 564.4500122070313 2320.468017578125 564.4500122070313 C 2313.25146484375 564.4500122070313 2306.236083984375 563.0671997070313 2299.61669921875 560.3399658203125 C 2293.225341796875 557.706787109375 2287.450927734375 553.92822265625 2282.4541015625 549.1094970703125 C 2277.466552734375 544.2996826171875 2273.484130859375 538.6761474609375 2270.6171875 532.3952026367188 C 2267.656494140625 525.90869140625 2266.013916015625 518.9884033203125 2265.73486328125 511.8267211914063 C 2265.734130859375 511.8104248046875 2265.733642578125 511.7941284179688 2265.733154296875 511.77783203125 L 2265.73046875 511.6857299804688 C 2265.71142578125 511.0385437011719 2265.69189453125 510.3693237304688 2265.69189453125 509.6749877929688 C 2265.69189453125 509.1689147949219 2265.69189453125 508.6001281738281 2265.736328125 507.9747009277344 C 2265.9521484375 500.7925415039063 2267.53955078125 493.8441162109375 2270.455078125 487.31982421875 C 2273.291748046875 480.9722290039063 2277.2646484375 475.2843017578125 2282.26318359375 470.4140625 C 2287.26806640625 465.5374755859375 2293.064453125 461.7120971679688 2299.4912109375 459.044189453125 C 2306.147216796875 456.2810668945313 2313.204833984375 454.8800048828125 2320.468017578125 454.8800048828125 Z"/>
    </g>
    <path id="路径_14995" data-name="路径 14995" class="cls-2" d="M2370.205,508.371a1.288,1.288,0,0,0-.767.268c-52.806,37.058-95.888,1.688-97.652,0a1.581,1.581,0,0,0-1.055-.4,49.755,49.755,0,0,1,99.474.135Z"/>
    <path id="路径_14996" data-name="路径 14996" class="cls-3" d="M2370.243,509.675c0,.71-.019,1.4-.038,2.091a49.778,49.778,0,0,1-99.474-.134c-.019-.653-.039-1.3-.039-1.957,0-.479,0-.959.039-1.439a1.581,1.581,0,0,1,1.055.4c1.764,1.688,44.846,37.058,97.652,0a1.288,1.288,0,0,1,.767-.268C2370.243,508.812,2370.243,509.234,2370.243,509.675Z"/>
  </g>
</svg>
