<svg xmlns="http://www.w3.org/2000/svg" width="92.943" height="92.904" viewBox="0 0 92.943 92.904">
  <defs>
    <style>
      .cls-1 {
        fill: #fac182;
      }

      .cls-2, .cls-3 {
        stroke: none;
      }

      .cls-3 {
        fill: #fff;
      }
    </style>
  </defs>
  <g id="路径_14999" data-name="路径 14999" class="cls-1" transform="translate(-1726.016 -459.462)">
    <path class="cls-2" d="M 1816.458984375 549.8660278320313 L 1813.958984375 549.8660278320313 L 1731.015991210938 549.8660278320313 L 1728.515991210938 549.8660278320313 L 1728.515991210938 547.3660278320313 L 1728.515991210938 464.4620056152344 L 1728.515991210938 461.9620056152344 L 1731.015991210938 461.9620056152344 L 1813.958984375 461.9620056152344 L 1816.458984375 461.9620056152344 L 1816.458984375 464.4620056152344 L 1816.458984375 547.3660278320313 L 1816.458984375 549.8660278320313 Z"/>
    <path class="cls-3" d="M 1731.015991210938 464.4620361328125 L 1731.015991210938 547.3660278320313 L 1813.958984375 547.3660278320313 L 1813.958984375 464.4620361328125 L 1731.015991210938 464.4620361328125 M 1726.015991210938 459.4620361328125 L 1731.015991210938 459.4620361328125 L 1813.958984375 459.4620361328125 L 1818.958984375 459.4620361328125 L 1818.958984375 464.4620361328125 L 1818.958984375 547.3660278320313 L 1818.958984375 552.3660278320313 L 1813.958984375 552.3660278320313 L 1731.015991210938 552.3660278320313 L 1726.015991210938 552.3660278320313 L 1726.015991210938 547.3660278320313 L 1726.015991210938 464.4620361328125 L 1726.015991210938 459.4620361328125 Z"/>
  </g>
</svg>
