<svg xmlns="http://www.w3.org/2000/svg" width="107.703" height="73.906" viewBox="0 0 107.703 73.906">
  <defs>
    <style>
      .cls-1, .cls-2 {
        fill: #874123;
        stroke-linejoin: round;
      }

      .cls-1 {
        stroke: #fff;
        stroke-width: 5px;
      }

      .cls-3 {
        fill: #ffe0b1;
      }

      .cls-4 {
        fill: #fac182;
      }

      .cls-5, .cls-7 {
        stroke: none;
      }

      .cls-6 {
        fill: none;
      }

      .cls-7 {
        fill: #fff;
      }
    </style>
  </defs>
  <g id="组_5343" data-name="组 5343" transform="translate(-1885.428 -467.737)">
    <g id="组_5342" data-name="组 5342">
      <g id="椭圆_2815" data-name="椭圆 2815" class="cls-1" transform="translate(1890.428 472.737)">
        <ellipse class="cls-5" cx="48.852" cy="15.718" rx="48.852" ry="15.718"/>
        <ellipse class="cls-6" cx="48.852" cy="15.718" rx="51.352" ry="18.218"/>
      </g>
      <g id="路径_14997" data-name="路径 14997" class="cls-2">
        <path class="cls-5" d="M 1939.279052734375 539.1430053710938 C 1926.417358398438 539.1430053710938 1914.199584960938 537.4927978515625 1904.876342773438 534.496337890625 C 1894.807739257813 531.2603759765625 1888.962158203125 526.7799072265625 1887.971435546875 521.5393676757813 L 1887.927978515625 521.3092041015625 L 1887.927978515625 521.0750122070313 L 1887.927978515625 488.4549865722656 L 1892.927978515625 488.4549865722656 C 1892.927978515625 490.1941528320313 1894.478637695313 491.790771484375 1895.779418945313 492.8239135742188 C 1897.959716796875 494.5555419921875 1901.291748046875 496.1992797851563 1905.41552734375 497.577392578125 C 1914.354736328125 500.5647583007813 1926.380981445313 502.2099914550781 1939.279052734375 502.2099914550781 C 1952.177490234375 502.2099914550781 1964.2041015625 500.5647583007813 1973.143310546875 497.577392578125 C 1977.267211914063 496.1992797851563 1980.599243164063 494.5555419921875 1982.779541015625 492.8239135742188 C 1984.080322265625 491.790771484375 1985.630981445313 490.1941528320313 1985.630981445313 488.4549865722656 L 1990.630981445313 488.4549865722656 L 1990.630981445313 521.0750122070313 L 1990.630981445313 521.3093872070313 L 1990.58740234375 521.5396118164063 C 1989.59619140625 526.7800903320313 1983.750366210938 531.2604370117188 1973.681884765625 534.496337890625 C 1964.3583984375 537.4927978515625 1952.140625 539.1430053710938 1939.279052734375 539.1430053710938 Z"/>
        <path class="cls-7" d="M 1890.427978515625 488.4549560546875 L 1890.427978515625 521.0750122070313 C 1892.069946289063 529.760986328125 1913.071044921875 536.6430053710938 1939.279052734375 536.6430053710938 C 1965.487060546875 536.6430053710938 1986.488037109375 529.760986328125 1988.130981445313 521.0750122070313 L 1988.130981445313 488.4549560546875 C 1988.130981445313 497.4310302734375 1966.56103515625 504.7099609375 1939.279052734375 504.7099609375 C 1911.998046875 504.7099609375 1890.427978515625 497.4310302734375 1890.427978515625 488.4549560546875 M 1890.427978515625 483.4549560546875 C 1893.189331054688 483.4549560546875 1895.427978515625 485.6935424804688 1895.427978515625 488.4549560546875 C 1895.427978515625 488.9015502929688 1896.017456054688 489.8203735351563 1897.334228515625 490.8662719726563 C 1898.697265625 491.9488525390625 1901.34326171875 493.58056640625 1906.207885742188 495.206298828125 C 1914.898315429688 498.1105346679688 1926.643188476563 499.7099609375 1939.279052734375 499.7099609375 C 1951.915283203125 499.7099609375 1963.660522460938 498.1105346679688 1972.350952148438 495.206298828125 C 1977.215698242188 493.58056640625 1979.861694335938 491.9488525390625 1981.224731445313 490.8662719726563 C 1982.54150390625 489.8203735351563 1983.130981445313 488.9015502929688 1983.130981445313 488.4549560546875 C 1983.130981445313 485.6935424804688 1985.369506835938 483.4549560546875 1988.130981445313 483.4549560546875 C 1990.892333984375 483.4549560546875 1993.130981445313 485.6935424804688 1993.130981445313 488.4549560546875 L 1993.130981445313 521.0750122070313 C 1993.130981445313 521.3868408203125 1993.101806640625 521.6978759765625 1993.043823242188 522.0042724609375 C 1992.393432617188 525.44287109375 1990.157958984375 528.5498046875 1986.399291992188 531.238525390625 C 1983.37353515625 533.403076171875 1979.352172851563 535.2999267578125 1974.44677734375 536.87646484375 C 1964.8828125 539.9501953125 1952.393310546875 541.6430053710938 1939.279052734375 541.6430053710938 C 1926.164672851563 541.6430053710938 1913.67529296875 539.9501953125 1904.111328125 536.87646484375 C 1899.2060546875 535.2999267578125 1895.184692382813 533.4030151367188 1892.158935546875 531.2384033203125 C 1888.400390625 528.549560546875 1886.1650390625 525.4425659179688 1885.515014648438 522.0037841796875 C 1885.457153320313 521.6975708007813 1885.427978515625 521.3865966796875 1885.427978515625 521.0750122070313 L 1885.427978515625 488.4549560546875 C 1885.427978515625 485.6935424804688 1887.66650390625 483.4549560546875 1890.427978515625 483.4549560546875 Z"/>
      </g>
    </g>
    <ellipse id="椭圆_2816" data-name="椭圆 2816" class="cls-3" cx="48.852" cy="15.718" rx="48.852" ry="15.718" transform="translate(1890.428 472.737)"/>
    <path id="路径_14998" data-name="路径 14998" class="cls-4" d="M1939.279,504.71c-27.281,0-48.851-7.279-48.851-16.255v32.62h0c1.642,8.686,22.643,15.568,48.851,15.568s47.209-6.882,48.852-15.568h0v-32.62C1988.131,497.431,1966.561,504.71,1939.279,504.71Z"/>
  </g>
</svg>
