<svg xmlns="http://www.w3.org/2000/svg" width="99.551" height="99.57" viewBox="0 0 99.551 99.57">
  <defs>
    <style>
      .cls-1 {
        fill: #ffe0b1;
      }

      .cls-2 {
        fill: #fac182;
      }
    </style>
  </defs>
  <g id="组_5337" data-name="组 5337" transform="translate(-2270.692 -293.452)">
    <path id="路径_14983" data-name="路径 14983" class="cls-1" d="M2370.205,341.942a1.283,1.283,0,0,0-.767.269c-52.806,37.058-95.888,1.688-97.652,0a1.576,1.576,0,0,0-1.055-.4,49.755,49.755,0,0,1,99.474.134Z"/>
    <path id="路径_14984" data-name="路径 14984" class="cls-2" d="M2370.243,343.247c0,.709-.019,1.4-.038,2.09a49.778,49.778,0,0,1-99.474-.134c-.019-.652-.039-1.3-.039-1.956,0-.48,0-.959.039-1.439a1.576,1.576,0,0,1,1.055.4c1.764,1.688,44.846,37.058,97.652,0a1.283,1.283,0,0,1,.767-.269C2370.243,342.384,2370.243,342.806,2370.243,343.247Z"/>
  </g>
</svg>
