<svg xmlns="http://www.w3.org/2000/svg" width="326.315" height="131.88" viewBox="0 0 326.315 131.88">
  <defs>
    <style>
      .cls-1, .cls-4 {
        fill: #fff8ef;
      }

      .cls-1 {
        stroke-linejoin: round;
      }

      .cls-2 {
        fill: #e7dcc0;
      }

      .cls-3 {
        fill: #4f3d72;
      }

      .cls-5, .cls-6 {
        stroke: none;
      }

      .cls-6 {
        fill: #fff;
      }
    </style>
  </defs>
  <g id="组_4454" data-name="组 4454" transform="translate(-1597.981 -535.831)">
    <g id="路径_11958" data-name="路径 11958" class="cls-1">
      <path class="cls-5" d="M 1914.0810546875 662.7109985351563 L 1909.0810546875 662.7109985351563 L 1613.39404296875 662.7109985351563 L 1608.39404296875 662.7109985351563 L 1608.39404296875 662.6129760742188 L 1607.98095703125 662.6129760742188 L 1602.98095703125 662.6129760742188 L 1602.98095703125 657.6129760742188 L 1602.98095703125 647.6890258789063 L 1602.98095703125 642.6890258789063 L 1607.98095703125 642.6890258789063 L 1608.39404296875 642.6890258789063 L 1608.39404296875 560.4719848632813 L 1608.39404296875 545.8309936523438 L 1608.39404296875 540.8309936523438 L 1613.39404296875 540.8309936523438 L 1909.0810546875 540.8309936523438 L 1914.0810546875 540.8309936523438 L 1914.0810546875 545.8309936523438 L 1914.0810546875 560.4719848632813 L 1914.0810546875 642.6890258789063 L 1914.296020507813 642.6890258789063 L 1919.296020507813 642.6890258789063 L 1919.296020507813 647.6890258789063 L 1919.296020507813 657.6129760742188 L 1919.296020507813 662.6129760742188 L 1914.296020507813 662.6129760742188 L 1914.0810546875 662.6129760742188 L 1914.0810546875 662.7109985351563 Z M 1854.068969726563 636.0120239257813 L 1881.743041992188 636.0120239257813 L 1881.743041992188 598.8670043945313 C 1881.737182617188 591.4387817382813 1875.520141601563 585.386962890625 1867.882568359375 585.3760375976563 C 1860.290893554688 585.4111938476563 1854.098266601563 591.4424438476563 1854.068969726563 598.8284301757813 L 1854.068969726563 636.0120239257813 Z M 1785.553955078125 636.0120239257813 L 1813.22802734375 636.0120239257813 L 1813.22802734375 598.8670043945313 C 1813.22216796875 591.4387817382813 1807.005126953125 585.386962890625 1799.36767578125 585.3760375976563 C 1791.77587890625 585.4111938476563 1785.583251953125 591.4424438476563 1785.553955078125 598.8284301757813 L 1785.553955078125 636.0120239257813 Z M 1708.944946289063 636.0120239257813 L 1736.619018554688 636.0120239257813 L 1736.619018554688 598.8670043945313 C 1736.613159179688 591.4387817382813 1730.396118164063 585.386962890625 1722.758666992188 585.3760375976563 C 1715.166870117188 585.4111938476563 1708.974243164063 591.4425048828125 1708.944946289063 598.8285522460938 L 1708.944946289063 636.0120239257813 Z M 1640.93896484375 636.0120239257813 L 1668.613037109375 636.0120239257813 L 1668.613037109375 598.8670043945313 C 1668.607177734375 591.4387817382813 1662.39013671875 585.386962890625 1654.752563476563 585.3760375976563 C 1647.160888671875 585.4111938476563 1640.96826171875 591.4425048828125 1640.93896484375 598.8284912109375 L 1640.93896484375 636.0120239257813 Z"/>
      <path class="cls-6" d="M 1909.0810546875 657.7109985351563 L 1909.0810546875 657.6129760742188 L 1914.296020507813 657.6129760742188 L 1914.296020507813 647.6890258789063 L 1909.0810546875 647.6890258789063 L 1909.0810546875 560.4719848632813 L 1909.0810546875 545.8309936523438 L 1613.39404296875 545.8309936523438 L 1613.39404296875 560.4719848632813 L 1613.39404296875 647.6890258789063 L 1607.98095703125 647.6890258789063 L 1607.98095703125 657.6129760742188 L 1613.39404296875 657.6129760742188 L 1613.39404296875 657.7109985351563 L 1909.0810546875 657.7109985351563 M 1867.876953125 580.3759765625 C 1878.29296875 580.3839721679688 1886.734985351563 588.6580200195313 1886.743041992188 598.8670043945313 L 1886.743041992188 641.0120239257813 L 1849.068969726563 641.0120239257813 L 1849.068969726563 598.8250122070313 C 1849.099975585938 588.6539916992188 1857.5 580.4149780273438 1867.876953125 580.3759765625 M 1799.362060546875 580.3759765625 C 1809.777954101563 580.3839721679688 1818.219970703125 588.6580200195313 1818.22802734375 598.8670043945313 L 1818.22802734375 641.0120239257813 L 1780.553955078125 641.0120239257813 L 1780.553955078125 598.8250122070313 C 1780.5849609375 588.6539916992188 1788.984985351563 580.4149780273438 1799.362060546875 580.3759765625 M 1722.753051757813 580.3759765625 C 1733.1689453125 580.3839721679688 1741.610961914063 588.6580200195313 1741.619018554688 598.8670043945313 L 1741.619018554688 641.0120239257813 L 1703.944946289063 641.0120239257813 L 1703.944946289063 598.8250122070313 C 1703.975952148438 588.6539916992188 1712.3759765625 580.4149780273438 1722.753051757813 580.3759765625 M 1654.746948242188 580.3759765625 C 1665.162963867188 580.3839721679688 1673.60498046875 588.6580200195313 1673.613037109375 598.8670043945313 L 1673.613037109375 641.0120239257813 L 1635.93896484375 641.0120239257813 L 1635.93896484375 598.8250122070313 C 1635.969970703125 588.6539916992188 1644.369995117188 580.4149780273438 1654.746948242188 580.3759765625 M 1909.0810546875 667.7109985351563 L 1613.39404296875 667.7109985351563 C 1612.9169921875 667.7109985351563 1612.44775390625 667.6775512695313 1611.988525390625 667.6129760742188 L 1607.98095703125 667.6129760742188 C 1602.458129882813 667.6129760742188 1597.98095703125 663.1358642578125 1597.98095703125 657.6129760742188 L 1597.98095703125 647.6890258789063 C 1597.98095703125 643.8196411132813 1600.1787109375 640.4634399414063 1603.39404296875 638.80078125 L 1603.39404296875 560.4719848632813 L 1603.39404296875 545.8309936523438 C 1603.39404296875 540.3081665039063 1607.871215820313 535.8309936523438 1613.39404296875 535.8309936523438 L 1909.0810546875 535.8309936523438 C 1914.603881835938 535.8309936523438 1919.0810546875 540.3081665039063 1919.0810546875 545.8309936523438 L 1919.0810546875 560.4719848632813 L 1919.0810546875 638.9060668945313 C 1922.188354492188 640.6024169921875 1924.296020507813 643.8994750976563 1924.296020507813 647.6890258789063 L 1924.296020507813 657.6129760742188 C 1924.296020507813 663.1358642578125 1919.81884765625 667.6129760742188 1914.296020507813 667.6129760742188 L 1910.472045898438 667.6129760742188 C 1910.017578125 667.6775512695313 1909.552978515625 667.7109985351563 1909.0810546875 667.7109985351563 Z M 1859.068969726563 631.0120239257813 L 1876.743041992188 631.0120239257813 L 1876.743041992188 598.8670043945313 C 1876.739379882813 594.2000732421875 1872.772094726563 590.392333984375 1867.893920898438 590.3760375976563 C 1863.039916992188 590.4049072265625 1859.083129882813 594.2046508789063 1859.068969726563 598.85546875 L 1859.068969726563 631.0120239257813 Z M 1790.553955078125 631.0120239257813 L 1808.22802734375 631.0120239257813 L 1808.22802734375 598.8670043945313 C 1808.224365234375 594.2000732421875 1804.257202148438 590.392333984375 1799.379028320313 590.3760375976563 C 1794.525024414063 590.4049072265625 1790.568115234375 594.2046508789063 1790.553955078125 598.85546875 L 1790.553955078125 631.0120239257813 Z M 1713.944946289063 631.0120239257813 L 1731.619018554688 631.0120239257813 L 1731.619018554688 598.8670043945313 C 1731.615356445313 594.2000732421875 1727.648193359375 590.392333984375 1722.77001953125 590.3760375976563 C 1717.915893554688 590.4049072265625 1713.959106445313 594.2047119140625 1713.94482421875 598.8555297851563 L 1713.944946289063 631.0120239257813 Z M 1645.93896484375 631.0120239257813 L 1663.613037109375 631.0120239257813 L 1663.613037109375 598.8670043945313 C 1663.609375 594.2000732421875 1659.64208984375 590.392333984375 1654.763916015625 590.3760375976563 C 1649.909912109375 590.4049072265625 1645.953125 594.2046508789063 1645.93896484375 598.85546875 L 1645.93896484375 631.0120239257813 Z"/>
    </g>
    <rect id="矩形_1821" data-name="矩形 1821" class="cls-2" width="295.687" height="14.641" transform="translate(1613.394 545.831)"/>
    <path id="路径_11959" data-name="路径 11959" class="cls-3" d="M1613.394,560.472v97.239h295.687V560.472Zm60.219,80.54h-37.674V598.825a18.7,18.7,0,0,1,18.808-18.449h0a18.7,18.7,0,0,1,18.866,18.491Zm68.006,0h-37.674V598.825a18.7,18.7,0,0,1,18.808-18.449h0a18.7,18.7,0,0,1,18.866,18.491Zm145.124,0h-37.674V598.825a18.7,18.7,0,0,1,18.808-18.449h0a18.7,18.7,0,0,1,18.866,18.491Zm-68.515,0h-37.674V598.825a18.7,18.7,0,0,1,18.808-18.449h0a18.7,18.7,0,0,1,18.866,18.491Z"/>
    <rect id="矩形_1822" data-name="矩形 1822" class="cls-4" width="295.687" height="11.8" transform="translate(1613.394 564.504)"/>
    <rect id="矩形_1823" data-name="矩形 1823" class="cls-4" width="306.315" height="9.924" transform="translate(1607.981 647.689)"/>
  </g>
</svg>
