<svg xmlns="http://www.w3.org/2000/svg" width="144.421" height="138.976" viewBox="0 0 144.421 138.976">
  <defs>
    <style>
      .cls-1, .cls-2 {
        fill: #fff8ef;
      }

      .cls-1 {
        stroke-linejoin: round;
      }

      .cls-3, .cls-6 {
        fill: #fff;
      }

      .cls-4 {
        fill: #e7dcc0;
      }

      .cls-5, .cls-6 {
        stroke: none;
      }
    </style>
  </defs>
  <g id="组_4456" data-name="组 4456" transform="translate(-2184.868 -527.853)">
    <g id="路径_11960" data-name="路径 11960" class="cls-1">
      <path class="cls-5" d="M 2324.27490234375 661.8289794921875 L 2319.27490234375 661.8289794921875 L 2194.867919921875 661.8289794921875 L 2189.867919921875 661.8289794921875 L 2189.867919921875 656.8289794921875 L 2189.867919921875 583.2880249023438 L 2189.867919921875 573.7420043945313 L 2189.867919921875 537.85302734375 L 2189.867919921875 532.85302734375 L 2194.867919921875 532.85302734375 L 2319.2890625 532.85302734375 L 2324.2890625 532.85302734375 L 2324.2890625 537.85302734375 L 2324.2890625 573.7420043945313 L 2324.2890625 583.2880249023438 L 2324.2890625 588.2880249023438 L 2324.27490234375 588.2880249023438 L 2324.27490234375 656.8289794921875 L 2324.27490234375 661.8289794921875 Z M 2225.762939453125 623.1630249023438 L 2288.348876953125 623.1630249023438 L 2288.328125 597.9039916992188 L 2225.762939453125 597.9039916992188 L 2225.762939453125 623.1630249023438 Z"/>
      <path class="cls-6" d="M 2194.867919921875 537.85302734375 L 2194.867919921875 573.7420043945313 L 2194.867919921875 583.2880249023438 L 2194.867919921875 656.8289794921875 L 2319.27490234375 656.8289794921875 L 2319.27490234375 583.2880249023438 L 2319.2890625 583.2880249023438 L 2319.2890625 573.7420043945313 L 2319.2890625 537.85302734375 L 2194.867919921875 537.85302734375 M 2293.35302734375 628.1630249023438 L 2220.762939453125 628.1630249023438 L 2220.762939453125 592.9039916992188 L 2293.323974609375 592.9039916992188 L 2293.35302734375 628.1630249023438 M 2194.867919921875 527.85302734375 L 2319.2890625 527.85302734375 C 2324.81201171875 527.85302734375 2329.2890625 532.3302001953125 2329.2890625 537.85302734375 L 2329.2890625 573.7420043945313 L 2329.2890625 583.2880249023438 L 2329.27490234375 656.8308715820313 C 2329.27392578125 662.35302734375 2324.797119140625 666.8289794921875 2319.27490234375 666.8289794921875 L 2194.867919921875 666.8289794921875 C 2189.344970703125 666.8289794921875 2184.867919921875 662.351806640625 2184.867919921875 656.8289794921875 L 2184.867919921875 583.2880249023438 L 2184.867919921875 573.7420043945313 L 2184.867919921875 537.85302734375 C 2184.867919921875 532.3302001953125 2189.344970703125 527.85302734375 2194.867919921875 527.85302734375 Z M 2283.332275390625 602.9039916992188 L 2230.762939453125 602.9039916992188 L 2230.762939453125 618.1630249023438 L 2283.3447265625 618.1630249023438 L 2283.332275390625 602.9039916992188 Z"/>
    </g>
    <rect id="矩形_1824" data-name="矩形 1824" class="cls-2" width="124.421" height="35.889" transform="translate(2194.868 537.853)"/>
    <path id="路径_11961" data-name="路径 11961" class="cls-3" d="M2194.868,583.288v73.541h124.407V583.288Zm98.484,44.875h-72.589V592.9h72.561Z"/>
    <rect id="矩形_1825" data-name="矩形 1825" class="cls-4" width="124.421" height="9.546" transform="translate(2194.868 573.742)"/>
    <path id="路径_11962" data-name="路径 11962" class="cls-2" d="M2293.353,605.977v22.186h-72.562V605.977h-25.923v50.852h124.407V605.977Z"/>
  </g>
</svg>
