<svg xmlns="http://www.w3.org/2000/svg" width="306.315" height="111.88" viewBox="0 0 306.315 111.88">
  <defs>
    <style>
      .cls-1 {
        fill: #e7dcc0;
      }

      .cls-2 {
        fill: #4f3d72;
      }

      .cls-3 {
        fill: #fff8ef;
      }
    </style>
  </defs>
  <g id="组_4450" data-name="组 4450" transform="translate(-1607.981 -364.882)">
    <rect id="矩形_1816" data-name="矩形 1816" class="cls-1" width="295.687" height="14.641" transform="translate(1613.394 364.882)"/>
    <path id="路径_11955" data-name="路径 11955" class="cls-2" d="M1613.394,379.523v97.239h295.687V379.523Zm60.219,80.54h-37.674V417.875a18.694,18.694,0,0,1,18.808-18.448h0a18.7,18.7,0,0,1,18.866,18.49Zm68.006,0h-37.674V417.875a18.694,18.694,0,0,1,18.808-18.448h0a18.7,18.7,0,0,1,18.866,18.49Zm145.124,0h-37.674V417.875a18.694,18.694,0,0,1,18.808-18.448h0a18.7,18.7,0,0,1,18.866,18.49Zm-68.515,0h-37.674V417.875a18.694,18.694,0,0,1,18.808-18.448h0a18.7,18.7,0,0,1,18.866,18.49Z"/>
    <rect id="矩形_1817" data-name="矩形 1817" class="cls-3" width="295.687" height="11.8" transform="translate(1613.394 383.554)"/>
    <rect id="矩形_1818" data-name="矩形 1818" class="cls-3" width="306.315" height="9.924" transform="translate(1607.981 466.74)"/>
  </g>
</svg>
