<svg xmlns="http://www.w3.org/2000/svg" width="154.097" height="134.778" viewBox="0 0 154.097 134.778">
  <defs>
    <style>
      .cls-1 {
        fill: #4f3d72;
      }

      .cls-2 {
        fill: #fcf2db;
      }

      .cls-3 {
        fill: #2c1e55;
      }

      .cls-4 {
        fill: #dbcba7;
      }
    </style>
  </defs>
  <g id="组_4496" data-name="组 4496" transform="translate(-811.8 -93.905)">
    <path id="路径_11974" data-name="路径 11974" class="cls-1" d="M841.436,94.012C856.9,94.4,909.623,94,909.623,94s11.248-2.324,23.549,19.861c14.06,21.018,32.688,51.377,32.688,51.377v53.324s1.23,9.341-10.369,10.119H829.142V93.931Z"/>
    <path id="路径_11975" data-name="路径 11975" class="cls-2" d="M851.96,94.175v48.392s.876,10.363,13.136,10.363h93.788l-30.3-47.045s-7.731-11.827-17.946-11.954S851.96,94.175,851.96,94.175Z"/>
    <rect id="矩形_1923" data-name="矩形 1923" class="cls-3" width="19.266" height="134.752" transform="translate(811.8 93.931)"/>
    <path id="矩形_1924" data-name="矩形 1924" class="cls-4" d="M0,0H14.207a0,0,0,0,1,0,0V58.578a0,0,0,0,1,0,0h0A14.207,14.207,0,0,1,0,44.371V0A0,0,0,0,1,0,0Z" transform="translate(851.96 94.235)"/>
  </g>
</svg>
