<svg xmlns="http://www.w3.org/2000/svg" width="118.548" height="118.548" viewBox="0 0 118.548 118.548">
  <defs>
    <style>
      .cls-1 {
        fill: #fff;
      }

      .cls-2 {
        fill: #685096;
      }
    </style>
  </defs>
  <g id="组_4592" data-name="组 4592" transform="translate(-225.418 -1351.714)">
    <circle id="椭圆_2311" data-name="椭圆 2311" class="cls-1" cx="59.274" cy="59.274" r="59.274" transform="translate(225.418 1351.714)"/>
    <path id="路径_12130" data-name="路径 12130" class="cls-2" d="M272.252,1395.565l-8.764,17.625a4.417,4.417,0,0,0,.863,5.12l14.054,13.781a4.417,4.417,0,0,0,5.136.762l17.45-9.108a4.416,4.416,0,0,0,2.311-4.649l-3.27-19.41a4.414,4.414,0,0,0-3.707-3.635l-19.47-2.888A4.417,4.417,0,0,0,272.252,1395.565Z"/>
    <path id="路径_12131" data-name="路径 12131" class="cls-2" d="M237.971,1374.491a4.076,4.076,0,0,0,1.7.341l20.149-.451a4.093,4.093,0,0,0,3.828-2.915l5.332-17.75A59.315,59.315,0,0,0,237.971,1374.491Z"/>
    <path id="路径_12132" data-name="路径 12132" class="cls-2" d="M294.106,1469.515a4.067,4.067,0,0,0-1.011-1.411l-15.028-13.428a4.092,4.092,0,0,0-4.788-.485l-16.014,9.327A59.3,59.3,0,0,0,294.106,1469.515Z"/>
    <path id="路径_12133" data-name="路径 12133" class="cls-2" d="M233.219,1440.3a4.063,4.063,0,0,0,.964-1.443l7.278-18.794a4.093,4.093,0,0,0-1.231-4.651l-14.369-11.706A59.318,59.318,0,0,0,233.219,1440.3Z"/>
    <path id="路径_12134" data-name="路径 12134" class="cls-2" d="M311.6,1358.167a4.061,4.061,0,0,0-.012,1.736l4.256,19.7a4.093,4.093,0,0,0,3.587,3.208l18.438,1.875A59.313,59.313,0,0,0,311.6,1358.167Z"/>
    <path id="路径_12135" data-name="路径 12135" class="cls-2" d="M341.572,1427.745a4.085,4.085,0,0,0-1.709.307l-18.585,7.794a4.094,4.094,0,0,0-2.5,4.114l1.535,18.47A59.319,59.319,0,0,0,341.572,1427.745Z"/>
  </g>
</svg>
