<svg xmlns="http://www.w3.org/2000/svg" width="119.752" height="94.797" viewBox="0 0 119.752 94.797">
  <defs>
    <style>
      .cls-1, .cls-7 {
        fill: #fff;
      }

      .cls-1 {
        stroke-linejoin: round;
      }

      .cls-2 {
        fill: #f4e379;
      }

      .cls-3 {
        fill: #f7a342;
      }

      .cls-4 {
        fill: #f9aa18;
      }

      .cls-5 {
        fill: #e18e34;
      }

      .cls-6, .cls-7 {
        stroke: none;
      }
    </style>
  </defs>
  <g id="组_4605" data-name="组 4605" transform="translate(-1060.435 -1609.839)">
    <g id="路径_12207" data-name="路径 12207" class="cls-1">
      <path class="cls-6" d="M 1133.912963867188 1702.963134765625 L 1126.517578125 1698.926879882813 C 1126.506713867188 1698.9208984375 1126.493774414063 1698.913818359375 1126.478759765625 1698.905639648438 L 1123.912963867188 1698.066772460938 L 1123.912963867188 1697.502319335938 C 1116.169799804688 1693.261840820313 1093.504150390625 1680.806274414063 1083.906860351563 1675.067260742188 C 1078.754516601563 1671.986694335938 1075.036499023438 1669.24951171875 1072.856323242188 1666.931762695313 C 1071.1103515625 1665.075561523438 1070.214477539063 1663.343139648438 1070.130249023438 1661.653076171875 L 1069.3701171875 1651.895263671875 L 1069.038696289063 1647.6416015625 L 1072.174682617188 1646.888427734375 C 1072.190673828125 1646.744750976563 1072.200805664063 1646.55615234375 1072.194580078125 1646.31494140625 C 1072.1826171875 1645.84716796875 1072.06787109375 1645.7255859375 1071.880249023438 1645.581176757813 C 1071.72998046875 1645.46533203125 1071.5703125 1645.390014648438 1071.488647460938 1645.35546875 C 1071.44091796875 1645.335327148438 1071.411743164063 1645.32568359375 1071.411499023438 1645.325561523438 C 1071.409423828125 1645.324829101563 1071.408569335938 1645.324584960938 1071.40869140625 1645.324584960938 C 1071.4091796875 1645.324584960938 1071.425659179688 1645.329467773438 1071.438232421875 1645.333251953125 C 1071.459716796875 1645.338745117188 1071.562622070313 1645.366455078125 1071.562622070313 1645.366455078125 L 1072.760009765625 1640.511962890625 L 1067.804321289063 1641.176391601563 L 1065.498291015625 1623.976440429688 L 1064.156860351563 1613.970458984375 L 1068.781494140625 1616.604858398438 C 1069.375732421875 1616.188232421875 1070.036254882813 1615.842163085938 1070.758422851563 1615.569580078125 C 1072.04345703125 1615.08447265625 1073.535522460938 1614.838500976563 1075.193481445313 1614.838500976563 C 1075.376586914063 1614.838500976563 1075.564819335938 1614.841552734375 1075.7529296875 1614.847412109375 C 1081.327880859375 1615.021362304688 1162.288696289063 1616.427612304688 1163.105834960938 1616.441772460938 L 1164.087158203125 1616.458862304688 L 1164.265014648438 1616.535034179688 L 1164.278442382813 1616.522216796875 L 1164.3251953125 1616.560913085938 L 1164.9892578125 1616.845581054688 C 1165.916015625 1617.242919921875 1168.173095703125 1618.426025390625 1169.114379882813 1620.825073242188 C 1169.141845703125 1620.895263671875 1169.16796875 1620.965698242188 1169.192749023438 1621.036376953125 C 1170.278930664063 1622.594604492188 1171.583740234375 1625.233642578125 1172.69775390625 1629.664428710938 C 1174.886596679688 1638.370727539063 1175.6376953125 1651.01025390625 1174.930297851563 1667.23193359375 L 1174.885986328125 1668.2490234375 L 1174.447387695313 1669.167724609375 C 1169.736083984375 1679.038818359375 1159.173095703125 1686.779418945313 1153.2958984375 1690.514770507813 C 1149.177124023438 1693.132568359375 1144.898681640625 1695.375122070313 1140.923095703125 1697 C 1138.3046875 1698.070068359375 1135.960327148438 1698.817504882813 1133.912963867188 1699.236450195313 L 1133.912963867188 1702.963134765625 Z"/>
      <path class="cls-7" d="M 1075.193359375 1619.838623046875 C 1069.946533203125 1619.838623046875 1070.453979492188 1623.213989257813 1070.453979492188 1623.213989257813 C 1070.453979492188 1623.213989257813 1071.0419921875 1623.587036132813 1072.090942382813 1624.244018554688 C 1071.0419921875 1623.64697265625 1070.453979492188 1623.31201171875 1070.453979492188 1623.31201171875 L 1072.760009765625 1640.511962890625 C 1072.760009765625 1640.511962890625 1077.073974609375 1641.576049804688 1077.192993164063 1646.18701171875 C 1077.31103515625 1650.796997070313 1074.35498046875 1651.506958007813 1074.35498046875 1651.506958007813 L 1075.1240234375 1661.378051757813 C 1075.1240234375 1661.378051757813 1075.005981445313 1663.920043945313 1086.473022460938 1670.776000976563 C 1097.93994140625 1677.633056640625 1128.912963867188 1694.537963867188 1128.912963867188 1694.537963867188 L 1128.912963867188 1694.441040039063 L 1128.912963867188 1694.405029296875 L 1128.912963867188 1694.441040039063 C 1129.314453125 1694.572265625 1129.807495117188 1694.636108398438 1130.379028320313 1694.636108398438 C 1138.558715820313 1694.636108398438 1162.973510742188 1681.599853515625 1169.93505859375 1667.014038085938 C 1171.589965820313 1629.066040039063 1164.52099609375 1623.213989257813 1164.52099609375 1623.213989257813 C 1164.498046875 1623.235961914063 1164.470947265625 1623.259033203125 1164.447998046875 1623.281005859375 C 1164.906005859375 1622.25 1163.01904296875 1621.441040039063 1163.01904296875 1621.441040039063 C 1163.01904296875 1621.441040039063 1081.27099609375 1620.02197265625 1075.597045898438 1619.844970703125 C 1075.459228515625 1619.840698242188 1075.323974609375 1619.838623046875 1075.193359375 1619.838623046875 M 1122.194946289063 1650.808959960938 C 1122.462036132813 1650.837036132813 1122.734008789063 1650.85302734375 1123.010009765625 1650.859985351563 L 1122.994018554688 1650.869018554688 C 1123.337036132813 1651.68505859375 1123.657958984375 1652.60205078125 1123.963989257813 1653.587036132813 C 1123.659057617188 1652.670043945313 1123.338012695313 1651.7900390625 1122.994018554688 1650.967041015625 C 1122.81201171875 1650.967041015625 1122.5400390625 1650.911010742188 1122.194946289063 1650.808959960938 M 1075.193359375 1609.838623046875 C 1075.297241210938 1609.838623046875 1075.8046875 1609.846557617188 1075.908447265625 1609.849853515625 C 1081.573852539063 1610.026611328125 1163.192626953125 1611.442504882813 1163.192626953125 1611.442504882813 C 1164.488647460938 1611.465087890625 1165.767944335938 1611.7392578125 1166.959350585938 1612.25 C 1168.425170898438 1612.87841796875 1171.951782226563 1614.744873046875 1173.6396484375 1618.683959960938 C 1177.67919921875 1624.914184570313 1181.189697265625 1638.461303710938 1179.925537109375 1667.44970703125 C 1179.866943359375 1668.792114257813 1179.53857421875 1670.10888671875 1178.959838867188 1671.321411132813 C 1170.490844726563 1689.0654296875 1142.690795898438 1704.636108398438 1130.379028320313 1704.636108398438 C 1129.617309570313 1704.636108398438 1128.876342773438 1704.585571289063 1128.160522460938 1704.4853515625 C 1126.766845703125 1704.3935546875 1125.38916015625 1704.007202148438 1124.122192382813 1703.315673828125 C 1122.850463867188 1702.62158203125 1092.84423828125 1686.237426757813 1081.3408203125 1679.358520507813 C 1069.990478515625 1672.572387695313 1065.322265625 1667.56591796875 1065.128540039063 1661.82568359375 L 1064.385131835938 1652.28369140625 C 1064.243896484375 1650.469482421875 1064.59814453125 1648.71728515625 1065.34326171875 1647.171020507813 C 1064.017211914063 1645.702880859375 1063.119018554688 1643.856811523438 1062.8486328125 1641.8408203125 L 1060.542602539063 1624.640869140625 C 1060.505493164063 1624.36376953125 1060.480224609375 1624.087158203125 1060.46630859375 1623.81103515625 C 1060.23095703125 1620.5625 1061.341186523438 1617.204345703125 1063.520751953125 1614.672607421875 C 1065.419311523438 1612.46728515625 1068.985473632813 1609.838623046875 1075.193359375 1609.838623046875 Z"/>
    </g>
    <path id="路径_12208" data-name="路径 12208" class="cls-2" d="M1070.454,1623.312l2.306,17.2a6.035,6.035,0,0,1,4.433,5.675c.118,4.61-2.838,5.32-2.838,5.32l.769,9.871s-.118,2.542,11.349,9.4,42.44,23.762,42.44,23.762,0-29.386-5.919-43.571C1118.865,1650.976,1070.454,1623.312,1070.454,1623.312Z"/>
    <path id="路径_12209" data-name="路径 12209" class="cls-3" d="M1164.521,1623.214s7.069,5.852,5.414,43.8c-7.448,15.6-34.874,29.437-41.022,27.427,0-2.01-1.081-32.053-5.919-43.572C1122.994,1650.869,1153.983,1633.128,1164.521,1623.214Z"/>
    <ellipse id="椭圆_2317" data-name="椭圆 2317" class="cls-4" cx="5.202" cy="6.266" rx="5.202" ry="6.266" transform="translate(1108.728 1660.749)"/>
    <ellipse id="椭圆_2318" data-name="椭圆 2318" class="cls-4" cx="5.202" cy="6.266" rx="5.202" ry="6.266" transform="translate(1084.079 1642.809)"/>
    <path id="路径_12210" data-name="路径 12210" class="cls-4" d="M1092.738,1667.014c2.873,0,5.2,2.8,5.2,6.266a7.14,7.14,0,0,1-.935,3.572c-3.511-1.986-6.72-3.824-9.24-5.309C1088.393,1668.933,1090.37,1667.014,1092.738,1667.014Z"/>
    <path id="路径_12211" data-name="路径 12211" class="cls-5" d="M1163.019,1621.441s2.483,1.064,1.064,2.3-30.145,30.678-43.445,26.777-50.184-27.309-50.184-27.309-.532-3.546,5.143-3.369S1163.019,1621.441,1163.019,1621.441Z"/>
  </g>
</svg>
