<svg xmlns="http://www.w3.org/2000/svg" width="89.549" height="149.506" viewBox="0 0 89.549 149.506">
  <defs>
    <style>
      .cls-1, .cls-10 {
        fill: #fff;
      }

      .cls-1 {
        stroke-linejoin: round;
      }

      .cls-2 {
        fill: #b8bdc1;
      }

      .cls-3 {
        fill: #1178ce;
      }

      .cls-4 {
        fill: #cadcea;
      }

      .cls-5 {
        fill: #e1f9ff;
      }

      .cls-6 {
        fill: #006fd3;
      }

      .cls-7 {
        fill: #0028d1;
      }

      .cls-8 {
        fill: #f66;
      }

      .cls-10, .cls-9 {
        stroke: none;
      }
    </style>
  </defs>
  <g id="组_4603" data-name="组 4603" transform="translate(-448.804 -1573.646)">
    <g id="组_4602" data-name="组 4602">
      <g id="路径_12188" data-name="路径 12188" class="cls-1">
        <path class="cls-9" d="M 497.2157287597656 1718.151245117188 C 490.5425415039063 1718.151245117188 483.3946228027344 1718.07275390625 477.6047973632813 1717.93603515625 C 467.4498291015625 1717.6962890625 466.5281372070313 1717.415649414063 465.7875366210938 1717.190185546875 L 467.2439880371094 1707.406982421875 L 518.0289916992188 1707.406982421875 L 527.1414184570313 1707.406982421875 L 522.2462768554688 1715.092895507813 C 521.0057373046875 1717.040771484375 519.015625 1717.397094726563 518.3616333007813 1717.514282226563 C 517.885986328125 1717.599365234375 517.3182373046875 1717.668334960938 516.5747680664063 1717.731201171875 C 515.4061889648438 1717.829956054688 513.76806640625 1717.912719726563 511.7059326171875 1717.977294921875 C 508.068603515625 1718.091064453125 503.0579833984375 1718.151245117188 497.2157287597656 1718.151245117188 Z"/>
        <path class="cls-10" d="M 467.2440185546875 1712.406982421875 C 468.6311645507813 1712.829345703125 483.8098449707031 1713.151245117188 497.2157287597656 1713.151245117188 C 508.0288391113281 1713.151245117188 517.6883544921875 1712.94189453125 518.0289916992188 1712.406982421875 L 467.2440185546875 1712.406982421875 M 467.2440185546875 1702.406982421875 L 518.0289916992188 1702.406982421875 C 521.679443359375 1702.406982421875 525.0399169921875 1704.396118164063 526.7958984375 1707.596557617188 C 528.552001953125 1710.796875 528.424560546875 1714.699829101563 526.463623046875 1717.778930664063 C 523.0419921875 1723.151245117188 519.6014404296875 1723.151245117188 497.2157287597656 1723.151245117188 C 468.1994018554688 1723.151245117188 465.287841796875 1722.2646484375 464.3310546875 1721.973266601563 C 459.591796875 1720.530151367188 456.62353515625 1715.834594726563 457.35302734375 1710.934448242188 C 458.08251953125 1706.034301757813 462.2899169921875 1702.406982421875 467.2440185546875 1702.406982421875 Z"/>
      </g>
      <g id="路径_12189" data-name="路径 12189" class="cls-1">
        <path class="cls-9" d="M 477.7367553710938 1715.38720703125 C 474.3787536621094 1715.38720703125 471.7034301757813 1715.345336914063 469.78515625 1715.2626953125 C 468.6334533691406 1715.213134765625 467.7314453125 1715.148681640625 467.027587890625 1715.065795898438 C 465.7435607910156 1714.91455078125 464.3929748535156 1714.63037109375 463.2149353027344 1713.583740234375 C 463.0609130859375 1713.448852539063 462.5391235351563 1713.071044921875 462.1581420898438 1712.795288085938 C 461.0264587402344 1711.975952148438 459.4766235351563 1710.853759765625 458.1466979980469 1709.52978515625 C 457.2609558105469 1708.647827148438 456.5746765136719 1707.784057617188 456.0486755371094 1706.889038085938 C 455.2420043945313 1705.5166015625 454.8330078125 1704.09130859375 454.8330078125 1702.652954101563 C 454.8330078125 1702.297119140625 454.7833251953125 1699.919921875 454.7204284667969 1696.91015625 C 454.499267578125 1686.325805664063 454.0390930175781 1664.301391601563 453.8749694824219 1644.199340820313 C 453.7829284667969 1632.921997070313 453.7993774414063 1623.879028320313 453.9238586425781 1617.321533203125 C 453.9965209960938 1613.49365234375 454.1081237792969 1610.427124023438 454.2555236816406 1608.20703125 C 454.48779296875 1604.708984375 454.7829284667969 1603.192138671875 455.4701232910156 1601.964599609375 C 456.4716796875 1600.17626953125 457.8742065429688 1598.63916015625 459.2305908203125 1597.152465820313 C 460.1146240234375 1596.18359375 460.9496459960938 1595.268432617188 461.5384826660156 1594.428955078125 C 461.9827575683594 1593.795654296875 462.1119079589844 1593.446044921875 462.1477355957031 1593.319213867188 C 461.6379699707031 1592.224853515625 461.3502197265625 1591.110107421875 461.2923278808594 1590.004638671875 C 461.26611328125 1589.504028320313 461.2863159179688 1589.009887695313 461.3524475097656 1588.5244140625 C 461.3166809082031 1588.27978515625 461.2950439453125 1588.033447265625 461.2876892089844 1587.785522460938 C 461.2525329589844 1586.600708007813 461.5548400878906 1585.427856445313 462.1619567871094 1584.393920898438 C 463.1641235351563 1582.687255859375 464.9008178710938 1581.4482421875 467.4712524414063 1580.606079101563 C 469.0345458984375 1580.09375 470.9694519042969 1579.695190429688 473.3865966796875 1579.387329101563 C 477.250732421875 1578.895141601563 482.3327331542969 1578.6455078125 488.4913940429688 1578.6455078125 C 496.6946105957031 1578.6455078125 504.2911987304688 1579.079345703125 508.0893249511719 1579.338012695313 C 510.8417358398438 1579.525390625 513.315673828125 1579.735961914063 515.2437744140625 1579.947021484375 C 518.1839599609375 1580.268920898438 519.1602172851563 1580.50244140625 519.9331665039063 1580.82080078125 C 520.9447631835938 1581.237548828125 522.0123291015625 1581.691772460938 522.9733276367188 1582.259887695313 C 524.9627685546875 1583.43603515625 526.1604614257813 1584.972534179688 526.5331420898438 1586.826904296875 C 526.680419921875 1587.559814453125 526.6847534179688 1588.298095703125 526.554443359375 1589.015502929688 C 526.7105102539063 1589.953857421875 526.6488037109375 1590.793823242188 526.521484375 1591.45849609375 C 526.434814453125 1591.911010742188 526.3038940429688 1592.355102539063 526.129150390625 1592.7900390625 C 527.2227172851563 1594.813232421875 528.8523559570313 1597.695068359375 530.5036010742188 1600.128784179688 C 531.3375854492188 1601.357788085938 531.876708984375 1602.967895507813 532.3356323242188 1607.946899414063 C 532.608642578125 1610.908569335938 532.833984375 1614.915161132813 533.00537109375 1619.85546875 C 533.3222045898438 1628.986206054688 533.4439086914063 1640.988037109375 533.3479614257813 1653.64990234375 C 533.2517700195313 1666.351440429688 532.94580078125 1678.43994140625 532.4863891601563 1687.6884765625 C 532.23681640625 1692.713012695313 531.9461669921875 1696.819458007813 531.62255859375 1699.893432617188 C 531.110107421875 1704.76171875 530.5911254882813 1706.488647460938 529.919921875 1707.697021484375 C 528.3722534179688 1710.481811523438 525.8447265625 1712.568603515625 522.6100463867188 1713.73291015625 C 520.558837890625 1714.471069335938 518.2473754882813 1714.845458984375 515.740234375 1714.845458984375 C 515.7400512695313 1714.845458984375 515.7401733398438 1714.845458984375 515.739990234375 1714.845458984375 C 514.55908203125 1714.845458984375 513.60693359375 1714.760498046875 513.03466796875 1714.692626953125 C 509.949951171875 1714.789672851563 490.4475708007813 1715.38720703125 477.7367553710938 1715.38720703125 Z"/>
        <path class="cls-10" d="M 488.4914855957031 1583.6455078125 C 475.8742065429688 1583.645385742188 464.4595336914063 1584.725463867188 466.5289916992188 1588.43505859375 C 466.1629638671875 1589.244995117188 466.18896484375 1590.176025390625 466.698974609375 1591.248046875 C 468.988037109375 1596.234008789063 462.1220092773438 1600.319946289063 459.8330078125 1604.406982421875 C 457.5450439453125 1608.494018554688 459.8330078125 1699.7099609375 459.8330078125 1702.652954101563 C 459.8330078125 1705.594970703125 465.06396484375 1708.537963867188 466.5360107421875 1709.845947265625 C 466.9884033203125 1710.247924804688 471.5883178710938 1710.38720703125 477.7369079589844 1710.38720703125 C 491.5801696777344 1710.38720703125 513.2880249023438 1709.682006835938 513.2880249023438 1709.682006835938 C 513.2880249023438 1709.682006835938 514.287109375 1709.845458984375 515.7400512695313 1709.845458984375 C 518.646240234375 1709.845458984375 523.368896484375 1709.191772460938 525.5490112304688 1705.26904296875 C 528.8179931640625 1699.384033203125 529.4719848632813 1607.512939453125 526.3660278320313 1602.93603515625 C 523.260009765625 1598.358032226563 520.3179931640625 1592.473999023438 520.3179931640625 1592.473999023438 C 521.8779907226563 1591.0439453125 521.9130249023438 1589.890991210938 521.1950073242188 1588.864990234375 C 522.6170043945313 1587.43701171875 520.448974609375 1586.441040039063 518.0289916992188 1585.443969726563 C 516.615478515625 1584.86181640625 501.8769226074219 1583.645751953125 488.4914855957031 1583.6455078125 M 488.4882507324219 1573.6455078125 C 488.4883117675781 1573.6455078125 488.4883422851563 1573.6455078125 488.4884033203125 1573.6455078125 C 492.7083129882813 1573.645629882813 516.784423828125 1574.116455078125 521.8372192382813 1576.197509765625 C 524.5487670898438 1577.314697265625 530.1884155273438 1579.638305664063 531.4351806640625 1585.841796875 C 531.6578369140625 1586.950073242188 531.7073974609375 1588.06005859375 531.591796875 1589.1455078125 C 531.6790771484375 1590.123779296875 531.6480712890625 1591.128295898438 531.47998046875 1592.141357421875 C 532.404296875 1593.784545898438 533.5218505859375 1595.671752929688 534.6412353515625 1597.321655273438 C 540.8330078125 1606.44580078125 538.2636108398438 1702.973022460938 534.2908935546875 1710.124877929688 C 530.8572998046875 1716.303100585938 524.09619140625 1719.845458984375 515.7401123046875 1719.845458984375 C 514.5523681640625 1719.845458984375 513.5478515625 1719.77392578125 512.8343505859375 1719.701416015625 C 508.818115234375 1719.826538085938 490.1462707519531 1720.38720703125 477.7369079589844 1720.38720703125 C 466.5650634765625 1720.38720703125 463.197265625 1720.256591796875 459.893798828125 1717.3212890625 C 455.9434204101563 1714.468627929688 449.8330078125 1710.044799804688 449.8330078125 1702.652954101563 L 449.7215576171875 1697.014526367188 C 447.8076171875 1605.416381835938 449.191650390625 1602.944091796875 451.1072387695313 1599.522216796875 C 452.390380859375 1597.231201171875 454.0620727539063 1595.399047851563 455.5369873046875 1593.782470703125 C 455.8580932617188 1593.430541992188 456.2550659179688 1592.995361328125 456.61572265625 1592.582641601563 C 456.3023071289063 1591.231201171875 456.2030029296875 1589.855712890625 456.3212890625 1588.49609375 C 456.1386108398438 1586.211059570313 456.6487426757813 1583.908569335938 457.8504028320313 1581.862182617188 C 461.4578857421875 1575.718872070313 469.1889038085938 1573.6455078125 488.4882507324219 1573.6455078125 Z"/>
      </g>
    </g>
    <path id="路径_12190" data-name="路径 12190" class="cls-2" d="M466.481,1710.387s-1.744,1.257.763,2.02,50.022,1.2,50.785,0,.723-2.782,0-2.7S469.206,1704.881,466.481,1710.387Z"/>
    <path id="路径_12191" data-name="路径 12191" class="cls-3" d="M520.318,1592.474a108.107,108.107,0,0,0,6.048,10.462c3.106,4.577,2.452,96.448-.817,102.332s-12.261,4.414-12.261,4.414-45.281,1.471-46.752.164-6.7-4.251-6.7-7.193-2.288-94.159,0-98.246,9.155-8.173,6.866-13.159C475.036,1591.248,520.318,1592.474,520.318,1592.474Z"/>
    <path id="路径_12192" data-name="路径 12192" class="cls-2" d="M466.7,1591.248s25.828,14.222,53.619,1.226c2.942-2.7.49-4.414-2.289-6.13S460.978,1579.233,466.7,1591.248Z"/>
    <path id="路径_12193" data-name="路径 12193" class="cls-4" d="M466.7,1588.714s25.828,9.481,53.619.817c2.942-1.8.49-2.943-2.289-4.087S460.978,1580.7,466.7,1588.714Z"/>
    <path id="路径_12194" data-name="路径 12194" class="cls-5" d="M470.344,1658.352a7,7,0,0,0,0,2.289c.521,7.349.962,36.127.962,38.416s2.049,2.621,4.809,3.106c3.028.531,3.42-5.068,3.42-5.068l-.984-35.227c-.048-1.709-.945-3.077-2.063-3.145Z"/>
    <ellipse id="椭圆_2316" data-name="椭圆 2316" class="cls-6" cx="26.229" cy="23.005" rx="26.229" ry="23.005" transform="translate(467.369 1610.78)"/>
    <path id="路径_12195" data-name="路径 12195" class="cls-7" d="M471.25,1645.829s11.307,16.734,32.557,9.152,17.246-28.947,11.215-34.46S471.25,1645.829,471.25,1645.829Z"/>
    <path id="路径_12196" data-name="路径 12196" class="cls-5" d="M471.25,1645.829s45.589,3.834,43.772-25.308c-2.309-2.482-6.732-6.541-7.747-6.369S471.25,1645.829,471.25,1645.829Z"/>
    <path id="路径_12197" data-name="路径 12197" class="cls-8" d="M507.275,1614.152s-4.338,27.981-36.025,31.677c-3.881-3.388-10.069-23.022,10.944-32.767C489.694,1609.529,499.245,1610.057,507.275,1614.152Z"/>
  </g>
</svg>
