<svg xmlns="http://www.w3.org/2000/svg" width="134.603" height="134.619" viewBox="0 0 134.603 134.619">
  <defs>
    <style>
      .cls-1 {
        fill: #fb8c00;
      }

      .cls-2 {
        fill: #fff9c4;
      }
    </style>
  </defs>
  <g id="组_4597" data-name="组 4597" transform="translate(-1263.584 -1337.481)">
    <path id="路径_12174" data-name="路径 12174" class="cls-1" d="M1263.584,1404.783a67.3,67.3,0,1,0,134.6.031v-.031a67.3,67.3,0,1,0-134.6,0Z"/>
    <path id="路径_12175" data-name="路径 12175" class="cls-2" d="M1270.383,1404.783a60.5,60.5,0,1,0,0-.007Z"/>
    <path id="路径_12176" data-name="路径 12176" class="cls-1" d="M1334.407,1412.559s-2.2-4.533-5.056-.209l-9.694,32.813s-1.4,9.067,10.566,9.66c12.344.627,11.751-8.753,11.751-8.753Zm4.777-4.359s-4.6-2.058-4.01,3.1l13.67,31.35s4.742,7.846,14.3.593c9.869-7.463,3.348-14.263,3.348-14.263Zm35.116-8.02-34.279,1.6s-4.847,1.394-1.081,4.951l30.652,15.239s8.683,2.964,11.333-8.718C1383.645,1401.191,1374.3,1400.18,1374.3,1400.18Zm-35.394.662,33.267-8.02s8.543-3.313,3.068-13.984c-5.649-10.984-13.46-5.788-13.46-5.788l-25.212,23.294s-2.824,4.184,2.337,4.5Zm-3.8-4.5,20.329-27.514s4.394-8.02-6.625-12.693c-11.4-4.812-14.018,4.22-14.018,4.22l-4.359,34.034C1330.4,1394.426,1330.92,1399.412,1335.1,1396.344Zm-10.671.558s3.627,3.487,4.847-1.535l-2.127-34.174s-1.779-9-13.251-5.439c-11.822,3.626-8.021,12.239-8.021,12.239Zm-35.743-4.5,32.779,10.217s5.021.349,2.72-4.289l-23.573-24.793s-7.149-5.754-13.635,4.324c-6.73,10.392,1.709,14.541,1.709,14.541Zm33.511,11.473-34-3.836s-9.171.209-7.672,12.1c1.534,12.275,10.671,10.043,10.671,10.043l31.663-13.251C1322.865,1408.9,1326.945,1405.933,1322.2,1403.876Zm2.023,5.544-28.525,18.9s-6.9,6.032,1.883,14.192c9.067,8.4,14.611.837,14.611.837l15.727-30.512C1327.991,1412.838,1329.176,1407.956,1324.225,1409.42Z"/>
  </g>
</svg>
