<svg xmlns="http://www.w3.org/2000/svg" width="185.763" height="87.118" viewBox="0 0 185.763 87.118">
  <defs>
    <style>
      .cls-1, .cls-9 {
        fill: #fff;
      }

      .cls-1 {
        stroke-linejoin: round;
      }

      .cls-2 {
        fill: #efc190;
      }

      .cls-3 {
        fill: #d7965e;
      }

      .cls-4 {
        fill: #ebb074;
      }

      .cls-5 {
        fill: #915e3f;
      }

      .cls-6 {
        fill: none;
        stroke: #925f42;
        stroke-miterlimit: 10;
        stroke-width: 1.293px;
      }

      .cls-7 {
        fill: #8d603c;
      }

      .cls-8, .cls-9 {
        stroke: none;
      }
    </style>
  </defs>
  <g id="组_4604" data-name="组 4604" transform="translate(-818.527 -1616.628)">
    <g id="路径_12198" data-name="路径 12198" class="cls-1">
      <path class="cls-8" d="M 906.4083862304688 1699.53076171875 L 906.4083862304688 1698.09326171875 L 827.9472045898438 1688.937255859375 L 823.5267333984375 1688.42138671875 L 823.5267333984375 1683.970947265625 L 823.5267333984375 1636.4404296875 L 823.5267333984375 1632.001953125 L 827.9338989257813 1631.475708007813 L 910.1165771484375 1621.6630859375 L 910.7044067382813 1621.592895507813 L 911.2923583984375 1621.661865234375 L 994.6893310546875 1631.453002929688 L 999.2899780273438 1630.870483398438 L 999.2899780273438 1636.54345703125 L 999.2899780273438 1681.61328125 L 999.2899780273438 1685.934692382813 L 995.01416015625 1686.560546875 L 912.132568359375 1698.69287109375 L 906.4083862304688 1699.53076171875 Z"/>
      <path class="cls-9" d="M 910.7093505859375 1626.627807617188 L 828.5267333984375 1636.4404296875 L 828.5267333984375 1683.970947265625 L 911.4083862304688 1693.642822265625 L 911.4083862304688 1693.74560546875 L 994.2899780273438 1681.61328125 L 994.2899780273438 1636.54345703125 L 911.4083862304688 1647.037109375 L 911.4083862304688 1646.934326171875 L 994.2899780273438 1636.4404296875 L 910.7093505859375 1626.627807617188 M 910.7093505859375 1616.627807617188 C 911.0986938476563 1616.627807617188 911.4879760742188 1616.650512695313 911.8753662109375 1616.696044921875 L 995.4559936523438 1626.508666992188 C 1000.476013183594 1627.098022460938 1004.266967773438 1631.340698242188 1004.289916992188 1636.39501953125 C 1004.2900390625 1636.427734375 1004.2900390625 1636.460693359375 1004.289855957031 1636.493286132813 C 1004.289916992188 1636.510009765625 1004.289978027344 1636.52685546875 1004.289978027344 1636.54345703125 L 1004.289978027344 1681.61328125 C 1004.289978027344 1686.57666015625 1000.6494140625 1690.788940429688 995.7383422851563 1691.5078125 L 912.8567504882813 1703.64013671875 C 912.3739624023438 1703.710815429688 911.8895874023438 1703.745727539063 911.4080810546875 1703.745727539063 C 910.5386962890625 1703.745727539063 909.6775512695313 1703.63232421875 908.84521484375 1703.41162109375 L 827.3676147460938 1693.903564453125 C 822.327392578125 1693.3154296875 818.5267333984375 1689.04541015625 818.5267333984375 1683.970947265625 L 818.5267333984375 1636.4404296875 C 818.5267333984375 1631.376098632813 822.3126220703125 1627.111328125 827.3411254882813 1626.510986328125 L 909.5237426757813 1616.698364257813 C 909.9175415039063 1616.6513671875 910.3134765625 1616.627807617188 910.7093505859375 1616.627807617188 Z"/>
    </g>
    <path id="路径_12199" data-name="路径 12199" class="cls-2" d="M828.527,1636.441l82.183-9.813,83.581,9.813-82.882,10.494Z"/>
    <path id="路径_12200" data-name="路径 12200" class="cls-3" d="M828.527,1636.441v47.53l82.882,9.672v-46.709Z"/>
    <path id="路径_12201" data-name="路径 12201" class="cls-4" d="M994.29,1636.543v45.07l-82.882,12.132v-46.708Z"/>
    <path id="路径_12202" data-name="路径 12202" class="cls-5" d="M869.213,1631.583l78.178,10.8v6.408l17.507-2.366v-6.375l-80.053-10.506Z"/>
    <path id="路径_12203" data-name="路径 12203" class="cls-6" d="M920.665,1680.688v8.839l20.5-2.812v-8.5Z"/>
    <path id="路径_12204" data-name="路径 12204" class="cls-7" d="M935.32,1680.344l-2.62,2.278,2.235-.272v2.932l1.685-.206v-2.923l1.946-.257Z"/>
    <path id="路径_12205" data-name="路径 12205" class="cls-7" d="M926.474,1681.613l-2.62,2.278,2.235-.272v2.932l1.685-.206v-2.923l1.946-.257Z"/>
    <path id="路径_12206" data-name="路径 12206" class="cls-7" d="M925.72,1687.057v.617l11.584-1.595v-.651Z"/>
  </g>
</svg>
