<svg xmlns="http://www.w3.org/2000/svg" width="154.603" height="154.619" viewBox="0 0 154.603 154.619">
  <defs>
    <style>
      .cls-1, .cls-3 {
        fill: #fb8c00;
      }

      .cls-1 {
        stroke-linejoin: round;
      }

      .cls-2 {
        fill: #fff9c4;
      }

      .cls-4, .cls-5 {
        stroke: none;
      }

      .cls-5 {
        fill: #fff;
      }
    </style>
  </defs>
  <g id="组_4607" data-name="组 4607" transform="translate(-1253.584 -1567.423)">
    <g id="路径_12231" data-name="路径 12231" class="cls-1">
      <path class="cls-4" d="M 1330.888793945313 1717.0419921875 C 1330.8876953125 1717.0419921875 1330.88671875 1717.0419921875 1330.885498046875 1717.0419921875 L 1330.867797851563 1717.0419921875 C 1321.109619140625 1717.039916992188 1311.640991210938 1715.12548828125 1302.724975585938 1711.351928710938 C 1298.440185546875 1709.53857421875 1294.307983398438 1707.29443359375 1290.443237304688 1704.68212890625 C 1286.616333007813 1702.095458984375 1283.01806640625 1699.125244140625 1279.748291015625 1695.85400390625 C 1276.478637695313 1692.582641601563 1273.510009765625 1688.983032226563 1270.925170898438 1685.154907226563 C 1268.314697265625 1681.288940429688 1266.072509765625 1677.155639648438 1264.261108398438 1672.869873046875 C 1260.49169921875 1663.952026367188 1258.581665039063 1654.482299804688 1258.583984375 1644.723754882813 C 1258.583984375 1634.966430664063 1260.496337890625 1625.497192382813 1264.267822265625 1616.580200195313 C 1266.080322265625 1612.294921875 1268.323486328125 1608.162231445313 1270.934814453125 1604.296752929688 C 1273.520629882813 1600.469360351563 1276.489990234375 1596.870361328125 1279.760498046875 1593.599731445313 C 1283.031127929688 1590.329223632813 1286.630004882813 1587.359741210938 1290.457397460938 1584.774047851563 C 1294.322875976563 1582.16259765625 1298.45556640625 1579.91943359375 1302.74072265625 1578.10693359375 C 1311.657592773438 1574.335327148438 1321.126708984375 1572.422973632813 1330.885009765625 1572.422973632813 C 1340.6435546875 1572.422973632813 1350.11279296875 1574.335327148438 1359.02978515625 1578.106811523438 C 1363.315063476563 1579.91943359375 1367.447875976563 1582.162475585938 1371.313354492188 1584.77392578125 C 1375.140747070313 1587.359741210938 1378.73974609375 1590.3291015625 1382.01025390625 1593.599731445313 C 1385.280883789063 1596.870239257813 1388.250244140625 1600.469360351563 1390.836059570313 1604.296752929688 C 1393.447509765625 1608.162231445313 1395.690673828125 1612.294921875 1397.503173828125 1616.580200195313 C 1401.274658203125 1625.497192382813 1403.18701171875 1634.966430664063 1403.18701171875 1644.724975585938 L 1403.18701171875 1644.755981445313 C 1403.184692382813 1654.514526367188 1401.270629882813 1663.982299804688 1397.498291015625 1672.897338867188 C 1395.685302734375 1677.181762695313 1393.44189453125 1681.313598632813 1390.830322265625 1685.17822265625 C 1388.244384765625 1689.004760742188 1385.27490234375 1692.602905273438 1382.004516601563 1695.87255859375 C 1378.734008789063 1699.142333984375 1375.135375976563 1702.110961914063 1371.308227539063 1704.695922851563 C 1367.443115234375 1707.306518554688 1363.310791015625 1709.548950195313 1359.026123046875 1711.36083984375 C 1350.111450195313 1715.130615234375 1340.64453125 1717.0419921875 1330.888793945313 1717.0419921875 Z"/>
      <path class="cls-5" d="M 1330.885009765625 1577.422973632813 C 1293.715942382813 1577.422973632813 1263.583984375 1607.555053710938 1263.583984375 1644.724975585938 C 1263.574951171875 1681.89501953125 1293.699951171875 1712.034057617188 1330.869018554688 1712.0419921875 C 1330.87353515625 1712.0419921875 1330.881225585938 1712.0419921875 1330.8857421875 1712.0419921875 C 1368.049438476563 1712.0419921875 1398.177978515625 1681.921508789063 1398.18701171875 1644.755981445313 L 1398.18701171875 1644.724975585938 C 1398.18701171875 1607.555053710938 1368.055053710938 1577.422973632813 1330.885009765625 1577.422973632813 M 1330.885009765625 1567.422973632813 C 1373.509521484375 1567.422973632813 1408.18701171875 1602.100463867188 1408.18701171875 1644.724975585938 C 1408.176635742188 1687.372680664063 1373.49951171875 1722.0419921875 1330.8857421875 1722.0419921875 C 1310.228881835938 1722.03759765625 1290.813720703125 1713.99267578125 1276.214721679688 1699.389282226563 C 1261.616088867188 1684.786254882813 1253.578979492188 1665.371948242188 1253.583984375 1644.722534179688 C 1253.583984375 1602.100463867188 1288.261108398438 1567.422973632813 1330.885009765625 1567.422973632813 Z"/>
    </g>
    <path id="路径_12232" data-name="路径 12232" class="cls-2" d="M1270.383,1644.725a60.5,60.5,0,1,0,0-.006Z"/>
    <path id="路径_12233" data-name="路径 12233" class="cls-3" d="M1334.407,1652.5s-2.2-4.533-5.056-.209l-9.694,32.814s-1.4,9.066,10.566,9.659c12.344.628,11.751-8.752,11.751-8.752Zm4.777-4.359s-4.6-2.057-4.01,3.1l13.67,31.349s4.742,7.846,14.3.593c9.869-7.462,3.348-14.262,3.348-14.262Zm35.116-8.02-34.279,1.6s-4.847,1.4-1.081,4.952l30.652,15.239s8.683,2.964,11.333-8.718C1383.645,1641.133,1374.3,1640.122,1374.3,1640.122Zm-35.394.663,33.267-8.021s8.543-3.313,3.068-13.983c-5.649-10.985-13.46-5.789-13.46-5.789l-25.212,23.294s-2.824,4.185,2.337,4.5Zm-3.8-4.5,20.329-27.513s4.394-8.021-6.625-12.693c-11.4-4.813-14.018,4.219-14.018,4.219l-4.359,34.034C1330.4,1634.368,1330.92,1639.355,1335.1,1636.286Zm-10.671.558s3.627,3.487,4.847-1.534l-2.127-34.174s-1.779-9-13.251-5.44c-11.822,3.627-8.021,12.24-8.021,12.24Zm-35.743-4.5,32.779,10.217s5.021.349,2.72-4.289l-23.573-24.794s-7.149-5.753-13.635,4.324c-6.73,10.392,1.709,14.542,1.709,14.542Zm33.511,11.472-34-3.835s-9.171.209-7.672,12.1c1.534,12.275,10.671,10.043,10.671,10.043l31.663-13.251C1322.865,1648.84,1326.945,1645.876,1322.2,1643.818Zm2.023,5.545-28.525,18.9s-6.9,6.033,1.883,14.193c9.067,8.4,14.611.837,14.611.837l15.727-30.513C1327.991,1652.78,1329.176,1647.9,1324.225,1649.363Z"/>
  </g>
</svg>
