<svg xmlns="http://www.w3.org/2000/svg" width="99.745" height="74.798" viewBox="0 0 99.745 74.798">
  <defs>
    <style>
      .cls-1 {
        fill: #f4e379;
      }

      .cls-2 {
        fill: #f7a342;
      }

      .cls-3 {
        fill: #f9aa18;
      }

      .cls-4 {
        fill: #e18e34;
      }
    </style>
  </defs>
  <g id="组_4595" data-name="组 4595" transform="translate(-1070.441 -1379.896)">
    <path id="路径_12152" data-name="路径 12152" class="cls-1" d="M1070.454,1383.369l2.306,17.2a6.035,6.035,0,0,1,4.433,5.674c.118,4.611-2.838,5.32-2.838,5.32l.769,9.872s-.118,2.541,11.349,9.4,42.44,23.762,42.44,23.762,0-29.386-5.919-43.572C1118.865,1411.034,1070.454,1383.369,1070.454,1383.369Z"/>
    <path id="路径_12153" data-name="路径 12153" class="cls-2" d="M1164.521,1383.272s7.069,5.852,5.414,43.8c-7.448,15.6-34.874,29.436-41.022,27.426,0-2.009-1.081-32.053-5.919-43.571C1122.994,1410.927,1153.983,1393.185,1164.521,1383.272Z"/>
    <ellipse id="椭圆_2313" data-name="椭圆 2313" class="cls-3" cx="5.202" cy="6.266" rx="5.202" ry="6.266" transform="translate(1108.728 1420.806)"/>
    <ellipse id="椭圆_2314" data-name="椭圆 2314" class="cls-3" cx="5.202" cy="6.266" rx="5.202" ry="6.266" transform="translate(1084.079 1402.866)"/>
    <path id="路径_12154" data-name="路径 12154" class="cls-3" d="M1092.738,1427.072c2.873,0,5.2,2.8,5.2,6.265a7.14,7.14,0,0,1-.935,3.572c-3.511-1.985-6.72-3.824-9.24-5.309C1088.393,1428.991,1090.37,1427.072,1092.738,1427.072Z"/>
    <path id="路径_12155" data-name="路径 12155" class="cls-4" d="M1163.019,1381.5s2.483,1.064,1.064,2.306-30.145,30.677-43.445,26.776-50.184-27.308-50.184-27.308-.532-3.547,5.143-3.37S1163.019,1381.5,1163.019,1381.5Z"/>
  </g>
</svg>
