<svg xmlns="http://www.w3.org/2000/svg" width="69.564" height="129.506" viewBox="0 0 69.564 129.506">
  <defs>
    <style>
      .cls-1 {
        fill: #b8bdc1;
      }

      .cls-2 {
        fill: #1178ce;
      }

      .cls-3 {
        fill: #cadcea;
      }

      .cls-4 {
        fill: #e1f9ff;
      }

      .cls-5 {
        fill: #006fd3;
      }

      .cls-6 {
        fill: #0028d1;
      }

      .cls-7 {
        fill: #f66;
      }
    </style>
  </defs>
  <g id="组_4593" data-name="组 4593" transform="translate(-458.816 -1343.702)">
    <path id="路径_12136" data-name="路径 12136" class="cls-1" d="M466.481,1470.445s-1.744,1.256.763,2.019,50.022,1.2,50.785,0,.723-2.782,0-2.7S469.206,1464.938,466.481,1470.445Z"/>
    <path id="路径_12137" data-name="路径 12137" class="cls-2" d="M520.318,1352.531a107.978,107.978,0,0,0,6.048,10.462c3.106,4.577,2.452,96.448-.817,102.333s-12.261,4.414-12.261,4.414-45.281,1.471-46.752.163-6.7-4.25-6.7-7.193-2.288-94.159,0-98.246,9.155-8.172,6.866-13.159C475.036,1351.305,520.318,1352.531,520.318,1352.531Z"/>
    <path id="路径_12138" data-name="路径 12138" class="cls-1" d="M466.7,1351.305s25.828,14.222,53.619,1.226c2.942-2.7.49-4.413-2.289-6.13S460.978,1339.29,466.7,1351.305Z"/>
    <path id="路径_12139" data-name="路径 12139" class="cls-3" d="M466.7,1348.771s25.828,9.481,53.619.817c2.942-1.8.49-2.942-2.289-4.086S460.978,1340.761,466.7,1348.771Z"/>
    <path id="路径_12140" data-name="路径 12140" class="cls-4" d="M470.344,1418.41a6.989,6.989,0,0,0,0,2.288c.521,7.35.962,36.128.962,38.416s2.049,2.622,4.809,3.106c3.028.531,3.42-5.068,3.42-5.068l-.984-35.226c-.048-1.71-.945-3.078-2.063-3.145Z"/>
    <ellipse id="椭圆_2312" data-name="椭圆 2312" class="cls-5" cx="26.229" cy="23.005" rx="26.229" ry="23.005" transform="translate(467.369 1370.837)"/>
    <path id="路径_12141" data-name="路径 12141" class="cls-6" d="M471.25,1405.886s11.307,16.734,32.557,9.153,17.246-28.947,11.215-34.461S471.25,1405.886,471.25,1405.886Z"/>
    <path id="路径_12142" data-name="路径 12142" class="cls-4" d="M471.25,1405.886s45.589,3.834,43.772-25.308c-2.309-2.482-6.732-6.54-7.747-6.368S471.25,1405.886,471.25,1405.886Z"/>
    <path id="路径_12143" data-name="路径 12143" class="cls-7" d="M507.275,1374.21s-4.338,27.98-36.025,31.676c-3.881-3.387-10.069-23.021,10.944-32.766C489.694,1369.586,499.245,1370.114,507.275,1374.21Z"/>
  </g>
</svg>
