<svg xmlns="http://www.w3.org/2000/svg" width="124.149" height="123.621" viewBox="0 0 124.149 123.621">
  <defs>
    <style>
      .cls-1 {
        fill: #ffb325;
      }

      .cls-2 {
        fill: #fca717;
      }

      .cls-3 {
        fill: #fcc512;
      }

      .cls-4 {
        fill: #fda216;
      }

      .cls-5 {
        fill: #fd8f15;
      }

      .cls-6 {
        fill: #fb4c03;
      }

      .cls-7 {
        fill: #db2e06;
      }

      .cls-8 {
        fill: #f02a02;
      }

      .cls-9 {
        fill: #f84a08;
      }

      .cls-10 {
        fill: #df181d;
      }

      .cls-11 {
        fill: #ff4100;
      }
    </style>
  </defs>
  <g id="组_4596" data-name="组 4596" transform="translate(-640.429 -1351.486)">
    <path id="路径_12156" data-name="路径 12156" class="cls-1" d="M703.649,1413.441l60.928-34.8L703,1351.773,640.429,1379.6Z"/>
    <path id="路径_12157" data-name="路径 12157" class="cls-2" d="M764.578,1378.639v19.83L703,1436.849l.649-23.408Z"/>
    <path id="路径_12158" data-name="路径 12158" class="cls-3" d="M703.649,1413.441,703,1436.849l-62.571-37.261V1379.6Z"/>
    <path id="路径_12159" data-name="路径 12159" class="cls-4" d="M646.948,1403.47v34.658l55.587,36.979.465-38.258Z"/>
    <path id="路径_12160" data-name="路径 12160" class="cls-5" d="M703,1436.849l-.465,38.258,58.685-40.337v-34.208Z"/>
    <path id="路径_12161" data-name="路径 12161" class="cls-6" d="M662.423,1391.372v21.313l13.533,8.059v-22.128Z"/>
    <path id="路径_12162" data-name="路径 12162" class="cls-6" d="M731.861,1397.327v21.534l12.407-7.918V1390.72Z"/>
    <path id="路径_12163" data-name="路径 12163" class="cls-6" d="M728.839,1420.744v36.283l13.456-9.249v-35.421Z"/>
    <path id="路径_12164" data-name="路径 12164" class="cls-7" d="M665.327,1414.415v35.94l13.068,8.693v-37.862Z"/>
    <path id="路径_12165" data-name="路径 12165" class="cls-8" d="M662.423,1391.372l63.179-29.738,9.965,4.348-59.611,32.635Z"/>
    <path id="路径_12166" data-name="路径 12166" class="cls-8" d="M730.981,1397.829l13.287-7.109-62.387-29.555-13.338,5.931Z"/>
    <path id="路径_12167" data-name="路径 12167" class="cls-9" d="M691.419,1378.356s-27.749-1.6-28.229-12.63c0-8.516,6.717-15.792,9.835-13.953s28.7,16.232,31.143,19.95C700.971,1374.841,698.538,1378.392,691.419,1378.356Z"/>
    <path id="路径_12168" data-name="路径 12168" class="cls-10" d="M671.861,1351.49s-4.469,1.523-2.672,5.121,16.886,20.218,34.979,15.112Z"/>
    <path id="路径_12169" data-name="路径 12169" class="cls-9" d="M718.654,1378.356s27.748-1.6,28.228-12.63c0-8.516-6.716-15.792-9.835-13.953s-28.7,16.232-31.143,19.95C709.1,1374.841,711.534,1378.392,718.654,1378.356Z"/>
    <path id="路径_12170" data-name="路径 12170" class="cls-10" d="M738.211,1351.49s4.469,1.523,2.672,5.121-16.384,20.137-34.477,15.031Z"/>
    <path id="路径_12171" data-name="路径 12171" class="cls-9" d="M757.5,1379.5s-22.5,17.572-36.94,11.875-12.7-6.55-12.7-6.55l9.949-4.1A172.123,172.123,0,0,0,757.5,1379.5Z"/>
    <path id="路径_12172" data-name="路径 12172" class="cls-11" d="M700.509,1372.443s11.016-2.879,14.494,2.278,3,12.234-.839,13.193-16.552,1.44-18.71-2.518S695.357,1372.455,700.509,1372.443Z"/>
    <path id="路径_12173" data-name="路径 12173" class="cls-9" d="M657.249,1379.5s22.505,17.572,36.941,11.875,5.461-15.971,5.461-15.971h-1.439S678.838,1382.714,657.249,1379.5Z"/>
  </g>
</svg>
