<svg xmlns="http://www.w3.org/2000/svg" width="144.149" height="143.621" viewBox="0 0 144.149 143.621">
  <defs>
    <style>
      .cls-1, .cls-14 {
        fill: #fff;
      }

      .cls-1 {
        stroke-linejoin: round;
      }

      .cls-2 {
        fill: #ffb325;
      }

      .cls-3 {
        fill: #fca717;
      }

      .cls-4 {
        fill: #fcc512;
      }

      .cls-5 {
        fill: #fda216;
      }

      .cls-6 {
        fill: #fd8f15;
      }

      .cls-7 {
        fill: #fb4c03;
      }

      .cls-8 {
        fill: #db2e06;
      }

      .cls-9 {
        fill: #f02a02;
      }

      .cls-10 {
        fill: #f84a08;
      }

      .cls-11 {
        fill: #df181d;
      }

      .cls-12 {
        fill: #ff4100;
      }

      .cls-13, .cls-14 {
        stroke: none;
      }
    </style>
  </defs>
  <g id="组_4606" data-name="组 4606" transform="translate(-630.429 -1581.429)">
    <g id="路径_12212" data-name="路径 12212" class="cls-1">
      <path class="cls-13" d="M 702.580810546875 1721.085815429688 L 699.7655639648438 1719.213012695313 L 644.1785888671875 1682.234008789063 L 641.947998046875 1680.750122070313 L 641.947998046875 1678.071044921875 L 641.947998046875 1646.2548828125 L 637.870849609375 1643.827026367188 L 635.4290161132813 1642.372924804688 L 635.4290161132813 1639.531005859375 L 635.4290161132813 1619.541015625 L 635.4290161132813 1616.29248046875 L 638.3972778320313 1614.972412109375 L 658.2101440429688 1606.161254882813 C 658.2039794921875 1606.0703125 658.1988525390625 1605.979370117188 658.19482421875 1605.88818359375 L 658.1900024414063 1605.778076171875 L 658.1900024414063 1605.66796875 C 658.1900024414063 1601.209594726563 659.59814453125 1596.672241210938 662.155029296875 1592.8916015625 C 664.9327392578125 1588.784545898438 668.4947509765625 1586.428955078125 671.9277954101563 1586.428955078125 C 673.2200927734375 1586.428955078125 674.4778442382813 1586.767944335938 675.5650634765625 1587.4091796875 C 675.9240112304688 1587.620849609375 676.6615600585938 1588.045043945313 677.5952758789063 1588.582275390625 C 679.6339111328125 1589.755004882813 682.8096923828125 1591.581909179688 686.3287963867188 1593.6572265625 L 700.9684448242188 1587.147338867188 L 702.9807739257813 1586.25244140625 L 704.9993896484375 1587.133056640625 L 722.1350708007813 1594.609130859375 C 726.2781372070313 1592.147705078125 730.0819702148438 1589.959594726563 732.5008544921875 1588.568237304688 C 733.4231567382813 1588.03759765625 734.1516723632813 1587.618530273438 734.5082397460938 1587.408447265625 C 735.5947265625 1586.767822265625 736.8523559570313 1586.428955078125 738.1444702148438 1586.428955078125 C 741.5777587890625 1586.428955078125 745.1398315429688 1588.78466796875 747.91748046875 1592.891967773438 C 750.4740600585938 1596.672485351563 751.8820190429688 1601.209716796875 751.8820190429688 1605.66796875 L 751.8820190429688 1605.776245117188 L 751.8773193359375 1605.884399414063 C 751.853515625 1606.433837890625 751.7919311523438 1606.974243164063 751.6927490234375 1607.504760742188 L 766.5775146484375 1613.999267578125 L 769.5780029296875 1615.308471679688 L 769.5780029296875 1618.58203125 L 769.5780029296875 1638.411010742188 L 769.5780029296875 1641.18603515625 L 767.2230834960938 1642.654052734375 L 766.218994140625 1643.280029296875 L 766.218994140625 1674.713012695313 L 766.218994140625 1677.343505859375 L 764.05126953125 1678.83349609375 L 705.3672485351563 1719.170532226563 L 702.580810546875 1721.085815429688 Z"/>
      <path class="cls-14" d="M 671.9277954101563 1591.428955078125 C 668.5620727539063 1591.428955078125 663.1900024414063 1598.052612304688 663.1900024414063 1605.66796875 C 663.2429809570313 1606.869995117188 663.6339721679688 1607.953979492188 664.2620239257813 1608.942016601563 L 640.4290161132813 1619.541015625 L 640.4290161132813 1639.531005859375 L 646.947998046875 1643.412963867188 L 703 1676.7919921875 L 646.947998046875 1643.412963867188 L 646.947998046875 1678.071044921875 L 702.5349731445313 1715.050048828125 L 761.218994140625 1674.713012695313 L 761.218994140625 1640.505004882813 L 764.5780029296875 1638.411010742188 L 764.5780029296875 1618.58203125 L 744.989013671875 1610.035034179688 C 746.1110229492188 1608.775024414063 746.8099975585938 1607.329956054688 746.8820190429688 1605.66796875 C 746.8820190429688 1598.053100585938 741.5108032226563 1591.429077148438 738.1444702148438 1591.428955078125 C 737.7465209960938 1591.428955078125 737.376708984375 1591.521484375 737.0469970703125 1591.715942382813 C 735.5809936523438 1592.579956054688 729.1500244140625 1596.219970703125 722.4920043945313 1600.219970703125 L 703 1591.715942382813 L 686.0009765625 1599.275024414063 C 679.9329833984375 1595.660034179688 674.375 1592.511962890625 673.0250244140625 1591.715942382813 C 672.6956176757813 1591.521606445313 672.3253784179688 1591.428955078125 671.9277954101563 1591.428955078125 M 671.9277954101563 1581.428955078125 C 674.1128540039063 1581.428955078125 676.2489624023438 1582.007690429688 678.1051635742188 1583.102416992188 L 680.0874633789063 1584.24755859375 C 681.7063598632813 1585.178833007813 684.0176391601563 1586.508544921875 686.6448364257813 1588.044555664063 L 698.9368286132813 1582.57861328125 C 700.2297973632813 1582.003662109375 701.614990234375 1581.716064453125 703 1581.715942382813 C 704.3618774414063 1581.715942382813 705.7235107421875 1581.993896484375 706.998779296875 1582.55029296875 L 721.79150390625 1589.004028320313 C 725.1012573242188 1587.056762695313 728.061279296875 1585.353759765625 730.0087280273438 1584.233520507813 L 731.9696044921875 1583.100830078125 C 733.8241577148438 1582.007446289063 735.9598999023438 1581.428955078125 738.1444702148438 1581.428955078125 C 747.4221801757813 1581.429321289063 756.212158203125 1592.359130859375 756.8455810546875 1604.2978515625 L 768.5770874023438 1609.41650390625 C 772.2218017578125 1611.006713867188 774.5780029296875 1614.60546875 774.5780029296875 1618.58203125 L 774.5780029296875 1638.411010742188 C 774.5780029296875 1641.294555664063 773.3355712890625 1644.0078125 771.218994140625 1645.8876953125 L 771.218994140625 1674.713012695313 C 771.218994140625 1678.00634765625 769.5974731445313 1681.088500976563 766.8834838867188 1682.953979492188 L 708.199462890625 1723.291015625 C 706.4944458007813 1724.463012695313 704.5150146484375 1725.050048828125 702.5347900390625 1725.050048828125 C 700.6051635742188 1725.050048828125 698.6747436523438 1724.49267578125 696.9961547851563 1723.3759765625 L 641.4091796875 1686.39697265625 C 638.6224365234375 1684.543212890625 636.947998046875 1681.418090820313 636.947998046875 1678.071044921875 L 636.947998046875 1649.096801757813 L 635.3126220703125 1648.122924804688 C 632.2843627929688 1646.319702148438 630.4290161132813 1643.055419921875 630.4290161132813 1639.531005859375 L 630.4290161132813 1619.541015625 C 630.4290161132813 1615.589965820313 632.75537109375 1612.00927734375 636.3655395507813 1610.40380859375 L 653.3916015625 1602.83203125 C 654.7501831054688 1591.280883789063 663.1192626953125 1581.428955078125 671.9277954101563 1581.428955078125 Z"/>
    </g>
    <path id="路径_12213" data-name="路径 12213" class="cls-2" d="M703.649,1653.383l60.928-34.8L703,1591.716l-62.571,27.826Z"/>
    <path id="路径_12214" data-name="路径 12214" class="cls-3" d="M764.578,1618.582v19.83L703,1676.792l.649-23.408Z"/>
    <path id="路径_12215" data-name="路径 12215" class="cls-4" d="M703.649,1653.383,703,1676.792l-62.571-37.261v-19.99Z"/>
    <path id="路径_12216" data-name="路径 12216" class="cls-5" d="M646.948,1643.413v34.658l55.587,36.979.465-38.258Z"/>
    <path id="路径_12217" data-name="路径 12217" class="cls-6" d="M703,1676.792l-.465,38.258,58.685-40.337V1640.5Z"/>
    <path id="路径_12218" data-name="路径 12218" class="cls-7" d="M662.423,1631.315v21.313l13.533,8.058v-22.128Z"/>
    <path id="路径_12219" data-name="路径 12219" class="cls-7" d="M731.861,1637.269V1658.8l12.407-7.918v-20.222Z"/>
    <path id="路径_12220" data-name="路径 12220" class="cls-7" d="M728.839,1660.687v36.283l13.456-9.249V1652.3Z"/>
    <path id="路径_12221" data-name="路径 12221" class="cls-8" d="M665.327,1654.358v35.94l13.068,8.693v-37.862Z"/>
    <path id="路径_12222" data-name="路径 12222" class="cls-9" d="M662.423,1631.315l63.179-29.738,9.965,4.348-59.611,32.635Z"/>
    <path id="路径_12223" data-name="路径 12223" class="cls-9" d="M730.981,1637.772l13.287-7.109-62.387-29.555-13.338,5.931Z"/>
    <path id="路径_12224" data-name="路径 12224" class="cls-10" d="M691.419,1618.3s-27.749-1.595-28.229-12.63c0-8.515,6.717-15.791,9.835-13.952s28.7,16.232,31.143,19.95C700.971,1614.784,698.538,1618.335,691.419,1618.3Z"/>
    <path id="路径_12225" data-name="路径 12225" class="cls-11" d="M671.861,1591.432s-4.469,1.523-2.672,5.121,16.886,20.219,34.979,15.113Z"/>
    <path id="路径_12226" data-name="路径 12226" class="cls-10" d="M718.654,1618.3s27.748-1.595,28.228-12.63c0-8.515-6.716-15.791-9.835-13.952s-28.7,16.232-31.143,19.95C709.1,1614.784,711.534,1618.335,718.654,1618.3Z"/>
    <path id="路径_12227" data-name="路径 12227" class="cls-11" d="M738.211,1591.432s4.469,1.523,2.672,5.121-16.384,20.137-34.477,15.031Z"/>
    <path id="路径_12228" data-name="路径 12228" class="cls-10" d="M757.5,1619.44s-22.5,17.571-36.94,11.875-12.7-6.551-12.7-6.551l9.949-4.1A172.189,172.189,0,0,0,757.5,1619.44Z"/>
    <path id="路径_12229" data-name="路径 12229" class="cls-12" d="M700.509,1612.385s11.016-2.879,14.494,2.279,3,12.233-.839,13.193-16.552,1.439-18.71-2.519S695.357,1612.4,700.509,1612.385Z"/>
    <path id="路径_12230" data-name="路径 12230" class="cls-10" d="M657.249,1619.44s22.505,17.571,36.941,11.875,5.461-15.972,5.461-15.972h-1.439S678.838,1622.656,657.249,1619.44Z"/>
  </g>
</svg>
