<svg xmlns="http://www.w3.org/2000/svg" width="138.548" height="138.548" viewBox="0 0 138.548 138.548">
  <defs>
    <style>
      .cls-1 {
        fill: #fff;
        stroke: #fff;
        stroke-miterlimit: 10;
        stroke-width: 10px;
      }

      .cls-2 {
        fill: #685096;
      }

      .cls-3 {
        stroke: none;
      }

      .cls-4 {
        fill: none;
      }
    </style>
  </defs>
  <g id="组_4601" data-name="组 4601" transform="translate(-215.418 -1581.656)">
    <g id="椭圆_2315" data-name="椭圆 2315" class="cls-1" transform="translate(225.418 1591.656)">
      <circle class="cls-3" cx="59.274" cy="59.274" r="59.274"/>
      <circle class="cls-4" cx="59.274" cy="59.274" r="64.274"/>
    </g>
    <path id="路径_12182" data-name="路径 12182" class="cls-2" d="M272.252,1635.508l-8.764,17.625a4.417,4.417,0,0,0,.863,5.12l14.054,13.781a4.417,4.417,0,0,0,5.136.761l17.45-9.107a4.418,4.418,0,0,0,2.311-4.65l-3.27-19.41a4.416,4.416,0,0,0-3.707-3.635l-19.47-2.888A4.416,4.416,0,0,0,272.252,1635.508Z"/>
    <path id="路径_12183" data-name="路径 12183" class="cls-2" d="M237.971,1614.434a4.075,4.075,0,0,0,1.7.34l20.149-.451a4.091,4.091,0,0,0,3.828-2.915l5.332-17.749A59.314,59.314,0,0,0,237.971,1614.434Z"/>
    <path id="路径_12184" data-name="路径 12184" class="cls-2" d="M294.106,1709.457a4.076,4.076,0,0,0-1.011-1.411l-15.028-13.428a4.094,4.094,0,0,0-4.788-.484l-16.014,9.327A59.312,59.312,0,0,0,294.106,1709.457Z"/>
    <path id="路径_12185" data-name="路径 12185" class="cls-2" d="M233.219,1680.242a4.053,4.053,0,0,0,.964-1.443l7.278-18.793a4.094,4.094,0,0,0-1.231-4.652l-14.369-11.706A59.316,59.316,0,0,0,233.219,1680.242Z"/>
    <path id="路径_12186" data-name="路径 12186" class="cls-2" d="M311.6,1598.11a4.057,4.057,0,0,0-.012,1.735l4.256,19.7a4.1,4.1,0,0,0,3.587,3.208l18.438,1.875A59.308,59.308,0,0,0,311.6,1598.11Z"/>
    <path id="路径_12187" data-name="路径 12187" class="cls-2" d="M341.572,1667.688a4.069,4.069,0,0,0-1.709.306l-18.585,7.795a4.093,4.093,0,0,0-2.5,4.114l1.535,18.469A59.315,59.315,0,0,0,341.572,1667.688Z"/>
  </g>
</svg>
