<svg xmlns="http://www.w3.org/2000/svg" width="167.018" height="142.816" viewBox="0 0 167.018 142.816">
  <defs>
    <style>
      .cls-1 {
        fill: #fb8c00;
        stroke-linejoin: round;
      }

      .cls-2 {
        fill: #30c2c5;
      }

      .cls-3, .cls-5 {
        fill: #fff;
      }

      .cls-4, .cls-5 {
        stroke: none;
      }
    </style>
  </defs>
  <g id="组_4608" data-name="组 4608" transform="translate(-1489.419 -1567.936)">
    <g id="路径_12234" data-name="路径 12234" class="cls-1">
      <path class="cls-4" d="M 1655.256591796875 1705.751953125 L 1646.436767578125 1705.751953125 L 1630.846801757813 1705.751953125 L 1622.081298828125 1705.751953125 L 1617.350708007813 1705.751953125 L 1602.409423828125 1705.751953125 L 1592.760986328125 1705.751953125 L 1577.746826171875 1705.751953125 L 1568.233642578125 1705.751953125 L 1553.0947265625 1705.751953125 L 1543.446044921875 1705.751953125 L 1528.5048828125 1705.751953125 L 1523.774291992188 1705.751953125 L 1513.653076171875 1705.751953125 L 1499.418701171875 1705.751953125 L 1490.598876953125 1705.751953125 L 1495.12841796875 1698.18408203125 L 1568.637451171875 1575.367919921875 L 1572.927734375 1568.199951171875 L 1577.218017578125 1575.367919921875 L 1650.72705078125 1698.18408203125 L 1655.256591796875 1705.751953125 Z"/>
      <path class="cls-5" d="M 1572.927734375 1577.935791015625 L 1499.418701171875 1700.751953125 L 1513.653076171875 1700.751953125 L 1523.774291992188 1700.751953125 L 1528.5048828125 1700.751953125 L 1543.446044921875 1700.751953125 L 1553.0947265625 1700.751953125 L 1568.233642578125 1700.751953125 L 1577.746826171875 1700.751953125 L 1592.760986328125 1700.751953125 L 1602.409423828125 1700.751953125 L 1617.350708007813 1700.751953125 L 1622.081298828125 1700.751953125 L 1630.846801757813 1700.751953125 L 1646.436767578125 1700.751953125 L 1572.927734375 1577.935791015625 M 1572.927734375 1567.935791015625 C 1576.444213867188 1567.935791015625 1579.702270507813 1569.782836914063 1581.508178710938 1572.800048828125 L 1655.017211914063 1695.616333007813 C 1656.866455078125 1698.705932617188 1656.911865234375 1702.55126953125 1655.136108398438 1705.683715820313 C 1653.3603515625 1708.816162109375 1650.03759765625 1710.751953125 1646.436767578125 1710.751953125 L 1630.846801757813 1710.751953125 L 1622.081298828125 1710.751953125 L 1617.350708007813 1710.751953125 L 1602.409423828125 1710.751953125 L 1592.760986328125 1710.751953125 L 1577.746826171875 1710.751953125 L 1568.233642578125 1710.751953125 L 1553.0947265625 1710.751953125 L 1543.446044921875 1710.751953125 L 1528.5048828125 1710.751953125 L 1523.774291992188 1710.751953125 L 1513.653076171875 1710.751953125 L 1499.418701171875 1710.751953125 C 1495.81787109375 1710.751953125 1492.4951171875 1708.816162109375 1490.719360351563 1705.683715820313 C 1488.943603515625 1702.55126953125 1488.989013671875 1698.705932617188 1490.838256835938 1695.616333007813 L 1564.347290039063 1572.800048828125 C 1566.153198242188 1569.782836914063 1569.411254882813 1567.935791015625 1572.927734375 1567.935791015625 Z"/>
    </g>
    <path id="路径_12235" data-name="路径 12235" class="cls-2" d="M1627,1692.535v-.9l-9.649-16.112v25.233h-14.941v-50.2l-9.648-16.112v66.316h-15.014l.073-90.836h-9.508l-.078,90.836h-15.139v-66.316l-9.649,16.112v50.2H1528.5v-25.233l-9.649,16.112v.9l4.918,8.217h-24.356l73.509-122.816,73.509,122.816h-24.356Z"/>
    <path id="路径_12236" data-name="路径 12236" class="cls-3" d="M1627,1691.631v.9l-4.918,8.217h-4.731v-25.233Z"/>
    <path id="路径_12237" data-name="路径 12237" class="cls-3" d="M1602.409,1650.547v50.2h-9.648v-66.316Z"/>
    <rect id="矩形_2123" data-name="矩形 2123" class="cls-3" width="9.511" height="90.836" transform="translate(1568.273 1609.916)"/>
    <path id="路径_12238" data-name="路径 12238" class="cls-3" d="M1553.095,1634.436v66.316h-9.649v-50.2Z"/>
    <path id="路径_12239" data-name="路径 12239" class="cls-3" d="M1528.5,1675.519v25.233h-4.731l-4.918-8.217v-.9Z"/>
    <rect id="矩形_2124" data-name="矩形 2124" class="cls-2" width="117.194" height="10.765" transform="translate(1513.653 1689.987)"/>
  </g>
</svg>
