<svg xmlns="http://www.w3.org/2000/svg" width="463.679" height="503.49" viewBox="0 0 463.679 503.49">
  <defs>
    <style>
      .cls-1 {
        fill: #feeed5;
      }

      .cls-2 {
        fill: #f9b65f;
      }

      .cls-3 {
        fill: #f9c889;
      }

      .cls-12, .cls-15, .cls-4 {
        fill: none;
      }

      .cls-4 {
        stroke: #fff;
        stroke-width: 1.989px;
        stroke-dasharray: 7.957;
      }

      .cls-12, .cls-4 {
        stroke-linecap: round;
        stroke-linejoin: round;
      }

      .cls-5 {
        fill: #fcfdea;
      }

      .cls-6 {
        fill: #f1afa1;
      }

      .cls-7 {
        fill: #fff;
      }

      .cls-8 {
        fill: #2b71b0;
      }

      .cls-9 {
        fill: #e7ffff;
      }

      .cls-10 {
        fill: #eeac9e;
      }

      .cls-11 {
        fill: #f6afa2;
      }

      .cls-12 {
        stroke: #eeac9e;
        stroke-width: 6.511px;
      }

      .cls-13 {
        fill: #fcb2a9;
      }

      .cls-14 {
        stroke: none;
      }
    </style>
  </defs>
  <g id="组_4642" data-name="组 4642" transform="translate(-194.52 -86.789)">
    <rect id="矩形_2192" data-name="矩形 2192" class="cls-1" width="463.679" height="503.49" rx="40.012" transform="translate(194.52 86.789)"/>
    <g id="组_4641" data-name="组 4641" transform="translate(-0.333 -0.334)">
      <rect id="矩形_2191" data-name="矩形 2191" class="cls-2" width="180.012" height="363.192" transform="translate(321.199 157.273)"/>
      <ellipse id="椭圆_2371" data-name="椭圆 2371" class="cls-3" cx="90.006" cy="28.443" rx="90.006" ry="28.443" transform="translate(321.199 128.83)"/>
      <g id="椭圆_2372" data-name="椭圆 2372" class="cls-4" transform="translate(348.507 137.459)">
        <ellipse class="cls-14" cx="62.698" cy="19.813" rx="62.698" ry="19.813"/>
        <ellipse class="cls-15" cx="62.698" cy="19.813" rx="63.693" ry="20.808"/>
      </g>
      <ellipse id="椭圆_2373" data-name="椭圆 2373" class="cls-2" cx="90.006" cy="28.443" rx="90.006" ry="28.443" transform="translate(321.199 492.022)"/>
      <g id="组_4639" data-name="组 4639">
        <path id="路径_12340" data-name="路径 12340" class="cls-5" d="M392.581,444.929s-2.129,11.7.614,14.819c.706,1.486,1.318.4,1.355,2.52s3.088,5.024,7.021,2.436,2.825-6.178,2.172-7.313a3.89,3.89,0,0,0-2.483-1.412l-.1-5.4.108-4.144S396.12,441.05,392.581,444.929Z"/>
        <path id="路径_12341" data-name="路径 12341" class="cls-5" d="M417.752,452.13s-2.316,10.737,1.02,13.225a5.388,5.388,0,0,0,8.564-2.981c.959-3.677,1.726-16.061,1.726-16.061l-.154-3.7-11.88,2.614Z"/>
        <path id="路径_12342" data-name="路径 12342" class="cls-5" d="M389.564,408.983s-10.237,1.636-11.457,11.183c0,0-1.1,3.447.889,5.216a5.711,5.711,0,0,0,6.316.446c.976-.815,2.82-9.142,4.572-9.113s2.437.3,1.22,7.489-4.169,15.6,2.273,21.528,15.545,7.841,24.375,6.4,12.776-6.995,15.164-11.135-.655-15.806-1.3-18.47-1.621-6.6-1.621-6.6-.943-1.644,1.707-1.081,14.645,1.557,16.578-7.262c1.065-4.16,1.65-7.72-3.1-8.256a8.425,8.425,0,0,0-4.962,3.379c-1.97,2.843-5.158,5.534-9.786,4.379s-15.676-6.927-15.676-6.927l-20.539-.765Z"/>
        <circle id="椭圆_2374" data-name="椭圆 2374" class="cls-6" cx="14.901" cy="14.901" r="14.901" transform="translate(396.552 414.559)"/>
        <path id="路径_12343" data-name="路径 12343" class="cls-5" d="M375.283,327.67s-22.525-95.548,6.176-99.545c20.708,0,20.708,35.6,20.708,35.6l1.817,55.949s11.989-.727,13.8-.727.363-89.373,22.162-90.826,19.618,19.255,19.981,23.615S447.58,324.4,444.673,327.67C441.767,332.03,384.728,339.659,375.283,327.67Z"/>
        <ellipse id="椭圆_2375" data-name="椭圆 2375" class="cls-5" cx="57.947" cy="44.774" rx="57.947" ry="44.774" transform="translate(354.574 319.139)"/>
        <circle id="椭圆_2376" data-name="椭圆 2376" class="cls-7" cx="10.406" cy="10.406" r="10.406" transform="translate(377.81 340.648)"/>
        <circle id="椭圆_2377" data-name="椭圆 2377" class="cls-8" cx="8.091" cy="8.091" r="8.091" transform="translate(381.265 345.101)"/>
        <circle id="椭圆_2378" data-name="椭圆 2378" class="cls-9" cx="3.206" cy="3.206" r="3.206" transform="translate(379.708 348.604)"/>
        <circle id="椭圆_2379" data-name="椭圆 2379" class="cls-7" cx="10.406" cy="10.406" r="10.406" transform="translate(423.876 340.648)"/>
        <circle id="椭圆_2380" data-name="椭圆 2380" class="cls-8" cx="8.091" cy="8.091" r="8.091" transform="translate(427.332 345.101)"/>
        <circle id="椭圆_2381" data-name="椭圆 2381" class="cls-9" cx="3.206" cy="3.206" r="3.206" transform="translate(425.774 348.604)"/>
        <path id="路径_12344" data-name="路径 12344" class="cls-10" d="M404.842,361.782s-3.65.611-2.82,3.294,4.526,7.8,6.468,8.375,5.448-.165,5.94-1.148,5.133-5.872,5.072-6.963S420.833,359.8,404.842,361.782Z"/>
        <path id="路径_12345" data-name="路径 12345" class="cls-6" d="M423.874,321.676s5.063.171,15.8,4.269c1.272,0,20.436-80.381,6.085-80.926s-13.8,16.712-14.35,23.07S423.965,319.5,423.874,321.676Z"/>
        <path id="路径_12346" data-name="路径 12346" class="cls-11" d="M398.625,322.111s-5.066,0-15.938,3.737c-1.271-.043-17.734-81.02-3.374-81.084s13.239,17.165,13.571,23.537S398.607,319.929,398.625,322.111Z"/>
        <line id="直线_154" data-name="直线 154" class="cls-12" y2="6.478" transform="translate(410.705 373.652)"/>
        <path id="路径_12347" data-name="路径 12347" class="cls-12" d="M401.024,376.816s8.886,8.6,19.747,0"/>
        <path id="路径_12348" data-name="路径 12348" class="cls-13" d="M468.391,375.791a13.959,13.959,0,1,0-16.052,20.634C459.913,390.885,465.549,383.788,468.391,375.791Z"/>
        <path id="路径_12349" data-name="路径 12349" class="cls-13" d="M365.743,369.128a13.918,13.918,0,0,0-9.9,4.118c2.383,8.68,8.015,16.43,15.874,22.453a13.955,13.955,0,0,0-5.975-26.571Z"/>
      </g>
      <g id="组_4640" data-name="组 4640">
        <path id="路径_12350" data-name="路径 12350" class="cls-5" d="M402.185,169.675s-1.1,1.369.318,1.734c.366.174.683.046.7.294s1.6.588,3.64.285,1.464-.722,1.126-.855a6.074,6.074,0,0,0-1.287-.165l-.052-.632.056-.485A11.851,11.851,0,0,0,402.185,169.675Z"/>
        <path id="路径_12351" data-name="路径 12351" class="cls-5" d="M415.233,170.518s-1.2,1.256.528,1.547,3.943.081,4.44-.349a5.263,5.263,0,0,0,.894-1.879l-.079-.433-6.158.306Z"/>
        <path id="路径_12352" data-name="路径 12352" class="cls-5" d="M400.621,165.471s-5.307.191-5.939,1.308c0,0-.572.4.461.61a12.05,12.05,0,0,0,3.274.052c.506-.1,1.461-1.069,2.37-1.066s1.263.035.632.876-2.161,1.825,1.178,2.518a57.035,57.035,0,0,0,12.636.749c4.577-.169,6.623-.819,7.86-1.3s-.339-1.849-.676-2.16-.84-.772-.84-.772-.489-.192.885-.126,7.591.182,8.593-.85c.553-.486.856-.9-1.6-.965a11.791,11.791,0,0,0-2.572.4,13.947,13.947,0,0,1-5.073.512c-2.4-.135-8.126-.81-8.126-.81l-10.647-.09Z"/>
        <ellipse id="椭圆_2382" data-name="椭圆 2382" class="cls-6" cx="7.724" cy="1.743" rx="7.724" ry="1.743" transform="translate(404.243 166.123)"/>
        <path id="路径_12353" data-name="路径 12353" class="cls-5" d="M393.218,155.96s-11.677-11.177,3.2-11.644c10.735,0,10.735,4.164,10.735,4.164l.941,6.545s6.215-.085,7.157-.085.188-10.454,11.488-10.624,10.169,2.252,10.358,2.762-6.4,8.5-7.91,8.882C427.681,156.47,398.114,157.362,393.218,155.96Z"/>
        <ellipse id="椭圆_2383" data-name="椭圆 2383" class="cls-5" cx="30.038" cy="5.237" rx="30.038" ry="5.237" transform="translate(382.483 154.962)"/>
        <ellipse id="椭圆_2384" data-name="椭圆 2384" class="cls-7" cx="5.394" cy="1.217" rx="5.394" ry="1.217" transform="translate(394.528 157.478)"/>
        <ellipse id="椭圆_2385" data-name="椭圆 2385" class="cls-8" cx="4.194" cy="0.946" rx="4.194" ry="0.946" transform="translate(396.319 157.999)"/>
        <ellipse id="椭圆_2386" data-name="椭圆 2386" class="cls-9" cx="1.662" cy="0.375" rx="1.662" ry="0.375" transform="translate(395.512 158.408)"/>
        <ellipse id="椭圆_2387" data-name="椭圆 2387" class="cls-7" cx="5.394" cy="1.217" rx="5.394" ry="1.217" transform="translate(418.407 157.478)"/>
        <ellipse id="椭圆_2388" data-name="椭圆 2388" class="cls-8" cx="4.194" cy="0.946" rx="4.194" ry="0.946" transform="translate(420.198 157.999)"/>
        <ellipse id="椭圆_2389" data-name="椭圆 2389" class="cls-9" cx="1.662" cy="0.375" rx="1.662" ry="0.375" transform="translate(419.391 158.408)"/>
        <path id="路径_12354" data-name="路径 12354" class="cls-10" d="M408.54,159.95s-1.892.071-1.461.385a10.187,10.187,0,0,0,3.352.98,14.312,14.312,0,0,0,3.08-.135,25.981,25.981,0,0,0,2.629-.814C416.109,160.238,416.83,159.718,408.54,159.95Z"/>
        <path id="路径_12355" data-name="路径 12355" class="cls-6" d="M418.406,155.258s2.625.02,8.193.5c.659,0,10.593-9.4,3.154-9.466s-7.156,1.955-7.439,2.7S418.453,155,418.406,155.258Z"/>
        <path id="路径_12356" data-name="路径 12356" class="cls-11" d="M405.317,155.309s-2.625,0-8.261.438c-.659,0-9.193-9.477-1.749-9.485s6.863,2.008,7.035,2.753S405.308,155.054,405.317,155.309Z"/>
        <path id="路径_12357" data-name="路径 12357" class="cls-13" d="M441.482,161.588a20.032,20.032,0,0,0-6.161-.779c-4,0-7.239.731-7.239,1.633,0,.733,2.136,1.353,5.08,1.56C437.088,163.354,440.009,162.524,441.482,161.588Z"/>
        <path id="路径_12358" data-name="路径 12358" class="cls-13" d="M388.273,160.809a24.328,24.328,0,0,0-5.132.482c1.235,1.015,4.155,1.921,8.229,2.626,2.446-.262,4.141-.823,4.141-1.475C395.511,161.54,392.27,160.809,388.273,160.809Z"/>
      </g>
    </g>
  </g>
</svg>
