<svg xmlns="http://www.w3.org/2000/svg" width="463.679" height="503.49" viewBox="0 0 463.679 503.49">
  <defs>
    <style>
      .cls-1 {
        fill: #feeed5;
      }

      .cls-2 {
        fill: #6ec1e5;
      }

      .cls-16, .cls-3, .cls-6 {
        fill: none;
      }

      .cls-3 {
        stroke: #fff;
        stroke-width: 2.75px;
      }

      .cls-3, .cls-6 {
        stroke-linecap: round;
        stroke-linejoin: round;
        stroke-dasharray: 16.501;
      }

      .cls-4 {
        fill: #80d1ed;
      }

      .cls-5 {
        fill: #54b2d3;
      }

      .cls-7 {
        fill: #e5e2e5;
      }

      .cls-8 {
        fill: #373737;
      }

      .cls-9 {
        fill: #38373a;
      }

      .cls-10 {
        fill: #fcb2a9;
      }

      .cls-11 {
        fill: #e3e1e4;
      }

      .cls-12, .cls-17 {
        fill: #fff;
      }

      .cls-13 {
        fill: #2b71b0;
      }

      .cls-14 {
        fill: #e7ffff;
      }

      .cls-15, .cls-17 {
        stroke: none;
      }
    </style>
  </defs>
  <g id="组_4667" data-name="组 4667" transform="translate(-194.52 -86.789)">
    <rect id="矩形_2220" data-name="矩形 2220" class="cls-1" width="463.679" height="503.49" rx="40.012" transform="translate(194.52 86.789)"/>
    <g id="组_4666" data-name="组 4666" transform="translate(-0.333 -0.334)">
      <rect id="矩形_2209" data-name="矩形 2209" class="cls-2" width="309.658" height="176.947" transform="translate(218.503 261.683)"/>
      <g id="矩形_2210" data-name="矩形 2210" class="cls-3" transform="translate(257.973 284.237)">
        <rect class="cls-15" width="230.719" height="131.839"/>
        <rect class="cls-16" x="-1.375" y="-1.375" width="233.469" height="134.589"/>
      </g>
      <path id="路径_12386" data-name="路径 12386" class="cls-4" d="M218.5,261.683l107.182-18.067H628.338L528.161,261.683Z"/>
      <path id="路径_12387" data-name="路径 12387" class="cls-5" d="M528.161,261.683V438.63l100.177-23.991V243.616Z"/>
      <g id="路径_12388" data-name="路径 12388" class="cls-6">
        <path class="cls-15" d="M542.242,284.014V411.22l72.016-17.247V271.026Z"/>
        <path class="cls-17" d="M 614.9451904296875 303.3406982421875 C 615.3248901367188 303.3406982421875 615.6326904296875 303.6485290527344 615.6326904296875 304.0282592773438 L 615.6326904296875 320.529296875 C 615.6326904296875 320.9089965820313 615.3248901367188 321.2168579101563 614.9451904296875 321.2168579101563 C 614.5654296875 321.2168579101563 614.2576293945313 320.9089965820313 614.2576293945313 320.529296875 L 614.2576293945313 304.0282592773438 C 614.2576293945313 303.6485290527344 614.5654296875 303.3406982421875 614.9451904296875 303.3406982421875 Z M 614.9451904296875 336.3428039550781 C 615.3248901367188 336.3428039550781 615.6326904296875 336.650634765625 615.6326904296875 337.0303344726563 L 615.6326904296875 353.5314025878906 C 615.6326904296875 353.9111328125 615.3248901367188 354.2189331054688 614.9451904296875 354.2189331054688 C 614.5654296875 354.2189331054688 614.2576293945313 353.9111328125 614.2576293945313 353.5314025878906 L 614.2576293945313 337.0303344726563 C 614.2576293945313 336.650634765625 614.5654296875 336.3428039550781 614.9451904296875 336.3428039550781 Z M 614.9451904296875 369.3449401855469 C 615.3248901367188 369.3449401855469 615.6326904296875 369.6527404785156 615.6326904296875 370.032470703125 L 615.6326904296875 386.5335388183594 C 615.6326904296875 386.9132385253906 615.3248901367188 387.2210693359375 614.9451904296875 387.2210693359375 C 614.5654296875 387.2210693359375 614.2576293945313 386.9132385253906 614.2576293945313 386.5335388183594 L 614.2576293945313 370.032470703125 C 614.2576293945313 369.6527404785156 614.5654296875 369.3449401855469 614.9451904296875 369.3449401855469 Z M 605.606201171875 396.0645751953125 C 605.9169311523438 396.0645751953125 606.19873046875 396.2766723632813 606.2742919921875 396.5921630859375 C 606.3627319335938 396.96142578125 606.135009765625 397.3324890136719 605.7657470703125 397.4209289550781 L 589.7184448242188 401.2640380859375 C 589.6646728515625 401.2769165039063 589.6107788085938 401.2830810546875 589.5578002929688 401.2830810546875 C 589.2470092773438 401.2830810546875 588.9652709960938 401.0709838867188 588.8897094726563 400.7554931640625 C 588.80126953125 400.38623046875 589.0289306640625 400.0151977539063 589.398193359375 399.9267578125 C 589.398193359375 399.9267578125 589.398193359375 399.9267578125 589.3982543945313 399.9267272949219 L 589.3982543945313 399.9267272949219 C 589.3982543945313 399.9267272949219 589.3982543945313 399.9267272949219 589.3982543945313 399.9267272949219 L 589.3983154296875 399.9267272949219 C 589.3983764648438 399.9267272949219 589.3984375 399.9266967773438 589.3984985351563 399.9266662597656 L 589.3986206054688 399.9266662597656 C 589.398681640625 399.9266357421875 589.398681640625 399.9266357421875 589.3987426757813 399.9266052246094 L 589.3988647460938 399.9265747070313 C 589.39892578125 399.9265747070313 589.3989868164063 399.9265747070313 589.3989868164063 399.9265747070313 L 589.3997802734375 399.9263916015625 C 589.39990234375 399.9263610839844 589.4000244140625 399.9263305664063 589.400146484375 399.9263000488281 L 589.40087890625 399.9261169433594 C 589.4010620117188 399.9260559082031 589.4013061523438 399.926025390625 589.4014892578125 399.9259643554688 L 589.4027099609375 399.9256591796875 C 589.4027709960938 399.9256591796875 589.4027709960938 399.9256591796875 589.40283203125 399.9256286621094 L 589.4036865234375 399.9254455566406 C 589.4037475585938 399.9254150390625 589.4037475585938 399.9254150390625 589.4037475585938 399.9254150390625 L 589.404541015625 399.9252319335938 C 589.4047241210938 399.9252014160156 589.4048461914063 399.9251708984375 589.405029296875 399.9251098632813 L 589.4070434570313 399.9246215820313 C 589.4071044921875 399.9246215820313 589.4071655273438 399.9245910644531 589.4072875976563 399.9245910644531 L 589.4097290039063 399.9240112304688 C 589.4098510742188 399.9239807128906 589.409912109375 399.9239501953125 589.4100341796875 399.9239196777344 L 589.4239501953125 399.9205932617188 C 589.4241333007813 399.9205322265625 589.42431640625 399.9205017089844 589.4244995117188 399.9204406738281 L 589.433349609375 399.9183349609375 C 589.4334106445313 399.9183044433594 589.4336547851563 399.9182434082031 589.4337768554688 399.9182434082031 L 589.4437255859375 399.9158325195313 C 589.444091796875 399.915771484375 589.4443969726563 399.9156799316406 589.4447631835938 399.9156188964844 L 589.4561157226563 399.9128723144531 C 589.456298828125 399.912841796875 589.4563598632813 399.912841796875 589.4564819335938 399.9128112792969 L 589.5001831054688 399.90234375 C 589.50048828125 399.9022521972656 589.500732421875 399.9021911621094 589.5010986328125 399.902099609375 L 589.5361938476563 399.8937072753906 C 589.5367431640625 399.8935852050781 589.5372314453125 399.8934631347656 589.5377197265625 399.8933410644531 L 589.5567626953125 399.8887939453125 C 589.5569458007813 399.8887329101563 589.5571899414063 399.888671875 589.5574340820313 399.8886108398438 L 589.56689453125 399.8863525390625 C 589.5673217773438 399.8862609863281 589.5676879882813 399.8861694335938 589.568115234375 399.8860473632813 L 589.5700073242188 399.8855895996094 C 589.5702514648438 399.8855590820313 589.5703735351563 399.8855285644531 589.570556640625 399.8854675292969 L 589.5723876953125 399.8850402832031 C 589.5728149414063 399.8849182128906 589.5731811523438 399.8848571777344 589.5736694335938 399.8847351074219 L 589.5751342773438 399.8843688964844 C 589.5770874023438 399.8839111328125 589.5790405273438 399.8834533691406 589.5809936523438 399.8829650878906 L 589.5833129882813 399.8824157714844 C 589.5836791992188 399.88232421875 589.5840454101563 399.8822631835938 589.5843505859375 399.8821716308594 L 589.5949096679688 399.879638671875 C 589.5952758789063 399.8795471191406 589.5955200195313 399.8794860839844 589.5958862304688 399.87939453125 L 589.5997924804688 399.8784790039063 C 589.6005249023438 399.8782958984375 589.6009521484375 399.8782043457031 589.6016845703125 399.8780212402344 L 589.61279296875 399.8753662109375 C 589.61279296875 399.8753662109375 589.6130981445313 399.8752746582031 589.6130981445313 399.8752746582031 L 589.6243896484375 399.8725891113281 C 589.624755859375 399.8724975585938 589.6250610351563 399.8724365234375 589.6254272460938 399.8723449707031 L 589.6764526367188 399.860107421875 C 589.6767578125 399.8600463867188 589.6768188476563 399.8600158691406 589.6771240234375 399.8599548339844 L 589.7936401367188 399.83203125 C 589.7944946289063 399.8318481445313 589.7955322265625 399.8316040039063 589.79638671875 399.8313903808594 L 589.8274536132813 399.8239440917969 C 589.8274536132813 399.8239440917969 589.8274536132813 399.8239440917969 589.8274536132813 399.8239440917969 L 589.8604736328125 399.8160400390625 C 589.8610229492188 399.81591796875 589.8615112304688 399.8157958984375 589.8619995117188 399.815673828125 L 589.8773803710938 399.81201171875 C 589.8781127929688 399.8118286132813 589.8787231445313 399.8116760253906 589.8794555664063 399.8114929199219 L 589.8955688476563 399.8076477050781 C 589.8959350585938 399.8075561523438 589.8961181640625 399.8074951171875 589.896484375 399.8074035644531 L 589.9130249023438 399.803466796875 C 589.9137573242188 399.8032836914063 589.9143676757813 399.8031311035156 589.9151611328125 399.8029479980469 L 589.9223022460938 399.8012390136719 C 589.9229125976563 399.8010864257813 589.9236450195313 399.8009033203125 589.9241943359375 399.80078125 L 589.9263305664063 399.8002624511719 C 589.9290161132813 399.7996215820313 589.9317016601563 399.7989807128906 589.9343872070313 399.79833984375 L 589.9500732421875 399.7945861816406 C 589.95068359375 399.79443359375 589.9508666992188 399.7944030761719 589.9514770507813 399.7942504882813 L 589.9686279296875 399.7901306152344 C 589.9690551757813 399.7900390625 589.969482421875 399.7899475097656 589.9698486328125 399.7898559570313 L 590.006103515625 399.7811584472656 C 590.0075073242188 399.7808227539063 590.0084838867188 399.7806091308594 590.0098876953125 399.7802734375 L 590.010498046875 399.7801208496094 C 590.0115356445313 399.7798767089844 590.0128173828125 399.7795715332031 590.0137939453125 399.7793273925781 L 590.017333984375 399.7784729003906 C 590.017333984375 399.7784729003906 590.0175170898438 399.7784423828125 590.0175170898438 399.7784423828125 L 590.0262451171875 399.7763366699219 C 590.0269165039063 399.7761840820313 590.0274658203125 399.7760620117188 590.028076171875 399.7759094238281 L 590.0321655273438 399.7749328613281 C 590.0321655273438 399.7749328613281 590.032470703125 399.7748413085938 590.032470703125 399.7748413085938 L 590.0355834960938 399.7741088867188 C 590.0415649414063 399.7726745605469 590.04736328125 399.7713012695313 590.0534057617188 399.7698364257813 L 590.0558471679688 399.7692565917969 C 590.0567016601563 399.76904296875 590.0574951171875 399.7688598632813 590.058349609375 399.7686462402344 L 590.0618896484375 399.767822265625 C 590.0623168945313 399.7677001953125 590.0621337890625 399.7677307128906 590.0625610351563 399.7676391601563 L 590.0662841796875 399.7667541503906 C 590.067138671875 399.7665405273438 590.067626953125 399.7664184570313 590.0684814453125 399.7662353515625 L 590.0719604492188 399.7654113769531 C 590.0728149414063 399.7651977539063 590.0733032226563 399.7650756835938 590.0741577148438 399.7648620605469 L 590.0751953125 399.7646179199219 C 590.0887451171875 399.7613830566406 590.1022338867188 399.7581481933594 590.1162109375 399.7547912597656 L 590.1163940429688 399.7547607421875 C 590.1181030273438 399.7543334960938 590.1195068359375 399.7539978027344 590.1212768554688 399.7535705566406 L 590.1220092773438 399.75341796875 C 590.123291015625 399.7530822753906 590.1246337890625 399.7527770996094 590.1259765625 399.7524719238281 L 590.1272583007813 399.7521667480469 C 590.1286010742188 399.7518310546875 590.1300659179688 399.75146484375 590.1314086914063 399.7511596679688 L 590.1337280273438 399.7506103515625 C 590.1342163085938 399.75048828125 590.1348876953125 399.7503356933594 590.1353149414063 399.7502136230469 L 590.1396484375 399.7491760253906 C 590.1400756835938 399.7490844726563 590.1400146484375 399.7490844726563 590.1405029296875 399.7489929199219 L 590.1500854492188 399.7466735839844 C 590.1507568359375 399.7465209960938 590.1512451171875 399.7463989257813 590.1519165039063 399.7462463378906 L 590.1552124023438 399.7454528808594 C 590.1556396484375 399.745361328125 590.1561889648438 399.7452392578125 590.1566162109375 399.7451171875 L 590.1605224609375 399.7441711425781 C 590.1610107421875 399.7440795898438 590.161865234375 399.7438659667969 590.162353515625 399.7437438964844 L 590.1659545898438 399.7428894042969 C 590.1668701171875 399.74267578125 590.1680908203125 399.7423706054688 590.1690063476563 399.7421569824219 L 590.1696166992188 399.7420043945313 C 590.171875 399.741455078125 590.17431640625 399.7408752441406 590.1765747070313 399.7403259277344 L 590.2155151367188 399.7310180664063 C 590.2160034179688 399.7308959960938 590.2162475585938 399.7308349609375 590.2166748046875 399.7307434082031 L 590.2592163085938 399.7205505371094 C 590.2604370117188 399.7202758789063 590.2621459960938 399.7198486328125 590.2633056640625 399.7195739746094 L 590.2722778320313 399.7174377441406 C 590.2722778320313 399.7174377441406 590.2725219726563 399.7173461914063 590.2725219726563 399.7173461914063 L 590.3067626953125 399.7091674804688 C 590.3067626953125 399.7091674804688 590.30712890625 399.7090759277344 590.30712890625 399.7090759277344 L 590.4019775390625 399.6863708496094 C 590.4019775390625 399.6863708496094 590.4022216796875 399.6863098144531 590.4022216796875 399.6863098144531 L 590.4484252929688 399.6752319335938 C 590.4507446289063 399.6746826171875 590.4534301757813 399.6740417480469 590.455810546875 399.6734619140625 L 590.4627075195313 399.6718139648438 C 590.4635009765625 399.671630859375 590.4644165039063 399.6714172363281 590.4652099609375 399.6712341308594 L 590.4752197265625 399.6688232421875 C 590.4760131835938 399.6686401367188 590.4771118164063 399.6683654785156 590.4779052734375 399.6681823730469 L 590.50048828125 399.6627502441406 C 590.5012817382813 399.6625671386719 590.5021362304688 399.6623840332031 590.5029296875 399.6622009277344 L 590.5502319335938 399.6508483886719 C 590.5513305664063 399.6506042480469 590.5521850585938 399.650390625 590.55322265625 399.650146484375 L 590.603515625 399.6380920410156 C 590.6040649414063 399.6379699707031 590.6046752929688 399.6378173828125 590.605224609375 399.6376953125 L 590.6298828125 399.6317749023438 C 590.6306762695313 399.631591796875 590.631591796875 399.6313781738281 590.6323852539063 399.6311645507813 L 590.6489868164063 399.627197265625 C 590.652587890625 399.6263427734375 590.6566162109375 399.6253662109375 590.6602783203125 399.62451171875 L 590.7638549804688 399.5997009277344 C 590.7676391601563 399.5987854003906 590.771728515625 399.5978088378906 590.7755126953125 399.5968933105469 L 590.7778930664063 399.5963439941406 C 590.7793579101563 399.5959777832031 590.7806396484375 399.5956726074219 590.7821044921875 399.5953369140625 L 590.7923583984375 399.5928649902344 C 590.7938232421875 399.592529296875 590.7952880859375 399.5921630859375 590.7967529296875 399.5918273925781 L 590.8070068359375 399.58935546875 C 590.8084716796875 399.5890197753906 590.8098754882813 399.5886840820313 590.8113403320313 399.5883178710938 L 590.8154907226563 399.5873413085938 C 590.8257446289063 399.5848693847656 590.8355712890625 399.58251953125 590.845947265625 399.5800476074219 L 590.8473510742188 399.5797119140625 C 590.8496704101563 399.5791320800781 590.8517456054688 399.5786437988281 590.8540649414063 399.5780944824219 L 590.8616333007813 399.5762939453125 C 590.864013671875 399.5757141113281 590.8656616210938 399.5753173828125 590.8680419921875 399.5747375488281 L 590.8694458007813 399.5744018554688 C 590.8780517578125 399.5723571777344 590.8868408203125 399.5702514648438 590.8955688476563 399.5681457519531 L 590.9066162109375 399.5654907226563 C 590.9072265625 399.5653686523438 590.9082641601563 399.5650939941406 590.9088745117188 399.5649719238281 L 590.934326171875 399.5588684082031 C 590.9358520507813 399.5585021972656 590.9375610351563 399.55810546875 590.9390869140625 399.5577392578125 L 590.9502563476563 399.5550537109375 C 590.9508666992188 399.5549011230469 590.951416015625 399.5547790527344 590.9520263671875 399.5546264648438 L 590.97998046875 399.5479431152344 C 590.9806518554688 399.5477905273438 590.9813842773438 399.547607421875 590.9819946289063 399.5474548339844 L 590.9893188476563 399.5456848144531 C 590.99365234375 399.544677734375 590.9981079101563 399.5435791015625 591.00244140625 399.5425720214844 L 591.0081176757813 399.5411987304688 C 591.0090942382813 399.5409851074219 591.0108032226563 399.5405578613281 591.01171875 399.5403442382813 L 591.0220336914063 399.5378723144531 C 591.024169921875 399.537353515625 591.0264892578125 399.5368041992188 591.0286254882813 399.5362854003906 L 591.0385131835938 399.5339050292969 C 591.0397338867188 399.5336303710938 591.041259765625 399.5332641601563 591.04248046875 399.532958984375 L 591.0482177734375 399.5315856933594 C 591.0538330078125 399.5302429199219 591.0595703125 399.5288696289063 591.0652465820313 399.5275268554688 L 591.0686645507813 399.5267028808594 C 591.069580078125 399.5264892578125 591.0701904296875 399.5263366699219 591.0711669921875 399.5260925292969 L 591.07763671875 399.5245361328125 C 591.0811157226563 399.5237121582031 591.0847778320313 399.5228271484375 591.0882568359375 399.5220031738281 L 591.0899047851563 399.5216064453125 C 591.091796875 399.5211486816406 591.0933837890625 399.5207824707031 591.0952758789063 399.5203247070313 L 591.098388671875 399.5195922851563 C 591.0993041992188 399.5193481445313 591.1006469726563 399.51904296875 591.1016235351563 399.518798828125 L 591.10791015625 399.5173034667969 C 591.1161499023438 399.5153198242188 591.1248168945313 399.5132446289063 591.1331176757813 399.5112609863281 L 591.1369018554688 399.5103454589844 C 591.1617431640625 399.50439453125 591.186279296875 399.49853515625 591.2115478515625 399.4924926757813 L 591.2138061523438 399.491943359375 C 591.2144775390625 399.4917907714844 591.21533203125 399.4915771484375 591.2160034179688 399.4914245605469 L 591.2217407226563 399.4900512695313 C 591.236328125 399.4865417480469 591.2503051757813 399.4831848144531 591.2650756835938 399.4796447753906 L 591.2670288085938 399.4791870117188 C 591.2703247070313 399.4783935546875 591.2741088867188 399.4775085449219 591.27734375 399.4767150878906 L 591.28369140625 399.4752197265625 C 591.28564453125 399.4747314453125 591.2868041992188 399.4744567871094 591.2887573242188 399.4739990234375 L 591.29150390625 399.4733276367188 C 591.2938232421875 399.4727783203125 591.2957153320313 399.4723205566406 591.2979736328125 399.4717712402344 L 591.2981567382813 399.4717407226563 C 591.3031005859375 399.4705505371094 591.3074951171875 399.469482421875 591.3125 399.4682922363281 L 591.3158569335938 399.4674987792969 C 591.3171997070313 399.4671936035156 591.3185424804688 399.4668579101563 591.3198852539063 399.466552734375 L 591.3299560546875 399.464111328125 C 591.3326416015625 399.4634704589844 591.3350219726563 399.4629211425781 591.337646484375 399.4622802734375 L 591.3380737304688 399.4621887207031 C 591.359375 399.4570617675781 591.3804321289063 399.4520263671875 591.4020385742188 399.4468688964844 L 591.4028930664063 399.4466552734375 C 591.4076538085938 399.4455261230469 591.4126586914063 399.4443054199219 591.4174194335938 399.4431762695313 L 591.4207763671875 399.4423522949219 C 591.42822265625 399.4405822753906 591.435302734375 399.4389038085938 591.4428100585938 399.4371032714844 L 591.44287109375 399.4370727539063 C 591.4452514648438 399.4365234375 591.4478149414063 399.4358825683594 591.4501953125 399.4353332519531 L 591.4530029296875 399.4346618652344 C 591.4573974609375 399.43359375 591.4617919921875 399.4325561523438 591.4662475585938 399.4314880371094 L 591.4768676757813 399.4289245605469 C 591.490234375 399.4257507324219 591.5028686523438 399.4226989746094 591.5162963867188 399.4194946289063 L 591.5173950195313 399.4192199707031 C 591.5277709960938 399.416748046875 591.5389404296875 399.4140930175781 591.54931640625 399.4115905761719 L 591.5508422851563 399.4112243652344 C 591.5945434570313 399.4007568359375 591.6390991210938 399.3900756835938 591.683837890625 399.3793640136719 L 591.6859130859375 399.3788757324219 C 591.6923217773438 399.3773498535156 591.6986083984375 399.3758239746094 591.7050170898438 399.3742980957031 L 591.712158203125 399.3725891113281 C 591.7135620117188 399.3722534179688 591.7156982421875 399.3717346191406 591.7171020507813 399.3713989257813 L 591.7235717773438 399.3698425292969 C 591.7274780273438 399.3689270019531 591.7314453125 399.3679809570313 591.7353515625 399.3670349121094 L 591.7457275390625 399.3645629882813 C 591.7597045898438 399.3612060546875 591.7733764648438 399.3579406738281 591.7874145507813 399.3545532226563 L 591.7880249023438 399.3544311523438 C 591.8915405273438 399.3296203613281 591.997802734375 399.30419921875 592.106201171875 399.2782287597656 L 592.1073608398438 399.2779541015625 C 592.1674194335938 399.2635498046875 592.2271118164063 399.249267578125 592.2886352539063 399.2345275878906 L 592.2920532226563 399.2337341308594 C 592.3159790039063 399.2279663085938 592.3399047851563 399.2222595214844 592.3640747070313 399.2164611816406 L 592.3672485351563 399.2156982421875 C 592.4254150390625 399.2017822265625 592.4843139648438 399.1876831054688 592.5436401367188 399.1734619140625 L 592.5457153320313 399.1729736328125 C 597.218505859375 398.0538940429688 605.4454956054688 396.0836486816406 605.4454956054688 396.0836486816406 C 605.4993286132813 396.0707702636719 605.55322265625 396.0645751953125 605.606201171875 396.0645751953125 Z M 573.5116577148438 403.7507934570313 C 573.8223876953125 403.7507934570313 574.1041259765625 403.962890625 574.1796875 404.2783508300781 C 574.2681274414063 404.6476135253906 574.0404663085938 405.0186767578125 573.6712036132813 405.1071166992188 L 557.6239013671875 408.9502258300781 C 557.570068359375 408.9631042480469 557.5162353515625 408.9692993164063 557.4631958007813 408.9692993164063 C 557.1524658203125 408.9692993164063 556.8706665039063 408.7572021484375 556.7951049804688 408.4417114257813 C 556.7066650390625 408.0724182128906 556.934326171875 407.7013854980469 557.3036499023438 407.6129455566406 C 557.3036499023438 407.6129455566406 573.3509521484375 403.7698364257813 573.3509521484375 403.7698364257813 C 573.40478515625 403.7569580078125 573.4586181640625 403.7507934570313 573.5116577148438 403.7507934570313 Z M 541.5541381835938 393.0182800292969 C 541.9338989257813 393.0182800292969 542.24169921875 393.3260803222656 542.24169921875 393.705810546875 C 542.24169921875 393.705810546875 542.24169921875 410.2068786621094 542.24169921875 410.2068786621094 C 542.24169921875 410.5865783691406 541.9338989257813 410.8944091796875 541.5541381835938 410.8944091796875 C 541.1744384765625 410.8944091796875 540.8666381835938 410.5865783691406 540.8666381835938 410.2068786621094 L 540.8666381835938 393.705810546875 C 540.8666381835938 393.3260803222656 541.1744384765625 393.0182800292969 541.5541381835938 393.0182800292969 Z M 541.5541381835938 360.0161437988281 C 541.9338989257813 360.0161437988281 542.24169921875 360.323974609375 542.24169921875 360.7036743164063 C 542.24169921875 360.7036743164063 542.24169921875 377.2047424316406 542.24169921875 377.2047424316406 C 542.24169921875 377.58447265625 541.9338989257813 377.8922729492188 541.5541381835938 377.8922729492188 C 541.1744384765625 377.8922729492188 540.8666381835938 377.58447265625 540.8666381835938 377.2047424316406 L 540.8666381835938 360.7036743164063 C 540.8666381835938 360.323974609375 541.1744384765625 360.0161437988281 541.5541381835938 360.0161437988281 Z M 541.5541381835938 327.0140380859375 C 541.9338989257813 327.0140380859375 542.24169921875 327.3218688964844 542.24169921875 327.7015991210938 C 542.24169921875 327.7015991210938 542.24169921875 344.20263671875 542.24169921875 344.20263671875 C 542.24169921875 344.5823669433594 541.9338989257813 344.8901977539063 541.5541381835938 344.8901977539063 C 541.1744384765625 344.8901977539063 540.8666381835938 344.5823669433594 540.8666381835938 344.20263671875 L 540.8666381835938 327.7015991210938 C 540.8666381835938 327.3218688964844 541.1744384765625 327.0140380859375 541.5541381835938 327.0140380859375 Z M 541.5541381835938 294.0119323730469 C 541.9338989257813 294.0119323730469 542.24169921875 294.3197326660156 542.24169921875 294.699462890625 C 542.24169921875 294.699462890625 542.24169921875 311.2005310058594 542.24169921875 311.2005310058594 C 542.24169921875 311.5802612304688 541.9338989257813 311.8880615234375 541.5541381835938 311.8880615234375 C 541.1744384765625 311.8880615234375 540.8666381835938 311.5802612304688 540.8666381835938 311.2005310058594 L 540.8666381835938 294.699462890625 C 540.8666381835938 294.3197326660156 541.1744384765625 294.0119323730469 541.5541381835938 294.0119323730469 Z M 564.0831298828125 278.6890563964844 C 564.409423828125 278.6890563964844 564.698974609375 278.9222412109375 564.7589721679688 279.2546997070313 C 564.8263549804688 279.6283569335938 564.5780639648438 279.9859619140625 564.204345703125 280.0533142089844 C 564.204345703125 280.0533142089844 556.8485717773438 281.3799743652344 552.038330078125 282.2474975585938 L 552.0344848632813 282.2481994628906 C 552.0327758789063 282.2485046386719 552.0303955078125 282.2489318847656 552.0286254882813 282.249267578125 L 552.0252685546875 282.2498474121094 C 552.0187377929688 282.2510375976563 552.0126953125 282.2521362304688 552.0061645507813 282.2532958984375 L 552.0045166015625 282.2536010742188 C 552.0027465820313 282.25390625 552.000244140625 282.2543640136719 551.9984741210938 282.2546997070313 L 551.9909057617188 282.2560424804688 C 551.9857177734375 282.2569885253906 551.9808349609375 282.2578735351563 551.9756469726563 282.2588195800781 L 551.9708862304688 282.2596740722656 C 551.9700317382813 282.2598266601563 551.96875 282.2600708007813 551.9678955078125 282.2602233886719 L 551.960205078125 282.2615966796875 C 551.9593505859375 282.2617492675781 551.958251953125 282.261962890625 551.9573974609375 282.2621154785156 L 551.9495239257813 282.2635192871094 C 551.9482421875 282.2637634277344 551.9474487304688 282.2638854980469 551.9461669921875 282.2641296386719 L 551.9404296875 282.2651672363281 C 551.938720703125 282.2654724121094 551.9375610351563 282.2656860351563 551.935791015625 282.2659912109375 L 551.919677734375 282.2689208984375 C 551.91748046875 282.269287109375 551.9157104492188 282.2696228027344 551.9135131835938 282.27001953125 L 551.9094848632813 282.270751953125 C 551.9073486328125 282.2711181640625 551.90478515625 282.2715759277344 551.9026489257813 282.27197265625 L 551.9013061523438 282.272216796875 C 551.8978271484375 282.2728576660156 551.8946533203125 282.2734069824219 551.8911743164063 282.2740478515625 L 551.8910522460938 282.2740783691406 C 551.8880004882813 282.2745971679688 551.8854370117188 282.2750854492188 551.8824462890625 282.2756042480469 L 551.8789672851563 282.2762451171875 C 551.8764038085938 282.2767028808594 551.8741455078125 282.2771301269531 551.87158203125 282.277587890625 L 551.8688354492188 282.278076171875 C 551.8662719726563 282.2785339355469 551.8643188476563 282.2789001464844 551.8616943359375 282.2793579101563 L 551.8588256835938 282.2798767089844 C 551.856689453125 282.2802734375 551.8543090820313 282.2807006835938 551.8521118164063 282.2810974121094 L 551.8467407226563 282.2820434570313 C 551.8450317382813 282.2823486328125 551.8444213867188 282.282470703125 551.8427124023438 282.2827758789063 L 551.8367919921875 282.2838439941406 C 551.8350830078125 282.2841491699219 551.8328857421875 282.2845458984375 551.8311767578125 282.2848510742188 L 551.825927734375 282.2857971191406 C 551.8250732421875 282.2859802246094 551.8231201171875 282.2863159179688 551.822265625 282.2864685058594 L 551.8173217773438 282.287353515625 C 551.8147583007813 282.287841796875 551.8126220703125 282.2882080078125 551.81005859375 282.2886657714844 L 551.8057250976563 282.2894592285156 C 551.804443359375 282.2897033691406 551.8034057617188 282.2898559570313 551.8021240234375 282.2901000976563 L 551.7935791015625 282.2916259765625 C 551.7931518554688 282.2917175292969 551.7928466796875 282.2917785644531 551.7924194335938 282.2918395996094 L 551.7744750976563 282.2951049804688 C 551.7736206054688 282.2952575683594 551.7717895507813 282.2955932617188 551.7709350585938 282.2957458496094 L 551.7537231445313 282.298828125 C 551.7529296875 282.2989807128906 551.7513427734375 282.2992553710938 551.75048828125 282.2994079589844 L 551.743408203125 282.3006896972656 C 551.7378540039063 282.3016967773438 551.7322998046875 282.3027038574219 551.726806640625 282.3036804199219 L 551.7254638671875 282.3039245605469 C 551.7237548828125 282.3042297363281 551.722412109375 282.3044738769531 551.720703125 282.3047790527344 L 547.9633178710938 282.9824523925781 C 547.9227294921875 282.9896545410156 547.88232421875 282.9931335449219 547.8424682617188 282.9931335449219 C 547.5161743164063 282.9931335449219 547.2265625 282.7599182128906 547.1666259765625 282.427490234375 C 547.0992431640625 282.0538024902344 547.3475341796875 281.6962280273438 547.7212524414063 281.6288146972656 L 563.9602661132813 278.7000732421875 C 564.0015258789063 278.6926574707031 564.0426025390625 278.6890563964844 564.0831298828125 278.6890563964844 Z M 596.561279296875 272.83154296875 C 596.8875732421875 272.83154296875 597.1771240234375 273.0647583007813 597.2371215820313 273.3971862792969 C 597.3042602539063 273.7698364257813 597.0575561523438 274.12646484375 596.6856079101563 274.1952819824219 L 584.3446655273438 276.4209899902344 C 584.3438110351563 276.421142578125 584.3432006835938 276.4212646484375 584.3423461914063 276.4214172363281 L 584.3344116210938 276.4228515625 C 584.3335571289063 276.4230041503906 584.3330078125 276.423095703125 584.3321533203125 276.4232482910156 L 584.322998046875 276.4248962402344 C 584.322998046875 276.4248962402344 584.322509765625 276.4249877929688 584.322509765625 276.4249877929688 L 584.3131103515625 276.4266967773438 C 584.312255859375 276.4268493652344 584.3123779296875 276.4268188476563 584.3115234375 276.4269714355469 L 584.2931518554688 276.4302673339844 C 584.2922973632813 276.4304504394531 584.2913208007813 276.4306030273438 584.2904663085938 276.4307556152344 L 584.2725219726563 276.4340209960938 C 584.271240234375 276.4342346191406 584.2700805664063 276.4344482421875 584.268798828125 276.4346618652344 L 584.2623291015625 276.4358520507813 C 584.261474609375 276.4360046386719 584.2608032226563 276.4361267089844 584.2599487304688 276.436279296875 L 584.254150390625 276.4373168945313 C 584.2520141601563 276.4377136230469 584.2498168945313 276.4381103515625 584.2476806640625 276.4384765625 L 584.2437744140625 276.4391784667969 C 584.22412109375 276.4427185058594 584.2049560546875 276.4461975097656 584.1854248046875 276.44970703125 L 584.1826171875 276.4502258300781 C 584.1771240234375 276.4512023925781 584.1717529296875 276.4521789550781 584.166259765625 276.4531555175781 L 584.15234375 276.4556884765625 C 584.150634765625 276.4559936523438 584.1488647460938 276.456298828125 584.147216796875 276.4566040039063 L 584.1398315429688 276.4579467773438 C 584.1322021484375 276.4593200683594 584.1251220703125 276.4606018066406 584.1174926757813 276.4619750976563 L 584.1096801757813 276.46337890625 C 584.10498046875 276.4642028808594 584.0996704101563 276.4651794433594 584.0950317382813 276.4660034179688 L 584.0921020507813 276.466552734375 C 584.086181640625 276.4676208496094 584.0797729492188 276.46875 584.0739135742188 276.4698181152344 L 584.0707397460938 276.4703979492188 C 584.0682373046875 276.4708557128906 584.0659790039063 276.4712524414063 584.0634765625 276.4717102050781 L 584.0612182617188 276.4721069335938 C 581.9575805664063 276.8515014648438 580.4434204101563 277.1245727539063 580.4434204101563 277.1245727539063 C 580.4021606445313 277.1320190429688 580.361083984375 277.1356201171875 580.320556640625 277.1356201171875 C 579.9943237304688 277.1356201171875 579.7047119140625 276.9024353027344 579.644775390625 276.5699768066406 C 579.577392578125 276.1963195800781 579.82568359375 275.8387145996094 580.1993408203125 275.7713317871094 L 596.4384155273438 272.8425903320313 C 596.4796752929688 272.8351440429688 596.520751953125 272.83154296875 596.561279296875 272.83154296875 Z M 614.1364135742188 269.6618347167969 C 614.4627075195313 269.6618347167969 614.7522583007813 269.89501953125 614.812255859375 270.2274780273438 C 614.8196411132813 270.2684020996094 614.8232421875 270.3091735839844 614.8232421875 270.349365234375 C 614.8628540039063 270.34228515625 614.903564453125 270.3385925292969 614.9451904296875 270.3385925292969 C 615.3248901367188 270.3385925292969 615.6326904296875 270.6463928222656 615.6326904296875 271.026123046875 L 615.6326904296875 287.5271911621094 C 615.6326904296875 287.9069213867188 615.3248901367188 288.2147216796875 614.9451904296875 288.2147216796875 C 614.5654296875 288.2147216796875 614.2576293945313 287.9069213867188 614.2576293945313 287.5271911621094 L 614.2576293945313 271.026123046875 L 614.2576293945313 271.026123046875 C 614.2576293945313 271.026123046875 614.2576293945313 271.026123046875 614.2576293945313 271.026123046875 C 614.2576293945313 271.026123046875 614.2576293945313 271.026123046875 614.2576293945313 271.026123046875 C 614.2576293945313 271.026123046875 614.2576293945313 271.026123046875 614.2576293945313 271.026123046875 C 614.2576293945313 271.026123046875 614.2576293945313 271.026123046875 614.2576293945313 271.026123046875 L 614.2537841796875 271.0268249511719 C 614.2537841796875 271.0268249511719 614.2537841796875 271.0268249511719 614.2537231445313 271.0268249511719 L 614.2427978515625 271.02880859375 C 614.2426147460938 271.0288391113281 614.242431640625 271.0288696289063 614.2423095703125 271.0289001464844 L 614.2407836914063 271.0291748046875 C 614.2407836914063 271.0291748046875 614.24072265625 271.0291748046875 614.24072265625 271.0291748046875 L 614.2259521484375 271.0318298339844 C 614.2257690429688 271.0318603515625 614.2255859375 271.0318908691406 614.2254028320313 271.0319519042969 L 614.2252197265625 271.031982421875 C 614.224853515625 271.0320434570313 614.2244262695313 271.0321044921875 614.2240600585938 271.0321960449219 L 614.2136840820313 271.0340576171875 C 614.2133178710938 271.0341186523438 614.2130126953125 271.0341796875 614.212646484375 271.0342407226563 L 614.2120361328125 271.0343322753906 C 614.2117919921875 271.0343933105469 614.2115478515625 271.0344543457031 614.2113037109375 271.0344848632813 L 614.2105102539063 271.0346374511719 C 614.2099609375 271.0347290039063 614.2093505859375 271.0348205566406 614.2088012695313 271.0349426269531 L 614.2073974609375 271.0351867675781 C 614.20703125 271.0352478027344 614.2066650390625 271.0353088378906 614.206298828125 271.035400390625 L 614.2056274414063 271.0354919433594 C 614.205322265625 271.0355529785156 614.205078125 271.0356140136719 614.2047729492188 271.0356750488281 L 614.2042846679688 271.0357360839844 C 614.2010498046875 271.0363159179688 614.19775390625 271.0369262695313 614.1942138671875 271.0375671386719 L 614.1940307617188 271.03759765625 C 613.9284057617188 271.0855102539063 612.9215698242188 271.26708984375 612.9215698242188 271.26708984375 C 612.8803100585938 271.2745361328125 612.8392333984375 271.2781372070313 612.7987060546875 271.2781372070313 C 612.472412109375 271.2781372070313 612.182861328125 271.044921875 612.1228637695313 270.7124938964844 C 612.0554809570313 270.3388061523438 612.3037719726563 269.9812316894531 612.677490234375 269.913818359375 L 614.0135498046875 269.6728820800781 C 614.0548095703125 269.6654357910156 614.0958862304688 269.6618347167969 614.1364135742188 269.6618347167969 Z"/>
      </g>
      <g id="路径_12389" data-name="路径 12389" class="cls-6">
        <path class="cls-15" d="M281.655,258.244l50.119-8.681H569.81l-48.45,8.681Z"/>
        <path class="cls-17" d="M 521.360595703125 258.93115234375 L 504.8595275878906 258.93115234375 C 504.669677734375 258.93115234375 504.5157775878906 258.7772827148438 504.5157775878906 258.58740234375 C 504.5157775878906 258.3975524902344 504.669677734375 258.2436218261719 504.8595275878906 258.2436218261719 C 504.8595275878906 258.2436218261719 521.360595703125 258.2436218261719 521.360595703125 258.2436218261719 C 521.4050903320313 258.2436218261719 521.4476318359375 258.2521057128906 521.4866943359375 258.2674865722656 C 521.5306396484375 258.23046875 521.58447265625 258.2039794921875 521.6448974609375 258.1926879882813 L 537.8909301757813 255.2819366455078 C 537.9110107421875 255.2783966064453 537.9310913085938 255.2766876220703 537.9508056640625 255.2766876220703 C 538.1141357421875 255.2766876220703 538.2589721679688 255.3935089111328 538.288818359375 255.5598754882813 C 538.322265625 255.7467651367188 538.1979370117188 255.9254150390625 538.0110473632813 255.9589080810547 L 521.7686157226563 258.8690185546875 C 521.7481689453125 258.8726806640625 521.7277221679688 258.8744506835938 521.7076416015625 258.8744506835938 C 521.6637573242188 258.8744506835938 521.6212158203125 258.8660278320313 521.5819091796875 258.8504943847656 C 521.5220947265625 258.9008178710938 521.4448852539063 258.93115234375 521.360595703125 258.93115234375 Z M 488.3584899902344 258.93115234375 L 471.857421875 258.93115234375 C 471.6675720214844 258.93115234375 471.513671875 258.7772827148438 471.513671875 258.58740234375 C 471.513671875 258.3975524902344 471.6675720214844 258.2436218261719 471.857421875 258.2436218261719 C 471.857421875 258.2436218261719 488.3584899902344 258.2436218261719 488.3584899902344 258.2436218261719 C 488.54833984375 258.2436218261719 488.7022399902344 258.3975524902344 488.7022399902344 258.58740234375 C 488.7022399902344 258.7772827148438 488.54833984375 258.93115234375 488.3584899902344 258.93115234375 Z M 455.3563842773438 258.93115234375 L 438.8553161621094 258.93115234375 C 438.6654663085938 258.93115234375 438.5115356445313 258.7772827148438 438.5115356445313 258.58740234375 C 438.5115356445313 258.3975524902344 438.6654663085938 258.2436218261719 438.8553161621094 258.2436218261719 C 438.8553161621094 258.2436218261719 455.3563842773438 258.2436218261719 455.3563842773438 258.2436218261719 C 455.5462341308594 258.2436218261719 455.7001342773438 258.3975524902344 455.7001342773438 258.58740234375 C 455.7001342773438 258.7772827148438 455.5462341308594 258.93115234375 455.3563842773438 258.93115234375 Z M 422.354248046875 258.93115234375 L 405.8532104492188 258.93115234375 C 405.6633605957031 258.93115234375 405.5094299316406 258.7772827148438 405.5094299316406 258.58740234375 C 405.5094299316406 258.3975524902344 405.6633605957031 258.2436218261719 405.8532104492188 258.2436218261719 C 405.8532104492188 258.2436218261719 422.354248046875 258.2436218261719 422.354248046875 258.2436218261719 C 422.5441284179688 258.2436218261719 422.6980285644531 258.3975524902344 422.6980285644531 258.58740234375 C 422.6980285644531 258.7772827148438 422.5441284179688 258.93115234375 422.354248046875 258.93115234375 Z M 389.3521423339844 258.93115234375 L 372.8511047363281 258.93115234375 C 372.6612548828125 258.93115234375 372.50732421875 258.7772827148438 372.50732421875 258.58740234375 C 372.50732421875 258.3975524902344 372.6612548828125 258.2436218261719 372.8511047363281 258.2436218261719 C 372.8511047363281 258.2436218261719 389.3521423339844 258.2436218261719 389.3521423339844 258.2436218261719 C 389.5419921875 258.2436218261719 389.6959228515625 258.3975524902344 389.6959228515625 258.58740234375 C 389.6959228515625 258.7772827148438 389.5419921875 258.93115234375 389.3521423339844 258.93115234375 Z M 356.3500366210938 258.93115234375 L 339.8489685058594 258.93115234375 C 339.6590881347656 258.93115234375 339.5052185058594 258.7772827148438 339.5052185058594 258.58740234375 C 339.5052185058594 258.3975524902344 339.6590881347656 258.2436218261719 339.8489685058594 258.2436218261719 C 339.8489685058594 258.2436218261719 356.3500366210938 258.2436218261719 356.3500366210938 258.2436218261719 C 356.5398864746094 258.2436218261719 356.6938171386719 258.3975524902344 356.6938171386719 258.58740234375 C 356.6938171386719 258.7772827148438 356.5398864746094 258.93115234375 356.3500366210938 258.93115234375 Z M 323.3479309082031 258.93115234375 L 306.8468627929688 258.93115234375 C 306.656982421875 258.93115234375 306.5031127929688 258.7772827148438 306.5031127929688 258.58740234375 C 306.5031127929688 258.3975524902344 306.656982421875 258.2436218261719 306.8468627929688 258.2436218261719 C 306.8468627929688 258.2436218261719 323.3479309082031 258.2436218261719 323.3479309082031 258.2436218261719 C 323.5377807617188 258.2436218261719 323.6916809082031 258.3975524902344 323.6916809082031 258.58740234375 C 323.6916809082031 258.7772827148438 323.5377807617188 258.93115234375 323.3479309082031 258.93115234375 Z M 290.3458251953125 258.93115234375 L 281.6551818847656 258.93115234375 C 281.2982788085938 258.93115234375 281.0007019042969 258.6580810546875 280.9701843261719 258.3025207519531 C 280.9396057128906 257.9468994140625 281.1861572265625 257.6271057128906 281.537841796875 257.566162109375 L 289.2336730957031 256.2332458496094 C 289.2535095214844 256.2297973632813 289.2732543945313 256.2281494140625 289.292724609375 256.2281494140625 C 289.4568786621094 256.2281494140625 289.6021118164063 256.3460693359375 289.6310729980469 256.5133056640625 C 289.6634216308594 256.7000122070313 289.5386047363281 256.8775939941406 289.3521423339844 256.9104919433594 L 282.7457580566406 258.0547485351563 C 282.7457580566406 258.0547485351563 282.7453002929688 258.0548095703125 282.7453002929688 258.0548095703125 L 282.6239929199219 258.0758361816406 C 282.6212463378906 258.0762939453125 282.618408203125 258.0767822265625 282.6156616210938 258.0772705078125 L 282.6037292480469 258.079345703125 C 282.6033935546875 258.0793762207031 282.6029052734375 258.0794677734375 282.6025695800781 258.0795288085938 L 282.5809631347656 258.0832824707031 C 282.5795288085938 258.0835266113281 282.5780639648438 258.0837707519531 282.5766296386719 258.0840148925781 L 282.5743103027344 258.0844421386719 C 282.5732116699219 258.0846252441406 282.5722045898438 258.0848083496094 282.5710754394531 258.0849914550781 L 282.5592346191406 258.0870361328125 C 282.5582885742188 258.0872192382813 282.5573425292969 258.0873718261719 282.556396484375 258.0875244140625 L 282.5499267578125 258.0886535644531 C 282.548828125 258.0888366699219 282.5473327636719 258.089111328125 282.5462341308594 258.0892944335938 L 282.530029296875 258.0921020507813 C 282.5228576660156 258.0933532714844 282.5155639648438 258.0946044921875 282.5084533691406 258.0958251953125 L 282.5078125 258.095947265625 C 282.5030517578125 258.0967712402344 282.4983825683594 258.0975952148438 282.49365234375 258.098388671875 L 282.4932556152344 258.0984802246094 C 282.4892883300781 258.0991516113281 282.4855651855469 258.0997924804688 282.4816284179688 258.1004943847656 L 282.4754028320313 258.1015625 C 282.4747924804688 258.1016540527344 282.4743957519531 258.1017456054688 282.4737854003906 258.1018371582031 L 282.4698791503906 258.1025085449219 C 282.4691162109375 258.1026611328125 282.4679565429688 258.1028442382813 282.4672241210938 258.1029663085938 L 282.4180297851563 258.1114807128906 C 282.4151000976563 258.1119995117188 282.4123229980469 258.1124877929688 282.4093933105469 258.1130065917969 L 282.404541015625 258.1138305664063 C 282.4039611816406 258.1139221191406 282.4032592773438 258.1140441894531 282.4026794433594 258.1141662597656 L 282.3846740722656 258.1172790527344 C 282.3832397460938 258.1175231933594 282.382080078125 258.1177368164063 282.380615234375 258.1179809570313 L 282.3619995117188 258.1212158203125 C 282.3619995117188 258.1212158203125 282.3617858886719 258.1212463378906 282.3617858886719 258.1212463378906 L 282.3433532714844 258.1244201660156 C 282.3424987792969 258.1245727539063 282.3414306640625 258.124755859375 282.340576171875 258.1249084472656 L 282.3359069824219 258.125732421875 C 282.3345031738281 258.1259765625 282.3331604003906 258.1261901855469 282.3317565917969 258.1264343261719 L 282.3312072753906 258.1265258789063 C 282.3253173828125 258.1275634765625 282.3195190429688 258.1285705566406 282.3136901855469 258.1295776367188 L 282.3089599609375 258.1304016113281 C 282.296630859375 258.1325378417969 282.284423828125 258.1346435546875 282.2723999023438 258.13671875 L 282.271240234375 258.1369323730469 C 282.2696228027344 258.13720703125 282.2678833007813 258.1375122070313 282.2662658691406 258.1377868652344 L 282.2651062011719 258.1380004882813 C 282.2636108398438 258.1382446289063 282.2621459960938 258.1384887695313 282.2606811523438 258.1387634277344 L 282.2501831054688 258.1405639648438 C 282.2491455078125 258.1407470703125 282.2481994628906 258.1408996582031 282.2471313476563 258.1410827636719 L 282.2460021972656 258.1412963867188 C 282.2424011230469 258.1419067382813 282.2387390136719 258.1425476074219 282.2351989746094 258.1431579589844 L 282.2320556640625 258.1437072753906 C 282.2244567871094 258.14501953125 282.2170104980469 258.1463012695313 282.2095336914063 258.1476135253906 L 282.2076416015625 258.14794921875 C 282.1920471191406 258.150634765625 282.1767272949219 258.1532897949219 282.1617126464844 258.1558837890625 L 282.1582946777344 258.156494140625 C 282.1277465820313 258.1617736816406 282.0982666015625 258.1668701171875 282.0701904296875 258.1717529296875 L 282.0668029785156 258.1723327636719 C 282.0404052734375 258.1769104003906 282.0151062011719 258.1812744140625 281.9909973144531 258.1854553222656 L 281.9891052246094 258.185791015625 C 281.9888000488281 258.1858520507813 281.9885559082031 258.1858825683594 281.9882507324219 258.1859436035156 L 281.9789733886719 258.1875305175781 C 281.9783630371094 258.1876525878906 281.9778747558594 258.187744140625 281.9772644042969 258.1878356933594 L 281.9757385253906 258.1881103515625 C 281.9742126464844 258.1883544921875 281.9728088378906 258.1885986328125 281.9712829589844 258.1888732910156 L 281.9709777832031 258.1889343261719 C 281.8729858398438 258.2059020996094 281.7955017089844 258.2193298339844 281.7418212890625 258.2286071777344 L 281.7415161132813 258.2286682128906 C 281.6851501464844 258.2384338378906 281.6551818847656 258.2436218261719 281.6551818847656 258.2436218261719 L 281.6551818847656 258.2436218261719 L 281.6551818847656 258.2436218261719 C 281.6551818847656 258.2436218261719 281.6551818847656 258.2436218261719 281.6551818847656 258.2436218261719 C 281.6551818847656 258.2436218261719 290.3458251953125 258.2436218261719 290.3458251953125 258.2436218261719 C 290.5356750488281 258.2436218261719 290.6895751953125 258.3975524902344 290.6895751953125 258.58740234375 C 290.6895751953125 258.7772827148438 290.5356750488281 258.93115234375 290.3458251953125 258.93115234375 Z M 305.5509338378906 254.0997161865234 C 305.3868103027344 254.0997161865234 305.2415466308594 253.9817962646484 305.2125854492188 253.8145599365234 C 305.1802062988281 253.6274871826172 305.3056030273438 253.4495544433594 305.49267578125 253.4171600341797 L 321.7516479492188 250.6010894775391 C 321.771484375 250.59765625 321.7912292480469 250.5959930419922 321.8107299804688 250.5959930419922 C 321.974853515625 250.5959930419922 322.1200866699219 250.7138977050781 322.1490783691406 250.8811645507813 C 322.1813049316406 251.0673065185547 322.0573120117188 251.2443695068359 321.8717651367188 251.2780609130859 L 305.6082153320313 254.0949249267578 C 305.5889892578125 254.0981597900391 305.56982421875 254.0997161865234 305.5509338378906 254.0997161865234 Z M 354.7236328125 249.56298828125 L 338.2225646972656 249.56298828125 C 338.03271484375 249.56298828125 337.8788146972656 249.4090576171875 337.8788146972656 249.2191925048828 C 337.8788146972656 249.0293426513672 338.03271484375 248.8754425048828 338.2225646972656 248.8754425048828 L 354.7236328125 248.8754425048828 C 354.9134826660156 248.8754425048828 355.0673828125 249.0293426513672 355.0673828125 249.2191925048828 C 355.0673828125 249.4090576171875 354.9134826660156 249.56298828125 354.7236328125 249.56298828125 Z M 387.7257385253906 249.56298828125 L 371.2246704101563 249.56298828125 C 371.0348205566406 249.56298828125 370.8809204101563 249.4090576171875 370.8809204101563 249.2191925048828 C 370.8809204101563 249.0293426513672 371.0348205566406 248.8754425048828 371.2246704101563 248.8754425048828 L 387.7257385253906 248.8754425048828 C 387.9155883789063 248.8754425048828 388.0695190429688 249.0293426513672 388.0695190429688 249.2191925048828 C 388.0695190429688 249.4090576171875 387.9155883789063 249.56298828125 387.7257385253906 249.56298828125 Z M 420.7278442382813 249.56298828125 L 404.226806640625 249.56298828125 C 404.0369567871094 249.56298828125 403.8830261230469 249.4090576171875 403.8830261230469 249.2191925048828 C 403.8830261230469 249.0293426513672 404.0369567871094 248.8754425048828 404.226806640625 248.8754425048828 L 420.7278442382813 248.8754425048828 C 420.9176940917969 248.8754425048828 421.0716247558594 249.0293426513672 421.0716247558594 249.2191925048828 C 421.0716247558594 249.4090576171875 420.9176940917969 249.56298828125 420.7278442382813 249.56298828125 Z M 453.7299499511719 249.56298828125 L 437.2289123535156 249.56298828125 C 437.0390625 249.56298828125 436.8851318359375 249.4090576171875 436.8851318359375 249.2191925048828 C 436.8851318359375 249.0293426513672 437.0390625 248.8754425048828 437.2289123535156 248.8754425048828 L 453.7299499511719 248.8754425048828 C 453.9197998046875 248.8754425048828 454.07373046875 249.0293426513672 454.07373046875 249.2191925048828 C 454.07373046875 249.4090576171875 453.9197998046875 249.56298828125 453.7299499511719 249.56298828125 Z M 486.7320861816406 249.56298828125 L 470.2310180664063 249.56298828125 C 470.0411682128906 249.56298828125 469.8872375488281 249.4090576171875 469.8872375488281 249.2191925048828 C 469.8872375488281 249.0293426513672 470.0411682128906 248.8754425048828 470.2310180664063 248.8754425048828 L 486.7320861816406 248.8754425048828 C 486.9219665527344 248.8754425048828 487.0758361816406 249.0293426513672 487.0758361816406 249.2191925048828 C 487.0758361816406 249.4090576171875 486.9219665527344 249.56298828125 486.7320861816406 249.56298828125 Z M 519.7341918945313 249.56298828125 L 503.2331237792969 249.56298828125 C 503.0432739257813 249.56298828125 502.8893737792969 249.4090576171875 502.8893737792969 249.2191925048828 C 502.8893737792969 249.0293426513672 503.0432739257813 248.8754425048828 503.2331237792969 248.8754425048828 L 519.7341918945313 248.8754425048828 C 519.924072265625 248.8754425048828 520.0779418945313 249.0293426513672 520.0779418945313 249.2191925048828 C 520.0779418945313 249.4090576171875 519.924072265625 249.56298828125 519.7341918945313 249.56298828125 Z M 552.736328125 249.56298828125 L 536.2352294921875 249.56298828125 C 536.04541015625 249.56298828125 535.8914794921875 249.4090576171875 535.8914794921875 249.2191925048828 C 535.8914794921875 249.0293426513672 536.04541015625 248.8754425048828 536.2352294921875 248.8754425048828 L 552.736328125 248.8754425048828 C 552.9261474609375 248.8754425048828 553.080078125 249.0293426513672 553.080078125 249.2191925048828 C 553.080078125 249.4090576171875 552.9261474609375 249.56298828125 552.736328125 249.56298828125 Z M 554.1924438476563 253.0542449951172 C 554.0291748046875 253.0542449951172 553.88427734375 252.9374237060547 553.8544311523438 252.7710266113281 C 553.821044921875 252.5843963623047 553.9450073242188 252.4059753417969 554.1314697265625 252.3721466064453 L 566.2802734375 250.1954803466797 C 566.281494140625 250.1952667236328 566.2816162109375 250.1952514648438 566.2828369140625 250.1950225830078 L 566.6435546875 250.1303863525391 C 566.6530151367188 250.1287078857422 566.6620483398438 250.1270751953125 566.6714477539063 250.1253967285156 L 566.6774291992188 250.1243286132813 C 566.6824951171875 250.1234130859375 566.6876831054688 250.1224975585938 566.6927490234375 250.12158203125 L 566.6962890625 250.1209411621094 C 566.7001953125 250.1202545166016 566.7039184570313 250.1195831298828 566.7078247070313 250.1188812255859 L 566.7565307617188 250.1101531982422 C 566.7584838867188 250.1098022460938 566.7603759765625 250.1094665527344 566.7623291015625 250.1091156005859 L 566.9061279296875 250.0833435058594 C 566.9069213867188 250.0832061767578 566.90771484375 250.0830688476563 566.908447265625 250.0829315185547 L 566.9591064453125 250.0738677978516 C 566.9617309570313 250.0733795166016 566.963623046875 250.0730438232422 566.96630859375 250.0725708007813 L 566.97607421875 250.0708312988281 C 566.980224609375 250.0700836181641 566.9838256835938 250.0694274902344 566.9879760742188 250.0686798095703 L 567.0146484375 250.0639038085938 C 567.0165405273438 250.0635681152344 567.0183715820313 250.0632476806641 567.020263671875 250.0629119873047 L 567.0313720703125 250.0609130859375 C 567.033203125 250.0605773925781 567.0344848632813 250.0603485107422 567.036376953125 250.0600128173828 L 567.06591796875 250.0547180175781 C 567.0678100585938 250.0543823242188 567.0693359375 250.0541076660156 567.0712280273438 250.0537719726563 L 567.105224609375 250.0476684570313 C 567.1071166992188 250.0473480224609 567.1093139648438 250.0469360351563 567.1112060546875 250.0466156005859 L 567.1165161132813 250.045654296875 C 567.122802734375 250.0445251464844 567.1290893554688 250.0434112548828 567.1353759765625 250.0422821044922 L 567.155517578125 250.0386657714844 C 567.1636352539063 250.0372161865234 567.1712036132813 250.0358581542969 567.1793212890625 250.0344085693359 L 567.1932373046875 250.0319061279297 C 567.1947021484375 250.0316467285156 567.1961669921875 250.0313873291016 567.1976318359375 250.0311279296875 L 567.245361328125 250.0225677490234 C 567.246826171875 250.0223083496094 567.2490234375 250.0219116210938 567.25048828125 250.0216522216797 L 567.402587890625 249.9944000244141 C 567.4032592773438 249.9942779541016 567.4044189453125 249.9940643310547 567.4051513671875 249.9939422607422 L 567.4470825195313 249.9864349365234 C 567.45166015625 249.9856109619141 567.4570922851563 249.9846343994141 567.461669921875 249.9838104248047 L 567.4642333984375 249.9833526611328 C 567.4691772460938 249.9824676513672 567.4741821289063 249.9815826416016 567.4790649414063 249.9806976318359 L 567.5134887695313 249.9745330810547 C 567.5177001953125 249.9737854003906 567.5224609375 249.9729156494141 567.5266723632813 249.97216796875 L 567.5692138671875 249.9645385742188 C 567.5779418945313 249.9629821777344 567.5862426757813 249.9615020751953 567.5948486328125 249.9599456787109 L 567.600830078125 249.9588775634766 C 567.6056518554688 249.9580230712891 567.6099853515625 249.9572448730469 567.6148071289063 249.9563751220703 L 567.638671875 249.9521026611328 C 567.6455078125 249.9508819580078 567.652099609375 249.94970703125 567.6588745117188 249.9484710693359 L 567.6652221679688 249.9473571777344 C 567.67236328125 249.9460601806641 567.6798706054688 249.9447174072266 567.68701171875 249.9434356689453 L 567.7357788085938 249.9347076416016 C 567.7408447265625 249.9337921142578 567.7462158203125 249.9328460693359 567.751220703125 249.9319305419922 L 567.7791748046875 249.9269256591797 C 567.787841796875 249.9253692626953 567.7967529296875 249.9237823486328 567.805419921875 249.9222259521484 L 567.8128662109375 249.9208831787109 C 567.8158569335938 249.9203491210938 567.8184814453125 249.9198913574219 567.8214721679688 249.9193572998047 L 567.82861328125 249.9180603027344 C 567.8362426757813 249.9167022705078 567.8436279296875 249.9153900146484 567.8511962890625 249.9140319824219 L 567.8632202148438 249.9118804931641 C 567.864501953125 249.9116363525391 567.8665161132813 249.9112854003906 567.8678588867188 249.9110412597656 L 567.908203125 249.90380859375 C 567.9107666015625 249.9033508300781 567.9133911132813 249.9028778076172 567.916015625 249.9024200439453 L 567.9210815429688 249.9015045166016 C 567.9305419921875 249.8998107910156 567.9402465820313 249.8980712890625 567.9496459960938 249.8963928222656 L 567.950927734375 249.8961486816406 C 567.9706420898438 249.8926239013672 567.9910278320313 249.8889770507813 568.0104370117188 249.885498046875 L 568.0140380859375 249.8848571777344 C 568.134033203125 249.8633422851563 568.2490844726563 249.8427429199219 568.359130859375 249.8230133056641 L 568.3674926757813 249.8215179443359 C 568.4219360351563 249.811767578125 568.47509765625 249.80224609375 568.5269775390625 249.7929534912109 L 568.5279541015625 249.7927703857422 C 568.541015625 249.7904357910156 568.5542602539063 249.7880554199219 568.5670776367188 249.7857513427734 L 568.5671997070313 249.7857360839844 C 568.57080078125 249.7850952148438 568.57421875 249.7844848632813 568.5777587890625 249.7838439941406 L 568.5819091796875 249.7830963134766 C 568.590087890625 249.7816467285156 568.5980834960938 249.7802124023438 568.6061401367188 249.7787628173828 L 568.6064453125 249.7787017822266 C 568.6323852539063 249.7740631103516 568.6574096679688 249.7695770263672 568.6825561523438 249.7650604248047 L 568.6834716796875 249.7649078369141 C 568.8343505859375 249.7378692626953 568.9724731445313 249.7131195068359 569.0960693359375 249.6909790039063 L 569.0961303710938 249.6909790039063 C 569.1083374023438 249.6887817382813 569.1205444335938 249.6865997314453 569.1325073242188 249.6844482421875 L 569.14111328125 249.6829223632813 C 569.1463012695313 249.6819763183594 569.1514282226563 249.6810607910156 569.1566162109375 249.6801452636719 L 569.1568603515625 249.6800994873047 C 569.5731811523438 249.6054992675781 569.8104858398438 249.56298828125 569.8104858398438 249.56298828125 C 569.8104858398438 249.56298828125 569.8104858398438 249.56298828125 569.8104858398438 249.56298828125 L 569.8104858398438 249.56298828125 L 569.2373657226563 249.56298828125 C 569.0474853515625 249.56298828125 568.8936157226563 249.4090576171875 568.8936157226563 249.2191925048828 C 568.8936157226563 249.0293426513672 569.0474853515625 248.8754425048828 569.2373657226563 248.8754425048828 L 569.8104858398438 248.8754425048828 C 570.1666259765625 248.8754425048828 570.4638061523438 249.1473693847656 570.495361328125 249.5021209716797 C 570.52685546875 249.8568420410156 570.2822875976563 250.1769409179688 569.9317626953125 250.2397308349609 L 554.2534790039063 253.0487976074219 C 554.2329711914063 253.0524749755859 554.2125854492188 253.0542449951172 554.1924438476563 253.0542449951172 Z"/>
      </g>
      <g id="组_4661" data-name="组 4661">
        <g id="组_4660" data-name="组 4660">
          <path id="路径_12390" data-name="路径 12390" class="cls-7" d="M365.723,372.57s-7.544,3.5-9.1,14.108c-1.626,11.122,0,9.642,0,9.642l1.945.077s3.039-6.943,3.736-10.787c0,0-3.391,3.666-.524,9.25s17.787,5.119,21.069.2c2.693-4.039-.241-8.531-1.348-9.446s4.538,8.787,4.2,10.435l1.966.183s1.261-19.992-9.641-23.856Z"/>
          <path id="路径_12391" data-name="路径 12391" class="cls-7" d="M364.415,396.757s.681,5.217,1.174,6.072-3.368,0-3.386.761,9.073.475,9.073.475,1.237-5.176.922-5.916S364.415,396.757,364.415,396.757Z"/>
          <path id="路径_12392" data-name="路径 12392" class="cls-7" d="M380.263,396.8s-.864,5.175-1.357,6.03,3.368,0,3.387.761-9.074.475-9.074.475-1.287-5.519-.971-6.259S380.263,396.8,380.263,396.8Z"/>
          <path id="路径_12393" data-name="路径 12393" class="cls-8" d="M360.337,377.353a11.355,11.355,0,0,1,3.6,1.742c1.206,1.065-3.747-.154-4.952.362A16.615,16.615,0,0,1,360.337,377.353Z"/>
          <path id="路径_12394" data-name="路径 12394" class="cls-8" d="M357.69,382.317a11.459,11.459,0,0,1,3.995.447c1.492.6-3.723,1.068-4.688,1.955A17.717,17.717,0,0,1,357.69,382.317Z"/>
          <path id="路径_12395" data-name="路径 12395" class="cls-8" d="M356.511,387.446a11.446,11.446,0,0,1,4-.359c1.582.294-3.542,1.748-4.311,2.81C356.2,389.9,356.3,388.814,356.511,387.446Z"/>
          <path id="路径_12396" data-name="路径 12396" class="cls-8" d="M383.912,377.291a12.213,12.213,0,0,0-3.706,1.8c-1.206,1.065,3.672-.162,4.877.354A9.213,9.213,0,0,0,383.912,377.291Z"/>
          <path id="路径_12397" data-name="路径 12397" class="cls-8" d="M386.1,382.316a11.3,11.3,0,0,0-3.962.448c-1.491.6,3.618,1.026,4.583,1.913C386.717,384.677,386.462,383.461,386.1,382.316Z"/>
          <path id="路径_12398" data-name="路径 12398" class="cls-8" d="M387.226,387.446a11.45,11.45,0,0,0-4.005-.359c-1.581.294,3.518,1.691,4.287,2.752C387.508,389.839,387.4,388.6,387.226,387.446Z"/>
          <path id="路径_12399" data-name="路径 12399" class="cls-8" d="M364.613,398.159a10.84,10.84,0,0,1,3.389,1.3c-.052.221-1.891-.395-3.2-.045C364.815,399.461,364.681,398.629,364.613,398.159Z"/>
          <path id="路径_12400" data-name="路径 12400" class="cls-8" d="M364.988,400.458a10.876,10.876,0,0,1,3.414,1.3c-.053.221-1.854-.382-3.159-.033C365.251,401.772,365.056,400.928,364.988,400.458Z"/>
          <path id="路径_12401" data-name="路径 12401" class="cls-8" d="M380.016,398.149a11.061,11.061,0,0,0-3.431,1.308c.053.221,1.891-.395,3.2-.045C379.772,399.461,379.947,398.619,380.016,398.149Z"/>
          <path id="路径_12402" data-name="路径 12402" class="cls-8" d="M379.571,400.458a10.9,10.9,0,0,0-3.425,1.3c.053.221,1.835-.4,3.14-.047A12.1,12.1,0,0,0,379.571,400.458Z"/>
          <circle id="椭圆_2422" data-name="椭圆 2422" class="cls-8" cx="1.402" cy="1.402" r="1.402" transform="translate(356.19 395.858)"/>
          <circle id="椭圆_2423" data-name="椭圆 2423" class="cls-8" cx="1.402" cy="1.402" r="1.402" transform="translate(385.354 395.662)"/>
          <ellipse id="椭圆_2424" data-name="椭圆 2424" class="cls-8" cx="5.816" cy="7.078" rx="5.816" ry="7.078" transform="translate(366.503 379.936)"/>
        </g>
        <path id="路径_12403" data-name="路径 12403" class="cls-7" d="M349.481,327.542s-18.181-19.31-7.8-25.04c5.828-1.711,7.807-.17,16.858,12.141,0,0,17-16.908,29.039,3.536,0,0,11.554-13.148,17.879-9.867,3.64,2.5,4.973,6.284-4.652,16.111-5.389,5.231-6.861,5.291-6.861,5.291s8.833,21.459-1.964,38.705c-12.43,6.107-43.618-6.777-43.618-6.777S340.086,346.647,349.481,327.542Z"/>
        <path id="路径_12404" data-name="路径 12404" class="cls-9" d="M361.061,300.98c-.02-.059-.572-1.413.518-.974s4.279,4.01,5.828,6c.849.2.8-.409.679-.568s-2.025-4.133,2.266-9.063c.8-.634,1.126.532,1.008,1.013s-.175,3.106,2.276,6.909c.746.772.788-.371.674-.693a12.778,12.778,0,0,1,3.6-6.883c.632-.189.8.582.883.729s3.084,5.182,2.411,10.228c-1.281,4.293-6.948,9.63-14.113,5.291C360.64,308.08,361.8,303.215,361.061,300.98Z"/>
        <path id="路径_12405" data-name="路径 12405" class="cls-9" d="M357.134,327.4s-2.028,1.055-.314,2.478,5.516-3.668,5.052-4.741-1.548-1.5-2.3-.59A5.63,5.63,0,0,1,357.134,327.4Z"/>
        <path id="路径_12406" data-name="路径 12406" class="cls-10" d="M388.438,349.037a6.266,6.266,0,0,0,8.426,5.9,46.724,46.724,0,0,0,.209-11.713,6.274,6.274,0,0,0-8.635,5.818Z"/>
        <path id="路径_12407" data-name="路径 12407" class="cls-10" d="M354.594,349.037a6.279,6.279,0,0,1-6.279,6.279,7.082,7.082,0,0,1-2.293-.153,39.366,39.366,0,0,1-.889-11.707,11.437,11.437,0,0,1,3.182-.7A6.279,6.279,0,0,1,354.594,349.037Z"/>
        <path id="路径_12408" data-name="路径 12408" class="cls-9" d="M384.628,327.393s2.029,1.051.318,2.477-5.523-3.658-5.061-4.731,1.545-1.5,2.294-.6A5.631,5.631,0,0,0,384.628,327.393Z"/>
        <path id="路径_12409" data-name="路径 12409" class="cls-8" d="M348.362,361.642s-1.85,13.372,20.994,14.212,24.1-9.971,24.542-10.958,2.115-17.553-22.407-17.083C368.212,348.022,350.676,347.662,348.362,361.642Z"/>
        <path id="路径_12410" data-name="路径 12410" class="cls-9" d="M348,330.876a15.184,15.184,0,0,1,7.154,2.709c.19.343-5.461-.359-8.634,1.654C346.519,335.239,347.654,331.484,348,330.876Z"/>
        <path id="路径_12411" data-name="路径 12411" class="cls-9" d="M345.272,341.495s3.3-1.207,5.55-.269c.393.712-5.249,3.876-5.782,6.834a42.975,42.975,0,0,1,.216-6.608"/>
        <path id="路径_12412" data-name="路径 12412" class="cls-9" d="M345.69,353.477s3.821-3.184,6.963-3.843c1.041-.028-1.169,1.495-5.471,9.276A27.807,27.807,0,0,1,345.69,353.477Z"/>
        <path id="路径_12413" data-name="路径 12413" class="cls-9" d="M394.154,330.261s-4.819.34-6.189,1.224,1.7.4,7.762,3.991A39.544,39.544,0,0,0,394.154,330.261Z"/>
        <path id="路径_12414" data-name="路径 12414" class="cls-9" d="M397.347,348.43s-6.64-6.292-8.444-6.833,1.8-2.071,7.946-.281C396.849,341.316,397.388,346.5,397.347,348.43Z"/>
        <path id="路径_12415" data-name="路径 12415" class="cls-9" d="M396,359.1s-3.06-6.3-4.51-7.013,2.543-1.359,5.461,2.256C396.856,355,396.123,358.657,396,359.1Z"/>
        <path id="路径_12416" data-name="路径 12416" class="cls-11" d="M358.454,356.865s-1.413-2.933,2.163-2.946a1.654,1.654,0,0,1,1.542.99,6.445,6.445,0,0,1-.052,3.548,1.987,1.987,0,0,1-.923,1.261,1.131,1.131,0,0,1-1.754-.574A18.118,18.118,0,0,1,358.454,356.865Z"/>
        <circle id="椭圆_2425" data-name="椭圆 2425" class="cls-12" cx="5.17" cy="5.17" r="5.17" transform="translate(378.135 334.344)"/>
        <path id="路径_12417" data-name="路径 12417" class="cls-11" d="M380,355.57s-.04-3.255,3.206-1.754a1.654,1.654,0,0,1,.979,1.549,6.448,6.448,0,0,1-1.548,3.193,1.993,1.993,0,0,1-1.37.753c-.613.05-1.31-.142-1.347-1.263A18.258,18.258,0,0,1,380,355.57Z"/>
        <circle id="椭圆_2426" data-name="椭圆 2426" class="cls-13" cx="4.02" cy="4.02" r="4.02" transform="translate(378.719 336.556)"/>
        <circle id="椭圆_2427" data-name="椭圆 2427" class="cls-14" cx="1.593" cy="1.593" r="1.593" transform="translate(383.884 338.297)"/>
        <circle id="椭圆_2428" data-name="椭圆 2428" class="cls-12" cx="5.17" cy="5.17" r="5.17" transform="translate(355.979 334.344)"/>
        <circle id="椭圆_2429" data-name="椭圆 2429" class="cls-13" cx="4.02" cy="4.02" r="4.02" transform="translate(357.696 336.556)"/>
        <circle id="椭圆_2430" data-name="椭圆 2430" class="cls-14" cx="1.593" cy="1.593" r="1.593" transform="translate(356.922 338.297)"/>
        <ellipse id="椭圆_2431" data-name="椭圆 2431" class="cls-9" cx="2.641" cy="6.273" rx="2.641" ry="6.273" transform="matrix(0.83, -0.558, 0.558, 0.83, 342.634, 309.986)"/>
        <ellipse id="椭圆_2432" data-name="椭圆 2432" class="cls-9" cx="6.273" cy="2.641" rx="6.273" ry="2.641" transform="translate(392.626 318.815) rotate(-42.014)"/>
      </g>
      <g id="组_4663" data-name="组 4663">
        <g id="组_4662" data-name="组 4662">
          <path id="路径_12418" data-name="路径 12418" class="cls-7" d="M415.811,255.517s-7.544.251-9.1,1.015c-1.626.8,0,.694,0,.694l1.944.006a36.778,36.778,0,0,0,3.736-.777s-3.391.264-.524.666a195.515,195.515,0,0,0,21.07.014c2.692-.29-.241-.614-1.349-.68s4.538.633,4.2.751l1.966.014s1.261-1.439-9.641-1.718Z"/>
          <path id="路径_12419" data-name="路径 12419" class="cls-7" d="M414.5,257.258a4.248,4.248,0,0,0,1.174.437c.493.061-3.368,0-3.386.055s9.074.034,9.074.034,1.237-.373.921-.426S414.5,257.258,414.5,257.258Z"/>
          <path id="路径_12420" data-name="路径 12420" class="cls-7" d="M430.352,257.261a6.979,6.979,0,0,1-1.357.434c-.493.061,3.368,0,3.386.055s-9.073.034-9.073.034-1.287-.4-.972-.451S430.352,257.261,430.352,257.261Z"/>
          <path id="路径_12421" data-name="路径 12421" class="cls-8" d="M410.425,255.861s2.4.049,3.605.125-3.748-.011-4.953.026C409.077,256.012,409.713,255.926,410.425,255.861Z"/>
          <path id="路径_12422" data-name="路径 12422" class="cls-8" d="M407.778,256.218s2.5-.011,4,.032-3.723.077-4.689.141A5.24,5.24,0,0,1,407.778,256.218Z"/>
          <path id="路径_12423" data-name="路径 12423" class="cls-8" d="M406.6,256.588s2.423-.048,4.005-.026-3.543.125-4.312.2A1.513,1.513,0,0,1,406.6,256.588Z"/>
          <path id="路径_12424" data-name="路径 12424" class="cls-8" d="M434,255.856s-2.5.054-3.706.13,3.672-.011,4.878.026C435.172,256.012,434.712,255.922,434,255.856Z"/>
          <path id="路径_12425" data-name="路径 12425" class="cls-8" d="M436.184,256.218s-2.471-.011-3.962.032,3.618.074,4.583.138C436.8,256.388,436.551,256.3,436.184,256.218Z"/>
          <path id="路径_12426" data-name="路径 12426" class="cls-8" d="M437.314,256.588s-2.423-.048-4.005-.026,3.518.121,4.287.2A1.635,1.635,0,0,0,437.314,256.588Z"/>
          <path id="路径_12427" data-name="路径 12427" class="cls-8" d="M414.7,257.359s1.95.026,3.39.093c-.053.016-1.891-.028-3.2,0C414.9,257.452,414.77,257.392,414.7,257.359Z"/>
          <path id="路径_12428" data-name="路径 12428" class="cls-8" d="M415.076,257.524s1.974.026,3.414.094c-.052.015-1.854-.028-3.158,0A2.317,2.317,0,0,1,415.076,257.524Z"/>
          <path id="路径_12429" data-name="路径 12429" class="cls-8" d="M430.1,257.358s-1.99.027-3.43.094c.052.016,1.891-.028,3.195,0C429.861,257.452,430.035,257.392,430.1,257.358Z"/>
          <path id="路径_12430" data-name="路径 12430" class="cls-8" d="M429.659,257.524s-1.984.026-3.424.094c.052.015,1.835-.029,3.139,0A2.131,2.131,0,0,0,429.659,257.524Z"/>
          <ellipse id="椭圆_2433" data-name="椭圆 2433" class="cls-8" cx="1.402" cy="0.101" rx="1.402" ry="0.101" transform="translate(406.279 257.193)"/>
          <ellipse id="椭圆_2434" data-name="椭圆 2434" class="cls-8" cx="1.402" cy="0.101" rx="1.402" ry="0.101" transform="translate(435.442 257.179)"/>
          <ellipse id="椭圆_2435" data-name="椭圆 2435" class="cls-8" cx="5.816" cy="0.509" rx="5.816" ry="0.509" transform="translate(416.591 256.047)"/>
        </g>
        <path id="路径_12431" data-name="路径 12431" class="cls-7" d="M399.57,252.275s-18.182-1.39-7.8-1.8c5.827-.123,7.806-.012,16.857.874,0,0,17-1.217,29.039.254,0,0,11.554-.946,17.879-.71,3.64.181,4.973.453-4.652,1.16-5.389.376-6.861.381-6.861.381s8.834,1.544-1.964,2.786c-12.43.44-43.618-.488-43.618-.488S390.174,253.651,399.57,252.275Z"/>
        <path id="路径_12432" data-name="路径 12432" class="cls-9" d="M411.149,250.363c-.02,0-.572-.1.519-.07s4.278.289,5.827.433c.849.014.8-.03.68-.041s-2.025-.3,2.266-.653c.8-.045,1.126.039,1.007.073s-.175.224,2.276.5c.747.055.788-.027.674-.05a13.274,13.274,0,0,1,3.6-.5,3.6,3.6,0,0,1,.883.053c.081.01,3.084.373,2.411.736a77.131,77.131,0,0,1-14.113.381C410.729,250.875,411.886,250.524,411.149,250.363Z"/>
        <path id="路径_12433" data-name="路径 12433" class="cls-9" d="M407.222,252.265s-2.027.076-.313.178a23.573,23.573,0,0,0,5.051-.341,11.78,11.78,0,0,0-2.295-.042A17.02,17.02,0,0,1,407.222,252.265Z"/>
        <path id="路径_12434" data-name="路径 12434" class="cls-10" d="M438.526,253.823c0,.249,2.812.452,6.28.452.755,0,1.476-.01,2.146-.028.627-.3.575-.587.21-.843-.728-.021-1.522-.033-2.356-.033C441.338,253.371,438.526,253.573,438.526,253.823Z"/>
        <path id="路径_12435" data-name="路径 12435" class="cls-10" d="M404.683,253.823c0,.249-2.812.452-6.279.452-.756,0-1.623.006-2.294-.011-.876-.269-1.184-.568-.888-.843.727-.021,2.348-.05,3.182-.05C401.871,253.371,404.683,253.573,404.683,253.823Z"/>
        <path id="路径_12436" data-name="路径 12436" class="cls-9" d="M434.716,252.265s2.029.075.318.178a23.662,23.662,0,0,1-5.061-.341,11.764,11.764,0,0,1,2.294-.042A17.178,17.178,0,0,0,434.716,252.265Z"/>
        <path id="路径_12437" data-name="路径 12437" class="cls-8" d="M398.45,254.73s-1.849.963,20.995,1.023,24.1-.718,24.541-.789,2.115-1.263-22.407-1.229C418.3,253.75,400.764,253.724,398.45,254.73Z"/>
        <path id="路径_12438" data-name="路径 12438" class="cls-9" d="M398.087,252.515s3.818.019,7.155.2c.189.025-5.462-.025-8.635.119C396.607,252.829,397.742,252.559,398.087,252.515Z"/>
        <path id="路径_12439" data-name="路径 12439" class="cls-9" d="M395.36,253.28s3.3-.087,5.55-.02c.393.052-5.248.279-5.781.492-.168-.228.185-.47.215-.475"/>
        <path id="路径_12440" data-name="路径 12440" class="cls-9" d="M395.778,254.142s3.821-.229,6.963-.276c1.041,0-1.168.107-5.47.667A8.746,8.746,0,0,1,395.778,254.142Z"/>
        <path id="路径_12441" data-name="路径 12441" class="cls-9" d="M444.242,252.471s-4.819.025-6.188.088,1.7.029,7.762.288A13.5,13.5,0,0,0,444.242,252.471Z"/>
        <path id="路径_12442" data-name="路径 12442" class="cls-9" d="M447.435,253.779s-6.64-.453-8.443-.492,1.8-.149,7.945-.02C446.937,253.267,447.477,253.64,447.435,253.779Z"/>
        <path id="路径_12443" data-name="路径 12443" class="cls-9" d="M446.09,254.547s-3.061-.453-4.51-.5a35.089,35.089,0,0,1,5.46.163C446.944,254.252,446.211,254.515,446.09,254.547Z"/>
        <path id="路径_12444" data-name="路径 12444" class="cls-11" d="M408.542,254.386s-1.413-.211,2.163-.212a12.171,12.171,0,0,1,1.543.071c.442.079.164.192-.053.256a5.177,5.177,0,0,1-.923.091,10.982,10.982,0,0,1-1.754-.042C409,254.477,408.77,254.431,408.542,254.386Z"/>
        <ellipse id="椭圆_2436" data-name="椭圆 2436" class="cls-12" cx="5.17" cy="0.372" rx="5.17" ry="0.372" transform="translate(428.223 252.765)"/>
        <path id="路径_12445" data-name="路径 12445" class="cls-11" d="M430.091,254.293s-.039-.234,3.206-.126a2.578,2.578,0,0,1,.979.111,7.11,7.11,0,0,1-1.548.23c-.339.03-.831.051-1.37.054a4.447,4.447,0,0,1-1.346-.091C429.974,254.39,430.033,254.341,430.091,254.293Z"/>
        <ellipse id="椭圆_2437" data-name="椭圆 2437" class="cls-13" cx="4.02" cy="0.289" rx="4.02" ry="0.289" transform="translate(428.808 252.924)"/>
        <ellipse id="椭圆_2438" data-name="椭圆 2438" class="cls-14" cx="1.593" cy="0.115" rx="1.593" ry="0.115" transform="translate(433.972 253.05)"/>
        <ellipse id="椭圆_2439" data-name="椭圆 2439" class="cls-12" cx="5.17" cy="0.372" rx="5.17" ry="0.372" transform="translate(406.067 252.765)"/>
        <ellipse id="椭圆_2440" data-name="椭圆 2440" class="cls-13" cx="4.02" cy="0.289" rx="4.02" ry="0.289" transform="translate(407.784 252.924)"/>
        <ellipse id="椭圆_2441" data-name="椭圆 2441" class="cls-14" cx="1.593" cy="0.115" rx="1.593" ry="0.115" transform="translate(407.01 253.05)"/>
        <ellipse id="椭圆_2442" data-name="椭圆 2442" class="cls-9" cx="0.288" cy="4.138" rx="0.288" ry="4.138" transform="translate(394.266 251.305) rotate(-86.361)"/>
        <ellipse id="椭圆_2443" data-name="椭圆 2443" class="cls-9" cx="4.99" cy="0.239" rx="4.99" ry="0.239" transform="translate(444.146 251.481) rotate(-2.677)"/>
      </g>
      <g id="组_4665" data-name="组 4665">
        <g id="组_4664" data-name="组 4664">
          <path id="路径_12446" data-name="路径 12446" class="cls-7" d="M575.844,362.6s-3.658,3.468-4.194,13.634c-.562,10.658.211,9.217.211,9.217l.964.041s1.353-6.686,1.614-10.372a13.689,13.689,0,0,0-.057,8.85c1.541,5.29,8.918,4.6,10.435-.16a12.711,12.711,0,0,0-.874-9.006c-.568-.857,2.439,8.324,2.308,9.9l.977.142s.187-19.129-5.3-22.642Z"/>
          <path id="路径_12447" data-name="路径 12447" class="cls-7" d="M575.726,385.737s.451,4.975.714,5.785-1.668.055-1.66.783,4.5.3,4.5.3a50.3,50.3,0,0,0,.327-5.669C579.437,386.238,575.726,385.737,575.726,385.737Z"/>
          <path id="路径_12448" data-name="路径 12448" class="cls-7" d="M583.573,385.516s-.314,4.96-.54,5.786,1.668-.055,1.694.671-4.482.6-4.482.6a56.013,56.013,0,0,1-.618-5.966C579.767,385.9,583.573,385.516,583.573,385.516Z"/>
          <path id="路径_12449" data-name="路径 12449" class="cls-8" d="M573.282,367.258a5.172,5.172,0,0,1,1.823,1.606c.62,1-1.859-.086-2.444.427C572.661,369.291,572.949,368.138,573.282,367.258Z"/>
          <path id="路径_12450" data-name="路径 12450" class="cls-8" d="M572.08,372.047a3.1,3.1,0,0,1,1.988.36c.752.553-1.82,1.083-2.278,1.947C571.79,374.354,571.87,373.321,572.08,372.047Z"/>
          <path id="路径_12451" data-name="路径 12451" class="cls-8" d="M571.609,376.968a3.156,3.156,0,0,1,1.975-.41c.789.255-1.716,1.73-2.074,2.758C571.51,379.316,571.533,378.279,571.609,376.968Z"/>
          <path id="路径_12452" data-name="路径 12452" class="cls-8" d="M584.953,366.81a5.79,5.79,0,0,0-1.8,1.785c-.573,1.038,1.815-.215,2.423.258A13.05,13.05,0,0,0,584.953,366.81Z"/>
          <path id="路径_12453" data-name="路径 12453" class="cls-8" d="M586.144,371.577a3.093,3.093,0,0,0-1.952.493c-.725.6,1.814.921,2.311,1.753C586.5,373.823,586.351,372.665,586.144,371.577Z"/>
          <path id="路径_12454" data-name="路径 12454" class="cls-8" d="M586.816,376.462a3.122,3.122,0,0,0-1.991-.278c-.776.307,1.779,1.558,2.183,2.561C587.008,378.745,586.925,377.561,586.816,376.462Z"/>
          <path id="路径_12455" data-name="路径 12455" class="cls-8" d="M575.854,387.074a4.157,4.157,0,0,1,1.707,1.184c-.021.212-.945-.345-1.583.01C575.983,388.315,575.9,387.522,575.854,387.074Z"/>
          <path id="路径_12456" data-name="路径 12456" class="cls-8" d="M576.09,389.265a4.156,4.156,0,0,1,1.719,1.184c-.021.212-.926-.334-1.564.021C576.25,390.517,576.134,389.713,576.09,389.265Z"/>
          <path id="路径_12457" data-name="路径 12457" class="cls-8" d="M583.48,386.811a4.351,4.351,0,0,0-1.67,1.306c.031.21.928-.408,1.581-.1C583.388,388.068,583.456,387.261,583.48,386.811Z"/>
          <path id="路径_12458" data-name="路径 12458" class="cls-8" d="M583.311,389.025a4.276,4.276,0,0,0-1.668,1.3c.031.21.9-.41,1.553-.1C583.194,390.272,583.287,389.475,583.311,389.025Z"/>
          <ellipse id="椭圆_2444" data-name="椭圆 2444" class="cls-8" cx="0.694" cy="1.34" rx="0.694" ry="1.34" transform="translate(571.639 385.004) rotate(-1.092)"/>
          <ellipse id="椭圆_2445" data-name="椭圆 2445" class="cls-8" cx="0.694" cy="1.34" rx="0.694" ry="1.34" transform="translate(586.073 384.335) rotate(-1.092)"/>
          <ellipse id="椭圆_2446" data-name="椭圆 2446" class="cls-8" cx="2.881" cy="6.767" rx="2.881" ry="6.767" transform="translate(576.407 369.588) rotate(-1.179)"/>
        </g>
        <path id="路径_12459" data-name="路径 12459" class="cls-7" d="M566.818,319.827s-9.424-18.157-4.409-23.8c2.848-1.732,3.861-.291,8.612,11.326,0,0,8.048-16.442,14.454,2.9,0,0,5.433-12.757,8.636-9.726,1.857,2.335,2.6,5.925-1.951,15.476-2.554,5.089-3.281,5.17-3.281,5.17s4.843,20.366-.126,37.027c-6.02,6.042-21.743-5.758-21.743-5.758S562.585,338.242,566.818,319.827Z"/>
        <path id="路径_12460" data-name="路径 12460" class="cls-9" d="M571.97,294.248c-.011-.056-.314-1.341.236-.94s2.206,3.763,3.016,5.644c.425.181.387-.4.324-.553a13.815,13.815,0,0,1,.924-8.7c.383-.62.569.489.521.951a17.955,17.955,0,0,0,1.278,6.566c.386.726.382-.367.319-.673a18.612,18.612,0,0,1,1.63-6.639c.309-.191.409.543.453.683a30.337,30.337,0,0,1,1.417,9.736c-.54,4.124-3.229,9.319-6.871,5.29C571.917,301.041,572.384,296.372,571.97,294.248Z"/>
        <path id="路径_12461" data-name="路径 12461" class="cls-9" d="M570.6,319.562a1.913,1.913,0,0,0-.1,2.374c.88,1.332,2.65-3.6,2.4-4.615s-.8-1.408-1.149-.527A6.341,6.341,0,0,1,570.6,319.562Z"/>
        <path id="路径_12462" data-name="路径 12462" class="cls-10" d="M586.576,339.73c.076,3.315,1.529,5.955,3.246,5.9a1.851,1.851,0,0,0,1.054-.4,85.878,85.878,0,0,0-.152-11.2,1.87,1.87,0,0,0-1.177-.4C587.83,333.682,586.5,336.415,586.576,339.73Z"/>
        <path id="路径_12463" data-name="路径 12463" class="cls-10" d="M569.82,340.288c.076,3.315-1.255,6.048-2.971,6.105a1.882,1.882,0,0,1-1.139-.108,71.683,71.683,0,0,1-.7-11.176,3.575,3.575,0,0,1,1.56-.719C568.291,334.333,569.744,336.973,569.82,340.288Z"/>
        <path id="路径_12464" data-name="路径 12464" class="cls-9" d="M584.216,319.105a1.9,1.9,0,0,1,.212,2.363c-.817,1.392-2.815-3.4-2.61-4.439s.732-1.461,1.123-.606A6.191,6.191,0,0,0,584.216,319.105Z"/>
        <path id="路径_12465" data-name="路径 12465" class="cls-8" d="M567.01,352.439s-.623,12.811,10.705,13.237,11.713-9.927,11.911-10.878.663-16.812-11.468-15.958C576.54,339.093,567.85,339.038,567.01,352.439Z"/>
        <path id="路径_12466" data-name="路径 12466" class="cls-9" d="M566.157,323.038a5.7,5.7,0,0,1,3.6,2.471c.1.325-2.712-.252-4.239,1.724C565.52,327.233,566,323.625,566.157,323.038Z"/>
        <path id="路径_12467" data-name="路径 12467" class="cls-9" d="M565.039,333.233s1.61-1.208,2.742-.349c.21.674-2.513,3.792-2.713,6.628-.152-3.028-.051-6.246-.038-6.32"/>
        <path id="路径_12468" data-name="路径 12468" class="cls-9" d="M565.508,344.679s1.822-3.106,3.364-3.788c.515-.044-.546,1.447-2.506,8.956A46.7,46.7,0,0,1,565.508,344.679Z"/>
        <path id="路径_12469" data-name="路径 12469" class="cls-9" d="M588.995,321.689s-2.379.4-3.037,1.272.852.356,3.93,3.687C589.888,326.648,589.4,323.254,588.995,321.689Z"/>
        <path id="路径_12470" data-name="路径 12470" class="cls-9" d="M590.973,339s-3.425-5.9-4.33-6.392.848-2.009,3.928-.4C590.571,332.212,590.952,337.16,590.973,339Z"/>
        <path id="路径_12471" data-name="路径 12471" class="cls-9" d="M590.541,349.224s-1.653-5.972-2.387-6.629,1.229-1.341,2.753,2.066C590.874,345.294,590.591,348.8,590.541,349.224Z"/>
        <path id="路径_12472" data-name="路径 12472" class="cls-11" d="M571.9,347.706s-.764-2.78,1.007-2.851c.326-.013.648.34.785.921a11.731,11.731,0,0,1,.052,3.392,2.311,2.311,0,0,1-.43,1.22c-.257.3-.608.428-.881-.52S572.029,348.3,571.9,347.706Z"/>
        <ellipse id="椭圆_2447" data-name="椭圆 2447" class="cls-12" cx="2.561" cy="4.943" rx="2.561" ry="4.943" transform="translate(581.172 325.819) rotate(-1.092)"/>
        <path id="路径_12473" data-name="路径 12473" class="cls-11" d="M582.543,346.114s-.091-3.111,1.549-1.73a2,2,0,0,1,.518,1.465,9.375,9.375,0,0,1-.7,3.077c-.158.408-.4.69-.661.742-.3.058-.652-.114-.7-1.185S582.528,346.749,582.543,346.114Z"/>
        <ellipse id="椭圆_2448" data-name="椭圆 2448" class="cls-13" cx="1.991" cy="3.843" rx="1.991" ry="3.843" transform="translate(581.505 327.932) rotate(-1.092)"/>
        <ellipse id="椭圆_2449" data-name="椭圆 2449" class="cls-14" cx="0.789" cy="1.523" rx="0.789" ry="1.523" transform="translate(584.092 329.528) rotate(-1.092)"/>
        <ellipse id="椭圆_2450" data-name="椭圆 2450" class="cls-12" cx="2.561" cy="4.943" rx="2.561" ry="4.943" transform="translate(570.202 326.184) rotate(-1.092)"/>
        <ellipse id="椭圆_2451" data-name="椭圆 2451" class="cls-13" cx="1.991" cy="3.843" rx="1.991" ry="3.843" transform="translate(571.097 328.279) rotate(-1.092)"/>
        <ellipse id="椭圆_2452" data-name="椭圆 2452" class="cls-14" cx="0.789" cy="1.523" rx="0.789" ry="1.523" transform="translate(570.743 329.973) rotate(-1.092)"/>
        <ellipse id="椭圆_2453" data-name="椭圆 2453" class="cls-9" cx="1.466" cy="5.352" rx="1.466" ry="5.352" transform="translate(562.944 301.965) rotate(-17.405)"/>
        <ellipse id="椭圆_2454" data-name="椭圆 2454" class="cls-9" cx="4.821" cy="1.627" rx="4.821" ry="1.627" transform="matrix(0.388, -0.922, 0.922, 0.388, 587.75, 312.341)"/>
      </g>
    </g>
  </g>
</svg>
