<svg xmlns="http://www.w3.org/2000/svg" width="463.679" height="503.49" viewBox="0 0 463.679 503.49">
  <defs>
    <style>
      .cls-1 {
        fill: #feeed5;
      }

      .cls-2 {
        fill: #d0ef7b;
      }

      .cls-15, .cls-18, .cls-3, .cls-5 {
        fill: none;
      }

      .cls-15, .cls-3, .cls-5 {
        stroke-linecap: round;
        stroke-linejoin: round;
      }

      .cls-3, .cls-5 {
        stroke-dasharray: 21.735;
      }

      .cls-4 {
        fill: #c3ea6c;
      }

      .cls-5 {
        stroke: #fff;
      }

      .cls-15, .cls-5 {
        stroke-width: 3.622px;
      }

      .cls-6 {
        fill: #b8dd52;
      }

      .cls-7 {
        fill: #f9d3c8;
      }

      .cls-8 {
        fill: #f6bdac;
      }

      .cls-9 {
        fill: #ef8877;
      }

      .cls-10 {
        fill: #fcb2a9;
      }

      .cls-11, .cls-17 {
        fill: #fff;
      }

      .cls-12 {
        fill: #2b71b0;
      }

      .cls-13 {
        fill: #e7ffff;
      }

      .cls-14 {
        fill: #802e20;
      }

      .cls-15 {
        stroke: #ef8877;
      }

      .cls-16, .cls-17 {
        stroke: none;
      }
    </style>
  </defs>
  <g id="组_4623" data-name="组 4623" transform="translate(-194.52 -86.789)">
    <rect id="矩形_2153" data-name="矩形 2153" class="cls-1" width="463.679" height="503.49" rx="40.012" transform="translate(194.52 86.789)"/>
    <g id="组_4622" data-name="组 4622" transform="translate(-0.333 -0.334)">
      <path id="路径_12267" data-name="路径 12267" class="cls-2" d="M332.534,186.635,256.9,225.48H511.986L589.4,186.635Z"/>
      <g id="路径_12268" data-name="路径 12268" class="cls-3">
        <path class="cls-16" d="M358.749,193.109,305,219.006H486.286l55.019-25.9Z"/>
        <path class="cls-17" d="M 358.749267578125 192.2032318115234 L 380.4840393066406 192.2032318115234 C 380.7341003417969 192.2032318115234 380.9368286132813 192.4059753417969 380.9368286132813 192.6560516357422 C 380.9368286132813 192.9061126708984 380.7341003417969 193.1088562011719 380.4840393066406 193.1088562011719 C 380.4840393066406 193.1088562011719 358.749267578125 193.1088562011719 358.749267578125 193.1088562011719 C 358.749267578125 193.1088562011719 358.749267578125 193.1088562011719 358.749267578125 193.1088562011719 C 358.749267578125 193.1088562011719 358.749267578125 193.1088562011719 358.749267578125 193.1088562011719 L 358.5116577148438 193.2233276367188 C 358.51123046875 193.2235412597656 358.5108337402344 193.2237243652344 358.5103759765625 193.2239379882813 L 358.2387084960938 193.3548278808594 C 358.2380981445313 193.3551177978516 358.2374877929688 193.3554229736328 358.2368774414063 193.355712890625 L 358.0704956054688 193.4358825683594 C 358.0699157714844 193.4361572265625 358.0695190429688 193.4363403320313 358.0689697265625 193.4366149902344 L 357.9808044433594 193.4790954589844 C 357.9795837402344 193.4796752929688 357.978271484375 193.4803009033203 357.9770812988281 193.4808807373047 L 357.9336547851563 193.5018005371094 C 357.9323120117188 193.5024566650391 357.9308166503906 193.503173828125 357.929443359375 193.5038299560547 L 357.9084167480469 193.5139617919922 C 357.9077758789063 193.5142669677734 357.9071044921875 193.5145874023438 357.9064636230469 193.514892578125 L 357.8958740234375 193.5200042724609 C 357.8954772949219 193.5201873779297 357.8950805664063 193.5204010009766 357.8946838378906 193.5205841064453 L 357.8899841308594 193.5228424072266 C 357.8858032226563 193.5248565673828 357.8818054199219 193.5267791748047 357.8776245117188 193.52880859375 L 357.8729553222656 193.5310516357422 C 357.8715515136719 193.5317230224609 357.8701171875 193.5324096679688 357.8687133789063 193.5330810546875 L 357.861328125 193.5366363525391 C 357.8598022460938 193.5373840332031 357.8583679199219 193.5380706787109 357.8568420410156 193.538818359375 L 357.8526306152344 193.5408325195313 C 357.8526306152344 193.5408325195313 357.8524475097656 193.5409240722656 357.8524475097656 193.5409240722656 L 357.8356018066406 193.5490417480469 C 357.8342895507813 193.5496673583984 357.8330383300781 193.5502777099609 357.8317565917969 193.5509033203125 L 357.8100280761719 193.5613708496094 C 357.8093566894531 193.5616760253906 357.8087158203125 193.5619964599609 357.8080749511719 193.5623168945313 L 357.7976989746094 193.5673065185547 C 357.7967529296875 193.5677490234375 357.7955932617188 193.5683135986328 357.794677734375 193.5687561035156 L 357.7908020019531 193.5706329345703 C 357.7902526855469 193.5708923339844 357.7897644042969 193.5711212158203 357.7892456054688 193.5713806152344 L 357.7863159179688 193.5727844238281 C 357.7832946777344 193.5742492675781 357.7799987792969 193.5758361816406 357.7769470214844 193.5773010253906 L 357.7588500976563 193.5860290527344 C 357.7585754394531 193.5861511230469 357.7583618164063 193.5862579345703 357.7580871582031 193.5863952636719 L 357.7344360351563 193.5977783203125 C 357.7332153320313 193.5983734130859 357.732177734375 193.5988616943359 357.7309875488281 193.5994567871094 L 357.713623046875 193.6078033447266 C 357.7131042480469 193.6080627441406 357.7125244140625 193.6083526611328 357.7119750976563 193.6086120605469 L 357.7091369628906 193.6099700927734 C 357.7073669433594 193.6108245849609 357.7055358886719 193.6117095947266 357.7037658691406 193.6125640869141 L 357.7021179199219 193.6133575439453 C 357.7012939453125 193.6137542724609 357.7006530761719 193.6140594482422 357.6998596191406 193.6144409179688 L 357.6937255859375 193.6173858642578 C 357.693603515625 193.6174621582031 357.693359375 193.6175842285156 357.6932067871094 193.6176452636719 L 357.6884155273438 193.6199645996094 C 357.6832275390625 193.6224670410156 357.6779174804688 193.6250152587891 357.6726989746094 193.6275329589844 L 357.6675109863281 193.6300201416016 C 357.6675109863281 193.6300201416016 357.6672973632813 193.630126953125 357.6672973632813 193.630126953125 L 357.6551818847656 193.6359710693359 C 357.6545104980469 193.6362915039063 357.6537475585938 193.6366577148438 357.653076171875 193.6369934082031 L 357.64111328125 193.6427459716797 C 357.6408386230469 193.6428833007813 357.6408081054688 193.6428985595703 357.6405334472656 193.6430206298828 L 357.6283569335938 193.6488952636719 C 357.6278076171875 193.6491546630859 357.6273193359375 193.6493835449219 357.6267700195313 193.649658203125 L 357.6007690429688 193.6621856689453 C 357.6007690429688 193.6621856689453 357.6007690429688 193.6621856689453 357.6007690429688 193.6621856689453 L 357.5756530761719 193.6742858886719 C 357.5743713378906 193.6748962402344 357.5728149414063 193.6756439208984 357.571533203125 193.67626953125 L 357.5197448730469 193.7012176513672 C 357.5193176269531 193.7014312744141 357.518798828125 193.7016754150391 357.5183715820313 193.7018737792969 L 357.492919921875 193.7141418457031 C 357.4920654296875 193.7145538330078 357.4908447265625 193.7151489257813 357.489990234375 193.7155609130859 L 357.4791870117188 193.7207641601563 C 357.47802734375 193.7213134765625 357.4769287109375 193.7218475341797 357.4757690429688 193.722412109375 L 357.4723510742188 193.7240600585938 C 357.466552734375 193.7268524169922 357.4608154296875 193.7296142578125 357.4549865722656 193.732421875 L 357.4518127441406 193.7339477539063 C 357.4508056640625 193.7344360351563 357.4498596191406 193.7348937988281 357.4488220214844 193.7353820800781 L 357.4368286132813 193.7411651611328 C 357.4356689453125 193.7417297363281 357.4348449707031 193.7421264648438 357.4336853027344 193.7426910400391 L 357.4095153808594 193.7543182373047 C 357.406005859375 193.7560272216797 357.4025573730469 193.7576751708984 357.3990173339844 193.7593841552734 L 357.3800659179688 193.7685241699219 C 357.3794555664063 193.768798828125 357.3789367675781 193.7690582275391 357.3783264160156 193.7693481445313 L 357.3587951660156 193.7787628173828 C 357.353271484375 193.7814178466797 357.3476257324219 193.7841339111328 357.3421020507813 193.7868041992188 L 357.3364562988281 193.7895355224609 C 357.3361511230469 193.7896728515625 357.3358764648438 193.7898101806641 357.3355712890625 193.7899627685547 L 357.3231201171875 193.7959442138672 C 357.3223876953125 193.7963104248047 357.3217468261719 193.7966156005859 357.3209838867188 193.7969818115234 L 357.3012084960938 193.8065185546875 C 357.297119140625 193.8084716796875 357.292724609375 193.8105926513672 357.2886657714844 193.8125610351563 L 357.2785034179688 193.8174438476563 C 357.2785034179688 193.8174438476563 357.2782592773438 193.8175659179688 357.2782592773438 193.8175659179688 L 357.2670288085938 193.8229827880859 C 357.2120971679688 193.8494415283203 357.1561584472656 193.8764038085938 357.099609375 193.9036407470703 L 357.0938415527344 193.9064025878906 C 355.4605407714844 194.6933135986328 353.2063903808594 195.7793579101563 353.2063903808594 195.7793579101563 C 353.1430358886719 195.8098754882813 353.0760498046875 195.8243408203125 353.0101623535156 195.8243408203125 C 352.8416748046875 195.8243408203125 352.679931640625 195.7299194335938 352.6018981933594 195.5679626464844 C 352.4933776855469 195.3426818847656 352.5880126953125 195.072021484375 352.8133239746094 194.9635009765625 L 358.3561706542969 192.2929992675781 C 358.4195251464844 192.2624664306641 358.4864807128906 192.2480163574219 358.5523986816406 192.2480163574219 C 358.552490234375 192.2480163574219 358.5525817871094 192.2480163574219 358.5527038574219 192.2480163574219 C 358.6121520996094 192.2193145751953 358.6788024902344 192.2032318115234 358.749267578125 192.2032318115234 Z M 402.21875 192.2032318115234 L 423.9535217285156 192.2032318115234 C 424.20361328125 192.2032318115234 424.4063110351563 192.4059753417969 424.4063110351563 192.6560516357422 C 424.4063110351563 192.9061126708984 424.20361328125 193.1088562011719 423.9535217285156 193.1088562011719 C 423.9535217285156 193.1088562011719 402.21875 193.1088562011719 402.21875 193.1088562011719 C 401.9686889648438 193.1088562011719 401.7659606933594 192.9061126708984 401.7659606933594 192.6560516357422 C 401.7659606933594 192.4059753417969 401.9686889648438 192.2032318115234 402.21875 192.2032318115234 Z M 445.6882629394531 192.2032318115234 L 467.4230346679688 192.2032318115234 C 467.6731262207031 192.2032318115234 467.8758544921875 192.4059753417969 467.8758544921875 192.6560516357422 C 467.8758544921875 192.9061126708984 467.6731262207031 193.1088562011719 467.4230346679688 193.1088562011719 C 467.4230346679688 193.1088562011719 445.6882629394531 193.1088562011719 445.6882629394531 193.1088562011719 C 445.4382019042969 193.1088562011719 445.2354736328125 192.9061126708984 445.2354736328125 192.6560516357422 C 445.2354736328125 192.4059753417969 445.4382019042969 192.2032318115234 445.6882629394531 192.2032318115234 Z M 489.1577758789063 192.2032318115234 L 510.8925170898438 192.2032318115234 C 511.1426086425781 192.2032318115234 511.3453369140625 192.4059753417969 511.3453369140625 192.6560516357422 C 511.3453369140625 192.9061126708984 511.1426086425781 193.1088562011719 510.8925170898438 193.1088562011719 C 510.8925170898438 193.1088562011719 489.1577758789063 193.1088562011719 489.1577758789063 193.1088562011719 C 488.90771484375 193.1088562011719 488.7049560546875 192.9061126708984 488.7049560546875 192.6560516357422 C 488.7049560546875 192.4059753417969 488.90771484375 192.2032318115234 489.1577758789063 192.2032318115234 Z M 532.6273193359375 192.2032318115234 L 541.3052368164063 192.2032318115234 C 541.729248046875 192.2032318115234 542.0964965820313 192.4974365234375 542.1890258789063 192.9112701416016 C 542.2815551757813 193.3250579833984 542.0745849609375 193.7476501464844 541.69091796875 193.9282379150391 L 529.8773193359375 199.48876953125 C 529.8150024414063 199.5180969238281 529.7493896484375 199.531982421875 529.684814453125 199.531982421875 C 529.5148315429688 199.531982421875 529.3519287109375 199.4358673095703 529.2747802734375 199.2719116210938 C 529.1683349609375 199.0456390380859 529.265380859375 198.77587890625 529.4916381835938 198.6693878173828 C 529.4916381835938 198.6693878173828 541.3052368164063 193.1088562011719 541.3052368164063 193.1088562011719 L 541.3052368164063 193.1088562011719 L 541.3052368164063 193.1088562011719 C 541.3052368164063 193.1088562011719 541.3052368164063 193.1088562011719 541.3052368164063 193.1088562011719 C 541.3052368164063 193.1088562011719 532.6273193359375 193.1088562011719 532.6273193359375 193.1088562011719 C 532.377197265625 193.1088562011719 532.1744995117188 192.9061126708984 532.1744995117188 192.6560516357422 C 532.1744995117188 192.4059753417969 532.377197265625 192.2032318115234 532.6273193359375 192.2032318115234 Z M 510.0189208984375 207.8823699951172 C 510.1888732910156 207.8823699951172 510.3517456054688 207.9784851074219 510.4288940429688 208.1424407958984 C 510.535400390625 208.3686981201172 510.4383239746094 208.6384735107422 510.2120666503906 208.7449645996094 L 490.5468139648438 218.0011749267578 C 490.4844970703125 218.0305023193359 490.4188842773438 218.0444030761719 490.3542785644531 218.0444030761719 C 490.184326171875 218.0444030761719 490.0214538574219 217.9482727050781 489.9443054199219 217.7843170166016 C 489.8377990722656 217.5580596923828 489.9348754882813 217.2882995605469 490.1611328125 217.1817932128906 C 490.1611328125 217.1817932128906 491.7433166503906 216.4370727539063 494.0106811523438 215.3698577880859 L 494.0123291015625 215.3690948486328 C 494.0733032226563 215.3403778076172 494.134521484375 215.3115692138672 494.1964721679688 215.2824096679688 L 494.2118225097656 215.2751922607422 C 494.2311706542969 215.2660827636719 494.2513732910156 215.2565612792969 494.2708435058594 215.2474060058594 L 494.272216796875 215.2467498779297 C 494.3325500488281 215.2183532714844 494.3923034667969 215.1902465820313 494.4534912109375 215.1614227294922 L 494.4704895019531 215.1534271240234 C 494.47607421875 215.1508178710938 494.4813232421875 215.1483306884766 494.4869079589844 215.1457061767578 L 494.49267578125 215.1429901123047 C 494.5073852539063 215.1360626220703 494.5220336914063 215.1291656494141 494.5368041992188 215.1222229003906 L 494.5407104492188 215.1203765869141 C 494.5468444824219 215.1174926757813 494.5525512695313 215.1148071289063 494.5586547851563 215.1119232177734 L 494.56396484375 215.1094360351563 C 494.5705871582031 215.1063232421875 494.5772399902344 215.1031951904297 494.5838623046875 215.1000671386719 L 494.5898132324219 215.0972595214844 C 494.6455078125 215.071044921875 494.7016906738281 215.0446166992188 494.7580261230469 215.0180816650391 L 494.7608947753906 215.0167388916016 C 494.775390625 215.0099182128906 494.7892456054688 215.0034027099609 494.8037719726563 214.9965667724609 L 494.8109130859375 214.9931945800781 C 494.8181762695313 214.9897766113281 494.8252258300781 214.9864501953125 494.83251953125 214.9830322265625 L 494.9111938476563 214.9459991455078 C 494.91796875 214.9428100585938 494.9242858886719 214.9398345947266 494.9310913085938 214.9366302490234 L 495.019775390625 214.8948822021484 C 495.0223999023438 214.8936462402344 495.024169921875 214.892822265625 495.0267944335938 214.8915863037109 L 495.1152954101563 214.8499298095703 C 495.12060546875 214.8474426269531 495.1253662109375 214.8451843261719 495.1306762695313 214.8426971435547 L 495.3240966796875 214.7516479492188 C 495.3257141113281 214.7508850097656 495.3287353515625 214.7494659423828 495.330322265625 214.7487182617188 L 495.52734375 214.6559906005859 C 495.5338439941406 214.6529235839844 495.5391845703125 214.6504058837891 495.5456848144531 214.6473541259766 L 495.5862731933594 214.6282501220703 C 495.5868225097656 214.6279907226563 495.5872192382813 214.6278076171875 495.5877685546875 214.6275482177734 L 495.6383972167969 214.6036987304688 C 495.6383972167969 214.6036987304688 495.6395874023438 214.6031494140625 495.6395874023438 214.6031494140625 L 495.7404479980469 214.5556793212891 C 495.7426452636719 214.5546417236328 495.7449035644531 214.5535736083984 495.7471008300781 214.5525512695313 L 495.9520263671875 214.4560852050781 C 495.9542541503906 214.4550476074219 495.9552917480469 214.4545593261719 495.9574890136719 214.4535217285156 L 496.3289489746094 214.2786865234375 C 496.3294982910156 214.2784118652344 496.3299865722656 214.2781829833984 496.33056640625 214.2779235839844 L 496.3580932617188 214.2649536132813 C 496.3721313476563 214.2583465576172 496.3862609863281 214.251708984375 496.4003295898438 214.2450866699219 L 509.826904296875 207.9253387451172 C 509.8890686035156 207.8961791992188 509.9544982910156 207.8823699951172 510.0189208984375 207.8823699951172 Z M 447.099365234375 219.0055541992188 L 468.8341369628906 219.0055541992188 C 469.084228515625 219.0055541992188 469.2869262695313 219.2082977294922 469.2869262695313 219.4583587646484 C 469.2869262695313 219.7084350585938 469.084228515625 219.9111785888672 468.8341369628906 219.9111785888672 L 447.099365234375 219.9111785888672 C 446.8493347167969 219.9111785888672 446.6465759277344 219.7084350585938 446.6465759277344 219.4583587646484 C 446.6465759277344 219.2082977294922 446.8493347167969 219.0055541992188 447.099365234375 219.0055541992188 Z M 403.6298828125 219.0055541992188 L 425.3646545410156 219.0055541992188 C 425.6147155761719 219.0055541992188 425.8174438476563 219.2082977294922 425.8174438476563 219.4583587646484 C 425.8174438476563 219.7084350585938 425.6147155761719 219.9111785888672 425.3646545410156 219.9111785888672 L 403.6298828125 219.9111785888672 C 403.3797912597656 219.9111785888672 403.1770935058594 219.7084350585938 403.1770935058594 219.4583587646484 C 403.1770935058594 219.2082977294922 403.3797912597656 219.0055541992188 403.6298828125 219.0055541992188 Z M 360.1603698730469 219.0055541992188 L 381.8951110839844 219.0055541992188 C 382.1452026367188 219.0055541992188 382.3479309082031 219.2082977294922 382.3479309082031 219.4583587646484 C 382.3479309082031 219.7084350585938 382.1452026367188 219.9111785888672 381.8951110839844 219.9111785888672 L 360.1603698730469 219.9111785888672 C 359.9102783203125 219.9111785888672 359.7075500488281 219.7084350585938 359.7075500488281 219.4583587646484 C 359.7075500488281 219.2082977294922 359.9102783203125 219.0055541992188 360.1603698730469 219.0055541992188 Z M 316.6908569335938 219.0055541992188 L 338.4256286621094 219.0055541992188 C 338.6756896972656 219.0055541992188 338.8784484863281 219.2082977294922 338.8784484863281 219.4583587646484 C 338.8784484863281 219.7084350585938 338.6756896972656 219.9111785888672 338.4256286621094 219.9111785888672 L 316.6908569335938 219.9111785888672 C 316.4407958984375 219.9111785888672 316.238037109375 219.7084350585938 316.238037109375 219.4583587646484 C 316.238037109375 219.2082977294922 316.4407958984375 219.0055541992188 316.6908569335938 219.0055541992188 Z M 333.4288330078125 204.3522796630859 C 333.5972900390625 204.3522796630859 333.759033203125 204.4467010498047 333.8370971679688 204.608642578125 C 333.9456176757813 204.8339385986328 333.8510131835938 205.1045837402344 333.625732421875 205.2131195068359 C 333.625732421875 205.2131195068359 333.6256713867188 205.213134765625 333.6256103515625 205.2131500244141 L 333.62548828125 205.2132110595703 C 333.62548828125 205.2132263183594 333.62548828125 205.2132263183594 333.62548828125 205.2132263183594 L 333.6249389648438 205.2134857177734 C 333.6248779296875 205.2135314941406 333.6248168945313 205.2135620117188 333.6246948242188 205.2135925292969 L 333.6222534179688 205.2147979736328 C 333.6221923828125 205.2148132324219 333.6221313476563 205.2148284912109 333.6220703125 205.2148590087891 L 333.61767578125 205.2169647216797 C 333.61767578125 205.2169647216797 333.61767578125 205.2169799804688 333.61767578125 205.2169799804688 L 333.61181640625 205.2197875976563 C 333.6116333007813 205.2198791503906 333.6115112304688 205.219970703125 333.611328125 205.2200469970703 L 333.5706176757813 205.2396697998047 C 333.5700073242188 205.2399444580078 333.5693359375 205.2402648925781 333.5687866210938 205.2405395507813 L 333.502685546875 205.2723999023438 C 333.50146484375 205.2729644775391 333.5003662109375 205.2734832763672 333.4992065429688 205.2740631103516 L 333.4796142578125 205.2834930419922 C 333.4794311523438 205.2835998535156 333.4793701171875 205.2836151123047 333.4791259765625 205.2837371826172 L 333.457763671875 205.2940368652344 C 333.4567260742188 205.2945098876953 333.4558715820313 205.2949523925781 333.454833984375 205.2954254150391 L 333.4457397460938 205.2998352050781 C 333.4447021484375 205.3003234863281 333.4436645507813 205.3008117675781 333.442626953125 205.3013000488281 L 333.4389038085938 205.3031158447266 C 333.4385375976563 205.3032989501953 333.4381103515625 205.3034973144531 333.4376831054688 205.3036956787109 L 333.4334106445313 205.3057708740234 C 333.4324951171875 205.3062133789063 333.4317016601563 205.3065948486328 333.4307861328125 205.3070373535156 L 333.4195556640625 205.3124389648438 C 333.4191284179688 205.3126220703125 333.4187622070313 205.3128204345703 333.4183349609375 205.3130187988281 L 333.412841796875 205.315673828125 C 333.4058227539063 205.3190612792969 333.398681640625 205.3224792480469 333.391357421875 205.3260345458984 L 333.37890625 205.33203125 C 333.37841796875 205.3322448730469 333.3781127929688 205.3323974609375 333.377685546875 205.3326110839844 L 333.3515014648438 205.3452301025391 C 333.35009765625 205.3459014892578 333.34912109375 205.3463592529297 333.3477172851563 205.3470458984375 L 333.3026733398438 205.3687591552734 C 333.3021240234375 205.3690032958984 333.3018798828125 205.3691253662109 333.3013916015625 205.3693695068359 L 333.2940673828125 205.3728942871094 C 333.2901611328125 205.3747711181641 333.286376953125 205.3766021728516 333.2824096679688 205.3785095214844 L 333.2706909179688 205.3841552734375 C 333.269287109375 205.3848419189453 333.2681274414063 205.3853759765625 333.2667236328125 205.3860626220703 L 333.254150390625 205.3921203613281 C 333.2529296875 205.3927154541016 333.2515258789063 205.3933868408203 333.250244140625 205.3939971923828 L 333.2199096679688 205.4086151123047 C 333.2176513671875 205.4096984863281 333.2157592773438 205.4106140136719 333.2135009765625 205.4117126464844 L 333.2008666992188 205.4178009033203 C 333.198974609375 205.4187164306641 333.1968383789063 205.4197387695313 333.1949462890625 205.420654296875 L 333.1927490234375 205.4217071533203 C 333.143798828125 205.4452972412109 333.0910034179688 205.4707489013672 333.034423828125 205.4980010986328 L 333.0342407226563 205.4980773925781 C 329.7644653320313 207.0734252929688 314.0449829101563 214.6468811035156 314.0449829101563 214.6468811035156 C 313.9816284179688 214.6774139404297 313.9146728515625 214.6918640136719 313.8487548828125 214.6918640136719 C 313.6802978515625 214.6918640136719 313.5185546875 214.5974426269531 313.4405517578125 214.4355010986328 C 313.3319702148438 214.210205078125 313.4266357421875 213.9395904541016 313.6519165039063 213.8310241699219 L 333.2326049804688 204.3972625732422 C 333.2959594726563 204.3667449951172 333.3629150390625 204.3522796630859 333.4288330078125 204.3522796630859 Z"/>
      </g>
      <rect id="矩形_2145" data-name="矩形 2145" class="cls-4" width="253.153" height="240.007" transform="translate(256.904 225.48)"/>
      <g id="矩形_2146" data-name="矩形 2146" class="cls-5" transform="translate(286.17 253.226)">
        <rect class="cls-16" width="194.62" height="184.514"/>
        <rect class="cls-18" x="-1.811" y="-1.811" width="198.243" height="188.137"/>
      </g>
      <path id="路径_12269" data-name="路径 12269" class="cls-6" d="M589.4,186.635V409.84l-79.343,55.647V225.48Z"/>
      <g id="路径_12270" data-name="路径 12270" class="cls-3">
        <path class="cls-16" d="M579.4,221.78V388.721l-59.343,41.62V250.834Z"/>
        <path class="cls-17" d="M 580.3052368164063 264.3440856933594 C 580.805419921875 264.3440856933594 581.2108764648438 264.7495727539063 581.2108764648438 265.2496948242188 L 581.2108764648438 286.9844970703125 C 581.2108764648438 287.484619140625 580.805419921875 287.8901062011719 580.3052368164063 287.8901062011719 C 579.8051147460938 287.8901062011719 579.399658203125 287.484619140625 579.399658203125 286.9844970703125 L 579.399658203125 265.2496948242188 C 579.399658203125 264.7495727539063 579.8051147460938 264.3440856933594 580.3052368164063 264.3440856933594 Z M 580.3052368164063 307.8136291503906 C 580.805419921875 307.8136291503906 581.2108764648438 308.2190551757813 581.2108764648438 308.71923828125 L 581.2108764648438 330.4539794921875 C 581.2108764648438 330.9541625976563 580.805419921875 331.3595886230469 580.3052368164063 331.3595886230469 C 579.8051147460938 331.3595886230469 579.399658203125 330.9541625976563 579.399658203125 330.4539794921875 L 579.399658203125 308.71923828125 C 579.399658203125 308.2190551757813 579.8051147460938 307.8136291503906 580.3052368164063 307.8136291503906 Z M 580.3052368164063 351.2831115722656 C 580.805419921875 351.2831115722656 581.2108764648438 351.6885681152344 581.2108764648438 352.188720703125 L 581.2108764648438 373.9234924316406 C 581.2108764648438 374.4236450195313 580.805419921875 374.8291015625 580.3052368164063 374.8291015625 C 579.8051147460938 374.8291015625 579.399658203125 374.4236450195313 579.399658203125 373.9234924316406 L 579.399658203125 352.188720703125 C 579.399658203125 351.6885681152344 579.8051147460938 351.2831115722656 580.3052368164063 351.2831115722656 Z M 574.2395629882813 392.540283203125 C 574.5248413085938 392.540283203125 574.8055419921875 392.6746826171875 574.9818115234375 392.9259948730469 C 575.2689819335938 393.33544921875 575.1698608398438 393.9002380371094 574.7603149414063 394.1874389648438 L 556.9658203125 406.6675720214844 C 556.8076171875 406.7785339355469 556.626220703125 406.8318176269531 556.4465942382813 406.8318176269531 C 556.1613159179688 406.8318176269531 555.880615234375 406.6974182128906 555.704345703125 406.4461059570313 C 555.4181518554688 406.0380249023438 555.515625 405.4757080078125 555.921630859375 405.1876220703125 L 571.9482421875 393.9474182128906 C 571.9489135742188 393.9469299316406 571.9493408203125 393.9466247558594 571.9500122070313 393.9461669921875 L 572.0125732421875 393.9022827148438 C 572.013916015625 393.9013366699219 572.014892578125 393.900634765625 572.0162353515625 393.8996887207031 L 572.0404052734375 393.8827514648438 C 572.0875244140625 393.8497314453125 572.1341552734375 393.8170166015625 572.1795654296875 393.78515625 L 572.1964111328125 393.7733764648438 C 572.2047119140625 393.7675170898438 572.2133178710938 393.761474609375 572.2216186523438 393.7556457519531 L 572.2301025390625 393.7497253417969 C 572.2478637695313 393.7372436523438 572.2657470703125 393.7247314453125 572.2832641601563 393.7124328613281 L 572.28955078125 393.7080078125 C 572.2936401367188 393.7051696777344 572.2973022460938 393.7025756835938 572.3013916015625 393.6997375488281 L 572.302001953125 393.6992797851563 C 573.1859741210938 393.0793151855469 573.7203369140625 392.7045288085938 573.7203369140625 392.7045288085938 C 573.8785400390625 392.5935974121094 574.0599365234375 392.540283203125 574.2395629882813 392.540283203125 Z M 538.6505126953125 417.5006103515625 C 538.9357299804688 417.5006103515625 539.2164916992188 417.635009765625 539.3927001953125 417.8862609863281 C 539.6798706054688 418.2957763671875 539.5807495117188 418.8605346679688 539.1712646484375 419.147705078125 L 521.376708984375 431.6278686523438 C 521.218505859375 431.7388000488281 521.037109375 431.7921142578125 520.8575439453125 431.7921142578125 C 520.572265625 431.7921142578125 520.29150390625 431.65771484375 520.1152954101563 431.4064331054688 C 519.8280639648438 430.9969482421875 519.92724609375 430.4321899414063 520.3367309570313 430.1449890136719 C 520.3367309570313 430.1449890136719 538.1312866210938 417.6648559570313 538.1312866210938 417.6648559570313 C 538.2894897460938 417.5538940429688 538.4708862304688 417.5006103515625 538.6505126953125 417.5006103515625 Z M 519.151123046875 386.3082580566406 C 519.6512451171875 386.3082580566406 520.0567016601563 386.7137451171875 520.0567016601563 387.2138977050781 C 520.0567016601563 387.2138977050781 520.0567016601563 408.9486694335938 520.0567016601563 408.9486694335938 C 520.0567016601563 409.4487915039063 519.6512451171875 409.854248046875 519.151123046875 409.854248046875 C 518.6509399414063 409.854248046875 518.2454833984375 409.4487915039063 518.2454833984375 408.9486694335938 L 518.2454833984375 387.2138977050781 C 518.2454833984375 386.7137451171875 518.6509399414063 386.3082580566406 519.151123046875 386.3082580566406 Z M 519.151123046875 342.8387756347656 C 519.6512451171875 342.8387756347656 520.0567016601563 343.2442321777344 520.0567016601563 343.744384765625 C 520.0567016601563 343.744384765625 520.0567016601563 365.4791259765625 520.0567016601563 365.4791259765625 C 520.0567016601563 365.9792785644531 519.6512451171875 366.384765625 519.151123046875 366.384765625 C 518.6509399414063 366.384765625 518.2454833984375 365.9792785644531 518.2454833984375 365.4791259765625 L 518.2454833984375 343.744384765625 C 518.2454833984375 343.2442321777344 518.6509399414063 342.8387756347656 519.151123046875 342.8387756347656 Z M 519.151123046875 299.3692626953125 C 519.6512451171875 299.3692626953125 520.0567016601563 299.7747192382813 520.0567016601563 300.2748718261719 C 520.0567016601563 300.2748718261719 520.0567016601563 322.0096130371094 520.0567016601563 322.0096130371094 C 520.0567016601563 322.5097961425781 519.6512451171875 322.9152221679688 519.151123046875 322.9152221679688 C 518.6509399414063 322.9152221679688 518.2454833984375 322.5097961425781 518.2454833984375 322.0096130371094 L 518.2454833984375 300.2748718261719 C 518.2454833984375 299.7747192382813 518.6509399414063 299.3692626953125 519.151123046875 299.3692626953125 Z M 519.151123046875 255.8997497558594 C 519.6512451171875 255.8997497558594 520.0567016601563 256.3052062988281 520.0567016601563 256.8053588867188 C 520.0567016601563 256.8053588867188 520.0567016601563 278.5401306152344 520.0567016601563 278.5401306152344 C 520.0567016601563 279.0402526855469 519.6512451171875 279.4457397460938 519.151123046875 279.4457397460938 C 518.6509399414063 279.4457397460938 518.2454833984375 279.0402526855469 518.2454833984375 278.5401306152344 L 518.2454833984375 256.8053588867188 C 518.2454833984375 256.3052062988281 518.6509399414063 255.8997497558594 519.151123046875 255.8997497558594 Z M 553.3359375 232.6260986328125 C 553.6708374023438 232.6260986328125 553.9927368164063 232.8126220703125 554.1499633789063 233.1336975097656 C 554.369873046875 233.5829162597656 554.1840209960938 234.1253662109375 553.7348022460938 234.3452758789063 C 553.7348022460938 234.3452758789063 553.7343139648438 234.3455505371094 553.7332763671875 234.3460388183594 L 553.7332153320313 234.3460693359375 C 553.7322998046875 234.3465270996094 553.7308959960938 234.3471984863281 553.7290649414063 234.3480834960938 L 553.7281494140625 234.3485412597656 C 553.7281494140625 234.3485412597656 553.72802734375 234.3486022949219 553.7279663085938 234.3486328125 L 553.7275390625 234.3488464355469 C 553.7274169921875 234.3489074707031 553.7273559570313 234.3489379882813 553.7272338867188 234.3489990234375 L 553.7271118164063 234.3490600585938 C 553.7269287109375 234.34912109375 553.726806640625 234.3492126464844 553.7266235351563 234.3493041992188 L 553.7254638671875 234.3498840332031 C 553.7254638671875 234.3498840332031 553.7254028320313 234.3498840332031 553.7254028320313 234.3498840332031 L 553.721435546875 234.3518371582031 C 553.7205200195313 234.3522644042969 553.7195434570313 234.3527526855469 553.7185668945313 234.3532409667969 L 553.7181396484375 234.3534240722656 C 553.718017578125 234.353515625 553.7178344726563 234.3536071777344 553.7176513671875 234.3536682128906 L 553.7171630859375 234.3539428710938 C 553.71630859375 234.3543395996094 553.7155151367188 234.354736328125 553.7146606445313 234.3551635742188 L 553.7139282226563 234.3555297851563 C 553.7138061523438 234.3555603027344 553.7138061523438 234.3555603027344 553.7137451171875 234.3555908203125 L 553.712890625 234.3559875488281 C 553.7127685546875 234.3560791015625 553.7125244140625 234.3561706542969 553.71240234375 234.3562622070313 L 553.708740234375 234.3580627441406 C 553.7084350585938 234.3581848144531 553.7081909179688 234.3583068847656 553.7078857421875 234.3584594726563 L 553.7063598632813 234.3591918945313 C 553.7061157226563 234.3593139648438 553.705810546875 234.3594665527344 553.70556640625 234.359619140625 L 553.7042846679688 234.3601989746094 C 553.703369140625 234.3606872558594 553.7023315429688 234.3611755371094 553.7013549804688 234.3616638183594 L 553.6986083984375 234.3630065917969 C 553.6982421875 234.3631896972656 553.6978759765625 234.3633728027344 553.697509765625 234.363525390625 L 553.6943359375 234.3651123046875 C 553.694091796875 234.3652038574219 553.6937866210938 234.3653564453125 553.693603515625 234.3654479980469 L 553.6923217773438 234.3660888671875 C 553.6915893554688 234.366455078125 553.6908569335938 234.3668212890625 553.6900634765625 234.3671875 L 553.68896484375 234.3677062988281 C 553.6887817382813 234.3677978515625 553.6884765625 234.3679504394531 553.6882934570313 234.3680725097656 L 553.6873168945313 234.3685302734375 C 553.6854248046875 234.3694458007813 553.68359375 234.370361328125 553.681640625 234.3713073730469 L 553.6809692382813 234.3716430664063 C 553.677734375 234.3731994628906 553.6743774414063 234.3748474121094 553.6709594726563 234.3765563964844 L 553.6685180664063 234.3777465820313 C 553.668212890625 234.3778991699219 553.6681518554688 234.3779296875 553.6677856445313 234.3780822753906 L 553.6661376953125 234.3788757324219 C 553.6649780273438 234.3794860839844 553.6639404296875 234.3799743652344 553.6627197265625 234.3805541992188 L 553.6610717773438 234.3813781738281 C 553.6605834960938 234.3816223144531 553.6602172851563 234.3818054199219 553.6597290039063 234.3820495605469 L 553.6573486328125 234.3831787109375 C 553.6568603515625 234.3834533691406 553.6563110351563 234.3837280273438 553.6558227539063 234.3839721679688 L 553.6488037109375 234.3873901367188 C 553.6480712890625 234.3877258300781 553.6475219726563 234.3880004882813 553.6467895507813 234.3883666992188 L 553.63916015625 234.39208984375 C 553.6390991210938 234.3921508789063 553.638916015625 234.3922119140625 553.6388549804688 234.3922729492188 L 553.6336059570313 234.3948364257813 C 553.6334838867188 234.3948669433594 553.6332397460938 234.3949890136719 553.6331787109375 234.3950500488281 L 553.6303100585938 234.3964538574219 C 553.6300048828125 234.3966064453125 553.6296997070313 234.396728515625 553.6294555664063 234.3968811035156 L 553.626708984375 234.398193359375 C 553.6249389648438 234.3990783691406 553.6232299804688 234.39990234375 553.6213989257813 234.4007873535156 L 553.6212768554688 234.4008483886719 C 553.62060546875 234.4011840820313 553.6198120117188 234.4015808105469 553.6190795898438 234.4019470214844 L 553.6107788085938 234.406005859375 C 553.6068115234375 234.4079284667969 553.6029052734375 234.4098510742188 553.5988159179688 234.411865234375 L 553.5947265625 234.4138793945313 C 553.5943603515625 234.4140319824219 553.593994140625 234.4142456054688 553.5936279296875 234.4143981933594 L 553.5925903320313 234.4149169921875 C 553.5864868164063 234.4179077148438 553.5801391601563 234.4209899902344 553.5736083984375 234.4241943359375 L 553.5733032226563 234.4243469238281 C 553.55615234375 234.4327392578125 553.5376586914063 234.4418029785156 553.5179443359375 234.4514770507813 L 553.5170288085938 234.451904296875 C 553.51171875 234.4544982910156 553.5059814453125 234.4573364257813 553.50048828125 234.4599914550781 L 553.4957885742188 234.4623107910156 C 553.4927368164063 234.4638061523438 553.4896240234375 234.46533203125 553.4865112304688 234.4668273925781 L 553.48583984375 234.4671630859375 C 553.4834594726563 234.4683227539063 553.4810180664063 234.4695129394531 553.4786376953125 234.470703125 L 553.4744262695313 234.4727478027344 C 553.473388671875 234.4732666015625 553.4725952148438 234.4736633300781 553.4715576171875 234.4741821289063 L 553.467041015625 234.4763793945313 C 553.4664306640625 234.4766845703125 553.4657592773438 234.4770202636719 553.4651489257813 234.477294921875 L 553.4617919921875 234.4789428710938 C 553.4603881835938 234.4796447753906 553.458740234375 234.4804382324219 553.4573364257813 234.4811096191406 L 553.4555053710938 234.4820251464844 C 553.455322265625 234.4821166992188 553.4551391601563 234.4822082519531 553.4550170898438 234.4822692871094 L 553.4439697265625 234.4876708984375 C 553.4437866210938 234.4877624511719 553.443603515625 234.4878540039063 553.4434814453125 234.4879150390625 L 553.4385986328125 234.4902954101563 C 553.4324951171875 234.4932861328125 553.4259033203125 234.4964904785156 553.4196166992188 234.4996032714844 L 553.4169311523438 234.5008850097656 C 553.4164428710938 234.5011291503906 553.4157104492188 234.5014953613281 553.4152221679688 234.5017395019531 L 553.41357421875 234.5025634765625 C 553.4125366210938 234.5030517578125 553.4117431640625 234.5034484863281 553.4107666015625 234.5039367675781 L 553.4016723632813 234.5083923339844 C 553.3969116210938 234.5107116699219 553.3920288085938 234.5130920410156 553.38720703125 234.5154724121094 L 553.3839111328125 234.5170593261719 C 553.3833618164063 234.517333984375 553.3827514648438 234.5176391601563 553.3822021484375 234.5179138183594 L 553.381103515625 234.5184326171875 C 553.3798828125 234.51904296875 553.378662109375 234.5196533203125 553.3773803710938 234.520263671875 L 553.370849609375 234.5234680175781 C 553.370849609375 234.5234680175781 553.3707885742188 234.5234985351563 553.3707885742188 234.5234985351563 L 553.3655395507813 234.5260620117188 C 553.3639526367188 234.52685546875 553.3624877929688 234.5275573730469 553.3609008789063 234.5283508300781 L 553.3583374023438 234.5296020507813 C 553.3577880859375 234.5298767089844 553.3572387695313 234.5301208496094 553.356689453125 234.5303955078125 L 553.3448486328125 234.5361938476563 C 553.3448486328125 234.5361938476563 553.3448486328125 234.5361938476563 553.3448486328125 234.5361938476563 L 553.3404541015625 234.538330078125 C 553.3404541015625 234.538330078125 553.3403930664063 234.5383911132813 553.3403930664063 234.5383911132813 L 553.3367309570313 234.5401611328125 C 553.336181640625 234.5404357910156 553.3356323242188 234.5407104492188 553.3350830078125 234.5409851074219 L 553.3325805664063 234.5422058105469 C 553.3302001953125 234.5433654785156 553.32763671875 234.5446166992188 553.3251953125 234.5458374023438 L 553.2908325195313 234.5626525878906 C 553.2906494140625 234.562744140625 553.290283203125 234.5628967285156 553.2901000976563 234.56298828125 L 553.285888671875 234.5650634765625 C 553.285888671875 234.5650634765625 553.2855834960938 234.5652160644531 553.2855834960938 234.5652160644531 L 553.2728271484375 234.5714721679688 C 553.27099609375 234.5723571777344 553.2692260742188 234.5732421875 553.2673950195313 234.5741271972656 L 553.2637939453125 234.5758972167969 C 553.2627563476563 234.5763854980469 553.2616577148438 234.576904296875 553.2606811523438 234.577392578125 L 553.2560424804688 234.5796813964844 C 553.2526245117188 234.5813598632813 553.2490234375 234.5830993652344 553.2455444335938 234.5848083496094 L 553.244140625 234.5855102539063 C 553.242919921875 234.5861206054688 553.2416381835938 234.5867309570313 553.2404174804688 234.5873413085938 L 553.2396850585938 234.5876770019531 C 553.2386474609375 234.5881958007813 553.2372436523438 234.5888671875 553.2362670898438 234.58935546875 L 553.2330322265625 234.5909423828125 C 553.232666015625 234.5911254882813 553.2327270507813 234.5910949707031 553.2322998046875 234.59130859375 L 553.228515625 234.5931701660156 C 553.2279052734375 234.5934753417969 553.227294921875 234.59375 553.2266845703125 234.5940551757813 L 553.2131958007813 234.6006469726563 C 553.2130126953125 234.6007690429688 553.2125854492188 234.6009521484375 553.2123413085938 234.6010437011719 L 553.2053833007813 234.6044616699219 C 553.2037353515625 234.6052856445313 553.2022705078125 234.6059875488281 553.2006225585938 234.6068115234375 L 553.198486328125 234.6078491210938 C 553.1978759765625 234.608154296875 553.1976928710938 234.6082458496094 553.1970825195313 234.6085510253906 L 553.1943359375 234.6098937988281 C 553.1930541992188 234.6105346679688 553.1914672851563 234.6112976074219 553.190185546875 234.6119079589844 L 553.1893310546875 234.6123352050781 C 553.1880493164063 234.6129760742188 553.1864013671875 234.61376953125 553.1851196289063 234.6144104003906 L 553.1837158203125 234.6150817871094 C 553.173583984375 234.6200256347656 553.1636962890625 234.6248779296875 553.1533203125 234.6299438476563 L 553.1530151367188 234.6300964355469 C 553.1513061523438 234.6309814453125 553.1498413085938 234.6316528320313 553.1480712890625 234.6325378417969 L 553.1475219726563 234.6328125 C 553.1393432617188 234.6368103027344 553.1307373046875 234.6410217285156 553.1223754882813 234.6451110839844 L 553.119384765625 234.6465759277344 C 553.1187133789063 234.6469116210938 553.1181640625 234.6471862792969 553.1174926757813 234.6475219726563 L 553.1129150390625 234.6497497558594 C 553.097412109375 234.6573181152344 553.0818481445313 234.6649780273438 553.0658569335938 234.6727905273438 L 553.0655517578125 234.6729431152344 C 553.0507202148438 234.6802062988281 553.0359497070313 234.6874084472656 553.0206909179688 234.6948852539063 L 553.0194091796875 234.6955261230469 C 553.0062866210938 234.7019653320313 552.9925537109375 234.7086791992188 552.9791259765625 234.7152404785156 L 552.9773559570313 234.7161254882813 C 552.9699096679688 234.7197875976563 552.9622802734375 234.7235107421875 552.9547119140625 234.7272033691406 L 552.9518432617188 234.7286376953125 C 552.8947143554688 234.756591796875 552.8340454101563 234.7862854003906 552.7713623046875 234.8169555664063 L 552.7693481445313 234.8179321289063 C 552.7680053710938 234.8186340332031 552.76611328125 234.8195190429688 552.7647094726563 234.8202209472656 L 552.74951171875 234.8276672363281 C 552.7447509765625 234.8299865722656 552.73974609375 234.8324584960938 552.7349243164063 234.8348083496094 L 552.728515625 234.8379516601563 C 552.7265014648438 234.8389282226563 552.7249755859375 234.8396911621094 552.7229614257813 234.8406677246094 L 552.7177124023438 234.8432312011719 C 552.7151489257813 234.844482421875 552.7125244140625 234.8457641601563 552.7099609375 234.8470153808594 L 552.7083129882813 234.8478393554688 C 552.7068481445313 234.8485412597656 552.705810546875 234.8490905761719 552.704345703125 234.8497619628906 L 552.6998901367188 234.8519592285156 C 552.6973266601563 234.8532409667969 552.6948852539063 234.8544311523438 552.6922607421875 234.8556823730469 L 552.692138671875 234.8557434082031 C 552.6427612304688 234.8799133300781 552.5918579101563 234.9048461914063 552.5394287109375 234.9305419921875 L 552.5392456054688 234.9306030273438 C 552.5176391601563 234.9411926269531 552.4954833984375 234.9520568847656 552.4733276367188 234.962890625 L 552.4724731445313 234.9632873535156 C 552.4503173828125 234.9741516113281 552.427734375 234.9851989746094 552.4050903320313 234.9963073730469 L 552.4037475585938 234.9969482421875 C 552.1207275390625 235.135498046875 551.7984619140625 235.2933044433594 551.44384765625 235.4668884277344 L 551.4425048828125 235.4675598144531 C 550.9309692382813 235.718017578125 550.3512573242188 236.0018005371094 549.72216796875 236.309814453125 L 549.7171630859375 236.3122253417969 C 549.7147216796875 236.3134460449219 549.7113037109375 236.3151245117188 549.7088623046875 236.3163146972656 L 549.70703125 236.3171997070313 C 549.6962280273438 236.322509765625 549.6846313476563 236.3281555175781 549.6737670898438 236.33349609375 L 549.6708374023438 236.3349304199219 C 549.6678466796875 236.3363952636719 549.6647338867188 236.3379211425781 549.6618041992188 236.33935546875 L 549.6468505859375 236.3466796875 C 549.6439208984375 236.3481140136719 549.6416625976563 236.3492126464844 549.638671875 236.3506774902344 L 549.6334228515625 236.3532409667969 C 549.6314086914063 236.3542175292969 549.6293334960938 236.3552551269531 549.6273193359375 236.3562316894531 L 549.6224975585938 236.3585815429688 C 549.6200561523438 236.3598022460938 549.618408203125 236.360595703125 549.6159057617188 236.36181640625 L 549.610595703125 236.3644409179688 C 549.5881958007813 236.3753967285156 549.5643920898438 236.3870544433594 549.5419311523438 236.3980407714844 L 549.5385131835938 236.3997192382813 C 549.5365600585938 236.4006958007813 549.5347900390625 236.4015197753906 549.5328369140625 236.4024963378906 L 549.5269775390625 236.4053649902344 C 549.5194702148438 236.4090576171875 549.5126342773438 236.4123840332031 549.505126953125 236.4160766601563 L 549.5050659179688 236.4161071777344 C 549.498046875 236.4195251464844 549.4917602539063 236.422607421875 549.4847412109375 236.426025390625 L 549.4764404296875 236.4301147460938 C 549.4754638671875 236.4306030273438 549.4747924804688 236.430908203125 549.4738159179688 236.431396484375 L 549.4544067382813 236.44091796875 C 549.452392578125 236.44189453125 549.4492797851563 236.4434204101563 549.447265625 236.4443969726563 L 549.4392700195313 236.4483032226563 C 549.4392700195313 236.4483032226563 549.4384765625 236.4486999511719 549.4384765625 236.4486999511719 L 549.4283447265625 236.4536743164063 C 549.4268188476563 236.4544067382813 549.4252319335938 236.4552001953125 549.4237060546875 236.4559326171875 L 549.4146728515625 236.4603576660156 C 549.4086303710938 236.4633178710938 549.403076171875 236.4660034179688 549.3970336914063 236.468994140625 L 549.3928833007813 236.4710083007813 C 549.391357421875 236.4717407226563 549.3907470703125 236.4720458984375 549.3892211914063 236.4728088378906 L 549.3803100585938 236.4771728515625 C 549.3792724609375 236.4776611328125 549.37744140625 236.4785766601563 549.3764038085938 236.4790649414063 L 549.35693359375 236.4886169433594 C 549.3533935546875 236.4903564453125 549.3492431640625 236.4924011230469 549.345703125 236.494140625 L 549.3329467773438 236.5003662109375 C 549.322265625 236.5055847167969 549.3114013671875 236.5108947753906 549.3007202148438 236.5161437988281 L 549.2845458984375 236.5240478515625 C 549.233642578125 236.5489807128906 549.1815795898438 236.574462890625 549.1300659179688 236.5996704101563 L 549.1231079101563 236.6030883789063 C 549.1138305664063 236.6076354980469 549.1036376953125 236.6126403808594 549.0943603515625 236.6171875 L 549.0875854492188 236.6204833984375 C 549.0679931640625 236.6300964355469 549.0482177734375 236.6397399902344 549.028564453125 236.6493835449219 L 549.0264282226563 236.6504211425781 C 549.017578125 236.6547546386719 549.0093383789063 236.6588134765625 549.00048828125 236.6631164550781 L 548.959716796875 236.6830749511719 C 548.959716796875 236.6830749511719 548.959228515625 236.6833190917969 548.959228515625 236.6833190917969 L 548.9147338867188 236.7051086425781 C 548.9110717773438 236.7069091796875 548.9075927734375 236.7086181640625 548.9039306640625 236.7104187011719 L 548.8615112304688 236.7311706542969 C 548.8599243164063 236.73193359375 548.8580322265625 236.7328796386719 548.8564453125 236.733642578125 L 548.8359985351563 236.74365234375 C 548.8344116210938 236.7444152832031 548.8327026367188 236.7452697753906 548.8311157226563 236.7460632324219 L 548.8244018554688 236.7493286132813 C 548.8097534179688 236.7565307617188 548.7944946289063 236.7639770507813 548.77978515625 236.7711791992188 L 548.7646484375 236.7785949707031 C 548.7609252929688 236.7803955078125 548.7579345703125 236.7818908691406 548.7542114257813 236.78369140625 L 548.7335815429688 236.7937927246094 C 548.7330932617188 236.7940368652344 548.7318725585938 236.7946166992188 548.7313842773438 236.7948913574219 L 548.712158203125 236.8042907714844 C 548.7068481445313 236.806884765625 548.7015380859375 236.8094787597656 548.6962890625 236.8120727539063 L 548.6611938476563 236.8292236328125 C 548.6543579101563 236.8326110839844 548.6484375 236.8354797363281 548.6415405273438 236.8388671875 L 548.6356811523438 236.8417358398438 C 548.614990234375 236.8518676757813 548.5953979492188 236.8614501953125 548.5746459960938 236.8716125488281 L 548.5731201171875 236.8723449707031 C 548.5619506835938 236.8778381347656 548.5499267578125 236.8836975097656 548.5387573242188 236.8891906738281 L 548.5338134765625 236.8916015625 C 548.4666137695313 236.9245300292969 548.3995361328125 236.9573364257813 548.33154296875 236.9906311035156 L 548.3290405273438 236.9918518066406 C 548.30908203125 237.0016174316406 548.2893676757813 237.0112915039063 548.269287109375 237.0210876464844 L 548.2516479492188 237.0297241210938 C 548.2110595703125 237.0496215820313 548.1696166992188 237.0698852539063 548.1287841796875 237.0899047851563 L 548.1179809570313 237.0951843261719 C 548.0498046875 237.1285705566406 547.9808959960938 237.1622924804688 547.912109375 237.1959838867188 L 547.9099731445313 237.197021484375 C 547.8934936523438 237.2051086425781 547.876953125 237.2131958007813 547.8604125976563 237.2212829589844 L 547.8561401367188 237.223388671875 C 547.8434448242188 237.2295837402344 547.8313598632813 237.2355346679688 547.818603515625 237.2417297363281 L 547.8172607421875 237.242431640625 C 547.8095092773438 237.2462158203125 547.8014526367188 237.2501525878906 547.7937622070313 237.2539367675781 L 547.7901000976563 237.2557067871094 C 547.5250854492188 237.3854675292969 547.2556762695313 237.517333984375 546.9827270507813 237.6509704589844 L 546.9824829101563 237.6510925292969 C 546.978515625 237.6530456542969 546.9742431640625 237.6551513671875 546.97021484375 237.6571044921875 L 546.968505859375 237.6579284667969 C 546.954833984375 237.6646423339844 546.9420166015625 237.6709289550781 546.9282836914063 237.6776428222656 L 546.9273071289063 237.6781005859375 C 541.2947387695313 240.4357299804688 534.2139892578125 243.90234375 534.2139892578125 243.90234375 C 534.0858764648438 243.965087890625 533.9500732421875 243.9948120117188 533.81640625 243.9948120117188 C 533.4815063476563 243.9948120117188 533.1596069335938 243.8082885742188 533.0023803710938 243.4872131347656 C 532.782470703125 243.0379943847656 532.9683227539063 242.4955444335938 533.4175415039063 242.275634765625 L 552.9383544921875 232.7185668945313 C 553.0664672851563 232.6558227539063 553.2022705078125 232.6260986328125 553.3359375 232.6260986328125 Z M 579.0007934570313 220.06103515625 C 579.335693359375 220.06103515625 579.6575927734375 220.24755859375 579.8148193359375 220.5686340332031 C 579.8776245117188 220.6968994140625 579.9072875976563 220.8327331542969 579.9072875976563 220.9665222167969 C 580.0274047851563 220.9076232910156 580.1624755859375 220.8746032714844 580.3052368164063 220.8746032714844 C 580.805419921875 220.8746032714844 581.2108764648438 221.280029296875 581.2108764648438 221.7802124023438 L 581.2108764648438 243.5149536132813 C 581.2108764648438 244.01513671875 580.805419921875 244.4205627441406 580.3052368164063 244.4205627441406 C 579.8051147460938 244.4205627441406 579.399658203125 244.01513671875 579.399658203125 243.5149536132813 L 579.399658203125 221.7802124023438 L 579.399658203125 221.7802124023438 C 579.399658203125 221.7802124023438 579.399658203125 221.7802124023438 579.399658203125 221.7802124023438 C 579.399658203125 221.7802124023438 579.399658203125 221.7802124023438 579.399658203125 221.7802124023438 C 579.399658203125 221.7802124023438 579.399658203125 221.7802124023438 579.399658203125 221.7802124023438 C 579.399658203125 221.7802124023438 579.399658203125 221.7802124023438 579.399658203125 221.7802124023438 L 573.2548217773438 224.7886047363281 C 573.1268920898438 224.85107421875 572.991455078125 224.8806762695313 572.8580932617188 224.8806762695313 C 572.5231323242188 224.8806762695313 572.2012329101563 224.6941528320313 572.0440673828125 224.3730773925781 C 571.8240966796875 223.9238891601563 572.010009765625 223.3814392089844 572.4591674804688 223.1614990234375 L 578.6032104492188 220.1534729003906 C 578.7313232421875 220.0907592773438 578.8671264648438 220.06103515625 579.0007934570313 220.06103515625 Z"/>
      </g>
      <g id="组_4615" data-name="组 4615">
        <circle id="椭圆_2327" data-name="椭圆 2327" class="cls-7" cx="22.359" cy="22.359" r="22.359" transform="translate(362.13 352.54)"/>
        <path id="路径_12271" data-name="路径 12271" class="cls-7" d="M356.476,293.092s-16.946-9.43-25.01,10.012a54.3,54.3,0,0,0-1.224,6.436c-.212.976-.489,7.907-6.818,8.938-.066.457.495.681,3.946,3.046s8.486,5.585,11.906,5.663,10.984,1.327,15.084-4.7S363.432,300.535,356.476,293.092Z"/>
        <path id="路径_12272" data-name="路径 12272" class="cls-8" d="M350.513,299.622s-9.887-5.5-14.592,5.842a31.644,31.644,0,0,0-.714,3.755c-.124.569-.286,4.613-3.978,5.214-.038.267.289.4,2.3,1.778s4.951,3.258,6.947,3.3,6.408.774,8.8-2.74S354.571,303.965,350.513,299.622Z"/>
        <path id="路径_12273" data-name="路径 12273" class="cls-7" d="M409.693,292.139s16.638-9.963,25.315,9.214a54.09,54.09,0,0,1,1.428,6.394c.243.968.74,7.887,7.1,8.716.08.456-.473.7-3.847,3.17s-8.305,5.852-11.721,6.039-10.937,1.674-15.225-4.215S402.977,299.8,409.693,292.139Z"/>
        <path id="路径_12274" data-name="路径 12274" class="cls-8" d="M415.242,299.622s9.888-5.5,14.592,5.842a31.677,31.677,0,0,1,.715,3.755c.123.569.285,4.613,3.977,5.214.039.267-.288.4-2.3,1.778s-4.951,3.258-6.946,3.3-6.409.774-8.8-2.74S411.184,303.965,415.242,299.622Z"/>
        <path id="路径_12275" data-name="路径 12275" class="cls-7" d="M344.1,313.543s.619,5.7-2.274,8.824-5.363,13.986-2.947,20.513c2.24,7.413,5.994,17.63,28.542,25.757s47.3-5.132,49.721-6.94,13.351-13.892,12.875-22.584-2.072-12.084-7.166-19.643c-2.573-3.6-2.035-8.844-2.215-10.092s-3.236-15.987-20.716-20.871c-11.111-6.2-37.375-.963-43.443,4.585S345.451,305.988,344.1,313.543Z"/>
        <ellipse id="椭圆_2328" data-name="椭圆 2328" class="cls-9" cx="14.867" cy="7.214" rx="14.867" ry="7.214" transform="translate(368.644 325.573) rotate(-1.408)"/>
        <circle id="椭圆_2329" data-name="椭圆 2329" class="cls-10" cx="9.277" cy="9.277" r="9.277" transform="translate(405.319 333.185)"/>
        <circle id="椭圆_2330" data-name="椭圆 2330" class="cls-10" cx="9.277" cy="9.277" r="9.277" transform="translate(344.453 333.185)"/>
        <circle id="椭圆_2331" data-name="椭圆 2331" class="cls-11" cx="7.69" cy="7.69" r="7.69" transform="translate(359.948 307.566)"/>
        <circle id="椭圆_2332" data-name="椭圆 2332" class="cls-12" cx="5.979" cy="5.979" r="5.979" transform="translate(362.11 311.009)"/>
        <circle id="椭圆_2333" data-name="椭圆 2333" class="cls-13" cx="2.369" cy="2.369" r="2.369" transform="translate(361.998 312.678)"/>
        <circle id="椭圆_2334" data-name="椭圆 2334" class="cls-11" cx="7.69" cy="7.69" r="7.69" transform="translate(391.165 307.566)"/>
        <circle id="椭圆_2335" data-name="椭圆 2335" class="cls-12" cx="5.979" cy="5.979" r="5.979" transform="translate(392.425 311.009)"/>
        <circle id="椭圆_2336" data-name="椭圆 2336" class="cls-13" cx="2.369" cy="2.369" r="2.369" transform="translate(399.756 312.678)"/>
        <ellipse id="椭圆_2337" data-name="椭圆 2337" class="cls-14" cx="1.429" cy="2.138" rx="1.429" ry="2.138" transform="translate(376.571 330.422)"/>
        <ellipse id="椭圆_2338" data-name="椭圆 2338" class="cls-14" cx="1.429" cy="2.138" rx="1.429" ry="2.138" transform="translate(387.781 330.422)"/>
        <path id="路径_12276" data-name="路径 12276" class="cls-15" d="M374.446,344.01s7.223,9.127,18.477,0"/>
        <path id="路径_12277" data-name="路径 12277" class="cls-7" d="M366.935,371.133s-2.019-3.711-12.317-4.2c-.96,3.649-1.331,4.576-1.331,4.576a19.608,19.608,0,0,0,13.648,3.99C369.894,372.618,366.935,371.133,366.935,371.133Z"/>
        <path id="路径_12278" data-name="路径 12278" class="cls-9" d="M354.618,366.928l-4.237.433,3.625,1.822H350.38l2.907,2.322Z"/>
        <path id="路径_12279" data-name="路径 12279" class="cls-7" d="M400.556,371.133s2.019-3.711,12.317-4.2c.959,3.649,1.33,4.576,1.33,4.576a19.607,19.607,0,0,1-13.647,3.99C397.6,372.618,400.556,371.133,400.556,371.133Z"/>
        <path id="路径_12280" data-name="路径 12280" class="cls-9" d="M412.873,366.928l4.237.433-3.625,1.822h3.625L414.2,371.5Z"/>
        <path id="路径_12281" data-name="路径 12281" class="cls-7" d="M371.314,388.283s-3.133,2.834-1.2,12.961c3.772.076,4.761.219,4.761.219a19.609,19.609,0,0,0,.675-14.2C372.063,385.059,371.314,388.283,371.314,388.283Z"/>
        <path id="路径_12282" data-name="路径 12282" class="cls-9" d="M370.117,401.244l1.415,4.017.92-3.951.851,3.523,1.575-3.371Z"/>
        <path id="路径_12283" data-name="路径 12283" class="cls-7" d="M398.18,388.283s3.133,2.834,1.2,12.961c-3.772.076-4.761.219-4.761.219a19.609,19.609,0,0,1-.675-14.2C397.431,385.059,398.18,388.283,398.18,388.283Z"/>
        <path id="路径_12284" data-name="路径 12284" class="cls-9" d="M399.377,401.244l-1.415,4.017-.92-3.951-.851,3.523-1.575-3.371Z"/>
      </g>
      <g id="组_4616" data-name="组 4616">
        <ellipse id="椭圆_2339" data-name="椭圆 2339" class="cls-7" cx="22.359" cy="4.034" rx="22.359" ry="4.034" transform="translate(401.802 207.33)"/>
        <path id="路径_12285" data-name="路径 12285" class="cls-7" d="M396.148,196.6s-16.946-1.7-25.01,1.807c-.612.3-1.012.985-1.224,1.161s-.49,1.426-6.818,1.612c-.066.083.495.123,3.946.55a116.5,116.5,0,0,0,11.906,1.022c3.42.014,10.984.239,15.083-.847S403.1,197.947,396.148,196.6Z"/>
        <path id="路径_12286" data-name="路径 12286" class="cls-8" d="M390.185,197.782s-9.887-.992-14.592,1.054a2.924,2.924,0,0,0-.714.678c-.124.1-.286.832-3.978.941a11.914,11.914,0,0,0,2.3.32,68.23,68.23,0,0,0,6.946.6c2,.008,6.409.139,8.8-.495S394.243,198.566,390.185,197.782Z"/>
        <path id="路径_12287" data-name="路径 12287" class="cls-7" d="M449.364,196.432s16.639-1.8,25.316,1.663a6.469,6.469,0,0,1,1.427,1.153c.243.175.74,1.423,7.1,1.573.081.082-.473.126-3.847.572a111.325,111.325,0,0,1-11.72,1.089c-3.416.034-10.937.3-15.225-.76S442.649,197.814,449.364,196.432Z"/>
        <path id="路径_12288" data-name="路径 12288" class="cls-8" d="M454.914,197.782s9.887-.992,14.592,1.054a2.924,2.924,0,0,1,.714.678c.124.1.286.832,3.978.941a11.971,11.971,0,0,1-2.3.32,68.25,68.25,0,0,1-6.947.6c-1.995.008-6.408.139-8.8-.495S450.856,198.566,454.914,197.782Z"/>
        <path id="路径_12289" data-name="路径 12289" class="cls-7" d="M383.771,200.294s.619,1.028-2.274,1.592-5.363,2.524-2.948,3.7c2.241,1.337,5.995,3.181,28.542,4.647s47.306-.926,49.722-1.252,13.35-2.507,12.875-4.075-2.073-2.181-7.167-3.544c-2.572-.651-2.035-1.6-2.215-1.821s-3.236-2.885-20.716-3.766c-11.111-1.118-37.375-.174-43.442.827S385.123,198.931,383.771,200.294Z"/>
        <ellipse id="椭圆_2340" data-name="椭圆 2340" class="cls-9" cx="14.864" cy="1.302" rx="14.864" ry="1.302" transform="matrix(1, -0.003, 0.003, 1, 408.488, 202.449)"/>
        <ellipse id="椭圆_2341" data-name="椭圆 2341" class="cls-10" cx="9.277" cy="1.674" rx="9.277" ry="1.674" transform="translate(444.991 203.838)"/>
        <ellipse id="椭圆_2342" data-name="椭圆 2342" class="cls-10" cx="9.277" cy="1.674" rx="9.277" ry="1.674" transform="translate(384.124 203.838)"/>
        <ellipse id="椭圆_2343" data-name="椭圆 2343" class="cls-11" cx="7.69" cy="1.388" rx="7.69" ry="1.388" transform="translate(399.62 199.216)"/>
        <ellipse id="椭圆_2344" data-name="椭圆 2344" class="cls-12" cx="5.979" cy="1.079" rx="5.979" ry="1.079" transform="translate(401.782 199.837)"/>
        <ellipse id="椭圆_2345" data-name="椭圆 2345" class="cls-13" cx="2.369" cy="0.427" rx="2.369" ry="0.427" transform="translate(401.67 200.138)"/>
        <ellipse id="椭圆_2346" data-name="椭圆 2346" class="cls-11" cx="7.69" cy="1.388" rx="7.69" ry="1.388" transform="translate(430.836 199.216)"/>
        <ellipse id="椭圆_2347" data-name="椭圆 2347" class="cls-12" cx="5.979" cy="1.079" rx="5.979" ry="1.079" transform="translate(432.096 199.837)"/>
        <ellipse id="椭圆_2348" data-name="椭圆 2348" class="cls-13" cx="2.369" cy="0.427" rx="2.369" ry="0.427" transform="translate(439.428 200.138)"/>
        <ellipse id="椭圆_2349" data-name="椭圆 2349" class="cls-14" cx="1.429" cy="0.386" rx="1.429" ry="0.386" transform="translate(416.243 203.34)"/>
        <ellipse id="椭圆_2350" data-name="椭圆 2350" class="cls-14" cx="1.429" cy="0.386" rx="1.429" ry="0.386" transform="translate(427.453 203.34)"/>
        <path id="路径_12290" data-name="路径 12290" class="cls-15" d="M414.117,205.791s7.224,1.647,18.477,0"/>
        <path id="路径_12291" data-name="路径 12291" class="cls-7" d="M406.607,210.685s-2.019-.669-12.318-.758a10.522,10.522,0,0,1-1.33.825,88.644,88.644,0,0,0,13.648.72C409.565,210.953,406.607,210.685,406.607,210.685Z"/>
        <path id="路径_12292" data-name="路径 12292" class="cls-9" d="M394.289,209.926l-4.237.078,3.625.329h-3.625l2.907.419Z"/>
        <path id="路径_12293" data-name="路径 12293" class="cls-7" d="M440.227,210.685s2.019-.669,12.318-.758a10.519,10.519,0,0,0,1.33.825,88.644,88.644,0,0,1-13.648.72C437.269,210.953,440.227,210.685,440.227,210.685Z"/>
        <path id="路径_12294" data-name="路径 12294" class="cls-9" d="M452.545,209.926l4.237.078-3.625.329h3.625l-2.907.419Z"/>
        <path id="路径_12295" data-name="路径 12295" class="cls-7" d="M410.986,213.78s-3.133.511-1.2,2.338c3.772.014,4.761.04,4.761.04s3.31-1.164.674-2.563C411.735,213.2,410.986,213.78,410.986,213.78Z"/>
        <path id="路径_12296" data-name="路径 12296" class="cls-9" d="M409.789,216.118l1.415.725.92-.713.851.636,1.575-.608Z"/>
        <path id="路径_12297" data-name="路径 12297" class="cls-7" d="M437.851,213.78s3.134.511,1.2,2.338c-3.772.014-4.761.04-4.761.04s-3.31-1.164-.675-2.563C437.1,213.2,437.851,213.78,437.851,213.78Z"/>
        <path id="路径_12298" data-name="路径 12298" class="cls-9" d="M439.049,216.118l-1.415.725-.92-.713-.851.636-1.575-.608Z"/>
      </g>
      <g id="组_4617" data-name="组 4617">
        <ellipse id="椭圆_2351" data-name="椭圆 2351" class="cls-7" cx="8.124" cy="22.359" rx="8.124" ry="22.359" transform="translate(541.971 333.117)"/>
        <path id="路径_12299" data-name="路径 12299" class="cls-7" d="M539.916,273.669s-6.158-9.43-9.088,10.013c-.222,1.673-.367,5.46-.445,6.435s-.177,7.907-2.477,8.938c-.024.458.18.682,1.434,3.046s3.083,5.586,4.326,5.664,3.991,1.327,5.481-4.7S542.443,281.113,539.916,273.669Z"/>
        <path id="路径_12300" data-name="路径 12300" class="cls-8" d="M537.749,280.2s-3.592-5.5-5.3,5.841c-.13.976-.215,3.186-.259,3.755s-.1,4.613-1.446,5.215c-.014.267.1.4.837,1.777s1.8,3.259,2.524,3.3,2.328.775,3.2-2.739S539.224,284.543,537.749,280.2Z"/>
        <path id="路径_12301" data-name="路径 12301" class="cls-7" d="M559.253,272.717s6.046-9.963,9.2,9.213c.242,1.653.431,5.426.519,6.394s.269,7.887,2.579,8.717c.03.455-.171.7-1.4,3.17s-3.017,5.851-4.258,6.038-3.974,1.675-5.533-4.215S556.813,280.377,559.253,272.717Z"/>
        <path id="路径_12302" data-name="路径 12302" class="cls-8" d="M561.269,280.2s3.593-5.5,5.3,5.841c.129.976.214,3.186.259,3.755s.1,4.613,1.445,5.215c.014.267-.1.4-.836,1.777s-1.8,3.259-2.524,3.3-2.329.775-3.2-2.739S559.795,284.543,561.269,280.2Z"/>
        <path id="路径_12303" data-name="路径 12303" class="cls-7" d="M535.419,294.121s.225,5.694-.827,8.824-1.948,13.985-1.071,20.513c.814,7.412,2.179,17.63,10.371,25.756s17.189-5.131,18.067-6.94,4.851-13.892,4.679-22.584a72.461,72.461,0,0,0-2.6-19.642c-.935-3.6-.74-8.845-.8-10.092s-1.176-15.988-7.528-20.871c-4.037-6.2-13.58-.964-15.785,4.584A69.6,69.6,0,0,0,535.419,294.121Z"/>
        <ellipse id="椭圆_2352" data-name="椭圆 2352" class="cls-9" cx="7.228" cy="5.392" rx="7.228" ry="5.392" transform="translate(543.951 319.859) rotate(-86.261)"/>
        <ellipse id="椭圆_2353" data-name="椭圆 2353" class="cls-10" cx="3.371" cy="9.277" rx="3.371" ry="9.277" transform="translate(557.664 313.762)"/>
        <ellipse id="椭圆_2354" data-name="椭圆 2354" class="cls-10" cx="3.371" cy="9.277" rx="3.371" ry="9.277" transform="translate(535.547 313.762)"/>
        <ellipse id="椭圆_2355" data-name="椭圆 2355" class="cls-11" cx="2.794" cy="7.69" rx="2.794" ry="7.69" transform="translate(541.177 288.143)"/>
        <ellipse id="椭圆_2356" data-name="椭圆 2356" class="cls-12" cx="2.173" cy="5.979" rx="2.173" ry="5.979" transform="translate(541.963 291.587)"/>
        <ellipse id="椭圆_2357" data-name="椭圆 2357" class="cls-13" cx="0.861" cy="2.369" rx="0.861" ry="2.369" transform="translate(541.923 293.255)"/>
        <ellipse id="椭圆_2358" data-name="椭圆 2358" class="cls-11" cx="2.794" cy="7.69" rx="2.794" ry="7.69" transform="translate(552.52 288.143)"/>
        <ellipse id="椭圆_2359" data-name="椭圆 2359" class="cls-12" cx="2.173" cy="5.979" rx="2.173" ry="5.979" transform="translate(552.978 291.587)"/>
        <ellipse id="椭圆_2360" data-name="椭圆 2360" class="cls-13" cx="0.861" cy="2.369" rx="0.861" ry="2.369" transform="translate(555.642 293.255)"/>
        <ellipse id="椭圆_2361" data-name="椭圆 2361" class="cls-14" cx="0.519" cy="2.138" rx="0.519" ry="2.138" transform="translate(547.218 310.999)"/>
        <ellipse id="椭圆_2362" data-name="椭圆 2362" class="cls-14" cx="0.519" cy="2.138" rx="0.519" ry="2.138" transform="translate(551.291 310.999)"/>
        <path id="路径_12304" data-name="路径 12304" class="cls-15" d="M546.445,324.588s2.625,9.126,6.714,0"/>
        <path id="路径_12305" data-name="路径 12305" class="cls-7" d="M543.716,351.711a5.445,5.445,0,0,0-4.475-4.206c-.349,3.649-.484,4.577-.484,4.577s2,4.731,4.959,3.989C544.791,353.2,543.716,351.711,543.716,351.711Z"/>
        <path id="路径_12306" data-name="路径 12306" class="cls-9" d="M539.241,347.505l-1.54.433,1.317,1.822H537.7l1.056,2.322Z"/>
        <path id="路径_12307" data-name="路径 12307" class="cls-7" d="M555.933,351.711a5.445,5.445,0,0,1,4.475-4.206c.349,3.649.484,4.577.484,4.577s-2,4.731-4.959,3.989C554.858,353.2,555.933,351.711,555.933,351.711Z"/>
        <path id="路径_12308" data-name="路径 12308" class="cls-9" d="M560.408,347.505l1.54.433-1.317,1.822h1.317l-1.056,2.322Z"/>
        <path id="路径_12309" data-name="路径 12309" class="cls-7" d="M545.308,368.861s-1.139,2.833-.435,12.96a6.89,6.89,0,0,1,1.73.219,51.679,51.679,0,0,0,.245-14.2C545.58,365.636,545.308,368.861,545.308,368.861Z"/>
        <path id="路径_12310" data-name="路径 12310" class="cls-9" d="M544.872,381.821l.514,4.017.334-3.951.309,3.523.572-3.371Z"/>
        <path id="路径_12311" data-name="路径 12311" class="cls-7" d="M555.069,368.861s1.139,2.833.436,12.96a6.875,6.875,0,0,0-1.73.219,51.653,51.653,0,0,1-.246-14.2C554.8,365.636,555.069,368.861,555.069,368.861Z"/>
        <path id="路径_12312" data-name="路径 12312" class="cls-9" d="M555.5,381.821l-.514,4.017-.334-3.951-.309,3.523-.572-3.371Z"/>
      </g>
    </g>
  </g>
</svg>
