<svg xmlns="http://www.w3.org/2000/svg" xmlns:xlink="http://www.w3.org/1999/xlink" width="330.894" height="107.88" viewBox="0 0 330.894 107.88">
  <defs>
    <style>
      .cls-1 {
        stroke-miterlimit: 10;
        stroke-dasharray: 12.288;
        fill: url(#linear-gradient);
      }

      .cls-2, .cls-3 {
        stroke: none;
      }

      .cls-3 {
        fill: #fff;
      }
    </style>
    <linearGradient id="linear-gradient" y1="0.5" x2="1" y2="0.5" gradientUnits="objectBoundingBox">
      <stop offset="0" stop-color="#fff" stop-opacity="0.4"/>
      <stop offset="1" stop-color="#fff" stop-opacity="0.4"/>
    </linearGradient>
  </defs>
  <g id="路径_12605" data-name="路径 12605" class="cls-1" transform="translate(-249.511 -155.874)">
    <path class="cls-2" d="M580.4,263.754H249.511l98.607-107.88h138.81Z"/>
    <path class="cls-3" d="M 580.4042358398438 263.7535400390625 L 568.11669921875 263.7535400390625 L 568.11669921875 258.8385314941406 L 569.6419677734375 258.8385314941406 L 562.70751953125 250.835693359375 L 566.422119140625 247.6170654296875 L 573.2675170898438 255.5172119140625 C 573.2684326171875 255.5182647705078 573.2689819335938 255.5189666748047 573.2698974609375 255.5200042724609 L 573.2964477539063 255.5506439208984 C 573.306884765625 255.5626525878906 573.3171997070313 255.5745697021484 573.3275146484375 255.5864562988281 L 573.329833984375 255.5891265869141 C 574.0180053710938 256.3833618164063 574.4686279296875 256.9034423828125 574.4686279296875 256.9034423828125 L 572.2354125976563 258.8385314941406 L 576.1453857421875 258.8385314941406 L 580.4042358398438 263.7535400390625 Z M 555.8291625976563 263.7535400390625 L 543.5416259765625 263.7535400390625 L 543.5416259765625 258.8385314941406 L 555.8291625976563 258.8385314941406 L 555.8291625976563 263.7535400390625 Z M 531.2540893554688 263.7535400390625 L 518.9666137695313 263.7535400390625 L 518.9666137695313 258.8385314941406 L 531.2540893554688 258.8385314941406 L 531.2540893554688 263.7535400390625 Z M 506.6791076660156 263.7535400390625 L 494.3915710449219 263.7535400390625 L 494.3915710449219 258.8385314941406 L 506.6791076660156 258.8385314941406 L 506.6791076660156 263.7535400390625 Z M 482.1040649414063 263.7535400390625 L 469.8165283203125 263.7535400390625 L 469.8165283203125 258.8385314941406 L 482.1040649414063 258.8385314941406 L 482.1040649414063 263.7535400390625 Z M 457.5289916992188 263.7535400390625 L 445.2414855957031 263.7535400390625 L 445.2414855957031 258.8385314941406 L 457.5289916992188 258.8385314941406 L 457.5289916992188 263.7535400390625 Z M 432.9539489746094 263.7535400390625 L 420.6664428710938 263.7535400390625 L 420.6664428710938 258.8385314941406 L 432.9539489746094 258.8385314941406 L 432.9539489746094 263.7535400390625 Z M 408.37890625 263.7535400390625 L 396.0913696289063 263.7535400390625 L 396.0913696289063 258.8385314941406 L 408.37890625 258.8385314941406 L 408.37890625 263.7535400390625 Z M 383.8038940429688 263.7535400390625 L 371.5163879394531 263.7535400390625 L 371.5163879394531 258.8385314941406 L 383.8038940429688 258.8385314941406 L 383.8038940429688 263.7535400390625 Z M 359.2288513183594 263.7535400390625 L 346.9413146972656 263.7535400390625 L 346.9413146972656 258.8385314941406 L 359.2288513183594 258.8385314941406 L 359.2288513183594 263.7535400390625 Z M 334.65380859375 263.7535400390625 L 322.3662719726563 263.7535400390625 L 322.3662719726563 258.8385314941406 L 334.65380859375 258.8385314941406 L 334.65380859375 263.7535400390625 Z M 310.0787353515625 263.7535400390625 L 297.7912292480469 263.7535400390625 L 297.7912292480469 258.8385314941406 L 310.0787353515625 258.8385314941406 L 310.0787353515625 263.7535400390625 Z M 285.5036926269531 263.7535400390625 L 273.2161560058594 263.7535400390625 L 273.2161560058594 258.8385314941406 L 285.5036926269531 258.8385314941406 L 285.5036926269531 263.7535400390625 Z M 260.9286499023438 263.7535400390625 L 249.5106353759766 263.7535400390625 L 249.5106353759766 263.7535400390625 L 254.003173828125 258.8385314941406 L 260.9286499023438 258.8385314941406 L 260.9286499023438 263.7535400390625 Z M 262.0151672363281 257.3581848144531 L 258.3873291015625 254.0421142578125 L 266.6773986816406 244.9725036621094 L 270.3052062988281 248.2885437011719 L 262.0151672363281 257.3581848144531 Z M 278.5953369140625 239.2189025878906 L 274.9674377441406 235.9028625488281 L 279.2240295410156 231.2460327148438 C 281.2586975097656 229.0200347900391 283.2575378417969 226.8332824707031 283.2575378417969 226.8332824707031 L 286.8853759765625 230.1492767333984 L 278.5953369140625 239.2189025878906 Z M 295.1754150390625 221.0796508789063 L 291.5475769042969 217.7636413574219 C 291.5475769042969 217.7636413574219 299.837646484375 208.6940155029297 299.837646484375 208.6940155029297 L 303.4654846191406 212.010009765625 L 295.1754150390625 221.0796508789063 Z M 311.7555236816406 202.9404296875 L 308.127685546875 199.6243896484375 L 316.4177551269531 190.5547637939453 L 320.0455932617188 193.8708038330078 L 311.7555236816406 202.9404296875 Z M 328.335693359375 184.8011779785156 L 324.7077941894531 181.4851226806641 L 328.7180480957031 177.0977935791016 C 328.7193298339844 177.0964202880859 328.7200927734375 177.0955657958984 328.7213745117188 177.0941772460938 L 328.7376403808594 177.0763549804688 C 328.7422180175781 177.0713806152344 328.74658203125 177.0665740966797 328.7511596679688 177.0615997314453 L 328.75732421875 177.0548400878906 C 330.8612365722656 174.7531127929688 332.9978942871094 172.4155426025391 332.9978942871094 172.4155426025391 L 336.625732421875 175.7315368652344 L 328.335693359375 184.8011779785156 Z M 344.9158020019531 166.6619110107422 L 341.2879638671875 163.3459014892578 C 341.2879638671875 163.3459014892578 348.1176452636719 155.8739624023438 348.1176452636719 155.8739624023438 L 348.1176452636719 155.8739624023438 C 348.1176452636719 155.8739624023438 350.2821655273438 155.8739624023438 350.2821655273438 155.8739624023438 L 350.2821655273438 157.8524322509766 L 351.7454833984375 159.1899566650391 L 351.7454833984375 159.1899566650391 L 351.7454833984375 159.1899566650391 L 351.7454833984375 159.1899566650391 L 344.9158020019531 166.6619110107422 Z M 374.8572082519531 160.7889556884766 L 362.5697021484375 160.7889556884766 L 362.5697021484375 155.8739624023438 C 362.5697021484375 155.8739624023438 374.8572082519531 155.8739624023438 374.8572082519531 155.8739624023438 L 374.8572082519531 160.7889556884766 Z M 399.4322814941406 160.7889556884766 L 387.1447448730469 160.7889556884766 L 387.1447448730469 155.8739624023438 C 387.1447448730469 155.8739624023438 399.4322814941406 155.8739624023438 399.4322814941406 155.8739624023438 L 399.4322814941406 160.7889556884766 Z M 424.00732421875 160.7889556884766 L 411.7197875976563 160.7889556884766 L 411.7197875976563 155.8739624023438 C 411.7197875976563 155.8739624023438 424.00732421875 155.8739624023438 424.00732421875 155.8739624023438 L 424.00732421875 160.7889556884766 Z M 448.5823669433594 160.7889556884766 L 436.2948608398438 160.7889556884766 L 436.2948608398438 155.8739624023438 C 436.2948608398438 155.8739624023438 448.5823669433594 155.8739624023438 448.5823669433594 155.8739624023438 L 448.5823669433594 160.7889556884766 Z M 473.1574401855469 160.7889556884766 L 460.8699035644531 160.7889556884766 L 460.8699035644531 155.8739624023438 C 460.8699035644531 155.8739624023438 473.1574401855469 155.8739624023438 473.1574401855469 155.8739624023438 L 473.1574401855469 160.7889556884766 Z M 490.28857421875 167.2586517333984 L 483.2127380371094 159.0925903320313 L 485.4449157714844 157.1584320068359 L 485.4449157714844 157.1584320068359 L 483.2127380371094 159.0925903320313 L 485.4449157714844 157.1584320068359 L 485.4449157714844 155.8739624023438 C 485.4449157714844 155.8739624023438 486.9272766113281 155.8739624023438 486.9272766113281 155.8739624023438 L 486.9272766113281 155.8739624023438 L 486.9272766113281 155.8739624023438 L 486.9272766113281 155.8739624023438 L 486.9272766113281 155.8739624023438 L 486.9272766113281 155.8739624023438 L 486.9272766113281 155.8739624023438 L 486.9272766113281 155.8739624023438 L 486.9272766113281 155.8739624023438 L 486.9272766113281 155.8739624023438 L 486.9272766113281 155.8739624023438 C 486.9272766113281 155.8739624023438 487.0342102050781 155.9973754882813 487.2217407226563 156.2138214111328 L 487.23486328125 156.2289276123047 C 487.2822265625 156.2836151123047 487.334228515625 156.3436126708984 487.3910217285156 156.4091796875 L 487.3922119140625 156.4105224609375 C 487.4210205078125 156.4438018798828 487.4511413574219 156.4785461425781 487.4822387695313 156.5144348144531 L 487.4827575683594 156.5150299072266 C 487.4981384277344 156.5327758789063 487.5137634277344 156.5508270263672 487.5296630859375 156.5691833496094 L 487.5314025878906 156.5711669921875 C 487.5386657714844 156.5795440673828 487.5457153320313 156.5877075195313 487.5531005859375 156.5962066650391 L 487.5595703125 156.6036834716797 C 487.5632019042969 156.6078796386719 487.5667724609375 156.6119842529297 487.5704345703125 156.6162109375 L 487.6100463867188 156.6619567871094 C 487.6128845214844 156.6651916503906 487.6158142089844 156.6686096191406 487.61865234375 156.671875 L 487.6364440917969 156.6924133300781 C 487.6379699707031 156.6941528320313 487.6394653320313 156.6959075927734 487.6409912109375 156.6976318359375 L 487.6492919921875 156.7072143554688 C 487.650634765625 156.7088012695313 487.6517639160156 156.7100830078125 487.6531372070313 156.711669921875 L 487.6617736816406 156.7216339111328 C 487.6643981933594 156.7246704101563 487.6668395996094 156.7274627685547 487.6694641113281 156.7305145263672 L 487.7036437988281 156.7699432373047 C 487.704345703125 156.7707672119141 487.7048645019531 156.7713470458984 487.70556640625 156.7721710205078 L 487.7169799804688 156.7853546142578 C 487.7177124023438 156.7861785888672 487.7186279296875 156.7872467041016 487.7193298339844 156.7880706787109 L 494.0031127929688 164.0400238037109 L 490.28857421875 167.2586517333984 Z M 506.3816833496094 185.8313293457031 L 498.3351135253906 176.5449676513672 L 502.0496520996094 173.3263244628906 L 510.0962219238281 182.6127014160156 L 506.3816833496094 185.8313293457031 Z M 522.4747924804688 204.4040069580078 L 514.42822265625 195.1176452636719 L 518.1427612304688 191.8990173339844 L 526.1893310546875 201.1853790283203 L 522.4747924804688 204.4040069580078 Z M 538.5679321289063 222.9766998291016 L 530.5213012695313 213.6903228759766 L 534.23583984375 210.4716949462891 C 534.23583984375 210.4716949462891 540.6790771484375 217.9076690673828 542.0342407226563 219.4716339111328 L 542.0355224609375 219.47314453125 C 542.0408935546875 219.4793090820313 542.0462646484375 219.4855499267578 542.0514526367188 219.4915313720703 L 542.05419921875 219.4947052001953 C 542.0543212890625 219.4947967529297 542.0545654296875 219.4951019287109 542.0546875 219.4952087402344 L 542.0721435546875 219.5153656005859 C 542.072998046875 219.516357421875 542.0738525390625 219.517333984375 542.07470703125 219.518310546875 L 542.07568359375 219.5194702148438 C 542.0863037109375 219.5317230224609 542.0966186523438 219.5436553955078 542.1065063476563 219.5550384521484 L 542.1077270507813 219.5564727783203 C 542.120361328125 219.5710601806641 542.1325073242188 219.5850524902344 542.1438598632813 219.59814453125 L 542.1450805664063 219.5995635986328 C 542.1491088867188 219.6041870117188 542.1530151367188 219.6087341308594 542.1568603515625 219.6131591796875 L 542.1580200195313 219.614501953125 C 542.1785278320313 219.6381530761719 542.1966552734375 219.6590728759766 542.2122802734375 219.6770782470703 L 542.213134765625 219.6781158447266 C 542.2286987304688 219.6960601806641 542.2417602539063 219.7111053466797 542.2521362304688 219.7231292724609 L 542.2527465820313 219.7238311767578 C 542.259033203125 219.7310485839844 542.2642822265625 219.7371368408203 542.2686157226563 219.7420959472656 L 542.2691040039063 219.7427062988281 C 542.2703857421875 219.7441864013672 542.2715454101563 219.7455139160156 542.2726440429688 219.7467803955078 L 542.2731323242188 219.7473754882813 C 542.2733154296875 219.7475280761719 542.2734375 219.7476806640625 542.2735595703125 219.7478332519531 L 542.27490234375 219.7493591308594 C 542.27685546875 219.7516326904297 542.2784423828125 219.7534790039063 542.2796630859375 219.7548675537109 L 542.2796630859375 219.7549133300781 C 542.281494140625 219.7570037841797 542.2824096679688 219.7580718994141 542.2824096679688 219.7580718994141 L 538.5679321289063 222.9766998291016 Z M 554.6610107421875 241.5493774414063 L 546.6144409179688 232.2630157470703 L 550.3289794921875 229.0443878173828 L 557.7242431640625 237.5791015625 C 557.7263793945313 237.5815582275391 557.7286987304688 237.5842742919922 557.7308349609375 237.5867156982422 L 557.7459106445313 237.6041259765625 C 557.7471923828125 237.6055755615234 557.7482299804688 237.6067810058594 557.7494506835938 237.6082305908203 L 557.7528686523438 237.6121826171875 C 557.7537231445313 237.6131439208984 557.75439453125 237.6138916015625 557.7551879882813 237.6148529052734 L 557.7694091796875 237.6312103271484 C 558.1478881835938 238.0680541992188 558.3755493164063 238.3307495117188 558.3755493164063 238.3307495117188 L 554.6610107421875 241.5493774414063 Z"/>
  </g>
</svg>
