<svg xmlns="http://www.w3.org/2000/svg" xmlns:xlink="http://www.w3.org/1999/xlink" width="94.428" height="47.684" viewBox="0 0 94.428 47.684">
  <defs>
    <style>
      .cls-1 {
        stroke-miterlimit: 10;
        stroke-dasharray: 12.288;
        fill: url(#linear-gradient);
      }

      .cls-2, .cls-3 {
        stroke: none;
      }

      .cls-3 {
        fill: #fff;
      }
    </style>
    <linearGradient id="linear-gradient" y1="0.5" x2="1" y2="0.5" gradientUnits="objectBoundingBox">
      <stop offset="0" stop-color="#fff" stop-opacity="0.4"/>
      <stop offset="1" stop-color="#fff" stop-opacity="0.4"/>
    </linearGradient>
  </defs>
  <g id="路径_12501" data-name="路径 12501" class="cls-1" transform="translate(-578.123 -228.941)">
    <path class="cls-2" d="M625.392,228.941l-47.269,47.112,94.428.572Z"/>
    <path class="cls-3" d="M 642.6724243164063 246.4143981933594 L 642.7994995117188 246.5428771972656 C 642.7994995117188 246.5428771972656 642.7996826171875 246.5430603027344 642.7996826171875 246.5430603027344 L 642.8028564453125 246.5462646484375 C 642.802978515625 246.5464172363281 642.8031616210938 246.5465698242188 642.8032836914063 246.5467224121094 L 642.8580322265625 246.6020812988281 C 642.8585205078125 246.6026000976563 642.8592529296875 246.6033020019531 642.8597412109375 246.6037902832031 L 642.8626708984375 246.6067810058594 C 642.8643188476563 246.6084289550781 642.8660278320313 246.6101684570313 642.86767578125 246.61181640625 L 642.8707885742188 246.6149597167969 C 642.8724365234375 246.6166381835938 642.8740234375 246.6182250976563 642.8756713867188 246.6199035644531 L 642.8877563476563 246.6321105957031 C 642.889892578125 246.6343078613281 642.8919067382813 246.6363220214844 642.8941040039063 246.6385498046875 L 642.8951416015625 246.6395874023438 C 642.9034423828125 246.6479797363281 642.912109375 246.6567687988281 642.9208374023438 246.6656188964844 L 642.9222412109375 246.6669921875 C 642.9338989257813 246.6788024902344 642.9459838867188 246.6909790039063 642.9583740234375 246.7035217285156 L 642.9609985351563 246.7062072753906 C 642.9866333007813 246.7321166992188 643.0139770507813 246.7597961425781 643.0426635742188 246.7887878417969 L 643.0449829101563 246.7911376953125 C 644.7011108398438 248.4657287597656 651.3126831054688 255.1510467529297 651.3126831054688 255.1510467529297 L 647.8180541992188 258.6071472167969 L 639.1777954101563 249.8705139160156 L 642.6724243164063 246.4143981933594 Z M 659.9530029296875 263.8876647949219 L 668.5933227539063 272.624267578125 L 665.8976440429688 275.2902221679688 L 665.8897705078125 276.5848999023438 L 659.5933837890625 276.5467529296875 C 659.5929565429688 276.5467529296875 659.5927124023438 276.5467529296875 659.5923461914063 276.5467529296875 L 659.5598754882813 276.5465698242188 C 659.5546264648438 276.5465393066406 659.54931640625 276.5465087890625 659.5440673828125 276.5464782714844 L 659.527587890625 276.54638671875 C 659.510009765625 276.5462646484375 659.4921875 276.546142578125 659.4745483398438 276.5460510253906 L 659.4568481445313 276.5459594726563 C 656.4843139648438 276.5279541015625 653.6024780273438 276.510498046875 653.6024780273438 276.510498046875 L 653.6322021484375 271.5955810546875 L 660.7056274414063 271.638427734375 L 656.4583740234375 267.3437805175781 L 659.9530029296875 263.8876647949219 Z M 629.0576171875 271.4468383789063 L 641.344970703125 271.5212097167969 L 641.315185546875 276.4360961914063 C 641.315185546875 276.4360961914063 629.0278930664063 276.3617553710938 629.0278930664063 276.3617553710938 L 629.0576171875 271.4468383789063 Z M 604.4830322265625 271.2980346679688 L 616.7703247070313 271.3724365234375 L 616.7406005859375 276.287353515625 L 604.4533081054688 276.2129516601563 L 604.4830322265625 271.2980346679688 Z M 594.2847290039063 259.9450073242188 L 597.75439453125 263.4262390136719 L 589.9447021484375 271.2100219726563 L 592.1957397460938 271.2236633300781 L 592.166015625 276.1386108398438 L 579.8787231445313 276.064208984375 L 579.889404296875 274.2925720214844 L 583.0242309570313 271.1681518554688 L 588.1531982421875 271.1991882324219 L 585.5817260742188 268.6191711425781 C 585.5817260742188 268.6191711425781 594.2847290039063 259.9450073242188 594.2847290039063 259.9450073242188 Z M 611.6907958984375 242.5967712402344 L 615.1604614257813 246.0779724121094 L 606.4573974609375 254.7520904541016 L 602.9877319335938 251.2709045410156 L 602.9888305664063 251.2698669433594 C 602.9888305664063 251.2698669433594 602.9888305664063 251.2698516845703 602.9888305664063 251.2698516845703 L 602.990478515625 251.2682037353516 C 602.990478515625 251.2681884765625 602.990478515625 251.2681732177734 602.990478515625 251.2681579589844 L 603.0035400390625 251.2551727294922 C 603.0036010742188 251.2550964355469 603.003662109375 251.2550354003906 603.0037231445313 251.2549591064453 L 603.0089721679688 251.2497406005859 C 603.0089721679688 251.2497406005859 603.009033203125 251.2497100830078 603.009033203125 251.2497100830078 L 603.0235595703125 251.2351989746094 C 603.0237426757813 251.2350463867188 603.02392578125 251.2348480224609 603.0241088867188 251.2346954345703 L 603.0274047851563 251.2313842773438 C 603.0276489257813 251.2311401367188 603.02783203125 251.2309417724609 603.028076171875 251.2306976318359 L 603.0288696289063 251.2299194335938 C 603.0292358398438 251.2295837402344 603.0294799804688 251.2293243408203 603.02978515625 251.22900390625 L 603.031005859375 251.227783203125 C 603.0313720703125 251.2274017333984 603.0317993164063 251.2270202636719 603.0321655273438 251.2266387939453 L 603.1052856445313 251.1537322998047 C 603.1058349609375 251.1531982421875 603.1062622070313 251.1527862548828 603.1068115234375 251.1522369384766 L 603.1146850585938 251.1443939208984 C 603.1154174804688 251.1436920166016 603.1160888671875 251.1429595947266 603.1168212890625 251.1422576904297 L 603.1182250976563 251.1408386230469 C 603.1201171875 251.1389923095703 603.121826171875 251.1372528076172 603.1237182617188 251.1353759765625 L 603.1258544921875 251.1332855224609 C 603.1275634765625 251.1315460205078 603.1292114257813 251.1299133300781 603.1309814453125 251.1281280517578 L 603.1324462890625 251.126708984375 C 603.1331176757813 251.1260375976563 603.1337280273438 251.1254272460938 603.1343994140625 251.124755859375 L 603.1363525390625 251.122802734375 C 603.1366577148438 251.1224975585938 603.1368408203125 251.1223297119141 603.1371459960938 251.1220245361328 L 603.1557006835938 251.1035308837891 C 603.15576171875 251.1034393310547 603.1558837890625 251.1033020019531 603.156005859375 251.1032257080078 L 603.1827392578125 251.0765380859375 C 603.1831665039063 251.0761108398438 603.1837158203125 251.0755615234375 603.1842041015625 251.0751342773438 L 603.4393310546875 250.8208160400391 C 603.4400024414063 250.8201751708984 603.4405517578125 250.8195953369141 603.4412231445313 250.8189697265625 L 611.6907958984375 242.5967712402344 Z M 625.391845703125 228.941162109375 L 628.8479614257813 232.4358520507813 L 628.8479614257813 232.4358520507813 C 628.8666381835938 232.4546813964844 628.884765625 232.4730224609375 628.9034423828125 232.491943359375 L 628.9085083007813 232.4970397949219 C 628.9736938476563 232.5628967285156 629.0391845703125 232.629150390625 629.1047973632813 232.6954956054688 L 629.1077270507813 232.6984558105469 C 629.1725463867188 232.7640075683594 629.23779296875 232.8299560546875 629.3029174804688 232.8958129882813 L 629.3111572265625 232.9042053222656 C 629.3424682617188 232.935791015625 629.3742065429688 232.9678955078125 629.4054565429688 232.9995422363281 L 629.4091186523438 233.0032348632813 C 629.4254760742188 233.0197448730469 629.4422607421875 233.0367126464844 629.4585571289063 233.05322265625 L 629.4594116210938 233.0540771484375 C 629.4749145507813 233.0697937011719 629.4911499023438 233.086181640625 629.5067138671875 233.1018981933594 L 629.5131225585938 233.1083679199219 C 629.5286254882813 233.1240844726563 629.5440063476563 233.1396179199219 629.5595703125 233.1553344726563 L 629.5606079101563 233.1564025878906 C 629.572998046875 233.1689147949219 629.5855712890625 233.181640625 629.5979614257813 233.1941833496094 L 629.5986328125 233.19482421875 C 629.6010131835938 233.1972351074219 629.6034545898438 233.1997375488281 629.6058349609375 233.2021179199219 L 629.6396484375 233.236328125 C 629.6452026367188 233.241943359375 629.6507568359375 233.24755859375 629.6563110351563 233.2531433105469 L 629.6652221679688 233.2621459960938 C 629.6678466796875 233.2648315429688 629.67041015625 233.2673950195313 629.6730346679688 233.2700805664063 L 629.6781005859375 233.2751770019531 C 629.6791381835938 233.2762451171875 629.6798706054688 233.2769775390625 629.680908203125 233.2780456542969 L 629.689453125 233.2866821289063 C 629.6923217773438 233.2896118164063 629.6947021484375 233.2919921875 629.6975708007813 233.294921875 L 629.7175903320313 233.3150939941406 C 629.7191772460938 233.3167114257813 629.7207641601563 233.3183288574219 629.7223510742188 233.3199462890625 L 629.7257080078125 233.3233337402344 C 629.7283325195313 233.3260192871094 629.7310791015625 233.3287963867188 629.7337646484375 233.3314514160156 L 629.7531127929688 233.3510437011719 C 629.7546997070313 233.3526611328125 629.7564697265625 233.3544311523438 629.7579956054688 233.3560180664063 L 629.7675170898438 233.3656311035156 C 629.7701416015625 233.3682861328125 629.7723999023438 233.3705444335938 629.7750244140625 233.3731994628906 L 629.775390625 233.3735656738281 C 629.779296875 233.3775634765625 629.7835083007813 233.3818054199219 629.7874755859375 233.3858032226563 L 629.7883911132813 233.38671875 C 629.7947387695313 233.3931274414063 629.8016357421875 233.4000854492188 629.8079223632813 233.406494140625 L 629.8182983398438 233.4169616699219 C 629.8460083007813 233.4449462890625 629.873046875 233.4723205566406 629.9006958007813 233.5003051757813 L 629.9038696289063 233.5035095214844 C 629.9057006835938 233.50537109375 629.9077758789063 233.5074462890625 629.9096069335938 233.5093078613281 L 629.923583984375 233.5234069824219 C 629.9862670898438 233.5867919921875 630.0492553710938 233.6504821777344 630.1117553710938 233.7136840820313 L 630.1203002929688 233.7222900390625 C 630.1693725585938 233.77197265625 630.2185668945313 233.8216552734375 630.2674560546875 233.8711547851563 L 630.2675170898438 233.8712158203125 C 630.2832641601563 233.8870849609375 630.2988891601563 233.9028930664063 630.3145751953125 233.9187622070313 L 630.32080078125 233.925048828125 C 630.3526611328125 233.9573059082031 630.3846435546875 233.9895935058594 630.4163818359375 234.021728515625 L 630.4190673828125 234.0244445800781 C 630.44384765625 234.0494689941406 630.4678344726563 234.07373046875 630.4924926757813 234.0986938476563 L 630.4937133789063 234.0998840332031 C 630.4996948242188 234.1059265136719 630.5057983398438 234.1121215820313 630.5117797851563 234.1181335449219 L 630.5230102539063 234.1295471191406 C 630.5870971679688 234.1943359375 630.6510620117188 234.259033203125 630.714599609375 234.3232727050781 L 630.718994140625 234.3276977539063 C 630.7827758789063 234.3921813964844 630.845947265625 234.4560852050781 630.9090576171875 234.5198974609375 L 630.9164428710938 234.52734375 C 630.9472045898438 234.5584716796875 630.9779052734375 234.5894775390625 631.0084838867188 234.6204223632813 L 631.0116577148438 234.6236572265625 C 631.0427856445313 234.6550903320313 631.0735473632813 234.6862182617188 631.1044311523438 234.7174377441406 L 631.1091918945313 234.7222595214844 C 631.1398315429688 234.7532043457031 631.1702880859375 234.7840270996094 631.20068359375 234.8147583007813 L 631.2052001953125 234.8193359375 C 631.2201538085938 234.83447265625 631.2347412109375 234.8492126464844 631.2496337890625 234.8642578125 L 631.2525024414063 234.8671569824219 C 631.2589721679688 234.8736877441406 631.2655029296875 234.8802795410156 631.2719116210938 234.8868103027344 L 631.279541015625 234.8945007324219 C 631.280029296875 234.8949890136719 631.2806396484375 234.8956298828125 631.2811279296875 234.8961181640625 L 631.312744140625 234.9281005859375 C 631.3147583007813 234.9300842285156 631.3170776367188 234.9324340820313 631.3190307617188 234.9344482421875 L 631.3258666992188 234.9413146972656 C 631.3317260742188 234.9472961425781 631.3377685546875 234.953369140625 631.3436889648438 234.9593505859375 L 631.3472290039063 234.9629821777344 C 631.3541259765625 234.9699401855469 631.3612060546875 234.9771118164063 631.3681030273438 234.9840698242188 L 631.3705444335938 234.9865417480469 C 631.376953125 234.9929809570313 631.3836059570313 234.9997253417969 631.3900146484375 235.0061645507813 L 631.3948974609375 235.0111694335938 C 631.424560546875 235.0411376953125 631.4542846679688 235.0711669921875 631.483642578125 235.1008911132813 L 631.4896240234375 235.10693359375 C 631.5037231445313 235.1211547851563 631.5174560546875 235.1351013183594 631.531494140625 235.1492614746094 L 631.5347900390625 235.1525573730469 C 631.5490112304688 235.1669921875 631.5631713867188 235.1813049316406 631.577392578125 235.1956481933594 L 631.5809326171875 235.1992492675781 C 631.603515625 235.2221069335938 631.6256103515625 235.2444152832031 631.6480102539063 235.26708984375 L 631.6490478515625 235.2681274414063 C 631.6528930664063 235.2720031738281 631.6566162109375 235.2757568359375 631.660400390625 235.2796020507813 L 631.6838989257813 235.3033752441406 C 631.7098388671875 235.3295593261719 631.735595703125 235.3556213378906 631.76123046875 235.3815612792969 L 631.7630615234375 235.3834228515625 C 631.79150390625 235.4122009277344 631.8201293945313 235.4411010742188 631.8482666015625 235.4695739746094 L 631.854248046875 235.4756164550781 C 631.88330078125 235.5050048828125 631.9118041992188 235.5338134765625 631.9404907226563 235.5628356933594 L 631.9406127929688 235.5629577636719 C 631.955322265625 235.5778198242188 631.9697265625 235.5923767089844 631.9843139648438 235.6071472167969 L 631.9846801757813 235.6074829101563 C 631.9917602539063 235.6146240234375 631.9989624023438 235.6219177246094 632.0059814453125 235.6290283203125 L 632.0068969726563 235.6299438476563 C 632.0091552734375 235.6322326660156 632.0119018554688 235.6350402832031 632.0142211914063 235.6373596191406 L 632.0335693359375 235.6569519042969 C 632.0335693359375 235.6569519042969 632.03369140625 235.6570434570313 632.03369140625 235.6570434570313 L 632.0431518554688 235.6666564941406 C 632.0443115234375 235.6677856445313 632.0452270507813 235.668701171875 632.0463256835938 235.6698303222656 L 632.05126953125 235.6748046875 C 632.072265625 235.696044921875 632.0932006835938 235.7171936035156 632.1139526367188 235.7382202148438 L 632.1151733398438 235.7394104003906 C 632.1426391601563 235.7672119140625 632.1702880859375 235.795166015625 632.1973266601563 235.8225402832031 L 632.2020263671875 235.8272705078125 C 632.2290649414063 235.8546447753906 632.255615234375 235.8814697265625 632.2822875976563 235.9084167480469 L 632.2855834960938 235.9117736816406 C 632.3087768554688 235.9352111816406 632.33203125 235.958740234375 632.3549194335938 235.9818420410156 L 632.38916015625 236.0165100097656 C 632.394287109375 236.0216674804688 632.3992919921875 236.0267333984375 632.4043579101563 236.0318603515625 L 632.4129028320313 236.0404968261719 C 632.4205322265625 236.0481872558594 632.4281005859375 236.0558471679688 632.4356689453125 236.0635070800781 L 632.4496459960938 236.0776672363281 C 632.4616088867188 236.0897216796875 632.4739990234375 236.1022644042969 632.48583984375 236.1142272949219 L 632.4898071289063 236.1182250976563 C 632.4918823242188 236.1203308105469 632.4938354492188 236.122314453125 632.4959106445313 236.1244201660156 L 632.4990844726563 236.1276245117188 C 632.500732421875 236.1293029785156 632.5027465820313 236.1313171386719 632.50439453125 236.1329956054688 L 632.510986328125 236.1396789550781 C 632.512451171875 236.1411437988281 632.5139770507813 236.1427307128906 632.5154418945313 236.1441955566406 L 632.5386962890625 236.1676940917969 C 632.5409545898438 236.1699829101563 632.543212890625 236.1722717285156 632.5454711914063 236.174560546875 L 632.54833984375 236.1774597167969 C 632.553466796875 236.1826171875 632.5582885742188 236.1875305175781 632.5634155273438 236.1926879882813 L 632.569091796875 236.1984558105469 C 632.57421875 236.20361328125 632.5789184570313 236.2083740234375 632.583984375 236.2135009765625 L 632.5868530273438 236.2163696289063 C 632.5917358398438 236.2213134765625 632.5962524414063 236.2258911132813 632.6011352539063 236.2308044433594 L 632.6100463867188 236.2398376464844 C 632.6140747070313 236.2439270019531 632.6184692382813 236.2483520507813 632.6224975585938 236.2524108886719 L 632.6289672851563 236.2589721679688 C 632.6295776367188 236.2595825195313 632.6301879882813 236.2602233886719 632.6307983398438 236.2608337402344 L 632.6578979492188 236.2882385253906 C 632.6581420898438 236.2884521484375 632.6583862304688 236.2886962890625 632.6585693359375 236.2888793945313 L 632.7048950195313 236.3357543945313 C 632.7055053710938 236.3363647460938 632.7061767578125 236.3370666503906 632.706787109375 236.337646484375 L 632.714111328125 236.3450927734375 C 632.7147216796875 236.3456726074219 632.7153930664063 236.3463439941406 632.7159423828125 236.3469543457031 L 632.7237548828125 236.3547973632813 C 632.72802734375 236.3591613769531 632.7324829101563 236.3636169433594 632.7367553710938 236.3679504394531 L 632.7404174804688 236.3716430664063 C 632.7446899414063 236.3759765625 632.7490844726563 236.3804626464844 632.7533569335938 236.384765625 L 632.7609252929688 236.3924255371094 C 632.7657470703125 236.3973083496094 632.7702026367188 236.4017944335938 632.7750244140625 236.4066467285156 L 632.77685546875 236.4085083007813 C 632.781494140625 236.4131774902344 632.7860717773438 236.4178466796875 632.7906494140625 236.4224853515625 L 632.797119140625 236.4289855957031 C 632.8018798828125 236.4338073730469 632.8065795898438 236.4385681152344 632.8113403320313 236.443359375 L 632.8139038085938 236.4459838867188 C 632.8162231445313 236.4483032226563 632.8184814453125 236.4505920410156 632.8207397460938 236.4529113769531 L 632.8226318359375 236.4548034667969 C 632.8241577148438 236.4563598632813 632.8258666992188 236.4580383300781 632.827392578125 236.4595947265625 L 632.8355712890625 236.4678955078125 C 632.85693359375 236.489501953125 632.8784790039063 236.51123046875 632.8993530273438 236.5323791503906 L 632.9051513671875 236.5382385253906 C 632.9158935546875 236.549072265625 632.926513671875 236.559814453125 632.9370727539063 236.5705261230469 L 632.938720703125 236.5722045898438 C 632.94384765625 236.5773620605469 632.9492797851563 236.5828552246094 632.954345703125 236.5879821777344 L 632.9573974609375 236.591064453125 C 632.95849609375 236.5921936035156 632.9598388671875 236.5935363769531 632.9609375 236.5946350097656 L 632.9769287109375 236.6108093261719 C 632.977294921875 236.6111450195313 632.9774780273438 236.6113891601563 632.9778442382813 236.6117248535156 L 632.9817504882813 236.61572265625 C 632.9843139648438 236.6182556152344 632.9866943359375 236.6206665039063 632.9891967773438 236.6231994628906 L 632.9907836914063 236.6248474121094 C 632.9957885742188 236.6299133300781 633.000732421875 236.6348876953125 633.0057373046875 236.6399230957031 L 633.0082397460938 236.6424865722656 C 633.0183715820313 236.6527404785156 633.0282592773438 236.6627502441406 633.0382690429688 236.6728515625 L 633.0438232421875 236.678466796875 C 633.048583984375 236.6832580566406 633.0530395507813 236.6877746582031 633.0577392578125 236.6925354003906 L 633.0578002929688 236.6925964355469 C 633.0618286132813 236.6966552734375 633.0660400390625 236.7008972167969 633.0700073242188 236.7049255371094 L 633.0765991210938 236.7115783691406 C 633.0808715820313 236.7159423828125 633.0853271484375 236.7203979492188 633.089599609375 236.7247619628906 L 633.0916137695313 236.7267456054688 C 633.0941772460938 236.7293701171875 633.0966796875 236.7319030761719 633.0992431640625 236.7344970703125 L 633.1113891601563 236.7467956542969 C 633.111572265625 236.7469482421875 633.1119995117188 236.7473754882813 633.1121826171875 236.74755859375 L 633.1171264648438 236.7525939941406 C 633.1188354492188 236.7543029785156 633.1205444335938 236.7560119628906 633.1222534179688 236.7577209472656 L 633.1256713867188 236.7611999511719 C 633.1292114257813 236.7647705078125 633.1328125 236.7684020996094 633.1363525390625 236.7720031738281 L 633.1439819335938 236.7797546386719 C 633.1473388671875 236.7831420898438 633.150634765625 236.7864685058594 633.1539916992188 236.7898559570313 L 633.1593627929688 236.7952880859375 C 633.1597290039063 236.7956237792969 633.1604614257813 236.7963562011719 633.1607666015625 236.7966918945313 L 633.1759643554688 236.8120727539063 C 633.1761474609375 236.8122253417969 633.1763305664063 236.8124694824219 633.176513671875 236.8126220703125 L 633.1815185546875 236.8176574707031 C 633.1829833984375 236.8191528320313 633.1843872070313 236.8205871582031 633.1859130859375 236.8221130371094 L 633.1895751953125 236.8258666992188 C 633.1912231445313 236.8275146484375 633.1928100585938 236.8290710449219 633.1943969726563 236.8307189941406 L 633.1972045898438 236.8335266113281 C 633.198486328125 236.8348388671875 633.2000732421875 236.83642578125 633.2013549804688 236.8377685546875 L 633.214599609375 236.8511352539063 C 633.215087890625 236.8516235351563 633.2154541015625 236.8519897460938 633.2159423828125 236.8524780273438 L 633.2562255859375 236.8931884765625 C 633.2586059570313 236.8955993652344 633.260986328125 236.8980712890625 633.2633666992188 236.9004516601563 L 633.2681884765625 236.9053039550781 C 633.2722778320313 236.9094543457031 633.2763061523438 236.9135437011719 633.2803955078125 236.9176635742188 L 633.280517578125 236.9177856445313 C 633.2828979492188 236.920166015625 633.2852172851563 236.9225769042969 633.28759765625 236.9249267578125 L 633.2916870117188 236.9290771484375 C 633.2916870117188 236.9290771484375 633.291748046875 236.9291381835938 633.291748046875 236.9291381835938 L 633.2984619140625 236.9359436035156 C 633.3167724609375 236.9544372558594 633.3344116210938 236.9722900390625 633.3521728515625 236.990234375 L 633.3560180664063 236.994140625 C 633.3739013671875 237.0121765136719 633.3912963867188 237.0298156738281 633.4085693359375 237.0472412109375 L 633.4135131835938 237.05224609375 C 633.4208374023438 237.0596923828125 633.4280395507813 237.0669250488281 633.4352416992188 237.0742492675781 L 633.4397583007813 237.0787658691406 C 633.44384765625 237.0829162597656 633.4476928710938 237.0868225097656 633.4517822265625 237.0909423828125 L 633.4520263671875 237.0912170410156 C 633.4533081054688 237.0924987792969 633.4546508789063 237.0938720703125 633.4559326171875 237.0951538085938 L 633.4614868164063 237.1007690429688 C 633.4616088867188 237.1008911132813 633.4619140625 237.1011962890625 633.4620361328125 237.101318359375 L 633.4729614257813 237.1123352050781 C 633.4743041992188 237.1137390136719 633.47607421875 237.1155395507813 633.4774780273438 237.1169128417969 L 633.4791259765625 237.1185913085938 C 633.4828491210938 237.1223449707031 633.4863891601563 237.1259460449219 633.4900512695313 237.1296691894531 L 633.4930419921875 237.1326904296875 C 633.4968872070313 237.1365661621094 633.5003662109375 237.1401062011719 633.504150390625 237.1439208984375 L 633.5052490234375 237.1450500488281 C 633.5083618164063 237.148193359375 633.511474609375 237.1513061523438 633.5145263671875 237.1543884277344 L 633.5191040039063 237.1590270996094 C 633.5266723632813 237.1667175292969 633.5341186523438 237.1742248535156 633.5415649414063 237.1817626953125 L 633.5438842773438 237.18408203125 C 633.5469970703125 237.1872253417969 633.5504150390625 237.1907043457031 633.5535278320313 237.1938171386719 L 633.55810546875 237.198486328125 C 633.5584106445313 237.1987609863281 633.5584106445313 237.1987609863281 633.5586547851563 237.1990356445313 L 633.5841674804688 237.2248229980469 C 633.5858154296875 237.2264709472656 633.5875244140625 237.2282104492188 633.5891723632813 237.2298583984375 L 633.5938720703125 237.2346496582031 C 633.5947265625 237.2355041503906 633.5958251953125 237.2366333007813 633.5967407226563 237.2375183105469 L 633.5987548828125 237.2395629882813 C 633.60009765625 237.2409362792969 633.6015014648438 237.2423706054688 633.6029052734375 237.2437438964844 L 633.6043090820313 237.2451782226563 C 633.6056518554688 237.2465515136719 633.6070556640625 237.2479553222656 633.6083984375 237.2493286132813 L 633.6124877929688 237.25341796875 C 633.6124877929688 237.25341796875 633.6124877929688 237.2534484863281 633.6124877929688 237.2534484863281 L 633.6182861328125 237.2593383789063 C 633.6182861328125 237.2593383789063 633.6183471679688 237.2593994140625 633.6183471679688 237.2593994140625 L 633.6231689453125 237.2642822265625 C 633.6236572265625 237.2647705078125 633.6240234375 237.26513671875 633.62451171875 237.265625 L 633.6296997070313 237.2708740234375 C 633.6298217773438 237.27099609375 633.6299438476563 237.2711181640625 633.6300659179688 237.271240234375 L 633.7060546875 237.3480529785156 C 633.7075805664063 237.3495788574219 633.7089233398438 237.3509826660156 633.71044921875 237.3525085449219 L 633.7156372070313 237.3577270507813 C 633.716552734375 237.3587036132813 633.7175903320313 237.3597412109375 633.7185668945313 237.3606872558594 L 633.7468872070313 237.3893737792969 C 633.747314453125 237.3897705078125 633.7476806640625 237.3901672363281 633.7481079101563 237.3905944824219 L 633.7505493164063 237.3930358886719 C 633.75146484375 237.3939819335938 633.7523193359375 237.3948669433594 633.7532348632813 237.3957824707031 L 633.755126953125 237.397705078125 C 633.7578735351563 237.4004516601563 633.7603149414063 237.4029541015625 633.7630615234375 237.4056701660156 L 633.7650146484375 237.4076538085938 C 633.7678833007813 237.4105529785156 633.7706298828125 237.4133911132813 633.7734985351563 237.416259765625 L 633.7736206054688 237.4163818359375 C 633.7760620117188 237.4188537597656 633.778564453125 237.4213562011719 633.7809448242188 237.4237976074219 L 633.7846069335938 237.4275207519531 C 633.7870483398438 237.429931640625 633.7894287109375 237.432373046875 633.7918090820313 237.4347839355469 L 633.7921752929688 237.4351501464844 C 633.7947998046875 237.4378356933594 633.7974853515625 237.4404907226563 633.800048828125 237.443115234375 L 633.8023071289063 237.4454040527344 C 633.8046264648438 237.44775390625 633.8070068359375 237.4501342773438 633.8092651367188 237.4524536132813 L 633.8203735351563 237.4636535644531 C 633.825439453125 237.4688110351563 633.8304443359375 237.4738159179688 633.8353271484375 237.4787902832031 L 633.8355102539063 237.4789733886719 C 633.840576171875 237.4841003417969 633.8455810546875 237.4891662597656 633.8505249023438 237.4941101074219 L 633.8527221679688 237.496337890625 C 633.8574829101563 237.5011901855469 633.8621826171875 237.5059509277344 633.8668212890625 237.5106201171875 L 633.86767578125 237.5115051269531 C 633.8712158203125 237.5150451660156 633.8746337890625 237.5185546875 633.8780517578125 237.52197265625 L 633.8798217773438 237.5238037109375 C 633.8800048828125 237.5239562988281 633.8802490234375 237.5242309570313 633.8804321289063 237.5243835449219 L 633.8839721679688 237.5279541015625 C 633.884033203125 237.5280151367188 633.884033203125 237.5280456542969 633.8841552734375 237.5281372070313 L 633.8900756835938 237.5341186523438 C 633.8914184570313 237.5354919433594 633.8926391601563 237.5367431640625 633.8939819335938 237.5380859375 L 633.8974609375 237.5416259765625 C 633.8993530273438 237.5435180664063 633.9013061523438 237.5454711914063 633.9031372070313 237.5473327636719 L 633.903564453125 237.5477600097656 C 633.9044189453125 237.5486145019531 633.9052124023438 237.5494689941406 633.9060668945313 237.5503234863281 L 633.9114379882813 237.5557250976563 C 633.9131469726563 237.5574340820313 633.914794921875 237.5591430664063 633.91650390625 237.5608215332031 L 633.9165649414063 237.5609130859375 C 633.91845703125 237.5628051757813 633.9202880859375 237.564697265625 633.922119140625 237.5665588378906 L 633.9234008789063 237.5678405761719 C 633.9251098632813 237.5695495605469 633.9268188476563 237.5712890625 633.928466796875 237.5729675292969 L 633.9300537109375 237.5745544433594 C 633.9303588867188 237.5748901367188 633.9307250976563 237.5752563476563 633.9310302734375 237.5755615234375 L 633.9419555664063 237.5866088867188 C 633.9425048828125 237.587158203125 633.943115234375 237.5877990722656 633.9436645507813 237.5883178710938 L 633.94384765625 237.5885314941406 C 633.944580078125 237.5892333984375 633.9452514648438 237.5899353027344 633.9459838867188 237.5906372070313 L 633.947265625 237.5919494628906 C 633.94970703125 237.5944519042969 633.9523315429688 237.5970764160156 633.9547119140625 237.5994873046875 L 633.9586181640625 237.6034545898438 C 633.9588012695313 237.6036376953125 633.9589233398438 237.603759765625 633.9591064453125 237.6039123535156 L 633.9603881835938 237.605224609375 C 633.9609985351563 237.6058654785156 633.961669921875 237.6065368652344 633.9623413085938 237.607177734375 L 633.962890625 237.6077575683594 C 633.9639282226563 237.6088256835938 633.9650268554688 237.6099548339844 633.966064453125 237.6109924316406 L 633.9686279296875 237.613525390625 C 633.9689331054688 237.6138916015625 633.9692993164063 237.6142272949219 633.9696655273438 237.6145935058594 L 633.9700317382813 237.6150207519531 C 633.9706420898438 237.6156311035156 633.9713134765625 237.6162719726563 633.971923828125 237.6168823242188 L 633.9727783203125 237.6177368164063 C 633.9732666015625 237.6182556152344 633.9736938476563 237.6187133789063 633.9741821289063 237.6192016601563 L 633.9796142578125 237.6246948242188 C 633.9801025390625 237.6251525878906 633.98046875 237.6255493164063 633.98095703125 237.6260070800781 L 633.9822387695313 237.6273498535156 C 633.9832153320313 237.6282958984375 633.9840698242188 237.6291809082031 633.9849853515625 237.630126953125 L 633.9864501953125 237.6315612792969 C 633.9868774414063 237.6319885253906 633.9872436523438 237.6324157714844 633.9876708984375 237.6328430175781 L 633.9877319335938 237.6328735351563 C 633.9883422851563 237.6334838867188 633.9888916015625 237.6340942382813 633.989501953125 237.6346740722656 L 633.9900512695313 237.63525390625 C 633.990478515625 237.6356506347656 633.990966796875 237.6361389160156 633.9913330078125 237.6365661621094 L 633.9921264648438 237.6372985839844 C 633.9923706054688 237.6375427246094 633.9925537109375 237.6377868652344 633.9927978515625 237.6380310058594 L 633.998046875 237.6433410644531 C 633.9982299804688 237.6434936523438 633.9984741210938 237.6437377929688 633.9985961914063 237.6438598632813 L 634.0033569335938 237.6487121582031 C 634.0033569335938 237.6487121582031 634.0033569335938 237.6487121582031 634.0033569335938 237.6487121582031 L 634.0149536132813 237.6603698730469 C 634.0150146484375 237.6604919433594 634.01513671875 237.6605834960938 634.0151977539063 237.6606750488281 L 634.016357421875 237.6618041992188 C 634.016357421875 237.6618041992188 634.016357421875 237.6618041992188 634.016357421875 237.6618041992188 L 634.0196533203125 237.6651611328125 C 634.019775390625 237.6652526855469 634.0198364257813 237.6653442382813 634.0198974609375 237.6654357910156 L 634.0206909179688 237.6661987304688 C 634.0211791992188 237.6667175292969 634.021728515625 237.667236328125 634.022216796875 237.667724609375 L 634.0225219726563 237.6680603027344 C 634.0230712890625 237.6686096191406 634.0235595703125 237.6691284179688 634.0240478515625 237.6696166992188 L 634.0245971679688 237.6701354980469 C 634.024658203125 237.6701965332031 634.024658203125 237.6702270507813 634.0247192382813 237.6702880859375 L 634.0267333984375 237.6723327636719 C 634.0269165039063 237.6724853515625 634.0270385742188 237.672607421875 634.0271606445313 237.6727294921875 L 634.0275268554688 237.673095703125 C 634.0277709960938 237.6734008789063 634.028076171875 237.6737060546875 634.0283813476563 237.6739501953125 L 634.0287475585938 237.6743774414063 C 634.029052734375 237.6746520996094 634.029296875 237.6748962402344 634.0294799804688 237.6751098632813 L 634.0321655273438 237.6777954101563 L 630.5374755859375 241.1339111328125 L 625.3667602539063 235.905517578125 L 623.8634643554688 237.4038391113281 L 620.393798828125 233.922607421875 L 625.391845703125 228.941162109375 Z"/>
  </g>
</svg>
