<?xml version="1.0" encoding="UTF-8"?>
<svg width="972px" height="598px" viewBox="0 0 972 598" version="1.1" xmlns="http://www.w3.org/2000/svg" xmlns:xlink="http://www.w3.org/1999/xlink">
    <title>男孩+板</title>
    <g id="人教一年级上" stroke="none" stroke-width="1" fill="none" fill-rule="evenodd">
        <g id="第16课练一练第5、6题" transform="translate(-130.000000, -68.000000)">
            <g id="背景" transform="translate(-0.000000, 0.000000)">
                <g id="男孩+板" transform="translate(129.995638, 68.782280)">
                    <rect id="矩形_2259" fill="#FFFFFF" fill-rule="nonzero" x="45.2345171" y="-2.84217094e-14" width="926.561806" height="538.418296" rx="49.748"></rect>
                    <rect id="矩形_2260" fill="#FFE9C6" fill-rule="nonzero" x="64.515764" y="17.8682371" width="887.997313" height="502.680824" rx="34.548"></rect>
                    <g id="组_5568" transform="translate(0.000000, 290.433483)">
                        <g id="手" transform="translate(18.839399, 204.808316)" fill="#FFCBA6" fill-rule="nonzero">
                            <g id="组_1943" transform="translate(64.188641, 5.450227)">
                                <polygon id="路径_4151" points="0 0 16.9133393 15.7686169 32.4737315 30.2762636 32.6377251 30.1005465 33.1217062 29.5853758 37.7295262 24.6513182 37.5975313 24.4765995 19.4862388 0.882579293"></polygon>
                            </g>
                            <g id="组_1944" transform="translate(96.818146, 29.531320)">
                                <path d="M2.07814008,10.6080671 C2.19713544,10.6899353 2.30513122,10.7658132 2.42412657,10.8446862 L2.39912755,11.10327 L1.99914317,15.1507547 C1.95228812,15.8498968 2.48186814,16.454629 3.18209696,16.5015802 C3.82130556,16.5444435 4.39239972,16.1052365 4.51404493,15.4772291 L5.13002087,11.6483925 C5.42638189,11.6580125 5.72303369,11.64332 6.01698622,11.6044632 L7.51692763,15.9354914 C7.74003776,16.6124555 8.46111076,16.9903257 9.145864,16.7891173 C9.68554389,16.6148841 10.0497809,16.1114089 10.0458288,15.5451198 C10.0458031,15.4155507 10.0265963,15.2866968 9.98883107,15.1627354 L8.70088138,10.6060703 C8.83287623,10.5301925 8.81987673,10.5431716 8.94687177,10.4672937 L12.7187244,14.6475647 C13.1647506,15.2061621 13.9790451,15.2998688 14.5406533,14.8572272 C15.0994882,14.4119747 15.1933057,13.5997188 14.7506451,13.0391537 C14.7336457,13.0191859 14.7176464,12.999218 14.6996471,12.9782518 L10.8517974,8.19395318 C10.9585754,8.04825861 11.077674,7.91197762 11.2077835,7.78660889 L14.8976393,9.8832339 C15.5092627,10.2542654 16.3062177,10.0619216 16.6805697,9.45292658 C17.0521839,8.84226234 16.859538,8.04655704 16.2495865,7.6727921 L12.1237477,5.01706708 C11.7150701,4.74906371 11.4094518,4.35065852 11.2567815,3.88688636 C11.229339,3.78518225 11.1959497,3.68517148 11.1567854,3.5873685 L14.1216696,2.46317813 C14.439449,2.35209814 14.6999309,2.11938683 14.8456827,1.81635384 C14.9914345,1.51332086 15.010487,1.16485151 14.8986393,0.847778477 C14.6837909,0.236268576 14.0413972,-0.114792488 13.4096974,0.0340882917 L8.85687529,0.93264187 C7.67136116,0.290694104 6.29320278,0.098834694 4.97702685,0.39251133 C2.58995588,0.912433527 0.714308715,2.75523516 0.155215198,5.12988547 C0.081729166,5.42187749 0.0352030239,5.71997993 0.0162206274,6.02045191 C-0.0976351764,7.46647198 0.391557821,8.89526218 1.36816782,9.96909569 C1.58380455,10.2056069 1.82228337,10.4203026 2.08014001,10.6100639" id="路径_4152"></path>
                            </g>
                            <g id="组_1945" transform="translate(11.988680, 0.000000)">
                                <polygon id="路径_4153" points="0 28.3124249 3.43986563 32.3389433 4.79181282 33.921396 4.94980665 34.1041019 27.3679309 14.882044 38.3205031 5.49116076 24.1650561 0 0.142994414 28.1446949"></polygon>
                            </g>
                            <g id="组_1946" transform="translate(0.000000, 27.400756)">
                                <path d="M0.179141741,9.2163006 C0.530745553,9.82721663 1.30508531,10.0483624 1.92707346,9.71549704 L5.66192757,7.79458916 C5.78498994,7.9244739 5.89610007,8.06514863 5.9939146,8.21491256 L1.99407085,12.7925438 C1.49928376,13.2965372 1.50734198,14.1055659 2.01207014,14.5996349 C2.51685508,15.0936461 3.32715444,15.0856005 3.82199944,14.5816639 C3.83999874,14.5636928 3.85799804,14.5447233 3.87399741,14.5247555 L7.77384507,10.5441631 C7.90583992,10.6260313 7.88084089,10.6130522 8.01083582,10.6889301 L6.53989327,15.1527446 C6.49335748,15.2900413 6.47003962,15.4341154 6.47089597,15.5790583 C6.4622329,16.1213497 6.79735292,16.6100338 7.30686331,16.798096 C7.97638994,17.0297979 8.70843513,16.6834432 8.95279902,16.0193496 L10.6137341,11.7951494 C10.9026632,11.8437084 11.1947667,11.871071 11.4877,11.8770176 L11.794688,14.5377346 L11.9336826,15.6938735 C12.0460224,16.3758091 12.6905386,16.8378818 13.3736263,16.7262117 C13.9842715,16.6266504 14.4306984,16.0969522 14.4245853,15.479219 L14.1875945,11.1981104 C14.5859218,10.9715638 14.9538462,10.6954661 15.2825518,10.3764331 C16.2919885,9.35266865 16.8314189,7.95704821 16.7724936,6.52163826 C16.7498909,5.59589751 16.5101473,4.68835232 16.0725209,3.8719036 C15.7759863,3.3200641 15.3988728,2.81534273 14.9535646,2.3743143 C14.1675501,1.58622652 13.184563,1.02259338 12.1066758,0.741941968 C10.8183525,0.402723075 9.45088857,0.536279241 8.25282636,1.11833608 L3.79400054,0.039073391 C3.47124325,-0.0433065556 3.12892794,0.00571657479 2.84237592,0.175355985 C2.5558239,0.344995396 2.34851349,0.62135186 2.26606022,0.943617327 C2.11319904,1.54296007 2.42045802,2.16414145 2.99003194,2.40726127 L5.86991945,3.64427003 C5.82592116,3.73811896 5.78592273,3.83496306 5.75092409,3.93180717 C5.58576918,4.38536426 5.26755431,4.76732934 4.85095925,5.01206825 L0.664122797,7.47310666 C0.0508378306,7.81881153 -0.17742825,8.58778062 0.148142952,9.21130864" id="路径_4154"></path>
                            </g>
                            <g id="组_1947" transform="translate(66.204563, 57.106075)">
                                <polygon id="路径_4155" points="1.32794813 28.4202513 13.7824616 21.6162039 13.4444748 15.0437837 13.3594781 3.8617836 13.3404789 1.54651055 13.3404789 1.03133983 0 0 0.111995625 3.09501788 0.58597711 16.3227249 0.58597711 16.3416944 0.600976524 16.7749969"></polygon>
                            </g>
                            <g id="组_1948" transform="translate(38.567642, 57.331712)">
                                <polygon id="路径_4156" points="1.48594196 22.3240645 14.2964415 28.2525213 13.7034647 16.2668149 13.7034647 16.2538358 13.3914769 4.84520057 13.2574821 0 0 1.15114697 0.771969845 15.0976969 0.938963322 18.0848884"></polygon>
                            </g>
                        </g>
                        <g id="头" transform="translate(0.000000, 51.355848)">
                            <g id="组_1949" transform="translate(121.364543, 85.879940)" fill="#FFCBA6" fill-rule="nonzero">
                                <path d="M6.39775009,20.1977882 C10.6275849,19.0446445 14.8444201,16.8312075 16.7463458,12.8865573 C18.6482716,8.94190707 17.7763056,3.6494265 14.2554431,1.04362112 C11.9375337,-0.669621036 5.04180305,-0.669621036 1.8559275,4.0967065 L0,7.5391651 L0,20.7788529 C2.15108699,20.9957859 4.3238887,20.7971507 6.39975001,20.1937947" id="路径_4157"></path>
                            </g>
                            <g id="组_1950" transform="translate(120.422595, 93.662833)" fill="#F17558" fill-rule="nonzero">
                                <path d="M2.42589058,4.69232636 C4.03321782,2.30276242 6.51330122,0.636079405 9.33562067,0.0488011466 C11.9455187,-0.466369572 13.2034696,3.23367439 10.9175589,4.72427493 C9.25304722,5.66857328 7.40747207,6.25104557 5.50177043,6.43352352 C-4.71283056,7.93111281 2.42589058,4.69232636 2.42589058,4.69232636" id="路径_4158"></path>
                            </g>
                            <g id="组_1951" transform="translate(7.447352, 83.736020)" fill="#FFCBA6" fill-rule="nonzero">
                                <path d="M12.6151483,22.4794862 C7.90733225,21.195553 3.21551552,18.730521 1.09559833,14.3405876 C-1.02431886,9.95065418 -0.0513568682,4.0571411 3.8714899,1.16180179 C6.45138912,-0.745128583 14.1270893,-0.745128583 17.6709509,4.55633753 L19.7368702,8.38816934 L19.7368702,23.1264448 C17.3448349,23.3676872 14.9286514,23.1470228 12.6201482,22.4764911" id="路径_4159"></path>
                            </g>
                            <g id="组_1952" transform="translate(14.754447, 92.392594)" fill="#F17558" fill-rule="nonzero">
                                <path d="M10.7758402,5.22475264 C8.98784476,2.56367217 6.22713711,0.70756969 3.08514063,0.0540759965 C0.185253907,-0.518003115 -1.21469141,3.60036745 1.32520938,5.26468836 C3.17781371,6.314778 5.23144364,6.96286663 7.35197396,7.16662677 C18.7245297,8.82495731 10.7768402,5.22874621 10.7768402,5.22874621" id="路径_4160"></path>
                            </g>
                            <g id="组_1953" transform="translate(70.583527, 71.582755)">
                                <line x1="0" y1="0.2045" x2="10.0386079" y2="0.7955" id="直线_7"></line>
                            </g>
                            <g id="组_1954" transform="translate(23.898897, 36.066329)" fill="#FFCBA6" fill-rule="nonzero">
                                <path d="M0.28644214,56.6678787 L0.405437492,57.466593 L0.998414328,61.659843 C1.54224816,66.4347262 2.86430117,71.0887175 4.91226144,75.4376645 L4.91226144,75.4436549 C7.5262243,81.0450677 11.2837237,86.0392756 15.9438305,90.1060525 C18.1959737,92.0619902 20.6457184,93.7788067 23.253545,95.2288063 C30.2578409,99.1568579 38.1912025,101.132088 46.2226478,100.947601 L45.5026759,110.592076 L53.179376,117.666688 L60.8550762,110.592076 L60.5360886,100.623123 C64.5921484,100.077325 68.590337,99.1657271 72.481622,97.8995072 C74.7941537,97.1511251 77.0597782,96.2652999 79.266357,95.2467774 C80.2149866,94.8108125 81.1422837,94.3488894 82.0482483,93.8610081 C89.8189448,89.7276616 96.3616892,83.8151791 100.077544,76.0097436 C100.17254,75.8270377 100.260537,75.6393399 100.337534,75.4496452 C100.484528,75.1421402 100.616523,74.8336368 100.751518,74.5211399 C100.886512,74.2086429 101.025507,73.8651958 101.151502,73.5317326 L101.318496,73.0734702 C102.832741,68.8371704 103.478841,64.3402337 103.218421,59.8497567 C102.852986,53.8525353 102.030302,47.8918419 100.757517,42.0194586 C100.757517,42.0194586 98.0656226,0.902645207 50.4264835,0.0959437726 C50.414484,0.0969421655 -4.41937404,-4.87705109 0.28644214,56.6678787 Z" id="路径_4161"></path>
                            </g>
                            <g id="组_1955" transform="translate(87.958478, 76.238413)" fill="#FFFFFF" fill-rule="nonzero">
                                <path d="M0.483351183,17.8006933 C1.45318013,21.4261207 3.82590125,24.5183215 7.07943108,26.3969011 C10.3329609,28.2754806 14.2007237,28.7865188 17.8316735,27.8175689 C21.4629421,26.8494957 24.5601705,24.4805378 26.4417412,21.2320396 C28.323312,17.9835415 28.8350307,14.1217171 27.8642816,10.4964511 C26.8942174,6.87117042 24.5214538,3.7791402 21.2679943,1.9006013 C18.0145349,0.0220623917 14.146899,-0.489097645 10.5159593,0.479575445 L10.5159593,0.479575445 C2.95555872,2.49741312 -1.53579319,10.2516516 0.483351183,17.8006933" id="路径_4162"></path>
                            </g>
                            <g id="组_1956" transform="translate(40.711098, 75.649820)" fill="#FFFFFF" fill-rule="nonzero">
                                <path d="M0.485577287,17.7992369 C1.45540624,21.4246643 3.82812735,24.5168652 7.08165718,26.3954447 C10.335187,28.2740243 14.2029498,28.7850624 17.8338996,27.8161125 C25.3925865,25.7987522 29.8830072,18.0463635 27.8645078,10.4989883 C25.8440056,2.95012179 18.0769367,-1.53411637 10.5161855,0.48311107 L10.5161855,0.48311107 C2.95542144,2.50047516 -1.53615941,10.2551089 0.483577365,17.8042289" id="路径_4163"></path>
                            </g>
                            <g id="组_1957" transform="translate(92.433246, 76.502633)" fill="#7C3821" fill-rule="nonzero">
                                <path d="M0.388411797,14.3486054 C2.01694521,20.4323684 8.27627008,24.0465533 14.3698656,22.4216101 C20.4636825,20.7956446 24.083684,14.5454463 22.4555498,8.46108263 C20.8265724,2.37772372 14.5673877,-1.23593328 8.47409595,0.389076317 L8.47409595,0.389076317 C2.38181625,2.01505409 -1.237465,8.26344098 0.389411758,14.3466086 L0.389411758,14.3466086" id="路径_4164"></path>
                            </g>
                            <g id="组_1958" transform="translate(104.243341, 80.372075)" fill="#FFFFFF" fill-rule="nonzero">
                                <path d="M0.0988667731,3.66613024 C0.515258583,5.22059442 2.11466441,6.14396154 3.67172721,5.72880989 C4.41935723,5.5291803 5.05693313,5.04118607 5.44418448,4.37218882 C5.83143583,3.70319157 5.93663824,2.90799685 5.73664655,2.16155219 C5.53714322,1.41498566 5.04866846,0.778177757 4.37875577,0.391316263 C3.70884308,0.00445476867 2.91241059,-0.10074617 2.16478607,0.0988725291 C0.608968938,0.516028593 -0.315163708,2.11174402 0.0988667731,3.66613024" id="路径_4165"></path>
                            </g>
                            <g id="组_1959" transform="translate(94.318600, 89.046636)" fill="#9E5036" fill-rule="nonzero">
                                <path d="M0,5.13524055 C3.47134914,10.3928109 10.553874,11.8458911 15.820382,8.38101575 C17.1147564,7.52875768 18.2218514,6.42237963 19.0742549,5.12925019 C15.6043557,-0.12814673 8.52308119,-1.58213986 3.25687278,1.8814782 C1.96116409,2.7339359 0.853001004,3.84104065 0,5.13524055" id="路径_4166"></path>
                            </g>
                            <g id="组_1960" transform="translate(28.810492, 103.439622)" fill="#F59679" fill-rule="nonzero">
                                <path d="M0.0026665625,8.06437061 C0.0026665625,8.06437061 -0.00333320313,8.06437061 0.0026665625,8.07036097 C2.61670001,13.6717521 6.37379039,18.6662092 11.0332357,22.733757 C13.2876911,24.6873724 15.7378843,26.403699 18.3449501,27.8555124 C21.9079101,26.4348723 24.759626,23.6591364 26.2726438,20.1390412 C27.7856615,16.6189459 27.8360185,12.642895 26.4126349,9.08572651 C24.9897636,5.52835372 22.2096681,2.68110963 18.6840442,1.1704645 C15.1584203,-0.340180638 11.1761246,-0.390458685 7.61336927,1.03069288 C4.29249689,2.35500542 1.58051867,4.86035393 0.000666640626,8.06337222" id="路径_4167"></path>
                            </g>
                            <g id="组_1961" transform="translate(98.880737, 103.082202)" fill="#F59679" fill-rule="nonzero">
                                <path d="M0.482666001,18.1561218 C1.45177129,21.8013104 3.81610801,24.9206107 7.06640882,26.8421397 C14.8371053,22.7087932 21.3798497,16.7963107 25.0957046,8.99087527 C25.1907008,8.80816937 25.2796974,8.61947312 25.3556944,8.43077687 C25.5216879,8.08233776 25.6686822,7.73190187 25.8226762,7.38146597 C25.9936695,6.96912972 26.1526633,6.55279989 26.3056573,6.1324765 C24.0967904,2.99890364 20.7316114,0.869787823 16.9504466,0.21352635 C13.1692818,-0.442735123 9.28187649,0.427617328 6.14344488,2.63310951 C1.18949072,6.11388417 -1.06865006,12.3071608 0.484665923,18.1531266" id="路径_4168"></path>
                            </g>
                            <g id="组_1962" transform="translate(45.276655, 75.923815)" fill="#7C3821" fill-rule="nonzero">
                                <path d="M0.388844808,14.2864553 C2.00666997,20.3483275 8.23976052,23.9532291 14.311301,22.3384938 C20.3827356,20.7231753 23.9935988,14.5001142 22.3769859,8.43786991 C20.7587147,2.37536523 14.5246402,-1.22958763 8.45252982,0.385831452 L8.44253021,0.385831452 C5.53364992,1.15435782 3.04972817,3.04522814 1.5372786,5.64241223 C0.0248290372,8.23959633 -0.392236396,11.3303121 0.377845237,14.2345389 L0.391844691,14.2904489" id="路径_4169"></path>
                            </g>
                            <g id="组_1963" transform="translate(47.155442, 88.413796)" fill="#9E5036" fill-rule="nonzero">
                                <path d="M0,5.11612988 C3.46653496,10.3554044 10.5304163,11.7973429 15.7783837,8.33694526 C17.0619893,7.4902174 18.1603922,6.39251805 19.0072575,5.11013952 C17.3470392,2.59410851 14.7537018,0.839671479 11.7978216,0.232833217 C8.84194153,-0.374005045 5.76568303,0.216471454 3.24587321,1.87434825 C1.95506352,2.72382138 0.851011787,3.8268212 0.000999960939,5.11612988" id="路径_4170"></path>
                            </g>
                            <g id="组_1964" transform="translate(57.702745, 79.766558)" fill="#FFFFFF" fill-rule="nonzero">
                                <path d="M0.0982810123,3.65064702 C0.29709123,4.39450169 0.783767955,5.02901136 1.45121209,5.4145445 C2.11865622,5.80007764 2.91217391,5.90504165 3.65714199,5.70633793 C5.20813813,5.29293566 6.13019926,3.70286336 5.71706153,2.15405611 C5.51802742,1.41012597 5.03115435,0.775608113 4.36354999,0.39009075 C3.69594564,0.00457338744 2.90229734,-0.100363519 2.15720059,0.0983652047 L2.15720059,0.0983652047 C0.607334466,0.513155567 -0.313741377,2.10230019 0.0982810123,3.65064702" id="路径_4171"></path>
                            </g>
                            <g id="组_1965" transform="translate(64.145255, 108.341084)" fill="#DA5257" fill-rule="nonzero">
                                <path d="M1.06048214,8.80682346 C2.59368105,12.1472225 5.61268553,14.5718809 9.20916383,15.3512887 C10.0217926,15.5265469 10.8506974,15.6155654 11.6820672,15.6168614 C13.3275394,15.6171709 14.9542154,15.2676369 16.4538808,14.5915117 C16.7538691,14.4547319 17.038858,14.3139585 17.3218469,14.1542156 C20.0819944,12.635896 22.1062427,10.0635217 22.9306278,7.02668898 L23.5616032,4.7154095 L0.533502724,0 L0.190516122,1.88097216 C-0.239951645,4.22411587 0.0631182719,6.64278151 1.05848222,8.80782185" id="路径_4172"></path>
                            </g>
                            <g id="组_1966" transform="translate(65.202737, 117.118027)" fill="#EE706E" fill-rule="nonzero">
                                <path d="M0.00199992188,0.0298807335 C1.53519883,3.37027976 4.55420331,5.7949382 8.15068161,6.57434596 C8.96331041,6.74960412 9.79221515,6.83862269 10.623585,6.83991867 C12.2690572,6.84022819 13.8957331,6.49069414 15.3953986,5.81456899 C15.6953869,5.67778917 15.9803758,5.53701578 16.2633647,5.37727292 C13.732724,3.15190078 10.6862956,1.59161335 7.39971095,0.837580561 C4.99196087,0.176617351 2.49391205,-0.0960518953 0,0.0298807335" id="路径_4173"></path>
                            </g>
                            <g id="组_1967" transform="translate(69.312577, 109.288559)" fill="#FFFFFF" fill-rule="nonzero">
                                <path d="M13.0334909,2.66870413 L13.0334909,2.66870413 C12.9126659,3.28228142 12.5526067,3.82278138 12.0325586,4.17124584 C11.5125104,4.51971031 10.8750945,4.64758038 10.2605992,4.52671325 L10.2535995,4.52671325 L1.89992578,2.85839877 C0.795473959,2.63846192 0.000179509388,1.67056003 0,0.546120897 L0,0 L13.0334909,2.66870413 Z" id="路径_4174"></path>
                            </g>
                            <g id="组_1968" fill="#111111" fill-rule="nonzero">
                                <path d="M132.409112,76.3385996 C134.426392,70.6796879 135.796047,64.8110971 136.491952,58.8447598 C136.920408,55.4353993 136.834456,51.9811671 136.236962,48.5972554 C136.04797,47.5519381 132.652102,37.1626619 132.152122,37.4961252 C133.305077,36.728361 131.576144,35.1938312 131.576144,35.1998216 C133.642776,35.5949233 135.749332,35.741732 137.850899,35.6371176 C140.95674,35.1616128 143.702756,33.3630717 145.376646,30.7080521 C145.401604,30.6661196 133.802057,27.5131949 132.777098,27.1987011 C124.037439,24.5739263 119.610612,15.6962169 112.48589,10.7172317 C103.630236,4.53518311 92.8736562,1.63984381 82.2390716,0.540613262 C72.8227184,-0.323891765 63.3396735,-0.151128305 53.9611762,1.05578398 C52.2322438,1.05578398 33.5979717,5.84806973 30.7130844,12.9486398 C31.5240527,10.9518541 25.8862729,1.66680041 23.4463682,1.7666397 C19.6465167,1.91540024 22.0774217,13.8272255 23.5393646,16.0176995 C22.301413,16.50192 18.7755507,14.6918337 17.5675979,14.3513818 C15.4106821,13.7463557 7.34799708,11.0147528 9.10192856,15.5214982 C9.88589794,17.5342582 14.2517274,20.1141054 16.3676447,20.1141054 C16.6596333,20.1141054 16.8676252,20.1470523 16.9096236,20.4385831 C15.5376772,22.3614877 13.2327672,23.3688661 11.5098345,24.9473252 C4.77009777,31.1233835 1.42722836,44.7724124 0.369269682,53.5333097 C-0.384927026,59.0504484 0.0189511373,64.6639156 1.55522336,70.0167759 C3.03216566,74.8440054 6.15504368,78.9763535 9.1879252,82.9329844 C11.9408177,86.5271987 14.4637191,91.2316259 18.1625746,93.9292834 C20.4074869,95.5656493 26.0162678,99.0011192 28.1901829,95.7263906 C29.6371264,93.5439038 28.496171,88.9063689 28.6061667,86.4023996 C28.7331617,83.529025 28.8351577,80.6556503 28.8661565,77.7782821 C28.8941554,74.982782 27.779199,71.2837365 31.8880385,71.7949136 C35.0879135,72.1942708 37.6078151,74.535502 41.0876791,74.7192063 C48.387394,75.1025892 54.5361538,63.2107318 52.9992138,59.3729096 C51.4622739,55.5350874 59.1469737,66.6611775 60.6839136,67.8133229 C60.6839136,67.8133229 69.5205685,66.5343816 73.1074283,59.1183194 C75.1563483,61.6752036 82.4880619,71.2657654 87.3868706,67.6216315 C87.3868706,66.2787931 85.6589381,62.0555912 86.0429231,59.5685946 C86.2339156,59.1862101 91.0377279,74.7271935 117.164707,72.9959802 C117.164707,72.9959802 120.623572,73.7637444 121.776527,68.3923907 C121.96852,71.0780676 123.696452,84.6961462 125.234392,85.2722189 C127.271313,86.0339927 130.634181,80.5598046 131.253157,79.1820224 C131.660141,78.2615042 132.045126,77.3150278 132.409112,76.3385996 Z" id="路径_4175"></path>
                            </g>
                            <g id="编组" transform="translate(4.277032, 6.846287)">
                                <path d="M99.4472008,64.2237935 L106.530924,66.2016097 C107.142551,66.4349536 107.827855,66.1292625 108.061864,65.518709 C108.295575,64.9080414 107.989403,64.2238118 107.377891,63.9901695 C107.309531,63.9640766 107.2389,63.9443575 107.166899,63.9312644 L100.083176,61.9534481 C99.7735257,61.8969926 99.4540986,61.9657598 99.1952629,62.1446008 C98.9364272,62.3234417 98.7594182,62.5976839 98.7032299,62.9069133 C98.6012002,63.467731 98.9138387,64.0215425 99.4472008,64.2247919" id="路径_4176" fill="#333333" fill-rule="nonzero"></path>
                                <path d="M45.8282953,64.959609 L52.9450173,63.0986047 C53.2556321,63.0481477 53.5334252,62.8764977 53.7172263,62.6214523 C53.9010273,62.366407 53.9757639,62.0488808 53.924979,61.7387936 C53.8744428,61.428666 53.7025232,61.1513084 53.4470772,60.9677956 C53.1916313,60.7842828 52.8736064,60.7096634 52.5630322,60.7603686 C52.4892111,60.7731362 52.4166168,60.7921749 52.3460407,60.817277 L45.2293187,62.6782813 C44.6152548,62.9055138 44.3018912,63.5866814 44.529346,64.199832 C44.7247972,64.7275376 45.2654336,65.0448147 45.8222955,64.9586106" id="路径_4177" fill="#333333" fill-rule="nonzero"></path>
                                <line x1="118.386266" y1="32.7305513" x2="118.386266" y2="32.4105513" id="路径_4178"></line>
                                <path d="M122.485301,41.1040099 C122.610296,41.6860729 122.592297,42.5017599 122.011319,42.6325494 C121.527338,42.7513581 121.138354,42.2461713 120.895363,41.8138672 C119.372297,38.845632 117.590135,36.0172209 115.569571,33.3614732 C113.714643,31.1110957 110.177782,29.6903827 108.762837,27.5658027 C116.480535,22.6866567 121.394344,36.0032208 122.485301,41.1040099 Z" id="路径_4179" fill="#333333" fill-rule="nonzero"></path>
                                <path d="M107.384891,20.4732197 C96.8553021,11.9778949 84.8407714,4.59178445 71.436295,2.70881551 C70.0563489,2.51612568 68.4484117,2.23557729 67.8114366,0.998568528 C74.9771567,-1.55332363 83.8338107,1.22121014 90.3875547,4.43303998 C93.9951959,6.1999123 97.3143025,8.50163501 100.23217,11.2600504 C102.922065,13.8019586 104.691996,18.3017153 107.384891,20.4732197 Z" id="路径_4180" fill="#333333" fill-rule="nonzero"></path>
                                <path d="M75.4671375,51.7708393 C73.8062024,49.6332802 71.2263032,48.1586539 69.4863712,46.0210948 C67.3784535,43.4322621 63.9765864,39.1231985 65.5645244,35.5529456 C68.1434236,36.085089 70.0373496,41.508359 70.9023159,43.7517478 C72.0255752,46.6320378 73.5633491,49.3334685 75.4671375,51.7708393 L75.4671375,51.7708393 Z" id="路径_4181" fill="#333333" fill-rule="nonzero"></path>
                                <path d="M47.6852228,45.5358758 C47.5662274,45.0366794 44.9573293,43.7677221 44.4603487,43.3853376 C43.2225293,42.4646991 42.0900741,41.4106929 41.0834807,40.2423969 C39.3745474,38.2116658 37.337627,35.4171641 37.8666063,32.608685 C42.4194285,32.5158345 46.8512553,41.8508078 47.6852228,45.5358758 Z" id="路径_4182" fill="#333333" fill-rule="nonzero"></path>
                                <path d="M3.42295177,53.8494932 C2.26604066,53.3594056 1.39912197,52.3653562 1.0720436,51.1538325 C-0.627889998,46.7609039 -0.135909216,41.7759283 1.36003235,37.3071218 C2.27999641,34.5585463 4.65990345,28.7798484 7.97477396,28.0640007 C11.2116475,27.3651257 9.52471342,30.3143782 8.48675396,32.4888779 C6.83881833,35.9393236 5.00888982,38.9784315 4.0979254,42.7573485 C3.84093544,43.838608 2.11800274,53.4750959 3.42295177,53.8494932 Z" id="路径_4183" fill="#333333" fill-rule="nonzero"></path>
                            </g>
                        </g>
                        <g id="组_1977" transform="translate(57.514494, 244.138157)" fill="#EA764D" fill-rule="nonzero">
                            <path d="M39.463002,0.446130122 L40.1059769,17.3279551 C40.1059769,17.3279551 25.8725329,18.8255444 23.0896416,17.9699217 L20.4137461,11.8797252 C20.4137461,11.8797252 15.9199216,18.1835778 15.4909384,18.2904058 C15.0619551,18.3972338 2.54144422,18.3982322 0.615519454,16.3675011 C-1.31040531,14.3367701 1.89846934,0.232474049 1.89846934,0.232474049 C1.89846934,0.232474049 39.5709978,-0.412487742 39.463002,0.446130122 Z" id="路径_4184"></path>
                        </g>
                        <g id="组_1978" transform="translate(49.252360, 197.470128)" fill="#71CCBB" fill-rule="nonzero">
                            <path d="M49.8130542,46.5271043 C28.9438694,55.182172 7.91469083,46.366363 7.91469083,46.366363 L10.9645717,21.1239962 L6.52374517,24.1421379 C6.95172845,22.6445486 0,13.7778215 0,13.7778215 C0,13.7778215 6.42174915,5.76372201 9.68462169,3.09501788 C13.4604742,0.00599035719 19.9592203,0 19.9592203,0 C26.4149682,9.20817739 34.4296551,0.550114469 35.3156205,0.213656073 C37.9222442,0.468155212 40.4330698,1.32806028 42.6473341,2.72461413 C45.1202375,4.53170521 54.8468575,15.2045249 54.6268661,15.2045249 C54.6268661,15.2045249 47.7471349,25.0337027 46.9481661,25.0337027 C46.1491973,25.0337027 43.0423187,21.3466378 43.0423187,21.3466378 L49.8130542,46.5271043 Z" id="路径_4185"></path>
                        </g>
                        <g id="组_1979" transform="translate(89.931771, 200.020024)" fill="#365BAD" fill-rule="nonzero">
                            <path d="M4.14683801,2.14454787 L1.70793328,0 L0,8.0740031 L2.88888715,8.87271739 C2.88888715,8.87271739 4.50782391,3.18587163 4.14683801,2.14454787 Z" id="路径_4186"></path>
                        </g>
                        <g id="组_1980" transform="translate(88.445954, 207.826040)" fill="#098C7A" fill-rule="nonzero">
                            <path d="M3.50273846,2.2977189 C3.50273846,2.2977189 5.80264862,2.35063373 4.57069675,0.800129606 C3.52673752,0.463671211 2.33578405,0.191109958 1.59481299,0.0353606715 C1.04143511,-0.0901075946 0.466267388,0.124457556 0.130870176,0.581481569 C-0.0161240822,0.795137642 -0.069122012,1.01478407 0.130870176,1.17352854 C1.21346756,1.6621372 2.34331103,2.03883019 3.50273846,2.2977189 Z" id="路径_4187"></path>
                        </g>
                        <g id="组_1981" transform="translate(58.925586, 198.918796)" fill="#365BAD" fill-rule="nonzero">
                            <path d="M0.048394811,1.36180787 L2.85828505,0 L4.35322665,8.98553578 L1.4643395,9.78425008 C1.4643395,9.78425008 -0.312591088,2.40413002 0.048394811,1.36180787 Z" id="路径_4188"></path>
                        </g>
                        <g id="组_1982" transform="translate(59.839049, 207.825799)" fill="#098C7A" fill-rule="nonzero">
                            <path d="M1.43084142,2.29796082 C1.43084142,2.29796082 -0.869068737,2.35087564 0.36288314,0.800371523 C1.40684236,0.463913128 2.59779584,0.191351876 3.33876689,0.0356025889 C3.89218135,-0.0904106801 4.46764282,0.124264051 4.80270971,0.581723486 C4.94970397,0.795379559 5.0027019,1.01502599 4.80270971,1.17377045 C3.7201815,1.66255538 2.59031963,2.0392545 1.43084142,2.29796082 L1.43084142,2.29796082 Z" id="路径_4189"></path>
                        </g>
                        <g id="组_1983" transform="translate(60.909905, 209.121222)" fill="#1AA389" fill-rule="nonzero">
                            <path d="M0,1.19023471 C0,1.19023471 0.15999375,1.91107436 1.48494199,1.78927043 C2.80989024,1.6674665 3.53086208,0.66607846 3.24987305,0.346592743 C2.72524656,0.0228313994 2.09323545,-0.0794320589 1.49304794,0.0623271513 C0.892860438,0.204086361 0.373728762,0.578240004 0.049998047,1.10237614 C0.032998711,1.13332632 0.016999336,1.16128132 0,1.19023471 Z" id="路径_4190"></path>
                        </g>
                        <g id="组_1984" transform="translate(60.405925, 211.031298)" fill="#365BAD" fill-rule="nonzero">
                            <path d="M32.4257334,2.60580538 L31.181782,0 L1.24395141,0 C0.719628805,0.797465383 0.301467708,1.65966095 0,2.56487127 C0.0389984766,3.04709502 32.4257334,2.60580538 32.4257334,2.60580538 Z" id="路径_4191"></path>
                        </g>
                        <g id="组_1985" transform="translate(56.793066, 213.605155)" fill="#3174BB" fill-rule="nonzero">
                            <path d="M42.3793446,26.3316134 L36.0385922,0.0409341075 L3.61185891,0 L0,25.580822 C0,25.580822 28.9748682,28.0069166 42.3793446,26.3316134 Z" id="路径_4192"></path>
                        </g>
                        <g id="组_1986" transform="translate(54.179992, 238.036827)" fill="#365BAD" fill-rule="nonzero">
                            <path d="M44.9924183,0.72483322 C44.9924183,0.72483322 45.8753838,6.65428844 46.356365,12.7454833 C46.356365,12.7454833 47.9623023,21.2398098 47.5563182,21.5602939 C47.150334,21.880778 33.1088825,25.8084556 28.6150581,23.4851954 C24.1212336,21.1619352 25.724171,21.7220336 25.724171,21.7220336 L23.8782431,17.0735164 L23.3962619,21.4814209 C23.3962619,21.4814209 16.4965314,25.0067461 10.6347604,24.6872604 C7.43839786,24.5002305 4.26190937,24.0605594 1.1351315,23.372377 C0.789147586,23.3028771 0.557010445,22.9766455 0.605152204,22.6275759 L0.690148884,22.0175578 C0.718926485,21.8528437 0.683120476,21.6833894 0.59015279,21.5443196 C0.248166149,21.0610975 -0.509804243,19.248016 0.522155446,13.2227151 C1.78810599,5.79467219 1.3221242,2.80149038 2.60807396,0 C2.61307377,0.00499196432 13.154662,4.54468432 44.9924183,0.72483322 Z" id="路径_4193"></path>
                        </g>
                        <g id="组_1987" transform="translate(79.401182, 258.486908)" fill="#3174BB" fill-rule="nonzero">
                            <path d="M22.6331159,1.12419037 L22.8241084,1.6513418 C23.2305024,2.75633877 22.6628447,3.98105722 21.556158,4.38693825 C21.43596,4.43192937 21.3117347,4.46536079 21.1851725,4.48677753 C16.3223624,5.34639379 7.90069138,6.84697827 3.69185579,4.40990128 C0.320987461,2.88735217 0.480981212,2.8124727 0.399984376,2.48699663 C0.31898754,2.16152055 0,0 0,0 C0,0 3.85484942,4.73038539 22.6331159,1.12419037 Z" id="路径_4194"></path>
                        </g>
                        <g id="组_1988" transform="translate(54.635829, 259.517250)" fill="#3174BB" fill-rule="nonzero">
                            <path d="M22.9444243,0 L23.3394089,2.88735217 C23.3905437,3.25061302 23.1560421,3.59294187 22.79843,3.67708092 C19.2695678,4.49875825 4.83813157,8.22575881 0.247310904,2.99917217 C0.180908997,2.92499332 0.131134772,2.83751444 0.101316607,2.7425852 C-0.0577260779,2.03096789 -0.029128836,1.29032558 0.184313365,0.593045362 C0.227179491,0.424153446 0.335679449,0.279275474 0.485809882,0.190462681 C0.635940315,0.101649889 0.81532619,0.0762229854 0.984282116,0.119807144 C1.03249223,0.13161125 1.07914431,0.149036456 1.12327669,0.171723573 C3.0712006,1.17910197 8.75997838,3.5123461 22.9444243,0 Z" id="路径_4195"></path>
                        </g>
                        <g id="组_1989" transform="translate(95.798531, 239.212934)" fill="#4E70B8" fill-rule="nonzero">
                            <path d="M3.53187291,1.73820198 C2.69090576,3.59321592 -0.826956822,10.124702 4.62083037,11.5673797 C4.75882498,12.4479622 4.89681959,13.5711542 4.89681959,13.5711542 C4.89681959,13.5711542 -1.17594319,10.4461845 0.204002907,4.114377 C0.341997516,3.95363574 3.47787502,0 3.47787502,0 L3.39787815,0.427312146 C3.62302031,0.826709222 3.67156508,1.30162963 3.53187291,1.73820198 L3.53187291,1.73820198 Z" id="路径_4196"></path>
                        </g>
                        <g id="组_1990" transform="translate(54.880041, 238.548004)" fill="#4E70B8" fill-rule="nonzero">
                            <path d="M1.61803568,11.7031612 C3.35696776,10.6907908 4.52692206,8.70199221 4.13893721,5.66288433 C3.48599655,3.71432474 2.67881454,1.82072203 1.7250315,0 L1.16305346,1.84403162 C1.16305346,1.84403162 5.59188046,7.08958773 0.156092792,10.7297281 C-0.0518990838,10.8695031 0.00109884597,11.0422251 0.0270978304,11.2289246 C0.0270978304,11.2349149 -0.00190103685,11.3966546 9.88850261e-05,11.4026449 C0.0710961117,11.951761 0.976060762,12.0755617 1.61803568,11.7031612 Z" id="路径_4197"></path>
                        </g>
                        <g id="组_1991" transform="translate(60.931973, 210.432242)" fill="#3174BB" fill-rule="nonzero">
                            <path d="M1.30088054,1.89696727 C1.11691553,1.89860062 0.93327591,1.88120229 0.752901948,1.84505084 C0.172924603,1.71925334 0.0409297594,1.41773869 0.00893100935,1.25300387 C-0.0980648111,0.637993863 0.774901089,0.199699395 1.63086765,0.0549324297 C2.48683422,-0.0898345357 3.45379644,0.0329677866 3.5597923,0.646979398 L3.5597923,0.646979398 C3.66678812,1.2629878 2.79382222,1.70128226 1.93785566,1.84505084 C1.72742783,1.8806674 1.51430793,1.89803766 1.30088054,1.89696727 L1.30088054,1.89696727 Z M2.26884273,0.620022791 C2.09018379,0.620809004 1.91190333,0.636505143 1.73586355,0.666947256 C1.3168253,0.688372479 0.921244859,0.866603578 0.627906831,1.16614369 C1.01464157,1.29720683 1.43058085,1.31658689 1.82785996,1.22205369 C2.23519569,1.18945368 2.62023885,1.02303884 2.92281719,0.748815471 C2.71886609,0.648291689 2.49166391,0.604163612 2.26484289,0.621021184 L2.26884273,0.620022791 Z" id="路径_4198"></path>
                        </g>
                        <g id="组_1992" transform="translate(88.999559, 209.121659)" fill="#1AA389" fill-rule="nonzero">
                            <path d="M3.31011907,1.18979777 C3.31011907,1.18979777 3.15012532,1.91063742 1.82517707,1.78883349 C0.500228829,1.66702956 -0.220743008,0.665641518 0.0602460161,0.346155801 C1.15297563,-0.326900911 2.58524967,0.0113900964 3.26012102,1.1019392 C3.27412047,1.13288938 3.29411969,1.16084438 3.31011907,1.18979777 Z" id="路径_4199"></path>
                        </g>
                        <g id="组_1993" transform="translate(88.716194, 210.436412)" fill="#3174BB" fill-rule="nonzero">
                            <path d="M2.26753576,1.89279754 C2.05399257,1.89254901 1.84087182,1.8738425 1.63056064,1.83688754 C0.775594039,1.69012379 -0.0963718993,1.25182932 0.00862399926,0.638816101 L0.00862399926,0.638816101 C0.0376228665,0.4710861 0.172617593,0.165577883 0.752594938,0.0467691322 C1.5424003,-0.0825569568 2.35280459,0.0581619075 3.0525051,0.446126278 C3.55948529,0.756626459 3.58548428,1.0860961 3.55248557,1.2548245 C3.51948686,1.42355289 3.38849197,1.72806272 2.80851463,1.84687147 C2.63022173,1.8805079 2.44895707,1.89589625 2.26753576,1.89279754 Z M0.641599274,0.745644138 C0.945752428,1.0204906 1.33257934,1.18691644 1.74155631,1.21888236 C2.14341174,1.33890475 2.57581555,1.3032544 2.952509,1.11904307 C2.63074917,0.865953703 2.2438925,0.708823316 1.8365526,0.665772708 C1.44033132,0.559899842 1.02015053,0.58798499 0.641599274,0.745644138 L0.641599274,0.745644138 Z" id="路径_4200"></path>
                        </g>
                        <g id="组_1994" transform="translate(69.579350, 219.646342)" fill="#FFFFFF" fill-rule="nonzero">
                            <path d="M13.2736976,0.255677074 C13.2736976,0.255677074 1.71514906,-0.385291146 0.645190859,0.36250511 C-0.424767346,1.11030137 0.110211756,7.0936698 0.324203397,8.37660464 C0.538195038,9.65953947 10.1688188,11.5824441 12.8467142,7.94929249 C14.39009,5.65655335 14.553917,2.70463014 13.2736976,0.255677074 L13.2736976,0.255677074 Z" id="路径_4201"></path>
                        </g>
                        <g id="组_1995" transform="translate(69.470662, 219.237831)" fill="#D2EAFF" fill-rule="nonzero">
                            <path d="M13.3823859,0.66318942 C14.2017436,1.29113893 14.6115017,2.31622613 14.4503442,3.33488873 C14.0223609,4.83247802 0.00290850377,4.83247802 0.00290850377,3.86902891 C-0.0307119041,2.78900733 0.227662409,1.71988386 0.750879286,0.774011028 C1.18186245,0.446538168 10.384503,-0.725575055 13.3823859,0.66318942 Z" id="路径_4202"></path>
                        </g>
                        <g id="组_1996" transform="translate(88.272836, 213.384510)" fill="#365BAD" fill-rule="nonzero">
                            <polygon id="路径_4203" points="2.71289403 0.21964643 1.64493574 26.1249461 0 26.0420795 1.32494824 0"></polygon>
                        </g>
                        <g id="组_1997" transform="translate(62.691835, 213.384510)" fill="#365BAD" fill-rule="nonzero">
                            <polygon id="路径_4204" points="0 0.21964643 1.06795828 26.1249461 2.71289403 26.0420795 1.38794578 0"></polygon>
                        </g>
                        <g id="组_1998" transform="translate(56.622761, 238.116698)" fill="#29529B" fill-rule="nonzero">
                            <path d="M42.9246344,2.19147234 C42.9246344,2.19147234 12.7448133,4.96999968 0.0103107832,1.44267769 C-0.0976849982,0.267569288 0.67828469,0 0.67828469,0 C0.67828469,0 10.3369074,3.15292467 42.6846438,0.34843911 C43.5686093,0.670920005 43.0026314,2.15353341 42.9246344,2.19147234 Z" id="路径_4205"></path>
                        </g>
                        <g id="组_1999" transform="translate(58.374004, 283.754235)" fill="#E6EFFF" fill-rule="nonzero">
                            <path d="M12.9994922,0 C8.84662139,0.829678069 4.57713678,0.897341394 0.399984376,0.199678573 C0.374985352,0.318487324 0,9.66444293 0,9.66444293 C0,9.66444293 12.4175149,9.71635936 13.2644819,9.00650203 C14.1114488,8.29664471 12.9994922,0 12.9994922,0 Z" id="路径_4206"></path>
                        </g>
                        <g id="组_2000" transform="translate(48.171952, 288.760177)" fill="#365BAD" fill-rule="nonzero">
                            <path d="M24.8824787,5.82861754 C24.8510104,7.06971942 24.4896874,8.28016559 23.8355196,9.33597168 C22.0455895,12.231311 19.2356992,13.8766624 16.2568156,15.3762485 C14.05514,16.6239273 11.6430331,17.4580597 9.14009361,17.8372869 C6.27475489,18.1081741 3.41824067,17.2379949 1.19240406,15.4161842 C-1.70748266,12.655628 1.34839797,8.68202435 3.31332122,6.32382041 C5.19363587,3.97436246 7.67856668,2.17976275 10.5020404,1.13217751 C17.3507729,-1.2180393 17.7787562,4.1273561 17.7787562,4.1273561 C17.7787562,4.1273561 23.6105284,3.48538949 23.6105284,2.28332448 C23.6105284,1.08125947 23.6505268,0.00199678573 23.6505268,0 C23.6005287,1.35581751 24.362499,2.59582145 24.6754868,3.88075307 C24.831358,4.51788804 24.9009754,5.17301123 24.8824787,5.82861754 L24.8824787,5.82861754 Z" id="路径_4207"></path>
                        </g>
                        <g id="组_2001" transform="translate(84.704975, 283.426762)" fill="#E6EFFF" fill-rule="nonzero">
                            <path d="M14.1994453,0.0908537507 C9.89170845,0.786940166 5.49750784,0.756228997 1.19995313,0 C1.17395414,0.118808751 0,8.53326382 0,8.53326382 C0,8.53326382 12.9234952,10.3693083 13.7794617,9.65346061 C14.6354283,8.93761293 14.1994453,0.0908537507 14.1994453,0.0908537507 Z" id="路径_4208"></path>
                        </g>
                        <g id="组_2002" transform="translate(52.461235, 292.378018)" fill="#FFFFFF" fill-rule="nonzero">
                            <path d="M2.03292059,0.075213879 C2.03292059,0.075213879 9.52462794,-0.780408806 11.6645444,3.28005498 C11.9855318,3.3878814 9.95261123,3.60053908 9.95261123,4.13467927 C9.95261123,4.66881945 3.23687356,0.43463531 0,1.5967646 C0.522523203,1.04716246 1.08106653,0.532854312 1.67193469,0.0572428074 C1.79138163,0.0750409122 1.91229285,0.0810602728 2.03292059,0.075213879 Z" id="路径_4209"></path>
                        </g>
                        <g id="组_2003" transform="translate(50.307319, 294.757935)" fill="#FFFFFF" fill-rule="nonzero">
                            <path d="M1.43194406,0.00857271656 C1.43194406,0.00857271656 6.48874653,-0.271975678 9.65862271,2.37676059 C8.97664935,2.57643916 7.57070427,3.45901846 7.61170267,3.73856846 C7.65270107,4.01811846 2.67589547,1.30848023 0,1.8296413 C0.446115767,1.1987962 0.92404657,0.5909898 1.43194406,0.00857271656 Z" id="路径_4210"></path>
                        </g>
                        <g id="组_2004" transform="translate(85.896929, 283.371850)" fill="#3174BB" fill-rule="nonzero">
                            <path d="M12.9904926,0.894560007 C10.7729331,1.47004767 8.47613615,1.68014483 6.19075817,1.51655876 C4.11167551,1.61219063 2.0291931,1.42646831 0,0.964447507 L0.0269989454,0 C2.42090543,0.747796256 6.95672825,0.840646792 12.9424944,0.166731608 L12.9904926,0.894560007 Z" id="路径_4211"></path>
                        </g>
                        <g id="组_2005" transform="translate(85.896929, 284.733658)" fill="#365BAD" fill-rule="nonzero">
                            <path d="M12.9904926,0.8955584 C10.7730046,1.47143599 8.4760888,1.68120677 6.19075817,1.51655876 C4.1117194,1.61257922 2.02922926,1.42719206 0,0.9654459 L0.0269989454,0 C2.42090543,0.747796256 6.95672825,0.840646792 12.9424944,0.166731608 L12.9904926,0.8955584 Z" id="路径_4212"></path>
                        </g>
                        <g id="组_2006" transform="translate(58.745989, 283.534588)" fill="#3174BB" fill-rule="nonzero">
                            <path d="M12.6795047,0.832659649 C10.4948933,1.40139367 8.23082831,1.60382781 5.97976642,1.43169537 C3.97190477,1.53826683 1.95900061,1.362834 0,0.910534293 L0.0299988282,0 C2.42490528,0.746797863 6.65574001,0.743802684 12.6425062,0.0698875005 L12.6795047,0.832659649 Z" id="路径_4213"></path>
                        </g>
                        <g id="组_2007" transform="translate(58.673992, 284.836493)" fill="#3174BB" fill-rule="nonzero">
                            <path d="M12.8214992,0.882579292 C10.6126607,1.45514974 8.324622,1.66156991 6.04876372,1.49359573 C4.01808917,1.59899329 1.98256925,1.42361303 0,0.97243465 L0.0509980079,0 C2.44590446,0.748794649 6.7967345,0.814688578 12.7825007,0.140773394 L12.8214992,0.882579292 Z" id="路径_4214"></path>
                        </g>
                        <g id="组_2008" transform="translate(83.943005, 288.014377)" fill="#365BAD" fill-rule="nonzero">
                            <path d="M0,6.23795862 C0.476105531,9.93527831 2.78207712,13.1458956 6.13676028,14.7822048 C11.1275653,17.486851 19.4362408,21.1469593 24.2000547,15.8554771 C25.9789852,13.8786592 23.6350768,10.2075686 22.4571228,8.47535703 C20.585316,5.5922806 17.8817672,3.34378448 14.7034256,2.02673752 C7.93668997,-0.551112861 7.32971368,4.77331629 7.32971368,4.77331629 C7.32971368,4.77331629 1.51794071,3.93766146 1.56293895,2.73559645 C1.55935143,1.81643187 1.4632049,0.899956613 1.27595016,0 C1.27595016,0 0.102995977,5.54607236 0,6.23795862 Z" id="路径_4215"></path>
                        </g>
                        <g id="组_2009" transform="translate(92.662496, 292.378018)" fill="#FFFFFF" fill-rule="nonzero">
                            <path d="M9.66679122,0.075213879 C9.66679122,0.075213879 2.17508386,-0.780408806 0.0341674929,3.28005498 C-0.285820008,3.3878814 1.74710058,3.60053908 1.74710058,4.13467927 C1.74710058,4.66881945 8.46283825,0.43463531 11.6997118,1.5967646 C11.1774264,1.04692161 10.6188665,0.532598174 10.0277771,0.0572428074 C9.90833533,0.0750926342 9.78741899,0.0811122497 9.66679122,0.075213879 L9.66679122,0.075213879 Z" id="路径_4216"></path>
                        </g>
                        <g id="组_2010" transform="translate(96.854501, 294.757935)" fill="#FFFFFF" fill-rule="nonzero">
                            <path d="M8.22667865,0.00857271656 C8.22667865,0.00857271656 3.16987618,-0.271975678 0,2.37676059 C0.68197336,2.57643916 2.08691848,3.45901846 2.04592008,3.73856846 C2.00492168,4.01811846 6.98272724,1.30848023 9.65862271,1.8296413 C9.2132394,1.19825184 8.73527962,0.590408595 8.22667865,0.00857271656 Z" id="路径_4217"></path>
                        </g>
                        <g id="组_5567" transform="translate(32.162690, 0.000000)" fill-rule="nonzero">
                            <path d="M70.7395744,12.6436475 C68.6131287,12.7733367 66.7348535,14.071642 65.8647648,16.0132234 C64.9834328,17.9760402 65.2843348,20.2671091 66.6427345,21.9366883 L66.0427579,24.4446511 C64.8224705,29.5676653 60.23636,33.1821228 54.9621907,33.1775935 C49.024848,33.1772049 44.083995,28.6226 43.6106341,22.7134379 L43.0426563,15.6168614 C45.9550021,13.6910913 47.3747608,10.1704954 46.6115169,6.76710707 C45.9047651,3.59067599 43.4125888,1.11449051 40.2277663,0.424317203 C37.7418358,-0.120196273 35.1426972,0.489995357 33.1602869,2.08352724 C31.1778765,3.67705913 30.0260062,6.0820617 30.0281647,8.62311941 C30.0275145,11.4393504 31.4443036,14.0674223 33.7990174,15.6178598 L33.2310396,22.7144363 C32.7576787,28.6235984 27.8168257,33.1782033 21.879483,33.1785919 C16.6078511,33.1758211 12.0257258,29.5645044 10.7989159,24.4456495 L10.1989393,21.9376867 C11.5588945,20.268776 11.8599165,17.9767931 10.9769089,16.0142218 C10.1126293,14.0678326 8.23100735,12.7672141 6.10209932,12.6446459 C4.34847654,12.5365237 2.64163569,13.2351406 1.46863831,14.5411403 C0.295640933,15.84714 -0.214667288,17.6170674 0.0833344304,19.3458588 C0.410204253,21.2303639 1.65912094,22.8269051 3.41120444,23.6000108 L8.51100522,59.583088 L68.3086694,59.583088 L68.3086694,59.5671137 L73.4084702,23.5990124 C75.1641654,22.8307747 76.4146267,21.2317785 76.7353402,19.3448604 C77.0430771,17.6185672 76.5396197,15.846802 75.3697453,14.5390649 C74.1998709,13.2313279 72.4932223,12.5325394 70.7405744,12.6436475 L70.7395744,12.6436475 Z" id="路径_15335" fill="#F9C85D"></path>
                            <path d="M59.2860218,68.439832 L17.220665,68.439832 C14.8696339,68.440626 12.6146663,67.5084991 10.9522362,65.8486759 C9.28980604,64.1888526 8.35621513,61.9374211 8.35701073,59.5900768 L68.1546754,59.5900768 C68.1546754,61.9379614 67.2197923,64.1895339 65.5565108,65.8492709 C63.8932294,67.5090079 61.6375939,68.4408905 59.2860218,68.439832 L59.2860218,68.439832 Z" id="路径_15336" fill="#83C6EF"></path>
                            <path d="M0.0203368023,18.3424739 C0.0197845038,21.5109636 2.59164653,24.0801335 5.76511249,24.0812365 C7.28898694,24.0817658 8.75065819,23.4778663 9.82857521,22.4023885 C10.9064922,21.3269107 11.5123576,19.8679523 11.5128883,18.3464675 L11.5128883,18.3464675 C11.5134185,16.8249016 10.9084013,15.3654738 9.83098939,14.2893769 C8.75357747,13.21328 7.29206816,12.6087034 5.76811237,12.6087034 C4.24406471,12.6081741 2.78224193,13.2122107 1.70429617,14.2879043 C0.6263504,15.363598 0.0206020352,16.8228129 0.0203368023,18.3444707 L0.0203368023,18.3424739 Z" id="路径_15337" fill="#F9C85D"></path>
                            <path d="M70.7395744,12.6436475 C68.6131287,12.7733367 66.7348535,14.071642 65.8647648,16.0132234 C64.9834328,17.9760402 65.2843348,20.2671091 66.6427345,21.9366883 L66.0427579,24.4446511 C64.8224705,29.5676653 60.23636,33.1821228 54.9621907,33.1775935 C49.024848,33.1772049 44.083995,28.6226 43.6106341,22.7134379 L43.0426563,15.6168614 C45.9550021,13.6910913 47.3747608,10.1704954 46.6115169,6.76710707 C45.9047651,3.59067599 43.4125888,1.11449051 40.2277663,0.424317203 C39.6291392,0.300892735 39.0190721,0.241320399 38.4078374,0.246280462 L38.4078374,59.5890784 L68.3066695,59.5890784 L68.3066695,59.5731041 L73.4064702,23.6069995 C75.1615104,22.8373926 76.4115676,21.238538 76.7333403,19.3518491 C77.0422825,17.6246917 76.539499,15.851562 75.3695949,14.5424277 C74.1996907,13.2332935 72.4923336,12.5332543 70.7385745,12.6436475 L70.7395744,12.6436475 Z" id="路径_15338" fill="#FFB103"></path>
                            <path d="M65.3667829,18.3424739 C65.3657231,19.8618405 65.9692195,21.3193987 67.0445112,22.394502 C68.1198029,23.4696053 69.5788074,24.074187 71.1005603,24.0752466 C74.2696086,24.0769005 76.8401277,21.5135412 76.8423374,18.3494627 L76.8423374,18.3424739 C76.8433972,16.8229345 76.2397635,15.3652251 75.1642556,14.2900931 C74.0887477,13.214961 72.6294862,12.6104962 71.10756,12.6097013 C69.5858072,12.6089075 68.1260653,13.2117116 67.0494609,14.2855043 C65.9728566,15.3592969 65.3675797,16.8161187 65.3667829,18.3354852 L65.3667829,18.3424739 Z" id="路径_15339" fill="#F9C85D"></path>
                            <path d="M29.9341646,8.47535726 C29.9320458,10.7243021 30.8249406,12.8819486 32.4163697,14.4735036 C34.0077989,16.0650586 36.1673595,16.9601086 38.4198369,16.9617004 C40.672487,16.9638158 42.8336739,16.0721843 44.4277573,14.4830348 C46.0218408,12.8938852 46.9181796,10.7374547 46.919505,8.48833637 L46.919505,8.47835244 C46.9197701,6.22984544 46.0253372,4.07334083 44.4329993,2.48331266 C42.8406613,0.893284482 40.6808751,0 38.4288366,0 C36.17689,-0.000529426478 34.0169958,0.892278768 32.4244416,2.48196118 C30.8318874,4.07164359 29.9371682,6.22794042 29.9371683,8.47635566 L29.9341646,8.47535726 Z" id="路径_15340" fill="#F9C85D"></path>
                            <path d="M38.2528434,59.5900768 L38.2528434,68.4398316 L59.4940137,68.4398316 C61.7893515,68.440626 63.9909069,67.5305885 65.6139559,65.9100846 C67.237005,64.2895807 68.1484718,62.0914777 68.1476762,59.7997393 L68.1476762,59.5900768 L38.2528434,59.5900768 Z" id="路径_15341" fill="#429BCF"></path>
                            <path d="M9.91895023,14.390835 C9.24297663,17.8931972 6.3510896,20.9283115 2.20725146,22.8142756 C3.21416617,23.6305008 4.4711196,24.0770222 5.76811237,24.0792393 C8.94118788,24.0786881 11.5133358,21.5105736 11.5138879,18.3424739 C11.5096923,16.8697432 10.9386698,15.4549703 9.91895023,14.390835 Z M75.2723974,14.4377595 C74.487428,17.8921988 71.5475429,20.8574256 67.395705,22.6894765 C68.4259447,23.5802133 69.7417426,24.0729081 71.1045602,24.0782431 C72.6266381,24.0795663 74.0867864,23.476595 75.163246,22.4021979 C76.2397056,21.3278009 76.8441329,19.8701526 76.8433368,18.3504611 C76.8372878,16.8941861 76.2755071,15.4949715 75.2723974,14.4377595 L75.2723974,14.4377595 Z M44.3416056,2.39614311 C44.5237154,2.90717776 44.6183675,3.44517366 44.6215947,3.98758134 C44.6215947,7.9811528 39.6377893,11.2149473 33.4940293,11.2149473 C32.4197805,11.2166011 31.3479807,11.1125989 30.2941543,10.9044471 C31.3741541,14.487605 34.6800673,16.9394129 38.4278366,16.936739 C43.117265,16.9361854 46.9185049,13.1404593 46.9185049,8.45838459 C46.913375,6.17229237 45.982509,3.98543283 44.3376057,2.39514472 L44.3416056,2.39614311 Z" id="路径_15342" fill="#FFB103"></path>
                            <path d="M2.87722529,15.8544789 C3.05921818,16.1659775 3.80518905,16.073127 4.54516014,15.6458148 C5.28513124,15.2185027 5.73811354,14.6214637 5.55812057,14.3089668 L5.55812057,14.3089668 C5.3781276,13.9974682 4.63215674,14.0903187 3.89118569,14.5176309 C3.15021463,14.944943 2.69723233,15.5409836 2.87722529,15.8544789 Z" id="路径_15343" fill="#F7EAD0"></path>
                            <path d="M72.0275241,15.64881 C72.7674952,16.0751238 73.5134661,16.1689727 73.694459,15.8564757 C73.8754519,15.5439787 73.4214697,14.9459414 72.6814986,14.5196277 L72.6814986,14.5196277 C71.7405353,13.9784987 70.8815689,13.7069359 70.6535778,14.1042962 C70.4255867,14.5016566 70.9985643,15.2584384 72.0275241,15.64881 Z" id="路径_15344" fill="#F7EAD0"></path>
                            <path d="M35.0579682,2.52892936 C35.0579682,2.98419651 36.496912,3.35160508 38.2748426,3.35160508 C40.0527731,3.35160508 41.4957168,2.98319812 41.4967167,2.52992775 L41.4967167,2.52992775 C41.4967167,2.075659 40.056773,1.70725203 38.2788424,1.70725203 C36.5009119,1.70725203 35.0599682,2.07466061 35.0589682,2.52892936 L35.0579682,2.52892936 Z" id="路径_15345" fill="#F7EAD0"></path>
                            <path d="M40.9907365,45.4678097 L36.216923,45.4678097 C35.1318252,45.4645235 34.2528427,44.5873653 34.2489998,43.5039709 C34.2528396,42.4204133 35.1316635,41.5429675 36.216923,41.5391338 L40.9907365,41.5391338 C42.0756054,41.5435145 42.9538234,42.4208011 42.9576597,43.5039709 C42.9538199,44.5869772 42.0754437,45.463976 40.9907365,45.4678097 Z" id="路径_15346" fill="#DA3329"></path>
                            <path d="M40.9907365,41.532145 L38.4218368,41.532145 L38.4218368,45.4678097 L40.9887366,45.4678097 C42.0734438,45.463976 42.95182,44.5869772 42.9556597,43.5039709 C42.9551267,42.4190741 42.0773205,41.5381843 40.9907365,41.532145 Z" id="路径_15347" fill="#C11B16"></path>
                        </g>
                    </g>
                </g>
            </g>
        </g>
    </g>
</svg>