<svg xmlns="http://www.w3.org/2000/svg" xmlns:xlink="http://www.w3.org/1999/xlink" width="93.956" height="81.368" viewBox="0 0 93.956 81.368">
  <defs>
    <style>
      .cls-1 {
        stroke-miterlimit: 10;
        stroke-dasharray: 12.288;
        fill: url(#linear-gradient);
      }

      .cls-2, .cls-3 {
        stroke: none;
      }

      .cls-3 {
        fill: #fff;
      }
    </style>
    <linearGradient id="linear-gradient" y1="0.5" x2="1" y2="0.5" gradientUnits="objectBoundingBox">
      <stop offset="0" stop-color="#fff" stop-opacity="0.4"/>
      <stop offset="1" stop-color="#fff" stop-opacity="0.4"/>
    </linearGradient>
  </defs>
  <g id="路径_12502" data-name="路径 12502" class="cls-1" transform="translate(-306.026 -306.947)">
    <path class="cls-2" d="M376.493,306.947H329.515l-23.489,40.684,23.489,40.684h46.978l23.489-40.684Z"/>
    <path class="cls-3" d="M 376.4930114746094 306.9474792480469 C 376.4930114746094 306.9474792480469 382.6367797851563 317.5888061523438 382.6367797851563 317.5888061523438 L 378.3802490234375 320.0462951660156 L 373.6553344726563 311.8624877929688 L 364.9512329101563 311.8625183105469 L 364.9512329101563 306.9474792480469 L 376.4930114746094 306.9474792480469 Z M 388.7805480957031 328.2300720214844 L 389.2145690917969 328.9818725585938 C 389.2149047851563 328.9823913574219 389.2152709960938 328.9830627441406 389.215576171875 328.9836120605469 L 389.2340393066406 329.0155639648438 C 389.2347717285156 329.0168151855469 389.2356872558594 329.0184020996094 389.2364196777344 329.0196533203125 L 389.2858581542969 329.1052856445313 C 389.2859497070313 329.10546875 389.2860412597656 329.1056518554688 389.2861633300781 329.1058349609375 L 389.2902526855469 329.1128845214844 C 389.290771484375 329.1138305664063 389.2913208007813 329.1147766113281 389.2918701171875 329.11572265625 L 389.2955627441406 329.1221313476563 C 389.2962341308594 329.123291015625 389.296875 329.1243896484375 389.2975463867188 329.1255187988281 L 389.3182983398438 329.1615295410156 C 389.3202209472656 329.1648254394531 389.3222351074219 329.1683044433594 389.3241271972656 329.1716003417969 L 389.3876342773438 329.2816162109375 C 389.3884582519531 329.2830200195313 389.3890686035156 329.2840881347656 389.389892578125 329.2855224609375 L 389.394287109375 329.2931213378906 C 389.3968811035156 329.297607421875 389.3995056152344 329.3021850585938 389.4021301269531 329.3067016601563 L 389.4044494628906 329.3106994628906 C 389.4071655273438 329.3154296875 389.4099426269531 329.3202514648438 389.4127197265625 329.3250122070313 L 389.4175109863281 329.3333435058594 C 389.4181213378906 329.3343811035156 389.4186096191406 329.3352355957031 389.4192199707031 329.3362731933594 L 389.421142578125 329.3396301269531 C 389.4223327636719 329.3417053222656 389.4235229492188 329.34375 389.4247436523438 329.3458557128906 L 389.42822265625 329.3519287109375 C 389.428955078125 329.3531799316406 389.4297180175781 329.3544616699219 389.430419921875 329.355712890625 L 389.4445495605469 329.3801879882813 C 389.4577331542969 329.4029846191406 389.4711303710938 329.4262084960938 389.4845886230469 329.4495239257813 L 389.4862976074219 329.4524841308594 C 389.49365234375 329.4652404785156 389.5011596679688 329.4782104492188 389.5086059570313 329.4911499023438 L 389.5098876953125 329.4933471679688 C 389.51708984375 329.5058288574219 389.5243225097656 329.5183410644531 389.5316162109375 329.5309753417969 L 389.5364990234375 329.5394592285156 C 389.5435791015625 329.5516662597656 389.5507202148438 329.5640563964844 389.557861328125 329.576416015625 L 389.5591430664063 329.5786437988281 C 389.566650390625 329.5916748046875 389.5742492675781 329.6048278808594 389.5818481445313 329.6180114746094 L 389.5857238769531 329.6247253417969 C 389.6015319824219 329.6520690917969 389.6173400878906 329.679443359375 389.6334838867188 329.7073974609375 L 389.6366882324219 329.7129516601563 C 389.6531066894531 329.7414245605469 389.669921875 329.7705383300781 389.6867370605469 329.7996215820313 L 389.6875610351563 329.8010864257813 C 389.7044982910156 329.8304138183594 389.7216186523438 329.8600463867188 389.7388916015625 329.8899841308594 L 389.7424011230469 329.8960876464844 C 389.7460632324219 329.9024353027344 389.7501525878906 329.9094848632813 389.7538146972656 329.9158325195313 L 389.7543334960938 329.9167175292969 C 391.4868469238281 332.9175109863281 394.92431640625 338.8713989257813 394.92431640625 338.8713989257813 L 390.6677856445313 341.3288879394531 L 384.5240173339844 330.6875915527344 L 388.7805480957031 328.2300720214844 Z M 394.6393432617188 347.0552062988281 L 398.8958740234375 349.5126953125 L 392.7521057128906 360.1539916992188 L 388.4955749511719 357.6965026855469 L 394.6393432617188 347.0552062988281 Z M 382.3518371582031 368.3378295898438 L 386.6083374023438 370.7953186035156 L 382.8448486328125 377.3139038085938 C 382.8446655273438 377.3142395019531 382.8443298339844 377.3147888183594 382.8441467285156 377.3150939941406 L 382.8095703125 377.375 C 382.8093872070313 377.3753051757813 382.809326171875 377.3754272460938 382.8091430664063 377.375732421875 L 382.6717224121094 377.6137390136719 C 382.6704711914063 377.6159362792969 382.6690063476563 377.6184387207031 382.6677551269531 377.6206359863281 L 382.6629028320313 377.6290588378906 C 382.6614379882813 377.6315612792969 382.6599426269531 377.6341552734375 382.6585083007813 377.6366577148438 L 382.6535034179688 377.6453247070313 C 382.6527709960938 377.6465759277344 382.6520690917969 377.6477966308594 382.6513366699219 377.6490478515625 L 382.6448974609375 377.6602478027344 C 382.6409301757813 377.6671142578125 382.6365356445313 377.6747131347656 382.632568359375 377.6815490722656 L 382.6102600097656 377.7201843261719 C 382.6027221679688 377.7332763671875 382.5952758789063 377.7461547851563 382.5877685546875 377.7591857910156 L 382.5872497558594 377.7600708007813 C 382.5852661132813 377.7634887695313 382.5831298828125 377.7671813964844 382.5811767578125 377.7705993652344 L 382.5694580078125 377.7908935546875 C 382.5676574707031 377.7940063476563 382.5657653808594 377.7972717285156 382.5639953613281 377.8003845214844 L 382.5602416992188 377.8068542480469 C 382.5575561523438 377.8115234375 382.5547790527344 377.8163146972656 382.5520935058594 377.8209838867188 L 382.5325012207031 377.8549194335938 C 382.5321350097656 377.8555297851563 382.5318298339844 377.8560791015625 382.5314636230469 377.856689453125 L 382.5262756347656 377.8656616210938 C 382.5237731933594 377.8699951171875 382.521484375 377.8739929199219 382.5189819335938 377.8782958984375 L 382.5187072753906 377.8787841796875 C 382.5169372558594 377.8818664550781 382.5151977539063 377.8848571777344 382.513427734375 377.887939453125 L 382.5075073242188 377.898193359375 C 382.5036010742188 377.9049682617188 382.5001220703125 377.9109802246094 382.4962158203125 377.9177551269531 L 382.4906005859375 377.9274597167969 C 382.487060546875 377.93359375 382.4836120605469 377.9395751953125 382.4800720214844 377.9457397460938 L 382.4729614257813 377.9580383300781 C 382.4688720703125 377.965087890625 382.4650573730469 377.9717102050781 382.4609985351563 377.978759765625 L 382.4572448730469 377.9852600097656 C 382.4556274414063 377.9880065917969 382.4540405273438 377.9907836914063 382.4524536132813 377.9935302734375 L 382.4474792480469 378.0021667480469 C 382.4469299316406 378.0030822753906 382.4468383789063 378.0032653808594 382.4462890625 378.0041809082031 L 382.4324035644531 378.0282592773438 C 382.4309997558594 378.0307006835938 382.429443359375 378.0334167480469 382.4280395507813 378.0358581542969 L 382.3968200683594 378.0899047851563 C 382.3963012695313 378.0908203125 382.3958129882813 378.0916442871094 382.3952941894531 378.0925598144531 L 382.3812255859375 378.1168823242188 C 382.3801879882813 378.1187133789063 382.3788757324219 378.1209716796875 382.3778381347656 378.1227722167969 L 382.3731689453125 378.130859375 C 382.3658142089844 378.1436157226563 382.3587341308594 378.1558532714844 382.3514099121094 378.1685485839844 L 382.33740234375 378.1928405761719 C 382.3168334960938 378.2284240722656 382.2966003417969 378.2634887695313 382.2762145996094 378.2987976074219 L 382.2732238769531 378.303955078125 C 382.2305908203125 378.3778076171875 382.1880493164063 378.4515075683594 382.146240234375 378.52392578125 L 382.1406555175781 378.5335693359375 C 382.0552673339844 378.6814880371094 381.9719543457031 378.8258056640625 381.8905639648438 378.966796875 L 381.8887939453125 378.9698181152344 C 381.0643310546875 380.3978576660156 380.464599609375 381.4366149902344 380.464599609375 381.4366149902344 L 376.2080688476563 378.9791259765625 L 382.3518371582031 368.3378295898438 Z M 359.8611145019531 383.4005432128906 L 372.1486511230469 383.4005432128906 L 372.1486511230469 388.3155517578125 C 372.1486511230469 388.3155517578125 359.8611145019531 388.3155517578125 359.8611145019531 388.3155517578125 L 359.8611145019531 383.4005432128906 Z M 335.2860717773438 383.4005432128906 L 347.5735778808594 383.4005432128906 L 347.5735778808594 388.3155517578125 C 347.5735778808594 388.3155517578125 335.2860717773438 388.3155517578125 335.2860717773438 388.3155517578125 L 335.2860717773438 383.4005432128906 Z M 324.3695983886719 369.5732116699219 L 330.5133666992188 380.2144775390625 L 326.2568664550781 382.6719970703125 L 323.921142578125 378.62646484375 C 323.921142578125 378.62646484375 323.9208679199219 378.6259765625 323.9208679199219 378.6259765625 L 323.9133605957031 378.6129455566406 C 323.9100646972656 378.6072387695313 323.906494140625 378.6011047363281 323.9032287597656 378.5953979492188 L 323.8879089355469 378.5688781738281 C 323.8866271972656 378.5666809082031 323.8854370117188 378.5646057128906 323.8841552734375 378.5624084472656 L 323.8796997070313 378.5546569824219 C 323.8749389648438 378.54638671875 323.8705749511719 378.538818359375 323.8657836914063 378.5305786132813 L 323.8618469238281 378.5237731933594 C 323.8514099121094 378.5056457519531 323.8409118652344 378.4874877929688 323.8304443359375 378.4693298339844 L 323.826416015625 378.4623413085938 C 323.8153686523438 378.4432373046875 323.8045654296875 378.4245300292969 323.7935180664063 378.4053955078125 L 323.7929992675781 378.4044799804688 C 323.7874755859375 378.3948974609375 323.7820129394531 378.3854675292969 323.7764892578125 378.3758850097656 L 323.7743835449219 378.3722229003906 C 323.7725219726563 378.3690185546875 323.7708435058594 378.3661193847656 323.7690124511719 378.3629150390625 L 323.7375183105469 378.3084106445313 C 323.7362365722656 378.30615234375 323.7348327636719 378.3037719726563 323.7335510253906 378.301513671875 L 323.7292175292969 378.2940063476563 C 323.7279052734375 378.2917785644531 323.7267150878906 378.2896728515625 323.7254333496094 378.2874450683594 L 323.719970703125 378.2779846191406 C 323.7099914550781 378.2607116699219 323.6998291015625 378.2431335449219 323.6898498535156 378.2257995605469 L 323.6849060058594 378.21728515625 C 323.6799011230469 378.2086181640625 323.6745910644531 378.1994018554688 323.6695861816406 378.1907348632813 L 323.6688232421875 378.1893920898438 C 323.6634521484375 378.1800842285156 323.6578674316406 378.1704406738281 323.6524963378906 378.1611328125 L 323.6499938964844 378.1567687988281 C 323.6388549804688 378.1374816894531 323.6278686523438 378.1184692382813 323.61669921875 378.0991516113281 L 323.6144714355469 378.0952758789063 C 321.9495849609375 375.2116088867188 320.1130981445313 372.0307006835938 320.1130981445313 372.0307006835938 L 324.3695983886719 369.5732116699219 Z M 312.0820617675781 348.2905883789063 L 318.2258605957031 358.931884765625 L 313.9693298339844 361.3893737792969 C 313.9693298339844 361.3893737792969 307.8255615234375 350.7480773925781 307.8255615234375 350.7480773925781 L 312.0820617675781 348.2905883789063 Z M 316.5143737792969 329.4654846191406 L 320.7709045410156 331.9229736328125 L 314.6271362304688 342.5643005371094 L 310.37060546875 340.1067810058594 L 316.5143737792969 329.4654846191406 Z M 328.8019104003906 308.182861328125 L 333.0584106445313 310.6403503417969 L 326.9146728515625 321.2816772460938 L 322.6581420898438 318.8241882324219 L 328.8019104003906 308.182861328125 Z M 340.3761901855469 306.947509765625 C 340.3761901855469 306.947509765625 352.6636962890625 306.947509765625 352.6636962890625 306.947509765625 L 352.6636962890625 311.8625183105469 L 340.3761901855469 311.8625183105469 L 340.3761901855469 306.947509765625 Z"/>
  </g>
</svg>
