<svg xmlns="http://www.w3.org/2000/svg" xmlns:xlink="http://www.w3.org/1999/xlink" width="44.785" height="50.055" viewBox="0 0 44.785 50.055">
  <defs>
    <style>
      .cls-1 {
        stroke-miterlimit: 10;
        stroke-dasharray: 12.288;
        fill: url(#linear-gradient);
      }

      .cls-2, .cls-3 {
        stroke: none;
      }

      .cls-3 {
        fill: #fff;
      }
    </style>
    <linearGradient id="linear-gradient" y1="0.5" x2="1" y2="0.5" gradientUnits="objectBoundingBox">
      <stop offset="0" stop-color="#fff" stop-opacity="0.4"/>
      <stop offset="1" stop-color="#fff" stop-opacity="0.4"/>
    </linearGradient>
  </defs>
  <g id="路径_12604" data-name="路径 12604" class="cls-1" transform="translate(-508.595 -180.901)">
    <path class="cls-2" d="M553.381,181.127,508.6,180.9l43.862,50.055Z"/>
    <path class="cls-3" d="M 508.595458984375 180.9013519287109 C 508.595458984375 180.9013519287109 509.4765625 180.9057769775391 510.7672119140625 180.9122772216797 L 510.7672119140625 180.9122772216797 L 515.1594848632813 180.9343872070313 L 515.1594848632813 180.9343872070313 C 518.0849609375 180.9490966796875 520.8828125 180.9631805419922 520.8828125 180.9631805419922 L 520.8580932617188 185.8781280517578 L 519.4855346679688 185.8712158203125 L 521.3388671875 187.9861602783203 L 517.6422729492188 191.2254180908203 L 508.595458984375 180.9013519287109 Z M 533.170166015625 181.0250244140625 C 533.170166015625 181.0250244140625 545.4575805664063 181.0868530273438 545.4575805664063 181.0868530273438 L 545.4328002929688 186.0018005371094 L 533.1454467773438 185.9399719238281 L 533.170166015625 181.0250244140625 Z M 548.3857421875 185.3992004394531 L 553.2999267578125 185.4902191162109 C 553.2999267578125 185.4902191162109 553.2110595703125 190.2855682373047 553.1444091796875 193.8843383789063 L 553.1442260742188 193.8936462402344 C 553.1438598632813 193.9140319824219 553.1434936523438 193.9339294433594 553.1431274414063 193.9542236328125 L 553.14306640625 193.9590759277344 C 553.142822265625 193.9681701660156 553.1427001953125 193.9769287109375 553.1425170898438 193.9860076904297 L 553.142333984375 193.9943084716797 C 553.142333984375 193.9971008300781 553.1422729492188 194.0005645751953 553.1422119140625 194.0033569335938 L 553.0723266601563 197.775634765625 L 548.1581420898438 197.6846160888672 L 548.3857421875 185.3992004394531 Z M 547.9306030273438 209.9700164794922 L 552.8447265625 210.0610504150391 C 552.8447265625 210.0610504150391 552.8043212890625 212.2445983886719 552.7575073242188 214.7709197998047 L 552.75732421875 214.7809600830078 C 552.7571411132813 214.7904815673828 552.7569580078125 214.8001556396484 552.7568359375 214.8096771240234 L 552.7567138671875 214.8119506835938 C 552.7566528320313 214.8167114257813 552.756591796875 214.8217620849609 552.7564697265625 214.8265228271484 L 552.75634765625 214.8317565917969 C 552.75634765625 214.8343200683594 552.7562866210938 214.83740234375 552.7562255859375 214.8399658203125 L 552.7559814453125 214.8534698486328 C 552.7559814453125 214.8545684814453 552.7559814453125 214.8556671142578 552.7559204101563 214.8567810058594 L 552.7556762695313 214.8706970214844 C 552.755615234375 214.8718109130859 552.755615234375 214.872802734375 552.755615234375 214.8739013671875 L 552.6171875 222.3464813232422 L 551.428955078125 222.324462890625 L 552.593017578125 223.6527862548828 L 552.5497436523438 225.9872131347656 L 550.0347900390625 228.1910705566406 L 541.9366455078125 218.9496459960938 L 545.6331787109375 215.7104034423828 L 547.7789306640625 218.1590423583984 L 547.9306030273438 209.9700164794922 Z M 529.4369506835938 197.2275848388672 L 537.5350952148438 206.4690093994141 L 533.8385009765625 209.7082366943359 C 533.8385009765625 209.7082366943359 525.7404174804688 200.4668273925781 525.7404174804688 200.4668273925781 L 529.4369506835938 197.2275848388672 Z"/>
  </g>
</svg>
