<svg xmlns="http://www.w3.org/2000/svg" width="411.589" height="142.6" viewBox="0 0 411.589 142.6">
  <defs>
    <style>
      .cls-1 {
        fill: #7d441e;
      }

      .cls-2 {
        fill: #f5f6e8;
      }

      .cls-3 {
        fill: #fa9337;
      }

      .cls-4 {
        fill: #aabfd2;
      }

      .cls-5 {
        fill: #72d8f3;
      }

      .cls-6 {
        fill: #3a4d5c;
      }

      .cls-7 {
        fill: #fde05d;
      }

      .cls-8 {
        fill: #017da3;
      }

      .cls-9 {
        fill: #d0e5ef;
      }

      .cls-10 {
        fill: #3c505f;
      }

      .cls-11 {
        fill: #edb007;
      }
    </style>
  </defs>
  <g id="组_4828" data-name="组 4828" transform="translate(-129.959 -308.304)">
    <g id="组_4787" data-name="组 4787">
      <path id="路径_12695" data-name="路径 12695" class="cls-1" d="M392.317,388.8h3.977v-6.481h4.751V388.8h3.646v4.788h-3.646v5.654q2.007-.4,3.83-.829-.183,3.242-.147,4.9l-3.683.847v9.576a4.552,4.552,0,0,1-1.307,3.609q-1.308,1.141-6.353,1.141-.369-1.8-1.252-5.008,1.436.111,2.467.111a1.734,1.734,0,0,0,1.326-.4,2.148,2.148,0,0,0,.368-1.372V405.3l-3.977.994-.516-5.34,4.493-.773v-6.593h-3.977Zm34.4,8.14v4.125a29.714,29.714,0,0,1-4.9,9.447,27.43,27.43,0,0,0,6.666,3.185q-1.363,2.063-3.094,4.972a30.352,30.352,0,0,1-6.8-4.622,36.64,36.64,0,0,1-6.2,4.622,29.162,29.162,0,0,0-1.879-3.057v2.983h-4.861V383.717h20.587q-.055,3.739-.258,6.316a5.162,5.162,0,0,1-5.579,5.258q-2.467.027-6.132-.01a43.626,43.626,0,0,0-.995-4.53q3.186.222,5.23.221a2.877,2.877,0,0,0,1.989-.552,3.327,3.327,0,0,0,.589-2.357H410.51v8.876Zm-12.706,4.6a23.316,23.316,0,0,0,4.272,6.04,18.39,18.39,0,0,0,3.389-6.3H410.51v12.061a25.877,25.877,0,0,0,4.714-2.817,39.754,39.754,0,0,1-4.419-6.666Z"/>
      <path id="路径_12696" data-name="路径 12696" class="cls-1" d="M430.14,400.032h16.573c-.123-.392-.246-.8-.368-1.214a6.843,6.843,0,0,1-2.136.294h-3.057q-.111-.553-.221-1.068H436.07v.663h-3.02V394.14q-.7.81-1.4,1.583a30.119,30.119,0,0,0-2.062-2.762,17.275,17.275,0,0,0,3.793-5.487h1.142v-.847h-4.567v-2.652h4.567v-1.694h4.051v1.694h3.167v-1.731h4.051v1.731h4.788v2.652h-4.788v1.179h-4.051v-1.179h-3.167v1.031h-1.436a6.24,6.24,0,0,1-.406.81H448.7q-.037,3.389-.184,6.888a4.15,4.15,0,0,1-.737,2.467l2.615-.221q.258,1.142.516,2.43h14.805v3.02H430.14Zm3.867,4.494h27.18v1.915h-27.18Zm0,3.388h27.18v1.915h-27.18Zm0,3.462h27.18v7.587h-4.714v-.958H438.721v.958h-4.714Zm.368-18.967h8.361V396.2h.7a1.162,1.162,0,0,0,1.326-1.142q.074-1.547.111-3.867h-9.686Q434.781,391.82,434.375,392.409Zm1.7,3.462h3.646v-1.289H436.07Zm20.4,17.567H438.721v1.694h17.752Zm-7.624-23.386a21.354,21.354,0,0,0,4.125-7.808l4.125.184q-.4,1.252-.884,2.431h9.391v3.389h-2.173a15.786,15.786,0,0,1-3.056,5.708,23.214,23.214,0,0,0,5.45,1.952q-1.252,1.916-2.209,3.425a25.556,25.556,0,0,1-6.04-2.726,21.045,21.045,0,0,1-5.488,2.873q-1.068-1.693-2.394-3.425a19.716,19.716,0,0,0,4.936-2.026,17.461,17.461,0,0,1-1.879-2.761q-.736,1.068-1.547,2.1Q449.7,391.12,448.849,390.052Zm8.582,1.842a10.857,10.857,0,0,0,2.356-3.646h-4.972A13.759,13.759,0,0,0,457.431,391.894Z"/>
      <path id="路径_12697" data-name="路径 12697" class="cls-1" d="M499.416,387.032v20.017a35.019,35.019,0,0,0,4.345,1.454q-.993,6.482-2.78,7.808a7.756,7.756,0,0,1-4.732,1.326h-8.84q-6,0-6-5.451V408.5h-7.219v2.873h-5.3V387.032h12.522V382.5h5.34v4.53Zm-25.229,4.641v3.756h7.219v-3.756Zm0,12.19h7.219v-3.794h-7.219Zm19.926-12.19h-7.367v3.756h7.367Zm0,12.19v-3.794h-7.367v3.794Zm-5.12,9.207h5.525a4.21,4.21,0,0,0,2.154-.47,2.151,2.151,0,0,0,1.023-1.289c.151-.546.34-1.482.56-2.808H486.746v2.615Q486.746,413.07,488.993,413.07Z"/>
      <path id="路径_12698" data-name="路径 12698" class="cls-1" d="M516.762,406.4a34.155,34.155,0,0,0,.847,5.524q-3.867,2.91-7.66,6.409L507.3,414.69a4.127,4.127,0,0,0,.994-2.983v-12.19h-3.2v-4.972h8.25v14.8Q515.179,407.8,516.762,406.4Zm-5.635-23.9a78.525,78.525,0,0,1,4.935,6.814q-1.7,1.03-4.787,2.982a83.206,83.206,0,0,0-4.457-7.255Zm5.156,10.312H526.3V388.45l-8.58.313q-.222-1.879-.663-4.236,12.3-.294,22.687-1.215l.626,4.273q-4.126.332-8.913.607v4.622h10.091v4.419H531.457v4.641h8.1v16.794h-5.008v-1.916h-11.2V418.7h-5.009v-16.83H526.3v-4.641H516.283Zm18.268,13.406h-11.2v6.187h11.2Z"/>
    </g>
    <g id="图层_2" data-name="图层 2">
      <g id="图层_1-2" data-name="图层 1-2">
        <path id="路径_12769" data-name="路径 12769" class="cls-2" d="M195.549,389.534v46.22h73.53l31.4-30.7,4.26-15.52Z"/>
        <rect id="矩形_2303" data-name="矩形 2303" class="cls-3" width="8" height="12" transform="translate(216.409 318.889) rotate(-45)"/>
        <rect id="矩形_2304" data-name="矩形 2304" class="cls-3" width="8" height="12" transform="translate(242.479 308.304)"/>
        <rect id="矩形_2305" data-name="矩形 2305" class="cls-3" width="23.07" height="37.53" rx="11.53" transform="translate(234.479 331.454)"/>
        <path id="路径_12770" data-name="路径 12770" class="cls-4" d="M355.449,428.149h0a7.6,7.6,0,0,1-7.6,7.6H137.559a7.6,7.6,0,0,1-7.6-7.6h0a7.6,7.6,0,0,1,7.6-7.6h210.29A7.6,7.6,0,0,1,355.449,428.149Z"/>
        <rect id="矩形_2306" data-name="矩形 2306" class="cls-3" width="12" height="8" transform="translate(262.329 321.719) rotate(-45)"/>
        <path id="路径_12771" data-name="路径 12771" class="cls-5" d="M195.549,389.534l18.76-32.8s.45-1.63,2.94-1.86h73.44a2.84,2.84,0,0,1,3,1.9c.76,2.21,11,32.76,11,32.76Z"/>
        <path id="路径_12772" data-name="路径 12772" class="cls-6" d="M195.549,389.534h-44.09s-9.36.6-9.7,10.64v20.77h53.79Z"/>
        <rect id="矩形_2307" data-name="矩形 2307" class="cls-7" width="15.45" height="8.09" transform="translate(141.759 401.074)"/>
        <rect id="矩形_2308" data-name="矩形 2308" class="cls-8" width="7.91" height="80.87" transform="translate(246.019 354.874)"/>
        <circle id="椭圆_2487" data-name="椭圆 2487" class="cls-6" cx="15.15" cy="15.15" r="15.15" transform="translate(149.669 420.604)"/>
        <circle id="椭圆_2488" data-name="椭圆 2488" class="cls-9" cx="4.38" cy="4.38" r="4.38" transform="translate(160.439 431.374)"/>
        <circle id="椭圆_2489" data-name="椭圆 2489" class="cls-10" cx="15.15" cy="15.15" r="15.15" transform="translate(289.589 420.604)"/>
        <circle id="椭圆_2490" data-name="椭圆 2490" class="cls-9" cx="4.38" cy="4.38" r="4.38" transform="translate(300.359 431.374)"/>
        <path id="路径_12773" data-name="路径 12773" class="cls-10" d="M300.479,389.534l40.34.07s2-.13,2.24,2.55,0,28.41,0,28.41h-69.11a33.7,33.7,0,0,1,26.55-15.52Z"/>
        <path id="路径_12774" data-name="路径 12774" class="cls-3" d="M340.819,389.6h-12.68a12.129,12.129,0,0,0,15.03,14.05c0-5.45,0-10.38-.11-11.48C342.8,389.474,340.819,389.6,340.819,389.6Z"/>
        <path id="路径_12775" data-name="路径 12775" class="cls-11" d="M223.479,394.3l3.56,7.2,7.94,1.15-5.75,5.61,1.36,7.92-7.11-3.74-7.11,3.74,1.36-7.92-5.75-5.61,7.95-1.15Z"/>
      </g>
    </g>
  </g>
</svg>
