<svg xmlns="http://www.w3.org/2000/svg" width="399.091" height="148.357" viewBox="0 0 399.091 148.357">
  <defs>
    <style>
      .cls-1 {
        fill: #7d441e;
      }

      .cls-2 {
        fill: #f72252;
      }

      .cls-3 {
        fill: #e6eaf2;
      }

      .cls-4 {
        fill: #72d8f3;
      }

      .cls-5 {
        fill: #33444e;
      }

      .cls-6 {
        fill: #cfd8dd;
      }

      .cls-7 {
        fill: #fafafa;
      }

      .cls-8 {
        fill: #fa9337;
      }

      .cls-9 {
        fill: #f92152;
      }
    </style>
  </defs>
  <g id="组_4829" data-name="组 4829" transform="translate(-142.5 -506.665)">
    <g id="组_4788" data-name="组 4788">
      <path id="路径_12699" data-name="路径 12699" class="cls-1" d="M395.042,605.755l4.6,1.62-3.536,8.619-4.309-1.989A61.128,61.128,0,0,0,395.042,605.755Zm.331-4.714H420.16v-1.952H396.515v-3.536H420.16V593.6H396.7V592.09q-.773.462-1.547.885l-3.277-3.241a34.5,34.5,0,0,0,10.644-8.324h5.893q-.867,1.2-1.824,2.32h14.125v3.352l-3.057,2.541h7.293v15.4h-.866q2.227,3.775,4.364,7.661l-4.383,2.358a71.178,71.178,0,0,0-4.161-8.067l4.088-1.952h-11.51q1.473,1.769,2.891,3.573l-4.088,2.873q-1.878-2.762-3.9-5.341l1.7-1.1h-13.7Zm4.991-11.418h10.828l2.818-2.43H403.274A34.73,34.73,0,0,1,400.364,589.623Zm16.15,18.526q3.021,1.731,4.825,2.615a38.536,38.536,0,0,1-1.427,3.581,4.348,4.348,0,0,1-2.044,2.109,7.923,7.923,0,0,1-3.527.681h-7.955q-5.745,0-5.746-4.9V606.2h5.083v4.861q0,1.917,2.357,1.916h5.267q1.823,0,2.283-1.2A20.7,20.7,0,0,0,416.514,608.149Z"/>
      <path id="路径_12700" data-name="路径 12700" class="cls-1" d="M443.032,601.556q3.094,2.431,7.44,6l-3.2,3.756q-2.946-2.946-5.488-5.377v6.629q0,4.679-3.757,4.825-2.43.184-5.745.184a29.874,29.874,0,0,0-1.032-4.861q1.584.147,3.978.184,1.842.037,1.842-2.063v-4.751q-2.837,2.69-6.04,5.783l-1.7-4.788q3.168-2.285,6.63-5.23l1.105,2.21V591.944h-7.145V587.45h7.145v-5.819h4.714v5.819h3.241q-1.584-2.246-3.02-3.977l2.947-1.99q1.1,1.217,3.462,4.015l-2.763,1.952h3.168v4.494H441.78v7.181a70.207,70.207,0,0,0,4.162-6.113l2.21,1.4a57.715,57.715,0,0,0,4.309-12.928l4.861,1.106q-.59,2.539-1.325,4.935h9.87v4.493h-2.1a44.643,44.643,0,0,1-4.346,15.285,20.874,20.874,0,0,0,6.7,5.562,27.356,27.356,0,0,0-3.2,4.9,25.3,25.3,0,0,1-6.335-6.077,30.9,30.9,0,0,1-7.366,6.593,31.121,31.121,0,0,0-3.72-4.42,24.87,24.87,0,0,0,8.324-6.851,36.185,36.185,0,0,1-2.689-8.4q-.736,1.326-1.547,2.541-.773-1.1-2.136-3.02-1.217,1.62-2.615,3.352l-3.057-2.247v4.309Zm-10.128-8.4q1.8,2.541,4.015,6.114l-3.462,2.173q-2.174-3.646-3.868-6.225Zm21.288-.626a31.694,31.694,0,0,0,2.394,9.907,32.035,32.035,0,0,0,2.652-10.423h-4.862Z"/>
      <path id="路径_12701" data-name="路径 12701" class="cls-1" d="M499.457,586.161v20.018a35.038,35.038,0,0,0,4.346,1.454q-.993,6.483-2.78,7.808a7.755,7.755,0,0,1-4.733,1.327h-8.84q-6,0-6-5.452v-3.683h-7.218v2.873h-5.3V586.161h12.522v-4.53h5.341v4.53ZM474.228,590.8v3.757h7.218V590.8Zm0,12.191h7.218V599.2h-7.218ZM494.154,590.8h-7.367v3.757h7.367Zm0,12.191V599.2h-7.367v3.794Zm-5.12,9.207h5.525a4.21,4.21,0,0,0,2.154-.47,2.144,2.144,0,0,0,1.023-1.289c.151-.546.34-1.482.56-2.808H486.787v2.615Q486.787,612.2,489.034,612.2Z"/>
      <path id="路径_12702" data-name="路径 12702" class="cls-1" d="M516.8,605.534a34.139,34.139,0,0,0,.847,5.524q-3.867,2.91-7.661,6.409l-2.651-3.646a4.131,4.131,0,0,0,.994-2.984v-12.19h-3.205v-4.972h8.251v14.8Q515.221,606.933,516.8,605.534Zm-5.635-23.9a78.9,78.9,0,0,1,4.935,6.814q-1.7,1.031-4.788,2.983a82.587,82.587,0,0,0-4.457-7.256Zm5.156,10.313h10.018v-4.365l-8.581.313q-.222-1.878-.663-4.236,12.3-.294,22.688-1.215l.626,4.273q-4.127.332-8.914.607v4.623h10.092v4.419H531.5V601h8.1V617.8h-5.009v-1.915H523.4v1.952h-5.009V601h7.955v-4.641H516.325Zm18.268,13.406H523.4v6.187h11.2Z"/>
    </g>
    <g id="图层_2" data-name="图层 2">
      <g id="图层_1-2" data-name="图层 1-2">
        <path id="路径_12776" data-name="路径 12776" class="cls-2" d="M224.857,562.66h0a9.487,9.487,0,0,1-9.485-9.489V540.438a9.487,9.487,0,0,1,9.485-9.489h0a9.486,9.486,0,0,1,9.485,9.489v12.733A9.486,9.486,0,0,1,224.857,562.66Z"/>
        <path id="路径_12777" data-name="路径 12777" class="cls-3" d="M168.583,590.924l25.118-35.1s5.145-8.538,22.116-8.885,108.835-.026,108.835-.026,15.683-.765,18.517,8.885v77.977s-.515,8.156-14.918,9.107H156.925s-13.328-2.843-14.4-10.662V602.564s-1.2-9.614,14.066-11.382h11.87Z"/>
        <path id="路径_12778" data-name="路径 12778" class="cls-4" d="M193.7,555.827h23.928s5.989-.186,7.224,4.363v30.93l-56.27-.2Z"/>
        <rect id="矩形_2309" data-name="矩形 2309" class="cls-4" width="20.871" height="35.239" transform="translate(232.619 555.827)"/>
        <circle id="椭圆_2491" data-name="椭圆 2491" class="cls-2" cx="18.686" cy="18.686" r="18.686" transform="translate(277.569 556.121)"/>
        <circle id="椭圆_2492" data-name="椭圆 2492" class="cls-5" cx="21.289" cy="21.289" r="21.289" transform="translate(288.498 612.444)"/>
        <circle id="椭圆_2493" data-name="椭圆 2493" class="cls-6" cx="9.605" cy="9.605" r="9.605" transform="translate(300.182 624.128)"/>
        <circle id="椭圆_2494" data-name="椭圆 2494" class="cls-5" cx="21.289" cy="21.289" r="21.289" transform="translate(151.861 612.444)"/>
        <circle id="椭圆_2495" data-name="椭圆 2495" class="cls-6" cx="9.605" cy="9.605" r="9.605" transform="translate(163.545 624.128)"/>
        <rect id="矩形_2310" data-name="矩形 2310" class="cls-7" width="7.019" height="23.146" rx="1.484" transform="translate(292.843 563.513)"/>
        <rect id="矩形_2311" data-name="矩形 2311" class="cls-7" width="23.146" height="7.019" rx="1.484" transform="translate(284.775 571.581)"/>
        <rect id="矩形_2312" data-name="矩形 2312" class="cls-8" width="6.575" height="18.712" rx="2.914" transform="translate(221.565 506.665)"/>
        <rect id="矩形_2313" data-name="矩形 2313" class="cls-8" width="6.575" height="18.712" rx="2.914" transform="translate(197.7 518.306) rotate(-45)"/>
        <rect id="矩形_2314" data-name="矩形 2314" class="cls-8" width="18.712" height="6.575" rx="2.914" transform="translate(234.108 526.892) rotate(-45)"/>
        <path id="路径_12779" data-name="路径 12779" class="cls-9" d="M142.531,602.564l-.027,9.88h200.62v-8.725Z"/>
      </g>
    </g>
  </g>
</svg>
