<svg xmlns="http://www.w3.org/2000/svg" width="403.832" height="120.741" viewBox="0 0 403.832 120.741">
  <defs>
    <style>
      .cls-1 {
        fill: #7d441e;
      }

      .cls-2 {
        fill: #fa9337;
      }

      .cls-3 {
        fill: #fff4a6;
      }

      .cls-4 {
        fill: #72d8f3;
      }

      .cls-5 {
        fill: #d8142c;
      }

      .cls-6 {
        fill: #d1d2d4;
      }

      .cls-7 {
        fill: #1f1921;
      }

      .cls-8 {
        fill: #717074;
      }

      .cls-9 {
        fill: #343337;
      }

      .cls-10 {
        fill: #3e3b39;
      }

      .cls-11 {
        fill: #db122e;
      }

      .cls-12 {
        fill: #b91c31;
      }

      .cls-13 {
        fill: #f92152;
      }

      .cls-14 {
        fill: #33444e;
      }

      .cls-15 {
        fill: #cfd8dd;
      }

      .cls-16 {
        fill: #f7931d;
      }

      .cls-17 {
        fill: #aabfd2;
      }

      .cls-18 {
        fill: #f72252;
      }
    </style>
  </defs>
  <g id="组_4827" data-name="组 4827" transform="translate(-137.675 -135.283)">
    <g id="组_4786" data-name="组 4786">
      <path id="路径_12691" data-name="路径 12691" class="cls-1" d="M407.232,178.6h5.561q-.037,4.9-.442,11.619,2.523,14.732,15.873,19.28-2.32,2.577-4.2,5.045a26.03,26.03,0,0,1-13.976-15.155q-3.2,9.778-14.087,15.413-1.656-1.951-4.161-4.64,11.306-5.359,13.488-12.5T407.232,178.6Zm-3.02,16.168-4.677,3.167q-4.273-7.293-6.961-10.975l4.53-2.8A127.652,127.652,0,0,1,404.212,194.77Zm10.5,0a77.006,77.006,0,0,0,7.881-10.423l4.6,3.02a108.77,108.77,0,0,1-8.1,10.827Q417.25,196.612,414.708,194.77Z"/>
      <path id="路径_12692" data-name="路径 12692" class="cls-1" d="M430.1,196.206h16.572q-.183-.589-.368-1.215a6.81,6.81,0,0,1-2.136.294h-3.056q-.111-.552-.221-1.068h-4.862v.663h-3.02v-4.567q-.7.81-1.4,1.584a29.851,29.851,0,0,0-2.062-2.762,17.3,17.3,0,0,0,3.793-5.487h1.142V182.8h-4.567v-2.651h4.567v-1.694h4.051v1.694H441.7v-1.731h4.051v1.731h4.788V182.8h-4.788v1.179H441.7V182.8h-3.167v1.031H437.1a6.189,6.189,0,0,1-.4.811h11.969q-.037,3.389-.184,6.887a4.148,4.148,0,0,1-.736,2.467l2.615-.221q.256,1.143.515,2.431h14.805v3.02H430.1Zm3.867,4.493h27.179v1.915H433.969Zm0,3.388h27.179V206H433.969Zm0,3.462h27.179v7.586h-4.714v-.957H438.683v.957h-4.714Zm.368-18.967h8.36v3.794h.7a1.164,1.164,0,0,0,1.326-1.142q.074-1.546.11-3.867h-9.685Q434.742,187.994,434.337,188.582Zm1.694,3.462h3.646v-1.289h-3.646Zm20.4,17.567H438.683V211.3h17.751Zm-7.623-23.385a21.345,21.345,0,0,0,4.124-7.808l4.125.184q-.4,1.252-.884,2.431h9.391v3.388h-2.172a15.8,15.8,0,0,1-3.057,5.708,23.185,23.185,0,0,0,5.45,1.952q-1.252,1.916-2.209,3.425a25.6,25.6,0,0,1-6.04-2.725,21.075,21.075,0,0,1-5.488,2.873q-1.068-1.7-2.393-3.426a19.724,19.724,0,0,0,4.935-2.025,17.538,17.538,0,0,1-1.879-2.762q-.736,1.068-1.546,2.1Q449.658,187.293,448.811,186.226Zm8.581,1.841a10.837,10.837,0,0,0,2.356-3.646h-4.971A13.7,13.7,0,0,0,457.392,188.067Z"/>
      <path id="路径_12693" data-name="路径 12693" class="cls-1" d="M499.376,183.206v20.016a35.014,35.014,0,0,0,4.345,1.454q-.993,6.483-2.78,7.808a7.756,7.756,0,0,1-4.732,1.326h-8.84q-6,0-6-5.451v-3.683h-7.219v2.873h-5.3V183.206h12.522v-4.53h5.339v4.53Zm-25.228,4.64V191.6h7.219v-3.756Zm0,12.19h7.219v-3.793h-7.219Zm19.925-12.19h-7.367V191.6h7.367Zm0,12.19v-3.793h-7.367v3.793Zm-5.12,9.207h5.525a4.227,4.227,0,0,0,2.155-.47,2.149,2.149,0,0,0,1.022-1.289c.151-.546.34-1.482.56-2.808H486.706v2.615Q486.706,209.242,488.953,209.243Z"/>
      <path id="路径_12694" data-name="路径 12694" class="cls-1" d="M516.721,202.577a34.272,34.272,0,0,0,.848,5.524q-3.867,2.91-7.66,6.408l-2.652-3.646a4.127,4.127,0,0,0,.994-2.983V195.69h-3.2v-4.972h8.25v14.8Q515.137,203.977,516.721,202.577Zm-5.634-23.9a79.074,79.074,0,0,1,4.935,6.813q-1.695,1.03-4.788,2.983a82.8,82.8,0,0,0-4.456-7.255Zm5.156,10.312H526.26v-4.364l-8.581.313q-.221-1.879-.662-4.236,12.3-.294,22.686-1.215l.626,4.272q-4.126.332-8.913.607v4.623h10.091v4.419H531.416v4.64h8.1v16.794H534.51v-1.915h-11.2v1.951h-5.008v-16.83h7.954v-4.64H516.243Zm18.267,13.4h-11.2v6.187h11.2Z"/>
    </g>
    <g id="图层_2" data-name="图层 2">
      <g id="图层_1-2" data-name="图层 1-2">
        <rect id="矩形_2315" data-name="矩形 2315" class="cls-2" width="14.726" height="23.956" rx="7.357" transform="translate(171.913 146.559)"/>
        <path id="路径_12780" data-name="路径 12780" class="cls-3" d="M164.11,159.045s-4.81-.3-6.569,3.793-17.056,47.1-17.056,47.1h66.934V162.255s.148-3.221-4.376-3.221Z"/>
        <path id="路径_12781" data-name="路径 12781" class="cls-4" d="M153.211,174.468l18.279-.206s3.221-.137,3.884,2.708v18.278l-29.7.069Z"/>
        <rect id="矩形_2316" data-name="矩形 2316" class="cls-4" width="19.398" height="21.066" transform="translate(179.281 174.262)"/>
        <path id="路径_12782" data-name="路径 12782" class="cls-5" d="M140.485,209.939V225.11h21.489v7.78h46.085l-.64-22.951Z"/>
        <path id="路径_12783" data-name="路径 12783" class="cls-6" d="M140.485,225.11a2.284,2.284,0,0,0-2.757,1.685,2.252,2.252,0,0,0-.053.315v7.437h23.99V225.11Z"/>
        <circle id="椭圆_2496" data-name="椭圆 2496" class="cls-7" cx="17.81" cy="17.81" r="17.81" transform="translate(163.048 220.404)"/>
        <circle id="椭圆_2497" data-name="椭圆 2497" class="cls-8" cx="10.624" cy="10.624" r="10.624" transform="translate(170.233 227.589)"/>
        <circle id="椭圆_2498" data-name="椭圆 2498" class="cls-9" cx="4.364" cy="4.364" r="4.364" transform="translate(176.494 233.85)"/>
        <path id="路径_12784" data-name="路径 12784" class="cls-10" d="M207.419,221.409H347.283V232.89H208.058Z"/>
        <path id="路径_12785" data-name="路径 12785" class="cls-11" d="M212.913,168.139v53.27h134.37v-53.27h-7.2s0-3.7-8.751-3.7H226.919s-4.866,0-5.06,3.108c-2.7.171-8.946,0-8.946,0Z"/>
        <rect id="矩形_2317" data-name="矩形 2317" class="cls-3" width="134.37" height="11.161" transform="translate(212.913 202.868)"/>
        <path id="路径_12786" data-name="路径 12786" class="cls-8" d="M313.605,160.21v11.162h-12.11V160.21H296.08v61.2h5.415v-7.38h12.11v7.38H319v-61.2Zm0,50.529h-12.11v-4.627h12.11Zm0-7.871h-12.11V198.3h12.11Zm0-7.871h-12.11v-4.57h12.11Zm0-7.883h-12.11v-4.57h12.11Zm0-7.871h-12.11v-4.57h12.11Z"/>
        <rect id="矩形_2318" data-name="矩形 2318" class="cls-12" width="34.581" height="50.072" rx="8.659" transform="translate(223.252 171.372)"/>
        <rect id="矩形_2319" data-name="矩形 2319" class="cls-2" width="6.934" height="3.656" rx="1.371" transform="translate(186.072 143.791) rotate(-45)"/>
        <rect id="矩形_2320" data-name="矩形 2320" class="cls-2" width="3.656" height="6.934" rx="1.371" transform="translate(177.453 135.283)"/>
        <rect id="矩形_2321" data-name="矩形 2321" class="cls-2" width="3.656" height="6.934" rx="1.371" transform="translate(164.989 141.474) rotate(-45)"/>
        <circle id="椭圆_2499" data-name="椭圆 2499" class="cls-7" cx="17.81" cy="17.81" r="17.81" transform="translate(301.176 220.232)"/>
        <circle id="椭圆_2500" data-name="椭圆 2500" class="cls-8" cx="10.624" cy="10.624" r="10.624" transform="translate(308.361 227.418)"/>
        <circle id="椭圆_2501" data-name="椭圆 2501" class="cls-9" cx="4.364" cy="4.364" r="4.364" transform="translate(314.622 233.678)"/>
        <path id="路径_12787" data-name="路径 12787" class="cls-13" d="M341.834,220.438H329.21V196.082a6.318,6.318,0,0,1,6.318-6.318h0a6.318,6.318,0,0,1,6.306,6.318v24.356Z"/>
        <path id="路径_12788" data-name="路径 12788" class="cls-13" d="M334.145,185.618v3.05h2.685v-3.233h-2.685Z"/>
        <circle id="椭圆_2502" data-name="椭圆 2502" class="cls-14" cx="2.228" cy="2.228" r="2.228" transform="translate(333.3 182.076)"/>
        <circle id="椭圆_2503" data-name="椭圆 2503" class="cls-15" cx="1.051" cy="1.051" r="1.051" transform="translate(334.477 183.253)"/>
        <path id="路径_12789" data-name="路径 12789" class="cls-14" d="M336.83,182.51l7.825-1.668-.366,1.234-4.867,1.588H343.2l1.177,2.045H336.83Z"/>
        <path id="路径_12790" data-name="路径 12790" class="cls-14" d="M333.3,184.749s-8.385-.788-8.614,12.8h1.485s-1.5-9.79,7.632-11.835l.342-.96Z"/>
        <path id="路径_12791" data-name="路径 12791" class="cls-13" d="M323.921,197.544h3l.9,7.551h-4.821Z"/>
        <rect id="矩形_2322" data-name="矩形 2322" class="cls-16" width="9.139" height="10.122" transform="translate(332.695 200.652)"/>
        <path id="路径_12792" data-name="路径 12792" class="cls-17" d="M332.877,188.028v.914h-.823v1.885h6.992V188.9h-1.028v-.868Z"/>
        <path id="路径_12793" data-name="路径 12793" class="cls-18" d="M339.035,203.679a1.145,1.145,0,0,1-.137,1.234,3.279,3.279,0,0,0-1.908-2.491,4.426,4.426,0,0,1-1.279,3.108,2.293,2.293,0,0,0-.286-1.143c0,.788-.64,1.405-.811,2.194-.206,1.073.171,1.827,1.622,2.661a3.219,3.219,0,0,0,2.376,0h.092C342.222,207.072,339.515,204.01,339.035,203.679Z"/>
        <path id="路径_12794" data-name="路径 12794" class="cls-16" d="M282.829,177.175c.594,1.291.685,3.427-.514,4.456-1.977-7.54-6.855-9-6.855-9,.606,3.862-2.056,8.066-4.57,11.242a8.2,8.2,0,0,0-1.028-4.124c-.171,2.833-2.284,5.06-2.913,7.894-.777,3.849.594,6.6,5.826,9.6,0,0,4.73,1.908,8.568-.08l.275-.183C294.3,189.41,284.519,178.363,282.829,177.175Z"/>
      </g>
    </g>
  </g>
</svg>
