<svg xmlns="http://www.w3.org/2000/svg" width="87.675" height="121.487" viewBox="0 0 87.675 121.487">
  <defs>
    <style>
      .cls-1, .cls-3 {
        fill: #ffc95e;
      }

      .cls-1 {
        stroke-linejoin: round;
      }

      .cls-2 {
        fill: #ee3734;
      }

      .cls-4, .cls-5 {
        stroke: none;
      }

      .cls-5 {
        fill: #fff;
      }
    </style>
  </defs>
  <g id="组_4884" data-name="组 4884" transform="translate(-1714.065 -476.037)">
    <g id="路径_12978" data-name="路径 12978" class="cls-1">
      <path class="cls-4" d="M 1732.651977539063 595.9667358398438 L 1730.528198242188 594.6477661132813 L 1717.747192382813 586.7107543945313 L 1715.623413085938 585.3919067382813 L 1716.942260742188 583.2681274414063 L 1766.49853515625 503.4627075195313 L 1764.986450195313 502.5234985351563 L 1766.016967773438 500.4808959960938 L 1773.282958984375 486.0789184570313 C 1774.446411132813 483.7695617675781 1776.22802734375 481.8447570800781 1778.4345703125 480.5137939453125 C 1780.578369140625 479.2206726074219 1783.033081054688 478.5371704101563 1785.533447265625 478.5371704101563 C 1787.68603515625 478.5371704101563 1789.758056640625 479.0311279296875 1791.691772460938 480.0053405761719 C 1792.05224609375 480.1861877441406 1792.412475585938 480.3879699707031 1792.758422851563 480.6031799316406 C 1795.867309570313 482.53173828125 1798.040771484375 485.5581970214844 1798.875732421875 489.12353515625 C 1799.710693359375 492.6885681152344 1799.107543945313 496.3654479980469 1797.177368164063 499.4768981933594 C 1796.963623046875 499.8218078613281 1796.730346679688 500.1627197265625 1796.484619140625 500.4892578125 L 1786.795654296875 513.3847045898438 L 1785.421264648438 515.2139282226563 L 1783.52685546875 514.0370483398438 L 1733.970947265625 593.8428344726563 L 1732.651977539063 595.9667358398438 Z"/>
      <path class="cls-5" d="M 1785.533447265625 481.0371704101563 C 1781.433959960938 481.0369873046875 1777.4853515625 483.2941284179688 1775.515014648438 487.2049560546875 L 1768.2490234375 501.6069946289063 L 1769.941040039063 502.657958984375 L 1719.066040039063 584.5869750976563 L 1731.847045898438 592.5239868164063 L 1782.722045898438 510.593994140625 L 1784.796997070313 511.8829956054688 L 1794.487060546875 498.9859619140625 C 1794.68798828125 498.718994140625 1794.876953125 498.4429931640625 1795.052978515625 498.1589965820313 C 1798.316040039063 492.8989868164063 1796.697998046875 485.989013671875 1791.43798828125 482.7260131835938 C 1791.155029296875 482.5499877929688 1790.864013671875 482.386962890625 1790.567016601563 482.238037109375 C 1788.949829101563 481.4232788085938 1787.228515625 481.0372314453125 1785.533447265625 481.0371704101563 M 1785.532958984375 476.0371704101563 L 1785.532958984375 481.0371704101563 L 1785.532958984375 476.0371704101563 C 1788.044677734375 476.0372314453125 1790.563110351563 476.6373901367188 1792.816650390625 477.772705078125 C 1793.245971679688 477.98828125 1793.670654296875 478.2263793945313 1794.078979492188 478.4804077148438 C 1795.934204101563 479.6322631835938 1797.510375976563 481.115234375 1798.763671875 482.8881225585938 C 1799.9736328125 484.599853515625 1800.830322265625 486.5059204101563 1801.309936523438 488.5534057617188 C 1801.789428710938 490.6007690429688 1801.868286132813 492.68896484375 1801.54443359375 494.760009765625 C 1801.208618164063 496.906982421875 1800.4541015625 498.9373779296875 1799.301879882813 500.7947387695313 C 1799.049072265625 501.2025146484375 1798.77294921875 501.6060180664063 1798.482177734375 501.9925537109375 L 1788.79443359375 514.8864135742188 C 1787.817504882813 516.1865844726563 1786.318359375 516.8833618164063 1784.793579101563 516.8833618164063 C 1784.763305664063 516.8833618164063 1784.73291015625 516.883056640625 1784.70263671875 516.8825073242188 L 1736.0947265625 595.16162109375 C 1735.395141601563 596.2882080078125 1734.276733398438 597.0906982421875 1732.985473632813 597.3927001953125 C 1732.609252929688 597.4805908203125 1732.227294921875 597.5239868164063 1731.84716796875 597.5239868164063 C 1730.92236328125 597.5239868164063 1730.007690429688 597.267333984375 1729.209228515625 596.7716064453125 L 1716.42822265625 588.8345947265625 C 1714.082397460938 587.3778076171875 1713.361694335938 584.295166015625 1714.818359375 581.9493408203125 L 1763.586547851563 503.4131469726563 C 1763.091918945313 502.1346435546875 1763.124755859375 500.6634521484375 1763.784912109375 499.3547973632813 L 1771.050903320313 484.9527587890625 C 1772.425903320313 482.2237548828125 1774.532836914063 479.94775390625 1777.142944335938 478.3732299804688 C 1779.676513671875 476.844970703125 1782.57763671875 476.0371704101563 1785.532958984375 476.0371704101563 Z"/>
    </g>
    <path id="路径_12979" data-name="路径 12979" class="cls-2" d="M1784.8,511.883l-16.548-10.276,7.266-14.4a11.208,11.208,0,0,1,15.052-4.967q.445.223.871.488a11.208,11.208,0,0,1,3.615,15.433q-.264.426-.566.827Z"/>
    <path id="路径_12980" data-name="路径 12980" class="cls-3" d="M1769.941,502.658l12.781,7.936-50.875,81.93-12.781-7.937Z"/>
  </g>
</svg>
