<svg xmlns="http://www.w3.org/2000/svg" width="95.48" height="159.383" viewBox="0 0 95.48 159.383">
  <defs>
    <style>
      .cls-1 {
        fill: #faeadc;
      }
    </style>
  </defs>
  <path id="路径_12683" data-name="路径 12683" class="cls-1" d="M705.093,187.14V120.159l17.041,17.088v45.562l-10.678,10.71ZM722.134,210.5v45.606l-17.041,17.1V206.55l6.363-6.766Zm75.228-93.416L780.5,134.126h-55.36L708.28,117.085Zm0,159.383H708.28l16.861-17.041H780.5Zm-14.946-88.212,8.657,8.521-8.657,8.52H722.952l-8.289-8.52,8.289-8.521Zm1.116-5.333V137.36l17.041-17.088v66.982l-6.218,6.265-10.823-10.6ZM800.573,206.4v66.876l-17.041-17.119V210.513l10.823-10.729,6.218,6.617Z" transform="translate(-705.093 -117.085)"/>
</svg>
