<svg xmlns="http://www.w3.org/2000/svg" width="37.561" height="132.104" viewBox="0 0 37.561 132.104">
  <defs>
    <style>
      .cls-1, .cls-3 {
        fill: #ffc95e;
      }

      .cls-1 {
        stroke-linejoin: round;
      }

      .cls-2 {
        fill: #ee3734;
      }

      .cls-4, .cls-5 {
        stroke: none;
      }

      .cls-5 {
        fill: #fff;
      }
    </style>
  </defs>
  <g id="组_4834" data-name="组 4834" transform="translate(-1626.667 -609.407)">
    <g id="路径_12814" data-name="路径 12814" class="cls-1">
      <path class="cls-4" d="M 1656.9150390625 739.010986328125 L 1654.4150390625 739.010986328125 L 1635.921997070313 739.010986328125 L 1633.421997070313 739.010986328125 L 1633.421997070313 736.510986328125 L 1633.421997070313 651.6599731445313 L 1631.186889648438 651.6599731445313 L 1630.984741210938 649.380859375 L 1629.232788085938 629.6298828125 C 1629.037475585938 627.4439697265625 1629.27685546875 625.2822875976563 1629.944458007813 623.2063598632813 C 1630.588745117188 621.2025756835938 1631.602661132813 619.3646850585938 1632.957885742188 617.74365234375 C 1634.313232421875 616.1226806640625 1635.942504882813 614.7992553710938 1637.800415039063 613.8101806640625 C 1639.725219726563 612.7855224609375 1641.810424804688 612.1669921875 1643.997802734375 611.9718627929688 C 1644.471557617188 611.9288940429688 1644.960083007813 611.906982421875 1645.446044921875 611.906982421875 L 1645.451538085938 611.906982421875 C 1647.647216796875 611.906982421875 1649.778564453125 612.3374633789063 1651.786376953125 613.1865234375 C 1653.724487304688 614.006103515625 1655.464721679688 615.1788330078125 1656.958618164063 616.6722412109375 C 1658.452514648438 618.1657104492188 1659.625854492188 619.905517578125 1660.446044921875 621.8433837890625 C 1661.2958984375 623.8509521484375 1661.727172851563 625.9822387695313 1661.72802734375 628.1780395507813 C 1661.729125976563 628.64599609375 1661.707641601563 629.1356201171875 1661.664306640625 629.6282958984375 L 1659.907104492188 649.3814697265625 L 1659.704467773438 651.6599731445313 L 1657.4169921875 651.6599731445313 L 1656.9150390625 651.6599731445313 L 1656.9150390625 736.510986328125 L 1656.9150390625 739.010986328125 Z"/>
      <path class="cls-5" d="M 1645.45166015625 614.406982421875 C 1645.44970703125 614.406982421875 1645.447875976563 614.406982421875 1645.446044921875 614.406982421875 C 1645.036987304688 614.406982421875 1644.628051757813 614.4249877929688 1644.219970703125 614.4619750976563 C 1636.641967773438 615.1380004882813 1631.046020507813 621.8309936523438 1631.723022460938 629.4089965820313 L 1633.474975585938 649.1599731445313 L 1635.921997070313 649.1599731445313 L 1635.921997070313 736.510986328125 L 1654.4150390625 736.510986328125 L 1654.4150390625 649.1599731445313 L 1657.4169921875 649.1599731445313 L 1659.173950195313 629.4089965820313 C 1659.2099609375 629 1659.22900390625 628.5900268554688 1659.22802734375 628.1790161132813 C 1659.224975585938 620.5718383789063 1653.057983398438 614.406982421875 1645.45166015625 614.406982421875 M 1645.446044921875 609.406982421875 L 1645.45166015625 609.406982421875 C 1647.983642578125 609.406982421875 1650.442504882813 609.9038696289063 1652.760131835938 610.8839111328125 C 1654.99609375 611.8294677734375 1657.00341796875 613.18212890625 1658.72607421875 614.9042358398438 C 1660.44873046875 616.6263427734375 1661.802001953125 618.6331176757813 1662.748291015625 620.868896484375 C 1663.729125976563 623.1861572265625 1664.22705078125 625.6449584960938 1664.22802734375 628.177001953125 C 1664.22900390625 628.72119140625 1664.204345703125 629.283203125 1664.154663085938 629.847412109375 L 1662.397338867188 649.60302734375 C 1662.230590820313 651.47705078125 1661.04443359375 653.0332641601563 1659.4150390625 653.7443237304688 L 1659.4150390625 736.510986328125 C 1659.4150390625 739.2723999023438 1657.176391601563 741.510986328125 1654.4150390625 741.510986328125 L 1635.921997070313 741.510986328125 C 1633.160522460938 741.510986328125 1630.921997070313 739.2723999023438 1630.921997070313 736.510986328125 L 1630.921997070313 653.4595947265625 C 1629.58251953125 652.6630249023438 1628.641235351563 651.2562255859375 1628.494506835938 649.6017456054688 L 1626.742553710938 629.8507690429688 C 1626.517456054688 627.3313598632813 1626.7939453125 624.8372802734375 1627.564453125 622.4410400390625 C 1628.307739257813 620.1292724609375 1629.47705078125 618.0093383789063 1631.039916992188 616.1400756835938 C 1632.602783203125 614.2708740234375 1634.482055664063 612.7445068359375 1636.625610351563 611.6033935546875 C 1638.845336914063 610.4217529296875 1641.24853515625 609.7081909179688 1643.768432617188 609.482421875 L 1643.768432617188 609.482421875 C 1644.320434570313 609.432373046875 1644.884887695313 609.406982421875 1645.446044921875 609.406982421875 Z"/>
    </g>
    <path id="路径_12815" data-name="路径 12815" class="cls-2" d="M1657.417,649.16h-23.942l-1.752-19.751a13.777,13.777,0,0,1,12.5-14.947q.612-.055,1.226-.055a13.777,13.777,0,0,1,13.782,13.772c0,.411-.018.821-.054,1.23Z"/>
    <path id="路径_12816" data-name="路径 12816" class="cls-3" d="M1635.922,649.16h18.493v87.351h-18.493Z"/>
  </g>
</svg>
