<svg xmlns="http://www.w3.org/2000/svg" width="390.755" height="346.602" viewBox="0 0 390.755 346.602">
  <defs>
    <style>
      .cls-1 {
        fill: #faeadc;
      }
    </style>
  </defs>
  <g id="组_4866" data-name="组 4866" transform="translate(-337.461 -110.97)">
    <path id="路径_12900" data-name="路径 12900" class="cls-1" d="M515.943,193.856l15.137,8.485L515.927,210l-63.48-.065L437.4,201.486l15.089-7.63Z"/>
    <path id="路径_12901" data-name="路径 12901" class="cls-1" d="M401.862,127.939,388.5,120.786l12.638-9.816h64.173l15.137,8.485-15.137,8.485Z"/>
    <path id="路径_12903" data-name="路径 12903" class="cls-1" d="M337.461,222.344V206.173l14.71,7.576,30.486,49.372v16.242l-14.113-7.534Z"/>
    <path id="路径_12904" data-name="路径 12904" class="cls-1" d="M485.106,140.459V124.288l14.71,7.577L530.3,181.237v16.242l-14.113-7.534Z"/>
    <path id="路径_12906" data-name="路径 12906" class="cls-1" d="M466.573,131.822l14.113-7.534V140.53L450.2,189.9l-14.71,7.577V181.309Z"/>
    <path id="路径_12907" data-name="路径 12907" class="cls-1" d="M466.095,275.741l15.137,8.485-15.137,8.485H401.922l-13.472-8.485,14.191-8.485Z"/>
    <path id="路径_12908" data-name="路径 12908" class="cls-1" d="M436.689,222.344V206.173l14.71,7.576,30.486,49.372v16.242l-14.113-7.534Z"/>
    <path id="路径_12909" data-name="路径 12909" class="cls-1" d="M418.155,213.707l14.113-7.534v16.242l-30.486,49.372-14.71,7.577V263.194Z"/>
    <path id="路径_12910" data-name="路径 12910" class="cls-1" d="M516.967,213.707l14.113-7.534v16.242l-30.486,49.372-14.71,7.577V263.194Z"/>
    <path id="路径_12911" data-name="路径 12911" class="cls-1" d="M415.837,358.627l15.137,8.485L415.837,375.6l-63.293-.82-14.551-8.443,14.39-7.706Z"/>
    <path id="路径_12912" data-name="路径 12912" class="cls-1" d="M515.943,358.627l15.137,8.485-15.153,7.665-63.48-.065L437.4,366.257l15.089-7.63Z"/>
    <path id="路径_12913" data-name="路径 12913" class="cls-1" d="M386.431,305.23V289.059l14.71,7.577,30.486,49.372V362.25l-14.113-7.534Z"/>
    <path id="路径_12914" data-name="路径 12914" class="cls-1" d="M337.461,387.115V370.944l14.71,7.577,30.486,49.372v16.242L368.543,436.6Z"/>
    <path id="路径_12915" data-name="路径 12915" class="cls-1" d="M485.106,305.23V289.059l14.71,7.577L530.3,346.008V362.25l-14.113-7.534Z"/>
    <path id="路径_12916" data-name="路径 12916" class="cls-1" d="M368.543,296.593l14.113-7.534V305.3l-30.486,49.372-14.71,7.577V346.08Z"/>
    <path id="路径_12917" data-name="路径 12917" class="cls-1" d="M466.573,296.593l14.113-7.534V305.3L450.2,354.674l-14.71,7.577V346.08Z"/>
    <path id="路径_12918" data-name="路径 12918" class="cls-1" d="M466.095,440.512,481.232,449l-15.137,8.485H401.922l-12.638-9.816,13.357-7.153Z"/>
    <path id="路径_12919" data-name="路径 12919" class="cls-1" d="M436.689,387.115V370.944l14.71,7.577,30.486,49.372v16.242L467.771,436.6Z"/>
    <path id="路径_12920" data-name="路径 12920" class="cls-1" d="M418.155,378.478l14.113-7.534v16.242l-30.486,49.372-14.71,7.577V427.965Z"/>
    <path id="路径_12921" data-name="路径 12921" class="cls-1" d="M516.967,378.478l14.113-7.534v16.242l-30.486,49.372-14.71,7.577V427.965Z"/>
    <path id="路径_12922" data-name="路径 12922" class="cls-1" d="M612.973,193.856l15.137,8.485-15.137,8.485L549.68,210l-14.551-8.443,14.39-7.706Z"/>
    <path id="路径_12923" data-name="路径 12923" class="cls-1" d="M713.078,193.856l15.137,8.485L713.062,210l-63.48-.065-15.047-8.454,15.089-7.63Z"/>
    <path id="路径_12924" data-name="路径 12924" class="cls-1" d="M599,127.939l-13.357-7.153,12.638-9.816h64.173l15.137,8.485-15.137,8.485Z"/>
    <path id="路径_12925" data-name="路径 12925" class="cls-1" d="M583.566,140.459V124.288l14.71,7.577,30.486,49.372v16.242l-14.113-7.534Z"/>
    <path id="路径_12926" data-name="路径 12926" class="cls-1" d="M534.6,222.344V206.173l14.71,7.576,30.486,49.372v16.242l-14.114-7.534Z"/>
    <path id="路径_12927" data-name="路径 12927" class="cls-1" d="M682.242,140.459V124.288l14.71,7.577,30.486,49.372v16.242l-14.113-7.534Z"/>
    <path id="路径_12928" data-name="路径 12928" class="cls-1" d="M565.679,131.822l14.114-7.534V140.53L549.306,189.9l-14.71,7.577V181.309Z"/>
    <path id="路径_12929" data-name="路径 12929" class="cls-1" d="M663.708,131.822l14.114-7.534V140.53L647.336,189.9l-14.71,7.577V181.309Z"/>
    <path id="路径_12930" data-name="路径 12930" class="cls-1" d="M663.23,275.741l15.137,8.485L663.23,292.71H599.057l-13.9-8.44,14.622-8.529Z"/>
    <path id="路径_12931" data-name="路径 12931" class="cls-1" d="M563.96,275.741l15.137,8.485L563.96,292.71H499.786l-13.9-8.44,14.622-8.529Z"/>
    <path id="路径_12932" data-name="路径 12932" class="cls-1" d="M563.96,440.512,579.1,449l-15.137,8.485H499.786l-13.9-8.44,14.622-8.529Z"/>
    <path id="路径_12933" data-name="路径 12933" class="cls-1" d="M563.96,110.97l15.137,8.485-15.137,8.485H499.786l-13.9-8.44,14.622-8.529Z"/>
    <path id="路径_12934" data-name="路径 12934" class="cls-1" d="M633.824,222.344V206.173l14.71,7.576,30.486,49.372v16.242l-14.114-7.534Z"/>
    <path id="路径_12935" data-name="路径 12935" class="cls-1" d="M615.291,213.707l14.113-7.534v16.242l-30.486,49.372-14.71,7.577V263.194Z"/>
    <path id="路径_12936" data-name="路径 12936" class="cls-1" d="M714.1,213.707l14.113-7.534v16.242L697.73,271.788l-14.71,7.577V263.194Z"/>
    <path id="路径_12937" data-name="路径 12937" class="cls-1" d="M612.973,358.717,628.11,367.2l-15.137,8.485-63.293-.82-14.551-8.443,14.39-7.706Z"/>
    <path id="路径_12938" data-name="路径 12938" class="cls-1" d="M713.078,358.717l15.137,8.485-15.153,7.665-63.48-.065-15.047-8.454,15.089-7.63Z"/>
    <path id="路径_12939" data-name="路径 12939" class="cls-1" d="M583.566,305.32V289.15l14.71,7.577L628.762,346.1v16.242l-14.113-7.534Z"/>
    <path id="路径_12940" data-name="路径 12940" class="cls-1" d="M534.6,387.205V371.035l14.71,7.577,30.486,49.372v16.242l-14.114-7.534Z"/>
    <path id="路径_12941" data-name="路径 12941" class="cls-1" d="M682.242,305.32V289.15l14.71,7.577L727.438,346.1v16.242l-14.113-7.534Z"/>
    <path id="路径_12942" data-name="路径 12942" class="cls-1" d="M565.679,296.683l14.114-7.534v16.242l-30.486,49.372-14.71,7.577V346.17Z"/>
    <path id="路径_12943" data-name="路径 12943" class="cls-1" d="M663.708,296.683l14.114-7.534v16.242l-30.486,49.372-14.71,7.577V346.17Z"/>
    <path id="路径_12944" data-name="路径 12944" class="cls-1" d="M663.23,440.6l15.137,8.485-15.137,8.485H599.057l-12.638-9.816,13.357-7.153Z"/>
    <path id="路径_12945" data-name="路径 12945" class="cls-1" d="M633.824,387.205V371.035l14.71,7.577,30.486,49.372v16.242l-14.114-7.534Z"/>
    <path id="路径_12946" data-name="路径 12946" class="cls-1" d="M615.291,378.569l14.113-7.534v16.242l-30.486,49.372-14.71,7.576V428.055Z"/>
    <path id="路径_12947" data-name="路径 12947" class="cls-1" d="M714.1,378.569l14.113-7.534v16.242L697.73,436.649l-14.71,7.576V428.055Z"/>
    <path id="路径_12984" data-name="路径 12984" class="cls-1" d="M415.837,193.856l15.137,8.485-15.137,8.485L352.544,210l-14.551-8.443,14.39-7.706Z"/>
    <path id="路径_12985" data-name="路径 12985" class="cls-1" d="M386.431,140.459V124.288l14.71,7.577,30.486,49.372v16.242l-14.113-7.534Z"/>
    <path id="路径_12986" data-name="路径 12986" class="cls-1" d="M368.543,131.822l14.113-7.534V140.53L352.171,189.9l-14.71,7.577V181.309Z"/>
  </g>
</svg>
