<svg xmlns="http://www.w3.org/2000/svg" width="641.072" height="71.607" viewBox="0 0 641.072 71.607">
  <defs>
    <style>
      .cls-1 {
        fill: #7d441e;
      }

      .cls-2 {
        fill: #ee3734;
      }

      .cls-3 {
        fill: #ffc95e;
      }
    </style>
  </defs>
  <g id="组_4871" data-name="组 4871" transform="translate(-204.819 -485.64)">
    <path id="路径_25684" data-name="路径 25684" class="cls-1" d="M25.231-9H14.461v-1.392a38.083,38.083,0,0,1-3.3,2.118q-.575-.908-1.24-1.906.03.877.061,1.6-1.21.333-2.36.635V.045q0,3.479-2.662,3.721a22.846,22.846,0,0,1-3.63.212Q1.029,2.163.575.045h2.36q.847-.03.847-1.361v-5.6q-1.6.424-3.056.817L.393-10.543q1.785-.393,3.388-.726v-5.022H.545v-3.63H3.782v-5.748H7.624v5.748h2.6v3.63h-2.6v4.145q1.271-.3,2.329-.545a2.606,2.606,0,0,1-.03.424,26.9,26.9,0,0,0,8.471-6.5h4.538l-.635.787a20.153,20.153,0,0,0,8.471,5.93q-.726,1.18-2.027,3.63a29.306,29.306,0,0,1-3.509-2.087ZM11.678,4.19V-7.124H28.256V4.19H24.323V2.8H15.61V4.19ZM9.772-23.249h3.479v-2.36H17v2.36h6.051v-2.36H26.8v2.36h3.479v3.267H26.8v2.3H23.052v-2.3H17v2.3H13.251v-2.3H9.772ZM24.323-3.736H15.61V-.59h8.713ZM20.057-15.414a36.937,36.937,0,0,1-3.388,3.267h6.444A20.2,20.2,0,0,1,20.057-15.414Zm13.7-7.835H59.114v4.477H33.762Zm1.361,10.225H57.752v4.356H35.123ZM31.886-2.254H61.11V2.224H31.886Zm43.231-12.1h4.629V4.069H75.117ZM80.29-25.367l-.514.847A32.845,32.845,0,0,0,92.543-12.993q-1.755,2.36-2.874,4.084-8.35-4.75-12.192-11.617Q73.7-13.992,65.225-8.516q-.877-1.392-2.813-3.993A37.211,37.211,0,0,0,75.6-25.367Zm26.471,8.108,6.2,4.8a12.384,12.384,0,0,0,2.45-5.158H102.738v-3.661h7.7q-.741-2.027-1.316-3.388l4.387-1.24a44.47,44.47,0,0,1,1.709,4.629H122.8v3.661h-2.98a21.24,21.24,0,0,1-3.615,7.7l5.96,4.735L118.681-1.77q-2.813-2.617-5.43-4.946a28.821,28.821,0,0,1-8.3,5.067q-.787-1.361-2.541-3.963a28.712,28.712,0,0,0,7.609-3.978q-3.071-2.677-5.824-4.946Zm-8.834-8.35q2.027,2.813,3.993,5.778l-3.661,2.3q-2.148-3.54-3.751-6.02ZM123.461-.8q-.787,2.087-1.361,4.114l-10.452-.076q-5.249-.045-6.875-.25a9.829,9.829,0,0,1-3.154-.961A6.622,6.622,0,0,1,99.168.015q-1.785,1.694-3.993,3.993L93.481-.8,97.2-3.63v-7.518H93.844v-4.084h7.533V-3.04a8.882,8.882,0,0,0,6.232,2.269l4.372.061Q116.049-.711,123.461-.8Zm11.1-5.2h7.684v-3.63h-5.869v-3.63h5.869v-3.509H135.8v-3.63h4.175q-1.15-1.861-2.42-3.6l2.934-1.966q1.573,1.906,3.3,4.235l-1.951,1.331h3.676q1.83-2.935,3.207-5.536l3.6,1.6q-1.286,2.072-2.511,3.933h3.449v3.63h-6.777v3.509h6.232v3.63h-6.232v3.63h7.926v3.63h-7.926V4.039h-4.235V-2.375h-7.684Zm-9.832-14.34h3.479V-25.7h3.842v5.355h2.874v3.963h-2.874v2.208a42.739,42.739,0,0,1,4.024,2.9L133.9-7.881q-.908-.968-1.845-1.845V4.039h-3.842V-8.4a38.548,38.548,0,0,1-2.9,6.051q-.363-1.966-1.15-5.566a33.759,33.759,0,0,0,3.721-8.471h-3.146Zm36.212-5.324,4.508.7-1.361,4.114h5.143v5.9a55.713,55.713,0,0,0,4.659-10.77l4.175,1.089q-.666,2.012-1.422,3.933h7.805L184.1-3.3a14.715,14.715,0,0,1-.469,3.94,4.167,4.167,0,0,1-1.225,1.838,4.759,4.759,0,0,1-2.322.968,49.553,49.553,0,0,1-6.5.257,26.38,26.38,0,0,0-1.15-4.568q2.239.182,4.765.182a4.208,4.208,0,0,0,1.255-.166,2.092,2.092,0,0,0,.87-.507,1.754,1.754,0,0,0,.461-.764,30.058,30.058,0,0,0,.2-3.721l.136-6.187q.06-2.889.061-4.689h-5.264q-1,2.118-2.118,4.114a24.09,24.09,0,0,0-3.57-1.861V3.555h-4.205V1.376h-4.3v2.36h-4.205v-24.6h3.192Q160.6-23.824,160.944-25.669Zm4.084,8.773h-4.3v5.173h4.3Zm-4.3,14.309h4.3V-7.76h-4.3Zm13.251-10.5a77.229,77.229,0,0,1,4.689,6.323L174.86-4.22a66.555,66.555,0,0,0-4.387-6.444Z" transform="translate(204.426 528.832)"/>
    <path id="路径_25685" data-name="路径 25685" class="cls-1" d="M17.789-4.024l-2.45,8.2h-3.57l1.74-8.2ZM35.033-24.732H57.9v9.56H35.033Zm18.7,2.42H39.207v1.3H53.729Zm0,4.719v-1.3H39.207v1.3ZM60.2-9.242v2.813a19.04,19.04,0,0,1-3.252,5.007A21.031,21.031,0,0,0,61.534.015a35.173,35.173,0,0,0-1.815,3.691A21.37,21.37,0,0,1,53.956,1.18a20.936,20.936,0,0,1-5.4,2.677q-.469-.741-1.3-2.208-.5.061-.968.091V4.19H42.6V2.072L32.189,3.1,31.674-.287l2.269-.121V-10.846H31.432V-13.81H61.5v2.965H46.287v9.439l1.694-.182q-.121.771-.2,1.558a18.034,18.034,0,0,0,3.071-1.21,21.4,21.4,0,0,1-3.177-3.918l1.755-1.18h-2.3v-2.9Zm-22.568.091H42.6v-1.694H37.634Zm0,3.993H42.6V-6.852H37.634Zm16.2,1.906a12.473,12.473,0,0,0,2.5-3.086H50.764A15.094,15.094,0,0,0,53.835-3.252ZM42.6-1.059v-1.8H37.634V-.666ZM85.282-12.721l3.54,2.662a32.65,32.65,0,0,1-10.5,9.59,45.111,45.111,0,0,1-13.4,4.447,46.145,46.145,0,0,0-2.36-4.6Q74.754-2.708,79.58-6.852H75.208v-18.7h4.659V-7.064A31.59,31.59,0,0,0,85.282-12.721ZM85.01-22.4q3.963,4.3,7.714,8.864l-3.116,3.086q-4.024-5.173-7.654-9.62Zm-16.094.908L73.03-20.1A102.288,102.288,0,0,1,66.919-7.336Q64.771-8.7,63.167-9.545A62.146,62.146,0,0,0,68.915-21.494ZM121.616-.65a4.514,4.514,0,0,1-.877,2.972,3.853,3.853,0,0,1-2.685,1.24,41.566,41.566,0,0,1-4.757.144,41.859,41.859,0,0,0-1.21-4.387Q115.2-.5,115.474-.5a1.658,1.658,0,0,0,1.906-1.845V-5.1h-6.293V3.373h-4.266V-5.1h-6.55Q99.8,1.573,97.716,4.22q-1.936-1.392-3.9-2.541,2.45-3.328,2.36-11.829V-24.4h25.442Zm-21.207-16h6.414v-3.751h-6.414Zm16.972-3.751h-6.293v3.751h6.293ZM100.408-9h6.414v-3.751h-6.414Zm10.679,0h6.293v-3.751h-6.293Z" transform="translate(502.134 528.833)"/>
    <path id="路径_25686" data-name="路径 25686" class="cls-1" d="M.363-8.244a33.993,33.993,0,0,0,3.555-8.168H.575v-3.933h3.6v-5.324H7.987v5.324h3.388v3.933H7.987v2.95q1.966,1.255,4.145,2.8L9.681-7.518q-.847-.726-1.694-1.407V4.069H4.175V-8.38A41.983,41.983,0,0,1,1.331-2.708Q.847-5.793.363-8.244ZM30.555-.378l-2.269,3.9a14.69,14.69,0,0,1-7.14-4.961q-.106,1.724-.121,3.63-6.746,1.392-7.9,2.239L11.375,1.225a5.552,5.552,0,0,0,.817-3.116V-24.55h16.4V-8.788h-1L29.95-5.7l-4.7,2.889A11.786,11.786,0,0,0,30.555-.378ZM24.777-20.8H16v2.45h8.773Zm0,8.289v-2.45H16v2.45ZM17.713-8.788H16V-.741q2.148-.454,4.81-1.119A19.711,19.711,0,0,1,17.713-8.788ZM23.022-5.37a46.007,46.007,0,0,0,4.19-3.419H21.479A13.974,13.974,0,0,0,23.022-5.37Zm21.147-20.3h4.568q-.03,4.024-.363,9.545Q50.446-4.024,61.413-.287,59.507,1.83,57.964,3.857A21.384,21.384,0,0,1,46.483-8.592Q43.851-.56,34.912,4.069,33.55,2.466,31.493.257q9.288-4.4,11.08-10.271T44.169-25.669ZM41.688-12.388l-3.842,2.6q-3.509-5.99-5.718-9.015l3.721-2.3A104.66,104.66,0,0,1,41.688-12.388Zm8.622,0a63.214,63.214,0,0,0,6.474-8.561l3.782,2.481A89.335,89.335,0,0,1,53.91-9.575Q52.4-10.876,50.31-12.388Zm25.079.7H79.5v2.541H92V-5.7H81.833A28.753,28.753,0,0,0,92.482-.953q-.272.605-1.876,4.084a28.126,28.126,0,0,1-11.1-6.6v7.5H75.39V-3.585A35.219,35.219,0,0,1,64.5,3.1Q63.44,1.134,62.351-.529A33.119,33.119,0,0,0,73.06-5.7H62.9V-9.151H75.39Zm-12.373.424-.454-3.9,1.966-.061v-8.743H68.22v8.531l2.3-.182v-9.983H74.27v3.146H78.2v3.449H74.27v3.086q2.027-.182,4.084-.424a32.684,32.684,0,0,0-.363,3.691Q70.065-11.965,63.016-11.269Zm25.957-8.622q2.178,1.059,3.54,1.573a31.946,31.946,0,0,1-.635,3.751q-.756,3.177-4.326,3.177H83.739q-4.326,0-4.326-4.387v-9.862h3.812V-21.8a43.76,43.76,0,0,0,5.627-3.177l2.541,2.965a53.1,53.1,0,0,1-8.168,4.054v1.24q0,1.755,1.6,1.755h1.785q1.785,0,1.966-1.392A31.545,31.545,0,0,0,88.973-19.891Z" transform="translate(739.581 528.833)"/>
    <g id="组_4870" data-name="组 4870">
      <g id="组_4867" data-name="组 4867">
        <path id="路径_12948" data-name="路径 12948" class="cls-2" d="M465.647,556.46V546.049l8.588-.761a5.989,5.989,0,0,1,6.5,5.434c.016.177.024.355.024.533a5.99,5.99,0,0,1-5.988,5.992c-.179,0-.357-.007-.535-.023Z"/>
        <path id="路径_12949" data-name="路径 12949" class="cls-3" d="M465.647,547.113v8.041H414.1v-8.041Z"/>
      </g>
      <g id="组_4868" data-name="组 4868">
        <path id="路径_12950" data-name="路径 12950" class="cls-2" d="M439.851,502.126l-8.844-5.492,3.883-7.7a5.99,5.99,0,0,1,8.045-2.655q.238.12.466.261a5.99,5.99,0,0,1,1.932,8.248q-.141.228-.3.443Z"/>
        <path id="路径_12951" data-name="路径 12951" class="cls-3" d="M431.911,497.2l6.831,4.242-27.191,43.789-6.831-4.242Z"/>
      </g>
      <g id="组_4869" data-name="组 4869">
        <path id="路径_12952" data-name="路径 12952" class="cls-2" d="M476.032,533.986l8.738-5.658,5.307,6.795a5.99,5.99,0,0,1-1.029,8.409q-.21.165-.434.31a5.99,5.99,0,0,1-8.285-1.77c-.1-.15-.188-.3-.271-.462Z"/>
        <path id="路径_12953" data-name="路径 12953" class="cls-3" d="M483.877,528.907l-6.75,4.37-28.015-43.266,6.75-4.371Z"/>
      </g>
    </g>
    <path id="路径_25714" data-name="路径 25714" class="cls-1" d="M74.891.465a4.068,4.068,0,0,1-1.262,3.069,4.016,4.016,0,0,1-2.85,1.209,4.156,4.156,0,0,1-3.062-1.27A4.124,4.124,0,0,1,66.454.465a4,4,0,0,1,1.255-2.986A4.15,4.15,0,0,1,70.7-3.738a4.106,4.106,0,0,1,2.933,1.2A3.984,3.984,0,0,1,74.891.465ZM70.718,1.947a1.4,1.4,0,0,0,1.013-.416A1.357,1.357,0,0,0,72.154.526,1.364,1.364,0,0,0,71.7-.563a1.566,1.566,0,0,0-1.058-.393,1.288,1.288,0,0,0-1.013.446A1.558,1.558,0,0,0,69.236.556a1.409,1.409,0,0,0,1.482,1.391Z" transform="translate(771 528.129)"/>
  </g>
</svg>
