<svg xmlns="http://www.w3.org/2000/svg" width="243.1" height="185.408" viewBox="0 0 243.1 185.408">
  <defs>
    <style>
      .cls-1 {
        fill: #89512a;
      }

      .cls-2 {
        fill: #3f2f1c;
      }

      .cls-3 {
        fill: #513c25;
      }

      .cls-4 {
        fill: #bb7e53;
      }

      .cls-5 {
        fill: #aa6f46;
      }

      .cls-6 {
        fill: #cda474;
      }

      .cls-7 {
        fill: #fefefe;
      }

      .cls-8 {
        fill: #ce8e63;
      }

      .cls-9 {
        fill: #9b643e;
      }

      .cls-10 {
        fill: #774726;
      }

      .cls-11 {
        fill: #935525;
      }

      .cls-12 {
        fill: #544029;
      }

      .cls-13 {
        fill: #302315;
      }

      .cls-14 {
        fill: #5b452e;
      }
    </style>
  </defs>
  <g id="组_1141" data-name="组 1141" transform="translate(-109.35 -315.893)">
    <path id="路径_2006" data-name="路径 2006" class="cls-1" d="M161.258,446.6s-16.8,14.55-28.563,19.257-12.742,4.511-12.742,4.511l-2.156-7.249s18.231-15.392,18.819-16.519,18.364-15.893,19.572-16.842S166.492,432.826,161.258,446.6Z"/>
    <path id="路径_2007" data-name="路径 2007" class="cls-2" d="M168.2,398.842s-8.252-17.507-30.992-6.121c-7.449,6.121-4.705,17.463-1.568,32.361s2.254,16.075,1.445,17.1-5.537,2.573-4.643-1.1-5.265,3.392-1.458,5.367,13.688,3.161,17.981-.294,7.188-16.467,7.16-17.79S169.611,401.1,168.2,398.842Z"/>
    <path id="路径_2008" data-name="路径 2008" class="cls-1" d="M284.85,417.746s40.044,9.554,53.766,16.462,4.588,4.606,4.588,4.606l-1.589,6.146s-6.761-3.988-8.729-4.591-8.994-3.986-34.89-4.17S274.794,419.226,284.85,417.746Z"/>
    <path id="路径_2009" data-name="路径 2009" class="cls-2" d="M302.6,342.57s20.173-12.93,9.294-24.912c-.221,1.47-2.794,13.085-13.159,11.394,0,0,7.939-7.278,3.235-11.983-1.691,2.867-4.337,8.528-12.13,6.322s-19.333-6.469-27.714-3.6-10.438.613-18.769,21.392c-2.353,8.528-6.371,24.8-16.957,26.072-2.352.49-11.664,2.255-6.665-3.626-2.843,0-15.585,15.878,3.724,23.621,7.45,1.667,13.756,3.562,13.756,3.562s17.9,9.965,27.607-15.617S300.977,341.8,302.6,342.57Z"/>
    <path id="路径_2010" data-name="路径 2010" class="cls-3" d="M303.9,387.09s-2.418,29.895-15.748,33.228c-7.842.784-6.96-.245-7.058-.442a7.794,7.794,0,0,1,0-1.519s18.417-1.331,17.442-30.927Z"/>
    <path id="路径_2011" data-name="路径 2011" class="cls-4" d="M286.579,386.158s-3.332,36.768-6.665,45.589c14.9,7.449,52.929,21.76,57.045,25.68s3.529,4.7,3.529,4.7-2.157,4.509-3.921,5.881-7.057-4.117-15.29-5.881-51.546-8.881-57.231-8.881-35.876,12.938-74.1,8.781c-5.1,2.057-23.727,23.82-38.43,29.309S132.5,498.2,132.5,498.2l-2.744-6.665s17.447-14.7,25.288-22.544c7.057-9.8,7.841-15.192,9.017-17.251s-7.351-6.027-7.939-23.376,7.057-33.962,27.934-33.815,43.666.147,52.635-3.529,21.612-6.469,23.523-24.406,1.029-18.378,1.029-18.378-11.467-5.293-6.91-22.347a65.7,65.7,0,0,1,3.088-10s9.115,8.528,11.173,11.615,2.794,9.116,2.647,11.468,13.967-4.264,18.966-2.205,23.65,11.038,27.213,13.675c3.278,2.426,9.57,5.917,9.57,5.917a19.549,19.549,0,0,1,8.028-.711c4.828.71,10.117,10.5,5.676,21.282-8.122,19.724-24.015,21.624-30.337,9.421C308.518,386.576,293.056,388.873,286.579,386.158Z"/>
    <path id="路径_2012" data-name="路径 2012" class="cls-2" d="M132.744,498.937l-2.989-8.822s-7.155-.441-9.067,0-.294,10.292,1.471,11.027S132.372,499.876,132.744,498.937Z"/>
    <path id="路径_2013" data-name="路径 2013" class="cls-2" d="M120.788,470.2s-1.178-8.317-2.991-8.17-6.812-.147-8.135,1.176,1.911,12.029,3.087,11.675S120.957,471.254,120.788,470.2Z"/>
    <path id="路径_2014" data-name="路径 2014" class="cls-2" d="M340.241,461.414s-4.8,5.854-4.9,6.864,3.067,4.671,4.564,5.42,9.932-5.74,9.458-8.4S340.241,461.414,340.241,461.414Z"/>
    <path id="路径_2015" data-name="路径 2015" class="cls-2" d="M344.43,437.393l-6.5,5.465s3.218,5.16,4.336,5.943,9.954-4.138,10.178-5.7S345.588,438.064,344.43,437.393Z"/>
    <path id="路径_2016" data-name="路径 2016" class="cls-5" d="M326.189,392.965c-2.141.86-9.217,3.731-15.833-6.61-5,0-6.452.735-6.452.735s-12.236,1.076-17.325-.932c-5.824-.881-15.282-4.507-15.38-4.8s-1.078-.784-.49-1.421c.833,0,18.467,5.048,23.764,5.2s14.958-.53,15.393-.588c.6-.08,2.769-.98,3.872.784,1.073,1.717,4.193,8.355,12.439,7.571C326.221,392.893,326.229,392.949,326.189,392.965Z"/>
    <path id="路径_2017" data-name="路径 2017" class="cls-6" d="M326.989,356.363s13.481-4.867,14.854,7.895-2.592,18.262-8.953,24.7c-3.372,3.763-5.877,3.992-6.694,4.255,0,0-10.89,2.013-11.772-10.925a39.722,39.722,0,0,1,12.565-25.925"/>
    <ellipse id="椭圆_207" data-name="椭圆 207" class="cls-2" cx="4.522" cy="4.123" rx="4.522" ry="4.123" transform="translate(292.079 347.486)"/>
    <ellipse id="椭圆_208" data-name="椭圆 208" class="cls-7" cx="1.94" cy="2.128" rx="1.94" ry="2.128" transform="matrix(0.622, -0.783, 0.783, 0.622, 291.6, 353.069)"/>
    <ellipse id="椭圆_209" data-name="椭圆 209" class="cls-2" cx="3.507" cy="2.93" rx="3.507" ry="2.93" transform="translate(334.619 375.899) rotate(-69.178)"/>
    <path id="路径_2018" data-name="路径 2018" class="cls-8" d="M325.707,357.6S306.68,346.4,302.685,343.425c-.4-.3-.664-.743-.382-1.15.034-.05-1.067.772-1.044.764.445-.173-.441-2.628,8.054,2.777,11.213,5.562,16.924,7.9,17.676,10.547A2.654,2.654,0,0,1,325.707,357.6Z"/>
    <path id="路径_2019" data-name="路径 2019" class="cls-3" d="M326.989,356.363s-7.665-4.558-16.633,29.992c-2.2,2.059-6.435,1.471-6.452.735s7.9-34.179,18.807-34.218C327.3,354.3,327.009,355.041,326.989,356.363Z"/>
    <path id="路径_2020" data-name="路径 2020" class="cls-3" d="M308.974,370.322s-44.213.474-48.1-10.394a8.423,8.423,0,0,0-1.192,6.481c0,.49,15.974,12.1,47.928,7.714A5.159,5.159,0,0,0,308.974,370.322Z"/>
    <path id="路径_2021" data-name="路径 2021" class="cls-3" d="M236.69,391.022"/>
    <path id="路径_2022" data-name="路径 2022" class="cls-3" d="M236.69,391.022s-25.86,3.009-39.1,2.966c-4.7,0-12.055,40.429-4.116,44.528s45.577,5.991,52.046-8.2S236.69,391.022,236.69,391.022Z"/>
    <path id="路径_2023" data-name="路径 2023" class="cls-1" d="M230.419,401.99s-18.346,2.416-27.634,2.389c-3.3,0-8.251,24.708-2.682,27.268s31.972,3.741,36.509-5.119S230.419,401.99,230.419,401.99Z"/>
    <path id="路径_2024" data-name="路径 2024" class="cls-5" d="M336.367,466.46s-8.711-5.613-14.592-6.2c-8.037-1.495-46.361-10.929-56.163-10.341s-9.8,2.549-20.387,4.9-39.4,7.106-53.32,3.357c-8.234,1.74-20.976,20.167-36.658,26.636-16.075,7.645-20.185,9.835-23.815,10.8A5.545,5.545,0,0,0,132.5,498.2s24.4-7.9,27.028-11.063c3.341-1.617,15.214-12.18,20.752-17.166,5.385-4.856,9.665-7.941,9.665-7.941s24.375,4.961,62.543-6.027c10.647-2.678,11.559-2.754,11.559-2.754s47.622,7.026,52.426,7.954,7.118,1.259,14.321,4.739C334.615,468.688,335.326,469.671,336.367,466.46Z"/>
    <path id="路径_2025" data-name="路径 2025" class="cls-9" d="M344.12,437.189s-1.879,2.044-2.454,2.528-.8-4.256-24.694-10.8-34.171-8.222-34.562-8.31,0-2.862,0-2.862S317.359,422.7,344.12,437.189Z"/>
    <path id="路径_2026" data-name="路径 2026" class="cls-10" d="M161.454,446.176s-2.122-3.527-2.277-3.9-17.268,19.956-38.092,25.543c-1.565,2.708,0,2.546,0,2.546A89.974,89.974,0,0,0,161.454,446.176Z"/>
    <path id="路径_2027" data-name="路径 2027" class="cls-11" d="M259.031,324.263s7.855,5.292,8.247,10.781-3.232,7.228-5.685,7.155C258.822,342.117,254.9,329.947,259.031,324.263Z"/>
    <path id="路径_2028" data-name="路径 2028" class="cls-12" d="M301.968,317.069s1.32,5.331-3.6,7.488-10.7.392-13.839-.882-19.9-3.828-21.516-2.355l-1.375-1.367s6.4-2.747,17.3.346c3.768,1,11.719,3.3,11.874,3.333S297.843,325.853,301.968,317.069Z"/>
    <path id="路径_2029" data-name="路径 2029" class="cls-12" d="M311.892,317.658a7.482,7.482,0,0,1,0,5.967c-1.438,2.941-5,7.744-9.763,7.058s-3.4-1.631-3.4-1.631S308.331,331.832,311.892,317.658Z"/>
    <path id="路径_2030" data-name="路径 2030" class="cls-13" d="M219.733,363.627s-6.723.7-6.715,12.45,22.21,14.337,24.195,14.733l4.986-1.937s-23.83-2.371-25.2-8.938C215.232,377.219,213.55,371.724,219.733,363.627Z"/>
    <path id="路径_2031" data-name="路径 2031" class="cls-13" d="M156.121,428.366l.121-5.8s-3.887,17.748-7.807,20.933-13.33,2.843-15.34,1.96-.541-4.97-.575-5.112.022-.679-.767-.062-4.4,5.691.722,6.794c4.663,1.394,11.275,2.331,15.994-.563S156.383,429.308,156.121,428.366Z"/>
    <ellipse id="椭圆_210" data-name="椭圆 210" class="cls-14" cx="1.694" cy="2.385" rx="1.694" ry="2.385" transform="translate(344.584 441.465) rotate(-64.665)"/>
    <ellipse id="椭圆_211" data-name="椭圆 211" class="cls-14" cx="1.694" cy="2.385" rx="1.694" ry="2.385" transform="translate(342.309 464.754) rotate(-64.665)"/>
    <ellipse id="椭圆_212" data-name="椭圆 212" class="cls-13" cx="2.385" cy="1.694" rx="2.385" ry="1.694" transform="matrix(0.964, -0.265, 0.265, 0.964, 124.158, 497.898)"/>
    <ellipse id="椭圆_213" data-name="椭圆 213" class="cls-13" cx="2.385" cy="1.694" rx="2.385" ry="1.694" transform="matrix(0.909, -0.416, 0.416, 0.909, 112.58, 470.54)"/>
  </g>
</svg>
