<svg xmlns="http://www.w3.org/2000/svg" width="224.684" height="171.362" viewBox="0 0 224.684 171.362">
  <defs>
    <style>
      .cls-1 {
        fill: #d3b98c;
      }

      .cls-2 {
        fill: #dd8d00;
      }

      .cls-3 {
        fill: #513c25;
      }

      .cls-4 {
        fill: #ffe39c;
      }

      .cls-5 {
        fill: #3f2f1c;
      }

      .cls-6 {
        fill: #e5ca8f;
      }

      .cls-7 {
        fill: #e0c589;
      }

      .cls-8 {
        fill: #fefefe;
      }

      .cls-9 {
        fill: #ffebc0;
      }

      .cls-10 {
        fill: #89512a;
      }

      .cls-11 {
        fill: #e0c59d;
      }

      .cls-12 {
        fill: #ba9f78;
      }

      .cls-13 {
        fill: #935525;
      }

      .cls-14 {
        fill: #f99900;
      }

      .cls-15 {
        fill: #cc7900;
      }

      .cls-16 {
        fill: #5b452e;
      }

      .cls-17 {
        fill: #302315;
      }
    </style>
  </defs>
  <g id="组_1144" data-name="组 1144" transform="translate(-403.46 -247.551)">
    <path id="路径_2084" data-name="路径 2084" class="cls-1" d="M451.436,368.353s-15.528,13.448-26.4,17.8-11.776,4.169-11.776,4.169l-1.993-6.7s16.849-14.226,17.393-15.268,16.973-14.689,18.089-15.566S456.274,355.625,451.436,368.353Z"/>
    <path id="路径_2085" data-name="路径 2085" class="cls-2" d="M457.849,324.216s-7.628-16.181-28.645-5.657c-6.884,5.657-4.348,16.14-1.449,29.909s2.084,14.857,1.336,15.808-5.118,2.378-4.291-1.019-4.867,3.135-1.348,4.96,12.651,2.922,16.619-.272,6.643-15.219,6.617-16.442S459.156,326.3,457.849,324.216Z"/>
    <path id="路径_2086" data-name="路径 2086" class="cls-1" d="M565.666,341.688s37.01,8.83,49.692,15.215,4.241,4.257,4.241,4.257l-1.469,5.68s-6.249-3.686-8.068-4.243-8.312-3.684-32.246-3.854S556.371,343.056,565.666,341.688Z"/>
    <path id="路径_2087" data-name="路径 2087" class="cls-2" d="M582.069,272.207s18.645-11.951,8.59-23.025c-.2,1.358-2.582,12.093-12.162,10.531,0,0,7.338-6.727,2.989-11.075-1.562,2.65-4.008,7.881-11.21,5.843s-17.869-5.979-25.614-3.329-9.648.566-17.348,19.771c-2.175,7.882-5.889,22.92-15.673,24.1-2.174.453-10.78,2.084-6.16-3.352-2.627,0-14.4,14.676,3.443,21.833,6.885,1.54,12.713,3.292,12.713,3.292s16.547,9.209,25.516-14.435S580.571,271.5,582.069,272.207Z"/>
    <path id="路径_2088" data-name="路径 2088" class="cls-3" d="M583.276,313.355s-2.235,27.63-14.555,30.71c-7.248.724-6.432-.227-6.523-.408a7.248,7.248,0,0,1,0-1.4s17.022-1.23,16.12-28.585Z"/>
    <path id="路径_2089" data-name="路径 2089" class="cls-4" d="M567.264,312.493s-3.08,33.982-6.16,42.136c13.769,6.884,48.918,20.111,52.723,23.734s3.261,4.348,3.261,4.348-1.993,4.168-3.623,5.436-6.523-3.8-14.132-5.436-47.641-8.208-52.9-8.208-33.158,11.958-68.488,8.116c-4.71,1.9-21.93,22.015-35.518,27.088s-17.575,6.342-17.575,6.342l-2.536-6.161s16.125-13.588,23.372-20.835c6.522-9.059,7.247-14.042,8.334-15.944s-6.794-5.571-7.338-21.606,6.523-31.389,25.819-31.253,40.357.135,48.646-3.262,19.976-5.979,21.742-22.557.951-16.985.951-16.985-10.6-4.892-6.386-20.655a60.633,60.633,0,0,1,2.853-9.24s8.425,7.881,10.328,10.735,2.581,8.425,2.445,10.6,12.91-3.941,17.53-2.038,21.859,10.2,25.152,12.64c3.029,2.242,8.844,5.468,8.844,5.468a18.094,18.094,0,0,1,7.421-.658c4.461.657,9.35,9.705,5.245,19.671-7.507,18.229-22.2,19.986-28.039,8.707C587.541,312.879,573.25,315,567.264,312.493Z"/>
    <path id="路径_2090" data-name="路径 2090" class="cls-5" d="M425.083,416.728l-2.763-8.153s-6.613-.408-8.38,0-.272,9.512,1.359,10.191S424.738,417.6,425.083,416.728Z"/>
    <path id="路径_2091" data-name="路径 2091" class="cls-5" d="M414.032,390.172s-1.088-7.687-2.764-7.551-6.3-.136-7.519,1.087,1.766,11.118,2.853,10.79S414.188,391.142,414.032,390.172Z"/>
    <path id="路径_2092" data-name="路径 2092" class="cls-5" d="M616.86,382.048s-4.438,5.41-4.526,6.344,2.835,4.317,4.219,5.009,9.179-5.3,8.741-7.765S616.86,382.048,616.86,382.048Z"/>
    <path id="路径_2093" data-name="路径 2093" class="cls-5" d="M620.732,359.846l-6.007,5.052s2.973,4.769,4.007,5.493,9.2-3.825,9.407-5.273S621.8,360.467,620.732,359.846Z"/>
    <path id="路径_2094" data-name="路径 2094" class="cls-6" d="M603.872,318.784c-1.978.8-8.518,3.448-14.633-6.109-4.62,0-5.963.68-5.963.68s-11.309.994-16.012-.862c-5.383-.814-14.125-4.166-14.215-4.438s-1-.725-.453-1.314c.77,0,17.068,4.666,21.964,4.8s13.825-.491,14.226-.544c.555-.073,2.56-.906,3.579.725.992,1.587,3.875,7.722,11.5,7C603.9,318.718,603.91,318.769,603.872,318.784Z"/>
    <path id="路径_2095" data-name="路径 2095" class="cls-7" d="M604.612,284.955s12.46-4.5,13.729,7.3-2.4,16.878-8.275,22.829c-3.116,3.478-5.431,3.689-6.187,3.932,0,0-10.065,1.861-10.88-10.1a36.712,36.712,0,0,1,11.613-23.961"/>
    <ellipse id="椭圆_228" data-name="椭圆 228" class="cls-5" cx="4.179" cy="3.81" rx="4.179" ry="3.81" transform="translate(572.347 276.75)"/>
    <ellipse id="椭圆_229" data-name="椭圆 229" class="cls-8" cx="1.793" cy="1.967" rx="1.793" ry="1.967" transform="matrix(0.622, -0.783, 0.783, 0.622, 571.905, 281.91)"/>
    <ellipse id="椭圆_230" data-name="椭圆 230" class="cls-5" cx="3.241" cy="2.708" rx="3.241" ry="2.708" transform="translate(611.665 303.011) rotate(-69.178)"/>
    <path id="路径_2096" data-name="路径 2096" class="cls-9" d="M603.427,286.1s-17.585-10.347-21.278-13.1c-.367-.274-.613-.686-.353-1.063.031-.046-.986.714-.965.706.411-.159-.407-2.429,7.444,2.567,10.364,5.14,15.642,7.3,16.337,9.748A2.451,2.451,0,0,1,603.427,286.1Z"/>
    <path id="路径_2097" data-name="路径 2097" class="cls-3" d="M604.612,284.955s-7.084-4.213-15.373,27.72c-2.038,1.9-5.947,1.359-5.963.68s7.3-31.591,17.382-31.626C604.9,283.052,604.63,283.733,604.612,284.955Z"/>
    <path id="路径_2098" data-name="路径 2098" class="cls-3" d="M587.962,297.856s-40.863.439-44.456-9.606a7.787,7.787,0,0,0-1.1,5.99c0,.453,14.764,11.179,44.3,7.129A4.769,4.769,0,0,0,587.962,297.856Z"/>
    <path id="路径_2099" data-name="路径 2099" class="cls-3" d="M521.153,316.988"/>
    <path id="路径_2100" data-name="路径 2100" class="cls-3" d="M521.153,316.988s-23.9,2.782-36.138,2.742c-4.347,0-11.142,37.366-3.8,41.155s42.124,5.537,48.1-7.577S521.153,316.988,521.153,316.988Z"/>
    <path id="路径_2101" data-name="路径 2101" class="cls-10" d="M515.358,327.125s-16.956,2.233-25.54,2.209c-3.05,0-7.626,22.836-2.479,25.2s29.549,3.457,33.743-4.732S515.358,327.125,515.358,327.125Z"/>
    <path id="路径_2102" data-name="路径 2102" class="cls-6" d="M613.28,386.711s-8.052-5.187-13.487-5.731c-7.428-1.381-42.849-10.1-51.908-9.557s-9.059,2.355-18.843,4.529-36.417,6.568-49.281,3.1c-7.609,1.608-19.386,18.639-33.881,24.618-14.856,7.066-18.655,9.09-22.01,9.98a5.123,5.123,0,0,0,.986,2.4s22.549-7.3,24.98-10.225c3.088-1.494,14.062-11.257,19.18-15.866,4.978-4.488,8.933-7.339,8.933-7.339s22.529,4.585,57.805-5.57c9.841-2.476,10.683-2.546,10.683-2.546s44.015,6.494,48.455,7.351a41.3,41.3,0,0,1,13.236,4.38C611.66,388.771,612.318,389.68,613.28,386.711Z"/>
    <path id="路径_2103" data-name="路径 2103" class="cls-11" d="M620.445,359.658s-1.736,1.889-2.268,2.337-.742-3.934-22.823-9.981-31.582-7.6-31.943-7.681,0-2.645,0-2.645S595.712,346.263,620.445,359.658Z"/>
    <path id="路径_2104" data-name="路径 2104" class="cls-12" d="M451.618,367.964s-1.962-3.26-2.105-3.6-15.96,18.445-35.207,23.609c-1.446,2.5,0,2.352,0,2.352A83.151,83.151,0,0,0,451.618,367.964Z"/>
    <path id="路径_2105" data-name="路径 2105" class="cls-13" d="M541.8,255.286s7.26,4.892,7.622,9.965-2.988,6.681-5.254,6.613C541.61,271.788,537.985,260.541,541.8,255.286Z"/>
    <path id="路径_2106" data-name="路径 2106" class="cls-14" d="M581.486,248.638s1.221,4.927-3.326,6.92-9.892.362-12.791-.815-18.394-3.538-19.887-2.177l-1.27-1.263s5.919-2.539,15.992.32c3.482.923,10.83,3.051,10.973,3.08S577.674,256.756,581.486,248.638Z"/>
    <path id="路径_2107" data-name="路径 2107" class="cls-14" d="M590.659,249.182a6.912,6.912,0,0,1,0,5.515c-1.329,2.718-4.624,7.157-9.024,6.523s-3.138-1.507-3.138-1.507S587.367,262.282,590.659,249.182Z"/>
    <path id="路径_2108" data-name="路径 2108" class="cls-15" d="M505.481,291.668s-6.214.65-6.206,11.508,20.528,13.25,22.362,13.617L526.246,315s-22.026-2.191-23.294-8.261C501.322,304.231,499.767,299.152,505.481,291.668Z"/>
    <path id="路径_2109" data-name="路径 2109" class="cls-15" d="M446.688,351.5l.113-5.361s-3.593,16.4-7.217,19.347-12.32,2.627-14.177,1.812-.5-4.594-.531-4.725.02-.628-.71-.058-4.066,5.261.667,6.279c4.311,1.29,10.421,2.155,14.783-.52S446.93,352.374,446.688,351.5Z"/>
    <ellipse id="椭圆_231" data-name="椭圆 231" class="cls-16" cx="1.566" cy="2.205" rx="1.566" ry="2.205" transform="translate(620.874 363.61) rotate(-64.665)"/>
    <ellipse id="椭圆_232" data-name="椭圆 232" class="cls-16" cx="1.566" cy="2.205" rx="1.566" ry="2.205" transform="translate(618.772 385.135) rotate(-64.665)"/>
    <ellipse id="椭圆_233" data-name="椭圆 233" class="cls-17" cx="2.205" cy="1.566" rx="2.205" ry="1.566" transform="matrix(0.964, -0.265, 0.265, 0.964, 417.147, 415.768)"/>
    <ellipse id="椭圆_234" data-name="椭圆 234" class="cls-17" cx="2.205" cy="1.566" rx="2.205" ry="1.566" transform="matrix(0.909, -0.416, 0.416, 0.909, 406.445, 390.482)"/>
  </g>
</svg>
