<svg xmlns="http://www.w3.org/2000/svg" width="289.645" height="225.634" viewBox="0 0 289.645 225.634">
  <defs>
    <style>
      .cls-1, .cls-12 {
        fill: #e0c59d;
      }

      .cls-1 {
        stroke-linecap: round;
        stroke-linejoin: round;
      }

      .cls-2 {
        fill: #d3b98c;
      }

      .cls-3 {
        fill: #dd8d00;
      }

      .cls-4 {
        fill: #513c25;
      }

      .cls-5 {
        fill: #ffe39c;
      }

      .cls-6 {
        fill: #3f2f1c;
      }

      .cls-7 {
        fill: #e5ca8f;
      }

      .cls-8 {
        fill: #e0c589;
      }

      .cls-9 {
        fill: #fefefe;
      }

      .cls-10 {
        fill: #ffebc0;
      }

      .cls-11 {
        fill: #89512a;
      }

      .cls-13 {
        fill: #ba9f78;
      }

      .cls-14 {
        fill: #935525;
      }

      .cls-15 {
        fill: #f99900;
      }

      .cls-16 {
        fill: #cc7900;
      }

      .cls-17 {
        fill: #5b452e;
      }

      .cls-18 {
        fill: #302315;
      }

      .cls-19, .cls-20 {
        stroke: none;
      }

      .cls-20 {
        fill: #fff;
      }
    </style>
  </defs>
  <g id="组_1817" data-name="组 1817" transform="translate(-448.197 -1161.054)">
    <g id="路径_3769" data-name="路径 3769" class="cls-1">
      <path class="cls-19" d="M 473.7375183105469 1381.688110351563 C 472.4400634765625 1381.688110351563 471.4080505371094 1381.509887695313 470.48974609375 1381.127319335938 C 468.9179382324219 1380.472778320313 467.7138977050781 1379.190795898438 466.8099365234375 1377.20849609375 C 466.3537902832031 1376.208251953125 465.9541931152344 1374.996337890625 465.6222839355469 1373.606567382813 C 464.9795532226563 1370.915405273438 464.7021789550781 1368.041259765625 464.8803100585938 1365.918212890625 C 464.9752807617188 1364.78662109375 465.194580078125 1363.826904296875 465.55078125 1362.984252929688 C 466.3322448730469 1361.135375976563 467.8285522460938 1359.832763671875 469.6560363769531 1359.410400390625 C 470.3551330566406 1359.249145507813 471.5160522460938 1359.064575195313 474.3310852050781 1359.064575195313 C 476.9692993164063 1359.064575195313 479.9473571777344 1359.222412109375 480.865234375 1359.275024414063 C 486.6983337402344 1354.295043945313 498.6219177246094 1343.997802734375 505.0614318847656 1337.6064453125 C 508.7539978027344 1332.428955078125 510.7280578613281 1328.490600585938 511.9465942382813 1325.598388671875 C 505.0951843261719 1330.958129882813 494.5444946289063 1338.580078125 485.9568481445313 1342.01708984375 C 480.5807800292969 1344.168090820313 476.5408935546875 1345.67724609375 473.9025268554688 1346.520874023438 C 473.5460510253906 1346.855346679688 473.1292114257813 1347.189697265625 472.6400451660156 1347.5341796875 C 471.8019409179688 1348.124389648438 470.6878662109375 1348.78759765625 469.3287353515625 1349.50537109375 C 467.3948974609375 1350.526733398438 464.6558837890625 1351.805786132813 463.419677734375 1352.178344726563 C 462.9274291992188 1352.326171875 462.4216003417969 1352.400512695313 461.9117431640625 1352.400512695313 C 460.5448913574219 1352.400512695313 459.2175903320313 1351.861206054688 458.17431640625 1350.8818359375 C 457.7568969726563 1350.489990234375 457.3805847167969 1350.028930664063 457.0238647460938 1349.472412109375 C 456.6107788085938 1348.827880859375 456.211669921875 1348.0361328125 455.8036804199219 1347.051635742188 C 454.9552917480469 1345.00439453125 454.1343078613281 1342.250610351563 453.6611938476563 1339.86474609375 C 453.3816223144531 1338.454833984375 453.229248046875 1337.211303710938 453.2082824707031 1336.168701171875 C 453.192626953125 1335.390625 453.247314453125 1334.703735351563 453.3755187988281 1334.068969726563 C 453.6307678222656 1332.8046875 454.1824645996094 1331.741088867188 455.0152587890625 1330.90771484375 C 457.3882446289063 1328.536254882813 461.0720825195313 1328.284301757813 465.6416320800781 1328.201171875 C 466.2215270996094 1328.190673828125 466.8204040527344 1328.1796875 467.1351013183594 1328.156982421875 C 470.8146362304688 1325.031494140625 474.7363586425781 1321.671875 477.9519958496094 1318.869995117188 C 477.129150390625 1318.040405273438 476.5150146484375 1317.033203125 476.1614074707031 1315.909301757813 C 475.7135925292969 1314.485961914063 475.6858520507813 1312.947143554688 476.0789489746094 1311.335693359375 C 476.4475402832031 1309.82470703125 477.2023620605469 1308.2568359375 478.2043151855469 1306.921142578125 C 479.7854309082031 1304.813354492188 481.6067810058594 1303.744506835938 483.6177673339844 1303.744506835938 C 483.8921203613281 1303.744506835938 484.1629333496094 1303.765380859375 484.4286193847656 1303.806030273438 C 484.0513000488281 1301.14697265625 483.393310546875 1297.583374023438 482.4672546386719 1293.185180664063 C 482.3350830078125 1292.557373046875 482.2035522460938 1291.935424804688 482.0732421875 1291.319213867188 C 480.3524475097656 1283.181396484375 478.8662719726563 1276.1533203125 478.8146362304688 1269.91259765625 C 478.784423828125 1266.2626953125 479.25439453125 1263.15966796875 480.25146484375 1260.426025390625 C 481.4143981933594 1257.237670898438 483.3232116699219 1254.537231445313 485.9248962402344 1252.399658203125 L 486.3585815429688 1252.043334960938 L 486.8604736328125 1251.7919921875 C 493.2179260253906 1248.60888671875 499.2756652832031 1246.994873046875 504.865478515625 1246.994873046875 C 511.6262512207031 1246.994873046875 517.7564086914063 1249.368408203125 522.59326171875 1253.858642578125 C 523.54638671875 1254.743408203125 524.3621215820313 1255.630737304688 525.0496215820313 1256.463623046875 C 529.6613159179688 1254.356079101563 534.924072265625 1253.290893554688 540.7573852539063 1253.290893554688 C 540.8701782226563 1253.290893554688 540.9838256835938 1253.291259765625 541.0972290039063 1253.292114257813 C 544.587646484375 1253.316650390625 548.6996459960938 1253.341796875 552.7330322265625 1253.341796875 C 561.127197265625 1253.341796875 570.3897094726563 1253.23974609375 578.5249633789063 1252.73974609375 C 574.950439453125 1250.702026367188 572.2623291015625 1248.214233398438 570.5060424804688 1245.311279296875 C 568.3582153320313 1241.760986328125 567.6556396484375 1237.642700195313 568.474365234375 1233.401611328125 C 569.1078491210938 1230.119995117188 570.6715698242188 1226.763793945313 572.8775634765625 1223.951049804688 C 573.8291625976563 1222.73779296875 574.8680419921875 1221.675659179688 575.8819580078125 1220.879516601563 C 577.4968872070313 1219.611450195313 579.0506591796875 1218.994995117188 580.6320190429688 1218.994995117188 L 591.4459228515625 1218.994995117188 L 588.0939331054688 1222.937622070313 C 595.5838012695313 1221.2490234375 599.5303344726563 1206.82763671875 601.6790771484375 1198.9765625 C 601.792724609375 1198.561279296875 601.9029541015625 1198.158569335938 602.0100708007813 1197.770385742188 L 602.0846557617188 1197.499755859375 L 602.1891479492188 1197.2392578125 C 605.3775024414063 1189.287231445313 607.8087158203125 1184.185668945313 610.0720825195313 1180.697631835938 C 611.8887939453125 1177.898071289063 613.7578125 1175.902954101563 615.946044921875 1174.46484375 C 617.0635986328125 1170.793823242188 617.7591552734375 1169.237548828125 617.904052734375 1168.928955078125 L 620.8258056640625 1162.705932617188 L 625.8460083007813 1167.40283203125 C 625.9091796875 1167.4619140625 626.9907836914063 1168.474609375 628.5201416015625 1169.950317382813 C 630.4520874023438 1169.525512695313 632.5394287109375 1169.31103515625 634.75537109375 1169.31103515625 C 642.1293334960938 1169.31103515625 649.9344482421875 1171.643798828125 656.2059936523438 1173.518188476563 C 657.4599609375 1173.89306640625 658.6444702148438 1174.246948242188 659.7467041015625 1174.558959960938 C 660.5994262695313 1174.80029296875 661.3738403320313 1174.922729492188 662.0484619140625 1174.922729492188 C 664.23779296875 1174.922729492188 665.34130859375 1173.618896484375 667.1358032226563 1170.499755859375 C 667.2653198242188 1170.274658203125 667.3992309570313 1170.041870117188 667.5309448242188 1169.818481445313 L 670.8093872070313 1164.258422851563 L 675.37353515625 1168.822509765625 C 676.4878540039063 1169.936767578125 677.3140258789063 1171.206176757813 677.8348999023438 1172.588134765625 C 677.8787231445313 1172.388549804688 677.8984375 1172.274169921875 677.8992309570313 1172.268920898438 L 679.459228515625 1161.842895507813 L 686.5457153320313 1169.64892578125 C 688.4736938476563 1171.772216796875 689.8491821289063 1174.078979492188 690.6339721679688 1176.505249023438 C 691.376220703125 1178.799926757813 691.5928344726563 1181.198486328125 691.2777709960938 1183.634643554688 C 690.6268310546875 1188.668212890625 687.7536010742188 1193.744506835938 682.7378540039063 1198.722412109375 C 682.4229125976563 1199.035034179688 682.1093139648438 1199.33740234375 681.7987060546875 1199.62939453125 C 686.1314086914063 1201.845092773438 690.160888671875 1204.033325195313 691.94921875 1205.356811523438 C 694.09619140625 1206.946166992188 697.8504638671875 1209.18603515625 700.2948608398438 1210.592407226563 C 701.7364501953125 1210.285278320313 703.7361450195313 1209.979736328125 705.9862060546875 1209.979736328125 C 707.0806884765625 1209.979736328125 708.1578979492188 1210.053100585938 709.1878051757813 1210.197509765625 L 709.2044067382813 1210.199951171875 L 709.2210083007813 1210.202270507813 C 711.1474609375 1210.48583984375 713.0643310546875 1211.39111328125 714.7644653320313 1212.8203125 C 716.2265625 1214.049560546875 717.511474609375 1215.628662109375 718.5833740234375 1217.513793945313 C 720.309814453125 1220.550170898438 721.3485717773438 1224.15966796875 721.5872192382813 1227.951904296875 C 721.8560791015625 1232.224243164063 721.1240234375 1236.499145507813 719.4113159179688 1240.658081054688 C 717.9891357421875 1244.111206054688 716.309814453125 1247.251220703125 714.4199829101563 1249.990966796875 C 712.5758056640625 1252.66455078125 710.519775390625 1254.97509765625 708.30908203125 1256.8583984375 C 703.8404541015625 1260.665161132813 698.826171875 1262.677368164063 693.8082885742188 1262.677368164063 C 690.27880859375 1262.677368164063 686.84765625 1261.648193359375 683.8858032226563 1259.701171875 C 681.8549194335938 1258.366088867188 680.078125 1256.645874023438 678.5773315429688 1254.565551757813 C 678.5473022460938 1254.569091796875 678.5167846679688 1254.572631835938 678.4865112304688 1254.576171875 C 678.0706176757813 1257.568115234375 677.341796875 1261.871459960938 676.1361694335938 1266.472290039063 C 674.3828125 1273.1630859375 672.125 1278.582641601563 669.3855590820313 1282.692993164063 C 673.157958984375 1283.5712890625 676.9098510742188 1284.52685546875 680.6077880859375 1285.5517578125 C 689.4864501953125 1288.012817382813 697.8161010742188 1290.815673828125 705.3681030273438 1293.883544921875 C 709.2601928710938 1295.3125 712.3239135742188 1296.59716796875 714.7328491210938 1297.810302734375 C 716.8568725585938 1298.880126953125 718.5802001953125 1299.794799804688 719.9544067382813 1300.58203125 L 720.0067138671875 1300.58203125 L 721.2156982421875 1301.328247070313 C 721.35205078125 1301.412353515625 721.4765625 1301.4912109375 721.59765625 1301.568237304688 C 721.7664184570313 1301.660522460938 722.0167236328125 1301.793823242188 722.2979125976563 1301.943725585938 C 723.5924072265625 1302.633422851563 725.7589721679688 1303.787841796875 727.6244506835938 1305.001220703125 C 728.8255615234375 1305.782470703125 729.7576293945313 1306.493041992188 730.4739379882813 1307.173706054688 C 731.0750122070313 1307.744750976563 731.5446166992188 1308.312133789063 731.9095458984375 1308.908325195313 C 732.8626708984375 1310.46533203125 732.9041137695313 1311.90576171875 732.77099609375 1312.840087890625 C 732.4474487304688 1315.105102539063 730.8165283203125 1316.649536132813 729.4317626953125 1317.742309570313 C 728.14892578125 1318.754516601563 726.6582641601563 1319.676513671875 725.6337280273438 1320.271728515625 C 724.2171020507813 1321.0947265625 722.7919921875 1321.820678710938 721.5125732421875 1322.370849609375 C 719.610107421875 1323.189086914063 718.1975708007813 1323.554077148438 716.9330444335938 1323.554077148438 C 716.9324340820313 1323.554077148438 716.931884765625 1323.554077148438 716.9312133789063 1323.554077148438 C 715.4075317382813 1323.5537109375 714.3135986328125 1323.011596679688 713.6642456054688 1322.556884765625 C 712.7222900390625 1321.8974609375 711.7019653320313 1320.84716796875 709.5296020507813 1317.65380859375 C 709.5181884765625 1317.636962890625 708.822021484375 1316.60595703125 708.1940307617188 1315.638305664063 C 705.5491943359375 1314.20947265625 704.757080078125 1313.92138671875 704.6532592773438 1313.88623046875 C 704.3574829101563 1313.79541015625 704.05712890625 1313.689453125 703.7100219726563 1313.567138671875 C 701.7021484375 1312.859252929688 696.6864013671875 1311.090576171875 684.1987915039063 1310.126586914063 C 690.352294921875 1312.711059570313 696.1004638671875 1315.148193359375 700.9503784179688 1317.321533203125 C 709.8914184570313 1321.328247070313 712.6712646484375 1323.051879882813 714.0944213867188 1324.407348632813 C 715.4771118164063 1325.723876953125 716.5634155273438 1326.882202148438 717.388916015625 1327.926025390625 C 718.4695434570313 1328.1474609375 719.7940673828125 1328.457397460938 721.11376953125 1328.862915039063 C 722.8259887695313 1329.38916015625 724.2107543945313 1329.972900390625 725.3473510742188 1330.647338867188 C 728.1674194335938 1332.32080078125 729.069580078125 1334.4169921875 729.3297729492188 1335.880737304688 C 729.7451171875 1338.216064453125 728.88671875 1340.617065429688 726.7053833007813 1343.220581054688 C 725.2900390625 1344.909912109375 723.265380859375 1346.7392578125 721.1506958007813 1348.239379882813 C 717.4854125976563 1350.839599609375 715.4572143554688 1351.140258789063 714.2505493164063 1351.140258789063 C 713.33349609375 1351.140258789063 712.4685668945313 1350.940185546875 711.6796875 1350.54541015625 C 709.7847290039063 1349.5986328125 707.8812255859375 1347.552734375 706.9154663085938 1346.417602539063 C 706.1019897460938 1345.461303710938 705.4619140625 1344.589721679688 704.98193359375 1343.772705078125 C 704.167236328125 1343.376708984375 703.310302734375 1342.9033203125 702.3635864257813 1342.38037109375 C 699.6377563476563 1340.874633789063 696.2453002929688 1339.000732421875 692.205322265625 1338.135009765625 C 687.802001953125 1337.191772460938 673.5108032226563 1334.727661132813 659.6705322265625 1332.525390625 C 640.5462646484375 1329.482299804688 631.6249389648438 1328.3994140625 629.78759765625 1328.39599609375 C 629.6829223632813 1328.399536132813 629.1141357421875 1328.440185546875 627.2964477539063 1328.876708984375 C 625.8290405273438 1329.229125976563 623.9558715820313 1329.737915039063 621.786865234375 1330.3271484375 C 615.9710693359375 1331.906860351563 608.006103515625 1334.0703125 598.3181762695313 1335.8564453125 C 593.0049438476563 1336.836059570313 587.6981811523438 1337.598754882813 582.5453491210938 1338.123657226563 C 576.52294921875 1338.737182617188 570.4979858398438 1339.048217773438 564.6380004882813 1339.048217773438 C 559.2786865234375 1339.048217773438 553.9205322265625 1338.788208007813 548.686279296875 1338.274658203125 C 548.1757202148438 1338.64013671875 547.3850708007813 1339.252075195313 546.1978149414063 1340.268798828125 C 544.3981323242188 1341.809936523438 542.25634765625 1343.782348632813 539.7763061523438 1346.066040039063 C 535.384765625 1350.109985351563 529.9193115234375 1355.142944335938 524.3275756835938 1359.563110351563 C 517.5704345703125 1364.904418945313 511.8108520507813 1368.424682617188 506.7196655273438 1370.325317382813 C 496.8033447265625 1374.02734375 491.1204528808594 1376.052368164063 488.1534729003906 1377.082275390625 C 487.0668029785156 1378.56884765625 485.4276733398438 1379.20556640625 484.6433715820313 1379.51025390625 C 483.4871520996094 1379.959350585938 482.1620483398438 1380.3271484375 481.2540283203125 1380.556762695313 C 480.2041625976563 1380.822143554688 476.5593872070313 1381.688110351563 473.7375183105469 1381.688110351563 Z M 659.1990966796875 1255.119384765625 C 658.71630859375 1259.907836914063 657.9467163085938 1267.138793945313 657.0120849609375 1274.503784179688 C 657.3123779296875 1274.14990234375 657.6090087890625 1273.772583007813 657.900146484375 1273.370483398438 C 661.0090942382813 1269.076049804688 662.7282104492188 1263.045043945313 663.030029296875 1255.400268554688 C 661.65625 1255.351318359375 660.380859375 1255.257934570313 659.1990966796875 1255.119384765625 Z"/>
      <path class="cls-20" d="M 473.7374572753906 1376.688110351563 C 476.9772644042969 1376.688110351563 483.8018798828125 1374.951782226563 484.1530151367188 1374.066040039063 L 483.8559875488281 1373.18896484375 L 483.8810119628906 1373.2509765625 C 483.8810119628906 1373.2509765625 488.6640319824219 1371.72900390625 504.9710083007813 1365.640991210938 C 521.2769775390625 1359.553955078125 541.9400024414063 1335.4169921875 547.593017578125 1333.135009765625 C 553.459228515625 1333.773071289063 559.161376953125 1334.048217773438 564.637939453125 1334.048217773438 C 598.7416381835938 1334.048217773438 624.346435546875 1323.39599609375 629.7789916992188 1323.39599609375 C 636.083984375 1323.39599609375 684.1220092773438 1331.2900390625 693.2529907226563 1333.245971679688 C 700.85498046875 1334.875 706.18798828125 1339.35302734375 708.8930053710938 1339.933959960938 C 708.8800048828125 1339.97705078125 708.8579711914063 1340.030029296875 708.85498046875 1340.06298828125 C 708.75 1341.183959960938 712.2559814453125 1345.244018554688 713.9169921875 1346.073974609375 C 714.0066528320313 1346.118774414063 714.118896484375 1346.140258789063 714.2505493164063 1346.140258789063 C 716.5588989257813 1346.140258789063 724.9036865234375 1339.548706054688 724.406982421875 1336.755981445313 C 723.9169921875 1334 715.5289916992188 1332.637939453125 714.4140014648438 1332.468994140625 C 714.0800170898438 1331.746948242188 713.1500244140625 1330.411987304688 710.64599609375 1328.027954101563 C 706.0809936523438 1323.680053710938 663.9019775390625 1307.808959960938 647.3779907226563 1299.546997070313 C 647.4710083007813 1299.301025390625 647.5640258789063 1299.030029296875 647.656982421875 1298.746948242188 C 650.875 1301.943969726563 657.0889892578125 1304.410034179688 667.4329833984375 1304.484008789063 C 696.1539916992188 1304.68896484375 703.9459838867188 1308.441040039063 706.1290283203125 1309.109008789063 C 707.208984375 1309.43994140625 709.5919799804688 1310.691040039063 711.7239990234375 1311.869995117188 C 711.7260131835938 1311.8740234375 715.2919921875 1317.593017578125 716.531982421875 1318.461059570313 C 716.622314453125 1318.524291992188 716.758544921875 1318.554077148438 716.9326782226563 1318.554077148438 C 719.1499633789063 1318.5546875 727.591064453125 1313.74462890625 727.8209838867188 1312.135009765625 C 728.06298828125 1310.43603515625 720.572998046875 1306.72802734375 719.0430297851563 1305.869018554688 C 718.8980102539063 1305.776977539063 718.7529907226563 1305.683959960938 718.5880126953125 1305.58203125 L 718.5869750976563 1305.58203125 C 717.281982421875 1304.780029296875 715.3250122070313 1303.70703125 712.4840087890625 1302.276000976563 C 710.1229858398438 1301.087036132813 707.0570068359375 1299.828002929688 703.5650024414063 1298.547973632813 C 686.9569702148438 1291.7919921875 669.9929809570313 1287.77001953125 659.7630004882813 1285.72705078125 L 659.469970703125 1285.652954101563 C 671.6619873046875 1278.637939453125 673.9849853515625 1250.017944335938 673.9849853515625 1250.017944335938 L 673.9669799804688 1250.01904296875 C 677.5750122070313 1249.697021484375 680.3889770507813 1249.29296875 681.1409912109375 1249.203002929688 C 684.0187377929688 1254.757446289063 688.6844482421875 1257.677368164063 693.8082885742188 1257.677368164063 C 701.1693725585938 1257.677368164063 709.476318359375 1251.651489257813 714.7880249023438 1238.754028320313 C 719.7130126953125 1226.795043945313 713.8469848632813 1215.93701171875 708.4929809570313 1215.149047851563 C 707.6361083984375 1215.02880859375 706.7921752929688 1214.979736328125 705.986083984375 1214.979736328125 C 702.4204711914063 1214.979736328125 699.5889892578125 1215.93896484375 699.5889892578125 1215.93896484375 C 699.5889892578125 1215.93896484375 692.6099853515625 1212.067016601563 688.9749755859375 1209.3759765625 C 686.802001953125 1207.767944335938 679.5689697265625 1204.032958984375 672.5750122070313 1200.615966796875 C 673.375 1200.095947265625 694.6859741210938 1186.052001953125 682.843994140625 1173.010009765625 C 682.616455078125 1174.53076171875 680.1192626953125 1185.83349609375 670.4632568359375 1185.833862304688 C 669.7635498046875 1185.833984375 669.0267333984375 1185.774658203125 668.25 1185.64794921875 C 668.25 1185.64794921875 677.0560302734375 1177.576049804688 671.8380126953125 1172.358032226563 C 670.2571411132813 1175.039184570313 667.9219360351563 1179.922729492188 662.0484619140625 1179.922729492188 C 660.9557495117188 1179.922729492188 659.7406005859375 1179.753662109375 658.385009765625 1179.369995117188 C 651.7943115234375 1177.504638671875 642.7836303710938 1174.31103515625 634.7554321289063 1174.31103515625 C 632.2567138671875 1174.31103515625 629.8541259765625 1174.6201171875 627.6480102539063 1175.375 C 627.4630126953125 1175.43798828125 627.2860107421875 1175.495971679688 627.1060180664063 1175.553955078125 C 624.572021484375 1173.057983398438 622.4299926757813 1171.053955078125 622.4299926757813 1171.053955078125 C 622.4299926757813 1171.053955078125 621.5910034179688 1172.840942382813 620.1690063476563 1177.823974609375 C 616.0570068359375 1179.733032226563 612.9869995117188 1183.744018554688 606.8300170898438 1199.099975585938 C 604.2210083007813 1208.557983398438 599.7639770507813 1226.60400390625 588.0239868164063 1228.016967773438 C 586.93505859375 1228.24365234375 584.5015258789063 1228.716552734375 582.4386596679688 1228.716552734375 C 579.5587768554688 1228.716674804688 577.4012451171875 1227.794921875 580.6320190429688 1223.994995117188 C 577.47900390625 1223.994995117188 563.3469848632813 1241.60498046875 584.7620239257813 1250.192993164063 C 593.0239868164063 1252.041015625 600.0180053710938 1254.14404296875 600.0180053710938 1254.14404296875 L 600.0189819335938 1254.14501953125 C 599.8250122070313 1254.222045898438 599.6300048828125 1254.300048828125 599.43798828125 1254.379028320313 C 591.1490478515625 1257.775512695313 572.2142333984375 1258.341674804688 552.7341918945313 1258.341796875 C 548.8375854492188 1258.341796875 544.921630859375 1258.319091796875 541.06201171875 1258.2919921875 C 540.9603271484375 1258.291259765625 540.8587646484375 1258.290893554688 540.7576293945313 1258.290893554688 C 533.656005859375 1258.290893554688 527.9492797851563 1260.0517578125 523.4719848632813 1263.051025390625 C 523.4719848632813 1263.051025390625 518.2593994140625 1251.994995117188 504.865478515625 1251.994995117188 C 500.5091857910156 1251.994995117188 495.288818359375 1253.163818359375 489.0990295410156 1256.262939453125 C 480.8370056152344 1263.051025390625 483.8810119628906 1275.630981445313 487.3599853515625 1292.155029296875 C 490.8389892578125 1308.677978515625 489.8599853515625 1309.983032226563 488.9630126953125 1311.1240234375 C 488.4945983886719 1311.720947265625 486.8374633789063 1312.473754882813 485.50439453125 1312.473876953125 C 484.2874450683594 1312.473876953125 483.340576171875 1311.8466796875 483.8140258789063 1309.901000976563 C 484.0129699707031 1309.082763671875 483.8965759277344 1308.74462890625 483.6177978515625 1308.74462890625 C 482.5077514648438 1308.74462890625 478.8215637207031 1314.102661132813 482.1960144042969 1315.85302734375 C 483.3900146484375 1316.472045898438 485.1330261230469 1317.015991210938 487.1120300292969 1317.39794921875 C 483.1540222167969 1321.120971679688 471.614013671875 1330.9189453125 468.4110107421875 1333.630981445313 C 468.1625671386719 1333.326782226563 467.9006958007813 1333.135986328125 467.623779296875 1333.135986328125 C 467.6075744628906 1333.135986328125 467.5913391113281 1333.136596679688 467.5750122070313 1333.137939453125 C 465.5640258789063 1333.301025390625 460.0199890136719 1332.974975585938 458.5520324707031 1334.442016601563 C 457.1087951660156 1335.88623046875 460.5569152832031 1347.400512695313 461.9116821289063 1347.400512695313 C 461.9340515136719 1347.400512695313 461.9557800292969 1347.397338867188 461.9769897460938 1347.390991210938 C 463.281005859375 1346.998046875 471.0790100097656 1343.363037109375 470.8920288085938 1342.198974609375 C 472.2900085449219 1341.8330078125 475.7340087890625 1340.722045898438 484.0990295410156 1337.375 C 497.1440124511719 1332.154052734375 515.7769775390625 1316.015991210938 515.7769775390625 1316.015991210938 L 515.7769775390625 1316.015014648438 C 517.8179931640625 1319.178955078125 519.4829711914063 1320.676025390625 518.885009765625 1321.723022460938 C 517.5809936523438 1324.005981445313 516.7109985351563 1329.984985351563 508.884033203125 1340.85595703125 C 500.9310302734375 1348.808959960938 484.0780334472656 1363.118041992188 481.2529602050781 1365.508056640625 L 480.8370056152344 1364.281982421875 C 480.8370056152344 1364.281982421875 477.3102416992188 1364.064697265625 474.3310852050781 1364.064697265625 C 472.8412475585938 1364.064697265625 471.48876953125 1364.118896484375 470.7820129394531 1364.281982421875 C 468.6619873046875 1364.77197265625 470.4560241699219 1375.697021484375 472.4130249023438 1376.511962890625 C 472.7062072753906 1376.634155273438 473.1661682128906 1376.688110351563 473.7374572753906 1376.688110351563 M 510.0799865722656 1295.796020507813 C 510.0979614257813 1296.322021484375 510.1250305175781 1296.8330078125 510.156005859375 1297.337036132813 L 510.1539611816406 1297.338012695313 C 510.0870056152344 1297.390014648438 509.9630126953125 1297.489990234375 509.8100280761719 1297.614990234375 C 509.9910278320313 1296.702026367188 510.0849609375 1296.051025390625 510.0799865722656 1295.796020507813 M 654.77099609375 1248.984008789063 C 657.3916625976563 1250.082763671875 661.3387451171875 1250.440673828125 665.3944702148438 1250.440673828125 C 666.2740478515625 1250.440673828125 667.1586303710938 1250.423828125 668.0360107421875 1250.39404296875 C 668.8820190429688 1276.057983398438 656.5819702148438 1282.558959960938 651.1740112304688 1284.175048828125 C 650.9630126953125 1284.140991210938 650.7849731445313 1284.114013671875 650.6380004882813 1284.092041015625 C 652.9760131835938 1268.776000976563 654.77099609375 1248.984008789063 654.77099609375 1248.984008789063 M 473.7374877929688 1386.688110351563 C 471.7846984863281 1386.688110351563 470.0932006835938 1386.378784179688 468.5662536621094 1385.742431640625 C 458.979736328125 1381.750366210938 459.8843383789063 1365.66064453125 459.8978271484375 1365.5 C 460.2112121582031 1361.765991210938 461.6590270996094 1359.075439453125 463.5347900390625 1357.2685546875 C 462.9933776855469 1357.355224609375 462.443603515625 1357.400512695313 461.9117126464844 1357.400512695313 C 457.1130676269531 1357.400512695313 453.5039367675781 1354.562622070313 451.1844787597656 1348.965576171875 C 448.3383483886719 1342.097534179688 446.0790100097656 1332.776489257813 451.4786071777344 1327.373291015625 C 455.3720397949219 1323.482299804688 461.013916015625 1323.286865234375 465.2378845214844 1323.207763671875 C 467.0686645507813 1321.650024414063 469.3143310546875 1319.732421875 471.5469970703125 1317.808349609375 C 470.718017578125 1315.45751953125 470.571044921875 1312.817016601563 471.2213745117188 1310.15087890625 C 472.0505676269531 1306.751586914063 474.5871276855469 1302.122924804688 478.7180480957031 1299.956420898438 C 478.4224548339844 1298.360595703125 478.0481567382813 1296.46484375 477.5745239257813 1294.21533203125 L 477.1814270019531 1292.353515625 C 473.5457458496094 1275.160278320313 470.1117553710938 1258.920654296875 482.7508239746094 1248.536376953125 C 483.3272399902344 1248.062744140625 483.954833984375 1247.655151367188 484.6219177246094 1247.321166992188 C 491.6806030273438 1243.786987304688 498.4915161132813 1241.994873046875 504.865478515625 1241.994873046875 C 514.4736938476563 1241.994873046875 521.6294555664063 1246.009399414063 526.3932495117188 1250.550048828125 C 530.774169921875 1249.047973632813 535.5765380859375 1248.290893554688 540.7576293945313 1248.290893554688 L 552.734130859375 1248.341796875 C 555.706298828125 1248.341796875 560.76025390625 1248.341796875 566.4349975585938 1248.212280273438 C 562.39208984375 1241.70654296875 563.05029296875 1235.1201171875 563.5650024414063 1232.453979492188 C 565.0588989257813 1224.715209960938 571.821044921875 1213.994995117188 580.6320190429688 1213.994995117188 C 583.5153198242188 1213.994995117188 586.204345703125 1215.234375 588.0709838867188 1217.3115234375 C 591.114013671875 1214.997192382813 593.9063110351563 1208.435791015625 596.8564453125 1197.656616210938 L 597.1900634765625 1196.440795898438 C 597.2894897460938 1196.080200195313 597.4091186523438 1195.7255859375 597.5482788085938 1195.37841796875 C 602.4198608398438 1183.228515625 606.1568603515625 1175.7890625 611.66845703125 1171.39892578125 C 612.5735473632813 1168.604736328125 613.1752319335938 1167.235961914063 613.3779907226563 1166.80419921875 C 614.737548828125 1163.908325195313 617.4009399414063 1161.838012695313 620.5425415039063 1161.234130859375 C 621.1702880859375 1161.113525390625 621.8024291992188 1161.05419921875 622.43017578125 1161.05419921875 C 624.9437866210938 1161.05419921875 627.392333984375 1162.002807617188 629.2618408203125 1163.75146484375 C 629.2618408203125 1163.75146484375 629.5977783203125 1164.065795898438 630.1632080078125 1164.602294921875 C 631.6590576171875 1164.405517578125 633.1829833984375 1164.31103515625 634.7554321289063 1164.31103515625 C 642.860595703125 1164.31103515625 651.0541381835938 1166.759887695313 657.6377563476563 1168.727661132813 L 661.1084594726563 1169.748046875 C 661.142822265625 1169.756103515625 661.1774291992188 1169.760009765625 661.212158203125 1169.760009765625 C 661.7929077148438 1169.760009765625 662.4190673828125 1168.671752929688 662.8018798828125 1168.00634765625 C 664.3536376953125 1165.309326171875 667.2565307617188 1163.170654296875 670.3411865234375 1162.76220703125 C 670.87939453125 1162.69091796875 671.4242553710938 1162.654296875 671.9678344726563 1162.654296875 C 674.094482421875 1162.654296875 676.2088012695313 1163.212646484375 677.9042358398438 1164.433349609375 C 678.5845336914063 1164.041748046875 679.3153076171875 1163.729248046875 680.08544921875 1163.509887695313 C 681.0298461914063 1163.240966796875 681.9940795898438 1163.108520507813 682.9486083984375 1163.108520507813 C 685.6895141601563 1163.108520507813 688.3519897460938 1164.200317382813 690.2474365234375 1166.287719726563 C 695.009033203125 1171.531860351563 697.0800170898438 1177.751831054688 696.2365112304688 1184.275390625 C 695.5442504882813 1189.629516601563 692.9315185546875 1194.37060546875 689.8699951171875 1198.246459960938 C 692.1904907226563 1199.5322265625 693.8794555664063 1200.56494140625 694.923583984375 1201.337646484375 C 696.474853515625 1202.486083984375 699.0624389648438 1204.0732421875 701.2201538085938 1205.344604492188 C 702.61572265625 1205.134033203125 704.2352294921875 1204.979736328125 705.986083984375 1204.979736328125 C 707.239013671875 1204.979736328125 708.5507202148438 1205.059204101563 709.882568359375 1205.24609375 C 715.0924682617188 1206.012573242188 719.8238525390625 1209.579711914063 722.9298706054688 1215.04248046875 C 727.4467163085938 1222.986206054688 727.8596801757813 1233.27392578125 724.0346069335938 1242.56201171875 C 717.557861328125 1258.288452148438 706.25830078125 1267.67724609375 693.8082275390625 1267.67724609375 C 689.50390625 1267.67724609375 685.4144287109375 1266.488647460938 681.8263549804688 1264.296020507813 C 680.732177734375 1269.175415039063 679.1130981445313 1274.478149414063 676.8297729492188 1279.360961914063 C 686.0835571289063 1281.736938476563 696.7489624023438 1284.9794921875 707.3331298828125 1289.285034179688 C 710.9144897460938 1290.59130859375 714.3396606445313 1292.014038085938 716.9818115234375 1293.344604492188 C 720.1691284179688 1294.950073242188 722.359130859375 1296.162719726563 723.8228149414063 1297.062255859375 C 731.0065307617188 1300.91845703125 738.9190673828125 1305.134399414063 737.7210693359375 1313.545166015625 C 736.9807739257813 1318.727783203125 731.6853637695313 1322.941162109375 726.4560546875 1325.569946289063 C 730.9478759765625 1327.756225585938 733.5197143554688 1330.883178710938 734.2526245117188 1335.005615234375 C 734.9332885742188 1338.832763671875 733.68359375 1342.67724609375 730.5380249023438 1346.431640625 C 730.4567260742188 1346.52880859375 722.310546875 1356.140258789063 714.2505493164063 1356.140258789063 C 712.6980590820313 1356.140258789063 710.8334350585938 1355.712524414063 709.4448852539063 1355.018188476563 C 707.9146118164063 1354.253662109375 704.1210327148438 1351.430053710938 701.5162353515625 1347.613891601563 C 700.9959716796875 1347.337036132813 700.474365234375 1347.048950195313 699.946044921875 1346.757080078125 C 697.3815307617188 1345.340454101563 694.4747924804688 1343.73486328125 691.1575927734375 1343.02392578125 C 681.7205810546875 1341.00244140625 635.464111328125 1333.488159179688 629.7579956054688 1333.395874023438 C 628.757568359375 1333.544067382813 626.3572998046875 1334.266845703125 623.0975341796875 1335.15234375 C 611.65185546875 1338.26123046875 590.3470458984375 1344.048217773438 564.6380004882813 1344.048217773438 C 559.7657470703125 1344.048217773438 554.89306640625 1343.839477539063 550.1068725585938 1343.426635742188 C 548.4519653320313 1344.8740234375 545.588623046875 1347.5107421875 543.1632690429688 1349.744262695313 C 533.6727294921875 1358.483642578125 520.6749877929688 1370.452758789063 508.4682922363281 1375.009521484375 C 499.6456604003906 1378.303344726563 494.123046875 1380.28759765625 490.8792724609375 1381.425659179688 C 485.25537109375 1386.616821289063 474.2895812988281 1386.688110351563 473.7374877929688 1386.688110351563 Z M 474.3311157226563 1354.064697265625 C 475.96484375 1354.064697265625 477.7491760253906 1354.123901367188 479.1229858398438 1354.18310546875 C 481.4910278320313 1352.152099609375 484.5638122558594 1349.497802734375 487.7727355957031 1346.675903320313 C 482.9702758789063 1348.596923828125 479.2553405761719 1349.999877929688 476.5429077148438 1350.915283203125 C 475.1005249023438 1352.1884765625 473.4464111328125 1353.251342773438 471.8140563964844 1354.1220703125 C 472.5561828613281 1354.0830078125 473.3858337402344 1354.064697265625 474.3311157226563 1354.064697265625 Z"/>
    </g>
    <path id="路径_3770" data-name="路径 3770" class="cls-2" d="M515.777,1316.016s-18.633,16.138-31.678,21.359-14.132,5-14.132,5l-2.392-8.04s20.22-17.072,20.872-18.322,20.368-17.626,21.707-18.678S521.583,1300.743,515.777,1316.016Z"/>
    <path id="路径_3771" data-name="路径 3771" class="cls-3" d="M523.472,1263.051s-9.152-19.416-34.373-6.788c-8.262,6.788-5.218,19.368-1.739,35.892s2.5,17.828,1.6,18.969-6.141,2.854-5.149-1.223-5.84,3.762-1.618,5.952,15.181,3.506,19.943-.326,7.972-18.263,7.941-19.731S525.041,1265.55,523.472,1263.051Z"/>
    <path id="路径_3772" data-name="路径 3772" class="cls-2" d="M652.853,1284.018s44.412,10.6,59.631,18.258,5.089,5.108,5.089,5.108l-1.763,6.817s-7.5-4.423-9.681-5.092-9.975-4.42-38.7-4.625S641.7,1285.66,652.853,1284.018Z"/>
    <path id="路径_3773" data-name="路径 3773" class="cls-3" d="M672.537,1200.641s22.374-14.341,10.307-27.631c-.244,1.631-3.1,14.513-14.594,12.638,0,0,8.806-8.072,3.588-13.29-1.875,3.18-4.811,9.458-13.453,7.012s-21.443-7.175-30.737-3.995-11.578.679-20.818,23.725c-2.609,9.458-7.066,27.5-18.806,28.917-2.609.543-12.937,2.5-7.392-4.022-3.153,0-17.285,17.61,4.13,26.2,8.262,1.848,15.256,3.951,15.256,3.951s19.857,11.051,30.619-17.322S670.739,1199.79,672.537,1200.641Z"/>
    <path id="路径_3774" data-name="路径 3774" class="cls-4" d="M673.985,1250.018s-2.682,33.156-17.466,36.852c-8.7.87-7.719-.272-7.827-.489a8.62,8.62,0,0,1,0-1.685s20.426-1.476,19.344-34.3Z"/>
    <path id="路径_3775" data-name="路径 3775" class="cls-5" d="M654.771,1248.984s-3.7,40.779-7.393,50.563c16.524,8.262,58.7,24.133,63.269,28.481s3.913,5.218,3.913,5.218-2.392,5-4.348,6.523-7.827-4.566-16.959-6.523-57.169-9.85-63.474-9.85-39.79,14.35-82.186,9.739c-5.653,2.282-26.316,26.419-42.622,32.506s-21.09,7.61-21.09,7.61l-3.044-7.392s19.351-16.306,28.047-25c7.827-10.871,8.7-16.85,10-19.133s-8.153-6.685-8.805-25.927,7.827-37.667,30.982-37.5,48.429.163,58.376-3.913,23.97-7.175,26.09-27.069,1.141-20.383,1.141-20.383-12.718-5.87-7.663-24.785c2.119-8.316,3.424-11.088,3.424-11.088s10.11,9.457,12.393,12.882,3.1,10.11,2.935,12.719,15.491-4.729,21.035-2.446,26.23,12.242,30.182,15.167c3.635,2.691,10.614,6.563,10.614,6.563a21.694,21.694,0,0,1,8.9-.79c5.354.789,11.22,11.646,6.3,23.6-9.009,21.875-26.635,23.983-33.647,10.449C679.1,1249.447,661.954,1251.995,654.771,1248.984Z"/>
    <path id="路径_3776" data-name="路径 3776" class="cls-6" d="M484.153,1374.066l-3.316-9.783s-7.935-.49-10.055,0-.326,11.414,1.631,12.229S483.74,1375.108,484.153,1374.066Z"/>
    <path id="路径_3777" data-name="路径 3777" class="cls-6" d="M470.892,1342.2s-1.306-9.224-3.317-9.061-7.555-.163-9.023,1.3,2.12,13.341,3.425,12.949S471.079,1343.363,470.892,1342.2Z"/>
    <path id="路径_3778" data-name="路径 3778" class="cls-6" d="M714.286,1332.45s-5.326,6.492-5.431,7.613,3.4,5.181,5.062,6.011,11.015-6.366,10.49-9.318S714.286,1332.45,714.286,1332.45Z"/>
    <path id="路径_3779" data-name="路径 3779" class="cls-6" d="M718.933,1305.808l-7.21,6.062s3.569,5.723,4.809,6.591,11.041-4.59,11.289-6.326S720.217,1306.552,718.933,1305.808Z"/>
    <path id="路径_3780" data-name="路径 3780" class="cls-7" d="M698.7,1256.534c-2.375.953-10.222,4.137-17.56-7.331-5.544,0-7.156.815-7.156.815s-13.57,1.193-19.214-1.034c-6.46-.977-16.95-5-17.059-5.325s-1.2-.87-.543-1.577c.924,0,20.482,5.6,26.357,5.762s16.59-.588,17.072-.652c.665-.089,3.071-1.087,4.294.869,1.19,1.9,4.65,9.266,13.8,8.4A.039.039,0,0,1,698.7,1256.534Z"/>
    <path id="路径_3781" data-name="路径 3781" class="cls-8" d="M699.589,1215.939s14.951-5.4,16.474,8.755-2.874,20.255-9.93,27.4c-3.739,4.173-6.517,4.427-7.424,4.719,0,0-12.078,2.232-13.056-12.118a44.047,44.047,0,0,1,13.936-28.752"/>
    <ellipse id="椭圆_616" data-name="椭圆 616" class="cls-6" cx="5.015" cy="4.573" rx="5.015" ry="4.573" transform="translate(660.871 1206.093)"/>
    <ellipse id="椭圆_617" data-name="椭圆 617" class="cls-9" cx="2.152" cy="2.36" rx="2.152" ry="2.36" transform="matrix(0.622, -0.783, 0.783, 0.622, 660.339, 1212.285)"/>
    <ellipse id="椭圆_618" data-name="椭圆 618" class="cls-6" cx="3.889" cy="3.249" rx="3.889" ry="3.249" transform="translate(708.051 1237.605) rotate(-69.178)"/>
    <path id="路径_3782" data-name="路径 3782" class="cls-10" d="M698.167,1217.306s-21.1-12.415-25.534-15.718c-.441-.328-.736-.823-.424-1.275.038-.055-1.183.857-1.157.848.493-.192-.49-2.915,8.932,3.08,12.437,6.168,18.77,8.764,19.6,11.7A2.945,2.945,0,0,1,698.167,1217.306Z"/>
    <path id="路径_3783" data-name="路径 3783" class="cls-4" d="M699.589,1215.939s-8.5-5.056-18.448,33.264c-2.446,2.283-7.137,1.63-7.156.815s8.757-37.909,20.859-37.951C699.934,1213.655,699.61,1214.472,699.589,1215.939Z"/>
    <path id="路径_3784" data-name="路径 3784" class="cls-4" d="M679.608,1231.42s-49.036.527-53.347-11.527a9.34,9.34,0,0,0-1.322,7.188c0,.543,17.717,13.414,53.157,8.555A5.714,5.714,0,0,0,679.608,1231.42Z"/>
    <path id="路径_3785" data-name="路径 3785" class="cls-4" d="M599.438,1254.379"/>
    <path id="路径_3786" data-name="路径 3786" class="cls-4" d="M599.438,1254.379s-28.681,3.337-43.366,3.289c-5.216,0-13.371,44.84-4.565,49.386s50.549,6.644,57.724-9.092S599.438,1254.379,599.438,1254.379Z"/>
    <path id="路径_3787" data-name="路径 3787" class="cls-11" d="M592.483,1266.543s-20.347,2.68-30.648,2.65c-3.659,0-9.151,27.4-2.974,30.242s35.459,4.15,40.492-5.677S592.483,1266.543,592.483,1266.543Z"/>
    <path id="路径_3788" data-name="路径 3788" class="cls-7" d="M709.99,1338.046s-9.662-6.225-16.184-6.877c-8.914-1.658-51.419-12.121-62.29-11.469s-10.871,2.826-22.611,5.435-43.7,7.881-59.138,3.723c-9.131,1.93-23.263,22.367-40.657,29.542-17.828,8.479-22.387,10.908-26.412,11.977a6.149,6.149,0,0,0,1.183,2.874s27.059-8.763,29.976-12.269c3.706-1.794,16.875-13.509,23.016-19.039,5.973-5.386,10.72-8.808,10.72-8.808s27.034,5.5,69.366-6.684c11.808-2.97,12.82-3.055,12.82-3.055s52.817,7.793,58.146,8.822,7.894,1.4,15.883,5.256C708.046,1340.518,708.836,1341.608,709.99,1338.046Z"/>
    <path id="路径_3789" data-name="路径 3789" class="cls-12" d="M718.588,1305.582s-2.083,2.268-2.721,2.8-.89-4.72-27.388-11.977-37.9-9.119-38.332-9.217,0-3.174,0-3.174S688.908,1289.508,718.588,1305.582Z"/>
    <path id="路径_3790" data-name="路径 3790" class="cls-13" d="M515.995,1315.549s-2.354-3.911-2.525-4.325-19.152,22.134-42.248,28.33c-1.736,3,0,2.823,0,2.823A99.787,99.787,0,0,0,515.995,1315.549Z"/>
    <path id="路径_3791" data-name="路径 3791" class="cls-14" d="M624.217,1180.336s8.712,5.87,9.147,11.958-3.585,8.017-6.3,7.936C623.985,1200.138,619.636,1186.641,624.217,1180.336Z"/>
    <path id="路径_3792" data-name="路径 3792" class="cls-15" d="M671.838,1172.358s1.465,5.913-3.992,8.3-11.871.435-15.349-.978-22.073-4.245-23.864-2.612l-1.525-1.516s7.1-3.046,19.19.384c4.179,1.108,13,3.662,13.169,3.7S667.263,1182.1,671.838,1172.358Z"/>
    <path id="路径_3793" data-name="路径 3793" class="cls-15" d="M682.844,1173.01a8.3,8.3,0,0,1,0,6.619c-1.594,3.262-5.548,8.588-10.828,7.827s-3.766-1.808-3.766-1.808S678.9,1188.731,682.844,1173.01Z"/>
    <path id="路径_3794" data-name="路径 3794" class="cls-16" d="M580.632,1223.995s-7.457.779-7.448,13.809,24.633,15.9,26.834,16.34l5.531-2.149s-26.43-2.629-27.952-9.913C575.64,1239.069,573.774,1232.975,580.632,1223.995Z"/>
    <path id="路径_3795" data-name="路径 3795" class="cls-16" d="M510.08,1295.8l.135-6.433s-4.311,19.684-8.66,23.217-14.784,3.152-17.013,2.174-.6-5.513-.637-5.671.024-.753-.852-.068-4.879,6.312.8,7.535c5.173,1.547,12.505,2.585,17.739-.625S510.37,1296.841,510.08,1295.8Z"/>
    <ellipse id="椭圆_619" data-name="椭圆 619" class="cls-17" cx="1.879" cy="2.645" rx="1.879" ry="2.645" transform="translate(719.103 1310.325) rotate(-64.665)"/>
    <ellipse id="椭圆_620" data-name="椭圆 620" class="cls-17" cx="1.879" cy="2.645" rx="1.879" ry="2.645" transform="translate(716.58 1336.154) rotate(-64.665)"/>
    <ellipse id="椭圆_621" data-name="椭圆 621" class="cls-18" cx="2.645" cy="1.879" rx="2.645" ry="1.879" transform="matrix(0.964, -0.265, 0.265, 0.964, 474.63, 1372.914)"/>
    <ellipse id="椭圆_622" data-name="椭圆 622" class="cls-18" cx="2.645" cy="1.879" rx="2.645" ry="1.879" transform="matrix(0.909, -0.416, 0.416, 0.909, 461.788, 1342.572)"/>
  </g>
</svg>
