<svg xmlns="http://www.w3.org/2000/svg" width="224.684" height="171.363" viewBox="0 0 224.684 171.363">
  <defs>
    <style>
      .cls-1 {
        fill: #e2e2e2;
      }

      .cls-2 {
        fill: #353535;
      }

      .cls-3 {
        fill: #513c25;
      }

      .cls-4 {
        fill: #f7f7f7;
      }

      .cls-5 {
        fill: #2d2d2d;
      }

      .cls-6 {
        fill: #fff9f8;
      }

      .cls-7 {
        fill: #3f2f1c;
      }

      .cls-8 {
        fill: #fefefe;
      }

      .cls-9 {
        fill: #fff;
      }

      .cls-10 {
        fill: #89512a;
      }

      .cls-11 {
        fill: #ededed;
      }

      .cls-12 {
        fill: #cecece;
      }

      .cls-13 {
        fill: #935525;
      }

      .cls-14 {
        fill: #444;
      }

      .cls-15 {
        fill: #1e1e1e;
      }

      .cls-16 {
        fill: #3f3f3f;
      }
    </style>
  </defs>
  <g id="组_1143" data-name="组 1143" transform="translate(-971.145 -236.003)">
    <path id="路径_2058" data-name="路径 2058" class="cls-1" d="M1019.121,356.8s-15.528,13.449-26.4,17.8-11.777,4.169-11.777,4.169l-1.993-6.7s16.85-14.226,17.393-15.268,16.973-14.688,18.089-15.565S1023.959,344.077,1019.121,356.8Z"/>
    <path id="路径_2059" data-name="路径 2059" class="cls-2" d="M1025.534,312.668s-7.627-16.18-28.644-5.657c-6.885,5.657-4.349,16.14-1.45,29.91s2.084,14.857,1.336,15.808-5.118,2.378-4.291-1.019-4.866,3.135-1.348,4.959,12.651,2.922,16.619-.271,6.643-15.22,6.618-16.442S1026.842,314.75,1025.534,312.668Z"/>
    <path id="路径_2060" data-name="路径 2060" class="cls-1" d="M1133.351,330.141s37.01,8.83,49.693,15.214,4.24,4.257,4.24,4.257l-1.468,5.68s-6.25-3.685-8.069-4.242-8.312-3.684-32.246-3.855S1124.056,331.508,1133.351,330.141Z"/>
    <path id="路径_2061" data-name="路径 2061" class="cls-2" d="M1149.754,260.659s18.645-11.95,8.59-23.025c-.2,1.359-2.582,12.094-12.162,10.531,0,0,7.338-6.726,2.99-11.074-1.563,2.649-4.009,7.881-11.211,5.843s-17.869-5.979-25.614-3.33-9.648.567-17.348,19.772c-2.174,7.881-5.889,22.919-15.672,24.1-2.174.453-10.781,2.083-6.16-3.352-2.628,0-14.4,14.675,3.442,21.832,6.885,1.54,12.713,3.292,12.713,3.292s16.548,9.209,25.516-14.435S1148.256,259.95,1149.754,260.659Z"/>
    <path id="路径_2062" data-name="路径 2062" class="cls-3" d="M1150.961,301.807s-2.235,27.63-14.555,30.71c-7.247.725-6.432-.226-6.523-.408a7.243,7.243,0,0,1,0-1.4s17.022-1.23,16.121-28.585Z"/>
    <path id="路径_2063" data-name="路径 2063" class="cls-4" d="M1134.949,300.945s-3.08,33.983-6.16,42.136c13.77,6.885,48.919,20.111,52.723,23.735s3.262,4.348,3.262,4.348-1.993,4.167-3.624,5.435-6.522-3.8-14.132-5.435-47.641-8.209-52.895-8.209-33.158,11.958-68.488,8.117c-4.711,1.9-21.931,22.015-35.519,27.088s-17.575,6.341-17.575,6.341l-2.536-6.16s16.125-13.589,23.372-20.836c6.523-9.059,7.247-14.041,8.334-15.944s-6.794-5.571-7.337-21.605,6.522-31.39,25.818-31.254,40.358.136,48.647-3.261,19.975-5.979,21.741-22.557.952-16.986.952-16.986-10.6-4.892-6.387-20.654A60.623,60.623,0,0,1,1108,236s8.425,7.882,10.328,10.735,2.582,8.425,2.446,10.6,12.909-3.94,17.529-2.038,21.859,10.2,25.152,12.64c3.029,2.242,8.845,5.469,8.845,5.469a18.068,18.068,0,0,1,7.42-.658c4.461.657,9.35,9.7,5.246,19.67-7.508,18.23-22.2,19.986-28.039,8.708C1155.226,301.331,1140.935,303.454,1134.949,300.945Z"/>
    <path id="路径_2064" data-name="路径 2064" class="cls-5" d="M992.768,405.18l-2.763-8.153s-6.613-.407-8.38,0-.272,9.512,1.359,10.192S992.423,406.048,992.768,405.18Z"/>
    <path id="路径_2065" data-name="路径 2065" class="cls-5" d="M981.717,378.625s-1.088-7.688-2.764-7.552-6.3-.136-7.519,1.087,1.766,11.118,2.853,10.791S981.873,379.6,981.717,378.625Z"/>
    <path id="路径_2066" data-name="路径 2066" class="cls-5" d="M1184.545,370.5s-4.438,5.41-4.525,6.345,2.834,4.317,4.218,5.009,9.179-5.3,8.741-7.766S1184.545,370.5,1184.545,370.5Z"/>
    <path id="路径_2067" data-name="路径 2067" class="cls-5" d="M1188.418,348.3l-6.008,5.051s2.973,4.769,4.007,5.493,9.2-3.825,9.407-5.272S1189.488,348.919,1188.418,348.3Z"/>
    <path id="路径_2068" data-name="路径 2068" class="cls-1" d="M1171.558,307.237c-1.979.794-8.519,3.448-14.633-6.109-4.621,0-5.964.679-5.964.679s-11.309.994-16.012-.862c-5.383-.814-14.125-4.166-14.215-4.438s-1-.724-.453-1.313c.77,0,17.068,4.665,21.964,4.8s13.825-.49,14.227-.543c.554-.074,2.559-.906,3.578.724.992,1.588,3.876,7.722,11.5,7C1171.587,307.17,1171.595,307.222,1171.558,307.237Z"/>
    <path id="路径_2069" data-name="路径 2069" class="cls-6" d="M1172.3,273.408s12.459-4.5,13.728,7.3-2.4,16.879-8.275,22.83c-3.116,3.477-5.431,3.689-6.186,3.932,0,0-10.066,1.86-10.881-10.1a36.709,36.709,0,0,1,11.614-23.96"/>
    <ellipse id="椭圆_221" data-name="椭圆 221" class="cls-7" cx="4.179" cy="3.81" rx="4.179" ry="3.81" transform="translate(1140.032 265.203)"/>
    <ellipse id="椭圆_222" data-name="椭圆 222" class="cls-8" cx="1.793" cy="1.967" rx="1.793" ry="1.967" transform="matrix(0.622, -0.783, 0.783, 0.622, 1139.59, 270.363)"/>
    <ellipse id="椭圆_223" data-name="椭圆 223" class="cls-7" cx="3.241" cy="2.708" rx="3.241" ry="2.708" transform="translate(1179.35 291.463) rotate(-69.178)"/>
    <path id="路径_2070" data-name="路径 2070" class="cls-9" d="M1171.113,274.547s-17.586-10.346-21.279-13.1c-.367-.274-.613-.686-.353-1.063.032-.045-.985.715-.964.706.411-.159-.408-2.429,7.443,2.567,10.364,5.141,15.642,7.3,16.338,9.749A2.456,2.456,0,0,1,1171.113,274.547Z"/>
    <path id="路径_2071" data-name="路径 2071" class="cls-3" d="M1172.3,273.408s-7.084-4.213-15.373,27.72c-2.039,1.9-5.948,1.358-5.964.679s7.3-31.591,17.383-31.626C1172.586,271.505,1172.316,272.185,1172.3,273.408Z"/>
    <path id="路径_2072" data-name="路径 2072" class="cls-3" d="M1155.647,286.309s-40.863.438-44.456-9.606a7.784,7.784,0,0,0-1.1,5.989c0,.453,14.765,11.179,44.3,7.13A4.762,4.762,0,0,0,1155.647,286.309Z"/>
    <path id="路径_2073" data-name="路径 2073" class="cls-3" d="M1088.839,305.441"/>
    <path id="路径_2074" data-name="路径 2074" class="cls-3" d="M1088.839,305.441s-23.9,2.781-36.138,2.741c-4.347,0-11.143,37.367-3.805,41.155s42.124,5.537,48.1-7.577S1088.839,305.441,1088.839,305.441Z"/>
    <path id="路径_2075" data-name="路径 2075" class="cls-10" d="M1083.043,315.578s-16.956,2.233-25.54,2.208c-3.05,0-7.626,22.837-2.479,25.2s29.549,3.458,33.743-4.731S1083.043,315.578,1083.043,315.578Z"/>
    <path id="路径_2076" data-name="路径 2076" class="cls-1" d="M1180.965,375.164s-8.051-5.188-13.487-5.731c-7.428-1.382-42.849-10.1-51.908-9.558s-9.059,2.356-18.843,4.53-36.417,6.567-49.281,3.1c-7.609,1.608-19.386,18.639-33.88,24.618-14.857,7.066-18.656,9.091-22.011,9.981a5.123,5.123,0,0,0,.986,2.4s22.55-7.3,24.98-10.224c3.089-1.495,14.062-11.258,19.18-15.866,4.978-4.488,8.934-7.339,8.934-7.339s22.528,4.584,57.8-5.571c9.841-2.475,10.684-2.546,10.684-2.546s44.014,6.5,48.455,7.352a41.3,41.3,0,0,1,13.235,4.38C1179.346,377.223,1180,378.132,1180.965,375.164Z"/>
    <path id="路径_2077" data-name="路径 2077" class="cls-11" d="M1188.13,348.111s-1.736,1.889-2.268,2.336-.741-3.934-22.823-9.981-31.582-7.6-31.943-7.68,0-2.645,0-2.645S1163.4,334.715,1188.13,348.111Z"/>
    <path id="路径_2078" data-name="路径 2078" class="cls-12" d="M1019.3,356.416s-1.962-3.259-2.1-3.6-15.959,18.445-35.206,23.608c-1.446,2.5,0,2.353,0,2.353A83.159,83.159,0,0,0,1019.3,356.416Z"/>
    <path id="路径_2079" data-name="路径 2079" class="cls-13" d="M1109.488,243.739s7.26,4.892,7.622,9.965-2.987,6.68-5.254,6.613C1109.3,260.24,1105.67,248.993,1109.488,243.739Z"/>
    <path id="路径_2080" data-name="路径 2080" class="cls-14" d="M1149.172,237.091s1.22,4.927-3.327,6.919-9.892.363-12.791-.815-18.394-3.537-19.886-2.176l-1.271-1.264s5.919-2.538,15.992.32c3.482.923,10.83,3.052,10.974,3.081S1145.36,245.208,1149.172,237.091Z"/>
    <path id="路径_2081" data-name="路径 2081" class="cls-14" d="M1158.344,237.634a6.914,6.914,0,0,1,0,5.516c-1.329,2.718-4.624,7.157-9.023,6.522s-3.139-1.507-3.139-1.507S1155.053,250.734,1158.344,237.634Z"/>
    <path id="路径_2082" data-name="路径 2082" class="cls-15" d="M1073.167,280.121s-6.214.649-6.206,11.507,20.527,13.251,22.361,13.617l4.609-1.791s-22.025-2.191-23.294-8.26C1069.007,292.683,1067.452,287.605,1073.167,280.121Z"/>
    <path id="路径_2083" data-name="路径 2083" class="cls-15" d="M1014.374,339.956l.112-5.361s-3.593,16.4-7.216,19.347-12.321,2.627-14.178,1.811-.5-4.594-.531-4.725.02-.628-.71-.057-4.065,5.26.668,6.279c4.31,1.289,10.421,2.155,14.782-.52S1014.615,340.826,1014.374,339.956Z"/>
    <ellipse id="椭圆_224" data-name="椭圆 224" class="cls-16" cx="1.566" cy="2.205" rx="1.566" ry="2.205" transform="translate(1188.56 352.063) rotate(-64.665)"/>
    <ellipse id="椭圆_225" data-name="椭圆 225" class="cls-16" cx="1.566" cy="2.205" rx="1.566" ry="2.205" transform="translate(1186.457 373.587) rotate(-64.665)"/>
    <ellipse id="椭圆_226" data-name="椭圆 226" class="cls-15" cx="2.205" cy="1.566" rx="2.205" ry="1.566" transform="matrix(0.964, -0.265, 0.265, 0.964, 984.832, 404.221)"/>
    <ellipse id="椭圆_227" data-name="椭圆 227" class="cls-15" cx="2.205" cy="1.566" rx="2.205" ry="1.566" transform="matrix(0.909, -0.416, 0.416, 0.909, 974.131, 378.935)"/>
  </g>
</svg>
