<svg xmlns="http://www.w3.org/2000/svg" width="289.624" height="225.634" viewBox="0 0 289.624 225.634">
  <defs>
    <style>
      .cls-1, .cls-6 {
        fill: #2d2d2d;
      }

      .cls-1 {
        stroke-linecap: round;
        stroke-linejoin: round;
      }

      .cls-2 {
        fill: #e2e2e2;
      }

      .cls-3 {
        fill: #353535;
      }

      .cls-4 {
        fill: #513c25;
      }

      .cls-5 {
        fill: #f7f7f7;
      }

      .cls-7 {
        fill: #fff9f8;
      }

      .cls-8 {
        fill: #3f2f1c;
      }

      .cls-9 {
        fill: #fefefe;
      }

      .cls-10, .cls-19 {
        fill: #fff;
      }

      .cls-11 {
        fill: #89512a;
      }

      .cls-12 {
        fill: #ededed;
      }

      .cls-13 {
        fill: #cecece;
      }

      .cls-14 {
        fill: #935525;
      }

      .cls-15 {
        fill: #444;
      }

      .cls-16 {
        fill: #1e1e1e;
      }

      .cls-17 {
        fill: #3f3f3f;
      }

      .cls-18, .cls-19 {
        stroke: none;
      }
    </style>
  </defs>
  <g id="组_1814" data-name="组 1814" transform="translate(-1606.478 -1161.054)">
    <g id="组_1813" data-name="组 1813">
      <g id="路径_3688" data-name="路径 3688" class="cls-1">
        <path class="cls-18" d="M 1632.017944335938 1381.688110351563 C 1630.720581054688 1381.688110351563 1629.688842773438 1381.510009765625 1628.770629882813 1381.127685546875 C 1627.197143554688 1380.472045898438 1625.993286132813 1379.189697265625 1625.089599609375 1377.206909179688 C 1624.633666992188 1376.206420898438 1624.234252929688 1374.994384765625 1623.902465820313 1373.604370117188 C 1623.259887695313 1370.911743164063 1622.98291015625 1368.036987304688 1623.16162109375 1365.914428710938 C 1623.256958007813 1364.783325195313 1623.4765625 1363.823974609375 1623.833129882813 1362.981689453125 C 1624.615234375 1361.133911132813 1626.11181640625 1359.832397460938 1627.939208984375 1359.410888671875 C 1628.634399414063 1359.250244140625 1629.796020507813 1359.065185546875 1632.612060546875 1359.065185546875 C 1635.249145507813 1359.065185546875 1638.225463867188 1359.22314453125 1639.145263671875 1359.27587890625 C 1644.978149414063 1354.296142578125 1656.903442382813 1343.997314453125 1663.342529296875 1337.606323242188 C 1667.03515625 1332.428833007813 1669.009033203125 1328.490600585938 1670.227661132813 1325.598388671875 C 1663.376220703125 1330.958129882813 1652.825561523438 1338.580078125 1644.237915039063 1342.01708984375 C 1638.866333007813 1344.166381835938 1634.826538085938 1345.67529296875 1632.183959960938 1346.520385742188 C 1631.827392578125 1346.85498046875 1631.410400390625 1347.189575195313 1630.921020507813 1347.5341796875 C 1630.082763671875 1348.124389648438 1628.968627929688 1348.78759765625 1627.609497070313 1349.505493164063 C 1625.674926757813 1350.527099609375 1622.93505859375 1351.806396484375 1621.698486328125 1352.1787109375 C 1621.208129882813 1352.326049804688 1620.701904296875 1352.400512695313 1620.191772460938 1352.400512695313 C 1618.823974609375 1352.400512695313 1617.495971679688 1351.860473632813 1616.452514648438 1350.8798828125 C 1616.035400390625 1350.487915039063 1615.659301757813 1350.02685546875 1615.302734375 1349.47021484375 C 1614.889770507813 1348.825439453125 1614.49072265625 1348.033203125 1614.082641601563 1347.048095703125 C 1613.234497070313 1345.00048828125 1612.413940429688 1342.247192382813 1611.941284179688 1339.86279296875 C 1611.661865234375 1338.453002929688 1611.509643554688 1337.209716796875 1611.488891601563 1336.167236328125 C 1611.473388671875 1335.389038085938 1611.528198242188 1334.7021484375 1611.656616210938 1334.067260742188 C 1611.912231445313 1332.803100585938 1612.46435546875 1331.739624023438 1613.297485351563 1330.906494140625 C 1615.66845703125 1328.535522460938 1619.3525390625 1328.283813476563 1623.922485351563 1328.201049804688 C 1624.502563476563 1328.190551757813 1625.1015625 1328.1796875 1625.416137695313 1328.156982421875 C 1629.095703125 1325.031494140625 1633.017456054688 1321.671875 1636.233154296875 1318.8701171875 C 1635.41015625 1318.04052734375 1634.796020507813 1317.033325195313 1634.4423828125 1315.9091796875 C 1633.99462890625 1314.48583984375 1633.966918945313 1312.947021484375 1634.359985351563 1311.335571289063 C 1634.728515625 1309.82470703125 1635.483154296875 1308.256958007813 1636.484985351563 1306.92138671875 C 1638.066040039063 1304.813354492188 1639.887329101563 1303.744506835938 1641.898315429688 1303.744506835938 C 1642.172607421875 1303.744506835938 1642.443481445313 1303.765380859375 1642.709106445313 1303.806030273438 C 1642.331909179688 1301.14697265625 1641.674072265625 1297.58349609375 1640.748168945313 1293.184936523438 C 1640.616088867188 1292.5576171875 1640.484619140625 1291.935668945313 1640.354370117188 1291.319580078125 C 1638.633422851563 1283.181640625 1637.147338867188 1276.153564453125 1637.095581054688 1269.912719726563 C 1637.0654296875 1266.262939453125 1637.535400390625 1263.159790039063 1638.532470703125 1260.426147460938 C 1639.6953125 1257.23779296875 1641.604125976563 1254.537231445313 1644.205932617188 1252.399658203125 L 1644.639526367188 1252.043334960938 L 1645.141357421875 1251.792114257813 C 1651.498657226563 1248.60888671875 1657.556274414063 1246.994873046875 1663.146118164063 1246.994873046875 C 1669.90673828125 1246.994873046875 1676.036865234375 1249.368286132813 1680.873901367188 1253.858520507813 C 1681.8271484375 1254.743286132813 1682.64306640625 1255.630737304688 1683.33056640625 1256.463745117188 C 1687.942260742188 1254.356079101563 1693.204956054688 1253.290893554688 1699.038452148438 1253.290893554688 C 1699.151245117188 1253.290893554688 1699.264770507813 1253.291259765625 1699.378295898438 1253.292114257813 C 1702.86865234375 1253.316650390625 1706.980712890625 1253.341796875 1711.014038085938 1253.341796875 C 1719.408203125 1253.341796875 1728.670654296875 1253.23974609375 1736.805908203125 1252.73974609375 C 1733.23095703125 1250.701904296875 1730.543334960938 1248.21435546875 1728.786865234375 1245.31103515625 C 1726.63916015625 1241.7607421875 1725.936645507813 1237.642456054688 1726.75537109375 1233.401245117188 C 1727.388793945313 1230.119873046875 1728.952392578125 1226.763793945313 1731.158081054688 1223.951171875 C 1732.109619140625 1222.73779296875 1733.148315429688 1221.67578125 1734.161987304688 1220.879638671875 C 1735.77685546875 1219.611450195313 1737.330688476563 1218.994995117188 1738.911987304688 1218.994995117188 L 1749.724487304688 1218.994995117188 L 1746.372680664063 1222.938110351563 C 1753.863403320313 1221.2509765625 1757.811157226563 1206.828369140625 1759.9599609375 1198.976806640625 C 1760.073608398438 1198.5615234375 1760.183837890625 1198.15869140625 1760.291015625 1197.770385742188 L 1760.365600585938 1197.499755859375 L 1760.470092773438 1197.2392578125 C 1763.658325195313 1189.287475585938 1766.089477539063 1184.185913085938 1768.352905273438 1180.69775390625 C 1770.169555664063 1177.89794921875 1772.038330078125 1175.902954101563 1774.226440429688 1174.46484375 C 1775.344482421875 1170.794067382813 1776.040283203125 1169.2373046875 1776.185180664063 1168.9287109375 L 1779.107177734375 1162.706176757813 L 1784.127075195313 1167.40283203125 C 1784.190307617188 1167.4619140625 1785.271850585938 1168.474609375 1786.80078125 1169.950439453125 C 1788.73291015625 1169.525512695313 1790.820190429688 1169.31103515625 1793.036376953125 1169.31103515625 C 1800.410400390625 1169.31103515625 1808.215576171875 1171.643798828125 1814.487182617188 1173.518310546875 C 1815.741088867188 1173.89306640625 1816.925537109375 1174.2470703125 1818.027709960938 1174.558959960938 C 1818.88037109375 1174.80029296875 1819.65478515625 1174.922729492188 1820.329467773438 1174.922729492188 C 1822.517822265625 1174.922729492188 1823.621215820313 1173.619262695313 1825.415771484375 1170.501220703125 C 1825.5458984375 1170.275268554688 1825.680297851563 1170.041625976563 1825.8125 1169.817504882813 L 1829.091430664063 1164.259399414063 L 1833.654541015625 1168.822509765625 C 1834.768920898438 1169.936767578125 1835.595092773438 1171.206176757813 1836.115844726563 1172.588256835938 C 1836.15966796875 1172.388671875 1836.179443359375 1172.274169921875 1836.180297851563 1172.268920898438 L 1837.740234375 1161.842895507813 L 1844.826782226563 1169.648803710938 C 1846.754760742188 1171.772216796875 1848.130249023438 1174.0791015625 1848.9150390625 1176.50537109375 C 1849.657348632813 1178.800170898438 1849.873901367188 1181.198852539063 1849.558715820313 1183.634887695313 C 1848.90771484375 1188.66845703125 1846.034423828125 1193.744750976563 1841.018798828125 1198.722534179688 C 1840.703735351563 1199.03515625 1840.39013671875 1199.337646484375 1840.079467773438 1199.629638671875 C 1844.413208007813 1201.845947265625 1848.443603515625 1204.03466796875 1850.230224609375 1205.356811523438 C 1852.50927734375 1207.0439453125 1856.357421875 1209.316040039063 1858.577270507813 1210.592163085938 C 1860.018798828125 1210.28515625 1862.017944335938 1209.979736328125 1864.267211914063 1209.979736328125 C 1865.361694335938 1209.979736328125 1866.43896484375 1210.053100585938 1867.468872070313 1210.197509765625 L 1867.485961914063 1210.199951171875 L 1867.5029296875 1210.202514648438 C 1869.429443359375 1210.486328125 1871.346313476563 1211.391967773438 1873.04638671875 1212.821411132813 C 1874.508544921875 1214.051025390625 1875.793579101563 1215.63037109375 1876.865356445313 1217.515991210938 C 1878.591430664063 1220.55224609375 1879.6298828125 1224.161376953125 1879.868286132813 1227.953247070313 C 1880.136962890625 1232.22509765625 1879.40478515625 1236.499633789063 1877.692260742188 1240.658081054688 C 1876.270141601563 1244.111206054688 1874.5908203125 1247.251220703125 1872.701049804688 1249.990966796875 C 1870.856811523438 1252.66455078125 1868.80078125 1254.97509765625 1866.590087890625 1256.8583984375 C 1862.121459960938 1260.665161132813 1857.107177734375 1262.677368164063 1852.089233398438 1262.677368164063 C 1848.559814453125 1262.677368164063 1845.128662109375 1261.648193359375 1842.166748046875 1259.701171875 C 1840.135864257813 1258.366088867188 1838.359008789063 1256.645874023438 1836.858276367188 1254.5654296875 C 1833.656494140625 1254.942749023438 1828.592407226563 1255.441650390625 1823.683837890625 1255.441650390625 C 1821.3779296875 1255.441650390625 1819.315673828125 1255.335083007813 1817.4794921875 1255.11962890625 C 1816.882934570313 1261.039306640625 1815.848510742188 1270.690307617188 1814.604614257813 1279.716552734375 C 1818.55712890625 1280.687744140625 1827.109252929688 1282.829833984375 1836.578125 1285.455932617188 C 1854.151977539063 1290.329833984375 1866.410522460938 1294.486206054688 1873.01318359375 1297.809936523438 C 1876.3330078125 1299.481323242188 1878.70703125 1300.792724609375 1880.271118164063 1301.819091796875 C 1881.178344726563 1302.414428710938 1881.842895507813 1302.932250976563 1882.362426757813 1303.448486328125 C 1884.482666015625 1305.555297851563 1884.2255859375 1307.828369140625 1884.016723632813 1308.707885742188 C 1883.625244140625 1310.35595703125 1882.2548828125 1312.245849609375 1879.645263671875 1312.69384765625 L 1878.931640625 1315.453002929688 L 1877.269287109375 1321.880737304688 L 1871.55078125 1318.507690429688 C 1867.921508789063 1316.367553710938 1863.89892578125 1314.210327148438 1862.933715820313 1313.886474609375 C 1862.6376953125 1313.79541015625 1862.337524414063 1313.689575195313 1861.99072265625 1313.567260742188 C 1859.983276367188 1312.859375 1854.967529296875 1311.090576171875 1842.479614257813 1310.126586914063 C 1848.633056640625 1312.7109375 1854.381591796875 1315.148315429688 1859.2314453125 1317.321655273438 C 1868.172485351563 1321.328247070313 1870.952270507813 1323.051879882813 1872.37548828125 1324.407470703125 C 1874.71826171875 1326.638916015625 1876.188842773438 1328.386108398438 1877.00341796875 1329.90625 C 1878.316162109375 1332.356079101563 1877.900390625 1334.26318359375 1877.350952148438 1335.403076171875 L 1877.3515625 1335.403442382813 C 1877.323486328125 1335.462036132813 1876.653198242188 1336.859497070313 1875.716552734375 1338.4609375 C 1874.235473632813 1340.993286132813 1872.915893554688 1342.662719726563 1871.563842773438 1343.714965820313 C 1870.473388671875 1344.56298828125 1869.142211914063 1345.010620117188 1867.713256835938 1345.0107421875 C 1867.712646484375 1345.0107421875 1867.712158203125 1345.0107421875 1867.711547851563 1345.0107421875 C 1865.385864257813 1345.010131835938 1863.295166015625 1343.853271484375 1860.648193359375 1342.388671875 C 1857.920043945313 1340.879028320313 1854.524780273438 1339.00048828125 1850.486328125 1338.135009765625 C 1846.082885742188 1337.191772460938 1831.791748046875 1334.727661132813 1817.951538085938 1332.525390625 C 1798.826171875 1329.482177734375 1789.905151367188 1328.399291992188 1788.068603515625 1328.39599609375 C 1787.9638671875 1328.399536132813 1787.39501953125 1328.440185546875 1785.576904296875 1328.876831054688 C 1784.109252929688 1329.229248046875 1782.235595703125 1329.738037109375 1780.066162109375 1330.327270507813 C 1774.25 1331.906982421875 1766.28466796875 1334.070434570313 1756.5966796875 1335.8564453125 C 1751.283447265625 1336.8359375 1745.976684570313 1337.5986328125 1740.823852539063 1338.123413085938 C 1734.801635742188 1338.736938476563 1728.776733398438 1339.047973632813 1722.916870117188 1339.047973632813 C 1717.558349609375 1339.047973632813 1712.200927734375 1338.787963867188 1706.967407226563 1338.274658203125 C 1706.456787109375 1338.64013671875 1705.666137695313 1339.252075195313 1704.478881835938 1340.268676757813 C 1702.679321289063 1341.809814453125 1700.53759765625 1343.782104492188 1698.0576171875 1346.065673828125 C 1693.666015625 1350.109741210938 1688.200439453125 1355.142700195313 1682.6083984375 1359.56298828125 C 1675.85107421875 1364.904296875 1670.091064453125 1368.424682617188 1664.99951171875 1370.325317382813 C 1655.083862304688 1374.02734375 1649.4013671875 1376.05224609375 1646.434448242188 1377.082153320313 C 1645.347778320313 1378.569091796875 1643.708740234375 1379.20556640625 1642.92431640625 1379.51025390625 C 1641.76806640625 1379.959350585938 1640.442993164063 1380.327270507813 1639.534912109375 1380.556762695313 C 1638.484985351563 1380.822143554688 1634.840209960938 1381.688110351563 1632.017944335938 1381.688110351563 Z"/>
        <path class="cls-19" d="M 1632.017822265625 1376.688110351563 C 1635.25830078125 1376.688110351563 1642.082885742188 1374.951782226563 1642.433959960938 1374.066040039063 L 1642.136962890625 1373.18896484375 L 1642.161987304688 1373.2509765625 C 1642.161987304688 1373.2509765625 1646.944946289063 1371.72900390625 1663.2509765625 1365.640991210938 C 1679.557983398438 1359.553955078125 1700.220947265625 1335.4169921875 1705.8740234375 1333.135009765625 C 1711.740234375 1333.77294921875 1717.440307617188 1334.047973632813 1722.916870117188 1334.047973632813 C 1757.020385742188 1334.047973632813 1782.626586914063 1323.39599609375 1788.06005859375 1323.39599609375 C 1794.364990234375 1323.39599609375 1842.402954101563 1331.2900390625 1851.534057617188 1333.245971679688 C 1859.668334960938 1334.9892578125 1865.214965820313 1340.010009765625 1867.712890625 1340.0107421875 C 1868.019165039063 1340.0107421875 1868.279296875 1339.935302734375 1868.493041992188 1339.76904296875 C 1870.448974609375 1338.246948242188 1872.840942382813 1333.245971679688 1872.840942382813 1333.245971679688 C 1872.840942382813 1333.245971679688 1873.493041992188 1332.376953125 1868.927001953125 1328.027954101563 C 1864.362060546875 1323.680053710938 1822.182983398438 1307.808959960938 1805.659057617188 1299.546997070313 C 1805.751953125 1299.301025390625 1805.844970703125 1299.030029296875 1805.93798828125 1298.746948242188 C 1809.156005859375 1301.943969726563 1815.369995117188 1304.410034179688 1825.713989257813 1304.484008789063 C 1854.43505859375 1304.68896484375 1862.22705078125 1308.441040039063 1864.409057617188 1309.109008789063 C 1866.592041015625 1309.777954101563 1874.090942382813 1314.201049804688 1874.090942382813 1314.201049804688 L 1875.85400390625 1307.384033203125 C 1875.85400390625 1307.384033203125 1877.474731445313 1307.792602539063 1878.445678710938 1307.792602539063 C 1879.902465820313 1307.792602539063 1879.89697265625 1306.873413085938 1870.765014648438 1302.276000976563 C 1855.546020507813 1294.614990234375 1811.133056640625 1284.017944335938 1811.133056640625 1284.017944335938 C 1810.317993164063 1284.139038085938 1809.552978515625 1284.358032226563 1808.833984375 1284.64599609375 C 1811.213989257813 1269.259033203125 1813.051025390625 1248.984008789063 1813.051025390625 1248.984008789063 C 1815.673583984375 1250.083129882813 1819.625244140625 1250.441650390625 1823.683837890625 1250.441650390625 C 1830.743041992188 1250.441650390625 1838.1279296875 1249.35791015625 1839.421997070313 1249.203002929688 C 1842.299682617188 1254.757446289063 1846.965454101563 1257.677368164063 1852.089233398438 1257.677368164063 C 1859.450439453125 1257.677368164063 1867.75732421875 1251.651489257813 1873.068969726563 1238.754028320313 C 1877.994018554688 1226.795043945313 1872.128051757813 1215.93798828125 1866.774047851563 1215.149047851563 C 1865.917236328125 1215.02880859375 1865.0732421875 1214.979736328125 1864.26708984375 1214.979736328125 C 1860.701416015625 1214.979736328125 1857.869995117188 1215.93896484375 1857.869995117188 1215.93896484375 C 1857.869995117188 1215.93896484375 1850.890991210938 1212.067016601563 1847.255981445313 1209.3759765625 C 1845.0830078125 1207.767944335938 1837.848999023438 1204.032958984375 1830.85595703125 1200.615966796875 C 1831.656005859375 1200.095947265625 1852.967041015625 1186.052001953125 1841.125 1173.010009765625 C 1840.8974609375 1174.53076171875 1838.400268554688 1185.83349609375 1828.744262695313 1185.833862304688 C 1828.044555664063 1185.833984375 1827.307739257813 1185.774658203125 1826.531005859375 1185.64794921875 C 1826.531005859375 1185.64794921875 1835.337036132813 1177.576049804688 1830.119018554688 1172.358032226563 C 1828.537353515625 1175.039184570313 1826.20263671875 1179.922729492188 1820.329345703125 1179.922729492188 C 1819.236694335938 1179.922729492188 1818.021606445313 1179.753662109375 1816.666015625 1179.369995117188 C 1810.075317382813 1177.504638671875 1801.064697265625 1174.31103515625 1793.036376953125 1174.31103515625 C 1790.537719726563 1174.31103515625 1788.135009765625 1174.6201171875 1785.928955078125 1175.375 C 1785.744018554688 1175.43798828125 1785.567016601563 1175.494995117188 1785.386962890625 1175.555053710938 C 1782.85302734375 1173.057983398438 1780.711059570313 1171.053955078125 1780.711059570313 1171.053955078125 C 1780.711059570313 1171.053955078125 1779.871948242188 1172.840942382813 1778.448974609375 1177.823974609375 C 1774.338012695313 1179.733032226563 1771.267944335938 1183.744018554688 1765.110961914063 1199.099975585938 C 1762.501953125 1208.557983398438 1758.045043945313 1226.60400390625 1746.305053710938 1228.016967773438 C 1745.216186523438 1228.24365234375 1742.782592773438 1228.716552734375 1740.719604492188 1228.716552734375 C 1737.839721679688 1228.716674804688 1735.681884765625 1227.794921875 1738.911987304688 1223.994995117188 C 1735.760009765625 1223.994995117188 1721.628051757813 1241.60498046875 1743.04296875 1250.192993164063 C 1751.305053710938 1252.041015625 1758.298950195313 1254.14404296875 1758.298950195313 1254.14404296875 L 1758.300048828125 1254.14501953125 C 1758.10595703125 1254.222045898438 1757.910034179688 1254.300048828125 1757.718994140625 1254.379028320313 C 1749.430053710938 1257.775512695313 1730.495361328125 1258.341674804688 1711.015258789063 1258.341796875 C 1707.11865234375 1258.341796875 1703.20263671875 1258.319091796875 1699.343017578125 1258.2919921875 C 1699.241333007813 1258.291259765625 1699.139770507813 1258.290893554688 1699.03857421875 1258.290893554688 C 1691.93701171875 1258.290893554688 1686.230224609375 1260.0517578125 1681.753051757813 1263.051025390625 C 1681.753051757813 1263.051025390625 1676.539794921875 1251.994995117188 1663.146118164063 1251.994995117188 C 1658.789794921875 1251.994995117188 1653.569580078125 1253.163818359375 1647.380004882813 1256.262939453125 C 1639.118041992188 1263.051025390625 1642.161987304688 1275.630981445313 1645.640991210938 1292.155029296875 C 1649.119018554688 1308.677978515625 1648.140991210938 1309.983032226563 1647.244018554688 1311.1240234375 C 1646.775146484375 1311.720947265625 1645.118041992188 1312.473754882813 1643.784912109375 1312.473876953125 C 1642.567993164063 1312.473876953125 1641.62109375 1311.8466796875 1642.093994140625 1309.901000976563 C 1642.293212890625 1309.082763671875 1642.177001953125 1308.74462890625 1641.898315429688 1308.74462890625 C 1640.788818359375 1308.74462890625 1637.1025390625 1314.102661132813 1640.47705078125 1315.85302734375 C 1641.671020507813 1316.472045898438 1643.412963867188 1317.015991210938 1645.392944335938 1317.399047851563 C 1641.43505859375 1321.120971679688 1629.89501953125 1330.9189453125 1626.692016601563 1333.630981445313 C 1626.443481445313 1333.326782226563 1626.181640625 1333.135986328125 1625.90478515625 1333.135986328125 C 1625.888549804688 1333.135986328125 1625.872314453125 1333.136596679688 1625.85595703125 1333.137939453125 C 1623.844970703125 1333.301025390625 1618.301025390625 1332.973999023438 1616.8330078125 1334.442016601563 C 1615.388793945313 1335.88623046875 1618.837890625 1347.400512695313 1620.191772460938 1347.400512695313 C 1620.214111328125 1347.400512695313 1620.23583984375 1347.397338867188 1620.256958007813 1347.390991210938 C 1621.56201171875 1346.998046875 1629.359985351563 1343.363037109375 1629.172973632813 1342.198974609375 C 1630.571044921875 1341.83203125 1634.015014648438 1340.722045898438 1642.380004882813 1337.375 C 1655.425048828125 1332.154052734375 1674.057983398438 1316.015991210938 1674.057983398438 1316.015991210938 L 1674.057983398438 1316.015014648438 C 1676.098999023438 1319.178955078125 1677.764038085938 1320.677001953125 1677.166015625 1321.723022460938 C 1675.862060546875 1324.005981445313 1674.991943359375 1329.984985351563 1667.1650390625 1340.85595703125 C 1659.212036132813 1348.808959960938 1642.359008789063 1363.118041992188 1639.534057617188 1365.508056640625 L 1639.118041992188 1364.282958984375 C 1639.118041992188 1364.282958984375 1635.591186523438 1364.065185546875 1632.612060546875 1364.065185546875 C 1631.122192382813 1364.065185546875 1629.769775390625 1364.11962890625 1629.06298828125 1364.282958984375 C 1626.942993164063 1364.77197265625 1628.737060546875 1375.697021484375 1630.692993164063 1376.511962890625 C 1630.986328125 1376.634155273438 1631.446411132813 1376.688110351563 1632.017822265625 1376.688110351563 M 1668.360961914063 1295.796020507813 C 1668.379028320313 1296.322021484375 1668.406005859375 1296.8330078125 1668.43603515625 1297.337036132813 L 1668.43505859375 1297.337036132813 C 1668.368041992188 1297.390014648438 1668.244018554688 1297.489990234375 1668.090942382813 1297.614990234375 C 1668.27197265625 1296.702026367188 1668.365966796875 1296.051025390625 1668.360961914063 1295.796020507813 M 1632.017822265625 1386.688110351563 C 1630.065795898438 1386.688110351563 1628.374755859375 1386.379150390625 1626.848266601563 1385.743286132813 C 1617.256103515625 1381.746704101563 1618.165771484375 1365.655395507813 1618.179321289063 1365.49462890625 C 1618.49365234375 1361.763061523438 1619.941528320313 1359.074096679688 1621.816772460938 1357.268188476563 C 1621.274658203125 1357.355102539063 1620.724243164063 1357.400512695313 1620.191772460938 1357.400512695313 C 1615.392333984375 1357.400512695313 1611.78271484375 1354.561157226563 1609.463256835938 1348.96142578125 C 1606.618286132813 1342.093139648438 1604.36083984375 1332.772216796875 1609.761962890625 1327.370971679688 C 1613.651733398438 1323.481201171875 1619.29443359375 1323.286376953125 1623.51904296875 1323.207641601563 C 1625.349975585938 1321.649780273438 1627.59521484375 1319.732543945313 1629.828002929688 1317.808471679688 C 1628.9990234375 1315.457641601563 1628.85205078125 1312.81689453125 1629.502319335938 1310.150756835938 C 1630.33154296875 1306.75146484375 1632.868041992188 1302.122924804688 1636.998779296875 1299.956298828125 C 1636.703247070313 1298.3603515625 1636.328979492188 1296.464599609375 1635.85546875 1294.21484375 L 1635.462524414063 1292.353881835938 C 1631.826782226563 1275.160522460938 1628.392700195313 1258.920776367188 1641.03173828125 1248.536376953125 C 1641.608154296875 1248.062744140625 1642.235717773438 1247.655151367188 1642.90283203125 1247.321166992188 C 1649.961181640625 1243.786987304688 1656.772094726563 1241.994873046875 1663.146118164063 1241.994873046875 C 1672.754028320313 1241.994873046875 1679.91015625 1246.009643554688 1684.674072265625 1250.550170898438 C 1689.055053710938 1249.047973632813 1693.857421875 1248.290893554688 1699.03857421875 1248.290893554688 L 1711.01513671875 1248.341796875 C 1713.9873046875 1248.341796875 1719.041259765625 1248.341796875 1724.716064453125 1248.212280273438 C 1720.673095703125 1241.706420898438 1721.331298828125 1235.119873046875 1721.845947265625 1232.45361328125 C 1723.33984375 1224.714965820313 1730.101684570313 1213.994995117188 1738.911987304688 1213.994995117188 C 1741.795654296875 1213.994995117188 1744.484741210938 1215.234497070313 1746.351318359375 1217.31201171875 C 1749.394653320313 1214.998168945313 1752.18701171875 1208.436767578125 1755.137329101563 1197.656982421875 L 1755.471069335938 1196.440795898438 C 1755.570434570313 1196.080200195313 1755.690063476563 1195.7255859375 1755.829223632813 1195.37841796875 C 1760.700927734375 1183.22802734375 1764.437622070313 1175.788818359375 1769.949096679688 1171.398681640625 C 1770.854858398438 1168.60400390625 1771.45654296875 1167.2353515625 1771.659301757813 1166.803588867188 C 1773.01904296875 1163.907836914063 1775.682495117188 1161.837890625 1778.823974609375 1161.234008789063 C 1779.451538085938 1161.113403320313 1780.083618164063 1161.05419921875 1780.711181640625 1161.05419921875 C 1783.224975585938 1161.05419921875 1785.673461914063 1162.0029296875 1787.543090820313 1163.751708984375 C 1787.543090820313 1163.751708984375 1787.879516601563 1164.06640625 1788.445556640625 1164.603515625 C 1789.945678710938 1164.405151367188 1791.466918945313 1164.31103515625 1793.036376953125 1164.31103515625 C 1801.141723632813 1164.31103515625 1809.335327148438 1166.759887695313 1815.919067382813 1168.727661132813 L 1819.389526367188 1169.748046875 C 1819.423828125 1169.756103515625 1819.45849609375 1169.760009765625 1819.4931640625 1169.760009765625 C 1820.073364257813 1169.760009765625 1820.699584960938 1168.672119140625 1821.082397460938 1168.006958007813 C 1822.634399414063 1165.310424804688 1825.537841796875 1163.171264648438 1828.622192382813 1162.763061523438 C 1829.16064453125 1162.691772460938 1829.70556640625 1162.6552734375 1830.249267578125 1162.6552734375 C 1832.37548828125 1162.6552734375 1834.489990234375 1163.213256835938 1836.18505859375 1164.433349609375 C 1836.865356445313 1164.041748046875 1837.596313476563 1163.729125976563 1838.366455078125 1163.509887695313 C 1839.310913085938 1163.240966796875 1840.275024414063 1163.108520507813 1841.229614257813 1163.108520507813 C 1843.970458984375 1163.108520507813 1846.633056640625 1164.200317382813 1848.528442382813 1166.287719726563 C 1853.290161132813 1171.531982421875 1855.361083984375 1177.752075195313 1854.517578125 1184.275634765625 C 1853.8251953125 1189.630004882813 1851.212524414063 1194.370971679688 1848.151000976563 1198.246704101563 C 1850.472290039063 1199.532836914063 1852.1611328125 1200.565551757813 1853.20458984375 1201.337646484375 C 1854.755859375 1202.486083984375 1857.343505859375 1204.0732421875 1859.501220703125 1205.344604492188 C 1860.896606445313 1205.134033203125 1862.516479492188 1204.979736328125 1864.26708984375 1204.979736328125 C 1865.520141601563 1204.979736328125 1866.831665039063 1205.059204101563 1868.16357421875 1205.24609375 C 1873.375244140625 1206.013793945313 1878.106323242188 1209.581665039063 1881.212036132813 1215.044799804688 C 1885.727661132813 1222.988159179688 1886.14013671875 1233.275024414063 1882.315551757813 1242.56201171875 C 1875.8388671875 1258.288452148438 1864.539306640625 1267.67724609375 1852.089233398438 1267.67724609375 C 1845.430297851563 1267.67724609375 1839.284301757813 1264.831665039063 1834.7158203125 1259.826049804688 C 1831.494995117188 1260.1494140625 1827.558227539063 1260.441650390625 1823.683837890625 1260.441650390625 C 1823.096557617188 1260.441650390625 1822.522705078125 1260.434936523438 1821.961059570313 1260.421752929688 C 1821.484130859375 1264.914184570313 1820.866333007813 1270.392822265625 1820.1533203125 1275.935424804688 C 1833.628173828125 1279.3154296875 1862.617309570313 1286.97900390625 1875.261352539063 1293.343872070313 C 1882.96533203125 1297.222534179688 1890.931274414063 1301.23291015625 1888.88134765625 1309.863403320313 C 1888.245727539063 1312.53955078125 1886.318969726563 1314.833251953125 1883.888793945313 1316.255126953125 L 1883.7724609375 1316.704956054688 C 1883.019409179688 1319.61669921875 1880.997802734375 1322.027587890625 1878.279174804688 1323.281372070313 C 1881.356323242188 1326.717163085938 1885.01806640625 1332.346313476563 1881.575073242188 1338.1513671875 C 1880.005615234375 1341.32763671875 1877.602783203125 1345.35107421875 1874.634643554688 1347.660888671875 C 1872.879028320313 1349.027221679688 1869.938110351563 1350.0107421875 1867.71337890625 1350.0107421875 C 1864.094604492188 1350.009765625 1861.244506835938 1348.432861328125 1858.227172851563 1346.763427734375 C 1855.660888671875 1345.343505859375 1852.752197265625 1343.734130859375 1849.438598632813 1343.02392578125 C 1840.001586914063 1341.00244140625 1793.744995117188 1333.488159179688 1788.0390625 1333.395874023438 C 1787.0380859375 1333.544067382813 1784.63720703125 1334.266967773438 1781.376708984375 1335.152465820313 C 1769.930541992188 1338.261352539063 1748.625122070313 1344.047973632813 1722.916870117188 1344.047973632813 C 1718.045288085938 1344.047973632813 1713.173461914063 1343.839233398438 1708.387939453125 1343.426635742188 C 1706.733032226563 1344.873901367188 1703.869873046875 1347.510498046875 1701.444580078125 1349.743774414063 C 1691.953735351563 1358.4833984375 1678.955688476563 1370.452758789063 1666.748046875 1375.009521484375 C 1657.926025390625 1378.303344726563 1652.40380859375 1380.28759765625 1649.16015625 1381.425659179688 C 1643.536376953125 1386.6171875 1632.570068359375 1386.688110351563 1632.017822265625 1386.688110351563 Z M 1632.612060546875 1354.065185546875 C 1634.245483398438 1354.065185546875 1636.029296875 1354.124633789063 1637.403076171875 1354.183837890625 C 1639.771118164063 1352.152709960938 1642.844482421875 1349.498046875 1646.053466796875 1346.675903320313 C 1641.255126953125 1348.595458984375 1637.54150390625 1349.997680664063 1634.826782226563 1350.913940429688 C 1633.383911132813 1352.187744140625 1631.728515625 1353.251708984375 1630.095336914063 1354.12255859375 C 1630.837158203125 1354.083618164063 1631.666870117188 1354.065185546875 1632.612060546875 1354.065185546875 Z"/>
      </g>
      <g id="路径_3689" data-name="路径 3689" class="cls-1">
        <path class="cls-18" d="M 1872.531982421875 1351.140258789063 C 1872.531372070313 1351.140258789063 1872.531127929688 1351.140258789063 1872.530517578125 1351.140258789063 C 1871.61376953125 1351.14013671875 1870.749267578125 1350.940063476563 1869.960815429688 1350.545532226563 L 1863.355590820313 1347.24072265625 L 1868.87744140625 1342.335815429688 L 1879.367431640625 1333.017822265625 L 1886.04638671875 1327.085083007813 L 1887.610717773438 1335.880493164063 C 1888.026245117188 1338.216552734375 1887.167358398438 1340.6181640625 1884.984985351563 1343.222412109375 C 1883.569458007813 1344.911499023438 1881.545043945313 1346.740478515625 1879.430786132813 1348.240234375 C 1875.767211914063 1350.838989257813 1873.738891601563 1351.140258789063 1872.531982421875 1351.140258789063 Z"/>
        <path class="cls-19" d="M 1872.531494140625 1346.140258789063 C 1874.83984375 1346.140747070313 1883.184692382813 1339.548706054688 1882.68798828125 1336.755981445313 L 1872.197998046875 1346.073974609375 C 1872.28759765625 1346.118774414063 1872.39990234375 1346.140258789063 1872.531494140625 1346.140258789063 M 1872.53173828125 1356.140258789063 C 1872.531127929688 1356.140258789063 1872.530517578125 1356.140258789063 1872.529907226563 1356.140258789063 C 1870.977416992188 1356.140014648438 1869.112548828125 1355.7119140625 1867.723999023438 1355.017333984375 C 1864.756225585938 1353.532592773438 1862.718139648438 1350.67236328125 1862.283935546875 1347.382446289063 C 1861.849731445313 1344.092529296875 1863.075927734375 1340.801391601563 1865.556884765625 1338.59765625 L 1876.046875 1329.279663085938 C 1877.905639648438 1327.628540039063 1880.277954101563 1326.755737304688 1882.689208984375 1326.755737304688 C 1883.789306640625 1326.755737304688 1884.897094726563 1326.937255859375 1885.968505859375 1327.309448242188 C 1889.388549804688 1328.4970703125 1891.899536132813 1331.440551757813 1892.533447265625 1335.0048828125 C 1893.21435546875 1338.832885742188 1891.964477539063 1342.677490234375 1888.818725585938 1346.43212890625 C 1888.737426757813 1346.529174804688 1880.591552734375 1356.140258789063 1872.53173828125 1356.140258789063 Z"/>
      </g>
      <g id="路径_3690" data-name="路径 3690" class="cls-1">
        <path class="cls-18" d="M 1875.213623046875 1323.553955078125 C 1875.213012695313 1323.553955078125 1875.212524414063 1323.553955078125 1875.2119140625 1323.553955078125 C 1873.689575195313 1323.553466796875 1872.596435546875 1323.012329101563 1871.947387695313 1322.558349609375 L 1865.419921875 1317.9931640625 L 1872.368774414063 1314.099243164063 L 1883.657836914063 1307.773193359375 L 1892.482666015625 1302.828002929688 L 1891.0517578125 1312.84228515625 C 1890.728393554688 1315.10546875 1889.097290039063 1316.64990234375 1887.712280273438 1317.742553710938 C 1886.429443359375 1318.754638671875 1884.938598632813 1319.676635742188 1883.913940429688 1320.271850585938 C 1882.497314453125 1321.0947265625 1881.072265625 1321.820556640625 1879.792724609375 1322.370849609375 C 1877.890380859375 1323.18896484375 1876.477905273438 1323.553955078125 1875.213623046875 1323.553955078125 Z"/>
        <path class="cls-19" d="M 1875.213134765625 1318.553955078125 C 1877.429809570313 1318.554443359375 1885.8720703125 1313.74462890625 1886.10205078125 1312.135009765625 L 1874.81298828125 1318.461059570313 C 1874.9033203125 1318.524169921875 1875.039306640625 1318.553833007813 1875.213134765625 1318.553955078125 M 1875.213623046875 1328.553955078125 C 1875.212646484375 1328.553955078125 1875.211791992188 1328.553955078125 1875.2109375 1328.553955078125 C 1873.161499023438 1328.553344726563 1870.76123046875 1327.830322265625 1869.081787109375 1326.65576171875 C 1866.261962890625 1324.683715820313 1864.654174804688 1321.400390625 1864.825317382813 1317.963623046875 C 1864.99658203125 1314.52685546875 1866.922729492188 1311.419555664063 1869.924438476563 1309.737426757813 L 1881.213500976563 1303.411376953125 C 1882.736450195313 1302.557983398438 1884.421020507813 1302.135009765625 1886.101318359375 1302.135009765625 C 1888.0830078125 1302.135009765625 1890.05859375 1302.72314453125 1891.756469726563 1303.88720703125 C 1894.894287109375 1306.038330078125 1896.539672851563 1309.783447265625 1896.00146484375 1313.549438476563 C 1894.723388671875 1322.494750976563 1879.861450195313 1328.553955078125 1875.213623046875 1328.553955078125 Z"/>
      </g>
    </g>
    <path id="路径_3691" data-name="路径 3691" class="cls-2" d="M1674.058,1316.016s-18.633,16.138-31.678,21.359-14.133,5-14.133,5l-2.391-8.04s20.22-17.072,20.872-18.322,20.367-17.626,21.707-18.678S1679.864,1300.743,1674.058,1316.016Z"/>
    <path id="路径_3692" data-name="路径 3692" class="cls-3" d="M1681.753,1263.051s-9.153-19.416-34.373-6.788c-8.262,6.788-5.218,19.368-1.739,35.892s2.5,17.828,1.6,18.969-6.141,2.854-5.15-1.223-5.839,3.762-1.617,5.952,15.181,3.506,19.943-.326,7.972-18.263,7.941-19.731S1683.322,1265.55,1681.753,1263.051Z"/>
    <path id="路径_3693" data-name="路径 3693" class="cls-2" d="M1811.133,1284.018s44.413,10.6,59.632,18.258,5.088,5.108,5.088,5.108l-1.762,6.817s-7.5-4.423-9.682-5.092-9.974-4.42-38.7-4.625S1799.98,1285.66,1811.133,1284.018Z"/>
    <path id="路径_3694" data-name="路径 3694" class="cls-3" d="M1830.818,1200.641s22.374-14.341,10.307-27.631c-.244,1.631-3.1,14.513-14.594,12.638,0,0,8.806-8.072,3.588-13.29-1.876,3.18-4.811,9.458-13.453,7.012s-21.443-7.175-30.737-3.995-11.578.679-20.818,23.725c-2.609,9.458-7.066,27.5-18.806,28.917-2.609.543-12.937,2.5-7.393-4.022-3.152,0-17.284,17.61,4.131,26.2,8.262,1.848,15.256,3.951,15.256,3.951s19.857,11.051,30.619-17.322S1829.02,1199.789,1830.818,1200.641Z"/>
    <path id="路径_3695" data-name="路径 3695" class="cls-4" d="M1832.266,1250.018s-2.682,33.156-17.466,36.852c-8.7.87-7.719-.272-7.827-.489a8.62,8.62,0,0,1,0-1.685s20.425-1.476,19.344-34.3Z"/>
    <path id="路径_3696" data-name="路径 3696" class="cls-5" d="M1813.051,1248.984s-3.7,40.779-7.392,50.563c16.524,8.262,58.7,24.133,63.268,28.481s3.914,5.218,3.914,5.218-2.392,5-4.348,6.523-7.827-4.566-16.959-6.523-57.169-9.85-63.474-9.85-39.79,14.35-82.186,9.739c-5.653,2.282-26.316,26.419-42.622,32.506s-21.09,7.61-21.09,7.61l-3.044-7.392s19.35-16.306,28.047-25c7.827-10.871,8.7-16.85,10-19.133s-8.153-6.685-8.805-25.927,7.827-37.667,30.982-37.5,48.429.163,58.376-3.913,23.97-7.175,26.09-27.069,1.141-20.383,1.141-20.383-12.719-5.87-7.664-24.785c2.12-8.316,3.425-11.088,3.425-11.088s10.11,9.457,12.392,12.882,3.1,10.109,2.936,12.718,15.49-4.728,21.035-2.445,26.23,12.242,30.182,15.167c3.635,2.691,10.614,6.563,10.614,6.563a21.694,21.694,0,0,1,8.9-.79c5.354.789,11.22,11.646,6.295,23.6-9.009,21.875-26.635,23.983-33.647,10.449C1837.384,1249.447,1820.235,1251.995,1813.051,1248.984Z"/>
    <path id="路径_3697" data-name="路径 3697" class="cls-6" d="M1642.434,1374.066l-3.316-9.784s-7.935-.489-10.055,0-.326,11.415,1.63,12.23S1642.02,1375.108,1642.434,1374.066Z"/>
    <path id="路径_3698" data-name="路径 3698" class="cls-6" d="M1629.173,1342.2s-1.306-9.224-3.317-9.061-7.555-.163-9.023,1.3,2.12,13.341,3.424,12.949S1629.36,1343.363,1629.173,1342.2Z"/>
    <path id="路径_3699" data-name="路径 3699" class="cls-6" d="M1872.567,1332.45s-5.326,6.492-5.431,7.613,3.4,5.181,5.062,6.011,11.015-6.366,10.49-9.318S1872.567,1332.45,1872.567,1332.45Z"/>
    <path id="路径_3700" data-name="路径 3700" class="cls-6" d="M1877.214,1305.808l-7.21,6.062s3.569,5.723,4.809,6.591,11.041-4.59,11.289-6.326S1878.5,1306.552,1877.214,1305.808Z"/>
    <path id="路径_3701" data-name="路径 3701" class="cls-2" d="M1856.982,1256.534c-2.375.953-10.222,4.137-17.56-7.331-5.544,0-7.156.815-7.156.815s-13.571,1.193-19.215-1.034c-6.459-.977-16.949-5-17.058-5.325s-1.2-.87-.543-1.577c.924,0,20.481,5.6,26.356,5.762s16.591-.588,17.072-.652c.666-.089,3.071-1.087,4.294.869,1.191,1.9,4.651,9.266,13.8,8.4A.039.039,0,0,1,1856.982,1256.534Z"/>
    <path id="路径_3702" data-name="路径 3702" class="cls-7" d="M1857.87,1215.939s14.951-5.4,16.474,8.755-2.875,20.255-9.93,27.4c-3.74,4.173-6.517,4.427-7.424,4.719,0,0-12.078,2.232-13.057-12.118a44.052,44.052,0,0,1,13.937-28.752"/>
    <ellipse id="椭圆_595" data-name="椭圆 595" class="cls-8" cx="5.015" cy="4.573" rx="5.015" ry="4.573" transform="translate(1819.151 1206.093)"/>
    <ellipse id="椭圆_596" data-name="椭圆 596" class="cls-9" cx="2.152" cy="2.36" rx="2.152" ry="2.36" transform="matrix(0.622, -0.783, 0.783, 0.622, 1818.62, 1212.285)"/>
    <ellipse id="椭圆_597" data-name="椭圆 597" class="cls-8" cx="3.889" cy="3.249" rx="3.889" ry="3.249" transform="translate(1866.332 1237.605) rotate(-69.178)"/>
    <path id="路径_3703" data-name="路径 3703" class="cls-10" d="M1856.448,1217.306s-21.1-12.415-25.534-15.718c-.441-.328-.736-.823-.424-1.275.038-.055-1.183.857-1.157.847.493-.191-.49-2.914,8.932,3.081,12.437,6.168,18.77,8.764,19.6,11.7A2.945,2.945,0,0,1,1856.448,1217.306Z"/>
    <path id="路径_3704" data-name="路径 3704" class="cls-4" d="M1857.87,1215.939s-8.5-5.056-18.448,33.264c-2.446,2.283-7.137,1.63-7.156.815s8.757-37.909,20.859-37.951C1858.215,1213.655,1857.891,1214.472,1857.87,1215.939Z"/>
    <path id="路径_3705" data-name="路径 3705" class="cls-4" d="M1837.889,1231.42s-49.036.527-53.347-11.527a9.34,9.34,0,0,0-1.322,7.188c0,.543,17.717,13.414,53.157,8.555A5.724,5.724,0,0,0,1837.889,1231.42Z"/>
    <path id="路径_3706" data-name="路径 3706" class="cls-4" d="M1757.719,1254.379"/>
    <path id="路径_3707" data-name="路径 3707" class="cls-4" d="M1757.719,1254.379s-28.681,3.337-43.366,3.289c-5.216,0-13.371,44.84-4.566,49.386s50.55,6.644,57.725-9.092S1757.719,1254.379,1757.719,1254.379Z"/>
    <path id="路径_3708" data-name="路径 3708" class="cls-11" d="M1750.764,1266.543s-20.347,2.68-30.648,2.65c-3.659,0-9.151,27.4-2.974,30.242s35.459,4.149,40.491-5.677S1750.764,1266.543,1750.764,1266.543Z"/>
    <path id="路径_3709" data-name="路径 3709" class="cls-2" d="M1868.271,1338.046s-9.662-6.225-16.185-6.877c-8.914-1.658-51.418-12.121-62.289-11.469s-10.871,2.826-22.612,5.435-43.7,7.881-59.137,3.723c-9.131,1.93-23.263,22.367-40.657,29.542-17.828,8.479-22.387,10.908-26.412,11.977a6.149,6.149,0,0,0,1.183,2.874s27.059-8.763,29.976-12.269c3.706-1.794,16.875-13.509,23.016-19.039,5.973-5.386,10.72-8.808,10.72-8.808s27.034,5.5,69.366-6.684c11.808-2.971,12.82-3.055,12.82-3.055s52.817,7.793,58.146,8.822,7.894,1.4,15.883,5.256C1866.327,1340.518,1867.117,1341.608,1868.271,1338.046Z"/>
    <path id="路径_3710" data-name="路径 3710" class="cls-12" d="M1876.869,1305.582s-2.083,2.268-2.722,2.8-.89-4.721-27.387-11.977-37.9-9.119-38.333-9.217,0-3.174,0-3.174S1847.189,1289.508,1876.869,1305.582Z"/>
    <path id="路径_3711" data-name="路径 3711" class="cls-13" d="M1674.276,1315.549s-2.354-3.911-2.526-4.325-19.151,22.134-42.248,28.33c-1.735,3,0,2.823,0,2.823A99.787,99.787,0,0,0,1674.276,1315.549Z"/>
    <path id="路径_3712" data-name="路径 3712" class="cls-14" d="M1782.5,1180.336s8.712,5.87,9.147,11.958-3.585,8.017-6.305,7.936C1782.266,1200.138,1777.917,1186.641,1782.5,1180.336Z"/>
    <path id="路径_3713" data-name="路径 3713" class="cls-15" d="M1830.119,1172.358s1.464,5.913-3.992,8.3-11.871.435-15.35-.978-22.072-4.245-23.863-2.612l-1.525-1.516s7.1-3.046,19.19.384c4.179,1.108,13,3.662,13.169,3.7S1825.544,1182.1,1830.119,1172.358Z"/>
    <path id="路径_3714" data-name="路径 3714" class="cls-15" d="M1841.125,1173.01a8.3,8.3,0,0,1,0,6.619c-1.594,3.262-5.548,8.588-10.828,7.827s-3.766-1.808-3.766-1.808S1837.176,1188.731,1841.125,1173.01Z"/>
    <path id="路径_3715" data-name="路径 3715" class="cls-16" d="M1738.912,1223.995s-7.456.779-7.447,13.809,24.633,15.9,26.834,16.34l5.531-2.149s-26.431-2.629-27.953-9.913C1733.921,1239.069,1732.055,1232.975,1738.912,1223.995Z"/>
    <path id="路径_3716" data-name="路径 3716" class="cls-16" d="M1668.361,1295.8l.134-6.433s-4.311,19.684-8.659,23.217-14.784,3.152-17.013,2.174-.6-5.513-.638-5.671.024-.753-.851-.068-4.879,6.312.8,7.535c5.172,1.547,12.505,2.585,17.739-.625S1668.651,1296.841,1668.361,1295.8Z"/>
    <ellipse id="椭圆_598" data-name="椭圆 598" class="cls-17" cx="1.879" cy="2.645" rx="1.879" ry="2.645" transform="translate(1877.384 1310.325) rotate(-64.665)"/>
    <ellipse id="椭圆_599" data-name="椭圆 599" class="cls-17" cx="1.879" cy="2.645" rx="1.879" ry="2.645" transform="translate(1874.861 1336.154) rotate(-64.665)"/>
    <ellipse id="椭圆_600" data-name="椭圆 600" class="cls-16" cx="2.645" cy="1.879" rx="2.645" ry="1.879" transform="matrix(0.964, -0.265, 0.265, 0.964, 1632.911, 1372.914)"/>
    <ellipse id="椭圆_601" data-name="椭圆 601" class="cls-16" cx="2.645" cy="1.879" rx="2.645" ry="1.879" transform="matrix(0.909, -0.416, 0.416, 0.909, 1620.069, 1342.572)"/>
  </g>
</svg>
