<svg xmlns="http://www.w3.org/2000/svg" width="243.1" height="185.408" viewBox="0 0 243.1 185.408">
  <defs>
    <style>
      .cls-1 {
        fill: #b6b7b7;
      }

      .cls-2 {
        fill: #707070;
      }

      .cls-3 {
        fill: #513c25;
      }

      .cls-4 {
        fill: #cdd1d1;
      }

      .cls-5 {
        fill: #333;
      }

      .cls-6 {
        fill: #b5b5b5;
      }

      .cls-7 {
        fill: #efefef;
      }

      .cls-8 {
        fill: #3f2f1c;
      }

      .cls-9 {
        fill: #fefefe;
      }

      .cls-10 {
        fill: #e0e0e0;
      }

      .cls-11 {
        fill: #89512a;
      }

      .cls-12 {
        fill: #c6c6c6;
      }

      .cls-13 {
        fill: #aaa;
      }

      .cls-14 {
        fill: #898989;
      }

      .cls-15 {
        fill: #5b5b5b;
      }

      .cls-16 {
        fill: #4f4f4f;
      }

      .cls-17 {
        fill: #191919;
      }
    </style>
  </defs>
  <g id="组_1142" data-name="组 1142" transform="translate(-600.441 -349.567)">
    <path id="路径_2032" data-name="路径 2032" class="cls-1" d="M652.349,480.27s-16.8,14.551-28.562,19.258-12.742,4.511-12.742,4.511l-2.157-7.249s18.231-15.393,18.819-16.52,18.364-15.893,19.572-16.841S657.584,466.5,652.349,480.27Z"/>
    <path id="路径_2033" data-name="路径 2033" class="cls-2" d="M659.287,432.515s-8.252-17.507-30.991-6.121c-7.45,6.121-4.705,17.463-1.569,32.362s2.255,16.074,1.446,17.1-5.537,2.573-4.643-1.1-5.265,3.392-1.458,5.366,13.687,3.161,17.98-.294,7.188-16.467,7.16-17.79S660.7,434.768,659.287,432.515Z"/>
    <path id="路径_2034" data-name="路径 2034" class="cls-1" d="M775.941,451.42s40.044,9.554,53.766,16.462,4.588,4.606,4.588,4.606l-1.588,6.145s-6.762-3.988-8.73-4.59-8.993-3.986-34.889-4.171S765.885,452.9,775.941,451.42Z"/>
    <path id="路径_2035" data-name="路径 2035" class="cls-2" d="M793.69,376.243s20.173-12.93,9.293-24.912c-.22,1.47-2.793,13.085-13.158,11.394,0,0,7.939-7.277,3.234-11.982-1.691,2.867-4.337,8.527-12.129,6.322s-19.334-6.469-27.714-3.6-10.439.612-18.77,21.392c-2.352,8.527-6.371,24.8-16.957,26.072-2.352.49-11.663,2.254-6.665-3.627-2.842,0-15.584,15.879,3.725,23.622,7.449,1.666,13.755,3.562,13.755,3.562s17.9,9.964,27.607-15.618S792.069,375.476,793.69,376.243Z"/>
    <path id="路径_2036" data-name="路径 2036" class="cls-3" d="M795,420.764s-2.419,29.895-15.749,33.227c-7.841.784-6.959-.245-7.057-.441a7.791,7.791,0,0,1,0-1.519s18.417-1.331,17.442-30.928Z"/>
    <path id="路径_2037" data-name="路径 2037" class="cls-4" d="M777.671,419.831s-3.333,36.768-6.665,45.59c14.9,7.449,52.928,21.759,57.045,25.68s3.528,4.7,3.528,4.7-2.156,4.508-3.92,5.88-7.058-4.116-15.291-5.88-51.546-8.882-57.231-8.882-35.875,12.938-74.1,8.782c-5.1,2.057-23.728,23.819-38.43,29.308s-19.015,6.861-19.015,6.861l-2.745-6.665s17.447-14.7,25.288-22.543c7.057-9.8,7.842-15.193,9.018-17.251s-7.351-6.028-7.94-23.377,7.058-33.962,27.935-33.815,43.666.147,52.634-3.529,21.612-6.469,23.524-24.4,1.029-18.378,1.029-18.378-11.468-5.293-6.91-22.348c1.911-7.5,3.087-10,3.087-10s9.116,8.527,11.174,11.615,2.793,9.115,2.646,11.467,13.968-4.263,18.966-2.2,23.651,11.039,27.214,13.676c3.277,2.426,9.57,5.917,9.57,5.917a19.56,19.56,0,0,1,8.028-.712c4.827.711,10.117,10.5,5.676,21.283-8.123,19.723-24.016,21.624-30.338,9.421C799.61,420.249,784.148,422.546,777.671,419.831Z"/>
    <path id="路径_2038" data-name="路径 2038" class="cls-5" d="M623.836,532.61l-2.99-8.821s-7.155-.441-9.066,0-.294,10.292,1.47,11.027S623.463,533.549,623.836,532.61Z"/>
    <path id="路径_2039" data-name="路径 2039" class="cls-5" d="M611.879,503.878s-1.177-8.317-2.991-8.17-6.812-.147-8.135,1.176,1.912,12.029,3.088,11.675S612.048,504.927,611.879,503.878Z"/>
    <path id="路径_2040" data-name="路径 2040" class="cls-5" d="M831.332,495.088s-4.8,5.853-4.9,6.864,3.067,4.671,4.565,5.42,9.931-5.74,9.457-8.4S831.332,495.088,831.332,495.088Z"/>
    <path id="路径_2041" data-name="路径 2041" class="cls-5" d="M835.522,471.066l-6.5,5.466s3.217,5.16,4.335,5.943,9.955-4.139,10.179-5.7S836.68,471.737,835.522,471.066Z"/>
    <path id="路径_2042" data-name="路径 2042" class="cls-6" d="M817.28,426.639c-2.141.859-9.216,3.73-15.833-6.61-5,0-6.451.735-6.451.735s-12.236,1.076-17.325-.933c-5.824-.88-15.283-4.507-15.381-4.8s-1.078-.784-.49-1.421c.833,0,18.468,5.048,23.765,5.195s14.958-.531,15.392-.589c.6-.079,2.769-.98,3.872.785,1.073,1.717,4.193,8.354,12.439,7.571C817.312,426.567,817.321,426.622,817.28,426.639Z"/>
    <path id="路径_2043" data-name="路径 2043" class="cls-7" d="M818.081,390.037s13.48-4.867,14.853,7.894-2.591,18.262-8.953,24.7c-3.372,3.762-5.876,3.991-6.693,4.255,0,0-10.891,2.012-11.773-10.926a39.717,39.717,0,0,1,12.566-25.924"/>
    <ellipse id="椭圆_214" data-name="椭圆 214" class="cls-8" cx="4.522" cy="4.123" rx="4.522" ry="4.123" transform="translate(783.171 381.16)"/>
    <ellipse id="椭圆_215" data-name="椭圆 215" class="cls-9" cx="1.94" cy="2.128" rx="1.94" ry="2.128" transform="matrix(0.622, -0.783, 0.783, 0.622, 782.692, 386.742)"/>
    <ellipse id="椭圆_216" data-name="椭圆 216" class="cls-8" cx="3.507" cy="2.93" rx="3.507" ry="2.93" transform="translate(825.711 409.572) rotate(-69.178)"/>
    <path id="路径_2044" data-name="路径 2044" class="cls-10" d="M816.8,391.27s-19.027-11.195-23.023-14.172c-.4-.3-.663-.742-.382-1.15.034-.049-1.066.773-1.044.764.445-.172-.441-2.628,8.054,2.778,11.214,5.561,16.924,7.9,17.677,10.547A2.658,2.658,0,0,1,816.8,391.27Z"/>
    <path id="路径_2045" data-name="路径 2045" class="cls-3" d="M818.081,390.037s-7.665-4.559-16.634,29.992c-2.205,2.058-6.434,1.47-6.451.735s7.9-34.18,18.806-34.218C818.392,387.978,818.1,388.714,818.081,390.037Z"/>
    <path id="路径_2046" data-name="路径 2046" class="cls-3" d="M800.066,403.995s-44.213.475-48.1-10.393a8.42,8.42,0,0,0-1.191,6.481c0,.49,15.974,12.1,47.928,7.713A5.156,5.156,0,0,0,800.066,403.995Z"/>
    <path id="路径_2047" data-name="路径 2047" class="cls-3" d="M727.781,424.7"/>
    <path id="路径_2048" data-name="路径 2048" class="cls-3" d="M727.781,424.7s-25.86,3.01-39.1,2.967c-4.7,0-12.056,40.429-4.117,44.528s45.577,5.99,52.046-8.2S727.781,424.7,727.781,424.7Z"/>
    <path id="路径_2049" data-name="路径 2049" class="cls-11" d="M721.51,435.663s-18.345,2.416-27.633,2.39c-3.3,0-8.251,24.708-2.682,27.267s31.971,3.741,36.509-5.119S721.51,435.663,721.51,435.663Z"/>
    <path id="路径_2050" data-name="路径 2050" class="cls-6" d="M827.459,500.133s-8.712-5.613-14.593-6.2c-8.037-1.494-46.361-10.928-56.162-10.34s-9.8,2.548-20.388,4.9-39.4,7.106-53.32,3.357c-8.233,1.74-20.975,20.167-36.658,26.636-16.074,7.645-20.185,9.835-23.814,10.8a5.54,5.54,0,0,0,1.067,2.591s24.4-7.9,27.027-11.062c3.342-1.617,15.215-12.18,20.752-17.167,5.386-4.856,9.666-7.94,9.666-7.94s24.375,4.96,62.543-6.027c10.646-2.679,11.558-2.755,11.558-2.755s47.622,7.027,52.427,7.954,7.117,1.259,14.321,4.739C825.706,502.362,826.418,503.345,827.459,500.133Z"/>
    <path id="路径_2051" data-name="路径 2051" class="cls-12" d="M835.211,470.863s-1.878,2.044-2.454,2.528-.8-4.257-24.693-10.8-34.172-8.222-34.562-8.31,0-2.862,0-2.862S808.45,456.369,835.211,470.863Z"/>
    <path id="路径_2052" data-name="路径 2052" class="cls-13" d="M652.546,479.849s-2.123-3.527-2.277-3.9S633,495.906,612.176,501.493c-1.564,2.707,0,2.545,0,2.545A89.968,89.968,0,0,0,652.546,479.849Z"/>
    <path id="路径_2053" data-name="路径 2053" class="cls-6" d="M750.123,357.936s7.855,5.293,8.247,10.782-3.233,7.228-5.685,7.155C749.914,375.79,745.992,363.621,750.123,357.936Z"/>
    <path id="路径_2054" data-name="路径 2054" class="cls-14" d="M793.059,350.743s1.321,5.331-3.6,7.487-10.7.392-13.84-.882-19.9-3.828-21.516-2.355l-1.375-1.367s6.4-2.746,17.3.346c3.768,1,11.718,3.3,11.873,3.333S788.935,359.526,793.059,350.743Z"/>
    <path id="路径_2055" data-name="路径 2055" class="cls-14" d="M802.983,351.331a7.48,7.48,0,0,1,0,5.968c-1.437,2.94-5,7.743-9.763,7.057s-3.395-1.631-3.395-1.631S799.422,365.505,802.983,351.331Z"/>
    <path id="路径_2056" data-name="路径 2056" class="cls-15" d="M710.824,397.3s-6.723.7-6.714,12.451,22.21,14.336,24.194,14.733l4.987-1.938s-23.831-2.37-25.2-8.937C706.324,410.892,704.641,405.4,710.824,397.3Z"/>
    <path id="路径_2057" data-name="路径 2057" class="cls-15" d="M647.212,462.039l.122-5.8s-3.887,17.747-7.808,20.933-13.33,2.842-15.339,1.96-.541-4.971-.575-5.113.021-.679-.768-.062-4.4,5.692.722,6.794c4.664,1.395,11.275,2.332,15.995-.563S647.474,462.981,647.212,462.039Z"/>
    <ellipse id="椭圆_217" data-name="椭圆 217" class="cls-16" cx="1.694" cy="2.385" rx="1.694" ry="2.385" transform="translate(835.676 475.139) rotate(-64.665)"/>
    <ellipse id="椭圆_218" data-name="椭圆 218" class="cls-16" cx="1.694" cy="2.385" rx="1.694" ry="2.385" transform="translate(833.401 498.427) rotate(-64.665)"/>
    <ellipse id="椭圆_219" data-name="椭圆 219" class="cls-17" cx="2.385" cy="1.694" rx="2.385" ry="1.694" transform="matrix(0.964, -0.265, 0.265, 0.964, 615.249, 531.572)"/>
    <ellipse id="椭圆_220" data-name="椭圆 220" class="cls-17" cx="2.385" cy="1.694" rx="2.385" ry="1.694" transform="matrix(0.909, -0.416, 0.416, 0.909, 603.671, 504.213)"/>
  </g>
</svg>
