<svg xmlns="http://www.w3.org/2000/svg" width="188.714" height="143.928" viewBox="0 0 188.714 143.928">
  <defs>
    <style>
      .cls-1 {
        fill: #d34040;
      }

      .cls-2 {
        fill: #b22626;
      }

      .cls-3 {
        fill: #513c25;
      }

      .cls-4 {
        fill: #e84949;
      }

      .cls-5 {
        fill: #300e15;
      }

      .cls-6 {
        fill: #f95d5d;
      }

      .cls-7 {
        fill: #3f2f1c;
      }

      .cls-8 {
        fill: #fefefe;
      }

      .cls-9 {
        fill: #f46767;
      }

      .cls-10 {
        fill: #89512a;
      }

      .cls-11 {
        fill: #d84e4e;
      }

      .cls-12 {
        fill: #c13a3a;
      }

      .cls-13 {
        fill: #a53737;
      }

      .cls-14 {
        fill: #ba3a3a;
      }

      .cls-15 {
        fill: #9b1f1f;
      }

      .cls-16 {
        fill: #56222e;
      }

      .cls-17 {
        fill: #19070c;
      }
    </style>
  </defs>
  <g id="组_1139" data-name="组 1139" transform="translate(-17.24 -181.11)">
    <path id="路径_1954" data-name="路径 1954" class="cls-1" d="M57.535,282.572s-13.042,11.3-22.172,14.95-9.891,3.5-9.891,3.5L23.8,295.4s14.152-11.949,14.608-12.824S52.662,270.235,53.6,269.5,61.6,271.882,57.535,282.572Z"/>
    <path id="路径_1955" data-name="路径 1955" class="cls-2" d="M62.921,245.5s-6.406-13.59-24.058-4.751c-5.783,4.751-3.652,13.556-1.217,25.121s1.75,12.479,1.122,13.277-4.3,2-3.605-.856-4.087,2.634-1.132,4.166,10.626,2.454,13.959-.228,5.58-12.783,5.558-13.81S64.02,247.25,62.921,245.5Z"/>
    <path id="路径_1956" data-name="路径 1956" class="cls-1" d="M153.477,260.177s31.086,7.416,41.738,12.778,3.561,3.576,3.561,3.576l-1.233,4.771a64.3,64.3,0,0,0-6.777-3.564c-1.527-.468-6.981-3.094-27.083-3.237S145.671,261.325,153.477,260.177Z"/>
    <path id="路径_1957" data-name="路径 1957" class="cls-2" d="M167.255,201.819s15.66-10.038,7.214-19.339c-.171,1.141-2.168,10.157-10.214,8.845,0,0,6.163-5.65,2.511-9.3-1.313,2.226-3.367,6.62-9.416,4.908s-15.008-5.022-21.514-2.8-8.1.475-14.571,16.606c-1.826,6.619-4.945,19.25-13.163,20.239-1.826.38-9.054,1.75-5.174-2.815-2.206,0-12.1,12.326,2.892,18.337,5.782,1.293,10.678,2.765,10.678,2.765s13.9,7.735,21.431-12.124S166,201.223,167.255,201.819Z"/>
    <path id="路径_1958" data-name="路径 1958" class="cls-3" d="M168.269,236.379s-1.878,23.206-12.226,25.793c-6.086.609-5.4-.19-5.478-.342a6.054,6.054,0,0,1,0-1.179s14.3-1.033,13.54-24.009Z"/>
    <path id="路径_1959" data-name="路径 1959" class="cls-4" d="M154.82,235.655s-2.587,28.542-5.174,35.39c11.565,5.783,41.087,16.891,44.283,19.935s2.739,3.652,2.739,3.652-1.674,3.5-3.044,4.565-5.478-3.195-11.869-4.565-40.014-6.894-44.427-6.894-27.85,10.043-57.524,6.817c-3.956,1.6-18.419,18.49-29.832,22.751s-14.761,5.326-14.761,5.326l-2.131-5.174s13.544-11.413,19.631-17.5c5.478-7.608,6.087-11.793,7-13.391S54,281.888,53.548,268.42s5.478-26.364,21.685-26.25,33.9.114,40.859-2.739,16.777-5.022,18.26-18.946.8-14.266.8-14.266-8.9-4.109-5.364-17.348a50.942,50.942,0,0,1,2.4-7.761s7.076,6.62,8.674,9.016,2.168,7.076,2.054,8.9,10.843-3.31,14.723-1.712,18.36,8.569,21.125,10.616c2.544,1.883,7.429,4.593,7.429,4.593a15.182,15.182,0,0,1,6.232-.552c3.748.551,7.854,8.15,4.406,16.521-6.3,15.311-18.642,16.786-23.55,7.313C171.851,235.979,159.848,237.762,154.82,235.655Z"/>
    <path id="路径_1960" data-name="路径 1960" class="cls-5" d="M35.4,323.2l-2.321-6.848s-5.554-.342-7.038,0-.228,7.989,1.142,8.56S35.112,323.932,35.4,323.2Z"/>
    <path id="路径_1961" data-name="路径 1961" class="cls-5" d="M26.119,300.9s-.914-6.457-2.321-6.343-5.288-.114-6.316.913,1.484,9.338,2.4,9.063S26.25,301.713,26.119,300.9Z"/>
    <path id="路径_1962" data-name="路径 1962" class="cls-5" d="M196.476,294.075s-3.728,4.544-3.8,5.328,2.381,3.626,3.543,4.208,7.71-4.456,7.342-6.523S196.476,294.075,196.476,294.075Z"/>
    <path id="路径_1963" data-name="路径 1963" class="cls-5" d="M199.728,275.428l-5.046,4.242s2.5,4.006,3.366,4.614,7.728-3.213,7.9-4.428S200.627,275.949,199.728,275.428Z"/>
    <path id="路径_1964" data-name="路径 1964" class="cls-1" d="M185.568,240.939c-1.662.668-7.155,2.9-12.291-5.131-3.88,0-5.008.571-5.008.571s-9.5.835-13.449-.724a54.8,54.8,0,0,1-11.94-3.727c-.076-.228-.837-.609-.38-1.1.647,0,14.336,3.918,18.448,4.032s11.611-.412,11.949-.456c.466-.062,2.149-.761,3,.608.833,1.333,3.255,6.486,9.657,5.878C185.593,240.883,185.6,240.927,185.568,240.939Z"/>
    <path id="路径_1965" data-name="路径 1965" class="cls-6" d="M186.189,212.526s10.465-3.778,11.531,6.128-2.012,14.177-6.95,19.175c-2.618,2.921-4.562,3.1-5.2,3.3,0,0-8.454,1.562-9.139-8.481a30.832,30.832,0,0,1,9.754-20.125"/>
    <ellipse id="椭圆_193" data-name="椭圆 193" class="cls-7" cx="3.51" cy="3.2" rx="3.51" ry="3.2" transform="translate(159.089 205.635)"/>
    <ellipse id="椭圆_194" data-name="椭圆 194" class="cls-8" cx="1.506" cy="1.652" rx="1.506" ry="1.652" transform="matrix(0.622, -0.783, 0.783, 0.622, 158.718, 209.969)"/>
    <ellipse id="椭圆_195" data-name="椭圆 195" class="cls-7" cx="2.722" cy="2.274" rx="2.722" ry="2.274" transform="translate(192.112 227.691) rotate(-69.178)"/>
    <path id="路径_1966" data-name="路径 1966" class="cls-9" d="M185.194,213.483s-14.77-8.69-17.872-11c-.308-.23-.515-.576-.3-.893.026-.038-.828.6-.811.593.346-.133-.342-2.04,6.252,2.156,8.705,4.318,13.138,6.134,13.722,8.188A2.056,2.056,0,0,1,185.194,213.483Z"/>
    <path id="路径_1967" data-name="路径 1967" class="cls-3" d="M186.189,212.526s-5.95-3.539-12.912,23.282c-1.712,1.6-4.995,1.142-5.008.571s6.129-26.533,14.6-26.563C186.431,210.928,186.2,211.5,186.189,212.526Z"/>
    <path id="路径_1968" data-name="路径 1968" class="cls-3" d="M172.2,223.362s-34.321.368-37.339-8.068a6.535,6.535,0,0,0-.925,5.03c0,.381,12.4,9.39,37.206,5.989A4,4,0,0,0,172.2,223.362Z"/>
    <path id="路径_1969" data-name="路径 1969" class="cls-3" d="M116.092,239.431"/>
    <path id="路径_1970" data-name="路径 1970" class="cls-3" d="M116.092,239.431s-20.075,2.336-30.353,2.3c-3.651,0-9.359,31.385-3.2,34.567s35.381,4.65,40.4-6.364S116.092,239.431,116.092,239.431Z"/>
    <path id="路径_1971" data-name="路径 1971" class="cls-10" d="M111.224,247.945s-14.242,1.876-21.452,1.855c-2.561,0-6.405,19.18-2.081,21.167s24.818,2.9,28.341-3.974S111.224,247.945,111.224,247.945Z"/>
    <path id="路径_1972" data-name="路径 1972" class="cls-1" d="M193.469,297.992s-6.762-4.357-11.328-4.814c-6.239-1.16-35.989-8.484-43.6-8.027s-7.608,1.978-15.826,3.8-30.587,5.516-41.391,2.606c-6.391,1.351-16.283,15.655-28.457,20.677-12.478,5.935-15.669,7.635-18.487,8.383a4.3,4.3,0,0,0,.829,2.011s18.939-6.133,20.981-8.587C58.786,312.789,68,304.59,72.3,300.719c4.181-3.77,7.5-6.164,7.5-6.164s18.922,3.85,48.551-4.679c8.265-2.079,8.973-2.138,8.973-2.138s36.968,5.454,40.7,6.174a34.7,34.7,0,0,1,11.117,3.679C192.109,299.721,192.661,300.485,193.469,297.992Z"/>
    <path id="路径_1973" data-name="路径 1973" class="cls-11" d="M199.487,275.27s-1.458,1.586-1.9,1.962-.623-3.3-19.169-8.383-26.526-6.383-26.829-6.451,0-2.221,0-2.221S178.713,264.019,199.487,275.27Z"/>
    <path id="路径_1974" data-name="路径 1974" class="cls-12" d="M57.688,282.246s-1.648-2.738-1.768-3.028-13.4,15.492-29.57,19.829c-1.215,2.1,0,1.976,0,1.976A69.845,69.845,0,0,0,57.688,282.246Z"/>
    <path id="路径_1975" data-name="路径 1975" class="cls-13" d="M133.435,187.607s6.1,4.109,6.4,8.37-2.509,5.611-4.413,5.554C133.273,201.467,130.228,192.02,133.435,187.607Z"/>
    <path id="路径_1976" data-name="路径 1976" class="cls-14" d="M166.766,182.023s1.025,4.138-2.794,5.812-8.309.3-10.744-.685-15.449-2.971-16.7-1.828l-1.068-1.061s4.972-2.132,13.432.269c2.925.775,9.1,2.563,9.217,2.587S163.564,188.841,166.766,182.023Z"/>
    <path id="路径_1977" data-name="路径 1977" class="cls-14" d="M174.469,182.48a5.8,5.8,0,0,1,0,4.632c-1.116,2.283-3.883,6.011-7.578,5.479s-2.636-1.266-2.636-1.266S171.705,193.483,174.469,182.48Z"/>
    <path id="路径_1978" data-name="路径 1978" class="cls-15" d="M102.928,218.165s-5.219.545-5.212,9.665,17.241,11.129,18.782,11.437l3.871-1.505s-18.5-1.84-19.565-6.937C99.435,228.716,98.129,224.45,102.928,218.165Z"/>
    <path id="路径_1979" data-name="路径 1979" class="cls-15" d="M53.548,268.42l.094-4.5s-3.017,13.777-6.061,16.25-10.348,2.207-11.907,1.522-.42-3.859-.447-3.969.017-.527-.6-.048-3.415,4.418.561,5.274c3.62,1.082,8.752,1.81,12.416-.437S53.751,269.151,53.548,268.42Z"/>
    <ellipse id="椭圆_196" data-name="椭圆 196" class="cls-16" cx="1.315" cy="1.852" rx="1.315" ry="1.852" transform="translate(199.848 278.589) rotate(-64.665)"/>
    <ellipse id="椭圆_197" data-name="椭圆 197" class="cls-16" cx="1.315" cy="1.852" rx="1.315" ry="1.852" transform="translate(198.082 296.667) rotate(-64.665)"/>
    <ellipse id="椭圆_198" data-name="椭圆 198" class="cls-17" cx="1.852" cy="1.315" rx="1.852" ry="1.315" transform="matrix(0.964, -0.265, 0.265, 0.964, 28.736, 322.397)"/>
    <ellipse id="椭圆_199" data-name="椭圆 199" class="cls-17" cx="1.852" cy="1.315" rx="1.852" ry="1.315" transform="matrix(0.909, -0.416, 0.416, 0.909, 19.748, 301.159)"/>
  </g>
</svg>
