<svg xmlns="http://www.w3.org/2000/svg" width="311.726" height="242.489" viewBox="0 0 311.726 242.489">
  <defs>
    <style>
      .cls-1, .cls-13 {
        fill: #544029;
      }

      .cls-1 {
        stroke-linecap: round;
        stroke-linejoin: round;
      }

      .cls-2 {
        fill: #89512a;
      }

      .cls-3 {
        fill: #3f2f1c;
      }

      .cls-4 {
        fill: #513c25;
      }

      .cls-5 {
        fill: #bb7e53;
      }

      .cls-6 {
        fill: #aa6f46;
      }

      .cls-7 {
        fill: #cda474;
      }

      .cls-8 {
        fill: #fefefe;
      }

      .cls-9 {
        fill: #ce8e63;
      }

      .cls-10 {
        fill: #9b643e;
      }

      .cls-11 {
        fill: #774726;
      }

      .cls-12 {
        fill: #935525;
      }

      .cls-14 {
        fill: #302315;
      }

      .cls-15 {
        fill: #5b452e;
      }

      .cls-16, .cls-17 {
        stroke: none;
      }

      .cls-17 {
        fill: #fff;
      }
    </style>
  </defs>
  <g id="组_1807" data-name="组 1807" transform="translate(324.725 -1152.626)">
    <g id="组_1806" data-name="组 1806">
      <g id="路径_3529" data-name="路径 3529" class="cls-1">
        <path class="cls-16" d="M -297.9081726074219 1390.11572265625 C -299.2557067871094 1390.11572265625 -300.3219909667969 1389.932983398438 -301.2638244628906 1389.54052734375 C -302.8658447265625 1388.873046875 -304.0979919433594 1387.5537109375 -305.0309143066406 1385.506958007813 C -305.5134582519531 1384.448486328125 -305.9370422363281 1383.162109375 -306.2899475097656 1381.683715820313 C -306.975830078125 1378.810180664063 -307.2718200683594 1375.748046875 -307.081787109375 1373.492431640625 C -306.9823303222656 1372.312377929688 -306.7547912597656 1371.3154296875 -306.3861083984375 1370.444580078125 C -305.5916137695313 1368.567749023438 -304.0762329101563 1367.2470703125 -302.2286376953125 1366.820922851563 C -301.4963684082031 1366.651977539063 -300.2699584960938 1366.457885742188 -297.2654113769531 1366.457885742188 C -294.2361755371094 1366.457885742188 -290.789306640625 1366.651000976563 -290.05517578125 1366.694213867188 C -283.7818603515625 1361.340576171875 -270.7269897460938 1350.072631835938 -263.7026672363281 1343.096557617188 C -259.0169372558594 1336.531372070313 -256.8688659667969 1331.793701171875 -255.6034240722656 1328.552490234375 C -257.2701721191406 1329.87255859375 -259.1903381347656 1331.359130859375 -261.2788391113281 1332.915649414063 C -270.6565856933594 1339.904907226563 -278.5834045410156 1344.71826171875 -284.839111328125 1347.221923828125 C -290.7064514160156 1349.569946289063 -295.0984802246094 1351.209350585938 -297.9425659179688 1352.11376953125 C -298.3284301757813 1352.483520507813 -298.7863159179688 1352.853759765625 -299.3312377929688 1353.237426757813 C -300.223876953125 1353.865844726563 -301.4142456054688 1354.574096679688 -302.869384765625 1355.342651367188 C -304.9454040527344 1356.438842773438 -307.8778381347656 1357.809204101563 -309.191650390625 1358.204711914063 C -309.6816101074219 1358.352294921875 -310.190673828125 1358.42724609375 -310.7037353515625 1358.42724609375 C -312.07861328125 1358.42724609375 -313.4154968261719 1357.8828125 -314.4681701660156 1356.893920898438 C -314.8946228027344 1356.493286132813 -315.2804870605469 1356.019897460938 -315.6478576660156 1355.446411132813 C -316.0814514160156 1354.76953125 -316.502197265625 1353.93359375 -316.9341735839844 1352.890747070313 C -317.8422546386719 1350.698608398438 -318.7210083007813 1347.748901367188 -319.2276306152344 1345.192749023438 C -319.5252380371094 1343.69091796875 -319.6873168945313 1342.36962890625 -319.7093811035156 1341.265625 C -319.7265319824219 1340.402954101563 -319.7789001464844 1337.77783203125 -317.8725891113281 1335.871459960938 C -315.4179992675781 1333.415405273438 -311.512451171875 1333.152221679688 -306.6619262695313 1333.063720703125 C -306.0028991699219 1333.051635742188 -305.3215026855469 1333.039184570313 -304.9803771972656 1333.011474609375 C -304.9494934082031 1333.008911132813 -304.9186096191406 1333.006713867188 -304.8876953125 1333.004760742188 C -300.7467956542969 1329.48779296875 -296.3115539550781 1325.687744140625 -292.7394714355469 1322.571166992188 C -293.74365234375 1321.667114257813 -294.4866027832031 1320.525146484375 -294.8934020996094 1319.23291015625 C -295.3554077148438 1317.765258789063 -295.3832397460938 1316.17431640625 -294.97607421875 1314.504272460938 C -294.5902404785156 1312.921997070313 -293.7987060546875 1311.278442382813 -292.7472534179688 1309.87646484375 C -291.1181945800781 1307.704223632813 -289.2578735351563 1306.602905273438 -287.2178649902344 1306.602905273438 C -286.7508239746094 1306.602905273438 -286.2936096191406 1306.662963867188 -285.8552551269531 1306.778564453125 C -286.2489624023438 1303.836303710938 -286.9896850585938 1299.775024414063 -288.0617370605469 1294.68310546875 C -288.2051696777344 1294.001586914063 -288.3478698730469 1293.32666015625 -288.4892578125 1292.657958984375 C -290.3457336425781 1283.876342773438 -291.9490661621094 1276.292236328125 -292.0043029785156 1269.582153320313 C -292.0363159179688 1265.683715820313 -291.5358276367188 1262.373779296875 -290.4741516113281 1259.46337890625 C -289.2414245605469 1256.083984375 -287.2182922363281 1253.221801757813 -284.4609985351563 1250.95654296875 L -284.0274047851563 1250.600341796875 L -283.5256652832031 1250.34912109375 C -276.7044067382813 1246.933471679688 -270.2117004394531 1245.20166015625 -264.2278747558594 1245.20166015625 C -257.0182495117188 1245.20166015625 -250.4821624755859 1247.731811523438 -245.3262023925781 1252.518432617188 C -244.2144317626953 1253.550659179688 -243.2783508300781 1254.5849609375 -242.5052795410156 1255.54248046875 C -237.5014801025391 1253.198608398438 -231.7672119140625 1252.013793945313 -225.3934936523438 1252.013793945313 C -225.2729187011719 1252.013793945313 -225.151123046875 1252.014282226563 -225.0298767089844 1252.01513671875 C -221.2474212646484 1252.041870117188 -216.7912445068359 1252.069213867188 -212.4181213378906 1252.069213867188 C -202.8484497070313 1252.069091796875 -192.2347869873047 1251.946044921875 -183.0909881591797 1251.323974609375 C -187.5196228027344 1249.0361328125 -190.7964782714844 1246.16455078125 -192.8568725585938 1242.758544921875 C -195.1272888183594 1239.005493164063 -195.8694152832031 1234.649780273438 -195.0031280517578 1230.162231445313 C -194.329833984375 1226.674560546875 -192.6664123535156 1223.10546875 -190.3192443847656 1220.112548828125 C -189.3097076416016 1218.8251953125 -188.2097473144531 1217.699951171875 -187.1382904052734 1216.858642578125 C -185.4660034179688 1215.545288085938 -183.8676605224609 1214.906982421875 -182.2519989013672 1214.906982421875 L -171.439208984375 1214.906982421875 L -175.2173004150391 1219.351440429688 L -175.0639495849609 1219.319458007813 L -174.8515319824219 1219.2939453125 C -166.0037841796875 1218.228881835938 -161.5024108886719 1201.782958984375 -159.0840759277344 1192.947509765625 C -158.9611206054688 1192.498168945313 -158.8418273925781 1192.0625 -158.7259521484375 1191.642333984375 L -158.6512908935547 1191.371704101563 L -158.5468292236328 1191.111206054688 C -155.1072540283203 1182.532958984375 -152.4882049560547 1177.034912109375 -150.0547485351563 1173.2841796875 C -148.0879058837891 1170.252685546875 -146.0678100585938 1168.1103515625 -143.6950988769531 1166.579345703125 C -142.4690551757813 1162.534423828125 -141.7112426757813 1160.836303710938 -141.5549163818359 1160.503051757813 L -138.6343383789063 1154.275146484375 L -133.6116638183594 1158.97509765625 C -133.5412750244141 1159.041015625 -132.2996520996094 1160.203735351563 -130.5640563964844 1161.880859375 C -128.4433898925781 1161.395751953125 -126.1419219970703 1161.150756835938 -123.6917877197266 1161.150756835938 C -115.7744979858398 1161.150756835938 -107.3628311157227 1163.66455078125 -100.6039581298828 1165.684448242188 C -99.24466705322266 1166.090698242188 -97.96079254150391 1166.474487304688 -96.76449584960938 1166.81298828125 C -95.80483245849609 1167.084594726563 -94.92932891845703 1167.222290039063 -94.16204071044922 1167.22216796875 C -91.58945465087891 1167.221923828125 -90.32770538330078 1165.750854492188 -88.30245208740234 1162.231689453125 C -88.15628814697266 1161.977661132813 -88.01824951171875 1161.73779296875 -87.876708984375 1161.497802734375 L -84.59770202636719 1155.938354492188 L -80.03416442871094 1160.502807617188 C -78.51544952392578 1162.021728515625 -77.50962829589844 1163.816528320313 -77.05707550048828 1165.787719726563 C -76.73041534423828 1164.734497070313 -76.60761260986328 1164.01513671875 -76.60549926757813 1164.001098632813 L -75.04054260253906 1153.58349609375 L -67.95916748046875 1161.382934570313 C -65.913330078125 1163.63623046875 -64.45458221435547 1166.081176757813 -63.62349700927734 1168.649536132813 C -62.83916473388672 1171.073608398438 -62.61003875732422 1173.60791015625 -62.94241333007813 1176.182373046875 C -63.33533096313477 1179.225463867188 -64.5174560546875 1182.32861328125 -66.45599365234375 1185.405517578125 C -67.90583038330078 1187.706787109375 -69.79241180419922 1190.0166015625 -72.06341552734375 1192.270629882813 C -72.54714965820313 1192.750854492188 -73.028076171875 1193.208618164063 -73.50067138671875 1193.643310546875 C -68.63504028320313 1196.12109375 -64.04207611083984 1198.599853515625 -62.05432891845703 1200.070434570313 C -59.52583694458008 1201.942260742188 -55.23313903808594 1204.4697265625 -52.84744262695313 1205.838623046875 C -51.30205154418945 1205.500854492188 -49.10715484619141 1205.152954101563 -46.62366485595703 1205.152954101563 C -45.45841598510742 1205.152954101563 -44.3121223449707 1205.230834960938 -43.21662139892578 1205.384521484375 L -43.19966506958008 1205.386840820313 L -43.18270492553711 1205.389404296875 C -41.17349624633789 1205.685180664063 -39.16999816894531 1206.633056640625 -37.38883209228516 1208.130493164063 C -35.84399795532227 1209.429321289063 -34.48487091064453 1211.1005859375 -33.34916305541992 1213.09814453125 C -31.51199722290039 1216.329467773438 -30.40653991699219 1220.173461914063 -30.15228843688965 1224.214599609375 C -29.86545562744141 1228.774169921875 -30.64749717712402 1233.338256835938 -32.47670745849609 1237.780029296875 C -34.00424575805664 1241.4892578125 -35.80716323852539 1244.86083984375 -37.83528900146484 1247.801147460938 C -39.81032943725586 1250.664428710938 -42.01074600219727 1253.1376953125 -44.37537384033203 1255.152099609375 C -49.13495635986328 1259.206665039063 -54.46828842163086 1261.349853515625 -59.7987060546875 1261.349853515625 C -63.53724670410156 1261.349853515625 -67.17179107666016 1260.259643554688 -70.30933380126953 1258.197021484375 C -72.52778625488281 1256.738647460938 -74.46143341064453 1254.846069335938 -76.08528137207031 1252.54736328125 C -76.29549407958984 1252.572509765625 -76.51319885253906 1252.598022460938 -76.73900604248047 1252.624145507813 C -77.17903137207031 1255.8564453125 -77.97293090820313 1260.63720703125 -79.31583404541016 1265.76171875 C -81.31850433349609 1273.403930664063 -83.92697906494141 1279.495361328125 -87.11257934570313 1283.988037109375 C -80.85276031494141 1285.632934570313 -73.53878021240234 1287.6298828125 -66.29178619384766 1289.777587890625 C -52.79266357421875 1293.778198242188 -43.05316543579102 1297.263916015625 -37.34383010864258 1300.137939453125 C -33.76612091064453 1301.939208984375 -31.21095657348633 1303.350341796875 -29.53199768066406 1304.452270507813 C -28.57403945922852 1305.0810546875 -27.87532997131348 1305.624877929688 -27.33316421508789 1306.163696289063 C -26.85087203979492 1306.642944335938 -26.47499656677246 1307.135131835938 -26.18395614624023 1307.668212890625 C -25.54008102416992 1308.847900390625 -25.35170555114746 1310.197509765625 -25.6535816192627 1311.468505859375 C -26.08795547485352 1313.296997070313 -27.44862174987793 1314.727172851563 -29.29341316223145 1315.294189453125 C -29.62032127380371 1315.394653320313 -29.95869445800781 1315.467407226563 -30.31431579589844 1315.513427734375 L -31.15320587158203 1318.757690429688 L -32.81533050537109 1325.185546875 L -38.53408050537109 1321.812744140625 C -42.51676940917969 1319.464233398438 -46.91186141967773 1317.110595703125 -47.94082260131836 1316.775390625 C -48.25426864624023 1316.679321289063 -48.5766716003418 1316.565551757813 -48.94962310791016 1316.43408203125 C -51.26327896118164 1315.618286132813 -57.24929046630859 1313.507446289063 -72.64553070068359 1312.514526367188 C -65.12895202636719 1315.666748046875 -58.07991790771484 1318.6396484375 -52.23933029174805 1321.256958007813 C -42.61883163452148 1325.568237304688 -39.64233016967773 1327.408813476563 -38.13295745849609 1328.84619140625 C -36.59537506103516 1330.310546875 -35.40322113037109 1331.587158203125 -34.51340484619141 1332.729125976563 C -33.32712173461914 1332.96875 -31.84416389465332 1333.311157226563 -30.37112236022949 1333.76416015625 C -28.5511646270752 1334.323852539063 -27.08278846740723 1334.942260742188 -25.88212203979492 1335.655029296875 C -24.96062278747559 1336.202026367188 -24.20987319946289 1336.795532226563 -23.58695602416992 1337.469604492188 C -22.61495590209961 1338.521484375 -22.0035400390625 1339.72021484375 -21.76958084106445 1341.032592773438 C -21.34228897094727 1343.435302734375 -22.24228858947754 1345.924072265625 -24.52066421508789 1348.642944335938 C -26.03066444396973 1350.44482421875 -28.19303894042969 1352.397827148438 -30.45328903198242 1354.001220703125 C -34.32212066650391 1356.74560546875 -36.43101501464844 1357.063720703125 -37.68076705932617 1357.063720703125 C -37.68122482299805 1357.063720703125 -37.68154144287109 1357.063720703125 -37.68199920654297 1357.063720703125 C -38.60966491699219 1357.063598632813 -39.48349761962891 1356.861572265625 -40.27920532226563 1356.463500976563 C -42.2645378112793 1355.471435546875 -44.28020477294922 1353.302978515625 -45.30483245849609 1352.098754882813 C -46.20736312866211 1351.0380859375 -46.90643692016602 1350.079833984375 -47.41891098022461 1349.186767578125 C -48.32529449462891 1348.752075195313 -49.28197479248047 1348.2236328125 -50.34499740600586 1347.636596679688 C -53.31762313842773 1345.994750976563 -57.01716232299805 1343.951538085938 -61.44774627685547 1343.002075195313 C -66.21599578857422 1341.980224609375 -81.68770599365234 1339.312133789063 -96.67062377929688 1336.927978515625 C -117.4185409545898 1333.62646484375 -127.0949554443359 1332.454956054688 -129.0769958496094 1332.454956054688 C -129.1739501953125 1332.456665039063 -129.7817077636719 1332.489624023438 -131.8029174804688 1332.97314453125 C -133.4048309326172 1333.356323242188 -135.4559936523438 1333.913452148438 -137.8310852050781 1334.55859375 C -144.1168670654297 1336.26611328125 -152.7255859375 1338.604370117188 -163.1912841796875 1340.533935546875 C -168.9294586181641 1341.591918945313 -174.6603698730469 1342.415649414063 -180.2247924804688 1342.982543945313 C -186.727294921875 1343.644897460938 -193.2322082519531 1343.980712890625 -199.558837890625 1343.980712890625 C -205.3949737548828 1343.980712890625 -211.2298126220703 1343.695068359375 -216.9271087646484 1343.131103515625 C -217.4822998046875 1343.520751953125 -218.3643341064453 1344.19482421875 -219.7184906005859 1345.352294921875 C -221.6822509765625 1347.031005859375 -224.0237121582031 1349.18701171875 -226.7349548339844 1351.68359375 C -231.4813232421875 1356.05419921875 -237.3883666992188 1361.49365234375 -243.4261169433594 1366.26611328125 C -250.7027435302734 1372.017944335938 -256.8977966308594 1375.80615234375 -262.3653259277344 1377.84716796875 C -273.2364196777344 1381.906005859375 -279.399658203125 1384.099365234375 -282.5686645507813 1385.19775390625 C -283.6763916015625 1386.78515625 -285.4293518066406 1387.4658203125 -286.2571716308594 1387.787231445313 C -287.4887390136719 1388.265258789063 -288.9048156738281 1388.658325195313 -289.8759460449219 1388.90380859375 C -291.0004577636719 1389.188110351563 -294.9029846191406 1390.11572265625 -297.9081726074219 1390.11572265625 Z M -97.61077117919922 1253.125244140625 C -98.17269897460938 1258.724975585938 -99.12274169921875 1267.677124023438 -100.2800827026367 1276.546142578125 L -89.36312866210938 1253.5126953125 C -89.75333404541016 1253.518310546875 -90.14321136474609 1253.521118164063 -90.53241729736328 1253.521118164063 C -93.18752288818359 1253.521118164063 -95.53926849365234 1253.390258789063 -97.61077117919922 1253.125244140625 Z"/>
        <path class="cls-17" d="M -297.9081726074219 1385.115600585938 C -294.4028930664063 1385.115600585938 -287.0188598632813 1383.236328125 -286.6380004882813 1382.279052734375 L -286.9599914550781 1381.329956054688 L -286.9320068359375 1381.39599609375 C -286.9320068359375 1381.39599609375 -281.7569885253906 1379.75 -264.1139831542969 1373.162963867188 C -246.4720001220703 1366.577026367188 -224.114990234375 1340.462036132813 -217.9980010986328 1337.993041992188 C -211.6509857177734 1338.683227539063 -205.4843292236328 1338.980712890625 -199.5588684082031 1338.980712890625 C -162.6600189208984 1338.980712890625 -134.9541931152344 1327.454956054688 -129.0769958496094 1327.454956054688 C -122.254997253418 1327.454956054688 -70.27899932861328 1335.995971679688 -60.39999771118164 1338.113037109375 C -52.17399597167969 1339.8759765625 -46.40499877929688 1344.719970703125 -43.47799682617188 1345.348022460938 C -43.49099731445313 1345.39501953125 -43.51499557495117 1345.452026367188 -43.51899719238281 1345.489013671875 C -43.63199615478516 1346.702026367188 -39.83899688720703 1351.093994140625 -38.04199600219727 1351.991943359375 C -37.94504165649414 1352.04052734375 -37.82365798950195 1352.063720703125 -37.68122100830078 1352.063720703125 C -35.18376159667969 1352.064086914063 -26.15464401245117 1344.931640625 -26.69199752807617 1341.910034179688 C -27.22299766540527 1338.931030273438 -36.2869987487793 1337.45703125 -37.50399780273438 1337.27197265625 C -37.86499786376953 1336.489990234375 -38.87199783325195 1335.046997070313 -41.58099746704102 1332.467041015625 C -46.52099609375 1327.762939453125 -92.15599822998047 1310.589965820313 -110.0339965820313 1301.651000976563 C -109.9339981079102 1301.385009765625 -109.8330001831055 1301.093017578125 -109.7329940795898 1300.785034179688 C -106.2509994506836 1304.244995117188 -99.52799987792969 1306.913940429688 -88.33599853515625 1306.993041992188 C -57.2609977722168 1307.214965820313 -48.83099746704102 1311.274047851563 -46.46899795532227 1311.996948242188 C -44.10699844360352 1312.720947265625 -35.99399566650391 1317.505981445313 -35.99399566650391 1317.505981445313 L -34.08699798583984 1310.130981445313 C -34.08699798583984 1310.130981445313 -32.33344650268555 1310.572998046875 -31.2827262878418 1310.572998046875 C -29.7064037322998 1310.572998046875 -29.71179389953613 1309.578369140625 -39.59199905395508 1304.60400390625 C -52.12099838256836 1298.296997070313 -82.93099975585938 1290.152954101563 -96.95199584960938 1286.618041992188 C -83.75999450683594 1279.027954101563 -81.24699401855469 1248.06298828125 -81.24699401855469 1248.06298828125 L -99.24800109863281 1286.04296875 C -102.2919998168945 1285.284057617188 -104.1119995117188 1284.849975585938 -104.1119995117188 1284.849975585938 C -104.9939956665039 1284.97998046875 -105.8219985961914 1285.218017578125 -106.5989990234375 1285.529052734375 C -104.0249938964844 1268.880981445313 -102.0359954833984 1246.943969726563 -102.0359954833984 1246.943969726563 C -99.19882202148438 1248.13330078125 -94.92331695556641 1248.521118164063 -90.53227996826172 1248.521118164063 C -82.89476776123047 1248.521118164063 -74.90469360351563 1247.3486328125 -73.50399780273438 1247.181030273438 C -70.39070129394531 1253.190551757813 -65.34243774414063 1256.349853515625 -59.7987174987793 1256.349853515625 C -51.83436584472656 1256.349853515625 -42.84682464599609 1249.83056640625 -37.09999847412109 1235.8759765625 C -31.77099800109863 1222.93603515625 -38.11799621582031 1211.18896484375 -43.9109992980957 1210.336059570313 C -44.83809661865234 1210.2060546875 -45.75144958496094 1210.152954101563 -46.62362289428711 1210.152954101563 C -50.48157501220703 1210.152954101563 -53.54499816894531 1211.18994140625 -53.54499816894531 1211.18994140625 C -53.54499816894531 1211.18994140625 -61.09599685668945 1207.0009765625 -65.02799987792969 1204.089965820313 C -67.37999725341797 1202.349975585938 -75.20599365234375 1198.308959960938 -82.77199554443359 1194.612060546875 C -81.90499877929688 1194.047973632813 -58.84999847412109 1178.85400390625 -71.66099548339844 1164.744018554688 C -71.90808868408203 1166.388916015625 -74.61074066162109 1178.6171875 -85.05802154541016 1178.618041992188 C -85.81504821777344 1178.6181640625 -86.61161041259766 1178.554077148438 -87.45199584960938 1178.4169921875 C -87.45199584960938 1178.4169921875 -77.92499542236328 1169.683959960938 -83.56999969482422 1164.037963867188 C -85.28060150146484 1166.938232421875 -87.80746459960938 1172.2216796875 -94.16160583496094 1172.22216796875 C -95.34429168701172 1172.222290039063 -96.65862274169922 1172.039428710938 -98.12599945068359 1171.6240234375 C -105.2566299438477 1169.606079101563 -115.0055236816406 1166.150756835938 -123.6918029785156 1166.150756835938 C -126.3953552246094 1166.150756835938 -128.9950408935547 1166.485229492188 -131.3820037841797 1167.302001953125 C -131.5820007324219 1167.369995117188 -131.7740020751953 1167.432006835938 -131.9680023193359 1167.495971679688 C -134.7099914550781 1164.795043945313 -137.0279998779297 1162.6259765625 -137.0279998779297 1162.6259765625 C -137.0279998779297 1162.6259765625 -137.9349975585938 1164.56005859375 -139.4749908447266 1169.951049804688 C -143.9230041503906 1172.016967773438 -147.2440032958984 1176.357055664063 -153.9059906005859 1192.972045898438 C -156.72900390625 1203.204956054688 -161.5509948730469 1222.72900390625 -174.2539978027344 1224.258056640625 C -175.432373046875 1224.50341796875 -178.0659942626953 1225.015502929688 -180.2981262207031 1225.015502929688 C -183.4134674072266 1225.015502929688 -185.7469024658203 1224.018310546875 -182.2519989013672 1219.906982421875 C -185.6629943847656 1219.906982421875 -200.9530029296875 1238.961059570313 -177.7830047607422 1248.253051757813 C -168.843994140625 1250.251953125 -161.2760009765625 1252.526977539063 -161.2760009765625 1252.526977539063 L -161.2749938964844 1252.527954101563 C -161.4850006103516 1252.612060546875 -161.6969909667969 1252.696044921875 -161.9039916992188 1252.781005859375 C -170.8694915771484 1256.455688476563 -191.3476867675781 1257.069091796875 -212.4181060791016 1257.069213867188 C -216.6402130126953 1257.069213867188 -220.8828735351563 1257.044555664063 -225.0650024414063 1257.015014648438 C -225.1745147705078 1257.014282226563 -225.2845916748047 1257.013793945313 -225.3935089111328 1257.013793945313 C -233.0772247314453 1257.013793945313 -239.2526550292969 1258.919067382813 -244.0959930419922 1262.1650390625 L -244.0970001220703 1262.163940429688 C -244.0970001220703 1262.163940429688 -249.7362365722656 1250.20166015625 -264.2278747558594 1250.20166015625 C -268.9411926269531 1250.20166015625 -274.5899047851563 1251.466552734375 -281.2869873046875 1254.819946289063 C -290.2259826660156 1262.163940429688 -286.9320068359375 1275.775024414063 -283.1690063476563 1293.652954101563 C -279.4049987792969 1311.531005859375 -280.4630126953125 1312.942993164063 -281.4339904785156 1314.177978515625 C -281.9410095214844 1314.823486328125 -283.7339477539063 1315.637573242188 -285.1763305664063 1315.637817382813 C -286.493408203125 1315.637939453125 -287.5181274414063 1314.959350585938 -287.0060119628906 1312.85400390625 C -286.7905883789063 1311.96875 -286.9163208007813 1311.602905273438 -287.2178955078125 1311.602905273438 C -288.4184875488281 1311.602905273438 -292.4067993164063 1317.400634765625 -288.7550048828125 1319.2939453125 C -287.4630126953125 1319.963989257813 -285.5790100097656 1320.552001953125 -283.43701171875 1320.965942382813 C -287.7160034179688 1324.989990234375 -300.1849975585938 1335.577026367188 -303.6629943847656 1338.52197265625 C -303.932373046875 1338.189453125 -304.2186584472656 1337.992797851563 -304.5192260742188 1337.992797851563 C -304.5377807617188 1337.992797851563 -304.5563354492188 1337.993530273438 -304.5750122070313 1337.994995117188 C -306.7510070800781 1338.171997070313 -312.75 1337.818969726563 -314.3370056152344 1339.406982421875 C -315.8991088867188 1340.969116210938 -312.1688537597656 1353.427368164063 -310.7037353515625 1353.427368164063 C -310.6794738769531 1353.427368164063 -310.656005859375 1353.423950195313 -310.6329956054688 1353.4169921875 C -309.2210083007813 1352.991943359375 -300.7839965820313 1349.058959960938 -300.9859924316406 1347.800048828125 C -299.4739990234375 1347.402954101563 -295.7479858398438 1346.202026367188 -286.6969909667969 1342.579956054688 C -272.5830078125 1336.931030273438 -252.4219970703125 1319.469970703125 -252.4219970703125 1319.469970703125 C -250.2140045166016 1322.892944335938 -248.4120025634766 1324.512939453125 -249.0589904785156 1325.64501953125 C -250.4709930419922 1328.114990234375 -251.4120025634766 1334.583984375 -259.8800048828125 1346.345947265625 C -268.4849853515625 1354.951049804688 -286.718994140625 1370.432983398438 -289.7760009765625 1373.01904296875 L -290.2259826660156 1371.692993164063 C -290.2259826660156 1371.692993164063 -294.0421142578125 1371.457885742188 -297.2654113769531 1371.457885742188 C -298.8773498535156 1371.457885742188 -300.340576171875 1371.5166015625 -301.1050109863281 1371.692993164063 C -303.3989868164063 1372.222045898438 -301.4580078125 1384.04296875 -299.3410034179688 1384.925048828125 C -299.0237731933594 1385.057250976563 -298.5260009765625 1385.115600585938 -297.9081726074219 1385.115600585938 M -258.5859985351563 1297.593017578125 C -258.5669860839844 1298.162963867188 -258.5379943847656 1298.714965820313 -258.5050048828125 1299.260009765625 L -258.5060119628906 1299.260986328125 C -258.5790100097656 1299.317993164063 -258.7130126953125 1299.426025390625 -258.8789978027344 1299.56103515625 C -258.6829833984375 1298.573974609375 -258.5809936523438 1297.869018554688 -258.5859985351563 1297.593017578125 M -297.9081726074219 1395.115600585938 C -299.9098205566406 1395.115600585938 -301.6362609863281 1394.801879882813 -303.1861267089844 1394.15625 C -313.0370483398438 1390.051635742188 -312.0782775878906 1373.240478515625 -312.0641479492188 1373.072509765625 C -311.3373107910156 1364.447631835938 -305.2121887207031 1362.377685546875 -303.3522338867188 1361.94873046875 C -301.861083984375 1361.604736328125 -300.0404663085938 1361.457885742188 -297.2654113769531 1361.457885742188 C -295.3788452148438 1361.457885742188 -293.3057556152344 1361.531494140625 -291.7933044433594 1361.599487304688 C -288.2178344726563 1358.53466796875 -283.0587158203125 1354.072998046875 -278.0838928222656 1349.629516601563 C -279.747802734375 1350.471801757813 -281.3893127441406 1351.226806640625 -282.9812316894531 1351.864013671875 C -288.2013244628906 1353.953002929688 -292.3163146972656 1355.504028320313 -295.2763061523438 1356.499267578125 C -299.3511047363281 1360.172241210938 -305.2127685546875 1362.228637695313 -307.7505493164063 1362.992553710938 C -308.6854858398438 1363.274047851563 -309.7273254394531 1363.427368164063 -310.7037353515625 1363.427368164063 C -315.5330810546875 1363.427368164063 -319.1835021972656 1360.526000976563 -321.5536804199219 1354.803955078125 C -324.5363159179688 1347.603271484375 -326.9321899414063 1337.860107421875 -321.4080505371094 1332.3359375 C -317.34521484375 1328.270385742188 -311.5029602050781 1328.151245117188 -306.7970886230469 1328.065307617188 C -304.2872924804688 1325.929443359375 -301.7189331054688 1323.7314453125 -299.3431396484375 1321.681030273438 C -300.3517150878906 1319.171752929688 -300.5574645996094 1316.287963867188 -299.8337707519531 1313.31982421875 C -298.9429626464844 1309.666381835938 -296.1510009765625 1304.630615234375 -291.6015930175781 1302.555297851563 C -291.9392395019531 1300.6962890625 -292.3799438476563 1298.442016601563 -292.9544372558594 1295.713134765625 L -293.3811340332031 1293.692138671875 C -297.2602844238281 1275.342895507813 -300.92431640625 1258.01123046875 -287.6350402832031 1247.09326171875 C -287.0587158203125 1246.619750976563 -286.4312744140625 1246.212280273438 -285.7643737792969 1245.878295898438 C -278.2418518066406 1242.111572265625 -270.9959411621094 1240.20166015625 -264.2278747558594 1240.20166015625 C -253.8321533203125 1240.20166015625 -246.1592712402344 1244.646850585938 -241.137939453125 1249.578002929688 C -236.3576812744141 1247.873413085938 -231.0924072265625 1247.013916015625 -225.3934936523438 1247.013916015625 L -212.4181823730469 1247.069091796875 C -208.65478515625 1247.069091796875 -202.6400299072266 1247.069213867188 -196.0834350585938 1246.902099609375 C -201.2168273925781 1239.711303710938 -200.4822998046875 1232.166259765625 -199.9124908447266 1229.214477539063 C -198.1495361328125 1220.082275390625 -190.4630889892578 1209.906982421875 -182.2519989013672 1209.906982421875 C -179.1365661621094 1209.906982421875 -176.2480926513672 1211.353881835938 -174.3786468505859 1213.741088867188 C -169.0315093994141 1210.349975585938 -165.244140625 1196.513916015625 -163.9067230224609 1191.627563476563 L -163.5459136962891 1190.312622070313 C -163.4464569091797 1189.9521484375 -163.3268585205078 1189.597534179688 -163.1876831054688 1189.25048828125 C -157.9143981933594 1176.098876953125 -153.9025726318359 1168.121215820313 -147.9701080322266 1163.494018554688 C -146.9640960693359 1160.359008789063 -146.3012847900391 1158.847900390625 -146.0818634033203 1158.380126953125 C -144.7231750488281 1155.482788085938 -142.0594940185547 1153.411010742188 -138.9170379638672 1152.806396484375 C -138.2887115478516 1152.685546875 -137.6561126708984 1152.626220703125 -137.0278167724609 1152.626220703125 C -134.5138854980469 1152.626220703125 -132.0649261474609 1153.575073242188 -130.1953582763672 1155.32421875 C -130.1953582763672 1155.32421875 -129.7183532714844 1155.7705078125 -128.9380187988281 1156.513061523438 C -127.2267913818359 1156.26708984375 -125.4899063110352 1156.150634765625 -123.6918182373047 1156.150634765625 C -115.0433120727539 1156.150634765625 -106.2432250976563 1158.780639648438 -99.17222595214844 1160.893920898438 L -95.40299987792969 1162.001831054688 C -94.70036315917969 1162.200805664063 -94.30131530761719 1162.22216796875 -94.16236114501953 1162.22216796875 C -93.94226837158203 1162.007446289063 -93.09254455566406 1160.530883789063 -92.63603973388672 1159.737670898438 C -91.08404541015625 1157.040771484375 -88.165771484375 1154.876342773438 -85.0811767578125 1154.468139648438 C -84.53330993652344 1154.395629882813 -83.97853851318359 1154.3583984375 -83.42453765869141 1154.3583984375 C -81.12097930908203 1154.3583984375 -78.82823181152344 1155.003173828125 -77.07427978515625 1156.445190429688 C -76.26837158203125 1155.919677734375 -75.38197326660156 1155.50830078125 -74.43567657470703 1155.236938476563 C -73.48983001708984 1154.965576171875 -72.52353668212891 1154.832153320313 -71.56733703613281 1154.832153320313 C -68.82252502441406 1154.832153320313 -66.15605926513672 1155.9306640625 -64.25736236572266 1158.02197265625 C -59.27372360229492 1163.510864257813 -57.10427093505859 1170.012084960938 -57.98358917236328 1176.822509765625 C -58.75517654418945 1182.798706054688 -61.81575393676758 1188.065551757813 -65.30953216552734 1192.295532226563 C -62.39337158203125 1193.885498046875 -60.31081771850586 1195.140625 -59.08063507080078 1196.05078125 C -57.30180740356445 1197.36767578125 -54.35220718383789 1199.170166015625 -51.94588851928711 1200.582275390625 C -50.41014099121094 1200.337890625 -48.59632110595703 1200.152954101563 -46.62363433837891 1200.152954101563 C -45.30490493774414 1200.152954101563 -43.92408752441406 1200.236328125 -42.52236175537109 1200.432983398438 C -37.14054107666016 1201.22509765625 -32.23754119873047 1204.93701171875 -29.00258827209473 1210.626831054688 C -24.23981475830078 1219.003784179688 -23.81022453308105 1229.8662109375 -27.85340690612793 1239.683959960938 C -34.7297248840332 1256.381225585938 -46.67190551757813 1266.349853515625 -59.79872512817383 1266.349853515625 C -64.67717742919922 1266.349853515625 -69.29476165771484 1264.887573242188 -73.26927185058594 1262.209594726563 C -74.50389862060547 1268.015502929688 -76.44798278808594 1274.76806640625 -79.48488616943359 1280.847534179688 C -63.62229156494141 1285.149291992188 -44.77302932739258 1290.80029296875 -35.09563446044922 1295.671875 C -26.67436027526855 1299.911743164063 -18.72058868408203 1303.916137695313 -20.7889518737793 1312.623901367188 C -21.44879341125488 1315.40185546875 -23.52172470092773 1317.775146484375 -26.09983825683594 1319.187255859375 L -26.31240653991699 1320.009399414063 C -27.09858894348145 1323.049682617188 -29.26763343811035 1325.5439453125 -32.16913223266602 1326.745239257813 C -32.40555191040039 1326.843017578125 -32.64450836181641 1326.931396484375 -32.88565063476563 1327.01025390625 C -32.50012969970703 1327.4111328125 -32.13861083984375 1327.801391601563 -31.80032539367676 1328.181884765625 C -22.81260299682617 1330.268432617188 -17.90749740600586 1334.206665039063 -16.8471794128418 1340.1552734375 C -16.15436172485352 1344.05078125 -17.44654273986816 1347.985229492188 -20.68708801269531 1351.852783203125 C -20.77263450622559 1351.954956054688 -29.47186088562012 1362.063720703125 -37.6810417175293 1362.063720703125 C -39.23413467407227 1362.063720703125 -41.12681579589844 1361.630249023438 -42.51581573486328 1360.935424804688 C -44.14090728759766 1360.123291015625 -48.22939300537109 1357.08251953125 -50.93873977661133 1353.006958007813 C -51.53284454345703 1352.6923828125 -52.13679504394531 1352.358764648438 -52.76227188110352 1352.013427734375 C -55.58649826049805 1350.45361328125 -58.78749847412109 1348.685668945313 -62.49549865722656 1347.890991210938 C -72.81045532226563 1345.680541992188 -123.0167694091797 1337.5263671875 -129.0882263183594 1337.454956054688 C -129.7882690429688 1337.55517578125 -133.3648681640625 1338.526611328125 -136.5204010009766 1339.3837890625 C -148.8679962158203 1342.73779296875 -171.8515930175781 1348.980834960938 -199.5588684082031 1348.980834960938 C -204.9156646728516 1348.980834960938 -210.2725830078125 1348.74658203125 -215.530029296875 1348.283569335938 C -217.3721466064453 1349.859008789063 -220.6134796142578 1352.84375 -223.3479919433594 1355.36181640625 C -233.5663146972656 1364.77099609375 -247.5608215332031 1377.657592773438 -260.6166381835938 1382.531494140625 C -270.33935546875 1386.161499023438 -276.3516540527344 1388.31884765625 -279.8254699707031 1389.53564453125 C -285.7041320800781 1395.040283203125 -297.764892578125 1395.115600585938 -297.9081726074219 1395.115600585938 Z"/>
      </g>
      <g id="路径_3530" data-name="路径 3530" class="cls-1">
        <path class="cls-16" d="M -34.77907943725586 1327.216430664063 C -34.77915954589844 1327.216430664063 -34.779052734375 1327.216430664063 -34.77913284301758 1327.216430664063 C -36.32056045532227 1327.216430664063 -37.42424011230469 1326.670532226563 -38.07868194580078 1326.212524414063 L -44.60261154174805 1321.647338867188 L -37.65656280517578 1317.754272460938 L -25.44356155395508 1310.909301757813 L -16.62106132507324 1305.964599609375 L -18.04909133911133 1315.976928710938 C -18.37793159484863 1318.282592773438 -20.07133102416992 1319.881225585938 -21.5098705291748 1321.016357421875 C -22.87889099121094 1322.0966796875 -24.47413063049316 1323.083129882813 -25.57129096984863 1323.720458984375 C -27.08991050720215 1324.602661132813 -28.61647033691406 1325.38037109375 -29.9859619140625 1325.969360351563 C -31.99102973937988 1326.831787109375 -33.46941757202148 1327.216430664063 -34.77907943725586 1327.216430664063 Z"/>
        <path class="cls-17" d="M -34.77910614013672 1322.216430664063 C -32.38067245483398 1322.216430664063 -23.24748039245605 1317.01318359375 -22.99899482727051 1315.27099609375 L -35.21200561523438 1322.115966796875 C -35.11428833007813 1322.184326171875 -34.96746063232422 1322.216430664063 -34.77910614013672 1322.216430664063 M -34.77909088134766 1332.216430664063 C -36.83020782470703 1332.216430664063 -39.26462936401367 1331.485229492188 -40.94517135620117 1330.309326171875 C -43.76405334472656 1328.336791992188 -45.37102890014648 1325.053833007813 -45.1995849609375 1321.61767578125 C -45.02813720703125 1318.181518554688 -43.10234832763672 1315.07470703125 -40.10113525390625 1313.392578125 L -27.88812446594238 1306.547607421875 C -26.36527061462402 1305.694213867188 -24.6800708770752 1305.27099609375 -22.99967193603516 1305.27099609375 C -21.01845741271973 1305.27099609375 -19.04366874694824 1305.858642578125 -17.34587669372559 1307.022216796875 C -14.2080774307251 1309.172607421875 -12.56207752227783 1312.917114257813 -13.09918308258057 1316.682983398438 C -14.39535999298096 1325.77099609375 -30.07446670532227 1332.216430664063 -34.77909088134766 1332.216430664063 Z"/>
      </g>
    </g>
    <path id="路径_3531" data-name="路径 3531" class="cls-2" d="M-252.422,1319.47s-20.161,17.461-34.275,23.11-15.291,5.413-15.291,5.413l-2.587-8.7s21.877-18.471,22.583-19.824,22.036-19.071,23.486-20.209S-246.141,1302.945-252.422,1319.47Z"/>
    <path id="路径_3532" data-name="路径 3532" class="cls-3" d="M-244.1,1262.164s-9.9-21.008-37.19-7.344c-8.939,7.344-5.645,20.955-1.882,38.833s2.706,19.29,1.735,20.525-6.645,3.087-5.572-1.324-6.318,4.071-1.749,6.44,16.425,3.793,21.577-.353,8.625-19.76,8.592-21.348S-242.4,1264.868-244.1,1262.164Z"/>
    <path id="路径_3533" data-name="路径 3533" class="cls-2" d="M-104.112,1284.85s48.053,11.465,64.52,19.754,5.5,5.527,5.5,5.527l-1.907,7.375s-8.113-4.785-10.475-5.508-10.792-4.783-41.867-5.005S-116.179,1286.626-104.112,1284.85Z"/>
    <path id="路径_3534" data-name="路径 3534" class="cls-3" d="M-82.814,1194.639s24.208-15.517,11.153-29.9c-.265,1.764-3.353,15.7-15.791,13.673,0,0,9.527-8.733,3.882-14.379-2.029,3.44-5.205,10.233-14.556,7.586s-23.2-7.763-33.256-4.322-12.527.735-22.524,25.67c-2.823,10.233-7.645,29.757-20.348,31.286-2.823.588-14,2.706-8-4.351-3.411,0-18.7,19.054,4.469,28.346,8.939,2,16.507,4.274,16.507,4.274s21.484,11.957,33.128-18.742S-84.759,1193.717-82.814,1194.639Z"/>
    <path id="路径_3535" data-name="路径 3535" class="cls-4" d="M-81.247,1248.063s-2.9,35.874-18.9,39.873c-9.409.94-8.351-.3-8.468-.53a9.322,9.322,0,0,1,0-1.823s22.1-1.6,20.929-37.113Z"/>
    <path id="路径_3536" data-name="路径 3536" class="cls-5" d="M-102.036,1246.944s-4,44.122-8,54.707c17.878,8.939,63.513,26.112,68.453,30.816s4.235,5.646,4.235,5.646-2.588,5.41-4.7,7.057-8.469-4.94-18.349-7.057-61.855-10.658-68.677-10.658-43.05,15.526-88.921,10.538c-6.117,2.469-28.474,28.584-46.116,35.17s-22.818,8.233-22.818,8.233l-3.294-8s20.936-17.642,30.346-27.052c8.468-11.762,9.409-18.231,10.821-20.7s-8.822-7.233-9.527-28.052,8.468-40.754,33.521-40.578,52.4.177,63.161-4.234,25.935-7.763,28.228-29.287,1.235-22.054,1.235-22.054-13.761-6.351-8.292-26.817c2.294-9,3.705-12,3.705-12s10.939,10.233,13.409,13.938,3.352,10.939,3.175,13.762,16.761-5.117,22.759-2.647,28.381,13.246,32.657,16.411c3.932,2.911,11.483,7.1,11.483,7.1a23.479,23.479,0,0,1,9.634-.855c5.793.853,12.14,12.6,6.811,25.54-9.747,23.668-28.818,25.948-36.4,11.305C-75.71,1247.445-94.264,1250.2-102.036,1246.944Z"/>
    <path id="路径_3537" data-name="路径 3537" class="cls-3" d="M-286.638,1382.279l-3.588-10.586s-8.586-.529-10.879,0-.353,12.35,1.764,13.232S-287.086,1383.406-286.638,1382.279Z"/>
    <path id="路径_3538" data-name="路径 3538" class="cls-3" d="M-300.986,1347.8s-1.413-9.981-3.589-9.805-8.175-.176-9.762,1.412,2.293,14.435,3.7,14.01S-300.784,1349.059-300.986,1347.8Z"/>
    <path id="路径_3539" data-name="路径 3539" class="cls-3" d="M-37.643,1337.252s-5.763,7.024-5.876,8.237,3.68,5.6,5.477,6.5,11.918-6.888,11.35-10.082S-37.643,1337.252-37.643,1337.252Z"/>
    <path id="路径_3540" data-name="路径 3540" class="cls-3" d="M-32.615,1308.426l-7.8,6.558s3.86,6.192,5.2,7.132,11.945-4.966,12.213-6.845S-31.226,1309.231-32.615,1308.426Z"/>
    <path id="路径_3541" data-name="路径 3541" class="cls-6" d="M-54.505,1255.113c-2.57,1.031-11.06,4.477-19-7.932-6,0-7.743.882-7.743.882s-14.683,1.291-20.789-1.119c-6.989-1.057-18.339-5.409-18.457-5.762s-1.294-.941-.588-1.7c1,0,22.161,6.057,28.517,6.234s17.95-.637,18.472-.706c.72-.1,3.322-1.176,4.645.941,1.288,2.06,5.032,10.025,14.928,9.085C-54.467,1255.026-54.457,1255.093-54.505,1255.113Z"/>
    <path id="路径_3542" data-name="路径 3542" class="cls-7" d="M-53.545,1211.191s16.177-5.841,17.825,9.473-3.11,21.914-10.744,29.641c-4.046,4.515-7.051,4.789-8.032,5.1,0,0-13.069,2.415-14.127-13.11a47.661,47.661,0,0,1,15.078-31.109"/>
    <ellipse id="椭圆_553" data-name="椭圆 553" class="cls-3" cx="5.426" cy="4.947" rx="5.426" ry="4.947" transform="translate(-95.436 1200.538)"/>
    <ellipse id="椭圆_554" data-name="椭圆 554" class="cls-8" cx="2.328" cy="2.553" rx="2.328" ry="2.553" transform="matrix(0.622, -0.783, 0.783, 0.622, -96.011, 1207.237)"/>
    <ellipse id="椭圆_555" data-name="椭圆 555" class="cls-3" cx="4.208" cy="3.516" rx="4.208" ry="3.516" transform="translate(-44.388 1234.633) rotate(-69.178)"/>
    <path id="路径_3543" data-name="路径 3543" class="cls-9" d="M-55.083,1212.67s-22.832-13.433-27.627-17.006c-.477-.355-.8-.891-.458-1.38.04-.059-1.28.927-1.253.917.534-.207-.529-3.154,9.665,3.333,13.456,6.674,20.309,9.482,21.211,12.657A3.185,3.185,0,0,1-55.083,1212.67Z"/>
    <path id="路径_3544" data-name="路径 3544" class="cls-4" d="M-53.545,1211.191s-9.2-5.471-19.959,35.99c-2.647,2.47-7.722,1.764-7.743.882s9.475-41.016,22.569-41.062C-53.171,1208.72-53.521,1209.6-53.545,1211.191Z"/>
    <path id="路径_3545" data-name="路径 3545" class="cls-4" d="M-75.163,1227.94s-53.055.57-57.72-12.471a10.107,10.107,0,0,0-1.43,7.776c0,.589,19.169,14.514,57.514,9.257A6.187,6.187,0,0,0-75.163,1227.94Z"/>
    <path id="路径_3546" data-name="路径 3546" class="cls-4" d="M-161.9,1252.781"/>
    <path id="路径_3547" data-name="路径 3547" class="cls-4" d="M-161.9,1252.781s-31.032,3.611-46.92,3.559c-5.644,0-14.467,48.515-4.94,53.434s54.692,7.189,62.455-9.838S-161.9,1252.781-161.9,1252.781Z"/>
    <path id="路径_3548" data-name="路径 3548" class="cls-2" d="M-169.429,1265.942s-22.015,2.9-33.16,2.867c-3.959,0-9.9,29.65-3.218,32.722s38.365,4.489,43.81-6.143S-169.429,1265.942-169.429,1265.942Z"/>
    <path id="路径_3549" data-name="路径 3549" class="cls-6" d="M-42.291,1343.306s-10.454-6.735-17.511-7.441c-9.645-1.794-55.633-13.114-67.4-12.409s-11.762,3.058-24.465,5.881-47.282,8.527-63.984,4.028c-9.88,2.088-25.17,24.2-43.989,31.963-19.29,9.175-24.222,11.8-28.578,12.959a6.644,6.644,0,0,0,1.281,3.109s29.276-9.481,32.433-13.274c4.009-1.941,18.257-14.616,24.9-20.6,6.463-5.827,11.6-9.529,11.6-9.529s29.25,5.953,75.051-7.232c12.776-3.214,13.87-3.306,13.87-3.306s57.147,8.432,62.912,9.545,8.541,1.511,17.185,5.687C-44.394,1345.98-43.54,1347.16-42.291,1343.306Z"/>
    <path id="路径_3550" data-name="路径 3550" class="cls-10" d="M-32.988,1308.181s-2.254,2.454-2.945,3.034-.963-5.107-29.632-12.958-41-9.867-41.474-9.973,0-3.434,0-3.434S-65.1,1290.79-32.988,1308.181Z"/>
    <path id="路径_3551" data-name="路径 3551" class="cls-11" d="M-252.186,1318.965s-2.548-4.232-2.733-4.68-20.721,23.948-45.711,30.653c-1.877,3.249,0,3.054,0,3.054A107.965,107.965,0,0,0-252.186,1318.965Z"/>
    <path id="路径_3552" data-name="路径 3552" class="cls-12" d="M-135.094,1172.67s9.426,6.351,9.9,12.938-3.879,8.673-6.821,8.586C-135.345,1194.095-140.051,1179.491-135.094,1172.67Z"/>
    <path id="路径_3553" data-name="路径 3553" class="cls-13" d="M-83.57,1164.038s1.585,6.4-4.319,8.984-12.844.471-16.608-1.058-23.881-4.593-25.819-2.826l-1.65-1.64s7.685-3.3,20.763.415c4.521,1.2,14.062,3.962,14.248,4S-88.52,1174.578-83.57,1164.038Z"/>
    <path id="路径_3554" data-name="路径 3554" class="cls-13" d="M-71.661,1164.744a8.978,8.978,0,0,1,0,7.161c-1.726,3.529-6,9.292-11.716,8.469s-4.075-1.957-4.075-1.957S-75.935,1181.753-71.661,1164.744Z"/>
    <path id="路径_3555" data-name="路径 3555" class="cls-14" d="M-182.252,1219.907s-8.068.842-8.058,14.94,26.652,17.2,29.034,17.68l5.984-2.325s-28.6-2.845-30.244-10.725C-187.653,1236.217-189.672,1229.623-182.252,1219.907Z"/>
    <path id="路径_3556" data-name="路径 3556" class="cls-14" d="M-258.586,1297.593l.145-6.96s-4.664,21.3-9.369,25.119-16,3.411-18.407,2.353-.649-5.965-.69-6.135.026-.815-.921-.075-5.279,6.83.866,8.153c5.6,1.673,13.53,2.8,19.193-.676S-258.273,1298.724-258.586,1297.593Z"/>
    <ellipse id="椭圆_556" data-name="椭圆 556" class="cls-15" cx="2.033" cy="2.862" rx="2.033" ry="2.862" transform="translate(-32.431 1313.313) rotate(-64.665)"/>
    <ellipse id="椭圆_557" data-name="椭圆 557" class="cls-15" cx="2.033" cy="2.862" rx="2.033" ry="2.862" transform="translate(-35.161 1341.259) rotate(-64.665)"/>
    <ellipse id="椭圆_558" data-name="椭圆 558" class="cls-14" cx="2.862" cy="2.033" rx="2.862" ry="2.033" transform="matrix(0.964, -0.265, 0.265, 0.964, -296.942, 1381.032)"/>
    <ellipse id="椭圆_559" data-name="椭圆 559" class="cls-14" cx="2.862" cy="2.033" rx="2.862" ry="2.033" transform="matrix(0.909, -0.416, 0.416, 0.909, -310.836, 1348.203)"/>
  </g>
</svg>
