<svg xmlns="http://www.w3.org/2000/svg" width="197.448" height="150.589" viewBox="0 0 197.448 150.589">
  <defs>
    <style>
      .cls-1 {
        fill: #77251f;
      }

      .cls-2 {
        fill: #561613;
      }

      .cls-3 {
        fill: #513c25;
      }

      .cls-4 {
        fill: #8e3228;
      }

      .cls-5 {
        fill: #3f2f1c;
      }

      .cls-6 {
        fill: #9e3b39;
      }

      .cls-7 {
        fill: #fefefe;
      }

      .cls-8 {
        fill: #9e3d36;
      }

      .cls-9 {
        fill: #89512a;
      }

      .cls-10 {
        fill: #7f2a28;
      }

      .cls-11 {
        fill: #681b19;
      }

      .cls-12 {
        fill: #751b14;
      }

      .cls-13 {
        fill: #661b1b;
      }

      .cls-14 {
        fill: #490f0f;
      }

      .cls-15 {
        fill: #5b452e;
      }

      .cls-16 {
        fill: #302315;
      }
    </style>
  </defs>
  <g id="组_1140" data-name="组 1140" transform="translate(-772.578 -174.439)">
    <path id="路径_1980" data-name="路径 1980" class="cls-1" d="M814.738,280.6s-13.645,11.818-23.2,15.641-10.35,3.664-10.35,3.664l-1.751-5.888s14.807-12.5,15.285-13.417,14.915-12.908,15.9-13.679S818.99,269.412,814.738,280.6Z"/>
    <path id="路径_1981" data-name="路径 1981" class="cls-2" d="M820.373,241.81s-6.7-14.219-25.171-4.971c-6.051,4.971-3.822,14.183-1.274,26.284s1.831,13.056,1.174,13.892-4.5,2.089-3.771-.9-4.277,2.755-1.185,4.359,11.118,2.567,14.6-.239,5.838-13.375,5.815-14.449S821.523,243.64,820.373,241.81Z"/>
    <path id="路径_1982" data-name="路径 1982" class="cls-1" d="M915.121,257.165s32.524,7.759,43.669,13.37,3.726,3.741,3.726,3.741l-1.29,4.992a67.39,67.39,0,0,0-7.09-3.729c-1.6-.489-7.3-3.237-28.338-3.387S906.953,258.367,915.121,257.165Z"/>
    <path id="路径_1983" data-name="路径 1983" class="cls-2" d="M929.536,196.106s16.385-10.5,7.548-20.234c-.179,1.194-2.269,10.627-10.687,9.254,0,0,6.448-5.911,2.627-9.732-1.373,2.329-3.523,6.926-9.852,5.135s-15.7-5.254-22.509-2.926-8.478.5-15.245,17.375c-1.911,6.926-5.175,20.141-13.772,21.176-1.911.4-9.474,1.831-5.414-2.946-2.309,0-12.658,12.9,3.025,19.186,6.051,1.353,11.172,2.893,11.172,2.893s14.542,8.093,22.423-12.685S928.219,195.482,929.536,196.106Z"/>
    <path id="路径_1984" data-name="路径 1984" class="cls-3" d="M930.6,232.266s-1.965,24.28-12.791,26.987c-6.369.637-5.653-.2-5.732-.358a6.3,6.3,0,0,1,0-1.234s14.958-1.081,14.166-25.12Z"/>
    <path id="路径_1985" data-name="路径 1985" class="cls-4" d="M916.525,231.508s-2.706,29.864-5.413,37.028c12.1,6.051,42.989,17.674,46.332,20.858s2.866,3.821,2.866,3.821-1.751,3.662-3.184,4.777-5.732-3.344-12.419-4.777S902.841,286,898.223,286s-29.138,10.508-60.185,7.132c-4.14,1.671-19.272,19.346-31.214,23.8s-15.444,5.572-15.444,5.572l-2.229-5.413s14.171-11.942,20.539-18.31c5.732-7.961,6.369-12.34,7.324-14.011s-5.97-4.9-6.448-18.987,5.732-27.585,22.689-27.465,35.465.119,42.749-2.866,17.554-5.254,19.107-19.823.835-14.926.835-14.926-9.314-4.3-5.612-18.151a53.2,53.2,0,0,1,2.508-8.12s7.4,6.926,9.075,9.433,2.269,7.4,2.15,9.315,11.344-3.463,15.4-1.792,19.209,8.966,22.1,11.108c2.662,1.97,7.773,4.806,7.773,4.806a15.879,15.879,0,0,1,6.52-.578c3.921.577,8.217,8.528,4.61,17.286-6.6,16.019-19.505,17.563-24.64,7.652C934.344,231.848,921.786,233.713,916.525,231.508Z"/>
    <path id="路径_1986" data-name="路径 1986" class="cls-5" d="M791.579,323.108l-2.428-7.165s-5.811-.358-7.364,0-.238,8.359,1.2,8.956S791.277,323.871,791.579,323.108Z"/>
    <path id="路径_1987" data-name="路径 1987" class="cls-5" d="M781.868,299.771s-.956-6.755-2.429-6.636-5.533-.119-6.608.956,1.553,9.77,2.508,9.482S782.005,300.624,781.868,299.771Z"/>
    <path id="路径_1988" data-name="路径 1988" class="cls-5" d="M960.11,292.632s-3.9,4.754-3.978,5.575,2.491,3.794,3.707,4.4,8.067-4.662,7.682-6.824S960.11,292.632,960.11,292.632Z"/>
    <path id="路径_1989" data-name="路径 1989" class="cls-5" d="M963.512,273.122l-5.279,4.439s2.613,4.191,3.522,4.827,8.085-3.361,8.266-4.633S964.453,273.667,963.512,273.122Z"/>
    <path id="路径_1990" data-name="路径 1990" class="cls-1" d="M948.7,237.037c-1.739.7-7.485,3.03-12.859-5.368-4.06,0-5.24.6-5.24.6s-9.938.873-14.072-.758a57.341,57.341,0,0,1-12.492-3.9c-.079-.239-.875-.637-.4-1.155.677,0,15,4.1,19.3,4.219s12.149-.43,12.5-.477c.488-.065,2.249-.8,3.144.637.872,1.394,3.406,6.785,10.1,6.149C948.722,236.979,948.729,237.024,948.7,237.037Z"/>
    <path id="路径_1991" data-name="路径 1991" class="cls-6" d="M949.347,207.309s10.949-3.953,12.064,6.412-2.1,14.832-7.272,20.062c-2.739,3.056-4.773,3.242-5.437,3.456,0,0-8.845,1.634-9.561-8.874a32.259,32.259,0,0,1,10.206-21.056"/>
    <ellipse id="椭圆_200" data-name="椭圆 200" class="cls-5" cx="3.673" cy="3.349" rx="3.673" ry="3.349" transform="translate(920.993 200.099)"/>
    <ellipse id="椭圆_201" data-name="椭圆 201" class="cls-7" cx="1.576" cy="1.728" rx="1.576" ry="1.728" transform="matrix(0.622, -0.783, 0.783, 0.622, 920.604, 204.633)"/>
    <ellipse id="椭圆_202" data-name="椭圆 202" class="cls-5" cx="2.848" cy="2.379" rx="2.848" ry="2.379" transform="translate(955.544 223.176) rotate(-69.178)"/>
    <path id="路径_1992" data-name="路径 1992" class="cls-8" d="M948.3,208.31s-15.453-9.092-18.7-11.51c-.323-.241-.539-.6-.31-.934.028-.04-.866.628-.848.62.361-.14-.358-2.134,6.542,2.256,9.107,4.518,13.745,6.418,14.357,8.567A2.156,2.156,0,0,1,948.3,208.31Z"/>
    <path id="路径_1993" data-name="路径 1993" class="cls-3" d="M949.347,207.309s-6.226-3.7-13.51,24.36c-1.791,1.671-5.226,1.194-5.24.6s6.412-27.762,15.275-27.793C949.6,205.636,949.362,206.235,949.347,207.309Z"/>
    <path id="路径_1994" data-name="路径 1994" class="cls-3" d="M934.715,218.646s-35.911.386-39.068-8.442a6.843,6.843,0,0,0-.968,5.264c0,.4,12.975,9.824,38.928,6.265A4.2,4.2,0,0,0,934.715,218.646Z"/>
    <path id="路径_1995" data-name="路径 1995" class="cls-3" d="M876,235.459"/>
    <path id="路径_1996" data-name="路径 1996" class="cls-3" d="M876,235.459s-21,2.444-31.757,2.409c-3.82,0-9.792,32.837-3.344,36.166s37.019,4.866,42.273-6.658S876,235.459,876,235.459Z"/>
    <path id="路径_1997" data-name="路径 1997" class="cls-9" d="M870.911,244.367s-14.9,1.963-22.444,1.941c-2.68,0-6.7,20.068-2.178,22.147s25.967,3.038,29.653-4.158S870.911,244.367,870.911,244.367Z"/>
    <path id="路径_1998" data-name="路径 1998" class="cls-1" d="M956.964,296.73s-7.076-4.559-11.853-5.036c-6.528-1.214-37.655-8.877-45.615-8.4s-7.961,2.07-16.559,3.98-32,5.772-43.307,2.727c-6.687,1.413-17.037,16.379-29.774,21.634-13.056,6.209-16.394,7.988-19.342,8.77a4.5,4.5,0,0,0,.866,2.1s19.816-6.417,21.952-8.985c2.714-1.313,12.358-9.893,16.855-13.943,4.375-3.944,7.851-6.449,7.851-6.449s19.8,4.029,50.8-4.895c8.648-2.176,9.388-2.237,9.388-2.237s38.68,5.707,42.582,6.46a36.3,36.3,0,0,1,11.631,3.849C955.54,298.54,956.118,299.338,956.964,296.73Z"/>
    <path id="路径_1999" data-name="路径 1999" class="cls-10" d="M963.26,272.956s-1.526,1.661-1.993,2.054-.652-3.457-20.056-8.771-27.755-6.679-28.072-6.75,0-2.324,0-2.324S941.525,261.185,963.26,272.956Z"/>
    <path id="路径_2000" data-name="路径 2000" class="cls-11" d="M814.9,280.255s-1.724-2.864-1.85-3.167-14.025,16.209-30.939,20.746c-1.27,2.2,0,2.068,0,2.068A73.078,73.078,0,0,0,814.9,280.255Z"/>
    <path id="路径_2001" data-name="路径 2001" class="cls-12" d="M894.151,181.236s6.379,4.3,6.7,8.757-2.626,5.871-4.617,5.812C893.981,195.738,890.8,185.854,894.151,181.236Z"/>
    <path id="路径_2002" data-name="路径 2002" class="cls-13" d="M929.024,175.394s1.073,4.33-2.923,6.081-8.693.319-11.241-.716-16.164-3.109-17.476-1.913l-1.116-1.11s5.2-2.231,14.053.281c3.06.811,9.518,2.681,9.643,2.707S925.674,182.528,929.024,175.394Z"/>
    <path id="路径_2003" data-name="路径 2003" class="cls-13" d="M937.084,175.872a6.075,6.075,0,0,1,0,4.847c-1.167,2.388-4.063,6.289-7.929,5.732s-2.758-1.325-2.758-1.325S934.192,187.384,937.084,175.872Z"/>
    <path id="路径_2004" data-name="路径 2004" class="cls-14" d="M862.232,213.208s-5.461.571-5.454,10.113,18.04,11.644,19.651,11.966l4.051-1.574s-19.356-1.925-20.47-7.259C858.577,224.248,857.21,219.785,862.232,213.208Z"/>
    <path id="路径_2005" data-name="路径 2005" class="cls-14" d="M810.566,265.79l.1-4.711s-3.157,14.414-6.342,17-10.827,2.309-12.459,1.593-.439-4.038-.467-4.153.018-.551-.623-.05-3.573,4.622.586,5.518c3.788,1.133,9.158,1.893,12.991-.457S810.778,266.555,810.566,265.79Z"/>
    <ellipse id="椭圆_203" data-name="椭圆 203" class="cls-15" cx="1.376" cy="1.937" rx="1.376" ry="1.937" transform="translate(963.637 276.429) rotate(-64.665)"/>
    <ellipse id="椭圆_204" data-name="椭圆 204" class="cls-15" cx="1.376" cy="1.937" rx="1.376" ry="1.937" transform="translate(961.79 295.345) rotate(-64.665)"/>
    <ellipse id="椭圆_205" data-name="椭圆 205" class="cls-16" cx="1.937" cy="1.376" rx="1.937" ry="1.376" transform="matrix(0.964, -0.265, 0.265, 0.964, 784.605, 322.265)"/>
    <ellipse id="椭圆_206" data-name="椭圆 206" class="cls-16" cx="1.937" cy="1.376" rx="1.937" ry="1.376" transform="matrix(0.909, -0.416, 0.416, 0.909, 775.201, 300.044)"/>
  </g>
</svg>
