<svg xmlns="http://www.w3.org/2000/svg" width="311.746" height="242.49" viewBox="0 0 311.746 242.49">
  <defs>
    <style>
      .cls-1, .cls-6 {
        fill: #333;
      }

      .cls-1 {
        stroke-linecap: round;
        stroke-linejoin: round;
      }

      .cls-2 {
        fill: #b6b7b7;
      }

      .cls-3 {
        fill: #707070;
      }

      .cls-4 {
        fill: #513c25;
      }

      .cls-5 {
        fill: #cdd1d1;
      }

      .cls-7 {
        fill: #b5b5b5;
      }

      .cls-8 {
        fill: #efefef;
      }

      .cls-9 {
        fill: #3f2f1c;
      }

      .cls-10 {
        fill: #fefefe;
      }

      .cls-11 {
        fill: #e0e0e0;
      }

      .cls-12 {
        fill: #89512a;
      }

      .cls-13 {
        fill: #c6c6c6;
      }

      .cls-14 {
        fill: #aaa;
      }

      .cls-15 {
        fill: #898989;
      }

      .cls-16 {
        fill: #5b5b5b;
      }

      .cls-17 {
        fill: #4f4f4f;
      }

      .cls-18 {
        fill: #191919;
      }

      .cls-19, .cls-20 {
        stroke: none;
      }

      .cls-20 {
        fill: #fff;
      }
    </style>
  </defs>
  <g id="组_1810" data-name="组 1810" transform="translate(-834.157 -1152.626)">
    <g id="路径_3609" data-name="路径 3609" class="cls-1">
      <path class="cls-19" d="M 860.973388671875 1390.11572265625 C 859.6255493164063 1390.11572265625 858.55908203125 1389.932983398438 857.6171875 1389.54052734375 C 856.01513671875 1388.873046875 854.7830200195313 1387.5537109375 853.85009765625 1385.506958007813 C 853.3675537109375 1384.448486328125 852.9439697265625 1383.162109375 852.591064453125 1381.683715820313 C 851.9051513671875 1378.810180664063 851.6091918945313 1375.748046875 851.7991943359375 1373.492431640625 C 851.898681640625 1372.312377929688 852.126220703125 1371.3154296875 852.494873046875 1370.444580078125 C 853.2893676757813 1368.567749023438 854.8047485351563 1367.2470703125 856.65234375 1366.820922851563 C 857.3851928710938 1366.65185546875 858.6117553710938 1366.457885742188 861.6162719726563 1366.457885742188 C 864.6445922851563 1366.457885742188 868.08984375 1366.65087890625 868.8258666992188 1366.694213867188 C 875.0991821289063 1361.340454101563 888.1541748046875 1350.072509765625 895.178466796875 1343.096435546875 C 899.8651123046875 1336.53076171875 902.0132446289063 1331.79296875 903.278564453125 1328.551635742188 C 901.611572265625 1329.871948242188 899.6910400390625 1331.358764648438 897.6021728515625 1332.915649414063 C 888.2244262695313 1339.904907226563 880.297607421875 1344.71826171875 874.0419311523438 1347.221923828125 C 868.1732177734375 1349.570190429688 863.7815551757813 1351.20947265625 860.9390869140625 1352.113525390625 C 860.5531616210938 1352.483276367188 860.0953369140625 1352.853637695313 859.5503540039063 1353.2373046875 C 858.6578369140625 1353.865844726563 857.4673461914063 1354.574096679688 856.0121459960938 1355.342651367188 C 853.936767578125 1356.438598632813 851.0050659179688 1357.808715820313 849.6913452148438 1358.204467773438 C 849.200439453125 1358.352294921875 848.6913452148438 1358.42724609375 848.1782836914063 1358.42724609375 C 846.80322265625 1358.42724609375 845.4661865234375 1357.882690429688 844.4133911132813 1356.8935546875 C 843.9869995117188 1356.492919921875 843.6011352539063 1356.019287109375 843.2337036132813 1355.44580078125 C 842.800048828125 1354.768798828125 842.379150390625 1353.932495117188 841.947021484375 1352.889404296875 C 841.0389404296875 1350.697021484375 840.1600952148438 1347.747680664063 839.653564453125 1345.192138671875 C 839.3558959960938 1343.6904296875 839.1937255859375 1342.369384765625 839.1716918945313 1341.265502929688 C 839.1544799804688 1340.40283203125 839.10205078125 1337.77783203125 841.0084228515625 1335.871459960938 C 843.4647216796875 1333.415283203125 847.3695678710938 1333.152221679688 852.21923828125 1333.063720703125 C 852.878173828125 1333.051635742188 853.5595092773438 1333.039184570313 853.900634765625 1333.011474609375 C 853.9319458007813 1333.008911132813 853.963134765625 1333.006713867188 853.994384765625 1333.004638671875 C 858.1339721679688 1329.48876953125 862.5689697265625 1325.688842773438 866.1419067382813 1322.5712890625 C 865.1375732421875 1321.667114257813 864.39453125 1320.524780273438 863.9878540039063 1319.232421875 C 863.5260620117188 1317.764892578125 863.4983520507813 1316.174194335938 863.9056396484375 1314.50439453125 C 864.29150390625 1312.921997070313 865.0830688476563 1311.278564453125 866.1346435546875 1309.87646484375 C 867.7637329101563 1307.704223632813 869.6241455078125 1306.602905273438 871.6641235351563 1306.602905273438 C 872.131103515625 1306.602905273438 872.5882568359375 1306.662963867188 873.0265502929688 1306.778564453125 C 872.6329345703125 1303.836059570313 871.8922119140625 1299.7744140625 870.8203125 1294.68310546875 C 870.6774291992188 1294.004516601563 870.5352783203125 1293.332275390625 870.3944091796875 1292.666137695313 C 868.5370483398438 1283.882568359375 866.9329833984375 1276.296752929688 866.87744140625 1269.585327148438 C 866.8450927734375 1265.686157226563 867.3455200195313 1262.375610351563 868.4072265625 1259.464721679688 C 869.6400146484375 1256.084716796875 871.663330078125 1253.22216796875 874.4210205078125 1250.95654296875 L 874.8545532226563 1250.600341796875 L 875.3562622070313 1250.34912109375 C 882.1773071289063 1246.933471679688 888.669921875 1245.20166015625 894.6536865234375 1245.20166015625 C 901.8632202148438 1245.20166015625 908.3993530273438 1247.731689453125 913.5554809570313 1252.518432617188 C 914.6672973632813 1253.550537109375 915.6033935546875 1254.584838867188 916.37646484375 1255.542358398438 C 921.380615234375 1253.198608398438 927.1146850585938 1252.013793945313 933.4874877929688 1252.013793945313 C 933.6080932617188 1252.013793945313 933.7298583984375 1252.014282226563 933.8511352539063 1252.01513671875 C 937.6336059570313 1252.041870117188 942.0897216796875 1252.069213867188 946.462890625 1252.069213867188 C 956.0325927734375 1252.069091796875 966.64697265625 1251.945922851563 975.790771484375 1251.323852539063 C 971.3619384765625 1249.036010742188 968.0849609375 1246.164428710938 966.0244750976563 1242.75830078125 C 963.7539672851563 1239.005126953125 963.0117797851563 1234.649291992188 963.8780517578125 1230.161499023438 C 964.5513305664063 1226.673706054688 966.2147216796875 1223.104614257813 968.561767578125 1220.111694335938 C 969.5713500976563 1218.824340820313 970.6712646484375 1217.699096679688 971.74267578125 1216.857666015625 C 973.4149780273438 1215.54443359375 975.0133056640625 1214.906005859375 976.6290283203125 1214.906005859375 L 987.4397583007813 1214.906005859375 L 983.6616821289063 1219.351806640625 L 983.81689453125 1219.319458007813 L 984.0294799804688 1219.2939453125 C 992.8793334960938 1218.228637695313 997.3804321289063 1201.779052734375 999.798583984375 1192.941772460938 C 999.9209594726563 1192.49462890625 1000.03955078125 1192.06103515625 1000.154907226563 1191.642822265625 L 1000.229614257813 1191.371948242188 L 1000.334167480469 1191.111206054688 C 1003.773803710938 1182.53271484375 1006.392944335938 1177.03466796875 1008.826477050781 1173.2841796875 C 1010.793334960938 1170.252685546875 1012.813720703125 1168.1103515625 1015.186584472656 1166.579345703125 C 1016.412353515625 1162.533813476563 1017.17138671875 1160.834594726563 1017.327941894531 1160.501098632813 L 1020.249938964844 1154.277221679688 L 1025.270385742188 1158.97509765625 C 1025.340698242188 1159.041015625 1026.582275390625 1160.20361328125 1028.317504882813 1161.880737304688 C 1030.438232421875 1161.395629882813 1032.739501953125 1161.150756835938 1035.189697265625 1161.150756835938 C 1043.1064453125 1161.150756835938 1051.517578125 1163.664306640625 1058.27587890625 1165.683959960938 C 1059.635864257813 1166.09033203125 1060.92041015625 1166.474243164063 1062.117309570313 1166.81298828125 C 1063.0771484375 1167.084594726563 1063.952392578125 1167.222290039063 1064.719482421875 1167.22216796875 C 1067.291625976563 1167.221923828125 1068.553344726563 1165.750854492188 1070.578491210938 1162.231689453125 C 1070.724731445313 1161.977661132813 1070.86279296875 1161.73779296875 1071.00439453125 1161.497802734375 L 1074.282836914063 1155.939453125 L 1078.84619140625 1160.502075195313 C 1080.365356445313 1162.02099609375 1081.37158203125 1163.815795898438 1081.824340820313 1165.787231445313 C 1082.150634765625 1164.734252929688 1082.2734375 1164.015014648438 1082.275512695313 1164.001098632813 L 1083.840698242188 1153.583740234375 L 1090.921875 1161.382934570313 C 1092.967651367188 1163.63623046875 1094.426391601563 1166.0810546875 1095.257446289063 1168.6494140625 C 1096.041748046875 1171.073364257813 1096.27099609375 1173.607788085938 1095.938598632813 1176.18212890625 C 1095.545654296875 1179.225219726563 1094.363525390625 1182.328369140625 1092.425048828125 1185.405395507813 C 1090.975219726563 1187.706665039063 1089.088623046875 1190.016479492188 1086.817626953125 1192.270629882813 C 1086.33349609375 1192.751098632813 1085.851806640625 1193.209716796875 1085.378784179688 1193.644653320313 C 1090.024047851563 1196.012329101563 1094.814453125 1198.581176757813 1096.827514648438 1200.070922851563 C 1099.360107421875 1201.945556640625 1103.64990234375 1204.470825195313 1106.034301757813 1205.838623046875 C 1107.579711914063 1205.5009765625 1109.774536132813 1205.152954101563 1112.25830078125 1205.152954101563 C 1113.423583984375 1205.152954101563 1114.56982421875 1205.230834960938 1115.665283203125 1205.384521484375 L 1115.682373046875 1205.386840820313 L 1115.699340820313 1205.389404296875 C 1117.70849609375 1205.685302734375 1119.7119140625 1206.633178710938 1121.493041992188 1208.130737304688 C 1123.037841796875 1209.429565429688 1124.396850585938 1211.100952148438 1125.532592773438 1213.098510742188 C 1127.369750976563 1216.329833984375 1128.475219726563 1220.173706054688 1128.7294921875 1224.214721679688 C 1129.016357421875 1228.774291992188 1128.234497070313 1233.33837890625 1126.4052734375 1237.780029296875 C 1124.877685546875 1241.4892578125 1123.074829101563 1244.86083984375 1121.046630859375 1247.801147460938 C 1119.071533203125 1250.664428710938 1116.87109375 1253.1376953125 1114.50634765625 1255.152099609375 C 1109.746704101563 1259.206665039063 1104.413208007813 1261.349853515625 1099.082641601563 1261.349853515625 C 1095.343994140625 1261.349853515625 1091.70947265625 1260.259643554688 1088.57177734375 1258.197143554688 C 1086.353271484375 1256.73876953125 1084.419677734375 1254.846069335938 1082.795776367188 1252.547485351563 C 1082.585815429688 1252.572509765625 1082.368041992188 1252.59814453125 1082.142944335938 1252.624145507813 C 1081.702880859375 1255.8564453125 1080.908935546875 1260.63720703125 1079.566040039063 1265.76171875 C 1077.563354492188 1273.403198242188 1074.954223632813 1279.495483398438 1071.768798828125 1283.988037109375 C 1078.027709960938 1285.632690429688 1085.34130859375 1287.629516601563 1092.589599609375 1289.777587890625 C 1106.088256835938 1293.778076171875 1115.82763671875 1297.263793945313 1121.537109375 1300.137939453125 C 1124.839721679688 1301.801147460938 1127.264282226563 1303.128540039063 1128.94140625 1304.191650390625 C 1129.125732421875 1304.29248046875 1129.399047851563 1304.438110351563 1129.706665039063 1304.60205078125 C 1131.101440429688 1305.344970703125 1133.435913085938 1306.588623046875 1135.441528320313 1307.892578125 C 1136.721069335938 1308.724609375 1137.711303710938 1309.478637695313 1138.468627929688 1310.197875976563 C 1139.093139648438 1310.790893554688 1139.57958984375 1311.377563476563 1139.955810546875 1311.99169921875 C 1140.924926757813 1313.5732421875 1140.9677734375 1315.031494140625 1140.833129882813 1315.976440429688 C 1140.502685546875 1318.283935546875 1138.8095703125 1319.8818359375 1137.371337890625 1321.0166015625 C 1136.002197265625 1322.096801757813 1134.406860351563 1323.083251953125 1133.309814453125 1323.720581054688 C 1131.791137695313 1324.602661132813 1130.264526367188 1325.38037109375 1128.89501953125 1325.969360351563 C 1126.889770507813 1326.831787109375 1125.411499023438 1327.216430664063 1124.101806640625 1327.216430664063 C 1122.560424804688 1327.216430664063 1121.456787109375 1326.670532226563 1120.802368164063 1326.212646484375 C 1119.85498046875 1325.549682617188 1118.757690429688 1324.42431640625 1116.482055664063 1321.087036132813 C 1115.895629882813 1320.226928710938 1115.347412109375 1319.389282226563 1114.937377929688 1318.753051757813 C 1111.935913085938 1317.127197265625 1111.059204101563 1316.815307617188 1110.9482421875 1316.778686523438 L 1110.947631835938 1316.778564453125 C 1110.631103515625 1316.681518554688 1110.307983398438 1316.567504882813 1109.933837890625 1316.435424804688 C 1107.620971679688 1315.619262695313 1101.637939453125 1313.507690429688 1086.236694335938 1312.514526367188 C 1093.753173828125 1315.666625976563 1100.801147460938 1318.638916015625 1106.641723632813 1321.256225585938 C 1116.263061523438 1325.567749023438 1119.239868164063 1327.408813476563 1120.749389648438 1328.846435546875 C 1122.286376953125 1330.310791015625 1123.478149414063 1331.58740234375 1124.36767578125 1332.729125976563 C 1125.554077148438 1332.96875 1127.037231445313 1333.311157226563 1128.51025390625 1333.76416015625 C 1130.330322265625 1334.323852539063 1131.798706054688 1334.9423828125 1132.99951171875 1335.655151367188 C 1133.921020507813 1336.2021484375 1134.671875 1336.7958984375 1135.294799804688 1337.470092773438 C 1136.266845703125 1338.522338867188 1136.878173828125 1339.721557617188 1137.111694335938 1341.034423828125 C 1137.53857421875 1343.434936523438 1136.638916015625 1345.923217773438 1134.361450195313 1348.641479492188 C 1132.851684570313 1350.443481445313 1130.689208984375 1352.396728515625 1128.4287109375 1354.00048828125 C 1124.55859375 1356.74609375 1122.449951171875 1357.063720703125 1121.200561523438 1357.063720703125 C 1120.272338867188 1357.063720703125 1119.39794921875 1356.861572265625 1118.601806640625 1356.463012695313 C 1116.617309570313 1355.471435546875 1114.6015625 1353.303100585938 1113.576904296875 1352.098876953125 C 1112.674438476563 1351.038330078125 1111.975341796875 1350.080200195313 1111.462890625 1349.187133789063 C 1110.556396484375 1348.752319335938 1109.599243164063 1348.2236328125 1108.536010742188 1347.636352539063 C 1105.563598632813 1345.994384765625 1101.864501953125 1343.951049804688 1097.434692382813 1343.002075195313 C 1092.665161132813 1341.980102539063 1077.193237304688 1339.31201171875 1062.2109375 1336.927978515625 C 1041.463256835938 1333.62646484375 1031.786987304688 1332.454956054688 1029.805053710938 1332.454956054688 C 1029.7080078125 1332.456665039063 1029.100219726563 1332.489501953125 1027.07861328125 1332.97314453125 C 1025.476440429688 1333.3564453125 1023.424926757813 1333.913696289063 1021.049438476563 1334.558837890625 C 1014.763549804688 1336.266235351563 1006.154663085938 1338.604614257813 995.6890869140625 1340.534057617188 C 989.9509887695313 1341.591918945313 984.2201538085938 1342.415771484375 978.6558227539063 1342.982543945313 C 972.1534423828125 1343.644897460938 965.648681640625 1343.980712890625 959.3221435546875 1343.980712890625 C 953.4860229492188 1343.980712890625 947.6514282226563 1343.695068359375 941.9541015625 1343.131103515625 C 941.3990478515625 1343.520629882813 940.5173950195313 1344.194580078125 939.1636962890625 1345.351684570313 C 937.200439453125 1347.030029296875 934.8594970703125 1349.185668945313 932.1488647460938 1351.681762695313 C 927.40234375 1356.052490234375 921.4950561523438 1361.4921875 915.456787109375 1366.26513671875 C 908.1795043945313 1372.017456054688 901.9837646484375 1375.806030273438 896.515625 1377.847290039063 C 885.6445922851563 1381.906005859375 879.4815063476563 1384.099365234375 876.3125 1385.19775390625 C 875.2051391601563 1386.785278320313 873.4527587890625 1387.4658203125 872.6248168945313 1387.787353515625 C 871.393310546875 1388.265625 869.97705078125 1388.65869140625 869.0057983398438 1388.904174804688 C 867.8814086914063 1389.188354492188 863.9793090820313 1390.11572265625 860.973388671875 1390.11572265625 Z M 1061.270385742188 1253.12451171875 C 1060.724487304688 1258.56494140625 1059.812255859375 1267.170532226563 1058.699340820313 1275.789428710938 C 1059.208984375 1275.267211914063 1059.7138671875 1274.689086914063 1060.205688476563 1274.048950195313 C 1063.902099609375 1269.239501953125 1065.913818359375 1262.338256835938 1066.206298828125 1253.489868164063 C 1064.408935546875 1253.437255859375 1062.766479492188 1253.315795898438 1061.270385742188 1253.12451171875 Z"/>
      <path class="cls-20" d="M 860.973388671875 1385.11572265625 C 864.4791870117188 1385.11572265625 871.863037109375 1383.237060546875 872.2429809570313 1382.279052734375 L 871.9210205078125 1381.328979492188 L 871.948974609375 1381.39599609375 C 871.948974609375 1381.39599609375 877.1240234375 1379.75 894.7670288085938 1373.162963867188 C 912.4099731445313 1366.577026367188 934.7670288085938 1340.462036132813 940.8829956054688 1337.993041992188 C 947.2300415039063 1338.683227539063 953.3966674804688 1338.980712890625 959.3221435546875 1338.980712890625 C 996.2210083007813 1338.980712890625 1023.926940917969 1327.454956054688 1029.805053710938 1327.454956054688 C 1036.626953125 1327.454956054688 1088.60205078125 1335.995971679688 1098.482055664063 1338.113037109375 C 1106.70703125 1339.875 1112.475952148438 1344.719970703125 1115.402954101563 1345.348022460938 C 1115.390014648438 1345.39501953125 1115.365966796875 1345.452026367188 1115.363037109375 1345.489013671875 C 1115.2490234375 1346.702026367188 1119.04296875 1351.093994140625 1120.839965820313 1351.991943359375 C 1120.936889648438 1352.04052734375 1121.058227539063 1352.063720703125 1121.200561523438 1352.063720703125 C 1123.697265625 1352.063720703125 1132.726318359375 1344.931640625 1132.18896484375 1341.910034179688 C 1131.659057617188 1338.931030273438 1122.593994140625 1337.45703125 1121.376953125 1337.27197265625 C 1121.015991210938 1336.489990234375 1120.009033203125 1335.046997070313 1117.301025390625 1332.467041015625 C 1112.360961914063 1327.761962890625 1066.724975585938 1310.589965820313 1048.847045898438 1301.651000976563 C 1048.947998046875 1301.385009765625 1049.047973632813 1301.093017578125 1049.14794921875 1300.785034179688 C 1052.630004882813 1304.244995117188 1059.35400390625 1306.912963867188 1070.545043945313 1306.993041992188 C 1101.620971679688 1307.214965820313 1110.051025390625 1311.274047851563 1112.412963867188 1311.998046875 C 1113.58203125 1312.35498046875 1116.160034179688 1313.708984375 1118.465942382813 1314.984985351563 C 1118.468017578125 1314.988037109375 1122.327026367188 1321.177001953125 1123.6689453125 1322.115966796875 C 1123.766723632813 1322.184326171875 1123.913452148438 1322.216430664063 1124.101806640625 1322.216430664063 C 1126.500366210938 1322.216430664063 1135.633666992188 1317.01318359375 1135.883056640625 1315.27099609375 C 1136.14501953125 1313.432983398438 1128.037963867188 1309.4189453125 1126.384033203125 1308.490966796875 C 1124.989990234375 1307.597045898438 1122.751953125 1306.348022460938 1119.288940429688 1304.60400390625 C 1106.760009765625 1298.296997070313 1075.951049804688 1290.152954101563 1061.928955078125 1286.618041992188 C 1075.121948242188 1279.027954101563 1077.635009765625 1248.06298828125 1077.635009765625 1248.06298828125 L 1077.614013671875 1248.06396484375 C 1081.517944335938 1247.714965820313 1084.56298828125 1247.279052734375 1085.376953125 1247.181030273438 C 1088.490234375 1253.190551757813 1093.538696289063 1256.349853515625 1099.082641601563 1256.349853515625 C 1107.04736328125 1256.349853515625 1116.03515625 1249.83056640625 1121.781982421875 1235.8759765625 C 1127.110961914063 1222.93603515625 1120.762939453125 1211.18896484375 1114.970947265625 1210.336059570313 C 1114.043823242188 1210.2060546875 1113.130493164063 1210.152954101563 1112.25830078125 1210.152954101563 C 1108.400390625 1210.152954101563 1105.337036132813 1211.18994140625 1105.337036132813 1211.18994140625 C 1105.337036132813 1211.18994140625 1097.786010742188 1207.0009765625 1093.85302734375 1204.089965820313 C 1091.501953125 1202.349975585938 1083.676025390625 1198.307983398438 1076.109008789063 1194.612060546875 C 1076.975952148438 1194.047973632813 1100.031005859375 1178.85400390625 1087.219970703125 1164.744018554688 C 1086.972900390625 1166.388916015625 1084.272094726563 1178.6181640625 1073.824951171875 1178.618286132813 C 1073.067993164063 1178.618286132813 1072.270385742188 1178.554077148438 1071.430053710938 1178.4169921875 C 1071.430053710938 1178.4169921875 1080.95703125 1169.682983398438 1075.31103515625 1164.037963867188 C 1073.600341796875 1166.938232421875 1071.073486328125 1172.2216796875 1064.719970703125 1172.22216796875 C 1063.537353515625 1172.222290039063 1062.22314453125 1172.039428710938 1060.755981445313 1171.6240234375 C 1053.624633789063 1169.606079101563 1043.876098632813 1166.150756835938 1035.189697265625 1166.150756835938 C 1032.486083984375 1166.150756835938 1029.88623046875 1166.485229492188 1027.4990234375 1167.302001953125 C 1027.298950195313 1167.369995117188 1027.107055664063 1167.432006835938 1026.912963867188 1167.495971679688 C 1024.171997070313 1164.795043945313 1021.85400390625 1162.6259765625 1021.85400390625 1162.6259765625 C 1021.85400390625 1162.6259765625 1020.945983886719 1164.56005859375 1019.406982421875 1169.951049804688 C 1014.9580078125 1172.016967773438 1011.637023925781 1176.357055664063 1004.974975585938 1192.972045898438 C 1002.153015136719 1203.204956054688 997.3300170898438 1222.72900390625 984.6270141601563 1224.258056640625 C 983.44921875 1224.50341796875 980.81591796875 1225.015380859375 978.5840454101563 1225.015380859375 C 975.4683227539063 1225.015625 973.1343383789063 1224.018310546875 976.6290283203125 1219.906005859375 C 973.218017578125 1219.906005859375 957.927978515625 1238.961059570313 981.0989990234375 1248.253051757813 C 990.0380249023438 1250.251953125 997.60498046875 1252.526977539063 997.60498046875 1252.526977539063 L 997.6060180664063 1252.527954101563 C 997.39599609375 1252.612060546875 997.1840209960938 1252.696044921875 996.9769897460938 1252.781005859375 C 988.0115356445313 1256.455688476563 967.5333251953125 1257.069091796875 946.462890625 1257.069213867188 C 942.2407836914063 1257.069213867188 937.9981079101563 1257.044555664063 933.8159790039063 1257.015014648438 C 933.7064819335938 1257.014282226563 933.5963745117188 1257.013793945313 933.4874877929688 1257.013793945313 C 925.8037719726563 1257.013793945313 919.6293334960938 1258.919067382813 914.7849731445313 1262.1650390625 L 914.7849731445313 1262.163940429688 C 914.7849731445313 1262.163940429688 909.1452026367188 1250.20166015625 894.6537475585938 1250.20166015625 C 889.9404296875 1250.20166015625 884.2918701171875 1251.466552734375 877.594970703125 1254.819946289063 C 868.656005859375 1262.163940429688 871.948974609375 1275.775024414063 875.7130126953125 1293.652954101563 C 879.4769897460938 1311.531005859375 878.4180297851563 1312.942993164063 877.447998046875 1314.177978515625 C 876.9404296875 1314.823486328125 875.1475219726563 1315.637573242188 873.705322265625 1315.637817382813 C 872.3883666992188 1315.637939453125 871.3638305664063 1314.959350585938 871.8759765625 1312.85400390625 C 872.0913696289063 1311.96875 871.9656372070313 1311.602905273438 871.6641235351563 1311.602905273438 C 870.4634399414063 1311.602905273438 866.4749755859375 1317.400634765625 870.1259765625 1319.2939453125 C 871.4180297851563 1319.963989257813 873.302978515625 1320.552001953125 875.4439697265625 1320.965942382813 C 871.1649780273438 1324.989990234375 858.697021484375 1335.577026367188 855.218994140625 1338.52197265625 C 854.9486694335938 1338.189453125 854.6632080078125 1337.992797851563 854.3619384765625 1337.992797851563 C 854.3433837890625 1337.992797851563 854.3247680664063 1337.993530273438 854.3060302734375 1337.994995117188 C 852.1300048828125 1338.171997070313 846.1320190429688 1337.818969726563 844.5440063476563 1339.406982421875 C 842.9818725585938 1340.969116210938 846.713134765625 1353.427368164063 848.1782836914063 1353.427368164063 C 848.2025756835938 1353.427368164063 848.2260131835938 1353.423950195313 848.2490234375 1353.4169921875 C 849.6599731445313 1352.991943359375 858.0980224609375 1349.058959960938 857.89501953125 1347.800048828125 C 859.406982421875 1347.402954101563 863.1339721679688 1346.201049804688 872.1840209960938 1342.579956054688 C 886.2979736328125 1336.931030273438 906.458984375 1319.469970703125 906.458984375 1319.469970703125 C 908.6669921875 1322.892944335938 910.468994140625 1324.512939453125 909.822021484375 1325.64501953125 C 908.4110107421875 1328.114990234375 907.469970703125 1334.583984375 899.0009765625 1346.345947265625 C 890.39599609375 1354.951049804688 872.1619873046875 1370.432983398438 869.10498046875 1373.01904296875 L 868.656005859375 1371.692993164063 C 868.656005859375 1371.692993164063 864.83984375 1371.457885742188 861.6162719726563 1371.457885742188 C 860.0042114257813 1371.457885742188 858.540771484375 1371.5166015625 857.7760009765625 1371.692993164063 C 855.4819946289063 1372.222045898438 857.4229736328125 1384.04296875 859.5399780273438 1384.925048828125 C 859.8573608398438 1385.057250976563 860.355224609375 1385.11572265625 860.973388671875 1385.11572265625 M 900.2949829101563 1297.593017578125 C 900.3140258789063 1298.162963867188 900.343994140625 1298.714965820313 900.3770141601563 1299.260009765625 L 900.375 1299.260986328125 C 900.302978515625 1299.317993164063 900.1690063476563 1299.426025390625 900.0029907226563 1299.56103515625 C 900.198974609375 1298.573974609375 900.301025390625 1297.869018554688 900.2949829101563 1297.593017578125 M 1056.844970703125 1246.943969726563 C 1059.682495117188 1248.132934570313 1063.955932617188 1248.52001953125 1068.3466796875 1248.52001953125 C 1069.296142578125 1248.52001953125 1070.250854492188 1248.501953125 1071.197998046875 1248.469970703125 C 1072.14697265625 1277.27001953125 1057.796020507813 1283.765014648438 1052.333984375 1285.192016601563 C 1054.883056640625 1268.586059570313 1056.844970703125 1246.943969726563 1056.844970703125 1246.943969726563 M 860.973388671875 1395.11572265625 C 858.9710693359375 1395.11572265625 857.2442016601563 1394.8017578125 855.6940307617188 1394.155883789063 C 845.8439331054688 1390.051635742188 846.802734375 1373.240478515625 846.8168334960938 1373.072509765625 C 847.543701171875 1364.447631835938 853.6688232421875 1362.377685546875 855.5287475585938 1361.94873046875 C 857.0208740234375 1361.604736328125 858.8414306640625 1361.457885742188 861.6163330078125 1361.457885742188 C 863.5025634765625 1361.457885742188 865.5753173828125 1361.531494140625 867.0877685546875 1361.599365234375 C 870.6632080078125 1358.534545898438 875.8222045898438 1354.072998046875 880.7970581054688 1349.629516601563 C 879.1331787109375 1350.471923828125 877.49169921875 1351.226806640625 875.8997802734375 1351.864013671875 C 870.6773071289063 1353.95361328125 866.5623168945313 1355.504638671875 863.603271484375 1356.49951171875 C 859.5294799804688 1360.170654296875 853.6705932617188 1362.227661132813 851.1334228515625 1362.991943359375 C 850.1978759765625 1363.273803710938 849.1553955078125 1363.427368164063 848.1782836914063 1363.427368164063 C 843.3488159179688 1363.427368164063 839.6980590820313 1360.525512695313 837.3275146484375 1354.802612304688 C 834.3450927734375 1347.602172851563 831.9492797851563 1337.859619140625 837.4729614257813 1332.3359375 C 841.5387573242188 1328.270141601563 847.380126953125 1328.151245117188 852.0849609375 1328.065307617188 C 854.5936889648438 1325.930297851563 857.1629028320313 1323.731567382813 859.5383911132813 1321.681274414063 C 858.5296630859375 1319.171752929688 858.3240966796875 1316.287963867188 859.0479736328125 1313.319702148438 C 859.93896484375 1309.666259765625 862.7310180664063 1304.630615234375 867.2803344726563 1302.555419921875 C 866.9427490234375 1300.696411132813 866.5020141601563 1298.44189453125 865.9275512695313 1295.713134765625 L 865.5025634765625 1293.700561523438 C 861.6217041015625 1275.34765625 857.9560546875 1258.012573242188 871.2469482421875 1247.09326171875 C 871.8232421875 1246.619750976563 872.4506225585938 1246.212280273438 873.1174926757813 1245.87841796875 C 880.6398315429688 1242.111572265625 887.8856201171875 1240.20166015625 894.6537475585938 1240.20166015625 C 905.0491943359375 1240.20166015625 912.7223510742188 1244.64697265625 917.7437744140625 1249.578002929688 C 922.52392578125 1247.873413085938 927.7889404296875 1247.013916015625 933.4874877929688 1247.013916015625 L 946.4628295898438 1247.069091796875 C 950.2261962890625 1247.069091796875 956.2415161132813 1247.069091796875 962.798095703125 1246.902099609375 C 957.6644897460938 1239.711059570313 958.3988647460938 1232.165649414063 958.9686889648438 1229.2138671875 C 960.7315673828125 1220.08154296875 968.41796875 1209.906005859375 976.6290283203125 1209.906005859375 C 979.7446899414063 1209.906005859375 982.6334228515625 1211.35302734375 984.5028686523438 1213.74072265625 C 989.851806640625 1210.3486328125 993.6385498046875 1196.509521484375 994.9759521484375 1191.621948242188 L 995.3348388671875 1190.313598632813 C 995.434326171875 1189.952758789063 995.5540161132813 1189.597778320313 995.6932983398438 1189.250366210938 C 1000.966369628906 1176.099487304688 1004.978942871094 1168.121215820313 1010.911437988281 1163.493896484375 C 1011.917907714844 1160.357177734375 1012.58203125 1158.844604492188 1012.801879882813 1158.376220703125 C 1014.161560058594 1155.480224609375 1016.8251953125 1153.409790039063 1019.967041015625 1152.806030273438 C 1020.594665527344 1152.685424804688 1021.226623535156 1152.626220703125 1021.854187011719 1152.626220703125 C 1024.3681640625 1152.626220703125 1026.817016601563 1153.575073242188 1028.686645507813 1155.32421875 C 1028.686645507813 1155.32421875 1029.16357421875 1155.770385742188 1029.94384765625 1156.512939453125 C 1031.65478515625 1156.26708984375 1033.391845703125 1156.150634765625 1035.189697265625 1156.150634765625 C 1043.837646484375 1156.150634765625 1052.637084960938 1158.7802734375 1059.707641601563 1160.893310546875 L 1063.478759765625 1162.001831054688 C 1064.181640625 1162.200805664063 1064.580322265625 1162.22216796875 1064.71923828125 1162.22216796875 C 1064.938720703125 1162.007568359375 1065.788452148438 1160.531005859375 1066.244995117188 1159.737670898438 C 1067.796752929688 1157.041137695313 1070.714721679688 1154.876708984375 1073.799072265625 1154.468383789063 C 1074.34716796875 1154.395751953125 1074.902465820313 1154.3583984375 1075.456787109375 1154.3583984375 C 1077.760131835938 1154.3583984375 1080.052612304688 1155.003051757813 1081.806396484375 1156.44482421875 C 1082.612182617188 1155.91943359375 1083.498657226563 1155.508056640625 1084.44482421875 1155.236694335938 C 1085.390625 1154.965209960938 1086.35693359375 1154.831787109375 1087.313232421875 1154.831787109375 C 1090.058227539063 1154.831787109375 1092.724853515625 1155.9306640625 1094.623657226563 1158.02197265625 C 1099.607177734375 1163.510864257813 1101.776611328125 1170.011840820313 1100.8974609375 1176.822265625 C 1100.1259765625 1182.798217773438 1097.065795898438 1188.064575195313 1093.572021484375 1192.294677734375 C 1096.486938476563 1193.884155273438 1098.569458007813 1195.139770507813 1099.801879882813 1196.051879882813 C 1101.585693359375 1197.3720703125 1104.532104492188 1199.172607421875 1106.935180664063 1200.582397460938 C 1108.47119140625 1200.337890625 1110.285034179688 1200.152954101563 1112.25830078125 1200.152954101563 C 1113.577026367188 1200.152954101563 1114.957763671875 1200.236328125 1116.359619140625 1200.432983398438 C 1121.741333007813 1201.225219726563 1126.644165039063 1204.937377929688 1129.879150390625 1210.627197265625 C 1134.641845703125 1219.004272460938 1135.071533203125 1229.86669921875 1131.028564453125 1239.683959960938 C 1124.152221679688 1256.381225585938 1112.209838867188 1266.349853515625 1099.082641601563 1266.349853515625 C 1094.2041015625 1266.349853515625 1089.587158203125 1264.888061523438 1085.612548828125 1262.210205078125 C 1084.377807617188 1268.01611328125 1082.433837890625 1274.767944335938 1079.396728515625 1280.847534179688 C 1095.257690429688 1285.148681640625 1114.106567382813 1290.799682617188 1123.785278320313 1295.671875 C 1127.693359375 1297.640014648438 1130.209350585938 1299.064575195313 1131.781982421875 1300.072998046875 C 1138.714477539063 1303.7353515625 1146.999267578125 1308.148681640625 1145.783081054688 1316.682006835938 C 1144.95654296875 1322.453979492188 1138.336669921875 1327.158081054688 1132.40869140625 1329.823974609375 C 1138.037231445313 1332.093627929688 1141.208129882813 1335.513305664063 1142.034423828125 1340.15869140625 C 1142.7265625 1344.050903320313 1141.434448242188 1347.985229492188 1138.193969726563 1351.852783203125 C 1138.1083984375 1351.954833984375 1129.408935546875 1362.063720703125 1121.20068359375 1362.063720703125 C 1119.646850585938 1362.063720703125 1117.75390625 1361.6298828125 1116.364501953125 1360.9345703125 C 1114.739990234375 1360.122802734375 1110.652465820313 1357.082641601563 1107.943481445313 1353.007568359375 C 1107.348999023438 1352.692749023438 1106.744384765625 1352.358764648438 1106.118408203125 1352.012939453125 C 1103.294677734375 1350.453247070313 1100.094116210938 1348.685302734375 1096.387451171875 1347.891235351563 C 1086.070678710938 1345.680541992188 1035.863647460938 1337.5263671875 1029.793823242188 1337.454956054688 C 1029.093383789063 1337.55517578125 1025.516235351563 1338.526733398438 1022.360168457031 1339.384033203125 C 1010.012512207031 1342.737915039063 987.0288696289063 1348.980834960938 959.3221435546875 1348.980834960938 C 953.9653930664063 1348.980834960938 948.6088256835938 1348.74658203125 943.3513793945313 1348.283569335938 C 941.5097045898438 1349.858764648438 938.26953125 1352.842529296875 935.5358276367188 1355.35986328125 C 925.31689453125 1364.769775390625 911.3216552734375 1377.6572265625 898.2642211914063 1382.531494140625 C 888.5415649414063 1386.161499023438 882.52880859375 1388.319091796875 879.0549926757813 1389.535766601563 C 873.1760864257813 1395.040649414063 861.11669921875 1395.11572265625 860.973388671875 1395.11572265625 Z"/>
    </g>
    <path id="路径_3610" data-name="路径 3610" class="cls-2" d="M906.459,1319.47s-20.161,17.461-34.275,23.11-15.29,5.413-15.29,5.413l-2.588-8.7s21.877-18.471,22.583-19.824,22.037-19.071,23.486-20.209S912.741,1302.945,906.459,1319.47Z"/>
    <path id="路径_3611" data-name="路径 3611" class="cls-3" d="M914.785,1262.164s-9.9-21.008-37.19-7.344c-8.939,7.344-5.646,20.955-1.882,38.833s2.705,19.29,1.735,20.525-6.645,3.087-5.572-1.324-6.318,4.071-1.75,6.44,16.425,3.793,21.577-.353,8.626-19.76,8.592-21.348S916.483,1264.868,914.785,1262.164Z"/>
    <path id="路径_3612" data-name="路径 3612" class="cls-2" d="M1054.77,1284.85s48.052,11.465,64.519,19.754,5.506,5.527,5.506,5.527l-1.907,7.375s-8.114-4.785-10.475-5.508-10.792-4.783-41.868-5.005S1042.7,1286.626,1054.77,1284.85Z"/>
    <path id="路径_3613" data-name="路径 3613" class="cls-3" d="M1076.068,1194.638s24.208-15.516,11.152-29.894c-.265,1.764-3.352,15.7-15.79,13.673,0,0,9.527-8.734,3.881-14.379-2.029,3.44-5.205,10.233-14.555,7.586s-23.2-7.763-33.257-4.322-12.526.735-22.524,25.67c-2.822,10.233-7.645,29.757-20.348,31.286-2.822.588-14,2.706-8-4.351-3.411,0-18.7,19.054,4.47,28.346,8.939,2,16.506,4.274,16.506,4.274s21.485,11.957,33.129-18.742S1074.123,1193.717,1076.068,1194.638Z"/>
    <path id="路径_3614" data-name="路径 3614" class="cls-4" d="M1077.635,1248.063s-2.9,35.874-18.9,39.873c-9.41.94-8.351-.3-8.469-.53a9.329,9.329,0,0,1,0-1.823s22.1-1.6,20.93-37.113Z"/>
    <path id="路径_3615" data-name="路径 3615" class="cls-5" d="M1056.845,1246.944s-4,44.122-8,54.707c17.878,8.939,63.514,26.112,68.454,30.816s4.234,5.646,4.234,5.646-2.587,5.41-4.705,7.057-8.468-4.94-18.348-7.057-61.855-10.658-68.677-10.658-43.051,15.526-88.922,10.538c-6.116,2.469-28.473,28.584-46.116,35.17s-22.818,8.233-22.818,8.233l-3.293-8s20.936-17.642,30.345-27.052c8.469-11.762,9.41-18.231,10.821-20.7s-8.821-7.233-9.527-28.052,8.469-40.754,33.521-40.578,52.4.177,63.161-4.234,25.935-7.763,28.229-29.287,1.235-22.054,1.235-22.054-13.762-6.351-8.292-26.817c2.293-9,3.705-12,3.705-12s10.938,10.233,13.408,13.938,3.352,10.939,3.176,13.762,16.76-5.117,22.759-2.647,28.381,13.246,32.656,16.411c3.933,2.911,11.484,7.1,11.484,7.1a23.489,23.489,0,0,1,9.634-.854c5.793.853,12.14,12.6,6.811,25.54-9.747,23.668-28.819,25.948-36.405,11.305C1083.172,1247.445,1064.617,1250.2,1056.845,1246.944Z"/>
    <path id="路径_3616" data-name="路径 3616" class="cls-6" d="M872.243,1382.279l-3.587-10.586s-8.586-.529-10.88,0-.353,12.35,1.764,13.232S871.8,1383.406,872.243,1382.279Z"/>
    <path id="路径_3617" data-name="路径 3617" class="cls-6" d="M857.9,1347.8s-1.413-9.981-3.589-9.805-8.174-.176-9.762,1.412,2.294,14.435,3.705,14.01S858.1,1349.059,857.9,1347.8Z"/>
    <path id="路径_3618" data-name="路径 3618" class="cls-6" d="M1121.239,1337.252s-5.763,7.024-5.876,8.237,3.68,5.6,5.477,6.5,11.917-6.888,11.349-10.082S1121.239,1337.252,1121.239,1337.252Z"/>
    <path id="路径_3619" data-name="路径 3619" class="cls-6" d="M1126.266,1308.426l-7.8,6.558s3.861,6.192,5.2,7.132,11.945-4.966,12.214-6.845S1127.656,1309.231,1126.266,1308.426Z"/>
    <path id="路径_3620" data-name="路径 3620" class="cls-7" d="M1104.376,1255.113c-2.569,1.031-11.06,4.477-19-7.932-6,0-7.742.882-7.742.882s-14.683,1.291-20.79-1.119c-6.989-1.057-18.339-5.409-18.456-5.762s-1.294-.941-.589-1.7c1,0,22.161,6.057,28.518,6.234s17.95-.637,18.471-.706c.72-.1,3.323-1.176,4.646.941,1.288,2.06,5.032,10.025,14.927,9.085C1104.414,1255.026,1104.425,1255.093,1104.376,1255.113Z"/>
    <path id="路径_3621" data-name="路径 3621" class="cls-8" d="M1105.337,1211.19s16.176-5.84,17.824,9.474-3.11,21.914-10.743,29.641c-4.047,4.515-7.052,4.789-8.033,5.1,0,0-13.068,2.415-14.127-13.11a47.669,47.669,0,0,1,15.079-31.11"/>
    <ellipse id="椭圆_574" data-name="椭圆 574" class="cls-9" cx="5.426" cy="4.947" rx="5.426" ry="4.947" transform="translate(1063.445 1200.538)"/>
    <ellipse id="椭圆_575" data-name="椭圆 575" class="cls-10" cx="2.328" cy="2.553" rx="2.328" ry="2.553" transform="matrix(0.622, -0.783, 0.783, 0.622, 1062.87, 1207.237)"/>
    <ellipse id="椭圆_576" data-name="椭圆 576" class="cls-9" cx="4.208" cy="3.516" rx="4.208" ry="3.516" transform="translate(1114.493 1234.633) rotate(-69.178)"/>
    <path id="路径_3622" data-name="路径 3622" class="cls-11" d="M1103.8,1212.67s-22.832-13.433-27.627-17.006c-.477-.355-.8-.891-.458-1.38.041-.059-1.28.927-1.252.917.533-.207-.53-3.154,9.664,3.333,13.456,6.674,20.309,9.482,21.212,12.656A3.188,3.188,0,0,1,1103.8,1212.67Z"/>
    <path id="路径_3623" data-name="路径 3623" class="cls-4" d="M1105.337,1211.19s-9.2-5.47-19.96,35.991c-2.646,2.47-7.722,1.764-7.742.882s9.474-41.016,22.568-41.062C1105.711,1208.72,1105.36,1209.6,1105.337,1211.19Z"/>
    <path id="路径_3624" data-name="路径 3624" class="cls-4" d="M1083.719,1227.94s-53.056.57-57.72-12.471a10.1,10.1,0,0,0-1.431,7.776c0,.589,19.169,14.514,57.514,9.257A6.193,6.193,0,0,0,1083.719,1227.94Z"/>
    <path id="路径_3625" data-name="路径 3625" class="cls-4" d="M996.977,1252.781"/>
    <path id="路径_3626" data-name="路径 3626" class="cls-4" d="M996.977,1252.781s-31.031,3.611-46.92,3.559c-5.644,0-14.467,48.515-4.94,53.434s54.693,7.189,62.456-9.838S996.977,1252.781,996.977,1252.781Z"/>
    <path id="路径_3627" data-name="路径 3627" class="cls-12" d="M989.453,1265.942s-22.015,2.9-33.161,2.867c-3.959,0-9.9,29.65-3.218,32.722s38.365,4.489,43.811-6.143S989.453,1265.942,989.453,1265.942Z"/>
    <path id="路径_3628" data-name="路径 3628" class="cls-7" d="M1116.591,1343.306s-10.454-6.735-17.511-7.441c-9.645-1.794-55.634-13.114-67.4-12.409s-11.762,3.058-24.464,5.881-47.283,8.527-63.985,4.028c-9.88,2.088-25.17,24.2-43.989,31.963-19.289,9.175-24.222,11.8-28.577,12.959a6.647,6.647,0,0,0,1.28,3.109s29.277-9.481,32.433-13.274c4.01-1.941,18.257-14.616,24.9-20.6,6.462-5.827,11.6-9.529,11.6-9.529s29.25,5.953,75.051-7.232c12.777-3.214,13.871-3.306,13.871-3.306s57.146,8.432,62.912,9.545,8.541,1.511,17.185,5.687C1114.488,1345.98,1115.342,1347.16,1116.591,1343.306Z"/>
    <path id="路径_3629" data-name="路径 3629" class="cls-13" d="M1125.893,1308.181s-2.254,2.454-2.944,3.034-.963-5.107-29.633-12.958-41.005-9.867-41.474-9.973,0-3.434,0-3.434S1093.78,1290.79,1125.893,1308.181Z"/>
    <path id="路径_3630" data-name="路径 3630" class="cls-14" d="M906.7,1318.965s-2.547-4.232-2.733-4.68-20.721,23.948-45.71,30.653c-1.878,3.249,0,3.054,0,3.054A107.959,107.959,0,0,0,906.7,1318.965Z"/>
    <path id="路径_3631" data-name="路径 3631" class="cls-7" d="M1023.787,1172.67s9.426,6.351,9.9,12.938-3.879,8.673-6.822,8.586C1023.537,1194.095,1018.831,1179.491,1023.787,1172.67Z"/>
    <path id="路径_3632" data-name="路径 3632" class="cls-15" d="M1075.311,1164.038s1.585,6.4-4.319,8.984-12.844.471-16.607-1.058-23.882-4.593-25.82-2.826l-1.65-1.64s7.686-3.3,20.763.415c4.522,1.2,14.062,3.962,14.248,4S1070.362,1174.578,1075.311,1164.038Z"/>
    <path id="路径_3633" data-name="路径 3633" class="cls-15" d="M1087.22,1164.744a8.978,8.978,0,0,1,0,7.161c-1.725,3.529-6,9.292-11.715,8.469s-4.075-1.957-4.075-1.957S1082.947,1181.753,1087.22,1164.744Z"/>
    <path id="路径_3634" data-name="路径 3634" class="cls-16" d="M976.629,1219.907s-8.068.842-8.057,14.94,26.652,17.2,29.033,17.68l5.984-2.325s-28.6-2.845-30.243-10.725C971.228,1236.217,969.21,1229.623,976.629,1219.907Z"/>
    <path id="路径_3635" data-name="路径 3635" class="cls-16" d="M900.295,1297.593l.146-6.96s-4.665,21.3-9.369,25.119-16,3.411-18.408,2.353-.649-5.965-.69-6.135.026-.815-.921-.075-5.279,6.83.867,8.153c5.6,1.673,13.53,2.8,19.193-.676S900.609,1298.724,900.295,1297.593Z"/>
    <ellipse id="椭圆_577" data-name="椭圆 577" class="cls-17" cx="2.033" cy="2.862" rx="2.033" ry="2.862" transform="translate(1126.451 1313.313) rotate(-64.665)"/>
    <ellipse id="椭圆_578" data-name="椭圆 578" class="cls-17" cx="2.033" cy="2.862" rx="2.033" ry="2.862" transform="translate(1123.721 1341.259) rotate(-64.665)"/>
    <ellipse id="椭圆_579" data-name="椭圆 579" class="cls-18" cx="2.862" cy="2.033" rx="2.862" ry="2.033" transform="matrix(0.964, -0.265, 0.265, 0.964, 861.939, 1381.032)"/>
    <ellipse id="椭圆_580" data-name="椭圆 580" class="cls-18" cx="2.862" cy="2.033" rx="2.862" ry="2.033" transform="matrix(0.909, -0.416, 0.416, 0.909, 848.045, 1348.203)"/>
  </g>
</svg>
