<svg xmlns="http://www.w3.org/2000/svg" width="256.956" height="200.601" viewBox="0 0 256.956 200.601">
  <defs>
    <style>
      .cls-1, .cls-6 {
        fill: #3f2f1c;
      }

      .cls-1 {
        stroke-linecap: round;
        stroke-linejoin: round;
      }

      .cls-2 {
        fill: #77251f;
      }

      .cls-3 {
        fill: #561613;
      }

      .cls-4 {
        fill: #513c25;
      }

      .cls-5 {
        fill: #8e3228;
      }

      .cls-7 {
        fill: #9e3b39;
      }

      .cls-8 {
        fill: #fefefe;
      }

      .cls-9 {
        fill: #9e3d36;
      }

      .cls-10 {
        fill: #89512a;
      }

      .cls-11 {
        fill: #7f2a28;
      }

      .cls-12 {
        fill: #681b19;
      }

      .cls-13 {
        fill: #751b14;
      }

      .cls-14 {
        fill: #661b1b;
      }

      .cls-15 {
        fill: #490f0f;
      }

      .cls-16 {
        fill: #5b452e;
      }

      .cls-17 {
        fill: #302315;
      }

      .cls-18, .cls-19 {
        stroke: none;
      }

      .cls-19 {
        fill: #fff;
      }
    </style>
  </defs>
  <g id="组_1803" data-name="组 1803" transform="translate(-1249.312 -1173.624)">
    <g id="路径_3450" data-name="路径 3450" class="cls-1">
      <path class="cls-18" d="M 1272.965209960938 1369.224975585938 C 1271.741455078125 1369.224975585938 1270.759887695313 1369.053466796875 1269.876098632813 1368.684936523438 C 1268.34814453125 1368.049072265625 1267.185668945313 1366.821533203125 1266.324584960938 1364.93359375 C 1265.907592773438 1364.01904296875 1265.543579101563 1362.916748046875 1265.242919921875 1361.657470703125 C 1264.663940429688 1359.233276367188 1264.414916992188 1356.635864257813 1264.57666015625 1354.709594726563 C 1264.665649414063 1353.650390625 1264.873413085938 1352.746337890625 1265.211791992188 1351.945922851563 C 1265.975341796875 1350.140014648438 1267.4443359375 1348.8662109375 1269.242309570313 1348.451171875 C 1270.211669921875 1348.227294921875 1271.480834960938 1348.1318359375 1273.486083984375 1348.1318359375 C 1275.620727539063 1348.1318359375 1278.0048828125 1348.248657226563 1279.017700195313 1348.304077148438 C 1284.193603515625 1343.88232421875 1294.45263671875 1335.013549804688 1300.027221679688 1329.486328125 C 1302.365356445313 1326.203857421875 1303.907836914063 1323.496459960938 1304.98046875 1321.298461914063 C 1298.991455078125 1325.864379882813 1290.764770507813 1331.582397460938 1283.9267578125 1334.319091796875 C 1279.285522460938 1336.176147460938 1275.766235351563 1337.493041992188 1273.423217773438 1338.249755859375 C 1273.1123046875 1338.531982421875 1272.756713867188 1338.8134765625 1272.348388671875 1339.100952148438 C 1271.5908203125 1339.634155273438 1270.589721679688 1340.23046875 1269.372802734375 1340.873168945313 C 1267.670532226563 1341.772216796875 1265.233642578125 1342.916625976563 1264.0703125 1343.266845703125 C 1263.583984375 1343.413208007813 1263.079833984375 1343.487426757813 1262.571655273438 1343.487426757813 C 1261.458862304688 1343.487426757813 1259.3544921875 1343.116333007813 1257.763671875 1340.631225585938 C 1257.381103515625 1340.033569335938 1257.014038085938 1339.3056640625 1256.641479492188 1338.40576171875 C 1255.88232421875 1336.572021484375 1255.1484375 1334.109375 1254.726318359375 1331.978759765625 C 1254.149169921875 1329.065795898438 1253.859252929688 1325.787963867188 1256.085815429688 1323.563110351563 C 1257.762084960938 1321.8857421875 1260.1044921875 1321.4296875 1261.720458984375 1321.23291015625 C 1263.154907226563 1321.05810546875 1264.640991210938 1321.030883789063 1265.835083007813 1321.009033203125 C 1266.234130859375 1321.001831054688 1266.643676757813 1320.994384765625 1266.924926757813 1320.982177734375 C 1269.265258789063 1318.993286132813 1272.73974609375 1316.028442382813 1275.804443359375 1313.364501953125 C 1275.229614257813 1312.669555664063 1274.791625976563 1311.869873046875 1274.5166015625 1310.996337890625 C 1274.089233398438 1309.638427734375 1274.06103515625 1308.176635742188 1274.432861328125 1306.651245117188 C 1274.775634765625 1305.24560546875 1275.475830078125 1303.78955078125 1276.404296875 1302.551635742188 C 1276.868408203125 1301.932739257813 1277.365966796875 1301.399658203125 1277.883178710938 1300.966796875 C 1279.31494140625 1299.768798828125 1280.719970703125 1299.517333984375 1281.646484375 1299.517333984375 C 1281.647338867188 1299.517333984375 1281.648193359375 1299.517333984375 1281.649047851563 1299.517333984375 C 1281.30810546875 1297.288940429688 1280.769775390625 1294.423583984375 1280.042358398438 1290.968017578125 C 1279.926513671875 1290.41796875 1279.811279296875 1289.872924804688 1279.697021484375 1289.332885742188 C 1278.177978515625 1282.149047851563 1276.866088867188 1275.94482421875 1276.820190429688 1270.399169921875 C 1276.79296875 1267.11767578125 1277.217895507813 1264.320922851563 1278.119384765625 1261.848999023438 C 1279.178955078125 1258.943603515625 1280.91845703125 1256.482543945313 1283.28955078125 1254.533935546875 L 1283.723388671875 1254.177490234375 L 1284.225463867188 1253.926025390625 C 1289.896850585938 1251.08642578125 1295.311401367188 1249.646606445313 1300.318481445313 1249.646606445313 C 1306.415283203125 1249.646606445313 1311.944946289063 1251.788330078125 1316.309814453125 1255.840454101563 C 1317.0341796875 1256.512817382813 1317.6708984375 1257.187622070313 1318.224975585938 1257.834106445313 C 1322.254638671875 1256.070190429688 1326.822509765625 1255.179077148438 1331.86376953125 1255.179077148438 C 1331.962524414063 1255.179077148438 1332.062255859375 1255.179443359375 1332.16162109375 1255.18017578125 C 1335.233764648438 1255.201904296875 1338.852416992188 1255.22412109375 1342.403686523438 1255.22412109375 C 1348.011108398438 1255.22412109375 1355.918823242188 1255.176147460938 1363.096923828125 1254.803466796875 C 1360.675170898438 1253.168701171875 1358.796997070313 1251.257690429688 1357.484008789063 1249.087646484375 C 1355.517456054688 1245.837036132813 1354.87353515625 1242.069702148438 1355.621948242188 1238.192626953125 C 1356.196533203125 1235.216064453125 1357.612670898438 1232.174560546875 1359.609497070313 1229.62841796875 C 1360.475341796875 1228.524536132813 1361.423828125 1227.5556640625 1362.352416992188 1226.826538085938 C 1363.882446289063 1225.625 1365.370361328125 1225.041015625 1366.901000976563 1225.041015625 L 1377.714111328125 1225.041015625 L 1375.819702148438 1227.26953125 C 1377.253540039063 1226.143310546875 1378.623291015625 1224.329833984375 1379.914428710938 1221.842651367188 C 1382.200439453125 1217.439086914063 1383.710205078125 1211.92333984375 1384.812622070313 1207.895874023438 C 1384.912719726563 1207.530395507813 1385.009765625 1207.175903320313 1385.10400390625 1206.834106445313 L 1385.178588867188 1206.563720703125 L 1385.282958984375 1206.303466796875 C 1388.099609375 1199.277465820313 1390.252685546875 1194.761962890625 1392.263916015625 1191.662109375 C 1393.858642578125 1189.204223632813 1395.5029296875 1187.428100585938 1397.418334960938 1186.129028320313 C 1398.37646484375 1183.010864257813 1398.977783203125 1181.665283203125 1399.105346679688 1181.3935546875 L 1402.027099609375 1175.164794921875 L 1407.04931640625 1179.867065429688 C 1407.101806640625 1179.916137695313 1407.949584960938 1180.710571289063 1409.171875 1181.8876953125 C 1410.822265625 1181.5498046875 1412.592407226563 1181.37939453125 1414.46240234375 1181.37939453125 C 1421.029663085938 1181.37939453125 1427.934692382813 1183.442749023438 1433.48291015625 1185.1005859375 C 1434.584350585938 1185.4296875 1435.624633789063 1185.740600585938 1436.590209960938 1186.013793945313 C 1437.286865234375 1186.211059570313 1437.911987304688 1186.310913085938 1438.448852539063 1186.310913085938 C 1440.047485351563 1186.310791015625 1440.8720703125 1185.3720703125 1442.393310546875 1182.72802734375 C 1442.507934570313 1182.528686523438 1442.626586914063 1182.322631835938 1442.744018554688 1182.123413085938 L 1446.022827148438 1176.562622070313 L 1450.587036132813 1181.1279296875 C 1451.140380859375 1181.681396484375 1451.617797851563 1182.276000976563 1452.016845703125 1182.905517578125 L 1453.342407226563 1174.070678710938 L 1460.424682617188 1181.875854492188 C 1463.839965820313 1185.636962890625 1465.33056640625 1190.055419921875 1464.7353515625 1194.6533203125 C 1464.14501953125 1199.212768554688 1461.561645507813 1203.79150390625 1457.056884765625 1208.262329101563 C 1456.98388671875 1208.334838867188 1456.91064453125 1208.406982421875 1456.837768554688 1208.478271484375 C 1460.376220703125 1210.302734375 1463.589599609375 1212.068359375 1465.084594726563 1213.17431640625 C 1466.890258789063 1214.511352539063 1470.026123046875 1216.3896484375 1472.161987304688 1217.622802734375 C 1473.441772460938 1217.36279296875 1475.150756835938 1217.118774414063 1477.056884765625 1217.118774414063 C 1478.04833984375 1217.118774414063 1479.024658203125 1217.185302734375 1479.958740234375 1217.316528320313 L 1479.974731445313 1217.31884765625 L 1479.990478515625 1217.321166992188 C 1481.794799804688 1217.586547851563 1483.583740234375 1218.428833007813 1485.163818359375 1219.756958007813 C 1486.504028320313 1220.883422851563 1487.67919921875 1222.326293945313 1488.656860351563 1224.045532226563 C 1490.219482421875 1226.793334960938 1491.159423828125 1230.0556640625 1491.374877929688 1233.479858398438 C 1491.617065429688 1237.326782226563 1490.958862304688 1241.174072265625 1489.418334960938 1244.914916992188 C 1488.152099609375 1247.989379882813 1486.655639648438 1250.786865234375 1484.970458984375 1253.229858398438 C 1483.319702148438 1255.622802734375 1481.477294921875 1257.692626953125 1479.494384765625 1259.3818359375 C 1475.456298828125 1262.821655273438 1470.913940429688 1264.639892578125 1466.358276367188 1264.639892578125 C 1463.137939453125 1264.639892578125 1460.007690429688 1263.701049804688 1457.3056640625 1261.9248046875 C 1455.553344726563 1260.772827148438 1454.010620117188 1259.307739257813 1452.694213867188 1257.548461914063 C 1449.85498046875 1257.8759765625 1445.56591796875 1258.281860351563 1441.39599609375 1258.281860351563 C 1439.600341796875 1258.281860351563 1437.967895507813 1258.208740234375 1436.488403320313 1258.06103515625 C 1435.97119140625 1263.164794921875 1435.121704101563 1271.018310546875 1434.092163085938 1278.549926757813 C 1437.765747070313 1279.456176757813 1444.962280273438 1281.26904296875 1452.889404296875 1283.467529296875 C 1468.37109375 1287.760986328125 1479.180786132813 1291.428100585938 1485.018310546875 1294.367065429688 C 1487.707885742188 1295.720825195313 1489.695678710938 1296.808837890625 1491.08642578125 1297.688354492188 C 1491.233032226563 1297.768188476563 1491.44873046875 1297.883056640625 1491.674072265625 1298.003173828125 C 1492.820556640625 1298.61376953125 1494.739379882813 1299.6357421875 1496.402221679688 1300.716796875 C 1497.489990234375 1301.423950195313 1498.338134765625 1302.071044921875 1498.995239257813 1302.695068359375 C 1501.170532226563 1304.760864257813 1501.393676757813 1306.830078125 1501.197875976563 1308.202270507813 C 1500.88330078125 1310.404541015625 1499.344482421875 1311.869384765625 1498.038940429688 1312.899536132813 C 1496.8837890625 1313.811157226563 1495.547607421875 1314.637817382813 1494.630249023438 1315.170776367188 C 1493.364868164063 1315.905883789063 1492.090087890625 1316.55517578125 1490.943969726563 1317.048217773438 C 1489.1923828125 1317.801635742188 1487.877197265625 1318.1376953125 1486.6796875 1318.1376953125 C 1486.679565429688 1318.1376953125 1486.679565429688 1318.1376953125 1486.679565429688 1318.1376953125 C 1485.783813476563 1318.1376953125 1485.037353515625 1317.94580078125 1484.44482421875 1317.6953125 C 1484.499633789063 1317.744873046875 1484.552368164063 1317.793823242188 1484.603271484375 1317.84228515625 C 1485.76123046875 1318.945556640625 1486.690185546875 1319.929077148438 1487.416137695313 1320.824951171875 C 1488.340698242188 1321.019287109375 1489.439086914063 1321.281982421875 1490.531372070313 1321.61767578125 C 1492.082641601563 1322.09423828125 1493.342529296875 1322.626098632813 1494.383178710938 1323.243530273438 C 1497.058715820313 1324.830932617188 1497.919555664063 1326.846069335938 1498.170654296875 1328.256958007813 C 1498.423461914063 1329.679809570313 1498.181396484375 1331.153198242188 1497.451293945313 1332.637329101563 C 1497.038940429688 1333.475463867188 1496.476318359375 1334.315185546875 1495.731201171875 1335.204345703125 C 1494.45556640625 1336.726806640625 1492.635009765625 1338.372436523438 1490.736572265625 1339.71923828125 C 1487.374755859375 1342.104370117188 1485.466064453125 1342.380249023438 1484.322875976563 1342.380249023438 C 1483.422119140625 1342.380249023438 1482.57080078125 1342.182861328125 1481.792724609375 1341.79345703125 C 1480.030639648438 1340.91259765625 1478.293701171875 1339.049072265625 1477.415405273438 1338.0166015625 C 1476.730712890625 1337.2119140625 1476.178466796875 1336.46826171875 1475.749755859375 1335.764892578125 C 1475.071044921875 1335.42822265625 1474.361450195313 1335.036254882813 1473.584350585938 1334.607055664063 C 1471.223754882813 1333.303100585938 1468.285766601563 1331.680297851563 1464.822143554688 1330.937866210938 C 1460.96435546875 1330.110961914063 1448.419799804688 1327.948120117188 1436.26318359375 1326.013793945313 C 1419.541870117188 1323.353271484375 1411.736450195313 1322.401489257813 1410.111694335938 1322.392944335938 C 1409.215087890625 1322.441772460938 1406.03369140625 1323.305908203125 1403.225219726563 1324.06884765625 C 1398.104370117188 1325.459716796875 1391.090942382813 1327.36474609375 1382.552856445313 1328.938842773438 C 1372.421875 1330.806518554688 1362.427001953125 1331.753540039063 1352.846069335938 1331.753540039063 C 1348.195068359375 1331.753540039063 1343.544677734375 1331.531616210938 1338.998168945313 1331.09326171875 C 1338.556762695313 1331.419311523438 1337.903442382813 1331.93505859375 1336.9599609375 1332.745361328125 C 1335.401489257813 1334.083862304688 1333.55224609375 1335.786865234375 1331.410888671875 1337.758666992188 C 1327.5439453125 1341.319458007813 1322.731323242188 1345.751098632813 1317.798950195313 1349.650024414063 C 1311.809936523438 1354.384033203125 1306.6943359375 1357.50830078125 1302.159790039063 1359.201171875 C 1293.638061523438 1362.382934570313 1288.667358398438 1364.157104492188 1286.006469726563 1365.082763671875 C 1285.5546875 1365.656616210938 1284.975219726563 1366.1513671875 1284.2724609375 1366.5615234375 C 1283.845703125 1366.810668945313 1283.353393554688 1367.042358398438 1282.767700195313 1367.269897460938 C 1281.723022460938 1367.675659179688 1280.533203125 1368.006225585938 1279.718994140625 1368.212158203125 C 1278.779296875 1368.44970703125 1275.51513671875 1369.224975585938 1272.965209960938 1369.224975585938 Z M 1461.751953125 1306.690307617188 C 1465.8017578125 1308.4013671875 1469.579223632813 1310.021118164063 1472.884643554688 1311.502319335938 C 1477.789306640625 1313.7001953125 1480.613037109375 1315.131958007813 1482.360473632813 1316.1962890625 C 1481.709716796875 1315.517822265625 1480.900756835938 1314.488037109375 1479.716186523438 1312.750854492188 C 1479.291381835938 1312.1279296875 1478.8955078125 1311.526489257813 1478.578002929688 1311.036376953125 C 1476.483276367188 1309.908813476563 1475.808837890625 1309.651000976563 1475.702026367188 1309.613037109375 C 1475.430053710938 1309.529052734375 1475.1640625 1309.435302734375 1474.857421875 1309.3271484375 C 1473.336791992188 1308.790893554688 1469.831909179688 1307.554931640625 1461.751953125 1306.690307617188 Z"/>
      <path class="cls-19" d="M 1272.965209960938 1364.224975585938 C 1275.81298828125 1364.224975585938 1281.808471679688 1362.698852539063 1282.116943359375 1361.921020507813 L 1281.85595703125 1361.150024414063 L 1281.878051757813 1361.203979492188 C 1281.878051757813 1361.203979492188 1286.08203125 1359.866943359375 1300.411010742188 1354.516967773438 C 1314.740966796875 1349.1669921875 1332.900024414063 1327.95703125 1337.866943359375 1325.951049804688 C 1343.022094726563 1326.51171875 1348.033325195313 1326.753540039063 1352.846069335938 1326.753540039063 C 1382.815673828125 1326.753540039063 1405.315673828125 1317.392944335938 1410.089965820313 1317.392944335938 C 1415.630981445313 1317.392944335938 1457.845947265625 1324.328979492188 1465.869995117188 1326.048950195313 C 1472.551025390625 1327.48095703125 1477.237060546875 1331.4150390625 1479.614013671875 1331.926025390625 C 1479.60302734375 1331.963012695313 1479.583984375 1332.010009765625 1479.5810546875 1332.038940429688 C 1479.489013671875 1333.025024414063 1482.569946289063 1336.592041015625 1484.030029296875 1337.322021484375 C 1484.108764648438 1337.361450195313 1484.207275390625 1337.380249023438 1484.322875976563 1337.380249023438 C 1486.350830078125 1337.380249023438 1493.68408203125 1331.587158203125 1493.248046875 1329.133056640625 C 1492.817016601563 1326.711059570313 1485.446044921875 1325.515014648438 1484.465942382813 1325.365966796875 C 1484.172973632813 1324.73095703125 1483.35498046875 1323.558959960938 1481.155029296875 1321.463012695313 C 1477.142944335938 1317.641967773438 1440.077026367188 1303.694946289063 1425.557006835938 1296.433959960938 C 1425.636962890625 1296.219970703125 1425.718017578125 1295.975952148438 1425.798950195313 1295.72900390625 C 1428.626953125 1298.5400390625 1434.088012695313 1300.7080078125 1443.180053710938 1300.77294921875 C 1468.420043945313 1300.953002929688 1475.266967773438 1304.2509765625 1477.18505859375 1304.838012695313 C 1478.135009765625 1305.128051757813 1480.22900390625 1306.22802734375 1482.10205078125 1307.264038085938 C 1482.10400390625 1307.266967773438 1485.238037109375 1312.29296875 1486.328002929688 1313.056030273438 C 1486.407348632813 1313.111572265625 1486.526733398438 1313.1376953125 1486.6796875 1313.1376953125 C 1488.627685546875 1313.1376953125 1496.0458984375 1308.910888671875 1496.248046875 1307.495971679688 C 1496.461059570313 1306.003051757813 1489.876953125 1302.744018554688 1488.532958984375 1301.989990234375 C 1487.401000976563 1301.264038085938 1485.5830078125 1300.2490234375 1482.77001953125 1298.8330078125 C 1469.39599609375 1292.099975585938 1430.366943359375 1282.787963867188 1430.366943359375 1282.787963867188 C 1429.650024414063 1282.89404296875 1428.97705078125 1283.087036132813 1428.344970703125 1283.340942382813 C 1430.43701171875 1269.817993164063 1432.052978515625 1252.0009765625 1432.052978515625 1252.0009765625 C 1434.357177734375 1252.966918945313 1437.829467773438 1253.281860351563 1441.39599609375 1253.281860351563 C 1447.599243164063 1253.281860351563 1454.089233398438 1252.329467773438 1455.22705078125 1252.192993164063 C 1457.755493164063 1257.073852539063 1461.855590820313 1259.639892578125 1466.358276367188 1259.639892578125 C 1472.8271484375 1259.639892578125 1480.127197265625 1254.344848632813 1484.795043945313 1243.010986328125 C 1489.123046875 1232.5009765625 1483.968017578125 1222.9599609375 1479.262939453125 1222.267944335938 C 1478.508911132813 1222.161987304688 1477.766235351563 1222.118774414063 1477.056884765625 1222.118774414063 C 1473.924682617188 1222.118774414063 1471.43798828125 1222.961059570313 1471.43798828125 1222.961059570313 C 1471.43798828125 1222.961059570313 1465.305053710938 1219.558959960938 1462.110961914063 1217.193969726563 C 1460.201049804688 1215.781005859375 1453.844970703125 1212.498046875 1447.698974609375 1209.495971679688 C 1448.404052734375 1209.037963867188 1467.129028320313 1196.697021484375 1456.723022460938 1185.237060546875 C 1456.522583007813 1186.5732421875 1454.3291015625 1196.50537109375 1445.84326171875 1196.505493164063 C 1445.228393554688 1196.505493164063 1444.58056640625 1196.453369140625 1443.89794921875 1196.342041015625 C 1443.89794921875 1196.342041015625 1451.635986328125 1189.2490234375 1447.051025390625 1184.662963867188 C 1445.66162109375 1187.019409179688 1443.60986328125 1191.310546875 1438.449096679688 1191.310913085938 C 1437.488525390625 1191.310913085938 1436.420776367188 1191.162353515625 1435.22900390625 1190.824951171875 C 1429.436401367188 1189.185913085938 1421.517700195313 1186.37939453125 1414.46240234375 1186.37939453125 C 1412.267211914063 1186.37939453125 1410.156127929688 1186.651000976563 1408.218017578125 1187.31396484375 C 1408.055053710938 1187.369995117188 1407.899047851563 1187.421020507813 1407.740966796875 1187.473022460938 C 1405.515991210938 1185.281005859375 1403.631958007813 1183.516967773438 1403.631958007813 1183.516967773438 C 1403.631958007813 1183.516967773438 1402.89501953125 1185.088012695313 1401.64501953125 1189.465942382813 C 1398.031982421875 1191.14404296875 1395.333984375 1194.6689453125 1389.923950195313 1208.163940429688 C 1387.630981445313 1216.474975585938 1383.713989257813 1232.3330078125 1373.39697265625 1233.574951171875 C 1372.43994140625 1233.7744140625 1370.301513671875 1234.190185546875 1368.488891601563 1234.190185546875 C 1365.958251953125 1234.190185546875 1364.062377929688 1233.380126953125 1366.901000976563 1230.041015625 C 1364.130004882813 1230.041015625 1351.711059570313 1245.516967773438 1370.531005859375 1253.06396484375 C 1377.791015625 1254.68798828125 1383.93701171875 1256.535034179688 1383.93701171875 1256.535034179688 L 1383.93798828125 1256.536010742188 C 1383.767944335938 1256.60400390625 1383.595947265625 1256.671997070313 1383.427001953125 1256.740966796875 C 1376.145751953125 1259.7255859375 1359.515869140625 1260.22412109375 1342.4033203125 1260.22412109375 C 1338.972900390625 1260.22412109375 1335.525146484375 1260.2041015625 1332.126953125 1260.180053710938 C 1332.039184570313 1260.179443359375 1331.950927734375 1260.17919921875 1331.863647460938 1260.17919921875 C 1325.621704101563 1260.17919921875 1320.60498046875 1261.725830078125 1316.670043945313 1264.363037109375 C 1316.670043945313 1264.363037109375 1312.088623046875 1254.646606445313 1300.318481445313 1254.646606445313 C 1296.490234375 1254.646606445313 1291.9033203125 1255.673583984375 1286.463989257813 1258.39697265625 C 1279.203979492188 1264.363037109375 1281.878051757813 1275.41796875 1284.93505859375 1289.93798828125 C 1287.991943359375 1304.458984375 1287.133056640625 1305.60498046875 1286.343994140625 1306.608032226563 C 1285.932006835938 1307.132446289063 1284.475341796875 1307.7939453125 1283.303833007813 1307.794067382813 C 1282.234497070313 1307.794189453125 1281.40283203125 1307.243286132813 1281.818969726563 1305.534057617188 C 1281.993774414063 1304.814819335938 1281.891479492188 1304.517333984375 1281.646484375 1304.517333984375 C 1280.671142578125 1304.517333984375 1277.432006835938 1309.226196289063 1280.39794921875 1310.764038085938 C 1281.447021484375 1311.307983398438 1282.97802734375 1311.786010742188 1284.717041015625 1312.121948242188 C 1281.239013671875 1315.39404296875 1271.098022460938 1324.003051757813 1268.282958984375 1326.386962890625 C 1268.064697265625 1326.11962890625 1267.834838867188 1325.951293945313 1267.591552734375 1325.951293945313 C 1267.577392578125 1325.951293945313 1267.563232421875 1325.951904296875 1267.548950195313 1325.953002929688 C 1265.781005859375 1326.097045898438 1260.909057617188 1325.81005859375 1259.619995117188 1327.099975585938 C 1258.350952148438 1328.368041992188 1261.381591796875 1338.487426757813 1262.571655273438 1338.487426757813 C 1262.59130859375 1338.487426757813 1262.6103515625 1338.484619140625 1262.629028320313 1338.47900390625 C 1263.775024414063 1338.134033203125 1270.628051757813 1334.93896484375 1270.463989257813 1333.9169921875 C 1271.692016601563 1333.593994140625 1274.718994140625 1332.618041992188 1282.068969726563 1329.677001953125 C 1293.532958984375 1325.088989257813 1309.907958984375 1310.906982421875 1309.907958984375 1310.906982421875 C 1311.701049804688 1313.68701171875 1313.1650390625 1315.003051757813 1312.639038085938 1315.922973632813 C 1311.493041992188 1317.928955078125 1310.72900390625 1323.182983398438 1303.849975585938 1332.735961914063 C 1296.860961914063 1339.724975585938 1282.051025390625 1352.298950195313 1279.567993164063 1354.400024414063 L 1279.203979492188 1353.322998046875 C 1279.203979492188 1353.322998046875 1276.104370117188 1353.1318359375 1273.486083984375 1353.1318359375 C 1272.176635742188 1353.1318359375 1270.988037109375 1353.1796875 1270.366943359375 1353.322998046875 C 1268.504028320313 1353.753051757813 1270.079956054688 1363.35400390625 1271.800048828125 1364.069946289063 C 1272.057983398438 1364.177490234375 1272.462768554688 1364.224975585938 1272.965209960938 1364.224975585938 M 1304.901000976563 1293.139038085938 C 1304.9169921875 1293.600952148438 1304.941040039063 1294.048950195313 1304.968017578125 1294.491943359375 L 1304.965942382813 1294.493041992188 C 1304.907958984375 1294.538940429688 1304.798950195313 1294.626953125 1304.663940429688 1294.737060546875 C 1304.822998046875 1293.93505859375 1304.906005859375 1293.362060546875 1304.901000976563 1293.139038085938 M 1272.965209960938 1374.224975585938 C 1271.084716796875 1374.224975585938 1269.44482421875 1373.92236328125 1267.951538085938 1373.299682617188 C 1258.59619140625 1369.405883789063 1259.581665039063 1354.44140625 1259.59423828125 1354.291381835938 C 1259.793212890625 1351.921752929688 1260.4677734375 1349.981201171875 1261.425170898438 1348.427856445313 C 1258.313354492188 1348.1005859375 1254.502197265625 1346.309936523438 1252.021850585938 1340.318603515625 C 1249.381591796875 1333.941162109375 1247.330200195313 1325.243896484375 1252.551513671875 1320.0263671875 C 1256.170043945313 1316.4052734375 1261.172729492188 1316.1064453125 1265.03857421875 1316.023559570313 C 1266.411376953125 1314.85498046875 1268.016357421875 1313.484375 1269.640258789063 1312.087524414063 C 1269.065795898438 1310.0166015625 1269.018310546875 1307.7509765625 1269.5751953125 1305.466918945313 C 1270.31201171875 1302.445068359375 1272.475463867188 1298.411376953125 1275.991943359375 1296.179565429688 C 1275.762084960938 1294.974731445313 1275.484497070313 1293.589111328125 1275.149536132813 1291.997924804688 L 1274.80517578125 1290.3671875 C 1271.531860351563 1274.886840820313 1268.440063476563 1260.26513671875 1280.114990234375 1250.671020507813 C 1280.691650390625 1250.197143554688 1281.319580078125 1249.789306640625 1281.986938476563 1249.455200195313 C 1288.359619140625 1246.264404296875 1294.527221679688 1244.646606445313 1300.318481445313 1244.646606445313 C 1308.770263671875 1244.646606445313 1315.1591796875 1248.041015625 1319.529541015625 1252.002319335938 C 1323.318481445313 1250.789916992188 1327.440673828125 1250.17919921875 1331.863647460938 1250.17919921875 L 1342.403442382813 1250.22412109375 C 1344.645263671875 1250.22412109375 1348.24462890625 1250.22412109375 1352.374755859375 1250.152709960938 C 1349.732421875 1244.709350585938 1350.279418945313 1239.48876953125 1350.712646484375 1237.244995117188 C 1352.104858398438 1230.032348632813 1358.505126953125 1220.041015625 1366.901000976563 1220.041015625 C 1369.37939453125 1220.041015625 1371.714233398438 1220.956787109375 1373.506591796875 1222.533081054688 C 1375.145874023438 1220.766479492188 1377.254272460938 1216.5703125 1379.989990234375 1206.575927734375 L 1380.2841796875 1205.504272460938 C 1380.383544921875 1205.14404296875 1380.503051757813 1204.789794921875 1380.64208984375 1204.44287109375 C 1384.921752929688 1193.767333984375 1388.250610351563 1187.12646484375 1393.136352539063 1183.095336914063 C 1394.045654296875 1180.332763671875 1394.578491210938 1179.270141601563 1394.578491210938 1179.270141601563 C 1395.992553710938 1176.45068359375 1398.711547851563 1174.345947265625 1401.816650390625 1173.791259765625 C 1402.442993164063 1173.679321289063 1403.074951171875 1173.623657226563 1403.70361328125 1173.623657226563 C 1406.191528320313 1173.623657226563 1408.628540039063 1174.49658203125 1410.466796875 1176.21728515625 C 1410.466796875 1176.21728515625 1410.603515625 1176.345336914063 1410.847412109375 1176.57568359375 C 1412.029541015625 1176.443115234375 1413.230102539063 1176.37939453125 1414.46240234375 1176.37939453125 C 1421.7607421875 1176.37939453125 1429.054077148438 1178.558715820313 1434.914428710938 1180.309936523438 L 1437.558715820313 1181.087158203125 C 1437.739013671875 1180.791381835938 1437.920654296875 1180.475708007813 1438.059326171875 1180.234619140625 C 1439.611083984375 1177.537353515625 1442.491943359375 1175.43701171875 1445.576782226563 1175.028686523438 C 1446.10107421875 1174.959350585938 1446.630737304688 1174.923950195313 1447.159057617188 1174.923950195313 C 1449.035400390625 1174.923950195313 1450.899047851563 1175.369140625 1452.478637695313 1176.314208984375 C 1452.9638671875 1176.084106445313 1453.470947265625 1175.892944335938 1453.99560546875 1175.74560546875 C 1454.935180664063 1175.481689453125 1455.894653320313 1175.351440429688 1456.843994140625 1175.351440429688 C 1459.57958984375 1175.351440429688 1462.235717773438 1176.432495117188 1464.126342773438 1178.5146484375 C 1468.55810546875 1183.395263671875 1470.483276367188 1189.197875976563 1469.693969726563 1195.29541015625 C 1469.119262695313 1199.734252929688 1467.128784179688 1203.699829101563 1464.701538085938 1207.032348632813 C 1466.856079101563 1208.265258789063 1467.656127929688 1208.857299804688 1468.058349609375 1209.15478515625 C 1469.302368164063 1210.075927734375 1471.336547851563 1211.333129882813 1473.121948242188 1212.3916015625 C 1474.300170898438 1212.230712890625 1475.632202148438 1212.118774414063 1477.056884765625 1212.118774414063 C 1478.213623046875 1212.118774414063 1479.424682617188 1212.1923828125 1480.654418945313 1212.365234375 C 1485.609985351563 1213.093872070313 1490.087768554688 1216.447021484375 1493.003295898438 1221.573852539063 C 1497.155883789063 1228.876220703125 1497.544189453125 1238.313598632813 1494.041748046875 1246.818725585938 C 1488.156372070313 1261.108764648438 1477.807495117188 1269.639892578125 1466.358276367188 1269.639892578125 C 1460.355712890625 1269.639892578125 1454.807373046875 1267.165161132813 1450.61279296875 1262.793701171875 C 1447.87158203125 1263.056518554688 1444.61328125 1263.281860351563 1441.39599609375 1263.281860351563 C 1441.253173828125 1263.281860351563 1441.110961914063 1263.281494140625 1440.9697265625 1263.280517578125 C 1440.599975585938 1266.713500976563 1440.145874023438 1270.701782226563 1439.631103515625 1274.772094726563 C 1451.909301757813 1277.873168945313 1476.372680664063 1284.416625976563 1487.266723632813 1289.901000976563 C 1490.523803710938 1291.540649414063 1492.62060546875 1292.731689453125 1493.931396484375 1293.572387695313 C 1499.63671875 1296.5791015625 1507.32275390625 1300.6728515625 1506.147827148438 1308.908447265625 C 1505.526733398438 1313.255859375 1501.736083984375 1316.831176757813 1497.55224609375 1319.310302734375 C 1500.215576171875 1321.060668945313 1502.42333984375 1323.616088867188 1503.093383789063 1327.380859375 C 1503.757202148438 1331.116821289063 1502.569458007813 1334.82861328125 1499.563720703125 1338.415649414063 C 1499.488525390625 1338.50537109375 1491.963256835938 1347.380249023438 1484.322875976563 1347.380249023438 C 1482.769775390625 1347.380249023438 1480.945068359375 1346.960205078125 1479.556030273438 1346.265380859375 C 1478.54345703125 1345.759155273438 1474.884887695313 1343.249633789063 1472.29296875 1339.600952148438 C 1471.919311523438 1339.3994140625 1471.545043945313 1339.192626953125 1471.166748046875 1338.983642578125 C 1468.986450195313 1337.779418945313 1466.51513671875 1336.414306640625 1463.774169921875 1335.826904296875 C 1454.582763671875 1333.856689453125 1414.824951171875 1327.5029296875 1410.047729492188 1327.392578125 C 1409.3427734375 1327.5302734375 1407.293334960938 1328.14501953125 1404.535888671875 1328.893920898438 C 1394.423461914063 1331.640747070313 1375.600219726563 1336.753662109375 1352.845947265625 1336.753662109375 C 1348.695068359375 1336.753662109375 1344.543579101563 1336.58251953125 1340.459838867188 1336.244140625 C 1339.081787109375 1337.491821289063 1336.770263671875 1339.620361328125 1334.797729492188 1341.436889648438 C 1326.383178710938 1349.185302734375 1314.859130859375 1359.797119140625 1303.90869140625 1363.885375976563 C 1296.38623046875 1366.693969726563 1291.585205078125 1368.422119140625 1288.69140625 1369.439697265625 C 1283.517822265625 1374.0634765625 1274.2216796875 1374.224975585938 1272.965209960938 1374.224975585938 Z M 1275.419067382813 1343.157470703125 C 1276.067016601563 1343.173217773438 1276.698608398438 1343.19482421875 1277.272094726563 1343.217529296875 C 1277.934448242188 1342.649169921875 1278.606201171875 1342.07080078125 1279.284057617188 1341.485229492188 C 1278.070922851563 1341.936889648438 1276.991821289063 1342.323852539063 1276.041381835938 1342.647827148438 C 1275.837524414063 1342.822265625 1275.630004882813 1342.991943359375 1275.419067382813 1343.157470703125 Z"/>
    </g>
    <path id="路径_3451" data-name="路径 3451" class="cls-2" d="M1309.908,1310.907s-16.375,14.182-27.839,18.77-12.419,4.4-12.419,4.4l-2.1-7.065s17.768-15,18.342-16.1,17.9-15.49,19.075-16.414S1315.01,1297.485,1309.908,1310.907Z"/>
    <path id="路径_3452" data-name="路径 3452" class="cls-3" d="M1316.67,1264.363s-8.043-17.063-30.206-5.966c-7.26,5.966-4.586,17.021-1.529,31.541s2.2,15.667,1.409,16.67-5.4,2.508-4.525-1.074-5.132,3.306-1.421,5.23,13.34,3.081,17.525-.287,7.006-16.049,6.978-17.338S1318.049,1266.559,1316.67,1264.363Z"/>
    <path id="路径_3453" data-name="路径 3453" class="cls-2" d="M1430.367,1282.788s39.029,9.312,52.4,16.045,4.472,4.489,4.472,4.489l-1.549,5.99s-6.59-3.887-8.508-4.474-8.765-3.885-34.005-4.065S1420.566,1284.231,1430.367,1282.788Z"/>
    <path id="路径_3454" data-name="路径 3454" class="cls-3" d="M1447.665,1209.518s19.662-12.6,9.058-24.281c-.215,1.433-2.722,12.753-12.825,11.1,0,0,7.738-7.093,3.153-11.678-1.648,2.794-4.227,8.311-11.822,6.161s-18.843-6.3-27.011-3.51-10.174.6-18.294,20.849c-2.293,8.311-6.21,24.169-16.527,25.411-2.293.478-11.368,2.2-6.5-3.534-2.771,0-15.19,15.476,3.63,23.022,7.26,1.625,13.406,3.472,13.406,3.472s17.45,9.712,26.908-15.222S1446.086,1208.77,1447.665,1209.518Z"/>
    <path id="路径_3455" data-name="路径 3455" class="cls-4" d="M1448.938,1252.909s-2.357,29.137-15.349,32.385c-7.643.765-6.783-.238-6.878-.43a7.547,7.547,0,0,1,0-1.48s17.949-1.3,17-30.144Z"/>
    <path id="路径_3456" data-name="路径 3456" class="cls-5" d="M1432.053,1252s-3.248,35.836-6.5,44.433c14.521,7.261,51.587,21.208,55.6,25.029s3.439,4.586,3.439,4.586-2.1,4.394-3.821,5.732-6.878-4.013-14.9-5.732-50.239-8.656-55.78-8.656-34.966,12.61-72.223,8.558c-4.967,2.006-23.126,23.216-37.456,28.566s-18.533,6.687-18.533,6.687l-2.674-6.5s17-14.329,24.646-21.972c6.879-9.553,7.643-14.807,8.789-16.813s-7.165-5.875-7.738-22.784,6.878-33.1,27.227-32.958,42.558.143,51.3-3.44,21.065-6.3,22.928-23.787,1-17.912,1-17.912-11.177-5.158-6.735-21.781a64,64,0,0,1,3.009-9.744s8.885,8.311,10.891,11.321,2.722,8.884,2.579,11.177,13.613-4.156,18.485-2.15,23.051,10.759,26.524,13.329c3.194,2.365,9.327,5.767,9.327,5.767a19.057,19.057,0,0,1,7.825-.693c4.705.692,9.86,10.233,5.532,20.743-7.917,19.223-23.407,21.076-29.568,9.182C1453.435,1252.408,1438.365,1254.647,1432.053,1252Z"/>
    <path id="路径_3457" data-name="路径 3457" class="cls-6" d="M1282.117,1361.921l-2.913-8.6s-6.974-.43-8.837,0-.287,10.031,1.433,10.747S1281.754,1362.836,1282.117,1361.921Z"/>
    <path id="路径_3458" data-name="路径 3458" class="cls-6" d="M1270.464,1333.917s-1.148-8.107-2.915-7.964-6.64-.143-7.929,1.147,1.863,11.724,3.009,11.379S1270.628,1334.939,1270.464,1333.917Z"/>
    <path id="路径_3459" data-name="路径 3459" class="cls-6" d="M1484.354,1325.349s-4.681,5.7-4.773,6.691,2.989,4.552,4.449,5.282,9.679-5.595,9.218-8.189S1484.354,1325.349,1484.354,1325.349Z"/>
    <path id="路径_3460" data-name="路径 3460" class="cls-6" d="M1488.437,1301.937l-6.335,5.327s3.136,5.029,4.226,5.792,9.7-4.033,9.92-5.56S1489.565,1302.591,1488.437,1301.937Z"/>
    <path id="路径_3461" data-name="路径 3461" class="cls-2" d="M1470.658,1258.635c-2.087.838-8.983,3.636-15.431-6.442-4.873,0-6.289.716-6.289.716s-11.926,1.049-16.885-.908c-5.677-.859-14.9-4.393-14.991-4.68s-1.051-.764-.478-1.385c.812,0,18,4.92,23.162,5.063s14.579-.517,15-.573c.585-.078,2.7-.956,3.773.764,1.046,1.674,4.087,8.143,12.124,7.379C1470.689,1258.565,1470.7,1258.619,1470.658,1258.635Z"/>
    <path id="路径_3462" data-name="路径 3462" class="cls-7" d="M1471.438,1222.961s13.139-4.743,14.477,7.695-2.526,17.8-8.726,24.074c-3.286,3.667-5.727,3.89-6.524,4.147,0,0-10.614,1.962-11.474-10.649a38.711,38.711,0,0,1,12.247-25.267"/>
    <ellipse id="椭圆_532" data-name="椭圆 532" class="cls-6" cx="4.407" cy="4.018" rx="4.407" ry="4.018" transform="translate(1437.413 1214.309)"/>
    <ellipse id="椭圆_533" data-name="椭圆 533" class="cls-8" cx="1.891" cy="2.074" rx="1.891" ry="2.074" transform="matrix(0.622, -0.783, 0.783, 0.622, 1436.946, 1219.75)"/>
    <ellipse id="椭圆_534" data-name="椭圆 534" class="cls-6" cx="3.418" cy="2.855" rx="3.418" ry="2.855" transform="translate(1478.875 1242.001) rotate(-69.178)"/>
    <path id="路径_3463" data-name="路径 3463" class="cls-9" d="M1470.188,1224.163s-18.544-10.911-22.438-13.813c-.388-.288-.647-.723-.373-1.12.033-.048-1.039.753-1.017.744.433-.168-.43-2.561,7.85,2.707,10.929,5.421,16.495,7.7,17.228,10.28A2.589,2.589,0,0,1,1470.188,1224.163Z"/>
    <path id="路径_3464" data-name="路径 3464" class="cls-4" d="M1471.438,1222.961s-7.47-4.443-16.211,29.232c-2.15,2.006-6.272,1.433-6.289.716s7.7-33.313,18.33-33.35C1471.742,1220.954,1471.457,1221.672,1471.438,1222.961Z"/>
    <path id="路径_3465" data-name="路径 3465" class="cls-4" d="M1453.88,1236.566s-43.093.463-46.881-10.13a8.212,8.212,0,0,0-1.162,6.317c0,.477,15.569,11.788,46.714,7.518A5.031,5.031,0,0,0,1453.88,1236.566Z"/>
    <path id="路径_3466" data-name="路径 3466" class="cls-4" d="M1383.427,1256.741"/>
    <path id="路径_3467" data-name="路径 3467" class="cls-4" d="M1383.427,1256.741s-25.2,2.933-38.108,2.891c-4.585,0-11.751,39.405-4.013,43.4s44.422,5.839,50.727-7.99S1383.427,1256.741,1383.427,1256.741Z"/>
    <path id="路径_3468" data-name="路径 3468" class="cls-10" d="M1377.316,1267.431s-17.881,2.355-26.933,2.329c-3.216,0-8.042,24.082-2.614,26.577s31.161,3.646,35.583-4.99S1377.316,1267.431,1377.316,1267.431Z"/>
    <path id="路径_3469" data-name="路径 3469" class="cls-2" d="M1480.579,1330.267s-8.491-5.471-14.223-6.044c-7.834-1.457-45.186-10.652-54.739-10.078s-9.553,2.483-19.871,4.776-38.4,6.926-51.968,3.272c-8.025,1.7-20.444,19.656-35.729,25.961-15.667,7.451-19.673,9.586-23.211,10.524a5.4,5.4,0,0,0,1.04,2.526s23.779-7.7,26.343-10.782c3.256-1.576,14.829-11.871,20.226-16.731,5.249-4.733,9.42-7.74,9.42-7.74s23.757,4.835,60.958-5.874c10.376-2.61,11.265-2.684,11.265-2.684s46.415,6.848,51.1,7.752,6.937,1.227,13.958,4.619C1478.87,1332.439,1479.564,1333.4,1480.579,1330.267Z"/>
    <path id="路径_3470" data-name="路径 3470" class="cls-11" d="M1488.134,1301.738s-1.83,1.993-2.391,2.464-.783-4.148-24.068-10.525-33.305-8.014-33.686-8.1,0-2.79,0-2.79S1462.052,1287.612,1488.134,1301.738Z"/>
    <path id="路径_3471" data-name="路径 3471" class="cls-12" d="M1310.1,1310.5s-2.069-3.437-2.22-3.8-16.83,19.451-37.127,24.9c-1.525,2.639,0,2.481,0,2.481A87.689,87.689,0,0,0,1310.1,1310.5Z"/>
    <path id="路径_3472" data-name="路径 3472" class="cls-13" d="M1405.2,1191.674s7.656,5.159,8.038,10.509-3.151,7.045-5.541,6.973C1405,1209.076,1401.177,1197.215,1405.2,1191.674Z"/>
    <path id="路径_3473" data-name="路径 3473" class="cls-14" d="M1447.051,1184.664s1.287,5.2-3.508,7.3-10.432.382-13.489-.86-19.4-3.73-20.971-2.295l-1.34-1.332s6.243-2.677,16.864.337c3.672.974,11.422,3.218,11.572,3.249S1443.031,1193.224,1447.051,1184.664Z"/>
    <path id="路径_3474" data-name="路径 3474" class="cls-14" d="M1456.723,1185.237a7.286,7.286,0,0,1,0,5.816c-1.4,2.866-4.876,7.547-9.515,6.879s-3.31-1.59-3.31-1.59S1453.253,1199.052,1456.723,1185.237Z"/>
    <path id="路径_3475" data-name="路径 3475" class="cls-15" d="M1366.9,1230.041s-6.553.684-6.545,12.135,21.647,13.973,23.581,14.359l4.861-1.888s-23.227-2.311-24.564-8.711C1362.514,1243.288,1360.874,1237.933,1366.9,1230.041Z"/>
    <path id="路径_3476" data-name="路径 3476" class="cls-15" d="M1304.9,1293.139l.119-5.654s-3.789,17.3-7.61,20.4-12.992,2.771-14.951,1.911-.527-4.845-.56-4.983.021-.662-.748-.061-4.288,5.548.7,6.622c4.546,1.36,10.99,2.272,15.589-.548S1305.156,1294.057,1304.9,1293.139Z"/>
    <ellipse id="椭圆_535" data-name="椭圆 535" class="cls-16" cx="1.651" cy="2.325" rx="1.651" ry="2.325" transform="translate(1488.587 1305.906) rotate(-64.665)"/>
    <ellipse id="椭圆_536" data-name="椭圆 536" class="cls-16" cx="1.651" cy="2.325" rx="1.651" ry="2.325" transform="translate(1486.37 1328.604) rotate(-64.665)"/>
    <ellipse id="椭圆_537" data-name="椭圆 537" class="cls-17" cx="2.325" cy="1.651" rx="2.325" ry="1.651" transform="matrix(0.964, -0.265, 0.265, 0.964, 1273.748, 1360.908)"/>
    <ellipse id="椭圆_538" data-name="椭圆 538" class="cls-17" cx="2.325" cy="1.651" rx="2.325" ry="1.651" transform="matrix(0.909, -0.416, 0.416, 0.909, 1262.464, 1334.244)"/>
  </g>
</svg>
