<svg xmlns="http://www.w3.org/2000/svg" width="246.475" height="192.604" viewBox="0 0 246.475 192.604">
  <defs>
    <style>
      .cls-1, .cls-6 {
        fill: #300e15;
      }

      .cls-1 {
        stroke-linecap: round;
        stroke-linejoin: round;
      }

      .cls-2 {
        fill: #d34040;
      }

      .cls-3 {
        fill: #b22626;
      }

      .cls-4 {
        fill: #513c25;
      }

      .cls-5 {
        fill: #e84949;
      }

      .cls-7 {
        fill: #f95d5d;
      }

      .cls-8 {
        fill: #3f2f1c;
      }

      .cls-9 {
        fill: #fefefe;
      }

      .cls-10 {
        fill: #f46767;
      }

      .cls-11 {
        fill: #89512a;
      }

      .cls-12 {
        fill: #d84e4e;
      }

      .cls-13 {
        fill: #c13a3a;
      }

      .cls-14 {
        fill: #a53737;
      }

      .cls-15 {
        fill: #ba3a3a;
      }

      .cls-16 {
        fill: #9b1f1f;
      }

      .cls-17 {
        fill: #56222e;
      }

      .cls-18 {
        fill: #19070c;
      }

      .cls-19, .cls-20 {
        stroke: none;
      }

      .cls-20 {
        fill: #fff;
      }
    </style>
  </defs>
  <g id="组_1800" data-name="组 1800" transform="translate(-104.024 -1177.624)">
    <g id="路径_3371" data-name="路径 3371" class="cls-1">
      <path class="cls-19" d="M 127.0729370117188 1365.22802734375 C 125.8738021850586 1365.22802734375 124.9090347290039 1365.058715820313 124.0367660522461 1364.6953125 C 122.5201721191406 1364.063110351563 121.3717346191406 1362.852783203125 120.5251388549805 1360.9951171875 C 120.1207656860352 1360.10791015625 119.7683715820313 1359.040649414063 119.4776992797852 1357.822875976563 C 118.9191360473633 1355.482788085938 118.6793365478516 1352.973510742188 118.8362350463867 1351.110595703125 C 118.9234390258789 1350.0751953125 119.1276016235352 1349.189697265625 119.4603729248047 1348.4033203125 C 120.2181701660156 1346.612548828125 121.6778335571289 1345.348876953125 123.4651031494141 1344.936157226563 C 124.4094390869141 1344.71826171875 125.6372680664063 1344.625366210938 127.5712661743164 1344.625366210938 C 129.5564880371094 1344.625366210938 131.7661590576172 1344.730590820313 132.7815093994141 1344.785400390625 C 137.5933532714844 1340.671875 147.4728851318359 1332.131713867188 152.7701721191406 1326.882446289063 C 154.6983795166016 1324.173461914063 156.0570831298828 1321.87646484375 157.0487976074219 1319.950805664063 C 151.3899230957031 1324.21826171875 143.9049835205078 1329.339965820313 137.6327667236328 1331.85009765625 C 133.2243499755859 1333.61474609375 129.8713226318359 1334.869995117188 127.6243896484375 1335.597534179688 C 127.3291244506836 1335.862670898438 126.9939651489258 1336.126708984375 126.6119003295898 1336.395751953125 C 125.8800659179688 1336.9111328125 124.9149017333984 1337.486083984375 123.7433013916016 1338.104736328125 C 122.1063003540039 1338.96923828125 119.7591705322266 1340.070434570313 118.6336059570313 1340.408569335938 C 118.1509017944336 1340.553833007813 117.6474685668945 1340.628051757813 117.1400375366211 1340.628051757813 C 116.03173828125 1340.628051757813 113.9369049072266 1340.260375976563 112.3596038818359 1337.79833984375 C 111.9867324829102 1337.216430664063 111.6299362182617 1336.509643554688 111.2688064575195 1335.637817382813 C 110.5378036499023 1333.873046875 109.8312377929688 1331.503051757813 109.4249038696289 1329.452514648438 C 108.8618698120117 1326.611206054688 108.5829696655273 1323.410034179688 110.7834396362305 1321.20947265625 C 112.4353713989258 1319.55615234375 114.7243728637695 1319.109497070313 116.3023376464844 1318.91748046875 C 117.6855010986328 1318.7490234375 119.1125717163086 1318.72314453125 120.2592010498047 1318.702270507813 C 120.5892562866211 1318.6962890625 120.9501800537109 1318.689697265625 121.2155532836914 1318.679931640625 C 123.3078308105469 1316.901733398438 126.563850402832 1314.1240234375 129.4814758300781 1311.590087890625 C 128.9801483154297 1310.944213867188 128.5946807861328 1310.213012695313 128.3451690673828 1309.420043945313 C 127.9245376586914 1308.083374023438 127.8964004516602 1306.646362304688 128.2615966796875 1305.149047851563 C 128.5962066650391 1303.776977539063 129.2789306640625 1302.356811523438 130.1840667724609 1301.150146484375 C 131.9227600097656 1298.83203125 133.783203125 1298.232788085938 135.1162872314453 1298.167724609375 C 134.7897644042969 1296.07958984375 134.2889862060547 1293.429443359375 133.6212768554688 1290.258178710938 C 133.5099029541016 1289.72900390625 133.399169921875 1289.205078125 133.2894287109375 1288.68603515625 C 131.8359375 1281.81005859375 130.5806427001953 1275.871704101563 130.5369415283203 1270.550537109375 C 130.4810028076172 1263.74267578125 132.5299682617188 1258.727661132813 136.8009643554688 1255.21875 L 137.2345428466797 1254.862426757813 L 137.7362976074219 1254.611206054688 C 143.1883697509766 1251.881103515625 148.3970642089844 1250.496948242188 153.2176666259766 1250.496948242188 C 159.1016693115234 1250.496948242188 164.4387054443359 1252.564331054688 168.6517639160156 1256.4755859375 C 169.3043670654297 1257.081420898438 169.8833618164063 1257.689575195313 170.3927307128906 1258.275756835938 C 174.2346343994141 1256.620971679688 178.5776824951172 1255.78515625 183.3623962402344 1255.78515625 C 183.4594421386719 1255.78515625 183.5567626953125 1255.785400390625 183.6543426513672 1255.7861328125 C 186.5843963623047 1255.806762695313 190.0364379882813 1255.827880859375 193.4227752685547 1255.827880859375 C 198.616943359375 1255.827880859375 205.8757171630859 1255.784912109375 212.5604858398438 1255.45849609375 C 210.4753112792969 1253.9619140625 208.8375244140625 1252.237426757813 207.6643371582031 1250.29833984375 C 205.7559967041016 1247.14404296875 205.1309356689453 1243.4892578125 205.8567657470703 1239.729248046875 C 206.4124755859375 1236.850463867188 207.7813415527344 1233.909912109375 209.7111358642578 1231.44921875 C 210.5493621826172 1230.38037109375 211.4687957763672 1229.44140625 212.3699951171875 1228.733764648438 C 213.8728637695313 1227.5537109375 215.339599609375 1226.97998046875 216.85400390625 1226.97998046875 L 227.2941436767578 1226.97998046875 C 227.9113616943359 1226.144897460938 228.5136871337891 1225.162841796875 229.0957336425781 1224.041625976563 C 231.2699432373047 1219.853149414063 232.7091674804688 1214.594360351563 233.7600402832031 1210.754516601563 C 233.8554992675781 1210.40576171875 233.9480743408203 1210.067626953125 234.0380096435547 1209.741455078125 L 234.1126403808594 1209.470947265625 L 234.2170715332031 1209.21044921875 C 236.9149627685547 1202.481079101563 238.9788055419922 1198.153564453125 240.9089050292969 1195.178833007813 C 242.4324951171875 1192.83056640625 244.0050811767578 1191.124755859375 245.8330535888672 1189.870849609375 C 246.7401580810547 1186.92919921875 247.3108673095703 1185.651733398438 247.4326629638672 1185.391967773438 L 250.3532409667969 1179.161010742188 L 255.3769989013672 1183.86376953125 C 255.4259948730469 1183.90966796875 256.2005615234375 1184.63525390625 257.3255310058594 1185.717651367188 C 258.8850402832031 1185.407104492188 260.5533752441406 1185.250366210938 262.3125915527344 1185.250366210938 C 268.6218566894531 1185.250366210938 275.2384948730469 1187.227661132813 280.5550231933594 1188.81640625 C 281.6063842773438 1189.130615234375 282.5994262695313 1189.427368164063 283.5204162597656 1189.687866210938 C 284.165771484375 1189.870483398438 284.7429809570313 1189.963134765625 285.2359619140625 1189.963134765625 C 286.6668395996094 1189.963134765625 287.3844604492188 1189.135986328125 288.8146057128906 1186.650268554688 C 288.9244995117188 1186.459350585938 289.0381469726563 1186.26171875 289.1510009765625 1186.0703125 L 292.4295043945313 1180.510375976563 L 296.9935607910156 1185.074462890625 C 297.3936767578125 1185.474609375 297.7530517578125 1185.896484375 298.0710144042969 1186.338134765625 L 299.3256225585938 1178.000244140625 L 306.4047546386719 1185.796875 C 309.7118225097656 1189.439086914063 311.15576171875 1193.720703125 310.5805358886719 1198.178955078125 C 310.0118408203125 1202.586303710938 307.5230102539063 1207.005981445313 303.1837158203125 1211.314575195313 C 306.4692993164063 1213.014404296875 309.4280090332031 1214.647705078125 310.8270263671875 1215.683471679688 C 312.5276794433594 1216.941772460938 315.4640808105469 1218.703491210938 317.4968566894531 1219.878784179688 C 318.7233581542969 1219.634033203125 320.3407592773438 1219.40869140625 322.1383666992188 1219.40869140625 C 323.0953063964844 1219.40869140625 324.0379638671875 1219.472900390625 324.9401550292969 1219.599609375 L 324.9561767578125 1219.601806640625 L 324.9721374511719 1219.604248046875 C 326.7372741699219 1219.863647460938 328.4851989746094 1220.685668945313 330.0269470214844 1221.9814453125 C 331.3279724121094 1223.074829101563 332.4680786132813 1224.473999023438 333.4154968261719 1226.140014648438 C 334.9255981445313 1228.795288085938 335.8337707519531 1231.946411132813 336.0418701171875 1235.252563476563 C 336.275390625 1238.963256835938 335.640625 1242.673461914063 334.1552734375 1246.280151367188 C 332.9393310546875 1249.232788085938 331.5016479492188 1251.920532226563 329.8821411132813 1254.268432617188 C 328.2935791015625 1256.571411132813 326.5197143554688 1258.564208984375 324.6098022460938 1260.191162109375 C 320.7098693847656 1263.513549804688 316.31884765625 1265.269653320313 311.911376953125 1265.269653320313 C 308.7901916503906 1265.269653320313 305.7563171386719 1264.359741210938 303.1376342773438 1262.638305664063 C 301.8264465332031 1261.7763671875 300.6365966796875 1260.733520507813 299.5758972167969 1259.518798828125 C 299.2042541503906 1261.86181640625 298.6492919921875 1264.783447265625 297.8430480957031 1267.859985351563 C 296.7201232910156 1272.144897460938 295.332763671875 1275.870849609375 293.7195129394531 1278.934448242188 C 293.3308715820313 1279.672485351563 292.9272766113281 1280.375 292.5089416503906 1281.0419921875 C 305.2846984863281 1284.427856445313 321.821044921875 1289.223266601563 329.8453369140625 1293.263061523438 C 332.4201965332031 1294.55908203125 334.3245849609375 1295.601196289063 335.6581115722656 1296.444091796875 C 335.7966918945313 1296.51953125 335.9993591308594 1296.627563476563 336.2110595703125 1296.740234375 C 337.3098449707031 1297.325561523438 339.1488342285156 1298.305297851563 340.7462768554688 1299.343994140625 C 341.7973937988281 1300.027465820313 342.6184692382813 1300.654296875 343.2564086914063 1301.26025390625 C 345.4040832519531 1303.300170898438 345.62255859375 1305.353393554688 345.4276733398438 1306.716674804688 C 345.1167907714844 1308.897216796875 343.6074829101563 1310.336791992188 342.3273010253906 1311.347045898438 C 341.2130126953125 1312.226440429688 339.926513671875 1313.0224609375 339.0434875488281 1313.535400390625 C 337.8265686035156 1314.242309570313 336.6000061035156 1314.866821289063 335.4963989257813 1315.341430664063 C 333.7937622070313 1316.073608398438 332.509765625 1316.400268554688 331.3336791992188 1316.400268554688 C 331.3334045410156 1316.400268554688 331.333251953125 1316.400268554688 331.3329772949219 1316.400268554688 C 330.8606872558594 1316.400146484375 330.4299621582031 1316.346313476563 330.0415954589844 1316.258544921875 C 330.893310546875 1317.0947265625 331.5943908691406 1317.849487304688 332.1659545898438 1318.548583984375 C 333.03662109375 1318.733520507813 334.0597229003906 1318.98046875 335.0801696777344 1319.294067382813 C 336.5794372558594 1319.7548828125 337.7991027832031 1320.27001953125 338.8088684082031 1320.869140625 C 341.4377746582031 1322.428955078125 342.2854309082031 1324.417724609375 342.5335693359375 1325.8115234375 C 342.7838134765625 1327.218627929688 342.546142578125 1328.672607421875 341.8273620605469 1330.13427734375 C 341.4254455566406 1330.95166015625 340.8782653808594 1331.768920898438 340.1546325683594 1332.632568359375 C 338.9237060546875 1334.101684570313 337.1684265136719 1335.688720703125 335.3388671875 1336.986572265625 C 332.0740051269531 1339.302734375 330.20361328125 1339.570556640625 329.0806884765625 1339.570556640625 C 328.1861877441406 1339.570556640625 327.3402099609375 1339.37451171875 326.5661926269531 1338.98779296875 C 324.9302673339844 1338.169311523438 323.3494262695313 1336.542724609375 322.3108825683594 1335.322265625 C 321.6666870117188 1334.565185546875 321.1430358886719 1333.86279296875 320.7315979003906 1333.196166992188 C 320.0960693359375 1332.878784179688 319.4328308105469 1332.512451171875 318.7088317871094 1332.112670898438 C 316.4658508300781 1330.873779296875 313.67431640625 1329.332153320313 310.3974609375 1328.630004882813 C 306.7122497558594 1327.840209960938 294.7274475097656 1325.773681640625 283.1126098632813 1323.925415039063 C 267.1693115234375 1321.388427734375 259.7218627929688 1320.478149414063 258.1611328125 1320.467163085938 C 257.2996520996094 1320.52099609375 254.2884063720703 1321.338989257813 251.6298370361328 1322.061157226563 C 246.7316284179688 1323.3916015625 240.0233764648438 1325.2138671875 231.8538665771484 1326.719970703125 C 222.1576995849609 1328.507690429688 212.5914306640625 1329.4140625 203.4208374023438 1329.4140625 C 198.9970092773438 1329.4140625 194.5743255615234 1329.204345703125 190.2485961914063 1328.789916992188 C 189.8304595947266 1329.102172851563 189.2215576171875 1329.5859375 188.3549041748047 1330.331176757813 C 186.8731384277344 1331.605102539063 185.1167297363281 1333.222534179688 183.0830078125 1335.09521484375 C 179.3844757080078 1338.501098632813 174.7815093994141 1342.73974609375 170.0609436035156 1346.47119140625 C 164.3188323974609 1351.01025390625 159.4102630615234 1354.007080078125 155.0548095703125 1355.633178710938 C 146.9677276611328 1358.65234375 142.22412109375 1360.346801757813 139.6655731201172 1361.237670898438 C 138.6148071289063 1362.531005859375 137.1619567871094 1363.095458984375 136.5231628417969 1363.343627929688 C 135.5141296386719 1363.735717773438 134.3673706054688 1364.054443359375 133.5830078125 1364.252807617188 C 132.4237060546875 1364.546020507813 129.4685974121094 1365.22802734375 127.0729370117188 1365.22802734375 Z M 309.0045166015625 1305.63134765625 C 312.3428649902344 1307.047241210938 315.4638366699219 1308.391967773438 318.2370910644531 1309.634765625 C 321.9905700683594 1311.316772460938 324.4761962890625 1312.533203125 326.1819458007813 1313.477172851563 C 325.734375 1312.915283203125 325.2109069824219 1312.200073242188 324.5732116699219 1311.26904296875 C 324.156005859375 1310.659912109375 323.7605285644531 1310.060668945313 323.4361267089844 1309.560791015625 C 321.5021362304688 1308.521484375 320.8529357910156 1308.271606445313 320.7679138183594 1308.240600585938 C 320.5076904296875 1308.159912109375 320.2544250488281 1308.070556640625 319.9627380371094 1307.967651367188 C 318.6150817871094 1307.492065429688 315.6311645507813 1306.438842773438 309.0045166015625 1305.63134765625 Z M 283.5599975585938 1259.0009765625 C 283.23046875 1262.242797851563 282.7660522460938 1266.58984375 282.2073364257813 1271.222534179688 C 283.912109375 1268.092895507813 284.9293212890625 1263.996704101563 285.2153930664063 1259.12109375 C 284.643310546875 1259.0908203125 284.0915832519531 1259.05078125 283.5599975585938 1259.0009765625 Z"/>
      <path class="cls-20" d="M 127.0729522705078 1360.22802734375 C 129.7946624755859 1360.22802734375 135.5260162353516 1358.768920898438 135.8209991455078 1358.025024414063 L 135.5709991455078 1357.287963867188 L 135.5930023193359 1357.340942382813 C 135.5930023193359 1357.340942382813 139.6100006103516 1356.06201171875 153.3059997558594 1350.948974609375 C 167.0010070800781 1345.836059570313 184.3570098876953 1325.56396484375 189.10400390625 1323.64697265625 C 194.0310974121094 1324.182861328125 198.8208618164063 1324.4140625 203.4207000732422 1324.4140625 C 232.0647583007813 1324.4140625 253.5697937011719 1315.467041015625 258.1329956054688 1315.467041015625 C 263.4280090332031 1315.467041015625 303.7749938964844 1322.097045898438 311.4450073242188 1323.740966796875 C 317.8300170898438 1325.109008789063 322.3089904785156 1328.869995117188 324.5809936523438 1329.357055664063 C 324.5700073242188 1329.392944335938 324.552001953125 1329.43798828125 324.5490112304688 1329.465942382813 C 324.4609985351563 1330.407958984375 327.406005859375 1333.817016601563 328.8009948730469 1334.515014648438 C 328.8761901855469 1334.552612304688 328.9703063964844 1334.570556640625 329.0806884765625 1334.570556640625 C 331.0188598632813 1334.570556640625 338.0282287597656 1329.034301757813 337.6109924316406 1326.68798828125 C 337.1990051269531 1324.3740234375 330.1549987792969 1323.22998046875 329.218017578125 1323.088012695313 C 328.93798828125 1322.48095703125 328.156005859375 1321.359985351563 326.0540161132813 1319.358032226563 C 322.218994140625 1315.7060546875 286.7929992675781 1302.375 272.9150085449219 1295.43603515625 C 272.9920043945313 1295.23095703125 273.0690002441406 1294.9990234375 273.1470031738281 1294.761962890625 C 275.8489990234375 1297.448974609375 281.0679931640625 1299.52099609375 289.7579956054688 1299.5830078125 C 313.8810119628906 1299.755004882813 320.4259948730469 1302.906005859375 322.2590026855469 1303.468017578125 C 323.1669921875 1303.745971679688 325.1679992675781 1304.796020507813 326.9580078125 1305.786987304688 C 326.9609985351563 1305.7900390625 329.9559936523438 1310.593017578125 330.9970092773438 1311.322021484375 C 331.0729370117188 1311.375244140625 331.1872253417969 1311.400146484375 331.3336486816406 1311.400268554688 C 333.1962585449219 1311.400512695313 340.28515625 1307.361694335938 340.4779968261719 1306.009033203125 C 340.6820068359375 1304.58203125 334.3880004882813 1301.465942382813 333.1050109863281 1300.745971679688 C 332.0230102539063 1300.052001953125 330.2850036621094 1299.08203125 327.5970153808594 1297.72900390625 C 317.8680114746094 1292.8310546875 293.9490051269531 1286.509033203125 283.0700073242188 1283.766967773438 C 293.3110046386719 1277.875 295.2619934082031 1253.837036132813 295.2619934082031 1253.837036132813 L 295.2470092773438 1253.838012695313 C 298.2770080566406 1253.567016601563 300.6400146484375 1253.22802734375 301.2720031738281 1253.151977539063 C 303.6888427734375 1257.817016601563 307.6078186035156 1260.26953125 311.911376953125 1260.26953125 C 318.0941162109375 1260.26953125 325.0711059570313 1255.208740234375 329.5320129394531 1244.3759765625 C 333.6690063476563 1234.3310546875 328.7420043945313 1225.212036132813 324.2449951171875 1224.551025390625 C 323.5248718261719 1224.449951171875 322.8158264160156 1224.40869140625 322.1383666992188 1224.40869140625 C 319.1441040039063 1224.40869140625 316.7659912109375 1225.213989257813 316.7659912109375 1225.213989257813 C 316.7659912109375 1225.213989257813 310.9049987792969 1221.961059570313 307.8519897460938 1219.702026367188 C 306.0270080566406 1218.350952148438 299.9509887695313 1215.213012695313 294.0769958496094 1212.343994140625 C 294.75 1211.906005859375 312.6480102539063 1200.110961914063 302.7030029296875 1189.157958984375 C 302.5109252929688 1190.434448242188 300.4136962890625 1199.928100585938 292.3040161132813 1199.92822265625 C 291.7163696289063 1199.92822265625 291.0973510742188 1199.87841796875 290.4450073242188 1199.77197265625 C 290.4450073242188 1199.77197265625 297.8410034179688 1192.993041992188 293.4580078125 1188.609985351563 C 292.1300659179688 1190.862060546875 290.1693115234375 1194.963012695313 285.2360229492188 1194.963134765625 C 284.3182067871094 1194.963134765625 283.2976379394531 1194.821166992188 282.1589965820313 1194.4990234375 C 276.623046875 1192.932495117188 269.0553894042969 1190.250366210938 262.3126220703125 1190.250366210938 C 260.2139892578125 1190.250366210938 258.1958923339844 1190.510009765625 256.343017578125 1191.14404296875 C 256.18701171875 1191.197021484375 256.0379943847656 1191.244995117188 255.8870086669922 1191.295043945313 C 253.7610015869141 1189.199951171875 251.9600067138672 1187.514038085938 251.9600067138672 1187.514038085938 C 251.9600067138672 1187.514038085938 251.2559967041016 1189.015991210938 250.0610046386719 1193.199951171875 C 246.6070098876953 1194.803955078125 244.0290069580078 1198.172973632813 238.8580017089844 1211.071044921875 C 236.6670074462891 1219.014038085938 232.9230041503906 1234.171020507813 223.0619964599609 1235.358032226563 C 222.1475677490234 1235.54833984375 220.1034851074219 1235.945556640625 218.3709869384766 1235.945556640625 C 215.9523773193359 1235.945678710938 214.1406402587891 1235.171752929688 216.85400390625 1231.97998046875 C 214.2060089111328 1231.97998046875 202.3359985351563 1246.77099609375 220.322998046875 1253.984008789063 C 227.2620086669922 1255.536010742188 233.1370086669922 1257.302001953125 233.1370086669922 1257.302001953125 L 233.1380004882813 1257.302978515625 C 232.9739990234375 1257.368041992188 232.8099975585938 1257.432983398438 232.6490020751953 1257.4990234375 C 225.6875 1260.352294921875 209.7850646972656 1260.827880859375 193.423583984375 1260.827880859375 C 190.1508178710938 1260.827880859375 186.8607330322266 1260.808837890625 183.6190032958984 1260.786010742188 C 183.5332336425781 1260.785400390625 183.4476928710938 1260.78515625 183.3623962402344 1260.78515625 C 177.3986663818359 1260.78515625 172.605224609375 1262.264038085938 168.8450012207031 1264.784057617188 L 168.8450012207031 1264.782958984375 C 168.8450012207031 1264.782958984375 164.4672546386719 1255.496948242188 153.2176666259766 1255.496948242188 C 149.5588073730469 1255.496948242188 145.1737823486328 1256.478881835938 139.9750061035156 1259.08203125 C 133.0359954833984 1264.782958984375 135.5930023193359 1275.348999023438 138.5140075683594 1289.22802734375 C 141.4360046386719 1303.10595703125 140.6139984130859 1304.201049804688 139.8610076904297 1305.160034179688 C 139.4673614501953 1305.661376953125 138.0753936767578 1306.293579101563 136.9557342529297 1306.293701171875 C 135.9336090087891 1306.293823242188 135.1384735107422 1305.76708984375 135.5359954833984 1304.133056640625 C 135.7032165527344 1303.445678710938 135.6055297851563 1303.161499023438 135.3714141845703 1303.161499023438 C 134.4392700195313 1303.161499023438 131.3428497314453 1307.662109375 134.177001953125 1309.131958007813 C 135.1800079345703 1309.651977539063 136.6439971923828 1310.108032226563 138.3059997558594 1310.430053710938 C 134.9820098876953 1313.557006835938 125.2890014648438 1321.786010742188 122.5989990234375 1324.06298828125 C 122.3901824951172 1323.807861328125 122.1706390380859 1323.6474609375 121.937858581543 1323.6474609375 C 121.9242782592773 1323.6474609375 121.9106674194336 1323.64794921875 121.8970031738281 1323.649047851563 C 120.2080001831055 1323.786010742188 115.5510025024414 1323.511962890625 114.3190002441406 1324.744995117188 C 113.1060943603516 1325.957885742188 116.0020599365234 1335.628051757813 117.1400527954102 1335.628051757813 C 117.1589050292969 1335.628051757813 117.1771392822266 1335.625366210938 117.1949996948242 1335.619995117188 C 118.2900009155273 1335.291015625 124.8400039672852 1332.238037109375 124.6830062866211 1331.260009765625 C 125.8570022583008 1330.952026367188 128.75 1330.02001953125 135.7750091552734 1327.2080078125 C 146.7320098876953 1322.822998046875 162.3820037841797 1309.26904296875 162.3820037841797 1309.26904296875 L 162.3820037841797 1309.267944335938 C 164.0960083007813 1311.925048828125 165.4949951171875 1313.182983398438 164.9929962158203 1314.06201171875 C 163.8970031738281 1315.97998046875 163.1670074462891 1321.0009765625 156.5930023193359 1330.131958007813 C 149.9130096435547 1336.81201171875 135.7579956054688 1348.829956054688 133.385009765625 1350.837036132813 L 133.0359954833984 1349.807983398438 C 133.0359954833984 1349.807983398438 130.0736846923828 1349.625366210938 127.5712585449219 1349.625366210938 C 126.31982421875 1349.625366210938 125.1837387084961 1349.671020507813 124.5900039672852 1349.807983398438 C 122.8100051879883 1350.218994140625 124.3170013427734 1359.39501953125 125.9599990844727 1360.079956054688 C 126.2064437866211 1360.1826171875 126.5930252075195 1360.22802734375 127.0729522705078 1360.22802734375 M 157.5970001220703 1292.286010742188 C 157.6119995117188 1292.72802734375 157.635009765625 1293.156005859375 157.6600036621094 1293.579956054688 L 157.6589965820313 1293.5810546875 C 157.6029968261719 1293.625 157.4990081787109 1293.708984375 157.3699951171875 1293.81298828125 C 157.5220031738281 1293.046997070313 157.6020050048828 1292.5 157.5970001220703 1292.286010742188 M 279.1230163574219 1252.968017578125 C 281.3253479003906 1253.89111328125 284.6422424316406 1254.19189453125 288.0500793457031 1254.19189453125 C 288.78759765625 1254.19189453125 289.5293273925781 1254.177856445313 290.2650146484375 1254.152954101563 C 291.0020141601563 1276.511962890625 279.8590087890625 1281.552978515625 275.6199951171875 1282.660034179688 C 277.5989990234375 1269.767944335938 279.1230163574219 1252.968017578125 279.1230163574219 1252.968017578125 M 127.0729675292969 1370.22802734375 C 125.2172317504883 1370.22802734375 123.5949249267578 1369.927856445313 122.1133499145508 1369.310546875 C 112.877311706543 1365.460205078125 113.8414993286133 1350.837524414063 113.8538513183594 1350.69091796875 C 114.0267791748047 1348.6376953125 114.5614471435547 1346.909545898438 115.3300399780273 1345.477905273438 C 112.3667373657227 1344.974609375 108.9298324584961 1343.056640625 106.6493835449219 1337.55126953125 C 104.0734252929688 1331.332397460938 102.0861968994141 1322.835815429688 107.2478103637695 1317.674072265625 C 110.780891418457 1314.137939453125 115.5819625854492 1313.80517578125 119.3314666748047 1313.719604492188 C 120.5555648803711 1312.677490234375 121.9643325805664 1311.474365234375 123.3959655761719 1310.243896484375 C 122.8967208862305 1308.268310546875 122.8771362304688 1306.12451171875 123.4039611816406 1303.96435546875 C 124.111083984375 1301.064819335938 126.1567306518555 1297.220947265625 129.4766082763672 1294.986694335938 C 129.2687225341797 1293.907470703125 129.0218658447266 1292.681518554688 128.7285461425781 1291.288330078125 L 128.3975372314453 1289.72021484375 C 125.3808898925781 1275.449462890625 122.2615432739258 1260.69287109375 133.6269226074219 1251.355346679688 C 134.2032318115234 1250.8818359375 134.8306884765625 1250.474365234375 135.4976196289063 1250.140380859375 C 141.6509704589844 1247.059204101563 147.6128540039063 1245.496948242188 153.2176513671875 1245.496948242188 C 161.3013763427734 1245.496948242188 167.4433898925781 1248.697021484375 171.6837615966797 1252.472045898438 C 175.2809295654297 1251.350341796875 179.1841278076172 1250.78515625 183.3623809814453 1250.78515625 L 193.423583984375 1250.827880859375 C 195.4418334960938 1250.827880859375 198.6147766113281 1250.827880859375 202.2760620117188 1250.771118164063 C 200.0299682617188 1245.683471679688 200.5406951904297 1240.888549804688 200.9474182128906 1238.781494140625 C 202.3071136474609 1231.737670898438 208.5913848876953 1221.97998046875 216.85400390625 1221.97998046875 C 219.1527099609375 1221.97998046875 221.3276977539063 1222.767578125 223.0611114501953 1224.139526367188 C 224.6350250244141 1222.291381835938 226.5228118896484 1218.257202148438 228.9373931884766 1209.434692382813 L 229.2180480957031 1208.411987304688 C 229.3174591064453 1208.051513671875 229.4369964599609 1207.696899414063 229.5761566162109 1207.349853515625 C 233.6674346923828 1197.144897460938 236.8652038574219 1190.761108398438 241.5498199462891 1186.848022460938 C 242.4049682617188 1184.266235351563 242.9053039550781 1183.269897460938 242.9053039550781 1183.269897460938 C 244.3203125 1180.452270507813 247.0408935546875 1178.345581054688 250.1448822021484 1177.791748046875 C 250.7717895507813 1177.679809570313 251.4047698974609 1177.6240234375 252.0341186523438 1177.6240234375 C 254.5208740234375 1177.6240234375 256.9568481445313 1178.494140625 258.7940063476563 1180.213623046875 C 258.7940063476563 1180.213623046875 258.8710021972656 1180.28564453125 259.0122680664063 1180.418701171875 C 260.0929565429688 1180.30517578125 261.189453125 1180.250366210938 262.3126220703125 1180.250366210938 C 269.3529968261719 1180.250366210938 276.3580017089844 1182.34375 281.9866333007813 1184.025756835938 L 284.1822814941406 1184.671142578125 C 284.2886962890625 1184.490600585938 284.3916931152344 1184.3115234375 284.4806823730469 1184.156860351563 C 286.0324401855469 1181.459838867188 288.9059143066406 1179.371826171875 291.9905700683594 1178.96337890625 C 292.5105895996094 1178.89453125 293.0357360839844 1178.859619140625 293.5595092773438 1178.859619140625 C 295.3581237792969 1178.859619140625 297.1439514160156 1179.271606445313 298.6805419921875 1180.139526367188 C 299.1017761230469 1179.952514648438 299.5386657714844 1179.794677734375 299.9883422851563 1179.669067382813 C 300.92578125 1179.407348632813 301.8827209472656 1179.277954101563 302.8296508789063 1179.277954101563 C 305.5635070800781 1179.277954101563 308.2176513671875 1180.35546875 310.1065368652344 1182.435791015625 C 314.4295043945313 1187.196899414063 316.3081665039063 1192.862182617188 315.5393981933594 1198.819213867188 C 315.0038757324219 1202.968627929688 313.1971130371094 1206.69091796875 310.9662780761719 1209.847778320313 C 312.7424011230469 1210.880249023438 313.439697265625 1211.396484375 313.8020935058594 1211.664794921875 C 314.8920593261719 1212.471313476563 316.728759765625 1213.617553710938 318.4695129394531 1214.653564453125 C 319.576171875 1214.508178710938 320.8163452148438 1214.40869140625 322.1383972167969 1214.40869140625 C 323.2630920410156 1214.40869140625 324.4398803710938 1214.480346679688 325.6354370117188 1214.648193359375 C 330.5106811523438 1215.364624023438 334.9073181152344 1218.64892578125 337.7618408203125 1223.668212890625 C 341.7978820800781 1230.765258789063 342.177978515625 1239.930053710938 338.7785034179688 1248.18408203125 C 333.0837097167969 1262.01318359375 323.0398559570313 1270.26953125 311.911376953125 1270.26953125 C 308.7383728027344 1270.26953125 305.6960754394531 1269.562255859375 302.9237976074219 1268.236938476563 C 302.1311950683594 1271.392578125 301.0822448730469 1274.67578125 299.7253112792969 1277.815307617188 C 311.5722045898438 1281.0859375 324.9364624023438 1285.19384765625 332.0936584472656 1288.796997070313 C 335.2259216308594 1290.373657226563 337.2428894042969 1291.519775390625 338.5039367675781 1292.32861328125 C 344.0415344238281 1295.246459960938 351.5466918945313 1299.244506835938 350.3773498535156 1307.424194335938 C 349.7962646484375 1311.500122070313 346.3906860351563 1314.885009765625 342.5219116210938 1317.302490234375 C 344.9022521972656 1319.014526367188 346.8353881835938 1321.448486328125 347.4561462402344 1324.93505859375 C 348.1151123046875 1328.640625 346.9478149414063 1332.310180664063 343.9871520996094 1335.84375 C 343.6885681152344 1336.200073242188 336.5889282226563 1344.570556640625 329.0806884765625 1344.570556640625 C 327.5289306640625 1344.570556640625 325.7187805175781 1344.153930664063 324.3306884765625 1343.460205078125 C 323.3473205566406 1342.968139648438 319.8416137695313 1340.560546875 317.3080444335938 1337.046997070313 C 316.9707336425781 1336.864624023438 316.6328430175781 1336.677978515625 316.2915649414063 1336.489501953125 C 314.2350463867188 1335.353637695313 311.9040832519531 1334.066284179688 309.3499755859375 1333.51904296875 C 300.619873046875 1331.64794921875 262.6904907226563 1325.583984375 258.0817260742188 1325.466552734375 C 257.4781799316406 1325.599731445313 255.5398101806641 1326.18017578125 252.9405059814453 1326.88623046875 C 243.2553100585938 1329.51708984375 225.2274322509766 1334.4140625 203.4207000732422 1334.4140625 C 199.5020446777344 1334.4140625 195.5826568603516 1334.255004882813 191.725341796875 1333.9404296875 C 190.4359741210938 1335.121215820313 188.2990570068359 1337.088989257813 186.4699249267578 1338.7734375 C 178.4009246826172 1346.203735351563 167.3500366210938 1356.380004882813 156.8036193847656 1360.3173828125 C 149.6750640869141 1362.978637695313 145.1011657714844 1364.626098632813 142.3246917724609 1365.603393554688 C 137.2320556640625 1370.07080078125 128.2897186279297 1370.22802734375 127.0729675292969 1370.22802734375 Z"/>
    </g>
    <path id="路径_3372" data-name="路径 3372" class="cls-2" d="M162.382,1309.269s-15.65,13.554-26.607,17.939-11.869,4.2-11.869,4.2l-2.009-6.753s16.983-14.338,17.53-15.388,17.107-14.805,18.232-15.688S167.258,1296.441,162.382,1309.269Z"/>
    <path id="路径_3373" data-name="路径 3373" class="cls-3" d="M168.845,1264.783s-7.687-16.308-28.87-5.7c-6.939,5.7-4.382,16.267-1.461,30.145s2.1,14.974,1.347,15.933-5.158,2.4-4.325-1.027-4.9,3.16-1.359,5,12.751,2.944,16.75-.274,6.7-15.339,6.67-16.572S170.163,1266.882,168.845,1264.783Z"/>
    <path id="路径_3374" data-name="路径 3374" class="cls-2" d="M277.512,1282.394s37.3,8.9,50.085,15.335,4.274,4.29,4.274,4.29l-1.48,5.725s-6.3-3.715-8.132-4.276-8.378-3.713-32.5-3.885S268.145,1283.772,277.512,1282.394Z"/>
    <path id="路径_3375" data-name="路径 3375" class="cls-3" d="M294.045,1212.365s18.792-12.045,8.658-23.207c-.206,1.369-2.6,12.189-12.258,10.614,0,0,7.4-6.779,3.013-11.162-1.575,2.671-4.04,7.943-11.3,5.889s-18.01-6.026-25.816-3.355-9.724.57-17.485,19.927c-2.191,7.943-5.935,23.1-15.8,24.287-2.191.456-10.865,2.1-6.208-3.378-2.648,0-14.518,14.791,3.469,22,6.939,1.552,12.814,3.318,12.814,3.318s16.678,9.282,25.717-14.548S292.535,1211.65,294.045,1212.365Z"/>
    <path id="路径_3376" data-name="路径 3376" class="cls-4" d="M295.262,1253.837s-2.253,27.848-14.67,30.952c-7.305.73-6.483-.228-6.574-.411a7.2,7.2,0,0,1,0-1.415s17.155-1.24,16.247-28.81Z"/>
    <path id="路径_3377" data-name="路径 3377" class="cls-5" d="M279.123,1252.968s-3.1,34.251-6.208,42.468c13.878,6.939,49.3,20.27,53.139,23.922s3.287,4.383,3.287,4.383-2.009,4.2-3.653,5.478-6.573-3.835-14.243-5.478-48.017-8.274-53.313-8.274-33.419,12.052-69.028,8.18c-4.747,1.917-22.1,22.189-35.8,27.3s-17.713,6.392-17.713,6.392l-2.557-6.209s16.252-13.7,23.557-21c6.574-9.131,7.3-14.152,8.4-16.07s-6.848-5.615-7.4-21.776,6.574-31.637,26.022-31.5,40.676.137,49.03-3.287,20.133-6.026,21.913-22.735.959-17.119.959-17.119-10.683-4.931-6.437-20.818a61.266,61.266,0,0,1,2.876-9.313s8.491,7.944,10.409,10.82,2.6,8.491,2.465,10.683,13.011-3.972,17.667-2.055,22.032,10.283,25.351,12.74c3.053,2.26,8.914,5.512,8.914,5.512a18.233,18.233,0,0,1,7.479-.664c4.5.662,9.424,9.781,5.287,19.826-7.566,18.373-22.371,20.143-28.26,8.776C299.56,1253.357,285.157,1255.5,279.123,1252.968Z"/>
    <path id="路径_3378" data-name="路径 3378" class="cls-6" d="M135.821,1358.025l-2.785-8.217s-6.665-.411-8.446,0-.273,9.587,1.37,10.272S135.474,1358.9,135.821,1358.025Z"/>
    <path id="路径_3379" data-name="路径 3379" class="cls-6" d="M124.683,1331.26s-1.1-7.748-2.786-7.611-6.346-.137-7.578,1.1,1.78,11.2,2.876,10.875S124.84,1332.238,124.683,1331.26Z"/>
    <path id="路径_3380" data-name="路径 3380" class="cls-6" d="M329.111,1323.072s-4.474,5.453-4.562,6.394,2.857,4.351,4.252,5.049,9.251-5.347,8.81-7.827S329.111,1323.072,329.111,1323.072Z"/>
    <path id="路径_3381" data-name="路径 3381" class="cls-6" d="M333.013,1300.695l-6.055,5.091s3,4.807,4.039,5.536,9.273-3.855,9.481-5.313S334.092,1301.32,333.013,1300.695Z"/>
    <path id="路径_3382" data-name="路径 3382" class="cls-2" d="M316.021,1259.309c-1.995.8-8.586,3.476-14.749-6.157-4.657,0-6.01.685-6.01.685s-11.4,1-16.139-.869c-5.425-.82-14.236-4.2-14.327-4.473s-1-.73-.457-1.323c.776,0,17.2,4.7,22.138,4.839s13.934-.494,14.338-.548c.56-.074,2.58-.913,3.607.73,1,1.6,3.906,7.783,11.588,7.053C316.05,1259.242,316.058,1259.294,316.021,1259.309Z"/>
    <path id="路径_3383" data-name="路径 3383" class="cls-7" d="M316.766,1225.214s12.558-4.534,13.837,7.353-2.414,17.012-8.34,23.01c-3.141,3.505-5.474,3.718-6.235,3.963,0,0-10.145,1.875-10.967-10.177a37,37,0,0,1,11.7-24.149"/>
    <ellipse id="椭圆_511" data-name="椭圆 511" class="cls-8" cx="4.212" cy="3.84" rx="4.212" ry="3.84" transform="translate(284.247 1216.944)"/>
    <ellipse id="椭圆_512" data-name="椭圆 512" class="cls-9" cx="1.807" cy="1.982" rx="1.807" ry="1.982" transform="matrix(0.622, -0.783, 0.783, 0.622, 283.801, 1222.145)"/>
    <ellipse id="椭圆_513" data-name="椭圆 513" class="cls-8" cx="3.267" cy="2.729" rx="3.267" ry="2.729" transform="translate(323.874 1243.411) rotate(-69.178)"/>
    <path id="路径_3384" data-name="路径 3384" class="cls-10" d="M315.572,1226.362s-17.724-10.428-21.446-13.2c-.37-.276-.618-.692-.356-1.072.032-.046-.993.72-.972.712.414-.16-.411-2.448,7.5,2.587,10.446,5.181,15.765,7.361,16.466,9.826A2.472,2.472,0,0,1,315.572,1226.362Z"/>
    <path id="路径_3385" data-name="路径 3385" class="cls-4" d="M316.766,1225.214s-7.14-4.247-15.494,27.938c-2.054,1.917-5.994,1.37-6.01.685s7.355-31.84,17.519-31.875C317.056,1223.3,316.784,1223.982,316.766,1225.214Z"/>
    <path id="路径_3386" data-name="路径 3386" class="cls-4" d="M299.985,1238.216s-41.186.443-44.807-9.681a7.843,7.843,0,0,0-1.11,6.037c0,.456,14.88,11.266,44.646,7.185A4.8,4.8,0,0,0,299.985,1238.216Z"/>
    <path id="路径_3387" data-name="路径 3387" class="cls-4" d="M232.649,1257.5"/>
    <path id="路径_3388" data-name="路径 3388" class="cls-4" d="M232.649,1257.5s-24.089,2.8-36.423,2.763c-4.381,0-11.23,37.661-3.835,41.48s42.457,5.58,48.483-7.637S232.649,1257.5,232.649,1257.5Z"/>
    <path id="路径_3389" data-name="路径 3389" class="cls-11" d="M226.808,1267.716s-17.09,2.251-25.742,2.226c-3.073,0-7.686,23.016-2.5,25.4s29.782,3.484,34.009-4.769S226.808,1267.716,226.808,1267.716Z"/>
    <path id="路径_3390" data-name="路径 3390" class="cls-2" d="M325.5,1327.772s-8.115-5.229-13.593-5.776c-7.487-1.393-43.187-10.181-52.317-9.633s-9.131,2.374-18.992,4.565-36.7,6.619-49.669,3.127c-7.67,1.621-19.54,18.786-34.148,24.812-14.974,7.122-18.8,9.162-22.184,10.06a5.166,5.166,0,0,0,.994,2.414s22.727-7.361,25.177-10.3c3.112-1.507,14.173-11.347,19.331-15.991,5.017-4.524,9-7.4,9-7.4s22.707,4.621,58.261-5.614c9.918-2.495,10.767-2.566,10.767-2.566s44.362,6.546,48.838,7.41a41.649,41.649,0,0,1,13.34,4.414C323.87,1329.848,324.533,1330.764,325.5,1327.772Z"/>
    <path id="路径_3391" data-name="路径 3391" class="cls-12" d="M332.724,1300.505s-1.75,1.905-2.286,2.355-.748-3.964-23-10.059-31.831-7.659-32.2-7.741,0-2.666,0-2.666S307.8,1287,332.724,1300.505Z"/>
    <path id="路径_3392" data-name="路径 3392" class="cls-13" d="M162.565,1308.877s-1.977-3.286-2.121-3.633-16.085,18.59-35.484,23.794c-1.458,2.523,0,2.371,0,2.371A83.808,83.808,0,0,0,162.565,1308.877Z"/>
    <path id="路径_3393" data-name="路径 3393" class="cls-14" d="M253.461,1195.311s7.317,4.93,7.683,10.043-3.012,6.733-5.3,6.665C253.267,1211.943,249.614,1200.606,253.461,1195.311Z"/>
    <path id="路径_3394" data-name="路径 3394" class="cls-15" d="M293.458,1188.61s1.23,4.966-3.353,6.975-9.97.365-12.892-.822-18.538-3.566-20.043-2.194l-1.281-1.273s5.966-2.559,16.118.322c3.51.931,10.916,3.076,11.061,3.1S289.616,1196.792,293.458,1188.61Z"/>
    <path id="路径_3395" data-name="路径 3395" class="cls-15" d="M302.7,1189.158a6.97,6.97,0,0,1,0,5.559c-1.34,2.739-4.661,7.213-9.1,6.574s-3.163-1.519-3.163-1.519S299.385,1202.362,302.7,1189.158Z"/>
    <path id="路径_3396" data-name="路径 3396" class="cls-16" d="M216.854,1231.98s-6.263.654-6.255,11.6,20.689,13.355,22.538,13.724l4.645-1.805s-22.2-2.208-23.477-8.325C212.661,1244.641,211.094,1239.522,216.854,1231.98Z"/>
    <path id="路径_3397" data-name="路径 3397" class="cls-16" d="M157.6,1292.286l.113-5.4s-3.621,16.532-7.273,19.5-12.417,2.648-14.289,1.827-.5-4.631-.536-4.763.02-.633-.715-.058-4.1,5.3.673,6.329c4.344,1.3,10.5,2.172,14.9-.524S157.841,1293.164,157.6,1292.286Z"/>
    <ellipse id="椭圆_514" data-name="椭圆 514" class="cls-17" cx="1.578" cy="2.222" rx="1.578" ry="2.222" transform="translate(333.157 1304.489) rotate(-64.665)"/>
    <ellipse id="椭圆_515" data-name="椭圆 515" class="cls-17" cx="1.578" cy="2.222" rx="1.578" ry="2.222" transform="translate(331.037 1326.183) rotate(-64.665)"/>
    <ellipse id="椭圆_516" data-name="椭圆 516" class="cls-18" cx="2.222" cy="1.578" rx="2.222" ry="1.578" transform="matrix(0.964, -0.265, 0.265, 0.964, 127.822, 1357.058)"/>
    <ellipse id="椭圆_517" data-name="椭圆 517" class="cls-18" cx="2.222" cy="1.578" rx="2.222" ry="1.578" transform="matrix(0.909, -0.416, 0.416, 0.909, 117.037, 1331.573)"/>
  </g>
</svg>
