<svg xmlns="http://www.w3.org/2000/svg" width="120.856" height="115.335" viewBox="0 0 120.856 115.335">
  <defs>
    <style>
      .cls-1, .cls-6 {
        fill: #fff;
      }

      .cls-1 {
        opacity: 0.7;
      }

      .cls-2 {
        fill: #4df5f5;
      }

      .cls-3 {
        fill: #609ef5;
      }

      .cls-4 {
        fill: #f4cf3b;
      }

      .cls-5 {
        fill: #f540b3;
      }

      .cls-7 {
        fill: #f4725b;
      }

      .cls-8 {
        fill: #dc5f3e;
      }

      .cls-9 {
        fill: #eaf54d;
      }

      .cls-10 {
        fill: #f54d4d;
      }

      .cls-11 {
        fill: #f5dd2a;
      }

      .cls-12 {
        fill: #ebb42b;
      }

      .cls-13 {
        fill: #a9843b;
      }

      .cls-14 {
        fill: #f5d441;
      }
    </style>
  </defs>
  <g id="组_1226" data-name="组 1226" transform="translate(-1101.267 -319.394)">
    <g id="组_1219" data-name="组 1219" transform="translate(1101.267 319.394)">
      <path id="路径_2252" data-name="路径 2252" class="cls-1" d="M1118.789,358.771l-15.42-17.542,21.908-2.724,7.242-18.7,13.141,15.88,23.428-14.957,6.084,24.2,32.111-9.609-7.495,22.841,22.744,10.591-17.053,7.843s2.8,5.812,4.72,7.105-12.012,5.17-12.012,5.17l-76.448-8.881-17.451-12Z" transform="translate(-1101.676 -319.809)"/>
      <path id="路径_2253" data-name="路径 2253" class="cls-2" d="M1163.433,364.222s2.7-17.568,8.911-23.229a2.377,2.377,0,0,1,2.666-.341l.057.029a2.379,2.379,0,0,1,.842,3.545C1172.294,349.1,1164.3,360.2,1163.433,364.222Z" transform="translate(-1101.676 -319.809)"/>
      <path id="路径_2254" data-name="路径 2254" class="cls-3" d="M1127.99,358.68s-2.6-16.89-8.566-22.332a2.286,2.286,0,0,0-2.563-.327l-.055.027a2.287,2.287,0,0,0-.809,3.408C1119.472,344.142,1127.155,354.814,1127.99,358.68Z" transform="translate(-1101.676 -319.809)"/>
      <g id="组_1214" data-name="组 1214" transform="translate(76.771 35.352)">
        <g id="组_1213" data-name="组 1213">
          <path id="路径_2255" data-name="路径 2255" class="cls-3" d="M1178.922,368.624a6.116,6.116,0,0,1,4.316-3.189c.008-.128.019-.259.031-.393.617-6.451,5.67-9.7,8.892-9.868a14.4,14.4,0,0,1,12.36,6.9.921.921,0,1,1-1.559.981,12.508,12.508,0,0,0-10.708-6.041c-2.66.136-6.592,3.014-7.138,8.074,3.064-.332,4.257.781,4.713,1.822a3.456,3.456,0,0,1-.773,3.734,3.689,3.689,0,0,1-3.709.061,4.232,4.232,0,0,1-2.054-3.367,4.135,4.135,0,0,0-2.695,2.051c-1,2.158.706,5.1.731,5.142a.921.921,0,0,1-1.584.941c-.085-.143-1.926-3.29-1.074-6.178A5.135,5.135,0,0,1,1178.922,368.624Zm9.195-1.029c-.323-.63-1.413-.86-3.02-.651a2.655,2.655,0,0,0,1.1,2.125,2.022,2.022,0,0,0,1.722.125,1.3,1.3,0,0,0,.235-.485A1.555,1.555,0,0,0,1188.117,367.6Z" transform="translate(-1178.446 -355.161)"/>
        </g>
      </g>
      <path id="路径_2256" data-name="路径 2256" class="cls-4" d="M1133.24,344.033l.989,2a.539.539,0,0,0,.405.295l2.21.321a.538.538,0,0,1,.3.918l-1.6,1.559a.541.541,0,0,0-.154.477l.377,2.2a.538.538,0,0,1-.781.568l-1.977-1.04a.541.541,0,0,0-.5,0l-1.977,1.04a.538.538,0,0,1-.781-.568l.377-2.2a.541.541,0,0,0-.154-.477l-1.6-1.559a.538.538,0,0,1,.3-.918l2.21-.321a.539.539,0,0,0,.405-.295l.989-2A.538.538,0,0,1,1133.24,344.033Z" transform="translate(-1101.676 -319.809)"/>
      <path id="路径_2257" data-name="路径 2257" class="cls-5" d="M1176.535,359.287l.2,1.8a.436.436,0,0,0,.227.337l1.6.858a.437.437,0,0,1-.027.783l-1.653.747a.437.437,0,0,0-.25.321l-.322,1.784a.437.437,0,0,1-.754.217l-1.22-1.341a.435.435,0,0,0-.383-.139l-1.8.245a.437.437,0,0,1-.438-.65l.9-1.575a.441.441,0,0,0,.014-.407l-.789-1.633a.437.437,0,0,1,.483-.618l1.776.367a.433.433,0,0,0,.391-.112l1.309-1.255A.437.437,0,0,1,1176.535,359.287Z" transform="translate(-1101.676 -319.809)"/>
      <path id="路径_2258" data-name="路径 2258" class="cls-6" d="M1206.431,366.58l.989,2a.539.539,0,0,0,.4.295l2.21.321a.538.538,0,0,1,.3.918l-1.6,1.559a.542.542,0,0,0-.155.477l.378,2.2a.539.539,0,0,1-.781.568l-1.977-1.04a.541.541,0,0,0-.5,0l-1.977,1.04a.539.539,0,0,1-.781-.568l.377-2.2a.539.539,0,0,0-.155-.477l-1.6-1.559a.538.538,0,0,1,.3-.918l2.211-.321a.539.539,0,0,0,.405-.295l.989-2A.538.538,0,0,1,1206.431,366.58Z" transform="translate(-1101.676 -319.809)"/>
      <path id="路径_2259" data-name="路径 2259" class="cls-7" d="M1182.574,338.9l2.115.717a.538.538,0,0,0,.495-.078l1.79-1.336a.538.538,0,0,1,.86.438l-.029,2.233a.538.538,0,0,0,.228.447l1.823,1.29a.537.537,0,0,1-.151.953l-2.132.663a.539.539,0,0,0-.355.355l-.663,2.132a.537.537,0,0,1-.953.151l-1.29-1.823a.538.538,0,0,0-.446-.228l-2.234.029a.538.538,0,0,1-.438-.86l1.336-1.79a.538.538,0,0,0,.078-.495l-.717-2.115A.538.538,0,0,1,1182.574,338.9Z" transform="translate(-1101.676 -319.809)"/>
      <g id="组_1216" data-name="组 1216" transform="translate(39.006 24.844)">
        <g id="组_1215" data-name="组 1215">
          <path id="路径_2260" data-name="路径 2260" class="cls-8" d="M1140.7,349.2a6.542,6.542,0,0,1,1.691-4.321.681.681,0,0,1,1.009.916c-.024.026-1.694,1.908-1.289,3.62a3.062,3.062,0,0,0,1.651,1.886,3.134,3.134,0,0,1,1.987-2.139,2.731,2.731,0,0,1,2.68.592,2.56,2.56,0,0,1,.009,2.822c-.485.687-1.514,1.318-3.686.625-.352,3.749,2.074,6.417,3.983,6.908a9.252,9.252,0,0,0,8.655-2.8.682.682,0,1,1,.986.942,10.654,10.654,0,0,1-9.98,3.177c-2.312-.6-5.5-3.7-4.99-8.468.011-.1.022-.2.035-.29a4.526,4.526,0,0,1-2.658-2.95A3.64,3.64,0,0,1,1140.7,349.2Zm6.789,1.824a.959.959,0,0,0-.1-.387,1.5,1.5,0,0,0-1.267-.163,1.962,1.962,0,0,0-1.112,1.378c1.134.389,1.958.383,2.286-.026A1.147,1.147,0,0,0,1147.485,351.021Z" transform="translate(-1140.682 -344.653)"/>
        </g>
      </g>
      <g id="组_1218" data-name="组 1218" transform="translate(9.938 39.693)">
        <g id="组_1217" data-name="组 1217">
          <path id="路径_2261" data-name="路径 2261" class="cls-5" d="M1128.741,369.945a4.524,4.524,0,0,1-3.929-.576c-.071.063-.144.126-.221.19-3.688,3.065-8.037,2.137-9.814.543a10.656,10.656,0,0,1-2.89-10.067.681.681,0,1,1,1.33.3,9.252,9.252,0,0,0,2.471,8.755c1.467,1.316,5.032,1.857,7.957-.515-1.782-1.424-1.827-2.63-1.524-3.414a2.558,2.558,0,0,1,2.354-1.557,2.73,2.73,0,0,1,1.978,1.9,3.133,3.133,0,0,1-.677,2.839,3.057,3.057,0,0,0,2.484.328c1.649-.612,2.289-3.046,2.3-3.08a.682.682,0,0,1,1.322.332,6.547,6.547,0,0,1-2.659,3.8A3.487,3.487,0,0,1,1128.741,369.945Zm-5.363-4.254c-.159.5.293,1.188,1.246,1.916a1.968,1.968,0,0,0,.53-1.689,1.5,1.5,0,0,0-.839-.964.955.955,0,0,0-.376.132A1.154,1.154,0,0,0,1123.378,365.691Z" transform="translate(-1111.613 -359.502)"/>
        </g>
      </g>
      <circle id="椭圆_298" data-name="椭圆 298" class="cls-9" cx="2.742" cy="2.742" r="2.742" transform="translate(53.878 15.961)"/>
      <circle id="椭圆_299" data-name="椭圆 299" class="cls-10" cx="2.181" cy="2.181" r="2.181" transform="translate(17.911 8.882)"/>
      <path id="路径_2262" data-name="路径 2262" class="cls-11" d="M1138.145,325.881l.646,10.068,1.489-7.7Z" transform="translate(-1101.676 -319.809)"/>
      <path id="路径_2263" data-name="路径 2263" class="cls-11" d="M1201.532,343.282l-10.292,8.747,10.411-5.371Z" transform="translate(-1101.676 -319.809)"/>
      <path id="路径_2264" data-name="路径 2264" class="cls-11" d="M1101.676,361.672l7.712,6.5-4.522-6.4Z" transform="translate(-1101.676 -319.809)"/>
    </g>
    <g id="组_1220" data-name="组 1220" transform="translate(1115.696 358.209)">
      <path id="路径_2265" data-name="路径 2265" class="cls-12" d="M1201.051,398.39c-3.82,34.15-38.68,36.81-42.3,36.81-4.04,0-46.91-3.31-42.3-49.88.32-3.12.67-3.2,1.43-6.716.18-.83.36-1.65.55-2.45l8.41-9.464,3.74-5.01,16.85,9.43,9.88-8.63,11.859,14.584.221,3.686,6.98-5.83,12.25-6.42,11.17,8.49h.01c.58,2.92.99,5.69,1.25,8.32A61.342,61.342,0,0,1,1201.051,398.39Z" transform="translate(-1116.105 -358.68)"/>
      <path id="路径_2266" data-name="路径 2266" class="cls-13" d="M1200.3,382.277c-3.86,34.09-37.929,36.783-41.549,36.783s-36.922-2.618-40.792-36.7c.32-3.12-.838-.238-.078-3.758.18-.83.36-1.65.55-2.45l8.41-12.464,3.74-5.01,16.85,9.43,9.88-8.63,18.31,10.192-4.6,8.03,5.35-5.782,12.25-6.42,11.17,8.49C1200.381,376.91,1200.04,379.647,1200.3,382.277Z" transform="translate(-1116.105 -358.68)"/>
      <path id="路径_2267" data-name="路径 2267" class="cls-14" d="M1201.051,385.31c-3.86,34.09-38.68,36.75-42.3,36.75s-38.43-2.66-42.3-36.74c.32-3.12.67-3.2,1.43-6.716.18-.83.36-1.65.55-2.45l8.24-6.22,3.74-5.01,16.85,9.43,9.88-8.63,16.68,10.24-4.6,8.03,6.98-5.83,12.25-6.42,11.17,8.49C1200.211,383.154,1200.791,382.68,1201.051,385.31Z" transform="translate(-1116.105 -358.68)"/>
    </g>
  </g>
</svg>
