<svg xmlns="http://www.w3.org/2000/svg" width="102.348" height="136.521" viewBox="0 0 102.348 136.521">
  <defs>
    <style>
      .cls-1 {
        fill: #ebb42b;
      }

      .cls-2 {
        fill: #f5d441;
      }

      .cls-3 {
        fill: #fff;
      }
    </style>
  </defs>
  <g id="组_1795" data-name="组 1795" transform="translate(-56.039 -837.07)">
    <path id="路径_3375" data-name="路径 3375" class="cls-1" d="M107.209,973.591c-4.852,0-56.291-3.978-50.754-59.863a107.491,107.491,0,0,1,1.913-11.954c14.551-67.282,48.841-64.691,48.841-64.691s34.29-2.591,48.848,64.691a107.165,107.165,0,0,1,1.913,11.947C163.513,969.613,112.062,973.591,107.209,973.591Z"/>
    <path id="路径_3376" data-name="路径 3376" class="cls-2" d="M157.97,913.721c-4.637,40.9-46.415,44.1-50.761,44.1s-46.117-3.193-50.754-44.09a107.491,107.491,0,0,1,1.913-11.954c14.551-67.282,48.841-64.691,48.841-64.691s34.29-2.591,48.848,64.691A107.165,107.165,0,0,1,157.97,913.721Z"/>
    <circle id="椭圆_487" data-name="椭圆 487" class="cls-3" cx="8.001" cy="8.001" r="8.001" transform="translate(84.526 856.933)"/>
    <circle id="椭圆_488" data-name="椭圆 488" class="cls-3" cx="3.788" cy="3.788" r="3.788" transform="translate(77.586 876.759)"/>
  </g>
</svg>
