<svg xmlns="http://www.w3.org/2000/svg" width="122.355" height="156.521" viewBox="0 0 122.355 156.521">
  <defs>
    <style>
      .cls-1 {
        fill: #fff;
      }

      .cls-2 {
        fill: #ebb42b;
      }

      .cls-3 {
        fill: #f5d441;
      }
    </style>
  </defs>
  <g id="组_1796" data-name="组 1796" transform="translate(-219.374 -827.07)">
    <path id="路径_3377" data-name="路径 3377" class="cls-1" d="M341.259,912.734a117.735,117.735,0,0,0-2.089-13.071c-14.95-69.093-51.034-72.593-58.115-72.593q-.279,0-.507.006t-.507-.006c-7.082,0-43.166,3.5-58.108,72.59a117.983,117.983,0,0,0-2.09,13.074c-2.062,20.816,2.681,37.756,14.1,50.359,18.356,20.264,46.328,20.5,46.609,20.5s28.26-.234,46.618-20.5C338.581,950.485,343.323,933.543,341.259,912.734Z"/>
    <path id="路径_3378" data-name="路径 3378" class="cls-2" d="M280.548,973.591c-4.853,0-56.291-3.978-50.754-59.863a107.028,107.028,0,0,1,1.913-11.954c14.551-67.282,48.841-64.691,48.841-64.691s34.29-2.591,48.847,64.691a106.929,106.929,0,0,1,1.913,11.947C336.851,969.613,285.4,973.591,280.548,973.591Z"/>
    <path id="路径_3379" data-name="路径 3379" class="cls-3" d="M331.308,913.721c-4.637,40.9-46.415,44.1-50.76,44.1s-46.117-3.193-50.754-44.09a107.028,107.028,0,0,1,1.913-11.954c14.551-67.282,48.841-64.691,48.841-64.691s34.29-2.591,48.847,64.691A106.929,106.929,0,0,1,331.308,913.721Z"/>
    <circle id="椭圆_489" data-name="椭圆 489" class="cls-1" cx="8.001" cy="8.001" r="8.001" transform="translate(257.864 856.933)"/>
    <circle id="椭圆_490" data-name="椭圆 490" class="cls-1" cx="3.788" cy="3.788" r="3.788" transform="translate(250.925 876.759)"/>
  </g>
</svg>
