<svg xmlns="http://www.w3.org/2000/svg" width="193.314" height="198.565" viewBox="0 0 193.314 198.565">
  <defs>
    <style>
      .cls-1 {
        fill: #ffb247;
      }

      .cls-2 {
        fill: #965353;
      }

      .cls-3 {
        fill: #fff;
      }

      .cls-4 {
        fill: #ff5c5c;
      }

      .cls-5 {
        fill: #ff949e;
      }

      .cls-6 {
        fill: #7f4545;
      }

      .cls-7 {
        fill: #ffde47;
      }

      .cls-8 {
        fill: #a85d5d;
      }
    </style>
  </defs>
  <g id="组_1784" data-name="组 1784" transform="translate(-807.739 -1003.587)">
    <g id="组_1783" data-name="组 1783">
      <path id="路径_3331" data-name="路径 3331" class="cls-1" d="M896.053,1070.194l-20.777,18.665a4.693,4.693,0,0,0-.024,6.961l34.864,31.779a4.689,4.689,0,0,0,6.3.027l13.967-12.554a4.7,4.7,0,0,0,.648-6.269l-27.882-38.052c-.094-.128-.19-.25-.293-.367l0-.005a4.7,4.7,0,0,0-6.628-.35c-.06.054-.117.108-.172.165Z"/>
      <path id="路径_3332" data-name="路径 3332" class="cls-1" d="M930.737,1108.444h0l45.045,50.089a4.688,4.688,0,0,1-.354,6.628l-13.967,12.554a4.7,4.7,0,0,1-6.63-.355l-45.049-50.09a4.692,4.692,0,0,1,.355-6.627l13.795-12.4c.055-.052.112-.1.172-.157A4.69,4.69,0,0,1,930.737,1108.444Z"/>
      <path id="路径_3333" data-name="路径 3333" class="cls-2" d="M945.854,1167.377l-36.063-40.1,20.953-18.826,36.063,40.1Z"/>
      <path id="路径_3334" data-name="路径 3334" class="cls-3" d="M912.833,1102.578a4.693,4.693,0,1,1-6.627-.355A4.692,4.692,0,0,1,912.833,1102.578Z"/>
      <path id="路径_3335" data-name="路径 3335" class="cls-4" d="M987.3,1155.254l12.551,13.965a4.693,4.693,0,0,1,.874,4.868l-7.777,19.613a4.683,4.683,0,0,1-3.127,2.794l-20.157,5.493a4.7,4.7,0,0,1-4.726-1.39l-12.548-13.972a4.688,4.688,0,0,1,.354-6.628l27.937-25.1a4.676,4.676,0,0,1,6.619.356Z"/>
      <path id="路径_3336" data-name="路径 3336" class="cls-5" d="M963.211,1170.585l23.932,26.642,2.672-.733a4.678,4.678,0,0,0,3.127-2.794l1.119-2.82-23.868-26.568Z"/>
      <path id="路径_3337" data-name="路径 3337" class="cls-6" d="M925.291,1144.521l8.873,9.879,2.128-39.776-5.552-6.179-3.7,3.324Zm31.883-6.649L948.3,1128l-2.447,39.381,8.408-7.394Z"/>
      <g id="组_1782" data-name="组 1782">
        <path id="路径_3338" data-name="路径 3338" class="cls-7" d="M836.458,1070.243l-4.527,11.482a5.539,5.539,0,0,0,1.032,5.717l29.523,32.86a5.533,5.533,0,0,0,5.571,1.635l11.906-3.275a5.5,5.5,0,0,0,2.224-1.219l41.073-36.905a5.5,5.5,0,0,0,1.448-2.085l4.523-11.488a5.509,5.509,0,0,0-1.028-5.71L898.68,1028.4a5.511,5.511,0,0,0-5.572-1.635l-11.9,3.275a5.48,5.48,0,0,0-2.224,1.218l-41.073,36.9A5.506,5.506,0,0,0,836.458,1070.243Z"/>
        <path id="路径_3339" data-name="路径 3339" class="cls-3" d="M897.014,1059.587a5.518,5.518,0,0,1-.416,7.795l-24.648,22.145a5.52,5.52,0,1,1-7.379-8.212l24.642-22.146A5.52,5.52,0,0,1,897.014,1059.587Z"/>
        <path id="路径_3340" data-name="路径 3340" class="cls-4" d="M878.081,1121.136l-44.284-49.3a5.537,5.537,0,0,0-7.795-.417l-16.432,14.767a5.519,5.519,0,0,0-.417,7.795l44.287,49.286a5.514,5.514,0,0,0,7.795.417l16.429-14.757a5.516,5.516,0,0,0,.417-7.8Zm5-93.575,44.284,49.285a5.523,5.523,0,0,0,7.8.417l16.428-14.757a5.52,5.52,0,0,0,.417-7.8l-44.284-49.295a5.525,5.525,0,0,0-7.795-.416L883.5,1019.765a5.523,5.523,0,0,0-.414,7.8Z"/>
        <path id="路径_3341" data-name="路径 3341" class="cls-5" d="M859.631,1100.6l-7.385-8.219-24.64,22.142,7.378,8.216Zm49.287-44.286-7.38-8.214,24.644-22.142,7.38,8.214Z"/>
      </g>
      <path id="路径_3342" data-name="路径 3342" class="cls-8" d="M967.243,1142.011h0a4.691,4.691,0,0,1-.351,6.628l-20.955,18.827a4.695,4.695,0,0,1-6.273-6.987l20.949-18.819A4.692,4.692,0,0,1,967.243,1142.011Z"/>
      <path id="路径_3343" data-name="路径 3343" class="cls-8" d="M934.23,1105.313a4.693,4.693,0,0,1-.354,6.628l-20.954,18.819a4.693,4.693,0,1,1-6.273-6.982l20.954-18.819A4.687,4.687,0,0,1,934.23,1105.313Z"/>
    </g>
  </g>
</svg>
