<svg xmlns="http://www.w3.org/2000/svg" width="98.553" height="59.604" viewBox="0 0 98.553 59.604">
  <defs>
    <style>
      .cls-1 {
        fill: #52351d;
      }

      .cls-2 {
        fill: #fff;
      }

      .cls-3 {
        fill: #f23e65;
      }

      .cls-4 {
        fill: #fff241;
      }
    </style>
  </defs>
  <g id="组_23" data-name="组 23" transform="translate(-1030.787 -299.088)">
    <path id="路径_74" data-name="路径 74" class="cls-1" d="M1117.9,358.692h-81.843l6.59-14.75h71.178Z"/>
    <path id="路径_75" data-name="路径 75" class="cls-2" d="M1042.651,343.942l-11.863-20.555,15.83-1.28,3.064-21.03,16.062,9.164,26.658-11.152,6.557,14.082,17.872-4.34v18.638l12.511,1.827-15.512,14.647-71.7,1.165"/>
    <path id="路径_76" data-name="路径 76" class="cls-3" d="M1052.647,344.157l-8.289-14.362,11.06-.894,2.141-14.693,11.222,6.4,18.625-7.792,4.581,9.839,12.487-3.033v13.022l8.741,1.276-10.838,10.233-50.094.814"/>
    <path id="路径_77" data-name="路径 77" class="cls-4" d="M1068.086,344.638l-3.393-5.879,4.528-.366.876-6.015,4.594,2.621,7.625-3.19,1.875,4.028,5.112-1.241v5.331l3.578.523-4.437,4.189-20.508.333"/>
  </g>
</svg>
