<svg xmlns="http://www.w3.org/2000/svg" width="173.556" height="177.74" viewBox="0 0 173.556 177.74">
  <defs>
    <style>
      .cls-1 {
        fill: #96a4a9;
      }

      .cls-2 {
        fill: #e6954f;
      }

      .cls-3 {
        fill: #727c7f;
      }

      .cls-4 {
        fill: #fad424;
      }

      .cls-5 {
        fill: #606b6e;
      }
    </style>
  </defs>
  <g id="组_1804" data-name="组 1804" transform="translate(-539.511 -1062.048)">
    <path id="路径_3390" data-name="路径 3390" class="cls-1" d="M622.026,1163.88l-.057.059a5.831,5.831,0,0,0,.2,8.244l18.144,17.272a3.779,3.779,0,0,1,.132,5.341h0a3.779,3.779,0,0,1-5.341.132l-1.071-1.02-31.513,33.106c-12.4,13.028-37.317,18.057-50.344,5.656h0l-4.64-4.416h0c-12.9-12.275-9.1-37.2,3.18-50.1l31.627-33.225-.506-.481a3.9,3.9,0,0,1-.136-5.515h0a3.9,3.9,0,0,1,5.516-.136l17.817,16.96a5.831,5.831,0,0,0,8.244-.2h0l16.252-17.073,8.864,8.437Z"/>
    <path id="路径_3391" data-name="路径 3391" class="cls-2" d="M638.4,1146.919l31.07-31.033-10.887-10.363-29.048,32.958Z"/>
    <path id="路径_3392" data-name="路径 3392" class="cls-3" d="M663.385,1114.339c14.7,12.505,29.3,7.048,37.287.775l2.843,2.707a2.588,2.588,0,0,0,3.658-.09l5.181-5.444a2.586,2.586,0,0,0-.09-3.657l-48.186-45.869a2.588,2.588,0,0,0-3.658.091l-5.182,5.443a2.588,2.588,0,0,0,.091,3.658l2.2,2.092a32.243,32.243,0,0,0-5.467,19.1C652.483,1101.177,656.293,1108.306,663.385,1114.339Zm-2.918-21.632a23.461,23.461,0,0,1,3.3-12.722l30.728,29.25c-4.957,3.575-14.721,7.993-25.655-1.308C663.58,1103.452,660.763,1098.332,660.467,1092.707Z"/>
    <g id="组_1803" data-name="组 1803">
      <circle id="椭圆_497" data-name="椭圆 497" class="cls-1" cx="0.986" cy="0.986" r="0.986" transform="translate(709.406 1109.433)"/>
      <circle id="椭圆_498" data-name="椭圆 498" class="cls-1" cx="0.986" cy="0.986" r="0.986" transform="translate(704.309 1114.787)"/>
      <circle id="椭圆_499" data-name="椭圆 499" class="cls-1" cx="0.986" cy="0.986" r="0.986" transform="translate(661.219 1063.565)"/>
      <circle id="椭圆_500" data-name="椭圆 500" class="cls-1" cx="0.986" cy="0.986" r="0.986" transform="translate(656.122 1068.919)"/>
    </g>
    <circle id="椭圆_501" data-name="椭圆 501" class="cls-4" cx="1.093" cy="1.093" r="1.093" transform="translate(628.761 1146.234)"/>
    <circle id="椭圆_502" data-name="椭圆 502" class="cls-4" cx="1.093" cy="1.093" r="1.093" transform="translate(623.579 1151.677)"/>
    <path id="路径_3393" data-name="路径 3393" class="cls-5" d="M638.4,1146.919l-8.864-8.437-54.071,60.687a3.6,3.6,0,0,0,.206,5h0a3.6,3.6,0,0,0,5.017-.051Z"/>
  </g>
</svg>
