<svg xmlns="http://www.w3.org/2000/svg" width="236.938" height="58.259" viewBox="0 0 236.938 58.259">
  <defs>
    <style>
      .cls-1 {
        fill: #c3d0e0;
      }

      .cls-2 {
        fill: #e2edf9;
      }

      .cls-3 {
        fill: #acbccd;
      }

      .cls-4 {
        fill: #3d3d3d;
        font-size: 35px;
        font-family: TimesNewRomanPS-BoldMT, Times New Roman;
        font-weight: 700;
      }
    </style>
  </defs>
  <g id="组_4894" data-name="组 4894" transform="translate(-325.981 -313.393)">
    <g id="组_12581" data-name="组 12581" transform="translate(0.455 5)">
      <path id="路径_26451" data-name="路径 26451" class="cls-1" d="M3297.681-11092s-6.9,1.386-7.621,3.71-3.272,3.843-3.273,6.412-1.313,5.383-2.387,7.341,2.028,5.7,0,11.079-3.977,9.96-2.086,13.386.217,5.189,2.086,8,1.453,4.678,8.466,4.308,8.486-.341,21.62,0,5.037,4.111,17.25,1.319,18.565-.025,20.8-5.627.88-7.485,2.527-21.389,4.493-13.712,0-20.377,4.28-10.45-15.561-9.763S3297.681-11092,3297.681-11092Z" transform="translate(-2956.019 11402.07)"/>
      <path id="路径_26452" data-name="路径 26452" class="cls-2" d="M3298.249-11092s13.521,1.944,27.366,2.836c1.565.1,14.819,7.172,19.115,5.329,5.556-.006-12.186-5.429-10.909-5.514a36.865,36.865,0,0,1,9.69.185c8.389,1.759,10,8.854,11.53,9.85,1.221.794-2.578,10.842-2.189,15.856.914,11.791,1.357,23.4,2.189,21.389,2.318-5.6.911-7.485,2.616-21.389s4.652-13.712,0-20.377,4.43-10.45-16.109-9.763S3298.249-11092,3298.249-11092Z" transform="translate(-2958.694 11402.07)"/>
      <path id="路径_26453" data-name="路径 26453" class="cls-3" d="M3290.024-11088.29c-.713,2.324-3.258,3.843-3.259,6.412s-1.308,5.383-2.378,7.341,2.02,5.7,0,11.079-3.96,9.96-2.077,13.386.216,5.189,2.077,8,1.448,4.678,8.431,4.308,8.45-.341,21.529,0,5.016,4.111,17.178,1.319,16.974-.06,17.513-3.4c.662-1.664-4.21.427-15.846.382-7.294-.029-16.594-4.208-24.8-5.308-2.031-.271-4.21.473-6.621,1.44-.443.178-.889.363-1.616.66-.362.148-.73.3-1.383.543-1.862.708-4.128,1.271-5.951.053-3.532-2.362-6.637-8.431-6.053-12.011-.277-4.448,3.693-15.278,3.259-20.457A73.383,73.383,0,0,1,3290.024-11088.29Z" transform="translate(-2956.019 11402.07)"/>
    </g>
    <g id="组_12582" data-name="组 12582" transform="translate(80.455 5)">
      <path id="路径_26451-2" data-name="路径 26451" class="cls-1" d="M3297.681-11092s-6.9,1.386-7.621,3.71-3.272,3.843-3.273,6.412-1.313,5.383-2.387,7.341,2.028,5.7,0,11.079-3.977,9.96-2.086,13.386.217,5.189,2.086,8,1.453,4.678,8.466,4.308,8.486-.341,21.62,0,5.037,4.111,17.25,1.319,18.565-.025,20.8-5.627.88-7.485,2.527-21.389,4.493-13.712,0-20.377,4.28-10.45-15.561-9.763S3297.681-11092,3297.681-11092Z" transform="translate(-2956.019 11402.07)"/>
      <path id="路径_26452-2" data-name="路径 26452" class="cls-2" d="M3298.249-11092s13.521,1.944,27.366,2.836c1.565.1,14.819,7.172,19.115,5.329,5.556-.006-12.186-5.429-10.909-5.514a36.865,36.865,0,0,1,9.69.185c8.389,1.759,10,8.854,11.53,9.85,1.221.794-2.578,10.842-2.189,15.856.914,11.791,1.357,23.4,2.189,21.389,2.318-5.6.911-7.485,2.616-21.389s4.652-13.712,0-20.377,4.43-10.45-16.109-9.763S3298.249-11092,3298.249-11092Z" transform="translate(-2958.694 11402.07)"/>
      <path id="路径_26453-2" data-name="路径 26453" class="cls-3" d="M3290.024-11088.29c-.713,2.324-3.258,3.843-3.259,6.412s-1.308,5.383-2.378,7.341,2.02,5.7,0,11.079-3.96,9.96-2.077,13.386.216,5.189,2.077,8,1.448,4.678,8.431,4.308,8.45-.341,21.529,0,5.016,4.111,17.178,1.319,16.974-.06,17.513-3.4c.662-1.664-4.21.427-15.846.382-7.294-.029-16.594-4.208-24.8-5.308-2.031-.271-4.21.473-6.621,1.44-.443.178-.889.363-1.616.66-.362.148-.73.3-1.383.543-1.862.708-4.128,1.271-5.951.053-3.532-2.362-6.637-8.431-6.053-12.011-.277-4.448,3.693-15.278,3.259-20.457A73.383,73.383,0,0,1,3290.024-11088.29Z" transform="translate(-2956.019 11402.07)"/>
    </g>
    <g id="组_12583" data-name="组 12583" transform="translate(161.455 5)">
      <path id="路径_26451-3" data-name="路径 26451" class="cls-1" d="M3297.681-11092s-6.9,1.386-7.621,3.71-3.272,3.843-3.273,6.412-1.313,5.383-2.387,7.341,2.028,5.7,0,11.079-3.977,9.96-2.086,13.386.217,5.189,2.086,8,1.453,4.678,8.466,4.308,8.486-.341,21.62,0,5.037,4.111,17.25,1.319,18.565-.025,20.8-5.627.88-7.485,2.527-21.389,4.493-13.712,0-20.377,4.28-10.45-15.561-9.763S3297.681-11092,3297.681-11092Z" transform="translate(-2956.019 11402.07)"/>
      <path id="路径_26452-3" data-name="路径 26452" class="cls-2" d="M3298.249-11092s13.521,1.944,27.366,2.836c1.565.1,14.819,7.172,19.115,5.329,5.556-.006-12.186-5.429-10.909-5.514a36.865,36.865,0,0,1,9.69.185c8.389,1.759,10,8.854,11.53,9.85,1.221.794-2.578,10.842-2.189,15.856.914,11.791,1.357,23.4,2.189,21.389,2.318-5.6.911-7.485,2.616-21.389s4.652-13.712,0-20.377,4.43-10.45-16.109-9.763S3298.249-11092,3298.249-11092Z" transform="translate(-2958.694 11402.07)"/>
      <path id="路径_26453-3" data-name="路径 26453" class="cls-3" d="M3290.024-11088.29c-.713,2.324-3.258,3.843-3.259,6.412s-1.308,5.383-2.378,7.341,2.02,5.7,0,11.079-3.96,9.96-2.077,13.386.216,5.189,2.077,8,1.448,4.678,8.431,4.308,8.45-.341,21.529,0,5.016,4.111,17.178,1.319,16.974-.06,17.513-3.4c.662-1.664-4.21.427-15.846.382-7.294-.029-16.594-4.208-24.8-5.308-2.031-.271-4.21.473-6.621,1.44-.443.178-.889.363-1.616.66-.362.148-.73.3-1.383.543-1.862.708-4.128,1.271-5.951.053-3.532-2.362-6.637-8.431-6.053-12.011-.277-4.448,3.693-15.278,3.259-20.457A73.383,73.383,0,0,1,3290.024-11088.29Z" transform="translate(-2956.019 11402.07)"/>
    </g>
    <text id="_5" data-name="5" class="cls-4" transform="translate(356.716 353.876)"><tspan x="0" y="0">5</tspan></text>
    <text id="_7" data-name="7" class="cls-4" transform="translate(515.8 353.876)"><tspan x="0" y="0">7</tspan></text>
  </g>
</svg>
