<svg xmlns="http://www.w3.org/2000/svg" width="711.087" height="112.244" viewBox="0 0 711.087 112.244">
  <defs>
    <style>
      .cls-1, .cls-6 {
        fill: #c45a49;
      }

      .cls-1 {
        stroke-linejoin: round;
      }

      .cls-2, .cls-8 {
        fill: #fff;
      }

      .cls-3 {
        fill: #f3a574;
      }

      .cls-4 {
        fill: #e3856b;
      }

      .cls-5 {
        fill: #cd6f54;
      }

      .cls-7, .cls-8 {
        stroke: none;
      }
    </style>
  </defs>
  <g id="组_2241" data-name="组 2241" transform="translate(-1694.212 -917.987)">
    <g id="路径_4490" data-name="路径 4490" class="cls-1">
      <path class="cls-7" d="M 2302.284912109375 1025.248291015625 L 2300.68603515625 1025.231201171875 L 2240.961669921875 1024.590576171875 L 2181.245361328125 1023.950012207031 L 2121.56689453125 1023.309814453125 L 2061.88916015625 1022.669738769531 L 2056.8896484375 1022.616088867188 L 2007.08349609375 1022.081726074219 L 2007.08349609375 1022.081848144531 L 2002.083740234375 1022.028198242188 L 1942.359375 1021.387573242188 L 1882.860473632813 1020.749267578125 L 1823.371459960938 1020.111206054688 L 1763.882690429688 1019.473022460938 L 1704.158325195313 1018.832458496094 L 1699.158569335938 1018.77880859375 L 1699.212158203125 1013.779113769531 L 1699.491333007813 987.7691040039063 L 1699.525268554688 984.6008911132813 L 1702.404663085938 983.27880859375 L 1832.262939453125 923.6532592773438 L 1833.246459960938 923.20166015625 L 1834.328735351563 923.1972045898438 L 1885.35546875 922.9873046875 L 1885.406860351563 923.2031860351563 L 1885.418579101563 923.2033081054688 L 1929.173583984375 923.5758666992188 L 1988.343994140625 923.92724609375 L 1988.869750976563 923.6270751953125 L 1990.226318359375 923.6422729492188 L 2043.770751953125 924.24267578125 L 2103.243896484375 924.5599365234375 L 2165.105712890625 924.6369018554688 L 2165.125732421875 924.6369018554688 L 2165.145751953125 924.6370849609375 L 2226.093994140625 925.1975708007813 L 2283.77880859375 925.4970092773438 L 2341.7529296875 925.7979125976563 L 2395.324951171875 926.0759887695313 L 2400.299072265625 926.101806640625 L 2400.299072265625 931.075927734375 L 2400.299072265625 954.3883056640625 L 2400.299072265625 956.9994506835938 L 2398.15625 958.4915771484375 L 2303.596923828125 1024.334716796875 L 2302.284912109375 1025.248291015625 Z"/>
      <path class="cls-8" d="M 1885.3759765625 927.9873046875 L 1834.34912109375 928.1972045898438 L 1704.490966796875 987.82275390625 L 1704.2119140625 1013.832702636719 L 1763.936279296875 1014.473388671875 L 1823.425048828125 1015.111450195313 L 1882.9140625 1015.749572753906 L 1942.4130859375 1016.387756347656 L 2002.13720703125 1017.028503417969 L 2002.4072265625 991.8800048828125 L 2002.447998046875 991.8547973632813 L 2002.177734375 1017.028869628906 L 2061.90234375 1017.669494628906 L 2062.171875 992.5210571289063 L 2062.212890625 992.4961547851563 L 2061.94287109375 1017.669982910156 L 2121.62060546875 1018.31005859375 L 2181.299072265625 1018.950256347656 L 2241.01513671875 1019.590759277344 L 2300.73974609375 1020.2314453125 L 2395.299072265625 954.3882446289063 L 2395.299072265625 931.0759887695313 L 2341.72705078125 930.7978515625 L 2283.752685546875 930.4968872070313 L 2226.048095703125 930.1973876953125 L 2165.099609375 929.6369018554688 L 2103.2333984375 929.5598754882813 L 2043.71875 929.2424926757813 L 1990.170166015625 928.6419677734375 L 1989.65673828125 928.93505859375 L 1929.13671875 928.5757446289063 L 1885.3759765625 928.2030639648438 L 1764.21533203125 988.46337890625 L 1885.3759765625 927.9873046875 M 1885.37646484375 917.9873046875 C 1886.11279296875 917.9873046875 1886.833984375 918.0677490234375 1887.5302734375 918.2210693359375 L 1929.221923828125 918.576171875 L 1988.078125 918.925537109375 C 1988.8134765625 918.74755859375 1989.545654296875 918.6422119140625 1990.21240234375 918.6422119140625 C 1990.23583984375 918.6422119140625 1990.259033203125 918.642333984375 1990.2822265625 918.642578125 L 2043.830810546875 919.2430419921875 L 2103.28662109375 919.5599365234375 L 2165.11181640625 919.6368408203125 L 2226.14013671875 920.19775390625 L 2283.8046875 920.4969482421875 L 2341.77880859375 920.7979736328125 L 2395.35107421875 921.0760498046875 C 2400.853515625 921.1046142578125 2405.299072265625 925.5733642578125 2405.299072265625 931.0759887695313 L 2405.299072265625 954.3882446289063 C 2405.299072265625 957.66015625 2403.698486328125 960.72509765625 2401.013427734375 962.5947875976563 L 2306.4541015625 1028.43798828125 C 2304.776611328125 1029.60595703125 2302.7822265625 1030.2314453125 2300.73974609375 1030.2314453125 C 2300.7041015625 1030.2314453125 2300.668212890625 1030.231201171875 2300.63232421875 1030.23095703125 L 2240.90771484375 1029.590087890625 L 2181.19189453125 1028.94970703125 L 2121.51318359375 1028.309448242188 L 2061.83544921875 1027.66943359375 C 2061.8232421875 1027.669189453125 2061.81103515625 1027.669067382813 2061.79833984375 1027.6689453125 C 2061.79736328125 1027.6689453125 2061.79638671875 1027.6689453125 2061.794921875 1027.6689453125 L 2002.070556640625 1027.0283203125 C 2002.0673828125 1027.0283203125 2002.064208984375 1027.028198242188 2002.061279296875 1027.028076171875 C 2002.05078125 1027.028076171875 2002.040283203125 1027.028076171875 2002.02978515625 1027.02783203125 L 1942.3056640625 1026.38720703125 L 1882.806884765625 1025.7490234375 L 1823.31787109375 1025.11083984375 L 1763.828857421875 1024.472778320313 L 1704.1044921875 1023.832092285156 C 1701.45263671875 1023.803649902344 1698.92041015625 1022.722900390625 1697.0654296875 1020.827453613281 C 1695.210205078125 1018.932067871094 1694.18408203125 1016.377380371094 1694.21240234375 1013.725402832031 L 1694.491455078125 987.7154541015625 C 1694.532958984375 983.8468627929688 1696.802490234375 980.349365234375 1700.318115234375 978.7349853515625 L 1830.17626953125 919.109375 C 1831.47265625 918.51416015625 1832.881591796875 918.203125 1834.307861328125 918.197265625 L 1885.3349609375 917.9874267578125 C 1885.348388671875 917.9873046875 1885.36279296875 917.9873046875 1885.37646484375 917.9873046875 Z"/>
    </g>
    <g id="组_2229" data-name="组 2229">
      <path id="路径_4491" data-name="路径 4491" class="cls-2" d="M1885.376,927.987v.216l43.761.373,60.52.359.513-.293,53.549.6,59.514.318,61.866.077,60.949.56,57.7.3,57.974.3,53.572.278v23.312l-94.559,65.844-59.725-.641-59.716-.641-59.679-.64-59.677-.64.27-25.174-.041.025-.27,25.148-59.724-.64.27-25.174-.041.025-.27,25.149-59.724-.641h0l-59.5-.638-59.489-.638-59.489-.639-59.724-.64.279-26.01L1834.349,928.2l51.027-.21"/>
    </g>
    <g id="组_2230" data-name="组 2230">
      <path id="路径_4492" data-name="路径 4492" class="cls-3" d="M1834.349,928.2l51.027-.21-121.161,60.476-.279,26.01-59.724-.641.279-26.01Z"/>
    </g>
    <g id="组_2231" data-name="组 2231">
      <path id="路径_4493" data-name="路径 4493" class="cls-4" d="M1885.376,928.2l43.761.373-105.207,61.39-.27,25.148-59.724-.641.279-26.01Z"/>
    </g>
    <g id="组_2232" data-name="组 2232">
      <path id="路径_4494" data-name="路径 4494" class="cls-3" d="M1929.137,928.576l61.033.362L1883.419,990.6l-.27,25.148-59.724-.641.279-26.01Z"/>
    </g>
    <g id="组_2233" data-name="组 2233">
      <path id="路径_4495" data-name="路径 4495" class="cls-4" d="M1990.17,928.642l53.549.6-100.811,62-.27,25.148-59.724-.641.279-26.01Z"/>
    </g>
    <g id="组_2234" data-name="组 2234">
      <path id="路径_4496" data-name="路径 4496" class="cls-3" d="M2043.719,929.242l59.515.317-100.826,62.32-.27,25.148-59.724-.641.279-26.01Z"/>
    </g>
    <g id="组_2235" data-name="组 2235">
      <path id="路径_4497" data-name="路径 4497" class="cls-4" d="M2103.233,929.56l61.866.077-102.928,62.884-.27,25.148-59.724-.641.279-26.01Z"/>
    </g>
    <g id="组_2236" data-name="组 2236">
      <path id="路径_4498" data-name="路径 4498" class="cls-3" d="M2165.1,929.637l60.948.56-104.111,62.965-.27,25.148-59.724-.641.279-26.01Z"/>
    </g>
    <g id="组_2237" data-name="组 2237">
      <path id="路径_4499" data-name="路径 4499" class="cls-4" d="M2226.048,930.2l57.7.3L2181.615,993.8l-.27,25.148-59.724-.641.279-26.01Z"/>
    </g>
    <g id="组_2238" data-name="组 2238">
      <path id="路径_4500" data-name="路径 4500" class="cls-3" d="M2283.753,930.5l57.974.3-100.434,63.645-.27,25.148-59.724-.641.279-26.01Z"/>
    </g>
    <g id="组_2239" data-name="组 2239">
      <path id="路径_4501" data-name="路径 4501" class="cls-4" d="M2341.727,930.8l53.572.278-94.29,64.007-.27,25.148-59.724-.641.279-26.01Z"/>
    </g>
    <g id="组_2240" data-name="组 2240">
      <path id="路径_4502" data-name="路径 4502" class="cls-5" d="M1704.491,987.823l-.279,26.01,596.528,6.4.27-25.148Z"/>
    </g>
    <path id="路径_4503" data-name="路径 4503" class="cls-6" d="M1764.215,988.463l-.279,26.01,59.724.641.27-25.148Z"/>
    <path id="路径_4504" data-name="路径 4504" class="cls-6" d="M1883.193,989.74l-.043,26.013,59.489.638.054-26.012Z"/>
    <path id="路径_4505" data-name="路径 4505" class="cls-6" d="M2002.407,991.88v25.148l59.5.641V992.521Z"/>
    <path id="路径_4506" data-name="路径 4506" class="cls-6" d="M2121.937,993.162v25.148l59.408.64.27-25.148Z"/>
    <path id="路径_4507" data-name="路径 4507" class="cls-6" d="M2241.293,994.443l-.27,25.148,59.716.641,94.56-65.843V931.076l-94.29,64.007Z"/>
  </g>
</svg>
