<svg xmlns="http://www.w3.org/2000/svg" width="738.507" height="92.885" viewBox="0 0 738.507 92.885">
  <defs>
    <style>
      .cls-1 {
        fill: #fff;
      }

      .cls-2 {
        fill: #f3a574;
      }

      .cls-3 {
        fill: #e3856b;
      }

      .cls-4 {
        fill: #cd6f54;
      }

      .cls-5 {
        fill: #c45a49;
      }
    </style>
  </defs>
  <g id="组_2304" data-name="组 2304" transform="translate(-895.822 -1261.594)">
    <g id="组_2290" data-name="组 2290">
      <path id="路径_4563" data-name="路径 4563" class="cls-1" d="M1076.986,1261.594l-121.16,60.476,121.16-60.261,43.761.373,60.52.359.513-.293,53.549.6,59.514.317,61.867.077,60.948.561,57.705.3,57.974.3,53.572.278,47.42.238v23.312l-82.255,66.246-59.724-.64-59.725-.641-59.716-.64-59.678-.641-59.678-.64.27-25.174-.041.025-.27,25.149-59.724-.641.27-25.174-.041.025-.269,25.149-59.5-.639-59.725-.64-59.489-.638-59.488-.638-59.725-.641.279-26.01,131.627-59.6,49.258-.231"/>
    </g>
    <g id="组_2291" data-name="组 2291">
      <path id="路径_4564" data-name="路径 4564" class="cls-2" d="M1027.728,1261.825l49.258-.232L955.826,1322.07l-.279,26.01-59.724-.641.279-26.01Z"/>
    </g>
    <g id="组_2292" data-name="组 2292">
      <path id="路径_4565" data-name="路径 4565" class="cls-3" d="M1076.986,1261.809l43.761.373-105.206,61.39-.27,25.148-59.724-.641.279-26.01Z"/>
    </g>
    <g id="组_2293" data-name="组 2293">
      <path id="路径_4566" data-name="路径 4566" class="cls-2" d="M1120.747,1262.182l61.033.362-106.751,61.666-.27,25.148-59.724-.641.279-26.01Z"/>
    </g>
    <g id="组_2294" data-name="组 2294">
      <path id="路径_4567" data-name="路径 4567" class="cls-3" d="M1181.78,1262.248l53.549.6-100.811,62-.27,25.148-59.724-.641.279-26.01Z"/>
    </g>
    <g id="组_2295" data-name="组 2295">
      <path id="路径_4568" data-name="路径 4568" class="cls-2" d="M1235.329,1262.849l59.515.317-100.826,62.32-.27,25.148-59.724-.641.279-26.01Z"/>
    </g>
    <g id="组_2296" data-name="组 2296">
      <path id="路径_4569" data-name="路径 4569" class="cls-3" d="M1294.844,1263.166l61.866.077-102.927,62.884-.27,25.148-59.724-.641.279-26.01Z"/>
    </g>
    <g id="组_2297" data-name="组 2297">
      <path id="路径_4570" data-name="路径 4570" class="cls-2" d="M1356.71,1263.243l60.949.561-104.111,62.965-.27,25.148-59.724-.641.279-26.01Z"/>
    </g>
    <g id="组_2298" data-name="组 2298">
      <path id="路径_4571" data-name="路径 4571" class="cls-3" d="M1417.658,1263.8l57.7.3-102.138,63.305-.27,25.148-59.724-.641.279-26.01Z"/>
    </g>
    <g id="组_2299" data-name="组 2299">
      <path id="路径_4572" data-name="路径 4572" class="cls-2" d="M1475.363,1264.1l57.974.3L1432.9,1328.049l-.27,25.148-59.724-.641.279-26.01Z"/>
    </g>
    <g id="组_2300" data-name="组 2300">
      <path id="路径_4573" data-name="路径 4573" class="cls-3" d="M1533.337,1264.4l53.572.278-94.29,64.007-.27,25.148-59.724-.641.275-25.61Z"/>
    </g>
    <g id="组_2301" data-name="组 2301">
      <path id="路径_4574" data-name="路径 4574" class="cls-2" d="M1586.909,1264.682l47.42.238-81.994,65.2-.26,24.354-59.724-.641.27-25.216Z"/>
    </g>
    <g id="组_2302" data-name="组 2302">
      <path id="路径_4575" data-name="路径 4575" class="cls-4" d="M1492.619,1328.689l-.27,25.148,59.724.641,82.255-66.246V1264.92l-81.82,64.039Z"/>
    </g>
    <g id="组_2303" data-name="组 2303">
      <path id="路径_4576" data-name="路径 4576" class="cls-4" d="M896.1,1321.429l-.279,26.01,656.252,7.039.434-25.52Z"/>
    </g>
    <path id="路径_4577" data-name="路径 4577" class="cls-5" d="M955.826,1322.07l-.279,26.01,59.724.641.27-25.148Z"/>
    <path id="路径_4578" data-name="路径 4578" class="cls-5" d="M1074.8,1323.346l-.043,26.012,59.489.638.054-26.012Z"/>
    <path id="路径_4579" data-name="路径 4579" class="cls-5" d="M1194.017,1325.486v25.148l59.495.641v-25.148Z"/>
    <path id="路径_4580" data-name="路径 4580" class="cls-5" d="M1313.547,1326.768v25.148l59.408.64.27-25.148Z"/>
    <path id="路径_4581" data-name="路径 4581" class="cls-5" d="M1432.625,1327.587l0,25.61,59.447.641.27-25.148Z"/>
  </g>
</svg>
