<svg xmlns="http://www.w3.org/2000/svg" width="691.087" height="92.245" viewBox="0 0 691.087 92.245">
  <defs>
    <style>
      .cls-1 {
        fill: #fff;
      }

      .cls-2 {
        fill: #f3a574;
      }

      .cls-3 {
        fill: #e3856b;
      }

      .cls-4 {
        fill: #cd6f54;
      }

      .cls-5 {
        fill: #c45a49;
      }
    </style>
  </defs>
  <g id="组_2289" data-name="组 2289" transform="translate(-895.822 -927.987)">
    <g id="组_2277" data-name="组 2277">
      <path id="路径_4546" data-name="路径 4546" class="cls-1" d="M1076.986,927.987v.216l43.761.373,60.52.359.513-.293,53.549.6,59.515.318,61.866.077,60.949.56,57.7.3,57.974.3,53.572.278v23.312l-94.559,65.844-59.724-.641-59.717-.641-59.678-.64-59.678-.64.27-25.174-.041.025-.269,25.148-59.725-.64.27-25.174-.041.025-.269,25.149-59.725-.641h0l-59.5-.638-59.489-.638-59.488-.639-59.725-.64.279-26.01L1025.96,928.2l51.026-.21"/>
    </g>
    <g id="组_2278" data-name="组 2278">
      <path id="路径_4547" data-name="路径 4547" class="cls-2" d="M1025.96,928.2l51.027-.21L955.826,988.463l-.279,26.01-59.724-.641.279-26.01Z"/>
    </g>
    <g id="组_2279" data-name="组 2279">
      <path id="路径_4548" data-name="路径 4548" class="cls-3" d="M1076.986,928.2l43.761.373-105.207,61.39-.27,25.148-59.724-.641.279-26.01Z"/>
    </g>
    <g id="组_2280" data-name="组 2280">
      <path id="路径_4549" data-name="路径 4549" class="cls-2" d="M1120.747,928.576l61.033.362L1075.03,990.6l-.27,25.148-59.724-.641.279-26.01Z"/>
    </g>
    <g id="组_2281" data-name="组 2281">
      <path id="路径_4550" data-name="路径 4550" class="cls-3" d="M1181.78,928.642l53.549.6-100.811,62-.27,25.148-59.724-.641.279-26.01Z"/>
    </g>
    <g id="组_2282" data-name="组 2282">
      <path id="路径_4551" data-name="路径 4551" class="cls-2" d="M1235.329,929.242l59.515.317-100.826,62.32-.27,25.148-59.724-.641.279-26.01Z"/>
    </g>
    <g id="组_2283" data-name="组 2283">
      <path id="路径_4552" data-name="路径 4552" class="cls-3" d="M1294.844,929.56l61.866.077-102.927,62.884-.27,25.148-59.724-.641.279-26.01Z"/>
    </g>
    <g id="组_2284" data-name="组 2284">
      <path id="路径_4553" data-name="路径 4553" class="cls-2" d="M1356.71,929.637l60.949.56-104.111,62.965-.27,25.148-59.724-.641.279-26.01Z"/>
    </g>
    <g id="组_2285" data-name="组 2285">
      <path id="路径_4554" data-name="路径 4554" class="cls-3" d="M1417.658,930.2l57.7.3L1373.225,993.8l-.27,25.148-59.724-.641.279-26.01Z"/>
    </g>
    <g id="组_2286" data-name="组 2286">
      <path id="路径_4555" data-name="路径 4555" class="cls-2" d="M1475.363,930.5l57.974.3L1432.9,994.443l-.27,25.148-59.724-.641.279-26.01Z"/>
    </g>
    <g id="组_2287" data-name="组 2287">
      <path id="路径_4556" data-name="路径 4556" class="cls-3" d="M1533.338,930.8l53.572.278-94.29,64.007-.27,25.148-59.724-.641.279-26.01Z"/>
    </g>
    <g id="组_2288" data-name="组 2288">
      <path id="路径_4557" data-name="路径 4557" class="cls-4" d="M896.1,987.823l-.279,26.01,596.528,6.4.27-25.148Z"/>
    </g>
    <path id="路径_4558" data-name="路径 4558" class="cls-5" d="M955.826,988.463l-.279,26.01,59.724.641.27-25.148Z"/>
    <path id="路径_4559" data-name="路径 4559" class="cls-5" d="M1074.8,989.74l-.044,26.013,59.489.638.054-26.012Z"/>
    <path id="路径_4560" data-name="路径 4560" class="cls-5" d="M1194.017,991.88v25.148l59.5.641V992.521Z"/>
    <path id="路径_4561" data-name="路径 4561" class="cls-5" d="M1313.547,993.162v25.148l59.408.64.27-25.148Z"/>
    <path id="路径_4562" data-name="路径 4562" class="cls-5" d="M1432.9,994.443l-.27,25.148,59.716.641,94.559-65.843V931.076l-94.29,64.007Z"/>
  </g>
</svg>
