<svg xmlns="http://www.w3.org/2000/svg" width="758.506" height="112.885" viewBox="0 0 758.506 112.885">
  <defs>
    <style>
      .cls-1, .cls-6 {
        fill: #c45a49;
      }

      .cls-1 {
        stroke-linejoin: round;
      }

      .cls-2, .cls-8 {
        fill: #fff;
      }

      .cls-3 {
        fill: #f3a574;
      }

      .cls-4 {
        fill: #e3856b;
      }

      .cls-5 {
        fill: #cd6f54;
      }

      .cls-7, .cls-8 {
        stroke: none;
      }
    </style>
  </defs>
  <g id="组_2276" data-name="组 2276" transform="translate(-1694.212 -1251.594)">
    <g id="路径_4526" data-name="路径 4526" class="cls-1">
      <path class="cls-7" d="M 2362.203125 1359.497192382813 L 2360.409912109375 1359.47802734375 L 2300.685791015625 1358.83740234375 L 2240.961669921875 1358.196655273438 L 2181.2451171875 1357.55615234375 L 2121.56689453125 1356.916137695313 L 2066.84814453125 1356.328979492188 L 2066.84814453125 1356.3291015625 L 2061.848388671875 1356.275512695313 L 2007.083251953125 1355.68798828125 L 2007.083251953125 1355.688110351563 L 2002.083618164063 1355.634521484375 L 1942.584594726563 1354.996215820313 L 1882.8603515625 1354.35546875 L 1823.371459960938 1353.717529296875 L 1763.882690429688 1353.079345703125 L 1704.158325195313 1352.438720703125 L 1699.158447265625 1352.385131835938 L 1699.212158203125 1347.385375976563 L 1699.491333007813 1321.375366210938 L 1699.525512695313 1318.188842773438 L 1702.428466796875 1316.874145507813 L 1834.055053710938 1257.270385742188 L 1835.027099609375 1256.830322265625 L 1836.094116210938 1256.825317382813 L 1885.352416992188 1256.593627929688 L 1885.40380859375 1256.809326171875 L 1885.41845703125 1256.809448242188 L 1929.170166015625 1257.18212890625 L 1988.343139648438 1257.533569335938 L 1988.868530273438 1257.2333984375 L 1990.225952148438 1257.24853515625 L 2043.767578125 1257.848999023438 L 2103.24169921875 1258.166137695313 L 2165.10546875 1258.2431640625 L 2165.12548828125 1258.2431640625 L 2165.1455078125 1258.243408203125 L 2226.093994140625 1258.803833007813 L 2283.778564453125 1259.103393554688 L 2341.752685546875 1259.404174804688 L 2395.32470703125 1259.68212890625 L 2442.743408203125 1259.920166015625 L 2447.71826171875 1259.945068359375 L 2447.71826171875 1264.920043945313 L 2447.71826171875 1288.232421875 L 2447.71826171875 1290.62548828125 L 2445.8544921875 1292.12646484375 L 2363.599853515625 1358.372436523438 L 2362.203125 1359.497192382813 Z"/>
      <path class="cls-8" d="M 1885.3759765625 1261.593505859375 L 1836.11767578125 1261.8251953125 L 1704.490966796875 1321.428955078125 L 1704.2119140625 1347.43896484375 L 1763.936279296875 1348.07958984375 L 1823.425048828125 1348.7177734375 L 1882.9140625 1349.355834960938 L 1942.63818359375 1349.996459960938 L 2002.13720703125 1350.634765625 L 2002.406982421875 1325.486328125 L 2002.44775390625 1325.461059570313 L 2002.177734375 1350.635131835938 L 2061.902099609375 1351.275756835938 L 2062.171875 1326.12744140625 L 2062.212646484375 1326.102416992188 L 2061.942626953125 1351.276123046875 L 2121.620361328125 1351.916381835938 L 2181.298828125 1352.556518554688 L 2241.01513671875 1353.197021484375 L 2300.7392578125 1353.837646484375 L 2360.463623046875 1354.478271484375 L 2442.71826171875 1288.232421875 L 2442.71826171875 1264.920043945313 L 2395.298828125 1264.68212890625 L 2341.726806640625 1264.404052734375 L 2283.75244140625 1264.103271484375 L 2226.0478515625 1263.8037109375 L 2165.099365234375 1263.2431640625 L 2103.233154296875 1263.166137695313 L 2043.71875 1262.848754882813 L 1990.169921875 1262.248291015625 L 1989.65673828125 1262.541381835938 L 1929.13671875 1262.182006835938 L 1885.3759765625 1261.809326171875 L 1764.21533203125 1322.069580078125 L 1885.3759765625 1261.593505859375 M 1885.376708984375 1251.593505859375 C 1886.113037109375 1251.593505859375 1886.833984375 1251.673950195313 1887.5302734375 1251.827270507813 L 1929.221923828125 1252.182373046875 L 1988.077880859375 1252.531860351563 C 1988.81298828125 1252.353881835938 1989.545166015625 1252.24853515625 1990.212158203125 1252.24853515625 C 1990.235595703125 1252.24853515625 1990.2587890625 1252.248657226563 1990.281982421875 1252.248901367188 L 2043.830810546875 1252.849365234375 L 2103.28662109375 1253.166137695313 L 2165.11181640625 1253.2431640625 L 2226.139892578125 1253.804077148438 L 2283.80419921875 1254.103393554688 L 2341.77880859375 1254.404174804688 L 2395.3505859375 1254.68212890625 L 2442.7685546875 1254.920166015625 C 2448.271728515625 1254.94775390625 2452.71826171875 1259.416748046875 2452.71826171875 1264.920043945313 L 2452.71826171875 1288.232421875 C 2452.71826171875 1291.2587890625 2451.34765625 1294.122314453125 2448.99072265625 1296.020629882813 L 2366.73583984375 1362.266479492188 C 2364.9580078125 1363.698364257813 2362.74462890625 1364.478271484375 2360.4638671875 1364.478271484375 C 2360.427734375 1364.478271484375 2360.39208984375 1364.47802734375 2360.3564453125 1364.477661132813 L 2300.6318359375 1363.837036132813 L 2240.90771484375 1363.196411132813 L 2181.19140625 1362.555908203125 L 2121.51318359375 1361.915771484375 L 2061.846923828125 1361.275634765625 C 2061.82958984375 1361.275512695313 2061.812255859375 1361.275390625 2061.794677734375 1361.275146484375 L 2002.08203125 1360.634643554688 C 2002.064453125 1360.634521484375 2002.04736328125 1360.634399414063 2002.02978515625 1360.634155273438 L 1942.531005859375 1359.995849609375 L 1882.806884765625 1359.355224609375 L 1823.31787109375 1358.717163085938 L 1763.8291015625 1358.078979492188 L 1704.1044921875 1357.438354492188 C 1701.45263671875 1357.410034179688 1698.92041015625 1356.329223632813 1697.0654296875 1354.433837890625 C 1695.210205078125 1352.538330078125 1694.18408203125 1349.983642578125 1694.21240234375 1347.331665039063 L 1694.49169921875 1321.321655273438 C 1694.533203125 1317.434204101563 1696.824462890625 1313.923217773438 1700.365966796875 1312.3193359375 L 1831.99267578125 1252.715576171875 C 1833.274169921875 1252.13525390625 1834.663818359375 1251.831909179688 1836.07080078125 1251.825317382813 L 1885.3291015625 1251.593627929688 C 1885.344970703125 1251.593505859375 1885.36083984375 1251.593505859375 1885.376708984375 1251.593505859375 Z"/>
    </g>
    <g id="组_2262" data-name="组 2262">
      <path id="路径_4527" data-name="路径 4527" class="cls-2" d="M1885.376,1261.594l-121.161,60.476,121.161-60.261,43.761.373,60.52.359.513-.293,53.549.6,59.514.317,61.866.077,60.949.561,57.7.3,57.974.3,53.572.278,47.419.238v23.312l-82.254,66.246-59.725-.64-59.724-.641-59.716-.64-59.679-.641-59.677-.64.27-25.174-.041.025-.27,25.149-59.724-.641.27-25.174-.041.025-.27,25.149-59.5-.639-59.724-.64-59.489-.638-59.489-.638-59.724-.641.279-26.01,131.627-59.6,49.258-.231"/>
    </g>
    <g id="组_2263" data-name="组 2263">
      <path id="路径_4528" data-name="路径 4528" class="cls-3" d="M1836.118,1261.825l49.258-.232-121.161,60.476-.279,26.01-59.724-.641.279-26.01Z"/>
    </g>
    <g id="组_2264" data-name="组 2264">
      <path id="路径_4529" data-name="路径 4529" class="cls-4" d="M1885.376,1261.809l43.761.373-105.206,61.39-.27,25.148-59.724-.641.279-26.01Z"/>
    </g>
    <g id="组_2265" data-name="组 2265">
      <path id="路径_4530" data-name="路径 4530" class="cls-3" d="M1929.137,1262.182l61.033.362-106.751,61.666-.27,25.148-59.724-.641.279-26.01Z"/>
    </g>
    <g id="组_2266" data-name="组 2266">
      <path id="路径_4531" data-name="路径 4531" class="cls-4" d="M1990.17,1262.248l53.549.6-100.811,62-.27,25.148-59.724-.641.279-26.01Z"/>
    </g>
    <g id="组_2267" data-name="组 2267">
      <path id="路径_4532" data-name="路径 4532" class="cls-3" d="M2043.719,1262.849l59.514.317-100.826,62.32-.27,25.148-59.724-.641.279-26.01Z"/>
    </g>
    <g id="组_2268" data-name="组 2268">
      <path id="路径_4533" data-name="路径 4533" class="cls-4" d="M2103.233,1263.166l61.866.077-102.927,62.884-.27,25.148-59.724-.641.279-26.01Z"/>
    </g>
    <g id="组_2269" data-name="组 2269">
      <path id="路径_4534" data-name="路径 4534" class="cls-3" d="M2165.1,1263.243l60.948.561-104.111,62.965-.27,25.148-59.724-.641.279-26.01Z"/>
    </g>
    <g id="组_2270" data-name="组 2270">
      <path id="路径_4535" data-name="路径 4535" class="cls-4" d="M2226.048,1263.8l57.7.3-102.138,63.305-.27,25.148-59.724-.641.279-26.01Z"/>
    </g>
    <g id="组_2271" data-name="组 2271">
      <path id="路径_4536" data-name="路径 4536" class="cls-3" d="M2283.752,1264.1l57.974.3-100.434,63.645-.27,25.148-59.724-.641.279-26.01Z"/>
    </g>
    <g id="组_2272" data-name="组 2272">
      <path id="路径_4537" data-name="路径 4537" class="cls-4" d="M2341.727,1264.4l53.572.278-94.29,64.007-.27,25.148-59.724-.641.275-25.61Z"/>
    </g>
    <g id="组_2273" data-name="组 2273">
      <path id="路径_4538" data-name="路径 4538" class="cls-3" d="M2395.3,1264.682l47.419.238-81.994,65.2-.26,24.354-59.724-.641.27-25.216Z"/>
    </g>
    <g id="组_2274" data-name="组 2274">
      <path id="路径_4539" data-name="路径 4539" class="cls-5" d="M2301.009,1328.689l-.27,25.148,59.724.641,82.255-66.246V1264.92l-81.82,64.039Z"/>
    </g>
    <g id="组_2275" data-name="组 2275">
      <path id="路径_4540" data-name="路径 4540" class="cls-5" d="M1704.491,1321.429l-.279,26.01,656.252,7.039.434-25.52Z"/>
    </g>
    <path id="路径_4541" data-name="路径 4541" class="cls-6" d="M1764.215,1322.07l-.279,26.01,59.724.641.27-25.148Z"/>
    <path id="路径_4542" data-name="路径 4542" class="cls-6" d="M1883.193,1323.346l-.044,26.012,59.489.638.054-26.012Z"/>
    <path id="路径_4543" data-name="路径 4543" class="cls-6" d="M2002.407,1325.486v25.148l59.5.641v-25.148Z"/>
    <path id="路径_4544" data-name="路径 4544" class="cls-6" d="M2121.937,1326.768v25.148l59.408.64.27-25.148Z"/>
    <path id="路径_4545" data-name="路径 4545" class="cls-6" d="M2241.015,1327.587l0,25.61,59.447.641.27-25.148Z"/>
  </g>
</svg>
