<svg xmlns="http://www.w3.org/2000/svg" width="110.625" height="276.646" viewBox="0 0 110.625 276.646">
  <defs>
    <style>
      .cls-1 {
        fill: #b24800;
      }

      .cls-2, .cls-5, .cls-6 {
        fill: none;
      }

      .cls-2 {
        stroke: #c49463;
      }

      .cls-2, .cls-5 {
        stroke-miterlimit: 10;
      }

      .cls-3 {
        fill: #b7794b;
      }

      .cls-4 {
        fill: #c49463;
      }

      .cls-5, .cls-6 {
        stroke: #b7794b;
      }

      .cls-6 {
        stroke-linecap: round;
        stroke-linejoin: round;
      }

      .cls-7 {
        fill: #3f3d3b;
      }
    </style>
  </defs>
  <g id="组_1931" data-name="组 1931" transform="translate(-1545.943 -279.415)">
    <path id="路径_4050" data-name="路径 4050" class="cls-1" d="M1601.255,279.915a54.812,54.812,0,0,0-54.812,54.812V555.561h109.625V334.727A54.813,54.813,0,0,0,1601.255,279.915Z"/>
    <g id="组_1929" data-name="组 1929">
      <g id="组_1928" data-name="组 1928">
        <g id="组_1927" data-name="组 1927">
          <path id="路径_4051" data-name="路径 4051" class="cls-2" d="M1601.255,279.915a54.812,54.812,0,0,0-54.812,54.812V555.561h109.625V334.727A54.813,54.813,0,0,0,1601.255,279.915Z"/>
        </g>
        <line id="直线_56" data-name="直线 56" class="cls-2" y2="275.305" transform="translate(1598.057 280.008)"/>
        <line id="直线_57" data-name="直线 57" class="cls-2" y2="264.762" transform="translate(1633.704 290.551)"/>
        <line id="直线_58" data-name="直线 58" class="cls-2" y2="273.424" transform="translate(1615.881 281.889)"/>
        <line id="直线_59" data-name="直线 59" class="cls-2" y2="271.808" transform="translate(1581.71 283.505)"/>
        <line id="直线_60" data-name="直线 60" class="cls-2" y2="260.794" transform="translate(1564.008 294.519)"/>
      </g>
    </g>
    <g id="组_1930" data-name="组 1930">
      <path id="路径_4052" data-name="路径 4052" class="cls-3" d="M1638.767,299.739c-9.718,0-17.6,22.81-17.6,50.947v205.26h35.194V350.686C1656.364,322.549,1648.485,299.739,1638.767,299.739Z"/>
      <path id="路径_4053" data-name="路径 4053" class="cls-4" d="M1638.767,309.2c-8.073,0-14.618,21.109-14.618,47.15V546.318h29.236V356.353C1653.385,330.312,1646.84,309.2,1638.767,309.2Z"/>
      <line id="直线_61" data-name="直线 61" class="cls-5" y2="237.115" transform="translate(1638.767 309.203)"/>
      <line id="直线_62" data-name="直线 62" class="cls-5" y2="227.465" transform="translate(1649.379 318.853)"/>
      <line id="直线_63" data-name="直线 63" class="cls-5" y2="237.115" transform="translate(1644.073 309.203)"/>
      <line id="直线_64" data-name="直线 64" class="cls-5" y2="237.115" transform="translate(1633.901 309.203)"/>
      <line id="直线_65" data-name="直线 65" class="cls-6" y2="223.801" transform="translate(1628.631 322.517)"/>
      <rect id="矩形_702" data-name="矩形 702" class="cls-3" width="29.236" height="13.973" transform="translate(1624.149 374.334)"/>
      <rect id="矩形_703" data-name="矩形 703" class="cls-3" width="29.236" height="13.973" transform="translate(1624.149 417.097)"/>
      <path id="路径_4054" data-name="路径 4054" class="cls-7" d="M1653.385,378.191l-14.45,1.721a1.908,1.908,0,0,1,0-2.374s-1.149-1.048-1.434,2.037l-1.707,1.345,1.707,1.3s-.343,3.876,1.311,2.888c0,0-.969-2.413.19-2.611.646,0,14.383,1.147,14.383,1.147Z"/>
      <path id="路径_4055" data-name="路径 4055" class="cls-7" d="M1653.385,420.954l-14.45,1.721a1.907,1.907,0,0,1,0-2.373s-1.149-1.048-1.434,2.037l-1.707,1.344,1.707,1.306s-.343,3.876,1.311,2.887c0,0-.969-2.413.19-2.611.646,0,14.383,1.147,14.383,1.147Z"/>
    </g>
  </g>
</svg>
