<svg xmlns="http://www.w3.org/2000/svg" width="109.625" height="275.646" viewBox="0 0 109.625 275.646">
  <defs>
    <style>
      .cls-1 {
        fill: #b7794b;
      }

      .cls-2 {
        fill: #c49463;
      }

      .cls-3, .cls-4 {
        fill: none;
        stroke: #b7794b;
      }

      .cls-3 {
        stroke-miterlimit: 10;
      }

      .cls-4 {
        stroke-linecap: round;
        stroke-linejoin: round;
      }

      .cls-5 {
        fill: #3f3d3b;
      }
    </style>
  </defs>
  <g id="组_1846" data-name="组 1846" transform="translate(0 -250.734)">
    <path id="路径_3833" data-name="路径 3833" class="cls-1" d="M54.812,250.734A54.812,54.812,0,0,0,0,305.546V526.38H109.625V305.546A54.813,54.813,0,0,0,54.812,250.734Z"/>
    <path id="路径_3834" data-name="路径 3834" class="cls-2" d="M54.812,260.915c-25.147,0-45.533,22.712-45.533,50.728V516.021h91.067V311.643C100.346,283.627,79.96,260.915,54.812,260.915Z"/>
    <line id="直线_10" data-name="直线 10" class="cls-3" y2="255.106" transform="translate(54.812 260.915)"/>
    <line id="直线_11" data-name="直线 11" class="cls-3" y2="244.723" transform="translate(87.867 271.298)"/>
    <line id="直线_12" data-name="直线 12" class="cls-3" y2="255.106" transform="translate(71.34 260.915)"/>
    <line id="直线_13" data-name="直线 13" class="cls-3" y2="255.106" transform="translate(39.654 260.915)"/>
    <line id="直线_14" data-name="直线 14" class="cls-4" y2="240.781" transform="translate(23.239 275.239)"/>
    <rect id="矩形_682" data-name="矩形 682" class="cls-1" width="91.068" height="15.033" transform="translate(9.279 330.988)"/>
    <rect id="矩形_683" data-name="矩形 683" class="cls-1" width="91.068" height="15.033" transform="translate(9.279 376.996)"/>
    <path id="路径_3835" data-name="路径 3835" class="cls-5" d="M100.346,335.138l-45.01,1.851s-2.752-.958,0-2.553c0,0-3.581-1.128-4.469,2.191l-5.314,1.447,5.314,1.4s-1.065,4.17,4.084,3.107c0,0-3.018-2.6.592-2.809,2.012,0,44.8,1.234,44.8,1.234Z"/>
    <path id="路径_3836" data-name="路径 3836" class="cls-5" d="M100.346,381.146,55.336,383s-2.752-.958,0-2.554c0,0-3.581-1.127-4.469,2.192l-5.314,1.447,5.314,1.4s-1.065,4.17,4.084,3.106c0,0-3.018-2.6.592-2.808,2.012,0,44.8,1.234,44.8,1.234Z"/>
  </g>
</svg>
