<svg xmlns="http://www.w3.org/2000/svg" width="358.159" height="342.492" viewBox="0 0 358.159 342.492">
  <defs>
    <style>
      .cls-1, .cls-3 {
        fill: #0dd79b;
      }

      .cls-1 {
        stroke-linecap: round;
        stroke-linejoin: round;
      }

      .cls-2 {
        fill: #cf6f6f;
      }

      .cls-4 {
        fill: #54ebbb;
      }

      .cls-5 {
        fill: #ccebdd;
      }

      .cls-6 {
        fill: #16bf92;
      }

      .cls-7 {
        fill: #3ad2a7;
      }

      .cls-8 {
        fill: #8ce8cb;
      }

      .cls-9 {
        fill: #f4460f;
      }

      .cls-10 {
        fill: #ff805a;
      }

      .cls-11 {
        fill: #ffe5de;
      }

      .cls-12 {
        fill: #dc4a19;
      }

      .cls-13 {
        fill: #ef6c41;
      }

      .cls-14 {
        fill: #ffb29b;
      }

      .cls-15, .cls-16 {
        stroke: none;
      }

      .cls-16 {
        fill: #fff;
      }
    </style>
  </defs>
  <g id="组_2390" data-name="组 2390" transform="translate(-9.231 -1934.723)">
    <g id="路径_5047" data-name="路径 5047" class="cls-1">
      <path class="cls-15" d="M 193.8808441162109 2272.989013671875 L 190.4353485107422 2272.033203125 L 157.0053558349609 2262.759033203125 L 153.4491577148438 2261.7724609375 L 153.3440551757813 2258.083251953125 L 152.9455108642578 2244.095458984375 C 149.8505554199219 2243.43896484375 146.8392486572266 2242.70556640625 143.9533996582031 2241.905029296875 C 143.3158111572266 2241.728271484375 142.6690063476563 2241.543701171875 141.9988708496094 2241.346435546875 L 134.1011505126953 2252.89453125 L 132.0827484130859 2255.845703125 L 128.6374053955078 2254.89013671875 L 95.2073974609375 2245.6162109375 L 91.65119934082031 2244.629638671875 L 91.54605102539063 2240.940673828125 L 90.81497955322266 2215.298095703125 C 89.78112030029297 2214.49462890625 88.75346374511719 2213.674072265625 87.73506927490234 2212.83935546875 L 85.43920135498047 2216.196533203125 L 83.42085266113281 2219.14794921875 L 79.97540283203125 2218.192138671875 L 46.54540252685547 2208.918212890625 L 42.98915100097656 2207.931640625 L 42.88405227661133 2204.24267578125 L 41.89905166625977 2169.681396484375 L 41.7994499206543 2166.188232421875 L 45.04579925537109 2164.894287109375 L 48.05128479003906 2163.696533203125 L 22.64550018310547 2156.649169921875 L 19.08915138244629 2155.66259765625 L 18.98405075073242 2151.973388671875 L 17.99905204772949 2117.412353515625 L 17.89945030212402 2113.919189453125 L 21.14565086364746 2112.62548828125 L 32.11185836791992 2108.254150390625 C 31.85967063903809 2105.516357421875 31.6810131072998 2102.75341796875 31.57724380493164 2099.9873046875 L 18.87950134277344 2096.465087890625 L 15.32315063476563 2095.478515625 L 15.21805095672607 2091.789306640625 L 14.23305130004883 2057.228515625 L 14.13345146179199 2053.735107421875 L 17.37980079650879 2052.44140625 L 40.13021469116211 2043.373779296875 C 40.48301696777344 2042.364624023438 40.84822082519531 2041.354370117188 41.22527313232422 2040.344604492188 L 35.46250152587891 2038.74609375 L 31.90615081787109 2037.759521484375 L 31.80105018615723 2034.070434570313 L 30.8160514831543 1999.509399414063 L 30.71645164489746 1996.01611328125 L 33.96280288696289 1994.722290039063 L 66.08779907226563 1981.918334960938 L 69.54935455322266 1980.538696289063 L 71.33831787109375 1982.80078125 L 70.71005249023438 1960.758422851563 L 70.61045074462891 1957.26513671875 L 73.85680389404297 1955.971313476563 L 105.981803894043 1943.167358398438 L 109.4434509277344 1941.78759765625 L 111.7548980712891 1944.710571289063 L 119.9808578491211 1955.11279296875 C 129.4438781738281 1950.678833007813 139.3486328125 1947.209106445313 149.4803009033203 1944.781982421875 C 161.1242523193359 1941.99267578125 173.0819549560547 1940.578369140625 185.0213012695313 1940.578369140625 C 198.8111572265625 1940.578369140625 212.5949554443359 1942.462646484375 225.9897003173828 1946.178955078125 C 231.2388305664063 1947.635620117188 236.4791564941406 1949.397705078125 241.5955200195313 1951.425537109375 L 270.0649108886719 1940.079345703125 L 273.5264587402344 1938.69970703125 L 275.8378601074219 1941.62255859375 L 297.8368530273438 1969.440551757813 L 300.1195373535156 1972.327026367188 L 298.0421142578125 1975.364624023438 L 292.0315551757813 1984.152954101563 C 295.0238952636719 1987.081176757813 297.9183654785156 1990.156005859375 300.68505859375 1993.345581054688 L 314.0007629394531 1988.038330078125 L 317.4623413085938 1986.65869140625 L 319.7738647460938 1989.58154296875 L 341.7728576660156 2017.399536132813 L 344.0554504394531 2020.285888671875 L 341.9782104492188 2023.323364257813 L 329.2415771484375 2041.948120117188 C 329.5625915527344 2042.83349609375 329.8758544921875 2043.72265625 330.1808776855469 2044.6142578125 L 333.53955078125 2043.275512695313 L 337.0013122558594 2041.8955078125 L 339.3128967285156 2044.818603515625 L 361.3118896484375 2072.6376953125 L 363.5945129394531 2075.524169921875 L 361.5171508789063 2078.5615234375 L 341.8071594238281 2107.381591796875 L 339.7887573242188 2110.3330078125 L 337.6196594238281 2109.731201171875 C 337.2485046386719 2113.3193359375 336.7495422363281 2116.905517578125 336.1269226074219 2120.4560546875 L 350.3718872070313 2138.4697265625 L 352.6545104980469 2141.356201171875 L 350.5771484375 2144.3935546875 L 330.8671569824219 2173.213623046875 L 328.8488159179688 2176.164794921875 L 325.403564453125 2175.209228515625 L 316.6810302734375 2172.789794921875 C 315.8818054199219 2174.12548828125 315.0617370605469 2175.44970703125 314.2242431640625 2176.757568359375 L 326.69189453125 2192.523681640625 L 328.9744567871094 2195.41015625 L 326.8971557617188 2198.447509765625 L 307.1871643066406 2227.267578125 L 305.1687622070313 2230.218994140625 L 301.7233581542969 2229.26318359375 L 271.2913513183594 2220.820556640625 C 271.1105041503906 2220.943603515625 270.9293212890625 2221.066162109375 270.747802734375 2221.1884765625 L 275.0477600097656 2226.62548828125 L 277.3305358886719 2229.511962890625 L 275.2532043457031 2232.549560546875 L 255.5431976318359 2261.37060546875 L 253.5247955322266 2264.322021484375 L 250.0794067382813 2263.3662109375 L 216.6493988037109 2254.092041015625 L 213.0931549072266 2253.10546875 L 212.9880523681641 2249.416259765625 L 212.8685760498047 2245.223388671875 L 195.8992004394531 2270.03759765625 L 193.8808441162109 2272.989013671875 Z M 191.0923004150391 2204.5517578125 L 193.40380859375 2207.474365234375 L 210.4867553710938 2229.0751953125 C 211.1257476806641 2228.95361328125 211.7634429931641 2228.82763671875 212.3980560302734 2228.69775390625 L 212.0030517578125 2214.85546875 L 211.9033508300781 2211.362060546875 L 215.1497955322266 2210.068115234375 L 247.2747955322266 2197.26416015625 L 250.7362518310547 2195.884765625 L 253.0477447509766 2198.807373046875 L 260.7911376953125 2208.59814453125 C 262.0068664550781 2207.796875 263.2022399902344 2206.98193359375 264.3715515136719 2206.157470703125 L 263.6480407714844 2180.75244140625 L 263.5485534667969 2177.25927734375 L 266.7947387695313 2175.965576171875 L 291.9644165039063 2165.933349609375 L 288.4170532226563 2164.949462890625 L 288.3120422363281 2161.26025390625 L 287.3280639648438 2126.69921875 L 287.2285461425781 2123.2060546875 L 290.4746398925781 2121.912353515625 L 321.5464172363281 2109.527099609375 C 321.7033386230469 2108.148193359375 321.8394775390625 2106.766357421875 321.9544982910156 2105.384765625 L 302.9144592285156 2100.10302734375 L 299.358154296875 2099.116455078125 L 299.2530517578125 2095.42724609375 L 298.2680358886719 2060.866455078125 L 298.16845703125 2057.373291015625 L 301.4148864746094 2056.079345703125 L 310.6010131835938 2052.418212890625 L 283.37451171875 2044.865966796875 L 279.8180541992188 2043.879516601563 L 279.7130432128906 2040.190307617188 L 278.7290649414063 2005.62939453125 L 278.6736755371094 2003.685180664063 L 278.3321533203125 2004.1845703125 L 276.3138122558594 2007.135864257813 L 272.8684997558594 2006.180053710938 L 239.4394989013672 1996.907104492188 L 235.8831939697266 1995.920532226563 L 235.7780456542969 1992.2314453125 L 235.03125 1966.031005859375 C 230.6726989746094 1964.330688476563 226.2060394287109 1962.843383789063 221.7127075195313 1961.59716796875 C 209.7097015380859 1958.267333984375 197.3632507324219 1956.578979492188 185.0160064697266 1956.578979492188 C 166.3134002685547 1956.578979492188 147.4950408935547 1960.530151367188 130.2110290527344 1968.048461914063 L 133.7548065185547 1972.529541015625 L 136.0375518798828 1975.416015625 L 133.9601440429688 1978.45361328125 L 114.2501525878906 2007.273559570313 L 112.2317504882813 2010.224853515625 L 108.7863998413086 2009.269165039063 L 87.62864685058594 2003.399658203125 L 93.85995483398438 2011.279663085938 L 96.14240264892578 2014.166015625 L 94.06520080566406 2017.203491210938 L 74.356201171875 2046.023559570313 L 72.33795166015625 2048.974609375 L 68.8927001953125 2048.01904296875 L 58.38080215454102 2045.103637695313 L 77.27780151367188 2068.99853515625 L 79.56055450439453 2071.885009765625 L 77.48310089111328 2074.922607421875 L 59.23495483398438 2101.60498046875 L 81.04385375976563 2129.182373046875 L 83.32649993896484 2132.06884765625 L 81.24915313720703 2135.1064453125 L 66.80984497070313 2156.22021484375 L 77.17070007324219 2152.090576171875 L 80.63224792480469 2150.710693359375 L 82.94374847412109 2153.633544921875 L 104.9437484741211 2181.451416015625 L 107.2265548706055 2184.337890625 L 105.1491546630859 2187.37548828125 L 96.80620574951172 2199.57470703125 C 97.01802062988281 2199.751953125 97.23006439208984 2199.92822265625 97.44237518310547 2200.103759765625 L 125.8328018188477 2188.788330078125 L 129.2942962646484 2187.40869140625 L 131.6057586669922 2190.33154296875 L 153.6057586669922 2218.1494140625 L 154.4133605957031 2219.170654296875 L 155.5057983398438 2218.735107421875 L 187.6307983398438 2205.93115234375 L 191.0923004150391 2204.5517578125 Z M 151.5590972900391 2227.366455078125 C 151.8641052246094 2227.44287109375 152.1694641113281 2227.518310546875 152.4752960205078 2227.5927734375 L 152.4323577880859 2226.089599609375 L 151.5590972900391 2227.366455078125 Z M 282.8428039550781 1997.589111328125 L 280.146484375 2001.531616210938 L 281.8757019042969 2000.842407226563 L 284.8383483886719 1999.661499023438 C 284.1812744140625 1998.96484375 283.5158081054688 1998.273681640625 282.8428039550781 1997.589111328125 Z"/>
      <path class="cls-16" d="M 271.9159851074219 1944.72412109375 L 241.5829772949219 1956.81298828125 C 236.1249694824219 1954.56591796875 230.47998046875 1952.614013671875 224.6529693603516 1950.9970703125 C 211.4316101074219 1947.328857421875 198.1182250976563 1945.578369140625 185.0210571289063 1945.578369140625 C 161.6243286132813 1945.578369140625 138.9056243896484 1951.15966796875 118.5490417480469 1961.363037109375 L 107.8330383300781 1947.81201171875 L 75.70803833007813 1960.615966796875 L 76.61996459960938 1992.613037109375 C 75.91397094726563 1993.364013671875 75.21597290039063 1994.1240234375 74.52496337890625 1994.89111328125 L 67.93896484375 1986.56298828125 L 35.81396484375 1999.366943359375 L 36.79904174804688 2033.927978515625 L 47.9129638671875 2037.010986328125 C 46.53604125976563 2040.3271484375 45.2669677734375 2043.7109375 44.11996459960938 2047.166015625 L 19.23098754882813 2057.0859375 L 20.21597290039063 2091.64697265625 L 36.48196411132813 2096.158935546875 C 36.5479736328125 2101.2919921875 36.87796020507813 2106.410888671875 37.48004150390625 2111.4970703125 L 22.99703979492188 2117.27001953125 L 23.98196411132813 2151.8310546875 L 51.75796508789063 2159.535888671875 C 52.86495971679688 2161.780029296875 54.03097534179688 2164.0048828125 55.25698852539063 2166.20703125 L 46.89697265625 2169.5390625 L 47.88198852539063 2204.10009765625 L 81.31198120117188 2213.3740234375 L 86.74398803710938 2205.430908203125 C 89.64804077148438 2207.9970703125 92.64901733398438 2210.447021484375 95.74496459960938 2212.77294921875 L 96.54403686523438 2240.798095703125 L 129.9739685058594 2250.072021484375 L 139.9479675292969 2235.488037109375 C 141.7160339355469 2236.049072265625 143.4929809570313 2236.589111328125 145.2899780273438 2237.0869140625 C 149.4649810791016 2238.2451171875 153.6479797363281 2239.18994140625 157.8299713134766 2239.970947265625 L 158.3419799804688 2257.94091796875 L 191.7720336914063 2267.215087890625 L 210.1649780273438 2240.319091796875 C 212.6889801025391 2239.881103515625 215.1990203857422 2239.383056640625 217.6880340576172 2238.81591796875 L 217.9859771728516 2249.27392578125 L 251.4159851074219 2258.548095703125 L 271.1260375976563 2229.72705078125 L 263.41796875 2219.98095703125 C 265.7780151367188 2218.511962890625 268.0969848632813 2216.97705078125 270.3729858398438 2215.376953125 L 303.0599670410156 2224.445068359375 L 322.7699584960938 2195.625 L 308.06298828125 2177.027099609375 C 310.2659912109375 2173.764892578125 312.3460388183594 2170.40087890625 314.2979736328125 2166.93994140625 L 326.739990234375 2170.39111328125 L 346.4500122070313 2141.571044921875 L 330.8009643554688 2121.781982421875 C 331.9800415039063 2115.610107421875 332.7529907226563 2109.43994140625 333.1379699707031 2103.299072265625 L 337.6799621582031 2104.55908203125 L 357.3900146484375 2075.739013671875 L 335.3909912109375 2047.919921875 L 327.0649719238281 2051.239013671875 C 326.0439758300781 2047.8701171875 324.9049682617188 2044.5439453125 323.6520385742188 2041.26416015625 L 337.8510131835938 2020.5009765625 L 315.8519897460938 1992.68310546875 L 299.1949768066406 1999.322021484375 C 294.969970703125 1994.212890625 290.4030151367188 1989.3701171875 285.5020141601563 1984.843017578125 L 293.9150390625 1972.5419921875 L 271.9159851074219 1944.72412109375 M 274.2049560546875 2001.362060546875 L 282.0740356445313 1989.85595703125 C 286.0589599609375 1993.5830078125 289.8219604492188 1997.52197265625 293.3359680175781 2001.656982421875 L 283.7269897460938 2005.487060546875 L 284.7109680175781 2040.0478515625 L 318.1409912109375 2049.321044921875 L 319.489013671875 2047.35107421875 C 320.1939697265625 2049.373046875 320.8550415039063 2051.4130859375 321.469970703125 2053.468994140625 L 303.2659912109375 2060.72412109375 L 304.2509765625 2095.284912109375 L 327.2210388183594 2101.656982421875 C 326.9749755859375 2106.242919921875 326.5039672851563 2110.847900390625 325.7999877929688 2115.4580078125 L 324.4509887695313 2113.751953125 L 292.3259887695313 2126.556884765625 L 293.3099670410156 2161.117919921875 L 308.3389892578125 2165.287109375 C 307.0039672851563 2167.597900390625 305.6019897460938 2169.85791015625 304.14697265625 2172.075927734375 L 300.7709655761719 2167.805908203125 L 268.6459655761719 2180.610107421875 L 269.4450378417969 2208.666015625 C 266.2780151367188 2210.993896484375 263.0129699707031 2213.181884765625 259.6700439453125 2215.240966796875 L 249.1260375976563 2201.908935546875 L 217.0010223388672 2214.712890625 L 217.5140228271484 2232.68994140625 C 214.5099792480469 2233.39990234375 211.4779815673828 2234.010009765625 208.4219818115234 2234.52490234375 L 189.4819793701172 2210.575927734375 L 157.3569793701172 2223.3798828125 L 157.6560211181641 2233.84912109375 C 154.0659790039063 2233.14501953125 150.4770202636719 2232.300048828125 146.8939819335938 2231.305908203125 C 145.7510223388672 2230.989013671875 144.6150207519531 2230.658935546875 143.4849700927734 2230.31494140625 L 149.6840209960938 2221.2509765625 L 127.6839752197266 2193.43310546875 L 96.57498168945313 2205.83203125 C 94.38296508789063 2204.09912109375 92.24496459960938 2202.299072265625 90.15896606445313 2200.43701171875 L 101.02197265625 2184.552978515625 L 79.02197265625 2156.735107421875 L 60.87301635742188 2163.968994140625 C 60.04598999023438 2162.5029296875 59.25497436523438 2161.02294921875 58.48403930664063 2159.537109375 L 77.12203979492188 2132.283935546875 L 55.12301635742188 2104.466064453125 L 43.26498413085938 2109.19189453125 C 42.86196899414063 2105.4189453125 42.60598754882813 2101.6298828125 42.50897216796875 2097.8310546875 L 53.64596557617188 2100.919921875 L 73.35598754882813 2072.10009765625 L 51.448974609375 2044.39892578125 C 52.17196655273438 2042.449951171875 52.93597412109375 2040.52685546875 53.73696899414063 2038.626953125 L 70.22897338867188 2043.201171875 L 89.93801879882813 2014.380859375 L 78.29696655273438 1999.66015625 C 79.2640380859375 1998.56982421875 80.25103759765625 1997.4990234375 81.24896240234375 1996.44091796875 L 110.1230163574219 2004.451171875 L 129.8329772949219 1975.630859375 L 122.3539733886719 1966.173828125 C 141.5969696044922 1956.738037109375 162.9940338134766 1951.5791015625 185.0160217285156 1951.5791015625 C 197.5829772949219 1951.5791015625 210.3639678955078 1953.260009765625 223.0489807128906 1956.779052734375 C 228.8679809570313 1958.39306640625 234.5010223388672 1960.35107421875 239.9360198974609 1962.619140625 L 240.7759704589844 1992.0888671875 L 274.2049560546875 2001.362060546875 M 271.9131469726563 1934.723388671875 C 274.9061279296875 1934.723388671875 277.8206481933594 1936.0693359375 279.7596435546875 1938.521240234375 L 301.7587280273438 1966.339111328125 C 304.4742431640625 1969.772705078125 304.6405639648438 1974.57373046875 302.169189453125 1978.187255859375 L 298.4944458007813 1983.560302734375 C 299.7135314941406 1984.818359375 300.9145202636719 1986.099365234375 302.0951843261719 1987.401123046875 L 312.1495361328125 1983.393798828125 C 313.3534851074219 1982.913818359375 314.608154296875 1982.682373046875 315.84912109375 1982.682373046875 C 318.8421630859375 1982.682373046875 321.756591796875 1984.0283203125 323.6956481933594 1986.480224609375 L 345.6947021484375 2014.298095703125 C 348.4101257324219 2017.731689453125 348.5765380859375 2022.5322265625 346.1054382324219 2026.145751953125 L 337.8446350097656 2038.2255859375 C 339.925048828125 2038.752197265625 341.8342895507813 2039.946044921875 343.2347717285156 2041.717041015625 L 365.2338256835938 2069.5361328125 C 367.9491882324219 2072.969970703125 368.1155090332031 2077.770751953125 365.644287109375 2081.384033203125 L 345.9342346191406 2110.2041015625 C 344.9674377441406 2111.617919921875 343.6834411621094 2112.72265625 342.2267456054688 2113.4658203125 C 341.9931945800781 2115.34716796875 341.7259521484375 2117.224853515625 341.4254150390625 2119.095458984375 L 354.2938232421875 2135.3681640625 C 357.0091857910156 2138.802001953125 357.1755065917969 2143.602783203125 354.7042846679688 2147.216064453125 L 334.9942321777344 2176.0361328125 C 333.0989990234375 2178.8076171875 329.98486328125 2180.391845703125 326.7398376464844 2180.391845703125 C 325.8512573242188 2180.391845703125 324.9529724121094 2180.27294921875 324.0670776367188 2180.02734375 L 322.9363708496094 2179.713623046875 L 330.61376953125 2189.42236328125 C 333.3291320800781 2192.85595703125 333.4954528808594 2197.65673828125 331.0242309570313 2201.27001953125 L 311.3142395019531 2230.09033203125 C 309.4190673828125 2232.861328125 306.3046875 2234.44580078125 303.0598449707031 2234.44580078125 C 302.1709899902344 2234.44580078125 301.2728881835938 2234.3271484375 300.38671875 2234.0810546875 L 281.0756225585938 2228.7236328125 C 281.3062744140625 2231.01513671875 280.7462158203125 2233.375 279.3804016113281 2235.3720703125 L 259.6703491210938 2264.19287109375 C 257.7751770019531 2266.96435546875 254.6607360839844 2268.548828125 251.4158630371094 2268.548828125 C 250.5269775390625 2268.548828125 249.6288909912109 2268.429931640625 248.7427062988281 2268.18408203125 L 215.3127136230469 2258.91015625 C 213.7217559814453 2258.46875 212.3088684082031 2257.65625 211.1587829589844 2256.5810546875 L 200.0264434814453 2272.85986328125 C 198.1313629150391 2275.63134765625 195.0168304443359 2277.2158203125 191.7719268798828 2277.2158203125 C 190.8830413818359 2277.2158203125 189.9850006103516 2277.096923828125 189.0988159179688 2276.85107421875 L 155.6687622070313 2267.5771484375 C 151.4406127929688 2266.404052734375 148.4709777832031 2262.61181640625 148.3460235595703 2258.2255859375 L 148.0581665039063 2248.12255859375 C 146.7392578125 2247.80908203125 145.4209594726563 2247.4775390625 144.1030883789063 2247.126953125 L 138.2282409667969 2255.71728515625 C 136.3330993652344 2258.48828125 133.2186279296875 2260.07275390625 129.9737854003906 2260.07275390625 C 129.0849456787109 2260.07275390625 128.1869201660156 2259.9541015625 127.3007659912109 2259.7080078125 L 93.87081909179688 2250.43408203125 C 89.64276123046875 2249.26123046875 86.67312622070313 2245.46923828125 86.54806518554688 2241.0830078125 L 86.00973510742188 2222.2021484375 C 84.57244873046875 2222.96630859375 82.9588623046875 2223.374755859375 81.31182861328125 2223.374755859375 C 80.42294311523438 2223.374755859375 79.52499389648438 2223.255859375 78.63882446289063 2223.01025390625 L 45.20883178710938 2213.736328125 C 40.98065185546875 2212.563232421875 38.01101684570313 2208.77099609375 37.88601684570313 2204.385009765625 L 36.90103149414063 2169.823974609375 C 36.86276245117188 2168.481689453125 37.09405517578125 2167.17724609375 37.55386352539063 2165.973388671875 L 21.30902099609375 2161.46728515625 C 17.08074951171875 2160.29443359375 14.11102294921875 2156.502197265625 13.98602294921875 2152.115966796875 L 13.00106811523438 2117.554931640625 C 12.88150024414063 2113.359130859375 15.39508056640625 2109.534912109375 19.29434204101563 2107.980712890625 L 26.83392333984375 2104.9755859375 C 26.8082275390625 2104.597412109375 26.78384399414063 2104.218505859375 26.76083374023438 2103.840087890625 L 17.54302978515625 2101.283203125 C 13.31475830078125 2100.1103515625 10.34503173828125 2096.318115234375 10.22003173828125 2091.931884765625 L 9.235015869140625 2057.370849609375 C 9.115447998046875 2053.1748046875 11.62911987304688 2049.350830078125 15.528564453125 2047.796630859375 L 30.61190795898438 2041.784912109375 C 28.33346557617188 2039.989501953125 26.88943481445313 2037.24267578125 26.80307006835938 2034.212890625 L 25.81802368164063 1999.65185546875 C 25.69845581054688 1995.455810546875 28.21212768554688 1991.6318359375 32.11154174804688 1990.07763671875 L 64.23654174804688 1977.273681640625 C 64.86785888671875 1977.02197265625 65.51312255859375 1976.838623046875 66.1629638671875 1976.72119140625 L 65.71206665039063 1960.90087890625 C 65.59249877929688 1956.704833984375 68.10617065429688 1952.880859375 72.005615234375 1951.32666015625 L 104.130615234375 1938.522705078125 C 105.3345642089844 1938.042724609375 106.5892028808594 1937.8115234375 107.8301696777344 1937.811279296875 C 110.8232727050781 1937.811279296875 113.73779296875 1939.1572265625 115.6768188476563 1941.609130859375 L 121.4792327880859 1948.94677734375 C 141.4993896484375 1940.181396484375 163.300048828125 1935.578369140625 185.0210876464844 1935.578369140625 C 199.2628173828125 1935.578369140625 213.4963989257813 1937.52392578125 227.3265075683594 1941.361083984375 C 232.1107482910156 1942.688720703125 236.8872680664063 1944.26171875 241.5735626220703 1946.0517578125 L 268.2137756347656 1935.434814453125 C 269.4176940917969 1934.954833984375 270.6722106933594 1934.723388671875 271.9131469726563 1934.723388671875 Z M 230.12890625 1969.529296875 C 226.9154510498047 1968.3662109375 223.6533050537109 1967.32421875 220.3761291503906 1966.415283203125 C 208.8083953857422 1963.2060546875 196.9116516113281 1961.5791015625 185.0160217285156 1961.5791015625 C 169.1445617675781 1961.5791015625 153.1846160888672 1964.533447265625 138.2229919433594 1970.18896484375 C 140.4022064208984 1973.5458984375 140.3806762695313 1977.92236328125 138.0872955322266 1981.27587890625 L 118.3773498535156 2010.09619140625 C 116.482177734375 2012.867431640625 113.3677368164063 2014.451904296875 110.1228942871094 2014.451904296875 C 109.2340393066406 2014.451904296875 108.3359375 2014.3330078125 107.4497680664063 2014.087158203125 L 99.63046264648438 2011.91796875 C 100.3212585449219 2014.640380859375 99.85089111328125 2017.6005859375 98.19244384765625 2020.025634765625 L 78.4833984375 2048.845947265625 C 76.76397705078125 2051.3603515625 74.04119873046875 2052.897705078125 71.127685546875 2053.161376953125 L 81.19961547851563 2065.89697265625 C 83.91513061523438 2069.330810546875 84.08151245117188 2074.131591796875 81.6102294921875 2077.7451171875 L 65.43948364257813 2101.389892578125 L 84.9656982421875 2126.0810546875 C 87.68112182617188 2129.5146484375 87.84756469726563 2134.3154296875 85.3763427734375 2137.928955078125 L 79.35061645507813 2146.739990234375 C 82.22628784179688 2146.83544921875 84.99810791015625 2148.170654296875 86.86550903320313 2150.531982421875 L 108.8655090332031 2178.349853515625 C 111.5158386230469 2181.700927734375 111.7379455566406 2186.3544921875 109.4498596191406 2189.935546875 L 123.9815521240234 2184.1435546875 C 125.1854858398438 2183.663818359375 126.4402008056641 2183.4326171875 127.6811218261719 2183.4326171875 C 130.6741333007813 2183.432373046875 133.5884552001953 2184.778076171875 135.5274963378906 2187.22998046875 L 156.023681640625 2213.146240234375 L 185.7795562744141 2201.28662109375 C 186.9834899902344 2200.806640625 188.2381744384766 2200.5751953125 189.4791107177734 2200.5751953125 C 192.4721374511719 2200.5751953125 195.3865051269531 2201.9208984375 197.3255462646484 2204.373046875 L 207.0528717041016 2216.6728515625 L 207.0050811767578 2214.998046875 C 206.8853454589844 2210.802001953125 209.3990783691406 2206.9775390625 213.2985992431641 2205.42333984375 L 245.4235992431641 2192.61962890625 C 246.6275329589844 2192.1396484375 247.8822631835938 2191.908203125 249.1231842041016 2191.908203125 C 252.1161804199219 2191.908203125 255.0304565429688 2193.25390625 256.969482421875 2195.70556640625 L 259.150390625 2198.46337890625 L 258.6500244140625 2180.894775390625 C 258.530517578125 2176.69873046875 261.044189453125 2172.875 264.9435119628906 2171.32080078125 L 283.6894226074219 2163.84912109375 C 283.4668884277344 2163.06494140625 283.3380126953125 2162.24462890625 283.3140258789063 2161.40234375 L 282.3300170898438 2126.841552734375 C 282.2105712890625 2122.645751953125 284.72412109375 2118.82177734375 288.623291015625 2117.267578125 L 312.2034606933594 2107.86865234375 L 301.577880859375 2104.921142578125 C 297.3496704101563 2103.748046875 294.3800354003906 2099.955810546875 294.2550354003906 2095.56982421875 L 293.27001953125 2061.009033203125 C 293.1895141601563 2058.184326171875 294.3020629882813 2055.528564453125 296.2275390625 2053.6201171875 L 282.0380249023438 2049.68408203125 C 277.8096618652344 2048.51123046875 274.8399047851563 2044.71875 274.7150268554688 2040.33251953125 L 273.8900756835938 2011.357666015625 C 273.1041564941406 2011.3330078125 272.3136901855469 2011.215087890625 271.5319213867188 2010.998291015625 L 238.1029205322266 2001.724853515625 C 233.8747100830078 2000.552001953125 230.905029296875 1996.759765625 230.780029296875 1992.373779296875 L 230.12890625 1969.529296875 Z"/>
    </g>
    <path id="路径_5048" data-name="路径 5048" class="cls-2" d="M184.926,2242.506a148.466,148.466,0,0,1-143-188.144C63.806,1975.487,145.775,1929.113,224.653,1951S349.9,2054.848,328.017,2133.723h0C309.8,2199.374,249.962,2242.506,184.926,2242.506Zm.09-290.927c-62.413,0-119.831,41.384-137.308,104.386a142.449,142.449,0,0,0,99.186,175.341c75.685,20.991,154.345-23.5,175.342-99.187s-23.5-154.344-99.187-175.34A142.158,142.158,0,0,0,185.016,1951.579Z"/>
    <path id="路径_5049" data-name="路径 5049" class="cls-3" d="M107.833,1947.812l-32.125,12.8.985,34.561,33.43,9.274,19.71-28.82Z"/>
    <path id="路径_5050" data-name="路径 5050" class="cls-4" d="M104.193,1961.97l-16.008,6.38.491,17.222,16.658,4.621,9.822-14.361Z"/>
    <path id="路径_5051" data-name="路径 5051" class="cls-5" d="M107.833,1947.812l-3.641,14.157-16.008,6.38-12.476-7.734Z"/>
    <path id="路径_5052" data-name="路径 5052" class="cls-6" d="M88.675,1985.572l-11.982,9.605-.985-34.561,12.476,7.734Z"/>
    <path id="路径_5053" data-name="路径 5053" class="cls-7" d="M105.334,1990.193l4.789,14.258,19.71-28.82-14.677.2Z"/>
    <path id="路径_5054" data-name="路径 5054" class="cls-8" d="M107.833,1947.812l-3.641,14.157,10.962,13.862,14.677-.2Z"/>
    <path id="路径_5055" data-name="路径 5055" class="cls-9" d="M67.939,1986.563l-32.125,12.8.985,34.561,33.43,9.274,19.71-28.82Z"/>
    <path id="路径_5056" data-name="路径 5056" class="cls-10" d="M64.3,2000.72,48.29,2007.1l.491,17.222,16.658,4.621,9.822-14.361Z"/>
    <path id="路径_5057" data-name="路径 5057" class="cls-11" d="M67.939,1986.563,64.3,2000.72,48.29,2007.1l-12.476-7.734Z"/>
    <path id="路径_5058" data-name="路径 5058" class="cls-12" d="M48.781,2024.323,36.8,2033.928l-.985-34.561L48.29,2007.1Z"/>
    <path id="路径_5059" data-name="路径 5059" class="cls-13" d="M65.439,2028.944l4.789,14.258,19.71-28.82-14.677.2Z"/>
    <path id="路径_5060" data-name="路径 5060" class="cls-14" d="M67.939,1986.563,64.3,2000.72l10.962,13.862,14.677-.2Z"/>
    <path id="路径_5061" data-name="路径 5061" class="cls-3" d="M51.356,2044.282l-32.125,12.8.985,34.561,33.43,9.273,19.71-28.82Z"/>
    <path id="路径_5062" data-name="路径 5062" class="cls-4" d="M47.716,2058.439l-16.008,6.38.491,17.222,16.658,4.621,9.822-14.362Z"/>
    <path id="路径_5063" data-name="路径 5063" class="cls-5" d="M51.356,2044.282l-3.641,14.157-16.008,6.38-12.476-7.734Z"/>
    <path id="路径_5064" data-name="路径 5064" class="cls-6" d="M32.2,2082.042l-11.982,9.605-.985-34.561,12.476,7.734Z"/>
    <path id="路径_5065" data-name="路径 5065" class="cls-7" d="M48.857,2086.663l4.789,14.258,19.71-28.82-14.677.2Z"/>
    <path id="路径_5066" data-name="路径 5066" class="cls-8" d="M51.356,2044.282l-3.641,14.157L58.678,2072.3l14.677-.2Z"/>
    <path id="路径_5067" data-name="路径 5067" class="cls-9" d="M55.123,2104.466,23,2117.27l.985,34.561,33.43,9.274,19.71-28.82Z"/>
    <path id="路径_5068" data-name="路径 5068" class="cls-10" d="M51.482,2118.623,35.474,2125l.491,17.222,16.658,4.621,9.822-14.361Z"/>
    <path id="路径_5069" data-name="路径 5069" class="cls-11" d="M55.123,2104.466l-3.641,14.157L35.474,2125,23,2117.27Z"/>
    <path id="路径_5070" data-name="路径 5070" class="cls-12" d="M35.964,2142.225l-11.982,9.605L23,2117.27,35.474,2125Z"/>
    <path id="路径_5071" data-name="路径 5071" class="cls-13" d="M52.623,2146.846l4.789,14.258,19.71-28.82-14.677.2Z"/>
    <path id="路径_5072" data-name="路径 5072" class="cls-14" d="M55.123,2104.466l-3.641,14.157,10.962,13.862,14.677-.2Z"/>
    <path id="路径_5073" data-name="路径 5073" class="cls-3" d="M79.022,2156.735l-32.125,12.8.985,34.561,33.43,9.273,19.71-28.82Z"/>
    <path id="路径_5074" data-name="路径 5074" class="cls-4" d="M75.382,2170.893l-16.008,6.38.491,17.222,16.658,4.621,9.822-14.361Z"/>
    <path id="路径_5075" data-name="路径 5075" class="cls-5" d="M79.022,2156.735l-3.641,14.157-16.008,6.38L46.9,2169.539Z"/>
    <path id="路径_5076" data-name="路径 5076" class="cls-6" d="M59.864,2194.495,47.882,2204.1l-.985-34.561,12.476,7.734Z"/>
    <path id="路径_5077" data-name="路径 5077" class="cls-7" d="M76.523,2199.116l4.789,14.258,19.71-28.82-14.677.2Z"/>
    <path id="路径_5078" data-name="路径 5078" class="cls-8" d="M79.022,2156.735l-3.641,14.157,10.962,13.862,14.677-.2Z"/>
    <path id="路径_5079" data-name="路径 5079" class="cls-9" d="M127.684,2193.433l-32.125,12.8.985,34.561,33.43,9.273,19.71-28.82Z"/>
    <path id="路径_5080" data-name="路径 5080" class="cls-10" d="M124.044,2207.591l-16.008,6.38.491,17.222,16.658,4.621,9.822-14.361Z"/>
    <path id="路径_5081" data-name="路径 5081" class="cls-11" d="M127.684,2193.433l-3.641,14.157-16.008,6.38-12.476-7.734Z"/>
    <path id="路径_5082" data-name="路径 5082" class="cls-12" d="M108.526,2231.193,96.544,2240.8l-.985-34.561,12.476,7.734Z"/>
    <path id="路径_5083" data-name="路径 5083" class="cls-13" d="M125.184,2235.814l4.789,14.258,19.71-28.82-14.677.2Z"/>
    <path id="路径_5084" data-name="路径 5084" class="cls-14" d="M127.684,2193.433l-3.641,14.157,10.962,13.862,14.677-.2Z"/>
    <path id="路径_5085" data-name="路径 5085" class="cls-3" d="M189.482,2210.576l-32.125,12.8.985,34.561,33.43,9.273,19.71-28.82Z"/>
    <path id="路径_5086" data-name="路径 5086" class="cls-4" d="M185.842,2224.734l-16.008,6.38.491,17.222,16.658,4.621L196.8,2238.6Z"/>
    <path id="路径_5087" data-name="路径 5087" class="cls-5" d="M189.482,2210.576l-3.641,14.157-16.008,6.38-12.476-7.734Z"/>
    <path id="路径_5088" data-name="路径 5088" class="cls-6" d="M170.324,2248.336l-11.982,9.605-.985-34.561,12.476,7.734Z"/>
    <path id="路径_5089" data-name="路径 5089" class="cls-7" d="M186.983,2252.957l4.789,14.258,19.71-28.82-14.677.2Z"/>
    <path id="路径_5090" data-name="路径 5090" class="cls-8" d="M189.482,2210.576l-3.641,14.157L196.8,2238.6l14.677-.2Z"/>
    <path id="路径_5091" data-name="路径 5091" class="cls-9" d="M249.126,2201.909,217,2214.713l.985,34.561,33.43,9.273,19.71-28.82Z"/>
    <path id="路径_5092" data-name="路径 5092" class="cls-10" d="M245.486,2216.066l-16.008,6.38.491,17.222,16.658,4.621,9.822-14.361Z"/>
    <path id="路径_5093" data-name="路径 5093" class="cls-11" d="M249.126,2201.909l-3.641,14.157-16.008,6.38L217,2214.713Z"/>
    <path id="路径_5094" data-name="路径 5094" class="cls-12" d="M229.968,2239.669l-11.982,9.605L217,2214.713l12.476,7.734Z"/>
    <path id="路径_5095" data-name="路径 5095" class="cls-13" d="M246.627,2244.29l4.789,14.258,19.71-28.82-14.677.2Z"/>
    <path id="路径_5096" data-name="路径 5096" class="cls-14" d="M249.126,2201.909l-3.641,14.157,10.962,13.862,14.677-.2Z"/>
    <path id="路径_5097" data-name="路径 5097" class="cls-3" d="M300.771,2167.806l-32.125,12.8.985,34.561,33.43,9.273,19.71-28.82Z"/>
    <path id="路径_5098" data-name="路径 5098" class="cls-4" d="M297.13,2181.964l-16.008,6.38.491,17.222,16.658,4.621,9.822-14.361Z"/>
    <path id="路径_5099" data-name="路径 5099" class="cls-5" d="M300.771,2167.806l-3.641,14.157-16.008,6.38-12.476-7.734Z"/>
    <path id="路径_5100" data-name="路径 5100" class="cls-6" d="M281.613,2205.566l-11.982,9.605-.985-34.561,12.476,7.734Z"/>
    <path id="路径_5101" data-name="路径 5101" class="cls-7" d="M298.271,2210.187l4.789,14.258,19.71-28.82-14.677.2Z"/>
    <path id="路径_5102" data-name="路径 5102" class="cls-8" d="M300.771,2167.806l-3.641,14.157,10.962,13.862,14.677-.2Z"/>
    <path id="路径_5103" data-name="路径 5103" class="cls-9" d="M324.451,2113.752l-32.125,12.8.985,34.561,33.43,9.273,19.71-28.82Z"/>
    <path id="路径_5104" data-name="路径 5104" class="cls-10" d="M320.81,2127.91l-16.008,6.38.491,17.222,16.658,4.621,9.822-14.361Z"/>
    <path id="路径_5105" data-name="路径 5105" class="cls-11" d="M324.451,2113.752l-3.641,14.157-16.008,6.38-12.476-7.734Z"/>
    <path id="路径_5106" data-name="路径 5106" class="cls-12" d="M305.293,2151.512l-11.982,9.605-.985-34.561,12.476,7.734Z"/>
    <path id="路径_5107" data-name="路径 5107" class="cls-13" d="M321.951,2156.133l4.789,14.258,19.71-28.82-14.677.2Z"/>
    <path id="路径_5108" data-name="路径 5108" class="cls-14" d="M324.451,2113.752l-3.641,14.157,10.962,13.862,14.677-.2Z"/>
    <path id="路径_5109" data-name="路径 5109" class="cls-3" d="M335.391,2047.92l-32.125,12.8.985,34.561,33.43,9.273,19.71-28.82Z"/>
    <path id="路径_5110" data-name="路径 5110" class="cls-4" d="M331.75,2062.078l-16.008,6.38.491,17.222,16.658,4.621,9.822-14.362Z"/>
    <path id="路径_5111" data-name="路径 5111" class="cls-5" d="M335.391,2047.92l-3.641,14.157-16.008,6.38-12.476-7.734Z"/>
    <path id="路径_5112" data-name="路径 5112" class="cls-6" d="M316.233,2085.68l-11.982,9.605-.985-34.561,12.476,7.734Z"/>
    <path id="路径_5113" data-name="路径 5113" class="cls-7" d="M332.891,2090.3l4.789,14.258,19.71-28.82-14.677.2Z"/>
    <path id="路径_5114" data-name="路径 5114" class="cls-8" d="M335.391,2047.92l-3.641,14.157,10.962,13.862,14.677-.2Z"/>
    <path id="路径_5115" data-name="路径 5115" class="cls-9" d="M315.852,1992.683l-32.125,12.8.985,34.561,33.43,9.273,19.71-28.82Z"/>
    <path id="路径_5116" data-name="路径 5116" class="cls-10" d="M312.211,2006.84l-16.008,6.38.491,17.222,16.658,4.621,9.822-14.361Z"/>
    <path id="路径_5117" data-name="路径 5117" class="cls-11" d="M315.852,1992.683l-3.641,14.157-16.008,6.38-12.476-7.734Z"/>
    <path id="路径_5118" data-name="路径 5118" class="cls-12" d="M296.694,2030.443l-11.982,9.605-.985-34.561,12.476,7.734Z"/>
    <path id="路径_5119" data-name="路径 5119" class="cls-13" d="M313.352,2035.064l4.789,14.258,19.71-28.82-14.677.2Z"/>
    <path id="路径_5120" data-name="路径 5120" class="cls-14" d="M315.852,1992.683l-3.641,14.157,10.962,13.862,14.677-.2Z"/>
    <path id="路径_5121" data-name="路径 5121" class="cls-3" d="M271.916,1944.724l-32.125,12.8.985,34.561,33.43,9.273,19.71-28.82Z"/>
    <path id="路径_5122" data-name="路径 5122" class="cls-4" d="M268.275,1958.881l-16.008,6.38.491,17.222,16.658,4.621,9.822-14.361Z"/>
    <path id="路径_5123" data-name="路径 5123" class="cls-5" d="M271.916,1944.724l-3.641,14.157-16.008,6.38-12.476-7.734Z"/>
    <path id="路径_5124" data-name="路径 5124" class="cls-6" d="M252.758,1982.483l-11.982,9.605-.985-34.561,12.476,7.734Z"/>
    <path id="路径_5125" data-name="路径 5125" class="cls-7" d="M269.416,1987.1l4.789,14.258,19.71-28.82-14.677.2Z"/>
    <path id="路径_5126" data-name="路径 5126" class="cls-8" d="M271.916,1944.724l-3.641,14.157,10.962,13.862,14.677-.2Z"/>
  </g>
</svg>
