<svg xmlns="http://www.w3.org/2000/svg" width="362.935" height="360.031" viewBox="0 0 362.935 360.031">
  <defs>
    <style>
      .cls-1, .cls-3 {
        fill: #0dd79b;
      }

      .cls-1 {
        stroke-linecap: round;
        stroke-linejoin: round;
      }

      .cls-2 {
        fill: #cf6f6f;
      }

      .cls-4 {
        fill: #54ebbb;
      }

      .cls-5 {
        fill: #ccebdd;
      }

      .cls-6 {
        fill: #16bf92;
      }

      .cls-7 {
        fill: #3ad2a7;
      }

      .cls-8 {
        fill: #8ce8cb;
      }

      .cls-9 {
        fill: #f4460f;
      }

      .cls-10 {
        fill: #ff805a;
      }

      .cls-11 {
        fill: #ffe5de;
      }

      .cls-12 {
        fill: #dc4a19;
      }

      .cls-13 {
        fill: #ef6c41;
      }

      .cls-14 {
        fill: #ffb29b;
      }

      .cls-15, .cls-16 {
        stroke: none;
      }

      .cls-16 {
        fill: #fff;
      }
    </style>
  </defs>
  <g id="组_2462" data-name="组 2462" transform="translate(-996.151 -1883.6)">
    <g id="路径_5627" data-name="路径 5627" class="cls-1">
      <path class="cls-15" d="M 1186.001708984375 2239.40478515625 L 1182.556396484375 2238.44921875 L 1149.126586914063 2229.176025390625 L 1145.570068359375 2228.189453125 L 1145.465087890625 2224.500244140625 L 1145.267822265625 2217.571533203125 C 1144.211791992188 2217.3505859375 1143.155029296875 2217.117919921875 1142.100219726563 2216.874267578125 L 1136.097412109375 2225.6533203125 L 1134.078979492188 2228.60498046875 L 1130.63330078125 2227.649169921875 L 1097.203369140625 2218.375 L 1093.647216796875 2217.388427734375 L 1093.542114257813 2213.69921875 L 1093.042724609375 2196.176025390625 C 1090.947631835938 2194.8212890625 1088.882690429688 2193.413330078125 1086.860473632813 2191.96044921875 L 1084.748901367188 2195.0478515625 L 1082.73046875 2197.9990234375 L 1079.285278320313 2197.043212890625 L 1045.856323242188 2187.768798828125 L 1042.300170898438 2186.782470703125 L 1042.195068359375 2183.09326171875 L 1041.210083007813 2148.532470703125 L 1041.110473632813 2145.0390625 L 1042.010131835938 2144.680419921875 L 1015.8984375 2137.43701171875 L 1012.342102050781 2136.450439453125 L 1012.237060546875 2132.761474609375 L 1011.252075195313 2098.20068359375 L 1011.152526855469 2094.70751953125 L 1014.398742675781 2093.41357421875 L 1024.600463867188 2089.34716796875 C 1024.482055664063 2088.5244140625 1024.369873046875 2087.695556640625 1024.263793945313 2086.862060546875 L 1005.799499511719 2081.740234375 L 1002.243103027344 2080.753662109375 L 1002.138000488281 2077.064453125 L 1001.153076171875 2042.50341796875 L 1001.053527832031 2039.010131835938 L 1004.2998046875 2037.71630859375 L 1024.611572265625 2029.62060546875 L 1017.854370117188 2027.745971679688 L 1014.298034667969 2026.759399414063 L 1014.193054199219 2023.0703125 L 1013.209045410156 1988.50927734375 L 1013.109558105469 1985.01611328125 L 1016.355773925781 1983.722290039063 L 1048.480834960938 1970.918334960938 L 1051.196166992188 1969.836059570313 L 1050.4150390625 1942.429443359375 L 1050.3154296875 1938.936157226563 L 1053.561767578125 1937.642333984375 L 1085.686767578125 1924.83837890625 L 1089.148193359375 1923.458740234375 L 1091.459716796875 1926.381469726563 L 1098.4775390625 1935.255004882813 C 1099.319091796875 1934.757568359375 1100.157470703125 1934.272583007813 1100.989379882813 1933.802001953125 C 1101.404907226563 1933.567138671875 1101.834106445313 1933.327880859375 1102.280151367188 1933.082275390625 L 1101.826049804688 1917.142456054688 L 1101.726440429688 1913.649169921875 L 1104.972778320313 1912.355346679688 L 1137.097778320313 1899.551391601563 L 1140.559326171875 1898.171752929688 L 1142.870727539063 1901.094482421875 L 1154.2392578125 1915.469604492188 C 1155.088745117188 1915.344116210938 1155.93603515625 1915.225952148438 1156.779296875 1915.115600585938 L 1156.535034179688 1906.547485351563 L 1156.435424804688 1903.05419921875 L 1159.681884765625 1901.760375976563 L 1191.807983398438 1888.956298828125 L 1195.26953125 1887.57666015625 L 1197.580932617188 1890.49951171875 L 1216.883178710938 1914.907592773438 L 1247.811767578125 1902.580322265625 L 1251.273315429688 1901.200561523438 L 1253.584838867188 1904.123413085938 L 1275.584838867188 1931.94140625 L 1277.867431640625 1934.827758789063 L 1275.790161132813 1937.865356445313 L 1275.634033203125 1938.09375 L 1291.21875 1931.88232421875 L 1294.680297851563 1930.502563476563 L 1296.991821289063 1933.425537109375 L 1318.990844726563 1961.243530273438 L 1321.2734375 1964.1298828125 L 1319.196166992188 1967.16748046875 L 1307.629150390625 1984.081420898438 L 1315.165649414063 1981.077392578125 L 1318.627319335938 1979.697631835938 L 1320.938842773438 1982.620727539063 L 1342.937866210938 2010.439575195313 L 1345.220458984375 2013.326049804688 L 1343.143188476563 2016.363525390625 L 1329.455444335938 2036.378051757813 L 1331.008911132813 2038.342529296875 L 1353.007934570313 2066.16162109375 L 1355.29052734375 2069.0478515625 L 1353.213256835938 2072.08544921875 L 1333.503173828125 2100.905517578125 L 1331.664916992188 2103.593505859375 L 1342.0078125 2116.67138671875 L 1344.290649414063 2119.557861328125 L 1342.213256835938 2122.595458984375 L 1322.503173828125 2151.41650390625 L 1320.484741210938 2154.367919921875 L 1317.039184570313 2153.412109375 L 1305.679077148438 2150.260009765625 C 1305.371948242188 2150.738037109375 1305.062622070313 2151.2138671875 1304.751586914063 2151.6865234375 L 1314.543823242188 2164.069580078125 L 1316.826416015625 2166.9560546875 L 1314.7490234375 2169.993408203125 L 1295.039184570313 2198.8134765625 L 1293.020751953125 2201.7646484375 L 1289.575439453125 2200.80908203125 L 1264.91748046875 2193.96875 L 1265.19482421875 2194.319580078125 L 1267.477294921875 2197.205810546875 L 1265.400146484375 2200.243408203125 L 1245.691162109375 2229.0634765625 L 1243.6728515625 2232.0146484375 L 1240.2275390625 2231.05908203125 L 1206.797607421875 2221.7861328125 L 1203.2412109375 2220.799560546875 L 1203.174560546875 2218.461181640625 C 1202.10107421875 2218.652587890625 1201.027709960938 2218.83203125 1199.956909179688 2218.99951171875 L 1188.02001953125 2236.45361328125 L 1186.001708984375 2239.40478515625 Z M 1183.21337890625 2170.968505859375 L 1185.524780273438 2173.891357421875 L 1202.516479492188 2195.376708984375 L 1202.151123046875 2182.54931640625 L 1202.051513671875 2179.05615234375 L 1205.2978515625 2177.76220703125 L 1237.4228515625 2164.958251953125 L 1240.884399414063 2163.57861328125 L 1243.19580078125 2166.50146484375 L 1252.230346679688 2177.925537109375 L 1251.500122070313 2152.29833984375 L 1251.400512695313 2148.80517578125 L 1254.64697265625 2147.51123046875 L 1279.891723632813 2137.4501953125 L 1278.964111328125 2104.9013671875 L 1278.864501953125 2101.408203125 L 1282.110961914063 2100.1142578125 L 1296.836059570313 2094.24560546875 L 1294.609619140625 2093.628173828125 L 1291.053100585938 2092.6416015625 L 1290.948120117188 2088.952392578125 L 1289.964111328125 2054.391357421875 L 1289.864624023438 2050.8984375 L 1293.110595703125 2049.6044921875 L 1306.8994140625 2044.108032226563 L 1284.540283203125 2037.905029296875 L 1280.984130859375 2036.91845703125 L 1280.879028320313 2033.2294921875 L 1279.89404296875 1998.66845703125 L 1279.79443359375 1995.175048828125 L 1281.47900390625 1994.503662109375 L 1260.592529296875 1988.7099609375 L 1257.0361328125 1987.723510742188 L 1256.931030273438 1984.034423828125 L 1256.42236328125 1966.186157226563 L 1256.080322265625 1966.686279296875 L 1254.06201171875 1969.637939453125 L 1250.616455078125 1968.682006835938 L 1217.186279296875 1959.407958984375 L 1213.630004882813 1958.42138671875 L 1213.525024414063 1954.732299804688 L 1212.9580078125 1934.8271484375 C 1212.843383789063 1934.795776367188 1212.727783203125 1934.764282226563 1212.610595703125 1934.732666015625 L 1200.075073242188 1953.0625 L 1198.056762695313 1956.013916015625 L 1194.611328125 1955.05810546875 L 1161.181274414063 1945.784057617188 L 1158.16259765625 1944.946533203125 L 1145.3662109375 1963.657470703125 L 1143.347778320313 1966.608764648438 L 1139.902465820313 1965.653076171875 L 1114.669677734375 1958.653076171875 L 1113.664184570313 1960.123413085938 L 1093.955200195313 1988.943359375 L 1091.936889648438 1991.894775390625 L 1088.491455078125 1990.93896484375 L 1066.531616210938 1984.84716796875 C 1066.129516601563 1985.384399414063 1065.729858398438 1985.9267578125 1065.333374023438 1986.473022460938 L 1076.2529296875 2000.280395507813 L 1078.53564453125 2003.166870117188 L 1076.458251953125 2006.204467773438 L 1056.748168945313 2035.024536132813 L 1054.729736328125 2037.975830078125 L 1051.284423828125 2037.02001953125 L 1050.34765625 2036.760131835938 L 1064.196899414063 2054.273681640625 L 1066.479370117188 2057.159912109375 L 1064.402221679688 2060.197509765625 L 1050.736938476563 2080.179931640625 L 1052.296875 2082.152587890625 L 1074.2958984375 2109.970458984375 L 1076.578491210938 2112.85693359375 L 1074.501220703125 2115.89453125 L 1059.611938476563 2137.66552734375 L 1076.481689453125 2130.94140625 L 1079.943359375 2129.5615234375 L 1082.2548828125 2132.484375 L 1104.25390625 2160.302734375 L 1106.536499023438 2163.18896484375 L 1104.459228515625 2166.2265625 L 1100.101318359375 2172.5986328125 L 1127.828857421875 2161.54736328125 L 1131.29052734375 2160.16748046875 L 1133.601928710938 2163.090576171875 L 1150.228637695313 2184.115478515625 L 1179.751831054688 2172.348388671875 L 1183.21337890625 2170.968505859375 Z"/>
      <path class="cls-16" d="M 1183.892944335938 2233.631103515625 L 1197.06201171875 2214.375 C 1200.741943359375 2213.85595703125 1204.390991210938 2213.197021484375 1208.004028320313 2212.406982421875 L 1208.134033203125 2216.968017578125 L 1241.56396484375 2226.240966796875 L 1261.27294921875 2197.4208984375 L 1257.001953125 2192.02001953125 C 1258.928955078125 2190.778076171875 1260.828002929688 2189.493896484375 1262.697021484375 2188.1640625 L 1290.911987304688 2195.990966796875 L 1310.621948242188 2167.1708984375 L 1298.56005859375 2151.91796875 C 1300.25 2149.485107421875 1301.869018554688 2146.991943359375 1303.4189453125 2144.444091796875 L 1318.3759765625 2148.593994140625 L 1338.086059570313 2119.77294921875 L 1321.590942382813 2098.916015625 C 1321.796997070313 2097.97412109375 1322.0009765625 2097.031982421875 1322.18896484375 2096.089111328125 L 1329.3759765625 2098.0830078125 L 1349.086059570313 2069.262939453125 L 1327.087036132813 2041.443969726563 L 1323.053955078125 2043.052001953125 C 1322.782958984375 2041.425048828125 1322.489013671875 2039.802001953125 1322.162963867188 2038.183959960938 L 1339.015991210938 2013.541015625 L 1317.016967773438 1985.722045898438 L 1303.828002929688 1990.97900390625 C 1302.75 1989.178955078125 1301.630981445313 1987.412963867188 1300.485961914063 1985.6689453125 L 1315.068969726563 1964.344970703125 L 1293.069946289063 1936.526977539063 L 1264.697998046875 1947.8349609375 C 1264.302978515625 1947.54296875 1263.902954101563 1947.259033203125 1263.505004882813 1946.972045898438 L 1271.662963867188 1935.04296875 L 1249.662963867188 1907.224975585938 L 1217.537963867188 1920.029052734375 L 1217.671997070313 1924.738037109375 C 1217.18798828125 1924.598999023438 1216.70703125 1924.451049804688 1216.220947265625 1924.316040039063 C 1215.504028320313 1924.116943359375 1214.784057617188 1923.93505859375 1214.066040039063 1923.746948242188 L 1215.657958984375 1921.4189453125 L 1193.659057617188 1893.600952148438 L 1161.532958984375 1906.405029296875 L 1161.907958984375 1919.557983398438 C 1158.635009765625 1919.880981445313 1155.375 1920.321044921875 1152.130004882813 1920.863037109375 L 1138.948974609375 1904.196044921875 L 1106.823974609375 1917 L 1107.365966796875 1936.02294921875 C 1106.055053710938 1936.714965820313 1104.748046875 1937.421020507813 1103.451049804688 1938.154052734375 C 1101.364990234375 1939.333984375 1099.317016601563 1940.56103515625 1097.302001953125 1941.828979492188 L 1087.537963867188 1929.483032226563 L 1055.412963867188 1942.286987304688 L 1056.39794921875 1976.848022460938 L 1058.3740234375 1977.39599609375 C 1057.2919921875 1978.817993164063 1056.22705078125 1980.254028320313 1055.197021484375 1981.714965820313 L 1050.33203125 1975.56298828125 L 1018.206970214844 1988.366943359375 L 1019.190979003906 2022.927978515625 L 1033.70703125 2026.954956054688 C 1033.637939453125 2027.197998046875 1033.56298828125 2027.43798828125 1033.495971679688 2027.681030273438 C 1033.107055664063 2029.083984375 1032.744995117188 2030.490966796875 1032.39697265625 2031.900024414063 L 1006.151000976563 2042.360961914063 L 1007.135986328125 2076.922119140625 L 1028.842041015625 2082.943115234375 C 1029.178955078125 2086.14599609375 1029.614013671875 2089.337890625 1030.161987304688 2092.512939453125 L 1016.25 2098.05810546875 L 1017.234985351563 2132.618896484375 L 1047.692993164063 2141.068115234375 C 1048.744018554688 2142.906005859375 1049.828002929688 2144.718994140625 1050.947998046875 2146.5009765625 L 1046.2080078125 2148.389892578125 L 1047.192993164063 2182.950927734375 L 1080.621948242188 2192.22509765625 L 1085.672973632813 2184.840087890625 C 1089.618041992188 2187.89111328125 1093.719970703125 2190.738037109375 1097.964965820313 2193.376953125 L 1098.5400390625 2213.556884765625 L 1131.969970703125 2222.8310546875 L 1139.922973632813 2211.199951171875 C 1143.3310546875 2212.069091796875 1146.740966796875 2212.81298828125 1150.151977539063 2213.431884765625 L 1150.463012695313 2224.35791015625 L 1183.892944335938 2233.631103515625 M 1181.60302734375 2176.992919921875 L 1149.47802734375 2189.797119140625 L 1149.52001953125 2191.280029296875 L 1129.680053710938 2166.19189453125 L 1097.555053710938 2178.99609375 L 1097.758056640625 2186.117919921875 C 1094.781005859375 2184.14697265625 1091.880981445313 2182.068115234375 1089.06494140625 2179.87890625 L 1100.33203125 2163.404052734375 L 1078.3330078125 2135.5859375 L 1056.621948242188 2144.239990234375 C 1055.39501953125 2142.320068359375 1054.211059570313 2140.364990234375 1053.067993164063 2138.376953125 L 1070.3740234375 2113.072021484375 L 1048.375 2085.25390625 L 1035.8759765625 2090.236083984375 C 1035.573974609375 2088.385009765625 1035.300048828125 2086.531005859375 1035.072021484375 2084.6708984375 L 1040.566040039063 2086.195068359375 L 1060.275024414063 2057.375 L 1038.973022460938 2030.43701171875 C 1039.076049804688 2030.052978515625 1039.171020507813 2029.66796875 1039.276977539063 2029.284057617188 C 1039.344970703125 2029.041015625 1039.4189453125 2028.801025390625 1039.488037109375 2028.558959960938 L 1052.620971679688 2032.202026367188 L 1072.3310546875 2003.381958007813 L 1059.093994140625 1986.64404296875 C 1060.85400390625 1984.078002929688 1062.694946289063 1981.569946289063 1064.619995117188 1979.128051757813 L 1089.828002929688 1986.120971679688 L 1109.536987304688 1957.301025390625 L 1101.050048828125 1946.567993164063 C 1102.808959960938 1945.472045898438 1104.589965820313 1944.404052734375 1106.405029296875 1943.376953125 C 1106.786987304688 1943.161010742188 1107.175048828125 1942.961059570313 1107.557983398438 1942.7490234375 L 1107.808959960938 1951.56103515625 L 1141.239013671875 1960.8349609375 L 1160.948974609375 1932.015014648438 L 1156.416015625 1926.282958984375 C 1158.300048828125 1926.014038085938 1160.18701171875 1925.775024414063 1162.079956054688 1925.58203125 L 1162.517944335938 1940.965942382813 L 1195.947998046875 1950.239990234375 L 1210.4599609375 1929.02001953125 C 1211.848022460938 1929.360961914063 1213.234008789063 1929.713989257813 1214.616943359375 1930.098022460938 C 1215.701049804688 1930.39794921875 1216.779052734375 1930.713012695313 1217.85205078125 1931.036987304688 L 1218.52294921875 1954.589965820313 L 1251.953002929688 1963.864013671875 L 1260.114990234375 1951.927978515625 C 1260.422973632813 1952.150024414063 1260.732055664063 1952.369995117188 1261.036987304688 1952.594970703125 L 1261.928955078125 1983.891967773438 L 1295.359008789063 1993.1650390625 L 1296.816040039063 1991.035034179688 C 1297.275024414063 1991.760986328125 1297.723022460938 1992.498046875 1298.171020507813 1993.234008789063 L 1284.891967773438 1998.526000976563 L 1285.876953125 2033.087036132813 L 1316.7099609375 2041.640991210938 C 1316.93603515625 2042.868041992188 1317.14697265625 2044.097045898438 1317.339965820313 2045.328979492188 L 1294.962036132813 2054.2490234375 L 1295.946044921875 2088.81005859375 L 1312.475952148438 2093.39501953125 L 1283.962036132813 2104.759033203125 L 1284.947021484375 2139.320068359375 L 1287.161987304688 2139.93505859375 L 1256.498046875 2152.156005859375 L 1257.421020507813 2184.548095703125 C 1256.052978515625 2185.489990234375 1254.6669921875 2186.404052734375 1253.267944335938 2187.298095703125 L 1239.274047851563 2169.60302734375 L 1207.149047851563 2182.406982421875 L 1207.829956054688 2206.30810546875 C 1205.808959960938 2206.76708984375 1203.775024414063 2207.177978515625 1201.72998046875 2207.549072265625 L 1203.60302734375 2204.81103515625 L 1181.60302734375 2176.992919921875 M 1149.97705078125 2207.2939453125 C 1147.827026367188 2206.885009765625 1145.677978515625 2206.43896484375 1143.530029296875 2205.927001953125 L 1149.681030273438 2196.931884765625 L 1149.97705078125 2207.2939453125 M 1289.623046875 2140.617919921875 L 1297.39794921875 2142.77392578125 C 1296.509033203125 2144.197998046875 1295.595947265625 2145.60205078125 1294.660034179688 2146.987060546875 L 1289.623046875 2140.617919921875 M 1183.892822265625 2243.6318359375 C 1183.004150390625 2243.6318359375 1182.105834960938 2243.512939453125 1181.219970703125 2243.267333984375 L 1147.7900390625 2233.994140625 C 1144.489990234375 2233.07861328125 1141.956420898438 2230.5673828125 1140.94384765625 2227.423828125 L 1140.224731445313 2228.475341796875 C 1138.32958984375 2231.246826171875 1135.21484375 2232.83154296875 1131.969848632813 2232.831787109375 C 1131.080932617188 2232.831787109375 1130.182861328125 2232.712890625 1129.296630859375 2232.467041015625 L 1095.866821289063 2223.19287109375 C 1091.638671875 2222.02001953125 1088.669067382813 2218.227783203125 1088.544067382813 2213.841796875 L 1088.118896484375 2198.919921875 C 1088.104736328125 2198.91064453125 1088.09033203125 2198.90087890625 1088.076293945313 2198.891357421875 C 1086.167846679688 2201.027099609375 1083.444213867188 2202.2255859375 1080.621826171875 2202.225830078125 C 1079.733032226563 2202.225830078125 1078.834716796875 2202.10693359375 1077.948608398438 2201.861083984375 L 1044.519653320313 2192.5869140625 C 1040.291625976563 2191.4140625 1037.322021484375 2187.621826171875 1037.197021484375 2183.23583984375 L 1036.212036132813 2148.6748046875 C 1036.208129882813 2148.535888671875 1036.20703125 2148.39794921875 1036.208740234375 2148.260009765625 L 1014.561889648438 2142.255126953125 C 1010.333740234375 2141.08203125 1007.364074707031 2137.289794921875 1007.239074707031 2132.90380859375 L 1006.254028320313 2098.343017578125 C 1006.134948730469 2094.1640625 1008.6279296875 2090.353759765625 1012.500366210938 2088.787841796875 L 1004.463073730469 2086.558349609375 C 1000.234802246094 2085.385498046875 997.2650756835938 2081.593017578125 997.1400756835938 2077.20703125 L 996.155029296875 2042.645874023438 C 996.0354614257813 2038.449829101563 998.5491333007813 2034.625854492188 1002.448547363281 2033.071655273438 L 1011.59130859375 2029.427612304688 C 1010.141418457031 2027.731811523438 1009.261840820313 2025.556884765625 1009.195068359375 2023.212646484375 L 1008.210998535156 1988.651611328125 C 1008.091552734375 1984.455688476563 1010.605224609375 1980.631713867188 1014.504516601563 1979.07763671875 L 1046.098510742188 1966.485229492188 L 1045.4169921875 1942.571899414063 C 1045.297485351563 1938.375854492188 1047.811157226563 1934.551879882813 1051.710571289063 1932.997680664063 L 1083.835571289063 1920.193603515625 C 1085.039428710938 1919.7138671875 1086.294189453125 1919.482421875 1087.53515625 1919.482421875 C 1090.528076171875 1919.482421875 1093.4423828125 1920.828002929688 1095.381469726563 1923.27978515625 L 1097.059326171875 1925.4013671875 L 1096.828002929688 1917.284790039063 C 1096.70849609375 1913.0888671875 1099.22216796875 1909.264770507813 1103.12158203125 1907.710693359375 L 1135.24658203125 1894.90673828125 C 1136.450439453125 1894.426879882813 1137.705200195313 1894.195434570313 1138.946044921875 1894.195434570313 C 1141.939086914063 1894.195434570313 1144.853515625 1895.541137695313 1146.79248046875 1897.992919921875 L 1151.761596679688 1904.276123046875 C 1152.457641601563 1901.079833984375 1154.696533203125 1898.36474609375 1157.830688476563 1897.115600585938 L 1189.956787109375 1884.311645507813 C 1191.16064453125 1883.831787109375 1192.415283203125 1883.600341796875 1193.65625 1883.600341796875 C 1196.649291992188 1883.600341796875 1199.563720703125 1884.946166992188 1201.502685546875 1887.398071289063 L 1218.493530273438 1908.883178710938 L 1245.96044921875 1897.935668945313 C 1247.164428710938 1897.455810546875 1248.419189453125 1897.224365234375 1249.66015625 1897.224365234375 C 1252.653198242188 1897.224365234375 1255.567504882813 1898.569946289063 1257.506469726563 1901.021850585938 L 1279.506469726563 1928.83984375 C 1279.969604492188 1929.425415039063 1280.358520507813 1930.050537109375 1280.6728515625 1930.703002929688 L 1289.367553710938 1927.237548828125 C 1290.571533203125 1926.757690429688 1291.826171875 1926.5263671875 1293.067138671875 1926.5263671875 C 1296.060180664063 1926.5263671875 1298.974609375 1927.8720703125 1300.913696289063 1930.323974609375 L 1322.91259765625 1958.141967773438 C 1325.628051757813 1961.57568359375 1325.79443359375 1966.37646484375 1323.323364257813 1969.989868164063 L 1319.233154296875 1975.970703125 C 1321.405639648438 1976.464477539063 1323.406982421875 1977.680908203125 1324.860717773438 1979.519287109375 L 1346.859741210938 2007.338134765625 C 1349.5751953125 2010.77197265625 1349.741455078125 2015.572631835938 1347.270263671875 2019.18603515625 L 1335.659912109375 2036.1630859375 L 1356.929809570313 2063.06005859375 C 1359.645263671875 2066.493896484375 1359.8115234375 2071.294677734375 1357.34033203125 2074.907958984375 L 1337.869506835938 2103.37841796875 L 1345.929565429688 2113.56982421875 C 1348.645141601563 2117.00341796875 1348.811645507813 2121.804443359375 1346.340454101563 2125.41796875 L 1326.63037109375 2154.239013671875 C 1324.735107421875 2157.01025390625 1321.620849609375 2158.594482421875 1318.375854492188 2158.5947265625 C 1317.732421875 2158.5947265625 1317.083862304688 2158.532470703125 1316.438598632813 2158.40478515625 L 1318.465698242188 2160.968017578125 C 1321.18115234375 2164.40185546875 1321.347412109375 2169.20263671875 1318.876220703125 2172.81591796875 L 1299.166259765625 2201.635986328125 C 1297.271118164063 2204.406982421875 1294.156616210938 2205.991455078125 1290.911865234375 2205.99169921875 C 1290.023071289063 2205.99169921875 1289.125122070313 2205.872802734375 1288.238891601563 2205.626953125 L 1270.69921875 2200.761474609375 C 1270.414916992188 2201.563720703125 1270.024536132813 2202.3388671875 1269.52734375 2203.06591796875 L 1249.818359375 2231.8857421875 C 1247.923095703125 2234.6572265625 1244.808837890625 2236.24169921875 1241.563842773438 2236.24169921875 C 1240.675170898438 2236.24169921875 1239.776977539063 2236.122802734375 1238.890991210938 2235.877197265625 L 1205.461059570313 2226.604248046875 C 1204.177001953125 2226.248046875 1203.0087890625 2225.650146484375 1202.001220703125 2224.867431640625 L 1192.147216796875 2239.276123046875 C 1190.251953125 2242.04736328125 1187.137817382813 2243.6318359375 1183.892822265625 2243.6318359375 Z M 1181.600219726563 2166.9921875 C 1184.59326171875 2166.9921875 1187.507568359375 2168.337890625 1189.446533203125 2170.789794921875 L 1197.293212890625 2180.711669921875 C 1197.874633789063 2177.328857421875 1200.171997070313 2174.4228515625 1203.446655273438 2173.11767578125 L 1235.571655273438 2160.313720703125 C 1236.775634765625 2159.833740234375 1238.0302734375 2159.602294921875 1239.271240234375 2159.602294921875 C 1242.10693359375 2159.602294921875 1244.871704101563 2160.81005859375 1246.803588867188 2163.022216796875 L 1246.502075195313 2152.44091796875 C 1246.382568359375 2148.244873046875 1248.896362304688 2144.420654296875 1252.795776367188 2142.86669921875 L 1274.794189453125 2134.099365234375 L 1273.966064453125 2105.0439453125 C 1273.846557617188 2100.847900390625 1276.3603515625 2097.023681640625 1280.259887695313 2095.469482421875 L 1286.803100585938 2092.86181640625 C 1286.286987304688 2091.6982421875 1285.987915039063 2090.423583984375 1285.950073242188 2089.0947265625 L 1284.966064453125 2054.53369140625 C 1284.8466796875 2050.337890625 1287.360107421875 2046.514038085938 1291.25927734375 2044.959838867188 L 1291.262084960938 2044.958740234375 L 1283.20361328125 2042.723022460938 C 1278.9755859375 2041.550048828125 1276.005981445313 2037.757934570313 1275.880981445313 2033.371948242188 L 1274.89599609375 1998.810913085938 C 1274.886962890625 1998.495361328125 1274.892944335938 1998.181762695313 1274.913208007813 1997.871215820313 L 1259.255981445313 1993.528076171875 C 1255.027709960938 1992.355224609375 1252.057983398438 1988.56298828125 1251.932983398438 1984.176879882813 L 1251.638916015625 1973.859741210938 C 1250.852783203125 1973.835083007813 1250.061889648438 1973.717041015625 1249.27978515625 1973.500122070313 L 1215.849731445313 1964.22607421875 C 1211.62158203125 1963.053100585938 1208.651977539063 1959.260864257813 1208.526977539063 1954.874755859375 L 1208.381713867188 1949.773681640625 L 1204.202270507813 1955.885009765625 C 1202.30712890625 1958.656127929688 1199.192749023438 1960.240478515625 1195.947875976563 1960.24072265625 C 1195.05908203125 1960.24072265625 1194.161010742188 1960.121948242188 1193.274780273438 1959.876098632813 L 1160.271362304688 1950.720336914063 L 1149.493286132813 1966.480102539063 C 1147.59814453125 1969.251098632813 1144.483642578125 1970.83544921875 1141.238891601563 1970.835693359375 C 1140.349975585938 1970.835693359375 1139.452026367188 1970.716918945313 1138.565795898438 1970.471069335938 L 1116.778564453125 1964.427001953125 L 1098.082397460938 1991.765869140625 C 1096.187255859375 1994.537109375 1093.07275390625 1996.121459960938 1089.827880859375 1996.12158203125 C 1088.939086914063 1996.121704101563 1088.041015625 1996.0029296875 1087.154907226563 1995.757080078125 L 1076.7724609375 1992.876831054688 L 1080.174682617188 1997.178955078125 C 1082.890258789063 2000.612670898438 1083.056640625 2005.41357421875 1080.585327148438 2009.027099609375 L 1060.875244140625 2037.84716796875 C 1060.371337890625 2038.583984375 1059.78076171875 2039.237182617188 1059.125 2039.798828125 L 1068.118896484375 2051.17236328125 C 1070.834106445313 2054.60595703125 1071.00048828125 2059.406494140625 1068.529418945313 2063.02001953125 L 1056.94140625 2079.96484375 L 1078.217651367188 2106.869140625 C 1080.93310546875 2110.302734375 1081.099487304688 2115.103759765625 1078.628295898438 2118.717041015625 L 1073.000244140625 2126.946533203125 L 1074.63037109375 2126.296630859375 C 1075.834350585938 2125.81689453125 1077.089111328125 2125.585205078125 1078.330200195313 2125.585205078125 C 1081.3232421875 2125.585205078125 1084.237670898438 2126.93115234375 1086.176635742188 2129.383056640625 L 1108.17578125 2157.201171875 C 1109.551391601563 2158.940673828125 1110.272827148438 2161.03076171875 1110.32861328125 2163.139892578125 L 1125.9775390625 2156.902587890625 C 1127.181518554688 2156.4228515625 1128.436279296875 2156.19140625 1129.67724609375 2156.19140625 C 1132.670288085938 2156.19140625 1135.584716796875 2157.537109375 1137.523803710938 2159.989013671875 L 1151.839111328125 2178.091064453125 L 1177.900512695313 2167.70361328125 C 1179.1044921875 2167.2236328125 1180.359252929688 2166.9921875 1181.600219726563 2166.9921875 Z"/>
    </g>
    <path id="路径_5628" data-name="路径 5628" class="cls-2" d="M1176.493,2215.824a148.461,148.461,0,1,1,143.092-108.782l-2.891-.8,2.891.8C1301.373,2172.692,1241.529,2215.824,1176.493,2215.824Zm-.172-290.972a142.486,142.486,0,0,0,.174,284.972c62.413.005,119.831-41.385,137.309-104.386a142.449,142.449,0,0,0-99.187-175.34A143.173,143.173,0,0,0,1176.321,1924.852Z"/>
    <path id="路径_5629" data-name="路径 5629" class="cls-3" d="M1138.949,1904.2l-32.125,12.8.985,34.561,33.43,9.273,19.71-28.82Z"/>
    <path id="路径_5630" data-name="路径 5630" class="cls-4" d="M1135.309,1918.354l-16.008,6.38.491,17.222,16.658,4.621,9.822-14.361Z"/>
    <path id="路径_5631" data-name="路径 5631" class="cls-5" d="M1138.949,1904.2l-3.641,14.157-16.008,6.38L1106.824,1917Z"/>
    <path id="路径_5632" data-name="路径 5632" class="cls-6" d="M1119.792,1941.956l-11.982,9.605-.985-34.561,12.476,7.734Z"/>
    <path id="路径_5633" data-name="路径 5633" class="cls-7" d="M1136.45,1946.577l4.789,14.258,19.71-28.82-14.677.2Z"/>
    <path id="路径_5634" data-name="路径 5634" class="cls-8" d="M1138.949,1904.2l-3.641,14.157,10.962,13.862,14.677-.2Z"/>
    <path id="路径_5635" data-name="路径 5635" class="cls-9" d="M1087.538,1929.483l-32.125,12.8.985,34.561,33.43,9.273,19.71-28.82Z"/>
    <path id="路径_5636" data-name="路径 5636" class="cls-10" d="M1083.9,1943.64l-16.008,6.38.491,17.222,16.658,4.621,9.822-14.361Z"/>
    <path id="路径_5637" data-name="路径 5637" class="cls-11" d="M1087.538,1929.483l-3.641,14.157-16.008,6.38-12.476-7.734Z"/>
    <path id="路径_5638" data-name="路径 5638" class="cls-12" d="M1068.38,1967.242l-11.982,9.605-.985-34.561,12.476,7.734Z"/>
    <path id="路径_5639" data-name="路径 5639" class="cls-13" d="M1085.038,1971.863l4.789,14.258,19.71-28.82-14.677.2Z"/>
    <path id="路径_5640" data-name="路径 5640" class="cls-14" d="M1087.538,1929.483l-3.641,14.157,10.962,13.862,14.677-.2Z"/>
    <path id="路径_5641" data-name="路径 5641" class="cls-3" d="M1050.332,1975.563l-32.125,12.8.985,34.561,33.43,9.274,19.71-28.82Z"/>
    <path id="路径_5642" data-name="路径 5642" class="cls-4" d="M1046.691,1989.721l-16.008,6.38.491,17.222,16.658,4.621,9.822-14.361Z"/>
    <path id="路径_5643" data-name="路径 5643" class="cls-5" d="M1050.332,1975.563l-3.641,14.157-16.008,6.38-12.476-7.734Z"/>
    <path id="路径_5644" data-name="路径 5644" class="cls-6" d="M1031.173,2013.323l-11.982,9.605-.985-34.561,12.476,7.734Z"/>
    <path id="路径_5645" data-name="路径 5645" class="cls-7" d="M1047.832,2017.944l4.789,14.258,19.71-28.82-14.677.2Z"/>
    <path id="路径_5646" data-name="路径 5646" class="cls-8" d="M1050.332,1975.563l-3.641,14.157,10.962,13.862,14.677-.2Z"/>
    <path id="路径_5647" data-name="路径 5647" class="cls-9" d="M1038.276,2029.557l-32.125,12.8.985,34.561,33.43,9.273,19.71-28.82Z"/>
    <path id="路径_5648" data-name="路径 5648" class="cls-10" d="M1034.636,2043.714l-16.008,6.38.491,17.222,16.658,4.621,9.822-14.361Z"/>
    <path id="路径_5649" data-name="路径 5649" class="cls-11" d="M1038.276,2029.557l-3.641,14.157-16.008,6.38-12.476-7.734Z"/>
    <path id="路径_5650" data-name="路径 5650" class="cls-12" d="M1019.118,2067.317l-11.982,9.605-.985-34.561,12.476,7.734Z"/>
    <path id="路径_5651" data-name="路径 5651" class="cls-13" d="M1035.776,2071.938l4.789,14.258,19.71-28.82-14.677.2Z"/>
    <path id="路径_5652" data-name="路径 5652" class="cls-14" d="M1038.276,2029.557l-3.641,14.157,10.962,13.862,14.677-.2Z"/>
    <path id="路径_5653" data-name="路径 5653" class="cls-3" d="M1048.375,2085.254l-32.125,12.8.985,34.561,33.43,9.273,19.71-28.82Z"/>
    <path id="路径_5654" data-name="路径 5654" class="cls-4" d="M1044.734,2099.411l-16.008,6.38.491,17.222,16.658,4.621,9.822-14.362Z"/>
    <path id="路径_5655" data-name="路径 5655" class="cls-5" d="M1048.375,2085.254l-3.641,14.157-16.008,6.38-12.476-7.734Z"/>
    <path id="路径_5656" data-name="路径 5656" class="cls-6" d="M1029.217,2123.014l-11.982,9.605-.985-34.561,12.476,7.734Z"/>
    <path id="路径_5657" data-name="路径 5657" class="cls-7" d="M1045.875,2127.635l4.789,14.258,19.71-28.82-14.677.2Z"/>
    <path id="路径_5658" data-name="路径 5658" class="cls-8" d="M1048.375,2085.254l-3.641,14.157,10.962,13.862,14.677-.2Z"/>
    <path id="路径_5659" data-name="路径 5659" class="cls-3" d="M1129.68,2166.192l-32.125,12.8.985,34.561,33.43,9.273,19.71-28.82Z"/>
    <path id="路径_5660" data-name="路径 5660" class="cls-4" d="M1126.04,2180.35l-16.008,6.38.491,17.222,16.658,4.621,9.822-14.361Z"/>
    <path id="路径_5661" data-name="路径 5661" class="cls-5" d="M1129.68,2166.192l-3.641,14.157-16.008,6.38L1097.555,2179Z"/>
    <path id="路径_5662" data-name="路径 5662" class="cls-6" d="M1110.522,2203.952l-11.982,9.605-.985-34.561,12.476,7.734Z"/>
    <path id="路径_5663" data-name="路径 5663" class="cls-7" d="M1127.18,2208.573l4.789,14.258,19.71-28.82-14.677.2Z"/>
    <path id="路径_5664" data-name="路径 5664" class="cls-8" d="M1129.68,2166.192l-3.641,14.157L1137,2194.212l14.677-.2Z"/>
    <path id="路径_5665" data-name="路径 5665" class="cls-9" d="M1181.6,2176.993l-32.125,12.8.985,34.561,33.43,9.273,19.71-28.82Z"/>
    <path id="路径_5666" data-name="路径 5666" class="cls-10" d="M1177.963,2191.15l-16.008,6.38.491,17.222,16.658,4.621,9.822-14.361Z"/>
    <path id="路径_5667" data-name="路径 5667" class="cls-11" d="M1181.6,2176.993l-3.641,14.157-16.008,6.38-12.476-7.734Z"/>
    <path id="路径_5668" data-name="路径 5668" class="cls-12" d="M1162.445,2214.753l-11.982,9.605-.985-34.561,12.476,7.734Z"/>
    <path id="路径_5669" data-name="路径 5669" class="cls-13" d="M1179.1,2219.374l4.789,14.258,19.71-28.82-14.677.2Z"/>
    <path id="路径_5670" data-name="路径 5670" class="cls-14" d="M1181.6,2176.993l-3.641,14.157,10.962,13.862,14.677-.2Z"/>
    <path id="路径_5671" data-name="路径 5671" class="cls-9" d="M1078.333,2135.586l-32.125,12.8.985,34.561,33.43,9.273,19.71-28.82Z"/>
    <path id="路径_5672" data-name="路径 5672" class="cls-10" d="M1074.692,2149.744l-16.008,6.38.491,17.222,16.658,4.621,9.822-14.361Z"/>
    <path id="路径_5673" data-name="路径 5673" class="cls-11" d="M1078.333,2135.586l-3.641,14.157-16.008,6.38-12.476-7.734Z"/>
    <path id="路径_5674" data-name="路径 5674" class="cls-12" d="M1059.175,2173.346l-11.982,9.605-.985-34.561,12.476,7.734Z"/>
    <path id="路径_5675" data-name="路径 5675" class="cls-13" d="M1075.833,2177.967l4.789,14.258,19.71-28.82-14.677.2Z"/>
    <path id="路径_5676" data-name="路径 5676" class="cls-14" d="M1078.333,2135.586l-3.641,14.157,10.962,13.862,14.677-.2Z"/>
    <path id="路径_5677" data-name="路径 5677" class="cls-3" d="M1239.274,2169.6l-32.125,12.8.985,34.561,33.43,9.274,19.71-28.82Z"/>
    <path id="路径_5678" data-name="路径 5678" class="cls-4" d="M1235.634,2183.76l-16.008,6.38.491,17.222,16.658,4.621,9.822-14.361Z"/>
    <path id="路径_5679" data-name="路径 5679" class="cls-5" d="M1239.274,2169.6l-3.641,14.157-16.008,6.38-12.476-7.734Z"/>
    <path id="路径_5680" data-name="路径 5680" class="cls-6" d="M1220.116,2207.362l-11.982,9.605-.985-34.561,12.476,7.734Z"/>
    <path id="路径_5681" data-name="路径 5681" class="cls-7" d="M1236.774,2211.983l4.789,14.258,19.71-28.82-14.677.2Z"/>
    <path id="路径_5682" data-name="路径 5682" class="cls-8" d="M1239.274,2169.6l-3.641,14.157,10.962,13.862,14.677-.2Z"/>
    <path id="路径_5683" data-name="路径 5683" class="cls-3" d="M1316.087,2091.955l-32.125,12.8.985,34.561,33.43,9.273,19.71-28.82Z"/>
    <path id="路径_5684" data-name="路径 5684" class="cls-4" d="M1312.446,2106.113l-16.008,6.38.491,17.222,16.658,4.621,9.822-14.362Z"/>
    <path id="路径_5685" data-name="路径 5685" class="cls-5" d="M1316.087,2091.955l-3.641,14.157-16.008,6.38-12.476-7.734Z"/>
    <path id="路径_5686" data-name="路径 5686" class="cls-6" d="M1296.929,2129.715l-11.982,9.605-.985-34.561,12.476,7.734Z"/>
    <path id="路径_5687" data-name="路径 5687" class="cls-7" d="M1313.587,2134.336l4.789,14.258,19.71-28.82-14.677.2Z"/>
    <path id="路径_5688" data-name="路径 5688" class="cls-8" d="M1316.087,2091.955l-3.641,14.157,10.962,13.862,14.677-.2Z"/>
    <path id="路径_5689" data-name="路径 5689" class="cls-9" d="M1327.087,2041.444l-32.125,12.8.985,34.561,33.43,9.273,19.71-28.82Z"/>
    <path id="路径_5690" data-name="路径 5690" class="cls-10" d="M1323.446,2055.6l-16.008,6.38.491,17.222,16.658,4.621,9.822-14.361Z"/>
    <path id="路径_5691" data-name="路径 5691" class="cls-11" d="M1327.087,2041.444l-3.641,14.157-16.008,6.38-12.476-7.734Z"/>
    <path id="路径_5692" data-name="路径 5692" class="cls-12" d="M1307.929,2079.2l-11.982,9.605-.985-34.561,12.476,7.734Z"/>
    <path id="路径_5693" data-name="路径 5693" class="cls-13" d="M1324.587,2083.825l4.789,14.258,19.71-28.82-14.677.2Z"/>
    <path id="路径_5694" data-name="路径 5694" class="cls-14" d="M1327.087,2041.444l-3.641,14.157,10.962,13.862,14.677-.2Z"/>
    <path id="路径_5695" data-name="路径 5695" class="cls-9" d="M1193.659,1893.6l-32.125,12.8.985,34.561,33.43,9.274,19.71-28.82Z"/>
    <path id="路径_5696" data-name="路径 5696" class="cls-10" d="M1190.018,1907.758l-16.008,6.38.491,17.222,16.658,4.621,9.822-14.361Z"/>
    <path id="路径_5697" data-name="路径 5697" class="cls-11" d="M1193.659,1893.6l-3.641,14.157-16.008,6.38-12.476-7.734Z"/>
    <path id="路径_5698" data-name="路径 5698" class="cls-12" d="M1174.5,1931.361l-11.982,9.605-.985-34.561,12.476,7.734Z"/>
    <path id="路径_5699" data-name="路径 5699" class="cls-13" d="M1191.159,1935.982l4.789,14.258,19.71-28.82-14.677.2Z"/>
    <path id="路径_5700" data-name="路径 5700" class="cls-14" d="M1193.659,1893.6l-3.641,14.157,10.962,13.862,14.677-.2Z"/>
    <path id="路径_5701" data-name="路径 5701" class="cls-9" d="M1293.069,1936.527l-32.125,12.8.985,34.561,33.43,9.274,19.71-28.82Z"/>
    <path id="路径_5702" data-name="路径 5702" class="cls-10" d="M1289.429,1950.684l-16.008,6.38.491,17.222,16.658,4.621,9.822-14.361Z"/>
    <path id="路径_5703" data-name="路径 5703" class="cls-11" d="M1293.069,1936.527l-3.641,14.157-16.008,6.38-12.476-7.734Z"/>
    <path id="路径_5704" data-name="路径 5704" class="cls-12" d="M1273.911,1974.286l-11.982,9.605-.985-34.561,12.476,7.734Z"/>
    <path id="路径_5705" data-name="路径 5705" class="cls-13" d="M1290.57,1978.907l4.789,14.258,19.71-28.82-14.677.2Z"/>
    <path id="路径_5706" data-name="路径 5706" class="cls-14" d="M1293.069,1936.527l-3.641,14.157,10.962,13.862,14.677-.2Z"/>
    <path id="路径_5707" data-name="路径 5707" class="cls-9" d="M1288.623,2139.352l-32.125,12.8.985,34.561,33.43,9.273,19.71-28.82Z"/>
    <path id="路径_5708" data-name="路径 5708" class="cls-10" d="M1284.982,2153.51l-16.008,6.38.491,17.222,16.658,4.621,9.822-14.361Z"/>
    <path id="路径_5709" data-name="路径 5709" class="cls-11" d="M1288.623,2139.352l-3.641,14.157-16.008,6.38-12.476-7.734Z"/>
    <path id="路径_5710" data-name="路径 5710" class="cls-12" d="M1269.465,2177.112l-11.982,9.605-.985-34.561,12.476,7.734Z"/>
    <path id="路径_5711" data-name="路径 5711" class="cls-13" d="M1286.123,2181.733l4.789,14.258,19.71-28.82-14.677.2Z"/>
    <path id="路径_5712" data-name="路径 5712" class="cls-14" d="M1288.623,2139.352l-3.641,14.157,10.962,13.862,14.677-.2Z"/>
    <path id="路径_5713" data-name="路径 5713" class="cls-3" d="M1317.017,1985.722l-32.125,12.8.985,34.561,33.43,9.274,19.71-28.82Z"/>
    <path id="路径_5714" data-name="路径 5714" class="cls-4" d="M1313.377,1999.88l-16.008,6.38.491,17.222,16.658,4.621,9.822-14.361Z"/>
    <path id="路径_5715" data-name="路径 5715" class="cls-5" d="M1317.017,1985.722l-3.641,14.157-16.008,6.38-12.476-7.734Z"/>
    <path id="路径_5716" data-name="路径 5716" class="cls-6" d="M1297.859,2023.482l-11.982,9.605-.985-34.561,12.476,7.734Z"/>
    <path id="路径_5717" data-name="路径 5717" class="cls-7" d="M1314.517,2028.1l4.789,14.258,19.71-28.82-14.677.2Z"/>
    <path id="路径_5718" data-name="路径 5718" class="cls-8" d="M1317.017,1985.722l-3.641,14.157,10.962,13.862,14.677-.2Z"/>
    <path id="路径_5719" data-name="路径 5719" class="cls-3" d="M1249.663,1907.225l-32.125,12.8.985,34.561,33.43,9.273,19.71-28.82Z"/>
    <path id="路径_5720" data-name="路径 5720" class="cls-4" d="M1246.023,1921.383l-16.008,6.38.491,17.222,16.658,4.621,9.822-14.361Z"/>
    <path id="路径_5721" data-name="路径 5721" class="cls-5" d="M1249.663,1907.225l-3.641,14.157-16.008,6.38-12.476-7.734Z"/>
    <path id="路径_5722" data-name="路径 5722" class="cls-6" d="M1230.505,1944.985l-11.982,9.605-.985-34.561,12.476,7.734Z"/>
    <path id="路径_5723" data-name="路径 5723" class="cls-7" d="M1247.163,1949.606l4.789,14.258,19.71-28.82-14.677.2Z"/>
    <path id="路径_5724" data-name="路径 5724" class="cls-8" d="M1249.663,1907.225l-3.641,14.157,10.962,13.862,14.677-.2Z"/>
  </g>
</svg>
