<svg xmlns="http://www.w3.org/2000/svg" width="360.166" height="357.632" viewBox="0 0 360.166 357.632">
  <defs>
    <style>
      .cls-1, .cls-3 {
        fill: #0dd79b;
      }

      .cls-1 {
        stroke-linecap: round;
        stroke-linejoin: round;
      }

      .cls-2 {
        fill: #cf6f6f;
      }

      .cls-4 {
        fill: #54ebbb;
      }

      .cls-5 {
        fill: #ccebdd;
      }

      .cls-6 {
        fill: #16bf92;
      }

      .cls-7 {
        fill: #3ad2a7;
      }

      .cls-8 {
        fill: #8ce8cb;
      }

      .cls-9 {
        fill: #f4460f;
      }

      .cls-10 {
        fill: #ff805a;
      }

      .cls-11 {
        fill: #ffe5de;
      }

      .cls-12 {
        fill: #dc4a19;
      }

      .cls-13 {
        fill: #ef6c41;
      }

      .cls-14 {
        fill: #ffb29b;
      }

      .cls-15, .cls-16 {
        stroke: none;
      }

      .cls-16 {
        fill: #fff;
      }
    </style>
  </defs>
  <g id="组_2427" data-name="组 2427" transform="translate(-511.31 -1901.013)">
    <g id="路径_5331" data-name="路径 5331" class="cls-1">
      <path class="cls-15" d="M 698.3919067382813 2254.418701171875 L 694.946533203125 2253.463134765625 L 661.5165405273438 2244.190185546875 L 657.9600830078125 2243.20361328125 L 657.85498046875 2239.514404296875 L 657.6577758789063 2232.585205078125 C 656.1090698242188 2232.26123046875 654.5604248046875 2231.912841796875 653.0188598632813 2231.541259765625 L 646.43505859375 2241.167724609375 L 644.416748046875 2244.11865234375 L 640.9715576171875 2243.1630859375 L 607.5415649414063 2233.89013671875 L 603.9851684570313 2232.903564453125 L 603.8800659179688 2229.21435546875 L 603.4805297851563 2215.191162109375 L 603.0931396484375 2215.757568359375 L 601.0748291015625 2218.708740234375 L 597.6295776367188 2217.753173828125 L 564.1995849609375 2208.480224609375 L 560.6431274414063 2207.49365234375 L 560.5380249023438 2203.8046875 L 559.6007080078125 2170.914306640625 L 532.2844848632813 2163.337158203125 L 528.7280883789063 2162.3505859375 L 528.6229858398438 2158.661376953125 L 527.6380615234375 2124.100341796875 L 527.5384521484375 2120.607177734375 L 530.7848510742188 2119.313232421875 L 536.0005493164063 2117.234619140625 L 520.9575805664063 2113.06201171875 L 517.4010620117188 2112.075439453125 L 517.2960815429688 2108.38623046875 L 516.3120727539063 2073.825439453125 L 516.2125854492188 2070.332275390625 L 519.4586791992188 2069.038330078125 L 530.417724609375 2064.670166015625 L 527.9011840820313 2063.971923828125 L 524.3451538085938 2062.9853515625 L 524.2400512695313 2059.29638671875 L 523.2550659179688 2024.735473632813 L 523.1554565429688 2021.2421875 L 526.4019165039063 2019.948364257813 L 545.666015625 2012.270751953125 L 545.6229858398438 2010.761474609375 L 544.6380615234375 1976.200439453125 L 544.5385131835938 1972.707153320313 L 547.7847900390625 1971.413330078125 L 579.9097900390625 1958.609375 L 583.3714599609375 1957.229736328125 L 585.6829223632813 1960.152587890625 L 586.2227783203125 1960.835327148438 L 585.7320556640625 1943.602294921875 L 585.632568359375 1940.109130859375 L 588.8787841796875 1938.815307617188 L 621.0037841796875 1926.011352539063 L 624.46533203125 1924.631591796875 L 626.7767944335938 1927.554443359375 L 635.45166015625 1938.523681640625 C 635.902587890625 1938.354736328125 636.3531494140625 1938.188232421875 636.8031005859375 1938.0244140625 L 636.4559936523438 1925.828247070313 L 636.3566284179688 1922.335205078125 L 639.602783203125 1921.041381835938 L 671.7277221679688 1908.2373046875 L 675.1893310546875 1906.857543945313 L 677.500732421875 1909.780395507813 L 689.1891479492188 1924.560180664063 L 689.1720581054688 1923.961547851563 L 689.0723876953125 1920.468383789063 L 692.3186645507813 1919.17431640625 L 724.4436645507813 1906.369384765625 L 727.9053344726563 1904.989624023438 L 730.2168579101563 1907.91259765625 L 752.2168579101563 1935.7314453125 L 753.2625122070313 1937.0537109375 L 773.2177734375 1929.100341796875 L 776.6793823242188 1927.720581054688 L 778.9907836914063 1930.6435546875 L 800.9898681640625 1958.461547851563 L 803.2723999023438 1961.347778320313 L 801.1953125 1964.38525390625 L 797.1469116210938 1970.3056640625 L 810.7018432617188 1964.9033203125 L 814.1633911132813 1963.523681640625 L 816.474853515625 1966.446533203125 L 838.473876953125 1994.264526367188 L 840.7565307617188 1997.15087890625 L 838.6791381835938 2000.1884765625 L 829.953857421875 2012.946899414063 L 833.316650390625 2011.6064453125 L 836.7782592773438 2010.2265625 L 839.08984375 2013.1494140625 L 861.08984375 2040.967407226563 L 863.3726196289063 2043.853881835938 L 861.2952270507813 2046.891479492188 L 845.8704833984375 2069.44580078125 L 865.3978271484375 2094.138427734375 L 867.6804809570313 2097.02490234375 L 865.6032104492188 2100.0625 L 845.8931884765625 2128.883544921875 L 843.8748168945313 2131.8349609375 L 840.4423828125 2130.8828125 L 852.27685546875 2145.84765625 L 854.5594482421875 2148.73388671875 L 852.482177734375 2151.771484375 L 832.773193359375 2180.591552734375 L 830.7548828125 2183.54296875 L 827.3094482421875 2182.587158203125 L 812.52001953125 2178.484375 L 817.89501953125 2185.28173828125 L 820.1774291992188 2188.16796875 L 818.1002197265625 2191.20556640625 L 798.3911743164063 2220.025390625 L 796.3727416992188 2222.976806640625 L 792.9273681640625 2222.02099609375 L 773.6635131835938 2216.6767578125 L 772.7281494140625 2218.04443359375 L 753.0181274414063 2246.864501953125 L 750.9998168945313 2249.815673828125 L 747.5545654296875 2248.860107421875 L 714.1245727539063 2239.587158203125 L 710.568115234375 2238.6005859375 L 710.5137939453125 2236.693359375 L 700.4102172851563 2251.467529296875 L 698.3919067382813 2254.418701171875 Z M 695.6033325195313 2185.982666015625 L 697.9148559570313 2188.905517578125 L 709.5718994140625 2203.64599609375 L 709.47802734375 2200.350341796875 L 709.3785400390625 2196.857177734375 L 712.6248168945313 2195.563232421875 L 744.7498168945313 2182.75927734375 L 748.2113037109375 2181.379638671875 L 750.5228271484375 2184.302490234375 L 755.3319091796875 2190.383544921875 L 754.85107421875 2173.510498046875 L 754.7515258789063 2170.01708984375 L 757.997802734375 2168.72314453125 L 789.8588256835938 2156.0244140625 L 789.2330322265625 2134.07763671875 L 789.1334838867188 2130.584228515625 L 792.3797607421875 2129.290283203125 L 809.7484130859375 2122.36767578125 L 806.9994506835938 2121.605224609375 L 803.4430541992188 2120.61865234375 L 803.3380737304688 2116.929443359375 L 802.3540649414063 2082.368408203125 L 802.2545776367188 2078.875244140625 L 805.500732421875 2077.58154296875 L 817.8795166015625 2072.6474609375 L 802.69140625 2068.43408203125 L 799.1351318359375 2067.447509765625 L 799.030029296875 2063.758544921875 L 798.0451049804688 2029.197509765625 L 797.9737548828125 2026.695922851563 L 780.076416015625 2021.731079101563 L 776.5201416015625 2020.744506835938 L 776.4150390625 2017.055419921875 L 775.7904052734375 1995.136962890625 L 742.592529296875 1985.928100585938 L 739.0361938476563 1984.941528320313 L 738.9310302734375 1981.25244140625 L 738.3871459960938 1962.177490234375 L 732.712158203125 1970.475463867188 L 730.69384765625 1973.426635742188 L 727.24853515625 1972.471069335938 L 693.8185424804688 1963.198120117188 L 690.26220703125 1962.211547851563 L 690.1570434570313 1958.5224609375 L 690.1286010742188 1957.525146484375 L 679.9951782226563 1972.342529296875 L 677.976806640625 1975.293823242188 L 674.5314331054688 1974.338134765625 L 645.558837890625 1966.30078125 L 629.2711791992188 1990.117553710938 L 627.2528076171875 1993.06884765625 L 623.8074340820313 1992.113037109375 L 607.3465576171875 1987.546508789063 L 607.681884765625 1987.970581054688 L 609.9644775390625 1990.857055664063 L 607.8871459960938 1993.89453125 L 588.1771850585938 2022.714599609375 L 586.1587524414063 2025.665893554688 L 582.71337890625 2024.710083007813 L 575.3561401367188 2022.669067382813 L 586.2988891601563 2036.506591796875 L 588.5814819335938 2039.392944335938 L 586.5042114257813 2042.430541992188 L 567.359130859375 2070.42578125 L 579.3558349609375 2085.595458984375 L 581.6385498046875 2088.48193359375 L 579.5610961914063 2091.51953125 L 568.4529418945313 2107.761962890625 L 568.6827392578125 2108.052490234375 L 590.6827392578125 2135.870361328125 L 592.965576171875 2138.7568359375 L 590.88818359375 2141.79443359375 L 580.1450805664063 2157.503173828125 L 594.8248291015625 2151.65234375 L 598.286376953125 2150.272705078125 L 600.5978393554688 2153.195556640625 L 622.5968627929688 2181.013427734375 L 623.9527587890625 2182.72802734375 L 638.1677856445313 2177.0625 L 641.62939453125 2175.6826171875 L 643.9408569335938 2178.60546875 L 660.7578735351563 2199.87109375 L 692.1417846679688 2187.3623046875 L 695.6033325195313 2185.982666015625 Z"/>
      <path class="cls-16" d="M 696.2830200195313 2248.64501953125 L 709.4509887695313 2229.389892578125 C 711.4030151367188 2229.114013671875 713.3469848632813 2228.800048828125 715.281005859375 2228.447998046875 L 715.4609985351563 2234.76904296875 L 748.8909912109375 2244.0419921875 L 768.6010131835938 2215.221923828125 L 764.510986328125 2210.051025390625 C 764.9329833984375 2209.801025390625 765.3569946289063 2209.553955078125 765.7769775390625 2209.300048828125 L 794.2639770507813 2217.202880859375 L 813.9730224609375 2188.383056640625 L 804.1510009765625 2175.9619140625 C 805.2459716796875 2174.616943359375 806.3200073242188 2173.2529296875 807.3699951171875 2171.866943359375 L 828.64599609375 2177.76904296875 L 848.35498046875 2148.948974609375 L 830.6430053710938 2126.552001953125 C 830.9840087890625 2125.45703125 831.31298828125 2124.35693359375 831.6300048828125 2123.2490234375 L 841.7659912109375 2126.06103515625 L 861.4760131835938 2097.239990234375 L 839.666015625 2069.660888671875 L 857.1680297851563 2044.068969726563 L 835.1680297851563 2016.2509765625 L 823.9669799804688 2020.715942382813 C 823.2550048828125 2019.161987304688 822.5220336914063 2017.615966796875 821.7529907226563 2016.0810546875 L 834.552001953125 1997.365966796875 L 812.552978515625 1969.547973632813 L 793.656982421875 1977.078979492188 C 792.2349853515625 1975.660034179688 790.781005859375 1974.274047851563 789.3040161132813 1972.9169921875 L 797.0679931640625 1961.56298828125 L 775.0689697265625 1933.744995117188 L 746.02197265625 1945.322021484375 C 745.458984375 1945.088989257813 744.8889770507813 1944.869018554688 744.322021484375 1944.641967773438 L 748.2949829101563 1938.8330078125 L 726.2949829101563 1911.014038085938 L 694.1699829101563 1923.818969726563 L 694.4600219726563 1933.985961914063 C 693.0339965820313 1933.930053710938 691.6090087890625 1933.89404296875 690.1849975585938 1933.880004882813 L 673.5789794921875 1912.881958007813 L 641.4539794921875 1925.68603515625 L 641.905029296875 1941.535034179688 C 639.18798828125 1942.447998046875 636.4929809570313 1943.446044921875 633.8200073242188 1944.52099609375 L 622.85498046875 1930.656005859375 L 590.72998046875 1943.4599609375 L 591.4949951171875 1970.324951171875 C 590.6749877929688 1971.035034179688 589.8599853515625 1971.7509765625 589.0560302734375 1972.47900390625 L 581.760986328125 1963.254028320313 L 549.635986328125 1976.057983398438 L 550.6209716796875 2010.619018554688 L 557.8410034179688 2012.621948242188 C 557.8010864257813 2012.696044921875 557.7630004882813 2012.77294921875 557.7230224609375 2012.848022460938 L 528.2529907226563 2024.593017578125 L 529.2379760742188 2059.154052734375 L 541.8010864257813 2062.639892578125 C 541.6649780273438 2063.64892578125 541.5360107421875 2064.657958984375 541.4210205078125 2065.6669921875 L 521.3099975585938 2073.68310546875 L 522.2940063476563 2108.243896484375 L 543.97998046875 2114.259033203125 C 544.3309936523438 2115.843017578125 544.6990356445313 2117.422119140625 545.1010131835938 2118.989990234375 L 532.635986328125 2123.9580078125 L 533.6209716796875 2158.51904296875 L 567.0510864257813 2167.7919921875 L 567.322021484375 2167.39599609375 C 567.4310302734375 2167.552978515625 567.5440063476563 2167.7080078125 567.6539916992188 2167.864013671875 L 564.5510864257813 2169.10107421875 L 565.5360107421875 2203.662109375 L 598.9660034179688 2212.93505859375 L 604.6710205078125 2204.593017578125 C 605.8510131835938 2205.407958984375 607.0419921875 2206.2119140625 608.2490234375 2206.993896484375 L 608.8779907226563 2229.072021484375 L 642.3079833984375 2238.344970703125 L 650.8619995117188 2225.837890625 C 654.7520141601563 2226.8701171875 658.64697265625 2227.738037109375 662.5419921875 2228.445068359375 L 662.85302734375 2239.3720703125 L 696.2830200195313 2248.64501953125 M 715.072998046875 2221.1689453125 L 715.1079711914063 2222.373046875 C 714.7780151367188 2222.43505859375 714.4500122070313 2222.50390625 714.1190185546875 2222.56396484375 L 715.072998046875 2221.1689453125 M 662.3670043945313 2222.320068359375 C 659.72802734375 2221.81689453125 657.0900268554688 2221.2451171875 654.4530029296875 2220.5869140625 L 662.0029907226563 2209.547119140625 L 662.3670043945313 2222.320068359375 M 693.9929809570313 2192.007080078125 L 661.8679809570313 2204.81103515625 L 662.0020141601563 2209.5048828125 L 640.0189819335938 2181.70703125 L 612.9420166015625 2192.4990234375 L 618.6749877929688 2184.114990234375 L 596.676025390625 2156.297119140625 L 573.3930053710938 2165.576904296875 C 572.5640869140625 2164.423095703125 571.7509765625 2163.258056640625 570.9569702148438 2162.0810546875 L 586.760986328125 2138.971923828125 L 564.760986328125 2111.154052734375 L 558.3200073242188 2113.720947265625 L 575.4340209960938 2088.697021484375 L 558.4879760742188 2067.26904296875 L 562.6680297851563 2068.427978515625 L 582.3770141601563 2039.608032226563 L 563.1890869140625 2015.343994140625 C 563.3800048828125 2014.983032226563 563.5750122070313 2014.625 563.77001953125 2014.265991210938 L 584.0499877929688 2019.891967773438 L 603.760009765625 1991.072021484375 L 593.9240112304688 1978.634033203125 L 625.1439819335938 1987.295043945313 L 643.4500122070313 1960.526977539063 L 675.8679809570313 1969.52001953125 L 694.68798828125 1942.0009765625 L 695.155029296875 1958.380004882813 L 728.5850219726563 1967.652954101563 L 740.8519897460938 1949.715942382813 C 741.5910034179688 1950.004028320313 742.3259887695313 1950.300048828125 743.0590209960938 1950.598999023438 L 743.9290161132813 1981.109985351563 L 777.3579711914063 1990.383056640625 L 780.5250244140625 1985.754028320313 L 781.4130249023438 2016.912963867188 L 812.1290283203125 2025.433959960938 L 803.0430297851563 2029.055053710938 L 804.0280151367188 2063.615966796875 L 830.9979858398438 2071.097900390625 C 831.0419921875 2071.64892578125 831.0819702148438 2072.200927734375 831.1190185546875 2072.7529296875 L 807.3519897460938 2082.22607421875 L 808.3359985351563 2116.787109375 L 825.3870239257813 2121.51708984375 L 794.2310180664063 2133.93505859375 L 795.10302734375 2164.52001953125 L 791.9739990234375 2160.56396484375 L 759.8489990234375 2173.367919921875 L 760.7589721679688 2205.297119140625 L 760.7540283203125 2205.300048828125 L 746.6010131835938 2187.404052734375 L 714.4760131835938 2200.2080078125 L 714.9990234375 2218.569091796875 L 693.9929809570313 2192.007080078125 M 799.0980224609375 2169.572998046875 L 801.1240234375 2170.134033203125 C 800.8610229492188 2170.468994140625 800.5999755859375 2170.804931640625 800.3350219726563 2171.136962890625 L 799.0980224609375 2169.572998046875 M 550.5659790039063 2116.0869140625 L 551.6389770507813 2116.384033203125 L 550.7280883789063 2116.7470703125 C 550.6730346679688 2116.527099609375 550.6199951171875 2116.306884765625 550.5659790039063 2116.0869140625 M 817.85498046875 2021.781005859375 C 818.0369873046875 2022.166015625 818.2080078125 2022.553955078125 818.385986328125 2022.93994140625 L 816.5670166015625 2023.6650390625 L 817.85498046875 2021.781005859375 M 785.8770141601563 1977.927001953125 C 786.4400024414063 1978.452026367188 787.0029907226563 1978.97705078125 787.5579833984375 1979.510009765625 L 783.7589721679688 1981.024047851563 L 785.8770141601563 1977.927001953125 M 642.2960205078125 1955.239013671875 L 637.7130126953125 1949.443969726563 C 639.1630249023438 1948.880981445313 640.6209716796875 1948.343017578125 642.0850219726563 1947.829956054688 L 642.2960205078125 1955.239013671875 M 696.2828979492188 2258.645751953125 C 695.394287109375 2258.645751953125 694.4960327148438 2258.52685546875 693.610107421875 2258.28125 L 660.1801147460938 2249.00830078125 C 656.2386474609375 2247.9150390625 653.3908081054688 2244.545654296875 652.9213256835938 2240.540771484375 L 650.5621337890625 2243.990234375 C 648.6668701171875 2246.761474609375 645.5528564453125 2248.345703125 642.3079223632813 2248.345703125 C 641.4193115234375 2248.345703125 640.52099609375 2248.226806640625 639.6351318359375 2247.981201171875 L 606.2051391601563 2238.708251953125 C 601.976806640625 2237.535400390625 599.0070190429688 2233.742919921875 598.882080078125 2229.356689453125 L 598.6990356445313 2222.93212890625 C 597.897705078125 2222.91064453125 597.0904541015625 2222.79248046875 596.2930908203125 2222.5712890625 L 562.8630981445313 2213.29833984375 C 558.634765625 2212.12548828125 555.6650390625 2208.3330078125 555.5400390625 2203.947021484375 L 554.7078857421875 2174.745849609375 L 530.9480590820313 2168.1552734375 C 526.7197265625 2166.982421875 523.75 2163.190185546875 523.625 2158.803955078125 L 522.6400756835938 2124.242919921875 C 522.5873413085938 2122.39208984375 523.0469360351563 2120.613525390625 523.911865234375 2119.0703125 L 519.6212158203125 2117.880126953125 C 515.3927612304688 2116.707275390625 512.4229736328125 2112.914794921875 512.2980346679688 2108.528564453125 L 511.3140563964844 2073.9677734375 C 511.194580078125 2069.77197265625 513.7081909179688 2065.947998046875 517.6073608398438 2064.393798828125 L 520.1705932617188 2063.3720703125 C 519.608154296875 2062.1640625 519.28173828125 2060.83154296875 519.2420654296875 2059.43896484375 L 518.257080078125 2024.8779296875 C 518.137451171875 2020.681762695313 520.6512451171875 2016.857666015625 524.55078125 2015.303588867188 L 540.5684814453125 2008.919921875 L 539.6400756835938 1976.342895507813 C 539.5205078125 1972.146850585938 542.0341796875 1968.322875976563 545.93359375 1966.768676757813 L 578.05859375 1953.964599609375 C 579.0195922851563 1953.581665039063 580.0128173828125 1953.35693359375 581.005615234375 1953.281860351563 L 580.7340698242188 1943.74462890625 C 580.6145629882813 1939.548706054688 583.1282958984375 1935.724731445313 587.027587890625 1934.170532226563 L 619.152587890625 1921.36669921875 C 620.3565063476563 1920.886840820313 621.6112060546875 1920.655395507813 622.8521728515625 1920.655395507813 C 625.84521484375 1920.655395507813 628.7595825195313 1922.001098632813 630.6986083984375 1924.453002929688 L 631.4576416015625 1925.412719726563 C 631.5650634765625 1921.438842773438 634.0258178710938 1917.881713867188 637.7515258789063 1916.396728515625 L 669.8765258789063 1903.592651367188 C 671.0805053710938 1903.11279296875 672.3352661132813 1902.88134765625 673.576171875 1902.88134765625 C 676.5692749023438 1902.88134765625 679.4835815429688 1904.22705078125 681.422607421875 1906.678955078125 L 688.4758911132813 1915.59765625 C 689.0883178710938 1915.173706054688 689.7547607421875 1914.813720703125 690.4673461914063 1914.529663085938 L 722.5923461914063 1901.724853515625 C 723.7962646484375 1901.244873046875 725.0512084960938 1901.013427734375 726.2921752929688 1901.013427734375 C 729.2852783203125 1901.013427734375 732.1995849609375 1902.359130859375 734.138671875 1904.81103515625 L 754.8728637695313 1931.029418945313 L 771.3665771484375 1924.455688476563 C 772.5704956054688 1923.975830078125 773.8251342773438 1923.744384765625 775.0661010742188 1923.744384765625 C 778.0591430664063 1923.744384765625 780.9736328125 1925.090209960938 782.9126586914063 1927.542114257813 L 804.9116821289063 1955.360107421875 C 806.2169799804688 1957.010620117188 806.9332885742188 1958.977294921875 807.05078125 1960.975952148438 L 808.8507080078125 1960.258544921875 C 810.0546264648438 1959.778686523438 811.3092041015625 1959.54736328125 812.5501708984375 1959.54736328125 C 815.543212890625 1959.54736328125 818.4577026367188 1960.89306640625 820.3966674804688 1963.344970703125 L 842.3956909179688 1991.162963867188 C 845.1111450195313 1994.596801757813 845.2775268554688 1999.3974609375 842.8063354492188 2003.010986328125 L 839.8096313476563 2007.392822265625 C 841.0248413085938 2008.029052734375 842.12109375 2008.921752929688 843.0116577148438 2010.0478515625 L 865.0116577148438 2037.865844726563 C 867.7272338867188 2041.299560546875 867.8936157226563 2046.100463867188 865.42236328125 2049.714111328125 L 852.0750122070313 2069.23095703125 L 869.3197021484375 2091.037109375 C 872.0350952148438 2094.470703125 872.2015380859375 2099.271484375 869.7303466796875 2102.885009765625 L 850.0203857421875 2131.7060546875 C 849.6294555664063 2132.277587890625 849.1866455078125 2132.798583984375 848.7015380859375 2133.265869140625 L 856.1986694335938 2142.74609375 C 858.9141235351563 2146.1796875 859.0805053710938 2150.98046875 856.6094360351563 2154.59375 L 836.9004516601563 2183.4140625 C 835.005126953125 2186.185302734375 831.8909912109375 2187.769775390625 828.6458740234375 2187.769775390625 C 827.7572631835938 2187.769775390625 826.8588256835938 2187.65087890625 825.972900390625 2187.4052734375 L 823.8496704101563 2186.816162109375 C 824.2398681640625 2189.2802734375 823.7054443359375 2191.86669921875 822.2273559570313 2194.028076171875 L 802.5183715820313 2222.847900390625 C 800.6232299804688 2225.618896484375 797.5087280273438 2227.203369140625 794.2638549804688 2227.20361328125 C 793.375 2227.20361328125 792.4769897460938 2227.084716796875 791.5908203125 2226.8388671875 L 775.7722778320313 2222.45068359375 L 757.145263671875 2249.68701171875 C 755.2500610351563 2252.458251953125 752.1358642578125 2254.042724609375 748.890869140625 2254.042724609375 C 748.0022583007813 2254.042724609375 747.10400390625 2253.923828125 746.2181396484375 2253.67822265625 L 712.7880859375 2244.4052734375 C 712.3739013671875 2244.290283203125 711.9718017578125 2244.150390625 711.583251953125 2243.987060546875 L 704.537353515625 2254.2900390625 C 702.6421508789063 2257.061279296875 699.5279541015625 2258.645751953125 696.2828979492188 2258.645751953125 Z M 640.01611328125 2171.706298828125 C 643.0092163085938 2171.706298828125 645.9236450195313 2173.05224609375 647.8626708984375 2175.504150390625 L 662.3682861328125 2193.8466796875 L 690.2905883789063 2182.7177734375 C 691.4945068359375 2182.23779296875 692.7492065429688 2182.00634765625 693.9901733398438 2182.00634765625 C 696.9832153320313 2182.00634765625 699.8976440429688 2183.35205078125 701.836669921875 2185.803955078125 L 707.5346069335938 2193.009033203125 C 708.4500122070313 2192.1259765625 709.5429077148438 2191.4091796875 710.7735595703125 2190.918701171875 L 742.8985595703125 2178.11474609375 C 744.1025390625 2177.634765625 745.357177734375 2177.4033203125 746.59814453125 2177.4033203125 C 747.7530517578125 2177.4033203125 748.89599609375 2177.603759765625 749.9760131835938 2177.99072265625 L 749.85302734375 2173.651123046875 C 749.734130859375 2169.455810546875 752.2477416992188 2165.632568359375 756.1466064453125 2164.07861328125 L 784.7611694335938 2152.673828125 L 784.2350463867188 2134.219970703125 C 784.1154174804688 2130.02392578125 786.6290893554688 2126.199951171875 790.5285034179688 2124.645751953125 L 799.3312377929688 2121.13720703125 C 798.73046875 2119.89453125 798.3811645507813 2118.51513671875 798.340087890625 2117.07177734375 L 797.3560791015625 2082.5107421875 C 797.2499389648438 2078.783935546875 799.220947265625 2075.350830078125 802.3950805664063 2073.54052734375 L 801.3547973632813 2073.251953125 C 797.1266479492188 2072.0791015625 794.1570434570313 2068.286865234375 794.0320434570313 2063.90087890625 L 793.0809326171875 2030.527465820313 L 778.7398681640625 2026.549072265625 C 774.51171875 2025.376098632813 771.5420532226563 2021.583862304688 771.4170532226563 2017.197875976563 L 770.8975219726563 1998.968505859375 L 741.2559814453125 1990.74609375 C 737.0277709960938 1989.5732421875 734.05810546875 1985.781005859375 733.9330444335938 1981.39501953125 L 733.7847900390625 1976.195190429688 C 732.226318359375 1977.143188476563 730.4266357421875 1977.653564453125 728.5848388671875 1977.653564453125 C 727.6962890625 1977.653564453125 726.7980346679688 1977.534790039063 725.912109375 1977.2890625 L 692.4821166992188 1968.01611328125 C 691.5231323242188 1967.750122070313 690.6285400390625 1967.349243164063 689.8175659179688 1966.83740234375 L 684.122314453125 1975.1650390625 C 682.2271728515625 1977.936157226563 679.1126708984375 1979.5205078125 675.8678588867188 1979.520751953125 C 674.97900390625 1979.520751953125 674.0809936523438 1979.401977539063 673.19482421875 1979.156127929688 L 647.6676635742188 1972.074584960938 L 633.3983764648438 1992.940063476563 C 631.5032348632813 1995.711181640625 628.3887939453125 1997.295532226563 625.1439208984375 1997.295776367188 C 624.2550048828125 1997.295776367188 623.35693359375 1997.177001953125 622.4707641601563 1996.93115234375 L 613.2046508789063 1994.360473632813 C 612.9187622070313 1995.181518554688 612.5222778320313 1995.974365234375 612.0142822265625 1996.717163085938 L 592.3042602539063 2025.537109375 C 591.0120849609375 2027.426513671875 589.1531372070313 2028.76416015625 587.0726318359375 2029.424194335938 L 590.2208251953125 2033.405151367188 C 592.9360961914063 2036.8388671875 593.1024780273438 2041.639526367188 590.6314086914063 2045.2529296875 L 573.5635986328125 2070.210693359375 L 583.2776489257813 2082.493896484375 C 585.9931640625 2085.927734375 586.1595458984375 2090.728759765625 583.6882934570313 2094.342041015625 L 574.6575317382813 2107.546875 L 594.6045532226563 2132.768798828125 C 597.3201293945313 2136.202392578125 597.486572265625 2141.00341796875 595.0153198242188 2144.616943359375 L 593.515869140625 2146.809326171875 C 594.5516967773438 2146.464111328125 595.6174926757813 2146.29638671875 596.6731567382813 2146.29638671875 C 599.666259765625 2146.29638671875 602.5806884765625 2147.642333984375 604.5197143554688 2150.09423828125 L 625.5630493164063 2176.70361328125 L 636.3165893554688 2172.417724609375 C 637.5205688476563 2171.937744140625 638.7752075195313 2171.706298828125 640.01611328125 2171.706298828125 Z"/>
    </g>
    <path id="路径_5332" data-name="路径 5332" class="cls-2" d="M688.884,2230.839a148.074,148.074,0,0,1-39.635-5.419c-78.875-21.88-125.243-103.851-103.363-182.726a148.446,148.446,0,1,1,286.089,79.362h0C813.763,2187.707,753.92,2230.838,688.884,2230.839Zm-.174-290.974A142.639,142.639,0,0,0,551.667,2044.3c-20.995,75.687,23.5,154.344,99.186,175.34s154.344-23.5,175.341-99.185l2.89.8-2.89-.8a142.449,142.449,0,0,0-99.187-175.341A143.189,143.189,0,0,0,688.71,1939.865Z"/>
    <path id="路径_5333" data-name="路径 5333" class="cls-3" d="M622.855,1930.656l-32.125,12.8.985,34.561,33.43,9.273,19.71-28.82Z"/>
    <path id="路径_5334" data-name="路径 5334" class="cls-4" d="M619.214,1944.814l-16.008,6.38.491,17.222,16.658,4.621,9.822-14.361Z"/>
    <path id="路径_5335" data-name="路径 5335" class="cls-5" d="M622.855,1930.656l-3.641,14.157-16.008,6.38-12.476-7.734Z"/>
    <path id="路径_5336" data-name="路径 5336" class="cls-6" d="M603.7,1968.416l-11.982,9.605-.985-34.561,12.476,7.734Z"/>
    <path id="路径_5337" data-name="路径 5337" class="cls-7" d="M620.355,1973.037l4.789,14.258,19.71-28.82-14.677.2Z"/>
    <path id="路径_5338" data-name="路径 5338" class="cls-8" d="M622.855,1930.656l-3.641,14.157,10.962,13.862,14.677-.2Z"/>
    <path id="路径_5339" data-name="路径 5339" class="cls-3" d="M673.579,1912.882l-32.125,12.8.985,34.561,33.43,9.273,19.71-28.82Z"/>
    <path id="路径_5340" data-name="路径 5340" class="cls-4" d="M669.938,1927.039l-16.008,6.38.491,17.222,16.658,4.621L680.9,1940.9Z"/>
    <path id="路径_5341" data-name="路径 5341" class="cls-5" d="M673.579,1912.882l-3.641,14.157-16.008,6.38-12.476-7.734Z"/>
    <path id="路径_5342" data-name="路径 5342" class="cls-6" d="M654.421,1950.642l-11.982,9.605-.985-34.561,12.476,7.734Z"/>
    <path id="路径_5343" data-name="路径 5343" class="cls-7" d="M671.079,1955.263l4.789,14.258,19.71-28.82-14.677.2Z"/>
    <path id="路径_5344" data-name="路径 5344" class="cls-8" d="M673.579,1912.882l-3.641,14.157L680.9,1940.9l14.677-.2Z"/>
    <path id="路径_5345" data-name="路径 5345" class="cls-9" d="M581.761,1963.254l-32.125,12.8.985,34.561,33.43,9.273,19.71-28.82Z"/>
    <path id="路径_5346" data-name="路径 5346" class="cls-10" d="M578.12,1977.411l-16.008,6.38.491,17.222,16.658,4.621,9.822-14.361Z"/>
    <path id="路径_5347" data-name="路径 5347" class="cls-11" d="M581.761,1963.254l-3.641,14.157-16.008,6.38-12.476-7.734Z"/>
    <path id="路径_5348" data-name="路径 5348" class="cls-12" d="M562.6,2001.013l-11.982,9.605-.985-34.561,12.476,7.734Z"/>
    <path id="路径_5349" data-name="路径 5349" class="cls-13" d="M579.261,2005.634l4.789,14.258,19.71-28.82-14.677.2Z"/>
    <path id="路径_5350" data-name="路径 5350" class="cls-14" d="M581.761,1963.254l-3.641,14.157,10.962,13.862,14.677-.2Z"/>
    <path id="路径_5351" data-name="路径 5351" class="cls-3" d="M560.378,2011.789l-32.125,12.8.985,34.561,33.43,9.273,19.71-28.82Z"/>
    <path id="路径_5352" data-name="路径 5352" class="cls-4" d="M556.737,2025.947l-16.008,6.38.491,17.222,16.658,4.621,9.822-14.361Z"/>
    <path id="路径_5353" data-name="路径 5353" class="cls-5" d="M560.378,2011.789l-3.641,14.157-16.008,6.38-12.476-7.734Z"/>
    <path id="路径_5354" data-name="路径 5354" class="cls-6" d="M541.22,2049.549l-11.982,9.605-.985-34.561,12.476,7.734Z"/>
    <path id="路径_5355" data-name="路径 5355" class="cls-7" d="M557.878,2054.17l4.789,14.258,19.71-28.82-14.677.2Z"/>
    <path id="路径_5356" data-name="路径 5356" class="cls-8" d="M560.378,2011.789l-3.641,14.157,10.962,13.862,14.677-.2Z"/>
    <path id="路径_5357" data-name="路径 5357" class="cls-9" d="M553.435,2060.879l-32.125,12.8.985,34.561,33.43,9.273,19.71-28.82Z"/>
    <path id="路径_5358" data-name="路径 5358" class="cls-10" d="M549.794,2075.036l-16.008,6.38.491,17.222,16.658,4.621,9.822-14.361Z"/>
    <path id="路径_5359" data-name="路径 5359" class="cls-11" d="M553.435,2060.879l-3.641,14.157-16.008,6.38-12.476-7.734Z"/>
    <path id="路径_5360" data-name="路径 5360" class="cls-12" d="M534.277,2098.639l-11.982,9.605-.985-34.561,12.476,7.734Z"/>
    <path id="路径_5361" data-name="路径 5361" class="cls-13" d="M550.935,2103.26l4.789,14.258,19.71-28.82-14.677.2Z"/>
    <path id="路径_5362" data-name="路径 5362" class="cls-14" d="M553.435,2060.879l-3.641,14.157,10.962,13.862,14.677-.2Z"/>
    <path id="路径_5363" data-name="路径 5363" class="cls-3" d="M564.761,2111.154l-32.125,12.8.985,34.561,33.43,9.274,19.71-28.82Z"/>
    <path id="路径_5364" data-name="路径 5364" class="cls-4" d="M561.121,2125.311l-16.008,6.38.491,17.222,16.658,4.621,9.822-14.361Z"/>
    <path id="路径_5365" data-name="路径 5365" class="cls-5" d="M564.761,2111.154l-3.641,14.157-16.008,6.38-12.476-7.734Z"/>
    <path id="路径_5366" data-name="路径 5366" class="cls-6" d="M545.6,2148.914l-11.982,9.605-.985-34.561,12.476,7.734Z"/>
    <path id="路径_5367" data-name="路径 5367" class="cls-7" d="M562.261,2153.535l4.789,14.258,19.71-28.82-14.677.2Z"/>
    <path id="路径_5368" data-name="路径 5368" class="cls-8" d="M564.761,2111.154l-3.641,14.157,10.962,13.862,14.677-.2Z"/>
    <path id="路径_5369" data-name="路径 5369" class="cls-3" d="M596.676,2156.3l-32.125,12.8.985,34.561,33.43,9.273,19.71-28.82Z"/>
    <path id="路径_5370" data-name="路径 5370" class="cls-4" d="M593.035,2170.455l-16.008,6.38.491,17.222,16.658,4.621L604,2184.317Z"/>
    <path id="路径_5371" data-name="路径 5371" class="cls-5" d="M596.676,2156.3l-3.641,14.157-16.008,6.38-12.476-7.734Z"/>
    <path id="路径_5372" data-name="路径 5372" class="cls-6" d="M577.518,2194.057l-11.982,9.605-.985-34.561,12.476,7.734Z"/>
    <path id="路径_5373" data-name="路径 5373" class="cls-7" d="M594.176,2198.678l4.789,14.258,19.71-28.82-14.677.2Z"/>
    <path id="路径_5374" data-name="路径 5374" class="cls-8" d="M596.676,2156.3l-3.641,14.157L604,2184.317l14.677-.2Z"/>
    <path id="路径_5375" data-name="路径 5375" class="cls-9" d="M693.993,2192.007l-32.125,12.8.985,34.561,33.43,9.274,19.71-28.82Z"/>
    <path id="路径_5376" data-name="路径 5376" class="cls-10" d="M690.353,2206.164l-16.008,6.38.491,17.222,16.658,4.621,9.822-14.361Z"/>
    <path id="路径_5377" data-name="路径 5377" class="cls-11" d="M693.993,2192.007l-3.641,14.157-16.008,6.38-12.476-7.734Z"/>
    <path id="路径_5378" data-name="路径 5378" class="cls-12" d="M674.835,2229.766l-11.982,9.605-.985-34.561,12.476,7.734Z"/>
    <path id="路径_5379" data-name="路径 5379" class="cls-13" d="M691.493,2234.387l4.789,14.258,19.71-28.82-14.677.2Z"/>
    <path id="路径_5380" data-name="路径 5380" class="cls-14" d="M693.993,2192.007l-3.641,14.157,10.962,13.862,14.677-.2Z"/>
    <path id="路径_5381" data-name="路径 5381" class="cls-9" d="M640.019,2181.707l-32.125,12.8.985,34.561,33.43,9.274,19.71-28.82Z"/>
    <path id="路径_5382" data-name="路径 5382" class="cls-10" d="M636.378,2195.864l-16.008,6.38.491,17.222,16.658,4.621,9.822-14.361Z"/>
    <path id="路径_5383" data-name="路径 5383" class="cls-11" d="M640.019,2181.707l-3.641,14.157-16.008,6.38-12.476-7.734Z"/>
    <path id="路径_5384" data-name="路径 5384" class="cls-12" d="M620.861,2219.467l-11.982,9.605-.985-34.561,12.476,7.734Z"/>
    <path id="路径_5385" data-name="路径 5385" class="cls-13" d="M637.519,2224.088l4.789,14.258,19.71-28.82-14.677.2Z"/>
    <path id="路径_5386" data-name="路径 5386" class="cls-14" d="M640.019,2181.707l-3.641,14.157,10.962,13.862,14.677-.2Z"/>
    <path id="路径_5387" data-name="路径 5387" class="cls-3" d="M746.6,2187.4l-32.125,12.8.985,34.561,33.43,9.273,19.71-28.82Z"/>
    <path id="路径_5388" data-name="路径 5388" class="cls-4" d="M742.961,2201.562l-16.008,6.38.491,17.222,16.658,4.621,9.822-14.361Z"/>
    <path id="路径_5389" data-name="路径 5389" class="cls-5" d="M746.6,2187.4l-3.641,14.157-16.008,6.38-12.476-7.734Z"/>
    <path id="路径_5390" data-name="路径 5390" class="cls-6" d="M727.443,2225.164l-11.982,9.605-.985-34.561,12.476,7.734Z"/>
    <path id="路径_5391" data-name="路径 5391" class="cls-7" d="M744.1,2229.785l4.789,14.258,19.71-28.82-14.677.2Z"/>
    <path id="路径_5392" data-name="路径 5392" class="cls-8" d="M746.6,2187.4l-3.641,14.157,10.962,13.862,14.677-.2Z"/>
    <path id="路径_5393" data-name="路径 5393" class="cls-3" d="M791.974,2160.564l-32.125,12.8.985,34.561,33.43,9.273,19.71-28.82Z"/>
    <path id="路径_5394" data-name="路径 5394" class="cls-4" d="M788.334,2174.722l-16.008,6.38.491,17.222,16.658,4.621,9.822-14.361Z"/>
    <path id="路径_5395" data-name="路径 5395" class="cls-5" d="M791.974,2160.564l-3.641,14.157-16.008,6.38-12.476-7.734Z"/>
    <path id="路径_5396" data-name="路径 5396" class="cls-6" d="M772.816,2198.324l-11.982,9.605-.985-34.561,12.476,7.734Z"/>
    <path id="路径_5397" data-name="路径 5397" class="cls-7" d="M789.474,2202.945l4.789,14.258,19.71-28.82-14.677.2Z"/>
    <path id="路径_5398" data-name="路径 5398" class="cls-8" d="M791.974,2160.564l-3.641,14.157,10.962,13.862,14.677-.2Z"/>
    <path id="路径_5399" data-name="路径 5399" class="cls-9" d="M839.477,2069.422l-32.125,12.8.985,34.561,33.43,9.274,19.71-28.82Z"/>
    <path id="路径_5400" data-name="路径 5400" class="cls-10" d="M835.836,2083.58l-16.008,6.38.491,17.222,16.658,4.621,9.822-14.361Z"/>
    <path id="路径_5401" data-name="路径 5401" class="cls-11" d="M839.477,2069.422l-3.641,14.157-16.008,6.38-12.476-7.734Z"/>
    <path id="路径_5402" data-name="路径 5402" class="cls-12" d="M820.319,2107.182l-11.982,9.605-.985-34.561,12.476,7.734Z"/>
    <path id="路径_5403" data-name="路径 5403" class="cls-13" d="M836.977,2111.8l4.789,14.258,19.71-28.82-14.677.2Z"/>
    <path id="路径_5404" data-name="路径 5404" class="cls-14" d="M839.477,2069.422l-3.641,14.157,10.962,13.862,14.677-.2Z"/>
    <path id="路径_5405" data-name="路径 5405" class="cls-9" d="M726.3,1911.015l-32.125,12.8.985,34.561,33.43,9.274,19.71-28.82Z"/>
    <path id="路径_5406" data-name="路径 5406" class="cls-10" d="M722.655,1925.172l-16.008,6.38.491,17.222L723.8,1953.4l9.822-14.361Z"/>
    <path id="路径_5407" data-name="路径 5407" class="cls-11" d="M726.3,1911.015l-3.641,14.157-16.008,6.38-12.476-7.734Z"/>
    <path id="路径_5408" data-name="路径 5408" class="cls-12" d="M707.137,1948.774l-11.982,9.605-.985-34.561,12.476,7.734Z"/>
    <path id="路径_5409" data-name="路径 5409" class="cls-13" d="M723.8,1953.4l4.789,14.258,19.71-28.82-14.677.2Z"/>
    <path id="路径_5410" data-name="路径 5410" class="cls-14" d="M726.3,1911.015l-3.641,14.157,10.962,13.862,14.677-.2Z"/>
    <path id="路径_5411" data-name="路径 5411" class="cls-9" d="M775.069,1933.745l-32.125,12.8.985,34.561,33.43,9.273,19.71-28.82Z"/>
    <path id="路径_5412" data-name="路径 5412" class="cls-10" d="M771.428,1947.9l-16.008,6.38.491,17.222,16.658,4.621,9.822-14.361Z"/>
    <path id="路径_5413" data-name="路径 5413" class="cls-11" d="M775.069,1933.745l-3.641,14.157-16.008,6.38-12.476-7.734Z"/>
    <path id="路径_5414" data-name="路径 5414" class="cls-12" d="M755.911,1971.5l-11.982,9.605-.985-34.561,12.476,7.734Z"/>
    <path id="路径_5415" data-name="路径 5415" class="cls-13" d="M772.569,1976.126l4.789,14.258,19.71-28.82-14.677.2Z"/>
    <path id="路径_5416" data-name="路径 5416" class="cls-14" d="M775.069,1933.745l-3.641,14.157,10.962,13.862,14.677-.2Z"/>
    <path id="路径_5417" data-name="路径 5417" class="cls-9" d="M826.356,2121.131l-32.125,12.8.985,34.561,33.43,9.273,19.71-28.82Z"/>
    <path id="路径_5418" data-name="路径 5418" class="cls-10" d="M822.716,2135.288l-16.008,6.38.491,17.222,16.658,4.621,9.822-14.362Z"/>
    <path id="路径_5419" data-name="路径 5419" class="cls-11" d="M826.356,2121.131l-3.641,14.157-16.008,6.38-12.476-7.734Z"/>
    <path id="路径_5420" data-name="路径 5420" class="cls-12" d="M807.2,2158.891l-11.982,9.605-.985-34.561,12.476,7.734Z"/>
    <path id="路径_5421" data-name="路径 5421" class="cls-13" d="M823.856,2163.512l4.789,14.258,19.71-28.82-14.677.2Z"/>
    <path id="路径_5422" data-name="路径 5422" class="cls-14" d="M826.356,2121.131l-3.641,14.157,10.962,13.862,14.677-.2Z"/>
    <path id="路径_5423" data-name="路径 5423" class="cls-3" d="M835.168,2016.251l-32.125,12.8.985,34.561,33.43,9.273,19.71-28.82Z"/>
    <path id="路径_5424" data-name="路径 5424" class="cls-4" d="M831.528,2030.409l-16.008,6.38.491,17.222,16.658,4.621,9.822-14.361Z"/>
    <path id="路径_5425" data-name="路径 5425" class="cls-5" d="M835.168,2016.251l-3.641,14.157-16.008,6.38-12.476-7.734Z"/>
    <path id="路径_5426" data-name="路径 5426" class="cls-6" d="M816.01,2054.011l-11.982,9.605-.985-34.561,12.476,7.734Z"/>
    <path id="路径_5427" data-name="路径 5427" class="cls-7" d="M832.669,2058.632l4.789,14.258,19.71-28.82-14.677.2Z"/>
    <path id="路径_5428" data-name="路径 5428" class="cls-8" d="M835.168,2016.251l-3.641,14.157,10.962,13.862,14.677-.2Z"/>
    <path id="路径_5429" data-name="路径 5429" class="cls-3" d="M812.553,1969.548l-32.125,12.8.985,34.561,33.43,9.273,19.71-28.82Z"/>
    <path id="路径_5430" data-name="路径 5430" class="cls-4" d="M808.912,1983.706l-16.008,6.38.491,17.222,16.658,4.621,9.822-14.361Z"/>
    <path id="路径_5431" data-name="路径 5431" class="cls-5" d="M812.553,1969.548l-3.641,14.157-16.008,6.38-12.476-7.734Z"/>
    <path id="路径_5432" data-name="路径 5432" class="cls-6" d="M793.395,2007.308l-11.982,9.605-.985-34.561,12.476,7.734Z"/>
    <path id="路径_5433" data-name="路径 5433" class="cls-7" d="M810.053,2011.929l4.789,14.258,19.71-28.82-14.677.2Z"/>
    <path id="路径_5434" data-name="路径 5434" class="cls-8" d="M812.553,1969.548l-3.641,14.157,10.962,13.862,14.677-.2Z"/>
  </g>
</svg>
