<svg xmlns="http://www.w3.org/2000/svg" width="338.159" height="322.491" viewBox="0 0 338.159 322.491">
  <defs>
    <style>
      .cls-1 {
        fill: none;
        stroke: #cf6f6f;
        stroke-miterlimit: 10;
        stroke-width: 6px;
      }

      .cls-2 {
        fill: #0dd79b;
      }

      .cls-3 {
        fill: #54ebbb;
      }

      .cls-4 {
        fill: #ccebdd;
      }

      .cls-5 {
        fill: #16bf92;
      }

      .cls-6 {
        fill: #3ad2a7;
      }

      .cls-7 {
        fill: #8ce8cb;
      }

      .cls-8 {
        fill: #f4460f;
      }

      .cls-9 {
        fill: #ff805a;
      }

      .cls-10 {
        fill: #ffe5de;
      }

      .cls-11 {
        fill: #dc4a19;
      }

      .cls-12 {
        fill: #ef6c41;
      }

      .cls-13 {
        fill: #ffb29b;
      }
    </style>
  </defs>
  <g id="组_2389" data-name="组 2389" transform="translate(-26.224 -1423.25)">
    <circle id="椭圆_673" data-name="椭圆 673" class="cls-1" cx="145.447" cy="145.447" r="145.447" transform="translate(46.518 1427.123)"/>
    <g id="组_2376" data-name="组 2376">
      <path id="路径_4969" data-name="路径 4969" class="cls-2" d="M114.826,1426.339l-32.125,12.8.985,34.561,33.43,9.274,19.71-28.82Z"/>
      <path id="路径_4970" data-name="路径 4970" class="cls-3" d="M111.186,1440.5l-16.008,6.38.491,17.222,16.658,4.621,9.822-14.361Z"/>
      <path id="路径_4971" data-name="路径 4971" class="cls-4" d="M114.826,1426.339l-3.641,14.157-16.008,6.38L82.7,1439.143Z"/>
      <path id="路径_4972" data-name="路径 4972" class="cls-5" d="M95.668,1464.1,83.686,1473.7l-.985-34.561,12.476,7.734Z"/>
      <path id="路径_4973" data-name="路径 4973" class="cls-6" d="M112.327,1468.72l4.789,14.258,19.71-28.82-14.677.2Z"/>
      <path id="路径_4974" data-name="路径 4974" class="cls-7" d="M114.826,1426.339l-3.641,14.157,10.962,13.862,14.677-.2Z"/>
    </g>
    <g id="组_2377" data-name="组 2377">
      <path id="路径_4975" data-name="路径 4975" class="cls-8" d="M74.932,1465.09l-32.125,12.8.985,34.561,33.43,9.274,19.71-28.82Z"/>
      <path id="路径_4976" data-name="路径 4976" class="cls-9" d="M71.292,1479.247l-16.008,6.38.491,17.222,16.658,4.621,9.822-14.361Z"/>
      <path id="路径_4977" data-name="路径 4977" class="cls-10" d="M74.932,1465.09l-3.641,14.157-16.008,6.38-12.476-7.734Z"/>
      <path id="路径_4978" data-name="路径 4978" class="cls-11" d="M55.774,1502.85l-11.982,9.605-.985-34.561,12.476,7.734Z"/>
      <path id="路径_4979" data-name="路径 4979" class="cls-12" d="M72.432,1507.471l4.789,14.258,19.71-28.82-14.677.2Z"/>
      <path id="路径_4980" data-name="路径 4980" class="cls-13" d="M74.932,1465.09l-3.641,14.157,10.962,13.862,14.677-.2Z"/>
    </g>
    <g id="组_2378" data-name="组 2378">
      <path id="路径_4981" data-name="路径 4981" class="cls-2" d="M58.349,1522.808l-32.125,12.8.985,34.561,33.43,9.273,19.71-28.82Z"/>
      <path id="路径_4982" data-name="路径 4982" class="cls-3" d="M54.709,1536.966l-16.008,6.38.491,17.222,16.658,4.621,9.822-14.361Z"/>
      <path id="路径_4983" data-name="路径 4983" class="cls-4" d="M58.349,1522.808l-3.641,14.157-16.008,6.38-12.476-7.734Z"/>
      <path id="路径_4984" data-name="路径 4984" class="cls-5" d="M39.191,1560.568l-11.982,9.605-.985-34.561,12.476,7.734Z"/>
      <path id="路径_4985" data-name="路径 4985" class="cls-6" d="M55.85,1565.189l4.789,14.258,19.71-28.82-14.677.2Z"/>
      <path id="路径_4986" data-name="路径 4986" class="cls-7" d="M58.349,1522.808l-3.641,14.157,10.962,13.862,14.677-.2Z"/>
    </g>
    <g id="组_2379" data-name="组 2379">
      <path id="路径_4987" data-name="路径 4987" class="cls-8" d="M62.115,1582.992,29.99,1595.8l.985,34.561,33.43,9.273,19.71-28.82Z"/>
      <path id="路径_4988" data-name="路径 4988" class="cls-9" d="M58.475,1597.15l-16.008,6.38.491,17.222,16.658,4.621,9.822-14.361Z"/>
      <path id="路径_4989" data-name="路径 4989" class="cls-10" d="M62.115,1582.992l-3.641,14.157-16.008,6.38L29.99,1595.8Z"/>
      <path id="路径_4990" data-name="路径 4990" class="cls-11" d="M42.957,1620.752l-11.982,9.605L29.99,1595.8l12.476,7.734Z"/>
      <path id="路径_4991" data-name="路径 4991" class="cls-12" d="M59.616,1625.373l4.789,14.258,19.71-28.82-14.677.2Z"/>
      <path id="路径_4992" data-name="路径 4992" class="cls-13" d="M62.115,1582.992l-3.641,14.157,10.962,13.862,14.677-.2Z"/>
    </g>
    <g id="组_2380" data-name="组 2380">
      <path id="路径_4993" data-name="路径 4993" class="cls-2" d="M86.015,1635.262l-32.125,12.8.985,34.561L88.3,1691.9l19.71-28.82Z"/>
      <path id="路径_4994" data-name="路径 4994" class="cls-3" d="M82.375,1649.419l-16.008,6.38.491,17.222,16.658,4.621,9.822-14.361Z"/>
      <path id="路径_4995" data-name="路径 4995" class="cls-4" d="M86.015,1635.262l-3.641,14.157-16.008,6.38-12.476-7.734Z"/>
      <path id="路径_4996" data-name="路径 4996" class="cls-5" d="M66.857,1673.022l-11.982,9.605-.985-34.561,12.476,7.734Z"/>
      <path id="路径_4997" data-name="路径 4997" class="cls-6" d="M83.516,1677.643,88.3,1691.9l19.71-28.82-14.677.2Z"/>
      <path id="路径_4998" data-name="路径 4998" class="cls-7" d="M86.015,1635.262l-3.641,14.157,10.962,13.862,14.677-.2Z"/>
    </g>
    <g id="组_2381" data-name="组 2381">
      <path id="路径_4999" data-name="路径 4999" class="cls-8" d="M134.677,1671.96l-32.125,12.8.985,34.561,33.43,9.274,19.71-28.82Z"/>
      <path id="路径_5000" data-name="路径 5000" class="cls-9" d="M131.037,1686.117l-16.008,6.38.491,17.222,16.658,4.621L142,1699.979Z"/>
      <path id="路径_5001" data-name="路径 5001" class="cls-10" d="M134.677,1671.96l-3.641,14.157-16.008,6.38-12.476-7.734Z"/>
      <path id="路径_5002" data-name="路径 5002" class="cls-11" d="M115.519,1709.72l-11.982,9.605-.985-34.561,12.476,7.734Z"/>
      <path id="路径_5003" data-name="路径 5003" class="cls-12" d="M132.177,1714.341l4.789,14.258,19.71-28.82-14.677.2Z"/>
      <path id="路径_5004" data-name="路径 5004" class="cls-13" d="M134.677,1671.96l-3.641,14.157L142,1699.979l14.677-.2Z"/>
    </g>
    <g id="组_2382" data-name="组 2382">
      <path id="路径_5005" data-name="路径 5005" class="cls-2" d="M196.475,1689.1l-32.125,12.8.985,34.561,33.43,9.274,19.71-28.82Z"/>
      <path id="路径_5006" data-name="路径 5006" class="cls-3" d="M192.835,1703.26l-16.008,6.38.491,17.222,16.658,4.621,9.822-14.361Z"/>
      <path id="路径_5007" data-name="路径 5007" class="cls-4" d="M196.475,1689.1l-3.641,14.157-16.008,6.38-12.476-7.734Z"/>
      <path id="路径_5008" data-name="路径 5008" class="cls-5" d="M177.317,1726.863l-11.982,9.605-.985-34.561,12.476,7.734Z"/>
      <path id="路径_5009" data-name="路径 5009" class="cls-6" d="M193.976,1731.484l4.789,14.258,19.71-28.82-14.677.2Z"/>
      <path id="路径_5010" data-name="路径 5010" class="cls-7" d="M196.475,1689.1l-3.641,14.157,10.962,13.862,14.677-.2Z"/>
    </g>
    <g id="组_2383" data-name="组 2383">
      <path id="路径_5011" data-name="路径 5011" class="cls-8" d="M256.119,1680.436l-32.125,12.8.985,34.561,33.43,9.274,19.71-28.82Z"/>
      <path id="路径_5012" data-name="路径 5012" class="cls-9" d="M252.479,1694.593l-16.008,6.38.491,17.222,16.658,4.621,9.822-14.361Z"/>
      <path id="路径_5013" data-name="路径 5013" class="cls-10" d="M256.119,1680.436l-3.641,14.157-16.008,6.38-12.476-7.734Z"/>
      <path id="路径_5014" data-name="路径 5014" class="cls-11" d="M236.961,1718.2l-11.982,9.605-.985-34.561,12.476,7.734Z"/>
      <path id="路径_5015" data-name="路径 5015" class="cls-12" d="M253.62,1722.817l4.789,14.258,19.71-28.82-14.677.2Z"/>
      <path id="路径_5016" data-name="路径 5016" class="cls-13" d="M256.119,1680.436l-3.641,14.157,10.962,13.862,14.677-.2Z"/>
    </g>
    <g id="组_2384" data-name="组 2384">
      <path id="路径_5017" data-name="路径 5017" class="cls-2" d="M307.764,1646.333l-32.125,12.8.985,34.561,33.43,9.274,19.71-28.82Z"/>
      <path id="路径_5018" data-name="路径 5018" class="cls-3" d="M304.123,1660.491l-16.008,6.38.491,17.222,16.658,4.621,9.822-14.361Z"/>
      <path id="路径_5019" data-name="路径 5019" class="cls-4" d="M307.764,1646.333l-3.641,14.157-16.008,6.38-12.476-7.734Z"/>
      <path id="路径_5020" data-name="路径 5020" class="cls-5" d="M288.606,1684.093l-11.982,9.605-.985-34.561,12.476,7.734Z"/>
      <path id="路径_5021" data-name="路径 5021" class="cls-6" d="M305.264,1688.714l4.789,14.258,19.71-28.82-14.677.2Z"/>
      <path id="路径_5022" data-name="路径 5022" class="cls-7" d="M307.764,1646.333l-3.641,14.157,10.962,13.862,14.677-.2Z"/>
    </g>
    <g id="组_2385" data-name="组 2385">
      <path id="路径_5023" data-name="路径 5023" class="cls-8" d="M331.444,1592.279l-32.125,12.8.985,34.561,33.43,9.274,19.71-28.82Z"/>
      <path id="路径_5024" data-name="路径 5024" class="cls-9" d="M327.8,1606.437l-16.008,6.38.491,17.222,16.658,4.621,9.822-14.361Z"/>
      <path id="路径_5025" data-name="路径 5025" class="cls-10" d="M331.444,1592.279l-3.641,14.157-16.008,6.38-12.476-7.734Z"/>
      <path id="路径_5026" data-name="路径 5026" class="cls-11" d="M312.286,1630.039l-11.982,9.605-.985-34.561,12.476,7.734Z"/>
      <path id="路径_5027" data-name="路径 5027" class="cls-12" d="M328.944,1634.66l4.789,14.258,19.71-28.82-14.677.2Z"/>
      <path id="路径_5028" data-name="路径 5028" class="cls-13" d="M331.444,1592.279l-3.641,14.157,10.962,13.862,14.677-.2Z"/>
    </g>
    <g id="组_2386" data-name="组 2386">
      <path id="路径_5029" data-name="路径 5029" class="cls-2" d="M342.384,1526.447l-32.125,12.8.985,34.561,33.43,9.273,19.71-28.82Z"/>
      <path id="路径_5030" data-name="路径 5030" class="cls-3" d="M338.743,1540.6l-16.008,6.38.491,17.222,16.658,4.621,9.822-14.361Z"/>
      <path id="路径_5031" data-name="路径 5031" class="cls-4" d="M342.384,1526.447l-3.641,14.157-16.008,6.38-12.476-7.734Z"/>
      <path id="路径_5032" data-name="路径 5032" class="cls-5" d="M323.226,1564.207l-11.982,9.605-.985-34.561,12.476,7.734Z"/>
      <path id="路径_5033" data-name="路径 5033" class="cls-6" d="M339.884,1568.828l4.789,14.258,19.71-28.82-14.677.2Z"/>
      <path id="路径_5034" data-name="路径 5034" class="cls-7" d="M342.384,1526.447l-3.641,14.157,10.962,13.862,14.677-.2Z"/>
    </g>
    <g id="组_2387" data-name="组 2387">
      <path id="路径_5035" data-name="路径 5035" class="cls-8" d="M322.845,1471.21l-32.125,12.8.985,34.561,33.43,9.274,19.71-28.82Z"/>
      <path id="路径_5036" data-name="路径 5036" class="cls-9" d="M319.2,1485.367l-16.008,6.38.491,17.222,16.658,4.621,9.822-14.361Z"/>
      <path id="路径_5037" data-name="路径 5037" class="cls-10" d="M322.845,1471.21l-3.641,14.157-16.008,6.38-12.476-7.734Z"/>
      <path id="路径_5038" data-name="路径 5038" class="cls-11" d="M303.686,1508.969l-11.982,9.605-.985-34.561,12.476,7.734Z"/>
      <path id="路径_5039" data-name="路径 5039" class="cls-12" d="M320.345,1513.591l4.789,14.258,19.71-28.82-14.677.2Z"/>
      <path id="路径_5040" data-name="路径 5040" class="cls-13" d="M322.845,1471.21l-3.641,14.157,10.962,13.862,14.677-.2Z"/>
    </g>
    <g id="组_2388" data-name="组 2388">
      <path id="路径_5041" data-name="路径 5041" class="cls-2" d="M278.909,1423.25l-32.125,12.8.985,34.561,33.43,9.273,19.71-28.82Z"/>
      <path id="路径_5042" data-name="路径 5042" class="cls-3" d="M275.268,1437.408l-16.008,6.38.491,17.222,16.658,4.621,9.822-14.361Z"/>
      <path id="路径_5043" data-name="路径 5043" class="cls-4" d="M278.909,1423.25l-3.641,14.157-16.008,6.38-12.476-7.734Z"/>
      <path id="路径_5044" data-name="路径 5044" class="cls-5" d="M259.751,1461.01l-11.982,9.605-.985-34.561,12.476,7.734Z"/>
      <path id="路径_5045" data-name="路径 5045" class="cls-6" d="M276.409,1465.631l4.789,14.258,19.71-28.82-14.677.2Z"/>
      <path id="路径_5046" data-name="路径 5046" class="cls-7" d="M278.909,1423.25l-3.641,14.157,10.962,13.862,14.677-.2Z"/>
    </g>
  </g>
</svg>
