<svg xmlns="http://www.w3.org/2000/svg" width="342.935" height="340.031" viewBox="0 0 342.935 340.031">
  <defs>
    <style>
      .cls-1 {
        fill: none;
        stroke: #cf6f6f;
        stroke-miterlimit: 10;
        stroke-width: 6px;
      }

      .cls-2 {
        fill: #0dd79b;
      }

      .cls-3 {
        fill: #54ebbb;
      }

      .cls-4 {
        fill: #ccebdd;
      }

      .cls-5 {
        fill: #16bf92;
      }

      .cls-6 {
        fill: #3ad2a7;
      }

      .cls-7 {
        fill: #8ce8cb;
      }

      .cls-8 {
        fill: #f4460f;
      }

      .cls-9 {
        fill: #ff805a;
      }

      .cls-10 {
        fill: #ffe5de;
      }

      .cls-11 {
        fill: #dc4a19;
      }

      .cls-12 {
        fill: #ef6c41;
      }

      .cls-13 {
        fill: #ffb29b;
      }
    </style>
  </defs>
  <g id="组_2461" data-name="组 2461" transform="translate(-1006.151 -1395.687)">
    <circle id="椭圆_677" data-name="椭圆 677" class="cls-1" cx="145.447" cy="145.447" r="145.447" transform="translate(1031.094 1424.001)"/>
    <g id="组_2445" data-name="组 2445">
      <path id="路径_5531" data-name="路径 5531" class="cls-2" d="M1138.949,1406.283l-32.125,12.8.985,34.561,33.43,9.273,19.71-28.82Z"/>
      <path id="路径_5532" data-name="路径 5532" class="cls-3" d="M1135.309,1420.44l-16.008,6.38.491,17.222,16.658,4.621,9.822-14.361Z"/>
      <path id="路径_5533" data-name="路径 5533" class="cls-4" d="M1138.949,1406.283l-3.641,14.157-16.008,6.38-12.476-7.734Z"/>
      <path id="路径_5534" data-name="路径 5534" class="cls-5" d="M1119.792,1444.042l-11.982,9.605-.985-34.561,12.476,7.734Z"/>
      <path id="路径_5535" data-name="路径 5535" class="cls-6" d="M1136.45,1448.664l4.789,14.258,19.71-28.82-14.677.2Z"/>
      <path id="路径_5536" data-name="路径 5536" class="cls-7" d="M1138.949,1406.283l-3.641,14.157,10.962,13.862,14.677-.2Z"/>
    </g>
    <g id="组_2446" data-name="组 2446">
      <path id="路径_5537" data-name="路径 5537" class="cls-8" d="M1087.538,1431.569l-32.125,12.8.985,34.561,33.43,9.274,19.71-28.82Z"/>
      <path id="路径_5538" data-name="路径 5538" class="cls-9" d="M1083.9,1445.726l-16.008,6.38.491,17.222,16.658,4.621,9.822-14.361Z"/>
      <path id="路径_5539" data-name="路径 5539" class="cls-10" d="M1087.538,1431.569l-3.641,14.157-16.008,6.38-12.476-7.734Z"/>
      <path id="路径_5540" data-name="路径 5540" class="cls-11" d="M1068.38,1469.329l-11.982,9.605-.985-34.561,12.476,7.734Z"/>
      <path id="路径_5541" data-name="路径 5541" class="cls-12" d="M1085.038,1473.95l4.789,14.258,19.71-28.82-14.677.2Z"/>
      <path id="路径_5542" data-name="路径 5542" class="cls-13" d="M1087.538,1431.569l-3.641,14.157,10.962,13.862,14.677-.2Z"/>
    </g>
    <g id="组_2447" data-name="组 2447">
      <path id="路径_5543" data-name="路径 5543" class="cls-2" d="M1050.332,1477.65l-32.125,12.8.985,34.561,33.43,9.273,19.71-28.82Z"/>
      <path id="路径_5544" data-name="路径 5544" class="cls-3" d="M1046.691,1491.807l-16.008,6.38.491,17.222,16.658,4.621,9.822-14.361Z"/>
      <path id="路径_5545" data-name="路径 5545" class="cls-4" d="M1050.332,1477.65l-3.641,14.157-16.008,6.38-12.476-7.734Z"/>
      <path id="路径_5546" data-name="路径 5546" class="cls-5" d="M1031.173,1515.41l-11.982,9.605-.985-34.561,12.476,7.734Z"/>
      <path id="路径_5547" data-name="路径 5547" class="cls-6" d="M1047.832,1520.031l4.789,14.258,19.71-28.82-14.677.2Z"/>
      <path id="路径_5548" data-name="路径 5548" class="cls-7" d="M1050.332,1477.65l-3.641,14.157,10.962,13.862,14.677-.2Z"/>
    </g>
    <g id="组_2448" data-name="组 2448">
      <path id="路径_5549" data-name="路径 5549" class="cls-8" d="M1038.276,1531.643l-32.125,12.8.985,34.561,33.43,9.273,19.71-28.82Z"/>
      <path id="路径_5550" data-name="路径 5550" class="cls-9" d="M1034.636,1545.8l-16.008,6.38.491,17.222,16.658,4.621,9.822-14.361Z"/>
      <path id="路径_5551" data-name="路径 5551" class="cls-10" d="M1038.276,1531.643l-3.641,14.157-16.008,6.38-12.476-7.734Z"/>
      <path id="路径_5552" data-name="路径 5552" class="cls-11" d="M1019.118,1569.4l-11.982,9.605-.985-34.561,12.476,7.734Z"/>
      <path id="路径_5553" data-name="路径 5553" class="cls-12" d="M1035.776,1574.024l4.789,14.258,19.71-28.82-14.677.2Z"/>
      <path id="路径_5554" data-name="路径 5554" class="cls-13" d="M1038.276,1531.643l-3.641,14.157,10.962,13.862,14.677-.2Z"/>
    </g>
    <g id="组_2449" data-name="组 2449">
      <path id="路径_5555" data-name="路径 5555" class="cls-2" d="M1048.375,1587.34l-32.125,12.8.985,34.561,33.43,9.273,19.71-28.82Z"/>
      <path id="路径_5556" data-name="路径 5556" class="cls-3" d="M1044.734,1601.5l-16.008,6.38.491,17.222,16.658,4.621,9.822-14.361Z"/>
      <path id="路径_5557" data-name="路径 5557" class="cls-4" d="M1048.375,1587.34l-3.641,14.157-16.008,6.38-12.476-7.734Z"/>
      <path id="路径_5558" data-name="路径 5558" class="cls-5" d="M1029.217,1625.1l-11.982,9.605-.985-34.561,12.476,7.734Z"/>
      <path id="路径_5559" data-name="路径 5559" class="cls-6" d="M1045.875,1629.721l4.789,14.258,19.71-28.82-14.677.2Z"/>
      <path id="路径_5560" data-name="路径 5560" class="cls-7" d="M1048.375,1587.34l-3.641,14.157,10.962,13.862,14.677-.2Z"/>
    </g>
    <g id="组_2450" data-name="组 2450">
      <path id="路径_5561" data-name="路径 5561" class="cls-2" d="M1129.68,1668.278l-32.125,12.8.985,34.561,33.43,9.274,19.71-28.82Z"/>
      <path id="路径_5562" data-name="路径 5562" class="cls-3" d="M1126.04,1682.436l-16.008,6.38.491,17.222,16.658,4.621L1137,1696.3Z"/>
      <path id="路径_5563" data-name="路径 5563" class="cls-4" d="M1129.68,1668.278l-3.641,14.157-16.008,6.38-12.476-7.734Z"/>
      <path id="路径_5564" data-name="路径 5564" class="cls-5" d="M1110.522,1706.038l-11.982,9.605-.985-34.561,12.476,7.734Z"/>
      <path id="路径_5565" data-name="路径 5565" class="cls-6" d="M1127.18,1710.659l4.789,14.258,19.71-28.82-14.677.2Z"/>
      <path id="路径_5566" data-name="路径 5566" class="cls-7" d="M1129.68,1668.278l-3.641,14.157L1137,1696.3l14.677-.2Z"/>
    </g>
    <g id="组_2451" data-name="组 2451">
      <path id="路径_5567" data-name="路径 5567" class="cls-8" d="M1181.6,1679.079l-32.125,12.8.985,34.561,33.43,9.273,19.71-28.82Z"/>
      <path id="路径_5568" data-name="路径 5568" class="cls-9" d="M1177.963,1693.237l-16.008,6.38.491,17.222,16.658,4.621,9.822-14.361Z"/>
      <path id="路径_5569" data-name="路径 5569" class="cls-10" d="M1181.6,1679.079l-3.641,14.157-16.008,6.38-12.476-7.734Z"/>
      <path id="路径_5570" data-name="路径 5570" class="cls-11" d="M1162.445,1716.839l-11.982,9.605-.985-34.561,12.476,7.734Z"/>
      <path id="路径_5571" data-name="路径 5571" class="cls-12" d="M1179.1,1721.46l4.789,14.258,19.71-28.82-14.677.2Z"/>
      <path id="路径_5572" data-name="路径 5572" class="cls-13" d="M1181.6,1679.079l-3.641,14.157,10.962,13.862,14.677-.2Z"/>
    </g>
    <g id="组_2452" data-name="组 2452">
      <path id="路径_5573" data-name="路径 5573" class="cls-8" d="M1078.333,1637.672l-32.125,12.8.985,34.561,33.43,9.273,19.71-28.82Z"/>
      <path id="路径_5574" data-name="路径 5574" class="cls-9" d="M1074.692,1651.83l-16.008,6.38.491,17.222,16.658,4.621,9.822-14.361Z"/>
      <path id="路径_5575" data-name="路径 5575" class="cls-10" d="M1078.333,1637.672l-3.641,14.157-16.008,6.38-12.476-7.734Z"/>
      <path id="路径_5576" data-name="路径 5576" class="cls-11" d="M1059.175,1675.432l-11.982,9.605-.985-34.561,12.476,7.734Z"/>
      <path id="路径_5577" data-name="路径 5577" class="cls-12" d="M1075.833,1680.053l4.789,14.258,19.71-28.82-14.677.2Z"/>
      <path id="路径_5578" data-name="路径 5578" class="cls-13" d="M1078.333,1637.672l-3.641,14.157,10.962,13.862,14.677-.2Z"/>
    </g>
    <g id="组_2453" data-name="组 2453">
      <path id="路径_5579" data-name="路径 5579" class="cls-2" d="M1239.274,1671.689l-32.125,12.8.985,34.561,33.43,9.274,19.71-28.82Z"/>
      <path id="路径_5580" data-name="路径 5580" class="cls-3" d="M1235.634,1685.846l-16.008,6.38.491,17.222,16.658,4.621,9.822-14.361Z"/>
      <path id="路径_5581" data-name="路径 5581" class="cls-4" d="M1239.274,1671.689l-3.641,14.157-16.008,6.38-12.476-7.734Z"/>
      <path id="路径_5582" data-name="路径 5582" class="cls-5" d="M1220.116,1709.449l-11.982,9.605-.985-34.561,12.476,7.734Z"/>
      <path id="路径_5583" data-name="路径 5583" class="cls-6" d="M1236.774,1714.07l4.789,14.258,19.71-28.82-14.677.2Z"/>
      <path id="路径_5584" data-name="路径 5584" class="cls-7" d="M1239.274,1671.689l-3.641,14.157,10.962,13.862,14.677-.2Z"/>
    </g>
    <g id="组_2454" data-name="组 2454">
      <path id="路径_5585" data-name="路径 5585" class="cls-2" d="M1316.087,1594.042l-32.125,12.8.985,34.561,33.43,9.274,19.71-28.82Z"/>
      <path id="路径_5586" data-name="路径 5586" class="cls-3" d="M1312.446,1608.2l-16.008,6.38.491,17.222,16.658,4.621,9.822-14.361Z"/>
      <path id="路径_5587" data-name="路径 5587" class="cls-4" d="M1316.087,1594.042l-3.641,14.157-16.008,6.38-12.476-7.734Z"/>
      <path id="路径_5588" data-name="路径 5588" class="cls-5" d="M1296.929,1631.8l-11.982,9.605-.985-34.561,12.476,7.734Z"/>
      <path id="路径_5589" data-name="路径 5589" class="cls-6" d="M1313.587,1636.422l4.789,14.258,19.71-28.82-14.677.2Z"/>
      <path id="路径_5590" data-name="路径 5590" class="cls-7" d="M1316.087,1594.042l-3.641,14.157,10.962,13.862,14.677-.2Z"/>
    </g>
    <g id="组_2455" data-name="组 2455">
      <path id="路径_5591" data-name="路径 5591" class="cls-8" d="M1327.087,1543.531l-32.125,12.8.985,34.561,33.43,9.273,19.71-28.82Z"/>
      <path id="路径_5592" data-name="路径 5592" class="cls-9" d="M1323.446,1557.688l-16.008,6.38.491,17.222,16.658,4.621,9.822-14.361Z"/>
      <path id="路径_5593" data-name="路径 5593" class="cls-10" d="M1327.087,1543.531l-3.641,14.157-16.008,6.38-12.476-7.734Z"/>
      <path id="路径_5594" data-name="路径 5594" class="cls-11" d="M1307.929,1581.291l-11.982,9.605-.985-34.561,12.476,7.734Z"/>
      <path id="路径_5595" data-name="路径 5595" class="cls-12" d="M1324.587,1585.912l4.789,14.258,19.71-28.82-14.677.2Z"/>
      <path id="路径_5596" data-name="路径 5596" class="cls-13" d="M1327.087,1543.531l-3.641,14.157,10.962,13.862,14.677-.2Z"/>
    </g>
    <g id="组_2456" data-name="组 2456">
      <path id="路径_5597" data-name="路径 5597" class="cls-8" d="M1193.659,1395.687l-32.125,12.8.985,34.561,33.43,9.273,19.71-28.82Z"/>
      <path id="路径_5598" data-name="路径 5598" class="cls-9" d="M1190.018,1409.845l-16.008,6.38.491,17.222,16.658,4.621,9.822-14.361Z"/>
      <path id="路径_5599" data-name="路径 5599" class="cls-10" d="M1193.659,1395.687l-3.641,14.157-16.008,6.38-12.476-7.734Z"/>
      <path id="路径_5600" data-name="路径 5600" class="cls-11" d="M1174.5,1433.447l-11.982,9.605-.985-34.561,12.476,7.734Z"/>
      <path id="路径_5601" data-name="路径 5601" class="cls-12" d="M1191.159,1438.068l4.789,14.258,19.71-28.82-14.677.2Z"/>
      <path id="路径_5602" data-name="路径 5602" class="cls-13" d="M1193.659,1395.687l-3.641,14.157,10.962,13.862,14.677-.2Z"/>
    </g>
    <g id="组_2457" data-name="组 2457">
      <path id="路径_5603" data-name="路径 5603" class="cls-8" d="M1293.069,1438.613l-32.125,12.8.985,34.561,33.43,9.273,19.71-28.82Z"/>
      <path id="路径_5604" data-name="路径 5604" class="cls-9" d="M1289.429,1452.77l-16.008,6.38.491,17.222,16.658,4.621,9.822-14.361Z"/>
      <path id="路径_5605" data-name="路径 5605" class="cls-10" d="M1293.069,1438.613l-3.641,14.157-16.008,6.38-12.476-7.734Z"/>
      <path id="路径_5606" data-name="路径 5606" class="cls-11" d="M1273.911,1476.373l-11.982,9.605-.985-34.561,12.476,7.734Z"/>
      <path id="路径_5607" data-name="路径 5607" class="cls-12" d="M1290.57,1480.994l4.789,14.258,19.71-28.82-14.677.2Z"/>
      <path id="路径_5608" data-name="路径 5608" class="cls-13" d="M1293.069,1438.613l-3.641,14.157,10.962,13.862,14.677-.2Z"/>
    </g>
    <g id="组_2458" data-name="组 2458">
      <path id="路径_5609" data-name="路径 5609" class="cls-8" d="M1288.623,1641.439l-32.125,12.8.985,34.561,33.43,9.273,19.71-28.82Z"/>
      <path id="路径_5610" data-name="路径 5610" class="cls-9" d="M1284.982,1655.6l-16.008,6.38.491,17.222,16.658,4.621,9.822-14.361Z"/>
      <path id="路径_5611" data-name="路径 5611" class="cls-10" d="M1288.623,1641.439l-3.641,14.157-16.008,6.38-12.476-7.734Z"/>
      <path id="路径_5612" data-name="路径 5612" class="cls-11" d="M1269.465,1679.2l-11.982,9.605-.985-34.561,12.476,7.734Z"/>
      <path id="路径_5613" data-name="路径 5613" class="cls-12" d="M1286.123,1683.82l4.789,14.258,19.71-28.82-14.677.2Z"/>
      <path id="路径_5614" data-name="路径 5614" class="cls-13" d="M1288.623,1641.439l-3.641,14.157,10.962,13.862,14.677-.2Z"/>
    </g>
    <g id="组_2459" data-name="组 2459">
      <path id="路径_5615" data-name="路径 5615" class="cls-2" d="M1317.017,1487.809l-32.125,12.8.985,34.561,33.43,9.273,19.71-28.82Z"/>
      <path id="路径_5616" data-name="路径 5616" class="cls-3" d="M1313.377,1501.966l-16.008,6.38.491,17.222,16.658,4.621,9.822-14.361Z"/>
      <path id="路径_5617" data-name="路径 5617" class="cls-4" d="M1317.017,1487.809l-3.641,14.157-16.008,6.38-12.476-7.734Z"/>
      <path id="路径_5618" data-name="路径 5618" class="cls-5" d="M1297.859,1525.568l-11.982,9.605-.985-34.561,12.476,7.734Z"/>
      <path id="路径_5619" data-name="路径 5619" class="cls-6" d="M1314.517,1530.189l4.789,14.258,19.71-28.82-14.677.2Z"/>
      <path id="路径_5620" data-name="路径 5620" class="cls-7" d="M1317.017,1487.809l-3.641,14.157,10.962,13.862,14.677-.2Z"/>
    </g>
    <g id="组_2460" data-name="组 2460">
      <path id="路径_5621" data-name="路径 5621" class="cls-2" d="M1249.663,1409.312l-32.125,12.8.985,34.561,33.43,9.273,19.71-28.82Z"/>
      <path id="路径_5622" data-name="路径 5622" class="cls-3" d="M1246.023,1423.469l-16.008,6.38.491,17.222,16.658,4.621,9.822-14.361Z"/>
      <path id="路径_5623" data-name="路径 5623" class="cls-4" d="M1249.663,1409.312l-3.641,14.157-16.008,6.38-12.476-7.734Z"/>
      <path id="路径_5624" data-name="路径 5624" class="cls-5" d="M1230.505,1447.071l-11.982,9.605-.985-34.561,12.476,7.734Z"/>
      <path id="路径_5625" data-name="路径 5625" class="cls-6" d="M1247.163,1451.692l4.789,14.258,19.71-28.82-14.677.2Z"/>
      <path id="路径_5626" data-name="路径 5626" class="cls-7" d="M1249.663,1409.312l-3.641,14.157,10.962,13.862,14.677-.2Z"/>
    </g>
  </g>
</svg>
