<svg xmlns="http://www.w3.org/2000/svg" width="340.166" height="337.631" viewBox="0 0 340.166 337.631">
  <defs>
    <style>
      .cls-1 {
        fill: none;
        stroke: #cf6f6f;
        stroke-miterlimit: 10;
        stroke-width: 6px;
      }

      .cls-2 {
        fill: #0dd79b;
      }

      .cls-3 {
        fill: #54ebbb;
      }

      .cls-4 {
        fill: #ccebdd;
      }

      .cls-5 {
        fill: #16bf92;
      }

      .cls-6 {
        fill: #3ad2a7;
      }

      .cls-7 {
        fill: #8ce8cb;
      }

      .cls-8 {
        fill: #f4460f;
      }

      .cls-9 {
        fill: #ff805a;
      }

      .cls-10 {
        fill: #ffe5de;
      }

      .cls-11 {
        fill: #dc4a19;
      }

      .cls-12 {
        fill: #ef6c41;
      }

      .cls-13 {
        fill: #ffb29b;
      }
    </style>
  </defs>
  <g id="组_2426" data-name="组 2426" transform="translate(-518.134 -1403.754)">
    <circle id="椭圆_675" data-name="椭圆 675" class="cls-1" cx="145.447" cy="145.447" r="145.447" transform="translate(540.307 1429.668)"/>
    <g id="组_2409" data-name="组 2409">
      <path id="路径_5229" data-name="路径 5229" class="cls-2" d="M619.679,1423.4l-32.125,12.8.985,34.561,33.43,9.273,19.71-28.82Z"/>
      <path id="路径_5230" data-name="路径 5230" class="cls-3" d="M616.038,1437.553l-16.008,6.38.491,17.222,16.658,4.621L627,1451.415Z"/>
      <path id="路径_5231" data-name="路径 5231" class="cls-4" d="M619.679,1423.4l-3.641,14.157-16.008,6.38-12.476-7.734Z"/>
      <path id="路径_5232" data-name="路径 5232" class="cls-5" d="M600.521,1461.156l-11.982,9.605-.985-34.561,12.476,7.734Z"/>
      <path id="路径_5233" data-name="路径 5233" class="cls-6" d="M617.179,1465.777l4.789,14.258,19.71-28.82-14.677.2Z"/>
      <path id="路径_5234" data-name="路径 5234" class="cls-7" d="M619.679,1423.4l-3.641,14.157L627,1451.415l14.677-.2Z"/>
    </g>
    <g id="组_2410" data-name="组 2410">
      <path id="路径_5235" data-name="路径 5235" class="cls-2" d="M670.4,1405.621l-32.125,12.8.985,34.561,33.43,9.273,19.71-28.82Z"/>
      <path id="路径_5236" data-name="路径 5236" class="cls-3" d="M666.762,1419.779l-16.008,6.38.491,17.222L667.9,1448l9.822-14.361Z"/>
      <path id="路径_5237" data-name="路径 5237" class="cls-4" d="M670.4,1405.621l-3.641,14.157-16.008,6.38-12.476-7.734Z"/>
      <path id="路径_5238" data-name="路径 5238" class="cls-5" d="M651.245,1443.381l-11.982,9.605-.985-34.561,12.476,7.734Z"/>
      <path id="路径_5239" data-name="路径 5239" class="cls-6" d="M667.9,1448l4.789,14.258,19.71-28.82-14.677.2Z"/>
      <path id="路径_5240" data-name="路径 5240" class="cls-7" d="M670.4,1405.621l-3.641,14.157,10.962,13.862,14.677-.2Z"/>
    </g>
    <g id="组_2411" data-name="组 2411">
      <path id="路径_5241" data-name="路径 5241" class="cls-8" d="M578.585,1455.993l-32.125,12.8.985,34.561,33.43,9.274,19.71-28.82Z"/>
      <path id="路径_5242" data-name="路径 5242" class="cls-9" d="M574.944,1470.151l-16.008,6.38.491,17.222,16.658,4.621,9.822-14.361Z"/>
      <path id="路径_5243" data-name="路径 5243" class="cls-10" d="M578.585,1455.993l-3.641,14.157-16.008,6.38L546.46,1468.8Z"/>
      <path id="路径_5244" data-name="路径 5244" class="cls-11" d="M559.427,1493.753l-11.982,9.605-.985-34.561,12.476,7.734Z"/>
      <path id="路径_5245" data-name="路径 5245" class="cls-12" d="M576.085,1498.374l4.789,14.258,19.71-28.82-14.677.2Z"/>
      <path id="路径_5246" data-name="路径 5246" class="cls-13" d="M578.585,1455.993l-3.641,14.157,10.962,13.862,14.677-.2Z"/>
    </g>
    <g id="组_2412" data-name="组 2412">
      <path id="路径_5247" data-name="路径 5247" class="cls-2" d="M557.2,1504.529l-32.125,12.8.985,34.561,33.43,9.273,19.71-28.82Z"/>
      <path id="路径_5248" data-name="路径 5248" class="cls-3" d="M553.561,1518.687l-16.008,6.38.491,17.222,16.658,4.621,9.822-14.361Z"/>
      <path id="路径_5249" data-name="路径 5249" class="cls-4" d="M557.2,1504.529l-3.641,14.157-16.008,6.38-12.476-7.734Z"/>
      <path id="路径_5250" data-name="路径 5250" class="cls-5" d="M538.044,1542.289l-11.982,9.605-.985-34.561,12.476,7.734Z"/>
      <path id="路径_5251" data-name="路径 5251" class="cls-6" d="M554.7,1546.91l4.789,14.258,19.71-28.82-14.677.2Z"/>
      <path id="路径_5252" data-name="路径 5252" class="cls-7" d="M557.2,1504.529l-3.641,14.157,10.962,13.862,14.677-.2Z"/>
    </g>
    <g id="组_2413" data-name="组 2413">
      <path id="路径_5253" data-name="路径 5253" class="cls-8" d="M550.259,1553.618l-32.125,12.8.985,34.561,33.43,9.274,19.71-28.82Z"/>
      <path id="路径_5254" data-name="路径 5254" class="cls-9" d="M546.618,1567.776l-16.008,6.38.491,17.222L547.759,1596l9.822-14.361Z"/>
      <path id="路径_5255" data-name="路径 5255" class="cls-10" d="M550.259,1553.618l-3.641,14.157-16.008,6.38-12.476-7.734Z"/>
      <path id="路径_5256" data-name="路径 5256" class="cls-11" d="M531.1,1591.378l-11.982,9.605-.985-34.561,12.476,7.734Z"/>
      <path id="路径_5257" data-name="路径 5257" class="cls-12" d="M547.759,1596l4.789,14.258,19.71-28.82-14.677.2Z"/>
      <path id="路径_5258" data-name="路径 5258" class="cls-13" d="M550.259,1553.618l-3.641,14.157,10.962,13.862,14.677-.2Z"/>
    </g>
    <g id="组_2414" data-name="组 2414">
      <path id="路径_5259" data-name="路径 5259" class="cls-2" d="M561.585,1603.893l-32.125,12.8.985,34.561,33.43,9.273,19.71-28.82Z"/>
      <path id="路径_5260" data-name="路径 5260" class="cls-3" d="M557.945,1618.051l-16.008,6.38.491,17.222,16.658,4.621,9.822-14.361Z"/>
      <path id="路径_5261" data-name="路径 5261" class="cls-4" d="M561.585,1603.893l-3.641,14.157-16.008,6.38L529.46,1616.7Z"/>
      <path id="路径_5262" data-name="路径 5262" class="cls-5" d="M542.427,1641.653l-11.982,9.605-.985-34.561,12.476,7.734Z"/>
      <path id="路径_5263" data-name="路径 5263" class="cls-6" d="M559.085,1646.274l4.789,14.258,19.71-28.82-14.677.2Z"/>
      <path id="路径_5264" data-name="路径 5264" class="cls-7" d="M561.585,1603.893l-3.641,14.157,10.962,13.862,14.677-.2Z"/>
    </g>
    <g id="组_2415" data-name="组 2415">
      <path id="路径_5265" data-name="路径 5265" class="cls-2" d="M593.5,1649.037l-32.125,12.8.985,34.561,33.43,9.273,19.71-28.82Z"/>
      <path id="路径_5266" data-name="路径 5266" class="cls-3" d="M589.859,1663.194l-16.008,6.38.491,17.222L591,1691.417l9.822-14.361Z"/>
      <path id="路径_5267" data-name="路径 5267" class="cls-4" d="M593.5,1649.037l-3.641,14.157-16.008,6.38-12.476-7.734Z"/>
      <path id="路径_5268" data-name="路径 5268" class="cls-5" d="M574.342,1686.8,562.36,1696.4l-.985-34.561,12.476,7.734Z"/>
      <path id="路径_5269" data-name="路径 5269" class="cls-6" d="M591,1691.417l4.789,14.258,19.71-28.82-14.677.2Z"/>
      <path id="路径_5270" data-name="路径 5270" class="cls-7" d="M593.5,1649.037l-3.641,14.157,10.962,13.862,14.677-.2Z"/>
    </g>
    <g id="组_2416" data-name="组 2416">
      <path id="路径_5271" data-name="路径 5271" class="cls-8" d="M690.817,1684.746l-32.125,12.8.985,34.561,33.43,9.273,19.71-28.82Z"/>
      <path id="路径_5272" data-name="路径 5272" class="cls-9" d="M687.177,1698.9l-16.008,6.38.491,17.222,16.658,4.621,9.822-14.361Z"/>
      <path id="路径_5273" data-name="路径 5273" class="cls-10" d="M690.817,1684.746l-3.641,14.157-16.008,6.38-12.476-7.734Z"/>
      <path id="路径_5274" data-name="路径 5274" class="cls-11" d="M671.659,1722.506l-11.982,9.605-.985-34.561,12.476,7.734Z"/>
      <path id="路径_5275" data-name="路径 5275" class="cls-12" d="M688.317,1727.127l4.789,14.258,19.71-28.82-14.677.2Z"/>
      <path id="路径_5276" data-name="路径 5276" class="cls-13" d="M690.817,1684.746l-3.641,14.157,10.962,13.862,14.677-.2Z"/>
    </g>
    <g id="组_2417" data-name="组 2417">
      <path id="路径_5277" data-name="路径 5277" class="cls-8" d="M636.843,1674.446l-32.125,12.8.985,34.561,33.43,9.273,19.71-28.82Z"/>
      <path id="路径_5278" data-name="路径 5278" class="cls-9" d="M633.2,1688.6l-16.008,6.38.491,17.222,16.658,4.621,9.822-14.361Z"/>
      <path id="路径_5279" data-name="路径 5279" class="cls-10" d="M636.843,1674.446,633.2,1688.6l-16.008,6.38-12.476-7.734Z"/>
      <path id="路径_5280" data-name="路径 5280" class="cls-11" d="M617.685,1712.206l-11.982,9.605-.985-34.561,12.476,7.734Z"/>
      <path id="路径_5281" data-name="路径 5281" class="cls-12" d="M634.343,1716.827l4.789,14.258,19.71-28.82-14.677.2Z"/>
      <path id="路径_5282" data-name="路径 5282" class="cls-13" d="M636.843,1674.446,633.2,1688.6l10.962,13.862,14.677-.2Z"/>
    </g>
    <g id="组_2418" data-name="组 2418">
      <path id="路径_5283" data-name="路径 5283" class="cls-2" d="M743.425,1680.144l-32.125,12.8.985,34.561,33.43,9.273,19.71-28.82Z"/>
      <path id="路径_5284" data-name="路径 5284" class="cls-3" d="M739.785,1694.3l-16.008,6.38.491,17.222,16.658,4.621,9.822-14.361Z"/>
      <path id="路径_5285" data-name="路径 5285" class="cls-4" d="M743.425,1680.144l-3.641,14.157-16.008,6.38-12.476-7.734Z"/>
      <path id="路径_5286" data-name="路径 5286" class="cls-5" d="M724.267,1717.9l-11.982,9.605-.985-34.561,12.476,7.734Z"/>
      <path id="路径_5287" data-name="路径 5287" class="cls-6" d="M740.925,1722.524l4.789,14.258,19.71-28.82-14.677.2Z"/>
      <path id="路径_5288" data-name="路径 5288" class="cls-7" d="M743.425,1680.144l-3.641,14.157,10.962,13.862,14.677-.2Z"/>
    </g>
    <g id="组_2419" data-name="组 2419">
      <path id="路径_5289" data-name="路径 5289" class="cls-2" d="M788.8,1653.3l-32.125,12.8.985,34.561,33.43,9.273,19.71-28.82Z"/>
      <path id="路径_5290" data-name="路径 5290" class="cls-3" d="M785.158,1667.461l-16.008,6.38.491,17.222,16.658,4.621,9.822-14.361Z"/>
      <path id="路径_5291" data-name="路径 5291" class="cls-4" d="M788.8,1653.3l-3.641,14.157-16.008,6.38-12.476-7.734Z"/>
      <path id="路径_5292" data-name="路径 5292" class="cls-5" d="M769.64,1691.064l-11.982,9.605-.985-34.561,12.476,7.734Z"/>
      <path id="路径_5293" data-name="路径 5293" class="cls-6" d="M786.3,1695.685l4.789,14.258,19.71-28.82-14.677.2Z"/>
      <path id="路径_5294" data-name="路径 5294" class="cls-7" d="M788.8,1653.3l-3.641,14.157,10.962,13.862,14.677-.2Z"/>
    </g>
    <g id="组_2420" data-name="组 2420">
      <path id="路径_5295" data-name="路径 5295" class="cls-8" d="M836.3,1562.162l-32.125,12.8.985,34.561,33.43,9.273,19.71-28.82Z"/>
      <path id="路径_5296" data-name="路径 5296" class="cls-9" d="M832.66,1576.319l-16.008,6.38.491,17.222,16.658,4.621,9.822-14.361Z"/>
      <path id="路径_5297" data-name="路径 5297" class="cls-10" d="M836.3,1562.162l-3.641,14.157-16.008,6.38-12.476-7.734Z"/>
      <path id="路径_5298" data-name="路径 5298" class="cls-11" d="M817.143,1599.922l-11.982,9.605-.985-34.561,12.476,7.734Z"/>
      <path id="路径_5299" data-name="路径 5299" class="cls-12" d="M833.8,1604.543l4.789,14.258,19.71-28.82-14.677.2Z"/>
      <path id="路径_5300" data-name="路径 5300" class="cls-13" d="M836.3,1562.162l-3.641,14.157,10.962,13.862,14.677-.2Z"/>
    </g>
    <g id="组_2421" data-name="组 2421">
      <path id="路径_5301" data-name="路径 5301" class="cls-8" d="M723.119,1403.754l-32.125,12.8.985,34.561,33.43,9.274,19.71-28.82Z"/>
      <path id="路径_5302" data-name="路径 5302" class="cls-9" d="M719.479,1417.911l-16.008,6.38.491,17.222,16.658,4.621,9.822-14.361Z"/>
      <path id="路径_5303" data-name="路径 5303" class="cls-10" d="M723.119,1403.754l-3.641,14.157-16.008,6.38-12.476-7.734Z"/>
      <path id="路径_5304" data-name="路径 5304" class="cls-11" d="M703.961,1441.514l-11.982,9.605-.985-34.561,12.476,7.734Z"/>
      <path id="路径_5305" data-name="路径 5305" class="cls-12" d="M720.62,1446.135l4.789,14.258,19.71-28.82-14.677.2Z"/>
      <path id="路径_5306" data-name="路径 5306" class="cls-13" d="M723.119,1403.754l-3.641,14.157,10.962,13.862,14.677-.2Z"/>
    </g>
    <g id="组_2422" data-name="组 2422">
      <path id="路径_5307" data-name="路径 5307" class="cls-8" d="M771.893,1426.485l-32.125,12.8.985,34.561,33.43,9.273,19.71-28.82Z"/>
      <path id="路径_5308" data-name="路径 5308" class="cls-9" d="M768.252,1440.642l-16.008,6.38.491,17.222,16.658,4.621,9.822-14.361Z"/>
      <path id="路径_5309" data-name="路径 5309" class="cls-10" d="M771.893,1426.485l-3.641,14.157-16.008,6.38-12.476-7.734Z"/>
      <path id="路径_5310" data-name="路径 5310" class="cls-11" d="M752.735,1464.245l-11.982,9.605-.985-34.561,12.476,7.734Z"/>
      <path id="路径_5311" data-name="路径 5311" class="cls-12" d="M769.393,1468.865l4.789,14.258,19.71-28.82-14.677.2Z"/>
      <path id="路径_5312" data-name="路径 5312" class="cls-13" d="M771.893,1426.485l-3.641,14.157,10.962,13.862,14.677-.2Z"/>
    </g>
    <g id="组_2423" data-name="组 2423">
      <path id="路径_5313" data-name="路径 5313" class="cls-8" d="M823.18,1613.87l-32.125,12.8.985,34.561,33.43,9.274,19.71-28.82Z"/>
      <path id="路径_5314" data-name="路径 5314" class="cls-9" d="M819.539,1628.028l-16.008,6.38.491,17.222,16.658,4.621,9.822-14.361Z"/>
      <path id="路径_5315" data-name="路径 5315" class="cls-10" d="M823.18,1613.87l-3.641,14.157-16.008,6.38-12.476-7.734Z"/>
      <path id="路径_5316" data-name="路径 5316" class="cls-11" d="M804.022,1651.63l-11.982,9.605-.985-34.561,12.476,7.734Z"/>
      <path id="路径_5317" data-name="路径 5317" class="cls-12" d="M820.68,1656.251l4.789,14.258,19.71-28.82-14.677.2Z"/>
      <path id="路径_5318" data-name="路径 5318" class="cls-13" d="M823.18,1613.87l-3.641,14.157L830.5,1641.89l14.677-.2Z"/>
    </g>
    <g id="组_2424" data-name="组 2424">
      <path id="路径_5319" data-name="路径 5319" class="cls-2" d="M831.992,1508.991l-32.125,12.8.985,34.561,33.43,9.274,19.71-28.82Z"/>
      <path id="路径_5320" data-name="路径 5320" class="cls-3" d="M828.352,1523.148l-16.008,6.38.491,17.222,16.658,4.621,9.822-14.361Z"/>
      <path id="路径_5321" data-name="路径 5321" class="cls-4" d="M831.992,1508.991l-3.641,14.157-16.008,6.38-12.476-7.734Z"/>
      <path id="路径_5322" data-name="路径 5322" class="cls-5" d="M812.834,1546.75l-11.982,9.605-.985-34.561,12.476,7.734Z"/>
      <path id="路径_5323" data-name="路径 5323" class="cls-6" d="M829.493,1551.372l4.789,14.258,19.71-28.82-14.677.2Z"/>
      <path id="路径_5324" data-name="路径 5324" class="cls-7" d="M831.992,1508.991l-3.641,14.157,10.962,13.862,14.677-.2Z"/>
    </g>
    <g id="组_2425" data-name="组 2425">
      <path id="路径_5325" data-name="路径 5325" class="cls-2" d="M809.377,1462.288l-32.125,12.8.985,34.561,33.43,9.273,19.71-28.82Z"/>
      <path id="路径_5326" data-name="路径 5326" class="cls-3" d="M805.736,1476.445l-16.008,6.38.491,17.222,16.658,4.621,9.822-14.361Z"/>
      <path id="路径_5327" data-name="路径 5327" class="cls-4" d="M809.377,1462.288l-3.641,14.157-16.008,6.38-12.476-7.734Z"/>
      <path id="路径_5328" data-name="路径 5328" class="cls-5" d="M790.219,1500.047l-11.982,9.605-.985-34.561,12.476,7.734Z"/>
      <path id="路径_5329" data-name="路径 5329" class="cls-6" d="M806.877,1504.669l4.789,14.258,19.71-28.82-14.677.2Z"/>
      <path id="路径_5330" data-name="路径 5330" class="cls-7" d="M809.377,1462.288l-3.641,14.157,10.962,13.862,14.677-.2Z"/>
    </g>
  </g>
</svg>
