<svg xmlns="http://www.w3.org/2000/svg" width="69.302" height="121.595" viewBox="0 0 69.302 121.595">
  <defs>
    <style>
      .cls-1 {
        fill: #fff;
        stroke: #fff;
        stroke-miterlimit: 10;
        stroke-width: 10px;
      }

      .cls-2 {
        fill: #ffa750;
      }

      .cls-3 {
        fill: #e57700;
      }

      .cls-4 {
        fill: #ed8c00;
      }

      .cls-5 {
        fill: #fc9500;
      }
    </style>
  </defs>
  <g id="组_2084" data-name="组 2084" transform="translate(-163.877 -1208.264)">
    <path id="路径_4256" data-name="路径 4256" class="cls-1" d="M218.633,1216.7l-7-2.524a14.355,14.355,0,0,0-18.372,8.636l-.885,2.456a5.863,5.863,0,0,0-2.654,3.131l-.869,2.411a5.86,5.86,0,0,0,.046,4.1l-13.217,36.664-6.075,16.853a13.7,13.7,0,0,0-.3,7.381c.006.027.009.055.015.082l4.05,19.831h0l1.585,7.76a1.656,1.656,0,0,0,2.681.943l6.092-5.064h0l15.247-12.676a14.291,14.291,0,0,0,1.489-1.3c1.275-1.12,2.98-3.28,4.08-7.289l.035-.1.351-.975.254-.7.272-.755,1.185-3.286.33-.917.222-.616.571-1.582.435-1.208c.117-.325.235-.653.356-.987l.421-1.168q.18-.5.364-1.01l.454-1.261c.791-2.193,1.623-4.5,2.466-6.839l.668-1.852c.538-1.494,1.077-2.99,1.611-4.47l.36-1c.083-.232.167-.463.25-.694l.906-2.512c.379-1.053.751-2.085,1.113-3.088l.219-.607c.654-1.817,1.272-3.53,1.832-5.083l.37-1.027,2.225-6.173.129-.356,0-.01.106-.295.09-.249.038-.1.029-.082h0l.694-1.925a5.86,5.86,0,0,0,2.654-3.131l.869-2.41a5.863,5.863,0,0,0-.046-4.1l.885-2.456A14.353,14.353,0,0,0,218.633,1216.7Z"/>
    <g id="组_2083" data-name="组 2083">
      <g id="组_2082" data-name="组 2082">
        <path id="路径_4257" data-name="路径 4257" class="cls-2" d="M169.324,1295.891a14.285,14.285,0,0,1,.495-8.051l23.442-65.031a14.355,14.355,0,0,1,18.372-8.636l7,2.524a14.353,14.353,0,0,1,8.636,18.371L203.828,1300.1a14.294,14.294,0,0,1-4.849,6.586l-21.339,17.74a1.656,1.656,0,0,1-2.681-.943Z"/>
        <path id="路径_4258" data-name="路径 4258" class="cls-3" d="M173.374,1315.723l1.585,7.759a1.656,1.656,0,0,0,2.681.943l6.092-5.064Z"/>
        <rect id="矩形_743" data-name="矩形 743" class="cls-4" width="39.019" height="14.345" rx="5.891" transform="translate(191.72 1222.854) rotate(19.823)"/>
        <path id="路径_4259" data-name="路径 4259" class="cls-5" d="M213.711,1246.03l-18.778,52.092-10.76,3.225-5.827-8.747,18.924-52.5Z"/>
        <path id="路径_4260" data-name="路径 4260" class="cls-3" d="M194.8,1298.074l3.962,8.427s3.841-1.306,5.788-8.4l17.665-49.005-8.367-3.016Z"/>
        <path id="路径_4261" data-name="路径 4261" class="cls-3" d="M197.382,1240.144l-9.177-3.308-18.6,51.592a13.687,13.687,0,0,0-.28,7.463c.022.023,9.18-3.385,9.18-3.385Z"/>
      </g>
    </g>
  </g>
</svg>
