<svg xmlns="http://www.w3.org/2000/svg" width="33.361" height="53.337" viewBox="0 0 33.361 53.337">
  <defs>
    <style>
      .cls-1 {
        fill: #8ca6fd;
      }
    </style>
  </defs>
  <path id="路径_4170" data-name="路径 4170" class="cls-1" d="M946.713,654.759q5.421,3.98,7.524,7.412a14.727,14.727,0,0,1,2.105,7.865,13.752,13.752,0,0,1-4.682,10.52q-4.683,4.3-12.719,4.3-7.618,0-11.789-3.754a11.872,11.872,0,0,1-4.171-9.173,11.49,11.49,0,0,1,2.408-7.24q2.407-3.109,8.017-5.687-6.1-4.662-7.826-7.62a13.355,13.355,0,0,1-1.725-6.862,11.885,11.885,0,0,1,4.377-9.079q4.379-3.922,12-3.922,7.355,0,11.316,3.469a10.689,10.689,0,0,1,3.96,8.32,10.255,10.255,0,0,1-2.139,6.426A18.707,18.707,0,0,1,946.713,654.759Zm-10.462,6.065a8.249,8.249,0,0,0-1.669,1.935,15.122,15.122,0,0,0-1.364,3.866,22.81,22.81,0,0,0-.606,5.307,17,17,0,0,0,.91,5.969,6.714,6.714,0,0,0,2.6,3.469,6.425,6.425,0,0,0,3.469,1.061,6.132,6.132,0,0,0,4.661-2.028,7.8,7.8,0,0,0,1.9-5.552Q946.144,667.5,936.251,660.824Zm7.581-8a13.312,13.312,0,0,0,2.086-4.246,18.5,18.5,0,0,0,.683-5.155q0-4.928-2.125-7.543a5.293,5.293,0,0,0-4.4-2.01,5.793,5.793,0,0,0-4.321,1.838,6.3,6.3,0,0,0-1.783,4.568,10.376,10.376,0,0,0,1.991,5.745Q937.957,649,943.832,652.826Z" transform="translate(-922.982 -631.522)"/>
</svg>
