<svg xmlns="http://www.w3.org/2000/svg" width="49.574" height="92.908" viewBox="0 0 49.574 92.908">
  <defs>
    <style>
      .cls-1 {
        fill: #cabdff;
      }

      .cls-2 {
        fill: #725dc9;
      }

      .cls-3 {
        fill: #a98dff;
      }

      .cls-4 {
        fill: #866bdd;
      }
    </style>
  </defs>
  <g id="组_2006" data-name="组 2006" transform="translate(-1055.175 -461.307)">
    <g id="组_2005" data-name="组 2005">
      <path id="路径_4130" data-name="路径 4130" class="cls-1" d="M1055.5,530.117a11.9,11.9,0,0,1,.412-6.71l19.535-54.191a11.962,11.962,0,0,1,15.31-7.2l5.833,2.1a11.962,11.962,0,0,1,7.2,15.31l-19.535,54.191a11.9,11.9,0,0,1-4.041,5.489L1062.427,553.9a1.38,1.38,0,0,1-2.235-.785Z"/>
      <rect id="矩形_719" data-name="矩形 719" class="cls-2" width="32.516" height="11.954" rx="5.891" transform="translate(1074.16 469.253) rotate(19.823)"/>
      <path id="路径_4131" data-name="路径 4131" class="cls-3" d="M1092.485,488.566l-15.648,43.41-8.967,2.687-4.856-7.289,15.77-43.747Z"/>
      <path id="路径_4132" data-name="路径 4132" class="cls-4" d="M1076.725,531.936l3.3,7.022s3.2-1.088,4.823-7l14.721-40.838-6.972-2.513Z"/>
      <path id="路径_4133" data-name="路径 4133" class="cls-4" d="M1078.878,483.661l-7.648-2.757-15.5,42.994a11.4,11.4,0,0,0-.234,6.218c.019.02,7.65-2.82,7.65-2.82Z"/>
      <path id="路径_4134" data-name="路径 4134" class="cls-4" d="M1058.876,546.643l1.321,6.467a1.38,1.38,0,0,0,2.234.785l5.076-4.22Z"/>
    </g>
  </g>
</svg>
