<svg xmlns="http://www.w3.org/2000/svg" width="33.578" height="53.392" viewBox="0 0 33.578 53.392">
  <defs>
    <style>
      .cls-1 {
        fill: #8ca6fd;
      }
    </style>
  </defs>
  <path id="路径_4171" data-name="路径 4171" class="cls-1" d="M1020.485,684.858V683.8a33.42,33.42,0,0,0,10.645-4.235,21.821,21.821,0,0,0,6.919-6.919,27.66,27.66,0,0,0,3.573-9.492,22.874,22.874,0,0,1-3.989,1.684,12.428,12.428,0,0,1-3.459.472,12.66,12.66,0,0,1-9.7-4.2q-3.876-4.2-3.875-11.5a20.532,20.532,0,0,1,2.1-9.283,15.535,15.535,0,0,1,22.593-6.3,17.931,17.931,0,0,1,6.391,7.449,25.03,25.03,0,0,1,2.382,11.116,33.034,33.034,0,0,1-3.875,15.5A29.406,29.406,0,0,1,1038.635,680,38.186,38.186,0,0,1,1020.485,684.858Zm21.7-24.88q.377-4.235.379-7.45a49.484,49.484,0,0,0-1.589-12.82,9.674,9.674,0,0,0-2.686-4.84,3.581,3.581,0,0,0-2.458-.831,3.333,3.333,0,0,0-2.948,1.626q-1.475,2.232-1.475,8.508,0,10.473,2.494,14.444a4.976,4.976,0,0,0,4.386,2.572A9.381,9.381,0,0,0,1042.19,659.978Z" transform="translate(-1020.485 -631.466)"/>
</svg>
