<svg xmlns="http://www.w3.org/2000/svg" width="49.574" height="92.909" viewBox="0 0 49.574 92.909">
  <defs>
    <style>
      .cls-1 {
        fill: #ffdb43;
      }

      .cls-2 {
        fill: #ddb300;
      }

      .cls-3 {
        fill: #dbb100;
      }

      .cls-4 {
        fill: #f7c800;
      }
    </style>
  </defs>
  <g id="组_2012" data-name="组 2012" transform="translate(-467.528 -461.37)">
    <g id="组_2011" data-name="组 2011">
      <path id="路径_4145" data-name="路径 4145" class="cls-1" d="M467.849,530.18a11.91,11.91,0,0,1,.413-6.71L487.8,469.278a11.96,11.96,0,0,1,15.309-7.2l5.834,2.1a11.961,11.961,0,0,1,7.2,15.309L496.6,533.686a11.911,11.911,0,0,1-4.041,5.488l-17.782,14.784a1.38,1.38,0,0,1-2.235-.786Z"/>
      <path id="路径_4146" data-name="路径 4146" class="cls-2" d="M471.224,546.706l1.32,6.466a1.38,1.38,0,0,0,2.235.786l5.076-4.22Z"/>
      <rect id="矩形_722" data-name="矩形 722" class="cls-3" width="32.516" height="11.954" rx="5.891" transform="translate(486.512 469.316) rotate(19.823)"/>
      <path id="路径_4147" data-name="路径 4147" class="cls-4" d="M504.838,488.629l-15.648,43.41-8.967,2.687-4.856-7.289,15.77-43.747Z"/>
      <path id="路径_4148" data-name="路径 4148" class="cls-2" d="M489.077,532l3.3,7.023s3.2-1.088,4.823-7l14.721-40.838-6.972-2.513Z"/>
      <path id="路径_4149" data-name="路径 4149" class="cls-2" d="M491.23,483.724l-7.647-2.757-15.5,42.993a11.4,11.4,0,0,0-.234,6.219c.018.02,7.65-2.82,7.65-2.82Z"/>
    </g>
  </g>
</svg>
