<svg xmlns="http://www.w3.org/2000/svg" width="33.673" height="53.081" viewBox="0 0 33.673 53.081">
  <defs>
    <style>
      .cls-1 {
        fill: #8ca6fd;
      }
    </style>
  </defs>
  <path id="路径_4167" data-name="路径 4167" class="cls-1" d="M639.548,631.778H663.9l-3.874,9.894H639.548l-1.956,5.178q13.234.5,20.365,6.6a15.8,15.8,0,0,1,5.867,12.5,18.766,18.766,0,0,1-10.394,16.433,23.924,23.924,0,0,1-10.852,2.474q-6.366,0-9.78-2.378a4.746,4.746,0,0,1-2.378-3.836,4.039,4.039,0,0,1,1.246-2.916,3.946,3.946,0,0,1,2.9-1.265,8.125,8.125,0,0,1,3.029.613,32.375,32.375,0,0,1,5.254,3.222,18.842,18.842,0,0,0,4.027,2.225,7.4,7.4,0,0,0,2.685.46,7.137,7.137,0,0,0,5.352-2.3,7.7,7.7,0,0,0,2.205-5.523q0-6.749-6.751-10.968t-17.028-4.22q-1.036,0-3.107.038Z" transform="translate(-630.229 -631.778)"/>
</svg>
