<svg xmlns="http://www.w3.org/2000/svg" width="69.302" height="121.594" viewBox="0 0 69.302 121.594">
  <defs>
    <style>
      .cls-1 {
        fill: #fff;
        stroke: #fff;
        stroke-miterlimit: 10;
        stroke-width: 10px;
      }

      .cls-2 {
        fill: #a1c7ff;
      }

      .cls-3 {
        fill: #4988e2;
      }

      .cls-4 {
        fill: #4080cc;
      }

      .cls-5 {
        fill: #6ea6ff;
      }
    </style>
  </defs>
  <g id="组_2096" data-name="组 2096" transform="translate(-898.419 -1208.201)">
    <path id="路径_4280" data-name="路径 4280" class="cls-1" d="M953.176,1216.634l-7-2.524a14.356,14.356,0,0,0-18.372,8.637l-.885,2.455a5.859,5.859,0,0,0-2.653,3.132l-.869,2.41a5.863,5.863,0,0,0,.045,4.1l-13.216,36.663-6.075,16.853a13.7,13.7,0,0,0-.3,7.381c.006.027.009.055.016.082l4.049,19.832h0l1.585,7.76a1.657,1.657,0,0,0,2.682.942l6.091-5.064h0l15.247-12.676a14.269,14.269,0,0,0,1.489-1.295c1.275-1.121,2.98-3.28,4.08-7.289l.035-.1c.1-.275.217-.6.351-.975l.254-.7c.086-.237.177-.491.272-.755l1.185-3.286c.107-.3.218-.6.33-.916l.223-.617.57-1.582.435-1.208.356-.986.421-1.169.364-1.009.455-1.262c.79-2.193,1.622-4.5,2.465-6.839l.668-1.852c.538-1.494,1.078-2.99,1.611-4.47l.36-1q.126-.348.25-.694l.906-2.512c.379-1.053.751-2.085,1.113-3.088l.219-.607c.655-1.817,1.272-3.53,1.832-5.082l.37-1.028c1-2.776,1.785-4.952,2.225-6.173l.129-.356,0-.01.107-.294.089-.249.038-.1.03-.082h0l.693-1.924a5.866,5.866,0,0,0,2.654-3.132l.869-2.41a5.863,5.863,0,0,0-.046-4.1l.886-2.455A14.355,14.355,0,0,0,953.176,1216.634Z"/>
    <g id="组_2095" data-name="组 2095">
      <g id="组_2094" data-name="组 2094">
        <path id="路径_4281" data-name="路径 4281" class="cls-2" d="M903.868,1295.828a14.286,14.286,0,0,1,.495-8.051l23.441-65.03a14.355,14.355,0,0,1,18.372-8.637l7,2.524a14.355,14.355,0,0,1,8.636,18.372l-23.442,65.03a14.287,14.287,0,0,1-4.849,6.586l-21.338,17.74a1.657,1.657,0,0,1-2.682-.942Z"/>
        <path id="路径_4282" data-name="路径 4282" class="cls-3" d="M907.917,1315.66l1.585,7.76a1.657,1.657,0,0,0,2.682.942l6.091-5.064Z"/>
        <rect id="矩形_747" data-name="矩形 747" class="cls-4" width="39.019" height="14.345" rx="5.891" transform="translate(926.263 1222.791) rotate(19.823)"/>
        <path id="路径_4283" data-name="路径 4283" class="cls-5" d="M948.254,1245.967l-18.778,52.092-10.76,3.225-5.827-8.747,18.924-52.5Z"/>
        <path id="路径_4284" data-name="路径 4284" class="cls-3" d="M929.342,1298.011l3.961,8.427s3.841-1.306,5.788-8.4l17.666-49.006-8.368-3.016Z"/>
        <path id="路径_4285" data-name="路径 4285" class="cls-3" d="M931.925,1240.081l-9.177-3.308-18.6,51.592a13.681,13.681,0,0,0-.281,7.463c.022.023,9.18-3.385,9.18-3.385Z"/>
      </g>
    </g>
  </g>
</svg>
