<svg xmlns="http://www.w3.org/2000/svg" width="49.574" height="92.909" viewBox="0 0 49.574 92.909">
  <defs>
    <style>
      .cls-1 {
        fill: #ffa750;
      }

      .cls-2 {
        fill: #e57700;
      }

      .cls-3 {
        fill: #ed8c00;
      }

      .cls-4 {
        fill: #fc9500;
      }
    </style>
  </defs>
  <g id="组_2008" data-name="组 2008" transform="translate(-173.871 -461.37)">
    <g id="组_2007" data-name="组 2007">
      <path id="路径_4135" data-name="路径 4135" class="cls-1" d="M174.192,530.18a11.91,11.91,0,0,1,.413-6.71l19.535-54.192a11.96,11.96,0,0,1,15.309-7.2l5.834,2.1a11.961,11.961,0,0,1,7.2,15.309l-19.535,54.192a11.911,11.911,0,0,1-4.041,5.488l-17.782,14.784a1.38,1.38,0,0,1-2.235-.786Z"/>
      <path id="路径_4136" data-name="路径 4136" class="cls-2" d="M177.567,546.706l1.32,6.466a1.38,1.38,0,0,0,2.235.786l5.076-4.22Z"/>
      <rect id="矩形_720" data-name="矩形 720" class="cls-3" width="32.516" height="11.954" rx="5.891" transform="translate(192.855 469.316) rotate(19.823)"/>
      <path id="路径_4137" data-name="路径 4137" class="cls-4" d="M211.181,488.629l-15.648,43.41-8.967,2.687-4.856-7.289,15.77-43.747Z"/>
      <path id="路径_4138" data-name="路径 4138" class="cls-2" d="M195.421,532l3.3,7.023s3.2-1.088,4.823-7l14.721-40.838-6.972-2.513Z"/>
      <path id="路径_4139" data-name="路径 4139" class="cls-2" d="M197.573,483.724l-7.647-2.757-15.5,42.993a11.4,11.4,0,0,0-.234,6.219c.018.02,7.65-2.82,7.65-2.82Z"/>
    </g>
  </g>
</svg>
