<svg xmlns="http://www.w3.org/2000/svg" width="33.521" height="53.081" viewBox="0 0 33.521 53.081">
  <defs>
    <style>
      .cls-1 {
        fill: #8ca6fd;
      }
    </style>
  </defs>
  <path id="路径_4173" data-name="路径 4173" class="cls-1" d="M368.1,684.859H337.5v-.844q14.076-16.759,17.086-22.551a24.441,24.441,0,0,0,3.01-11.316,9.407,9.407,0,0,0-2.493-6.691,8.024,8.024,0,0,0-6.1-2.667q-5.909,0-9.167,5.907l-1.418-.5q2.07-7.364,6.289-10.892a14.74,14.74,0,0,1,9.741-3.529,14.42,14.42,0,0,1,7.211,1.84,13.328,13.328,0,0,1,5.1,5.044,12.151,12.151,0,0,1,1.842,6,21.678,21.678,0,0,1-2.838,10.356q-3.877,7.1-16.914,19.79h11.236a25.767,25.767,0,0,0,5.39-.345,4.477,4.477,0,0,0,2.05-1.17,15.069,15.069,0,0,0,2.109-3.47h1.382Z" transform="translate(-337.497 -631.778)"/>
</svg>
