<svg xmlns="http://www.w3.org/2000/svg" width="69.302" height="121.595" viewBox="0 0 69.302 121.595">
  <defs>
    <style>
      .cls-1 {
        fill: #fff;
        stroke: #fff;
        stroke-miterlimit: 10;
        stroke-width: 10px;
      }

      .cls-2 {
        fill: #ffdb43;
      }

      .cls-3 {
        fill: #ddb300;
      }

      .cls-4 {
        fill: #dbb100;
      }

      .cls-5 {
        fill: #f7c800;
      }
    </style>
  </defs>
  <g id="组_2087" data-name="组 2087" transform="translate(-457.533 -1208.264)">
    <path id="路径_4262" data-name="路径 4262" class="cls-1" d="M512.289,1216.7l-7-2.524a14.355,14.355,0,0,0-18.372,8.636l-.885,2.456a5.863,5.863,0,0,0-2.654,3.131l-.869,2.411a5.86,5.86,0,0,0,.046,4.1l-13.217,36.664-6.075,16.853a13.705,13.705,0,0,0-.3,7.381c.006.027.009.055.015.082l4.05,19.831h0l1.584,7.76a1.657,1.657,0,0,0,2.682.943l6.092-5.064h0l15.247-12.676a14.291,14.291,0,0,0,1.489-1.3c1.275-1.12,2.979-3.279,4.08-7.289l.035-.1.351-.975.254-.7.272-.755,1.185-3.286.33-.917.222-.616.571-1.582.435-1.208c.117-.325.235-.653.356-.987l.421-1.168q.18-.5.364-1.01l.454-1.261c.791-2.193,1.623-4.5,2.466-6.839l.667-1.852,1.612-4.47.36-1c.083-.232.167-.463.25-.694l.9-2.512,1.114-3.088.218-.607,1.833-5.083.37-1.027,2.225-6.173.128-.356,0-.01.106-.295.09-.248.038-.1.029-.082h0l.694-1.925a5.86,5.86,0,0,0,2.654-3.131l.869-2.41a5.868,5.868,0,0,0-.046-4.1l.885-2.456A14.353,14.353,0,0,0,512.289,1216.7Z"/>
    <g id="组_2086" data-name="组 2086">
      <g id="组_2085" data-name="组 2085">
        <path id="路径_4263" data-name="路径 4263" class="cls-2" d="M462.981,1295.891a14.286,14.286,0,0,1,.5-8.051l23.442-65.031a14.355,14.355,0,0,1,18.372-8.636l7,2.524a14.353,14.353,0,0,1,8.636,18.371L497.485,1300.1a14.294,14.294,0,0,1-4.849,6.586l-21.339,17.74a1.657,1.657,0,0,1-2.682-.943Z"/>
        <path id="路径_4264" data-name="路径 4264" class="cls-3" d="M467.031,1315.723l1.584,7.759a1.657,1.657,0,0,0,2.682.943l6.092-5.064Z"/>
        <rect id="矩形_744" data-name="矩形 744" class="cls-4" width="39.019" height="14.345" rx="5.891" transform="translate(485.377 1222.854) rotate(19.823)"/>
        <path id="路径_4265" data-name="路径 4265" class="cls-5" d="M507.368,1246.03l-18.778,52.092-10.76,3.225L472,1292.6l18.924-52.5Z"/>
        <path id="路径_4266" data-name="路径 4266" class="cls-3" d="M488.455,1298.074l3.962,8.427s3.841-1.306,5.788-8.4l17.665-49.005-8.367-3.016Z"/>
        <path id="路径_4267" data-name="路径 4267" class="cls-3" d="M491.039,1240.144l-9.177-3.308-18.6,51.592a13.692,13.692,0,0,0-.281,7.463c.022.023,9.181-3.385,9.181-3.385Z"/>
      </g>
    </g>
  </g>
</svg>
