<svg xmlns="http://www.w3.org/2000/svg" width="69.303" height="121.594" viewBox="0 0 69.303 121.594">
  <defs>
    <style>
      .cls-1 {
        fill: #fff;
        stroke: #fff;
        stroke-miterlimit: 10;
        stroke-width: 10px;
      }

      .cls-2 {
        fill: #ff9696;
      }

      .cls-3 {
        fill: #ff5a5a;
      }

      .cls-4 {
        fill: #f46767;
      }

      .cls-5 {
        fill: #ff7573;
      }
    </style>
  </defs>
  <g id="组_2050" data-name="组 2050" transform="translate(-311.137 -1208.264)">
    <path id="路径_4174" data-name="路径 4174" class="cls-1" d="M365.894,1216.7l-7-2.524a14.354,14.354,0,0,0-18.371,8.636l-.886,2.456a5.866,5.866,0,0,0-2.653,3.131l-.869,2.411a5.86,5.86,0,0,0,.045,4.1l-13.216,36.664-6.075,16.853a13.7,13.7,0,0,0-.3,7.381c.006.027.01.055.016.082l4.049,19.831h0l1.585,7.76a1.657,1.657,0,0,0,2.682.943l6.091-5.064h0l15.247-12.676a14.406,14.406,0,0,0,1.49-1.3c1.275-1.12,2.979-3.279,4.08-7.289l.034-.1c.1-.275.217-.6.352-.975l.254-.7c.085-.238.176-.491.272-.755l1.184-3.286q.162-.447.331-.917l.222-.616.57-1.582.436-1.208.355-.987.421-1.168q.18-.5.364-1.01l.455-1.261c.791-2.193,1.622-4.5,2.465-6.839l.668-1.852c.538-1.494,1.078-2.99,1.611-4.47l.36-1c.084-.232.167-.463.251-.694l.9-2.512c.38-1.053.752-2.085,1.113-3.088l.219-.607,1.832-5.083.37-1.027c1-2.777,1.786-4.952,2.226-6.173l.128-.356,0-.01.106-.295.089-.248.038-.1.03-.082h0l.693-1.925a5.861,5.861,0,0,0,2.654-3.131l.869-2.41a5.868,5.868,0,0,0-.045-4.1l.885-2.456A14.354,14.354,0,0,0,365.894,1216.7Z"/>
    <g id="组_2049" data-name="组 2049">
      <g id="组_2048" data-name="组 2048">
        <path id="路径_4175" data-name="路径 4175" class="cls-2" d="M316.586,1295.891a14.286,14.286,0,0,1,.495-8.051l23.442-65.031a14.355,14.355,0,0,1,18.372-8.636l7,2.524a14.354,14.354,0,0,1,8.636,18.371L351.089,1300.1a14.287,14.287,0,0,1-4.849,6.586l-21.338,17.74a1.657,1.657,0,0,1-2.682-.943Z"/>
        <path id="路径_4176" data-name="路径 4176" class="cls-3" d="M320.636,1315.723l1.584,7.759a1.657,1.657,0,0,0,2.682.943l6.091-5.064Z"/>
        <rect id="矩形_727" data-name="矩形 727" class="cls-4" width="39.019" height="14.345" rx="5.891" transform="translate(338.982 1222.854) rotate(19.823)"/>
        <path id="路径_4177" data-name="路径 4177" class="cls-5" d="M360.973,1246.03l-18.778,52.092-10.76,3.225-5.827-8.747,18.924-52.5Z"/>
        <path id="路径_4178" data-name="路径 4178" class="cls-3" d="M342.06,1298.074l3.961,8.427s3.841-1.306,5.789-8.4l17.665-49.005-8.367-3.016Z"/>
        <path id="路径_4179" data-name="路径 4179" class="cls-3" d="M344.643,1240.144l-9.176-3.308-18.6,51.592a13.681,13.681,0,0,0-.281,7.463c.022.023,9.18-3.385,9.18-3.385Z"/>
      </g>
    </g>
  </g>
</svg>
