<svg xmlns="http://www.w3.org/2000/svg" width="33.501" height="53.392" viewBox="0 0 33.501 53.392">
  <defs>
    <style>
      .cls-1 {
        fill: #8ca6fd;
      }
    </style>
  </defs>
  <path id="路径_4168" data-name="路径 4168" class="cls-1" d="M761.234,631.466v1.058a36.135,36.135,0,0,0-10.985,4.482,21.374,21.374,0,0,0-6.541,6.656,32.176,32.176,0,0,0-3.725,9.7,11.126,11.126,0,0,1,2.761-1.476,16.814,16.814,0,0,1,4.954-.754,12.479,12.479,0,0,1,9.585,4.177q3.838,4.179,3.838,11.4a20.816,20.816,0,0,1-2.079,9.3,15.341,15.341,0,0,1-5.9,6.542,15.554,15.554,0,0,1-8.168,2.305,15.78,15.78,0,0,1-8.734-2.589,17.093,17.093,0,0,1-6.258-7.582,26.1,26.1,0,0,1-2.249-10.852,32.443,32.443,0,0,1,4.14-16.052,30.842,30.842,0,0,1,11.759-11.834A35.08,35.08,0,0,1,761.234,631.466Zm-21.742,24.956q-.3,5.219-.3,7.64a50.189,50.189,0,0,0,1,10.094q1,4.88,2.742,6.845a3.566,3.566,0,0,0,6.05-.624q1.363-2.023,1.362-8.224,0-10.438-2.533-14.408a4.978,4.978,0,0,0-4.387-2.57A9.217,9.217,0,0,0,739.491,656.422Z" transform="translate(-727.732 -631.466)"/>
</svg>
