<svg xmlns="http://www.w3.org/2000/svg" width="49.574" height="92.932" viewBox="0 0 49.574 92.932">
  <defs>
    <style>
      .cls-1 {
        fill: #c3ff7d;
      }

      .cls-2 {
        fill: #98e825;
      }

      .cls-3 {
        fill: #a8ff4d;
      }

      .cls-4 {
        fill: #97ea2d;
      }
    </style>
  </defs>
  <g id="组_2014" data-name="组 2014" transform="translate(-614.773 -461.307)">
    <g id="组_2013" data-name="组 2013">
      <path id="路径_4150" data-name="路径 4150" class="cls-1" d="M615.095,530.117a11.9,11.9,0,0,1,.412-6.71l19.535-54.191a11.962,11.962,0,0,1,15.31-7.2l5.833,2.1a11.961,11.961,0,0,1,7.2,15.31l-19.535,54.191a11.9,11.9,0,0,1-4.04,5.489L622.025,553.9a1.38,1.38,0,0,1-2.235-.785Z"/>
      <rect id="矩形_723" data-name="矩形 723" class="cls-2" width="32.516" height="11.954" rx="5.891" transform="translate(633.758 469.253) rotate(19.823)"/>
      <path id="路径_4151" data-name="路径 4151" class="cls-3" d="M652.084,488.566l-15.648,43.41-8.967,2.687-4.856-7.289,15.77-43.747Z"/>
      <path id="路径_4152" data-name="路径 4152" class="cls-4" d="M636.323,531.936l3.3,7.022s3.2-1.088,4.824-7l14.721-40.838-6.973-2.513Z"/>
      <path id="路径_4153" data-name="路径 4153" class="cls-4" d="M638.476,483.661l-7.648-2.757-15.5,42.994a11.4,11.4,0,0,0-.235,6.218c.019.02,7.651-2.82,7.651-2.82Z"/>
      <path id="路径_4154" data-name="路径 4154" class="cls-4" d="M618.51,546.667l1.32,6.466a1.38,1.38,0,0,0,2.235.786l5.076-4.22Z"/>
    </g>
  </g>
</svg>
