<svg xmlns="http://www.w3.org/2000/svg" width="49.574" height="92.908" viewBox="0 0 49.574 92.908">
  <defs>
    <style>
      .cls-1 {
        fill: #a1c7ff;
      }

      .cls-2 {
        fill: #4988e2;
      }

      .cls-3 {
        fill: #4080cc;
      }

      .cls-4 {
        fill: #6ea6ff;
      }
    </style>
  </defs>
  <g id="组_2018" data-name="组 2018" transform="translate(-908.414 -461.307)">
    <g id="组_2017" data-name="组 2017">
      <path id="路径_4160" data-name="路径 4160" class="cls-1" d="M908.736,530.117a11.9,11.9,0,0,1,.412-6.71l19.535-54.191a11.962,11.962,0,0,1,15.31-7.2l5.833,2.1a11.962,11.962,0,0,1,7.2,15.31l-19.535,54.191a11.9,11.9,0,0,1-4.04,5.489L915.666,553.9a1.38,1.38,0,0,1-2.235-.785Z"/>
      <path id="路径_4161" data-name="路径 4161" class="cls-2" d="M912.11,546.643l1.321,6.467a1.38,1.38,0,0,0,2.235.785l5.076-4.22Z"/>
      <rect id="矩形_725" data-name="矩形 725" class="cls-3" width="32.516" height="11.954" rx="5.891" transform="translate(927.399 469.253) rotate(19.823)"/>
      <path id="路径_4162" data-name="路径 4162" class="cls-4" d="M945.724,488.566l-15.648,43.41-8.967,2.687-4.856-7.289,15.77-43.747Z"/>
      <path id="路径_4163" data-name="路径 4163" class="cls-2" d="M929.964,531.936l3.3,7.022s3.2-1.088,4.824-7L952.81,491.12l-6.973-2.513Z"/>
      <path id="路径_4164" data-name="路径 4164" class="cls-2" d="M932.117,483.661l-7.648-2.757-15.5,42.994a11.408,11.408,0,0,0-.234,6.218c.019.02,7.65-2.82,7.65-2.82Z"/>
    </g>
  </g>
</svg>
