<svg xmlns="http://www.w3.org/2000/svg" width="49.574" height="92.909" viewBox="0 0 49.574 92.909">
  <defs>
    <style>
      .cls-1 {
        fill: #ff9696;
      }

      .cls-2 {
        fill: #ff5a5a;
      }

      .cls-3 {
        fill: #f46767;
      }

      .cls-4 {
        fill: #ff7573;
      }
    </style>
  </defs>
  <g id="组_2010" data-name="组 2010" transform="translate(-321.133 -461.37)">
    <g id="组_2009" data-name="组 2009">
      <path id="路径_4140" data-name="路径 4140" class="cls-1" d="M321.454,530.18a11.91,11.91,0,0,1,.412-6.71L341.4,469.278a11.961,11.961,0,0,1,15.31-7.2l5.834,2.1a11.96,11.96,0,0,1,7.2,15.309l-19.535,54.192a11.9,11.9,0,0,1-4.04,5.488l-17.782,14.784a1.38,1.38,0,0,1-2.235-.786Z"/>
      <path id="路径_4141" data-name="路径 4141" class="cls-2" d="M324.828,546.706l1.321,6.466a1.38,1.38,0,0,0,2.235.786l5.076-4.22Z"/>
      <rect id="矩形_721" data-name="矩形 721" class="cls-3" width="32.516" height="11.954" rx="5.891" transform="translate(340.117 469.316) rotate(19.823)"/>
      <path id="路径_4142" data-name="路径 4142" class="cls-4" d="M358.443,488.629l-15.648,43.41-8.967,2.687-4.856-7.289,15.77-43.747Z"/>
      <path id="路径_4143" data-name="路径 4143" class="cls-2" d="M342.682,532l3.3,7.023s3.2-1.088,4.824-7l14.721-40.838-6.973-2.513Z"/>
      <path id="路径_4144" data-name="路径 4144" class="cls-2" d="M344.835,483.724l-7.647-2.757-15.5,42.993a11.4,11.4,0,0,0-.234,6.219c.018.02,7.65-2.82,7.65-2.82Z"/>
    </g>
  </g>
</svg>
