<svg xmlns="http://www.w3.org/2000/svg" width="49.574" height="92.908" viewBox="0 0 49.574 92.908">
  <defs>
    <style>
      .cls-1 {
        fill: #94f5ff;
      }

      .cls-2 {
        fill: #0fc5ce;
      }

      .cls-3 {
        fill: #53dbf2;
      }

      .cls-4 {
        fill: #3accdb;
      }
    </style>
  </defs>
  <g id="组_2016" data-name="组 2016" transform="translate(-761.629 -461.307)">
    <g id="组_2015" data-name="组 2015">
      <path id="路径_4155" data-name="路径 4155" class="cls-1" d="M761.95,530.117a11.911,11.911,0,0,1,.413-6.71L781.9,469.216a11.961,11.961,0,0,1,15.309-7.2l5.834,2.1a11.962,11.962,0,0,1,7.2,15.31L790.7,533.623a11.914,11.914,0,0,1-4.041,5.489L768.88,553.9a1.381,1.381,0,0,1-2.235-.785Z"/>
      <rect id="矩形_724" data-name="矩形 724" class="cls-2" width="32.516" height="11.954" rx="5.891" transform="translate(780.613 469.253) rotate(19.823)"/>
      <path id="路径_4156" data-name="路径 4156" class="cls-3" d="M798.939,488.566l-15.648,43.41-8.967,2.687-4.856-7.289,15.77-43.747Z"/>
      <path id="路径_4157" data-name="路径 4157" class="cls-4" d="M783.179,531.936l3.3,7.022s3.2-1.088,4.823-7l14.721-40.838-6.972-2.513Z"/>
      <path id="路径_4158" data-name="路径 4158" class="cls-4" d="M785.331,483.661l-7.647-2.757-15.5,42.994a11.4,11.4,0,0,0-.234,6.218c.018.02,7.65-2.82,7.65-2.82Z"/>
      <path id="路径_4159" data-name="路径 4159" class="cls-4" d="M765.307,546.643l1.321,6.467a1.38,1.38,0,0,0,2.235.785l5.076-4.22Z"/>
    </g>
  </g>
</svg>
