<svg xmlns="http://www.w3.org/2000/svg" width="32.995" height="53.404" viewBox="0 0 32.995 53.404">
  <defs>
    <style>
      .cls-1 {
        fill: #8ca6fd;
      }
    </style>
  </defs>
  <path id="路径_4166" data-name="路径 4166" class="cls-1" d="M445.3,658.063V656.74a24.739,24.739,0,0,0,5.974-2.325,8.869,8.869,0,0,0,2.871-3.289,9.237,9.237,0,0,0,1.209-4.479,7.284,7.284,0,0,0-2.286-5.384,7.791,7.791,0,0,0-5.688-2.248q-5.293,0-8.994,5.593l-1.4-.491a22.688,22.688,0,0,1,6.974-9.487,15.44,15.44,0,0,1,9.466-3.175,12.322,12.322,0,0,1,8.787,3.25,10.119,10.119,0,0,1,3.459,7.6,10.331,10.331,0,0,1-1.606,5.461,13.958,13.958,0,0,1-5.045,4.63,17.9,17.9,0,0,1,6.746,5.31,13,13,0,0,1,2.325,7.918,18.253,18.253,0,0,1-5.8,13.625q-5.8,5.614-15.552,5.614-6.5,0-9.487-2.155a4.579,4.579,0,0,1-2.155-3.894,4.229,4.229,0,0,1,4.119-4.194,5.334,5.334,0,0,1,2.343.528,48.433,48.433,0,0,1,4.291,3.308q3.683,3,6.9,3a6.256,6.256,0,0,0,4.8-2.211,8.036,8.036,0,0,0,2-5.612,14.613,14.613,0,0,0-3.629-9.544Q452.3,659.726,445.3,658.063Z" transform="translate(-435.1 -631.455)"/>
</svg>
