<svg xmlns="http://www.w3.org/2000/svg" width="69.302" height="121.594" viewBox="0 0 69.302 121.594">
  <defs>
    <style>
      .cls-1 {
        fill: #fff;
        stroke: #fff;
        stroke-miterlimit: 10;
        stroke-width: 10px;
      }

      .cls-2 {
        fill: #c3ff7d;
      }

      .cls-3 {
        fill: #98e825;
      }

      .cls-4 {
        fill: #a8ff4d;
      }

      .cls-5 {
        fill: #97ea2d;
      }
    </style>
  </defs>
  <g id="组_2090" data-name="组 2090" transform="translate(-604.778 -1208.213)">
    <path id="路径_4268" data-name="路径 4268" class="cls-1" d="M659.535,1216.646l-7-2.524a14.354,14.354,0,0,0-18.371,8.636l-.886,2.456a5.862,5.862,0,0,0-2.653,3.131l-.869,2.411a5.86,5.86,0,0,0,.045,4.1l-13.216,36.664-6.075,16.853a13.7,13.7,0,0,0-.3,7.381c.006.027.01.055.016.082l4.049,19.831h0l1.585,7.76a1.657,1.657,0,0,0,2.682.943l6.091-5.064h0l15.247-12.676a14.28,14.28,0,0,0,1.489-1.3c1.275-1.12,2.98-3.279,4.08-7.289l.035-.1c.1-.275.217-.6.352-.975l.253-.7.272-.755,1.185-3.286q.162-.447.33-.917l.223-.616.57-1.582.435-1.208c.117-.325.236-.653.356-.987l.421-1.168q.18-.5.364-1.01l.455-1.261c.79-2.193,1.622-4.5,2.465-6.839l.668-1.852c.538-1.494,1.078-2.99,1.611-4.47l.36-1q.126-.348.25-.694l.906-2.512c.38-1.053.752-2.085,1.113-3.088l.219-.607,1.832-5.083.37-1.027c1-2.777,1.785-4.952,2.226-6.173l.128-.356,0-.01.107-.3.089-.248.038-.1.03-.082h0l.693-1.925a5.86,5.86,0,0,0,2.654-3.131l.869-2.41a5.868,5.868,0,0,0-.045-4.1l.885-2.456A14.354,14.354,0,0,0,659.535,1216.646Z"/>
    <g id="组_2089" data-name="组 2089">
      <g id="组_2088" data-name="组 2088">
        <path id="路径_4269" data-name="路径 4269" class="cls-2" d="M610.227,1295.826a14.285,14.285,0,0,1,.495-8.051l23.442-65.031a14.354,14.354,0,0,1,18.371-8.636l7,2.523A14.355,14.355,0,0,1,668.172,1235l-23.442,65.031a14.285,14.285,0,0,1-4.849,6.586l-21.338,17.74a1.657,1.657,0,0,1-2.682-.943Z"/>
        <rect id="矩形_745" data-name="矩形 745" class="cls-3" width="39.019" height="14.345" rx="5.891" transform="translate(632.623 1222.789) rotate(19.823)"/>
        <path id="路径_4270" data-name="路径 4270" class="cls-4" d="M654.614,1245.965l-18.778,52.092-10.76,3.225-5.827-8.747,18.924-52.5Z"/>
        <path id="路径_4271" data-name="路径 4271" class="cls-5" d="M635.7,1298.008l3.961,8.427s3.841-1.305,5.788-8.4l17.666-49.005-8.367-3.016Z"/>
        <path id="路径_4272" data-name="路径 4272" class="cls-5" d="M638.284,1240.079l-9.177-3.308-18.6,51.592a13.678,13.678,0,0,0-.281,7.462c.022.024,9.18-3.384,9.18-3.384Z"/>
        <path id="路径_4273" data-name="路径 4273" class="cls-5" d="M614.325,1315.686l1.584,7.76a1.657,1.657,0,0,0,2.682.942l6.091-5.064Z"/>
      </g>
    </g>
  </g>
</svg>
