<svg xmlns="http://www.w3.org/2000/svg" width="69.302" height="121.594" viewBox="0 0 69.302 121.594">
  <defs>
    <style>
      .cls-1 {
        fill: #fff;
        stroke: #fff;
        stroke-miterlimit: 10;
        stroke-width: 10px;
      }

      .cls-2 {
        fill: #94f5ff;
      }

      .cls-3 {
        fill: #0fc5ce;
      }

      .cls-4 {
        fill: #53dbf2;
      }

      .cls-5 {
        fill: #3accdb;
      }
    </style>
  </defs>
  <g id="组_2093" data-name="组 2093" transform="translate(-751.634 -1208.201)">
    <path id="路径_4274" data-name="路径 4274" class="cls-1" d="M806.39,1216.634l-7-2.524a14.356,14.356,0,0,0-18.372,8.637l-.885,2.455a5.865,5.865,0,0,0-2.654,3.132l-.869,2.41a5.863,5.863,0,0,0,.046,4.1l-13.217,36.663-6.075,16.853a13.705,13.705,0,0,0-.3,7.381c.006.027.009.055.015.082l4.05,19.832h0l1.585,7.76a1.656,1.656,0,0,0,2.681.942l6.092-5.064h0l15.247-12.676a14.262,14.262,0,0,0,1.489-1.295c1.275-1.121,2.98-3.28,4.08-7.289l.035-.1c.1-.275.217-.6.351-.975l.254-.7c.086-.237.177-.491.272-.755l1.185-3.286c.107-.3.217-.6.33-.916l.222-.617.571-1.582.435-1.208q.176-.486.356-.986l.421-1.169q.18-.5.364-1.009l.454-1.262c.791-2.193,1.623-4.5,2.466-6.839l.667-1.852,1.612-4.47.36-1c.083-.232.167-.463.25-.694l.905-2.512,1.114-3.088.218-.607,1.833-5.082.37-1.028c1-2.776,1.785-4.952,2.225-6.173l.129-.356,0-.01.106-.294.09-.249.038-.1.029-.082h0l.694-1.924a5.866,5.866,0,0,0,2.654-3.132l.869-2.41a5.863,5.863,0,0,0-.046-4.1l.885-2.455A14.354,14.354,0,0,0,806.39,1216.634Z"/>
    <g id="组_2092" data-name="组 2092">
      <g id="组_2091" data-name="组 2091">
        <path id="路径_4275" data-name="路径 4275" class="cls-2" d="M757.082,1295.828a14.286,14.286,0,0,1,.5-8.051l23.442-65.03a14.355,14.355,0,0,1,18.372-8.637l7,2.524a14.354,14.354,0,0,1,8.636,18.372l-23.441,65.03a14.287,14.287,0,0,1-4.849,6.586l-21.339,17.74a1.656,1.656,0,0,1-2.681-.942Z"/>
        <rect id="矩形_746" data-name="矩形 746" class="cls-3" width="39.019" height="14.345" rx="5.891" transform="translate(779.478 1222.791) rotate(19.823)"/>
        <path id="路径_4276" data-name="路径 4276" class="cls-4" d="M801.469,1245.967l-18.778,52.092-10.76,3.225-5.827-8.747,18.924-52.5Z"/>
        <path id="路径_4277" data-name="路径 4277" class="cls-5" d="M782.556,1298.011l3.962,8.427s3.841-1.306,5.788-8.4l17.665-49.006-8.367-3.016Z"/>
        <path id="路径_4278" data-name="路径 4278" class="cls-5" d="M785.14,1240.081l-9.177-3.308-18.6,51.592a13.692,13.692,0,0,0-.281,7.463c.023.023,9.181-3.385,9.181-3.385Z"/>
        <path id="路径_4279" data-name="路径 4279" class="cls-5" d="M761.111,1315.66l1.584,7.76a1.657,1.657,0,0,0,2.682.942l6.092-5.064Z"/>
      </g>
    </g>
  </g>
</svg>
