<svg xmlns="http://www.w3.org/2000/svg" width="97.052" height="93.754" viewBox="0 0 97.052 93.754">
  <defs>
    <style>
      .cls-1, .cls-2, .cls-3 {
        fill: #f4c07f;
      }

      .cls-1, .cls-4 {
        stroke-miterlimit: 10;
      }

      .cls-2 {
        stroke-linejoin: round;
      }

      .cls-4 {
        fill: none;
        stroke: #c19158;
        stroke-linecap: round;
        stroke-width: 1.2px;
      }

      .cls-5 {
        fill: #b36650;
      }

      .cls-6 {
        fill: #7f4839;
      }

      .cls-7 {
        fill: #ffeca2;
      }

      .cls-8 {
        fill: #c99a63;
      }

      .cls-9 {
        fill: #2e3646;
      }

      .cls-10 {
        fill: #c19158;
      }

      .cls-11, .cls-12 {
        stroke: none;
      }

      .cls-12 {
        fill: #fff;
      }
    </style>
  </defs>
  <g id="组_2533" data-name="组 2533" transform="translate(-862.434 410.574)">
    <g id="组_2532" data-name="组 2532">
      <g id="组_2527" data-name="组 2527">
        <g id="路径_5817" data-name="路径 5817" class="cls-1">
          <path class="cls-11" d="M 941.4436645507813 -366.3160095214844 L 940.6439819335938 -366.3160095214844 C 942.0153198242188 -366.3160095214844 943.1309814453125 -367.4316711425781 943.1309814453125 -368.8030090332031 L 938.1456298828125 -368.5330200195313 C 937.5147094726563 -374.3403930664063 934.870849609375 -379.8619384765625 930.7009887695313 -384.0805358886719 L 928.7955932617188 -386.0082397460938 L 930.8706665039063 -387.7519836425781 C 930.9515380859375 -387.8199157714844 932.87890625 -389.4343872070313 935.3519287109375 -391.0658569335938 C 938.977294921875 -393.4574584960938 941.8218383789063 -394.6200561523438 944.0481567382813 -394.6200561523438 C 944.4442749023438 -394.6200561523438 944.828857421875 -394.5831909179688 945.191162109375 -394.5104675292969 C 946.619873046875 -394.2261657714844 947.9612426757813 -393.2446594238281 949.0707397460938 -391.6716918945313 C 950.029541015625 -390.3123779296875 950.7499389648438 -388.6010437011719 951.1541137695313 -386.7226867675781 C 951.6392822265625 -384.4679260253906 951.8899536132813 -380.9289855957031 950.3291625976563 -376.8741455078125 C 948.8418579101563 -373.0102844238281 946.0714721679688 -369.6141662597656 942.0949096679688 -366.7801513671875 L 941.4436645507813 -366.3160095214844 Z"/>
          <path class="cls-12" d="M 940.6309814453125 -368.8030090332031 C 940.6309814453125 -368.8160095214844 940.6439819335938 -368.8160095214844 940.6439819335938 -368.8160095214844 C 953.6749877929688 -378.1029968261719 948.5880126953125 -391.2900085449219 944.7009887695313 -392.0589904785156 C 944.4953002929688 -392.1004333496094 944.27685546875 -392.1200561523438 944.0481567382813 -392.1200561523438 C 939.9549560546875 -392.1200561523438 932.47900390625 -385.8380126953125 932.47900390625 -385.8380126953125 C 936.927001953125 -381.3380126953125 939.9140014648438 -375.4030151367188 940.6309814453125 -368.8030090332031 M 942.243408203125 -363.8160095214844 L 940.6439819335938 -363.8160095214844 C 943.393798828125 -363.8160095214844 945.6309814453125 -366.0531616210938 945.6309814453125 -368.8030090332031 L 935.6602172851563 -368.2630310058594 C 935.090087890625 -373.51123046875 932.6974487304688 -378.5045166015625 928.9229736328125 -382.3230895996094 L 925.1121215820313 -386.1784973144531 L 929.2623901367188 -389.6659851074219 C 929.3477172851563 -389.7377014160156 931.3828125 -391.4423828125 933.9752807617188 -393.1526489257813 C 938.0782470703125 -395.859375 941.2789916992188 -397.1200561523438 944.0481567382813 -397.1200561523438 C 944.6051025390625 -397.1200561523438 945.1512451171875 -397.0675048828125 945.6718139648438 -396.9638366699219 C 947.744140625 -396.5537414550781 949.6258544921875 -395.2220458984375 951.1136474609375 -393.1126708984375 C 952.2647094726563 -391.4807434082031 953.1238403320313 -389.4529724121094 953.59814453125 -387.2485656738281 C 954.1548461914063 -384.6614379882813 954.4443359375 -380.6056823730469 952.6622924804688 -375.97607421875 C 950.9957885742188 -371.6466979980469 947.9285888671875 -367.8677673339844 943.5458374023438 -364.7442626953125 L 942.243408203125 -363.8160095214844 Z"/>
        </g>
        <g id="路径_5818" data-name="路径 5818" class="cls-1">
          <path class="cls-11" d="M 931.752197265625 -386.0379943847656 L 929.6510009765625 -386.0379943847656 L 929.6380004882813 -386.0379943847656 L 928.7952880859375 -386.0379943847656 L 928.12451171875 -386.5481872558594 C 925.5308837890625 -388.5209655761719 922.6622314453125 -389.9657592773438 919.5982666015625 -390.8424682617188 L 917.1163940429688 -391.5526123046875 L 917.90576171875 -394.0104370117188 C 917.9210815429688 -394.0582275390625 918.2855834960938 -395.1884155273438 918.9258422851563 -396.7804260253906 C 919.0433349609375 -397.1086730957031 919.1822509765625 -397.4596557617188 919.35302734375 -397.8594665527344 L 919.5363159179688 -398.291748046875 C 919.9413452148438 -399.247314453125 920.3888549804688 -400.2030639648438 920.8663330078125 -401.1324462890625 L 920.867919921875 -401.135498046875 L 920.8695068359375 -401.1385803222656 C 921.109619140625 -401.6028137207031 921.3326416015625 -402.0169982910156 921.55126953125 -402.4047546386719 L 921.5552368164063 -402.4118347167969 L 921.5592651367188 -402.4188842773438 C 922.439208984375 -403.9562683105469 923.2970581054688 -405.1385498046875 924.181884765625 -406.0333862304688 C 925.5205078125 -407.3871154785156 926.943115234375 -408.0735168457031 928.4102783203125 -408.0735168457031 C 928.4685668945313 -408.0735168457031 928.5276489257813 -408.0723876953125 928.5858154296875 -408.0701599121094 C 929.7255859375 -408.0286865234375 930.7730712890625 -407.4960327148438 931.5303344726563 -406.5704650878906 C 932.0449829101563 -405.9415588378906 932.4259643554688 -405.1477966308594 932.6951293945313 -404.1438598632813 C 933.062255859375 -402.7743530273438 933.2212524414063 -401.0152282714844 933.1810302734375 -398.7668762207031 C 933.1806030273438 -398.3202819824219 933.1676635742188 -397.879150390625 933.1551513671875 -397.4523315429688 L 933.1539306640625 -397.4118041992188 L 933.1531982421875 -397.3848876953125 L 933.1517944335938 -397.3580017089844 C 933.0897216796875 -396.1370544433594 932.9900512695313 -394.8328247070313 932.855712890625 -393.4816284179688 L 932.8535766601563 -393.4598693847656 L 932.8510131835938 -393.4382019042969 L 932.8314819335938 -393.27197265625 C 932.7872924804688 -392.89599609375 932.7455444335938 -392.5408630371094 932.7141723632813 -392.2047729492188 L 932.7102661132813 -392.1630859375 L 932.7050170898438 -392.1215209960938 C 932.4140014648438 -389.8342590332031 932.1258544921875 -388.17724609375 932.1137084960938 -388.1078186035156 L 931.752197265625 -386.0379943847656 Z"/>
          <path class="cls-12" d="M 929.6510009765625 -388.5379943847656 C 929.6510009765625 -388.5379943847656 929.93798828125 -390.1809997558594 930.2249755859375 -392.43701171875 C 930.2639770507813 -392.8550109863281 930.3159790039063 -393.2850036621094 930.3679809570313 -393.72900390625 C 930.4860229492188 -394.9159851074219 930.5900268554688 -396.2070007324219 930.655029296875 -397.4849853515625 C 930.6680297851563 -397.9289855957031 930.6810302734375 -398.3590087890625 930.6810302734375 -398.7900085449219 C 930.7470092773438 -402.3630065917969 930.2769775390625 -405.5069885253906 928.489990234375 -405.5719909667969 C 928.4635009765625 -405.572998046875 928.436767578125 -405.5735168457031 928.4102783203125 -405.5735168457031 C 926.7426147460938 -405.5735168457031 925.1032104492188 -403.577880859375 923.72900390625 -401.177001953125 C 923.5079956054688 -400.7850036621094 923.2990112304688 -400.3940124511719 923.0900268554688 -399.989990234375 C 922.6209716796875 -399.0769958496094 922.2030029296875 -398.177001953125 921.8380126953125 -397.3160095214844 L 921.8380126953125 -397.3030090332031 C 921.6170043945313 -396.8070068359375 921.4210205078125 -396.3380126953125 921.2639770507813 -395.8940124511719 C 920.6380004882813 -394.3420104980469 920.2860107421875 -393.2460021972656 920.2860107421875 -393.2460021972656 C 923.7039794921875 -392.2680053710938 926.8599853515625 -390.6510009765625 929.6380004882813 -388.5379943847656 L 929.6510009765625 -388.5379943847656 M 933.8533325195313 -383.5379943847656 L 929.6510009765625 -383.5379943847656 L 929.6380004882813 -383.5379943847656 L 927.9525146484375 -383.5379943847656 L 926.6110229492188 -384.5583801269531 C 924.2655029296875 -386.3424072265625 921.6746826171875 -387.6479797363281 918.9105224609375 -388.4389343261719 L 913.94677734375 -389.8592224121094 L 915.5254516601563 -394.7748718261719 C 915.5418090820313 -394.8257141113281 915.9262084960938 -396.0177917480469 916.5889892578125 -397.6699829101563 C 916.6644287109375 -397.8786926269531 916.7467651367188 -398.0941162109375 916.8380126953125 -398.3211975097656 L 916.8380126953125 -398.3320617675781 L 916.9916381835938 -398.6944885253906 C 917.0115966796875 -398.7418823242188 917.0319213867188 -398.7898559570313 917.0526733398438 -398.83837890625 L 917.2345581054688 -399.2675170898438 C 917.66357421875 -400.2794189453125 918.1372680664063 -401.2912292480469 918.6426391601563 -402.2748718261719 L 918.6458129882813 -402.2810363769531 L 918.6489868164063 -402.2872314453125 C 918.9031982421875 -402.7786560058594 919.1401977539063 -403.2187805175781 919.3735961914063 -403.6326599121094 L 919.3815307617188 -403.646728515625 L 919.3895263671875 -403.6607666015625 C 920.3787231445313 -405.3889465332031 921.3648071289063 -406.7400207519531 922.4042358398438 -407.7911987304688 C 923.1538696289063 -408.54931640625 923.9481201171875 -409.1607360839844 924.764892578125 -409.6085510253906 C 925.932861328125 -410.2488403320313 927.1593627929688 -410.5735168457031 928.4102783203125 -410.5735168457031 C 928.4984741210938 -410.5735168457031 928.5879516601563 -410.5718383789063 928.67626953125 -410.5685424804688 C 930.5470581054688 -410.4992065429688 932.2476196289063 -409.6417236328125 933.4652099609375 -408.1536254882813 C 934.208984375 -407.2445983886719 934.7469482421875 -406.1447448730469 935.10986328125 -404.7912292480469 C 935.537109375 -403.197509765625 935.7239990234375 -401.2187194824219 935.6809692382813 -398.7432556152344 C 935.68017578125 -398.2691955566406 935.6669311523438 -397.81689453125 935.654052734375 -397.3790588378906 L 935.6528930664063 -397.3386535644531 L 935.6513061523438 -397.2847900390625 L 935.6485595703125 -397.23095703125 C 935.5844116210938 -395.9697570800781 935.4817504882813 -394.6250610351563 935.3434448242188 -393.2342224121094 L 935.339111328125 -393.1907653808594 L 935.3340454101563 -393.1473999023438 L 935.3143920898438 -392.9801330566406 C 935.27197265625 -392.6194458007813 935.23193359375 -392.2787780761719 935.203369140625 -391.9725341796875 L 935.195556640625 -391.8891296386719 L 935.1849975585938 -391.8060607910156 C 934.8867797851563 -389.4618835449219 934.5889892578125 -387.7494201660156 934.576416015625 -387.6776733398438 L 933.8533325195313 -383.5379943847656 Z"/>
        </g>
        <g id="路径_5819" data-name="路径 5819" class="cls-2">
          <path class="cls-11" d="M 933.5640258789063 -319.3200073242188 L 888.3569946289063 -319.3200073242188 C 885.207763671875 -319.3200073242188 882.1459350585938 -319.9425354003906 879.2564697265625 -321.1702880859375 C 876.4708251953125 -322.3538818359375 873.9666137695313 -324.0457153320313 871.8134155273438 -326.1988220214844 C 869.66015625 -328.3519287109375 867.9682006835938 -330.8559875488281 866.7844848632813 -333.6415100097656 C 865.5565795898438 -336.5309143066406 864.9340209960938 -339.5927734375 864.9340209960938 -342.7420043945313 C 864.9340209960938 -345.8909301757813 865.556640625 -348.9526977539063 866.78466796875 -351.84228515625 C 867.9684448242188 -354.6278076171875 869.6602783203125 -357.1318054199219 871.813232421875 -359.2847595214844 C 874.20947265625 -361.6810302734375 877.1011962890625 -363.5294494628906 880.2642822265625 -364.69970703125 C 880.2620849609375 -364.8383483886719 880.260986328125 -364.9757995605469 880.260986328125 -365.1119995117188 L 880.260986328125 -365.6600036621094 C 880.260986328125 -366.3556518554688 880.2813720703125 -367.0141296386719 880.3228759765625 -367.646728515625 C 876.9619140625 -370.2977600097656 874.5838623046875 -373.3966674804688 873.2454223632813 -376.8742370605469 C 871.6848754882813 -380.9290771484375 871.9356689453125 -384.4679870605469 872.4208374023438 -386.7227172851563 C 872.8250732421875 -388.60107421875 873.5454711914063 -390.3123779296875 874.5042724609375 -391.6716918945313 C 875.6143798828125 -393.2455139160156 876.9566650390625 -394.2272338867188 878.3861694335938 -394.5109252929688 C 878.7478637695313 -394.5833435058594 879.1315307617188 -394.6200561523438 879.52685546875 -394.6200561523438 C 881.7532348632813 -394.6200561523438 884.5977172851563 -393.4574584960938 888.22265625 -391.0657653808594 C 889.2607421875 -390.380859375 890.2028198242188 -389.6988525390625 890.9523315429688 -389.1331176757813 C 891.1251220703125 -389.2839965820313 891.299560546875 -389.432861328125 891.4755249023438 -389.5796508789063 C 891.3743896484375 -390.2559204101563 891.2518920898438 -391.1290588378906 891.1312255859375 -392.1225280761719 C 891.0806884765625 -392.5336303710938 891.0284423828125 -392.976318359375 890.9720458984375 -393.4723815917969 L 890.9699096679688 -393.4910583496094 L 890.9680786132813 -393.509765625 C 890.8320922851563 -394.8890075683594 890.7326049804688 -396.1833190917969 890.6723022460938 -397.356689453125 L 890.6707763671875 -397.3862609863281 L 890.6699829101563 -397.4158630371094 C 890.656982421875 -397.8851928710938 890.6439819335938 -398.3535766601563 890.6310424804688 -398.8099060058594 L 890.63037109375 -398.8316650390625 L 890.630126953125 -398.8534240722656 C 890.6054077148438 -401.0948486328125 890.7723999023438 -402.8393859863281 891.1405639648438 -404.1867065429688 C 891.4122314453125 -405.1810302734375 891.79443359375 -405.9669189453125 892.3090209960938 -406.5892639160156 C 893.0642700195313 -407.502685546875 894.1060180664063 -408.0286865234375 895.242431640625 -408.0703125 C 895.2975463867188 -408.0723876953125 895.3551025390625 -408.073486328125 895.4129638671875 -408.073486328125 C 897.8817138671875 -408.073486328125 900.142822265625 -406.1886901855469 902.3255004882813 -402.3113708496094 L 902.337646484375 -402.289794921875 L 902.349365234375 -402.2679748535156 C 902.4093627929688 -402.15625 902.470703125 -402.0444946289063 902.5320434570313 -401.9327697753906 C 902.67529296875 -401.671630859375 902.8233642578125 -401.4016723632813 902.9669799804688 -401.1142578125 C 903.4420166015625 -400.1790466308594 903.8614501953125 -399.2787780761719 904.2137451171875 -398.4382629394531 L 904.2647705078125 -398.3164672851563 C 904.47705078125 -397.8475952148438 904.66064453125 -397.4106140136719 904.8237915039063 -396.9863891601563 C 904.9305419921875 -396.7170104980469 905.0306396484375 -396.4594116210938 905.1233520507813 -396.2167358398438 C 906.5277709960938 -396.5115966796875 907.9560546875 -396.7102966308594 909.391845703125 -396.8099975585938 L 909.4006958007813 -396.8106079101563 L 909.4095458984375 -396.8111572265625 C 910.1533813476563 -396.8575134277344 910.8506469726563 -396.8810119628906 911.4819946289063 -396.8810119628906 L 912.030029296875 -396.8810119628906 C 916.2275390625 -396.8810119628906 920.3082885742188 -396.0514831542969 924.1588134765625 -394.4154357910156 C 927.8722534179688 -392.8376770019531 931.210693359375 -390.5820922851563 934.0814208984375 -387.7113952636719 C 936.9520874023438 -384.8406677246094 939.2076416015625 -381.5022277832031 940.7854614257813 -377.7887878417969 C 942.4214477539063 -373.938232421875 943.2509765625 -369.8575439453125 943.2509765625 -365.6600036621094 L 943.2509765625 -365.1119995117188 C 943.2509765625 -364.7721862792969 943.2509765625 -364.4224853515625 943.2305297851563 -364.0505065917969 C 944.807861328125 -363.3312072753906 946.303466796875 -362.4368286132813 947.69482421875 -361.3795776367188 C 949.57568359375 -359.9503173828125 951.2274780273438 -358.2530517578125 952.6043090820313 -356.3349609375 C 955.4708862304688 -352.3415222167969 956.9860229492188 -347.6411437988281 956.9860229492188 -342.7420043945313 C 956.9860229492188 -339.5928344726563 956.363525390625 -336.5310974121094 955.1358032226563 -333.6417846679688 C 953.9519653320313 -330.8559265136719 952.2598876953125 -328.351806640625 950.1065063476563 -326.1990051269531 C 947.9542236328125 -324.0461120605469 945.4500732421875 -322.3540344238281 942.6641845703125 -321.1702575683594 C 939.77490234375 -319.9425048828125 936.7131958007813 -319.3200073242188 933.5640258789063 -319.3200073242188 Z"/>
          <path class="cls-12" d="M 933.5640258789063 -321.8200073242188 C 939.3159790039063 -321.8200073242188 944.5469970703125 -324.1740112304688 948.3389892578125 -327.9670104980469 C 952.1320190429688 -331.7590026855469 954.4860229492188 -336.989990234375 954.4860229492188 -342.7420043945313 C 954.4860229492188 -351.77099609375 948.677001953125 -359.5140075683594 940.6119995117188 -362.4200134277344 C 940.6480102539063 -362.7260131835938 940.6729736328125 -363.0320129394531 940.6859741210938 -363.3510131835938 C 940.7119750976563 -363.572998046875 940.7249755859375 -363.8080139160156 940.7249755859375 -364.0419921875 C 940.7509765625 -364.3949890136719 940.7509765625 -364.7470092773438 940.7509765625 -365.1119995117188 L 940.7509765625 -365.6600036621094 C 940.7509765625 -381.4549865722656 927.8250122070313 -394.3810119628906 912.030029296875 -394.3810119628906 L 911.4819946289063 -394.3810119628906 C 910.843017578125 -394.3810119628906 910.1909790039063 -394.3550109863281 909.5650024414063 -394.3160095214844 C 907.4910278320313 -394.1719970703125 905.468994140625 -393.8070068359375 903.5390014648438 -393.2460021972656 C 903.5390014648438 -393.2460021972656 903.14697265625 -394.4330139160156 902.4949951171875 -396.0769958496094 C 902.3250122070313 -396.5199890136719 902.1300048828125 -396.9769897460938 901.9080200195313 -397.4590148925781 L 901.9080200195313 -397.4719848632813 C 901.5689697265625 -398.281005859375 901.1649780273438 -399.1419982910156 900.7340087890625 -399.989990234375 C 900.552001953125 -400.3550109863281 900.343017578125 -400.7200012207031 900.14697265625 -401.0849914550781 C 898.7733764648438 -403.5250244140625 897.1077880859375 -405.573486328125 895.4129638671875 -405.573486328125 C 895.3865966796875 -405.573486328125 895.3603515625 -405.572998046875 895.333984375 -405.5719909667969 C 893.5599975585938 -405.5069885253906 893.0910034179688 -402.4159851074219 893.1300048828125 -398.8810119628906 C 893.1430053710938 -398.4240112304688 893.156005859375 -397.9549865722656 893.1690063476563 -397.4849853515625 C 893.2340087890625 -396.2200012207031 893.3389892578125 -394.9419860839844 893.4559936523438 -393.7550048828125 C 893.5079956054688 -393.2980041503906 893.5599975585938 -392.8550109863281 893.6129760742188 -392.4240112304688 C 893.8870239257813 -390.1679992675781 894.1729736328125 -388.5379943847656 894.1729736328125 -388.5379943847656 L 894.1859741210938 -388.5379943847656 C 893.0910034179688 -387.7160034179688 892.0609741210938 -386.8160095214844 891.094970703125 -385.8380126953125 C 891.094970703125 -385.8380126953125 883.6201171875 -392.1200866699219 879.52685546875 -392.1200866699219 C 879.2978515625 -392.1200866699219 879.0799560546875 -392.1004638671875 878.8740234375 -392.0589904785156 C 874.9869995117188 -391.2900085449219 869.9000244140625 -378.1029968261719 882.9299926757813 -368.8160095214844 C 882.9299926757813 -368.8160095214844 882.9429931640625 -368.8160095214844 882.9429931640625 -368.8030090332031 C 882.81298828125 -367.7730102539063 882.760986328125 -366.72900390625 882.760986328125 -365.6600036621094 L 882.760986328125 -365.1119995117188 C 882.760986328125 -364.3710021972656 882.7960205078125 -363.6329956054688 882.8560180664063 -362.9089965820313 C 879.3060302734375 -361.93701171875 876.1229858398438 -360.0589904785156 873.5809936523438 -357.5169982910156 C 869.7890014648438 -353.7250061035156 867.4340209960938 -348.4939880371094 867.4340209960938 -342.7420043945313 C 867.4340209960938 -331.2369995117188 876.8519897460938 -321.8200073242188 888.3569946289063 -321.8200073242188 L 933.5640258789063 -321.8200073242188 M 933.5640258789063 -316.8200073242188 L 888.3569946289063 -316.8200073242188 C 884.8699340820313 -316.8200073242188 881.4791870117188 -317.509521484375 878.2787475585938 -318.8693542480469 C 875.1967163085938 -320.178955078125 872.4266967773438 -322.0501403808594 870.0457153320313 -324.4309692382813 C 867.6646728515625 -326.8118591308594 865.7933349609375 -329.5817565917969 864.483642578125 -332.6637573242188 C 863.1235961914063 -335.8641052246094 862.4340209960938 -339.2549133300781 862.4340209960938 -342.7420043945313 C 862.4340209960938 -346.2287902832031 863.1236572265625 -349.6195373535156 864.4838256835938 -352.8200988769531 C 865.7935180664063 -355.9020385742188 867.6647338867188 -358.6718139648438 870.0454711914063 -361.0525207519531 C 872.2796020507813 -363.2866821289063 874.9033813476563 -365.0906066894531 877.7680053710938 -366.3778686523438 C 877.7688598632813 -366.4222412109375 877.7698364257813 -366.4663391113281 877.7708740234375 -366.5104370117188 C 874.577880859375 -369.2586364746094 872.27587890625 -372.4332580566406 870.9122924804688 -375.9762573242188 C 869.1304931640625 -380.6058654785156 869.4201049804688 -384.6615600585938 869.976806640625 -387.2486267089844 C 870.451171875 -389.4530334472656 871.310302734375 -391.4808044433594 872.4613647460938 -393.1126708984375 C 873.9490966796875 -395.221923828125 875.8306274414063 -396.5535888671875 877.9027709960938 -396.9637451171875 C 878.4234619140625 -397.0674743652344 878.9697875976563 -397.1200561523438 879.5267944335938 -397.1200561523438 C 882.0247192382813 -397.1200561523438 884.8737182617188 -396.09423828125 888.4188232421875 -393.9068298339844 C 888.31005859375 -395.086181640625 888.2283935546875 -396.2008972167969 888.1755981445313 -397.2283935546875 C 888.173583984375 -397.267822265625 888.1719970703125 -397.3072814941406 888.1708984375 -397.3467407226563 C 888.157958984375 -397.8153991699219 888.14501953125 -398.2831115722656 888.1320190429688 -398.7388305664063 C 888.1312255859375 -398.7678527832031 888.130615234375 -398.7968444824219 888.1303100585938 -398.8258666992188 C 888.1029663085938 -401.3024291992188 888.298828125 -403.2715454101563 888.7289428710938 -404.8456726074219 C 889.0961303710938 -406.1894226074219 889.636962890625 -407.2808227539063 890.38232421875 -408.1823120117188 C 891.5970458984375 -409.6514282226563 893.2880249023438 -410.4986572265625 895.1445922851563 -410.5683898925781 L 895.1445922851563 -410.5684204101563 C 895.2335815429688 -410.57177734375 895.3238525390625 -410.573486328125 895.4129638671875 -410.573486328125 C 896.9130859375 -410.573486328125 899.1822509765625 -410.0822448730469 901.4733276367188 -407.7420654296875 C 902.5245971679688 -406.6681823730469 903.5159912109375 -405.2929382324219 904.5040283203125 -403.5377502441406 C 904.520263671875 -403.5089416503906 904.5361938476563 -403.47998046875 904.5518188476563 -403.4508972167969 C 904.6083374023438 -403.3455810546875 904.6661987304688 -403.2403259277344 904.7239379882813 -403.135009765625 C 904.8701782226563 -402.8684692382813 905.0355834960938 -402.5669555664063 905.1994018554688 -402.2395935058594 C 905.7005615234375 -401.2525634765625 906.1447143554688 -400.2987365722656 906.5194702148438 -399.4045104980469 C 906.529296875 -399.3810424804688 906.5389404296875 -399.3575134277344 906.5484008789063 -399.3339233398438 C 906.5945434570313 -399.2319030761719 906.639404296875 -399.1312561035156 906.6832275390625 -399.0316162109375 C 907.5240478515625 -399.1541137695313 908.3702392578125 -399.2450866699219 909.2186279296875 -399.3039855957031 C 909.23046875 -399.3048095703125 909.2422485351563 -399.3056030273438 909.2540893554688 -399.3063354492188 C 910.0494384765625 -399.3558959960938 910.7990112304688 -399.3810119628906 911.4819946289063 -399.3810119628906 L 912.030029296875 -399.3810119628906 C 916.5653686523438 -399.3810119628906 920.9749755859375 -398.4844970703125 925.1364135742188 -396.7163696289063 C 929.1463623046875 -395.0126342773438 932.7506713867188 -392.5776672363281 935.8491821289063 -389.4791564941406 C 938.9476318359375 -386.3806457519531 941.3826293945313 -382.7763671875 943.0863647460938 -378.7664184570313 C 944.8544921875 -374.6049499511719 945.7509765625 -370.1953430175781 945.7509765625 -365.6600036621094 L 945.7509765625 -365.5906066894531 C 946.9558715820313 -364.9450073242188 948.1109619140625 -364.2032165527344 949.2073364257813 -363.3700866699219 C 951.2868041992188 -361.7899475097656 953.113037109375 -359.9134826660156 954.63525390625 -357.7927856445313 C 957.8086547851563 -353.3718566894531 959.4860229492188 -348.1673889160156 959.4860229492188 -342.7420043945313 C 959.4860229492188 -339.2550048828125 958.7965087890625 -335.8642883300781 957.4366455078125 -332.6640930175781 C 956.1268920898438 -329.5816345214844 954.2553100585938 -326.8116149902344 951.8740234375 -324.4309997558594 C 949.494384765625 -322.0506896972656 946.724365234375 -320.1791687011719 943.6419067382813 -318.8693542480469 C 940.4417114257813 -317.5094909667969 937.0509643554688 -316.8200073242188 933.5640258789063 -316.8200073242188 Z"/>
        </g>
      </g>
      <path id="路径_5820" data-name="路径 5820" class="cls-3" d="M891.095-385.838a28.632,28.632,0,0,0-8.152,17.035.013.013,0,0,0-.013-.013c-13.03-9.287-7.943-22.474-4.056-23.243S891.095-385.838,891.095-385.838Z"/>
      <path id="路径_5821" data-name="路径 5821" class="cls-4" d="M881.376-385.4s3.166,3.685,6.245,3.813"/>
      <path id="路径_5822" data-name="路径 5822" class="cls-3" d="M932.479-385.838a28.626,28.626,0,0,1,8.152,17.035.013.013,0,0,1,.013-.013c13.031-9.287,7.944-22.474,4.057-23.243S932.479-385.838,932.479-385.838Z"/>
      <path id="路径_5823" data-name="路径 5823" class="cls-4" d="M942.2-385.4s-3.166,3.685-6.245,3.813"/>
      <path id="路径_5824" data-name="路径 5824" class="cls-5" d="M903.539-393.246a28.333,28.333,0,0,0-9.353,4.708h-.013s-.286-1.63-.56-3.887q-.079-.645-.157-1.33c-.117-1.187-.222-2.465-.287-3.73-.013-.47-.026-.939-.039-1.4-.039-3.535.43-6.626,2.2-6.691,1.722-.065,3.418,2.009,4.813,4.487.2.365.405.73.587,1.1.431.848.835,1.709,1.174,2.518v.013c.222.482.417.939.587,1.382C903.147-394.433,903.539-393.246,903.539-393.246Z"/>
      <g id="组_2528" data-name="组 2528">
        <path id="路径_5825" data-name="路径 5825" class="cls-6" d="M900.734-399.99a10.308,10.308,0,0,1-6.43,2.609,5.284,5.284,0,0,1-1.135-.1c-.013-.47-.026-.939-.039-1.4.626.131,3.613.535,7.017-2.2C900.343-400.72,900.552-400.355,900.734-399.99Z"/>
      </g>
      <g id="组_2529" data-name="组 2529">
        <path id="路径_5826" data-name="路径 5826" class="cls-6" d="M902.495-396.077c-1.878,2.948-7.226,3.535-8.882,3.652q-.079-.645-.157-1.33c1.422-.156,7.109-.939,8.452-3.7C902.13-396.977,902.325-396.52,902.495-396.077Z"/>
      </g>
      <path id="路径_5827" data-name="路径 5827" class="cls-5" d="M930.681-398.79c0,.431-.013.861-.026,1.305-.065,1.278-.169,2.569-.287,3.756-.052.444-.1.874-.143,1.291-.287,2.257-.574,3.9-.574,3.9h-.013a28.319,28.319,0,0,0-9.352-4.708s.352-1.1.978-2.648c.157-.444.352-.913.574-1.409v-.013c.365-.861.783-1.761,1.252-2.674.209-.4.418-.8.639-1.186,1.4-2.44,3.066-4.461,4.761-4.4C930.277-405.507,930.747-402.363,930.681-398.79Z"/>
      <g id="组_2530" data-name="组 2530">
        <path id="路径_5828" data-name="路径 5828" class="cls-6" d="M930.681-398.79c0,.431-.013.861-.026,1.305a5.371,5.371,0,0,1-1.134.1,10.308,10.308,0,0,1-6.431-2.609c.209-.4.418-.8.639-1.186C927.134-398.437,930.082-398.7,930.681-398.79Z"/>
      </g>
      <g id="组_2531" data-name="组 2531">
        <path id="路径_5829" data-name="路径 5829" class="cls-6" d="M930.368-393.729c-.052.444-.1.874-.143,1.291-1.552-.156-6.73-.873-8.961-3.456.157-.444.352-.913.574-1.409C923.312-394.655,928.908-393.885,930.368-393.729Z"/>
      </g>
      <path id="路径_5830" data-name="路径 5830" class="cls-7" d="M940.751-365.66v.548c0,.365,0,.717-.026,1.07a6,6,0,0,1-.039.691c-.013.339-.039.665-.078.991a22.535,22.535,0,0,0-4.226-.391H885.539a22.5,22.5,0,0,0-2.661.156c-.078-.821-.117-1.669-.117-2.517v-.548a25.045,25.045,0,0,1,.182-3.143,28.632,28.632,0,0,1,8.152-17.035,27.787,27.787,0,0,1,3.091-2.7,28.333,28.333,0,0,1,9.353-4.708,28.734,28.734,0,0,1,6.026-1.07c.626-.039,1.278-.065,1.917-.065h.548A28.807,28.807,0,0,1,940.751-365.66Z"/>
      <path id="路径_5831" data-name="路径 5831" class="cls-8" d="M940.751-365.66v.548c0,.365,0,.717-.026,1.07a6,6,0,0,1-.039.691c-.013.339-.039.665-.078.991a22.535,22.535,0,0,0-4.226-.391H917.051a23.624,23.624,0,0,1-10.7-19.734,23.389,23.389,0,0,1,3.209-11.831c.626-.039,1.278-.065,1.917-.065h.548A28.807,28.807,0,0,1,940.751-365.66Z"/>
      <ellipse id="椭圆_714" data-name="椭圆 714" class="cls-9" cx="3.719" cy="4.443" rx="3.719" ry="4.443" transform="translate(893.213 -377.707)"/>
      <ellipse id="椭圆_715" data-name="椭圆 715" class="cls-9" cx="3.719" cy="4.443" rx="3.719" ry="4.443" transform="translate(920.284 -377.707)"/>
      <path id="路径_5832" data-name="路径 5832" class="cls-3" d="M954.486-342.742a20.855,20.855,0,0,1-6.147,14.775,20.855,20.855,0,0,1-14.775,6.147H888.357a20.986,20.986,0,0,1-20.923-20.922,20.859,20.859,0,0,1,6.147-14.775,20.855,20.855,0,0,1,12.41-6.008,19.88,19.88,0,0,1,2.366-.139h45.207a20.045,20.045,0,0,1,3.758.348A20.993,20.993,0,0,1,954.486-342.742Z"/>
      <ellipse id="椭圆_716" data-name="椭圆 716" class="cls-10" cx="4.614" cy="7.921" rx="4.614" ry="7.921" transform="translate(924.339 -350.862)"/>
      <ellipse id="椭圆_717" data-name="椭圆 717" class="cls-10" cx="4.614" cy="7.921" rx="4.614" ry="7.921" transform="translate(887.253 -350.862)"/>
    </g>
  </g>
</svg>
