<svg xmlns="http://www.w3.org/2000/svg" width="129.431" height="91.835" viewBox="0 0 129.431 91.835">
  <defs>
    <style>
      .cls-1 {
        fill: #f4c07f;
        stroke-linejoin: round;
      }

      .cls-2 {
        fill: #d6d6d6;
      }

      .cls-3 {
        fill: #bababa;
      }

      .cls-4 {
        fill: #2e3646;
      }

      .cls-5 {
        fill: none;
        stroke: #696969;
        stroke-linecap: round;
        stroke-miterlimit: 10;
        stroke-width: 1.2px;
      }

      .cls-6, .cls-7 {
        stroke: none;
      }

      .cls-7 {
        fill: #fff;
      }
    </style>
  </defs>
  <g id="组_2545" data-name="组 2545" transform="translate(-846.243 177.926)">
    <g id="组_2544" data-name="组 2544">
      <g id="路径_5877" data-name="路径 5877" class="cls-1">
        <path class="cls-6" d="M 930.5694580078125 -88.59114074707031 C 929.6226196289063 -88.59114074707031 928.6653442382813 -88.64194488525391 927.7239990234375 -88.74212646484375 C 920.1679077148438 -89.51625061035156 913.9453735351563 -92.40203857421875 909.210693359375 -97.32399749755859 L 902.8569946289063 -97.32399749755859 C 894.1337280273438 -97.32399749755859 885.85400390625 -100.8958435058594 879.8235473632813 -107.1938171386719 C 874.91259765625 -104.4421157836914 869.6824951171875 -103.0490188598633 864.2474975585938 -103.0490188598633 C 863.8214721679688 -103.0490188598633 863.3883666992188 -103.0577774047852 862.9602661132813 -103.0750198364258 C 860.33984375 -103.1791839599609 858.012939453125 -103.8759841918945 856.0455932617188 -105.1460189819336 C 854.2124633789063 -106.3294219970703 852.6975708007813 -108.0071029663086 851.5430297851563 -110.1324844360352 C 849.9197998046875 -113.1205825805664 848.9923095703125 -117.0272216796875 848.7862548828125 -121.7438583374023 C 848.6130981445313 -125.7075805664063 848.942626953125 -130.1681365966797 849.7656860351563 -135.0016174316406 C 851.1759033203125 -143.2836151123047 853.9820556640625 -151.9783630371094 856.7484130859375 -156.6373596191406 C 858.1810302734375 -159.0525360107422 860.199462890625 -160.846923828125 862.7471923828125 -161.9697570800781 C 864.8062744140625 -162.8772430419922 867.2098999023438 -163.3373565673828 869.8911743164063 -163.3373565673828 C 874.5823364257813 -163.3373565673828 879.114990234375 -161.9353790283203 881.4652709960938 -161.0702667236328 C 884.4415893554688 -163.9932708740234 887.8721923828125 -166.3359680175781 891.6851806640625 -168.0466003417969 C 895.0504760742188 -169.5563659667969 898.577880859375 -170.5093994140625 902.211181640625 -170.8937072753906 L 903.802490234375 -175.4095153808594 C 907.1035766601563 -175.0287017822266 909.31201171875 -174.1761627197266 910.7622680664063 -173.3173828125 C 911.715087890625 -174.0629730224609 913.0040283203125 -174.6430053710938 914.6724243164063 -174.7128143310547 L 921.359619140625 -174.9926147460938 L 917.222412109375 -171.0857543945313 C 922.0765991210938 -171.0313262939453 926.7730712890625 -169.9888916015625 931.1883544921875 -167.9851684570313 C 934.9478149414063 -166.279052734375 938.331787109375 -163.9582214355469 941.2725219726563 -161.0719146728516 C 943.5738525390625 -161.9411468505859 947.9813232421875 -163.3375854492188 952.5447998046875 -163.3375854492188 C 958.414794921875 -163.3375854492188 962.8591918945313 -161.0116271972656 965.3975830078125 -156.6111602783203 C 968.1087036132813 -151.9138793945313 970.8460083007813 -143.1567840576172 972.2086181640625 -134.8208160400391 C 973.004150390625 -129.9539184570313 973.31103515625 -125.4728240966797 973.1207885742188 -121.5020446777344 C 972.8941650390625 -116.7705993652344 971.9519653320313 -112.8688201904297 970.3203735351563 -109.9050827026367 C 969.1895751953125 -107.8508987426758 967.7183227539063 -106.2288589477539 965.9475708007813 -105.0839996337891 C 964.0449829101563 -103.8539199829102 961.8037719726563 -103.1780242919922 959.2861328125 -103.075080871582 C 958.8694458007813 -103.0578002929688 958.4464721679688 -103.0490188598633 958.0303955078125 -103.0490188598633 C 952.7452392578125 -103.0490417480469 947.661376953125 -104.4353713989258 942.8883666992188 -107.1741790771484 C 942.1721801757813 -106.4277420043945 941.4221801757813 -105.7178192138672 940.6401977539063 -105.0461044311523 C 940.6965942382813 -105.0455093383789 940.75048828125 -105.0452423095703 940.8020629882813 -105.0452423095703 C 940.9419555664063 -105.0452423095703 941.080810546875 -105.0471572875977 941.21484375 -105.0509796142578 L 942.1859741210938 -105.0786437988281 L 942.9209594726563 -104.4432983398438 C 945.0154418945313 -102.6327209472656 946.1561889648438 -100.5626831054688 946.3114624023438 -98.29071807861328 C 946.5313720703125 -95.07215881347656 944.6215209960938 -92.80106353759766 944.4030151367188 -92.55270385742188 L 944.1725463867188 -92.29074096679688 L 943.879150390625 -92.10188293457031 C 943.656494140625 -91.95854187011719 938.3361206054688 -88.59114074707031 930.5694580078125 -88.59114074707031 Z"/>
        <path class="cls-7" d="M 903.5159912109375 -172.9259948730469 C 905.6530151367188 -171.5780029296875 906.3599853515625 -169.906005859375 906.5430297851563 -168.5879974365234 L 905.9149780273438 -168.5879974365234 C 896.5250244140625 -168.5879974365234 888.0280151367188 -164.5480041503906 882.093994140625 -158.1289978027344 C 882.093994140625 -158.1289978027344 876.0714111328125 -160.8373718261719 869.8911743164063 -160.8373718261719 C 865.6829223632813 -160.8373718261719 861.40185546875 -159.58203125 858.8980102539063 -155.3609924316406 C 852.7169799804688 -144.9510040283203 843.5130004882813 -106.3500061035156 863.0609741210938 -105.572998046875 C 863.4600219726563 -105.5569152832031 863.85595703125 -105.5490264892578 864.2474975585938 -105.5490264892578 C 870.6224365234375 -105.5490264892578 875.993896484375 -107.6365966796875 880.3070068359375 -110.3979949951172 C 885.7160034179688 -103.9490051269531 893.823974609375 -99.82400512695313 902.8569946289063 -99.82400512695313 L 910.3040161132813 -99.82400512695313 C 914.1170043945313 -95.52700805664063 919.718994140625 -92.07499694824219 927.97998046875 -91.22900390625 C 928.8714599609375 -91.1337890625 929.7363891601563 -91.09115600585938 930.5694580078125 -91.09115600585938 C 937.6903076171875 -91.09115600585938 942.5260009765625 -94.20399475097656 942.5260009765625 -94.20399475097656 C 942.5260009765625 -94.20399475097656 946.1619873046875 -98.33700561523438 941.2860107421875 -102.552001953125 C 941.1300659179688 -102.5475616455078 940.968505859375 -102.5452270507813 940.8020629882813 -102.5452270507813 C 939.0191650390625 -102.5452270507813 936.6570434570313 -102.8118591308594 934.2470092773438 -103.6029968261719 C 937.364013671875 -105.3619995117188 940.135009765625 -107.6690063476563 942.4219970703125 -110.39599609375 C 946.61328125 -107.6357116699219 951.8351440429688 -105.5490112304688 958.0303955078125 -105.5490112304688 C 958.4113159179688 -105.5490112304688 958.7957763671875 -105.5569000244141 959.1840209960938 -105.572998046875 C 978.1890258789063 -106.3500061035156 969.2410278320313 -144.9510040283203 963.2319946289063 -155.3619995117188 C 960.7977905273438 -159.5820007324219 956.6354370117188 -160.8374786376953 952.5447998046875 -160.8375854492188 C 946.535888671875 -160.8377380371094 940.6810302734375 -158.1289978027344 940.6810302734375 -158.1289978027344 C 940.7340087890625 -158.0610046386719 940.7839965820313 -157.989990234375 940.8359985351563 -157.9219970703125 C 934.8839721679688 -164.4649963378906 926.3109741210938 -168.5879974365234 916.8209838867188 -168.5879974365234 L 912.9520263671875 -168.5879974365234 C 913.1820068359375 -169.7440032958984 913.6820068359375 -171.1809997558594 914.7769775390625 -172.2149963378906 C 911.9329833984375 -172.0960083007813 911.1019897460938 -169.7860107421875 911.1019897460938 -169.7860107421875 C 911.1019897460938 -169.7860107421875 909.6790161132813 -172.2149963378906 903.5159912109375 -172.9259948730469 M 903.5130615234375 -177.9262390136719 C 903.7037353515625 -177.9262390136719 903.8958740234375 -177.9153442382813 904.0889892578125 -177.89306640625 C 906.6060180664063 -177.6026763916016 908.8038940429688 -177.0324096679688 910.6486206054688 -176.19287109375 C 911.836669921875 -176.8014068603516 913.1688232421875 -177.1520843505859 914.5679321289063 -177.2106323242188 C 914.63818359375 -177.2135620117188 914.7083740234375 -177.2150268554688 914.7781982421875 -177.2150268554688 C 916.7809448242188 -177.215087890625 918.5997924804688 -176.0165405273438 919.3836669921875 -174.1588439941406 C 919.4768676757813 -173.9378967285156 919.55322265625 -173.7127990722656 919.613037109375 -173.4855651855469 C 923.978515625 -173.1634826660156 928.2081298828125 -172.0830383300781 932.2214965820313 -170.2616882324219 C 934.5505981445313 -169.2047119140625 936.7828369140625 -167.9009552001953 938.856201171875 -166.3866119384766 C 939.9009399414063 -165.6235656738281 940.9083251953125 -164.804931640625 941.8716430664063 -163.9367065429688 C 942.1951293945313 -164.0447387695313 942.5377807617188 -164.1548156738281 942.8975219726563 -164.2648010253906 C 946.3109130859375 -165.3084411621094 949.5565795898438 -165.8375854492188 952.5443115234375 -165.8375854492188 C 955.528564453125 -165.8374938964844 958.2298583984375 -165.2987365722656 960.5737915039063 -164.2362365722656 C 963.549072265625 -162.8876037597656 965.9005737304688 -160.742431640625 967.5631103515625 -157.8603057861328 C 970.4105224609375 -152.9269714355469 973.2691650390625 -143.8297119140625 974.6758422851563 -135.2241058349609 C 975.9747924804688 -127.2776031494141 976.6535034179688 -116.2253112792969 972.5104370117188 -108.6994323730469 C 971.1780395507813 -106.2791290283203 969.4266357421875 -104.3563690185547 967.304931640625 -102.9845886230469 C 965.0220336914063 -101.5085601806641 962.3584594726563 -100.6986083984375 959.3882446289063 -100.5771789550781 C 958.9390869140625 -100.5585479736328 958.481201171875 -100.5490264892578 958.0303955078125 -100.5490264892578 C 954.5237426757813 -100.5490264892578 951.10302734375 -101.1097869873047 947.7947998046875 -102.2230987548828 C 948.4741821289063 -100.8164825439453 948.7340698242188 -99.50871276855469 948.8056640625 -98.46115112304688 C 949.088623046875 -94.31997680664063 946.7514038085938 -91.43722534179688 946.280029296875 -90.90139770507813 C 945.9742431640625 -90.55380249023438 945.6216430664063 -90.2503662109375 945.2323608398438 -89.99978637695313 C 944.9540405273438 -89.82060241699219 943.4398803710938 -88.88023376464844 940.9561767578125 -87.95941162109375 C 937.6124267578125 -86.71971130371094 934.1178588867188 -86.09115600585938 930.5694580078125 -86.09115600585938 C 929.5342407226563 -86.09115600585938 928.4874267578125 -86.146728515625 927.4581298828125 -86.25630187988281 C 922.945556640625 -86.71981811523438 918.8133544921875 -87.90931701660156 915.1759033203125 -89.79180908203125 C 912.6048583984375 -91.12239074707031 910.2579956054688 -92.81002807617188 908.1747436523438 -94.82400512695313 L 902.8569946289063 -94.82400512695313 C 894.083984375 -94.82400512695313 885.7286987304688 -98.17166137695313 879.3694458007813 -104.1279144287109 C 874.572509765625 -101.7508850097656 869.5023193359375 -100.5490264892578 864.2474975585938 -100.5490264892578 C 863.7880249023438 -100.5490264892578 863.321044921875 -100.5584564208984 862.8595581054688 -100.5770721435547 C 859.78759765625 -100.6991729736328 857.0379028320313 -101.5297546386719 854.689697265625 -103.045654296875 C 852.500732421875 -104.4587554931641 850.7029418945313 -106.4416046142578 849.3462524414063 -108.9391326904297 C 845.2218017578125 -116.5316772460938 845.9575805664063 -127.5309753417969 847.3011474609375 -135.4212799072266 C 848.7579956054688 -143.9769897460938 851.690673828125 -153.0159912109375 854.5987548828125 -157.9137268066406 C 856.3020629882813 -160.7852478027344 858.7047729492188 -162.9201965332031 861.7389526367188 -164.2574462890625 C 864.1177368164063 -165.3058166503906 866.8605346679688 -165.8373718261719 869.8911743164063 -165.8373718261719 C 872.9368896484375 -165.8373718261719 876.2486572265625 -165.3120422363281 879.734619140625 -164.2759704589844 C 880.1282958984375 -164.1589965820313 880.5016479492188 -164.0420227050781 880.8524780273438 -163.9274597167969 C 883.7670288085938 -166.56298828125 887.0548095703125 -168.7093200683594 890.661865234375 -170.3275756835938 C 893.2010498046875 -171.4667358398438 895.8259887695313 -172.3101959228516 898.5159912109375 -172.8535461425781 C 898.5075073242188 -173.4312896728516 898.5993041992188 -174.0176696777344 898.8002319335938 -174.5877838134766 C 899.51123046875 -176.6053924560547 901.4150390625 -177.9262390136719 903.5130615234375 -177.9262390136719 Z"/>
      </g>
      <path id="路径_5878" data-name="路径 5878" class="cls-2" d="M916.821-168.588h-3.869a6.779,6.779,0,0,1,1.825-3.627,4.025,4.025,0,0,0-3.675,2.429s-1.423-2.429-7.586-3.14a6.042,6.042,0,0,1,3.027,4.338h-.628a32.4,32.4,0,0,0-23.821,10.459,32.314,32.314,0,0,0-8.662,22.024v6.856A29.282,29.282,0,0,0,880.22-110.5a29.411,29.411,0,0,0,22.637,10.673H919.88A29.511,29.511,0,0,0,949.3-129.249V-136.1A32.575,32.575,0,0,0,916.821-168.588Z"/>
      <path id="路径_5879" data-name="路径 5879" class="cls-3" d="M874.562-129.249a32.043,32.043,0,0,0,5.9,18.752,29.416,29.416,0,0,1-17.4,4.924c-19.548-.777-10.344-39.378-4.163-49.788s23.2-2.768,23.2-2.768a35.1,35.1,0,0,0-7.532,22.024Z"/>
      <path id="路径_5880" data-name="路径 5880" class="cls-3" d="M948-129.249a32.679,32.679,0,0,1-5.738,18.752,28.021,28.021,0,0,0,16.919,4.924c19.005-.777,10.057-39.378,4.048-49.789s-22.551-2.767-22.551-2.767A35.736,35.736,0,0,1,948-136.1Z"/>
      <circle id="椭圆_728" data-name="椭圆 728" class="cls-4" cx="3.678" cy="3.678" r="3.678" transform="translate(883.35 -128.172)"/>
      <circle id="椭圆_729" data-name="椭圆 729" class="cls-4" cx="3.678" cy="3.678" r="3.678" transform="translate(931.368 -128.172)"/>
      <path id="路径_5881" data-name="路径 5881" class="cls-3" d="M902.216-121.934s-.056,28.06,25.764,30.705A24.178,24.178,0,0,0,942.526-94.2s3.636-4.133-1.24-8.348c-5.868.166-19.505-2.644-17.852-19.752"/>
      <path id="路径_5882" data-name="路径 5882" class="cls-5" d="M910.686-109.287s3.719-5.269,10.971-2.852"/>
      <path id="路径_5883" data-name="路径 5883" class="cls-5" d="M925.252-105.32s-4.339-1.55-8.368,3.1"/>
      <path id="路径_5884" data-name="路径 5884" class="cls-5" d="M925.252-96.456s.041-3.2,4.1-4.942"/>
      <path id="路径_5885" data-name="路径 5885" class="cls-5" d="M897.328-109.287s2.789,4.277,7.128,4.525"/>
    </g>
  </g>
</svg>
