<svg xmlns="http://www.w3.org/2000/svg" width="597.678" height="597.678" viewBox="0 0 597.678 597.678">
  <defs>
    <style>
      .cls-1 {
        fill: #fff7e3;
      }

      .cls-2, .cls-3 {
        fill: none;
        stroke-linecap: round;
        stroke-miterlimit: 10;
      }

      .cls-2 {
        stroke: #bdd6e6;
        stroke-width: 2px;
        stroke-dasharray: 10;
      }

      .cls-3 {
        stroke: #73bbeb;
        stroke-width: 4px;
      }

      .cls-4 {
        fill: #73bbeb;
      }

      .cls-5 {
        fill: #7a350b;
        font-size: 32.395px;
        font-family: TimesNewRomanPS-BoldMT, Times New Roman;
        font-weight: 700;
      }
    </style>
  </defs>
  <g id="组_2514" data-name="组 2514" transform="translate(-420.099 -60.449)">
    <rect id="矩形_313" data-name="矩形 313" class="cls-1" width="597.678" height="597.678" rx="11.461" transform="translate(420.099 60.449)"/>
    <g id="组_2470" data-name="组 2470">
      <g id="组_2467" data-name="组 2467">
        <line id="直线_8" data-name="直线 8" class="cls-2" x2="501.916" transform="translate(470.796 550.365)"/>
        <line id="直线_9" data-name="直线 9" class="cls-2" x2="501.916" transform="translate(470.796 501.798)"/>
        <line id="直线_10" data-name="直线 10" class="cls-2" x2="501.916" transform="translate(470.796 453.232)"/>
        <line id="直线_11" data-name="直线 11" class="cls-2" x2="501.916" transform="translate(470.796 404.666)"/>
        <line id="直线_12" data-name="直线 12" class="cls-2" x2="501.916" transform="translate(470.796 356.1)"/>
        <line id="直线_13" data-name="直线 13" class="cls-2" x2="501.916" transform="translate(470.796 307.534)"/>
        <line id="直线_14" data-name="直线 14" class="cls-2" x2="501.916" transform="translate(470.796 258.968)"/>
        <line id="直线_15" data-name="直线 15" class="cls-2" x2="501.916" transform="translate(470.796 210.402)"/>
        <line id="直线_16" data-name="直线 16" class="cls-2" x2="501.916" transform="translate(470.796 161.836)"/>
        <line id="直线_17" data-name="直线 17" class="cls-2" x2="501.916" transform="translate(470.796 115.044)"/>
      </g>
      <g id="组_2468" data-name="组 2468">
        <line id="直线_18" data-name="直线 18" class="cls-2" y1="484.402" transform="translate(925.078 115.008)"/>
        <line id="直线_19" data-name="直线 19" class="cls-2" y1="484.402" transform="translate(972.713 115.008)"/>
        <line id="直线_20" data-name="直线 20" class="cls-2" y1="484.402" transform="translate(875.083 115.008)"/>
        <line id="直线_21" data-name="直线 21" class="cls-2" y1="484.402" transform="translate(825.089 115.008)"/>
        <line id="直线_22" data-name="直线 22" class="cls-2" y1="484.402" transform="translate(775.094 115.008)"/>
        <line id="直线_23" data-name="直线 23" class="cls-2" y1="484.402" transform="translate(725.099 115.008)"/>
        <line id="直线_24" data-name="直线 24" class="cls-2" y1="484.402" transform="translate(675.104 115.008)"/>
        <line id="直线_25" data-name="直线 25" class="cls-2" y1="484.402" transform="translate(625.109 115.008)"/>
        <line id="直线_26" data-name="直线 26" class="cls-2" y1="484.402" transform="translate(575.114 115.008)"/>
        <line id="直线_27" data-name="直线 27" class="cls-2" y1="484.402" transform="translate(525.119 115.008)"/>
      </g>
      <g id="组_2469" data-name="组 2469">
        <line id="直线_28" data-name="直线 28" class="cls-3" x2="526.473" transform="translate(470.796 599.499)"/>
        <line id="直线_29" data-name="直线 29" class="cls-3" y2="502.948" transform="translate(470.796 96.551)"/>
        <path id="路径_5748" data-name="路径 5748" class="cls-4" d="M469,90.144l-5.927,10.265a2.079,2.079,0,0,0,1.8,3.119h11.853a2.079,2.079,0,0,0,1.8-3.119L472.6,90.144A2.079,2.079,0,0,0,469,90.144Z"/>
        <path id="路径_5749" data-name="路径 5749" class="cls-4" d="M1005.153,597.7l-10.266-5.927a2.079,2.079,0,0,0-3.119,1.8v11.854a2.079,2.079,0,0,0,3.119,1.8l10.266-5.927A2.078,2.078,0,0,0,1005.153,597.7Z"/>
      </g>
    </g>
    <g id="组_2471" data-name="组 2471">
      <text id="_1" data-name="1" class="cls-5" transform="translate(438.412 560.068)"><tspan x="0" y="0">1</tspan></text>
      <text id="_2" data-name="2" class="cls-5" transform="translate(438.412 512.647)"><tspan x="0" y="0">2</tspan></text>
      <text id="_3" data-name="3" class="cls-5" transform="translate(438.412 464.858)"><tspan x="0" y="0">3</tspan></text>
      <text id="_4" data-name="4" class="cls-5" transform="translate(438.412 416.702)"><tspan x="0" y="0">4</tspan></text>
      <text id="_5" data-name="5" class="cls-5" transform="translate(438.412 370.384)"><tspan x="0" y="0">5</tspan></text>
      <text id="_6" data-name="6" class="cls-5" transform="translate(438.412 323.698)"><tspan x="0" y="0">6</tspan></text>
      <text id="_7" data-name="7" class="cls-5" transform="translate(438.412 274.807)"><tspan x="0" y="0">7</tspan></text>
      <text id="_8" data-name="8" class="cls-5" transform="translate(438.412 227.753)"><tspan x="0" y="0">8</tspan></text>
      <text id="_9" data-name="9" class="cls-5" transform="translate(438.412 178.862)"><tspan x="0" y="0">9</tspan></text>
      <text id="_10" data-name="10" class="cls-5" transform="translate(430.412 129.862)"><tspan x="0" y="0">10</tspan></text>
    </g>
    <g id="组_2472" data-name="组 2472">
      <text id="_1-2" data-name="1" class="cls-5" transform="translate(518.214 632.37)"><tspan x="0" y="0">1</tspan></text>
      <text id="_0" data-name="0" class="cls-5" transform="translate(448.073 632.37)"><tspan x="0" y="0">0</tspan></text>
      <text id="_2-2" data-name="2" class="cls-5" transform="translate(567.289 632.37)"><tspan x="0" y="0">2</tspan></text>
      <text id="_3-2" data-name="3" class="cls-5" transform="translate(616.915 632.37)"><tspan x="0" y="0">3</tspan></text>
      <text id="_4-2" data-name="4" class="cls-5" transform="translate(667.645 632.37)"><tspan x="0" y="0">4</tspan></text>
      <text id="_5-2" data-name="5" class="cls-5" transform="translate(717.272 632.37)"><tspan x="0" y="0">5</tspan></text>
      <text id="_6-2" data-name="6" class="cls-5" transform="translate(767.28 632.37)"><tspan x="0" y="0">6</tspan></text>
      <text id="_7-2" data-name="7" class="cls-5" transform="translate(817.123 632.37)"><tspan x="0" y="0">7</tspan></text>
      <text id="_8-2" data-name="8" class="cls-5" transform="translate(867.434 632.37)"><tspan x="0" y="0">8</tspan></text>
      <text id="_9-2" data-name="9" class="cls-5" transform="translate(916.63 632.37)"><tspan x="0" y="0">9</tspan></text>
      <text id="_10-2" data-name="10" class="cls-5" transform="translate(973.63 632.37)"><tspan x="-16.198" y="0">10</tspan></text>
    </g>
  </g>
</svg>
