<svg xmlns="http://www.w3.org/2000/svg" width="72.543" height="69.795" viewBox="0 0 72.543 69.795">
  <defs>
    <style>
      .cls-1 {
        fill: #f4c07f;
      }

      .cls-2 {
        fill: none;
        stroke: #c19158;
        stroke-linecap: round;
        stroke-miterlimit: 10;
      }

      .cls-3 {
        fill: #b36650;
      }

      .cls-4 {
        fill: #7f4839;
      }

      .cls-5 {
        fill: #ffeca2;
      }

      .cls-6 {
        fill: #c99a63;
      }

      .cls-7 {
        fill: #2e3646;
      }

      .cls-8 {
        fill: #c19158;
      }
    </style>
  </defs>
  <g id="组_2520" data-name="组 2520" transform="translate(-580.644 398.594)">
    <g id="组_2519" data-name="组 2519">
      <path id="路径_5791" data-name="路径 5791" class="cls-1" d="M600.361-382.148a23.862,23.862,0,0,0-6.793,14.2.011.011,0,0,0-.011-.011c-10.859-7.739-6.62-18.728-3.38-19.369S600.361-382.148,600.361-382.148Z"/>
      <path id="路径_5792" data-name="路径 5792" class="cls-2" d="M592.262-381.784s2.638,3.07,5.2,3.177"/>
      <path id="路径_5793" data-name="路径 5793" class="cls-1" d="M634.848-382.148a23.85,23.85,0,0,1,6.793,14.2.011.011,0,0,1,.011-.011c10.859-7.739,6.62-18.728,3.381-19.369S634.848-382.148,634.848-382.148Z"/>
      <path id="路径_5794" data-name="路径 5794" class="cls-2" d="M642.948-381.784s-2.638,3.07-5.205,3.177"/>
      <path id="路径_5795" data-name="路径 5795" class="cls-3" d="M610.731-388.321a23.63,23.63,0,0,0-7.794,3.923h-.011s-.239-1.358-.467-3.239q-.064-.537-.13-1.108c-.1-.989-.185-2.055-.24-3.109-.011-.391-.021-.783-.032-1.163-.033-2.946.359-5.522,1.837-5.576,1.434-.054,2.848,1.674,4.011,3.739.163.3.337.609.489.913.358.707.7,1.424.978,2.1v.011c.185.4.348.782.489,1.152C610.405-389.311,610.731-388.321,610.731-388.321Z"/>
      <g id="组_2515" data-name="组 2515">
        <path id="路径_5796" data-name="路径 5796" class="cls-4" d="M608.394-393.941a8.6,8.6,0,0,1-5.359,2.174,4.354,4.354,0,0,1-.946-.087c-.011-.391-.021-.783-.032-1.163a7.257,7.257,0,0,0,5.848-1.837C608.068-394.55,608.242-394.245,608.394-393.941Z"/>
      </g>
      <g id="组_2516" data-name="组 2516">
        <path id="路径_5797" data-name="路径 5797" class="cls-4" d="M609.861-390.68c-1.565,2.456-6.022,2.946-7.4,3.043q-.064-.537-.13-1.108c1.184-.131,5.923-.783,7.043-3.087C609.557-391.43,609.72-391.05,609.861-390.68Z"/>
      </g>
      <path id="路径_5798" data-name="路径 5798" class="cls-3" d="M633.35-392.941c0,.359-.011.717-.022,1.087-.054,1.065-.141,2.141-.239,3.13-.044.37-.087.729-.119,1.077-.24,1.88-.479,3.249-.479,3.249h-.011a23.616,23.616,0,0,0-7.793-3.923s.293-.913.815-2.207c.131-.369.294-.761.478-1.174v-.011c.3-.717.653-1.467,1.044-2.228.174-.337.348-.663.532-.989,1.163-2.033,2.555-3.717,3.968-3.663C633.013-398.539,633.4-395.919,633.35-392.941Z"/>
      <g id="组_2517" data-name="组 2517">
        <path id="路径_5799" data-name="路径 5799" class="cls-4" d="M633.35-392.941c0,.359-.011.717-.022,1.087a4.431,4.431,0,0,1-.945.087,8.593,8.593,0,0,1-5.359-2.174c.174-.337.348-.663.532-.989A7.724,7.724,0,0,0,633.35-392.941Z"/>
      </g>
      <g id="组_2518" data-name="组 2518">
        <path id="路径_5800" data-name="路径 5800" class="cls-4" d="M633.089-388.724c-.044.37-.087.729-.119,1.077-1.294-.131-5.609-.729-7.468-2.881.131-.369.294-.761.478-1.174C627.209-389.495,631.872-388.854,633.089-388.724Z"/>
      </g>
      <path id="路径_5801" data-name="路径 5801" class="cls-5" d="M641.741-365.333v.457c0,.3,0,.6-.022.891a5.132,5.132,0,0,1-.032.576c-.011.283-.033.555-.065.826a18.829,18.829,0,0,0-3.522-.326H595.731a18.674,18.674,0,0,0-2.217.131c-.066-.685-.1-1.392-.1-2.1v-.457a20.747,20.747,0,0,1,.152-2.619,23.862,23.862,0,0,1,6.793-14.2,23.108,23.108,0,0,1,2.576-2.25,23.63,23.63,0,0,1,7.794-3.923,23.908,23.908,0,0,1,5.021-.892c.522-.032,1.065-.054,1.6-.054h.457A24.007,24.007,0,0,1,641.741-365.333Z"/>
      <path id="路径_5802" data-name="路径 5802" class="cls-6" d="M641.741-365.333v.457c0,.3,0,.6-.022.891a5.132,5.132,0,0,1-.032.576c-.011.283-.033.555-.065.826a18.829,18.829,0,0,0-3.522-.326H621.991a19.686,19.686,0,0,1-8.913-16.445,19.5,19.5,0,0,1,2.674-9.859c.522-.032,1.065-.054,1.6-.054h.457A24.007,24.007,0,0,1,641.741-365.333Z"/>
      <ellipse id="椭圆_706" data-name="椭圆 706" class="cls-7" cx="3.099" cy="3.703" rx="3.099" ry="3.703" transform="translate(602.126 -375.372)"/>
      <ellipse id="椭圆_707" data-name="椭圆 707" class="cls-7" cx="3.099" cy="3.703" rx="3.099" ry="3.703" transform="translate(624.685 -375.372)"/>
      <path id="路径_5803" data-name="路径 5803" class="cls-1" d="M653.187-346.234a17.382,17.382,0,0,1-5.122,12.312,17.38,17.38,0,0,1-12.313,5.123H598.079a17.489,17.489,0,0,1-17.435-17.435,17.382,17.382,0,0,1,5.122-12.313,17.381,17.381,0,0,1,10.341-5.007,16.688,16.688,0,0,1,1.972-.116h37.673a16.721,16.721,0,0,1,3.131.29A17.5,17.5,0,0,1,653.187-346.234Z"/>
      <ellipse id="椭圆_708" data-name="椭圆 708" class="cls-8" cx="3.845" cy="6.601" rx="3.845" ry="6.601" transform="translate(628.064 -353.001)"/>
      <ellipse id="椭圆_709" data-name="椭圆 709" class="cls-8" cx="3.845" cy="6.601" rx="3.845" ry="6.601" transform="translate(597.159 -353.001)"/>
    </g>
  </g>
</svg>
