<svg xmlns="http://www.w3.org/2000/svg" width="852.043" height="673.928" viewBox="0 0 852.043 673.928">
  <defs>
    <style>
      .cls-1 {
        fill: #c96f20;
      }

      .cls-2 {
        fill: #db7a46;
      }

      .cls-3 {
        fill: #ad541e;
      }

      .cls-4 {
        fill: none;
        stroke: #a1530d;
        stroke-miterlimit: 10;
        stroke-width: 1.5px;
      }
    </style>
  </defs>
  <g id="组_2466" data-name="组 2466" transform="translate(-284.275 -20.315)">
    <path id="路径_5738" data-name="路径 5738" class="cls-1" d="M1128.787,396.615l-1.077,1.224-26.867,30.192v.014l-19.007,21.36-9.044,10.175V676.356a17.887,17.887,0,0,1-17.887,17.887H377.541a17.887,17.887,0,0,1-17.887-17.887V211.112l-64.03-42.336a21.176,21.176,0,0,1-2.314-1.742,25.629,25.629,0,0,1-5.254-32.933l5-8.153a24.725,24.725,0,0,1,35.008-7.661l1.409.958,30.18,20.429V38.2a17.887,17.887,0,0,1,17.887-17.887h677.364A17.887,17.887,0,0,1,1072.792,38.2V371.929l12.1-14.324.16-.173a28.848,28.848,0,0,1,41.95-2.394A29.965,29.965,0,0,1,1128.787,396.615Z"/>
    <path id="路径_5739" data-name="路径 5739" class="cls-2" d="M330.977,130.294c0,20.19-15.668,36.55-34.993,36.55q-1.357,0-2.674-.12a24.95,24.95,0,0,1-5.254-32.414l5-8.02a24.958,24.958,0,0,1,35.008-7.541l1.409.944A37.575,37.575,0,0,1,330.977,130.294Z"/>
    <path id="路径_5740" data-name="路径 5740" class="cls-2" d="M1128.787,395.817l-1.077,1.2a36.2,36.2,0,0,1-43.041-35.512,37.27,37.27,0,0,1,.226-4.07l.16-.173a29.154,29.154,0,1,1,43.732,38.558Z"/>
    <rect id="矩形_312" data-name="矩形 312" class="cls-3" width="618.053" height="618.053" rx="21.904" transform="translate(409.911 50.262)"/>
    <g id="组_2465" data-name="组 2465">
      <g id="组_2464" data-name="组 2464">
        <path id="路径_5741" data-name="路径 5741" class="cls-4" d="M1100.843,428.031v.014l-7.435,8.353-4.5,5.054-7.076,7.953c-6.211-8.166-10.122-16.346-9.39-23.555C1075.172,399.355,1100.843,428.031,1100.843,428.031Z"/>
        <path id="路径_5742" data-name="路径 5742" class="cls-4" d="M1093.408,436.4l-4.5,5.054S1076.675,415.037,1093.408,436.4Z"/>
        <path id="路径_5743" data-name="路径 5743" class="cls-4" d="M1027.964,126.33s26.488,18.338,28.526,53.655,12.9,118.177,0,142.628-2.038,155.532,0,173.87-4.075,106.631-28.526,120.893"/>
        <path id="路径_5744" data-name="路径 5744" class="cls-4" d="M1072.792,592.586s-30.226,40.072-44.828,48.9"/>
        <path id="路径_5745" data-name="路径 5745" class="cls-4" d="M317.907,183.509s24.086-55.142,92,42.66"/>
        <path id="路径_5746" data-name="路径 5746" class="cls-4" d="M359.654,270.316s29.881,10.187,7.469,118.177c-3.214,19.7,5.437,31.242-7.469,41.43"/>
        <path id="路径_5747" data-name="路径 5747" class="cls-4" d="M359.654,232.282s44.144,24.45,28.523,135.836S371.2,527.046,384.1,565.08s-24.448,110.706-24.448,110.706"/>
      </g>
    </g>
  </g>
</svg>
