<svg xmlns="http://www.w3.org/2000/svg" width="81.102" height="73.345" viewBox="0 0 81.102 73.345">
  <defs>
    <style>
      .cls-1 {
        fill: #517294;
      }

      .cls-2 {
        fill: #b5d1e8;
      }

      .cls-3 {
        fill: #a0b0bf;
      }

      .cls-4 {
        fill: #fff;
      }

      .cls-5 {
        fill: none;
        stroke: #54617d;
        stroke-linecap: round;
        stroke-linejoin: round;
        stroke-width: 5px;
      }

      .cls-6 {
        fill: #2e3646;
      }
    </style>
  </defs>
  <g id="组_2535" data-name="组 2535" transform="translate(-576.364 284.125)">
    <g id="组_2534" data-name="组 2534">
      <path id="路径_5833" data-name="路径 5833" class="cls-1" d="M653.841-243.1v3.76c0,1.069-.043,2.121-.135,3.165a34.672,34.672,0,0,1-7.551,19.023,16.519,16.519,0,0,1-10.573,3.924H598.254a16.448,16.448,0,0,1-10.425-3.81,34.641,34.641,0,0,1-7.671-19.463c-.078-.938-.113-1.884-.113-2.839v-3.76c0-11.747,5.506-22.082,13.7-27.759a26.8,26.8,0,0,1,3.775-2.186,24.75,24.75,0,0,1,4.662-1.7,24.089,24.089,0,0,1,4.209-.685c.61-.049,1.227-.074,1.845-.074h17.414C641.152-275.5,653.841-260.923,653.841-243.1Z"/>
      <path id="路径_5834" data-name="路径 5834" class="cls-2" d="M657.466-231.712a21.226,21.226,0,0,1-8.4,17.008,19.275,19.275,0,0,1-11.628,3.924H596.39a19.2,19.2,0,0,1-11.464-3.81,19,19,0,0,1-2.685-2.341,21.372,21.372,0,0,1-5.877-14.781,21.035,21.035,0,0,1,.125-2.341,20.98,20.98,0,0,1,11.223-16.51,8.683,8.683,0,0,1-.679-2.472c-.484-4.135,2-7.863,5.556-8.32a5.368,5.368,0,0,1,.726-.049,6.742,6.742,0,0,1,6.064,4.56s14.173-1.974,35.252,0c.086.008.164.024.258.033,1.155-2.986,3.886-4.919,6.8-4.544,3.559.457,6.041,4.185,5.557,8.32a8.686,8.686,0,0,1-.765,2.668,20.546,20.546,0,0,1,7.929,7.586,21.372,21.372,0,0,1,2.966,9.055C657.435-233.066,657.466-232.389,657.466-231.712Z"/>
      <path id="路径_5835" data-name="路径 5835" class="cls-3" d="M596.078-254.323a4.624,4.624,0,0,1-3.832,2.072c-.125,0-.242-.009-.359-.017a1.771,1.771,0,0,1-.156-.293,2.726,2.726,0,0,1,.96-3.6,2.507,2.507,0,0,1,3.262,1.526C596-254.527,596.039-254.429,596.078-254.323Z"/>
      <path id="路径_5836" data-name="路径 5836" class="cls-3" d="M638.2-254.323a4.624,4.624,0,0,0,3.832,2.072c.125,0,.242-.009.359-.017a1.629,1.629,0,0,0,.156-.293,2.726,2.726,0,0,0-.959-3.6,2.508,2.508,0,0,0-3.263,1.526C638.277-254.527,638.238-254.429,638.2-254.323Z"/>
      <rect id="矩形_317" data-name="矩形 317" class="cls-4" width="7.052" height="8.563" rx="2.759" transform="translate(600.004 -236.092)"/>
      <rect id="矩形_318" data-name="矩形 318" class="cls-4" width="7.052" height="8.563" rx="2.759" transform="translate(626.655 -236.092)"/>
      <path id="路径_5837" data-name="路径 5837" class="cls-5" d="M589.307-238.821h0a21.728,21.728,0,0,0,11.86,3.544h31.466a21.693,21.693,0,0,0,11.184-3.122l.7-.423"/>
      <ellipse id="椭圆_718" data-name="椭圆 718" class="cls-6" cx="3.47" cy="3.627" rx="3.47" ry="3.627" transform="translate(601.422 -267.691)"/>
      <ellipse id="椭圆_719" data-name="椭圆 719" class="cls-6" cx="3.47" cy="3.627" rx="3.47" ry="3.627" transform="translate(626.03 -267.691)"/>
      <path id="路径_5838" data-name="路径 5838" class="cls-1" d="M606.132-275.334a29.245,29.245,0,0,0-4.753,1.117c-.01-.034-.028-.06-.039-.094-1-2.385-2.959-3.757-4.368-3.07-1.37.675-1.711,3.077-.785,5.415a31.431,31.431,0,0,0-4.142,2.7c-.1-.214-.2-.428-.291-.651-2.385-5.645-1.218-11.754,2.606-13.649s8.868,1.157,11.246,6.8A14.127,14.127,0,0,1,606.132-275.334Z"/>
      <path id="路径_5839" data-name="路径 5839" class="cls-4" d="M601.379-274.217a29.58,29.58,0,0,0-5.192,2.251c-.926-2.338-.585-4.74.785-5.415,1.409-.687,3.366.685,4.368,3.07C601.351-274.277,601.369-274.251,601.379-274.217Z"/>
      <path id="路径_5840" data-name="路径 5840" class="cls-1" d="M627.844-275.334a29.245,29.245,0,0,1,4.753,1.117c.01-.034.028-.06.039-.094,1-2.385,2.959-3.757,4.368-3.07,1.37.675,1.711,3.077.785,5.415a31.435,31.435,0,0,1,4.142,2.7c.1-.214.2-.428.291-.651,2.385-5.645,1.218-11.754-2.606-13.649s-8.868,1.157-11.246,6.8A14.112,14.112,0,0,0,627.844-275.334Z"/>
      <path id="路径_5841" data-name="路径 5841" class="cls-4" d="M632.6-274.217a29.58,29.58,0,0,1,5.192,2.251c.926-2.338.585-4.74-.785-5.415-1.409-.687-3.366.685-4.368,3.07C632.625-274.277,632.607-274.251,632.6-274.217Z"/>
    </g>
  </g>
</svg>
