<svg xmlns="http://www.w3.org/2000/svg" width="99.527" height="68.195" viewBox="0 0 99.527 68.195">
  <defs>
    <style>
      .cls-1 {
        fill: #d6d6d6;
      }

      .cls-2 {
        fill: #bababa;
      }

      .cls-3 {
        fill: #2e3646;
      }

      .cls-4 {
        fill: none;
        stroke: #696969;
        stroke-linecap: round;
        stroke-miterlimit: 10;
      }
    </style>
  </defs>
  <g id="组_2541" data-name="组 2541" transform="translate(-567.15 166.106)">
    <g id="组_2540" data-name="组 2540">
      <path id="路径_5861" data-name="路径 5861" class="cls-1" d="M621.8-162.491h-3.223a5.64,5.64,0,0,1,1.52-3.023,3.355,3.355,0,0,0-3.063,2.024s-1.185-2.024-6.321-2.616a5.036,5.036,0,0,1,2.523,3.615h-.524a27,27,0,0,0-19.851,8.715,26.931,26.931,0,0,0-7.218,18.354v5.713a24.4,24.4,0,0,0,5.657,15.627,24.508,24.508,0,0,0,18.863,8.894h14.187a24.592,24.592,0,0,0,24.52-24.521v-5.713A27.146,27.146,0,0,0,621.8-162.491Z"/>
      <path id="路径_5862" data-name="路径 5862" class="cls-2" d="M586.584-129.709a26.7,26.7,0,0,0,4.918,15.627,24.51,24.51,0,0,1-14.5,4.1c-16.291-.647-8.621-32.815-3.47-41.49s19.33-2.307,19.33-2.307a29.249,29.249,0,0,0-6.276,18.354Z"/>
      <path id="路径_5863" data-name="路径 5863" class="cls-2" d="M647.785-129.709A27.229,27.229,0,0,1,643-114.082a23.35,23.35,0,0,0,14.1,4.1c15.837-.647,8.38-32.815,3.373-41.49s-18.792-2.307-18.792-2.307a29.782,29.782,0,0,1,6.1,18.354Z"/>
      <circle id="椭圆_724" data-name="椭圆 724" class="cls-3" cx="3.065" cy="3.065" r="3.065" transform="translate(593.907 -128.812)"/>
      <circle id="椭圆_725" data-name="椭圆 725" class="cls-3" cx="3.065" cy="3.065" r="3.065" transform="translate(633.922 -128.812)"/>
      <path id="路径_5864" data-name="路径 5864" class="cls-2" d="M609.629-123.613s-.048,23.384,21.469,25.587A20.144,20.144,0,0,0,643.22-100.5s3.03-3.444-1.033-6.956c-4.89.138-16.254-2.2-14.877-16.461"/>
      <path id="路径_5865" data-name="路径 5865" class="cls-4" d="M616.687-113.074s3.1-4.391,9.143-2.376"/>
      <path id="路径_5866" data-name="路径 5866" class="cls-4" d="M628.826-109.768s-3.616-1.292-6.974,2.582"/>
      <path id="路径_5867" data-name="路径 5867" class="cls-4" d="M628.826-102.382s.034-2.664,3.415-4.118"/>
      <path id="路径_5868" data-name="路径 5868" class="cls-4" d="M605.555-113.074s2.325,3.564,5.94,3.771"/>
    </g>
  </g>
</svg>
