<svg xmlns="http://www.w3.org/2000/svg" width="107.322" height="98.014" viewBox="0 0 107.322 98.014">
  <defs>
    <style>
      .cls-1 {
        fill: #f4c07f;
        stroke-miterlimit: 10;
      }

      .cls-2 {
        fill: #517294;
      }

      .cls-3 {
        fill: #b5d1e8;
      }

      .cls-4 {
        fill: #a0b0bf;
      }

      .cls-5, .cls-9 {
        fill: #fff;
      }

      .cls-6 {
        fill: none;
        stroke: #54617d;
        stroke-linecap: round;
        stroke-linejoin: round;
        stroke-width: 6px;
      }

      .cls-7 {
        fill: #2e3646;
      }

      .cls-8, .cls-9 {
        stroke: none;
      }
    </style>
  </defs>
  <g id="组_2539" data-name="组 2539" transform="translate(-857.299 296.46)">
    <g id="组_2538" data-name="组 2538">
      <g id="路径_5851" data-name="路径 5851" class="cls-1">
        <path class="cls-8" d="M 935.5910034179688 -200.9459991455078 L 886.3300170898438 -200.9459991455078 C 880.8414916992188 -200.9459991455078 875.5768432617188 -202.6916046142578 871.1036376953125 -205.9942779541016 C 869.867919921875 -206.8777923583984 868.6707763671875 -207.9216003417969 867.5453491210938 -209.0969848632813 C 865.1168212890625 -211.6405792236328 863.2113037109375 -214.5910339355469 861.8792114257813 -217.8690338134766 C 860.4989013671875 -221.2656402587891 859.7990112304688 -224.8636169433594 859.7990112304688 -228.5630035400391 C 859.7990112304688 -229.6285552978516 859.8544311523438 -230.6651763916016 859.9636840820313 -231.6441040039063 C 860.4301147460938 -235.9912109375 861.911865234375 -240.1964569091797 864.260009765625 -243.8538208007813 C 864.36474609375 -246.8947601318359 864.763671875 -249.9143676757813 865.4478149414063 -252.8400726318359 C 866.16748046875 -255.91796875 867.20556640625 -258.9058837890625 868.5332641601563 -261.7208251953125 C 870.872314453125 -266.68017578125 874.1257934570313 -271.1051635742188 878.0032958984375 -274.619140625 C 876.7987670898438 -278.001953125 876.4693603515625 -281.5580444335938 877.0802612304688 -284.7560424804688 C 877.4295043945313 -286.58447265625 878.0680541992188 -288.213134765625 878.97802734375 -289.5967712402344 C 879.9791870117188 -291.1189270019531 881.2596435546875 -292.2737121582031 882.7839965820313 -293.029052734375 C 884.0374755859375 -293.6473693847656 885.3870239257813 -293.9598388671875 886.7991943359375 -293.9598388671875 C 889.367431640625 -293.9598388671875 891.9685668945313 -292.9379272460938 894.3212890625 -291.0045776367188 C 896.5704956054688 -289.15625 898.4255981445313 -286.5991516113281 899.6865234375 -283.6094055175781 C 899.6882934570313 -283.6053771972656 899.6900024414063 -283.6012878417969 899.6917724609375 -283.5972595214844 C 899.9739990234375 -283.6050720214844 900.257080078125 -283.6090087890625 900.5399780273438 -283.6090087890625 L 921.43798828125 -283.6090087890625 C 921.7493896484375 -283.6090087890625 922.069091796875 -283.6031494140625 922.399658203125 -283.59130859375 C 922.4022216796875 -283.59716796875 922.40478515625 -283.6031494140625 922.4073486328125 -283.6090087890625 C 923.6687622070313 -286.5993957519531 925.5240478515625 -289.1564636230469 927.773193359375 -291.0047302246094 C 930.1258544921875 -292.93798828125 932.7269897460938 -293.9598388671875 935.29541015625 -293.9598388671875 C 936.7075805664063 -293.9598388671875 938.05712890625 -293.6473999023438 939.3067016601563 -293.0311889648438 C 940.8353271484375 -292.2737121582031 942.1158447265625 -291.118896484375 943.116943359375 -289.5967407226563 C 944.0269165039063 -288.2130737304688 944.6654052734375 -286.5843811035156 945.0145874023438 -284.7559509277344 C 945.6298828125 -281.5340270996094 945.2908935546875 -277.9490661621094 944.0638427734375 -274.5437316894531 C 947.9378051757813 -271.0110778808594 951.18408203125 -266.5699157714844 953.5120239257813 -261.5991821289063 C 954.8338623046875 -258.7766418457031 955.8648071289063 -255.7823486328125 956.5762329101563 -252.6994781494141 C 957.2523803710938 -249.7694244384766 957.642333984375 -246.7469787597656 957.7374267578125 -243.7039184570313 C 957.8551635742188 -243.5218811035156 957.9760131835938 -243.3300170898438 958.0934448242188 -243.1336822509766 C 960.2925415039063 -239.4745635986328 961.6063232421875 -235.4638824462891 961.9981079101563 -231.2137603759766 C 962.0796508789063 -230.3510131835938 962.1209716796875 -229.4591827392578 962.1209716796875 -228.5630035400391 C 962.1209716796875 -224.1301727294922 961.075439453125 -219.7155914306641 959.0972900390625 -215.7965240478516 C 957.1817626953125 -212.0012817382813 954.3980102539063 -208.6677856445313 951.0470581054688 -206.1563262939453 L 951.047119140625 -206.1563262939453 C 946.516845703125 -202.7476959228516 941.1721801757813 -200.9459991455078 935.5910034179688 -200.9459991455078 Z"/>
        <path class="cls-9" d="M 935.5910034179688 -203.4459838867188 C 940.7789916992188 -203.4459838867188 945.6019897460938 -205.1880187988281 949.5440063476563 -208.1540069580078 C 955.6320190429688 -212.7149810791016 959.6209716796875 -220.1739807128906 959.6209716796875 -228.5630187988281 C 959.6209716796875 -229.3760070800781 959.583984375 -230.1880187988281 959.5089721679688 -230.9810180664063 C 959.1439819335938 -234.9459838867188 957.8800048828125 -238.6360168457031 955.9500122070313 -241.8469848632813 C 955.72998046875 -242.2149810791016 955.4929809570313 -242.5700073242188 955.2550048828125 -242.9250183105469 C 955.0579833984375 -255.6289825439453 949.4949951171875 -266.8890075683594 941.0700073242188 -273.8320007324219 C 941.1589965820313 -274.0220031738281 941.2490234375 -274.2120056152344 941.3280029296875 -274.4100036621094 C 944.1909790039063 -281.1839904785156 942.7899780273438 -288.5150146484375 938.2009887695313 -290.7890014648438 C 937.27880859375 -291.2437744140625 936.2976684570313 -291.4598388671875 935.2954711914063 -291.4598388671875 C 931.30810546875 -291.4598388671875 926.9859619140625 -288.0401306152344 924.7059936523438 -282.6260070800781 C 924.469970703125 -282.0820007324219 924.27001953125 -281.5260009765625 924.0969848632813 -280.9769897460938 C 923.218017578125 -281.0559997558594 922.3330078125 -281.1090087890625 921.43798828125 -281.1090087890625 L 900.5399780273438 -281.1090087890625 C 899.7990112304688 -281.1090087890625 899.0579833984375 -281.0799865722656 898.3259887695313 -281.02099609375 C 898.2150268554688 -281.0130004882813 898.1069946289063 -280.9909973144531 897.9959716796875 -280.9819946289063 C 897.822998046875 -281.5299987792969 897.6240234375 -282.0840148925781 897.3880004882813 -282.6260070800781 C 895.1090698242188 -288.0397033691406 890.7859497070313 -291.4598388671875 886.7991333007813 -291.4598388671875 C 885.796630859375 -291.4598388671875 884.8162231445313 -291.2439270019531 883.8939819335938 -290.7890014648438 C 879.3049926757813 -288.5150146484375 877.9039916992188 -281.1839904785156 880.7659912109375 -274.4100036621094 C 880.8369750976563 -274.2340087890625 880.9169921875 -274.0669860839844 880.9949951171875 -273.8980102539063 C 872.5609741210938 -266.9939880371094 866.97900390625 -255.7610168457031 866.739990234375 -243.0720062255859 C 864.43701171875 -239.6909942626953 862.9119873046875 -235.6959838867188 862.448974609375 -231.3730163574219 C 862.3460083007813 -230.4530181884766 862.2990112304688 -229.5129852294922 862.2990112304688 -228.5630187988281 C 862.2990112304688 -221.6529846191406 865.0050048828125 -215.3780059814453 869.3510131835938 -210.8260192871094 C 870.343994140625 -209.7890167236328 871.4210205078125 -208.8390045166016 872.572998046875 -208.0169830322266 C 876.47802734375 -205.1289825439453 881.2260131835938 -203.4459838867188 886.3300170898438 -203.4459838867188 L 935.5910034179688 -203.4459838867188 M 934.1324462890625 -283.5791625976563 C 934.4575805664063 -283.5791625976563 934.7721557617188 -283.5107116699219 935.0670166015625 -283.3670043945313 C 936.6400146484375 -282.5920104980469 937.0670166015625 -279.9159851074219 936.1270141601563 -277.2279968261719 C 934.1519775390625 -278.3309936523438 932.072021484375 -279.218994140625 929.9089965820313 -279.8659973144531 C 930.914794921875 -282.1232604980469 932.6337890625 -283.5791625976563 934.1324462890625 -283.5791625976563 M 887.962158203125 -283.5789184570313 C 889.4553833007813 -283.5789184570313 891.167236328125 -282.1339416503906 892.1749877929688 -279.8900146484375 C 890.6309814453125 -279.4339904785156 889.1270141601563 -278.8590087890625 887.6810302734375 -278.1629943847656 C 887.093994140625 -277.885986328125 886.5269775390625 -277.5710144042969 885.9580078125 -277.2569885253906 C 885.031982421875 -279.9360046386719 885.4600219726563 -282.593994140625 887.0280151367188 -283.3670043945313 C 887.3226318359375 -283.5104675292969 887.6373291015625 -283.5789184570313 887.962158203125 -283.5789184570313 M 935.5910034179688 -198.4459838867188 L 886.3300170898438 -198.4459838867188 C 880.3093872070313 -198.4459838867188 874.5369873046875 -200.3566436767578 869.634033203125 -203.9717712402344 C 868.2777099609375 -204.943115234375 866.967529296875 -206.0856323242188 865.7396240234375 -207.3679656982422 L 865.7371215820313 -207.37060546875 L 865.7345581054688 -207.3732452392578 C 863.0905151367188 -210.1426544189453 861.01416015625 -213.3572692871094 859.5631103515625 -216.9278411865234 C 858.060791015625 -220.6248016357422 857.2990112304688 -224.5394134521484 857.2990112304688 -228.5630187988281 C 857.2990112304688 -229.7192077636719 857.3594360351563 -230.8476715087891 857.4786376953125 -231.9170989990234 C 857.9623413085938 -236.4165649414063 859.4457397460938 -240.7770538330078 861.7894897460938 -244.6185302734375 C 861.9327392578125 -247.5926513671875 862.34326171875 -250.5430145263672 863.0134887695313 -253.4093017578125 C 863.7731323242188 -256.6582641601563 864.8695068359375 -259.8134765625 866.2721557617188 -262.7872619628906 C 867.6573486328125 -265.7242736816406 869.3433227539063 -268.4894104003906 871.283203125 -271.005859375 C 872.47900390625 -272.5570373535156 873.7711181640625 -274.0137329101563 875.1458740234375 -275.3616943359375 C 874.2158813476563 -278.6787719726563 874.0267333984375 -282.0948486328125 874.6246337890625 -285.2251281738281 C 875.035888671875 -287.3779296875 875.7977905273438 -289.3109741210938 876.8893432617188 -290.9705505371094 C 878.1372680664063 -292.8680419921875 879.7470703125 -294.3143005371094 881.6739501953125 -295.2691345214844 L 881.6780395507813 -295.2711486816406 L 881.6821899414063 -295.273193359375 C 883.2785034179688 -296.0606079101563 885.0001220703125 -296.4598388671875 886.7991333007813 -296.4598388671875 C 889.9532470703125 -296.4598388671875 893.1032104492188 -295.2413330078125 895.9085083007813 -292.9360961914063 C 898.0726318359375 -291.1576843261719 899.9093627929688 -288.8194885253906 901.2821655273438 -286.1090087890625 L 920.81201171875 -286.1090087890625 C 922.1851806640625 -288.8197326660156 924.0220947265625 -291.1580505371094 926.18603515625 -292.9362487792969 C 928.9912109375 -295.2414245605469 932.1411743164063 -296.4598388671875 935.29541015625 -296.4598388671875 C 937.0942993164063 -296.4598388671875 938.81591796875 -296.0606689453125 940.4124145507813 -295.2734069824219 L 940.4166870117188 -295.2712707519531 L 940.4210205078125 -295.2691345214844 C 942.347900390625 -294.3143005371094 943.9577026367188 -292.8680114746094 945.2056884765625 -290.9704895019531 C 946.2971801757813 -289.3108520507813 947.05908203125 -287.3777770996094 947.47021484375 -285.2249145507813 C 948.0732421875 -282.0672607421875 947.8753051757813 -278.6191101074219 946.9238891601563 -275.27490234375 C 950.521728515625 -271.7205200195313 953.5480346679688 -267.4168701171875 955.7760009765625 -262.6594848632813 C 957.1724853515625 -259.6777038574219 958.2612915039063 -256.5158081054688 959.01220703125 -253.2616119384766 C 959.6742553710938 -250.3925018310547 960.0760498046875 -247.4398803710938 960.2101440429688 -244.4650115966797 C 960.2188110351563 -244.4505920410156 960.2275390625 -244.4360961914063 960.2362060546875 -244.4215850830078 C 961.4015502929688 -242.4826354980469 962.3524169921875 -240.4128265380859 963.0626220703125 -238.2693634033203 C 963.794189453125 -236.0614776611328 964.2736206054688 -233.7644958496094 964.4876708984375 -231.4425354003906 C 964.5761108398438 -230.5037994384766 964.6209716796875 -229.5350189208984 964.6209716796875 -228.5630187988281 C 964.6209716796875 -226.1126708984375 964.3326416015625 -223.6714477539063 963.763916015625 -221.3070831298828 C 963.2111206054688 -219.0086822509766 962.3919067382813 -216.775634765625 961.3291625976563 -214.6700286865234 C 959.2400512695313 -210.5309906005859 956.2014770507813 -206.8940582275391 952.5418701171875 -204.1524200439453 C 950.1279296875 -202.3374633789063 947.4757080078125 -200.9265594482422 944.6591796875 -199.958984375 C 941.7366943359375 -198.9550323486328 938.6857299804688 -198.4459838867188 935.5910034179688 -198.4459838867188 Z"/>
      </g>
      <path id="路径_5852" data-name="路径 5852" class="cls-2" d="M955.271-242.228v4.512c0,1.283-.051,2.545-.162,3.8a41.6,41.6,0,0,1-9.061,22.827,19.827,19.827,0,0,1-12.688,4.709H888.567a19.737,19.737,0,0,1-12.51-4.572,41.563,41.563,0,0,1-9.206-23.355c-.093-1.126-.136-2.261-.136-3.407v-4.512c0-14.1,6.608-26.5,16.436-33.311a32.129,32.129,0,0,1,4.53-2.624,29.747,29.747,0,0,1,5.595-2.036,28.9,28.9,0,0,1,5.05-.822c.732-.059,1.473-.088,2.214-.088h20.9C940.045-281.109,955.271-263.617,955.271-242.228Z"/>
      <path id="路径_5853" data-name="路径 5853" class="cls-3" d="M959.621-228.563a25.469,25.469,0,0,1-10.077,20.409,23.126,23.126,0,0,1-13.953,4.708H886.33a23.048,23.048,0,0,1-13.758-4.571,22.948,22.948,0,0,1-3.221-2.809,25.648,25.648,0,0,1-7.052-17.737,25.3,25.3,0,0,1,.15-2.81,25.174,25.174,0,0,1,13.467-19.812,10.431,10.431,0,0,1-.815-2.966c-.58-4.963,2.4-9.436,6.668-9.984a6.377,6.377,0,0,1,.871-.059,8.091,8.091,0,0,1,7.277,5.472s17.007-2.369,42.3,0c.1.009.2.029.309.039,1.386-3.583,4.664-5.9,8.157-5.452,4.271.548,7.249,5.021,6.668,9.984a10.391,10.391,0,0,1-.918,3.2,24.65,24.65,0,0,1,9.515,9.1,25.625,25.625,0,0,1,3.559,10.866C959.584-230.188,959.621-229.376,959.621-228.563Z"/>
      <path id="路径_5854" data-name="路径 5854" class="cls-4" d="M885.955-255.7a5.547,5.547,0,0,1-4.6,2.487c-.15,0-.29-.01-.431-.02a2.025,2.025,0,0,1-.187-.352,3.27,3.27,0,0,1,1.152-4.317,3.008,3.008,0,0,1,3.914,1.83C885.862-255.942,885.908-255.825,885.955-255.7Z"/>
      <path id="路径_5855" data-name="路径 5855" class="cls-4" d="M936.5-255.7a5.547,5.547,0,0,0,4.6,2.487c.15,0,.291-.01.431-.02a2.03,2.03,0,0,0,.187-.352,3.271,3.271,0,0,0-1.151-4.317,3.009,3.009,0,0,0-3.915,1.83C936.594-255.942,936.547-255.825,936.5-255.7Z"/>
      <rect id="矩形_321" data-name="矩形 321" class="cls-5" width="8.463" height="10.275" rx="3.311" transform="translate(890.667 -233.82)"/>
      <rect id="矩形_322" data-name="矩形 322" class="cls-5" width="8.463" height="10.275" rx="3.311" transform="translate(922.648 -233.82)"/>
      <path id="路径_5856" data-name="路径 5856" class="cls-6" d="M877.831-237.094h0a26.06,26.06,0,0,0,14.231,4.253h37.759a26.033,26.033,0,0,0,13.421-3.746l.844-.507"/>
      <ellipse id="椭圆_722" data-name="椭圆 722" class="cls-7" cx="4.164" cy="4.353" rx="4.164" ry="4.353" transform="translate(892.368 -271.738)"/>
      <ellipse id="椭圆_723" data-name="椭圆 723" class="cls-7" cx="4.164" cy="4.353" rx="4.164" ry="4.353" transform="translate(921.898 -271.738)"/>
      <path id="路径_5857" data-name="路径 5857" class="cls-2" d="M898.02-280.91a35.054,35.054,0,0,0-5.7,1.34c-.013-.041-.034-.071-.047-.113-1.2-2.862-3.551-4.508-5.242-3.684-1.644.81-2.053,3.692-.942,6.5a37.848,37.848,0,0,0-4.97,3.24c-.126-.256-.242-.513-.35-.781-2.862-6.774-1.461-14.105,3.128-16.379s10.642,1.388,13.494,8.163A17.039,17.039,0,0,1,898.02-280.91Z"/>
      <path id="路径_5858" data-name="路径 5858" class="cls-5" d="M892.317-279.57a35.5,35.5,0,0,0-6.231,2.7c-1.111-2.806-.7-5.688.942-6.5,1.691-.824,4.039.822,5.242,3.684C892.283-279.641,892.3-279.611,892.317-279.57Z"/>
      <path id="路径_5859" data-name="路径 5859" class="cls-2" d="M924.075-280.91a35.08,35.08,0,0,1,5.7,1.34c.012-.041.034-.071.047-.113,1.2-2.862,3.55-4.508,5.242-3.684,1.643.81,2.053,3.692.942,6.5a37.849,37.849,0,0,1,4.97,3.24c.126-.256.242-.513.349-.781,2.863-6.774,1.462-14.105-3.127-16.379s-10.642,1.388-13.495,8.163A17.015,17.015,0,0,0,924.075-280.91Z"/>
      <path id="路径_5860" data-name="路径 5860" class="cls-5" d="M929.778-279.57a35.5,35.5,0,0,1,6.231,2.7c1.111-2.806.7-5.688-.942-6.5-1.692-.824-4.039.822-5.242,3.684C929.812-279.641,929.79-279.611,929.778-279.57Z"/>
    </g>
  </g>
</svg>
