<svg xmlns="http://www.w3.org/2000/svg" width="155.33" height="138.33" viewBox="0 0 155.33 138.33">
  <defs>
    <style>
      .cls-1, .cls-4, .cls-7 {
        fill: #fff;
      }

      .cls-1 {
        stroke-linecap: round;
        stroke-linejoin: round;
      }

      .cls-2 {
        fill: #ff9702;
      }

      .cls-3 {
        fill: #f9f455;
      }

      .cls-5 {
        fill: #bdf;
      }

      .cls-6, .cls-7 {
        stroke: none;
      }
    </style>
  </defs>
  <g id="组_2801" data-name="组 2801" transform="translate(-1196.081 -446.369)">
    <g id="路径_4539" data-name="路径 4539" class="cls-1" transform="translate(-248.581 -1121.426)">
      <path class="cls-6" d="M 1594.991943359375 1701.125732421875 L 1589.991943359375 1701.125732421875 L 1454.661865234375 1701.125732421875 L 1449.661865234375 1701.125732421875 L 1449.661865234375 1696.125732421875 L 1449.661865234375 1638.46044921875 L 1449.661865234375 1627.794067382813 L 1449.661865234375 1625.271728515625 L 1451.690551757813 1623.772705078125 L 1460.66162109375 1617.143920898438 L 1460.66162109375 1606.461303710938 L 1460.66162109375 1601.461303710938 L 1465.66162109375 1601.461303710938 L 1481.885375976563 1601.461303710938 L 1519.35546875 1573.774047851563 L 1522.26708984375 1571.62255859375 L 1525.2197265625 1573.717163085938 L 1564.331298828125 1601.461303710938 L 1578.9921875 1601.461303710938 L 1583.9921875 1601.461303710938 L 1583.9921875 1606.461303710938 L 1583.9921875 1615.407958984375 L 1592.884887695313 1621.716064453125 L 1594.991943359375 1623.210693359375 L 1594.991943359375 1625.794189453125 L 1594.991943359375 1638.46044921875 L 1594.991943359375 1696.125732421875 L 1594.991943359375 1701.125732421875 Z"/>
      <path class="cls-7" d="M 1522.326904296875 1577.795288085938 L 1483.5322265625 1606.461303710938 L 1465.66162109375 1606.461303710938 L 1465.66162109375 1619.666259765625 L 1454.661865234375 1627.794067382813 L 1454.661865234375 1638.46044921875 L 1454.661865234375 1696.125732421875 L 1589.991943359375 1696.125732421875 L 1589.991943359375 1638.46044921875 L 1589.991943359375 1625.794189453125 L 1578.9921875 1617.991333007813 L 1578.9921875 1606.461303710938 L 1562.738037109375 1606.461303710938 L 1522.326904296875 1577.795288085938 M 1522.3271484375 1567.795288085938 C 1524.3525390625 1567.795288085938 1526.37841796875 1568.40869140625 1528.112670898438 1569.638916015625 L 1565.924682617188 1596.461303710938 L 1578.9921875 1596.461303710938 C 1584.515014648438 1596.461303710938 1588.9921875 1600.9384765625 1588.9921875 1606.461303710938 L 1588.9921875 1612.824462890625 L 1595.777709960938 1617.637939453125 C 1598.421142578125 1619.513061523438 1599.991943359375 1622.55322265625 1599.991943359375 1625.794189453125 L 1599.991943359375 1638.46044921875 L 1599.991943359375 1696.125732421875 C 1599.991943359375 1701.648559570313 1595.514770507813 1706.125732421875 1589.991943359375 1706.125732421875 L 1454.661865234375 1706.125732421875 C 1449.139038085938 1706.125732421875 1444.661865234375 1701.648559570313 1444.661865234375 1696.125732421875 L 1444.661865234375 1638.46044921875 L 1444.661865234375 1627.794067382813 C 1444.661865234375 1624.621337890625 1446.16748046875 1621.636840820313 1448.719116210938 1619.75146484375 L 1455.66162109375 1614.62158203125 L 1455.66162109375 1606.461303710938 C 1455.66162109375 1600.9384765625 1460.138793945313 1596.461303710938 1465.66162109375 1596.461303710938 L 1480.238525390625 1596.461303710938 L 1516.384155273438 1569.752685546875 C 1518.148559570313 1568.448974609375 1520.237548828125 1567.795288085938 1522.3271484375 1567.795288085938 Z"/>
    </g>
    <g id="组_2411" data-name="组 2411" transform="translate(-248.581 -1121.426)">
      <path id="路径_4653" data-name="路径 4653" class="cls-2" d="M1454.662,1627.794v68.332h135.33v-70.332l-67.665-48Z"/>
      <path id="路径_4654" data-name="路径 4654" class="cls-3" d="M1522.327,1577.8l-67.665,50v10.666h135.33v-12.666Z"/>
      <rect id="矩形_986" data-name="矩形 986" class="cls-4" width="113.331" height="31.999" transform="translate(1465.662 1606.461)"/>
      <rect id="矩形_987" data-name="矩形 987" class="cls-5" width="82.998" height="5.667" transform="translate(1482.995 1618.794)"/>
      <rect id="矩形_988" data-name="矩形 988" class="cls-5" width="82.998" height="5.667" transform="translate(1482.995 1630.544)"/>
      <g id="组_2408" data-name="组 2408">
        <rect id="矩形_989" data-name="矩形 989" class="cls-4" width="17.259" height="4.014" transform="translate(1514.623 1664.329)"/>
        <rect id="矩形_990" data-name="矩形 990" class="cls-4" width="4.014" height="17.259" transform="translate(1521.245 1657.707)"/>
      </g>
      <g id="组_2409" data-name="组 2409">
        <path id="路径_4655" data-name="路径 4655" class="cls-4" d="M1562.078,1666.314a23.516,23.516,0,0,1-1.1,7.288,9.892,9.892,0,0,1-1.76,3.4,8.851,8.851,0,0,1-2.509,2.106,6.449,6.449,0,0,1-6.461-.183,9.033,9.033,0,0,1-2.693-2.75,13.361,13.361,0,0,1-1.481-3.481,22.327,22.327,0,0,1-.827-6.077,24.474,24.474,0,0,1,1.192-7.808,9.265,9.265,0,0,1,2.981-4.509,6.536,6.536,0,0,1,8.471-.02,8.933,8.933,0,0,1,2.9,4.164A23.193,23.193,0,0,1,1562.078,1666.314Zm-5.923-.039q0-6.846-.077-7.981a7.143,7.143,0,0,0-.923-3.615,1.853,1.853,0,0,0-1.558-.616,1.806,1.806,0,0,0-1.307.462,4.037,4.037,0,0,0-.962,2.375q-.25,1.7-.25,11.875a45.324,45.324,0,0,0,.385,7.423,3.317,3.317,0,0,0,.827,1.827,2.106,2.106,0,0,0,1.422.462,1.715,1.715,0,0,0,1.443-.616,6.085,6.085,0,0,0,.923-3.327Z"/>
      </g>
      <g id="组_2410" data-name="组 2410">
        <path id="路径_4656" data-name="路径 4656" class="cls-4" d="M1482.98,1679.891v-.538a16.976,16.976,0,0,0,5.4-2.15,11.078,11.078,0,0,0,3.514-3.514,14.051,14.051,0,0,0,1.814-4.819,11.584,11.584,0,0,1-2.025.855,6.334,6.334,0,0,1-1.757.24,6.425,6.425,0,0,1-4.924-2.131,8.268,8.268,0,0,1-1.968-5.837,10.43,10.43,0,0,1,1.065-4.713,7.889,7.889,0,0,1,11.471-3.2,9.1,9.1,0,0,1,3.245,3.782,12.707,12.707,0,0,1,1.21,5.645,16.766,16.766,0,0,1-1.968,7.872,14.938,14.938,0,0,1-5.866,6.038A19.4,19.4,0,0,1,1482.98,1679.891Zm11.02-12.633q.192-2.151.192-3.783a25.142,25.142,0,0,0-.806-6.508,4.9,4.9,0,0,0-1.364-2.458,1.818,1.818,0,0,0-1.247-.422,1.7,1.7,0,0,0-1.5.826q-.749,1.133-.749,4.319,0,5.319,1.268,7.334a2.524,2.524,0,0,0,2.226,1.306A4.774,4.774,0,0,0,1494,1667.258Z"/>
      </g>
    </g>
  </g>
</svg>
