<svg xmlns="http://www.w3.org/2000/svg" width="155.33" height="138.33" viewBox="0 0 155.33 138.33">
  <defs>
    <style>
      .cls-1, .cls-4, .cls-7 {
        fill: #fff;
      }

      .cls-1 {
        stroke-linecap: round;
        stroke-linejoin: round;
      }

      .cls-2 {
        fill: #ff9702;
      }

      .cls-3 {
        fill: #f9f455;
      }

      .cls-5 {
        fill: #bdf;
      }

      .cls-6, .cls-7 {
        stroke: none;
      }
    </style>
  </defs>
  <g id="组_2807" data-name="组 2807" transform="translate(-200.869 -446.369)">
    <g id="路径_4533" data-name="路径 4533" class="cls-1" transform="translate(-248.581 -1121.426)">
      <path class="cls-6" d="M 599.7793579101563 1701.125732421875 L 594.7793579101563 1701.125732421875 L 459.4493408203125 1701.125732421875 L 454.4493408203125 1701.125732421875 L 454.4493408203125 1696.125732421875 L 454.4493408203125 1638.46044921875 L 454.4493408203125 1627.794067382813 L 454.4493408203125 1625.271728515625 L 456.4779663085938 1623.772705078125 L 465.4490966796875 1617.143920898438 L 465.4490966796875 1606.461303710938 L 465.4490966796875 1601.461303710938 L 470.4490966796875 1601.461303710938 L 486.6728515625 1601.461303710938 L 524.1430053710938 1573.774047851563 L 527.0545043945313 1571.62255859375 L 530.0072631835938 1573.717163085938 L 569.1187744140625 1601.461303710938 L 583.7796020507813 1601.461303710938 L 588.7796020507813 1601.461303710938 L 588.7796020507813 1606.461303710938 L 588.7796020507813 1615.407958984375 L 597.6722412109375 1621.716064453125 L 599.7793579101563 1623.210693359375 L 599.7793579101563 1625.794189453125 L 599.7793579101563 1638.46044921875 L 599.7793579101563 1696.125732421875 L 599.7793579101563 1701.125732421875 Z"/>
      <path class="cls-7" d="M 527.1143798828125 1577.795288085938 L 488.3197021484375 1606.461303710938 L 470.4490966796875 1606.461303710938 L 470.4490966796875 1619.666259765625 L 459.4493408203125 1627.794067382813 L 459.4493408203125 1638.46044921875 L 459.4493408203125 1696.125732421875 L 594.7793579101563 1696.125732421875 L 594.7793579101563 1638.46044921875 L 594.7793579101563 1625.794189453125 L 583.7796020507813 1617.991333007813 L 583.7796020507813 1606.461303710938 L 567.5254516601563 1606.461303710938 L 527.1143798828125 1577.795288085938 M 527.1146240234375 1567.795288085938 C 529.1399536132813 1567.795288085938 531.1658325195313 1568.408813476563 532.900146484375 1569.639038085938 L 570.7120361328125 1596.461303710938 L 583.7796020507813 1596.461303710938 C 589.302490234375 1596.461303710938 593.7796020507813 1600.9384765625 593.7796020507813 1606.461303710938 L 593.7796020507813 1612.824462890625 L 600.5651245117188 1617.637939453125 C 603.2086181640625 1619.513061523438 604.7793579101563 1622.55322265625 604.7793579101563 1625.794189453125 L 604.7793579101563 1638.46044921875 L 604.7793579101563 1696.125732421875 C 604.7793579101563 1701.648559570313 600.30224609375 1706.125732421875 594.7793579101563 1706.125732421875 L 459.4493408203125 1706.125732421875 C 453.9264526367188 1706.125732421875 449.4493408203125 1701.648559570313 449.4493408203125 1696.125732421875 L 449.4493408203125 1638.46044921875 L 449.4493408203125 1627.794067382813 C 449.4493408203125 1624.621337890625 450.9548950195313 1621.636840820313 453.506591796875 1619.75146484375 L 460.4490966796875 1614.62158203125 L 460.4490966796875 1606.461303710938 C 460.4490966796875 1600.9384765625 464.92626953125 1596.461303710938 470.4490966796875 1596.461303710938 L 485.0259399414063 1596.461303710938 L 521.1715698242188 1569.752685546875 C 522.9359741210938 1568.448974609375 525.0249633789063 1567.795288085938 527.1146240234375 1567.795288085938 Z"/>
    </g>
    <g id="组_2390" data-name="组 2390" transform="translate(-248.581 -1121.426)">
      <path id="路径_4629" data-name="路径 4629" class="cls-2" d="M459.449,1627.794v68.332h135.33v-70.332l-67.665-48Z"/>
      <path id="路径_4630" data-name="路径 4630" class="cls-3" d="M527.114,1577.8l-67.665,50v10.666h135.33v-12.666Z"/>
      <rect id="矩形_958" data-name="矩形 958" class="cls-4" width="113.331" height="31.999" transform="translate(470.449 1606.461)"/>
      <rect id="矩形_959" data-name="矩形 959" class="cls-5" width="82.998" height="5.667" transform="translate(487.782 1618.794)"/>
      <rect id="矩形_960" data-name="矩形 960" class="cls-5" width="82.998" height="5.667" transform="translate(487.782 1630.544)"/>
      <g id="组_2389" data-name="组 2389">
        <g id="组_2386" data-name="组 2386">
          <rect id="矩形_961" data-name="矩形 961" class="cls-4" width="17.259" height="4.014" transform="translate(519.411 1664.419)"/>
          <rect id="矩形_962" data-name="矩形 962" class="cls-4" width="4.014" height="17.259" transform="translate(526.033 1657.797)"/>
        </g>
        <g id="组_2387" data-name="组 2387">
          <path id="路径_4631" data-name="路径 4631" class="cls-4" d="M492.829,1679.845l7.228-21.918h-5.5a10.923,10.923,0,0,0-4.858.842,4.433,4.433,0,0,0-1.88,2.214h-.744l1.919-8.247h15.827l-8.912,27.109Z"/>
        </g>
        <g id="组_2388" data-name="组 2388">
          <path id="路径_4632" data-name="路径 4632" class="cls-4" d="M565.669,1679.845h-15.63v-.431q7.188-8.559,8.726-11.517a12.482,12.482,0,0,0,1.537-5.778,4.809,4.809,0,0,0-1.273-3.418,4.1,4.1,0,0,0-3.114-1.362,5.148,5.148,0,0,0-4.682,3.017l-.724-.255a10.859,10.859,0,0,1,3.212-5.563,7.529,7.529,0,0,1,4.975-1.8,7.369,7.369,0,0,1,3.683.94,6.814,6.814,0,0,1,2.6,2.576,6.216,6.216,0,0,1,.94,3.066,11.067,11.067,0,0,1-1.449,5.288q-1.98,3.624-8.638,10.108h5.738a13.062,13.062,0,0,0,2.753-.177,2.28,2.28,0,0,0,1.048-.6,7.75,7.75,0,0,0,1.077-1.773h.705Z"/>
        </g>
      </g>
    </g>
  </g>
</svg>
