<svg xmlns="http://www.w3.org/2000/svg" width="135.33" height="118.33" viewBox="0 0 135.33 118.33">
  <defs>
    <style>
      .cls-1 {
        fill: #ff9702;
      }

      .cls-2 {
        fill: #f9f455;
      }

      .cls-3 {
        fill: #fff;
      }

      .cls-4 {
        fill: #bdf;
      }
    </style>
  </defs>
  <g id="组_2357" data-name="组 2357" transform="translate(-1288.793 -1413.25)">
    <path id="路径_4596" data-name="路径 4596" class="cls-1" d="M1288.793,1463.249v68.332h135.33v-70.332l-67.665-48Z"/>
    <path id="路径_4597" data-name="路径 4597" class="cls-2" d="M1356.458,1413.25l-67.665,50v10.666h135.33v-12.666Z"/>
    <rect id="矩形_922" data-name="矩形 922" class="cls-3" width="113.331" height="31.999" transform="translate(1299.793 1441.916)"/>
    <rect id="矩形_923" data-name="矩形 923" class="cls-4" width="82.998" height="5.667" transform="translate(1317.126 1454.249)"/>
    <rect id="矩形_924" data-name="矩形 924" class="cls-4" width="82.998" height="5.667" transform="translate(1317.126 1465.999)"/>
    <g id="组_2355" data-name="组 2355">
      <rect id="矩形_925" data-name="矩形 925" class="cls-3" width="17.259" height="4.014" transform="translate(1348.754 1499.784)"/>
      <rect id="矩形_926" data-name="矩形 926" class="cls-3" width="4.014" height="17.259" transform="translate(1355.377 1493.161)"/>
    </g>
    <path id="路径_4598" data-name="路径 4598" class="cls-3" d="M1384,1488.236h12.438l-1.978,5.054H1384l-1,2.644q6.758.255,10.4,3.369a8.074,8.074,0,0,1,3,6.386,9.584,9.584,0,0,1-5.308,8.393,12.221,12.221,0,0,1-5.543,1.263,8.684,8.684,0,0,1-4.995-1.214,2.423,2.423,0,0,1-1.214-1.959,2.058,2.058,0,0,1,.637-1.488,2.011,2.011,0,0,1,1.478-.647,4.166,4.166,0,0,1,1.548.313,16.617,16.617,0,0,1,2.683,1.646,9.6,9.6,0,0,0,2.057,1.136,3.765,3.765,0,0,0,1.371.235,3.647,3.647,0,0,0,2.733-1.175,3.937,3.937,0,0,0,1.126-2.821q0-3.447-3.448-5.6a16.143,16.143,0,0,0-8.7-2.154q-.53,0-1.587.019Z"/>
    <g id="组_2356" data-name="组 2356">
      <path id="路径_4599" data-name="路径 4599" class="cls-3" d="M1332.515,1515.345h-15.631v-.431q7.188-8.559,8.726-11.517a12.471,12.471,0,0,0,1.538-5.778,4.809,4.809,0,0,0-1.274-3.418,4.1,4.1,0,0,0-3.114-1.361,5.145,5.145,0,0,0-4.681,3.016l-.725-.255a10.851,10.851,0,0,1,3.212-5.562,7.528,7.528,0,0,1,4.976-1.8,7.359,7.359,0,0,1,3.682.941,6.8,6.8,0,0,1,2.6,2.575,6.206,6.206,0,0,1,.941,3.066,11.057,11.057,0,0,1-1.45,5.288q-1.978,3.625-8.638,10.108h5.739a13.05,13.05,0,0,0,2.752-.177,2.274,2.274,0,0,0,1.048-.6,7.748,7.748,0,0,0,1.077-1.773H1334Z"/>
    </g>
  </g>
</svg>
