<svg xmlns="http://www.w3.org/2000/svg" width="155.33" height="138.33" viewBox="0 0 155.33 138.33">
  <defs>
    <style>
      .cls-1, .cls-4, .cls-7 {
        fill: #fff;
      }

      .cls-1 {
        stroke-linecap: round;
        stroke-linejoin: round;
      }

      .cls-2 {
        fill: #ff9702;
      }

      .cls-3 {
        fill: #f9f455;
      }

      .cls-5 {
        fill: #bdf;
      }

      .cls-6, .cls-7 {
        stroke: none;
      }
    </style>
  </defs>
  <g id="组_2806" data-name="组 2806" transform="translate(-366.738 -446.369)">
    <g id="路径_4536" data-name="路径 4536" class="cls-1" transform="translate(-248.581 -1121.426)">
      <path class="cls-6" d="M 765.6481323242188 1701.125732421875 L 760.6481323242188 1701.125732421875 L 625.318115234375 1701.125732421875 L 620.318115234375 1701.125732421875 L 620.318115234375 1696.125732421875 L 620.318115234375 1638.46044921875 L 620.318115234375 1627.794067382813 L 620.318115234375 1625.271728515625 L 622.3467407226563 1623.772827148438 L 631.31787109375 1617.143798828125 L 631.31787109375 1606.461303710938 L 631.31787109375 1601.461303710938 L 636.31787109375 1601.461303710938 L 652.5415649414063 1601.461303710938 L 690.01171875 1573.774047851563 L 692.9232177734375 1571.62255859375 L 695.8759765625 1573.717163085938 L 734.987548828125 1601.461303710938 L 749.6483764648438 1601.461303710938 L 754.6483764648438 1601.461303710938 L 754.6483764648438 1606.461303710938 L 754.6483764648438 1615.407958984375 L 763.541015625 1621.716064453125 L 765.6481323242188 1623.210693359375 L 765.6481323242188 1625.794189453125 L 765.6481323242188 1638.46044921875 L 765.6481323242188 1696.125732421875 L 765.6481323242188 1701.125732421875 Z"/>
      <path class="cls-7" d="M 692.9830932617188 1577.795288085938 L 654.1884155273438 1606.461303710938 L 636.31787109375 1606.461303710938 L 636.31787109375 1619.666137695313 L 625.318115234375 1627.794067382813 L 625.318115234375 1638.46044921875 L 625.318115234375 1696.125732421875 L 760.6481323242188 1696.125732421875 L 760.6481323242188 1638.46044921875 L 760.6481323242188 1625.794189453125 L 749.6483764648438 1617.991333007813 L 749.6483764648438 1606.461303710938 L 733.3942260742188 1606.461303710938 L 692.9830932617188 1577.795288085938 M 692.9833374023438 1567.795288085938 C 695.0086669921875 1567.795288085938 697.0345458984375 1568.40869140625 698.7688598632813 1569.638916015625 L 736.5808715820313 1596.461303710938 L 749.6483764648438 1596.461303710938 C 755.1712646484375 1596.461303710938 759.6483764648438 1600.9384765625 759.6483764648438 1606.461303710938 L 759.6483764648438 1612.824462890625 L 766.4338989257813 1617.637939453125 C 769.077392578125 1619.513061523438 770.6481323242188 1622.55322265625 770.6481323242188 1625.794189453125 L 770.6481323242188 1638.46044921875 L 770.6481323242188 1696.125732421875 C 770.6481323242188 1701.648559570313 766.1709594726563 1706.125732421875 760.6481323242188 1706.125732421875 L 625.318115234375 1706.125732421875 C 619.7952270507813 1706.125732421875 615.318115234375 1701.648559570313 615.318115234375 1696.125732421875 L 615.318115234375 1638.46044921875 L 615.318115234375 1627.794067382813 C 615.318115234375 1624.621337890625 616.8236694335938 1621.636962890625 619.3753051757813 1619.75146484375 L 626.31787109375 1614.621459960938 L 626.31787109375 1606.461303710938 C 626.31787109375 1600.9384765625 630.7950439453125 1596.461303710938 636.31787109375 1596.461303710938 L 650.8946533203125 1596.461303710938 L 687.040283203125 1569.752685546875 C 688.8046875 1568.448974609375 690.8937377929688 1567.795288085938 692.9833374023438 1567.795288085938 Z"/>
    </g>
    <g id="组_2399" data-name="组 2399" transform="translate(-248.581 -1121.426)">
      <path id="路径_4641" data-name="路径 4641" class="cls-2" d="M625.318,1627.794v68.332h135.33v-70.332l-67.665-48Z"/>
      <path id="路径_4642" data-name="路径 4642" class="cls-3" d="M692.983,1577.8l-67.665,50v10.666h135.33v-12.666Z"/>
      <rect id="矩形_973" data-name="矩形 973" class="cls-4" width="113.331" height="31.999" transform="translate(636.318 1606.461)"/>
      <rect id="矩形_974" data-name="矩形 974" class="cls-5" width="82.998" height="5.667" transform="translate(653.651 1618.794)"/>
      <rect id="矩形_975" data-name="矩形 975" class="cls-5" width="82.998" height="5.667" transform="translate(653.651 1630.544)"/>
      <g id="组_2398" data-name="组 2398">
        <g id="组_2396" data-name="组 2396">
          <path id="路径_4643" data-name="路径 4643" class="cls-4" d="M730.121,1653.008v21.5a13.264,13.264,0,0,0,.214,3.093,2,2,0,0,0,.891,1.1,4.219,4.219,0,0,0,2.173.427h.6v.717H720.155v-.717h.7a5.4,5.4,0,0,0,2.4-.388,1.99,1.99,0,0,0,.969-1.067,11.773,11.773,0,0,0,.253-3.16v-13.632a8.617,8.617,0,0,0-.175-2.279,1.653,1.653,0,0,0-.65-.776,1.917,1.917,0,0,0-1.095-.319,6.205,6.205,0,0,0-2.4.62l-.35-.7,9.676-4.421Z"/>
        </g>
        <rect id="矩形_976" data-name="矩形 976" class="cls-4" width="17.259" height="4.014" transform="translate(685.034 1664.419)"/>
        <g id="组_2397" data-name="组 2397">
          <path id="路径_4644" data-name="路径 4644" class="cls-4" d="M668.883,1652.947v.535a18.246,18.246,0,0,0-5.547,2.262,10.789,10.789,0,0,0-3.3,3.361,16.268,16.268,0,0,0-1.88,4.9,5.622,5.622,0,0,1,1.393-.745,8.49,8.49,0,0,1,2.5-.381,6.3,6.3,0,0,1,4.84,2.109,8.183,8.183,0,0,1,1.938,5.757,10.508,10.508,0,0,1-1.05,4.7,7.742,7.742,0,0,1-2.978,3.3,7.85,7.85,0,0,1-4.124,1.165,7.968,7.968,0,0,1-4.411-1.308,8.628,8.628,0,0,1-3.159-3.828,13.169,13.169,0,0,1-1.137-5.48,16.375,16.375,0,0,1,2.091-8.1,15.57,15.57,0,0,1,5.938-5.976A17.717,17.717,0,0,1,668.883,1652.947Zm-10.979,12.6q-.153,2.636-.152,3.857a25.293,25.293,0,0,0,.505,5.1,7.666,7.666,0,0,0,1.385,3.455,1.8,1.8,0,0,0,3.054-.315q.689-1.02.688-4.152,0-5.269-1.279-7.275a2.514,2.514,0,0,0-2.215-1.3A4.648,4.648,0,0,0,657.9,1665.548Z"/>
        </g>
      </g>
    </g>
  </g>
</svg>
