<svg xmlns="http://www.w3.org/2000/svg" width="135.33" height="118.33" viewBox="0 0 135.33 118.33">
  <defs>
    <style>
      .cls-1 {
        fill: #ff9702;
      }

      .cls-2 {
        fill: #f9f455;
      }

      .cls-3 {
        fill: #fff;
      }

      .cls-4 {
        fill: #bdf;
      }
    </style>
  </defs>
  <g id="组_2352" data-name="组 2352" transform="translate(-459.449 -1413.25)">
    <path id="路径_4588" data-name="路径 4588" class="cls-1" d="M459.449,1463.249v68.332h135.33v-70.332l-67.665-48Z"/>
    <path id="路径_4589" data-name="路径 4589" class="cls-2" d="M527.114,1413.25l-67.665,50v10.666h135.33v-12.666Z"/>
    <rect id="矩形_912" data-name="矩形 912" class="cls-3" width="113.331" height="31.999" transform="translate(470.449 1441.916)"/>
    <rect id="矩形_913" data-name="矩形 913" class="cls-4" width="82.998" height="5.667" transform="translate(487.782 1454.249)"/>
    <rect id="矩形_914" data-name="矩形 914" class="cls-4" width="82.998" height="5.667" transform="translate(487.782 1465.999)"/>
    <g id="组_2351" data-name="组 2351">
      <g id="组_2348" data-name="组 2348">
        <rect id="矩形_915" data-name="矩形 915" class="cls-3" width="17.259" height="4.014" transform="translate(519.411 1499.874)"/>
        <rect id="矩形_916" data-name="矩形 916" class="cls-3" width="4.014" height="17.259" transform="translate(526.033 1493.252)"/>
      </g>
      <g id="组_2349" data-name="组 2349">
        <path id="路径_4590" data-name="路径 4590" class="cls-3" d="M492.829,1515.3l7.228-21.918h-5.5a10.923,10.923,0,0,0-4.858.842,4.435,4.435,0,0,0-1.88,2.213h-.744l1.919-8.246h15.827L495.9,1515.3Z"/>
      </g>
      <g id="组_2350" data-name="组 2350">
        <path id="路径_4591" data-name="路径 4591" class="cls-3" d="M565.669,1515.3h-15.63v-.431q7.188-8.559,8.726-11.517a12.483,12.483,0,0,0,1.537-5.779,4.8,4.8,0,0,0-1.273-3.417,4.1,4.1,0,0,0-3.114-1.362,5.148,5.148,0,0,0-4.682,3.017l-.724-.255a10.858,10.858,0,0,1,3.212-5.563,7.528,7.528,0,0,1,4.975-1.8,7.369,7.369,0,0,1,3.683.94,6.815,6.815,0,0,1,2.6,2.576,6.212,6.212,0,0,1,.94,3.065,11.075,11.075,0,0,1-1.449,5.289q-1.98,3.624-8.638,10.107h5.738a13.157,13.157,0,0,0,2.753-.176,2.289,2.289,0,0,0,1.048-.6,7.754,7.754,0,0,0,1.077-1.773h.705Z"/>
      </g>
    </g>
  </g>
</svg>
