<svg xmlns="http://www.w3.org/2000/svg" width="135.33" height="118.33" viewBox="0 0 135.33 118.33">
  <defs>
    <style>
      .cls-1 {
        fill: #ff9702;
      }

      .cls-2 {
        fill: #f9f455;
      }

      .cls-3 {
        fill: #fff;
      }

      .cls-4 {
        fill: #bdf;
      }
    </style>
  </defs>
  <g id="组_2369" data-name="组 2369" transform="translate(-1122.924 -1413.25)">
    <path id="路径_4608" data-name="路径 4608" class="cls-1" d="M1122.924,1463.249v68.332h135.33v-70.332l-67.665-48Z"/>
    <path id="路径_4609" data-name="路径 4609" class="cls-2" d="M1190.589,1413.25l-67.665,50v10.666h135.33v-12.666Z"/>
    <rect id="矩形_935" data-name="矩形 935" class="cls-3" width="113.331" height="31.999" transform="translate(1133.924 1441.916)"/>
    <rect id="矩形_936" data-name="矩形 936" class="cls-4" width="82.998" height="5.667" transform="translate(1151.257 1454.249)"/>
    <rect id="矩形_937" data-name="矩形 937" class="cls-4" width="82.998" height="5.667" transform="translate(1151.257 1465.999)"/>
    <g id="组_2368" data-name="组 2368">
      <g id="组_2366" data-name="组 2366">
        <rect id="矩形_938" data-name="矩形 938" class="cls-3" width="17.259" height="4.014" transform="translate(1182.886 1499.874)"/>
        <rect id="矩形_939" data-name="矩形 939" class="cls-3" width="4.014" height="17.259" transform="translate(1189.508 1493.252)"/>
      </g>
      <path id="路径_4610" data-name="路径 4610" class="cls-3" d="M1225.657,1500a14.519,14.519,0,0,1,3.825,3.767,7.49,7.49,0,0,1,1.069,4,6.984,6.984,0,0,1-2.379,5.346,9.187,9.187,0,0,1-6.465,2.187,8.655,8.655,0,0,1-5.992-1.907,6.037,6.037,0,0,1-2.119-4.663,5.838,5.838,0,0,1,1.224-3.68,10.741,10.741,0,0,1,4.074-2.89,16.022,16.022,0,0,1-3.978-3.873,6.788,6.788,0,0,1-.877-3.487,6.044,6.044,0,0,1,2.225-4.615,8.809,8.809,0,0,1,6.1-1.994,8.468,8.468,0,0,1,5.752,1.763,5.436,5.436,0,0,1,2.013,4.229,5.213,5.213,0,0,1-1.088,3.266A9.5,9.5,0,0,1,1225.657,1500Zm-5.318,3.083a4.216,4.216,0,0,0-.848.982,7.707,7.707,0,0,0-.693,1.965,11.559,11.559,0,0,0-.308,2.7,8.656,8.656,0,0,0,.462,3.035,3.409,3.409,0,0,0,1.32,1.762,3.269,3.269,0,0,0,1.763.54,3.116,3.116,0,0,0,2.37-1.031,3.97,3.97,0,0,0,.963-2.822Q1225.368,1506.476,1220.339,1503.085Zm3.854-4.066a6.768,6.768,0,0,0,1.06-2.157,9.424,9.424,0,0,0,.347-2.621,5.949,5.949,0,0,0-1.08-3.834,2.692,2.692,0,0,0-2.235-1.021,2.945,2.945,0,0,0-2.2.934,3.2,3.2,0,0,0-.906,2.322,5.267,5.267,0,0,0,1.012,2.919A14.206,14.206,0,0,0,1224.193,1499.019Z"/>
      <g id="组_2367" data-name="组 2367">
        <path id="路径_4611" data-name="路径 4611" class="cls-3" d="M1162.638,1488.327v21.505a13.291,13.291,0,0,0,.213,3.093,2,2,0,0,0,.892,1.095,4.21,4.21,0,0,0,2.172.427h.6v.717h-13.845v-.717h.7a5.4,5.4,0,0,0,2.4-.388,1.986,1.986,0,0,0,.969-1.067,11.722,11.722,0,0,0,.253-3.16V1496.2a8.61,8.61,0,0,0-.175-2.279,1.65,1.65,0,0,0-.649-.775,1.915,1.915,0,0,0-1.1-.32,6.221,6.221,0,0,0-2.4.62l-.35-.7,9.676-4.421Z"/>
      </g>
    </g>
  </g>
</svg>
