<svg xmlns="http://www.w3.org/2000/svg" width="155.33" height="138.33" viewBox="0 0 155.33 138.33">
  <defs>
    <style>
      .cls-1, .cls-4, .cls-7 {
        fill: #fff;
      }

      .cls-1 {
        stroke-linecap: round;
        stroke-linejoin: round;
      }

      .cls-2 {
        fill: #ff9702;
      }

      .cls-3 {
        fill: #f9f455;
      }

      .cls-5 {
        fill: #bdf;
      }

      .cls-6, .cls-7 {
        stroke: none;
      }
    </style>
  </defs>
  <g id="组_2802" data-name="组 2802" transform="translate(-1030.213 -446.369)">
    <g id="路径_4535" data-name="路径 4535" class="cls-1" transform="translate(-248.581 -1121.426)">
      <path class="cls-6" d="M 1429.123168945313 1701.125732421875 L 1424.123168945313 1701.125732421875 L 1288.793212890625 1701.125732421875 L 1283.793212890625 1701.125732421875 L 1283.793212890625 1696.125732421875 L 1283.793212890625 1638.46044921875 L 1283.793212890625 1627.794067382813 L 1283.793212890625 1625.271728515625 L 1285.821899414063 1623.772705078125 L 1294.79296875 1617.143920898438 L 1294.79296875 1606.461303710938 L 1294.79296875 1601.461303710938 L 1299.79296875 1601.461303710938 L 1316.016723632813 1601.461303710938 L 1353.48681640625 1573.774047851563 L 1356.3984375 1571.62255859375 L 1359.35107421875 1573.717163085938 L 1398.462646484375 1601.461303710938 L 1413.12353515625 1601.461303710938 L 1418.12353515625 1601.461303710938 L 1418.12353515625 1606.461303710938 L 1418.12353515625 1615.408081054688 L 1427.01611328125 1621.716064453125 L 1429.123168945313 1623.210693359375 L 1429.123168945313 1625.794189453125 L 1429.123168945313 1638.46044921875 L 1429.123168945313 1696.125732421875 L 1429.123168945313 1701.125732421875 Z"/>
      <path class="cls-7" d="M 1356.458251953125 1577.795288085938 L 1317.66357421875 1606.461303710938 L 1299.79296875 1606.461303710938 L 1299.79296875 1619.666259765625 L 1288.793212890625 1627.794067382813 L 1288.793212890625 1638.46044921875 L 1288.793212890625 1696.125732421875 L 1424.123168945313 1696.125732421875 L 1424.123168945313 1638.46044921875 L 1424.123168945313 1625.794189453125 L 1413.12353515625 1617.991455078125 L 1413.12353515625 1606.461303710938 L 1396.869262695313 1606.461303710938 L 1356.458251953125 1577.795288085938 M 1356.45849609375 1567.795288085938 C 1358.483764648438 1567.795288085938 1360.509765625 1568.408813476563 1362.244018554688 1569.639038085938 L 1400.055908203125 1596.461303710938 L 1413.12353515625 1596.461303710938 C 1418.646362304688 1596.461303710938 1423.12353515625 1600.9384765625 1423.12353515625 1606.461303710938 L 1423.12353515625 1612.824584960938 L 1429.908935546875 1617.637939453125 C 1432.552368164063 1619.513061523438 1434.123168945313 1622.55322265625 1434.123168945313 1625.794189453125 L 1434.123168945313 1638.46044921875 L 1434.123168945313 1696.125732421875 C 1434.123168945313 1701.648559570313 1429.64599609375 1706.125732421875 1424.123168945313 1706.125732421875 L 1288.793212890625 1706.125732421875 C 1283.270385742188 1706.125732421875 1278.793212890625 1701.648559570313 1278.793212890625 1696.125732421875 L 1278.793212890625 1638.46044921875 L 1278.793212890625 1627.794067382813 C 1278.793212890625 1624.621337890625 1280.298828125 1621.636840820313 1282.850463867188 1619.75146484375 L 1289.79296875 1614.62158203125 L 1289.79296875 1606.461303710938 C 1289.79296875 1600.9384765625 1294.270141601563 1596.461303710938 1299.79296875 1596.461303710938 L 1314.369873046875 1596.461303710938 L 1350.515502929688 1569.752685546875 C 1352.279907226563 1568.448974609375 1354.368896484375 1567.795288085938 1356.45849609375 1567.795288085938 Z"/>
    </g>
    <g id="组_2395" data-name="组 2395" transform="translate(-248.581 -1121.426)">
      <path id="路径_4637" data-name="路径 4637" class="cls-2" d="M1288.793,1627.794v68.332h135.33v-70.332l-67.665-48Z"/>
      <path id="路径_4638" data-name="路径 4638" class="cls-3" d="M1356.458,1577.8l-67.665,50v10.666h135.33v-12.666Z"/>
      <rect id="矩形_968" data-name="矩形 968" class="cls-4" width="113.331" height="31.999" transform="translate(1299.793 1606.461)"/>
      <rect id="矩形_969" data-name="矩形 969" class="cls-5" width="82.998" height="5.667" transform="translate(1317.126 1618.794)"/>
      <rect id="矩形_970" data-name="矩形 970" class="cls-5" width="82.998" height="5.667" transform="translate(1317.126 1630.544)"/>
      <g id="组_2393" data-name="组 2393">
        <rect id="矩形_971" data-name="矩形 971" class="cls-4" width="17.259" height="4.014" transform="translate(1348.754 1664.329)"/>
        <rect id="矩形_972" data-name="矩形 972" class="cls-4" width="4.014" height="17.259" transform="translate(1355.377 1657.707)"/>
      </g>
      <path id="路径_4639" data-name="路径 4639" class="cls-4" d="M1384,1652.782h12.438l-1.978,5.053H1384l-1,2.644q6.758.255,10.4,3.37a8.071,8.071,0,0,1,3,6.385,9.584,9.584,0,0,1-5.308,8.393,12.208,12.208,0,0,1-5.543,1.264,8.685,8.685,0,0,1-4.995-1.215,2.423,2.423,0,0,1-1.214-1.958,2.059,2.059,0,0,1,.637-1.489,2.011,2.011,0,0,1,1.478-.647,4.148,4.148,0,0,1,1.548.314,16.5,16.5,0,0,1,2.683,1.645,9.558,9.558,0,0,0,2.057,1.136,3.765,3.765,0,0,0,1.371.235,3.643,3.643,0,0,0,2.733-1.175,3.935,3.935,0,0,0,1.126-2.82q0-3.448-3.448-5.6a16.135,16.135,0,0,0-8.7-2.155q-.53,0-1.587.019Z"/>
      <g id="组_2394" data-name="组 2394">
        <path id="路径_4640" data-name="路径 4640" class="cls-4" d="M1332.515,1679.891h-15.631v-.431q7.188-8.56,8.726-11.518a12.469,12.469,0,0,0,1.538-5.778,4.81,4.81,0,0,0-1.274-3.418,4.1,4.1,0,0,0-3.114-1.361,5.145,5.145,0,0,0-4.681,3.016l-.725-.255a10.851,10.851,0,0,1,3.212-5.562,7.532,7.532,0,0,1,4.976-1.8,7.357,7.357,0,0,1,3.682.94,6.8,6.8,0,0,1,2.6,2.576,6.2,6.2,0,0,1,.941,3.065,11.064,11.064,0,0,1-1.45,5.289q-1.978,3.624-8.638,10.107h5.739a13.058,13.058,0,0,0,2.752-.177,2.276,2.276,0,0,0,1.048-.6,7.751,7.751,0,0,0,1.077-1.773H1334Z"/>
      </g>
    </g>
  </g>
</svg>
