<svg xmlns="http://www.w3.org/2000/svg" width="135.33" height="118.33" viewBox="0 0 135.33 118.33">
  <defs>
    <style>
      .cls-1 {
        fill: #ff9702;
      }

      .cls-2 {
        fill: #f9f455;
      }

      .cls-3 {
        fill: #fff;
      }

      .cls-4 {
        fill: #bdf;
      }
    </style>
  </defs>
  <g id="组_2354" data-name="组 2354" transform="translate(-791.187 -1413.25)">
    <path id="路径_4592" data-name="路径 4592" class="cls-1" d="M791.187,1463.249v68.332h135.33v-70.332l-67.665-48Z"/>
    <path id="路径_4593" data-name="路径 4593" class="cls-2" d="M858.852,1413.25l-67.665,50v10.666h135.33v-12.666Z"/>
    <rect id="矩形_917" data-name="矩形 917" class="cls-3" width="113.331" height="31.999" transform="translate(802.187 1441.916)"/>
    <rect id="矩形_918" data-name="矩形 918" class="cls-4" width="82.998" height="5.667" transform="translate(819.52 1454.249)"/>
    <rect id="矩形_919" data-name="矩形 919" class="cls-4" width="82.998" height="5.667" transform="translate(819.52 1465.999)"/>
    <g id="组_2353" data-name="组 2353">
      <rect id="矩形_920" data-name="矩形 920" class="cls-3" width="17.259" height="4.014" transform="translate(851.148 1499.784)"/>
      <rect id="矩形_921" data-name="矩形 921" class="cls-3" width="4.014" height="17.259" transform="translate(857.77 1493.161)"/>
    </g>
    <path id="路径_4594" data-name="路径 4594" class="cls-3" d="M824,1488.236h12.438l-1.978,5.054H824l-1,2.644q6.758.255,10.4,3.369a8.072,8.072,0,0,1,3,6.386,9.589,9.589,0,0,1-5.308,8.393,12.227,12.227,0,0,1-5.543,1.263,8.679,8.679,0,0,1-4.995-1.214,2.421,2.421,0,0,1-1.214-1.959,2.057,2.057,0,0,1,.636-1.488,2.013,2.013,0,0,1,1.479-.647,4.16,4.16,0,0,1,1.547.313,16.568,16.568,0,0,1,2.683,1.646,9.626,9.626,0,0,0,2.057,1.136,3.769,3.769,0,0,0,1.371.235,3.647,3.647,0,0,0,2.733-1.175,3.934,3.934,0,0,0,1.127-2.821q0-3.447-3.449-5.6a16.14,16.14,0,0,0-8.7-2.154q-.53,0-1.586.019Z"/>
    <path id="路径_4595" data-name="路径 4595" class="cls-3" d="M886.4,1488.236h12.439l-1.979,5.054H886.4l-1,2.644q6.759.255,10.4,3.369a8.072,8.072,0,0,1,3,6.386,9.589,9.589,0,0,1-5.308,8.393,12.227,12.227,0,0,1-5.543,1.263,8.679,8.679,0,0,1-4.995-1.214,2.42,2.42,0,0,1-1.214-1.959,2.057,2.057,0,0,1,.636-1.488,2.015,2.015,0,0,1,1.479-.647,4.16,4.16,0,0,1,1.547.313A16.563,16.563,0,0,1,888.08,1512a9.622,9.622,0,0,0,2.056,1.136,3.771,3.771,0,0,0,1.372.235,3.646,3.646,0,0,0,2.732-1.175,3.934,3.934,0,0,0,1.127-2.821q0-3.447-3.448-5.6a16.147,16.147,0,0,0-8.7-2.154q-.529,0-1.586.019Z"/>
  </g>
</svg>
