<svg xmlns="http://www.w3.org/2000/svg" width="135.33" height="118.33" viewBox="0 0 135.33 118.33">
  <defs>
    <style>
      .cls-1 {
        fill: #ff9702;
      }

      .cls-2 {
        fill: #f9f455;
      }

      .cls-3 {
        fill: #fff;
      }

      .cls-4 {
        fill: #bdf;
      }
    </style>
  </defs>
  <g id="组_2361" data-name="组 2361" transform="translate(-625.318 -1413.25)">
    <path id="路径_4600" data-name="路径 4600" class="cls-1" d="M625.318,1463.249v68.332h135.33v-70.332l-67.665-48Z"/>
    <path id="路径_4601" data-name="路径 4601" class="cls-2" d="M692.983,1413.25l-67.665,50v10.666h135.33v-12.666Z"/>
    <rect id="矩形_927" data-name="矩形 927" class="cls-3" width="113.331" height="31.999" transform="translate(636.318 1441.916)"/>
    <rect id="矩形_928" data-name="矩形 928" class="cls-4" width="82.998" height="5.667" transform="translate(653.651 1454.249)"/>
    <rect id="矩形_929" data-name="矩形 929" class="cls-4" width="82.998" height="5.667" transform="translate(653.651 1465.999)"/>
    <g id="组_2360" data-name="组 2360">
      <g id="组_2358" data-name="组 2358">
        <path id="路径_4602" data-name="路径 4602" class="cls-3" d="M730.121,1488.463v21.5a13.254,13.254,0,0,0,.214,3.093,2,2,0,0,0,.891,1.1,4.217,4.217,0,0,0,2.173.427h.6v.717H720.155v-.717h.7a5.4,5.4,0,0,0,2.4-.388,1.989,1.989,0,0,0,.969-1.067,11.783,11.783,0,0,0,.253-3.161v-13.632a8.613,8.613,0,0,0-.175-2.278,1.654,1.654,0,0,0-.65-.776,1.917,1.917,0,0,0-1.095-.319,6.2,6.2,0,0,0-2.4.62l-.35-.7,9.676-4.421Z"/>
      </g>
      <rect id="矩形_930" data-name="矩形 930" class="cls-3" width="17.259" height="4.014" transform="translate(685.034 1499.874)"/>
      <g id="组_2359" data-name="组 2359">
        <path id="路径_4603" data-name="路径 4603" class="cls-3" d="M668.883,1488.4v.535a18.221,18.221,0,0,0-5.547,2.262,10.788,10.788,0,0,0-3.3,3.361,16.267,16.267,0,0,0-1.88,4.9,5.617,5.617,0,0,1,1.393-.745,8.456,8.456,0,0,1,2.5-.382,6.3,6.3,0,0,1,4.84,2.11,8.181,8.181,0,0,1,1.938,5.756,10.508,10.508,0,0,1-1.05,4.7,7.742,7.742,0,0,1-2.978,3.3,7.85,7.85,0,0,1-4.124,1.165,7.976,7.976,0,0,1-4.411-1.308,8.627,8.627,0,0,1-3.159-3.828,13.168,13.168,0,0,1-1.137-5.48,16.379,16.379,0,0,1,2.091-8.1,15.577,15.577,0,0,1,5.938-5.976A17.726,17.726,0,0,1,668.883,1488.4ZM657.9,1501q-.153,2.635-.152,3.857a25.283,25.283,0,0,0,.505,5.1,7.67,7.67,0,0,0,1.385,3.456,1.8,1.8,0,0,0,3.054-.315q.689-1.022.688-4.152,0-5.27-1.279-7.275a2.514,2.514,0,0,0-2.215-1.3A4.646,4.646,0,0,0,657.9,1501Z"/>
      </g>
    </g>
  </g>
</svg>
