<svg xmlns="http://www.w3.org/2000/svg" width="135.33" height="118.33" viewBox="0 0 135.33 118.33">
  <defs>
    <style>
      .cls-1 {
        fill: #ff9702;
      }

      .cls-2 {
        fill: #f9f455;
      }

      .cls-3 {
        fill: #fff;
      }

      .cls-4 {
        fill: #bdf;
      }
    </style>
  </defs>
  <g id="组_2373" data-name="组 2373" transform="translate(-1454.662 -1413.25)">
    <path id="路径_4612" data-name="路径 4612" class="cls-1" d="M1454.662,1463.249v68.332h135.33v-70.332l-67.665-48Z"/>
    <path id="路径_4613" data-name="路径 4613" class="cls-2" d="M1522.327,1413.25l-67.665,50v10.666h135.33v-12.666Z"/>
    <rect id="矩形_940" data-name="矩形 940" class="cls-3" width="113.331" height="31.999" transform="translate(1465.662 1441.916)"/>
    <rect id="矩形_941" data-name="矩形 941" class="cls-4" width="82.998" height="5.667" transform="translate(1482.995 1454.249)"/>
    <rect id="矩形_942" data-name="矩形 942" class="cls-4" width="82.998" height="5.667" transform="translate(1482.995 1465.999)"/>
    <g id="组_2370" data-name="组 2370">
      <rect id="矩形_943" data-name="矩形 943" class="cls-3" width="17.259" height="4.014" transform="translate(1514.623 1499.784)"/>
      <rect id="矩形_944" data-name="矩形 944" class="cls-3" width="4.014" height="17.259" transform="translate(1521.245 1493.161)"/>
    </g>
    <g id="组_2371" data-name="组 2371">
      <path id="路径_4614" data-name="路径 4614" class="cls-3" d="M1562.078,1501.768a23.522,23.522,0,0,1-1.1,7.289,9.9,9.9,0,0,1-1.76,3.4,8.869,8.869,0,0,1-2.509,2.106,6.456,6.456,0,0,1-6.461-.183,9.033,9.033,0,0,1-2.693-2.75,13.362,13.362,0,0,1-1.481-3.481,22.326,22.326,0,0,1-.827-6.077,24.475,24.475,0,0,1,1.192-7.808,9.259,9.259,0,0,1,2.981-4.509,6.536,6.536,0,0,1,8.471-.02,8.924,8.924,0,0,1,2.9,4.164A23.192,23.192,0,0,1,1562.078,1501.768Zm-5.923-.038q0-6.846-.077-7.981a7.151,7.151,0,0,0-.923-3.616,1.855,1.855,0,0,0-1.558-.615,1.806,1.806,0,0,0-1.307.462,4.037,4.037,0,0,0-.962,2.375q-.25,1.7-.25,11.875a45.324,45.324,0,0,0,.385,7.423,3.317,3.317,0,0,0,.827,1.827,2.106,2.106,0,0,0,1.422.462,1.718,1.718,0,0,0,1.443-.616,6.088,6.088,0,0,0,.923-3.327Z"/>
    </g>
    <g id="组_2372" data-name="组 2372">
      <path id="路径_4615" data-name="路径 4615" class="cls-3" d="M1482.98,1515.345v-.537a16.951,16.951,0,0,0,5.4-2.151,11.075,11.075,0,0,0,3.514-3.513,14.051,14.051,0,0,0,1.814-4.819,11.586,11.586,0,0,1-2.025.855,6.339,6.339,0,0,1-1.757.24,6.425,6.425,0,0,1-4.924-2.131,8.268,8.268,0,0,1-1.968-5.837,10.431,10.431,0,0,1,1.065-4.713,7.887,7.887,0,0,1,11.471-3.2,9.1,9.1,0,0,1,3.245,3.782,12.707,12.707,0,0,1,1.21,5.645,16.759,16.759,0,0,1-1.968,7.871,14.933,14.933,0,0,1-5.866,6.038A19.379,19.379,0,0,1,1482.98,1515.345Zm11.02-12.632q.192-2.151.192-3.783a25.136,25.136,0,0,0-.806-6.508,4.9,4.9,0,0,0-1.364-2.458,1.818,1.818,0,0,0-1.247-.422,1.694,1.694,0,0,0-1.5.825q-.749,1.134-.749,4.32,0,5.319,1.268,7.334a2.524,2.524,0,0,0,2.226,1.306A4.774,4.774,0,0,0,1494,1502.713Z"/>
    </g>
  </g>
</svg>
