<svg xmlns="http://www.w3.org/2000/svg" width="135.33" height="118.33" viewBox="0 0 135.33 118.33">
  <defs>
    <style>
      .cls-1 {
        fill: #ff9702;
      }

      .cls-2 {
        fill: #f9f455;
      }

      .cls-3 {
        fill: #fff;
      }

      .cls-4 {
        fill: #bdf;
      }
    </style>
  </defs>
  <g id="组_2365" data-name="组 2365" transform="translate(-957.056 -1413.25)">
    <path id="路径_4604" data-name="路径 4604" class="cls-1" d="M957.056,1463.249v68.332h135.33v-70.332l-67.665-48Z"/>
    <path id="路径_4605" data-name="路径 4605" class="cls-2" d="M1024.721,1413.25l-67.665,50v10.666h135.33v-12.666Z"/>
    <rect id="矩形_931" data-name="矩形 931" class="cls-3" width="113.331" height="31.999" transform="translate(968.055 1441.916)"/>
    <rect id="矩形_932" data-name="矩形 932" class="cls-4" width="82.998" height="5.667" transform="translate(985.388 1454.249)"/>
    <rect id="矩形_933" data-name="矩形 933" class="cls-4" width="82.998" height="5.667" transform="translate(985.388 1465.999)"/>
    <g id="组_2364" data-name="组 2364">
      <rect id="矩形_934" data-name="矩形 934" class="cls-3" width="17.259" height="4.014" transform="translate(1016.772 1499.874)"/>
      <g id="组_2362" data-name="组 2362">
        <path id="路径_4606" data-name="路径 4606" class="cls-3" d="M1000.62,1488.4v.535a18.221,18.221,0,0,0-5.547,2.262,10.785,10.785,0,0,0-3.3,3.361,16.241,16.241,0,0,0-1.881,4.9,5.621,5.621,0,0,1,1.394-.745,8.446,8.446,0,0,1,2.5-.382,6.3,6.3,0,0,1,4.84,2.11,8.181,8.181,0,0,1,1.938,5.756,10.521,10.521,0,0,1-1.05,4.7,7.744,7.744,0,0,1-2.979,3.3,7.847,7.847,0,0,1-4.124,1.165,7.973,7.973,0,0,1-4.41-1.308,8.629,8.629,0,0,1-3.16-3.828,13.168,13.168,0,0,1-1.136-5.48,16.388,16.388,0,0,1,2.09-8.1,15.577,15.577,0,0,1,5.938-5.976A17.729,17.729,0,0,1,1000.62,1488.4ZM989.642,1501q-.153,2.635-.153,3.857a25.287,25.287,0,0,0,.506,5.1,7.671,7.671,0,0,0,1.384,3.456,1.8,1.8,0,0,0,3.055-.315q.687-1.022.687-4.152,0-5.27-1.279-7.275a2.512,2.512,0,0,0-2.214-1.3A4.646,4.646,0,0,0,989.642,1501Z"/>
      </g>
      <g id="组_2363" data-name="组 2363">
        <path id="路径_4607" data-name="路径 4607" class="cls-3" d="M1067.124,1501.882a23.749,23.749,0,0,1-1.1,7.349,9.982,9.982,0,0,1-1.775,3.432,8.93,8.93,0,0,1-2.53,2.123,6.5,6.5,0,0,1-6.516-.184,9.11,9.11,0,0,1-2.714-2.773,13.476,13.476,0,0,1-1.494-3.51,22.53,22.53,0,0,1-.833-6.127,24.637,24.637,0,0,1,1.2-7.873,9.332,9.332,0,0,1,3.005-4.547,6.591,6.591,0,0,1,8.542-.02,9,9,0,0,1,2.919,4.2A23.383,23.383,0,0,1,1067.124,1501.882Zm-5.973-.039q0-6.9-.077-8.048a7.2,7.2,0,0,0-.931-3.645,1.871,1.871,0,0,0-1.571-.621,1.823,1.823,0,0,0-1.318.465,4.077,4.077,0,0,0-.97,2.4q-.252,1.716-.252,11.975a45.72,45.72,0,0,0,.388,7.485,3.342,3.342,0,0,0,.834,1.841,2.122,2.122,0,0,0,1.434.466,1.732,1.732,0,0,0,1.455-.621,6.14,6.14,0,0,0,.931-3.354Z"/>
      </g>
    </g>
  </g>
</svg>
