<svg xmlns="http://www.w3.org/2000/svg" width="155.33" height="138.33" viewBox="0 0 155.33 138.33">
  <defs>
    <style>
      .cls-1, .cls-4, .cls-7 {
        fill: #fff;
      }

      .cls-1 {
        stroke-linecap: round;
        stroke-linejoin: round;
      }

      .cls-2 {
        fill: #ff9702;
      }

      .cls-3 {
        fill: #f9f455;
      }

      .cls-5 {
        fill: #bdf;
      }

      .cls-6, .cls-7 {
        stroke: none;
      }
    </style>
  </defs>
  <g id="组_2799" data-name="组 2799" transform="translate(-1527.819 -446.369)">
    <g id="路径_4541" data-name="路径 4541" class="cls-1" transform="translate(-248.581 -1121.426)">
      <path class="cls-6" d="M 1926.7294921875 1701.125732421875 L 1921.7294921875 1701.125732421875 L 1786.3994140625 1701.125732421875 L 1781.3994140625 1701.125732421875 L 1781.3994140625 1696.125732421875 L 1781.3994140625 1638.46044921875 L 1781.3994140625 1627.794067382813 L 1781.3994140625 1625.271728515625 L 1783.427978515625 1623.772827148438 L 1792.399169921875 1617.143798828125 L 1792.399169921875 1606.461303710938 L 1792.399169921875 1601.461303710938 L 1797.399169921875 1601.461303710938 L 1813.622924804688 1601.461303710938 L 1851.093017578125 1573.774047851563 L 1854.004638671875 1571.62255859375 L 1856.957275390625 1573.717163085938 L 1896.06884765625 1601.461303710938 L 1910.729736328125 1601.461303710938 L 1915.729736328125 1601.461303710938 L 1915.729736328125 1606.461303710938 L 1915.729736328125 1615.407958984375 L 1924.622436523438 1621.716064453125 L 1926.7294921875 1623.210693359375 L 1926.7294921875 1625.794189453125 L 1926.7294921875 1638.46044921875 L 1926.7294921875 1696.125732421875 L 1926.7294921875 1701.125732421875 Z"/>
      <path class="cls-7" d="M 1854.064453125 1577.795288085938 L 1815.269775390625 1606.461303710938 L 1797.399169921875 1606.461303710938 L 1797.399169921875 1619.666137695313 L 1786.3994140625 1627.794067382813 L 1786.3994140625 1638.46044921875 L 1786.3994140625 1696.125732421875 L 1921.7294921875 1696.125732421875 L 1921.7294921875 1638.46044921875 L 1921.7294921875 1625.794189453125 L 1910.729736328125 1617.991333007813 L 1910.729736328125 1606.461303710938 L 1894.4755859375 1606.461303710938 L 1854.064453125 1577.795288085938 M 1854.064697265625 1567.795288085938 C 1856.090087890625 1567.795288085938 1858.115966796875 1568.40869140625 1859.850219726563 1569.638916015625 L 1897.662231445313 1596.461303710938 L 1910.729736328125 1596.461303710938 C 1916.252563476563 1596.461303710938 1920.729736328125 1600.9384765625 1920.729736328125 1606.461303710938 L 1920.729736328125 1612.824462890625 L 1927.515258789063 1617.637939453125 C 1930.15869140625 1619.513061523438 1931.7294921875 1622.55322265625 1931.7294921875 1625.794189453125 L 1931.7294921875 1638.46044921875 L 1931.7294921875 1696.125732421875 C 1931.7294921875 1701.648559570313 1927.252319335938 1706.125732421875 1921.7294921875 1706.125732421875 L 1786.3994140625 1706.125732421875 C 1780.876586914063 1706.125732421875 1776.3994140625 1701.648559570313 1776.3994140625 1696.125732421875 L 1776.3994140625 1638.46044921875 L 1776.3994140625 1627.794067382813 C 1776.3994140625 1624.621337890625 1777.904907226563 1621.636962890625 1780.45654296875 1619.75146484375 L 1787.399169921875 1614.621459960938 L 1787.399169921875 1606.461303710938 C 1787.399169921875 1600.9384765625 1791.876342773438 1596.461303710938 1797.399169921875 1596.461303710938 L 1811.97607421875 1596.461303710938 L 1848.121704101563 1569.752685546875 C 1849.886108398438 1568.448974609375 1851.97509765625 1567.795288085938 1854.064697265625 1567.795288085938 Z"/>
    </g>
    <g id="组_2418" data-name="组 2418" transform="translate(-248.581 -1121.426)">
      <path id="路径_4661" data-name="路径 4661" class="cls-2" d="M1786.4,1627.794v68.332h135.33v-70.332l-67.665-48Z"/>
      <path id="路径_4662" data-name="路径 4662" class="cls-3" d="M1854.064,1577.8l-67.665,50v10.666h135.33v-12.666Z"/>
      <rect id="矩形_996" data-name="矩形 996" class="cls-4" width="113.331" height="31.999" transform="translate(1797.399 1606.461)"/>
      <rect id="矩形_997" data-name="矩形 997" class="cls-5" width="82.998" height="5.667" transform="translate(1814.732 1618.794)"/>
      <rect id="矩形_998" data-name="矩形 998" class="cls-5" width="82.998" height="5.667" transform="translate(1814.732 1630.544)"/>
      <g id="组_2416" data-name="组 2416">
        <rect id="矩形_999" data-name="矩形 999" class="cls-4" width="17.259" height="4.014" transform="translate(1846.361 1664.329)"/>
      </g>
      <g id="组_2417" data-name="组 2417">
        <path id="路径_4663" data-name="路径 4663" class="cls-4" d="M1882.22,1666.1v-.678a12.7,12.7,0,0,0,3.062-1.192,4.535,4.535,0,0,0,1.473-1.686,4.743,4.743,0,0,0,.62-2.3,3.737,3.737,0,0,0-1.172-2.761,4,4,0,0,0-2.917-1.154q-2.713,0-4.612,2.868l-.716-.251a11.62,11.62,0,0,1,3.575-4.864,7.913,7.913,0,0,1,4.854-1.628,6.316,6.316,0,0,1,4.505,1.666,5.19,5.19,0,0,1,1.773,3.9,5.3,5.3,0,0,1-.823,2.8,7.16,7.16,0,0,1-2.587,2.374,9.171,9.171,0,0,1,3.459,2.723,6.666,6.666,0,0,1,1.192,4.06,9.355,9.355,0,0,1-2.975,6.985,10.98,10.98,0,0,1-7.974,2.878,8.419,8.419,0,0,1-4.864-1.105,2.344,2.344,0,0,1-1.1-2,2.166,2.166,0,0,1,2.112-2.15,2.724,2.724,0,0,1,1.2.271,24.732,24.732,0,0,1,2.2,1.7,5.756,5.756,0,0,0,3.536,1.541,3.208,3.208,0,0,0,2.461-1.134,4.122,4.122,0,0,0,1.027-2.878,7.493,7.493,0,0,0-1.861-4.893A9.746,9.746,0,0,0,1882.22,1666.1Z"/>
      </g>
      <path id="路径_4664" data-name="路径 4664" class="cls-4" d="M1826.634,1664.593a14.515,14.515,0,0,1,3.824,3.766,7.483,7.483,0,0,1,1.07,4,6.987,6.987,0,0,1-2.38,5.347,9.183,9.183,0,0,1-6.464,2.187,8.65,8.65,0,0,1-5.992-1.908,6.033,6.033,0,0,1-2.12-4.663,5.841,5.841,0,0,1,1.224-3.68,10.755,10.755,0,0,1,4.075-2.89,15.968,15.968,0,0,1-3.978-3.872,6.79,6.79,0,0,1-.877-3.488,6.037,6.037,0,0,1,2.225-4.614,8.8,8.8,0,0,1,6.1-1.994,8.458,8.458,0,0,1,5.751,1.763,5.433,5.433,0,0,1,2.013,4.229,5.212,5.212,0,0,1-1.088,3.266A9.511,9.511,0,0,1,1826.634,1664.593Zm-5.318,3.082a4.21,4.21,0,0,0-.848.983,7.7,7.7,0,0,0-.693,1.965,11.55,11.55,0,0,0-.309,2.7,8.651,8.651,0,0,0,.463,3.035,3.408,3.408,0,0,0,1.32,1.763,3.266,3.266,0,0,0,1.763.54,3.116,3.116,0,0,0,2.369-1.031,3.967,3.967,0,0,0,.964-2.823Q1826.345,1671.066,1821.316,1667.675Zm3.853-4.065a6.736,6.736,0,0,0,1.06-2.158,9.387,9.387,0,0,0,.347-2.621A5.959,5.959,0,0,0,1825.5,1655a2.7,2.7,0,0,0-2.235-1.021,2.942,2.942,0,0,0-2.2.935,3.2,3.2,0,0,0-.906,2.321,5.271,5.271,0,0,0,1.011,2.919A14.2,14.2,0,0,0,1825.169,1663.61Z"/>
    </g>
  </g>
</svg>
