<svg xmlns="http://www.w3.org/2000/svg" width="155.33" height="138.33" viewBox="0 0 155.33 138.33">
  <defs>
    <style>
      .cls-1, .cls-4, .cls-7 {
        fill: #fff;
      }

      .cls-1 {
        stroke-linecap: round;
        stroke-linejoin: round;
      }

      .cls-2 {
        fill: #ff9702;
      }

      .cls-3 {
        fill: #f9f455;
      }

      .cls-5 {
        fill: #bdf;
      }

      .cls-6, .cls-7 {
        stroke: none;
      }
    </style>
  </defs>
  <g id="组_2804" data-name="组 2804" transform="translate(-698.475 -446.369)">
    <g id="路径_4537" data-name="路径 4537" class="cls-1" transform="translate(-248.581 -1121.426)">
      <path class="cls-6" d="M 1097.385620117188 1701.125732421875 L 1092.385620117188 1701.125732421875 L 957.0556640625 1701.125732421875 L 952.0556640625 1701.125732421875 L 952.0556640625 1696.125732421875 L 952.0556640625 1638.46044921875 L 952.0556640625 1627.794067382813 L 952.0556640625 1625.271728515625 L 954.0842895507813 1623.772705078125 L 963.0553588867188 1617.143920898438 L 963.0553588867188 1606.461303710938 L 963.0553588867188 1601.461303710938 L 968.0553588867188 1601.461303710938 L 984.279052734375 1601.461303710938 L 1021.749328613281 1573.774047851563 L 1024.660888671875 1571.62255859375 L 1027.613525390625 1573.717163085938 L 1066.72509765625 1601.461303710938 L 1081.385986328125 1601.461303710938 L 1086.385986328125 1601.461303710938 L 1086.385986328125 1606.461303710938 L 1086.385986328125 1615.408081054688 L 1095.278564453125 1621.716064453125 L 1097.385620117188 1623.210693359375 L 1097.385620117188 1625.794189453125 L 1097.385620117188 1638.46044921875 L 1097.385620117188 1696.125732421875 L 1097.385620117188 1701.125732421875 Z"/>
      <path class="cls-7" d="M 1024.720703125 1577.795288085938 L 985.926025390625 1606.461303710938 L 968.055419921875 1606.461303710938 L 968.055419921875 1619.666259765625 L 957.0556640625 1627.794067382813 L 957.0556640625 1638.46044921875 L 957.0556640625 1696.125732421875 L 1092.385620117188 1696.125732421875 L 1092.385620117188 1638.46044921875 L 1092.385620117188 1625.794189453125 L 1081.385986328125 1617.991455078125 L 1081.385986328125 1606.461303710938 L 1065.131713867188 1606.461303710938 L 1024.720703125 1577.795288085938 M 1024.720947265625 1567.795288085938 C 1026.746337890625 1567.795288085938 1028.772216796875 1568.408813476563 1030.506469726563 1569.639038085938 L 1068.318359375 1596.461303710938 L 1081.385986328125 1596.461303710938 C 1086.908813476563 1596.461303710938 1091.385986328125 1600.9384765625 1091.385986328125 1606.461303710938 L 1091.385986328125 1612.824584960938 L 1098.17138671875 1617.637939453125 C 1100.81494140625 1619.513061523438 1102.385620117188 1622.55322265625 1102.385620117188 1625.794189453125 L 1102.385620117188 1638.46044921875 L 1102.385620117188 1696.125732421875 C 1102.385620117188 1701.648559570313 1097.908447265625 1706.125732421875 1092.385620117188 1706.125732421875 L 957.0556640625 1706.125732421875 C 951.5328369140625 1706.125732421875 947.0556640625 1701.648559570313 947.0556640625 1696.125732421875 L 947.0556640625 1638.46044921875 L 947.0556640625 1627.794067382813 C 947.0556640625 1624.621337890625 948.561279296875 1621.636840820313 951.1129150390625 1619.75146484375 L 958.055419921875 1614.62158203125 L 958.055419921875 1606.461303710938 C 958.055419921875 1600.9384765625 962.5325927734375 1596.461303710938 968.055419921875 1596.461303710938 L 982.63232421875 1596.461303710938 L 1018.777954101563 1569.752685546875 C 1020.542358398438 1568.448974609375 1022.63134765625 1567.795288085938 1024.720947265625 1567.795288085938 Z"/>
    </g>
    <g id="组_2403" data-name="组 2403" transform="translate(-248.581 -1121.426)">
      <path id="路径_4645" data-name="路径 4645" class="cls-2" d="M957.056,1627.794v68.332h135.33v-70.332l-67.665-48Z"/>
      <path id="路径_4646" data-name="路径 4646" class="cls-3" d="M1024.721,1577.8l-67.665,50v10.666h135.33v-12.666Z"/>
      <rect id="矩形_977" data-name="矩形 977" class="cls-4" width="113.331" height="31.999" transform="translate(968.055 1606.461)"/>
      <rect id="矩形_978" data-name="矩形 978" class="cls-5" width="82.998" height="5.667" transform="translate(985.388 1618.794)"/>
      <rect id="矩形_979" data-name="矩形 979" class="cls-5" width="82.998" height="5.667" transform="translate(985.388 1630.544)"/>
      <g id="组_2402" data-name="组 2402">
        <rect id="矩形_980" data-name="矩形 980" class="cls-4" width="17.259" height="4.014" transform="translate(1016.772 1664.419)"/>
        <g id="组_2400" data-name="组 2400">
          <path id="路径_4647" data-name="路径 4647" class="cls-4" d="M1000.62,1652.947v.535a18.246,18.246,0,0,0-5.547,2.262,10.786,10.786,0,0,0-3.3,3.361,16.242,16.242,0,0,0-1.881,4.9,5.626,5.626,0,0,1,1.394-.745,8.481,8.481,0,0,1,2.5-.381,6.3,6.3,0,0,1,4.84,2.109,8.183,8.183,0,0,1,1.938,5.757,10.521,10.521,0,0,1-1.05,4.7,7.744,7.744,0,0,1-2.979,3.3,7.847,7.847,0,0,1-4.124,1.165A7.965,7.965,0,0,1,988,1678.6a8.63,8.63,0,0,1-3.16-3.828,13.169,13.169,0,0,1-1.136-5.48,16.384,16.384,0,0,1,2.09-8.1,15.57,15.57,0,0,1,5.938-5.976A17.72,17.72,0,0,1,1000.62,1652.947Zm-10.978,12.6q-.153,2.636-.153,3.857a25.3,25.3,0,0,0,.506,5.1,7.666,7.666,0,0,0,1.384,3.455,1.8,1.8,0,0,0,3.055-.315q.687-1.02.687-4.152,0-5.269-1.279-7.275a2.512,2.512,0,0,0-2.214-1.3A4.647,4.647,0,0,0,989.642,1665.548Z"/>
        </g>
        <g id="组_2401" data-name="组 2401">
          <path id="路径_4648" data-name="路径 4648" class="cls-4" d="M1067.124,1666.427a23.745,23.745,0,0,1-1.1,7.349,9.982,9.982,0,0,1-1.775,3.432,8.932,8.932,0,0,1-2.53,2.123,6.5,6.5,0,0,1-6.516-.184,9.1,9.1,0,0,1-2.714-2.773,13.461,13.461,0,0,1-1.494-3.51,22.53,22.53,0,0,1-.833-6.127,24.637,24.637,0,0,1,1.2-7.873,9.337,9.337,0,0,1,3.005-4.547,6.591,6.591,0,0,1,8.542-.02,9.009,9.009,0,0,1,2.919,4.2A23.384,23.384,0,0,1,1067.124,1666.427Zm-5.973-.039q0-6.9-.077-8.048a7.2,7.2,0,0,0-.931-3.645,1.871,1.871,0,0,0-1.571-.621,1.824,1.824,0,0,0-1.318.466,4.071,4.071,0,0,0-.97,2.394q-.252,1.718-.252,11.975a45.722,45.722,0,0,0,.388,7.485,3.345,3.345,0,0,0,.834,1.842,2.126,2.126,0,0,0,1.434.465,1.734,1.734,0,0,0,1.455-.62,6.147,6.147,0,0,0,.931-3.355Z"/>
        </g>
      </g>
    </g>
  </g>
</svg>
