<svg xmlns="http://www.w3.org/2000/svg" width="155.33" height="138.33" viewBox="0 0 155.33 138.33">
  <defs>
    <style>
      .cls-1, .cls-4, .cls-7 {
        fill: #fff;
      }

      .cls-1 {
        stroke-linecap: round;
        stroke-linejoin: round;
      }

      .cls-2 {
        fill: #ff9702;
      }

      .cls-3 {
        fill: #f9f455;
      }

      .cls-5 {
        fill: #bdf;
      }

      .cls-6, .cls-7 {
        stroke: none;
      }
    </style>
  </defs>
  <g id="组_2803" data-name="组 2803" transform="translate(-864.344 -446.369)">
    <g id="路径_4538" data-name="路径 4538" class="cls-1" transform="translate(-248.581 -1121.426)">
      <path class="cls-6" d="M 1263.25439453125 1701.125732421875 L 1258.25439453125 1701.125732421875 L 1122.924438476563 1701.125732421875 L 1117.924438476563 1701.125732421875 L 1117.924438476563 1696.125732421875 L 1117.924438476563 1638.46044921875 L 1117.924438476563 1627.794067382813 L 1117.924438476563 1625.271728515625 L 1119.953002929688 1623.772827148438 L 1128.924072265625 1617.143920898438 L 1128.924072265625 1606.461303710938 L 1128.924072265625 1601.461303710938 L 1133.924072265625 1601.461303710938 L 1150.147827148438 1601.461303710938 L 1187.617919921875 1573.774047851563 L 1190.529541015625 1571.62255859375 L 1193.482177734375 1573.717163085938 L 1232.59375 1601.461303710938 L 1247.254638671875 1601.461303710938 L 1252.254638671875 1601.461303710938 L 1252.254638671875 1606.461303710938 L 1252.254638671875 1615.407958984375 L 1261.147216796875 1621.716064453125 L 1263.25439453125 1623.210693359375 L 1263.25439453125 1625.794189453125 L 1263.25439453125 1638.46044921875 L 1263.25439453125 1696.125732421875 L 1263.25439453125 1701.125732421875 Z"/>
      <path class="cls-7" d="M 1190.58935546875 1577.795288085938 L 1151.794677734375 1606.461303710938 L 1133.924072265625 1606.461303710938 L 1133.924072265625 1619.666259765625 L 1122.924438476563 1627.794067382813 L 1122.924438476563 1638.46044921875 L 1122.924438476563 1696.125732421875 L 1258.25439453125 1696.125732421875 L 1258.25439453125 1638.46044921875 L 1258.25439453125 1625.794189453125 L 1247.254638671875 1617.991455078125 L 1247.254638671875 1606.461303710938 L 1231.00048828125 1606.461303710938 L 1190.58935546875 1577.795288085938 M 1190.589599609375 1567.795288085938 C 1192.614990234375 1567.795288085938 1194.640869140625 1568.40869140625 1196.375122070313 1569.638916015625 L 1234.187133789063 1596.461303710938 L 1247.254638671875 1596.461303710938 C 1252.777465820313 1596.461303710938 1257.254638671875 1600.9384765625 1257.254638671875 1606.461303710938 L 1257.254638671875 1612.824584960938 L 1264.040161132813 1617.637939453125 C 1266.68359375 1619.513061523438 1268.25439453125 1622.553100585938 1268.25439453125 1625.794189453125 L 1268.25439453125 1638.46044921875 L 1268.25439453125 1696.125732421875 C 1268.25439453125 1701.648559570313 1263.777221679688 1706.125732421875 1258.25439453125 1706.125732421875 L 1122.924438476563 1706.125732421875 C 1117.401611328125 1706.125732421875 1112.924438476563 1701.648559570313 1112.924438476563 1696.125732421875 L 1112.924438476563 1638.46044921875 L 1112.924438476563 1627.794067382813 C 1112.924438476563 1624.621337890625 1114.430053710938 1621.636962890625 1116.981689453125 1619.75146484375 L 1123.924072265625 1614.62158203125 L 1123.924072265625 1606.461303710938 C 1123.924072265625 1600.9384765625 1128.401245117188 1596.461303710938 1133.924072265625 1596.461303710938 L 1148.5009765625 1596.461303710938 L 1184.646606445313 1569.752685546875 C 1186.411010742188 1568.448974609375 1188.5 1567.795288085938 1190.589599609375 1567.795288085938 Z"/>
    </g>
    <g id="组_2407" data-name="组 2407" transform="translate(-248.581 -1121.426)">
      <path id="路径_4649" data-name="路径 4649" class="cls-2" d="M1122.924,1627.794v68.332h135.33v-70.332l-67.665-48Z"/>
      <path id="路径_4650" data-name="路径 4650" class="cls-3" d="M1190.589,1577.8l-67.665,50v10.666h135.33v-12.666Z"/>
      <rect id="矩形_981" data-name="矩形 981" class="cls-4" width="113.331" height="31.999" transform="translate(1133.924 1606.461)"/>
      <rect id="矩形_982" data-name="矩形 982" class="cls-5" width="82.998" height="5.667" transform="translate(1151.257 1618.794)"/>
      <rect id="矩形_983" data-name="矩形 983" class="cls-5" width="82.998" height="5.667" transform="translate(1151.257 1630.544)"/>
      <g id="组_2406" data-name="组 2406">
        <g id="组_2404" data-name="组 2404">
          <rect id="矩形_984" data-name="矩形 984" class="cls-4" width="17.259" height="4.014" transform="translate(1182.886 1664.419)"/>
          <rect id="矩形_985" data-name="矩形 985" class="cls-4" width="4.014" height="17.259" transform="translate(1189.508 1657.797)"/>
        </g>
        <path id="路径_4651" data-name="路径 4651" class="cls-4" d="M1225.657,1664.547a14.536,14.536,0,0,1,3.825,3.767,7.493,7.493,0,0,1,1.069,4,6.988,6.988,0,0,1-2.379,5.347,9.192,9.192,0,0,1-6.465,2.186,8.65,8.65,0,0,1-5.992-1.907,6.037,6.037,0,0,1-2.119-4.663,5.84,5.84,0,0,1,1.224-3.68,10.743,10.743,0,0,1,4.074-2.89,16.02,16.02,0,0,1-3.978-3.873,6.789,6.789,0,0,1-.877-3.487,6.044,6.044,0,0,1,2.225-4.615,8.809,8.809,0,0,1,6.1-1.994,8.468,8.468,0,0,1,5.752,1.763,5.437,5.437,0,0,1,2.013,4.229,5.213,5.213,0,0,1-1.088,3.266A9.5,9.5,0,0,1,1225.657,1664.547Zm-5.318,3.083a4.217,4.217,0,0,0-.848.983,7.679,7.679,0,0,0-.693,1.965,11.551,11.551,0,0,0-.308,2.7,8.653,8.653,0,0,0,.462,3.035,3.411,3.411,0,0,0,1.32,1.763,3.276,3.276,0,0,0,1.763.539,3.116,3.116,0,0,0,2.37-1.031,3.967,3.967,0,0,0,.963-2.822Q1225.368,1671.021,1220.339,1667.63Zm3.854-4.066a6.766,6.766,0,0,0,1.06-2.157,9.422,9.422,0,0,0,.347-2.621,5.951,5.951,0,0,0-1.08-3.834,2.692,2.692,0,0,0-2.235-1.021,2.949,2.949,0,0,0-2.2.934,3.206,3.206,0,0,0-.906,2.322,5.266,5.266,0,0,0,1.012,2.919A14.189,14.189,0,0,0,1224.193,1663.564Z"/>
        <g id="组_2405" data-name="组 2405">
          <path id="路径_4652" data-name="路径 4652" class="cls-4" d="M1162.638,1652.872v21.505a13.29,13.29,0,0,0,.213,3.093,2,2,0,0,0,.892,1.095,4.21,4.21,0,0,0,2.172.427h.6v.718h-13.845v-.718h.7a5.4,5.4,0,0,0,2.4-.388,1.988,1.988,0,0,0,.969-1.066,11.738,11.738,0,0,0,.253-3.161v-13.632a8.612,8.612,0,0,0-.175-2.279,1.649,1.649,0,0,0-.649-.775,1.923,1.923,0,0,0-1.1-.32,6.223,6.223,0,0,0-2.4.62l-.35-.7,9.676-4.421Z"/>
        </g>
      </g>
    </g>
  </g>
</svg>
