<svg xmlns="http://www.w3.org/2000/svg" width="155.33" height="138.33" viewBox="0 0 155.33 138.33">
  <defs>
    <style>
      .cls-1, .cls-4, .cls-7 {
        fill: #fff;
      }

      .cls-1 {
        stroke-linecap: round;
        stroke-linejoin: round;
      }

      .cls-2 {
        fill: #ff9702;
      }

      .cls-3 {
        fill: #f9f455;
      }

      .cls-5 {
        fill: #bdf;
      }

      .cls-6, .cls-7 {
        stroke: none;
      }
    </style>
  </defs>
  <g id="组_2800" data-name="组 2800" transform="translate(-1361.95 -446.369)">
    <g id="路径_4540" data-name="路径 4540" class="cls-1" transform="translate(-248.581 -1121.426)">
      <path class="cls-6" d="M 1760.860717773438 1701.125732421875 L 1755.860717773438 1701.125732421875 L 1620.53076171875 1701.125732421875 L 1615.53076171875 1701.125732421875 L 1615.53076171875 1696.125732421875 L 1615.53076171875 1638.46044921875 L 1615.53076171875 1627.794067382813 L 1615.53076171875 1625.271728515625 L 1617.559326171875 1623.772827148438 L 1626.530517578125 1617.143798828125 L 1626.530517578125 1606.461303710938 L 1626.530517578125 1601.461303710938 L 1631.530517578125 1601.461303710938 L 1647.754150390625 1601.461303710938 L 1685.224243164063 1573.774047851563 L 1688.135864257813 1571.622680664063 L 1691.088500976563 1573.717163085938 L 1730.2001953125 1601.461303710938 L 1744.860961914063 1601.461303710938 L 1749.860961914063 1601.461303710938 L 1749.860961914063 1606.461303710938 L 1749.860961914063 1615.407958984375 L 1758.753662109375 1621.716064453125 L 1760.860717773438 1623.210815429688 L 1760.860717773438 1625.794189453125 L 1760.860717773438 1638.46044921875 L 1760.860717773438 1696.125732421875 L 1760.860717773438 1701.125732421875 Z"/>
      <path class="cls-7" d="M 1688.195678710938 1577.795288085938 L 1649.401000976563 1606.461303710938 L 1631.530517578125 1606.461303710938 L 1631.530517578125 1619.666137695313 L 1620.53076171875 1627.794067382813 L 1620.53076171875 1638.46044921875 L 1620.53076171875 1696.125732421875 L 1755.860717773438 1696.125732421875 L 1755.860717773438 1638.46044921875 L 1755.860717773438 1625.794189453125 L 1744.860961914063 1617.991333007813 L 1744.860961914063 1606.461303710938 L 1728.606811523438 1606.461303710938 L 1688.195678710938 1577.795288085938 M 1688.195922851563 1567.795288085938 C 1690.221313476563 1567.795288085938 1692.247192382813 1568.40869140625 1693.9814453125 1569.638916015625 L 1731.79345703125 1596.461303710938 L 1744.860961914063 1596.461303710938 C 1750.3837890625 1596.461303710938 1754.860961914063 1600.9384765625 1754.860961914063 1606.461303710938 L 1754.860961914063 1612.824462890625 L 1761.646484375 1617.637939453125 C 1764.289916992188 1619.513061523438 1765.860717773438 1622.55322265625 1765.860717773438 1625.794189453125 L 1765.860717773438 1638.46044921875 L 1765.860717773438 1696.125732421875 C 1765.860717773438 1701.648559570313 1761.383544921875 1706.125732421875 1755.860717773438 1706.125732421875 L 1620.53076171875 1706.125732421875 C 1615.007934570313 1706.125732421875 1610.53076171875 1701.648559570313 1610.53076171875 1696.125732421875 L 1610.53076171875 1638.46044921875 L 1610.53076171875 1627.794067382813 C 1610.53076171875 1624.621337890625 1612.036254882813 1621.636962890625 1614.587890625 1619.75146484375 L 1621.530517578125 1614.621459960938 L 1621.530517578125 1606.461303710938 C 1621.530517578125 1600.9384765625 1626.007690429688 1596.461303710938 1631.530517578125 1596.461303710938 L 1646.107177734375 1596.461303710938 L 1682.2529296875 1569.752685546875 C 1684.017333984375 1568.448974609375 1686.106323242188 1567.795288085938 1688.195922851563 1567.795288085938 Z"/>
    </g>
    <g id="组_2415" data-name="组 2415" transform="translate(-248.581 -1121.426)">
      <path id="路径_4657" data-name="路径 4657" class="cls-2" d="M1620.531,1627.794v68.332h135.33v-70.332l-67.665-48Z"/>
      <path id="路径_4658" data-name="路径 4658" class="cls-3" d="M1688.2,1577.8l-67.665,50v10.666h135.33v-12.666Z"/>
      <rect id="矩形_991" data-name="矩形 991" class="cls-4" width="113.331" height="31.999" transform="translate(1631.53 1606.461)"/>
      <rect id="矩形_992" data-name="矩形 992" class="cls-5" width="82.998" height="5.667" transform="translate(1648.863 1618.794)"/>
      <rect id="矩形_993" data-name="矩形 993" class="cls-5" width="82.998" height="5.667" transform="translate(1648.863 1630.544)"/>
      <g id="组_2412" data-name="组 2412">
        <rect id="矩形_994" data-name="矩形 994" class="cls-4" width="17.259" height="4.014" transform="translate(1680.492 1664.329)"/>
        <rect id="矩形_995" data-name="矩形 995" class="cls-4" width="4.014" height="17.259" transform="translate(1687.114 1657.707)"/>
      </g>
      <g id="组_2413" data-name="组 2413">
        <path id="路径_4659" data-name="路径 4659" class="cls-4" d="M1716.352,1666.1v-.678a12.732,12.732,0,0,0,3.062-1.192,4.541,4.541,0,0,0,1.472-1.686,4.743,4.743,0,0,0,.62-2.3,3.733,3.733,0,0,0-1.172-2.761,3.993,3.993,0,0,0-2.917-1.154q-2.713,0-4.611,2.868l-.717-.251a11.639,11.639,0,0,1,3.575-4.864,7.913,7.913,0,0,1,4.854-1.628,6.315,6.315,0,0,1,4.505,1.666,5.191,5.191,0,0,1,1.774,3.9,5.292,5.292,0,0,1-.824,2.8,7.144,7.144,0,0,1-2.587,2.374,9.163,9.163,0,0,1,3.459,2.723,6.666,6.666,0,0,1,1.192,4.06,9.355,9.355,0,0,1-2.975,6.985,10.98,10.98,0,0,1-7.974,2.878,8.421,8.421,0,0,1-4.864-1.105,2.346,2.346,0,0,1-1.1-2,2.166,2.166,0,0,1,2.112-2.15,2.731,2.731,0,0,1,1.2.271,24.954,24.954,0,0,1,2.2,1.7,5.758,5.758,0,0,0,3.536,1.541,3.207,3.207,0,0,0,2.461-1.134,4.123,4.123,0,0,0,1.028-2.878,7.5,7.5,0,0,0-1.861-4.893A9.753,9.753,0,0,0,1716.352,1666.1Z"/>
      </g>
      <g id="组_2414" data-name="组 2414">
        <path id="路径_4660" data-name="路径 4660" class="cls-4" d="M1648.465,1669.881l12.614-17.1h2.39v17.1h2.429v4.055h-2.429v5.955h-5.387v-5.955h-9.617Zm1.9,0h7.717V1659.4Z"/>
      </g>
    </g>
  </g>
</svg>
