<svg xmlns="http://www.w3.org/2000/svg" width="155.33" height="138.33" viewBox="0 0 155.33 138.33">
  <defs>
    <style>
      .cls-1, .cls-4, .cls-7 {
        fill: #fff;
      }

      .cls-1 {
        stroke-linecap: round;
        stroke-linejoin: round;
      }

      .cls-2 {
        fill: #ff9702;
      }

      .cls-3 {
        fill: #f9f455;
      }

      .cls-5 {
        fill: #bdf;
      }

      .cls-6, .cls-7 {
        stroke: none;
      }
    </style>
  </defs>
  <g id="组_2805" data-name="组 2805" transform="translate(-532.606 -446.369)">
    <g id="路径_4534" data-name="路径 4534" class="cls-1" transform="translate(-248.581 -1121.426)">
      <path class="cls-6" d="M 931.5169067382813 1701.125732421875 L 926.5169067382813 1701.125732421875 L 791.1868896484375 1701.125732421875 L 786.1868896484375 1701.125732421875 L 786.1868896484375 1696.125732421875 L 786.1868896484375 1638.46044921875 L 786.1868896484375 1627.794067382813 L 786.1868896484375 1625.271728515625 L 788.2155151367188 1623.772705078125 L 797.1865844726563 1617.143920898438 L 797.1865844726563 1606.461303710938 L 797.1865844726563 1601.461303710938 L 802.1865844726563 1601.461303710938 L 818.4103393554688 1601.461303710938 L 855.8804931640625 1573.774047851563 L 858.7919921875 1571.62255859375 L 861.7447509765625 1573.717163085938 L 900.8563232421875 1601.461303710938 L 915.5171508789063 1601.461303710938 L 920.5171508789063 1601.461303710938 L 920.5171508789063 1606.461303710938 L 920.5171508789063 1615.407958984375 L 929.4097900390625 1621.716064453125 L 931.5169067382813 1623.210693359375 L 931.5169067382813 1625.794189453125 L 931.5169067382813 1638.46044921875 L 931.5169067382813 1696.125732421875 L 931.5169067382813 1701.125732421875 Z"/>
      <path class="cls-7" d="M 858.8518676757813 1577.795288085938 L 820.0571899414063 1606.461303710938 L 802.1865844726563 1606.461303710938 L 802.1865844726563 1619.666259765625 L 791.1868896484375 1627.794067382813 L 791.1868896484375 1638.46044921875 L 791.1868896484375 1696.125732421875 L 926.5169067382813 1696.125732421875 L 926.5169067382813 1638.46044921875 L 926.5169067382813 1625.794189453125 L 915.5171508789063 1617.991333007813 L 915.5171508789063 1606.461303710938 L 899.2630004882813 1606.461303710938 L 858.8518676757813 1577.795288085938 M 858.8521118164063 1567.795288085938 C 860.87744140625 1567.795288085938 862.9033203125 1568.40869140625 864.6376342773438 1569.638916015625 L 902.4496459960938 1596.461303710938 L 915.5171508789063 1596.461303710938 C 921.0400390625 1596.461303710938 925.5171508789063 1600.9384765625 925.5171508789063 1606.461303710938 L 925.5171508789063 1612.824462890625 L 932.3026733398438 1617.637939453125 C 934.9461669921875 1619.513061523438 936.5169067382813 1622.55322265625 936.5169067382813 1625.794189453125 L 936.5169067382813 1638.46044921875 L 936.5169067382813 1696.125732421875 C 936.5169067382813 1701.648559570313 932.0397338867188 1706.125732421875 926.5169067382813 1706.125732421875 L 791.1868896484375 1706.125732421875 C 785.6640014648438 1706.125732421875 781.1868896484375 1701.648559570313 781.1868896484375 1696.125732421875 L 781.1868896484375 1638.46044921875 L 781.1868896484375 1627.794067382813 C 781.1868896484375 1624.621337890625 782.6924438476563 1621.636962890625 785.2440795898438 1619.75146484375 L 792.1865844726563 1614.62158203125 L 792.1865844726563 1606.461303710938 C 792.1865844726563 1600.9384765625 796.6637573242188 1596.461303710938 802.1865844726563 1596.461303710938 L 816.763427734375 1596.461303710938 L 852.9090576171875 1569.752685546875 C 854.6734619140625 1568.448974609375 856.7625122070313 1567.795288085938 858.8521118164063 1567.795288085938 Z"/>
    </g>
    <g id="组_2392" data-name="组 2392" transform="translate(-248.581 -1121.426)">
      <path id="路径_4633" data-name="路径 4633" class="cls-2" d="M791.187,1627.794v68.332h135.33v-70.332l-67.665-48Z"/>
      <path id="路径_4634" data-name="路径 4634" class="cls-3" d="M858.852,1577.8l-67.665,50v10.666h135.33v-12.666Z"/>
      <rect id="矩形_963" data-name="矩形 963" class="cls-4" width="113.331" height="31.999" transform="translate(802.187 1606.461)"/>
      <rect id="矩形_964" data-name="矩形 964" class="cls-5" width="82.998" height="5.667" transform="translate(819.52 1618.794)"/>
      <rect id="矩形_965" data-name="矩形 965" class="cls-5" width="82.998" height="5.667" transform="translate(819.52 1630.544)"/>
      <g id="组_2391" data-name="组 2391">
        <rect id="矩形_966" data-name="矩形 966" class="cls-4" width="17.259" height="4.014" transform="translate(851.148 1664.329)"/>
        <rect id="矩形_967" data-name="矩形 967" class="cls-4" width="4.014" height="17.259" transform="translate(857.77 1657.707)"/>
      </g>
      <path id="路径_4635" data-name="路径 4635" class="cls-4" d="M824,1652.782h12.438l-1.978,5.053H824l-1,2.644q6.758.255,10.4,3.37a8.069,8.069,0,0,1,3,6.385,9.589,9.589,0,0,1-5.308,8.393,12.213,12.213,0,0,1-5.543,1.264,8.68,8.68,0,0,1-4.995-1.215,2.42,2.42,0,0,1-1.214-1.958,2.058,2.058,0,0,1,.636-1.489,2.013,2.013,0,0,1,1.479-.647,4.143,4.143,0,0,1,1.547.314,16.448,16.448,0,0,1,2.683,1.645,9.583,9.583,0,0,0,2.057,1.136,3.769,3.769,0,0,0,1.371.235,3.643,3.643,0,0,0,2.733-1.175,3.932,3.932,0,0,0,1.127-2.82q0-3.448-3.449-5.6a16.133,16.133,0,0,0-8.7-2.155q-.53,0-1.586.019Z"/>
      <path id="路径_4636" data-name="路径 4636" class="cls-4" d="M886.4,1652.782h12.439l-1.979,5.053H886.4l-1,2.644q6.759.255,10.4,3.37a8.069,8.069,0,0,1,3,6.385,9.589,9.589,0,0,1-5.308,8.393,12.214,12.214,0,0,1-5.543,1.264,8.68,8.68,0,0,1-4.995-1.215,2.42,2.42,0,0,1-1.214-1.958,2.058,2.058,0,0,1,.636-1.489,2.015,2.015,0,0,1,1.479-.647,4.143,4.143,0,0,1,1.547.314,16.444,16.444,0,0,1,2.684,1.645,9.579,9.579,0,0,0,2.056,1.136,3.771,3.771,0,0,0,1.372.235,3.643,3.643,0,0,0,2.732-1.175,3.932,3.932,0,0,0,1.127-2.82q0-3.448-3.448-5.6a16.139,16.139,0,0,0-8.7-2.155q-.529,0-1.586.019Z"/>
    </g>
  </g>
</svg>
