<svg xmlns="http://www.w3.org/2000/svg" width="176.394" height="212.313" viewBox="0 0 176.394 212.313">
  <defs>
    <style>
      .cls-1 {
        fill: #f8517d;
      }

      .cls-2 {
        fill: #f1b15f;
      }

      .cls-3 {
        fill: #ff96ba;
      }

      .cls-4 {
        fill: #1d2a4f;
      }

      .cls-5 {
        fill: #f1b161;
      }

      .cls-6 {
        fill: #ea8d27;
      }

      .cls-7 {
        fill: #f96f9d;
      }

      .cls-8 {
        fill: #1399ba;
      }

      .cls-9 {
        fill: #fff;
      }
    </style>
  </defs>
  <g id="组_2265" data-name="组 2265" transform="translate(-898.361 -49.123)">
    <g id="组_2149" data-name="组 2149" transform="translate(-0.796 -0.714)">
      <path id="路径_4425" data-name="路径 4425" class="cls-1" d="M1068.413,167.551V108.313s4.318-26.012-33.074-29.06h-53.65S951,91.039,951,105.061v62.49Z"/>
      <rect id="矩形_760" data-name="矩形 760" class="cls-2" width="8.129" height="89.01" transform="translate(1006.05 173.14)"/>
      <rect id="矩形_761" data-name="矩形 761" class="cls-1" width="176.394" height="5.589" transform="translate(899.157 167.551)"/>
      <path id="路径_4426" data-name="路径 4426" class="cls-3" d="M950.827,167.551V105.645c4.654-22.278,21.664-26.392,30.809-26.392,23.472,0,29.67,26.418,29.67,26.418v61.88H950.827Z"/>
      <path id="路径_4427" data-name="路径 4427" class="cls-4" d="M956.083,105.163s7.672-25.606,31.271-18.9a30.486,30.486,0,0,1,18.7,18.9v62.388H956.083Z"/>
      <circle id="椭圆_764" data-name="椭圆 764" class="cls-5" cx="3.556" cy="3.556" r="3.556" transform="translate(1037.879 130.261)"/>
      <circle id="椭圆_765" data-name="椭圆 765" class="cls-6" cx="8.027" cy="8.027" r="8.027" transform="translate(1033.408 125.79)"/>
      <path id="路径_4428" data-name="路径 4428" class="cls-7" d="M1011.359,109.329h57.054s4.115-28.146-33.074-30.076h-53.65s21.541-2.033,29.67,26.418Z"/>
      <rect id="矩形_762" data-name="矩形 762" class="cls-2" width="5.182" height="75.953" transform="translate(1038.54 49.837)"/>
      <path id="路径_4429" data-name="路径 4429" class="cls-8" d="M1043.722,49.837l20.957,9.068s3.658,2.668,0,5.563c-4.192,2.058-20.957,9.222-20.957,9.222Z"/>
      <rect id="矩形_763" data-name="矩形 763" class="cls-9" width="5.042" height="3.173" rx="1.329" transform="translate(1007.815 84.892)"/>
      <rect id="矩形_764" data-name="矩形 764" class="cls-9" width="18.086" height="3.173" rx="1.329" transform="translate(1016.135 84.892)"/>
    </g>
    <g id="组_2254" data-name="组 2254" transform="translate(-1.796 -0.714)">
      <g id="组_2253" data-name="组 2253">
        <path id="路径_4488" data-name="路径 4488" class="cls-9" d="M971.184,148.338v-.747A23.592,23.592,0,0,0,978.7,144.6a15.4,15.4,0,0,0,4.888-4.886,19.554,19.554,0,0,0,2.523-6.7,16.042,16.042,0,0,1-2.818,1.188,8.768,8.768,0,0,1-2.443.334A8.933,8.933,0,0,1,974,131.569q-2.737-2.964-2.738-8.117a14.5,14.5,0,0,1,1.483-6.556,10.973,10.973,0,0,1,15.955-4.446,12.67,12.67,0,0,1,4.513,5.261,17.675,17.675,0,0,1,1.682,7.851,23.336,23.336,0,0,1-2.736,10.948,20.786,20.786,0,0,1-8.159,8.4A26.972,26.972,0,0,1,971.184,148.338Zm15.327-17.571q.266-2.989.266-5.261a34.949,34.949,0,0,0-1.12-9.052,6.827,6.827,0,0,0-1.9-3.418,2.533,2.533,0,0,0-1.736-.588,2.358,2.358,0,0,0-2.083,1.148q-1.04,1.576-1.041,6.008,0,7.4,1.762,10.2a3.513,3.513,0,0,0,3.1,1.815A6.63,6.63,0,0,0,986.511,130.767Z"/>
      </g>
    </g>
  </g>
</svg>
