<svg xmlns="http://www.w3.org/2000/svg" width="135.33" height="118.33" viewBox="0 0 135.33 118.33">
  <defs>
    <style>
      .cls-1 {
        fill: #ff9702;
      }

      .cls-2 {
        fill: #f9f455;
      }

      .cls-3 {
        fill: #fff;
      }

      .cls-4 {
        fill: #bdf;
      }
    </style>
  </defs>
  <g id="组_2380" data-name="组 2380" transform="translate(-1786.399 -1413.25)">
    <path id="路径_4620" data-name="路径 4620" class="cls-1" d="M1786.4,1463.249v68.332h135.33v-70.332l-67.665-48Z"/>
    <path id="路径_4621" data-name="路径 4621" class="cls-2" d="M1854.064,1413.25l-67.665,50v10.666h135.33v-12.666Z"/>
    <rect id="矩形_950" data-name="矩形 950" class="cls-3" width="113.331" height="31.999" transform="translate(1797.399 1441.916)"/>
    <rect id="矩形_951" data-name="矩形 951" class="cls-4" width="82.998" height="5.667" transform="translate(1814.732 1454.249)"/>
    <rect id="矩形_952" data-name="矩形 952" class="cls-4" width="82.998" height="5.667" transform="translate(1814.732 1465.999)"/>
    <g id="组_2378" data-name="组 2378">
      <rect id="矩形_953" data-name="矩形 953" class="cls-3" width="17.259" height="4.014" transform="translate(1846.361 1499.784)"/>
    </g>
    <g id="组_2379" data-name="组 2379">
      <path id="路径_4622" data-name="路径 4622" class="cls-3" d="M1882.22,1501.552v-.679a12.657,12.657,0,0,0,3.062-1.191,4.543,4.543,0,0,0,1.473-1.686,4.744,4.744,0,0,0,.62-2.3,3.74,3.74,0,0,0-1.172-2.761,4,4,0,0,0-2.917-1.153q-2.713,0-4.612,2.868l-.716-.252a11.624,11.624,0,0,1,3.575-4.863,7.914,7.914,0,0,1,4.854-1.628,6.316,6.316,0,0,1,4.505,1.666,5.188,5.188,0,0,1,1.773,3.895,5.3,5.3,0,0,1-.823,2.8,7.17,7.17,0,0,1-2.587,2.374,9.169,9.169,0,0,1,3.459,2.723,6.662,6.662,0,0,1,1.192,4.059,9.357,9.357,0,0,1-2.975,6.986,10.983,10.983,0,0,1-7.974,2.878,8.427,8.427,0,0,1-4.864-1.1,2.344,2.344,0,0,1-1.1-2,2.168,2.168,0,0,1,2.112-2.151,2.736,2.736,0,0,1,1.2.271,25.031,25.031,0,0,1,2.2,1.7,5.756,5.756,0,0,0,3.536,1.541,3.208,3.208,0,0,0,2.461-1.134,4.122,4.122,0,0,0,1.027-2.878,7.491,7.491,0,0,0-1.861-4.893A9.741,9.741,0,0,0,1882.22,1501.552Z"/>
    </g>
    <path id="路径_4623" data-name="路径 4623" class="cls-3" d="M1826.634,1500.047a14.531,14.531,0,0,1,3.824,3.767,7.484,7.484,0,0,1,1.07,4,6.987,6.987,0,0,1-2.38,5.347,9.187,9.187,0,0,1-6.464,2.186,8.65,8.65,0,0,1-5.992-1.907,6.034,6.034,0,0,1-2.12-4.663,5.839,5.839,0,0,1,1.224-3.68,10.755,10.755,0,0,1,4.075-2.89,15.985,15.985,0,0,1-3.978-3.873,6.789,6.789,0,0,1-.877-3.487,6.041,6.041,0,0,1,2.225-4.615,8.809,8.809,0,0,1,6.1-1.994,8.463,8.463,0,0,1,5.751,1.763,5.434,5.434,0,0,1,2.013,4.229,5.208,5.208,0,0,1-1.088,3.266A9.511,9.511,0,0,1,1826.634,1500.047Zm-5.318,3.083a4.188,4.188,0,0,0-.848.983,7.689,7.689,0,0,0-.693,1.965,11.544,11.544,0,0,0-.309,2.7,8.651,8.651,0,0,0,.463,3.035,3.408,3.408,0,0,0,1.32,1.763,3.264,3.264,0,0,0,1.763.539,3.113,3.113,0,0,0,2.369-1.031,3.963,3.963,0,0,0,.964-2.822Q1826.345,1506.521,1821.316,1503.13Zm3.853-4.065a6.755,6.755,0,0,0,1.06-2.158,9.386,9.386,0,0,0,.347-2.621,5.956,5.956,0,0,0-1.079-3.834,2.693,2.693,0,0,0-2.235-1.021,2.945,2.945,0,0,0-2.2.934,3.206,3.206,0,0,0-.906,2.322,5.271,5.271,0,0,0,1.011,2.919A14.216,14.216,0,0,0,1825.169,1499.065Z"/>
  </g>
</svg>
