<svg xmlns="http://www.w3.org/2000/svg" width="135.33" height="118.33" viewBox="0 0 135.33 118.33">
  <defs>
    <style>
      .cls-1 {
        fill: #ff9702;
      }

      .cls-2 {
        fill: #f9f455;
      }

      .cls-3 {
        fill: #fff;
      }

      .cls-4 {
        fill: #bdf;
      }
    </style>
  </defs>
  <g id="组_2347" data-name="组 2347" transform="translate(-293.581 -1413.25)">
    <path id="路径_4583" data-name="路径 4583" class="cls-1" d="M293.581,1463.249v68.332h135.33v-70.332l-67.665-48Z"/>
    <path id="路径_4584" data-name="路径 4584" class="cls-2" d="M361.246,1413.25l-67.665,50v10.666h135.33v-12.666Z"/>
    <rect id="矩形_908" data-name="矩形 908" class="cls-3" width="113.331" height="31.999" transform="translate(304.58 1441.916)"/>
    <rect id="矩形_909" data-name="矩形 909" class="cls-4" width="82.998" height="5.667" transform="translate(321.913 1454.249)"/>
    <rect id="矩形_910" data-name="矩形 910" class="cls-4" width="82.998" height="5.667" transform="translate(321.913 1465.999)"/>
    <g id="组_2346" data-name="组 2346">
      <g id="组_2343" data-name="组 2343">
        <path id="路径_4585" data-name="路径 4585" class="cls-3" d="M323.4,1488.463v21.5a13.257,13.257,0,0,0,.214,3.093,2,2,0,0,0,.891,1.1,4.217,4.217,0,0,0,2.173.427h.6v.717H313.43v-.717h.7a5.4,5.4,0,0,0,2.4-.388,1.989,1.989,0,0,0,.969-1.067,11.782,11.782,0,0,0,.253-3.161v-13.632a8.611,8.611,0,0,0-.175-2.278,1.653,1.653,0,0,0-.65-.776,1.917,1.917,0,0,0-1.095-.319,6.2,6.2,0,0,0-2.4.62l-.35-.7,9.676-4.421Z"/>
      </g>
      <g id="组_2344" data-name="组 2344">
        <path id="路径_4586" data-name="路径 4586" class="cls-3" d="M405.532,1488.463v21.5a13.255,13.255,0,0,0,.214,3.093,2,2,0,0,0,.892,1.1,4.211,4.211,0,0,0,2.172.427h.6v.717H395.566v-.717h.7a5.4,5.4,0,0,0,2.4-.388,1.989,1.989,0,0,0,.969-1.067,11.737,11.737,0,0,0,.253-3.161v-13.632a8.611,8.611,0,0,0-.175-2.278,1.657,1.657,0,0,0-.649-.776,1.922,1.922,0,0,0-1.1-.319,6.2,6.2,0,0,0-2.4.62l-.35-.7,9.676-4.421Z"/>
      </g>
      <g id="组_2345" data-name="组 2345">
        <path id="路径_4587" data-name="路径 4587" class="cls-3" d="M347.375,1501.882a23.748,23.748,0,0,1-1.105,7.349,9.981,9.981,0,0,1-1.775,3.432,8.916,8.916,0,0,1-2.53,2.123,6.5,6.5,0,0,1-6.515-.184,9.1,9.1,0,0,1-2.715-2.773,13.475,13.475,0,0,1-1.494-3.51,22.531,22.531,0,0,1-.833-6.127,24.638,24.638,0,0,1,1.2-7.873,9.333,9.333,0,0,1,3.005-4.547,6.591,6.591,0,0,1,8.542-.02,9,9,0,0,1,2.919,4.2A23.383,23.383,0,0,1,347.375,1501.882Zm-5.973-.039q0-6.9-.077-8.048a7.2,7.2,0,0,0-.931-3.645,1.871,1.871,0,0,0-1.571-.621,1.823,1.823,0,0,0-1.318.465,4.084,4.084,0,0,0-.97,2.4q-.252,1.716-.252,11.975a45.726,45.726,0,0,0,.388,7.485,3.342,3.342,0,0,0,.834,1.841,2.122,2.122,0,0,0,1.434.466,1.732,1.732,0,0,0,1.455-.621,6.141,6.141,0,0,0,.931-3.354Z"/>
      </g>
      <rect id="矩形_911" data-name="矩形 911" class="cls-3" width="17.259" height="4.014" transform="translate(363.126 1499.874)"/>
    </g>
  </g>
</svg>
