<svg xmlns="http://www.w3.org/2000/svg" width="176.394" height="212.313" viewBox="0 0 176.394 212.313">
  <defs>
    <style>
      .cls-1 {
        fill: #f8517d;
      }

      .cls-2 {
        fill: #f1b15f;
      }

      .cls-3 {
        fill: #ff96ba;
      }

      .cls-4 {
        fill: #1d2a4f;
      }

      .cls-5 {
        fill: #f1b161;
      }

      .cls-6 {
        fill: #ea8d27;
      }

      .cls-7 {
        fill: #f96f9d;
      }

      .cls-8 {
        fill: #1399ba;
      }

      .cls-9 {
        fill: #fff;
      }
    </style>
  </defs>
  <g id="组_2263" data-name="组 2263" transform="translate(-203.653 -49.123)">
    <g id="组_2147" data-name="组 2147" transform="translate(-0.796 -0.714)">
      <path id="路径_4415" data-name="路径 4415" class="cls-1" d="M373.7,167.551V108.313s4.319-26.012-33.074-29.06H286.982S256.3,91.039,256.3,105.061v62.49Z"/>
      <rect id="矩形_750" data-name="矩形 750" class="cls-2" width="8.129" height="89.01" transform="translate(311.342 173.14)"/>
      <rect id="矩形_751" data-name="矩形 751" class="cls-1" width="176.394" height="5.589" transform="translate(204.449 167.551)"/>
      <path id="路径_4416" data-name="路径 4416" class="cls-3" d="M256.12,167.551V105.645c4.654-22.278,21.663-26.392,30.808-26.392,23.472,0,29.67,26.418,29.67,26.418v61.88H256.12Z"/>
      <path id="路径_4417" data-name="路径 4417" class="cls-4" d="M261.376,105.163s7.671-25.606,31.27-18.9a30.487,30.487,0,0,1,18.7,18.9v62.388H261.376Z"/>
      <circle id="椭圆_760" data-name="椭圆 760" class="cls-5" cx="3.556" cy="3.556" r="3.556" transform="translate(343.172 130.261)"/>
      <circle id="椭圆_761" data-name="椭圆 761" class="cls-6" cx="8.027" cy="8.027" r="8.027" transform="translate(338.701 125.79)"/>
      <path id="路径_4418" data-name="路径 4418" class="cls-7" d="M316.652,109.329H373.7s4.115-28.146-33.074-30.076H286.982s21.541-2.033,29.67,26.418Z"/>
      <rect id="矩形_752" data-name="矩形 752" class="cls-2" width="5.182" height="75.953" transform="translate(343.832 49.837)"/>
      <path id="路径_4419" data-name="路径 4419" class="cls-8" d="M349.014,49.837,369.971,58.9s3.658,2.668,0,5.563c-4.191,2.058-20.957,9.222-20.957,9.222Z"/>
      <rect id="矩形_753" data-name="矩形 753" class="cls-9" width="5.042" height="3.173" rx="1.329" transform="translate(313.108 84.892)"/>
      <rect id="矩形_754" data-name="矩形 754" class="cls-9" width="18.086" height="3.173" rx="1.329" transform="translate(321.427 84.892)"/>
    </g>
    <g id="组_2262" data-name="组 2262" transform="translate(-1.796 -0.714)">
      <g id="组_2261" data-name="组 2261" transform="translate(276.588 110.945)">
        <path id="路径_4490" data-name="路径 4490" class="cls-9" d="M283.077,110.945h16.959l-2.7,6.891H283.077l-1.362,3.606q9.215.347,14.181,4.593a11,11,0,0,1,4.086,8.706,13.07,13.07,0,0,1-7.236,11.443,16.651,16.651,0,0,1-7.558,1.723,11.841,11.841,0,0,1-6.81-1.656,3.3,3.3,0,0,1-1.656-2.67,2.807,2.807,0,0,1,.869-2.03,2.741,2.741,0,0,1,2.016-.882,5.659,5.659,0,0,1,2.109.427,22.482,22.482,0,0,1,3.658,2.244,13.075,13.075,0,0,0,2.8,1.549,5.153,5.153,0,0,0,1.871.32,4.97,4.97,0,0,0,3.726-1.6,5.364,5.364,0,0,0,1.536-3.846q0-4.7-4.7-7.638a22.01,22.01,0,0,0-11.857-2.937q-.722,0-2.163.026Z" transform="translate(-276.588 -110.945)"/>
      </g>
    </g>
  </g>
</svg>
