<svg xmlns="http://www.w3.org/2000/svg" width="135.33" height="118.33" viewBox="0 0 135.33 118.33">
  <defs>
    <style>
      .cls-1 {
        fill: #ff9702;
      }

      .cls-2 {
        fill: #f9f455;
      }

      .cls-3 {
        fill: #fff;
      }

      .cls-4 {
        fill: #bdf;
      }
    </style>
  </defs>
  <g id="组_2377" data-name="组 2377" transform="translate(-1620.531 -1413.25)">
    <path id="路径_4616" data-name="路径 4616" class="cls-1" d="M1620.531,1463.249v68.332h135.33v-70.332l-67.665-48Z"/>
    <path id="路径_4617" data-name="路径 4617" class="cls-2" d="M1688.2,1413.25l-67.665,50v10.666h135.33v-12.666Z"/>
    <rect id="矩形_945" data-name="矩形 945" class="cls-3" width="113.331" height="31.999" transform="translate(1631.53 1441.916)"/>
    <rect id="矩形_946" data-name="矩形 946" class="cls-4" width="82.998" height="5.667" transform="translate(1648.863 1454.249)"/>
    <rect id="矩形_947" data-name="矩形 947" class="cls-4" width="82.998" height="5.667" transform="translate(1648.863 1465.999)"/>
    <g id="组_2374" data-name="组 2374">
      <rect id="矩形_948" data-name="矩形 948" class="cls-3" width="17.259" height="4.014" transform="translate(1680.492 1499.784)"/>
      <rect id="矩形_949" data-name="矩形 949" class="cls-3" width="4.014" height="17.259" transform="translate(1687.114 1493.161)"/>
    </g>
    <g id="组_2375" data-name="组 2375">
      <path id="路径_4618" data-name="路径 4618" class="cls-3" d="M1716.352,1501.552v-.679a12.692,12.692,0,0,0,3.062-1.191,4.549,4.549,0,0,0,1.472-1.686,4.744,4.744,0,0,0,.62-2.3,3.737,3.737,0,0,0-1.172-2.761,4,4,0,0,0-2.917-1.153q-2.713,0-4.611,2.868l-.717-.252a11.643,11.643,0,0,1,3.575-4.863,7.914,7.914,0,0,1,4.854-1.628,6.314,6.314,0,0,1,4.505,1.666,5.189,5.189,0,0,1,1.774,3.895,5.3,5.3,0,0,1-.824,2.8,7.154,7.154,0,0,1-2.587,2.374,9.16,9.16,0,0,1,3.459,2.723,6.662,6.662,0,0,1,1.192,4.059,9.357,9.357,0,0,1-2.975,6.986,10.983,10.983,0,0,1-7.974,2.878,8.429,8.429,0,0,1-4.864-1.1,2.346,2.346,0,0,1-1.1-2,2.168,2.168,0,0,1,2.112-2.151,2.743,2.743,0,0,1,1.2.271,25.258,25.258,0,0,1,2.2,1.7,5.758,5.758,0,0,0,3.536,1.541,3.207,3.207,0,0,0,2.461-1.134,4.123,4.123,0,0,0,1.028-2.878,7.5,7.5,0,0,0-1.861-4.893A9.748,9.748,0,0,0,1716.352,1501.552Z"/>
    </g>
    <g id="组_2376" data-name="组 2376">
      <path id="路径_4619" data-name="路径 4619" class="cls-3" d="M1648.465,1505.336l12.614-17.1h2.39v17.1h2.429v4.055h-2.429v5.954h-5.387v-5.954h-9.617Zm1.9,0h7.717v-10.479Z"/>
    </g>
  </g>
</svg>
