<svg xmlns="http://www.w3.org/2000/svg" width="155.33" height="138.33" viewBox="0 0 155.33 138.33">
  <defs>
    <style>
      .cls-1, .cls-4, .cls-7 {
        fill: #fff;
      }

      .cls-1 {
        stroke-linecap: round;
        stroke-linejoin: round;
      }

      .cls-2 {
        fill: #ff9702;
      }

      .cls-3 {
        fill: #f9f455;
      }

      .cls-5 {
        fill: #bdf;
      }

      .cls-6, .cls-7 {
        stroke: none;
      }
    </style>
  </defs>
  <g id="组_2808" data-name="组 2808" transform="translate(-35 -446.369)">
    <g id="路径_4532" data-name="路径 4532" class="cls-1" transform="translate(-248.581 -1121.426)">
      <path class="cls-6" d="M 433.9105834960938 1701.125732421875 L 428.9105834960938 1701.125732421875 L 293.58056640625 1701.125732421875 L 288.58056640625 1701.125732421875 L 288.58056640625 1696.125732421875 L 288.58056640625 1638.46044921875 L 288.58056640625 1627.794067382813 L 288.58056640625 1625.271728515625 L 290.6091918945313 1623.772705078125 L 299.580322265625 1617.143920898438 L 299.580322265625 1606.461303710938 L 299.580322265625 1601.461303710938 L 304.580322265625 1601.461303710938 L 320.8040771484375 1601.461303710938 L 358.2742004394531 1573.774047851563 L 361.1857604980469 1571.62255859375 L 364.1384582519531 1573.717163085938 L 403.25 1601.461303710938 L 417.9108276367188 1601.461303710938 L 422.9108276367188 1601.461303710938 L 422.9108276367188 1606.461303710938 L 422.9108276367188 1615.407958984375 L 431.8034973144531 1621.716064453125 L 433.9105834960938 1623.210693359375 L 433.9105834960938 1625.794189453125 L 433.9105834960938 1638.46044921875 L 433.9105834960938 1696.125732421875 L 433.9105834960938 1701.125732421875 Z"/>
      <path class="cls-7" d="M 361.24560546875 1577.795288085938 L 322.450927734375 1606.461303710938 L 304.580322265625 1606.461303710938 L 304.580322265625 1619.666259765625 L 293.58056640625 1627.794067382813 L 293.58056640625 1638.46044921875 L 293.58056640625 1696.125732421875 L 428.9105834960938 1696.125732421875 L 428.9105834960938 1638.46044921875 L 428.9105834960938 1625.794189453125 L 417.9108276367188 1617.991333007813 L 417.9108276367188 1606.461303710938 L 401.6566772460938 1606.461303710938 L 361.24560546875 1577.795288085938 M 361.245849609375 1567.795288085938 C 363.2711791992188 1567.795288085938 365.2970581054688 1568.408813476563 367.0313415527344 1569.639038085938 L 404.8432922363281 1596.461303710938 L 417.9108276367188 1596.461303710938 C 423.4336853027344 1596.461303710938 427.9108276367188 1600.9384765625 427.9108276367188 1606.461303710938 L 427.9108276367188 1612.824462890625 L 434.6963500976563 1617.637939453125 C 437.3398132324219 1619.513061523438 438.9105834960938 1622.55322265625 438.9105834960938 1625.794189453125 L 438.9105834960938 1638.46044921875 L 438.9105834960938 1696.125732421875 C 438.9105834960938 1701.648559570313 434.4334411621094 1706.125732421875 428.9105834960938 1706.125732421875 L 293.58056640625 1706.125732421875 C 288.0577087402344 1706.125732421875 283.58056640625 1701.648559570313 283.58056640625 1696.125732421875 L 283.58056640625 1638.46044921875 L 283.58056640625 1627.794067382813 C 283.58056640625 1624.621337890625 285.0861206054688 1621.636840820313 287.6378173828125 1619.75146484375 L 294.580322265625 1614.62158203125 L 294.580322265625 1606.461303710938 C 294.580322265625 1600.9384765625 299.0574645996094 1596.461303710938 304.580322265625 1596.461303710938 L 319.1571655273438 1596.461303710938 L 355.3027954101563 1569.752685546875 C 357.0671997070313 1568.448974609375 359.1561889648438 1567.795288085938 361.245849609375 1567.795288085938 Z"/>
    </g>
    <g id="组_2385" data-name="组 2385" transform="translate(-248.581 -1121.426)">
      <path id="路径_4624" data-name="路径 4624" class="cls-2" d="M293.581,1627.794v68.332h135.33v-70.332l-67.665-48Z"/>
      <path id="路径_4625" data-name="路径 4625" class="cls-3" d="M361.246,1577.8l-67.665,50v10.666h135.33v-12.666Z"/>
      <rect id="矩形_954" data-name="矩形 954" class="cls-4" width="113.331" height="31.999" transform="translate(304.58 1606.461)"/>
      <rect id="矩形_955" data-name="矩形 955" class="cls-5" width="82.998" height="5.667" transform="translate(321.913 1618.794)"/>
      <rect id="矩形_956" data-name="矩形 956" class="cls-5" width="82.998" height="5.667" transform="translate(321.913 1630.544)"/>
      <g id="组_2384" data-name="组 2384">
        <g id="组_2381" data-name="组 2381">
          <path id="路径_4626" data-name="路径 4626" class="cls-4" d="M323.4,1653.008v21.5a13.267,13.267,0,0,0,.214,3.093,2,2,0,0,0,.891,1.1,4.219,4.219,0,0,0,2.173.427h.6v.717H313.43v-.717h.7a5.4,5.4,0,0,0,2.4-.388,1.99,1.99,0,0,0,.969-1.067,11.772,11.772,0,0,0,.253-3.16v-13.632a8.616,8.616,0,0,0-.175-2.279,1.653,1.653,0,0,0-.65-.776,1.917,1.917,0,0,0-1.095-.319,6.206,6.206,0,0,0-2.4.62l-.35-.7,9.676-4.421Z"/>
        </g>
        <g id="组_2382" data-name="组 2382">
          <path id="路径_4627" data-name="路径 4627" class="cls-4" d="M405.532,1653.008v21.5a13.266,13.266,0,0,0,.214,3.093,2,2,0,0,0,.892,1.1,4.212,4.212,0,0,0,2.172.427h.6v.717H395.566v-.717h.7a5.4,5.4,0,0,0,2.4-.388,1.99,1.99,0,0,0,.969-1.067,11.727,11.727,0,0,0,.253-3.16v-13.632a8.615,8.615,0,0,0-.175-2.279,1.656,1.656,0,0,0-.649-.776,1.922,1.922,0,0,0-1.1-.319,6.206,6.206,0,0,0-2.4.62l-.35-.7,9.676-4.421Z"/>
        </g>
        <g id="组_2383" data-name="组 2383">
          <path id="路径_4628" data-name="路径 4628" class="cls-4" d="M347.375,1666.427a23.743,23.743,0,0,1-1.105,7.349,9.981,9.981,0,0,1-1.775,3.432,8.918,8.918,0,0,1-2.53,2.123,6.5,6.5,0,0,1-6.515-.184,9.09,9.09,0,0,1-2.715-2.773,13.46,13.46,0,0,1-1.494-3.51,22.531,22.531,0,0,1-.833-6.127,24.638,24.638,0,0,1,1.2-7.873,9.337,9.337,0,0,1,3.005-4.547,6.591,6.591,0,0,1,8.542-.02,9.009,9.009,0,0,1,2.919,4.2A23.383,23.383,0,0,1,347.375,1666.427Zm-5.973-.039q0-6.9-.077-8.048a7.206,7.206,0,0,0-.931-3.645,1.871,1.871,0,0,0-1.571-.621,1.824,1.824,0,0,0-1.318.466,4.077,4.077,0,0,0-.97,2.394q-.252,1.718-.252,11.975a45.728,45.728,0,0,0,.388,7.485,3.346,3.346,0,0,0,.834,1.842,2.126,2.126,0,0,0,1.434.465,1.734,1.734,0,0,0,1.455-.62,6.148,6.148,0,0,0,.931-3.355Z"/>
        </g>
        <rect id="矩形_957" data-name="矩形 957" class="cls-4" width="17.259" height="4.014" transform="translate(363.126 1664.419)"/>
      </g>
    </g>
  </g>
</svg>
