<svg xmlns="http://www.w3.org/2000/svg" width="92.652" height="90.19" viewBox="0 0 92.652 90.19">
  <defs>
    <style>
      .cls-1 {
        fill: #78a817;
      }

      .cls-2 {
        fill: #1b2504;
      }

      .cls-3 {
        fill: #684a1f;
      }

      .cls-4 {
        fill: #765a29;
      }

      .cls-5 {
        fill: #52a42a;
      }
    </style>
  </defs>
  <g id="组_2473" data-name="组 2473" transform="translate(-332.328 -348.069)">
    <circle id="椭圆_901" data-name="椭圆 901" class="cls-1" cx="38.861" cy="38.861" r="38.861" transform="translate(332.328 360.537)"/>
    <path id="路径_4856" data-name="路径 4856" class="cls-2" d="M380.653,437.1a54.091,54.091,0,0,0,6.1-2.083c0-.973-2.652-8.342,3.4-10.771s7.881-12.268,4.431-17.082-2.386-7.88-.341-8.945,8.641-4.586,6.429-13.944-11.839-12.6-11.839-12.6l-3.229,5.406s7.636,7.16.832,14.913c-5.785,4.516-6.485,4.026-2.587,13.163s.825,10.735-3.2,13.866-4.151,4.729-2.106,8.754A18.906,18.906,0,0,1,380.653,437.1Z"/>
    <path id="路径_4857" data-name="路径 4857" class="cls-3" d="M372.9,355.958s-4.942-.512-3.238-5.709,12.61.341,15.08,1.789,8.52,8.35,9.116,9.883,0,5.879,0,5.879S376.566,355.532,372.9,355.958Z"/>
    <path id="路径_4858" data-name="路径 4858" class="cls-4" d="M392.584,373.593s-7.157,9.457-15.762,2.982-3.238-14.4-2.982-14.824a9.458,9.458,0,0,1,10.224-4.941c6.976,1.31,9.8,5.111,9.8,5.111Z"/>
    <path id="路径_4859" data-name="路径 4859" class="cls-1" d="M382.907,372.579s-4.466,1.437-4.85-3.907,4.946-6.518,6.9-3.908C384.518,367.076,382.907,372.579,382.907,372.579Z"/>
    <path id="路径_4860" data-name="路径 4860" class="cls-2" d="M337.676,379.712s-1.877,5.213-.386,9.089-1.878,6.984-4.922,8.817C332.368,397.618,332.524,387.619,337.676,379.712Z"/>
    <path id="路径_4861" data-name="路径 4861" class="cls-2" d="M356.452,363.429s-1.1,1.3-.674,7.694-6.3,9.286-7.071,9.627-5.453.92-2.556,7.915c3.323,6.654,6.3,9.636,1.789,12.192s-9.968,4.771-7.071,9.371,9.4,9.564,1.676,15.432c1.776,1.813,3.841,5.061,14.346,9.884,3.03-.768,7.726-4.506,4.532-10.96s-4.793-8.5-1.087-9.712,7.988-2.94,8.371-5.687-3-9.779-4.281-11.567-2.492-5.941,2.683-8.178,6.88-7.668,4.079-15.335.555-10.913,2.157-13.508C373.345,360.6,364.367,359.655,356.452,363.429Z"/>
    <path id="路径_4862" data-name="路径 4862" class="cls-2" d="M409.908,396.076s-3.693,1.479-5.738,6.527c-.511,3.2,3.541,10.1,3.541,10.1S410.342,408.271,409.908,396.076Z"/>
    <path id="路径_4863" data-name="路径 4863" class="cls-5" d="M396.758,385.542s.384,2.237,2.492.576.831-4.218,5.6-.576,5.623,4.58,6.049,2.109a33.466,33.466,0,0,1,.682-3.323s-.086-1.029,3.663-.642,10.139.046,9.713-1.743-4.686-10.65-7.668-12.013c-.213-.6.639-1.022,1.363-1.022s3.365-.469,2-1.79-4-3.322-10.607-2.768c-.682-.384-.383-1.151.469-1.491a11.091,11.091,0,0,1,5.921-1.662c.724.213-7.564-9.968-22.312-.511-1.522,2.748-4.525,10.8-1.522,17.636A31.216,31.216,0,0,0,396.758,385.542Z"/>
    <path id="路径_4864" data-name="路径 4864" class="cls-2" d="M384.96,364.764s-3.381,1.634-2.053,7.815c1.624-.223,3.136-.657,3.413-2.987S386.475,365.583,384.96,364.764Z"/>
  </g>
</svg>
