<svg xmlns="http://www.w3.org/2000/svg" width="76.756" height="111.04" viewBox="0 0 76.756 111.04">
  <defs>
    <style>
      .cls-1 {
        fill: #91ae06;
      }

      .cls-2 {
        fill: #5f9b31;
      }

      .cls-3 {
        fill: #fbd42f;
      }

      .cls-4 {
        fill: #faa41e;
      }

      .cls-5 {
        fill: #cd7f19;
      }

      .cls-6 {
        fill: #ffefb6;
      }

      .cls-7 {
        fill: #fff;
      }
    </style>
  </defs>
  <g id="组_2768" data-name="组 2768" transform="translate(-373.243 -467.416)">
    <g id="组_2457" data-name="组 2457" transform="translate(0.585 0.18)">
      <path id="路径_4822" data-name="路径 4822" class="cls-1" d="M389.093,504.632s-9.2-17.549-15.974-16.015c-.511-.1-.831-2.812,5.91-2.045s8.275,1.949,8.275,1.949,1.757,0,.831-1.757-6.582-14.122-9.968-15.016c0,0-.746-1.363,1.278-.873s15.846,5.729,18.85,10.394,3.514-.959,3.386-1.151-4.025-11.373-6.9-12.651c.639-.959,10.863.639,16.23,13.29.4.086,5.272-7.444,9.9-6.869,1.278.384-2.908,3.707-2.972,7.8.288.351,5.464-4.569,9.841-4.728,0,0,1.565-.1,0,2.332s-3.291,5.942-3.547,7.412,1.278-.319,2.364-1.022,10.033-3.515,14.378-.7c.7,1.533-11.31,7.284-11.822,10.287,2.109.767,11.694-1.341,14.633,2.173,1.534,1.6.256.192-2.428,1.406s-12.332,8.306-12.524,9.776-12.993,2.066-12.993,2.066L399.828,507.7Z"/>
      <path id="路径_4823" data-name="路径 4823" class="cls-2" d="M398.486,497.627s-10.607-6.262-17-5.176c.831,1.278,8.243,9.539,7.6,12.181,1.853-.552,20.9,2.132,20.9,2.132l13.8,2.109,5.048-.256s11.373-11.087,15.207-10.336c0-.58-2.427-5.319-20.383-1.549,0,0-1.828-11.122,4.741-18.692.5-1.5-3.016-2.586-13.623,6.807-1.15,1.214-3.77,4.026-3.77,6.773s-8.122-13.1-14.249-14.571C395.8,478.759,400.851,478.649,398.486,497.627Z"/>
      <path id="路径_4824" data-name="路径 4824" class="cls-3" d="M400.851,501.737s-14.569-2.9-20.448,15.592-9.031,45.41,1.96,52.566,36.123,11.587,44.558,5.538,10.99-19.68,11.928-36.038,1.7-25.73-13.8-32.716C413.119,503.441,413.375,502.76,400.851,501.737Z"/>
      <path id="路径_4825" data-name="路径 4825" class="cls-4" d="M389.534,511.568a59.278,59.278,0,0,0-4.259,5.119c-1.992,2.319-.278,4.691,1.631,6.35,2.063,1.792,4.862,4.238,7.771,3,2.135-.909,3.683-2.828,5.016-4.653,1.5-2.058,1.833-3.66-.123-5.624-2.037-2.045-5.682-7.276-9.059-4.978A8.4,8.4,0,0,0,389.534,511.568Z"/>
      <circle id="椭圆_875" data-name="椭圆 875" class="cls-5" cx="2.939" cy="2.939" r="2.939" transform="translate(389.136 515.028)"/>
      <circle id="椭圆_876" data-name="椭圆 876" class="cls-6" cx="1.15" cy="1.15" r="1.15" transform="translate(390.622 516.541)"/>
      <path id="路径_4826" data-name="路径 4826" class="cls-4" d="M405.54,505.307a59.769,59.769,0,0,0-4.259,5.119c-1.991,2.319-.278,4.692,1.631,6.35,2.063,1.793,4.862,4.238,7.772,3,2.134-.909,3.682-2.828,5.015-4.653,1.5-2.058,1.833-3.66-.123-5.624-2.037-2.044-5.681-7.276-9.059-4.977A8.472,8.472,0,0,0,405.54,505.307Z"/>
      <circle id="椭圆_877" data-name="椭圆 877" class="cls-5" cx="2.939" cy="2.939" r="2.939" transform="translate(405.142 508.767)"/>
      <circle id="椭圆_878" data-name="椭圆 878" class="cls-6" cx="1.15" cy="1.15" r="1.15" transform="translate(406.628 510.28)"/>
      <path id="路径_4827" data-name="路径 4827" class="cls-4" d="M422.582,516.005a59.43,59.43,0,0,0-4.259,5.119c-1.991,2.319-.278,4.691,1.631,6.35,2.063,1.792,4.862,4.238,7.771,3,2.135-.909,3.683-2.828,5.016-4.653,1.5-2.058,1.833-3.66-.123-5.624-2.037-2.044-5.682-7.276-9.059-4.977A8.472,8.472,0,0,0,422.582,516.005Z"/>
      <circle id="椭圆_879" data-name="椭圆 879" class="cls-5" cx="2.939" cy="2.939" r="2.939" transform="translate(422.184 519.465)"/>
      <circle id="椭圆_880" data-name="椭圆 880" class="cls-6" cx="1.15" cy="1.15" r="1.15" transform="translate(423.67 520.978)"/>
      <path id="路径_4828" data-name="路径 4828" class="cls-4" d="M422.847,536.131a59.655,59.655,0,0,0-4.26,5.12c-1.991,2.319-.277,4.691,1.632,6.35,2.063,1.792,4.862,4.237,7.771,3,2.134-.909,3.683-2.827,5.015-4.653,1.5-2.057,1.834-3.659-.123-5.623-2.036-2.045-5.681-7.277-9.058-4.978A8.414,8.414,0,0,0,422.847,536.131Z"/>
      <circle id="椭圆_881" data-name="椭圆 881" class="cls-5" cx="2.939" cy="2.939" r="2.939" transform="translate(422.449 539.592)"/>
      <circle id="椭圆_882" data-name="椭圆 882" class="cls-6" cx="1.15" cy="1.15" r="1.15" transform="translate(423.935 541.105)"/>
      <path id="路径_4829" data-name="路径 4829" class="cls-4" d="M420.811,555.906a59.588,59.588,0,0,0-4.259,5.119c-1.992,2.319-.278,4.692,1.631,6.35,2.063,1.793,4.862,4.238,7.771,3,2.135-.909,3.683-2.828,5.016-4.653,1.5-2.058,1.833-3.66-.124-5.624-2.036-2.044-5.681-7.276-9.058-4.977A8.389,8.389,0,0,0,420.811,555.906Z"/>
      <circle id="椭圆_883" data-name="椭圆 883" class="cls-5" cx="2.939" cy="2.939" r="2.939" transform="translate(420.413 559.367)"/>
      <circle id="椭圆_884" data-name="椭圆 884" class="cls-6" cx="1.15" cy="1.15" r="1.15" transform="translate(421.899 560.879)"/>
      <path id="路径_4830" data-name="路径 4830" class="cls-4" d="M401.746,562.647a56.537,56.537,0,0,0-4.034,4.849c-1.886,2.2-.263,4.443,1.545,6.013,1.954,1.7,4.605,4.014,7.36,2.841,2.022-.861,3.488-2.679,4.75-4.407,1.423-1.949,1.737-3.467-.116-5.327-1.929-1.936-5.381-6.891-8.58-4.714A8.1,8.1,0,0,0,401.746,562.647Z"/>
      <circle id="椭圆_885" data-name="椭圆 885" class="cls-5" cx="2.939" cy="2.939" r="2.939" transform="translate(401.62 566.18)"/>
      <circle id="椭圆_886" data-name="椭圆 886" class="cls-6" cx="1.15" cy="1.15" r="1.15" transform="translate(403.106 567.692)"/>
      <path id="路径_4831" data-name="路径 4831" class="cls-4" d="M403.008,543.613a59.661,59.661,0,0,0-4.26,5.12c-1.991,2.319-.277,4.691,1.632,6.35,2.063,1.792,4.862,4.237,7.771,3,2.135-.909,3.683-2.828,5.016-4.654,1.5-2.057,1.833-3.659-.124-5.623-2.036-2.045-5.681-7.277-9.058-4.978A8.406,8.406,0,0,0,403.008,543.613Z"/>
      <circle id="椭圆_887" data-name="椭圆 887" class="cls-5" cx="2.939" cy="2.939" r="2.939" transform="translate(402.61 547.074)"/>
      <circle id="椭圆_888" data-name="椭圆 888" class="cls-6" cx="1.15" cy="1.15" r="1.15" transform="translate(404.096 548.587)"/>
      <path id="路径_4832" data-name="路径 4832" class="cls-4" d="M404.958,524.087a59.489,59.489,0,0,0-4.26,5.119c-1.991,2.319-.277,4.691,1.632,6.35,2.063,1.792,4.862,4.238,7.771,3,2.135-.909,3.683-2.828,5.016-4.653,1.5-2.058,1.833-3.66-.124-5.624-2.036-2.045-5.681-7.276-9.058-4.978A8.507,8.507,0,0,0,404.958,524.087Z"/>
      <circle id="椭圆_889" data-name="椭圆 889" class="cls-5" cx="2.939" cy="2.939" r="2.939" transform="translate(404.56 527.547)"/>
      <circle id="椭圆_890" data-name="椭圆 890" class="cls-6" cx="1.15" cy="1.15" r="1.15" transform="translate(406.046 529.06)"/>
      <path id="路径_4833" data-name="路径 4833" class="cls-4" d="M385.105,529.967a59.661,59.661,0,0,0-4.259,5.119c-1.991,2.319-.277,4.691,1.632,6.35,2.062,1.792,4.862,4.238,7.771,3,2.134-.909,3.683-2.828,5.015-4.653,1.5-2.058,1.834-3.66-.123-5.624-2.036-2.045-5.681-7.276-9.058-4.978A8.412,8.412,0,0,0,385.105,529.967Z"/>
      <circle id="椭圆_891" data-name="椭圆 891" class="cls-5" cx="2.939" cy="2.939" r="2.939" transform="translate(384.708 533.427)"/>
      <circle id="椭圆_892" data-name="椭圆 892" class="cls-6" cx="1.15" cy="1.15" r="1.15" transform="translate(386.193 534.94)"/>
      <path id="路径_4834" data-name="路径 4834" class="cls-4" d="M385.105,549.477a59.962,59.962,0,0,0-4.259,5.119c-1.991,2.319-.277,4.692,1.632,6.35,2.062,1.793,4.862,4.238,7.771,3,2.134-.909,3.683-2.828,5.015-4.653,1.5-2.058,1.834-3.66-.123-5.624-2.036-2.044-5.681-7.276-9.058-4.977A8.4,8.4,0,0,0,385.105,549.477Z"/>
      <circle id="椭圆_893" data-name="椭圆 893" class="cls-5" cx="2.939" cy="2.939" r="2.939" transform="translate(384.708 552.937)"/>
      <circle id="椭圆_894" data-name="椭圆 894" class="cls-6" cx="1.15" cy="1.15" r="1.15" transform="translate(386.193 554.45)"/>
    </g>
    <rect id="矩形_1014" data-name="矩形 1014" class="cls-7" width="8.645" height="99.905" rx="4.322" transform="translate(373.243 502.854) rotate(-45)"/>
  </g>
</svg>
