<svg xmlns="http://www.w3.org/2000/svg" width="48.322" height="57.429" viewBox="0 0 48.322 57.429">
  <defs>
    <style>
      .cls-1 {
        fill: #fbda46;
      }

      .cls-2 {
        fill: #eab42d;
      }

      .cls-3 {
        fill: #784c0b;
      }
    </style>
  </defs>
  <g id="组_11339" data-name="组 11339" transform="translate(-12584.977 9382.096)">
    <g id="组_11338" data-name="组 11338" transform="translate(12584.978 -9382.097)">
      <g id="组_11337" data-name="组 11337" transform="translate(-0.001 0)">
        <path id="路径_13809" data-name="路径 13809" class="cls-1" d="M211.187,496.972s-5.02,26.419-19.592,28-17.822,3.341-17.822,10.766,12.16,18.564,29.238,12.438,13.921-24.9,13.921-24.9l1.952-7.074,1.981-7.135v-4.073l-1.184-3.926S212.763,495.526,211.187,496.972Z" transform="translate(-173.773 -492.517)"/>
        <path id="路径_25646" data-name="路径 25646" class="cls-2" d="M216.83,497.2s-1.57,28.705-11.339,39.809-16.449,9.781-22.263,8.676-9.158-7.488-9.158-7.488,3.936,10.477,15.79,11.278,19.74-2.349,26.2-14.28,4.867-33.521,4.867-33.521Z" transform="translate(-173.668 -492.35)"/>
        <path id="路径_13811" data-name="路径 13811" class="cls-3" d="M191.868,486.662s-.677-7.627,3.078-5.368a41.466,41.466,0,0,0,6.351,1.716c2.61.377,1.914,4.526,1.792,4.752s.177,4.973-4.646,2.111S191.868,486.662,191.868,486.662Z" transform="translate(-154.942 -480.875)"/>
      </g>
    </g>
  </g>
</svg>
