<svg xmlns="http://www.w3.org/2000/svg" width="251.484" height="51.204" viewBox="0 0 251.484 51.204">
  <defs>
    <style>
      .cls-1 {
        fill: #fff;
      }
    </style>
  </defs>
  <g id="组_2461" data-name="组 2461" transform="translate(-585.434 -497.155)">
    <path id="路径_4835" data-name="路径 4835" class="cls-1" d="M585.434,529.453l23.827-32.3h4.513v32.3h4.588v7.659h-4.588v11.247H603.6V537.112H585.434Zm3.59,0H603.6V509.66Z"/>
    <path id="路径_4836" data-name="路径 4836" class="cls-1" d="M834.106,548.359H804.583v-.815q13.576-16.167,16.482-21.753a23.569,23.569,0,0,0,2.9-10.915,9.078,9.078,0,0,0-2.4-6.455,7.741,7.741,0,0,0-5.881-2.572q-5.7,0-8.843,5.7l-1.369-.481q2-7.1,6.067-10.507a14.222,14.222,0,0,1,9.4-3.4,13.908,13.908,0,0,1,6.956,1.776,12.868,12.868,0,0,1,4.92,4.865,11.726,11.726,0,0,1,1.776,5.79,20.91,20.91,0,0,1-2.738,9.989q-3.738,6.846-16.316,19.091h10.84a24.725,24.725,0,0,0,5.2-.334,4.3,4.3,0,0,0,1.98-1.128,14.61,14.61,0,0,0,2.034-3.348h1.332Z"/>
    <path id="路径_4837" data-name="路径 4837" class="cls-1" d="M724.68,548.359H695.157v-.815q13.577-16.167,16.482-21.753a23.569,23.569,0,0,0,2.9-10.915,9.078,9.078,0,0,0-2.405-6.455,7.741,7.741,0,0,0-5.882-2.572q-5.7,0-8.842,5.7l-1.369-.481q2-7.1,6.067-10.507a14.22,14.22,0,0,1,9.4-3.4,13.908,13.908,0,0,1,6.956,1.776,12.858,12.858,0,0,1,4.919,4.865,11.718,11.718,0,0,1,1.777,5.79,20.91,20.91,0,0,1-2.738,9.989q-3.738,6.846-16.316,19.091h10.84a24.725,24.725,0,0,0,5.2-.334,4.3,4.3,0,0,0,1.979-1.128,14.568,14.568,0,0,0,2.035-3.348h1.332Z"/>
    <g id="组_2459" data-name="组 2459">
      <rect id="矩形_1015" data-name="矩形 1015" class="cls-1" width="26.859" height="6.247" transform="translate(643.182 519.633)"/>
    </g>
    <g id="组_2460" data-name="组 2460">
      <rect id="矩形_1016" data-name="矩形 1016" class="cls-1" width="26.859" height="6.247" transform="translate(752.608 525.88)"/>
      <rect id="矩形_1017" data-name="矩形 1017" class="cls-1" width="26.859" height="6.247" transform="translate(752.608 513.386)"/>
    </g>
  </g>
</svg>
