<svg xmlns="http://www.w3.org/2000/svg" width="251.466" height="52.277" viewBox="0 0 251.466 52.277">
  <defs>
    <style>
      .cls-1 {
        fill: #fff;
      }
    </style>
  </defs>
  <g id="组_2478" data-name="组 2478" transform="translate(-708.272 -367.025)">
    <path id="路径_4874" data-name="路径 4874" class="cls-1" d="M839.989,367.562v41.029a25.412,25.412,0,0,0,.406,5.9,3.817,3.817,0,0,0,1.7,2.089,8.038,8.038,0,0,0,4.145.815h1.146v1.369H820.973V417.4H822.3a10.311,10.311,0,0,0,4.586-.74,3.8,3.8,0,0,0,1.85-2.035,22.47,22.47,0,0,0,.482-6.031V382.583a16.458,16.458,0,0,0-.333-4.347,3.151,3.151,0,0,0-1.24-1.48,3.654,3.654,0,0,0-2.09-.61,11.864,11.864,0,0,0-4.587,1.183L820.307,376l18.46-8.435Z"/>
    <path id="路径_4875" data-name="路径 4875" class="cls-1" d="M926.81,399.86l23.826-32.3h4.514v32.3h4.588v7.659H955.15v11.247H944.975V407.519H926.81Zm3.589,0h14.576V380.067Z"/>
    <path id="路径_4876" data-name="路径 4876" class="cls-1" d="M718.26,393.071v-1.3a24.2,24.2,0,0,0,5.846-2.275,8.675,8.675,0,0,0,2.812-3.218A9.055,9.055,0,0,0,728.1,381.9a7.134,7.134,0,0,0-2.237-5.272,7.628,7.628,0,0,0-5.569-2.2q-5.18,0-8.8,5.475l-1.369-.48a22.22,22.22,0,0,1,6.826-9.287,15.121,15.121,0,0,1,9.267-3.108,12.061,12.061,0,0,1,8.6,3.182,9.909,9.909,0,0,1,3.385,7.437,10.11,10.11,0,0,1-1.572,5.345,13.661,13.661,0,0,1-4.939,4.533,17.5,17.5,0,0,1,6.6,5.2,12.725,12.725,0,0,1,2.275,7.751,17.867,17.867,0,0,1-5.678,13.337q-5.681,5.494-15.225,5.494-6.364,0-9.286-2.109a4.476,4.476,0,0,1-2.109-3.81,4.137,4.137,0,0,1,4.032-4.107,5.216,5.216,0,0,1,2.295.518,47.729,47.729,0,0,1,4.2,3.237q3.606,2.941,6.752,2.941a6.125,6.125,0,0,0,4.7-2.164,7.872,7.872,0,0,0,1.961-5.494,14.306,14.306,0,0,0-3.553-9.342Q725.107,394.7,718.26,393.071Z"/>
    <g id="组_2476" data-name="组 2476">
      <rect id="矩形_1022" data-name="矩形 1022" class="cls-1" width="26.859" height="6.247" transform="translate(765.705 390.04)"/>
      <rect id="矩形_1023" data-name="矩形 1023" class="cls-1" width="6.247" height="26.859" transform="translate(776.011 379.734)"/>
    </g>
    <g id="组_2477" data-name="组 2477">
      <rect id="矩形_1024" data-name="矩形 1024" class="cls-1" width="26.859" height="6.247" transform="translate(875.131 396.287)"/>
      <rect id="矩形_1025" data-name="矩形 1025" class="cls-1" width="26.859" height="6.247" transform="translate(875.131 383.793)"/>
    </g>
  </g>
</svg>
