<svg xmlns="http://www.w3.org/2000/svg" width="71.571" height="111.04" viewBox="0 0 71.571 111.04">
  <defs>
    <style>
      .cls-1 {
        fill: #91ae06;
      }

      .cls-2 {
        fill: #5f9b31;
      }

      .cls-3 {
        fill: #fbd42f;
      }

      .cls-4 {
        fill: #faa41e;
      }

      .cls-5 {
        fill: #cd7f19;
      }

      .cls-6 {
        fill: #ffefb6;
      }
    </style>
  </defs>
  <g id="组_2455" data-name="组 2455" transform="translate(-174.676 -467.237)">
    <path id="路径_4796" data-name="路径 4796" class="cls-1" d="M190.891,504.632s-9.2-17.549-15.974-16.015c-.512-.1-.831-2.812,5.91-2.045s8.275,1.949,8.275,1.949,1.757,0,.831-1.757-6.582-14.122-9.968-15.016c0,0-.746-1.363,1.278-.873s15.846,5.729,18.849,10.394,3.515-.959,3.387-1.151-4.026-11.373-6.9-12.651c.639-.959,10.863.639,16.23,13.29.4.086,5.272-7.444,9.9-6.869,1.278.384-2.907,3.707-2.971,7.8.288.351,5.463-4.569,9.84-4.728,0,0,1.566-.1,0,2.332s-3.29,5.942-3.546,7.412,1.278-.319,2.364-1.022,10.032-3.515,14.377-.7c.7,1.533-11.31,7.284-11.821,10.287,2.109.767,11.694-1.341,14.633,2.173,1.534,1.6.256.192-2.428,1.406s-12.332,8.306-12.524,9.776-12.993,2.066-12.993,2.066L201.626,507.7Z"/>
    <path id="路径_4797" data-name="路径 4797" class="cls-2" d="M200.284,497.627s-10.607-6.262-17-5.176c.831,1.278,8.243,9.539,7.6,12.181,1.853-.552,20.895,2.132,20.895,2.132l13.8,2.109,5.048-.256s11.373-11.087,15.207-10.336c0-.58-2.428-5.319-20.383-1.549,0,0-1.828-11.122,4.741-18.692.5-1.5-3.016-2.586-13.623,6.807-1.15,1.214-3.77,4.026-3.77,6.773s-8.123-13.1-14.249-14.571C197.6,478.759,202.648,478.649,200.284,497.627Z"/>
    <path id="路径_4798" data-name="路径 4798" class="cls-3" d="M202.648,501.737s-14.568-2.9-20.447,15.592-9.031,45.41,1.96,52.566,36.123,11.587,44.558,5.538,10.99-19.68,11.928-36.038,1.7-25.73-13.8-32.716C214.917,503.441,215.172,502.76,202.648,501.737Z"/>
    <path id="路径_4799" data-name="路径 4799" class="cls-4" d="M191.332,511.568a59.473,59.473,0,0,0-4.26,5.119c-1.991,2.319-.277,4.691,1.632,6.35,2.063,1.792,4.862,4.238,7.771,3,2.135-.909,3.683-2.828,5.016-4.653,1.5-2.058,1.833-3.66-.124-5.624-2.036-2.045-5.681-7.276-9.058-4.978A8.4,8.4,0,0,0,191.332,511.568Z"/>
    <circle id="椭圆_835" data-name="椭圆 835" class="cls-5" cx="2.939" cy="2.939" r="2.939" transform="translate(190.934 515.028)"/>
    <circle id="椭圆_836" data-name="椭圆 836" class="cls-6" cx="1.15" cy="1.15" r="1.15" transform="translate(192.42 516.541)"/>
    <path id="路径_4800" data-name="路径 4800" class="cls-4" d="M207.338,505.307a59.589,59.589,0,0,0-4.259,5.119c-1.992,2.319-.278,4.692,1.631,6.35,2.063,1.793,4.862,4.238,7.771,3,2.135-.909,3.683-2.828,5.016-4.653,1.5-2.058,1.833-3.66-.123-5.624-2.037-2.044-5.682-7.276-9.059-4.977A8.472,8.472,0,0,0,207.338,505.307Z"/>
    <circle id="椭圆_837" data-name="椭圆 837" class="cls-5" cx="2.939" cy="2.939" r="2.939" transform="translate(206.94 508.767)"/>
    <circle id="椭圆_838" data-name="椭圆 838" class="cls-6" cx="1.15" cy="1.15" r="1.15" transform="translate(208.426 510.28)"/>
    <path id="路径_4801" data-name="路径 4801" class="cls-4" d="M224.38,516.005a59.43,59.43,0,0,0-4.259,5.119c-1.992,2.319-.278,4.691,1.631,6.35,2.063,1.792,4.862,4.238,7.771,3,2.135-.909,3.683-2.828,5.016-4.653,1.5-2.058,1.833-3.66-.123-5.624-2.037-2.044-5.682-7.276-9.059-4.977A8.473,8.473,0,0,0,224.38,516.005Z"/>
    <circle id="椭圆_839" data-name="椭圆 839" class="cls-5" cx="2.939" cy="2.939" r="2.939" transform="translate(223.982 519.465)"/>
    <circle id="椭圆_840" data-name="椭圆 840" class="cls-6" cx="1.15" cy="1.15" r="1.15" transform="translate(225.468 520.978)"/>
    <path id="路径_4802" data-name="路径 4802" class="cls-4" d="M224.644,536.131a59.825,59.825,0,0,0-4.259,5.12c-1.991,2.319-.277,4.691,1.632,6.35,2.062,1.792,4.862,4.237,7.771,3,2.134-.909,3.683-2.827,5.015-4.653,1.5-2.057,1.834-3.659-.123-5.623-2.036-2.045-5.681-7.277-9.059-4.978A8.584,8.584,0,0,0,224.644,536.131Z"/>
    <circle id="椭圆_841" data-name="椭圆 841" class="cls-5" cx="2.939" cy="2.939" r="2.939" transform="translate(224.246 539.592)"/>
    <circle id="椭圆_842" data-name="椭圆 842" class="cls-6" cx="1.15" cy="1.15" r="1.15" transform="translate(225.732 541.105)"/>
    <path id="路径_4803" data-name="路径 4803" class="cls-4" d="M222.609,555.906a59.791,59.791,0,0,0-4.26,5.119c-1.991,2.319-.277,4.692,1.632,6.35,2.063,1.793,4.862,4.238,7.771,3,2.135-.909,3.683-2.828,5.016-4.653,1.5-2.058,1.833-3.66-.124-5.624-2.036-2.044-5.681-7.276-9.058-4.977A8.306,8.306,0,0,0,222.609,555.906Z"/>
    <circle id="椭圆_843" data-name="椭圆 843" class="cls-5" cx="2.939" cy="2.939" r="2.939" transform="translate(222.211 559.367)"/>
    <circle id="椭圆_844" data-name="椭圆 844" class="cls-6" cx="1.15" cy="1.15" r="1.15" transform="translate(223.697 560.879)"/>
    <path id="路径_4804" data-name="路径 4804" class="cls-4" d="M203.544,562.647a56.351,56.351,0,0,0-4.034,4.849c-1.886,2.2-.263,4.443,1.545,6.013,1.954,1.7,4.605,4.014,7.36,2.841,2.022-.861,3.488-2.679,4.75-4.407,1.423-1.949,1.737-3.467-.116-5.327-1.929-1.936-5.381-6.891-8.58-4.714A8.094,8.094,0,0,0,203.544,562.647Z"/>
    <circle id="椭圆_845" data-name="椭圆 845" class="cls-5" cx="2.939" cy="2.939" r="2.939" transform="translate(203.418 566.18)"/>
    <circle id="椭圆_846" data-name="椭圆 846" class="cls-6" cx="1.15" cy="1.15" r="1.15" transform="translate(204.904 567.692)"/>
    <path id="路径_4805" data-name="路径 4805" class="cls-4" d="M204.8,543.613a59.825,59.825,0,0,0-4.259,5.12c-1.991,2.319-.277,4.691,1.632,6.35,2.062,1.792,4.862,4.237,7.771,3,2.134-.909,3.683-2.828,5.015-4.654,1.5-2.057,1.834-3.659-.123-5.623-2.036-2.045-5.681-7.277-9.058-4.978A8.5,8.5,0,0,0,204.8,543.613Z"/>
    <circle id="椭圆_847" data-name="椭圆 847" class="cls-5" cx="2.939" cy="2.939" r="2.939" transform="translate(204.408 547.074)"/>
    <circle id="椭圆_848" data-name="椭圆 848" class="cls-6" cx="1.15" cy="1.15" r="1.15" transform="translate(205.893 548.587)"/>
    <path id="路径_4806" data-name="路径 4806" class="cls-4" d="M206.756,524.087a59.492,59.492,0,0,0-4.26,5.119c-1.991,2.319-.277,4.691,1.632,6.35,2.063,1.792,4.862,4.238,7.771,3,2.134-.909,3.683-2.828,5.015-4.653,1.5-2.058,1.834-3.66-.123-5.624-2.036-2.045-5.681-7.276-9.058-4.978A8.424,8.424,0,0,0,206.756,524.087Z"/>
    <circle id="椭圆_849" data-name="椭圆 849" class="cls-5" cx="2.939" cy="2.939" r="2.939" transform="translate(206.358 527.547)"/>
    <circle id="椭圆_850" data-name="椭圆 850" class="cls-6" cx="1.15" cy="1.15" r="1.15" transform="translate(207.844 529.06)"/>
    <path id="路径_4807" data-name="路径 4807" class="cls-4" d="M186.9,529.967a59.661,59.661,0,0,0-4.259,5.119c-1.991,2.319-.277,4.691,1.632,6.35,2.062,1.792,4.862,4.238,7.771,3,2.134-.909,3.683-2.828,5.015-4.653,1.5-2.058,1.834-3.66-.123-5.624-2.036-2.045-5.681-7.276-9.059-4.978A8.489,8.489,0,0,0,186.9,529.967Z"/>
    <circle id="椭圆_851" data-name="椭圆 851" class="cls-5" cx="2.939" cy="2.939" r="2.939" transform="translate(186.505 533.427)"/>
    <circle id="椭圆_852" data-name="椭圆 852" class="cls-6" cx="1.15" cy="1.15" r="1.15" transform="translate(187.991 534.94)"/>
    <path id="路径_4808" data-name="路径 4808" class="cls-4" d="M186.9,549.477a59.962,59.962,0,0,0-4.259,5.119c-1.991,2.319-.277,4.692,1.632,6.35,2.062,1.793,4.862,4.238,7.771,3,2.134-.909,3.683-2.828,5.015-4.653,1.5-2.058,1.834-3.66-.123-5.624-2.036-2.044-5.681-7.276-9.059-4.977A8.479,8.479,0,0,0,186.9,549.477Z"/>
    <circle id="椭圆_853" data-name="椭圆 853" class="cls-5" cx="2.939" cy="2.939" r="2.939" transform="translate(186.505 552.937)"/>
    <circle id="椭圆_854" data-name="椭圆 854" class="cls-6" cx="1.15" cy="1.15" r="1.15" transform="translate(187.991 554.45)"/>
  </g>
</svg>
