<svg xmlns="http://www.w3.org/2000/svg" width="133.881" height="161.001" viewBox="0 0 133.881 161.001">
  <defs>
    <style>
      .cls-1, .cls-10, .cls-2 {
        fill: #fff;
      }

      .cls-1, .cls-2 {
        stroke-linecap: round;
        stroke-linejoin: round;
      }

      .cls-2 {
        stroke: #fff;
        stroke-width: 10px;
      }

      .cls-3 {
        fill: #fda100;
      }

      .cls-4 {
        fill: #ffd404;
      }

      .cls-5 {
        fill: #fec000;
      }

      .cls-6 {
        fill: #ffd402;
      }

      .cls-7 {
        fill: #fec001;
      }

      .cls-8 {
        fill: #3d4949;
      }

      .cls-10, .cls-9 {
        stroke: none;
      }
    </style>
  </defs>
  <g id="组_2747" data-name="组 2747" transform="translate(-625.918 -798.271)">
    <g id="组_2744" data-name="组 2744">
      <g id="路径_6203" data-name="路径 6203" class="cls-1">
        <path class="cls-9" d="M 745.0770263671875 954.928466796875 L 737.1611328125 954.2581787109375 L 732.0591430664063 953.826171875 L 731.1737670898438 953.751220703125 L 730.3684692382813 953.3757934570313 L 722.0133666992188 949.48095703125 C 716.2542724609375 946.8696899414063 709.9937133789063 943.8777465820313 709.9310913085938 943.8478393554688 L 708.6854248046875 943.252197265625 L 707.9219360351563 942.1017456054688 C 707.5206909179688 941.4971313476563 705.5643310546875 938.3098754882813 706.0693969726563 934.3931274414063 C 706.1240844726563 933.8668212890625 706.2235107421875 933.384765625 706.372314453125 932.9234008789063 L 706.385986328125 932.8809204101563 C 706.4100952148438 932.7936401367188 706.4415893554688 932.6866455078125 706.4811401367188 932.5681762695313 C 706.7998657226563 931.6121215820313 707.1993408203125 930.6763305664063 707.60693359375 929.828125 C 705.3178100585938 928.6050415039063 703.3261108398438 927.1318359375 703.0404663085938 926.9178466796875 L 701.615234375 925.8502807617188 L 701.1856689453125 924.1221923828125 C 701.1583251953125 924.0120239257813 701.0286254882813 923.4756469726563 700.9044799804688 922.7161865234375 C 699.826171875 918.5487060546875 700.9075317382813 915.923095703125 702.10205078125 914.4028930664063 C 701.4107666015625 914.1190795898438 700.7216186523438 913.8014526367188 700.0478515625 913.4327392578125 C 699.4999389648438 913.1619262695313 698.74609375 912.7192993164063 697.9486083984375 912.0403442382813 C 695.7401733398438 910.2568969726563 694.398681640625 907.9000854492188 694.0364379882813 905.1818237304688 C 693.4239501953125 903.4168090820313 692.6919555664063 901.2540283203125 692.1473388671875 899.6354370117188 C 688.7344970703125 898.445556640625 685.4911499023438 896.8197631835938 682.4755859375 894.7847290039063 C 678.7335815429688 892.259521484375 675.4346923828125 889.1680297851563 672.670654296875 885.5960693359375 C 669.8756713867188 881.9840698242188 667.7005004882813 877.9740600585938 666.2056884765625 873.677490234375 C 664.6591796875 869.232177734375 663.875 864.5718994140625 663.875 859.8259887695313 C 663.875 859.2363891601563 663.8905639648438 858.6212768554688 663.9238891601563 857.8908081054688 C 663.9302368164063 857.7442626953125 663.9381103515625 857.6105346679688 663.945068359375 857.4922485351563 C 663.9479370117188 857.4439697265625 663.9507446289063 857.3956909179688 663.9534301757813 857.3472900390625 L 663.953857421875 857.339111328125 L 663.954345703125 857.3308715820313 C 663.9820556640625 856.8522338867188 664.01953125 856.3590087890625 664.065673828125 855.864990234375 C 664.0692138671875 855.8269653320313 664.0728759765625 855.7847900390625 664.0765991210938 855.74267578125 C 664.0868530273438 855.6266479492188 664.0984497070313 855.4952392578125 664.1139526367188 855.3497924804688 C 664.1808471679688 854.714111328125 664.2604370117188 854.0878295898438 664.3505859375 853.4884033203125 L 664.351318359375 853.4835205078125 L 664.35205078125 853.4786376953125 C 664.37060546875 853.35693359375 664.3892822265625 853.2516479492188 664.4028930664063 853.1747436523438 C 664.4063110351563 853.155517578125 664.4097900390625 853.1362915039063 664.4130249023438 853.1171264648438 C 664.4923095703125 852.6193237304688 664.5818481445313 852.116455078125 664.6792602539063 851.6219482421875 L 664.6800537109375 851.6177368164063 L 664.680908203125 851.6135864257813 C 664.7237548828125 851.3978271484375 664.7644653320313 851.2011108398438 664.8053588867188 851.0126342773438 C 664.8995971679688 850.5695190429688 665.0048828125 850.1124267578125 665.118408203125 849.65380859375 C 665.1294555664063 849.6094360351563 665.138916015625 849.5697021484375 665.1484375 849.530029296875 C 665.172607421875 849.4290771484375 665.2025756835938 849.3040771484375 665.2390747070313 849.1653442382813 C 665.3845825195313 848.60498046875 665.5477294921875 848.030517578125 665.7240600585938 847.4573974609375 C 665.7769165039063 847.2837524414063 665.8275756835938 847.1298828125 665.872314453125 846.9939575195313 L 665.9100952148438 846.87890625 C 666.0357055664063 846.4879760742188 666.169677734375 846.0916748046875 666.3082275390625 845.70068359375 L 666.3092651367188 845.69775390625 L 666.310302734375 845.69482421875 C 666.4003295898438 845.4418334960938 666.4757080078125 845.2343139648438 666.5475463867188 845.0418701171875 L 666.5497436523438 845.035888671875 L 666.552001953125 845.0299072265625 C 666.6924438476563 844.6566162109375 666.8478393554688 844.2623291015625 667.0271606445313 843.8245239257813 L 667.0767822265625 843.7035522460938 C 667.1396484375 843.5497436523438 667.2109375 843.37548828125 667.2892456054688 843.1929931640625 L 667.29052734375 843.1900634765625 L 667.2918090820313 843.1871337890625 C 667.4881591796875 842.7311401367188 667.69873046875 842.2658081054688 667.9176025390625 841.8038940429688 C 668.0372924804688 841.5514526367188 668.1569213867188 841.3109130859375 668.2694702148438 841.0857543945313 C 668.4288330078125 840.7646484375 668.5780029296875 840.473388671875 668.7252807617188 840.1957397460938 C 668.8509521484375 839.9564208984375 668.9810180664063 839.7089233398438 669.1279907226563 839.4439697265625 C 669.3065185546875 839.1220092773438 669.4815673828125 838.8224487304688 669.6508178710938 838.5327758789063 L 669.6541137695313 838.5272216796875 L 669.6577758789063 838.5208740234375 L 669.6614990234375 838.5145874023438 C 669.9007568359375 838.1079711914063 670.146484375 837.70556640625 670.3920288085938 837.3182983398438 C 670.533447265625 837.09423828125 670.6797485351563 836.8624877929688 670.8436889648438 836.6146240234375 C 671.0048217773438 836.3705444335938 671.1841430664063 836.106689453125 671.4050903320313 835.7889404296875 C 671.549072265625 835.5806274414063 671.6904907226563 835.38427734375 671.8154296875 835.2107543945313 C 672.5280151367188 834.2213745117188 673.2984619140625 833.2455444335938 674.1067504882813 832.308349609375 L 674.1752319335938 832.2286987304688 C 674.2550048828125 832.1358032226563 674.334716796875 832.0430908203125 674.4156494140625 831.9509887695313 L 674.420166015625 831.9458618164063 L 674.4247436523438 831.9407348632813 C 674.709716796875 831.6181030273438 674.9771728515625 831.3238525390625 675.2423095703125 831.0411987304688 C 675.3255004882813 830.9523315429688 675.4097290039063 830.864501953125 675.4939575195313 830.7767944335938 C 676.4110717773438 829.8120727539063 677.3889770507813 828.8770751953125 678.4005737304688 827.99755859375 L 678.4099731445313 827.9894409179688 L 678.41943359375 827.9812622070313 L 678.481689453125 827.9274291992188 C 678.5199584960938 827.8942260742188 678.5580444335938 827.8612670898438 678.5961303710938 827.82861328125 C 680.04833984375 826.5819702148438 681.603759765625 825.4210205078125 683.2161865234375 824.380615234375 L 683.2243041992188 824.3753662109375 L 683.232421875 824.3701782226563 L 683.2964477539063 824.3292236328125 C 690.0904541015625 819.9682006835938 697.9542846679688 817.6630249023438 706.0380249023438 817.6630249023438 C 711.7279052734375 817.6630249023438 717.2501220703125 818.7784423828125 722.451416015625 820.9783935546875 C 727.4727783203125 823.1021728515625 731.9813842773438 826.1415405273438 735.8518676757813 830.0120849609375 C 739.722412109375 833.8826293945313 742.7618408203125 838.3912353515625 744.8856201171875 843.41259765625 C 747.0855712890625 848.6138305664063 748.2009887695313 854.1361083984375 748.2009887695313 859.8259887695313 C 748.2009887695313 864.6173095703125 747.4002685546875 869.3211669921875 745.8211669921875 873.8068237304688 C 744.610595703125 877.2454833984375 742.9638671875 880.4993896484375 740.9119262695313 883.51220703125 L 753.7549438476563 918.9413452148438 C 754.2117309570313 919.7437133789063 754.6347045898438 920.8617553710938 754.7703857421875 922.3561401367188 C 754.9894409179688 924.768798828125 754.3876342773438 927.6553955078125 752.981689453125 930.9357299804688 C 750.544677734375 936.6239013671875 744.5546875 948.6693115234375 743.5020751953125 950.77978515625 L 745.0770263671875 954.928466796875 Z M 683.0770263671875 844.4810180664063 C 679.1620483398438 844.4810180664063 675.9769897460938 847.6656494140625 675.9769897460938 851.5800170898438 C 675.9769897460938 855.4949340820313 679.1620483398438 858.6799926757813 683.0770263671875 858.6799926757813 C 686.9913940429688 858.6799926757813 690.176025390625 855.4949340820313 690.176025390625 851.5800170898438 C 690.176025390625 847.6656494140625 686.9913940429688 844.4810180664063 683.0770263671875 844.4810180664063 Z"/>
        <path class="cls-10" d="M 737.5830078125 949.2760009765625 L 737.4190063476563 948.843994140625 L 738.8800048828125 948.843994140625 C 738.8800048828125 948.843994140625 745.7940063476563 935.0159912109375 748.385986328125 928.9660034179688 C 750.97900390625 922.916015625 749.2509765625 921.18798828125 749.2509765625 921.18798828125 L 735.3060302734375 882.718994140625 L 735.2999877929688 882.7210083007813 C 740.2449951171875 876.4099731445313 743.2009887695313 868.4650268554688 743.2009887695313 859.8259887695313 C 743.2009887695313 839.301025390625 726.56298828125 822.6630249023438 706.0380249023438 822.6630249023438 C 698.6530151367188 822.6630249023438 691.7760009765625 824.8259887695313 685.9910278320313 828.541015625 L 685.927001953125 828.5819702148438 C 684.4979858398438 829.5040283203125 683.135986328125 830.52099609375 681.8499755859375 831.625 C 681.7940063476563 831.6729736328125 681.7379760742188 831.7219848632813 681.6810302734375 831.77099609375 C 680.7849731445313 832.5499877929688 679.927001953125 833.3699951171875 679.1099853515625 834.22998046875 C 679.0360107421875 834.3070068359375 678.9619750976563 834.3839721679688 678.8889770507813 834.4619750976563 C 678.64599609375 834.7210083007813 678.406982421875 834.9849853515625 678.1719970703125 835.2509765625 C 678.0780029296875 835.3579711914063 677.9860229492188 835.4660034179688 677.8930053710938 835.573974609375 C 677.1840209960938 836.39599609375 676.510009765625 837.2479858398438 675.8740234375 838.1309814453125 C 675.7529907226563 838.2990112304688 675.6320190429688 838.4669799804688 675.5139770507813 838.6380004882813 C 675.344970703125 838.8809814453125 675.177001953125 839.1259765625 675.0139770507813 839.3729858398438 C 674.8790283203125 839.5770263671875 674.7490234375 839.7830200195313 674.6190185546875 839.989013671875 C 674.39697265625 840.3389892578125 674.1810302734375 840.6929931640625 673.9710083007813 841.0499877929688 C 673.81201171875 841.322021484375 673.6530151367188 841.593994140625 673.5 841.8699951171875 C 673.3790283203125 842.0880126953125 673.2630004882813 842.3090209960938 673.14697265625 842.530029296875 C 673.010009765625 842.7880249023438 672.8770141601563 843.0490112304688 672.7470092773438 843.3109741210938 C 672.6420288085938 843.52099609375 672.5369873046875 843.7319946289063 672.4359741210938 843.9450073242188 C 672.2449951171875 844.3480224609375 672.0609741210938 844.7540283203125 671.8839721679688 845.1649780273438 C 671.8049926757813 845.3489990234375 671.72998046875 845.5349731445313 671.6539916992188 845.719970703125 C 671.5089721679688 846.073974609375 671.3670043945313 846.4310302734375 671.2319946289063 846.7899780273438 C 671.1599731445313 846.9829711914063 671.0900268554688 847.177001953125 671.02099609375 847.3709716796875 C 670.8980102539063 847.718017578125 670.780029296875 848.0670166015625 670.6669921875 848.4190063476563 C 670.6129760742188 848.5850219726563 670.5570068359375 848.75 670.5059814453125 848.9180297851563 C 670.3519897460938 849.4180297851563 670.2080078125 849.9229736328125 670.0759887695313 850.4320068359375 C 670.0390014648438 850.572021484375 670.0070190429688 850.7139892578125 669.9719848632813 850.85498046875 C 669.8729858398438 851.2550048828125 669.780029296875 851.656982421875 669.6939697265625 852.06201171875 C 669.656005859375 852.2369995117188 669.6199951171875 852.4119873046875 669.5850219726563 852.5880126953125 C 669.4979858398438 853.030029296875 669.4190063476563 853.4739990234375 669.3480224609375 853.9210205078125 C 669.3309936523438 854.0239868164063 669.3109741210938 854.1270141601563 669.2949829101563 854.2319946289063 C 669.2130126953125 854.7769775390625 669.1439819335938 855.3259887695313 669.0859985351563 855.8779907226563 C 669.0700073242188 856.0280151367188 669.0579833984375 856.1790161132813 669.0440063476563 856.3300170898438 C 669.0040283203125 856.7579956054688 668.9710083007813 857.18798828125 668.9459838867188 857.6199951171875 C 668.93701171875 857.7839965820313 668.926025390625 857.947021484375 668.9190063476563 858.1119995117188 C 668.8930053710938 858.6799926757813 668.875 859.2509765625 668.875 859.8259887695313 C 668.875 876.9349975585938 680.4409790039063 891.333984375 696.177001953125 895.656005859375 L 696.0989990234375 895.6920166015625 C 696.0989990234375 895.6920166015625 697.8280029296875 900.8779907226563 698.948974609375 904.0850219726563 L 698.9500122070313 904.0850219726563 C 699.0670166015625 905.93798828125 699.9229736328125 907.2260131835938 701.1420288085938 908.1920166015625 C 701.635009765625 908.6209716796875 702.0850219726563 908.8690185546875 702.3460083007813 908.989990234375 C 703.6060180664063 909.6959838867188 705.0659790039063 910.2020263671875 706.4719848632813 910.6690063476563 C 709.3729858398438 911.6329956054688 708.6649780273438 913.3060302734375 708.3599853515625 913.822021484375 L 708.2570190429688 913.9819946289063 C 707.780029296875 914.718994140625 706.9439697265625 916.0419921875 706.3270263671875 917.1799926757813 L 706.322021484375 917.1890258789063 C 705.1069946289063 918.2360229492188 705.426025390625 920.3289794921875 705.802978515625 921.6790161132813 C 705.9110107421875 922.405029296875 706.0380249023438 922.916015625 706.0380249023438 922.916015625 C 706.0380249023438 922.916015625 709.2100219726563 925.2919921875 711.7559814453125 926.2520141601563 L 711.781982421875 926.2639770507813 C 714.5009765625 927.4500122070313 713.8159790039063 928.9660034179688 713.8159790039063 928.9660034179688 C 713.8159790039063 928.9660034179688 712.0880126953125 931.5590209960938 711.2239990234375 934.1510009765625 C 711.2009887695313 934.219970703125 711.18701171875 934.2880249023438 711.1680297851563 934.3560180664063 C 711.156005859375 934.3889770507813 711.1420288085938 934.427001953125 711.1309814453125 934.4580078125 C 711.0809936523438 934.6129760742188 711.052978515625 934.7869873046875 711.0369873046875 934.968994140625 C 710.7109985351563 937.2620239257813 712.0880126953125 939.3369750976563 712.0880126953125 939.3369750976563 C 712.0880126953125 939.3369750976563 718.3159790039063 942.3150024414063 724.1019897460938 944.93798828125 L 732.4810180664063 948.843994140625 L 737.5830078125 949.2760009765625 M 683.0770263671875 839.4810180664063 C 689.7589721679688 839.4810180664063 695.176025390625 844.8980102539063 695.176025390625 851.5800170898438 C 695.176025390625 858.2630004882813 689.7589721679688 863.6799926757813 683.0770263671875 863.6799926757813 C 676.39501953125 863.6799926757813 670.9769897460938 858.2630004882813 670.9769897460938 851.5800170898438 C 670.9769897460938 844.8980102539063 676.39501953125 839.4810180664063 683.0770263671875 839.4810180664063 M 737.4961547851563 959.2723388671875 C 737.2449340820313 959.2723388671875 736.9927978515625 959.2618408203125 736.7393188476563 959.2403564453125 L 731.6373291015625 958.808349609375 C 730.4660034179688 958.7091674804688 729.3212890625 958.4042358398438 728.2559204101563 957.9075927734375 L 719.8768920898438 954.0015869140625 C 714.0980224609375 951.3824462890625 707.7741088867188 948.358642578125 707.7741088867188 948.358642578125 C 706.1437377929688 947.5790405273438 704.755126953125 946.3722534179688 703.755859375 944.866455078125 C 702.9392700195313 943.6360473632813 700.337158203125 939.1843872070313 701.136474609375 933.5615844726563 C 701.1946411132813 933.1525268554688 701.3275756835938 932.4786987304688 701.462890625 931.9326171875 C 700.771240234375 931.4586791992188 700.2634887695313 931.0848999023438 700.0429077148438 930.919677734375 C 698.2218017578125 929.5555419921875 696.9003295898438 927.5321655273438 696.3333740234375 925.3285522460938 C 696.3333740234375 925.3285522460938 696.171630859375 924.6997680664063 696.00732421875 923.7454833984375 C 695.3194580078125 920.96533203125 695.3378295898438 918.6113891601563 695.7321166992188 916.654541015625 C 695.3526611328125 916.377685546875 694.956298828125 916.0653076171875 694.57763671875 915.7357788085938 C 691.7202758789063 913.4833984375 689.78369140625 910.1995239257813 689.1560668945313 906.3661499023438 C 688.837890625 905.4451904296875 688.4945678710938 904.4395141601563 688.1661376953125 903.4717407226563 C 670.6713256835938 896.3033447265625 658.875 879.0873413085938 658.875 859.8259887695313 L 658.9295043945313 857.6547241210938 L 659.0873413085938 855.4000854492188 L 659.4061889648438 852.7445678710938 L 659.7734985351563 850.6557006835938 L 660.2648315429688 848.45263671875 L 660.9488525390625 845.9749755859375 L 661.5955200195313 844.0302124023438 L 662.4004516601563 841.928955078125 L 663.399169921875 839.6629028320313 L 664.3145751953125 837.8408813476563 L 665.3362426757813 836.0060424804688 L 666.1752319335938 834.631591796875 L 667.3045043945313 832.9279174804688 C 668.5663452148438 831.1665649414063 669.4210815429688 830.0855712890625 670.3203735351563 829.0428466796875 L 671.5955200195313 827.6205444335938 C 672.896240234375 826.2517700195313 673.9840087890625 825.2118530273438 675.1202392578125 824.22412109375 C 676.9667358398438 822.6376953125 678.6934814453125 821.3483276367188 680.5053100585938 820.1792602539063 C 688.1907348632813 815.243896484375 696.991455078125 812.6630249023438 706.0380249023438 812.6630249023438 C 732.0437622070313 812.6630249023438 753.2009887695313 833.8202514648438 753.2009887695313 859.8259887695313 C 753.2009887695313 868.5228271484375 750.8829956054688 876.82666015625 746.452880859375 884.1424560546875 L 758.3383178710938 916.9141845703125 C 759.9093627929688 919.9713134765625 760.9120483398438 925.1249389648438 757.5773315429688 932.9054565429688 C 754.9166870117188 939.11572265625 747.8242797851563 953.316162109375 747.8242797851563 953.316162109375 C 746.4193725585938 956.1290893554688 743.7968139648438 958.079833984375 740.7796630859375 958.6624755859375 C 739.738037109375 959.05712890625 738.6309204101563 959.2723388671875 737.4961547851563 959.2723388671875 Z M 683.0770263671875 849.4810180664063 C 681.9190673828125 849.4810180664063 680.9769897460938 850.422607421875 680.9769897460938 851.5800170898438 C 680.9769897460938 852.7379150390625 681.9190673828125 853.6799926757813 683.0770263671875 853.6799926757813 C 684.2344360351563 853.6799926757813 685.176025390625 852.7379150390625 685.176025390625 851.5800170898438 C 685.176025390625 850.422607421875 684.2344360351563 849.4810180664063 683.0770263671875 849.4810180664063 Z"/>
      </g>
      <g id="组_2743" data-name="组 2743">
        <g id="路径_6204" data-name="路径 6204" class="cls-1">
          <path class="cls-9" d="M 652.02197265625 952.5120239257813 L 646.8369750976563 952.5120239257813 L 643.746826171875 952.5120239257813 L 642.3648681640625 949.7481079101563 C 642.079833984375 949.1781005859375 635.3550415039063 935.7183837890625 632.7343139648438 929.6036376953125 C 631.3283081054688 926.3236694335938 630.7266235351563 923.4368286132813 630.9462280273438 921.0235595703125 C 631.0821533203125 919.5294189453125 631.50537109375 918.4113159179688 631.962158203125 917.6090698242188 L 645.7103271484375 879.6839599609375 L 647.1976928710938 875.5810546875 L 651.4639282226563 876.5001220703125 L 681.5960083007813 882.9911499023438 L 682.67626953125 883.223876953125 L 683.5578002929688 883.89013671875 L 692.21875 890.4360961914063 L 695.0316772460938 892.5621337890625 L 693.9735107421875 895.9254760742188 C 693.9564819335938 895.9795532226563 692.2608642578125 901.3779296875 691.44384765625 904.6472778320313 C 690.8369140625 907.072998046875 689.5751953125 909.161376953125 687.7948608398438 910.6880493164063 C 686.7421875 911.5906982421875 685.752685546875 912.0896606445313 685.1419067382813 912.3412475585938 C 684.8480834960938 912.4818115234375 684.3023681640625 912.734619140625 683.5543212890625 913.0466918945313 C 683.7689208984375 913.4288330078125 683.97216796875 913.8070678710938 684.150146484375 914.1629638671875 C 684.94921875 915.7601318359375 685.2200317382813 917.7150268554688 684.9775390625 920.1383056640625 C 684.840087890625 921.5115966796875 684.5792846679688 922.5953979492188 684.5284423828125 922.7987670898438 L 684.0975952148438 924.5206298828125 L 682.6774291992188 925.58544921875 C 682.1980590820313 925.9448852539063 680.30224609375 927.333251953125 678.1118774414063 928.500732421875 C 678.51904296875 929.3485107421875 678.918212890625 930.283935546875 679.2366333007813 931.239501953125 C 679.9344482421875 933.3338012695313 679.8970947265625 935.6597290039063 679.1284790039063 937.9658203125 C 678.6314086914063 939.4573364257813 677.977783203125 940.4957275390625 677.789306640625 940.7785034179688 L 677.0266723632813 941.9224853515625 L 675.7863159179688 942.5156860351563 C 675.7362670898438 942.5396118164063 670.72021484375 944.9374389648438 665.55712890625 947.3038330078125 C 662.5018310546875 948.7042236328125 659.9846801757813 949.8237915039063 658.07568359375 950.6314086914063 C 654.2481689453125 952.250732421875 653.1563110351563 952.5120239257813 652.02197265625 952.5120239257813 Z"/>
          <path class="cls-10" d="M 650.4110107421875 881.3880004882813 L 636.4660034179688 919.8560180664063 C 636.4660034179688 919.8560180664063 634.7369995117188 921.5850219726563 637.3300170898438 927.6339721679688 C 639.9229736328125 933.6840209960938 646.8369750976563 947.5120239257813 646.8369750976563 947.5120239257813 L 652.02197265625 947.5120239257813 C 653.7509765625 947.5120239257813 673.6290283203125 938.0050048828125 673.6290283203125 938.0050048828125 C 673.6290283203125 938.0050048828125 675.3569946289063 935.4130249023438 674.4929809570313 932.8200073242188 C 673.6290283203125 930.2269897460938 671.9000244140625 927.6339721679688 671.9000244140625 927.6339721679688 C 671.9000244140625 927.6339721679688 671.0360107421875 925.906005859375 673.6290283203125 925.0419921875 C 676.2210083007813 924.177001953125 679.677978515625 921.5850219726563 679.677978515625 921.5850219726563 C 679.677978515625 921.5850219726563 680.5430297851563 918.1279907226563 679.677978515625 916.3989868164063 C 678.8140258789063 914.6710205078125 677.0859985351563 912.0780029296875 677.0859985351563 912.0780029296875 C 677.0859985351563 912.0780029296875 676.2210083007813 910.3489990234375 678.8140258789063 909.4849853515625 C 681.406982421875 908.6209716796875 683.135986328125 907.7570190429688 683.135986328125 907.7570190429688 C 683.135986328125 907.7570190429688 685.72802734375 906.8920288085938 686.593017578125 903.4349975585938 C 687.4569702148438 899.97802734375 689.2039794921875 894.4249877929688 689.2039794921875 894.4249877929688 L 680.5430297851563 887.8790283203125 L 650.4110107421875 881.3880004882813 M 650.4056396484375 871.3866577148438 C 651.103515625 871.3866577148438 651.8103637695313 871.4600219726563 652.5169067382813 871.6122436523438 L 682.64892578125 878.103271484375 C 684.0720825195313 878.4098510742188 685.4111938476563 879.0234985351563 686.5726318359375 879.9013061523438 L 695.2335815429688 886.447265625 C 698.6066284179688 888.99658203125 700.0116577148438 893.3922729492188 698.7431640625 897.4255981445313 C 698.7260131835938 897.480224609375 697.0992431640625 902.64013671875 696.2946166992188 905.8595581054688 C 695.1571655273438 910.405517578125 692.5492553710938 913.5588989257813 689.7919921875 915.4697265625 C 690.414306640625 918.8073120117188 689.8643798828125 922.0723266601563 689.37890625 924.012451171875 C 688.8214721679688 926.240234375 687.5142211914063 928.208251953125 685.6768188476563 929.5858764648438 C 685.382568359375 929.8065185546875 684.8919067382813 930.165771484375 684.2584228515625 930.5987548828125 C 685.5599975585938 935.6116333007813 683.9700317382813 940.5211791992188 681.9495849609375 943.5519409179688 C 680.9512329101563 945.0494384765625 679.5672607421875 946.2498168945313 677.943603515625 947.0263671875 C 656.019287109375 957.5120239257813 654.3425903320313 957.5120239257813 652.02197265625 957.5120239257813 L 646.8369750976563 957.5120239257813 C 643.0476684570313 957.5120239257813 639.5858154296875 955.3741455078125 637.8927001953125 951.984130859375 C 637.8927001953125 951.984130859375 630.8006591796875 937.7845458984375 628.1386108398438 931.5732421875 C 624.803466796875 923.7930908203125 625.80712890625 918.638916015625 627.3787231445313 915.58154296875 L 641.0097045898438 877.9799194335938 C 642.467529296875 873.9583129882813 646.275146484375 871.3866577148438 650.4056396484375 871.3866577148438 Z"/>
        </g>
        <path id="路径_6205" data-name="路径 6205" class="cls-2" d="M677.46,912.65s-1.674-2.163,1.785-3.312,7.265-2.513,7.522-6.584c1.122-3.208,2.85-8.393,2.85-8.393l-17.938-8.392-23.546,61.975,5.1-.432,20.393-9.507s1.481-3.275.956-4.879a51.212,51.212,0,0,0-2.685-5.492s-.684-1.515,2.035-2.7a32.508,32.508,0,0,0,5.552-3.331s1.785-4.125-.092-5.744"/>
        <g id="路径_6206" data-name="路径 6206" class="cls-1">
          <path class="cls-9" d="M 679.677978515625 900.656982421875 C 673.9883422851563 900.656982421875 668.4662475585938 899.54150390625 663.2650756835938 897.3416137695313 C 658.2438354492188 895.2177734375 653.7354125976563 892.1784057617188 649.8649291992188 888.307861328125 C 645.9944458007813 884.4373168945313 642.9551391601563 879.9287719726563 640.831298828125 874.9074096679688 C 638.6314086914063 869.7061157226563 637.5159912109375 864.183837890625 637.5159912109375 858.4940185546875 C 637.5159912109375 852.8043823242188 638.6314086914063 847.2822265625 640.8313598632813 842.0809936523438 C 642.9551391601563 837.0596923828125 645.9944458007813 832.5510864257813 649.8648681640625 828.6805419921875 C 653.7353515625 824.8098754882813 658.2438354492188 821.7704467773438 663.2650146484375 819.6465454101563 C 668.4662475585938 817.446533203125 673.9883422851563 816.3309936523438 679.677978515625 816.3309936523438 C 685.3678588867188 816.3309936523438 690.89013671875 817.4464721679688 696.0914916992188 819.646484375 C 701.1128540039063 821.7703857421875 705.6213989257813 824.8098754882813 709.491943359375 828.6804809570313 C 713.3624267578125 832.5510864257813 716.40185546875 837.0596313476563 718.525634765625 842.0809936523438 C 720.7255859375 847.2822265625 721.8410034179688 852.8043823242188 721.8410034179688 858.4940185546875 C 721.8410034179688 864.1838989257813 720.7255859375 869.7061767578125 718.525634765625 874.9074096679688 C 716.40185546875 879.9287719726563 713.3624267578125 884.4373779296875 709.4918823242188 888.3079223632813 C 705.621337890625 892.1784057617188 701.11279296875 895.2178344726563 696.0914306640625 897.3416137695313 C 690.89013671875 899.5415649414063 685.3678588867188 900.656982421875 679.677978515625 900.656982421875 Z M 683.0770263671875 844.4810180664063 C 679.1620483398438 844.4810180664063 675.9769897460938 847.6655883789063 675.9769897460938 851.5800170898438 C 675.9769897460938 855.4949340820313 679.1620483398438 858.6799926757813 683.0770263671875 858.6799926757813 C 686.9913940429688 858.6799926757813 690.176025390625 855.4949340820313 690.176025390625 851.5800170898438 C 690.176025390625 847.6655883789063 686.9913940429688 844.4810180664063 683.0770263671875 844.4810180664063 Z"/>
          <path class="cls-10" d="M 679.677978515625 821.3309936523438 C 659.1539916992188 821.3309936523438 642.5159912109375 837.969970703125 642.5159912109375 858.4940185546875 C 642.5159912109375 879.0189819335938 659.1539916992188 895.656982421875 679.677978515625 895.656982421875 C 700.2030029296875 895.656982421875 716.8410034179688 879.0189819335938 716.8410034179688 858.4940185546875 C 716.8410034179688 837.969970703125 700.2030029296875 821.3309936523438 679.677978515625 821.3309936523438 M 683.0770263671875 863.6799926757813 C 676.3939819335938 863.6799926757813 670.9769897460938 858.2630004882813 670.9769897460938 851.5800170898438 C 670.9769897460938 844.8980102539063 676.3939819335938 839.4810180664063 683.0770263671875 839.4810180664063 C 689.7589721679688 839.4810180664063 695.176025390625 844.8980102539063 695.176025390625 851.5800170898438 C 695.176025390625 858.2630004882813 689.7589721679688 863.6799926757813 683.0770263671875 863.6799926757813 M 679.677978515625 811.3309936523438 C 705.6837768554688 811.3309936523438 726.8410034179688 832.4882202148438 726.8410034179688 858.4940185546875 C 726.8410034179688 884.499755859375 705.6837768554688 905.656982421875 679.677978515625 905.656982421875 C 653.6727905273438 905.656982421875 632.5159912109375 884.499755859375 632.5159912109375 858.4940185546875 C 632.5159912109375 832.4882202148438 653.6727905273438 811.3309936523438 679.677978515625 811.3309936523438 Z M 683.0770263671875 853.6799926757813 C 684.2344360351563 853.6799926757813 685.176025390625 852.7379760742188 685.176025390625 851.5800170898438 C 685.176025390625 850.422607421875 684.2344360351563 849.4810180664063 683.0770263671875 849.4810180664063 C 681.9190673828125 849.4810180664063 680.9769897460938 850.422607421875 680.9769897460938 851.5800170898438 C 680.9769897460938 852.7379760742188 681.9190673828125 853.6799926757813 683.0770263671875 853.6799926757813 Z"/>
        </g>
        <g id="路径_6207" data-name="路径 6207" class="cls-1">
          <path class="cls-9" d="M 679.677978515625 900.656982421875 C 675.324951171875 900.656982421875 671.0205078125 899.9896850585938 666.8840942382813 898.6736450195313 L 661.8199462890625 897.0624389648438 L 663.7365112304688 892.1057739257813 L 675.5664672851563 861.5108032226563 L 677.154052734375 857.4049682617188 L 681.4278564453125 858.4596557617188 C 682.0287475585938 858.60791015625 682.5874633789063 858.6799926757813 683.135986328125 858.6799926757813 C 687.0503540039063 858.6799926757813 690.2349853515625 855.4949340820313 690.2349853515625 851.5800170898438 C 690.2349853515625 848.9691162109375 688.8056640625 846.5743408203125 686.5048217773438 845.3302001953125 L 682.6314086914063 843.2357788085938 L 684.219482421875 839.1287841796875 L 690.4924926757813 822.9057006835938 L 692.4098510742188 817.9471435546875 L 697.24169921875 820.1647338867188 C 704.4771118164063 823.485595703125 710.6107177734375 828.7676391601563 714.9793701171875 835.4400024414063 C 719.46826171875 842.2959594726563 721.8410034179688 850.2678833007813 721.8410034179688 858.4940185546875 C 721.8410034179688 864.1838989257813 720.7255249023438 869.7061157226563 718.525634765625 874.9074096679688 C 716.40185546875 879.9287719726563 713.3624267578125 884.4373779296875 709.4918823242188 888.3079223632813 C 705.6213989257813 892.1784057617188 701.11279296875 895.2178344726563 696.0914306640625 897.3416137695313 C 690.89013671875 899.5415649414063 685.3678588867188 900.656982421875 679.677978515625 900.656982421875 Z"/>
          <path class="cls-10" d="M 695.156005859375 824.708984375 L 688.8829956054688 840.9320068359375 C 692.6649780273438 842.9769897460938 695.2349853515625 846.97802734375 695.2349853515625 851.5800170898438 C 695.2349853515625 858.2630004882813 689.8179931640625 863.6799926757813 683.135986328125 863.6799926757813 C 682.1320190429688 863.6799926757813 681.1619873046875 863.5440063476563 680.22998046875 863.3140258789063 L 668.4000244140625 893.9089965820313 C 671.9580078125 895.041015625 675.7459716796875 895.656982421875 679.677978515625 895.656982421875 C 700.2030029296875 895.656982421875 716.8410034179688 879.0189819335938 716.8410034179688 858.4940185546875 C 716.8410034179688 843.4949951171875 707.9500122070313 830.5809936523438 695.156005859375 824.708984375 M 695.1559448242188 814.708984375 C 696.5813598632813 814.708984375 698.0047607421875 815.0134887695313 699.3273315429688 815.6204833984375 C 716.0411987304688 823.2916259765625 726.8410034179688 840.1204833984375 726.8410034179688 858.4940185546875 C 726.8410034179688 884.499755859375 705.6837768554688 905.656982421875 679.677978515625 905.656982421875 C 674.8098754882813 905.656982421875 669.9953002929688 904.9105224609375 665.3681640625 903.4382934570313 C 662.7401123046875 902.6021728515625 660.573974609375 900.7177734375 659.3821411132813 898.230712890625 C 658.1902465820313 895.7437133789063 658.078369140625 892.8748779296875 659.072998046875 890.3026123046875 L 670.9029541015625 859.7075805664063 C 672.42041015625 855.7831420898438 676.1790771484375 853.312744140625 680.2260131835938 853.3125 C 681.0198974609375 853.3125 681.8243408203125 853.407470703125 682.625732421875 853.605224609375 C 682.6879272460938 853.6080322265625 682.7491455078125 853.609375 682.809326171875 853.609375 C 684.3623657226563 853.609375 685.2349853515625 852.6947631835938 685.2349853515625 851.5800170898438 C 685.2349853515625 850.6566772460938 684.6624145507813 850.0181274414063 684.1266479492188 849.7283935546875 C 679.6983032226563 847.333984375 677.7404174804688 842.0209350585938 679.5559692382813 837.3255004882813 L 685.8289794921875 821.1024780273438 C 686.8238525390625 818.529541015625 688.83740234375 816.4818725585938 691.3932495117188 815.4439086914063 C 692.600830078125 814.9534912109375 693.8792724609375 814.708984375 695.1559448242188 814.708984375 Z"/>
        </g>
      </g>
      <g id="路径_6208" data-name="路径 6208" class="cls-1">
        <path class="cls-9" d="M 681.6708374023438 852.3759765625 C 681.6705322265625 852.3759765625 681.6705932617188 852.3759765625 681.6702270507813 852.3759765625 C 681.2429809570313 852.3759155273438 680.789306640625 852.3549194335938 680.3218994140625 852.3135375976563 C 678.1431274414063 852.1199951171875 676.2125854492188 851.2262573242188 674.7376708984375 849.728759765625 C 673.6580200195313 848.632568359375 672.855712890625 847.2520751953125 672.3531494140625 845.62548828125 C 671.7722778320313 843.7457275390625 671.7427368164063 841.9887084960938 671.7627563476563 841.2457275390625 C 671.699951171875 839.1077270507813 671.7850952148438 832.4009399414063 672.6152954101563 826.6487426757813 C 673.1685791015625 822.8104248046875 674.8241577148438 818.8309326171875 677.4028930664063 815.141357421875 C 678.7660522460938 813.1910400390625 680.37353515625 811.3466186523438 682.1807861328125 809.6593017578125 C 684.1055297851563 807.8622436523438 686.2670288085938 806.2350463867188 688.6051635742188 804.822998046875 L 689.1929931640625 804.468017578125 L 689.854736328125 804.2846069335938 C 692.2814331054688 803.6121215820313 694.6707153320313 803.2711791992188 696.956298828125 803.2711791992188 C 701.04248046875 803.2711791992188 704.8483276367188 804.3391723632813 708.26806640625 806.4454345703125 C 710.9121704101563 808.073974609375 713.2908935546875 810.3079833984375 715.3381958007813 813.0852661132813 C 717.7866821289063 816.40673828125 719.1585083007813 819.6782836914063 719.7606811523438 821.3401489257813 C 720.3478393554688 822.3248901367188 720.5906982421875 823.5057373046875 720.390380859375 824.711181640625 C 719.987548828125 827.1351318359375 717.9082641601563 828.89453125 715.4462890625 828.89453125 C 714.7091674804688 828.89453125 714.2265014648438 828.7840576171875 712.0910034179688 828.220458984375 C 710.700927734375 827.8532104492188 708.7036743164063 827.6427612304688 706.6104125976563 827.6427612304688 C 706.115966796875 827.6427612304688 705.7969360351563 827.6554565429688 705.7536010742188 827.6572875976563 L 702.63818359375 827.8189697265625 L 701.1782836914063 825.1538696289063 C 701.0946655273438 825.0154418945313 700.426025390625 823.9320678710938 699.3926391601563 822.9182739257813 C 698.415283203125 821.9594116210938 697.4580078125 821.4094848632813 696.7662353515625 821.4094848632813 C 696.293212890625 821.4094848632813 695.7200317382813 821.66552734375 695.0626220703125 822.17041015625 C 693.0073852539063 823.7491455078125 690.4890747070313 827.8826293945313 690.1649169921875 838.6078491210938 C 690.1538696289063 838.9722290039063 690.1452026367188 839.2600708007813 690.1310424804688 839.5042114257813 C 690.1165771484375 839.75341796875 690.0958251953125 839.9622192382813 690.0657958984375 840.161376953125 C 690.0457763671875 840.2938842773438 690.0209350585938 840.424560546875 689.9915161132813 840.5530395507813 C 690.0136108398438 840.9754028320313 690.0386352539063 841.5104370117188 690.0628051757813 842.1901245117188 C 690.1397094726563 844.3291625976563 690.2559814453125 847.5642700195313 687.887451171875 850.0193481445313 C 686.37890625 851.5830078125 684.287109375 852.3759765625 681.6708374023438 852.3759765625 Z"/>
        <path class="cls-10" d="M 681.6705322265625 847.3759155273438 C 685.1288452148438 847.3760986328125 685.168701171875 845.2260131835938 685.0659790039063 842.3679809570313 C 684.9786987304688 839.9161987304688 684.8775634765625 839.4015502929688 684.973388671875 839.4015502929688 C 684.9983520507813 839.4015502929688 685.03662109375 839.4364013671875 685.0919799804688 839.4810180664063 C 685.0938110351563 839.4824829101563 685.0955810546875 839.4832153320313 685.0972900390625 839.4832153320313 C 685.3473510742188 839.4832153320313 684.4560546875 824.0130004882813 692.0170288085938 818.2050170898438 C 693.6990966796875 816.9131469726563 695.2977905273438 816.4094848632813 696.7662353515625 816.4094848632813 C 701.9439086914063 816.4094848632813 705.5139770507813 822.6630249023438 705.5139770507813 822.6630249023438 C 705.5139770507813 822.6630249023438 705.9306030273438 822.6427612304688 706.6104736328125 822.6427612304688 C 708.120849609375 822.6427612304688 710.9314575195313 822.7426147460938 713.3670043945313 823.385986328125 C 714.9407958984375 823.8013916015625 715.3741455078125 823.89453125 715.4462890625 823.89453125 C 715.5049438476563 823.89453125 715.3250122070313 823.8330078125 715.3250122070313 823.8330078125 C 715.3250122070313 823.8330078125 710.7506713867188 808.2711791992188 696.956298828125 808.2711791992188 C 695.1886596679688 808.2711791992188 693.2702026367188 808.5265502929688 691.1900024414063 809.10302734375 C 682.6939697265625 814.2340087890625 678.3909912109375 821.6259765625 677.5640258789063 827.3629760742188 C 676.7360229492188 833.0999755859375 676.7100219726563 839.864990234375 676.7659912109375 841.2559814453125 C 676.7659912109375 841.2559814453125 676.405029296875 846.9459838867188 680.7630004882813 847.3330078125 C 681.0888671875 847.3618774414063 681.3910522460938 847.3759155273438 681.6705322265625 847.3759155273438 M 681.6709594726563 857.3759155273438 C 681.37646484375 857.3759155273438 680.174072265625 857.3200073242188 679.8806762695313 857.2940063476563 C 670.958984375 856.5016479492188 666.5274658203125 848.4977416992188 666.7603149414063 841.163818359375 C 666.7168579101563 838.93310546875 666.7683715820313 832.1580200195313 667.6665649414063 825.9345092773438 C 669.0809936523438 816.1221923828125 675.9423217773438 806.62939453125 686.0203247070313 800.54296875 C 686.8004760742188 800.0718383789063 687.641357421875 799.7095336914063 688.5195922851563 799.4661865234375 C 691.381103515625 798.6732177734375 694.2196044921875 798.2711791992188 696.956298828125 798.2711791992188 C 712.9183349609375 798.2711791992188 721.5533447265625 811.180908203125 724.5028686523438 819.712890625 C 725.335693359375 821.4860229492188 725.6597900390625 823.5021362304688 725.32275390625 825.5305786132813 C 724.521240234375 830.3546752929688 720.3365478515625 833.89453125 715.4462890625 833.89453125 C 713.9962158203125 833.89453125 712.9993286132813 833.6314086914063 710.8150024414063 833.0548706054688 C 709.85205078125 832.8004760742188 708.24169921875 832.6427612304688 706.6104736328125 832.6427612304688 C 706.4470825195313 832.6506958007813 706.28271484375 832.6546630859375 706.1180419921875 832.6546630859375 C 702.5977172851563 832.6547241210938 698.8372192382813 830.8557739257813 696.9884643554688 827.88720703125 C 696.2245483398438 829.6015014648438 695.3416748046875 832.8348388671875 695.16259765625 838.7588500976563 C 695.142333984375 839.4298706054688 695.0845947265625 840.0595092773438 694.994384765625 840.649169921875 L 695.0596313476563 842.0122680664063 C 695.1470336914063 844.442626953125 695.3290405273438 849.5070190429688 691.4859619140625 853.4906616210938 C 689.7760620117188 855.2631225585938 686.685302734375 857.3759155273438 681.6709594726563 857.3759155273438 Z"/>
      </g>
    </g>
    <g id="组_2746" data-name="组 2746">
      <path id="路径_6209" data-name="路径 6209" class="cls-3" d="M749.251,921.188l-13.945-38.469-.006,0a37.153,37.153,0,0,0-49.309-54.18l-.064.041a37.335,37.335,0,0,0-4.077,3.043l-.169.146q-1.344,1.168-2.571,2.459c-.074.077-.148.154-.221.232-.243.259-.482.523-.717.789-.094.107-.186.215-.279.323q-1.063,1.233-2.019,2.557c-.121.168-.242.336-.36.507-.169.243-.337.488-.5.735-.135.2-.265.41-.395.616q-.333.525-.648,1.061c-.159.272-.318.544-.471.82-.121.218-.237.439-.353.66-.137.258-.27.519-.4.781-.1.21-.21.421-.311.634q-.286.6-.552,1.22c-.079.184-.154.37-.23.555-.145.354-.287.711-.422,1.07q-.108.289-.211.581-.184.521-.354,1.048c-.054.166-.11.331-.161.5q-.231.75-.43,1.514c-.037.14-.069.282-.1.423q-.148.6-.278,1.207-.057.262-.109.526-.131.663-.237,1.333c-.017.1-.037.206-.053.311q-.123.817-.209,1.646c-.016.15-.028.3-.042.452q-.06.642-.1,1.29c-.009.164-.02.327-.027.492-.026.568-.044,1.139-.044,1.714a37.172,37.172,0,0,0,27.3,35.83l-.078.036s1.729,5.186,2.85,8.393h0a5.45,5.45,0,0,0,2.192,4.107,5.243,5.243,0,0,0,1.2.8,23.979,23.979,0,0,0,4.126,1.679c2.9.964,2.193,2.637,1.888,3.153l-.1.16c-.477.737-1.313,2.06-1.93,3.2l-.005.009c-1.215,1.047-.9,3.14-.519,4.49.108.726.235,1.237.235,1.237a29.321,29.321,0,0,0,5.718,3.336l.026.012c2.719,1.186,2.034,2.7,2.034,2.7a25.546,25.546,0,0,0-2.592,5.185c-.023.069-.037.137-.056.205l-.037.1a2.353,2.353,0,0,0-.094.511,7.072,7.072,0,0,0,1.051,4.368s6.228,2.978,12.014,5.6l8.379,3.906,5.1.432-.164-.432h1.461s6.914-13.828,9.506-19.878S749.251,921.188,749.251,921.188ZM683.077,863.68a12.1,12.1,0,1,1,12.1-12.1A12.1,12.1,0,0,1,683.077,863.68Z"/>
      <g id="组_2745" data-name="组 2745">
        <path id="路径_6210" data-name="路径 6210" class="cls-4" d="M650.411,881.388l-13.945,38.468s-1.729,1.729.864,7.778,9.507,19.878,9.507,19.878h5.185c1.729,0,21.607-9.507,21.607-9.507a6.65,6.65,0,0,0,.864-5.185,25.511,25.511,0,0,0-2.593-5.186s-.864-1.728,1.729-2.592a27.84,27.84,0,0,0,6.049-3.457s.865-3.457,0-5.186-2.592-4.321-2.592-4.321-.865-1.729,1.728-2.593a36.38,36.38,0,0,0,4.322-1.728,5.958,5.958,0,0,0,3.457-4.322c.864-3.457,2.611-9.01,2.611-9.01l-8.661-6.546Z"/>
        <path id="路径_6211" data-name="路径 6211" class="cls-5" d="M677.46,912.65s-1.674-2.163,1.785-3.312,7.265-2.513,7.522-6.584c1.122-3.208,2.85-8.393,2.85-8.393l-17.938-8.392-23.546,61.975,5.1-.432,20.393-9.507s1.481-3.275.956-4.879a51.212,51.212,0,0,0-2.685-5.492s-.684-1.515,2.035-2.7a32.508,32.508,0,0,0,5.552-3.331s1.785-4.125-.092-5.744"/>
        <path id="路径_6212" data-name="路径 6212" class="cls-6" d="M679.678,821.331a37.163,37.163,0,1,0,37.163,37.163A37.163,37.163,0,0,0,679.678,821.331Zm3.4,42.349a12.1,12.1,0,1,1,12.1-12.1A12.1,12.1,0,0,1,683.077,863.68Z"/>
        <path id="路径_6213" data-name="路径 6213" class="cls-7" d="M695.156,824.709l-6.273,16.223a12.088,12.088,0,0,1-8.653,22.382L668.4,893.909a37.165,37.165,0,0,0,26.756-69.2Z"/>
      </g>
      <path id="路径_6214" data-name="路径 6214" class="cls-8" d="M676.766,841.256s-.361,5.69,4,6.077,4.414-1.876,4.3-4.965-.242-3.1.026-2.887-.688-15.428,6.925-21.276,13.5,4.458,13.5,4.458a30.374,30.374,0,0,1,7.853.723c2.853.753,1.958.447,1.958.447s-5.821-19.8-24.135-14.73c-8.5,5.131-12.8,12.523-13.626,18.26A96.358,96.358,0,0,0,676.766,841.256Z"/>
    </g>
  </g>
</svg>
