<svg xmlns="http://www.w3.org/2000/svg" width="252.075" height="52.277" viewBox="0 0 252.075 52.277">
  <defs>
    <style>
      .cls-1 {
        fill: #fff;
      }
    </style>
  </defs>
  <g id="组_2498" data-name="组 2498" transform="translate(-804.473 -626.211)">
    <path id="路径_4912" data-name="路径 4912" class="cls-1" d="M815.349,677.951,829,636.552H818.6q-6.105,0-9.176,1.591a8.372,8.372,0,0,0-3.551,4.181h-1.4l3.625-15.576h29.893l-16.833,51.2Z"/>
    <path id="路径_4913" data-name="路径 4913" class="cls-1" d="M1023.62,659.046l23.827-32.3h4.513v32.3h4.588v7.659h-4.588v11.246h-10.174V666.705H1023.62Zm3.59,0h14.576V639.253Z"/>
    <path id="路径_4914" data-name="路径 4914" class="cls-1" d="M921.889,652.257v-1.3a24.233,24.233,0,0,0,5.846-2.275,8.677,8.677,0,0,0,2.811-3.219,9.049,9.049,0,0,0,1.184-4.384,7.135,7.135,0,0,0-2.238-5.272,7.628,7.628,0,0,0-5.569-2.2q-5.18,0-8.8,5.475l-1.369-.481a22.232,22.232,0,0,1,6.826-9.286,15.121,15.121,0,0,1,9.267-3.108,12.061,12.061,0,0,1,8.6,3.182,9.906,9.906,0,0,1,3.386,7.437,10.1,10.1,0,0,1-1.573,5.345,13.661,13.661,0,0,1-4.939,4.533,17.5,17.5,0,0,1,6.6,5.2,12.718,12.718,0,0,1,2.276,7.751,17.865,17.865,0,0,1-5.679,13.336q-5.681,5.5-15.225,5.495-6.363,0-9.286-2.109a4.477,4.477,0,0,1-2.108-3.811,4.137,4.137,0,0,1,4.031-4.106,5.217,5.217,0,0,1,2.295.518,47.514,47.514,0,0,1,4.2,3.237q3.607,2.941,6.752,2.941a6.122,6.122,0,0,0,4.7-2.165,7.869,7.869,0,0,0,1.961-5.493,14.3,14.3,0,0,0-3.552-9.342Q928.735,653.885,921.889,652.257Z"/>
    <g id="组_2496" data-name="组 2496">
      <rect id="矩形_1030" data-name="矩形 1030" class="cls-1" width="26.859" height="6.247" transform="translate(862.515 649.226)"/>
    </g>
    <g id="组_2497" data-name="组 2497">
      <rect id="矩形_1031" data-name="矩形 1031" class="cls-1" width="26.859" height="6.247" transform="translate(971.941 655.473)"/>
      <rect id="矩形_1032" data-name="矩形 1032" class="cls-1" width="26.859" height="6.247" transform="translate(971.941 642.979)"/>
    </g>
  </g>
</svg>
