<svg xmlns="http://www.w3.org/2000/svg" width="51.696" height="50.298" viewBox="0 0 51.696 50.298">
  <defs>
    <style>
      .cls-1 {
        fill: #e95172;
      }

      .cls-2 {
        fill: #ffefed;
      }

      .cls-3 {
        fill: #db4366;
      }

      .cls-4 {
        fill: #73b41e;
      }
    </style>
  </defs>
  <g id="组_5386" data-name="组 5386" transform="translate(-141.847 -255.09)">
    <path id="路径_13613" data-name="路径 13613" class="cls-1" d="M171.67,260.782s-10.475-4.029-18.533,2.417-11.28,17.727-11.28,27.4,4.028,12.086,10.475,13.7,24.978,2.417,32.23-7.252c7.252-8.058,10.475-13.7,2.417-24.173Z"/>
    <path id="路径_13618" data-name="路径 13618" class="cls-2" d="M162.186,268.587s.635,3.453-2.26,3.984a1.5,1.5,0,0,1-1.321-2.511A3.466,3.466,0,0,1,162.186,268.587Z"/>
    <path id="路径_13619" data-name="路径 13619" class="cls-2" d="M159.109,278.229s.9,3.393-1.942,4.148a1.5,1.5,0,0,1-1.513-2.4A3.465,3.465,0,0,1,159.109,278.229Z"/>
    <path id="路径_13620" data-name="路径 13620" class="cls-2" d="M167.808,288.087s.9,3.393-1.942,4.148a1.5,1.5,0,0,1-1.513-2.4A3.465,3.465,0,0,1,167.808,288.087Z"/>
    <path id="路径_13621" data-name="路径 13621" class="cls-2" d="M149.716,279.73s.9,3.393-1.942,4.148a1.5,1.5,0,0,1-1.513-2.4A3.466,3.466,0,0,1,149.716,279.73Z"/>
    <path id="路径_13622" data-name="路径 13622" class="cls-2" d="M157.656,288.8s.9,3.393-1.942,4.148a1.5,1.5,0,0,1-1.513-2.4A3.464,3.464,0,0,1,157.656,288.8Z"/>
    <path id="路径_13623" data-name="路径 13623" class="cls-2" d="M149.1,290.534s.9,3.393-1.942,4.148a1.5,1.5,0,0,1-1.513-2.4A3.464,3.464,0,0,1,149.1,290.534Z"/>
    <path id="路径_13624" data-name="路径 13624" class="cls-2" d="M169.709,278.081s.586,3.462-2.316,3.951a1.5,1.5,0,0,1-1.285-2.529A3.464,3.464,0,0,1,169.709,278.081Z"/>
    <path id="路径_13625" data-name="路径 13625" class="cls-3" d="M142.328,290.873s4.269,16.034,32.248,1.393a15.243,15.243,0,0,0,7.577-10.732c.069-1.165.789-7.749.789-7.749l3.807-1.1s10.353,9.214,1.3,22.025S157.118,307,147.28,302.477c-2.663-.944-5.635-4.459-5.422-11.6C141.863,289.857,142.328,290.873,142.328,290.873Z"/>
    <path id="路径_13627" data-name="路径 13627" class="cls-4" d="M170.864,255.142s-1.908,2.31.658,5.586c0,0-6.3,3.277-6.3,4.083s0,2.417,7.251,2.417c.806,0-.805,1.611-.805,4.029s0,4.028.805,4.028a8.5,8.5,0,0,0,4.029-1.611,1.116,1.116,0,0,1,1.612,0s2.417,6.446,4.028,7.252,4.029-6.446,4.029-7.252,0-1.612,1.612-.806,4.834-.806,5.64-.806-2.417-8.057-12.086-8.863c0,0-5.641-8.863-10.475-8.057"/>
  </g>
</svg>
