<svg xmlns="http://www.w3.org/2000/svg" width="113.914" height="141.005" viewBox="0 0 113.914 141.005">
  <defs>
    <style>
      .cls-1 {
        fill: #fda100;
      }

      .cls-2 {
        fill: #ffd404;
      }

      .cls-3 {
        fill: #fec000;
      }

      .cls-4 {
        fill: #ffd402;
      }

      .cls-5 {
        fill: #fec001;
      }

      .cls-6 {
        fill: #3d4949;
      }
    </style>
  </defs>
  <g id="组_2742" data-name="组 2742" transform="translate(-490.267 -808.271)">
    <path id="路径_6197" data-name="路径 6197" class="cls-1" d="M603.616,921.188l-13.945-38.469-.006,0a37.153,37.153,0,0,0-49.309-54.18l-.063.041a37.241,37.241,0,0,0-4.078,3.043l-.168.146q-1.345,1.168-2.572,2.459c-.074.077-.148.154-.221.232-.243.259-.481.523-.717.789-.094.107-.186.215-.279.323q-1.063,1.233-2.018,2.557c-.122.168-.242.336-.361.507q-.254.364-.5.735c-.135.2-.265.41-.4.616q-.333.525-.647,1.061c-.16.272-.319.544-.472.82-.121.218-.237.439-.353.66-.136.258-.27.519-.4.781-.1.21-.21.421-.311.634q-.287.6-.551,1.22c-.08.184-.154.37-.23.555-.146.354-.288.711-.422,1.07-.073.193-.142.387-.211.581q-.186.521-.355,1.048c-.054.166-.11.331-.161.5q-.231.75-.43,1.514c-.037.14-.068.282-.1.423q-.15.6-.279,1.207c-.037.175-.074.35-.108.526q-.13.663-.238,1.333c-.017.1-.037.206-.052.311-.083.545-.151,1.094-.21,1.646-.015.15-.027.3-.042.452q-.059.642-.1,1.29c-.009.164-.019.327-.027.492-.026.568-.043,1.139-.043,1.714a37.171,37.171,0,0,0,27.3,35.83l-.077.036s1.728,5.186,2.85,8.393h0a5.45,5.45,0,0,0,2.192,4.107,5.285,5.285,0,0,0,1.2.8,23.981,23.981,0,0,0,4.126,1.679c2.9.964,2.193,2.637,1.889,3.153l-.1.16c-.477.737-1.313,2.06-1.93,3.2l-.005.009c-1.215,1.047-.9,3.14-.519,4.49.108.726.235,1.237.235,1.237a29.307,29.307,0,0,0,5.719,3.336l.025.012c2.719,1.186,2.035,2.7,2.035,2.7a25.523,25.523,0,0,0-2.593,5.185c-.023.069-.037.137-.056.205-.011.033-.026.071-.036.1a2.352,2.352,0,0,0-.1.511,7.072,7.072,0,0,0,1.051,4.368s6.228,2.978,12.015,5.6l8.378,3.906,5.1.432-.165-.432h1.461s6.914-13.828,9.507-19.878S603.616,921.188,603.616,921.188ZM537.442,863.68a12.1,12.1,0,1,1,12.1-12.1A12.1,12.1,0,0,1,537.442,863.68Z"/>
    <g id="组_2741" data-name="组 2741">
      <path id="路径_6198" data-name="路径 6198" class="cls-2" d="M504.776,881.388l-13.945,38.468s-1.728,1.729.864,7.778,9.507,19.878,9.507,19.878h5.186c1.728,0,21.606-9.507,21.606-9.507a6.645,6.645,0,0,0,.864-5.185,25.533,25.533,0,0,0-2.592-5.186s-.865-1.728,1.728-2.592a27.831,27.831,0,0,0,6.05-3.457s.864-3.457,0-5.186-2.593-4.321-2.593-4.321-.864-1.729,1.729-2.593a36.4,36.4,0,0,0,4.321-1.728,5.956,5.956,0,0,0,3.457-4.322c.864-3.457,2.611-9.01,2.611-9.01l-8.661-6.546Z"/>
      <path id="路径_6199" data-name="路径 6199" class="cls-3" d="M531.825,912.65s-1.674-2.163,1.785-3.312,7.265-2.513,7.522-6.584c1.122-3.208,2.851-8.393,2.851-8.393l-17.938-8.392L502.5,947.944l5.1-.432,20.393-9.507s1.481-3.275.957-4.879a51.392,51.392,0,0,0-2.685-5.492s-.685-1.515,2.034-2.7a32.508,32.508,0,0,0,5.552-3.331s1.785-4.125-.092-5.744"/>
      <path id="路径_6200" data-name="路径 6200" class="cls-4" d="M534.044,821.331a37.163,37.163,0,1,0,37.163,37.163A37.163,37.163,0,0,0,534.044,821.331Zm3.4,42.349a12.1,12.1,0,1,1,12.1-12.1A12.1,12.1,0,0,1,537.442,863.68Z"/>
      <path id="路径_6201" data-name="路径 6201" class="cls-5" d="M549.521,824.709l-6.272,16.223a12.089,12.089,0,0,1-8.654,22.382l-11.83,30.595a37.165,37.165,0,0,0,26.756-69.2Z"/>
    </g>
    <path id="路径_6202" data-name="路径 6202" class="cls-6" d="M531.132,841.256s-.361,5.69,4,6.077,4.413-1.876,4.3-4.965-.243-3.1.025-2.887-.687-15.428,6.925-21.276,13.5,4.458,13.5,4.458a30.371,30.371,0,0,1,7.853.723c2.853.753,1.958.447,1.958.447s-5.82-19.8-24.135-14.73c-8.5,5.131-12.8,12.523-13.626,18.26A96.3,96.3,0,0,0,531.132,841.256Z"/>
  </g>
</svg>
