<svg xmlns="http://www.w3.org/2000/svg" width="251.243" height="52.277" viewBox="0 0 251.243 52.277">
  <defs>
    <style>
      .cls-1 {
        fill: #fff;
      }
    </style>
  </defs>
  <g id="组_2444" data-name="组 2444" transform="translate(-802.777 -237.432)">
    <path id="路径_4780" data-name="路径 4780" class="cls-1" d="M1030.526,237.969h23.494l-3.737,9.545h-19.757l-1.886,4.995q12.764.481,19.645,6.364a15.244,15.244,0,0,1,5.66,12.061,18.108,18.108,0,0,1-10.026,15.852,23.067,23.067,0,0,1-10.47,2.387q-6.141,0-9.434-2.294a4.576,4.576,0,0,1-2.293-3.7,3.893,3.893,0,0,1,1.2-2.813,3.8,3.8,0,0,1,2.793-1.22,7.846,7.846,0,0,1,2.923.591,31.217,31.217,0,0,1,5.068,3.108,18.078,18.078,0,0,0,3.885,2.146,7.125,7.125,0,0,0,2.589.444,6.883,6.883,0,0,0,5.162-2.22,7.427,7.427,0,0,0,2.128-5.327q0-6.512-6.513-10.581t-16.426-4.07q-1,0-3,.037Z"/>
    <path id="路径_4781" data-name="路径 4781" class="cls-1" d="M941.708,289.173H912.185v-.814q13.575-16.169,16.481-21.754a23.565,23.565,0,0,0,2.9-10.914,9.081,9.081,0,0,0-2.405-6.456,7.738,7.738,0,0,0-5.881-2.571q-5.7,0-8.843,5.7l-1.368-.481q2-7.1,6.066-10.507a14.224,14.224,0,0,1,9.4-3.4,13.9,13.9,0,0,1,6.956,1.776,12.861,12.861,0,0,1,4.92,4.865,11.729,11.729,0,0,1,1.776,5.79,20.9,20.9,0,0,1-2.738,9.989q-3.738,6.846-16.315,19.091h10.839a24.837,24.837,0,0,0,5.2-.333,4.308,4.308,0,0,0,1.979-1.129,14.6,14.6,0,0,0,2.035-3.348h1.331Z"/>
    <path id="路径_4782" data-name="路径 4782" class="cls-1" d="M812.765,263.478v-1.295a24.2,24.2,0,0,0,5.846-2.275,8.684,8.684,0,0,0,2.812-3.218,9.054,9.054,0,0,0,1.183-4.385,7.133,7.133,0,0,0-2.238-5.272,7.626,7.626,0,0,0-5.568-2.2q-5.181,0-8.8,5.476l-1.368-.481a22.208,22.208,0,0,1,6.825-9.286,15.115,15.115,0,0,1,9.267-3.109,12.06,12.06,0,0,1,8.6,3.182,9.906,9.906,0,0,1,3.386,7.437,10.108,10.108,0,0,1-1.573,5.346,13.655,13.655,0,0,1-4.938,4.532,17.5,17.5,0,0,1,6.6,5.2,12.719,12.719,0,0,1,2.276,7.751,17.865,17.865,0,0,1-5.679,13.337q-5.68,5.494-15.225,5.494-6.363,0-9.286-2.109a4.477,4.477,0,0,1-2.108-3.81,4.137,4.137,0,0,1,4.032-4.107,5.212,5.212,0,0,1,2.294.518,47.576,47.576,0,0,1,4.2,3.237q3.607,2.941,6.752,2.941a6.125,6.125,0,0,0,4.7-2.164,7.868,7.868,0,0,0,1.962-5.494,14.306,14.306,0,0,0-3.553-9.342Q819.611,265.107,812.765,263.478Z"/>
    <g id="组_2442" data-name="组 2442">
      <rect id="矩形_1005" data-name="矩形 1005" class="cls-1" width="26.859" height="6.247" transform="translate(860.209 260.447)"/>
      <rect id="矩形_1006" data-name="矩形 1006" class="cls-1" width="6.247" height="26.859" transform="translate(870.515 250.141)"/>
    </g>
    <g id="组_2443" data-name="组 2443">
      <rect id="矩形_1007" data-name="矩形 1007" class="cls-1" width="26.859" height="6.247" transform="translate(969.635 266.694)"/>
      <rect id="矩形_1008" data-name="矩形 1008" class="cls-1" width="26.859" height="6.247" transform="translate(969.635 254.2)"/>
    </g>
  </g>
</svg>
