<svg xmlns="http://www.w3.org/2000/svg" width="265.022" height="191.276" viewBox="0 0 265.022 191.276">
  <defs>
    <style>
      .cls-1, .cls-10, .cls-15 {
        fill: #fff;
      }

      .cls-1 {
        stroke-linecap: round;
        stroke-linejoin: round;
      }

      .cls-2 {
        fill: #f8517d;
      }

      .cls-3 {
        fill: #ff96ba;
      }

      .cls-4 {
        fill: #1d2a4f;
      }

      .cls-5 {
        fill: #f1b161;
      }

      .cls-6 {
        fill: #ea8d27;
      }

      .cls-7 {
        fill: #f96f9d;
      }

      .cls-8 {
        fill: #f1b15f;
      }

      .cls-9 {
        fill: #1399ba;
      }

      .cls-11 {
        fill: #fcf8ba;
      }

      .cls-12 {
        fill: #68654b;
      }

      .cls-13 {
        fill: #67604f;
      }

      .cls-14, .cls-15 {
        stroke: none;
      }
    </style>
  </defs>
  <g id="组_3277" data-name="组 3277" transform="translate(-1204.365 192.629)">
    <g id="路径_7344" data-name="路径 7344" class="cls-1">
      <path class="cls-14" d="M 1464.386962890625 -6.352997303009033 L 1459.386962890625 -6.352997303009033 L 1214.364990234375 -6.352997303009033 L 1209.364990234375 -6.352997303009033 L 1209.364990234375 -11.35299777984619 L 1209.364990234375 -19.11599731445313 L 1209.364990234375 -24.11599731445313 L 1214.364990234375 -24.11599731445313 L 1281.139038085938 -24.11599731445313 L 1281.139038085938 -105.1069946289063 L 1281.139038085938 -105.6228561401367 L 1281.244384765625 -106.127815246582 C 1281.30126953125 -106.4008407592773 1281.3603515625 -106.6506423950195 1281.413818359375 -106.8743515014648 C 1281.572265625 -109.9237823486328 1282.484375 -112.9982604980469 1284.12939453125 -116.0265884399414 C 1286.380249023438 -121.9144287109375 1289.466918945313 -127.0854339599609 1293.307739257813 -131.4012756347656 C 1296.755737304688 -135.2757415771484 1300.836669921875 -138.4933471679688 1305.43701171875 -140.9646759033203 C 1309.301879882813 -143.0408172607422 1313.526733398438 -144.5900268554688 1317.994506835938 -145.5692443847656 C 1321.534057617188 -146.3450317382813 1325.273681640625 -146.7590484619141 1328.817626953125 -146.7678527832031 C 1329.118896484375 -146.7878723144531 1329.625366210938 -146.8119964599609 1330.314819335938 -146.8119964599609 C 1330.849731445313 -146.8119964599609 1331.407958984375 -146.7971954345703 1331.976318359375 -146.7679901123047 L 1402.975952148438 -146.7679901123047 L 1402.975952148438 -182.6289978027344 L 1402.975952148438 -187.6289978027344 L 1407.975952148438 -187.6289978027344 L 1415.173950195313 -187.6289978027344 L 1416.209350585938 -187.6289978027344 L 1417.15966796875 -187.2177886962891 L 1446.269775390625 -174.6207885742188 L 1446.780395507813 -174.3998260498047 L 1447.22998046875 -174.0719909667969 C 1447.93408203125 -173.5585327148438 1451.451171875 -170.7689666748047 1451.54052734375 -166.2638549804688 C 1451.581420898438 -164.2014923095703 1450.894287109375 -161.1602783203125 1447.387817382813 -158.3840026855469 L 1446.968017578125 -158.0516052246094 L 1446.487426757813 -157.8156433105469 C 1441.83251953125 -155.5305633544922 1426.7177734375 -149.0085601806641 1420.173950195313 -146.1988220214844 L 1420.173950195313 -144.4095153808594 C 1425.587158203125 -143.0419769287109 1430.443969726563 -141.1080017089844 1434.654907226563 -138.639892578125 C 1439.298950195313 -135.9178161621094 1443.224365234375 -132.5117340087891 1446.322509765625 -128.5160522460938 C 1449.767211914063 -124.2824020385742 1452.191162109375 -119.4280242919922 1453.527099609375 -114.0871734619141 C 1454.618530273438 -109.7243804931641 1454.747924804688 -105.9363098144531 1454.658325195313 -103.4919815063477 C 1454.663208007813 -101.6704025268555 1454.5439453125 -100.3307571411133 1454.470947265625 -99.68360137939453 L 1454.470947265625 -24.11599731445313 L 1459.386962890625 -24.11599731445313 L 1464.386962890625 -24.11599731445313 L 1464.386962890625 -19.11599731445313 L 1464.386962890625 -11.35299777984619 L 1464.386962890625 -6.352997303009033 Z"/>
      <path class="cls-15" d="M 1459.386962890625 -11.35299777984619 L 1459.386962890625 -19.11599731445313 L 1449.470947265625 -19.11599731445313 L 1449.470947265625 -99.98999786376953 C 1449.470947265625 -99.98999786376953 1449.670043945313 -101.3499984741211 1449.657958984375 -103.577995300293 C 1449.822998046875 -107.6949996948242 1449.29296875 -116.9739990234375 1442.406982421875 -125.4059982299805 C 1437.4150390625 -131.8679962158203 1429.06201171875 -137.7339935302734 1415.173950195313 -140.3979949951172 L 1415.173950195313 -149.4960021972656 C 1415.173950195313 -149.4960021972656 1438.462036132813 -159.4459991455078 1444.284057617188 -162.3040008544922 C 1449.364990234375 -166.3269958496094 1444.284057617188 -170.0319976806641 1444.284057617188 -170.0319976806641 L 1415.173950195313 -182.6289978027344 L 1407.975952148438 -182.6289978027344 L 1407.975952148438 -141.4329986572266 C 1406.5419921875 -141.5749969482422 1405.06298828125 -141.6889953613281 1403.530029296875 -141.7679901123047 L 1331.843017578125 -141.7679901123047 C 1331.248413085938 -141.8009948730469 1330.734985351563 -141.8119964599609 1330.314819335938 -141.8119964599609 C 1329.474487304688 -141.8119964599609 1329.006958007813 -141.7679901123047 1329.006958007813 -141.7679901123047 L 1329.0009765625 -141.7659912109375 C 1328.97802734375 -141.7659912109375 1328.9560546875 -141.7679901123047 1328.932983398438 -141.7679901123047 C 1317.546997070313 -141.7679901123047 1297.390991210938 -137.1620025634766 1288.678955078125 -113.9219970703125 C 1287.276977539063 -111.4290008544922 1286.447998046875 -108.843994140625 1286.391967773438 -106.1999969482422 C 1286.308959960938 -105.8339996337891 1286.217041015625 -105.4809951782227 1286.139038085938 -105.1069946289063 L 1286.139038085938 -19.11599731445313 L 1214.364990234375 -19.11599731445313 L 1214.364990234375 -11.35299777984619 L 1459.386962890625 -11.35299777984619 M 1459.386962890625 -1.352997303009033 L 1214.364990234375 -1.352997303009033 C 1208.842163085938 -1.352997303009033 1204.364990234375 -5.830163955688477 1204.364990234375 -11.35299777984619 L 1204.364990234375 -19.11599731445313 C 1204.364990234375 -24.63883018493652 1208.842163085938 -29.11599731445313 1214.364990234375 -29.11599731445313 L 1276.139038085938 -29.11599731445313 L 1276.139038085938 -105.1069946289063 C 1276.139038085938 -105.7929534912109 1276.209594726563 -106.4771194458008 1276.349731445313 -107.1486206054688 C 1276.47509765625 -110.3940353393555 1277.547241210938 -114.2865295410156 1279.5751953125 -118.1139907836914 C 1291.525756835938 -148.9398193359375 1319.668579101563 -151.7032928466797 1328.607055664063 -151.7668304443359 C 1329.104858398438 -151.7983093261719 1329.6630859375 -151.8119964599609 1330.314819335938 -151.8119964599609 C 1330.887329101563 -151.8119964599609 1331.5869140625 -151.7975769042969 1332.397094726563 -151.7526245117188 L 1397.975952148438 -151.7667999267578 L 1397.975952148438 -182.6289978027344 C 1397.975952148438 -188.1518249511719 1402.453125 -192.6289978027344 1407.975952148438 -192.6289978027344 L 1415.173950195313 -192.6289978027344 C 1416.5400390625 -192.6289978027344 1417.8916015625 -192.3490753173828 1419.145385742188 -191.8065338134766 L 1448.255493164063 -179.2095336914063 C 1448.934326171875 -178.9158325195313 1449.578369140625 -178.5476989746094 1450.175903320313 -178.1119537353516 C 1453.183227539063 -175.9190826416016 1456.434204101563 -171.6810760498047 1456.53955078125 -166.3629913330078 C 1456.591430664063 -163.7485809326172 1455.874633789063 -158.7261657714844 1450.49169921875 -154.4640045166016 C 1449.933471679688 -154.0220794677734 1449.329711914063 -153.6409912109375 1448.690673828125 -153.3272857666016 C 1445.654052734375 -151.8366394042969 1438.3369140625 -148.6138916015625 1431.73583984375 -145.7454833984375 C 1439.3974609375 -142.3625793457031 1445.619140625 -137.6055450439453 1450.320678710938 -131.5193786621094 C 1458.978759765625 -120.9232482910156 1459.891479492188 -109.2022476196289 1459.64990234375 -103.1774520874023 C 1459.6650390625 -101.5413360595703 1459.557983398438 -100.1896820068359 1459.470947265625 -99.3760986328125 L 1459.470947265625 -29.11565017700195 C 1464.955200195313 -29.07060623168945 1469.386962890625 -24.61085319519043 1469.386962890625 -19.11599731445313 L 1469.386962890625 -11.35299777984619 C 1469.386962890625 -5.830163955688477 1464.909790039063 -1.352997303009033 1459.386962890625 -1.352997303009033 Z"/>
    </g>
    <g id="组_3276" data-name="组 3276">
      <g id="组_3273" data-name="组 3273">
        <path id="路径_7345" data-name="路径 7345" class="cls-2" d="M1449.471-19.116V-101.4s6-36.132-45.941-40.366h-74.523s-42.625,16.372-42.625,35.85v86.8Z"/>
        <rect id="矩形_1600" data-name="矩形 1600" class="cls-2" width="245.022" height="7.763" transform="translate(1214.365 -19.116)"/>
        <path id="路径_7346" data-name="路径 7346" class="cls-3" d="M1286.139-19.116v-85.991c6.463-30.947,30.091-36.661,42.794-36.661,32.6,0,41.213,36.7,41.213,36.7v85.955h-84.007Z"/>
        <path id="路径_7347" data-name="路径 7347" class="cls-4" d="M1293.439-105.777s10.656-35.568,43.437-26.252a42.348,42.348,0,0,1,25.97,26.252v86.661h-69.407Z"/>
        <circle id="椭圆_1335" data-name="椭圆 1335" class="cls-5" cx="4.94" cy="4.94" r="4.94" transform="translate(1407.058 -70.915)"/>
        <circle id="椭圆_1336" data-name="椭圆 1336" class="cls-6" cx="11.15" cy="11.15" r="11.15" transform="translate(1400.848 -77.125)"/>
        <path id="路径_7348" data-name="路径 7348" class="cls-7" d="M1370.22-99.99h79.251s5.717-39.1-45.941-41.778h-74.523s29.922-2.823,41.213,36.7Z"/>
        <rect id="矩形_1601" data-name="矩形 1601" class="cls-8" width="7.198" height="105.503" transform="translate(1407.976 -182.629)"/>
        <path id="路径_7349" data-name="路径 7349" class="cls-9" d="M1415.174-182.629l29.11,12.6s5.082,3.705,0,7.728c-5.822,2.858-29.11,12.808-29.11,12.808Z"/>
        <rect id="矩形_1602" data-name="矩形 1602" class="cls-10" width="7.004" height="4.408" rx="1.329" transform="translate(1365.298 -133.935)"/>
        <rect id="矩形_1603" data-name="矩形 1603" class="cls-10" width="25.123" height="4.408" rx="1.329" transform="translate(1376.854 -133.935)"/>
      </g>
      <path id="路径_7350" data-name="路径 7350" class="cls-6" d="M1312.165-104.175c3.668-8.609,13.8-13.314,22.505-13.96,31.751,6.141,12.57,37.4,12.57,37.4l-1.189.273c-1.189.273-1.311-2.5-1.311-2.5s12.187-21.825-3.513-28.869-25.823,9.639-25.823,9.639Z"/>
      <path id="路径_7351" data-name="路径 7351" class="cls-6" d="M1305.8-81.941c3.708.052,38.487-3.292,43.187,0,1.469,2.791,2.846,39.5-1.032,38.226a8.914,8.914,0,0,0-3.2-.61c-10.475.512-39.944-.172-39.944-.172s-2.612.209-2.507-4.805.522-29.662.522-29.662-.731-3.029,2.977-2.976"/>
      <path id="路径_7352" data-name="路径 7352" class="cls-8" d="M1307.338-76.011s-.591-2.449,2.407-2.407,31.118-2.661,34.918,0c1.267,2.407,2.449,36.017-1.52,30.274-5.826.659-34.2,0-34.2,0s-2.111.169-2.026-3.884S1307.338-76.011,1307.338-76.011Z"/>
      <g id="组_3274" data-name="组 3274">
        <path id="路径_7353" data-name="路径 7353" class="cls-11" d="M1329.368-63.13a5.653,5.653,0,0,0,2.7-4.809,5.673,5.673,0,0,0-5.673-5.673,5.673,5.673,0,0,0-5.673,5.673,5.652,5.652,0,0,0,2.7,4.809l2.976-6.177Z"/>
        <path id="路径_7354" data-name="路径 7354" class="cls-11" d="M1326.391-71.343l-2.976,6.177-2.7,5.6h11.345l-2.7-5.6Z"/>
      </g>
      <g id="组_3275" data-name="组 3275">
        <path id="路径_7355" data-name="路径 7355" class="cls-12" d="M1328.128-64.879a3.3,3.3,0,0,0,1.573-2.806,3.309,3.309,0,0,0-3.31-3.309,3.309,3.309,0,0,0-3.31,3.309,3.3,3.3,0,0,0,1.573,2.806l1.737-3.6Z"/>
        <path id="路径_7356" data-name="路径 7356" class="cls-13" d="M1326.391-68.482l-1.737,3.6-1.573,3.265h6.62l-1.573-3.265Z"/>
      </g>
    </g>
  </g>
</svg>
