<svg xmlns="http://www.w3.org/2000/svg" width="245.022" height="171.276" viewBox="0 0 245.022 171.276">
  <defs>
    <style>
      .cls-1 {
        fill: #f8517d;
      }

      .cls-2 {
        fill: #ff96ba;
      }

      .cls-3 {
        fill: #1d2a4f;
      }

      .cls-4 {
        fill: #f1b161;
      }

      .cls-5 {
        fill: #ea8d27;
      }

      .cls-6 {
        fill: #f96f9d;
      }

      .cls-7 {
        fill: #f1b15f;
      }

      .cls-8 {
        fill: #1399ba;
      }

      .cls-9 {
        fill: #fff;
      }

      .cls-10 {
        fill: #fcf8ba;
      }

      .cls-11 {
        fill: #68654b;
      }

      .cls-12 {
        fill: #67604f;
      }
    </style>
  </defs>
  <g id="组_2758" data-name="组 2758" transform="translate(-1188.978 -780.558)">
    <g id="组_2754" data-name="组 2754">
      <path id="路径_6227" data-name="路径 6227" class="cls-1" d="M1424.085,944.07V861.785s6-36.133-45.942-40.367H1303.62S1261,837.791,1261,857.268v86.8Z"/>
      <rect id="矩形_1149" data-name="矩形 1149" class="cls-1" width="245.022" height="7.763" transform="translate(1188.978 944.07)"/>
      <path id="路径_6228" data-name="路径 6228" class="cls-2" d="M1260.752,944.07V858.079c6.464-30.946,30.092-36.661,42.794-36.661,32.6,0,41.214,36.7,41.214,36.7V944.07h-84.008Z"/>
      <path id="路径_6229" data-name="路径 6229" class="cls-3" d="M1268.053,857.409s10.656-35.567,43.436-26.252a42.351,42.351,0,0,1,25.97,26.252V944.07h-69.406Z"/>
      <circle id="椭圆_1133" data-name="椭圆 1133" class="cls-4" cx="4.94" cy="4.94" r="4.94" transform="translate(1381.672 892.271)"/>
      <circle id="椭圆_1134" data-name="椭圆 1134" class="cls-5" cx="11.15" cy="11.15" r="11.15" transform="translate(1375.461 886.061)"/>
      <path id="路径_6230" data-name="路径 6230" class="cls-6" d="M1344.834,863.2h79.251s5.716-39.1-45.942-41.778H1303.62s29.922-2.823,41.214,36.7Z"/>
      <rect id="矩形_1150" data-name="矩形 1150" class="cls-7" width="7.198" height="105.503" transform="translate(1382.589 780.558)"/>
      <path id="路径_6231" data-name="路径 6231" class="cls-8" d="M1389.787,780.558l29.111,12.6s5.081,3.7,0,7.727c-5.822,2.858-29.111,12.809-29.111,12.809Z"/>
      <rect id="矩形_1151" data-name="矩形 1151" class="cls-9" width="7.004" height="4.408" rx="1.329" transform="translate(1339.911 829.252)"/>
      <rect id="矩形_1152" data-name="矩形 1152" class="cls-9" width="25.123" height="4.408" rx="1.329" transform="translate(1351.467 829.252)"/>
    </g>
    <g id="组_2757" data-name="组 2757">
      <path id="路径_6232" data-name="路径 6232" class="cls-5" d="M1284.552,881.036s-1.159-19.479,15.761-22.612,19.306,21.749,19.306,21.749,1.674,2.208,2.5,1.307l.823-.9s-2-36.621-31.607-23.617c-6.8,5.483-12.452,15.112-10.574,24.28S1284.552,881.036,1284.552,881.036Z"/>
      <path id="路径_6233" data-name="路径 6233" class="cls-5" d="M1277.439,884.222s-.731-3.029,2.977-2.977,38.488-3.291,43.188,0c1.469,2.792,2.845,39.5-1.033,38.227a8.891,8.891,0,0,0-3.2-.611c-10.474.513-39.944-.172-39.944-.172s-2.611.209-2.507-4.8S1277.439,884.222,1277.439,884.222Z"/>
      <path id="路径_6234" data-name="路径 6234" class="cls-7" d="M1281.951,887.175s-.591-2.449,2.407-2.406,31.119-2.662,34.919,0c1.267,2.407,2.449,36.017-1.52,30.275-5.827.659-34.2,0-34.2,0s-2.111.169-2.027-3.885S1281.951,887.175,1281.951,887.175Z"/>
      <g id="组_2755" data-name="组 2755">
        <path id="路径_6235" data-name="路径 6235" class="cls-10" d="M1303.981,900.057a5.672,5.672,0,1,0-5.953,0L1301,893.88Z"/>
        <path id="路径_6236" data-name="路径 6236" class="cls-10" d="M1301,891.843l-2.976,6.177-2.7,5.6h11.345l-2.7-5.6Z"/>
      </g>
      <g id="组_2756" data-name="组 2756">
        <path id="路径_6237" data-name="路径 6237" class="cls-11" d="M1302.741,898.308a3.31,3.31,0,1,0-3.473,0l1.736-3.6Z"/>
        <path id="路径_6238" data-name="路径 6238" class="cls-12" d="M1301,894.7l-1.737,3.6-1.573,3.265h6.619l-1.573-3.265Z"/>
      </g>
    </g>
  </g>
</svg>
