<svg xmlns="http://www.w3.org/2000/svg" width="156.632" height="190.508" viewBox="0 0 156.632 190.508">
  <defs>
    <style>
      .cls-1, .cls-29, .cls-31 {
        fill: #fff;
      }

      .cls-1, .cls-27 {
        stroke-linecap: round;
        stroke-linejoin: round;
      }

      .cls-2 {
        fill: #f2ebd9;
      }

      .cls-3 {
        fill: #526dbf;
      }

      .cls-4 {
        fill: #97d2ee;
      }

      .cls-5 {
        fill: #eaeaea;
      }

      .cls-6 {
        fill: #94d3f0;
      }

      .cls-7 {
        fill: #fafdfe;
      }

      .cls-8 {
        fill: #95d2f2;
      }

      .cls-9 {
        fill: #c55a85;
      }

      .cls-10 {
        fill: #774083;
      }

      .cls-11 {
        fill: #edeced;
      }

      .cls-12 {
        fill: #2e282f;
      }

      .cls-13 {
        fill: #7b4086;
      }

      .cls-14 {
        fill: #731018;
      }

      .cls-15 {
        fill: #c5efff;
      }

      .cls-16 {
        fill: #a4e5ff;
      }

      .cls-17 {
        fill: #ffe301;
      }

      .cls-18 {
        fill: #436bfd;
      }

      .cls-19 {
        fill: #adce00;
      }

      .cls-20 {
        fill: #3a65dd;
      }

      .cls-21 {
        fill: #fae20b;
      }

      .cls-22 {
        fill: #add000;
      }

      .cls-23 {
        fill: #d64d49;
      }

      .cls-24 {
        fill: #f0ea05;
      }

      .cls-25 {
        fill: #cecece;
      }

      .cls-26 {
        fill: #e96695;
      }

      .cls-27 {
        fill: none;
        stroke: #325bce;
      }

      .cls-28 {
        fill: #e0bf00;
      }

      .cls-29 {
        font-size: 28.541px;
        font-family: MicrosoftYaHei-Bold, Microsoft YaHei;
        font-weight: 700;
      }

      .cls-30, .cls-31 {
        stroke: none;
      }
    </style>
  </defs>
  <g id="组_2616" data-name="组 2616" transform="translate(-1129.152 -1153.157)">
    <g id="路径_6015" data-name="路径 6015" class="cls-1">
      <path class="cls-30" d="M 1270.1396484375 1338.6650390625 L 1264.557983398438 1338.6650390625 L 1250.8759765625 1338.6650390625 L 1245.294677734375 1338.6650390625 L 1245.906127929688 1333.117309570313 C 1245.930297851563 1332.89794921875 1245.942016601563 1332.707763671875 1245.942016601563 1332.536010742188 C 1245.942016601563 1329.689086914063 1243.625854492188 1327.373046875 1240.779052734375 1327.373046875 C 1237.93212890625 1327.373046875 1235.615966796875 1329.689086914063 1235.615966796875 1332.536010742188 C 1235.615966796875 1332.701782226563 1235.628051757813 1332.891845703125 1235.65283203125 1333.117065429688 L 1236.2646484375 1338.6650390625 L 1230.682983398438 1338.6650390625 L 1217 1338.6650390625 L 1211.418334960938 1338.6650390625 L 1212.030151367188 1333.117065429688 C 1212.054321289063 1332.897827148438 1212.066040039063 1332.707763671875 1212.066040039063 1332.536010742188 C 1212.066040039063 1329.689086914063 1209.750366210938 1327.373046875 1206.904052734375 1327.373046875 C 1204.05712890625 1327.373046875 1201.740966796875 1329.689086914063 1201.740966796875 1332.536010742188 C 1201.740966796875 1332.707763671875 1201.752685546875 1332.897827148438 1201.77685546875 1333.117065429688 L 1202.388671875 1338.6650390625 L 1196.807006835938 1338.6650390625 L 1183.1240234375 1338.6650390625 L 1177.542358398438 1338.6650390625 L 1178.154174804688 1333.117065429688 C 1178.17822265625 1332.898559570313 1178.18994140625 1332.70849609375 1178.18994140625 1332.536010742188 C 1178.18994140625 1329.689086914063 1175.874267578125 1327.373046875 1173.027954101563 1327.373046875 C 1170.18115234375 1327.373046875 1167.864990234375 1329.689086914063 1167.864990234375 1332.536010742188 C 1167.864990234375 1332.707763671875 1167.876708984375 1332.897827148438 1167.90087890625 1333.117065429688 L 1168.5126953125 1338.6650390625 L 1162.931030273438 1338.6650390625 L 1149.2490234375 1338.6650390625 L 1143.667358398438 1338.6650390625 L 1144.279174804688 1333.117065429688 C 1144.30322265625 1332.898559570313 1144.31494140625 1332.70849609375 1144.31494140625 1332.536010742188 C 1144.31494140625 1329.689086914063 1141.998901367188 1327.373046875 1139.151977539063 1327.373046875 L 1134.151977539063 1327.373046875 L 1134.151977539063 1322.373046875 L 1134.151977539063 1308.822998046875 L 1134.151977539063 1303.822998046875 L 1139.151977539063 1303.822998046875 C 1141.998901367188 1303.822998046875 1144.31494140625 1301.506958007813 1144.31494140625 1298.660034179688 C 1144.31494140625 1295.813110351563 1141.998901367188 1293.496948242188 1139.151977539063 1293.496948242188 L 1134.151977539063 1293.496948242188 L 1134.151977539063 1288.496948242188 L 1134.151977539063 1274.947021484375 L 1134.151977539063 1269.947021484375 L 1139.151977539063 1269.947021484375 C 1141.998901367188 1269.947021484375 1144.31494140625 1267.630981445313 1144.31494140625 1264.784057617188 C 1144.31494140625 1261.937133789063 1141.998901367188 1259.620971679688 1139.151977539063 1259.620971679688 L 1134.151977539063 1259.620971679688 L 1134.151977539063 1254.620971679688 L 1134.151977539063 1241.071044921875 L 1134.151977539063 1236.071044921875 L 1139.151977539063 1236.071044921875 C 1141.998901367188 1236.071044921875 1144.31494140625 1233.7548828125 1144.31494140625 1230.907958984375 C 1144.31494140625 1228.061645507813 1141.998901367188 1225.745971679688 1139.151977539063 1225.745971679688 L 1134.151977539063 1225.745971679688 L 1134.151977539063 1220.745971679688 L 1134.151977539063 1207.194946289063 L 1134.151977539063 1202.194946289063 L 1139.151977539063 1202.194946289063 C 1141.998901367188 1202.194946289063 1144.31494140625 1199.879272460938 1144.31494140625 1197.032958984375 C 1144.31494140625 1194.18603515625 1141.998901367188 1191.869995117188 1139.151977539063 1191.869995117188 L 1134.151977539063 1191.869995117188 L 1134.151977539063 1186.869995117188 L 1134.151977539063 1173.319946289063 L 1134.151977539063 1168.319946289063 L 1139.151977539063 1168.319946289063 C 1141.998901367188 1168.319946289063 1144.31494140625 1166.00390625 1144.31494140625 1163.156982421875 L 1144.31494140625 1158.156982421875 L 1149.31494140625 1158.156982421875 L 1162.864990234375 1158.156982421875 L 1167.864990234375 1158.156982421875 L 1167.864990234375 1163.156982421875 C 1167.864990234375 1166.00390625 1170.18115234375 1168.319946289063 1173.027954101563 1168.319946289063 C 1175.874267578125 1168.319946289063 1178.18994140625 1166.00390625 1178.18994140625 1163.156982421875 L 1178.18994140625 1158.156982421875 L 1183.18994140625 1158.156982421875 L 1196.740966796875 1158.156982421875 L 1201.740966796875 1158.156982421875 L 1201.740966796875 1163.156982421875 C 1201.740966796875 1166.00390625 1204.05712890625 1168.319946289063 1206.904052734375 1168.319946289063 C 1209.750366210938 1168.319946289063 1212.066040039063 1166.00390625 1212.066040039063 1163.156982421875 L 1212.066040039063 1158.156982421875 L 1217.066040039063 1158.156982421875 L 1230.615966796875 1158.156982421875 L 1235.615966796875 1158.156982421875 L 1235.615966796875 1163.156982421875 C 1235.615966796875 1166.00390625 1237.93212890625 1168.319946289063 1240.779052734375 1168.319946289063 C 1243.625854492188 1168.319946289063 1245.942016601563 1166.00390625 1245.942016601563 1163.156982421875 L 1245.942016601563 1158.156982421875 L 1250.942016601563 1158.156982421875 L 1264.491943359375 1158.156982421875 L 1269.491943359375 1158.156982421875 L 1269.491943359375 1163.156982421875 C 1269.491943359375 1166.00390625 1271.80810546875 1168.319946289063 1274.655029296875 1168.319946289063 C 1274.828002929688 1168.319946289063 1275.017700195313 1168.308227539063 1275.234985351563 1168.284301757813 L 1280.784057617188 1167.671264648438 L 1280.784057617188 1173.254028320313 L 1280.784057617188 1186.93603515625 L 1280.784057617188 1192.519287109375 L 1275.234619140625 1191.90576171875 C 1275.01708984375 1191.881713867188 1274.827514648438 1191.869995117188 1274.655029296875 1191.869995117188 C 1271.80810546875 1191.869995117188 1269.491943359375 1194.18603515625 1269.491943359375 1197.032958984375 C 1269.491943359375 1199.879272460938 1271.80810546875 1202.194946289063 1274.655029296875 1202.194946289063 C 1274.828002929688 1202.194946289063 1275.017700195313 1202.183227539063 1275.234985351563 1202.159301757813 L 1280.784057617188 1201.546264648438 L 1280.784057617188 1207.129028320313 L 1280.784057617188 1220.81201171875 L 1280.784057617188 1226.394775390625 L 1275.234985351563 1225.78173828125 C 1275.01708984375 1225.757690429688 1274.827392578125 1225.745971679688 1274.655029296875 1225.745971679688 C 1271.80810546875 1225.745971679688 1269.491943359375 1228.061645507813 1269.491943359375 1230.907958984375 C 1269.491943359375 1233.7548828125 1271.80810546875 1236.071044921875 1274.655029296875 1236.071044921875 C 1274.827392578125 1236.071044921875 1275.01708984375 1236.059326171875 1275.234985351563 1236.035278320313 L 1280.784057617188 1235.422241210938 L 1280.784057617188 1241.005004882813 L 1280.784057617188 1254.68798828125 L 1280.784057617188 1260.270751953125 L 1275.234985351563 1259.65771484375 C 1275.011108398438 1259.633056640625 1274.821411132813 1259.620971679688 1274.655029296875 1259.620971679688 C 1271.80810546875 1259.620971679688 1269.491943359375 1261.937133789063 1269.491943359375 1264.784057617188 C 1269.491943359375 1267.630981445313 1271.80810546875 1269.947021484375 1274.655029296875 1269.947021484375 C 1274.827514648438 1269.947021484375 1275.01708984375 1269.935302734375 1275.234619140625 1269.911254882813 L 1280.784057617188 1269.297729492188 L 1280.784057617188 1274.880981445313 L 1280.784057617188 1288.56298828125 L 1280.784057617188 1294.145751953125 L 1275.234985351563 1293.53271484375 C 1275.01708984375 1293.508666992188 1274.827392578125 1293.496948242188 1274.655029296875 1293.496948242188 C 1271.80810546875 1293.496948242188 1269.491943359375 1295.813110351563 1269.491943359375 1298.660034179688 C 1269.491943359375 1301.506958007813 1271.80810546875 1303.822998046875 1274.655029296875 1303.822998046875 C 1274.821411132813 1303.822998046875 1275.010986328125 1303.81103515625 1275.234619140625 1303.786254882813 L 1280.784057617188 1303.172729492188 L 1280.784057617188 1308.755981445313 L 1280.784057617188 1322.43896484375 L 1280.784057617188 1328.021728515625 L 1275.234985351563 1327.40869140625 C 1275.017700195313 1327.384765625 1274.828002929688 1327.373046875 1274.655029296875 1327.373046875 C 1271.80810546875 1327.373046875 1269.491943359375 1329.689086914063 1269.491943359375 1332.536010742188 C 1269.491943359375 1332.707763671875 1269.503662109375 1332.897827148438 1269.52783203125 1333.117065429688 L 1270.1396484375 1338.6650390625 Z"/>
      <path class="cls-31" d="M 1149.31494140625 1163.156982421875 C 1149.31494140625 1168.77001953125 1144.765014648438 1173.319946289063 1139.151977539063 1173.319946289063 L 1139.151977539063 1186.869995117188 C 1144.765014648438 1186.869995117188 1149.31494140625 1191.420043945313 1149.31494140625 1197.032958984375 C 1149.31494140625 1202.64501953125 1144.765014648438 1207.194946289063 1139.151977539063 1207.194946289063 L 1139.151977539063 1220.745971679688 C 1144.765014648438 1220.745971679688 1149.31494140625 1225.296020507813 1149.31494140625 1230.907958984375 C 1149.31494140625 1236.52099609375 1144.765014648438 1241.071044921875 1139.151977539063 1241.071044921875 L 1139.151977539063 1254.620971679688 C 1144.765014648438 1254.620971679688 1149.31494140625 1259.171020507813 1149.31494140625 1264.784057617188 C 1149.31494140625 1270.39697265625 1144.765014648438 1274.947021484375 1139.151977539063 1274.947021484375 L 1139.151977539063 1288.496948242188 C 1144.765014648438 1288.496948242188 1149.31494140625 1293.046997070313 1149.31494140625 1298.660034179688 C 1149.31494140625 1304.27197265625 1144.765014648438 1308.822998046875 1139.151977539063 1308.822998046875 L 1139.151977539063 1322.373046875 C 1144.765014648438 1322.373046875 1149.31494140625 1326.922973632813 1149.31494140625 1332.536010742188 C 1149.31494140625 1332.91796875 1149.2900390625 1333.29296875 1149.2490234375 1333.6650390625 L 1162.931030273438 1333.6650390625 C 1162.890014648438 1333.29296875 1162.864990234375 1332.91796875 1162.864990234375 1332.536010742188 C 1162.864990234375 1326.922973632813 1167.4150390625 1322.373046875 1173.027954101563 1322.373046875 C 1178.640991210938 1322.373046875 1183.18994140625 1326.922973632813 1183.18994140625 1332.536010742188 C 1183.18994140625 1332.91796875 1183.1650390625 1333.29296875 1183.1240234375 1333.6650390625 L 1196.807006835938 1333.6650390625 C 1196.765991210938 1333.29296875 1196.740966796875 1332.91796875 1196.740966796875 1332.536010742188 C 1196.740966796875 1326.922973632813 1201.291015625 1322.373046875 1206.904052734375 1322.373046875 C 1212.515991210938 1322.373046875 1217.066040039063 1326.922973632813 1217.066040039063 1332.536010742188 C 1217.066040039063 1332.91796875 1217.041015625 1333.29296875 1217 1333.6650390625 L 1230.682983398438 1333.6650390625 C 1230.641967773438 1333.29296875 1230.615966796875 1332.91796875 1230.615966796875 1332.536010742188 C 1230.615966796875 1326.922973632813 1235.1669921875 1322.373046875 1240.779052734375 1322.373046875 C 1246.391967773438 1322.373046875 1250.942016601563 1326.922973632813 1250.942016601563 1332.536010742188 C 1250.942016601563 1332.91796875 1250.9169921875 1333.29296875 1250.8759765625 1333.6650390625 L 1264.557983398438 1333.6650390625 C 1264.516967773438 1333.29296875 1264.491943359375 1332.91796875 1264.491943359375 1332.536010742188 C 1264.491943359375 1326.922973632813 1269.0419921875 1322.373046875 1274.655029296875 1322.373046875 C 1275.036987304688 1322.373046875 1275.412963867188 1322.39794921875 1275.784057617188 1322.43896484375 L 1275.784057617188 1308.755981445313 C 1275.412963867188 1308.796997070313 1275.036987304688 1308.822998046875 1274.655029296875 1308.822998046875 C 1269.0419921875 1308.822998046875 1264.491943359375 1304.27197265625 1264.491943359375 1298.660034179688 C 1264.491943359375 1293.046997070313 1269.0419921875 1288.496948242188 1274.655029296875 1288.496948242188 C 1275.036987304688 1288.496948242188 1275.412963867188 1288.52197265625 1275.784057617188 1288.56298828125 L 1275.784057617188 1274.880981445313 C 1275.412963867188 1274.921997070313 1275.036987304688 1274.947021484375 1274.655029296875 1274.947021484375 C 1269.0419921875 1274.947021484375 1264.491943359375 1270.39697265625 1264.491943359375 1264.784057617188 C 1264.491943359375 1259.171020507813 1269.0419921875 1254.620971679688 1274.655029296875 1254.620971679688 C 1275.036987304688 1254.620971679688 1275.412963867188 1254.64697265625 1275.784057617188 1254.68798828125 L 1275.784057617188 1241.005004882813 C 1275.412963867188 1241.046020507813 1275.036987304688 1241.071044921875 1274.655029296875 1241.071044921875 C 1269.0419921875 1241.071044921875 1264.491943359375 1236.52099609375 1264.491943359375 1230.907958984375 C 1264.491943359375 1225.296020507813 1269.0419921875 1220.745971679688 1274.655029296875 1220.745971679688 C 1275.036987304688 1220.745971679688 1275.412963867188 1220.77099609375 1275.784057617188 1220.81201171875 L 1275.784057617188 1207.129028320313 C 1275.412963867188 1207.170043945313 1275.036987304688 1207.194946289063 1274.655029296875 1207.194946289063 C 1269.0419921875 1207.194946289063 1264.491943359375 1202.64501953125 1264.491943359375 1197.032958984375 C 1264.491943359375 1191.420043945313 1269.0419921875 1186.869995117188 1274.655029296875 1186.869995117188 C 1275.036987304688 1186.869995117188 1275.412963867188 1186.89501953125 1275.784057617188 1186.93603515625 L 1275.784057617188 1173.254028320313 C 1275.412963867188 1173.295043945313 1275.036987304688 1173.319946289063 1274.655029296875 1173.319946289063 C 1269.0419921875 1173.319946289063 1264.491943359375 1168.77001953125 1264.491943359375 1163.156982421875 L 1250.942016601563 1163.156982421875 C 1250.942016601563 1168.77001953125 1246.391967773438 1173.319946289063 1240.779052734375 1173.319946289063 C 1235.1669921875 1173.319946289063 1230.615966796875 1168.77001953125 1230.615966796875 1163.156982421875 L 1217.066040039063 1163.156982421875 C 1217.066040039063 1168.77001953125 1212.515991210938 1173.319946289063 1206.904052734375 1173.319946289063 C 1201.291015625 1173.319946289063 1196.740966796875 1168.77001953125 1196.740966796875 1163.156982421875 L 1183.18994140625 1163.156982421875 C 1183.18994140625 1168.77001953125 1178.640991210938 1173.319946289063 1173.027954101563 1173.319946289063 C 1167.4150390625 1173.319946289063 1162.864990234375 1168.77001953125 1162.864990234375 1163.156982421875 L 1149.31494140625 1163.156982421875 M 1149.31494140625 1153.156982421875 L 1162.864990234375 1153.156982421875 C 1168.387817382813 1153.156982421875 1172.864990234375 1157.634155273438 1172.864990234375 1163.156982421875 C 1172.864990234375 1157.634155273438 1177.667114257813 1153.156982421875 1183.18994140625 1153.156982421875 L 1196.740966796875 1153.156982421875 C 1202.263793945313 1153.156982421875 1206.740966796875 1157.634155273438 1206.740966796875 1163.156982421875 C 1206.740966796875 1157.634155273438 1211.543212890625 1153.156982421875 1217.066040039063 1153.156982421875 L 1230.615966796875 1153.156982421875 C 1236.138793945313 1153.156982421875 1240.615966796875 1157.634155273438 1240.615966796875 1163.156982421875 C 1240.615966796875 1157.634155273438 1245.419189453125 1153.156982421875 1250.942016601563 1153.156982421875 L 1264.491943359375 1153.156982421875 C 1270.014770507813 1153.156982421875 1274.491943359375 1157.634155273438 1274.491943359375 1163.156982421875 C 1274.838745117188 1163.11865234375 1275.187255859375 1163.099853515625 1275.53515625 1163.099853515625 C 1278.0234375 1163.099731445313 1280.500366210938 1164.0615234375 1282.358764648438 1165.725708007813 C 1284.476928710938 1167.622680664063 1285.784057617188 1170.410522460938 1285.784057617188 1173.254028320313 L 1285.784057617188 1186.93603515625 C 1285.784057617188 1189.779541015625 1284.573486328125 1192.488525390625 1282.455322265625 1194.385498046875 C 1280.8603515625 1195.813842773438 1278.8642578125 1196.680053710938 1276.768920898438 1196.887451171875 C 1278.864379882813 1197.138793945313 1280.860229492188 1198.094116210938 1282.455322265625 1199.5224609375 C 1284.573486328125 1201.41943359375 1285.784057617188 1204.285522460938 1285.784057617188 1207.129028320313 L 1285.784057617188 1220.81201171875 C 1285.784057617188 1223.655517578125 1284.573486328125 1226.364501953125 1282.455322265625 1228.261474609375 C 1280.860229492188 1229.68994140625 1278.86376953125 1230.55615234375 1276.768310546875 1230.763549804688 C 1278.864135742188 1231.014770507813 1280.859985351563 1231.970092773438 1282.455200195313 1233.398803710938 C 1284.5732421875 1235.295776367188 1285.784057617188 1238.16162109375 1285.784057617188 1241.005004882813 L 1285.784057617188 1254.68798828125 C 1285.784057617188 1257.531372070313 1284.573608398438 1260.240234375 1282.45556640625 1262.13720703125 C 1280.860595703125 1263.565673828125 1278.864501953125 1264.432006835938 1276.768920898438 1264.639404296875 C 1278.864501953125 1264.890625 1280.860473632813 1265.845947265625 1282.455688476563 1267.2744140625 C 1284.573974609375 1269.17138671875 1285.784057617188 1272.037475585938 1285.784057617188 1274.880981445313 L 1285.784057617188 1288.56298828125 C 1285.784057617188 1291.406372070313 1284.573608398438 1294.115234375 1282.45556640625 1296.01220703125 C 1280.860473632813 1297.440795898438 1278.863891601563 1298.30712890625 1276.768188476563 1298.514526367188 C 1278.863891601563 1298.765747070313 1280.860473632813 1299.72119140625 1282.45556640625 1301.149780273438 C 1284.573608398438 1303.046752929688 1285.784057617188 1305.91259765625 1285.784057617188 1308.755981445313 L 1285.784057617188 1322.43896484375 C 1285.784057617188 1325.282348632813 1284.573608398438 1327.9912109375 1282.45556640625 1329.88818359375 C 1280.6123046875 1331.538940429688 1278.2333984375 1332.43896484375 1275.784423828125 1332.43896484375 C 1275.419311523438 1332.43896484375 1275.052612304688 1332.4189453125 1274.685913085938 1332.378540039063 C 1274.99755859375 1335.204345703125 1273.99755859375 1338.12451171875 1272.1005859375 1340.242065429688 C 1270.20361328125 1342.359741210938 1267.401000976563 1343.6650390625 1264.557983398438 1343.6650390625 L 1250.8759765625 1343.6650390625 C 1248.033203125 1343.6650390625 1245.324584960938 1342.455078125 1243.427734375 1340.337646484375 C 1241.998168945313 1338.741943359375 1241.13134765625 1336.744384765625 1240.92431640625 1334.647583007813 C 1240.673461914063 1336.744384765625 1239.7177734375 1338.741943359375 1238.288208007813 1340.337768554688 C 1236.391357421875 1342.455322265625 1233.526000976563 1343.6650390625 1230.682983398438 1343.6650390625 L 1217 1343.6650390625 C 1214.156982421875 1343.6650390625 1211.448364257813 1342.454956054688 1209.551513671875 1340.337280273438 C 1208.1220703125 1338.741577148438 1207.25537109375 1336.744262695313 1207.04833984375 1334.647583007813 C 1206.79736328125 1336.744262695313 1205.841674804688 1338.741577148438 1204.412353515625 1340.337280273438 C 1202.515380859375 1342.454956054688 1199.650024414063 1343.6650390625 1196.807006835938 1343.6650390625 L 1183.1240234375 1343.6650390625 C 1180.281005859375 1343.6650390625 1177.572387695313 1342.454956054688 1175.675537109375 1340.337280273438 C 1174.245971679688 1338.741455078125 1173.379272460938 1336.743774414063 1173.172241210938 1334.646850585938 C 1172.921264648438 1336.743774414063 1171.965576171875 1338.741455078125 1170.536010742188 1340.337158203125 C 1168.639038085938 1342.45458984375 1165.773803710938 1343.6650390625 1162.931030273438 1343.6650390625 L 1149.2490234375 1343.6650390625 C 1146.406005859375 1343.6650390625 1143.697387695313 1342.454956054688 1141.800537109375 1340.337280273438 C 1139.903564453125 1338.2197265625 1138.997680664063 1335.394775390625 1139.309326171875 1332.56884765625 C 1133.786376953125 1332.56884765625 1129.151977539063 1327.895874023438 1129.151977539063 1322.373046875 L 1129.151977539063 1308.822998046875 C 1129.151977539063 1303.300170898438 1133.629150390625 1298.822998046875 1139.151977539063 1298.822998046875 C 1133.629150390625 1298.822998046875 1129.151977539063 1294.019775390625 1129.151977539063 1288.496948242188 L 1129.151977539063 1274.947021484375 C 1129.151977539063 1269.424194335938 1133.629150390625 1264.947021484375 1139.151977539063 1264.947021484375 C 1133.629150390625 1264.947021484375 1129.151977539063 1260.143798828125 1129.151977539063 1254.620971679688 L 1129.151977539063 1241.071044921875 C 1129.151977539063 1235.548217773438 1133.629150390625 1231.071044921875 1139.151977539063 1231.071044921875 C 1133.629150390625 1231.071044921875 1129.151977539063 1226.268798828125 1129.151977539063 1220.745971679688 L 1129.151977539063 1207.194946289063 C 1129.151977539063 1201.672119140625 1133.629150390625 1197.194946289063 1139.151977539063 1197.194946289063 C 1133.629150390625 1197.194946289063 1129.151977539063 1192.392822265625 1129.151977539063 1186.869995117188 L 1129.151977539063 1173.319946289063 C 1129.151977539063 1167.797119140625 1133.629150390625 1163.319946289063 1139.151977539063 1163.319946289063 C 1139.151977539063 1157.797119140625 1143.792114257813 1153.156982421875 1149.31494140625 1153.156982421875 Z"/>
    </g>
    <g id="组_2615" data-name="组 2615">
      <path id="路径_6016" data-name="路径 6016" class="cls-2" d="M1139.152,1173.32v13.55a10.162,10.162,0,1,1,0,20.325v13.551a10.163,10.163,0,1,1,0,20.325v13.55a10.163,10.163,0,0,1,0,20.326v13.55a10.163,10.163,0,0,1,0,20.326v13.55a10.138,10.138,0,0,1,10.1,11.292h13.682a10.162,10.162,0,1,1,20.193,0h13.683a10.163,10.163,0,1,1,20.193,0h13.683a10.163,10.163,0,1,1,20.193,0h13.682a10.138,10.138,0,0,1,11.226-11.226v-13.683a10.163,10.163,0,1,1,0-20.193v-13.682a10.164,10.164,0,1,1,0-20.193v-13.683a10.163,10.163,0,1,1,0-20.193v-13.683a10.163,10.163,0,1,1,0-20.193v-13.682a10.138,10.138,0,0,1-11.292-10.1h-13.55a10.163,10.163,0,0,1-20.326,0h-13.55a10.163,10.163,0,1,1-20.325,0H1183.19a10.162,10.162,0,1,1-20.325,0h-13.55A10.163,10.163,0,0,1,1139.152,1173.32Z"/>
      <rect id="矩形_1065" data-name="矩形 1065" class="cls-3" width="94.852" height="130.986" transform="translate(1160.042 1182.918)"/>
      <g id="组_2614" data-name="组 2614">
        <path id="路径_6017" data-name="路径 6017" class="cls-4" d="M1193.242,1270.755a.919.919,0,0,0,.971-.957c.021-1,.188-3.573,2.695-3.385.836.167.92.308.826.48,0,0-1.458-.094-1.536.188a2.294,2.294,0,0,0-.695,1.912,10.125,10.125,0,0,1,.071,1.974S1192.528,1273.254,1193.242,1270.755Z"/>
        <path id="路径_6018" data-name="路径 6018" class="cls-5" d="M1184.385,1294.613a.76.76,0,0,0,.491.982,5.416,5.416,0,0,0,4.91-.736,3.518,3.518,0,0,0,.491-.982s.245-.982.736-1.228c.246-.246,0-1.228-.491-1.473S1186.349,1295.1,1184.385,1294.613Z"/>
        <path id="路径_6019" data-name="路径 6019" class="cls-4" d="M1164.743,1243.546s1.165-13.808,22.925-19.671c6.537-1.2,21.168,2.186,25.392,12.525s4.469,16.967-4.369,24.086a28.9,28.9,0,0,1-20.624,2.456c-.245.245-2.209,2.209-4.665-.737l-.736-.982S1161.8,1257.3,1164.743,1243.546Z"/>
        <path id="路径_6020" data-name="路径 6020" class="cls-6" d="M1179.351,1222.309s2.7-26.761,24.306-20.378c9.33,6.138,9.821,14.977,3.192,26.761-.859-.614-14.117-9.7-26.393-2.087C1178.983,1227.342,1179.351,1222.309,1179.351,1222.309Z"/>
        <path id="路径_6021" data-name="路径 6021" class="cls-7" d="M1187.085,1234.707s4.174-7.611,12.03-4.664c3.929,1.964,6.138,9.82,1.719,14.731-2.455,3.928-12.03,10.066-15.958-.737C1183.893,1240.109,1187.085,1234.707,1187.085,1234.707Z"/>
        <path id="路径_6022" data-name="路径 6022" class="cls-8" d="M1209.673,1231.27s19.4-14.24,30.2-8.347c2.455.982,16.7,7.611,7.611,23.078-3.928,5.892-17.186,16.7-33.145,8.593h-.245S1220.475,1245.019,1209.673,1231.27Z"/>
        <path id="路径_6023" data-name="路径 6023" class="cls-9" d="M1213.251,1236.76s14.835-13.346,26.374-8.436,4.911,16.2,3.929,17.432-11.607,14.614-28.391,6.448C1215.565,1250.666,1217.321,1244.706,1213.251,1236.76Z"/>
        <path id="路径_6024" data-name="路径 6024" class="cls-9" d="M1183.25,1225.156s-1.577-15.405,12.365-19.466a8.685,8.685,0,0,1,9.638,3.361c1.658,2.455,2.21,6.015-.245,10.68a34,34,0,0,1-3.37,6.143S1192.427,1221.251,1183.25,1225.156Z"/>
        <path id="路径_6025" data-name="路径 6025" class="cls-7" d="M1173.091,1243.791s-10.066-1.964-1.964-14.73c4.173-4.174,6.138-4.42,9.329-2.456S1183.893,1242.809,1173.091,1243.791Z"/>
        <ellipse id="椭圆_1096" data-name="椭圆 1096" class="cls-10" cx="6.738" cy="5.183" rx="6.738" ry="5.183" transform="translate(1170.29 1240.796) rotate(-72.447)"/>
        <ellipse id="椭圆_1097" data-name="椭圆 1097" class="cls-11" cx="2.331" cy="1.793" rx="2.331" ry="1.793" transform="translate(1172.793 1233.771) rotate(-62.446)"/>
        <ellipse id="椭圆_1098" data-name="椭圆 1098" class="cls-12" cx="3.863" cy="2.971" rx="3.863" ry="2.971" transform="translate(1173.267 1238.722) rotate(-72.447)"/>
        <ellipse id="椭圆_1099" data-name="椭圆 1099" class="cls-13" cx="7.74" cy="5.954" rx="7.74" ry="5.954" transform="translate(1189.386 1246.675) rotate(-72.447)"/>
        <ellipse id="椭圆_1100" data-name="椭圆 1100" class="cls-11" cx="2.609" cy="2.007" rx="2.609" ry="2.007" transform="matrix(0.571, -0.821, 0.821, 0.571, 1192.518, 1238.041)"/>
        <ellipse id="椭圆_1101" data-name="椭圆 1101" class="cls-12" cx="4.437" cy="3.413" rx="4.437" ry="3.413" transform="translate(1192.805 1244.292) rotate(-72.447)"/>
        <path id="路径_6026" data-name="路径 6026" class="cls-14" d="M1177.733,1249.765s3.214,11.213,7.634,13.422c1.964.246,1.964-.736,1.718-1.964s-4.656-13.723-5.519-14.35C1181.566,1246.873,1178.693,1245.181,1177.733,1249.765Z"/>
        <path id="路径_6027" data-name="路径 6027" class="cls-15" d="M1177.036,1243.973s-.262,2.274-2.227,1.537c0,0-1.227.491.982,2.455a5.114,5.114,0,0,0,5.893-1.227s.64-.715.565-.971a16,16,0,0,1-.389-3.571s-.422-1.105-1.9-.614A8.051,8.051,0,0,0,1177.036,1243.973Z"/>
        <path id="路径_6028" data-name="路径 6028" class="cls-7" d="M1175.272,1247.467a4.1,4.1,0,0,0,3.548.864,1.809,1.809,0,0,1-2.046,1.6C1174.809,1249.929,1174.753,1247.7,1175.272,1247.467Z"/>
        <path id="路径_6029" data-name="路径 6029" class="cls-16" d="M1183.4,1262.2s-4.173.491-4.173.737v-.737a1.938,1.938,0,0,0,1.718-2.21c-.245-1.964-3.928-2.209-4.419-.982a2.33,2.33,0,0,0,.491,2.7,2.93,2.93,0,0,0-1.473,3.683c.491.982,5.156.736,5.4.736A34.313,34.313,0,0,0,1183.4,1262.2Z"/>
        <path id="路径_6030" data-name="路径 6030" class="cls-16" d="M1192.487,1259.75s-.737,3.192,2.209,3.437l6.138-5.4s2.455,0,2.946-.737.982-2.7-.491-3.682-4.665-.491-3.928,2.7C1199.361,1256.067,1193.223,1258.768,1192.487,1259.75Z"/>
        <path id="路径_6031" data-name="路径 6031" class="cls-17" d="M1180.764,1262.566l-.062,3.076,3.234-2.864.694.409s-1.228,1.473,0,1.964a23.565,23.565,0,0,1,6.874,4.42c.246.245.983.736,1.474.491a7.744,7.744,0,0,1-.983-3.929s2.677-2.4,2.812-3.043c-.111.1-3.057.1-2.32-3.34-.246,0-3.929,2.21-4.42,3.192l-4.572-.628Z"/>
        <path id="路径_6032" data-name="路径 6032" class="cls-18" d="M1187.822,1291.912s-14.731-4.664-12.031-17.431a20.955,20.955,0,0,1,5.2-9.1c2.653-2.441,3.318-2.985,3.318-2.985l.726.381s-2.009,2.2.264,2.655a25.083,25.083,0,0,1,6.318,4.24s.818.785,1.333.341a9.655,9.655,0,0,1,.515,1.52s4.173-1.964,5.646,1.227.737,4.174.737,4.174l.246.246a1.942,1.942,0,0,0-.492,1.718s-11.539,1.719-10.557,11.294a.859.859,0,0,0,.246.491S1189.54,1291.912,1187.822,1291.912Z"/>
        <path id="路径_6033" data-name="路径 6033" class="cls-19" d="M1187.822,1291.912s-.737,1.228-1.473.983a3.353,3.353,0,0,1,1.964,1.964,1.84,1.84,0,0,0,1.473-1.719,4.57,4.57,0,0,1,.736-.982s.491-1.473-1.227-1.473C1189.3,1290.685,1189.54,1291.912,1187.822,1291.912Z"/>
        <path id="路径_6034" data-name="路径 6034" class="cls-20" d="M1188.428,1284.832c-.212,1.943-.266,4.239.573,4.693.148-1.252.709-5.331,2.486-6.659h0A2.325,2.325,0,0,0,1188.428,1284.832Z"/>
        <path id="路径_6035" data-name="路径 6035" class="cls-21" d="M1186.422,1292.922s-2.037-.027-2.037.955.245,1.473,2.7,1.473c0,0,1.228,0,1.228-.491A3.5,3.5,0,0,0,1186.422,1292.922Z"/>
        <path id="路径_6036" data-name="路径 6036" class="cls-22" d="M1200.052,1277.232s1.028-.3,1.028-1.033c0,0,.245-.982.491-.982s0,.982.491,1.228a4.741,4.741,0,0,1-1.228,2.7,2.031,2.031,0,0,0-.245,1.964v.491s-1.228,0-.983-2.7A1.591,1.591,0,0,1,1200.052,1277.232Z"/>
        <path id="路径_6037" data-name="路径 6037" class="cls-23" d="M1184.776,1254.416s-2.327-.361-2.222,3.634c.373,2.958.469,3.126.848,3.532s1.783,2.13,2.964,1.6,1.108-.975.323-3.3A51.127,51.127,0,0,0,1184.776,1254.416Z"/>
        <path id="路径_6038" data-name="路径 6038" class="cls-24" d="M1201.521,1275.23s.541-1.977,2.259-1.486a.722.722,0,0,1,.737.737l-1.964,2.209a2.491,2.491,0,0,1-.7-.455C1201.816,1276.2,1201.521,1275.23,1201.521,1275.23Z"/>
        <path id="路径_6039" data-name="路径 6039" class="cls-25" d="M1204.517,1274.481a2.839,2.839,0,0,1,0,2.724c-.755,1.609-1.131,1.536-1.3,1.985a9.661,9.661,0,0,0-.4,1.515c-.032.261-1.05,2.011-2.233.9a1.261,1.261,0,0,1,0-.474,1.985,1.985,0,0,1,.209-1.967,4.844,4.844,0,0,0,1.264-2.715C1202.678,1275.129,1203.409,1273.99,1204.517,1274.481Z"/>
        <path id="路径_6040" data-name="路径 6040" class="cls-12" d="M1182.815,1222.356s1.912-1.128,2.633,2.6c.25,0,.428.154.37-.55s-.36-4.067-2.742-2.584C1182.7,1221.99,1182.405,1222.1,1182.815,1222.356Z"/>
        <path id="路径_6041" data-name="路径 6041" class="cls-12" d="M1193.126,1225.349s0,.5.377.2c.172-.361,1.943-3.04,3.29-1.693.392.235.706.157.486-.109S1195.273,1220.977,1193.126,1225.349Z"/>
        <path id="路径_6042" data-name="路径 6042" class="cls-26" d="M1177.51,1240.6s-1.227.491-.736,2.7,2.7.737,3.191.246.982-1.228.491-1.964S1178.247,1240.6,1177.51,1240.6Z"/>
        <path id="路径_6043" data-name="路径 6043" class="cls-27" d="M1182.992,1271.469"/>
        <path id="路径_6044" data-name="路径 6044" class="cls-27" d="M1191.272,1282.591"/>
        <path id="路径_6045" data-name="路径 6045" class="cls-27" d="M1193.134,1271.469"/>
        <path id="路径_6046" data-name="路径 6046" class="cls-27" d="M1179.5,1267.5"/>
        <path id="路径_6047" data-name="路径 6047" class="cls-28" d="M1191.995,1266.133s-1.85.029-2.1-.681c0,.341.791.915,1.183.951.391.108.793.211.929.108C1192,1266.4,1191.995,1266.133,1191.995,1266.133Z"/>
      </g>
      <text id="鼠" class="cls-29" transform="translate(1213.252 1290.686)"><tspan x="0" y="0">鼠</tspan></text>
    </g>
  </g>
</svg>
