<svg xmlns="http://www.w3.org/2000/svg" width="297.305" height="264.966" viewBox="0 0 297.305 264.966">
  <defs>
    <style>
      .cls-1 {
        fill: #3d5b52;
      }
    </style>
  </defs>
  <g id="组_2566" data-name="组 2566" transform="translate(-447.527)">
    <line id="直线_69" data-name="直线 69" class="cls-1" x1="11.05" transform="translate(629.57)"/>
    <path id="路径_5796" data-name="路径 5796" class="cls-1" d="M685.45,153.18c-44.59-4.41-49.78-1.82-56.26,16.08-3.63,13.74,35,35.26,44.6,40.19s50.3,35.26,34.48,45.89-36.82-5.96-49.26-21.52-45.64-54.71-64.05-50.04-27.74,17.11-27.22,24.11-.18,25.15.43,28.95,3.8,16.08-4.67,15.65-4.46-10.63-4.26-12.62,4.17-10.2,4.17-10.2,6.31-31.11-6.22-37.34-24.03,34.75-24.03,34.75-12.96,35.35-21.17,37.25-22.91.26-20.83-14.95,39.32-47.89,43.13-55.15,18.15-33.53-13.49-34.57c-10.04,4.41-12.12,5.97-13.61,4.21s1.82-5.31,2.66-5.96,13.29-17.95-3.83-21.39c-3.86-.77-6.92-1.32-9.49-1.67a37.349,37.349,0,0,0-12.58,0c-2.41.39-5.07,1-8.65,1.73a35.841,35.841,0,0,1-18.73-1.73c-6.53-2.53-10.93-7.09-8.24-13.3,5.06-11.67,12.58-17.51,43.43-14.91,12.06-.91,23.73.51,28.4-12.19s-4.8-21.91-9.99-27.87-10.76-23.86,10.38-23.34c8.55-.01,19.44,14.91,29.55,32.93,1.56,1.9,9.37,8.47,9.14-.17s-2.48-34.58-10.26-62.23Q546.85,6.18,545.54,0h15.58c1.94,16.13,3.83,55.74,4.97,60.44,1.21,5.01,8.65,30.25,27.66,14.69,5.88-6.74,11.76-9.68,13.31-30.94C608.2,28.56,616.07,5.09,629.57,0h11.05a25.131,25.131,0,0,1,5.68,2.88c23.68,15.73-15.82,45.55-15.82,45.55s-30.85,24.63-11.14,46.41c0,0,14.52,11.15,71.04-15.82,12.19-11.41,19.97-9.33,18.41-4.15S685.45,86.28,682.6,87.06s-31.89,9.33-39.41,31.37c-3.32,9.74-.93,14.41,3.82,16.42,5.42,2.3,13.91,1.1,20.41,0,.68-.12,1.33-.23,1.96-.34,11.64-2.02,65.72-16.44,73.88.34a9.568,9.568,0,0,1,.53,1.32C749.76,154.99,730.05,157.59,685.45,153.18Z"/>
    <path id="路径_5797" data-name="路径 5797" class="cls-1" d="M501.487,173.663s-2.074,7.649-8.3,5.834,1.3-8.816,4.149-8.686S501.886,172.552,501.487,173.663Z"/>
    <path id="路径_5798" data-name="路径 5798" class="cls-1" d="M468.817,187.146s11.279-2.333,7.908,7.39S463.5,204.908,460,203.611s-6.223-6.871-4.408-8.816S459.871,188.961,468.817,187.146Z"/>
  </g>
</svg>
