<svg xmlns="http://www.w3.org/2000/svg" width="113.86" height="142.091" viewBox="0 0 113.86 142.091">
  <defs>
    <style>
      .cls-1 {
        fill: #f2ebd9;
      }

      .cls-2 {
        fill: #526dbf;
      }

      .cls-3 {
        fill: #97d2ee;
      }

      .cls-4 {
        fill: #eaeaea;
      }

      .cls-5 {
        fill: #94d3f0;
      }

      .cls-6 {
        fill: #fafdfe;
      }

      .cls-7 {
        fill: #95d2f2;
      }

      .cls-8 {
        fill: #c55a85;
      }

      .cls-9 {
        fill: #774083;
      }

      .cls-10 {
        fill: #edeced;
      }

      .cls-11 {
        fill: #2e282f;
      }

      .cls-12 {
        fill: #7b4086;
      }

      .cls-13 {
        fill: #731018;
      }

      .cls-14 {
        fill: #c5efff;
      }

      .cls-15 {
        fill: #a4e5ff;
      }

      .cls-16 {
        fill: #ffe301;
      }

      .cls-17 {
        fill: #436bfd;
      }

      .cls-18 {
        fill: #adce00;
      }

      .cls-19 {
        fill: #3a65dd;
      }

      .cls-20 {
        fill: #fae20b;
      }

      .cls-21 {
        fill: #add000;
      }

      .cls-22 {
        fill: #d64d49;
      }

      .cls-23 {
        fill: #f0ea05;
      }

      .cls-24 {
        fill: #cecece;
      }

      .cls-25 {
        fill: #e96695;
      }

      .cls-26 {
        fill: none;
        stroke: #325bce;
        stroke-linecap: round;
        stroke-linejoin: round;
      }

      .cls-27 {
        fill: #e0bf00;
      }

      .cls-28 {
        fill: #fff;
        font-size: 23.784px;
        font-family: MicrosoftYaHei-Bold, Microsoft YaHei;
        font-weight: 700;
      }
    </style>
  </defs>
  <g id="组_2526" data-name="组 2526" transform="translate(-77.121 -79.678)">
    <path id="路径_4963" data-name="路径 4963" class="cls-1" d="M77.121,88.147V99.439a8.469,8.469,0,0,1,0,16.938v11.292a8.469,8.469,0,0,1,0,16.938V155.9a8.469,8.469,0,0,1,0,16.938v11.292a8.469,8.469,0,0,1,0,16.938v11.292a8.469,8.469,0,0,1,8.469,8.469,8.37,8.37,0,0,1-.056.941h11.4a8.372,8.372,0,0,1-.056-.941,8.469,8.469,0,1,1,16.938,0,8.614,8.614,0,0,1-.055.941h11.4a8.614,8.614,0,0,1-.055-.941,8.469,8.469,0,1,1,16.938,0,8.614,8.614,0,0,1-.055.941h11.4a8.614,8.614,0,0,1-.055-.941,8.469,8.469,0,1,1,16.938,0,8.614,8.614,0,0,1-.055.941h11.4a8.611,8.611,0,0,1-.055-.941,8.469,8.469,0,0,1,8.469-8.469,8.6,8.6,0,0,1,.941.055v-11.4a8.356,8.356,0,0,1-.941.056,8.469,8.469,0,0,1,0-16.938,8.6,8.6,0,0,1,.941.055v-11.4a8.6,8.6,0,0,1-.941.055,8.469,8.469,0,0,1,0-16.938,8.6,8.6,0,0,1,.941.055v-11.4a8.6,8.6,0,0,1-.941.055,8.469,8.469,0,0,1,0-16.938,8.6,8.6,0,0,1,.941.055v-11.4a8.6,8.6,0,0,1-.941.055,8.469,8.469,0,0,1,0-16.938,8.6,8.6,0,0,1,.941.055v-11.4a8.6,8.6,0,0,1-.941.055,8.469,8.469,0,0,1-8.469-8.469H170.279a8.469,8.469,0,1,1-16.938,0H142.049a8.469,8.469,0,1,1-16.938,0H113.819a8.469,8.469,0,0,1-16.938,0H85.59A8.469,8.469,0,0,1,77.121,88.147Z"/>
    <rect id="矩形_1042" data-name="矩形 1042" class="cls-2" width="79.044" height="109.155" transform="translate(94.529 96.146)"/>
    <g id="组_2525" data-name="组 2525">
      <path id="路径_4964" data-name="路径 4964" class="cls-3" d="M122.2,169.344a.766.766,0,0,0,.809-.8c.017-.836.156-2.978,2.246-2.821.7.139.766.257.688.4,0,0-1.215-.079-1.28.156a1.911,1.911,0,0,0-.579,1.594,8.391,8.391,0,0,1,.059,1.644S121.6,171.426,122.2,169.344Z"/>
      <path id="路径_4965" data-name="路径 4965" class="cls-4" d="M114.814,189.225a.635.635,0,0,0,.41.819,4.514,4.514,0,0,0,4.091-.614,2.917,2.917,0,0,0,.41-.818s.2-.819.613-1.023c.205-.205,0-1.023-.409-1.228S116.451,189.635,114.814,189.225Z"/>
      <path id="路径_4966" data-name="路径 4966" class="cls-3" d="M98.447,146.669s.97-11.506,19.1-16.392c5.448-1,17.641,1.822,21.161,10.437s3.724,14.139-3.642,20.072a24.076,24.076,0,0,1-17.186,2.046c-.2.205-1.841,1.842-3.887-.613l-.614-.819S95.991,158.127,98.447,146.669Z"/>
      <path id="路径_4967" data-name="路径 4967" class="cls-5" d="M110.62,128.972s2.251-22.3,20.255-16.982c7.775,5.115,8.184,12.481,2.66,22.3-.716-.511-11.764-8.081-21.994-1.739C110.313,133.166,110.62,128.972,110.62,128.972Z"/>
      <path id="路径_4968" data-name="路径 4968" class="cls-6" d="M117.065,139.3s3.478-6.343,10.025-3.887c3.274,1.636,5.115,8.183,1.432,12.275-2.046,3.274-10.025,8.389-13.3-.613C114.4,143.8,117.065,139.3,117.065,139.3Z"/>
      <path id="路径_4969" data-name="路径 4969" class="cls-7" d="M135.888,136.439s16.163-11.866,25.165-6.956c2.046.819,13.913,6.343,6.343,19.232-3.274,4.911-14.322,13.913-27.621,7.161h-.2S144.89,147.9,135.888,136.439Z"/>
      <path id="路径_4970" data-name="路径 4970" class="cls-8" d="M138.87,141.015s12.363-11.123,21.979-7.031,4.092,13.5,3.273,14.527-9.672,12.179-23.659,5.373C140.8,152.6,142.261,147.636,138.87,141.015Z"/>
      <path id="路径_4971" data-name="路径 4971" class="cls-8" d="M113.869,131.344s-1.314-12.837,10.3-16.221a7.237,7.237,0,0,1,8.032,2.8c1.381,2.046,1.841,5.013-.205,8.9a28.326,28.326,0,0,1-2.807,5.119S121.517,128.09,113.869,131.344Z"/>
      <path id="路径_4972" data-name="路径 4972" class="cls-6" d="M105.4,146.874s-8.389-1.637-1.637-12.276c3.478-3.478,5.115-3.683,7.775-2.046S114.4,146.056,105.4,146.874Z"/>
      <ellipse id="椭圆_916" data-name="椭圆 916" class="cls-9" cx="5.615" cy="4.319" rx="5.615" ry="4.319" transform="translate(103.069 144.378) rotate(-72.447)"/>
      <ellipse id="椭圆_917" data-name="椭圆 917" class="cls-10" cx="1.943" cy="1.494" rx="1.943" ry="1.494" transform="translate(105.154 138.524) rotate(-62.446)"/>
      <ellipse id="椭圆_918" data-name="椭圆 918" class="cls-11" cx="3.219" cy="2.476" rx="3.219" ry="2.476" transform="translate(105.55 142.649) rotate(-72.447)"/>
      <ellipse id="椭圆_919" data-name="椭圆 919" class="cls-12" cx="6.45" cy="4.961" rx="6.45" ry="4.961" transform="translate(118.982 149.277) rotate(-72.447)"/>
      <ellipse id="椭圆_920" data-name="椭圆 920" class="cls-10" cx="2.174" cy="1.673" rx="2.174" ry="1.673" transform="matrix(0.571, -0.821, 0.821, 0.571, 121.593, 142.082)"/>
      <ellipse id="椭圆_921" data-name="椭圆 921" class="cls-11" cx="3.697" cy="2.844" rx="3.697" ry="2.844" transform="translate(121.831 147.291) rotate(-72.447)"/>
      <path id="路径_4973" data-name="路径 4973" class="cls-13" d="M109.271,151.852s2.679,9.344,6.362,11.185c1.637.205,1.637-.614,1.432-1.637s-3.88-11.436-4.6-11.958C112.465,149.442,110.071,148.032,109.271,151.852Z"/>
      <path id="路径_4974" data-name="路径 4974" class="cls-14" d="M108.691,147.025s-.219,1.9-1.856,1.281c0,0-1.023.409.818,2.046a4.262,4.262,0,0,0,4.911-1.023s.533-.6.471-.809a13.309,13.309,0,0,1-.324-2.976s-.352-.921-1.579-.511A6.7,6.7,0,0,0,108.691,147.025Z"/>
      <path id="路径_4975" data-name="路径 4975" class="cls-6" d="M107.221,149.937a3.417,3.417,0,0,0,2.956.72,1.507,1.507,0,0,1-1.705,1.332C106.835,151.989,106.788,150.135,107.221,149.937Z"/>
      <path id="路径_4976" data-name="路径 4976" class="cls-15" d="M114,162.219a20.731,20.731,0,0,0-3.478.613v-.613a1.616,1.616,0,0,0,1.432-1.842c-.2-1.636-3.274-1.841-3.683-.818a1.941,1.941,0,0,0,.409,2.25,2.441,2.441,0,0,0-1.227,3.069c.409.819,4.3.614,4.5.614A28.589,28.589,0,0,0,114,162.219Z"/>
      <path id="路径_4977" data-name="路径 4977" class="cls-15" d="M121.566,160.173s-.614,2.659,1.841,2.864l5.115-4.5s2.046,0,2.455-.614.819-2.25-.409-3.069-3.887-.409-3.273,2.251C127.295,157.1,122.18,159.354,121.566,160.173Z"/>
      <path id="路径_4978" data-name="路径 4978" class="cls-16" d="M111.8,162.519l-.052,2.564,2.7-2.387.578.341s-1.023,1.228,0,1.637a19.642,19.642,0,0,1,5.729,3.683c.2.2.818.613,1.227.409a6.466,6.466,0,0,1-.818-3.274s2.231-2,2.343-2.536c-.093.081-2.548.081-1.934-2.783-.205,0-3.274,1.841-3.683,2.659l-3.81-.523Z"/>
      <path id="路径_4979" data-name="路径 4979" class="cls-17" d="M117.679,186.975s-12.276-3.887-10.026-14.527a17.463,17.463,0,0,1,4.337-7.581c2.211-2.035,2.765-2.487,2.765-2.487l.6.317s-1.673,1.835.221,2.213a20.871,20.871,0,0,1,5.264,3.533s.682.654,1.111.284a7.941,7.941,0,0,1,.429,1.266s3.479-1.636,4.706,1.023.614,3.478.614,3.478l.2.205a1.62,1.62,0,0,0-.41,1.432s-9.616,1.432-8.8,9.412a.716.716,0,0,0,.2.409S119.111,186.975,117.679,186.975Z"/>
      <path id="路径_4980" data-name="路径 4980" class="cls-18" d="M117.679,186.975s-.614,1.023-1.228.818a2.794,2.794,0,0,1,1.637,1.637A1.532,1.532,0,0,0,119.315,188a3.847,3.847,0,0,1,.614-.819s.409-1.227-1.023-1.227C118.906,185.952,119.111,186.975,117.679,186.975Z"/>
      <path id="路径_4981" data-name="路径 4981" class="cls-19" d="M118.184,181.075c-.177,1.619-.221,3.532.477,3.91.124-1.043.591-4.442,2.072-5.549h0A1.938,1.938,0,0,0,118.184,181.075Z"/>
      <path id="路径_4982" data-name="路径 4982" class="cls-20" d="M116.512,187.816s-1.7-.023-1.7.8.2,1.227,2.251,1.227c0,0,1.023,0,1.023-.409A2.912,2.912,0,0,0,116.512,187.816Z"/>
      <path id="路径_4983" data-name="路径 4983" class="cls-21" d="M127.87,174.741s.857-.247.857-.86c0,0,.205-.819.409-.819s0,.819.409,1.023a3.945,3.945,0,0,1-1.023,2.251,1.693,1.693,0,0,0-.2,1.637v.409s-1.023,0-.819-2.251A1.326,1.326,0,0,1,127.87,174.741Z"/>
      <path id="路径_4984" data-name="路径 4984" class="cls-22" d="M115.14,155.728s-1.938-.3-1.851,3.028c.31,2.465.391,2.6.707,2.943s1.486,1.776,2.47,1.338.923-.813.268-2.746A42.346,42.346,0,0,0,115.14,155.728Z"/>
      <path id="路径_4985" data-name="路径 4985" class="cls-23" d="M129.1,173.073s.45-1.647,1.882-1.238a.6.6,0,0,1,.614.613l-1.637,1.842a2.093,2.093,0,0,1-.583-.38C129.341,173.881,129.1,173.073,129.1,173.073Z"/>
      <path id="路径_4986" data-name="路径 4986" class="cls-24" d="M131.591,172.448a2.369,2.369,0,0,1,0,2.271c-.629,1.34-.942,1.279-1.081,1.654a7.982,7.982,0,0,0-.331,1.262c-.026.218-.875,1.676-1.861.747a1.05,1.05,0,0,1,0-.4,1.654,1.654,0,0,1,.174-1.639,4.034,4.034,0,0,0,1.053-2.263C130.059,172.988,130.668,172.039,131.591,172.448Z"/>
      <path id="路径_4987" data-name="路径 4987" class="cls-11" d="M113.506,129.011s1.593-.94,2.194,2.168c.209,0,.357.128.309-.458s-.3-3.39-2.285-2.154C113.41,128.706,113.164,128.8,113.506,129.011Z"/>
      <path id="路径_4988" data-name="路径 4988" class="cls-11" d="M122.1,131.505s0,.418.314.17c.143-.3,1.619-2.534,2.742-1.41.327.2.588.13.4-.092S123.888,127.862,122.1,131.505Z"/>
      <path id="路径_4989" data-name="路径 4989" class="cls-25" d="M109.086,144.214s-1.023.409-.614,2.251,2.25.614,2.66.2.818-1.023.409-1.636S109.7,144.214,109.086,144.214Z"/>
      <path id="路径_4990" data-name="路径 4990" class="cls-26" d="M113.654,169.939"/>
      <path id="路径_4991" data-name="路径 4991" class="cls-26" d="M120.554,179.207"/>
      <path id="路径_4992" data-name="路径 4992" class="cls-26" d="M122.106,169.939"/>
      <path id="路径_4993" data-name="路径 4993" class="cls-26" d="M110.746,166.631"/>
      <path id="路径_4994" data-name="路径 4994" class="cls-27" d="M121.157,165.492s-1.542.024-1.754-.568c0,.284.659.763.986.793.326.09.661.176.774.09C121.163,165.717,121.157,165.492,121.157,165.492Z"/>
    </g>
    <text id="鼠" class="cls-28" transform="translate(138.87 185.953)"><tspan x="0" y="0">鼠</tspan></text>
  </g>
</svg>
