<svg xmlns="http://www.w3.org/2000/svg" width="608.54" height="490.12" viewBox="0 0 608.54 490.12">
  <defs>
    <style>
      .cls-1 {
        fill: #3d5b52;
      }
    </style>
  </defs>
  <g id="组_2573" data-name="组 2573" transform="translate(-236.779 -140.42)">
    <g id="组_2569" data-name="组 2569">
      <path id="路径_5803" data-name="路径 5803" class="cls-1" d="M406.37,332.458s5.186-14.175,28-5.186c23.164,11.063,24.417,16.378,32.844,16.508s15.3-1.037,16.465-15.687,13.742-14.52,20.225-6.223c2.593,3.63,17.891,32.671,29.559,12.316,1.815-17.243,10.89-25.54,20.614-20.1s7.26,14.909,4.926,28.522c-.778,11.279,2.2,20.743,21.392,22.818,19.057,0,28.262,4.667,27.225,10.89s-7.13,7.519-18.15,9.723c-5.575,2.723-12.446,10.113-10.242,21.911s8.816,21.132,20.224,32.022c9.594,12.446,21,34.1,17.762,56.266-2.593,16.076-19.058,10.5-18.8-1.556s5.834-15.557,3.63-22.947-8.556-21.651-20.613-28.781c-9.335-7.131-19.577-21.91-30.078.778-1.426,18.928-4.278,26.966-9.983,36.171-4.278,10.631-.259,32.022,1.815,41.746s-1.167,43.69-1.944,51.339,2.2,18.28,4.8,23.207-.388,16.595-10.63,8.427c0,0-5.316-1.945-3.5-24.244.648-2.463,5.316-29.689,3.241-49.4s-3.5-42.912-3.371-55.358,4.279-35.783-12.705-36.561c-9.853,1.556-16.724,7.52-17.761,27.615-.26,7,0,18.28,6.223,36.819s12.057,43.432,3.5,49.136-12.187-6.871-10.76-11.668,5.185-19.836,3.759-23.466-9.334-31.115-9.205-41.1,2.075-28.262,2.075-29.17-5.316,1.426-6.742,2.593-17.372,12.576-12.316,39.023c5.056,6.872,11.02,29.43-7.131,30.078S451.66,494.3,453.863,485.742s15.169-27.615,24.5-37.857c.389-2.593,1.945-6.352-6.741-13.612s-10.112-7.39-12.446-9.983-8.168,2.852-10.761,3.111-.389-4.278.26-8.427.389-4.926-2.593-4.019-14,8.168-13.743,21.262c.26,3.63-.475,4.711.13,5.4s1.988-2.161,5.186-1.642,6.741,1.729,8.211,3.284,3.975,1.729,5.013-1.988,7.519-8.21,10.717-3.111-4.927,10.631-8.989,11.5-5.877,3.025-3.976,4.84,8.3,3.717,8.73,6.223-1.469,8.73-8.557,6.483-8.988-17.114-9.766-19.015-7.347-3.371-8.211,1.3-.692,42.006-5.791,56.094c-1.9,11.408-8.384,29.472,3.111,38.288s8.211,34.659-4.753,32.671-10.89-26.621-11.323-32.844,4.495-50.3,7.088-61.884-1.037-41.141-2.075-46.154,2.939-38.893,26.448-45.635,16.6-23.509,4.667-29.04S399.974,347.5,406.37,332.458Z"/>
      <path id="路径_5804" data-name="路径 5804" class="cls-1" d="M370.242,406.528s-2.593-23.854,28-20.484c14.779,3.631,14.52,26.707-7.779,33.19S370.242,406.528,370.242,406.528Z"/>
      <path id="路径_5805" data-name="路径 5805" class="cls-1" d="M640.541,373.066s7.633-9.269-2.564-12.554-20.424,9.611-20.194,14.9,4.581,7.609,7.78,7.142A24.469,24.469,0,0,0,640.541,373.066Z"/>
      <path id="路径_5806" data-name="路径 5806" class="cls-1" d="M514.662,300.52s-4.836-6.146-8.638.868,2.991,15.285,6.495,15.525a5.664,5.664,0,0,0,5.938-5A16.061,16.061,0,0,0,514.662,300.52Z"/>
      <path id="路径_5807" data-name="路径 5807" class="cls-1" d="M441.009,271.255s-20.188-10.049-21.778,10.9,26.332,34.19,35.881,31.209a14.163,14.163,0,0,0,9.663-18.215C462.543,289.3,454.952,277.176,441.009,271.255Z"/>
      <path id="路径_5808" data-name="路径 5808" class="cls-1" d="M570.515,544.476s3.393-6-3.545-6.762-11.413,7.546-10.455,10.488a4.933,4.933,0,0,0,6.005,3.178A14.146,14.146,0,0,0,570.515,544.476Z"/>
      <path id="路径_5809" data-name="路径 5809" class="cls-1" d="M600.363,415.085s-8.946-8.3.907-9.723,17.892,7.519,17.892,9.723-2.334,4.538-6.612,4.538S600.363,415.085,600.363,415.085Z"/>
    </g>
    <g id="组_2570" data-name="组 2570">
      <path id="路径_5810" data-name="路径 5810" class="cls-1" d="M351.129,379.81s30.855,24.633,11.149,46.413c0,0-14.52,11.15-71.045-15.816-12.187-11.409-19.966-9.335-18.41-4.149s23.336,11.409,26.188,12.187,31.893,9.334,39.413,31.374-14.261,18.15-26.189,16.076-68.453-17.173-74.416,1.656,13.742,21.421,58.34,17.013,49.784-1.815,56.266,16.076c3.63,13.742-35,35.263-44.6,40.19s-50.3,35.264-34.486,45.894,36.82-5.963,49.266-21.521,45.635-54.71,64.045-50.043,27.744,17.113,27.225,24.114.173,25.151-.432,28.954-3.8,16.076,4.667,15.644,4.466-10.631,4.264-12.619-4.177-10.2-4.177-10.2-6.31-31.115,6.223-37.338,24.027,34.745,24.027,34.745,12.965,35.35,21.176,37.251,22.9.26,20.83-14.952-39.326-47.883-43.129-55.143-18.151-33.535,13.483-34.572c10.047,4.408,12.122,5.964,13.613,4.214s-1.815-5.316-2.658-5.964-13.289-17.956,3.825-21.392,18.669-2.4,30.726.065,32.022-3.371,26.966-15.039-12.576-17.5-43.431-14.909c-12.057-.908-23.726.519-28.393-12.187s4.8-21.91,9.983-27.873,10.76-23.855-10.372-23.337c-8.556-.011-19.447,14.91-29.559,32.93-1.556,1.9-9.363,8.47-9.133-.173s2.478-34.572,10.257-62.229,7.26-41.141-.519-42.006-9.162,11.755-11.236,25.411-4.149,58.254-5.359,63.267-8.643,30.251-27.657,14.693c-5.878-6.741-11.755-9.68-13.311-30.942s-15.557-57.044-39.239-41.314S351.129,379.81,351.129,379.81Z"/>
      <path id="路径_5811" data-name="路径 5811" class="cls-1" d="M480.126,505.048s2.074,7.649,8.3,5.834-1.3-8.816-4.148-8.686S479.727,503.937,480.126,505.048Z"/>
      <path id="路径_5812" data-name="路径 5812" class="cls-1" d="M512.8,518.531s-11.279-2.334-7.909,7.39,13.224,10.371,16.725,9.075,6.223-6.871,4.408-8.816S521.742,520.346,512.8,518.531Z"/>
    </g>
    <g id="组_2571" data-name="组 2571">
      <path id="路径_5813" data-name="路径 5813" class="cls-1" d="M658.772,222.152s-5.185-14.175-28-5.186c-23.163,11.063-24.417,16.378-32.844,16.508s-15.3-1.037-16.465-15.687-13.742-14.52-20.224-6.223c-2.593,3.63-17.891,32.671-29.559,12.316-1.816-17.243-10.891-25.54-20.614-20.1s-7.26,14.91-4.927,28.522c.778,11.279-2.2,20.744-21.391,22.818-19.058,0-28.263,4.667-27.226,10.89s7.131,7.52,18.151,9.724c5.574,2.722,12.446,10.112,10.242,21.91s-8.816,21.132-20.225,32.022c-9.594,12.446-21,34.1-17.762,56.266,2.593,16.076,19.058,10.5,18.8-1.555s-5.834-15.558-3.63-22.948,8.557-21.651,20.614-28.781c9.334-7.131,19.576-21.91,30.077.778,1.427,18.928,4.279,26.966,9.983,36.171,4.278,10.631.259,32.022-1.815,41.746s1.167,43.69,1.945,51.339-2.2,18.281-4.8,23.207.389,16.6,10.631,8.427c0,0,5.315-1.945,3.5-24.244-.648-2.463-5.315-29.689-3.241-49.395s3.5-42.912,3.371-55.358-4.278-35.783,12.705-36.56c9.853,1.555,16.724,7.519,17.762,27.614.259,7,0,18.28-6.223,36.819s-12.057,43.432-3.5,49.136,12.187-6.871,10.761-11.668-5.186-19.836-3.76-23.466,9.335-31.115,9.2-41.1-2.074-28.263-2.074-29.171,5.315,1.426,6.741,2.593,17.373,12.576,12.316,39.024c-5.056,6.871-11.019,29.429,7.131,30.077s19.058-24.632,16.854-33.189-15.169-27.614-24.5-37.856c-.389-2.593-1.945-6.353,6.741-13.613s10.113-7.39,12.446-9.983,8.168,2.852,10.761,3.112.389-4.279-.259-8.427-.389-4.927,2.593-4.019,14,8.167,13.742,21.261c-.259,3.63.475,4.711-.13,5.4s-1.987-2.16-5.185-1.642-6.742,1.729-8.211,3.284-3.976,1.729-5.013-1.987-7.52-8.211-10.718-3.112,4.927,10.631,8.989,11.5,5.877,3.025,3.976,4.84-8.3,3.717-8.73,6.223,1.47,8.73,8.557,6.483,8.989-17.114,9.767-19.015,7.346-3.371,8.211,1.3.691,42.006,5.79,56.094c1.9,11.409,8.384,29.473-3.111,38.288s-8.211,34.659,4.754,32.671,10.89-26.62,11.322-32.843-4.494-50.3-7.087-61.885,1.037-41.14,2.074-46.153-2.939-38.894-26.448-45.636-16.594-23.509-4.667-29.04S665.168,237.191,658.772,222.152Z"/>
      <path id="路径_5814" data-name="路径 5814" class="cls-1" d="M694.9,296.223s2.593-23.855-28-20.484c-14.78,3.63-14.52,26.707,7.779,33.189S694.9,296.223,694.9,296.223Z"/>
      <path id="路径_5815" data-name="路径 5815" class="cls-1" d="M424.6,262.76s-7.633-9.269,2.564-12.554,20.424,9.611,20.194,14.9-4.581,7.609-7.78,7.142A24.474,24.474,0,0,1,424.6,262.76Z"/>
      <path id="路径_5816" data-name="路径 5816" class="cls-1" d="M550.48,190.214s4.837-6.146,8.639.868-2.992,15.285-6.5,15.526a5.667,5.667,0,0,1-5.938-5A16.067,16.067,0,0,1,550.48,190.214Z"/>
      <path id="路径_5817" data-name="路径 5817" class="cls-1" d="M624.133,160.949s20.189-10.049,21.778,10.9-26.332,34.19-35.881,31.209a14.163,14.163,0,0,1-9.663-18.215C602.6,178.994,610.191,166.87,624.133,160.949Z"/>
      <path id="路径_5818" data-name="路径 5818" class="cls-1" d="M494.628,434.17s-3.394-6,3.545-6.762,11.412,7.547,10.455,10.488a4.935,4.935,0,0,1-6.006,3.178A14.14,14.14,0,0,1,494.628,434.17Z"/>
      <path id="路径_5819" data-name="路径 5819" class="cls-1" d="M464.779,304.779s8.946-8.3-.907-9.723-17.891,7.519-17.891,9.723,2.333,4.538,6.612,4.538S464.779,304.779,464.779,304.779Z"/>
    </g>
    <g id="组_2572" data-name="组 2572">
      <path id="路径_5820" data-name="路径 5820" class="cls-1" d="M730.968,217.125s-30.855,24.633-11.149,46.414c0,0,14.52,11.149,71.045-15.817,12.187-11.409,19.966-9.335,18.41-4.149s-23.336,11.409-26.188,12.187-31.893,9.334-39.413,31.374,14.261,18.15,26.189,16.076,68.453-17.172,74.416,1.656-13.742,21.421-58.34,17.013-49.784-1.815-56.266,16.076c-3.63,13.743,35,35.264,44.6,40.19s50.3,35.264,34.486,45.9-36.82-5.964-49.266-21.521-45.635-54.711-64.045-50.044S667.7,369.589,668.22,376.589s-.173,25.152.432,28.955,3.8,16.076-4.667,15.644-4.466-10.631-4.264-12.619,4.177-10.2,4.177-10.2,6.31-31.115-6.223-37.338-24.027,34.745-24.027,34.745-12.965,35.35-21.176,37.251-22.9.26-20.83-14.952,39.326-47.882,43.129-55.143,18.151-33.535-13.483-34.572c-10.048,4.408-12.122,5.964-13.613,4.214s1.815-5.316,2.658-5.964,13.289-17.956-3.825-21.391-18.669-2.4-30.726.064-32.022-3.37-26.966-15.038,12.576-17.5,43.431-14.91c12.057-.907,23.726.519,28.393-12.186s-4.8-21.911-9.983-27.874S599.9,211.421,621.029,211.94c8.556-.011,19.447,14.909,29.559,32.93,1.556,1.9,9.363,8.47,9.133-.173s-2.478-34.572-10.257-62.23-7.26-41.141.519-42,9.162,11.754,11.236,25.41,4.149,58.254,5.359,63.267,8.643,30.251,27.657,14.693c5.878-6.741,11.755-9.68,13.311-30.942s15.557-57.044,39.239-41.313S730.968,217.125,730.968,217.125Z"/>
      <path id="路径_5821" data-name="路径 5821" class="cls-1" d="M601.971,342.363s-2.075,7.649-8.3,5.834,1.3-8.816,4.148-8.686S602.37,341.252,601.971,342.363Z"/>
      <path id="路径_5822" data-name="路径 5822" class="cls-1" d="M569.3,355.846s11.279-2.333,7.909,7.39-13.224,10.372-16.725,9.075-6.223-6.871-4.408-8.816S560.355,357.661,569.3,355.846Z"/>
    </g>
    <path id="路径_5823" data-name="路径 5823" class="cls-1" d="M392.738,239c-.727,1.58-7.26,19.317-32.023-6.612,0,0-25.021-22.429-31.892-36.041s-20.614-28.263-28.652-22.04,25.281,33.578,28.652,38.505,28.133,27.873,22.817,40.319-12.316,4.927-14.131,4.927.778,1.426,1.944,5.834-2.592,5.575-4.537,4.408-2.2-1.426-.519,2.593,3.5,16.076-23.466,9.594c-20.484-6.612-32.93-13.354-50.95-11.539,0,0-12.187,1.815.518,9.2,12.835,5.575,34.227,6.093,38.764,8.168s19.836,8.038,11.539,16.076c-8.686,2.463-13.613-.13-13.872-.908s-14.261-2.332-13.872,1.945,5.185,6.352,8.038,6.741,8.038.13,11.149.908,12.057,2.852,10.5,13.224-7.13,6.223-13.094,4.667-7.778,2.334-7.778,4.149,2.592,3.241,6.482,3.63,10.5-.389,9.334,5.186c-2.463,2.074-2.852,4.537-9.205,5.445S264.778,363.846,264,381.607s18.539,4.278,24.243-6.871,17.163-21.521,35.483-16.6c4.189,2.593,6.523,10.113,3.8,15.039s-.13,9.075,5.056,6.353,8.816-6.223,9.075-.778c-1.555,4.8-9.464,20.743-2.463,20.225s11.8-9.724,12.446-11.02,6.353-5.575,8.3,1.685c.778,6.871.778,10.372,6.612,8.168,5.316-.13,7-2.334,7,2.593s-1.037,10.674,3.63,8.427c0,0,.865-4.322,4.495-3.976s1.642,4.667.345,6.914-7.173,35.782-1.469,53.069c4.667,14.347,13.051,21.089,16.854,10.371s.864-15.471-2.766-27.312.432-26.62,2.334-29.473,5.531-17.459,15.644-13.223a34.156,34.156,0,0,1,3.284,6.568c1.556,4.062,10.8,18.237,15.644,10.718s-3.8-13.656-4.667-16.768-1.037-8.124,5.013-7.951,12.705,1.728,11.927-4.408,3.112-8.9,7.779-7c2.679.432,10.026,2.766,19.965,19.965s19.447,26.448,26.794,18.41-2.42-17.286-13.224-27.053-20.484-19.965-17.978-26.015,9.681-14,21.435-8.816,32.5,7.433,25.583-5.964c-6.741-4.494-19.36-.778-21.953-3.889s-.6-8.643,5.272-9.335,11.928-6.4,5.359-10.458-8.643-8.47-5.964-11.495,10.113-10.8,1.9-13.138c-3.284-.777-15.212-4.408-7.952-15.3,2.161-.951,1.988-1.469,11.15-1.556s12.964-3.889,9.766-10.458c-8.556-3.2-11.236-2.16-17.026-1.21s-9.335-.172-9.335-2.593c-1.037-2.592-4.408-9.593,8.038-17.372s19.188-15.3,14-20.4-9.075-4.753-13.743-2.765S477.872,250.406,473.9,253.6s-8.9,7.173-14.693,4.926.086-9.766,1.123-11.409,10.718-8.729,4.754-15.211-14.607,8.9-15.817,10.2-9.421,5.186-14.174-.95-4.581-12.273-11.5-7.779-10.371,7-17.113,2.593S396.714,230.354,392.738,239Z"/>
    <path id="路径_5824" data-name="路径 5824" class="cls-1" d="M566.039,393.754c-.729,1.549-7.287,18.942-32.142-6.484,0,0-25.115-21.993-32.012-35.341s-20.69-27.713-28.759-21.611,25.376,32.925,28.759,37.756,28.238,27.332,22.9,39.536-12.362,4.831-14.184,4.831.781,1.4,1.952,5.721-2.6,5.466-4.555,4.322-2.212-1.4-.52,2.543,3.513,15.763-23.554,9.407c-20.56-6.483-33.053-13.094-51.141-11.314,0,0-12.232,1.78.521,9.026,12.883,5.466,34.354,5.975,38.909,8.009s19.909,7.882,11.581,15.763c-8.719,2.416-13.663-.127-13.924-.889s-14.314-2.287-13.924,1.907,5.206,6.229,8.068,6.61,8.068.127,11.192.89,12.1,2.8,10.54,12.967-7.157,6.1-13.143,4.576-7.808,2.289-7.808,4.068,2.6,3.179,6.507,3.56,10.54-.381,9.369,5.085c-2.472,2.034-2.863,4.449-9.239,5.339S437.6,516.176,436.82,533.593s18.609,4.2,24.335-6.738,17.226-21.1,35.615-16.272c4.2,2.542,6.547,9.916,3.814,14.746s-.13,8.9,5.075,6.23,8.849-6.1,9.109-.763c-1.561,4.7-9.5,20.34-2.472,19.832s11.841-9.535,12.492-10.806,6.377-5.467,8.328,1.652c.781,6.738.781,10.171,6.637,8.009,5.335-.127,7.027-2.288,7.027,2.543s-1.041,10.467,3.644,8.263c0,0,.867-4.237,4.511-3.9s1.648,4.576.347,6.78-7.2,35.087-1.475,52.037c4.685,14.068,13.1,20.679,16.917,10.17s.868-15.171-2.776-26.781.434-26.1,2.342-28.9,5.552-17.12,15.7-12.967a33.158,33.158,0,0,1,3.3,6.441c1.562,3.983,10.844,17.882,15.7,10.509s-3.818-13.391-4.685-16.442-1.041-7.966,5.032-7.8,12.752,1.7,11.972-4.322,3.123-8.73,7.807-6.865c2.69.424,10.064,2.712,20.04,19.577s19.52,25.934,26.894,18.052-2.429-16.95-13.273-26.527-20.561-19.577-18.045-25.51,9.716-13.729,21.515-8.644,32.619,7.288,25.679-5.848c-6.767-4.407-19.433-.763-22.036-3.814s-.607-8.475,5.292-9.153,11.972-6.272,5.379-10.255-8.675-8.3-5.986-11.272,10.15-10.594,1.909-12.882c-3.3-.763-15.269-4.322-7.982-15,2.169-.932,2-1.441,11.192-1.525s13.013-3.814,9.8-10.255c-8.589-3.136-11.278-2.119-17.091-1.187s-9.369-.169-9.369-2.542c-1.041-2.543-4.424-9.408,8.068-17.035s19.259-15,14.054-20-9.109-4.662-13.794-2.712-15.876,13.221-19.866,16.357-8.936,7.034-14.748,4.83.086-9.576,1.128-11.187,10.757-8.56,4.771-14.916-14.661,8.729-15.876,10-9.456,5.085-14.227-.933-4.6-12.034-11.539-7.627-10.41,6.865-17.177,2.542S570.03,385.279,566.039,393.754Z"/>
    <path id="路径_5825" data-name="路径 5825" class="cls-1" d="M661.9,312.066c.727,1.58,7.26,19.317,32.022-6.612,0,0,25.022-22.429,31.893-36.041s20.614-28.263,28.652-22.04-25.281,33.578-28.652,38.5S697.682,313.751,703,326.2s12.317,4.927,14.132,4.927-.778,1.426-1.945,5.834,2.593,5.575,4.538,4.408,2.2-1.426.518,2.593-3.5,16.076,23.466,9.594c20.484-6.612,32.93-13.354,50.951-11.539,0,0,12.186,1.815-.519,9.2-12.835,5.575-34.226,6.093-38.764,8.168s-19.836,8.038-11.538,16.076c8.686,2.463,13.612-.13,13.872-.908s14.261-2.332,13.872,1.946-5.186,6.351-8.038,6.74-8.038.13-11.15.908-12.057,2.852-10.5,13.224,7.13,6.223,13.094,4.667,7.779,2.334,7.779,4.149-2.593,3.241-6.482,3.63-10.5-.389-9.335,5.186c2.463,2.074,2.852,4.537,9.2,5.445s33.708,16.465,34.486,34.226-18.54,4.278-24.244-6.871-17.163-21.521-35.483-16.6c-4.189,2.593-6.522,10.113-3.8,15.039s.13,9.075-5.056,6.353-8.816-6.223-9.075-.778c1.556,4.8,9.464,20.743,2.463,20.225s-11.8-9.724-12.446-11.02-6.352-5.575-8.3,1.685c-.778,6.871-.778,10.372-6.612,8.168-5.315-.13-7-2.334-7,2.593s1.037,10.674-3.63,8.427c0,0-.864-4.322-4.494-3.976s-1.642,4.667-.346,6.914,7.174,35.782,1.469,53.069c-4.667,14.347-13.051,21.089-16.854,10.371s-.864-15.471,2.766-27.312-.432-26.62-2.333-29.473-5.532-17.459-15.644-13.223a34.118,34.118,0,0,0-3.285,6.568c-1.555,4.063-10.8,18.237-15.644,10.718s3.8-13.656,4.668-16.768,1.037-8.124-5.013-7.951-12.706,1.728-11.928-4.408-3.111-8.9-7.778-7c-2.68.432-10.026,2.766-19.966,19.965s-19.447,26.448-26.793,18.41,2.42-17.286,13.224-27.053,20.484-19.965,17.977-26.015-9.68-14-21.435-8.816-32.5,7.433-25.583-5.964c6.742-4.494,19.36-.778,21.953-3.889s.6-8.643-5.272-9.335-11.927-6.4-5.359-10.458,8.643-8.47,5.964-11.495-10.112-10.8-1.9-13.138c3.284-.777,15.211-4.408,7.951-15.3-2.161-.95-1.988-1.469-11.149-1.556s-12.965-3.889-9.767-10.458c8.557-3.2,11.236-2.16,17.027-1.21s9.334-.172,9.334-2.593c1.037-2.592,4.408-9.593-8.038-17.372s-19.187-15.3-14-20.4,9.075-4.753,13.742-2.765,15.817,13.483,19.792,16.681,8.9,7.173,14.694,4.926-.087-9.766-1.124-11.409-10.717-8.729-4.754-15.211,14.607,8.9,15.817,10.2,9.421,5.186,14.175-.95,4.581-12.273,11.495-7.779,10.372,7,17.113,2.593S657.924,303.423,661.9,312.066Z"/>
  </g>
</svg>
