<svg xmlns="http://www.w3.org/2000/svg" xmlns:xlink="http://www.w3.org/1999/xlink" width="440.025" height="511.59" viewBox="0 0 440.025 511.59">
  <defs>
    <style>
      .cls-1 {
        fill: #f9e5cb;
      }

      .cls-2 {
        stroke: #fff;
        stroke-miterlimit: 10;
        opacity: 0.8;
        fill: url(#linear-gradient);
      }

      .cls-3 {
        fill: #7a350b;
      }
    </style>
    <linearGradient id="linear-gradient" y1="0.5" x2="1" y2="0.5" gradientUnits="objectBoundingBox">
      <stop offset="0" stop-color="#fff" stop-opacity="0.302"/>
      <stop offset="1" stop-color="#fff" stop-opacity="0.302"/>
    </linearGradient>
  </defs>
  <g id="组_5065" data-name="组 5065" transform="translate(-350.503 2.149)">
    <path id="路径_10235" data-name="路径 10235" class="cls-1" d="M235.372,111.816s1.252,84.423-3.256,98.544-2.129,133.715-2.129,141.227-5.134,156.284-1.878,170.15c.626,5.2-1.662,32.355-1.082,36.111S242.009,572,281.7,569.4c19.033,0,26.964,9.437,50.755,11.555s234.493,3.467,268.8-19.643c.751-21.955-8.688-432.164-8.727-443.142-8.052-2.889-37.6,0-41.862,1.156S251.15,107.194,235.372,111.816Z" transform="translate(159.257 -72.597)"/>
    <path id="路径_10236" data-name="路径 10236" class="cls-2" d="M256.477,84.317l-57.723,54.249,10.422-2.138-4.811,7.75,9.087-2.673-6.147,9.353,8.818-3.741-2.939,4.81h6.681l-1.336,5.345,7.715-3.208v7.482l63.9-53.178s-7.483.8-7.483,0-.267-6.949-.267-6.949l-3.207.8-2.673-4.342-6.147,1.938,4.008-4.543L268.5,97.879l-.534-4.743-2.94,2.672-1.336-7.749-2.94,1.336-.267-3.023-5.077,1.954Z" transform="translate(153.378 -84.653)"/>
    <path id="路径_10237" data-name="路径 10237" class="cls-2" d="M1050.505,93.124l-24.139,60.3,7.009-5.2-.894,7.426,5.83-5.13-1.333,9.081,5.261-5.833-.52,4.593,4.966-2.312.856,4.435,4.625-5.054,2.589,5.563,29.1-61.648s-5.284,3.187-5.563,2.589-2.6-5.074-2.6-5.074l-2.106,1.706-3.489-2.3-3.9,3.568,1.408-4.765-3.469,3.971L1062.1,95.7l-1.261,3-3.675-5.3-1.723,2.01-1.245-2.155-3.1,3.21Z" transform="translate(-294.489 -93.46)"/>
    <path id="路径_26450" data-name="路径 26450" class="cls-3" d="M.586,18.89h6.65V12.928L1.9,13.47q-.205-1.67-.615-3.9,8.115-.645,15.7-1.7l.967,3.779q-2.93.4-6.387.791V18.89h7.91V7.2h4.336V18.89h5.713v3.867H23.818v12.92H19.482V22.757H11.558Q11.206,31.6,4.277,36.2A46.143,46.143,0,0,0,.85,32.835,11.725,11.725,0,0,0,7.192,22.757H.586ZM30.439,30.169q4.893-.645,9.375-1.465-.117,1.23-.176,2.373,2.871-5.449,3.311-14.092.059-1.436.088-4.717h-2.08v-3.6h15.7v3.369L54.4,16.663h4.072v3.486a22.646,22.646,0,0,1-3.838,8.76,17.035,17.035,0,0,0,4.98,3.164q-1.67,2.227-2.578,3.721a22.123,22.123,0,0,1-4.98-3.984,28.062,28.062,0,0,1-6.094,4.307,36.633,36.633,0,0,0-2.432-3.574,21.946,21.946,0,0,0,5.977-3.955,32.058,32.058,0,0,1-3.4-6.855q-.908,9.287-5.244,14.326a25.734,25.734,0,0,0-2.52-3.223l-7.207,1.348ZM34.6,16.048q1.084-.029,2.461-.088.967-1.67,2.08-3.662l3.252,1.787A87.443,87.443,0,0,1,36.211,23.4q2.49-.234,4.512-.557a29.849,29.849,0,0,0-.293,3.545,69.15,69.15,0,0,0-8.555,1.26l-.967-3.311a24.43,24.43,0,0,0,3.984-4.951q-2.139.176-3.457.352L30.352,16.4A40.959,40.959,0,0,0,35.3,6.966l3.662,1.465Q36.328,13.294,34.6,16.048Zm12.246-1.7a41.567,41.567,0,0,0,5.068,11.484,16.568,16.568,0,0,0,2.461-5.625H50.1V16.663l2.051-4.395H46.875Q46.875,13.294,46.846,14.349Zm21.006-7.09h3.486v8.818h1.523v3.281H65.8v2.725h5.537V35.5H67.852V25.364H65.815a22.991,22.991,0,0,1-2.241,10.693q-1.436-1.2-3.105-2.432,2.051-3.574,1.9-11.836V7.9H65.8v8.174h2.051Zm20.361.176,1.055,3.838q-4.482.85-11.895,1.523v2.813H88.3v3.428a25.392,25.392,0,0,1-3.6,9.683,14.26,14.26,0,0,0,4.922,3.413l-2.4,3.75a20.6,20.6,0,0,1-4.79-4.116,28.252,28.252,0,0,1-4.585,4.116q-.586-1.025-2.109-3.252A18.852,18.852,0,0,0,80.2,28.646a27.344,27.344,0,0,1-2.739-6.709l2.607-2.373a23.9,23.9,0,0,0,2.241,5.845,22.331,22.331,0,0,0,2.065-6.021h-7V20.97q0,10.342-3.545,14.941-1.113-1.7-2.432-3.428,2.52-3.691,2.314-12.275V9.163A82.058,82.058,0,0,0,88.213,7.435Zm27.393,15.117v.762h4.014v3.516h-4.014v4.863a4.6,4.6,0,0,1-.674,2.834,3.045,3.045,0,0,1-1.8,1.084,26.382,26.382,0,0,1-4.5.242q-.234-1.641-.732-3.779,1.7.117,2.637.117,1.406,0,1.406-1.494V26.829H107.7V23.313h4.248V21.731l1.875-2.432h-5.3V17.234q-.322-.586-1.069-1.655h-5.464l-.029,3.135h5.273q-.117,10.854-.381,13.125a4.5,4.5,0,0,1-1.326,3.113q-1.062.842-4.211.842-.41-2.285-.82-4.014,1.26.117,1.875.117a1.054,1.054,0,0,0,1.165-.857q.2-.857.3-8.782h-1.934q-.278,8.994-3.721,14.092a33.461,33.461,0,0,0-1.963-4.541,14.164,14.164,0,0,0,1.523-3.735,25.888,25.888,0,0,0,.7-4.109q.183-2.087.212-8.386H96.885V11.771H101a30.808,30.808,0,0,0-1.772-3.457l3.428-1.377a37.178,37.178,0,0,1,2.168,4.16l-1.509.674h4.438a32,32,0,0,0,1.963-4.834l3.779.732q-.439,1.348-.952,2.607h7.017v3.516h-8.643q-.6,1.157-1.274,2.2h8.8v3.252ZM93.252,7.142q2.168,1.67,4.277,3.4l-2.754,2.988q-1.846-1.9-3.867-3.633Zm-.82,8.057q2.344,1.758,4.512,3.662l-2.754,3.076Q91.9,19.5,90.117,17.864Zm.557,8.232q1.9.791,3.662,1.377L94.043,35.882q-1.934-.674-3.691-1.2Q91.729,29.847,92.988,23.431ZM143.32,7.142a36.963,36.963,0,0,1,4.688,3.574l-2.725,2.7a54.569,54.569,0,0,0-4.424-3.779Zm-19.775,8.232L126.8,20.3a33.913,33.913,0,0,0,1.084-6.592h-7V9.954h10.811v3.633a36.089,36.089,0,0,1-.571,4.387,38.279,38.279,0,0,1-1.655,6.482q1.626,2.563,3,4.849,2.344-1.377,4.336-2.827a51.574,51.574,0,0,1-1.128-8.35l-3.486.381-.352-3.662,3.662-.381q-.132-3.838-.146-7.295h4.219q-.029,3.4.1,6.87l9.067-.952.352,3.574-9.243,1.011q.205,3.267.615,5.786a29.407,29.407,0,0,0,4.7-5.537l3.428,2.314a44.2,44.2,0,0,1-6.987,7.72,10.318,10.318,0,0,0,1.318,2.637q.718.967,1.3.967,1.128,0,1.729-5.288a24.612,24.612,0,0,0,3.6,1.992,20.74,20.74,0,0,1-1.772,5.925A3.268,3.268,0,0,1,144.756,36q-4.131,0-6.562-5.259-1.9,1.421-4.043,2.8-.7-.937-1.729-2.124l-2.725,1.6-2.256-3.984a24.943,24.943,0,0,1-5.01,6.387,43.3,43.3,0,0,0-2.021-4.131,22.254,22.254,0,0,0,4.644-6.313q-2.476-4.146-4.79-7.69Zm26.865,3.662h3.779V15.521h-3.311V11.888h3.311V7.229h3.75v4.658h3.311v3.633h-3.311v3.516h3.721V22.7h-3.809q-.044.791-.132,1.538,2.08,1.919,4.7,4.644-1.611,1.523-2.637,2.7-1.025-1.3-2.725-3.267a20.792,20.792,0,0,1-3.457,7.808q-1.875-2.021-3.252-3.281,3.149-3.413,3.706-10.137H150.41Zm12.012,7.676V8.255h15.293V26.39h-3.809V12.034H166.23V26.712Zm13.477.7q2.227,1.084,3.662,1.641-.571,4.307-1.289,5.391a2.93,2.93,0,0,1-2.637,1.084H173q-3.369,0-3.369-3.164V28.982a16.264,16.264,0,0,1-7.383,7.163,40.345,40.345,0,0,0-2.666-3.34q5.537-2.651,7.017-6.284t1.479-12.671h3.9a59.613,59.613,0,0,1-.85,10.459h1.992v6.65q0,1.172,1.025,1.172h.322a.9.9,0,0,0,.93-.659A25.879,25.879,0,0,0,175.9,27.415Zm22.236-17.168h3.75V28.968h-3.75Zm5.977-2.871h3.926v23.76q0,4.512-3.545,4.629-3.135.176-4.834.146-.234-1.289-1.025-4.131,2.49.059,3.75.059a1.541,1.541,0,0,0,1.729-1.758Zm-22.295.908h14.063v18.6H192.3V11.712h-6.914V26.946h-3.574Zm8.5,17.813q4.1,3.428,7,6.3l-2.842,2.578a67.678,67.678,0,0,0-5.3-5.479,16.709,16.709,0,0,1-5.977,6.68q-1-1.23-2.754-3.252,6.592-3.34,6.592-11.309V12.942h3.633v9.492A17.263,17.263,0,0,1,190.313,26.1Zm34.658-10.532a2.751,2.751,0,0,1,1.9.71,2.314,2.314,0,0,1,.015,3.472,2.737,2.737,0,0,1-1.919.71,2.675,2.675,0,0,1-1.9-.718,2.312,2.312,0,0,1,.015-3.457A2.69,2.69,0,0,1,224.971,15.564Zm0,11.938a2.735,2.735,0,0,1,1.9.718,2.268,2.268,0,0,1,.791,1.743,2.237,2.237,0,0,1-.791,1.714,2.735,2.735,0,0,1-1.9.718,2.682,2.682,0,0,1-1.89-.718,2.255,2.255,0,0,1-.776-1.714,2.286,2.286,0,0,1,.776-1.743A2.682,2.682,0,0,1,224.971,27.5ZM16.86,98H2.7V94.235H7.427V79.719l-4.863,1.1V76.936l9.595-2.021V94.235h4.7Zm3.105-2.124a2.25,2.25,0,0,1,.835-1.8,2.993,2.993,0,0,1,1.992-.7,2.866,2.866,0,0,1,1.978.718,2.426,2.426,0,0,1,0,3.611,3,3,0,0,1-2.036.7,2.853,2.853,0,0,1-1.956-.718A2.3,2.3,0,0,1,19.966,95.876ZM55.928,75.72v3.75a17.639,17.639,0,0,1-6.709,6.108,42.326,42.326,0,0,1-9.463,3.179q-.879-1.377-2.139-2.988a46.176,46.176,0,0,0,6.46-1.758q-1.1-1.348-1.948-2.256l2.666-1.963q1.23,1.216,2.666,2.71A14.334,14.334,0,0,0,51.65,79h-8a32.7,32.7,0,0,1-3.721,3.516q-1.26-1.23-2.578-2.373a25.782,25.782,0,0,0,6.416-7.178l4.189.5q-.791,1.172-1.6,2.256ZM30.645,77.067l2.285,6.284V73.112h3.809V101.94H32.93V93.4q-2.153,1.655-4.16,3.3L27.48,92.038q2.622-1.743,5.449-3.823v-3.3L30,85.974q-1.377-4.541-2.49-7.822Zm6.943,12.012H50.01V85.915h3.838v3.164h2.9v3.428h-2.9v5.479a3.552,3.552,0,0,1-.923,2.615A4.524,4.524,0,0,1,50,101.691q-2.007.161-5,.132a35.006,35.006,0,0,0-.908-3.809q1.963.176,3.369.176a3.74,3.74,0,0,0,2.021-.374,1.643,1.643,0,0,0,.527-1.384V92.507H43.3q1.216,1.23,2.871,3.018l-3.223,2.49a43.851,43.851,0,0,0-3.34-4.043l1.875-1.465h-3.9ZM73.931,98H59.766V94.235H64.5V79.719l-4.863,1.1V76.936l9.595-2.021V94.235h4.7Zm11.514,1.025L82.412,102q-2.168-2.388-5.815-5.7l2.871-2.754A57.278,57.278,0,0,1,85.444,99.025ZM122.08,98H107.285V94.279l6.519-6.255a18.25,18.25,0,0,0,2.871-3.3,5.21,5.21,0,0,0,.82-2.769q0-3.237-3.472-3.237a8.588,8.588,0,0,0-5.64,2.344v-4.2A11.706,11.706,0,0,1,115,74.929a7.825,7.825,0,0,1,5.317,1.707,5.93,5.93,0,0,1,1.963,4.724q0,3.984-4.834,8.35l-4.731,4.263v.088h9.36Zm11.865,1.025L130.913,102q-2.168-2.388-5.815-5.7l2.871-2.754A57.278,57.278,0,0,1,133.945,99.025Zm22.441-5.962a8.606,8.606,0,0,0,5.3,1.7,4.949,4.949,0,0,0,3.047-.85,2.846,2.846,0,0,0,1.128-2.417,2.74,2.74,0,0,0-1.34-2.461,7.009,7.009,0,0,0-3.757-.85h-2.021V84.538h1.86q4.57,0,4.57-3.076,0-2.9-3.5-2.9a7.693,7.693,0,0,0-4.438,1.494V76.145a11.84,11.84,0,0,1,5.522-1.216,8.566,8.566,0,0,1,5.229,1.487A4.844,4.844,0,0,1,170,80.539q0,4.453-4.512,5.6v.073a6,6,0,0,1,3.794,1.736,4.966,4.966,0,0,1,1.421,3.582,6.011,6.011,0,0,1-2.366,5.054,10.089,10.089,0,0,1-6.306,1.816,11.846,11.846,0,0,1-5.64-1.157Zm26.06,5.962L179.414,102q-2.168-2.388-5.815-5.7l2.871-2.754A57.278,57.278,0,0,1,182.446,99.025Zm37.764-5.977h-2.754V98h-4.321V93.049h-9.976V90.031l9.58-14.722h4.717V89.65h2.754Zm-7.075-3.4V82.209q0-.952.059-2.183h-.088q-.117.278-.293.732a6.505,6.505,0,0,1-.557,1.04l-5.1,7.852Zm37.705-5.845q-1.23,1.523-2.812,3.75-1.084-.85-2.095-1.758-.4,9.36-.615,11.309a4.46,4.46,0,0,1-1.45,3.01,5.1,5.1,0,0,1-3.442,1.062q-3.018,0-5.7-.088-.264-2.432-.615-4.424,3.809.322,5.508.322a1.2,1.2,0,0,0,1.282-.9,54.143,54.143,0,0,0,.447-7.361h-7.236a19.937,19.937,0,0,1-1.179,6.313,11.139,11.139,0,0,1-2.915,3.97,18.462,18.462,0,0,1-4.988,3.076,42.045,42.045,0,0,0-3.047-3.721,18.789,18.789,0,0,0,4.3-2.307,8.147,8.147,0,0,0,2.432-2.7,12.92,12.92,0,0,0,.989-4.636h-4.175V86.4q-.732.557-1.494,1.069a31.163,31.163,0,0,0-2.666-3.311,31.386,31.386,0,0,0,9.99-11.074l3.926,1.7a35.3,35.3,0,0,1-7.69,9.9h17.139a40.4,40.4,0,0,1-7.427-9.668l3.633-1.875A32.353,32.353,0,0,0,250.84,83.806ZM267.3,95.817q.029,5.479-4.687,5.537-.85.029-3.311.088a24.052,24.052,0,0,0-1.025-4.395q2.2.117,3.076.117a1.816,1.816,0,0,0,1.992-2.08q0-.234.088-3.955h-3.721q-.937,7.09-5.361,10.957a45.6,45.6,0,0,0-2.988-3.545,11.827,11.827,0,0,0,4.277-7.412H252.07v-3.4h3.955q.088-1.289.117-2.021h3.926q-.029.7-.088,2.021h7.412Q267.393,91.247,267.3,95.817Zm7.881-22.441h3.926V97.224q0,4.453-3.6,4.541-.937.117-4.8.146a42.285,42.285,0,0,0-1-4.131q2.49.059,4.043.029,1.436-.088,1.436-1.67Zm-6.064,2.871h3.75V94.968h-3.75Zm-5.977,1.465h-6.387V81.4h6.387Zm3.75,7.207h-14V74.2h14Zm34.658,14.414,1.172-2.373h-5.01l1.406,2.314q-3.34,1.406-8.027,2.959l-1.553-3.223q3.75-.908,7.148-2.051H290.3V95.935q-4.1,1.143-8.057,2.4l-.762-4.189q1.67-.381,3.223-.762V83.425h-2.93V79.411h2.93V73.083h3.809v6.328h2.666v4.014h-2.666V92.36q1.436-.381,2.754-.791-.029,1.26,0,2.432h.938V78.913h6.211V77.478h-7.383V74.519h7.383V73.024H302.2v1.494h8v2.959h-8v1.436h6.738V94h1.816V96.96h-7.236q3.838.967,7.295,1.992l-1.436,3.193Q305.42,100.622,301.553,99.333ZM295.986,94h9.17V92.624h-9.17Zm0-7.412h9.17V85.241h-9.17Zm9.17-5.039h-9.17V82.9h9.17Zm-9.17,8.73h9.17V88.933h-9.17ZM7.529,141.4l3.9-2.256q3.135,2.461,7.412,11.1A34.416,34.416,0,0,0,29.531,163.4q-2.49,2.666-3.809,4.336A53.2,53.2,0,0,1,15.176,152.9,36.658,36.658,0,0,1,3.809,167.853a48.785,48.785,0,0,0-3.457-3.838A32.506,32.506,0,0,0,12.7,147.623,24.807,24.807,0,0,0,7.529,141.4ZM44.3,144.151h8.438v-5.039h4.189v5.039h2.7v3.867h-2.7v14.971a4.987,4.987,0,0,1-.959,3.311,3.555,3.555,0,0,1-2.585,1.238q-1.626.11-6.24.11a34.865,34.865,0,0,0-.967-4.336q2.256.176,4.5.176,2.065,0,2.065-1.9V148.019H44.3Zm-10.254,2.168,3.882,5.918a32.173,32.173,0,0,0,1.567-7.061H30.879v-3.838H43.594v3.779a42.765,42.765,0,0,1-3.062,11.06l4.321,6.519-3.633,2.373-2.871-4.717a30.917,30.917,0,0,1-5.771,6.855q-.85-1.729-2.168-3.926a24.7,24.7,0,0,0,5.581-6.753l-5.142-8.188Zm12.188,3.4q2.842,3.6,5.273,7.119l-3.486,2.285a86.544,86.544,0,0,0-4.834-7.354Zm20.508,2.607q0,11.118-3.018,15.732-1.348-1.26-3.311-2.812,2.49-4.16,2.461-13.447v-9.2H74.106q-.542-1.348-1.069-2.578l4.717-1.113q.659,1.582,1.479,3.691H89.18v3.6H66.738Zm7.383-3.838,3.662-1.084q1.553,4.043,3.369,10.43L77.2,158.917Q75.469,152.677,74.121,148.487Zm-7.91,14.033H80.156q1.787-5.742,4.219-14.707l4.072,1.055Q86.924,154.6,84.3,162.521h5v4.072H66.211Zm.7-12.51,3.516-1.494q2.578,5.625,4.775,11.6l-3.926,1.465Q69.4,156.1,66.914,150.011Zm28.945-10.869,4.365.674L98.906,143.8h4.98v5.713a53.952,53.952,0,0,0,4.512-10.43l4.043,1.055q-.645,1.948-1.377,3.809h7.559l-.337,16.86a14.25,14.25,0,0,1-.454,3.816,4.036,4.036,0,0,1-1.187,1.78,4.608,4.608,0,0,1-2.249.938,47.988,47.988,0,0,1-6.292.249,25.546,25.546,0,0,0-1.113-4.424q2.168.176,4.614.176a4.075,4.075,0,0,0,1.216-.161,2.026,2.026,0,0,0,.842-.491,1.7,1.7,0,0,0,.447-.74,29.11,29.11,0,0,0,.19-3.6l.132-5.991q.059-2.8.059-4.541h-5.1q-.967,2.051-2.051,3.984a23.329,23.329,0,0,0-3.457-1.8v17.446H99.814v-2.109h-4.16v2.285H91.582V143.8h3.091Q95.522,140.929,95.859,139.142Zm3.955,8.5h-4.16v5.01h4.16ZM95.654,161.5h4.16v-5.01h-4.16Zm12.832-10.166a74.791,74.791,0,0,1,4.541,6.123l-3.691,2.461a64.453,64.453,0,0,0-4.248-6.24Zm24.58-12.041h4.57v22.178a7.894,7.894,0,0,1-.9,4.255,3.437,3.437,0,0,1-2.314,1.619,49.5,49.5,0,0,1-6.453.249,40.38,40.38,0,0,0-1.084-4.629,37.277,37.277,0,0,0,4.1.264q2.08,0,2.08-2.432Zm11.338,6.328q2.783,6.416,5.391,13.506l-4.629,1.787q-2.4-7.588-4.893-13.916Zm-19.395.029L129.4,146.7q-2.139,7.852-4.541,14.385l-4.336-1.641A135.611,135.611,0,0,0,125.01,145.646ZM163.945,167.5q-.527-2.637-1.055-4.482,3.647.146,5.024.146a5.133,5.133,0,0,0,1.5-.168,1.928,1.928,0,0,0,.857-.542,1.948,1.948,0,0,0,.454-.842,28.751,28.751,0,0,0,.256-3.223q.139-2.754.139-3.779h-9.258a18.221,18.221,0,0,1-8.262,13.506q-.732-1.055-3.164-3.867a16.012,16.012,0,0,0,4.915-4.761,12.417,12.417,0,0,0,1.97-5.208q.293-2.556.366-7.288h-6.606v-3.867h12.173l-1.157-2.959,4.658-1.084q.967,2.417,1.465,4.043h10.723v3.867H162.158q-.029,1.816-.1,3.75h13.7q-.132,3.853-.352,7.947t-.417,5.09a4.685,4.685,0,0,1-.835,1.868,3.617,3.617,0,0,1-1.531,1.245,9.16,9.16,0,0,1-2.776.491Q167.959,167.5,163.945,167.5Zm17.637-2.842-1.289-3.926q1.816-.483,3.574-1v-9.727H180.82v-3.9h3.047v-7.09h3.9v7.09h2.988v3.9h-2.988v8.569l2.959-.952a34.926,34.926,0,0,0,.381,3.809Q186.27,163.019,181.582,164.659Zm8.145-11.631h6.094q.205-2.227.322-5.771h-4.658v-3.721h4.731l.044-4.336h3.809l-.044,4.336h7.163v9.492h2.051v3.721h-8.247a14.357,14.357,0,0,0,8.247,7.412q-.967,1.436-2.373,3.75-5.918-2.329-8.569-9.141-1.685,5.2-8.423,9.463-1.289-1.9-2.7-3.75,6.445-3.018,7.983-7.734h-5.435Zm13.711-5.771h-3.5q-.1,3.6-.278,5.771h3.779Zm7.266,16.084h12.246v-2.168h-10.84v-3.516h10.84v-2.08h-10.2v-15.5h24.492v15.5h-10.2v2.08h10.84v3.516h-10.84v2.168H239.3v3.633H210.7Zm22.5-19.922h-6.152v2.871H233.2ZM216.8,146.29h6.152v-2.871H216.8Zm16.406,5.947v-2.871h-6.152v2.871Zm-16.406,0h6.152v-2.871H216.8Zm32.9,11.44a3.941,3.941,0,0,1-1.223,2.974,3.891,3.891,0,0,1-2.761,1.172,4.189,4.189,0,0,1-4.189-4.146,3.874,3.874,0,0,1,1.216-2.893,4.021,4.021,0,0,1,2.9-1.179,3.978,3.978,0,0,1,2.842,1.165A3.861,3.861,0,0,1,249.7,163.678Zm-4.043,1.436a1.351,1.351,0,0,0,.981-.4,1.424,1.424,0,0,0-.029-2.029,1.517,1.517,0,0,0-1.025-.381,1.248,1.248,0,0,0-.981.432,1.509,1.509,0,0,0-.381,1.033,1.365,1.365,0,0,0,1.436,1.348ZM16.509,230H1.714v-3.721l6.519-6.255a18.25,18.25,0,0,0,2.871-3.3,5.21,5.21,0,0,0,.82-2.769q0-3.237-3.472-3.237a8.588,8.588,0,0,0-5.64,2.344v-4.2a11.706,11.706,0,0,1,6.621-1.934,7.825,7.825,0,0,1,5.317,1.707,5.93,5.93,0,0,1,1.963,4.724q0,3.984-4.834,8.35l-4.731,4.263v.088h9.36Zm3.457-2.124a2.25,2.25,0,0,1,.835-1.8,2.993,2.993,0,0,1,1.992-.7,2.866,2.866,0,0,1,1.978.718,2.426,2.426,0,0,1,0,3.611,3,3,0,0,1-2.036.7,2.853,2.853,0,0,1-1.956-.718A2.3,2.3,0,0,1,19.966,227.876ZM28.8,233.94V206.226H55.283v27.686H51.563v-1.143H32.52v1.172Zm22.764-24.58H32.52v20.273H51.563Zm-16.23,1.113H48.75v6.416H35.332Zm10.43,2.578H38.32v1.377h7.441ZM34.277,224.946v-6.885H49.8v6.885H46.641v-4.219h-9.2v4.219Zm6.563-3.281h3.34a7.979,7.979,0,0,1-.586,2.461q3.765,1.23,7.705,2.607l-1.67,2.754-7.6-3.149a15.439,15.439,0,0,1-7.4,3,29.791,29.791,0,0,0-1.465-2.988q4.731-.688,6.116-1.772A4.031,4.031,0,0,0,40.84,221.665ZM58.828,233.94V206.255H85.313v27.656h-3.75V232.8H62.578v1.143Zm8.613-23.994q.63.82,1.816,2.549H70.3a18.768,18.768,0,0,0,.249-2.607h3.369a21.2,21.2,0,0,1-.234,2.607h1.377q.967-1.289,1.729-2.52l3.164.791q-.513.571-1.6,1.729h2.271v2.344h-7.5a10.466,10.466,0,0,1-.469,1.172h8.35v2.344H76.992a12.016,12.016,0,0,0,4.57,2.007v-11H62.578v11.6A17.753,17.753,0,0,0,67,218.354H63.193v-2.344h5.9a7.261,7.261,0,0,0,.571-1.172H63.574V212.5h2.3l-1.3-1.641Zm2.2,10.02h5.42a19.988,19.988,0,0,1-1.523-1.611H71.162A16.638,16.638,0,0,1,69.639,219.966Zm7.734,3.545a21.019,21.019,0,0,0,3.076.879,9.536,9.536,0,0,1-.974,2.944,2.976,2.976,0,0,1-1.545,1.084,8.24,8.24,0,0,1-2.666.366H69.2q-3.311,0-3.311-3.193v-2.827q-1.084.659-2.314,1.3-.5-.718-1-1.377v7H81.563V221.46l-1.23,1.9a15.482,15.482,0,0,1-3.721-2.065,6.325,6.325,0,0,1-.491,3,4.28,4.28,0,0,1-.894.806q-.476.315-4.475.315-.293-1.084-.645-2.051,1.318.059,2.051.059a2.382,2.382,0,0,0,.857-.154q.4-.154.432-1.135H69.111v2.988q0,1.26,1.348,1.26h4.775a1.829,1.829,0,0,0,1.414-.476A5.351,5.351,0,0,0,77.373,223.511Zm10.4,5.83H100.02v-2.168H89.18v-3.516h10.84v-2.08h-10.2v-15.5h24.492v15.5h-10.2v2.08h10.84v3.516h-10.84v2.168h12.246v3.633H87.773Zm22.5-19.922h-6.152v2.871h6.152ZM93.867,212.29h6.152v-2.871H93.867Zm16.406,5.947v-2.871h-6.152v2.871Zm-16.406,0h6.152v-2.871H93.867Zm29.063-13.1,4.365.674-1.318,3.984h4.98v5.713a53.952,53.952,0,0,0,4.512-10.43l4.043,1.055q-.645,1.948-1.377,3.809h7.559l-.337,16.86a14.25,14.25,0,0,1-.454,3.816,4.036,4.036,0,0,1-1.187,1.78,4.608,4.608,0,0,1-2.249.938,47.988,47.988,0,0,1-6.292.249,25.546,25.546,0,0,0-1.113-4.424q2.168.176,4.614.176a4.075,4.075,0,0,0,1.216-.161,2.026,2.026,0,0,0,.842-.491,1.7,1.7,0,0,0,.447-.74,29.11,29.11,0,0,0,.19-3.6l.132-5.991q.059-2.8.059-4.541h-5.1q-.967,2.051-2.051,3.984a23.329,23.329,0,0,0-3.457-1.8v17.446h-4.072v-2.109h-4.16v2.285h-4.072V209.8h3.091Q122.593,206.929,122.93,205.142Zm3.955,8.5h-4.16v5.01h4.16Zm-4.16,13.857h4.16v-5.01h-4.16Zm12.832-10.166a74.791,74.791,0,0,1,4.541,6.123l-3.691,2.461a64.453,64.453,0,0,0-4.248-6.24Zm12.627-6.5h2.285a22.787,22.787,0,0,0-2.08-3.34l2.637-1.641q.908,1.084,2.461,3.4l-2.637,1.582h3.281v-5.742h3.721v5.742h3.076l-2.432-1.582a27.4,27.4,0,0,0,2.461-3.486l2.754,1.641a26.64,26.64,0,0,1-2.432,3.428h1.7v2.988h-5.127v2.051l1-1.348q1.831.981,3.472,1.934a49.578,49.578,0,0,0,4.146-11.514l4.014.381q-.586,2.271-1.245,4.336h7.339v3.574h-1.187a32.71,32.71,0,0,1-3.3,12.759,17.73,17.73,0,0,0,4.6,3.765,23.521,23.521,0,0,0-2.549,3.9,18.533,18.533,0,0,1-4.438-4.16,19.945,19.945,0,0,1-5.61,4.6,26.213,26.213,0,0,0-2.622-3.164l-1.04,1.729q-1.758-1.011-3.838-2.051a21.363,21.363,0,0,1-7.676,3.047,25.019,25.019,0,0,0-1.553-3.6,20.854,20.854,0,0,0,5.391-1.23q-2.021-.894-4.277-1.816a33.25,33.25,0,0,0,1.787-2.9h-2.4v-2.988h3.853a24.422,24.422,0,0,0,.835-2.314l1.582.146v-2.812a25.487,25.487,0,0,1-5.449,4.248,24.913,24.913,0,0,0-1.377-3.516,19.144,19.144,0,0,0,5.259-3.047h-4.38Zm19.482,3.237a28.48,28.48,0,0,0,2.051,8.159,25.7,25.7,0,0,0,2.08-8.994h-3.809Q167.842,213.652,167.666,214.063Zm-9.814,5.552h-1.479q-.337.718-.747,1.494h6.826v2.725a16.884,16.884,0,0,1-2.856,4.233l2.915,1.157-.586.952a18.23,18.23,0,0,0,5.522-4.365,28.1,28.1,0,0,1-2.2-6.592q-.513.923-1.04,1.772a28.7,28.7,0,0,0-1.567-2.417l-.864,1.3q-1.816-1.23-3.926-2.49Zm-4.687,6.006,3.047,1.143a9.851,9.851,0,0,0,2.168-2.666h-4.351ZM181,205.933h22.178v12.246H181Zm18.105,3.252H185.068v1.582H199.1Zm0,5.742v-1.582H185.068v1.582Zm-18.193,19.131q-1.523-1.172-3.34-2.4a20.045,20.045,0,0,0,5.024-8.7h-4.966v-3.369h28.945v3.369H194.355v1.787h9.961v3.193h-9.961v1.86q1.919.044,4.717.044,3.193,0,7.559-.059a33.78,33.78,0,0,0-1.143,3.457q-2.139.044-7.5-.029l-4.277-.059q-6.738,0-9.785-3.164A18.541,18.541,0,0,1,180.908,234.058Zm9.492-4.585v-6.519h-7.734l3.691,1.377q-.425,1.3-.908,2.476A9.355,9.355,0,0,0,190.4,229.473Zm17.227-10.649h3.516l.659-4.673a30.891,30.891,0,0,1-2.417,2.388q-.791-1.934-1.787-4.043a24.953,24.953,0,0,0,5.889-7.588h4.424q-.483.967-.981,1.875h19.116V210H215q-.586.879-1.2,1.7H233.73l-.308,7.119h3.3v3.223h-3.442l-.205,4.014h2.71v3.164H232.9a4.29,4.29,0,0,1-1.721,3.45,6.852,6.852,0,0,1-3.23,1.011q-1.772.11-6.548.11-.5-1.758-1.084-3.4,3.252.088,5.361.088,2.534,0,3.018-1.26H209.707l1-7.178h-3.076Zm18.135-1.611-1.611,1.611h5.3l.176-3.955h-7.1Q224.268,216.011,225.762,217.212Zm-6.826-.762,1.6-1.582h-4.819l-.571,3.955h6.8Q220.5,217.607,218.936,216.45Zm6.123,8.027-1.67,1.582h5.7q.1-1.553.22-4.014h-7.632Q223.271,223.13,225.059,224.478Zm-6.885-.82,1.685-1.611h-5.186l-.571,4.014h7.119Q219.844,224.873,218.174,223.657Zm26.689-18.721q1.875,1.289,3.516,2.52a61.3,61.3,0,0,1-8.174,7.646,38.212,38.212,0,0,0-2.607-3.457A41.39,41.39,0,0,0,244.863,204.937Zm5.273,2.08h15.234v3.809H250.137Zm-4.8,5.537,3.428,2.2q-1.289,1.89-2.812,3.706v15.19h-4.072v-10.8q-1.348,1.3-2.812,2.563-.586-1.641-1.611-4.072A46.161,46.161,0,0,0,245.332,212.554Zm3.838,2.842h17.49V219.2h-4.57v9.434A5.254,5.254,0,0,1,261,232.219a4.3,4.3,0,0,1-3.091,1.37q-2,.132-5.925.176-.41-1.934-1.084-4.1,3.047.205,4.8.205,2.139,0,2.139-2.256V219.2H249.17Zm18.457,3.428h3.516l.659-4.673a30.891,30.891,0,0,1-2.417,2.388q-.791-1.934-1.787-4.043a24.953,24.953,0,0,0,5.889-7.588h4.424q-.483.967-.981,1.875h19.116V210H275q-.586.879-1.2,1.7H293.73l-.308,7.119h3.3v3.223h-3.442l-.205,4.014h2.71v3.164H292.9a4.29,4.29,0,0,1-1.721,3.45,6.852,6.852,0,0,1-3.23,1.011q-1.772.11-6.548.11-.5-1.758-1.084-3.4,3.252.088,5.361.088,2.534,0,3.018-1.26H269.707l1-7.178h-3.076Zm18.135-1.611-1.611,1.611h5.3l.176-3.955h-7.1Q284.268,216.011,285.762,217.212Zm-6.826-.762,1.6-1.582h-4.819l-.571,3.955h6.8Q280.5,217.607,278.936,216.45Zm6.123,8.027-1.67,1.582h5.7q.1-1.553.22-4.014h-7.632Q283.271,223.13,285.059,224.478Zm-6.885-.82,1.685-1.611h-5.186l-.571,4.014h7.119Q279.844,224.873,278.174,223.657Zm42.656-18.574h3.984v23.672a5.676,5.676,0,0,1-.857,3.384,3.3,3.3,0,0,1-2.439,1.34q-1.582.168-5.962.139-.5-2.754-.908-4.307,2.021.117,3.765.117a5.368,5.368,0,0,0,1.487-.139,1.233,1.233,0,0,0,.681-.615,2.516,2.516,0,0,0,.249-1.267Zm-22.471,1.348h15.352V210.3h-7.148q-.454,1.538-1,2.988h7.324v3.6q-1.963,10.664-11.514,17.285a34.182,34.182,0,0,0-2.988-3.4,23.426,23.426,0,0,0,7.09-6.255q-1.787-1.7-3.369-3.12l2.139-2.373q1.421,1.128,3.062,2.5a22.169,22.169,0,0,0,1.655-4.38H303.9a34.611,34.611,0,0,1-4.541,6.943,28.227,28.227,0,0,0-1.934-3.75,30.271,30.271,0,0,0,5.244-10.049h-4.307Zm19.922,20.215h-3.75v-17.93h3.75ZM5.859,271.142l4.365.674L8.906,275.8h4.98v5.713a53.952,53.952,0,0,0,4.512-10.43l4.043,1.055q-.645,1.948-1.377,3.809h7.559l-.337,16.86a14.25,14.25,0,0,1-.454,3.816,4.036,4.036,0,0,1-1.187,1.78,4.608,4.608,0,0,1-2.249.938,47.988,47.988,0,0,1-6.292.249,25.546,25.546,0,0,0-1.113-4.424q2.168.176,4.614.176a4.075,4.075,0,0,0,1.216-.161,2.026,2.026,0,0,0,.842-.491,1.7,1.7,0,0,0,.447-.74,29.11,29.11,0,0,0,.19-3.6l.132-5.991q.059-2.8.059-4.541h-5.1q-.967,2.051-2.051,3.984a23.329,23.329,0,0,0-3.457-1.8v17.446H9.814v-2.109H5.654v2.285H1.582V275.8H4.673Q5.522,272.929,5.859,271.142Zm3.955,8.5H5.654v5.01h4.16ZM5.654,293.5h4.16v-5.01H5.654Zm12.832-10.166a74.791,74.791,0,0,1,4.541,6.123l-3.691,2.461a64.453,64.453,0,0,0-4.248-6.24Zm12.627-6.5H33.4a22.787,22.787,0,0,0-2.08-3.34l2.637-1.641q.908,1.084,2.461,3.4l-2.637,1.582h3.281v-5.742h3.721v5.742h3.076l-2.432-1.582a27.4,27.4,0,0,0,2.461-3.486l2.754,1.641a26.64,26.64,0,0,1-2.432,3.428h1.7v2.988H40.781v2.051l1-1.348q1.831.981,3.472,1.934a49.578,49.578,0,0,0,4.146-11.514l4.014.381q-.586,2.271-1.245,4.336H59.5v3.574H58.315a32.71,32.71,0,0,1-3.3,12.759,17.73,17.73,0,0,0,4.6,3.765,23.521,23.521,0,0,0-2.549,3.9,18.533,18.533,0,0,1-4.438-4.16,19.945,19.945,0,0,1-5.61,4.6,26.213,26.213,0,0,0-2.622-3.164l-1.04,1.729q-1.758-1.011-3.838-2.051a21.363,21.363,0,0,1-7.676,3.047,25.019,25.019,0,0,0-1.553-3.6,20.854,20.854,0,0,0,5.391-1.23q-2.021-.894-4.277-1.816a33.25,33.25,0,0,0,1.787-2.9h-2.4v-2.988h3.853a24.422,24.422,0,0,0,.835-2.314l1.582.146v-2.812a25.487,25.487,0,0,1-5.449,4.248,24.913,24.913,0,0,0-1.377-3.516,19.144,19.144,0,0,0,5.259-3.047h-4.38ZM50.6,280.063a28.48,28.48,0,0,0,2.051,8.159,25.7,25.7,0,0,0,2.08-8.994H50.918Q50.771,279.652,50.6,280.063Zm-9.814,5.552H39.3q-.337.718-.747,1.494h6.826v2.725a16.884,16.884,0,0,1-2.856,4.233l2.915,1.157-.586.952a18.23,18.23,0,0,0,5.522-4.365,28.1,28.1,0,0,1-2.2-6.592q-.513.923-1.04,1.772a28.7,28.7,0,0,0-1.567-2.417l-.864,1.3q-1.816-1.23-3.926-2.49Zm-4.687,6.006,3.047,1.143a9.851,9.851,0,0,0,2.168-2.666H36.958Zm24.258-2.93a32.925,32.925,0,0,0,3.94-8.145H60.645v-3.838h3.75v-5.42h3.867v5.42h3.252v3.838H68.262v2.607q2.021,1.113,3.779,2.227l-1.729,3.34q-1-.791-2.051-1.567v12.759H64.395v-11.6a40.906,40.906,0,0,1-2.959,5.537Q60.908,291.093,60.352,288.69ZM72.3,272.724H88.359v27.3H84.316v-1.465H76.348v1.465H72.3Zm12.012,3.75H76.348v3.633h7.969Zm-7.969,10.957h7.969V283.8H76.348Zm0,7.383h7.969v-3.691H76.348Zm20.566,4.541q-.439-2.051-1.025-4.395,1.816.117,2.988.117a1.748,1.748,0,0,0,1.091-.3,1.266,1.266,0,0,0,.476-.828q.088-.527.205-4.446t.161-9.778H97.969q-.161,13.916-5.273,20.391-1.025-1.992-2.314-4.189,3.662-5.2,3.794-16.2H90.82v-3.838h3.442q.044-2.52.044-4.834h3.809l-.073,4.834h6.636l-.19,11.836-.19,6.87a5.583,5.583,0,0,1-.886,3.179,3.3,3.3,0,0,1-1.934,1.333A26.114,26.114,0,0,1,96.914,299.354Zm9.492,0v-25.84h11.836v25.664h-3.926v-2.4h-3.984v2.578Zm7.91-22h-3.984v15.586h3.984Zm11.543-6.211,4.365.674-1.318,3.984h4.98v5.713a53.952,53.952,0,0,0,4.512-10.43l4.043,1.055q-.645,1.948-1.377,3.809h7.559l-.337,16.86a14.25,14.25,0,0,1-.454,3.816,4.036,4.036,0,0,1-1.187,1.78,4.608,4.608,0,0,1-2.249.938,47.988,47.988,0,0,1-6.292.249,25.546,25.546,0,0,0-1.113-4.424q2.168.176,4.614.176a4.075,4.075,0,0,0,1.216-.161,2.026,2.026,0,0,0,.842-.491,1.7,1.7,0,0,0,.447-.74,29.11,29.11,0,0,0,.19-3.6l.132-5.991q.059-2.8.059-4.541h-5.1q-.967,2.051-2.051,3.984a23.329,23.329,0,0,0-3.457-1.8v17.446h-4.072v-2.109h-4.16v2.285h-4.072V275.8h3.091Q125.522,272.929,125.859,271.142Zm3.955,8.5h-4.16v5.01h4.16Zm-4.16,13.857h4.16v-5.01h-4.16Zm12.832-10.166a74.791,74.791,0,0,1,4.541,6.123l-3.691,2.461a64.453,64.453,0,0,0-4.248-6.24Zm11.953,7.295a24.548,24.548,0,0,0,4.746-7.354H150.7v-3.779h5.039v-3.223q-2.065.19-4.16.322-.176-1.553-.469-3.574,6.768-.527,12.363-1.23l.7,3.574q-2.241.293-4.541.542v3.589h4.629v3.779h-4.629v3.369l1.084-1.143q2.2,1.7,4.219,3.516L162.422,292q-1.436-1.538-2.783-2.812v10.576h-3.9V289.247a33.688,33.688,0,0,1-3.779,6.006Q151.436,293.378,150.439,290.624Zm14.766,7.969V273.515H178.1v24.9H174.17v-2.549h-5.039v2.725Zm8.965-21.182h-5.039v14.561h5.039ZM189.7,295.678a3.941,3.941,0,0,1-1.223,2.974,3.891,3.891,0,0,1-2.761,1.172,4.189,4.189,0,0,1-4.189-4.146,3.874,3.874,0,0,1,1.216-2.893,4.021,4.021,0,0,1,2.9-1.179,3.978,3.978,0,0,1,2.842,1.165A3.861,3.861,0,0,1,189.7,295.678Zm-4.043,1.436a1.351,1.351,0,0,0,.981-.4,1.424,1.424,0,0,0-.029-2.029,1.517,1.517,0,0,0-1.025-.381,1.248,1.248,0,0,0-.981.432,1.509,1.509,0,0,0-.381,1.033,1.365,1.365,0,0,0,1.436,1.348ZM2.314,357.063a8.606,8.606,0,0,0,5.3,1.7,4.949,4.949,0,0,0,3.047-.85,2.846,2.846,0,0,0,1.128-2.417,2.74,2.74,0,0,0-1.34-2.461,7.009,7.009,0,0,0-3.757-.85H4.673v-3.647h1.86q4.57,0,4.57-3.076,0-2.9-3.5-2.9a7.693,7.693,0,0,0-4.438,1.494v-3.911a11.84,11.84,0,0,1,5.522-1.216,8.566,8.566,0,0,1,5.229,1.487,4.844,4.844,0,0,1,2.007,4.124q0,4.453-4.512,5.6v.073a6,6,0,0,1,3.794,1.736,4.966,4.966,0,0,1,1.421,3.582,6.011,6.011,0,0,1-2.366,5.054A10.089,10.089,0,0,1,7.954,362.4a11.846,11.846,0,0,1-5.64-1.157Zm17.651,2.813a2.25,2.25,0,0,1,.835-1.8,2.993,2.993,0,0,1,1.992-.7,2.866,2.866,0,0,1,1.978.718,2.426,2.426,0,0,1,0,3.611,3,3,0,0,1-2.036.7,2.853,2.853,0,0,1-1.956-.718A2.3,2.3,0,0,1,19.966,359.876Zm7.456-5.186a32.925,32.925,0,0,0,3.94-8.145H27.715v-3.838h3.75v-5.42h3.867v5.42h3.252v3.838H35.332v2.607q2.021,1.113,3.779,2.227l-1.729,3.34q-1-.791-2.051-1.567v12.759H31.465v-11.6a40.906,40.906,0,0,1-2.959,5.537Q27.979,357.093,27.422,354.69Zm11.953-15.967H55.43v27.3H51.387v-1.465H43.418v1.465H39.375Zm12.012,3.75H43.418v3.633h7.969Zm-7.969,10.957h7.969V349.8H43.418Zm0,7.383h7.969v-3.691H43.418ZM58.857,338.2H85.283v22.441a5.568,5.568,0,0,1-1.135,3.816,4.1,4.1,0,0,1-3.135,1.3q-2,.037-4.841.037-.439-2.344-.908-4.072a32.634,32.634,0,0,0,3.354.19,7.535,7.535,0,0,0,1.655-.125,1.33,1.33,0,0,0,.784-.564,2.043,2.043,0,0,0,.3-1.172V341.858H62.783v23.877H58.857Zm21.064,9.375h-15.7v-3.34h15.7Zm-14.707,2.285H78.809V360.11H69.023v1.875H65.215ZM75,356.829v-3.691H69.023v3.691Zm35.127-17.578v3.223l-2.534,2.813h6.05v10.9H94.658v2.578q0,2.783,2.871,2.783h11.836a3.953,3.953,0,0,0,1.9-.388,1.883,1.883,0,0,0,.93-1.1,33.854,33.854,0,0,0,.681-3.669q2.578,1,3.691,1.348a45.115,45.115,0,0,1-1.113,4.5,3.809,3.809,0,0,1-2.029,2.249,9.329,9.329,0,0,1-4.153.776H96.27q-5.771,0-5.771-5.391V348.714q-.542.425-1.113.82a41.2,41.2,0,0,0-2.021-3.721,27.471,27.471,0,0,0,8.672-8.848l4.541.322q-.542,1-1.157,1.963Zm-15.645,6.035h8.247l2.417-2.725H97A36.506,36.506,0,0,1,94.482,345.286Zm.176,7.559h5.42v-4.219h-5.42Zm14.883,0v-4.219h-5.42v4.219Zm9.111,9.814-1.289-3.926q1.816-.483,3.574-1v-9.727h-3.047v-3.9h3.047v-7.09h3.9v7.09h2.988v3.9h-2.988v8.569l2.959-.952a34.926,34.926,0,0,0,.381,3.809Q123.34,361.019,118.652,362.659Zm8.145-11.631h6.094q.205-2.227.322-5.771h-4.658v-3.721h4.731l.044-4.336h3.809l-.044,4.336h7.163v9.492h2.051v3.721h-8.247a14.357,14.357,0,0,0,8.247,7.412q-.967,1.436-2.373,3.75-5.918-2.329-8.569-9.141-1.685,5.2-8.423,9.463-1.289-1.9-2.7-3.75,6.445-3.018,7.983-7.734H126.8Zm13.711-5.771h-3.5q-.1,3.6-.278,5.771h3.779Zm7.266,16.084H160.02v-2.168H149.18v-3.516h10.84v-2.08h-10.2v-15.5h24.492v15.5h-10.2v2.08h10.84v3.516h-10.84v2.168h12.246v3.633H147.773Zm22.5-19.922h-6.152v2.871h6.152Zm-16.406,2.871h6.152v-2.871h-6.152Zm16.406,5.947v-2.871h-6.152v2.871Zm-16.406,0h6.152v-2.871h-6.152Zm29.063-13.1,4.365.674-1.318,3.984h4.98v5.713a53.952,53.952,0,0,0,4.512-10.43l4.043,1.055q-.645,1.948-1.377,3.809h7.559l-.337,16.86a14.25,14.25,0,0,1-.454,3.816,4.036,4.036,0,0,1-1.187,1.78,4.608,4.608,0,0,1-2.249.938,47.988,47.988,0,0,1-6.292.249,25.546,25.546,0,0,0-1.113-4.424q2.168.176,4.614.176a4.075,4.075,0,0,0,1.216-.161,2.026,2.026,0,0,0,.842-.491,1.7,1.7,0,0,0,.447-.74,29.11,29.11,0,0,0,.19-3.6l.132-5.991q.059-2.8.059-4.541h-5.1q-.967,2.051-2.051,3.984a23.329,23.329,0,0,0-3.457-1.8v17.446h-4.072v-2.109h-4.16v2.285h-4.072V341.8h3.091Q182.593,338.929,182.93,337.142Zm3.955,8.5h-4.16v5.01h4.16Zm-4.16,13.857h4.16v-5.01h-4.16Zm12.832-10.166a74.791,74.791,0,0,1,4.541,6.123l-3.691,2.461a64.453,64.453,0,0,0-4.248-6.24Zm12.627-6.5h2.285a22.787,22.787,0,0,0-2.08-3.34l2.637-1.641q.908,1.084,2.461,3.4l-2.637,1.582h3.281v-5.742h3.721v5.742h3.076l-2.432-1.582a27.4,27.4,0,0,0,2.461-3.486l2.754,1.641a26.64,26.64,0,0,1-2.432,3.428h1.7v2.988h-5.127v2.051l1-1.348q1.831.981,3.472,1.934a49.578,49.578,0,0,0,4.146-11.514l4.014.381q-.586,2.271-1.245,4.336h7.339v3.574h-1.187a32.71,32.71,0,0,1-3.3,12.759,17.73,17.73,0,0,0,4.6,3.765,23.521,23.521,0,0,0-2.549,3.9,18.533,18.533,0,0,1-4.438-4.16,19.945,19.945,0,0,1-5.61,4.6,26.213,26.213,0,0,0-2.622-3.164l-1.04,1.729q-1.758-1.011-3.838-2.051a21.363,21.363,0,0,1-7.676,3.047,25.019,25.019,0,0,0-1.553-3.6,20.854,20.854,0,0,0,5.391-1.23q-2.021-.894-4.277-1.816a33.25,33.25,0,0,0,1.787-2.9h-2.4v-2.988h3.853a24.422,24.422,0,0,0,.835-2.314l1.582.146v-2.812a25.487,25.487,0,0,1-5.449,4.248,24.913,24.913,0,0,0-1.377-3.516,19.144,19.144,0,0,0,5.259-3.047h-4.38Zm19.482,3.237a28.48,28.48,0,0,0,2.051,8.159,25.7,25.7,0,0,0,2.08-8.994h-3.809Q227.842,345.652,227.666,346.063Zm-9.814,5.552h-1.479q-.337.718-.747,1.494h6.826v2.725a16.884,16.884,0,0,1-2.856,4.233l2.915,1.157-.586.952a18.23,18.23,0,0,0,5.522-4.365,28.1,28.1,0,0,1-2.2-6.592q-.513.923-1.04,1.772a28.7,28.7,0,0,0-1.567-2.417l-.864,1.3q-1.816-1.23-3.926-2.49Zm-4.687,6.006,3.047,1.143a9.851,9.851,0,0,0,2.168-2.666h-4.351Zm24.258-2.93a32.925,32.925,0,0,0,3.94-8.145h-3.647v-3.838h3.75v-5.42h3.867v5.42h3.252v3.838h-3.252v2.607q2.021,1.113,3.779,2.227l-1.729,3.34q-1-.791-2.051-1.567v12.759h-3.867v-11.6a40.906,40.906,0,0,1-2.959,5.537Q237.979,357.093,237.422,354.69Zm11.953-15.967H265.43v27.3h-4.043v-1.465h-7.969v1.465h-4.043Zm12.012,3.75h-7.969v3.633h7.969Zm-7.969,10.957h7.969V349.8h-7.969Zm0,7.383h7.969v-3.691h-7.969ZM268.857,338.2h26.426v22.441a5.568,5.568,0,0,1-1.135,3.816,4.1,4.1,0,0,1-3.135,1.3q-2,.037-4.841.037-.439-2.344-.908-4.072a32.634,32.634,0,0,0,3.354.19,7.535,7.535,0,0,0,1.655-.125,1.33,1.33,0,0,0,.784-.564,2.043,2.043,0,0,0,.3-1.172V341.858H272.783v23.877h-3.926Zm21.064,9.375h-15.7v-3.34h15.7Zm-14.707,2.285h13.594V360.11h-9.785v1.875h-3.809ZM285,356.829v-3.691h-5.977v3.691Zm21.768,4.849a3.941,3.941,0,0,1-1.223,2.974,3.891,3.891,0,0,1-2.761,1.172,4.189,4.189,0,0,1-4.189-4.146,3.874,3.874,0,0,1,1.216-2.893,4.021,4.021,0,0,1,2.9-1.179,3.978,3.978,0,0,1,2.842,1.165A3.861,3.861,0,0,1,306.768,361.678Zm-4.043,1.436a1.351,1.351,0,0,0,.981-.4,1.424,1.424,0,0,0-.029-2.029,1.517,1.517,0,0,0-1.025-.381,1.248,1.248,0,0,0-.981.432,1.509,1.509,0,0,0-.381,1.033,1.365,1.365,0,0,0,1.436,1.348Z" transform="translate(409.133 76.664)"/>
  </g>
</svg>
