<svg xmlns="http://www.w3.org/2000/svg" width="86" height="86" viewBox="0 0 86 86">
  <defs>
    <style>
      .cls-1 {
        fill: #75522d;
      }

      .cls-2, .cls-4 {
        fill: none;
      }

      .cls-2 {
        stroke: #75522d;
        stroke-width: 4px;
      }

      .cls-3 {
        stroke: none;
      }
    </style>
  </defs>
  <g id="组_11358" data-name="组 11358" transform="translate(-829 -166)">
    <g id="组_4326" data-name="组 4326" transform="translate(-7)">
      <path id="路径_9553" data-name="路径 9553" class="cls-1" d="M866.011,231.8v-.875a27.6,27.6,0,0,0,8.8-3.5,18.032,18.032,0,0,0,5.72-5.719,22.868,22.868,0,0,0,2.954-7.846,18.834,18.834,0,0,1-3.3,1.391,10.283,10.283,0,0,1-2.859.391,10.457,10.457,0,0,1-8.018-3.469q-3.2-3.47-3.2-9.5A16.957,16.957,0,0,1,867.84,195a12.841,12.841,0,0,1,18.674-5.205,14.826,14.826,0,0,1,5.283,6.158,20.686,20.686,0,0,1,1.969,9.189,27.3,27.3,0,0,1-3.2,12.815,24.324,24.324,0,0,1-9.55,9.83A31.557,31.557,0,0,1,866.011,231.8Zm17.941-20.566q.312-3.5.312-6.157a40.941,40.941,0,0,0-1.312-10.6,7.989,7.989,0,0,0-2.22-4,2.965,2.965,0,0,0-2.032-.688,2.756,2.756,0,0,0-2.437,1.344q-1.219,1.847-1.219,7.033,0,8.658,2.062,11.94a4.114,4.114,0,0,0,3.626,2.126A7.77,7.77,0,0,0,883.952,211.233Z"/>
    </g>
    <g id="椭圆_3531" data-name="椭圆 3531" class="cls-2" transform="translate(829 166)">
      <circle class="cls-3" cx="43" cy="43" r="43"/>
      <circle class="cls-4" cx="43" cy="43" r="41"/>
    </g>
  </g>
</svg>
