<svg xmlns="http://www.w3.org/2000/svg" width="86" height="86" viewBox="0 0 86 86">
  <defs>
    <style>
      .cls-1 {
        fill: #75522d;
      }

      .cls-2, .cls-4 {
        fill: none;
      }

      .cls-2 {
        stroke: #75522d;
        stroke-width: 4px;
      }

      .cls-3 {
        stroke: none;
      }
    </style>
  </defs>
  <g id="组_11349" data-name="组 11349" transform="translate(-618 -380)">
    <path id="路径_14076" data-name="路径 14076" class="cls-1" d="M623.62,391.852h20.86l-3.318,8.476H623.62l-1.675,4.435q11.332.428,17.443,5.65a13.536,13.536,0,0,1,5.026,10.709,16.08,16.08,0,0,1-8.9,14.076,20.487,20.487,0,0,1-9.3,2.119q-5.453,0-8.377-2.037a4.064,4.064,0,0,1-2.036-3.285,3.454,3.454,0,0,1,1.068-2.5,3.376,3.376,0,0,1,2.479-1.084,6.965,6.965,0,0,1,2.6.526,27.748,27.748,0,0,1,4.5,2.759,16.1,16.1,0,0,0,3.449,1.906,6.351,6.351,0,0,0,2.3.394,6.114,6.114,0,0,0,4.583-1.971,6.6,6.6,0,0,0,1.889-4.73q0-5.783-5.783-9.395T618.3,414.289q-.888,0-2.661.033Z" transform="translate(31.061 8.189)"/>
    <g id="椭圆_3534" data-name="椭圆 3534" class="cls-2" transform="translate(618 380)">
      <circle class="cls-3" cx="43" cy="43" r="43"/>
      <circle class="cls-4" cx="43" cy="43" r="41"/>
    </g>
  </g>
</svg>
