<svg xmlns="http://www.w3.org/2000/svg" width="86" height="86" viewBox="0 0 86 86">
  <defs>
    <style>
      .cls-1 {
        fill: #75522d;
      }

      .cls-2, .cls-4 {
        fill: none;
      }

      .cls-2 {
        stroke: #75522d;
        stroke-width: 4px;
      }

      .cls-3 {
        stroke: none;
      }
    </style>
  </defs>
  <g id="组_11357" data-name="组 11357" transform="translate(-829 -274)">
    <g id="组_4325" data-name="组 4325" transform="translate(-7 5)">
      <g id="组_4323" data-name="组 4323">
        <path id="路径_9551" data-name="路径 9551" class="cls-1" d="M905.646,311.383a40.568,40.568,0,0,1-1.706,11.963,16.579,16.579,0,0,1-2.74,5.588,13.991,13.991,0,0,1-3.906,3.456,9.594,9.594,0,0,1-10.059-.3,14.484,14.484,0,0,1-4.191-4.514,22.624,22.624,0,0,1-2.306-5.713,38.578,38.578,0,0,1-1.286-9.976,42.152,42.152,0,0,1,1.855-12.816,15.274,15.274,0,0,1,4.641-7.4,9.778,9.778,0,0,1,13.186-.032,14.668,14.668,0,0,1,4.506,6.835A39.91,39.91,0,0,1,905.646,311.383Zm-9.22-.064q0-11.236-.12-13.1-.3-4.387-1.438-5.935a2.816,2.816,0,0,0-2.424-1.01,2.728,2.728,0,0,0-2.035.758,6.817,6.817,0,0,0-1.5,3.9q-.39,2.795-.39,19.493a78.419,78.419,0,0,0,.6,12.185,5.569,5.569,0,0,0,1.288,3,3.173,3.173,0,0,0,2.214.757,2.611,2.611,0,0,0,2.245-1.01,10.393,10.393,0,0,0,1.438-5.461Z"/>
      </g>
      <g id="组_4324" data-name="组 4324">
        <path id="路径_9552" data-name="路径 9552" class="cls-1" d="M871.125,289.1v35.423a21.921,21.921,0,0,0,.351,5.1,3.29,3.29,0,0,0,1.469,1.8,6.948,6.948,0,0,0,3.578.7h.99V333.3H854.707v-1.182h1.15a8.9,8.9,0,0,0,3.96-.639,3.275,3.275,0,0,0,1.6-1.757,19.4,19.4,0,0,0,.416-5.206V302.064a14.2,14.2,0,0,0-.288-3.753,2.715,2.715,0,0,0-1.07-1.278,3.159,3.159,0,0,0-1.8-.526,10.244,10.244,0,0,0-3.96,1.021l-.575-1.149L870.07,289.1Z"/>
      </g>
    </g>
    <g id="椭圆_3527" data-name="椭圆 3527" class="cls-2" transform="translate(829 274)">
      <circle class="cls-3" cx="43" cy="43" r="43"/>
      <circle class="cls-4" cx="43" cy="43" r="41"/>
    </g>
  </g>
</svg>
