<svg xmlns="http://www.w3.org/2000/svg" width="1158.355" height="671.69" viewBox="0 0 1158.355 671.69">
  <defs>
    <style>
      .cls-1 {
        fill: #ff8080;
      }

      .cls-2 {
        fill: #ffa1a1;
      }

      .cls-3 {
        fill: #fff1b8;
      }

      .cls-4 {
        fill: none;
        stroke: #fff;
        stroke-miterlimit: 10;
      }

      .cls-5 {
        fill: #ff8983;
      }

      .cls-6 {
        fill: #ff5a5a;
      }

      .cls-7 {
        fill: #ffa81d;
      }

      .cls-8 {
        fill: #ffc569;
      }

      .cls-9 {
        fill: #ffba40;
      }
    </style>
  </defs>
  <g id="组_4782" data-name="组 4782" transform="translate(-60.822 -17.82)">
    <g id="组_4319" data-name="组 4319">
      <path id="矩形_1998" data-name="矩形 1998" class="cls-1" d="M55.64,0h991.435a111.28,111.28,0,0,1,111.28,111.28V560.41a111.28,111.28,0,0,1-111.28,111.28H55.64A55.64,55.64,0,0,1,0,616.05V55.64A55.64,55.64,0,0,1,55.64,0Z" transform="translate(60.822 17.82)"/>
      <path id="矩形_1999" data-name="矩形 1999" class="cls-2" d="M0,0H1021.754a55.64,55.64,0,0,1,55.64,55.64V616.05a55.64,55.64,0,0,1-55.64,55.64H0a0,0,0,0,1,0,0V0A0,0,0,0,1,0,0Z" transform="translate(141.783 17.82)"/>
      <g id="组_4314" data-name="组 4314">
        <rect id="矩形_2000" data-name="矩形 2000" class="cls-3" width="975.116" height="439.789" rx="9.605" transform="translate(164.524 36.349)"/>
        <g id="组_4313" data-name="组 4313">
          <rect id="矩形_2001" data-name="矩形 2001" class="cls-4" width="106.442" height="106.442" rx="1.561" transform="translate(180.951 50.369)"/>
          <rect id="矩形_2002" data-name="矩形 2002" class="cls-4" width="106.442" height="106.442" rx="1.561" transform="translate(180.951 156.811)"/>
          <rect id="矩形_2003" data-name="矩形 2003" class="cls-4" width="106.442" height="106.442" rx="1.561" transform="translate(180.951 263.253)"/>
          <rect id="矩形_2004" data-name="矩形 2004" class="cls-4" width="106.442" height="106.442" rx="1.561" transform="translate(180.951 369.696)"/>
          <rect id="矩形_2005" data-name="矩形 2005" class="cls-4" width="106.442" height="106.442" rx="1.561" transform="translate(287.393 50.369)"/>
          <rect id="矩形_2006" data-name="矩形 2006" class="cls-4" width="106.442" height="106.442" rx="1.561" transform="translate(287.393 156.811)"/>
          <rect id="矩形_2007" data-name="矩形 2007" class="cls-4" width="106.442" height="106.442" rx="1.561" transform="translate(287.393 263.253)"/>
          <rect id="矩形_2008" data-name="矩形 2008" class="cls-4" width="106.442" height="106.442" rx="1.561" transform="translate(287.393 369.696)"/>
          <rect id="矩形_2009" data-name="矩形 2009" class="cls-4" width="106.442" height="106.442" rx="1.561" transform="translate(393.836 50.369)"/>
          <rect id="矩形_2010" data-name="矩形 2010" class="cls-4" width="106.442" height="106.442" rx="1.561" transform="translate(393.836 156.811)"/>
          <rect id="矩形_2011" data-name="矩形 2011" class="cls-4" width="106.442" height="106.442" rx="1.561" transform="translate(393.836 263.253)"/>
          <rect id="矩形_2012" data-name="矩形 2012" class="cls-4" width="106.442" height="106.442" rx="1.561" transform="translate(393.836 369.696)"/>
          <rect id="矩形_2013" data-name="矩形 2013" class="cls-4" width="106.442" height="106.442" rx="1.561" transform="translate(500.278 50.369)"/>
          <rect id="矩形_2014" data-name="矩形 2014" class="cls-4" width="106.442" height="106.442" rx="1.561" transform="translate(500.278 156.811)"/>
          <rect id="矩形_2015" data-name="矩形 2015" class="cls-4" width="106.442" height="106.442" rx="1.561" transform="translate(500.278 263.253)"/>
          <rect id="矩形_2016" data-name="矩形 2016" class="cls-4" width="106.442" height="106.442" rx="1.561" transform="translate(500.278 369.696)"/>
          <rect id="矩形_2017" data-name="矩形 2017" class="cls-4" width="106.442" height="106.442" rx="1.561" transform="translate(606.72 50.369)"/>
          <rect id="矩形_2018" data-name="矩形 2018" class="cls-4" width="106.442" height="106.442" rx="1.561" transform="translate(606.72 156.811)"/>
          <rect id="矩形_2019" data-name="矩形 2019" class="cls-4" width="106.442" height="106.442" rx="1.561" transform="translate(606.72 263.253)"/>
          <rect id="矩形_2020" data-name="矩形 2020" class="cls-4" width="106.442" height="106.442" rx="1.561" transform="translate(606.72 369.696)"/>
          <rect id="矩形_2021" data-name="矩形 2021" class="cls-4" width="106.442" height="106.442" rx="1.561" transform="translate(713.163 50.369)"/>
          <rect id="矩形_2022" data-name="矩形 2022" class="cls-4" width="106.442" height="106.442" rx="1.561" transform="translate(713.163 156.811)"/>
          <rect id="矩形_2023" data-name="矩形 2023" class="cls-4" width="106.442" height="106.442" rx="1.561" transform="translate(713.163 263.253)"/>
          <rect id="矩形_2024" data-name="矩形 2024" class="cls-4" width="106.442" height="106.442" rx="1.561" transform="translate(713.163 369.696)"/>
          <rect id="矩形_2025" data-name="矩形 2025" class="cls-4" width="106.442" height="106.442" rx="1.561" transform="translate(819.605 50.369)"/>
          <rect id="矩形_2026" data-name="矩形 2026" class="cls-4" width="106.442" height="106.442" rx="1.561" transform="translate(819.605 156.811)"/>
          <rect id="矩形_2027" data-name="矩形 2027" class="cls-4" width="106.442" height="106.442" rx="1.561" transform="translate(819.605 263.253)"/>
          <rect id="矩形_2028" data-name="矩形 2028" class="cls-4" width="106.442" height="106.442" rx="1.561" transform="translate(819.605 369.696)"/>
          <rect id="矩形_2029" data-name="矩形 2029" class="cls-4" width="106.442" height="106.442" rx="1.561" transform="translate(926.047 50.369)"/>
          <rect id="矩形_2030" data-name="矩形 2030" class="cls-4" width="106.442" height="106.442" rx="1.561" transform="translate(926.047 156.811)"/>
          <rect id="矩形_2031" data-name="矩形 2031" class="cls-4" width="106.442" height="106.442" rx="1.561" transform="translate(926.047 263.253)"/>
          <rect id="矩形_2032" data-name="矩形 2032" class="cls-4" width="106.442" height="106.442" rx="1.561" transform="translate(926.047 369.696)"/>
          <rect id="矩形_2033" data-name="矩形 2033" class="cls-4" width="106.442" height="106.442" rx="1.561" transform="translate(1032.49 50.369)"/>
          <rect id="矩形_2034" data-name="矩形 2034" class="cls-4" width="106.442" height="106.442" rx="1.561" transform="translate(1032.49 156.811)"/>
          <rect id="矩形_2035" data-name="矩形 2035" class="cls-4" width="106.442" height="106.442" rx="1.561" transform="translate(1032.49 263.253)"/>
          <rect id="矩形_2036" data-name="矩形 2036" class="cls-4" width="106.442" height="106.442" rx="1.561" transform="translate(1032.49 369.696)"/>
        </g>
      </g>
      <path id="路径_9539" data-name="路径 9539" class="cls-5" d="M1146.2,36.349H174.731c-5.637,0-10.207,4.227-10.207,9.441V478.544c0,5.215,4.57,9.442,10.207,9.442H1146.2c5.637,0,10.207-4.227,10.207-9.442V45.79C1156.407,40.576,1151.837,36.349,1146.2,36.349Zm-6.561,430.321c0,5.229-4.57,9.468-10.207,9.468H191.5c-5.637,0-10.207-4.239-10.207-9.468V59.247c0-5.229,4.57-9.467,10.207-9.467h937.933c5.637,0,10.207,4.238,10.207,9.467Z"/>
      <g id="组_4318" data-name="组 4318">
        <g id="组_4316" data-name="组 4316">
          <rect id="矩形_2037" data-name="矩形 2037" class="cls-5" width="9.233" height="167.301" rx="4.128" transform="translate(1062.707 512.347) rotate(90)"/>
          <rect id="矩形_2038" data-name="矩形 2038" class="cls-5" width="9.233" height="116.833" rx="4.128" transform="translate(300.171 512.347) rotate(90)"/>
          <g id="组_4315" data-name="组 4315">
            <rect id="矩形_2039" data-name="矩形 2039" class="cls-5" width="24.62" height="12.939" rx="1.651" transform="translate(535.269 503.884) rotate(90)"/>
            <rect id="矩形_2040" data-name="矩形 2040" class="cls-5" width="24.62" height="12.939" rx="1.651" transform="translate(555.671 503.884) rotate(90)"/>
            <rect id="矩形_2041" data-name="矩形 2041" class="cls-5" width="24.62" height="12.939" rx="1.651" transform="translate(576.072 503.884) rotate(90)"/>
            <rect id="矩形_2042" data-name="矩形 2042" class="cls-5" width="24.62" height="12.939" rx="1.651" transform="translate(596.474 503.884) rotate(90)"/>
            <rect id="矩形_2043" data-name="矩形 2043" class="cls-5" width="24.62" height="12.939" rx="1.651" transform="translate(616.875 503.884) rotate(90)"/>
            <rect id="矩形_2044" data-name="矩形 2044" class="cls-5" width="24.62" height="12.939" rx="1.651" transform="translate(637.276 503.884) rotate(90)"/>
            <rect id="矩形_2045" data-name="矩形 2045" class="cls-5" width="24.62" height="12.939" rx="1.651" transform="translate(657.678 503.884) rotate(90)"/>
            <rect id="矩形_2046" data-name="矩形 2046" class="cls-5" width="24.62" height="12.939" rx="1.651" transform="translate(678.079 503.884) rotate(90)"/>
            <rect id="矩形_2047" data-name="矩形 2047" class="cls-5" width="24.62" height="12.939" rx="1.651" transform="translate(698.481 503.884) rotate(90)"/>
          </g>
        </g>
        <rect id="矩形_2048" data-name="矩形 2048" class="cls-6" width="17.098" height="93.371" rx="7.8" transform="translate(98.667 357.751)"/>
        <circle id="椭圆_1942" data-name="椭圆 1942" class="cls-6" cx="10.629" cy="10.629" r="10.629" transform="translate(96.588 55.766)"/>
        <g id="组_4317" data-name="组 4317">
          <path id="路径_9540" data-name="路径 9540" class="cls-5" d="M1187.588,42.775,1164.166,54.39a2.428,2.428,0,0,1-2.975-.628h0a1.647,1.647,0,0,1,.754-2.476l23.422-11.616a2.43,2.43,0,0,1,2.975.628h0A1.648,1.648,0,0,1,1187.588,42.775Z"/>
          <path id="路径_9541" data-name="路径 9541" class="cls-5" d="M1193.318,50.909,1169.9,62.524a2.428,2.428,0,0,1-2.975-.628h0a1.647,1.647,0,0,1,.754-2.476L1191.1,47.8a2.43,2.43,0,0,1,2.975.628h0A1.648,1.648,0,0,1,1193.318,50.909Z"/>
          <path id="路径_9542" data-name="路径 9542" class="cls-5" d="M1199.048,59.043l-23.422,11.615a2.427,2.427,0,0,1-2.975-.628h0a1.646,1.646,0,0,1,.754-2.476l23.422-11.616a2.431,2.431,0,0,1,2.975.628h0A1.648,1.648,0,0,1,1199.048,59.043Z"/>
          <path id="路径_9543" data-name="路径 9543" class="cls-5" d="M1204.778,67.177l-23.422,11.615a2.427,2.427,0,0,1-2.975-.628h0a1.647,1.647,0,0,1,.753-2.476l23.422-11.616a2.432,2.432,0,0,1,2.976.628h0A1.649,1.649,0,0,1,1204.778,67.177Z"/>
          <path id="路径_9544" data-name="路径 9544" class="cls-5" d="M1210.508,75.311l-23.422,11.615a2.429,2.429,0,0,1-2.976-.628h0a1.648,1.648,0,0,1,.754-2.476l23.422-11.616a2.43,2.43,0,0,1,2.975.628h0A1.648,1.648,0,0,1,1210.508,75.311Z"/>
        </g>
      </g>
    </g>
    <g id="组_4359" data-name="组 4359">
      <g id="组_4356" data-name="组 4356">
        <rect id="矩形_2074" data-name="矩形 2074" class="cls-7" width="42.356" height="119.662" rx="21.178" transform="translate(193.51 624.942) rotate(-90)"/>
        <rect id="矩形_2075" data-name="矩形 2075" class="cls-7" width="42.356" height="119.662" rx="21.178" transform="translate(272.519 665.637) rotate(180)"/>
        <rect id="矩形_2076" data-name="矩形 2076" class="cls-8" width="42.356" height="119.662" rx="21.178" transform="translate(262.933 665.637) rotate(-180)"/>
        <rect id="矩形_2077" data-name="矩形 2077" class="cls-9" width="42.356" height="119.662" rx="21.178" transform="translate(267.37 665.637) rotate(180)"/>
        <rect id="矩形_2078" data-name="矩形 2078" class="cls-8" width="42.356" height="119.662" rx="21.178" transform="translate(183.573 624.942) rotate(-90)"/>
        <rect id="矩形_2079" data-name="矩形 2079" class="cls-9" width="42.356" height="119.662" rx="21.178" transform="translate(188.403 624.942) rotate(-90)"/>
      </g>
      <g id="组_4357" data-name="组 4357">
        <circle id="椭圆_1951" data-name="椭圆 1951" class="cls-8" cx="23.489" cy="23.489" r="23.489" transform="translate(1032.553 540.524)"/>
        <circle id="椭圆_1952" data-name="椭圆 1952" class="cls-7" cx="23.489" cy="23.489" r="23.489" transform="translate(1041.068 540.524)"/>
        <circle id="椭圆_1953" data-name="椭圆 1953" class="cls-9" cx="23.489" cy="23.489" r="23.489" transform="translate(1036.745 540.524)"/>
      </g>
      <g id="组_4358" data-name="组 4358">
        <circle id="椭圆_1954" data-name="椭圆 1954" class="cls-8" cx="23.489" cy="23.489" r="23.489" transform="translate(991.523 612.203)"/>
        <circle id="椭圆_1955" data-name="椭圆 1955" class="cls-7" cx="23.489" cy="23.489" r="23.489" transform="translate(1000.038 612.203)"/>
        <circle id="椭圆_1956" data-name="椭圆 1956" class="cls-9" cx="23.489" cy="23.489" r="23.489" transform="translate(995.715 612.203)"/>
      </g>
    </g>
  </g>
</svg>
