<svg xmlns="http://www.w3.org/2000/svg" width="86" height="86" viewBox="0 0 86 86">
  <defs>
    <style>
      .cls-1 {
        fill: #75522d;
      }

      .cls-2, .cls-4 {
        fill: none;
      }

      .cls-2 {
        stroke: #75522d;
        stroke-width: 4px;
      }

      .cls-3 {
        stroke: none;
      }
    </style>
  </defs>
  <g id="组_11351" data-name="组 11351" transform="translate(-829 -274)">
    <path id="路径_14075" data-name="路径 14075" class="cls-1" d="M833.129,313.5a24.749,24.749,0,0,1,6.52,6.422,12.768,12.768,0,0,1,1.824,6.816,11.912,11.912,0,0,1-4.057,9.116q-4.058,3.728-11.022,3.728-6.6,0-10.216-3.252a10.288,10.288,0,0,1-3.614-7.95,9.956,9.956,0,0,1,2.087-6.274,18.314,18.314,0,0,1,6.947-4.927q-5.289-4.041-6.782-6.6a11.569,11.569,0,0,1-1.5-5.946,10.3,10.3,0,0,1,3.794-7.868q3.795-3.4,10.4-3.4,6.374,0,9.806,3.006a9.264,9.264,0,0,1,3.432,7.21,8.885,8.885,0,0,1-1.855,5.568A16.211,16.211,0,0,1,833.129,313.5Zm-9.067,5.255a7.158,7.158,0,0,0-1.446,1.676,13.153,13.153,0,0,0-1.182,3.35,19.765,19.765,0,0,0-.525,4.6,14.747,14.747,0,0,0,.788,5.174,5.821,5.821,0,0,0,2.25,3.006,5.578,5.578,0,0,0,3.006.92,5.313,5.313,0,0,0,4.04-1.758,6.762,6.762,0,0,0,1.643-4.812Q832.636,324.54,824.062,318.757Zm6.57-6.931a11.516,11.516,0,0,0,1.807-3.679,15.984,15.984,0,0,0,.592-4.468q0-4.269-1.841-6.537a4.594,4.594,0,0,0-3.81-1.741,5.022,5.022,0,0,0-3.744,1.593,5.461,5.461,0,0,0-1.545,3.959,8.987,8.987,0,0,0,1.725,4.977Q825.54,308.508,830.632,311.826Z" transform="translate(45.061 -0.811)"/>
    <g id="椭圆_3527" data-name="椭圆 3527" class="cls-2" transform="translate(829 274)">
      <circle class="cls-3" cx="43" cy="43" r="43"/>
      <circle class="cls-4" cx="43" cy="43" r="41"/>
    </g>
  </g>
</svg>
