<svg xmlns="http://www.w3.org/2000/svg" width="86" height="86" viewBox="0 0 86 86">
  <defs>
    <style>
      .cls-1 {
        fill: #75522d;
      }

      .cls-2, .cls-4 {
        fill: none;
      }

      .cls-2 {
        stroke: #75522d;
        stroke-width: 4px;
      }

      .cls-3 {
        stroke: none;
      }
    </style>
  </defs>
  <g id="组_11354" data-name="组 11354" transform="translate(-510 -380)">
    <path id="路径_9545" data-name="路径 9545" class="cls-1" d="M571.492,395.661v.864a29.446,29.446,0,0,0-8.959,3.654,17.43,17.43,0,0,0-5.334,5.427,26.275,26.275,0,0,0-3.037,7.91,9.1,9.1,0,0,1,2.25-1.2,13.683,13.683,0,0,1,4.04-.616,10.175,10.175,0,0,1,7.817,3.407q3.131,3.408,3.13,9.3a16.968,16.968,0,0,1-1.7,7.586,12.505,12.505,0,0,1-4.81,5.334,12.67,12.67,0,0,1-6.661,1.881,12.867,12.867,0,0,1-7.123-2.112,13.927,13.927,0,0,1-5.1-6.183,21.252,21.252,0,0,1-1.836-8.85,26.462,26.462,0,0,1,3.377-13.091,25.149,25.149,0,0,1,9.59-9.652A28.629,28.629,0,0,1,571.492,395.661Zm-17.731,20.353q-.247,4.256-.246,6.229a40.872,40.872,0,0,0,.816,8.233,12.388,12.388,0,0,0,2.236,5.582,2.909,2.909,0,0,0,4.934-.509q1.11-1.65,1.11-6.707,0-8.511-2.066-11.749a4.057,4.057,0,0,0-3.577-2.1A7.514,7.514,0,0,0,553.761,416.014Z" transform="translate(-5 5.339)"/>
    <g id="椭圆_3536" data-name="椭圆 3536" class="cls-2" transform="translate(510 380)">
      <circle class="cls-3" cx="43" cy="43" r="43"/>
      <circle class="cls-4" cx="43" cy="43" r="41"/>
    </g>
  </g>
</svg>
