<svg xmlns="http://www.w3.org/2000/svg" width="288.582" height="348.886" viewBox="0 0 288.582 348.886">
  <defs>
    <style>
      .cls-1, .cls-13 {
        fill: #f37366;
      }

      .cls-1, .cls-17, .cls-31 {
        stroke-miterlimit: 10;
      }

      .cls-2 {
        fill: #ffbc8c;
      }

      .cls-3 {
        fill: #a86a47;
      }

      .cls-4 {
        fill: #ffd858;
      }

      .cls-5 {
        fill: #ee6457;
      }

      .cls-6 {
        fill: #e35546;
      }

      .cls-7 {
        fill: #f36e3a;
      }

      .cls-8 {
        fill: #f6804e;
      }

      .cls-9 {
        fill: #fa9e49;
      }

      .cls-10 {
        fill: #ffe58f;
      }

      .cls-11 {
        fill: #5266ae;
      }

      .cls-12 {
        fill: #525f9b;
      }

      .cls-14 {
        fill: #e3d8e3;
      }

      .cls-15 {
        fill: #fdb74f;
      }

      .cls-16 {
        fill: #fede81;
      }

      .cls-17, .cls-31 {
        fill: none;
      }

      .cls-17 {
        stroke: #1f8a5d;
        stroke-width: 1.133px;
      }

      .cls-18 {
        fill: #ebf393;
      }

      .cls-19 {
        fill: #4eb092;
      }

      .cls-20 {
        fill: #f17669;
      }

      .cls-21 {
        fill: #665855;
      }

      .cls-22 {
        fill: #e85c52;
      }

      .cls-23 {
        fill: #e66153;
      }

      .cls-24 {
        fill: #fd8f8b;
      }

      .cls-25 {
        fill: #f28580;
      }

      .cls-26 {
        fill: #f37464;
      }

      .cls-27 {
        fill: #719e1a;
      }

      .cls-28 {
        fill: #81b725;
      }

      .cls-29 {
        fill: #e8343d;
      }

      .cls-30 {
        fill: #ff4547;
      }

      .cls-31 {
        stroke: #96420f;
        stroke-width: 3.398px;
      }

      .cls-32, .cls-33 {
        stroke: none;
      }

      .cls-33 {
        fill: #fff;
      }
    </style>
  </defs>
  <g id="组_2782" data-name="组 2782" transform="translate(73.266 1009.8)">
    <g id="路径_6549" data-name="路径 6549" class="cls-1">
      <path class="cls-32" d="M 95.52494049072266 -665.91357421875 C 95.52103424072266 -665.91357421875 95.51854705810547 -665.91357421875 95.51464080810547 -665.91357421875 C 90.50113677978516 -665.9137573242188 85.32145690917969 -666.0493774414063 80.11949920654297 -666.3165893554688 C 62.38127517700195 -667.2299194335938 45.17123031616211 -669.4822387695313 28.96681976318359 -673.0111083984375 C 15.35159301757813 -675.9761962890625 2.349865674972534 -679.8587036132813 -9.677270889282227 -684.5509643554688 C -19.80386161804199 -688.5025634765625 -29.06004333496094 -692.9414672851563 -37.18909072875977 -697.7445068359375 C -40.32386016845703 -699.5966796875 -43.19263458251953 -701.4483642578125 -45.71577072143555 -703.2481079101563 C -47.82008743286133 -704.7491455078125 -49.61086273193359 -706.164794921875 -50.89445114135742 -707.3419799804688 C -51.69340896606445 -708.0747680664063 -52.50945281982422 -708.7916259765625 -53.37340545654297 -709.5505981445313 C -57.00154495239258 -712.7376708984375 -61.11376953125 -716.3499755859375 -64.07072448730469 -721.530029296875 C -67.44918060302734 -727.4484252929688 -68.76599884033203 -734.44482421875 -68.09645080566406 -742.9188842773438 C -67.70822906494141 -747.8140869140625 -66.57431793212891 -752.1795043945313 -64.72608947753906 -755.895263671875 C -63.17626953125 -759.0111694335938 -61.13095092773438 -761.67041015625 -58.64695358276367 -763.7991333007813 C -56.78125762939453 -765.3980102539063 -54.933837890625 -766.4622192382813 -53.4016227722168 -767.1616821289063 C -53.37631225585938 -775.8676147460938 -51.81875610351563 -783.396240234375 -50.96540451049805 -786.8743896484375 C -53.60594940185547 -792.1631469726563 -55.31969833374023 -798.2182006835938 -55.94645309448242 -804.5167846679688 C -56.62831497192383 -811.3684692382813 -56.0076789855957 -818.24267578125 -54.15167999267578 -824.3960571289063 C -52.82972717285156 -828.7788696289063 -50.92509078979492 -832.6734008789063 -48.49063491821289 -835.9715576171875 C -45.99405670166016 -839.3538818359375 -43.00147247314453 -842.0252075195313 -39.58668899536133 -843.9219360351563 C -39.04492950439453 -844.4493408203125 -38.18126678466797 -845.2427368164063 -36.96781539916992 -846.2208251953125 L -36.90822601318359 -846.2688598632813 L -36.84722518920898 -846.3150634765625 L -36.84650802612305 -846.3155517578125 C -35.41754531860352 -847.480224609375 -33.76986312866211 -848.6660766601563 -31.94767951965332 -849.841064453125 C -28.75863456726074 -851.898193359375 -25.23899841308594 -853.7892456054688 -21.48713493347168 -855.4610595703125 L -21.03599739074707 -855.662109375 L -21.03599739074707 -996.3309936523438 C -21.03599739074707 -1001.000793457031 -17.23681640625 -1004.799987792969 -12.56699848175049 -1004.799987792969 C -7.946519374847412 -1004.799987792969 -4.178268432617188 -1001.081604003906 -4.098297119140625 -996.4804077148438 C -3.56332540512085 -996.5307006835938 -3.025123596191406 -996.5560302734375 -2.484997987747192 -996.5560302734375 L 175.8500061035156 -996.5560302734375 C 178.2020874023438 -996.5560302734375 180.489501953125 -996.0910034179688 182.6486358642578 -995.1737670898438 C 184.7259063720703 -994.2913208007813 186.5922698974609 -993.0308837890625 188.1958160400391 -991.4274291992188 C 189.7994537353516 -989.8238525390625 191.0599975585938 -987.95751953125 191.9425506591797 -985.8801879882813 C 192.85986328125 -983.720947265625 193.3249969482422 -981.433349609375 193.3249969482422 -979.0809936523438 L 193.3249969482422 -894.1279907226563 C 193.3249969482422 -891.775634765625 192.85986328125 -889.488037109375 191.9425506591797 -887.3287963867188 C 191.0599975585938 -885.25146484375 189.7994079589844 -883.3851318359375 188.1958160400391 -881.7816162109375 C 186.5922698974609 -880.1781005859375 184.7259063720703 -878.9176635742188 182.6486358642578 -878.0352783203125 C 180.489501953125 -877.1180419921875 178.2020874023438 -876.6530151367188 175.8500061035156 -876.6530151367188 L -2.484997987747192 -876.6530151367188 C -3.024721384048462 -876.6530151367188 -3.56238865852356 -876.6782836914063 -4.09699821472168 -876.7284545898438 L -4.09699821472168 -861.277099609375 C -1.700732588768005 -861.8494873046875 0.74308842420578 -862.3495483398438 3.216956615447998 -862.773193359375 L 3.635910987854004 -862.844970703125 L 3.639013528823853 -862.844970703125 C 7.996159076690674 -863.5880737304688 12.57895469665527 -864.12158203125 17.26754760742188 -864.43115234375 C 20.55636596679688 -864.6480102539063 23.96427536010742 -864.7579956054688 27.39700126647949 -864.7579956054688 C 31.71213912963867 -864.7579956054688 36.19477462768555 -864.5842895507813 40.72036743164063 -864.24169921875 L 40.93436431884766 -864.2255249023438 L 41.14613723754883 -864.1911010742188 C 46.84833145141602 -863.2631225585938 51.50126647949219 -861.4385375976563 55.33661270141602 -858.6223754882813 C 57.16197967529297 -857.9186401367188 61.15358352661133 -856.0401000976563 66.13349914550781 -851.66259765625 C 69.79949951171875 -848.4400024414063 73.34450531005859 -844.4489135742188 76.66996002197266 -839.8001098632813 C 79.72527313232422 -835.5289916992188 82.60896301269531 -830.679443359375 85.27732086181641 -825.3295288085938 C 85.91168975830078 -825.7667236328125 86.53972625732422 -826.1923217773438 87.15847778320313 -826.604248046875 C 89.6585693359375 -828.28466796875 92.27685546875 -829.9397583007813 94.94058990478516 -831.5236206054688 C 100.3951416015625 -834.761962890625 106.7278671264648 -837.2172241210938 113.7657775878906 -838.8228759765625 C 119.6797256469727 -840.1720581054688 126.0286407470703 -840.88525390625 132.1260986328125 -840.88525390625 C 133.3485870361328 -840.88525390625 134.5667724609375 -840.8562622070313 135.746826171875 -840.7991333007813 C 137.7726440429688 -840.7003173828125 139.7123718261719 -840.521240234375 141.5140075683594 -840.2669067382813 L 141.5228271484375 -840.265625 L 141.5316314697266 -840.2643432617188 C 145.987548828125 -839.6190795898438 149.3721771240234 -838.5559692382813 151.591552734375 -837.1046752929688 C 154.5406646728516 -835.1847534179688 157.3448486328125 -832.2567138671875 159.7018127441406 -828.6361083984375 C 161.7675476074219 -825.462890625 163.4073181152344 -821.87255859375 164.319091796875 -818.5265502929688 C 164.4674377441406 -817.9819946289063 164.5957946777344 -817.44677734375 164.7039489746094 -816.9222412109375 C 165.9666442871094 -816.3072509765625 167.2085876464844 -815.5894775390625 168.4182281494141 -814.7745971679688 C 170.0837249755859 -813.6527099609375 171.6946411132813 -812.3434448242188 173.2061767578125 -810.8831176757813 C 175.0298919677734 -809.1212158203125 176.2809600830078 -807.5538330078125 176.9006805419922 -806.7223510742188 C 181.2938995361328 -802.8649291992188 185.1120452880859 -797.25048828125 188.2551879882813 -790.0230102539063 C 190.5775451660156 -784.6875 192.5292816162109 -778.5012817382813 194.0554046630859 -771.6378173828125 C 195.3172302246094 -765.9631958007813 196.2643585205078 -759.8861083984375 196.7944183349609 -754.0632934570313 C 196.8623962402344 -753.3206787109375 196.9487915039063 -752.3436889648438 197.0135650634766 -751.381591796875 C 197.1319580078125 -749.7307739257813 197.2098541259766 -748.1547241210938 197.2467956542969 -746.6679077148438 C 198.6978149414063 -745.788330078125 200.2528533935547 -744.7843017578125 201.5800018310547 -743.7890014648438 C 202.2139892578125 -743.3131103515625 202.8171539306641 -742.7029418945313 203.4168243408203 -741.9302368164063 L 204.0061798095703 -741.3408813476563 L 204.1568298339844 -740.8905029296875 C 205.2314300537109 -739.2574462890625 206.3089294433594 -737.0819091796875 207.2360076904297 -734.6621704101563 C 208.4005432128906 -731.6224975585938 209.2871398925781 -728.3239135742188 209.7999114990234 -725.1229248046875 C 210.7830505371094 -718.986083984375 210.8863677978516 -710.19189453125 205.7957305908203 -703.1466064453125 C 204.0106353759766 -700.6758422851563 200.5837707519531 -696.7545166015625 194.3966827392578 -692.106201171875 C 188.3364105224609 -687.5530395507813 181.1494598388672 -683.4558715820313 173.0354156494141 -679.9283447265625 C 163.2669525146484 -675.6817016601563 152.3038635253906 -672.3441162109375 140.45068359375 -670.008544921875 C 126.6614151000977 -667.2914428710938 111.5453186035156 -665.91357421875 95.52494049072266 -665.91357421875 Z"/>
      <path class="cls-33" d="M 95.51480102539063 -670.9135131835938 C 162.9501037597656 -670.9111328125 194.0758209228516 -695.4627075195313 201.7429962158203 -706.0750122070313 C 209.1889953613281 -716.3800048828125 203.3180084228516 -733.6019287109375 199.6390075683594 -738.635009765625 L 199.6380004882813 -738.6380004882813 L 199.6360015869141 -738.6400146484375 C 199.2550048828125 -739.1610107421875 198.8970031738281 -739.551025390625 198.5800018310547 -739.7890014648438 C 196.6479949951172 -741.2379760742188 194.0950012207031 -742.7559814453125 192.2649993896484 -743.7880249023438 C 192.2949981689453 -745.822021484375 192.2239990234375 -748.27001953125 192.0260009765625 -751.0289306640625 C 191.9700012207031 -751.864013671875 191.89599609375 -752.7249755859375 191.8150024414063 -753.6099853515625 C 190.8870086669922 -763.8040161132813 188.4170074462891 -777.1229858398438 183.6699981689453 -788.0289306640625 C 180.9649963378906 -794.2490234375 177.5180053710938 -799.6829833984375 173.1920013427734 -803.3170166015625 C 173.1920013427734 -803.3170166015625 168.3209991455078 -810.5330200195313 160.1260070800781 -813.4300537109375 C 160.0830078125 -814.5629272460938 159.8659973144531 -815.8499755859375 159.4949951171875 -817.2119750976563 C 157.9840087890625 -822.7570190429688 153.9300079345703 -829.6209716796875 148.8549957275391 -832.9199829101563 C 147.2830047607422 -833.947998046875 144.4539947509766 -834.7890014648438 140.8150024414063 -835.3159790039063 C 139.1930084228516 -835.5449829101563 137.4109954833984 -835.7119750976563 135.5050048828125 -835.8050537109375 C 134.4172973632813 -835.857666015625 133.2875061035156 -835.88525390625 132.1263427734375 -835.88525390625 C 121.5584411621094 -835.88525390625 108.2422409057617 -833.6060180664063 97.49600219726563 -827.2260131835938 C 95.03900146484375 -825.7650146484375 92.50700378417969 -824.1749267578125 89.93800354003906 -822.447998046875 C 88.31100463867188 -821.3649291992188 86.66999816894531 -820.219970703125 85.02400207519531 -819.0250244140625 C 84.45500183105469 -818.614013671875 83.88400268554688 -818.1840209960938 83.31400299072266 -817.760986328125 L 83.30900573730469 -817.77197265625 C 69.17400360107422 -849.614013671875 52.95700073242188 -854.1610107421875 52.95700073242188 -854.1610107421875 L 52.95600128173828 -854.1519775390625 C 49.79900360107422 -856.6389770507813 45.77500152587891 -858.3720092773438 40.34300231933594 -859.2559814453125 C 35.80202484130859 -859.5996704101563 31.48842811584473 -859.7579956054688 27.39673042297363 -859.7579956054688 C 23.97628402709961 -859.7579956054688 20.71095085144043 -859.6473999023438 17.59700202941895 -859.4420166015625 C 12.72000217437744 -859.1199951171875 8.220002174377441 -858.5689697265625 4.067001819610596 -857.844970703125 L 4.061001777648926 -857.844970703125 C -0.7849980592727661 -857.0150146484375 -5.154997825622559 -855.9450073242188 -9.066998481750488 -854.75 L -9.072998046875 -854.75 L -9.09699821472168 -854.7420043945313 L -9.09699821472168 -883.5770263671875 C -7.175998210906982 -882.3660278320313 -4.911998271942139 -881.6530151367188 -2.484997987747192 -881.6530151367188 L 175.8500061035156 -881.6530151367188 C 182.7109985351563 -881.6530151367188 188.3249969482422 -887.2659301757813 188.3249969482422 -894.1279296875 L 188.3249969482422 -979.0809326171875 C 188.3249969482422 -985.9429321289063 182.7109985351563 -991.5560302734375 175.8500061035156 -991.5560302734375 L -2.484997987747192 -991.5560302734375 C -4.911998271942139 -991.5560302734375 -7.175998210906982 -990.843017578125 -9.09699821472168 -989.6309814453125 L -9.09699821472168 -996.3309326171875 C -9.09699821472168 -998.2470092773438 -10.65099811553955 -999.7999267578125 -12.56699848175049 -999.7999267578125 C -14.48299789428711 -999.7999267578125 -16.03599739074707 -998.2470092773438 -16.03599739074707 -996.3309326171875 L -16.03599739074707 -852.3159790039063 C -17.22099876403809 -851.8480224609375 -18.37099838256836 -851.375 -19.44599723815918 -850.8939819335938 L -19.45199775695801 -850.8939819335938 C -23.45099830627441 -849.1119995117188 -26.69399833679199 -847.280029296875 -29.23799896240234 -845.6389770507813 C -31.11899757385254 -844.426025390625 -32.62299728393555 -843.31201171875 -33.75599670410156 -842.3839721679688 L -33.82999801635742 -842.3280029296875 C -35.68099975585938 -840.8359985351563 -36.55999755859375 -839.8709716796875 -36.55999755859375 -839.8709716796875 C -52.15099716186523 -831.8619995117188 -55.51199722290039 -805.1300048828125 -45.63299942016602 -787.4840087890625 C -44.7599983215332 -785.9229736328125 -44.15299987792969 -784.3590087890625 -43.7349967956543 -782.7969970703125 C -44.4219970703125 -784.3179931640625 -45.06799697875977 -785.8699951171875 -45.63299942016602 -787.4840087890625 C -45.63299942016602 -787.4840087890625 -48.99699783325195 -776.1829833984375 -48.30899810791016 -763.43701171875 L -48.78399658203125 -763.4940185546875 C -48.78399658203125 -763.4940185546875 -61.63299942016602 -761.1729736328125 -63.11199951171875 -742.5250244140625 C -64.58499908447266 -723.8820190429688 -55.2079963684082 -718.0830078125 -47.51499938964844 -711.0269775390625 C -43.5469970703125 -707.3880004882813 -30.38299751281738 -697.9979858398438 -7.859998226165771 -689.208984375 C 13.2710018157959 -680.9650268554688 42.63900375366211 -673.2529296875 80.37599945068359 -671.3099365234375 C 85.61019897460938 -671.0410766601563 90.66143798828125 -670.9136962890625 95.51480102539063 -670.9135131835938 M 114.9210052490234 -804.635009765625 C 100.5730056762695 -797.9190063476563 82.81300354003906 -786.7919311523438 61.64600372314453 -768.593994140625 C 66.29800415039063 -772.7589721679688 71.81900024414063 -777.4300537109375 78.01200103759766 -782.1489868164063 C 80.70999908447266 -784.2100219726563 83.53300476074219 -786.2769775390625 86.46600341796875 -788.3070068359375 C 95.15499877929688 -794.3460083007813 104.7939987182617 -800.1149291992188 114.9210052490234 -804.635009765625 M 72.23300170898438 -808.8590087890625 L 72.27100372314453 -808.7990112304688 L 72.24800109863281 -808.7780151367188 L 72.24600219726563 -808.791015625 C 72.24200439453125 -808.8129272460938 72.23699951171875 -808.8369750976563 72.23300170898438 -808.8590087890625 M 95.52466583251953 -660.91357421875 L 95.52439880371094 -660.91357421875 C 90.49660491943359 -660.9136962890625 85.27433776855469 -661.045166015625 79.86299896240234 -661.3231811523438 C 46.41133499145508 -663.0454711914063 15.67460155487061 -669.293212890625 -11.49453163146973 -679.892822265625 C -33.16453170776367 -688.3489379882813 -48.08286285400391 -697.9793701171875 -54.27386474609375 -703.6568603515625 L -56.67333221435547 -705.7941284179688 C -64.31813049316406 -712.5097045898438 -74.78799438476563 -721.7069702148438 -73.0809326171875 -743.3126831054688 C -71.91934204101563 -757.95849609375 -64.98201751708984 -766.189697265625 -58.33045959472656 -770.2542114257813 C -58.05581283569336 -776.8944702148438 -57.02949142456055 -782.6644897460938 -56.22843933105469 -786.2977294921875 C -61.70170211791992 -798.3407592773438 -62.77508544921875 -813.1206665039063 -58.93866348266602 -825.8400268554688 C -55.95759963989258 -835.723388671875 -50.1888542175293 -843.5114135742188 -42.60169982910156 -847.9571533203125 C -41.98816299438477 -848.5304565429688 -41.15991973876953 -849.263916015625 -40.10566329956055 -850.1137084960938 C -38.72879791259766 -851.2371826171875 -36.92173004150391 -852.5830078125 -34.65732955932617 -854.0431518554688 C -31.97926330566406 -855.770751953125 -29.08833694458008 -857.385986328125 -26.03599739074707 -858.8612060546875 L -26.03599739074707 -996.3309326171875 C -26.03599739074707 -1003.757751464844 -19.99379730224609 -1009.799926757813 -12.56699848175049 -1009.799926757813 C -6.991461277008057 -1009.799926757813 -2.196415424346924 -1006.395446777344 -0.1518603414297104 -1001.556030273438 L 175.8500061035156 -1001.556030273438 C 188.2427368164063 -1001.556030273438 198.3249969482422 -991.4737548828125 198.3249969482422 -979.0809326171875 L 198.3249969482422 -894.1279296875 C 198.3249969482422 -881.7352294921875 188.2427368164063 -871.6530151367188 175.8500061035156 -871.6530151367188 L 0.9030019640922546 -871.6530151367188 L 0.9030019640922546 -867.4403686523438 C 1.391969680786133 -867.5303344726563 1.882098078727722 -867.6173706054688 2.37293529510498 -867.701416015625 C 7.013401985168457 -868.50927734375 11.92293548583984 -869.0891723632813 16.93820190429688 -869.4202880859375 C 20.2620677947998 -869.6394653320313 23.74660110473633 -869.7579345703125 27.39673614501953 -869.7579345703125 C 31.7269344329834 -869.7579345703125 36.29206848144531 -869.5912475585938 41.09780120849609 -869.2274169921875 C 48.28905868530273 -868.0916748046875 53.64257431030273 -866.012451171875 58.08769989013672 -862.8042602539063 C 65.65275573730469 -859.757080078125 76.87262725830078 -850.9859008789063 87.11722564697266 -832.56201171875 C 88.8929443359375 -833.7052612304688 90.65653991699219 -834.79345703125 92.38507080078125 -835.8212890625 C 103.1601333618164 -842.2183837890625 117.6431350708008 -845.8853149414063 132.1263427734375 -845.8853149414063 C 133.4537353515625 -845.8853149414063 134.7452087402344 -845.8535766601563 135.9886016845703 -845.7932739257813 C 138.2255401611328 -845.68408203125 140.3128662109375 -845.4860229492188 142.2129974365234 -845.2177734375 C 147.5033416748047 -844.4517822265625 151.4548034667969 -843.1683349609375 154.3283386230469 -841.2890625 C 162.1889953613281 -836.1793212890625 167.1144866943359 -826.8921508789063 169.0176391601563 -820.288818359375 C 174.9455261230469 -816.8743286132813 178.8934478759766 -812.3326416015625 180.593017578125 -810.1288452148438 C 185.3767700195313 -805.7999877929688 189.4929962158203 -799.7142333984375 192.84033203125 -792.0170288085938 C 199.1395416259766 -777.5449829101563 201.1862640380859 -760.9706420898438 201.7738037109375 -754.5165405273438 L 202.0036010742188 -751.6981201171875 C 202.0578460693359 -750.942626953125 202.1032562255859 -750.2057495117188 202.1403961181641 -749.4899291992188 C 202.994873046875 -748.928955078125 203.8268585205078 -748.3538208007813 204.5798034667969 -747.7891845703125 C 205.7065277099609 -746.9432373046875 206.7283325195313 -745.8824462890625 207.7079315185547 -744.5429077148438 C 213.5128631591797 -736.6000366210938 220.3473358154297 -714.7483520507813 209.8484649658203 -700.21826171875 C 206.9421997070313 -696.1956787109375 179.0402069091797 -660.91357421875 95.52466583251953 -660.91357421875 Z"/>
    </g>
    <rect id="矩形_470" data-name="矩形 470" class="cls-2" width="203.285" height="109.904" rx="12.475" transform="translate(-14.96 -991.556)"/>
    <path id="路径_6550" data-name="路径 6550" class="cls-3" d="M-9.1-996.331v211.409h-6.938V-996.331a3.469,3.469,0,0,1,3.469-3.469h0A3.469,3.469,0,0,1-9.1-996.331Z"/>
    <path id="路径_6551" data-name="路径 6551" class="cls-4" d="M52.957-854.161s16.217,4.547,30.352,36.389-8.725,12.591-8.725,12.591S50.925-840.955,52.957-854.161Z"/>
    <path id="路径_6552" data-name="路径 6552" class="cls-5" d="M76.8-789.934l-40.03,44.457-52.17-23.2-8.938-3.973S-47.973-831.67-36.56-839.871a26.65,26.65,0,0,1,2.73-2.457l.074-.056a49.651,49.651,0,0,1,4.518-3.255,72.4,72.4,0,0,1,9.786-5.255h.006A88.724,88.724,0,0,1-9.073-854.75h.006a106.34,106.34,0,0,1,13.128-3.095h.006a127.728,127.728,0,0,1,13.53-1.6,160.884,160.884,0,0,1,22.746.186c18.122,2.951,20.646,15.277,27.184,33.924a110.743,110.743,0,0,1,4.719,16.541C74.239-796.606,76.8-789.934,76.8-789.934Z"/>
    <path id="路径_6553" data-name="路径 6553" class="cls-6" d="M76.611-789.909,36.58-747.348l-52.17-23.2c-1.634-7.8-1.677-14.149,1.349-16.693a26.662,26.662,0,0,1,2.532-2.661l.074-.056a48.258,48.258,0,0,1,4.252-3.59,72.34,72.34,0,0,1,9.358-5.985h.006a89.271,89.271,0,0,1,10.052-4.636h.006a105.807,105.807,0,0,1,12.855-4.085H24.9a126.017,126.017,0,0,1,13.369-2.618,160.992,160.992,0,0,1,22.7-1.547c2.921.1,8.468.211,10.783.706A211.051,211.051,0,0,1,76.611-789.909Z"/>
    <path id="路径_6554" data-name="路径 6554" class="cls-7" d="M201.743-706.075C193.524-694.7,158.337-667.3,80.376-671.31c-37.737-1.943-67.1-9.655-88.236-17.9C-30.383-698-43.547-707.388-47.515-711.027c-7.693-7.056-17.07-12.855-15.6-31.5s14.328-20.969,14.328-20.969L55.03-750.886l65.224,2.816,69.692,3.014a76.7,76.7,0,0,1,8.634,5.267C201.954-737.257,209.963-717.452,201.743-706.075Z"/>
    <path id="路径_6555" data-name="路径 6555" class="cls-8" d="M201.743-706.075C193.524-694.7,158.337-667.3,80.376-671.31c-37.737-1.943-67.1-9.655-88.236-17.9C-8.5-689.717-25.493-703-19.6-702.071c6,.947,17.07.316,8.8-3.608s-7.408-7.508-7.408-7.508L120.254-748.07l69.692,3.014a76.7,76.7,0,0,1,8.634,5.267C201.954-737.257,209.963-717.452,201.743-706.075Z"/>
    <path id="路径_6556" data-name="路径 6556" class="cls-9" d="M-48.637-762.833s-12.576,5.663-7.2,17.357,32.132,38.558,83.754,46.775,114.2,9.9,154.865-13.7c19.174-11.167,18.889-22.353,16.859-26.242-3.453-3.73-19.65-11.553-19.65-11.553L47.72-750.93Z"/>
    <path id="路径_6557" data-name="路径 6557" class="cls-4" d="M173.192-803.317s-28.762,43.933-51.725,71.537-89.548-.21-135.275-10.113-21.953-27.951-31.825-45.591-6.518-44.378,9.073-52.387c-2.575,2.742-3.552,26.515,8.641,45.659a52.541,52.541,0,0,0,7.755,9.575v.006s3.695,3.021,9.513,7.075c10.219,7.13,26.986,17.46,41.784,20.239,4.1.767,9.006,1.646,15.109,2.674C122.1-826.818,160.126-813.43,160.126-813.43,168.321-810.533,173.192-803.317,173.192-803.317Z"/>
    <path id="路径_6558" data-name="路径 6558" class="cls-10" d="M12.324-739.473c-2.005,1.9-13.382-5.583-13.382-5.583l-26.861-49.156a52.541,52.541,0,0,0,7.755,9.575v.006s3.695,3.021,9.513,7.075C-3.917-766.867,11.34-742.5,12.324-739.473Z"/>
    <path id="路径_6559" data-name="路径 6559" class="cls-11" d="M192.051-740.1l-1.43,1.894c-.749.978-1.5,1.95-2.3,2.916-7.9,9.674-18.927,18.512-56.169,26.094h-.006c-1.461.3-2.959.594-4.506.891l-.7.13a274.459,274.459,0,0,1-71.915,2.909q-1.995-.186-3.955-.408a227.878,227.878,0,0,1-22.7-3.733c-1.052-.235-2.086-.47-3.113-.711a185.968,185.968,0,0,1-36.3-12.36q-2.032-.948-3.955-1.913a114.357,114.357,0,0,1-19.336-12.026c-.953-.743-1.844-1.485-2.68-2.21a37.819,37.819,0,0,1-7.662-8.528,41.385,41.385,0,0,1-2.909-9.755c-2.649-15.139,1.95-30.569,1.95-30.569C-34.14-754.643,3.789-741.423,23.7-736.205s29.393,4.58,36.072-3.3c52.349-72.038,96.355-67.811,113.42-63.813,4.326,3.634,7.773,9.068,10.478,15.288,4.747,10.906,7.217,24.225,8.145,34.419.081.885.155,1.746.211,2.581A62.063,62.063,0,0,1,192.051-740.1Z"/>
    <path id="路径_6560" data-name="路径 6560" class="cls-12" d="M192.051-740.1l-1.43,1.894c-.749.978-1.5,1.95-2.3,2.916-7.9,9.674-18.927,18.512-56.169,26.094h-.006c-1.461.3-2.959.594-4.506.891l-.7.13a274.459,274.459,0,0,1-71.915,2.909q-1.995-.186-3.955-.408a227.878,227.878,0,0,1-22.7-3.733c-1.052-.235-2.086-.47-3.113-.711a185.968,185.968,0,0,1-36.3-12.36q-2.032-.948-3.955-1.913a114.357,114.357,0,0,1-19.336-12.026c-.953-.743-1.844-1.485-2.68-2.21a37.819,37.819,0,0,1-7.662-8.528,41.385,41.385,0,0,1-2.909-9.755l.006-.006s78.816,79.131,239.392,5.991c.068-.031.143-.062.211-.1A62.063,62.063,0,0,1,192.051-740.1Z"/>
    <path id="路径_6561" data-name="路径 6561" class="cls-13" d="M160.126-813.43a75.628,75.628,0,0,0-25.965,2.073q-3.36.826-6.69,1.894c-14.694,4.692-28.787,12.664-41,21.156-2.933,2.03-5.756,4.1-8.454,6.158C70.857-776.7,64.593-771.3,59.536-766.688H59.53c-7.1,6.493-11.815,11.463-13.233,12.942-14.477,1.281-1.658-20.307-1.658-20.307,8.987-18.284,24.93-33.8,40.385-44.972q2.469-1.792,4.914-3.423c2.569-1.727,5.1-3.317,7.558-4.778,11.927-7.081,27.022-9.111,38.009-8.579,1.906.093,3.688.26,5.31.489,3.639.527,6.468,1.368,8.04,2.4,5.075,3.3,9.129,10.163,10.64,15.708A17.148,17.148,0,0,1,160.126-813.43Z"/>
    <ellipse id="椭圆_851" data-name="椭圆 851" class="cls-14" cx="14.718" cy="22.178" rx="14.718" ry="22.178" transform="translate(88.806 -760.462) rotate(-27.181)"/>
    <ellipse id="椭圆_852" data-name="椭圆 852" class="cls-15" cx="11.715" cy="17.996" rx="11.715" ry="17.996" transform="translate(94.074 -757.993) rotate(-27.181)"/>
    <ellipse id="椭圆_853" data-name="椭圆 853" class="cls-16" cx="2.688" cy="5.13" rx="2.688" ry="5.13" transform="translate(111.958 -757.364) rotate(-30)"/>
    <path id="路径_6562" data-name="路径 6562" class="cls-14" d="M191.815-753.61a8.454,8.454,0,0,1-2.717,1.294c-6.536,1.764-13.988-4.791-16.643-14.638s.489-19.261,7.025-21.025a8.559,8.559,0,0,1,4.19-.05C188.417-777.123,190.887-763.8,191.815-753.61Z"/>
    <path id="路径_6563" data-name="路径 6563" class="cls-15" d="M188.729-755.458c-5.2,1.4-11.167-3.939-13.322-11.931s.315-15.608,5.518-17.011a12.531,12.531,0,0,1,4.035-.475c1.507.235,10.185,19.886,6.557,28.312C191.286-755.932,188.729-755.458,188.729-755.458Z"/>
    <ellipse id="椭圆_854" data-name="椭圆 854" class="cls-16" cx="2.558" cy="5.579" rx="2.558" ry="5.579" transform="matrix(0.968, -0.249, 0.249, 0.968, 182.144, -779.572)"/>
    <path id="路径_6564" data-name="路径 6564" class="cls-17" d="M166.661-791.3"/>
    <path id="路径_6565" data-name="路径 6565" class="cls-18" d="M42.027-717.47c-7.186-1.312-14,1.863-16.767,7.347,1.027.241,2.061.476,3.113.711a227.878,227.878,0,0,0,22.7,3.733q1.959.222,3.955.408C54.108-711.126,48.971-716.2,42.027-717.47Z"/>
    <path id="路径_6566" data-name="路径 6566" class="cls-19" d="M51.075-705.679a227.878,227.878,0,0,1-22.7-3.733c2.34-3.472,7.322-5.36,12.595-4.394C46.05-712.871,49.937-709.566,51.075-705.679Z"/>
    <path id="路径_6567" data-name="路径 6567" class="cls-18" d="M-18.487-738.978c-6.078-4.029-13.585-3.689-18.525.346,5.911,5.138,14.638,10.863,25.971,16.149A16.552,16.552,0,0,0-18.487-738.978Z"/>
    <path id="路径_6568" data-name="路径 6568" class="cls-19" d="M-15-724.4a114.357,114.357,0,0,1-19.336-12.026c3.64-2.593,8.994-2.593,13.413.4A13.1,13.1,0,0,1-15-724.4Z"/>
    <path id="路径_6569" data-name="路径 6569" class="cls-20" d="M190.621-738.211c-.749.978-1.5,1.95-2.3,2.916-7.9,9.674-18.927,18.512-56.169,26.094h-.006c-1.461.3-2.959.594-4.506.891,0,0-2.965-30.581,31.009-40.7C178.137-754.8,186.783-746.418,190.621-738.211Z"/>
    <path id="路径_6570" data-name="路径 6570" class="cls-21" d="M188.325-735.295c-.842,1.033-1.721,2.054-2.668,3.069v.007a50.167,50.167,0,0,1-4.425,4.208.02.02,0,0,1-.013.007l-1.33,1.07c-.985.762-2.043,1.523-3.182,2.272-1.392.922-2.915,1.832-4.586,2.736l-1.257.656c-1.343.687-2.779,1.374-4.32,2.042a.585.585,0,0,1-.062.031l-.074.031c-1.461.638-3.008,1.269-4.667,1.894l-.031.012-1.479.545c-1.5.545-3.07,1.077-4.729,1.609l-.346.105q-1.968.631-4.116,1.245l-.353.1-1.665.464c-1.232.34-2.488.675-3.8,1.009-1.541.4-3.144.792-4.809,1.176l-.031.006-1.919.446c-2.018.451-4.116.9-6.307,1.349h-.006a37.536,37.536,0,0,1,4.388-18.184c.446-.83.941-1.672,1.486-2.5a32.47,32.47,0,0,1,4.246-5.211,32.36,32.36,0,0,1,3.4-2.947c.489-.371.99-.736,1.516-1.083v-.006a36.967,36.967,0,0,1,4.63-2.643,40.849,40.849,0,0,1,4.635-1.887c.285-.1.57-.192.861-.285.272-.087.538-.167.8-.254,1.8-.545,3.5-.972,5.1-1.287a40.191,40.191,0,0,1,4.178-.613c.489-.043.959-.081,1.424-.1a27.367,27.367,0,0,1,5.242.2,21.644,21.644,0,0,1,3.256.712c.569.173,1.114.365,1.628.576a16.957,16.957,0,0,1,5.4,3.453.02.02,0,0,1,.006.013A16.419,16.419,0,0,1,188.325-735.295Z"/>
    <path id="路径_6571" data-name="路径 6571" class="cls-20" d="M145.222-712.178,140.413-711l-.031.006-2.358-18.89a32.47,32.47,0,0,1,4.246-5.211Z"/>
    <path id="路径_6572" data-name="路径 6572" class="cls-22" d="M140.382-711l-1.919.446-1.925-16.835c.446-.83.941-1.672,1.486-2.5Z"/>
    <path id="路径_6573" data-name="路径 6573" class="cls-20" d="M155.5-715.106l-.346.105-4.116,1.245-.353.1-3.5-25.476v-.006a36.967,36.967,0,0,1,4.63-2.643Z"/>
    <path id="路径_6574" data-name="路径 6574" class="cls-22" d="M150.687-713.651l-1.665.464-3.354-24.857c.489-.371.99-.736,1.516-1.083Z"/>
    <path id="路径_6575" data-name="路径 6575" class="cls-20" d="M166.544-719.228v.006l-.062.025-.074.031-4.667,1.894-.031.012-3.6-26.942c1.8-.545,3.5-.972,5.1-1.287Z"/>
    <path id="路径_6576" data-name="路径 6576" class="cls-22" d="M161.71-717.26l-1.479.545-3.782-26.948c.285-.1.57-.192.861-.285.272-.087.538-.167.8-.254Z"/>
    <path id="路径_6577" data-name="路径 6577" class="cls-20" d="M176.707-724.662c-1.392.922-2.915,1.832-4.586,2.736L168.816-746.2a27.367,27.367,0,0,1,5.242.2S176.46-727.249,176.707-724.662Z"/>
    <path id="路径_6578" data-name="路径 6578" class="cls-22" d="M172.121-721.926l-1.257.656L167.392-746.1c.489-.043.959-.081,1.424-.1Z"/>
    <path id="路径_6579" data-name="路径 6579" class="cls-20" d="M185.657-732.226v.007a50.167,50.167,0,0,1-4.425,4.208.02.02,0,0,1-.013.007l-2.277-16.7a16.957,16.957,0,0,1,5.4,3.453.02.02,0,0,1,.006.013S185.31-735,185.657-732.226Z"/>
    <path id="路径_6580" data-name="路径 6580" class="cls-22" d="M181.219-728l-1.33,1.07-2.575-18.351c.569.173,1.114.365,1.628.576Z"/>
    <path id="路径_6581" data-name="路径 6581" class="cls-23" d="M160.126-813.43a75.628,75.628,0,0,0-25.965,2.073q-3.36.826-6.69,1.894c-14.694,4.692-28.787,12.664-41,21.149v.007c-.73.507-1.46,1.015-2.178,1.528s-1.43,1.028-2.136,1.542-1.4,1.027-2.092,1.541-1.374,1.033-2.048,1.547C70.857-776.7,64.593-771.3,59.536-766.688A201.917,201.917,0,0,1,79.051-787.6c2.507-2.352,5.206-4.766,8.071-7.161C99.34-805,114.51-814.99,130.3-818.734a60.043,60.043,0,0,1,6.227-1.139,46.086,46.086,0,0,1,22.969,2.661A17.148,17.148,0,0,1,160.126-813.43Z"/>
    <path id="路径_6582" data-name="路径 6582" class="cls-24" d="M89.938-822.448l-2.816,27.685c-2.865,2.4-5.564,4.809-8.071,7.161l5.973-31.423Q87.493-820.817,89.938-822.448Z"/>
    <path id="路径_6583" data-name="路径 6583" class="cls-25" d="M87.122-794.763l-.656,6.449v.007c-.73.507-1.46,1.015-2.178,1.528s-1.43,1.028-2.136,1.542-1.4,1.027-2.092,1.541-1.374,1.033-2.048,1.547l1.039-5.453C81.558-789.954,84.257-792.368,87.122-794.763Z"/>
    <path id="路径_6584" data-name="路径 6584" class="cls-24" d="M140.815-835.316l-4.289,15.443a60.043,60.043,0,0,0-6.227,1.139l5.206-17.071C137.411-835.712,139.193-835.545,140.815-835.316Z"/>
    <path id="路径_6585" data-name="路径 6585" class="cls-25" d="M136.526-819.873l-2.365,8.516q-3.36.826-6.69,1.894l2.828-9.271A60.043,60.043,0,0,1,136.526-819.873Z"/>
    <ellipse id="椭圆_855" data-name="椭圆 855" class="cls-10" cx="6.479" cy="3.022" rx="6.479" ry="3.022" transform="translate(36.816 -741.776)"/>
    <path id="路径_6586" data-name="路径 6586" class="cls-26" d="M-31.643-843.1a1.594,1.594,0,0,0,.569,2.862c7.976,1.711,31.216,3.634,72.051-16.7C45.676-859.494-3.308-863.234-31.643-843.1Z"/>
    <g id="组_2781" data-name="组 2781">
      <g id="组_2776" data-name="组 2776">
        <path id="路径_6587" data-name="路径 6587" class="cls-27" d="M39.315-972.3a8.8,8.8,0,0,0-2.142-2.638c-2.474-2.1-5.5-2.6-6.764-1.113s-.273,4.394,2.2,6.491a8.256,8.256,0,0,0,3.734,1.881A13.706,13.706,0,0,1,39.315-972.3Z"/>
        <path id="路径_6588" data-name="路径 6588" class="cls-28" d="M32.269-976.9a2.592,2.592,0,0,0-1.863.847c-1.259,1.487-.274,4.394,2.2,6.491a8.85,8.85,0,0,0,2.8,1.636,13.572,13.572,0,0,1,2.889-4.429,8.8,8.8,0,0,0-2.142-2.638,8.2,8.2,0,0,0-3.89-1.907Z"/>
        <path id="路径_6589" data-name="路径 6589" class="cls-29" d="M36.224-963.955a1.078,1.078,0,0,1-.875.269,1.072,1.072,0,0,1-.911-1.216,15.936,15.936,0,0,1,1.254-3.98,12.992,12.992,0,0,1,5.789-6.307,1.075,1.075,0,0,1,1.445.468,1.074,1.074,0,0,1-.468,1.444c-4.959,2.539-5.888,8.622-5.9,8.683a1.026,1.026,0,0,1-.337.639Z"/>
        <path id="路径_6590" data-name="路径 6590" class="cls-30" d="M35.695-968.884a15.812,15.812,0,0,0-1.254,3.979,1.069,1.069,0,0,0,.51,1.072,1.1,1.1,0,0,0,.262-.174,1.07,1.07,0,0,0,.341-.643c.009-.06.934-6.147,5.9-8.683a1.073,1.073,0,0,0,.468-1.444,1.068,1.068,0,0,0-.4-.431.107.107,0,0,0-.032.016A12.963,12.963,0,0,0,35.695-968.884Z"/>
        <path id="路径_6591" data-name="路径 6591" class="cls-29" d="M34.478-964.806c5.518.2,6.119-2.921,11.339-1.9,10.406,2.027,6.269,27.148-7.149,27.1-2.071-.009-3.984-.611-6.934-.3-10.6,1.13-19.157-21.6-7.768-26.384C28.6-968.236,31.488-964.911,34.478-964.806Z"/>
        <path id="路径_6592" data-name="路径 6592" class="cls-30" d="M43.288-966.832c-.075-.013-.147-.028-.219-.038-2.938.3-4.224,2.225-8.594,2.067a5.269,5.269,0,0,1-1.045-.154,12.307,12.307,0,0,1-1.484.03c-1.884-.069-3.727-1.409-5.993-1.911a7.726,7.726,0,0,0-1.99.553c-10.518,4.416-4.017,24.152,5.391,26.242a17.938,17.938,0,0,1,3.746.055,25.406,25.406,0,0,1,3.609.247C49.671-940.4,53.547-964.832,43.288-966.832Z"/>
      </g>
      <g id="组_2777" data-name="组 2777">
        <path id="路径_6593" data-name="路径 6593" class="cls-27" d="M93.049-972.3a8.833,8.833,0,0,0-2.142-2.638c-2.475-2.1-5.5-2.6-6.764-1.113s-.274,4.394,2.2,6.491a8.256,8.256,0,0,0,3.734,1.881A13.7,13.7,0,0,1,93.049-972.3Z"/>
        <path id="路径_6594" data-name="路径 6594" class="cls-28" d="M86-976.9a2.592,2.592,0,0,0-1.863.847c-1.259,1.487-.273,4.394,2.2,6.491a8.85,8.85,0,0,0,2.8,1.636,13.576,13.576,0,0,1,2.89-4.429,8.835,8.835,0,0,0-2.142-2.638A8.207,8.207,0,0,0,86-976.9Z"/>
        <path id="路径_6595" data-name="路径 6595" class="cls-29" d="M89.958-963.955a1.079,1.079,0,0,1-.876.269,1.072,1.072,0,0,1-.911-1.216,15.966,15.966,0,0,1,1.255-3.98,12.983,12.983,0,0,1,5.789-6.307,1.074,1.074,0,0,1,1.444.468,1.074,1.074,0,0,1-.468,1.444c-4.959,2.539-5.887,8.622-5.9,8.683a1.036,1.036,0,0,1-.337.639Z"/>
        <path id="路径_6596" data-name="路径 6596" class="cls-30" d="M89.429-968.884a15.84,15.84,0,0,0-1.255,3.979,1.069,1.069,0,0,0,.51,1.072,1.1,1.1,0,0,0,.263-.174,1.074,1.074,0,0,0,.34-.643c.009-.06.935-6.147,5.9-8.683a1.073,1.073,0,0,0,.467-1.444,1.068,1.068,0,0,0-.4-.431.091.091,0,0,0-.031.016A12.958,12.958,0,0,0,89.429-968.884Z"/>
        <path id="路径_6597" data-name="路径 6597" class="cls-29" d="M88.212-964.806c5.517.2,6.118-2.921,11.338-1.9,10.407,2.027,6.269,27.148-7.148,27.1-2.072-.009-3.985-.611-6.935-.3-10.6,1.13-19.157-21.6-7.768-26.384C82.33-968.236,85.222-964.911,88.212-964.806Z"/>
        <path id="路径_6598" data-name="路径 6598" class="cls-30" d="M97.021-966.832c-.075-.013-.147-.028-.219-.038-2.937.3-4.224,2.225-8.594,2.067a5.269,5.269,0,0,1-1.045-.154,12.3,12.3,0,0,1-1.484.03c-1.884-.069-3.727-1.409-5.992-1.911a7.722,7.722,0,0,0-1.991.553c-10.518,4.416-4.017,24.152,5.391,26.242a17.938,17.938,0,0,1,3.746.055,25.4,25.4,0,0,1,3.609.247C103.4-940.4,107.281-964.832,97.021-966.832Z"/>
      </g>
      <g id="组_2778" data-name="组 2778">
        <path id="路径_6599" data-name="路径 6599" class="cls-27" d="M148.635-972.3a8.8,8.8,0,0,0-2.142-2.638c-2.474-2.1-5.5-2.6-6.764-1.113s-.274,4.394,2.2,6.491a8.259,8.259,0,0,0,3.735,1.881A13.675,13.675,0,0,1,148.635-972.3Z"/>
        <path id="路径_6600" data-name="路径 6600" class="cls-28" d="M141.589-976.9a2.592,2.592,0,0,0-1.863.847c-1.259,1.487-.274,4.394,2.2,6.491a8.854,8.854,0,0,0,2.8,1.636,13.572,13.572,0,0,1,2.889-4.429,8.8,8.8,0,0,0-2.142-2.638,8.2,8.2,0,0,0-3.89-1.907Z"/>
        <path id="路径_6601" data-name="路径 6601" class="cls-29" d="M145.544-963.955a1.079,1.079,0,0,1-.876.269,1.074,1.074,0,0,1-.911-1.216,15.966,15.966,0,0,1,1.255-3.98,12.992,12.992,0,0,1,5.789-6.307,1.073,1.073,0,0,1,1.444.468,1.073,1.073,0,0,1-.467,1.444c-4.959,2.539-5.888,8.622-5.9,8.683a1.036,1.036,0,0,1-.337.639Z"/>
        <path id="路径_6602" data-name="路径 6602" class="cls-30" d="M145.015-968.884a15.891,15.891,0,0,0-1.255,3.979,1.07,1.07,0,0,0,.51,1.072,1.1,1.1,0,0,0,.263-.174,1.074,1.074,0,0,0,.34-.643c.009-.06.935-6.147,5.9-8.683a1.072,1.072,0,0,0,.467-1.444,1.054,1.054,0,0,0-.4-.431.114.114,0,0,0-.031.016A12.963,12.963,0,0,0,145.015-968.884Z"/>
        <path id="路径_6603" data-name="路径 6603" class="cls-29" d="M143.8-964.806c5.517.2,6.118-2.921,11.338-1.9,10.407,2.027,6.269,27.148-7.148,27.1-2.072-.009-3.984-.611-6.934-.3-10.6,1.13-19.158-21.6-7.768-26.384C137.916-968.236,140.808-964.911,143.8-964.806Z"/>
        <path id="路径_6604" data-name="路径 6604" class="cls-30" d="M152.607-966.832c-.075-.013-.147-.028-.219-.038-2.937.3-4.224,2.225-8.593,2.067a5.268,5.268,0,0,1-1.046-.154,12.29,12.29,0,0,1-1.483.03c-1.885-.069-3.728-1.409-5.993-1.911a7.744,7.744,0,0,0-1.991.553c-10.518,4.416-4.017,24.152,5.392,26.242a17.927,17.927,0,0,1,3.745.055,25.4,25.4,0,0,1,3.609.247C158.99-940.4,162.867-964.832,152.607-966.832Z"/>
      </g>
      <g id="组_2779" data-name="组 2779">
        <path id="路径_6605" data-name="路径 6605" class="cls-27" d="M65.189-928.06a8.832,8.832,0,0,0-2.143-2.637c-2.474-2.1-5.5-2.6-6.764-1.114s-.273,4.395,2.2,6.492a8.266,8.266,0,0,0,3.734,1.881A13.708,13.708,0,0,1,65.189-928.06Z"/>
        <path id="路径_6606" data-name="路径 6606" class="cls-28" d="M58.142-932.654a2.59,2.59,0,0,0-1.863.846c-1.259,1.487-.274,4.395,2.2,6.492a8.866,8.866,0,0,0,2.8,1.635,13.567,13.567,0,0,1,2.89-4.428,8.823,8.823,0,0,0-2.143-2.638,8.19,8.19,0,0,0-3.89-1.907Z"/>
        <path id="路径_6607" data-name="路径 6607" class="cls-29" d="M62.1-919.711a1.078,1.078,0,0,1-.875.269,1.072,1.072,0,0,1-.911-1.216,15.937,15.937,0,0,1,1.254-3.98,12.987,12.987,0,0,1,5.789-6.307,1.075,1.075,0,0,1,1.445.467,1.074,1.074,0,0,1-.468,1.445c-4.959,2.539-5.888,8.622-5.9,8.682a1.026,1.026,0,0,1-.337.64Z"/>
        <path id="路径_6608" data-name="路径 6608" class="cls-30" d="M61.569-924.641a15.805,15.805,0,0,0-1.255,3.98,1.069,1.069,0,0,0,.51,1.072,1.128,1.128,0,0,0,.263-.175,1.069,1.069,0,0,0,.34-.642c.009-.06.934-6.147,5.9-8.683a1.074,1.074,0,0,0,.467-1.444,1.061,1.061,0,0,0-.4-.431.091.091,0,0,0-.031.016A12.956,12.956,0,0,0,61.569-924.641Z"/>
        <path id="路径_6609" data-name="路径 6609" class="cls-29" d="M60.351-920.562c5.518.2,6.119-2.921,11.339-1.9,10.406,2.028,6.269,27.149-7.148,27.1-2.072-.008-3.985-.61-6.935-.3-10.6,1.13-19.157-21.6-7.768-26.384C54.47-923.992,57.362-920.667,60.351-920.562Z"/>
        <path id="路径_6610" data-name="路径 6610" class="cls-30" d="M69.161-922.588c-.075-.013-.147-.029-.219-.038-2.938.3-4.224,2.224-8.594,2.067a5.2,5.2,0,0,1-1.045-.155,12.109,12.109,0,0,1-1.484.03c-1.884-.068-3.727-1.408-5.993-1.91a7.763,7.763,0,0,0-1.99.552c-10.518,4.417-4.017,24.153,5.391,26.243a18.012,18.012,0,0,1,3.746.054,25.393,25.393,0,0,1,3.609.248C75.544-896.154,79.421-920.589,69.161-922.588Z"/>
      </g>
      <g id="组_2780" data-name="组 2780">
        <path id="路径_6611" data-name="路径 6611" class="cls-27" d="M123.841-928.06A8.812,8.812,0,0,0,121.7-930.7c-2.474-2.1-5.5-2.6-6.764-1.114s-.274,4.395,2.2,6.492a8.266,8.266,0,0,0,3.734,1.881A13.689,13.689,0,0,1,123.841-928.06Z"/>
        <path id="路径_6612" data-name="路径 6612" class="cls-28" d="M116.795-932.654a2.59,2.59,0,0,0-1.863.846c-1.259,1.487-.274,4.395,2.2,6.492a8.866,8.866,0,0,0,2.8,1.635,13.579,13.579,0,0,1,2.889-4.428,8.8,8.8,0,0,0-2.142-2.638,8.19,8.19,0,0,0-3.89-1.907Z"/>
        <path id="路径_6613" data-name="路径 6613" class="cls-29" d="M120.75-919.711a1.078,1.078,0,0,1-.875.269,1.074,1.074,0,0,1-.912-1.216,16.016,16.016,0,0,1,1.255-3.98,12.987,12.987,0,0,1,5.789-6.307,1.074,1.074,0,0,1,1.444.467,1.073,1.073,0,0,1-.467,1.445c-4.959,2.539-5.888,8.622-5.9,8.682a1.026,1.026,0,0,1-.337.64Z"/>
        <path id="路径_6614" data-name="路径 6614" class="cls-30" d="M120.221-924.641a15.825,15.825,0,0,0-1.254,3.98,1.069,1.069,0,0,0,.51,1.072,1.1,1.1,0,0,0,.262-.175,1.065,1.065,0,0,0,.341-.642c.009-.06.934-6.147,5.9-8.683a1.073,1.073,0,0,0,.468-1.444,1.057,1.057,0,0,0-.4-.431.114.114,0,0,0-.031.016A12.965,12.965,0,0,0,120.221-924.641Z"/>
        <path id="路径_6615" data-name="路径 6615" class="cls-29" d="M119-920.562c5.518.2,6.119-2.921,11.338-1.9,10.407,2.028,6.27,27.149-7.148,27.1-2.072-.008-3.984-.61-6.934-.3-10.6,1.13-19.158-21.6-7.768-26.384C113.123-923.992,116.014-920.667,119-920.562Z"/>
        <path id="路径_6616" data-name="路径 6616" class="cls-30" d="M127.813-922.588c-.075-.013-.146-.029-.219-.038-2.937.3-4.223,2.224-8.593,2.067a5.186,5.186,0,0,1-1.045-.155,12.114,12.114,0,0,1-1.484.03c-1.884-.068-3.727-1.408-5.993-1.91a7.763,7.763,0,0,0-1.99.552c-10.518,4.417-4.017,24.153,5.391,26.243a18,18,0,0,1,3.745.054,25.393,25.393,0,0,1,3.609.248C134.2-896.154,138.073-920.589,127.813-922.588Z"/>
      </g>
    </g>
    <line id="直线_96" data-name="直线 96" class="cls-31" x2="33.365" y2="38.363" transform="translate(43.044 -931.584)"/>
    <line id="直线_97" data-name="直线 97" class="cls-31" x2="33.365" y2="38.363" transform="translate(101.694 -931.584)"/>
  </g>
</svg>
