<svg xmlns="http://www.w3.org/2000/svg" width="267.733" height="261.715" viewBox="0 0 267.733 261.715">
  <defs>
    <style>
      .cls-1 {
        fill: #ace3c9;
        stroke: #fff;
        stroke-miterlimit: 10;
        stroke-width: 10px;
      }

      .cls-2 {
        fill: #06757b;
      }

      .cls-3 {
        fill: #13c96b;
      }

      .cls-4 {
        fill: #fff;
        font-size: 28.902px;
      }

      .cls-4, .cls-6 {
        font-family: TimesNewRomanPS-BoldMT, Times New Roman;
        font-weight: 700;
      }

      .cls-5, .cls-6 {
        fill: #964615;
      }

      .cls-6 {
        font-size: 37.169px;
      }

      .cls-7 {
        stroke: none;
      }

      .cls-8 {
        fill: none;
      }
    </style>
  </defs>
  <g id="组_2677" data-name="组 2677" transform="translate(1357.283 -177.6)">
    <g id="矩形_384" data-name="矩形 384" class="cls-1" transform="translate(-1347.283 187.6)">
      <path class="cls-7" d="M0,0H236.907a10.826,10.826,0,0,1,10.826,10.826V241.715a0,0,0,0,1,0,0H0a0,0,0,0,1,0,0V0A0,0,0,0,1,0,0Z"/>
      <path class="cls-8" d="M0-5H236.907a15.826,15.826,0,0,1,15.826,15.826V241.715a5,5,0,0,1-5,5H0a5,5,0,0,1-5-5V0A5,5,0,0,1,0-5Z"/>
    </g>
    <g id="组_2676" data-name="组 2676">
      <rect id="矩形_385" data-name="矩形 385" class="cls-2" width="83.669" height="66.362" transform="translate(-1297.386 303.43)"/>
      <rect id="矩形_386" data-name="矩形 386" class="cls-3" width="63.346" height="66.362" transform="translate(-1213.717 303.43)"/>
      <text id="_4" data-name="4" class="cls-4" transform="translate(-1263.976 346.437)"><tspan x="0" y="0">4</tspan></text>
      <text id="_3" data-name="3" class="cls-4" transform="translate(-1189.742 346.437)"><tspan x="0" y="0">3</tspan></text>
      <g id="组_2675" data-name="组 2675">
        <path id="路径_5995" data-name="路径 5995" class="cls-5" d="M-1297.386,296.965a1.8,1.8,0,0,0,1.977,1.546,1.8,1.8,0,0,0,1.977-1.546c0-4.329,0-8.068,35.781-8.068,14.519,0,24.718-2.428,30.314-7.215a14.124,14.124,0,0,0,2.229-2.376,13.278,13.278,0,0,0,1.723,1.847c5.747,5.138,17.1,7.744,33.74,7.744,27.539,0,34.072,3.959,35.6,5.662.9,1,.6,1.746.564,1.825-.442.782.02,1.67,1.018,2.017a2.251,2.251,0,0,0,2.621-.809,4.04,4.04,0,0,0-.8-4.612c-3.96-4.761-17.085-7.174-39.01-7.174-19.1,0-27.22-3.589-30.664-6.6a7.387,7.387,0,0,1-2.821-4.842,5.118,5.118,0,0,0,.009-.986,1.842,1.842,0,0,0-1.926-1.406,1.891,1.891,0,0,0-2,1.339,4.685,4.685,0,0,0-.034,1.014,8.387,8.387,0,0,1-3.263,5.348c-3.331,2.8-10.772,6.132-27.305,6.132C-1291.865,285.806-1297.386,289.1-1297.386,296.965Z"/>
      </g>
      <text id="_" data-name="?" class="cls-6" transform="translate(-1233.973 266.488)"><tspan x="0" y="0">?</tspan></text>
    </g>
  </g>
</svg>
