<svg xmlns="http://www.w3.org/2000/svg" width="222.155" height="272.019" viewBox="0 0 222.155 272.019">
  <defs>
    <style>
      .cls-1 {
        fill: #ffe58f;
      }

      .cls-2 {
        fill: #a86a47;
      }

      .cls-3 {
        fill: #ffd858;
      }

      .cls-4 {
        fill: #ee6457;
      }

      .cls-5 {
        fill: #e35546;
      }

      .cls-6 {
        fill: #f36e3a;
      }

      .cls-7 {
        fill: #f6804e;
      }

      .cls-8 {
        fill: #fa9e49;
      }

      .cls-9 {
        fill: #5266ae;
      }

      .cls-10 {
        fill: #525f9b;
      }

      .cls-11 {
        fill: #f37366;
      }

      .cls-12 {
        fill: #e3d8e3;
      }

      .cls-13 {
        fill: #fdb74f;
      }

      .cls-14 {
        fill: #fede81;
      }

      .cls-15, .cls-27 {
        fill: none;
        stroke-miterlimit: 10;
        stroke-width: 0.937px;
      }

      .cls-15 {
        stroke: #1f8a5d;
      }

      .cls-16 {
        fill: #ebf393;
      }

      .cls-17 {
        fill: #4eb092;
      }

      .cls-18 {
        fill: #f17669;
      }

      .cls-19 {
        fill: #665855;
      }

      .cls-20 {
        fill: #e85c52;
      }

      .cls-21 {
        fill: #e66153;
      }

      .cls-22 {
        fill: #fd8f8b;
      }

      .cls-23 {
        fill: #f28580;
      }

      .cls-24 {
        fill: #f37464;
      }

      .cls-25 {
        fill: #4daff2;
      }

      .cls-26, .cls-28 {
        fill: #96420f;
      }

      .cls-26 {
        font-size: 22.743px;
      }

      .cls-26, .cls-29 {
        font-family: TimesNewRomanPS-BoldMT, Times New Roman;
        font-weight: 700;
      }

      .cls-27 {
        stroke: #96420f;
        stroke-dasharray: 1.873;
      }

      .cls-29 {
        fill: #964615;
        font-size: 18.259px;
      }
    </style>
  </defs>
  <g id="组_2755" data-name="组 2755" transform="translate(-384.766 1769.666)">
    <rect id="矩形_459" data-name="矩形 459" class="cls-1" width="168.135" height="90.9" rx="10.318" transform="translate(424.719 -1762.848)"/>
    <path id="路径_6300" data-name="路径 6300" class="cls-2" d="M429.568-1766.8v174.854H423.83V-1766.8a2.869,2.869,0,0,1,2.869-2.869h0A2.869,2.869,0,0,1,429.568-1766.8Z"/>
    <path id="路径_6301" data-name="路径 6301" class="cls-3" d="M480.893-1649.21s13.412,3.761,25.1,30.1-7.217,10.414-7.217,10.414S479.212-1638.287,480.893-1649.21Z"/>
    <path id="路径_6302" data-name="路径 6302" class="cls-4" d="M500.61-1596.088l-33.109,36.77-43.149-19.192-7.392-3.286s-19.545-48.812-10.106-55.594a21.969,21.969,0,0,1,2.258-2.033l.061-.046a40.9,40.9,0,0,1,3.737-2.692,60.082,60.082,0,0,1,8.094-4.347h.005a73.37,73.37,0,0,1,8.58-3.189h.005a87.907,87.907,0,0,1,10.857-2.559h.006a105.484,105.484,0,0,1,11.19-1.321,133,133,0,0,1,18.813.153c14.989,2.441,17.076,12.636,22.483,28.058a91.635,91.635,0,0,1,3.9,13.681A87.366,87.366,0,0,0,500.61-1596.088Z"/>
    <path id="路径_6303" data-name="路径 6303" class="cls-5" d="M500.456-1596.068l-33.108,35.2-43.15-19.191c-1.351-6.456-1.387-11.7,1.116-13.807a22.01,22.01,0,0,1,2.094-2.2l.061-.046a39.967,39.967,0,0,1,3.517-2.969,59.756,59.756,0,0,1,7.74-4.95h0a73.67,73.67,0,0,1,8.314-3.835h0a87.456,87.456,0,0,1,10.633-3.378h0a104.014,104.014,0,0,1,11.057-2.166,133.342,133.342,0,0,1,18.772-1.28,74.915,74.915,0,0,1,8.919.585A174.4,174.4,0,0,1,500.456-1596.068Z"/>
    <path id="路径_6304" data-name="路径 6304" class="cls-6" d="M603.952-1526.73c-6.8,9.409-35.9,32.067-100.381,28.755-31.212-1.608-55.5-7.986-72.979-14.805-18.629-7.269-29.517-15.035-32.8-18.045-6.363-5.836-14.118-10.632-12.9-26.051s11.851-17.344,11.851-17.344l85.864,10.428,53.945,2.329,57.642,2.493a63.4,63.4,0,0,1,7.141,4.356C604.126-1552.52,610.75-1536.139,603.952-1526.73Z"/>
    <path id="路径_6305" data-name="路径 6305" class="cls-7" d="M603.952-1526.73c-6.8,9.409-35.9,32.067-100.381,28.755-31.212-1.608-55.5-7.986-72.979-14.805-.532-.42-14.585-11.405-9.711-10.637,4.966.783,14.119.261,7.274-2.985s-6.127-6.209-6.127-6.209l114.525-28.852,57.642,2.493a63.4,63.4,0,0,1,7.141,4.356C604.126-1552.52,610.75-1536.139,603.952-1526.73Z"/>
    <path id="路径_6306" data-name="路径 6306" class="cls-8" d="M396.865-1573.673s-10.4,4.683-5.957,14.355,26.576,31.892,69.272,38.688,94.454,8.191,128.087-11.327c15.859-9.237,15.623-18.488,13.944-21.7-2.856-3.085-16.253-9.555-16.253-9.555l-109.4-.611Z"/>
    <path id="路径_6307" data-name="路径 6307" class="cls-3" d="M580.338-1607.157s-23.789,36.336-42.781,59.168-74.064-.174-111.885-8.365-18.157-23.118-26.322-37.708-5.391-36.7,7.5-43.328c-2.129,2.267-2.938,21.93,7.147,37.764a43.522,43.522,0,0,0,6.414,7.919v.005s3.056,2.5,7.868,5.851c8.452,5.9,22.32,14.441,34.56,16.74,3.394.635,7.448,1.362,12.5,2.211,62.74-59.694,94.192-48.621,94.192-48.621A24.294,24.294,0,0,1,580.338-1607.157Z"/>
    <path id="路径_6308" data-name="路径 6308" class="cls-1" d="M447.286-1554.353c-1.659,1.572-11.068-4.617-11.068-4.617L414-1599.626a43.522,43.522,0,0,0,6.414,7.919v.005s3.056,2.5,7.868,5.851C433.853-1577.01,446.472-1556.856,447.286-1554.353Z"/>
    <path id="路径_6309" data-name="路径 6309" class="cls-9" d="M595.936-1554.875q-.592.783-1.183,1.567c-.619.809-1.244,1.612-1.9,2.411-6.532,8-15.654,15.311-46.456,21.582h-.006c-1.208.246-2.447.492-3.726.737l-.579.108a227.036,227.036,0,0,1-59.479,2.406q-1.652-.153-3.271-.338a188.639,188.639,0,0,1-18.777-3.087c-.871-.194-1.726-.389-2.575-.589a153.8,153.8,0,0,1-30.024-10.222q-1.682-.784-3.271-1.582a94.619,94.619,0,0,1-15.993-9.947c-.788-.614-1.525-1.228-2.216-1.827a31.249,31.249,0,0,1-6.338-7.055,34.2,34.2,0,0,1-2.406-8.067c-2.191-12.522,1.613-25.284,1.613-25.284,9.506,27.162,40.876,38.1,57.345,42.412s24.31,3.789,29.834-2.728c43.3-59.582,79.7-56.086,93.809-52.779,3.578,3.005,6.429,7.5,8.666,12.645,3.927,9.02,5.969,20.036,6.737,28.467.067.732.128,1.444.174,2.135A51.236,51.236,0,0,1,595.936-1554.875Z"/>
    <path id="路径_6310" data-name="路径 6310" class="cls-10" d="M595.936-1554.875q-.592.783-1.183,1.567c-.619.809-1.244,1.612-1.9,2.411-6.532,8-15.654,15.311-46.456,21.582h-.006c-1.208.246-2.447.492-3.726.737l-.579.108a227.036,227.036,0,0,1-59.479,2.406q-1.652-.153-3.271-.338a188.639,188.639,0,0,1-18.777-3.087c-.871-.194-1.726-.389-2.575-.589a153.8,153.8,0,0,1-30.024-10.222q-1.682-.784-3.271-1.582a94.619,94.619,0,0,1-15.993-9.947c-.788-.614-1.525-1.228-2.216-1.827a31.249,31.249,0,0,1-6.338-7.055,34.2,34.2,0,0,1-2.406-8.067l.005-.005s65.188,65.448,198,4.955c.056-.026.118-.051.174-.082A51.236,51.236,0,0,1,595.936-1554.875Z"/>
    <path id="路径_6311" data-name="路径 6311" class="cls-11" d="M569.531-1615.521a62.519,62.519,0,0,0-21.475,1.715q-2.78.683-5.534,1.566c-12.153,3.88-23.809,10.474-33.914,17.5-2.427,1.679-4.761,3.389-6.993,5.094-5.918,4.51-11.1,8.969-15.281,12.787h-.005c-5.876,5.371-9.772,9.481-10.944,10.705-11.974,1.059-1.372-16.8-1.372-16.8,7.433-15.122,20.62-27.956,33.4-37.2q2.043-1.482,4.065-2.831c2.124-1.428,4.218-2.744,6.25-3.952,9.865-5.856,22.351-7.535,31.437-7.095,1.577.077,3.051.215,4.392.4a17.821,17.821,0,0,1,6.65,1.981c4.2,2.729,7.551,8.406,8.8,12.993A14.2,14.2,0,0,1,569.531-1615.521Z"/>
    <ellipse id="椭圆_826" data-name="椭圆 826" class="cls-12" cx="12.173" cy="18.343" rx="12.173" ry="18.343" transform="translate(510.543 -1571.713) rotate(-27.181)"/>
    <ellipse id="椭圆_827" data-name="椭圆 827" class="cls-13" cx="9.689" cy="14.885" rx="9.689" ry="14.885" transform="translate(514.9 -1569.67) rotate(-27.181)"/>
    <ellipse id="椭圆_828" data-name="椭圆 828" class="cls-14" cx="2.223" cy="4.243" rx="2.223" ry="4.243" transform="translate(529.692 -1569.15) rotate(-30)"/>
    <path id="路径_6312" data-name="路径 6312" class="cls-12" d="M595.741-1566.045a6.978,6.978,0,0,1-2.247,1.07c-5.406,1.459-11.569-3.962-13.766-12.107s.4-15.93,5.811-17.389a7.063,7.063,0,0,1,3.465-.041C592.931-1585.492,594.973-1574.476,595.741-1566.045Z"/>
    <path id="路径_6313" data-name="路径 6313" class="cls-13" d="M593.188-1567.574c-4.3,1.161-9.236-3.257-11.018-9.867s.261-12.91,4.564-14.07a10.372,10.372,0,0,1,3.337-.393c1.246.194,8.424,16.448,5.423,23.417C595.3-1567.966,593.188-1567.574,593.188-1567.574Z"/>
    <ellipse id="椭圆_829" data-name="椭圆 829" class="cls-14" cx="2.116" cy="4.614" rx="2.116" ry="4.614" transform="matrix(0.968, -0.249, 0.249, 0.968, 587.742, -1587.518)"/>
    <path id="路径_6314" data-name="路径 6314" class="cls-15" d="M574.936-1597.221"/>
    <path id="路径_6315" data-name="路径 6315" class="cls-16" d="M471.852-1536.154c-5.943-1.085-11.579,1.541-13.867,6.076.849.2,1.7.4,2.575.589a188.639,188.639,0,0,0,18.777,3.087q1.62.184,3.271.338C481.845-1530.907,477.6-1535.1,471.852-1536.154Z"/>
    <path id="路径_6316" data-name="路径 6316" class="cls-17" d="M479.337-1526.4a188.639,188.639,0,0,1-18.777-3.087c1.935-2.872,6.055-4.433,10.417-3.634C475.18-1532.35,478.395-1529.617,479.337-1526.4Z"/>
    <path id="路径_6317" data-name="路径 6317" class="cls-16" d="M421.8-1553.943c-5.027-3.333-11.236-3.051-15.321.287a93.417,93.417,0,0,0,21.48,13.356A13.691,13.691,0,0,0,421.8-1553.943Z"/>
    <path id="路径_6318" data-name="路径 6318" class="cls-17" d="M424.69-1541.882a94.619,94.619,0,0,1-15.993-9.947,9.766,9.766,0,0,1,11.094.333A10.833,10.833,0,0,1,424.69-1541.882Z"/>
    <path id="路径_6319" data-name="路径 6319" class="cls-18" d="M594.753-1553.308c-.619.809-1.244,1.612-1.9,2.411-6.532,8-15.654,15.311-46.456,21.582h-.006c-1.208.246-2.447.492-3.726.737,0,0-2.452-25.293,25.647-33.658C584.428-1567.033,591.579-1560.1,594.753-1553.308Z"/>
    <path id="路径_6320" data-name="路径 6320" class="cls-19" d="M592.854-1550.9c-.7.855-1.423,1.7-2.206,2.539v.005a41.55,41.55,0,0,1-3.661,3.481.016.016,0,0,1-.01.005l-1.1.886c-.814.63-1.69,1.259-2.632,1.879-1.152.762-2.411,1.515-3.793,2.262l-1.039.543c-1.111.568-2.3,1.136-3.573,1.689a.506.506,0,0,1-.052.026l-.061.025c-1.208.528-2.488,1.05-3.86,1.567l-.025.01-1.224.451c-1.239.45-2.539.89-3.911,1.331l-.287.087q-1.627.522-3.4,1.029l-.292.087-1.377.384c-1.018.281-2.058.558-3.143.834q-1.912.492-3.977.973l-.026.005-1.587.368c-1.669.374-3.4.748-5.216,1.116h-.006a31.054,31.054,0,0,1,3.63-15.04c.369-.686.778-1.382,1.229-2.068a26.9,26.9,0,0,1,3.511-4.31,26.91,26.91,0,0,1,2.811-2.437c.4-.307.819-.609,1.254-.9v-.005a30.677,30.677,0,0,1,3.829-2.186,33.9,33.9,0,0,1,3.834-1.561c.236-.082.471-.159.712-.236.225-.071.445-.138.665-.21,1.49-.45,2.893-.8,4.219-1.064a32.978,32.978,0,0,1,3.455-.507c.4-.036.793-.067,1.177-.082a22.662,22.662,0,0,1,4.336.169,17.83,17.83,0,0,1,2.693.589c.471.143.921.3,1.346.476a13.994,13.994,0,0,1,4.464,2.856.016.016,0,0,1,.005.01A13.575,13.575,0,0,1,592.854-1550.9Z"/>
    <path id="路径_6321" data-name="路径 6321" class="cls-18" d="M557.2-1531.777l-3.977.973-.026.005-1.95-15.624a26.9,26.9,0,0,1,3.511-4.31Z"/>
    <path id="路径_6322" data-name="路径 6322" class="cls-20" d="M553.2-1530.8l-1.587.368-1.592-13.924c.369-.686.778-1.382,1.229-2.068Z"/>
    <path id="路径_6323" data-name="路径 6323" class="cls-18" d="M565.707-1534.2l-.287.087-3.4,1.029-.292.087-2.9-21.071v-.005a30.677,30.677,0,0,1,3.829-2.186Z"/>
    <path id="路径_6324" data-name="路径 6324" class="cls-20" d="M561.724-1532.995l-1.377.384-2.774-20.559c.4-.307.819-.609,1.254-.9Z"/>
    <path id="路径_6325" data-name="路径 6325" class="cls-18" d="M574.84-1537.608v.005l-.052.021-.061.025-3.86,1.567-.025.01-2.975-22.284c1.49-.45,2.893-.8,4.219-1.064Z"/>
    <path id="路径_6326" data-name="路径 6326" class="cls-20" d="M570.842-1535.98l-1.224.451-3.128-22.289c.236-.082.471-.159.712-.236.225-.071.445-.138.665-.21Z"/>
    <path id="路径_6327" data-name="路径 6327" class="cls-18" d="M583.245-1542.1c-1.152.762-2.411,1.515-3.793,2.262l-2.734-20.077a22.662,22.662,0,0,1,4.336.169S583.041-1544.242,583.245-1542.1Z"/>
    <path id="路径_6328" data-name="路径 6328" class="cls-20" d="M579.452-1539.84l-1.039.543-2.872-20.538c.4-.036.793-.067,1.177-.082Z"/>
    <path id="路径_6329" data-name="路径 6329" class="cls-18" d="M590.648-1548.358v.005a41.55,41.55,0,0,1-3.661,3.481.016.016,0,0,1-.01.005l-1.884-13.816a13.994,13.994,0,0,1,4.464,2.856.016.016,0,0,1,.005.01S590.361-1550.651,590.648-1548.358Z"/>
    <path id="路径_6330" data-name="路径 6330" class="cls-20" d="M586.977-1544.867l-1.1.886-2.13-15.178c.471.143.921.3,1.346.476Z"/>
    <path id="路径_6331" data-name="路径 6331" class="cls-21" d="M569.531-1615.521a62.519,62.519,0,0,0-21.475,1.715q-2.78.683-5.534,1.566c-12.153,3.88-23.809,10.474-33.914,17.492v.005c-.6.42-1.208.84-1.8,1.265s-1.182.849-1.766,1.274-1.162.85-1.73,1.275-1.137.855-1.7,1.28c-5.918,4.51-11.1,8.969-15.281,12.787a167.191,167.191,0,0,1,16.141-17.3c2.073-1.945,4.3-3.942,6.676-5.923,10.1-8.467,22.652-16.729,35.711-19.826a49.491,49.491,0,0,1,5.15-.942,38.118,38.118,0,0,1,19,2.2A14.2,14.2,0,0,1,569.531-1615.521Z"/>
    <path id="路径_6332" data-name="路径 6332" class="cls-22" d="M511.48-1622.98l-2.329,22.9c-2.371,1.981-4.6,3.978-6.676,5.923l4.94-25.99Q509.458-1621.631,511.48-1622.98Z"/>
    <path id="路径_6333" data-name="路径 6333" class="cls-23" d="M509.151-1600.082l-.543,5.334v.005c-.6.42-1.208.84-1.8,1.265s-1.182.849-1.766,1.274-1.162.85-1.73,1.275-1.137.855-1.7,1.28l.86-4.51C504.548-1596.1,506.78-1598.1,509.151-1600.082Z"/>
    <path id="路径_6334" data-name="路径 6334" class="cls-22" d="M553.559-1633.623l-3.547,12.773a49.491,49.491,0,0,0-5.15.942l4.3-14.119C550.744-1633.95,552.218-1633.812,553.559-1633.623Z"/>
    <path id="路径_6335" data-name="路径 6335" class="cls-23" d="M550.012-1620.85l-1.956,7.044q-2.78.683-5.534,1.566l2.34-7.668A49.491,49.491,0,0,1,550.012-1620.85Z"/>
    <ellipse id="椭圆_830" data-name="椭圆 830" class="cls-1" cx="5.359" cy="2.5" rx="5.359" ry="2.5" transform="translate(467.542 -1556.257)"/>
    <path id="路径_6336" data-name="路径 6336" class="cls-24" d="M410.921-1640.06a1.318,1.318,0,0,0,.47,2.367c6.6,1.415,25.819,3.005,59.593-13.813C474.871-1653.62,434.357-1656.713,410.921-1640.06Z"/>
    <g id="组_2754" data-name="组 2754">
      <rect id="矩形_460" data-name="矩形 460" class="cls-25" width="118.385" height="7.788" rx="1.298" transform="translate(450.62 -1709.343)"/>
      <text id="_5" data-name="5" class="cls-26" transform="translate(476.633 -1741.699)"><tspan x="0" y="0">5</tspan></text>
      <text id="_8" data-name="8" class="cls-26" transform="translate(504.13 -1681.724)"><tspan x="0" y="0">8</tspan></text>
      <line id="直线_89" data-name="直线 89" class="cls-27" y2="28.454" transform="translate(519.769 -1737.796)"/>
      <rect id="矩形_461" data-name="矩形 461" class="cls-25" width="68.539" height="7.788" rx="1.298" transform="translate(450.62 -1737.796)"/>
      <g id="组_2753" data-name="组 2753">
        <path id="路径_6337" data-name="路径 6337" class="cls-28" d="M569.005-1713.449a.688.688,0,0,1-.658.715.688.688,0,0,1-.658-.715c0-2,0-3.733-11.908-3.733-4.833,0-8.227-1.123-10.09-3.338a6.147,6.147,0,0,1-.741-1.1,5.862,5.862,0,0,1-.574.855c-1.912,2.377-5.69,3.582-11.229,3.582-9.165,0-11.34,1.832-11.849,2.619a1.023,1.023,0,0,0-.188.845.73.73,0,0,1-.339.933.647.647,0,0,1-.872-.374,2.465,2.465,0,0,1,.265-2.134c1.318-2.2,5.686-3.319,12.983-3.319,6.358,0,9.059-1.66,10.206-3.053a3.932,3.932,0,0,0,.938-2.24,3.329,3.329,0,0,1,0-.456.683.683,0,0,1,.641-.65.677.677,0,0,1,.667.619,3.231,3.231,0,0,1,.011.469,4.408,4.408,0,0,0,1.086,2.474c1.109,1.294,3.585,2.837,9.088,2.837C567.167-1718.612,569.005-1717.09,569.005-1713.449Z"/>
      </g>
      <text id="_" data-name="?" class="cls-29" transform="translate(540.77 -1728.066)"><tspan x="0" y="0">?</tspan></text>
    </g>
  </g>
</svg>
