<svg id="组_6658" data-name="组 6658" xmlns="http://www.w3.org/2000/svg" width="142.494" height="65.897" viewBox="0 0 142.494 65.897">
  <defs>
    <style>
      .cls-1 {
        fill: #ccd9ff;
      }

      .cls-2 {
        fill: #8ca6fd;
      }

      .cls-3 {
        fill: #fff;
        font-size: 28.534px;
        font-family: TimesNewRomanPS-BoldMT, Times New Roman;
        font-weight: 700;
        letter-spacing: 0.05em;
      }
    </style>
  </defs>
  <path id="路径_6991" data-name="路径 6991" class="cls-1" d="M326.815,248.434h40.533a10.741,10.741,0,0,0,5.559-1.551l22.258-13.474a6.007,6.007,0,0,0,2.9-5.138V201.677a6.006,6.006,0,0,0-3.058-5.232L372.8,183.921a10.737,10.737,0,0,0-5.273-1.384h-81.42a10.734,10.734,0,0,0-5.273,1.384l-22.207,12.525a6.008,6.008,0,0,0-3.057,5.232v26.594a6.007,6.007,0,0,0,2.9,5.138l22.258,13.474a10.737,10.737,0,0,0,5.558,1.551Z" transform="translate(-255.569 -182.537)"/>
  <path id="路径_6992" data-name="路径 6992" class="cls-2" d="M326.815,243.985h37.059a10.242,10.242,0,0,0,5.082-1.341l20.35-11.655a5.143,5.143,0,0,0,2.648-4.444v-23a5.156,5.156,0,0,0-2.795-4.524l-20.3-10.833a10.248,10.248,0,0,0-4.821-1.2H289.6a10.242,10.242,0,0,0-4.821,1.2l-20.3,10.833a5.155,5.155,0,0,0-2.8,4.524v23a5.144,5.144,0,0,0,2.649,4.444l20.35,11.655a10.242,10.242,0,0,0,5.082,1.341Z" transform="translate(-255.569 -182.537)"/>
  <text id="_5_3_1" data-name="5+3+1" class="cls-3" transform="translate(29.672 41.099)"><tspan x="0" y="0">5+3+1</tspan></text>
</svg>
