<svg xmlns="http://www.w3.org/2000/svg" width="216.941" height="219.741" viewBox="0 0 216.941 219.741">
  <defs>
    <style>
      .cls-1 {
        fill: #ffbfce;
      }

      .cls-2, .cls-3, .cls-4 {
        fill: #964615;
      }

      .cls-2 {
        font-size: 42.732px;
      }

      .cls-2, .cls-4 {
        font-family: TimesNewRomanPS-BoldMT, Times New Roman;
        font-weight: 700;
      }

      .cls-4 {
        font-size: 42.687px;
      }
    </style>
  </defs>
  <g id="组_2680" data-name="组 2680" transform="translate(2036.052 -533.038)">
    <path id="矩形_387" data-name="矩形 387" class="cls-1" d="M0,0H216.941a0,0,0,0,1,0,0V219.741a0,0,0,0,1,0,0H10.441A10.441,10.441,0,0,1,0,209.3V0A0,0,0,0,1,0,0Z" transform="translate(-2036.052 533.038)"/>
    <g id="组_2679" data-name="组 2679">
      <text id="_4" data-name="4" class="cls-2" transform="translate(-1874.288 625.178)"><tspan x="0" y="0">4</tspan></text>
      <text id="_3" data-name="3" class="cls-2" transform="translate(-2002.241 625.178)"><tspan x="0" y="0">3</tspan></text>
      <g id="组_2678" data-name="组 2678">
        <path id="路径_5996" data-name="路径 5996" class="cls-3" d="M-1993.734,635.355a1.9,1.9,0,0,1,1.812-1.98,1.9,1.9,0,0,1,1.813,1.98c0,5.546,0,10.337,32.81,10.337,13.313,0,22.666,3.109,27.8,9.242a17.175,17.175,0,0,1,2.043,3.045,16.134,16.134,0,0,1,1.58-2.367c5.27-6.583,15.679-9.92,30.939-9.92,25.252,0,31.243-5.073,32.647-7.254a2.841,2.841,0,0,0,.517-2.339,2.026,2.026,0,0,1,.933-2.584,1.781,1.781,0,0,1,2.4,1.037,6.844,6.844,0,0,1-.729,5.908c-3.632,6.1-15.666,9.191-35.771,9.191-17.519,0-24.96,4.6-28.118,8.454a10.932,10.932,0,0,0-2.587,6.2,9.233,9.233,0,0,1,.009,1.263,1.89,1.89,0,0,1-1.766,1.8,1.87,1.87,0,0,1-1.837-1.715,8.584,8.584,0,0,1-.031-1.3,12.236,12.236,0,0,0-2.991-6.851c-3.055-3.583-9.879-7.856-25.039-7.856C-1988.672,649.651-1993.734,645.437-1993.734,635.355Z"/>
      </g>
      <text id="_" data-name="?" class="cls-4" transform="translate(-1938.376 701.382)"><tspan x="0" y="0">?</tspan></text>
    </g>
  </g>
</svg>
