<svg xmlns="http://www.w3.org/2000/svg" width="1123.456" height="516.61" viewBox="0 0 1123.456 516.61">
  <defs>
    <style>
      .cls-1 {
        fill: #c96f20;
      }

      .cls-2 {
        fill: #db7a46;
      }

      .cls-3 {
        fill: #ad541e;
      }

      .cls-4 {
        fill: #a1530d;
      }

      .cls-5, .cls-6 {
        fill: none;
        stroke-miterlimit: 10;
      }

      .cls-5 {
        stroke: #a1530d;
        stroke-width: 1.5px;
      }

      .cls-6 {
        stroke: #c96f20;
        stroke-width: 3px;
      }
    </style>
  </defs>
  <g id="组_2589" data-name="组 2589" transform="translate(-85.272 -101.695)">
    <path id="路径_5949" data-name="路径 5949" class="cls-1" d="M1200.6,389.308l-1.072.9-.494.41-26.108,22.071v.011L1154.1,428.616l-8.966,7.567v168.8c0,7.358-7.924,13.317-17.709,13.317H171.256c-9.785,0-17.72-5.959-17.72-13.317V251.14l-51.49-25.561-2.144-.872a20.237,20.237,0,0,1-2.291-1.3c-.085-.053-.158-.105-.242-.158-5.5-3.447-12.108-6.916-12.1-15.376a16.5,16.5,0,0,1,1.156-6.464A17.267,17.267,0,0,1,89,197.16l4.95-6.075c7.389-9.018,16.711-14.977,28.3-9.06l1.4.7.515.263.62.326,28.746,14.63V115.022c0-7.357,7.935-13.327,17.72-13.327h956.169c9.785,0,17.709,5.97,17.709,13.327V370.915l11.993-10.668.157-.126a26.265,26.265,0,0,1,4-2.932,34.839,34.839,0,0,1,17.9-4.741,34.143,34.143,0,0,1,19.643,5.886C1210.413,366.564,1211.191,380.353,1200.6,389.308Z"/>
    <path id="路径_5950" data-name="路径 5950" class="cls-2" d="M124.412,187.28c0,17.436-11.53,32.035-27.043,35.966-5.5-3.447-12.108-6.916-12.1-15.376a16.5,16.5,0,0,1,1.156-6.464A17.267,17.267,0,0,1,89,197.16l4.95-6.075c7.389-9.018,16.711-14.977,28.3-9.06l1.4.7.515.263A38.292,38.292,0,0,1,124.412,187.28Z"/>
    <path id="路径_5951" data-name="路径 5951" class="cls-2" d="M1201.268,388.7l-1.072.9-.494.41c-.662.042-1.335.063-2.008.063a35.826,35.826,0,0,1-35.734-33.286,35.018,35.018,0,0,1,17.9-4.709,34.273,34.273,0,0,1,19.644,5.855C1211.084,366.1,1211.862,379.8,1201.268,388.7Z"/>
    <rect id="矩形_337" data-name="矩形 337" class="cls-3" width="921.469" height="457.307" rx="18.853" transform="translate(189.318 131.214)"/>
    <g id="组_2587" data-name="组 2587">
      <g id="组_2586" data-name="组 2586">
        <g id="组_2584" data-name="组 2584">
          <path id="路径_5952" data-name="路径 5952" class="cls-4" d="M1153.987,403.109h0c6.126,0,14.589,5.947,17.9,8.47l-5.957,5-4.452,3.74-5.954,5c-5.807-5.946-8.465-11.053-7.9-15.19.866-6.29,4.045-7.018,6.362-7.018m0-1.5c-3.872,0-6.994,2.119-7.847,8.314-.725,5.334,3.148,11.386,9.3,17.428l7.008-5.885,4.452-3.739,7.364-6.181v-.01s-11.895-9.927-20.277-9.927Z"/>
        </g>
        <g id="组_2585" data-name="组 2585">
          <path id="路径_5953" data-name="路径 5953" class="cls-4" d="M1160.107,413.844a46.145,46.145,0,0,1,4.535,3.819l-1.814,1.524a46.5,46.5,0,0,1-2.721-5.343m-1.361-2.288c-2.443,0,3.7,9.91,3.7,9.91l4.452-3.739c-4.772-4.552-7.164-6.172-8.153-6.171Z"/>
        </g>
        <path id="路径_5954" data-name="路径 5954" class="cls-5" d="M1110.787,190.872s16.189,10.194,18.207,36.326,12.78,87.441,0,105.533-2.018,115.08,0,128.648,6.009,78.9-18.207,89.452"/>
        <path id="路径_5955" data-name="路径 5955" class="cls-5" d="M1145.139,532.488s-19.89,29.65-34.352,36.183"/>
        <path id="路径_5956" data-name="路径 5956" class="cls-5" d="M112.2,229.806s9.855-40.8,77.12,31.565"/>
        <path id="路径_5957" data-name="路径 5957" class="cls-5" d="M153.544,294.035s29.6,7.538,7.4,87.441c-3.183,14.574,5.385,23.117-7.4,30.655"/>
        <path id="路径_5958" data-name="路径 5958" class="cls-5" d="M153.544,265.893s43.72,18.092,28.249,100.507-16.816,117.594-4.036,145.735-24.213,81.914-24.213,81.914"/>
      </g>
    </g>
    <g id="组_2588" data-name="组 2588">
      <line id="直线_62" data-name="直线 62" class="cls-6" x2="901.334" transform="translate(199.408 359.867)"/>
      <line id="直线_63" data-name="直线 63" class="cls-6" y2="442.231" transform="translate(645.93 138.752)"/>
      <line id="直线_64" data-name="直线 64" class="cls-6" y2="442.231" transform="translate(417.574 138.752)"/>
      <line id="直线_65" data-name="直线 65" class="cls-6" y2="442.6" transform="translate(874.205 138.752)"/>
      <path id="路径_5959" data-name="路径 5959" class="cls-6" d="M1090.652,544.733"/>
      <path id="路径_5960" data-name="路径 5960" class="cls-6" d="M199.408,544.733"/>
    </g>
  </g>
</svg>
