<svg xmlns="http://www.w3.org/2000/svg" width="267.46" height="261.54" viewBox="0 0 267.46 261.54">
  <defs>
    <style>
      .cls-1 {
        fill: #fff7e3;
        stroke-miterlimit: 10;
      }

      .cls-2, .cls-3 {
        fill: #964615;
      }

      .cls-2 {
        font-size: 46.955px;
        font-family: TimesNewRomanPS-BoldMT, Times New Roman;
        font-weight: 700;
      }

      .cls-4, .cls-5 {
        stroke: none;
      }

      .cls-5 {
        fill: #fff;
      }
    </style>
  </defs>
  <g id="组_2659" data-name="组 2659" transform="translate(1357.003 -1498.747)">
    <g id="路径_5987" data-name="路径 5987" class="cls-1">
      <path class="cls-4" d="M -1114.5009765625 1755.286987304688 L -1114.505737304688 1755.286987304688 L -1114.510375976563 1755.286987304688 L -1347.012451171875 1754.847045898438 L -1352.003051757813 1754.837524414063 L -1352.003051757813 1749.847045898438 L -1352.003051757813 1508.746948242188 L -1352.003051757813 1503.746948242188 L -1347.003051757813 1503.746948242188 L -1099.550048828125 1503.746948242188 L -1094.546508789063 1503.746948242188 L -1094.550048828125 1508.75048828125 L -1094.712036132813 1735.502563476563 C -1094.712036132813 1738.168212890625 -1095.235961914063 1740.760131835938 -1096.269165039063 1743.202880859375 C -1097.26611328125 1745.559814453125 -1098.692260742188 1747.675537109375 -1100.508056640625 1749.4912109375 C -1102.323852539063 1751.306884765625 -1104.439575195313 1752.733032226563 -1106.796630859375 1753.72998046875 C -1109.239501953125 1754.763061523438 -1111.831665039063 1755.286987304688 -1114.5009765625 1755.286987304688 Z"/>
      <path class="cls-5" d="M -1114.5009765625 1750.286987304688 C -1106.3330078125 1750.286987304688 -1099.712036132813 1743.666015625 -1099.712036132813 1735.4990234375 L -1099.550048828125 1508.746948242188 L -1347.003051757813 1508.746948242188 L -1347.003051757813 1749.847045898438 L -1114.5009765625 1750.286987304688 M -1114.5009765625 1760.286987304688 L -1114.519897460938 1760.286987304688 L -1347.02197265625 1759.847045898438 L -1357.003051757813 1759.828247070313 L -1357.003051757813 1749.847045898438 L -1357.003051757813 1508.746948242188 L -1357.003051757813 1498.746948242188 L -1347.003051757813 1498.746948242188 L -1099.550048828125 1498.746948242188 L -1089.542846679688 1498.746948242188 L -1089.550048828125 1508.754150390625 L -1089.712036132813 1735.506225585938 C -1089.712036132813 1749.167114257813 -1100.832275390625 1760.286987304688 -1114.5009765625 1760.286987304688 Z"/>
    </g>
    <g id="组_2658" data-name="组 2658">
      <text id="_3" data-name="3" class="cls-2" transform="translate(-1282.058 1688.573)"><tspan x="0" y="0">3</tspan></text>
      <text id="_4" data-name="4" class="cls-2" transform="translate(-1192.9 1688.574)"><tspan x="0" y="0">4</tspan></text>
      <g id="组_2656" data-name="组 2656">
        <line id="直线_81" data-name="直线 81" class="cls-3" y1="41.847" x2="30.613" transform="translate(-1262.996 1608.184)"/>
        <path id="路径_5988" data-name="路径 5988" class="cls-3" d="M-1232.382,1606.534a1.644,1.644,0,0,0-1.332.676l-30.613,41.846a1.649,1.649,0,0,0,.357,2.306,1.651,1.651,0,0,0,2.306-.357l30.613-41.847a1.649,1.649,0,0,0-.358-2.306A1.644,1.644,0,0,0-1232.382,1606.534Z"/>
      </g>
      <g id="组_2657" data-name="组 2657">
        <line id="直线_82" data-name="直线 82" class="cls-3" x2="30.347" y2="40.723" transform="translate(-1215.251 1608.184)"/>
        <path id="路径_5989" data-name="路径 5989" class="cls-3" d="M-1215.252,1606.534a1.639,1.639,0,0,0-.985.327,1.649,1.649,0,0,0-.337,2.309l30.347,40.724a1.65,1.65,0,0,0,2.309.336,1.65,1.65,0,0,0,.337-2.309l-30.347-40.723A1.646,1.646,0,0,0-1215.252,1606.534Z"/>
      </g>
      <text id="_" data-name="?" class="cls-2" transform="translate(-1235.612 1603.538)"><tspan x="0" y="0">?</tspan></text>
    </g>
  </g>
</svg>
