<svg id="组_6660" data-name="组 6660" xmlns="http://www.w3.org/2000/svg" width="142.494" height="65.898" viewBox="0 0 142.494 65.898">
  <defs>
    <style>
      .cls-1 {
        fill: #ccd9ff;
      }

      .cls-2 {
        fill: #8ca6fd;
      }

      .cls-3, .cls-4 {
        fill: #fff;
      }

      .cls-3 {
        font-size: 28.534px;
        font-family: TimesNewRomanPS-BoldMT, Times New Roman;
        font-weight: 700;
        letter-spacing: 0.05em;
      }
    </style>
  </defs>
  <path id="路径_6995" data-name="路径 6995" class="cls-1" d="M767.946,248.435h40.533a10.734,10.734,0,0,0,5.558-1.551L836.3,233.41a6.007,6.007,0,0,0,2.9-5.138V201.677a6.008,6.008,0,0,0-3.057-5.232l-22.207-12.525a10.731,10.731,0,0,0-5.273-1.384H727.235a10.738,10.738,0,0,0-5.273,1.384l-22.206,12.525a6.008,6.008,0,0,0-3.057,5.232v26.595a6.006,6.006,0,0,0,2.9,5.138l22.259,13.474a10.741,10.741,0,0,0,5.559,1.551Z" transform="translate(-696.699 -182.537)"/>
  <path id="路径_6996" data-name="路径 6996" class="cls-2" d="M767.946,243.986H805a10.242,10.242,0,0,0,5.082-1.341l20.35-11.655a5.144,5.144,0,0,0,2.65-4.444v-23a5.156,5.156,0,0,0-2.795-4.525l-20.3-10.834a10.249,10.249,0,0,0-4.821-1.2H730.725a10.249,10.249,0,0,0-4.821,1.2l-20.3,10.834a5.156,5.156,0,0,0-2.795,4.525v23a5.145,5.145,0,0,0,2.648,4.444L725.8,242.645a10.245,10.245,0,0,0,5.082,1.341Z" transform="translate(-696.699 -182.537)"/>
  <text id="_5_3_1" data-name="5  3+1" class="cls-3" transform="translate(31.186 41.099)"><tspan x="0" y="0" xml:space="preserve">5  3+1</tspan></text>
  <rect id="矩形_2325" data-name="矩形 2325" class="cls-4" width="15" height="2" transform="translate(46.69 30.722)"/>
</svg>
