<svg xmlns="http://www.w3.org/2000/svg" width="237.157" height="290.39" viewBox="0 0 237.157 290.39">
  <defs>
    <style>
      .cls-1 {
        fill: #ccaae6;
      }

      .cls-2 {
        fill: #a86a47;
      }

      .cls-3 {
        fill: #ffd858;
      }

      .cls-4 {
        fill: #ee6457;
      }

      .cls-5 {
        fill: #e35546;
      }

      .cls-6 {
        fill: #f36e3a;
      }

      .cls-7 {
        fill: #f6804e;
      }

      .cls-8 {
        fill: #fa9e49;
      }

      .cls-9 {
        fill: #ffe58f;
      }

      .cls-10 {
        fill: #5266ae;
      }

      .cls-11 {
        fill: #525f9b;
      }

      .cls-12 {
        fill: #f37366;
      }

      .cls-13 {
        fill: #e3d8e3;
      }

      .cls-14 {
        fill: #fdb74f;
      }

      .cls-15 {
        fill: #fede81;
      }

      .cls-16 {
        fill: none;
        stroke: #1f8a5d;
        stroke-miterlimit: 10;
      }

      .cls-17 {
        fill: #ebf393;
      }

      .cls-18 {
        fill: #4eb092;
      }

      .cls-19 {
        fill: #f17669;
      }

      .cls-20 {
        fill: #665855;
      }

      .cls-21 {
        fill: #e85c52;
      }

      .cls-22 {
        fill: #e66153;
      }

      .cls-23 {
        fill: #fd8f8b;
      }

      .cls-24 {
        fill: #f28580;
      }

      .cls-25 {
        fill: #f37464;
      }

      .cls-26, .cls-27 {
        isolation: isolate;
      }

      .cls-27, .cls-28 {
        fill: #96420f;
      }

      .cls-27 {
        font-size: 29.972px;
        font-family: TimesNewRomanPS-BoldMT, Times New Roman;
        font-weight: 700;
      }
    </style>
  </defs>
  <g id="组_2748" data-name="组 2748" transform="translate(-88.569 -1098.312)">
    <rect id="矩形_457" data-name="矩形 457" class="cls-1" width="179.488" height="97.039" rx="11.015" transform="translate(131.221 1105.589)"/>
    <path id="路径_6223" data-name="路径 6223" class="cls-2" d="M136.4,1101.375v186.661h-6.126V1101.375a3.063,3.063,0,0,1,3.063-3.063h0A3.063,3.063,0,0,1,136.4,1101.375Z"/>
    <path id="路径_6224" data-name="路径 6224" class="cls-3" d="M191.188,1226.9s14.318,4.015,26.8,32.129-7.7,11.117-7.7,11.117S189.394,1238.563,191.188,1226.9Z"/>
    <path id="路径_6225" data-name="路径 6225" class="cls-4" d="M212.236,1283.608l-35.344,39.254-46.064-20.488-7.891-3.509s-20.865-52.107-10.787-59.348a23.478,23.478,0,0,1,2.41-2.169l.065-.049a43.485,43.485,0,0,1,3.99-2.875,64.018,64.018,0,0,1,8.639-4.64h.006a78.2,78.2,0,0,1,9.159-3.4h0a93.646,93.646,0,0,1,11.591-2.733h.006a112.552,112.552,0,0,1,11.946-1.409,141.853,141.853,0,0,1,20.083.163c16,2.6,18.229,13.489,24,29.953a97.843,97.843,0,0,1,4.167,14.6A93.228,93.228,0,0,0,212.236,1283.608Z"/>
    <path id="路径_6226" data-name="路径 6226" class="cls-5" d="M212.072,1283.633l-35.344,37.575-46.063-20.487c-1.443-6.891-1.481-12.493,1.191-14.739a23.412,23.412,0,0,1,2.235-2.35l.065-.049a42.656,42.656,0,0,1,3.755-3.17,63.787,63.787,0,0,1,8.263-5.284h.005a78.352,78.352,0,0,1,8.875-4.093h.006a93.232,93.232,0,0,1,11.35-3.607h0a111.152,111.152,0,0,1,11.8-2.312,142.017,142.017,0,0,1,20.039-1.366,79.986,79.986,0,0,1,9.521.624A186.063,186.063,0,0,1,212.072,1283.633Z"/>
    <path id="路径_6227" data-name="路径 6227" class="cls-6" d="M322.557,1357.653c-7.257,10.044-38.325,34.231-107.16,30.7-33.319-1.716-59.25-8.525-77.907-15.8-19.886-7.76-31.51-16.05-35.013-19.263-6.793-6.23-15.072-11.351-13.772-27.811s12.652-18.515,12.652-18.515l91.661,11.132,57.589,2.487,61.534,2.661a67.453,67.453,0,0,1,7.623,4.651C322.743,1330.121,329.814,1347.608,322.557,1357.653Z"/>
    <path id="路径_6228" data-name="路径 6228" class="cls-7" d="M322.557,1357.653c-7.257,10.044-38.325,34.231-107.16,30.7-33.319-1.716-59.25-8.525-77.907-15.8-.568-.448-15.569-12.175-10.367-11.356,5.3.837,15.072.279,7.766-3.186s-6.542-6.628-6.542-6.628l122.26-30.8,61.534,2.661a67.453,67.453,0,0,1,7.623,4.651C322.743,1330.121,329.814,1347.608,322.557,1357.653Z"/>
    <path id="路径_6229" data-name="路径 6229" class="cls-8" d="M101.486,1307.539s-11.1,5-6.36,15.325,28.371,34.045,73.95,41.3,100.832,8.744,136.737-12.092c16.929-9.86,16.678-19.737,14.885-23.17-3.048-3.294-17.35-10.2-17.35-10.2l-116.785-.653Z"/>
    <path id="路径_6230" data-name="路径 6230" class="cls-3" d="M297.348,1271.8s-25.4,38.789-45.67,63.162-79.065-.186-119.44-8.929-19.383-24.679-28.1-40.254-5.754-39.183,8.012-46.255c-2.274,2.421-3.137,23.412,7.629,40.314a46.439,46.439,0,0,0,6.847,8.455v.005s3.263,2.667,8.4,6.246c9.023,6.3,23.827,15.417,36.894,17.87,3.623.678,7.951,1.454,13.339,2.361,66.977-63.725,100.553-51.9,100.553-51.9A25.933,25.933,0,0,1,297.348,1271.8Z"/>
    <path id="路径_6231" data-name="路径 6231" class="cls-9" d="M155.314,1328.164c-1.771,1.678-11.815-4.929-11.815-4.929l-23.717-43.4a46.473,46.473,0,0,0,6.847,8.455v.005s3.263,2.667,8.4,6.246C140.971,1303.977,154.442,1325.492,155.314,1328.164Z"/>
    <path id="路径_6232" data-name="路径 6232" class="cls-10" d="M314,1327.608l-1.263,1.672c-.661.864-1.327,1.722-2.027,2.574-6.973,8.542-16.711,16.346-49.593,23.04h-.006c-1.289.262-2.612.525-3.978.787l-.618.114a242.252,242.252,0,0,1-63.5,2.568q-1.763-.164-3.492-.361a201.2,201.2,0,0,1-20.041-3.294c-.929-.207-1.841-.415-2.749-.628a164.188,164.188,0,0,1-32.051-10.914q-1.8-.836-3.492-1.688a101.118,101.118,0,0,1-17.075-10.619c-.842-.656-1.629-1.312-2.366-1.951a33.4,33.4,0,0,1-6.766-7.531,36.53,36.53,0,0,1-2.568-8.612c-2.339-13.367,1.721-26.991,1.721-26.991,10.148,29,43.637,40.669,61.217,45.276s25.953,4.044,31.849-2.913c46.222-63.6,85.077-59.873,100.144-56.342,3.819,3.208,6.863,8.006,9.251,13.5,4.192,9.629,6.372,21.389,7.192,30.39.071.781.137,1.541.186,2.279A54.592,54.592,0,0,1,314,1327.608Z"/>
    <path id="路径_6233" data-name="路径 6233" class="cls-11" d="M314,1327.608l-1.263,1.672c-.661.864-1.327,1.722-2.027,2.574-6.973,8.542-16.711,16.346-49.593,23.04h-.006c-1.289.262-2.612.525-3.978.787l-.618.114a242.252,242.252,0,0,1-63.5,2.568q-1.763-.164-3.492-.361a201.2,201.2,0,0,1-20.041-3.294c-.929-.207-1.841-.415-2.749-.628a164.188,164.188,0,0,1-32.051-10.914q-1.8-.836-3.492-1.688a101.118,101.118,0,0,1-17.075-10.619c-.842-.656-1.629-1.312-2.366-1.951a33.4,33.4,0,0,1-6.766-7.531,36.53,36.53,0,0,1-2.568-8.612l0-.006s69.589,69.868,211.369,5.29c.06-.027.126-.055.186-.087A54.615,54.615,0,0,1,314,1327.608Z"/>
    <path id="路径_6234" data-name="路径 6234" class="cls-12" d="M285.814,1262.865a66.743,66.743,0,0,0-22.925,1.831q-2.967.729-5.907,1.672c-12.974,4.142-25.417,11.181-36.2,18.679-2.59,1.792-5.082,3.618-7.465,5.437-6.317,4.815-11.847,9.575-16.312,13.652H197c-6.273,5.732-10.432,10.12-11.684,11.427-12.782,1.131-1.464-17.931-1.464-17.931,7.935-16.143,22.012-29.843,35.658-39.707q2.181-1.584,4.339-3.022c2.268-1.525,4.5-2.929,6.673-4.219,10.53-6.252,23.859-8.044,33.559-7.574,1.683.082,3.257.229,4.689.431a18.99,18.99,0,0,1,7.1,2.115c4.481,2.913,8.06,8.974,9.394,13.87A15.1,15.1,0,0,1,285.814,1262.865Z"/>
    <ellipse id="椭圆_816" data-name="椭圆 816" class="cls-13" cx="12.995" cy="19.581" rx="12.995" ry="19.581" transform="translate(222.84 1309.632) rotate(-27.181)"/>
    <ellipse id="椭圆_817" data-name="椭圆 817" class="cls-14" cx="10.344" cy="15.89" rx="10.344" ry="15.89" transform="translate(227.492 1311.813) rotate(-27.181)"/>
    <ellipse id="椭圆_818" data-name="椭圆 818" class="cls-15" cx="2.373" cy="4.529" rx="2.373" ry="4.529" transform="translate(243.282 1312.368) rotate(-30)"/>
    <path id="路径_6235" data-name="路径 6235" class="cls-13" d="M313.791,1315.683a7.484,7.484,0,0,1-2.4,1.142c-5.771,1.557-12.35-4.23-14.695-12.924s.432-17.007,6.2-18.564a7.559,7.559,0,0,1,3.7-.044C310.791,1294.922,312.971,1306.682,313.791,1315.683Z"/>
    <path id="路径_6236" data-name="路径 6236" class="cls-14" d="M311.066,1314.051c-4.593,1.238-9.86-3.478-11.763-10.534s.279-13.781,4.872-15.02a11.056,11.056,0,0,1,3.563-.42c1.331.208,8.993,17.559,5.79,25C313.324,1313.632,311.066,1314.051,311.066,1314.051Z"/>
    <ellipse id="椭圆_819" data-name="椭圆 819" class="cls-15" cx="2.258" cy="4.924" rx="2.258" ry="4.924" transform="translate(305.252 1292.76) rotate(-14.426)"/>
    <path id="路径_6237" data-name="路径 6237" class="cls-16" d="M291.581,1282.4"/>
    <path id="路径_6238" data-name="路径 6238" class="cls-17" d="M181.537,1347.592c-6.345-1.159-12.362,1.645-14.8,6.487.908.213,1.82.421,2.749.628A201.228,201.228,0,0,0,189.531,1358q1.729.2,3.492.362C192.2,1353.193,187.668,1348.708,181.537,1347.592Z"/>
    <path id="路径_6239" data-name="路径 6239" class="cls-18" d="M189.526,1358a201.511,201.511,0,0,1-20.045-3.294c2.066-3.066,6.465-4.732,11.121-3.88C185.089,1351.652,188.521,1354.571,189.526,1358Z"/>
    <path id="路径_6240" data-name="路径 6240" class="cls-17" d="M128.107,1328.6c-5.367-3.558-11.995-3.257-16.356.306a99.775,99.775,0,0,0,22.93,14.257A14.612,14.612,0,0,0,128.107,1328.6Z"/>
    <path id="路径_6241" data-name="路径 6241" class="cls-18" d="M131.189,1341.477a101.113,101.113,0,0,1-17.075-10.618c3.213-2.29,7.94-2.29,11.842.355A11.559,11.559,0,0,1,131.189,1341.477Z"/>
    <path id="路径_6242" data-name="路径 6242" class="cls-19" d="M312.736,1329.279c-.661.864-1.327,1.722-2.027,2.574-6.973,8.541-16.711,16.346-49.593,23.039h-.006c-1.289.263-2.612.526-3.978.787,0,0-2.618-27,27.379-35.931C301.714,1314.628,309.348,1322.033,312.736,1329.279Z"/>
    <path id="路径_6243" data-name="路径 6243" class="cls-20" d="M310.709,1331.853c-.743.913-1.519,1.815-2.355,2.711v.005a44.263,44.263,0,0,1-3.908,3.716.017.017,0,0,1-.011.006l-1.174.945c-.869.672-1.8,1.345-2.809,2.006-1.23.814-2.574,1.617-4.05,2.415l-1.109.58c-1.186.606-2.454,1.213-3.815,1.8a.443.443,0,0,1-.054.027l-.066.028c-1.29.563-2.656,1.12-4.12,1.672l-.028.011-1.306.481c-1.322.481-2.709.951-4.175,1.421l-.306.092q-1.737.556-3.634,1.1l-.312.094-1.47.409c-1.087.3-2.2.595-3.355.891-1.361.349-2.776.7-4.246,1.039l-.028.005-1.694.393q-2.671.6-5.567,1.191h-.006a33.145,33.145,0,0,1,3.875-16.056c.392-.731.829-1.474,1.311-2.206a28.661,28.661,0,0,1,6.749-7.2c.432-.328.875-.651,1.339-.956v-.006a32.364,32.364,0,0,1,4.088-2.333,35.637,35.637,0,0,1,4.093-1.667c.251-.088.5-.17.76-.252.24-.076.475-.147.71-.224a46.109,46.109,0,0,1,4.5-1.136,35,35,0,0,1,3.689-.541c.432-.039.847-.071,1.256-.088a24.132,24.132,0,0,1,4.63.181,18.86,18.86,0,0,1,2.874.628c.5.153.984.322,1.437.508a14.931,14.931,0,0,1,4.766,3.05l.005.011A14.468,14.468,0,0,1,310.709,1331.853Z"/>
    <path id="路径_6244" data-name="路径 6244" class="cls-19" d="M272.652,1352.264l-4.246,1.039-.028.005L266.3,1336.63a28.751,28.751,0,0,1,3.749-4.6Z"/>
    <path id="路径_6245" data-name="路径 6245" class="cls-21" d="M268.378,1353.308l-1.694.394-1.7-14.865c.393-.732.83-1.475,1.311-2.207Z"/>
    <path id="路径_6246" data-name="路径 6246" class="cls-19" d="M281.729,1349.68l-.306.092-3.634,1.1-.312.094-3.093-22.493v-.006a32.506,32.506,0,0,1,4.088-2.333Z"/>
    <path id="路径_6247" data-name="路径 6247" class="cls-21" d="M277.477,1350.964l-1.47.41-2.962-21.948c.432-.328.875-.65,1.339-.956Z"/>
    <path id="路径_6248" data-name="路径 6248" class="cls-19" d="M291.478,1346.04v.005l-.054.021-.066.029-4.12,1.672-.028.01-3.175-23.789a46.337,46.337,0,0,1,4.5-1.135Z"/>
    <path id="路径_6249" data-name="路径 6249" class="cls-21" d="M287.214,1347.778l-1.306.481-3.339-23.794c.251-.088.5-.17.76-.252.24-.076.475-.147.71-.224Z"/>
    <path id="路径_6250" data-name="路径 6250" class="cls-19" d="M300.452,1341.242c-1.23.814-2.574,1.617-4.05,2.415l-2.918-21.433a24.119,24.119,0,0,1,4.629.181S300.233,1338.958,300.452,1341.242Z"/>
    <path id="路径_6251" data-name="路径 6251" class="cls-21" d="M296.4,1343.657l-1.109.58-3.066-21.925c.432-.039.847-.071,1.257-.088Z"/>
    <path id="路径_6252" data-name="路径 6252" class="cls-19" d="M308.354,1334.564v.005a44.263,44.263,0,0,1-3.908,3.716.017.017,0,0,1-.011.006l-2.011-14.75a14.94,14.94,0,0,1,4.766,3.05l.005.011S308.048,1332.116,308.354,1334.564Z"/>
    <path id="路径_6253" data-name="路径 6253" class="cls-21" d="M304.435,1338.291l-1.174.945-2.274-16.2c.5.153.984.322,1.437.508Z"/>
    <path id="路径_6254" data-name="路径 6254" class="cls-22" d="M285.814,1262.865a66.743,66.743,0,0,0-22.925,1.831q-2.967.729-5.907,1.672c-12.974,4.142-25.417,11.181-36.2,18.673v.006c-.645.448-1.289.9-1.923,1.35s-1.263.907-1.886,1.36-1.24.908-1.847,1.361-1.213.913-1.809,1.366c-6.317,4.815-11.847,9.575-16.312,13.652a177.94,177.94,0,0,1,17.23-18.466c2.214-2.077,4.6-4.208,7.126-6.323,10.788-9.039,24.182-17.859,38.123-21.165a52.923,52.923,0,0,1,5.5-1.006,40.687,40.687,0,0,1,20.28,2.35A15.039,15.039,0,0,1,285.814,1262.865Z"/>
    <path id="路径_6255" data-name="路径 6255" class="cls-23" d="M223.84,1254.908l-2.487,24.444c-2.53,2.115-4.912,4.246-7.126,6.323l5.274-27.745Q221.682,1256.341,223.84,1254.908Z"/>
    <path id="路径_6256" data-name="路径 6256" class="cls-24" d="M221.353,1279.347l-.579,5.694v.006c-.645.448-1.289.9-1.923,1.35s-1.263.907-1.886,1.36-1.24.908-1.847,1.361-1.213.913-1.809,1.366l.918-4.814C216.441,1283.593,218.823,1281.462,221.353,1279.347Z"/>
    <path id="路径_6257" data-name="路径 6257" class="cls-23" d="M268.761,1243.541l-3.787,13.635a52.923,52.923,0,0,0-5.5,1.006l4.6-15.072C265.755,1243.192,267.329,1243.339,268.761,1243.541Z"/>
    <path id="路径_6258" data-name="路径 6258" class="cls-24" d="M264.974,1257.176l-2.088,7.52q-2.967.729-5.907,1.672l2.5-8.186A52.781,52.781,0,0,1,264.974,1257.176Z"/>
    <ellipse id="椭圆_820" data-name="椭圆 820" class="cls-9" cx="5.721" cy="2.668" rx="5.721" ry="2.668" transform="translate(176.936 1326.132)"/>
    <path id="路径_6259" data-name="路径 6259" class="cls-25" d="M116.491,1236.669a1.407,1.407,0,0,0,.5,2.527c7.045,1.512,27.564,3.212,63.623-14.745C184.759,1222.194,141.514,1218.891,116.491,1236.669Z"/>
    <g id="组_2747" data-name="组 2747">
      <g id="_5" data-name=" 5" class="cls-26">
        <text id="_5-2" data-name="5" class="cls-27" transform="translate(261.011 1137.737)"><tspan x="0" y="0">5</tspan></text>
      </g>
      <g id="_" data-name=" " class="cls-26">
        <text id="_2" data-name="?" class="cls-27" transform="translate(171.486 1137.737)"><tspan x="0" y="0">?</tspan></text>
      </g>
      <g id="_8" data-name=" 8" class="cls-26">
        <text id="_8-2" data-name="8" class="cls-27" transform="translate(216.034 1192.357)"><tspan x="0" y="0">8</tspan></text>
      </g>
      <g id="组_2746" data-name="组 2746">
        <path id="路径_6260" data-name="路径 6260" class="cls-28" d="M177.23,1144.874a1.276,1.276,0,1,1,2.543,0c0,3.89,0,7.25,23.013,7.25,9.339,0,15.9,2.181,19.5,6.483a11.95,11.95,0,0,1,1.433,2.136,11.4,11.4,0,0,1,1.108-1.661c3.7-4.616,11-6.958,21.7-6.958,17.712,0,21.914-3.559,22.9-5.088a1.99,1.99,0,0,0,.363-1.64,1.422,1.422,0,0,1,.655-1.813,1.25,1.25,0,0,1,1.649.636c.013.03.026.06.037.091a4.8,4.8,0,0,1-.512,4.144c-2.547,4.279-10.988,6.447-25.09,6.447-12.288,0-17.507,3.224-19.722,5.929a7.662,7.662,0,0,0-1.814,4.351,6.39,6.39,0,0,1,.005.886,1.264,1.264,0,0,1-2.526.06,5.655,5.655,0,0,1-.022-.911,8.592,8.592,0,0,0-2.1-4.8c-2.143-2.514-6.929-5.51-17.563-5.51C180.781,1154.9,177.23,1151.946,177.23,1144.874Z"/>
      </g>
    </g>
  </g>
</svg>
