<svg xmlns="http://www.w3.org/2000/svg" width="148.494" height="71.897" viewBox="0 0 148.494 71.897">
  <defs>
    <style>
      .cls-1, .cls-3, .cls-5 {
        fill: #fff;
      }

      .cls-2 {
        fill: #8ca6fd;
      }

      .cls-3 {
        font-size: 28.534px;
        font-family: TimesNewRomanPS-BoldMT, Times New Roman;
        font-weight: 700;
        letter-spacing: 0.05em;
      }

      .cls-4, .cls-5 {
        stroke: none;
      }
    </style>
  </defs>
  <g id="组_6665" data-name="组 6665" transform="translate(3 3)">
    <g id="路径_6991" data-name="路径 6991" class="cls-1" transform="translate(-255.569 -182.537)">
      <path class="cls-4" d="M 367.3479919433594 249.9342041015625 L 326.8154602050781 249.9342041015625 L 286.2829895019531 249.9342041015625 C 284.0502014160156 249.9342041015625 281.8596801757813 249.322998046875 279.9483032226563 248.1666107177734 L 257.6896362304688 234.692626953125 C 256.5868835449219 234.0249176025391 255.6695709228516 233.0788879394531 255.0367279052734 231.9567260742188 C 254.4036560058594 230.8341674804688 254.0690155029297 229.5597839355469 254.0690155029297 228.2713775634766 L 254.0690155029297 215.4850769042969 L 254.0690155029297 201.6768646240234 C 254.0690155029297 198.9738311767578 255.5326080322266 196.4686584472656 257.8886413574219 195.1389923095703 L 280.0956726074219 182.6142883300781 C 281.9254760742188 181.5824127197266 284.0037536621094 181.0370178222656 286.1058654785156 181.0370178222656 L 326.8154602050781 181.0370178222656 L 367.5261840820313 181.0370178222656 C 369.6282958984375 181.0370178222656 371.7065734863281 181.5824127197266 373.5363159179688 182.6142272949219 L 395.7419738769531 195.1387939453125 C 398.098876953125 196.4681243896484 399.5630187988281 198.973388671875 399.5630187988281 201.6768646240234 L 399.5630187988281 215.4850769042969 L 399.5630187988281 228.2713775634766 C 399.5630187988281 229.5597839355469 399.2284240722656 230.8341522216797 398.5953369140625 231.9567260742188 C 397.9624938964844 233.0788726806641 397.0451965332031 234.0249176025391 395.942626953125 234.6925354003906 L 373.6841430664063 248.1664123535156 C 371.7724304199219 249.322998046875 369.58154296875 249.9342041015625 367.3479919433594 249.9342041015625 Z"/>
      <path class="cls-5" d="M 367.3479919433594 248.4342193603516 C 369.3081665039063 248.4342193603516 371.23095703125 247.8973999023438 372.9073486328125 246.8832092285156 L 395.1656799316406 233.4094390869141 C 396.9641418457031 232.3204498291016 398.0630187988281 230.3723602294922 398.0630187988281 228.2713623046875 L 398.0630187988281 215.4850769042969 L 398.0630187988281 201.6768646240234 C 398.0630187988281 199.5098876953125 396.8948669433594 197.5111999511719 395.0050659179688 196.4453125 L 372.7995300292969 183.9207916259766 C 371.1902465820313 183.0133056640625 369.3730773925781 182.5370330810547 367.5261840820313 182.5370330810547 L 326.8154602050781 182.5370330810547 L 286.1058654785156 182.5370330810547 C 284.2579040527344 182.5370330810547 282.4418029785156 183.0133056640625 280.8325500488281 183.9207916259766 L 258.6258850097656 196.4453125 C 256.7372436523438 197.5111999511719 255.5690155029297 199.5098876953125 255.5690155029297 201.6768646240234 L 255.5690155029297 215.4850769042969 L 255.5690155029297 228.2713623046875 C 255.5690155029297 230.3723602294922 256.6679077148438 232.3204498291016 258.4664001464844 233.4094390869141 L 280.7247314453125 246.8832092285156 C 282.401123046875 247.8973999023438 284.3228149414063 248.4342193603516 286.2829895019531 248.4342193603516 L 326.8154602050781 248.4342193603516 L 367.3479919433594 248.4342193603516 M 367.3479919433594 251.4342193603516 L 326.8154602050781 251.4342193603516 L 286.2829895019531 251.4342193603516 C 283.7764587402344 251.4342193603516 281.3174743652344 250.7480926513672 279.171875 249.4500274658203 L 256.9128723144531 235.9758605957031 C 255.5898590087891 235.1747741699219 254.4894104003906 234.0398406982422 253.7301788330078 232.6935729980469 C 252.9705352783203 231.3465881347656 252.5690155029297 229.8174285888672 252.5690155029297 228.2713623046875 L 252.5690155029297 215.4850769042969 L 252.5690155029297 201.6768646240234 C 252.5690155029297 198.4335632324219 254.3248901367188 195.4278411865234 257.1513977050781 193.8326721191406 L 279.3587951660156 181.3077545166016 C 281.4130249023438 180.1492919921875 283.74609375 179.5370330810547 286.1058654785156 179.5370330810547 L 326.8154602050781 179.5370330810547 L 367.5261840820313 179.5370330810547 C 369.8859558105469 179.5370330810547 372.2190246582031 180.1492919921875 374.2731323242188 181.3076477050781 L 396.4788818359375 193.8323059082031 C 399.3064880371094 195.4271087646484 401.0630187988281 198.4329833984375 401.0630187988281 201.6768646240234 L 401.0630187988281 215.4850769042969 L 401.0630187988281 228.2713623046875 C 401.0630187988281 229.8173980712891 400.6614990234375 231.3465881347656 399.9018859863281 232.6935729980469 C 399.1426696777344 234.0398254394531 398.0422058105469 235.1747589111328 396.7195739746094 235.9756469726563 L 374.4608764648438 249.4496307373047 C 372.3146362304688 250.7480926513672 369.8552551269531 251.4342193603516 367.3479919433594 251.4342193603516 Z"/>
    </g>
    <path id="路径_6992" data-name="路径 6992" class="cls-2" d="M326.815,243.985h37.059a10.242,10.242,0,0,0,5.082-1.341l20.35-11.655a5.143,5.143,0,0,0,2.648-4.444v-23a5.156,5.156,0,0,0-2.795-4.524l-20.3-10.833a10.248,10.248,0,0,0-4.821-1.2H289.6a10.242,10.242,0,0,0-4.821,1.2l-20.3,10.833a5.155,5.155,0,0,0-2.8,4.524v23a5.144,5.144,0,0,0,2.649,4.444l20.35,11.655a10.242,10.242,0,0,0,5.082,1.341Z" transform="translate(-255.569 -182.537)"/>
    <text id="_5_3_1" data-name="5+3+1" class="cls-3" transform="translate(29.672 41.099)"><tspan x="0" y="0">5+3+1</tspan></text>
  </g>
</svg>
