<svg xmlns="http://www.w3.org/2000/svg" width="304.582" height="368.464" viewBox="0 0 304.582 368.464">
  <defs>
    <style>
      .cls-1, .cls-13 {
        fill: #f37366;
      }

      .cls-1, .cls-17 {
        stroke-miterlimit: 10;
      }

      .cls-2 {
        fill: #ffb3c4;
      }

      .cls-3 {
        fill: #a86a47;
      }

      .cls-4 {
        fill: #ffd858;
      }

      .cls-5 {
        fill: #ee6457;
      }

      .cls-6 {
        fill: #e35546;
      }

      .cls-7 {
        fill: #f36e3a;
      }

      .cls-8 {
        fill: #f6804e;
      }

      .cls-9 {
        fill: #fa9e49;
      }

      .cls-10 {
        fill: #ffe58f;
      }

      .cls-11 {
        fill: #5266ae;
      }

      .cls-12 {
        fill: #525f9b;
      }

      .cls-14 {
        fill: #e3d8e3;
      }

      .cls-15 {
        fill: #fdb74f;
      }

      .cls-16 {
        fill: #fede81;
      }

      .cls-17 {
        fill: none;
        stroke: #1f8a5d;
        stroke-width: 1.2px;
      }

      .cls-18 {
        fill: #ebf393;
      }

      .cls-19 {
        fill: #4eb092;
      }

      .cls-20 {
        fill: #f17669;
      }

      .cls-21 {
        fill: #665855;
      }

      .cls-22 {
        fill: #e85c52;
      }

      .cls-23 {
        fill: #e66153;
      }

      .cls-24 {
        fill: #fd8f8b;
      }

      .cls-25 {
        fill: #f28580;
      }

      .cls-26 {
        fill: #f37464;
      }

      .cls-27, .cls-28 {
        fill: #96420f;
      }

      .cls-27 {
        font-size: 34.23px;
        font-family: TimesNewRomanPS-BoldMT, Times New Roman;
        font-weight: 700;
      }

      .cls-29, .cls-30 {
        stroke: none;
      }

      .cls-30 {
        fill: #fff;
      }
    </style>
  </defs>
  <g id="组_2833" data-name="组 2833" transform="translate(-1540.821 976.575)">
    <g id="路径_6928" data-name="路径 6928" class="cls-1">
      <path class="cls-29" d="M 1719.05908203125 -613.111083984375 C 1719.056030273438 -613.111083984375 1719.053466796875 -613.111083984375 1719.050415039063 -613.111083984375 C 1713.744506835938 -613.1112060546875 1708.262084960938 -613.2547607421875 1702.755493164063 -613.53759765625 C 1683.97802734375 -614.5050659179688 1665.760009765625 -616.8897094726563 1648.606689453125 -620.625244140625 C 1634.196044921875 -623.7635498046875 1620.435424804688 -627.8724975585938 1607.706909179688 -632.837890625 C 1596.991821289063 -637.0195922851563 1587.199340820313 -641.7157592773438 1578.600708007813 -646.7960815429688 C 1572.572265625 -650.3577880859375 1567.162353515625 -654.1456298828125 1564.12890625 -656.9285888671875 C 1563.281005859375 -657.7061767578125 1562.415405273438 -658.4664916992188 1561.498901367188 -659.2715454101563 C 1557.671875 -662.6329345703125 1553.334350585938 -666.4428100585938 1550.225830078125 -671.887939453125 C 1546.676513671875 -678.10498046875 1545.293823242188 -685.4617919921875 1545.99853515625 -694.3788452148438 C 1546.406860351563 -699.5274047851563 1547.59814453125 -704.1161499023438 1549.539306640625 -708.01904296875 C 1551.16357421875 -711.2846069335938 1553.306030273438 -714.07080078125 1555.907470703125 -716.3002319335938 C 1557.933471679688 -718.036376953125 1559.935668945313 -719.1691284179688 1561.569213867188 -719.8978881835938 C 1561.572631835938 -729.2654418945313 1563.26708984375 -737.366455078125 1564.167236328125 -741.0107421875 C 1561.357666015625 -746.6063842773438 1559.535522460938 -753.0218505859375 1558.871337890625 -759.6978759765625 C 1558.153076171875 -766.9192504882813 1558.807006835938 -774.1629028320313 1560.762573242188 -780.6456909179688 C 1562.1533203125 -785.2562866210938 1564.156127929688 -789.351806640625 1566.715087890625 -792.8185424804688 C 1569.343994140625 -796.3799438476563 1572.495239257813 -799.1890869140625 1576.091552734375 -801.178955078125 C 1576.65869140625 -801.7322387695313 1577.580932617188 -802.5833740234375 1578.869873046875 -803.6224975585938 L 1578.940673828125 -803.6795043945313 L 1579.005493164063 -803.7279663085938 C 1580.507934570313 -804.9534912109375 1582.243408203125 -806.2022094726563 1584.165649414063 -807.4408569335938 C 1587.52978515625 -809.6105346679688 1591.244873046875 -811.6066284179688 1595.205932617188 -813.3726806640625 L 1595.862060546875 -813.6652221679688 L 1595.862060546875 -962.9000244140625 C 1595.862060546875 -967.6834106445313 1599.753662109375 -971.5750122070313 1604.536987304688 -971.5750122070313 C 1609.320922851563 -971.5750122070313 1613.213012695313 -967.6834106445313 1613.213012695313 -962.9000244140625 L 1613.213012695313 -962.7286987304688 C 1613.877197265625 -962.8032836914063 1614.546997070313 -962.8410034179688 1615.218994140625 -962.8410034179688 L 1804.1689453125 -962.8410034179688 C 1806.620971679688 -962.8410034179688 1809.005493164063 -962.356201171875 1811.25634765625 -961.4000244140625 C 1813.421997070313 -960.4800415039063 1815.367797851563 -959.1658935546875 1817.039672851563 -957.4940185546875 C 1818.711547851563 -955.8222045898438 1820.02587890625 -953.8765258789063 1820.945922851563 -951.7109985351563 C 1821.902099609375 -949.4603271484375 1822.386962890625 -947.075927734375 1822.386962890625 -944.6240234375 L 1822.386962890625 -854.6129760742188 C 1822.386962890625 -852.160888671875 1821.902099609375 -849.7763671875 1820.945922851563 -847.525634765625 C 1820.02587890625 -845.3599243164063 1818.711669921875 -843.4141235351563 1817.039794921875 -841.7422485351563 C 1815.367797851563 -840.0703125 1813.421997070313 -838.7560424804688 1811.25634765625 -837.8360595703125 C 1809.005615234375 -836.8798828125 1806.620971679688 -836.39501953125 1804.1689453125 -836.39501953125 L 1615.218994140625 -836.39501953125 C 1614.546875 -836.39501953125 1613.877197265625 -836.4327392578125 1613.213012695313 -836.5073852539063 L 1613.213012695313 -819.4287719726563 C 1615.86376953125 -820.0708618164063 1618.570434570313 -820.6290893554688 1621.3115234375 -821.0982666015625 L 1621.730224609375 -821.1699829101563 L 1621.73291015625 -821.1699829101563 C 1626.35009765625 -821.9581909179688 1631.204223632813 -822.523681640625 1636.167724609375 -822.8511962890625 C 1639.64306640625 -823.0809326171875 1643.246704101563 -823.1974487304688 1646.878051757813 -823.1974487304688 C 1651.441284179688 -823.1974487304688 1656.183715820313 -823.0134887695313 1660.973510742188 -822.6506958007813 L 1661.1875 -822.6344604492188 L 1661.399291992188 -822.6000366210938 C 1667.40771484375 -821.6220092773438 1672.304565429688 -819.6995239257813 1676.335083007813 -816.7322998046875 C 1678.2216796875 -816.0108642578125 1682.4365234375 -814.0452880859375 1687.725219726563 -809.396240234375 C 1691.592529296875 -805.9967651367188 1695.333129882813 -801.7850952148438 1698.843383789063 -796.8780517578125 C 1702.1298828125 -792.2837524414063 1705.229125976563 -787.0548706054688 1708.092041015625 -781.2788696289063 C 1708.865112304688 -781.8142700195313 1709.622192382813 -782.3284912109375 1710.359008789063 -782.8185424804688 C 1713.010498046875 -784.6010131835938 1715.781372070313 -786.3530883789063 1718.595336914063 -788.0264892578125 C 1724.347778320313 -791.4415283203125 1731.0283203125 -794.0311279296875 1738.45458984375 -795.725341796875 C 1744.69921875 -797.1500854492188 1751.403076171875 -797.9031372070313 1757.841064453125 -797.9031372070313 C 1759.13232421875 -797.9031372070313 1760.418823242188 -797.8724975585938 1761.664916992188 -797.8121337890625 C 1763.801635742188 -797.7073974609375 1765.846801757813 -797.5186767578125 1767.746459960938 -797.2510986328125 L 1767.755737304688 -797.249755859375 L 1767.765014648438 -797.2484130859375 C 1772.442016601563 -796.5716552734375 1775.98779296875 -795.4609985351563 1778.3037109375 -793.947265625 C 1785.05810546875 -789.5509033203125 1789.881225585938 -780.9795532226563 1791.665161132813 -774.432373046875 C 1791.834228515625 -773.81201171875 1791.978515625 -773.2030639648438 1792.097778320313 -772.6076049804688 C 1793.468627929688 -771.9481201171875 1794.81689453125 -771.1729736328125 1796.129272460938 -770.2889404296875 C 1797.87939453125 -769.1099243164063 1799.572509765625 -767.7337036132813 1801.161376953125 -766.198486328125 C 1803.099853515625 -764.3256225585938 1804.420532226563 -762.6650390625 1805.062622070313 -761.8010864257813 C 1809.695922851563 -757.7428588867188 1813.723266601563 -751.8224487304688 1817.04052734375 -744.1912841796875 C 1819.493408203125 -738.556396484375 1821.555541992188 -732.0201416015625 1823.16845703125 -724.7665405273438 C 1824.502685546875 -718.76611328125 1825.504150390625 -712.340087890625 1826.064453125 -706.18310546875 C 1826.17041015625 -705.0287475585938 1826.242065429688 -704.1498413085938 1826.296142578125 -703.3397216796875 C 1826.425537109375 -701.535400390625 1826.509155273438 -699.8176879882813 1826.546630859375 -698.2044067382813 C 1828.119506835938 -697.2548217773438 1829.817504882813 -696.1635131835938 1831.252807617188 -695.087158203125 C 1831.897827148438 -694.6034545898438 1832.515625 -693.9786987304688 1833.133056640625 -693.1849975585938 L 1833.485107421875 -692.841552734375 L 1833.689819335938 -692.4231567382813 C 1834.889526367188 -690.6802978515625 1836.106811523438 -688.2620849609375 1837.146240234375 -685.5488891601563 C 1838.372802734375 -682.3471069335938 1839.306640625 -678.8726806640625 1839.8466796875 -675.5010986328125 C 1840.87939453125 -669.054443359375 1840.99072265625 -659.8201904296875 1835.656860351563 -652.4378051757813 C 1833.777099609375 -649.8363037109375 1830.166748046875 -645.7062377929688 1823.640991210938 -640.8035888671875 C 1817.23828125 -635.993408203125 1809.6435546875 -631.6640625 1801.067749023438 -627.9358520507813 C 1790.737182617188 -623.44482421875 1779.141967773438 -619.9150390625 1766.60400390625 -617.4443969726563 C 1752.01171875 -614.5690307617188 1736.015014648438 -613.111083984375 1719.05908203125 -613.111083984375 Z"/>
      <path class="cls-30" d="M 1719.050415039063 -618.111083984375 C 1790.500122070313 -618.10888671875 1823.479736328125 -644.1222534179688 1831.60400390625 -655.3660278320313 C 1839.493041992188 -666.2849731445313 1833.27294921875 -684.5319213867188 1829.375 -689.864990234375 L 1829.3740234375 -689.8670043945313 L 1829.371948242188 -689.8690185546875 C 1828.968017578125 -690.4210205078125 1828.588989257813 -690.8350219726563 1828.253051757813 -691.0869750976563 C 1826.2060546875 -692.6220092773438 1823.5 -694.2299194335938 1821.56201171875 -695.323974609375 C 1821.593994140625 -697.47900390625 1821.517944335938 -700.072021484375 1821.307983398438 -702.9959716796875 C 1821.2490234375 -703.8809204101563 1821.171020507813 -704.7930297851563 1821.0849609375 -705.7299194335938 C 1820.10205078125 -716.531005859375 1817.484985351563 -730.6430053710938 1812.454956054688 -742.197998046875 C 1809.589965820313 -748.7890014648438 1805.93701171875 -754.5469970703125 1801.35302734375 -758.39599609375 C 1801.35302734375 -758.39599609375 1796.192016601563 -766.0419921875 1787.510009765625 -769.1110229492188 C 1787.463989257813 -770.31201171875 1787.234008789063 -771.676025390625 1786.840942382813 -773.117919921875 C 1785.239990234375 -778.9940185546875 1780.944946289063 -786.2670288085938 1775.567993164063 -789.7620239257813 C 1773.901977539063 -790.8510131835938 1770.905029296875 -791.7420043945313 1767.048950195313 -792.300048828125 C 1765.3310546875 -792.5419921875 1763.442016601563 -792.718994140625 1761.422973632813 -792.8179931640625 C 1760.269775390625 -792.8739013671875 1759.072387695313 -792.9031372070313 1757.84130859375 -792.9031372070313 C 1746.644775390625 -792.9031372070313 1732.5361328125 -790.4878540039063 1721.151000976563 -783.72900390625 C 1718.547973632813 -782.1810302734375 1715.865966796875 -780.4959716796875 1713.14404296875 -778.666015625 C 1711.4189453125 -777.5189208984375 1709.682006835938 -776.3049926757813 1707.93701171875 -775.0399169921875 C 1707.333984375 -774.60400390625 1706.72998046875 -774.1490478515625 1706.1259765625 -773.7000122070313 L 1706.119995117188 -773.7119750976563 C 1691.142944335938 -807.448974609375 1673.961059570313 -812.2670288085938 1673.961059570313 -812.2670288085938 L 1673.9599609375 -812.2570190429688 C 1670.614990234375 -814.8920288085938 1666.35205078125 -816.72802734375 1660.595947265625 -817.6649169921875 C 1655.784301757813 -818.0294189453125 1651.213745117188 -818.1974487304688 1646.878295898438 -818.1974487304688 C 1643.2548828125 -818.1974487304688 1639.795776367188 -818.080078125 1636.496948242188 -817.8619995117188 C 1631.328979492188 -817.52099609375 1626.56201171875 -816.93701171875 1622.161010742188 -816.169921875 L 1622.155029296875 -816.169921875 C 1617.02001953125 -815.291015625 1612.390014648438 -814.1569213867188 1608.245971679688 -812.8909912109375 L 1608.239013671875 -812.8909912109375 L 1608.213012695313 -812.8829956054688 L 1608.213012695313 -843.4349975585938 C 1610.2490234375 -842.1510009765625 1612.64697265625 -841.39501953125 1615.218994140625 -841.39501953125 L 1804.1689453125 -841.39501953125 C 1811.43896484375 -841.39501953125 1817.386962890625 -847.343017578125 1817.386962890625 -854.6129760742188 L 1817.386962890625 -944.6240234375 C 1817.386962890625 -951.8930053710938 1811.43896484375 -957.8410034179688 1804.1689453125 -957.8410034179688 L 1615.218994140625 -957.8410034179688 C 1612.64697265625 -957.8410034179688 1610.2490234375 -957.0850219726563 1608.213012695313 -955.802001953125 L 1608.213012695313 -962.9000244140625 C 1608.213012695313 -964.9299926757813 1606.567016601563 -966.5750122070313 1604.536987304688 -966.5750122070313 C 1602.506958007813 -966.5750122070313 1600.862060546875 -964.9299926757813 1600.862060546875 -962.9000244140625 L 1600.862060546875 -810.31201171875 C 1599.60595703125 -809.81591796875 1598.387939453125 -809.3150024414063 1597.248046875 -808.8060302734375 L 1597.241943359375 -808.8060302734375 C 1593.005004882813 -806.9169921875 1589.568969726563 -804.9760131835938 1586.8740234375 -803.2379760742188 C 1584.880004882813 -801.9530029296875 1583.286987304688 -800.7730102539063 1582.087036132813 -799.7890014648438 L 1582.008056640625 -799.7299194335938 C 1580.046997070313 -798.1490478515625 1579.115966796875 -797.1259765625 1579.115966796875 -797.1259765625 C 1562.597045898438 -788.6409912109375 1559.036010742188 -760.3170166015625 1569.501953125 -741.6209716796875 C 1570.427978515625 -739.9669189453125 1571.069946289063 -738.3099975585938 1571.512939453125 -736.655029296875 C 1570.785034179688 -738.2659912109375 1570.100952148438 -739.9110107421875 1569.501953125 -741.6209716796875 C 1569.501953125 -741.6209716796875 1565.93798828125 -729.6480102539063 1566.66796875 -716.1420288085938 L 1566.163940429688 -716.2030029296875 C 1566.163940429688 -716.2030029296875 1552.550048828125 -713.7440185546875 1550.983032226563 -693.9849243164063 C 1549.421997070313 -674.2329711914063 1559.357055664063 -668.0889892578125 1567.509033203125 -660.6129760742188 C 1571.712036132813 -656.7570190429688 1585.661010742188 -646.8090209960938 1609.524047851563 -637.4959716796875 C 1631.912963867188 -628.7620239257813 1663.030029296875 -620.5910034179688 1703.011962890625 -618.531005859375 C 1708.557739257813 -618.2461547851563 1713.908203125 -618.1112670898438 1719.050415039063 -618.111083984375 M 1739.614013671875 -759.7930297851563 C 1724.412963867188 -752.6779174804688 1705.595947265625 -740.8889770507813 1683.171020507813 -721.6090087890625 C 1688.098999023438 -726.02197265625 1693.947998046875 -730.968994140625 1700.506958007813 -735.968017578125 C 1703.365966796875 -738.1519775390625 1706.357055664063 -740.3419189453125 1709.464965820313 -742.492919921875 C 1718.671020507813 -748.8920288085938 1728.884033203125 -755.0040283203125 1739.614013671875 -759.7930297851563 M 1694.385009765625 -764.2680053710938 L 1694.425048828125 -764.2050170898438 L 1694.401000976563 -764.1829223632813 L 1694.39794921875 -764.1959228515625 C 1694.39501953125 -764.218994140625 1694.389038085938 -764.2449951171875 1694.385009765625 -764.2680053710938 M 1719.059326171875 -608.111083984375 L 1719.058959960938 -608.111083984375 C 1713.743286132813 -608.1112060546875 1708.221923828125 -608.250244140625 1702.498901367188 -608.544189453125 C 1667.1201171875 -610.3670043945313 1634.61669921875 -616.9733276367188 1605.889770507813 -628.1797485351563 C 1582.998046875 -637.1137084960938 1567.265747070313 -647.265380859375 1560.748779296875 -653.244140625 L 1558.198974609375 -655.5150146484375 C 1550.192993164063 -662.5471801757813 1539.228393554688 -672.1780395507813 1541.014038085938 -694.7728271484375 C 1542.242431640625 -710.2612915039063 1549.638305664063 -718.8609008789063 1556.63134765625 -723.0242919921875 C 1556.904174804688 -730.274658203125 1558.038452148438 -736.5661010742188 1558.89990234375 -740.4312133789063 C 1553.08642578125 -753.09814453125 1551.931762695313 -768.6843872070313 1555.975708007813 -782.0899047851563 C 1559.098022460938 -792.4404296875 1565.1357421875 -800.5848999023438 1573.072021484375 -805.212890625 C 1573.717163085938 -805.8182983398438 1574.599365234375 -806.6022338867188 1575.73193359375 -807.5152587890625 C 1577.1787109375 -808.6963500976563 1579.076904296875 -810.1099243164063 1581.457275390625 -811.643798828125 C 1584.370483398438 -813.522705078125 1587.525756835938 -815.2767333984375 1590.862060546875 -816.8731689453125 L 1590.862060546875 -962.9000244140625 C 1590.862060546875 -970.4404296875 1596.996704101563 -976.5750122070313 1604.536987304688 -976.5750122070313 C 1610.33642578125 -976.5750122070313 1615.304321289063 -972.946533203125 1617.289672851563 -967.8410034179688 L 1804.1689453125 -967.8410034179688 C 1816.971435546875 -967.8410034179688 1827.386962890625 -957.4259643554688 1827.386962890625 -944.6240234375 L 1827.386962890625 -854.6129760742188 C 1827.386962890625 -841.810546875 1816.971435546875 -831.39501953125 1804.1689453125 -831.39501953125 L 1618.213012695313 -831.39501953125 L 1618.213012695313 -825.619873046875 C 1618.962158203125 -825.761962890625 1619.714111328125 -825.8975830078125 1620.467895507813 -826.026611328125 C 1625.3671875 -826.87939453125 1630.547973632813 -827.4912109375 1635.838500976563 -827.84033203125 C 1639.345825195313 -828.0721435546875 1643.024658203125 -828.1974487304688 1646.878173828125 -828.1974487304688 C 1651.452392578125 -828.1974487304688 1656.274780273438 -828.0209350585938 1661.351318359375 -827.6363525390625 C 1668.800170898438 -826.4581909179688 1674.370971679688 -824.3025512695313 1678.9931640625 -820.981689453125 C 1686.930908203125 -817.8806762695313 1698.96728515625 -808.5349731445313 1709.94482421875 -788.5374755859375 C 1711.999145507813 -789.8709106445313 1714.041381835938 -791.1356811523438 1716.039672851563 -792.3240356445313 C 1727.367065429688 -799.0486450195313 1742.600830078125 -802.9031372070313 1757.841430664063 -802.9031372070313 C 1759.23876953125 -802.9031372070313 1760.597900390625 -802.8697509765625 1761.906860351563 -802.8062744140625 C 1764.256713867188 -802.6911010742188 1766.449584960938 -802.483154296875 1768.44384765625 -802.2022094726563 C 1773.960327148438 -801.4041137695313 1778.068115234375 -800.0745849609375 1781.039184570313 -798.1325073242188 C 1789.325805664063 -792.7462768554688 1794.485961914063 -782.8928833007813 1796.423828125 -775.9833374023438 C 1802.77734375 -772.3805541992188 1806.986938476563 -767.5115356445313 1808.757080078125 -765.2066650390625 C 1813.7802734375 -760.67529296875 1818.105590820313 -754.2833251953125 1821.6259765625 -746.1845092773438 C 1828.265747070313 -730.9315795898438 1830.424194335938 -713.44580078125 1831.043823242188 -706.6361694335938 L 1831.285888671875 -703.6611328125 C 1831.350708007813 -702.7587280273438 1831.403686523438 -701.88134765625 1831.445556640625 -701.0330810546875 C 1832.428588867188 -700.3939208984375 1833.390258789063 -699.7340087890625 1834.252685546875 -699.0872802734375 C 1835.393798828125 -698.2314453125 1836.43701171875 -697.1478881835938 1837.442138671875 -695.7743530273438 C 1843.507934570313 -687.4755859375 1850.656860351563 -664.6612548828125 1839.709716796875 -649.5095825195313 C 1836.647827148438 -645.2720336914063 1807.250732421875 -608.111083984375 1719.059326171875 -608.111083984375 Z"/>
    </g>
    <rect id="矩形_509" data-name="矩形 509" class="cls-2" width="215.385" height="116.446" rx="13.218" transform="translate(1602.001 -957.841)"/>
    <path id="路径_6929" data-name="路径 6929" class="cls-3" d="M1608.213-962.9v223.994h-7.351V-962.9a3.674,3.674,0,0,1,3.675-3.675h0A3.675,3.675,0,0,1,1608.213-962.9Z"/>
    <path id="路径_6930" data-name="路径 6930" class="cls-4" d="M1673.961-812.267s17.182,4.818,32.159,38.555-9.244,13.34-9.244,13.34S1671.809-798.275,1673.961-812.267Z"/>
    <path id="路径_6931" data-name="路径 6931" class="cls-5" d="M1699.22-744.217l-42.414,47.1L1601.53-721.7l-9.469-4.21s-25.038-62.528-12.945-71.217a28.176,28.176,0,0,1,2.892-2.6l.079-.059a52.412,52.412,0,0,1,4.787-3.449,76.86,76.86,0,0,1,10.368-5.568h.006a94.1,94.1,0,0,1,10.991-4.085h.007a112.561,112.561,0,0,1,13.909-3.279h.006a135.316,135.316,0,0,1,14.336-1.692,170.366,170.366,0,0,1,24.1.2c19.2,3.126,21.875,16.186,28.8,35.943,1.908,5.44,4.159,12.379,5,17.526C1696.51-751.286,1699.22-744.217,1699.22-744.217Z"/>
    <path id="路径_6932" data-name="路径 6932" class="cls-6" d="M1699.023-744.191,1656.609-699.1l-55.275-24.585c-1.732-8.269-1.777-14.991,1.429-17.686a28.12,28.12,0,0,1,2.682-2.82l.079-.059a51.261,51.261,0,0,1,4.505-3.8,76.607,76.607,0,0,1,9.916-6.341h.006a94.3,94.3,0,0,1,10.65-4.912h.007a111.8,111.8,0,0,1,13.62-4.328h.007a133.228,133.228,0,0,1,14.165-2.774,170.487,170.487,0,0,1,24.047-1.64c3.095.112,8.972.224,11.425.749A223.719,223.719,0,0,1,1699.023-744.191Z"/>
    <path id="路径_6933" data-name="路径 6933" class="cls-7" d="M1831.6-655.366c-8.709,12.053-45.99,41.078-128.592,36.835-39.983-2.06-71.1-10.231-93.488-18.965-23.863-9.313-37.812-19.261-42.015-23.117-8.152-7.476-18.087-13.62-16.526-33.372s15.181-22.218,15.181-22.218l109.994,13.358,69.106,2.984,73.841,3.194a81.226,81.226,0,0,1,9.148,5.58C1831.827-688.405,1840.313-667.42,1831.6-655.366Z"/>
    <path id="路径_6934" data-name="路径 6934" class="cls-8" d="M1831.6-655.366c-8.709,12.053-45.99,41.078-128.592,36.835-39.983-2.06-71.1-10.231-93.488-18.965-.682-.538-18.683-14.611-12.44-13.628,6.361,1,18.087.335,9.319-3.823s-7.85-7.954-7.85-7.954l146.711-36.96,73.841,3.194a81.226,81.226,0,0,1,9.148,5.58C1831.827-688.405,1840.313-667.42,1831.6-655.366Z"/>
    <path id="路径_6935" data-name="路径 6935" class="cls-9" d="M1566.32-715.5s-13.325,6-7.632,18.389,34.044,40.854,88.739,49.56,121,10.493,164.084-14.51c20.316-11.832,20.014-23.684,17.863-27.8-3.659-3.953-20.821-12.241-20.821-12.241l-140.141-.783Z"/>
    <path id="路径_6936" data-name="路径 6936" class="cls-4" d="M1801.353-758.4s-30.474,46.547-54.8,75.795-94.878-.223-143.327-10.715-23.26-29.615-33.72-48.3-6.9-47.02,9.614-55.505c-2.728,2.9-3.764,28.093,9.155,48.377a55.73,55.73,0,0,0,8.216,10.144v.007s3.916,3.2,10.08,7.5c10.827,7.554,28.592,18.5,44.271,21.444,4.348.813,9.542,1.744,16.008,2.832,80.372-76.47,120.664-62.285,120.664-62.285C1796.192-766.042,1801.353-758.4,1801.353-758.4Z"/>
    <path id="路径_6937" data-name="路径 6937" class="cls-10" d="M1630.909-690.752c-2.124,2.013-14.178-5.915-14.178-5.915l-28.46-52.082a55.73,55.73,0,0,0,8.216,10.144v.007s3.916,3.2,10.08,7.5C1613.7-719.777,1629.867-693.959,1630.909-690.752Z"/>
    <path id="路径_6938" data-name="路径 6938" class="cls-11" d="M1821.335-691.421l-1.515,2.006c-.794,1.037-1.594,2.066-2.433,3.089-8.368,10.25-20.054,19.615-59.512,27.648h-.007c-1.547.315-3.134.629-4.774.944l-.741.138a290.819,290.819,0,0,1-76.2,3.082q-2.115-.2-4.19-.433a241.62,241.62,0,0,1-24.054-3.954c-1.115-.249-2.21-.5-3.3-.754a196.989,196.989,0,0,1-38.461-13.1q-2.154-1-4.191-2.027a121.11,121.11,0,0,1-20.486-12.741c-1.01-.787-1.955-1.574-2.84-2.342a40.037,40.037,0,0,1-8.118-9.036,43.876,43.876,0,0,1-3.083-10.335c-2.806-16.041,2.066-32.389,2.066-32.389,12.178,34.795,52.364,48.8,73.461,54.331s31.143,4.853,38.218-3.495c55.466-76.326,102.092-71.847,120.172-67.611,4.584,3.849,8.237,9.607,11.1,16.2,5.03,11.555,7.647,25.667,8.63,36.468.086.937.164,1.849.223,2.734A65.632,65.632,0,0,1,1821.335-691.421Z"/>
    <path id="路径_6939" data-name="路径 6939" class="cls-12" d="M1821.335-691.421l-1.515,2.006c-.794,1.037-1.594,2.066-2.433,3.089-8.368,10.25-20.054,19.615-59.512,27.648h-.007c-1.547.315-3.134.629-4.774.944l-.741.138a290.819,290.819,0,0,1-76.2,3.082q-2.115-.2-4.19-.433a241.62,241.62,0,0,1-24.054-3.954c-1.115-.249-2.21-.5-3.3-.754a196.989,196.989,0,0,1-38.461-13.1q-2.154-1-4.191-2.027a121.11,121.11,0,0,1-20.486-12.741c-1.01-.787-1.955-1.574-2.84-2.342a40.037,40.037,0,0,1-8.118-9.036,43.876,43.876,0,0,1-3.083-10.335l.007-.007s83.507,83.842,253.642,6.348c.073-.033.151-.065.223-.1A65.632,65.632,0,0,1,1821.335-691.421Z"/>
    <path id="路径_6940" data-name="路径 6940" class="cls-13" d="M1787.51-769.111a80.116,80.116,0,0,0-27.51,2.2q-3.561.876-7.089,2.007c-15.569,4.971-30.5,13.417-43.446,22.415-3.108,2.151-6.1,4.341-8.958,6.525-7.581,5.777-14.217,11.489-19.575,16.381h-.006c-7.529,6.879-12.519,12.145-14.021,13.712-15.339,1.358-1.757-21.516-1.757-21.516,9.522-19.371,26.414-35.812,42.789-47.649,1.745-1.265,3.482-2.479,5.207-3.626,2.722-1.83,5.4-3.515,8.007-5.063,12.637-7.5,28.631-9.653,40.272-9.089,2.019.1,3.908.276,5.626.518,3.856.558,6.853,1.449,8.519,2.538,5.377,3.495,9.672,10.768,11.273,16.644A18.182,18.182,0,0,1,1787.51-769.111Z"/>
    <ellipse id="椭圆_896" data-name="椭圆 896" class="cls-14" cx="15.594" cy="23.498" rx="15.594" ry="23.498" transform="translate(1711.945 -712.991) rotate(-27.181)"/>
    <ellipse id="椭圆_897" data-name="椭圆 897" class="cls-15" cx="12.413" cy="19.068" rx="12.413" ry="19.068" transform="translate(1717.526 -710.374) rotate(-27.181)"/>
    <ellipse id="椭圆_898" data-name="椭圆 898" class="cls-16" cx="2.848" cy="5.435" rx="2.848" ry="5.435" transform="translate(1736.475 -709.708) rotate(-30)"/>
    <path id="路径_6941" data-name="路径 6941" class="cls-14" d="M1821.085-705.73a8.961,8.961,0,0,1-2.878,1.37c-6.925,1.869-14.821-5.076-17.634-15.509s.518-20.408,7.443-22.277a9.083,9.083,0,0,1,4.439-.052C1817.485-730.643,1820.1-716.531,1821.085-705.73Z"/>
    <path id="路径_6942" data-name="路径 6942" class="cls-15" d="M1817.815-707.689c-5.512,1.486-11.832-4.173-14.115-12.641s.334-16.537,5.846-18.023a13.275,13.275,0,0,1,4.275-.5c1.6.249,10.792,21.07,6.948,30C1820.525-708.191,1817.815-707.689,1817.815-707.689Z"/>
    <ellipse id="椭圆_899" data-name="椭圆 899" class="cls-16" cx="2.711" cy="5.911" rx="2.711" ry="5.911" transform="matrix(0.968, -0.249, 0.249, 0.968, 1810.838, -733.238)"/>
    <path id="路径_6943" data-name="路径 6943" class="cls-17" d="M1794.433-745.668"/>
    <path id="路径_6944" data-name="路径 6944" class="cls-18" d="M1662.38-667.439c-7.613-1.391-14.834,1.974-17.765,7.784,1.089.255,2.184.505,3.3.754a241.62,241.62,0,0,0,24.054,3.954q2.074.237,4.19.433C1675.181-660.718,1669.738-666.095,1662.38-667.439Z"/>
    <path id="路径_6945" data-name="路径 6945" class="cls-19" d="M1671.968-654.947a241.62,241.62,0,0,1-24.054-3.954c2.479-3.679,7.758-5.679,13.345-4.656C1666.643-662.567,1670.761-659.065,1671.968-654.947Z"/>
    <path id="路径_6946" data-name="路径 6946" class="cls-18" d="M1598.265-690.228c-6.44-4.269-14.4-3.908-19.628.367,6.263,5.443,15.509,11.509,27.517,17.11A17.54,17.54,0,0,0,1598.265-690.228Z"/>
    <path id="路径_6947" data-name="路径 6947" class="cls-19" d="M1601.963-674.778a121.11,121.11,0,0,1-20.486-12.741c3.856-2.748,9.528-2.748,14.21.426A13.872,13.872,0,0,1,1601.963-674.778Z"/>
    <path id="路径_6948" data-name="路径 6948" class="cls-20" d="M1819.82-689.415c-.794,1.037-1.594,2.066-2.433,3.089-8.368,10.25-20.054,19.615-59.512,27.648h-.007c-1.547.315-3.134.629-4.774.944,0,0-3.141-32.4,32.855-43.117C1806.593-707,1815.754-698.11,1819.82-689.415Z"/>
    <path id="路径_6949" data-name="路径 6949" class="cls-21" d="M1817.387-686.326c-.892,1.095-1.823,2.177-2.827,3.253v.006a53.07,53.07,0,0,1-4.688,4.46.023.023,0,0,1-.014.006l-1.409,1.135c-1.043.806-2.165,1.613-3.371,2.406-1.476.978-3.089,1.942-4.859,2.9l-1.332.7c-1.423.728-2.944,1.456-4.577,2.164a.675.675,0,0,1-.066.033l-.078.033c-1.548.675-3.187,1.344-4.945,2.006l-.033.014-1.567.577c-1.587.577-3.253,1.141-5.01,1.7l-.367.111q-2.086.669-4.361,1.318l-.374.112-1.764.492c-1.305.36-2.636.714-4.027,1.069-1.633.419-3.331.839-5.095,1.246l-.033.006-2.033.472q-3.207.718-6.682,1.43h-.007a39.781,39.781,0,0,1,4.65-19.267c.472-.879,1-1.771,1.574-2.649a34.464,34.464,0,0,1,4.5-5.522,34.526,34.526,0,0,1,3.6-3.122c.518-.393,1.049-.78,1.606-1.147v-.007a39.289,39.289,0,0,1,4.905-2.8,43.531,43.531,0,0,1,4.912-2c.3-.1.6-.2.912-.3.288-.091.57-.177.852-.269,1.909-.577,3.7-1.029,5.4-1.364a42.677,42.677,0,0,1,4.426-.649c.518-.046,1.017-.085,1.509-.1a29,29,0,0,1,5.554.217,22.9,22.9,0,0,1,3.449.754c.6.184,1.181.387,1.725.61a17.936,17.936,0,0,1,5.719,3.659.022.022,0,0,1,.006.013A17.4,17.4,0,0,1,1817.387-686.326Z"/>
    <path id="路径_6950" data-name="路径 6950" class="cls-20" d="M1771.718-661.832l-5.095,1.246-.033.006-2.5-20.014a34.464,34.464,0,0,1,4.5-5.522Z"/>
    <path id="路径_6951" data-name="路径 6951" class="cls-22" d="M1766.59-660.58l-2.033.472-2.039-17.837c.472-.879,1-1.771,1.574-2.649Z"/>
    <path id="路径_6952" data-name="路径 6952" class="cls-20" d="M1782.611-664.934l-.367.111-4.361,1.318-.374.112-3.712-26.992v-.007a39.289,39.289,0,0,1,4.905-2.8Z"/>
    <path id="路径_6953" data-name="路径 6953" class="cls-22" d="M1777.509-663.393l-1.764.492-3.554-26.337c.518-.393,1.049-.78,1.606-1.147Z"/>
    <path id="路径_6954" data-name="路径 6954" class="cls-20" d="M1794.31-669.3v.007l-.066.026-.078.033-4.945,2.006-.033.014-3.81-28.547c1.909-.577,3.7-1.029,5.4-1.364Z"/>
    <path id="路径_6955" data-name="路径 6955" class="cls-22" d="M1789.188-667.216l-1.567.577-4.007-28.553c.3-.1.6-.2.912-.3.288-.091.57-.177.852-.269Z"/>
    <path id="路径_6956" data-name="路径 6956" class="cls-20" d="M1805.078-675.06c-1.476.978-3.089,1.942-4.859,2.9l-3.5-25.72a29,29,0,0,1,5.554.217S1804.816-677.8,1805.078-675.06Z"/>
    <path id="路径_6957" data-name="路径 6957" class="cls-22" d="M1800.219-672.161l-1.332.7-3.679-26.31c.518-.046,1.017-.085,1.509-.1Z"/>
    <path id="路径_6958" data-name="路径 6958" class="cls-20" d="M1814.56-683.073v.006a53.07,53.07,0,0,1-4.688,4.46.023.023,0,0,1-.014.006l-2.413-17.7a17.936,17.936,0,0,1,5.719,3.659.022.022,0,0,1,.006.013S1814.193-686.011,1814.56-683.073Z"/>
    <path id="路径_6959" data-name="路径 6959" class="cls-22" d="M1809.858-678.6l-1.409,1.135-2.729-19.444c.6.184,1.181.387,1.725.61Z"/>
    <path id="路径_6960" data-name="路径 6960" class="cls-23" d="M1787.51-769.111a80.116,80.116,0,0,0-27.51,2.2q-3.561.876-7.089,2.007c-15.569,4.971-30.5,13.417-43.446,22.408v.007c-.774.537-1.547,1.075-2.308,1.619s-1.515,1.089-2.263,1.633-1.488,1.089-2.216,1.633-1.456,1.095-2.171,1.64c-7.581,5.777-14.217,11.489-19.575,16.381a213.831,213.831,0,0,1,20.677-22.159c2.656-2.492,5.515-5.049,8.551-7.587,12.945-10.847,29.019-21.431,45.747-25.4a63.446,63.446,0,0,1,6.6-1.207,48.824,48.824,0,0,1,24.336,2.82A18.182,18.182,0,0,1,1787.51-769.111Z"/>
    <path id="路径_6961" data-name="路径 6961" class="cls-24" d="M1713.144-778.666l-2.984,29.333c-3.036,2.538-5.9,5.1-8.551,7.587l6.328-33.294C1709.682-776.3,1711.419-777.519,1713.144-778.666Z"/>
    <path id="路径_6962" data-name="路径 6962" class="cls-25" d="M1710.16-749.333l-.7,6.833v.007c-.774.537-1.547,1.075-2.308,1.619s-1.515,1.089-2.263,1.633-1.488,1.089-2.216,1.633-1.456,1.095-2.171,1.64l1.1-5.778C1704.265-744.238,1707.124-746.795,1710.16-749.333Z"/>
    <path id="路径_6963" data-name="路径 6963" class="cls-24" d="M1767.049-792.3l-4.544,16.362a63.446,63.446,0,0,0-6.6,1.207l5.516-18.087C1763.442-792.72,1765.331-792.542,1767.049-792.3Z"/>
    <path id="路径_6964" data-name="路径 6964" class="cls-25" d="M1762.505-775.938,1760-766.915q-3.561.876-7.089,2.007l3-9.823A63.446,63.446,0,0,1,1762.505-775.938Z"/>
    <ellipse id="椭圆_900" data-name="椭圆 900" class="cls-10" cx="6.865" cy="3.202" rx="6.865" ry="3.202" transform="translate(1656.859 -693.192)"/>
    <path id="路径_6965" data-name="路径 6965" class="cls-26" d="M1584.326-800.547a1.689,1.689,0,0,0,.6,3.033c8.451,1.813,33.074,3.85,76.34-17.7C1666.247-817.917,1614.347-821.88,1584.326-800.547Z"/>
    <g id="组_2832" data-name="组 2832">
      <text id="_6" data-name="6" class="cls-27" transform="translate(1657.818 -856.602)"><tspan x="0" y="0">6</tspan></text>
      <text id="_9" data-name="9" class="cls-27" transform="translate(1703.464 -923.893)"><tspan x="0" y="0">9</tspan></text>
      <text id="_" data-name="?" class="cls-27" transform="translate(1749.527 -856.602)"><tspan x="0" y="0">?</tspan></text>
      <g id="组_2830" data-name="组 2830">
        <path id="路径_6966" data-name="路径 6966" class="cls-28" d="M1704.326-916.408a1.2,1.2,0,0,0-.972.493l-33.89,30.506a1.2,1.2,0,0,0,.261,1.68,1.2,1.2,0,0,0,1.681-.26l33.89-30.506a1.2,1.2,0,0,0-.261-1.68A1.194,1.194,0,0,0,1704.326-916.408Z"/>
      </g>
      <g id="组_2831" data-name="组 2831">
        <path id="路径_6967" data-name="路径 6967" class="cls-28" d="M1719.276-916.408a1.2,1.2,0,0,1,.972.493l33.89,30.506a1.2,1.2,0,0,1-.26,1.68,1.2,1.2,0,0,1-1.681-.26l-33.89-30.506a1.2,1.2,0,0,1,.26-1.68A1.2,1.2,0,0,1,1719.276-916.408Z"/>
      </g>
    </g>
  </g>
</svg>
