<svg xmlns="http://www.w3.org/2000/svg" width="216.941" height="219.741" viewBox="0 0 216.941 219.741">
  <defs>
    <style>
      .cls-1 {
        fill: #f4f293;
      }

      .cls-2 {
        fill: #f0974a;
      }

      .cls-3, .cls-4 {
        fill: #964615;
      }

      .cls-4 {
        font-size: 42.687px;
        font-family: TimesNewRomanPS-BoldMT, Times New Roman;
        font-weight: 700;
      }
    </style>
  </defs>
  <g id="组_2623" data-name="组 2623" transform="translate(2036.052 815.129)">
    <path id="矩形_363" data-name="矩形 363" class="cls-1" d="M9.792,0H216.941a0,0,0,0,1,0,0V219.741a0,0,0,0,1,0,0H0a0,0,0,0,1,0,0V9.792A9.792,9.792,0,0,1,9.792,0Z" transform="translate(-2036.052 -815.129)"/>
    <g id="组_2622" data-name="组 2622">
      <circle id="椭圆_757" data-name="椭圆 757" class="cls-2" cx="13.503" cy="13.503" r="13.503" transform="translate(-1988.571 -773.305)"/>
      <circle id="椭圆_758" data-name="椭圆 758" class="cls-2" cx="13.503" cy="13.503" r="13.503" transform="translate(-1988.571 -744.471)"/>
      <circle id="椭圆_759" data-name="椭圆 759" class="cls-2" cx="13.503" cy="13.503" r="13.503" transform="translate(-1959.737 -773.305)"/>
      <circle id="椭圆_760" data-name="椭圆 760" class="cls-2" cx="13.503" cy="13.503" r="13.503" transform="translate(-1959.737 -744.471)"/>
      <circle id="椭圆_761" data-name="椭圆 761" class="cls-2" cx="13.503" cy="13.503" r="13.503" transform="translate(-1988.571 -664.217)"/>
      <circle id="椭圆_762" data-name="椭圆 762" class="cls-2" cx="13.503" cy="13.503" r="13.503" transform="translate(-1973.241 -691.224)"/>
      <circle id="椭圆_763" data-name="椭圆 763" class="cls-2" cx="13.503" cy="13.503" r="13.503" transform="translate(-1959.737 -664.217)"/>
      <g id="组_2621" data-name="组 2621">
        <path id="路径_5972" data-name="路径 5972" class="cls-3" d="M-1916.149-649.214a1.5,1.5,0,0,1-1.5-1.5,1.5,1.5,0,0,1,1.5-1.5c4.2,0,7.831,0,7.831-27.151,0-11.017,2.356-18.756,7-23a12.9,12.9,0,0,1,2.306-1.69,12.378,12.378,0,0,1-1.793-1.308c-4.987-4.361-7.516-12.975-7.516-25.6,0-20.9-3.843-25.855-5.495-27.016a2,2,0,0,0-1.772-.428,1.481,1.481,0,0,1-1.958-.772,1.52,1.52,0,0,1,.785-1.989,4.8,4.8,0,0,1,4.477.6c4.62,3,6.963,12.964,6.963,29.6,0,14.5,3.483,20.655,6.405,23.268a7.9,7.9,0,0,0,4.7,2.14,6.512,6.512,0,0,1,.956-.007,1.5,1.5,0,0,1,1.365,1.462,1.5,1.5,0,0,1-1.3,1.519,5.873,5.873,0,0,1-.985.026,8.869,8.869,0,0,0-5.19,2.476c-2.715,2.527-5.952,8.174-5.952,20.719C-1905.318-653.4-1908.511-649.214-1916.149-649.214Z"/>
      </g>
      <text id="_" data-name="?" class="cls-4" transform="translate(-1884.76 -689.966)"><tspan x="0" y="0">?</tspan></text>
    </g>
  </g>
</svg>
