<svg xmlns="http://www.w3.org/2000/svg" width="203.898" height="206.84" viewBox="0 0 203.898 206.84">
  <defs>
    <style>
      .cls-1 {
        fill: #dbe4ff;
      }

      .cls-2 {
        fill: #5cb1eb;
      }

      .cls-3, .cls-4, .cls-7, .cls-8 {
        fill: #964615;
      }

      .cls-3 {
        font-size: 21.017px;
      }

      .cls-3, .cls-4, .cls-8 {
        font-family: TimesNewRomanPS-BoldMT, Times New Roman;
        font-weight: 700;
      }

      .cls-4 {
        font-size: 27.688px;
      }

      .cls-5 {
        fill: none;
        stroke: #964615;
        stroke-miterlimit: 10;
        stroke-width: 1.203px;
        stroke-dasharray: 1.203;
      }

      .cls-6 {
        fill: #ffb34f;
      }

      .cls-8 {
        font-size: 27.687px;
      }
    </style>
  </defs>
  <g id="组_2930" data-name="组 2930" transform="translate(-708.033 -1276.704)">
    <rect id="矩形_565" data-name="矩形 565" class="cls-1" width="203.898" height="206.84" rx="13.181" transform="translate(708.033 1276.704)"/>
    <g id="组_2929" data-name="组 2929">
      <rect id="矩形_566" data-name="矩形 566" class="cls-2" width="144.124" height="9.482" rx="1.58" transform="translate(737.92 1327.889)"/>
      <text id="_3" data-name="3" class="cls-3" transform="translate(834.165 1367.721)"><tspan x="0" y="0">3</tspan></text>
      <text id="_1" data-name="1" class="cls-3" transform="translate(806.018 1388.33)"><tspan x="0" y="0">1</tspan></text>
      <text id="_5" data-name="5" class="cls-4" transform="translate(803.264 1320.686)"><tspan x="0" y="0">5</tspan></text>
      <line id="直线_100" data-name="直线 100" class="cls-5" y2="62.275" transform="translate(798.462 1337.37)"/>
      <rect id="矩形_567" data-name="矩形 567" class="cls-6" width="60.039" height="9.482" rx="1.341" transform="translate(737.92 1363.778)"/>
      <rect id="矩形_568" data-name="矩形 568" class="cls-2" width="86.907" height="9.482" rx="1.613" transform="translate(737.92 1399.645)"/>
      <g id="组_2926" data-name="组 2926">
        <path id="路径_7117" data-name="路径 7117" class="cls-7" d="M737.92,1414.638a1.179,1.179,0,0,1,2.338,0c0,2.885,0,5.376,21.166,5.376,8.588,0,14.621,1.617,17.932,4.807a9.1,9.1,0,0,1,1.318,1.583,8.574,8.574,0,0,1,1.019-1.231c3.4-3.423,10.115-5.159,19.958-5.159,16.291,0,20.155-2.638,21.061-3.772a1.246,1.246,0,0,0,.334-1.216.973.973,0,0,1,.6-1.344,1.252,1.252,0,0,1,1.551.539,2.964,2.964,0,0,1-.471,3.073c-2.343,3.171-10.106,4.78-23.076,4.78-11.3,0-16.1,2.39-18.138,4.4a5.125,5.125,0,0,0-1.669,3.226,3.911,3.911,0,0,1,.006.657,1.118,1.118,0,0,1-1.14.936,1.133,1.133,0,0,1-1.184-.891,3.563,3.563,0,0,1-.02-.676,5.787,5.787,0,0,0-1.93-3.563c-1.971-1.864-6.372-4.085-16.152-4.085C741.186,1422.074,737.92,1419.882,737.92,1414.638Z"/>
      </g>
      <g id="组_2927" data-name="组 2927">
        <path id="路径_7118" data-name="路径 7118" class="cls-7" d="M798.462,1338.445a1.16,1.16,0,0,1,2.234,0c0,2.37,0,4.417,20.215,4.417,8.2,0,13.965,1.329,17.127,3.95a7.778,7.778,0,0,1,1.259,1.3,7.4,7.4,0,0,1,.974-1.012c3.247-2.812,9.66-4.239,19.062-4.239,15.559,0,19.25-2.167,20.115-3.1.51-.55.34-.956.319-1-.25-.428.011-.914.575-1.1a1.294,1.294,0,0,1,1.48.443,2.158,2.158,0,0,1-.449,2.525c-2.238,2.606-9.653,3.927-22.04,3.927-10.794,0-15.379,1.965-17.324,3.613a4.006,4.006,0,0,0-1.594,2.65,2.784,2.784,0,0,1,.005.54,1.036,1.036,0,0,1-1.088.77,1.067,1.067,0,0,1-1.131-.733,2.551,2.551,0,0,1-.02-.555,4.559,4.559,0,0,0-1.843-2.928c-1.882-1.531-6.086-3.357-15.427-3.357C801.582,1344.554,798.462,1342.754,798.462,1338.445Z"/>
      </g>
      <g id="组_2928" data-name="组 2928">
        <path id="路径_7119" data-name="路径 7119" class="cls-7" d="M798.462,1399.081c0,.308.158.557.352.557s.353-.249.353-.557c0-1.561,0-2.909,6.376-2.909,2.588,0,4.406-.875,5.4-2.6a5.3,5.3,0,0,0,.4-.856,5.027,5.027,0,0,0,.307.666c1.024,1.852,3.047,2.791,6.013,2.791,4.908,0,6.072,1.428,6.345,2.042a1.113,1.113,0,0,1,.1.658.7.7,0,0,0,.181.727c.178.125.388-.011.467-.292a2.7,2.7,0,0,0-.142-1.663c-.706-1.716-3.045-2.586-6.952-2.586-3.405,0-4.851-1.294-5.465-2.379a3.934,3.934,0,0,1-.5-1.746c.009-.208,0-.338,0-.355-.016-.282-.164-.5-.343-.507s-.333.2-.357.483a3.6,3.6,0,0,0-.006.365,4.385,4.385,0,0,1-.581,1.928c-.594,1.009-1.92,2.211-4.867,2.211C799.446,1395.058,798.462,1396.244,798.462,1399.081Z"/>
      </g>
      <text id="_" data-name="?" class="cls-8" transform="translate(773.684 1453.502)"><tspan x="0" y="0">?</tspan></text>
    </g>
  </g>
</svg>
