<svg xmlns="http://www.w3.org/2000/svg" width="304.578" height="368.469" viewBox="0 0 304.578 368.469">
  <defs>
    <style>
      .cls-1, .cls-13 {
        fill: #f37366;
      }

      .cls-1, .cls-17 {
        stroke-miterlimit: 10;
      }

      .cls-2 {
        fill: #ccaae6;
      }

      .cls-3 {
        fill: #a86a47;
      }

      .cls-4 {
        fill: #ffd858;
      }

      .cls-5 {
        fill: #ee6457;
      }

      .cls-6 {
        fill: #e35546;
      }

      .cls-7 {
        fill: #f36e3a;
      }

      .cls-8 {
        fill: #f6804e;
      }

      .cls-9 {
        fill: #fa9e49;
      }

      .cls-10 {
        fill: #ffe58f;
      }

      .cls-11 {
        fill: #5266ae;
      }

      .cls-12 {
        fill: #525f9b;
      }

      .cls-14 {
        fill: #e3d8e3;
      }

      .cls-15 {
        fill: #fdb74f;
      }

      .cls-16 {
        fill: #fede81;
      }

      .cls-17 {
        fill: none;
        stroke: #1f8a5d;
      }

      .cls-18 {
        fill: #ebf393;
      }

      .cls-19 {
        fill: #4eb092;
      }

      .cls-20 {
        fill: #f17669;
      }

      .cls-21 {
        fill: #665855;
      }

      .cls-22 {
        fill: #e85c52;
      }

      .cls-23 {
        fill: #e66153;
      }

      .cls-24 {
        fill: #fd8f8b;
      }

      .cls-25 {
        fill: #f28580;
      }

      .cls-26 {
        fill: #f37464;
      }

      .cls-27, .cls-28 {
        isolation: isolate;
      }

      .cls-28, .cls-29 {
        fill: #96420f;
      }

      .cls-28 {
        font-size: 35.966px;
        font-family: TimesNewRomanPS-BoldMT, Times New Roman;
        font-weight: 700;
      }

      .cls-30, .cls-31 {
        stroke: none;
      }

      .cls-31 {
        fill: #fff;
      }
    </style>
  </defs>
  <g id="组_2748" data-name="组 2748" transform="translate(-54.855 -1982.091)">
    <g id="路径_9403" data-name="路径 9403" class="cls-1">
      <path class="cls-30" d="M 233.0674285888672 2345.559814453125 C 233.0663909912109 2345.559814453125 233.0658416748047 2345.559814453125 233.0648040771484 2345.559814453125 C 227.7679138183594 2345.559814453125 222.2925567626953 2345.416748046875 216.7909088134766 2345.134521484375 C 198.0138549804688 2344.167236328125 179.7956085205078 2341.78271484375 162.6410522460938 2338.04736328125 C 148.2326507568359 2334.909912109375 134.472412109375 2330.80224609375 121.7425079345703 2325.83837890625 C 111.0272598266602 2321.656982421875 101.234504699707 2316.961181640625 92.63525390625 2311.880859375 C 86.60890960693359 2308.320556640625 81.19900512695313 2304.533447265625 78.16375732421875 2301.750244140625 C 77.31550598144531 2300.97216796875 76.45035552978516 2300.21240234375 75.53440856933594 2299.40771484375 C 71.70730590820313 2296.046142578125 67.36956024169922 2292.236083984375 64.26080322265625 2286.79052734375 C 60.71130752563477 2280.5732421875 59.32820510864258 2273.2158203125 60.03250503540039 2264.29833984375 C 60.43895721435547 2259.152099609375 61.62930679321289 2254.56396484375 63.57045745849609 2250.660888671875 C 65.19450378417969 2247.3955078125 67.33730316162109 2244.609375 69.939453125 2242.37939453125 C 71.96469879150391 2240.643798828125 73.96651458740234 2239.510986328125 75.59994506835938 2238.78173828125 C 75.60263824462891 2229.406494140625 77.29924774169922 2221.295654296875 78.199462890625 2217.65185546875 C 75.39275360107422 2212.058837890625 73.57240295410156 2205.647216796875 72.90840911865234 2198.974609375 C 72.18995666503906 2191.75439453125 72.84285736083984 2184.51171875 74.79665374755859 2178.029541015625 C 76.1861572265625 2173.41943359375 78.18715667724609 2169.323974609375 80.74415588378906 2165.85693359375 C 83.37380218505859 2162.29150390625 86.52716064453125 2159.47900390625 90.12606048583984 2157.487060546875 C 91.02474975585938 2156.602783203125 91.97647094726563 2155.7666015625 92.96340942382813 2154.9951171875 L 92.99405670166016 2154.97119140625 L 93.02505493164063 2154.947509765625 L 93.03911590576172 2154.93701171875 C 94.69102478027344 2153.6025390625 96.43438720703125 2152.3486328125 98.22195434570313 2151.20947265625 C 101.7310562133789 2148.96337890625 105.4421615600586 2146.969970703125 109.2521057128906 2145.284423828125 L 109.8960037231445 2144.99951171875 L 109.8960037231445 1995.766967773438 C 109.8960037231445 1990.983032226563 113.7880554199219 1987.090942382813 118.5720062255859 1987.090942382813 C 123.3554077148438 1987.090942382813 127.2470092773438 1990.983032226563 127.2470092773438 1995.766967773438 L 127.2470092773438 1995.9365234375 C 127.9114151000977 1995.862426757813 128.5812377929688 1995.824951171875 129.2540130615234 1995.824951171875 L 318.2040100097656 1995.824951171875 C 320.6611633300781 1995.824951171875 323.0474548339844 1996.307250976563 325.2966003417969 1997.258422851563 C 327.4666137695313 1998.17626953125 329.4144592285156 1999.489013671875 331.0859680175781 2001.160522460938 C 332.7575073242188 2002.831909179688 334.0704650878906 2004.77978515625 334.9883117675781 2006.949829101563 C 335.9396667480469 2009.199096679688 336.4219970703125 2011.585571289063 336.4219970703125 2014.04296875 L 336.4219970703125 2104.052978515625 C 336.4219970703125 2106.51025390625 335.9396667480469 2108.89697265625 334.9883117675781 2111.146240234375 C 334.0704650878906 2113.316162109375 332.7575073242188 2115.263916015625 331.0859680175781 2116.935546875 C 329.4144592285156 2118.60693359375 327.4666137695313 2119.919677734375 325.2966003417969 2120.83740234375 C 323.0474548339844 2121.78857421875 320.6611633300781 2122.27099609375 318.2040100097656 2122.27099609375 L 129.2540130615234 2122.27099609375 C 128.5812683105469 2122.27099609375 127.9113845825195 2122.233642578125 127.2470092773438 2122.159423828125 L 127.2470092773438 2139.23974609375 C 129.9326934814453 2138.58740234375 132.6421966552734 2138.0283203125 135.3525543212891 2137.568359375 L 135.7678070068359 2137.498046875 L 135.7720947265625 2137.498046875 C 140.5403442382813 2136.691162109375 145.3959197998047 2136.1259765625 150.2110595703125 2135.817138671875 L 150.2147064208984 2135.81689453125 L 150.2183990478516 2135.816650390625 C 153.8593597412109 2135.588623046875 157.5543060302734 2135.472900390625 161.2005615234375 2135.472900390625 C 165.7955017089844 2135.472900390625 170.4467620849609 2135.656494140625 175.0251007080078 2136.0185546875 L 175.2308044433594 2136.03466796875 L 175.4345092773438 2136.06787109375 C 181.4376068115234 2137.04541015625 186.33154296875 2138.966064453125 190.3612365722656 2141.93017578125 C 192.2434539794922 2142.64892578125 196.4631958007813 2144.61328125 201.7603607177734 2149.269775390625 C 205.6276092529297 2152.669189453125 209.3683624267578 2156.880859375 212.8787078857422 2161.787841796875 C 216.1664581298828 2166.3837890625 219.2667083740234 2171.6142578125 222.1305084228516 2177.392578125 C 222.8895874023438 2176.8671875 223.6506195068359 2176.349609375 224.4103393554688 2175.842529296875 C 227.0839538574219 2174.04541015625 229.8541259765625 2172.29443359375 232.6438140869141 2170.638427734375 C 238.3916015625 2167.2255859375 245.0717620849609 2164.6357421875 252.4981536865234 2162.94140625 C 258.7423706054688 2161.516845703125 265.4457702636719 2160.763916015625 271.8836975097656 2160.763916015625 C 273.1754455566406 2160.763916015625 274.4624633789063 2160.794677734375 275.7090454101563 2160.85498046875 C 277.7982482910156 2160.956298828125 279.8064880371094 2161.139404296875 281.6799621582031 2161.399169921875 C 285.2859802246094 2161.75341796875 288.7395324707031 2162.7900390625 291.9464416503906 2164.4814453125 L 292.1479187011719 2164.587646484375 L 292.3388671875 2164.711669921875 C 299.0918579101563 2169.10107421875 303.9149169921875 2177.6630859375 305.7040100097656 2184.211181640625 C 305.8829040527344 2184.845458984375 306.0346069335938 2185.488037109375 306.1587219238281 2186.135986328125 C 311.2432861328125 2188.638916015625 315.662841796875 2192.298583984375 319.0829467773438 2196.856201171875 C 323.7212829589844 2200.91650390625 327.7524719238281 2206.841064453125 331.0716552734375 2214.47802734375 C 333.5245666503906 2220.111572265625 335.5868530273438 2226.64794921875 337.1999206542969 2233.90234375 C 338.5337524414063 2239.90087890625 339.5353088378906 2246.32666015625 340.0964050292969 2252.4853515625 C 340.1774597167969 2253.37890625 340.2609252929688 2254.33349609375 340.3248901367188 2255.28125 C 340.4776306152344 2256.976318359375 340.5665588378906 2258.72021484375 340.591064453125 2260.4931640625 C 342.1556396484375 2261.452880859375 343.6874694824219 2262.460205078125 345.1686096191406 2263.504150390625 L 345.2235107421875 2263.54296875 L 345.2774047851563 2263.5830078125 C 345.9161682128906 2264.0595703125 346.5301208496094 2264.677490234375 347.1463623046875 2265.46533203125 L 347.5685424804688 2265.8876953125 L 347.7681274414063 2266.31591796875 C 348.9580688476563 2268.05810546875 350.1629943847656 2270.460693359375 351.1922607421875 2273.1513671875 C 352.4164123535156 2276.3515625 353.3477172851563 2279.823486328125 353.8856201171875 2283.192138671875 C 354.9136047363281 2289.63037109375 355.0205688476563 2298.853515625 349.69189453125 2306.22900390625 C 347.8123168945313 2308.83056640625 344.2015991210938 2312.960693359375 337.6739501953125 2317.864013671875 C 331.2701110839844 2322.67431640625 323.6737670898438 2327.00390625 315.0960083007813 2330.732421875 C 304.7633666992188 2335.223876953125 293.1658630371094 2338.754150390625 280.6257629394531 2341.225341796875 C 266.0290832519531 2344.1015625 250.0278778076172 2345.559814453125 233.0674285888672 2345.559814453125 Z"/>
      <path class="cls-31" d="M 233.0650177001953 2340.559814453125 C 304.5244750976563 2340.560546875 337.5151062011719 2314.544677734375 345.6390075683594 2303.301025390625 C 353.5190124511719 2292.39404296875 347.322021484375 2274.177001953125 343.4230041503906 2268.8291015625 L 343.4089965820313 2268.799072265625 C 343.3990173339844 2268.7890625 343.3869934082031 2268.778076171875 343.3770141601563 2268.76806640625 C 342.9840087890625 2268.237060546875 342.6150207519531 2267.8349609375 342.2879943847656 2267.591064453125 C 340.1199951171875 2266.06298828125 337.8789978027344 2264.64501953125 335.5740051269531 2263.3369140625 C 335.6410217285156 2260.781005859375 335.572021484375 2258.221923828125 335.3399963378906 2255.674072265625 C 335.281005859375 2254.7880859375 335.2019958496094 2253.8759765625 335.1170043945313 2252.93896484375 C 334.1329956054688 2242.137939453125 331.5169982910156 2228.02587890625 326.4859924316406 2216.470947265625 C 323.6210021972656 2209.87890625 319.968994140625 2204.123046875 315.3869934082031 2200.27294921875 L 315.3890075683594 2200.27099609375 C 311.8930053710938 2195.449951171875 307.0890197753906 2191.73291015625 301.5450134277344 2189.56103515625 L 301.5220031738281 2189.552978515625 L 301.5480041503906 2189.554931640625 C 301.4779968261719 2188.198974609375 301.2560119628906 2186.85400390625 300.8860168457031 2185.548095703125 C 299.2860107421875 2179.673095703125 294.9909973144531 2172.39892578125 289.614013671875 2168.904052734375 C 286.9670104980469 2167.508056640625 284.072998046875 2166.64599609375 281.093994140625 2166.365966796875 C 279.375 2166.1240234375 277.4859924316406 2165.947021484375 275.4670104980469 2165.84912109375 C 274.313232421875 2165.793212890625 273.1158447265625 2165.763916015625 271.8840026855469 2165.763916015625 C 260.6882934570313 2165.763916015625 246.5795135498047 2168.1787109375 235.1959991455078 2174.93798828125 C 232.5880126953125 2176.486083984375 229.9100036621094 2178.169921875 227.1880035400391 2180 C 225.4620056152344 2181.152099609375 223.7260131835938 2182.360107421875 221.9820098876953 2183.626953125 C 221.3770141601563 2184.06396484375 220.7700042724609 2184.52099609375 220.1640014648438 2184.970947265625 L 220.156005859375 2184.9541015625 C 205.1780090332031 2151.217041015625 187.9960021972656 2146.39892578125 187.9960021972656 2146.39892578125 L 187.9950103759766 2146.412109375 C 184.6500091552734 2143.777099609375 180.3860015869141 2141.93994140625 174.6310119628906 2141.0029296875 C 170.1614379882813 2140.6494140625 165.6808471679688 2140.472900390625 161.2003631591797 2140.472900390625 C 157.6422729492188 2140.472900390625 154.0844116210938 2140.584228515625 150.531005859375 2140.806884765625 C 145.7260131835938 2141.114990234375 140.9410095214844 2141.679931640625 136.1959991455078 2142.498046875 L 136.1890106201172 2142.498046875 C 131.4869995117188 2143.2958984375 126.8420028686523 2144.39111328125 122.2790069580078 2145.777099609375 L 122.2730102539063 2145.777099609375 L 122.2470092773438 2145.785888671875 L 122.2470092773438 2115.2470703125 C 124.2800064086914 2116.52197265625 126.6770095825195 2117.27099609375 129.2540130615234 2117.27099609375 L 318.2040100097656 2117.27099609375 C 325.5039978027344 2117.27099609375 331.4219970703125 2111.35400390625 331.4219970703125 2104.052978515625 L 331.4219970703125 2014.04296875 C 331.4219970703125 2006.741943359375 325.5039978027344 2000.824951171875 318.2040100097656 2000.824951171875 L 129.2540130615234 2000.824951171875 C 126.6770095825195 2000.824951171875 124.2800064086914 2001.573974609375 122.2470092773438 2002.848999023438 L 122.2470092773438 1995.766967773438 C 122.2470092773438 1993.737060546875 120.6020050048828 1992.090942382813 118.5720062255859 1992.090942382813 C 116.5420074462891 1992.090942382813 114.8960037231445 1993.737060546875 114.8960037231445 1995.766967773438 L 114.8960037231445 2148.35400390625 C 113.6830062866211 2148.8330078125 112.4750061035156 2149.327880859375 111.2830047607422 2149.85693359375 L 111.2750091552734 2149.85693359375 C 107.6830062866211 2151.446044921875 104.2170028686523 2153.30810546875 100.9090042114258 2155.426025390625 C 99.24900817871094 2156.48388671875 97.65000915527344 2157.635986328125 96.12100982666016 2158.875 L 96.04300689697266 2158.93408203125 C 95.02000427246094 2159.73388671875 94.05400848388672 2160.60400390625 93.15100860595703 2161.537109375 L 93.14100646972656 2161.544921875 C 76.6300048828125 2170.0380859375 73.0780029296875 2198.35888671875 83.53600311279297 2217.0458984375 C 84.46600341796875 2218.70703125 85.11000823974609 2220.3720703125 85.55300903320313 2222.033935546875 C 84.82200622558594 2220.416015625 84.13401031494141 2218.762939453125 83.53300476074219 2217.0458984375 C 83.53300476074219 2217.0458984375 79.96800994873047 2229.02490234375 80.69900512695313 2242.533935546875 L 80.19900512695313 2242.47412109375 C 80.19900512695313 2242.47412109375 66.57700347900391 2244.93994140625 65.01700592041016 2264.69189453125 C 63.45700836181641 2284.444091796875 73.39100646972656 2290.589111328125 81.54300689697266 2298.06494140625 C 85.74700927734375 2301.919921875 99.69500732421875 2311.867919921875 123.5590057373047 2321.179931640625 C 145.9470062255859 2329.909912109375 177.0640106201172 2338.0810546875 217.0470123291016 2340.14111328125 C 222.5877532958984 2340.42529296875 227.9270477294922 2340.559814453125 233.0650177001953 2340.559814453125 M 253.6860046386719 2198.85791015625 C 238.5450134277344 2205.93896484375 219.8150024414063 2217.658935546875 197.5020141601563 2236.802978515625 C 202.3720092773438 2232.4541015625 208.1170043945313 2227.60205078125 214.5510101318359 2222.697998046875 C 217.4110107421875 2220.514892578125 220.4010009765625 2218.322998046875 223.5090026855469 2216.173095703125 C 232.7210083007813 2209.76806640625 242.9440002441406 2203.64892578125 253.6860046386719 2198.85791015625 M 208.4100036621094 2194.3740234375 L 208.4670104980469 2194.464111328125 L 208.4350128173828 2194.491943359375 L 208.4309997558594 2194.466064453125 C 208.4250030517578 2194.43505859375 208.4170074462891 2194.405029296875 208.4100036621094 2194.3740234375 M 233.0673675537109 2350.559814453125 L 233.0672149658203 2350.559814453125 C 227.7626495361328 2350.559814453125 222.2525787353516 2350.421142578125 216.5347137451172 2350.1279296875 C 181.1614379882813 2348.305419921875 148.6583709716797 2341.70068359375 119.9260101318359 2330.49658203125 C 97.04036712646484 2321.56640625 81.30564880371094 2311.4150390625 74.78450775146484 2305.435302734375 L 72.23458099365234 2303.164306640625 C 64.22836303710938 2296.1318359375 53.26343536376953 2286.50048828125 55.04807662963867 2263.904541015625 C 56.27097702026367 2248.4208984375 63.66701889038086 2239.821044921875 70.66184234619141 2235.65576171875 C 70.93422698974609 2228.396240234375 72.07016754150391 2222.097412109375 72.93218994140625 2218.230712890625 C 67.12373352050781 2205.56787109375 65.96999359130859 2189.98828125 70.00936126708984 2176.58642578125 C 73.12959289550781 2166.234375 79.16600036621094 2158.0869140625 87.10078430175781 2153.45654296875 C 87.99224090576172 2152.60986328125 88.91941070556641 2151.81005859375 89.88386535644531 2151.055908203125 C 91.64850616455078 2149.628173828125 93.55536651611328 2148.25439453125 95.53486633300781 2146.992919921875 C 98.52611541748047 2145.07763671875 101.6688766479492 2143.329833984375 104.8960037231445 2141.785888671875 L 104.8960037231445 1995.766967773438 C 104.8960037231445 1988.225952148438 111.031005859375 1982.090942382813 118.5720062255859 1982.090942382813 C 124.3709182739258 1982.090942382813 129.3382415771484 1985.718994140625 131.3234558105469 1990.824951171875 L 318.2040100097656 1990.824951171875 C 331.0064392089844 1990.824951171875 341.4219970703125 2001.240478515625 341.4219970703125 2014.04296875 L 341.4219970703125 2104.052978515625 C 341.4219970703125 2116.85546875 331.0064392089844 2127.27099609375 318.2040100097656 2127.27099609375 L 132.2470092773438 2127.27099609375 L 132.2470092773438 2133.04638671875 C 133.0039520263672 2132.90283203125 133.7599029541016 2132.767333984375 134.5160827636719 2132.638916015625 C 139.5792236328125 2131.767333984375 144.760009765625 2131.156494140625 149.8910064697266 2130.827392578125 C 153.6673583984375 2130.5908203125 157.4337158203125 2130.472900390625 161.2003631591797 2130.472900390625 C 165.9438629150391 2130.472900390625 170.6873626708984 2130.659912109375 175.4192962646484 2131.0341796875 C 182.8438415527344 2132.211181640625 188.4151153564453 2134.369384765625 193.0402526855469 2137.696044921875 C 201.0092620849609 2140.78857421875 213.0066223144531 2150.10595703125 223.9853363037109 2170.130615234375 C 226.045654296875 2168.79296875 228.0882415771484 2167.528076171875 230.0916442871094 2166.3388671875 C 241.4095764160156 2159.61865234375 256.6427917480469 2155.763916015625 271.8840026855469 2155.763916015625 C 273.2822875976563 2155.763916015625 274.6415100097656 2155.79736328125 275.9511413574219 2155.86083984375 C 278.2967834472656 2155.974609375 280.4908752441406 2156.1826171875 282.4876403808594 2156.463623046875 C 286.3338623046875 2156.814453125 290.4548645019531 2158.0419921875 294.2787170410156 2160.05859375 C 303.4192810058594 2165.95068359375 308.5953674316406 2175.89501953125 310.5045166015625 2182.810791015625 C 315.3211975097656 2185.54296875 319.4415283203125 2189.126220703125 322.7599182128906 2193.431396484375 C 327.7955627441406 2197.968017578125 332.1309814453125 2204.371337890625 335.6572875976563 2212.485107421875 C 342.294921875 2227.72998046875 344.4552307128906 2245.219970703125 345.0758056640625 2252.03173828125 L 345.3179321289063 2255.009765625 C 345.3980712890625 2255.879150390625 345.4608459472656 2256.775390625 345.5065002441406 2257.689453125 C 346.3634338378906 2258.250732421875 347.2111511230469 2258.82666015625 348.049072265625 2259.41748046875 C 349.1524963378906 2260.236572265625 350.045654296875 2261.1005859375 350.8828125 2262.1318359375 L 351.6937866210938 2262.942626953125 L 352.1080322265625 2263.810302734375 C 358.0019836425781 2272.7353515625 364.3106384277344 2294.53271484375 353.744873046875 2309.1572265625 C 350.6827087402344 2313.395263671875 321.2831420898438 2350.559814453125 233.0673675537109 2350.559814453125 Z"/>
    </g>
    <rect id="矩形_457" data-name="矩形 457" class="cls-2" width="215.386" height="116.447" rx="13.218" transform="translate(116.036 2000.825)"/>
    <path id="路径_6223" data-name="路径 6223" class="cls-3" d="M122.247,1995.767V2219.76H114.9V1995.767a3.676,3.676,0,0,1,3.676-3.676h0A3.675,3.675,0,0,1,122.247,1995.767Z"/>
    <path id="路径_6224" data-name="路径 6224" class="cls-4" d="M188,2146.4s17.182,4.818,32.16,38.555-9.239,13.34-9.239,13.34S185.844,2160.392,188,2146.4Z"/>
    <path id="路径_6225" data-name="路径 6225" class="cls-5" d="M213.254,2214.446l-42.413,47.1-55.277-24.585-9.469-4.211s-25.038-62.529-12.944-71.218a28.17,28.17,0,0,1,2.892-2.6l.078-.059a52.156,52.156,0,0,1,4.788-3.45,77.113,77.113,0,0,1,10.366-5.568h.008a94.277,94.277,0,0,1,10.99-4.08h.006a112.766,112.766,0,0,1,13.91-3.279h.007a135.339,135.339,0,0,1,14.335-1.691,170.5,170.5,0,0,1,24.1.2c19.2,3.127,21.874,16.186,28.8,35.943a117.635,117.635,0,0,1,5,17.52A111.892,111.892,0,0,0,213.254,2214.446Z"/>
    <path id="路径_6226" data-name="路径 6226" class="cls-6" d="M213.057,2214.476l-42.413,45.09-55.275-24.584c-1.732-8.269-1.777-14.992,1.429-17.687a28.131,28.131,0,0,1,2.682-2.82l.078-.059a51.4,51.4,0,0,1,4.506-3.8,76.674,76.674,0,0,1,9.916-6.34h.006a94.171,94.171,0,0,1,10.65-4.912h.007a111.927,111.927,0,0,1,13.62-4.328h.006a133.34,133.34,0,0,1,14.16-2.775,170.567,170.567,0,0,1,24.046-1.639,95.916,95.916,0,0,1,11.426.749A223.612,223.612,0,0,1,213.057,2214.476Z"/>
    <path id="路径_6227" data-name="路径 6227" class="cls-7" d="M345.639,2303.3c-8.708,12.053-45.99,41.078-128.592,36.841-39.983-2.06-71.1-10.231-93.488-18.96-23.863-9.313-37.812-19.26-42.016-23.116-8.152-7.476-18.086-13.621-16.526-33.373S80.2,2242.474,80.2,2242.474l109.993,13.358,69.107,2.984,73.841,3.194a81.152,81.152,0,0,1,9.148,5.581C345.863,2270.262,354.348,2291.246,345.639,2303.3Z"/>
    <path id="路径_6228" data-name="路径 6228" class="cls-8" d="M345.639,2303.3c-8.708,12.053-45.99,41.078-128.592,36.841-39.983-2.06-71.1-10.231-93.488-18.96-.682-.538-18.683-14.61-12.441-13.628,6.36,1.005,18.087.335,9.32-3.823s-7.851-7.953-7.851-7.953L259.3,2258.816l73.841,3.194a81.152,81.152,0,0,1,9.148,5.581C345.863,2270.262,354.348,2291.246,345.639,2303.3Z"/>
    <path id="路径_6229" data-name="路径 6229" class="cls-9" d="M80.354,2243.164s-13.32,6-7.632,18.39,34.045,40.854,88.74,49.56,121,10.492,164.084-14.511c20.315-11.832,20.014-23.684,17.863-27.8-3.658-3.953-20.82-12.24-20.82-12.24l-140.143-.783Z"/>
    <path id="路径_6230" data-name="路径 6230" class="cls-4" d="M315.389,2200.271s-30.481,46.547-54.8,75.794-94.878-.223-143.328-10.715-23.259-29.614-33.72-48.3-6.905-47.02,9.615-55.506c-2.729,2.905-3.765,28.094,9.155,48.376a55.654,55.654,0,0,0,8.216,10.146v.006s3.916,3.2,10.08,7.5c10.828,7.56,28.592,18.5,44.273,21.444,4.347.813,9.541,1.744,16.007,2.833,80.372-76.47,120.663-62.28,120.663-62.28A31.125,31.125,0,0,1,315.389,2200.271Z"/>
    <path id="路径_6231" data-name="路径 6231" class="cls-10" d="M144.948,2267.914c-2.126,2.013-14.178-5.915-14.178-5.915l-28.461-52.08a55.719,55.719,0,0,0,8.217,10.146v.006s3.915,3.2,10.08,7.495C127.736,2238.889,143.9,2264.707,144.948,2267.914Z"/>
    <path id="路径_6232" data-name="路径 6232" class="cls-11" d="M335.37,2267.246l-1.516,2.007c-.793,1.037-1.592,2.066-2.432,3.089-8.368,10.25-20.053,19.615-59.512,27.648H271.9c-1.547.314-3.134.63-4.774.944l-.741.138a290.8,290.8,0,0,1-76.2,3.082q-2.117-.2-4.191-.434a241.347,241.347,0,0,1-24.049-3.954c-1.115-.248-2.209-.5-3.3-.753a196.956,196.956,0,0,1-38.461-13.1q-2.16-1-4.191-2.026a121.223,121.223,0,0,1-20.489-12.742c-1.011-.788-1.955-1.575-2.84-2.342a40.019,40.019,0,0,1-8.119-9.037,43.78,43.78,0,0,1-3.081-10.334c-2.807-16.041,2.065-32.389,2.065-32.389,12.177,34.8,52.364,48.8,73.46,54.331s31.144,4.853,38.219-3.5c55.467-76.326,102.093-71.847,120.173-67.61,4.583,3.849,8.236,9.607,11.1,16.2,5.031,11.555,7.647,25.667,8.631,36.468.085.937.164,1.849.223,2.735A65.578,65.578,0,0,1,335.37,2267.246Z"/>
    <path id="路径_6233" data-name="路径 6233" class="cls-12" d="M335.37,2267.246l-1.516,2.007c-.793,1.037-1.592,2.066-2.432,3.089-8.368,10.25-20.053,19.615-59.512,27.648H271.9c-1.547.314-3.134.63-4.774.944l-.741.138a290.8,290.8,0,0,1-76.2,3.082q-2.117-.2-4.191-.434a241.347,241.347,0,0,1-24.049-3.954c-1.115-.248-2.209-.5-3.3-.753a196.956,196.956,0,0,1-38.461-13.1q-2.16-1-4.191-2.026a121.223,121.223,0,0,1-20.489-12.742c-1.011-.788-1.955-1.575-2.84-2.342a40.019,40.019,0,0,1-8.119-9.037,43.78,43.78,0,0,1-3.081-10.334l.006-.007s83.506,83.841,253.642,6.348c.073-.033.152-.066.224-.1A65.614,65.614,0,0,1,335.37,2267.246Z"/>
    <path id="路径_6234" data-name="路径 6234" class="cls-13" d="M301.548,2189.555a80.107,80.107,0,0,0-27.51,2.2q-3.561.875-7.089,2.006c-15.569,4.971-30.5,13.418-43.44,22.415-3.108,2.151-6.1,4.342-8.958,6.525-7.58,5.778-14.216,11.49-19.574,16.382h-.007c-7.528,6.878-12.519,12.144-14.021,13.712-15.339,1.358-1.757-21.517-1.757-21.517,9.522-19.371,26.414-35.811,42.79-47.648q2.616-1.9,5.206-3.627c2.722-1.83,5.4-3.514,8.008-5.062,12.636-7.5,28.631-9.653,40.271-9.089,2.019.1,3.908.275,5.627.517a22.832,22.832,0,0,1,8.52,2.538c5.377,3.5,9.672,10.769,11.272,16.644A18.141,18.141,0,0,1,301.548,2189.555Z"/>
    <ellipse id="椭圆_816" data-name="椭圆 816" class="cls-14" cx="15.594" cy="23.497" rx="15.594" ry="23.497" transform="translate(225.979 2245.675) rotate(-27.181)"/>
    <ellipse id="椭圆_817" data-name="椭圆 817" class="cls-15" cx="12.413" cy="19.068" rx="12.413" ry="19.068" transform="translate(231.561 2248.292) rotate(-27.181)"/>
    <ellipse id="椭圆_818" data-name="椭圆 818" class="cls-16" cx="2.848" cy="5.435" rx="2.848" ry="5.435" transform="translate(250.509 2248.958) rotate(-30)"/>
    <path id="路径_6235" data-name="路径 6235" class="cls-14" d="M335.12,2252.936a8.95,8.95,0,0,1-2.88,1.371c-6.925,1.868-14.82-5.076-17.634-15.509s.519-20.408,7.44-22.277a9.078,9.078,0,0,1,4.44-.053C331.52,2228.023,334.136,2242.135,335.12,2252.936Z"/>
    <path id="路径_6236" data-name="路径 6236" class="cls-15" d="M331.85,2250.978c-5.511,1.486-11.832-4.174-14.115-12.641s.334-16.537,5.846-18.024a13.306,13.306,0,0,1,4.276-.5c1.6.25,10.791,21.071,6.948,30C334.56,2250.475,331.85,2250.978,331.85,2250.978Z"/>
    <ellipse id="椭圆_819" data-name="椭圆 819" class="cls-16" cx="2.709" cy="5.908" rx="2.709" ry="5.908" transform="translate(324.873 2225.429) rotate(-14.426)"/>
    <path id="路径_6237" data-name="路径 6237" class="cls-17" d="M308.468,2213"/>
    <path id="路径_6238" data-name="路径 6238" class="cls-18" d="M176.415,2291.227c-7.614-1.391-14.834,1.974-17.76,7.785,1.09.255,2.184.505,3.3.753a241.4,241.4,0,0,0,24.054,3.954q2.075.24,4.19.433C189.216,2297.948,183.772,2292.566,176.415,2291.227Z"/>
    <path id="路径_6239" data-name="路径 6239" class="cls-19" d="M186,2303.719a241.158,241.158,0,0,1-24.054-3.953c2.479-3.679,7.758-5.678,13.345-4.656C180.678,2296.1,184.8,2299.6,186,2303.719Z"/>
    <path id="路径_6240" data-name="路径 6240" class="cls-18" d="M112.3,2268.439c-6.44-4.269-14.394-3.908-19.627.367a119.667,119.667,0,0,0,27.516,17.109A17.536,17.536,0,0,0,112.3,2268.439Z"/>
    <path id="路径_6241" data-name="路径 6241" class="cls-19" d="M116,2283.889a121.187,121.187,0,0,1-20.49-12.741c3.855-2.748,9.528-2.748,14.21.426A13.874,13.874,0,0,1,116,2283.889Z"/>
    <path id="路径_6242" data-name="路径 6242" class="cls-20" d="M333.854,2269.252c-.793,1.036-1.592,2.066-2.432,3.088-8.368,10.251-20.054,19.616-59.512,27.648H271.9c-1.547.315-3.135.63-4.774.945,0,0-3.141-32.4,32.855-43.117C320.628,2251.67,329.789,2260.556,333.854,2269.252Z"/>
    <path id="路径_6243" data-name="路径 6243" class="cls-21" d="M331.422,2272.34c-.892,1.1-1.823,2.178-2.826,3.254v.006a53.154,53.154,0,0,1-4.69,4.459.017.017,0,0,1-.013.007l-1.409,1.134c-1.043.806-2.16,1.614-3.371,2.407-1.475.977-3.088,1.941-4.86,2.9l-1.33.7c-1.424.727-2.945,1.456-4.578,2.16-.021.012-.043.023-.065.033l-.079.033c-1.548.676-3.188,1.344-4.944,2.007l-.034.013-1.567.577c-1.587.577-3.252,1.141-5.01,1.705l-.367.111q-2.086.669-4.361,1.32l-.375.111-1.764.492c-1.3.36-2.64.714-4.026,1.068-1.633.42-3.331.84-5.1,1.247l-.033.006-2.033.473q-3.207.72-6.682,1.429H271.9a39.781,39.781,0,0,1,4.65-19.267c.472-.879,1-1.77,1.573-2.649a34.457,34.457,0,0,1,8.1-8.64c.519-.393,1.05-.78,1.607-1.147v-.007a39.19,39.19,0,0,1,4.906-2.8,43.005,43.005,0,0,1,4.911-2c.3-.106.6-.2.912-.3.288-.092.57-.177.852-.269a55.345,55.345,0,0,1,5.4-1.363,42.093,42.093,0,0,1,4.427-.65c.518-.046,1.016-.085,1.508-.1a28.963,28.963,0,0,1,5.555.217,22.811,22.811,0,0,1,3.449.754c.6.183,1.181.386,1.724.609a17.946,17.946,0,0,1,5.72,3.66.03.03,0,0,1,.006.013A17.394,17.394,0,0,1,331.422,2272.34Z"/>
    <path id="路径_6244" data-name="路径 6244" class="cls-20" d="M285.753,2296.834l-5.1,1.246-.033.006-2.5-20.013a34.5,34.5,0,0,1,4.5-5.52Z"/>
    <path id="路径_6245" data-name="路径 6245" class="cls-22" d="M280.625,2298.086l-2.033.473-2.04-17.838c.471-.878,1-1.77,1.573-2.648Z"/>
    <path id="路径_6246" data-name="路径 6246" class="cls-20" d="M296.646,2293.733l-.368.11-4.36,1.32-.375.112-3.711-26.992v-.007a39.178,39.178,0,0,1,4.9-2.8Z"/>
    <path id="路径_6247" data-name="路径 6247" class="cls-22" d="M291.543,2295.274l-1.764.492-3.554-26.337c.518-.393,1.05-.78,1.607-1.147Z"/>
    <path id="路径_6248" data-name="路径 6248" class="cls-20" d="M308.345,2289.365v.006l-.065.026-.079.034-4.944,2.006-.034.013-3.81-28.546a55.646,55.646,0,0,1,5.4-1.364Z"/>
    <path id="路径_6249" data-name="路径 6249" class="cls-22" d="M303.228,2291.45l-1.568.578-4.006-28.553c.3-.106.6-.2.912-.3.288-.091.57-.176.852-.268Z"/>
    <path id="路径_6250" data-name="路径 6250" class="cls-20" d="M319.113,2283.607c-1.476.977-3.088,1.941-4.86,2.9l-3.5-25.719a28.988,28.988,0,0,1,5.555.217S318.851,2280.866,319.113,2283.607Z"/>
    <path id="路径_6251" data-name="路径 6251" class="cls-22" d="M314.253,2286.5l-1.331.7-3.679-26.31c.519-.047,1.017-.085,1.509-.105Z"/>
    <path id="路径_6252" data-name="路径 6252" class="cls-20" d="M328.6,2275.594v.006a53.154,53.154,0,0,1-4.69,4.459.017.017,0,0,1-.013.007l-2.413-17.7a17.94,17.94,0,0,1,5.719,3.66.018.018,0,0,1,.006.013S328.228,2272.656,328.6,2275.594Z"/>
    <path id="路径_6253" data-name="路径 6253" class="cls-22" d="M323.893,2280.066l-1.409,1.134-2.729-19.44c.6.184,1.181.386,1.725.61Z"/>
    <path id="路径_6254" data-name="路径 6254" class="cls-23" d="M301.548,2189.555a80.107,80.107,0,0,0-27.51,2.2q-3.561.875-7.089,2.006c-15.569,4.971-30.5,13.418-43.44,22.408v.007c-.774.538-1.547,1.08-2.307,1.62s-1.516,1.089-2.264,1.632-1.488,1.09-2.216,1.633-1.456,1.1-2.171,1.64c-7.58,5.778-14.216,11.49-19.574,16.382a213.551,213.551,0,0,1,20.676-22.159c2.657-2.493,5.52-5.05,8.551-7.588,12.946-10.847,29.018-21.431,45.748-25.4a63.594,63.594,0,0,1,6.6-1.207,48.828,48.828,0,0,1,24.336,2.82A18.2,18.2,0,0,1,301.548,2189.555Z"/>
    <path id="路径_6255" data-name="路径 6255" class="cls-24" d="M227.179,2180.006l-2.985,29.333c-3.036,2.538-5.894,5.095-8.551,7.588l6.329-33.294Q224.589,2181.727,227.179,2180.006Z"/>
    <path id="路径_6256" data-name="路径 6256" class="cls-25" d="M224.194,2209.333l-.694,6.833v.007c-.774.538-1.547,1.08-2.308,1.62s-1.515,1.089-2.263,1.632-1.488,1.09-2.217,1.633-1.455,1.1-2.17,1.64l1.1-5.777C218.3,2214.428,221.158,2211.871,224.194,2209.333Z"/>
    <path id="路径_6257" data-name="路径 6257" class="cls-24" d="M281.084,2166.366l-4.544,16.362a63.594,63.594,0,0,0-6.6,1.207l5.52-18.086C277.477,2165.947,279.366,2166.124,281.084,2166.366Z"/>
    <path id="路径_6258" data-name="路径 6258" class="cls-25" d="M276.54,2182.728l-2.506,9.024q-3.561.875-7.088,2.006l3-9.823A63.48,63.48,0,0,1,276.54,2182.728Z"/>
    <ellipse id="椭圆_820" data-name="椭圆 820" class="cls-10" cx="6.865" cy="3.202" rx="6.865" ry="3.202" transform="translate(170.894 2265.475)"/>
    <path id="路径_6259" data-name="路径 6259" class="cls-26" d="M98.36,2158.12a1.688,1.688,0,0,0,.6,3.032c8.454,1.814,33.077,3.854,76.348-17.694C180.282,2140.75,128.388,2136.786,98.36,2158.12Z"/>
    <g id="组_2747" data-name="组 2747">
      <g id="_5" data-name=" 5" class="cls-27">
        <text id="_5-2" data-name="5" class="cls-28" transform="translate(271.783 2039.401)"><tspan x="0" y="0">5</tspan></text>
      </g>
      <g id="_" data-name=" " class="cls-27">
        <text id="_2" data-name="?" class="cls-28" transform="translate(164.354 2039.401)"><tspan x="0" y="0">?</tspan></text>
      </g>
      <g id="_8" data-name=" 8" class="cls-27">
        <text id="_8-2" data-name="8" class="cls-28" transform="translate(217.811 2104.945)"><tspan x="0" y="0">8</tspan></text>
      </g>
      <g id="组_2746" data-name="组 2746">
        <path id="路径_6260" data-name="路径 6260" class="cls-29" d="M171.247,2047.965a1.531,1.531,0,1,1,3.051-.256,1.369,1.369,0,0,1,0,.256c0,4.668,0,8.7,27.616,8.7,11.207,0,19.08,2.618,23.4,7.78a14.477,14.477,0,0,1,1.72,2.563,13.7,13.7,0,0,1,1.329-1.993c4.44-5.539,13.2-8.35,26.04-8.35,21.255,0,26.3-4.269,27.48-6.1a2.39,2.39,0,0,0,.436-1.969,1.706,1.706,0,0,1,.785-2.175,1.5,1.5,0,0,1,1.98.763c.015.036.03.073.043.11a5.759,5.759,0,0,1-.614,4.973C281.456,2057.4,271.327,2060,254.4,2060c-14.746,0-21.009,3.869-23.667,7.115a9.194,9.194,0,0,0-2.176,5.221,7.856,7.856,0,0,1,.006,1.063,1.517,1.517,0,0,1-3.032.072,7,7,0,0,1-.026-1.093,10.3,10.3,0,0,0-2.52-5.76c-2.571-3.017-8.315-6.612-21.076-6.612C175.508,2060,171.247,2056.452,171.247,2047.965Z"/>
      </g>
    </g>
  </g>
</svg>
