<svg xmlns="http://www.w3.org/2000/svg" width="218.047" height="266.989" viewBox="0 0 218.047 266.989">
  <defs>
    <style>
      .cls-1 {
        fill: #ffe5a3;
      }

      .cls-2 {
        fill: #a86a47;
      }

      .cls-3 {
        fill: #ffd858;
      }

      .cls-4 {
        fill: #ee6457;
      }

      .cls-5 {
        fill: #e35546;
      }

      .cls-6 {
        fill: #f36e3a;
      }

      .cls-7 {
        fill: #f6804e;
      }

      .cls-8 {
        fill: #fa9e49;
      }

      .cls-9 {
        fill: #ffe58f;
      }

      .cls-10 {
        fill: #5266ae;
      }

      .cls-11 {
        fill: #525f9b;
      }

      .cls-12 {
        fill: #f37366;
      }

      .cls-13 {
        fill: #e3d8e3;
      }

      .cls-14 {
        fill: #fdb74f;
      }

      .cls-15 {
        fill: #fede81;
      }

      .cls-16, .cls-30 {
        fill: none;
        stroke-miterlimit: 10;
      }

      .cls-16 {
        stroke: #1f8a5d;
        stroke-width: 0.919px;
      }

      .cls-17 {
        fill: #ebf393;
      }

      .cls-18 {
        fill: #4eb092;
      }

      .cls-19 {
        fill: #f17669;
      }

      .cls-20 {
        fill: #665855;
      }

      .cls-21 {
        fill: #e85c52;
      }

      .cls-22 {
        fill: #e66153;
      }

      .cls-23 {
        fill: #fd8f8b;
      }

      .cls-24 {
        fill: #f28580;
      }

      .cls-25 {
        fill: #f37464;
      }

      .cls-26 {
        fill: #ff92ab;
      }

      .cls-27 {
        fill: #d95271;
      }

      .cls-28 {
        fill: #fff;
      }

      .cls-28, .cls-29 {
        font-size: 13.456px;
        font-family: TimesNewRomanPS-BoldMT, Times New Roman;
        font-weight: 700;
      }

      .cls-29, .cls-31 {
        fill: #96420f;
      }

      .cls-30 {
        stroke: #96420f;
        stroke-width: 1.839px;
      }
    </style>
  </defs>
  <g id="组_2799" data-name="组 2799" transform="translate(-793.182 1761.389)">
    <rect id="矩形_480" data-name="矩形 480" class="cls-1" width="165.026" height="89.22" rx="10.127" transform="translate(832.397 -1754.697)"/>
    <path id="路径_6729" data-name="路径 6729" class="cls-2" d="M837.156-1758.573v171.621h-5.633v-171.621a2.816,2.816,0,0,1,2.816-2.816h0A2.817,2.817,0,0,1,837.156-1758.573Z"/>
    <path id="路径_6730" data-name="路径 6730" class="cls-3" d="M887.531-1643.16s13.165,3.692,24.64,29.54-7.083,10.222-7.083,10.222S885.882-1632.439,887.531-1643.16Z"/>
    <path id="路径_6731" data-name="路径 6731" class="cls-4" d="M906.884-1591.021l-32.5,36.091-42.351-18.837-7.256-3.226s-19.183-47.909-9.918-54.566a21.491,21.491,0,0,1,2.216-1.995l.06-.045a40.268,40.268,0,0,1,3.668-2.643,58.841,58.841,0,0,1,7.944-4.266h.005a71.943,71.943,0,0,1,8.421-3.13h.005a86.15,86.15,0,0,1,10.657-2.512h.005a103.479,103.479,0,0,1,10.983-1.3,130.512,130.512,0,0,1,18.466.151c14.711,2.4,16.76,12.4,22.067,27.539a89.906,89.906,0,0,1,3.831,13.428A85.732,85.732,0,0,0,906.884-1591.021Z"/>
    <path id="路径_6732" data-name="路径 6732" class="cls-5" d="M906.734-1591l-32.5,34.551-42.352-18.837c-1.326-6.336-1.362-11.486,1.095-13.551a21.739,21.739,0,0,1,2.055-2.161l.061-.045a38.964,38.964,0,0,1,3.452-2.914,58.5,58.5,0,0,1,7.6-4.859h.005a72.153,72.153,0,0,1,8.159-3.763h.005a85.783,85.783,0,0,1,10.436-3.317h.005a102.3,102.3,0,0,1,10.853-2.125,130.61,130.61,0,0,1,18.425-1.256,73.548,73.548,0,0,1,8.754.573A171.511,171.511,0,0,1,906.734-1591Z"/>
    <path id="路径_6733" data-name="路径 6733" class="cls-6" d="M1008.316-1522.944c-6.673,9.235-35.237,31.473-98.526,28.222-30.634-1.577-54.476-7.838-71.629-14.531-18.285-7.134-28.972-14.757-32.192-17.711-6.246-5.728-13.858-10.436-12.662-25.57s11.632-17.023,11.632-17.023l84.276,10.235,52.948,2.286,56.576,2.447a62.21,62.21,0,0,1,7.009,4.276C1008.487-1548.258,1014.988-1532.179,1008.316-1522.944Z"/>
    <path id="路径_6734" data-name="路径 6734" class="cls-7" d="M1008.316-1522.944c-6.673,9.235-35.237,31.473-98.526,28.222-30.634-1.577-54.476-7.838-71.629-14.531-.523-.412-14.315-11.194-9.532-10.44,4.874.768,13.858.256,7.14-2.93s-6.014-6.095-6.014-6.095l112.408-28.318,56.576,2.447a62.21,62.21,0,0,1,7.009,4.276C1008.487-1548.258,1014.988-1532.179,1008.316-1522.944Z"/>
    <path id="路径_6735" data-name="路径 6735" class="cls-8" d="M805.058-1569.02s-10.21,4.6-5.848,14.09,26.085,31.3,67.991,37.973,92.708,8.039,125.72-11.118c15.565-9.066,15.334-18.147,13.686-21.3-2.8-3.029-15.952-9.379-15.952-9.379l-107.375-.6Z"/>
    <path id="路径_6736" data-name="路径 6736" class="cls-3" d="M985.138-1601.884s-23.349,35.664-41.99,58.073-72.7-.171-109.816-8.21-17.822-22.691-25.836-37.011-5.291-36.026,7.366-42.527c-2.09,2.226-2.884,21.525,7.014,37.066a42.71,42.71,0,0,0,6.3,7.772v.006s3,2.451,7.723,5.743c8.295,5.788,21.906,14.174,33.92,16.43,3.331.623,7.311,1.336,12.265,2.17,61.58-58.591,92.451-47.723,92.451-47.723A23.856,23.856,0,0,1,985.138-1601.884Z"/>
    <path id="路径_6737" data-name="路径 6737" class="cls-9" d="M854.546-1550.057c-1.628,1.543-10.863-4.532-10.863-4.532l-21.807-39.9a42.71,42.71,0,0,0,6.3,7.772v.006s3,2.451,7.723,5.743C841.361-1572.3,853.747-1552.514,854.546-1550.057Z"/>
    <path id="路径_6738" data-name="路径 6738" class="cls-10" d="M1000.447-1550.569l-1.16,1.537c-.608.794-1.221,1.583-1.864,2.367-6.412,7.853-15.365,15.028-45.6,21.183h-.005c-1.186.241-2.4.483-3.658.724l-.567.105a222.809,222.809,0,0,1-58.38,2.362q-1.622-.151-3.211-.332a184.7,184.7,0,0,1-18.43-3.03c-.854-.19-1.693-.381-2.527-.577a150.971,150.971,0,0,1-29.469-10.034q-1.65-.769-3.211-1.553a92.783,92.783,0,0,1-15.7-9.763c-.774-.6-1.5-1.205-2.176-1.793a30.7,30.7,0,0,1-6.22-6.924,33.6,33.6,0,0,1-2.362-7.919c-2.15-12.29,1.583-24.816,1.583-24.816,9.331,26.66,40.121,37.393,56.285,41.628s23.861,3.718,29.283-2.678c42.5-58.48,78.221-55.048,92.074-51.8,3.512,2.949,6.311,7.36,8.506,12.41,3.854,8.853,5.859,19.666,6.613,27.941.065.719.125,1.417.17,2.1A50.126,50.126,0,0,1,1000.447-1550.569Z"/>
    <path id="路径_6739" data-name="路径 6739" class="cls-11" d="M1000.447-1550.569l-1.16,1.537c-.608.794-1.221,1.583-1.864,2.367-6.412,7.853-15.365,15.028-45.6,21.183h-.005c-1.186.241-2.4.483-3.658.724l-.567.105a222.809,222.809,0,0,1-58.38,2.362q-1.622-.151-3.211-.332a184.7,184.7,0,0,1-18.43-3.03c-.854-.19-1.693-.381-2.527-.577a150.971,150.971,0,0,1-29.469-10.034q-1.65-.769-3.211-1.553a92.783,92.783,0,0,1-15.7-9.763c-.774-.6-1.5-1.205-2.176-1.793a30.7,30.7,0,0,1-6.22-6.924,33.6,33.6,0,0,1-2.362-7.919l.005-.005s63.983,64.239,194.339,4.864c.055-.025.115-.05.17-.08A50.126,50.126,0,0,1,1000.447-1550.569Z"/>
    <path id="路径_6740" data-name="路径 6740" class="cls-12" d="M974.531-1610.095a61.383,61.383,0,0,0-21.078,1.684q-2.729.671-5.431,1.537c-11.929,3.809-23.369,10.28-33.288,17.174-2.381,1.648-4.673,3.326-6.863,5-5.809,4.427-10.893,8.8-15,12.552h-.005c-5.769,5.27-9.592,9.305-10.743,10.506-11.752,1.04-1.346-16.486-1.346-16.486,7.295-14.842,20.238-27.438,32.785-36.508,1.336-.969,2.668-1.9,3.989-2.778,2.085-1.4,4.14-2.693,6.135-3.879,9.682-5.748,21.937-7.4,30.855-6.964,1.548.075,2.995.211,4.311.4a17.475,17.475,0,0,1,6.527,1.944c4.12,2.678,7.411,8.251,8.638,12.752A13.944,13.944,0,0,1,974.531-1610.095Z"/>
    <ellipse id="椭圆_871" data-name="椭圆 871" class="cls-13" cx="11.948" cy="18.004" rx="11.948" ry="18.004" transform="translate(916.634 -1567.096) rotate(-27.181)"/>
    <ellipse id="椭圆_872" data-name="椭圆 872" class="cls-14" cx="9.51" cy="14.61" rx="9.51" ry="14.61" transform="translate(920.91 -1565.091) rotate(-27.181)"/>
    <ellipse id="椭圆_873" data-name="椭圆 873" class="cls-15" cx="2.182" cy="4.164" rx="2.182" ry="4.164" transform="translate(935.429 -1564.58) rotate(-30)"/>
    <path id="路径_6741" data-name="路径 6741" class="cls-13" d="M1000.257-1561.533a6.882,6.882,0,0,1-2.206,1.051c-5.306,1.432-11.356-3.889-13.511-11.883s.4-15.637,5.7-17.069a6.964,6.964,0,0,1,3.4-.04C997.5-1580.621,999.5-1569.808,1000.257-1561.533Z"/>
    <path id="路径_6742" data-name="路径 6742" class="cls-14" d="M997.751-1563.033c-4.223,1.139-9.065-3.2-10.815-9.685s.256-12.671,4.479-13.81a10.169,10.169,0,0,1,3.276-.386c1.223.191,8.268,16.144,5.323,22.984C999.827-1563.418,997.751-1563.033,997.751-1563.033Z"/>
    <ellipse id="椭圆_874" data-name="椭圆 874" class="cls-15" cx="2.077" cy="4.529" rx="2.077" ry="4.529" transform="matrix(0.968, -0.249, 0.249, 0.968, 992.405, -1582.609)"/>
    <path id="路径_6743" data-name="路径 6743" class="cls-16" d="M979.836-1592.133"/>
    <path id="路径_6744" data-name="路径 6744" class="cls-17" d="M878.658-1532.194c-5.833-1.066-11.365,1.512-13.611,5.964.834.2,1.673.387,2.527.577a184.7,184.7,0,0,0,18.43,3.03q1.59.182,3.211.332C888.466-1527.044,884.3-1531.164,878.658-1532.194Z"/>
    <path id="路径_6745" data-name="路径 6745" class="cls-18" d="M886-1522.623a184.7,184.7,0,0,1-18.43-3.03c1.9-2.818,5.944-4.351,10.225-3.567C881.924-1528.461,885.08-1525.778,886-1522.623Z"/>
    <path id="路径_6746" data-name="路径 6746" class="cls-17" d="M829.534-1549.655a12.707,12.707,0,0,0-15.039.282,91.7,91.7,0,0,0,21.083,13.109A13.44,13.44,0,0,0,829.534-1549.655Z"/>
    <path id="路径_6747" data-name="路径 6747" class="cls-18" d="M832.367-1537.817a92.783,92.783,0,0,1-15.7-9.763,9.585,9.585,0,0,1,10.888.327A10.629,10.629,0,0,1,832.367-1537.817Z"/>
    <path id="路径_6748" data-name="路径 6748" class="cls-19" d="M999.287-1549.032c-.608.794-1.221,1.583-1.864,2.367-6.412,7.853-15.365,15.028-45.6,21.183h-.005c-1.186.241-2.4.483-3.658.724,0,0-2.406-24.826,25.173-33.036C989.152-1562.5,996.172-1555.694,999.287-1549.032Z"/>
    <path id="路径_6749" data-name="路径 6749" class="cls-20" d="M997.423-1546.665c-.684.839-1.4,1.668-2.166,2.492v.005a40.676,40.676,0,0,1-3.592,3.417.015.015,0,0,1-.01.005l-1.081.869c-.8.618-1.658,1.236-2.582,1.844-1.131.749-2.367,1.487-3.723,2.221l-1.02.532c-1.091.558-2.256,1.116-3.508,1.659a.463.463,0,0,1-.05.025l-.06.025c-1.186.517-2.442,1.03-3.789,1.537l-.025.01-1.2.443c-1.215.442-2.492.874-3.838,1.306l-.282.085q-1.6.513-3.341,1.01l-.286.086-1.352.376c-1,.277-2.02.548-3.085.819-1.251.322-2.552.644-3.9.955l-.025.005-1.558.362c-1.638.367-3.341.734-5.12,1.095h-.005a30.474,30.474,0,0,1,3.563-14.762c.361-.673.763-1.356,1.205-2.03a26.452,26.452,0,0,1,3.447-4.23,26.461,26.461,0,0,1,2.759-2.392c.4-.3.8-.6,1.231-.879v-.005a30.034,30.034,0,0,1,3.758-2.146,33.335,33.335,0,0,1,3.763-1.532c.232-.081.463-.156.7-.231.221-.071.437-.136.653-.206,1.462-.443,2.839-.789,4.14-1.045a32.477,32.477,0,0,1,3.392-.5c.4-.035.779-.065,1.155-.08a22.171,22.171,0,0,1,4.256.166,17.488,17.488,0,0,1,2.643.577c.462.141.9.3,1.322.468a13.737,13.737,0,0,1,4.381,2.8.016.016,0,0,1,.005.01A13.332,13.332,0,0,1,997.423-1546.665Z"/>
    <path id="路径_6750" data-name="路径 6750" class="cls-19" d="M962.432-1527.9l-3.9.955-.025.005-1.915-15.335a26.452,26.452,0,0,1,3.447-4.23Z"/>
    <path id="路径_6751" data-name="路径 6751" class="cls-21" d="M958.5-1526.939l-1.558.362-1.562-13.667c.361-.673.763-1.356,1.205-2.03Z"/>
    <path id="路径_6752" data-name="路径 6752" class="cls-19" d="M970.778-1530.275l-.282.085-3.341,1.01-.286.086-2.844-20.681v-.005a30.034,30.034,0,0,1,3.758-2.146Z"/>
    <path id="路径_6753" data-name="路径 6753" class="cls-21" d="M966.869-1529.094l-1.352.376-2.723-20.178c.4-.3.8-.6,1.231-.879Z"/>
    <path id="路径_6754" data-name="路径 6754" class="cls-19" d="M979.741-1533.621v.005l-.05.02-.06.025-3.789,1.537-.025.01L972.9-1553.9c1.462-.443,2.839-.789,4.14-1.045Z"/>
    <path id="路径_6755" data-name="路径 6755" class="cls-21" d="M975.817-1532.024l-1.2.443-3.07-21.877c.232-.081.463-.156.7-.231.221-.071.437-.136.653-.206Z"/>
    <path id="路径_6756" data-name="路径 6756" class="cls-19" d="M987.992-1538.033c-1.131.749-2.367,1.487-3.723,2.221l-2.684-19.706a22.171,22.171,0,0,1,4.256.166S987.791-1540.133,987.992-1538.033Z"/>
    <path id="路径_6757" data-name="路径 6757" class="cls-21" d="M984.269-1535.812l-1.02.532-2.819-20.158c.4-.035.779-.065,1.155-.08Z"/>
    <path id="路径_6758" data-name="路径 6758" class="cls-19" d="M995.257-1544.173v.005a40.676,40.676,0,0,1-3.592,3.417.015.015,0,0,1-.01.005l-1.849-13.561a13.737,13.737,0,0,1,4.381,2.8.016.016,0,0,1,.005.01S994.976-1546.424,995.257-1544.173Z"/>
    <path id="路径_6759" data-name="路径 6759" class="cls-21" d="M991.655-1540.746l-1.081.869-2.09-14.9c.462.141.9.3,1.322.468Z"/>
    <path id="路径_6760" data-name="路径 6760" class="cls-22" d="M974.531-1610.095a61.383,61.383,0,0,0-21.078,1.684q-2.729.671-5.431,1.537c-11.929,3.809-23.369,10.28-33.288,17.169v.005c-.593.412-1.186.824-1.768,1.241s-1.161.834-1.734,1.251-1.14.834-1.7,1.251-1.116.839-1.663,1.256c-5.809,4.427-10.893,8.8-15,12.552a163.441,163.441,0,0,1,15.842-16.978c2.035-1.91,4.226-3.869,6.552-5.814,9.918-8.31,22.233-16.42,35.051-19.46a48.936,48.936,0,0,1,5.055-.924,37.42,37.42,0,0,1,18.646,2.16A13.944,13.944,0,0,1,974.531-1610.095Z"/>
    <path id="路径_6761" data-name="路径 6761" class="cls-23" d="M917.553-1617.415l-2.286,22.474c-2.326,1.945-4.517,3.9-6.552,5.814l4.849-25.51C914.9-1615.606,916.232-1616.536,917.553-1617.415Z"/>
    <path id="路径_6762" data-name="路径 6762" class="cls-24" d="M915.267-1594.941l-.533,5.236v.005c-.593.412-1.186.824-1.768,1.241s-1.161.834-1.734,1.251-1.14.834-1.7,1.251-1.116.839-1.663,1.256l.844-4.426C910.75-1591.037,912.941-1593,915.267-1594.941Z"/>
    <path id="路径_6763" data-name="路径 6763" class="cls-23" d="M958.854-1627.861l-3.481,12.536a48.936,48.936,0,0,0-5.055.924l4.225-13.857C956.091-1628.183,957.538-1628.047,958.854-1627.861Z"/>
    <path id="路径_6764" data-name="路径 6764" class="cls-24" d="M955.373-1615.325l-1.92,6.914q-2.729.671-5.431,1.537l2.3-7.527A48.936,48.936,0,0,1,955.373-1615.325Z"/>
    <ellipse id="椭圆_875" data-name="椭圆 875" class="cls-9" cx="5.26" cy="2.453" rx="5.26" ry="2.453" transform="translate(874.428 -1551.926)"/>
    <path id="路径_6765" data-name="路径 6765" class="cls-25" d="M818.854-1634.18a1.294,1.294,0,0,0,.461,2.324c6.475,1.389,25.341,2.95,58.491-13.558C881.621-1647.489,841.856-1650.525,818.854-1634.18Z"/>
    <g id="组_2798" data-name="组 2798">
      <rect id="矩形_481" data-name="矩形 481" class="cls-26" width="143.627" height="26.04" rx="4.534" transform="translate(845.74 -1729.956)"/>
      <g id="组_2789" data-name="组 2789">
        <rect id="矩形_482" data-name="矩形 482" class="cls-27" width="1.88" height="9.66" transform="translate(857.933 -1729.956)"/>
      </g>
      <g id="组_2790" data-name="组 2790">
        <rect id="矩形_483" data-name="矩形 483" class="cls-27" width="1.88" height="9.66" transform="translate(879.593 -1729.956)"/>
      </g>
      <g id="组_2791" data-name="组 2791">
        <rect id="矩形_484" data-name="矩形 484" class="cls-27" width="1.88" height="9.66" transform="translate(899.273 -1729.956)"/>
      </g>
      <g id="组_2792" data-name="组 2792">
        <rect id="矩形_485" data-name="矩形 485" class="cls-27" width="1.88" height="9.66" transform="translate(919.014 -1729.956)"/>
      </g>
      <g id="组_2793" data-name="组 2793">
        <rect id="矩形_486" data-name="矩形 486" class="cls-27" width="1.88" height="9.66" transform="translate(937.794 -1729.956)"/>
      </g>
      <g id="组_2794" data-name="组 2794">
        <rect id="矩形_487" data-name="矩形 487" class="cls-27" width="1.88" height="9.66" transform="translate(957.348 -1729.956)"/>
      </g>
      <g id="组_2795" data-name="组 2795">
        <rect id="矩形_488" data-name="矩形 488" class="cls-27" width="1.88" height="9.66" transform="translate(976.027 -1729.956)"/>
      </g>
      <text id="_3" data-name="3" class="cls-28" transform="translate(855.444 -1708.694)"><tspan x="0" y="0">3</tspan></text>
      <text id="_4" data-name="4" class="cls-28" transform="translate(877.205 -1708.694)"><tspan x="0" y="0">4</tspan></text>
      <text id="_5" data-name="5" class="cls-28" transform="translate(896.653 -1708.694)"><tspan x="0" y="0">5</tspan></text>
      <text id="_" data-name="?" class="cls-29" transform="translate(944.646 -1676.933)"><tspan x="0" y="0">?</tspan></text>
      <text id="_6" data-name="6" class="cls-28" transform="translate(916.662 -1708.694)"><tspan x="0" y="0">6</tspan></text>
      <text id="_7" data-name="7" class="cls-28" transform="translate(935.341 -1708.694)"><tspan x="0" y="0">7</tspan></text>
      <text id="_8" data-name="8" class="cls-28" transform="translate(954.79 -1708.694)"><tspan x="0" y="0">8</tspan></text>
      <text id="_9" data-name="9" class="cls-28" transform="translate(973.702 -1708.694)"><tspan x="0" y="0">9</tspan></text>
      <g id="组_2796" data-name="组 2796">
        <path id="路径_6766" data-name="路径 6766" class="cls-30" d="M919.954-1732.22s5.166-13.28,28.394-13.28c20.121,0,26.957,11.84,26.957,11.84"/>
        <path id="路径_6767" data-name="路径 6767" class="cls-31" d="M970.76-1734.46l5.71-3.54.5,7.14Z"/>
      </g>
      <g id="组_2797" data-name="组 2797">
        <path id="路径_6768" data-name="路径 6768" class="cls-31" d="M919.014-1702.339a.813.813,0,0,1,.787-.837.813.813,0,0,1,.787.837c0,2.345,0,4.37,14.244,4.37,5.78,0,9.84,1.315,12.068,3.908a7.176,7.176,0,0,1,.887,1.287,6.858,6.858,0,0,1,.686-1c2.288-2.783,6.807-4.194,13.432-4.194,10.963,0,13.564-2.145,14.173-3.067a1.174,1.174,0,0,0,.225-.989.846.846,0,0,1,.405-1.092.78.78,0,0,1,1.043.438,2.823,2.823,0,0,1-.317,2.5c-1.576,2.579-6.8,3.886-15.529,3.886-7.606,0-10.836,1.944-12.207,3.574a4.557,4.557,0,0,0-1.123,2.623,3.732,3.732,0,0,1,0,.534.81.81,0,0,1-.766.762.8.8,0,0,1-.8-.726,3.641,3.641,0,0,1-.013-.549,5.1,5.1,0,0,0-1.3-2.9c-1.326-1.515-4.288-3.322-10.87-3.322C921.212-1696.3,919.014-1698.076,919.014-1702.339Z"/>
      </g>
    </g>
  </g>
</svg>
