<svg xmlns="http://www.w3.org/2000/svg" width="223.898" height="226.84" viewBox="0 0 223.898 226.84">
  <defs>
    <style>
      .cls-1 {
        fill: #dbe4ff;
        stroke: #fff;
        stroke-width: 10px;
      }

      .cls-1, .cls-5 {
        stroke-miterlimit: 10;
      }

      .cls-2 {
        fill: #5cb1eb;
      }

      .cls-3, .cls-4, .cls-7, .cls-8 {
        fill: #964615;
      }

      .cls-3 {
        font-size: 21.017px;
      }

      .cls-3, .cls-4, .cls-8 {
        font-family: TimesNewRomanPS-BoldMT, Times New Roman;
        font-weight: 700;
      }

      .cls-4 {
        font-size: 27.688px;
      }

      .cls-10, .cls-5 {
        fill: none;
      }

      .cls-5 {
        stroke: #964615;
        stroke-width: 1.203px;
        stroke-dasharray: 1.203;
      }

      .cls-6 {
        fill: #ffb34f;
      }

      .cls-8 {
        font-size: 27.687px;
      }

      .cls-9 {
        stroke: none;
      }
    </style>
  </defs>
  <g id="组_2941" data-name="组 2941" transform="translate(-704.212 -1535.459)">
    <g id="矩形_591" data-name="矩形 591" class="cls-1" transform="translate(714.212 1545.459)">
      <rect class="cls-9" width="203.898" height="206.84" rx="13.181"/>
      <rect class="cls-10" x="-5" y="-5" width="213.898" height="216.84" rx="18.181"/>
    </g>
    <g id="组_2940" data-name="组 2940">
      <rect id="矩形_592" data-name="矩形 592" class="cls-2" width="144.124" height="9.482" rx="1.58" transform="translate(744.099 1596.643)"/>
      <text id="_3" data-name="3" class="cls-3" transform="translate(840.344 1636.475)"><tspan x="0" y="0">3</tspan></text>
      <text id="_1" data-name="1" class="cls-3" transform="translate(812.197 1657.084)"><tspan x="0" y="0">1</tspan></text>
      <text id="_5" data-name="5" class="cls-4" transform="translate(809.443 1589.44)"><tspan x="0" y="0">5</tspan></text>
      <line id="直线_101" data-name="直线 101" class="cls-5" y2="62.275" transform="translate(804.641 1606.125)"/>
      <rect id="矩形_593" data-name="矩形 593" class="cls-6" width="60.039" height="9.482" rx="1.341" transform="translate(744.099 1632.533)"/>
      <rect id="矩形_594" data-name="矩形 594" class="cls-2" width="86.907" height="9.482" rx="1.613" transform="translate(744.099 1668.4)"/>
      <g id="组_2937" data-name="组 2937">
        <path id="路径_7120" data-name="路径 7120" class="cls-7" d="M744.1,1683.393a1.178,1.178,0,0,1,2.338,0c0,2.884,0,5.376,21.166,5.376,8.588,0,14.621,1.617,17.932,4.806a9.065,9.065,0,0,1,1.318,1.584,8.517,8.517,0,0,1,1.019-1.231c3.4-3.424,10.114-5.159,19.958-5.159,16.29,0,20.155-2.639,21.061-3.773a1.244,1.244,0,0,0,.333-1.216.974.974,0,0,1,.6-1.344,1.253,1.253,0,0,1,1.551.539,2.964,2.964,0,0,1-.471,3.073c-2.343,3.172-10.106,4.78-23.076,4.78-11.3,0-16.1,2.391-18.138,4.4a5.123,5.123,0,0,0-1.669,3.226,3.921,3.921,0,0,1,.006.657,1.12,1.12,0,0,1-1.14.937,1.133,1.133,0,0,1-1.184-.892,3.558,3.558,0,0,1-.02-.676,5.79,5.79,0,0,0-1.93-3.563c-1.971-1.863-6.373-4.085-16.152-4.085C747.364,1690.828,744.1,1688.636,744.1,1683.393Z"/>
      </g>
      <g id="组_2938" data-name="组 2938">
        <path id="路径_7121" data-name="路径 7121" class="cls-7" d="M804.641,1607.2a1.16,1.16,0,0,1,2.234,0c0,2.37,0,4.417,20.215,4.417,8.2,0,13.965,1.329,17.127,3.949a7.817,7.817,0,0,1,1.259,1.3,7.4,7.4,0,0,1,.974-1.011c3.246-2.813,9.66-4.239,19.062-4.239,15.559,0,19.25-2.168,20.115-3.1.51-.549.34-.956.319-1-.251-.428.011-.914.574-1.1a1.292,1.292,0,0,1,1.481.443,2.155,2.155,0,0,1-.45,2.524c-2.237,2.606-9.652,3.928-22.039,3.928-10.794,0-15.379,1.964-17.325,3.612a4.006,4.006,0,0,0-1.593,2.651,2.771,2.771,0,0,1,.005.539,1.035,1.035,0,0,1-1.088.77,1.066,1.066,0,0,1-1.131-.733,2.471,2.471,0,0,1-.02-.555,4.555,4.555,0,0,0-1.843-2.927c-1.882-1.532-6.086-3.357-15.427-3.357C807.76,1613.309,804.641,1611.508,804.641,1607.2Z"/>
      </g>
      <g id="组_2939" data-name="组 2939">
        <path id="路径_7122" data-name="路径 7122" class="cls-7" d="M804.641,1667.836c0,.307.158.557.352.557s.353-.25.353-.557c0-1.561,0-2.909,6.376-2.909,2.588,0,4.405-.875,5.4-2.6a5.35,5.35,0,0,0,.4-.857,5.043,5.043,0,0,0,.307.666c1.024,1.852,3.047,2.792,6.013,2.792,4.908,0,6.072,1.427,6.345,2.041a1.1,1.1,0,0,1,.1.658.7.7,0,0,0,.182.727c.178.125.388-.01.467-.291a2.7,2.7,0,0,0-.142-1.663c-.706-1.716-3.045-2.587-6.952-2.587-3.4,0-4.851-1.293-5.465-2.379a3.934,3.934,0,0,1-.5-1.745c.009-.209,0-.338,0-.355-.016-.283-.164-.5-.343-.507s-.333.2-.357.482a3.618,3.618,0,0,0-.006.366,4.385,4.385,0,0,1-.581,1.928c-.594,1.008-1.92,2.21-4.867,2.21C805.625,1663.812,804.641,1665,804.641,1667.836Z"/>
      </g>
      <text id="_" data-name="?" class="cls-8" transform="translate(779.863 1722.256)"><tspan x="0" y="0">?</tspan></text>
    </g>
  </g>
</svg>
