<svg xmlns="http://www.w3.org/2000/svg" width="148.494" height="71.898" viewBox="0 0 148.494 71.898">
  <defs>
    <style>
      .cls-1, .cls-3, .cls-4, .cls-6 {
        fill: #fff;
      }

      .cls-2 {
        fill: #8ca6fd;
      }

      .cls-3 {
        font-size: 28.534px;
        font-family: TimesNewRomanPS-BoldMT, Times New Roman;
        font-weight: 700;
        letter-spacing: 0.05em;
      }

      .cls-5, .cls-6 {
        stroke: none;
      }
    </style>
  </defs>
  <g id="组_6663" data-name="组 6663" transform="translate(3 3)">
    <g id="路径_6995" data-name="路径 6995" class="cls-1" transform="translate(-696.699 -182.537)">
      <path class="cls-5" d="M 808.478759765625 249.9346923828125 L 767.9459838867188 249.9346923828125 L 727.4131469726563 249.9346923828125 C 725.1796264648438 249.9346923828125 722.98876953125 249.3234710693359 721.077392578125 248.1670989990234 L 698.8184814453125 234.6929931640625 C 697.7157592773438 234.0252532958984 696.798583984375 233.0791320800781 696.1659545898438 231.9567565917969 C 695.5333862304688 230.8343963623047 695.198974609375 229.5601196289063 695.198974609375 228.2716979980469 L 695.198974609375 215.4852905273438 L 695.198974609375 201.677001953125 C 695.198974609375 198.9738922119141 696.66259765625 196.4687194824219 699.0186767578125 195.1390533447266 L 721.2246704101563 182.6143188476563 C 723.0545654296875 181.5824127197266 725.1328735351563 181.0370178222656 727.2349853515625 181.0370178222656 L 767.9459838867188 181.0370178222656 L 808.6558837890625 181.0370178222656 C 810.7592163085938 181.0370178222656 812.837646484375 181.5824890136719 814.6663818359375 182.6144561767578 L 836.8729248046875 195.1388702392578 C 839.2293701171875 196.4687347412109 840.6929321289063 198.9739379882813 840.6929321289063 201.677001953125 L 840.6929321289063 215.4852905273438 L 840.6929321289063 228.2716979980469 C 840.6929321289063 229.5601196289063 840.3583374023438 230.8344879150391 839.7252197265625 231.9570617675781 C 839.0924072265625 233.0792388916016 838.1751098632813 234.0252685546875 837.072509765625 234.6929168701172 L 814.8138427734375 248.1669006347656 C 812.9035034179688 249.3233947753906 810.712890625 249.9346923828125 808.478759765625 249.9346923828125 Z"/>
      <path class="cls-6" d="M 808.478759765625 248.4346923828125 C 810.43896484375 248.4346923828125 812.3617553710938 247.8979034423828 814.0370483398438 246.8836822509766 L 836.2955322265625 233.4097900390625 C 838.0940551757813 232.3207702636719 839.1929321289063 230.3726959228516 839.1929321289063 228.2716827392578 L 839.1929321289063 215.4852905273438 L 839.1929321289063 201.677001953125 C 839.1929321289063 199.5099792480469 838.0247192382813 197.5112915039063 836.1360473632813 196.4454040527344 L 813.92919921875 183.9208068847656 C 812.321044921875 183.0133209228516 810.50390625 182.5370178222656 808.6558837890625 182.5370178222656 L 767.9459838867188 182.5370178222656 L 727.2349853515625 182.5370178222656 C 725.3881225585938 182.5370178222656 723.5708618164063 183.0133209228516 721.9615478515625 183.9208068847656 L 699.7559204101563 196.4454040527344 C 697.8671875 197.5112915039063 696.698974609375 199.5099792480469 696.698974609375 201.677001953125 L 696.698974609375 215.4852905273438 L 696.698974609375 228.2716827392578 C 696.698974609375 230.3726959228516 697.7968139648438 232.3207702636719 699.5952758789063 233.4097900390625 L 721.8538208007813 246.8836822509766 C 723.5302124023438 247.8979034423828 725.4529418945313 248.4346923828125 727.4131469726563 248.4346923828125 L 767.9459838867188 248.4346923828125 L 808.478759765625 248.4346923828125 M 808.478759765625 251.4346923828125 L 767.9459838867188 251.4346923828125 L 727.4131469726563 251.4346923828125 C 724.9058837890625 251.4346923828125 722.446533203125 250.7485656738281 720.3009033203125 249.4505004882813 L 698.041748046875 235.9762115478516 C 696.7186279296875 235.1750183105469 695.6182861328125 234.0399017333984 694.8592529296875 232.6932983398438 C 694.1002197265625 231.3466033935547 693.698974609375 229.8176422119141 693.698974609375 228.2716827392578 L 693.698974609375 215.4852905273438 L 693.698974609375 201.677001953125 C 693.698974609375 198.4336395263672 695.4548950195313 195.4279022216797 698.281494140625 193.8327331542969 L 720.4877319335938 181.3077850341797 C 722.5421752929688 180.1492919921875 724.875244140625 179.5370178222656 727.2349853515625 179.5370178222656 L 767.9459838867188 179.5370178222656 L 808.6558837890625 179.5370178222656 C 811.0170288085938 179.5370178222656 813.350341796875 180.1494598388672 815.403564453125 181.30810546875 L 837.6098022460938 193.8323364257813 C 840.4370727539063 195.4279632568359 842.1929321289063 198.4336853027344 842.1929321289063 201.677001953125 L 842.1929321289063 215.4852905273438 L 842.1929321289063 228.2716827392578 C 842.1929321289063 229.8177490234375 841.7914428710938 231.346923828125 841.0317993164063 232.6939239501953 C 840.2725219726563 234.0401611328125 839.172119140625 235.1751098632813 837.8494262695313 235.9760284423828 L 815.590576171875 249.4501037597656 C 813.446044921875 250.7484130859375 810.9867553710938 251.4346923828125 808.478759765625 251.4346923828125 Z"/>
    </g>
    <path id="路径_6996" data-name="路径 6996" class="cls-2" d="M767.946,243.986H805a10.242,10.242,0,0,0,5.082-1.341l20.35-11.655a5.144,5.144,0,0,0,2.65-4.444v-23a5.156,5.156,0,0,0-2.795-4.525l-20.3-10.834a10.249,10.249,0,0,0-4.821-1.2H730.725a10.249,10.249,0,0,0-4.821,1.2l-20.3,10.834a5.156,5.156,0,0,0-2.795,4.525v23a5.145,5.145,0,0,0,2.648,4.444L725.8,242.645a10.245,10.245,0,0,0,5.082,1.341Z" transform="translate(-696.699 -182.537)"/>
    <text id="_5_3_1" data-name="5  3+1" class="cls-3" transform="translate(31.186 41.099)"><tspan x="0" y="0" xml:space="preserve">5  3+1</tspan></text>
    <rect id="矩形_2325" data-name="矩形 2325" class="cls-4" width="15" height="2" transform="translate(46.69 30.722)"/>
  </g>
</svg>
