<svg xmlns="http://www.w3.org/2000/svg" width="286.568" height="346.422" viewBox="0 0 286.568 346.422">
  <defs>
    <style>
      .cls-1 {
        fill: #ffe58f;
      }

      .cls-2 {
        fill: #a86a47;
      }

      .cls-3 {
        fill: #ffd858;
      }

      .cls-12, .cls-4 {
        fill: #f37366;
      }

      .cls-16, .cls-28, .cls-4 {
        stroke-miterlimit: 10;
      }

      .cls-5 {
        fill: #ee6457;
      }

      .cls-6 {
        fill: #e35546;
      }

      .cls-7 {
        fill: #f36e3a;
      }

      .cls-8 {
        fill: #f6804e;
      }

      .cls-9 {
        fill: #fa9e49;
      }

      .cls-10 {
        fill: #5266ae;
      }

      .cls-11 {
        fill: #525f9b;
      }

      .cls-13 {
        fill: #e3d8e3;
      }

      .cls-14 {
        fill: #fdb74f;
      }

      .cls-15 {
        fill: #fede81;
      }

      .cls-16, .cls-28 {
        fill: none;
        stroke-width: 1.124px;
      }

      .cls-16 {
        stroke: #1f8a5d;
      }

      .cls-17 {
        fill: #ebf393;
      }

      .cls-18 {
        fill: #4eb092;
      }

      .cls-19 {
        fill: #f17669;
      }

      .cls-20 {
        fill: #665855;
      }

      .cls-21 {
        fill: #e85c52;
      }

      .cls-22 {
        fill: #e66153;
      }

      .cls-23 {
        fill: #fd8f8b;
      }

      .cls-24 {
        fill: #f28580;
      }

      .cls-25 {
        fill: #f37464;
      }

      .cls-26 {
        fill: #4daff2;
      }

      .cls-27, .cls-29 {
        fill: #96420f;
      }

      .cls-27 {
        font-size: 27.292px;
      }

      .cls-27, .cls-30 {
        font-family: TimesNewRomanPS-BoldMT, Times New Roman;
        font-weight: 700;
      }

      .cls-28 {
        stroke: #96420f;
        stroke-dasharray: 2.248;
      }

      .cls-30 {
        fill: #964615;
        font-size: 21.91px;
      }

      .cls-31, .cls-32 {
        stroke: none;
      }

      .cls-32 {
        fill: #fff;
      }
    </style>
  </defs>
  <g id="组_2761" data-name="组 2761" transform="translate(-352.55 995.659)">
    <rect id="矩形_465" data-name="矩形 465" class="cls-1" width="201.762" height="109.08" rx="12.382" transform="translate(410.495 -977.477)"/>
    <path id="路径_6376" data-name="路径 6376" class="cls-2" d="M416.313-982.216v209.825h-6.886V-982.216a3.443,3.443,0,0,1,3.443-3.443h0A3.443,3.443,0,0,1,416.313-982.216Z"/>
    <path id="路径_6377" data-name="路径 6377" class="cls-3" d="M477.9-841.111S494-836.6,508.028-804.995s-8.66,12.5-8.66,12.5S475.886-828,477.9-841.111Z"/>
    <g id="路径_6378" data-name="路径 6378" class="cls-4">
      <path class="cls-31" d="M 520.1454467773438 -654.2367553710938 C 520.1425170898438 -654.2367553710938 520.1412353515625 -654.2367553710938 520.1383056640625 -654.2367553710938 C 515.1636962890625 -654.2368774414063 510.0231628417969 -654.3713989257813 504.8595275878906 -654.6365966796875 C 487.2517395019531 -655.54345703125 470.168701171875 -657.7793579101563 454.0842895507813 -661.2822875976563 C 440.5683898925781 -664.2257690429688 427.6622924804688 -668.080078125 415.7245178222656 -672.7379760742188 C 405.6714477539063 -676.6607666015625 396.4824829101563 -681.067138671875 388.4129333496094 -685.8347778320313 C 385.3003845214844 -687.6737670898438 382.4521179199219 -689.5121459960938 379.9473266601563 -691.2988891601563 C 377.8570556640625 -692.7899169921875 376.0784912109375 -694.1962280273438 374.8038024902344 -695.3656005859375 C 374.0121154785156 -696.0916748046875 373.2024841308594 -696.8028564453125 372.3453063964844 -697.5557861328125 C 368.7418518066406 -700.720947265625 364.6575622558594 -704.3085327148438 361.7194213867188 -709.455078125 C 358.362060546875 -715.3358764648438 357.0533752441406 -722.2867431640625 357.7185668945313 -730.704833984375 C 358.1043090820313 -735.568359375 359.2309875488281 -739.90576171875 361.0675354003906 -743.5982055664063 C 362.6079711914063 -746.6953735351563 364.6410827636719 -749.3387451171875 367.1103515625 -751.4548950195313 C 368.9562072753906 -753.036865234375 370.7846984863281 -754.0925903320313 372.3041076660156 -754.788330078125 C 372.3320617675781 -763.4105224609375 373.8719482421875 -770.8680419921875 374.718994140625 -774.3245849609375 C 372.0995788574219 -779.5760498046875 370.3997802734375 -785.5858154296875 369.7779846191406 -791.836181640625 C 369.1008911132813 -798.6416625976563 369.717529296875 -805.4694213867188 371.5612487792969 -811.5813598632813 C 372.8746032714844 -815.9351196289063 374.7669372558594 -819.8040161132813 377.1857604980469 -823.0806884765625 C 379.6655578613281 -826.4400024414063 382.6375122070313 -829.0934448242188 386.0292053222656 -830.9782104492188 C 386.5685729980469 -831.5036010742188 387.4262084960938 -832.29150390625 388.6290588378906 -833.2606201171875 L 388.6923522949219 -833.3115844726563 L 388.7509460449219 -833.3556518554688 C 390.1725158691406 -834.5147094726563 391.8084716796875 -835.692138671875 393.6153564453125 -836.856689453125 C 396.7878723144531 -838.9010009765625 400.2817077636719 -840.7780151367188 404.0000610351563 -842.4357299804688 L 404.4270324707031 -842.6260986328125 L 404.4270324707031 -982.2160034179688 C 404.4270324707031 -986.8714599609375 408.2145385742188 -990.6589965820313 412.8699645996094 -990.6589965820313 C 417.4621276855469 -990.6589965820313 421.209716796875 -986.9736938476563 421.3108825683594 -982.4053955078125 C 421.8299560546875 -982.4530029296875 422.3521728515625 -982.4769897460938 422.8760375976563 -982.4769897460938 L 599.875 -982.4769897460938 C 602.2144165039063 -982.4769897460938 604.489501953125 -982.014404296875 606.6370849609375 -981.10205078125 C 608.7031860351563 -980.224365234375 610.5593872070313 -978.970703125 612.154296875 -977.3758544921875 C 613.749267578125 -975.781005859375 615.0030517578125 -973.9247436523438 615.880859375 -971.858642578125 C 616.7933349609375 -969.7109985351563 617.2559814453125 -967.4356689453125 617.2559814453125 -965.0960083007813 L 617.2559814453125 -880.7780151367188 C 617.2559814453125 -878.4385375976563 616.7932739257813 -876.1633911132813 615.880859375 -874.0157470703125 C 615.0030517578125 -871.94970703125 613.749267578125 -870.0934448242188 612.1544189453125 -868.49853515625 C 610.5595092773438 -866.9036254882813 608.7033081054688 -865.64990234375 606.6372680664063 -864.7720947265625 C 604.4896850585938 -863.8596801757813 602.2144775390625 -863.39697265625 599.875 -863.39697265625 L 422.8760375976563 -863.39697265625 C 422.3529663085938 -863.39697265625 421.8312683105469 -863.4208984375 421.31298828125 -863.4683227539063 L 421.31298828125 -848.2214965820313 C 423.677001953125 -848.78515625 426.0879516601563 -849.278076171875 428.5286560058594 -849.6962280273438 L 428.9477844238281 -849.7680053710938 L 428.9515380859375 -849.7680053710938 C 433.2810974121094 -850.5057373046875 437.8300476074219 -851.0348510742188 442.4793090820313 -851.3411254882813 C 445.7438049316406 -851.55712890625 449.1290283203125 -851.6666259765625 452.5396118164063 -851.6666259765625 C 456.8208312988281 -851.6666259765625 461.2690734863281 -851.4940795898438 465.7607421875 -851.1537475585938 L 465.9747924804688 -851.1375122070313 L 466.1866149902344 -851.10302734375 C 471.8508911132813 -850.1806030273438 476.4729919433594 -848.368408203125 480.2828369140625 -845.5720825195313 C 482.0999450683594 -844.870849609375 486.0635070800781 -843.0035400390625 491.0053405761719 -838.6595458984375 C 494.6460266113281 -835.4591674804688 498.1663818359375 -831.4959106445313 501.4686584472656 -826.8797607421875 C 504.4948425292969 -822.6494750976563 507.351806640625 -817.8472290039063 509.9957580566406 -812.5511474609375 C 510.6158752441406 -812.9783325195313 511.2270202636719 -813.3924560546875 511.8268127441406 -813.791748046875 C 514.30712890625 -815.4592895507813 516.9066772460938 -817.1026000976563 519.5528564453125 -818.67578125 C 524.9683227539063 -821.8911743164063 531.2562866210938 -824.3292236328125 538.2444458007813 -825.9237670898438 C 544.1166381835938 -827.263671875 550.4202270507813 -827.971923828125 556.4737548828125 -827.971923828125 C 557.689453125 -827.971923828125 558.90087890625 -827.9430541992188 560.0742797851563 -827.8861694335938 C 562.0820922851563 -827.7884521484375 564.0084228515625 -827.6107177734375 565.8004760742188 -827.35791015625 L 565.8086547851563 -827.3568115234375 L 565.81689453125 -827.3555908203125 C 570.2413330078125 -826.7164306640625 573.6055908203125 -825.66015625 575.8163452148438 -824.2161254882813 C 578.7490844726563 -822.3078002929688 581.5369873046875 -819.3973388671875 583.879638671875 -815.7984008789063 C 585.9318237304688 -812.6456298828125 587.5607299804688 -809.0780639648438 588.46630859375 -805.7529296875 C 588.6121215820313 -805.218505859375 588.7385864257813 -804.6928100585938 588.8453979492188 -804.177001953125 C 590.0944213867188 -803.5677490234375 591.3229370117188 -802.8572387695313 592.5195922851563 -802.0511474609375 C 594.1744384765625 -800.9364624023438 595.77490234375 -799.635498046875 597.2766723632813 -798.1844482421875 C 599.0855102539063 -796.4367065429688 600.3275146484375 -794.8811645507813 600.9445190429688 -794.0535278320313 C 605.3081665039063 -790.22216796875 609.1002807617188 -784.6465454101563 612.2220458984375 -777.4692993164063 C 614.5277709960938 -772.1717529296875 616.4654541015625 -766.0296020507813 617.980712890625 -759.214599609375 C 619.2330932617188 -753.5821533203125 620.1735229492188 -747.5491333007813 620.7003784179688 -741.7677612304688 C 620.7676391601563 -741.02880859375 620.8530883789063 -740.0584106445313 620.9180908203125 -739.0963134765625 C 621.03466796875 -737.46533203125 621.111572265625 -735.9099731445313 621.1483764648438 -734.4448852539063 C 622.5850830078125 -733.5732421875 624.1224975585938 -732.5800170898438 625.434326171875 -731.5964965820313 L 625.4369506835938 -731.5946044921875 L 625.439453125 -731.5927124023438 C 626.066650390625 -731.1212158203125 626.66552734375 -730.515380859375 627.26220703125 -729.7478637695313 L 627.8278198242188 -729.18212890625 L 627.9833984375 -728.7373046875 C 629.0572509765625 -727.1112060546875 630.134765625 -724.9387817382813 631.0608520507813 -722.5213623046875 C 632.217529296875 -719.5021362304688 633.09814453125 -716.2257080078125 633.607421875 -713.0462646484375 C 634.584228515625 -706.9484252929688 634.6865844726563 -698.2095947265625 629.6267700195313 -691.2067260742188 C 627.8533325195313 -688.752197265625 624.4494018554688 -684.857177734375 618.3043212890625 -680.24072265625 C 612.286865234375 -675.7200317382813 605.1508178710938 -671.6521606445313 597.0945434570313 -668.14990234375 C 587.396484375 -663.9340209960938 576.5126342773438 -660.6207275390625 564.745361328125 -658.302001953125 C 551.055908203125 -655.6046142578125 536.04931640625 -654.2367553710938 520.1454467773438 -654.2367553710938 Z"/>
      <path class="cls-32" d="M 520.138427734375 -659.2367553710938 C 587.0685424804688 -659.235107421875 617.9637451171875 -683.60205078125 625.5740356445313 -694.135009765625 C 632.9639892578125 -704.3629760742188 627.1370239257813 -721.4559936523438 623.4860229492188 -726.4509887695313 L 623.4849853515625 -726.4539794921875 L 623.4829711914063 -726.4559936523438 C 623.10400390625 -726.9730224609375 622.7490234375 -727.3599853515625 622.4349975585938 -727.5960083007813 C 620.5170288085938 -729.0339965820313 617.9829711914063 -730.541015625 616.1669921875 -731.5659790039063 C 616.197021484375 -733.583984375 616.1260375976563 -736.0130004882813 615.9299926757813 -738.7520141601563 C 615.8740234375 -739.5809936523438 615.801025390625 -740.4349975585938 615.7210083007813 -741.3140258789063 C 614.7990112304688 -751.4310302734375 612.3480224609375 -764.6510009765625 607.6370239257813 -775.4749755859375 C 604.9520263671875 -781.6480102539063 601.530029296875 -787.0419921875 597.2360229492188 -790.6480102539063 C 597.2360229492188 -790.6480102539063 592.4020385742188 -797.8109741210938 584.2689819335938 -800.6849975585938 C 584.2260131835938 -801.8099975585938 584.010986328125 -803.0869750976563 583.6420288085938 -804.4390258789063 C 582.1430053710938 -809.9429931640625 578.1199951171875 -816.7559814453125 573.0819702148438 -820.030029296875 C 571.52197265625 -821.0490112304688 568.7150268554688 -821.885009765625 565.1019897460938 -822.406982421875 C 563.4929809570313 -822.634033203125 561.7239990234375 -822.7999877929688 559.8319702148438 -822.8920288085938 C 558.75048828125 -822.9444580078125 557.62841796875 -822.971923828125 556.4737548828125 -822.971923828125 C 545.9863891601563 -822.971923828125 532.77099609375 -820.7089233398438 522.1079711914063 -814.3779907226563 C 519.6690063476563 -812.927978515625 517.156005859375 -811.3499755859375 514.6069946289063 -809.635986328125 C 512.9920043945313 -808.5609741210938 511.364013671875 -807.4240112304688 509.7300109863281 -806.239013671875 C 509.1650085449219 -805.8309936523438 508.5989990234375 -805.4010009765625 508.0339965820313 -804.9810180664063 L 508.0280151367188 -804.9949951171875 C 493.9980163574219 -836.5980224609375 477.9030151367188 -841.1110229492188 477.9030151367188 -841.1110229492188 L 477.9020080566406 -841.1019897460938 C 474.7680053710938 -843.5709838867188 470.7750244140625 -845.2899780273438 465.3830261230469 -846.1680297851563 C 460.8783569335938 -846.5093383789063 456.5989379882813 -846.6666870117188 452.5396118164063 -846.6666870117188 C 449.1428833007813 -846.6666870117188 445.900390625 -846.5565795898438 442.8080139160156 -846.3519897460938 C 437.9670104980469 -846.0330200195313 433.5010070800781 -845.4860229492188 429.3789978027344 -844.7680053710938 L 429.3730163574219 -844.7680053710938 C 424.5630187988281 -843.9439086914063 420.2260131835938 -842.8820190429688 416.3440246582031 -841.6959838867188 L 416.3380126953125 -841.6959838867188 L 416.3130187988281 -841.68798828125 L 416.3130187988281 -870.3070068359375 C 418.2200012207031 -869.10498046875 420.4670104980469 -868.3969116210938 422.8760070800781 -868.3969116210938 L 599.875 -868.3969116210938 C 606.6840209960938 -868.3969116210938 612.2559814453125 -873.968994140625 612.2559814453125 -880.7780151367188 L 612.2559814453125 -965.0960083007813 C 612.2559814453125 -971.906005859375 606.6840209960938 -977.4769897460938 599.875 -977.4769897460938 L 422.8760070800781 -977.4769897460938 C 420.4670104980469 -977.4769897460938 418.2200012207031 -976.7689819335938 416.3130187988281 -975.5670166015625 L 416.3130187988281 -982.2160034179688 C 416.3130187988281 -984.1170043945313 414.7720031738281 -985.6589965820313 412.8700256347656 -985.6589965820313 C 410.968017578125 -985.6589965820313 409.427001953125 -984.1170043945313 409.427001953125 -982.2160034179688 L 409.427001953125 -839.280029296875 C 408.2510070800781 -838.8159790039063 407.1090087890625 -838.3460083007813 406.0420227050781 -837.8690185546875 L 406.0360107421875 -837.8690185546875 C 402.0680236816406 -836.0999755859375 398.8489990234375 -834.281005859375 396.3240051269531 -832.6539916992188 C 394.4560241699219 -831.4500122070313 392.9640197753906 -830.343994140625 391.8390197753906 -829.4219970703125 L 391.7660217285156 -829.3670043945313 C 389.9290161132813 -827.8870239257813 389.0570068359375 -826.927978515625 389.0570068359375 -826.927978515625 C 373.5820007324219 -818.97900390625 370.2470092773438 -792.447998046875 380.051025390625 -774.9340209960938 C 380.9179992675781 -773.385009765625 381.52001953125 -771.8319091796875 381.9349975585938 -770.281982421875 C 381.2530212402344 -771.791015625 380.6119995117188 -773.3319091796875 380.051025390625 -774.9340209960938 C 380.051025390625 -774.9340209960938 376.7130126953125 -763.718017578125 377.3960266113281 -751.0670166015625 L 376.9240112304688 -751.1240234375 C 376.9240112304688 -751.1240234375 364.1710205078125 -748.8200073242188 362.7030029296875 -730.3109130859375 C 361.2409973144531 -711.8090209960938 370.5480041503906 -706.052978515625 378.1840209960938 -699.0499877929688 C 382.1210021972656 -695.43798828125 395.18701171875 -686.1190185546875 417.5420227050781 -677.39599609375 C 438.5140075683594 -669.2130126953125 467.6620178222656 -661.5590209960938 505.1159973144531 -659.6300048828125 C 510.3110046386719 -659.3632202148438 515.3214111328125 -659.2368774414063 520.138427734375 -659.2367553710938 M 539.4039916992188 -791.9569091796875 C 525.1630249023438 -785.2919921875 507.5350036621094 -774.2479858398438 486.5270080566406 -756.1859741210938 C 491.14501953125 -760.3200073242188 496.6240234375 -764.9550170898438 502.77001953125 -769.6389770507813 C 505.447998046875 -771.6840209960938 508.2490234375 -773.7360229492188 511.1610107421875 -775.7509765625 C 519.7849731445313 -781.7449951171875 529.3519897460938 -787.4710083007813 539.4039916992188 -791.9569091796875 M 497.0339965820313 -796.1489868164063 L 497.072021484375 -796.0889892578125 L 497.0490112304688 -796.0689086914063 L 497.0469970703125 -796.0809936523438 C 497.0440063476563 -796.10302734375 497.0380249023438 -796.1270141601563 497.0339965820313 -796.1489868164063 M 520.145263671875 -649.2367553710938 L 520.14501953125 -649.2367553710938 C 515.1566162109375 -649.2368774414063 509.9752807617188 -649.3672485351563 504.6031494140625 -649.6431274414063 C 471.3910827636719 -651.3536987304688 440.8770141601563 -657.5567626953125 413.9070739746094 -668.080078125 C 392.3830871582031 -676.4788208007813 377.5692749023438 -686.0430297851563 371.4236145019531 -691.6813354492188 L 369.0456237792969 -693.7991943359375 C 361.4454650878906 -700.4749755859375 351.0366821289063 -709.6177978515625 352.7340698242188 -731.0986938476563 C 353.8873596191406 -745.6392822265625 360.7677917480469 -753.8245239257813 367.3763427734375 -757.8764038085938 C 367.6508178710938 -764.4420166015625 368.6634826660156 -770.14501953125 369.4567565917969 -773.7486572265625 C 364.0254821777344 -785.7166137695313 362.9636535644531 -800.3931274414063 366.7742919921875 -813.0252685546875 C 369.7375793457031 -822.8486328125 375.4707641601563 -830.590087890625 383.0132446289063 -835.0127563476563 C 383.6237487792969 -835.583251953125 384.4461975097656 -836.3114013671875 385.4922180175781 -837.1541137695313 C 386.8572082519531 -838.2684326171875 388.6533508300781 -839.6071166992188 390.9064025878906 -841.059326171875 C 393.5589599609375 -842.7684936523438 396.4155578613281 -844.3652954101563 399.427001953125 -845.8233642578125 L 399.427001953125 -982.2160034179688 C 399.427001953125 -989.6284790039063 405.4575500488281 -995.6589965820313 412.8700256347656 -995.6589965820313 C 418.4166870117188 -995.6589965820313 423.1893920898438 -992.28271484375 425.24072265625 -987.4769897460938 L 599.875 -987.4769897460938 C 612.2159423828125 -987.4769897460938 622.2559814453125 -977.4369506835938 622.2559814453125 -965.0960083007813 L 622.2559814453125 -880.7780151367188 C 622.2559814453125 -868.4370727539063 612.2159423828125 -858.3969116210938 599.875 -858.3969116210938 L 426.3130187988281 -858.3969116210938 L 426.3130187988281 -854.38134765625 C 426.7692260742188 -854.4649047851563 427.2263793945313 -854.5459594726563 427.6843566894531 -854.6243896484375 C 432.2987976074219 -855.427001953125 437.1742858886719 -856.00244140625 442.1504821777344 -856.330322265625 C 445.4501342773438 -856.548583984375 448.9125366210938 -856.6666870117188 452.5396118164063 -856.6666870117188 C 456.8377380371094 -856.6666870117188 461.3689575195313 -856.5007934570313 466.1386108398438 -856.139404296875 C 473.2986755371094 -855.0079956054688 478.6246032714844 -852.9384155273438 483.0465087890625 -849.7449340820313 C 490.5623168945313 -846.7041015625 501.6820373535156 -838.0020141601563 511.8334045410156 -819.7803344726563 C 513.5736083984375 -820.899658203125 515.3025512695313 -821.9658203125 516.9976806640625 -822.9736328125 C 527.7015380859375 -829.3287963867188 542.088134765625 -832.971923828125 556.4737548828125 -832.971923828125 C 557.7949829101563 -832.971923828125 559.0790405273438 -832.9402465820313 560.3165283203125 -832.8802490234375 C 562.5369262695313 -832.7722778320313 564.6116943359375 -832.5751953125 566.4990234375 -832.3089599609375 C 571.7548217773438 -831.5496826171875 575.6861572265625 -830.2732543945313 578.5506591796875 -828.4021606445313 C 586.363037109375 -823.3253173828125 591.2586669921875 -814.1090087890625 593.1569213867188 -807.5427856445313 C 599.0311889648438 -804.1526489257813 602.9456176757813 -799.6520385742188 604.6365356445313 -797.4602661132813 C 609.3905029296875 -793.1576538085938 613.4810791015625 -787.1104125976563 616.80712890625 -779.463623046875 C 623.0614013671875 -765.0938110351563 625.0955200195313 -748.632080078125 625.6797485351563 -742.2216186523438 L 625.9072875976563 -739.426025390625 C 625.960205078125 -738.6869506835938 626.004638671875 -737.96630859375 626.0411987304688 -737.26611328125 C 626.879150390625 -736.71533203125 627.6947631835938 -736.1510009765625 628.4336547851563 -735.5969848632813 C 629.5571899414063 -734.7526245117188 630.5729370117188 -733.6985473632813 631.5484619140625 -732.3676147460938 C 637.3270263671875 -724.460693359375 644.12158203125 -702.7305297851563 633.6796264648438 -688.2784423828125 C 630.7924194335938 -684.2824096679688 603.0767822265625 -649.2367553710938 520.145263671875 -649.2367553710938 Z"/>
    </g>
    <path id="路径_6379" data-name="路径 6379" class="cls-5" d="M501.563-777.366l-39.73,44.124-51.78-23.03-8.87-3.943s-23.454-58.574-12.126-66.713a26.252,26.252,0,0,1,2.709-2.439l.073-.055a49.045,49.045,0,0,1,4.485-3.232,72.046,72.046,0,0,1,9.712-5.215h.006a87.992,87.992,0,0,1,10.3-3.827h.006a105.545,105.545,0,0,1,13.029-3.072h.006a126.756,126.756,0,0,1,13.429-1.584,159.5,159.5,0,0,1,22.575.184c17.987,2.928,20.491,15.162,26.98,33.67a109.857,109.857,0,0,1,4.684,16.417C499.025-783.988,501.563-777.366,501.563-777.366Z"/>
    <path id="路径_6380" data-name="路径 6380" class="cls-6" d="M501.379-777.341,461.648-735.1l-51.779-23.03c-1.622-7.746-1.665-14.043,1.339-16.567a26.417,26.417,0,0,1,2.513-2.642l.073-.055a47.9,47.9,0,0,1,4.221-3.563,71.73,71.73,0,0,1,9.288-5.94h.006a88.491,88.491,0,0,1,9.976-4.6h.006a104.968,104.968,0,0,1,12.759-4.054h.007a124.689,124.689,0,0,1,13.268-2.6,159.631,159.631,0,0,1,22.527-1.536c2.9.1,8.4.209,10.7.7A209.539,209.539,0,0,1,501.379-777.341Z"/>
    <path id="路径_6381" data-name="路径 6381" class="cls-7" d="M625.574-694.135c-8.158,11.291-43.081,38.479-120.458,34.505-37.454-1.929-66.6-9.583-87.574-17.766-22.355-8.723-35.421-18.042-39.358-21.654-7.636-7-16.943-12.759-15.481-31.261s14.221-20.813,14.221-20.813l103.037,12.513,64.734,2.8,69.171,2.992a76.032,76.032,0,0,1,8.569,5.228C625.783-725.084,633.732-705.426,625.574-694.135Z"/>
    <path id="路径_6382" data-name="路径 6382" class="cls-8" d="M625.574-694.135c-8.158,11.291-43.081,38.479-120.458,34.505-37.454-1.929-66.6-9.583-87.574-17.766-.639-.5-17.5-13.686-11.654-12.765,5.959.94,16.943.313,8.73-3.581s-7.353-7.452-7.353-7.452L544.7-735.816l69.171,2.992a76.032,76.032,0,0,1,8.569,5.228C625.783-725.084,633.732-705.426,625.574-694.135Z"/>
    <path id="路径_6383" data-name="路径 6383" class="cls-9" d="M377.07-750.467s-12.482,5.62-7.15,17.226,31.892,38.27,83.127,46.425,113.345,9.829,153.705-13.593c19.031-11.083,18.748-22.185,16.733-26.045-3.427-3.7-19.5-11.466-19.5-11.466L472.7-738.654Z"/>
    <path id="路径_6384" data-name="路径 6384" class="cls-3" d="M597.236-790.648s-28.546,43.6-51.337,71-88.876-.209-134.261-10.038-21.789-27.742-31.587-45.249-6.469-44.045,9.006-51.994c-2.556,2.721-3.526,26.316,8.575,45.316a52.235,52.235,0,0,0,7.7,9.5v.006s3.668,3,9.442,7.021c10.142,7.077,26.784,17.33,41.472,20.088,4.072.762,8.938,1.634,14.995,2.654,75.288-71.634,113.031-58.346,113.031-58.346C592.4-797.811,597.236-790.648,597.236-790.648Z"/>
    <path id="路径_6385" data-name="路径 6385" class="cls-1" d="M437.574-727.283c-1.99,1.886-13.281-5.541-13.281-5.541l-26.661-48.788a52.235,52.235,0,0,0,7.7,9.5v.006s3.668,3,9.442,7.021C421.455-754.472,436.6-730.287,437.574-727.283Z"/>
    <path id="路径_6386" data-name="路径 6386" class="cls-10" d="M615.954-727.91l-1.419,1.88c-.743.971-1.493,1.935-2.279,2.894-7.838,9.6-18.785,18.373-55.748,25.9H556.5c-1.449.295-2.936.59-4.472.885l-.694.129a272.4,272.4,0,0,1-71.375,2.887q-1.981-.185-3.926-.405a226.563,226.563,0,0,1-22.532-3.7c-1.044-.234-2.07-.467-3.09-.707a184.6,184.6,0,0,1-36.029-12.267q-2.018-.941-3.925-1.9a113.464,113.464,0,0,1-19.191-11.935c-.946-.738-1.83-1.475-2.66-2.193A37.561,37.561,0,0,1,381-734.912a41.077,41.077,0,0,1-2.887-9.682c-2.629-15.026,1.935-30.34,1.935-30.34,11.408,32.6,49.052,45.716,68.814,50.9s29.173,4.545,35.8-3.275c51.958-71.5,95.634-67.3,112.57-63.334,4.294,3.606,7.716,9,10.4,15.173,4.711,10.824,7.162,24.044,8.084,34.161.08.879.153,1.733.209,2.562A61.5,61.5,0,0,1,615.954-727.91Z"/>
    <path id="路径_6387" data-name="路径 6387" class="cls-11" d="M615.954-727.91l-1.419,1.88c-.743.971-1.493,1.935-2.279,2.894-7.838,9.6-18.785,18.373-55.748,25.9H556.5c-1.449.295-2.936.59-4.472.885l-.694.129a272.4,272.4,0,0,1-71.375,2.887q-1.981-.185-3.926-.405a226.563,226.563,0,0,1-22.532-3.7c-1.044-.234-2.07-.467-3.09-.707a184.6,184.6,0,0,1-36.029-12.267q-2.018-.941-3.925-1.9a113.464,113.464,0,0,1-19.191-11.935c-.946-.738-1.83-1.475-2.66-2.193A37.561,37.561,0,0,1,381-734.912a41.077,41.077,0,0,1-2.887-9.682l.006-.006s78.225,78.538,237.6,5.946c.067-.03.141-.061.209-.1A61.5,61.5,0,0,1,615.954-727.91Z"/>
    <path id="路径_6388" data-name="路径 6388" class="cls-12" d="M584.269-800.685a75.039,75.039,0,0,0-25.77,2.057q-3.336.82-6.641,1.88c-14.583,4.657-28.571,12.569-40.7,21-2.912,2.015-5.713,4.067-8.391,6.112-7.1,5.412-13.318,10.763-18.337,15.345h-.006c-7.053,6.444-11.727,11.377-13.134,12.845-14.369,1.272-1.646-20.155-1.646-20.155,8.919-18.146,24.744-33.547,40.083-44.635,1.634-1.185,3.261-2.322,4.877-3.4,2.549-1.714,5.062-3.292,7.5-4.742,11.837-7.028,26.82-9.043,37.724-8.514,1.892.092,3.661.258,5.27.485,3.613.522,6.42,1.357,7.98,2.377,5.037,3.274,9.061,10.087,10.56,15.591A17,17,0,0,1,584.269-800.685Z"/>
    <ellipse id="椭圆_836" data-name="椭圆 836" class="cls-13" cx="14.607" cy="22.011" rx="14.607" ry="22.011" transform="translate(513.483 -748.115) rotate(-27.181)"/>
    <ellipse id="椭圆_837" data-name="椭圆 837" class="cls-14" cx="11.627" cy="17.862" rx="11.627" ry="17.862" transform="translate(518.712 -745.664) rotate(-27.181)"/>
    <ellipse id="椭圆_838" data-name="椭圆 838" class="cls-15" cx="2.668" cy="5.091" rx="2.668" ry="5.091" transform="translate(536.462 -745.039) rotate(-30)"/>
    <path id="路径_6389" data-name="路径 6389" class="cls-13" d="M615.721-741.314a8.381,8.381,0,0,1-2.7,1.284c-6.487,1.751-13.883-4.754-16.519-14.528s.486-19.117,6.973-20.868a8.519,8.519,0,0,1,4.159-.049C612.348-764.651,614.8-751.431,615.721-741.314Z"/>
    <path id="路径_6390" data-name="路径 6390" class="cls-14" d="M612.657-743.148c-5.163,1.392-11.083-3.909-13.222-11.841s.313-15.491,5.477-16.884a12.434,12.434,0,0,1,4-.472c1.5.233,10.109,19.738,6.508,28.1C615.2-743.619,612.657-743.148,612.657-743.148Z"/>
    <ellipse id="椭圆_839" data-name="椭圆 839" class="cls-15" cx="2.539" cy="5.537" rx="2.539" ry="5.537" transform="matrix(0.968, -0.249, 0.249, 0.968, 606.121, -767.081)"/>
    <path id="路径_6391" data-name="路径 6391" class="cls-16" d="M590.754-778.725"/>
    <path id="路径_6392" data-name="路径 6392" class="cls-17" d="M467.054-705.445c-7.132-1.3-13.895,1.849-16.641,7.292,1.02.24,2.046.473,3.09.707a226.563,226.563,0,0,0,22.532,3.7q1.944.221,3.926.405C479.045-699.148,473.947-704.185,467.054-705.445Z"/>
    <path id="路径_6393" data-name="路径 6393" class="cls-18" d="M476.035-693.742a226.563,226.563,0,0,1-22.532-3.7c2.322-3.447,7.267-5.32,12.5-4.362C471.047-700.88,474.9-697.6,476.035-693.742Z"/>
    <path id="路径_6394" data-name="路径 6394" class="cls-17" d="M406.994-726.791c-6.032-4-13.484-3.662-18.386.344,5.867,5.1,14.528,10.78,25.776,16.027A16.426,16.426,0,0,0,406.994-726.791Z"/>
    <path id="路径_6395" data-name="路径 6395" class="cls-18" d="M410.459-712.319a113.464,113.464,0,0,1-19.191-11.935c3.612-2.574,8.926-2.574,13.312.4A13,13,0,0,1,410.459-712.319Z"/>
    <path id="路径_6396" data-name="路径 6396" class="cls-19" d="M614.535-726.03c-.743.971-1.493,1.935-2.279,2.894-7.838,9.6-18.785,18.373-55.748,25.9H556.5c-1.449.295-2.936.59-4.472.885,0,0-2.942-30.352,30.777-40.39C602.145-742.5,610.726-734.175,614.535-726.03Z"/>
    <path id="路径_6397" data-name="路径 6397" class="cls-20" d="M612.256-723.136c-.835,1.025-1.708,2.039-2.648,3.047v.006a49.7,49.7,0,0,1-4.392,4.177.019.019,0,0,1-.012.006l-1.321,1.063c-.977.755-2.027,1.511-3.157,2.254-1.383.916-2.894,1.819-4.552,2.715l-1.247.652c-1.333.682-2.758,1.363-4.288,2.027-.025.012-.043.024-.062.031l-.073.03c-1.45.633-2.986,1.26-4.632,1.88l-.031.012-1.468.541c-1.487.54-3.047,1.069-4.693,1.6l-.344.1q-1.954.627-4.085,1.235l-.35.1-1.653.46c-1.222.338-2.469.67-3.772,1-1.529.393-3.12.786-4.773,1.167l-.031.006-1.9.442q-3,.674-6.26,1.339H556.5a37.264,37.264,0,0,1,4.356-18.048c.442-.823.933-1.658,1.474-2.481a32.264,32.264,0,0,1,4.214-5.173,32.422,32.422,0,0,1,3.373-2.924c.485-.368.982-.731,1.505-1.075v-.006a36.682,36.682,0,0,1,4.595-2.623,40.508,40.508,0,0,1,4.6-1.874c.282-.1.565-.19.854-.282.27-.086.534-.166.8-.252,1.788-.541,3.471-.965,5.062-1.278a39.812,39.812,0,0,1,4.146-.608c.486-.043.953-.08,1.413-.1a27.141,27.141,0,0,1,5.2.2,21.474,21.474,0,0,1,3.231.707c.565.172,1.1.362,1.615.571a16.8,16.8,0,0,1,5.357,3.428.019.019,0,0,1,.006.012A16.293,16.293,0,0,1,612.256-723.136Z"/>
    <path id="路径_6398" data-name="路径 6398" class="cls-19" d="M569.476-700.192l-4.773,1.167-.031.006-2.34-18.748a32.264,32.264,0,0,1,4.214-5.173Z"/>
    <path id="路径_6399" data-name="路径 6399" class="cls-21" d="M564.672-699.019l-1.9.442-1.91-16.709c.442-.823.933-1.658,1.474-2.481Z"/>
    <path id="路径_6400" data-name="路径 6400" class="cls-19" d="M579.68-703.1l-.344.1-4.085,1.235-.35.1-3.477-25.285v-.006a36.682,36.682,0,0,1,4.595-2.623Z"/>
    <path id="路径_6401" data-name="路径 6401" class="cls-21" d="M574.9-701.654l-1.653.46-3.329-24.67c.485-.368.982-.731,1.505-1.075Z"/>
    <path id="路径_6402" data-name="路径 6402" class="cls-19" d="M590.639-707.189v.006l-.062.025-.073.03-4.632,1.88-.031.012-3.569-26.74c1.788-.541,3.471-.965,5.062-1.278Z"/>
    <path id="路径_6403" data-name="路径 6403" class="cls-21" d="M585.841-705.236l-1.468.541-3.753-26.747c.282-.1.565-.19.854-.282.27-.086.534-.166.8-.252Z"/>
    <path id="路径_6404" data-name="路径 6404" class="cls-19" d="M600.726-712.583c-1.383.916-2.894,1.819-4.552,2.715l-3.281-24.092a27.141,27.141,0,0,1,5.2.2S600.48-715.151,600.726-712.583Z"/>
    <path id="路径_6405" data-name="路径 6405" class="cls-21" d="M596.174-709.868l-1.247.652-3.447-24.646c.486-.043.953-.08,1.413-.1Z"/>
    <path id="路径_6406" data-name="路径 6406" class="cls-19" d="M609.608-720.089v.006a49.7,49.7,0,0,1-4.392,4.177.019.019,0,0,1-.012.006l-2.261-16.58a16.8,16.8,0,0,1,5.357,3.428.019.019,0,0,1,.006.012S609.265-722.842,609.608-720.089Z"/>
    <path id="路径_6407" data-name="路径 6407" class="cls-21" d="M605.2-715.9l-1.321,1.063-2.555-18.214c.565.172,1.1.362,1.615.571Z"/>
    <path id="路径_6408" data-name="路径 6408" class="cls-22" d="M584.269-800.685a75.039,75.039,0,0,0-25.77,2.057q-3.336.82-6.641,1.88c-14.583,4.657-28.571,12.569-40.7,20.991v.006c-.725.5-1.45,1.007-2.162,1.517s-1.419,1.02-2.12,1.53-1.394,1.02-2.076,1.529-1.364,1.026-2.033,1.536c-7.1,5.412-13.318,10.763-18.337,15.345A200.174,200.174,0,0,1,503.8-775.051c2.487-2.334,5.166-4.73,8.01-7.107,12.126-10.161,27.183-20.076,42.854-23.792a59.618,59.618,0,0,1,6.179-1.13,45.733,45.733,0,0,1,22.8,2.641A17,17,0,0,1,584.269-800.685Z"/>
    <path id="路径_6409" data-name="路径 6409" class="cls-23" d="M514.607-809.636l-2.795,27.478c-2.844,2.377-5.523,4.773-8.01,7.107l5.928-31.188C511.364-807.424,512.991-808.561,514.607-809.636Z"/>
    <path id="路径_6410" data-name="路径 6410" class="cls-24" d="M511.812-782.158l-.651,6.4v.006c-.725.5-1.45,1.007-2.162,1.517s-1.419,1.02-2.12,1.53-1.394,1.02-2.076,1.529-1.364,1.026-2.033,1.536l1.032-5.412C506.289-777.385,508.968-779.781,511.812-782.158Z"/>
    <path id="路径_6411" data-name="路径 6411" class="cls-23" d="M565.1-822.407l-4.257,15.327a59.618,59.618,0,0,0-6.179,1.13l5.166-16.942C561.724-822.8,563.493-822.634,565.1-822.407Z"/>
    <path id="路径_6412" data-name="路径 6412" class="cls-24" d="M560.845-807.08l-2.346,8.452q-3.336.82-6.641,1.88l2.808-9.2A59.618,59.618,0,0,1,560.845-807.08Z"/>
    <ellipse id="椭圆_840" data-name="椭圆 840" class="cls-1" cx="6.431" cy="3" rx="6.431" ry="3" transform="translate(461.882 -729.568)"/>
    <path id="路径_6413" data-name="路径 6413" class="cls-25" d="M393.937-830.132a1.581,1.581,0,0,0,.564,2.84c7.917,1.7,30.982,3.607,71.512-16.575C470.676-846.4,422.059-850.116,393.937-830.132Z"/>
    <g id="组_2760" data-name="组 2760">
      <rect id="矩形_466" data-name="矩形 466" class="cls-26" width="142.062" height="9.346" rx="1.558" transform="translate(441.575 -913.271)"/>
      <text id="_5" data-name="5" class="cls-27" transform="translate(472.792 -952.098)"><tspan x="0" y="0">5</tspan></text>
      <text id="_8" data-name="8" class="cls-27" transform="translate(505.787 -880.129)"><tspan x="0" y="0">8</tspan></text>
      <line id="直线_91" data-name="直线 91" class="cls-28" y2="34.145" transform="translate(524.554 -947.416)"/>
      <rect id="矩形_467" data-name="矩形 467" class="cls-26" width="82.246" height="9.346" rx="1.558" transform="translate(441.575 -947.416)"/>
      <g id="组_2759" data-name="组 2759">
        <path id="路径_6414" data-name="路径 6414" class="cls-29" d="M583.637-918.2a.825.825,0,0,1-.789.858.826.826,0,0,1-.79-.858c0-2.4,0-4.479-14.29-4.479-5.8,0-9.872-1.348-12.107-4.005a7.45,7.45,0,0,1-.89-1.32,7.052,7.052,0,0,1-.688,1.026c-2.295,2.852-6.829,4.3-13.475,4.3-11,0-13.608,2.2-14.219,3.143a1.229,1.229,0,0,0-.226,1.013.876.876,0,0,1-.406,1.12.778.778,0,0,1-1.047-.449,2.955,2.955,0,0,1,.318-2.56c1.582-2.643,6.823-3.983,15.58-3.983,7.63,0,10.871-1.992,12.246-3.664a4.72,4.72,0,0,0,1.127-2.688,4.013,4.013,0,0,1,0-.547.82.82,0,0,1,.769-.78.813.813,0,0,1,.8.743,3.6,3.6,0,0,1,.014.563,5.288,5.288,0,0,0,1.3,2.969c1.33,1.552,4.3,3.4,10.905,3.4C581.432-924.394,583.637-922.568,583.637-918.2Z"/>
      </g>
      <text id="_" data-name="?" class="cls-30" transform="translate(549.756 -935.739)"><tspan x="0" y="0">?</tspan></text>
    </g>
  </g>
</svg>
