<svg xmlns="http://www.w3.org/2000/svg" width="148.494" height="71.898" viewBox="0 0 148.494 71.898">
  <defs>
    <style>
      .cls-1, .cls-3, .cls-4, .cls-6 {
        fill: #fff;
      }

      .cls-2 {
        fill: #8ca6fd;
      }

      .cls-3 {
        font-size: 28.534px;
        font-family: TimesNewRomanPS-BoldMT, Times New Roman;
        font-weight: 700;
        letter-spacing: 0.05em;
      }

      .cls-5, .cls-6 {
        stroke: none;
      }
    </style>
  </defs>
  <g id="组_6662" data-name="组 6662" transform="translate(3 3)">
    <g id="路径_6997" data-name="路径 6997" class="cls-1" transform="translate(-907.897 -182.537)">
      <path class="cls-5" d="M 1019.6767578125 249.9346923828125 L 979.1439208984375 249.9346923828125 L 938.611083984375 249.9346923828125 C 936.3775634765625 249.9346923828125 934.1867065429688 249.3234710693359 932.2753295898438 248.1670989990234 L 910.0176391601563 234.6929779052734 C 908.9146728515625 234.0255279541016 907.9971313476563 233.0793914794922 907.3642578125 231.9569396972656 C 906.7314453125 230.8346099853516 906.39697265625 229.5602722167969 906.39697265625 228.2716979980469 L 906.39697265625 215.4852905273438 L 906.39697265625 201.677001953125 C 906.39697265625 198.973876953125 907.8606567382813 196.4686737060547 910.216796875 195.1390533447266 L 932.4226684570313 182.6143188476563 C 934.2525024414063 181.5824127197266 936.3311767578125 181.0370178222656 938.43408203125 181.0370178222656 L 979.1439208984375 181.0370178222656 L 1019.853881835938 181.0370178222656 C 1021.957214355469 181.0370178222656 1024.03564453125 181.5824890136719 1025.864379882813 182.6144561767578 L 1048.070922851563 195.1388702392578 C 1050.427368164063 196.4686889648438 1051.890991210938 198.973876953125 1051.890991210938 201.677001953125 L 1051.890991210938 215.4852905273438 L 1051.890991210938 228.2716979980469 C 1051.890991210938 229.5602722167969 1051.556518554688 230.8346099853516 1050.923706054688 231.9569396972656 C 1050.290893554688 233.0793914794922 1049.373291015625 234.0255279541016 1048.270141601563 234.6930999755859 L 1026.01171875 248.1669006347656 C 1024.101440429688 249.3233947753906 1021.910827636719 249.9346923828125 1019.6767578125 249.9346923828125 Z"/>
      <path class="cls-6" d="M 1019.6767578125 248.4346923828125 C 1021.636962890625 248.4346923828125 1023.559692382813 247.8979034423828 1025.234985351563 246.8836822509766 L 1047.493530273438 233.4097900390625 C 1049.293090820313 232.3207702636719 1050.390991210938 230.3726959228516 1050.390991210938 228.2716827392578 L 1050.390991210938 215.4852905273438 L 1050.390991210938 201.677001953125 C 1050.390991210938 199.5099792480469 1049.222778320313 197.5112915039063 1047.333984375 196.4454040527344 L 1025.127197265625 183.9208068847656 C 1023.51904296875 183.0133209228516 1021.701904296875 182.5370178222656 1019.853881835938 182.5370178222656 L 979.1439208984375 182.5370178222656 L 938.43408203125 182.5370178222656 C 936.5860595703125 182.5370178222656 934.768798828125 183.0133209228516 933.1595458984375 183.9208068847656 L 910.9539794921875 196.4454040527344 C 909.065185546875 197.5112915039063 907.89697265625 199.5099792480469 907.89697265625 201.677001953125 L 907.89697265625 215.4852905273438 L 907.89697265625 228.2716827392578 C 907.89697265625 230.3726959228516 908.994873046875 232.3207702636719 910.79443359375 233.4097900390625 L 933.0517578125 246.8836822509766 C 934.7281494140625 247.8979034423828 936.6510009765625 248.4346923828125 938.611083984375 248.4346923828125 L 979.1439208984375 248.4346923828125 L 1019.6767578125 248.4346923828125 M 1019.6767578125 251.4346923828125 L 979.1439208984375 251.4346923828125 L 938.611083984375 251.4346923828125 C 936.1038208007813 251.4346923828125 933.6444702148438 250.7485656738281 931.4988403320313 249.4505004882813 L 909.2408447265625 235.9761657714844 C 907.9177856445313 235.175537109375 906.8169555664063 234.0403747558594 906.0576171875 232.6936492919922 C 905.29833984375 231.3469390869141 904.89697265625 229.8178558349609 904.89697265625 228.2716827392578 L 904.89697265625 215.4852905273438 L 904.89697265625 201.677001953125 C 904.89697265625 198.4336242675781 906.6528930664063 195.4278564453125 909.4795532226563 193.8327026367188 L 931.6857299804688 181.3077850341797 C 933.7400512695313 180.1493072509766 936.0735473632813 179.5370178222656 938.43408203125 179.5370178222656 L 979.1439208984375 179.5370178222656 L 1019.853881835938 179.5370178222656 C 1022.215026855469 179.5370178222656 1024.54833984375 180.1494598388672 1026.6015625 181.30810546875 L 1048.807739257813 193.8323364257813 C 1051.635009765625 195.4278717041016 1053.390991210938 198.4336242675781 1053.390991210938 201.677001953125 L 1053.390991210938 215.4852905273438 L 1053.390991210938 228.2716827392578 C 1053.390991210938 229.8178558349609 1052.989624023438 231.3469390869141 1052.230346679688 232.6936492919922 C 1051.471069335938 234.0403747558594 1050.3701171875 235.175537109375 1049.046752929688 235.9764251708984 L 1026.78857421875 249.4501037597656 C 1024.643920898438 250.7484130859375 1022.184692382813 251.4346923828125 1019.6767578125 251.4346923828125 Z"/>
    </g>
    <path id="路径_6998" data-name="路径 6998" class="cls-2" d="M979.144,243.986H1016.2a10.241,10.241,0,0,0,5.081-1.341l20.35-11.655a5.144,5.144,0,0,0,2.649-4.444v-23a5.155,5.155,0,0,0-2.795-4.525l-20.3-10.834a10.249,10.249,0,0,0-4.821-1.2H941.923a10.249,10.249,0,0,0-4.821,1.2l-20.3,10.834A5.156,5.156,0,0,0,914,203.541v23a5.144,5.144,0,0,0,2.649,4.444L937,242.645a10.248,10.248,0,0,0,5.082,1.341Z" transform="translate(-907.897 -182.537)"/>
    <text id="_5_3_1" data-name="5+3  1" class="cls-3" transform="translate(30.808 41.099)"><tspan x="0" y="0" xml:space="preserve">5+3  1</tspan></text>
    <rect id="矩形_2326" data-name="矩形 2326" class="cls-4" width="15" height="2" transform="translate(83.202 31.826)"/>
  </g>
</svg>
