<svg xmlns="http://www.w3.org/2000/svg" width="237.156" height="290.387" viewBox="0 0 237.156 290.387">
  <defs>
    <style>
      .cls-1 {
        fill: #abd6ff;
      }

      .cls-2 {
        fill: #a86a47;
      }

      .cls-3 {
        fill: #ffd858;
      }

      .cls-4 {
        fill: #ee6457;
      }

      .cls-5 {
        fill: #e35546;
      }

      .cls-6 {
        fill: #f36e3a;
      }

      .cls-7 {
        fill: #f6804e;
      }

      .cls-8 {
        fill: #fa9e49;
      }

      .cls-9 {
        fill: #ffe58f;
      }

      .cls-10 {
        fill: #5266ae;
      }

      .cls-11 {
        fill: #525f9b;
      }

      .cls-12 {
        fill: #f37366;
      }

      .cls-13 {
        fill: #e3d8e3;
      }

      .cls-14 {
        fill: #fdb74f;
      }

      .cls-15 {
        fill: #fede81;
      }

      .cls-16 {
        fill: none;
        stroke: #1f8a5d;
        stroke-miterlimit: 10;
      }

      .cls-17 {
        fill: #ebf393;
      }

      .cls-18 {
        fill: #4eb092;
      }

      .cls-19 {
        fill: #f17669;
      }

      .cls-20 {
        fill: #665855;
      }

      .cls-21 {
        fill: #e85c52;
      }

      .cls-22 {
        fill: #e66153;
      }

      .cls-23 {
        fill: #fd8f8b;
      }

      .cls-24 {
        fill: #f28580;
      }

      .cls-25 {
        fill: #f37464;
      }

      .cls-26 {
        fill: #3581f2;
      }

      .cls-27 {
        fill: #fff;
      }

      .cls-28 {
        fill: #96420f;
        font-size: 24.279px;
        font-family: TimesNewRomanPS-BoldMT, Times New Roman;
        font-weight: 700;
      }
    </style>
  </defs>
  <g id="组_2784" data-name="组 2784" transform="translate(-1185.364 1766.523)">
    <rect id="矩形_471" data-name="矩形 471" class="cls-1" width="179.488" height="97.039" rx="11.015" transform="translate(1228.015 -1759.245)"/>
    <path id="路径_6617" data-name="路径 6617" class="cls-2" d="M1233.192-1763.46V-1576.8h-6.126V-1763.46a3.063,3.063,0,0,1,3.063-3.063h0A3.064,3.064,0,0,1,1233.192-1763.46Z"/>
    <path id="路径_6618" data-name="路径 6618" class="cls-3" d="M1287.982-1637.932s14.318,4.014,26.8,32.128-7.7,11.118-7.7,11.118S1286.188-1626.272,1287.982-1637.932Z"/>
    <path id="路径_6619" data-name="路径 6619" class="cls-4" d="M1309.031-1581.224l-35.345,39.253-46.063-20.488-7.891-3.508s-20.865-52.107-10.788-59.348a23.428,23.428,0,0,1,2.41-2.17l.066-.049a43.643,43.643,0,0,1,3.989-2.874,64.007,64.007,0,0,1,8.64-4.64h.005a78.581,78.581,0,0,1,9.159-3.405h.006a93.952,93.952,0,0,1,11.591-2.732h0a112.77,112.77,0,0,1,11.946-1.41,141.936,141.936,0,0,1,20.084.164c16,2.6,18.229,13.488,24,29.953a97.684,97.684,0,0,1,4.167,14.6A93.257,93.257,0,0,0,1309.031-1581.224Z"/>
    <path id="路径_6620" data-name="路径 6620" class="cls-5" d="M1308.867-1581.2l-35.345,37.579-46.063-20.488c-1.443-6.891-1.481-12.492,1.191-14.738a23.354,23.354,0,0,1,2.235-2.35l.066-.05a42.482,42.482,0,0,1,3.754-3.169,63.941,63.941,0,0,1,8.263-5.285h.006a78.831,78.831,0,0,1,8.874-4.093h.006a93.274,93.274,0,0,1,11.35-3.607h.006a110.928,110.928,0,0,1,11.8-2.311,142.014,142.014,0,0,1,20.04-1.366,80.136,80.136,0,0,1,9.52.623A186.2,186.2,0,0,1,1308.867-1581.2Z"/>
    <path id="路径_6621" data-name="路径 6621" class="cls-6" d="M1419.351-1507.182c-7.257,10.045-38.325,34.232-107.16,30.7-33.319-1.716-59.25-8.525-77.906-15.8-19.887-7.76-31.511-16.05-35.014-19.264-6.792-6.23-15.072-11.35-13.771-27.81s12.651-18.515,12.651-18.515l91.662,11.132,57.588,2.486,61.534,2.662a67.746,67.746,0,0,1,7.624,4.65C1419.537-1534.714,1426.609-1517.226,1419.351-1507.182Z"/>
    <path id="路径_6622" data-name="路径 6622" class="cls-7" d="M1419.351-1507.182c-7.257,10.045-38.325,34.232-107.16,30.7-33.319-1.716-59.25-8.525-77.906-15.8-.569-.448-15.57-12.176-10.367-11.356,5.3.836,15.072.279,7.765-3.186s-6.541-6.629-6.541-6.629l122.259-30.8,61.534,2.662a67.746,67.746,0,0,1,7.624,4.65C1419.537-1534.714,1426.609-1517.226,1419.351-1507.182Z"/>
    <path id="路径_6623" data-name="路径 6623" class="cls-8" d="M1198.281-1557.3s-11.1,5-6.361,15.325,28.371,34.044,73.95,41.3,100.832,8.744,136.737-12.093c16.93-9.86,16.678-19.736,14.886-23.169-3.049-3.294-17.351-10.2-17.351-10.2l-116.784-.653Z"/>
    <path id="路径_6624" data-name="路径 6624" class="cls-3" d="M1394.142-1593.04s-25.4,38.79-45.67,63.163-79.065-.186-119.439-8.93-19.384-24.679-28.1-40.254-5.755-39.183,8.011-46.254c-2.273,2.421-3.137,23.411,7.629,40.314a46.457,46.457,0,0,0,6.847,8.454v.005s3.263,2.667,8.4,6.247c9.022,6.3,23.827,15.416,36.893,17.87,3.623.677,7.951,1.453,13.34,2.361,66.977-63.726,100.553-51.905,100.553-51.905A25.937,25.937,0,0,1,1394.142-1593.04Z"/>
    <path id="路径_6625" data-name="路径 6625" class="cls-9" d="M1252.1-1536.67c-1.77,1.678-11.815-4.929-11.815-4.929l-23.717-43.4a46.457,46.457,0,0,0,6.847,8.454v.005s3.263,2.667,8.4,6.247C1237.766-1560.857,1251.236-1539.342,1252.1-1536.67Z"/>
    <path id="路径_6626" data-name="路径 6626" class="cls-10" d="M1410.793-1537.228q-.63.837-1.262,1.673c-.661.863-1.328,1.721-2.028,2.574-6.973,8.541-16.711,16.345-49.593,23.039h-.005c-1.29.263-2.613.525-3.979.787-.2.039-.41.077-.617.115a242.353,242.353,0,0,1-63.5,2.569q-1.763-.165-3.492-.361a201.487,201.487,0,0,1-20.045-3.295c-.929-.208-1.842-.416-2.749-.629a164.144,164.144,0,0,1-32.051-10.913q-1.8-.837-3.492-1.689a100.918,100.918,0,0,1-17.073-10.618c-.841-.656-1.628-1.312-2.366-1.951a33.357,33.357,0,0,1-6.765-7.53,36.562,36.562,0,0,1-2.569-8.613c-2.339-13.367,1.722-26.991,1.722-26.991,10.148,29,43.636,40.669,61.217,45.276s25.952,4.044,31.849-2.912c46.221-63.606,85.076-59.873,100.143-56.343,3.82,3.208,6.864,8.006,9.252,13.5,4.191,9.629,6.372,21.39,7.192,30.39.071.782.136,1.541.185,2.279A54.61,54.61,0,0,1,1410.793-1537.228Z"/>
    <path id="路径_6627" data-name="路径 6627" class="cls-11" d="M1410.793-1537.228q-.63.837-1.262,1.673c-.661.863-1.328,1.721-2.028,2.574-6.973,8.541-16.711,16.345-49.593,23.039h-.005c-1.29.263-2.613.525-3.979.787-.2.039-.41.077-.617.115a242.353,242.353,0,0,1-63.5,2.569q-1.763-.165-3.492-.361a201.487,201.487,0,0,1-20.045-3.295c-.929-.208-1.842-.416-2.749-.629a164.144,164.144,0,0,1-32.051-10.913q-1.8-.837-3.492-1.689a100.918,100.918,0,0,1-17.073-10.618c-.841-.656-1.628-1.312-2.366-1.951a33.357,33.357,0,0,1-6.765-7.53,36.562,36.562,0,0,1-2.569-8.613l.006-.005s69.589,69.867,211.369,5.289c.06-.027.125-.054.185-.087A54.61,54.61,0,0,1,1410.793-1537.228Z"/>
    <path id="路径_6628" data-name="路径 6628" class="cls-12" d="M1382.606-1601.969a66.759,66.759,0,0,0-22.925,1.83q-2.969.731-5.908,1.673c-12.973,4.142-25.417,11.181-36.2,18.678-2.591,1.793-5.083,3.618-7.465,5.438-6.318,4.814-11.848,9.574-16.313,13.651h-.005c-6.274,5.733-10.433,10.121-11.684,11.427-12.782,1.131-1.465-17.93-1.465-17.93,7.935-16.143,22.013-29.844,35.658-39.708q2.181-1.581,4.339-3.022c2.268-1.524,4.5-2.929,6.673-4.219,10.531-6.251,23.859-8.044,33.56-7.574,1.683.082,3.257.23,4.688.432a19,19,0,0,1,7.1,2.115c4.481,2.913,8.061,8.973,9.394,13.87A15.106,15.106,0,0,1,1382.606-1601.969Z"/>
    <ellipse id="椭圆_856" data-name="椭圆 856" class="cls-13" cx="12.995" cy="19.581" rx="12.995" ry="19.581" transform="translate(1319.635 -1555.202) rotate(-27.181)"/>
    <ellipse id="椭圆_857" data-name="椭圆 857" class="cls-14" cx="10.344" cy="15.89" rx="10.344" ry="15.89" transform="translate(1324.286 -1553.022) rotate(-27.181)"/>
    <ellipse id="椭圆_858" data-name="椭圆 858" class="cls-15" cx="2.373" cy="4.529" rx="2.373" ry="4.529" transform="translate(1340.077 -1552.466) rotate(-30)"/>
    <path id="路径_6629" data-name="路径 6629" class="cls-13" d="M1410.586-1549.152a7.474,7.474,0,0,1-2.4,1.142c-5.771,1.558-12.351-4.229-14.7-12.924s.431-17.007,6.2-18.564a7.568,7.568,0,0,1,3.7-.044C1407.585-1569.913,1409.766-1558.152,1410.586-1549.152Z"/>
    <path id="路径_6630" data-name="路径 6630" class="cls-14" d="M1407.861-1550.784c-4.594,1.239-9.86-3.477-11.763-10.534s.278-13.781,4.872-15.02a11.055,11.055,0,0,1,3.562-.419c1.331.207,8.993,17.558,5.79,25C1410.119-1551.2,1407.861-1550.784,1407.861-1550.784Z"/>
    <ellipse id="椭圆_859" data-name="椭圆 859" class="cls-15" cx="2.259" cy="4.926" rx="2.259" ry="4.926" transform="matrix(0.968, -0.249, 0.249, 0.968, 1402.046, -1572.075)"/>
    <path id="路径_6631" data-name="路径 6631" class="cls-16" d="M1388.376-1582.433"/>
    <path id="路径_6632" data-name="路径 6632" class="cls-17" d="M1278.331-1517.243c-6.345-1.158-12.361,1.645-14.8,6.487.907.213,1.82.421,2.749.629a201.487,201.487,0,0,0,20.045,3.295q1.729.2,3.492.361C1289-1511.641,1284.463-1516.122,1278.331-1517.243Z"/>
    <path id="路径_6633" data-name="路径 6633" class="cls-18" d="M1286.321-1506.832a201.487,201.487,0,0,1-20.045-3.295c2.065-3.066,6.465-4.733,11.121-3.88C1281.883-1513.182,1285.315-1510.264,1286.321-1506.832Z"/>
    <path id="路径_6634" data-name="路径 6634" class="cls-17" d="M1224.9-1536.233c-5.366-3.558-11.995-3.257-16.356.306,5.219,4.536,12.925,9.591,22.931,14.258A14.617,14.617,0,0,0,1224.9-1536.233Z"/>
    <path id="路径_6635" data-name="路径 6635" class="cls-18" d="M1227.984-1523.358a100.918,100.918,0,0,1-17.073-10.618c3.214-2.29,7.941-2.29,11.843.355A11.564,11.564,0,0,1,1227.984-1523.358Z"/>
    <path id="路径_6636" data-name="路径 6636" class="cls-19" d="M1409.531-1535.555c-.661.863-1.328,1.721-2.028,2.574-6.973,8.541-16.711,16.345-49.593,23.039h-.005c-1.29.263-2.613.525-3.979.787,0,0-2.617-27,27.379-35.931C1398.508-1550.207,1406.143-1542.8,1409.531-1535.555Z"/>
    <path id="路径_6637" data-name="路径 6637" class="cls-20" d="M1407.5-1532.981c-.743.912-1.519,1.814-2.355,2.71v.006a44.174,44.174,0,0,1-3.907,3.716.019.019,0,0,1-.011.005l-1.175.946c-.869.672-1.8,1.344-2.809,2.005-1.23.815-2.574,1.618-4.049,2.416l-1.11.579c-1.186.607-2.453,1.213-3.814,1.8-.022.011-.039.022-.055.028l-.065.027c-1.29.563-2.656,1.12-4.121,1.672l-.027.011-1.306.481c-1.323.481-2.711.951-4.176,1.421l-.306.093q-1.737.556-3.634,1.1l-.311.093-1.47.41c-1.088.3-2.2.6-3.356.891-1.36.35-2.776.7-4.246,1.038l-.027.006-1.694.393c-1.782.4-3.634.8-5.569,1.191h-.005a33.136,33.136,0,0,1,3.874-16.055c.394-.733.831-1.476,1.312-2.208a28.708,28.708,0,0,1,3.749-4.6,28.594,28.594,0,0,1,3-2.6c.432-.328.874-.65,1.339-.956v-.006a32.65,32.65,0,0,1,4.087-2.333,36.251,36.251,0,0,1,4.094-1.667c.251-.087.5-.169.759-.251.241-.077.476-.148.711-.224,1.59-.481,3.087-.858,4.5-1.137a35.417,35.417,0,0,1,3.688-.541c.432-.038.847-.071,1.257-.087a24.117,24.117,0,0,1,4.629.18,19.269,19.269,0,0,1,2.875.628c.5.153.983.323,1.437.509a14.952,14.952,0,0,1,4.765,3.049.017.017,0,0,1,.006.011A14.478,14.478,0,0,1,1407.5-1532.981Z"/>
    <path id="路径_6638" data-name="路径 6638" class="cls-19" d="M1369.446-1512.57l-4.246,1.038-.027.006-2.082-16.679a28.708,28.708,0,0,1,3.749-4.6Z"/>
    <path id="路径_6639" data-name="路径 6639" class="cls-21" d="M1365.173-1511.526l-1.694.393-1.7-14.864c.394-.733.831-1.476,1.312-2.208Z"/>
    <path id="路径_6640" data-name="路径 6640" class="cls-19" d="M1378.523-1515.155l-.306.093-3.634,1.1-.311.093-3.093-22.493v-.006a32.65,32.65,0,0,1,4.087-2.333Z"/>
    <path id="路径_6641" data-name="路径 6641" class="cls-21" d="M1374.272-1513.871l-1.47.41-2.962-21.947c.432-.328.874-.65,1.339-.956Z"/>
    <path id="路径_6642" data-name="路径 6642" class="cls-19" d="M1388.273-1518.8v.006l-.055.022-.065.027-4.121,1.672-.027.011-3.175-23.788c1.59-.481,3.087-.858,4.5-1.137Z"/>
    <path id="路径_6643" data-name="路径 6643" class="cls-21" d="M1384.005-1517.057l-1.306.481-3.339-23.794c.251-.087.5-.169.759-.251.241-.077.476-.148.711-.224Z"/>
    <path id="路径_6644" data-name="路径 6644" class="cls-19" d="M1397.246-1523.593c-1.23.815-2.574,1.618-4.049,2.416l-2.919-21.433a24.117,24.117,0,0,1,4.629.18S1397.027-1525.877,1397.246-1523.593Z"/>
    <path id="路径_6645" data-name="路径 6645" class="cls-21" d="M1393.2-1521.177l-1.11.579-3.066-21.925c.432-.038.847-.071,1.257-.087Z"/>
    <path id="路径_6646" data-name="路径 6646" class="cls-19" d="M1405.148-1530.271v.006a44.174,44.174,0,0,1-3.907,3.716.019.019,0,0,1-.011.005l-2.011-14.749a14.952,14.952,0,0,1,4.765,3.049.017.017,0,0,1,.006.011S1404.842-1532.719,1405.148-1530.271Z"/>
    <path id="路径_6647" data-name="路径 6647" class="cls-21" d="M1401.23-1526.544l-1.175.946-2.273-16.2c.5.153.983.323,1.437.509Z"/>
    <path id="路径_6648" data-name="路径 6648" class="cls-22" d="M1382.606-1601.969a66.759,66.759,0,0,0-22.925,1.83q-2.969.731-5.908,1.673c-12.973,4.142-25.417,11.181-36.2,18.673v.005c-.645.448-1.29.9-1.924,1.35s-1.262.907-1.885,1.361-1.241.907-1.847,1.361-1.214.912-1.809,1.366c-6.318,4.814-11.848,9.574-16.313,13.651a178.036,178.036,0,0,1,17.231-18.466c2.213-2.076,4.6-4.208,7.126-6.322,10.788-9.039,24.182-17.86,38.123-21.166a52.958,52.958,0,0,1,5.5-1.005,40.681,40.681,0,0,1,20.28,2.35A15.106,15.106,0,0,1,1382.606-1601.969Z"/>
    <path id="路径_6649" data-name="路径 6649" class="cls-23" d="M1320.634-1609.932l-2.486,24.445c-2.53,2.114-4.913,4.246-7.126,6.322l5.273-27.745Q1318.476-1608.491,1320.634-1609.932Z"/>
    <path id="路径_6650" data-name="路径 6650" class="cls-24" d="M1318.148-1585.487l-.579,5.694v.005c-.645.448-1.29.9-1.924,1.35s-1.262.907-1.885,1.361-1.241.907-1.847,1.361-1.214.912-1.809,1.366l.918-4.815C1313.235-1581.241,1315.618-1583.373,1318.148-1585.487Z"/>
    <path id="路径_6651" data-name="路径 6651" class="cls-23" d="M1365.555-1621.293l-3.787,13.635a52.958,52.958,0,0,0-5.5,1.005l4.6-15.072C1362.55-1621.643,1364.124-1621.495,1365.555-1621.293Z"/>
    <path id="路径_6652" data-name="路径 6652" class="cls-24" d="M1361.768-1607.658l-2.087,7.519q-2.969.731-5.908,1.673l2.5-8.187A52.958,52.958,0,0,1,1361.768-1607.658Z"/>
    <ellipse id="椭圆_860" data-name="椭圆 860" class="cls-9" cx="5.721" cy="2.668" rx="5.721" ry="2.668" transform="translate(1273.73 -1538.703)"/>
    <path id="路径_6653" data-name="路径 6653" class="cls-25" d="M1213.286-1628.165a1.407,1.407,0,0,0,.5,2.527c7.043,1.511,27.562,3.208,63.617-14.746C1281.553-1642.641,1238.3-1645.943,1213.286-1628.165Z"/>
    <g id="组_2783" data-name="组 2783">
      <rect id="矩形_472" data-name="矩形 472" class="cls-26" width="62.668" height="49.705" transform="translate(1264.677 -1724.166)"/>
      <rect id="矩形_473" data-name="矩形 473" class="cls-27" width="47.446" height="49.705" transform="translate(1327.345 -1724.166)"/>
      <text id="_" data-name="?" class="cls-28" transform="translate(1289.701 -1691.954)"><tspan x="0" y="0">?</tspan></text>
      <text id="_5" data-name="5" class="cls-28" transform="translate(1313.261 -1734.305)"><tspan x="0" y="0">5</tspan></text>
      <text id="_2" data-name="2" class="cls-28" transform="translate(1345.301 -1691.954)"><tspan x="0" y="0">2</tspan></text>
    </g>
  </g>
</svg>
