<svg xmlns="http://www.w3.org/2000/svg" width="225.212" height="219.741" viewBox="0 0 225.212 219.741">
  <defs>
    <style>
      .cls-1 {
        fill: #ace3c9;
      }

      .cls-2 {
        fill: #06757b;
      }

      .cls-3 {
        fill: #13c96b;
      }

      .cls-4 {
        fill: #fff;
        font-size: 26.275px;
      }

      .cls-4, .cls-6 {
        font-family: TimesNewRomanPS-BoldMT, Times New Roman;
        font-weight: 700;
      }

      .cls-5, .cls-6 {
        fill: #964615;
      }

      .cls-6 {
        font-size: 33.79px;
      }
    </style>
  </defs>
  <g id="组_2671" data-name="组 2671" transform="translate(2036.052 -198.587)">
    <path id="矩形_378" data-name="矩形 378" class="cls-1" d="M0,0H215.37a9.842,9.842,0,0,1,9.842,9.842v209.9a0,0,0,0,1,0,0H0a0,0,0,0,1,0,0V0A0,0,0,0,1,0,0Z" transform="translate(-2036.052 198.587)"/>
    <g id="组_2670" data-name="组 2670">
      <rect id="矩形_379" data-name="矩形 379" class="cls-2" width="76.063" height="60.329" transform="translate(-1990.69 303.887)"/>
      <rect id="矩形_380" data-name="矩形 380" class="cls-3" width="57.587" height="60.329" transform="translate(-1914.628 303.887)"/>
      <text id="_4" data-name="4" class="cls-4" transform="translate(-1960.318 342.984)"><tspan x="0" y="0">4</tspan></text>
      <text id="_3" data-name="3" class="cls-4" transform="translate(-1892.833 342.984)"><tspan x="0" y="0">3</tspan></text>
      <g id="组_2669" data-name="组 2669">
        <path id="路径_5993" data-name="路径 5993" class="cls-5" d="M-1990.69,298.01a1.637,1.637,0,0,0,1.8,1.4,1.638,1.638,0,0,0,1.8-1.4c0-3.936,0-7.335,32.528-7.335,13.2,0,22.471-2.207,27.559-6.559a12.785,12.785,0,0,0,2.025-2.16,12.09,12.09,0,0,0,1.567,1.679c5.224,4.671,15.544,7.04,30.673,7.04,25.035,0,30.975,3.6,32.366,5.147.822.913.547,1.587.513,1.66-.4.71.018,1.518.925,1.833a2.046,2.046,0,0,0,2.383-.735,3.673,3.673,0,0,0-.724-4.193c-3.6-4.328-15.531-6.522-35.463-6.522-17.368,0-24.746-3.262-27.877-6a6.712,6.712,0,0,1-2.564-4.4,4.606,4.606,0,0,0,.008-.9,1.675,1.675,0,0,0-1.75-1.278,1.719,1.719,0,0,0-1.821,1.217,4.349,4.349,0,0,0-.031.922,7.618,7.618,0,0,1-2.966,4.861c-3.028,2.543-9.793,5.575-24.823,5.575C-1985.671,287.865-1990.69,290.855-1990.69,298.01Z"/>
      </g>
      <text id="_" data-name="?" class="cls-6" transform="translate(-1933.043 270.303)"><tspan x="0" y="0">?</tspan></text>
    </g>
  </g>
</svg>
