<svg xmlns="http://www.w3.org/2000/svg" width="258.635" height="261.715" viewBox="0 0 258.635 261.715">
  <defs>
    <style>
      .cls-1 {
        fill: #f4f293;
        stroke: #fff;
        stroke-miterlimit: 10;
        stroke-width: 10px;
      }

      .cls-2 {
        fill: #f0974a;
      }

      .cls-3, .cls-4 {
        fill: #964615;
      }

      .cls-4 {
        font-size: 46.955px;
        font-family: TimesNewRomanPS-BoldMT, Times New Roman;
        font-weight: 700;
      }

      .cls-5 {
        stroke: none;
      }

      .cls-6 {
        fill: none;
      }
    </style>
  </defs>
  <g id="组_2629" data-name="组 2629" transform="translate(1348.185 836.116)">
    <g id="矩形_365" data-name="矩形 365" class="cls-1" transform="translate(-1338.185 -826.116)">
      <path class="cls-5" d="M10.771,0H238.635a0,0,0,0,1,0,0V241.715a0,0,0,0,1,0,0H0a0,0,0,0,1,0,0V10.771A10.771,10.771,0,0,1,10.771,0Z"/>
      <path class="cls-6" d="M10.771-5H238.635a5,5,0,0,1,5,5V241.715a5,5,0,0,1-5,5H0a5,5,0,0,1-5-5V10.771A15.771,15.771,0,0,1,10.771-5Z"/>
    </g>
    <g id="组_2628" data-name="组 2628">
      <circle id="椭圆_771" data-name="椭圆 771" class="cls-2" cx="14.854" cy="14.854" r="14.854" transform="translate(-1285.957 -780.11)"/>
      <circle id="椭圆_772" data-name="椭圆 772" class="cls-2" cx="14.854" cy="14.854" r="14.854" transform="translate(-1285.957 -748.393)"/>
      <circle id="椭圆_773" data-name="椭圆 773" class="cls-2" cx="14.854" cy="14.854" r="14.854" transform="translate(-1254.239 -780.11)"/>
      <circle id="椭圆_774" data-name="椭圆 774" class="cls-2" cx="14.854" cy="14.854" r="14.854" transform="translate(-1254.239 -748.393)"/>
      <circle id="椭圆_775" data-name="椭圆 775" class="cls-2" cx="14.854" cy="14.854" r="14.854" transform="translate(-1285.957 -660.113)"/>
      <circle id="椭圆_776" data-name="椭圆 776" class="cls-2" cx="14.854" cy="14.854" r="14.854" transform="translate(-1269.093 -689.82)"/>
      <circle id="椭圆_777" data-name="椭圆 777" class="cls-2" cx="14.854" cy="14.854" r="14.854" transform="translate(-1254.239 -660.113)"/>
      <g id="组_2627" data-name="组 2627">
        <path id="路径_5974" data-name="路径 5974" class="cls-3" d="M-1206.293-643.609a1.65,1.65,0,0,1-1.65-1.65,1.65,1.65,0,0,1,1.65-1.65c4.623,0,8.615,0,8.615-29.866,0-12.119,2.592-20.632,7.7-25.3a14.319,14.319,0,0,1,2.537-1.86,13.522,13.522,0,0,1-1.973-1.438c-5.485-4.8-8.267-14.272-8.267-28.162,0-22.987-4.227-28.44-6.045-29.718a2.2,2.2,0,0,0-1.949-.471,1.627,1.627,0,0,1-2.153-.849,1.672,1.672,0,0,1,.863-2.188,5.282,5.282,0,0,1,4.924.665c5.083,3.3,7.66,14.26,7.66,32.561,0,15.946,3.831,22.72,7.045,25.6a8.689,8.689,0,0,0,5.17,2.354,7.251,7.251,0,0,1,1.052-.008,1.652,1.652,0,0,1,1.5,1.608,1.65,1.65,0,0,1-1.43,1.671,6.458,6.458,0,0,1-1.083.029,9.756,9.756,0,0,0-5.709,2.723c-2.986,2.781-6.547,8.992-6.547,22.792C-1194.378-648.218-1197.89-643.609-1206.293-643.609Z"/>
      </g>
      <text id="_" data-name="?" class="cls-4" transform="translate(-1171.763 -688.437)"><tspan x="0" y="0">?</tspan></text>
    </g>
  </g>
</svg>
