<svg xmlns="http://www.w3.org/2000/svg" width="225.212" height="219.741" viewBox="0 0 225.212 219.741">
  <defs>
    <style>
      .cls-1 {
        fill: #c6d7e6;
      }

      .cls-2 {
        fill: #5cb1eb;
      }

      .cls-3, .cls-5, .cls-6 {
        fill: #964615;
      }

      .cls-3 {
        font-size: 30.871px;
      }

      .cls-3, .cls-6 {
        font-family: TimesNewRomanPS-BoldMT, Times New Roman;
        font-weight: 700;
      }

      .cls-4 {
        fill: none;
        stroke: #964615;
        stroke-miterlimit: 10;
        stroke-dasharray: 1;
      }

      .cls-6 {
        font-size: 34.537px;
      }
    </style>
  </defs>
  <g id="组_2662" data-name="组 2662" transform="translate(2036.052 139.318)">
    <rect id="矩形_369" data-name="矩形 369" class="cls-1" width="225.212" height="219.741" transform="translate(-2036.052 -139.318)"/>
    <g id="组_2661" data-name="组 2661">
      <rect id="矩形_370" data-name="矩形 370" class="cls-2" width="160.693" height="10.572" rx="1.762" transform="translate(-2003.792 -29.976)"/>
      <text id="_4" data-name="4" class="cls-3" transform="translate(-1968.483 -73.895)"><tspan x="0" y="0">4</tspan></text>
      <text id="_3" data-name="3" class="cls-3" transform="translate(-1892.576 -35.625)"><tspan x="0" y="0">3</tspan></text>
      <line id="直线_83" data-name="直线 83" class="cls-4" y2="38.623" transform="translate(-1909.931 -68.599)"/>
      <rect id="矩形_371" data-name="矩形 371" class="cls-2" width="93.033" height="10.572" rx="1.762" transform="translate(-2003.792 -68.599)"/>
      <g id="组_2660" data-name="组 2660">
        <path id="路径_5990" data-name="路径 5990" class="cls-5" d="M-2003.792-13.567a1.957,1.957,0,0,1,2.147-1.679,1.957,1.957,0,0,1,2.147,1.679c0,4.7,0,8.764,38.866,8.764,15.771,0,26.849,2.637,32.928,7.837a15.29,15.29,0,0,1,2.421,2.581,14.516,14.516,0,0,1,1.871-2.007c6.243-5.581,18.573-8.411,36.649-8.411,29.914,0,37.01-4.3,38.673-6.15.981-1.091.654-1.9.613-1.983-.481-.849.022-1.814,1.105-2.191a2.444,2.444,0,0,1,2.847.879c.138.241,1.278,2.433-.865,5.01-4.3,5.171-18.557,7.793-42.373,7.793-20.751,0-29.567,3.9-33.307,7.167a8.016,8.016,0,0,0-3.064,5.26,5.652,5.652,0,0,1,.01,1.07,2,2,0,0,1-2.092,1.527,2.053,2.053,0,0,1-2.175-1.454,5.131,5.131,0,0,1-.037-1.1,9.109,9.109,0,0,0-3.544-5.809c-3.619-3.038-11.7-6.66-29.66-6.66C-1997.8-1.445-2003.792-5.019-2003.792-13.567Z"/>
      </g>
      <text id="_" data-name="?" class="cls-6" transform="translate(-1933.505 40.376)"><tspan x="0" y="0">?</tspan></text>
    </g>
  </g>
</svg>
