<svg xmlns="http://www.w3.org/2000/svg" width="148.494" height="71.897" viewBox="0 0 148.494 71.897">
  <defs>
    <style>
      .cls-1, .cls-3, .cls-4, .cls-6 {
        fill: #fff;
      }

      .cls-2 {
        fill: #8ca6fd;
      }

      .cls-3 {
        font-size: 28.534px;
        font-family: TimesNewRomanPS-BoldMT, Times New Roman;
        font-weight: 700;
        letter-spacing: 0.1em;
      }

      .cls-5, .cls-6 {
        stroke: none;
      }
    </style>
  </defs>
  <g id="组_6664" data-name="组 6664" transform="translate(3 3)">
    <g id="路径_6993" data-name="路径 6993" class="cls-1" transform="translate(-474.932 -182.537)">
      <path class="cls-5" d="M 586.7120361328125 249.9341888427734 L 546.1795654296875 249.9341888427734 L 505.6470642089844 249.9341888427734 C 503.4135131835938 249.9341888427734 501.2226257324219 249.3229827880859 499.3112487792969 248.1665954589844 L 477.0525817871094 234.6925964355469 C 475.9498291015625 234.02490234375 475.0325317382813 233.078857421875 474.3996887207031 231.9566955566406 C 473.7666015625 230.8341369628906 473.4319763183594 229.5597534179688 473.4319763183594 228.2713317871094 L 473.4319763183594 215.4850616455078 L 473.4319763183594 201.6768341064453 C 473.4319763183594 198.9733581542969 474.8961486816406 196.4681091308594 477.2530517578125 195.1387481689453 L 499.4585876464844 182.6142578125 C 501.2884826660156 181.5823822021484 503.3667602539063 181.0370025634766 505.4688415527344 181.0370025634766 L 546.1795654296875 181.0370025634766 L 586.8890380859375 181.0370025634766 C 588.9912109375 181.0370025634766 591.0695190429688 181.5823822021484 592.8992919921875 182.6141967773438 L 615.1058959960938 195.1387481689453 C 617.46240234375 196.4685821533203 618.926025390625 198.9737548828125 618.926025390625 201.6768341064453 L 618.926025390625 215.4850616455078 L 618.926025390625 228.2713317871094 C 618.926025390625 229.5597381591797 618.5913696289063 230.8341369628906 617.958251953125 231.9567108154297 C 617.3253784179688 233.078857421875 616.4080810546875 234.0248718261719 615.3055419921875 234.6924896240234 L 593.0470581054688 248.1663970947266 C 591.1353149414063 249.3229827880859 588.94482421875 249.9341888427734 586.7120361328125 249.9341888427734 Z"/>
      <path class="cls-6" d="M 586.7120361328125 248.4342041015625 C 588.6722412109375 248.4342041015625 590.5938720703125 247.8973846435547 592.270263671875 246.8831939697266 L 614.528564453125 233.4093933105469 C 616.3270263671875 232.3204040527344 617.426025390625 230.3723297119141 617.426025390625 228.2713317871094 L 617.426025390625 215.4850616455078 L 617.426025390625 201.6768188476563 C 617.426025390625 199.5098724365234 616.2578125 197.5111846923828 614.3690185546875 196.4452819824219 L 592.1624755859375 183.9207763671875 C 590.55322265625 183.0132904052734 588.737060546875 182.5370178222656 586.8890380859375 182.5370178222656 L 546.1795654296875 182.5370178222656 L 505.4688415527344 182.5370178222656 C 503.6208190917969 182.5370178222656 501.8047790527344 183.0132904052734 500.1954650878906 183.9207763671875 L 477.9899597167969 196.4452819824219 C 476.1001281738281 197.5111846923828 474.9319763183594 199.5098724365234 474.9319763183594 201.6768188476563 L 474.9319763183594 215.4850616455078 L 474.9319763183594 228.2713317871094 C 474.9319763183594 230.3723297119141 476.0308532714844 232.3204040527344 477.8293762207031 233.4093933105469 L 500.0876770019531 246.8831939697266 C 501.7640686035156 247.8973846435547 503.6868591308594 248.4342041015625 505.6470642089844 248.4342041015625 L 546.1795654296875 248.4342041015625 L 586.7120361328125 248.4342041015625 M 586.7120361328125 251.4342041015625 L 546.1795654296875 251.4342041015625 L 505.6470642089844 251.4342041015625 C 503.1398010253906 251.4342041015625 500.680419921875 250.7480773925781 498.5348205566406 249.4500122070313 L 476.2758178710938 235.9757995605469 C 474.9528198242188 235.1747436523438 473.8523559570313 234.0398254394531 473.0931091308594 232.6935272216797 C 472.33349609375 231.3465576171875 471.9319763183594 229.8173828125 471.9319763183594 228.2713317871094 L 471.9319763183594 215.4850616455078 L 471.9319763183594 201.6768188476563 C 471.9319763183594 198.4329681396484 473.6885375976563 195.4270935058594 476.5161437988281 193.8322601318359 L 498.7216491699219 181.3077697753906 C 500.7760620117188 180.1492767333984 503.1091003417969 179.5370178222656 505.4688415527344 179.5370178222656 L 546.1795654296875 179.5370178222656 L 586.8890380859375 179.5370178222656 C 589.2489013671875 179.5370178222656 591.5819702148438 180.1492767333984 593.6361083984375 181.3076629638672 L 615.8427734375 193.8322448730469 C 618.6701049804688 195.4277648925781 620.426025390625 198.4334869384766 620.426025390625 201.6768188476563 L 620.426025390625 215.4850616455078 L 620.426025390625 228.2713317871094 C 620.426025390625 229.8173828125 620.0244750976563 231.3465881347656 619.2647705078125 232.6935882568359 C 618.5055541992188 234.0398254394531 617.4050903320313 235.1747436523438 616.0823974609375 235.9756164550781 L 593.8237915039063 249.4496154785156 C 591.677490234375 250.7480773925781 589.2185668945313 251.4342041015625 586.7120361328125 251.4342041015625 Z"/>
    </g>
    <path id="路径_6994" data-name="路径 6994" class="cls-2" d="M546.18,243.985h37.057a10.243,10.243,0,0,0,5.082-1.341l20.35-11.655a5.144,5.144,0,0,0,2.649-4.444v-23a5.155,5.155,0,0,0-2.8-4.524l-20.3-10.833a10.246,10.246,0,0,0-4.821-1.2h-74.44a10.246,10.246,0,0,0-4.821,1.2l-20.3,10.833a5.156,5.156,0,0,0-2.795,4.524v23a5.143,5.143,0,0,0,2.648,4.444l20.35,11.655a10.242,10.242,0,0,0,5.082,1.341Z" transform="translate(-474.972 -182.396)"/>
    <g id="组_4903" data-name="组 4903" transform="translate(27.637 17.612)">
      <text id="_5_3_1" data-name="5  3  1" class="cls-3" transform="translate(0 25)"><tspan x="0" y="0" xml:space="preserve">5  3  1</tspan></text>
      <rect id="矩形_2323" data-name="矩形 2323" class="cls-4" width="15" height="2" transform="translate(19.646 15.253)"/>
      <rect id="矩形_2324" data-name="矩形 2324" class="cls-4" width="15" height="2" transform="translate(56.646 15.253)"/>
    </g>
  </g>
</svg>
