<svg xmlns="http://www.w3.org/2000/svg" width="281.636" height="340.388" viewBox="0 0 281.636 340.388">
  <defs>
    <style>
      .cls-1, .cls-13 {
        fill: #f37366;
      }

      .cls-1, .cls-17, .cls-31 {
        stroke-miterlimit: 10;
      }

      .cls-2 {
        fill: #ffe5a3;
      }

      .cls-3 {
        fill: #a86a47;
      }

      .cls-4 {
        fill: #ffd858;
      }

      .cls-5 {
        fill: #ee6457;
      }

      .cls-6 {
        fill: #e35546;
      }

      .cls-7 {
        fill: #f36e3a;
      }

      .cls-8 {
        fill: #f6804e;
      }

      .cls-9 {
        fill: #fa9e49;
      }

      .cls-10 {
        fill: #ffe58f;
      }

      .cls-11 {
        fill: #5266ae;
      }

      .cls-12 {
        fill: #525f9b;
      }

      .cls-14 {
        fill: #e3d8e3;
      }

      .cls-15 {
        fill: #fdb74f;
      }

      .cls-16 {
        fill: #fede81;
      }

      .cls-17, .cls-31 {
        fill: none;
      }

      .cls-17 {
        stroke: #1f8a5d;
        stroke-width: 1.103px;
      }

      .cls-18 {
        fill: #ebf393;
      }

      .cls-19 {
        fill: #4eb092;
      }

      .cls-20 {
        fill: #f17669;
      }

      .cls-21 {
        fill: #665855;
      }

      .cls-22 {
        fill: #e85c52;
      }

      .cls-23 {
        fill: #e66153;
      }

      .cls-24 {
        fill: #fd8f8b;
      }

      .cls-25 {
        fill: #f28580;
      }

      .cls-26 {
        fill: #f37464;
      }

      .cls-27 {
        fill: #ff92ab;
      }

      .cls-28 {
        fill: #d95271;
      }

      .cls-29, .cls-34 {
        fill: #fff;
      }

      .cls-29, .cls-30 {
        font-size: 16.147px;
        font-family: TimesNewRomanPS-BoldMT, Times New Roman;
        font-weight: 700;
      }

      .cls-30, .cls-32 {
        fill: #96420f;
      }

      .cls-31 {
        stroke: #96420f;
        stroke-width: 2.207px;
      }

      .cls-33, .cls-34 {
        stroke: none;
      }
    </style>
  </defs>
  <g id="组_2821" data-name="组 2821" transform="translate(-761.377 979.83)">
    <g id="路径_6809" data-name="路径 6809" class="cls-1">
      <path class="cls-33" d="M 926.0609130859375 -644.44189453125 C 926.0580444335938 -644.44189453125 926.0558471679688 -644.44189453125 926.052978515625 -644.44189453125 C 921.1679077148438 -644.4420166015625 916.120361328125 -644.5741577148438 911.050537109375 -644.8345947265625 C 893.763916015625 -645.7247924804688 876.99169921875 -647.919921875 861.1991577148438 -651.3592529296875 C 847.9287719726563 -654.2493286132813 835.256591796875 -658.0335693359375 823.5346069335938 -662.60693359375 C 813.6627807617188 -666.4591064453125 804.63916015625 -670.786376953125 796.7142333984375 -675.4685668945313 C 788.6942749023438 -680.2069702148438 784.6904296875 -683.5967407226563 783.34130859375 -684.834228515625 C 782.56396484375 -685.5472412109375 781.7692260742188 -686.2454223632813 780.9279174804688 -686.9844970703125 C 777.3860473632813 -690.0958862304688 773.3717041015625 -693.6224365234375 770.4805908203125 -698.687255859375 C 767.1763305664063 -704.475830078125 765.88818359375 -711.3154296875 766.5425415039063 -719.5968627929688 C 766.922119140625 -724.3822021484375 768.0311889648438 -728.6506958007813 769.8390502929688 -732.2852783203125 C 771.356689453125 -735.3362426757813 773.3597412109375 -737.9403686523438 775.7927856445313 -740.0253295898438 C 777.589599609375 -741.5651245117188 779.3703002929688 -742.5992431640625 780.8578491210938 -743.2854614257813 C 780.8917236328125 -751.7058715820313 782.3901977539063 -758.9868774414063 783.2227783203125 -762.3909912109375 C 780.6552734375 -767.548095703125 778.9892578125 -773.446044921875 778.3789672851563 -779.5797119140625 C 777.713134765625 -786.2710571289063 778.3194580078125 -792.98486328125 780.1322631835938 -798.995361328125 C 781.42431640625 -803.2791137695313 783.286376953125 -807.08642578125 785.6666870117188 -810.3114624023438 C 788.1062622070313 -813.6167602539063 791.0299682617188 -816.2283935546875 794.3667602539063 -818.0848388671875 C 794.8981323242188 -818.6013793945313 795.7388305664063 -819.3726196289063 796.9146118164063 -820.3201293945313 L 796.9945068359375 -820.384521484375 L 797.052978515625 -820.4277954101563 C 798.4393920898438 -821.557861328125 800.0413208007813 -822.7105102539063 801.81640625 -823.8551025390625 C 804.9242553710938 -825.8593139648438 808.357666015625 -827.7041015625 812.0210571289063 -829.3383178710938 L 812.3870239257813 -829.5015258789063 L 812.3870239257813 -966.4500122070313 C 812.3870239257813 -971.0707397460938 816.1458129882813 -974.8300170898438 820.7659912109375 -974.8300170898438 C 825.29052734375 -974.8300170898438 828.9891357421875 -971.225341796875 829.14111328125 -966.7371215820313 C 829.620849609375 -966.7782592773438 830.103271484375 -966.7990112304688 830.5869750976563 -966.7990112304688 L 1004.314025878906 -966.7990112304688 C 1006.622863769531 -966.7990112304688 1008.8681640625 -966.3424682617188 1010.987548828125 -965.442138671875 C 1013.026428222656 -964.5759887695313 1014.858215332031 -963.3388671875 1016.432006835938 -961.7650146484375 C 1018.005859375 -960.1912231445313 1019.243041992188 -958.359375 1020.109191894531 -956.3204956054688 C 1021.009521484375 -954.2011108398438 1021.466003417969 -951.955810546875 1021.466003417969 -949.64697265625 L 1021.466003417969 -866.8880004882813 C 1021.466003417969 -864.5791625976563 1021.009521484375 -862.3338623046875 1020.109191894531 -860.2144165039063 C 1019.243103027344 -858.1754760742188 1018.005981445313 -856.3435668945313 1016.432250976563 -854.7696533203125 C 1014.858459472656 -853.1956787109375 1013.026672363281 -851.9583740234375 1010.98779296875 -851.0921020507813 C 1008.868286132813 -850.1915893554688 1006.622924804688 -849.7349853515625 1004.314025878906 -849.7349853515625 L 830.5869750976563 -849.7349853515625 C 830.1047973632813 -849.7349853515625 829.6241455078125 -849.755615234375 829.14599609375 -849.7964477539063 L 829.14599609375 -835.0501708984375 C 831.4330444335938 -835.5928955078125 833.76318359375 -836.0679321289063 836.1204223632813 -836.4713745117188 L 836.5391845703125 -836.5430297851563 L 836.5425415039063 -836.5430297851563 C 840.7902221679688 -837.2667236328125 845.2553100585938 -837.786376953125 849.8212280273438 -838.088134765625 C 853.0277709960938 -838.2999267578125 856.3510131835938 -838.4072875976563 859.6990356445313 -838.4072875976563 C 863.9047241210938 -838.4072875976563 868.2743530273438 -838.2378540039063 872.6865234375 -837.9037475585938 L 872.90087890625 -837.8875122070313 L 873.113037109375 -837.8529663085938 C 878.6815185546875 -836.9457397460938 883.2276000976563 -835.163818359375 886.9776611328125 -832.4142456054688 C 888.775146484375 -831.7188110351563 892.67041015625 -829.8786010742188 897.5179443359375 -825.6175537109375 C 901.0965576171875 -822.4718017578125 904.556640625 -818.5765991210938 907.8019409179688 -814.0399780273438 C 910.7568969726563 -809.9093017578125 913.5475463867188 -805.2236938476563 916.131591796875 -800.0585327148438 C 916.70703125 -800.454345703125 917.2771606445313 -800.8405151367188 917.839599609375 -801.21533203125 C 920.282958984375 -802.8570556640625 922.8360595703125 -804.4710693359375 925.428466796875 -806.0125732421875 C 930.75341796875 -809.1738891601563 936.9345092773438 -811.570556640625 943.80322265625 -813.1377563476563 C 949.5737915039063 -814.4544677734375 955.7681884765625 -815.150390625 961.716552734375 -815.150390625 C 962.9107055664063 -815.150390625 964.1005859375 -815.1220703125 965.253173828125 -815.066162109375 C 967.2260131835938 -814.9705200195313 969.1202392578125 -814.7958374023438 970.883056640625 -814.546875 L 970.8915405273438 -814.545654296875 L 970.8999633789063 -814.5444946289063 C 975.2569580078125 -813.9141235351563 978.5715942382813 -812.8722534179688 980.7518310546875 -811.4478759765625 C 983.6404418945313 -809.5680541992188 986.3858032226563 -806.7022705078125 988.6918334960938 -803.1594848632813 C 990.7112426757813 -800.0570678710938 992.314208984375 -796.5462036132813 993.205322265625 -793.2737426757813 C 993.3443603515625 -792.7640991210938 993.4654541015625 -792.262451171875 993.5684814453125 -791.7698974609375 C 996.484375 -790.34619140625 999.2523193359375 -788.3759765625 1001.827819824219 -785.8875732421875 C 1003.601440429688 -784.1739501953125 1004.822082519531 -782.6470947265625 1005.432067871094 -781.8297119140625 C 1009.723022460938 -778.0594482421875 1013.450500488281 -772.5777587890625 1016.517272949219 -765.5248413085938 C 1018.782836914063 -760.3207397460938 1020.686767578125 -754.286376953125 1022.175354003906 -747.59130859375 C 1023.405151367188 -742.0599975585938 1024.328857421875 -736.1343383789063 1024.846435546875 -730.4547729492188 C 1024.935302734375 -729.4717407226563 1025.005615234375 -728.6507568359375 1025.06005859375 -727.8335571289063 C 1025.17333984375 -726.2525634765625 1025.248657226563 -724.7410278320313 1025.285278320313 -723.3125 C 1026.686279296875 -722.4613647460938 1028.180908203125 -721.49462890625 1029.456176757813 -720.5386962890625 C 1030.1708984375 -720.001953125 1030.844970703125 -719.2939453125 1031.520263671875 -718.3718872070313 L 1031.730346679688 -718.0848388671875 L 1031.75 -718.0479125976563 C 1032.883056640625 -716.4151611328125 1034.032104492188 -714.1408081054688 1035.009399414063 -711.5899658203125 C 1036.14697265625 -708.6206665039063 1037.013061523438 -705.3983764648438 1037.513916015625 -702.2714233398438 C 1038.892822265625 -693.6638793945313 1037.536254882813 -686.2277221679688 1033.590942382813 -680.766845703125 C 1031.846435546875 -678.3524169921875 1028.4990234375 -674.5217895507813 1022.458740234375 -669.9837646484375 C 1016.546875 -665.5422973632813 1009.536682128906 -661.5458984375 1001.622863769531 -658.1055297851563 C 992.09814453125 -653.96484375 981.4093017578125 -650.7107543945313 969.8531494140625 -648.4336547851563 C 956.4110107421875 -645.7849731445313 941.6768188476563 -644.44189453125 926.0609130859375 -644.44189453125 Z"/>
      <path class="cls-34" d="M 926.0531005859375 -649.44189453125 C 991.7462768554688 -649.4400024414063 1022.068603515625 -673.3569946289063 1029.537963867188 -683.6950073242188 C 1036.791015625 -693.7340087890625 1031.072021484375 -710.510986328125 1027.488037109375 -715.4140014648438 L 1027.487060546875 -715.416015625 L 1027.485961914063 -715.4180297851563 C 1027.114013671875 -715.926025390625 1026.765991210938 -716.3060302734375 1026.45703125 -716.5380249023438 C 1024.574951171875 -717.9489135742188 1022.086975097656 -719.427978515625 1020.304992675781 -720.4340209960938 C 1020.333984375 -722.4149780273438 1020.265014648438 -724.7990112304688 1020.072021484375 -727.4869995117188 C 1020.018005371094 -728.301025390625 1019.945007324219 -729.138916015625 1019.867004394531 -730.0009155273438 C 1018.961975097656 -739.9320068359375 1016.557006835938 -752.906982421875 1011.932006835938 -763.531005859375 C 1009.296997070313 -769.5910034179688 1005.939086914063 -774.8839111328125 1001.723999023438 -778.4240112304688 C 1001.723999023438 -778.4240112304688 996.97900390625 -785.4539794921875 988.9959716796875 -788.2760009765625 C 988.9539794921875 -789.3790283203125 988.7429809570313 -790.6329956054688 988.3809814453125 -791.9600219726563 C 986.9099731445313 -797.3619995117188 982.9609985351563 -804.0490112304688 978.01708984375 -807.2620239257813 C 976.4849853515625 -808.2630004882813 973.72998046875 -809.0830078125 970.1840209960938 -809.5960083007813 C 968.60498046875 -809.8189697265625 966.8679809570313 -809.9819946289063 965.010986328125 -810.072021484375 C 963.9501953125 -810.1234741210938 962.8489379882813 -810.150390625 961.7163696289063 -810.150390625 C 951.4228515625 -810.150390625 938.4513549804688 -807.9292602539063 927.9840087890625 -801.7150268554688 C 925.5910034179688 -800.2919921875 923.125 -798.7429809570313 920.6220092773438 -797.06103515625 C 919.0369873046875 -796.0050048828125 917.43896484375 -794.8900146484375 915.8350219726563 -793.7260131835938 C 915.281005859375 -793.3259887695313 914.7249755859375 -792.906982421875 914.1690063476563 -792.4949951171875 L 914.1649780273438 -792.5059814453125 C 900.3939819335938 -823.5250244140625 884.5969848632813 -827.9539794921875 884.5969848632813 -827.9539794921875 L 884.5960083007813 -827.9450073242188 C 881.52001953125 -830.3679809570313 877.5999755859375 -832.0560302734375 872.3090209960938 -832.9180297851563 C 867.8856201171875 -833.2529296875 863.6840209960938 -833.4072265625 859.6985473632813 -833.4072265625 C 856.3660888671875 -833.4072265625 853.1847534179688 -833.2993774414063 850.1510009765625 -833.0989990234375 C 845.3989868164063 -832.784912109375 841.0159912109375 -832.2479858398438 836.969970703125 -831.5430297851563 L 836.9639892578125 -831.5430297851563 C 832.2429809570313 -830.7349853515625 827.9860229492188 -829.6920166015625 824.1760864257813 -828.5280151367188 L 824.1699829101563 -828.5280151367188 L 824.14599609375 -828.52001953125 L 824.14599609375 -856.6110229492188 C 826.0180053710938 -855.4299926757813 828.2230224609375 -854.7349853515625 830.5869750976563 -854.7349853515625 L 1004.314086914063 -854.7349853515625 C 1010.997985839844 -854.7349853515625 1016.466003417969 -860.2039794921875 1016.466003417969 -866.8880004882813 L 1016.466003417969 -949.6469116210938 C 1016.466003417969 -956.3309936523438 1010.997985839844 -961.7990112304688 1004.314086914063 -961.7990112304688 L 830.5869750976563 -961.7990112304688 C 828.2230224609375 -961.7990112304688 826.0180053710938 -961.10400390625 824.14599609375 -959.9240112304688 L 824.14599609375 -966.4500122070313 C 824.14599609375 -968.3170166015625 822.6329956054688 -969.8300170898438 820.7659912109375 -969.8300170898438 C 818.9000854492188 -969.8300170898438 817.3870239257813 -968.3170166015625 817.3870239257813 -966.4500122070313 L 817.3870239257813 -826.156982421875 C 816.2319946289063 -825.7009887695313 815.1119995117188 -825.239990234375 814.0650024414063 -824.7719116210938 L 814.0579833984375 -824.7719116210938 C 810.1640014648438 -823.034912109375 807.0040893554688 -821.2509765625 804.5260009765625 -819.6530151367188 C 802.6929931640625 -818.4710083007813 801.2280883789063 -817.385986328125 800.125 -816.4810180664063 L 800.052001953125 -816.427001953125 C 798.2490234375 -814.9739990234375 797.3930053710938 -814.0339965820313 797.3930053710938 -814.0339965820313 C 782.2050170898438 -806.2310180664063 778.9310913085938 -780.1900024414063 788.5540161132813 -763 C 789.4050903320313 -761.47998046875 789.9959716796875 -759.9559936523438 790.4030151367188 -758.4349975585938 C 789.7340087890625 -759.916015625 789.10400390625 -761.427978515625 788.5540161132813 -763 C 788.5540161132813 -763 785.2769775390625 -751.9920043945313 785.947998046875 -739.5739135742188 L 785.4849853515625 -739.6300048828125 C 785.4849853515625 -739.6300048828125 772.968017578125 -737.3690185546875 771.5269775390625 -719.2030029296875 C 770.0919799804688 -701.0419921875 779.2269897460938 -695.3930053710938 786.7210083007813 -688.5189819335938 C 790.5859985351563 -684.9739990234375 803.4099731445313 -675.8270263671875 825.3519897460938 -667.2650146484375 C 845.9359741210938 -659.2340087890625 874.5460205078125 -651.7210083007813 911.3070068359375 -649.8280029296875 C 916.406005859375 -649.5661010742188 921.3251342773438 -649.4420776367188 926.0531005859375 -649.44189453125 M 944.9609985351563 -779.708984375 C 930.9840087890625 -773.1669921875 913.6820068359375 -762.3270263671875 893.06201171875 -744.5989990234375 C 897.593994140625 -748.656005859375 902.9719848632813 -753.2059936523438 909.0040893554688 -757.802978515625 C 911.6329956054688 -759.8109130859375 914.3820190429688 -761.8250122070313 917.239990234375 -763.802001953125 C 925.7039794921875 -769.6849975585938 935.0960083007813 -775.3060302734375 944.9609985351563 -779.708984375 M 903.375 -783.822998046875 L 903.4110107421875 -783.7639770507813 L 903.3889770507813 -783.7440185546875 L 903.3870239257813 -783.7570190429688 C 903.3839721679688 -783.7780151367188 903.3779907226563 -783.802001953125 903.375 -783.822998046875 M 926.06103515625 -639.4419555664063 L 926.060791015625 -639.4419555664063 C 921.1602783203125 -639.4420776367188 916.0701904296875 -639.5701293945313 910.7940063476563 -639.8411865234375 C 878.1782836914063 -641.520751953125 848.2089233398438 -647.613037109375 821.71728515625 -657.9489135742188 C 800.5709838867188 -666.2005004882813 786.007568359375 -675.60400390625 779.9616088867188 -681.1494750976563 L 777.6279296875 -683.2281494140625 C 770.1400146484375 -689.8062133789063 759.8848876953125 -698.8150634765625 761.5580444335938 -719.9906616210938 C 762.6908569335938 -734.2713012695313 769.4306030273438 -742.3421020507813 775.932861328125 -746.362548828125 C 776.207275390625 -752.7408447265625 777.1874389648438 -758.2860717773438 777.9619140625 -761.8164672851563 C 772.6358642578125 -773.5926513671875 771.599365234375 -788.0194091796875 775.3452758789063 -800.439208984375 C 778.2649536132813 -810.11962890625 783.916259765625 -817.7525024414063 791.3514404296875 -822.1192626953125 C 791.9512939453125 -822.6788330078125 792.7562255859375 -823.3905639648438 793.7772216796875 -824.2133178710938 C 795.1176147460938 -825.3076782226563 796.887451171875 -826.626220703125 799.1065673828125 -828.0571899414063 C 801.6796875 -829.7164306640625 804.4556884765625 -831.2709350585938 807.3870239257813 -832.695068359375 L 807.3870239257813 -966.4500122070313 C 807.3870239257813 -973.8277587890625 813.3887939453125 -979.8300170898438 820.7659912109375 -979.8300170898438 C 826.2429809570313 -979.8300170898438 830.9620361328125 -976.5219116210938 833.030029296875 -971.7990112304688 L 1004.314086914063 -971.7990112304688 C 1016.528686523438 -971.7990112304688 1026.465942382813 -961.8616333007813 1026.465942382813 -949.6469116210938 L 1026.465942382813 -866.8880004882813 C 1026.465942382813 -854.6727905273438 1016.528686523438 -844.7349853515625 1004.314086914063 -844.7349853515625 L 834.14599609375 -844.7349853515625 L 834.14599609375 -841.200439453125 C 834.5223999023438 -841.2686767578125 834.8994750976563 -841.3350830078125 835.2769775390625 -841.399658203125 C 839.806884765625 -842.1878662109375 844.598388671875 -842.7538452148438 849.4915161132813 -843.0772094726563 C 852.7350463867188 -843.2914428710938 856.135986328125 -843.4072875976563 859.6985473632813 -843.4072875976563 C 863.922607421875 -843.4072875976563 868.3757934570313 -843.2444458007813 873.06396484375 -842.8894653320313 C 880.1453247070313 -841.7704467773438 885.404296875 -839.7237548828125 889.7720336914063 -836.5646362304688 C 897.1696166992188 -833.542724609375 908.0377197265625 -825.0205078125 917.96484375 -807.27880859375 C 919.6198120117188 -808.3404541015625 921.261962890625 -809.3521728515625 922.8728637695313 -810.3101196289063 C 933.4088134765625 -816.5651245117188 947.564453125 -820.150390625 961.71630859375 -820.150390625 C 963.0155029296875 -820.150390625 964.27880859375 -820.1192626953125 965.49560546875 -820.060302734375 C 967.6802368164063 -819.9544067382813 969.7239990234375 -819.7601318359375 971.5819702148438 -819.497802734375 C 976.7702026367188 -818.7472534179688 980.6532592773438 -817.48486328125 983.4867553710938 -815.633544921875 C 991.1671142578125 -810.6422119140625 995.989990234375 -801.5997924804688 997.876953125 -795.12890625 C 1003.620544433594 -791.7969970703125 1007.454223632813 -787.3970947265625 1009.123046875 -785.2371826171875 C 1013.804748535156 -780.9959106445313 1017.831176757813 -775.0421142578125 1021.102600097656 -767.5185546875 C 1027.251708984375 -753.3936157226563 1029.25146484375 -737.21044921875 1029.82568359375 -730.908447265625 L 1030.050048828125 -728.14892578125 C 1030.099487304688 -727.4603881835938 1030.141479492188 -726.7874755859375 1030.17626953125 -726.1320190429688 C 1030.974487304688 -725.6057739257813 1031.750366210938 -725.0677490234375 1032.455322265625 -724.5393676757813 C 1033.572509765625 -723.7003173828125 1034.583984375 -722.6509399414063 1035.554077148438 -721.3261108398438 C 1041.249877929688 -713.5322265625 1047.947021484375 -692.0996704101563 1037.643798828125 -677.8387451171875 C 1034.804077148438 -673.908447265625 1007.548767089844 -639.4419555664063 926.06103515625 -639.4419555664063 Z"/>
    </g>
    <rect id="矩形_498" data-name="矩形 498" class="cls-2" width="198.032" height="107.064" rx="12.153" transform="translate(818.435 -961.799)"/>
    <path id="路径_6810" data-name="路径 6810" class="cls-3" d="M824.146-966.45V-760.5h-6.759V-966.45a3.379,3.379,0,0,1,3.379-3.38h0A3.38,3.38,0,0,1,824.146-966.45Z"/>
    <path id="路径_6811" data-name="路径 6811" class="cls-4" d="M884.6-827.954s15.8,4.429,29.568,35.448-8.5,12.266-8.5,12.266S882.617-815.089,884.6-827.954Z"/>
    <path id="路径_6812" data-name="路径 6812" class="cls-5" d="M907.82-765.387l-39,43.308L818-744.683l-8.707-3.871s-23.02-57.491-11.9-65.48a25.921,25.921,0,0,1,2.659-2.393l.072-.054a48.228,48.228,0,0,1,4.4-3.172,70.734,70.734,0,0,1,9.532-5.119h.007a86.354,86.354,0,0,1,10.1-3.756h.006a103.467,103.467,0,0,1,12.788-3.015h.006a124.589,124.589,0,0,1,13.181-1.556,156.726,156.726,0,0,1,22.158.181c17.654,2.875,20.112,14.882,26.481,33.048a107.885,107.885,0,0,1,4.6,16.113C905.329-771.887,907.82-765.387,907.82-765.387Z"/>
    <path id="路径_6813" data-name="路径 6813" class="cls-6" d="M907.639-765.363l-39,41.461-50.822-22.6c-1.592-7.6-1.634-13.783,1.314-16.261a25.915,25.915,0,0,1,2.466-2.593l.073-.054a46.826,46.826,0,0,1,4.142-3.5,70.392,70.392,0,0,1,9.116-5.831h.006a86.906,86.906,0,0,1,9.792-4.516h.006a102.982,102.982,0,0,1,12.523-3.979h.006a122.785,122.785,0,0,1,13.024-2.551,156.854,156.854,0,0,1,22.11-1.507c2.846.1,8.249.206,10.5.688A205.665,205.665,0,0,1,907.639-765.363Z"/>
    <path id="路径_6814" data-name="路径 6814" class="cls-7" d="M1029.538-683.7c-8.007,11.082-42.284,37.768-118.231,33.867-36.761-1.893-65.371-9.406-85.955-17.437-21.942-8.562-34.766-17.709-38.631-21.254-7.495-6.874-16.629-12.523-15.194-30.684s13.958-20.427,13.958-20.427l101.132,12.282,63.538,2.743,67.891,2.936a74.69,74.69,0,0,1,8.411,5.131C1029.743-714.072,1037.545-694.777,1029.538-683.7Z"/>
    <path id="路径_6815" data-name="路径 6815" class="cls-8" d="M1029.538-683.7c-8.007,11.082-42.284,37.768-118.231,33.867-36.761-1.893-65.371-9.406-85.955-17.437-.628-.495-17.178-13.434-11.438-12.529,5.848.922,16.629.307,8.568-3.516s-7.218-7.313-7.218-7.313L950.155-724.6l67.891,2.936a74.69,74.69,0,0,1,8.411,5.131C1029.743-714.072,1037.545-694.777,1029.538-683.7Z"/>
    <path id="路径_6816" data-name="路径 6816" class="cls-9" d="M785.628-738.986s-12.251,5.516-7.017,16.908,31.3,37.562,81.589,45.567,111.25,9.647,150.864-13.342c18.679-10.878,18.4-21.775,16.423-25.563-3.363-3.635-19.142-11.255-19.142-11.255l-128.85-.72Z"/>
    <path id="路径_6817" data-name="路径 6817" class="cls-4" d="M1001.724-778.424s-28.018,42.8-50.388,69.688-87.233-.2-131.779-9.852-21.386-27.229-31-44.412-6.349-43.231,8.839-51.034c-2.508,2.672-3.461,25.831,8.417,44.48a51.251,51.251,0,0,0,7.555,9.327v.006s3.6,2.942,9.267,6.892c9.955,6.946,26.289,17.009,40.7,19.716,4,.748,8.773,1.6,14.718,2.6C951.951-801.317,989-788.276,989-788.276,996.979-785.454,1001.724-778.424,1001.724-778.424Z"/>
    <path id="路径_6818" data-name="路径 6818" class="cls-10" d="M845.014-716.23c-1.954,1.851-13.036-5.439-13.036-5.439L805.81-769.554a51.251,51.251,0,0,0,7.555,9.327v.006s3.6,2.942,9.267,6.892C829.192-742.916,844.055-719.179,845.014-716.23Z"/>
    <path id="路径_6819" data-name="路径 6819" class="cls-11" d="M1020.1-716.845,1018.7-715c-.729.952-1.465,1.9-2.237,2.84-7.693,9.424-18.438,18.034-54.717,25.42h-.006c-1.423.289-2.882.579-4.389.868l-.682.127a267.363,267.363,0,0,1-70.055,2.833q-1.945-.18-3.853-.4a222.217,222.217,0,0,1-22.116-3.635c-1.025-.229-2.032-.459-3.033-.694a181.112,181.112,0,0,1-35.363-12.04q-1.98-.922-3.852-1.864a111.259,111.259,0,0,1-18.836-11.715c-.929-.723-1.8-1.447-2.611-2.152a36.82,36.82,0,0,1-7.464-8.309,40.3,40.3,0,0,1-2.834-9.5c-2.581-14.748,1.9-29.779,1.9-29.779,11.2,31.992,48.145,44.871,67.542,49.953s28.633,4.462,35.139-3.213c51-70.177,93.866-66.059,110.489-62.164,4.215,3.54,7.573,8.833,10.208,14.893,4.625,10.624,7.03,23.6,7.935,33.53.078.862.151,1.7.205,2.514A60.427,60.427,0,0,1,1020.1-716.845Z"/>
    <path id="路径_6820" data-name="路径 6820" class="cls-12" d="M1020.1-716.845,1018.7-715c-.729.952-1.465,1.9-2.237,2.84-7.693,9.424-18.438,18.034-54.717,25.42h-.006c-1.423.289-2.882.579-4.389.868l-.682.127a267.363,267.363,0,0,1-70.055,2.833q-1.945-.18-3.853-.4a222.217,222.217,0,0,1-22.116-3.635c-1.025-.229-2.032-.459-3.033-.694a181.112,181.112,0,0,1-35.363-12.04q-1.98-.922-3.852-1.864a111.259,111.259,0,0,1-18.836-11.715c-.929-.723-1.8-1.447-2.611-2.152a36.82,36.82,0,0,1-7.464-8.309,40.3,40.3,0,0,1-2.834-9.5l.006-.006s76.778,77.086,233.206,5.836c.066-.03.139-.06.205-.1A60.427,60.427,0,0,1,1020.1-716.845Z"/>
    <path id="路径_6821" data-name="路径 6821" class="cls-13" d="M989-788.276a73.665,73.665,0,0,0-25.293,2.02q-3.274.805-6.518,1.845c-14.314,4.57-28.043,12.336-39.945,20.609-2.858,1.977-5.607,3.991-8.236,6-6.97,5.312-13.072,10.563-18,15.061H891c-6.922,6.325-11.51,11.167-12.891,12.608-14.1,1.248-1.616-19.783-1.616-19.783,8.755-17.81,24.287-32.926,39.342-43.809q2.406-1.746,4.788-3.335c2.5-1.682,4.968-3.231,7.361-4.654,11.619-6.9,26.325-8.876,37.027-8.357,1.857.09,3.594.253,5.173.476,3.546.513,6.3,1.333,7.833,2.334,4.944,3.213,8.893,9.9,10.364,15.3A16.684,16.684,0,0,1,989-788.276Z"/>
    <ellipse id="椭圆_881" data-name="椭圆 881" class="cls-14" cx="14.337" cy="21.604" rx="14.337" ry="21.604" transform="translate(919.52 -736.677) rotate(-27.181)"/>
    <ellipse id="椭圆_882" data-name="椭圆 882" class="cls-15" cx="11.412" cy="17.531" rx="11.412" ry="17.531" transform="translate(924.651 -734.271) rotate(-27.181)"/>
    <ellipse id="椭圆_883" data-name="椭圆 883" class="cls-16" cx="2.619" cy="4.997" rx="2.619" ry="4.997" transform="translate(942.073 -733.658) rotate(-30)"/>
    <path id="路径_6822" data-name="路径 6822" class="cls-14" d="M1019.867-730a8.269,8.269,0,0,1-2.647,1.26c-6.367,1.718-13.627-4.667-16.213-14.26s.476-18.763,6.843-20.482a8.341,8.341,0,0,1,4.082-.048C1016.557-752.907,1018.962-739.932,1019.867-730Z"/>
    <path id="路径_6823" data-name="路径 6823" class="cls-15" d="M1016.86-731.8c-5.068,1.366-10.878-3.837-12.978-11.622s.307-15.205,5.376-16.572a12.2,12.2,0,0,1,3.93-.463c1.468.229,9.922,19.373,6.388,27.581C1019.352-732.264,1016.86-731.8,1016.86-731.8Z"/>
    <ellipse id="椭圆_884" data-name="椭圆 884" class="cls-16" cx="2.492" cy="5.434" rx="2.492" ry="5.434" transform="matrix(0.968, -0.249, 0.249, 0.968, 1010.445, -755.293)"/>
    <path id="路径_6824" data-name="路径 6824" class="cls-17" d="M995.362-766.721"/>
    <path id="路径_6825" data-name="路径 6825" class="cls-18" d="M873.949-694.8c-7-1.278-13.639,1.815-16.334,7.157,1,.235,2.008.465,3.033.694a222.217,222.217,0,0,0,22.116,3.635q1.908.218,3.853.4C885.718-688.615,880.714-693.56,873.949-694.8Z"/>
    <path id="路径_6826" data-name="路径 6826" class="cls-19" d="M882.764-683.31a222.217,222.217,0,0,1-22.116-3.635c2.279-3.383,7.133-5.222,12.27-4.281C877.868-690.316,881.654-687.1,882.764-683.31Z"/>
    <path id="路径_6827" data-name="路径 6827" class="cls-18" d="M815-715.748c-5.921-3.925-13.235-3.593-18.046.338,5.758,5,14.26,10.581,25.3,15.731A16.123,16.123,0,0,0,815-715.748Z"/>
    <path id="路径_6828" data-name="路径 6828" class="cls-19" d="M818.4-701.543a111.259,111.259,0,0,1-18.836-11.715c3.545-2.526,8.76-2.526,13.066.392A12.758,12.758,0,0,1,818.4-701.543Z"/>
    <path id="路径_6829" data-name="路径 6829" class="cls-20" d="M1018.7-715c-.729.952-1.465,1.9-2.237,2.84-7.693,9.424-18.438,18.034-54.717,25.42h-.006c-1.423.289-2.882.579-4.389.868,0,0-2.888-29.791,30.207-39.644C1006.542-731.165,1014.965-722.995,1018.7-715Z"/>
    <path id="路径_6830" data-name="路径 6830" class="cls-21" d="M1016.466-712.16c-.82,1.007-1.676,2-2.6,2.99v.006a48.834,48.834,0,0,1-4.311,4.1.022.022,0,0,1-.013.006l-1.3,1.043c-.959.742-1.99,1.484-3.1,2.213-1.357.9-2.84,1.785-4.468,2.665l-1.224.639c-1.308.67-2.707,1.339-4.208,1.99a.554.554,0,0,1-.061.03l-.072.03c-1.423.621-2.93,1.236-4.546,1.845l-.03.012-1.441.531c-1.459.531-2.991,1.049-4.607,1.568l-.337.1q-1.919.615-4.01,1.212l-.344.1-1.622.452c-1.2.331-2.423.657-3.7.983-1.5.385-3.063.771-4.685,1.145l-.03.006-1.869.434q-2.948.66-6.144,1.315h-.006a36.579,36.579,0,0,1,4.275-17.715c.434-.808.917-1.628,1.447-2.436a31.731,31.731,0,0,1,4.136-5.076,31.727,31.727,0,0,1,3.31-2.87c.477-.362.965-.718,1.478-1.056v-.006a36.063,36.063,0,0,1,4.51-2.574,39.94,39.94,0,0,1,4.516-1.839c.277-.1.554-.187.838-.277.265-.085.524-.163.784-.248,1.754-.53,3.406-.946,4.968-1.254a39.3,39.3,0,0,1,4.07-.6c.476-.042.934-.078,1.386-.1a26.634,26.634,0,0,1,5.107.2,21.143,21.143,0,0,1,3.172.693c.555.169,1.085.356,1.586.561a16.5,16.5,0,0,1,5.257,3.364.019.019,0,0,1,.006.012A15.979,15.979,0,0,1,1016.466-712.16Z"/>
    <path id="路径_6831" data-name="路径 6831" class="cls-20" d="M974.477-689.64l-4.685,1.145-.03.006-2.3-18.4a31.731,31.731,0,0,1,4.136-5.076Z"/>
    <path id="路径_6832" data-name="路径 6832" class="cls-22" d="M969.762-688.489l-1.869.434-1.875-16.4c.434-.808.917-1.628,1.447-2.436Z"/>
    <path id="路径_6833" data-name="路径 6833" class="cls-20" d="M984.492-692.492l-.337.1-4.01,1.212-.344.1-3.412-24.818v-.006a36.063,36.063,0,0,1,4.51-2.574Z"/>
    <path id="路径_6834" data-name="路径 6834" class="cls-22" d="M979.8-691.075l-1.622.452-3.268-24.214c.477-.362.965-.718,1.478-1.056Z"/>
    <path id="路径_6835" data-name="路径 6835" class="cls-20" d="M995.249-696.508v.006l-.061.024-.072.03L990.57-694.6l-.03.012-3.5-26.246c1.754-.53,3.406-.946,4.968-1.254Z"/>
    <path id="路径_6836" data-name="路径 6836" class="cls-22" d="M990.54-694.591l-1.441.531-3.684-26.252c.277-.1.554-.187.838-.277.265-.085.524-.163.784-.248Z"/>
    <path id="路径_6837" data-name="路径 6837" class="cls-20" d="M1005.149-701.8c-1.357.9-2.84,1.785-4.468,2.665l-3.22-23.647a26.634,26.634,0,0,1,5.107.2S1004.908-704.322,1005.149-701.8Z"/>
    <path id="路径_6838" data-name="路径 6838" class="cls-22" d="M1000.681-699.137l-1.224.639-3.382-24.19c.476-.042.934-.078,1.386-.1Z"/>
    <path id="路径_6839" data-name="路径 6839" class="cls-20" d="M1013.868-709.17v.006a48.834,48.834,0,0,1-4.311,4.1.022.022,0,0,1-.013.006l-2.218-16.273a16.5,16.5,0,0,1,5.257,3.364.019.019,0,0,1,.006.012S1013.53-711.871,1013.868-709.17Z"/>
    <path id="路径_6840" data-name="路径 6840" class="cls-22" d="M1009.544-705.058l-1.3,1.043-2.508-17.877c.555.169,1.085.356,1.586.561Z"/>
    <path id="路径_6841" data-name="路径 6841" class="cls-23" d="M989-788.276a73.665,73.665,0,0,0-25.293,2.02q-3.274.805-6.518,1.845c-14.314,4.57-28.043,12.336-39.945,20.6v.006c-.711.494-1.423.988-2.122,1.489s-1.393,1-2.081,1.5-1.368,1-2.037,1.5-1.339,1.006-2,1.507c-6.97,5.312-13.072,10.563-18,15.061a196.61,196.61,0,0,1,19.011-20.373c2.442-2.291,5.071-4.643,7.862-6.976,11.9-9.973,26.68-19.7,42.061-23.352a58.522,58.522,0,0,1,6.066-1.109,44.893,44.893,0,0,1,22.375,2.592A16.684,16.684,0,0,1,989-788.276Z"/>
    <path id="路径_6842" data-name="路径 6842" class="cls-24" d="M920.623-797.061l-2.744,26.97c-2.791,2.333-5.42,4.685-7.862,6.976l5.818-30.611Q918.241-795.472,920.623-797.061Z"/>
    <path id="路径_6843" data-name="路径 6843" class="cls-25" d="M917.879-770.091l-.639,6.283v.006c-.711.494-1.423.988-2.122,1.489s-1.393,1-2.081,1.5-1.368,1-2.037,1.5-1.339,1.006-2,1.507l1.013-5.312C912.459-765.406,915.088-767.758,917.879-770.091Z"/>
    <path id="路径_6844" data-name="路径 6844" class="cls-24" d="M970.184-809.6l-4.178,15.044a58.522,58.522,0,0,0-6.066,1.109l5.071-16.629C966.868-809.982,968.6-809.819,970.184-809.6Z"/>
    <path id="路径_6845" data-name="路径 6845" class="cls-25" d="M966.006-794.552l-2.3,8.3q-3.274.805-6.518,1.845l2.755-9.032A58.522,58.522,0,0,1,966.006-794.552Z"/>
    <ellipse id="椭圆_885" data-name="椭圆 885" class="cls-10" cx="6.312" cy="2.944" rx="6.312" ry="2.944" transform="translate(868.872 -718.473)"/>
    <path id="路径_6846" data-name="路径 6846" class="cls-26" d="M802.183-817.178a1.552,1.552,0,0,0,.554,2.788c7.77,1.667,30.409,3.54,70.189-16.269C877.5-833.149,829.786-836.793,802.183-817.178Z"/>
    <g id="组_2820" data-name="组 2820">
      <rect id="矩形_499" data-name="矩形 499" class="cls-27" width="172.352" height="31.248" rx="5.441" transform="translate(834.446 -932.11)"/>
      <g id="组_2811" data-name="组 2811">
        <rect id="矩形_500" data-name="矩形 500" class="cls-28" width="2.256" height="11.592" transform="translate(849.078 -932.11)"/>
      </g>
      <g id="组_2812" data-name="组 2812">
        <rect id="矩形_501" data-name="矩形 501" class="cls-28" width="2.256" height="11.592" transform="translate(875.07 -932.11)"/>
      </g>
      <g id="组_2813" data-name="组 2813">
        <rect id="矩形_502" data-name="矩形 502" class="cls-28" width="2.256" height="11.592" transform="translate(898.687 -932.11)"/>
      </g>
      <g id="组_2814" data-name="组 2814">
        <rect id="矩形_503" data-name="矩形 503" class="cls-28" width="2.256" height="11.592" transform="translate(922.375 -932.11)"/>
      </g>
      <g id="组_2815" data-name="组 2815">
        <rect id="矩形_504" data-name="矩形 504" class="cls-28" width="2.256" height="11.592" transform="translate(944.911 -932.11)"/>
      </g>
      <g id="组_2816" data-name="组 2816">
        <rect id="矩形_505" data-name="矩形 505" class="cls-28" width="2.256" height="11.592" transform="translate(968.377 -932.11)"/>
      </g>
      <g id="组_2817" data-name="组 2817">
        <rect id="矩形_506" data-name="矩形 506" class="cls-28" width="2.256" height="11.592" transform="translate(990.792 -932.11)"/>
      </g>
      <text id="_3" data-name="3" class="cls-29" transform="translate(846.092 -906.594)"><tspan x="0" y="0">3</tspan></text>
      <text id="_4" data-name="4" class="cls-29" transform="translate(872.205 -906.594)"><tspan x="0" y="0">4</tspan></text>
      <text id="_5" data-name="5" class="cls-29" transform="translate(895.543 -906.594)"><tspan x="0" y="0">5</tspan></text>
      <text id="_" data-name="?" class="cls-30" transform="translate(953.135 -868.481)"><tspan x="0" y="0">?</tspan></text>
      <text id="_6" data-name="6" class="cls-29" transform="translate(919.554 -906.594)"><tspan x="0" y="0">6</tspan></text>
      <text id="_7" data-name="7" class="cls-29" transform="translate(941.969 -906.594)"><tspan x="0" y="0">7</tspan></text>
      <text id="_8" data-name="8" class="cls-29" transform="translate(965.307 -906.594)"><tspan x="0" y="0">8</tspan></text>
      <text id="_9" data-name="9" class="cls-29" transform="translate(988.002 -906.594)"><tspan x="0" y="0">9</tspan></text>
      <g id="组_2818" data-name="组 2818">
        <path id="路径_6847" data-name="路径 6847" class="cls-31" d="M923.5-934.827s6.2-15.936,34.074-15.936c24.144,0,32.348,14.208,32.348,14.208"/>
        <path id="路径_6848" data-name="路径 6848" class="cls-32" d="M984.471-937.515l6.852-4.248.6,8.568Z"/>
      </g>
      <g id="组_2819" data-name="组 2819">
        <path id="路径_6849" data-name="路径 6849" class="cls-32" d="M922.375-898.97a.976.976,0,0,1,.945-1,.976.976,0,0,1,.944,1c0,2.815,0,5.245,17.093,5.245,6.936,0,11.808,1.578,14.482,4.689a8.64,8.64,0,0,1,1.064,1.545,8.3,8.3,0,0,1,.824-1.2c2.745-3.34,8.168-5.033,16.118-5.033,13.156,0,16.277-2.574,17.008-3.68a1.413,1.413,0,0,0,.27-1.187,1.015,1.015,0,0,1,.486-1.311.937.937,0,0,1,1.252.526,3.4,3.4,0,0,1-.381,3c-1.891,3.094-8.161,4.663-18.635,4.663-9.127,0-13,2.332-14.649,4.289a5.458,5.458,0,0,0-1.347,3.147,4.624,4.624,0,0,1,0,.641.971.971,0,0,1-.92.914.966.966,0,0,1-.957-.87,4.238,4.238,0,0,1-.016-.66,6.119,6.119,0,0,0-1.559-3.475c-1.591-1.818-5.146-3.986-13.044-3.986C925.013-891.716,922.375-893.854,922.375-898.97Z"/>
      </g>
    </g>
  </g>
</svg>
