<svg xmlns="http://www.w3.org/2000/svg" width="223.833" height="274.072" viewBox="0 0 223.833 274.072">
  <defs>
    <style>
      .cls-1 {
        fill: #ffbc8c;
      }

      .cls-2 {
        fill: #a86a47;
      }

      .cls-3 {
        fill: #ffd858;
      }

      .cls-4 {
        fill: #ee6457;
      }

      .cls-5 {
        fill: #e35546;
      }

      .cls-6 {
        fill: #f36e3a;
      }

      .cls-7 {
        fill: #f6804e;
      }

      .cls-8 {
        fill: #fa9e49;
      }

      .cls-9 {
        fill: #ffe58f;
      }

      .cls-10 {
        fill: #5266ae;
      }

      .cls-11 {
        fill: #525f9b;
      }

      .cls-12 {
        fill: #f37366;
      }

      .cls-13 {
        fill: #e3d8e3;
      }

      .cls-14 {
        fill: #fdb74f;
      }

      .cls-15 {
        fill: #fede81;
      }

      .cls-16, .cls-30 {
        fill: none;
        stroke-miterlimit: 10;
      }

      .cls-16 {
        stroke: #1f8a5d;
        stroke-width: 0.944px;
      }

      .cls-17 {
        fill: #ebf393;
      }

      .cls-18 {
        fill: #4eb092;
      }

      .cls-19 {
        fill: #f17669;
      }

      .cls-20 {
        fill: #665855;
      }

      .cls-21 {
        fill: #e85c52;
      }

      .cls-22 {
        fill: #e66153;
      }

      .cls-23 {
        fill: #fd8f8b;
      }

      .cls-24 {
        fill: #f28580;
      }

      .cls-25 {
        fill: #f37464;
      }

      .cls-26 {
        fill: #719e1a;
      }

      .cls-27 {
        fill: #81b725;
      }

      .cls-28 {
        fill: #e8343d;
      }

      .cls-29 {
        fill: #ff4547;
      }

      .cls-30 {
        stroke: #96420f;
        stroke-width: 2.831px;
      }
    </style>
  </defs>
  <g id="组_2768" data-name="组 2768" transform="translate(40.883 1777.834)">
    <rect id="矩形_468" data-name="矩形 468" class="cls-1" width="169.404" height="91.587" rx="10.396" transform="translate(-0.628 -1770.964)"/>
    <path id="路径_6415" data-name="路径 6415" class="cls-2" d="M4.257-1774.943v176.175H-1.524v-176.175a2.891,2.891,0,0,1,2.891-2.891h0A2.891,2.891,0,0,1,4.257-1774.943Z"/>
    <path id="路径_6416" data-name="路径 6416" class="cls-3" d="M55.97-1656.468s13.513,3.79,25.293,30.324-7.271,10.493-7.271,10.493S54.276-1645.462,55.97-1656.468Z"/>
    <path id="路径_6417" data-name="路径 6417" class="cls-4" d="M75.836-1602.946,42.477-1565.9-1-1585.234l-7.448-3.312s-19.693-49.179-10.182-56.013a22.187,22.187,0,0,1,2.275-2.048l.062-.047a41.393,41.393,0,0,1,3.765-2.713,60.681,60.681,0,0,1,8.154-4.379h.006a73.928,73.928,0,0,1,8.644-3.213h.005a88.613,88.613,0,0,1,10.94-2.579h.005a106.464,106.464,0,0,1,11.275-1.33,133.994,133.994,0,0,1,18.955.154c15.1,2.459,17.2,12.731,22.653,28.27a92.343,92.343,0,0,1,3.933,13.785A87.884,87.884,0,0,0,75.836-1602.946Z"/>
    <path id="路径_6418" data-name="路径 6418" class="cls-5" d="M75.681-1602.925l-33.359,35.468-43.475-19.337c-1.362-6.5-1.4-11.79,1.124-13.91a22.238,22.238,0,0,1,2.11-2.218l.062-.046a40.169,40.169,0,0,1,3.543-2.992,60.257,60.257,0,0,1,7.8-4.988h.005a74.3,74.3,0,0,1,8.376-3.863h.005a87.975,87.975,0,0,1,10.713-3.4h.005A105.144,105.144,0,0,1,43.73-1620.4a134.2,134.2,0,0,1,18.914-1.289,75.82,75.82,0,0,1,8.986.588A175.911,175.911,0,0,1,75.681-1602.925Z"/>
    <path id="路径_6419" data-name="路径 6419" class="cls-6" d="M179.958-1533.063c-6.849,9.48-36.171,32.308-101.139,28.971-31.447-1.619-55.921-8.046-73.53-14.916-18.769-7.324-29.74-15.148-33.046-18.181-6.411-5.88-14.225-10.713-13-26.248s11.941-17.475,11.941-17.475L57.7-1570.406l54.353,2.347,58.077,2.512a63.949,63.949,0,0,1,7.195,4.389C180.134-1559.048,186.808-1542.543,179.958-1533.063Z"/>
    <path id="路径_6420" data-name="路径 6420" class="cls-7" d="M179.958-1533.063c-6.849,9.48-36.171,32.308-101.139,28.971-31.447-1.619-55.921-8.046-73.53-14.916-.536-.423-14.7-11.492-9.784-10.718,5,.789,14.225.263,7.329-3.007s-6.174-6.256-6.174-6.256l115.391-29.07,58.077,2.512a63.949,63.949,0,0,1,7.195,4.389C180.134-1559.048,186.808-1542.543,179.958-1533.063Z"/>
    <path id="路径_6421" data-name="路径 6421" class="cls-8" d="M-28.692-1580.361s-10.48,4.719-6,14.464,26.777,32.132,69.795,38.98,95.167,8.252,129.055-11.413c15.978-9.306,15.741-18.628,14.049-21.868-2.877-3.109-16.375-9.628-16.375-9.628L51.6-1570.442Z"/>
    <path id="路径_6422" data-name="路径 6422" class="cls-3" d="M156.165-1614.1s-23.968,36.61-43.1,59.614-74.623-.176-112.729-8.428S-17.962-1586.2-26.189-1600.9s-5.431-36.981,7.561-43.655c-2.145,2.284-2.96,22.1,7.2,38.049a43.815,43.815,0,0,0,6.462,7.979v.005s3.08,2.517,7.928,5.9c8.515,5.942,22.488,14.551,34.82,16.866,3.42.64,7.5,1.372,12.59,2.229,63.215-60.146,94.9-48.989,94.9-48.989A24.481,24.481,0,0,1,156.165-1614.1Z"/>
    <path id="路径_6423" data-name="路径 6423" class="cls-9" d="M22.109-1560.9c-1.672,1.584-11.152-4.652-11.152-4.652l-22.384-40.963a43.815,43.815,0,0,0,6.462,7.979v.005s3.08,2.517,7.928,5.9C8.575-1583.723,21.289-1563.417,22.109-1560.9Z"/>
    <path id="路径_6424" data-name="路径 6424" class="cls-10" d="M171.881-1561.421l-1.191,1.579c-.624.815-1.254,1.624-1.914,2.429-6.581,8.062-15.772,15.427-46.807,21.745h-.005c-1.217.248-2.466.495-3.755.743l-.583.108a228.649,228.649,0,0,1-59.928,2.424q-1.664-.155-3.3-.34a190.049,190.049,0,0,1-18.919-3.11c-.877-.2-1.738-.392-2.6-.593a154.973,154.973,0,0,1-30.25-10.3q-1.695-.789-3.3-1.594a95.212,95.212,0,0,1-16.113-10.022c-.794-.619-1.537-1.238-2.233-1.841a31.5,31.5,0,0,1-6.386-7.108,34.518,34.518,0,0,1-2.424-8.128c-2.207-12.616,1.625-25.475,1.625-25.475,9.578,27.368,41.185,38.385,57.778,42.733s24.494,3.817,30.059-2.749c43.625-60.032,80.3-56.509,94.517-53.177,3.606,3.027,6.479,7.556,8.732,12.739,3.957,9.088,6.014,20.188,6.788,28.683.067.738.129,1.454.176,2.151A51.6,51.6,0,0,1,171.881-1561.421Z"/>
    <path id="路径_6425" data-name="路径 6425" class="cls-11" d="M171.881-1561.421l-1.191,1.579c-.624.815-1.254,1.624-1.914,2.429-6.581,8.062-15.772,15.427-46.807,21.745h-.005c-1.217.248-2.466.495-3.755.743l-.583.108a228.649,228.649,0,0,1-59.928,2.424q-1.664-.155-3.3-.34a190.049,190.049,0,0,1-18.919-3.11c-.877-.2-1.738-.392-2.6-.593a154.973,154.973,0,0,1-30.25-10.3q-1.695-.789-3.3-1.594a95.212,95.212,0,0,1-16.113-10.022c-.794-.619-1.537-1.238-2.233-1.841a31.5,31.5,0,0,1-6.386-7.108,34.518,34.518,0,0,1-2.424-8.128l0-.005s65.68,65.942,199.494,4.992c.057-.025.119-.051.176-.082A51.6,51.6,0,0,1,171.881-1561.421Z"/>
    <path id="路径_6426" data-name="路径 6426" class="cls-12" d="M145.277-1622.525a63.012,63.012,0,0,0-21.637,1.728q-2.8.688-5.575,1.578c-12.245,3.91-23.989,10.553-34.171,17.629-2.445,1.692-4.8,3.415-7.046,5.132-5.962,4.544-11.182,9.037-15.4,12.885h-.005c-5.921,5.41-9.846,9.552-11.027,10.785-12.064,1.067-1.382-16.923-1.382-16.923,7.489-15.236,20.775-28.167,33.654-37.477,1.372-.995,2.739-1.95,4.1-2.852,2.14-1.439,4.25-2.765,6.3-3.982,9.939-5.9,22.519-7.592,31.674-7.149,1.589.078,3.074.217,4.426.408a17.935,17.935,0,0,1,6.7,2c4.229,2.749,7.608,8.469,8.866,13.09A14.255,14.255,0,0,1,145.277-1622.525Z"/>
    <ellipse id="椭圆_841" data-name="椭圆 841" class="cls-13" cx="12.265" cy="18.481" rx="12.265" ry="18.481" transform="translate(85.844 -1578.386) rotate(-27.181)"/>
    <ellipse id="椭圆_842" data-name="椭圆 842" class="cls-14" cx="9.763" cy="14.997" rx="9.763" ry="14.997" transform="translate(90.234 -1576.328) rotate(-27.181)"/>
    <ellipse id="椭圆_843" data-name="椭圆 843" class="cls-15" cx="2.24" cy="4.275" rx="2.24" ry="4.275" transform="translate(105.138 -1575.803) rotate(-30)"/>
    <path id="路径_6427" data-name="路径 6427" class="cls-13" d="M171.685-1572.675a7.051,7.051,0,0,1-2.264,1.078c-5.447,1.47-11.657-3.992-13.869-12.2s.407-16.051,5.854-17.521a7.136,7.136,0,0,1,3.491-.042C168.854-1592.27,170.911-1581.17,171.685-1572.675Z"/>
    <path id="路径_6428" data-name="路径 6428" class="cls-14" d="M169.113-1574.215c-4.335,1.169-9.306-3.283-11.1-9.943s.263-13.006,4.6-14.175a10.453,10.453,0,0,1,3.362-.4c1.256.2,8.488,16.572,5.464,23.594C171.244-1574.611,169.113-1574.215,169.113-1574.215Z"/>
    <ellipse id="椭圆_844" data-name="椭圆 844" class="cls-15" cx="2.132" cy="4.649" rx="2.132" ry="4.649" transform="matrix(0.968, -0.249, 0.249, 0.968, 163.625, -1594.31)"/>
    <path id="路径_6429" data-name="路径 6429" class="cls-16" d="M150.723-1604.087"/>
    <path id="路径_6430" data-name="路径 6430" class="cls-17" d="M46.861-1542.559c-5.988-1.093-11.667,1.553-13.973,6.123.857.2,1.718.4,2.6.593a190.049,190.049,0,0,0,18.919,3.11q1.632.186,3.3.34C56.929-1537.272,52.648-1541.5,46.861-1542.559Z"/>
    <path id="路径_6431" data-name="路径 6431" class="cls-18" d="M54.4-1532.733a190.049,190.049,0,0,1-18.919-3.11c1.95-2.894,6.1-4.467,10.5-3.662C50.214-1538.726,53.453-1535.972,54.4-1532.733Z"/>
    <path id="路径_6432" data-name="路径 6432" class="cls-17" d="M-3.567-1560.482c-5.065-3.358-11.321-3.074-15.437.289a94.1,94.1,0,0,0,21.642,13.457A13.8,13.8,0,0,0-3.567-1560.482Z"/>
    <path id="路径_6433" data-name="路径 6433" class="cls-18" d="M-.658-1548.33a95.212,95.212,0,0,1-16.113-10.022,9.84,9.84,0,0,1,11.177.335A10.911,10.911,0,0,1-.658-1548.33Z"/>
    <path id="路径_6434" data-name="路径 6434" class="cls-19" d="M170.69-1559.842c-.624.815-1.254,1.624-1.914,2.429-6.581,8.062-15.772,15.427-46.807,21.745h-.005c-1.217.248-2.466.495-3.755.743,0,0-2.471-25.485,25.841-33.913C160.286-1573.67,167.492-1566.682,170.69-1559.842Z"/>
    <path id="路径_6435" data-name="路径 6435" class="cls-20" d="M168.776-1557.413c-.7.861-1.434,1.712-2.223,2.558v.005a41.728,41.728,0,0,1-3.688,3.508.016.016,0,0,1-.01.005l-1.109.892c-.82.635-1.7,1.269-2.651,1.893-1.161.769-2.429,1.527-3.822,2.28l-1.047.547c-1.119.572-2.316,1.145-3.6,1.7a.469.469,0,0,1-.052.025l-.062.026c-1.217.531-2.506,1.058-3.889,1.578l-.025.011-1.233.454c-1.248.454-2.558.9-3.941,1.341l-.289.087q-1.639.526-3.43,1.037l-.293.088-1.388.387c-1.026.283-2.073.562-3.167.84-1.284.33-2.62.661-4.007.98l-.026.006-1.6.371c-1.682.376-3.43.753-5.256,1.124h-.005a31.281,31.281,0,0,1,3.657-15.153c.371-.692.784-1.393,1.238-2.084a27.053,27.053,0,0,1,3.538-4.343,27.107,27.107,0,0,1,2.832-2.455c.407-.31.825-.614,1.263-.9v-.005a30.755,30.755,0,0,1,3.858-2.2,33.979,33.979,0,0,1,3.863-1.573c.238-.083.475-.16.717-.238s.449-.139.671-.211c1.5-.454,2.914-.81,4.25-1.073a33.486,33.486,0,0,1,3.481-.511c.408-.036.8-.067,1.187-.082a22.753,22.753,0,0,1,4.368.17,17.947,17.947,0,0,1,2.713.593c.475.145.929.305,1.357.48a14.116,14.116,0,0,1,4.5,2.878.016.016,0,0,1,.005.01A13.681,13.681,0,0,1,168.776-1557.413Z"/>
    <path id="路径_6436" data-name="路径 6436" class="cls-19" d="M132.857-1538.149l-4.007.98-.026.006-1.965-15.742a27.053,27.053,0,0,1,3.538-4.343Z"/>
    <path id="路径_6437" data-name="路径 6437" class="cls-21" d="M128.824-1537.163l-1.6.371-1.6-14.029c.371-.692.784-1.393,1.238-2.084Z"/>
    <path id="路径_6438" data-name="路径 6438" class="cls-19" d="M141.424-1540.588l-.289.087-3.43,1.037-.293.088-2.92-21.23v-.005a30.755,30.755,0,0,1,3.858-2.2Z"/>
    <path id="路径_6439" data-name="路径 6439" class="cls-21" d="M137.412-1539.376l-1.388.387-2.795-20.714c.407-.31.825-.614,1.263-.9Z"/>
    <path id="路径_6440" data-name="路径 6440" class="cls-19" d="M150.626-1544.023v.005l-.052.02-.062.026-3.889,1.578-.025.011-3-22.452c1.5-.454,2.914-.81,4.25-1.073Z"/>
    <path id="路径_6441" data-name="路径 6441" class="cls-21" d="M146.6-1542.383l-1.233.454-3.152-22.457c.238-.083.475-.16.717-.238s.449-.139.671-.211Z"/>
    <path id="路径_6442" data-name="路径 6442" class="cls-19" d="M159.1-1548.552c-1.161.769-2.429,1.527-3.822,2.28l-2.754-20.229a22.753,22.753,0,0,1,4.368.17S158.889-1550.708,159.1-1548.552Z"/>
    <path id="路径_6443" data-name="路径 6443" class="cls-21" d="M155.273-1546.272l-1.047.547-2.894-20.694c.408-.036.8-.067,1.187-.082Z"/>
    <path id="路径_6444" data-name="路径 6444" class="cls-19" d="M166.553-1554.855v.005a41.728,41.728,0,0,1-3.688,3.508.016.016,0,0,1-.01.005l-1.9-13.921a14.116,14.116,0,0,1,4.5,2.878.016.016,0,0,1,.005.01S166.264-1557.165,166.553-1554.855Z"/>
    <path id="路径_6445" data-name="路径 6445" class="cls-21" d="M162.855-1551.337l-1.109.892-2.146-15.293c.475.145.929.305,1.357.48Z"/>
    <path id="路径_6446" data-name="路径 6446" class="cls-22" d="M145.277-1622.525a63.012,63.012,0,0,0-21.637,1.728q-2.8.688-5.575,1.578c-12.245,3.91-23.989,10.553-34.171,17.624v.005c-.609.423-1.217.846-1.815,1.274s-1.192.856-1.78,1.285-1.171.856-1.743,1.284-1.145.861-1.708,1.289c-5.962,4.544-11.182,9.037-15.4,12.885A168.133,168.133,0,0,1,77.715-1601c2.089-1.96,4.338-3.971,6.726-5.967,10.181-8.531,22.823-16.856,35.981-19.977a50.208,50.208,0,0,1,5.188-.949,38.426,38.426,0,0,1,19.141,2.218A14.255,14.255,0,0,1,145.277-1622.525Z"/>
    <path id="路径_6447" data-name="路径 6447" class="cls-23" d="M86.788-1630.04l-2.347,23.071c-2.388,2-4.637,4.007-6.726,5.967l4.977-26.186C84.064-1628.183,85.431-1629.138,86.788-1630.04Z"/>
    <path id="路径_6448" data-name="路径 6448" class="cls-24" d="M84.441-1606.969l-.547,5.374v.005c-.609.423-1.217.846-1.815,1.274s-1.192.856-1.78,1.285-1.171.856-1.743,1.284-1.145.861-1.708,1.289l.867-4.544C79.8-1602.962,82.053-1604.973,84.441-1606.969Z"/>
    <path id="路径_6449" data-name="路径 6449" class="cls-23" d="M129.185-1640.763,125.61-1627.9a50.208,50.208,0,0,0-5.188.949l4.337-14.225C126.348-1641.093,127.833-1640.954,129.185-1640.763Z"/>
    <path id="路径_6450" data-name="路径 6450" class="cls-24" d="M125.61-1627.9l-1.97,7.1q-2.8.688-5.575,1.578l2.357-7.727A50.208,50.208,0,0,1,125.61-1627.9Z"/>
    <ellipse id="椭圆_845" data-name="椭圆 845" class="cls-9" cx="5.399" cy="2.519" rx="5.399" ry="2.519" transform="translate(42.519 -1562.813)"/>
    <path id="路径_6451" data-name="路径 6451" class="cls-25" d="M-14.53-1647.249a1.328,1.328,0,0,0,.474,2.385c6.647,1.426,26.013,3.028,60.042-13.918C49.9-1660.912,9.082-1664.028-14.53-1647.249Z"/>
    <g id="组_2767" data-name="组 2767">
      <g id="组_2762" data-name="组 2762">
        <path id="路径_6452" data-name="路径 6452" class="cls-26" d="M44.6-1754.92a7.364,7.364,0,0,0-1.785-2.2c-2.062-1.75-4.586-2.164-5.637-.928s-.228,3.662,1.836,5.41a6.882,6.882,0,0,0,3.112,1.567A11.411,11.411,0,0,1,44.6-1754.92Z"/>
        <path id="路径_6453" data-name="路径 6453" class="cls-27" d="M38.73-1758.748a2.158,2.158,0,0,0-1.553.705c-1.049,1.239-.228,3.662,1.836,5.409a7.385,7.385,0,0,0,2.336,1.363,11.323,11.323,0,0,1,2.408-3.691,7.392,7.392,0,0,0-1.785-2.2,6.832,6.832,0,0,0-3.242-1.588Z"/>
        <path id="路径_6454" data-name="路径 6454" class="cls-28" d="M42.026-1747.963a.9.9,0,0,1-.73.224.892.892,0,0,1-.759-1.013,13.3,13.3,0,0,1,1.045-3.317,10.822,10.822,0,0,1,4.825-5.255.893.893,0,0,1,1.2.389.9.9,0,0,1-.389,1.2c-4.133,2.116-4.907,7.185-4.914,7.235a.864.864,0,0,1-.281.533Z"/>
        <path id="路径_6455" data-name="路径 6455" class="cls-29" d="M41.585-1752.071a13.21,13.21,0,0,0-1.046,3.317.892.892,0,0,0,.425.893.923.923,0,0,0,.219-.146.892.892,0,0,0,.284-.535c.007-.05.779-5.122,4.914-7.236a.893.893,0,0,0,.389-1.2.89.89,0,0,0-.335-.36.1.1,0,0,0-.026.014A10.8,10.8,0,0,0,41.585-1752.071Z"/>
        <path id="路径_6456" data-name="路径 6456" class="cls-28" d="M40.571-1748.672c4.6.163,5.1-2.434,9.448-1.585,8.673,1.69,5.225,22.624-5.957,22.583-1.726-.007-3.32-.509-5.778-.247-8.835.942-15.965-18-6.474-21.986C35.669-1751.53,38.079-1748.759,40.571-1748.672Z"/>
        <path id="路径_6457" data-name="路径 6457" class="cls-29" d="M47.912-1750.36c-.063-.011-.123-.024-.183-.032-2.447.253-3.52,1.854-7.161,1.722a4.31,4.31,0,0,1-.871-.128,10.334,10.334,0,0,1-1.237.025c-1.57-.058-3.106-1.174-4.993-1.592a6.458,6.458,0,0,0-1.659.46c-8.765,3.68-3.348,20.127,4.492,21.869a14.988,14.988,0,0,1,3.122.045,21.27,21.27,0,0,1,3.007.206C53.231-1728.332,56.462-1748.694,47.912-1750.36Z"/>
      </g>
      <g id="组_2763" data-name="组 2763">
        <path id="路径_6458" data-name="路径 6458" class="cls-26" d="M89.379-1754.92a7.348,7.348,0,0,0-1.785-2.2c-2.061-1.75-4.585-2.164-5.636-.928s-.228,3.662,1.836,5.41a6.882,6.882,0,0,0,3.112,1.567A11.407,11.407,0,0,1,89.379-1754.92Z"/>
        <path id="路径_6459" data-name="路径 6459" class="cls-27" d="M83.507-1758.748a2.157,2.157,0,0,0-1.552.705c-1.049,1.239-.228,3.662,1.836,5.409a7.374,7.374,0,0,0,2.336,1.363,11.319,11.319,0,0,1,2.407-3.691,7.36,7.36,0,0,0-1.785-2.2,6.823,6.823,0,0,0-3.242-1.588Z"/>
        <path id="路径_6460" data-name="路径 6460" class="cls-28" d="M86.8-1747.963a.9.9,0,0,1-.729.224.892.892,0,0,1-.759-1.013,13.253,13.253,0,0,1,1.045-3.317,10.824,10.824,0,0,1,4.824-5.255.894.894,0,0,1,1.2.389.9.9,0,0,1-.39,1.2c-4.132,2.116-4.906,7.185-4.914,7.235a.854.854,0,0,1-.281.533Z"/>
        <path id="路径_6461" data-name="路径 6461" class="cls-29" d="M86.363-1752.071a13.209,13.209,0,0,0-1.046,3.317.892.892,0,0,0,.425.893.923.923,0,0,0,.219-.146.892.892,0,0,0,.284-.535c.007-.05.779-5.122,4.914-7.236a.894.894,0,0,0,.389-1.2.89.89,0,0,0-.335-.36.105.105,0,0,0-.026.014A10.8,10.8,0,0,0,86.363-1752.071Z"/>
        <path id="路径_6462" data-name="路径 6462" class="cls-28" d="M85.348-1748.672c4.6.163,5.1-2.434,9.449-1.585,8.672,1.69,5.224,22.624-5.957,22.583-1.726-.007-3.32-.509-5.778-.247-8.835.942-15.965-18-6.474-21.986C80.447-1751.53,82.857-1748.759,85.348-1748.672Z"/>
        <path id="路径_6463" data-name="路径 6463" class="cls-29" d="M92.69-1750.36c-.063-.011-.123-.024-.183-.032-2.448.253-3.52,1.854-7.161,1.722a4.3,4.3,0,0,1-.871-.128,10.334,10.334,0,0,1-1.237.025c-1.57-.058-3.106-1.174-4.994-1.592a6.463,6.463,0,0,0-1.658.46c-8.766,3.68-3.348,20.127,4.492,21.869a14.988,14.988,0,0,1,3.122.045,21.27,21.27,0,0,1,3.007.206C98.009-1728.332,101.24-1748.694,92.69-1750.36Z"/>
      </g>
      <g id="组_2764" data-name="组 2764">
        <path id="路径_6464" data-name="路径 6464" class="cls-26" d="M135.7-1754.92a7.349,7.349,0,0,0-1.785-2.2c-2.061-1.75-4.585-2.164-5.636-.928s-.228,3.662,1.836,5.41a6.882,6.882,0,0,0,3.112,1.567A11.407,11.407,0,0,1,135.7-1754.92Z"/>
        <path id="路径_6465" data-name="路径 6465" class="cls-27" d="M129.829-1758.748a2.157,2.157,0,0,0-1.552.705c-1.049,1.239-.228,3.662,1.836,5.409a7.374,7.374,0,0,0,2.336,1.363,11.318,11.318,0,0,1,2.407-3.691,7.361,7.361,0,0,0-1.785-2.2,6.823,6.823,0,0,0-3.242-1.588Z"/>
        <path id="路径_6466" data-name="路径 6466" class="cls-28" d="M133.125-1747.963a.9.9,0,0,1-.729.224.892.892,0,0,1-.759-1.013,13.254,13.254,0,0,1,1.045-3.317,10.824,10.824,0,0,1,4.824-5.255.894.894,0,0,1,1.2.389.9.9,0,0,1-.39,1.2c-4.132,2.116-4.906,7.185-4.914,7.235a.854.854,0,0,1-.281.533Z"/>
        <path id="路径_6467" data-name="路径 6467" class="cls-29" d="M132.685-1752.071a13.209,13.209,0,0,0-1.046,3.317.892.892,0,0,0,.425.893.924.924,0,0,0,.219-.146.892.892,0,0,0,.284-.535c.007-.05.779-5.122,4.914-7.236a.894.894,0,0,0,.389-1.2.89.89,0,0,0-.335-.36.1.1,0,0,0-.026.014A10.8,10.8,0,0,0,132.685-1752.071Z"/>
        <path id="路径_6468" data-name="路径 6468" class="cls-28" d="M131.67-1748.672c4.6.163,5.1-2.434,9.449-1.585,8.672,1.69,5.225,22.624-5.957,22.583-1.726-.007-3.32-.509-5.778-.247-8.835.942-15.965-18-6.474-21.986C126.769-1751.53,129.179-1748.759,131.67-1748.672Z"/>
        <path id="路径_6469" data-name="路径 6469" class="cls-29" d="M139.012-1750.36c-.063-.011-.123-.024-.183-.032-2.448.253-3.52,1.854-7.161,1.722a4.3,4.3,0,0,1-.871-.128,10.334,10.334,0,0,1-1.237.025c-1.57-.058-3.106-1.174-4.994-1.592a6.463,6.463,0,0,0-1.658.46c-8.766,3.68-3.348,20.127,4.492,21.869a14.988,14.988,0,0,1,3.122.045,21.27,21.27,0,0,1,3.007.206C144.331-1728.332,147.562-1748.694,139.012-1750.36Z"/>
      </g>
      <g id="组_2765" data-name="组 2765">
        <path id="路径_6470" data-name="路径 6470" class="cls-26" d="M66.163-1718.05a7.367,7.367,0,0,0-1.785-2.2c-2.062-1.75-4.586-2.164-5.637-.928s-.228,3.662,1.836,5.41a6.882,6.882,0,0,0,3.112,1.567A11.412,11.412,0,0,1,66.163-1718.05Z"/>
        <path id="路径_6471" data-name="路径 6471" class="cls-27" d="M60.291-1721.879a2.161,2.161,0,0,0-1.553.705c-1.049,1.24-.228,3.662,1.836,5.41a7.4,7.4,0,0,0,2.336,1.363,11.323,11.323,0,0,1,2.408-3.691,7.379,7.379,0,0,0-1.785-2.2,6.843,6.843,0,0,0-3.242-1.589Z"/>
        <path id="路径_6472" data-name="路径 6472" class="cls-28" d="M63.587-1711.093a.9.9,0,0,1-.73.224.893.893,0,0,1-.759-1.013,13.291,13.291,0,0,1,1.045-3.317,10.828,10.828,0,0,1,4.825-5.256.894.894,0,0,1,1.2.39.894.894,0,0,1-.389,1.2c-4.133,2.116-4.907,7.186-4.915,7.236a.86.86,0,0,1-.28.533Z"/>
        <path id="路径_6473" data-name="路径 6473" class="cls-29" d="M63.146-1715.2a13.2,13.2,0,0,0-1.046,3.317.892.892,0,0,0,.425.893.923.923,0,0,0,.219-.146.892.892,0,0,0,.284-.535c.007-.051.779-5.123,4.914-7.236a.894.894,0,0,0,.389-1.2.885.885,0,0,0-.335-.36.109.109,0,0,0-.026.014A10.8,10.8,0,0,0,63.146-1715.2Z"/>
        <path id="路径_6474" data-name="路径 6474" class="cls-28" d="M62.132-1711.8c4.6.163,5.1-2.434,9.448-1.585,8.673,1.69,5.225,22.624-5.957,22.583-1.726-.007-3.32-.509-5.778-.247-8.835.942-15.965-18-6.474-21.987C57.23-1714.66,59.64-1711.89,62.132-1711.8Z"/>
        <path id="路径_6475" data-name="路径 6475" class="cls-29" d="M69.473-1713.491c-.063-.01-.123-.023-.183-.031-2.448.252-3.52,1.853-7.161,1.722a4.38,4.38,0,0,1-.871-.128,10.321,10.321,0,0,1-1.237.024c-1.57-.057-3.106-1.173-4.993-1.592a6.463,6.463,0,0,0-1.659.461c-8.765,3.68-3.348,20.127,4.492,21.869a15,15,0,0,1,3.122.045,21.27,21.27,0,0,1,3.007.206C74.792-1691.462,78.023-1711.824,69.473-1713.491Z"/>
      </g>
      <g id="组_2766" data-name="组 2766">
        <path id="路径_6476" data-name="路径 6476" class="cls-26" d="M115.04-1718.05a7.337,7.337,0,0,0-1.785-2.2c-2.062-1.75-4.585-2.164-5.637-.928s-.228,3.662,1.837,5.41a6.879,6.879,0,0,0,3.111,1.567A11.428,11.428,0,0,1,115.04-1718.05Z"/>
        <path id="路径_6477" data-name="路径 6477" class="cls-27" d="M109.168-1721.879a2.159,2.159,0,0,0-1.552.705c-1.05,1.24-.229,3.662,1.836,5.41a7.389,7.389,0,0,0,2.335,1.363,11.323,11.323,0,0,1,2.408-3.691,7.349,7.349,0,0,0-1.785-2.2,6.843,6.843,0,0,0-3.242-1.589Z"/>
        <path id="路径_6478" data-name="路径 6478" class="cls-28" d="M112.464-1711.093a.9.9,0,0,1-.729.224.894.894,0,0,1-.76-1.013,13.32,13.32,0,0,1,1.046-3.317,10.822,10.822,0,0,1,4.824-5.256.894.894,0,0,1,1.2.39.892.892,0,0,1-.389,1.2c-4.133,2.116-4.907,7.186-4.914,7.236a.866.866,0,0,1-.281.533Z"/>
        <path id="路径_6479" data-name="路径 6479" class="cls-29" d="M112.023-1715.2a13.218,13.218,0,0,0-1.045,3.317.89.89,0,0,0,.425.893.923.923,0,0,0,.219-.146.9.9,0,0,0,.283-.535c.008-.051.779-5.123,4.914-7.236a.894.894,0,0,0,.39-1.2.88.88,0,0,0-.336-.36.087.087,0,0,0-.025.014A10.8,10.8,0,0,0,112.023-1715.2Z"/>
        <path id="路径_6480" data-name="路径 6480" class="cls-28" d="M111.009-1711.8c4.6.163,5.1-2.434,9.449-1.585,8.672,1.69,5.224,22.624-5.957,22.583-1.727-.007-3.32-.509-5.779-.247-8.834.942-15.964-18-6.473-21.987C106.108-1714.66,108.518-1711.89,111.009-1711.8Z"/>
        <path id="路径_6481" data-name="路径 6481" class="cls-29" d="M118.35-1713.491c-.062-.01-.122-.023-.182-.031-2.448.252-3.52,1.853-7.162,1.722a4.39,4.39,0,0,1-.871-.128,10.3,10.3,0,0,1-1.236.024c-1.57-.057-3.106-1.173-4.994-1.592a6.474,6.474,0,0,0-1.659.461c-8.765,3.68-3.348,20.127,4.493,21.869a14.987,14.987,0,0,1,3.121.045,21.274,21.274,0,0,1,3.008.206C123.669-1691.462,126.9-1711.824,118.35-1713.491Z"/>
      </g>
    </g>
    <line id="直线_92" data-name="直线 92" class="cls-30" x2="27.804" y2="31.969" transform="translate(47.708 -1720.987)"/>
    <line id="直线_93" data-name="直线 93" class="cls-30" x2="27.804" y2="31.969" transform="translate(96.584 -1720.987)"/>
  </g>
</svg>
