<svg xmlns="http://www.w3.org/2000/svg" width="237.156" height="290.387" viewBox="0 0 237.156 290.387">
  <defs>
    <style>
      .cls-1 {
        fill: #ffb3c4;
      }

      .cls-2 {
        fill: #a86a47;
      }

      .cls-3 {
        fill: #ffd858;
      }

      .cls-4 {
        fill: #ee6457;
      }

      .cls-5 {
        fill: #e35546;
      }

      .cls-6 {
        fill: #f36e3a;
      }

      .cls-7 {
        fill: #f6804e;
      }

      .cls-8 {
        fill: #fa9e49;
      }

      .cls-9 {
        fill: #ffe58f;
      }

      .cls-10 {
        fill: #5266ae;
      }

      .cls-11 {
        fill: #525f9b;
      }

      .cls-12 {
        fill: #f37366;
      }

      .cls-13 {
        fill: #e3d8e3;
      }

      .cls-14 {
        fill: #fdb74f;
      }

      .cls-15 {
        fill: #fede81;
      }

      .cls-16 {
        fill: none;
        stroke: #1f8a5d;
        stroke-miterlimit: 10;
      }

      .cls-17 {
        fill: #ebf393;
      }

      .cls-18 {
        fill: #4eb092;
      }

      .cls-19 {
        fill: #f17669;
      }

      .cls-20 {
        fill: #665855;
      }

      .cls-21 {
        fill: #e85c52;
      }

      .cls-22 {
        fill: #e66153;
      }

      .cls-23 {
        fill: #fd8f8b;
      }

      .cls-24 {
        fill: #f28580;
      }

      .cls-25 {
        fill: #f37464;
      }

      .cls-26, .cls-27 {
        fill: #96420f;
      }

      .cls-26 {
        font-size: 28.525px;
        font-family: TimesNewRomanPS-BoldMT, Times New Roman;
        font-weight: 700;
      }
    </style>
  </defs>
  <g id="组_2825" data-name="组 2825" transform="translate(-1574.535 1765.102)">
    <rect id="矩形_507" data-name="矩形 507" class="cls-1" width="179.488" height="97.039" rx="11.015" transform="translate(1617.187 -1757.824)"/>
    <path id="路径_6850" data-name="路径 6850" class="cls-2" d="M1622.363-1762.039v186.661h-6.126v-186.661a3.063,3.063,0,0,1,3.063-3.063h0A3.063,3.063,0,0,1,1622.363-1762.039Z"/>
    <path id="路径_6851" data-name="路径 6851" class="cls-3" d="M1677.153-1636.512s14.318,4.015,26.8,32.129-7.7,11.118-7.7,11.118S1675.359-1624.851,1677.153-1636.512Z"/>
    <path id="路径_6852" data-name="路径 6852" class="cls-4" d="M1698.2-1579.8l-35.345,39.253-46.063-20.488-7.891-3.508s-20.865-52.107-10.788-59.348a23.438,23.438,0,0,1,2.41-2.17l.066-.049a43.837,43.837,0,0,1,3.989-2.875,64.142,64.142,0,0,1,8.64-4.639h.006a78.074,78.074,0,0,1,9.159-3.405h.005a93.756,93.756,0,0,1,11.591-2.732h.005a112.469,112.469,0,0,1,11.947-1.41,141.924,141.924,0,0,1,20.083.164c16,2.6,18.229,13.488,24,29.953a97.68,97.68,0,0,1,4.167,14.6A93.257,93.257,0,0,0,1698.2-1579.8Z"/>
    <path id="路径_6853" data-name="路径 6853" class="cls-5" d="M1698.038-1579.781l-35.345,37.579-46.063-20.488c-1.443-6.891-1.481-12.493,1.191-14.739a23.37,23.37,0,0,1,2.236-2.349l.065-.05a42.681,42.681,0,0,1,3.755-3.169,63.737,63.737,0,0,1,8.262-5.285h.006a78.739,78.739,0,0,1,8.875-4.093h.005a93.313,93.313,0,0,1,11.351-3.607h.005a111.008,111.008,0,0,1,11.8-2.311,142.161,142.161,0,0,1,20.04-1.367,80.17,80.17,0,0,1,9.521.624A186.333,186.333,0,0,1,1698.038-1579.781Z"/>
    <path id="路径_6854" data-name="路径 6854" class="cls-6" d="M1808.522-1505.761c-7.257,10.044-38.324,34.232-107.16,30.7-33.319-1.716-59.249-8.525-77.906-15.8-19.887-7.76-31.51-16.05-35.014-19.264-6.792-6.23-15.071-11.35-13.771-27.81s12.651-18.515,12.651-18.515l91.662,11.132,57.588,2.486,61.535,2.661a67.677,67.677,0,0,1,7.623,4.651C1808.708-1533.293,1815.78-1515.805,1808.522-1505.761Z"/>
    <path id="路径_6855" data-name="路径 6855" class="cls-7" d="M1808.522-1505.761c-7.257,10.044-38.324,34.232-107.16,30.7-33.319-1.716-59.249-8.525-77.906-15.8-.569-.448-15.57-12.176-10.367-11.356,5.3.836,15.072.279,7.765-3.186s-6.541-6.629-6.541-6.629l122.259-30.8,61.535,2.661a67.677,67.677,0,0,1,7.623,4.651C1808.708-1533.293,1815.78-1515.805,1808.522-1505.761Z"/>
    <path id="路径_6856" data-name="路径 6856" class="cls-8" d="M1587.452-1555.874s-11.1,5-6.36,15.324,28.37,34.045,73.949,41.3,100.832,8.743,136.738-12.093c16.929-9.86,16.678-19.736,14.885-23.17-3.049-3.293-17.35-10.2-17.35-10.2l-116.785-.653Z"/>
    <path id="路径_6857" data-name="路径 6857" class="cls-3" d="M1783.313-1591.619s-25.4,38.789-45.67,63.163-79.065-.186-119.439-8.93-19.384-24.679-28.1-40.254-5.755-39.183,8.011-46.254c-2.273,2.421-3.137,23.411,7.629,40.314a46.458,46.458,0,0,0,6.848,8.454v.005s3.262,2.667,8.4,6.247c9.023,6.3,23.827,15.416,36.893,17.87,3.623.677,7.952,1.453,13.34,2.36,66.977-63.725,100.553-51.9,100.553-51.9A25.943,25.943,0,0,1,1783.313-1591.619Z"/>
    <path id="路径_6858" data-name="路径 6858" class="cls-9" d="M1641.277-1535.249c-1.771,1.678-11.815-4.93-11.815-4.93l-23.718-43.4a46.458,46.458,0,0,0,6.848,8.454v.005s3.262,2.667,8.4,6.247C1626.937-1559.437,1640.408-1537.922,1641.277-1535.249Z"/>
    <path id="路径_6859" data-name="路径 6859" class="cls-10" d="M1799.965-1535.807l-1.263,1.673c-.661.863-1.328,1.721-2.027,2.574-6.973,8.541-16.712,16.345-49.594,23.039h-.005c-1.29.263-2.612.525-3.979.787l-.617.115a242.3,242.3,0,0,1-63.5,2.568q-1.763-.164-3.492-.36a201.454,201.454,0,0,1-20.045-3.3c-.929-.208-1.842-.416-2.749-.629a164.163,164.163,0,0,1-32.051-10.913q-1.8-.837-3.492-1.689a100.905,100.905,0,0,1-17.072-10.618c-.842-.656-1.629-1.312-2.367-1.951a33.362,33.362,0,0,1-6.765-7.531,36.54,36.54,0,0,1-2.569-8.612c-2.339-13.367,1.722-26.991,1.722-26.991,10.148,29,43.637,40.669,61.217,45.276s25.952,4.044,31.849-2.913c46.222-63.6,85.077-59.872,100.143-56.342,3.82,3.208,6.864,8.006,9.252,13.5,4.192,9.629,6.372,21.39,7.192,30.39.071.782.136,1.541.186,2.279A54.815,54.815,0,0,1,1799.965-1535.807Z"/>
    <path id="路径_6860" data-name="路径 6860" class="cls-11" d="M1799.965-1535.807l-1.263,1.673c-.661.863-1.328,1.721-2.027,2.574-6.973,8.541-16.712,16.345-49.594,23.039h-.005c-1.29.263-2.612.525-3.979.787l-.617.115a242.3,242.3,0,0,1-63.5,2.568q-1.763-.164-3.492-.36a201.454,201.454,0,0,1-20.045-3.3c-.929-.208-1.842-.416-2.749-.629a164.163,164.163,0,0,1-32.051-10.913q-1.8-.837-3.492-1.689a100.905,100.905,0,0,1-17.072-10.618c-.842-.656-1.629-1.312-2.367-1.951a33.362,33.362,0,0,1-6.765-7.531,36.54,36.54,0,0,1-2.569-8.612l.006-.006s69.589,69.868,211.369,5.29c.06-.027.126-.054.186-.087A54.815,54.815,0,0,1,1799.965-1535.807Z"/>
    <path id="路径_6861" data-name="路径 6861" class="cls-12" d="M1771.777-1600.549a66.78,66.78,0,0,0-22.925,1.831q-2.967.731-5.908,1.672c-12.973,4.143-25.417,11.181-36.2,18.679-2.59,1.793-5.082,3.618-7.465,5.438-6.317,4.814-11.848,9.574-16.313,13.651h-.005c-6.274,5.733-10.432,10.121-11.684,11.427-12.782,1.131-1.464-17.93-1.464-17.93,7.934-16.143,22.012-29.844,35.658-39.708q2.18-1.581,4.339-3.022c2.268-1.525,4.5-2.929,6.672-4.219,10.531-6.251,23.86-8.044,33.56-7.574,1.683.082,3.257.23,4.689.432a18.979,18.979,0,0,1,7.1,2.115c4.482,2.912,8.061,8.973,9.394,13.869A15.123,15.123,0,0,1,1771.777-1600.549Z"/>
    <ellipse id="椭圆_886" data-name="椭圆 886" class="cls-13" cx="12.995" cy="19.581" rx="12.995" ry="19.581" transform="translate(1708.806 -1553.781) rotate(-27.181)"/>
    <ellipse id="椭圆_887" data-name="椭圆 887" class="cls-14" cx="10.344" cy="15.89" rx="10.344" ry="15.89" transform="translate(1713.457 -1551.601) rotate(-27.181)"/>
    <ellipse id="椭圆_888" data-name="椭圆 888" class="cls-15" cx="2.373" cy="4.529" rx="2.373" ry="4.529" transform="translate(1729.248 -1551.045) rotate(-30)"/>
    <path id="路径_6862" data-name="路径 6862" class="cls-13" d="M1799.757-1547.731a7.472,7.472,0,0,1-2.4,1.142c-5.771,1.558-12.351-4.23-14.7-12.924s.432-17.007,6.2-18.564a7.568,7.568,0,0,1,3.7-.044C1796.757-1568.492,1798.937-1556.731,1799.757-1547.731Z"/>
    <path id="路径_6863" data-name="路径 6863" class="cls-14" d="M1797.032-1549.363c-4.594,1.239-9.86-3.478-11.763-10.534s.278-13.781,4.872-15.02a11.06,11.06,0,0,1,3.563-.419c1.33.207,8.993,17.558,5.789,25C1799.29-1549.782,1797.032-1549.363,1797.032-1549.363Z"/>
    <ellipse id="椭圆_889" data-name="椭圆 889" class="cls-15" cx="2.259" cy="4.926" rx="2.259" ry="4.926" transform="matrix(0.968, -0.249, 0.249, 0.968, 1791.217, -1570.654)"/>
    <path id="路径_6864" data-name="路径 6864" class="cls-16" d="M1777.547-1581.013"/>
    <path id="路径_6865" data-name="路径 6865" class="cls-17" d="M1667.5-1515.822c-6.344-1.158-12.361,1.645-14.8,6.487.907.213,1.82.421,2.749.629a201.454,201.454,0,0,0,20.045,3.3q1.73.2,3.492.36C1678.17-1510.22,1673.634-1514.7,1667.5-1515.822Z"/>
    <path id="路径_6866" data-name="路径 6866" class="cls-18" d="M1675.492-1505.411a201.454,201.454,0,0,1-20.045-3.3c2.066-3.066,6.465-4.733,11.121-3.881C1671.055-1511.761,1674.486-1508.843,1675.492-1505.411Z"/>
    <path id="路径_6867" data-name="路径 6867" class="cls-17" d="M1614.073-1534.812c-5.367-3.558-12-3.257-16.357.306,5.219,4.536,12.925,9.591,22.931,14.258A14.615,14.615,0,0,0,1614.073-1534.812Z"/>
    <path id="路径_6868" data-name="路径 6868" class="cls-18" d="M1617.155-1521.937a100.905,100.905,0,0,1-17.072-10.618c3.213-2.29,7.94-2.29,11.842.355A11.562,11.562,0,0,1,1617.155-1521.937Z"/>
    <path id="路径_6869" data-name="路径 6869" class="cls-19" d="M1798.7-1534.134c-.661.863-1.328,1.721-2.027,2.574-6.973,8.541-16.712,16.345-49.594,23.039h-.005c-1.29.263-2.612.525-3.979.787,0,0-2.617-27,27.379-35.931C1787.68-1548.786,1795.314-1541.381,1798.7-1534.134Z"/>
    <path id="路径_6870" data-name="路径 6870" class="cls-20" d="M1796.675-1531.56c-.744.912-1.52,1.814-2.356,2.71v.006a44.173,44.173,0,0,1-3.907,3.716.017.017,0,0,1-.011.005l-1.175.946c-.869.672-1.8,1.344-2.809,2.005-1.229.814-2.574,1.618-4.049,2.416l-1.11.579c-1.185.606-2.453,1.213-3.814,1.8a.609.609,0,0,1-.055.028l-.065.027c-1.29.563-2.656,1.12-4.121,1.672l-.027.011-1.306.481c-1.323.481-2.711.951-4.175,1.421l-.306.093q-1.739.556-3.634,1.1l-.312.093-1.47.41c-1.088.3-2.2.6-3.355.891-1.361.349-2.777.7-4.247,1.038l-.027.006-1.694.393c-1.782.4-3.634.8-5.569,1.191h-.005a33.137,33.137,0,0,1,3.874-16.055c.394-.733.831-1.476,1.312-2.208a28.762,28.762,0,0,1,3.749-4.6,28.818,28.818,0,0,1,3-2.6c.432-.328.874-.65,1.339-.956v-.006a32.6,32.6,0,0,1,4.088-2.333,35.926,35.926,0,0,1,4.093-1.667c.251-.087.5-.169.759-.251.241-.077.476-.148.711-.224,1.59-.481,3.087-.858,4.5-1.137a35.435,35.435,0,0,1,3.689-.541c.431-.038.847-.071,1.257-.087a24.1,24.1,0,0,1,4.628.18,19.106,19.106,0,0,1,2.875.628q.755.229,1.437.509a14.93,14.93,0,0,1,4.765,3.049.016.016,0,0,1,.006.011A14.5,14.5,0,0,1,1796.675-1531.56Z"/>
    <path id="路径_6871" data-name="路径 6871" class="cls-19" d="M1758.618-1511.149l-4.247,1.038-.027.006-2.082-16.679a28.762,28.762,0,0,1,3.749-4.6Z"/>
    <path id="路径_6872" data-name="路径 6872" class="cls-21" d="M1754.344-1510.1l-1.694.393-1.7-14.864c.394-.733.831-1.476,1.312-2.208Z"/>
    <path id="路径_6873" data-name="路径 6873" class="cls-19" d="M1767.695-1513.734l-.306.093-3.634,1.1-.312.093-3.093-22.493v-.006a32.6,32.6,0,0,1,4.088-2.333Z"/>
    <path id="路径_6874" data-name="路径 6874" class="cls-21" d="M1763.443-1512.45l-1.47.41-2.962-21.947c.432-.328.874-.65,1.339-.956Z"/>
    <path id="路径_6875" data-name="路径 6875" class="cls-19" d="M1777.444-1517.374v.006l-.055.022-.065.027-4.121,1.672-.027.011L1770-1539.424c1.59-.481,3.087-.858,4.5-1.137Z"/>
    <path id="路径_6876" data-name="路径 6876" class="cls-21" d="M1773.176-1515.636l-1.306.481-3.339-23.794c.251-.087.5-.169.759-.251.241-.077.476-.148.711-.224Z"/>
    <path id="路径_6877" data-name="路径 6877" class="cls-19" d="M1786.417-1522.172c-1.229.814-2.574,1.618-4.049,2.416l-2.918-21.433a24.1,24.1,0,0,1,4.628.18S1786.2-1524.456,1786.417-1522.172Z"/>
    <path id="路径_6878" data-name="路径 6878" class="cls-21" d="M1782.368-1519.756l-1.11.579-3.065-21.925c.431-.038.847-.071,1.257-.087Z"/>
    <path id="路径_6879" data-name="路径 6879" class="cls-19" d="M1794.319-1528.85v.006a44.173,44.173,0,0,1-3.907,3.716.017.017,0,0,1-.011.005l-2.011-14.749a14.93,14.93,0,0,1,4.765,3.049.016.016,0,0,1,.006.011S1794.013-1531.3,1794.319-1528.85Z"/>
    <path id="路径_6880" data-name="路径 6880" class="cls-21" d="M1790.4-1525.123l-1.175.946-2.273-16.2q.755.229,1.437.509Z"/>
    <path id="路径_6881" data-name="路径 6881" class="cls-22" d="M1771.777-1600.549a66.78,66.78,0,0,0-22.925,1.831q-2.967.731-5.908,1.672c-12.973,4.143-25.417,11.181-36.2,18.674v.005c-.645.448-1.29.9-1.924,1.35s-1.262.907-1.885,1.361-1.241.907-1.847,1.361-1.213.912-1.809,1.366c-6.317,4.814-11.848,9.574-16.313,13.651a178.3,178.3,0,0,1,17.231-18.466c2.213-2.076,4.6-4.208,7.126-6.323,10.788-9.038,24.182-17.859,38.123-21.165a53.022,53.022,0,0,1,5.5-1.005,40.693,40.693,0,0,1,20.28,2.349A15.123,15.123,0,0,1,1771.777-1600.549Z"/>
    <path id="路径_6882" data-name="路径 6882" class="cls-23" d="M1709.806-1608.511l-2.487,24.444c-2.53,2.115-4.913,4.247-7.126,6.323l5.274-27.745Q1707.647-1607.07,1709.806-1608.511Z"/>
    <path id="路径_6883" data-name="路径 6883" class="cls-24" d="M1707.319-1584.067l-.579,5.7v.005c-.645.448-1.29.9-1.924,1.35s-1.262.907-1.885,1.361-1.241.907-1.847,1.361-1.213.912-1.809,1.366l.918-4.815C1702.406-1579.82,1704.789-1581.952,1707.319-1584.067Z"/>
    <path id="路径_6884" data-name="路径 6884" class="cls-23" d="M1754.727-1619.872l-3.788,13.635a53.022,53.022,0,0,0-5.5,1.005l4.6-15.072C1751.721-1620.222,1753.3-1620.074,1754.727-1619.872Z"/>
    <path id="路径_6885" data-name="路径 6885" class="cls-24" d="M1750.939-1606.237l-2.087,7.519q-2.967.731-5.908,1.672l2.5-8.186A53.022,53.022,0,0,1,1750.939-1606.237Z"/>
    <ellipse id="椭圆_890" data-name="椭圆 890" class="cls-9" cx="5.721" cy="2.668" rx="5.721" ry="2.668" transform="translate(1662.901 -1537.282)"/>
    <path id="路径_6886" data-name="路径 6886" class="cls-25" d="M1602.457-1626.745a1.407,1.407,0,0,0,.5,2.527c7.042,1.511,27.562,3.209,63.617-14.745C1670.724-1641.22,1627.475-1644.522,1602.457-1626.745Z"/>
    <g id="组_2824" data-name="组 2824">
      <text id="_6" data-name="6" class="cls-26" transform="translate(1663.701 -1673.457)"><tspan x="0" y="0">6</tspan></text>
      <text id="_9" data-name="9" class="cls-26" transform="translate(1701.739 -1729.533)"><tspan x="0" y="0">9</tspan></text>
      <text id="_" data-name="?" class="cls-26" transform="translate(1740.125 -1673.457)"><tspan x="0" y="0">?</tspan></text>
      <g id="组_2822" data-name="组 2822">
        <path id="路径_6887" data-name="路径 6887" class="cls-27" d="M1702.457-1723.3a1,1,0,0,0-.809.411l-28.242,25.421a1,1,0,0,0,.217,1.4,1,1,0,0,0,1.4-.217l28.242-25.421a1,1,0,0,0-.217-1.4A.993.993,0,0,0,1702.457-1723.3Z"/>
      </g>
      <g id="组_2823" data-name="组 2823">
        <path id="路径_6888" data-name="路径 6888" class="cls-27" d="M1714.916-1723.3a1,1,0,0,1,.809.411l28.242,25.421a1,1,0,0,1-.217,1.4,1,1,0,0,1-1.4-.217l-28.242-25.421a1,1,0,0,1,.217-1.4A.993.993,0,0,1,1714.916-1723.3Z"/>
      </g>
    </g>
  </g>
</svg>
