<svg xmlns="http://www.w3.org/2000/svg" width="304.582" height="368.464" viewBox="0 0 304.582 368.464">
  <defs>
    <style>
      .cls-1, .cls-13 {
        fill: #f37366;
      }

      .cls-1, .cls-17 {
        stroke-miterlimit: 10;
      }

      .cls-2 {
        fill: #abd6ff;
      }

      .cls-3 {
        fill: #a86a47;
      }

      .cls-4 {
        fill: #ffd858;
      }

      .cls-5 {
        fill: #ee6457;
      }

      .cls-6 {
        fill: #e35546;
      }

      .cls-7 {
        fill: #f36e3a;
      }

      .cls-8 {
        fill: #f6804e;
      }

      .cls-9 {
        fill: #fa9e49;
      }

      .cls-10 {
        fill: #ffe58f;
      }

      .cls-11 {
        fill: #5266ae;
      }

      .cls-12 {
        fill: #525f9b;
      }

      .cls-14 {
        fill: #e3d8e3;
      }

      .cls-15 {
        fill: #fdb74f;
      }

      .cls-16 {
        fill: #fede81;
      }

      .cls-17 {
        fill: none;
        stroke: #1f8a5d;
        stroke-width: 1.2px;
      }

      .cls-18 {
        fill: #ebf393;
      }

      .cls-19 {
        fill: #4eb092;
      }

      .cls-20 {
        fill: #f17669;
      }

      .cls-21 {
        fill: #665855;
      }

      .cls-22 {
        fill: #e85c52;
      }

      .cls-23 {
        fill: #e66153;
      }

      .cls-24 {
        fill: #fd8f8b;
      }

      .cls-25 {
        fill: #f28580;
      }

      .cls-26 {
        fill: #f37464;
      }

      .cls-27 {
        fill: #3581f2;
      }

      .cls-28, .cls-31 {
        fill: #fff;
      }

      .cls-29 {
        fill: #96420f;
        font-size: 29.135px;
        font-family: TimesNewRomanPS-BoldMT, Times New Roman;
        font-weight: 700;
      }

      .cls-30, .cls-31 {
        stroke: none;
      }
    </style>
  </defs>
  <g id="组_2788" data-name="组 2788" transform="translate(-1151.65 981.293)">
    <g id="路径_6691" data-name="路径 6691" class="cls-1">
      <path class="cls-30" d="M 1329.88818359375 -617.8291015625 C 1329.885009765625 -617.8291015625 1329.882568359375 -617.8291015625 1329.87939453125 -617.8291015625 C 1324.573486328125 -617.8292236328125 1319.091064453125 -617.9727172851563 1313.58447265625 -618.255615234375 C 1294.806396484375 -619.22265625 1276.588012695313 -621.6069946289063 1259.434936523438 -625.3424682617188 C 1245.023681640625 -628.48095703125 1231.26318359375 -632.5901489257813 1218.53564453125 -637.5559692382813 C 1207.820922851563 -641.7369995117188 1198.028198242188 -646.432861328125 1189.42919921875 -651.51318359375 C 1183.401977539063 -655.0740966796875 1177.991943359375 -658.86181640625 1174.957275390625 -661.645263671875 C 1174.10888671875 -662.4234008789063 1173.243286132813 -663.1837768554688 1172.326904296875 -663.9888305664063 C 1168.500244140625 -667.3504028320313 1164.162963867188 -671.1604614257813 1161.054565429688 -676.605712890625 C 1157.505493164063 -682.8230590820313 1156.122802734375 -690.1799926757813 1156.827514648438 -699.0968627929688 C 1157.23583984375 -704.2452392578125 1158.427124023438 -708.8338623046875 1160.368408203125 -712.7365112304688 C 1161.992553710938 -716.0020141601563 1164.13525390625 -718.7880249023438 1166.736694335938 -721.0173950195313 C 1168.761962890625 -722.7529907226563 1170.76416015625 -723.8857421875 1172.3974609375 -724.614501953125 C 1172.401489257813 -733.9819946289063 1174.096069335938 -742.084228515625 1174.996337890625 -745.728759765625 C 1172.18701171875 -751.3240356445313 1170.364624023438 -757.7393188476563 1169.700439453125 -764.4149780273438 C 1168.982055664063 -771.6360473632813 1169.635864257813 -778.87939453125 1171.591186523438 -785.362060546875 C 1172.98193359375 -789.9728393554688 1174.984619140625 -794.0686645507813 1177.543701171875 -797.53564453125 C 1180.172607421875 -801.0972900390625 1183.32421875 -803.9067993164063 1186.920532226563 -805.8969116210938 C 1187.48779296875 -806.4503173828125 1188.410522460938 -807.3015747070313 1189.699951171875 -808.3405151367188 L 1189.760498046875 -808.38916015625 L 1189.822387695313 -808.4359741210938 L 1189.824096679688 -808.4373168945313 C 1191.32470703125 -809.6619262695313 1193.063110351563 -810.9132690429688 1194.993041992188 -812.1578979492188 C 1198.361938476563 -814.3292236328125 1202.076049804688 -816.32470703125 1206.033569335938 -818.0894775390625 L 1206.68994140625 -818.3822021484375 L 1206.68994140625 -967.6170043945313 C 1206.68994140625 -972.4010009765625 1210.58203125 -976.2930297851563 1215.365966796875 -976.2930297851563 C 1220.14990234375 -976.2930297851563 1224.0419921875 -972.4010009765625 1224.0419921875 -967.6170043945313 L 1224.0419921875 -967.4467163085938 C 1224.7060546875 -967.5213012695313 1225.375854492188 -967.5590209960938 1226.047973632813 -967.5590209960938 L 1414.998046875 -967.5590209960938 C 1417.450073242188 -967.5590209960938 1419.834594726563 -967.0741577148438 1422.08544921875 -966.1179809570313 C 1424.251098632813 -965.1979370117188 1426.196899414063 -963.8837280273438 1427.868774414063 -962.2117919921875 C 1429.540649414063 -960.5398559570313 1430.854858398438 -958.5941162109375 1431.77490234375 -956.4284057617188 C 1432.731079101563 -954.1776123046875 1433.215942382813 -951.7930297851563 1433.215942382813 -949.3410034179688 L 1433.215942382813 -859.3300170898438 C 1433.215942382813 -856.8779907226563 1432.731079101563 -854.493408203125 1431.77490234375 -852.2426147460938 C 1430.854858398438 -850.0769653320313 1429.540649414063 -848.1311645507813 1427.868774414063 -846.459228515625 C 1426.196899414063 -844.7872924804688 1424.251098632813 -843.4730834960938 1422.08544921875 -842.5530395507813 C 1419.834594726563 -841.5968627929688 1417.450073242188 -841.1119995117188 1414.998046875 -841.1119995117188 L 1226.047973632813 -841.1119995117188 C 1225.375854492188 -841.1119995117188 1224.706176757813 -841.1497192382813 1224.0419921875 -841.2243041992188 L 1224.0419921875 -824.1463623046875 C 1226.695068359375 -824.7891235351563 1229.401977539063 -825.3475341796875 1232.140380859375 -825.8162841796875 L 1232.559204101563 -825.8880004882813 L 1232.561889648438 -825.8880004882813 C 1237.17138671875 -826.675048828125 1242.025024414063 -827.2400512695313 1246.995727539063 -827.568115234375 C 1250.476196289063 -827.7981567382813 1254.083740234375 -827.9148559570313 1257.717895507813 -827.9148559570313 C 1262.279174804688 -827.9148559570313 1267.017944335938 -827.7310791015625 1271.802612304688 -827.3687133789063 L 1272.0166015625 -827.3524780273438 L 1272.228393554688 -827.3180541992188 C 1278.23828125 -826.3397216796875 1283.135864257813 -824.4166870117188 1287.1669921875 -821.4481201171875 C 1289.054809570313 -820.7258911132813 1293.26806640625 -818.7601318359375 1298.55419921875 -814.1134033203125 C 1302.421508789063 -810.7140502929688 1306.162109375 -806.50244140625 1309.67236328125 -801.5955810546875 C 1312.958862304688 -797.0014038085938 1316.058227539063 -791.7724609375 1318.921142578125 -785.99658203125 C 1319.689819335938 -786.5287475585938 1320.448120117188 -787.0435180664063 1321.19189453125 -787.5382080078125 C 1323.840698242188 -789.3193969726563 1326.610473632813 -791.0707397460938 1329.425048828125 -792.743896484375 C 1335.1767578125 -796.158447265625 1341.857299804688 -798.7481079101563 1349.283569335938 -800.4423217773438 C 1355.5283203125 -801.8670654296875 1362.231811523438 -802.6200561523438 1368.669677734375 -802.6200561523438 C 1369.960693359375 -802.6200561523438 1371.2470703125 -802.5894775390625 1372.493041992188 -802.5291137695313 C 1374.62939453125 -802.425537109375 1376.6767578125 -802.2366943359375 1378.578125 -801.9677734375 L 1378.585571289063 -801.9667358398438 L 1378.592895507813 -801.9656982421875 C 1383.260986328125 -801.2913818359375 1386.802856445313 -800.1830444335938 1389.12060546875 -798.6715087890625 L 1389.12060546875 -798.6715087890625 C 1395.882446289063 -794.2771606445313 1400.709228515625 -785.700439453125 1402.493286132813 -779.1498413085938 C 1402.662475585938 -778.5302124023438 1402.806884765625 -777.9213256835938 1402.92626953125 -777.325439453125 C 1404.297119140625 -776.6659545898438 1405.645385742188 -775.8908081054688 1406.957763671875 -775.0067138671875 C 1408.708129882813 -773.82763671875 1410.401245117188 -772.4512939453125 1411.990356445313 -770.9158325195313 C 1413.928955078125 -769.0427856445313 1415.249633789063 -767.3819580078125 1415.891723632813 -766.5179443359375 C 1420.522583007813 -762.4614868164063 1424.550170898438 -756.5414428710938 1427.869140625 -748.91015625 C 1430.322387695313 -743.2744750976563 1432.384399414063 -736.7380981445313 1433.997436523438 -729.484130859375 C 1435.331665039063 -723.4837646484375 1436.3330078125 -717.057861328125 1436.893310546875 -710.901123046875 C 1436.999389648438 -709.7453002929688 1437.071044921875 -708.8671875 1437.124877929688 -708.0603637695313 C 1437.254150390625 -706.2596435546875 1437.337768554688 -704.541259765625 1437.375122070313 -702.9224853515625 C 1438.946533203125 -701.9736328125 1440.64404296875 -700.88232421875 1442.081665039063 -699.8043212890625 C 1442.720947265625 -699.32470703125 1443.331787109375 -698.7091064453125 1443.9404296875 -697.9301147460938 L 1444.0859375 -697.7919311523438 L 1444.33935546875 -697.3959350585938 C 1445.596313476563 -695.6378784179688 1446.883544921875 -693.1143798828125 1447.974853515625 -690.2658081054688 C 1449.201293945313 -687.0640869140625 1450.13525390625 -683.5896606445313 1450.67529296875 -680.2183227539063 C 1451.708129882813 -673.7716064453125 1451.819580078125 -664.5374145507813 1446.485717773438 -657.1555786132813 C 1444.606079101563 -654.5542602539063 1440.995727539063 -650.4242553710938 1434.469970703125 -645.5216064453125 C 1428.0673828125 -640.7113647460938 1420.47265625 -636.382080078125 1411.896850585938 -632.6538696289063 C 1401.566284179688 -628.162841796875 1389.970947265625 -624.6329956054688 1377.43310546875 -622.1624145507813 C 1362.8408203125 -619.2869873046875 1346.844116210938 -617.8291015625 1329.88818359375 -617.8291015625 Z"/>
      <path class="cls-31" d="M 1329.879638671875 -622.8291015625 C 1401.329345703125 -622.8268432617188 1434.308715820313 -648.8402709960938 1442.432983398438 -660.083984375 C 1450.322021484375 -671.0020141601563 1444.100952148438 -689.2490234375 1440.203979492188 -694.5819702148438 L 1440.202026367188 -694.5850219726563 L 1440.201049804688 -694.5859375 C 1439.796997070313 -695.1389770507813 1439.41796875 -695.5519409179688 1439.08203125 -695.8040161132813 C 1437.035034179688 -697.3389892578125 1434.328979492188 -698.9479370117188 1432.390991210938 -700.0419921875 C 1432.421997070313 -702.1959838867188 1432.347045898438 -704.7899780273438 1432.136962890625 -707.7130126953125 C 1432.078002929688 -708.5980224609375 1432 -709.510009765625 1431.913940429688 -710.4479370117188 C 1430.931030273438 -721.2479858398438 1428.31396484375 -735.3610229492188 1423.284057617188 -746.916015625 C 1420.41796875 -753.5059814453125 1416.765991210938 -759.2639770507813 1412.182006835938 -763.1129760742188 C 1412.182006835938 -763.1129760742188 1407.02099609375 -770.760009765625 1398.338012695313 -773.8289794921875 C 1398.2919921875 -775.0289916992188 1398.06298828125 -776.39306640625 1397.6689453125 -777.8359375 C 1396.068969726563 -783.7109375 1391.774047851563 -790.9840087890625 1386.39599609375 -794.4790649414063 C 1384.73095703125 -795.5679931640625 1381.734008789063 -796.4600219726563 1377.878051757813 -797.0170288085938 C 1376.160034179688 -797.260009765625 1374.27099609375 -797.43701171875 1372.2509765625 -797.5349731445313 C 1371.097900390625 -797.5908203125 1369.900634765625 -797.6200561523438 1368.669677734375 -797.6200561523438 C 1357.473754882813 -797.6200561523438 1343.365112304688 -795.204833984375 1331.97998046875 -788.4459838867188 C 1329.3759765625 -786.8980102539063 1326.693969726563 -785.2130126953125 1323.973022460938 -783.3829345703125 C 1322.248046875 -782.2360229492188 1320.510009765625 -781.0230102539063 1318.765991210938 -779.7570190429688 C 1318.162963867188 -779.3209838867188 1317.557983398438 -778.8660278320313 1316.953979492188 -778.4180297851563 L 1316.948974609375 -778.4299926757813 C 1301.972045898438 -812.166015625 1284.7900390625 -816.9840087890625 1284.7900390625 -816.9840087890625 L 1284.788940429688 -816.9749755859375 C 1281.443969726563 -819.6099853515625 1277.181030273438 -821.4459838867188 1271.425048828125 -822.3829345703125 C 1266.61767578125 -822.7471313476563 1262.050537109375 -822.9148559570313 1257.718383789063 -822.9148559570313 C 1254.090576171875 -822.9148559570313 1250.627807617188 -822.7972412109375 1247.324951171875 -822.5789794921875 C 1242.157958984375 -822.2379760742188 1237.390014648438 -821.655029296875 1232.989990234375 -820.887939453125 L 1232.984008789063 -820.887939453125 C 1227.848999023438 -820.0089721679688 1223.218994140625 -818.8740234375 1219.073974609375 -817.6090087890625 L 1219.067993164063 -817.6090087890625 L 1219.0419921875 -817.5999755859375 L 1219.0419921875 -848.1519775390625 C 1221.078002929688 -846.8679809570313 1223.475952148438 -846.1119384765625 1226.047973632813 -846.1119384765625 L 1414.998046875 -846.1119384765625 C 1422.267944335938 -846.1119384765625 1428.215942382813 -852.0599365234375 1428.215942382813 -859.3300170898438 L 1428.215942382813 -949.3409423828125 C 1428.215942382813 -956.6110229492188 1422.267944335938 -962.5590209960938 1414.998046875 -962.5590209960938 L 1226.047973632813 -962.5590209960938 C 1223.475952148438 -962.5590209960938 1221.078002929688 -961.802978515625 1219.0419921875 -960.5189819335938 L 1219.0419921875 -967.616943359375 C 1219.0419921875 -969.64697265625 1217.39599609375 -971.2930297851563 1215.365966796875 -971.2930297851563 C 1213.336059570313 -971.2930297851563 1211.68994140625 -969.64697265625 1211.68994140625 -967.616943359375 L 1211.68994140625 -815.030029296875 C 1210.43505859375 -814.533935546875 1209.217041015625 -814.031982421875 1208.077026367188 -813.5230102539063 L 1208.069946289063 -813.5230102539063 C 1203.833984375 -811.6339721679688 1200.39794921875 -809.6929931640625 1197.703002929688 -807.9559936523438 C 1195.708984375 -806.6699829101563 1194.114990234375 -805.489990234375 1192.9150390625 -804.5059814453125 L 1192.837036132813 -804.447021484375 C 1190.8759765625 -802.8670654296875 1189.944946289063 -801.843994140625 1189.944946289063 -801.843994140625 C 1173.426025390625 -793.3579711914063 1169.864990234375 -765.0349731445313 1180.3310546875 -746.3389892578125 C 1181.256958007813 -744.6849365234375 1181.899047851563 -743.0269775390625 1182.342041015625 -741.3729858398438 C 1181.614013671875 -742.9840087890625 1180.928955078125 -744.6290283203125 1180.3310546875 -746.3389892578125 C 1180.3310546875 -746.3389892578125 1176.766967773438 -734.364990234375 1177.495971679688 -720.8590087890625 L 1176.993041992188 -720.9199829101563 C 1176.993041992188 -720.9199829101563 1163.379028320313 -718.4609375 1161.81201171875 -698.7029418945313 C 1160.2509765625 -678.9509887695313 1170.18603515625 -672.8060302734375 1178.337036132813 -665.3300170898438 C 1182.541015625 -661.4739379882813 1196.489013671875 -651.5259399414063 1220.35302734375 -642.2139892578125 C 1242.740966796875 -633.4789428710938 1273.858032226563 -625.3079833984375 1313.840942382813 -623.2490234375 C 1319.38671875 -622.9641723632813 1324.7373046875 -622.8292236328125 1329.879638671875 -622.8291015625 M 1350.442016601563 -764.510986328125 C 1335.240966796875 -757.39501953125 1316.423950195313 -745.6060180664063 1293.9990234375 -726.3270263671875 C 1298.927978515625 -730.739013671875 1304.776000976563 -735.68701171875 1311.336059570313 -740.6859741210938 C 1314.194946289063 -742.8690185546875 1317.18603515625 -745.0599365234375 1320.2939453125 -747.2109375 C 1329.5 -753.6090087890625 1339.713012695313 -759.7210083007813 1350.442016601563 -764.510986328125 M 1305.213989257813 -768.9860229492188 L 1305.254028320313 -768.9219360351563 L 1305.22900390625 -768.9000244140625 L 1305.22705078125 -768.9139404296875 C 1305.223999023438 -768.93701171875 1305.218017578125 -768.9630126953125 1305.213989257813 -768.9860229492188 M 1329.888793945313 -612.8291015625 L 1329.888549804688 -612.8291015625 C 1324.572509765625 -612.8292236328125 1319.050903320313 -612.96826171875 1313.327880859375 -613.26220703125 C 1277.94677734375 -615.0841674804688 1245.442993164063 -621.6905517578125 1216.71826171875 -632.89794921875 C 1193.830688476563 -641.8289794921875 1178.096801757813 -651.9808349609375 1171.577514648438 -657.960693359375 L 1169.027099609375 -660.232421875 C 1161.021484375 -667.264892578125 1150.057373046875 -676.896240234375 1151.843017578125 -699.4908447265625 C 1153.071411132813 -714.9786987304688 1160.466674804688 -723.5775756835938 1167.459838867188 -727.7409057617188 C 1167.733032226563 -734.9911499023438 1168.867431640625 -741.2838134765625 1169.72900390625 -745.1490478515625 C 1163.916015625 -757.8148803710938 1162.760864257813 -773.4009399414063 1166.80419921875 -786.805908203125 C 1169.92626953125 -797.1568603515625 1175.964721679688 -805.3023681640625 1183.901123046875 -809.930908203125 C 1184.546752929688 -810.5365600585938 1185.4296875 -811.3208618164063 1186.563232421875 -812.234130859375 C 1188.005737304688 -813.4125366210938 1189.903930664063 -814.8253784179688 1192.283081054688 -816.3598022460938 C 1195.201293945313 -818.24072265625 1198.3564453125 -819.9945678710938 1201.68994140625 -821.5899047851563 L 1201.68994140625 -967.616943359375 C 1201.68994140625 -975.157958984375 1207.824951171875 -981.2930297851563 1215.365966796875 -981.2930297851563 C 1221.165405273438 -981.2930297851563 1226.133056640625 -977.6649780273438 1228.118408203125 -972.5590209960938 L 1414.998046875 -972.5590209960938 C 1427.800415039063 -972.5590209960938 1438.215942382813 -962.1434936523438 1438.215942382813 -949.3409423828125 L 1438.215942382813 -859.3300170898438 C 1438.215942382813 -846.5275268554688 1427.800415039063 -836.1119384765625 1414.998046875 -836.1119384765625 L 1229.0419921875 -836.1119384765625 L 1229.0419921875 -830.3377075195313 C 1229.7919921875 -830.4801025390625 1230.54345703125 -830.6156616210938 1231.296752929688 -830.74462890625 C 1236.187377929688 -831.5961303710938 1241.367919921875 -832.2075805664063 1246.666381835938 -832.5572509765625 C 1250.177978515625 -832.789306640625 1253.8603515625 -832.914794921875 1257.718383789063 -832.914794921875 C 1262.289306640625 -832.914794921875 1267.108154296875 -832.7385864257813 1272.180297851563 -832.3543701171875 C 1279.627319335938 -831.176513671875 1285.196899414063 -829.0217895507813 1289.818237304688 -825.702392578125 C 1297.746826171875 -822.5988159179688 1309.795532226563 -813.2452392578125 1320.773193359375 -793.2544555664063 C 1322.827270507813 -794.5879516601563 1324.870483398438 -795.8531494140625 1326.870239257813 -797.0418701171875 C 1338.196044921875 -803.765625 1353.429565429688 -807.6201171875 1368.669677734375 -807.6201171875 C 1370.06689453125 -807.6201171875 1371.426025390625 -807.586669921875 1372.73486328125 -807.5232543945313 C 1375.084228515625 -807.4093017578125 1377.28076171875 -807.2010498046875 1379.278564453125 -806.91845703125 C 1384.786987304688 -806.122802734375 1388.895874023438 -804.7928466796875 1391.869262695313 -802.8482055664063 C 1400.154541015625 -797.4639892578125 1405.314453125 -787.6110229492188 1407.251831054688 -780.701416015625 C 1413.606201171875 -777.098388671875 1417.816040039063 -772.2286987304688 1419.586303710938 -769.9234008789063 C 1424.60693359375 -765.3939819335938 1428.93212890625 -759.0028076171875 1432.454345703125 -750.904296875 C 1439.094604492188 -735.64990234375 1441.253051757813 -718.1639404296875 1441.872802734375 -711.354248046875 L 1442.114868164063 -708.3782348632813 C 1442.1796875 -707.47607421875 1442.232666015625 -706.5986938476563 1442.2744140625 -705.7504272460938 C 1443.25732421875 -705.1111450195313 1444.218872070313 -704.4512329101563 1445.081298828125 -703.8046264648438 C 1446.2275390625 -702.9444580078125 1447.271484375 -701.8595581054688 1448.275268554688 -700.4856567382813 C 1454.336669921875 -692.190673828125 1461.484375 -669.3759765625 1450.538452148438 -654.2272338867188 C 1447.476806640625 -649.989990234375 1418.07958984375 -612.8291015625 1329.888793945313 -612.8291015625 Z"/>
    </g>
    <rect id="矩形_477" data-name="矩形 477" class="cls-2" width="215.385" height="116.446" rx="13.218" transform="translate(1212.83 -962.559)"/>
    <path id="路径_6692" data-name="路径 6692" class="cls-3" d="M1219.042-967.617v223.993h-7.352V-967.617a3.676,3.676,0,0,1,3.676-3.676h0A3.676,3.676,0,0,1,1219.042-967.617Z"/>
    <path id="路径_6693" data-name="路径 6693" class="cls-4" d="M1284.79-816.984s17.182,4.818,32.159,38.554-9.245,13.341-9.245,13.341S1282.637-802.992,1284.79-816.984Z"/>
    <path id="路径_6694" data-name="路径 6694" class="cls-5" d="M1310.048-748.935l-42.413,47.1-55.276-24.585-9.469-4.21s-25.038-62.529-12.945-71.218a28.115,28.115,0,0,1,2.892-2.6l.078-.059a52.428,52.428,0,0,1,4.788-3.45,77.027,77.027,0,0,1,10.367-5.567h.007a93.926,93.926,0,0,1,10.991-4.086h.006a112.834,112.834,0,0,1,13.909-3.279h.007a135.307,135.307,0,0,1,14.335-1.691,170.37,170.37,0,0,1,24.1.2c19.2,3.127,21.875,16.186,28.8,35.944,1.908,5.44,4.159,12.379,5,17.525C1307.339-756,1310.048-748.935,1310.048-748.935Z"/>
    <path id="路径_6695" data-name="路径 6695" class="cls-6" d="M1309.852-748.908l-42.414,45.1L1212.163-728.4c-1.732-8.27-1.778-14.992,1.429-17.687a28.243,28.243,0,0,1,2.682-2.82l.079-.059a51,51,0,0,1,4.505-3.8,76.761,76.761,0,0,1,9.915-6.342h.007a94.238,94.238,0,0,1,10.65-4.911h.006a111.875,111.875,0,0,1,13.621-4.329h.007a133.486,133.486,0,0,1,14.164-2.774,170.675,170.675,0,0,1,24.048-1.639c3.095.112,8.972.224,11.425.748A223.8,223.8,0,0,1,1309.852-748.908Z"/>
    <path id="路径_6696" data-name="路径 6696" class="cls-7" d="M1442.433-660.084c-8.709,12.053-45.99,41.078-128.592,36.835-39.983-2.059-71.1-10.23-93.488-18.965-23.864-9.312-37.812-19.26-42.016-23.116-8.151-7.476-18.086-13.621-16.525-33.373s15.181-22.217,15.181-22.217l109.994,13.358,69.106,2.984,73.841,3.193a81.15,81.15,0,0,1,9.148,5.581C1442.656-693.122,1451.142-672.137,1442.433-660.084Z"/>
    <path id="路径_6697" data-name="路径 6697" class="cls-8" d="M1442.433-660.084c-8.709,12.053-45.99,41.078-128.592,36.835-39.983-2.059-71.1-10.23-93.488-18.965-.682-.538-18.683-14.611-12.44-13.627,6.361,1,18.086.335,9.319-3.823s-7.85-7.955-7.85-7.955l146.711-36.959,73.841,3.193a81.15,81.15,0,0,1,9.148,5.581C1442.656-693.122,1451.142-672.137,1442.433-660.084Z"/>
    <path id="路径_6698" data-name="路径 6698" class="cls-9" d="M1177.148-720.22s-13.324,6-7.632,18.39,34.045,40.854,88.74,49.56,121,10.493,164.084-14.511c20.315-11.832,20.014-23.684,17.862-27.8-3.658-3.952-20.82-12.24-20.82-12.24l-140.141-.783Z"/>
    <path id="路径_6699" data-name="路径 6699" class="cls-4" d="M1412.182-763.113s-30.474,46.547-54.8,75.795-94.878-.223-143.327-10.716-23.26-29.615-33.72-48.3-6.905-47.019,9.614-55.505c-2.728,2.9-3.764,28.094,9.154,48.377a55.744,55.744,0,0,0,8.217,10.145v.007s3.915,3.2,10.08,7.495c10.827,7.555,28.592,18.5,44.271,21.444,4.348.813,9.542,1.745,16.008,2.833,80.372-76.47,120.663-62.286,120.663-62.286C1407.021-770.76,1412.182-763.113,1412.182-763.113Z"/>
    <path id="路径_6700" data-name="路径 6700" class="cls-10" d="M1241.738-695.47c-2.125,2.014-14.178-5.915-14.178-5.915L1199.1-753.467a55.744,55.744,0,0,0,8.217,10.145v.007s3.915,3.2,10.08,7.495C1224.53-724.495,1240.695-698.676,1241.738-695.47Z"/>
    <path id="路径_6701" data-name="路径 6701" class="cls-11" d="M1432.163-696.139l-1.514,2.007c-.794,1.036-1.594,2.066-2.433,3.089-8.368,10.25-20.054,19.614-59.512,27.647h-.007c-1.548.315-3.135.63-4.774.945l-.741.138a290.82,290.82,0,0,1-76.195,3.082q-2.115-.2-4.191-.433a241.892,241.892,0,0,1-24.053-3.954c-1.115-.25-2.21-.5-3.3-.755a196.958,196.958,0,0,1-38.462-13.1q-2.154-1-4.19-2.026a121.164,121.164,0,0,1-20.487-12.742c-1.009-.787-1.954-1.574-2.839-2.341a40.07,40.07,0,0,1-8.119-9.036,43.881,43.881,0,0,1-3.082-10.336c-2.806-16.04,2.066-32.389,2.066-32.389,12.178,34.8,52.364,48.8,73.46,54.332s31.143,4.853,38.219-3.495c55.466-76.327,102.092-71.848,120.172-67.611,4.584,3.849,8.236,9.607,11.1,16.2,5.03,11.555,7.647,25.668,8.63,36.468.085.938.164,1.85.223,2.735A65.482,65.482,0,0,1,1432.163-696.139Z"/>
    <path id="路径_6702" data-name="路径 6702" class="cls-12" d="M1432.163-696.139l-1.514,2.007c-.794,1.036-1.594,2.066-2.433,3.089-8.368,10.25-20.054,19.614-59.512,27.647h-.007c-1.548.315-3.135.63-4.774.945l-.741.138a290.82,290.82,0,0,1-76.195,3.082q-2.115-.2-4.191-.433a241.892,241.892,0,0,1-24.053-3.954c-1.115-.25-2.21-.5-3.3-.755a196.958,196.958,0,0,1-38.462-13.1q-2.154-1-4.19-2.026a121.164,121.164,0,0,1-20.487-12.742c-1.009-.787-1.954-1.574-2.839-2.341a40.07,40.07,0,0,1-8.119-9.036,43.881,43.881,0,0,1-3.082-10.336l.007-.006s83.507,83.841,253.642,6.348c.072-.033.151-.066.223-.105A65.482,65.482,0,0,1,1432.163-696.139Z"/>
    <path id="路径_6703" data-name="路径 6703" class="cls-13" d="M1398.338-773.829a80.121,80.121,0,0,0-27.51,2.2q-3.561.876-7.089,2.007c-15.568,4.971-30.5,13.417-43.445,22.414-3.108,2.151-6.1,4.342-8.958,6.525-7.581,5.778-14.217,11.49-19.575,16.382h-.007c-7.528,6.879-12.518,12.145-14.02,13.712-15.339,1.358-1.758-21.516-1.758-21.516,9.522-19.372,26.415-35.812,42.79-47.649q2.616-1.9,5.207-3.626c2.721-1.83,5.4-3.515,8.007-5.063,12.637-7.5,28.631-9.653,40.271-9.089,2.02.1,3.909.275,5.627.518,3.856.557,6.853,1.449,8.519,2.538,5.377,3.495,9.672,10.768,11.272,16.643A18.144,18.144,0,0,1,1398.338-773.829Z"/>
    <ellipse id="椭圆_866" data-name="椭圆 866" class="cls-14" cx="15.594" cy="23.498" rx="15.594" ry="23.498" transform="translate(1322.773 -717.708) rotate(-27.181)"/>
    <ellipse id="椭圆_867" data-name="椭圆 867" class="cls-15" cx="12.413" cy="19.068" rx="12.413" ry="19.068" transform="translate(1328.355 -715.092) rotate(-27.181)"/>
    <ellipse id="椭圆_868" data-name="椭圆 868" class="cls-16" cx="2.848" cy="5.435" rx="2.848" ry="5.435" transform="translate(1347.304 -714.425) rotate(-30)"/>
    <path id="路径_6704" data-name="路径 6704" class="cls-14" d="M1431.914-710.448a8.958,8.958,0,0,1-2.879,1.371c-6.925,1.869-14.82-5.076-17.634-15.509s.518-20.408,7.443-22.277a9.075,9.075,0,0,1,4.44-.053C1428.314-735.361,1430.931-721.248,1431.914-710.448Z"/>
    <path id="路径_6705" data-name="路径 6705" class="cls-15" d="M1428.644-712.406c-5.512,1.486-11.832-4.173-14.115-12.641s.334-16.537,5.846-18.024a13.28,13.28,0,0,1,4.275-.5c1.6.248,10.792,21.07,6.948,30C1431.354-712.909,1428.644-712.406,1428.644-712.406Z"/>
    <ellipse id="椭圆_869" data-name="椭圆 869" class="cls-16" cx="2.711" cy="5.911" rx="2.711" ry="5.911" transform="matrix(0.968, -0.249, 0.249, 0.968, 1421.667, -737.955)"/>
    <path id="路径_6706" data-name="路径 6706" class="cls-17" d="M1405.262-750.386"/>
    <path id="路径_6707" data-name="路径 6707" class="cls-18" d="M1273.209-672.157c-7.614-1.39-14.834,1.974-17.765,7.784,1.089.256,2.184.505,3.3.755a241.892,241.892,0,0,0,24.053,3.954q2.076.235,4.191.433C1286.01-665.435,1280.567-670.812,1273.209-672.157Z"/>
    <path id="路径_6708" data-name="路径 6708" class="cls-19" d="M1282.8-659.664a241.892,241.892,0,0,1-24.053-3.954c2.478-3.679,7.757-5.68,13.345-4.657C1277.472-667.284,1281.59-663.782,1282.8-659.664Z"/>
    <path id="路径_6709" data-name="路径 6709" class="cls-18" d="M1209.093-694.945c-6.439-4.269-14.394-3.908-19.627.367,6.263,5.443,15.509,11.509,27.516,17.109A17.536,17.536,0,0,0,1209.093-694.945Z"/>
    <path id="路径_6710" data-name="路径 6710" class="cls-19" d="M1212.792-679.495a121.164,121.164,0,0,1-20.487-12.742c3.856-2.747,9.529-2.747,14.211.427A13.872,13.872,0,0,1,1212.792-679.495Z"/>
    <path id="路径_6711" data-name="路径 6711" class="cls-20" d="M1430.649-694.132c-.794,1.036-1.594,2.066-2.433,3.089-8.368,10.25-20.054,19.614-59.512,27.647h-.007c-1.548.315-3.135.63-4.774.945,0,0-3.141-32.4,32.855-43.118C1417.421-711.713,1426.583-702.828,1430.649-694.132Z"/>
    <path id="路径_6712" data-name="路径 6712" class="cls-21" d="M1428.216-691.043c-.892,1.1-1.823,2.177-2.827,3.253v.006a52.928,52.928,0,0,1-4.689,4.459.018.018,0,0,1-.013.007l-1.41,1.134c-1.042.807-2.164,1.614-3.37,2.407-1.476.977-3.089,1.941-4.86,2.9l-1.331.7c-1.423.728-2.944,1.456-4.577,2.164-.027.013-.046.026-.066.033l-.079.032c-1.547.676-3.187,1.345-4.944,2.007l-.033.013-1.567.577c-1.587.577-3.253,1.141-5.01,1.705l-.368.112q-2.085.669-4.361,1.318l-.373.111-1.764.492c-1.3.361-2.637.715-4.027,1.069-1.633.42-3.331.84-5.095,1.246l-.033.007-2.033.472q-3.207.719-6.682,1.429h-.007a39.764,39.764,0,0,1,4.65-19.266c.472-.879,1-1.771,1.573-2.65a34.516,34.516,0,0,1,4.5-5.521,34.523,34.523,0,0,1,3.6-3.122c.518-.393,1.05-.78,1.607-1.147v-.007a39.219,39.219,0,0,1,4.905-2.8,43.158,43.158,0,0,1,4.912-2c.3-.1.6-.2.911-.3.289-.092.571-.177.853-.269,1.908-.577,3.7-1.029,5.4-1.364a42.361,42.361,0,0,1,4.426-.649c.518-.046,1.017-.085,1.508-.105a29.02,29.02,0,0,1,5.555.216,22.783,22.783,0,0,1,3.449.755c.6.183,1.181.386,1.725.609a17.939,17.939,0,0,1,5.718,3.66.019.019,0,0,1,.007.013A17.394,17.394,0,0,1,1428.216-691.043Z"/>
    <path id="路径_6713" data-name="路径 6713" class="cls-20" d="M1382.547-666.55l-5.095,1.246-.033.007-2.5-20.015a34.516,34.516,0,0,1,4.5-5.521Z"/>
    <path id="路径_6714" data-name="路径 6714" class="cls-22" d="M1377.419-665.3l-2.033.472-2.039-17.837c.472-.879,1-1.771,1.573-2.65Z"/>
    <path id="路径_6715" data-name="路径 6715" class="cls-20" d="M1393.44-669.652l-.368.112-4.361,1.318-.373.111-3.712-26.991v-.007a39.219,39.219,0,0,1,4.905-2.8Z"/>
    <path id="路径_6716" data-name="路径 6716" class="cls-22" d="M1388.338-668.111l-1.764.492-3.555-26.336c.518-.393,1.05-.78,1.607-1.147Z"/>
    <path id="路径_6717" data-name="路径 6717" class="cls-20" d="M1405.139-674.019v.006l-.066.027-.079.032-4.944,2.007-.033.013-3.81-28.546c1.908-.577,3.7-1.029,5.4-1.364Z"/>
    <path id="路径_6718" data-name="路径 6718" class="cls-22" d="M1400.017-671.934l-1.567.577-4.007-28.552c.3-.1.6-.2.911-.3.289-.092.571-.177.853-.269Z"/>
    <path id="路径_6719" data-name="路径 6719" class="cls-20" d="M1415.907-679.777c-1.476.977-3.089,1.941-4.86,2.9l-3.5-25.72a29.02,29.02,0,0,1,5.555.216S1415.644-682.518,1415.907-679.777Z"/>
    <path id="路径_6720" data-name="路径 6720" class="cls-22" d="M1411.047-676.878l-1.331.7-3.679-26.31c.518-.046,1.017-.085,1.508-.105Z"/>
    <path id="路径_6721" data-name="路径 6721" class="cls-20" d="M1425.389-687.79v.006a52.928,52.928,0,0,1-4.689,4.459.018.018,0,0,1-.013.007l-2.413-17.7a17.939,17.939,0,0,1,5.718,3.66.019.019,0,0,1,.007.013S1425.022-690.728,1425.389-687.79Z"/>
    <path id="路径_6722" data-name="路径 6722" class="cls-22" d="M1420.687-683.318l-1.41,1.134-2.728-19.443c.6.183,1.181.386,1.725.609Z"/>
    <path id="路径_6723" data-name="路径 6723" class="cls-23" d="M1398.338-773.829a80.121,80.121,0,0,0-27.51,2.2q-3.561.876-7.089,2.007c-15.568,4.971-30.5,13.417-43.445,22.408v.006c-.774.538-1.548,1.076-2.308,1.62s-1.515,1.089-2.263,1.633-1.488,1.089-2.216,1.633-1.456,1.1-2.171,1.639c-7.581,5.778-14.217,11.49-19.575,16.382a213.73,213.73,0,0,1,20.677-22.159c2.656-2.492,5.515-5.05,8.551-7.587,12.945-10.847,29.018-21.431,45.747-25.4a63.7,63.7,0,0,1,6.6-1.206,48.833,48.833,0,0,1,24.336,2.819A18.144,18.144,0,0,1,1398.338-773.829Z"/>
    <path id="路径_6724" data-name="路径 6724" class="cls-24" d="M1323.973-783.383l-2.984,29.333c-3.036,2.537-5.9,5.095-8.551,7.587l6.328-33.294Q1321.382-781.656,1323.973-783.383Z"/>
    <path id="路径_6725" data-name="路径 6725" class="cls-25" d="M1320.989-754.05l-.7,6.833v.006c-.774.538-1.548,1.076-2.308,1.62s-1.515,1.089-2.263,1.633-1.488,1.089-2.216,1.633-1.456,1.1-2.171,1.639l1.1-5.777C1315.094-748.955,1317.953-751.513,1320.989-754.05Z"/>
    <path id="路径_6726" data-name="路径 6726" class="cls-24" d="M1377.878-797.017l-4.545,16.362a63.7,63.7,0,0,0-6.6,1.206l5.515-18.086C1374.271-797.437,1376.16-797.26,1377.878-797.017Z"/>
    <path id="路径_6727" data-name="路径 6727" class="cls-25" d="M1373.333-780.655l-2.505,9.023q-3.561.876-7.089,2.007l3-9.824A63.7,63.7,0,0,1,1373.333-780.655Z"/>
    <ellipse id="椭圆_870" data-name="椭圆 870" class="cls-10" cx="6.865" cy="3.202" rx="6.865" ry="3.202" transform="translate(1267.688 -697.909)"/>
    <path id="路径_6728" data-name="路径 6728" class="cls-26" d="M1195.154-805.264a1.688,1.688,0,0,0,.6,3.032c8.451,1.814,33.074,3.851,76.34-17.694C1277.076-822.634,1225.176-826.6,1195.154-805.264Z"/>
    <g id="组_2787" data-name="组 2787">
      <rect id="矩形_478" data-name="矩形 478" class="cls-27" width="75.202" height="59.646" transform="translate(1256.824 -920.465)"/>
      <rect id="矩形_479" data-name="矩形 479" class="cls-28" width="56.935" height="59.646" transform="translate(1332.025 -920.465)"/>
      <text id="_" data-name="?" class="cls-29" transform="translate(1286.852 -881.81)"><tspan x="0" y="0">?</tspan></text>
      <text id="_5" data-name="5" class="cls-29" transform="translate(1315.124 -932.631)"><tspan x="0" y="0">5</tspan></text>
      <text id="_2" data-name="2" class="cls-29" transform="translate(1353.572 -881.81)"><tspan x="0" y="0">2</tspan></text>
    </g>
  </g>
</svg>
