<svg id="组_6661" data-name="组 6661" xmlns="http://www.w3.org/2000/svg" width="142.494" height="65.898" viewBox="0 0 142.494 65.898">
  <defs>
    <style>
      .cls-1 {
        fill: #ccd9ff;
      }

      .cls-2 {
        fill: #8ca6fd;
      }

      .cls-3, .cls-4 {
        fill: #fff;
      }

      .cls-3 {
        font-size: 28.534px;
        font-family: TimesNewRomanPS-BoldMT, Times New Roman;
        font-weight: 700;
        letter-spacing: 0.05em;
      }
    </style>
  </defs>
  <path id="路径_6997" data-name="路径 6997" class="cls-1" d="M979.144,248.435h40.533a10.734,10.734,0,0,0,5.558-1.551l22.259-13.474a6,6,0,0,0,2.9-5.138V201.677a6.008,6.008,0,0,0-3.057-5.232l-22.207-12.525a10.731,10.731,0,0,0-5.273-1.384h-81.42a10.739,10.739,0,0,0-5.275,1.384l-22.206,12.525a6.008,6.008,0,0,0-3.057,5.232v26.595a6,6,0,0,0,2.9,5.138l22.257,13.474a10.741,10.741,0,0,0,5.559,1.551Z" transform="translate(-907.897 -182.537)"/>
  <path id="路径_6998" data-name="路径 6998" class="cls-2" d="M979.144,243.986H1016.2a10.241,10.241,0,0,0,5.081-1.341l20.35-11.655a5.144,5.144,0,0,0,2.649-4.444v-23a5.155,5.155,0,0,0-2.795-4.525l-20.3-10.834a10.249,10.249,0,0,0-4.821-1.2H941.923a10.249,10.249,0,0,0-4.821,1.2l-20.3,10.834A5.156,5.156,0,0,0,914,203.541v23a5.144,5.144,0,0,0,2.649,4.444L937,242.645a10.248,10.248,0,0,0,5.082,1.341Z" transform="translate(-907.897 -182.537)"/>
  <text id="_5_3_1" data-name="5+3  1" class="cls-3" transform="translate(30.808 41.099)"><tspan x="0" y="0" xml:space="preserve">5+3  1</tspan></text>
  <rect id="矩形_2326" data-name="矩形 2326" class="cls-4" width="15" height="2" transform="translate(83.202 31.826)"/>
</svg>
