<svg xmlns="http://www.w3.org/2000/svg" width="258.635" height="261.715" viewBox="0 0 258.635 261.715">
  <defs>
    <style>
      .cls-1 {
        fill: #ffbfce;
        stroke: #fff;
        stroke-miterlimit: 10;
        stroke-width: 10px;
      }

      .cls-2, .cls-3, .cls-4 {
        fill: #964615;
      }

      .cls-2 {
        font-size: 47.005px;
      }

      .cls-2, .cls-4 {
        font-family: TimesNewRomanPS-BoldMT, Times New Roman;
        font-weight: 700;
      }

      .cls-4 {
        font-size: 46.955px;
      }

      .cls-5 {
        stroke: none;
      }

      .cls-6 {
        fill: none;
      }
    </style>
  </defs>
  <g id="组_2686" data-name="组 2686" transform="translate(1348.185 -512.051)">
    <g id="矩形_389" data-name="矩形 389" class="cls-1" transform="translate(-1338.185 522.051)">
      <path class="cls-5" d="M0,0H238.635a0,0,0,0,1,0,0V241.715a0,0,0,0,1,0,0H11.486A11.486,11.486,0,0,1,0,230.23V0A0,0,0,0,1,0,0Z"/>
      <path class="cls-6" d="M0-5H238.635a5,5,0,0,1,5,5V241.715a5,5,0,0,1-5,5H11.486A16.486,16.486,0,0,1-5,230.23V0A5,5,0,0,1,0-5Z"/>
    </g>
    <g id="组_2685" data-name="组 2685">
      <text id="_4" data-name="4" class="cls-2" transform="translate(-1160.245 623.405)"><tspan x="0" y="0">4</tspan></text>
      <text id="_3" data-name="3" class="cls-2" transform="translate(-1300.993 623.405)"><tspan x="0" y="0">3</tspan></text>
      <g id="组_2684" data-name="组 2684">
        <path id="路径_5998" data-name="路径 5998" class="cls-3" d="M-1291.636,634.6a2.091,2.091,0,0,1,1.994-2.177,2.091,2.091,0,0,1,1.994,2.177c0,6.1,0,11.371,36.091,11.371,14.645,0,24.932,3.421,30.577,10.167a18.832,18.832,0,0,1,2.248,3.349,17.772,17.772,0,0,1,1.738-2.6c5.8-7.241,17.247-10.912,34.032-10.912,27.778,0,34.368-5.58,35.912-7.979a3.126,3.126,0,0,0,.57-2.573,2.228,2.228,0,0,1,1.026-2.842,1.958,1.958,0,0,1,2.643,1.14,7.527,7.527,0,0,1-.8,6.5c-3.994,6.708-17.232,10.11-39.348,10.11-19.27,0-27.456,5.056-30.929,9.3a12.019,12.019,0,0,0-2.845,6.823,10.1,10.1,0,0,1,.009,1.389,2.077,2.077,0,0,1-1.943,1.981,2.057,2.057,0,0,1-2.02-1.886,9.4,9.4,0,0,1-.034-1.429,13.456,13.456,0,0,0-3.291-7.536c-3.36-3.942-10.866-8.641-27.542-8.641C-1286.067,650.326-1291.636,645.69-1291.636,634.6Z"/>
      </g>
      <text id="_" data-name="?" class="cls-4" transform="translate(-1230.742 707.229)"><tspan x="0" y="0">?</tspan></text>
    </g>
  </g>
</svg>
