<svg xmlns="http://www.w3.org/2000/svg" width="106.114" height="93.578" viewBox="0 0 106.114 93.578">
  <defs>
    <style>
      .cls-1 {
        fill: #e5ab76;
      }

      .cls-2 {
        fill: #9d81eb;
      }

      .cls-3 {
        fill: #7762b3;
      }

      .cls-4 {
        fill: #ff91b9;
      }

      .cls-5 {
        fill: #f277a8;
      }

      .cls-6 {
        fill: #ffdbb3;
      }
    </style>
  </defs>
  <g id="组_3045" data-name="组 3045" transform="translate(-468.15 -1101.424)">
    <path id="路径_7316" data-name="路径 7316" class="cls-1" d="M482.349,1130.229v4.389l36.808,21.484.535,29.252,2.583,1.577.693-33.688Z"/>
    <path id="路径_7317" data-name="路径 7317" class="cls-2" d="M482.349,1130.23l52.4-28.559a7.142,7.142,0,0,1,3.6,0c1.525.554,35.074,16.359,35.074,16.359l-50.462,35.213Z"/>
    <path id="路径_7318" data-name="路径 7318" class="cls-3" d="M522.275,1186.931l.693-33.688,50.463-35.213.832,32.163Z"/>
    <path id="路径_7319" data-name="路径 7319" class="cls-4" d="M535.682,1144.371,495.6,1123.008l30.6-16.678,38.119,18.056.7,32.335L535.91,1177.3Z"/>
    <path id="路径_7320" data-name="路径 7320" class="cls-5" d="M535.682,1144.371l28.64-19.985.7,32.335L535.91,1177.3Z"/>
    <path id="路径_7321" data-name="路径 7321" class="cls-6" d="M484.29,1133.695l-11.368,5.407a12.016,12.016,0,0,0-4.714,9.15v23.29s-.97,3.466,4.991,6.516c5.684,4.021,26.34,16.359,26.34,16.359s2.773,1.941,8.18-1.248,12.893-8.456,12.893-8.456v-30.084Z"/>
  </g>
</svg>
