<svg xmlns="http://www.w3.org/2000/svg" width="1096" height="669" viewBox="0 0 1096 669">
  <defs>
    <style>
      .cls-1 {
        fill: #ffc638;
      }

      .cls-2 {
        fill: #fff;
      }

      .cls-3 {
        fill: #fef0e0;
      }

      .cls-4 {
        fill: #d49e5f;
      }

      .cls-5 {
        fill: #c79459;
      }

      .cls-6 {
        fill: #ba6f38;
      }

      .cls-7 {
        fill: #a7663f;
      }

      .cls-8 {
        fill: #ffe99c;
      }

      .cls-9 {
        fill: #eb764a;
      }

      .cls-10 {
        fill: #815050;
      }
    </style>
  </defs>
  <g id="组_12564" data-name="组 12564" transform="translate(-92 -24)">
    <g id="组_12560" data-name="组 12560">
      <g id="组_4927" data-name="组 4927" transform="translate(0 28)">
        <g id="组_4924" data-name="组 4924">
          <rect id="矩形_3659" data-name="矩形 3659" class="cls-1" width="1096" height="628" rx="46" transform="translate(92 37)"/>
          <g id="组_4921" data-name="组 4921">
            <rect id="矩形_2329" data-name="矩形 2329" class="cls-2" width="819.143" height="236.84" transform="translate(127.027 96.181)"/>
            <rect id="矩形_2330" data-name="矩形 2330" class="cls-3" width="816.038" height="184.692" transform="translate(127.027 96.181)"/>
            <path id="路径_13065" data-name="路径 13065" class="cls-4" d="M163.52,251.178v-155H127.027V280.873Z"/>
            <path id="路径_13066" data-name="路径 13066" class="cls-5" d="M163.52,251.178H912.007l34.163,29.7H127.027Z"/>
            <path id="路径_13067" data-name="路径 13067" class="cls-4" d="M912.007,251.178v-155h34.163V280.873Z"/>
          </g>
          <g id="组_4922" data-name="组 4922">
            <rect id="矩形_2331" data-name="矩形 2331" class="cls-2" width="819.143" height="236.84" transform="translate(127.027 375.392)"/>
            <rect id="矩形_2332" data-name="矩形 2332" class="cls-3" width="816.038" height="184.692" transform="translate(127.027 375.392)"/>
            <path id="路径_13068" data-name="路径 13068" class="cls-4" d="M163.52,530.388v-155H127.027V560.084Z"/>
            <path id="路径_13069" data-name="路径 13069" class="cls-5" d="M163.52,530.388H912.007l34.163,29.7H127.027Z"/>
            <path id="路径_13070" data-name="路径 13070" class="cls-4" d="M912.007,530.388v-155h34.163V560.084Z"/>
          </g>
        </g>
        <g id="组_4925" data-name="组 4925" transform="translate(0 -43)">
          <circle id="椭圆_2514" data-name="椭圆 2514" class="cls-3" cx="37.833" cy="37.833" r="37.833" transform="translate(983.315 367.846)"/>
          <rect id="矩形_2337" data-name="矩形 2337" class="cls-6" width="62.207" height="14.954" rx="6.281" transform="translate(1028.624 374.575) rotate(90)"/>
        </g>
        <g id="组_6650" data-name="组 6650" transform="translate(0 -25)">
          <g id="组_6650-2" data-name="组 6650" transform="translate(0 -20.599)">
            <rect id="矩形_3662" data-name="矩形 3662" class="cls-7" width="290" height="71" rx="10" transform="translate(477 52.599)"/>
            <rect id="矩形_3661" data-name="矩形 3661" class="cls-8" width="290" height="71" rx="10" transform="translate(477 41.599)"/>
            <rect id="矩形_3660" data-name="矩形 3660" class="cls-9" width="290" height="71" rx="10" transform="translate(477 46.599)"/>
          </g>
          <path id="路径_25622" data-name="路径 25622" class="cls-2" d="M12.129-25.034l4.834.674-1.157,2.93H26.953V3.882H22.734V2.124H7.354V3.911H3.135V-21.431h8.13Q11.836-23.511,12.129-25.034Zm10.605,7.441H7.354v2.842H22.734ZM7.354-8.247H22.734v-2.842H7.354Zm0,6.533H22.734V-4.585H7.354Zm43.154-8.5,3.12,7.383q2.007-3.633,1.963-13.3H52.617V-20h3.062l.044-4.98h3.9L59.561-20h7.676L66.9-3.442A28.479,28.479,0,0,1,66.614.732,3.218,3.218,0,0,1,65.8,2.219a3.531,3.531,0,0,1-1.611.945,27.429,27.429,0,0,1-5.244.337q-.469-2.227-1.055-4.395,1.934.117,3.208.117a2.161,2.161,0,0,0,1.3-.337,1.365,1.365,0,0,0,.535-.974q.081-.637.19-4.5t.154-9.543H59.487a89.361,89.361,0,0,1-.527,9.353,22.505,22.505,0,0,1-1.626,5.706,19.07,19.07,0,0,1-3.193,5.127A33.937,33.937,0,0,0,50.566,1.6,16.209,16.209,0,0,0,52.119-.234l-8.13.688a11.3,11.3,0,0,0-2.8.615L39.375-2.476q1.538-1.245,3.765-9.2H39.492v-3.75H53.027v3.75H47.4Q46.04-7.471,44.5-3.5q2.666-.073,4.819-.19-1.055-2.944-2.065-5.435ZM52-19.058H40.752v-3.75H52Zm53.965-5.273,1.143,3.926q-6.826,1.055-12.246,1.377v2.842h11.514v3.662A23.524,23.524,0,0,1,102.8-3.062,11.369,11.369,0,0,0,107.49-.337a43.344,43.344,0,0,0-2.432,4.453,20.6,20.6,0,0,1-4.8-4.072,25.811,25.811,0,0,1-5.127,3.984q-1-1.963-2.021-3.75a18.751,18.751,0,0,0,4.834-3.545,26.015,26.015,0,0,1-2.607-6.562l2.549-2.607H94.863v1.875q0,8.965-4.16,14.912a30.984,30.984,0,0,0-1.992-2.432l-.557.645Q86.074.073,84.7-1.567a16.126,16.126,0,0,1-4.482,5.684q-.879-2.021-1.9-3.867a13.307,13.307,0,0,0,4.043-4.863,16.8,16.8,0,0,0,.967-6.738v-7.295h2.607v7.705a45.465,45.465,0,0,1-.322,5.859q1.7,1.494,3.838,3.457A22.369,22.369,0,0,0,91.289-11V-22.778A116.349,116.349,0,0,0,105.967-24.331ZM79.336-4.585V-23.569H89.883V-4.585H87.07V-20.229H82.148V-4.585Zm20.947-1.758a19.321,19.321,0,0,0,2.2-6.094H97.91A24.33,24.33,0,0,0,100.283-6.343Zm17.578.059h9.17q-3.691-1.084-7.441-2.08l.938-2.285q4.1.879,7.969,1.963l-1.025,2.4h4.277a28.615,28.615,0,0,0,.938-7.441h4.043a43.616,43.616,0,0,1-.85,7.441h9.99v3.105H134.795q4.775,1.816,11.338,4.395L144.4,4.321q-6.152-2.578-11.719-4.863-4.219,3.4-12.773,4.746Q119.854,4,117.773.425q8.994-1.2,12.012-3.6H117.861Zm21.68-4.014q1.055-2.021,1.816-3.838h-23v-3.047h11.426v-2.227h-9.668v-3.047h9.668v-2.432h3.984v2.432h9.9v3.047h-9.9v2.227h11.807v2.842a49.988,49.988,0,0,1-2.051,4.893A36.223,36.223,0,0,0,139.541-10.3Zm-16.875-3.691q3.809.85,7.91,1.9l-1,2.461q-4.541-1.348-7.822-2.109Zm33.457,6.5a28.083,28.083,0,0,0,3.56-8.32h-3.3v-3.9h3.369v-5.244h3.838V-19.7h3.4v3.9h-3.4v2.739q1.86,1.069,4.043,2.417l-1.9,3.311-2.139-1.509V3.794h-3.838V-6.5a30.65,30.65,0,0,1-2.285,4.2Q157-4.233,156.123-7.485Zm26.309-.176q1.377.615,2.871,1.143a71.139,71.139,0,0,1-.586,7.4,2.821,2.821,0,0,1-1.033,1.831,3.547,3.547,0,0,1-2.043.52h-2.285q-2.812,0-2.812-3.516V-19.5h-4.16v8.2q0,6.46-1.04,9.36a17.349,17.349,0,0,1-3.735,5.815Q166.23,2.241,164.531.4A12.838,12.838,0,0,0,167.688-4.8a37.405,37.405,0,0,0,.74-8.987v-9.844h12.3V-1.479q0,1,.645,1a.605.605,0,0,0,.52-.227,6.432,6.432,0,0,0,.322-1.926Q182.373-4.336,182.432-7.661Z" transform="translate(529 72)"/>
        </g>
      </g>
      <g id="组_11360" data-name="组 11360">
        <g id="组_4926" data-name="组 4926" transform="translate(0 -4)">
          <rect id="矩形_2338" data-name="矩形 2338" class="cls-3" width="179.147" height="200.352" rx="20.815" transform="translate(975.343 132.335)"/>
          <path id="路径_25623" data-name="路径 25623" class="cls-10" d="M13.066-24.712h4.57V-2.534a7.894,7.894,0,0,1-.9,4.255A3.437,3.437,0,0,1,14.421,3.34a49.5,49.5,0,0,1-6.453.249A40.38,40.38,0,0,0,6.885-1.04a37.277,37.277,0,0,0,4.1.264q2.08,0,2.08-2.432ZM24.4-18.384q2.783,6.416,5.391,13.506L25.166-3.091q-2.4-7.588-4.893-13.916ZM5.01-18.354,9.4-17.3Q7.266-9.448,4.863-2.915L.527-4.556A135.611,135.611,0,0,0,5.01-18.354Zm25.811,3.4h8.8a20.022,20.022,0,0,0,1.333-2.227q-3.062.747-6.533,1.465-.85-1.846-1.494-3.047,3.794-.688,7.163-1.509L33.75-22.1l1.465-2.93q5.156,1.289,11.06,3.062A59.754,59.754,0,0,0,54.58-25.21q.908,1.465,1.875,2.9a45.035,45.035,0,0,1-4.8,2.007l5.127,1.655-1.729,3.34q-4.307-1.6-9.17-3.164-1.787.513-3.779,1.011l2.988.4q-.586,1.084-1.23,2.109H59.238v3.516H47.93V-8.8h9.316v6.826A4.736,4.736,0,0,1,56.99-.352,3.068,3.068,0,0,1,56.228.835a3.422,3.422,0,0,1-1.267.747,6.863,6.863,0,0,1-2.095.278q-1.333.015-3,0-.381-2.49-.7-3.926a19.067,19.067,0,0,0,2.637.234q1.582,0,1.582-1.67v-1.9H47.93V3.97h-4.1V-5.405H38.438V1.86H34.57V-4.687Q33.677-4,32.754-3.354q-1-1.377-2.52-3.105a33.141,33.141,0,0,0,6.475-4.98H30.82ZM39.1-8.8h4.731V-11.44H41.382Q40.3-10.063,39.1-8.8Zm21.46-13.1h5.1v-2.959h3.809V-21.9H73.1v-2.959H76.9V-21.9h3.633v-2.959h3.809V-21.9h5.068v3.223H84.346v2.959H80.537v-2.959H76.9v2.959H73.1v-2.959H69.463v2.959H65.654v-2.959h-5.1ZM61.23-8.8v-6.035H88.77V-8.8H84.844v-2.812H65.156V-8.8Zm11.689-1.9h4.16v2.139h9.346v6.416A3.629,3.629,0,0,1,85.737.139a3.5,3.5,0,0,1-1.963,1.216,23.1,23.1,0,0,1-4.849.33,26.445,26.445,0,0,0-.762-3.721,26.322,26.322,0,0,0,2.842.146q1.523,0,1.494-1.289V-5.405H77.08V4H72.92v-9.4H67.764V2.007H63.838V-8.569H72.92Zm30.469-2.783q3.545-2.432,8.174-5.859H91.523v-4.072h26.836v4.043l-10.342,7.705v9.463a5.5,5.5,0,0,1-1.428,4.153,5.953,5.953,0,0,1-4.241,1.384L97,3.354q-.41-2.168-1.055-4.482,2.8.264,4.673.264a2.7,2.7,0,0,0,2.249-.71,3.036,3.036,0,0,0,.52-1.838ZM3.164,16.782H26.836v3.984H3.164Zm22.266,17.7q2.725,1.025,4.1,1.465-.557,2.8-1.062,4.541a3.722,3.722,0,0,1-1.714,2.4,5.9,5.9,0,0,1-2.937.623H20.977q-4.658,0-4.658-4.424v-9.7h-4.2q-.425,10.532-8.6,14.59Q2.4,42.651.41,40.513A12.142,12.142,0,0,0,7.939,29.38H.762V25.337H29.238V29.38H20.566v8.232q0,2.109,1.787,2.109h.967a1.322,1.322,0,0,0,1.274-.74A19.639,19.639,0,0,0,25.43,34.478ZM41.777,22.144H35.464q-.439,1.011-.908,1.963h6.577v3.311H37.939v3.018H41.66v3.311H37.939v4.072q1.816-1,3.838-2.168a28.1,28.1,0,0,0,.674,3.6,47.893,47.893,0,0,0-6.943,4.688L33.252,41.1a4.141,4.141,0,0,0,.879-2.7V33.745H30.7V30.435h3.428V27.417H32.71q-.571.923-1.187,1.787Q31,26.8,30.381,24.517a35.637,35.637,0,0,0,3.516-9.58l3.75.938q-.425,1.523-.923,2.959h5.054Zm.293,5.918,3.94-.5q-.117-1.318-.205-2.739l-3.179.366-.586-3.574,3.589-.4-.337-6.167h3.955q.059,2.637.205,5.742l3.984-.439q-1.8-1.9-3.34-3.311L52.266,15q1.729,1.348,3.926,3.428l-2.021,1.86,3.838-.425.381,3.516-8.73,1.011.22,2.7,8.569-1.1.41,3.516L50.332,30.61a33.779,33.779,0,0,0,.791,3.662,39.893,39.893,0,0,0,3.926-4.16l3.076,2.2a52.646,52.646,0,0,1-5.449,5.684q1.157,1.758,2.139,1.758a.722.722,0,0,0,.725-.476q.2-.476.945-4.065,1.582.82,3.164,1.582-.967,4.526-1.868,5.823a2.986,2.986,0,0,1-2.615,1.3,6.486,6.486,0,0,1-5.713-3.428,48.082,48.082,0,0,1-6.8,3.721,36.538,36.538,0,0,0-2.285-3.34,38.853,38.853,0,0,0,7.427-3.94,37.035,37.035,0,0,1-1.348-5.8l-3.794.483ZM77.227,36.1l-2.373,7.939H71.4L73.081,36.1Zm24.932-21.079,3.809,1q-.732,2.065-1.6,3.984h6.021q-1.172-1.479-2.666-3.164l2.93-2.08q1.934,1.963,3.6,3.955L112.4,20h6.577v3.164H113v3.164h5.742v3.018H113v3.164h5.742v3.018H113v3.223h6.3V41.86h-15.41V43.97H99.9v-16.1q-.806,1.113-1.67,2.183-.967-2.256-1.875-3.926A30.882,30.882,0,0,0,102.158,15.024Zm1.729,11.309h5.127V23.169h-5.127Zm0,6.182h5.127V29.351h-5.127Zm0,6.24h5.127V35.532h-5.127ZM93.428,16.46q2.2,2.813,4.541,6.152l-3.486,2.373q-2.021-3.281-4.307-6.416Zm.908,11.953Q96.3,29.5,98.145,30.347l-4.277,12.51a33.007,33.007,0,0,0-3.662-2.344Q92.227,35.474,94.336,28.413ZM146.572,17.28V20.3a25.058,25.058,0,0,1-6.533,4.644,55.392,55.392,0,0,0,9.521,1.128q-1.025,2.08-1.7,3.75a50.453,50.453,0,0,1-12.891-2.71,69.836,69.836,0,0,1-10.825,2.8h22.1V43.882h-4.043V42.739H127.793v1.143H123.75V29.98q-.894.161-1.816.308-.674-1.611-1.523-3.486a85.22,85.22,0,0,0,9.99-1.89,18.41,18.41,0,0,1-3.442-2.725,30.656,30.656,0,0,1-3.853,2.769,33.541,33.541,0,0,0-2.549-2.578,30.085,30.085,0,0,0,8.35-7.441l4.189.469q-.688.967-1.406,1.875Zm-11.543,6.152a22.144,22.144,0,0,0,5.742-3.105H129.917A17.279,17.279,0,0,0,135.029,23.433Zm7.178,9.434h-5.3v2.109h5.3Zm-14.414,2.109h5.3V32.866h-5.3Zm9.111,4.8h5.3V37.671h-5.3Zm-9.111,0h5.3V37.671h-5.3ZM.82,71.694H8.379q-2.9-1.816-6.357-3.721L4.16,64.722q3.867,2.051,7.266,4.043l-1.816,2.93h5.332a38.911,38.911,0,0,0,.938-10.869h4.014a51.078,51.078,0,0,1-.85,10.869H29.209v3.75H17.871q5.654,2.314,11.66,5.186l-1.9,3.545q-5.684-2.9-11.982-5.625Q11.982,82.124,3.574,84.2q-1.23-2.227-2.4-4.072,9.17-1.406,11.777-4.687H.82Zm21.5-6.152q.967-2.666,1.9-5.361H8.408q2.842,1.348,5.947,3.047l-2.139,3.428q-3.486-2.2-6.826-3.867l1.67-2.607H1.875V56.548H28.389v3.281Q27.129,63.7,26.1,66.685A27.559,27.559,0,0,0,22.324,65.542Zm55.8,9.053Zm2.021-17.7h26.895v3.984H96.621a33.946,33.946,0,0,1-2.3,4.717h1.406v3.428l2.93-2.754q3.955,3.516,9.551,8.672l-3.428,3.369a106.745,106.745,0,0,0-9.053-9.17V84H91.3V69.966a44.618,44.618,0,0,1-9.4,8.613q-.937-1.348-2.988-3.867,9.287-6.05,12.773-13.828H80.142Zm30.146-.7h26.426V78.638a5.568,5.568,0,0,1-1.135,3.816,4.1,4.1,0,0,1-3.135,1.3q-2,.037-4.841.037-.439-2.344-.908-4.072a32.634,32.634,0,0,0,3.354.19,7.535,7.535,0,0,0,1.655-.125,1.33,1.33,0,0,0,.784-.564,2.043,2.043,0,0,0,.3-1.172V59.858H114.214V83.735h-3.926Zm21.064,9.375h-15.7v-3.34h15.7Zm-14.707,2.285h13.594V78.11h-9.785v1.875h-3.809Zm9.785,6.973V71.138h-5.977v3.691ZM5.859,95.142l4.365.674L8.906,99.8h4.98v5.713A53.952,53.952,0,0,0,18.4,95.083l4.043,1.055q-.645,1.948-1.377,3.809h7.559l-.337,16.86a14.25,14.25,0,0,1-.454,3.816,4.036,4.036,0,0,1-1.187,1.78,4.608,4.608,0,0,1-2.249.938,47.988,47.988,0,0,1-6.292.249,25.546,25.546,0,0,0-1.113-4.424q2.168.176,4.614.176a4.075,4.075,0,0,0,1.216-.161,2.026,2.026,0,0,0,.842-.491,1.7,1.7,0,0,0,.447-.74,29.11,29.11,0,0,0,.19-3.6l.132-5.991q.059-2.8.059-4.541h-5.1q-.967,2.051-2.051,3.984a23.329,23.329,0,0,0-3.457-1.8v17.446H9.814v-2.109H5.654v2.285H1.582V99.8H4.673Q5.522,96.929,5.859,95.142Zm3.955,8.5H5.654v5.01h4.16ZM5.654,117.5h4.16v-5.01H5.654Zm12.832-10.166a74.791,74.791,0,0,1,4.541,6.123l-3.691,2.461a64.453,64.453,0,0,0-4.248-6.24Zm24.17-10.781H57.48v3.867H42.656ZM31.23,120.542l-.82-3.926q1.8-.337,3.428-.688v-6.753H31.23v-3.486h2.607v-5.537h-2.9V96.606h9.668v3.545H37.646v5.537H40.4v3.486H37.646v5.889q1.743-.425,3.223-.85a34.754,34.754,0,0,0-.029,3.75Q36.445,119.048,31.23,120.542Zm9.961-15.791H58.945v3.867H54.229v9.551q0,1.348.967,1.348a.869.869,0,0,0,.8-.469,22.192,22.192,0,0,0,.491-4.8q1.963.762,3.047,1.055-.513,5.83-1.553,6.9a3.385,3.385,0,0,1-2.52,1.069h-1.6q-3.442,0-3.442-3.779V108.618H47.856q.22,11.294-6.987,15.469a23.209,23.209,0,0,0-2.754-3.34q6.167-3.354,6.021-12.129H41.191Zm19.336,9.375H63.6V96.05H86.484v18.076H89.5v3.428H79.556q3.838,1.011,9.185,2.783l-1.816,3.545q-4.658-1.729-9.99-3.457l1.567-2.871H71.074l1.7,2.842-9.434,3.662q-.908-1.611-2.139-3.633,4.219-1.245,8.481-2.871H60.527ZM82.412,99.478H67.676v1.729H82.412Zm-14.736,6.035H82.412v-1.729H67.676Zm0,4.307H82.412v-1.729H67.676Zm0,4.307H82.412V112.4H67.676ZM99.7,119.678a3.941,3.941,0,0,1-1.223,2.974,3.891,3.891,0,0,1-2.761,1.172,4.189,4.189,0,0,1-4.189-4.146,3.874,3.874,0,0,1,1.216-2.893,4.021,4.021,0,0,1,2.9-1.179,3.978,3.978,0,0,1,2.842,1.165A3.861,3.861,0,0,1,99.7,119.678Zm-4.043,1.436a1.351,1.351,0,0,0,.981-.4,1.424,1.424,0,0,0-.029-2.029,1.517,1.517,0,0,0-1.025-.381,1.248,1.248,0,0,0-.981.432,1.509,1.509,0,0,0-.381,1.033,1.365,1.365,0,0,0,1.436,1.348Z" transform="translate(993 181)"/>
          <path id="路径_25648" data-name="路径 25648" class="cls-10" d="M11.588-12.717a12.513,12.513,0,0,1,3.3,3.246A6.455,6.455,0,0,1,15.8-6.026a6.019,6.019,0,0,1-2.05,4.607A7.913,7.913,0,0,1,8.185.465,7.453,7.453,0,0,1,3.021-1.179,5.2,5.2,0,0,1,1.2-5.2,5.032,5.032,0,0,1,2.25-8.367a9.256,9.256,0,0,1,3.511-2.49,13.816,13.816,0,0,1-3.428-3.337,5.854,5.854,0,0,1-.755-3,5.205,5.205,0,0,1,1.917-3.976,7.588,7.588,0,0,1,5.254-1.718A7.293,7.293,0,0,1,13.7-21.375a4.684,4.684,0,0,1,1.735,3.644,4.49,4.49,0,0,1-.938,2.814A8.186,8.186,0,0,1,11.588-12.717Zm-1.262-.847a5.83,5.83,0,0,0,.913-1.859,8.075,8.075,0,0,0,.3-2.258,5.13,5.13,0,0,0-.93-3.3,2.321,2.321,0,0,0-1.926-.88,2.537,2.537,0,0,0-1.893.805,2.762,2.762,0,0,0-.78,2,4.542,4.542,0,0,0,.872,2.515A12.243,12.243,0,0,0,10.326-13.563Zm-3.32,3.5a3.608,3.608,0,0,0-.73.847,6.645,6.645,0,0,0-.6,1.693A9.974,9.974,0,0,0,5.412-5.2a7.448,7.448,0,0,0,.4,2.615A2.942,2.942,0,0,0,6.948-1.062,2.818,2.818,0,0,0,8.467-.6a2.685,2.685,0,0,0,2.042-.888,3.421,3.421,0,0,0,.83-2.432Q11.339-7.139,7.006-10.061Z" transform="translate(1115 183)"/>
        </g>
        <path id="路径_25647" data-name="路径 25647" class="cls-10" d="M22.705,3.911h-3.75V-5.7H16.377v1.875h-3.6V-7.544L10.518-5.317,8.35-7.793v11.7H4.688V-5.728A34.549,34.549,0,0,1,1.758-.6Q1.26-2.534.41-5.288A24.646,24.646,0,0,0,4.6-12.7H.674v-3.779H4.688v-3.3l-3.311.337A34.736,34.736,0,0,0,.7-22.925q4.951-.469,10.371-1.23l.879,3.428q-1.553.249-3.6.527v3.721h3.516V-12.7H8.35v2.637l.938-.967q2.036,1.816,3.486,3.311V-19.175h6.182v-5.684h3.75v5.684h6.182V-3.823h-3.6V-5.7H22.705Zm2.578-19.482H22.705V-9.3h2.578ZM16.377-9.3h2.578v-6.27H16.377Z" transform="translate(1041 257)"/>
      </g>
    </g>
    <path id="路径_25649" data-name="路径 25649" class="cls-10" d="M14.078,0H.83V-.365q6.093-7.255,7.4-9.762a10.579,10.579,0,0,0,1.3-4.9,4.076,4.076,0,0,0-1.079-2.9,3.476,3.476,0,0,0-2.64-1.154,4.362,4.362,0,0,0-3.968,2.557l-.614-.216a9.2,9.2,0,0,1,2.723-4.715,6.38,6.38,0,0,1,4.217-1.527,6.237,6.237,0,0,1,3.121.8A5.771,5.771,0,0,1,13.5-20a5.257,5.257,0,0,1,.8,2.6,9.383,9.383,0,0,1-1.229,4.482Q11.389-9.845,5.744-4.35h4.864A11.108,11.108,0,0,0,12.941-4.5a1.934,1.934,0,0,0,.888-.506,6.554,6.554,0,0,0,.913-1.5h.6Z" transform="translate(1024 258)"/>
  </g>
</svg>
