<svg xmlns="http://www.w3.org/2000/svg" width="157.227" height="124.495" viewBox="0 0 157.227 124.495">
  <defs>
    <style>
      .cls-1 {
        fill: #f45137;
      }

      .cls-2 {
        fill: #6f6c72;
      }

      .cls-3 {
        fill: #414055;
      }

      .cls-4 {
        fill: #58d0e7;
      }

      .cls-5 {
        fill: #c53f38;
      }

      .cls-6 {
        fill: #f67e3a;
      }

      .cls-7 {
        fill: #96a0e1;
      }

      .cls-8 {
        fill: #a4a1a5;
      }

      .cls-9 {
        fill: #ff8623;
      }
    </style>
  </defs>
  <g id="组_3110" data-name="组 3110" transform="translate(-385.008 -1069.696)">
    <path id="路径_7607" data-name="路径 7607" class="cls-1" d="M388.745,1133.748H525.033s13.124,1.01,16.153,12.115c1.009,11.1,1.009,25.238,1.009,25.238s1.01,4.038-7.067,5.048H393.965s-7.41,1.353-8.441-4.253c.515-6.315.322-34.282.322-34.282S385.395,1133.3,388.745,1133.748Z"/>
    <circle id="椭圆_1104" data-name="椭圆 1104" class="cls-2" cx="18.043" cy="18.043" r="18.043" transform="translate(479.475 1158.106)"/>
    <circle id="椭圆_1105" data-name="椭圆 1105" class="cls-3" cx="7.217" cy="7.217" r="7.217" transform="translate(490.301 1168.932)"/>
    <circle id="椭圆_1106" data-name="椭圆 1106" class="cls-2" cx="18.043" cy="18.043" r="18.043" transform="translate(403.555 1158.106)"/>
    <circle id="椭圆_1107" data-name="椭圆 1107" class="cls-3" cx="7.217" cy="7.217" r="7.217" transform="translate(414.381 1168.932)"/>
    <path id="路径_7608" data-name="路径 7608" class="cls-4" d="M387.117,1134.012s-.434-.608,2.488-4.3,22.424-25.26,22.424-25.26,2.578-2.921,9.623-3.952h59.541a22.792,22.792,0,0,1,8.42,7.475c3.179,4.983,14.263,25.742,14.263,25.742Z"/>
    <rect id="矩形_850" data-name="矩形 850" class="cls-5" width="15.981" height="4.382" rx="1.97" transform="translate(459.714 1141.395)"/>
    <path id="矩形_851" data-name="矩形 851" class="cls-6" d="M5.95,0H14.79a1.19,1.19,0,0,1,1.19,1.19V13.231a0,0,0,0,1,0,0H5.95A5.95,5.95,0,0,1,0,7.282V5.95A5.95,5.95,0,0,1,5.95,0Z" transform="translate(525.699 1147.151)"/>
    <path id="路径_7609" data-name="路径 7609" class="cls-7" d="M405.172,1112.06l.456,21.952-19.075.479s-.7-.663,5.827-8.049S405.172,1112.06,405.172,1112.06Z"/>
    <rect id="矩形_852" data-name="矩形 852" class="cls-7" width="10.568" height="33.341" transform="translate(444.678 1100.498)"/>
    <path id="路径_7610" data-name="路径 7610" class="cls-4" d="M455.246,1100.5v33.341h48.63l-14.263-25.866a21.892,21.892,0,0,0-8.42-7.475Z"/>
    <path id="路径_7611" data-name="路径 7611" class="cls-8" d="M403.787,1113.61a58.32,58.32,0,0,0-11.175-31.284c-1.031-1.869-.065-3.608,1.74-2.771s12.936,14.014,13.556,29.464C408.206,1112.06,403.787,1113.61,403.787,1113.61Z"/>
    <circle id="椭圆_1108" data-name="椭圆 1108" class="cls-9" cx="6.573" cy="6.573" r="6.573" transform="translate(385.008 1069.696)"/>
  </g>
</svg>
