<svg xmlns="http://www.w3.org/2000/svg" width="58.688" height="142.926" viewBox="0 0 58.688 142.926">
  <defs>
    <style>
      .cls-1 {
        fill: #e4f2f2;
        stroke-linejoin: round;
      }

      .cls-2 {
        fill: #d92f36;
      }

      .cls-3 {
        fill: #a73a2f;
      }

      .cls-4 {
        fill: #bfbbb2;
      }

      .cls-5 {
        fill: #722521;
      }

      .cls-6 {
        fill: #e5e5e5;
      }

      .cls-7 {
        fill: #299169;
      }

      .cls-8 {
        fill: #e9fbff;
      }

      .cls-9 {
        fill: #63aaba;
      }

      .cls-10 {
        fill: #64af89;
      }

      .cls-11, .cls-13 {
        fill: #fff;
      }

      .cls-12, .cls-13 {
        stroke: none;
      }
    </style>
  </defs>
  <g id="组_3156" data-name="组 3156" transform="translate(-481.526 -1250.943)">
    <g id="路径_7990" data-name="路径 7990" class="cls-1">
      <path class="cls-12" d="M 511.1255187988281 1391.369140625 C 511.1250305175781 1391.369140625 511.125 1391.369140625 511.12451171875 1391.369140625 C 505.4418334960938 1391.369140625 499.5823974609375 1390.874145507813 495.0485229492188 1390.011108398438 C 492.6101684570313 1389.546875 490.6012268066406 1388.989013671875 489.0774841308594 1388.35302734375 C 486.9165649414063 1387.451049804688 485.6225891113281 1386.330688476563 485.1216125488281 1384.927856445313 C 484.7609558105469 1383.917602539063 483.6635131835938 1380.843872070313 484.1397399902344 1346.358154296875 C 484.392333984375 1328.065795898438 484.9830932617188 1309.887939453125 485.3763732910156 1304.38671875 C 485.7325134277344 1299.399047851563 488.6131591796875 1292.324340820313 493.9383544921875 1283.359252929688 C 496.0221557617188 1279.85107421875 498.0424194335938 1276.80322265625 499.3703002929688 1274.864135742188 C 499.4335632324219 1274.771728515625 500.4387512207031 1273.304931640625 501.2632751464844 1272.169677734375 C 500.5695495605469 1272.031127929688 499.5489196777344 1271.706909179688 499.0189514160156 1270.647094726563 C 498.4330139160156 1269.475219726563 498.16015625 1267.635009765625 498.9456787109375 1266.364135742188 C 499.0888366699219 1266.132446289063 499.2608337402344 1265.927368164063 499.455322265625 1265.752319335938 C 498.9248352050781 1265.20361328125 498.7033996582031 1264.503540039063 498.5039978027344 1263.489379882813 C 498.3698120117188 1262.807006835938 498.2545471191406 1261.986450195313 498.1793823242188 1261.178955078125 C 497.9559020996094 1258.777221679688 498.0992126464844 1256.938842773438 498.6053771972656 1255.714599609375 C 499.1932983398438 1254.292358398438 500.3749694824219 1253.443359375 501.7662963867188 1253.443359375 C 501.8359680175781 1253.443359375 501.9064025878906 1253.445556640625 501.9767150878906 1253.450073242188 L 525.5482788085938 1254.2353515625 L 526.5348510742188 1254.268310546875 L 527.2327880859375 1254.96630859375 C 527.5894165039063 1255.322875976563 528.7529907226563 1256.617919921875 528.7529907226563 1258.308959960938 C 528.7529907226563 1258.38671875 528.74853515625 1260.236328125 528.36279296875 1262.228759765625 C 527.9568481445313 1264.3251953125 527.2669677734375 1265.812255859375 526.26904296875 1266.72802734375 L 526.3224487304688 1266.834716796875 C 527.041259765625 1268.270385742188 527.1719360351563 1269.563598632813 526.7108154296875 1270.67822265625 C 526.3186645507813 1271.6259765625 525.5282592773438 1272.339477539063 524.4851684570313 1272.6875 C 524.3995361328125 1272.716064453125 524.3108520507813 1272.741943359375 524.2099609375 1272.765258789063 C 524.5243530273438 1273.345703125 525.0089721679688 1274.2978515625 525.8214721679688 1275.932373046875 C 526.9683837890625 1278.239868164063 528.3788452148438 1281.146484375 529.6912231445313 1283.906982421875 C 531.8064575195313 1288.3564453125 535.5291137695313 1296.3427734375 536.6946411132813 1299.838256835938 C 536.9207763671875 1300.516723632813 537.5211181640625 1302.318115234375 537.6775512695313 1314.843627929688 C 537.767333984375 1322.029663085938 537.6906127929688 1331.367431640625 537.4616088867188 1341.136840820313 C 537.2317504882813 1350.940551757813 536.8656005859375 1360.434692382813 536.4306030273438 1367.870483398438 C 536.1964111328125 1371.87451171875 535.9456176757813 1375.236083984375 535.685302734375 1377.862060546875 C 535.3912963867188 1380.827270507813 535.0879516601563 1382.830322265625 534.7578125 1383.985717773438 C 534.2999877929688 1385.588256835938 533.1134643554688 1386.943115234375 531.2313232421875 1388.012817382813 C 529.8223876953125 1388.813598632813 527.9638671875 1389.483642578125 525.7074584960938 1390.004516601563 C 520.8212890625 1391.13232421875 515.0808715820313 1391.369140625 511.1255187988281 1391.369140625 Z"/>
      <path class="cls-13" d="M 501.7662963867188 1255.943359375 C 499.7088623046875 1255.943359375 500.8659057617188 1263.62890625 501.2550048828125 1264.016967773438 C 501.3340454101563 1264.097045898438 502.2410278320313 1264.224975585938 503.6409912109375 1264.371948242188 L 503.6170043945313 1264.369995117188 C 503.614501953125 1264.369750976563 503.6119384765625 1264.36962890625 503.6094970703125 1264.36962890625 C 503.2279663085938 1264.36962890625 503.6170043945313 1267.56005859375 503.6170043945313 1267.56005859375 C 503.6170043945313 1267.6259765625 504.1220092773438 1267.691040039063 504.9530029296875 1267.753051757813 C 502.7429809570313 1267.64501953125 501.2550048828125 1267.56005859375 501.2550048828125 1267.56005859375 C 500.8610229492188 1267.56005859375 500.8610229492188 1268.740966796875 501.2550048828125 1269.529052734375 C 501.4219970703125 1269.863037109375 505.2869873046875 1270.1259765625 509.7650146484375 1270.287963867188 C 506.614990234375 1270.234008789063 504.0570068359375 1270.14404296875 503.93798828125 1269.97705078125 C 503.93798828125 1269.97705078125 504.4039916992188 1272.284057617188 504.010009765625 1272.677978515625 C 503.6170043945313 1273.072021484375 488.6570434570313 1293.54296875 487.8699951171875 1304.56494140625 C 487.0819702148438 1315.588012695313 485.5079956054688 1378.574951171875 487.4760131835938 1384.087036132813 C 488.501708984375 1386.959228515625 500.007568359375 1388.869140625 511.12451171875 1388.869140625 C 521.3379516601563 1388.869140625 531.2230224609375 1387.257446289063 532.35400390625 1383.298950195313 C 534.7160034179688 1375.031982421875 536.291015625 1306.534057617188 534.322998046875 1300.629028320313 C 532.35400390625 1294.723999023438 522.1190185546875 1273.859008789063 521.7249755859375 1273.464965820313 C 521.3319702148438 1273.072021484375 521.7249755859375 1270.625 521.9219970703125 1270.469970703125 C 521.9340209960938 1270.461059570313 521.8779907226563 1270.453002929688 521.7730102539063 1270.446044921875 C 522.8070068359375 1270.421997070313 523.5050048828125 1270.379028320313 523.6939697265625 1270.316040039063 C 524.875 1269.921997070313 524.4810180664063 1268.740966796875 524.0869750976563 1267.953979492188 C 523.595458984375 1268.15087890625 521.9249267578125 1268.224609375 519.6957397460938 1268.224609375 C 517.04541015625 1268.224609375 513.60498046875 1268.120483398438 510.4140014648438 1267.994995117188 C 512.975830078125 1268.06982421875 515.7952880859375 1268.116943359375 517.9782104492188 1268.116943359375 C 520.1734619140625 1268.116943359375 521.7249755859375 1268.0693359375 521.7249755859375 1267.953979492188 C 521.7249755859375 1267.587036132813 522.7490234375 1265.515014648438 522.4190063476563 1265.39404296875 C 523.2369995117188 1265.364013671875 523.8270263671875 1265.302001953125 524.0869750976563 1265.197998046875 C 526.0560302734375 1264.411010742188 526.2529907226563 1259.095947265625 526.2529907226563 1258.308959960938 C 526.2529907226563 1257.52197265625 525.4650268554688 1256.734008789063 525.4650268554688 1256.734008789063 L 501.8450317382813 1255.947021484375 C 501.818359375 1255.944580078125 501.7919921875 1255.943359375 501.7662963867188 1255.943359375 M 522.3404541015625 1265.396728515625 C 522.3383178710938 1265.396728515625 522.3362426757813 1265.396606445313 522.3340454101563 1265.396606445313 C 522.3313598632813 1265.396606445313 522.3284912109375 1265.396850585938 522.3250122070313 1265.39794921875 C 522.2801513671875 1265.413330078125 522.1298217773438 1265.420532226563 521.8930053710938 1265.420532226563 C 521.7601318359375 1265.420532226563 521.6000366210938 1265.418334960938 521.416015625 1265.413940429688 C 521.7520141601563 1265.411987304688 522.0609741210938 1265.406005859375 522.3469848632813 1265.39599609375 C 522.3446044921875 1265.396606445313 522.342529296875 1265.396728515625 522.3404541015625 1265.396728515625 M 501.7662963867188 1250.943359375 C 501.8742065429688 1250.943359375 501.9829711914063 1250.946411132813 502.091552734375 1250.952514648438 L 525.6315307617188 1251.73681640625 C 526.8992919921875 1251.779052734375 528.1036376953125 1252.301513671875 529.0006103515625 1253.198486328125 C 529.6778564453125 1253.875732421875 531.2529907226563 1255.7294921875 531.2529907226563 1258.308959960938 C 531.2529907226563 1259.105346679688 531.1611938476563 1260.92724609375 530.8171997070313 1262.703857421875 C 530.5657348632813 1264.002807617188 530.2237548828125 1265.096435546875 529.771728515625 1266.047119140625 C 529.5762939453125 1266.458251953125 529.3651123046875 1266.828979492188 529.1436767578125 1267.162963867188 C 529.7392578125 1269.100341796875 529.43798828125 1270.625732421875 529.0208740234375 1271.633911132813 C 528.6806640625 1272.456298828125 528.1729736328125 1273.173583984375 527.529296875 1273.757080078125 C 527.69580078125 1274.088500976563 527.87353515625 1274.444213867188 528.0601806640625 1274.819702148438 C 529.2132568359375 1277.139526367188 530.6307373046875 1280.060546875 531.9490966796875 1282.833618164063 C 534.562744140625 1288.33154296875 537.919189453125 1295.607299804688 539.0662841796875 1299.04736328125 C 539.361328125 1299.932861328125 539.6654663085938 1301.296752929688 539.89208984375 1305.25146484375 C 540.0328369140625 1307.706420898438 540.1287841796875 1310.923095703125 540.1773681640625 1314.812377929688 C 540.2674560546875 1322.027465820313 540.1905517578125 1331.397094726563 539.9608764648438 1341.195434570313 C 539.7303466796875 1351.02734375 539.3629760742188 1360.552612304688 538.9263916015625 1368.016479492188 C 538.2353515625 1379.828002929688 537.5882568359375 1383.179321289063 537.16162109375 1384.672485351563 C 536.517578125 1386.926635742188 534.9379272460938 1388.78173828125 532.466552734375 1390.186279296875 C 530.82421875 1391.11962890625 528.7972412109375 1391.85693359375 526.269775390625 1392.4404296875 C 521.1536865234375 1393.621337890625 515.2098388671875 1393.869140625 511.1245422363281 1393.869140625 C 505.2920532226563 1393.869140625 499.26220703125 1393.358032226563 494.5810546875 1392.467041015625 C 491.97314453125 1391.970581054688 489.7974853515625 1391.362670898438 488.114501953125 1390.66015625 C 487.0054931640625 1390.197265625 486.092529296875 1389.690673828125 485.3234252929688 1389.111694335938 C 484.0870361328125 1388.180908203125 483.22705078125 1387.05615234375 482.7672729492188 1385.7685546875 C 482.3009643554688 1384.462524414063 481.78759765625 1382.134643554688 481.5972290039063 1370.9716796875 C 481.4896240234375 1364.663330078125 481.50439453125 1356.14013671875 481.6399536132813 1346.323608398438 C 481.8931274414063 1327.988159179688 482.4869384765625 1309.744262695313 482.8826904296875 1304.208374023438 C 483.1062622070313 1301.077514648438 484.154541015625 1297.40625 486.0872802734375 1292.985229492188 C 487.52001953125 1289.7080078125 489.4383544921875 1286.039794921875 491.7889404296875 1282.08251953125 C 493.90673828125 1278.51708984375 495.9589233398438 1275.421020507813 497.3075561523438 1273.451538085938 C 497.4183959960938 1273.289672851563 497.5259399414063 1273.13330078125 497.6299438476563 1272.982666015625 C 497.313720703125 1272.64794921875 497.0237426757813 1272.246826171875 496.7828979492188 1271.765258789063 C 496.007568359375 1270.214233398438 495.5234985351563 1267.7626953125 496.5009155273438 1265.642456054688 C 496.2838134765625 1265.074462890625 496.1558227539063 1264.5048828125 496.0509643554688 1263.9716796875 C 495.9010009765625 1263.209106445313 495.7728881835938 1262.299560546875 495.690185546875 1261.410522460938 C 495.2960815429688 1257.175659179688 496.0479125976563 1255.357055664063 496.2950439453125 1254.759399414063 C 497.2681274414063 1252.405639648438 499.3646240234375 1250.943359375 501.7662963867188 1250.943359375 Z"/>
    </g>
    <path id="路径_7991" data-name="路径 7991" class="cls-2" d="M501.845,1255.947l23.62.787a2.751,2.751,0,0,1,.788,1.575c0,.787-.2,6.1-2.166,6.889s-22.439-.787-22.832-1.181S499.68,1255.75,501.845,1255.947Z"/>
    <path id="路径_7992" data-name="路径 7992" class="cls-3" d="M503.617,1267.56s-.394-3.232,0-3.19,18.127,1.228,18.708,1.028-.6,2.162-.6,2.556S503.617,1267.954,503.617,1267.56Z"/>
    <path id="路径_7993" data-name="路径 7993" class="cls-4" d="M487.87,1307.321a108.024,108.024,0,0,0,47.124.131c.116,6.168.51,57.739-1.459,64.825-2.755,2.362-42.516,5.117-46.846-2.362C486.689,1358.892,486.3,1310.47,487.87,1307.321Z"/>
    <path id="路径_7994" data-name="路径 7994" class="cls-5" d="M501.255,1267.56s20.864,1.181,22.832.394c.394.787.788,1.968-.393,2.362s-22.046,0-22.439-.787S500.861,1267.56,501.255,1267.56Z"/>
    <path id="路径_7995" data-name="路径 7995" class="cls-6" d="M503.938,1269.977s.466,2.307.072,2.7-15.353,20.865-16.14,31.887-2.362,74.01-.394,79.522,42.516,7.479,44.878-.788,3.937-76.765,1.969-82.67-12.2-26.77-12.6-27.164,0-2.84.2-2.994S504.259,1270.425,503.938,1269.977Z"/>
    <path id="路径_7996" data-name="路径 7996" class="cls-7" d="M487.7,1307.452a130.755,130.755,0,0,0,47.211.066c.08,9.169-1.284,64.938-1.284,64.938s-36.924,6.225-47.05-2.686C486.689,1360.466,487.279,1312.636,487.7,1307.452Z"/>
    <path id="路径_7997" data-name="路径 7997" class="cls-8" d="M487.245,1312.139s23.658,8.755,47.768,0c.1,4.63-.457,28.146-.457,28.146l-47.67.3Z"/>
    <path id="路径_7998" data-name="路径 7998" class="cls-2" d="M486.85,1334.524s5.744,6.653,27.789,3.11,19.857.5,19.857.5-.158,18.7-.756,30.158c-4.535,2.012-26.383,5.3-47.149-.672C486.689,1361.254,486.492,1339.011,486.85,1334.524Z"/>
    <path id="路径_7999" data-name="路径 7999" class="cls-9" d="M494.168,1331.335s-3.149,0-.787-3.149,3.937-4.331,4.331-3.543,0,2.362,1.181.393,1.968-4.33,3.149-3.543,3.543,2.756,3.543,3.15-.787.787-1.181,1.181-3.937,5.511-4.724,5.905S494.168,1331.335,494.168,1331.335Z"/>
    <path id="路径_8000" data-name="路径 8000" class="cls-9" d="M517.4,1327.005s-1.181-.788.787-1.969,2.756-3.543,4.331-1.574,1.574,2.755,1.574,2.755-.393.788.788.394,2.755-1.181,3.149,0,1.968,4.33,1.181,4.724-7.873,1.968-9.448,0A15.907,15.907,0,0,1,517.4,1327.005Z"/>
    <path id="路径_8001" data-name="路径 8001" class="cls-10" d="M502.042,1331.335s-1.575.394,0,.787,16.534.788,16.534.394.394-.787,0-1.181-5.118-9.842-5.511-10.236a3.112,3.112,0,0,0-4.331.394C507.16,1323.462,502.436,1331.335,502.042,1331.335Z"/>
    <path id="路径_8002" data-name="路径 8002" class="cls-11" d="M493.578,1344.917s9.842,4.33,31.1,0v3.543s-25.589,3.543-31.1-.788Z"/>
    <path id="路径_8003" data-name="路径 8003" class="cls-11" d="M493.644,1352.456l11.791.671-.105,1.835s-9.731-.029-11.767-1.079Z"/>
    <path id="路径_8004" data-name="路径 8004" class="cls-11" d="M513.586,1353.373l11.754-1.157.18,1.829s-9.619,1.474-11.794.751Z"/>
    <path id="路径_8005" data-name="路径 8005" class="cls-11" d="M494.174,1358.744s10.427,1.132,30.129-.664l.04,1.838s-21.317,1.533-30.138.255Z"/>
  </g>
</svg>
