<svg xmlns="http://www.w3.org/2000/svg" width="82.343" height="38.039" viewBox="0 0 82.343 38.039">
  <defs>
    <style>
      .cls-1 {
        fill: #02acc4;
      }

      .cls-2 {
        fill: #1dd2ed;
      }

      .cls-3 {
        fill: #fff;
      }
    </style>
  </defs>
  <g id="组_4938" data-name="组 4938" transform="translate(-549.229 -568.452)">
    <rect id="矩形_2359" data-name="矩形 2359" class="cls-1" width="82.343" height="34.544" rx="12.59" transform="translate(549.229 571.947)"/>
    <rect id="矩形_2360" data-name="矩形 2360" class="cls-2" width="82.343" height="34.544" rx="12.59" transform="translate(549.229 568.452)"/>
    <ellipse id="椭圆_2523" data-name="椭圆 2523" class="cls-3" cx="3.34" cy="2.446" rx="3.34" ry="2.446" transform="matrix(0.908, -0.418, 0.418, 0.908, 553.884, 575.086)"/>
    <path id="路径_26414" data-name="路径 26414" class="cls-3" d="M3.907.3,7.879-11.742H4.854a6,6,0,0,0-2.669.463,2.435,2.435,0,0,0-1.033,1.216H.743L1.8-14.595h8.7L5.6.3Zm14.95-17.361H36.25v2.928H18.857Zm16.36,13q2,.753,3.014,1.076Q37.821-.926,37.45.355a2.735,2.735,0,0,1-1.259,1.76,4.333,4.333,0,0,1-2.158.457H31.945q-3.423,0-3.423-3.25V-7.8H25.433q-.312,7.739-6.318,10.72Q18.3,1.948,16.833.377A8.921,8.921,0,0,0,22.365-7.8H17.092v-2.971H38.015V-7.8H31.643v6.049q0,1.55,1.313,1.55h.71A.971.971,0,0,0,34.6-.748,14.43,14.43,0,0,0,35.216-4.058Z" transform="translate(571.137 593.84)"/>
  </g>
</svg>
