<svg xmlns="http://www.w3.org/2000/svg" width="120.61" height="139.939" viewBox="0 0 120.61 139.939">
  <defs>
    <style>
      .cls-1, .cls-9 {
        fill: #fff;
      }

      .cls-1 {
        stroke-linejoin: round;
      }

      .cls-2 {
        fill: #4c2c25;
        stroke-miterlimit: 10;
      }

      .cls-3 {
        fill: #b2b2b2;
      }

      .cls-4 {
        fill: #f55040;
      }

      .cls-5 {
        fill: #ec5449;
      }

      .cls-6 {
        fill: #c1eff0;
      }

      .cls-7 {
        fill: #524d47;
      }

      .cls-8, .cls-9 {
        stroke: none;
      }
    </style>
  </defs>
  <g id="组_3043" data-name="组 3043" transform="translate(-230.07 -1269.96)">
    <g id="组_3042" data-name="组 3042">
      <g id="路径_7299" data-name="路径 7299" class="cls-1">
        <path class="cls-8" d="M 349.6033630371094 1409.747802734375 L 344.52978515625 1407.118774414063 L 320.6807861328125 1394.7607421875 L 319.4581909179688 1394.127197265625 L 319.3402099609375 1392.755249023438 L 318.7138977050781 1385.473266601563 C 315.564697265625 1386.438842773438 313.1906433105469 1386.7529296875 313.061279296875 1386.76953125 L 309.4806518554688 1387.230712890625 L 310.3086242675781 1383.716674804688 L 310.9677124023438 1380.919555664063 L 295.8197326660156 1365.88232421875 L 295.7816772460938 1365.844482421875 L 295.7453002929688 1365.80517578125 L 280.9848022460938 1349.839233398438 C 280.9141235351563 1349.839721679688 280.8435363769531 1349.839965820313 280.7730102539063 1349.839965820313 C 277.7047729492188 1349.839965820313 275.576171875 1349.3779296875 275.487060546875 1349.358154296875 L 274.5104370117188 1349.142578125 L 273.9519958496094 1348.312866210938 L 234.2230224609375 1289.284301757813 C 232.6019592285156 1287.349365234375 232.5684051513672 1284.862182617188 232.5700531005859 1284.578369140625 L 232.5714874267578 1284.332763671875 L 232.6207275390625 1284.092041015625 C 233.4700927734375 1279.939575195313 235.6956481933594 1276.666381835938 239.0568542480469 1274.62646484375 C 242.3687591552734 1272.616455078125 245.68505859375 1272.460205078125 246.6225738525391 1272.460205078125 C 247.1695404052734 1272.460205078125 247.6544952392578 1272.501708984375 248.0639190673828 1272.583251953125 C 248.9425659179688 1272.757202148438 249.769287109375 1273.286499023438 250.4832611083984 1274.127075195313 C 259.4079284667969 1278.365478515625 270.0763244628906 1287.34326171875 282.2047729492188 1300.823852539063 C 292.0003662109375 1311.711547851563 299.9181518554688 1322.3798828125 303.2991943359375 1326.935424804688 C 303.9339294433594 1327.790649414063 304.4353332519531 1328.466186523438 304.6566772460938 1328.74560546875 L 305.4442749023438 1329.739990234375 L 305.1069946289063 1330.962768554688 C 304.9449157714844 1331.550415039063 304.7609558105469 1332.145385742188 304.5510864257813 1332.759887695313 L 316.325439453125 1348.870849609375 L 316.3485412597656 1348.902465820313 L 316.3706359863281 1348.934814453125 C 316.462646484375 1349.0693359375 325.011962890625 1361.567138671875 328.237060546875 1365.95068359375 C 328.9770812988281 1366.187255859375 329.9699096679688 1366.660522460938 331.4671020507813 1367.557006835938 C 332.7383117675781 1368.318115234375 333.8410949707031 1369.068969726563 333.8874206542969 1369.100463867188 L 335.3977966308594 1370.13037109375 L 334.8742980957031 1371.881958007813 C 334.4921569824219 1373.160522460938 333.943359375 1374.385864257813 333.2340393066406 1375.546875 L 340.8468322753906 1380.3291015625 L 341.67041015625 1380.846435546875 L 341.9278259277344 1381.784301757813 L 348.0908203125 1404.2373046875 L 349.6033630371094 1409.747802734375 Z"/>
        <path class="cls-9" d="M 345.6799926757813 1404.899047851563 L 339.5169982910156 1382.446044921875 L 329.635986328125 1376.239013671875 L 329.6270141601563 1376.243041992188 C 330.8819885253906 1374.807006835938 331.8919982910156 1373.130004882813 332.47900390625 1371.166015625 C 332.47900390625 1371.166015625 328.1845703125 1368.23779296875 326.9925842285156 1368.23779296875 C 326.9347534179688 1368.23779296875 326.8843994140625 1368.24462890625 326.8420104980469 1368.259033203125 C 326.8420104980469 1368.259033203125 329.614013671875 1375.703002929688 316.4530029296875 1379.4560546875 C 320.6719970703125 1378.197998046875 328.1610107421875 1374.987060546875 326.8420104980469 1368.259033203125 C 324.1830139160156 1364.787963867188 314.3070068359375 1350.345947265625 314.3070068359375 1350.345947265625 C 314.3070068359375 1350.345947265625 314.2160034179688 1351.2490234375 313.8070068359375 1352.588012695313 C 314.010009765625 1351.883056640625 314.1809997558594 1351.140014648438 314.3070068359375 1350.345947265625 L 301.7579956054688 1333.175048828125 L 301.739013671875 1333.182006835938 C 302.0870056152344 1332.27294921875 302.4140014648438 1331.323974609375 302.6969909667969 1330.297973632813 C 300.0979919433594 1327.016967773438 271.5910034179688 1286.491943359375 248.8730010986328 1276.135009765625 L 248.8719787597656 1276.135009765625 C 248.4539794921875 1275.516967773438 247.97900390625 1275.114990234375 247.5750122070313 1275.035034179688 C 247.3446960449219 1274.989135742188 247.0194549560547 1274.960205078125 246.6226043701172 1274.960205078125 C 243.6661987304688 1274.960205078125 236.7134094238281 1276.558471679688 235.0700073242188 1284.593017578125 C 235.0700073242188 1284.593017578125 235.0590057373047 1286.473022460938 236.2140045166016 1287.765014648438 L 276.0260009765625 1346.9169921875 C 276.0260009765625 1346.9169921875 277.9421081542969 1347.339965820313 280.77294921875 1347.339965820313 C 281.1816711425781 1347.339965820313 281.6091918945313 1347.331176757813 282.0530090332031 1347.31103515625 L 282.0530090332031 1347.31201171875 L 297.5809936523438 1364.108032226563 L 313.7219848632813 1380.130981445313 L 312.7420043945313 1384.2900390625 C 312.7420043945313 1384.2900390625 316.5859985351563 1383.795043945313 320.9280090332031 1382.0419921875 L 321.8309936523438 1392.541015625 L 345.6799926757813 1404.899047851563 M 309.1679992675781 1359.89794921875 C 307.072998046875 1361.746948242188 304.135009765625 1363.291015625 300.0220031738281 1363.878051757813 C 302.4010009765625 1363.503051757813 306.0929870605469 1362.509033203125 309.1679992675781 1359.89794921875 M 345.6791687011719 1409.899047851563 C 344.8941955566406 1409.899047851563 344.1053771972656 1409.714477539063 343.3795776367188 1409.338500976563 L 319.5305786132813 1396.980346679688 C 318.0082702636719 1396.191528320313 316.9963073730469 1394.677734375 316.8493957519531 1392.969482421875 L 316.4786987304688 1388.659301757813 C 314.6729125976563 1389.07861328125 313.4747009277344 1389.236938476563 313.3805541992188 1389.249145507813 C 313.1672668457031 1389.276611328125 312.9537048339844 1389.2900390625 312.7416076660156 1389.2900390625 C 311.3358764648438 1389.290161132813 309.9831237792969 1388.696899414063 309.0285949707031 1387.63818359375 C 307.9300231933594 1386.419921875 307.4990234375 1384.740112304688 307.8752746582031 1383.143310546875 L 308.2134704589844 1381.7080078125 L 294.0584411621094 1367.656494140625 C 294.0077209472656 1367.606201171875 293.9580993652344 1367.5546875 293.9095764160156 1367.502319335938 L 279.8810119628906 1352.328125 C 277.0814208984375 1352.253173828125 275.1753540039063 1351.849609375 274.9481201171875 1351.799438476563 C 273.6942443847656 1351.522583007813 272.594970703125 1350.774047851563 271.8780212402344 1349.708740234375 L 232.2162017822266 1290.779907226563 C 230.1575622558594 1288.239135742188 230.0665283203125 1285.173706054688 230.0700836181641 1284.563720703125 C 230.0720062255859 1284.236938476563 230.1059417724609 1283.911254882813 230.1714172363281 1283.591064453125 C 231.1639251708984 1278.73876953125 233.7879486083984 1274.899780273438 237.7597961425781 1272.4892578125 C 241.5208587646484 1270.206665039063 245.2107543945313 1269.960205078125 246.6226043701172 1269.960205078125 C 247.3332214355469 1269.960205078125 247.9825744628906 1270.017944335938 248.5526123046875 1270.131591796875 C 249.8301239013672 1270.385986328125 251.0032501220703 1271.05322265625 252.00537109375 1272.085693359375 C 256.9092407226563 1274.484008789063 262.3166198730469 1278.2333984375 268.0980224609375 1283.245971679688 C 273.0899658203125 1287.573852539063 278.4614562988281 1292.925415039063 284.0632629394531 1299.151733398438 C 293.9376831054688 1310.126953125 301.9046325683594 1320.861572265625 305.3066711425781 1325.445434570313 C 305.9037475585938 1326.25 306.4194030761719 1326.944702148438 306.6163330078125 1327.193359375 C 307.6063842773438 1328.443237304688 307.9409790039063 1330.09033203125 307.5169982910156 1331.627319335938 C 307.4543762207031 1331.8544921875 307.3887634277344 1332.082397460938 307.3200378417969 1332.311767578125 L 318.3226318359375 1347.36669921875 C 318.3554382324219 1347.411010742188 318.3876037597656 1347.4560546875 318.4190979003906 1347.501586914063 C 318.4202270507813 1347.503173828125 318.4212341308594 1347.504638671875 318.4223327636719 1347.506225585938 C 318.4226989746094 1347.506713867188 318.4230651855469 1347.507202148438 318.4234313964844 1347.5078125 C 318.4275512695313 1347.513793945313 318.4317932128906 1347.52001953125 318.4359130859375 1347.526000976563 C 318.5924682617188 1347.7548828125 326.3763122558594 1359.132446289063 329.8132934570313 1363.87060546875 C 330.64501953125 1364.216796875 331.5945739746094 1364.719360351563 332.7514038085938 1365.412109375 C 334.0851440429688 1366.210693359375 335.2470397949219 1367.001708984375 335.2958679199219 1367.035034179688 C 337.0948486328125 1368.26171875 337.8931579589844 1370.511596679688 337.2696228027344 1372.597778320313 C 337.0602111816406 1373.29833984375 336.8081359863281 1373.984619140625 336.5142211914063 1374.655029296875 L 342.1766662597656 1378.212158203125 C 343.236083984375 1378.877563476563 344.0075073242188 1379.916137695313 344.3386840820313 1381.12255859375 L 350.5016479492188 1403.575561523438 C 351.0274658203125 1405.4912109375 350.369384765625 1407.536376953125 348.8251037597656 1408.786010742188 C 347.9163208007813 1409.521362304688 346.8017883300781 1409.899047851563 345.6791687011719 1409.899047851563 Z"/>
      </g>
      <g id="路径_7300" data-name="路径 7300" class="cls-2">
        <path class="cls-8" d="M 267.6524963378906 1350.177368164063 C 264.8421325683594 1350.177368164063 261.9197082519531 1349.1435546875 259.201171875 1347.1875 C 257.4141845703125 1345.901733398438 256.2715759277344 1344.628540039063 255.9939270019531 1344.306030273438 C 255.3573913574219 1343.621826171875 249.9752655029297 1337.63525390625 240.3428955078125 1320.919189453125 C 235.8829193115234 1313.178100585938 234.4567413330078 1306.7451171875 236.1039123535156 1301.798828125 C 237.4443359375 1297.773559570313 240.3430633544922 1296.214721679688 241.0073089599609 1295.903442382813 C 241.3752899169922 1295.723022460938 241.7827911376953 1295.62841796875 242.1979064941406 1295.62841796875 C 243.4134216308594 1295.62841796875 244.3289337158203 1296.406494140625 245.0641632080078 1297.167724609375 C 245.5232696533203 1297.64306640625 246.0684356689453 1298.284790039063 246.6845550537109 1299.0751953125 C 247.6876525878906 1300.362182617188 248.5577850341797 1301.628173828125 248.5943298339844 1301.681396484375 L 250.0548400878906 1303.809692382813 L 247.8809356689453 1305.201416015625 C 247.1636505126953 1305.66064453125 246.204345703125 1306.508056640625 246.1552276611328 1308.556396484375 C 246.1268157958984 1309.740966796875 246.4252471923828 1310.780517578125 246.5212249755859 1311.08203125 C 249.1676483154297 1316.572265625 256.7432556152344 1331.285034179688 261.0737609863281 1335.630249023438 C 262.7572631835938 1337.319458007813 264.6657104492188 1338.175903320313 266.74609375 1338.175903320313 C 268.6114501953125 1338.175903320313 269.96484375 1337.49365234375 269.9776611328125 1337.48681640625 L 271.9713439941406 1336.41552734375 L 273.2350463867188 1338.293090820313 L 276.7630310058594 1343.53515625 L 278.2142639160156 1345.691528320313 L 276.0031127929688 1347.057739257813 L 275.1186828613281 1347.604248046875 C 272.7843017578125 1349.311767578125 270.27294921875 1350.177368164063 267.6524963378906 1350.177368164063 Z"/>
        <path class="cls-9" d="M 267.6524963378906 1347.677490234375 C 269.5527648925781 1347.677490234375 271.611083984375 1347.094604492188 273.7179870605469 1345.531005859375 L 274.6889953613281 1344.931030273438 L 271.1610107421875 1339.68896484375 C 271.1610107421875 1339.68896484375 269.3243713378906 1340.675903320313 266.74609375 1340.675903320313 C 264.5737609863281 1340.675903320313 261.8751831054688 1339.975830078125 259.3030090332031 1337.39501953125 C 253.6779937744141 1331.7509765625 244.2030029296875 1312.030029296875 244.2030029296875 1312.030029296875 C 244.2030029296875 1312.030029296875 241.9609985351563 1306.02294921875 246.5330047607422 1303.095947265625 C 246.5330047607422 1303.095947265625 243.1240844726563 1298.128295898438 242.1979064941406 1298.128295898438 C 242.1599578857422 1298.128295898438 242.1262054443359 1298.13671875 242.0970001220703 1298.154052734375 C 242.0970001220703 1298.154052734375 232.4869995117188 1302.276000976563 242.5090026855469 1319.671020507813 C 252.5319976806641 1337.06494140625 257.8580017089844 1342.639038085938 257.8580017089844 1342.639038085938 C 257.8580017089844 1342.639038085938 262.068603515625 1347.677490234375 267.6524963378906 1347.677490234375 M 267.6524963378906 1352.677368164063 C 264.3149108886719 1352.677368164063 260.8875732421875 1351.480834960938 257.7410888671875 1349.216918945313 C 255.8106689453125 1347.827880859375 254.5180053710938 1346.4169921875 254.1300506591797 1345.97216796875 C 253.2620697021484 1345.027221679688 247.7235717773438 1338.734985351563 238.1767730712891 1322.167358398438 C 233.3448333740234 1313.780639648438 231.8494415283203 1306.661987304688 233.7319641113281 1301.008911132813 C 234.4628143310547 1298.814208984375 235.7182006835938 1296.872436523438 237.3623504638672 1295.393432617188 C 238.4559173583984 1294.409790039063 239.4395446777344 1293.87646484375 239.9447174072266 1293.640258789063 C 240.6443634033203 1293.304321289063 241.4148254394531 1293.128295898438 242.1979217529297 1293.128295898438 C 244.6383514404297 1293.128295898438 246.2540740966797 1294.801147460938 246.8623352050781 1295.430908203125 C 247.3898773193359 1295.97705078125 247.9766998291016 1296.666381835938 248.6563415527344 1297.538330078125 C 249.7055206298828 1298.884399414063 250.6173400878906 1300.211059570313 250.6556549072266 1300.266845703125 L 253.57666015625 1304.5234375 L 249.2288513183594 1307.306884765625 C 248.9885406494141 1307.460815429688 248.659423828125 1307.671508789063 248.6534118652344 1308.690063476563 C 248.6497192382813 1309.316284179688 248.7870330810547 1309.91162109375 248.8529663085938 1310.160034179688 C 249.4055328369141 1311.29541015625 251.4949188232422 1315.54736328125 254.0545196533203 1320.241088867188 C 259.0890502929688 1329.47314453125 261.7227172851563 1332.739868164063 262.8445129394531 1333.865478515625 C 264.0586547851563 1335.083740234375 265.3348693847656 1335.675903320313 266.74609375 1335.675903320313 C 267.8844299316406 1335.675903320313 268.7870483398438 1335.288452148438 268.7943420410156 1335.284545898438 L 272.7817077636719 1333.141967773438 L 275.30908203125 1336.897216796875 L 278.8370666503906 1342.139282226563 L 281.7395324707031 1346.452026367188 L 277.3172302246094 1349.1845703125 L 276.5129089355469 1349.681518554688 C 273.7641906738281 1351.669555664063 270.7842712402344 1352.677368164063 267.6524963378906 1352.677368164063 Z"/>
      </g>
    </g>
    <path id="路径_7301" data-name="路径 7301" class="cls-3" d="M282.053,1347.312l15.528,16.8s14.528.049,16.726-13.762l-12.549-17.171-8.489,3.156-9.056,7.14Z"/>
    <path id="路径_7302" data-name="路径 7302" class="cls-4" d="M236.214,1287.765l39.812,59.152s20.827,4.622,26.671-16.619c-2.6-3.281-31.106-43.8-53.824-54.163Z"/>
    <path id="路径_7303" data-name="路径 7303" class="cls-3" d="M241.238,1295.229s12.457-.255,15.775-14.342c0,0-6.388-4.388-8.14-4.752-4.3,4.936-12.659,11.63-12.659,11.63Z"/>
    <path id="路径_7304" data-name="路径 7304" class="cls-5" d="M235.07,1284.593s-.049,7.364,9,2.961,5.455-12.131,3.509-12.519A11.687,11.687,0,0,0,235.07,1284.593Z"/>
    <path id="路径_7305" data-name="路径 7305" class="cls-4" d="M297.581,1364.108l16.141,16.023s14.939-2.594,13.12-11.872c-2.659-3.471-12.535-17.913-12.535-17.913S313.02,1363.424,297.581,1364.108Z"/>
    <path id="路径_7306" data-name="路径 7306" class="cls-6" d="M320.909,1381.823l.922,10.718,23.848,12.358-6.162-22.453-9.881-6.207S320.782,1380.346,320.909,1381.823Z"/>
    <path id="路径_7307" data-name="路径 7307" class="cls-3" d="M242.1,1298.154s-9.61,4.122.412,21.517,15.349,22.968,15.349,22.968,7.562,9.051,15.86,2.892l.971-.6-3.528-5.242A10.191,10.191,0,0,1,259.3,1337.4c-5.625-5.644-15.1-25.365-15.1-25.365s-2.242-6.007,2.33-8.934C246.533,1303.1,242.839,1297.713,242.1,1298.154Z"/>
    <path id="路径_7308" data-name="路径 7308" class="cls-7" d="M333.483,1391.07l10.827,13.12,1.37.71-.325-1.184-11.377-13.3Z"/>
    <circle id="椭圆_992" data-name="椭圆 992" class="cls-7" cx="1.778" cy="1.778" r="1.778" transform="translate(331.877 1388.56)"/>
    <path id="路径_7309" data-name="路径 7309" class="cls-3" d="M313.722,1380.131l-.98,4.159s16.439-2.1,19.737-13.124c0,0-4.72-3.219-5.637-2.907C326.842,1368.259,329.985,1376.69,313.722,1380.131Z"/>
  </g>
</svg>
