<svg xmlns="http://www.w3.org/2000/svg" width="48.689" height="132.926" viewBox="0 0 48.689 132.926">
  <defs>
    <style>
      .cls-1 {
        fill: #d92f36;
      }

      .cls-2 {
        fill: #a73a2f;
      }

      .cls-3 {
        fill: #bfbbb2;
      }

      .cls-4 {
        fill: #722521;
      }

      .cls-5 {
        fill: #e5e5e5;
      }

      .cls-6 {
        fill: #299169;
      }

      .cls-7 {
        fill: #e9fbff;
      }

      .cls-8 {
        fill: #63aaba;
      }

      .cls-9 {
        fill: #64af89;
      }

      .cls-10 {
        fill: #fff;
      }
    </style>
  </defs>
  <g id="组_3155" data-name="组 3155" transform="translate(-486.526 -1083.223)">
    <path id="路径_7975" data-name="路径 7975" class="cls-1" d="M501.845,1083.227l23.62.787a2.747,2.747,0,0,1,.788,1.575c0,.787-.2,6.1-2.166,6.889s-22.439-.787-22.832-1.181S499.68,1083.03,501.845,1083.227Z"/>
    <path id="路径_7976" data-name="路径 7976" class="cls-2" d="M503.617,1094.84s-.394-3.232,0-3.191,18.127,1.229,18.708,1.029-.6,2.162-.6,2.556S503.617,1095.234,503.617,1094.84Z"/>
    <path id="路径_7977" data-name="路径 7977" class="cls-3" d="M487.87,1134.6a108.013,108.013,0,0,0,47.124.13c.116,6.168.51,57.739-1.459,64.825-2.755,2.362-42.516,5.118-46.846-2.362C486.689,1186.171,486.3,1137.75,487.87,1134.6Z"/>
    <path id="路径_7978" data-name="路径 7978" class="cls-4" d="M501.255,1094.84s20.864,1.181,22.832.394c.394.787.788,1.968-.393,2.362s-22.046,0-22.439-.788S500.861,1094.84,501.255,1094.84Z"/>
    <path id="路径_7979" data-name="路径 7979" class="cls-5" d="M503.938,1097.257s.466,2.307.072,2.7-15.353,20.864-16.14,31.887-2.362,74.01-.394,79.521,42.516,7.48,44.878-.787,3.937-76.766,1.969-82.671-12.2-26.769-12.6-27.163,0-2.841.2-2.995S504.259,1097.7,503.938,1097.257Z"/>
    <path id="路径_7980" data-name="路径 7980" class="cls-6" d="M487.7,1134.731a130.753,130.753,0,0,0,47.211.066c.08,9.169-1.284,64.939-1.284,64.939s-36.924,6.224-47.05-2.686C486.689,1187.746,487.279,1139.915,487.7,1134.731Z"/>
    <path id="路径_7981" data-name="路径 7981" class="cls-7" d="M487.245,1139.419s23.658,8.755,47.768,0c.1,4.63-.457,28.145-.457,28.145l-47.67.3Z"/>
    <path id="路径_7982" data-name="路径 7982" class="cls-1" d="M486.85,1161.8s5.744,6.652,27.789,3.109,19.857.505,19.857.505-.158,18.7-.756,30.158c-4.535,2.012-26.383,5.3-47.149-.673C486.689,1188.533,486.492,1166.291,486.85,1161.8Z"/>
    <path id="路径_7983" data-name="路径 7983" class="cls-8" d="M494.168,1158.614s-3.149,0-.787-3.149,3.937-4.33,4.331-3.543,0,2.362,1.181.394,1.968-4.331,3.149-3.543,3.543,2.755,3.543,3.149-.787.787-1.181,1.181-3.937,5.511-4.724,5.905S494.168,1158.614,494.168,1158.614Z"/>
    <path id="路径_7984" data-name="路径 7984" class="cls-8" d="M517.4,1154.284s-1.181-.787.787-1.968,2.756-3.543,4.331-1.575,1.574,2.756,1.574,2.756-.393.787.788.393,2.755-1.181,3.149,0,1.968,4.331,1.181,4.724-7.873,1.969-9.448,0A15.907,15.907,0,0,1,517.4,1154.284Z"/>
    <path id="路径_7985" data-name="路径 7985" class="cls-9" d="M502.042,1158.614s-1.575.394,0,.788,16.534.787,16.534.393.394-.787,0-1.181-5.118-9.841-5.511-10.235a3.11,3.11,0,0,0-4.331.394C507.16,1150.741,502.436,1158.614,502.042,1158.614Z"/>
    <path id="路径_7986" data-name="路径 7986" class="cls-10" d="M493.578,1172.2s9.842,4.33,31.1,0v3.543s-25.589,3.543-31.1-.787Z"/>
    <path id="路径_7987" data-name="路径 7987" class="cls-10" d="M493.644,1179.735l11.791.672-.105,1.835s-9.731-.029-11.767-1.079Z"/>
    <path id="路径_7988" data-name="路径 7988" class="cls-10" d="M513.586,1180.653l11.754-1.157.18,1.829s-9.619,1.473-11.794.75Z"/>
    <path id="路径_7989" data-name="路径 7989" class="cls-10" d="M494.174,1186.023s10.427,1.133,30.129-.663l.04,1.837s-21.317,1.533-30.138.255Z"/>
  </g>
</svg>
