<svg xmlns="http://www.w3.org/2000/svg" width="147.795" height="106.556" viewBox="0 0 147.795 106.556">
  <defs>
    <style>
      .cls-1 {
        fill: #fae155;
      }

      .cls-2 {
        fill: #96a0e1;
      }

      .cls-3 {
        fill: #f76c50;
      }

      .cls-4 {
        fill: #ff8a50;
      }

      .cls-5 {
        fill: #ffd291;
      }

      .cls-6 {
        fill: #ca474e;
      }

      .cls-7 {
        fill: #58d0e7;
      }
    </style>
  </defs>
  <g id="组_3107" data-name="组 3107" transform="translate(-151.67 -1087.264)">
    <path id="路径_7587" data-name="路径 7587" class="cls-1" d="M159.567,1127.169s-4.206-43.087,14.167-39.717c9.075,2.286,8.854,5.175,10.293,23.228-3.653,2.287-9.777,6.379-11.326,16.489Z"/>
    <path id="路径_7588" data-name="路径 7588" class="cls-1" d="M157.01,1147.009s-13.467,37.5,5.117,38.84c9.316.106,9.73-2.527,15.058-18.317-3.051-2.907-8.11-8.014-7.414-17.413Z"/>
    <path id="矩形_845" data-name="矩形 845" class="cls-2" d="M12.243,0H57.7a0,0,0,0,1,0,0V24.486a0,0,0,0,1,0,0H12.243A12.243,12.243,0,0,1,0,12.243v0A12.243,12.243,0,0,1,12.243,0Z" transform="matrix(0.999, 0.041, -0.041, 0.999, 152.68, 1124.284)"/>
    <path id="路径_7589" data-name="路径 7589" class="cls-3" d="M169.771,1150.119s-5.925,24.754,35.691,21.8c41.468,1.476,56.225.244,56.225.244s29.588.936,31.138-12.788c4.648-13.922,6.64-34.532,6.64-34.532s-.221-17.881-21.914-19.234c-6.752,0-12.4,13.479-11.843,20.341-5.866-1-66.518-16.049-66.518-16.049l-15.163-1.106s-9.823,2.76-12.438,16.266A159.335,159.335,0,0,0,169.771,1150.119Z"/>
    <path id="路径_7590" data-name="路径 7590" class="cls-4" d="M210.479,1178.194s-20.808-22.8,1.55-23.464,41.615,7.083,45.6,11.732,14.167,23.021,0,26.12S227.745,1193.689,210.479,1178.194Z"/>
    <path id="路径_7591" data-name="路径 7591" class="cls-5" d="M169.48,1142.776l125.227,10.1-1.882,6.5s-123.073-5.033-123.054-9.259S169.48,1142.776,169.48,1142.776Z"/>
    <path id="路径_7592" data-name="路径 7592" class="cls-6" d="M191.569,1109.348s-2.008-17.152,12.491-16.71,22.211,13.132,22.339,14.2S203.65,1115.543,191.569,1109.348Z"/>
    <path id="路径_7593" data-name="路径 7593" class="cls-7" d="M199.19,1109.9s-1.328,22.69,30.879,22.026c12.286.014,19.729-9.632,19.729-9.632S241.8,1097.73,199.19,1109.9Z"/>
  </g>
</svg>
