<svg xmlns="http://www.w3.org/2000/svg" width="95.405" height="139.094" viewBox="0 0 95.405 139.094">
  <defs>
    <style>
      .cls-1 {
        fill: #e4f2f2;
        stroke-linejoin: round;
      }

      .cls-2 {
        fill: #c9d1cc;
      }

      .cls-3 {
        fill: #fcc53a;
      }

      .cls-4 {
        fill: #3d1993;
      }

      .cls-5 {
        fill: #eaeaea;
      }

      .cls-6 {
        fill: #ef2929;
      }

      .cls-7 {
        fill: none;
        stroke: #fee138;
        stroke-miterlimit: 10;
        stroke-width: 1.2px;
      }

      .cls-8, .cls-9 {
        stroke: none;
      }

      .cls-9 {
        fill: #fff;
      }
    </style>
  </defs>
  <g id="组_3141" data-name="组 3141" transform="translate(-1408.528 -1268.769)">
    <g id="路径_7825" data-name="路径 7825" class="cls-1">
      <path class="cls-8" d="M 1460.745971679688 1405.36279296875 C 1460.744506835938 1405.36279296875 1460.744140625 1405.36279296875 1460.742797851563 1405.36279296875 C 1449.286743164063 1405.362548828125 1438.51220703125 1403.8857421875 1431.49072265625 1402.64697265625 C 1425.177490234375 1401.533081054688 1417.881591796875 1399.862426757813 1416.152465820313 1398.824584960938 C 1414.141479492188 1397.6181640625 1413.054565429688 1395.749633789063 1413.092529296875 1393.563354492188 C 1413.10546875 1392.816772460938 1413.251953125 1392.159057617188 1413.409057617188 1391.661743164063 C 1413.159423828125 1390.21044921875 1412.86376953125 1387.72607421875 1412.697387695313 1386.26025390625 C 1412.211791992188 1385.131591796875 1411.8115234375 1383.104736328125 1412.111572265625 1378.56298828125 C 1412.2626953125 1376.276611328125 1412.535278320313 1374.228515625 1412.628540039063 1373.565551757813 C 1412.61181640625 1373.107299804688 1412.55078125 1371.860229492188 1412.481689453125 1370.4462890625 C 1412.159790039063 1363.855834960938 1411.40576171875 1348.422485351563 1411.131225585938 1333.606689453125 C 1410.976684570313 1325.2685546875 1410.99658203125 1318.291259765625 1411.190307617188 1312.868408203125 C 1411.43408203125 1306.04296875 1411.95263671875 1301.591674804688 1412.775634765625 1299.260009765625 C 1415.633422851563 1291.160400390625 1417.001953125 1284.60205078125 1417.409912109375 1282.455688476563 C 1416.713256835938 1280.686767578125 1416.907348632813 1278.773559570313 1417.987182617188 1276.973876953125 C 1418.789672851563 1275.636596679688 1419.821411132813 1274.800415039063 1420.02001953125 1274.646362304688 L 1420.537719726563 1274.244995117188 L 1421.185546875 1274.14892578125 C 1421.384765625 1274.119384765625 1426.150390625 1273.417846679688 1433.625854492188 1272.70654296875 C 1440.51953125 1272.050537109375 1451.084228515625 1271.268676757813 1462.2666015625 1271.268676757813 C 1474.905517578125 1271.268676757813 1485.753051757813 1272.248413085938 1494.5078125 1274.1806640625 L 1494.810913085938 1274.24755859375 L 1495.088500976563 1274.386596679688 C 1495.591918945313 1274.638793945313 1495.994018554688 1274.995361328125 1496.270263671875 1275.422485351563 C 1496.84228515625 1276.095092773438 1497.638671875 1277.245727539063 1497.979858398438 1278.73779296875 C 1498.221557617188 1279.794921875 1498.201416015625 1280.855712890625 1497.920043945313 1281.890625 C 1497.677734375 1282.781372070313 1497.244140625 1283.636596679688 1496.626953125 1284.442749023438 C 1496.726806640625 1285.051879882813 1497.03515625 1286.393188476563 1497.972045898438 1289.193481445313 C 1498.829345703125 1291.756103515625 1499.912963867188 1294.64697265625 1500.704223632813 1296.7578125 L 1500.722900390625 1296.8076171875 C 1501.232421875 1298.166381835938 1501.655517578125 1301.598388671875 1501.304321289063 1317.3720703125 C 1501.078857421875 1327.501098632813 1500.60302734375 1339.671997070313 1500.183349609375 1350.410278320313 C 1499.81396484375 1359.860229492188 1499.49365234375 1368.052612304688 1499.478637695313 1371.651000976563 C 1499.6083984375 1372.29052734375 1499.919799804688 1373.938110351563 1500.115112304688 1375.917114257813 C 1500.415405273438 1378.960327148438 1500.31494140625 1381.4677734375 1499.817260742188 1383.389404296875 C 1500.109985351563 1384.475830078125 1500.408203125 1386.338256835938 1499.781860351563 1388.244873046875 C 1500.11767578125 1388.916137695313 1500.526245117188 1389.88525390625 1500.56396484375 1391.099609375 C 1500.617919921875 1392.8330078125 1499.906982421875 1394.484985351563 1498.450927734375 1396.009643554688 L 1498.294555664063 1396.17333984375 L 1498.111328125 1396.306274414063 C 1493.640991210938 1399.550537109375 1487.841674804688 1401.95654296875 1480.874755859375 1403.457275390625 C 1475.005126953125 1404.7216796875 1468.232177734375 1405.36279296875 1460.745971679688 1405.36279296875 Z M 1421.047973632813 1282.109497070313 L 1422.505249023438 1282.271362304688 C 1422.56201171875 1281.230712890625 1421.93701171875 1280.487548828125 1421.462280273438 1280.19775390625 L 1421.047973632813 1282.109497070313 Z"/>
      <path class="cls-9" d="M 1460.742797851563 1402.86279296875 C 1474.124267578125 1402.863159179688 1487.676025390625 1400.790405273438 1496.642944335938 1394.282958984375 C 1499.718994140625 1391.06201171875 1496.808959960938 1388.845947265625 1497.098999023438 1388.180053710938 C 1498.276000976563 1386.005981445313 1497.199951171875 1383.416015625 1497.199951171875 1383.416015625 L 1497.197021484375 1383.416015625 C 1498.635986328125 1379.4189453125 1496.97802734375 1371.906982421875 1496.97802734375 1371.906982421875 C 1496.97802734375 1360.8740234375 1500.18701171875 1302.4990234375 1498.381958007813 1297.68505859375 C 1496.577026367188 1292.869995117188 1493.425048828125 1284.472045898438 1494.201049804688 1283.442016601563 C 1497.057006835938 1280.390014648438 1494.925048828125 1277.633056640625 1494.194946289063 1276.849975585938 C 1494.18701171875 1276.77197265625 1494.116943359375 1276.696044921875 1493.968994140625 1276.621948242188 C 1484.27392578125 1274.482055664063 1472.994506835938 1273.768676757813 1462.2666015625 1273.768676757813 C 1440.808959960938 1273.768676757813 1421.552001953125 1276.621948242188 1421.552001953125 1276.621948242188 C 1421.552001953125 1276.621948242188 1418.275024414063 1279.162963867188 1420.014038085938 1282.10498046875 C 1420.112060546875 1282.27099609375 1420.43701171875 1282.43505859375 1420.942993164063 1282.593994140625 C 1420.332153320313 1282.461669921875 1419.99951171875 1282.3095703125 1420.008911132813 1282.135375976563 C 1419.918823242188 1282.670654296875 1418.612182617188 1290.23193359375 1415.133056640625 1300.092041015625 C 1411.52197265625 1310.322998046875 1415.133056640625 1371.906982421875 1415.133056640625 1373.713012695313 C 1415.133056640625 1373.713012695313 1413.72802734375 1383.140991210938 1415.133056640625 1385.547973632813 C 1415.133056640625 1385.547973632813 1415.734008789063 1390.93505859375 1416.001953125 1391.885986328125 C 1416.001953125 1391.885986328125 1414.430053710938 1394.8759765625 1417.43896484375 1396.681030273438 C 1419.275024414063 1397.782958984375 1439.797973632813 1402.8623046875 1460.742797851563 1402.86279296875 M 1420.008911132813 1282.135375976563 C 1420.012329101563 1282.115234375 1420.014038085938 1282.10498046875 1420.014038085938 1282.10498046875 C 1420.01123046875 1282.115234375 1420.009521484375 1282.125244140625 1420.008911132813 1282.135375976563 M 1460.745971679688 1407.86279296875 L 1460.745971679688 1402.86279296875 L 1460.744750976563 1407.86279296875 C 1449.105834960938 1407.862548828125 1438.176147460938 1406.365112304688 1431.056396484375 1405.10888671875 C 1426.348388671875 1404.2783203125 1422.888427734375 1403.482299804688 1420.814819335938 1402.960693359375 C 1416.289428710938 1401.822631835938 1415.327880859375 1401.245483398438 1414.865844726563 1400.968139648438 C 1412.097412109375 1399.307373046875 1410.539672851563 1396.592407226563 1410.592895507813 1393.52001953125 C 1410.605712890625 1392.779907226563 1410.712768554688 1392.104248046875 1410.853881835938 1391.52490234375 C 1410.618896484375 1390.033447265625 1410.388793945313 1388.089477539063 1410.248168945313 1386.852905273438 C 1409.5478515625 1384.93701171875 1409.359497070313 1382.296630859375 1409.617065429688 1378.398193359375 C 1409.758666992188 1376.2548828125 1410.004150390625 1374.307861328125 1410.121704101563 1373.44384765625 C 1410.098510742188 1372.898193359375 1410.044799804688 1371.798828125 1409.984741210938 1370.568237304688 C 1409.662231445313 1363.966552734375 1408.906860351563 1348.506591796875 1408.631591796875 1333.652954101563 C 1408.15576171875 1307.964599609375 1409.42333984375 1301.246459960938 1410.418090820313 1298.427856445313 C 1412.985595703125 1291.151489257813 1414.320190429688 1285.176391601563 1414.830078125 1282.625732421875 C 1414.170654296875 1280.348510742188 1414.51025390625 1277.909545898438 1415.843505859375 1275.6875 C 1416.849731445313 1274.010864257813 1418.1220703125 1272.954467773438 1418.488159179688 1272.670654296875 C 1419.166748046875 1272.144409179688 1419.969604492188 1271.8017578125 1420.819091796875 1271.675903320313 C 1421.02099609375 1271.64599609375 1425.849243164063 1270.935180664063 1433.389038085938 1270.2177734375 C 1440.336547851563 1269.556640625 1450.986083984375 1268.768676757813 1462.2666015625 1268.768676757813 C 1475.08642578125 1268.768676757813 1486.115234375 1269.768188476563 1495.046630859375 1271.739501953125 C 1495.449340820313 1271.828369140625 1495.839599609375 1271.966796875 1496.208374023438 1272.151489257813 C 1497.041137695313 1272.568603515625 1497.733764648438 1273.166870117188 1498.24169921875 1273.883056640625 C 1498.982666015625 1274.773193359375 1499.976318359375 1276.253662109375 1500.4169921875 1278.180419921875 C 1500.95166015625 1280.518432617188 1500.553833007813 1282.859619140625 1499.297241210938 1284.954711914063 C 1499.485107421875 1285.694458007813 1499.831665039063 1286.894165039063 1500.47021484375 1288.778442382813 C 1501.290893554688 1291.2001953125 1502.263671875 1293.79541015625 1503.045288085938 1295.880615234375 L 1503.063842773438 1295.930053710938 C 1503.669921875 1297.54638671875 1504.182739257813 1300.4072265625 1503.8037109375 1317.427612304688 C 1503.577758789063 1327.57763671875 1503.1015625 1339.759765625 1502.681396484375 1350.5078125 C 1502.321166992188 1359.725341796875 1502.007690429688 1367.743041992188 1501.97998046875 1371.413696289063 C 1502.138916015625 1372.230712890625 1502.420288085938 1373.820434570313 1502.60302734375 1375.671630859375 C 1502.90576171875 1378.739501953125 1502.835571289063 1381.28515625 1502.386474609375 1383.390869140625 C 1502.447631835938 1383.67919921875 1502.503295898438 1383.992431640625 1502.547485351563 1384.325561523438 C 1502.71728515625 1385.6064453125 1502.673461914063 1386.85498046875 1502.423217773438 1388.028930664063 C 1502.735595703125 1388.817138671875 1503.02587890625 1389.834838867188 1503.062866210938 1391.02197265625 C 1503.114624023438 1392.691284179688 1502.670288085938 1395.211181640625 1500.258911132813 1397.736206054688 C 1500.05078125 1397.9541015625 1499.823486328125 1398.152709960938 1499.579711914063 1398.32958984375 C 1490.863159179688 1404.655395507813 1477.797607421875 1407.86279296875 1460.745971679688 1407.86279296875 Z"/>
    </g>
    <path id="路径_7826" data-name="路径 7826" class="cls-2" d="M1416,1391.886a3.578,3.578,0,0,0,1.437,4.8c3.009,1.806,56.2,14.295,79.2-2.4,3.076-3.223.166-5.438.456-6.1S1416.406,1390.012,1416,1391.886Z"/>
    <path id="路径_7827" data-name="路径 7827" class="cls-3" d="M1415.133,1385.548s.6,5.387.869,6.338,55.04,16.129,79.643-2.125c3.288-2.207,1.555-6.345,1.555-6.345S1414.957,1384.041,1415.133,1385.548Z"/>
    <path id="路径_7828" data-name="路径 7828" class="cls-4" d="M1415.133,1373.713s-1.405,9.428,0,11.835,48.545,13.641,81.644-1.2c2.156-3.61.2-12.437.2-12.437S1415.517,1370.447,1415.133,1373.713Z"/>
    <path id="路径_7829" data-name="路径 7829" class="cls-3" d="M1420.014,1282.1a116.851,116.851,0,0,1-4.881,17.987c-3.611,10.231,0,71.815,0,73.621s55.365,13.039,81.845-1.806c0-11.033,3.209-69.408,1.4-74.222s-4.957-13.213-4.181-14.243S1419.278,1284.779,1420.014,1282.1Z"/>
    <path id="路径_7830" data-name="路径 7830" class="cls-5" d="M1421.552,1276.622s-3.277,2.541-1.538,5.483,70.808,4.948,74.187,1.337-.232-6.82-.232-6.82Z"/>
    <path id="路径_7831" data-name="路径 7831" class="cls-2" d="M1421.552,1276.622s43.33-6.42,72.417,0C1498.382,1278.828,1438.6,1282.907,1421.552,1276.622Z"/>
    <path id="路径_7832" data-name="路径 7832" class="cls-5" d="M1425.865,1380.633s-.3,4.012,0,4.514,23.972,8.224,60.481,0c3.209-1.663.4-5.664.4-5.664S1462.274,1390.162,1425.865,1380.633Z"/>
    <path id="路径_7833" data-name="路径 7833" class="cls-6" d="M1426.567,1319.952s-3.344-2.943-2.14-6.152,1.35-3.344-.261-3.477-2.681-2.274-1.478-2.942,4.414.668,4.547,1.738-1.2,4.547-.668,6.286.936,2.273,1.337,2.006,3.477-.937,4.547-3.21,9.629-5.751,12.3-3.076,6.82,4.28,7.088,6.687-1.07,5.617,0,6.152,3.477,1.069,3.075,2.808-18.589,1.872-18.589,1.872l.134-3.744-4.012-.535a17.161,17.161,0,0,1-3.611,2.541c-1.2.4-5.082,2.139-5.483,1.738a17.033,17.033,0,0,1-1.185-3.343S1427.9,1323.3,1426.567,1319.952Z"/>
    <path id="路径_7834" data-name="路径 7834" class="cls-6" d="M1486.273,1319.952s3.343-2.943,2.139-6.152-1.349-3.344.262-3.477,2.68-2.274,1.477-2.942-4.413.668-4.547,1.738,1.2,4.547.669,6.286-.937,2.273-1.338,2.006-3.477-.937-4.547-3.21-9.629-5.751-12.3-3.076-6.821,4.28-7.088,6.687,1.07,5.617,0,6.152-3.477,1.069-3.076,2.808,18.589,1.872,18.589,1.872l-.134-3.744,4.012-.535a17.161,17.161,0,0,0,3.611,2.541c1.2.4,5.082,2.139,5.483,1.738a17.032,17.032,0,0,0,1.185-3.343S1484.935,1323.3,1486.273,1319.952Z"/>
    <path id="路径_7835" data-name="路径 7835" class="cls-7" d="M1422.172,1325.3s5.732-2.006,4.4-5.349c0,0-3.344-2.943-2.14-6.152"/>
    <path id="路径_7836" data-name="路径 7836" class="cls-4" d="M1438.568,1336.267s12.071,5.483,33.468,0c.8,5.884,1.873,14.978,0,16.182s-33.5.8-33.468,0S1436.259,1336.4,1438.568,1336.267Z"/>
    <path id="路径_7837" data-name="路径 7837" class="cls-4" d="M1438.568,1355.926s-.9,13.24,1.1,13.24,10.431.133,12.036,0,1.6-10.967.8-11.769S1438.638,1354.7,1438.568,1355.926Z"/>
    <path id="路径_7838" data-name="路径 7838" class="cls-4" d="M1472.347,1355.926s.9,13.24-1.105,13.24-10.431.133-12.036,0-1.605-10.967-.8-11.769S1472.277,1354.7,1472.347,1355.926Z"/>
  </g>
</svg>
