<svg xmlns="http://www.w3.org/2000/svg" width="85.405" height="129.094" viewBox="0 0 85.405 129.094">
  <defs>
    <style>
      .cls-1 {
        fill: #c9d1cc;
      }

      .cls-2 {
        fill: #fcc53a;
      }

      .cls-3 {
        fill: #3d1993;
      }

      .cls-4 {
        fill: #eaeaea;
      }

      .cls-5 {
        fill: #ef2929;
      }

      .cls-6 {
        fill: none;
        stroke: #fee138;
        stroke-miterlimit: 10;
        stroke-width: 1.2px;
      }
    </style>
  </defs>
  <g id="组_3140" data-name="组 3140" transform="translate(-1413.528 -1104.783)">
    <path id="路径_7812" data-name="路径 7812" class="cls-1" d="M1416,1222.9a3.579,3.579,0,0,0,1.437,4.8c3.009,1.8,56.2,14.295,79.2-2.4,3.076-3.222.166-5.438.456-6.1S1416.406,1221.027,1416,1222.9Z"/>
    <path id="路径_7813" data-name="路径 7813" class="cls-2" d="M1415.133,1216.563s.6,5.386.869,6.337,55.04,16.13,79.643-2.125c3.288-2.206,1.555-6.344,1.555-6.344S1414.957,1215.055,1415.133,1216.563Z"/>
    <path id="路径_7814" data-name="路径 7814" class="cls-3" d="M1415.133,1204.727s-1.405,9.429,0,11.836,48.545,13.641,81.644-1.2c2.156-3.611.2-12.437.2-12.437S1415.517,1201.462,1415.133,1204.727Z"/>
    <path id="路径_7815" data-name="路径 7815" class="cls-2" d="M1420.014,1113.119a116.844,116.844,0,0,1-4.881,17.988c-3.611,10.23,0,71.815,0,73.62s55.365,13.039,81.845-1.805c0-11.033,3.209-69.408,1.4-74.223s-4.957-13.212-4.181-14.242S1419.278,1115.794,1420.014,1113.119Z"/>
    <path id="路径_7816" data-name="路径 7816" class="cls-4" d="M1421.552,1107.636s-3.277,2.541-1.538,5.483,70.808,4.949,74.187,1.338-.232-6.821-.232-6.821Z"/>
    <path id="路径_7817" data-name="路径 7817" class="cls-1" d="M1421.552,1107.636s43.33-6.419,72.417,0C1498.382,1109.843,1438.6,1113.922,1421.552,1107.636Z"/>
    <path id="路径_7818" data-name="路径 7818" class="cls-4" d="M1425.865,1211.648s-.3,4.012,0,4.514,23.972,8.224,60.481,0c3.209-1.663.4-5.665.4-5.665S1462.274,1221.177,1425.865,1211.648Z"/>
    <path id="路径_7819" data-name="路径 7819" class="cls-5" d="M1426.567,1150.966s-3.344-2.942-2.14-6.152,1.35-3.343-.261-3.477-2.681-2.273-1.478-2.942,4.414.669,4.547,1.739-1.2,4.547-.668,6.285.936,2.274,1.337,2.006,3.477-.936,4.547-3.209,9.629-5.751,12.3-3.076,6.82,4.279,7.088,6.686-1.07,5.617,0,6.152,3.477,1.07,3.075,2.809-18.589,1.872-18.589,1.872l.134-3.745-4.012-.535a17.125,17.125,0,0,1-3.611,2.541c-1.2.4-5.082,2.14-5.483,1.739a17.033,17.033,0,0,1-1.185-3.343S1427.9,1154.31,1426.567,1150.966Z"/>
    <path id="路径_7820" data-name="路径 7820" class="cls-5" d="M1486.273,1150.966s3.343-2.942,2.139-6.152-1.349-3.343.262-3.477,2.68-2.273,1.477-2.942-4.413.669-4.547,1.739,1.2,4.547.669,6.285-.937,2.274-1.338,2.006-3.477-.936-4.547-3.209-9.629-5.751-12.3-3.076-6.821,4.279-7.088,6.686,1.07,5.617,0,6.152-3.477,1.07-3.076,2.809,18.589,1.872,18.589,1.872l-.134-3.745,4.012-.535a17.125,17.125,0,0,0,3.611,2.541c1.2.4,5.082,2.14,5.483,1.739a17.032,17.032,0,0,0,1.185-3.343S1484.935,1154.31,1486.273,1150.966Z"/>
    <path id="路径_7821" data-name="路径 7821" class="cls-6" d="M1422.172,1156.316s5.732-2.006,4.4-5.35c0,0-3.344-2.942-2.14-6.152"/>
    <path id="路径_7822" data-name="路径 7822" class="cls-3" d="M1438.568,1167.282s12.071,5.483,33.468,0c.8,5.884,1.873,14.978,0,16.182s-33.5.8-33.468,0S1436.259,1167.415,1438.568,1167.282Z"/>
    <path id="路径_7823" data-name="路径 7823" class="cls-3" d="M1438.568,1186.941s-.9,13.239,1.1,13.239,10.431.134,12.036,0,1.6-10.966.8-11.768S1438.638,1185.716,1438.568,1186.941Z"/>
    <path id="路径_7824" data-name="路径 7824" class="cls-3" d="M1472.347,1186.941s.9,13.239-1.105,13.239-10.431.134-12.036,0-1.605-10.966-.8-11.768S1472.277,1185.716,1472.347,1186.941Z"/>
  </g>
</svg>
