<svg xmlns="http://www.w3.org/2000/svg" width="55.259" height="129.119" viewBox="0 0 55.259 129.119">
  <defs>
    <style>
      .cls-1 {
        fill: #fa0;
      }

      .cls-2 {
        fill: #48a4ff;
      }

      .cls-3 {
        fill: #386efc;
      }

      .cls-4 {
        fill: #ffe5bb;
      }

      .cls-5 {
        fill: #ff9100;
      }

      .cls-6 {
        fill: #47bf47;
      }

      .cls-7 {
        fill: #ff6700;
      }

      .cls-8 {
        fill: #fff200;
      }
    </style>
  </defs>
  <g id="组_3123" data-name="组 3123" transform="translate(-971.42 -1093.574)">
    <path id="路径_7677" data-name="路径 7677" class="cls-1" d="M988.505,1108.874s.65,6.224-1.855,8.926c-3.823,1.384-13.644,6.526-13.249,18.588s4.153,16.017,5.01,19.379-1.846,9.294-3.823,12.062-2.791,4.68-2.967,19.885-1.494,31.99,5.889,32.781,9.316-.791,9.316-2.109a7.859,7.859,0,0,0-.176-1.934s.7,7.471,15.556,6.065c8-2.373,7.47-4.219,7.646-4.483s6.064,8.086,14.765-1.406c3.955-9.579,2.373-45.178-6.064-50.845-2.11-8.566-3.6-6.1,2.724-20.518,1.143-6.68,2.285-21.445-11.6-27.245-2.021-4.482-1.7-8.536-1.311-8.751S988.865,1106.759,988.505,1108.874Z"/>
    <path id="路径_7678" data-name="路径 7678" class="cls-2" d="M984.753,1104.156s-1.662,3.3,1.04,4.284,26.585,1.582,26.9,0,.648-4.878-.143-4.878S984.753,1104.156,984.753,1104.156Z"/>
    <path id="路径_7679" data-name="路径 7679" class="cls-3" d="M984.78,1095.662s-1.2,7.373-.027,8.494,27.274,1.648,27.8-.594-.579-7.656-.579-7.656Z"/>
    <path id="路径_7680" data-name="路径 7680" class="cls-2" d="M987,1094.466s-4.482.44-.79,2.373,24.7,1.582,24.959.615,1.67-1.23,0-2.46S991.4,1092.8,987,1094.466Z"/>
    <path id="路径_7681" data-name="路径 7681" class="cls-4" d="M976.437,1125.534a118.7,118.7,0,0,0,41.761-.817c3.079,4.2,7.818,16.449-.879,30.275a14.112,14.112,0,0,0-.454,4.6c.1.476-35.182-1.925-38.807.882.5-2.736.746-3.154-1.253-8.578S969.651,1134.279,976.437,1125.534Z"/>
    <path id="路径_7682" data-name="路径 7682" class="cls-5" d="M974.9,1127.942s13.683,5.4,45.08,0c2.3,7,4.707,15.819-2.184,25.645a18,18,0,0,0-.922,3.158c-.116.872-33.314-2.04-38.493.6.029-1.578-.3-1.842-2.806-8.038S970.929,1130.57,974.9,1127.942Z"/>
    <path id="路径_7683" data-name="路径 7683" class="cls-6" d="M1005.61,1151.144s-3.433-1.039-3.839-.4.706,1.854,2.257,1.914,5.353.637,7.154,0,.927-1.055.927-1.055a6.725,6.725,0,0,0,1.164.825c.175,0,2.439-.116,3.427-.987a17.62,17.62,0,0,0,2.383-3.428s-.372-1.1-2.452,0S1005.61,1151.144,1005.61,1151.144Z"/>
    <path id="路径_7684" data-name="路径 7684" class="cls-7" d="M1016.046,1143.935s2.646,6.106-2.707,7.384-7.37,1.394-10.137-3.021"/>
    <path id="路径_7685" data-name="路径 7685" class="cls-8" d="M1003.688,1146.672a14.229,14.229,0,0,1,9.651-3.951c5.918,0,.689,5.345-1.518,5.81S1001.1,1151.234,1003.688,1146.672Z"/>
    <path id="路径_7686" data-name="路径 7686" class="cls-5" d="M1008.7,1146.194a2.236,2.236,0,0,1,1.516-.621c.93,0,.108.84-.238.913S1008.293,1146.91,1008.7,1146.194Z"/>
    <path id="路径_7687" data-name="路径 7687" class="cls-3" d="M979.418,1135.7s15.819,3.955,31.837,0a5.017,5.017,0,0,1,0,3.471c-.176.791-17.534,5.977-31.837,0C977.594,1137.673,979.418,1135.7,979.418,1135.7Z"/>
    <path id="路径_7688" data-name="路径 7688" class="cls-3" d="M980.621,1145.518s-.365,4.21.641,5.186a4.953,4.953,0,0,0,4.275.891,12,12,0,0,0,2.179-1.508v-4.569S980.685,1143.884,980.621,1145.518Z"/>
    <path id="路径_7689" data-name="路径 7689" class="cls-3" d="M989.8,1145.65s-.407,4.7.715,5.786a5.522,5.522,0,0,0,4.77.995,13.364,13.364,0,0,0,2.432-1.683v-5.1S989.872,1143.827,989.8,1145.65Z"/>
  </g>
</svg>
