<svg xmlns="http://www.w3.org/2000/svg" width="110.609" height="129.939" viewBox="0 0 110.609 129.939">
  <defs>
    <style>
      .cls-1 {
        fill: #b2b2b2;
      }

      .cls-2 {
        fill: #f55040;
      }

      .cls-3 {
        fill: #ec5449;
      }

      .cls-4 {
        fill: #c1eff0;
      }

      .cls-5 {
        fill: #524d47;
      }
    </style>
  </defs>
  <g id="组_3041" data-name="组 3041" transform="translate(-235.07 -1072.827)">
    <path id="路径_7290" data-name="路径 7290" class="cls-1" d="M282.053,1145.18l15.528,16.8s14.528.049,16.726-13.763l-12.549-17.171-8.489,3.157-9.056,7.139Z"/>
    <path id="路径_7291" data-name="路径 7291" class="cls-2" d="M236.214,1085.632l39.812,59.152s20.827,4.623,26.671-16.619c-2.6-3.281-31.106-43.805-53.824-54.163Z"/>
    <path id="路径_7292" data-name="路径 7292" class="cls-1" d="M241.238,1093.1s12.457-.254,15.775-14.342c0,0-6.388-4.388-8.14-4.752-4.3,4.936-12.659,11.63-12.659,11.63Z"/>
    <path id="路径_7293" data-name="路径 7293" class="cls-3" d="M235.07,1082.461s-.049,7.364,9,2.961,5.455-12.132,3.509-12.52A11.687,11.687,0,0,0,235.07,1082.461Z"/>
    <path id="路径_7294" data-name="路径 7294" class="cls-2" d="M297.581,1161.976,313.722,1178s14.939-2.594,13.12-11.872c-2.659-3.471-12.535-17.913-12.535-17.913S313.02,1161.291,297.581,1161.976Z"/>
    <path id="路径_7295" data-name="路径 7295" class="cls-4" d="M320.909,1179.69l.922,10.718,23.848,12.358-6.162-22.453-9.881-6.207S320.782,1178.214,320.909,1179.69Z"/>
    <path id="路径_7296" data-name="路径 7296" class="cls-1" d="M242.1,1096.021s-9.61,4.122.412,21.517,15.349,22.968,15.349,22.968,7.562,9.051,15.86,2.892l.971-.6-3.528-5.242a10.19,10.19,0,0,1-11.858-2.293c-5.625-5.645-15.1-25.365-15.1-25.365s-2.242-6.007,2.33-8.934C246.533,1100.964,242.839,1095.58,242.1,1096.021Z"/>
    <path id="路径_7297" data-name="路径 7297" class="cls-5" d="M333.483,1188.937l10.827,13.12,1.37.71-.325-1.184-11.377-13.3Z"/>
    <circle id="椭圆_991" data-name="椭圆 991" class="cls-5" cx="1.778" cy="1.778" r="1.778" transform="translate(331.877 1186.427)"/>
    <path id="路径_7298" data-name="路径 7298" class="cls-1" d="M313.722,1178l-.98,4.159s16.439-2.1,19.737-13.124c0,0-4.72-3.218-5.637-2.907C326.842,1166.126,329.985,1174.557,313.722,1178Z"/>
  </g>
</svg>
