<svg xmlns="http://www.w3.org/2000/svg" width="246.36" height="97.695" viewBox="0 0 246.36 97.695">
  <defs>
    <style>
      .cls-1 {
        fill: #3bbecc;
      }

      .cls-2 {
        fill: #4f7a8b;
      }

      .cls-3 {
        fill: #99d2d4;
      }

      .cls-4 {
        fill: #f18096;
      }

      .cls-5 {
        fill: #e97c97;
      }

      .cls-6 {
        fill: #cf6f84;
      }

      .cls-7 {
        fill: #d17087;
      }

      .cls-8 {
        fill: #417e89;
      }

      .cls-9 {
        fill: #9ad5d0;
      }

      .cls-10 {
        fill: #eb3658;
      }

      .cls-11 {
        fill: #eeb865;
      }

      .cls-12 {
        fill: #96d2d2;
      }

      .cls-13 {
        fill: #3ebec8;
      }

      .cls-14 {
        fill: #71c6cb;
      }

      .cls-15 {
        fill: #512031;
      }
    </style>
  </defs>
  <g id="组_3113" data-name="组 3113" transform="translate(-609.93 -1085.644)">
    <path id="矩形_868" data-name="矩形 868" class="cls-1" d="M15.751,0h58.4a0,0,0,0,1,0,0V31.5a0,0,0,0,1,0,0h-58.4A15.751,15.751,0,0,1,0,15.751v0A15.751,15.751,0,0,1,15.751,0Z" transform="translate(609.93 1122.81)"/>
    <rect id="矩形_869" data-name="矩形 869" class="cls-2" width="15.265" height="14.026" transform="translate(625.858 1108.784)"/>
    <rect id="矩形_870" data-name="矩形 870" class="cls-3" width="22.034" height="6.504" rx="3.252" transform="translate(622.009 1102.28)"/>
    <rect id="矩形_871" data-name="矩形 871" class="cls-4" width="55.573" height="16.636" transform="translate(675.591 1085.644)"/>
    <path id="路径_7621" data-name="路径 7621" class="cls-5" d="M684.086,1106.7v52.21H721.96V1106.7Zm29.981,31.857H691.979v-25.025h22.088Z"/>
    <rect id="矩形_872" data-name="矩形 872" class="cls-6" width="48.847" height="4.425" transform="translate(678.953 1102.28)"/>
    <path id="路径_7622" data-name="路径 7622" class="cls-7" d="M714.067,1122.81v15.751H691.979V1122.81h-7.893v36.1H721.96v-36.1Z"/>
    <rect id="矩形_873" data-name="矩形 873" class="cls-8" width="66.768" height="6.77" transform="translate(617.318 1152.145)"/>
    <rect id="矩形_874" data-name="矩形 874" class="cls-9" width="115.393" height="9.026" transform="translate(612.408 1158.914)"/>
    <circle id="椭圆_1124" data-name="椭圆 1124" class="cls-10" cx="13.274" cy="13.274" r="13.274" transform="translate(624.089 1156.791)"/>
    <circle id="椭圆_1125" data-name="椭圆 1125" class="cls-11" cx="5.752" cy="5.752" r="5.752" transform="translate(631.61 1164.312)"/>
    <circle id="椭圆_1126" data-name="椭圆 1126" class="cls-10" cx="13.274" cy="13.274" r="13.274" transform="translate(664.575 1156.791)"/>
    <circle id="椭圆_1127" data-name="椭圆 1127" class="cls-11" cx="5.752" cy="5.752" r="5.752" transform="translate(672.097 1164.312)"/>
    <circle id="椭圆_1128" data-name="椭圆 1128" class="cls-10" cx="13.274" cy="13.274" r="13.274" transform="translate(691.979 1156.791)"/>
    <circle id="椭圆_1129" data-name="椭圆 1129" class="cls-11" cx="5.752" cy="5.752" r="5.752" transform="translate(699.501 1164.312)"/>
    <rect id="矩形_875" data-name="矩形 875" class="cls-12" width="116.278" height="6.831" transform="translate(738.154 1106.704)"/>
    <path id="路径_7623" data-name="路径 7623" class="cls-13" d="M746.118,1113.536v45.378H848.326v-45.378Zm25.021,37.591H753.883v-19.689a8.628,8.628,0,0,1,8.628-8.628h0a8.628,8.628,0,0,1,8.628,8.628Zm22.964,0H776.847v-19.689a8.628,8.628,0,0,1,17.256,0Zm22.963,0H799.81v-19.689a8.628,8.628,0,0,1,17.256,0Zm22.964,0H822.774v-19.689a8.628,8.628,0,0,1,17.256,0Z"/>
    <rect id="矩形_876" data-name="矩形 876" class="cls-9" width="118.136" height="8.23" transform="translate(738.154 1158.914)"/>
    <rect id="矩形_877" data-name="矩形 877" class="cls-14" width="102.208" height="5.504" transform="translate(746.118 1115.421)"/>
    <rect id="矩形_878" data-name="矩形 878" class="cls-14" width="102.208" height="4.632" transform="translate(746.118 1153.649)"/>
    <rect id="矩形_879" data-name="矩形 879" class="cls-15" width="10.353" height="5.84" transform="translate(727.8 1160.684)"/>
    <circle id="椭圆_1130" data-name="椭圆 1130" class="cls-10" cx="13.274" cy="13.274" r="13.274" transform="translate(751.306 1156.791)"/>
    <circle id="椭圆_1131" data-name="椭圆 1131" class="cls-11" cx="5.752" cy="5.752" r="5.752" transform="translate(758.828 1164.312)"/>
    <circle id="椭圆_1132" data-name="椭圆 1132" class="cls-10" cx="13.274" cy="13.274" r="13.274" transform="translate(818.155 1156.791)"/>
    <circle id="椭圆_1133" data-name="椭圆 1133" class="cls-11" cx="5.752" cy="5.752" r="5.752" transform="translate(825.677 1164.312)"/>
  </g>
</svg>
