<svg xmlns="http://www.w3.org/2000/svg" width="86.184" height="119.117" viewBox="0 0 86.184 119.117">
  <defs>
    <style>
      .cls-1 {
        fill: #cfecff;
      }

      .cls-2 {
        fill: #97c8ce;
      }

      .cls-3 {
        fill: #007cc1;
      }

      .cls-4 {
        fill: #009be0;
      }

      .cls-5 {
        fill: #46c168;
      }

      .cls-6 {
        fill: #e9fdff;
      }

      .cls-7 {
        fill: #feffcc;
      }

      .cls-8 {
        fill: #fffeeb;
      }

      .cls-9 {
        fill: #f5f9bd;
      }

      .cls-10 {
        fill: #192a3a;
      }
    </style>
  </defs>
  <g id="组_3152" data-name="组 3152" transform="translate(-345.642 -1085.535)">
    <path id="路径_7929" data-name="路径 7929" class="cls-1" d="M355.1,1092.586a3.094,3.094,0,0,1,1.432-4.309,9.011,9.011,0,0,1,3.02-.857c6.768-.89,59.488-3.027,61.269-1.068s1.069,1.959,1.069,4.631-2.227,11.844-2.227,12.556,9.885,25.38,10.019,27.918,1.469,52.364.534,60.646-3.206,8.415-8.95,9.083-58.107,3.607-58.641,2.672c-1.47.182-1.336-2.271-.8-6.813s1.2-64.385,1.2-64.385a3.344,3.344,0,0,0-.133-3.073c-.935-1.469-3.34-11.888-3.874-14.426s-.534-21.106-.534-22.575.382-2.939-.535-3.741S353.677,1088.489,355.1,1092.586Z"/>
    <path id="路径_7930" data-name="路径 7930" class="cls-2" d="M355.692,1088.852s-1.57-.185-.59,3.734c-.383,4.541-.268,19.5-1.069,21.016s-4.275,11.488-6.412,15.495-2.315,67.681-1.6,69.462,14.16,6.5,16.609,5.3c0-1.915.273-70.875.4-71.2a5.9,5.9,0,0,0-.133-3.073c-.768-2-5.477-12.6-4.408-37C358.486,1088.85,358.6,1088.1,355.692,1088.852Z"/>
    <path id="路径_7931" data-name="路径 7931" class="cls-3" d="M355.992,1131.413s-2.137-2.316-2.672-1.247.483,2.315,1.4,3.651a4.658,4.658,0,0,0,2.609,1.692s2.4-4.185,2.226-4.72-.445-1.632-1.068-.9A9.246,9.246,0,0,1,355.992,1131.413Z"/>
    <path id="路径_7932" data-name="路径 7932" class="cls-3" d="M349.854,1162.195s-.751,26.465,0,29.811,3.275,2.129,6.688,3.042,1.962,1.521,3.022-3.042.642-27.074-.285-28.595S349.854,1162.195,349.854,1162.195Z"/>
    <path id="路径_7933" data-name="路径 7933" class="cls-3" d="M349.1,1141.565v18.076s-.055,1.24,4.524,1.066,5.942-4.805,5.942-4.805l-1.108-14.337Z"/>
    <path id="路径_7934" data-name="路径 7934" class="cls-4" d="M359.02,1115.161s1.2,5.61,12.423,4.007c0,0,12.022-3.452,16.964-1.86,0,0-.712,1.192,7.125-.544s5.7,4.675,4.23,8.415,1.068,12.69,7.614,9.217,4.141-7.1,3.473-9.225-4.141-8.274,5.744-9.476c5.343.267,5.679-.675,6.513-2.876,0-2.067-3.441-9.28-3.441-9.28s4.207-16.621,1.158-17.187-53.416-2.25-64.289,1.925c2.112.313,2.013.924,1.952,3.388S358.782,1113.365,359.02,1115.161Z"/>
    <path id="路径_7935" data-name="路径 7935" class="cls-3" d="M368.125,1118.64s-2.274-2.3-2.192,2.08-2.355,6.241,2.516,6.313,4.466-.43,4.466-.43.179,4.6.008,5.638,1.047,1.966,3,1.894,5.683.574,5.845-1.291a47.607,47.607,0,0,0,0-5.022s-1.3-.789.893-.789,6.577.646,6.983-1.435a27.9,27.9,0,0,0,0-6.026,15.208,15.208,0,0,0-2.68-.573c-1.055-.072-4.708.358-4.708.358a2.052,2.052,0,0,1-.569-1.319c0-.761.081-6.285.081-6.285s1.056-1.291-2.029-1.363-6.333,0-6.333,0a.877.877,0,0,0-.812.861c0,.789.325,6.528.325,6.528s.812.789-.569.933A33.585,33.585,0,0,1,368.125,1118.64Z"/>
    <path id="路径_7936" data-name="路径 7936" class="cls-5" d="M362.627,1160.724a6.741,6.741,0,0,1,7.614-4.421c5.877.935,5.61.668,11.087,1.336s23.109-12.386,26.449.82S421.6,1160.6,421.6,1160.6s1,3.827,5.277,1.567,3.287-12.213,3.287-12.213,6.157,51.107-5.244,50.7c-10.333,1.819-61.717,5.649-62.295,3.2S362.493,1164.21,362.627,1160.724Z"/>
    <path id="路径_7937" data-name="路径 7937" class="cls-6" d="M388.616,1151.144l6.025,42.962s13.358,3.562,22.085,0l6.38-43.841Z"/>
    <path id="路径_7938" data-name="路径 7938" class="cls-7" d="M393.394,1146.32s-10.864,4.685,0,7.89,30.214-.409,29.712-3.945-7.983-5.746-8.695-5.8S396.051,1144.82,393.394,1146.32Z"/>
    <path id="路径_7939" data-name="路径 7939" class="cls-8" d="M403.454,1140.17l3.028-3.429s-1.069,1.233.712,3.429,3.651,8.252.98,9.677-7.392,2.209-7.57-3.527A9.841,9.841,0,0,1,403.454,1140.17Z"/>
    <path id="路径_7940" data-name="路径 7940" class="cls-9" d="M362.476,1169.593l16.314-1.49s-.972-6.885,5.7-2.85a48.7,48.7,0,0,1,7.3-1.268s3.027-5.5,4.808-2.472-.178,5.343,1.425,7.124,7.3,4.453,3.562,9.084-6.946,2.671-6.946,2.671l3.673,22.912-5.68.394a40.54,40.54,0,0,0-1.377-6.03c-.712-1.781-1.365-2.533-2.641-1.979a3.92,3.92,0,0,0-2.524,2.514c-.356,1.247-.778,5.934-.778,5.934l-5.872.282s.416-7.285.238-7.819,1.425-1.643-1.425-.911-8.549.2-8.727,3.4a51.718,51.718,0,0,1-.594,5.554l-6.307-.789Z"/>
    <path id="路径_7941" data-name="路径 7941" class="cls-10" d="M367.549,1169.129l3.76,7.345s3.74,5.877,8.015,3.384.356-5.7.356-5.7a2.036,2.036,0,0,0,0-3.206c-1.781-1.781-.89-2.849-.89-2.849Z"/>
    <path id="路径_7942" data-name="路径 7942" class="cls-10" d="M370.33,1197.491s-1.514-4.81,1.514-5.433,5.877,2.315,7.213-.267,1.781-4.186,3.206-2.761,2.4,3.562,2.048,3.83a12.335,12.335,0,0,1-2.315,1.335c-.891.357-2.239.753-2.316,1.254S371.132,1195.889,370.33,1197.491Z"/>
    <path id="路径_7943" data-name="路径 7943" class="cls-10" d="M395.238,1184.113s-1.547-.1-1.725.969-.415,1.366.178,2.494,1.425,1.128,1.188,2.493a24.579,24.579,0,0,1-.6,2.925c-.168.459.253.754.963,1.26a1.672,1.672,0,0,0,1.625,0Z"/>
  </g>
</svg>
