<svg xmlns="http://www.w3.org/2000/svg" width="65.259" height="139.118" viewBox="0 0 65.259 139.118">
  <defs>
    <style>
      .cls-1 {
        fill: #e4f2f2;
        stroke-linejoin: round;
      }

      .cls-2 {
        fill: #fa0;
      }

      .cls-3 {
        fill: #48a4ff;
      }

      .cls-4 {
        fill: #386efc;
      }

      .cls-5 {
        fill: #ffe5bb;
      }

      .cls-6 {
        fill: #ff9100;
      }

      .cls-7 {
        fill: #47bf47;
      }

      .cls-8 {
        fill: #ff6700;
      }

      .cls-9 {
        fill: #fff200;
      }

      .cls-10, .cls-11 {
        stroke: none;
      }

      .cls-11 {
        fill: #fff;
      }
    </style>
  </defs>
  <g id="组_3125" data-name="组 3125" transform="translate(-966.419 -1258.214)">
    <g id="组_3124" data-name="组 3124">
      <g id="路径_7690" data-name="路径 7690" class="cls-1">
        <path class="cls-10" d="M 998.6759033203125 1394.83251953125 C 992.817138671875 1394.83251953125 989.3179321289063 1393.29833984375 987.233154296875 1391.5498046875 C 987.082763671875 1391.644409179688 986.9249267578125 1391.73388671875 986.7601318359375 1391.817626953125 C 985.3970336914063 1392.510375976563 983.5403442382813 1392.847045898438 981.0840454101563 1392.847045898438 C 979.9370727539063 1392.847045898438 978.6449584960938 1392.77099609375 977.24365234375 1392.620727539063 C 975.6030883789063 1392.445068359375 973.295654296875 1391.623657226563 971.6199340820313 1388.708740234375 C 970.6211547851563 1386.971313476563 969.9268798828125 1384.6455078125 969.4973754882813 1381.598266601563 C 968.7546997070313 1376.3291015625 968.8878173828125 1369.701416015625 969.0286865234375 1362.6845703125 C 969.0641479492188 1360.920288085938 969.1007690429688 1359.095825195313 969.1211547851563 1357.3251953125 C 969.2092895507813 1349.712646484375 969.4617919921875 1345.225341796875 969.9655151367188 1342.32080078125 C 970.5335083007813 1339.045776367188 971.4736938476563 1337.527709960938 972.5537109375 1336.015869140625 C 974.5501098632813 1333.220703125 976.5274047851563 1328.140380859375 975.9883422851563 1326.024047851563 C 975.8153686523438 1325.345458984375 975.4310913085938 1324.518920898438 974.944580078125 1323.472412109375 C 973.456787109375 1320.272338867188 971.2085571289063 1315.4365234375 970.90234375 1306.109985351563 C 970.7987670898438 1302.946166992188 971.3236083984375 1299.96875 972.4622802734375 1297.26025390625 C 973.4281005859375 1294.963012695313 974.8374633789063 1292.852172851563 976.6513061523438 1290.986694335938 C 979.7213134765625 1287.828979492188 983.2227783203125 1286.115600585938 985.1066284179688 1285.354736328125 C 986.1239013671875 1283.716186523438 986.1718139648438 1280.241455078125 986.0184936523438 1278.773803710938 L 985.98291015625 1278.4326171875 L 986.0404663085938 1278.094604492188 C 986.137939453125 1277.521850585938 986.5050659179688 1276.46630859375 987.8688354492188 1275.831420898438 C 988.3185424804688 1275.621948242188 988.8627319335938 1275.466552734375 989.5324096679688 1275.356323242188 C 990.4762573242188 1275.200927734375 991.7108154296875 1275.125366210938 993.3065795898438 1275.125366210938 C 996.7938232421875 1275.125366210938 1001.042785644531 1275.490966796875 1003.265197753906 1275.708862304688 C 1004.7060546875 1275.850219726563 1006.087036132813 1276.006591796875 1007.15380859375 1276.149169921875 C 1007.666442871094 1276.2177734375 1008.080688476563 1276.27978515625 1008.385131835938 1276.33349609375 C 1008.581665039063 1276.3681640625 1008.734069824219 1276.399536132813 1008.864807128906 1276.432250976563 C 1010.264892578125 1276.782470703125 1010.678527832031 1277.839233398438 1010.791381835938 1278.27734375 C 1010.947326660156 1278.882690429688 1010.868286132813 1279.50390625 1010.600708007813 1280.032958984375 C 1010.504760742188 1280.856079101563 1010.6015625 1283.165283203125 1011.599365234375 1285.776977539063 C 1014.794372558594 1287.266845703125 1017.437561035156 1289.3134765625 1019.466186523438 1291.870849609375 C 1021.363098144531 1294.26220703125 1022.733154296875 1297.114501953125 1023.538330078125 1300.348388671875 C 1024.6259765625 1304.717163085938 1024.694213867188 1309.75634765625 1023.741149902344 1315.325805664063 L 1023.689392089844 1315.628173828125 L 1023.566101074219 1315.909057617188 C 1020.989379882813 1321.778198242188 1019.773132324219 1324.71630859375 1019.37744140625 1326.610717773438 C 1019.055908203125 1328.150268554688 1019.279541015625 1328.893188476563 1019.943298339844 1331.0986328125 C 1020.179870605469 1331.884643554688 1020.463256835938 1332.826171875 1020.764404296875 1333.975219726563 C 1021.795654296875 1334.869995117188 1022.742980957031 1336.097534179688 1023.589172363281 1337.637817382813 C 1024.488525390625 1339.274658203125 1025.303833007813 1341.313842773438 1026.012451171875 1343.698608398438 C 1027.262939453125 1347.90673828125 1028.199951171875 1353.252319335938 1028.722290039063 1359.157470703125 C 1029.20068359375 1364.567016601563 1029.306518554688 1370.2724609375 1029.020263671875 1375.223022460938 C 1028.8076171875 1378.899658203125 1028.27197265625 1383.965942382813 1026.927734375 1387.221923828125 L 1026.758911132813 1387.630981445313 L 1026.459838867188 1387.957275390625 C 1023.199645996094 1391.513916015625 1019.802734375 1393.317504882813 1016.364196777344 1393.317504882813 C 1016.36376953125 1393.317504882813 1016.363708496094 1393.317504882813 1016.36328125 1393.317504882813 C 1013.767700195313 1393.317260742188 1011.697326660156 1392.269409179688 1010.287780761719 1391.273315429688 C 1010.23779296875 1391.31298828125 1010.186584472656 1391.352661132813 1010.133911132813 1391.392456054688 C 1008.640563964844 1392.521118164063 1006.279968261719 1393.554809570313 1002.917175292969 1394.552734375 L 1002.683959960938 1394.621948242188 L 1002.441711425781 1394.644897460938 C 1001.12744140625 1394.769287109375 999.8604736328125 1394.83251953125 998.6759033203125 1394.83251953125 Z"/>
        <path class="cls-11" d="M 993.3065795898438 1277.625366210938 C 990.6155395507813 1277.625244140625 988.616943359375 1277.8564453125 988.5050048828125 1278.514038085938 C 988.5050048828125 1278.514038085938 989.155029296875 1284.737060546875 986.6500244140625 1287.43994140625 C 982.8270263671875 1288.823974609375 973.0059814453125 1293.964965820313 973.4010009765625 1306.027954101563 C 973.7969970703125 1318.089965820313 977.5540161132813 1322.045043945313 978.4110107421875 1325.406982421875 C 979.2670288085938 1328.767944335938 976.5650024414063 1334.701049804688 974.5880126953125 1337.468994140625 C 972.6099853515625 1340.238037109375 971.7969970703125 1342.149047851563 971.6209716796875 1357.35400390625 C 971.446044921875 1372.557983398438 970.126953125 1389.343994140625 977.510009765625 1390.135009765625 C 978.8819580078125 1390.281982421875 980.06591796875 1390.347045898438 981.0840454101563 1390.347045898438 C 985.5442504882813 1390.347045898438 986.8259887695313 1389.098999023438 986.8259887695313 1388.026000976563 C 986.8259887695313 1387.280029296875 986.77001953125 1386.766967773438 986.7210083007813 1386.454956054688 C 987.0542602539063 1387.784301757813 988.9081420898438 1392.332397460938 998.6759643554688 1392.332397460938 C 999.7536010742188 1392.332397460938 1000.927062988281 1392.277099609375 1002.205993652344 1392.156005859375 C 1010.203002929688 1389.782958984375 1009.676025390625 1387.93798828125 1009.851989746094 1387.673950195313 C 1009.854736328125 1387.669799804688 1009.85888671875 1387.667846679688 1009.864440917969 1387.667846679688 C 1010.083740234375 1387.667602539063 1012.480590820313 1390.817504882813 1016.363525390625 1390.817504882813 C 1018.647338867188 1390.817504882813 1021.444885253906 1389.728393554688 1024.616943359375 1386.267944335938 C 1028.572021484375 1376.68798828125 1026.989990234375 1341.088989257813 1018.552978515625 1335.422973632813 C 1016.442993164063 1326.857055664063 1014.948974609375 1329.317993164063 1021.276977539063 1314.904052734375 C 1022.419982910156 1308.224975585938 1023.56201171875 1293.4599609375 1009.676025390625 1287.660034179688 C 1007.655029296875 1283.177001953125 1007.976989746094 1279.123046875 1008.364990234375 1278.909057617188 C 1008.63232421875 1278.761474609375 999.2708129882813 1277.62548828125 993.3065795898438 1277.625366210938 M 993.3055419921875 1272.625366210938 L 993.3055419921875 1277.625366210938 L 993.3058471679688 1272.625366210938 C 996.9003295898438 1272.625366210938 1001.241333007813 1272.998413085938 1003.509155273438 1273.220825195313 C 1004.978271484375 1273.364868164063 1006.390258789063 1273.52490234375 1007.485168457031 1273.671264648438 C 1008.032104492188 1273.744384765625 1008.481018066406 1273.811767578125 1008.819519042969 1273.87158203125 C 1009.0751953125 1273.916625976563 1009.282348632813 1273.959716796875 1009.471313476563 1274.006958007813 C 1011.346435546875 1274.475952148438 1012.744934082031 1275.839111328125 1013.212341308594 1277.653686523438 C 1013.47021484375 1278.654663085938 1013.406677246094 1279.677001953125 1013.074279785156 1280.598754882813 C 1013.066162109375 1281.209716796875 1013.155456542969 1282.45849609375 1013.62353515625 1283.985595703125 C 1016.743774414063 1285.5927734375 1019.361572265625 1287.716186523438 1021.424743652344 1290.317138671875 C 1023.544982910156 1292.989990234375 1025.072265625 1296.161865234375 1025.96435546875 1299.744384765625 C 1027.135986328125 1304.450927734375 1027.217041015625 1309.835083007813 1026.205322265625 1315.747436523438 C 1026.136596679688 1316.149169921875 1026.01904296875 1316.540893554688 1025.855224609375 1316.913940429688 C 1023.401550292969 1322.5029296875 1022.172546386719 1325.4560546875 1021.824645996094 1327.121826171875 C 1021.645690917969 1327.978759765625 1021.67919921875 1328.191772460938 1022.337219238281 1330.378051757813 C 1022.529968261719 1331.018432617188 1022.752868652344 1331.759033203125 1022.992370605469 1332.631713867188 C 1025.21875 1334.8349609375 1027.000732421875 1338.247802734375 1028.408935546875 1342.986450195313 C 1029.706298828125 1347.352416992188 1030.67578125 1352.868041992188 1031.212524414063 1358.937255859375 C 1031.701416015625 1364.464111328125 1031.809204101563 1370.299072265625 1031.51611328125 1375.367309570313 C 1031.190673828125 1380.994140625 1030.424438476563 1385.303588867188 1029.238525390625 1388.176025390625 C 1029.01513671875 1388.717163085938 1028.698364257813 1389.214965820313 1028.302734375 1389.646606445313 C 1024.54931640625 1393.7412109375 1020.532348632813 1395.817504882813 1016.363464355469 1395.817504882813 C 1013.93896484375 1395.817504882813 1011.912780761719 1395.108642578125 1010.333862304688 1394.250732421875 C 1008.673522949219 1395.219482421875 1006.461730957031 1396.108642578125 1003.62841796875 1396.949462890625 C 1003.318115234375 1397.04150390625 1002.999633789063 1397.103271484375 1002.677429199219 1397.1337890625 C 1001.28515625 1397.265625 999.9388427734375 1397.332397460938 998.6759033203125 1397.332397460938 C 993.8547973632813 1397.332397460938 989.9220581054688 1396.365112304688 986.9668579101563 1394.455078125 C 985.392333984375 1395.054321289063 983.4556884765625 1395.347045898438 981.0840454101563 1395.347045898438 C 979.8483276367188 1395.347045898438 978.4666137695313 1395.26611328125 976.9772338867188 1395.106567382813 C 975.2930297851563 1394.926147460938 973.7554931640625 1394.331665039063 972.4073486328125 1393.33984375 C 971.247314453125 1392.486328125 970.2532958984375 1391.347534179688 969.45263671875 1389.954833984375 C 968.2918701171875 1387.935668945313 967.4967041015625 1385.316528320313 967.0218505859375 1381.947509765625 C 966.251220703125 1376.479858398438 966.38623046875 1369.755004882813 966.5291748046875 1362.63525390625 C 966.5645751953125 1360.875854492188 966.60107421875 1359.056640625 966.621337890625 1357.296508789063 C 966.7122802734375 1349.439697265625 966.967529296875 1344.977294921875 967.5023193359375 1341.893676757813 C 968.0975341796875 1338.461547851563 969.059326171875 1336.606689453125 970.5194091796875 1334.562622070313 C 971.1239013671875 1333.716430664063 972.0849609375 1332.042846679688 972.8040771484375 1330.111938476563 C 973.5673828125 1328.062133789063 973.61083984375 1326.910400390625 973.5623779296875 1326.62841796875 C 973.443359375 1326.173461914063 973.0712890625 1325.373168945313 972.6776123046875 1324.5263671875 C 971.931884765625 1322.922241210938 970.9105224609375 1320.725463867188 970.0645751953125 1317.730346679688 C 969.08837890625 1314.273803710938 968.545166015625 1310.499633789063 968.4036865234375 1306.192016601563 C 968.2882080078125 1302.665283203125 968.8782958984375 1299.334350585938 970.15771484375 1296.291259765625 C 971.244873046875 1293.705200195313 972.82666015625 1291.334228515625 974.8588256835938 1289.243896484375 C 977.7720947265625 1286.247436523438 981.0362548828125 1284.43017578125 983.2142333984375 1283.446655273438 C 983.3397827148438 1283.024658203125 983.4714965820313 1282.387573242188 983.537841796875 1281.4990234375 C 983.6337280273438 1280.215209960938 983.54052734375 1279.128784179688 983.5310668945313 1279.024169921875 C 983.48046875 1278.5634765625 983.498046875 1278.132446289063 983.5758666992188 1277.675048828125 C 983.8816528320313 1275.878784179688 985.0616455078125 1274.380737304688 986.8134155273438 1273.565063476563 C 987.4721069335938 1273.258422851563 988.228515625 1273.037353515625 989.1256713867188 1272.8896484375 C 990.205322265625 1272.711791992188 991.572509765625 1272.625366210938 993.3055419921875 1272.625366210938 Z"/>
      </g>
      <g id="路径_7691" data-name="路径 7691" class="cls-1">
        <path class="cls-10" d="M 983.7736206054688 1276.316528320313 L 983.0265502929688 1275.603149414063 C 981.8818969726563 1274.51025390625 981.5475463867188 1272.640869140625 981.8341064453125 1268.935791015625 C 981.9550170898438 1267.371948242188 982.1598510742188 1265.907348632813 982.2576904296875 1265.25439453125 C 982.2433471679688 1264.867919921875 982.3048706054688 1264.482666015625 982.439697265625 1264.119018554688 L 982.654052734375 1262.802001953125 L 983.3869018554688 1262.802001953125 C 983.9071044921875 1262.37109375 984.5978393554688 1262.053588867188 985.4744262695313 1261.840209960938 C 985.8443603515625 1261.750244140625 986.1852416992188 1261.69287109375 986.4249877929688 1261.658813476563 C 988.3316040039063 1261.031860351563 991.6751708984375 1260.714233398438 996.3746948242188 1260.714233398438 C 999.5773315429688 1260.714233398438 1003.101928710938 1260.873046875 1006.044738769531 1261.149780273438 C 1007.533020019531 1261.289794921875 1008.789184570313 1261.45166015625 1009.778442382813 1261.630981445313 C 1011.221130371094 1261.892578125 1012.053894042969 1262.179077148438 1012.652648925781 1262.620239257813 C 1012.817016601563 1262.7412109375 1012.997619628906 1262.881958007813 1013.179321289063 1263.045043945313 L 1014.015686035156 1263.045043945313 L 1014.42431640625 1265.04443359375 C 1014.436401367188 1265.103393554688 1014.721984863281 1266.507934570313 1014.941955566406 1268.21337890625 C 1015.264709472656 1270.7158203125 1015.279541015625 1272.53515625 1014.987365722656 1273.775268554688 L 1014.543334960938 1275.66015625 L 1012.607360839844 1275.701416015625 L 984.8063354492188 1276.29443359375 L 983.7736206054688 1276.316528320313 Z"/>
        <path class="cls-11" d="M 984.7529907226563 1273.795043945313 L 1012.554016113281 1273.202026367188 C 1013.081970214844 1270.961059570313 1011.974975585938 1265.545043945313 1011.974975585938 1265.545043945313 L 1011.960021972656 1265.545043945313 C 1011.906982421875 1265.301025390625 1011.685974121094 1265.012939453125 1011.169982910156 1264.633056640625 C 1010.138793945313 1263.87353515625 1002.841247558594 1263.214233398438 996.3746948242188 1263.214233398438 C 992.3689575195313 1263.214233398438 988.68212890625 1263.467163085938 987.0009765625 1264.10595703125 C 987.0009765625 1264.10595703125 984.4669799804688 1264.35498046875 984.781982421875 1265.302001953125 L 984.780029296875 1265.302001953125 C 984.780029296875 1265.302001953125 983.5800170898438 1272.675048828125 984.7529907226563 1273.795043945313 M 984.7528686523438 1278.795043945313 C 983.4682006835938 1278.795043945313 982.231201171875 1278.300415039063 981.300048828125 1277.411254882813 C 979.2682495117188 1275.471313476563 979.0476684570313 1272.54296875 979.341552734375 1268.742919921875 C 979.4564208984375 1267.257934570313 979.6437377929688 1265.855224609375 979.7546997070313 1265.092041015625 C 979.7640991210938 1264.066162109375 980.0636596679688 1263.054565429688 980.6393432617188 1262.167846679688 C 981.5214233398438 1260.809326171875 982.9492797851563 1259.8818359375 984.8832397460938 1259.4111328125 C 985.2286376953125 1259.3271484375 985.552734375 1259.265747070313 985.8223876953125 1259.221923828125 C 987.0487670898438 1258.834228515625 989.840576171875 1258.214233398438 996.3746948242188 1258.214233398438 C 999.6519165039063 1258.214233398438 1003.261840820313 1258.376953125 1006.27880859375 1258.660766601563 C 1011.277954101563 1259.130981445313 1012.945068359375 1259.730590820313 1014.135314941406 1260.607299804688 C 1014.594116210938 1260.945068359375 1015.837829589844 1261.860717773438 1016.518798828125 1263.457153320313 C 1016.675598144531 1263.798828125 1016.795776367188 1264.162475585938 1016.873718261719 1264.543823242188 C 1016.886474609375 1264.6064453125 1017.189819335938 1266.09814453125 1017.42138671875 1267.893676757813 C 1017.903442382813 1271.631103515625 1017.651916503906 1273.367553710938 1017.420776367188 1274.3486328125 C 1016.89794921875 1276.567749023438 1014.940063476563 1278.152221679688 1012.66064453125 1278.200927734375 L 984.859619140625 1278.7939453125 C 984.8240356445313 1278.794677734375 984.7883911132813 1278.795043945313 984.7528686523438 1278.795043945313 Z"/>
      </g>
    </g>
    <path id="路径_7692" data-name="路径 7692" class="cls-2" d="M988.505,1278.514s.65,6.223-1.855,8.926c-3.823,1.384-13.644,6.525-13.249,18.588s4.153,16.017,5.01,19.379-1.846,9.294-3.823,12.062-2.791,4.68-2.967,19.884-1.494,31.991,5.889,32.782,9.316-.791,9.316-2.109a7.849,7.849,0,0,0-.176-1.934s.7,7.471,15.556,6.064c8-2.372,7.47-4.218,7.646-4.482s6.064,8.086,14.765-1.406c3.955-9.58,2.373-45.179-6.064-50.845-2.11-8.566-3.6-6.1,2.724-20.519,1.143-6.679,2.285-21.444-11.6-27.244-2.021-4.483-1.7-8.537-1.311-8.751S988.865,1276.4,988.505,1278.514Z"/>
    <path id="路径_7693" data-name="路径 7693" class="cls-3" d="M984.753,1273.8s-1.662,3.295,1.04,4.284,26.585,1.582,26.9,0,.648-4.878-.143-4.878S984.753,1273.8,984.753,1273.8Z"/>
    <path id="路径_7694" data-name="路径 7694" class="cls-4" d="M984.78,1265.3s-1.2,7.373-.027,8.494,27.274,1.647,27.8-.594-.579-7.657-.579-7.657Z"/>
    <path id="路径_7695" data-name="路径 7695" class="cls-3" d="M987,1264.106s-4.482.439-.79,2.373,24.7,1.582,24.959.615,1.67-1.23,0-2.461S991.4,1262.436,987,1264.106Z"/>
    <path id="路径_7696" data-name="路径 7696" class="cls-5" d="M976.437,1295.174a118.7,118.7,0,0,0,41.761-.817c3.079,4.2,7.818,16.449-.879,30.275a14.111,14.111,0,0,0-.454,4.6c.1.476-35.182-1.925-38.807.882.5-2.737.746-3.154-1.253-8.578S969.651,1303.919,976.437,1295.174Z"/>
    <path id="路径_7697" data-name="路径 7697" class="cls-6" d="M974.9,1297.582s13.683,5.4,45.08,0c2.3,7,4.707,15.819-2.184,25.645a18,18,0,0,0-.922,3.158c-.116.872-33.314-2.04-38.493.6.029-1.578-.3-1.842-2.806-8.038S970.929,1300.21,974.9,1297.582Z"/>
    <path id="路径_7698" data-name="路径 7698" class="cls-7" d="M1005.61,1320.784s-3.433-1.039-3.839-.4.706,1.854,2.257,1.914,5.353.637,7.154,0,.927-1.055.927-1.055a6.725,6.725,0,0,0,1.164.825c.175,0,2.439-.116,3.427-.987a17.62,17.62,0,0,0,2.383-3.428s-.372-1.1-2.452,0S1005.61,1320.784,1005.61,1320.784Z"/>
    <path id="路径_7699" data-name="路径 7699" class="cls-8" d="M1016.046,1313.575s2.646,6.106-2.707,7.384-7.37,1.394-10.137-3.021"/>
    <path id="路径_7700" data-name="路径 7700" class="cls-9" d="M1003.688,1316.311a14.23,14.23,0,0,1,9.651-3.95c5.918,0,.689,5.345-1.518,5.809S1001.1,1320.873,1003.688,1316.311Z"/>
    <path id="路径_7701" data-name="路径 7701" class="cls-6" d="M1008.7,1315.834a2.236,2.236,0,0,1,1.516-.621c.93,0,.108.84-.238.913S1008.293,1316.55,1008.7,1315.834Z"/>
    <path id="路径_7702" data-name="路径 7702" class="cls-4" d="M979.418,1305.336s15.819,3.955,31.837,0a5.017,5.017,0,0,1,0,3.471c-.176.791-17.534,5.976-31.837,0C977.594,1307.313,979.418,1305.336,979.418,1305.336Z"/>
    <path id="路径_7703" data-name="路径 7703" class="cls-4" d="M980.621,1315.158s-.365,4.21.641,5.185a4.95,4.95,0,0,0,4.275.892,11.982,11.982,0,0,0,2.179-1.509v-4.568S980.685,1313.524,980.621,1315.158Z"/>
    <path id="路径_7704" data-name="路径 7704" class="cls-4" d="M989.8,1315.29s-.407,4.7.715,5.786a5.522,5.522,0,0,0,4.77.995,13.362,13.362,0,0,0,2.432-1.683v-5.1S989.872,1313.467,989.8,1315.29Z"/>
  </g>
</svg>
