<svg xmlns="http://www.w3.org/2000/svg" width="160.479" height="150.562" viewBox="0 0 160.479 150.562">
  <defs>
    <style>
      .cls-1, .cls-10 {
        fill: #fff;
      }

      .cls-1 {
        stroke-linejoin: round;
      }

      .cls-2 {
        fill: #b6e2ff;
      }

      .cls-3 {
        fill: #83c7ff;
      }

      .cls-4 {
        fill: #aad2e8;
      }

      .cls-5 {
        fill: #6bbbe8;
      }

      .cls-6 {
        fill: #d7f1ff;
      }

      .cls-7 {
        fill: #68eae0;
      }

      .cls-8 {
        fill: #5cd6ca;
      }

      .cls-10, .cls-9 {
        stroke: none;
      }
    </style>
  </defs>
  <g id="组_3065" data-name="组 3065" transform="translate(-1724.451 -1254.097)">
    <g id="路径_7422" data-name="路径 7422" class="cls-1">
      <path class="cls-9" d="M 1798.748046875 1402.159057617188 L 1798.648193359375 1402.159057617188 L 1798.548583984375 1402.151123046875 C 1796.748291015625 1402.006958007813 1795.314208984375 1401.59375 1794.164428710938 1400.887817382813 C 1792.936157226563 1400.133544921875 1792.021118164063 1399.031860351563 1791.44482421875 1397.613403320313 C 1790.5 1395.288208007813 1790.5 1392.19580078125 1790.5 1388.614990234375 C 1790.5 1388.129760742188 1790.483154296875 1387.667602539063 1790.449584960938 1387.229858398438 L 1779.355834960938 1390.30517578125 L 1779.001831054688 1390.403198242188 L 1778.634643554688 1390.395385742188 C 1778.250366210938 1390.38720703125 1774.822143554688 1390.247192382813 1772.815795898438 1387.887451171875 C 1772.177001953125 1387.13623046875 1771.484741210938 1385.921630859375 1771.461059570313 1384.172241210938 C 1771.356323242188 1384.015380859375 1771.245361328125 1383.84375 1771.125122070313 1383.6552734375 C 1770.69580078125 1382.982055664063 1770.1171875 1382.027709960938 1769.405395507813 1380.819091796875 C 1767.984375 1378.406005859375 1766.074340820313 1375.050537109375 1763.881713867188 1371.11572265625 C 1758.874755859375 1362.130249023438 1753.101318359375 1351.396850585938 1748.041748046875 1341.667724609375 C 1741.699829101563 1329.47265625 1736.475830078125 1318.861572265625 1732.934448242188 1310.981811523438 C 1730.843383789063 1306.32861328125 1729.2861328125 1302.515380859375 1728.30615234375 1299.64794921875 C 1726.985961914063 1295.785034179688 1726.664794921875 1293.600708007813 1727.19775390625 1292.10888671875 C 1728.355590820313 1288.867431640625 1730.495239257813 1286.430053710938 1733.385498046875 1285.060546875 C 1735.576049804688 1284.022583007813 1737.617309570313 1283.854125976563 1738.66845703125 1283.849243164063 L 1826.862670898438 1256.708618164063 L 1828.798217773438 1256.112915039063 L 1829.78271484375 1257.882568359375 L 1879.12060546875 1346.565795898438 C 1880.31103515625 1347.58154296875 1880.98291015625 1348.945556640625 1881.0283203125 1350.46630859375 C 1881.06396484375 1351.660522460938 1880.7001953125 1352.5615234375 1880.587890625 1352.809326171875 L 1880.523315429688 1352.951904296875 L 1880.469116210938 1353.039428710938 C 1880.421264648438 1353.12744140625 1880.0791015625 1353.775268554688 1879.965698242188 1354.543579101563 C 1879.92822265625 1354.79736328125 1879.92236328125 1355.01416015625 1879.93994140625 1355.201171875 L 1881.773071289063 1354.701904296875 L 1882.33203125 1357.275390625 C 1882.580200195313 1358.417724609375 1882.346923828125 1359.580444335938 1881.67529296875 1360.549560546875 C 1880.897094726563 1361.672607421875 1879.592529296875 1362.513305664063 1877.687255859375 1363.119873046875 C 1876.755615234375 1363.41650390625 1875.93115234375 1363.573364257813 1875.577270507813 1363.633178710938 L 1810.1572265625 1381.767578125 C 1810.430419921875 1383.424560546875 1810.583129882813 1385.29638671875 1810.599487304688 1387.24951171875 C 1811.272705078125 1389.26220703125 1814.140258789063 1390.951293945313 1814.9033203125 1391.306274414063 L 1819.918090820313 1393.638671875 L 1814.85400390625 1395.862060546875 C 1814.819213867188 1395.87744140625 1811.328735351563 1397.409057617188 1807.731689453125 1398.920776367188 C 1805.60791015625 1399.813354492188 1803.858764648438 1400.526123046875 1802.532836914063 1401.03955078125 C 1799.848388671875 1402.078735351563 1799.270874023438 1402.159057617188 1798.748046875 1402.159057617188 Z"/>
      <path class="cls-10" d="M 1798.748046875 1399.659057617188 C 1799.987060546875 1399.659057617188 1813.848999023438 1393.572998046875 1813.848999023438 1393.572998046875 C 1813.848999023438 1393.572998046875 1809.003051757813 1391.318969726563 1808.100952148438 1387.599975585938 C 1808.100952148438 1384.985961914063 1807.838989257813 1382.177001953125 1807.211059570313 1379.989990234375 L 1875.04296875 1361.18701171875 C 1875.04296875 1361.18701171875 1880.452026367188 1360.39794921875 1879.889038085938 1357.806030273438 L 1878.806030273438 1358.100952148438 C 1876.034057617188 1355.635009765625 1878.31103515625 1351.776977539063 1878.31103515625 1351.776977539063 C 1878.31103515625 1351.776977539063 1879.26904296875 1349.663940429688 1877.183959960938 1348.22705078125 L 1827.598022460938 1259.098022460938 L 1739.01904296875 1286.357055664063 C 1739.01904296875 1286.357055664063 1738.91064453125 1286.34912109375 1738.71630859375 1286.34912109375 C 1737.35546875 1286.34912109375 1731.771118164063 1286.737060546875 1729.552001953125 1292.949951171875 C 1727.015991210938 1300.048950195313 1772.489013671875 1382.54296875 1774.010986328125 1383.387939453125 C 1774.010986328125 1383.387939453125 1776.659057617188 1375.612060546875 1782.744995117188 1374.93603515625 L 1792.733032226563 1372.110961914063 C 1786.984008789063 1373.862060546875 1783.402954101563 1374.962036132813 1783.402954101563 1374.962036132813 C 1783.402954101563 1374.962036132813 1783.682006835938 1374.963989257813 1784.06103515625 1375.048950195313 C 1783.68505859375 1374.98095703125 1783.259033203125 1374.93603515625 1782.744995117188 1374.93603515625 C 1776.8759765625 1376.595947265625 1776.323974609375 1379.6689453125 1774.010986328125 1383.387939453125 C 1773.390991210938 1387.782958984375 1778.68798828125 1387.89599609375 1778.68798828125 1387.89599609375 L 1792.413940429688 1384.090942382813 C 1792.760009765625 1385.211059570313 1793 1386.675048828125 1793 1388.614990234375 C 1793 1395.827026367188 1793.113037109375 1399.2080078125 1798.748046875 1399.659057617188 M 1779.682006835938 1385.139038085938 C 1779.657958984375 1385.194946289063 1779.045043945313 1386.639038085938 1778.788940429688 1387.496948242188 C 1778.991943359375 1386.662963867188 1779.296020507813 1385.871948242188 1779.682006835938 1385.139038085938 M 1786.109008789063 1377.276977539063 C 1786.115966796875 1377.369018554688 1786.1259765625 1377.45703125 1786.125 1377.556030273438 L 1787.14404296875 1377.27099609375 C 1786.68505859375 1377.614013671875 1786.260986328125 1377.944946289063 1785.85498046875 1378.27001953125 C 1785.963012695313 1378.005004882813 1786.072021484375 1377.655029296875 1786.109008789063 1377.276977539063 M 1830.983032226563 1365.011962890625 C 1830.862060546875 1365.046020507813 1830.740966796875 1365.079956054688 1830.620971679688 1365.113037109375 L 1830.983032226563 1365.011962890625 M 1843.572998046875 1361.490966796875 C 1841.970947265625 1361.93896484375 1840.35205078125 1362.391967773438 1838.719970703125 1362.848022460938 L 1843.572998046875 1361.490966796875 M 1851.825073242188 1359.18359375 C 1852.287231445313 1359.054321289063 1852.746215820313 1358.925903320313 1853.201049804688 1358.798950195313 L 1851.825073242188 1359.18359375 C 1851.304809570313 1359.3291015625 1850.780517578125 1359.475830078125 1850.253051757813 1359.623046875 L 1851.825073242188 1359.18359375 M 1858.067626953125 1357.437744140625 C 1858.082763671875 1357.433471679688 1858.097900390625 1357.429321289063 1858.113037109375 1357.425048828125 L 1858.067626953125 1357.437744140625 C 1857.202026367188 1357.6796875 1856.315307617188 1357.928344726563 1855.416015625 1358.178955078125 L 1858.067626953125 1357.437744140625 M 1863.400390625 1355.946899414063 L 1863.775024414063 1355.842041015625 C 1863.65087890625 1355.876831054688 1863.526000976563 1355.911743164063 1863.400390625 1355.946899414063 L 1862.3349609375 1356.244995117188 C 1862.6943359375 1356.144165039063 1863.0498046875 1356.044921875 1863.400390625 1355.946899414063 M 1866.885986328125 1354.972045898438 L 1865.745971679688 1355.291015625 C 1866.133056640625 1355.182006835938 1866.512939453125 1355.076049804688 1866.885986328125 1354.972045898438 M 1868.997314453125 1354.38134765625 L 1870.340942382813 1354.005981445313 C 1869.909423828125 1354.126586914063 1869.459228515625 1354.252319335938 1868.997314453125 1354.38134765625 L 1868.530029296875 1354.511962890625 C 1868.686889648438 1354.468139648438 1868.8427734375 1354.424560546875 1868.997314453125 1354.38134765625 M 1875.734008789063 1352.498046875 C 1874.836059570313 1352.7490234375 1873.723999023438 1353.06005859375 1872.420043945313 1353.423950195313 L 1875.734008789063 1352.498046875 M 1877.068969726563 1352.1240234375 L 1876.567016601563 1352.265014648438 C 1876.748046875 1352.213989257813 1876.9150390625 1352.1669921875 1877.068969726563 1352.1240234375 M 1878.090087890625 1351.838745117188 C 1878.130126953125 1351.82763671875 1878.164428710938 1351.817993164063 1878.192993164063 1351.81005859375 L 1878.090087890625 1351.838745117188 C 1877.959350585938 1351.875366210938 1877.768188476563 1351.929077148438 1877.52001953125 1351.998046875 L 1878.090087890625 1351.838745117188 M 1798.748046875 1404.659057617188 C 1798.614868164063 1404.659057617188 1798.481811523438 1404.65380859375 1798.34912109375 1404.64306640625 C 1796.146606445313 1404.466796875 1794.349853515625 1403.935302734375 1792.856323242188 1403.018188476563 C 1791.1640625 1401.979125976563 1789.909912109375 1400.477294921875 1789.128662109375 1398.554565429688 C 1788.189086914063 1396.241943359375 1788.031616210938 1393.554443359375 1788.00537109375 1390.501708984375 L 1780.023681640625 1392.714233398438 C 1779.588623046875 1392.8349609375 1779.139282226563 1392.89599609375 1778.688110351563 1392.89599609375 C 1778.652465820313 1392.89599609375 1778.616943359375 1392.895629882813 1778.581298828125 1392.894897460938 C 1777.766723632813 1392.87744140625 1773.56884765625 1392.632446289063 1770.911254882813 1389.506958007813 C 1770.135620117188 1388.5947265625 1769.581665039063 1387.545654296875 1769.264770507813 1386.388549804688 C 1769.139526367188 1385.93115234375 1769.052856445313 1385.461059570313 1769.005004882813 1384.980102539063 C 1768.561157226563 1384.283325195313 1767.97119140625 1383.310302734375 1767.251220703125 1382.087646484375 C 1765.8203125 1379.65771484375 1763.89990234375 1376.284545898438 1761.697875976563 1372.332641601563 C 1756.679809570313 1363.3271484375 1750.893920898438 1352.570556640625 1745.82373046875 1342.821166992188 C 1739.460205078125 1330.584594726563 1734.214721679688 1319.929077148438 1730.654174804688 1312.006591796875 C 1728.531372070313 1307.282958984375 1726.945434570313 1303.39697265625 1725.940551757813 1300.456420898438 C 1724.399536132813 1295.947631835938 1724.091918945313 1293.371459960938 1724.843383789063 1291.267822265625 C 1726.22900390625 1287.388671875 1728.812744140625 1284.4609375 1732.31494140625 1282.80126953125 C 1734.691772460938 1281.675048828125 1736.92724609375 1281.40283203125 1738.267456054688 1281.35693359375 L 1826.12744140625 1254.319213867188 C 1826.614135742188 1254.16943359375 1827.109375 1254.097412109375 1827.597900390625 1254.097412109375 C 1829.375 1254.097412109375 1831.06689453125 1255.048706054688 1831.967407226563 1256.667236328125 L 1881.103271484375 1344.987182617188 C 1881.759643554688 1345.61376953125 1882.293334960938 1346.328247070313 1882.697021484375 1347.122314453125 C 1883.21337890625 1348.138427734375 1883.492797851563 1349.23828125 1883.527221679688 1350.3916015625 C 1883.576049804688 1352.03076171875 1883.107055664063 1353.295776367188 1882.8828125 1353.801391601563 C 1883.843139648438 1354.519287109375 1884.518310546875 1355.562622070313 1884.775146484375 1356.744750976563 C 1885.171997070313 1358.571655273438 1884.80078125 1360.428588867188 1883.730102539063 1361.973510742188 C 1882.640869140625 1363.54541015625 1880.862915039063 1364.732543945313 1878.445556640625 1365.502075195313 C 1877.473754882813 1365.8115234375 1876.607299804688 1365.989501953125 1876.12646484375 1366.0751953125 L 1812.916137695313 1383.59716796875 C 1813.022705078125 1384.707275390625 1813.073364257813 1385.765380859375 1813.092041015625 1386.703979492188 C 1813.277099609375 1387.0078125 1813.667358398438 1387.478637695313 1814.380004882813 1388.031982421875 C 1815.178955078125 1388.652465820313 1815.950805664063 1389.0361328125 1815.957763671875 1389.039428710938 C 1817.739013671875 1389.867919921875 1818.869995117188 1391.662719726563 1818.848754882813 1393.627075195313 C 1818.827392578125 1395.591552734375 1817.657836914063 1397.361450195313 1815.859008789063 1398.151123046875 C 1815.823974609375 1398.16650390625 1812.3154296875 1399.706176757813 1808.700317382813 1401.225463867188 C 1806.554809570313 1402.127197265625 1804.783447265625 1402.848999023438 1803.435424804688 1403.370849609375 C 1800.8232421875 1404.382202148438 1799.815673828125 1404.659057617188 1798.748046875 1404.659057617188 Z"/>
    </g>
    <path id="路径_7423" data-name="路径 7423" class="cls-2" d="M1739.019,1286.357a9.621,9.621,0,0,0-9.467,6.593c-2.536,7.1,42.937,89.593,44.459,90.438,0,0,2.648-7.776,8.734-8.452Z"/>
    <path id="路径_7424" data-name="路径 7424" class="cls-3" d="M1827.6,1259.1l-88.579,27.258,43.726,88.579,94.439-26.709Z"/>
    <path id="路径_7425" data-name="路径 7425" class="cls-4" d="M1778.688,1387.9s-5.3-.113-4.677-4.508c2.313-3.719,2.865-6.792,8.734-8.452,4.846,0,3.127,3.381,2.9,3.775S1779.73,1382.571,1778.688,1387.9Z"/>
    <path id="路径_7426" data-name="路径 7426" class="cls-5" d="M1786.125,1377.556l92.186-25.779a2.885,2.885,0,0,0-1.127-3.55c-2.085-1.437-93.781,26.735-93.781,26.735S1786.153,1374.978,1786.125,1377.556Z"/>
    <path id="路径_7427" data-name="路径 7427" class="cls-3" d="M1778.688,1387.9l96.355-26.709s5.409-.789,4.846-3.381l-100.2,27.321A21.776,21.776,0,0,0,1778.688,1387.9Z"/>
    <path id="路径_7428" data-name="路径 7428" class="cls-6" d="M1878.311,1351.777s-2.277,3.858.495,6.324l-99.119,27.026s1.151-3.154,7.457-7.856Z"/>
    <path id="路径_7429" data-name="路径 7429" class="cls-3" d="M1746.649,1301.814s-8.245.587-10.135,10.991c3.66,7.718,10.523,21.461,10.523,21.461s.782-13.2,9.06-13.312Z"/>
    <path id="路径_7430" data-name="路径 7430" class="cls-7" d="M1752.965,1300.049s8.959-3.8,7.945-11.579c0,0,45.135-17.243,53.418-17.75,0,0,3.55,7.692,13.608,6.339,4.987,1.606,11.241,19.525,11.748,22.4-.507.591-4.986,5.409.846,8.2.676,2.113.253,2.113-7.692,4.734s-62.124,19.017-63.307,17.242-3.043-7.269-8.368-6.762C1759.98,1320.5,1751.361,1300.9,1752.965,1300.049Z"/>
    <path id="路径_7431" data-name="路径 7431" class="cls-8" d="M1760.318,1301.064s-1.606.422-.845,3.127,5.663,15.721,7.269,14.707,5.832,1.268,5.916,5.24,60.6-15.89,60.856-16.735.676-.845-.38-2.62-2.62-4.142,1.479-7.565c1.437-1.226-6.508-15.538-10-16.045s-6.987-.507-9.466-4.621c-2.141-1.014-47.783,13.355-48.854,13.918s-1.465.564-1.634,1.8S1765.164,1297.514,1760.318,1301.064Z"/>
    <path id="路径_7432" data-name="路径 7432" class="cls-6" d="M1789.732,1380.613s3.268.789,3.268,8,.113,10.593,5.748,11.044c1.239,0,15.1-6.086,15.1-6.086s-4.846-2.254-5.748-5.973c0-5.522-1.149-11.946-4.508-11.438S1789.732,1380.613,1789.732,1380.613Z"/>
  </g>
</svg>
