<svg xmlns="http://www.w3.org/2000/svg" width="75.498" height="139.575" viewBox="0 0 75.498 139.575">
  <defs>
    <style>
      .cls-1, .cls-2 {
        fill: #e4f2f2;
      }

      .cls-1 {
        stroke-linejoin: round;
      }

      .cls-3 {
        fill: #79afd3;
      }

      .cls-4 {
        fill: #a5db6b;
      }

      .cls-5 {
        fill: #ceefa0;
      }

      .cls-6, .cls-7 {
        stroke: none;
      }

      .cls-7 {
        fill: #fff;
      }
    </style>
  </defs>
  <g id="组_3147" data-name="组 3147" transform="translate(-104.148 -1256.068)">
    <g id="路径_7888" data-name="路径 7888" class="cls-1">
      <path class="cls-6" d="M 146.4923706054688 1393.143432617188 C 137.5570068359375 1393.143432617188 130.2386322021484 1392.984130859375 124.7405090332031 1392.670043945313 C 121.2560348510742 1392.470947265625 118.4595947265625 1392.205078125 116.4288482666016 1391.8798828125 C 113.283088684082 1391.376098632813 111.74853515625 1390.716186523438 110.9556121826172 1389.5263671875 C 108.7697525024414 1386.248413085938 109.0016326904297 1384.185302734375 109.2258911132813 1382.190063476563 C 109.3001708984375 1381.529174804688 109.3769912719727 1380.845703125 109.3769912719727 1380.029052734375 C 109.3769912719727 1378.422241210938 108.7685546875 1372.64306640625 108.2317123413086 1367.544067382813 C 107.6286315917969 1361.815795898438 107.0589904785156 1356.405151367188 107.0589904785156 1354.536010742188 C 107.0589904785156 1354.229858398438 107.0365676879883 1353.172119140625 107.0055541992188 1351.708251953125 C 106.8498687744141 1344.36083984375 106.4362945556641 1324.843505859375 106.7830123901367 1306.00390625 C 106.9791946411133 1295.34521484375 107.3914337158203 1286.524169921875 108.0082931518555 1279.785888671875 C 108.840950012207 1270.690063476563 109.9272613525391 1266.67529296875 110.8412857055664 1264.629516601563 C 110.5955123901367 1263.725952148438 110.5949630737305 1262.673461914063 111.1051483154297 1261.653198242188 C 111.6571350097656 1260.54931640625 112.6747512817383 1259.734252929688 114.1297302246094 1259.23046875 C 115.4176712036133 1258.78466796875 117.079231262207 1258.567993164063 119.2093887329102 1258.567993164063 C 120.3659286499023 1258.567993164063 121.6787490844727 1258.634033203125 123.1114120483398 1258.764282226563 C 125.2030334472656 1258.954467773438 128.0840759277344 1259.046875 131.9191131591797 1259.046875 C 135.5978546142578 1259.046875 139.7924957275391 1258.962524414063 143.8490295410156 1258.880981445313 C 147.9894256591797 1258.797729492188 152.2707977294922 1258.711669921875 156.1082916259766 1258.711669921875 C 160.6310272216797 1258.711669921875 163.8871765136719 1258.828369140625 166.3555450439453 1259.0791015625 C 167.8757476806641 1259.233520507813 169.0751953125 1259.438232421875 170.0223846435547 1259.704956054688 C 170.9555358886719 1259.967651367188 172.2851257324219 1260.450561523438 173.054931640625 1261.604858398438 C 173.4528961181641 1262.201904296875 173.8552856445313 1263.086791992188 174.4045104980469 1267.306640625 C 174.7449188232422 1269.921875 175.0970306396484 1273.528442382813 175.4227905273438 1277.736206054688 C 176.1357269287109 1286.944946289063 176.6782989501953 1298.19970703125 176.9505157470703 1309.42724609375 C 177.2716674804688 1322.672485351563 177.1960144042969 1335.22216796875 176.731689453125 1345.7197265625 C 176.1769714355469 1358.26123046875 175.0814361572266 1367.95458984375 173.4750061035156 1374.5390625 L 173.4750061035156 1385.822998046875 C 173.4750061035156 1388.234252929688 172.3375854492188 1390.273071289063 170.2722930908203 1391.56396484375 C 168.8548583984375 1392.449829101563 166.9991455078125 1392.9580078125 165.1809844970703 1392.9580078125 C 164.9820098876953 1392.9580078125 164.3273162841797 1392.968872070313 163.4211883544922 1392.984008789063 C 160.3111267089844 1393.035766601563 153.8395843505859 1393.143432617188 146.4923706054688 1393.143432617188 Z"/>
      <path class="cls-7" d="M 119.2093963623047 1261.067993164063 C 110.8689575195313 1261.067993164063 113.614990234375 1264.72998046875 113.614990234375 1264.72998046875 C 107.2420196533203 1274.579956054688 109.5589904785156 1351.058959960938 109.5589904785156 1354.536010742188 C 109.5589904785156 1358.011962890625 111.8769989013672 1376.552978515625 111.8769989013672 1380.029052734375 C 111.8769989013672 1383.505004882813 110.7179870605469 1384.663940429688 113.0360107421875 1388.140014648438 C 114.4262847900391 1390.226318359375 132.0860290527344 1390.643432617188 146.4925079345703 1390.643432617188 C 156.0953521728516 1390.643432617188 164.2538757324219 1390.4580078125 165.1809997558594 1390.4580078125 C 167.4989929199219 1390.4580078125 170.9750061035156 1389.298950195313 170.9750061035156 1385.822998046875 L 170.9750061035156 1374.234985351563 C 177.9279937744141 1346.423950195313 173.2920227050781 1266.468017578125 170.9750061035156 1262.991943359375 C 170.022705078125 1261.56396484375 163.8907470703125 1261.211547851563 156.1082916259766 1261.211669921875 C 148.5200805664063 1261.211669921875 139.3626708984375 1261.546875 131.9190826416016 1261.546875 C 128.4144897460938 1261.546875 125.2890777587891 1261.47265625 122.885009765625 1261.254028320313 C 121.4683532714844 1261.125244140625 120.2523040771484 1261.067993164063 119.2093963623047 1261.067993164063 M 119.2093811035156 1256.067993164063 C 120.4413299560547 1256.067993164063 121.8303527832031 1256.137451171875 123.3378601074219 1256.274536132813 C 125.3532409667969 1256.457763671875 128.1602172851563 1256.546875 131.9190979003906 1256.546875 C 135.5733489990234 1256.546875 139.7559967041016 1256.462768554688 143.8009033203125 1256.381469726563 C 147.9529266357422 1256.297973632813 152.2463073730469 1256.211669921875 156.1082458496094 1256.211669921875 C 160.7172241210938 1256.211547851563 164.0536499023438 1256.332397460938 166.6081848144531 1256.591796875 C 168.2737426757813 1256.760986328125 169.6122131347656 1256.9921875 170.7001037597656 1257.298461914063 C 172.7613220214844 1257.879028320313 174.2119445800781 1258.833862304688 175.1348571777344 1260.217895507813 C 175.8505249023438 1261.29150390625 176.3172302246094 1262.63232421875 176.8836059570313 1266.98388671875 C 177.2295227050781 1269.6416015625 177.5862731933594 1273.29296875 177.9153442382813 1277.543212890625 C 178.6315765380859 1286.794555664063 179.176513671875 1298.096313476563 179.4497833251953 1309.36669921875 C 179.8704528808594 1326.715576171875 179.9687805175781 1358.0927734375 175.9750061035156 1374.836303710938 L 175.9750061035156 1385.822998046875 C 175.9750061035156 1387.569213867188 175.5365142822266 1389.178100585938 174.6716766357422 1390.605102539063 C 173.9225158691406 1391.84130859375 172.8881530761719 1392.877075195313 171.5973510742188 1393.683959960938 C 169.1277008056641 1395.2275390625 166.5172424316406 1395.4580078125 165.1809997558594 1395.4580078125 C 165.0028076171875 1395.4580078125 164.2891540527344 1395.469848632813 163.4627990722656 1395.483642578125 C 160.3460388183594 1395.535522460938 153.8605346679688 1395.643432617188 146.4925079345703 1395.643432617188 C 137.5097808837891 1395.643432617188 130.1433868408203 1395.482788085938 124.5979766845703 1395.165893554688 C 120.9789123535156 1394.959106445313 118.1774444580078 1394.691772460938 116.0335540771484 1394.348388671875 C 112.7619781494141 1393.824462890625 110.2926330566406 1393.039672851563 108.8752136230469 1390.912719726563 C 107.6963195800781 1389.144897460938 107.0160369873047 1387.547607421875 106.7352142333984 1385.88720703125 C 106.4704895019531 1384.322143554688 106.6144866943359 1383.041137695313 106.7415313720703 1381.910888671875 C 106.8112030029297 1381.291015625 106.8769989013672 1380.705688476563 106.8769989013672 1380.029052734375 C 106.8769989013672 1378.553466796875 106.2495880126953 1372.59423828125 105.7454528808594 1367.805786132813 C 105.0072479248047 1360.7939453125 104.5589904785156 1356.40185546875 104.5589904785156 1354.536010742188 C 104.5589904785156 1354.25634765625 104.5356597900391 1353.1552734375 104.5061187744141 1351.76123046875 C 104.3501434326172 1344.400268554688 103.9358062744141 1324.847045898438 104.283447265625 1305.957885742188 C 104.4807434082031 1295.23876953125 104.8963317871094 1286.356567382813 105.5187072753906 1279.557983398438 C 106.2845611572266 1271.19189453125 107.2869262695313 1266.865112304688 108.246826171875 1264.36572265625 C 108.0818328857422 1263.161743164063 108.218017578125 1261.837036132813 108.8691101074219 1260.535034179688 C 109.4564514160156 1259.360473632813 110.7040100097656 1257.770874023438 113.3119354248047 1256.868041992188 C 114.8672180175781 1256.329711914063 116.7962799072266 1256.067993164063 119.2093811035156 1256.067993164063 Z"/>
    </g>
    <path id="路径_7889" data-name="路径 7889" class="cls-2" d="M113.615,1264.73s-3.476-4.635,9.27-3.476,45.772-1.738,48.09,1.738,6.953,83.432,0,111.243v11.588c0,3.476-3.476,4.635-5.794,4.635s-49.828,1.159-52.145-2.318-1.159-4.635-1.159-8.111-2.318-22.017-2.318-25.493S107.242,1274.58,113.615,1264.73Z"/>
    <path id="路径_7890" data-name="路径 7890" class="cls-3" d="M112.611,1267.041s13.171,15.65,15.489,21.444,1.159,60.257,0,63.733-13.905,4.635-15.064,4.635-3.477-2.317-3.477-2.317S107.552,1280.361,112.611,1267.041Z"/>
    <path id="路径_7891" data-name="路径 7891" class="cls-3" d="M126.066,1276.786s.888-2.169,2.268-2.071,4.241-.3,5.523,0,1.972,2.469,1.676,3.455-.394,3.846-.591,5.326-4.893.986-5.5.69a12.9,12.9,0,0,1-3.372-2.959C125.573,1280.337,126.066,1276.786,126.066,1276.786Z"/>
    <path id="路径_7892" data-name="路径 7892" class="cls-3" d="M137.6,1276.293s-1.084-.789,1.381-1.183,6.509-.923,7.1-.511,1.183,7.513.493,8.8-7.2,1.434-7.791,1.111S136.914,1276.589,137.6,1276.293Z"/>
    <path id="路径_7893" data-name="路径 7893" class="cls-3" d="M131.407,1287.187s-2.516-.4,3.2-.6,15.094-.467,16.466-.258,2.745,3.8,1.144,4.453-16.695.726-18.068.563S129.806,1287.337,131.407,1287.187Z"/>
    <path id="路径_7894" data-name="路径 7894" class="cls-3" d="M149.762,1275.9s-.9-.884,1.363-1.052,5.96-.327,6.452.137.313,7.583-.438,8.8-6.633.773-7.134.4S149.11,1276.132,149.762,1275.9Z"/>
    <path id="路径_7895" data-name="路径 7895" class="cls-4" d="M165.8,1261.538s-11.314-.432-7.943,2.526a26.034,26.034,0,0,0,7.943,4.734c.6.148,1.641.444.6,1.923s-4.142,2.871-3.4,3.729,1.331,4.259,1.331,4.259l-.739,3.4s-4.29-.538-4.438,2.393,2.219,5.139,3.55,4.332,4.139-.66,4.139-.66l-.736,3.242s-2.219,1.492-2.219,2.527,2.955,1.48,2.955,1.48l2.814,1.775s0,5.177.74,5.621,3.862,0,3.862,0-1.076-36.021-3.283-39.83A23.335,23.335,0,0,0,165.8,1261.538Z"/>
    <ellipse id="椭圆_1164" data-name="椭圆 1164" class="cls-5" cx="7.251" cy="12.327" rx="7.251" ry="12.327" transform="translate(157.225 1334.282)"/>
    <path id="路径_7896" data-name="路径 7896" class="cls-3" d="M132.091,1304.3h3.5v48.916s-1.546,3.131-2.68,1.269S132.091,1304.3,132.091,1304.3Z"/>
    <path id="路径_7897" data-name="路径 7897" class="cls-3" d="M120.839,1382.021s1.184-.784,4.339-.98,33.926-.393,34.912,0a3.118,3.118,0,0,1,1.38,3.727c-.591,1.569-35.7,1.373-37.87.98S120.839,1382.021,120.839,1382.021Z"/>
  </g>
</svg>
