<svg xmlns="http://www.w3.org/2000/svg" width="45.31" height="133.165" viewBox="0 0 45.31 133.165">
  <defs>
    <style>
      .cls-1 {
        fill: #ce140b;
      }

      .cls-2 {
        fill: #eee;
      }

      .cls-3 {
        fill: #271815;
      }

      .cls-4 {
        fill: #e72f32;
      }

      .cls-5 {
        fill: #fcc;
      }
    </style>
  </defs>
  <g id="组_3120" data-name="组 3120" transform="translate(-868.684 -1088.869)">
    <path id="路径_7651" data-name="路径 7651" class="cls-1" d="M881.63,1089.872s-3.448,5.881,1.42,8.924c0,0,16.935.1,17.645,0s5.983-1.623,3.549-6.389-4.158-3.245-6.9-3.245S882.367,1088.155,881.63,1089.872Z"/>
    <path id="路径_7652" data-name="路径 7652" class="cls-2" d="M872.1,1138.751s38.129.2,38.535,0-7.91-13.386-9.938-39.955H883.05S885.619,1112.249,872.1,1138.751Z"/>
    <path id="路径_7653" data-name="路径 7653" class="cls-3" d="M872.1,1138.751s-2.3,2.569-2.3,4.462.946,34.479,3.516,43.808-4.327,19.606-4.327,23.257c0,0-2.132,10.512,4.9,11.222s35.021.507,35.021.507,6.592-1.724,4.766-11.256c-1.217-5.679-5.042-9.4-3.028-30.359s3.1-40.019-.014-41.641S872.1,1138.751,872.1,1138.751Z"/>
    <path id="路径_7654" data-name="路径 7654" class="cls-4" d="M869.819,1144.291s37.929-2.3,42.549,0c.172,2.982.29,23.124-.655,23.936s-40.613,1.792-40.737,0S869.819,1144.291,869.819,1144.291Z"/>
    <path id="路径_7655" data-name="路径 7655" class="cls-3" d="M875.207,1152.272s-2.028,4.056,0,6.22,30.558-1.082,31.64,0,1.623-5.274,1.217-6.22S878.182,1154.841,875.207,1152.272Z"/>
    <path id="路径_7656" data-name="路径 7656" class="cls-5" d="M883.05,1098.8v4.868h18.1l-.456-4.868Z"/>
    <ellipse id="椭圆_1157" data-name="椭圆 1157" class="cls-2" cx="11.29" cy="5.798" rx="11.29" ry="5.798" transform="translate(879.669 1149.162)"/>
  </g>
</svg>
