<svg xmlns="http://www.w3.org/2000/svg" width="111.07" height="111.07" viewBox="0 0 111.07 111.07">
  <defs>
    <style>
      .cls-1 {
        fill: #de4f4b;
      }

      .cls-2 {
        fill: #faac14;
      }
    </style>
  </defs>
  <g id="组_3101" data-name="组 3101" transform="translate(-1304.145 -1071.634)">
    <circle id="椭圆_1096" data-name="椭圆 1096" class="cls-1" cx="55.535" cy="55.535" r="55.535" transform="translate(1304.145 1071.634)"/>
    <path id="路径_7546" data-name="路径 7546" class="cls-2" d="M1347.573,1113.626l-7.309,14.7a5.531,5.531,0,0,0,1.081,6.413l11.72,11.493a5.534,5.534,0,0,0,6.434.955l14.552-7.6a5.533,5.533,0,0,0,2.9-5.824l-2.727-16.187a5.532,5.532,0,0,0-4.644-4.554l-16.238-2.408A5.531,5.531,0,0,0,1347.573,1113.626Z"/>
    <path id="路径_7547" data-name="路径 7547" class="cls-2" d="M1315.906,1092.975a3.811,3.811,0,0,0,1.595.318l18.877-.422a3.835,3.835,0,0,0,3.587-2.731l4.995-16.63A55.567,55.567,0,0,0,1315.906,1092.975Z"/>
    <path id="路径_7548" data-name="路径 7548" class="cls-2" d="M1368.5,1182a3.812,3.812,0,0,0-.947-1.321l-14.08-12.581a3.837,3.837,0,0,0-4.486-.455l-15,8.739A55.559,55.559,0,0,0,1368.5,1182Z"/>
    <path id="路径_7549" data-name="路径 7549" class="cls-2" d="M1311.453,1154.631a3.81,3.81,0,0,0,.9-1.352l6.819-17.607a3.836,3.836,0,0,0-1.154-4.359l-13.462-10.967A55.566,55.566,0,0,0,1311.453,1154.631Z"/>
    <path id="路径_7550" data-name="路径 7550" class="cls-2" d="M1384.893,1077.68a3.807,3.807,0,0,0-.011,1.626l3.988,18.456a3.835,3.835,0,0,0,3.361,3.006l17.274,1.757A55.569,55.569,0,0,0,1384.893,1077.68Z"/>
    <path id="路径_7551" data-name="路径 7551" class="cls-2" d="M1412.97,1142.869a3.812,3.812,0,0,0-1.6.287l-17.413,7.3a3.836,3.836,0,0,0-2.339,3.854l1.439,17.3A55.57,55.57,0,0,0,1412.97,1142.869Z"/>
  </g>
</svg>
