<svg xmlns="http://www.w3.org/2000/svg" width="82.343" height="38.039" viewBox="0 0 82.343 38.039">
  <defs>
    <style>
      .cls-1 {
        fill: #02acc4;
      }

      .cls-2 {
        fill: #1dd2ed;
      }

      .cls-3 {
        fill: #fff;
      }
    </style>
  </defs>
  <g id="组_4934" data-name="组 4934" transform="translate(-549.229 -288.647)">
    <rect id="矩形_2351" data-name="矩形 2351" class="cls-1" width="82.343" height="34.544" rx="12.59" transform="translate(549.229 292.142)"/>
    <rect id="矩形_2352" data-name="矩形 2352" class="cls-2" width="82.343" height="34.544" rx="12.59" transform="translate(549.229 288.647)"/>
    <ellipse id="椭圆_2519" data-name="椭圆 2519" class="cls-3" cx="3.34" cy="2.446" rx="3.34" ry="2.446" transform="matrix(0.908, -0.418, 0.418, 0.908, 553.884, 295.282)"/>
    <path id="路径_26421" data-name="路径 26421" class="cls-3" d="M.678.3V0a9.519,9.519,0,0,0,3.03-1.205,6.219,6.219,0,0,0,1.97-1.97,7.875,7.875,0,0,0,1.017-2.7A6.486,6.486,0,0,1,5.559-5.4a3.549,3.549,0,0,1-.985.135A3.6,3.6,0,0,1,1.814-6.458,4.637,4.637,0,0,1,.71-9.73a5.846,5.846,0,0,1,.6-2.642,4.4,4.4,0,0,1,1.706-1.862,4.432,4.432,0,0,1,2.3-.662,4.41,4.41,0,0,1,2.422.732,5.1,5.1,0,0,1,1.819,2.12,7.12,7.12,0,0,1,.678,3.164,9.4,9.4,0,0,1-1.1,4.413A8.372,8.372,0,0,1,5.844-1.082,10.867,10.867,0,0,1,.678.3ZM6.856-6.781q.108-1.205.108-2.12a14.079,14.079,0,0,0-.452-3.649,2.749,2.749,0,0,0-.764-1.378,1.02,1.02,0,0,0-.7-.237.949.949,0,0,0-.84.463,4.8,4.8,0,0,0-.42,2.422A8.355,8.355,0,0,0,4.5-7.168a1.416,1.416,0,0,0,1.249.732A2.673,2.673,0,0,0,6.856-6.781Zm12-10.279H36.25v2.928H18.857Zm16.36,13q2,.753,3.014,1.076Q37.821-.926,37.45.355a2.735,2.735,0,0,1-1.259,1.76,4.333,4.333,0,0,1-2.158.457H31.945q-3.423,0-3.423-3.25V-7.8H25.433q-.312,7.739-6.318,10.72Q18.3,1.948,16.833.377A8.921,8.921,0,0,0,22.365-7.8H17.092v-2.971H38.015V-7.8H31.643v6.049q0,1.55,1.313,1.55h.71A.971.971,0,0,0,34.6-.748,14.43,14.43,0,0,0,35.216-4.058Z" transform="translate(571.137 314.035)"/>
  </g>
</svg>
