<svg xmlns="http://www.w3.org/2000/svg" width="179.711" height="134.848" viewBox="0 0 179.711 134.848">
  <defs>
    <style>
      .cls-1, .cls-6 {
        fill: #fff;
      }

      .cls-1 {
        stroke-linejoin: round;
      }

      .cls-2 {
        fill: #33aa63;
      }

      .cls-3 {
        fill: #b2b2b2;
      }

      .cls-4 {
        fill: #e0e0e0;
      }

      .cls-5, .cls-6 {
        stroke: none;
      }
    </style>
  </defs>
  <g id="组_3049" data-name="组 3049" transform="translate(-660.468 -1261.935)">
    <g id="路径_7335" data-name="路径 7335" class="cls-1">
      <path class="cls-5" d="M 795.7588500976563 1394.2822265625 C 791.5791625976563 1394.2822265625 787.3873901367188 1393.256713867188 783.2999877929688 1391.234008789063 C 779.4205932617188 1389.314331054688 775.5055541992188 1386.427612304688 771.6636962890625 1382.654052734375 C 764.5098266601563 1375.62744140625 757.3548583984375 1365.391357421875 749.7927856445313 1351.364868164063 C 749.6414184570313 1351.133544921875 749.4902954101563 1350.903076171875 749.3397827148438 1350.673461914063 C 747.6060791015625 1348.028686523438 745.9684448242188 1345.530517578125 744.810302734375 1343.295166015625 C 743.281982421875 1340.345336914063 742.8056030273438 1338.2265625 743.2802124023438 1336.462524414063 C 739.3619384765625 1334.08154296875 734.1515502929688 1330.111694335938 727.4766845703125 1324.426147460938 C 718.5914306640625 1323.177368164063 705.1864013671875 1320.998657226563 693.3294677734375 1318.498657226563 C 686.8553466796875 1317.133544921875 681.4791259765625 1315.809448242188 677.3502197265625 1314.563110351563 C 671.2184448242188 1312.712036132813 668.90576171875 1311.351440429688 667.7807006835938 1310.435180664063 C 665.964111328125 1309.55810546875 664.6932373046875 1308.383422851563 663.9019165039063 1306.852661132813 C 663.0142211914063 1305.135375976563 662.7626953125 1303.012573242188 663.133056640625 1300.362915039063 L 663.5259399414063 1297.552001953125 L 666.2648315429688 1298.296508789063 C 666.297119140625 1298.305297851563 669.7288818359375 1299.224975585938 677.09033203125 1300.4755859375 C 682.865234375 1301.456787109375 692.13232421875 1302.817993164063 705.1019897460938 1304.094482421875 C 687.36328125 1287.230712890625 670.9752197265625 1270.297485351563 670.7955932617188 1270.111572265625 L 669.3589477539063 1268.62548828125 L 670.548583984375 1266.935180664063 C 671.3513793945313 1265.79443359375 672.8917846679688 1264.434692382813 675.671142578125 1264.434692382813 C 678.7814331054688 1264.434692382813 681.8885498046875 1266.213500976563 682.2326049804688 1266.416259765625 L 682.3102416992188 1266.462036132813 L 682.3843383789063 1266.513305664063 C 701.7308959960938 1279.883422851563 720.9769287109375 1295.02490234375 732.8869018554688 1306.231689453125 C 739.5215454101563 1306.617553710938 746.461669921875 1306.941162109375 753.5623168945313 1307.195678710938 C 753.6845092773438 1306.90478515625 753.8448486328125 1306.600219726563 754.0526123046875 1306.28564453125 C 755.1708374023438 1304.592651367188 757.350341796875 1303.08984375 760.7156982421875 1301.69140625 C 764.4703369140625 1300.130981445313 772.1258544921875 1297.101440429688 781.2103881835938 1294.344482421875 C 793.5947265625 1290.586181640625 804.1340942382813 1288.6806640625 812.5357666015625 1288.6806640625 C 818.1627807617188 1288.6806640625 822.872802734375 1289.556884765625 826.5349731445313 1291.28515625 L 826.7236328125 1291.374145507813 L 826.8949584960938 1291.493286132813 C 831.22412109375 1294.502685546875 834.5709838867188 1298.869018554688 836.3191528320313 1303.7880859375 C 837.2272338867188 1306.34326171875 837.6845703125 1308.976318359375 837.678466796875 1311.6142578125 C 837.6719360351563 1314.409057617188 837.1434936523438 1317.15380859375 836.1077880859375 1319.772583007813 C 835.3253173828125 1321.750854492188 834.2506713867188 1323.50146484375 832.9136352539063 1324.975830078125 C 831.50732421875 1326.526611328125 829.7614135742188 1327.827270507813 827.724365234375 1328.841552734375 C 823.6204223632813 1330.885131835938 818.2066650390625 1331.878540039063 811.1748657226563 1331.878540039063 C 811.1740112304688 1331.878540039063 811.1737060546875 1331.878540039063 811.1727905273438 1331.878540039063 C 804.7794189453125 1331.87841796875 797.1143188476563 1331.068481445313 787.7395629882813 1329.402465820313 L 787.6843872070313 1329.392700195313 L 787.629638671875 1329.38037109375 C 773.811279296875 1326.279663085938 766.0855102539063 1324.3125 761.796630859375 1322.802734375 C 759.61376953125 1322.034423828125 758.19287109375 1321.344604492188 757.1893920898438 1320.566162109375 C 755.9642333984375 1319.61572265625 755.4866333007813 1318.624877929688 755.1817626953125 1317.780395507813 C 752.7880249023438 1318.091796875 748.5528564453125 1318.956909179688 745.2249755859375 1321.330444335938 C 747.142822265625 1324.825317382813 749.1484375 1327.33154296875 750.5060424804688 1328.829956054688 C 751.1424560546875 1328.242797851563 752.0464477539063 1327.94580078125 753.2022094726563 1327.94580078125 C 753.914306640625 1327.94580078125 754.7759399414063 1328.048706054688 755.8363647460938 1328.260375976563 C 758.37939453125 1328.767700195313 763.9584350585938 1331.21435546875 767.0576782226563 1332.627563476563 C 772.6979370117188 1335.199584960938 778.9739379882813 1338.366821289063 784.7296142578125 1341.5458984375 C 791.7459716796875 1345.421264648438 797.6752319335938 1349.11865234375 802.3525390625 1352.535400390625 C 808.217529296875 1356.819580078125 811.820556640625 1360.442504882813 813.3675537109375 1363.611206054688 C 816.2409057617188 1369.496826171875 816.8401489257813 1374.538452148438 815.1995849609375 1379.0244140625 C 814.0994873046875 1382.032470703125 812.0321655273438 1384.73193359375 808.8795166015625 1387.276977539063 C 805.95751953125 1389.635986328125 802.10107421875 1391.857177734375 797.0899047851563 1394.0673828125 L 796.6242065429688 1394.272827148438 L 796.1151733398438 1394.27978515625 C 795.9954223632813 1394.281494140625 795.8784790039063 1394.2822265625 795.7588500976563 1394.2822265625 Z M 779.910888671875 1369.505126953125 C 786.1829833984375 1376.244262695313 792.0883178710938 1379.804809570313 796.9971923828125 1379.804809570313 C 800.2979736328125 1379.804809570313 802.4728393554688 1378.191772460938 803.716064453125 1376.838623046875 C 804.1871948242188 1376.325805664063 804.3901977539063 1374.138549804688 802.9293212890625 1370.452270507813 C 800.3656005859375 1363.983642578125 794.2276000976563 1356.757568359375 788.7467041015625 1356.288818359375 L 788.7182006835938 1356.288696289063 C 782.869140625 1356.288696289063 779.1285400390625 1357.513549804688 777.9008178710938 1359.830932617188 C 776.9344482421875 1361.654907226563 777.5007934570313 1364.143798828125 778.1461181640625 1365.910522460938 C 778.7865600585938 1367.6640625 779.6362915039063 1369.0712890625 779.910888671875 1369.505126953125 Z M 801.762451171875 1319.0947265625 C 805.7808837890625 1320.512939453125 809.9330444335938 1321.261352539063 813.7939453125 1321.261352539063 C 817.4340209960938 1321.261352539063 826.1397094726563 1320.506713867188 828.3558959960938 1313.516357421875 C 828.9186401367188 1311.741455078125 828.5014038085938 1309.881713867188 827.11572265625 1307.98876953125 C 824.0877685546875 1303.852294921875 817.355224609375 1300.85009765625 811.1070556640625 1300.85009765625 C 808.9207153320313 1300.85009765625 806.8840942382813 1301.204345703125 805.0490112304688 1301.9033203125 C 802.3331909179688 1303.723876953125 800.324462890625 1305.580810546875 799.076171875 1307.425170898438 C 798.097412109375 1308.871337890625 797.58984375 1310.3173828125 797.5675659179688 1311.723266601563 C 797.5081787109375 1315.464233398438 800.8402099609375 1318.364624023438 801.762451171875 1319.0947265625 Z"/>
      <path class="cls-6" d="M 675.671142578125 1266.934692382813 C 674.4815063476563 1266.934692382813 673.3493041992188 1267.299438476563 672.593017578125 1268.3740234375 C 672.593017578125 1268.3740234375 692.2869873046875 1288.745971679688 712.093994140625 1307.25 C 679.2449951171875 1304.416015625 665.6090087890625 1300.708984375 665.6090087890625 1300.708984375 C 664.9940185546875 1305.109008789063 666.4149780273438 1307.095947265625 669.14599609375 1308.31298828125 C 674.552978515625 1313.233032226563 709.8040161132813 1319.452026367188 728.5449829101563 1322.051025390625 C 736.0869750976563 1328.504028320313 742.7059936523438 1333.568969726563 747.02099609375 1335.678955078125 C 743.3270263671875 1337.219970703125 747.5390014648438 1343.35498046875 751.9429931640625 1350.0849609375 C 766.2150268554688 1376.583374023438 780.3257446289063 1391.7822265625 795.7588500976563 1391.7822265625 C 795.8670043945313 1391.7822265625 795.9727172851563 1391.781494140625 796.0809936523438 1391.780029296875 C 812.7540283203125 1384.426025390625 816.93798828125 1376.623046875 811.1209716796875 1364.7080078125 C 805.3040161132813 1352.79296875 761.9290161132813 1332.025024414063 755.3469848632813 1330.712036132813 C 754.36767578125 1330.5166015625 753.681884765625 1330.44580078125 753.2022094726563 1330.44580078125 C 751.947021484375 1330.44580078125 752.10302734375 1330.930053710938 752.10302734375 1330.930053710938 L 750.5349731445313 1332.39501953125 C 750.5349731445313 1332.39501953125 745.8770141601563 1328.427001953125 742.0759887695313 1320.691040039063 C 747.718017578125 1315.326049804688 756.9929809570313 1315.109985351563 756.9929809570313 1315.109985351563 L 756.97900390625 1315.04296875 C 757.1610107421875 1315.758056640625 757.3489990234375 1316.41796875 757.531982421875 1316.927978515625 C 758.3740234375 1319.264038085938 760.0609741210938 1320.631958007813 788.177001953125 1326.941040039063 C 797.5131225585938 1328.60009765625 805.0733642578125 1329.378540039063 811.1729125976563 1329.378540039063 C 824.8154907226563 1329.378540039063 831.1591186523438 1325.486938476563 833.7830200195313 1318.85302734375 C 837.5800170898438 1309.253051757813 833.239013671875 1298.947998046875 825.468017578125 1293.546020507813 C 821.9068603515625 1291.865478515625 817.4435424804688 1291.1806640625 812.5358276367188 1291.180541992188 C 793.2753295898438 1291.180053710938 767.1515502929688 1301.723999023438 761.6749877929688 1304 C 754.802001953125 1306.85595703125 755.7570190429688 1309.18505859375 755.7570190429688 1309.18505859375 C 755.7570190429688 1309.18505859375 755.7960205078125 1309.410034179688 755.8629760742188 1309.776977539063 C 747.1489868164063 1309.484985351563 739.1539916992188 1309.108032226563 731.8309936523438 1308.673950195313 C 720.322998046875 1297.734008789063 700.7999877929688 1282.279052734375 680.9630126953125 1268.569946289063 C 680.9630126953125 1268.569946289063 678.189208984375 1266.934692382813 675.671142578125 1266.934692382813 M 813.7938842773438 1323.761352539063 C 809.57373046875 1323.761352539063 805.0006103515625 1322.932739257813 800.5609741210938 1321.319946289063 C 800.5609741210938 1321.319946289063 786.2139892578125 1311.348022460938 803.8880004882813 1299.672973632813 C 806.1671752929688 1298.760131835938 808.628662109375 1298.35009765625 811.1070556640625 1298.35009765625 C 822.0213012695313 1298.35009765625 833.2661743164063 1306.301025390625 830.739013671875 1314.27197265625 C 828.6998291015625 1320.703857421875 821.8987426757813 1323.761352539063 813.7938842773438 1323.761352539063 M 796.9971923828125 1382.304809570313 C 792.1295166015625 1382.304809570313 785.7437133789063 1379.494140625 777.9320068359375 1371.047973632813 C 777.9320068359375 1371.047973632813 766.2156372070313 1353.788696289063 788.7182006835938 1353.788696289063 C 788.7622680664063 1353.788696289063 788.8026733398438 1353.788818359375 788.8469848632813 1353.788940429688 C 799.3829956054688 1354.56005859375 809.9099731445313 1373.7919921875 805.5570068359375 1378.530029296875 C 803.6522827148438 1380.603149414063 800.7840576171875 1382.304809570313 796.9971923828125 1382.304809570313 M 675.671142578125 1261.934692382813 C 679.3660888671875 1261.934692382813 682.8427734375 1263.873901367188 683.502197265625 1264.2626953125 C 683.6056518554688 1264.32373046875 683.7069091796875 1264.388427734375 683.8056640625 1264.456665039063 C 702.892333984375 1277.647216796875 721.8955688476563 1292.56640625 733.9347534179688 1303.787841796875 C 739.80615234375 1304.123046875 745.9105834960938 1304.409301757813 752.1491088867188 1304.642333984375 C 753.5843505859375 1302.634399414063 756.0775146484375 1300.911499023438 759.7564086914063 1299.3828125 C 763.553955078125 1297.804565429688 771.296875 1294.740356445313 780.4837036132813 1291.952270507813 C 793.1033325195313 1288.122436523438 803.8867797851563 1286.180541992188 812.5344848632813 1286.180541992188 C 818.5349731445313 1286.180786132813 823.6038818359375 1287.137451171875 827.6019287109375 1289.024169921875 C 827.8530883789063 1289.142700195313 828.0939331054688 1289.281982421875 828.3219604492188 1289.440551757813 C 833.0764770507813 1292.74560546875 836.753173828125 1297.543701171875 838.6748046875 1302.950927734375 C 839.6793212890625 1305.777465820313 840.1852416992188 1308.694213867188 840.1784057617188 1311.6201171875 C 840.1712036132813 1314.72900390625 839.5838012695313 1317.78125 838.4325561523438 1320.692016601563 C 836.5990600585938 1325.32763671875 833.3712158203125 1328.822509765625 828.838623046875 1331.079345703125 C 824.3801879882813 1333.29931640625 818.6016235351563 1334.378540039063 811.1728515625 1334.378540039063 C 804.6322021484375 1334.378540039063 796.8240356445313 1333.556030273438 787.3021240234375 1331.863891601563 C 787.228515625 1331.850830078125 787.1552124023438 1331.836059570313 787.082275390625 1331.819702148438 C 773.1631469726563 1328.6962890625 765.3528442382813 1326.704956054688 760.966552734375 1325.161010742188 C 758.5194091796875 1324.299560546875 756.8818969726563 1323.49169921875 755.6570434570313 1322.54150390625 C 754.8126220703125 1321.886474609375 754.2130737304688 1321.195556640625 753.7767944335938 1320.540649414063 C 753.4061279296875 1320.6142578125 753.0159912109375 1320.7001953125 752.6123046875 1320.800537109375 C 751.44970703125 1321.089599609375 750.0306396484375 1321.535766601563 748.6456298828125 1322.209716796875 C 749.5230712890625 1323.598999023438 750.3828125 1324.768188476563 751.14111328125 1325.71142578125 C 751.7353515625 1325.545166015625 752.41845703125 1325.44580078125 753.2022094726563 1325.44580078125 C 754.0805053710938 1325.44580078125 755.1021728515625 1325.564575195313 756.32568359375 1325.808715820313 C 758.97607421875 1326.33740234375 764.1888427734375 1328.57177734375 768.094970703125 1330.352905273438 C 773.7915649414063 1332.950561523438 780.12841796875 1336.1484375 785.9383544921875 1339.357543945313 C 793.0465087890625 1343.28369140625 799.065185546875 1347.0380859375 803.8271484375 1350.5166015625 C 810.0287475585938 1355.046630859375 813.88427734375 1358.97119140625 815.6140747070313 1362.514404296875 C 818.8015747070313 1369.043334960938 819.4340209960938 1374.724731445313 817.5474853515625 1379.883056640625 C 816.2871704101563 1383.329223632813 813.9655151367188 1386.384155273438 810.4498901367188 1389.222290039063 C 807.354248046875 1391.721435546875 803.3141479492188 1394.054443359375 798.0987548828125 1396.354736328125 C 797.4840087890625 1396.6259765625 796.8209228515625 1396.770385742188 796.1490478515625 1396.779541015625 C 796.0178833007813 1396.781372070313 795.8898315429688 1396.7822265625 795.7588500976563 1396.7822265625 C 791.191162109375 1396.7822265625 786.6263427734375 1395.66943359375 782.1912231445313 1393.474731445313 C 778.07421875 1391.4375 773.94287109375 1388.39697265625 769.911865234375 1384.437622070313 C 762.592529296875 1377.24853515625 755.3074340820313 1366.848266601563 747.6429443359375 1352.645263671875 C 747.5112915039063 1352.444213867188 747.3798828125 1352.24365234375 747.2489013671875 1352.043823242188 C 745.4791259765625 1349.344116210938 743.8074951171875 1346.794067382813 742.5905151367188 1344.445190429688 C 741.6019897460938 1342.537353515625 740.5750122070313 1340.1689453125 740.6060180664063 1337.730102539063 C 736.8670043945313 1335.301147460938 732.171875 1331.684936523438 726.40966796875 1326.800048828125 C 717.4886474609375 1325.530883789063 704.4158325195313 1323.39111328125 692.8136596679688 1320.94482421875 C 686.2702026367188 1319.565185546875 680.8245239257813 1318.223266601563 676.6277465820313 1316.956420898438 C 670.5079345703125 1315.109008789063 667.8690185546875 1313.663330078125 666.4310302734375 1312.555786132813 C 664.2716064453125 1311.454467773438 662.6757202148438 1309.924682617188 661.6810913085938 1308.000610351563 C 660.5476684570313 1305.80810546875 660.2127075195313 1303.196533203125 660.6571655273438 1300.016845703125 C 660.8562622070313 1298.592407226563 661.6530151367188 1297.321044921875 662.8545532226563 1296.530395507813 C 663.679443359375 1295.987670898438 664.634521484375 1295.7060546875 665.6009521484375 1295.7060546875 C 666.041259765625 1295.705932617188 666.4838256835938 1295.764404296875 666.9176635742188 1295.88330078125 C 667.0384521484375 1295.915405273438 670.447021484375 1296.815185546875 677.64501953125 1298.034057617188 C 682.2177734375 1298.808349609375 688.9990234375 1299.82275390625 698.09423828125 1300.843627929688 C 682.474853515625 1285.774536132813 669.16015625 1272.016845703125 668.9981689453125 1271.849243164063 C 667.3306884765625 1270.124389648438 667.1233520507813 1267.458251953125 668.5040893554688 1265.496337890625 C 670.1204833984375 1263.199584960938 672.6658325195313 1261.934692382813 675.671142578125 1261.934692382813 Z M 813.7938842773438 1318.761352539063 C 817.12548828125 1318.761352539063 820.0340576171875 1318.155029296875 822.2052001953125 1317.0078125 C 824.1622314453125 1315.973754882813 825.3945922851563 1314.584594726563 825.9728393554688 1312.760864257813 C 826.0877685546875 1312.398315429688 826.4376220703125 1311.294921875 825.098388671875 1309.465454101563 C 822.54638671875 1305.979125976563 816.5314331054688 1303.35009765625 811.1070556640625 1303.35009765625 C 809.3305053710938 1303.35009765625 807.681884765625 1303.616943359375 806.198486328125 1304.14404296875 C 802.26611328125 1306.829467773438 800.0935668945313 1309.529418945313 800.0670166015625 1311.7783203125 C 800.0400390625 1314.061157226563 802.1050415039063 1316.100952148438 803.0047607421875 1316.879516601563 C 806.6292724609375 1318.112182617188 810.3434448242188 1318.761352539063 813.7938842773438 1318.761352539063 Z M 801.5633544921875 1375.467407226563 C 801.5894165039063 1374.977172851563 801.495849609375 1373.86279296875 800.8785400390625 1372.104370117188 C 800.1434936523438 1370.010620117188 798.9134521484375 1367.711181640625 797.4150390625 1365.629638671875 C 795.9426879882813 1363.584228515625 794.2957763671875 1361.857421875 792.6522827148438 1360.635864257813 C 791.1947631835938 1359.552490234375 789.807373046875 1358.916381835938 788.6281127929688 1358.788818359375 C 783.2105102539063 1358.8017578125 780.6550903320313 1359.983154296875 780.1129150390625 1360.995727539063 C 779.7186279296875 1361.732055664063 779.83837890625 1363.184936523438 780.4332275390625 1364.882080078125 C 780.9248657226563 1366.28466796875 781.5935668945313 1367.463500976563 781.9061889648438 1367.978881835938 C 785.0953979492188 1371.380493164063 788.1491088867188 1373.898803710938 790.9873657226563 1375.467651367188 C 793.19287109375 1376.686767578125 795.2149047851563 1377.304809570313 796.9971923828125 1377.304809570313 C 798.7696533203125 1377.304809570313 800.3036499023438 1376.68701171875 801.5633544921875 1375.467407226563 Z"/>
    </g>
    <path id="路径_7336" data-name="路径 7336" class="cls-2" d="M811.121,1364.708c-5.817-11.914-49.192-32.683-55.774-34-3.542-.707-3.244.218-3.244.218l-5.082,4.749c-3.694,1.541.518,7.676,4.922,14.406,14.372,26.684,28.578,41.908,44.138,41.7C812.754,1384.426,816.938,1376.623,811.121,1364.708Zm-5.564,13.822c-4.353,4.738-13.736,7.535-27.625-7.482,0,0-11.766-17.325,10.915-17.259C799.383,1354.56,809.91,1373.792,805.557,1378.53Z"/>
    <path id="路径_7337" data-name="路径 7337" class="cls-2" d="M825.468,1293.546c-17.537-8.276-56.921,7.6-63.793,10.454s-5.918,5.185-5.918,5.185a66.871,66.871,0,0,0,1.775,7.743c.842,2.336,2.529,3.7,30.645,10.013,30.218,5.37,41.809,1.512,45.606-8.088S833.239,1298.948,825.468,1293.546Zm5.271,20.726c-3.1,9.781-17.212,11.758-30.178,7.048,0,0-14.347-9.972,3.327-21.647C816.2,1294.74,833.84,1304.491,830.739,1314.272Z"/>
    <path id="路径_7338" data-name="路径 7338" class="cls-3" d="M672.593,1268.374s56.674,58.626,74.428,67.3l3.514-3.284a39.1,39.1,0,0,1-8.7-12.2c-3.842-8.068-32.024-31.694-60.868-51.628C680.963,1268.57,674.95,1265.025,672.593,1268.374Z"/>
    <path id="路径_7339" data-name="路径 7339" class="cls-4" d="M665.609,1300.709s25.375,6.9,90.292,9.069l1.092,5.332s-12.069.279-17.047,8.164c-4.531.29-63.664-8.467-70.8-14.961C666.415,1307.1,664.994,1305.11,665.609,1300.709Z"/>
    <circle id="椭圆_995" data-name="椭圆 995" class="cls-3" cx="3.297" cy="3.297" r="3.297" transform="translate(727.869 1311.306)"/>
  </g>
</svg>
