<svg xmlns="http://www.w3.org/2000/svg" width="134.907" height="127.984" viewBox="0 0 134.907 127.984">
  <defs>
    <style>
      .cls-1 {
        fill: #ffb357;
      }

      .cls-2 {
        fill: #b2b2b2;
      }

      .cls-3 {
        fill: #dfdfdf;
      }

      .cls-4 {
        fill: none;
        stroke: #b2b2b2;
        stroke-linecap: round;
        stroke-linejoin: round;
        stroke-width: 0.562px;
      }

      .cls-5 {
        fill: #ff9d27;
      }

      .cls-6 {
        fill: #b77b3e;
      }
    </style>
  </defs>
  <g id="组_3055" data-name="组 3055" transform="translate(-1237.072 -1085.111)">
    <path id="路径_7368" data-name="路径 7368" class="cls-1" d="M1237.77,1118.218c7.6-6.084,35.38-28.763,44.665-32.947a1.844,1.844,0,0,1,1.525.01c9.693,4.386,74.345,41.514,87.066,48.659a1.866,1.866,0,0,1,.378,2.973l-45.879,43.365a1.867,1.867,0,0,1-2.364.184L1237.87,1121.2A1.865,1.865,0,0,1,1237.77,1118.218Z"/>
    <path id="路径_7369" data-name="路径 7369" class="cls-2" d="M1259.653,1116.527s22.388-16.073,24.4-15.786,72.9,35.878,72.9,36.739-27.268,29.563-31,29.563S1259.653,1116.527,1259.653,1116.527Z"/>
    <path id="路径_7370" data-name="路径 7370" class="cls-3" d="M1266.159,1112.987l69.414,46.654,6.094-5.876-71.825-44.381-4.622,3.2Z"/>
    <ellipse id="椭圆_998" data-name="椭圆 998" class="cls-3" cx="4.999" cy="7.056" rx="4.999" ry="7.056" transform="matrix(0.552, -0.834, 0.834, 0.552, 1298.919, 1120.94)"/>
    <line id="直线_107" data-name="直线 107" class="cls-4" y1="5.08" x2="3.16" transform="translate(1305.792 1116.972)"/>
    <line id="直线_108" data-name="直线 108" class="cls-4" x1="6.578" y1="4.521" transform="translate(1305.05 1117.316)"/>
    <path id="路径_7371" data-name="路径 7371" class="cls-5" d="M1238.889,1119.383a1.153,1.153,0,0,0-1.792,1.175c1.371,6.664,4.049,24.287,4.617,26.106.643,2.057,67.454,55,81.133,66.024a1.526,1.526,0,0,0,2.483-1.192l-1.242-30.676Z"/>
    <path id="路径_7372" data-name="路径 7372" class="cls-5" d="M1370.792,1167.836l-45.219,44.745a1.739,1.739,0,0,1-2.97-1.228l1.485-30.533,46.241-45.624a.973.973,0,0,1,1.648.735l-.346,29.988Z"/>
    <ellipse id="椭圆_999" data-name="椭圆 999" class="cls-6" cx="10.64" cy="7.16" rx="10.64" ry="7.16" transform="translate(1342.275 1178.758) rotate(-70.952)"/>
  </g>
</svg>
