<svg xmlns="http://www.w3.org/2000/svg" width="61.302" height="143.609" viewBox="0 0 61.302 143.609">
  <defs>
    <style>
      .cls-1 {
        fill: #e4f2f2;
        stroke-linejoin: round;
      }

      .cls-2 {
        fill: #84e684;
      }

      .cls-3 {
        fill: #5db6ed;
      }

      .cls-4 {
        fill: #47bf47;
      }

      .cls-5 {
        fill: #34a534;
      }

      .cls-6 {
        fill: #94ff94;
      }

      .cls-7 {
        fill: #ff9100;
      }

      .cls-8 {
        fill: #ffefd7;
      }

      .cls-9 {
        fill: #ffff40;
      }

      .cls-10, .cls-11 {
        stroke: none;
      }

      .cls-11 {
        fill: #fff;
      }
    </style>
  </defs>
  <g id="组_3144" data-name="组 3144" transform="translate(-606.991 -1250.901)">
    <g id="路径_7859" data-name="路径 7859" class="cls-1">
      <path class="cls-10" d="M 637.29833984375 1392.01025390625 C 632.8004760742188 1392.01025390625 629.2716064453125 1390.909301757813 626.809814453125 1388.737915039063 C 626.7493286132813 1388.6845703125 626.6898193359375 1388.630859375 626.631591796875 1388.5771484375 C 626.5753173828125 1388.61328125 626.51806640625 1388.648559570313 626.4598388671875 1388.683227539063 C 625.1306762695313 1389.472412109375 623.333251953125 1389.85595703125 620.9647827148438 1389.85595703125 C 619.8786010742188 1389.85595703125 618.6575317382813 1389.772094726563 617.3355102539063 1389.606567382813 C 615.7383422851563 1389.406616210938 613.5070190429688 1388.50244140625 611.9464721679688 1385.330322265625 C 611.043212890625 1383.494262695313 610.4141235351563 1381.026123046875 610.0232543945313 1377.78515625 C 609.3392944335938 1372.113525390625 609.4625854492188 1364.945678710938 609.5932006835938 1357.35693359375 C 609.6260986328125 1355.443359375 609.66015625 1353.46484375 609.6791381835938 1351.543334960938 C 609.7609252929688 1343.317626953125 609.9932861328125 1338.477294921875 610.4560546875 1335.358276367188 C 610.9686889648438 1331.903198242188 611.8209228515625 1330.29638671875 612.800048828125 1328.694946289063 C 614.5109252929688 1325.896606445313 616.623779296875 1320.123779296875 616.0403442382813 1317.447509765625 C 615.8701782226563 1316.668212890625 615.5068359375 1315.755249023438 615.0468139648438 1314.599365234375 C 613.6796875 1311.164184570313 611.6137084960938 1305.972900390625 611.3329467773438 1295.965087890625 C 611.2389526367188 1292.61376953125 611.7149047851563 1289.459350585938 612.7476196289063 1286.589477539063 C 613.6304931640625 1284.136108398438 614.9238891601563 1281.875732421875 616.5919189453125 1279.871215820313 C 619.42236328125 1276.469848632813 622.6647338867188 1274.598266601563 624.4473876953125 1273.75 C 624.7744750976563 1273.13330078125 625.207763671875 1271.921630859375 625.3665161132813 1269.688842773438 C 625.4439697265625 1268.599609375 625.4293823242188 1267.609375 625.4041748046875 1266.978149414063 C 625.1432495117188 1266.6396484375 624.9386596679688 1266.2587890625 624.800048828125 1265.846435546875 C 624.4699096679688 1264.864013671875 624.5691528320313 1263.883422851563 624.752685546875 1263.145263671875 C 624.5274047851563 1262.203735351563 624.5346069335938 1261.05224609375 624.6373901367188 1259.717041015625 C 624.716552734375 1258.688110351563 624.8480224609375 1257.72021484375 624.9191284179688 1257.235961914063 C 624.916015625 1256.9228515625 624.96533203125 1256.611694335938 625.0655517578125 1256.314086914063 L 625.3085327148438 1254.81494140625 L 626.2220458984375 1254.81494140625 C 626.6270751953125 1254.538940429688 627.1216430664063 1254.331176757813 627.7127075195313 1254.186889648438 C 627.95703125 1254.127319335938 628.185791015625 1254.08642578125 628.3619384765625 1254.0595703125 C 630.4459228515625 1253.400756835938 634.0430908203125 1253.400756835938 635.2662353515625 1253.400756835938 C 637.4545288085938 1253.400756835938 639.8641357421875 1253.509765625 641.8772583007813 1253.699829101563 C 645.3825073242188 1254.03076171875 646.2066040039063 1254.450805664063 646.750244140625 1254.852783203125 C 646.7946166992188 1254.885498046875 646.8524169921875 1254.92822265625 646.9196166992188 1254.98095703125 L 647.8489990234375 1254.98095703125 L 648.2566528320313 1256.981811523438 C 648.4202880859375 1257.784912109375 648.8622436523438 1260.164794921875 648.7808837890625 1262.049560546875 C 649.0404663085938 1262.767822265625 649.0523071289063 1263.560180664063 649.0164794921875 1264.282592773438 C 648.9811401367188 1264.995971679688 648.8824462890625 1265.724731445313 648.7891235351563 1266.242797851563 C 648.8317260742188 1266.696044921875 648.7508544921875 1267.1416015625 648.5641479492188 1267.53857421875 C 648.4805908203125 1268.303100585938 648.444580078125 1270.952026367188 649.5301513671875 1274.20068359375 C 652.5115966796875 1275.828002929688 654.9708862304688 1278.05078125 656.8507080078125 1280.8193359375 C 658.5869750976563 1283.37646484375 659.8397827148438 1286.4208984375 660.5743408203125 1289.8681640625 C 661.568115234375 1294.531860351563 661.6290893554688 1299.920776367188 660.755615234375 1305.88525390625 L 660.7166748046875 1306.151000976563 L 660.6221923828125 1306.40234375 C 656.0424194335938 1318.589599609375 656.0875244140625 1318.7646484375 657.2422485351563 1323.247192382813 C 657.46728515625 1324.120849609375 657.7381591796875 1325.17236328125 658.025146484375 1326.461181640625 C 660.0011596679688 1328.433837890625 661.5934448242188 1331.868530273438 662.87646484375 1336.912841796875 C 664.0289916992188 1341.444213867188 664.8930053710938 1347.2060546875 665.375244140625 1353.575439453125 C 665.8174438476563 1359.416381835938 665.9153442382813 1365.57568359375 665.65087890625 1370.918701171875 C 665.45556640625 1374.865234375 664.9655151367188 1380.297485351563 663.7401123046875 1383.765014648438 L 663.6033325195313 1384.152099609375 L 663.349853515625 1384.475219726563 C 660.2828979492188 1388.38427734375 657.0430908203125 1390.366455078125 653.7214965820313 1390.366577148438 C 653.7208862304688 1390.366577148438 653.7207641601563 1390.366577148438 653.7201538085938 1390.366577148438 C 651.3350219726563 1390.3662109375 649.429931640625 1389.33154296875 648.0921630859375 1388.28759765625 C 646.678466796875 1389.49853515625 644.4850463867188 1390.609619140625 641.393798828125 1391.68115234375 L 641.1287231445313 1391.77294921875 L 640.8499145507813 1391.803833007813 C 639.6115112304688 1391.940795898438 638.4166259765625 1392.01025390625 637.29833984375 1392.01025390625 Z"/>
      <path class="cls-11" d="M 637.29833984375 1389.51025390625 C 638.2988891601563 1389.51025390625 639.3875732421875 1389.450317382813 640.5750122070313 1389.318969726563 C 648.0009765625 1386.744995117188 647.510986328125 1384.743041992188 647.6740112304688 1384.45703125 C 647.6765747070313 1384.452514648438 647.6804809570313 1384.450317382813 647.6856079101563 1384.450317382813 C 647.8895874023438 1384.450317382813 650.1154174804688 1387.866088867188 653.7205200195313 1387.86669921875 C 655.8410034179688 1387.866943359375 658.4380493164063 1386.685546875 661.3829956054688 1382.932006835938 C 665.0549926757813 1372.541015625 663.5859985351563 1333.926025390625 655.7529907226563 1327.780029296875 C 653.7940063476563 1318.488037109375 652.406982421875 1321.156982421875 658.281982421875 1305.52294921875 C 659.343017578125 1298.277954101563 660.4039916992188 1282.261962890625 647.510986328125 1275.970947265625 C 645.6339721679688 1271.109008789063 645.9340209960938 1266.711059570313 646.2940063476563 1266.47900390625 C 646.3400268554688 1266.449951171875 646.0809936523438 1266.384033203125 645.5969848632813 1266.296020507813 C 646.0159912109375 1266.208984375 646.27001953125 1266.10400390625 646.2949829101563 1265.97705078125 C 646.510986328125 1264.905029296875 646.7329711914063 1262.671020507813 646.198974609375 1262.671020507813 C 646.5549926757813 1261.151977539063 645.8070068359375 1257.48095703125 645.8070068359375 1257.48095703125 L 645.7849731445313 1257.48095703125 C 645.75 1257.31396484375 645.614990234375 1257.121948242188 645.2639770507813 1256.863037109375 C 644.5673217773438 1256.347900390625 639.6353149414063 1255.900756835938 635.2662353515625 1255.900756835938 C 632.5611572265625 1255.900756835938 630.0719604492188 1256.072143554688 628.93701171875 1256.505004882813 C 628.93701171875 1256.505004882813 627.2249755859375 1256.673950195313 627.43701171875 1257.31494140625 L 627.4359741210938 1257.31494140625 C 627.4359741210938 1257.31494140625 626.6259765625 1262.31298828125 627.4180297851563 1263.072998046875 C 627.4180297851563 1263.072998046875 626.3909912109375 1265.128051757813 627.9229736328125 1265.885009765625 C 627.8909912109375 1265.93798828125 627.8629760742188 1265.990966796875 627.85400390625 1266.050048828125 C 627.85400390625 1266.050048828125 628.4580078125 1272.801025390625 626.1329956054688 1275.732055664063 C 622.5830078125 1277.234008789063 613.4650268554688 1282.81103515625 613.8319702148438 1295.89501953125 C 614.198974609375 1308.97900390625 617.68701171875 1313.26904296875 618.4829711914063 1316.9150390625 C 619.2780151367188 1320.56201171875 616.7689819335938 1326.995971679688 614.9329833984375 1329.9990234375 C 613.0969848632813 1333.001953125 612.343017578125 1335.076049804688 612.1790161132813 1351.567993164063 C 612.0159912109375 1368.06005859375 610.7919921875 1386.267944335938 617.64599609375 1387.1259765625 C 618.9200439453125 1387.285400390625 620.0193481445313 1387.35595703125 620.9647827148438 1387.35595703125 C 625.1063232421875 1387.35595703125 626.2960205078125 1386.002197265625 626.2960205078125 1384.838012695313 C 626.2960205078125 1384.030029296875 626.2440185546875 1383.473022460938 626.197998046875 1383.135009765625 C 626.5078125 1384.576049804688 628.2294921875 1389.51025390625 637.29833984375 1389.51025390625 M 637.29833984375 1394.51025390625 C 632.8115234375 1394.51025390625 629.1218872070313 1393.50537109375 626.3050537109375 1391.519653320313 C 624.829833984375 1392.081176757813 623.0670776367188 1392.35595703125 620.9647827148438 1392.35595703125 C 619.7750854492188 1392.35595703125 618.4495239257813 1392.265625 617.0249633789063 1392.087280273438 C 615.3202514648438 1391.873901367188 613.720947265625 1391.16064453125 612.3998413085938 1390.02490234375 C 611.3303833007813 1389.105346679688 610.423095703125 1387.897216796875 609.7032470703125 1386.433959960938 C 608.673583984375 1384.3408203125 607.9663696289063 1381.609741210938 607.541259765625 1378.08447265625 C 606.836669921875 1372.2421875 606.96142578125 1364.990844726563 607.0935668945313 1357.313720703125 C 607.1264038085938 1355.40478515625 607.160400390625 1353.430908203125 607.1792602539063 1351.5185546875 C 607.2633666992188 1343.06103515625 607.4962768554688 1338.272827148438 607.983154296875 1334.991333007813 C 608.5092163085938 1331.445678710938 609.3656616210938 1329.51953125 610.6671142578125 1327.390869140625 C 611.2723999023438 1326.40087890625 612.2254638671875 1324.451538085938 612.91943359375 1322.216064453125 C 613.6636962890625 1319.818481445313 613.6885375976563 1318.396850585938 613.5977172851563 1317.97998046875 C 613.4714965820313 1317.401977539063 613.1251220703125 1316.531616210938 612.7240600585938 1315.523803710938 C 611.2916870117188 1311.9248046875 609.1270751953125 1306.48583984375 608.8339233398438 1296.03515625 C 608.7311401367188 1292.37060546875 609.2564697265625 1288.907836914063 610.3953247070313 1285.743041992188 C 611.3770751953125 1283.014770507813 612.8153686523438 1280.501220703125 614.6702270507813 1278.272094726563 C 617.3715209960938 1275.02587890625 620.4227294921875 1273.033325195313 622.4838256835938 1271.94091796875 C 622.635498046875 1271.420166015625 622.7990112304688 1270.606323242188 622.87744140625 1269.4443359375 C 622.9196166992188 1268.820190429688 622.9282836914063 1268.234008789063 622.9231567382813 1267.750610351563 C 622.725830078125 1267.40087890625 622.560546875 1267.030517578125 622.4302978515625 1266.642822265625 C 622.0018310546875 1265.367919921875 622.0250244140625 1264.1357421875 622.2029418945313 1263.123413085938 C 622.0181884765625 1261.970092773438 622.0511474609375 1260.741088867188 622.1447143554688 1259.525268554688 C 622.2202758789063 1258.543701171875 622.340576171875 1257.611572265625 622.4201049804688 1257.051147460938 C 622.4481201171875 1256.088989257813 622.7389526367188 1255.14306640625 623.280029296875 1254.310791015625 C 624.1085815429688 1253.036499023438 625.4005737304688 1252.177734375 627.1201171875 1251.758178710938 C 627.359375 1251.699829101563 627.5848388671875 1251.654907226563 627.7823486328125 1251.620849609375 C 628.9688110351563 1251.267333984375 631.0512084960938 1250.900756835938 635.2662353515625 1250.900756835938 C 637.5293579101563 1250.900756835938 640.0245971679688 1251.013793945313 642.1122436523438 1251.210815429688 C 645.4656982421875 1251.527465820313 647.0114135742188 1251.938598632813 648.2320556640625 1252.83935546875 L 648.2320556640625 1252.83935546875 C 649.1190185546875 1253.493530273438 649.7810668945313 1254.254760742188 650.2113037109375 1255.11279296875 C 650.4379272460938 1255.534301757813 650.6067504882813 1255.994018554688 650.7063598632813 1256.482666015625 C 650.729248046875 1256.594970703125 650.9344482421875 1257.61572265625 651.0956420898438 1258.868408203125 C 651.234375 1259.946899414063 651.30029296875 1260.882934570313 651.2932739257813 1261.706420898438 C 651.5438842773438 1262.65576171875 651.5535278320313 1263.597412109375 651.513427734375 1264.40625 C 651.4822387695313 1265.03564453125 651.4049072265625 1265.746948242188 651.2990112304688 1266.3984375 C 651.3077392578125 1266.975830078125 651.2163696289063 1267.54931640625 651.029296875 1268.094604492188 C 651.0022583007813 1268.813842773438 651.0712280273438 1270.487670898438 651.6328125 1272.524291992188 C 661.454345703125 1278.42822265625 665.5647583007813 1290.299926757813 663.2291870117188 1306.247436523438 C 663.177490234375 1306.600830078125 663.0880126953125 1306.947509765625 662.96240234375 1307.28173828125 C 660.66162109375 1313.404418945313 659.5070190429688 1316.651733398438 659.1683959960938 1318.546264648438 C 658.9478149414063 1319.7802734375 659.0552978515625 1320.263671875 659.6632080078125 1322.623657226563 C 659.85302734375 1323.360473632813 660.07470703125 1324.220947265625 660.3123168945313 1325.24462890625 C 661.2761840820313 1326.336547851563 662.1373291015625 1327.697875976563 662.9191284179688 1329.360595703125 C 663.8095092773438 1331.254028320313 664.6102905273438 1333.587646484375 665.29931640625 1336.296630859375 C 666.4868774414063 1340.9658203125 667.3751220703125 1346.87548828125 667.8681030273438 1353.38671875 C 668.6812744140625 1364.126953125 668.4490356445313 1377.942993164063 666.0972900390625 1384.597900390625 C 665.9161376953125 1385.110717773438 665.6524658203125 1385.590454101563 665.3167724609375 1386.018310546875 C 661.75146484375 1390.5625 657.8502197265625 1392.86669921875 653.721435546875 1392.86669921875 C 651.779052734375 1392.866333007813 649.9075317382813 1392.3525390625 648.1436767578125 1391.33740234375 C 646.6187133789063 1392.302124023438 644.6581420898438 1393.195556640625 642.2125244140625 1394.043212890625 C 641.8602294921875 1394.165283203125 641.4954223632813 1394.247680664063 641.1248168945313 1394.288696289063 C 639.7955932617188 1394.435668945313 638.5081787109375 1394.51025390625 637.29833984375 1394.51025390625 Z"/>
    </g>
    <path id="路径_7860" data-name="路径 7860" class="cls-2" d="M627.855,1266.05s.6,6.751-1.722,9.682c-3.55,1.5-12.668,7.079-12.3,20.163s3.855,17.374,4.651,21.02S616.769,1327,614.933,1330s-2.59,5.077-2.754,21.569-1.387,34.7,5.467,35.558,8.65-.858,8.65-2.288a9.9,9.9,0,0,0-.163-2.1s.652,8.1,14.442,6.578c7.426-2.574,6.936-4.576,7.1-4.862s5.631,8.771,13.709-1.525c3.672-10.391,2.2-49.006-5.63-55.152-1.959-9.292-3.346-6.623,2.529-22.257,1.061-7.245,2.122-23.261-10.771-29.552-1.877-4.862-1.577-9.26-1.217-9.492S628.189,1263.756,627.855,1266.05Z"/>
    <path id="路径_7861" data-name="路径 7861" class="cls-3" d="M627.418,1263.073s-1.123,2.234.7,2.9,17.959,1.072,18.174,0,.438-3.306-.1-3.306S627.418,1263.073,627.418,1263.073Z"/>
    <path id="路径_7862" data-name="路径 7862" class="cls-4" d="M627.436,1257.315s-.81,5-.018,5.758,18.425,1.117,18.781-.4-.392-5.19-.392-5.19Z"/>
    <path id="路径_7863" data-name="路径 7863" class="cls-5" d="M628.937,1256.505s-3.028.3-.534,1.609,16.683,1.072,16.861.417,1.128-.834,0-1.668S631.905,1255.373,628.937,1256.505Z"/>
    <path id="路径_7864" data-name="路径 7864" class="cls-6" d="M616.65,1284.122a94.626,94.626,0,0,0,38.773-.887c2.859,4.557,7.259,17.843-.816,32.84a17.781,17.781,0,0,0-.421,4.99c.09.517-32.665-2.087-36.03.957.46-2.968.692-3.421-1.164-9.3S610.35,1293.608,616.65,1284.122Z"/>
    <path id="路径_7865" data-name="路径 7865" class="cls-7" d="M615.224,1286.734s12.7,5.853,41.855,0c2.14,7.588,4.37,17.159-2.028,27.817a22,22,0,0,0-.856,3.425c-.108.946-30.931-2.213-35.739.651.027-1.712-.279-2-2.6-8.719S611.537,1289.584,615.224,1286.734Z"/>
    <path id="路径_7866" data-name="路径 7866" class="cls-4" d="M617.853,1315.6l.6,3.027s5.261-1.648,17.9-1.1,14.331.607,17.836.454a23.424,23.424,0,0,1,1.7-4.515c.239-.539,5.682-10.467,2.31-22.373C656.9,1293.617,613.88,1302.5,617.853,1315.6Z"/>
    <path id="路径_7867" data-name="路径 7867" class="cls-3" d="M657.079,1286.734s-4.754,14.2-20.72,13.062-19.367,12.922-19.367,12.922-7.029-18.662-1.768-25.984C619.17,1287.938,630.219,1291.927,657.079,1286.734Z"/>
    <path id="路径_7868" data-name="路径 7868" class="cls-8" d="M616.992,1312.718l.861,2.882s6.935-13.864,16.6-12.153,18.887-1.67,23.751-12.359a17.644,17.644,0,0,0-1.129-4.354s-5.926,14.774-20.72,13.062S616.992,1312.718,616.992,1312.718Z"/>
    <path id="路径_7869" data-name="路径 7869" class="cls-9" d="M618.456,1318.627l-.3,3.4s18.909-.986,36.03-.957c0,0-1.347-1.795.009-3.089S620.425,1315.856,618.456,1318.627Z"/>
  </g>
</svg>
