<svg xmlns="http://www.w3.org/2000/svg" width="55.31" height="143.166" viewBox="0 0 55.31 143.166">
  <defs>
    <style>
      .cls-1 {
        fill: #e4f2f2;
        stroke-linejoin: round;
      }

      .cls-2 {
        fill: #ce140b;
      }

      .cls-3 {
        fill: #eee;
      }

      .cls-4 {
        fill: #271815;
      }

      .cls-5 {
        fill: #e72f32;
      }

      .cls-6 {
        fill: #fcc;
      }

      .cls-7, .cls-8 {
        stroke: none;
      }

      .cls-8 {
        fill: #fff;
      }
    </style>
  </defs>
  <g id="组_3121" data-name="组 3121" transform="translate(-863.684 -1262.812)">
    <g id="路径_7657" data-name="路径 7657" class="cls-1">
      <path class="cls-7" d="M 900.1593627929688 1403.477905273438 C 900.1572265625 1403.477905273438 900.1558837890625 1403.477905273438 900.1537475585938 1403.477905273438 C 890.5260620117188 1403.477905273438 878.1104125976563 1403.383056640625 873.6368408203125 1402.931396484375 C 871.3462524414063 1402.700073242188 869.4537963867188 1401.652709960938 868.1640625 1399.902465820313 C 866.8468017578125 1398.114868164063 866.1806640625 1395.657470703125 866.1842041015625 1392.598510742188 C 866.1861572265625 1390.91455078125 866.3994140625 1389.50439453125 866.4940185546875 1388.961181640625 C 866.5664672851563 1387.372924804688 867.2864990234375 1385.501831054688 868.2634887695313 1382.963012695313 C 870.0197143554688 1378.399291992188 872.4248657226563 1372.149047851563 870.9047241210938 1366.628662109375 C 869.78076171875 1362.54833984375 868.8362426757813 1354.066040039063 868.0975341796875 1341.417358398438 C 867.546630859375 1331.9853515625 867.2990112304688 1323.302490234375 867.2990112304688 1322.156005859375 C 867.2990112304688 1320.858642578125 867.808349609375 1319.449096679688 868.856201171875 1317.846801757813 C 869.302734375 1317.163940429688 869.7442016601563 1316.607788085938 870.0048217773438 1316.295166015625 C 877.7296752929688 1301.081665039063 879.9631958007813 1290.360595703125 880.5499877929688 1284.44921875 L 880.5499877929688 1282.607055664063 L 880.5499877929688 1278.98828125 C 878.5262451171875 1277.209838867188 877.6393432617188 1274.704711914063 878.03759765625 1271.796997070313 C 878.318115234375 1269.749145507813 879.1612548828125 1268.110717773438 879.4124145507813 1267.65771484375 C 879.7953491210938 1266.89794921875 880.4793090820313 1266.333251953125 881.4482421875 1265.977783203125 C 881.9674072265625 1265.787353515625 882.5984497070313 1265.643798828125 883.37744140625 1265.539184570313 C 884.5176391601563 1265.385986328125 886.000244140625 1265.3115234375 887.9100341796875 1265.3115234375 C 890.2417602539063 1265.3115234375 892.7091064453125 1265.42138671875 894.691650390625 1265.509643554688 C 895.840087890625 1265.560791015625 896.8318481445313 1265.60498046875 897.3480224609375 1265.60498046875 C 897.75634765625 1265.60498046875 898.1731567382813 1265.553588867188 898.6143798828125 1265.499145507813 C 899.1123657226563 1265.437622070313 899.6273193359375 1265.374145507813 900.1884155273438 1265.374145507813 C 901.5203247070313 1265.374145507813 902.6641235351563 1265.75439453125 903.6852416992188 1266.53662109375 C 904.7025756835938 1267.316040039063 905.587646484375 1268.484252929688 906.470458984375 1270.212890625 C 907.8842163085938 1272.981079101563 907.39404296875 1275.078857421875 906.73388671875 1276.351196289063 C 906.1026611328125 1277.567749023438 905.0101318359375 1278.6015625 903.5742797851563 1279.341186523438 C 903.50439453125 1279.377075195313 903.434814453125 1279.411865234375 903.3654174804688 1279.445556640625 L 903.63720703125 1282.35302734375 C 905.6814575195313 1300.74267578125 910.7042236328125 1311.667236328125 912.355224609375 1315.258422851563 C 912.5467529296875 1315.675048828125 912.6923217773438 1315.991821289063 912.8024291992188 1316.250244140625 C 913.2716064453125 1316.749877929688 913.65283203125 1317.40478515625 913.9552001953125 1318.226318359375 C 914.2816772460938 1319.113159179688 914.5283813476563 1320.222045898438 914.7095947265625 1321.616455078125 C 915.0189819335938 1323.99755859375 915.1339721679688 1327.168334960938 915.0610961914063 1331.309814453125 C 914.9418334960938 1338.089599609375 914.3119506835938 1347.335327148438 913.135498046875 1359.5751953125 C 911.6130981445313 1375.414672851563 913.4679565429688 1380.865600585938 914.9583740234375 1385.24560546875 C 915.4029541015625 1386.552124023438 915.8228759765625 1387.786254882813 916.1194458007813 1389.170043945313 L 916.1251831054688 1389.19677734375 L 916.13037109375 1389.2236328125 C 917.2633056640625 1395.138549804688 915.5200805664063 1398.644287109375 913.8582153320313 1400.543579101563 C 911.9866943359375 1402.6826171875 909.7863159179688 1403.3056640625 909.5415649414063 1403.369750976563 L 909.2394409179688 1403.44873046875 L 908.9271240234375 1403.451049804688 C 908.8900146484375 1403.451293945313 905.1600341796875 1403.477905273438 900.1593627929688 1403.477905273438 Z"/>
      <path class="cls-8" d="M 900.15380859375 1400.977905273438 C 905.2064819335938 1400.977905273438 908.9089965820313 1400.951049804688 908.9089965820313 1400.951049804688 C 908.9089965820313 1400.951049804688 915.5009765625 1399.22705078125 913.6749877929688 1389.693969726563 C 912.4580078125 1384.015991210938 908.6329956054688 1380.2900390625 910.64697265625 1359.336059570313 C 912.6610107421875 1338.381958007813 913.7429809570313 1319.317016601563 910.6329956054688 1317.693969726563 C 911.0130004882813 1317.504028320313 903.7379760742188 1305.9189453125 901.1500244140625 1282.607055664063 L 900.6950073242188 1277.739013671875 C 901.405029296875 1277.637939453125 906.677978515625 1276.115966796875 904.2440185546875 1271.349975585938 C 902.7584228515625 1268.441040039063 901.5369873046875 1267.874145507813 900.1883544921875 1267.874145507813 C 899.3274536132813 1267.874145507813 898.4148559570313 1268.10498046875 897.3480224609375 1268.10498046875 C 895.8700561523438 1268.10498046875 891.6224365234375 1267.8115234375 887.9100952148438 1267.8115234375 C 884.7450561523438 1267.8115234375 881.9691772460938 1268.024780273438 881.6300048828125 1268.81494140625 C 881.6300048828125 1268.81494140625 878.1820068359375 1274.697021484375 883.0499877929688 1277.739013671875 L 883.0499877929688 1282.607055664063 L 883.1959838867188 1282.607055664063 C 882.8889770507813 1288.677978515625 880.9169921875 1300.407958984375 872.0980224609375 1317.693969726563 C 872.0980224609375 1317.693969726563 869.7990112304688 1320.262939453125 869.7990112304688 1322.156005859375 C 869.7990112304688 1324.048950195313 870.7449951171875 1356.635009765625 873.3150024414063 1365.964965820313 C 875.8839721679688 1375.2939453125 868.9879760742188 1385.571044921875 868.9879760742188 1389.220947265625 C 868.9879760742188 1389.220947265625 866.8560180664063 1399.734008789063 873.8880004882813 1400.443969726563 C 878.3615112304688 1400.895751953125 891.319091796875 1400.977905273438 900.15380859375 1400.977905273438 M 900.15380859375 1405.977905273438 C 900.15380859375 1405.977905273438 900.15380859375 1405.977905273438 900.15380859375 1405.977905273438 C 890.4685668945313 1405.977905273438 877.962646484375 1405.880859375 873.3856811523438 1405.418701171875 C 870.3731689453125 1405.114501953125 867.87158203125 1403.719848632813 866.1514282226563 1401.385498046875 C 864.5101318359375 1399.158081054688 863.6800537109375 1396.200805664063 863.6842041015625 1392.595581054688 C 863.6862182617188 1390.857788085938 863.8876953125 1389.390625 864.0064697265625 1388.675659179688 C 864.1366577148438 1386.726196289063 864.9381713867188 1384.643310546875 865.9302368164063 1382.065185546875 C 867.5617065429688 1377.825561523438 869.7960815429688 1372.019287109375 868.4944458007813 1367.29248046875 C 867.3240356445313 1363.04345703125 866.3507690429688 1354.38671875 865.6017456054688 1341.563110351563 C 865.0479125976563 1332.080932617188 864.7990112304688 1323.317504882813 864.7990112304688 1322.156005859375 C 864.7990112304688 1320.357421875 865.4417114257813 1318.500244140625 866.763916015625 1316.478515625 C 867.1810302734375 1315.840576171875 867.5927124023438 1315.30029296875 867.898193359375 1314.921508789063 C 875.6845092773438 1299.518432617188 877.6817626953125 1288.967163085938 878.1272583007813 1283.487426757813 C 878.0764770507813 1283.20166015625 878.0499877929688 1282.907348632813 878.0499877929688 1282.607055664063 L 878.0499877929688 1280.029174804688 C 876.00146484375 1277.770263671875 875.1068115234375 1274.77197265625 875.560791015625 1271.457763671875 C 875.8903198242188 1269.051879882813 876.843505859375 1267.14013671875 877.2098999023438 1266.474487304688 C 877.7181396484375 1265.4970703125 878.6998291015625 1264.323120117188 880.5872802734375 1263.630737304688 C 881.279296875 1263.376831054688 882.0831298828125 1263.190673828125 883.0446166992188 1263.0615234375 C 884.2963256835938 1262.893310546875 885.8878173828125 1262.8115234375 887.9100952148438 1262.8115234375 C 890.2974853515625 1262.8115234375 892.7955932617188 1262.922729492188 894.8028564453125 1263.01220703125 C 895.8748779296875 1263.059936523438 896.8875122070313 1263.10498046875 897.3480224609375 1263.10498046875 C 897.6027221679688 1263.10498046875 897.9296875 1263.064575195313 898.3082275390625 1263.017944335938 C 898.8544921875 1262.950439453125 899.4736328125 1262.874145507813 900.1883544921875 1262.874145507813 C 902.064208984375 1262.874145507813 903.752197265625 1263.438720703125 905.20556640625 1264.552124023438 C 906.5292358398438 1265.566162109375 907.6386108398438 1267.003540039063 908.6968994140625 1269.075805664063 C 909.4254760742188 1270.50244140625 909.8218383789063 1271.939697265625 909.8750610351563 1273.34765625 C 909.9306030273438 1274.818359375 909.620361328125 1276.216186523438 908.9530029296875 1277.502563476563 C 908.2182006835938 1278.918701171875 907.142822265625 1279.994140625 906.0020141601563 1280.790405273438 L 906.124267578125 1282.098022460938 C 908.1255493164063 1300.072509765625 913.0181274414063 1310.715209960938 914.626708984375 1314.214233398438 C 914.7461547851563 1314.47412109375 914.8486938476563 1314.697143554688 914.9383544921875 1314.896728515625 C 916.394775390625 1316.689575195313 916.9117431640625 1319.162353515625 917.188720703125 1321.294311523438 C 917.5140991210938 1323.798095703125 917.6357421875 1327.088623046875 917.5607299804688 1331.353881835938 C 917.4403076171875 1338.199462890625 916.8067626953125 1347.509033203125 915.6240234375 1359.814453125 C 914.153076171875 1375.118530273438 915.911865234375 1380.287109375 917.3250732421875 1384.440185546875 C 917.7732543945313 1385.75732421875 918.2366943359375 1387.119262695313 918.56396484375 1388.646118164063 C 918.5715942382813 1388.681762695313 918.578857421875 1388.717529296875 918.585693359375 1388.75341796875 C 919.9083862304688 1395.65869140625 917.76806640625 1399.87158203125 915.7396850585938 1402.189819335938 C 913.425537109375 1404.834716796875 910.6974487304688 1405.651489257813 910.174072265625 1405.788330078125 C 909.7728271484375 1405.893310546875 909.3600463867188 1405.947875976563 908.9452514648438 1405.950927734375 C 908.9080810546875 1405.951171875 905.1666259765625 1405.977905273438 900.15380859375 1405.977905273438 Z"/>
    </g>
    <path id="路径_7658" data-name="路径 7658" class="cls-2" d="M881.63,1268.815s-3.448,5.882,1.42,8.924c0,0,16.935.1,17.645,0s5.983-1.622,3.549-6.389-4.158-3.245-6.9-3.245S882.367,1267.1,881.63,1268.815Z"/>
    <path id="路径_7659" data-name="路径 7659" class="cls-3" d="M872.1,1317.694s38.129.2,38.535,0-7.91-13.386-9.938-39.955H883.05S885.619,1291.193,872.1,1317.694Z"/>
    <path id="路径_7660" data-name="路径 7660" class="cls-4" d="M872.1,1317.694s-2.3,2.569-2.3,4.462.946,34.479,3.516,43.809-4.327,19.6-4.327,23.256c0,0-2.132,10.513,4.9,11.223s35.021.507,35.021.507,6.592-1.724,4.766-11.257c-1.217-5.678-5.042-9.4-3.028-30.358s3.1-40.019-.014-41.642S872.1,1317.694,872.1,1317.694Z"/>
    <path id="路径_7661" data-name="路径 7661" class="cls-5" d="M869.819,1323.234s37.929-2.3,42.549,0c.172,2.982.29,23.125-.655,23.936s-40.613,1.792-40.737,0S869.819,1323.234,869.819,1323.234Z"/>
    <path id="路径_7662" data-name="路径 7662" class="cls-4" d="M875.207,1331.215s-2.028,4.057,0,6.22,30.558-1.082,31.64,0,1.623-5.273,1.217-6.22S878.182,1333.784,875.207,1331.215Z"/>
    <path id="路径_7663" data-name="路径 7663" class="cls-6" d="M883.05,1277.739v4.868h18.1l-.456-4.868Z"/>
    <ellipse id="椭圆_1158" data-name="椭圆 1158" class="cls-3" cx="11.29" cy="5.798" rx="11.29" ry="5.798" transform="translate(879.669 1328.105)"/>
  </g>
</svg>
