<svg xmlns="http://www.w3.org/2000/svg" width="69.721" height="129.8" viewBox="0 0 69.721 129.8">
  <defs>
    <style>
      .cls-1 {
        fill: #b8bdc1;
      }

      .cls-2 {
        fill: #1178ce;
      }

      .cls-3 {
        fill: #cadcea;
      }

      .cls-4 {
        fill: #e1f9ff;
      }

      .cls-5 {
        fill: #006fd3;
      }

      .cls-6 {
        fill: #0028d1;
      }

      .cls-7 {
        fill: #f66;
      }
    </style>
  </defs>
  <g id="组_3136" data-name="组 3136" transform="translate(-1287.64 -1095.857)">
    <path id="路径_7781" data-name="路径 7781" class="cls-1" d="M1295.321,1222.887s-1.747,1.259.765,2.024,50.136,1.2,50.9,0,.725-2.788,0-2.711S1298.052,1217.368,1295.321,1222.887Z"/>
    <path id="路径_7782" data-name="路径 7782" class="cls-2" d="M1349.28,1104.706a108.33,108.33,0,0,0,6.062,10.486c3.113,4.587,2.458,96.666-.819,102.564s-12.288,4.424-12.288,4.424-45.384,1.475-46.859.164-6.717-4.26-6.717-7.209-2.294-94.373,0-98.469,9.175-8.191,6.881-13.189C1303.9,1103.477,1349.28,1104.706,1349.28,1104.706Z"/>
    <path id="路径_7783" data-name="路径 7783" class="cls-1" d="M1295.54,1103.477s25.887,14.255,53.74,1.229c2.949-2.7.491-4.423-2.294-6.144S1289.805,1091.435,1295.54,1103.477Z"/>
    <path id="路径_7784" data-name="路径 7784" class="cls-3" d="M1295.54,1100.937s25.887,9.5,53.74.82c2.949-1.8.491-2.95-2.294-4.1S1289.805,1092.909,1295.54,1100.937Z"/>
    <path id="路径_7785" data-name="路径 7785" class="cls-4" d="M1299.194,1170.734a6.935,6.935,0,0,0,0,2.294c.522,7.366.964,36.209.964,38.5s2.053,2.628,4.82,3.113c3.035.533,3.427-5.079,3.427-5.079l-.986-35.306c-.048-1.714-.947-3.085-2.068-3.152Z"/>
    <ellipse id="椭圆_1160" data-name="椭圆 1160" class="cls-5" cx="26.289" cy="23.057" rx="26.289" ry="23.057" transform="translate(1296.211 1123.053)"/>
    <path id="路径_7786" data-name="路径 7786" class="cls-6" d="M1300.1,1158.182s11.333,16.772,32.631,9.173,17.285-29.012,11.24-34.539S1300.1,1158.182,1300.1,1158.182Z"/>
    <path id="路径_7787" data-name="路径 7787" class="cls-4" d="M1300.1,1158.182s45.693,3.843,43.871-25.366c-2.314-2.487-6.747-6.555-7.765-6.383S1300.1,1158.182,1300.1,1158.182Z"/>
    <path id="路径_7788" data-name="路径 7788" class="cls-7" d="M1336.207,1126.433s-4.347,28.044-36.106,31.749c-3.89-3.4-10.092-23.074,10.969-32.841C1318.587,1121.8,1328.159,1122.329,1336.207,1126.433Z"/>
  </g>
</svg>
