<svg xmlns="http://www.w3.org/2000/svg" width="143.198" height="117.499" viewBox="0 0 143.198 117.499">
  <defs>
    <style>
      .cls-1, .cls-5 {
        fill: #fff;
      }

      .cls-1 {
        stroke-linejoin: round;
      }

      .cls-2 {
        fill: #94c4ef;
      }

      .cls-3 {
        fill: #427fb3;
      }

      .cls-4, .cls-5 {
        stroke: none;
      }
    </style>
  </defs>
  <g id="组_3059" data-name="组 3059" transform="translate(-1488.631 -1269.127)">
    <g id="路径_7381" data-name="路径 7381" class="cls-1">
      <path class="cls-4" d="M 1506.311279296875 1386.58642578125 L 1505.596069335938 1382.01220703125 L 1491.161010742188 1289.693237304688 L 1490.75830078125 1287.1181640625 L 1493.347900390625 1286.823120117188 L 1626.5458984375 1271.64306640625 L 1634.271240234375 1270.762573242188 L 1628.506713867188 1275.98046875 L 1509.743774414063 1383.4794921875 L 1506.311279296875 1386.58642578125 Z M 1520.521362304688 1311.072509765625 L 1523.648315429688 1340.423217773438 L 1562.308959960938 1305.0830078125 L 1520.521362304688 1311.072509765625 Z"/>
      <path class="cls-5" d="M 1626.828979492188 1274.126953125 L 1493.630981445313 1289.307006835938 L 1508.066040039063 1381.6259765625 L 1626.828979492188 1274.126953125 M 1521.68603515625 1345.60400390625 L 1517.780029296875 1308.93994140625 L 1569.97998046875 1301.4580078125 L 1521.68603515625 1345.60400390625 M 1626.8310546875 1269.126708984375 C 1628.776733398438 1269.126708984375 1630.5693359375 1270.262817382813 1631.385009765625 1272.067260742188 C 1632.279663085938 1274.046264648438 1631.794555664063 1276.37646484375 1630.184326171875 1277.833862304688 L 1511.42138671875 1385.332885742188 C 1510.487182617188 1386.178588867188 1509.286376953125 1386.626098632813 1508.0654296875 1386.626098632813 C 1507.506103515625 1386.626098632813 1506.942626953125 1386.5322265625 1506.398559570313 1386.339721679688 C 1504.666381835938 1385.726928710938 1503.409912109375 1384.213623046875 1503.126098632813 1382.3984375 L 1488.691040039063 1290.079467773438 C 1488.480590820313 1288.733642578125 1488.828369140625 1287.360107421875 1489.653930664063 1286.276611328125 C 1490.4794921875 1285.193237304688 1491.71142578125 1284.493408203125 1493.064819335938 1284.339111328125 L 1626.262817382813 1269.159057617188 C 1626.453125 1269.137451171875 1626.642822265625 1269.126708984375 1626.8310546875 1269.126708984375 Z M 1525.610473632813 1335.242431640625 L 1554.637939453125 1308.708129882813 L 1523.2626953125 1313.205200195313 L 1525.610473632813 1335.242431640625 Z"/>
    </g>
    <path id="路径_7382" data-name="路径 7382" class="cls-2" d="M1626.829,1274.127l-133.2,15.18,14.435,92.319Zm-56.849,27.331-48.294,44.146-3.906-36.664Z"/>
    <rect id="矩形_715" data-name="矩形 715" class="cls-3" width="1.771" height="11.772" rx="0.886" transform="translate(1599.169 1289.084) rotate(169.852)"/>
    <rect id="矩形_716" data-name="矩形 716" class="cls-3" width="1.771" height="7.847" rx="0.886" transform="translate(1587.484 1286.466) rotate(167.178)"/>
    <rect id="矩形_717" data-name="矩形 717" class="cls-3" width="1.771" height="11.772" rx="0.886" transform="translate(1577.936 1291.55) rotate(168.847)"/>
    <rect id="矩形_718" data-name="矩形 718" class="cls-3" width="1.771" height="9.744" rx="0.886" transform="translate(1566.62 1290.656) rotate(169.852)"/>
    <rect id="矩形_719" data-name="矩形 719" class="cls-3" width="1.771" height="11.772" rx="0.886" transform="translate(1555.52 1293.672) rotate(169.852)"/>
    <rect id="矩形_720" data-name="矩形 720" class="cls-3" width="1.771" height="10.152" rx="0.886" transform="translate(1545.13 1293.599) rotate(166.567)"/>
    <rect id="矩形_721" data-name="矩形 721" class="cls-3" width="1.771" height="11.772" rx="0.886" transform="translate(1532.166 1296.688) rotate(169.852)"/>
    <rect id="矩形_722" data-name="矩形 722" class="cls-3" width="1.771" height="8.977" rx="0.268" transform="translate(1519.882 1295.548) rotate(169.852)"/>
    <rect id="矩形_723" data-name="矩形 723" class="cls-3" width="1.771" height="12.627" rx="0.886" transform="translate(1508.208 1300.444) rotate(171.13)"/>
  </g>
</svg>
