<svg xmlns="http://www.w3.org/2000/svg" width="40.939" height="133.214" viewBox="0 0 40.939 133.214">
  <defs>
    <style>
      .cls-1 {
        fill: #ff7950;
      }

      .cls-2 {
        fill: #eeffdc;
      }

      .cls-3 {
        fill: #e26100;
      }

      .cls-4 {
        fill: #ffe017;
      }

      .cls-5 {
        fill: #3057d1;
      }

      .cls-6 {
        fill: #fff;
      }

      .cls-7 {
        fill: #683e00;
      }

      .cls-8 {
        fill: #47bf47;
      }

      .cls-9 {
        fill: #ff6700;
      }

      .cls-10 {
        fill: #fff200;
      }

      .cls-11 {
        fill: #ff9100;
      }
    </style>
  </defs>
  <g id="组_3129" data-name="组 3129" transform="translate(-1084.124 -1087.417)">
    <path id="路径_7718" data-name="路径 7718" class="cls-1" d="M1098.114,1088.293s10.318-1.972,12.442,0,.607,10.167,0,10.622-11.532,1.062-11.835,0S1095.953,1088.648,1098.114,1088.293Z"/>
    <path id="路径_7719" data-name="路径 7719" class="cls-2" d="M1098.3,1098.82s.171,6.032-.455,6.544,9.048,1.195,12.007.455l1.138-.228s-1.613-4.874-.437-6.676C1109.456,1098.023,1098.285,1097.626,1098.3,1098.82Z"/>
    <path id="路径_7720" data-name="路径 7720" class="cls-3" d="M1097.848,1105.364a51.626,51.626,0,0,0-7.966,12.518c-3.869,8.194,29.7,2.162,28.849.569s-6.027-13.2-7.738-12.86S1097.848,1105.364,1097.848,1105.364Z"/>
    <path id="路径_7721" data-name="路径 7721" class="cls-4" d="M1090.213,1117.193s7.989,3.268,28.1.414c0,0,4.688,7.559,5.712,13.7s1.707,79.89,0,81.939-.341,2.731-11.722,2.655-22.023.986-22.088,1.593-4.845,1.745-5.452-6.752-1.062-75.869,0-79.511S1089.449,1116.941,1090.213,1117.193Z"/>
    <path id="路径_7722" data-name="路径 7722" class="cls-3" d="M1085.129,1213.337s-2.113,5.224.618,6.513,36.721.759,38.086,0,.392-7.236.392-7.236S1111.671,1219.721,1085.129,1213.337Z"/>
    <path id="路径_7723" data-name="路径 7723" class="cls-1" d="M1084.174,1177.44s5.518,4.7,6.808,4.931,7.132-3.338,9.408-6.525,21.426-13.58,24.673-11.684c0,3.389-.838,48.452-.838,48.452s-10.277,7.411-39.1.723C1084.6,1207,1084.174,1177.44,1084.174,1177.44Z"/>
    <path id="路径_7724" data-name="路径 7724" class="cls-5" d="M1091.433,1142.026a4.773,4.773,0,0,0-1.224,2.8c-.067,1.239,1.155,1.665,1.786,2.528.651.89.305,1.482-.009,2.455-.814,2.518-1.57,5.056-2.444,7.554a8.346,8.346,0,0,0-.826,3.314,8.228,8.228,0,0,0,1.408,3.557c.569.873,2.149,1.406,2.453-.062.126-.613-.106-1.155.134-1.753a1.276,1.276,0,0,1,1.375-.708,9.147,9.147,0,0,0,6.6-2.139c.7-.53,1.627-1.306,2.531-.844.775.395,1.023,1.448,1.7,1.971a3.618,3.618,0,0,0,3.784.556c1.036-.561.958-2.2,1.242-3.186a8.446,8.446,0,0,0,.553,2.11,2.34,2.34,0,0,0,1.607,1.35,11.528,11.528,0,0,0,4.5.051,1.714,1.714,0,0,0,1.076-.378c.8-.8.306-2.484.306-3.46,0-.019,0-.037,0-.055l.327-5.474.269-4.505c.066-1.1.254-2.2.318-3.3.092-1.575-.287-2.913-1.795-3.609-1.076-.5-2.049.095-3.121.336-.936.21-1.893.381-2.835.579a30.634,30.634,0,0,1-6.555.81,13.422,13.422,0,0,1-5.5-.8,2.1,2.1,0,0,0-2.3-.081c-.945.544-1.76,1.123-2.909.675a11.473,11.473,0,0,0-1.361-.624A1.176,1.176,0,0,0,1091.433,1142.026Z"/>
    <path id="路径_7725" data-name="路径 7725" class="cls-6" d="M1092.751,1144.392a2.175,2.175,0,0,0-.392.872c-.04,1.367,1.644,1.662,1.725,2.913a2.155,2.155,0,0,1-.161.815q-1.039,3.093-2.074,6.188l-1.385,4.137c-.125.374-.293.756-.381,1.141a4.51,4.51,0,0,0,.759,2.993l1.027,0c.053,0,.183-2.874,1.559-2.9a27.359,27.359,0,0,0,3.165-.048,9.13,9.13,0,0,0,3.661-1.969,18.909,18.909,0,0,1,3.411-1.9,5.993,5.993,0,0,0,1.468,2.686,2.1,2.1,0,0,0,2.8.139,6.728,6.728,0,0,0,.848-1.688c.294-.561.991-1.047,1.531-.716.51.312.43.978.671,1.45a2.262,2.262,0,0,0,1.471,1.15,5.676,5.676,0,0,0,3.353.081c1.453-.552,1.517-2.116,1.478-3.483-.114-4,.026-7.978.169-11.974.027-.738-.016-1.615-.64-2.009-1-.632-3.036.468-4.025.781a18.2,18.2,0,0,1-4.618.987,54.243,54.243,0,0,1-5.505-.432,12.22,12.22,0,0,1-5.025-.956.257.257,0,0,0-.177-.044.247.247,0,0,0-.119.091,8.119,8.119,0,0,1-2.995,1.818c-.247.119-.563.228-.772.051-.159-.135-.208-.409-.412-.453C1093.032,1144.09,1092.884,1144.214,1092.751,1144.392Z"/>
    <path id="路径_7726" data-name="路径 7726" class="cls-7" d="M1098.788,1132.325c-.774,1.739-.953,4.432.442,5.6,1.091.917,2.771.733,4.092.656,1.711-.1,3.525-.273,5.095.561.607.322,1.268.935,1.983.965,2.146.09,1.3-5.875,1.269-7.171-.023-1.109-.171-3.866-2.091-2.793-.594.332-.957.884-1.592,1.179a9.107,9.107,0,0,1-3.759.692,4.146,4.146,0,0,1-2.235-.611c-.293-.193-.553-.436-.864-.6a1.386,1.386,0,0,0-1.8.588A4.41,4.41,0,0,0,1098.788,1132.325Z"/>
    <g id="组_3128" data-name="组 3128">
      <path id="路径_7727" data-name="路径 7727" class="cls-8" d="M1101.1,1206.371s-6.347.274-6.652,1.58,2.266,2.686,4.894,1.879,9.321-2.072,11.959-4.192.931-2.307.931-2.307a11.916,11.916,0,0,0,2.43.7c.291-.1,4.008-1.623,5.149-3.659s1.975-7.126,1.975-7.126-1.268-1.628-4.1,1.437S1101.1,1206.371,1101.1,1206.371Z"/>
      <path id="路径_7728" data-name="路径 7728" class="cls-9" d="M1114.327,1188.208s8,8.656-.2,13.928-11.5,6.648-18.715.889"/>
      <path id="路径_7729" data-name="路径 7729" class="cls-10" d="M1095.272,1200.021a25.21,25.21,0,0,1,13.818-12.257c9.892-3.467,4.284,8.53.866,10.6S1093.611,1209.165,1095.272,1200.021Z"/>
      <path id="路径_7730" data-name="路径 7730" class="cls-11" d="M1103.37,1196.286a3.963,3.963,0,0,1,2.171-1.925c1.554-.545.673,1.34.136,1.665S1103.11,1197.723,1103.37,1196.286Z"/>
    </g>
  </g>
</svg>
