<svg xmlns="http://www.w3.org/2000/svg" width="51.305" height="133.609" viewBox="0 0 51.305 133.609">
  <defs>
    <style>
      .cls-1 {
        fill: #84e684;
      }

      .cls-2 {
        fill: #5db6ed;
      }

      .cls-3 {
        fill: #47bf47;
      }

      .cls-4 {
        fill: #34a534;
      }

      .cls-5 {
        fill: #94ff94;
      }

      .cls-6 {
        fill: #ff9100;
      }

      .cls-7 {
        fill: #ffefd7;
      }

      .cls-8 {
        fill: #ffff40;
      }
    </style>
  </defs>
  <g id="组_3143" data-name="组 3143" transform="translate(-611.992 -1087.063)">
    <path id="路径_7849" data-name="路径 7849" class="cls-1" d="M627.855,1097.213s.6,6.75-1.722,9.682c-3.55,1.5-12.668,7.078-12.3,20.162s3.855,17.374,4.651,21.021-1.714,10.081-3.55,13.084-2.59,5.076-2.754,21.568-1.387,34.7,5.467,35.559,8.65-.858,8.65-2.288a9.92,9.92,0,0,0-.163-2.1s.652,8.1,14.442,6.578c7.426-2.574,6.936-4.576,7.1-4.862s5.631,8.771,13.709-1.525c3.672-10.391,2.2-49.005-5.63-55.151-1.959-9.292-3.346-6.623,2.529-22.257,1.061-7.246,2.122-23.261-10.771-29.553-1.877-4.862-1.577-9.259-1.217-9.491S628.189,1094.919,627.855,1097.213Z"/>
    <path id="路径_7850" data-name="路径 7850" class="cls-2" d="M627.418,1094.235s-1.123,2.234.7,2.9,17.959,1.073,18.174,0,.438-3.306-.1-3.306S627.418,1094.235,627.418,1094.235Z"/>
    <path id="路径_7851" data-name="路径 7851" class="cls-3" d="M627.436,1088.478s-.81,5-.018,5.757,18.425,1.117,18.781-.4-.392-5.19-.392-5.19Z"/>
    <path id="路径_7852" data-name="路径 7852" class="cls-4" d="M628.937,1087.668s-3.028.3-.534,1.608,16.683,1.072,16.861.417,1.128-.834,0-1.668S631.905,1086.536,628.937,1087.668Z"/>
    <path id="路径_7853" data-name="路径 7853" class="cls-5" d="M616.65,1115.284a94.625,94.625,0,0,0,38.773-.887c2.859,4.557,7.259,17.843-.816,32.84a17.786,17.786,0,0,0-.421,4.991c.09.516-32.665-2.088-36.03.956.46-2.968.692-3.421-1.164-9.3S610.35,1124.77,616.65,1115.284Z"/>
    <path id="路径_7854" data-name="路径 7854" class="cls-6" d="M615.224,1117.9s12.7,5.854,41.855,0c2.14,7.588,4.37,17.159-2.028,27.817a21.978,21.978,0,0,0-.856,3.426c-.108.945-30.931-2.213-35.739.651.027-1.712-.279-2-2.6-8.719S611.537,1120.747,615.224,1117.9Z"/>
    <path id="路径_7855" data-name="路径 7855" class="cls-3" d="M617.853,1146.762l.6,3.028s5.261-1.649,17.9-1.106,14.331.608,17.836.455a23.415,23.415,0,0,1,1.7-4.516c.239-.538,5.682-10.467,2.31-22.372C656.9,1124.779,613.88,1133.661,617.853,1146.762Z"/>
    <path id="路径_7856" data-name="路径 7856" class="cls-2" d="M657.079,1117.9s-4.754,14.2-20.72,13.063-19.367,12.921-19.367,12.921-7.029-18.661-1.768-25.984C619.17,1119.1,630.219,1123.089,657.079,1117.9Z"/>
    <path id="路径_7857" data-name="路径 7857" class="cls-7" d="M616.992,1143.88l.861,2.882s6.935-13.864,16.6-12.152,18.887-1.671,23.751-12.359a17.642,17.642,0,0,0-1.129-4.355s-5.926,14.774-20.72,13.063S616.992,1143.88,616.992,1143.88Z"/>
    <path id="路径_7858" data-name="路径 7858" class="cls-8" d="M618.456,1149.79l-.3,3.394s18.909-.985,36.03-.956c0,0-1.347-1.8.009-3.089S620.425,1147.018,618.456,1149.79Z"/>
  </g>
</svg>
