<svg xmlns="http://www.w3.org/2000/svg" width="65.715" height="139.895" viewBox="0 0 65.715 139.895">
  <defs>
    <style>
      .cls-1 {
        fill: #e4f2f2;
        stroke-linejoin: round;
      }

      .cls-2 {
        fill: #ffddba;
      }

      .cls-3 {
        fill: #a06eae;
      }

      .cls-4 {
        fill: #784e83;
      }

      .cls-5 {
        fill: #724d81;
      }

      .cls-6 {
        fill: #fed;
      }

      .cls-7, .cls-8 {
        stroke: none;
      }

      .cls-8 {
        fill: #fff;
      }
    </style>
  </defs>
  <g id="组_3150" data-name="组 3150" transform="translate(-232.428 -1251.414)">
    <g id="路径_7908" data-name="路径 7908" class="cls-1">
      <path class="cls-7" d="M 267.8629760742188 1388.809326171875 C 267.8619995117188 1388.809326171875 267.8617858886719 1388.809326171875 267.8608093261719 1388.809326171875 C 260.1780700683594 1388.80908203125 252.9434356689453 1387.749267578125 249.4666290283203 1387.239990234375 L 249.2998657226563 1387.215576171875 C 244.7322845458984 1386.547607421875 241.4056854248047 1384.6640625 239.4193878173828 1383.201538085938 C 238.3053436279297 1382.38134765625 237.3327331542969 1381.483642578125 236.6067047119141 1380.605590820313 C 235.6690521240234 1379.4716796875 235.2121276855469 1378.457641601563 235.2100219726563 1377.505737304688 C 235.2090454101563 1377.429077148438 235.1988372802734 1377.099487304688 235.1880493164063 1376.750854492188 C 234.7241058349609 1361.765869140625 234.9668426513672 1350.286254882813 235.2521667480469 1343.294677734375 C 235.6102142333984 1334.521362304688 236.2617340087891 1326.967163085938 237.1885833740234 1320.842041015625 C 238.3750305175781 1313.001708984375 239.9830322265625 1307.527709960938 242.1044616699219 1304.107299804688 C 246.3928833007813 1297.19384765625 247.7006072998047 1288.25439453125 248.0425109863281 1281.972412109375 C 248.3171997070313 1276.925170898438 248.0286712646484 1272.730224609375 247.8480072021484 1270.795776367188 C 247.0817413330078 1270.298217773438 246.1631317138672 1269.357055664063 245.7199249267578 1267.604858398438 C 245.3696746826172 1266.220092773438 245.4208679199219 1264.748413085938 245.5255279541016 1263.757690429688 C 245.6230163574219 1262.834716796875 245.8359832763672 1261.579711914063 246.2969818115234 1260.842041015625 L 246.3320922851563 1260.785888671875 C 246.5864868164063 1260.145751953125 246.9943389892578 1259.4150390625 247.6470031738281 1258.681884765625 L 247.9251861572266 1258.23681640625 L 248.0007019042969 1258.30908203125 C 248.1707305908203 1258.140625 248.3546600341797 1257.97265625 248.5534057617188 1257.806640625 C 250.1341857910156 1256.485961914063 252.3830108642578 1255.512573242188 255.2373962402344 1254.913330078125 C 258.2664794921875 1254.278198242188 262.2098999023438 1253.913940429688 266.0570983886719 1253.913940429688 C 269.1064147949219 1253.913940429688 273.5183715820313 1254.151489257813 277.2203369140625 1255.282958984375 C 279.0672607421875 1255.847534179688 280.5900573730469 1256.593505859375 281.7465209960938 1257.500366210938 C 282.1208190917969 1257.793823242188 282.4589538574219 1258.104248046875 282.760498046875 1258.430786132813 L 284.0149841308594 1257.423706054688 L 284.5790405273438 1261.84375 C 284.9841003417969 1264.950439453125 284.1889038085938 1267.15234375 283.450439453125 1268.452514648438 C 283.0790100097656 1269.1064453125 282.6773376464844 1269.615844726563 282.3284912109375 1269.9921875 C 280.0365295410156 1285.249145507813 286.148681640625 1300.03173828125 290.2174377441406 1309.8720703125 C 292.0467224121094 1314.296264648438 293.4916381835938 1317.790771484375 293.7954406738281 1320.34130859375 C 294.2917785644531 1324.51220703125 295.1838989257813 1337.898071289063 295.5093688964844 1350.223876953125 C 295.7017822265625 1357.510131835938 295.6869201660156 1363.633544921875 295.4651794433594 1368.424072265625 C 295.0860595703125 1376.615844726563 294.1612243652344 1379.149658203125 293.49853515625 1380.342895507813 L 293.3800964355469 1380.55615234375 L 293.2226257324219 1380.742553710938 C 290.6780090332031 1383.754272460938 286.8336181640625 1385.95068359375 281.7962036132813 1387.270874023438 C 277.9010925292969 1388.291625976563 273.2127685546875 1388.809326171875 267.8629760742188 1388.809326171875 Z"/>
      <path class="cls-8" d="M 266.0570678710938 1256.413940429688 C 262.1827697753906 1256.413940429688 258.4021606445313 1256.804077148438 255.7510070800781 1257.359985351563 C 250.1920166015625 1258.526977539063 248.8110046386719 1260.876953125 248.489990234375 1262.22998046875 C 248.4660034179688 1262.2080078125 248.4409790039063 1262.18994140625 248.4169921875 1262.1669921875 C 248.0769958496094 1262.711059570313 247.2109985351563 1267.567016601563 249.2999877929688 1268.754028320313 C 249.2999877929688 1268.754028320313 249.6109924316406 1268.97900390625 250.2050170898438 1269.318969726563 L 250.2039794921875 1269.318969726563 C 250.2039794921875 1269.318969726563 253.1029968261719 1291.119018554688 244.22900390625 1305.425048828125 C 235.3560180664063 1319.73095703125 237.7100219726563 1376.23095703125 237.7100219726563 1377.4990234375 C 237.7100219726563 1378.765991210938 242.2369995117188 1383.656005859375 249.6619873046875 1384.741943359375 C 253.0653991699219 1385.240234375 260.2377014160156 1386.309326171875 267.86083984375 1386.309326171875 C 276.8685302734375 1386.309326171875 286.506591796875 1384.817626953125 291.31298828125 1379.129028320313 C 294.9339904785156 1372.609008789063 292.2179565429688 1328.241943359375 291.31298828125 1320.636962890625 C 290.4070129394531 1313.031005859375 276.1010131835938 1291.661987304688 279.9949951171875 1268.754028320313 C 279.9949951171875 1268.754028320313 282.7109985351563 1266.85302734375 282.0999755859375 1262.1669921875 C 282.0999755859375 1262.1669921875 282.0660400390625 1262.193969726563 282.0150146484375 1262.232055664063 C 281.16943359375 1257.834106445313 273.4454345703125 1256.413940429688 266.0570678710938 1256.413940429688 M 266.0570678710938 1251.413940429688 C 269.2767639160156 1251.413940429688 273.9538269042969 1251.67041015625 277.9510498046875 1252.892211914063 C 280.093505859375 1253.546997070313 281.8895263671875 1254.435546875 283.2891540527344 1255.533081054688 C 284.7548217773438 1256.682373046875 285.829345703125 1258.092895507813 286.4549560546875 1259.673583984375 C 286.7652587890625 1260.236694335938 286.9723205566406 1260.86328125 287.0580139160156 1261.5205078125 C 287.5525512695313 1265.313232421875 286.5513000488281 1268.055053710938 285.624267578125 1269.687133789063 C 285.3248291015625 1270.21435546875 285.0101623535156 1270.671142578125 284.7020568847656 1271.062622070313 C 282.8034057617188 1285.396728515625 288.6290283203125 1299.487670898438 292.5277099609375 1308.916748046875 C 294.5048828125 1313.698486328125 295.9334106445313 1317.153442382813 296.2778930664063 1320.045532226563 C 296.769287109375 1324.175048828125 297.6682739257813 1337.27392578125 298.0084838867188 1350.157836914063 C 298.2024536132813 1357.50439453125 298.18701171875 1363.68896484375 297.9625244140625 1368.53955078125 C 297.56591796875 1377.109130859375 296.5881958007813 1379.9287109375 295.6841125488281 1381.556640625 C 295.5265502929688 1381.84033203125 295.3417358398438 1382.108032226563 295.1322631835938 1382.35595703125 C 292.2489013671875 1385.7685546875 287.9752197265625 1388.23583984375 282.429931640625 1389.689086914063 C 278.3275756835938 1390.76416015625 273.4258117675781 1391.309326171875 267.86083984375 1391.309326171875 C 259.9970092773438 1391.309326171875 252.6408996582031 1390.231689453125 249.105712890625 1389.713745117188 L 248.9376831054688 1389.689208984375 C 243.8599243164063 1388.946533203125 240.1527709960938 1386.846069335938 237.9371337890625 1385.214721679688 C 236.6607971191406 1384.275024414063 235.5345153808594 1383.232055664063 234.6800537109375 1382.19873046875 C 233.3645324707031 1380.607788085938 232.7198791503906 1379.081665039063 232.7101440429688 1377.53466796875 C 232.7083129882813 1377.443725585938 232.6986389160156 1377.130981445313 232.6892395019531 1376.828125 C 232.2230224609375 1361.769165039063 232.4672546386719 1350.225219726563 232.7542724609375 1343.192749023438 C 233.1159973144531 1334.32861328125 233.7762756347656 1326.682983398438 234.7167358398438 1320.468017578125 C 235.954833984375 1312.286254882813 237.6764221191406 1306.503540039063 239.9799194335938 1302.789672851563 C 244.00537109375 1296.300048828125 245.2315063476563 1287.761962890625 245.55126953125 1281.742065429688 C 245.7695922851563 1277.632446289063 245.6080932617188 1274.155395507813 245.44921875 1272.070556640625 C 244.585205078125 1271.241088867188 243.7509765625 1270.015380859375 243.2962951660156 1268.218139648438 C 242.8556213378906 1266.47607421875 242.913330078125 1264.688232421875 243.0393371582031 1263.495239257813 C 243.2855224609375 1261.16455078125 243.8341979980469 1260.088134765625 244.0984191894531 1259.645141601563 C 244.5964050292969 1258.480102539063 245.4588928222656 1257.13427734375 246.9505310058594 1255.888061523438 C 248.8489990234375 1254.302001953125 251.4642944335938 1253.15087890625 254.7237243652344 1252.466674804688 C 257.9147338867188 1251.797607421875 262.0451354980469 1251.413940429688 266.0570678710938 1251.413940429688 Z"/>
    </g>
    <path id="路径_7909" data-name="路径 7909" class="cls-2" d="M250.2,1269.319s2.9,21.8-5.975,36.106-6.519,70.806-6.519,72.074,4.527,6.157,11.952,7.243,32.777,4.89,41.651-5.613c3.621-6.52.9-50.887,0-58.492s-15.212-28.975-11.318-51.883Z"/>
    <path id="路径_7910" data-name="路径 7910" class="cls-3" d="M248.417,1263.253s-.747-4.2,7.334-5.893,26.688-1.856,26.349,5.893a27.929,27.929,0,0,0-5.081,5.118,4.093,4.093,0,0,1-3.331,1.692l-19.169-.469c-3.058-.075-5.631-2.748-6.1-6.341Z"/>
    <path id="路径_7911" data-name="路径 7911" class="cls-4" d="M249.3,1268.754s11.952,8.693,30.695,0c0,0,2.716-1.9,2.105-6.587,0,0-18.132,14.4-33.683,0C248.077,1262.711,247.211,1267.567,249.3,1268.754Z"/>
    <path id="路径_7912" data-name="路径 7912" class="cls-5" d="M239.391,1323.1s29.922,14.521,52.1-.695c.41,5.126,2.13,31,1.608,32.27s-36.311,15.67-55.676-1.172A208.939,208.939,0,0,1,239.391,1323.1Z"/>
    <path id="路径_7913" data-name="路径 7913" class="cls-6" d="M253.073,1334.353s6.631,2.467,24.314,0c1.106,2.1,2.548,13.149,1.327,13.447-15.694,3.824-26.194.863-26.857-.741S252.078,1335.093,253.073,1334.353Z"/>
  </g>
</svg>
