<svg xmlns="http://www.w3.org/2000/svg" width="153.075" height="105.108" viewBox="0 0 153.075 105.108">
  <defs>
    <style>
      .cls-1 {
        fill: #444243;
      }

      .cls-2 {
        fill: #fff;
      }

      .cls-3 {
        fill: #f5c057;
      }
    </style>
  </defs>
  <g id="组_3116" data-name="组 3116" transform="translate(-922.785 -1070.256)">
    <path id="路径_7632" data-name="路径 7632" class="cls-1" d="M938.1,1116.217s-10.516-14.053,6.377-15.93,43.169-3.754,48.8,5.631,5.631,33.784,5.631,33.784h20.048l-1.135,5.086-24.544.545Z"/>
    <circle id="椭圆_1148" data-name="椭圆 1148" class="cls-1" cx="18.769" cy="18.769" r="18.769" transform="translate(940.721 1137.825)"/>
    <circle id="椭圆_1149" data-name="椭圆 1149" class="cls-2" cx="11.262" cy="11.262" r="11.262" transform="translate(948.229 1145.333)"/>
    <path id="路径_7633" data-name="路径 7633" class="cls-3" d="M1015.8,1070.256h15.016v13.138h-1.877l20.646,37.539s20.646,3.754,20.646,7.508-7.507,3.754-16.892,3.754-20.646,13.138-18.769,26.277H923.828s-9.384-41.293,28.154-46.924,43.17,24.4,41.293,33.785h24.4s9.385-33.785-1.877-60.062Z"/>
    <path id="路径_7634" data-name="路径 7634" class="cls-1" d="M998.906,1079.64v5.631h24.4v-7.508h-24.4Z"/>
    <path id="路径_7635" data-name="路径 7635" class="cls-1" d="M1042.976,1136.866l14.115,21.606a1.838,1.838,0,0,0,1.877-1.877c0-1.877-12.152-22.512-12.152-22.512Z"/>
    <circle id="椭圆_1150" data-name="椭圆 1150" class="cls-1" cx="18.769" cy="18.769" r="18.769" transform="translate(1038.321 1137.825)"/>
    <circle id="椭圆_1151" data-name="椭圆 1151" class="cls-2" cx="11.262" cy="11.262" r="11.262" transform="translate(1045.829 1145.333)"/>
  </g>
</svg>
