<svg xmlns="http://www.w3.org/2000/svg" width="144.901" height="137.972" viewBox="0 0 144.901 137.972">
  <defs>
    <style>
      .cls-1, .cls-9 {
        fill: #fff;
      }

      .cls-1, .cls-5 {
        stroke-linejoin: round;
      }

      .cls-2 {
        fill: #ffb357;
      }

      .cls-3 {
        fill: #b2b2b2;
      }

      .cls-4 {
        fill: #dfdfdf;
      }

      .cls-5 {
        fill: none;
        stroke: #b2b2b2;
        stroke-linecap: round;
        stroke-width: 0.562px;
      }

      .cls-6 {
        fill: #ff9d27;
      }

      .cls-7 {
        fill: #b77b3e;
      }

      .cls-8, .cls-9 {
        stroke: none;
      }
    </style>
  </defs>
  <g id="组_3056" data-name="组 3056" transform="translate(-1232.076 -1253.501)">
    <g id="路径_7373" data-name="路径 7373" class="cls-1">
      <path class="cls-8" d="M 1324.377197265625 1388.972412109375 C 1324.377197265625 1388.972412109375 1324.377197265625 1388.972412109375 1324.377075195313 1388.972412109375 C 1324.114624023438 1388.972412109375 1323.852172851563 1388.948120117188 1323.5927734375 1388.900024414063 C 1322.738159179688 1388.860595703125 1321.941040039063 1388.5595703125 1321.27685546875 1388.023315429688 C 1318.449584960938 1385.744262695313 1313.401733398438 1381.7138671875 1307.010864257813 1376.611328125 C 1294.893432617188 1366.936645507813 1278.298217773438 1353.6865234375 1264.6708984375 1342.653198242188 C 1257.221923828125 1336.6220703125 1251.398315429688 1331.849853515625 1247.361694335938 1328.468994140625 C 1245.072387695313 1326.551635742188 1243.293579101563 1325.02783203125 1242.074462890625 1323.940063476563 C 1239.96435546875 1322.05712890625 1239.555786132813 1321.528930664063 1239.327880859375 1320.799926757813 C 1239.022827148438 1319.822875976563 1238.453369140625 1316.498657226563 1237.226806640625 1309.146240234375 C 1236.33349609375 1303.790893554688 1235.320922851563 1297.720947265625 1234.648315429688 1294.451782226563 C 1234.5771484375 1294.107666015625 1234.55859375 1293.755004882813 1234.593017578125 1293.398559570313 C 1234.478637695313 1291.962524414063 1235.072143554688 1290.564208984375 1236.210693359375 1289.65478515625 C 1236.88427734375 1289.115478515625 1237.722412109375 1288.44091796875 1238.692993164063 1287.659790039063 C 1243.711303710938 1283.62109375 1252.110473632813 1276.861572265625 1260.385009765625 1270.578002929688 C 1270.677978515625 1262.761474609375 1277.554565429688 1258.117553710938 1281.40771484375 1256.380859375 C 1281.967407226563 1256.128662109375 1282.563232421875 1256.000854492188 1283.178833007813 1256.000854492188 C 1283.8056640625 1256.000854492188 1284.415283203125 1256.132934570313 1284.990966796875 1256.393432617188 C 1292.60498046875 1259.838745117188 1332.901000976563 1282.774658203125 1356.97705078125 1296.478393554688 C 1363.912231445313 1300.425903320313 1369.39013671875 1303.543823242188 1372.250244140625 1305.150268554688 C 1373.6904296875 1305.95849609375 1374.536865234375 1307.493286132813 1374.47119140625 1309.128295898438 C 1374.475952148438 1309.200561523438 1374.478393554688 1309.279541015625 1374.476684570313 1309.364379882813 L 1374.130859375 1339.337768554688 L 1374.125 1339.846435546875 L 1373.9208984375 1340.312255859375 L 1373.498046875 1341.277709960938 L 1373.081909179688 1342.228271484375 L 1372.89013671875 1342.665893554688 L 1372.550415039063 1343.002075195313 L 1327.336059570313 1387.742431640625 C 1326.542602539063 1388.53564453125 1325.492309570313 1388.972412109375 1324.377197265625 1388.972412109375 Z"/>
      <path class="cls-9" d="M 1283.178833007813 1258.500854492188 C 1282.92529296875 1258.500854492188 1282.672241210938 1258.553100585938 1282.43505859375 1258.660034179688 C 1273.150024414063 1262.844970703125 1245.369995117188 1285.524047851563 1237.77099609375 1291.608032226563 C 1237.193969726563 1292.068969726563 1236.985961914063 1292.781005859375 1237.118041992188 1293.433959960938 C 1237.077026367188 1293.593994140625 1237.058959960938 1293.764038085938 1237.097045898438 1293.947998046875 C 1238.468017578125 1300.612060546875 1241.14599609375 1318.234985351563 1241.713989257813 1320.053955078125 C 1242.357055664063 1322.110961914063 1309.16796875 1375.051025390625 1322.847045898438 1386.078002929688 C 1323.135498046875 1386.310913085938 1323.464111328125 1386.404418945313 1323.786376953125 1386.404418945313 C 1323.817016601563 1386.404418945313 1323.847534179688 1386.403564453125 1323.878051757813 1386.401977539063 C 1324.039794921875 1386.447875976563 1324.2080078125 1386.472412109375 1324.377197265625 1386.472412109375 C 1324.797729492188 1386.472412109375 1325.224243164063 1386.320922851563 1325.572998046875 1385.969970703125 L 1370.7919921875 1341.224975585938 C 1371.08203125 1340.56298828125 1371.340942382813 1339.970947265625 1371.630981445313 1339.308959960938 L 1371.97705078125 1309.321044921875 C 1371.97900390625 1309.27099609375 1371.965942382813 1309.22802734375 1371.961059570313 1309.180053710938 C 1372.046020507813 1308.465942382813 1371.720947265625 1307.719970703125 1371.026000976563 1307.329956054688 C 1358.305053710938 1300.18505859375 1293.652954101563 1263.057006835938 1283.9599609375 1258.671020507813 C 1283.711181640625 1258.558471679688 1283.44482421875 1258.500854492188 1283.178833007813 1258.500854492188 M 1324.004028320313 1354.149047851563 C 1324.047973632813 1354.154052734375 1324.093017578125 1354.159057617188 1324.137939453125 1354.161010742188 L 1324.088012695313 1354.2099609375 L 1324.004028320313 1354.149047851563 M 1283.178833007813 1253.500854492188 C 1283.178955078125 1253.500854492188 1283.17919921875 1253.500854492188 1283.179321289063 1253.500854492188 C 1284.163696289063 1253.500854492188 1285.119995117188 1253.707763671875 1286.021484375 1254.11572265625 C 1293.741333007813 1257.60888671875 1334.101196289063 1280.581298828125 1358.215454101563 1294.306762695313 C 1365.146484375 1298.251708984375 1370.620849609375 1301.367797851563 1373.474487304688 1302.970581054688 C 1375.705444335938 1304.222534179688 1377.031005859375 1306.581298828125 1376.97314453125 1309.106567382813 C 1376.976684570313 1309.196655273438 1376.978149414063 1309.292846679688 1376.9765625 1309.393798828125 L 1376.630615234375 1339.36669921875 C 1376.622924804688 1340.037841796875 1376.480102539063 1340.700561523438 1376.210693359375 1341.3154296875 L 1375.800659179688 1342.251831054688 L 1375.371704101563 1343.231567382813 C 1375.118286132813 1343.809936523438 1374.757690429688 1344.3349609375 1374.308837890625 1344.779052734375 L 1329.099975585938 1389.514038085938 C 1327.834716796875 1390.777099609375 1326.158569335938 1391.472412109375 1324.377197265625 1391.472412109375 C 1324.019409179688 1391.472412109375 1323.661865234375 1391.443969726563 1323.307983398438 1391.387573242188 C 1321.98291015625 1391.29345703125 1320.746215820313 1390.807861328125 1319.706787109375 1389.968872070313 C 1316.885131835938 1387.694213867188 1311.839111328125 1383.665405273438 1305.450561523438 1378.564697265625 C 1293.330444335938 1368.8876953125 1276.731323242188 1355.634643554688 1263.097534179688 1344.595947265625 C 1255.637939453125 1338.556274414063 1249.803466796875 1333.775146484375 1245.75634765625 1330.385498046875 C 1243.447265625 1328.451416015625 1241.6484375 1326.910522460938 1240.410034179688 1325.805419921875 C 1238.304321289063 1323.926513671875 1237.401123046875 1323.01513671875 1236.941772460938 1321.5458984375 C 1236.585083007813 1320.403686523438 1236.088745117188 1317.516845703125 1234.760986328125 1309.557861328125 C 1233.871215820313 1304.22412109375 1232.862670898438 1298.1787109375 1232.199584960938 1294.95556640625 C 1232.092651367188 1294.435913085938 1232.055053710938 1293.90966796875 1232.086669921875 1293.381469726563 C 1231.97998046875 1291.200317382813 1232.910888671875 1289.09326171875 1234.64599609375 1287.704833984375 L 1234.64599609375 1287.704833984375 C 1235.3193359375 1287.165771484375 1236.156372070313 1286.4921875 1237.125610351563 1285.712036132813 C 1242.154296875 1281.665161132813 1250.570678710938 1274.891845703125 1258.873168945313 1268.5869140625 C 1269.318115234375 1260.654907226563 1276.353271484375 1255.916748046875 1280.380493164063 1254.101684570313 C 1281.265258789063 1253.702880859375 1282.206665039063 1253.500854492188 1283.178833007813 1253.500854492188 Z"/>
    </g>
    <path id="路径_7374" data-name="路径 7374" class="cls-2" d="M1237.77,1291.608c7.6-6.084,35.38-28.763,44.665-32.948a1.848,1.848,0,0,1,1.525.011c9.693,4.386,74.345,41.514,87.066,48.659a1.865,1.865,0,0,1,.378,2.972l-45.879,43.365a1.866,1.866,0,0,1-2.364.185l-85.291-59.259A1.865,1.865,0,0,1,1237.77,1291.608Z"/>
    <path id="路径_7375" data-name="路径 7375" class="cls-3" d="M1259.653,1289.917s22.388-16.073,24.4-15.786,72.9,35.877,72.9,36.739-27.268,29.563-31,29.563S1259.653,1289.917,1259.653,1289.917Z"/>
    <path id="路径_7376" data-name="路径 7376" class="cls-4" d="M1266.159,1286.377l69.414,46.654,6.094-5.876-71.825-44.381-4.622,3.2Z"/>
    <ellipse id="椭圆_1000" data-name="椭圆 1000" class="cls-4" cx="4.999" cy="7.056" rx="4.999" ry="7.056" transform="matrix(0.552, -0.834, 0.834, 0.552, 1298.919, 1294.33)"/>
    <line id="直线_109" data-name="直线 109" class="cls-5" y1="5.08" x2="3.16" transform="translate(1305.792 1290.362)"/>
    <line id="直线_110" data-name="直线 110" class="cls-5" x1="6.578" y1="4.521" transform="translate(1305.05 1290.706)"/>
    <path id="路径_7377" data-name="路径 7377" class="cls-6" d="M1238.889,1292.773a1.153,1.153,0,0,0-1.792,1.175c1.371,6.664,4.049,24.287,4.617,26.106.643,2.057,67.454,55,81.133,66.024a1.526,1.526,0,0,0,2.483-1.192l-1.242-30.676Z"/>
    <path id="路径_7378" data-name="路径 7378" class="cls-6" d="M1370.792,1341.225l-45.219,44.746a1.739,1.739,0,0,1-2.97-1.228l1.485-30.533,46.241-45.625a.974.974,0,0,1,1.648.736l-.346,29.988Z"/>
    <ellipse id="椭圆_1001" data-name="椭圆 1001" class="cls-7" cx="10.64" cy="7.16" rx="10.64" ry="7.16" transform="translate(1342.275 1352.147) rotate(-70.952)"/>
  </g>
</svg>
