<svg xmlns="http://www.w3.org/2000/svg" width="87.715" height="148.212" viewBox="0 0 87.715 148.212">
  <defs>
    <style>
      .cls-1 {
        fill: #d92f36;
      }

      .cls-2 {
        fill: #bfbbb2;
      }

      .cls-3 {
        fill: #e5e5e5;
      }

      .cls-4 {
        fill: #299169;
      }

      .cls-5 {
        fill: #e9fbff;
      }

      .cls-6 {
        fill: #63aaba;
      }

      .cls-7 {
        fill: #64af89;
      }

      .cls-8 {
        fill: #fff;
      }

      .cls-9 {
        fill: #a73a2f;
      }

      .cls-10 {
        fill: #722521;
      }
    </style>
  </defs>
  <g id="组_3158" data-name="组 3158" transform="translate(-725.437 -1077.038)">
    <path id="路径_8023" data-name="路径 8023" class="cls-1" d="M784.748,1079.994c-.538-2.919-21.776-5.837-25.54,2.627s6.616,13.574,6.616,13.574,12.2.146,15.966-.73C789.856,1091.086,786.092,1082.038,784.748,1079.994Zm-4.114,14.359c-3.29.766-13.959.638-13.959.638s-9.075-4.466-5.784-11.867,21.859-4.848,22.329-2.3C784.4,1082.614,787.686,1090.525,780.634,1094.353Z"/>
    <path id="路径_8024" data-name="路径 8024" class="cls-2" d="M732.3,1138.622s30.152,6.34,77.146.14"/>
    <path id="路径_8025" data-name="路径 8025" class="cls-2" d="M812.838,1207.582c-5.164,2.536-79.1,5.159-87.21-2.871"/>
    <path id="路径_8026" data-name="路径 8026" class="cls-3" d="M766,1097.494s-1.673,6.791-2.41,7.214-30.356,17.771-31.831,29.606-8.345,79.7-4.657,85.613,80.806,8.511,84.095-.846c3.128-8.9.494-83.262-3.2-89.6s-25.771-23.627-26.509-24.049-1.746-7.41-1.377-7.575S766.6,1097.975,766,1097.494Z"/>
    <path id="路径_8027" data-name="路径 8027" class="cls-4" d="M731.388,1138.777s29.788,4.7,78.475-.372c.15,9.844,2.975,69.177,2.975,69.177s-67.683,6.963-86.657-2.6C726.387,1194.989,730.6,1144.342,731.388,1138.777Z"/>
    <path id="路径_8028" data-name="路径 8028" class="cls-5" d="M730.644,1144.355s34.783,9.028,79.963-.371c.181,4.971,2.114,29.009,2.114,29.009l-87.284,1.116Z"/>
    <path id="路径_8029" data-name="路径 8029" class="cls-1" d="M726.553,1167.043s10.14,6.813,51.45,3.009,33.719-.034,33.719-.034,2.237,21.54,1.116,33.844c-8.5,2.161-47.744,5.3-86.657-1.115C726.365,1195.908,725.883,1171.86,726.553,1167.043Z"/>
    <path id="路径_8030" data-name="路径 8030" class="cls-6" d="M745.538,1163.289s-4.275,0-1.068-3.381,5.344-4.65,5.878-3.8,0,2.536,1.6.422,2.672-4.649,4.276-3.8,4.809,2.959,4.809,3.382-1.068.845-1.6,1.268-5.344,5.917-6.413,6.34S745.538,1163.289,745.538,1163.289Z"/>
    <path id="路径_8031" data-name="路径 8031" class="cls-6" d="M782.939,1158.64s-1.447-.846.964-2.114,3.377-3.8,5.307-1.691,1.929,2.959,1.929,2.959-.482.846.965.423,3.376-1.268,3.859,0,2.411,4.649,1.447,5.072-9.648,2.113-11.577,0A16.442,16.442,0,0,1,782.939,1158.64Z"/>
    <path id="路径_8032" data-name="路径 8032" class="cls-7" d="M759.538,1163.289s-1.939.423,0,.845,20.364.846,20.364.423.484-.845,0-1.268-6.3-10.567-6.788-10.99-3.394-1.69-5.333.423S760.023,1163.289,759.538,1163.289Z"/>
    <path id="路径_8033" data-name="路径 8033" class="cls-8" d="M738.537,1177.871s18.442,4.649,58.277,0v3.8s-47.949,3.8-58.277-.845Z"/>
    <path id="路径_8034" data-name="路径 8034" class="cls-8" d="M738.661,1185.966l22.094.721-.2,1.97s-18.235-.032-22.051-1.159Z"/>
    <path id="路径_8035" data-name="路径 8035" class="cls-8" d="M776.03,1186.951l22.024-1.243.337,1.964s-18.025,1.582-22.1.806Z"/>
    <path id="路径_8036" data-name="路径 8036" class="cls-8" d="M739.653,1192.717s19.539,1.216,56.458-.712l.076,1.972s-39.946,1.646-56.475.274Z"/>
    <path id="路径_8037" data-name="路径 8037" class="cls-1" d="M765.012,1085.592l18.21.744a2.811,2.811,0,0,1,.607,1.488c0,.744-.152,5.765-1.67,6.508s-17.367-.185-17.67-.557S763.343,1085.406,765.012,1085.592Z"/>
    <path id="路径_8038" data-name="路径 8038" class="cls-9" d="M765.243,1096.564s-.35-3.054,0-3.015,16.075,1.161,16.59.972-.532,2.043-.532,2.415S765.243,1096.936,765.243,1096.564Z"/>
    <path id="路径_8039" data-name="路径 8039" class="cls-10" d="M764.517,1096.192s16.011,1.116,17.522.372c.3.744.6,1.86-.3,2.231s-16.918,0-17.22-.743S764.215,1096.192,764.517,1096.192Z"/>
  </g>
</svg>
