<svg xmlns="http://www.w3.org/2000/svg" width="47.559" height="129.007" viewBox="0 0 47.559 129.007">
  <defs>
    <style>
      .cls-1 {
        fill: #3b017b;
      }

      .cls-2 {
        fill: #c984ff;
      }

      .cls-3 {
        fill: #fff;
      }

      .cls-4 {
        fill: #ffffa5;
      }

      .cls-5 {
        fill: #410083;
      }
    </style>
  </defs>
  <g id="组_3133" data-name="组 3133" transform="translate(-1180.759 -1093.63)">
    <path id="路径_7754" data-name="路径 7754" class="cls-1" d="M1197.1,1099.787s-1.515-5.554,6.311-6.059,10.729,1.01,10.982,3.03,1.009,8.583,0,9.214-16.141,1.515-17.411-1.262A5.339,5.339,0,0,1,1197.1,1099.787Z"/>
    <path id="路径_7755" data-name="路径 7755" class="cls-2" d="M1196.98,1104.71s.622,1.01-1.145,3.913-13,8.457-12.244,26.886c7.826,1.263,25.75,2.146,43.548,0,.632-6.69-.126-14.137-6.437-21.332s-7.952-5.806-6.311-8.2C1214.012,1104.71,1196.98,1104.71,1196.98,1104.71Z"/>
    <path id="路径_7756" data-name="路径 7756" class="cls-3" d="M1183.591,1135.509l-.036,5.807s33.471,3.787,43.766-1.136c0-1.072-.182-4.671-.182-4.671S1183.6,1133.871,1183.591,1135.509Z"/>
    <path id="路径_7757" data-name="路径 7757" class="cls-2" d="M1181.242,1209.352s-1.69,7.321,3.864,10.35,7.7-1.388,7.7-1.388-1.136,1.388,4.544,3.534,16.914-.631,17.293-1.893a15.907,15.907,0,0,1,.884-2.272s1.388,3.787,5.175,3.787,7.658-4.8,7.616-6.438,0-5.68,0-5.68S1181.386,1208.464,1181.242,1209.352Z"/>
    <path id="路径_7758" data-name="路径 7758" class="cls-3" d="M1181.242,1204.3s-1.086,3.787,0,5.049,43.331,3.156,47.076,0c0-5.049-1-4.923-1-4.923S1182.428,1200.39,1181.242,1204.3Z"/>
    <path id="路径_7759" data-name="路径 7759" class="cls-4" d="M1183.555,1141.316s-4.129,58.569-1.352,63.113c1.893,1.767,43.659,3.282,45.118,0s1.191-62.861,0-64.249S1183.694,1139.274,1183.555,1141.316Z"/>
    <path id="路径_7760" data-name="路径 7760" class="cls-5" d="M1181.854,1170.794s17.263-16.6,26.793-15.088,13.355,7.636,5.257,21.521-28.254,28.1-32.311,27.688c-.351-.612.107-2.016,0-3.107s13.4-5.584,19.29-23.508c2.357-7.069.084-12.875-11.192-7.237-7.286,4.292-8.017,3.856-7.978,2.943S1181.854,1170.794,1181.854,1170.794Z"/>
    <path id="路径_7761" data-name="路径 7761" class="cls-5" d="M1228.318,1182.928s-18.509,19.823-28.778,23.25c5.24.185,26.28.4,27.781-1.749C1227.7,1201.951,1228.318,1182.928,1228.318,1182.928Z"/>
    <path id="路径_7762" data-name="路径 7762" class="cls-5" d="M1182.406,1159.882s20.877-18.378,31.48-20.492c.883-.646-29.863-.6-30.331,1.926S1182.549,1157.25,1182.406,1159.882Z"/>
  </g>
</svg>
