<svg xmlns="http://www.w3.org/2000/svg" width="150.48" height="140.56" viewBox="0 0 150.48 140.56">
  <defs>
    <style>
      .cls-1 {
        fill: #b6e2ff;
      }

      .cls-2 {
        fill: #83c7ff;
      }

      .cls-3 {
        fill: #aad2e8;
      }

      .cls-4 {
        fill: #6bbbe8;
      }

      .cls-5 {
        fill: #d7f1ff;
      }

      .cls-6 {
        fill: #68eae0;
      }

      .cls-7 {
        fill: #5cd6ca;
      }
    </style>
  </defs>
  <g id="组_3064" data-name="组 3064" transform="translate(-1729.45 -1050.385)">
    <path id="路径_7412" data-name="路径 7412" class="cls-1" d="M1739.019,1077.643a9.622,9.622,0,0,0-9.467,6.593c-2.536,7.1,42.937,89.593,44.459,90.439,0,0,2.648-7.776,8.734-8.453Z"/>
    <path id="路径_7413" data-name="路径 7413" class="cls-2" d="M1827.6,1050.385l-88.579,27.258,43.726,88.579,94.439-26.709Z"/>
    <path id="路径_7414" data-name="路径 7414" class="cls-3" d="M1778.688,1179.182s-5.3-.112-4.677-4.507c2.313-3.719,2.865-6.793,8.734-8.453,4.846,0,3.127,3.381,2.9,3.776S1779.73,1173.858,1778.688,1179.182Z"/>
    <path id="路径_7415" data-name="路径 7415" class="cls-4" d="M1786.125,1168.843l92.186-25.78a2.886,2.886,0,0,0-1.127-3.55c-2.085-1.436-93.781,26.735-93.781,26.735S1786.153,1166.265,1786.125,1168.843Z"/>
    <path id="路径_7416" data-name="路径 7416" class="cls-2" d="M1778.688,1179.182l96.355-26.708s5.409-.789,4.846-3.381l-100.2,27.32A21.769,21.769,0,0,0,1778.688,1179.182Z"/>
    <path id="路径_7417" data-name="路径 7417" class="cls-5" d="M1878.311,1143.063s-2.277,3.859.495,6.325l-99.119,27.025s1.151-3.154,7.457-7.855Z"/>
    <path id="路径_7418" data-name="路径 7418" class="cls-2" d="M1746.649,1093.1s-8.245.587-10.135,10.991c3.66,7.718,10.523,21.461,10.523,21.461s.782-13.2,9.06-13.311Z"/>
    <path id="路径_7419" data-name="路径 7419" class="cls-6" d="M1752.965,1091.336s8.959-3.8,7.945-11.58c0,0,45.135-17.242,53.418-17.749,0,0,3.55,7.691,13.608,6.339,4.987,1.606,11.241,19.524,11.748,22.4-.507.592-4.986,5.41.846,8.2.676,2.113.253,2.113-7.692,4.733s-62.124,19.018-63.307,17.243-3.043-7.269-8.368-6.762C1759.98,1111.79,1751.361,1092.181,1752.965,1091.336Z"/>
    <path id="路径_7420" data-name="路径 7420" class="cls-7" d="M1760.318,1092.35s-1.606.423-.845,3.127,5.663,15.722,7.269,14.707,5.832,1.268,5.916,5.241,60.6-15.89,60.856-16.736.676-.845-.38-2.62-2.62-4.141,1.479-7.565c1.437-1.225-6.508-15.538-10-16.045s-6.987-.507-9.466-4.62c-2.141-1.015-47.783,13.354-48.854,13.918s-1.465.563-1.634,1.8S1765.164,1088.8,1760.318,1092.35Z"/>
    <path id="路径_7421" data-name="路径 7421" class="cls-5" d="M1789.732,1171.9s3.268.788,3.268,8,.113,10.593,5.748,11.044c1.239,0,15.1-6.085,15.1-6.085s-4.846-2.254-5.748-5.973c0-5.522-1.149-11.946-4.508-11.439S1789.732,1171.9,1789.732,1171.9Z"/>
  </g>
</svg>
