<svg xmlns="http://www.w3.org/2000/svg" width="82.343" height="38.039" viewBox="0 0 82.343 38.039">
  <defs>
    <style>
      .cls-1 {
        fill: #02acc4;
      }

      .cls-2 {
        fill: #1dd2ed;
      }

      .cls-3 {
        fill: #fff;
      }
    </style>
  </defs>
  <g id="组_4932" data-name="组 4932" transform="translate(-376.116 -288.647)">
    <rect id="矩形_2347" data-name="矩形 2347" class="cls-1" width="82.343" height="34.544" rx="12.59" transform="translate(376.116 292.142)"/>
    <rect id="矩形_2348" data-name="矩形 2348" class="cls-2" width="82.343" height="34.544" rx="12.59" transform="translate(376.116 288.647)"/>
    <ellipse id="椭圆_2517" data-name="椭圆 2517" class="cls-3" cx="3.34" cy="2.446" rx="3.34" ry="2.446" transform="matrix(0.908, -0.418, 0.418, 0.908, 380.772, 295.282)"/>
    <path id="路径_26420" data-name="路径 26420" class="cls-3" d="M10.354-14.9v.3a10.265,10.265,0,0,0-3.127,1.275,6.081,6.081,0,0,0-1.862,1.894,9.181,9.181,0,0,0-1.06,2.761,3.172,3.172,0,0,1,.786-.42A4.77,4.77,0,0,1,6.5-9.3,3.551,3.551,0,0,1,9.229-8.11a4.613,4.613,0,0,1,1.092,3.245A5.924,5.924,0,0,1,9.73-2.217,4.366,4.366,0,0,1,8.051-.355,4.421,4.421,0,0,1,5.726.3,4.491,4.491,0,0,1,3.24-.436,4.864,4.864,0,0,1,1.458-2.594a7.429,7.429,0,0,1-.64-3.089A9.234,9.234,0,0,1,2-10.252a8.776,8.776,0,0,1,3.347-3.369A9.984,9.984,0,0,1,10.354-14.9Zm-6.189,7.1q-.086,1.485-.086,2.174a14.247,14.247,0,0,0,.285,2.874A4.325,4.325,0,0,0,5.145-.8a1.091,1.091,0,0,0,.84.4,1.084,1.084,0,0,0,.883-.576,4.7,4.7,0,0,0,.387-2.341,8.217,8.217,0,0,0-.721-4.1,1.416,1.416,0,0,0-1.249-.732A2.622,2.622,0,0,0,4.165-7.792Zm14.691-9.267H36.25v2.928H18.857Zm16.36,13q2,.753,3.014,1.076Q37.821-.926,37.45.355a2.735,2.735,0,0,1-1.259,1.76,4.333,4.333,0,0,1-2.158.457H31.945q-3.423,0-3.423-3.25V-7.8H25.433q-.312,7.739-6.318,10.72Q18.3,1.948,16.833.377A8.921,8.921,0,0,0,22.365-7.8H17.092v-2.971H38.015V-7.8H31.643v6.049q0,1.55,1.313,1.55h.71A.971.971,0,0,0,34.6-.748,14.43,14.43,0,0,0,35.216-4.058Z" transform="translate(397.493 314.035)"/>
  </g>
</svg>
