<svg xmlns="http://www.w3.org/2000/svg" width="79.721" height="139.799" viewBox="0 0 79.721 139.799">
  <defs>
    <style>
      .cls-1 {
        fill: #e4f2f2;
        stroke-linejoin: round;
      }

      .cls-2 {
        fill: #b8bdc1;
      }

      .cls-3 {
        fill: #1178ce;
      }

      .cls-4 {
        fill: #cadcea;
      }

      .cls-5 {
        fill: #e1f9ff;
      }

      .cls-6 {
        fill: #006fd3;
      }

      .cls-7 {
        fill: #0028d1;
      }

      .cls-8 {
        fill: #f66;
      }

      .cls-10, .cls-9 {
        stroke: none;
      }

      .cls-10 {
        fill: #fff;
      }
    </style>
  </defs>
  <g id="组_3138" data-name="组 3138" transform="translate(-1282.64 -1269.802)">
    <g id="组_3137" data-name="组 3137">
      <g id="路径_7789" data-name="路径 7789" class="cls-1">
        <path class="cls-9" d="M 1326.1337890625 1407.1005859375 C 1326.133056640625 1407.1005859375 1326.133056640625 1407.1005859375 1326.13232421875 1407.1005859375 C 1319.462768554688 1407.100463867188 1312.318969726563 1407.022094726563 1306.532592773438 1406.885375976563 C 1296.6953125 1406.652954101563 1295.8251953125 1406.387939453125 1295.357666015625 1406.24560546875 L 1296.086059570313 1401.35400390625 L 1346.985961914063 1401.35400390625 L 1351.536865234375 1401.35400390625 L 1349.095947265625 1405.194946289063 C 1348.444458007813 1406.219970703125 1347.346557617188 1406.416870117188 1346.877685546875 1406.500854492188 C 1346.48486328125 1406.5712890625 1345.974731445313 1406.632568359375 1345.318237304688 1406.688110351563 C 1344.19140625 1406.783447265625 1342.594848632813 1406.863891601563 1340.572998046875 1406.92724609375 C 1336.955078125 1407.040649414063 1331.961669921875 1407.1005859375 1326.1337890625 1407.1005859375 Z"/>
        <path class="cls-10" d="M 1296.086059570313 1403.85400390625 C 1297.476684570313 1404.277465820313 1312.694946289063 1404.6005859375 1326.13232421875 1404.6005859375 C 1336.968139648438 1404.6005859375 1346.644897460938 1404.390625 1346.985961914063 1403.85400390625 L 1296.086059570313 1403.85400390625 M 1296.086059570313 1398.85400390625 L 1346.985961914063 1398.85400390625 C 1348.810302734375 1398.85400390625 1350.489868164063 1399.84765625 1351.368286132813 1401.446655273438 C 1352.246704101563 1403.045654296875 1352.184448242188 1404.99609375 1351.205810546875 1406.535888671875 C 1349.9658203125 1408.487060546875 1347.9736328125 1408.84423828125 1347.318969726563 1408.961669921875 C 1346.842529296875 1409.047119140625 1346.273803710938 1409.1162109375 1345.529052734375 1409.17919921875 C 1344.358276367188 1409.2783203125 1342.717163085938 1409.361328125 1340.651245117188 1409.426025390625 C 1337.007446289063 1409.540161132813 1331.98681640625 1409.6005859375 1326.13232421875 1409.6005859375 C 1319.444091796875 1409.6005859375 1312.27880859375 1409.521850585938 1306.473510742188 1409.384643554688 C 1296.294311523438 1409.144165039063 1295.37109375 1408.863037109375 1294.62939453125 1408.637084960938 C 1292.259765625 1407.915405273438 1290.775756835938 1405.567626953125 1291.140625 1403.11767578125 C 1291.50537109375 1400.667602539063 1293.609008789063 1398.85400390625 1296.086059570313 1398.85400390625 Z"/>
      </g>
      <g id="路径_7790" data-name="路径 7790" class="cls-1">
        <path class="cls-9" d="M 1306.615478515625 1404.330200195313 C 1303.281494140625 1404.330200195313 1300.633422851563 1404.288940429688 1298.74462890625 1404.207641601563 C 1295.533935546875 1404.0693359375 1294.499755859375 1403.85302734375 1293.715087890625 1403.155517578125 C 1293.480590820313 1402.947265625 1292.986450195313 1402.589477539063 1292.46337890625 1402.210815429688 C 1291.337036132813 1401.395385742188 1289.935302734375 1400.380615234375 1288.741577148438 1399.192138671875 C 1287.003784179688 1397.4619140625 1286.159057617188 1395.7890625 1286.159057617188 1394.078002929688 C 1286.159057617188 1393.6953125 1286.111450195313 1391.420043945313 1286.045654296875 1388.270874023438 C 1285.823974609375 1377.667846679688 1285.36279296875 1355.604858398438 1285.198364257813 1335.472778320313 C 1285.106323242188 1324.192260742188 1285.122680664063 1315.151611328125 1285.2470703125 1308.601684570313 C 1285.319091796875 1304.804443359375 1285.429321289063 1301.770874023438 1285.574584960938 1299.585083007813 C 1285.800415039063 1296.184326171875 1286.076782226563 1295.1044921875 1286.477905273438 1294.388427734375 C 1287.339599609375 1292.848510742188 1288.646850585938 1291.415649414063 1289.911010742188 1290.030029296875 C 1292.542236328125 1287.14599609375 1294.083129882813 1285.263549804688 1293.2734375 1283.475952148438 C 1292.558349609375 1281.963989257813 1292.5244140625 1280.669311523438 1292.733764648438 1279.66748046875 C 1292.50390625 1278.690307617188 1292.64501953125 1277.69677734375 1293.157958984375 1276.823364257813 C 1294.315063476563 1274.85302734375 1297.126708984375 1273.717041015625 1302.559448242188 1273.02490234375 C 1306.327514648438 1272.544921875 1311.313842773438 1272.301513671875 1317.3798828125 1272.301513671875 C 1325.527709960938 1272.301513671875 1333.07763671875 1272.732666015625 1336.852783203125 1272.98974609375 C 1339.577880859375 1273.17529296875 1342.02197265625 1273.38330078125 1343.921020507813 1273.591064453125 C 1346.828979492188 1273.909423828125 1347.519165039063 1274.119873046875 1347.937744140625 1274.292236328125 C 1348.867309570313 1274.675170898438 1349.843017578125 1275.089477539063 1350.663818359375 1275.57470703125 C 1351.168823242188 1275.873291015625 1352.705444335938 1276.78173828125 1353.0478515625 1278.485473632813 C 1353.126098632813 1278.874633789063 1353.171752929688 1279.477661132813 1352.955322265625 1280.1650390625 C 1353.166748046875 1280.944091796875 1353.131591796875 1281.637329101563 1353.031494140625 1282.159545898438 C 1352.910034179688 1282.792846679688 1352.658813476563 1283.40087890625 1352.27197265625 1283.993286132813 C 1353.32763671875 1285.995483398438 1355.3466796875 1289.689208984375 1357.410766601563 1292.731323242188 C 1357.982421875 1293.573852539063 1358.418212890625 1294.981201171875 1358.824462890625 1299.387939453125 C 1359.093627929688 1302.308959960938 1359.316528320313 1306.2763671875 1359.486694335938 1311.180297851563 C 1359.803100585938 1320.297729492188 1359.924560546875 1332.2890625 1359.828735351563 1344.945190429688 C 1359.732543945313 1357.641723632813 1359.426879882813 1369.719970703125 1358.968139648438 1378.955200195313 C 1358.72021484375 1383.945190429688 1358.432495117188 1388.014282226563 1358.112915039063 1391.049438476563 C 1357.617919921875 1395.751708984375 1357.145263671875 1397.127685546875 1356.708251953125 1397.914184570313 C 1354.603881835938 1401.701782226563 1350.336181640625 1403.787719726563 1344.691528320313 1403.787719726563 C 1343.477172851563 1403.787719726563 1342.539306640625 1403.687622070313 1342.097900390625 1403.629638671875 C 1339.777221679688 1403.703369140625 1319.630249023438 1404.330200195313 1306.615478515625 1404.330200195313 Z"/>
        <path class="cls-10" d="M 1317.3798828125 1274.801513671875 C 1304.73583984375 1274.801513671875 1293.29541015625 1275.884155273438 1295.369018554688 1279.60205078125 C 1295.003051757813 1280.412963867188 1295.027954101563 1281.345947265625 1295.5400390625 1282.421020507813 C 1297.833984375 1287.4189453125 1290.952026367188 1291.512939453125 1288.659057617188 1295.609985351563 C 1286.364990234375 1299.7060546875 1288.659057617188 1391.129028320313 1288.659057617188 1394.078002929688 C 1288.659057617188 1397.026977539063 1293.901000976563 1399.97705078125 1295.3759765625 1401.286987304688 C 1295.829956054688 1401.690551757813 1300.4453125 1401.830200195313 1306.615356445313 1401.830200195313 C 1320.490966796875 1401.830200195313 1342.234985351563 1401.1240234375 1342.234985351563 1401.1240234375 C 1342.234985351563 1401.1240234375 1343.235717773438 1401.287719726563 1344.691528320313 1401.287719726563 C 1347.604125976563 1401.287719726563 1352.338012695313 1400.632446289063 1354.52294921875 1396.699951171875 C 1357.800048828125 1390.802001953125 1358.454956054688 1298.723022460938 1355.342041015625 1294.135009765625 C 1352.22900390625 1289.546997070313 1349.280029296875 1283.650024414063 1349.280029296875 1283.650024414063 C 1350.843994140625 1282.215942382813 1350.879028320313 1281.06005859375 1350.160034179688 1280.032958984375 C 1351.5849609375 1278.60205078125 1349.411010742188 1277.60302734375 1346.985961914063 1276.60400390625 C 1345.569213867188 1276.020629882813 1330.796997070313 1274.801513671875 1317.3798828125 1274.801513671875 M 1317.379516601563 1269.801513671875 C 1317.379638671875 1269.801513671875 1317.379638671875 1269.801513671875 1317.379638671875 1269.801513671875 L 1317.379760742188 1269.801513671875 C 1325.601684570313 1269.801513671875 1333.2158203125 1270.236328125 1337.022705078125 1270.495483398438 C 1339.781127929688 1270.683349609375 1342.260620117188 1270.894409179688 1344.193115234375 1271.10595703125 C 1347.138427734375 1271.428344726563 1348.115966796875 1271.661987304688 1348.889526367188 1271.980590820313 C 1349.903442382813 1272.398193359375 1350.973022460938 1272.853271484375 1351.936157226563 1273.422729492188 C 1353.92724609375 1274.599853515625 1355.1259765625 1276.137573242188 1355.498901367188 1277.992797851563 C 1355.646362304688 1278.7265625 1355.650512695313 1279.465698242188 1355.519897460938 1280.183959960938 C 1355.676147460938 1281.123413085938 1355.614379882813 1281.964721679688 1355.486694335938 1282.630249023438 C 1355.399658203125 1283.084716796875 1355.267822265625 1283.530639648438 1355.091918945313 1283.967407226563 C 1356.188232421875 1285.995483398438 1357.822998046875 1288.886352539063 1359.4794921875 1291.32763671875 C 1360.314575195313 1292.558349609375 1360.854125976563 1294.170776367188 1361.313842773438 1299.158569335938 C 1361.587524414063 1302.126708984375 1361.813354492188 1306.142211914063 1361.985107421875 1311.093505859375 C 1362.302734375 1320.2451171875 1362.424682617188 1332.27392578125 1362.32861328125 1344.964111328125 C 1362.232177734375 1357.694458007813 1361.925537109375 1369.810180664063 1361.465087890625 1379.079223632813 C 1361.21484375 1384.114990234375 1360.923583984375 1388.23046875 1360.599243164063 1391.311279296875 C 1360.085693359375 1396.188720703125 1359.56591796875 1397.91845703125 1358.8935546875 1399.12841796875 C 1357.344482421875 1401.916625976563 1354.813232421875 1404.0068359375 1351.573608398438 1405.172973632813 C 1349.518676757813 1405.912719726563 1347.203247070313 1406.287719726563 1344.691528320313 1406.287719726563 C 1343.50830078125 1406.287719726563 1342.554565429688 1406.20263671875 1341.981689453125 1406.134643554688 C 1338.893676757813 1406.231811523438 1319.356567382813 1406.830200195313 1306.615356445313 1406.830200195313 C 1303.24560546875 1406.830200195313 1300.561401367188 1406.788208007813 1298.636962890625 1406.705322265625 C 1297.481689453125 1406.655517578125 1296.576904296875 1406.590942382813 1295.87109375 1406.5078125 C 1294.585205078125 1406.356323242188 1293.23291015625 1406.07177734375 1292.05419921875 1405.024047851563 C 1291.901611328125 1404.890502929688 1291.379028320313 1404.51220703125 1290.997436523438 1404.23583984375 C 1289.863403320313 1403.414916992188 1288.310424804688 1402.29052734375 1286.977661132813 1400.963745117188 C 1286.090454101563 1400.080322265625 1285.403076171875 1399.215087890625 1284.876220703125 1398.318725585938 C 1284.068603515625 1396.944580078125 1283.659057617188 1395.517822265625 1283.659057617188 1394.078002929688 C 1283.659057617188 1393.721435546875 1283.609252929688 1391.339233398438 1283.546264648438 1388.323120117188 C 1283.324462890625 1377.714965820313 1282.863037109375 1355.641235351563 1282.698486328125 1335.4931640625 C 1282.606201171875 1324.190185546875 1282.622680664063 1315.126586914063 1282.747436523438 1308.55419921875 C 1282.8203125 1304.7177734375 1282.932250976563 1301.644409179688 1283.079956054688 1299.419311523438 C 1283.312866210938 1295.914916992188 1283.6083984375 1294.395629882813 1284.296630859375 1293.166748046875 C 1285.298706054688 1291.376342773438 1286.70458984375 1289.835327148438 1288.064208984375 1288.345092773438 C 1288.951782226563 1287.372192382813 1289.790161132813 1286.453247070313 1290.380615234375 1285.610473632813 C 1290.828247070313 1284.971313476563 1290.955810546875 1284.620727539063 1290.990356445313 1284.495727539063 C 1290.478637695313 1283.39892578125 1290.18994140625 1282.281616210938 1290.132080078125 1281.173217773438 C 1290.10595703125 1280.672241210938 1290.126098632813 1280.177856445313 1290.1923828125 1279.692138671875 C 1290.156372070313 1279.446533203125 1290.134643554688 1279.198974609375 1290.127319335938 1278.9501953125 C 1290.09228515625 1277.764892578125 1290.394775390625 1276.591796875 1291.002197265625 1275.557495117188 C 1292.005249023438 1273.849609375 1293.743774414063 1272.609497070313 1296.317138671875 1271.766235351563 C 1297.88330078125 1271.253051757813 1299.82177734375 1270.853637695313 1302.243530273438 1270.545043945313 C 1306.1162109375 1270.051635742188 1311.208618164063 1269.801513671875 1317.379516601563 1269.801513671875 Z"/>
      </g>
    </g>
    <path id="路径_7791" data-name="路径 7791" class="cls-2" d="M1295.321,1401.83s-1.747,1.26.765,2.024,50.136,1.2,50.9,0,.725-2.788,0-2.71S1298.052,1396.311,1295.321,1401.83Z"/>
    <path id="路径_7792" data-name="路径 7792" class="cls-3" d="M1349.28,1283.65a108.374,108.374,0,0,0,6.062,10.485c3.113,4.588,2.458,96.666-.819,102.565s-12.288,4.423-12.288,4.423-45.384,1.475-46.859.164-6.717-4.26-6.717-7.209-2.294-94.372,0-98.468,9.175-8.191,6.881-13.189C1303.9,1282.421,1349.28,1283.65,1349.28,1283.65Z"/>
    <path id="路径_7793" data-name="路径 7793" class="cls-2" d="M1295.54,1282.421s25.887,14.254,53.74,1.229c2.949-2.7.491-4.424-2.294-6.144S1289.805,1270.379,1295.54,1282.421Z"/>
    <path id="路径_7794" data-name="路径 7794" class="cls-4" d="M1295.54,1279.881s25.887,9.5,53.74.819c2.949-1.8.491-2.949-2.294-4.1S1289.805,1271.853,1295.54,1279.881Z"/>
    <path id="路径_7795" data-name="路径 7795" class="cls-5" d="M1299.194,1349.677a6.935,6.935,0,0,0,0,2.294c.522,7.366.964,36.209.964,38.5s2.053,2.627,4.82,3.113c3.035.532,3.427-5.079,3.427-5.079l-.986-35.307c-.048-1.713-.947-3.084-2.068-3.152Z"/>
    <ellipse id="椭圆_1161" data-name="椭圆 1161" class="cls-6" cx="26.289" cy="23.057" rx="26.289" ry="23.057" transform="translate(1296.211 1301.997)"/>
    <path id="路径_7796" data-name="路径 7796" class="cls-7" d="M1300.1,1337.125s11.333,16.772,32.631,9.173,17.285-29.012,11.24-34.538S1300.1,1337.125,1300.1,1337.125Z"/>
    <path id="路径_7797" data-name="路径 7797" class="cls-5" d="M1300.1,1337.125s45.693,3.843,43.871-25.365c-2.314-2.488-6.747-6.556-7.765-6.383S1300.1,1337.125,1300.1,1337.125Z"/>
    <path id="路径_7798" data-name="路径 7798" class="cls-8" d="M1336.207,1305.377s-4.347,28.044-36.106,31.748c-3.89-3.4-10.092-23.073,10.969-32.84C1318.587,1300.743,1328.159,1301.272,1336.207,1305.377Z"/>
  </g>
</svg>
