<svg xmlns="http://www.w3.org/2000/svg" width="114.679" height="119.616" viewBox="0 0 114.679 119.616">
  <defs>
    <style>
      .cls-1 {
        fill: #e04f4c;
      }

      .cls-2 {
        fill: #e24f4a;
      }

      .cls-3 {
        fill: #f7ad17;
      }

      .cls-4 {
        fill: #ea6d17;
      }

      .cls-5 {
        fill: #ff862c;
      }

      .cls-6 {
        fill: #f0c317;
      }
    </style>
  </defs>
  <g id="组_3104" data-name="组 3104" transform="translate(-1838.096 -1056.789)">
    <path id="路径_7565" data-name="路径 7565" class="cls-1" d="M1884.749,1088.314s-3.467,15.345-13.868,19.069-24.655,13.227-26.582,27.352c0,7.833.642,9.5.642,9.5s14.062,14.253,35.41,15.152h30.081s26.581-4.879,35.57-15.409c1.284-6.036,0-9.246,0-9.246s0-17.978-27.095-27.48c-2.44-1.926-7.7-1.669-13.483-18.941C1901.956,1086.966,1884.749,1088.314,1884.749,1088.314Z"/>
    <rect id="矩形_836" data-name="矩形 836" class="cls-2" width="26.068" height="4.751" transform="translate(1882.181 1056.789)"/>
    <rect id="矩形_837" data-name="矩形 837" class="cls-3" width="109.921" height="8.414" rx="4.131" transform="translate(1840.254 1121.573)"/>
    <rect id="矩形_838" data-name="矩形 838" class="cls-3" width="114.679" height="10.787" rx="5.295" transform="translate(1838.096 1134.093)"/>
    <rect id="矩形_839" data-name="矩形 839" class="cls-4" width="8.668" height="6.485" transform="translate(1898.457 1073.226) rotate(90)"/>
    <path id="路径_7566" data-name="路径 7566" class="cls-5" d="M1908.249,1088.314h-26.068l-1.83-6.421h29.471Z"/>
    <path id="路径_7567" data-name="路径 7567" class="cls-6" d="M1901.314,1073.226H1889.5l-2.183-11.685h15.409Z"/>
    <path id="路径_7568" data-name="路径 7568" class="cls-1" d="M1880.351,1159.39s-.289,6.935,10.755,10.466a54.256,54.256,0,0,1,4.33,6.549l4.016-6.228s10.017-3.146,10.98-10.787Z"/>
    <path id="路径_7569" data-name="路径 7569" class="cls-3" d="M1883.706,1091.767h22.884l.987,2.275h-24.75Z"/>
    <path id="路径_7570" data-name="路径 7570" class="cls-3" d="M1876.97,1103.326h36.238s.729,1.169,3.482,2.645h-42.937A21.2,21.2,0,0,0,1876.97,1103.326Z"/>
    <path id="路径_7571" data-name="路径 7571" class="cls-1" d="M1859.776,1113.005h71.2a42.463,42.463,0,0,1,5.821,4.462h-82.864S1859.377,1113.005,1859.776,1113.005Z"/>
  </g>
</svg>
