<svg xmlns="http://www.w3.org/2000/svg" width="55.774" height="129.897" viewBox="0 0 55.774 129.897">
  <defs>
    <style>
      .cls-1 {
        fill: #ffddba;
      }

      .cls-2 {
        fill: #a06eae;
      }

      .cls-3 {
        fill: #784e83;
      }

      .cls-4 {
        fill: #724d81;
      }

      .cls-5 {
        fill: #fed;
      }
    </style>
  </defs>
  <g id="组_3149" data-name="组 3149" transform="translate(-237.427 -1076.311)">
    <path id="路径_7903" data-name="路径 7903" class="cls-1" d="M250.2,1089.218s2.9,21.8-5.975,36.106-6.519,70.806-6.519,72.074,4.527,6.157,11.952,7.243,32.777,4.89,41.651-5.613c3.621-6.52.9-50.887,0-58.492s-15.212-28.975-11.318-51.883Z"/>
    <path id="路径_7904" data-name="路径 7904" class="cls-2" d="M248.417,1083.152s-.747-4.2,7.334-5.893,26.688-1.856,26.349,5.893a27.93,27.93,0,0,0-5.081,5.118,4.093,4.093,0,0,1-3.331,1.692l-19.169-.469c-3.058-.075-5.631-2.748-6.1-6.341Z"/>
    <path id="路径_7905" data-name="路径 7905" class="cls-3" d="M249.3,1088.653s11.952,8.693,30.695,0c0,0,2.716-1.9,2.105-6.587,0,0-18.132,14.4-33.683,0C248.077,1082.61,247.211,1087.466,249.3,1088.653Z"/>
    <path id="路径_7906" data-name="路径 7906" class="cls-4" d="M239.391,1143s29.922,14.521,52.1-.695c.41,5.126,2.13,31,1.608,32.27s-36.311,15.67-55.676-1.172A208.937,208.937,0,0,1,239.391,1143Z"/>
    <path id="路径_7907" data-name="路径 7907" class="cls-5" d="M253.073,1154.252s6.631,2.467,24.314,0c1.106,2.1,2.548,13.149,1.327,13.447-15.694,3.824-26.194.863-26.857-.741S252.078,1154.992,253.073,1154.252Z"/>
  </g>
</svg>
