<svg xmlns="http://www.w3.org/2000/svg" width="96.185" height="129.116" viewBox="0 0 96.185 129.116">
  <defs>
    <style>
      .cls-1 {
        fill: #e4f2f2;
        stroke-linejoin: round;
      }

      .cls-2 {
        fill: #cfecff;
      }

      .cls-3 {
        fill: #97c8ce;
      }

      .cls-4 {
        fill: #007cc1;
      }

      .cls-5 {
        fill: #009be0;
      }

      .cls-6 {
        fill: #46c168;
      }

      .cls-7 {
        fill: #e9fdff;
      }

      .cls-8 {
        fill: #feffcc;
      }

      .cls-9 {
        fill: #fffeeb;
      }

      .cls-10 {
        fill: #f5f9bd;
      }

      .cls-11 {
        fill: #192a3a;
      }

      .cls-12, .cls-13 {
        stroke: none;
      }

      .cls-13 {
        fill: #fff;
      }
    </style>
  </defs>
  <g id="组_3153" data-name="组 3153" transform="translate(-340.642 -1254.051)">
    <g id="路径_7944" data-name="路径 7944" class="cls-1">
      <path class="cls-12" d="M 369.9660339355469 1380.667114257813 C 367.611572265625 1380.667114257813 365.7557983398438 1380.600341796875 364.4502258300781 1380.468505859375 C 363.6474914550781 1380.387573242188 363.0173034667969 1380.279296875 362.5235900878906 1380.1376953125 C 362.4078674316406 1380.1044921875 362.2975463867188 1380.068603515625 362.1925354003906 1380.030151367188 C 361.9561157226563 1380.054443359375 361.7064514160156 1380.066528320313 361.4424133300781 1380.066528320313 C 358.232177734375 1380.066528320313 353.0897216796875 1378.30615234375 351.590087890625 1377.7666015625 C 349.81298828125 1377.127197265625 348.2210998535156 1376.456909179688 346.9865417480469 1375.828125 C 345.0606384277344 1374.847045898438 344.1076354980469 1374.028686523438 343.6970825195313 1373.003051757813 C 343.4790344238281 1372.457641601563 343.2540283203125 1371.894897460938 343.1676635742188 1361.052734375 C 343.1148376464844 1354.420043945313 343.1453247070313 1346.070434570313 343.2513427734375 1338.144775390625 C 343.3374328613281 1331.710083007813 343.5149230957031 1322.434814453125 343.87158203125 1314.789794921875 C 344.0335388183594 1311.318359375 344.2184448242188 1308.506469726563 344.4212341308594 1306.431884765625 C 344.7322692871094 1303.24951171875 345.0434875488281 1302.13330078125 345.4151000976563 1301.4365234375 C 346.6721801757813 1299.078979492188 348.5160217285156 1294.283325195313 349.8623657226563 1290.78173828125 C 350.8267517089844 1288.273559570313 351.3791198730469 1286.847045898438 351.7389831542969 1286.113525390625 C 351.8019409179688 1285.832397460938 351.9500122070313 1284.88720703125 352.0823364257813 1281.919799804688 C 352.182861328125 1279.66552734375 352.245849609375 1276.944702148438 352.3067626953125 1274.313354492188 C 352.37744140625 1271.259399414063 352.4446411132813 1268.357177734375 352.5656127929688 1266.502563476563 C 352.3338317871094 1265.829345703125 352.10791015625 1264.806518554688 352.2882995605469 1263.65234375 C 352.3789978027344 1261.638671875 353.4141235351563 1260.472534179688 354.6035461425781 1260.049194335938 C 354.8427734375 1259.879516601563 355.095458984375 1259.724609375 355.3656921386719 1259.581787109375 C 356.415771484375 1259.028198242188 357.6779479980469 1258.660766601563 359.226318359375 1258.457641601563 C 359.3206481933594 1258.445068359375 359.4095764160156 1258.433837890625 359.4955444335938 1258.423583984375 C 367.4644775390625 1256.876342773438 381.9564514160156 1256.550659179688 392.7330322265625 1256.550659179688 C 395.6363220214844 1256.550659179688 398.6370849609375 1256.57421875 401.65283203125 1256.620727539063 C 404.0777893066406 1256.584106445313 406.3262023925781 1256.565673828125 408.3358154296875 1256.565673828125 C 412.0488586425781 1256.565673828125 415.0093994140625 1256.628662109375 417.1351928710938 1256.752807617188 C 419.7409057617188 1256.905151367188 421.0900268554688 1257.124145507813 421.9502258300781 1257.608520507813 C 422.6750793457031 1257.90966796875 423.5412292480469 1258.569946289063 424.0252075195313 1260.01220703125 C 424.6486511230469 1261.219604492188 424.5540771484375 1262.213256835938 424.4699096679688 1263.097900390625 C 424.4536437988281 1263.2685546875 424.4368896484375 1263.444580078125 424.4230346679688 1263.637329101563 C 424.4178161621094 1263.851684570313 424.408447265625 1264.0810546875 424.3939208984375 1264.349975585938 L 424.3934020996094 1264.3837890625 C 424.3927612304688 1264.420776367188 424.3919982910156 1264.457641601563 424.3919982910156 1264.498046875 C 424.3919982910156 1265.115478515625 424.3114013671875 1265.937377929688 424.1384887695313 1267.08251953125 C 423.6614685058594 1270.870727539063 422.7240905761719 1275.020263671875 422.3019104003906 1276.792602539063 C 422.6414184570313 1277.530151367188 423.1646728515625 1278.69091796875 423.6927185058594 1279.95654296875 C 425.07666015625 1283.2734375 425.4759826660156 1284.868286132813 425.5760803222656 1285.796142578125 C 426.9729614257813 1289.461791992188 428.544677734375 1293.604614257813 429.7906799316406 1297.049438476563 C 431.9283142089844 1302.959350585938 432.1434020996094 1304.138549804688 432.1804809570313 1304.839965820313 C 432.2333374023438 1305.842651367188 432.4549255371094 1313.511840820313 432.6628723144531 1323.298828125 C 432.8052673339844 1324.51904296875 433.9257202148438 1334.37841796875 434.2423095703125 1345.000122070313 C 434.4414978027344 1351.682739257813 434.2888793945313 1357.374633789063 433.7887268066406 1361.917846679688 C 433.1122131347656 1368.062744140625 431.7982177734375 1372.160278320313 429.7716674804688 1374.444458007813 C 428.5047302246094 1375.872436523438 426.9172668457031 1376.641723632813 425.1743774414063 1376.67431640625 C 424.1477661132813 1376.884521484375 423.0333557128906 1377.013427734375 421.7587585449219 1377.160888671875 L 421.5681762695313 1377.182983398438 C 421.5224914550781 1377.188720703125 421.4720764160156 1377.194213867188 421.4207458496094 1377.199584960938 L 421.3781433105469 1377.2041015625 C 415.5549621582031 1377.924438476563 405.9105834960938 1378.795043945313 396.2013549804688 1379.476684570313 C 385.2678833007813 1380.244384765625 375.9506530761719 1380.667114257813 369.9660339355469 1380.667114257813 Z"/>
      <path class="cls-13" d="M 369.9660339355469 1378.167114257813 C 382.9028015136719 1378.167114257813 409.4825134277344 1376.157836914063 421.0880126953125 1374.720947265625 C 421.1489868164063 1374.713989257813 421.2149963378906 1374.7080078125 421.2680053710938 1374.701049804688 C 422.6749877929688 1374.537963867188 423.8720092773438 1374.405029296875 424.8940124511719 1374.177978515625 L 424.9219970703125 1374.172973632813 C 424.9665222167969 1374.174560546875 425.0128173828125 1374.175415039063 425.0568237304688 1374.175415039063 C 436.2770080566406 1374.181518554688 430.1659851074219 1323.472045898438 430.1659851074219 1323.472045898438 C 430.1659851074219 1323.472045898438 430.3219909667969 1325.050048828125 430.239990234375 1327.090942382813 C 430.0159912109375 1315.715942382813 429.7409973144531 1306.053955078125 429.6839904785156 1304.972045898438 C 429.6029968261719 1303.441040039063 425.9729919433594 1293.85595703125 423.1059875488281 1286.3349609375 L 423.1059875488281 1286.333984375 C 423.1059875488281 1284.267944335938 419.6650085449219 1277.053955078125 419.6650085449219 1277.053955078125 C 419.6650085449219 1277.053955078125 421.06201171875 1271.527954101563 421.6619873046875 1266.739013671875 C 421.802001953125 1265.816040039063 421.8919982910156 1265.026977539063 421.8919982910156 1264.498046875 C 421.8919982910156 1264.413940429688 421.8940124511719 1264.340942382813 421.8949890136719 1264.261962890625 C 421.9089965820313 1264.009033203125 421.9200134277344 1263.761962890625 421.9249877929688 1263.52197265625 C 422.010009765625 1262.27099609375 422.1929931640625 1261.795043945313 421.7120056152344 1260.994995117188 C 421.5379943847656 1260.359985351563 421.2560119628906 1259.947998046875 420.822998046875 1259.866943359375 C 420.2947082519531 1259.286376953125 415.2904357910156 1259.065673828125 408.3355712890625 1259.065673828125 C 406.2590637207031 1259.065673828125 404.0091552734375 1259.085327148438 401.6520080566406 1259.120971679688 C 398.8091430664063 1259.077026367188 395.7999877929688 1259.050659179688 392.733154296875 1259.050659179688 C 380.382080078125 1259.050659179688 367.0879821777344 1259.477294921875 359.8789978027344 1260.89599609375 C 359.7619934082031 1260.909057617188 359.6520080566406 1260.922973632813 359.5539855957031 1260.93603515625 C 358.2269897460938 1261.109985351563 357.2489929199219 1261.4150390625 356.5339965820313 1261.7919921875 C 356.2009887695313 1261.968017578125 355.9320068359375 1262.161010742188 355.7049865722656 1262.363037109375 C 356.0706481933594 1262.133178710938 356.4931945800781 1262.032836914063 356.8846435546875 1262.032836914063 C 357.118408203125 1262.032836914063 357.341064453125 1262.068603515625 357.5339965820313 1262.134033203125 C 357.4385681152344 1262.117309570313 357.3338317871094 1262.109008789063 357.2186889648438 1262.109008789063 C 356.8394165039063 1262.109008789063 356.3473205566406 1262.198120117188 355.7035827636719 1262.363647460938 L 355.7000122070313 1262.364990234375 L 355.6919860839844 1262.366943359375 C 355.6919860839844 1262.366943359375 355.6810607910156 1262.36572265625 355.66162109375 1262.36572265625 C 355.5048828125 1262.36572265625 354.7944641113281 1262.4462890625 354.7820129394531 1263.906982421875 C 354.5450134277344 1265.06494140625 355.1019897460938 1266.100952148438 355.1019897460938 1266.100952148438 C 354.7950134277344 1265.220947265625 354.718994140625 1264.517944335938 354.7829895019531 1263.952026367188 C 354.7829895019531 1264.47705078125 354.8689880371094 1265.170043945313 355.1019897460938 1266.100952148438 C 354.718994140625 1270.641967773438 354.8340148925781 1285.60302734375 354.0329895019531 1287.116943359375 C 353.2309875488281 1288.630981445313 349.7579956054688 1298.60498046875 347.6210021972656 1302.613037109375 C 345.4840087890625 1306.619995117188 345.3059997558594 1370.29296875 346.0180053710938 1372.073974609375 C 346.652099609375 1373.657958984375 357.3581848144531 1377.566528320313 361.4424133300781 1377.566528320313 C 361.9506225585938 1377.566528320313 362.3560180664063 1377.506103515625 362.6270141601563 1377.373046875 C 362.7599487304688 1377.935913085938 365.5790405273438 1378.167114257813 369.9660339355469 1378.167114257813 M 362.8940124511719 1303.10205078125 C 363.8290100097656 1304.572021484375 363.0270080566406 1306.175048828125 363.0270080566406 1306.175048828125 C 363.0270080566406 1306.175048828125 362.9920043945313 1309.347045898438 362.9309997558594 1314.280029296875 C 362.9670104980469 1309.375 363 1306.243041992188 363.0270080566406 1306.175048828125 C 363.1549987792969 1305.850952148438 363.3240051269531 1304.088012695313 362.8940124511719 1303.10205078125 M 362.0920104980469 1300.982055664063 C 361.4970092773438 1299.285034179688 360.7019958496094 1296.66796875 359.9960021972656 1292.970947265625 C 360.6340026855469 1295.661987304688 361.4389953613281 1298.864990234375 362.0920104980469 1300.982055664063 M 358.6539916992188 1282.402954101563 C 358.3250122070313 1277.876953125 358.2109985351563 1272.531005859375 358.47900390625 1266.265014648438 C 358.4800109863281 1266.625 358.4830017089844 1267.050048828125 358.4869995117188 1267.526000976563 C 358.4920043945313 1270.5 358.5190124511719 1277.260009765625 358.6539916992188 1282.402954101563 M 358.2940063476563 1262.807983398438 C 358.3710021972656 1262.952026367188 358.4280090332031 1263.107055664063 358.4679870605469 1263.27197265625 C 358.5249938964844 1263.740966796875 358.5069885253906 1264.348999023438 358.4859924316406 1265.180053710938 L 358.4859924316406 1265.2060546875 C 358.4840087890625 1264.086059570313 358.4639892578125 1263.302978515625 358.2940063476563 1262.807983398438 M 355.7019958496094 1262.364013671875 C 355.7025146484375 1262.363891601563 355.7030639648438 1262.36376953125 355.7035827636719 1262.363647460938 L 355.7049865722656 1262.363037109375 L 355.7019958496094 1262.364013671875 M 369.9660034179688 1383.167114257813 C 367.4937133789063 1383.167114257813 365.6073608398438 1383.098022460938 364.1991577148438 1382.955932617188 C 363.2618103027344 1382.861328125 362.5264587402344 1382.734252929688 361.89208984375 1382.55712890625 C 361.7449340820313 1382.563354492188 361.5950012207031 1382.566528320313 361.4424438476563 1382.566528320313 C 357.9262390136719 1382.566528320313 352.7891845703125 1380.854858398438 350.7437438964844 1380.119018554688 C 348.8697814941406 1379.44482421875 347.1781921386719 1378.731323242188 345.8518676757813 1378.055786132813 C 344.0088195800781 1377.116943359375 342.1909790039063 1375.967651367188 341.3761596679688 1373.932250976563 C 341.0201416015625 1373.041748046875 340.9011840820313 1372.273315429688 340.7971801757813 1368.896240234375 C 340.7371215820313 1366.945190429688 340.6935424804688 1364.31298828125 340.667724609375 1361.072631835938 C 340.6147766113281 1354.422973632813 340.6453247070313 1346.053955078125 340.7515869140625 1338.111328125 C 340.8379211425781 1331.657592773438 341.0160217285156 1322.3525390625 341.3742980957031 1314.673217773438 C 341.5382080078125 1311.159790039063 341.7262268066406 1308.30517578125 341.93310546875 1306.188720703125 C 342.2869873046875 1302.56787109375 342.6690063476563 1301.273071289063 343.209228515625 1300.260131835938 C 344.3938293457031 1298.038330078125 346.2058410644531 1293.32568359375 347.5289001464844 1289.884643554688 C 348.4081115722656 1287.598022460938 348.9371643066406 1286.23046875 349.3303833007813 1285.362182617188 C 349.3885498046875 1284.942626953125 349.496826171875 1283.898315429688 349.5983581542969 1281.496704101563 C 349.6899719238281 1279.329467773438 349.7496643066406 1276.750122070313 349.8074340820313 1274.255615234375 C 349.8757934570313 1271.302124023438 349.9365539550781 1268.678588867188 350.0425415039063 1266.8046875 C 349.7907104492188 1265.901000976563 349.6153259277344 1264.72216796875 349.7978210449219 1263.404541015625 C 349.9283142089844 1261.23486328125 350.8333129882813 1259.867553710938 351.5972595214844 1259.08837890625 C 352.1165161132813 1258.558715820313 352.7312316894531 1258.138305664063 353.3985595703125 1257.845458984375 C 353.6552734375 1257.675415039063 353.9218444824219 1257.517211914063 354.1972045898438 1257.371704101563 C 354.1988830566406 1257.370727539063 354.2005615234375 1257.369873046875 354.2022399902344 1257.369018554688 C 355.5174560546875 1256.675659179688 357.0554504394531 1256.220825195313 358.9041748046875 1255.978393554688 C 358.9741516113281 1255.969116210938 359.0419006347656 1255.96044921875 359.1081848144531 1255.952270507813 C 367.2917785644531 1254.381958007813 381.88720703125 1254.050659179688 392.7331848144531 1254.050659179688 C 395.6361083984375 1254.050659179688 398.6367492675781 1254.074096679688 401.6530456542969 1254.120361328125 C 404.0765686035156 1254.084106445313 406.3245544433594 1254.065673828125 408.3355407714844 1254.065673828125 C 412.0970458984375 1254.065673828125 415.106689453125 1254.130126953125 417.2808837890625 1254.257080078125 C 418.5764465332031 1254.332763671875 419.597412109375 1254.431030273438 420.4021606445313 1254.557250976563 C 421.2601623535156 1254.69189453125 422.1958312988281 1254.900512695313 423.0751037597656 1255.374145507813 C 423.9573059082031 1255.7763671875 424.7380981445313 1256.399047851563 425.3447265625 1257.196899414063 C 425.7532348632813 1257.734130859375 426.0846252441406 1258.352416992188 426.3338928222656 1259.041015625 C 427.1968994140625 1260.8310546875 427.0501403808594 1262.37353515625 426.9586486816406 1263.334716796875 C 426.9448547363281 1263.479858398438 426.9316711425781 1263.618408203125 426.9206237792969 1263.762573242188 C 426.9149475097656 1263.9697265625 426.9059143066406 1264.188842773438 426.892822265625 1264.436889648438 C 426.8924560546875 1264.456665039063 426.8919982910156 1264.4765625 426.8919982910156 1264.498046875 C 426.8919982910156 1265.247436523438 426.8064880371094 1266.152221679688 426.6151123046875 1267.4248046875 C 426.18798828125 1270.8017578125 425.4111328125 1274.440185546875 424.9301452636719 1276.532104492188 C 425.2425231933594 1277.2255859375 425.6202392578125 1278.083862304688 425.9999389648438 1278.993896484375 C 427.3431701660156 1282.213134765625 427.8459777832031 1283.99853515625 428.0207214355469 1285.190795898438 C 429.3937072753906 1288.794555664063 430.9212646484375 1292.825073242188 432.1416320800781 1296.199096679688 C 434.4042663574219 1302.45458984375 434.6243591308594 1303.712890625 434.677001953125 1304.707885742188 C 434.7302856445313 1305.71875 434.9518127441406 1313.367553710938 435.1597290039063 1323.124877929688 C 435.3568115234375 1324.816040039063 436.4262084960938 1334.36083984375 436.7411193847656 1344.923950195313 C 436.9438171386719 1351.721923828125 436.78662109375 1357.53076171875 436.27392578125 1362.189086914063 C 435.5289306640625 1368.958251953125 434.0576477050781 1373.379028320313 431.6436767578125 1376.101440429688 C 429.9557189941406 1378.005004882813 427.8253784179688 1379.05908203125 425.4612731933594 1379.166259765625 C 424.3980712890625 1379.372192382813 423.2954711914063 1379.499755859375 422.0465393066406 1379.644287109375 L 421.8651428222656 1379.665283203125 C 421.8071594238281 1379.67236328125 421.7442932128906 1379.679321289063 421.680419921875 1379.68603515625 L 421.6663513183594 1379.6875 C 415.8005981445313 1380.412353515625 406.1157531738281 1381.286743164063 396.3764343261719 1381.970581054688 C 390.0116882324219 1382.41748046875 378.1171264648438 1383.167114257813 369.9660034179688 1383.167114257813 Z"/>
    </g>
    <path id="路径_7945" data-name="路径 7945" class="cls-2" d="M355.1,1266.1a3.093,3.093,0,0,1,1.432-4.309,8.991,8.991,0,0,1,3.02-.856c6.768-.891,59.488-3.028,61.269-1.069s1.069,1.959,1.069,4.631-2.227,11.844-2.227,12.556,9.885,25.38,10.019,27.919,1.469,52.363.534,60.645-3.206,8.415-8.95,9.083-58.107,3.607-58.641,2.672c-1.47.182-1.336-2.271-.8-6.813s1.2-64.385,1.2-64.385a3.344,3.344,0,0,0-.133-3.073c-.935-1.469-3.34-11.888-3.874-14.426s-.534-21.106-.534-22.575.382-2.939-.535-3.741S353.677,1262,355.1,1266.1Z"/>
    <path id="路径_7946" data-name="路径 7946" class="cls-3" d="M355.692,1262.367s-1.57-.185-.59,3.734c-.383,4.541-.268,19.5-1.069,21.016s-4.275,11.488-6.412,15.5-2.315,67.68-1.6,69.461,14.16,6.5,16.609,5.3c0-1.915.273-70.874.4-71.2a5.9,5.9,0,0,0-.133-3.073c-.768-2-5.477-12.6-4.408-37C358.486,1262.365,358.6,1261.616,355.692,1262.367Z"/>
    <path id="路径_7947" data-name="路径 7947" class="cls-4" d="M355.992,1304.928s-2.137-2.315-2.672-1.247.483,2.316,1.4,3.651a4.658,4.658,0,0,0,2.609,1.692s2.4-4.185,2.226-4.719-.445-1.633-1.068-.906A9.246,9.246,0,0,1,355.992,1304.928Z"/>
    <path id="路径_7948" data-name="路径 7948" class="cls-4" d="M349.854,1335.71s-.751,26.465,0,29.811,3.275,2.129,6.688,3.042,1.962,1.521,3.022-3.042.642-27.073-.285-28.594S349.854,1335.71,349.854,1335.71Z"/>
    <path id="路径_7949" data-name="路径 7949" class="cls-4" d="M349.1,1315.08v18.076s-.055,1.241,4.524,1.066,5.942-4.8,5.942-4.8l-1.108-14.338Z"/>
    <path id="路径_7950" data-name="路径 7950" class="cls-5" d="M359.02,1288.676s1.2,5.61,12.423,4.007c0,0,12.022-3.452,16.964-1.86,0,0-.712,1.192,7.125-.544s5.7,4.675,4.23,8.415,1.068,12.69,7.614,9.217,4.141-7.1,3.473-9.225-4.141-8.274,5.744-9.476c5.343.267,5.679-.675,6.513-2.875,0-2.067-3.441-9.281-3.441-9.281s4.207-16.62,1.158-17.187-53.416-2.25-64.289,1.925c2.112.313,2.013.925,1.952,3.388S358.782,1286.88,359.02,1288.676Z"/>
    <path id="路径_7951" data-name="路径 7951" class="cls-4" d="M368.125,1292.155s-2.274-2.3-2.192,2.08-2.355,6.241,2.516,6.313,4.466-.43,4.466-.43.179,4.6.008,5.638,1.047,1.966,3,1.894,5.683.574,5.845-1.291a47.611,47.611,0,0,0,0-5.022s-1.3-.789.893-.789,6.577.646,6.983-1.435a27.894,27.894,0,0,0,0-6.025,15.174,15.174,0,0,0-2.68-.574c-1.055-.072-4.708.358-4.708.358a2.048,2.048,0,0,1-.569-1.319c0-.761.081-6.285.081-6.285s1.056-1.291-2.029-1.363-6.333,0-6.333,0a.877.877,0,0,0-.812.861c0,.789.325,6.528.325,6.528s.812.789-.569.933A33.585,33.585,0,0,1,368.125,1292.155Z"/>
    <path id="路径_7952" data-name="路径 7952" class="cls-6" d="M362.627,1334.239a6.741,6.741,0,0,1,7.614-4.421c5.877.935,5.61.668,11.087,1.336s23.109-12.386,26.449.82,13.825,2.144,13.825,2.144,1,3.827,5.277,1.567,3.287-12.213,3.287-12.213,6.157,51.108-5.244,50.7c-10.333,1.82-61.717,5.649-62.295,3.2S362.493,1337.725,362.627,1334.239Z"/>
    <path id="路径_7953" data-name="路径 7953" class="cls-7" d="M388.616,1324.66l6.025,42.962s13.358,3.562,22.085,0l6.38-43.841Z"/>
    <path id="路径_7954" data-name="路径 7954" class="cls-8" d="M393.394,1319.836s-10.864,4.684,0,7.89,30.214-.41,29.712-3.945-7.983-5.747-8.695-5.8S396.051,1318.335,393.394,1319.836Z"/>
    <path id="路径_7955" data-name="路径 7955" class="cls-9" d="M403.454,1313.685l3.028-3.428s-1.069,1.232.712,3.428,3.651,8.252.98,9.677-7.392,2.209-7.57-3.526A9.842,9.842,0,0,1,403.454,1313.685Z"/>
    <path id="路径_7956" data-name="路径 7956" class="cls-10" d="M362.476,1343.108l16.314-1.49s-.972-6.885,5.7-2.85a48.708,48.708,0,0,1,7.3-1.268s3.027-5.5,4.808-2.472-.178,5.343,1.425,7.124,7.3,4.453,3.562,9.084-6.946,2.671-6.946,2.671l3.673,22.912-5.68.394a40.508,40.508,0,0,0-1.377-6.029c-.712-1.781-1.365-2.533-2.641-1.979a3.916,3.916,0,0,0-2.524,2.513c-.356,1.247-.778,5.934-.778,5.934l-5.872.282s.416-7.285.238-7.819,1.425-1.643-1.425-.91-8.549.2-8.727,3.4a51.758,51.758,0,0,1-.594,5.554l-6.307-.79Z"/>
    <path id="路径_7957" data-name="路径 7957" class="cls-11" d="M367.549,1342.645l3.76,7.344s3.74,5.877,8.015,3.384.356-5.7.356-5.7a2.036,2.036,0,0,0,0-3.206c-1.781-1.781-.89-2.85-.89-2.85Z"/>
    <path id="路径_7958" data-name="路径 7958" class="cls-11" d="M370.33,1371.006s-1.514-4.809,1.514-5.433,5.877,2.316,7.213-.267,1.781-4.185,3.206-2.761,2.4,3.563,2.048,3.83a12.389,12.389,0,0,1-2.315,1.336c-.891.356-2.239.753-2.316,1.253S371.132,1369.4,370.33,1371.006Z"/>
    <path id="路径_7959" data-name="路径 7959" class="cls-11" d="M395.238,1357.628s-1.547-.1-1.725.969-.415,1.366.178,2.494,1.425,1.128,1.188,2.493a24.584,24.584,0,0,1-.6,2.925c-.168.459.253.754.963,1.26a1.67,1.67,0,0,0,1.625,0Z"/>
  </g>
</svg>
