<svg xmlns="http://www.w3.org/2000/svg" width="50.939" height="143.215" viewBox="0 0 50.939 143.215">
  <defs>
    <style>
      .cls-1 {
        fill: #e4f2f2;
        stroke-linejoin: round;
      }

      .cls-2 {
        fill: #ff7950;
      }

      .cls-3 {
        fill: #eeffdc;
      }

      .cls-4 {
        fill: #e26100;
      }

      .cls-5 {
        fill: #ffe017;
      }

      .cls-6 {
        fill: #3057d1;
      }

      .cls-14, .cls-7 {
        fill: #fff;
      }

      .cls-8 {
        fill: #683e00;
      }

      .cls-9 {
        fill: #47bf47;
      }

      .cls-10 {
        fill: #ff6700;
      }

      .cls-11 {
        fill: #fff200;
      }

      .cls-12 {
        fill: #ff9100;
      }

      .cls-13, .cls-14 {
        stroke: none;
      }
    </style>
  </defs>
  <g id="组_3131" data-name="组 3131" transform="translate(-1079.124 -1256.498)">
    <g id="路径_7731" data-name="路径 7731" class="cls-1">
      <path class="cls-13" d="M 1101.9697265625 1397.212890625 C 1101.969116210938 1397.212890625 1101.968627929688 1397.212890625 1101.968017578125 1397.212890625 C 1097.744995117188 1397.212890625 1094.044189453125 1397.150390625 1091.265380859375 1397.0322265625 C 1086.388793945313 1396.82470703125 1085.337768554688 1396.503540039063 1084.67919921875 1396.192504882813 C 1083.387573242188 1395.582397460938 1082.491821289063 1394.491455078125 1082.089111328125 1393.037719726563 C 1081.83544921875 1392.122314453125 1081.783203125 1391.05859375 1081.933959960938 1389.875732421875 C 1082.068115234375 1388.822631835938 1082.33740234375 1387.859985351563 1082.543701171875 1387.228149414063 C 1082.414428710938 1386.52392578125 1082.323364257813 1385.790649414063 1082.267333984375 1385.006225585938 C 1081.938354492188 1380.399047851563 1081.6875 1360.162109375 1081.635131835938 1343.258911132813 C 1081.604370117188 1333.314453125 1081.636352539063 1324.596313476563 1081.727905273438 1318.046752929688 C 1081.892944335938 1306.221557617188 1082.197387695313 1305.177734375 1082.360961914063 1304.616943359375 C 1082.89697265625 1302.779174804688 1084.04833984375 1299.257568359375 1085.2119140625 1296.0830078125 C 1085.848876953125 1294.345336914063 1086.402954101563 1292.949584960938 1086.858642578125 1291.934448242188 C 1087.145751953125 1291.294921875 1087.395751953125 1290.802124023438 1087.622802734375 1290.428100585938 C 1087.801391601563 1290.134033203125 1087.977905273438 1289.893798828125 1088.162353515625 1289.693603515625 C 1088.194580078125 1289.65869140625 1088.226928710938 1289.625122070313 1088.259399414063 1289.5927734375 C 1091.439086914063 1283.215454101563 1094.62890625 1279.320434570313 1095.677856445313 1278.12109375 C 1095.80322265625 1277.233764648438 1095.86181640625 1275.013061523438 1095.803955078125 1272.972778320313 L 1095.80322265625 1272.94775390625 L 1095.803100585938 1272.922729492188 C 1095.80078125 1272.650146484375 1095.837890625 1272.386596679688 1095.9111328125 1272.136352539063 C 1095.647094726563 1271.067260742188 1095.300048828125 1269.539428710938 1095.0517578125 1267.992553710938 C 1094.517578125 1264.665161132813 1094.6474609375 1262.690673828125 1095.485961914063 1261.390380859375 C 1095.998168945313 1260.596313476563 1096.772094726563 1260.073608398438 1097.668823242188 1259.914916992188 C 1098.083251953125 1259.836547851563 1102.608276367188 1258.998168945313 1106.386352539063 1258.998168945313 C 1109.296264648438 1258.998168945313 1111.107055664063 1259.474731445313 1112.257446289063 1260.543334960938 C 1113.693359375 1261.87646484375 1114.302612304688 1264.232299804688 1114.119750976563 1267.744995117188 C 1114.051513671875 1269.054321289063 1113.870361328125 1270.4580078125 1113.609497070313 1271.697265625 C 1113.340087890625 1272.977783203125 1113.064697265625 1273.786254882813 1112.676391601563 1274.350219726563 C 1112.630737304688 1274.55712890625 1112.53759765625 1275.255859375 1112.84033203125 1276.817260742188 C 1112.91650390625 1277.21044921875 1113.003173828125 1277.580200195313 1113.083862304688 1277.895141601563 C 1113.651123046875 1278.324951171875 1114.12060546875 1278.885131835938 1114.51123046875 1279.406616210938 C 1115.10888671875 1280.204711914063 1115.781494140625 1281.276611328125 1116.5673828125 1282.683471679688 C 1117.914184570313 1285.09423828125 1119.264038085938 1287.902099609375 1120.1572265625 1289.760131835938 C 1120.284790039063 1290.025634765625 1120.401977539063 1290.269409179688 1120.507080078125 1290.48681640625 C 1121.1416015625 1291.528564453125 1125.45556640625 1298.779052734375 1126.489013671875 1304.982055664063 C 1127.039794921875 1308.2880859375 1127.431884765625 1327.832641601563 1127.534423828125 1345.4306640625 C 1127.582763671875 1353.710205078125 1127.664428710938 1380.620483398438 1126.753662109375 1386.731201171875 C 1126.835571289063 1387.353637695313 1126.983032226563 1388.605834960938 1127.038940429688 1389.92333984375 C 1127.08837890625 1391.086547851563 1127.057983398438 1392.037475585938 1126.945922851563 1392.83056640625 C 1126.861450195313 1393.429565429688 1126.604125976563 1395.252197265625 1125.04736328125 1396.117309570313 C 1124.509887695313 1396.416137695313 1123.92333984375 1396.567138671875 1121.6826171875 1396.7275390625 C 1120.371215820313 1396.821411132813 1118.61474609375 1396.906616210938 1116.461791992188 1396.98095703125 C 1112.185668945313 1397.128295898438 1106.903564453125 1397.212890625 1101.9697265625 1397.212890625 Z"/>
      <path class="cls-14" d="M 1101.967895507813 1394.712890625 C 1112.001708984375 1394.712890625 1123.066162109375 1394.3583984375 1123.8330078125 1393.932006835938 C 1125.198974609375 1393.172973632813 1124.224975585938 1386.696044921875 1124.224975585938 1386.696044921875 C 1125.671997070313 1379.2099609375 1125.004028320313 1311.281005859375 1124.02294921875 1305.392944335938 C 1122.9990234375 1299.246948242188 1118.31103515625 1291.68798828125 1118.31103515625 1291.68798828125 C 1116.822509765625 1288.61669921875 1112.658081054688 1279.665649414063 1111.069458007813 1279.665649414063 C 1111.043212890625 1279.665649414063 1111.017822265625 1279.668090820313 1110.993041992188 1279.672973632813 C 1110.993041992188 1279.672973632813 1109.380004882813 1274.798950195313 1110.556030273438 1272.996948242188 C 1111.162963867188 1272.541015625 1112.681030273438 1264.348022460938 1110.556030273438 1262.375 C 1109.848022460938 1261.717407226563 1108.2294921875 1261.498168945313 1106.386352539063 1261.498168945313 C 1102.69970703125 1261.498168945313 1098.114013671875 1262.375 1098.114013671875 1262.375 C 1096.120971679688 1262.702026367188 1098.057983398438 1270.538940429688 1098.609985351563 1272.593017578125 C 1098.412963867188 1272.681030273438 1098.302001953125 1272.784057617188 1098.302978515625 1272.901977539063 C 1098.302978515625 1272.901977539063 1098.473999023438 1278.932983398438 1097.848022460938 1279.446044921875 C 1097.848022460938 1279.446044921875 1093.984008789063 1283.536010742188 1090.217041015625 1291.276000976563 L 1090.213012695313 1291.274047851563 C 1090.2041015625 1291.271118164063 1090.19482421875 1291.269653320313 1090.185180664063 1291.269653320313 C 1089.365112304688 1291.269653320313 1085.810668945313 1301.71728515625 1084.760986328125 1305.317016601563 C 1083.698974609375 1308.9580078125 1084.154052734375 1376.329956054688 1084.760986328125 1384.828002929688 C 1084.83203125 1385.822021484375 1084.963989257813 1386.672973632813 1085.135009765625 1387.420043945313 L 1085.129028320313 1387.4189453125 C 1085.129028320313 1387.4189453125 1083.015991210938 1392.641967773438 1085.746948242188 1393.932006835938 C 1086.943603515625 1394.497314453125 1094.142456054688 1394.712890625 1101.967895507813 1394.712890625 M 1109.194946289063 1389.994018554688 C 1108.14599609375 1390.048217773438 1107.034790039063 1390.07568359375 1105.871948242188 1390.07568359375 C 1105.70458984375 1390.07568359375 1105.536376953125 1390.075073242188 1105.366943359375 1390.073974609375 C 1106.609985351563 1390.036010742188 1107.890991210938 1390.008056640625 1109.194946289063 1389.994018554688 M 1093.090942382813 1292.026977539063 L 1112.244995117188 1292.405029296875 C 1108.790893554688 1292.72900390625 1105.787719726563 1292.85546875 1103.206176757813 1292.85546875 C 1098.497680664063 1292.85546875 1095.189453125 1292.435180664063 1093.090942382813 1292.026977539063 M 1101.96875 1399.712890625 L 1101.96875 1394.712890625 L 1101.968383789063 1399.712890625 C 1097.710205078125 1399.712890625 1093.972534179688 1399.649658203125 1091.159057617188 1399.529907226563 C 1086.292358398438 1399.322875976563 1084.751708984375 1398.99169921875 1083.611450195313 1398.453002929688 C 1081.670288085938 1397.5361328125 1080.274047851563 1395.849975585938 1079.679809570313 1393.705200195313 C 1079.337158203125 1392.468383789063 1079.261108398438 1391.073608398438 1079.453979492188 1389.559814453125 C 1079.573608398438 1388.62060546875 1079.78076171875 1387.750854492188 1079.98046875 1387.058715820313 C 1079.888671875 1386.456665039063 1079.820190429688 1385.835327148438 1079.773681640625 1385.184448242188 C 1079.44091796875 1380.52392578125 1079.187622070313 1360.211791992188 1079.135131835938 1343.2666015625 C 1079.104248046875 1333.308349609375 1079.136474609375 1324.575317382813 1079.22802734375 1318.011840820313 C 1079.279296875 1314.348266601563 1079.348876953125 1311.39404296875 1079.435180664063 1309.231079101563 C 1079.571533203125 1305.81201171875 1079.72509765625 1304.7255859375 1079.961059570313 1303.916870117188 C 1080.508666992188 1302.0390625 1081.681884765625 1298.449340820313 1082.864624023438 1295.22265625 C 1083.521728515625 1293.429931640625 1084.09814453125 1291.979125976563 1084.577880859375 1290.91064453125 C 1084.912231445313 1290.165771484375 1085.200805664063 1289.600219726563 1085.48583984375 1289.130615234375 C 1085.708740234375 1288.763671875 1085.9375 1288.444091796875 1086.181518554688 1288.15966796875 C 1088.99609375 1282.587890625 1091.830078125 1278.839111328125 1093.26220703125 1277.10693359375 C 1093.324096679688 1276.116577148438 1093.345458984375 1274.471801757813 1093.304931640625 1273.043701171875 C 1093.304077148438 1273.010375976563 1093.303466796875 1272.976928710938 1093.303100585938 1272.943481445313 C 1093.301025390625 1272.6875 1093.3173828125 1272.434814453125 1093.351318359375 1272.187133789063 C 1093.0986328125 1271.1240234375 1092.804443359375 1269.765869140625 1092.583374023438 1268.388793945313 C 1091.942749023438 1264.398315429688 1092.182495117188 1261.900146484375 1093.385131835938 1260.035400390625 C 1094.276611328125 1258.653198242188 1095.635131835938 1257.739624023438 1097.21826171875 1257.455810546875 C 1097.750366210938 1257.355712890625 1102.428955078125 1256.498168945313 1106.386352539063 1256.498168945313 C 1109.975463867188 1256.498168945313 1112.310913085938 1257.180786132813 1113.958984375 1258.711669921875 C 1115.970703125 1260.579467773438 1116.840209960938 1263.5771484375 1116.616333007813 1267.875122070313 C 1116.541625976563 1269.309692382813 1116.342651367188 1270.849975585938 1116.056030273438 1272.212158203125 C 1115.825317382813 1273.307983398438 1115.55126953125 1274.273559570313 1115.126953125 1275.103393554688 C 1115.143920898438 1275.468505859375 1115.225708007813 1275.999633789063 1115.337890625 1276.545043945313 C 1115.725830078125 1276.92529296875 1116.11279296875 1277.374633789063 1116.51220703125 1277.908081054688 C 1117.17724609375 1278.796020507813 1117.9091796875 1279.959228515625 1118.749877929688 1281.464111328125 C 1120.134033203125 1283.941772460938 1121.50390625 1286.791259765625 1122.410278320313 1288.676879882813 C 1122.517333984375 1288.8994140625 1122.616943359375 1289.106689453125 1122.708129882813 1289.295776367188 C 1123.087768554688 1289.926513671875 1124.139038085938 1291.717163085938 1125.274536132813 1294.038940429688 C 1127.212524414063 1298.001220703125 1128.450805664063 1301.544799804688 1128.954956054688 1304.5712890625 C 1129.0576171875 1305.187255859375 1129.369995117188 1307.062133789063 1129.67041015625 1319.40625 C 1129.850463867188 1326.806274414063 1129.979736328125 1336.04345703125 1130.034423828125 1345.416137695313 C 1130.093139648438 1355.478271484375 1130.060791015625 1364.5830078125 1129.941162109375 1371.745849609375 C 1129.782592773438 1381.231079101563 1129.509765625 1384.989135742188 1129.276245117188 1386.753662109375 C 1129.365600585938 1387.484130859375 1129.486206054688 1388.626708984375 1129.536743164063 1389.8173828125 C 1129.592651367188 1391.134399414063 1129.554931640625 1392.234375 1129.421508789063 1393.180053710938 C 1129.3076171875 1393.98681640625 1129.123046875 1394.689086914063 1128.857177734375 1395.326782226563 C 1128.169677734375 1396.976196289063 1127.066284179688 1397.85546875 1126.26171875 1398.302612304688 C 1125.189086914063 1398.89892578125 1124.085815429688 1399.061889648438 1121.861206054688 1399.22119140625 C 1120.519287109375 1399.317260742188 1118.731689453125 1399.404052734375 1116.548095703125 1399.479370117188 C 1112.244262695313 1399.627807617188 1106.930297851563 1399.712890625 1101.96875 1399.712890625 Z"/>
    </g>
    <path id="路径_7732" data-name="路径 7732" class="cls-2" d="M1098.114,1262.375s10.318-1.973,12.442,0,.607,10.166,0,10.622-11.532,1.062-11.835,0S1095.953,1262.729,1098.114,1262.375Z"/>
    <path id="路径_7733" data-name="路径 7733" class="cls-3" d="M1098.3,1272.9s.171,6.031-.455,6.544,9.048,1.194,12.007.455l1.138-.228s-1.613-4.874-.437-6.676C1109.456,1272.1,1098.285,1271.708,1098.3,1272.9Z"/>
    <path id="路径_7734" data-name="路径 7734" class="cls-4" d="M1097.848,1279.446a51.626,51.626,0,0,0-7.966,12.518c-3.869,8.194,29.7,2.162,28.849.569s-6.027-13.2-7.738-12.86S1097.848,1279.446,1097.848,1279.446Z"/>
    <path id="路径_7735" data-name="路径 7735" class="cls-5" d="M1090.213,1291.275s7.989,3.267,28.1.413c0,0,4.688,7.559,5.712,13.7s1.707,79.89,0,81.938-.341,2.732-11.722,2.656-22.023.986-22.088,1.593-4.845,1.745-5.452-6.752-1.062-75.869,0-79.511S1089.449,1291.023,1090.213,1291.275Z"/>
    <path id="路径_7736" data-name="路径 7736" class="cls-4" d="M1085.129,1387.419s-2.113,5.223.618,6.513,36.721.759,38.086,0,.392-7.236.392-7.236S1111.671,1393.8,1085.129,1387.419Z"/>
    <path id="路径_7737" data-name="路径 7737" class="cls-2" d="M1084.174,1351.522s5.518,4.7,6.808,4.931,7.132-3.339,9.408-6.525,21.426-13.581,24.673-11.684c0,3.389-.838,48.452-.838,48.452s-10.277,7.411-39.1.723C1084.6,1381.077,1084.174,1351.522,1084.174,1351.522Z"/>
    <path id="路径_7738" data-name="路径 7738" class="cls-6" d="M1091.433,1316.108a4.773,4.773,0,0,0-1.224,2.8c-.067,1.239,1.155,1.665,1.786,2.528.651.889.305,1.482-.009,2.455-.814,2.518-1.57,5.055-2.444,7.554a8.347,8.347,0,0,0-.826,3.313,8.227,8.227,0,0,0,1.408,3.558c.569.872,2.149,1.405,2.453-.063.126-.613-.106-1.154.134-1.752a1.274,1.274,0,0,1,1.375-.708,9.146,9.146,0,0,0,6.6-2.139c.7-.53,1.627-1.306,2.531-.845.775.4,1.023,1.449,1.7,1.971a3.616,3.616,0,0,0,3.784.557c1.036-.561.958-2.2,1.242-3.186a8.446,8.446,0,0,0,.553,2.11,2.343,2.343,0,0,0,1.607,1.35,11.51,11.51,0,0,0,4.5.05,1.712,1.712,0,0,0,1.076-.377c.8-.8.306-2.484.306-3.461,0-.018,0-.036,0-.054l.327-5.475.269-4.5c.066-1.1.254-2.2.318-3.3.092-1.575-.287-2.912-1.795-3.608-1.076-.5-2.049.1-3.121.335-.936.211-1.893.382-2.835.58a30.563,30.563,0,0,1-6.555.809,13.424,13.424,0,0,1-5.5-.795,2.1,2.1,0,0,0-2.3-.082c-.945.545-1.76,1.124-2.909.675a11.624,11.624,0,0,0-1.361-.623A1.175,1.175,0,0,0,1091.433,1316.108Z"/>
    <path id="路径_7739" data-name="路径 7739" class="cls-7" d="M1092.751,1318.474a2.175,2.175,0,0,0-.392.872c-.04,1.367,1.644,1.662,1.725,2.913a2.155,2.155,0,0,1-.161.815q-1.039,3.093-2.074,6.188l-1.385,4.137c-.125.374-.293.756-.381,1.14a4.512,4.512,0,0,0,.759,2.994l1.027,0c.053,0,.183-2.874,1.559-2.905a27.333,27.333,0,0,0,3.165-.047,9.118,9.118,0,0,0,3.661-1.97,18.86,18.86,0,0,1,3.411-1.894,6,6,0,0,0,1.468,2.686,2.1,2.1,0,0,0,2.8.139,6.739,6.739,0,0,0,.848-1.689c.294-.561.991-1.046,1.531-.716.51.313.43.979.671,1.451a2.257,2.257,0,0,0,1.471,1.149,5.668,5.668,0,0,0,3.353.082c1.453-.552,1.517-2.117,1.478-3.483-.114-4,.026-7.978.169-11.974.027-.738-.016-1.615-.64-2.01-1-.631-3.036.469-4.025.782a18.2,18.2,0,0,1-4.618.987,53.965,53.965,0,0,1-5.505-.433,12.2,12.2,0,0,1-5.025-.956.268.268,0,0,0-.177-.044.248.248,0,0,0-.119.092,8.119,8.119,0,0,1-2.995,1.818c-.247.118-.563.228-.772.051-.159-.135-.208-.409-.412-.453C1093.032,1318.172,1092.884,1318.3,1092.751,1318.474Z"/>
    <path id="路径_7740" data-name="路径 7740" class="cls-8" d="M1098.788,1306.407c-.774,1.739-.953,4.431.442,5.6,1.091.917,2.771.732,4.092.655,1.711-.1,3.525-.272,5.095.561.607.323,1.268.935,1.983.965,2.146.091,1.3-5.875,1.269-7.17-.023-1.109-.171-3.866-2.091-2.793-.594.332-.957.883-1.592,1.179a9.122,9.122,0,0,1-3.759.691,4.137,4.137,0,0,1-2.235-.61c-.293-.193-.553-.436-.864-.6a1.386,1.386,0,0,0-1.8.588A4.41,4.41,0,0,0,1098.788,1306.407Z"/>
    <g id="组_3130" data-name="组 3130">
      <path id="路径_7741" data-name="路径 7741" class="cls-9" d="M1101.1,1380.452s-6.347.275-6.652,1.581,2.266,2.686,4.894,1.878,9.321-2.072,11.959-4.191.931-2.307.931-2.307a11.85,11.85,0,0,0,2.43.7c.291-.1,4.008-1.622,5.149-3.658s1.975-7.126,1.975-7.126-1.268-1.628-4.1,1.436S1101.1,1380.452,1101.1,1380.452Z"/>
      <path id="路径_7742" data-name="路径 7742" class="cls-10" d="M1114.327,1362.289s8,8.656-.2,13.928-11.5,6.648-18.715.89"/>
      <path id="路径_7743" data-name="路径 7743" class="cls-11" d="M1095.272,1374.1a25.211,25.211,0,0,1,13.818-12.258c9.892-3.466,4.284,8.53.866,10.6S1093.611,1383.247,1095.272,1374.1Z"/>
      <path id="路径_7744" data-name="路径 7744" class="cls-12" d="M1103.37,1370.368a3.959,3.959,0,0,1,2.171-1.925c1.554-.545.673,1.34.136,1.665S1103.11,1371.8,1103.37,1370.368Z"/>
    </g>
  </g>
</svg>
