<svg xmlns="http://www.w3.org/2000/svg" width="168.497" height="136.375" viewBox="0 0 168.497 136.375">
  <defs>
    <style>
      .cls-1 {
        fill: #fff007;
      }

      .cls-2 {
        fill: #fa8018;
      }

      .cls-3 {
        fill: #f9a61c;
      }

      .cls-4 {
        fill: #f51b30;
      }

      .cls-5 {
        fill: #ff954d;
      }

      .cls-6 {
        fill: #ffca0a;
      }

      .cls-7 {
        fill: #f68122;
      }
    </style>
  </defs>
  <g id="组_3051" data-name="组 3051" transform="translate(-946.663 -1087.801)">
    <path id="路径_7347" data-name="路径 7347" class="cls-1" d="M968.325,1191.507l-.8-5.018,89.173-91.209s4.8-3.492,7.855-4.364l3.055-.873c-3.055.873-8.728-5.455-18.111,0s-94.7,53.241-94.7,53.241-8.947,3.71-8.074,12.438,8.074,30.112,8.51,31.64S959.161,1195,968.325,1191.507Z"/>
    <path id="路径_7348" data-name="路径 7348" class="cls-2" d="M1070.663,1136.738s8.946-2.673,6.764-13.883-9.819-32.812-9.819-32.812l-20.162,10.314-37.88,45.4-42.041,40.73.8,5.018Z"/>
    <path id="路径_7349" data-name="路径 7349" class="cls-3" d="M967.525,1186.489l96.883-51.72s1.891-2.613,1.018-8.286l-8.728-31.2-96.228,52.8s-4.146-.873-2.837,7.419S963.452,1182.561,967.525,1186.489Z"/>
    <path id="路径_7350" data-name="路径 7350" class="cls-4" d="M968.325,1191.507s2.255,1.673,3.71,1.673,104.447-55.714,104.447-55.714,1.725-3.167-1.61-3.475Z"/>
    <path id="路径_7351" data-name="路径 7351" class="cls-5" d="M968.325,1191.507s-3.6,10.474,9.383,9.383l96.01-52.369s6.754-1.163,8.437-1.018c6.092.527,20.22,4.946,21.238,5.964a2.977,2.977,0,0,1,1.019,1.891s7.128-2.618,6.546-6.255-34.476-11.637-34.476-11.637L972.035,1193.18Z"/>
    <path id="路径_7352" data-name="路径 7352" class="cls-6" d="M967.867,1195.8l2.859,13.674s-4.8,2.327,13.237,8,27.93,9.891,44.659,3.491c15.129-8.146,84.663-55.569,84.663-55.569s4.219,1.018,0-11.783l-1.309-4.073-1.018-.437s1.018,2.91-6.546,6.255c-6.547,4.51-78.7,49.6-78.7,49.6a21.86,21.86,0,0,1-14.2,3.346c-8.061-1.018-33.809-7.419-33.809-7.419S968.325,1201.527,967.867,1195.8Z"/>
    <path id="路径_7353" data-name="路径 7353" class="cls-7" d="M977.708,1200.89s42.271,13.836,47.507,4.744c6.513-4.073,79.2-50.276,79.2-50.276s.23-2.129-5.969-3.985-19.525-5.688-24.725-2.852Z"/>
  </g>
</svg>
