<svg xmlns="http://www.w3.org/2000/svg" width="82.343" height="38.039" viewBox="0 0 82.343 38.039">
  <defs>
    <style>
      .cls-1 {
        fill: #02acc4;
      }

      .cls-2 {
        fill: #1dd2ed;
      }

      .cls-3 {
        fill: #fff;
      }
    </style>
  </defs>
  <g id="组_4935" data-name="组 4935" transform="translate(-722.341 -288.647)">
    <rect id="矩形_2353" data-name="矩形 2353" class="cls-1" width="82.343" height="34.544" rx="12.59" transform="translate(722.341 292.142)"/>
    <rect id="矩形_2354" data-name="矩形 2354" class="cls-2" width="82.343" height="34.544" rx="12.59" transform="translate(722.341 288.647)"/>
    <ellipse id="椭圆_2520" data-name="椭圆 2520" class="cls-3" cx="3.34" cy="2.446" rx="3.34" ry="2.446" transform="matrix(0.908, -0.418, 0.418, 0.908, 726.997, 295.282)"/>
    <path id="路径_26422" data-name="路径 26422" class="cls-3" d="M7.513-8.244a8.112,8.112,0,0,1,2.136,2.1,4.185,4.185,0,0,1,.6,2.233A3.9,3.9,0,0,1,8.917-.92,5.13,5.13,0,0,1,5.306.3,4.832,4.832,0,0,1,1.959-.764a3.372,3.372,0,0,1-1.184-2.6,3.262,3.262,0,0,1,.683-2.056A6,6,0,0,1,3.735-7.039,8.957,8.957,0,0,1,1.512-9.2a3.8,3.8,0,0,1-.49-1.948,3.375,3.375,0,0,1,1.243-2.578,4.92,4.92,0,0,1,3.406-1.114,4.728,4.728,0,0,1,3.213.985,3.037,3.037,0,0,1,1.125,2.362A2.911,2.911,0,0,1,9.4-9.671,5.307,5.307,0,0,1,7.513-8.244Zm-.818-.549A3.779,3.779,0,0,0,7.287-10a5.235,5.235,0,0,0,.194-1.464,3.326,3.326,0,0,0-.6-2.142,1.5,1.5,0,0,0-1.249-.57,1.645,1.645,0,0,0-1.227.522,1.79,1.79,0,0,0-.506,1.3,2.945,2.945,0,0,0,.565,1.631A7.938,7.938,0,0,0,6.695-8.793ZM4.542-6.522a2.339,2.339,0,0,0-.474.549,4.308,4.308,0,0,0-.387,1.1,6.467,6.467,0,0,0-.172,1.507,4.828,4.828,0,0,0,.258,1.7A1.907,1.907,0,0,0,4.5-.689a1.827,1.827,0,0,0,.985.3A1.741,1.741,0,0,0,6.813-.963,2.218,2.218,0,0,0,7.351-2.54Q7.351-4.628,4.542-6.522ZM18.857-17.059H36.25v2.928H18.857Zm16.36,13q2,.753,3.014,1.076Q37.821-.926,37.45.355a2.735,2.735,0,0,1-1.259,1.76,4.333,4.333,0,0,1-2.158.457H31.945q-3.423,0-3.423-3.25V-7.8H25.433q-.312,7.739-6.318,10.72Q18.3,1.948,16.833.377A8.921,8.921,0,0,0,22.365-7.8H17.092v-2.971H38.015V-7.8H31.643v6.049q0,1.55,1.313,1.55h.71A.971.971,0,0,0,34.6-.748,14.43,14.43,0,0,0,35.216-4.058Z" transform="translate(745.284 314.035)"/>
  </g>
</svg>
