<svg xmlns="http://www.w3.org/2000/svg" width="87.421" height="120.731" viewBox="0 0 87.421 120.731">
  <defs>
    <style>
      .cls-1 {
        fill: #7abf0d;
      }

      .cls-2 {
        fill: #8ed641;
      }

      .cls-3 {
        fill: #5aa800;
      }

      .cls-4 {
        fill: #4ce079;
      }

      .cls-5 {
        fill: #fff;
      }

      .cls-6 {
        fill: #293814;
      }

      .cls-7 {
        fill: #5d9910;
      }

      .cls-8 {
        fill: #a3e5f0;
      }
    </style>
  </defs>
  <g id="组_3095" data-name="组 3095" transform="translate(-1678.009 -1064.102)">
    <path id="路径_7510" data-name="路径 7510" class="cls-1" d="M1759.614,1137.194c-4.34-9.891-3.918-11.909-3.936-21.094.336-15.7.336-22.069-5.181-30.682-3.142-4.905-7.222-8.055-13.017-10.38a5.874,5.874,0,1,0-11.18-3.223q-1.26-.268-2.594-.527a22.355,22.355,0,0,0-2.33-.323c0-.028,0-.055,0-.083a6.78,6.78,0,1,0-12.757,3.2,23.924,23.924,0,0,0-6.639,6.088l-11.9,8.882s-23.4,7.266-5.047,33.306a28.477,28.477,0,0,0,19.165,3.286v.005a85.043,85.043,0,0,0-3.618,9.9l.005-.022s-4.931,2.37-7.69.351-5.113,1.279-4.239,3.5,4.037,7.3,8.747,7.889l0,0c-1.376,6.429-.271,10.148-.271,10.148a18.586,18.586,0,0,0,1.552,4.514l-.019-.015s-.221,5.055.89,7.276c-.908,0-3.23-1.413-3.735-1.716a1.831,1.831,0,0,0-2.044,2.422c.429,2.12,3.457,7.166,4.063,8.276s5.046,2.019,7.569,1.817,9.584-1.375,10.545-3.16l0,0c3.18,1.546,5.472,2.4,5.472,2.66,0,.807-.016.4,1.75,3.229a1,1,0,0,0,.106.272l-.011,0a.956.956,0,0,0,.178.223,3.182,3.182,0,0,0,1.566.808,16.733,16.733,0,0,0,5.825.786c2.486-.2,20.385-4.327,29.279-14.571l.068-.079c.11-.128.225-.252.332-.381l-.019.007C1769.707,1158.925,1763.5,1146.042,1759.614,1137.194Z"/>
    <path id="路径_7511" data-name="路径 7511" class="cls-2" d="M1690.085,1089.051s-23.4,7.267-5.047,33.307c15.937,9.285,34.911-1.009,38.343-7.267s-21.4-34.921-21.4-34.921Z"/>
    <path id="路径_7512" data-name="路径 7512" class="cls-2" d="M1701.984,1080.17s7.851-11.573,21.722-8.882,21.6,6.022,26.791,14.13c5.517,8.613,5.517,14.98,5.181,30.682.018,9.185-.4,11.2,3.936,21.094s11.607,24.829-3.028,36.335-32.7,12.515-33.407,9.184c-1.766-2.826-1.75-2.422-1.75-3.229s-21.262-7-24.29-22.07c0,0-1.682-5.652,1.682-15.072a89.831,89.831,0,0,1,5.382-16.692Z"/>
    <path id="路径_7513" data-name="路径 7513" class="cls-3" d="M1698.672,1161.913s-.221,5.055.89,7.276c-.908,0-3.23-1.413-3.735-1.716a1.831,1.831,0,0,0-2.044,2.422c.429,2.12,3.457,7.166,4.063,8.276s5.046,2.019,7.569,1.817,9.584-1.375,10.545-3.16C1712.884,1173.63,1698.672,1161.913,1698.672,1161.913Z"/>
    <path id="路径_7514" data-name="路径 7514" class="cls-3" d="M1700.59,1135.531s-4.931,2.37-7.69.351-5.113,1.279-4.239,3.5,4.037,7.3,8.747,7.889C1698.081,1145.841,1700.59,1135.531,1700.59,1135.531Z"/>
    <path id="路径_7515" data-name="路径 7515" class="cls-4" d="M1701.077,1133.969s14.33-10,23.919,2.216,9.79,29.875,0,34.417-15.823,4.2-21.335-1.986S1693.1,1156.884,1701.077,1133.969Z"/>
    <circle id="椭圆_1087" data-name="椭圆 1087" class="cls-5" cx="6.78" cy="6.78" r="6.78" transform="translate(1707.82 1064.102)"/>
    <path id="路径_7516" data-name="路径 7516" class="cls-6" d="M1714,1064.338a3.466,3.466,0,0,0-.551-.13,6.766,6.766,0,0,0-4.174,10.856,3.452,3.452,0,0,0,.946.5c2.349.791,5.1-1.081,6.144-4.181S1716.346,1065.129,1714,1064.338Z"/>
    <circle id="椭圆_1088" data-name="椭圆 1088" class="cls-5" cx="5.888" cy="5.888" r="5.888" transform="translate(1726.215 1066.772)"/>
    <path id="路径_7517" data-name="路径 7517" class="cls-6" d="M1730.781,1066.957l-.058-.016a5.872,5.872,0,0,0-3.662,8.748,4.188,4.188,0,0,0,.679.3,4.775,4.775,0,0,0,3.041-9.035Z"/>
    <ellipse id="椭圆_1089" data-name="椭圆 1089" class="cls-7" cx="1.548" cy="0.803" rx="1.548" ry="0.803" transform="translate(1692.961 1098.83) rotate(-45)"/>
    <ellipse id="椭圆_1090" data-name="椭圆 1090" class="cls-7" cx="1.548" cy="0.803" rx="1.548" ry="0.803" transform="translate(1695.056 1100.925) rotate(-45)"/>
    <path id="路径_7518" data-name="路径 7518" class="cls-1" d="M1737.72,1075.125s13.966,7.452,15.065,16.21c2.16,17.225,4.32,39.477,4.32,39.477s1.022,2.828,6.984,16.458c4.441,15.425-3.567,22.5-3.567,22.5-8.747,10.584-27.155,14.829-29.679,15.031s-6.964-.706-7.569-1.816-3.634-6.157-4.063-8.277a1.831,1.831,0,0,1,2.044-2.422c.505.3,2.827,1.716,3.735,1.716-1.111-2.221,3.907-6.477,3.907-6.477,3.9-3.073,3.164-12.672,3.205-14.1s-4.213-.19-5.887-.055-3.036-1.75-2.509-2.355,3.23-4.593,6.291-6.072c.232-.112-.037-.792-.6-1.776-.13-.228-.265-.455-.4-.679a21.391,21.391,0,0,0-22.126-9.6l-5.79,1.071,3.126-8.319s41.228-5.8,51.051-13.74c-.164-1.6-2.707-22.532-2.707-22.532S1746.863,1079.075,1737.72,1075.125Z"/>
    <path id="路径_7519" data-name="路径 7519" class="cls-8" d="M1713.807,1122.955a55.764,55.764,0,0,1,4.258,4.532c1.077,1.466,1.886-9.392,1.77-9.1C1718.6,1121.483,1713.807,1122.955,1713.807,1122.955Z"/>
  </g>
</svg>
