<svg xmlns="http://www.w3.org/2000/svg" width="178.498" height="146.375" viewBox="0 0 178.498 146.375">
  <defs>
    <style>
      .cls-1, .cls-10 {
        fill: #fff;
      }

      .cls-1 {
        stroke-linejoin: round;
      }

      .cls-2 {
        fill: #fff007;
      }

      .cls-3 {
        fill: #fa8018;
      }

      .cls-4 {
        fill: #f9a61c;
      }

      .cls-5 {
        fill: #f51b30;
      }

      .cls-6 {
        fill: #ff954d;
      }

      .cls-7 {
        fill: #ffca0a;
      }

      .cls-8 {
        fill: #f68122;
      }

      .cls-10, .cls-9 {
        stroke: none;
      }
    </style>
  </defs>
  <g id="组_3053" data-name="组 3053" transform="translate(-941.663 -1256.191)">
    <g id="组_3052" data-name="组 3052">
      <g id="路径_7354" data-name="路径 7354" class="cls-1">
        <path class="cls-9" d="M 1012.675659179688 1400.066528320313 C 1004.558715820313 1400.066528320313 997.0310668945313 1397.6591796875 987.500732421875 1394.611328125 C 986.1202392578125 1394.169799804688 984.6926879882813 1393.71337890625 983.212890625 1393.247802734375 C 977.9097290039063 1391.579956054688 973.9715576171875 1390.008422851563 971.5079345703125 1388.577026367188 C 969.9312744140625 1387.661010742188 967.8165893554688 1386.190063476563 967.6559448242188 1384.00244140625 C 967.6060180664063 1383.322387695313 967.7579345703125 1382.707763671875 968.0302734375 1382.18505859375 L 965.6519165039063 1370.8076171875 L 965.7738037109375 1370.774658203125 C 965.5392456054688 1369.997436523438 965.4051513671875 1369.162109375 965.3748779296875 1368.278930664063 C 964.6122436523438 1368.398315429688 963.8682861328125 1368.458374023438 963.1458740234375 1368.458374023438 C 960.2449951171875 1368.458374023438 957.6453857421875 1367.488159179688 955.628173828125 1365.65283203125 C 954.0399780273438 1364.207885742188 953.1410522460938 1362.5283203125 952.829345703125 1361.438354492188 C 952.7774658203125 1361.256591796875 952.5474243164063 1360.541259765625 952.2810668945313 1359.712768554688 C 949.1592407226563 1350.002685546875 944.9287109375 1336.291870117188 944.2354125976563 1329.36083984375 C 943.7987060546875 1324.99462890625 945.3466186523438 1320.9990234375 948.7119750976563 1317.806396484375 C 950.8575439453125 1315.770751953125 953.0564575195313 1314.710327148438 953.6861572265625 1314.4306640625 C 957.2149047851563 1312.4541015625 1039.1357421875 1266.56494140625 1048.240478515625 1261.271728515625 C 1051.227416992188 1259.53515625 1054.13818359375 1258.691040039063 1057.139038085938 1258.691040039063 C 1060.256958007813 1258.691040039063 1062.814575195313 1259.637329101563 1064.682006835938 1260.328369140625 C 1065.485595703125 1260.625732421875 1066.387817382813 1260.959594726563 1066.854370117188 1261.010375976563 L 1069.012817382813 1259.90625 L 1069.965087890625 1262.599731445313 C 1070.279418945313 1263.488891601563 1077.688842773438 1284.505493164063 1079.880981445313 1295.767333984375 C 1080.82177734375 1300.598754882813 1079.928955078125 1304.109985351563 1078.549926757813 1306.56982421875 C 1078.709228515625 1306.771850585938 1078.83740234375 1306.974853515625 1078.9404296875 1307.168090820313 C 1079.265014648438 1307.776977539063 1079.401000976563 1308.40283203125 1079.42431640625 1308.996215820313 C 1082.564575195313 1309.768920898438 1088.387329101563 1311.240112304688 1094.19140625 1312.9072265625 C 1099.224975585938 1314.353149414063 1103.274658203125 1315.665771484375 1106.227783203125 1316.808715820313 C 1108.085205078125 1317.527587890625 1109.501953125 1318.173461914063 1110.558837890625 1318.783325195313 C 1111.312866210938 1319.21826171875 1112.150024414063 1319.77587890625 1112.732177734375 1320.533203125 L 1112.960083007813 1320.630737304688 L 1114.007446289063 1321.079345703125 L 1114.356079101563 1322.163940429688 L 1115.662841796875 1326.229736328125 C 1116.820068359375 1329.743041992188 1117.481079101563 1332.630981445313 1117.627563476563 1334.813354492188 C 1117.770751953125 1336.94677734375 1117.441162109375 1338.535400390625 1116.620239257813 1339.670288085938 C 1115.994018554688 1340.535888671875 1115.097290039063 1341.09375 1114.099365234375 1341.255493164063 C 1106.84033203125 1346.201416015625 1044.306030273438 1388.74853515625 1029.807250976563 1396.55615234375 L 1029.66552734375 1396.632446289063 L 1029.515258789063 1396.68994140625 C 1023.493774414063 1398.993530273438 1018.142883300781 1400.066528320313 1012.675659179688 1400.066528320313 Z"/>
        <path class="cls-10" d="M 1057.13916015625 1261.191040039063 C 1054.921875 1261.191040039063 1052.385620117188 1261.753662109375 1049.496948242188 1263.432983398438 C 1040.114013671875 1268.887939453125 954.7969970703125 1316.673950195313 954.7969970703125 1316.673950195313 C 954.7969970703125 1316.673950195313 945.8499755859375 1320.384033203125 946.7230224609375 1329.112060546875 C 947.595947265625 1337.839965820313 954.7969970703125 1359.223999023438 955.23291015625 1360.7509765625 C 955.5753173828125 1361.948364257813 957.793212890625 1365.958374023438 963.145751953125 1365.958374023438 C 964.624267578125 1365.958374023438 966.341552734375 1365.652587890625 968.324951171875 1364.89697265625 C 968.324951171875 1364.89697265625 966.7900390625 1369.369995117188 969.3480224609375 1372.1650390625 C 968.7939453125 1371.6650390625 968.35107421875 1371.055053710938 968.0989990234375 1370.296020507813 L 970.72607421875 1382.863037109375 C 970.72607421875 1382.863037109375 965.925048828125 1385.18994140625 983.9630126953125 1390.863037109375 C 995.5780029296875 1394.5166015625 1003.815551757813 1397.566528320313 1012.675659179688 1397.566528320313 C 1017.5751953125 1397.566528320313 1022.665161132813 1396.633911132813 1028.621948242188 1394.35498046875 C 1043.7509765625 1386.2080078125 1113.285034179688 1338.785034179688 1113.285034179688 1338.785034179688 C 1113.285034179688 1338.785034179688 1113.36474609375 1338.80419921875 1113.490966796875 1338.80419921875 C 1114.284423828125 1338.80419921875 1116.9248046875 1338.046630859375 1113.285034179688 1327.001953125 L 1111.975952148438 1322.928955078125 L 1110.9580078125 1322.493041992188 C 1110.9580078125 1322.493041992188 1111.035034179688 1322.733032226563 1110.97900390625 1323.14501953125 C 1110.998046875 1322.931030273438 1110.993041992188 1322.713989257813 1110.9580078125 1322.493041992188 C 1110.3759765625 1318.85595703125 1076.48095703125 1310.85498046875 1076.48095703125 1310.85498046875 C 1076.48095703125 1310.85498046875 1078.20703125 1307.68896484375 1074.871948242188 1307.380981445313 L 1074.870971679688 1307.380981445313 C 1076.83203125 1305.31103515625 1078.516967773438 1301.842041015625 1077.427001953125 1296.244995117188 C 1075.244995117188 1285.035034179688 1067.608032226563 1263.432983398438 1067.608032226563 1263.432983398438 L 1056.781982421875 1268.970947265625 L 1056.697998046875 1268.6689453125 C 1056.697998046875 1268.6689453125 1061.498046875 1265.177978515625 1064.552978515625 1264.305053710938 L 1067.608032226563 1263.432983398438 C 1067.4052734375 1263.490844726563 1067.190795898438 1263.51708984375 1066.964721679688 1263.51708984375 C 1064.83251953125 1263.51708984375 1061.646240234375 1261.191040039063 1057.13916015625 1261.191040039063 M 1093.474975585938 1323.344970703125 C 1089.47998046875 1322.27197265625 1084.681030273438 1321.18505859375 1080.586059570313 1320.947998046875 C 1081.064208984375 1320.90625 1081.488647460938 1320.880615234375 1081.81689453125 1320.880615234375 C 1081.945068359375 1320.880615234375 1082.05859375 1320.884521484375 1082.155029296875 1320.892944335938 C 1084.927978515625 1321.133056640625 1089.365966796875 1322.178955078125 1093.474975585938 1323.344970703125 M 1110.953979492188 1323.295043945313 C 1110.94677734375 1323.328857421875 1110.938720703125 1323.363525390625 1110.930053710938 1323.399047851563 C 1110.936279296875 1323.364013671875 1110.945556640625 1323.32958984375 1110.953979492188 1323.295043945313 C 1110.9609375 1323.262084960938 1110.967041015625 1323.22998046875 1110.972045898438 1323.198974609375 C 1110.96875 1323.2314453125 1110.961669921875 1323.263305664063 1110.953979492188 1323.295043945313 M 1101.704956054688 1326.025024414063 C 1102.60400390625 1326.383056640625 1103.211059570313 1326.675048828125 1103.392944335938 1326.857055664063 C 1103.994018554688 1327.45703125 1104.235961914063 1328.001953125 1104.337036132813 1328.35205078125 C 1104.1650390625 1327.864013671875 1103.58203125 1326.97998046875 1101.704956054688 1326.025024414063 M 1072.64794921875 1348.932983398438 C 1089.5400390625 1338.202026367188 1104.411987304688 1328.748046875 1104.411987304688 1328.748046875 C 1101.720947265625 1330.60205078125 1087.942016601563 1339.31494140625 1072.64794921875 1348.932983398438 M 1057.13916015625 1256.191040039063 C 1060.704833984375 1256.191040039063 1063.505126953125 1257.227172851563 1065.5498046875 1257.983764648438 C 1066.00634765625 1258.152709960938 1066.597900390625 1258.37158203125 1066.955078125 1258.475830078125 C 1067.171630859375 1258.447265625 1067.389892578125 1258.432983398438 1067.608154296875 1258.432983398438 C 1068.23486328125 1258.432983398438 1068.86279296875 1258.55078125 1069.458251953125 1258.787963867188 C 1070.797607421875 1259.321411132813 1071.841552734375 1260.407104492188 1072.322021484375 1261.766357421875 C 1072.638916015625 1262.662719726563 1080.10791015625 1283.848510742188 1082.3349609375 1295.289672851563 C 1082.985595703125 1298.631225585938 1082.90478515625 1301.740234375 1082.0947265625 1304.529907226563 C 1081.89892578125 1305.204467773438 1081.661865234375 1305.857299804688 1081.384521484375 1306.487060546875 C 1081.449951171875 1306.639038085938 1081.509521484375 1306.793212890625 1081.563110351563 1306.949462890625 C 1084.864501953125 1307.773681640625 1089.833740234375 1309.054565429688 1094.881591796875 1310.50439453125 C 1099.986572265625 1311.970825195313 1104.107666015625 1313.307495117188 1107.130126953125 1314.477294921875 C 1109.108642578125 1315.243041992188 1110.638793945313 1315.943237304688 1111.80810546875 1316.617797851563 C 1112.640014648438 1317.097778320313 1113.3125 1317.578369140625 1113.8642578125 1318.087158203125 C 1114.0048828125 1318.216674804688 1114.138305664063 1318.348754882813 1114.264892578125 1318.483642578125 C 1115.437866210938 1319.087524414063 1116.32958984375 1320.133911132813 1116.736083984375 1321.399047851563 L 1118.040161132813 1325.456420898438 C 1120.659790039063 1333.411743164063 1120.840698242188 1338.10107421875 1118.64599609375 1341.135131835938 C 1117.750122070313 1342.373657226563 1116.5068359375 1343.2265625 1115.103271484375 1343.596557617188 C 1106.18994140625 1349.667114257813 1045.36083984375 1391.019897460938 1030.992553710938 1398.75732421875 C 1030.803833007813 1398.85888671875 1030.608764648438 1398.9482421875 1030.408569335938 1399.02490234375 C 1027.196655273438 1400.253662109375 1024.190673828125 1401.135620117188 1021.21875 1401.721069335938 C 1018.330932617188 1402.289916992188 1015.536499023438 1402.566528320313 1012.675659179688 1402.566528320313 C 1004.168579101563 1402.566528320313 996.4769287109375 1400.106689453125 986.7388916015625 1396.992431640625 C 985.361328125 1396.551879882813 983.936767578125 1396.096313476563 982.462646484375 1395.632690429688 C 976.9063720703125 1393.885131835938 972.9122314453125 1392.284301757813 970.2520751953125 1390.738647460938 C 968.8829345703125 1389.943115234375 967.8348388671875 1389.142211914063 967.0482177734375 1388.2900390625 C 966.2630615234375 1387.439575195313 965.2987060546875 1386.037109375 965.1627197265625 1384.185424804688 C 965.10595703125 1383.412109375 965.197021484375 1382.655151367188 965.4256591796875 1381.942749023438 L 963.204833984375 1371.319091796875 C 963.1796875 1371.19873046875 963.1590576171875 1371.078369140625 963.142822265625 1370.958374023438 C 959.610595703125 1370.957641601563 956.43017578125 1369.762451171875 953.9456787109375 1367.501953125 C 951.4591064453125 1365.239624023438 950.622802734375 1362.815063476563 950.4256591796875 1362.125854492188 C 950.37646484375 1361.956787109375 950.134521484375 1361.204223632813 949.9005126953125 1360.476440429688 C 946.7440185546875 1350.658203125 942.464599609375 1336.776489257813 941.747802734375 1329.609619140625 C 941.459716796875 1326.7294921875 941.9027099609375 1323.97314453125 943.064453125 1321.41748046875 C 943.965576171875 1319.434936523438 945.2867431640625 1317.60986328125 946.9913330078125 1315.99267578125 C 949.2808837890625 1313.820556640625 951.6646728515625 1312.608642578125 952.551025390625 1312.201049804688 C 957.1478271484375 1309.626220703125 1037.960327148438 1264.3564453125 1046.98388671875 1259.1103515625 C 1050.31591796875 1257.173217773438 1053.732666015625 1256.191040039063 1057.13916015625 1256.191040039063 Z"/>
      </g>
      <g id="路径_7355" data-name="路径 7355" class="cls-1">
        <path class="cls-9" d="M 965.727294921875 1371.086669921875 C 965.5352172851563 1370.510498046875 965.419921875 1369.9541015625 965.3748168945313 1369.3857421875 L 970.31396484375 1368.675659179688 L 970.5459594726563 1369.78369140625 L 965.727294921875 1371.086669921875 Z"/>
        <path class="cls-10" d="M 968.0989990234375 1370.296020507813 L 967.8670043945313 1369.18798828125 C 967.8989868164063 1369.590942382813 967.9849853515625 1369.953979492188 968.0989990234375 1370.296020507813 M 968.0968017578125 1375.296997070313 C 965.9942626953125 1375.296997070313 964.0506591796875 1373.962280273438 963.3555908203125 1371.877197265625 C 963.0986938476563 1371.106567382813 962.9440307617188 1370.356323242188 962.8826904296875 1369.58349609375 C 962.6739501953125 1366.953735351563 964.5442504882813 1364.6142578125 967.1554565429688 1364.238891601563 C 967.3961181640625 1364.204223632813 967.6354370117188 1364.1875 967.8720703125 1364.1875 C 970.2026977539063 1364.1875 972.2700805664063 1365.819213867188 972.7608642578125 1368.163330078125 L 972.9928588867188 1369.271362304688 C 973.5358276367188 1371.864624023438 971.9617309570313 1374.43115234375 969.4041137695313 1375.122680664063 C 968.9681396484375 1375.240600585938 968.5289306640625 1375.296997070313 968.0968017578125 1375.296997070313 Z"/>
      </g>
    </g>
    <path id="路径_7356" data-name="路径 7356" class="cls-2" d="M968.325,1364.9l-.8-5.019,89.173-91.209s4.8-3.491,7.855-4.364l3.055-.872c-3.055.872-8.728-5.455-18.111,0s-94.7,53.241-94.7,53.241-8.947,3.71-8.074,12.438,8.074,30.112,8.51,31.639S959.161,1368.388,968.325,1364.9Z"/>
    <path id="路径_7357" data-name="路径 7357" class="cls-3" d="M1070.663,1310.128s8.946-2.673,6.764-13.883-9.819-32.812-9.819-32.812l-20.162,10.314-37.88,45.4-42.041,40.729.8,5.019Z"/>
    <path id="路径_7358" data-name="路径 7358" class="cls-4" d="M967.525,1359.878l96.883-51.719s1.891-2.613,1.018-8.286l-8.728-31.2-96.228,52.806s-4.146-.873-2.837,7.419S963.452,1355.951,967.525,1359.878Z"/>
    <path id="路径_7359" data-name="路径 7359" class="cls-5" d="M968.325,1364.9s2.255,1.673,3.71,1.673,104.447-55.715,104.447-55.715,1.725-3.166-1.61-3.474Z"/>
    <path id="路径_7360" data-name="路径 7360" class="cls-6" d="M968.325,1364.9s-3.6,10.474,9.383,9.383l96.01-52.369s6.754-1.164,8.437-1.018c6.092.526,20.22,4.946,21.238,5.964a2.975,2.975,0,0,1,1.019,1.891s7.128-2.618,6.546-6.255-34.476-11.638-34.476-11.638L972.035,1366.57Z"/>
    <path id="路径_7361" data-name="路径 7361" class="cls-7" d="M967.867,1369.189l2.859,13.674s-4.8,2.327,13.237,8,27.93,9.892,44.659,3.492c15.129-8.147,84.663-55.57,84.663-55.57s4.219,1.019,0-11.782l-1.309-4.074-1.018-.436s1.018,2.909-6.546,6.255c-6.547,4.51-78.7,49.6-78.7,49.6a21.86,21.86,0,0,1-14.2,3.346c-8.061-1.018-33.809-7.419-33.809-7.419S968.325,1374.916,967.867,1369.189Z"/>
    <path id="路径_7362" data-name="路径 7362" class="cls-8" d="M977.708,1374.28s42.271,13.836,47.507,4.744c6.513-4.073,79.2-50.276,79.2-50.276s.23-2.13-5.969-3.985-19.525-5.689-24.725-2.852Z"/>
  </g>
</svg>
