<svg xmlns="http://www.w3.org/2000/svg" width="116.116" height="103.578" viewBox="0 0 116.116 103.578">
  <defs>
    <style>
      .cls-1, .cls-9 {
        fill: #fff;
      }

      .cls-1 {
        stroke-linejoin: round;
      }

      .cls-2 {
        fill: #e5ab76;
      }

      .cls-3 {
        fill: #9d81eb;
      }

      .cls-4 {
        fill: #7762b3;
      }

      .cls-5 {
        fill: #ff91b9;
      }

      .cls-6 {
        fill: #f277a8;
      }

      .cls-7 {
        fill: #ffdbb3;
      }

      .cls-8, .cls-9 {
        stroke: none;
      }
    </style>
  </defs>
  <g id="组_3046" data-name="组 3046" transform="translate(-463.147 -1295.553)">
    <g id="路径_7322" data-name="路径 7322" class="cls-1">
      <path class="cls-8" d="M 502.0233764648438 1396.631103515625 C 499.9493408203125 1396.631103515625 498.6757507324219 1395.963012695313 498.2113342285156 1395.6650390625 C 496.8759460449219 1394.867065429688 477.69873046875 1383.396118164063 471.8990783691406 1379.329223632813 C 468.9657897949219 1377.796875 467.0317077636719 1375.910034179688 466.1492004394531 1373.719360351563 C 465.5650939941406 1372.269287109375 465.60693359375 1371.0859375 465.7080078125 1370.43505859375 L 465.7080078125 1347.380981445313 C 465.7080078125 1340.343383789063 471.2447204589844 1336.354736328125 471.4804382324219 1336.1884765625 L 471.6550903320313 1336.065185546875 L 471.84814453125 1335.973388671875 L 479.8489990234375 1332.167724609375 L 479.8489990234375 1329.358032226563 L 479.8489990234375 1327.873291015625 L 481.1527099609375 1327.162841796875 L 533.5567016601563 1298.604858398438 L 533.8192138671875 1298.461791992188 L 534.1080932617188 1298.384643554688 C 534.235107421875 1298.350708007813 535.3881225585938 1298.053344726563 536.7448120117188 1298.053344726563 C 537.6573486328125 1298.053344726563 538.4874267578125 1298.187133789063 539.2120361328125 1298.450805664063 C 540.7647705078125 1299.014892578125 568.8767700195313 1312.249145507813 574.4963989257813 1314.896362304688 L 575.8903198242188 1315.552978515625 L 575.93017578125 1317.09326171875 L 576.7621459960938 1349.25732421875 L 576.7966918945313 1350.5927734375 L 575.7057495117188 1351.363647460938 L 523.7177734375 1388.101684570313 L 522.3749389648438 1389.050659179688 L 520.9716796875 1388.193481445313 L 519.7748413085938 1387.462280273438 C 517.1146850585938 1389.287231445313 512.6268310546875 1392.3056640625 508.9890747070313 1394.451293945313 C 506.5368041992188 1395.897705078125 504.1932067871094 1396.631103515625 502.0233764648438 1396.631103515625 Z"/>
      <path class="cls-9" d="M 536.744873046875 1300.553344726563 C 535.6769409179688 1300.553344726563 534.7529907226563 1300.800048828125 534.7529907226563 1300.800048828125 L 482.3489990234375 1329.358032226563 L 482.3489990234375 1333.746948242188 L 472.9219970703125 1338.23095703125 C 472.9219970703125 1338.23095703125 468.2080078125 1341.557983398438 468.2080078125 1347.380981445313 L 468.2080078125 1370.671020507813 C 468.2080078125 1370.671020507813 467.238037109375 1374.136962890625 473.198974609375 1377.18701171875 C 478.8829956054688 1381.20703125 499.5390014648438 1393.546020507813 499.5390014648438 1393.546020507813 C 499.5390014648438 1393.546020507813 500.3750610351563 1394.131103515625 502.0233764648438 1394.131103515625 C 503.377685546875 1394.131103515625 505.2801513671875 1393.736450195313 507.718994140625 1392.297973632813 C 511.988037109375 1389.780029296875 517.5399780273438 1385.975952148438 519.6920166015625 1384.482055664063 L 522.2750244140625 1386.06005859375 L 574.2630004882813 1349.322021484375 L 573.4310302734375 1317.157958984375 C 573.4310302734375 1317.157958984375 539.8820190429688 1301.35400390625 538.3569946289063 1300.800048828125 C 537.8486938476563 1300.614990234375 537.2786865234375 1300.553344726563 536.744873046875 1300.553344726563 M 536.7447509765625 1295.553344726563 L 536.744873046875 1295.553344726563 C 537.9498291015625 1295.553344726563 539.0675048828125 1295.73779296875 540.0670166015625 1296.1015625 C 540.4710693359375 1296.248291015625 541.228515625 1296.5234375 558.5877685546875 1304.659301757813 C 567.0719604492188 1308.635620117188 575.4779052734375 1312.59521484375 575.561767578125 1312.634765625 C 577.2711181640625 1313.43994140625 578.3804931640625 1315.139892578125 578.4293212890625 1317.028686523438 L 579.2613525390625 1349.192749023438 C 579.304443359375 1350.861572265625 578.5119018554688 1352.44189453125 577.1485595703125 1353.405395507813 L 525.1605834960938 1390.143432617188 C 524.298095703125 1390.752807617188 523.2874755859375 1391.06005859375 522.2747192382813 1391.06005859375 C 521.4421997070313 1391.06005859375 520.6083374023438 1390.8525390625 519.8538208007813 1390.434814453125 C 517.1480712890625 1392.270751953125 513.3995971679688 1394.752319335938 510.2591552734375 1396.604614257813 C 507.4168701171875 1398.281005859375 504.6459350585938 1399.131103515625 502.0233764648438 1399.131103515625 C 499.4071655273438 1399.131103515625 497.6868286132813 1398.289672851563 496.9014892578125 1397.794555664063 C 495.3580322265625 1396.8720703125 476.58984375 1385.64208984375 470.5953979492188 1381.468139648438 C 467.2007446289063 1379.6640625 464.9256591796875 1377.372680664063 463.8302612304688 1374.653564453125 C 463.09619140625 1372.831176757813 463.080322265625 1371.276000976563 463.2080078125 1370.262084960938 L 463.2080078125 1347.380981445313 C 463.2080078125 1343.903198242188 464.37255859375 1340.523803710938 466.5758056640625 1337.608032226563 C 468.1444702148438 1335.531982421875 469.7357788085938 1334.35986328125 470.0388793945313 1334.145874023438 C 470.2713012695313 1333.981811523438 470.517333984375 1333.837890625 470.7742919921875 1333.715698242188 L 477.3489990234375 1330.58837890625 L 477.3489990234375 1329.358032226563 C 477.3489990234375 1327.527587890625 478.3491821289063 1325.843505859375 479.9564208984375 1324.967651367188 L 532.3604125976563 1296.40966796875 C 532.709228515625 1296.219604492188 533.079345703125 1296.07177734375 533.463134765625 1295.96923828125 C 533.7232666015625 1295.899780273438 535.10400390625 1295.553344726563 536.7447509765625 1295.553344726563 Z"/>
    </g>
    <path id="路径_7323" data-name="路径 7323" class="cls-2" d="M482.349,1329.358v4.389l36.808,21.484.535,29.252,2.583,1.577.693-33.688Z"/>
    <path id="路径_7324" data-name="路径 7324" class="cls-3" d="M482.349,1329.358l52.4-28.558a7.142,7.142,0,0,1,3.6,0c1.525.554,35.074,16.358,35.074,16.358l-50.462,35.213Z"/>
    <path id="路径_7325" data-name="路径 7325" class="cls-4" d="M522.275,1386.06l.693-33.688,50.463-35.213.832,32.163Z"/>
    <path id="路径_7326" data-name="路径 7326" class="cls-5" d="M535.682,1343.5,495.6,1322.137l30.6-16.678,38.119,18.056.7,32.335-29.114,20.574Z"/>
    <path id="路径_7327" data-name="路径 7327" class="cls-6" d="M535.682,1343.5l28.64-19.985.7,32.335-29.114,20.574Z"/>
    <path id="路径_7328" data-name="路径 7328" class="cls-7" d="M484.29,1332.824l-11.368,5.407a12.016,12.016,0,0,0-4.714,9.15v23.29s-.97,3.466,4.991,6.516c5.684,4.02,26.34,16.359,26.34,16.359s2.773,1.941,8.18-1.248,12.893-8.457,12.893-8.457v-30.083Z"/>
  </g>
</svg>
