<svg xmlns="http://www.w3.org/2000/svg" width="96.557" height="158.212" viewBox="0 0 96.557 158.212">
  <defs>
    <style>
      .cls-1 {
        fill: #e4f2f2;
        stroke-linejoin: round;
      }

      .cls-2 {
        fill: #d92f36;
      }

      .cls-3 {
        fill: #bfbbb2;
      }

      .cls-4 {
        fill: #e5e5e5;
      }

      .cls-5 {
        fill: #299169;
      }

      .cls-6 {
        fill: #e9fbff;
      }

      .cls-7 {
        fill: #63aaba;
      }

      .cls-8 {
        fill: #64af89;
      }

      .cls-13, .cls-9 {
        fill: #fff;
      }

      .cls-10 {
        fill: #a73a2f;
      }

      .cls-11 {
        fill: #722521;
      }

      .cls-12, .cls-13 {
        stroke: none;
      }
    </style>
  </defs>
  <g id="组_3159" data-name="组 3159" transform="translate(-721.029 -1247.257)">
    <g id="路径_8040" data-name="路径 8040" class="cls-1">
      <path class="cls-12" d="M 772.7130126953125 1402.968872070313 C 772.7105102539063 1402.968872070313 772.7081909179688 1402.968872070313 772.7056274414063 1402.968872070313 C 762.099365234375 1402.968627929688 751.0546264648438 1402.419921875 742.4035034179688 1401.463500976563 C 737.910400390625 1400.966674804688 734.237548828125 1400.382568359375 731.487060546875 1399.72705078125 C 727.8043212890625 1398.849365234375 725.8587646484375 1397.874633789063 724.9815673828125 1396.467651367188 C 724.1124877929688 1395.0732421875 723.3397827148438 1392.220703125 723.56787109375 1380.8857421875 C 723.703125 1374.164428710938 724.1857299804688 1365.243408203125 725.0023803710938 1354.370483398438 C 726.4315185546875 1335.342163085938 728.526123046875 1315.265258789063 729.2791748046875 1309.222778320313 C 729.6866455078125 1305.953369140625 731.6893310546875 1302.377685546875 735.4016723632813 1298.29150390625 C 738.158935546875 1295.256591796875 741.8707885742188 1291.949829101563 746.4340209960938 1288.463012695313 C 753.183349609375 1283.305786132813 759.896484375 1279.215209960938 761.8096313476563 1278.074829101563 C 762.0009765625 1277.61083984375 762.32861328125 1276.670532226563 762.7808837890625 1275.0849609375 C 762.5475463867188 1274.856689453125 762.3480834960938 1274.57177734375 762.2022705078125 1274.21435546875 C 761.974853515625 1273.654052734375 761.740478515625 1272.728149414063 761.7948608398438 1271.792602539063 C 760.5938110351563 1270.8779296875 759.2399291992188 1269.643188476563 758.13330078125 1268.100341796875 C 755.6199951171875 1264.596557617188 755.20166015625 1260.697265625 756.923583984375 1256.824340820313 C 757.5376586914063 1255.443481445313 758.503173828125 1254.234497070313 759.79345703125 1253.231201171875 C 760.8909912109375 1252.377685546875 762.2340087890625 1251.668334960938 763.7850952148438 1251.122924804688 C 766.99609375 1249.993774414063 770.5490112304688 1249.756713867188 772.9640502929688 1249.756713867188 C 775.9576416015625 1249.756713867188 779.1040649414063 1250.121826171875 781.5966186523438 1250.75830078125 C 784.6915283203125 1251.548706054688 786.4437866210938 1252.638793945313 787.0364379882813 1254.158935546875 C 787.59423828125 1255.095336914063 788.288330078125 1256.61181640625 788.7587890625 1258.4072265625 C 789.4149169921875 1260.910888671875 789.476806640625 1263.36962890625 788.9379272460938 1265.517456054688 C 788.563720703125 1267.008911132813 787.9036254882813 1268.37158203125 786.9760131835938 1269.567749023438 C 786.3355102539063 1270.3935546875 785.5658569335938 1271.14111328125 784.6763305664063 1271.802734375 C 784.7866821289063 1272.235473632813 784.8410034179688 1272.644287109375 784.8410034179688 1273.037475585938 C 784.8410034179688 1274.484130859375 784.0975341796875 1275.675903320313 782.8426513671875 1276.258422851563 C 783.0192260742188 1277.345336914063 783.238525390625 1278.389282226563 783.40869140625 1278.947143554688 C 784.3515625 1279.646118164063 785.9542236328125 1280.914306640625 786.9871826171875 1281.737670898438 C 788.9283447265625 1283.285278320313 791.939697265625 1285.723266601563 795.2620849609375 1288.549438476563 C 798.7952880859375 1291.554931640625 801.7850341796875 1294.239501953125 804.148193359375 1296.528442382813 C 807.2235717773438 1299.507202148438 809.1913452148438 1301.767944335938 810.1639404296875 1303.43994140625 C 810.5853881835938 1304.164184570313 811.1520385742188 1305.520751953125 811.7972412109375 1309.613159179688 C 812.2119750976563 1312.244262695313 812.61279296875 1315.70458984375 812.9884033203125 1319.89794921875 C 813.6853637695313 1327.67822265625 814.27734375 1337.818481445313 814.6553344726563 1348.450805664063 C 815.032958984375 1359.074096679688 815.16845703125 1369.382934570313 815.0368041992188 1377.478271484375 C 814.966064453125 1381.830444335938 814.820068359375 1385.486450195313 814.6029052734375 1388.344970703125 C 814.3511352539063 1391.659057617188 814.0186157226563 1393.814819335938 813.5564575195313 1395.129272460938 C 813.1890258789063 1396.174560546875 812.4306030273438 1397.102172851563 811.3023681640625 1397.885986328125 C 810.4475708007813 1398.479736328125 809.3787841796875 1399.001586914063 808.0350341796875 1399.481201171875 C 805.7590942382813 1400.29345703125 802.6607666015625 1400.978149414063 798.8261108398438 1401.51611328125 C 792.0513305664063 1402.466552734375 783.0216064453125 1402.968872070313 772.7130126953125 1402.968872070313 Z M 765.16552734375 1258.315185546875 L 781.869384765625 1258.996704101563 C 781.5792236328125 1258.204223632813 781.2711791992188 1257.632568359375 781.1314697265625 1257.420043945313 L 781.0484008789063 1257.2939453125 C 780.695556640625 1257.111450195313 779.880859375 1256.78857421875 778.4447631835938 1256.494262695313 C 776.7689819335938 1256.150756835938 774.80615234375 1255.961547851563 772.91796875 1255.961547851563 C 768.4750366210938 1255.961547851563 765.0614624023438 1256.958129882813 763.6531982421875 1258.611206054688 C 764.055908203125 1258.413452148438 764.4989624023438 1258.307861328125 764.955322265625 1258.307861328125 C 765.0250244140625 1258.307861328125 765.0953369140625 1258.310302734375 765.16552734375 1258.315185546875 Z"/>
      <path class="cls-13" d="M 772.9639892578125 1252.256713867188 C 767.181640625 1252.256713867188 761.0661010742188 1253.661254882813 759.2080078125 1257.839965820313 C 756.0260009765625 1264.996948242188 762.9539794921875 1269.754028320313 765.1699829101563 1271.052978515625 C 765.1840209960938 1271.20703125 765.197021484375 1271.343017578125 765.2080078125 1271.45703125 C 764.7670288085938 1271.427978515625 764.5170288085938 1271.410034179688 764.5170288085938 1271.410034179688 C 764.2150268554688 1271.410034179688 764.2150268554688 1272.526000976563 764.5170288085938 1273.27001953125 C 764.5659790039063 1273.390014648438 765.031982421875 1273.5009765625 765.7739868164063 1273.599975585938 C 765.2940063476563 1275.449951171875 764.1630249023438 1279.598999023438 763.5910034179688 1279.926025390625 C 762.85302734375 1280.348999023438 733.2349853515625 1297.697021484375 731.760009765625 1309.531982421875 C 730.2849731445313 1321.366943359375 723.4149780273438 1389.22802734375 727.10302734375 1395.14501953125 C 729.0513305664063 1398.27001953125 751.4876708984375 1400.468872070313 772.7056884765625 1400.468872070313 C 791.662841796875 1400.468872070313 809.6460571289063 1398.715209960938 811.197998046875 1394.300048828125 C 814.3259887695313 1385.402954101563 811.6920166015625 1311.036987304688 808.0029907226563 1304.697021484375 C 804.3150024414063 1298.357055664063 782.2319946289063 1281.071044921875 781.4940185546875 1280.64794921875 C 780.9290161132813 1280.323974609375 780.2059936523438 1276.150024414063 780.0650024414063 1274.140991210938 C 780.9650268554688 1274.119995117188 781.5800170898438 1274.078002929688 781.7369995117188 1274.014038085938 C 782.6430053710938 1273.641967773438 782.3410034179688 1272.526000976563 782.0390014648438 1271.781982421875 C 781.9099731445313 1271.845947265625 781.6680297851563 1271.89501953125 781.3460083007813 1271.932983398438 C 781.4329833984375 1271.631958007813 781.6259765625 1271.134033203125 781.7769775390625 1270.68603515625 L 781.7899780273438 1270.682983398438 C 789.8560180664063 1266.305053710938 786.0919799804688 1257.255981445313 784.7479858398438 1255.213012695313 C 784.4755859375 1253.734985351563 778.8950805664063 1252.256713867188 772.9639892578125 1252.256713867188 M 783.35498046875 1267.357055664063 C 783.7689819335938 1265.639038085938 783.8289794921875 1263.506958007813 783.8289794921875 1263.0419921875 C 783.8289794921875 1262.297973632813 783.2219848632813 1261.553955078125 783.2219848632813 1261.553955078125 L 765.0120239257813 1260.81103515625 C 764.9928588867188 1260.808959960938 764.973876953125 1260.807861328125 764.955322265625 1260.807861328125 C 763.4925537109375 1260.807861328125 764.0692749023438 1267.383178710938 764.406005859375 1268.745971679688 C 761.9639892578125 1266.865966796875 758.708984375 1263.2509765625 760.8909912109375 1258.343017578125 C 762.515380859375 1254.68994140625 767.8631591796875 1253.461547851563 772.91796875 1253.461547851563 C 778.1041259765625 1253.461547851563 782.9819946289063 1254.753662109375 783.219970703125 1256.046020507813 C 784.198974609375 1257.534057617188 786.6400146484375 1263.26904296875 783.35498046875 1267.357055664063 M 764.8770141601563 1269.095947265625 C 764.9439697265625 1269.107055664063 765.02001953125 1269.119018554688 765.10400390625 1269.130004882813 C 765.0999755859375 1269.1689453125 765.0969848632813 1269.2060546875 765.093994140625 1269.2490234375 C 765.0230102539063 1269.199951171875 764.9509887695313 1269.149047851563 764.8770141601563 1269.095947265625 M 772.9640502929688 1247.2568359375 C 776.2042846679688 1247.2568359375 779.48974609375 1247.64013671875 782.2151489257813 1248.336059570313 C 783.6998291015625 1248.715209960938 784.9617309570313 1249.177124023438 785.9659423828125 1249.708862304688 C 787.8119506835938 1250.6865234375 788.7735595703125 1251.91259765625 789.265625 1253.018432617188 C 790.728759765625 1255.547485351563 792.6868896484375 1260.848266601563 791.36279296875 1266.125854492188 C 790.7064208984375 1268.741821289063 789.336181640625 1271.016723632813 787.3382568359375 1272.84326171875 C 787.340087890625 1272.908203125 787.3410034179688 1272.972900390625 787.3410034179688 1273.037475585938 C 787.3410034179688 1274.728515625 786.7001953125 1276.252319335938 785.5866088867188 1277.354858398438 C 785.595703125 1277.397338867188 785.604736328125 1277.439086914063 785.6136474609375 1277.479736328125 C 786.2694702148438 1277.982299804688 787.2025146484375 1278.712158203125 788.5455932617188 1279.782836914063 C 790.5009155273438 1281.341674804688 793.5344848632813 1283.797607421875 796.8819580078125 1286.645263671875 C 800.4559326171875 1289.685424804688 803.4859008789063 1292.406494140625 805.8875122070313 1294.732666015625 C 809.1748657226563 1297.916625976563 811.2203369140625 1300.284057617188 812.324951171875 1302.182861328125 C 813.1351928710938 1303.575439453125 813.6978759765625 1305.615478515625 814.2667236328125 1309.223876953125 C 814.690185546875 1311.909912109375 815.0978393554688 1315.426147460938 815.4784545898438 1319.674926757813 C 816.1792602539063 1327.498291015625 816.774169921875 1337.686279296875 817.1537475585938 1348.361938476563 C 817.5328369140625 1359.027099609375 817.6688232421875 1369.3818359375 817.5364990234375 1377.518920898438 C 817.4649658203125 1381.920532226563 817.316650390625 1385.626586914063 817.095703125 1388.534301757813 C 816.8231811523438 1392.121215820313 816.4590454101563 1394.410888671875 815.9149780273438 1395.958374023438 C 815.36962890625 1397.509765625 814.297607421875 1398.849243164063 812.7286376953125 1399.939086914063 C 811.6901245117188 1400.660522460938 810.4297485351563 1401.280883789063 808.8753051757813 1401.835693359375 C 806.4055786132813 1402.717041015625 803.2320556640625 1403.422241210938 799.1734008789063 1403.99169921875 C 790.4700317382813 1405.212524414063 779.9762573242188 1405.468872070313 772.7056884765625 1405.468872070313 C 762.0123291015625 1405.468872070313 750.8674926757813 1404.914672851563 742.1287231445313 1403.948486328125 C 737.533447265625 1403.4404296875 733.758056640625 1402.83837890625 730.9074096679688 1402.158935546875 C 726.4662475585938 1401.1005859375 724.134765625 1399.834838867188 722.860107421875 1397.790283203125 C 721.9163208007813 1396.276123046875 721.4338989257813 1394.188354492188 721.1947021484375 1390.583984375 C 721.030517578125 1388.109130859375 720.988037109375 1384.829223632813 721.068359375 1380.83544921875 C 721.2045288085938 1374.068603515625 721.6893920898438 1365.1015625 722.5093994140625 1354.183227539063 C 723.9417724609375 1335.112182617188 726.042724609375 1314.9765625 726.7984008789063 1308.91357421875 C 727.2717895507813 1305.115356445313 729.4806518554688 1301.090942382813 733.5513305664063 1296.610473632813 C 736.4097290039063 1293.464233398438 740.2333984375 1290.0546875 744.9161376953125 1286.4765625 C 751.125 1281.732299804688 757.1661987304688 1277.95654296875 759.7691040039063 1276.382446289063 C 759.8497314453125 1276.143676757813 759.9429321289063 1275.85498046875 760.0482788085938 1275.51220703125 C 759.98486328125 1275.386108398438 759.9317626953125 1275.267333984375 759.887451171875 1275.158569335938 C 759.8862915039063 1275.155883789063 759.8851928710938 1275.153198242188 759.8841552734375 1275.150512695313 C 759.5693359375 1274.375 759.4188232421875 1273.625244140625 759.3487548828125 1273.031616210938 C 758.2445068359375 1272.09619140625 757.091552734375 1270.937255859375 756.1018676757813 1269.557495117188 C 753.0860595703125 1265.353149414063 752.566650390625 1260.470336914063 754.6392211914063 1255.808715820313 C 755.4223022460938 1254.047485351563 756.6400756835938 1252.516479492188 758.2587280273438 1251.257690429688 C 759.569580078125 1250.23828125 761.1498413085938 1249.399536132813 762.9557495117188 1248.764526367188 C 766.49951171875 1247.518310546875 770.3543090820313 1247.2568359375 772.9640502929688 1247.2568359375 Z"/>
    </g>
    <path id="路径_8041" data-name="路径 8041" class="cls-2" d="M784.748,1255.213c-.538-2.919-21.776-5.838-25.54,2.627s6.616,13.573,6.616,13.573,12.2.146,15.966-.73C789.856,1266.305,786.092,1257.256,784.748,1255.213Zm-4.114,14.358c-3.29.766-13.959.638-13.959.638s-9.075-4.466-5.784-11.866,21.859-4.849,22.329-2.3C784.4,1257.832,787.686,1265.743,780.634,1269.571Z"/>
    <path id="路径_8042" data-name="路径 8042" class="cls-3" d="M732.3,1313.84s30.152,6.34,77.146.14"/>
    <path id="路径_8043" data-name="路径 8043" class="cls-3" d="M812.838,1382.8c-5.164,2.536-79.1,5.16-87.21-2.871"/>
    <path id="路径_8044" data-name="路径 8044" class="cls-4" d="M766,1272.712s-1.673,6.792-2.41,7.214-30.356,17.771-31.831,29.606-8.345,79.7-4.657,85.613,80.806,8.512,84.095-.845c3.128-8.9.494-83.263-3.2-89.6s-25.771-23.626-26.509-24.049-1.746-7.409-1.377-7.575S766.6,1273.193,766,1272.712Z"/>
    <path id="路径_8045" data-name="路径 8045" class="cls-5" d="M731.388,1313.995s29.788,4.7,78.475-.372c.15,9.844,2.975,69.177,2.975,69.177s-67.683,6.963-86.657-2.6C726.387,1370.207,730.6,1319.56,731.388,1313.995Z"/>
    <path id="路径_8046" data-name="路径 8046" class="cls-6" d="M730.644,1319.574s34.783,9.028,79.963-.372c.181,4.971,2.114,29.009,2.114,29.009l-87.284,1.116Z"/>
    <path id="路径_8047" data-name="路径 8047" class="cls-2" d="M726.553,1342.261s10.14,6.813,51.45,3.009,33.719-.034,33.719-.034,2.237,21.54,1.116,33.845c-8.5,2.16-47.744,5.3-86.657-1.116C726.365,1371.126,725.883,1347.079,726.553,1342.261Z"/>
    <path id="路径_8048" data-name="路径 8048" class="cls-7" d="M745.538,1338.507s-4.275,0-1.068-3.381,5.344-4.65,5.878-3.8,0,2.536,1.6.422,2.672-4.649,4.276-3.8,4.809,2.959,4.809,3.382-1.068.845-1.6,1.268-5.344,5.917-6.413,6.34S745.538,1338.507,745.538,1338.507Z"/>
    <path id="路径_8049" data-name="路径 8049" class="cls-7" d="M782.939,1333.858s-1.447-.846.964-2.114,3.377-3.8,5.307-1.69,1.929,2.958,1.929,2.958-.482.846.965.423,3.376-1.268,3.859,0,2.411,4.649,1.447,5.072-9.648,2.113-11.577,0A16.442,16.442,0,0,1,782.939,1333.858Z"/>
    <path id="路径_8050" data-name="路径 8050" class="cls-8" d="M759.538,1338.507s-1.939.423,0,.845,20.364.846,20.364.423.484-.845,0-1.268-6.3-10.567-6.788-10.989-3.394-1.691-5.333.422S760.023,1338.507,759.538,1338.507Z"/>
    <path id="路径_8051" data-name="路径 8051" class="cls-9" d="M738.537,1353.089s18.442,4.65,58.277,0v3.8s-47.949,3.8-58.277-.845Z"/>
    <path id="路径_8052" data-name="路径 8052" class="cls-9" d="M738.661,1361.184l22.094.721-.2,1.97s-18.235-.031-22.051-1.159Z"/>
    <path id="路径_8053" data-name="路径 8053" class="cls-9" d="M776.03,1362.169l22.024-1.242.337,1.963s-18.025,1.583-22.1.806Z"/>
    <path id="路径_8054" data-name="路径 8054" class="cls-9" d="M739.653,1367.935s19.539,1.216,56.458-.712l.076,1.973s-39.946,1.645-56.475.273Z"/>
    <path id="路径_8055" data-name="路径 8055" class="cls-2" d="M765.012,1260.811l18.21.743a2.811,2.811,0,0,1,.607,1.488c0,.744-.152,5.765-1.67,6.509s-17.367-.186-17.67-.558S763.343,1260.625,765.012,1260.811Z"/>
    <path id="路径_8056" data-name="路径 8056" class="cls-10" d="M765.243,1271.782s-.35-3.054,0-3.014,16.075,1.16,16.59.972-.532,2.042-.532,2.414S765.243,1272.154,765.243,1271.782Z"/>
    <path id="路径_8057" data-name="路径 8057" class="cls-11" d="M764.517,1271.41s16.011,1.116,17.522.372c.3.744.6,1.86-.3,2.232s-16.918,0-17.22-.744S764.215,1271.41,764.517,1271.41Z"/>
  </g>
</svg>
