<svg xmlns="http://www.w3.org/2000/svg" width="65.499" height="129.576" viewBox="0 0 65.499 129.576">
  <defs>
    <style>
      .cls-1 {
        fill: #e4f2f2;
      }

      .cls-2 {
        fill: #79afd3;
      }

      .cls-3 {
        fill: #a5db6b;
      }

      .cls-4 {
        fill: #ceefa0;
      }
    </style>
  </defs>
  <g id="组_3146" data-name="组 3146" transform="translate(-109.148 -1076.472)">
    <path id="路径_7879" data-name="路径 7879" class="cls-1" d="M113.615,1080.134s-3.476-4.635,9.27-3.476,45.772-1.738,48.09,1.738,6.953,83.433,0,111.243v11.588c0,3.476-3.476,4.635-5.794,4.635s-49.828,1.159-52.145-2.317-1.159-4.635-1.159-8.112-2.318-22.017-2.318-25.493S107.242,1089.984,113.615,1080.134Z"/>
    <path id="路径_7880" data-name="路径 7880" class="cls-2" d="M112.611,1082.446s13.171,15.649,15.489,21.443,1.159,60.257,0,63.733-13.905,4.636-15.064,4.636-3.477-2.318-3.477-2.318S107.552,1095.765,112.611,1082.446Z"/>
    <path id="路径_7881" data-name="路径 7881" class="cls-2" d="M126.066,1092.191s.888-2.17,2.268-2.071,4.241-.3,5.523,0,1.972,2.469,1.676,3.455-.394,3.846-.591,5.326-4.893.986-5.5.69a12.912,12.912,0,0,1-3.372-2.958C125.573,1095.741,126.066,1092.191,126.066,1092.191Z"/>
    <path id="路径_7882" data-name="路径 7882" class="cls-2" d="M137.6,1091.7s-1.084-.789,1.381-1.184,6.509-.923,7.1-.511,1.183,7.513.493,8.795-7.2,1.434-7.791,1.112S136.914,1091.993,137.6,1091.7Z"/>
    <path id="路径_7883" data-name="路径 7883" class="cls-2" d="M131.407,1102.592s-2.516-.4,3.2-.6,15.094-.467,16.466-.258,2.745,3.8,1.144,4.453-16.695.726-18.068.563S129.806,1102.742,131.407,1102.592Z"/>
    <path id="路径_7884" data-name="路径 7884" class="cls-2" d="M149.762,1091.305s-.9-.884,1.363-1.052,5.96-.326,6.452.137.313,7.583-.438,8.8-6.633.772-7.134.4S149.11,1091.537,149.762,1091.305Z"/>
    <path id="路径_7885" data-name="路径 7885" class="cls-3" d="M165.8,1076.942s-11.314-.432-7.943,2.527a26.022,26.022,0,0,0,7.943,4.733c.6.148,1.641.444.6,1.924s-4.142,2.87-3.4,3.728,1.331,4.26,1.331,4.26l-.739,3.4s-4.29-.538-4.438,2.394,2.219,5.138,3.55,4.331,4.139-.66,4.139-.66l-.736,3.243s-2.219,1.491-2.219,2.526,2.955,1.48,2.955,1.48l2.814,1.775s0,5.177.74,5.621,3.862,0,3.862,0-1.076-36.021-3.283-39.83A23.335,23.335,0,0,0,165.8,1076.942Z"/>
    <ellipse id="椭圆_1163" data-name="椭圆 1163" class="cls-4" cx="7.251" cy="12.327" rx="7.251" ry="12.327" transform="translate(157.225 1149.686)"/>
    <path id="路径_7886" data-name="路径 7886" class="cls-2" d="M132.091,1119.706h3.5v48.915s-1.546,3.131-2.68,1.27S132.091,1119.706,132.091,1119.706Z"/>
    <path id="路径_7887" data-name="路径 7887" class="cls-2" d="M120.839,1197.426s1.184-.785,4.339-.981,33.926-.392,34.912,0a3.118,3.118,0,0,1,1.38,3.727c-.591,1.569-35.7,1.373-37.87.981S120.839,1197.426,120.839,1197.426Z"/>
  </g>
</svg>
