<svg xmlns="http://www.w3.org/2000/svg" width="136" height="126" viewBox="0 0 136 126">
  <defs>
    <style>
      .cls-1 {
        fill: rgba(254,198,56,0.29);
        stroke: #fec638;
        stroke-width: 5px;
      }

      .cls-2, .cls-6 {
        fill: #fec638;
      }

      .cls-3 {
        fill: #fff;
      }

      .cls-4, .cls-6 {
        stroke: none;
      }

      .cls-5 {
        fill: none;
      }
    </style>
  </defs>
  <g id="组_11363" data-name="组 11363" transform="translate(-523 -425)">
    <g id="矩形_6946" data-name="矩形 6946" class="cls-1" transform="translate(523 425)">
      <rect class="cls-4" width="136" height="126" rx="23"/>
      <rect class="cls-5" x="2.5" y="2.5" width="131" height="121" rx="20.5"/>
    </g>
    <g id="交叉_1" data-name="交叉 1" class="cls-2" transform="translate(515 417)">
      <path class="cls-4" d="M 120.9996032714844 132.5001068115234 L 96.52249908447266 132.5001068115234 C 96.70317840576172 126.6167144775391 97.94868469238281 120.909049987793 100.2317276000977 115.5114364624023 C 102.6240768432617 109.8553848266602 106.0492553710938 104.7754364013672 110.4121170043945 100.4126968383789 C 114.7749557495117 96.04995727539062 119.8550186157227 92.6248779296875 125.5111694335938 90.23259735107422 C 130.9088592529297 87.94963836669922 136.6165771484375 86.70417022705078 142.5 86.52349853515625 L 142.5 110.9997024536133 C 142.5 113.9028549194336 141.9317321777344 116.7183837890625 140.8109893798828 119.3680953979492 C 139.7281494140625 121.9281616210938 138.1776733398438 124.227668762207 136.2026214599609 126.2027130126953 C 134.2275695800781 128.1777801513672 131.9280700683594 129.7282562255859 129.3679962158203 130.8110961914062 C 126.7182846069336 131.9318389892578 123.9027557373047 132.5001068115234 120.9996032714844 132.5001068115234 Z"/>
      <path class="cls-6" d="M 120.9996032714844 131.0001068115234 C 126.3418273925781 131.0001068115234 131.3643493652344 128.919677734375 135.1419525146484 125.1420516967773 C 138.9195709228516 121.3644485473633 141 116.341926574707 141 110.9997024536133 L 141 88.09587860107422 C 135.8481903076172 88.42491912841797 130.847412109375 89.60427093505859 126.0954895019531 91.61411285400391 C 120.6181259155273 93.93076324462891 115.6983337402344 97.24790191650391 111.4727630615234 101.4733657836914 C 107.2471771240234 105.6988372802734 103.9299545288086 110.618522644043 101.6132354736328 116.0957641601562 C 99.60332489013672 120.8476257324219 98.42393493652344 125.8483276367188 98.09487915039062 131.0001068115234 L 120.9996032714844 131.0001068115234 M 120.9996032714844 134.0001068115234 L 94.99950408935547 134.0001068115234 C 94.99950408935547 106.9380035400391 116.9379043579102 85.00050354003906 144 85.00050354003906 L 144 110.9997024536133 C 144 123.7023086547852 133.7022094726562 134.0001068115234 120.9996032714844 134.0001068115234 Z"/>
    </g>
    <g id="组_11361" data-name="组 11361" transform="translate(-435.796 -107.642)">
      <rect id="矩形_2710" data-name="矩形 2710" class="cls-3" width="13.971" height="3.685" transform="translate(1063.339 635.991) rotate(35.661)"/>
      <rect id="矩形_2711" data-name="矩形 2711" class="cls-3" width="20.074" height="3.685" transform="translate(1084.304 630.772) rotate(125.661)"/>
    </g>
  </g>
</svg>
