<svg xmlns="http://www.w3.org/2000/svg" width="57.559" height="139.007" viewBox="0 0 57.559 139.007">
  <defs>
    <style>
      .cls-1 {
        fill: #e4f2f2;
        stroke-linejoin: round;
      }

      .cls-2 {
        fill: #3b017b;
      }

      .cls-3 {
        fill: #c984ff;
      }

      .cls-4, .cls-8 {
        fill: #fff;
      }

      .cls-5 {
        fill: #ffffa5;
      }

      .cls-6 {
        fill: #410083;
      }

      .cls-7, .cls-8 {
        stroke: none;
      }
    </style>
  </defs>
  <g id="组_3134" data-name="组 3134" transform="translate(-1175.76 -1260.611)">
    <g id="路径_7763" data-name="路径 7763" class="cls-1">
      <path class="cls-7" d="M 1202.69189453125 1397.117797851563 C 1200.229614257813 1397.117797851563 1198.135009765625 1396.798095703125 1196.466430664063 1396.167602539063 C 1194.7509765625 1395.519897460938 1193.432739257813 1394.873291015625 1192.457153320313 1394.189453125 C 1191.438842773438 1394.82275390625 1190.1845703125 1395.245971679688 1188.718017578125 1395.245971679688 C 1187.191284179688 1395.245971679688 1185.573120117188 1394.78564453125 1183.908813476563 1393.877685546875 C 1180.900512695313 1392.237060546875 1179.068115234375 1389.4013671875 1178.609985351563 1385.677368164063 C 1178.4130859375 1384.077514648438 1178.516235351563 1382.659301757813 1178.63525390625 1381.759887695313 C 1178.2587890625 1380.78173828125 1178.166870117188 1379.54833984375 1178.353393554688 1378.030395507813 C 1178.508666992188 1376.767211914063 1178.805419921875 1375.711181640625 1178.838745117188 1375.594970703125 L 1178.844604492188 1375.57470703125 L 1178.850708007813 1375.554565429688 C 1178.920532226563 1375.325927734375 1179.0302734375 1375.064208984375 1179.202758789063 1374.793579101563 C 1178.9306640625 1372.929443359375 1178.694458007813 1369.4921875 1178.752075195313 1362.458251953125 C 1178.797485351563 1356.915771484375 1179.022216796875 1349.799194335938 1179.419921875 1341.306396484375 C 1180.068725585938 1327.450439453125 1180.975463867188 1314.350219726563 1181.055541992188 1313.20166015625 L 1181.090576171875 1307.532836914063 C 1180.946533203125 1303.910766601563 1181.238525390625 1300.493408203125 1181.958374023438 1297.375244140625 C 1182.5859375 1294.657470703125 1183.555786132813 1292.094116210938 1184.84130859375 1289.756103515625 C 1187.17919921875 1285.504028320313 1190.10986328125 1282.775268554688 1192.049194335938 1280.969604492188 C 1192.703735351563 1280.360229492188 1193.518310546875 1279.601806640625 1193.699462890625 1279.30419921875 C 1194.332397460938 1278.264404296875 1194.513549804688 1277.658081054688 1194.565185546875 1277.406860351563 C 1193.936767578125 1275.872192382813 1193.781494140625 1274.240600585938 1194.117309570313 1272.66650390625 C 1194.225341796875 1272.159912109375 1194.369140625 1271.726318359375 1194.511108398438 1271.375854492188 C 1194.41064453125 1270.241577148438 1194.502685546875 1268.384521484375 1195.740112304688 1266.6513671875 C 1197.20654296875 1264.597534179688 1199.732543945313 1263.441040039063 1203.248046875 1263.214111328125 C 1204.307861328125 1263.145751953125 1205.31640625 1263.111083984375 1206.245849609375 1263.111083984375 C 1209.316284179688 1263.111083984375 1211.647216796875 1263.475219726563 1213.371704101563 1264.22412109375 C 1216.107543945313 1265.412353515625 1216.73876953125 1267.3681640625 1216.87158203125 1268.42822265625 C 1217.045288085938 1269.819946289063 1217.27099609375 1271.871215820313 1217.360961914063 1273.746704101563 C 1217.469970703125 1276.0166015625 1217.396606445313 1277.714477539063 1216.806884765625 1278.869995117188 C 1217.975341796875 1279.83251953125 1219.875244140625 1281.424072265625 1222.581420898438 1284.509399414063 C 1224.22265625 1286.380493164063 1225.599731445313 1288.37158203125 1226.674560546875 1290.427368164063 C 1227.666381835938 1292.324340820313 1228.431762695313 1294.336181640625 1228.949462890625 1296.406982421875 C 1229.790649414063 1299.771484375 1230.018310546875 1303.415893554688 1229.644775390625 1307.542846679688 C 1229.679565429688 1308.241088867188 1229.7880859375 1310.47998046875 1229.81494140625 1311.701782226563 C 1229.998657226563 1312.377197265625 1230.1064453125 1313.364624023438 1230.217163085938 1315.0185546875 C 1230.334350585938 1316.7666015625 1230.438720703125 1319.199951171875 1230.527587890625 1322.251220703125 C 1230.695434570313 1328.01806640625 1230.797485351563 1335.589233398438 1230.814819335938 1343.56982421875 C 1230.83251953125 1351.75341796875 1230.75732421875 1359.452270507813 1230.603149414063 1365.248168945313 C 1230.518310546875 1368.437866210938 1230.41064453125 1371.022583007813 1230.283203125 1372.930541992188 C 1230.196655273438 1374.226318359375 1230.106567382813 1375.124633789063 1230.015258789063 1375.768676757813 C 1230.078735351563 1375.899169921875 1230.138793945313 1376.038696289063 1230.194946289063 1376.187866210938 C 1230.6142578125 1377.302490234375 1230.817993164063 1378.985473632813 1230.817993164063 1381.3330078125 L 1230.817993164063 1381.345947265625 L 1230.81787109375 1381.359008789063 C 1230.817504882813 1381.39892578125 1230.77685546875 1385.371826171875 1230.817138671875 1386.948974609375 C 1230.873168945313 1389.136840820313 1228.829833984375 1391.4755859375 1227.948608398438 1392.379516601563 C 1226.6484375 1393.71337890625 1223.978149414063 1395.951049804688 1220.702026367188 1395.951049804688 C 1218.901489257813 1395.951049804688 1217.258666992188 1395.364624023438 1215.8798828125 1394.241333007813 C 1215.4140625 1394.593872070313 1214.88330078125 1394.849487304688 1214.39794921875 1395.052856445313 C 1213.560424804688 1395.404052734375 1212.46142578125 1395.750122070313 1211.219848632813 1396.053955078125 C 1208.45654296875 1396.72998046875 1205.348266601563 1397.117797851563 1202.69189453125 1397.117797851563 Z"/>
      <path class="cls-8" d="M 1202.69189453125 1394.61767578125 C 1208.193237304688 1394.61767578125 1214.36376953125 1392.865844726563 1214.642944335938 1391.93603515625 C 1215.02197265625 1390.673950195313 1215.526977539063 1389.663940429688 1215.526977539063 1389.663940429688 C 1215.526977539063 1389.663940429688 1216.9150390625 1393.451049804688 1220.702026367188 1393.451049804688 C 1224.489013671875 1393.451049804688 1228.359985351563 1388.654052734375 1228.317993164063 1387.012939453125 C 1228.276000976563 1385.371948242188 1228.317993164063 1381.3330078125 1228.317993164063 1381.3330078125 C 1228.317993164063 1376.524169921875 1227.41357421875 1376.409790039063 1227.32763671875 1376.409790039063 C 1227.3232421875 1376.409790039063 1227.321044921875 1376.410034179688 1227.321044921875 1376.410034179688 C 1228.780029296875 1373.128051757813 1228.511962890625 1313.548950195313 1227.321044921875 1312.161010742188 C 1227.321044921875 1311.088989257813 1227.139038085938 1307.489990234375 1227.139038085938 1307.489990234375 C 1227.77099609375 1300.800048828125 1227.012939453125 1293.35302734375 1220.702026367188 1286.157958984375 C 1214.390991210938 1278.963012695313 1212.75 1280.35205078125 1214.390991210938 1277.953002929688 C 1215.400024414063 1277.322021484375 1214.642944335938 1270.758056640625 1214.390991210938 1268.739013671875 C 1214.171264648438 1266.984741210938 1211.951782226563 1265.611083984375 1206.245849609375 1265.611083984375 C 1205.381591796875 1265.611083984375 1204.438354492188 1265.642578125 1203.409057617188 1265.708984375 C 1195.5830078125 1266.213989257813 1197.098022460938 1271.767944335938 1197.098022460938 1271.767944335938 C 1197.098022460938 1271.767944335938 1195.708984375 1273.913940429688 1196.97900390625 1276.691040039063 C 1196.97900390625 1276.691040039063 1197.60205078125 1277.701049804688 1195.8349609375 1280.60400390625 C 1194.067993164063 1283.506958007813 1182.833984375 1289.06103515625 1183.590942382813 1307.489990234375 L 1183.555053710938 1313.296997070313 C 1183.555053710938 1313.296997070313 1179.733032226563 1367.512939453125 1181.91796875 1375.660034179688 C 1181.547973632813 1375.840942382813 1181.31396484375 1376.047973632813 1181.241943359375 1376.284057617188 C 1181.241943359375 1376.284057617188 1180.156005859375 1380.071044921875 1181.241943359375 1381.3330078125 C 1181.241943359375 1381.3330078125 1179.552001953125 1388.654052734375 1185.10595703125 1391.682983398438 C 1186.526000976563 1392.457641601563 1187.723022460938 1392.745971679688 1188.718017578125 1392.745971679688 C 1191.310668945313 1392.745971679688 1192.532592773438 1390.788940429688 1192.760986328125 1390.376953125 C 1192.620971679688 1390.701049804688 1192.463989257813 1391.984008789063 1197.349975585938 1393.828979492188 C 1198.84521484375 1394.393920898438 1200.726196289063 1394.61767578125 1202.69189453125 1394.61767578125 M 1202.69189453125 1399.61767578125 C 1199.9267578125 1399.61767578125 1197.534912109375 1399.243774414063 1195.582885742188 1398.50634765625 C 1194.323608398438 1398.03076171875 1193.250244140625 1397.548706054688 1192.338256835938 1397.0478515625 C 1191.26953125 1397.4833984375 1190.059448242188 1397.745971679688 1188.718017578125 1397.745971679688 C 1186.768188476563 1397.745971679688 1184.747314453125 1397.182861328125 1182.711547851563 1396.072387695313 C 1180.605712890625 1394.923950195313 1178.95166015625 1393.294677734375 1177.796142578125 1391.230102539063 C 1176.927001953125 1389.677490234375 1176.365966796875 1387.911987304688 1176.128662109375 1385.982666015625 C 1175.939331054688 1384.444091796875 1175.986328125 1383.055297851563 1176.0888671875 1382.017578125 C 1175.952270507813 1381.5361328125 1175.85791015625 1381.025634765625 1175.806518554688 1380.487548828125 C 1175.72705078125 1379.655639648438 1175.7490234375 1378.726318359375 1175.8720703125 1377.725341796875 C 1176.046875 1376.302612304688 1176.372192382813 1375.127075195313 1176.435668945313 1374.905883789063 C 1176.443359375 1374.87890625 1176.451293945313 1374.851928710938 1176.459594726563 1374.825073242188 C 1176.505249023438 1374.67529296875 1176.56005859375 1374.517822265625 1176.626098632813 1374.354614257813 C 1176.378784179688 1372.200439453125 1176.201049804688 1368.674926757813 1176.252197265625 1362.437744140625 C 1176.2978515625 1356.86328125 1176.5234375 1349.714233398438 1176.922607421875 1341.189453125 C 1177.56005859375 1327.576538085938 1178.446044921875 1314.68994140625 1178.55615234375 1313.107055664063 L 1178.59033203125 1307.574340820313 C 1177.938354492188 1290.692260742188 1186.315063476563 1282.892822265625 1190.345581054688 1279.139892578125 C 1190.7978515625 1278.718872070313 1191.40673828125 1278.151977539063 1191.626831054688 1277.899658203125 C 1191.745849609375 1277.69921875 1191.83740234375 1277.529541015625 1191.907348632813 1277.389892578125 C 1191.3837890625 1275.674560546875 1191.300903320313 1273.886108398438 1191.672241210938 1272.144897460938 C 1191.760986328125 1271.729248046875 1191.86865234375 1271.348388671875 1191.984130859375 1271.005126953125 C 1191.935302734375 1269.448120117188 1192.222534179688 1267.275756835938 1193.705444335938 1265.19873046875 C 1194.665893554688 1263.853393554688 1195.969604492188 1262.786254882813 1197.580322265625 1262.02685546875 C 1199.1328125 1261.294921875 1200.985473632813 1260.85498046875 1203.087036132813 1260.719360351563 C 1204.200317382813 1260.6474609375 1205.263061523438 1260.611083984375 1206.245849609375 1260.611083984375 C 1209.665893554688 1260.611083984375 1212.322509765625 1261.042846679688 1214.367553710938 1261.931030273438 C 1215.677734375 1262.500122070313 1216.762939453125 1263.270141601563 1217.592895507813 1264.219970703125 C 1218.563598632813 1265.330688476563 1219.171875 1266.678466796875 1219.352172851563 1268.117553710938 C 1219.531372070313 1269.553466796875 1219.764404296875 1271.672485351563 1219.858154296875 1273.626953125 C 1219.922973632813 1274.977661132813 1219.914184570313 1276.075927734375 1219.83154296875 1276.984375 C 1219.809692382813 1277.224609375 1219.776000976563 1277.594604492188 1219.69287109375 1278.037231445313 C 1220.882080078125 1279.080200195313 1222.463012695313 1280.583129882813 1224.4609375 1282.86083984375 C 1226.233032226563 1284.881225585938 1227.72314453125 1287.037231445313 1228.890014648438 1289.269165039063 C 1229.973266601563 1291.340942382813 1230.809204101563 1293.538452148438 1231.374755859375 1295.800659179688 C 1232.272827148438 1299.392578125 1232.527099609375 1303.253051757813 1232.150268554688 1307.591430664063 C 1232.190795898438 1308.412841796875 1232.273193359375 1310.154907226563 1232.306640625 1311.344848632813 C 1232.404907226563 1311.766723632813 1232.453857421875 1312.141845703125 1232.4912109375 1312.427978515625 C 1232.571411132813 1313.042358398438 1232.6435546875 1313.835083007813 1232.711669921875 1314.851440429688 C 1232.830810546875 1316.630737304688 1232.936767578125 1319.095947265625 1233.026489257813 1322.178466796875 C 1233.195068359375 1327.967041015625 1233.297485351563 1335.562133789063 1233.314697265625 1343.564453125 C 1233.33251953125 1351.771118164063 1233.257080078125 1359.495483398438 1233.102294921875 1365.314697265625 C 1233.016479492188 1368.53759765625 1232.907348632813 1371.156005859375 1232.777709960938 1373.09716796875 C 1232.715087890625 1374.033325195313 1232.6494140625 1374.79443359375 1232.578125 1375.42529296875 C 1233.08251953125 1376.833251953125 1233.317993164063 1378.716186523438 1233.317993164063 1381.3330078125 C 1233.317993164063 1381.350341796875 1233.31787109375 1381.36767578125 1233.317749023438 1381.385009765625 C 1233.317260742188 1381.424438476563 1233.277099609375 1385.352905273438 1233.31640625 1386.885009765625 C 1233.393798828125 1389.9111328125 1231.108276367188 1392.7197265625 1229.739013671875 1394.12451171875 C 1228.163940429688 1395.740356445313 1224.8955078125 1398.451049804688 1220.702026367188 1398.451049804688 C 1218.946533203125 1398.451049804688 1217.271118164063 1398.010620117188 1215.77783203125 1397.177124023438 C 1215.644897460938 1397.23828125 1215.507202148438 1397.298706054688 1215.364501953125 1397.358520507813 C 1214.39453125 1397.76513671875 1213.200073242188 1398.143188476563 1211.81396484375 1398.482299804688 C 1208.864624023438 1399.203857421875 1205.539794921875 1399.61767578125 1202.69189453125 1399.61767578125 Z"/>
    </g>
    <path id="路径_7764" data-name="路径 7764" class="cls-2" d="M1197.1,1271.768s-1.515-5.554,6.311-6.059,10.729,1.01,10.982,3.03,1.009,8.583,0,9.214-16.141,1.515-17.411-1.262A5.339,5.339,0,0,1,1197.1,1271.768Z"/>
    <path id="路径_7765" data-name="路径 7765" class="cls-3" d="M1196.98,1276.691s.622,1.01-1.145,3.913-13,8.457-12.244,26.886c7.826,1.263,25.75,2.146,43.548,0,.632-6.69-.126-14.137-6.437-21.332s-7.952-5.806-6.311-8.2C1214.012,1276.691,1196.98,1276.691,1196.98,1276.691Z"/>
    <path id="路径_7766" data-name="路径 7766" class="cls-4" d="M1183.591,1307.49l-.036,5.807s33.471,3.786,43.766-1.136c0-1.072-.182-4.671-.182-4.671S1183.6,1305.852,1183.591,1307.49Z"/>
    <path id="路径_7767" data-name="路径 7767" class="cls-3" d="M1181.242,1381.333s-1.69,7.321,3.864,10.35,7.7-1.388,7.7-1.388-1.136,1.388,4.544,3.534,16.914-.631,17.293-1.893a15.906,15.906,0,0,1,.884-2.272s1.388,3.787,5.175,3.787,7.658-4.8,7.616-6.438,0-5.68,0-5.68S1181.386,1380.445,1181.242,1381.333Z"/>
    <path id="路径_7768" data-name="路径 7768" class="cls-4" d="M1181.242,1376.284s-1.086,3.787,0,5.049,43.331,3.156,47.076,0c0-5.049-1-4.923-1-4.923S1182.428,1372.371,1181.242,1376.284Z"/>
    <path id="路径_7769" data-name="路径 7769" class="cls-5" d="M1183.555,1313.3s-4.129,58.569-1.352,63.113c1.893,1.767,43.659,3.282,45.118,0s1.191-62.861,0-64.249S1183.694,1311.255,1183.555,1313.3Z"/>
    <path id="路径_7770" data-name="路径 7770" class="cls-6" d="M1181.854,1342.775s17.263-16.6,26.793-15.088,13.355,7.636,5.257,21.521-28.254,28.1-32.311,27.688c-.351-.612.107-2.016,0-3.107s13.4-5.584,19.29-23.508c2.357-7.069.084-12.875-11.192-7.237-7.286,4.292-8.017,3.856-7.978,2.943S1181.854,1342.775,1181.854,1342.775Z"/>
    <path id="路径_7771" data-name="路径 7771" class="cls-6" d="M1228.318,1354.909s-18.509,19.823-28.778,23.25c5.24.185,26.28.4,27.781-1.749C1227.7,1373.932,1228.318,1354.909,1228.318,1354.909Z"/>
    <path id="路径_7772" data-name="路径 7772" class="cls-6" d="M1182.406,1331.863s20.877-18.378,31.48-20.492c.883-.646-29.863-.6-30.331,1.926S1182.549,1329.23,1182.406,1331.863Z"/>
  </g>
</svg>
