<svg xmlns="http://www.w3.org/2000/svg" width="138.559" height="83.038" viewBox="0 0 138.559 83.038">
  <defs>
    <style>
      .cls-1, .cls-2 {
        fill: #ff8f4a;
        stroke-linejoin: round;
      }

      .cls-1 {
        stroke: #fff;
        stroke-width: 5px;
      }

      .cls-3 {
        fill: #ff5c4a;
      }

      .cls-4 {
        fill: #de3d2c;
      }

      .cls-5, .cls-7 {
        stroke: none;
      }

      .cls-6 {
        fill: none;
      }

      .cls-7 {
        fill: #fff;
      }
    </style>
  </defs>
  <g id="组_3284" data-name="组 3284" transform="translate(-129.72 -1238.167)">
    <g id="组_3282" data-name="组 3282">
      <g id="椭圆_1300" data-name="椭圆 1300" class="cls-1" transform="translate(134.72 1243.167)">
        <ellipse class="cls-5" cx="64.279" cy="20.682" rx="64.279" ry="20.682"/>
        <ellipse class="cls-6" cx="64.279" cy="20.682" rx="66.779" ry="23.182"/>
      </g>
      <g id="路径_8770" data-name="路径 8770" class="cls-2">
        <path class="cls-5" d="M 198.9989929199219 1318.704956054688 C 182.1556549072266 1318.704956054688 166.1654052734375 1316.547119140625 153.9738311767578 1312.62890625 C 147.9220428466797 1310.683959960938 143.0092163085938 1308.378540039063 139.3718414306641 1305.776489257813 C 135.3092651367188 1302.870361328125 132.9176788330078 1299.643432617188 132.2635650634766 1296.185668945313 L 132.2200012207031 1295.955322265625 L 132.2200012207031 1295.720947265625 L 132.2200012207031 1263.849975585938 L 137.2200012207031 1263.849975585938 C 137.2200012207031 1265.93994140625 138.5827484130859 1268.08203125 141.2704010009766 1270.216552734375 C 144.2104644775391 1272.551635742188 148.6781463623047 1274.759521484375 154.1905212402344 1276.601684570313 C 166.0314788818359 1280.558715820313 181.9447631835938 1282.738037109375 198.9989929199219 1282.738037109375 C 216.0536651611328 1282.738037109375 231.9672546386719 1280.558715820313 243.8083648681641 1276.601684570313 C 249.3207702636719 1274.759521484375 253.7885131835938 1272.551635742188 256.7285766601563 1270.216552734375 C 259.4162292480469 1268.08203125 260.7789916992188 1265.93994140625 260.7789916992188 1263.849975585938 L 265.7789916992188 1263.849975585938 L 265.7789916992188 1295.720947265625 L 265.7789916992188 1295.955322265625 L 265.7354125976563 1296.185668945313 C 265.0813293457031 1299.6435546875 262.6897277832031 1302.870361328125 258.6271362304688 1305.776489257813 C 254.9897308349609 1308.378540039063 250.0768737792969 1310.68408203125 244.0250396728516 1312.62890625 C 231.8333129882813 1316.547119140625 215.8427734375 1318.704956054688 198.9989929199219 1318.704956054688 Z"/>
        <path class="cls-7" d="M 134.7200012207031 1263.849975585938 L 134.7200012207031 1295.720947265625 C 136.8819885253906 1307.150024414063 164.5149993896484 1316.204956054688 198.9989929199219 1316.204956054688 C 233.4839935302734 1316.204956054688 261.1170043945313 1307.150024414063 263.2789916992188 1295.720947265625 L 263.2789916992188 1263.849975585938 C 263.2789916992188 1275.660034179688 234.8970031738281 1285.238037109375 198.9989929199219 1285.238037109375 C 163.1019897460938 1285.238037109375 134.7200012207031 1275.660034179688 134.7200012207031 1263.849975585938 M 134.7200012207031 1258.849975585938 C 137.4814147949219 1258.849975585938 139.7200012207031 1261.088500976563 139.7200012207031 1263.849975585938 C 139.7200012207031 1265.540283203125 141.66552734375 1267.337768554688 142.8252258300781 1268.258911132813 C 145.5396881103516 1270.414794921875 149.7437438964844 1272.479736328125 154.9828948974609 1274.230590820313 C 166.5751495361328 1278.1044921875 182.2070159912109 1280.238037109375 198.9989929199219 1280.238037109375 C 215.7914123535156 1280.238037109375 231.4236145019531 1278.1044921875 243.0159759521484 1274.230590820313 C 248.2551879882813 1272.479736328125 252.4592742919922 1270.414672851563 255.1737670898438 1268.2587890625 C 256.33349609375 1267.337768554688 258.2789916992188 1265.540283203125 258.2789916992188 1263.849975585938 C 258.2789916992188 1261.088500976563 260.517578125 1258.849975585938 263.2789916992188 1258.849975585938 C 266.0404052734375 1258.849975585938 268.2789916992188 1261.088500976563 268.2789916992188 1263.849975585938 L 268.2789916992188 1295.720947265625 C 268.2789916992188 1296.03271484375 268.2498168945313 1296.343872070313 268.1918640136719 1296.650268554688 C 267.4140625 1300.761962890625 264.6854248046875 1304.5166015625 260.0816650390625 1307.809814453125 C 256.2334289550781 1310.562622070313 251.0885620117188 1312.98486328125 244.7899475097656 1315.009033203125 C 232.357666015625 1319.004516601563 216.095458984375 1321.204956054688 198.9989929199219 1321.204956054688 C 181.9029541015625 1321.204956054688 165.6410522460938 1319.004516601563 153.2088928222656 1315.009033203125 C 146.9103240966797 1312.98486328125 141.7655029296875 1310.562622070313 137.9172973632813 1307.809814453125 C 133.3135681152344 1304.516479492188 130.5848999023438 1300.761962890625 129.80712890625 1296.650268554688 C 129.7491760253906 1296.343872070313 129.7200012207031 1296.03271484375 129.7200012207031 1295.720947265625 L 129.7200012207031 1263.849975585938 C 129.7200012207031 1261.088500976563 131.9585876464844 1258.849975585938 134.7200012207031 1258.849975585938 Z"/>
      </g>
    </g>
    <g id="组_3283" data-name="组 3283">
      <ellipse id="椭圆_1301" data-name="椭圆 1301" class="cls-3" cx="64.279" cy="20.682" rx="64.279" ry="20.682" transform="translate(134.72 1243.167)"/>
      <path id="路径_8771" data-name="路径 8771" class="cls-4" d="M199,1285.238c-35.9,0-64.279-9.578-64.279-21.388v31.871h0c2.162,11.429,29.795,20.484,64.279,20.484s62.118-9.055,64.28-20.484h0V1263.85C263.279,1275.66,234.9,1285.238,199,1285.238Z"/>
    </g>
  </g>
</svg>
