<svg xmlns="http://www.w3.org/2000/svg" width="68.004" height="68.016" viewBox="0 0 68.004 68.016">
  <defs>
    <style>
      .cls-1 {
        fill: #aad946;
      }

      .cls-2 {
        fill: #93c428;
      }
    </style>
  </defs>
  <g id="组_3301" data-name="组 3301" transform="translate(-538.024 -1103.545)">
    <path id="路径_8820" data-name="路径 8820" class="cls-1" d="M606,1136.665a.942.942,0,0,0-.516.192c-36.084,25.308-65.52,1.14-66.72,0a1.025,1.025,0,0,0-.72-.276,33.99,33.99,0,0,1,67.956.084Z"/>
    <path id="路径_8821" data-name="路径 8821" class="cls-2" d="M606.028,1137.553c0,.492-.012.972-.036,1.464a33.995,33.995,0,0,1-67.932-.12c-.024-.444-.036-.9-.036-1.344,0-.324,0-.648.024-.972a1.025,1.025,0,0,1,.72.276c1.2,1.14,30.636,25.308,66.72,0a.942.942,0,0,1,.516-.192C606.028,1136.965,606.028,1137.253,606.028,1137.553Z"/>
  </g>
</svg>
