<svg xmlns="http://www.w3.org/2000/svg" width="78.004" height="78.016" viewBox="0 0 78.004 78.016">
  <defs>
    <style>
      .cls-1 {
        fill: #ff8f4a;
        stroke-linejoin: round;
      }

      .cls-2 {
        fill: #aad946;
      }

      .cls-3 {
        fill: #93c428;
      }

      .cls-4, .cls-5 {
        stroke: none;
      }

      .cls-5 {
        fill: #fff;
      }
    </style>
  </defs>
  <g id="组_3302" data-name="组 3302" transform="translate(-533.024 -1240.162)">
    <g id="路径_8822" data-name="路径 8822" class="cls-1">
      <path class="cls-4" d="M 572.031982421875 1315.677978515625 C 567.2242431640625 1315.677978515625 562.5499267578125 1314.756469726563 558.138916015625 1312.938842773438 C 553.8794555664063 1311.183837890625 550.0309448242188 1308.665649414063 546.7002563476563 1305.454223632813 C 543.3750610351563 1302.248046875 540.7205810546875 1298.500366210938 538.8106079101563 1294.315307617188 C 536.8404541015625 1289.998291015625 535.7476806640625 1285.393432617188 535.5625610351563 1280.628784179688 C 535.5369873046875 1280.148071289063 535.5239868164063 1279.657470703125 535.5239868164063 1279.170043945313 C 535.5239868164063 1278.840087890625 535.5239868164063 1278.46826171875 535.5504760742188 1278.074829101563 C 535.6893310546875 1273.27783203125 536.7463989257813 1268.637084960938 538.6926879882813 1264.280883789063 C 540.5828247070313 1260.05029296875 543.2310180664063 1256.25927734375 546.5635986328125 1253.01318359375 C 549.9000854492188 1249.763305664063 553.7642211914063 1247.213989257813 558.048583984375 1245.436279296875 C 562.485107421875 1243.595336914063 567.1898193359375 1242.661987304688 572.031982421875 1242.661987304688 C 576.880615234375 1242.661987304688 581.5909423828125 1243.598388671875 586.0321044921875 1245.445068359375 C 590.32080078125 1247.228271484375 594.1871948242188 1249.785034179688 597.5238647460938 1253.044067382813 C 600.8568725585938 1256.299560546875 603.5023803710938 1260.100463867188 605.3868408203125 1264.341064453125 C 607.326416015625 1268.705688476563 608.374267578125 1273.353393554688 608.5016479492188 1278.15625 C 608.5280151367188 1278.527099609375 608.5280151367188 1278.867553710938 608.5280151367188 1279.170043945313 C 608.5280151367188 1279.696166992188 608.515380859375 1280.212036132813 608.4894409179688 1280.746826171875 C 608.2897338867188 1285.500366210938 607.1865844726563 1290.092895507813 605.2105102539063 1294.396484375 C 603.29541015625 1298.567138671875 600.6404418945313 1302.301025390625 597.3192138671875 1305.494140625 C 590.48876953125 1312.061279296875 581.5082397460938 1315.677978515625 572.031982421875 1315.677978515625 Z"/>
      <path class="cls-5" d="M 572.031982421875 1245.161987304688 C 553.5759887695313 1245.161987304688 538.552001953125 1259.862060546875 538.0479736328125 1278.197998046875 C 538.0239868164063 1278.52197265625 538.0239868164063 1278.845947265625 538.0239868164063 1279.170043945313 C 538.0239868164063 1279.614013671875 538.0360107421875 1280.069946289063 538.0599975585938 1280.514038085938 C 538.7559814453125 1298.670043945313 553.7080078125 1313.177978515625 572.031982421875 1313.177978515625 C 590.3200073242188 1313.177978515625 605.2360229492188 1298.72998046875 605.9920043945313 1280.634033203125 C 606.0159912109375 1280.141967773438 606.0280151367188 1279.661987304688 606.0280151367188 1279.170043945313 C 606.0280151367188 1278.869995117188 606.0280151367188 1278.58203125 606.0040283203125 1278.281982421875 C 605.5479736328125 1259.910034179688 590.5120239257813 1245.161987304688 572.031982421875 1245.161987304688 M 572.031982421875 1240.161987304688 C 577.2117309570313 1240.161987304688 582.2449951171875 1241.162841796875 586.991943359375 1243.136596679688 C 591.5748901367188 1245.042236328125 595.7060546875 1247.77392578125 599.2706909179688 1251.255615234375 C 602.831298828125 1254.7333984375 605.65771484375 1258.79443359375 607.67138671875 1263.325927734375 C 609.7374877929688 1267.975219726563 610.85693359375 1272.924072265625 610.9993286132813 1278.037109375 C 611.0280151367188 1278.472290039063 611.0280151367188 1278.855590820313 611.0280151367188 1279.170043945313 C 611.0280151367188 1279.734252929688 611.0145874023438 1280.287231445313 610.9869384765625 1280.859985351563 C 610.7725830078125 1285.936645507813 609.5935668945313 1290.842163085938 607.4824829101563 1295.439697265625 C 605.4361572265625 1299.896118164063 602.5997314453125 1303.88525390625 599.0518798828125 1307.296264648438 C 595.4968872070313 1310.714233398438 591.39111328125 1313.394409179688 586.8485717773438 1315.262084960938 C 582.1428833007813 1317.196899414063 577.1578369140625 1318.177978515625 572.031982421875 1318.177978515625 C 566.8958740234375 1318.177978515625 561.901123046875 1317.192993164063 557.1864624023438 1315.250366210938 C 552.635009765625 1313.375 548.5230712890625 1310.6845703125 544.9650268554688 1307.25390625 C 541.4129028320313 1303.828979492188 538.5770874023438 1299.825073242188 536.5362548828125 1295.353271484375 C 534.4327392578125 1290.744140625 533.2649536132813 1285.828979492188 533.0651245117188 1280.743774414063 C 533.037841796875 1280.224731445313 533.0239868164063 1279.695434570313 533.0239868164063 1279.170043945313 C 533.0239868164063 1278.830322265625 533.0239868164063 1278.414672851563 533.0528564453125 1277.956909179688 C 533.20654296875 1272.847412109375 534.3359375 1267.903686523438 536.41015625 1263.260986328125 C 538.4298706054688 1258.740478515625 541.2590942382813 1254.690063476563 544.8192138671875 1251.222290039063 C 548.3836059570313 1247.75048828125 552.5122680664063 1245.02685546875 557.0904541015625 1243.127197265625 C 561.8322143554688 1241.15966796875 566.8592529296875 1240.161987304688 572.031982421875 1240.161987304688 Z"/>
    </g>
    <path id="路径_8823" data-name="路径 8823" class="cls-2" d="M606,1278.282a.942.942,0,0,0-.516.192c-36.084,25.308-65.52,1.14-66.72,0a1.025,1.025,0,0,0-.72-.276,33.99,33.99,0,0,1,67.956.084Z"/>
    <path id="路径_8824" data-name="路径 8824" class="cls-3" d="M606.028,1279.17c0,.492-.012.972-.036,1.464a33.995,33.995,0,0,1-67.932-.12c-.024-.444-.036-.9-.036-1.344,0-.324,0-.648.024-.972a1.025,1.025,0,0,1,.72.276c1.2,1.14,30.636,25.308,66.72,0a.942.942,0,0,1,.516-.192C606.028,1278.582,606.028,1278.87,606.028,1279.17Z"/>
  </g>
</svg>
