<svg xmlns="http://www.w3.org/2000/svg" width="55.388" height="57.539" viewBox="0 0 55.388 57.539">
  <defs>
    <style>
      .cls-1 {
        fill: #ff8f4a;
        stroke-linejoin: round;
      }

      .cls-2 {
        fill: #ff8d99;
      }

      .cls-3 {
        fill: #ffa8b3;
      }

      .cls-4 {
        fill: #e87885;
      }

      .cls-5, .cls-6 {
        stroke: none;
      }

      .cls-6 {
        fill: #fff;
      }
    </style>
  </defs>
  <g id="组_3296" data-name="组 3296" transform="translate(-313.903 -1255.762)">
    <g id="路径_8807" data-name="路径 8807" class="cls-1">
      <path class="cls-5" d="M 358.6803283691406 1310.801635742188 L 357.3427124023438 1310.801635742188 L 318.903076171875 1310.801635742188 L 316.403076171875 1310.801635742188 L 316.403076171875 1308.301635742188 L 316.403076171875 1269.879638671875 L 316.403076171875 1269.0146484375 L 316.9376220703125 1268.334716796875 L 324.1044311523438 1259.217407226563 L 324.8551330566406 1258.262329101563 L 326.0698852539063 1258.262329101563 L 363.8577880859375 1258.262329101563 L 366.3287963867188 1258.262329101563 L 366.3576354980469 1260.733154296875 L 366.7905578613281 1297.855102539063 L 366.799560546875 1298.628295898438 L 366.3705444335938 1299.271484375 L 359.4225463867188 1309.688842773438 L 358.6803283691406 1310.801635742188 Z"/>
      <path class="cls-6" d="M 326.0698852539063 1260.762329101563 L 318.903076171875 1269.879638671875 L 318.903076171875 1308.301635742188 L 357.3427124023438 1308.301635742188 L 364.2907104492188 1297.88427734375 L 363.8577880859375 1260.762329101563 L 326.0698852539063 1260.762329101563 M 326.0698852539063 1255.762329101563 L 363.8577880859375 1255.762329101563 C 366.5964660644531 1255.762329101563 368.8255004882813 1257.965576171875 368.8574523925781 1260.703979492188 L 369.2903747558594 1297.825927734375 C 369.3021240234375 1298.833251953125 369.0093383789063 1299.820556640625 368.4503784179688 1300.658569335938 L 361.5024108886719 1311.076049804688 C 360.5749816894531 1312.466552734375 359.0141296386719 1313.301635742188 357.3427124023438 1313.301635742188 L 318.903076171875 1313.301635742188 C 316.1416625976563 1313.301635742188 313.903076171875 1311.063110351563 313.903076171875 1308.301635742188 L 313.903076171875 1269.879638671875 C 313.903076171875 1268.758911132813 314.2795715332031 1267.670776367188 314.9721374511719 1266.789672851563 L 322.1389465332031 1257.67236328125 C 323.0869140625 1256.466430664063 324.5359497070313 1255.762329101563 326.0698852539063 1255.762329101563 Z"/>
    </g>
    <path id="路径_8808" data-name="路径 8808" class="cls-2" d="M318.9,1269.88h38.44V1308.3H318.9Z"/>
    <path id="路径_8809" data-name="路径 8809" class="cls-3" d="M326.07,1260.762h37.788l-6.515,9.118H318.9Z"/>
    <path id="路径_8810" data-name="路径 8810" class="cls-4" d="M357.343,1269.88V1308.3l6.948-10.418-.433-37.122Z"/>
  </g>
</svg>
