<svg xmlns="http://www.w3.org/2000/svg" width="174.672" height="80.332" viewBox="0 0 174.672 80.332">
  <defs>
    <style>
      .cls-1 {
        fill: #ff8f4a;
        stroke-linejoin: round;
      }

      .cls-2 {
        fill: #b2ede1;
      }

      .cls-3 {
        fill: #56d1b8;
      }

      .cls-4 {
        fill: #85e6d2;
      }

      .cls-5, .cls-6 {
        stroke: none;
      }

      .cls-6 {
        fill: #fff;
      }
    </style>
  </defs>
  <g id="组_3305" data-name="组 3305" transform="translate(-628.327 -1249.862)">
    <g id="路径_8831" data-name="路径 8831" class="cls-1">
      <path class="cls-5" d="M 690.8862915039063 1327.9609375 L 689.8531494140625 1327.290405273438 L 631.9661254882813 1289.7177734375 L 630.8272094726563 1288.978515625 L 630.8272094726563 1287.620727539063 L 630.8272094726563 1254.861694335938 L 630.8272094726563 1252.361694335938 L 633.3272094726563 1252.361694335938 L 797.9995727539063 1252.361694335938 L 800.4995727539063 1252.361694335938 L 800.4995727539063 1254.861694335938 L 800.4995727539063 1287.44091796875 L 800.4995727539063 1289.208740234375 L 798.8328857421875 1289.797973632813 L 692.0475463867188 1327.550415039063 L 690.8862915039063 1327.9609375 Z"/>
      <path class="cls-6" d="M 633.3272094726563 1254.861694335938 L 633.3272094726563 1287.620727539063 L 691.2142333984375 1325.193359375 L 797.9995727539063 1287.44091796875 L 797.9995727539063 1254.861694335938 L 633.3272094726563 1254.861694335938 M 633.3272094726563 1249.861694335938 L 797.9995727539063 1249.861694335938 C 800.760986328125 1249.861694335938 802.9995727539063 1252.100219726563 802.9995727539063 1254.861694335938 L 802.9995727539063 1287.44091796875 C 802.9995727539063 1289.559814453125 801.6639404296875 1291.44873046875 799.6661376953125 1292.155029296875 L 692.880859375 1329.907470703125 C 692.3389892578125 1330.098999023438 691.775390625 1330.193359375 691.2145385742188 1330.193359375 C 690.2598266601563 1330.193359375 689.312744140625 1329.920043945313 688.4920654296875 1329.387329101563 L 630.6050415039063 1291.814697265625 C 629.1845092773438 1290.892700195313 628.3272094726563 1289.314331054688 628.3272094726563 1287.620727539063 L 628.3272094726563 1254.861694335938 C 628.3272094726563 1252.100219726563 630.5657958984375 1249.861694335938 633.3272094726563 1249.861694335938 Z"/>
    </g>
    <path id="路径_8832" data-name="路径 8832" class="cls-2" d="M633.327,1254.862l57.887,36.314L798,1254.862Z"/>
    <path id="路径_8833" data-name="路径 8833" class="cls-3" d="M691.214,1291.176v34.017L798,1287.441v-32.579Z"/>
    <path id="路径_8834" data-name="路径 8834" class="cls-4" d="M633.327,1254.862v32.759l57.887,37.573v-34.017Z"/>
  </g>
</svg>
