<svg xmlns="http://www.w3.org/2000/svg" width="78.004" height="78.016" viewBox="0 0 78.004 78.016">
  <defs>
    <style>
      .cls-1 {
        fill: #ff8f4a;
        stroke-linejoin: round;
      }

      .cls-2 {
        fill: #91caff;
      }

      .cls-3 {
        fill: #6bb8ff;
      }

      .cls-4, .cls-5 {
        stroke: none;
      }

      .cls-5 {
        fill: #fff;
      }
    </style>
  </defs>
  <g id="组_3299" data-name="组 3299" transform="translate(-423.492 -1240.162)">
    <g id="路径_8815" data-name="路径 8815" class="cls-1">
      <path class="cls-4" d="M 462.5 1315.677978515625 C 457.6922302246094 1315.677978515625 453.0179443359375 1314.756469726563 448.6069030761719 1312.938842773438 C 444.3474731445313 1311.183837890625 440.4989624023438 1308.665649414063 437.1682434082031 1305.454223632813 C 433.8430480957031 1302.248046875 431.1885681152344 1298.500366210938 429.2785949707031 1294.315307617188 C 427.3085632324219 1289.998657226563 426.2158203125 1285.393920898438 426.0306091308594 1280.629516601563 C 426.0050048828125 1280.149169921875 425.9920043945313 1279.658325195313 425.9920043945313 1279.170043945313 C 425.9920043945313 1278.840087890625 425.9920043945313 1278.46826171875 426.0184631347656 1278.074829101563 C 426.1573486328125 1273.27783203125 427.2144470214844 1268.637084960938 429.1607055664063 1264.280883789063 C 431.0508422851563 1260.05029296875 433.6990051269531 1256.25927734375 437.0316162109375 1253.01318359375 C 440.3681335449219 1249.763305664063 444.2322387695313 1247.213989257813 448.5166015625 1245.436279296875 C 452.953125 1243.595336914063 457.6578063964844 1242.661987304688 462.5 1242.661987304688 C 467.3486022949219 1242.661987304688 472.0589294433594 1243.598388671875 476.5001220703125 1245.445068359375 C 480.7887878417969 1247.228271484375 484.6551818847656 1249.785034179688 487.9918518066406 1253.044067382813 C 491.3248596191406 1256.299560546875 493.9703369140625 1260.100463867188 495.8548278808594 1264.341064453125 C 497.7943725585938 1268.705688476563 498.8422241210938 1273.353271484375 498.9695739746094 1278.156127929688 C 498.9960021972656 1278.527099609375 498.9960021972656 1278.867553710938 498.9960021972656 1279.170043945313 C 498.9960021972656 1279.696899414063 498.9833679199219 1280.213012695313 498.9574279785156 1280.74755859375 C 498.7576293945313 1285.500854492188 497.6544494628906 1290.09326171875 495.6784973144531 1294.396484375 C 493.763427734375 1298.567138671875 491.1083984375 1302.301025390625 487.7872009277344 1305.494140625 C 480.9567565917969 1312.061279296875 471.9762573242188 1315.677978515625 462.5 1315.677978515625 Z"/>
      <path class="cls-5" d="M 462.5 1245.161987304688 C 444.0440063476563 1245.161987304688 429.0199890136719 1259.862060546875 428.5159912109375 1278.197998046875 C 428.4920043945313 1278.52197265625 428.4920043945313 1278.845947265625 428.4920043945313 1279.170043945313 C 428.4920043945313 1279.614013671875 428.5039978027344 1280.069946289063 428.5280151367188 1280.514038085938 C 429.2239990234375 1298.670043945313 444.1759948730469 1313.177978515625 462.5 1313.177978515625 C 480.7879943847656 1313.177978515625 495.7040100097656 1298.72998046875 496.4599914550781 1280.634033203125 C 496.4840087890625 1280.141967773438 496.4960021972656 1279.661987304688 496.4960021972656 1279.170043945313 C 496.4960021972656 1278.869995117188 496.4960021972656 1278.58203125 496.4719848632813 1278.281982421875 C 496.0159912109375 1259.910034179688 480.9800109863281 1245.161987304688 462.5 1245.161987304688 M 462.5 1240.161987304688 C 467.6797485351563 1240.161987304688 472.7130126953125 1241.162841796875 477.4599609375 1243.136596679688 C 482.0429077148438 1245.042236328125 486.174072265625 1247.77392578125 489.7386779785156 1251.255615234375 C 493.29931640625 1254.7333984375 496.125732421875 1258.79443359375 498.139404296875 1263.325927734375 C 500.2054748535156 1267.975219726563 501.3248901367188 1272.923828125 501.4672546386719 1278.036865234375 C 501.4960021972656 1278.47216796875 501.4960021972656 1278.855590820313 501.4960021972656 1279.170043945313 C 501.4960021972656 1279.73486328125 501.4825744628906 1280.287841796875 501.4548950195313 1280.859985351563 C 501.2405700683594 1285.936645507813 500.0615234375 1290.842163085938 497.950439453125 1295.439697265625 C 495.9041748046875 1299.896118164063 493.0677185058594 1303.88525390625 489.5198974609375 1307.296264648438 C 485.9648742675781 1310.714233398438 481.8591003417969 1313.394409179688 477.3165893554688 1315.262084960938 C 472.6108703613281 1317.196899414063 467.6258544921875 1318.177978515625 462.5 1318.177978515625 C 457.3638610839844 1318.177978515625 452.3691101074219 1317.192993164063 447.6544799804688 1315.250366210938 C 443.1029968261719 1313.375 438.9910888671875 1310.6845703125 435.4330139160156 1307.25390625 C 431.8809204101563 1303.828979492188 429.0450744628906 1299.825073242188 427.0042419433594 1295.353271484375 C 424.9007568359375 1290.744140625 423.7330017089844 1285.828979492188 423.5331726074219 1280.743774414063 C 423.505859375 1280.225463867188 423.4920043945313 1279.696166992188 423.4920043945313 1279.170043945313 C 423.4920043945313 1278.830322265625 423.4920043945313 1278.414672851563 423.5208740234375 1277.956909179688 C 423.674560546875 1272.847412109375 424.8039245605469 1267.903686523438 426.8781433105469 1263.260986328125 C 428.8978576660156 1258.740478515625 431.7271118164063 1254.690063476563 435.2872314453125 1251.222290039063 C 438.8516235351563 1247.75048828125 442.9802856445313 1245.02685546875 447.5584716796875 1243.127197265625 C 452.3002319335938 1241.15966796875 457.3273010253906 1240.161987304688 462.5 1240.161987304688 Z"/>
    </g>
    <path id="路径_8816" data-name="路径 8816" class="cls-2" d="M496.472,1278.282a.942.942,0,0,0-.516.192c-36.084,25.308-65.52,1.14-66.72,0a1.025,1.025,0,0,0-.72-.276,33.99,33.99,0,0,1,67.956.084Z"/>
    <path id="路径_8817" data-name="路径 8817" class="cls-3" d="M496.5,1279.17c0,.492-.012.972-.036,1.464a33.994,33.994,0,0,1-67.932-.12c-.024-.444-.036-.9-.036-1.344,0-.324,0-.648.024-.972a1.025,1.025,0,0,1,.72.276c1.2,1.14,30.636,25.308,66.72,0a.942.942,0,0,1,.516-.192C496.5,1278.582,496.5,1278.87,496.5,1279.17Z"/>
  </g>
</svg>
