<svg xmlns="http://www.w3.org/2000/svg" width="67.961" height="113.373" viewBox="0 0 67.961 113.373">
  <defs>
    <style>
      .cls-1 {
        fill: #ff8f4a;
        stroke-linejoin: round;
      }

      .cls-2 {
        fill: #ca9eff;
      }

      .cls-3 {
        fill: #e0c7ff;
      }

      .cls-4 {
        fill: #a678db;
      }

      .cls-5, .cls-6 {
        stroke: none;
      }

      .cls-6 {
        fill: #fff;
      }
    </style>
  </defs>
  <g id="组_3293" data-name="组 3293" transform="translate(-961.163 -1216.333)">
    <g id="路径_8797" data-name="路径 8797" class="cls-1">
      <path class="cls-5" d="M 1016.668701171875 1327.205078125 L 1015.367370605469 1327.205078125 L 966.1629028320313 1327.205078125 L 963.6629028320313 1327.205078125 L 963.6629028320313 1324.705078125 L 963.6629028320313 1233.003173828125 L 963.6629028320313 1232.13818359375 L 964.1974487304688 1231.458251953125 L 973.3712768554688 1219.78759765625 L 974.1219482421875 1218.83251953125 L 975.3367309570313 1218.83251953125 L 1023.706970214844 1218.83251953125 L 1026.195556640625 1218.83251953125 L 1026.206909179688 1221.321044921875 L 1026.6240234375 1312.189697265625 L 1026.627685546875 1312.984375 L 1026.171752929688 1313.63525390625 L 1017.415161132813 1326.13916015625 L 1016.668701171875 1327.205078125 Z"/>
      <path class="cls-6" d="M 975.3367309570313 1221.33251953125 L 966.162841796875 1233.003173828125 L 966.162841796875 1324.705078125 L 1015.367370605469 1324.705078125 L 1024.1240234375 1312.201171875 L 1023.706970214844 1221.33251953125 L 975.3367309570313 1221.33251953125 M 975.3367309570313 1216.33251953125 L 1023.706970214844 1216.33251953125 C 1026.45947265625 1216.33251953125 1028.6943359375 1218.55712890625 1028.706909179688 1221.3095703125 L 1029.1240234375 1312.17822265625 C 1029.128662109375 1313.212280273438 1028.812744140625 1314.222290039063 1028.219604492188 1315.0693359375 L 1019.462951660156 1327.5732421875 C 1018.527221679688 1328.909423828125 1016.998596191406 1329.705078125 1015.367370605469 1329.705078125 L 966.162841796875 1329.705078125 C 963.4013671875 1329.705078125 961.162841796875 1327.466430664063 961.162841796875 1324.705078125 L 961.162841796875 1233.003173828125 C 961.162841796875 1231.882446289063 961.539306640625 1230.794311523438 962.23193359375 1229.913208007813 L 971.4058227539063 1218.242553710938 C 972.353759765625 1217.03662109375 973.8027954101563 1216.33251953125 975.3367309570313 1216.33251953125 Z"/>
    </g>
    <path id="路径_8798" data-name="路径 8798" class="cls-2" d="M966.163,1233h49.2v91.7h-49.2Z"/>
    <path id="路径_8799" data-name="路径 8799" class="cls-3" d="M975.337,1221.333h48.37l-8.34,11.67h-49.2Z"/>
    <path id="路径_8800" data-name="路径 8800" class="cls-4" d="M1015.367,1233v91.7l8.757-12.5-.417-90.868Z"/>
  </g>
</svg>
