<svg xmlns="http://www.w3.org/2000/svg" width="80.896" height="103.816" viewBox="0 0 80.896 103.816">
  <defs>
    <style>
      .cls-1, .cls-3 {
        fill: #ff8f4a;
      }

      .cls-1 {
        stroke-linejoin: round;
      }

      .cls-2 {
        fill: #e87731;
      }

      .cls-4, .cls-5 {
        stroke: none;
      }

      .cls-5 {
        fill: #fff;
      }
    </style>
  </defs>
  <g id="组_3287" data-name="组 3287" transform="translate(-26.177 -1217.389)">
    <g id="路径_8778" data-name="路径 8778" class="cls-1">
      <path class="cls-4" d="M 66.625 1318.704956054688 C 59.08356475830078 1318.704956054688 51.82143020629883 1317.531372070313 45.62210845947266 1315.310913085938 C 44.7286262512207 1315.000366210938 43.83587646484375 1314.652587890625 42.96834182739258 1314.277099609375 C 38.68288040161133 1312.440063476563 35.26356506347656 1310.166137695313 32.80540084838867 1307.5185546875 C 31.49705696105957 1306.109375 30.48281478881836 1304.60546875 29.79082870483398 1303.048706054688 C 29.05174255371094 1301.385864257813 28.67700004577637 1299.659301757813 28.67700004577637 1297.9169921875 L 28.67700004577637 1297.359497070313 L 28.91388511657715 1296.854736328125 L 61.4578857421875 1227.518798828125 L 64.36155700683594 1221.327514648438 L 66.61930084228516 1216.513427734375 L 68.88636779785156 1221.323120117188 L 69.77436828613281 1223.20703125 L 104.3357849121094 1296.781982421875 L 104.572998046875 1297.286987304688 L 104.572998046875 1297.844970703125 C 104.572998046875 1299.404174804688 104.271369934082 1300.95654296875 103.6764984130859 1302.458740234375 C 103.1154174804688 1303.875610351563 102.2890167236328 1305.2568359375 101.2202606201172 1306.56396484375 C 99.21640014648438 1309.0146484375 96.39494323730469 1311.19287109375 92.83428192138672 1313.0380859375 C 85.78279876708984 1316.6923828125 76.47483062744141 1318.704956054688 66.625 1318.704956054688 Z"/>
      <path class="cls-5" d="M 66.625 1222.389038085938 L 63.72100067138672 1228.5810546875 L 31.177001953125 1297.9169921875 C 31.177001953125 1303.5810546875 36.14499664306641 1308.633056640625 43.95700073242188 1311.98095703125 C 44.76100158691406 1312.328979492188 45.58899688720703 1312.652954101563 46.4530029296875 1312.953002929688 C 52.177001953125 1315.005004882813 59.13700103759766 1316.204956054688 66.625 1316.204956054688 C 86.18499755859375 1316.204956054688 102.072998046875 1307.961059570313 102.072998046875 1297.844970703125 L 67.51300048828125 1224.27294921875 L 66.625 1222.389038085938 M 66.62503814697266 1217.389038085938 C 68.56066131591797 1217.389038085938 70.32235717773438 1218.506103515625 71.14775085449219 1220.257202148438 L 72.03575134277344 1222.14111328125 C 72.03668212890625 1222.14306640625 72.03762817382813 1222.145141601563 72.03856658935547 1222.147094726563 L 106.5985641479492 1295.719116210938 C 106.911018371582 1296.38427734375 107.072998046875 1297.110107421875 107.072998046875 1297.844970703125 C 107.072998046875 1299.720703125 106.7122802734375 1301.582641601563 106.0008850097656 1303.379150390625 C 105.3448638916016 1305.035766601563 104.3876037597656 1306.639770507813 103.155647277832 1308.146362304688 C 100.9349670410156 1310.8623046875 97.849365234375 1313.2548828125 93.98458862304688 1315.2578125 C 86.584228515625 1319.092895507813 76.86775207519531 1321.204956054688 66.625 1321.204956054688 C 58.80377197265625 1321.204956054688 51.25328826904297 1319.981811523438 44.78884887695313 1317.66796875 C 43.84379577636719 1317.339111328125 42.89962768554688 1316.97119140625 41.98191070556641 1316.574340820313 C 37.37429046630859 1314.598876953125 33.67022705078125 1312.124267578125 30.97328186035156 1309.219482421875 C 27.83553314208984 1305.839965820313 26.177001953125 1301.931518554688 26.177001953125 1297.9169921875 C 26.177001953125 1297.1826171875 26.33876800537109 1296.457275390625 26.65077972412109 1295.79248046875 L 59.19478607177734 1226.45654296875 L 62.09811401367188 1220.265991210938 C 62.92078399658203 1218.511840820313 64.68273162841797 1217.390869140625 66.62014770507813 1217.389038085938 C 66.62168884277344 1217.389038085938 66.62350463867188 1217.389038085938 66.62503814697266 1217.389038085938 Z"/>
    </g>
    <path id="路径_8779" data-name="路径 8779" class="cls-2" d="M63.721,1228.581l-19.764,83.4c-7.812-3.348-12.78-8.4-12.78-14.064Z"/>
    <path id="路径_8780" data-name="路径 8780" class="cls-3" d="M102.073,1297.845c0,10.116-15.888,18.36-35.448,18.36a60.6,60.6,0,0,1-20.172-3.252c-.864-.3-1.692-.624-2.5-.972l19.764-83.4,2.9-6.192.888,1.884Z"/>
  </g>
</svg>
