<svg xmlns="http://www.w3.org/2000/svg" width="93.762" height="97.941" viewBox="0 0 93.762 97.941">
  <defs>
    <style>
      .cls-1 {
        fill: #ff8f4a;
        stroke-linejoin: round;
      }

      .cls-2 {
        fill: #ffcc4a;
      }

      .cls-3 {
        fill: #ffdf8f;
      }

      .cls-4 {
        fill: #e3b236;
      }

      .cls-5, .cls-6 {
        stroke: none;
      }

      .cls-6 {
        fill: #fff;
      }
    </style>
  </defs>
  <g id="组_3290" data-name="组 3290" transform="translate(-832.254 -1224.048)">
    <g id="路径_8787" data-name="路径 8787" class="cls-1">
      <path class="cls-5" d="M 909.711181640625 1319.4892578125 L 908.3618774414063 1319.4892578125 L 837.2542114257813 1319.4892578125 L 834.7542114257813 1319.4892578125 L 834.7542114257813 1316.9892578125 L 834.7542114257813 1245.9140625 L 834.7542114257813 1245.049072265625 L 835.2887573242188 1244.369018554688 L 848.5462646484375 1227.50341796875 L 849.2969970703125 1226.548461914063 L 850.51171875 1226.548461914063 L 920.4137573242188 1226.548461914063 L 922.8919067382813 1226.548461914063 L 922.9136962890625 1229.026489257813 L 923.5164794921875 1297.692626953125 L 923.523193359375 1298.451904296875 L 923.1064453125 1299.086669921875 L 910.4517211914063 1318.361328125 L 909.711181640625 1319.4892578125 Z"/>
      <path class="cls-6" d="M 850.51171875 1229.048461914063 L 837.2542114257813 1245.9140625 L 837.2542114257813 1316.9892578125 L 908.3618774414063 1316.9892578125 L 921.0166015625 1297.714599609375 L 920.4137573242188 1229.048461914063 L 850.51171875 1229.048461914063 M 850.51171875 1224.048461914063 L 920.4137573242188 1224.048461914063 C 923.1580810546875 1224.048461914063 925.3894653320313 1226.260375976563 925.41357421875 1229.004516601563 L 926.0164184570313 1297.670654296875 C 926.0250854492188 1298.660766601563 925.7396850585938 1299.631103515625 925.1962890625 1300.458740234375 L 912.5415649414063 1319.7333984375 C 911.6171875 1321.141357421875 910.0460815429688 1321.9892578125 908.3618774414063 1321.9892578125 L 837.2542114257813 1321.9892578125 C 834.4927978515625 1321.9892578125 832.2542114257813 1319.750610351563 832.2542114257813 1316.9892578125 L 832.2542114257813 1245.9140625 C 832.2542114257813 1244.793334960938 832.6307373046875 1243.705200195313 833.3233032226563 1242.824096679688 L 846.580810546875 1225.95849609375 C 847.5287475585938 1224.752563476563 848.977783203125 1224.048461914063 850.51171875 1224.048461914063 Z"/>
    </g>
    <path id="路径_8788" data-name="路径 8788" class="cls-2" d="M837.254,1245.914h71.108v71.075H837.254Z"/>
    <path id="路径_8789" data-name="路径 8789" class="cls-3" d="M850.512,1229.048h69.9l-12.052,16.866H837.254Z"/>
    <path id="路径_8790" data-name="路径 8790" class="cls-4" d="M908.362,1245.914v71.075l12.655-19.274-.6-68.667Z"/>
  </g>
</svg>
