<svg xmlns="http://www.w3.org/2000/svg" width="90.604" height="83.936" viewBox="0 0 90.604 83.936">
  <defs>
    <style>
      .cls-1, .cls-3, .cls-7 {
        fill: #fff;
      }

      .cls-1 {
        stroke-linecap: round;
        stroke-linejoin: round;
      }

      .cls-2 {
        fill: #56d1b8;
      }

      .cls-4 {
        fill: #85e6d2;
      }

      .cls-5 {
        fill: #b2ede1;
      }

      .cls-6, .cls-7 {
        stroke: none;
      }
    </style>
  </defs>
  <g id="组_4465" data-name="组 4465" transform="translate(-722.288 -523.581)">
    <g id="路径_10092" data-name="路径 10092" class="cls-1" transform="translate(8.568 -1999.742)">
      <path class="cls-6" d="M 785.0153198242188 2602.2587890625 L 783.9247436523438 2602.2587890625 L 763.8563842773438 2602.2587890625 L 743.7880859375 2602.2587890625 L 723.7197875976563 2602.2587890625 L 718.7197875976563 2602.2587890625 L 718.7197875976563 2597.2587890625 L 718.7197875976563 2577.199462890625 L 718.7197875976563 2557.14013671875 L 718.7197875976563 2537.080810546875 L 718.7197875976563 2533.515380859375 L 722.0906372070313 2532.353759765625 L 732.9937133789063 2528.59619140625 L 733.7854614257813 2528.3232421875 L 734.6228637695313 2528.3232421875 L 754.691162109375 2528.3232421875 L 774.759521484375 2528.3232421875 L 794.3241577148438 2528.3232421875 L 795.1763916015625 2533.326171875 L 799.3157958984375 2533.326171875 L 799.3157958984375 2552.380615234375 L 799.3157958984375 2572.43994140625 L 799.3157958984375 2592.49951171875 L 799.3157958984375 2595.708984375 L 796.3978881835938 2597.04541015625 L 786.0068359375 2601.8046875 L 785.0153198242188 2602.2587890625 Z"/>
      <path class="cls-7" d="M 734.6228637695313 2533.3232421875 L 723.7197875976563 2537.080810546875 L 723.7197875976563 2557.14013671875 L 723.7197875976563 2577.199462890625 L 723.7197875976563 2597.2587890625 L 743.7880859375 2597.2587890625 L 763.8563842773438 2597.2587890625 L 783.9247436523438 2597.2587890625 L 794.3157958984375 2592.49951171875 L 794.3157958984375 2572.43994140625 L 794.3157958984375 2552.380615234375 L 794.3157958984375 2533.326171875 L 794.3241577148438 2533.3232421875 L 774.759521484375 2533.3232421875 L 754.691162109375 2533.3232421875 L 734.6228637695313 2533.3232421875 M 734.6228637695313 2523.3232421875 L 754.691162109375 2523.3232421875 L 774.759521484375 2523.3232421875 L 794.3241577148438 2523.3232421875 C 796.97705078125 2523.3232421875 799.5213012695313 2524.37744140625 801.3967895507813 2526.253662109375 C 803.2722778320313 2528.130126953125 804.3253173828125 2530.6748046875 804.3241577148438 2533.32763671875 L 804.3157958984375 2552.385009765625 L 804.3157958984375 2572.43994140625 L 804.3157958984375 2592.49951171875 C 804.3157958984375 2596.41064453125 802.0357666015625 2599.962646484375 798.47998046875 2601.59130859375 L 788.0888671875 2606.3505859375 C 786.7822265625 2606.948974609375 785.3619384765625 2607.2587890625 783.9247436523438 2607.2587890625 L 763.8563842773438 2607.2587890625 L 743.7880859375 2607.2587890625 L 723.7197875976563 2607.2587890625 C 718.1969604492188 2607.2587890625 713.7197875976563 2602.78173828125 713.7197875976563 2597.2587890625 L 713.7197875976563 2577.199462890625 L 713.7197875976563 2557.14013671875 L 713.7197875976563 2537.080810546875 C 713.7197875976563 2532.813720703125 716.4273681640625 2529.016845703125 720.4614868164063 2527.62646484375 L 731.3645629882813 2523.868896484375 C 732.4129028320313 2523.507568359375 733.5140380859375 2523.3232421875 734.6228637695313 2523.3232421875 Z"/>
    </g>
    <g id="组_4458" data-name="组 4458" transform="translate(8.568 -1999.742)">
      <path id="路径_10411" data-name="路径 10411" class="cls-2" d="M723.72,2577.2h20.068v20.059H723.72Z"/>
      <path id="路径_10412" data-name="路径 10412" class="cls-3" d="M727.462,2572.44h19.727l-3.4,4.76H723.72Z"/>
      <path id="路径_10413" data-name="路径 10413" class="cls-3" d="M743.788,2576.86v20.4l3.4-5.1-.171-19.714Z"/>
      <path id="路径_10414" data-name="路径 10414" class="cls-4" d="M743.788,2577.2h20.068v20.059H743.788Z"/>
      <path id="路径_10415" data-name="路径 10415" class="cls-3" d="M747.53,2572.44h19.728l-3.4,4.76H743.788Z"/>
      <path id="路径_10416" data-name="路径 10416" class="cls-3" d="M763.856,2576.86v20.4l3.4-5.1-.172-19.714Z"/>
      <path id="路径_10417" data-name="路径 10417" class="cls-2" d="M763.856,2577.2h20.069v20.059H763.856Z"/>
      <path id="路径_10418" data-name="路径 10418" class="cls-4" d="M783.925,2576.86v20.4l10.391-4.76V2572.44Z"/>
      <path id="路径_10419" data-name="路径 10419" class="cls-4" d="M723.72,2557.14h20.068v20.06H723.72Z"/>
      <path id="路径_10420" data-name="路径 10420" class="cls-3" d="M727.462,2552.381h19.727l-3.4,4.759H723.72Z"/>
      <path id="路径_10421" data-name="路径 10421" class="cls-3" d="M743.788,2556.8v20.4l3.4-5.106-.171-19.713Z"/>
      <path id="路径_10422" data-name="路径 10422" class="cls-2" d="M743.788,2557.14h20.068v20.06H743.788Z"/>
      <path id="路径_10423" data-name="路径 10423" class="cls-3" d="M747.53,2552.381h19.728l-3.4,4.759H743.788Z"/>
      <path id="路径_10424" data-name="路径 10424" class="cls-3" d="M763.856,2556.8v20.4l3.4-5.106-.172-19.713Z"/>
      <path id="路径_10425" data-name="路径 10425" class="cls-4" d="M763.856,2557.14h20.069v20.06H763.856Z"/>
      <path id="路径_10426" data-name="路径 10426" class="cls-5" d="M783.925,2556.8v20.4l10.391-4.76v-20.059Z"/>
      <path id="路径_10427" data-name="路径 10427" class="cls-2" d="M723.72,2537.081h20.068v20.059H723.72Z"/>
      <path id="路径_10428" data-name="路径 10428" class="cls-4" d="M734.623,2533.323h20.068l-10.9,3.758H723.72Z"/>
      <path id="路径_10429" data-name="路径 10429" class="cls-4" d="M743.788,2537.081h20.068v20.059H743.788Z"/>
      <path id="路径_10430" data-name="路径 10430" class="cls-5" d="M754.691,2533.323H774.76l-10.9,3.758H743.788Z"/>
      <path id="路径_10431" data-name="路径 10431" class="cls-2" d="M763.856,2537.081h20.069v20.059H763.856Z"/>
      <path id="路径_10432" data-name="路径 10432" class="cls-4" d="M774.76,2533.323h19.564l-10.4,3.758H763.856Z"/>
      <path id="路径_10433" data-name="路径 10433" class="cls-4" d="M783.925,2536.742v20.4l10.391-4.759v-19.058Z"/>
    </g>
  </g>
</svg>
