<svg xmlns="http://www.w3.org/2000/svg" width="110.835" height="124.053" viewBox="0 0 110.835 124.053">
  <defs>
    <style>
      .cls-1, .cls-3, .cls-7 {
        fill: #fff;
      }

      .cls-1 {
        stroke-linecap: round;
        stroke-linejoin: round;
      }

      .cls-2 {
        fill: #56d1b8;
      }

      .cls-4 {
        fill: #85e6d2;
      }

      .cls-5 {
        fill: #b2ede1;
      }

      .cls-6, .cls-7 {
        stroke: none;
      }
    </style>
  </defs>
  <g id="组_4466" data-name="组 4466" transform="translate(-876.441 -486.806)">
    <g id="路径_10091" data-name="路径 10091" class="cls-1" transform="translate(8.568 -1999.742)">
      <path class="cls-6" d="M 959.2909545898438 2605.601806640625 L 958.14599609375 2605.601806640625 L 938.0778198242188 2605.601806640625 L 918.0096435546875 2605.601806640625 L 897.9414672851563 2605.601806640625 L 877.873291015625 2605.601806640625 L 872.873291015625 2605.601806640625 L 872.873291015625 2600.601806640625 L 872.873291015625 2580.54248046875 L 872.873291015625 2560.4833984375 L 872.873291015625 2540.424072265625 L 872.873291015625 2520.364990234375 L 872.873291015625 2500.3056640625 L 872.873291015625 2496.740234375 L 876.2442626953125 2495.578369140625 L 887.1472778320313 2491.821044921875 L 887.93896484375 2491.54833984375 L 888.7763061523438 2491.54833984375 L 908.844482421875 2491.54833984375 L 928.9126586914063 2491.54833984375 L 948.9808349609375 2491.54833984375 L 968.5453491210938 2491.54833984375 L 969.390380859375 2496.55126953125 L 973.5369262695313 2496.55126953125 L 973.5369262695313 2515.60546875 L 973.5369262695313 2535.664794921875 L 973.5369262695313 2555.723876953125 L 973.5369262695313 2575.760498046875 L 973.7083129882813 2595.453369140625 L 973.7359008789063 2598.620361328125 L 970.88427734375 2599.99853515625 L 960.32177734375 2605.103515625 L 959.2909545898438 2605.601806640625 Z"/>
      <path class="cls-7" d="M 958.14599609375 2600.601806640625 L 968.70849609375 2595.496826171875 L 968.5369262695313 2575.783203125 L 968.5369262695313 2555.723876953125 L 968.5369262695313 2535.664794921875 L 968.5369262695313 2515.60546875 L 968.5369262695313 2496.55126953125 L 968.5453491210938 2496.54833984375 L 948.9808349609375 2496.54833984375 L 928.9126586914063 2496.54833984375 L 908.844482421875 2496.54833984375 L 888.7763061523438 2496.54833984375 L 877.873291015625 2500.3056640625 L 877.873291015625 2520.364990234375 L 877.873291015625 2540.424072265625 L 877.873291015625 2560.4833984375 L 877.873291015625 2580.54248046875 L 877.873291015625 2600.601806640625 L 897.9414672851563 2600.601806640625 L 918.0096435546875 2600.601806640625 L 938.0778198242188 2600.601806640625 L 958.14599609375 2600.601806640625 M 958.14599609375 2610.601806640625 L 938.0778198242188 2610.601806640625 L 918.0096435546875 2610.601806640625 L 897.9414672851563 2610.601806640625 L 877.873291015625 2610.601806640625 C 872.3504638671875 2610.601806640625 867.873291015625 2606.124755859375 867.873291015625 2600.601806640625 L 867.873291015625 2580.54248046875 L 867.873291015625 2560.4833984375 L 867.873291015625 2540.424072265625 L 867.873291015625 2520.364990234375 L 867.873291015625 2500.3056640625 C 867.873291015625 2496.03857421875 870.5809326171875 2492.24169921875 874.6151733398438 2490.851318359375 L 885.5181884765625 2487.093994140625 C 886.5664672851563 2486.732666015625 887.6675415039063 2486.54833984375 888.7763061523438 2486.54833984375 L 908.844482421875 2486.54833984375 L 928.9126586914063 2486.54833984375 L 948.9808349609375 2486.54833984375 L 968.5453491210938 2486.54833984375 C 971.1983032226563 2486.54833984375 973.7424926757813 2487.6025390625 975.6179809570313 2489.478759765625 C 977.4934692382813 2491.355224609375 978.5465087890625 2493.89990234375 978.5453491210938 2496.552734375 L 978.5369262695313 2515.60986328125 L 978.5369262695313 2535.664794921875 L 978.5369262695313 2555.723876953125 L 978.5369262695313 2575.783203125 L 978.7081298828125 2595.409912109375 C 978.7417602539063 2599.27734375 976.542236328125 2602.8173828125 973.06005859375 2604.50048828125 L 962.49755859375 2609.60546875 C 961.140625 2610.26123046875 959.653076171875 2610.601806640625 958.14599609375 2610.601806640625 Z"/>
    </g>
    <g id="组_4457" data-name="组 4457" transform="translate(8.568 -1999.742)">
      <path id="路径_10358" data-name="路径 10358" class="cls-2" d="M877.873,2580.543h20.068V2600.6H877.873Z"/>
      <path id="路径_10359" data-name="路径 10359" class="cls-3" d="M881.615,2575.783h19.728l-3.4,4.76H877.873Z"/>
      <path id="路径_10360" data-name="路径 10360" class="cls-3" d="M897.941,2580.2v20.4l3.4-5.1-.172-19.714Z"/>
      <path id="路径_10361" data-name="路径 10361" class="cls-4" d="M897.941,2580.543H918.01V2600.6H897.941Z"/>
      <path id="路径_10362" data-name="路径 10362" class="cls-3" d="M901.683,2575.783h19.728l-3.4,4.76H897.941Z"/>
      <path id="路径_10363" data-name="路径 10363" class="cls-3" d="M918.01,2580.2v20.4l3.4-5.1-.172-19.714Z"/>
      <path id="路径_10364" data-name="路径 10364" class="cls-2" d="M918.01,2580.543h20.068V2600.6H918.01Z"/>
      <path id="路径_10365" data-name="路径 10365" class="cls-3" d="M921.751,2575.783h19.728l-3.4,4.76H918.01Z"/>
      <path id="路径_10366" data-name="路径 10366" class="cls-3" d="M938.078,2580.2v20.4l3.4-5.1-.172-19.714Z"/>
      <path id="路径_10367" data-name="路径 10367" class="cls-4" d="M938.078,2580.543h20.068V2600.6H938.078Z"/>
      <path id="路径_10368" data-name="路径 10368" class="cls-5" d="M958.146,2580.2v20.4l10.562-5.1-.171-19.714Z"/>
      <path id="路径_10369" data-name="路径 10369" class="cls-4" d="M877.873,2560.483h20.068v20.06H877.873Z"/>
      <path id="路径_10370" data-name="路径 10370" class="cls-3" d="M881.615,2555.724h19.728l-3.4,4.759H877.873Z"/>
      <path id="路径_10371" data-name="路径 10371" class="cls-3" d="M897.941,2560.144v20.4l3.4-5.1-.172-19.714Z"/>
      <path id="路径_10372" data-name="路径 10372" class="cls-2" d="M897.941,2560.483H918.01v20.06H897.941Z"/>
      <path id="路径_10373" data-name="路径 10373" class="cls-3" d="M901.683,2555.724h19.728l-3.4,4.759H897.941Z"/>
      <path id="路径_10374" data-name="路径 10374" class="cls-3" d="M918.01,2560.144v20.4l3.4-5.1-.172-19.714Z"/>
      <path id="路径_10375" data-name="路径 10375" class="cls-4" d="M918.01,2560.483h20.068v20.06H918.01Z"/>
      <path id="路径_10376" data-name="路径 10376" class="cls-3" d="M921.751,2555.724h19.728l-3.4,4.759H918.01Z"/>
      <path id="路径_10377" data-name="路径 10377" class="cls-3" d="M938.078,2560.144v20.4l3.4-5.1-.172-19.714Z"/>
      <path id="路径_10378" data-name="路径 10378" class="cls-2" d="M938.078,2560.483h20.068v20.06H938.078Z"/>
      <path id="路径_10379" data-name="路径 10379" class="cls-4" d="M958.146,2560.144v20.4l10.391-4.76v-20.059Z"/>
      <path id="路径_10380" data-name="路径 10380" class="cls-2" d="M877.873,2540.424h20.068v20.059H877.873Z"/>
      <path id="路径_10381" data-name="路径 10381" class="cls-3" d="M881.615,2535.665h19.728l-3.4,4.759H877.873Z"/>
      <path id="路径_10382" data-name="路径 10382" class="cls-3" d="M897.941,2540.085v20.4l3.4-5.1-.172-19.713Z"/>
      <path id="路径_10383" data-name="路径 10383" class="cls-4" d="M897.941,2540.424H918.01v20.059H897.941Z"/>
      <path id="路径_10384" data-name="路径 10384" class="cls-3" d="M901.683,2535.665h19.728l-3.4,4.759H897.941Z"/>
      <path id="路径_10385" data-name="路径 10385" class="cls-3" d="M918.01,2540.085v20.4l3.4-5.1-.172-19.713Z"/>
      <path id="路径_10386" data-name="路径 10386" class="cls-2" d="M918.01,2540.424h20.068v20.059H918.01Z"/>
      <path id="路径_10387" data-name="路径 10387" class="cls-3" d="M921.751,2535.665h19.728l-3.4,4.759H918.01Z"/>
      <path id="路径_10388" data-name="路径 10388" class="cls-3" d="M938.078,2540.085v20.4l3.4-5.1-.172-19.713Z"/>
      <path id="路径_10389" data-name="路径 10389" class="cls-4" d="M938.078,2540.424h20.068v20.059H938.078Z"/>
      <path id="路径_10390" data-name="路径 10390" class="cls-5" d="M958.146,2540.085v20.4l10.391-4.759v-20.059Z"/>
      <path id="路径_10391" data-name="路径 10391" class="cls-4" d="M877.873,2520.365h20.068v20.059H877.873Z"/>
      <path id="路径_10392" data-name="路径 10392" class="cls-3" d="M881.615,2515.606h19.728l-3.4,4.759H877.873Z"/>
      <path id="路径_10393" data-name="路径 10393" class="cls-3" d="M897.941,2520.026v20.4l3.4-5.1-.172-19.713Z"/>
      <path id="路径_10394" data-name="路径 10394" class="cls-2" d="M897.941,2520.365H918.01v20.059H897.941Z"/>
      <path id="路径_10395" data-name="路径 10395" class="cls-3" d="M901.683,2515.606h19.728l-3.4,4.759H897.941Z"/>
      <path id="路径_10396" data-name="路径 10396" class="cls-3" d="M918.01,2520.026v20.4l3.4-5.1-.172-19.713Z"/>
      <path id="路径_10397" data-name="路径 10397" class="cls-4" d="M918.01,2520.365h20.068v20.059H918.01Z"/>
      <path id="路径_10398" data-name="路径 10398" class="cls-3" d="M921.751,2515.606h19.728l-3.4,4.759H918.01Z"/>
      <path id="路径_10399" data-name="路径 10399" class="cls-3" d="M938.078,2520.026v20.4l3.4-5.1-.172-19.713Z"/>
      <path id="路径_10400" data-name="路径 10400" class="cls-2" d="M938.078,2520.365h20.068v20.059H938.078Z"/>
      <path id="路径_10401" data-name="路径 10401" class="cls-4" d="M958.146,2520.026v20.4l10.391-4.759v-20.059Z"/>
      <path id="路径_10402" data-name="路径 10402" class="cls-2" d="M877.873,2500.306h20.068v20.059H877.873Z"/>
      <path id="路径_10403" data-name="路径 10403" class="cls-4" d="M888.776,2496.548h20.068l-10.9,3.758H877.873Z"/>
      <path id="路径_10404" data-name="路径 10404" class="cls-4" d="M897.941,2500.306H918.01v20.059H897.941Z"/>
      <path id="路径_10405" data-name="路径 10405" class="cls-5" d="M908.844,2496.548h20.069l-10.9,3.758H897.941Z"/>
      <path id="路径_10406" data-name="路径 10406" class="cls-2" d="M918.01,2500.306h20.068v20.059H918.01Z"/>
      <path id="路径_10407" data-name="路径 10407" class="cls-4" d="M928.913,2496.548h20.068l-10.9,3.758H918.01Z"/>
      <path id="路径_10408" data-name="路径 10408" class="cls-4" d="M938.078,2500.306h20.068v20.059H938.078Z"/>
      <path id="路径_10409" data-name="路径 10409" class="cls-5" d="M948.981,2496.548h19.564l-10.4,3.758H938.078Z"/>
      <path id="路径_10410" data-name="路径 10410" class="cls-5" d="M958.146,2499.967v20.4l10.391-4.759v-19.058Z"/>
    </g>
  </g>
</svg>
