<svg xmlns="http://www.w3.org/2000/svg" width="90.835" height="104.054" viewBox="0 0 90.835 104.054">
  <defs>
    <style>
      .cls-1 {
        fill: #56d1b8;
      }

      .cls-2 {
        fill: #fff;
      }

      .cls-3 {
        fill: #85e6d2;
      }

      .cls-4 {
        fill: #b2ede1;
      }
    </style>
  </defs>
  <g id="组_4452" data-name="组 4452" transform="translate(-877.873 -2327.61)">
    <path id="路径_10227" data-name="路径 10227" class="cls-1" d="M877.873,2411.6h20.068v20.06H877.873Z"/>
    <path id="路径_10228" data-name="路径 10228" class="cls-2" d="M881.615,2406.845h19.728l-3.4,4.759H877.873Z"/>
    <path id="路径_10229" data-name="路径 10229" class="cls-2" d="M897.941,2411.265v20.4l3.4-5.1-.172-19.714Z"/>
    <path id="路径_10230" data-name="路径 10230" class="cls-3" d="M897.941,2411.6H918.01v20.06H897.941Z"/>
    <path id="路径_10231" data-name="路径 10231" class="cls-2" d="M901.683,2406.845h19.728l-3.4,4.759H897.941Z"/>
    <path id="路径_10232" data-name="路径 10232" class="cls-2" d="M918.01,2411.265v20.4l3.4-5.1-.172-19.714Z"/>
    <path id="路径_10233" data-name="路径 10233" class="cls-1" d="M918.01,2411.6h20.068v20.06H918.01Z"/>
    <path id="路径_10234" data-name="路径 10234" class="cls-2" d="M921.751,2406.845h19.728l-3.4,4.759H918.01Z"/>
    <path id="路径_10235" data-name="路径 10235" class="cls-2" d="M938.078,2411.265v20.4l3.4-5.1-.172-19.714Z"/>
    <path id="路径_10236" data-name="路径 10236" class="cls-3" d="M938.078,2411.6h20.068v20.06H938.078Z"/>
    <path id="路径_10237" data-name="路径 10237" class="cls-4" d="M958.146,2411.265v20.4l10.562-5.1-.171-19.714Z"/>
    <path id="路径_10238" data-name="路径 10238" class="cls-3" d="M877.873,2391.545h20.068V2411.6H877.873Z"/>
    <path id="路径_10239" data-name="路径 10239" class="cls-2" d="M881.615,2386.786h19.728l-3.4,4.759H877.873Z"/>
    <path id="路径_10240" data-name="路径 10240" class="cls-2" d="M897.941,2391.206v20.4l3.4-5.1-.172-19.713Z"/>
    <path id="路径_10241" data-name="路径 10241" class="cls-1" d="M897.941,2391.545H918.01V2411.6H897.941Z"/>
    <path id="路径_10242" data-name="路径 10242" class="cls-2" d="M901.683,2386.786h19.728l-3.4,4.759H897.941Z"/>
    <path id="路径_10243" data-name="路径 10243" class="cls-2" d="M918.01,2391.206v20.4l3.4-5.1-.172-19.713Z"/>
    <path id="路径_10244" data-name="路径 10244" class="cls-3" d="M918.01,2391.545h20.068V2411.6H918.01Z"/>
    <path id="路径_10245" data-name="路径 10245" class="cls-2" d="M921.751,2386.786h19.728l-3.4,4.759H918.01Z"/>
    <path id="路径_10246" data-name="路径 10246" class="cls-2" d="M938.078,2391.206v20.4l3.4-5.1-.172-19.713Z"/>
    <path id="路径_10247" data-name="路径 10247" class="cls-1" d="M938.078,2391.545h20.068V2411.6H938.078Z"/>
    <path id="路径_10248" data-name="路径 10248" class="cls-3" d="M958.146,2391.206v20.4l10.391-4.759v-20.059Z"/>
    <path id="路径_10249" data-name="路径 10249" class="cls-1" d="M877.873,2371.486h20.068v20.059H877.873Z"/>
    <path id="路径_10250" data-name="路径 10250" class="cls-2" d="M881.615,2366.727h19.728l-3.4,4.759H877.873Z"/>
    <path id="路径_10251" data-name="路径 10251" class="cls-2" d="M897.941,2371.147v20.4l3.4-5.1-.172-19.713Z"/>
    <path id="路径_10252" data-name="路径 10252" class="cls-3" d="M897.941,2371.486H918.01v20.059H897.941Z"/>
    <path id="路径_10253" data-name="路径 10253" class="cls-2" d="M901.683,2366.727h19.728l-3.4,4.759H897.941Z"/>
    <path id="路径_10254" data-name="路径 10254" class="cls-2" d="M918.01,2371.147v20.4l3.4-5.1-.172-19.713Z"/>
    <path id="路径_10255" data-name="路径 10255" class="cls-1" d="M918.01,2371.486h20.068v20.059H918.01Z"/>
    <path id="路径_10256" data-name="路径 10256" class="cls-2" d="M921.751,2366.727h19.728l-3.4,4.759H918.01Z"/>
    <path id="路径_10257" data-name="路径 10257" class="cls-2" d="M938.078,2371.147v20.4l3.4-5.1-.172-19.713Z"/>
    <path id="路径_10258" data-name="路径 10258" class="cls-3" d="M938.078,2371.486h20.068v20.059H938.078Z"/>
    <path id="路径_10259" data-name="路径 10259" class="cls-4" d="M958.146,2371.147v20.4l10.391-4.759v-20.059Z"/>
    <path id="路径_10260" data-name="路径 10260" class="cls-3" d="M877.873,2351.427h20.068v20.059H877.873Z"/>
    <path id="路径_10261" data-name="路径 10261" class="cls-2" d="M881.615,2346.667h19.728l-3.4,4.76H877.873Z"/>
    <path id="路径_10262" data-name="路径 10262" class="cls-2" d="M897.941,2351.088v20.4l3.4-5.1-.172-19.714Z"/>
    <path id="路径_10263" data-name="路径 10263" class="cls-1" d="M897.941,2351.427H918.01v20.059H897.941Z"/>
    <path id="路径_10264" data-name="路径 10264" class="cls-2" d="M901.683,2346.667h19.728l-3.4,4.76H897.941Z"/>
    <path id="路径_10265" data-name="路径 10265" class="cls-2" d="M918.01,2351.088v20.4l3.4-5.1-.172-19.714Z"/>
    <path id="路径_10266" data-name="路径 10266" class="cls-3" d="M918.01,2351.427h20.068v20.059H918.01Z"/>
    <path id="路径_10267" data-name="路径 10267" class="cls-2" d="M921.751,2346.667h19.728l-3.4,4.76H918.01Z"/>
    <path id="路径_10268" data-name="路径 10268" class="cls-2" d="M938.078,2351.088v20.4l3.4-5.1-.172-19.714Z"/>
    <path id="路径_10269" data-name="路径 10269" class="cls-1" d="M938.078,2351.427h20.068v20.059H938.078Z"/>
    <path id="路径_10270" data-name="路径 10270" class="cls-3" d="M958.146,2351.088v20.4l10.391-4.759v-20.06Z"/>
    <path id="路径_10271" data-name="路径 10271" class="cls-1" d="M877.873,2331.368h20.068v20.059H877.873Z"/>
    <path id="路径_10272" data-name="路径 10272" class="cls-3" d="M888.776,2327.61h20.068l-10.9,3.758H877.873Z"/>
    <path id="路径_10273" data-name="路径 10273" class="cls-3" d="M897.941,2331.368H918.01v20.059H897.941Z"/>
    <path id="路径_10274" data-name="路径 10274" class="cls-4" d="M908.844,2327.61h20.069l-10.9,3.758H897.941Z"/>
    <path id="路径_10275" data-name="路径 10275" class="cls-1" d="M918.01,2331.368h20.068v20.059H918.01Z"/>
    <path id="路径_10276" data-name="路径 10276" class="cls-3" d="M928.913,2327.61h20.068l-10.9,3.758H918.01Z"/>
    <path id="路径_10277" data-name="路径 10277" class="cls-3" d="M938.078,2331.368h20.068v20.059H938.078Z"/>
    <path id="路径_10278" data-name="路径 10278" class="cls-4" d="M948.981,2327.61h19.564l-10.4,3.758H938.078Z"/>
    <path id="路径_10279" data-name="路径 10279" class="cls-4" d="M958.146,2331.028v20.4l10.391-4.76V2327.61Z"/>
  </g>
</svg>
