<svg xmlns="http://www.w3.org/2000/svg" width="131.336" height="121.663" viewBox="0 0 131.336 121.663">
  <defs>
    <style>
      .cls-1 {
        fill: #85e6d2;
      }

      .cls-2 {
        fill: #fff;
      }

      .cls-3 {
        fill: #56d1b8;
      }

      .cls-4 {
        fill: #b2ede1;
      }
    </style>
  </defs>
  <g id="组_4440" data-name="组 4440" transform="translate(-746.036 -266.806)">
    <g id="组_4439" data-name="组 4439">
      <path id="路径_10041" data-name="路径 10041" class="cls-1" d="M746.036,359.414H775.1v29.055H746.036Z"/>
      <path id="路径_10042" data-name="路径 10042" class="cls-2" d="M751.456,352.52h28.575l-4.927,6.894H746.036Z"/>
      <path id="路径_10043" data-name="路径 10043" class="cls-2" d="M775.1,358.923v29.546l4.927-7.394-.249-28.555Z"/>
      <path id="路径_10044" data-name="路径 10044" class="cls-3" d="M775.1,359.414h29.068v29.055H775.1Z"/>
      <path id="路径_10045" data-name="路径 10045" class="cls-2" d="M780.524,352.52H809.1l-4.927,6.894H775.1Z"/>
      <path id="路径_10046" data-name="路径 10046" class="cls-2" d="M804.172,358.923v29.546l4.927-7.394-.248-28.555Z"/>
      <path id="路径_10047" data-name="路径 10047" class="cls-1" d="M804.172,359.414h29.069v29.055H804.172Z"/>
      <path id="路径_10048" data-name="路径 10048" class="cls-2" d="M809.592,352.52h28.575l-4.926,6.894H804.172Z"/>
      <path id="路径_10049" data-name="路径 10049" class="cls-2" d="M833.241,358.923v29.546l4.926-7.394-.248-28.555Z"/>
      <path id="路径_10050" data-name="路径 10050" class="cls-3" d="M833.241,359.414h29.068v29.055H833.241Z"/>
      <path id="路径_10051" data-name="路径 10051" class="cls-1" d="M862.309,358.923v29.546l15.051-6.894V352.52Z"/>
      <path id="路径_10052" data-name="路径 10052" class="cls-3" d="M746.036,330.359H775.1v29.055H746.036Z"/>
      <path id="路径_10053" data-name="路径 10053" class="cls-2" d="M751.456,323.465h28.575l-4.927,6.894H746.036Z"/>
      <path id="路径_10054" data-name="路径 10054" class="cls-2" d="M775.1,329.868v29.546l4.927-7.394-.249-28.555Z"/>
      <path id="路径_10055" data-name="路径 10055" class="cls-1" d="M775.1,330.359h29.068v29.055H775.1Z"/>
      <path id="路径_10056" data-name="路径 10056" class="cls-2" d="M780.524,323.465H809.1l-4.927,6.894H775.1Z"/>
      <path id="路径_10057" data-name="路径 10057" class="cls-2" d="M804.172,329.868v29.546l4.927-7.394-.248-28.555Z"/>
      <path id="路径_10058" data-name="路径 10058" class="cls-3" d="M804.172,330.359h29.069v29.055H804.172Z"/>
      <path id="路径_10059" data-name="路径 10059" class="cls-2" d="M809.592,323.465h28.575l-4.926,6.894H804.172Z"/>
      <path id="路径_10060" data-name="路径 10060" class="cls-2" d="M833.241,329.868v29.546l4.926-7.394-.248-28.555Z"/>
      <path id="路径_10061" data-name="路径 10061" class="cls-1" d="M833.241,330.359h29.068v29.055H833.241Z"/>
      <path id="路径_10062" data-name="路径 10062" class="cls-4" d="M862.309,329.868v29.546l15.051-6.894V323.465Z"/>
      <path id="路径_10063" data-name="路径 10063" class="cls-1" d="M746.036,301.3H775.1v29.055H746.036Z"/>
      <path id="路径_10064" data-name="路径 10064" class="cls-2" d="M751.456,294.41h28.575L775.1,301.3H746.036Z"/>
      <path id="路径_10065" data-name="路径 10065" class="cls-2" d="M775.1,300.813v29.546l4.927-7.394-.249-28.555Z"/>
      <path id="路径_10066" data-name="路径 10066" class="cls-3" d="M775.1,301.3h29.068v29.055H775.1Z"/>
      <path id="路径_10067" data-name="路径 10067" class="cls-2" d="M780.524,294.41H809.1l-4.927,6.894H775.1Z"/>
      <path id="路径_10068" data-name="路径 10068" class="cls-2" d="M804.172,300.813v29.546l4.927-7.394-.248-28.555Z"/>
      <path id="路径_10069" data-name="路径 10069" class="cls-1" d="M804.172,301.3h29.069v29.055H804.172Z"/>
      <path id="路径_10070" data-name="路径 10070" class="cls-2" d="M809.592,294.41h28.575l-4.926,6.894H804.172Z"/>
      <path id="路径_10071" data-name="路径 10071" class="cls-2" d="M833.241,300.813v29.546l4.926-7.394-.248-28.555Z"/>
      <path id="路径_10072" data-name="路径 10072" class="cls-3" d="M833.241,301.3h29.068v29.055H833.241Z"/>
      <path id="路径_10073" data-name="路径 10073" class="cls-1" d="M862.309,300.813v29.546l15.051-6.894V294.41Z"/>
      <path id="路径_10074" data-name="路径 10074" class="cls-3" d="M746.036,272.249H775.1V301.3H746.036Z"/>
      <path id="路径_10075" data-name="路径 10075" class="cls-1" d="M761.829,266.806H790.9L775.1,272.249H746.036Z"/>
      <path id="路径_10076" data-name="路径 10076" class="cls-1" d="M775.1,272.249h29.068V301.3H775.1Z"/>
      <path id="路径_10077" data-name="路径 10077" class="cls-4" d="M790.9,266.806h29.068l-15.793,5.443H775.1Z"/>
      <path id="路径_10078" data-name="路径 10078" class="cls-3" d="M804.172,272.249h29.069V301.3H804.172Z"/>
      <path id="路径_10079" data-name="路径 10079" class="cls-1" d="M819.965,266.806h29.068l-15.792,5.443H804.172Z"/>
      <path id="路径_10080" data-name="路径 10080" class="cls-1" d="M833.241,272.249h29.068V301.3H833.241Z"/>
      <path id="路径_10081" data-name="路径 10081" class="cls-4" d="M849.033,266.806h28.339l-15.063,5.443H833.241Z"/>
      <path id="路径_10082" data-name="路径 10082" class="cls-4" d="M862.309,271.757V301.3l15.051-6.894v-27.6Z"/>
    </g>
  </g>
</svg>
