<svg xmlns="http://www.w3.org/2000/svg" width="70.536" height="43.817" viewBox="0 0 70.536 43.817">
  <defs>
    <style>
      .cls-1, .cls-6 {
        fill: #fff;
      }

      .cls-1 {
        stroke-linecap: round;
        stroke-linejoin: round;
      }

      .cls-2 {
        fill: #56d1b8;
      }

      .cls-3 {
        fill: #85e6d2;
      }

      .cls-4 {
        fill: #b2ede1;
      }

      .cls-5, .cls-6 {
        stroke: none;
      }
    </style>
  </defs>
  <g id="组_4464" data-name="组 4464" transform="translate(-589.105 -560.356)">
    <g id="路径_10093" data-name="路径 10093" class="cls-1" transform="translate(8.568 -1999.742)">
      <path class="cls-5" d="M 631.7636108398438 2598.91552734375 L 630.6729736328125 2598.91552734375 L 610.6047973632813 2598.91552734375 L 590.5366821289063 2598.91552734375 L 585.5366821289063 2598.91552734375 L 585.5366821289063 2593.91552734375 L 585.5366821289063 2573.856201171875 L 585.5366821289063 2570.290771484375 L 588.9075317382813 2569.129150390625 L 599.810546875 2565.37158203125 L 600.602294921875 2565.0986328125 L 601.439697265625 2565.0986328125 L 621.5078125 2565.0986328125 L 641.072265625 2565.0986328125 L 641.988525390625 2570.101806640625 L 646.0639038085938 2570.101806640625 L 646.0639038085938 2589.156005859375 L 646.0639038085938 2592.365234375 L 643.1461181640625 2593.701904296875 L 632.7551879882813 2598.46142578125 L 631.7636108398438 2598.91552734375 Z"/>
      <path class="cls-6" d="M 601.439697265625 2570.0986328125 L 590.5366821289063 2573.856201171875 L 590.5366821289063 2593.91552734375 L 610.6047973632813 2593.91552734375 L 630.6729736328125 2593.91552734375 L 641.0639038085938 2589.156005859375 L 641.0639038085938 2570.101806640625 L 641.072265625 2570.0986328125 L 621.5078125 2570.0986328125 L 601.439697265625 2570.0986328125 M 601.439697265625 2560.0986328125 L 621.5078125 2560.0986328125 L 641.072265625 2560.0986328125 C 643.7251586914063 2560.0986328125 646.2694091796875 2561.15283203125 648.1448974609375 2563.029052734375 C 650.0203857421875 2564.905517578125 651.0734252929688 2567.4501953125 651.072265625 2570.10302734375 L 651.0639038085938 2589.160400390625 C 651.0621948242188 2593.06982421875 648.7825317382813 2596.61962890625 645.228271484375 2598.24755859375 L 634.8373413085938 2603.007080078125 C 633.5306396484375 2603.605712890625 632.1102905273438 2603.91552734375 630.6729736328125 2603.91552734375 L 610.6047973632813 2603.91552734375 L 590.5366821289063 2603.91552734375 C 585.0138549804688 2603.91552734375 580.5366821289063 2599.4384765625 580.5366821289063 2593.91552734375 L 580.5366821289063 2573.856201171875 C 580.5366821289063 2569.589111328125 583.2442016601563 2565.792236328125 587.2783813476563 2564.40185546875 L 598.181396484375 2560.644287109375 C 599.229736328125 2560.282958984375 600.3308715820313 2560.0986328125 601.439697265625 2560.0986328125 Z"/>
    </g>
    <g id="组_4460" data-name="组 4460" transform="translate(8.568 -1999.742)">
      <path id="路径_10476" data-name="路径 10476" class="cls-2" d="M590.537,2573.856H610.6v20.059H590.537Z"/>
      <path id="路径_10477" data-name="路径 10477" class="cls-3" d="M601.44,2570.1h20.068l-10.9,3.757H590.537Z"/>
      <path id="路径_10478" data-name="路径 10478" class="cls-3" d="M610.6,2573.856h20.068v20.059H610.6Z"/>
      <path id="路径_10479" data-name="路径 10479" class="cls-4" d="M621.508,2570.1h19.564l-10.4,3.757H610.6Z"/>
      <path id="路径_10480" data-name="路径 10480" class="cls-4" d="M630.673,2573.517v20.4l10.391-4.759V2570.1Z"/>
    </g>
  </g>
</svg>
