<svg xmlns="http://www.w3.org/2000/svg" width="70.536" height="63.906" viewBox="0 0 70.536 63.906">
  <defs>
    <style>
      .cls-1, .cls-6 {
        fill: #fff;
      }

      .cls-1 {
        stroke-linecap: round;
        stroke-linejoin: round;
      }

      .cls-2 {
        fill: #85e6d2;
      }

      .cls-3 {
        fill: #56d1b8;
      }

      .cls-4 {
        fill: #b2ede1;
      }

      .cls-5, .cls-6 {
        stroke: none;
      }
    </style>
  </defs>
  <g id="组_4462" data-name="组 4462" transform="translate(-294 -541.941)">
    <g id="路径_10095" data-name="路径 10095" class="cls-1" transform="translate(8.568 -1999.742)">
      <path class="cls-5" d="M 336.658935546875 2600.589599609375 L 335.5682983398438 2600.589599609375 L 315.5001831054688 2600.589599609375 L 295.4320678710938 2600.589599609375 L 290.4320678710938 2600.589599609375 L 290.4320678710938 2595.589599609375 L 290.4320678710938 2575.5302734375 L 290.4320678710938 2570.5302734375 L 290.4320678710938 2555.44091796875 L 290.4320678710938 2551.87548828125 L 293.8030090332031 2550.713623046875 L 304.7059631347656 2546.956298828125 L 305.4976501464844 2546.68359375 L 306.3350219726563 2546.68359375 L 326.4031982421875 2546.68359375 L 345.9676513671875 2546.68359375 L 346.8172607421875 2551.6865234375 L 350.9592895507813 2551.6865234375 L 350.9592895507813 2563.2109375 L 350.9592895507813 2570.77099609375 L 350.9592895507813 2590.830078125 L 350.9592895507813 2594.039306640625 L 348.0414733886719 2595.3759765625 L 337.6504821777344 2600.135498046875 L 336.658935546875 2600.589599609375 Z"/>
      <path class="cls-6" d="M 306.3350219726563 2551.68359375 L 295.4320678710938 2555.44091796875 L 295.4320678710938 2575.500244140625 L 315.5001831054688 2575.500244140625 L 335.5682983398438 2575.500244140625 L 335.5682983398438 2575.5302734375 L 315.5001831054688 2575.5302734375 L 295.4320678710938 2575.5302734375 L 295.4320678710938 2595.589599609375 L 315.5001831054688 2595.589599609375 L 335.5682983398438 2595.589599609375 L 345.9592895507813 2590.830078125 L 345.9592895507813 2570.77099609375 L 345.0339965820313 2571.16455078125 L 345.9592895507813 2570.74072265625 L 345.9592895507813 2551.6865234375 L 345.9676513671875 2551.68359375 L 326.4031982421875 2551.68359375 L 306.3350219726563 2551.68359375 M 306.3350219726563 2541.68359375 L 326.4031982421875 2541.68359375 L 345.9676513671875 2541.68359375 C 348.6205444335938 2541.68359375 351.1647644042969 2542.73779296875 353.0402526855469 2544.614013671875 C 354.9157409667969 2546.490478515625 355.9688110351563 2549.03515625 355.9676513671875 2551.68798828125 L 355.9592895507813 2570.7451171875 C 355.9592895507813 2570.7490234375 355.9592895507813 2570.752685546875 355.9592895507813 2570.756591796875 C 355.9592895507813 2570.761474609375 355.9592895507813 2570.76611328125 355.9592895507813 2570.77099609375 L 355.9592895507813 2590.830078125 C 355.9592895507813 2594.740966796875 353.6793518066406 2598.29296875 350.1236572265625 2599.921630859375 L 339.732666015625 2604.68115234375 C 338.4259338378906 2605.27978515625 337.0055541992188 2605.589599609375 335.5682983398438 2605.589599609375 L 315.5001831054688 2605.589599609375 L 295.4320678710938 2605.589599609375 C 289.9092102050781 2605.589599609375 285.4320678710938 2601.112548828125 285.4320678710938 2595.589599609375 L 285.4320678710938 2575.5302734375 C 285.4320678710938 2575.525146484375 285.4320678710938 2575.520263671875 285.4320678710938 2575.515380859375 C 285.4320678710938 2575.51025390625 285.4320678710938 2575.50537109375 285.4320678710938 2575.500244140625 L 285.4320678710938 2555.44091796875 C 285.4320678710938 2551.173828125 288.1396789550781 2547.376953125 292.1739501953125 2545.986572265625 L 303.076904296875 2542.229248046875 C 304.1251831054688 2541.867919921875 305.2262573242188 2541.68359375 306.3350219726563 2541.68359375 Z"/>
    </g>
    <g id="组_4461" data-name="组 4461" transform="translate(8.568 -1999.742)">
      <path id="路径_10481" data-name="路径 10481" class="cls-2" d="M295.432,2575.53H315.5v20.06H295.432Z"/>
      <path id="路径_10482" data-name="路径 10482" class="cls-3" d="M315.5,2575.53h20.068v20.06H315.5Z"/>
      <path id="路径_10483" data-name="路径 10483" class="cls-2" d="M335.568,2575.191v20.4l10.391-4.76v-20.059Z"/>
      <path id="路径_10484" data-name="路径 10484" class="cls-3" d="M295.432,2555.441H315.5V2575.5H295.432Z"/>
      <path id="路径_10485" data-name="路径 10485" class="cls-2" d="M306.335,2551.684H326.4l-10.9,3.757H295.432Z"/>
      <path id="路径_10486" data-name="路径 10486" class="cls-2" d="M315.5,2555.441h20.068V2575.5H315.5Z"/>
      <path id="路径_10487" data-name="路径 10487" class="cls-4" d="M326.4,2551.684h19.565l-10.4,3.757H315.5Z"/>
      <path id="路径_10488" data-name="路径 10488" class="cls-4" d="M335.568,2555.1v20.4l10.391-4.759v-19.057Z"/>
    </g>
  </g>
</svg>
