<svg xmlns="http://www.w3.org/2000/svg" width="160.64" height="150.719" viewBox="0 0 160.64 150.719">
  <defs>
    <style>
      .cls-1 {
        fill: #56d1b8;
      }

      .cls-2 {
        fill: #85e6d2;
      }

      .cls-3 {
        fill: #b2ede1;
      }
    </style>
  </defs>
  <g id="组_4373" data-name="组 4373" transform="translate(-982.358 -150.626)">
    <path id="路径_9610" data-name="路径 9610" class="cls-1" d="M982.358,272.29h29.068v29.055H982.358Z"/>
    <path id="路径_9613" data-name="路径 9613" class="cls-2" d="M1011.426,272.29h29.068v29.055h-29.068Z"/>
    <path id="路径_9616" data-name="路径 9616" class="cls-1" d="M1040.494,272.29h29.068v29.055h-29.068Z"/>
    <path id="路径_9619" data-name="路径 9619" class="cls-2" d="M1069.562,272.29h29.068v29.055h-29.068Z"/>
    <path id="路径_9622" data-name="路径 9622" class="cls-1" d="M1098.63,272.29H1127.7v29.055H1098.63Z"/>
    <path id="路径_9623" data-name="路径 9623" class="cls-2" d="M1127.7,271.8v29.547l15.3-7.395-.249-28.554Z"/>
    <path id="路径_9624" data-name="路径 9624" class="cls-2" d="M982.358,243.235h29.068V272.29H982.358Z"/>
    <path id="路径_9627" data-name="路径 9627" class="cls-1" d="M1011.426,243.235h29.068V272.29h-29.068Z"/>
    <path id="路径_9630" data-name="路径 9630" class="cls-2" d="M1040.494,243.235h29.068V272.29h-29.068Z"/>
    <path id="路径_9633" data-name="路径 9633" class="cls-1" d="M1069.562,243.235h29.068V272.29h-29.068Z"/>
    <path id="路径_9636" data-name="路径 9636" class="cls-2" d="M1098.63,243.235H1127.7V272.29H1098.63Z"/>
    <path id="路径_9637" data-name="路径 9637" class="cls-3" d="M1127.7,242.743V272.29l15.051-6.894V236.341Z"/>
    <path id="路径_9638" data-name="路径 9638" class="cls-1" d="M982.358,214.179h29.068v29.056H982.358Z"/>
    <path id="路径_9641" data-name="路径 9641" class="cls-2" d="M1011.426,214.179h29.068v29.056h-29.068Z"/>
    <path id="路径_9644" data-name="路径 9644" class="cls-1" d="M1040.494,214.179h29.068v29.056h-29.068Z"/>
    <path id="路径_9647" data-name="路径 9647" class="cls-2" d="M1069.562,214.179h29.068v29.056h-29.068Z"/>
    <path id="路径_9650" data-name="路径 9650" class="cls-1" d="M1098.63,214.179H1127.7v29.056H1098.63Z"/>
    <path id="路径_9651" data-name="路径 9651" class="cls-2" d="M1127.7,213.688v29.547l15.051-6.894V207.286Z"/>
    <path id="路径_9652" data-name="路径 9652" class="cls-2" d="M982.358,185.124h29.068v29.055H982.358Z"/>
    <path id="路径_9655" data-name="路径 9655" class="cls-1" d="M1011.426,185.124h29.068v29.055h-29.068Z"/>
    <path id="路径_9658" data-name="路径 9658" class="cls-2" d="M1040.494,185.124h29.068v29.055h-29.068Z"/>
    <path id="路径_9661" data-name="路径 9661" class="cls-1" d="M1069.562,185.124h29.068v29.055h-29.068Z"/>
    <path id="路径_9664" data-name="路径 9664" class="cls-2" d="M1098.63,185.124H1127.7v29.055H1098.63Z"/>
    <path id="路径_9665" data-name="路径 9665" class="cls-3" d="M1127.7,184.633v29.546l15.051-6.893V178.23Z"/>
    <path id="路径_9666" data-name="路径 9666" class="cls-1" d="M982.358,156.069h29.068v29.055H982.358Z"/>
    <path id="路径_9667" data-name="路径 9667" class="cls-2" d="M998.15,150.626h29.068l-15.792,5.443H982.358Z"/>
    <path id="路径_9668" data-name="路径 9668" class="cls-2" d="M1011.426,156.069h29.068v29.055h-29.068Z"/>
    <path id="路径_9669" data-name="路径 9669" class="cls-3" d="M1027.218,150.626h29.069l-15.793,5.443h-29.068Z"/>
    <path id="路径_9670" data-name="路径 9670" class="cls-1" d="M1040.494,156.069h29.068v29.055h-29.068Z"/>
    <path id="路径_9671" data-name="路径 9671" class="cls-2" d="M1056.287,150.626h29.068l-15.793,5.443h-29.068Z"/>
    <path id="路径_9672" data-name="路径 9672" class="cls-2" d="M1069.562,156.069h29.068v29.055h-29.068Z"/>
    <path id="路径_9673" data-name="路径 9673" class="cls-3" d="M1085.355,150.626h29.068l-15.793,5.443h-29.068Z"/>
    <path id="路径_9674" data-name="路径 9674" class="cls-1" d="M1098.63,156.069H1127.7v29.055H1098.63Z"/>
    <path id="路径_9675" data-name="路径 9675" class="cls-2" d="M1114.423,150.626h28.338l-15.063,5.443H1098.63Z"/>
    <path id="路径_9676" data-name="路径 9676" class="cls-2" d="M1127.7,155.578v29.546l15.051-6.894v-27.6Z"/>
  </g>
</svg>
