<svg xmlns="http://www.w3.org/2000/svg" width="70.604" height="63.936" viewBox="0 0 70.604 63.936">
  <defs>
    <style>
      .cls-1 {
        fill: #56d1b8;
      }

      .cls-2 {
        fill: #fff;
      }

      .cls-3 {
        fill: #85e6d2;
      }

      .cls-4 {
        fill: #b2ede1;
      }
    </style>
  </defs>
  <g id="组_4453" data-name="组 4453" transform="translate(-723.72 -2364.385)">
    <path id="路径_10280" data-name="路径 10280" class="cls-1" d="M723.72,2408.261h20.068v20.06H723.72Z"/>
    <path id="路径_10281" data-name="路径 10281" class="cls-2" d="M727.462,2403.5h19.727l-3.4,4.759H723.72Z"/>
    <path id="路径_10282" data-name="路径 10282" class="cls-2" d="M743.788,2407.922v20.4l3.4-5.1-.171-19.714Z"/>
    <path id="路径_10283" data-name="路径 10283" class="cls-3" d="M743.788,2408.261h20.068v20.06H743.788Z"/>
    <path id="路径_10284" data-name="路径 10284" class="cls-2" d="M747.53,2403.5h19.728l-3.4,4.759H743.788Z"/>
    <path id="路径_10285" data-name="路径 10285" class="cls-2" d="M763.856,2407.922v20.4l3.4-5.1-.172-19.714Z"/>
    <path id="路径_10286" data-name="路径 10286" class="cls-1" d="M763.856,2408.261h20.069v20.06H763.856Z"/>
    <path id="路径_10287" data-name="路径 10287" class="cls-3" d="M783.925,2407.922v20.4l10.391-4.76V2403.5Z"/>
    <path id="路径_10288" data-name="路径 10288" class="cls-3" d="M723.72,2388.2h20.068v20.059H723.72Z"/>
    <path id="路径_10289" data-name="路径 10289" class="cls-2" d="M727.462,2383.443h19.727l-3.4,4.759H723.72Z"/>
    <path id="路径_10290" data-name="路径 10290" class="cls-2" d="M743.788,2387.863v20.4l3.4-5.1-.171-19.713Z"/>
    <path id="路径_10291" data-name="路径 10291" class="cls-1" d="M743.788,2388.2h20.068v20.059H743.788Z"/>
    <path id="路径_10292" data-name="路径 10292" class="cls-2" d="M747.53,2383.443h19.728l-3.4,4.759H743.788Z"/>
    <path id="路径_10293" data-name="路径 10293" class="cls-2" d="M763.856,2387.863v20.4l3.4-5.1-.172-19.713Z"/>
    <path id="路径_10294" data-name="路径 10294" class="cls-3" d="M763.856,2388.2h20.069v20.059H763.856Z"/>
    <path id="路径_10295" data-name="路径 10295" class="cls-4" d="M783.925,2387.863v20.4l10.391-4.759v-20.059Z"/>
    <path id="路径_10296" data-name="路径 10296" class="cls-1" d="M723.72,2368.143h20.068V2388.2H723.72Z"/>
    <path id="路径_10297" data-name="路径 10297" class="cls-3" d="M734.623,2364.385h20.068l-10.9,3.758H723.72Z"/>
    <path id="路径_10298" data-name="路径 10298" class="cls-3" d="M743.788,2368.143h20.068V2388.2H743.788Z"/>
    <path id="路径_10299" data-name="路径 10299" class="cls-4" d="M754.691,2364.385H774.76l-10.9,3.758H743.788Z"/>
    <path id="路径_10300" data-name="路径 10300" class="cls-1" d="M763.856,2368.143h20.069V2388.2H763.856Z"/>
    <path id="路径_10301" data-name="路径 10301" class="cls-3" d="M774.76,2364.385h19.564l-10.4,3.758H763.856Z"/>
    <path id="路径_10302" data-name="路径 10302" class="cls-3" d="M783.925,2367.8v20.4l10.391-4.759v-19.058Z"/>
  </g>
</svg>
