<svg xmlns="http://www.w3.org/2000/svg" width="110.672" height="103.994" viewBox="0 0 110.672 103.994">
  <defs>
    <style>
      .cls-1, .cls-3, .cls-7 {
        fill: #fff;
      }

      .cls-1 {
        stroke-linecap: round;
        stroke-linejoin: round;
      }

      .cls-2 {
        fill: #85e6d2;
      }

      .cls-4 {
        fill: #56d1b8;
      }

      .cls-5 {
        fill: #b2ede1;
      }

      .cls-6, .cls-7 {
        stroke: none;
      }
    </style>
  </defs>
  <g id="组_4463" data-name="组 4463" transform="translate(-415.85 -505.194)">
    <g id="路径_10094" data-name="路径 10094" class="cls-1" transform="translate(8.568 -1999.742)">
      <path class="cls-6" d="M 498.645263671875 2603.93017578125 L 497.5546875 2603.93017578125 L 477.486572265625 2603.93017578125 L 457.4183959960938 2603.93017578125 L 437.3502197265625 2603.93017578125 L 417.2820434570313 2603.93017578125 L 412.2820434570313 2603.93017578125 L 412.2820434570313 2598.93017578125 L 412.2820434570313 2578.87109375 L 412.2820434570313 2558.811767578125 L 412.2820434570313 2538.75244140625 L 412.2820434570313 2518.693359375 L 412.2820434570313 2515.1279296875 L 415.6530151367188 2513.966064453125 L 426.5560913085938 2510.208740234375 L 427.3477478027344 2509.93603515625 L 428.1851196289063 2509.93603515625 L 448.2532348632813 2509.93603515625 L 468.3214111328125 2509.93603515625 L 488.3895874023438 2509.93603515625 L 507.9540405273438 2509.93603515625 L 508.8056335449219 2514.93896484375 L 512.9456787109375 2514.93896484375 L 512.9456787109375 2533.9931640625 L 512.9456787109375 2554.05224609375 L 512.9456787109375 2574.111572265625 L 512.9456787109375 2594.1708984375 L 512.9456787109375 2597.38037109375 L 510.0277709960938 2598.716796875 L 499.6367797851563 2603.47607421875 L 498.645263671875 2603.93017578125 Z"/>
      <path class="cls-7" d="M 428.1851196289063 2514.93603515625 L 417.2820434570313 2518.693359375 L 417.2820434570313 2538.75244140625 L 417.2820434570313 2558.811767578125 L 417.2820434570313 2578.87109375 L 417.2820434570313 2598.93017578125 L 437.3502197265625 2598.93017578125 L 457.4183959960938 2598.93017578125 L 477.486572265625 2598.93017578125 L 497.5546875 2598.93017578125 L 507.9456787109375 2594.1708984375 L 507.9456787109375 2574.111572265625 L 507.9456787109375 2554.05224609375 L 507.9456787109375 2533.9931640625 L 507.9456787109375 2514.93896484375 L 507.9540405273438 2514.93603515625 L 488.3895874023438 2514.93603515625 L 468.3214111328125 2514.93603515625 L 448.2532348632813 2514.93603515625 L 428.1851196289063 2514.93603515625 M 428.1851196289063 2504.93603515625 L 448.2532348632813 2504.93603515625 L 468.3214111328125 2504.93603515625 L 488.3895874023438 2504.93603515625 L 507.9540405273438 2504.93603515625 C 510.6069641113281 2504.93603515625 513.1511840820313 2505.990234375 515.0266723632813 2507.866455078125 C 516.9021606445313 2509.742919921875 517.9552001953125 2512.28759765625 517.9540405273438 2514.9404296875 L 517.9456787109375 2533.99755859375 L 517.9456787109375 2554.05224609375 L 517.9456787109375 2574.111572265625 L 517.9456787109375 2594.1708984375 C 517.9456787109375 2598.08203125 515.6656494140625 2601.634033203125 512.10986328125 2603.2626953125 L 501.7189025878906 2608.02197265625 C 500.4122009277344 2608.620361328125 498.9919128417969 2608.93017578125 497.5546875 2608.93017578125 L 477.486572265625 2608.93017578125 L 457.4183959960938 2608.93017578125 L 437.3502197265625 2608.93017578125 L 417.2820434570313 2608.93017578125 C 411.7592163085938 2608.93017578125 407.2820434570313 2604.453125 407.2820434570313 2598.93017578125 L 407.2820434570313 2578.87109375 L 407.2820434570313 2558.811767578125 L 407.2820434570313 2538.75244140625 L 407.2820434570313 2518.693359375 C 407.2820434570313 2514.42626953125 409.9896850585938 2510.629150390625 414.0239562988281 2509.239013671875 L 424.9270324707031 2505.481689453125 C 425.9753112792969 2505.120361328125 427.0763549804688 2504.93603515625 428.1851196289063 2504.93603515625 Z"/>
    </g>
    <g id="组_4459" data-name="组 4459" transform="translate(8.568 -1999.742)">
      <path id="路径_10434" data-name="路径 10434" class="cls-2" d="M417.282,2578.871H437.35v20.059H417.282Z"/>
      <path id="路径_10435" data-name="路径 10435" class="cls-3" d="M421.024,2574.112h19.727l-3.4,4.759H417.282Z"/>
      <path id="路径_10436" data-name="路径 10436" class="cls-3" d="M437.35,2578.532v20.4l3.4-5.1-.171-19.713Z"/>
      <path id="路径_10437" data-name="路径 10437" class="cls-4" d="M437.35,2578.871h20.068v20.059H437.35Z"/>
      <path id="路径_10438" data-name="路径 10438" class="cls-3" d="M441.092,2574.112H460.82l-3.4,4.759H437.35Z"/>
      <path id="路径_10439" data-name="路径 10439" class="cls-3" d="M457.418,2578.532v20.4l3.4-5.1-.172-19.713Z"/>
      <path id="路径_10440" data-name="路径 10440" class="cls-2" d="M457.418,2578.871h20.069v20.059H457.418Z"/>
      <path id="路径_10441" data-name="路径 10441" class="cls-3" d="M461.16,2574.112h19.728l-3.4,4.759H457.418Z"/>
      <path id="路径_10442" data-name="路径 10442" class="cls-3" d="M477.487,2578.532v20.4l3.4-5.1-.172-19.713Z"/>
      <path id="路径_10443" data-name="路径 10443" class="cls-4" d="M477.487,2578.871h20.068v20.059H477.487Z"/>
      <path id="路径_10444" data-name="路径 10444" class="cls-2" d="M497.555,2578.532v20.4l10.391-4.759v-20.059Z"/>
      <path id="路径_10445" data-name="路径 10445" class="cls-4" d="M417.282,2558.812H437.35v20.059H417.282Z"/>
      <path id="路径_10446" data-name="路径 10446" class="cls-3" d="M421.024,2554.052h19.727l-3.4,4.76H417.282Z"/>
      <path id="路径_10447" data-name="路径 10447" class="cls-3" d="M437.35,2558.473v20.4l3.4-5.1-.171-19.714Z"/>
      <path id="路径_10448" data-name="路径 10448" class="cls-2" d="M437.35,2558.812h20.068v20.059H437.35Z"/>
      <path id="路径_10449" data-name="路径 10449" class="cls-3" d="M441.092,2554.052H460.82l-3.4,4.76H437.35Z"/>
      <path id="路径_10450" data-name="路径 10450" class="cls-3" d="M457.418,2558.473v20.4l3.4-5.1-.172-19.714Z"/>
      <path id="路径_10451" data-name="路径 10451" class="cls-4" d="M457.418,2558.812h20.069v20.059H457.418Z"/>
      <path id="路径_10452" data-name="路径 10452" class="cls-3" d="M461.16,2554.052h19.728l-3.4,4.76H457.418Z"/>
      <path id="路径_10453" data-name="路径 10453" class="cls-3" d="M477.487,2558.473v20.4l3.4-5.1-.172-19.714Z"/>
      <path id="路径_10454" data-name="路径 10454" class="cls-2" d="M477.487,2558.812h20.068v20.059H477.487Z"/>
      <path id="路径_10455" data-name="路径 10455" class="cls-5" d="M497.555,2558.473v20.4l10.391-4.759v-20.06Z"/>
      <path id="路径_10456" data-name="路径 10456" class="cls-2" d="M417.282,2538.753H437.35v20.059H417.282Z"/>
      <path id="路径_10457" data-name="路径 10457" class="cls-3" d="M421.024,2533.993h19.727l-3.4,4.76H417.282Z"/>
      <path id="路径_10458" data-name="路径 10458" class="cls-3" d="M437.35,2538.413v20.4l3.4-5.1-.171-19.714Z"/>
      <path id="路径_10459" data-name="路径 10459" class="cls-4" d="M437.35,2538.753h20.068v20.059H437.35Z"/>
      <path id="路径_10460" data-name="路径 10460" class="cls-3" d="M441.092,2533.993H460.82l-3.4,4.76H437.35Z"/>
      <path id="路径_10461" data-name="路径 10461" class="cls-3" d="M457.418,2538.413v20.4l3.4-5.1-.172-19.714Z"/>
      <path id="路径_10462" data-name="路径 10462" class="cls-2" d="M457.418,2538.753h20.069v20.059H457.418Z"/>
      <path id="路径_10463" data-name="路径 10463" class="cls-3" d="M461.16,2533.993h19.728l-3.4,4.76H457.418Z"/>
      <path id="路径_10464" data-name="路径 10464" class="cls-3" d="M477.487,2538.413v20.4l3.4-5.1-.172-19.714Z"/>
      <path id="路径_10465" data-name="路径 10465" class="cls-4" d="M477.487,2538.753h20.068v20.059H477.487Z"/>
      <path id="路径_10466" data-name="路径 10466" class="cls-2" d="M497.555,2538.413v20.4l10.391-4.76v-20.059Z"/>
      <path id="路径_10467" data-name="路径 10467" class="cls-4" d="M417.282,2518.693H437.35v20.06H417.282Z"/>
      <path id="路径_10468" data-name="路径 10468" class="cls-2" d="M428.185,2514.936h20.068l-10.9,3.757H417.282Z"/>
      <path id="路径_10469" data-name="路径 10469" class="cls-2" d="M437.35,2518.693h20.068v20.06H437.35Z"/>
      <path id="路径_10470" data-name="路径 10470" class="cls-5" d="M448.253,2514.936h20.068l-10.9,3.757H437.35Z"/>
      <path id="路径_10471" data-name="路径 10471" class="cls-4" d="M457.418,2518.693h20.069v20.06H457.418Z"/>
      <path id="路径_10472" data-name="路径 10472" class="cls-2" d="M468.321,2514.936H488.39l-10.9,3.757H457.418Z"/>
      <path id="路径_10473" data-name="路径 10473" class="cls-2" d="M477.487,2518.693h20.068v20.06H477.487Z"/>
      <path id="路径_10474" data-name="路径 10474" class="cls-5" d="M488.39,2514.936h19.564l-10.4,3.757H477.487Z"/>
      <path id="路径_10475" data-name="路径 10475" class="cls-5" d="M497.555,2518.354v20.4l10.391-4.76v-19.057Z"/>
    </g>
  </g>
</svg>
