<svg xmlns="http://www.w3.org/2000/svg" width="68" height="68" viewBox="0 0 68 68">
  <defs>
    <style>
      .cls-1 {
        fill: #a6c6ff;
      }

      .cls-2 {
        fill: #fff;
      }

      .cls-3 {
        fill: #8ca6fd;
      }
    </style>
  </defs>
  <g id="组_4392" data-name="组 4392" transform="translate(-1021.079 -354)">
    <g id="组_4389" data-name="组 4389">
      <rect id="矩形_3670" data-name="矩形 3670" class="cls-1" width="68" height="68" transform="translate(1021.079 354)"/>
      <rect id="矩形_3671" data-name="矩形 3671" class="cls-2" width="56" height="56" transform="translate(1027.079 360)"/>
    </g>
    <g id="组_4391" data-name="组 4391">
      <g id="组_4390" data-name="组 4390">
        <path id="路径_9755" data-name="路径 9755" class="cls-3" d="M1052.875,402.148h-16.246V401.7q7.47-8.9,9.069-11.971a12.966,12.966,0,0,0,1.6-6.006,5,5,0,0,0-1.323-3.552,4.259,4.259,0,0,0-3.237-1.415,5.347,5.347,0,0,0-4.865,3.135l-.753-.265a11.266,11.266,0,0,1,3.338-5.781,7.822,7.822,0,0,1,5.171-1.873,7.656,7.656,0,0,1,3.828.977,7.075,7.075,0,0,1,2.707,2.677,6.452,6.452,0,0,1,.978,3.186,11.512,11.512,0,0,1-1.507,5.5q-2.057,3.767-8.978,10.505h5.965a13.607,13.607,0,0,0,2.86-.184,2.376,2.376,0,0,0,1.089-.62,8.051,8.051,0,0,0,1.12-1.843h.733Z"/>
      </g>
      <path id="路径_9756" data-name="路径 9756" class="cls-3" d="M1060.5,374.087h12.928l-2.056,5.253H1060.5l-1.038,2.748q7.023.266,10.81,3.5a8.388,8.388,0,0,1,3.115,6.637,9.962,9.962,0,0,1-5.517,8.724,12.7,12.7,0,0,1-5.762,1.313,9.028,9.028,0,0,1-5.191-1.262,2.517,2.517,0,0,1-1.262-2.036,2.142,2.142,0,0,1,.661-1.547,2.092,2.092,0,0,1,1.537-.672,4.335,4.335,0,0,1,1.609.325,17.267,17.267,0,0,1,2.789,1.711,10,10,0,0,0,2.137,1.181,3.943,3.943,0,0,0,1.425.244,3.787,3.787,0,0,0,2.841-1.222,4.087,4.087,0,0,0,1.171-2.931q0-3.584-3.584-5.823a16.778,16.778,0,0,0-9.039-2.239q-.551,0-1.649.02Z"/>
    </g>
  </g>
</svg>
