<svg xmlns="http://www.w3.org/2000/svg" width="68" height="68" viewBox="0 0 68 68">
  <defs>
    <style>
      .cls-1 {
        fill: #a6c6ff;
      }

      .cls-2 {
        fill: #fff;
      }

      .cls-3 {
        fill: #8ca6fd;
      }
    </style>
  </defs>
  <g id="组_4384" data-name="组 4384" transform="translate(-544.079 -354)">
    <g id="组_4382" data-name="组 4382">
      <rect id="矩形_3668" data-name="矩形 3668" class="cls-1" width="68" height="68" transform="translate(544.079 354)"/>
      <rect id="矩形_3669" data-name="矩形 3669" class="cls-2" width="56" height="56" transform="translate(550.079 360)"/>
    </g>
    <g id="组_4383" data-name="组 4383">
      <path id="路径_9753" data-name="路径 9753" class="cls-3" d="M568.522,403.832v-.623a19.69,19.69,0,0,0,6.265-2.493,12.851,12.851,0,0,0,4.074-4.074,16.3,16.3,0,0,0,2.1-5.586,13.373,13.373,0,0,1-2.349.99,7.314,7.314,0,0,1-2.036.279,7.447,7.447,0,0,1-5.709-2.471,9.589,9.589,0,0,1-2.282-6.766,12.088,12.088,0,0,1,1.236-5.465,9.146,9.146,0,0,1,13.3-3.706,10.558,10.558,0,0,1,3.761,4.385,14.724,14.724,0,0,1,1.4,6.544,19.448,19.448,0,0,1-2.281,9.126,17.324,17.324,0,0,1-6.8,7A22.482,22.482,0,0,1,568.522,403.832ZM581.3,389.186q.222-2.492.222-4.385a29.129,29.129,0,0,0-.934-7.545,5.69,5.69,0,0,0-1.581-2.849,2.112,2.112,0,0,0-1.447-.49,1.965,1.965,0,0,0-1.736.957q-.867,1.314-.868,5.008,0,6.167,1.469,8.5a2.929,2.929,0,0,0,2.582,1.514A5.53,5.53,0,0,0,581.3,389.186Z"/>
    </g>
  </g>
</svg>
