<svg xmlns="http://www.w3.org/2000/svg" width="68" height="68" viewBox="0 0 68 68">
  <defs>
    <style>
      .cls-1 {
        fill: #a6c6ff;
      }

      .cls-2 {
        fill: #fff;
      }

      .cls-3 {
        fill: #8ca6fd;
      }
    </style>
  </defs>
  <g id="组_4388" data-name="组 4388" transform="translate(-127.079 -354)">
    <g id="组_4386" data-name="组 4386">
      <rect id="矩形_3667" data-name="矩形 3667" class="cls-1" width="68" height="68" transform="translate(127.079 354)"/>
      <rect id="矩形_3666" data-name="矩形 3666" class="cls-2" width="56" height="56" transform="translate(133.079 360)"/>
    </g>
    <g id="组_4387" data-name="组 4387">
      <path id="路径_9754" data-name="路径 9754" class="cls-3" d="M164.464,372.715V397.4a15.258,15.258,0,0,0,.245,3.551,2.3,2.3,0,0,0,1.024,1.257,4.838,4.838,0,0,0,2.493.49h.69v.823H153.024V402.7h.8a6.185,6.185,0,0,0,2.76-.446,2.279,2.279,0,0,0,1.113-1.224,13.533,13.533,0,0,0,.289-3.628V381.752a9.907,9.907,0,0,0-.2-2.615,1.893,1.893,0,0,0-.746-.891,2.205,2.205,0,0,0-1.257-.367,7.152,7.152,0,0,0-2.76.712l-.4-.8,11.107-5.075Z"/>
    </g>
  </g>
</svg>
