<svg xmlns="http://www.w3.org/2000/svg" xmlns:xlink="http://www.w3.org/1999/xlink" width="307.732" height="216.829" viewBox="0 0 307.732 216.829">
  <defs>
    <style>
      .cls-1 {
        stroke: #fff;
        stroke-miterlimit: 10;
        stroke-width: 5px;
        stroke-dasharray: 12;
        fill: url(#linear-gradient);
      }

      .cls-2 {
        fill: #73a245;
      }

      .cls-3 {
        fill: #ff861c;
      }

      .cls-4 {
        fill: #de6f19;
      }

      .cls-5 {
        fill: #89cb57;
      }

      .cls-6 {
        stroke: none;
      }

      .cls-7 {
        fill: none;
      }
    </style>
    <linearGradient id="linear-gradient" y1="0.5" x2="1" y2="0.5" gradientUnits="objectBoundingBox">
      <stop offset="0" stop-color="#fff" stop-opacity="0.4"/>
      <stop offset="1" stop-color="#fff" stop-opacity="0.4"/>
    </linearGradient>
  </defs>
  <g id="组_3434" data-name="组 3434" transform="translate(-441 -84.508)">
    <g id="矩形_2373" data-name="矩形 2373" class="cls-1" transform="translate(441 84.508)">
      <rect class="cls-6" width="307.732" height="216.829" rx="16.77"/>
      <rect class="cls-7" x="2.5" y="2.5" width="302.732" height="211.829" rx="14.27"/>
    </g>
    <g id="组_3335" data-name="组 3335" transform="translate(487.901 103.689)">
      <path id="路径_8940" data-name="路径 8940" class="cls-2" d="M508.022,116.985s-5.371-5.944,0-11.745c5.371-4.87,13.233,2.435,9.31,12.175s-5.977,11.573-5.977,11.573l-1.122-1.573S511.236,119.983,508.022,116.985Z" transform="translate(-494.13 -103.689)"/>
      <path id="路径_8941" data-name="路径 8941" class="cls-3" d="M512.158,145.892c.017,7.161-5.713,22.779-17.166,30.941-7,1.927-7.759-8.2-6.707-17.46.067-.665.151-1.321.244-1.977.176-1.212.37-2.39.589-3.5.126-.665.252-1.313.4-1.927.3-1.388.631-2.634.942-3.652a17.7,17.7,0,0,1,.631-1.767.875.875,0,0,1,.034-.084c2.575-5.874,4.805-9.736,9.021-8.878C500.142,137.586,512.141,138.731,512.158,145.892Z" transform="translate(-487.901 -115.555)"/>
      <g id="组_3330" data-name="组 3330" transform="translate(2.556 30.994)">
        <g id="组_3329" data-name="组 3329">
          <path id="路径_8942" data-name="路径 8942" class="cls-4" d="M506.12,157.979a.933.933,0,0,1-.917.817c-.042,0-.084-.008-.118-.008-5.192-.657-11.983-4.771-13.245-5.554a17.7,17.7,0,0,1,.631-1.767.96.96,0,0,1,.16.084c.075.051,7.48,4.738,12.681,5.394A.933.933,0,0,1,506.12,157.979Z" transform="translate(-491.84 -151.466)"/>
        </g>
      </g>
      <g id="组_3332" data-name="组 3332" transform="translate(1.218 36.413)">
        <g id="组_3331" data-name="组 3331">
          <path id="路径_8943" data-name="路径 8943" class="cls-4" d="M503.443,166.114a.932.932,0,0,1-.917.816c-.042,0-.084-.008-.118-.008-4.62-.581-10.5-3.9-12.631-5.175.126-.665.252-1.313.4-1.927,1.279.791,7.767,4.67,12.462,5.259A.933.933,0,0,1,503.443,166.114Z" transform="translate(-489.778 -159.819)"/>
        </g>
      </g>
      <g id="组_3334" data-name="组 3334" transform="translate(0.385 41.841)">
        <g id="组_3333" data-name="组 3333">
          <path id="路径_8944" data-name="路径 8944" class="cls-4" d="M500.653,173.672a.932.932,0,0,1-.917.816c-.042,0-.084-.008-.117-.008-3.778-.479-8.406-2.785-11.124-4.317.068-.665.151-1.321.244-1.977,2.474,1.414,7.363,3.98,11.107,4.451A.933.933,0,0,1,500.653,173.672Z" transform="translate(-488.494 -168.186)"/>
        </g>
      </g>
      <path id="路径_8945" data-name="路径 8945" class="cls-5" d="M519.135,120.717s10.456-9.883,15.469-.573c4.01,8.308-5.157,10.1-10.313,9.167s-7.949,1.361-10.241,3.724c-1.361,1.218-3.51.788-.645-4.583A27.166,27.166,0,0,1,519.135,120.717Z" transform="translate(-496.363 -108.066)"/>
    </g>
    <g id="组_3342" data-name="组 3342" transform="translate(531.568 103.689)">
      <path id="路径_8946" data-name="路径 8946" class="cls-2" d="M575.334,116.985s-5.371-5.944,0-11.745c5.371-4.87,13.234,2.435,9.311,12.175s-5.977,11.573-5.977,11.573l-1.122-1.573S578.548,119.983,575.334,116.985Z" transform="translate(-561.443 -103.689)"/>
      <path id="路径_8947" data-name="路径 8947" class="cls-3" d="M579.471,145.892c.017,7.161-5.713,22.779-17.166,30.941-7,1.927-7.759-8.2-6.707-17.46.067-.665.151-1.321.244-1.977.176-1.212.37-2.39.589-3.5.126-.665.252-1.313.4-1.927.3-1.388.631-2.634.943-3.652a17.714,17.714,0,0,1,.631-1.767.874.874,0,0,1,.034-.084c2.575-5.874,4.805-9.736,9.021-8.878C567.455,137.586,579.454,138.731,579.471,145.892Z" transform="translate(-555.214 -115.555)"/>
      <g id="组_3337" data-name="组 3337" transform="translate(2.556 30.994)">
        <g id="组_3336" data-name="组 3336">
          <path id="路径_8948" data-name="路径 8948" class="cls-4" d="M573.433,157.979a.933.933,0,0,1-.917.817c-.042,0-.084-.008-.118-.008-5.192-.657-11.983-4.771-13.245-5.554a17.716,17.716,0,0,1,.631-1.767.958.958,0,0,1,.16.084c.075.051,7.48,4.738,12.681,5.394A.933.933,0,0,1,573.433,157.979Z" transform="translate(-559.153 -151.466)"/>
        </g>
      </g>
      <g id="组_3339" data-name="组 3339" transform="translate(1.218 36.413)">
        <g id="组_3338" data-name="组 3338">
          <path id="路径_8949" data-name="路径 8949" class="cls-4" d="M570.756,166.114a.932.932,0,0,1-.917.816c-.042,0-.084-.008-.117-.008-4.62-.581-10.5-3.9-12.631-5.175.126-.665.252-1.313.4-1.927,1.279.791,7.767,4.67,12.463,5.259A.933.933,0,0,1,570.756,166.114Z" transform="translate(-557.091 -159.819)"/>
        </g>
      </g>
      <g id="组_3341" data-name="组 3341" transform="translate(0.385 41.841)">
        <g id="组_3340" data-name="组 3340">
          <path id="路径_8950" data-name="路径 8950" class="cls-4" d="M567.966,173.672a.932.932,0,0,1-.917.816c-.042,0-.084-.008-.117-.008-3.778-.479-8.407-2.785-11.124-4.317.067-.665.151-1.321.244-1.977,2.474,1.414,7.363,3.98,11.108,4.451A.933.933,0,0,1,567.966,173.672Z" transform="translate(-555.807 -168.186)"/>
        </g>
      </g>
      <path id="路径_8951" data-name="路径 8951" class="cls-5" d="M586.447,120.717s10.456-9.883,15.469-.573c4.011,8.308-5.156,10.1-10.312,9.167s-7.95,1.361-10.241,3.724c-1.36,1.218-3.509.788-.644-4.583A27.174,27.174,0,0,1,586.447,120.717Z" transform="translate(-563.676 -108.066)"/>
    </g>
    <g id="组_3349" data-name="组 3349" transform="translate(575.236 103.689)">
      <path id="路径_8952" data-name="路径 8952" class="cls-2" d="M642.647,116.985s-5.371-5.944,0-11.745c5.371-4.87,13.233,2.435,9.31,12.175s-5.976,11.573-5.976,11.573l-1.122-1.573S645.861,119.983,642.647,116.985Z" transform="translate(-628.756 -103.689)"/>
      <path id="路径_8953" data-name="路径 8953" class="cls-3" d="M646.784,145.892c.017,7.161-5.713,22.779-17.167,30.941-7,1.927-7.758-8.2-6.707-17.46.068-.665.152-1.321.245-1.977.176-1.212.37-2.39.589-3.5.126-.665.252-1.313.4-1.927.3-1.388.631-2.634.943-3.652a17.514,17.514,0,0,1,.631-1.767.875.875,0,0,1,.034-.084c2.575-5.874,4.8-9.736,9.021-8.878C634.768,137.586,646.767,138.731,646.784,145.892Z" transform="translate(-622.526 -115.555)"/>
      <g id="组_3344" data-name="组 3344" transform="translate(2.556 30.994)">
        <g id="组_3343" data-name="组 3343">
          <path id="路径_8954" data-name="路径 8954" class="cls-4" d="M640.746,157.979a.932.932,0,0,1-.917.817c-.042,0-.084-.008-.117-.008-5.192-.657-11.983-4.771-13.245-5.554a17.531,17.531,0,0,1,.631-1.767.928.928,0,0,1,.16.084c.076.051,7.481,4.738,12.681,5.394A.933.933,0,0,1,640.746,157.979Z" transform="translate(-626.466 -151.466)"/>
        </g>
      </g>
      <g id="组_3346" data-name="组 3346" transform="translate(1.218 36.413)">
        <g id="组_3345" data-name="组 3345">
          <path id="路径_8955" data-name="路径 8955" class="cls-4" d="M638.069,166.114a.932.932,0,0,1-.917.816c-.042,0-.084-.008-.118-.008-4.62-.581-10.5-3.9-12.63-5.175.126-.665.252-1.313.4-1.927,1.279.791,7.767,4.67,12.463,5.259A.933.933,0,0,1,638.069,166.114Z" transform="translate(-624.404 -159.819)"/>
        </g>
      </g>
      <g id="组_3348" data-name="组 3348" transform="translate(0.385 41.841)">
        <g id="组_3347" data-name="组 3347">
          <path id="路径_8956" data-name="路径 8956" class="cls-4" d="M635.279,173.672a.932.932,0,0,1-.917.816c-.042,0-.084-.008-.118-.008-3.778-.479-8.406-2.785-11.124-4.317.068-.665.152-1.321.245-1.977,2.474,1.414,7.362,3.98,11.108,4.451A.933.933,0,0,1,635.279,173.672Z" transform="translate(-623.119 -168.186)"/>
        </g>
      </g>
      <path id="路径_8957" data-name="路径 8957" class="cls-5" d="M653.76,120.717s10.456-9.883,15.469-.573c4.01,8.308-5.156,10.1-10.312,9.167s-7.95,1.361-10.241,3.724c-1.36,1.218-3.509.788-.644-4.583A27.158,27.158,0,0,1,653.76,120.717Z" transform="translate(-630.988 -108.066)"/>
    </g>
    <g id="组_3356" data-name="组 3356" transform="translate(618.904 103.689)">
      <path id="路径_8958" data-name="路径 8958" class="cls-2" d="M709.96,116.985s-5.371-5.944,0-11.745c5.371-4.87,13.233,2.435,9.31,12.175s-5.977,11.573-5.977,11.573l-1.122-1.573S713.174,119.983,709.96,116.985Z" transform="translate(-696.068 -103.689)"/>
      <path id="路径_8959" data-name="路径 8959" class="cls-3" d="M714.1,145.892c.017,7.161-5.714,22.779-17.167,30.941-7,1.927-7.758-8.2-6.707-17.46.067-.665.152-1.321.244-1.977.177-1.212.37-2.39.589-3.5.126-.665.252-1.313.4-1.927.3-1.388.631-2.634.943-3.652a17.365,17.365,0,0,1,.631-1.767.875.875,0,0,1,.034-.084c2.575-5.874,4.8-9.736,9.021-8.878C702.081,137.586,714.08,138.731,714.1,145.892Z" transform="translate(-689.839 -115.555)"/>
      <g id="组_3351" data-name="组 3351" transform="translate(2.556 30.994)">
        <g id="组_3350" data-name="组 3350">
          <path id="路径_8960" data-name="路径 8960" class="cls-4" d="M708.059,157.979a.932.932,0,0,1-.917.817c-.042,0-.084-.008-.117-.008-5.192-.657-11.983-4.771-13.245-5.554a17.381,17.381,0,0,1,.631-1.767.983.983,0,0,1,.16.084c.076.051,7.481,4.738,12.681,5.394A.933.933,0,0,1,708.059,157.979Z" transform="translate(-693.779 -151.466)"/>
        </g>
      </g>
      <g id="组_3353" data-name="组 3353" transform="translate(1.218 36.413)">
        <g id="组_3352" data-name="组 3352">
          <path id="路径_8961" data-name="路径 8961" class="cls-4" d="M705.382,166.114a.933.933,0,0,1-.917.816c-.042,0-.084-.008-.118-.008-4.62-.581-10.5-3.9-12.631-5.175.127-.665.252-1.313.4-1.927,1.279.791,7.767,4.67,12.463,5.259A.933.933,0,0,1,705.382,166.114Z" transform="translate(-691.716 -159.819)"/>
        </g>
      </g>
      <g id="组_3355" data-name="组 3355" transform="translate(0.385 41.841)">
        <g id="组_3354" data-name="组 3354">
          <path id="路径_8962" data-name="路径 8962" class="cls-4" d="M702.592,173.672a.933.933,0,0,1-.917.816c-.042,0-.084-.008-.118-.008-3.778-.479-8.406-2.785-11.124-4.317.067-.665.152-1.321.244-1.977,2.474,1.414,7.363,3.98,11.108,4.451A.933.933,0,0,1,702.592,173.672Z" transform="translate(-690.432 -168.186)"/>
        </g>
      </g>
      <path id="路径_8963" data-name="路径 8963" class="cls-5" d="M721.073,120.717s10.456-9.883,15.469-.573c4.01,8.308-5.156,10.1-10.313,9.167s-7.949,1.361-10.241,3.724c-1.361,1.218-3.509.788-.645-4.583A27.165,27.165,0,0,1,721.073,120.717Z" transform="translate(-698.301 -108.066)"/>
    </g>
    <g id="组_3363" data-name="组 3363" transform="translate(662.571 103.689)">
      <path id="路径_8964" data-name="路径 8964" class="cls-2" d="M777.273,116.985s-5.371-5.944,0-11.745c5.371-4.87,13.233,2.435,9.31,12.175s-5.977,11.573-5.977,11.573l-1.122-1.573S780.487,119.983,777.273,116.985Z" transform="translate(-763.381 -103.689)"/>
      <path id="路径_8965" data-name="路径 8965" class="cls-3" d="M781.41,145.892c.017,7.161-5.714,22.779-17.167,30.941-7,1.927-7.758-8.2-6.707-17.46.067-.665.151-1.321.244-1.977.177-1.212.37-2.39.589-3.5.127-.665.252-1.313.4-1.927.3-1.388.631-2.634.943-3.652a17.545,17.545,0,0,1,.631-1.767.875.875,0,0,1,.034-.084c2.575-5.874,4.805-9.736,9.021-8.878C769.393,137.586,781.393,138.731,781.41,145.892Z" transform="translate(-757.152 -115.555)"/>
      <g id="组_3358" data-name="组 3358" transform="translate(2.556 30.994)">
        <g id="组_3357" data-name="组 3357">
          <path id="路径_8966" data-name="路径 8966" class="cls-4" d="M775.372,157.979a.933.933,0,0,1-.917.817c-.042,0-.084-.008-.118-.008-5.192-.657-11.983-4.771-13.244-5.554a17.561,17.561,0,0,1,.631-1.767.963.963,0,0,1,.16.084c.076.051,7.48,4.738,12.681,5.394A.933.933,0,0,1,775.372,157.979Z" transform="translate(-761.092 -151.466)"/>
        </g>
      </g>
      <g id="组_3360" data-name="组 3360" transform="translate(1.218 36.413)">
        <g id="组_3359" data-name="组 3359">
          <path id="路径_8967" data-name="路径 8967" class="cls-4" d="M772.7,166.114a.933.933,0,0,1-.917.816c-.042,0-.084-.008-.118-.008-4.62-.581-10.5-3.9-12.631-5.175.127-.665.252-1.313.4-1.927,1.279.791,7.767,4.67,12.462,5.259A.933.933,0,0,1,772.7,166.114Z" transform="translate(-759.029 -159.819)"/>
        </g>
      </g>
      <g id="组_3362" data-name="组 3362" transform="translate(0.385 41.841)">
        <g id="组_3361" data-name="组 3361">
          <path id="路径_8968" data-name="路径 8968" class="cls-4" d="M769.9,173.672a.933.933,0,0,1-.917.816c-.042,0-.084-.008-.118-.008-3.778-.479-8.406-2.785-11.124-4.317.068-.665.151-1.321.244-1.977,2.474,1.414,7.363,3.98,11.108,4.451A.934.934,0,0,1,769.9,173.672Z" transform="translate(-757.745 -168.186)"/>
        </g>
      </g>
      <path id="路径_8969" data-name="路径 8969" class="cls-5" d="M788.386,120.717s10.456-9.883,15.469-.573c4.01,8.308-5.157,10.1-10.313,9.167s-7.95,1.361-10.241,3.724c-1.361,1.218-3.51.788-.645-4.583A27.166,27.166,0,0,1,788.386,120.717Z" transform="translate(-765.614 -108.066)"/>
    </g>
    <g id="组_3370" data-name="组 3370" transform="translate(487.901 158.105)">
      <path id="路径_8970" data-name="路径 8970" class="cls-2" d="M508.022,200.865s-5.371-5.944,0-11.745c5.371-4.87,13.233,2.435,9.31,12.175s-5.977,11.573-5.977,11.573l-1.122-1.574S511.236,203.864,508.022,200.865Z" transform="translate(-494.13 -187.57)"/>
      <path id="路径_8971" data-name="路径 8971" class="cls-3" d="M512.158,229.772c.017,7.161-5.713,22.779-17.166,30.942-7,1.927-7.759-8.2-6.707-17.461.067-.664.151-1.321.244-1.977.176-1.212.37-2.39.589-3.5.126-.665.252-1.312.4-1.927.3-1.389.631-2.634.942-3.652a17.758,17.758,0,0,1,.631-1.767.876.876,0,0,1,.034-.084c2.575-5.874,4.805-9.735,9.021-8.877C500.142,221.467,512.141,222.612,512.158,229.772Z" transform="translate(-487.901 -199.436)"/>
      <g id="组_3365" data-name="组 3365" transform="translate(2.556 30.993)">
        <g id="组_3364" data-name="组 3364">
          <path id="路径_8972" data-name="路径 8972" class="cls-4" d="M506.12,241.859a.933.933,0,0,1-.917.816c-.042,0-.084-.008-.118-.008-5.192-.656-11.983-4.771-13.245-5.554a17.757,17.757,0,0,1,.631-1.767.962.962,0,0,1,.16.084c.075.051,7.48,4.738,12.681,5.394A.933.933,0,0,1,506.12,241.859Z" transform="translate(-491.84 -235.346)"/>
        </g>
      </g>
      <g id="组_3367" data-name="组 3367" transform="translate(1.218 36.413)">
        <g id="组_3366" data-name="组 3366">
          <path id="路径_8973" data-name="路径 8973" class="cls-4" d="M503.443,249.994a.931.931,0,0,1-.917.816c-.042,0-.084-.008-.118-.008-4.62-.581-10.5-3.9-12.631-5.175.126-.665.252-1.312.4-1.927,1.279.791,7.767,4.67,12.462,5.259A.932.932,0,0,1,503.443,249.994Z" transform="translate(-489.778 -243.7)"/>
        </g>
      </g>
      <g id="组_3369" data-name="组 3369" transform="translate(0.385 41.84)">
        <g id="组_3368" data-name="组 3368">
          <path id="路径_8974" data-name="路径 8974" class="cls-4" d="M500.653,257.552a.932.932,0,0,1-.917.817c-.042,0-.084-.008-.117-.008-3.778-.48-8.406-2.786-11.124-4.317.068-.664.151-1.321.244-1.977,2.474,1.414,7.363,3.981,11.107,4.452A.933.933,0,0,1,500.653,257.552Z" transform="translate(-488.494 -252.066)"/>
        </g>
      </g>
      <path id="路径_8975" data-name="路径 8975" class="cls-5" d="M519.135,204.6s10.456-9.883,15.469-.573c4.01,8.308-5.157,10.1-10.313,9.167s-7.949,1.36-10.241,3.724c-1.361,1.218-3.51.788-.645-4.583A27.168,27.168,0,0,1,519.135,204.6Z" transform="translate(-496.363 -191.947)"/>
    </g>
    <g id="组_3377" data-name="组 3377" transform="translate(531.568 158.105)">
      <path id="路径_8976" data-name="路径 8976" class="cls-2" d="M575.334,200.865s-5.371-5.944,0-11.745c5.371-4.87,13.234,2.435,9.311,12.175s-5.977,11.573-5.977,11.573l-1.122-1.574S578.548,203.864,575.334,200.865Z" transform="translate(-561.443 -187.57)"/>
      <path id="路径_8977" data-name="路径 8977" class="cls-3" d="M579.471,229.772c.017,7.161-5.713,22.779-17.166,30.942-7,1.927-7.759-8.2-6.707-17.461.067-.664.151-1.321.244-1.977.176-1.212.37-2.39.589-3.5.126-.665.252-1.312.4-1.927.3-1.389.631-2.634.943-3.652a17.775,17.775,0,0,1,.631-1.767.876.876,0,0,1,.034-.084c2.575-5.874,4.805-9.735,9.021-8.877C567.455,221.467,579.454,222.612,579.471,229.772Z" transform="translate(-555.214 -199.436)"/>
      <g id="组_3372" data-name="组 3372" transform="translate(2.556 30.993)">
        <g id="组_3371" data-name="组 3371">
          <path id="路径_8978" data-name="路径 8978" class="cls-4" d="M573.433,241.859a.933.933,0,0,1-.917.816c-.042,0-.084-.008-.118-.008-5.192-.656-11.983-4.771-13.245-5.554a17.774,17.774,0,0,1,.631-1.767.961.961,0,0,1,.16.084c.075.051,7.48,4.738,12.681,5.394A.934.934,0,0,1,573.433,241.859Z" transform="translate(-559.153 -235.346)"/>
        </g>
      </g>
      <g id="组_3374" data-name="组 3374" transform="translate(1.218 36.413)">
        <g id="组_3373" data-name="组 3373">
          <path id="路径_8979" data-name="路径 8979" class="cls-4" d="M570.756,249.994a.932.932,0,0,1-.917.816c-.042,0-.084-.008-.117-.008-4.62-.581-10.5-3.9-12.631-5.175.126-.665.252-1.312.4-1.927,1.279.791,7.767,4.67,12.463,5.259A.932.932,0,0,1,570.756,249.994Z" transform="translate(-557.091 -243.7)"/>
        </g>
      </g>
      <g id="组_3376" data-name="组 3376" transform="translate(0.385 41.84)">
        <g id="组_3375" data-name="组 3375">
          <path id="路径_8980" data-name="路径 8980" class="cls-4" d="M567.966,257.552a.932.932,0,0,1-.917.817c-.042,0-.084-.008-.117-.008-3.778-.48-8.407-2.786-11.124-4.317.067-.664.151-1.321.244-1.977,2.474,1.414,7.363,3.981,11.108,4.452A.932.932,0,0,1,567.966,257.552Z" transform="translate(-555.807 -252.066)"/>
        </g>
      </g>
      <path id="路径_8981" data-name="路径 8981" class="cls-5" d="M586.447,204.6s10.456-9.883,15.469-.573c4.011,8.308-5.156,10.1-10.312,9.167s-7.95,1.36-10.241,3.724c-1.36,1.218-3.509.788-.644-4.583A27.176,27.176,0,0,1,586.447,204.6Z" transform="translate(-563.676 -191.947)"/>
    </g>
    <g id="组_3384" data-name="组 3384" transform="translate(575.236 158.105)">
      <path id="路径_8982" data-name="路径 8982" class="cls-2" d="M642.647,200.865s-5.371-5.944,0-11.745c5.371-4.87,13.233,2.435,9.31,12.175s-5.976,11.573-5.976,11.573l-1.122-1.574S645.861,203.864,642.647,200.865Z" transform="translate(-628.756 -187.57)"/>
      <path id="路径_8983" data-name="路径 8983" class="cls-3" d="M646.784,229.772c.017,7.161-5.713,22.779-17.167,30.942-7,1.927-7.758-8.2-6.707-17.461.068-.664.152-1.321.245-1.977.176-1.212.37-2.39.589-3.5.126-.665.252-1.312.4-1.927.3-1.389.631-2.634.943-3.652a17.573,17.573,0,0,1,.631-1.767.877.877,0,0,1,.034-.084c2.575-5.874,4.8-9.735,9.021-8.877C634.768,221.467,646.767,222.612,646.784,229.772Z" transform="translate(-622.526 -199.436)"/>
      <g id="组_3379" data-name="组 3379" transform="translate(2.556 30.993)">
        <g id="组_3378" data-name="组 3378">
          <path id="路径_8984" data-name="路径 8984" class="cls-4" d="M640.746,241.859a.932.932,0,0,1-.917.816c-.042,0-.084-.008-.117-.008-5.192-.656-11.983-4.771-13.245-5.554a17.588,17.588,0,0,1,.631-1.767.93.93,0,0,1,.16.084c.076.051,7.481,4.738,12.681,5.394A.933.933,0,0,1,640.746,241.859Z" transform="translate(-626.466 -235.346)"/>
        </g>
      </g>
      <g id="组_3381" data-name="组 3381" transform="translate(1.218 36.413)">
        <g id="组_3380" data-name="组 3380">
          <path id="路径_8985" data-name="路径 8985" class="cls-4" d="M638.069,249.994a.932.932,0,0,1-.917.816c-.042,0-.084-.008-.118-.008-4.62-.581-10.5-3.9-12.63-5.175.126-.665.252-1.312.4-1.927,1.279.791,7.767,4.67,12.463,5.259A.932.932,0,0,1,638.069,249.994Z" transform="translate(-624.404 -243.7)"/>
        </g>
      </g>
      <g id="组_3383" data-name="组 3383" transform="translate(0.385 41.84)">
        <g id="组_3382" data-name="组 3382">
          <path id="路径_8986" data-name="路径 8986" class="cls-4" d="M635.279,257.552a.932.932,0,0,1-.917.817c-.042,0-.084-.008-.118-.008-3.778-.48-8.406-2.786-11.124-4.317.068-.664.152-1.321.245-1.977,2.474,1.414,7.362,3.981,11.108,4.452A.932.932,0,0,1,635.279,257.552Z" transform="translate(-623.119 -252.066)"/>
        </g>
      </g>
      <path id="路径_8987" data-name="路径 8987" class="cls-5" d="M653.76,204.6s10.456-9.883,15.469-.573c4.01,8.308-5.156,10.1-10.312,9.167s-7.95,1.36-10.241,3.724c-1.36,1.218-3.509.788-.644-4.583A27.16,27.16,0,0,1,653.76,204.6Z" transform="translate(-630.988 -191.947)"/>
    </g>
    <g id="组_3391" data-name="组 3391" transform="translate(618.904 158.105)">
      <path id="路径_8988" data-name="路径 8988" class="cls-2" d="M709.96,200.865s-5.371-5.944,0-11.745c5.371-4.87,13.233,2.435,9.31,12.175s-5.977,11.573-5.977,11.573l-1.122-1.574S713.174,203.864,709.96,200.865Z" transform="translate(-696.068 -187.57)"/>
      <path id="路径_8989" data-name="路径 8989" class="cls-3" d="M714.1,229.772c.017,7.161-5.714,22.779-17.167,30.942-7,1.927-7.758-8.2-6.707-17.461.067-.664.152-1.321.244-1.977.177-1.212.37-2.39.589-3.5.126-.665.252-1.312.4-1.927.3-1.389.631-2.634.943-3.652a17.423,17.423,0,0,1,.631-1.767.877.877,0,0,1,.034-.084c2.575-5.874,4.8-9.735,9.021-8.877C702.081,221.467,714.08,222.612,714.1,229.772Z" transform="translate(-689.839 -199.436)"/>
      <g id="组_3386" data-name="组 3386" transform="translate(2.556 30.993)">
        <g id="组_3385" data-name="组 3385">
          <path id="路径_8990" data-name="路径 8990" class="cls-4" d="M708.059,241.859a.932.932,0,0,1-.917.816c-.042,0-.084-.008-.117-.008-5.192-.656-11.983-4.771-13.245-5.554a17.437,17.437,0,0,1,.631-1.767.986.986,0,0,1,.16.084c.076.051,7.481,4.738,12.681,5.394A.933.933,0,0,1,708.059,241.859Z" transform="translate(-693.779 -235.346)"/>
        </g>
      </g>
      <g id="组_3388" data-name="组 3388" transform="translate(1.218 36.413)">
        <g id="组_3387" data-name="组 3387">
          <path id="路径_8991" data-name="路径 8991" class="cls-4" d="M705.382,249.994a.932.932,0,0,1-.917.816c-.042,0-.084-.008-.118-.008-4.62-.581-10.5-3.9-12.631-5.175.127-.665.252-1.312.4-1.927,1.279.791,7.767,4.67,12.463,5.259A.932.932,0,0,1,705.382,249.994Z" transform="translate(-691.716 -243.7)"/>
        </g>
      </g>
      <g id="组_3390" data-name="组 3390" transform="translate(0.385 41.84)">
        <g id="组_3389" data-name="组 3389">
          <path id="路径_8992" data-name="路径 8992" class="cls-4" d="M702.592,257.552a.933.933,0,0,1-.917.817c-.042,0-.084-.008-.118-.008-3.778-.48-8.406-2.786-11.124-4.317.067-.664.152-1.321.244-1.977,2.474,1.414,7.363,3.981,11.108,4.452A.933.933,0,0,1,702.592,257.552Z" transform="translate(-690.432 -252.066)"/>
        </g>
      </g>
      <path id="路径_8993" data-name="路径 8993" class="cls-5" d="M721.073,204.6s10.456-9.883,15.469-.573c4.01,8.308-5.156,10.1-10.313,9.167s-7.949,1.36-10.241,3.724c-1.361,1.218-3.509.788-.645-4.583A27.167,27.167,0,0,1,721.073,204.6Z" transform="translate(-698.301 -191.947)"/>
    </g>
    <g id="组_3398" data-name="组 3398" transform="translate(662.571 158.105)">
      <path id="路径_8994" data-name="路径 8994" class="cls-2" d="M777.273,200.865s-5.371-5.944,0-11.745c5.371-4.87,13.233,2.435,9.31,12.175s-5.977,11.573-5.977,11.573l-1.122-1.574S780.487,203.864,777.273,200.865Z" transform="translate(-763.381 -187.57)"/>
      <path id="路径_8995" data-name="路径 8995" class="cls-3" d="M781.41,229.772c.017,7.161-5.714,22.779-17.167,30.942-7,1.927-7.758-8.2-6.707-17.461.067-.664.151-1.321.244-1.977.177-1.212.37-2.39.589-3.5.127-.665.252-1.312.4-1.927.3-1.389.631-2.634.943-3.652a17.6,17.6,0,0,1,.631-1.767.877.877,0,0,1,.034-.084c2.575-5.874,4.805-9.735,9.021-8.877C769.393,221.467,781.393,222.612,781.41,229.772Z" transform="translate(-757.152 -199.436)"/>
      <g id="组_3393" data-name="组 3393" transform="translate(2.556 30.993)">
        <g id="组_3392" data-name="组 3392">
          <path id="路径_8996" data-name="路径 8996" class="cls-4" d="M775.372,241.859a.933.933,0,0,1-.917.816c-.042,0-.084-.008-.118-.008-5.192-.656-11.983-4.771-13.244-5.554a17.619,17.619,0,0,1,.631-1.767.965.965,0,0,1,.16.084c.076.051,7.48,4.738,12.681,5.394A.933.933,0,0,1,775.372,241.859Z" transform="translate(-761.092 -235.346)"/>
        </g>
      </g>
      <g id="组_3395" data-name="组 3395" transform="translate(1.218 36.413)">
        <g id="组_3394" data-name="组 3394">
          <path id="路径_8997" data-name="路径 8997" class="cls-4" d="M772.7,249.994a.932.932,0,0,1-.917.816c-.042,0-.084-.008-.118-.008-4.62-.581-10.5-3.9-12.631-5.175.127-.665.252-1.312.4-1.927,1.279.791,7.767,4.67,12.462,5.259A.933.933,0,0,1,772.7,249.994Z" transform="translate(-759.029 -243.7)"/>
        </g>
      </g>
      <g id="组_3397" data-name="组 3397" transform="translate(0.385 41.84)">
        <g id="组_3396" data-name="组 3396">
          <path id="路径_8998" data-name="路径 8998" class="cls-4" d="M769.9,257.552a.933.933,0,0,1-.917.817c-.042,0-.084-.008-.118-.008-3.778-.48-8.406-2.786-11.124-4.317.068-.664.151-1.321.244-1.977,2.474,1.414,7.363,3.981,11.108,4.452A.934.934,0,0,1,769.9,257.552Z" transform="translate(-757.745 -252.066)"/>
        </g>
      </g>
      <path id="路径_8999" data-name="路径 8999" class="cls-5" d="M788.386,204.6s10.456-9.883,15.469-.573c4.01,8.308-5.157,10.1-10.313,9.167s-7.95,1.36-10.241,3.724c-1.361,1.218-3.51.788-.645-4.583A27.168,27.168,0,0,1,788.386,204.6Z" transform="translate(-765.614 -191.947)"/>
    </g>
    <g id="组_3405" data-name="组 3405" transform="translate(487.901 213.953)">
      <path id="路径_9000" data-name="路径 9000" class="cls-2" d="M508.022,286.953s-5.371-5.944,0-11.745c5.371-4.869,13.233,2.435,9.31,12.175s-5.977,11.573-5.977,11.573l-1.122-1.573S511.236,289.952,508.022,286.953Z" transform="translate(-494.13 -273.658)"/>
      <path id="路径_9001" data-name="路径 9001" class="cls-3" d="M512.158,315.86c.017,7.161-5.713,22.779-17.166,30.942-7,1.927-7.759-8.2-6.707-17.461.067-.664.151-1.321.244-1.977.176-1.212.37-2.39.589-3.5.126-.665.252-1.313.4-1.927.3-1.388.631-2.634.942-3.652a17.7,17.7,0,0,1,.631-1.767.873.873,0,0,1,.034-.084c2.575-5.874,4.805-9.736,9.021-8.877C500.142,307.555,512.141,308.7,512.158,315.86Z" transform="translate(-487.901 -285.523)"/>
      <g id="组_3400" data-name="组 3400" transform="translate(2.556 30.994)">
        <g id="组_3399" data-name="组 3399">
          <path id="路径_9002" data-name="路径 9002" class="cls-4" d="M506.12,327.947a.933.933,0,0,1-.917.816c-.042,0-.084-.008-.118-.008-5.192-.656-11.983-4.771-13.245-5.554a17.7,17.7,0,0,1,.631-1.767.965.965,0,0,1,.16.084c.075.051,7.48,4.737,12.681,5.394A.933.933,0,0,1,506.12,327.947Z" transform="translate(-491.84 -321.434)"/>
        </g>
      </g>
      <g id="组_3402" data-name="组 3402" transform="translate(1.218 36.412)">
        <g id="组_3401" data-name="组 3401">
          <path id="路径_9003" data-name="路径 9003" class="cls-4" d="M503.443,336.082a.932.932,0,0,1-.917.816c-.042,0-.084-.008-.118-.008-4.62-.581-10.5-3.9-12.631-5.175.126-.665.252-1.313.4-1.927,1.279.791,7.767,4.671,12.462,5.26A.932.932,0,0,1,503.443,336.082Z" transform="translate(-489.778 -329.787)"/>
        </g>
      </g>
      <g id="组_3404" data-name="组 3404" transform="translate(0.385 41.84)">
        <g id="组_3403" data-name="组 3403">
          <path id="路径_9004" data-name="路径 9004" class="cls-4" d="M500.653,343.64a.931.931,0,0,1-.917.816c-.042,0-.084-.008-.117-.008-3.778-.479-8.406-2.785-11.124-4.317.068-.664.151-1.321.244-1.977,2.474,1.414,7.363,3.98,11.107,4.452A.933.933,0,0,1,500.653,343.64Z" transform="translate(-488.494 -338.154)"/>
        </g>
      </g>
      <path id="路径_9005" data-name="路径 9005" class="cls-5" d="M519.135,290.685s10.456-9.883,15.469-.573c4.01,8.308-5.157,10.1-10.313,9.167s-7.949,1.36-10.241,3.724c-1.361,1.218-3.51.788-.645-4.583A27.167,27.167,0,0,1,519.135,290.685Z" transform="translate(-496.363 -278.035)"/>
    </g>
    <g id="组_3412" data-name="组 3412" transform="translate(531.568 213.953)">
      <path id="路径_9006" data-name="路径 9006" class="cls-2" d="M575.334,286.953s-5.371-5.944,0-11.745c5.371-4.869,13.234,2.435,9.311,12.175s-5.977,11.573-5.977,11.573l-1.122-1.573S578.548,289.952,575.334,286.953Z" transform="translate(-561.443 -273.658)"/>
      <path id="路径_9007" data-name="路径 9007" class="cls-3" d="M579.471,315.86c.017,7.161-5.713,22.779-17.166,30.942-7,1.927-7.759-8.2-6.707-17.461.067-.664.151-1.321.244-1.977.176-1.212.37-2.39.589-3.5.126-.665.252-1.313.4-1.927.3-1.388.631-2.634.943-3.652a17.713,17.713,0,0,1,.631-1.767.873.873,0,0,1,.034-.084c2.575-5.874,4.805-9.736,9.021-8.877C567.455,307.555,579.454,308.7,579.471,315.86Z" transform="translate(-555.214 -285.523)"/>
      <g id="组_3407" data-name="组 3407" transform="translate(2.556 30.994)">
        <g id="组_3406" data-name="组 3406">
          <path id="路径_9008" data-name="路径 9008" class="cls-4" d="M573.433,327.947a.933.933,0,0,1-.917.816c-.042,0-.084-.008-.118-.008-5.192-.656-11.983-4.771-13.245-5.554a17.718,17.718,0,0,1,.631-1.767.963.963,0,0,1,.16.084c.075.051,7.48,4.737,12.681,5.394A.933.933,0,0,1,573.433,327.947Z" transform="translate(-559.153 -321.434)"/>
        </g>
      </g>
      <g id="组_3409" data-name="组 3409" transform="translate(1.218 36.412)">
        <g id="组_3408" data-name="组 3408">
          <path id="路径_9009" data-name="路径 9009" class="cls-4" d="M570.756,336.082a.932.932,0,0,1-.917.816c-.042,0-.084-.008-.117-.008-4.62-.581-10.5-3.9-12.631-5.175.126-.665.252-1.313.4-1.927,1.279.791,7.767,4.671,12.463,5.26A.932.932,0,0,1,570.756,336.082Z" transform="translate(-557.091 -329.787)"/>
        </g>
      </g>
      <g id="组_3411" data-name="组 3411" transform="translate(0.385 41.84)">
        <g id="组_3410" data-name="组 3410">
          <path id="路径_9010" data-name="路径 9010" class="cls-4" d="M567.966,343.64a.932.932,0,0,1-.917.816c-.042,0-.084-.008-.117-.008-3.778-.479-8.407-2.785-11.124-4.317.067-.664.151-1.321.244-1.977,2.474,1.414,7.363,3.98,11.108,4.452A.933.933,0,0,1,567.966,343.64Z" transform="translate(-555.807 -338.154)"/>
        </g>
      </g>
      <path id="路径_9011" data-name="路径 9011" class="cls-5" d="M586.447,290.685s10.456-9.883,15.469-.573c4.011,8.308-5.156,10.1-10.312,9.167s-7.95,1.36-10.241,3.724c-1.36,1.218-3.509.788-.644-4.583A27.174,27.174,0,0,1,586.447,290.685Z" transform="translate(-563.676 -278.035)"/>
    </g>
    <g id="组_3419" data-name="组 3419" transform="translate(575.236 213.953)">
      <path id="路径_9012" data-name="路径 9012" class="cls-2" d="M642.647,286.953s-5.371-5.944,0-11.745c5.371-4.869,13.233,2.435,9.31,12.175s-5.976,11.573-5.976,11.573l-1.122-1.573S645.861,289.952,642.647,286.953Z" transform="translate(-628.756 -273.658)"/>
      <path id="路径_9013" data-name="路径 9013" class="cls-3" d="M646.784,315.86c.017,7.161-5.713,22.779-17.167,30.942-7,1.927-7.758-8.2-6.707-17.461.068-.664.152-1.321.245-1.977.176-1.212.37-2.39.589-3.5.126-.665.252-1.313.4-1.927.3-1.388.631-2.634.943-3.652a17.513,17.513,0,0,1,.631-1.767.874.874,0,0,1,.034-.084c2.575-5.874,4.8-9.736,9.021-8.877C634.768,307.555,646.767,308.7,646.784,315.86Z" transform="translate(-622.526 -285.523)"/>
      <g id="组_3414" data-name="组 3414" transform="translate(2.556 30.994)">
        <g id="组_3413" data-name="组 3413">
          <path id="路径_9014" data-name="路径 9014" class="cls-4" d="M640.746,327.947a.932.932,0,0,1-.917.816c-.042,0-.084-.008-.117-.008-5.192-.656-11.983-4.771-13.245-5.554a17.533,17.533,0,0,1,.631-1.767.932.932,0,0,1,.16.084c.076.051,7.481,4.737,12.681,5.394A.933.933,0,0,1,640.746,327.947Z" transform="translate(-626.466 -321.434)"/>
        </g>
      </g>
      <g id="组_3416" data-name="组 3416" transform="translate(1.218 36.412)">
        <g id="组_3415" data-name="组 3415">
          <path id="路径_9015" data-name="路径 9015" class="cls-4" d="M638.069,336.082a.932.932,0,0,1-.917.816c-.042,0-.084-.008-.118-.008-4.62-.581-10.5-3.9-12.63-5.175.126-.665.252-1.313.4-1.927,1.279.791,7.767,4.671,12.463,5.26A.932.932,0,0,1,638.069,336.082Z" transform="translate(-624.404 -329.787)"/>
        </g>
      </g>
      <g id="组_3418" data-name="组 3418" transform="translate(0.385 41.84)">
        <g id="组_3417" data-name="组 3417">
          <path id="路径_9016" data-name="路径 9016" class="cls-4" d="M635.279,343.64a.932.932,0,0,1-.917.816c-.042,0-.084-.008-.118-.008-3.778-.479-8.406-2.785-11.124-4.317.068-.664.152-1.321.245-1.977,2.474,1.414,7.362,3.98,11.108,4.452A.932.932,0,0,1,635.279,343.64Z" transform="translate(-623.119 -338.154)"/>
        </g>
      </g>
      <path id="路径_9017" data-name="路径 9017" class="cls-5" d="M653.76,290.685s10.456-9.883,15.469-.573c4.01,8.308-5.156,10.1-10.312,9.167s-7.95,1.36-10.241,3.724c-1.36,1.218-3.509.788-.644-4.583A27.158,27.158,0,0,1,653.76,290.685Z" transform="translate(-630.988 -278.035)"/>
    </g>
    <g id="组_3426" data-name="组 3426" transform="translate(618.904 213.953)">
      <path id="路径_9018" data-name="路径 9018" class="cls-2" d="M709.96,286.953s-5.371-5.944,0-11.745c5.371-4.869,13.233,2.435,9.31,12.175s-5.977,11.573-5.977,11.573l-1.122-1.573S713.174,289.952,709.96,286.953Z" transform="translate(-696.068 -273.658)"/>
      <path id="路径_9019" data-name="路径 9019" class="cls-3" d="M714.1,315.86c.017,7.161-5.714,22.779-17.167,30.942-7,1.927-7.758-8.2-6.707-17.461.067-.664.152-1.321.244-1.977.177-1.212.37-2.39.589-3.5.126-.665.252-1.313.4-1.927.3-1.388.631-2.634.943-3.652a17.363,17.363,0,0,1,.631-1.767.874.874,0,0,1,.034-.084c2.575-5.874,4.8-9.736,9.021-8.877C702.081,307.555,714.08,308.7,714.1,315.86Z" transform="translate(-689.839 -285.523)"/>
      <g id="组_3421" data-name="组 3421" transform="translate(2.556 30.994)">
        <g id="组_3420" data-name="组 3420">
          <path id="路径_9020" data-name="路径 9020" class="cls-4" d="M708.059,327.947a.932.932,0,0,1-.917.816c-.042,0-.084-.008-.117-.008-5.192-.656-11.983-4.771-13.245-5.554a17.383,17.383,0,0,1,.631-1.767.988.988,0,0,1,.16.084c.076.051,7.481,4.737,12.681,5.394A.933.933,0,0,1,708.059,327.947Z" transform="translate(-693.779 -321.434)"/>
        </g>
      </g>
      <g id="组_3423" data-name="组 3423" transform="translate(1.218 36.412)">
        <g id="组_3422" data-name="组 3422">
          <path id="路径_9021" data-name="路径 9021" class="cls-4" d="M705.382,336.082a.933.933,0,0,1-.917.816c-.042,0-.084-.008-.118-.008-4.62-.581-10.5-3.9-12.631-5.175.127-.665.252-1.313.4-1.927,1.279.791,7.767,4.671,12.463,5.26A.932.932,0,0,1,705.382,336.082Z" transform="translate(-691.716 -329.787)"/>
        </g>
      </g>
      <g id="组_3425" data-name="组 3425" transform="translate(0.385 41.84)">
        <g id="组_3424" data-name="组 3424">
          <path id="路径_9022" data-name="路径 9022" class="cls-4" d="M702.592,343.64a.932.932,0,0,1-.917.816c-.042,0-.084-.008-.118-.008-3.778-.479-8.406-2.785-11.124-4.317.067-.664.152-1.321.244-1.977,2.474,1.414,7.363,3.98,11.108,4.452A.933.933,0,0,1,702.592,343.64Z" transform="translate(-690.432 -338.154)"/>
        </g>
      </g>
      <path id="路径_9023" data-name="路径 9023" class="cls-5" d="M721.073,290.685s10.456-9.883,15.469-.573c4.01,8.308-5.156,10.1-10.313,9.167s-7.949,1.36-10.241,3.724c-1.361,1.218-3.509.788-.645-4.583A27.166,27.166,0,0,1,721.073,290.685Z" transform="translate(-698.301 -278.035)"/>
    </g>
    <g id="组_3433" data-name="组 3433" transform="translate(662.571 213.953)">
      <path id="路径_9024" data-name="路径 9024" class="cls-2" d="M777.273,286.953s-5.371-5.944,0-11.745c5.371-4.869,13.233,2.435,9.31,12.175s-5.977,11.573-5.977,11.573l-1.122-1.573S780.487,289.952,777.273,286.953Z" transform="translate(-763.381 -273.658)"/>
      <path id="路径_9025" data-name="路径 9025" class="cls-3" d="M781.41,315.86c.017,7.161-5.714,22.779-17.167,30.942-7,1.927-7.758-8.2-6.707-17.461.067-.664.151-1.321.244-1.977.177-1.212.37-2.39.589-3.5.127-.665.252-1.313.4-1.927.3-1.388.631-2.634.943-3.652a17.543,17.543,0,0,1,.631-1.767.874.874,0,0,1,.034-.084c2.575-5.874,4.805-9.736,9.021-8.877C769.393,307.555,781.393,308.7,781.41,315.86Z" transform="translate(-757.152 -285.523)"/>
      <g id="组_3428" data-name="组 3428" transform="translate(2.556 30.994)">
        <g id="组_3427" data-name="组 3427">
          <path id="路径_9026" data-name="路径 9026" class="cls-4" d="M775.372,327.947a.933.933,0,0,1-.917.816c-.042,0-.084-.008-.118-.008-5.192-.656-11.983-4.771-13.244-5.554a17.563,17.563,0,0,1,.631-1.767.967.967,0,0,1,.16.084c.076.051,7.48,4.737,12.681,5.394A.933.933,0,0,1,775.372,327.947Z" transform="translate(-761.092 -321.434)"/>
        </g>
      </g>
      <g id="组_3430" data-name="组 3430" transform="translate(1.218 36.412)">
        <g id="组_3429" data-name="组 3429">
          <path id="路径_9027" data-name="路径 9027" class="cls-4" d="M772.7,336.082a.933.933,0,0,1-.917.816c-.042,0-.084-.008-.118-.008-4.62-.581-10.5-3.9-12.631-5.175.127-.665.252-1.313.4-1.927,1.279.791,7.767,4.671,12.462,5.26A.933.933,0,0,1,772.7,336.082Z" transform="translate(-759.029 -329.787)"/>
        </g>
      </g>
      <g id="组_3432" data-name="组 3432" transform="translate(0.385 41.84)">
        <g id="组_3431" data-name="组 3431">
          <path id="路径_9028" data-name="路径 9028" class="cls-4" d="M769.9,343.64a.932.932,0,0,1-.917.816c-.042,0-.084-.008-.118-.008-3.778-.479-8.406-2.785-11.124-4.317.068-.664.151-1.321.244-1.977,2.474,1.414,7.363,3.98,11.108,4.452A.934.934,0,0,1,769.9,343.64Z" transform="translate(-757.745 -338.154)"/>
        </g>
      </g>
      <path id="路径_9029" data-name="路径 9029" class="cls-5" d="M788.386,290.685s10.456-9.883,15.469-.573c4.01,8.308-5.157,10.1-10.313,9.167s-7.95,1.36-10.241,3.724c-1.361,1.218-3.51.788-.645-4.583A27.167,27.167,0,0,1,788.386,290.685Z" transform="translate(-765.614 -278.035)"/>
    </g>
  </g>
</svg>
