<svg xmlns="http://www.w3.org/2000/svg" xmlns:xlink="http://www.w3.org/1999/xlink" width="307.732" height="216.829" viewBox="0 0 307.732 216.829">
  <defs>
    <style>
      .cls-1 {
        stroke: #fff;
        stroke-miterlimit: 10;
        stroke-width: 5px;
        stroke-dasharray: 12;
        fill: url(#linear-gradient);
      }

      .cls-2 {
        fill: #3aa115;
      }

      .cls-3 {
        fill: #44b91f;
      }

      .cls-4 {
        fill: #e94b2c;
      }

      .cls-5 {
        fill: #ff5f3c;
      }

      .cls-6 {
        fill: #ff9c86;
      }

      .cls-7 {
        fill: #719e1a;
      }

      .cls-8 {
        fill: #81b725;
      }

      .cls-9 {
        fill: #e8343d;
      }

      .cls-10 {
        fill: #ff4547;
      }

      .cls-11 {
        fill: #ff8f90;
      }

      .cls-12 {
        stroke: none;
      }

      .cls-13 {
        fill: none;
      }
    </style>
    <linearGradient id="linear-gradient" y1="0.5" x2="1" y2="0.5" gradientUnits="objectBoundingBox">
      <stop offset="0" stop-color="#fff" stop-opacity="0.4"/>
      <stop offset="1" stop-color="#fff" stop-opacity="0.4"/>
    </linearGradient>
  </defs>
  <g id="组_3325" data-name="组 3325" transform="translate(-842 -99.922)">
    <g id="矩形_2374" data-name="矩形 2374" class="cls-1" transform="translate(842 99.922)">
      <rect class="cls-12" width="307.732" height="216.829" rx="16.77"/>
      <rect class="cls-13" x="2.5" y="2.5" width="302.732" height="211.829" rx="14.27"/>
    </g>
    <g id="组_3313" data-name="组 3313" transform="translate(882.812 158.221)">
      <path id="路径_8868" data-name="路径 8868" class="cls-2" d="M913.583,170.326a11.6,11.6,0,0,1,2.819-3.47c3.255-2.763,7.238-3.417,8.9-1.465s.36,5.781-2.9,8.54a10.885,10.885,0,0,1-4.913,2.474A18,18,0,0,0,913.583,170.326Z" transform="translate(-897.331 -164.267)"/>
      <path id="路径_8869" data-name="路径 8869" class="cls-3" d="M923.616,164.291a3.406,3.406,0,0,1,2.451,1.113c1.656,1.956.36,5.781-2.9,8.54a11.675,11.675,0,0,1-3.687,2.151,17.859,17.859,0,0,0-3.8-5.826,11.607,11.607,0,0,1,2.818-3.47,10.779,10.779,0,0,1,5.118-2.508Z" transform="translate(-898.094 -164.276)"/>
      <path id="路径_8870" data-name="路径 8870" class="cls-4" d="M914.846,182.514a1.414,1.414,0,0,0,2.35-1.246,21,21,0,0,0-1.65-5.236,17.079,17.079,0,0,0-7.616-8.3,1.412,1.412,0,1,0-1.285,2.514c6.524,3.34,7.746,11.344,7.758,11.423a1.36,1.36,0,0,0,.443.842Z" transform="translate(-894.527 -165.472)"/>
      <path id="路径_8871" data-name="路径 8871" class="cls-5" d="M916.3,176.1a20.847,20.847,0,0,1,1.651,5.236,1.407,1.407,0,0,1-.671,1.41,1.48,1.48,0,0,1-.345-.23,1.4,1.4,0,0,1-.447-.846c-.012-.079-1.23-8.086-7.758-11.423a1.411,1.411,0,0,1-.615-1.9,1.39,1.39,0,0,1,.529-.567.129.129,0,0,1,.041.022A17.05,17.05,0,0,1,916.3,176.1Z" transform="translate(-895.285 -165.546)"/>
      <path id="路径_8872" data-name="路径 8872" class="cls-4" d="M910.656,187.707c-7.258.258-8.049-3.842-14.916-2.5-13.69,2.668-8.247,35.715,9.4,35.651,2.726-.011,5.242-.8,9.123-.389,13.947,1.486,25.2-28.415,10.22-34.71C918.393,183.2,914.589,187.569,910.656,187.707Z" transform="translate(-888.04 -171.785)"/>
      <path id="路径_8873" data-name="路径 8873" class="cls-5" d="M900.969,185.074c.1-.017.193-.038.288-.05,3.865.4,5.557,2.927,11.306,2.719a6.872,6.872,0,0,0,1.375-.2,16.039,16.039,0,0,0,1.952.039c2.479-.09,4.9-1.853,7.884-2.513a10.2,10.2,0,0,1,2.618.727c13.837,5.81,5.285,31.773-7.092,34.524a23.609,23.609,0,0,0-4.927.071,33.44,33.44,0,0,0-4.748.325C892.571,219.849,887.47,187.7,900.969,185.074Z" transform="translate(-889.942 -171.817)"/>
      <ellipse id="椭圆_1305" data-name="椭圆 1305" class="cls-6" cx="3.006" cy="3.806" rx="3.006" ry="3.806" transform="matrix(0.826, -0.564, 0.564, 0.826, 31.322, 19.466)"/>
    </g>
    <g id="组_3314" data-name="组 3314" transform="translate(899.118 181.822)">
      <path id="路径_8874" data-name="路径 8874" class="cls-7" d="M938.439,207.636a11.6,11.6,0,0,1,2.733-3.537c3.187-2.841,7.154-3.592,8.861-1.681s.5,5.77-2.69,8.608a10.871,10.871,0,0,1-4.852,2.593A18.016,18.016,0,0,0,938.439,207.636Z" transform="translate(-922.678 -201.361)"/>
      <path id="路径_8875" data-name="路径 8875" class="cls-8" d="M948.321,201.373a3.407,3.407,0,0,1,2.477,1.054c1.7,1.915.5,5.77-2.69,8.608a11.657,11.657,0,0,1-3.633,2.24,17.873,17.873,0,0,0-3.942-5.732,11.6,11.6,0,0,1,2.733-3.538,10.785,10.785,0,0,1,5.055-2.632Z" transform="translate(-923.44 -201.366)"/>
      <path id="路径_8876" data-name="路径 8876" class="cls-9" d="M939.933,219.9a1.414,1.414,0,0,0,2.319-1.3,20.978,20.978,0,0,0-1.778-5.194,17.084,17.084,0,0,0-7.815-8.11,1.412,1.412,0,1,0-1.224,2.546c6.6,3.181,8.019,11.152,8.033,11.23a1.358,1.358,0,0,0,.464.831Z" transform="translate(-919.84 -202.739)"/>
      <path id="路径_8877" data-name="路径 8877" class="cls-10" d="M941.227,213.461a20.863,20.863,0,0,1,1.778,5.194,1.407,1.407,0,0,1-.637,1.426,1.457,1.457,0,0,1-.351-.221,1.405,1.405,0,0,1-.468-.834c-.014-.079-1.426-8.054-8.033-11.231a1.413,1.413,0,0,1-.661-1.885,1.4,1.4,0,0,1,.515-.58.125.125,0,0,1,.041.02A17.05,17.05,0,0,1,941.227,213.461Z" transform="translate(-920.596 -202.805)"/>
      <path id="路径_8878" data-name="路径 8878" class="cls-9" d="M936.03,224.763c-7.25.435-8.14-3.645-14.972-2.138-13.622,3-7.376,35.906,10.268,35.411,2.724-.078,5.22-.931,9.11-.611,13.979,1.147,24.5-29.02,9.372-34.948C943.656,220.065,939.959,224.53,936.03,224.763Z" transform="translate(-913.668 -208.783)"/>
      <path id="路径_8879" data-name="路径 8879" class="cls-10" d="M926.279,222.412c.1-.019.192-.042.287-.057,3.872.3,5.626,2.791,11.368,2.443a6.823,6.823,0,0,0,1.369-.236,16.2,16.2,0,0,0,1.953-.008c2.476-.151,4.857-1.972,7.82-2.7a10.2,10.2,0,0,1,2.635.663c13.975,5.472,6.057,31.636-6.25,34.686a23.64,23.64,0,0,0-4.924.192,33.379,33.379,0,0,0-4.739.441C918.73,257.381,912.849,225.37,926.279,222.412Z" transform="translate(-915.567 -208.814)"/>
      <ellipse id="椭圆_1306" data-name="椭圆 1306" class="cls-11" cx="3.006" cy="3.806" rx="3.006" ry="3.806" transform="matrix(0.812, -0.584, 0.584, 0.812, 31.153, 19.312)"/>
    </g>
    <g id="组_3315" data-name="组 3315" transform="translate(934.934 156.769)">
      <path id="路径_8880" data-name="路径 8880" class="cls-7" d="M986.669,170.565a11.594,11.594,0,0,1,1.7-4.136c2.318-3.585,5.943-5.361,8.1-3.972s2.014,5.431-.31,9.014a10.881,10.881,0,0,1-3.989,3.788A18,18,0,0,0,986.669,170.565Z" transform="translate(-976.038 -161.985)"/>
      <path id="路径_8881" data-name="路径 8881" class="cls-8" d="M994.518,162.1a3.405,3.405,0,0,1,2.668.358c2.151,1.395,2.014,5.431-.31,9.013a11.662,11.662,0,0,1-2.908,3.125,17.861,17.861,0,0,0-5.322-4.481,11.607,11.607,0,0,1,1.7-4.136,10.783,10.783,0,0,1,4.176-3.879Z" transform="translate(-976.757 -161.986)"/>
      <path id="路径_8882" data-name="路径 8882" class="cls-9" d="M990.6,183.191a1.414,1.414,0,0,0,1.891-1.871,21.013,21.013,0,0,0-3.092-4.537,17.083,17.083,0,0,0-9.688-5.745,1.412,1.412,0,0,0-.5,2.779c7.211,1.314,10.691,8.624,10.725,8.7a1.358,1.358,0,0,0,.667.678Z" transform="translate(-972.9 -165.27)"/>
      <path id="路径_8883" data-name="路径 8883" class="cls-10" d="M990.1,176.788a20.859,20.859,0,0,1,3.092,4.537,1.407,1.407,0,0,1-.235,1.544,1.44,1.44,0,0,1-.4-.12,1.41,1.41,0,0,1-.673-.68c-.034-.073-3.512-7.387-10.725-8.7a1.412,1.412,0,0,1-1.138-1.642,1.393,1.393,0,0,1,.343-.7.127.127,0,0,1,.045.009A17.046,17.046,0,0,1,990.1,176.788Z" transform="translate(-973.613 -165.276)"/>
      <path id="路径_8884" data-name="路径 8884" class="cls-9" d="M989.531,184.039c-6.875,2.342-8.816-1.355-15,1.911-12.338,6.507,2.416,36.576,19.3,31.417,2.607-.8,4.787-2.282,8.622-3.007,13.782-2.6,15.925-34.481-.238-36.182C995.637,177.485,993.257,182.771,989.531,184.039Z" transform="translate(-969.96 -167.852)"/>
      <path id="路径_8885" data-name="路径 8885" class="cls-10" d="M979.46,184.834c.09-.045.174-.092.261-.131,3.814-.734,6.165,1.2,11.608-.661a6.82,6.82,0,0,0,1.258-.591,16.093,16.093,0,0,0,1.88-.526c2.348-.8,4.16-3.19,6.823-4.682a10.205,10.205,0,0,1,2.717-.06c14.926,1.568,14.234,28.894,3.178,35.1a23.655,23.655,0,0,0-4.7,1.491,33.324,33.324,0,0,0-4.452,1.682C981.461,220.553,967.3,191.25,979.46,184.834Z" transform="translate(-971.754 -167.854)"/>
      <ellipse id="椭圆_1307" data-name="椭圆 1307" class="cls-11" cx="3.006" cy="3.806" rx="3.006" ry="3.806" transform="translate(28.93 17.065) rotate(-51.142)"/>
    </g>
    <g id="组_3316" data-name="组 3316" transform="translate(934.94 208.39)">
      <path id="路径_8886" data-name="路径 8886" class="cls-2" d="M999.876,248a11.605,11.605,0,0,1,3.253-3.067c3.592-2.308,7.627-2.429,9.014-.275s-.407,5.778-4,8.082a10.875,10.875,0,0,1-5.2,1.8A18.005,18.005,0,0,0,999.876,248Z" transform="translate(-980.848 -243.118)"/>
      <path id="路径_8887" data-name="路径 8887" class="cls-3" d="M1010.625,243.3a3.406,3.406,0,0,1,2.282,1.427c1.383,2.158-.408,5.778-4,8.082a11.662,11.662,0,0,1-3.939,1.645,17.853,17.853,0,0,0-3-6.278,11.605,11.605,0,0,1,3.253-3.067,10.785,10.785,0,0,1,5.4-1.81Z" transform="translate(-981.609 -243.184)"/>
      <path id="路径_8888" data-name="路径 8888" class="cls-4" d="M999.86,259.7a1.414,1.414,0,0,0,2.495-.924,21.033,21.033,0,0,0-.944-5.408,17.085,17.085,0,0,0-6.452-9.231,1.412,1.412,0,0,0-1.606,2.323c6.025,4.174,6.177,12.268,6.179,12.348a1.363,1.363,0,0,0,.328.893Z" transform="translate(-978.254 -243.398)"/>
      <path id="路径_8889" data-name="路径 8889" class="cls-5" d="M1002.165,253.493a20.858,20.858,0,0,1,.944,5.408,1.407,1.407,0,0,1-.851,1.309,1.456,1.456,0,0,1-.312-.274,1.409,1.409,0,0,1-.331-.9c0-.08-.15-8.178-6.179-12.348a1.413,1.413,0,0,1-.358-1.965,1.4,1.4,0,0,1,.6-.492.138.138,0,0,1,.038.027A17.048,17.048,0,0,1,1002.165,253.493Z" transform="translate(-979.011 -243.524)"/>
      <path id="路径_8890" data-name="路径 8890" class="cls-4" d="M994,264.916c-7.228-.7-7.47-4.873-14.454-4.453-13.923.834-12.9,34.311,4.607,36.581,2.7.35,5.3-.1,9.094.821,13.627,3.318,28.739-24.832,14.719-33.054C1002.268,261.466,997.919,265.3,994,264.916Z" transform="translate(-969.97 -249.416)"/>
      <path id="路径_8891" data-name="路径 8891" class="cls-5" d="M984.765,260.91c.1,0,.2-.011.292-.011,3.777.906,5.121,3.635,10.846,4.19a6.868,6.868,0,0,0,1.39-.019,16.007,16.007,0,0,0,1.93.3c2.469.239,5.106-1.189,8.147-1.449a10.21,10.21,0,0,1,2.5,1.067c12.948,7.589,1.036,32.193-11.6,33.283a23.608,23.608,0,0,0-4.893-.581,33.369,33.369,0,0,0-4.749-.305C971.842,294.269,971.037,261.732,984.765,260.91Z" transform="translate(-971.868 -249.585)"/>
      <ellipse id="椭圆_1308" data-name="椭圆 1308" class="cls-6" cx="3.006" cy="3.806" rx="3.006" ry="3.806" transform="translate(32.193 20.163) rotate(-26.76)"/>
    </g>
    <g id="组_3317" data-name="组 3317" transform="translate(971.532 225.834)">
      <path id="路径_8892" data-name="路径 8892" class="cls-7" d="M1091.455,292.633a11.59,11.59,0,0,1,3.759,2.418c3.106,2.93,4.194,6.817,2.438,8.682s-5.706,1-8.808-1.939a10.873,10.873,0,0,1-3-4.61A18.02,18.02,0,0,0,1091.455,292.633Z" transform="translate(-1048.709 -278.573)"/>
      <path id="路径_8893" data-name="路径 8893" class="cls-8" d="M1098.744,301.933a3.407,3.407,0,0,1-.836,2.558c-1.762,1.862-5.706,1-8.808-1.939a11.668,11.668,0,0,1-2.545-3.427,17.854,17.854,0,0,0,5.371-4.421,11.606,11.606,0,0,1,3.76,2.418,10.782,10.782,0,0,1,3.058,4.81Z" transform="translate(-1048.968 -279.327)"/>
      <path id="路径_8894" data-name="路径 8894" class="cls-9" d="M1078.058,294.934a1.414,1.414,0,0,0,1.5,2.2,20.984,20.984,0,0,0,5.022-2.218,17.084,17.084,0,0,0,7.407-8.484,1.412,1.412,0,1,0-2.641-1c-2.6,6.853-10.42,8.95-10.5,8.971a1.357,1.357,0,0,0-.788.533Z" transform="translate(-1045.78 -275.621)"/>
      <path id="路径_8895" data-name="路径 8895" class="cls-10" d="M1084.749,295.659a20.838,20.838,0,0,1-5.022,2.218,1.407,1.407,0,0,1-1.475-.512,1.435,1.435,0,0,1,.19-.368,1.4,1.4,0,0,1,.791-.538c.077-.02,7.9-2.114,10.5-8.971a1.412,1.412,0,0,1,1.821-.82,1.393,1.393,0,0,1,.622.463.127.127,0,0,1-.017.043A17.047,17.047,0,0,1,1084.749,295.659Z" transform="translate(-1045.948 -276.37)"/>
      <path id="路径_8896" data-name="路径 8896" class="cls-9" d="M1061.125,292.007c-1.057-7.186,2.931-8.424.841-15.1-4.161-13.313-36.406-4.259-34.4,13.278.311,2.708,1.376,5.121,1.393,9.024.06,14.026,31.021,21.915,35.625,6.329C1066.462,299.2,1061.7,295.9,1061.125,292.007Z" transform="translate(-1027.48 -270.535)"/>
      <path id="路径_8897" data-name="路径 8897" class="cls-10" d="M1062.795,282.075c.027.1.058.188.081.281.03,3.884-2.3,5.845-1.456,11.536a6.84,6.84,0,0,0,.353,1.344,16.146,16.146,0,0,0,.176,1.944c.363,2.454,2.383,4.669,3.368,7.559a10.232,10.232,0,0,1-.433,2.682c-4.249,14.394-31,8.757-35.1-3.241a23.627,23.627,0,0,0-.615-4.89,33.272,33.272,0,0,0-.847-4.683C1027.305,277.564,1058.692,268.95,1062.795,282.075Z" transform="translate(-1027.779 -272.415)"/>
      <ellipse id="椭圆_1309" data-name="椭圆 1309" class="cls-11" cx="3.806" cy="3.006" rx="3.806" ry="3.006" transform="translate(25.311 35.479) rotate(-40.691)"/>
    </g>
    <g id="组_3318" data-name="组 3318" transform="translate(972.055 175.63)">
      <path id="路径_8898" data-name="路径 8898" class="cls-2" d="M1052.626,197.032a10.714,10.714,0,0,1,2.681-3.144c3.069-2.481,6.764-3,8.255-1.156s.2,5.35-2.868,7.827a10.055,10.055,0,0,1-4.6,2.178A16.639,16.639,0,0,0,1052.626,197.032Z" transform="translate(-1037.15 -191.629)"/>
      <path id="路径_8899" data-name="路径 8899" class="cls-3" d="M1062.031,191.666a3.148,3.148,0,0,1,2.24,1.083c1.487,1.845.2,5.35-2.868,7.828a10.782,10.782,0,0,1-3.455,1.906,16.5,16.5,0,0,0-3.384-5.469,10.733,10.733,0,0,1,2.681-3.144,9.963,9.963,0,0,1,4.785-2.2Z" transform="translate(-1037.856 -191.643)"/>
      <path id="路径_8900" data-name="路径 8900" class="cls-4" d="M1053.581,208.229a1.307,1.307,0,0,0,2.2-1.1,19.435,19.435,0,0,0-1.409-4.875,15.791,15.791,0,0,0-6.854-7.836,1.305,1.305,0,0,0-1.243,2.3c5.955,3.231,6.906,10.653,6.916,10.727a1.259,1.259,0,0,0,.391.788Z" transform="translate(-1034.591 -192.586)"/>
      <path id="路径_8901" data-name="路径 8901" class="cls-5" d="M1055.069,202.327a19.264,19.264,0,0,1,1.409,4.875,1.3,1.3,0,0,1-.651,1.288,1.348,1.348,0,0,1-.314-.22,1.3,1.3,0,0,1-.395-.791c-.01-.074-.958-7.5-6.916-10.728a1.3,1.3,0,0,1-.526-1.769,1.284,1.284,0,0,1,.5-.513.12.12,0,0,1,.037.021A15.763,15.763,0,0,1,1055.069,202.327Z" transform="translate(-1035.292 -192.663)"/>
      <path id="路径_8902" data-name="路径 8902" class="cls-4" d="M1049.44,213.046c-6.713.078-7.353-3.729-13.728-2.642-12.711,2.162-8.414,32.821,7.9,33.153,2.519.05,4.862-.626,8.439-.158,12.856,1.683,23.92-25.7,10.213-31.848C1056.691,209.048,1053.078,213.006,1049.44,213.046Z" transform="translate(-1028.303 -198.387)"/>
      <path id="路径_8903" data-name="路径 8903" class="cls-5" d="M1040.549,210.37c.092-.013.18-.03.268-.039,3.562.454,5.07,2.828,10.386,2.763a6.328,6.328,0,0,0,1.275-.157,14.847,14.847,0,0,0,1.8.08c2.293-.029,4.573-1.6,7.341-2.148a9.459,9.459,0,0,1,2.4.73c12.658,5.676,4.18,29.479-7.319,31.746a21.886,21.886,0,0,0-4.555-.043,30.853,30.853,0,0,0-4.395.2C1032.018,242.32,1028.018,212.5,1040.549,210.37Z" transform="translate(-1030.062 -198.432)"/>
      <ellipse id="椭圆_1310" data-name="椭圆 1310" class="cls-6" cx="2.779" cy="3.518" rx="2.779" ry="3.518" transform="matrix(0.839, -0.544, 0.544, 0.839, 29.104, 18.126)"/>
    </g>
    <g id="组_3319" data-name="组 3319" transform="translate(1010.796 200.764)">
      <path id="路径_8904" data-name="路径 8904" class="cls-7" d="M1113.514,236.534a10.721,10.721,0,0,1,2.681-3.144c3.069-2.481,6.765-3,8.255-1.156s.2,5.35-2.868,7.827a10.053,10.053,0,0,1-4.594,2.178A16.658,16.658,0,0,0,1113.514,236.534Z" transform="translate(-1098.039 -231.132)"/>
      <path id="路径_8905" data-name="路径 8905" class="cls-8" d="M1122.92,231.168a3.153,3.153,0,0,1,2.24,1.083c1.488,1.844.2,5.35-2.868,7.828a10.783,10.783,0,0,1-3.455,1.906,16.5,16.5,0,0,0-3.383-5.468,10.721,10.721,0,0,1,2.681-3.144,9.968,9.968,0,0,1,4.785-2.2Z" transform="translate(-1098.744 -231.145)"/>
      <path id="路径_8906" data-name="路径 8906" class="cls-9" d="M1114.469,247.731a1.307,1.307,0,0,0,2.2-1.1,19.422,19.422,0,0,0-1.409-4.875,15.791,15.791,0,0,0-6.854-7.836,1.305,1.305,0,0,0-1.243,2.3c5.955,3.232,6.907,10.654,6.916,10.727a1.257,1.257,0,0,0,.391.788Z" transform="translate(-1095.48 -232.089)"/>
      <path id="路径_8907" data-name="路径 8907" class="cls-10" d="M1115.957,241.83a19.282,19.282,0,0,1,1.409,4.875,1.3,1.3,0,0,1-.651,1.288,1.317,1.317,0,0,1-.314-.22,1.3,1.3,0,0,1-.4-.791c-.009-.073-.957-7.5-6.916-10.727a1.305,1.305,0,0,1-.024-2.282.139.139,0,0,1,.037.021A15.761,15.761,0,0,1,1115.957,241.83Z" transform="translate(-1096.181 -232.165)"/>
      <path id="路径_8908" data-name="路径 8908" class="cls-9" d="M1110.329,252.548c-6.713.078-7.353-3.729-13.728-2.642-12.711,2.162-8.413,32.821,7.9,33.153,2.519.05,4.862-.626,8.439-.157,12.855,1.683,23.919-25.7,10.213-31.848C1117.579,248.55,1113.966,252.508,1110.329,252.548Z" transform="translate(-1089.192 -237.889)"/>
      <path id="路径_8909" data-name="路径 8909" class="cls-10" d="M1101.438,249.873c.092-.013.18-.031.267-.04,3.562.454,5.07,2.828,10.387,2.763a6.327,6.327,0,0,0,1.275-.157,14.845,14.845,0,0,0,1.8.08c2.292-.028,4.572-1.6,7.341-2.147a9.42,9.42,0,0,1,2.4.73c12.658,5.675,4.179,29.478-7.32,31.745a21.886,21.886,0,0,0-4.555-.043,30.951,30.951,0,0,0-4.395.2C1092.907,281.822,1088.907,252,1101.438,249.873Z" transform="translate(-1090.951 -237.934)"/>
      <ellipse id="椭圆_1311" data-name="椭圆 1311" class="cls-11" cx="2.779" cy="3.518" rx="2.779" ry="3.518" transform="matrix(0.839, -0.544, 0.544, 0.839, 29.104, 18.126)"/>
    </g>
    <g id="组_3320" data-name="组 3320" transform="translate(1034.839 158.207)">
      <path id="路径_8910" data-name="路径 8910" class="cls-2" d="M1161.846,169.913a10.73,10.73,0,0,1,3.554-2.109c3.706-1.355,7.37-.648,8.185,1.575s-1.536,5.129-5.245,6.48a10.048,10.048,0,0,1-5.053.575A16.64,16.64,0,0,0,1161.846,169.913Z" transform="translate(-1139.662 -165.289)"/>
      <path id="路径_8911" data-name="路径 8911" class="cls-3" d="M1172.492,167.848a3.15,3.15,0,0,1,1.769,1.749c.811,2.226-1.536,5.129-5.245,6.48a10.772,10.772,0,0,1-3.886.687,16.506,16.506,0,0,0-1.433-6.268,10.725,10.725,0,0,1,3.553-2.109,9.968,9.968,0,0,1,5.241-.539Z" transform="translate(-1140.336 -165.502)"/>
      <path id="路径_8912" data-name="路径 8912" class="cls-4" d="M1159.847,179.695a1.307,1.307,0,0,0,2.438-.329,19.454,19.454,0,0,0,.242-5.069,15.793,15.793,0,0,0-3.952-9.632,1.305,1.305,0,0,0-1.918,1.77c4.59,4.984,3.09,12.315,3.075,12.387a1.261,1.261,0,0,0,.115.872Z" transform="translate(-1137.649 -164.245)"/>
      <path id="路径_8913" data-name="路径 8913" class="cls-5" d="M1163.2,174.511a19.286,19.286,0,0,1-.242,5.068,1.3,1.3,0,0,1-1.033,1.008,1.337,1.337,0,0,1-.226-.31,1.3,1.3,0,0,1-.118-.876c.015-.073,1.519-7.406-3.075-12.387a1.3,1.3,0,0,1,.074-1.845,1.287,1.287,0,0,1,.641-.323.136.136,0,0,1,.029.032A15.759,15.759,0,0,1,1163.2,174.511Z" transform="translate(-1138.319 -164.464)"/>
      <path id="路径_8914" data-name="路径 8914" class="cls-4" d="M1151.528,184.13c-6.377-2.1-5.752-5.907-12.136-6.94-12.726-2.065-18.574,28.337-3.244,33.926,2.367.862,4.8.979,8.036,2.579,11.621,5.749,30.944-16.583,19.963-26.835C1159.682,182.691,1154.984,185.269,1151.528,184.13Z" transform="translate(-1126.979 -168.917)"/>
      <path id="路径_8915" data-name="路径 8915" class="cls-5" d="M1144.01,178.64c.091.017.179.029.266.048,3.223,1.582,3.883,4.315,8.935,5.974a6.333,6.333,0,0,0,1.257.263,14.841,14.841,0,0,0,1.68.659c2.179.715,4.846-.039,7.641.342a9.423,9.423,0,0,1,2.038,1.467c10.143,9.464-5.577,29.247-17.192,27.674a21.831,21.831,0,0,0-4.3-1.514,30.744,30.744,0,0,0-4.222-1.236C1125.606,206.114,1131.462,176.6,1144.01,178.64Z" transform="translate(-1128.659 -169.444)"/>
      <ellipse id="椭圆_1312" data-name="椭圆 1312" class="cls-6" cx="2.779" cy="3.518" rx="2.779" ry="3.518" transform="matrix(0.97, -0.244, 0.244, 0.97, 30.967, 21.07)"/>
    </g>
    <g id="组_3321" data-name="组 3321" transform="translate(1077.52 148.839)">
      <path id="路径_8916" data-name="路径 8916" class="cls-7" d="M1216.727,155.388a10.726,10.726,0,0,1,2.5-3.29c2.925-2.649,6.585-3.372,8.177-1.618s.505,5.33-2.424,7.976a10.045,10.045,0,0,1-4.465,2.432A16.638,16.638,0,0,0,1216.727,155.388Z" transform="translate(-1202.306 -149.522)"/>
      <path id="路径_8917" data-name="路径 8917" class="cls-8" d="M1225.815,149.53a3.151,3.151,0,0,1,2.3.956c1.588,1.758.5,5.33-2.424,7.976a10.773,10.773,0,0,1-3.342,2.1,16.494,16.494,0,0,0-3.685-5.269,10.724,10.724,0,0,1,2.5-3.289,9.963,9.963,0,0,1,4.654-2.471Z" transform="translate(-1203.009 -149.525)"/>
      <path id="路径_8918" data-name="路径 8918" class="cls-9" d="M1218.178,166.739a1.307,1.307,0,0,0,2.135-1.221,19.416,19.416,0,0,0-1.681-4.788,15.79,15.79,0,0,0-7.284-7.438,1.305,1.305,0,1,0-1.112,2.361c6.127,2.892,7.495,10.249,7.508,10.322a1.254,1.254,0,0,0,.435.764Z" transform="translate(-1199.672 -150.847)"/>
      <path id="路径_8919" data-name="路径 8919" class="cls-10" d="M1219.326,160.785a19.229,19.229,0,0,1,1.681,4.788,1.3,1.3,0,0,1-.578,1.323,1.36,1.36,0,0,1-.326-.2,1.3,1.3,0,0,1-.439-.768c-.013-.073-1.377-7.434-7.507-10.321a1.3,1.3,0,0,1-.625-1.737,1.287,1.287,0,0,1,.472-.54.126.126,0,0,1,.038.019A15.76,15.76,0,0,1,1219.326,160.785Z" transform="translate(-1200.371 -150.906)"/>
      <path id="路径_8920" data-name="路径 8920" class="cls-9" d="M1214.656,171.137c-6.7.454-7.551-3.31-13.855-1.867-12.569,2.873-6.555,33.242,9.75,32.656,2.518-.091,4.819-.9,8.417-.631,12.929.958,22.437-27,8.407-32.372C1221.67,166.738,1218.286,170.892,1214.656,171.137Z" transform="translate(-1194.061 -156.349)"/>
      <path id="路径_8921" data-name="路径 8921" class="cls-10" d="M1205.624,169.045c.091-.018.178-.04.265-.055,3.582.253,5.221,2.538,10.526,2.175a6.349,6.349,0,0,0,1.264-.228,14.936,14.936,0,0,0,1.8-.022c2.288-.157,4.475-1.858,7.209-2.556a9.459,9.459,0,0,1,2.441.593c12.957,4.956,5.83,29.2-5.523,32.107a21.863,21.863,0,0,0-4.551.213,30.845,30.845,0,0,0-4.377.442C1198.9,201.423,1193.232,171.877,1205.624,169.045Z" transform="translate(-1195.815 -156.373)"/>
      <ellipse id="椭圆_1313" data-name="椭圆 1313" class="cls-11" cx="2.779" cy="3.518" rx="2.779" ry="3.518" transform="matrix(0.807, -0.591, 0.591, 0.807, 28.744, 17.803)"/>
    </g>
    <g id="组_3322" data-name="组 3322" transform="translate(1052.682 200.608)">
      <path id="路径_8922" data-name="路径 8922" class="cls-7" d="M1209.251,240.16a10.726,10.726,0,0,1,4.086.615c3.728,1.295,6.118,4.16,5.343,6.4s-4.435,3-8.161,1.7a10.053,10.053,0,0,1-4.277-2.751A16.636,16.636,0,0,0,1209.251,240.16Z" transform="translate(-1173.654 -234.254)"/>
      <path id="路径_8923" data-name="路径 8923" class="cls-8" d="M1218.89,245.294a3.147,3.147,0,0,1,.264,2.474c-.78,2.238-4.434,3-8.161,1.7a10.8,10.8,0,0,1-3.444-1.926,16.5,16.5,0,0,0,2.855-5.762,10.726,10.726,0,0,1,4.086.615,9.965,9.965,0,0,1,4.4,2.9Z" transform="translate(-1174.129 -234.844)"/>
      <path id="路径_8924" data-name="路径 8924" class="cls-9" d="M1200.209,245.545a1.307,1.307,0,0,0,2.1,1.287,19.418,19.418,0,0,0,3.395-3.772,15.794,15.794,0,0,0,3.032-9.959,1.305,1.305,0,1,0-2.606.157c.4,6.763-5.4,11.493-5.454,11.539a1.254,1.254,0,0,0-.463.748Z" transform="translate(-1171.45 -231.245)"/>
      <path id="路径_8925" data-name="路径 8925" class="cls-10" d="M1206.09,243.639a19.26,19.26,0,0,1-3.394,3.772,1.3,1.3,0,0,1-1.437.128,1.334,1.334,0,0,1,.02-.383,1.3,1.3,0,0,1,.463-.753c.058-.046,5.862-4.775,5.455-11.539a1.3,1.3,0,0,1,1.224-1.381,1.286,1.286,0,0,1,.7.155.127.127,0,0,1,0,.043A15.757,15.757,0,0,1,1206.09,243.639Z" transform="translate(-1171.839 -231.829)"/>
      <path id="路径_8926" data-name="路径 8926" class="cls-9" d="M1185.754,246.489c-3.613-5.659-.719-8.213-5.01-13.052-8.551-9.649-32.312,10.2-23.974,24.223,1.288,2.165,3.1,3.8,4.592,7.082,5.363,11.8,34.457,6.731,32.436-8.155C1192.978,250.532,1187.709,249.556,1185.754,246.489Z" transform="translate(-1155.023 -230.886)"/>
      <path id="路径_8927" data-name="路径 8927" class="cls-10" d="M1183.4,237.48c.06.071.121.136.175.206,1.5,3.265.278,5.8,3.142,10.279a6.325,6.325,0,0,0,.807,1,14.884,14.884,0,0,0,.885,1.573c1.236,1.932,3.777,3.035,5.7,5.1a9.432,9.432,0,0,1,.65,2.427c1.869,13.746-22.821,19.123-30.82,10.557a21.829,21.829,0,0,0-2.37-3.89,30.807,30.807,0,0,0-2.488-3.628C1151.769,247.117,1174.971,227.966,1183.4,237.48Z" transform="translate(-1155.989 -232.357)"/>
      <ellipse id="椭圆_1314" data-name="椭圆 1314" class="cls-11" cx="3.518" cy="2.779" rx="3.518" ry="2.779" transform="translate(29.008 30.569) rotate(-64.878)"/>
    </g>
    <g id="组_3323" data-name="组 3323" transform="translate(1008.342 147.645)">
      <path id="路径_8928" data-name="路径 8928" class="cls-7" d="M1139.562,156.919a10.715,10.715,0,0,1,4.086.615c3.728,1.295,6.118,4.16,5.343,6.4s-4.435,3-8.161,1.7a10.05,10.05,0,0,1-4.276-2.751A16.64,16.64,0,0,0,1139.562,156.919Z" transform="translate(-1103.965 -151.013)"/>
      <path id="路径_8929" data-name="路径 8929" class="cls-8" d="M1149.2,162.053a3.147,3.147,0,0,1,.264,2.474c-.78,2.237-4.434,3-8.161,1.7a10.776,10.776,0,0,1-3.444-1.926,16.5,16.5,0,0,0,2.855-5.761,10.715,10.715,0,0,1,4.086.615,9.96,9.96,0,0,1,4.4,2.9Z" transform="translate(-1104.44 -151.603)"/>
      <path id="路径_8930" data-name="路径 8930" class="cls-9" d="M1130.521,162.3a1.307,1.307,0,0,0,2.1,1.287,19.418,19.418,0,0,0,3.395-3.772,15.794,15.794,0,0,0,3.032-9.959,1.305,1.305,0,0,0-2.606.157c.4,6.763-5.4,11.493-5.454,11.539a1.259,1.259,0,0,0-.463.748Z" transform="translate(-1101.761 -148.004)"/>
      <path id="路径_8931" data-name="路径 8931" class="cls-10" d="M1136.4,160.4a19.257,19.257,0,0,1-3.394,3.772,1.3,1.3,0,0,1-1.437.127,1.335,1.335,0,0,1,.02-.383,1.305,1.305,0,0,1,.463-.753c.058-.046,5.862-4.774,5.455-11.539a1.305,1.305,0,0,1,1.224-1.381,1.292,1.292,0,0,1,.7.155.121.121,0,0,1,0,.043A15.757,15.757,0,0,1,1136.4,160.4Z" transform="translate(-1102.15 -148.588)"/>
      <path id="路径_8932" data-name="路径 8932" class="cls-9" d="M1116.065,163.248c-3.613-5.659-.719-8.213-5.01-13.052-8.551-9.649-32.312,10.2-23.974,24.222,1.288,2.166,3.1,3.8,4.592,7.082,5.363,11.8,34.457,6.732,32.436-8.155C1123.289,167.291,1118.02,166.315,1116.065,163.248Z" transform="translate(-1085.334 -147.645)"/>
      <path id="路径_8933" data-name="路径 8933" class="cls-10" d="M1113.712,154.238c.06.071.121.136.175.206,1.5,3.264.278,5.8,3.142,10.279a6.339,6.339,0,0,0,.807,1,14.925,14.925,0,0,0,.885,1.573c1.236,1.932,3.777,3.035,5.7,5.1a9.422,9.422,0,0,1,.65,2.427c1.869,13.746-22.821,19.123-30.82,10.558a21.812,21.812,0,0,0-2.37-3.89,30.89,30.89,0,0,0-2.487-3.629C1082.08,163.875,1105.282,144.725,1113.712,154.238Z" transform="translate(-1086.3 -149.115)"/>
      <ellipse id="椭圆_1315" data-name="椭圆 1315" class="cls-11" cx="3.518" cy="2.779" rx="3.518" ry="2.779" transform="translate(29.008 30.569) rotate(-64.878)"/>
    </g>
    <g id="组_3324" data-name="组 3324" transform="translate(873.667 210.578)">
      <path id="路径_8934" data-name="路径 8934" class="cls-7" d="M889.405,255.409a11.605,11.605,0,0,1,1.554-4.191c2.2-3.662,5.758-5.56,7.957-4.244s2.2,5.359,0,9.019a10.871,10.871,0,0,1-3.858,3.921A18.015,18.015,0,0,0,889.405,255.409Z" transform="translate(-879.392 -246.556)"/>
      <path id="路径_8935" data-name="路径 8935" class="cls-8" d="M896.953,246.71a3.4,3.4,0,0,1,2.678.267c2.2,1.321,2.2,5.359,0,9.019a11.667,11.667,0,0,1-2.8,3.221,17.854,17.854,0,0,0-5.471-4.3,11.6,11.6,0,0,1,1.555-4.191,10.776,10.776,0,0,1,4.042-4.019Z" transform="translate(-880.102 -246.557)"/>
      <path id="路径_8936" data-name="路径 8936" class="cls-9" d="M893.618,268.025a1.414,1.414,0,0,0,1.826-1.935,20.988,20.988,0,0,0-3.244-4.428,17.083,17.083,0,0,0-9.877-5.413,1.412,1.412,0,0,0-.41,2.794c7.251,1.068,10.978,8.255,11.015,8.327a1.357,1.357,0,0,0,.69.655Z" transform="translate(-876.228 -250.077)"/>
      <path id="路径_8937" data-name="路径 8937" class="cls-10" d="M892.9,261.662a20.834,20.834,0,0,1,3.244,4.429,1.406,1.406,0,0,1-.183,1.551,1.438,1.438,0,0,1-.4-.106,1.41,1.41,0,0,1-.7-.657c-.037-.071-3.761-7.264-11.014-8.327a1.413,1.413,0,0,1-1.193-1.6,1.4,1.4,0,0,1,.319-.707.15.15,0,0,1,.046.008A17.052,17.052,0,0,1,892.9,261.662Z" transform="translate(-876.932 -250.08)"/>
      <path id="路径_8938" data-name="路径 8938" class="cls-9" d="M892.874,268.329c-6.791,2.574-8.857-1.054-14.929,2.42-12.11,6.922,3.657,36.472,20.353,30.743,2.578-.886,4.706-2.444,8.514-3.3,13.686-3.071,14.745-35-1.467-36.153C898.753,261.571,896.554,266.935,892.874,268.329Z" transform="translate(-873.667 -252.178)"/>
      <path id="路径_8939" data-name="路径 8939" class="cls-10" d="M882.813,269.527c.089-.048.171-.1.257-.14,3.788-.863,6.2.987,11.579-1.055a6.847,6.847,0,0,0,1.238-.634,16.169,16.169,0,0,0,1.861-.589c2.318-.882,4.049-3.329,6.66-4.912a10.193,10.193,0,0,1,2.713-.152c14.971,1.059,15.207,28.394,4.369,34.973a23.608,23.608,0,0,0-4.644,1.65,33.332,33.332,0,0,0-4.392,1.832C886.027,305.157,870.875,276.352,882.813,269.527Z" transform="translate(-875.438 -252.18)"/>
      <ellipse id="椭圆_1316" data-name="椭圆 1316" class="cls-11" cx="3.006" cy="3.806" rx="3.006" ry="3.806" transform="matrix(0.601, -0.8, 0.8, 0.601, 28.59, 16.711)"/>
    </g>
  </g>
</svg>
