<svg xmlns="http://www.w3.org/2000/svg" width="223.898" height="226.84" viewBox="0 0 223.898 226.84">
  <defs>
    <style>
      .cls-1 {
        fill: #ffeec2;
        stroke: #fff;
        stroke-miterlimit: 10;
        stroke-width: 10px;
      }

      .cls-2 {
        fill: #db9469;
      }

      .cls-3 {
        fill: #b86f42;
      }

      .cls-4 {
        fill: #61bfff;
      }

      .cls-5 {
        fill: #ff6969;
      }

      .cls-6 {
        fill: #fff;
        font-size: 13.2px;
        font-family: MicrosoftYaHei-Bold, Microsoft YaHei;
        font-weight: 700;
      }

      .cls-7 {
        stroke: none;
      }

      .cls-8 {
        fill: none;
      }
    </style>
  </defs>
  <g id="组_3489" data-name="组 3489" transform="translate(83.773 -1487.383)">
    <g id="矩形_1114" data-name="矩形 1114" class="cls-1" transform="translate(-73.773 1497.383)">
      <rect class="cls-7" width="203.898" height="206.84" rx="13.181"/>
      <rect class="cls-8" x="-5" y="-5" width="213.898" height="216.84" rx="18.181"/>
    </g>
    <g id="组_3488" data-name="组 3488">
      <rect id="矩形_1115" data-name="矩形 1115" class="cls-2" width="131.142" height="24.173" rx="3.506" transform="translate(-37.396 1659.217)"/>
      <rect id="矩形_1116" data-name="矩形 1116" class="cls-3" width="6.842" height="122.393" transform="translate(6.164 1536.825)"/>
      <rect id="矩形_1117" data-name="矩形 1117" class="cls-3" width="6.842" height="122.393" transform="translate(43.968 1536.825)"/>
      <rect id="矩形_1118" data-name="矩形 1118" class="cls-2" width="131.142" height="10.606" rx="4.755" transform="translate(-37.396 1526.219)"/>
      <rect id="矩形_1119" data-name="矩形 1119" class="cls-4" width="24.376" height="13.599" rx="6.8" transform="translate(35.586 1632.019)"/>
      <rect id="矩形_1120" data-name="矩形 1120" class="cls-5" width="24.376" height="13.599" rx="6.8" transform="translate(35.586 1645.618)"/>
      <rect id="矩形_1121" data-name="矩形 1121" class="cls-5" width="24.376" height="13.599" rx="6.8" transform="translate(-2.603 1645.618)"/>
      <rect id="矩形_1122" data-name="矩形 1122" class="cls-4" width="24.376" height="13.599" rx="6.8" transform="translate(35.586 1604.821)"/>
      <rect id="矩形_1123" data-name="矩形 1123" class="cls-5" width="24.376" height="13.599" rx="6.8" transform="translate(35.586 1618.42)"/>
      <rect id="矩形_1124" data-name="矩形 1124" class="cls-4" width="24.376" height="13.599" rx="6.8" transform="translate(35.586 1577.622)"/>
      <rect id="矩形_1125" data-name="矩形 1125" class="cls-5" width="24.376" height="13.599" rx="6.8" transform="translate(35.586 1591.222)"/>
      <text id="个位" class="cls-6" transform="translate(34.172 1675.146)"><tspan x="0" y="0">个位</tspan></text>
      <text id="十位" class="cls-6" transform="translate(-2.603 1675.146)"><tspan x="0" y="0">十位</tspan></text>
    </g>
  </g>
</svg>
