<svg xmlns="http://www.w3.org/2000/svg" width="185.362" height="188.036" viewBox="0 0 185.362 188.036">
  <defs>
    <style>
      .cls-1 {
        fill: #ffeec2;
      }

      .cls-2 {
        fill: #db9469;
      }

      .cls-3 {
        fill: #b86f42;
      }

      .cls-4 {
        fill: #61bfff;
      }

      .cls-5 {
        fill: #ff6969;
      }

      .cls-6 {
        fill: #fff;
        font-size: 12px;
        font-family: MicrosoftYaHei-Bold, Microsoft YaHei;
        font-weight: 700;
      }
    </style>
  </defs>
  <g id="组_3475" data-name="组 3475" transform="translate(-227.658 -352.137)">
    <rect id="矩形_1057" data-name="矩形 1057" class="cls-1" width="185.362" height="188.036" rx="11.982" transform="translate(227.658 352.137)"/>
    <g id="组_3474" data-name="组 3474">
      <rect id="矩形_1058" data-name="矩形 1058" class="cls-2" width="119.22" height="21.975" rx="3.187" transform="translate(260.728 499.259)"/>
      <rect id="矩形_1059" data-name="矩形 1059" class="cls-3" width="6.22" height="111.266" transform="translate(300.328 387.994)"/>
      <rect id="矩形_1060" data-name="矩形 1060" class="cls-3" width="6.22" height="111.266" transform="translate(334.695 387.994)"/>
      <rect id="矩形_1061" data-name="矩形 1061" class="cls-2" width="119.22" height="9.641" rx="4.323" transform="translate(260.728 378.352)"/>
      <rect id="矩形_1062" data-name="矩形 1062" class="cls-4" width="22.16" height="12.363" rx="6.181" transform="translate(327.076 474.534)"/>
      <rect id="矩形_1063" data-name="矩形 1063" class="cls-5" width="22.16" height="12.363" rx="6.181" transform="translate(327.076 486.897)"/>
      <rect id="矩形_1064" data-name="矩形 1064" class="cls-5" width="22.16" height="12.363" rx="6.181" transform="translate(292.358 486.897)"/>
      <rect id="矩形_1065" data-name="矩形 1065" class="cls-4" width="22.16" height="12.363" rx="6.181" transform="translate(327.076 449.808)"/>
      <rect id="矩形_1066" data-name="矩形 1066" class="cls-5" width="22.16" height="12.363" rx="6.181" transform="translate(327.076 462.171)"/>
      <rect id="矩形_1067" data-name="矩形 1067" class="cls-4" width="22.16" height="12.363" rx="6.181" transform="translate(327.076 425.082)"/>
      <rect id="矩形_1068" data-name="矩形 1068" class="cls-5" width="22.16" height="12.363" rx="6.181" transform="translate(327.076 437.445)"/>
      <text id="个位" class="cls-6" transform="translate(325.791 513.74)"><tspan x="0" y="0">个位</tspan></text>
      <text id="十位" class="cls-6" transform="translate(292.359 513.74)"><tspan x="0" y="0">十位</tspan></text>
    </g>
  </g>
</svg>
