<svg xmlns="http://www.w3.org/2000/svg" xmlns:xlink="http://www.w3.org/1999/xlink" width="376.573" height="411.607" viewBox="0 0 376.573 411.607">
  <defs>
    <style>
      .cls-1 {
        stroke: #fff;
        stroke-miterlimit: 10;
        stroke-width: 5.559px;
        stroke-dasharray: 13.342;
        fill: url(#linear-gradient);
      }

      .cls-2 {
        fill: #db9469;
      }

      .cls-3 {
        fill: #b86f42;
      }

      .cls-4 {
        fill: #7e380c;
      }

      .cls-5 {
        fill: #854c2b;
      }

      .cls-6 {
        stroke: none;
      }

      .cls-7 {
        fill: none;
      }
    </style>
    <linearGradient id="linear-gradient" y1="0.5" x2="1" y2="0.5" gradientUnits="objectBoundingBox">
      <stop offset="0" stop-color="#fff" stop-opacity="0.4"/>
      <stop offset="1" stop-color="#fff" stop-opacity="0.4"/>
    </linearGradient>
  </defs>
  <g id="组_6999" data-name="组 6999" transform="translate(-452 -26.717)">
    <g id="组_4966" data-name="组 4966" transform="translate(452 26.717)">
      <g id="矩形_1195" data-name="矩形 1195" class="cls-1" transform="translate(0 0)">
        <rect class="cls-6" width="376.573" height="360.496" rx="18.645"/>
        <rect class="cls-7" x="2.779" y="2.779" width="371.014" height="354.937" rx="15.865"/>
      </g>
      <g id="组_3519" data-name="组 3519" transform="translate(58.83 30.012)">
        <rect id="矩形_1196" data-name="矩形 1196" class="cls-2" width="258.911" height="47.724" rx="5.345" transform="translate(0 262.576)"/>
        <rect id="矩形_1197" data-name="矩形 1197" class="cls-3" width="13.509" height="241.637" transform="translate(86 20.939)"/>
        <rect id="矩形_1198" data-name="矩形 1198" class="cls-3" width="13.509" height="241.637" transform="translate(160.635 20.939)"/>
        <rect id="矩形_1199" data-name="矩形 1199" class="cls-2" width="258.911" height="20.939" rx="7.251"/>
      </g>
      <path id="路径_9187" data-name="路径 9187" class="cls-4" d="M10.984-7.118h3.894v15.5H10.984Zm4.352-9.264-.433.713a27.63,27.63,0,0,0,10.74,9.7q-1.476,1.985-2.418,3.436A26.111,26.111,0,0,1,12.969-12.31q-3.181,5.5-10.307,10.1Q1.924-3.377.295-5.566a31.3,31.3,0,0,0,11.1-10.816Zm19.087,3.843h6.719q-.573-1.489-1.4-3.283l3.665-.993q.942,1.909,1.731,3.741l-2.011.534h7.711v3.283H34.423Zm-2.9-4.072,3.258.993q-.993,2.71-2.011,5.141V8.483h-3.41V-3.39Q28.4-1.672,27.424-.17,27.042-2,26.3-4.522A63.043,63.043,0,0,0,31.522-16.611ZM33.888,4h8.564A103.234,103.234,0,0,0,46.028-8.34l4,1.12Q49.413-5.566,46.079,4H51.7V7.287H33.888Zm4.606-12.19q.967,2.57,3.41,9.747L38.419,2.68q-1.781-6.133-3.13-9.824Z" transform="translate(203.003 321.261)"/>
      <path id="路径_9188" data-name="路径 9188" class="cls-4" d="M.55-7.958H10.832v-8.653H14.9v8.653H25.186v3.614H14.9V8.3H10.832V-4.344H.55Zm33.8-4.581h6.719q-.573-1.489-1.4-3.283l3.665-.993q.942,1.909,1.731,3.741l-2.011.534h7.711v3.283H34.348Zm-2.9-4.072,3.258.993q-.993,2.71-2.011,5.141V8.483h-3.41V-3.39Q28.329-1.672,27.349-.17,26.967-2,26.229-4.522A63.043,63.043,0,0,0,31.446-16.611ZM33.813,4h8.564A103.234,103.234,0,0,0,45.953-8.34l4,1.12Q49.337-5.566,46,4h5.624V7.287H33.813ZM38.42-8.187q.967,2.57,3.41,9.747L38.343,2.68q-1.781-6.133-3.13-9.824Z" transform="translate(127.685 321.261)"/>
    </g>
    <path id="路径_25655" data-name="路径 25655" class="cls-5" d="M8.128-15.66h9.014V-17H9.809v-2.628h7.334v-1.345H9.106v-2.628h8.036V-26.05h4.37v2.445H30.1v2.628H21.512v1.345h7.761V-17H21.512v1.345h9.32v2.628H8.128ZM4.584-25.714q2.108,2.75,3.942,5.592L4.95-17.983a61.51,61.51,0,0,0-3.667-5.806ZM9.075-5.21Q9.2-2.46,9.442-.5A29.957,29.957,0,0,0,4.37,3.835L2.17.84a4,4,0,0,0,.825-2.567v-9.9H.489V-15.6H6.845V-3.59Q7.761-4.232,9.075-5.21Zm5.347,9.167H10.328V-11.871H28.571V-.26a4.423,4.423,0,0,1-.84,2.9,3.347,3.347,0,0,1-2.391,1.146q-1.551.138-6.3.168Q18.7,2.551,18.12.718,22,.9,22.765.9q1.711,0,1.711-1.5v-.4H14.423ZM24.476-9H14.423v1.467H24.476ZM14.423-3.529H24.476V-5H14.423ZM34.107-22.78h8.525a32.712,32.712,0,0,0,1.161-3.453l4.614.336q-.413,1.589-.947,3.117h15.8v4.064H45.81a40.188,40.188,0,0,1-4.4,7.227V4.079H37.315V-6.845q-1.131,1.1-2.353,2.154-.886-2.781-1.711-4.736a35.668,35.668,0,0,0,7.471-9.289H34.107Zm8.4,21.39h8.311V-8.235H44.16v-4.034h6.661v-5.5h4.37v5.5h6.753v4.034H55.191V-1.39h8.128V2.643H42.51ZM71.483-26.08q2.383,3.208,4.034,5.684l-3.911,2.353q-1.5-2.689-3.7-5.989Zm4.8,9.32h7.761V-26.05h4.584v9.289h7.823v4.095H88.626V4.14H84.042V-12.666H76.281Zm1.5,10.206q.244,2.842.519,4.522a45.554,45.554,0,0,0-7.456,5.561L68.58.535a3.9,3.9,0,0,0,.764-2.567v-9.809H66.227v-3.972h7.181v12.07Q74.661-4.477,77.778-6.554ZM99.631-20h2.383a23.766,23.766,0,0,0-2.17-3.483l2.75-1.711q.947,1.131,2.567,3.545L102.412-20h3.422v-5.989h3.881V-20h3.208l-2.536-1.65a28.579,28.579,0,0,0,2.567-3.636l2.872,1.711A27.787,27.787,0,0,1,113.29-20h1.772v3.117h-5.347v2.139l1.039-1.406q1.91,1.024,3.621,2.017A51.71,51.71,0,0,0,118.7-26.141l4.186.4q-.611,2.368-1.3,4.522h7.654v3.728H128a34.117,34.117,0,0,1-3.438,13.308,18.492,18.492,0,0,0,4.8,3.927A24.533,24.533,0,0,0,126.7,3.8a19.33,19.33,0,0,1-4.629-4.339,20.8,20.8,0,0,1-5.852,4.8,27.34,27.34,0,0,0-2.735-3.3l-1.085,1.8q-1.833-1.054-4-2.139A22.282,22.282,0,0,1,100.4,3.8,26.093,26.093,0,0,0,98.776.046,21.751,21.751,0,0,0,104.4-1.238q-2.108-.932-4.461-1.895A34.682,34.682,0,0,0,101.8-6.157H99.3V-9.274h4.018a25.473,25.473,0,0,0,.871-2.414l1.65.153v-2.933a26.583,26.583,0,0,1-5.684,4.431A25.984,25.984,0,0,0,98.715-13.7a19.967,19.967,0,0,0,5.485-3.178H99.631Zm20.32,3.377a29.705,29.705,0,0,0,2.139,8.51,26.8,26.8,0,0,0,2.17-9.381h-3.972Q120.135-17.051,119.952-16.623Zm-10.237,5.791h-1.543q-.351.749-.779,1.558h7.12v2.842a17.61,17.61,0,0,1-2.979,4.415l3.04,1.207-.611.993a19.014,19.014,0,0,0,5.76-4.553,29.3,29.3,0,0,1-2.292-6.875q-.535.963-1.085,1.849a29.937,29.937,0,0,0-1.635-2.521l-.9,1.36q-1.895-1.283-4.095-2.6Zm-4.889,6.264L108-3.377a10.274,10.274,0,0,0,2.261-2.781h-4.538Zm28.943-20.168h11.978v8.617H133.769Zm8.25,5.5v-2.383H137.5v2.383Zm6.111-5.5h11.948v8.617H148.13Zm8.22,5.5v-2.383h-4.461v2.383ZM148.1,3.9V-6h6.356q-5.072-1.115-7.548-3.7Q144.8-7.166,138.734-6h6.982V3.957h-3.545V2.8h-4.859V3.957h-3.545v-9.32q-.657.061-1.344.092a21.785,21.785,0,0,0-.642-3.117q9.412-.244,11.382-2.628H132.18v-3.117h12.452a12.963,12.963,0,0,0,.2-1.528h4.278q-.076.81-.214,1.528h4.125l-.489-1.192,3.911-.489.7,1.681h4.614v3.117H149.735q3.254,2.521,12.391,2.658a30.984,30.984,0,0,0-.794,3.147q-.642-.015-1.253-.061V3.957h-3.545V2.8h-4.889V3.9Zm8.434-6.784h-4.889V-.321h4.889Zm-14.362,0h-4.859V-.321h4.859ZM165-1.757H176.34V-25.805h4.95v8.464H192.6v4.37H181.29V-1.757h13.292V2.551H165Zm60.905-4.4L220.53-3.346A22.572,22.572,0,0,0,227.8-.535q-1.558,1.956-2.781,3.789a25.226,25.226,0,0,1-9.045-4.935Q215.9.443,215.947,1.6a102.677,102.677,0,0,0-9.931,2.72L204.274.84a3.868,3.868,0,0,0,.856-2.811v-.581a52.622,52.622,0,0,1-6.417,3.911q-.7-2.353-1.436-4.247a35.788,35.788,0,0,0,9.656-6.356h-9.259v-3.422h12.712v-2.017H200V-18.1h10.389v-2.017H198.713v-3.422h11.673v-2.628h4.309v2.628h11.795v3.422H214.694V-18.1h10.359v3.422H214.694v2.017h12.773v3.422H223.6Zm-8.388.443a59.644,59.644,0,0,0,5.256-3.529H214.77A17.726,17.726,0,0,0,217.521-5.714Zm-6.325-2.2q-.947,1.039-2,2.032V-.81l5.9-1.7A20.021,20.021,0,0,1,211.2-7.914Zm22.327-16.363h23.957v4.339H233.522Zm-2.75,8.342h29.335V-11.6H248.312V-1.482a5.6,5.6,0,0,1-.886,3.583,4.129,4.129,0,0,1-2.147,1.375,36.154,36.154,0,0,1-6.47.328q-.519-2.628-1.039-4.584a38.567,38.567,0,0,0,3.881.244q2.047,0,2.047-1.65V-11.6H230.772Zm6.02,5.653L240.734-8.2A95.851,95.851,0,0,1,233.8,1.726Q232.27.474,230.192-.963A65.437,65.437,0,0,0,236.792-10.282Zm16.776.153q3.606,4.37,7.089,9.136-1.65,1.069-3.972,2.658-2.75-4.492-6.509-9.534Zm20.744-14.2V-4.834a12.081,12.081,0,0,0,.193,2.8,1.816,1.816,0,0,0,.809.993,3.825,3.825,0,0,0,1.969.387h.545V0H265.277V-.65h.633A4.9,4.9,0,0,0,268.089-1a1.8,1.8,0,0,0,.879-.967,10.692,10.692,0,0,0,.229-2.865V-17.191a7.8,7.8,0,0,0-.158-2.065,1.494,1.494,0,0,0-.589-.7,1.736,1.736,0,0,0-.993-.29,5.639,5.639,0,0,0-2.18.563l-.316-.633,8.771-4.008Zm13.524.492H299L297.222-19.3h-9.387l-.9,2.373Q293-16.7,296.273-13.9a7.242,7.242,0,0,1,2.689,5.73,8.319,8.319,0,0,1-1.248,4.3A8.314,8.314,0,0,1,294.2-.642,10.966,10.966,0,0,1,289.224.492,7.792,7.792,0,0,1,284.742-.6a2.175,2.175,0,0,1-1.09-1.758,1.849,1.849,0,0,1,.571-1.336,1.807,1.807,0,0,1,1.327-.58,3.72,3.72,0,0,1,1.389.281,14.782,14.782,0,0,1,2.408,1.477,8.617,8.617,0,0,0,1.846,1.02,3.387,3.387,0,0,0,1.23.211,3.27,3.27,0,0,0,2.452-1.055,3.529,3.529,0,0,0,1.011-2.531A5.765,5.765,0,0,0,292.793-9.9a14.486,14.486,0,0,0-7.8-1.934q-.475,0-1.424.018ZM312.23-.336a4.111,4.111,0,0,1-1.276,3.1,4.058,4.058,0,0,1-2.88,1.222A4.2,4.2,0,0,1,304.98,2.7,4.168,4.168,0,0,1,303.7-.336a4.04,4.04,0,0,1,1.268-3.017A4.194,4.194,0,0,1,308-4.584a4.149,4.149,0,0,1,2.964,1.215A4.027,4.027,0,0,1,312.23-.336Zm-4.217,1.5a1.409,1.409,0,0,0,1.024-.42,1.372,1.372,0,0,0,.428-1.016,1.379,1.379,0,0,0-.458-1.1,1.582,1.582,0,0,0-1.069-.4,1.3,1.3,0,0,0-1.024.451,1.574,1.574,0,0,0-.4,1.077,1.406,1.406,0,0,0,.4.97A1.414,1.414,0,0,0,308.013,1.161Z" transform="translate(483.511 434)"/>
  </g>
</svg>
