<svg xmlns="http://www.w3.org/2000/svg" width="89.303" height="151.724" viewBox="0 0 89.303 151.724">
  <defs>
    <style>
      .cls-1 {
        fill: #995353;
      }

      .cls-2 {
        fill: #ffce54;
      }

      .cls-3 {
        fill: #7f4545;
      }

      .cls-4, .cls-5 {
        fill: none;
        stroke: #fff;
        stroke-linecap: round;
        stroke-width: 2.091px;
      }

      .cls-4 {
        stroke-miterlimit: 10;
      }

      .cls-5 {
        stroke-linejoin: round;
      }
    </style>
  </defs>
  <g id="组_3545" data-name="组 3545" transform="translate(-580.177 -1294.348)">
    <g id="组_3534" data-name="组 3534">
      <path id="路径_9162" data-name="路径 9162" class="cls-1" d="M605.633,1439.309l22.391-117.581a6.806,6.806,0,0,1,7.959-5.413l2.49.475a6.805,6.805,0,0,1,5.412,7.958l-22.106,116.084Z"/>
      <ellipse id="椭圆_1372" data-name="椭圆 1372" class="cls-2" cx="8.073" cy="6.005" rx="8.073" ry="6.005" transform="translate(605.633 1434.063)"/>
    </g>
    <g id="组_3535" data-name="组 3535">
      <path id="路径_9163" data-name="路径 9163" class="cls-3" d="M621.779,1439.309l22.391-117.581a6.806,6.806,0,0,1,7.959-5.413l2.49.475a6.805,6.805,0,0,1,5.412,7.958l-22.106,116.084Z"/>
      <ellipse id="椭圆_1373" data-name="椭圆 1373" class="cls-2" cx="8.073" cy="6.005" rx="8.073" ry="6.005" transform="translate(621.779 1434.063)"/>
    </g>
    <g id="组_3536" data-name="组 3536">
      <path id="路径_9164" data-name="路径 9164" class="cls-3" d="M589.086,1439.309l22.392-117.581a6.805,6.805,0,0,1,7.958-5.413l2.491.475a6.805,6.805,0,0,1,5.412,7.958l-22.107,116.084Z"/>
      <ellipse id="椭圆_1374" data-name="椭圆 1374" class="cls-2" cx="8.073" cy="6.005" rx="8.073" ry="6.005" transform="translate(589.086 1434.063)"/>
    </g>
    <g id="组_3537" data-name="组 3537">
      <path id="路径_9165" data-name="路径 9165" class="cls-1" d="M596.724,1428.427l22.391-117.581a6.805,6.805,0,0,1,7.958-5.413l2.491.475a6.805,6.805,0,0,1,5.412,7.958L612.87,1429.95Z"/>
      <ellipse id="椭圆_1375" data-name="椭圆 1375" class="cls-2" cx="8.073" cy="6.005" rx="8.073" ry="6.005" transform="translate(596.724 1423.181)"/>
    </g>
    <g id="组_3538" data-name="组 3538">
      <path id="路径_9166" data-name="路径 9166" class="cls-1" d="M631.106,1428.427,653.5,1310.846a6.805,6.805,0,0,1,7.958-5.413l2.49.475a6.805,6.805,0,0,1,5.413,7.958L647.252,1429.95Z"/>
      <ellipse id="椭圆_1376" data-name="椭圆 1376" class="cls-2" cx="8.073" cy="6.005" rx="8.073" ry="6.005" transform="translate(631.106 1423.181)"/>
    </g>
    <g id="组_3539" data-name="组 3539">
      <path id="路径_9167" data-name="路径 9167" class="cls-3" d="M613.915,1428.427l22.391-117.581a6.806,6.806,0,0,1,7.959-5.413l2.49.475a6.805,6.805,0,0,1,5.412,7.958L630.061,1429.95Z"/>
      <ellipse id="椭圆_1377" data-name="椭圆 1377" class="cls-2" cx="8.073" cy="6.005" rx="8.073" ry="6.005" transform="translate(613.915 1423.181)"/>
    </g>
    <g id="组_3540" data-name="组 3540">
      <path id="路径_9168" data-name="路径 9168" class="cls-1" d="M580.177,1428.427l22.392-117.581a6.805,6.805,0,0,1,7.958-5.413l2.49.475a6.805,6.805,0,0,1,5.413,7.958L596.323,1429.95Z"/>
      <ellipse id="椭圆_1378" data-name="椭圆 1378" class="cls-2" cx="8.073" cy="6.005" rx="8.073" ry="6.005" transform="translate(580.177 1423.181)"/>
    </g>
    <g id="组_3541" data-name="组 3541">
      <path id="路径_9169" data-name="路径 9169" class="cls-1" d="M605.842,1417.463l22.391-117.582a6.806,6.806,0,0,1,7.959-5.412l2.49.475a6.805,6.805,0,0,1,5.412,7.958l-22.106,116.084Z"/>
      <ellipse id="椭圆_1379" data-name="椭圆 1379" class="cls-2" cx="8.073" cy="6.005" rx="8.073" ry="6.005" transform="translate(605.842 1412.217)"/>
    </g>
    <g id="组_3542" data-name="组 3542">
      <path id="路径_9170" data-name="路径 9170" class="cls-3" d="M622.2,1417.776l22.391-117.581a6.806,6.806,0,0,1,7.959-5.412l2.49.474a6.805,6.805,0,0,1,5.412,7.958L638.343,1419.3Z"/>
      <ellipse id="椭圆_1380" data-name="椭圆 1380" class="cls-2" cx="8.073" cy="6.005" rx="8.073" ry="6.005" transform="translate(622.197 1412.53)"/>
    </g>
    <g id="组_3543" data-name="组 3543">
      <path id="路径_9171" data-name="路径 9171" class="cls-3" d="M589.295,1417.672l22.392-117.582a6.805,6.805,0,0,1,7.958-5.412l2.491.475a6.805,6.805,0,0,1,5.412,7.958l-22.107,116.084Z"/>
      <ellipse id="椭圆_1381" data-name="椭圆 1381" class="cls-2" cx="8.073" cy="6.005" rx="8.073" ry="6.005" transform="translate(589.295 1412.426)"/>
    </g>
    <g id="组_3544" data-name="组 3544">
      <path id="路径_9172" data-name="路径 9172" class="cls-4" d="M592.243,1365.069s27.313-23.684,66.548,4.288"/>
      <path id="路径_9173" data-name="路径 9173" class="cls-5" d="M623.88,1355.707s-.113-10.167-4.254-9.364S612.465,1351.65,623.88,1355.707Z"/>
      <path id="路径_9174" data-name="路径 9174" class="cls-5" d="M624.521,1355.707s.113-10.167,4.254-9.364S635.935,1351.65,624.521,1355.707Z"/>
    </g>
  </g>
</svg>
