<svg xmlns="http://www.w3.org/2000/svg" width="48.704" height="140.986" viewBox="0 0 48.704 140.986">
  <defs>
    <style>
      .cls-1, .cls-2 {
        fill: #7f4545;
      }

      .cls-1 {
        stroke-linejoin: round;
      }

      .cls-3 {
        fill: #ffce54;
      }

      .cls-4, .cls-5 {
        stroke: none;
      }

      .cls-5 {
        fill: #fff;
      }
    </style>
  </defs>
  <g id="组_3555" data-name="组 3555" transform="translate(-748.889 -1521.467)">
    <g id="路径_9185" data-name="路径 9185" class="cls-1">
      <path class="cls-4" d="M 762.031005859375 1659.953002929688 C 759.3226318359375 1659.953002929688 756.7482299804688 1659.147705078125 754.7820434570313 1657.685424804688 C 753.7545166015625 1656.921142578125 752.938232421875 1656.014404296875 752.3557739257813 1654.990356445313 C 751.9764404296875 1654.3232421875 751.7077026367188 1653.628051757813 751.5513916015625 1652.911376953125 L 750.921875 1652.8486328125 L 751.43310546875 1650.164306640625 L 774.01611328125 1531.580322265625 C 774.8560791015625 1527.168701171875 778.7213745117188 1523.966552734375 783.2068481445313 1523.966552734375 C 783.7937622070313 1523.966552734375 784.385498046875 1524.022583007813 784.9656372070313 1524.133178710938 L 787.478271484375 1524.6123046875 C 789.9346923828125 1525.079956054688 792.0623779296875 1526.476440429688 793.4686889648438 1528.544555664063 C 794.8748779296875 1530.612548828125 795.3916625976563 1533.1044921875 794.9238891601563 1535.5615234375 L 772.6288452148438 1652.636596679688 L 772.2022094726563 1654.876831054688 L 771.7846069335938 1654.836547851563 C 771.1248168945313 1656.061645507813 770.1129150390625 1657.14990234375 768.8111572265625 1658.011108398438 C 766.9183959960938 1659.263305664063 764.510498046875 1659.953002929688 762.031005859375 1659.953002929688 Z"/>
      <path class="cls-5" d="M 783.2068481445313 1526.466552734375 C 779.9769897460938 1526.466552734375 777.0984497070313 1528.757690429688 776.4719848632813 1532.047973632813 L 753.8889770507813 1650.631958007813 L 753.9600219726563 1650.639038085938 C 753.9180297851563 1650.887939453125 753.8889770507813 1651.140014648438 753.8889770507813 1651.39697265625 C 753.8889770507813 1654.741943359375 757.5349731445313 1657.453002929688 762.031005859375 1657.453002929688 C 766.1790161132813 1657.453002929688 769.594970703125 1655.14501953125 770.1010131835938 1652.161987304688 L 770.1729736328125 1652.1689453125 L 792.468017578125 1535.093994140625 C 793.177001953125 1531.369995117188 790.7340087890625 1527.776977539063 787.010009765625 1527.067993164063 L 784.4979858398438 1526.588989257813 C 784.0643920898438 1526.506469726563 783.632568359375 1526.466674804688 783.2068481445313 1526.466552734375 M 783.206787109375 1521.466552734375 L 783.2068481445313 1521.466552734375 C 783.9502563476563 1521.466552734375 784.6993408203125 1521.537475585938 785.4332885742188 1521.67724609375 L 787.946533203125 1522.156494140625 C 791.0582885742188 1522.748901367188 793.754150390625 1524.518432617188 795.5360107421875 1527.138793945313 C 797.317626953125 1529.7587890625 797.9724731445313 1532.916137695313 797.3798217773438 1536.029052734375 L 775.084716796875 1653.104248046875 C 775.013671875 1653.477172851563 774.9026489257813 1653.833129882813 774.7567138671875 1654.168212890625 C 774.0507202148438 1656.519165039063 772.4615478515625 1658.593627929688 770.1906127929688 1660.096069335938 C 767.893310546875 1661.615966796875 764.9954833984375 1662.453002929688 762.031005859375 1662.453002929688 C 758.788818359375 1662.453002929688 755.6845703125 1661.472290039063 753.2901000976563 1659.69140625 C 750.4931030273438 1657.611206054688 748.8889770507813 1654.588012695313 748.8889770507813 1651.39697265625 C 748.8889770507813 1651.253784179688 748.8926391601563 1651.109619140625 748.8999633789063 1650.9638671875 C 748.8720092773438 1650.543701171875 748.89697265625 1650.118041992188 748.9772338867188 1649.696533203125 L 771.5602416992188 1531.112548828125 C 772.6244506835938 1525.5234375 777.5225219726563 1521.466552734375 783.206787109375 1521.466552734375 Z"/>
    </g>
    <g id="组_3554" data-name="组 3554">
      <path id="路径_9186" data-name="路径 9186" class="cls-2" d="M753.889,1650.632l22.583-118.584a6.864,6.864,0,0,1,8.026-5.459l2.512.479a6.863,6.863,0,0,1,5.458,8.026l-22.3,117.075Z"/>
      <ellipse id="椭圆_1390" data-name="椭圆 1390" class="cls-3" cx="8.142" cy="6.056" rx="8.142" ry="6.056" transform="translate(753.889 1645.341)"/>
    </g>
  </g>
</svg>
