<svg xmlns="http://www.w3.org/2000/svg" width="99.306" height="161.724" viewBox="0 0 99.306 161.724">
  <defs>
    <style>
      .cls-1, .cls-2, .cls-3 {
        fill: #7f4545;
      }

      .cls-1, .cls-6, .cls-7 {
        stroke: #fff;
      }

      .cls-1, .cls-6 {
        stroke-miterlimit: 10;
      }

      .cls-1 {
        stroke-width: 5px;
      }

      .cls-2, .cls-7 {
        stroke-linejoin: round;
      }

      .cls-4 {
        fill: #ffce54;
      }

      .cls-5 {
        fill: #995353;
      }

      .cls-6, .cls-7, .cls-9 {
        fill: none;
      }

      .cls-6, .cls-7 {
        stroke-linecap: round;
        stroke-width: 2.091px;
      }

      .cls-10, .cls-8 {
        stroke: none;
      }

      .cls-10 {
        fill: #fff;
      }
    </style>
  </defs>
  <g id="组_3551" data-name="组 3551" transform="translate(-575.177 -1496.682)">
    <g id="组_3547" data-name="组 3547">
      <g id="组_3546" data-name="组 3546">
        <g id="椭圆_1382" data-name="椭圆 1382" class="cls-1" transform="translate(605.633 1641.396)">
          <ellipse class="cls-8" cx="8.073" cy="6.005" rx="8.073" ry="6.005"/>
          <ellipse class="cls-9" cx="8.073" cy="6.005" rx="10.573" ry="8.505"/>
        </g>
        <g id="路径_9175" data-name="路径 9175" class="cls-2">
          <path class="cls-8" d="M 629.8519897460938 1655.906005859375 C 627.1615600585938 1655.906005859375 624.6043090820313 1655.10595703125 622.6513061523438 1653.6533203125 C 621.6301879882813 1652.893798828125 620.8189697265625 1651.992431640625 620.2400512695313 1650.974365234375 C 619.8704223632813 1650.32421875 619.6064453125 1649.647094726563 619.4497680664063 1648.949340820313 L 618.8056030273438 1648.893188476563 L 619.3231201171875 1646.17529296875 L 622.6143188476563 1628.89013671875 L 621.7532348632813 1628.808959960938 L 611.6452026367188 1627.855590820313 L 607.6878662109375 1648.6337890625 L 607.2664794921875 1650.84619140625 L 606.8543090820313 1650.8115234375 C 606.1985473632813 1652.033325195313 605.1907958984375 1653.118530273438 603.8935546875 1653.976806640625 C 602.0132446289063 1655.220947265625 599.6215209960938 1655.906005859375 597.1589965820313 1655.906005859375 C 594.468994140625 1655.906005859375 591.911865234375 1655.10595703125 589.9588012695313 1653.653442382813 C 588.9376220703125 1652.893920898438 588.1262817382813 1651.992553710938 587.5473022460938 1650.974487304688 C 587.1776123046875 1650.324340820313 586.9135131835938 1649.647094726563 586.7568359375 1648.949340820313 L 586.1119995117188 1648.89306640625 L 586.6302490234375 1646.1748046875 L 586.86328125 1644.952514648438 C 584.690185546875 1644.7265625 582.6637573242188 1643.971801757813 581.0498046875 1642.771484375 C 580.0286254882813 1642.011962890625 579.21728515625 1641.110595703125 578.6383056640625 1640.092529296875 C 578.269287109375 1639.443603515625 578.0054931640625 1638.767700195313 577.8486938476563 1638.071166992188 L 577.20263671875 1638.015991210938 L 577.7211303710938 1635.293334960938 L 600.1130981445313 1517.71240234375 C 600.9082641601563 1513.53515625 604.4330444335938 1510.448974609375 608.6195678710938 1510.166748046875 L 609.231201171875 1506.956176757813 C 610.06591796875 1502.572509765625 613.9070434570313 1499.390625 618.3645629882813 1499.390625 C 618.9478759765625 1499.390625 619.5360107421875 1499.4462890625 620.1126708984375 1499.55615234375 L 622.6043701171875 1500.031372070313 C 624.5377807617188 1500.3994140625 626.2664184570313 1501.346801757813 627.5962524414063 1502.746215820313 C 629.3148803710938 1500.557373046875 631.979736328125 1499.181640625 634.9111938476563 1499.181640625 C 635.4945678710938 1499.181640625 636.0828247070313 1499.2373046875 636.6595458984375 1499.347045898438 L 639.1504516601563 1499.822265625 C 641.190185546875 1500.210083007813 642.9555053710938 1501.24609375 644.2656860351563 1502.681030273438 C 645.9857177734375 1500.7138671875 648.508056640625 1499.49560546875 651.2662353515625 1499.49560546875 C 651.8495483398438 1499.49560546875 652.4378051757813 1499.55126953125 653.0145263671875 1499.661010742188 L 655.5045166015625 1500.135009765625 C 657.9462280273438 1500.599975585938 660.0606689453125 1501.987915039063 661.4583740234375 1504.043212890625 C 662.7601928710938 1505.95751953125 663.2951049804688 1508.2373046875 662.9867553710938 1510.513916015625 L 664.4144287109375 1510.786254882813 C 666.8555297851563 1511.250854492188 668.9702758789063 1512.638793945313 670.3681640625 1514.694091796875 C 671.7660522460938 1516.749389648438 672.2798461914063 1519.225952148438 671.8148803710938 1521.667602539063 L 649.7078857421875 1637.751708984375 L 649.2857666015625 1639.968139648438 L 648.8726196289063 1639.9326171875 C 648.2168579101563 1641.153198242188 647.209716796875 1642.2373046875 645.91357421875 1643.094848632813 C 644.526611328125 1644.012451171875 642.8615112304688 1644.6259765625 641.0949096679688 1644.884765625 L 640.380859375 1648.6337890625 L 639.9594116210938 1650.84619140625 L 639.5469360351563 1650.8115234375 C 638.8909301757813 1652.033447265625 637.8831787109375 1653.118530273438 636.5858154296875 1653.976806640625 C 634.7054443359375 1655.220947265625 632.3140258789063 1655.906005859375 629.8519897460938 1655.906005859375 Z"/>
          <path class="cls-10" d="M 634.9111938476563 1501.681640625 C 631.707763671875 1501.681640625 628.8541259765625 1503.952880859375 628.2329711914063 1507.214965820313 L 624.77099609375 1525.39697265625 C 624.75 1525.381958007813 624.72998046875 1525.366943359375 624.708984375 1525.35205078125 L 627.5479736328125 1510.444946289063 C 628.2509765625 1506.753051757813 625.8280029296875 1503.18994140625 622.135986328125 1502.487060546875 L 619.64501953125 1502.011962890625 C 619.215087890625 1501.930053710938 618.7866821289063 1501.890625 618.3645629882813 1501.890625 C 615.1617431640625 1501.890625 612.3081665039063 1504.161987304688 611.68701171875 1507.423950195313 L 610.6640014648438 1512.7939453125 L 610.5269775390625 1512.766967773438 C 610.0970458984375 1512.68505859375 609.668701171875 1512.645629882813 609.24658203125 1512.645629882813 C 606.0438232421875 1512.645629882813 603.1901245117188 1514.917114257813 602.5689697265625 1518.180053710938 L 580.177001953125 1635.760986328125 L 580.2470092773438 1635.766967773438 C 580.2059936523438 1636.014038085938 580.177001953125 1636.264038085938 580.177001953125 1636.51904296875 C 580.177001953125 1639.836059570313 583.7919921875 1642.524047851563 588.25 1642.524047851563 C 588.8140258789063 1642.524047851563 589.364013671875 1642.47998046875 589.89501953125 1642.399047851563 L 589.0859985351563 1646.642944335938 L 589.156005859375 1646.649047851563 C 589.114990234375 1646.89599609375 589.0859985351563 1647.14599609375 589.0859985351563 1647.401000976563 C 589.0859985351563 1650.718017578125 592.7009887695313 1653.406005859375 597.1589965820313 1653.406005859375 C 601.27197265625 1653.406005859375 604.6589965820313 1651.116943359375 605.1610107421875 1648.160034179688 L 605.2319946289063 1648.166015625 L 609.614990234375 1625.152954101563 L 621.9879760742188 1626.319946289063 L 622.218017578125 1625.112060546875 L 625.8140258789063 1625.451049804688 L 621.7789916992188 1646.642944335938 L 621.8489990234375 1646.649047851563 C 621.8070068359375 1646.89599609375 621.7789916992188 1647.14599609375 621.7789916992188 1647.401000976563 C 621.7789916992188 1650.718017578125 625.3930053710938 1653.406005859375 629.8519897460938 1653.406005859375 C 633.9639892578125 1653.406005859375 637.3510131835938 1651.116943359375 637.85400390625 1648.160034179688 L 637.9249877929688 1648.166015625 L 639.0009765625 1642.516967773438 C 639.0609741210938 1642.517944335938 639.1190185546875 1642.524047851563 639.1790161132813 1642.524047851563 C 643.2919921875 1642.524047851563 646.6790161132813 1640.234985351563 647.1810302734375 1637.277954101563 L 647.2520141601563 1637.284057617188 L 669.3590087890625 1521.199951171875 C 670.06201171875 1517.508056640625 667.6389770507813 1513.944946289063 663.9459838867188 1513.241943359375 L 661.4559936523438 1512.766967773438 C 661.0291137695313 1512.685791015625 660.6046752929688 1512.647705078125 660.1856689453125 1512.647705078125 C 660.140380859375 1512.647705078125 660.0951538085938 1512.648193359375 660.0499877929688 1512.649047851563 L 660.448974609375 1510.548950195313 C 661.1519775390625 1506.857055664063 658.72900390625 1503.2939453125 655.0369873046875 1502.590942382813 L 652.5469970703125 1502.116943359375 C 652.116943359375 1502.035034179688 651.6884765625 1501.99560546875 651.2662353515625 1501.99560546875 C 648.062744140625 1501.99560546875 645.2091674804688 1504.266967773438 644.5880126953125 1507.529052734375 L 644.1510009765625 1509.823974609375 C 644.6060180664063 1506.281982421875 642.2369995117188 1502.953979492188 638.6820068359375 1502.277954101563 L 636.1920166015625 1501.802978515625 C 635.761962890625 1501.721069335938 635.3334350585938 1501.681640625 634.9111938476563 1501.681640625 M 634.9111938476563 1496.681640625 C 635.6509399414063 1496.681640625 636.3963623046875 1496.752075195313 637.1268920898438 1496.89111328125 L 639.618896484375 1497.366455078125 C 641.3015747070313 1497.6865234375 642.869140625 1498.358520507813 644.2339477539063 1499.326904296875 C 646.2128295898438 1497.855102539063 648.6564331054688 1496.99560546875 651.2662353515625 1496.99560546875 C 652.0059204101563 1496.99560546875 652.7514038085938 1497.066040039063 653.4818725585938 1497.205078125 L 655.9719848632813 1497.67919921875 C 659.0698852539063 1498.26904296875 661.7523803710938 1500.029907226563 663.525634765625 1502.637451171875 C 664.7238159179688 1504.399291992188 665.409912109375 1506.405029296875 665.5469360351563 1508.476318359375 C 668.36181640625 1509.178588867188 670.7899169921875 1510.869018554688 672.4353637695313 1513.2880859375 C 674.208740234375 1515.895629882813 674.860595703125 1519.037475585938 674.270751953125 1522.13525390625 L 652.1636962890625 1638.219482421875 C 652.0932006835938 1638.58984375 651.9830932617188 1638.943603515625 651.8385009765625 1639.27685546875 C 651.135986328125 1641.618286132813 649.5540161132813 1643.683959960938 647.2930297851563 1645.179809570313 C 646.0829467773438 1645.98046875 644.705322265625 1646.590576171875 643.2393798828125 1646.987426757813 L 642.836669921875 1649.1015625 C 642.7660522460938 1649.472290039063 642.6558227539063 1649.826416015625 642.5110473632813 1650.159912109375 C 641.8079833984375 1652.500732421875 640.2257690429688 1654.566284179688 637.9652709960938 1656.061767578125 C 635.6803588867188 1657.573486328125 632.799072265625 1658.406005859375 629.8519897460938 1658.406005859375 C 626.6277465820313 1658.406005859375 623.5405883789063 1657.430541992188 621.1592407226563 1655.659301757813 C 618.3755493164063 1653.588745117188 616.7789916992188 1650.57861328125 616.7789916992188 1647.401000976563 C 616.7789916992188 1647.25830078125 616.7825317382813 1647.115112304688 616.7897338867188 1646.970825195313 C 616.76220703125 1646.552001953125 616.7872314453125 1646.127685546875 616.8672485351563 1645.707763671875 L 619.6445922851563 1631.12109375 L 613.6754150390625 1630.55810546875 L 610.1436767578125 1649.101440429688 C 610.0731811523438 1649.4716796875 609.963134765625 1649.825317382813 609.8186645507813 1650.158447265625 C 609.1162109375 1652.500122070313 607.5341796875 1654.565795898438 605.2730102539063 1656.061767578125 C 602.9881591796875 1657.573486328125 600.1065673828125 1658.406005859375 597.1589965820313 1658.406005859375 C 593.9351806640625 1658.406005859375 590.8482055664063 1657.430541992188 588.466796875 1655.659423828125 C 585.6827392578125 1653.588745117188 584.0859985351563 1650.57861328125 584.0859985351563 1647.401000976563 C 584.0859985351563 1647.259521484375 584.089599609375 1647.117065429688 584.0968627929688 1646.97265625 C 584.0967407226563 1646.970336914063 584.0965576171875 1646.968017578125 584.096435546875 1646.965576171875 C 582.4302368164063 1646.50390625 580.8843994140625 1645.764038085938 579.5578002929688 1644.777465820313 C 576.7737426757813 1642.706787109375 575.177001953125 1639.696655273438 575.177001953125 1636.51904296875 C 575.177001953125 1636.377685546875 575.1806030273438 1636.235107421875 575.1878662109375 1636.0908203125 C 575.1600952148438 1635.671264648438 575.1851806640625 1635.246337890625 575.2652587890625 1634.825561523438 L 597.6572265625 1517.24462890625 C 598.5392456054688 1512.611572265625 602.0690307617188 1509.036376953125 606.4927978515625 1507.971557617188 L 606.7753295898438 1506.48828125 C 607.8342895507813 1500.927124023438 612.7083129882813 1496.890625 618.3645629882813 1496.890625 C 619.104248046875 1496.890625 619.8496704101563 1496.961059570313 620.5802001953125 1497.100219726563 L 623.07275390625 1497.575561523438 C 624.6577758789063 1497.877319335938 626.1346435546875 1498.486206054688 627.4364624023438 1499.358520507813 C 629.4878540039063 1497.676391601563 632.1032104492188 1496.681640625 634.9111938476563 1496.681640625 Z"/>
        </g>
      </g>
      <path id="路径_9176" data-name="路径 9176" class="cls-3" d="M589.295,1625.006l22.392-117.582a6.805,6.805,0,0,1,7.958-5.412l2.491.475a6.805,6.805,0,0,1,5.412,7.958l-22.107,116.084Z"/>
      <ellipse id="椭圆_1383" data-name="椭圆 1383" class="cls-4" cx="8.073" cy="6.005" rx="8.073" ry="6.005" transform="translate(589.295 1619.76)"/>
    </g>
    <path id="路径_9177" data-name="路径 9177" class="cls-5" d="M605.633,1646.643l22.391-117.582a6.806,6.806,0,0,1,7.959-5.412l2.49.475a6.805,6.805,0,0,1,5.412,7.958l-22.106,116.084Z"/>
    <g id="组_3548" data-name="组 3548">
      <path id="路径_9178" data-name="路径 9178" class="cls-5" d="M596.724,1635.761l22.391-117.581a6.805,6.805,0,0,1,7.958-5.413l2.491.475a6.805,6.805,0,0,1,5.412,7.958L612.87,1637.284Z"/>
      <ellipse id="椭圆_1384" data-name="椭圆 1384" class="cls-4" cx="8.073" cy="6.005" rx="8.073" ry="6.005" transform="translate(596.724 1630.515)"/>
    </g>
    <g id="组_3549" data-name="组 3549">
      <path id="路径_9179" data-name="路径 9179" class="cls-3" d="M613.915,1635.761l22.391-117.581a6.806,6.806,0,0,1,7.959-5.413l2.49.475a6.805,6.805,0,0,1,5.412,7.958l-22.106,116.084Z"/>
      <ellipse id="椭圆_1385" data-name="椭圆 1385" class="cls-4" cx="8.073" cy="6.005" rx="8.073" ry="6.005" transform="translate(613.915 1630.515)"/>
    </g>
    <ellipse id="椭圆_1386" data-name="椭圆 1386" class="cls-4" cx="8.073" cy="6.005" rx="8.073" ry="6.005" transform="translate(605.842 1619.55)"/>
    <ellipse id="椭圆_1387" data-name="椭圆 1387" class="cls-4" cx="8.073" cy="6.005" rx="8.073" ry="6.005" transform="translate(622.197 1619.864)"/>
    <g id="组_3550" data-name="组 3550">
      <path id="路径_9180" data-name="路径 9180" class="cls-6" d="M592.243,1572.4s27.313-23.684,66.548,4.288"/>
      <path id="路径_9181" data-name="路径 9181" class="cls-7" d="M623.88,1563.041s-.113-10.167-4.254-9.364S612.465,1558.984,623.88,1563.041Z"/>
      <path id="路径_9182" data-name="路径 9182" class="cls-7" d="M624.521,1563.041s.113-10.167,4.254-9.364S635.935,1558.984,624.521,1563.041Z"/>
    </g>
  </g>
</svg>
