<svg xmlns="http://www.w3.org/2000/svg" xmlns:xlink="http://www.w3.org/1999/xlink" width="452.573" height="411.779" viewBox="0 0 452.573 411.779">
  <defs>
    <style>
      .cls-1 {
        stroke: #fff;
        stroke-miterlimit: 10;
        stroke-width: 5.559px;
        stroke-dasharray: 13.342;
        fill: url(#linear-gradient);
      }

      .cls-2 {
        fill: #854c2b;
      }

      .cls-3 {
        stroke: none;
      }

      .cls-4 {
        fill: none;
      }
    </style>
    <linearGradient id="linear-gradient" y1="0.5" x2="1" y2="0.5" gradientUnits="objectBoundingBox">
      <stop offset="0" stop-color="#fff" stop-opacity="0.4"/>
      <stop offset="1" stop-color="#fff" stop-opacity="0.4"/>
    </linearGradient>
  </defs>
  <g id="组_12563" data-name="组 12563" transform="translate(-383.714 -26.717)">
    <g id="矩形_1195" data-name="矩形 1195" class="cls-1" transform="translate(383.714 26.717)">
      <rect class="cls-3" width="452.573" height="360.496" rx="18.645"/>
      <rect class="cls-4" x="2.779" y="2.779" width="447.014" height="354.937" rx="15.865"/>
    </g>
    <path id="路径_25658" data-name="路径 25658" class="cls-2" d="M8.128-15.66h9.014V-17H9.809v-2.628h7.334v-1.345H9.106v-2.628h8.036V-26.05h4.37v2.445H30.1v2.628H21.512v1.345h7.761V-17H21.512v1.345h9.32v2.628H8.128ZM4.584-25.714q2.108,2.75,3.942,5.592L4.95-17.983a61.51,61.51,0,0,0-3.667-5.806ZM9.075-5.21Q9.2-2.46,9.442-.5A29.957,29.957,0,0,0,4.37,3.835L2.17.84a4,4,0,0,0,.825-2.567v-9.9H.489V-15.6H6.845V-3.59Q7.761-4.232,9.075-5.21Zm5.347,9.167H10.328V-11.871H28.571V-.26a4.423,4.423,0,0,1-.84,2.9,3.347,3.347,0,0,1-2.391,1.146q-1.551.138-6.3.168Q18.7,2.551,18.12.718,22,.9,22.765.9q1.711,0,1.711-1.5v-.4H14.423ZM24.476-9H14.423v1.467H24.476ZM14.423-3.529H24.476V-5H14.423ZM61.791-.657a4.559,4.559,0,0,1-.886,3A3.891,3.891,0,0,1,58.193,3.6a41.984,41.984,0,0,1-4.805.145A42.279,42.279,0,0,0,52.166-.688Q55.313-.5,55.588-.5a1.675,1.675,0,0,0,1.925-1.864V-5.149H51.158V3.407H46.849V-5.149H40.233q-.474,6.738-2.582,9.412Q35.7,2.857,33.71,1.7q2.475-3.361,2.383-11.948V-24.644h25.7ZM40.371-16.822h6.478v-3.789H40.371Zm17.142-3.789H51.158v3.789h6.356ZM40.371-9.091h6.478V-12.88H40.371Zm10.787,0h6.356V-12.88H51.158ZM79.275-25.775h4.767V-2.643A8.234,8.234,0,0,1,83.1,1.8a3.585,3.585,0,0,1-2.414,1.688,51.632,51.632,0,0,1-6.73.26,42.118,42.118,0,0,0-1.131-4.828,38.88,38.88,0,0,0,4.278.275q2.17,0,2.17-2.536Zm11.825,6.6Q94-12.482,96.723-5.088L91.9-3.224q-2.506-7.914-5.1-14.514Zm-20.229.031,4.584,1.1q-2.231,8.189-4.736,15L66.2-4.752A141.445,141.445,0,0,0,70.872-19.144ZM124.688-4.935H120.41v1.986h7.15V.107h-7.15V4.14h-3.82V.107h-7.15V-2.949h7.15V-4.935h-4.339V-6.386A34.369,34.369,0,0,1,109.44-4.14q-1.375-1.742-2.6-3.056a16.562,16.562,0,0,0,5.684-4.614h-2.888L108.31-8.816q-.993-.917-2.078-1.864V4.14h-3.606V-8.495A40.53,40.53,0,0,1,99.784-2.7Q99.3-5.974,98.837-8.3a34.477,34.477,0,0,0,3.545-8.4H99.143v-3.85h3.483v-5.378h3.606v5.378H109.1v3.85h-2.872v2.154q1.085.611,2.383,1.39v-1.589H114.1q.29-.733.535-1.528h-4.247V-19.2h4.95q.138-.733.229-1.528h-6.1v-2.933h6.356q.061-1.146.061-2.383h4.095q-.015,1.222-.092,2.383h8.159v2.933h-8.48q-.107.779-.26,1.528h8.067v2.933h-8.816q-.244.779-.519,1.528H129.21v2.933h-5.3a12.119,12.119,0,0,0,5.607,4.034q-.978,1.5-2.139,3.545a17.655,17.655,0,0,1-2.689-1.849Zm-8.1-5.317h3.82v2.383h2.414a17.39,17.39,0,0,1-2.6-3.942h-3.5a20.173,20.173,0,0,1-2.964,3.942h2.827Zm43.671,4.095-5.378,2.811a22.572,22.572,0,0,0,7.273,2.811q-1.558,1.956-2.781,3.789a25.226,25.226,0,0,1-9.045-4.935Q150.254.443,150.3,1.6a102.677,102.677,0,0,0-9.931,2.72L138.627.84a3.868,3.868,0,0,0,.856-2.811v-.581a52.622,52.622,0,0,1-6.417,3.911q-.7-2.353-1.436-4.247a35.788,35.788,0,0,0,9.656-6.356h-9.259v-3.422h12.712v-2.017H134.349V-18.1h10.389v-2.017H133.066v-3.422h11.673v-2.628h4.309v2.628h11.795v3.422H149.047V-18.1h10.359v3.422H149.047v2.017H161.82v3.422h-3.865Zm-8.388.443a59.644,59.644,0,0,0,5.256-3.529h-8.006A17.726,17.726,0,0,0,151.874-5.714Zm-6.325-2.2q-.947,1.039-2,2.032V-.81l5.9-1.7A20.021,20.021,0,0,1,145.548-7.914Zm22.327-16.363h23.957v4.339H167.876Zm-2.75,8.342H194.46V-11.6H182.665V-1.482a5.6,5.6,0,0,1-.886,3.583,4.129,4.129,0,0,1-2.147,1.375,36.154,36.154,0,0,1-6.47.328q-.519-2.628-1.039-4.584A38.567,38.567,0,0,0,176-.535q2.047,0,2.047-1.65V-11.6H165.125Zm6.02,5.653L175.087-8.2a95.851,95.851,0,0,1-6.936,9.931Q166.623.474,164.545-.963A65.437,65.437,0,0,0,171.145-10.282Zm16.776.153q3.606,4.37,7.089,9.136-1.65,1.069-3.972,2.658-2.75-4.492-6.509-9.534ZM211.847,0H197.819V-.387q6.451-7.682,7.831-10.336a11.2,11.2,0,0,0,1.38-5.186,4.316,4.316,0,0,0-1.143-3.067,3.68,3.68,0,0,0-2.795-1.222,4.618,4.618,0,0,0-4.2,2.707l-.65-.229a9.74,9.74,0,0,1,2.883-4.992,6.755,6.755,0,0,1,4.465-1.617,6.6,6.6,0,0,1,3.3.844,6.111,6.111,0,0,1,2.338,2.312,5.566,5.566,0,0,1,.844,2.751,9.935,9.935,0,0,1-1.3,4.746q-1.775,3.252-7.752,9.07h5.15a11.762,11.762,0,0,0,2.47-.158,2.048,2.048,0,0,0,.94-.536,6.939,6.939,0,0,0,.967-1.591h.633Zm21.539-11.918a21.5,21.5,0,0,1-1,6.662,9.05,9.05,0,0,1-1.608,3.111A8.089,8.089,0,0,1,228.482-.22a5.666,5.666,0,0,1-2.795.712,5.7,5.7,0,0,1-3.111-.879A8.275,8.275,0,0,1,220.115-2.9a12.212,12.212,0,0,1-1.354-3.182,20.432,20.432,0,0,1-.756-5.555,22.343,22.343,0,0,1,1.09-7.137A8.464,8.464,0,0,1,221.82-22.9a6.172,6.172,0,0,1,3.867-1.433,6.157,6.157,0,0,1,3.876,1.415,8.157,8.157,0,0,1,2.646,3.806A21.174,21.174,0,0,1,233.386-11.918Zm-5.414-.035q0-6.258-.07-7.295a6.53,6.53,0,0,0-.844-3.3,1.7,1.7,0,0,0-1.424-.562,1.654,1.654,0,0,0-1.2.422,3.7,3.7,0,0,0-.879,2.171q-.229,1.556-.229,10.854a41.5,41.5,0,0,0,.352,6.785,3.035,3.035,0,0,0,.756,1.67,1.93,1.93,0,0,0,1.3.422,1.57,1.57,0,0,0,1.318-.562,5.567,5.567,0,0,0,.844-3.041ZM246.583-.336a4.111,4.111,0,0,1-1.276,3.1,4.058,4.058,0,0,1-2.88,1.222A4.2,4.2,0,0,1,239.333,2.7a4.168,4.168,0,0,1-1.276-3.04,4.04,4.04,0,0,1,1.268-3.017,4.194,4.194,0,0,1,3.025-1.23,4.149,4.149,0,0,1,2.964,1.215A4.027,4.027,0,0,1,246.583-.336Zm-4.217,1.5a1.409,1.409,0,0,0,1.024-.42,1.372,1.372,0,0,0,.428-1.016,1.379,1.379,0,0,0-.458-1.1,1.582,1.582,0,0,0-1.069-.4,1.3,1.3,0,0,0-1.024.451,1.574,1.574,0,0,0-.4,1.077,1.406,1.406,0,0,0,.4.97A1.414,1.414,0,0,0,242.366,1.161Z" transform="translate(486.511 434.172)"/>
  </g>
</svg>
