<svg xmlns="http://www.w3.org/2000/svg" xmlns:xlink="http://www.w3.org/1999/xlink" width="452.573" height="411.607" viewBox="0 0 452.573 411.607">
  <defs>
    <style>
      .cls-1 {
        fill: #854c2b;
      }

      .cls-2 {
        stroke: #fff;
        stroke-miterlimit: 10;
        stroke-width: 5.559px;
        stroke-dasharray: 13.342;
        fill: url(#linear-gradient);
      }

      .cls-3 {
        stroke: none;
      }

      .cls-4 {
        fill: none;
      }
    </style>
    <linearGradient id="linear-gradient" y1="0.5" x2="1" y2="0.5" gradientUnits="objectBoundingBox">
      <stop offset="0" stop-color="#fff" stop-opacity="0.4"/>
      <stop offset="1" stop-color="#fff" stop-opacity="0.4"/>
    </linearGradient>
  </defs>
  <g id="组_7000" data-name="组 7000" transform="translate(-383.714 -26.717)">
    <path id="路径_25656" data-name="路径 25656" class="cls-1" d="M8.128-15.66h9.014V-17H9.809v-2.628h7.334v-1.345H9.106v-2.628h8.036V-26.05h4.37v2.445H30.1v2.628H21.512v1.345h7.761V-17H21.512v1.345h9.32v2.628H8.128ZM4.584-25.714q2.108,2.75,3.942,5.592L4.95-17.983a61.51,61.51,0,0,0-3.667-5.806ZM9.075-5.21Q9.2-2.46,9.442-.5A29.957,29.957,0,0,0,4.37,3.835L2.17.84a4,4,0,0,0,.825-2.567v-9.9H.489V-15.6H6.845V-3.59Q7.761-4.232,9.075-5.21Zm5.347,9.167H10.328V-11.871H28.571V-.26a4.423,4.423,0,0,1-.84,2.9,3.347,3.347,0,0,1-2.391,1.146q-1.551.138-6.3.168Q18.7,2.551,18.12.718,22,.9,22.765.9q1.711,0,1.711-1.5v-.4H14.423ZM24.476-9H14.423v1.467H24.476ZM14.423-3.529H24.476V-5H14.423ZM61.791-.657a4.559,4.559,0,0,1-.886,3A3.891,3.891,0,0,1,58.193,3.6a41.984,41.984,0,0,1-4.805.145A42.279,42.279,0,0,0,52.166-.688Q55.313-.5,55.588-.5a1.675,1.675,0,0,0,1.925-1.864V-5.149H51.158V3.407H46.849V-5.149H40.233q-.474,6.738-2.582,9.412Q35.7,2.857,33.71,1.7q2.475-3.361,2.383-11.948V-24.644h25.7ZM40.371-16.822h6.478v-3.789H40.371Zm17.142-3.789H51.158v3.789h6.356ZM40.371-9.091h6.478V-12.88H40.371Zm10.787,0h6.356V-12.88H51.158ZM79.275-25.775h4.767V-2.643A8.234,8.234,0,0,1,83.1,1.8a3.585,3.585,0,0,1-2.414,1.688,51.632,51.632,0,0,1-6.73.26,42.118,42.118,0,0,0-1.131-4.828,38.88,38.88,0,0,0,4.278.275q2.17,0,2.17-2.536Zm11.825,6.6Q94-12.482,96.723-5.088L91.9-3.224q-2.506-7.914-5.1-14.514Zm-20.229.031,4.584,1.1q-2.231,8.189-4.736,15L66.2-4.752A141.445,141.445,0,0,0,70.872-19.144ZM124.688-4.935H120.41v1.986h7.15V.107h-7.15V4.14h-3.82V.107h-7.15V-2.949h7.15V-4.935h-4.339V-6.386A34.369,34.369,0,0,1,109.44-4.14q-1.375-1.742-2.6-3.056a16.562,16.562,0,0,0,5.684-4.614h-2.888L108.31-8.816q-.993-.917-2.078-1.864V4.14h-3.606V-8.495A40.53,40.53,0,0,1,99.784-2.7Q99.3-5.974,98.837-8.3a34.477,34.477,0,0,0,3.545-8.4H99.143v-3.85h3.483v-5.378h3.606v5.378H109.1v3.85h-2.872v2.154q1.085.611,2.383,1.39v-1.589H114.1q.29-.733.535-1.528h-4.247V-19.2h4.95q.138-.733.229-1.528h-6.1v-2.933h6.356q.061-1.146.061-2.383h4.095q-.015,1.222-.092,2.383h8.159v2.933h-8.48q-.107.779-.26,1.528h8.067v2.933h-8.816q-.244.779-.519,1.528H129.21v2.933h-5.3a12.119,12.119,0,0,0,5.607,4.034q-.978,1.5-2.139,3.545a17.655,17.655,0,0,1-2.689-1.849Zm-8.1-5.317h3.82v2.383h2.414a17.39,17.39,0,0,1-2.6-3.942h-3.5a20.173,20.173,0,0,1-2.964,3.942h2.827Zm43.671,4.095-5.378,2.811a22.572,22.572,0,0,0,7.273,2.811q-1.558,1.956-2.781,3.789a25.226,25.226,0,0,1-9.045-4.935Q150.254.443,150.3,1.6a102.677,102.677,0,0,0-9.931,2.72L138.627.84a3.868,3.868,0,0,0,.856-2.811v-.581a52.622,52.622,0,0,1-6.417,3.911q-.7-2.353-1.436-4.247a35.788,35.788,0,0,0,9.656-6.356h-9.259v-3.422h12.712v-2.017H134.349V-18.1h10.389v-2.017H133.066v-3.422h11.673v-2.628h4.309v2.628h11.795v3.422H149.047V-18.1h10.359v3.422H149.047v2.017H161.82v3.422h-3.865Zm-8.388.443a59.644,59.644,0,0,0,5.256-3.529h-8.006A17.726,17.726,0,0,0,151.874-5.714Zm-6.325-2.2q-.947,1.039-2,2.032V-.81l5.9-1.7A20.021,20.021,0,0,1,145.548-7.914Zm22.327-16.363h23.957v4.339H167.876Zm-2.75,8.342H194.46V-11.6H182.665V-1.482a5.6,5.6,0,0,1-.886,3.583,4.129,4.129,0,0,1-2.147,1.375,36.154,36.154,0,0,1-6.47.328q-.519-2.628-1.039-4.584A38.567,38.567,0,0,0,176-.535q2.047,0,2.047-1.65V-11.6H165.125Zm6.02,5.653L175.087-8.2a95.851,95.851,0,0,1-6.936,9.931Q166.623.474,164.545-.963A65.437,65.437,0,0,0,171.145-10.282Zm16.776.153q3.606,4.37,7.089,9.136-1.65,1.069-3.972,2.658-2.75-4.492-6.509-9.534Zm20.744-14.2V-4.834a12.081,12.081,0,0,0,.193,2.8,1.816,1.816,0,0,0,.809.993,3.825,3.825,0,0,0,1.969.387h.545V0H199.63V-.65h.633A4.9,4.9,0,0,0,202.442-1a1.8,1.8,0,0,0,.879-.967,10.692,10.692,0,0,0,.229-2.865V-17.191a7.8,7.8,0,0,0-.158-2.065,1.494,1.494,0,0,0-.589-.7,1.736,1.736,0,0,0-.993-.29,5.639,5.639,0,0,0-2.18.563l-.316-.633,8.771-4.008Zm20.309,10.863a13.249,13.249,0,0,1,3.489,3.437,6.835,6.835,0,0,1,.976,3.647A6.373,6.373,0,0,1,231.268-1.5a8.379,8.379,0,0,1-5.9,2,7.892,7.892,0,0,1-5.467-1.74A5.507,5.507,0,0,1,217.97-5.5a5.328,5.328,0,0,1,1.116-3.357A9.8,9.8,0,0,1,222.8-11.5a14.629,14.629,0,0,1-3.63-3.533,6.2,6.2,0,0,1-.8-3.182,5.512,5.512,0,0,1,2.03-4.21,8.035,8.035,0,0,1,5.563-1.819,7.721,7.721,0,0,1,5.247,1.608,4.96,4.96,0,0,1,1.837,3.858,4.754,4.754,0,0,1-.993,2.979A8.667,8.667,0,0,1,228.974-13.465Zm-1.336-.9a6.173,6.173,0,0,0,.967-1.969,8.55,8.55,0,0,0,.316-2.391,5.432,5.432,0,0,0-.984-3.5,2.458,2.458,0,0,0-2.039-.932,2.687,2.687,0,0,0-2,.853,2.924,2.924,0,0,0-.826,2.118,4.81,4.81,0,0,0,.923,2.663A12.964,12.964,0,0,0,227.638-14.361Zm-3.516,3.709a3.82,3.82,0,0,0-.773.9,7.036,7.036,0,0,0-.633,1.793,10.561,10.561,0,0,0-.281,2.461,7.886,7.886,0,0,0,.422,2.769,3.115,3.115,0,0,0,1.2,1.608,2.984,2.984,0,0,0,1.608.492,2.843,2.843,0,0,0,2.162-.94,3.622,3.622,0,0,0,.879-2.575Q228.71-7.559,224.122-10.652ZM246.583-.336a4.111,4.111,0,0,1-1.276,3.1,4.058,4.058,0,0,1-2.88,1.222A4.2,4.2,0,0,1,239.333,2.7a4.168,4.168,0,0,1-1.276-3.04,4.04,4.04,0,0,1,1.268-3.017,4.194,4.194,0,0,1,3.025-1.23,4.149,4.149,0,0,1,2.964,1.215A4.027,4.027,0,0,1,246.583-.336Zm-4.217,1.5a1.409,1.409,0,0,0,1.024-.42,1.372,1.372,0,0,0,.428-1.016,1.379,1.379,0,0,0-.458-1.1,1.582,1.582,0,0,0-1.069-.4,1.3,1.3,0,0,0-1.024.451,1.574,1.574,0,0,0-.4,1.077,1.406,1.406,0,0,0,.4.97A1.414,1.414,0,0,0,242.366,1.161Z" transform="translate(486.511 434)"/>
    <g id="矩形_1195" data-name="矩形 1195" class="cls-2" transform="translate(383.714 26.717)">
      <rect class="cls-3" width="452.573" height="360.496" rx="18.645"/>
      <rect class="cls-4" x="2.779" y="2.779" width="447.014" height="354.937" rx="15.865"/>
    </g>
  </g>
</svg>
