<svg xmlns="http://www.w3.org/2000/svg" width="126.979" height="196.594" viewBox="0 0 126.979 196.594">
  <defs>
    <style>
      .cls-1 {
        fill: #e5e2e5;
      }

      .cls-2 {
        fill: #373737;
      }

      .cls-3 {
        fill: #38373a;
      }

      .cls-4 {
        fill: #fcb2a9;
      }

      .cls-5 {
        fill: #e3e1e4;
      }

      .cls-6 {
        fill: #fff;
      }

      .cls-7 {
        fill: #2b71b0;
      }

      .cls-8 {
        fill: #e7ffff;
      }
    </style>
  </defs>
  <g id="组_3715" data-name="组 3715" transform="translate(-728.963 -993.015)">
    <g id="组_3714" data-name="组 3714">
      <path id="路径_9602" data-name="路径 9602" class="cls-1" d="M778.591,1132.14s-13.743,6.371-16.568,25.7c-2.962,20.26,0,17.564,0,17.564l3.542.14s5.536-12.646,6.806-19.65c0,0-6.178,6.678-.955,16.85s32.4,9.326,38.381.358c4.9-7.357-.44-15.54-2.457-17.208s8.267,16.008,7.651,19.01l3.581.333s2.3-36.418-17.562-43.456Z"/>
      <path id="路径_9603" data-name="路径 9603" class="cls-1" d="M776.209,1176.2s1.241,9.5,2.139,11.061-6.136,0-6.169,1.386,16.528.866,16.528.866,2.254-9.43,1.679-10.777S776.209,1176.2,776.209,1176.2Z"/>
      <path id="路径_9604" data-name="路径 9604" class="cls-1" d="M805.079,1176.276s-1.575,9.427-2.472,10.985,6.135,0,6.169,1.386-16.529.866-16.529.866-2.344-10.054-1.77-11.4S805.079,1176.276,805.079,1176.276Z"/>
      <path id="路径_9605" data-name="路径 9605" class="cls-2" d="M768.779,1140.853s4.371,1.233,6.567,3.173-6.826-.28-9.022.659A30.479,30.479,0,0,1,768.779,1140.853Z"/>
      <path id="路径_9606" data-name="路径 9606" class="cls-2" d="M763.958,1149.9s4.562-.286,7.279.814-6.783,1.946-8.541,3.562A32.172,32.172,0,0,1,763.958,1149.9Z"/>
      <path id="路径_9607" data-name="路径 9607" class="cls-2" d="M761.81,1159.239s4.414-1.191,7.295-.655-6.453,3.185-7.854,5.119C761.251,1163.7,761.421,1161.731,761.81,1159.239Z"/>
      <path id="路径_9608" data-name="路径 9608" class="cls-2" d="M811.724,1140.74s-4.555,1.346-6.751,3.286,6.69-.3,8.885.644A16.763,16.763,0,0,0,811.724,1140.74Z"/>
      <path id="路径_9609" data-name="路径 9609" class="cls-2" d="M815.7,1149.893s-4.5-.283-7.218.817,6.591,1.869,8.349,3.485C816.834,1154.195,816.371,1151.98,815.7,1149.893Z"/>
      <path id="路径_9610" data-name="路径 9610" class="cls-2" d="M817.761,1159.239s-4.414-1.191-7.295-.655,6.409,3.08,7.809,5.014C818.275,1163.6,818.072,1161.339,817.761,1159.239Z"/>
      <path id="路径_9611" data-name="路径 9611" class="cls-2" d="M776.569,1178.754a19.748,19.748,0,0,1,6.175,2.364c-.1.4-3.445-.719-5.821-.082C776.938,1181.125,776.694,1179.609,776.569,1178.754Z"/>
      <path id="路径_9612" data-name="路径 9612" class="cls-2" d="M777.252,1182.942a19.834,19.834,0,0,1,6.219,2.364c-.1.4-3.378-.7-5.753-.06C777.732,1185.335,777.377,1183.8,777.252,1182.942Z"/>
      <path id="路径_9613" data-name="路径 9613" class="cls-2" d="M804.627,1178.736a20.117,20.117,0,0,0-6.248,2.382c.095.4,3.444-.719,5.82-.082C804.184,1181.125,804.5,1179.591,804.627,1178.736Z"/>
      <path id="路径_9614" data-name="路径 9614" class="cls-2" d="M803.817,1182.942a19.864,19.864,0,0,0-6.238,2.364c.1.4,3.343-.723,5.718-.086A22.138,22.138,0,0,0,803.817,1182.942Z"/>
      <circle id="椭圆_1513" data-name="椭圆 1513" class="cls-2" cx="2.553" cy="2.553" r="2.553" transform="translate(761.227 1174.563)"/>
      <circle id="椭圆_1514" data-name="椭圆 1514" class="cls-2" cx="2.553" cy="2.553" r="2.553" transform="translate(814.351 1174.205)"/>
      <ellipse id="椭圆_1515" data-name="椭圆 1515" class="cls-2" cx="10.594" cy="12.894" rx="10.594" ry="12.894" transform="translate(780.012 1145.558)"/>
    </g>
    <path id="路径_9615" data-name="路径 9615" class="cls-1" d="M749.005,1050.116S715.886,1014.94,734.8,1004.5c10.615-3.117,14.22-.31,30.708,22.115,0,0,30.973-30.8,52.9,6.442,0,0,21.047-23.951,32.569-17.974,6.631,4.564,9.059,11.447-8.474,29.348-9.818,9.53-12.5,9.639-12.5,9.639s16.092,39.091-3.578,70.505c-22.643,11.126-79.455-12.345-79.455-12.345S731.89,1084.917,749.005,1050.116Z"/>
    <path id="路径_9616" data-name="路径 9616" class="cls-3" d="M770.1,1001.73c-.036-.108-1.042-2.574.945-1.775s7.794,7.3,10.615,10.939c1.547.371,1.456-.745,1.238-1.033s-3.688-7.53,4.129-16.51c1.461-1.156,2.05.968,1.834,1.845s-.318,5.659,4.146,12.585c1.36,1.407,1.435-.675,1.229-1.261s1.749-8.139,6.552-12.54c1.152-.344,1.46,1.06,1.608,1.329s5.618,9.439,4.392,18.631c-2.333,7.82-12.657,17.542-25.709,9.639C769.333,1014.663,771.441,1005.8,770.1,1001.73Z"/>
    <path id="路径_9617" data-name="路径 9617" class="cls-3" d="M762.945,1049.85s-3.693,1.922-.571,4.515,10.048-6.683,9.2-8.637-2.819-2.731-4.18-1.075C766.754,1045.444,767.089,1046.951,762.945,1049.85Z"/>
    <path id="路径_9618" data-name="路径 9618" class="cls-4" d="M819.97,1089.272a11.411,11.411,0,0,0,15.349,10.737,85.1,85.1,0,0,0,.381-21.335,11.429,11.429,0,0,0-15.73,10.6Z"/>
    <path id="路径_9619" data-name="路径 9619" class="cls-4" d="M758.319,1089.272a11.438,11.438,0,0,1-11.438,11.438,12.944,12.944,0,0,1-4.178-.278,71.686,71.686,0,0,1-1.618-21.327,20.81,20.81,0,0,1,5.8-1.271A11.438,11.438,0,0,1,758.319,1089.272Z"/>
    <path id="路径_9620" data-name="路径 9620" class="cls-3" d="M813.029,1049.844s3.7,1.914.579,4.513-10.06-6.663-9.219-8.619,2.814-2.736,4.179-1.083C809.211,1045.445,808.878,1046.952,813.029,1049.844Z"/>
    <path id="路径_9621" data-name="路径 9621" class="cls-2" d="M746.966,1112.233s-3.369,24.358,38.244,25.889,43.9-18.163,44.7-19.962,3.853-31.975-40.817-31.118C783.125,1087.422,751.181,1086.767,746.966,1112.233Z"/>
    <path id="路径_9622" data-name="路径 9622" class="cls-3" d="M746.3,1056.188a27.669,27.669,0,0,1,13.033,4.935c.346.626-9.948-.653-15.729,3.014C743.608,1064.137,745.676,1057.3,746.3,1056.188Z"/>
    <path id="路径_9623" data-name="路径 9623" class="cls-3" d="M741.337,1075.533s6.018-2.2,10.11-.49c.716,1.3-9.561,7.061-10.531,12.449a78.077,78.077,0,0,1,.392-12.037"/>
    <path id="路径_9624" data-name="路径 9624" class="cls-3" d="M742.1,1097.36s6.96-5.8,12.684-7c1.9-.051-2.128,2.722-9.965,16.9A50.684,50.684,0,0,1,742.1,1097.36Z"/>
    <path id="路径_9625" data-name="路径 9625" class="cls-3" d="M830.382,1055.069s-8.779.619-11.274,2.229,3.1.731,14.14,7.27A72.2,72.2,0,0,0,830.382,1055.069Z"/>
    <path id="路径_9626" data-name="路径 9626" class="cls-3" d="M836.2,1088.166s-12.095-11.461-15.381-12.447,3.284-3.773,14.474-.512C835.291,1075.207,836.274,1084.654,836.2,1088.166Z"/>
    <path id="路径_9627" data-name="路径 9627" class="cls-3" d="M833.747,1107.6s-5.574-11.477-8.216-12.775,4.632-2.476,9.947,4.109C835.3,1100.141,833.968,1106.8,833.747,1107.6Z"/>
    <path id="路径_9628" data-name="路径 9628" class="cls-5" d="M765.35,1103.531s-2.574-5.342,3.94-5.365a3.011,3.011,0,0,1,2.81,1.8c.806,1.981.3,4.858-.095,6.463a3.632,3.632,0,0,1-1.682,2.3c-.972.555-2.271.775-3.2-1.047A32.792,32.792,0,0,1,765.35,1103.531Z"/>
    <circle id="椭圆_1516" data-name="椭圆 1516" class="cls-6" cx="9.418" cy="9.418" r="9.418" transform="translate(801.202 1062.506)"/>
    <path id="路径_9629" data-name="路径 9629" class="cls-5" d="M804.6,1101.173s-.072-5.93,5.84-3.195a3.013,3.013,0,0,1,1.784,2.822c-.108,2.135-1.784,4.529-2.821,5.816a3.623,3.623,0,0,1-2.495,1.37c-1.116.092-2.386-.258-2.453-2.3A32.951,32.951,0,0,1,804.6,1101.173Z"/>
    <circle id="椭圆_1517" data-name="椭圆 1517" class="cls-7" cx="7.323" cy="7.323" r="7.323" transform="translate(802.266 1066.537)"/>
    <circle id="椭圆_1518" data-name="椭圆 1518" class="cls-8" cx="2.901" cy="2.901" r="2.901" transform="translate(811.673 1069.707)"/>
    <circle id="椭圆_1519" data-name="椭圆 1519" class="cls-6" cx="9.418" cy="9.418" r="9.418" transform="translate(760.842 1062.506)"/>
    <circle id="椭圆_1520" data-name="椭圆 1520" class="cls-7" cx="7.323" cy="7.323" r="7.323" transform="translate(763.969 1066.537)"/>
    <circle id="椭圆_1521" data-name="椭圆 1521" class="cls-8" cx="2.901" cy="2.901" r="2.901" transform="translate(762.559 1069.707)"/>
    <ellipse id="椭圆_1522" data-name="椭圆 1522" class="cls-3" cx="4.81" cy="11.428" rx="4.81" ry="11.428" transform="matrix(0.83, -0.558, 0.558, 0.83, 736.532, 1018.136)"/>
    <ellipse id="椭圆_1523" data-name="椭圆 1523" class="cls-3" cx="11.428" cy="4.81" rx="11.428" ry="4.81" transform="translate(827.598 1034.218) rotate(-42.014)"/>
  </g>
</svg>
