<svg xmlns="http://www.w3.org/2000/svg" width="90.869" height="121.847" viewBox="0 0 90.869 121.847">
  <defs>
    <style>
      .cls-1 {
        fill: #fbf9ea;
      }

      .cls-2 {
        fill: #00040a;
      }

      .cls-3 {
        fill: #f0b098;
      }

      .cls-4 {
        fill: none;
        stroke: #f0b098;
        stroke-linecap: round;
        stroke-linejoin: round;
        stroke-width: 2px;
      }

      .cls-5 {
        fill: #fff;
      }

      .cls-6 {
        fill: #2b71b0;
      }

      .cls-7 {
        fill: #e7ffff;
      }

      .cls-8 {
        fill: #f0d5b7;
      }

      .cls-9 {
        fill: #fcb2a9;
      }
    </style>
  </defs>
  <g id="组_3706" data-name="组 3706" transform="translate(-808.499 -325.487)">
    <path id="路径_9504" data-name="路径 9504" class="cls-1" d="M835.339,404.242s-2.86,3.069-5.825,2.653-6.4-.209-5.617,3.432,2.7,4.109,4.889,3.537,5.617-1.924,6.189-1.976a8,8,0,0,1,1.2,0S833.1,430.82,838.3,436.333c-.728,2.028-2.6,8.686,1.2,10.454s4.733-1.2,5.2-2.6a24.4,24.4,0,0,0,.676-4.317s4.786,4.265,14.928.26c1.144,1.3,5.773,4.109,9.934,3.641s1.612-5.41.78-5.514-4.057-.832-3.8-2.6c1.457-1.144,2.809-6.658,2.6-18.412,1.352,1.56,4.369,4.629,6.241,5.2s4.265-1.352,3.849-3.121-7.021-6.865-7.229-7.9-3.9-5.878-5.774-7.854-8.218-9.778-8.218-9.778l-10.61.52-10.506,6.241Z"/>
    <path id="路径_9505" data-name="路径 9505" class="cls-1" d="M813.9,388.741s4.96,19.232,42.005,18.017c0,0,28.543.81,38.26-18.523s-40.233-51.519-40.233-51.519l-13.412,4.454Z"/>
    <path id="路径_9506" data-name="路径 9506" class="cls-2" d="M840.319,333.072s-5.871-10.324-9.312-6.883-3.644,10.122-2.632,12.349c0,0-11.437,2.024-19.028,22.065-3.037,16.5,2.935,26.519,4.554,28.138s26.924-2.226,34.515-20.243,5.77-25.3,5.77-25.3-3.442,31.681,23.178,41.8a51.7,51.7,0,0,0,16.8,3.239s10.122-11.2,2.126-30.953c-3.34-7.914-7.288-11.153-7.288-11.153s1.215-14.069-3.846-12.551-7.085,5.871-7.085,6.478S870.178,329.934,840.319,333.072Z"/>
    <path id="路径_9507" data-name="路径 9507" class="cls-3" d="M849.428,369.51s2.834,5.116,5.77,2.255,1.822-3.267,1.822-3.267.4-2.429-6.681-1.012C848.416,368.5,849.428,369.51,849.428,369.51Z"/>
    <path id="路径_9508" data-name="路径 9508" class="cls-3" d="M882.264,339.625s-2.369.866-1.057,2.234,4.124,1.607,4.124,1.607.909.513.337-2.239a11.352,11.352,0,0,0-.831-3.067Z"/>
    <path id="路径_9509" data-name="路径 9509" class="cls-3" d="M835.015,332.251s2.3,1.04.887,2.306-4.233,1.3-4.233,1.3-.944.443-.169-2.258a11.345,11.345,0,0,1,1.057-3Z"/>
    <line id="直线_116" data-name="直线 116" class="cls-4" x1="0.337" y1="7.956" transform="translate(853.167 372.62)"/>
    <path id="路径_9510" data-name="路径 9510" class="cls-4" d="M846.864,377.135s5.736,7.558,12.754,0"/>
    <circle id="椭圆_1458" data-name="椭圆 1458" class="cls-5" cx="12.446" cy="12.446" r="12.446" transform="translate(862.214 351.706)"/>
    <circle id="椭圆_1459" data-name="椭圆 1459" class="cls-6" cx="9.676" cy="9.676" r="9.676" transform="translate(863.98 357.194)"/>
    <circle id="椭圆_1460" data-name="椭圆 1460" class="cls-7" cx="3.834" cy="3.834" r="3.834" transform="translate(876.127 360.504)"/>
    <circle id="椭圆_1461" data-name="椭圆 1461" class="cls-5" cx="12.446" cy="12.446" r="12.446" transform="translate(816.553 352.857)"/>
    <circle id="椭圆_1462" data-name="椭圆 1462" class="cls-6" cx="9.676" cy="9.676" r="9.676" transform="translate(818.319 358.345)"/>
    <circle id="椭圆_1463" data-name="椭圆 1463" class="cls-7" cx="3.834" cy="3.834" r="3.834" transform="translate(830.465 361.655)"/>
    <circle id="椭圆_1464" data-name="椭圆 1464" class="cls-8" cx="10.584" cy="10.584" r="10.584" transform="translate(842.416 411.343)"/>
    <path id="路径_9511" data-name="路径 9511" class="cls-9" d="M898.62,378.635a10.289,10.289,0,0,0-18.659,5.992,10.4,10.4,0,0,0,.093,1.317,52.869,52.869,0,0,0,14.112,2.291A22.926,22.926,0,0,0,898.62,378.635Z"/>
    <path id="路径_9512" data-name="路径 9512" class="cls-9" d="M879.961,384.627a10.292,10.292,0,0,0,9.472,10.255,27,27,0,0,0,4.733-6.647c2.032-4.042,1.449-8.647-.735-13.4a10.289,10.289,0,0,0-13.47,9.793Z"/>
    <path id="路径_9513" data-name="路径 9513" class="cls-9" d="M822.979,385.49a10.278,10.278,0,0,0-14.017-9.593c1.109,7.361,3.907,11.812,4.939,12.844.572.572,4.1.458,8.75-.715A10.249,10.249,0,0,0,822.979,385.49Z"/>
    <path id="路径_9514" data-name="路径 9514" class="cls-9" d="M822.979,385.49a10.263,10.263,0,0,0-3.127-7.383L813.9,388.741a16.876,16.876,0,0,0,3.441,5.922A10.288,10.288,0,0,0,822.979,385.49Z"/>
  </g>
</svg>
