<svg xmlns="http://www.w3.org/2000/svg" width="122.62" height="131.067" viewBox="0 0 122.62 131.067">
  <defs>
    <style>
      .cls-1 {
        fill: #7c4319;
      }

      .cls-2 {
        fill: #955824;
      }

      .cls-3 {
        fill: #edce9f;
      }

      .cls-4 {
        fill: #774c1d;
      }

      .cls-5 {
        fill: #763c19;
      }

      .cls-6 {
        fill: none;
        stroke: #763c19;
        stroke-linecap: round;
        stroke-linejoin: round;
        stroke-width: 2px;
      }

      .cls-7 {
        fill: #fff;
      }

      .cls-8 {
        fill: #2b71b0;
      }

      .cls-9 {
        fill: #e7ffff;
      }

      .cls-10 {
        fill: #fcb2a9;
      }
    </style>
  </defs>
  <g id="组_3702" data-name="组 3702" transform="translate(-115.43 -316.268)">
    <g id="组_3701" data-name="组 3701">
      <path id="路径_9422" data-name="路径 9422" class="cls-1" d="M177.367,414.249s-.732,12.13,14.663,8.4c10.711-2.6,14.966-9.443,18.053-17.234,1.2-3.015,9.6-16.013,15.977-14.936s6.778-3.425,5.431-4.772-5.116-4.577-11.04-.538-13.912,19.2-14.271,19.61-7.091,15.665-14,14.677-7.45-3.68-8.078-5.924S179.342,409.941,177.367,414.249Z"/>
      <path id="路径_9423" data-name="路径 9423" class="cls-2" d="M160.291,397.539s-6.745,22.714,2.777,29.062,17.358,5.455,25.987,1.587,6.15-16.862,5.456-20.036-2.778-10.316-3.571-11.407S161.283,393.485,160.291,397.539Z"/>
      <path id="路径_9424" data-name="路径 9424" class="cls-2" d="M191.709,398.258s16.44-2.455,18.374,5.579c0,3.869-2.083,2.53-3.124,1.786s-3.146-4.337-6.223-3.656-8.358,1.5-9.027,1.35A3.14,3.14,0,0,1,191.709,398.258Z"/>
      <path id="路径_9425" data-name="路径 9425" class="cls-2" d="M159.688,404.424s-16.441,2.455-18.375-5.579c0-3.868,2.083-2.529,3.125-1.785s3.145,4.336,6.222,3.656,8.358-1.5,9.028-1.35A3.14,3.14,0,0,1,159.688,404.424Z"/>
      <path id="路径_9426" data-name="路径 9426" class="cls-2" d="M165.272,427.955s-4.064,5.676-4.212,8.131,5.653,6.844,7.662,6.918,3.757-1.823,3.273-3.124-3.645-4-3.72-4.4,1.615-5.016,2.072-5.274S167.513,425.59,165.272,427.955Z"/>
      <path id="路径_9427" data-name="路径 9427" class="cls-2" d="M177.428,431.221s-.97,16.693,4.312,16.1c3.5-.893,3.381-2.311,2.471-17.28C181.517,430.039,178.546,426.617,177.428,431.221Z"/>
    </g>
    <ellipse id="椭圆_1430" data-name="椭圆 1430" class="cls-2" cx="46.553" cy="40.344" rx="46.553" ry="40.344" transform="translate(129.145 317.414)"/>
    <path id="路径_9428" data-name="路径 9428" class="cls-2" d="M208.638,331.041s8.06-19.008,19.294-13.9,10.085,19.4,10.085,20.426-2.86,9.229-15.919,13.1C216.953,349.182,208.159,332.078,208.638,331.041Z"/>
    <circle id="椭圆_1431" data-name="椭圆 1431" class="cls-3" cx="8.947" cy="8.947" r="8.947" transform="translate(214.9 324.521)"/>
    <path id="路径_9429" data-name="路径 9429" class="cls-2" d="M144.842,331.041s-8.06-19.008-19.294-13.9-10.085,19.4-10.085,20.426,2.86,9.229,15.919,13.1C136.526,349.182,145.321,332.078,144.842,331.041Z"/>
    <circle id="椭圆_1432" data-name="椭圆 1432" class="cls-3" cx="8.947" cy="8.947" r="8.947" transform="translate(120.685 324.521)"/>
    <path id="路径_9430" data-name="路径 9430" class="cls-3" d="M142.952,366.78s-2.672-35.12,19.278-37.029c11.452-.954,13.257,3.627,13.257,3.627s11.747-9.734,24.917.763c11.643,10.117,7.253,32.639,7.253,32.639s8.017.191,9.734,2.863-5.363,24.576-31.237,28.008c0,0-23.1,4.839-41.894-9.823-10.237-7.984-11.424-15.576-8.879-17.23S140.98,366.78,142.952,366.78Z"/>
    <path id="路径_9431" data-name="路径 9431" class="cls-4" d="M194.923,343.822a2.535,2.535,0,0,0-2.893,2.34c0,1.745,1.872,1.447,2.893,1.872s.851-.212,4.638,2.341c1.745,1.191,3.4-1.532,2-2.936S200.072,345.609,194.923,343.822Z"/>
    <path id="路径_9432" data-name="路径 9432" class="cls-4" d="M158.916,343.822a2.536,2.536,0,0,1,2.894,2.34c0,1.745-1.873,1.447-2.894,1.872s-.851-.212-4.638,2.341c-1.745,1.191-3.4-1.532-2-2.936S153.767,345.609,158.916,343.822Z"/>
    <ellipse id="椭圆_1433" data-name="椭圆 1433" class="cls-5" cx="5.62" cy="3.429" rx="5.62" ry="3.429" transform="translate(170.265 367.419)"/>
    <line id="直线_115" data-name="直线 115" class="cls-6" y2="7.076" transform="translate(175.885 374.276)"/>
    <path id="路径_9433" data-name="路径 9433" class="cls-6" d="M163.507,376.118s11.574,12.936,24.829,0"/>
    <circle id="椭圆_1434" data-name="椭圆 1434" class="cls-7" cx="8.451" cy="8.451" r="8.451" transform="translate(186.694 351.582)"/>
    <circle id="椭圆_1435" data-name="椭圆 1435" class="cls-8" cx="6.391" cy="6.391" r="6.391" transform="translate(188.754 353.642)"/>
    <ellipse id="椭圆_1436" data-name="椭圆 1436" class="cls-9" cx="3.168" cy="1.879" rx="3.168" ry="1.879" transform="translate(195.752 358.154)"/>
    <circle id="椭圆_1437" data-name="椭圆 1437" class="cls-7" cx="8.451" cy="8.451" r="8.451" transform="translate(149.862 351.582)"/>
    <circle id="椭圆_1438" data-name="椭圆 1438" class="cls-8" cx="6.391" cy="6.391" r="6.391" transform="translate(151.922 353.642)"/>
    <ellipse id="椭圆_1439" data-name="椭圆 1439" class="cls-9" cx="3.168" cy="1.879" rx="3.168" ry="1.879" transform="translate(158.92 358.154)"/>
    <path id="路径_9434" data-name="路径 9434" class="cls-10" d="M213.364,381.619a9.522,9.522,0,1,0-10.289,10.02A35.5,35.5,0,0,0,213.364,381.619Z"/>
    <path id="路径_9435" data-name="路径 9435" class="cls-10" d="M156.78,382.151a9.524,9.524,0,0,0-19.02-.724,36.217,36.217,0,0,0,6.5,6.4,47.21,47.21,0,0,0,5.271,3.565A9.523,9.523,0,0,0,156.78,382.151Z"/>
  </g>
</svg>
