<svg xmlns="http://www.w3.org/2000/svg" width="87.33" height="179.685" viewBox="0 0 87.33 179.685">
  <defs>
    <style>
      .cls-1 {
        fill: #fcfdea;
      }

      .cls-2 {
        fill: #f1afa1;
      }

      .cls-3 {
        fill: #fff;
      }

      .cls-4 {
        fill: #2b71b0;
      }

      .cls-5 {
        fill: #e7ffff;
      }

      .cls-6 {
        fill: #eeac9e;
      }

      .cls-7 {
        fill: #f6afa2;
      }

      .cls-8 {
        fill: none;
        stroke: #eeac9e;
        stroke-linecap: round;
        stroke-linejoin: round;
        stroke-width: 2px;
      }

      .cls-9 {
        fill: #fcb2a9;
      }
    </style>
  </defs>
  <g id="组_3707" data-name="组 3707" transform="translate(-945.707 -267.649)">
    <path id="路径_9515" data-name="路径 9515" class="cls-1" d="M974.346,431.074s-1.6,8.816.463,11.167c.532,1.119.993.3,1.021,1.9s2.326,3.786,5.29,1.837a4.047,4.047,0,0,0,1.637-5.511,2.928,2.928,0,0,0-1.871-1.064l-.075-4.072.081-3.122S977.013,428.151,974.346,431.074Z"/>
    <path id="路径_9516" data-name="路径 9516" class="cls-1" d="M993.314,436.5s-1.746,8.091.768,9.966a4.06,4.06,0,0,0,6.453-2.247c.723-2.77,1.3-12.1,1.3-12.1l-.116-2.791-8.952,1.97Z"/>
    <path id="路径_9517" data-name="路径 9517" class="cls-1" d="M972.072,403.987s-7.713,1.234-8.633,8.427c0,0-.831,2.6.67,3.931a4.3,4.3,0,0,0,4.759.336c.736-.614,2.126-6.889,3.446-6.867s1.836.223.919,5.643-3.142,11.754,1.713,16.222,11.714,5.909,18.368,4.821,9.627-5.271,11.426-8.39-.494-11.911-.983-13.918-1.221-4.971-1.221-4.971-.711-1.239,1.286-.815,11.036,1.173,12.492-5.472c.8-3.135,1.243-5.818-2.332-6.221a6.351,6.351,0,0,0-3.739,2.546c-1.484,2.142-3.887,4.17-7.374,3.3s-11.813-5.22-11.813-5.22l-15.477-.576Z"/>
    <circle id="椭圆_1465" data-name="椭圆 1465" class="cls-2" cx="11.229" cy="11.229" r="11.229" transform="translate(977.339 408.189)"/>
    <path id="路径_9518" data-name="路径 9518" class="cls-1" d="M961.311,342.715s-16.973-72,4.654-75.011c15.6,0,15.6,26.829,15.6,26.829l1.369,42.159s9.034-.547,10.4-.547.274-67.346,16.7-68.441,14.783,14.51,15.057,17.795-9.308,54.752-11.5,57.216C1011.41,346,968.429,351.749,961.311,342.715Z"/>
    <ellipse id="椭圆_1466" data-name="椭圆 1466" class="cls-1" cx="43.665" cy="33.739" rx="43.665" ry="33.739" transform="translate(945.707 336.287)"/>
    <circle id="椭圆_1467" data-name="椭圆 1467" class="cls-3" cx="7.842" cy="7.842" r="7.842" transform="translate(963.216 352.494)"/>
    <circle id="椭圆_1468" data-name="椭圆 1468" class="cls-4" cx="6.097" cy="6.097" r="6.097" transform="translate(965.819 355.85)"/>
    <circle id="椭圆_1469" data-name="椭圆 1469" class="cls-5" cx="2.416" cy="2.416" r="2.416" transform="translate(964.646 358.49)"/>
    <circle id="椭圆_1470" data-name="椭圆 1470" class="cls-3" cx="7.842" cy="7.842" r="7.842" transform="translate(997.928 352.494)"/>
    <circle id="椭圆_1471" data-name="椭圆 1471" class="cls-4" cx="6.097" cy="6.097" r="6.097" transform="translate(1000.532 355.85)"/>
    <circle id="椭圆_1472" data-name="椭圆 1472" class="cls-5" cx="2.416" cy="2.416" r="2.416" transform="translate(999.358 358.49)"/>
    <path id="路径_9519" data-name="路径 9519" class="cls-6" d="M983.585,368.42s-2.751.46-2.125,2.482,3.41,5.878,4.874,6.311,4.106-.125,4.476-.865,3.868-4.425,3.822-5.247S995.635,366.93,983.585,368.42Z"/>
    <path id="路径_9520" data-name="路径 9520" class="cls-2" d="M997.927,338.2s3.815.129,11.908,3.217c.959,0,15.4-60.57,4.586-60.981s-10.4,12.593-10.814,17.384S997.995,336.556,997.927,338.2Z"/>
    <path id="路径_9521" data-name="路径 9521" class="cls-7" d="M978.9,338.526s-3.817,0-12.01,2.816c-.957-.032-13.363-61.051-2.542-61.1s9.976,12.934,10.226,17.736S978.887,336.882,978.9,338.526Z"/>
    <line id="直线_117" data-name="直线 117" class="cls-8" y2="4.881" transform="translate(988.003 377.364)"/>
    <path id="路径_9522" data-name="路径 9522" class="cls-8" d="M980.708,379.748s6.7,6.484,14.88,0"/>
    <path id="路径_9523" data-name="路径 9523" class="cls-9" d="M1031.471,378.976a10.518,10.518,0,1,0-12.095,15.548A33.447,33.447,0,0,0,1031.471,378.976Z"/>
    <path id="路径_9524" data-name="路径 9524" class="cls-9" d="M954.123,373.955a10.489,10.489,0,0,0-7.46,3.1,32.458,32.458,0,0,0,11.962,16.92,10.516,10.516,0,0,0-4.5-20.023Z"/>
  </g>
</svg>
