<svg xmlns="http://www.w3.org/2000/svg" width="146.965" height="216.593" viewBox="0 0 146.965 216.593">
  <defs>
    <style>
      .cls-1, .cls-11, .cls-7 {
        fill: #fff;
      }

      .cls-1 {
        stroke-miterlimit: 10;
      }

      .cls-2 {
        fill: #e5e2e5;
      }

      .cls-3 {
        fill: #373737;
      }

      .cls-4 {
        fill: #38373a;
      }

      .cls-5 {
        fill: #fcb2a9;
      }

      .cls-6 {
        fill: #e3e1e4;
      }

      .cls-8 {
        fill: #2b71b0;
      }

      .cls-9 {
        fill: #e7ffff;
      }

      .cls-10, .cls-11 {
        stroke: none;
      }
    </style>
  </defs>
  <g id="组_3717" data-name="组 3717" transform="translate(-904.54 -983.015)">
    <g id="路径_9630" data-name="路径 9630" class="cls-1">
      <path class="cls-10" d="M 984.331298828125 1194.607666015625 C 980.816650390625 1194.607666015625 977.7786865234375 1194.513549804688 977.6510620117188 1194.509521484375 L 976.0377807617188 1194.458862304688 L 974.4249267578125 1194.509521484375 C 974.29736328125 1194.513549804688 971.2599487304688 1194.607666015625 967.7447509765625 1194.607666015625 C 965.0478515625 1194.607666015625 962.8060302734375 1194.551635742188 961.0816040039063 1194.441284179688 C 957.7932739257813 1194.230834960938 955.7276000976563 1193.826049804688 954.2311401367188 1192.292358398438 C 953.2359008789063 1191.2724609375 952.7069091796875 1189.934204101563 952.7415161132813 1188.524291992188 C 952.7831420898438 1186.777099609375 953.6902465820313 1185.142456054688 955.1680908203125 1184.155517578125 C 955.8438720703125 1183.7041015625 956.6045532226563 1183.397705078125 957.4934692382813 1183.218627929688 C 957.5864868164063 1183.199951171875 957.6799926757813 1183.182861328125 957.7738037109375 1183.167236328125 C 957.608154296875 1182.220825195313 957.4530029296875 1181.25732421875 957.315673828125 1180.362060546875 C 957.0117797851563 1180.149780273438 956.7188110351563 1179.931518554688 956.4362182617188 1179.706787109375 C 955.3766479492188 1182.599243164063 952.595947265625 1184.6689453125 949.3410034179688 1184.6689453125 C 945.17626953125 1184.6689453125 941.7880249023438 1181.28076171875 941.7880249023438 1177.115966796875 C 941.7880249023438 1176.827270507813 941.8050537109375 1176.539306640625 941.8385620117188 1176.253784179688 C 941.4360961914063 1174.987915039063 941.2610473632813 1173.395629882813 941.2671508789063 1171.294677734375 C 941.276611328125 1168.036743164063 941.7373657226563 1163.266235351563 942.6365356445313 1157.11572265625 C 943.4190063476563 1151.761840820313 945.0341186523438 1146.810424804688 947.4369506835938 1142.399291992188 C 947.97021484375 1141.420288085938 948.5411376953125 1140.46923828125 949.1484375 1139.547973632813 C 945.4173583984375 1138.261474609375 942.1229248046875 1136.636840820313 939.3020629882813 1134.6884765625 C 935.3583374023438 1131.964599609375 932.3272705078125 1128.616333007813 930.2930908203125 1124.736572265625 C 927.7964477539063 1119.974731445313 927.4340209960938 1115.613403320313 927.4630126953125 1113.276489257813 C 926.196044921875 1110.580688476563 923.5115356445313 1104.076049804688 922.1806640625 1094.946166992188 C 921.167724609375 1087.997436523438 921.1307373046875 1080.897338867188 922.07080078125 1073.843017578125 C 923.099365234375 1066.124755859375 925.3045654296875 1058.451538085938 928.6361694335938 1050.986694335938 C 926.4537353515625 1048.469848632813 923.015869140625 1044.303833007813 919.6605224609375 1039.409057617188 C 916.4187622070313 1034.679931640625 913.919189453125 1030.232788085938 912.2313232421875 1026.19140625 C 911.1766357421875 1023.666198730469 910.42138671875 1021.251159667969 909.986572265625 1019.013427734375 C 909.4683227539063 1016.346435546875 909.3867797851563 1013.8388671875 909.7442016601563 1011.560424804688 C 910.5206298828125 1006.610961914063 913.3554077148438 1002.656799316406 917.9419555664063 1000.125427246094 L 918.4225463867188 999.8602294921875 L 918.9492797851563 999.70556640625 C 921.9067993164063 998.8370971679688 924.185791015625 998.4497680664063 926.338623046875 998.4497680664063 C 928.8368530273438 998.4497680664063 931.1498413085938 998.9864501953125 933.4097290039063 1000.090515136719 C 935.48974609375 1001.106628417969 937.58740234375 1002.648132324219 939.8223876953125 1004.803039550781 C 943.1910400390625 1008.050842285156 946.9498901367188 1012.721557617188 951.9177856445313 1019.367309570313 C 952.7171020507813 1018.762023925781 953.613037109375 1018.1162109375 954.594970703125 1017.45654296875 C 953.8125 1016.02001953125 953.1746215820313 1014.524963378906 952.6713256835938 1012.953857421875 C 951.7645263671875 1010.122619628906 951.4887084960938 1007.656860351563 951.2671508789063 1005.675598144531 C 951.168212890625 1004.790893554688 951.0565185546875 1003.792724609375 950.9265747070313 1003.34765625 C 949.8370361328125 1000.343139648438 950.5700073242188 998.3204956054688 951.3832397460938 997.1487426757813 C 952.4056396484375 995.675537109375 954.1084594726563 994.7960205078125 955.9382934570313 994.7960205078125 C 956.771240234375 994.7960205078125 957.5991821289063 994.966064453125 958.469482421875 995.3160400390625 C 959.502197265625 995.7313232421875 960.8407592773438 996.513916015625 963.49462890625 999.139892578125 C 963.635986328125 998.70458984375 963.7923583984375 998.2706298828125 963.9635620117188 997.8380126953125 C 965.0221557617188 995.1641235351563 966.654296875 992.5499267578125 968.814697265625 990.068115234375 L 969.1195068359375 989.718017578125 L 969.4835205078125 989.4299926757813 C 970.9619750976563 988.2601928710938 972.4164428710938 988.0145874023438 973.3761596679688 988.0145874023438 C 975.1644287109375 988.0145874023438 976.839111328125 988.8428955078125 977.9707641601563 990.287109375 C 978.864990234375 991.4282836914063 979.3860473632813 992.9207763671875 979.458251953125 994.41015625 C 980.4244384765625 992.98486328125 981.5868530273438 991.56005859375 982.9690551757813 990.2935791015625 L 983.8158569335938 989.5176391601563 L 984.9164428710938 989.1890258789063 C 985.500732421875 989.0145263671875 986.0980224609375 988.9260864257813 986.6915893554688 988.9260864257813 C 988.5725708007813 988.9260864257813 990.3192749023438 989.8114013671875 991.48388671875 991.3550415039063 C 991.9998779296875 992.0389404296875 992.2945556640625 992.7044067382813 992.4595947265625 993.1160278320313 C 993.0888061523438 994.238037109375 994.3853149414063 996.7222290039063 995.5018310546875 999.9588012695313 C 997.29833984375 1005.166564941406 997.9043579101563 1010.092956542969 997.3031005859375 1014.60107421875 L 997.2509155273438 1014.992065429688 L 997.1380615234375 1015.3701171875 C 997.0115966796875 1015.7939453125 996.8694458007813 1016.216979980469 996.7120361328125 1016.638793945313 C 998.169189453125 1017.8046875 999.5805053710938 1019.113037109375 1000.933959960938 1020.554138183594 C 1002.225036621094 1021.928771972656 1003.481140136719 1023.443237304688 1004.693786621094 1025.086059570313 C 1006.32568359375 1023.487365722656 1008.320251464844 1021.630554199219 1010.5390625 1019.76611328125 C 1014.057495117188 1016.809692382813 1017.428649902344 1014.43505859375 1020.558898925781 1012.708312988281 C 1022.523010253906 1011.624816894531 1024.430541992188 1010.777282714844 1026.228637695313 1010.189331054688 C 1028.3818359375 1009.485229492188 1030.454345703125 1009.128173828125 1032.388549804688 1009.128173828125 C 1034.722778320313 1009.128173828125 1036.891723632813 1009.639404296875 1038.835327148438 1010.647644042969 L 1039.111572265625 1010.790893554688 L 1039.367797851563 1010.967346191406 C 1041.2890625 1012.289672851563 1042.7705078125 1013.672058105469 1043.897094726563 1015.193664550781 C 1045.3544921875 1017.162109375 1046.210083007813 1019.365234375 1046.440063476563 1021.741882324219 C 1046.786865234375 1025.325073242188 1045.72998046875 1029.189575195313 1043.208862304688 1033.556030273438 C 1040.790161132813 1037.745239257813 1037.003051757813 1042.447875976563 1031.630981445313 1047.9326171875 L 1031.586791992188 1047.977783203125 L 1031.54150390625 1048.021728515625 C 1027.668823242188 1051.78076171875 1024.365966796875 1054.610473632813 1021.7060546875 1056.449340820313 C 1022.948486328125 1060.304443359375 1024.666870117188 1066.52001953125 1025.745483398438 1074.1162109375 C 1026.809448242188 1081.60986328125 1027.033447265625 1088.928466796875 1026.411254882813 1095.868774414063 C 1025.631713867188 1104.56396484375 1023.516052246094 1112.6865234375 1020.121948242188 1120.015991210938 C 1020.100402832031 1120.088012695313 1020.072204589844 1120.1845703125 1020.049560546875 1120.26220703125 C 1019.537780761719 1122.015869140625 1018.33935546875 1126.122802734375 1014.5205078125 1130.415649414063 C 1011.350402832031 1133.979248046875 1007.131652832031 1136.823852539063 1001.92724609375 1138.914794921875 C 1002.977905273438 1140.692993164063 1003.919860839844 1142.639526367188 1004.747924804688 1144.746337890625 C 1006.246887207031 1148.560180664063 1007.390197753906 1152.939697265625 1008.14599609375 1157.76318359375 C 1009.181030273438 1164.36865234375 1009.25732421875 1170.263916015625 1009.200317382813 1173.353637695313 C 1009.731811523438 1174.3994140625 1010.018005371094 1175.564331054688 1010.018005371094 1176.758056640625 C 1010.018005371094 1180.922729492188 1006.629760742188 1184.31103515625 1002.465026855469 1184.31103515625 C 999.3935546875 1184.31103515625 996.7444458007813 1182.46826171875 995.5652465820313 1179.830200195313 C 995.38720703125 1179.955688476563 995.20556640625 1180.079223632813 995.0199584960938 1180.201049804688 C 994.8484497070313 1181.123168945313 994.6482543945313 1182.162475585938 994.4359130859375 1183.1904296875 C 994.4849853515625 1183.199462890625 994.533935546875 1183.208862304688 994.582763671875 1183.218627929688 C 995.47119140625 1183.397583007813 996.2315063476563 1183.70361328125 996.9070434570313 1184.154541015625 C 998.3847045898438 1185.140625 999.2925415039063 1186.774169921875 999.33544921875 1188.524291992188 C 999.369140625 1189.937133789063 998.839599609375 1191.274536132813 997.844482421875 1192.293579101563 C 996.347900390625 1193.826293945313 994.2825317382813 1194.23095703125 990.9947509765625 1194.441284179688 C 989.2703857421875 1194.551635742188 987.0285034179688 1194.607666015625 984.331298828125 1194.607666015625 Z M 964.1959838867188 1012.47412109375 C 964.27685546875 1012.608093261719 964.365478515625 1012.739440917969 964.4619140625 1012.867614746094 L 964.4584350585938 1012.862976074219 C 964.3709716796875 1012.746459960938 964.283203125 1012.616516113281 964.1959838867188 1012.47412109375 Z"/>
      <path class="cls-11" d="M 973.3761596679688 993.0146484375 C 973.149169921875 993.0146484375 972.885986328125 993.11376953125 972.5859985351563 993.35107421875 C 964.7689819335938 1002.3310546875 968.239990234375 1009.572021484375 968.4569702148438 1009.861083984375 C 968.6444702148438 1010.108642578125 968.7379760742188 1010.96875 967.7765502929688 1010.96875 C 967.6199951171875 1010.96875 967.4356079101563 1010.945922851563 967.218994140625 1010.89404296875 C 964.3980102539063 1007.260009765625 958.5910034179688 1000.754028320313 956.60400390625 999.955078125 C 956.3278198242188 999.843994140625 956.1094360351563 999.7960205078125 955.938232421875 999.7960205078125 C 954.8778076171875 999.7960205078125 955.6279907226563 1001.637084960938 955.6589965820313 1001.72998046875 C 956.77001953125 1005.098999023438 955.5260009765625 1011.7509765625 961.718994140625 1018.9990234375 C 955.2899780273438 1022.421020507813 951.0659790039063 1026.618041992188 951.0659790039063 1026.618041992188 C 938.06396484375 1008.934204101563 933.0730590820313 1003.44970703125 926.3385620117188 1003.44970703125 C 924.532958984375 1003.44970703125 922.602294921875 1003.843872070313 920.35791015625 1004.5029296875 C 901.447021484375 1014.93994140625 934.5659790039063 1050.115966796875 934.5659790039063 1050.115966796875 C 917.450927734375 1084.9169921875 932.5269775390625 1112.233032226563 932.5269775390625 1112.233032226563 C 932.5269775390625 1112.233032226563 929.906982421875 1131.222045898438 957.9420166015625 1136.719970703125 C 953.9080200195313 1140.621948242188 949.1240234375 1147.301025390625 947.583984375 1157.838989257813 C 945.24462890625 1173.83984375 946.59912109375 1175.520874023438 947.2721557617188 1175.520874023438 C 947.30712890625 1175.520874023438 947.3402709960938 1175.516357421875 947.3709716796875 1175.509033203125 C 947.0120239257813 1175.948974609375 946.7880249023438 1176.503051757813 946.7880249023438 1177.115966796875 C 946.7880249023438 1178.526000976563 947.9310302734375 1179.6689453125 949.3410034179688 1179.6689453125 C 950.7509765625 1179.6689453125 951.8939819335938 1178.526000976563 951.8939819335938 1177.115966796875 C 951.8939819335938 1176.43994140625 951.6270141601563 1175.8310546875 951.198974609375 1175.3740234375 C 951.5679931640625 1174.52294921875 953.2930297851563 1170.494995117188 954.93798828125 1165.970947265625 C 955.1099853515625 1167.989990234375 955.7030029296875 1170.261962890625 956.9769897460938 1172.743041992188 C 957.9520263671875 1174.642944335938 959.6950073242188 1176.157958984375 961.9210205078125 1177.307983398438 C 962.2780151367188 1179.850952148438 963.198974609375 1186.030029296875 963.9089965820313 1187.260986328125 C 964.29345703125 1187.92919921875 963.220947265625 1188.024536132813 961.8674926757813 1188.024536132813 C 961.32666015625 1188.024536132813 960.7406616210938 1188.00927734375 960.1849975585938 1188.00927734375 C 958.88671875 1188.00927734375 957.7532348632813 1188.09228515625 957.739990234375 1188.64697265625 C 957.7205810546875 1189.43798828125 963.1148071289063 1189.607666015625 967.7449340820313 1189.607666015625 C 971.2221069335938 1189.607666015625 974.2680053710938 1189.511962890625 974.2680053710938 1189.511962890625 C 974.2680053710938 1189.511962890625 975.7999877929688 1183.095947265625 976.0130004882813 1180.095947265625 L 976.030029296875 1180.095947265625 C 976.3900146484375 1183.432983398438 977.8079833984375 1189.511962890625 977.8079833984375 1189.511962890625 C 977.8079833984375 1189.511962890625 980.8544921875 1189.607666015625 984.3311157226563 1189.607666015625 C 988.961669921875 1189.607666015625 994.3558349609375 1189.43798828125 994.3369750976563 1188.64697265625 C 994.3233642578125 1188.092529296875 993.1893920898438 1188.00927734375 991.8912963867188 1188.00927734375 C 991.3356323242188 1188.00927734375 990.7496337890625 1188.024536132813 990.2088012695313 1188.024536132813 C 988.8551025390625 1188.024536132813 987.7830810546875 1187.92919921875 988.1680297851563 1187.260986328125 C 988.9119873046875 1185.968994140625 990.1179809570313 1179.286010742188 990.510009765625 1177.031982421875 C 992.614990234375 1175.97705078125 994.3140258789063 1174.666015625 995.3579711914063 1173.100952148438 C 996.9219970703125 1170.754028320313 997.4409790039063 1168.324951171875 997.3610229492188 1166.048950195313 C 999.1950073242188 1169.906005859375 1000.807006835938 1173.661010742188 1000.552001953125 1174.902954101563 L 1000.703002929688 1174.9169921875 C 1000.218017578125 1175.381958007813 999.9119873046875 1176.032958984375 999.9119873046875 1176.758056640625 C 999.9119873046875 1178.16796875 1001.054992675781 1179.31103515625 1002.465026855469 1179.31103515625 C 1003.875 1179.31103515625 1005.018005371094 1178.16796875 1005.018005371094 1176.758056640625 C 1005.018005371094 1175.998046875 1004.679992675781 1175.322998046875 1004.151977539063 1174.85498046875 C 1004.302001953125 1171.572021484375 1004.97802734375 1147.47802734375 993.6580200195313 1136.29296875 C 1013.348999023438 1131.553955078125 1014.85302734375 1119.546020507813 1015.476013183594 1118.160034179688 C 1015.481994628906 1118.14599609375 1015.489013671875 1118.125 1015.494995117188 1118.108032226563 C 1029.5419921875 1088.051025390625 1015.559997558594 1054.072998046875 1015.559997558594 1054.072998046875 C 1015.559997558594 1054.072998046875 1018.241027832031 1053.963989257813 1028.058959960938 1044.433959960938 C 1045.592041015625 1026.532958984375 1043.163940429688 1019.650024414063 1036.532958984375 1015.0859375 C 1035.255126953125 1014.423095703125 1033.85888671875 1014.128295898438 1032.388549804688 1014.128173828125 C 1020.600341796875 1014.126831054688 1003.963989257813 1033.06005859375 1003.963989257813 1033.06005859375 C 999.6630249023438 1025.755004882813 995.0139770507813 1021.077026367188 990.3200073242188 1018.260986328125 C 991.2360229492188 1016.8359375 991.9240112304688 1015.35693359375 992.3469848632813 1013.93994140625 C 993.572998046875 1004.748046875 988.10302734375 995.5770263671875 987.9550170898438 995.30908203125 C 987.822998046875 995.069091796875 987.5636596679688 993.926025390625 986.691650390625 993.926025390625 C 986.5859985351563 993.926025390625 986.471435546875 993.94287109375 986.3469848632813 993.97998046875 C 981.5440063476563 998.3809814453125 979.5880126953125 1005.93408203125 979.7949829101563 1006.52001953125 C 979.95068359375 1006.962890625 979.9458618164063 1008.260131835938 979.34716796875 1008.260131835938 C 979.1536865234375 1008.260131835938 978.898193359375 1008.124633789063 978.5659790039063 1007.781005859375 C 974.1019897460938 1000.85498046875 974.2050170898438 996.073974609375 974.4199829101563 995.196044921875 C 974.5916137695313 994.4990234375 974.2548828125 993.0146484375 973.3761596679688 993.0146484375 M 973.3761596679688 983.0146484375 L 978.24462890625 983.0146484375 L 980.5873413085938 985.6943359375 L 981.2850952148438 985.054931640625 L 983.486572265625 984.3978271484375 L 984.8862915039063 983.97998046875 L 986.691650390625 983.926025390625 C 990.215087890625 983.926025390625 994.687255859375 985.7711181640625 996.9462280273438 990.894775390625 C 998.7811889648438 994.1929931640625 1003.598999023438 1004.113525390625 1002.308044433594 1014.876220703125 C 1003.268676757813 1015.771362304688 1004.208618164063 1016.724243164063 1005.126342773438 1017.7333984375 C 1012.37841796875 1011.2685546875 1022.604370117188 1004.128173828125 1032.387329101563 1004.128173828125 C 1035.53271484375 1004.12841796875 1038.476318359375 1004.828735351563 1041.1376953125 1006.209228515625 L 1041.690063476563 1006.495727539063 L 1042.20263671875 1006.8486328125 C 1047.761596679688 1010.674682617188 1050.861572265625 1015.523559570313 1051.416748046875 1021.26025390625 C 1052.246337890625 1029.830810546875 1047.245849609375 1039.135864257813 1035.203125 1051.431274414063 C 1032.19970703125 1054.347778320313 1029.666748046875 1056.598876953125 1027.50390625 1058.333740234375 C 1031.158447265625 1071.173461914063 1035.9970703125 1097.23291015625 1024.84375 1121.71484375 C 1021.933715820313 1131.332153320313 1015.614990234375 1137.385620117188 1008.706909179688 1141.205444335938 C 1013.647277832031 1152.472290039063 1014.296203613281 1165.427001953125 1014.222412109375 1172.373046875 C 1014.742858886719 1173.76220703125 1015.018005371094 1175.245849609375 1015.018005371094 1176.758056640625 C 1015.018005371094 1183.038452148438 1010.382446289063 1188.25634765625 1004.352783203125 1189.16943359375 L 1004.437316894531 1192.61669921875 L 1001.421875 1195.786865234375 C 998.0439453125 1199.246215820313 993.6201171875 1199.607666015625 984.3311157226563 1199.607666015625 C 980.687255859375 1199.607666015625 977.4942016601563 1199.507080078125 977.4942016601563 1199.507080078125 L 976.0379638671875 1199.461181640625 L 974.5818481445313 1199.507080078125 C 974.5818481445313 1199.507080078125 971.389404296875 1199.607666015625 967.7449340820313 1199.607666015625 C 958.4547119140625 1199.607666015625 954.0303344726563 1199.245971679688 950.6525268554688 1195.784301757813 L 947.7094116210938 1192.76806640625 L 947.7340087890625 1189.566528320313 C 941.568115234375 1188.775512695313 936.7880249023438 1183.493530273438 936.7880249023438 1177.115966796875 C 936.7880249023438 1177.009765625 936.7894287109375 1176.903564453125 936.7921752929688 1176.797607421875 C 935.8275146484375 1172.726440429688 936.1783447265625 1166.726196289063 937.689208984375 1156.392333984375 C 938.51025390625 1150.774047851563 940.0936889648438 1146.0078125 942.0218505859375 1142.010986328125 C 927.0263061523438 1134.75244140625 922.6019287109375 1122.58935546875 922.43359375 1114.288330078125 C 918.9107666015625 1106.263671875 910.595947265625 1081.927368164063 922.80810546875 1051.903686523438 C 915.29052734375 1042.909790039063 902.5439453125 1025.19677734375 904.8045654296875 1010.785522460938 C 905.814697265625 1004.346557617188 909.622314453125 999.006103515625 915.52587890625 995.747802734375 L 916.4871826171875 995.21728515625 L 917.54052734375 994.9080810546875 C 920.97509765625 993.8995361328125 923.6885375976563 993.4498291015625 926.3385620117188 993.4498291015625 C 933.8121948242188 993.4498291015625 939.4986572265625 996.9635009765625 945.81640625 1003.811889648438 C 944.4773559570313 999.4241943359375 946.1146850585938 995.970703125 947.2754516601563 994.298095703125 L 950.2586059570313 989.99951171875 L 955.938232421875 989.7960205078125 C 957.4017944335938 989.7960205078125 958.8810424804688 990.092529296875 960.3349609375 990.6771240234375 C 960.7696533203125 990.8519287109375 961.218994140625 991.0748291015625 961.67822265625 991.338134765625 C 962.6080932617188 989.8271484375 963.7215576171875 988.3038330078125 965.0433959960938 986.7852783203125 L 965.653076171875 986.0848388671875 L 966.3814086914063 985.5086669921875 L 969.1085205078125 983.35107421875 L 973.3761596679688 983.0146484375 Z"/>
    </g>
    <g id="组_3716" data-name="组 3716">
      <path id="路径_9631" data-name="路径 9631" class="cls-2" d="M964.152,1132.14s-13.743,6.371-16.568,25.7c-2.963,20.26,0,17.564,0,17.564l3.542.14s5.536-12.646,6.806-19.65c0,0-6.178,6.678-.955,16.85s32.4,9.326,38.381.358c4.9-7.357-.44-15.54-2.457-17.208s8.267,16.008,7.651,19.01l3.581.333s2.3-36.418-17.562-43.456Z"/>
      <path id="路径_9632" data-name="路径 9632" class="cls-2" d="M961.77,1176.2s1.241,9.5,2.139,11.061-6.136,0-6.169,1.386,16.528.866,16.528.866,2.254-9.43,1.679-10.777S961.77,1176.2,961.77,1176.2Z"/>
      <path id="路径_9633" data-name="路径 9633" class="cls-2" d="M990.64,1176.276s-1.575,9.427-2.472,10.985,6.135,0,6.169,1.386-16.529.866-16.529.866-2.344-10.054-1.77-11.4S990.64,1176.276,990.64,1176.276Z"/>
      <path id="路径_9634" data-name="路径 9634" class="cls-3" d="M954.34,1140.853s4.371,1.233,6.567,3.173-6.826-.28-9.022.659A30.479,30.479,0,0,1,954.34,1140.853Z"/>
      <path id="路径_9635" data-name="路径 9635" class="cls-3" d="M949.519,1149.9s4.562-.286,7.278.814-6.782,1.946-8.54,3.562A32.166,32.166,0,0,1,949.519,1149.9Z"/>
      <path id="路径_9636" data-name="路径 9636" class="cls-3" d="M947.371,1159.239s4.414-1.191,7.3-.655-6.453,3.185-7.854,5.119C946.812,1163.7,946.982,1161.731,947.371,1159.239Z"/>
      <path id="路径_9637" data-name="路径 9637" class="cls-3" d="M997.285,1140.74s-4.555,1.346-6.751,3.286,6.69-.3,8.885.644A16.762,16.762,0,0,0,997.285,1140.74Z"/>
      <path id="路径_9638" data-name="路径 9638" class="cls-3" d="M1001.264,1149.893s-4.5-.283-7.218.817,6.591,1.869,8.349,3.485C1002.4,1154.195,1001.932,1151.98,1001.264,1149.893Z"/>
      <path id="路径_9639" data-name="路径 9639" class="cls-3" d="M1003.322,1159.239s-4.414-1.191-7.3-.655,6.409,3.08,7.809,5.014C1003.836,1163.6,1003.633,1161.339,1003.322,1159.239Z"/>
      <path id="路径_9640" data-name="路径 9640" class="cls-3" d="M962.13,1178.754a19.747,19.747,0,0,1,6.175,2.364c-.1.4-3.445-.719-5.821-.082C962.5,1181.125,962.255,1179.609,962.13,1178.754Z"/>
      <path id="路径_9641" data-name="路径 9641" class="cls-3" d="M962.813,1182.942a19.834,19.834,0,0,1,6.219,2.364c-.095.4-3.378-.7-5.753-.06C963.293,1185.335,962.938,1183.8,962.813,1182.942Z"/>
      <path id="路径_9642" data-name="路径 9642" class="cls-3" d="M990.188,1178.736a20.117,20.117,0,0,0-6.248,2.382c.095.4,3.444-.719,5.82-.082C989.745,1181.125,990.063,1179.591,990.188,1178.736Z"/>
      <path id="路径_9643" data-name="路径 9643" class="cls-3" d="M989.378,1182.942a19.863,19.863,0,0,0-6.238,2.364c.1.4,3.343-.723,5.718-.086A22.138,22.138,0,0,0,989.378,1182.942Z"/>
      <circle id="椭圆_1524" data-name="椭圆 1524" class="cls-3" cx="2.553" cy="2.553" r="2.553" transform="translate(946.788 1174.563)"/>
      <circle id="椭圆_1525" data-name="椭圆 1525" class="cls-3" cx="2.553" cy="2.553" r="2.553" transform="translate(999.912 1174.205)"/>
      <ellipse id="椭圆_1526" data-name="椭圆 1526" class="cls-3" cx="10.594" cy="12.894" rx="10.594" ry="12.894" transform="translate(965.573 1145.558)"/>
    </g>
    <path id="路径_9644" data-name="路径 9644" class="cls-2" d="M934.566,1050.116s-33.119-35.176-14.208-45.613c10.615-3.117,14.22-.31,30.708,22.115,0,0,30.973-30.8,52.9,6.442,0,0,21.047-23.951,32.569-17.974,6.631,4.564,9.059,11.447-8.474,29.348-9.818,9.53-12.5,9.639-12.5,9.639s16.092,39.091-3.578,70.505c-22.643,11.126-79.455-12.345-79.455-12.345S917.451,1084.917,934.566,1050.116Z"/>
    <path id="路径_9645" data-name="路径 9645" class="cls-4" d="M955.659,1001.73c-.036-.108-1.042-2.574.945-1.775s7.794,7.3,10.615,10.939c1.547.371,1.456-.745,1.238-1.033s-3.688-7.53,4.129-16.51c1.461-1.156,2.05.968,1.834,1.845s-.318,5.659,4.146,12.585c1.36,1.407,1.435-.675,1.229-1.261s1.749-8.139,6.552-12.54c1.152-.344,1.46,1.06,1.608,1.329s5.618,9.439,4.392,18.631c-2.333,7.82-12.657,17.542-25.709,9.639C954.894,1014.663,957,1005.8,955.659,1001.73Z"/>
    <path id="路径_9646" data-name="路径 9646" class="cls-4" d="M948.506,1049.85s-3.693,1.922-.571,4.515,10.048-6.683,9.2-8.637-2.819-2.731-4.18-1.075C952.315,1045.444,952.65,1046.951,948.506,1049.85Z"/>
    <path id="路径_9647" data-name="路径 9647" class="cls-5" d="M1005.531,1089.272a11.411,11.411,0,0,0,15.349,10.737,85.1,85.1,0,0,0,.381-21.335,11.429,11.429,0,0,0-15.73,10.6Z"/>
    <path id="路径_9648" data-name="路径 9648" class="cls-5" d="M943.88,1089.272a11.438,11.438,0,0,1-11.438,11.438,12.945,12.945,0,0,1-4.178-.278,71.688,71.688,0,0,1-1.618-21.327,20.81,20.81,0,0,1,5.8-1.271A11.438,11.438,0,0,1,943.88,1089.272Z"/>
    <path id="路径_9649" data-name="路径 9649" class="cls-4" d="M998.59,1049.844s3.7,1.914.579,4.513-10.06-6.663-9.219-8.619,2.814-2.736,4.179-1.083C994.772,1045.445,994.439,1046.952,998.59,1049.844Z"/>
    <path id="路径_9650" data-name="路径 9650" class="cls-3" d="M932.527,1112.233s-3.369,24.358,38.244,25.889,43.9-18.163,44.705-19.962,3.853-31.975-40.817-31.118C968.686,1087.422,936.742,1086.767,932.527,1112.233Z"/>
    <path id="路径_9651" data-name="路径 9651" class="cls-4" d="M931.865,1056.188a27.669,27.669,0,0,1,13.033,4.935c.346.626-9.948-.653-15.729,3.014C929.169,1064.137,931.237,1057.3,931.865,1056.188Z"/>
    <path id="路径_9652" data-name="路径 9652" class="cls-4" d="M926.9,1075.533s6.018-2.2,10.11-.49c.716,1.3-9.561,7.061-10.531,12.449a78.3,78.3,0,0,1,.391-12.037"/>
    <path id="路径_9653" data-name="路径 9653" class="cls-4" d="M927.659,1097.36s6.96-5.8,12.684-7c1.9-.051-2.128,2.722-9.965,16.9A50.689,50.689,0,0,1,927.659,1097.36Z"/>
    <path id="路径_9654" data-name="路径 9654" class="cls-4" d="M1015.943,1055.069s-8.779.619-11.274,2.229,3.1.731,14.14,7.27A72.2,72.2,0,0,0,1015.943,1055.069Z"/>
    <path id="路径_9655" data-name="路径 9655" class="cls-4" d="M1021.759,1088.166s-12.095-11.461-15.381-12.447,3.284-3.773,14.474-.512C1020.852,1075.207,1021.835,1084.654,1021.759,1088.166Z"/>
    <path id="路径_9656" data-name="路径 9656" class="cls-4" d="M1019.308,1107.6s-5.574-11.477-8.216-12.775,4.632-2.476,9.947,4.109C1020.865,1100.141,1019.529,1106.8,1019.308,1107.6Z"/>
    <path id="路径_9657" data-name="路径 9657" class="cls-6" d="M950.911,1103.531s-2.574-5.342,3.94-5.365a3.011,3.011,0,0,1,2.81,1.8c.806,1.981.3,4.858-.1,6.463a3.632,3.632,0,0,1-1.682,2.3c-.972.555-2.271.775-3.195-1.047A32.782,32.782,0,0,1,950.911,1103.531Z"/>
    <circle id="椭圆_1527" data-name="椭圆 1527" class="cls-7" cx="9.418" cy="9.418" r="9.418" transform="translate(986.763 1062.506)"/>
    <path id="路径_9658" data-name="路径 9658" class="cls-6" d="M990.165,1101.173s-.072-5.93,5.84-3.195a3.015,3.015,0,0,1,1.784,2.822c-.108,2.135-1.784,4.529-2.821,5.816a3.623,3.623,0,0,1-2.495,1.37c-1.116.092-2.386-.258-2.453-2.3A32.952,32.952,0,0,1,990.165,1101.173Z"/>
    <circle id="椭圆_1528" data-name="椭圆 1528" class="cls-8" cx="7.323" cy="7.323" r="7.323" transform="translate(987.827 1066.537)"/>
    <circle id="椭圆_1529" data-name="椭圆 1529" class="cls-9" cx="2.901" cy="2.901" r="2.901" transform="translate(997.234 1069.707)"/>
    <circle id="椭圆_1530" data-name="椭圆 1530" class="cls-7" cx="9.418" cy="9.418" r="9.418" transform="translate(946.403 1062.506)"/>
    <circle id="椭圆_1531" data-name="椭圆 1531" class="cls-8" cx="7.323" cy="7.323" r="7.323" transform="translate(949.53 1066.537)"/>
    <circle id="椭圆_1532" data-name="椭圆 1532" class="cls-9" cx="2.901" cy="2.901" r="2.901" transform="translate(948.12 1069.707)"/>
    <ellipse id="椭圆_1533" data-name="椭圆 1533" class="cls-4" cx="4.81" cy="11.428" rx="4.81" ry="11.428" transform="matrix(0.83, -0.558, 0.558, 0.83, 922.093, 1018.136)"/>
    <ellipse id="椭圆_1534" data-name="椭圆 1534" class="cls-4" cx="11.428" cy="4.81" rx="11.428" ry="4.81" transform="translate(1013.159 1034.218) rotate(-42.014)"/>
  </g>
</svg>
