<svg xmlns="http://www.w3.org/2000/svg" width="97.39" height="154.296" viewBox="0 0 97.39 154.296">
  <defs>
    <style>
      .cls-1 {
        fill: #a7a5a5;
      }

      .cls-2 {
        fill: #c6c4c5;
      }

      .cls-3 {
        fill: #c5c5c5;
      }

      .cls-4 {
        fill: #a6a7a4;
      }

      .cls-5 {
        fill: #ece7e6;
      }

      .cls-6 {
        fill: #fcb2a9;
      }

      .cls-7 {
        fill: #fff;
      }

      .cls-8 {
        fill: #2b71b0;
      }
    </style>
  </defs>
  <g id="组_3704" data-name="组 3704" transform="translate(-398.922 -293.039)">
    <path id="路径_9454" data-name="路径 9454" class="cls-1" d="M425.372,390.33s-3.279,1.639-9.391-2.534c-1.938,2.186-4.721,9.788-4.571,11.18s6.434,4.1,13.962,2.161c2.385-.447.969,4.845-.521,8.423s-1.988,12.733,2.385,17.9c3.975,6.758,33.683,11.955,42.826-.766,2.783-5.068,3.012-12.961,1.919-17.134a61,61,0,0,0-2.373-7.715c-.3-.521.522-1.528,2.46-.3s12.969.112,13.416-3.354-3.242-8.869-5.367-9.2c-2.161.522-6.372,4.249-11.664,2.236C463.534,390.106,426.863,386.976,425.372,390.33Z"/>
    <path id="路径_9455" data-name="路径 9455" class="cls-1" d="M429.066,430.271s-.414,12.282.977,13.475,10.634,2.484,12.621,0c.7-2.882,1.06-8.414.431-10.17S429.33,428.473,429.066,430.271Z"/>
    <path id="路径_9456" data-name="路径 9456" class="cls-1" d="M467.883,430.271s.414,12.282-.977,13.475-10.634,2.484-12.621,0c-.7-2.882-1.061-8.414-.431-10.17S467.619,428.473,467.883,430.271Z"/>
    <path id="路径_9457" data-name="路径 9457" class="cls-2" d="M453.976,442.813s-1.029,2.225-.59,2.672a8.955,8.955,0,0,0,4.861,1.391c1.789-.149,1.05-1.853,1.05-1.853s-.684,2,1.294,2.251a12.118,12.118,0,0,0,4.116-.348s.578-2.123,0-2.02.546,1.672,1.192,1.871,2.435-.746,2.286-1.292a7.93,7.93,0,0,0-1.143-1.739A12.522,12.522,0,0,1,453.976,442.813Z"/>
    <path id="路径_9458" data-name="路径 9458" class="cls-2" d="M443.116,442.813s1.03,2.225.591,2.672a8.955,8.955,0,0,1-4.861,1.391c-1.789-.149-1.051-1.853-1.051-1.853s.685,2-1.294,2.251a12.114,12.114,0,0,1-4.115-.348s-.578-2.123,0-2.02-.546,1.672-1.192,1.871-2.435-.746-2.286-1.292a7.932,7.932,0,0,1,1.143-1.739A12.52,12.52,0,0,0,443.116,442.813Z"/>
    <path id="路径_9459" data-name="路径 9459" class="cls-2" d="M480.1,388.937s2.506-1.408,3.067,0,0,1.9,0,1.9,1.088-.035,1.385.633.758,1.232.3,2.041c0,.176,1.435.387,1.22,1.619s-.61,1.5-.708,1.531,1.384-.071,1.269.774-.236,2.358-2.484,2.058c0,0-1.215-1.467-.413-2.193a1.153,1.153,0,0,1-1.093-1.589c.445-1.514.4-1.25.4-1.25s-1.072.7-1.583-.351a2.133,2.133,0,0,1,.36-2.1s-1.976-.009-1.959-1.047A10.8,10.8,0,0,1,480.1,388.937Z"/>
    <path id="路径_9460" data-name="路径 9460" class="cls-2" d="M415.981,387.8s-2.832-1.491-3.466,0,0,2.012,0,2.012-1.23-.037-1.565.671-.857,1.3-.335,2.161c0,.187-1.622.41-1.379,1.715s.689,1.583.8,1.621-1.565-.075-1.435.82.267,2.5,2.808,2.18c0,0,1.373-1.554.466-2.324,0,0,1.739-.08,1.235-1.683s-.447-1.322-.447-1.322,1.211.745,1.789-.373a2.155,2.155,0,0,0-.407-2.227s2.233-.009,2.214-1.109A10.762,10.762,0,0,0,415.981,387.8Z"/>
    <path id="路径_9461" data-name="路径 9461" class="cls-3" d="M430.125,304.936s-21.788-21.788-30.809-6.3c-1.787,5.446,2.638,20.51,10.638,21.872a21.672,21.672,0,0,0,11.447-1.149s-6.6,10.681-11.106,28.3-4.17,29.277,3.83,36.851,19.659,8.085,33.021,8,28.511-.085,33.617-6.808,9.149-10.341,4.042-38.809c-3.957-20.553-11.234-27.7-11.234-27.7s14,8.213,20.3-8.128-1.021-18.355-5.787-17.986-12.17,1.05-23.064,11.773C462.38,301.191,446.21,290.638,430.125,304.936Z"/>
    <path id="路径_9462" data-name="路径 9462" class="cls-4" d="M468.593,310.68s-1.873,1.83,1.149,2.936,11.829,3.362,15.361-.936,4.341-11.617,3.958-12.17-.213-1.106-3.234-.3S475.912,302.212,468.593,310.68Z"/>
    <path id="路径_9463" data-name="路径 9463" class="cls-4" d="M426.662,310.68s1.873,1.83-1.149,2.936-11.829,3.362-15.361-.936-4.341-11.617-3.958-12.17.213-1.106,3.234-.3S419.343,302.212,426.662,310.68Z"/>
    <path id="路径_9464" data-name="路径 9464" class="cls-5" d="M440.878,359.3c0-3.722,3.178-20.41,6.9-20.41s6.578,16.688,6.578,20.41a6.739,6.739,0,0,1-13.478,0Z"/>
    <path id="路径_9465" data-name="路径 9465" class="cls-5" d="M474.8,369.3c-1.047,1.218-7.151,5.468-8.8,4.048s1.771-7.973,2.818-9.191,3.235-1.054,4.888.366S475.844,368.08,474.8,369.3Z"/>
    <path id="路径_9466" data-name="路径 9466" class="cls-5" d="M420.333,369.3c1.047,1.218,7.152,5.468,8.8,4.048s-1.772-7.973-2.819-9.191-3.235-1.054-4.888.366S419.287,368.08,420.333,369.3Z"/>
    <path id="路径_9467" data-name="路径 9467" class="cls-6" d="M486.786,360.694c-.364-3.823-1-8.354-1.981-13.8-.1-.55-.215-1.086-.325-1.617a10.566,10.566,0,1,0,2.306,15.418Z"/>
    <path id="路径_9468" data-name="路径 9468" class="cls-6" d="M416.672,364.606a10.564,10.564,0,1,0-5.709-19.444c-.227.817-.45,1.647-.668,2.5a101.973,101.973,0,0,0-2.438,12.2A10.552,10.552,0,0,0,416.672,364.606Z"/>
    <circle id="椭圆_1447" data-name="椭圆 1447" class="cls-7" cx="7.532" cy="7.532" r="7.532" transform="translate(459.146 331.361)"/>
    <circle id="椭圆_1448" data-name="椭圆 1448" class="cls-8" cx="4.851" cy="4.851" r="4.851" transform="translate(460.36 333.529)"/>
    <circle id="椭圆_1449" data-name="椭圆 1449" class="cls-7" cx="7.532" cy="7.532" r="7.532" transform="translate(420.848 331.361)"/>
    <circle id="椭圆_1450" data-name="椭圆 1450" class="cls-8" cx="4.851" cy="4.851" r="4.851" transform="translate(424.996 333.529)"/>
    <circle id="椭圆_1451" data-name="椭圆 1451" class="cls-3" cx="15.83" cy="15.83" r="15.83" transform="translate(432.633 396.907)"/>
  </g>
</svg>
