<svg xmlns="http://www.w3.org/2000/svg" width="90.347" height="165.872" viewBox="0 0 90.347 165.872">
  <defs>
    <style>
      .cls-1 {
        fill: #e5b75c;
      }

      .cls-2 {
        fill: #7a4b18;
      }

      .cls-3 {
        fill: #f1c867;
      }

      .cls-4 {
        fill: #42362d;
      }

      .cls-5 {
        fill: #fcb2a9;
      }

      .cls-6 {
        fill: #593430;
      }

      .cls-7 {
        fill: #fff;
      }

      .cls-8 {
        fill: #2b71b0;
      }

      .cls-9 {
        fill: #e7ffff;
      }
    </style>
  </defs>
  <g id="组_3705" data-name="组 3705" transform="translate(-537.882 -281.462)">
    <path id="路径_9469" data-name="路径 9469" class="cls-1" d="M571.244,430.634s-.882,12.228,0,14.868,6.162,2.07,7.042,0,1.135-12.852,1.135-12.852S578.539,424.048,571.244,430.634Z"/>
    <path id="路径_9470" data-name="路径 9470" class="cls-1" d="M588.2,432.614s-1.527,15.812,4.581,14.66c6.211,0,4.244-5.706,4.244-8.4s-.733-8.466-.655-8.5S589.724,425.368,588.2,432.614Z"/>
    <path id="路径_9471" data-name="路径 9471" class="cls-1" d="M571.162,352.334l-3.093,31.715s16.482,14.979,29.573.681l-2.951-32.4S582.569,341.386,571.162,352.334Z"/>
    <path id="路径_9472" data-name="路径 9472" class="cls-1" d="M603.88,391.971c.065.7,6.094-.271,7.453-1.009s1.98-1.98,3.377-2.523c5.629-2.64,6.444,3.882,5.939,4.581s-5.163,6.832-11.412,6.055-7.026-.039-6.056.362c4.348,7.039,2.873,19.9,2.873,19.9s-3.028,11.8-17.857,13.276-21.66-4.192-23.213-6.444c-5.978-10.558-1.656-22.2-1.656-22.2s.724-3.7,0-4.839c-12.732.621-17.391-5.59-17.8-6.625s-.828-8.178,6.832-4.555,10.352,3.209,10.352,3.209,3.465-4.724,5.362-7.107,27.376-1.362,29.573.681C599.925,386.347,603.75,390.575,603.88,391.971Z"/>
    <path id="路径_9473" data-name="路径 9473" class="cls-2" d="M571.3,360.872l6.916.634a1.249,1.249,0,0,1,1.135,1.244v3.421a1.249,1.249,0,0,1-.728,1.135l-7.654,3.518a1.248,1.248,0,0,1-1.764-1.256l.738-7.573A1.25,1.25,0,0,1,571.3,360.872Z"/>
    <path id="路径_9474" data-name="路径 9474" class="cls-2" d="M582.011,355.381l-.639,6.277a1.248,1.248,0,0,0,1.131,1.37l5.376.48a1.25,1.25,0,0,0,1.277-.8l1.606-4.183a1.248,1.248,0,0,0-.7-1.6l-6.342-2.573A1.249,1.249,0,0,0,582.011,355.381Z"/>
    <path id="路径_9475" data-name="路径 9475" class="cls-2" d="M586.863,369.782l7.485-3.2a1.249,1.249,0,0,1,1.735,1.035l.683,7.5a1.25,1.25,0,0,1-1.174,1.361l-5.386.3a1.248,1.248,0,0,1-1.138-.6l-2.782-4.6A1.248,1.248,0,0,1,586.863,369.782Z"/>
    <path id="路径_9476" data-name="路径 9476" class="cls-2" d="M576.375,372.743l-4.6,5.993a.823.823,0,0,0,.14,1.145l5.106,4.068a.826.826,0,0,0,.954.052l4.235-2.678a.822.822,0,0,0,.263-1.125c-1-1.632-3.525-5.711-4.786-7.444A.821.821,0,0,0,576.375,372.743Z"/>
    <path id="路径_9477" data-name="路径 9477" class="cls-2" d="M588.575,382.889l-1.494,1.849a1.248,1.248,0,0,0,.074,1.652l2.541,2.632a1.249,1.249,0,0,0,1.969-.225l2.226-3.709a1.249,1.249,0,0,0-.784-1.858l-3.273-.772A1.25,1.25,0,0,0,588.575,382.889Z"/>
    <path id="路径_9478" data-name="路径 9478" class="cls-2" d="M580.885,391.606l3.487-1.416a1.249,1.249,0,0,1,1.369.29l2.175,2.256a1.249,1.249,0,0,1-.153,1.868l-4.022,3a1.249,1.249,0,0,1-1.9-.511l-1.639-3.839A1.249,1.249,0,0,1,580.885,391.606Z"/>
    <path id="路径_9479" data-name="路径 9479" class="cls-2" d="M568.3,402.217l9.823-1.258a1.249,1.249,0,0,0,1-1.694L576.52,392.6a1.247,1.247,0,0,0-.829-.748l-6.154-1.709a1.249,1.249,0,0,0-1.506.771l-1.328,3.6a1.233,1.233,0,0,0-.073.531c.077.927.319,4.028.264,5.907A1.242,1.242,0,0,0,568.3,402.217Z"/>
    <path id="路径_9480" data-name="路径 9480" class="cls-2" d="M594.707,395.309l-5.581,5.89a.823.823,0,0,0,.286,1.328L597.919,406a.822.822,0,0,0,1.113-.578l1.429-6.26a.822.822,0,0,0-.325-.853l-4.354-3.1A.823.823,0,0,0,594.707,395.309Z"/>
    <path id="路径_9481" data-name="路径 9481" class="cls-2" d="M586.813,414.47l7.45,1.251a.608.608,0,0,1,.5.663l-.57,5.287a.607.607,0,0,1-.44.52l-5.4,1.509a.606.606,0,0,1-.76-.475l-1.482-8.046A.607.607,0,0,1,586.813,414.47Z"/>
    <path id="路径_9482" data-name="路径 9482" class="cls-2" d="M574.286,415.719l1.251-7.45a.606.606,0,0,1,.663-.5l5.287.569a.606.606,0,0,1,.519.44l1.51,5.4a.607.607,0,0,1-.475.76l-8.047,1.482A.607.607,0,0,1,574.286,415.719Z"/>
    <path id="路径_9483" data-name="路径 9483" class="cls-2" d="M563.274,407.88l4.359.514a1.1,1.1,0,0,1,.879.883l2.3,9.335a1.306,1.306,0,0,1-.7,1.564l-6.091,2.058a1,1,0,0,1-1.252-.854,40.129,40.129,0,0,1-.6-12.376A1.106,1.106,0,0,1,563.274,407.88Z"/>
    <path id="路径_9484" data-name="路径 9484" class="cls-2" d="M599.736,416.213,595.228,428.2a1.249,1.249,0,0,0,1.243,1.365H597.5a1.224,1.224,0,0,0,.663-.19c1.561-.987,8.449-5.8,8.154-13.658a1.22,1.22,0,0,0-.5-.94c-1.577-1.138-2.257,1.278-4.37.4A1.245,1.245,0,0,0,599.736,416.213Z"/>
    <path id="路径_9485" data-name="路径 9485" class="cls-2" d="M580.482,429.928l.616,1.988a1.247,1.247,0,0,0,1.2.88c1.076-.009,2.9-.032,4.45-.1a1.248,1.248,0,0,0,.94-2l-2.026-2.663a1.249,1.249,0,0,0-1.307-.453l-2.993.774A1.248,1.248,0,0,0,580.482,429.928Z"/>
    <path id="路径_9486" data-name="路径 9486" class="cls-2" d="M568.1,426.2l7.276.7a1.248,1.248,0,0,1,1.1.976l.593,2.7a1.247,1.247,0,0,1-1.47,1.491,21.2,21.2,0,0,1-8.381-3.631A1.252,1.252,0,0,1,568.1,426.2Z"/>
    <path id="路径_9487" data-name="路径 9487" class="cls-3" d="M575.074,287.283s-4.511-8-9.617-4.6c-2.809,3.234-4.085,13.192-4.085,13.192s-19.234-9.873-23.49,1.532c0,10.553,7.234,15.4,11.4,16.17s8.937-1.021,8.937-1.021-4.341,17.872-2.554,23.659,6.639,15.49,19.4,16.851,27.4-.085,32.17-9.106,4.085-14.128,2.3-23.234c-1.277-6.468-1.873-8.256-1.873-8.256s11.83,5.7,17.7-5.106,1.361-13.787-1.7-14.638-9.106-1.787-18.553,3.064c-.51-1.277-.978-18.107-9.659-13.479a31.431,31.431,0,0,0-4.681,4.8S583.286,280.73,575.074,287.283Z"/>
    <path id="路径_9488" data-name="路径 9488" class="cls-4" d="M563.5,286.489s6.625,5.917,9.143-2.347c-1.652-1.827-4.716-3.327-7.184-1.455A13.554,13.554,0,0,0,563.5,286.489Z"/>
    <path id="路径_9489" data-name="路径 9489" class="cls-4" d="M593.015,284.557s3.4,7.578,10.011,1.392c-.335-1.134-2.64-5.158-5.4-4.391S594.765,282.894,593.015,284.557Z"/>
    <path id="路径_9490" data-name="路径 9490" class="cls-2" d="M604.5,303.219s8.958-6.234,15.553-5.6c3.788.766,2.6,3.107,1.277,5.6s-4.213,7.128-12,4.149C604.5,305.2,603.8,304.219,604.5,303.219Z"/>
    <path id="路径_9491" data-name="路径 9491" class="cls-5" d="M597.146,332.63a9.531,9.531,0,0,0,9.723,9.336c1.146-.023,1.518-.3,1.8-.953,3.383-7.723,2.314-12.144,1.405-17.479a9.523,9.523,0,0,0-12.926,9.1Z"/>
    <path id="路径_9492" data-name="路径 9492" class="cls-5" d="M569.087,332.513a9.533,9.533,0,0,1-9.608,9.455,1.761,1.761,0,0,1-1.759-.771c-3.914-6.237-2.269-12.215-1.67-17.621a9.525,9.525,0,0,1,13.037,8.937Z"/>
    <path id="路径_9493" data-name="路径 9493" class="cls-2" d="M561.6,303.219s-8.957-6.234-15.553-5.6c-3.787.766-2.6,3.107-1.277,5.6s4.213,7.128,12,4.149C561.6,305.2,562.3,304.219,561.6,303.219Z"/>
    <path id="路径_9494" data-name="路径 9494" class="cls-6" d="M592.931,337.623s-2.681,4.149,0,4.086,4.872-1.745,4.7-3.213S594.654,334.368,592.931,337.623Z"/>
    <path id="路径_9495" data-name="路径 9495" class="cls-6" d="M573.7,337.623s2.681,4.149,0,4.086-4.872-1.745-4.7-3.213S571.973,334.368,573.7,337.623Z"/>
    <path id="路径_9496" data-name="路径 9496" class="cls-2" d="M601.479,330.109v2.16a1.018,1.018,0,0,0,.77.988l1.455.368a1.018,1.018,0,0,0,1.083-.4l.735-1.042a1.019,1.019,0,0,0,.03-1.132l-1-1.583a1.019,1.019,0,0,0-.945-.472l-1.192.1A1.019,1.019,0,0,0,601.479,330.109Z"/>
    <path id="路径_9497" data-name="路径 9497" class="cls-2" d="M601.855,334.623h.689a1.022,1.022,0,0,1,.879.5l.03.052a1.018,1.018,0,0,1-.012,1.054l-.92,1.487-.663-.227a1.021,1.021,0,0,1-.624-.605L600.9,336A1.02,1.02,0,0,1,601.855,334.623Z"/>
    <path id="路径_9498" data-name="路径 9498" class="cls-2" d="M607.662,328.679l-.448,2.042a1.026,1.026,0,0,0,.037.565l.33.915a1.02,1.02,0,0,0,1.07.668l.282-.031a1.022,1.022,0,0,0,.868-.725l.229-.778a1.018,1.018,0,0,0-.189-.935l-.814-.992a1.019,1.019,0,0,0-.372-.285Z"/>
    <path id="路径_9499" data-name="路径 9499" class="cls-2" d="M604.561,337l-.195,1.256a1.02,1.02,0,0,0,.429,1l2.542,1.751a1.017,1.017,0,0,0,1.516-.44c.361-.855.836-2.025,1.124-2.919a1.018,1.018,0,0,0-.827-1.32l-1.667-.24a1,1,0,0,0-.181-.009l-1.77.063A1.02,1.02,0,0,0,604.561,337Z"/>
    <path id="路径_9500" data-name="路径 9500" class="cls-2" d="M557.09,336.823l1.317-.337a1.025,1.025,0,0,1,.792.123l1.066.664a1.02,1.02,0,0,1,.384.431l.363.771a1.02,1.02,0,0,1-.2,1.156l-.373.372a1,1,0,0,1-.406.249l-1.528.5a1.017,1.017,0,0,1-1.248-.56c-.252-.577-.586-1.348-.854-1.983A1.018,1.018,0,0,1,557.09,336.823Z"/>
    <path id="路径_9501" data-name="路径 9501" class="cls-2" d="M556.462,328.053l1.939.1a1.02,1.02,0,0,1,.825.495l1.08,1.811a1.02,1.02,0,0,1,.115.765l-.388,1.577a1.019,1.019,0,0,1-.51.657l-1.92,1.022a1.018,1.018,0,0,1-.583.115l-.8-.082a1.015,1.015,0,0,1-.915-.989c-.022-1.06-.034-2.888.086-4.525A1.02,1.02,0,0,1,556.462,328.053Z"/>
    <path id="路径_9502" data-name="路径 9502" class="cls-2" d="M562.643,329.483l-.112.179a1.019,1.019,0,0,0,.012,1.106l1.079,1.632a1.02,1.02,0,0,0,.851.457H566a1.018,1.018,0,0,0,1.016-.939l.169-2.122a1.021,1.021,0,0,0-1.135-1.093l-2.666.311A1.02,1.02,0,0,0,562.643,329.483Z"/>
    <path id="路径_9503" data-name="路径 9503" class="cls-2" d="M561.505,334.136l-.119.257a1.02,1.02,0,0,0,.239,1.18l1.225,1.117a1.019,1.019,0,0,0,1.331.038l.42-.342a1.02,1.02,0,0,0,.275-1.231l-.389-.813a1.022,1.022,0,0,0-.726-.561l-1.137-.219A1.02,1.02,0,0,0,561.505,334.136Z"/>
    <circle id="椭圆_1452" data-name="椭圆 1452" class="cls-7" cx="7.234" cy="7.234" r="7.234" transform="translate(588.511 304.687)"/>
    <circle id="椭圆_1453" data-name="椭圆 1453" class="cls-8" cx="5.106" cy="5.106" r="5.106" transform="translate(588.639 306.815)"/>
    <ellipse id="椭圆_1454" data-name="椭圆 1454" class="cls-9" cx="2.026" cy="1.305" rx="2.026" ry="1.305" transform="translate(595.051 310.616)"/>
    <circle id="椭圆_1455" data-name="椭圆 1455" class="cls-7" cx="7.234" cy="7.234" r="7.234" transform="translate(563.798 304.687)"/>
    <circle id="椭圆_1456" data-name="椭圆 1456" class="cls-8" cx="5.106" cy="5.106" r="5.106" transform="translate(567.926 306.815)"/>
    <ellipse id="椭圆_1457" data-name="椭圆 1457" class="cls-9" cx="2.026" cy="1.305" rx="2.026" ry="1.305" transform="translate(567.606 310.616)"/>
  </g>
</svg>
