<svg xmlns="http://www.w3.org/2000/svg" width="133.038" height="121.92" viewBox="0 0 133.038 121.92">
  <defs>
    <style>
      .cls-1 {
        fill: #b6b9c7;
      }

      .cls-2 {
        fill: #ece7e6;
      }

      .cls-3 {
        fill: #9aaab5;
      }

      .cls-4 {
        fill: #fec1c3;
      }

      .cls-5 {
        fill: #f8696c;
      }

      .cls-6 {
        fill: none;
        stroke: #f8696c;
        stroke-linecap: round;
        stroke-linejoin: round;
        stroke-width: 2px;
      }

      .cls-7 {
        fill: #fff;
      }

      .cls-8 {
        fill: #2b71b0;
      }

      .cls-9 {
        fill: #e7ffff;
      }

      .cls-10 {
        fill: #9ea1af;
      }

      .cls-11 {
        fill: #fcb2a9;
      }
    </style>
  </defs>
  <g id="组_3708" data-name="组 3708" transform="translate(-651.975 -325.414)">
    <path id="路径_9525" data-name="路径 9525" class="cls-1" d="M707.387,415.061s-3.177,7.274-4.709,9.871-3.065,4.957-2.682,6.256,2.639,3.541,3.666,2.36,4.954-9.325,5.242-9.8-1.341,10.269,0,12.866,14.367,5.43,18.485,2.833,5.651-3.305,5.939-6.61,0-11.8,0-11.8,3.448,9.678,4.884,10.387,4.119-1.417,3.736-2.951-7.183-13.216-7.183-13.216S726.464,402.475,707.387,415.061Z"/>
    <path id="路径_9526" data-name="路径 9526" class="cls-1" d="M709.731,437.461s.9,1.871-1.019,4.35-2.011,4.839,0,5.311,7.758.236,8.237-1.534.383-8.127.383-8.127Z"/>
    <path id="路径_9527" data-name="路径 9527" class="cls-1" d="M730.78,437.461s-.9,1.871,1.019,4.35,2.011,4.839,0,5.311-7.758.236-8.237-1.534-.383-8.127-.383-8.127Z"/>
    <ellipse id="椭圆_1473" data-name="椭圆 1473" class="cls-2" cx="8.647" cy="10.656" rx="8.647" ry="10.656" transform="translate(712.443 412.565)"/>
    <path id="路径_9528" data-name="路径 9528" class="cls-3" d="M733.328,432.84s.838,3.748,4.214,1.977a5.545,5.545,0,0,1,7.758,2.644,7.968,7.968,0,0,1,1.006,4.084,2.91,2.91,0,0,1-1.509-1.593c-.646-1.328-2.586-4.8-5.962-2.491s-6.492-.373-6.694-1.42S733.328,432.84,733.328,432.84Z"/>
    <circle id="椭圆_1474" data-name="椭圆 1474" class="cls-1" cx="25.457" cy="25.457" r="25.457" transform="translate(651.975 325.414)"/>
    <circle id="椭圆_1475" data-name="椭圆 1475" class="cls-4" cx="19.905" cy="19.905" r="19.905" transform="translate(657.528 330.966)"/>
    <circle id="椭圆_1476" data-name="椭圆 1476" class="cls-1" cx="25.457" cy="25.457" r="25.457" transform="translate(734.099 325.414)"/>
    <circle id="椭圆_1477" data-name="椭圆 1477" class="cls-4" cx="19.905" cy="19.905" r="19.905" transform="translate(739.652 330.966)"/>
    <path id="路径_9529" data-name="路径 9529" class="cls-1" d="M722.9,336.623s-3.562,5.448,0,7.962c2.514-.349,16.552,1.467,25.143,12.362s8.8,18.438,8.59,19.7-1.8,6.077.044,10.686,7.012,18.757-8.215,24.933c-18.96,7.691-61.2,6.1-67.384-5.952s-.292-20.238.336-21.495-3.282-22.559,15.61-34.153a77.359,77.359,0,0,1,13.165-5.866s-1.17-4.243.82-5.972l1.886-.995s.053,3.667.786,4.4S714.78,335.262,722.9,336.623Z"/>
    <path id="路径_9530" data-name="路径 9530" class="cls-5" d="M712.423,392.147s-.629-3.771,6.285-3.352,7.543.1,7.753,2.409-3.772,8.695-5.867,9.115S714.623,400.423,712.423,392.147Z"/>
    <line id="直线_118" data-name="直线 118" class="cls-6" x2="0.067" y2="6.364" transform="translate(718.878 400.425)"/>
    <path id="路径_9531" data-name="路径 9531" class="cls-2" d="M716.044,406.085l-.217,4.553s1.781.419,2.462,0,.769-3.981.769-3.981.489,3.934.96,4.167,2.3.291,2.409,0,0-4.739,0-4.739A18.243,18.243,0,0,1,716.044,406.085Z"/>
    <path id="路径_9532" data-name="路径 9532" class="cls-6" d="M707.394,402.274s9.638,9.079,24.654,0"/>
    <circle id="椭圆_1478" data-name="椭圆 1478" class="cls-7" cx="7.618" cy="7.618" r="7.618" transform="translate(732.388 376.543)"/>
    <circle id="椭圆_1479" data-name="椭圆 1479" class="cls-8" cx="5.923" cy="5.923" r="5.923" transform="translate(733.248 379.803)"/>
    <circle id="椭圆_1480" data-name="椭圆 1480" class="cls-9" cx="2.347" cy="2.347" r="2.347" transform="translate(740.858 382.368)"/>
    <circle id="椭圆_1481" data-name="椭圆 1481" class="cls-7" cx="7.618" cy="7.618" r="7.618" transform="translate(692.686 376.412)"/>
    <circle id="椭圆_1482" data-name="椭圆 1482" class="cls-8" cx="5.923" cy="5.923" r="5.923" transform="translate(695.216 379.673)"/>
    <circle id="椭圆_1483" data-name="椭圆 1483" class="cls-9" cx="2.347" cy="2.347" r="2.347" transform="translate(694.076 382.237)"/>
    <path id="路径_9533" data-name="路径 9533" class="cls-10" d="M735.841,366.819s-2.569-2.316,1.626-2.433,7.37,2.367,7.576,4.173-2.186,1.384-3.281.7-3.008-1.568-3.934-1.483S735.841,366.819,735.841,366.819Z"/>
    <path id="路径_9534" data-name="路径 9534" class="cls-10" d="M702.161,366.769s2.261-2.617-1.916-2.212-7.019,3.264-7,5.082,2.341,1.1,3.342.287,2.791-1.93,3.72-1.96S702.161,366.769,702.161,366.769Z"/>
    <path id="路径_9535" data-name="路径 9535" class="cls-11" d="M743.205,403.607a12.18,12.18,0,0,0,4.079,9.1c.4-.146.8-.289,1.177-.443,11.8-4.785,11.35-14.354,9.694-20.566a12.2,12.2,0,0,0-14.95,11.912Z"/>
    <path id="路径_9536" data-name="路径 9536" class="cls-11" d="M695.215,403.607a12.206,12.206,0,0,0-16.658-11.386,22.133,22.133,0,0,0,2.52,14.088c1.457,2.84,4.933,5.091,9.618,6.785A12.2,12.2,0,0,0,695.215,403.607Z"/>
  </g>
</svg>
