<svg xmlns="http://www.w3.org/2000/svg" width="79.52" height="116.881" viewBox="0 0 79.52 116.881">
  <defs>
    <style>
      .cls-1 {
        fill: #4e923d;
      }

      .cls-2 {
        fill: #4a8c4a;
      }

      .cls-3 {
        fill: #fff;
      }

      .cls-4 {
        fill: #2b71b0;
      }

      .cls-5 {
        fill: #e7ffff;
      }

      .cls-6 {
        fill: #68af48;
      }

      .cls-7 {
        fill: #c5db82;
      }

      .cls-8 {
        fill: #fcb2a9;
      }

      .cls-9 {
        fill: none;
        stroke: #fcb2a9;
        stroke-linecap: round;
        stroke-linejoin: round;
        stroke-width: 2px;
      }
    </style>
  </defs>
  <g id="组_3709" data-name="组 3709" transform="translate(-1085.05 -330.453)">
    <path id="路径_9537" data-name="路径 9537" class="cls-1" d="M1109.764,432.633s-.122,5.879,1.47,7.717,0,2.327-.736,3.184-2.694,3.063,2.206,3.43,6.369,1.592,7.839-4.042.245-9.8,0-10.289S1111.127,429.326,1109.764,432.633Z"/>
    <path id="路径_9538" data-name="路径 9538" class="cls-1" d="M1142.566,432.633s.123,5.879-1.47,7.717,0,2.327.736,3.184,2.694,3.063-2.206,3.43-6.369,1.592-7.839-4.042-.245-9.8,0-10.289S1141.2,429.326,1142.566,432.633Z"/>
    <path id="路径_9539" data-name="路径 9539" class="cls-1" d="M1102.17,407.4s-5.635,4.655-10.044,6.125-4.165,9.309,3.919,9.554,8.819-2.45,8.819-2.45-.526,9.736,3.228,14.544c5.1,6.534,33.351,5.708,34.989-.09a41.877,41.877,0,0,0,1.023-16.14s6.816,6.1,10.246,5.606,4.9-6.37,2.7-8.575-10.534-5.144-10.534-8.574S1111.234,388.782,1102.17,407.4Z"/>
    <path id="路径_9540" data-name="路径 9540" class="cls-2" d="M1096.055,350.966s-7.332-22.935,12.783-20.3c7.9,2.632,10.716,14.1,10.716,14.1s7.825-1.41,12.478.635c0,0,2.749-11.914,12.971-12.972s12.408,8.53,12.549,9.94a16.716,16.716,0,0,1-1.551,11.28c1.621,1.692,9.94,12.619,8.177,28.2s-14.381,21.29-18.752,22.488c-4.582,1.41-34.473,7.4-48.572-5.569-6.063-4.23-16.5-18.893-9.447-35.249C1091.731,354.35,1096.055,350.966,1096.055,350.966Z"/>
    <circle id="椭圆_1484" data-name="椭圆 1484" class="cls-3" cx="4.334" cy="4.334" r="4.334" transform="translate(1141.109 338.942)"/>
    <circle id="椭圆_1485" data-name="椭圆 1485" class="cls-4" cx="3.37" cy="3.37" r="3.37" transform="translate(1141.724 340.853)"/>
    <circle id="椭圆_1486" data-name="椭圆 1486" class="cls-5" cx="1.335" cy="1.335" r="1.335" transform="translate(1145.954 342.005)"/>
    <circle id="椭圆_1487" data-name="椭圆 1487" class="cls-3" cx="4.334" cy="4.334" r="4.334" transform="translate(1102.644 337.422)"/>
    <circle id="椭圆_1488" data-name="椭圆 1488" class="cls-4" cx="3.37" cy="3.37" r="3.37" transform="translate(1103.761 339.384)"/>
    <circle id="椭圆_1489" data-name="椭圆 1489" class="cls-5" cx="1.335" cy="1.335" r="1.335" transform="translate(1103.822 340.115)"/>
    <path id="路径_9541" data-name="路径 9541" class="cls-6" d="M1096.055,350.966s8.13,12.689,26.6,15.227,31.571-7.051,33.345-12.548c0,0,11.382,11.136,7.911,30.03s-22.8,21.655-22.8,21.655-20.77,4.63-35.967-1.509a31.375,31.375,0,0,1-19.973-26.538C1084.493,369.953,1087.313,356.418,1096.055,350.966Z"/>
    <path id="路径_9542" data-name="路径 9542" class="cls-7" d="M1096.854,398.763s7.049-16.919,29.185-14.664,24.241,18.006,24.241,18.006-5.781,4.822-26.713,4.9C1110.107,406.942,1099.674,402.429,1096.854,398.763Z"/>
    <path id="路径_9543" data-name="路径 9543" class="cls-8" d="M1144.237,371.83a12.675,12.675,0,0,0,19.4,12.834,35.343,35.343,0,0,0-2.1-22.35,12.675,12.675,0,0,0-17.3,9.516Z"/>
    <path id="路径_9544" data-name="路径 9544" class="cls-8" d="M1106.044,367.716a12.679,12.679,0,0,0-15.455-9.09,11.322,11.322,0,0,0-1.8.685,37.1,37.1,0,0,0-3.31,10.667,28.3,28.3,0,0,0,.246,10.915,13.175,13.175,0,0,0,11.231,2.278A12.68,12.68,0,0,0,1106.044,367.716Z"/>
    <path id="路径_9545" data-name="路径 9545" class="cls-9" d="M1114.948,354.726s10.716,8.741,22.089.658"/>
    <ellipse id="椭圆_1490" data-name="椭圆 1490" class="cls-7" cx="12.466" cy="11.719" rx="12.466" ry="11.719" transform="translate(1112.738 410.308)"/>
  </g>
</svg>
