<svg xmlns="http://www.w3.org/2000/svg" xmlns:xlink="http://www.w3.org/1999/xlink" width="1127.895" height="684.279" viewBox="0 0 1127.895 684.279">
  <defs>
    <style>
      .cls-1 {
        fill: #eeb896;
      }

      .cls-2 {
        fill: #a7663f;
      }

      .cls-3 {
        fill: #ffe99c;
      }

      .cls-4 {
        fill: #eb764a;
      }

      .cls-5 {
        fill: #e3a176;
      }

      .cls-6 {
        fill: #ba7050;
      }

      .cls-7 {
        fill: #f9e5cb;
      }

      .cls-8 {
        stroke: #fff;
        stroke-miterlimit: 10;
        opacity: 0.8;
        fill: url(#linear-gradient);
      }

      .cls-9 {
        fill: #b9796b;
      }

      .cls-10 {
        fill: #b47c6b;
      }

      .cls-11 {
        fill: #bf7f6c;
      }

      .cls-12, .cls-16 {
        fill: #ff7599;
      }

      .cls-13, .cls-14, .cls-15 {
        fill: #964615;
      }

      .cls-14 {
        font-size: 35.721px;
      }

      .cls-14, .cls-15, .cls-16 {
        font-family: TimesNewRomanPS-BoldMT, Times New Roman;
        font-weight: 700;
      }

      .cls-15, .cls-16 {
        font-size: 35.72px;
      }

      .cls-17 {
        fill: #fff;
      }

      .cls-18 {
        fill: #7c4319;
      }

      .cls-19 {
        fill: #e33232;
      }

      .cls-20 {
        fill: #955824;
      }

      .cls-21 {
        fill: #edce9f;
      }

      .cls-22 {
        fill: #774c1d;
      }

      .cls-23 {
        fill: #763c19;
      }

      .cls-24 {
        fill: none;
        stroke: #763c19;
        stroke-linecap: round;
        stroke-linejoin: round;
        stroke-width: 2px;
      }

      .cls-25 {
        fill: #2b71b0;
      }

      .cls-26 {
        fill: #e7ffff;
      }

      .cls-27 {
        fill: #fcb2a9;
      }

      .cls-28 {
        fill: #a7a5a5;
      }

      .cls-29 {
        fill: #c6c4c5;
      }

      .cls-30 {
        fill: #c5c5c5;
      }

      .cls-31 {
        fill: #a6a7a4;
      }

      .cls-32 {
        fill: #ece7e6;
      }
    </style>
    <linearGradient id="linear-gradient" y1="0.5" x2="1" y2="0.5" gradientUnits="objectBoundingBox">
      <stop offset="0" stop-color="#fff" stop-opacity="0.302"/>
      <stop offset="1" stop-color="#fff" stop-opacity="0.302"/>
    </linearGradient>
  </defs>
  <g id="组_4011" data-name="组 4011" transform="translate(-87.875)">
    <g id="组_3776" data-name="组 3776">
      <path id="路径_10229" data-name="路径 10229" class="cls-1" d="M1107.246,670.85c-12.88-.39-781.08,2.74-864.2,3.91-59.52.84-71.22-9.48-71.77-40.56v-.02c-.11-6.23.23-13.3.72-21.28.37-6.1.83-12.72,1.25-19.92q.18-3,.34-6.13c1.75-428.48,35.9-514.24,35.9-514.24,5.66-10.54,17.17-14.05,66.54-18.15,80.78-8.78,693.95,1.76,765.95,2.34,23.3.19,40.16.32,52.61,1.57a.419.419,0,0,1,.07.01c25.96,2.61,32.7,10.11,38.63,33.25,11.24,44.46,18.34,177.42,22.82,298.53v.02q.54,14.34,1.02,28.4c2.94,85.23,4.59,160.27,5.53,187.88C1165,675.54,1120.116,671.24,1107.246,670.85Z"/>
      <g id="组_3775" data-name="组 3775">
        <path id="路径_10230" data-name="路径 10230" class="cls-2" d="M502.743,62.475l-1.426,18.089a27.9,27.9,0,0,0,27.826,30.1l232.056-.084a24.869,24.869,0,0,0,24.744-25.93l-.314-7.353Z"/>
        <path id="路径_10231" data-name="路径 10231" class="cls-3" d="M785.616,80.01a16.293,16.293,0,0,1-13.36,16.67,15.991,15.991,0,0,1-2.79.27l-8.66.08-242.73,2.14a17.021,17.021,0,0,1-12.83-5.64.01.01,0,0,1-.01-.01,17.033,17.033,0,0,1-4.25-13.63l4.23-32.56a24.758,24.758,0,0,1,24.54-21.55h226.47c.35,0,.69.01,1.03.03a28.373,28.373,0,0,1,27.33,27.26Z"/>
        <path id="路径_10232" data-name="路径 10232" class="cls-4" d="M785.616,80.01a16.293,16.293,0,0,1-13.36,16.67l-11.45.35-242.73,2.14a17.021,17.021,0,0,1-12.83-5.64.01.01,0,0,1-.01-.01,16.944,16.944,0,0,1-1.11-8.15l3.53-32.64a24.753,24.753,0,0,1,24.07-22.08l225.53-4.84a28.373,28.373,0,0,1,27.33,27.26Z"/>
        <path id="路径_10233" data-name="路径 10233" class="cls-5" d="M708.026,25.78H593.286S591.826,5.24,600.026,0h103.9S707.726,4.41,708.026,25.78Z"/>
        <path id="路径_10234" data-name="路径 10234" class="cls-6" d="M708.026,25.78H599.246S597.776,5.24,605.976,0h97.95S707.726,4.41,708.026,25.78Z"/>
      </g>
      <path id="路径_10235" data-name="路径 10235" class="cls-7" d="M246.659,111.829s2.926,85.535-7.61,99.841-4.976,135.476-4.976,143.086-12,158.342-4.39,172.39c1.463,5.269-3.884,32.781-2.528,36.586s35.016,14.341,127.8,11.707c44.488,0,63.025,9.561,118.634,11.707s548.1,3.513,628.293-19.9c1.756-22.244-20.308-437.854-20.4-448.976-18.821-2.927-87.895,0-97.846,1.171S283.537,107.146,246.659,111.829Z"/>
      <path id="路径_10236" data-name="路径 10236" class="cls-8" d="M261.974,84.317l-63.22,59.415,11.415-2.342-5.269,8.488,9.952-2.927L208.12,157.2l9.658-4.1-3.219,5.268h7.317l-1.463,5.854,8.45-3.513V168.9l69.989-58.242s-8.2.879-8.2,0-.292-7.611-.292-7.611l-3.512.878-2.927-4.756-6.732,2.122,4.39-4.976-6.439,2.854-.585-5.195-3.22,2.926-1.463-8.487-3.22,1.463-.292-3.311-5.561,2.14Z"/>
      <path id="路径_10237" data-name="路径 10237" class="cls-8" d="M1051.787,93.124l-25.421,63.506,7.381-5.472-.942,7.82,6.14-5.4-1.4,9.563,5.541-6.143-.548,4.837,5.23-2.435.9,4.671,4.871-5.322,2.727,5.858,30.649-64.922s-5.565,3.356-5.858,2.727-2.742-5.343-2.742-5.343l-2.218,1.8-3.675-2.426-4.106,3.757,1.483-5.018-3.653,4.182L1064,95.84,1062.669,99l-3.87-5.58-1.814,2.117-1.311-2.269-3.263,3.38Z"/>
      <path id="路径_10238" data-name="路径 10238" class="cls-9" d="M1107.246,670.85c-12.88-.39-781.08,2.74-864.2,3.91-59.52.84-71.22-9.48-71.77-40.56.13.76,4.17,22.62,54.21,23.97,50.93,1.37,835.51-1.37,868.29-2.54s52.1,8.2,56.2-52.68-11.45-158.6,7.15-184.37c2.94,85.23,4.59,160.27,5.53,187.88C1165,675.54,1120.116,671.24,1107.246,670.85Z"/>
      <path id="路径_10239" data-name="路径 10239" class="cls-10" d="M1156.106,390.16c-2.35-14.64-10.23-14.33-11.99-24.28s-16.68-213.95-21.07-258.73c-4.25-43.38-26.97-48.49-28.39-48.77,25.96,2.61,32.7,10.11,38.63,33.25C1144.526,136.09,1151.626,269.05,1156.106,390.16Z"/>
      <path id="路径_10240" data-name="路径 10240" class="cls-11" d="M261.676,597.1c-4.39.14-34.24,2.34-34.24,2.34s20.2,2.63,27.07,2.49S194.256,617.44,172,612.9c.37-6.1.83-12.72,1.25-19.92l97.36,1.04S266.066,596.95,261.676,597.1Z"/>
    </g>
    <g id="组_3777" data-name="组 3777" transform="translate(0 20)">
      <path id="路径_25670" data-name="路径 25670" class="cls-12" d="M6.463-11.3h4.854v-1.659H7.1V-15.3h4.22v-1.683H5.78v8.2q0,8-2.829,12.317Q1.537,2.232.146,1.183,2.439-2.159,2.415-9.134V-19.817H23.293V-1.841a5.781,5.781,0,0,1-.921,3.555,3.3,3.3,0,0,1-2.659,1.262q-1.738.061-3.86.037-.341-1.756-.732-3.268,1.122.1,2.512.1,1.744,0,2.018-.61a3.114,3.114,0,0,0,.274-1.293V-16.988H14.488V-15.3h4.22v2.341h-4.22V-11.3h4.8v2.39H6.463ZM7.634-7.476H18.073V-.915H10.732V.28h-3.1Zm7.341,4.268V-5.183H10.732v1.976ZM27.9,3.037V-19.4H47.171V3.037H43.415V1.329H31.658V3.037ZM43.415-15.939H31.658v5.122H43.415ZM31.658-2.134H43.415V-7.451H31.658Z" transform="translate(324.025 177.824)"/>
      <path id="路径_25671" data-name="路径 25671" class="cls-13" d="M6.463-11.3h4.854v-1.659H7.1V-15.3h4.22v-1.683H5.78v8.2q0,8-2.829,12.317Q1.537,2.232.146,1.183,2.439-2.159,2.415-9.134V-19.817H23.293V-1.841a5.781,5.781,0,0,1-.921,3.555,3.3,3.3,0,0,1-2.659,1.262q-1.738.061-3.86.037-.341-1.756-.732-3.268,1.122.1,2.512.1,1.744,0,2.018-.61a3.114,3.114,0,0,0,.274-1.293V-16.988H14.488V-15.3h4.22v2.341h-4.22V-11.3h4.8v2.39H6.463ZM7.634-7.476H18.073V-.915H10.732V.28h-3.1Zm7.341,4.268V-5.183H10.732v1.976ZM25.707-10.6H49.268v3.61H25.707Z" transform="translate(428.057 177.824)"/>
      <path id="路径_25672" data-name="路径 25672" class="cls-13" d="M6.463-11.3h4.854v-1.659H7.1V-15.3h4.22v-1.683H5.78v8.2q0,8-2.829,12.317Q1.537,2.232.146,1.183,2.439-2.159,2.415-9.134V-19.817H23.293V-1.841a5.781,5.781,0,0,1-.921,3.555,3.3,3.3,0,0,1-2.659,1.262q-1.738.061-3.86.037-.341-1.756-.732-3.268,1.122.1,2.512.1,1.744,0,2.018-.61a3.114,3.114,0,0,0,.274-1.293V-16.988H14.488V-15.3h4.22v2.341h-4.22V-11.3h4.8v2.39H6.463ZM7.634-7.476H18.073V-.915H10.732V.28h-3.1Zm7.341,4.268V-5.183H10.732v1.976Zm12.537-14.9h19.9v3.659h-19.9ZM25.756-3.037H49.219V.671H25.756Z" transform="translate(532.089 177.824)"/>
      <path id="路径_25673" data-name="路径 25673" class="cls-13" d="M6.463-11.3h4.854v-1.659H7.1V-15.3h4.22v-1.683H5.78v8.2q0,8-2.829,12.317Q1.537,2.232.146,1.183,2.439-2.159,2.415-9.134V-19.817H23.293V-1.841a5.781,5.781,0,0,1-.921,3.555,3.3,3.3,0,0,1-2.659,1.262q-1.738.061-3.86.037-.341-1.756-.732-3.268,1.122.1,2.512.1,1.744,0,2.018-.61a3.114,3.114,0,0,0,.274-1.293V-16.988H14.488V-15.3h4.22v2.341h-4.22V-11.3h4.8v2.39H6.463ZM7.634-7.476H18.073V-.915H10.732V.28h-3.1Zm7.341,4.268V-5.183H10.732v1.976ZM27.219-18.744H47.658v3.61H27.219Zm1.1,8.244H46.561v3.512H28.317Zm-2.61,8.683H49.268v3.61H25.707Z" transform="translate(636.121 177.824)"/>
      <path id="路径_25674" data-name="路径 25674" class="cls-13" d="M6.463-11.3h4.854v-1.659H7.1V-15.3h4.22v-1.683H5.78v8.2q0,8-2.829,12.317Q1.537,2.232.146,1.183,2.439-2.159,2.415-9.134V-19.817H23.293V-1.841a5.781,5.781,0,0,1-.921,3.555,3.3,3.3,0,0,1-2.659,1.262q-1.738.061-3.86.037-.341-1.756-.732-3.268,1.122.1,2.512.1,1.744,0,2.018-.61a3.114,3.114,0,0,0,.274-1.293V-16.988H14.488V-15.3h4.22v2.341h-4.22V-11.3h4.8v2.39H6.463ZM7.634-7.476H18.073V-.915H10.732V.28h-3.1Zm7.341,4.268V-5.183H10.732v1.976ZM26.488,3.11V-19.329H48.439V3.085H44.9V1.549H30.024V3.11ZM44.878-8.134a25.625,25.625,0,0,0-.634,3.22H41.366q-2.878,0-2.878-3v-8.122H36.073v4.927A8.126,8.126,0,0,1,32.537-3.89q-.927-.78-2.512-1.927v4.073H44.9V-16.037h-3.2V-9.28a1.013,1.013,0,0,0,1.146,1.146ZM32.854-11.378v-4.659H30.024V-6.024A5.635,5.635,0,0,0,32.854-11.378Z" transform="translate(740.153 177.824)"/>
      <path id="路径_25675" data-name="路径 25675" class="cls-13" d="M6.463-11.3h4.854v-1.659H7.1V-15.3h4.22v-1.683H5.78v8.2q0,8-2.829,12.317Q1.537,2.232.146,1.183,2.439-2.159,2.415-9.134V-19.817H23.293V-1.841a5.781,5.781,0,0,1-.921,3.555,3.3,3.3,0,0,1-2.659,1.262q-1.738.061-3.86.037-.341-1.756-.732-3.268,1.122.1,2.512.1,1.744,0,2.018-.61a3.114,3.114,0,0,0,.274-1.293V-16.988H14.488V-15.3h4.22v2.341h-4.22V-11.3h4.8v2.39H6.463ZM7.634-7.476H18.073V-.915H10.732V.28h-3.1Zm7.341,4.268V-5.183H10.732v1.976ZM25.463-.7h4.951L31.8-8.6h-4.78v-3.073h5.317l.878-4.878H26.341v-3.073h22.1v3.073H36.878L36-11.671h9.951V-.7h3.634V2.378H25.463ZM42.341-8.6H35.463L34.073-.7h8.268Z" transform="translate(844.185 177.824)"/>
      <path id="路径_25676" data-name="路径 25676" class="cls-12" d="M6.463-11.3h4.854v-1.659H7.1V-15.3h4.22v-1.683H5.78v8.2q0,8-2.829,12.317Q1.537,2.232.146,1.183,2.439-2.159,2.415-9.134V-19.817H23.293V-1.841a5.781,5.781,0,0,1-.921,3.555,3.3,3.3,0,0,1-2.659,1.262q-1.738.061-3.86.037-.341-1.756-.732-3.268,1.122.1,2.512.1,1.744,0,2.018-.61a3.114,3.114,0,0,0,.274-1.293V-16.988H14.488V-15.3h4.22v2.341h-4.22V-11.3h4.8v2.39H6.463ZM7.634-7.476H18.073V-.915H10.732V.28h-3.1Zm7.341,4.268V-5.183H10.732v1.976ZM25.707-15.085H36.78Q35.7-17.3,34.415-19.5l3.463-1.561q1.244,1.951,2.634,4.537L37.3-15.085h12.11v3.463H25.707ZM42.244-9.744A124.5,124.5,0,0,1,49.634.646L46.171,2.817a107.62,107.62,0,0,0-7.049-10.61ZM32.1-9.524,35.61-7.7a69.732,69.732,0,0,1-7.2,10.683L25.341.646A47.039,47.039,0,0,0,32.1-9.524Z" transform="translate(948.218 177.824)"/>
      <text id="_1" data-name="1" class="cls-14" transform="translate(765.194 241)"><tspan x="-8.93" y="0">1</tspan></text>
      <text id="_8" data-name="8" class="cls-14" transform="translate(765.194 301.82)"><tspan x="-8.93" y="0">8</tspan></text>
      <text id="_7" data-name="7" class="cls-15" transform="translate(652.23 301.821)"><tspan x="0" y="0">7</tspan></text>
      <text id="_14" data-name="14" class="cls-15" transform="translate(660.161 362.32)"><tspan x="-17.86" y="0">14</tspan></text>
      <text id="_21" data-name="21" class="cls-15" transform="translate(660.161 422.82)"><tspan x="-17.86" y="0">21</tspan></text>
      <text id="_28" data-name="28" class="cls-15" transform="translate(660.161 483.319)"><tspan x="-17.86" y="0">28</tspan></text>
      <text id="_6" data-name="6" class="cls-15" transform="translate(548.199 301.821)"><tspan x="0" y="0">6</tspan></text>
      <text id="_13" data-name="13" class="cls-15" transform="translate(556.13 362.32)"><tspan x="-17.86" y="0">13</tspan></text>
      <text id="_20" data-name="20" class="cls-15" transform="translate(556.13 422.82)"><tspan x="-17.86" y="0">20</tspan></text>
      <text id="_27" data-name="27" class="cls-15" transform="translate(556.13 483.319)"><tspan x="-17.86" y="0">27</tspan></text>
      <text id="_5" data-name="5" class="cls-15" transform="translate(444.166 301.821)"><tspan x="0" y="0">5</tspan></text>
      <text id="_12" data-name="12" class="cls-15" transform="translate(452.097 362.32)"><tspan x="-17.86" y="0">12</tspan></text>
      <text id="_19" data-name="19" class="cls-15" transform="translate(452.097 422.82)"><tspan x="-17.86" y="0">19</tspan></text>
      <text id="_26" data-name="26" class="cls-15" transform="translate(452.097 483.319)"><tspan x="-17.86" y="0">26</tspan></text>
      <text id="_4" data-name="4" class="cls-16" transform="translate(340.134 301.821)"><tspan x="0" y="0">4</tspan></text>
      <text id="_11" data-name="11" class="cls-16" transform="translate(348.065 362.32)"><tspan x="-16.875" y="0">11</tspan></text>
      <text id="_18" data-name="18" class="cls-16" transform="translate(348.065 422.82)"><tspan x="-17.86" y="0">18</tspan></text>
      <text id="_25" data-name="25" class="cls-16" transform="translate(348.065 483.319)"><tspan x="-17.86" y="0">25</tspan></text>
      <text id="_3" data-name="3" class="cls-16" transform="translate(964.102 241)"><tspan x="0" y="0">3</tspan></text>
      <text id="_10" data-name="10" class="cls-16" transform="translate(973.033 302.32)"><tspan x="-17.86" y="0">10</tspan></text>
      <text id="_17" data-name="17" class="cls-16" transform="translate(973.033 362.82)"><tspan x="-17.86" y="0">17</tspan></text>
      <text id="_24" data-name="24" class="cls-16" transform="translate(974.033 423.319)"><tspan x="-17.86" y="0">24</tspan></text>
      <text id="_2" data-name="2" class="cls-14" transform="translate(869.001 241)"><tspan x="-8.93" y="0">2</tspan></text>
      <text id="_9" data-name="9" class="cls-14" transform="translate(869 302.32)"><tspan x="-8.93" y="0">9</tspan></text>
      <text id="_16" data-name="16" class="cls-14" transform="translate(868.999 362.82)"><tspan x="-17.861" y="0">16</tspan></text>
      <text id="_23" data-name="23" class="cls-14" transform="translate(869.999 423.319)"><tspan x="-17.861" y="0">23</tspan></text>
      <text id="_30" data-name="30" class="cls-14" transform="translate(868.999 483.694)"><tspan x="-17.861" y="0">30</tspan></text>
      <text id="_15" data-name="15" class="cls-14" transform="translate(764.194 362.32)"><tspan x="-17.861" y="0">15</tspan></text>
      <text id="_22" data-name="22" class="cls-14" transform="translate(764.194 422.82)"><tspan x="-17.861" y="0">22</tspan></text>
      <text id="_29" data-name="29" class="cls-14" transform="translate(764.194 483.32)"><tspan x="-17.861" y="0">29</tspan></text>
      <text id="_31" data-name="31" class="cls-14" transform="translate(972.999 483.694)"><tspan x="-17.861" y="0">31</tspan></text>
    </g>
    <path id="路径_25669" data-name="路径 25669" class="cls-17" d="M13.1-25.034h3.75v2.9H28.477v3.223H19.16a29.8,29.8,0,0,0,10.488,3.574q-.937,1.67-1.875,3.662a31.469,31.469,0,0,1-10.928-5.449v5.215H13.1v-5.259A35.424,35.424,0,0,1,2.49-11.5Q1.553-13.228.41-14.927a38.082,38.082,0,0,0,10.327-3.984H1.523v-3.223H13.1Zm9.814,29H19.453V-3.545a29.2,29.2,0,0,1-5.068,6.284Q13.213.806,12.158-.659A22.007,22.007,0,0,0,18.413-6.9H15V-10h4.453v-2.93H22.91V-10h5.566V-6.9H23.848a17.309,17.309,0,0,0,5.8,5.537q-1.2,2.256-1.875,3.75a24.432,24.432,0,0,1-4.863-5.9ZM1.2-10.034H6.24v-2.9H9.7v2.9h4.277v3.105H9.7v1.772l1.787-1.479q1.26,1.113,3.076,2.959L11.895-1.333q-1.172-1.421-2.2-2.52V3.97H6.24V-2.769A26.953,26.953,0,0,1,2.314,2.563Q1.172.747.088-.688A23.206,23.206,0,0,0,5.6-6.929H1.2ZM57.158,3.823V-11.514A36.211,36.211,0,0,1,51.387-.044q-1.348-2.168-2.578-3.809a34.767,34.767,0,0,0,7.163-11.953H52v-3.75h5.156v-5.215h3.867v5.215h6.68v3.75H62.227Q64.717-8.555,68.7-4.7q-1.084,1.67-2.549,4.1-3.12-3.6-5.127-11.484V3.823ZM39.316-7.485a39.477,39.477,0,0,0,4.146-8.35H39.58v-3.75H43.8v-5.186h3.867v5.186h3.105v3.75H47.666v1.948q2.593,1.919,4.658,3.735L49.951-7.163q-1-1.113-2.285-2.388V3.823H43.8v-12.1A44.684,44.684,0,0,1,40.664-2.3Q40.2-4.233,39.316-7.485ZM82.559-25.093q2.2,2.7,4.248,5.625l-3.6,2.373a61.729,61.729,0,0,0-3.984-5.859Zm22.676,5.361H88.857V-23.54h16.377Zm-3.779,7.588A94.35,94.35,0,0,1,106.9-3.618l-3.545,1.875q-.557-1.055-1.128-2.08-9.316.542-13.608,1.113L87.041-5.991a20.074,20.074,0,0,0,4.79-6.416H87.012v-3.809h19.922v3.809H96.606a47.9,47.9,0,0,1-3.765,5.6q2.9-.1,7.456-.4-1-1.626-2.007-3.149ZM107.461-.63l-1.318,3.838q-16.714.117-19-.432A6.419,6.419,0,0,1,83.438.366q-1.816,1.729-3.545,3.6L78.252-.6q1.362-1.245,2.9-2.446v-8.1H78.486v-3.867H85.2V-3.091a6.907,6.907,0,0,0,2.117,1.743,6.988,6.988,0,0,0,2.446.762q1.267.146,5.413.132Q99.741-.454,107.461-.63Zm20.918-9.58,3.12,7.383q2.007-3.633,1.963-13.3h-2.974V-20h3.062l.044-4.98h3.9L137.432-20h7.676l-.337,16.553a28.479,28.479,0,0,1-.286,4.175,3.218,3.218,0,0,1-.813,1.487,3.531,3.531,0,0,1-1.611.945,27.429,27.429,0,0,1-5.244.337q-.469-2.227-1.055-4.395,1.934.117,3.208.117a2.161,2.161,0,0,0,1.3-.337,1.365,1.365,0,0,0,.535-.974q.081-.637.19-4.5t.154-9.543h-3.794a89.361,89.361,0,0,1-.527,9.353,22.505,22.505,0,0,1-1.626,5.706,19.07,19.07,0,0,1-3.193,5.127A33.937,33.937,0,0,0,128.438,1.6,16.209,16.209,0,0,0,129.99-.234l-8.13.688a11.3,11.3,0,0,0-2.8.615l-1.816-3.545q1.538-1.245,3.765-9.2h-3.647v-3.75H130.9v3.75h-5.625q-1.362,4.2-2.9,8.174,2.666-.073,4.819-.19-1.055-2.944-2.065-5.435Zm1.494-8.848h-11.25v-3.75h11.25Zm27.451,10.02h26.895v3.691h-7.295q2.783,3.369,6.006,7.588l-3.574,2.168-1.348-1.963q-5.566.205-13.945.7a26.269,26.269,0,0,0-3.076.439L159.229.044a25.845,25.845,0,0,0,5.332-5.391h-7.236Zm16.641-15.879-.82,1q3.779,5.537,12.188,9.434-1.553,1.9-2.637,3.457a45.549,45.549,0,0,1-4.1-2.461V-11.5h-15.7v-2.168q-1.9,1.289-4.1,2.578-.85-1.2-2.637-3.457,9.609-5.068,12.773-10.371ZM170.742-20.7a30.029,30.029,0,0,1-5.859,5.566h11.484A31.661,31.661,0,0,1,170.742-20.7ZM173.32-3.823l2.52-1.523h-6.182q-1.523,1.934-3.867,4.424,3.4,0,9.521-.264Q174.375-2.446,173.32-3.823Z" transform="translate(558.057 75.823)"/>
    <g id="组_3724" data-name="组 3724" transform="translate(1481.554 -364.71)">
      <g id="组_3723" data-name="组 3723" transform="translate(-436.796 935.041)">
        <path id="路径_9679" data-name="路径 9679" class="cls-18" d="M-420.612,938.525s-1.3,21.443,25.919,14.85c18.935-4.6,26.459-16.693,31.916-30.466,2.113-5.33,16.971-28.308,28.244-26.4s11.982-6.055,9.6-8.436-9.044-8.091-19.517-.951-24.6,33.942-25.23,34.667-12.536,27.693-24.749,25.946-13.17-6.505-14.28-10.472S-417.12,930.909-420.612,938.525Z" transform="translate(484.348 -883.647)"/>
        <path id="路径_14090" data-name="路径 14090" class="cls-19" d="M-385.065,953.972c-15.256,6.841-29.1,8.415-45.945-2.811-10.571-7.053-9.794-25.545-7.761-38.291.725-4.49,1.609-8.273,2.192-10.589.407-1.591.672-2.493.672-2.493,1.75-7.16,52.769-3.323,54.183-1.4a9.469,9.469,0,0,1,.849,1.715c.972,2.387,2.316,6.665,3.465,10.731.831,2.917,1.556,5.745,2,7.708C-374.193,924.166-369.809,947.13-385.065,953.972Z" transform="translate(469.46 -874.451)"/>
        <path id="路径_14091" data-name="路径 14091" class="cls-17" d="M-436.11,909.219c-.566.849-1.821.972-3.2.76.725-4.49,1.609-8.273,2.192-10.589a5.151,5.151,0,0,1,2.351,3.942C-434.767,905.948-434.5,906.779-436.11,909.219Z" transform="translate(469.999 -871.56)"/>
        <path id="路径_14092" data-name="路径 14092" class="cls-17" d="M-401.891,908.891a4.436,4.436,0,0,1-2.935.371c-1.945-.849-3.005-2.51-3.288-5.957-.212-2.616,1.768-4.42,2.758-5.144C-404.383,900.547-403.04,904.825-401.891,908.891Z" transform="translate(493.94 -872.504)"/>
        <path id="路径_9681" data-name="路径 9681" class="cls-20" d="M-405.293,898.97s29.064-4.34,32.483,9.863c0,6.84-3.682,4.473-5.524,3.157s-5.56-7.667-11-6.463-14.775,2.652-15.96,2.386a5.552,5.552,0,0,1-1.181-7.762A5.583,5.583,0,0,1-405.293,898.97Z" transform="translate(494.381 -872.361)"/>
        <path id="路径_9682" data-name="路径 9682" class="cls-20" d="M-424.188,911.165s-29.063,4.34-32.482-9.863c0-6.838,3.682-4.471,5.523-3.156s5.562,7.665,11,6.463,14.775-2.652,15.958-2.386a5.551,5.551,0,0,1,1.183,7.759A5.6,5.6,0,0,1-424.188,911.165Z" transform="translate(456.67 -873.656)"/>
        <path id="路径_9683" data-name="路径 9683" class="cls-20" d="M-429.474,928.934s-7.184,10.034-7.448,14.374,10,12.1,13.547,12.23,6.64-3.223,5.786-5.523-6.444-7.071-6.576-7.778,2.853-8.867,3.663-9.323S-425.512,924.753-429.474,928.934Z" transform="translate(471.829 -849.827)"/>
        <path id="路径_9684" data-name="路径 9684" class="cls-20" d="M-420.505,933.508s-1.715,29.51,7.623,28.462c6.187-1.579,5.975-4.085,4.368-30.548C-413.27,931.419-418.522,925.37-420.505,933.508Z" transform="translate(484.342 -848.628)"/>
        <g id="组_5066" data-name="组 5066" transform="translate(46.764 45.174)">
          <path id="路径_14093" data-name="路径 14093" class="cls-17" d="M-417.765,930.8h-12.452v-.343q5.725-6.82,6.951-9.177a9.945,9.945,0,0,0,1.227-4.6,3.827,3.827,0,0,0-1.016-2.722,3.26,3.26,0,0,0-2.48-1.087,4.1,4.1,0,0,0-3.73,2.406l-.576-.2a8.637,8.637,0,0,1,2.558-4.432,6,6,0,0,1,3.965-1.437,5.867,5.867,0,0,1,2.933.75A5.437,5.437,0,0,1-418.309,912a4.946,4.946,0,0,1,.748,2.441,8.83,8.83,0,0,1-1.154,4.214q-1.578,2.888-6.882,8.052h4.572a10.435,10.435,0,0,0,2.194-.141A1.813,1.813,0,0,0-418,926.1a6.25,6.25,0,0,0,.857-1.414h.562Z" transform="translate(430.217 -909.201)"/>
          <path id="路径_14094" data-name="路径 14094" class="cls-17" d="M-417.114,920.188v-.546a10.288,10.288,0,0,0,2.466-.96,3.682,3.682,0,0,0,1.186-1.358,3.815,3.815,0,0,0,.5-1.849,3.01,3.01,0,0,0-.944-2.224,3.218,3.218,0,0,0-2.349-.928,4.412,4.412,0,0,0-3.714,2.309l-.576-.2a9.392,9.392,0,0,1,2.878-3.917,6.384,6.384,0,0,1,3.91-1.31,5.084,5.084,0,0,1,3.628,1.342,4.187,4.187,0,0,1,1.428,3.136,4.256,4.256,0,0,1-.665,2.257,5.764,5.764,0,0,1-2.082,1.911,7.394,7.394,0,0,1,2.786,2.192,5.364,5.364,0,0,1,.96,3.271,7.535,7.535,0,0,1-2.4,5.625,8.845,8.845,0,0,1-6.422,2.318,6.794,6.794,0,0,1-3.917-.889,1.891,1.891,0,0,1-.889-1.607,1.663,1.663,0,0,1,.514-1.227,1.647,1.647,0,0,1,1.186-.507,2.209,2.209,0,0,1,.969.219,20.186,20.186,0,0,1,1.771,1.367,4.639,4.639,0,0,0,2.848,1.241,2.587,2.587,0,0,0,1.982-.914,3.318,3.318,0,0,0,.827-2.318,6.036,6.036,0,0,0-1.5-3.94A7.856,7.856,0,0,0-417.114,920.188Z" transform="translate(437.042 -909.201)"/>
        </g>
      </g>
      <ellipse id="椭圆_1539" data-name="椭圆 1539" class="cls-20" cx="82.296" cy="71.32" rx="82.296" ry="71.32" transform="translate(-458.307 818.734)"/>
      <path id="路径_9685" data-name="路径 9685" class="cls-20" d="M-389.331,842.824s14.248-33.6,34.108-24.572,17.828,34.3,17.828,36.109-5.058,16.315-28.143,23.158C-374.631,874.893-390.177,844.657-389.331,842.824Z" transform="translate(71.552 0)"/>
      <circle id="椭圆_1540" data-name="椭圆 1540" class="cls-21" cx="15.817" cy="15.817" r="15.817" transform="translate(-306.712 831.298)"/>
      <path id="路径_9686" data-name="路径 9686" class="cls-20" d="M-430.559,842.824s-14.248-33.6-34.108-24.572-17.828,34.3-17.828,36.109,5.058,16.315,28.143,23.158C-445.262,874.893-429.706,844.657-430.559,842.824Z" transform="translate(0 0)"/>
      <circle id="椭圆_1541" data-name="椭圆 1541" class="cls-21" cx="15.817" cy="15.817" r="15.817" transform="translate(-473.263 831.298)"/>
      <path id="路径_14095" data-name="路径 14095" class="cls-17" d="M-433.6,906.278s21.516,27.088,41.393,1.1c22.8-30.017-27.88-16.272-43.14-8.926C-438.512,899.979-433.6,906.278-433.6,906.278Z" transform="translate(35.432 55.386)"/>
      <path id="路径_14096" data-name="路径 14096" class="cls-20" d="M-434.477,902.344s20.16,27.32,40.037,1.331C-372.929,875.551-434.477,902.344-434.477,902.344Z" transform="translate(36.914 56.902)"/>
      <path id="路径_9687" data-name="路径 9687" class="cls-21" d="M-448.34,896.022s-4.724-62.085,34.08-65.46c20.245-1.687,23.434,6.412,23.434,6.412s20.768-17.208,44.05,1.349c20.583,17.885,12.822,57.7,12.822,57.7s14.171.338,17.208,5.061-9.488,43.445-55.221,49.512c0,0-40.836,8.555-74.06-17.365-18.1-14.114-20.2-27.535-15.7-30.459S-451.826,896.022-448.34,896.022Z" transform="translate(14.441 9.981)"/>
      <path id="路径_9688" data-name="路径 9688" class="cls-22" d="M-400.837,844.283a4.483,4.483,0,0,0-5.081,3.794c-.016.115-.028.228-.035.343,0,3.085,3.311,2.558,5.116,3.309s1.5-.375,8.2,4.138c3.085,2.105,6.01-2.708,3.536-5.19S-391.736,847.443-400.837,844.283Z" transform="translate(58.814 21.135)"/>
      <path id="路径_9689" data-name="路径 9689" class="cls-22" d="M-433.567,844.283a4.482,4.482,0,0,1,5.077,3.792q.024.172.037.345c0,3.085-3.309,2.558-5.114,3.309s-1.5-.375-8.2,4.138c-3.083,2.105-6.01-2.708-3.536-5.19S-442.669,847.443-433.567,844.283Z" transform="translate(27.889 21.135)"/>
      <ellipse id="椭圆_1542" data-name="椭圆 1542" class="cls-23" cx="9.935" cy="6.062" rx="9.935" ry="6.062" transform="translate(-385.616 907.133)"/>
      <line id="直线_119" data-name="直线 119" class="cls-24" y2="12.509" transform="translate(-375.68 919.255)"/>
      <path id="路径_9690" data-name="路径 9690" class="cls-24" d="M-434.477,876.559s20.462,22.868,43.894,0" transform="translate(36.914 45.952)"/>
      <circle id="椭圆_1543" data-name="椭圆 1543" class="cls-17" cx="14.94" cy="14.94" r="14.94" transform="translate(-356.572 879.136)"/>
      <circle id="椭圆_1544" data-name="椭圆 1544" class="cls-25" cx="11.298" cy="11.298" r="11.298" transform="translate(-352.931 882.778)"/>
      <ellipse id="椭圆_1545" data-name="椭圆 1545" class="cls-26" cx="5.6" cy="3.322" rx="5.6" ry="3.322" transform="translate(-340.56 890.754)"/>
      <circle id="椭圆_1546" data-name="椭圆 1546" class="cls-17" cx="14.94" cy="14.94" r="14.94" transform="translate(-421.684 879.136)"/>
      <circle id="椭圆_1547" data-name="椭圆 1547" class="cls-25" cx="11.298" cy="11.298" r="11.298" transform="translate(-418.042 882.778)"/>
      <ellipse id="椭圆_1548" data-name="椭圆 1548" class="cls-26" cx="5.6" cy="3.322" rx="5.6" ry="3.322" transform="translate(-405.671 890.754)"/>
      <path id="路径_9691" data-name="路径 9691" class="cls-27" d="M-370.008,888.964a16.833,16.833,0,0,0-17.745-15.87,16.834,16.834,0,0,0-15.87,17.743A16.834,16.834,0,0,0-388.2,906.677,62.785,62.785,0,0,0-370.008,888.964Z" transform="translate(60.583 43.271)"/>
      <path id="路径_9692" data-name="路径 9692" class="cls-27" d="M-426.6,889.9a16.838,16.838,0,0,0-16.847-16.826,16.835,16.835,0,0,0-16.776,15.546,63.922,63.922,0,0,0,11.491,11.314,82.964,82.964,0,0,0,9.318,6.3A16.835,16.835,0,0,0-426.6,889.9Z" transform="translate(17.146 43.276)"/>
    </g>
    <g id="组_5069" data-name="组 5069" transform="translate(757.972 -361.25)">
      <g id="组_3726" data-name="组 3726" transform="translate(-670.097 783.335)">
        <path id="路径_14097" data-name="路径 14097" class="cls-19" d="M-566.591,943.477c-15.533,21.617-66.025,12.78-72.772,1.292-7.444-8.769-6.594-24.336-4.062-30.421a43.034,43.034,0,0,0,2.974-10.061,11.754,11.754,0,0,0,.068-2.141c4.181-6.271,1.139-17.641-.153-21.736a13.557,13.557,0,0,1,1.852-.442c12.712-2.362,52.565.8,65.889,2.651q.943.127,1.682.255h.034c0,.017,0,.017-.017.034-1.462,4.232-1.818,10.622,3.739,18.337.221.595.442,1.19.646,1.8h.017a101.417,101.417,0,0,1,3.365,11.3C-561.476,921.451-561.85,934.86-566.591,943.477Z" transform="translate(687.487 -716.332)"/>
        <path id="路径_14098" data-name="路径 14098" class="cls-17" d="M-596.12,902.314c-9.143-5.031-7.223-16.162-6.084-20.428.289-1.071.527-1.717.527-1.717s.442.748,1.156,1.972c0,.017,0,.017.017.034-1.462,4.232-1.818,10.622,3.739,18.337C-596.545,901.108-596.324,901.7-596.12,902.314Z" transform="translate(716.896 -715.6)"/>
        <path id="路径_14099" data-name="路径 14099" class="cls-17" d="M-642.385,903.94a11.741,11.741,0,0,0,.068-2.141c4.181-6.271,1.139-17.641-.153-21.736a13.566,13.566,0,0,1,1.852-.442l1.122,2.277S-634.788,898.127-642.385,903.94Z" transform="translate(689.421 -715.985)"/>
        <path id="路径_9712" data-name="路径 9712" class="cls-28" d="M-639.913,920.925s-.7,20.873,1.66,22.9,18.072,4.222,21.449,0c1.19-4.9,1.8-14.3.732-17.284S-639.464,917.87-639.913,920.925Z" transform="translate(691.141 -687.705)"/>
        <path id="路径_9713" data-name="路径 9713" class="cls-28" d="M-591.094,920.925s.7,20.873-1.662,22.9-18.072,4.222-21.449,0c-1.19-4.9-1.8-14.3-.732-17.284S-591.544,917.87-591.094,920.925Z" transform="translate(708.293 -687.705)"/>
        <path id="路径_9714" data-name="路径 9714" class="cls-29" d="M-614.552,933.107s-1.751,3.781-1,4.541a15.214,15.214,0,0,0,8.261,2.364c3.04-.253,1.786-3.149,1.786-3.149s-1.164,3.4,2.2,3.826a20.6,20.6,0,0,0,6.993-.591s.982-3.608,0-3.433.928,2.842,2.026,3.18,4.138-1.268,3.885-2.2a13.543,13.543,0,0,0-1.943-2.955A21.275,21.275,0,0,1-614.552,933.107Z" transform="translate(708.117 -678.571)"/>
        <path id="路径_9715" data-name="路径 9715" class="cls-29" d="M-615.957,933.107s1.749,3.781,1,4.541a15.218,15.218,0,0,1-8.261,2.364c-3.04-.253-1.786-3.149-1.786-3.149s1.164,3.4-2.2,3.826a20.6,20.6,0,0,1-6.995-.591s-.982-3.608,0-3.433-.928,2.842-2.026,3.18-4.138-1.268-3.885-2.2a13.484,13.484,0,0,1,1.943-2.955A21.283,21.283,0,0,0-615.957,933.107Z" transform="translate(691.065 -678.571)"/>
        <path id="路径_14100" data-name="路径 14100" class="cls-28" d="M-570.519,894.932c-.748,5.88-19.493,7.784-22.79,5.693s-4.69-.374-4.181.51c-5.574-7.733-5.2-14.14-3.722-18.371.714.119,1.309.221,1.75.323,9.007,3.416,16.162-2.906,19.833-3.807C-576.026,879.858-569.755,889.035-570.519,894.932Z" transform="translate(717.621 -716.222)"/>
        <path id="路径_14101" data-name="路径 14101" class="cls-28" d="M-631.876,881.132c-1.088.34-1.785.748-2.005,1.258,0,0-.034.017-.119.051-.85.357-6.339,2.141-15.839-4.351-3.3,3.722-8.022,16.638-7.767,19s10.945,6.968,23.725,3.671a.732.732,0,0,0,.085-.017c1.326-.2,1.937.663,2.073,2.124C-627.542,896.6-630.584,885.228-631.876,881.132Z" transform="translate(678.827 -717.055)"/>
        <path id="路径_9716" data-name="路径 9716" class="cls-29" d="M-588.747,879.669s4.259-2.393,5.212,0,0,3.229,0,3.229,1.849-.06,2.354,1.076,1.288,2.094.51,3.469c0,.3,2.437.658,2.073,2.752s-1.037,2.549-1.2,2.6,2.354-.121,2.157,1.315-.4,4.007-4.222,3.5c0,0-2.065-2.493-.7-3.727a1.96,1.96,0,0,1-2.005-1.914,1.952,1.952,0,0,1,.146-.787c.756-2.573.68-2.124.68-2.124s-1.822,1.19-2.69-.6a3.622,3.622,0,0,1,.612-3.569s-3.358-.015-3.329-1.779A18.355,18.355,0,0,1-588.747,879.669Z" transform="translate(726.714 -716.694)"/>
        <path id="路径_9717" data-name="路径 9717" class="cls-29" d="M-647.871,878.557s-4.813-2.534-5.89,0,0,3.419,0,3.419-2.089-.063-2.66,1.14-1.457,2.209-.569,3.673c0,.318-2.755.7-2.344,2.915s1.171,2.69,1.36,2.755-2.66-.127-2.439,1.394.454,4.249,4.772,3.7c0,0,2.333-2.641.792-3.95,0,0,2.955-.136,2.1-2.86s-.761-2.247-.761-2.247,2.06,1.266,3.04-.634a3.665,3.665,0,0,0-.692-3.785s3.795-.015,3.764-1.885A18.5,18.5,0,0,0-647.871,878.557Z" transform="translate(676.862 -717.516)"/>
        <path id="路径_14102" data-name="路径 14102" class="cls-17" d="M-639.146,887.9s30.715,38.107,55.337,1.134S-639.146,887.9-639.146,887.9Z" transform="translate(691.746 -721.107)"/>
        <path id="路径_14103" data-name="路径 14103" class="cls-28" d="M-637.78,886.935s27.6,36.974,52.227,0S-637.78,886.935-637.78,886.935Z" transform="translate(692.702 -722.363)"/>
        <path id="路径_9718" data-name="路径 9718" class="cls-30" d="M-617.068,803.551s-37.027-37.028-52.359-10.707c-3.037,9.255,4.485,34.856,18.081,37.171a36.838,36.838,0,0,0,19.452-1.953s-11.217,18.152-18.874,48.1-7.087,49.756,6.509,62.628,33.41,13.74,56.118,13.6,48.454-.144,57.132-11.57,15.548-17.574,6.871-65.955c-6.727-34.929-19.092-47.076-19.092-47.076s23.793,13.958,34.5-13.813-1.735-31.194-9.835-30.567-20.683,1.784-39.2,20.008C-562.251,797.186-589.732,779.252-617.068,803.551Z" transform="translate(670.097 -783.335)"/>
        <path id="路径_9719" data-name="路径 9719" class="cls-31" d="M-600.025,808.581s-3.181,3.11,1.953,4.99,20.1,5.714,26.107-1.591,7.376-19.743,6.725-20.683-.362-1.88-5.5-.51S-587.586,794.19-600.025,808.581Z" transform="translate(718.429 -778.603)"/>
        <path id="路径_9720" data-name="路径 9720" class="cls-31" d="M-627.979,808.581s3.183,3.11-1.951,4.99-20.1,5.714-26.107-1.591-7.377-19.743-6.727-20.683.362-1.88,5.5-.51S-640.418,794.19-627.979,808.581Z" transform="translate(675.122 -778.603)"/>
        <path id="路径_9721" data-name="路径 9721" class="cls-32" d="M-628.141,863.87c0-6.325,5.4-34.686,11.726-34.686s11.179,28.361,11.179,34.686A11.455,11.455,0,0,1-616.7,875.316,11.454,11.454,0,0,1-628.141,863.87Z" transform="translate(699.444 -751.264)"/>
        <path id="路径_9722" data-name="路径 9722" class="cls-32" d="M-587.757,863.762c-1.779,2.07-12.153,9.293-14.956,6.88s3.01-13.55,4.789-15.62,5.5-1.791,8.307.622S-585.978,861.689-587.757,863.762Z" transform="translate(716.705 -734.161)"/>
        <path id="路径_9723" data-name="路径 9723" class="cls-32" d="M-648.3,863.762c1.778,2.07,12.153,9.293,14.955,6.88s-3.011-13.55-4.789-15.62-5.5-1.791-8.309.622S-650.079,861.689-648.3,863.762Z" transform="translate(684.688 -734.161)"/>
        <path id="路径_9724" data-name="路径 9724" class="cls-27" d="M-569.1,863.033c-.619-6.5-1.7-14.2-3.365-23.453-.18-.935-.367-1.846-.554-2.748a17.958,17.958,0,0,0-24.925,4.864,17.956,17.956,0,0,0,4.864,24.925,17.958,17.958,0,0,0,23.98-3.586Z" transform="translate(718.423 -748.057)"/>
        <path id="路径_9725" data-name="路径 9725" class="cls-27" d="M-646.181,869.679a17.955,17.955,0,0,0,17.975-17.931,17.954,17.954,0,0,0-17.931-17.975,17.939,17.939,0,0,0-9.747,2.862c-.384,1.388-.765,2.8-1.135,4.249a173.514,173.514,0,0,0-4.143,20.734A17.93,17.93,0,0,0-646.181,869.679Z" transform="translate(676.346 -748.054)"/>
        <circle id="椭圆_1556" data-name="椭圆 1556" class="cls-17" cx="12.8" cy="12.8" r="12.8" transform="translate(102.348 65.125)"/>
        <circle id="椭圆_1557" data-name="椭圆 1557" class="cls-25" cx="8.244" cy="8.244" r="8.244" transform="translate(104.412 68.809)"/>
        <circle id="椭圆_1558" data-name="椭圆 1558" class="cls-17" cx="12.8" cy="12.8" r="12.8" transform="translate(37.262 65.125)"/>
        <circle id="椭圆_1559" data-name="椭圆 1559" class="cls-25" cx="8.244" cy="8.244" r="8.244" transform="translate(44.311 68.809)"/>
      </g>
      <g id="组_5067" data-name="组 5067" transform="translate(-603.015 977.176)">
        <path id="路径_14104" data-name="路径 14104" class="cls-17" d="M-615.627,909.5a20.971,20.971,0,0,1-.977,6.5,8.823,8.823,0,0,1-1.569,3.035,7.921,7.921,0,0,1-2.237,1.88,5.531,5.531,0,0,1-2.726.69,5.555,5.555,0,0,1-3.034-.857,8.068,8.068,0,0,1-2.4-2.451,11.9,11.9,0,0,1-1.321-3.1,19.922,19.922,0,0,1-.736-5.416,21.766,21.766,0,0,1,1.062-6.958,8.248,8.248,0,0,1,2.656-4.018,6.026,6.026,0,0,1,3.771-1.4,6.008,6.008,0,0,1,3.78,1.383,7.953,7.953,0,0,1,2.58,3.708A20.66,20.66,0,0,1-615.627,909.5Zm-5.28-.034q0-6.1-.068-7.114a6.377,6.377,0,0,0-.823-3.222,1.656,1.656,0,0,0-1.388-.549,1.617,1.617,0,0,0-1.166.411,3.618,3.618,0,0,0-.856,2.121q-.224,1.517-.223,10.581a40.61,40.61,0,0,0,.342,6.616,2.963,2.963,0,0,0,.737,1.628,1.875,1.875,0,0,0,1.268.411,1.527,1.527,0,0,0,1.286-.549,5.424,5.424,0,0,0,.823-2.964Z" transform="translate(630.625 -897.394)"/>
        <path id="路径_14105" data-name="路径 14105" class="cls-17" d="M-605.09,897.394v.481a16.313,16.313,0,0,0-4.979,2.034,9.663,9.663,0,0,0-2.966,3.016,14.624,14.624,0,0,0-1.689,4.393,5,5,0,0,1,1.252-.668,7.567,7.567,0,0,1,2.245-.343,5.66,5.66,0,0,1,4.346,1.9,7.342,7.342,0,0,1,1.739,5.165,9.45,9.45,0,0,1-.942,4.216,6.957,6.957,0,0,1-2.675,2.966,7.04,7.04,0,0,1-3.7,1.045,7.143,7.143,0,0,1-3.96-1.171,7.741,7.741,0,0,1-2.837-3.44,11.826,11.826,0,0,1-1.02-4.918,14.7,14.7,0,0,1,1.876-7.274,13.983,13.983,0,0,1,5.331-5.365A15.91,15.91,0,0,1-605.09,897.394Zm-9.857,11.314q-.138,2.366-.136,3.462a22.7,22.7,0,0,0,.454,4.577,6.893,6.893,0,0,0,1.242,3.1,1.736,1.736,0,0,0,1.338.634,1.722,1.722,0,0,0,1.405-.914,7.5,7.5,0,0,0,.617-3.73q0-4.732-1.149-6.531a2.256,2.256,0,0,0-1.988-1.166A4.178,4.178,0,0,0-614.947,908.707Z" transform="translate(637.863 -897.394)"/>
      </g>
    </g>
  </g>
</svg>
