<?xml version="1.0" encoding="UTF-8"?>
<svg width="570px" height="296px" viewBox="0 0 570 296" version="1.1" xmlns="http://www.w3.org/2000/svg" xmlns:xlink="http://www.w3.org/1999/xlink">
    <title>公共元素01</title>
    <defs>
        <path d="M18.3479217,11.742537 C17.0173646,16.7210885 11.9028731,19.6784201 6.92429131,18.3479764 C1.94570953,17.0175326 -1.01173847,11.9031084 0.318592003,6.92449635 C1.64892248,1.94588429 6.76327931,-1.01168011 11.7419217,0.318537046 C14.1330422,0.957133315 16.1724634,2.51960776 17.4113824,4.66211618 C18.6503014,6.80462461 18.9871938,9.35159711 18.3479217,11.742537 L18.3479217,11.742537" id="path-1"></path>
    </defs>
    <g id="编著说明" stroke="none" stroke-width="1" fill="none" fill-rule="evenodd">
        <g id="公共元素-再想想" transform="translate(-633.000000, -369.000000)">
            <g id="公共元素01" transform="translate(633.000000, 369.000000)">
                <path d="M58,146.20273 L520,146.20273 C547.614237,146.20273 570,168.588493 570,196.20273 L570,245.20273 C570,272.816968 547.614237,295.20273 520,295.20273 L58,295.20273 C30.3857625,295.20273 8,272.816968 8,245.20273 L8,196.20273 C8,168.588493 30.3857625,146.20273 58,146.20273 Z" id="圆角矩形_1" fill="#D6BEAC" fill-rule="nonzero"></path>
                <rect id="圆角矩形_1-2" fill="#FCFCFC" fill-rule="nonzero" x="0" y="135.20273" width="562" height="149" rx="50"></rect>
                <g id="组_6796" transform="translate(117.001000, 179.203730)" fill="#964615" fill-rule="nonzero" font-family="PingFangSC-Regular, PingFang SC" font-size="47" font-weight="normal">
                    <g id="再仔细想一想哦">
                        <text>
                            <tspan x="0" y="50">再仔细想一想哦</tspan>
                        </text>
                    </g>
                </g>
                <g id="组_6936" transform="translate(133.998968, 0.000000)">
                    <g id="组_1692" transform="translate(0.000000, 0.632057)">
                        <g id="手" transform="translate(31.843032, 125.577674)" fill="#FFCBA6" fill-rule="nonzero">
                            <polygon id="路径_3119" points="19.098 4.467 16.145 7.218 13.888 9.327 13.852 9.363 13.852 9.327 0 9.327 2.137 6.527 3.174 5.179"></polygon>
                            <polygon id="路径_3120" points="46.608 5.402 49.957 9.328 36.057 9.328 35.644 8.979 34.525 8.016 33.571 7.2 30.434 4.5 42.001 0 46.606 5.394"></polygon>
                        </g>
                        <g id="头">
                            <path d="M14.3920316,86.8126737 C10.9360316,85.8686737 7.49203161,84.0616737 5.93603161,80.8296737 C4.30026591,77.5165984 5.14164354,73.5145818 7.97303161,71.1406737 C9.86703161,69.7406737 15.5010316,69.7406737 18.1070316,73.6406737 L19.6230316,76.4576737 L19.6230316,87.2916737 C17.8664329,87.468626 16.0921941,87.3060044 14.3970316,86.8126737" id="路径_3121" fill="#FFCBA6" fill-rule="nonzero"></path>
                            <path d="M18.4060316,80.4916737 C17.0931863,78.5356012 15.066443,77.1715161 12.7600316,76.6916737 C10.6330316,76.2706737 9.60003161,79.2976737 11.4670316,80.5176737 C12.8273473,81.2907399 14.3355874,81.7678154 15.8930316,81.9176737 C24.2400316,83.1396737 18.4060316,80.4926737 18.4060316,80.4926737" id="路径_3122" fill="#F17558" fill-rule="nonzero"></path>
                            <path d="M102.390032,86.9286737 C106.236032,85.8776737 110.071032,83.8606737 111.800032,80.2696737 C113.619529,76.5813601 112.682438,72.1271848 109.531032,69.4846737 C107.423032,67.9236737 101.152032,67.9236737 98.2560316,72.2656737 L96.5680316,75.4016737 L96.5680316,87.4586737 C98.5236024,87.6553632 100.498751,87.4744154 102.386032,86.9256737" id="路径_3123" fill="#FFCBA6" fill-rule="nonzero"></path>
                            <path d="M97.9230316,79.8876737 C99.3841156,77.7099575 101.63978,76.1908662 104.207032,75.6556737 C106.575032,75.1876737 107.725032,78.5556737 105.646032,79.9166737 C104.132603,80.7746893 102.455645,81.3048288 100.724032,81.4726737 C91.4310316,82.8336737 97.9240316,79.8876737 97.9240316,79.8876737" id="路径_3124" fill="#F17558" fill-rule="nonzero"></path>
                            <line x1="61.1100316" y1="58.7506737" x2="52.9090316" y2="59.2326737" id="直线_7"></line>
                            <path d="M99.0230316,75.8926737 L98.9300316,76.5426737 L98.4440316,79.9776737 C97.9984607,83.8855075 96.9175628,87.6943211 95.2440316,91.2536737 L95.2440316,91.2536737 C93.1092797,95.8380946 90.0396062,99.9255426 86.2320316,103.253674 C84.3927237,104.857856 82.3908586,106.265496 80.2590316,107.453674 C74.5361625,110.669118 68.0535942,112.285615 61.4910316,112.133674 L62.0800316,120.026674 L55.8070316,125.817674 L49.5360316,120.026674 L49.7970316,111.868674 C46.4830866,111.421796 43.2164149,110.67575 40.0370316,109.639674 C38.1476235,109.027086 36.2966369,108.301785 34.4940316,107.467674 C33.7206983,107.111674 32.9630316,106.733674 32.2210316,106.333674 C25.8637505,103.178158 20.6955922,98.0538417 17.4860316,91.7236737 C17.4090316,91.5786737 17.3410316,91.4236737 17.2750316,91.2646737 C17.1550316,91.0126737 17.0460316,90.7646737 16.9360316,90.5046737 C16.8260316,90.2446737 16.7120316,89.9686737 16.6120316,89.6956737 L16.4740316,89.3206737 C15.2391267,85.8535868 14.7123988,82.1739722 14.9250316,78.4996737 C15.224558,73.591074 15.8968285,68.7123487 16.9360316,63.9056737 C16.9360316,63.9056737 19.1360316,30.2576737 58.0620316,29.5956737 C58.0660316,29.5966737 102.866032,25.5316737 99.0230316,75.8926737 Z" id="路径_3125" fill="#FFCBA6" fill-rule="nonzero"></path>
                            <path d="M46.5200316,76.9596737 C45.3115966,81.4858413 41.495537,84.8383095 36.851422,85.4536989 C32.207307,86.0690884 27.649809,83.8261963 25.304257,79.7709658 C22.9587051,75.7157353 23.2870627,70.6468562 26.1362047,66.9281336 C28.9853467,63.2094109 33.7941259,61.5732582 38.3200316,62.7826737 L38.3200316,62.7826737 C44.498315,64.4337861 48.1691526,70.7798585 46.5200316,76.9586737" id="路径_3126" fill="#FFFFFF" fill-rule="nonzero"></path>
                            <path d="M85.1240316,76.4796737 C83.9155966,81.0058413 80.099537,84.3583095 75.455422,84.9736989 C70.811307,85.5890884 66.253809,83.3461963 63.908257,79.2909658 C61.5627051,75.2357353 61.8910627,70.1668562 64.7402047,66.4481336 C67.5893467,62.7294109 72.3981259,61.0932582 76.9240316,62.3026737 L76.9300316,62.3026737 C83.108315,63.9537861 86.7791526,70.2998585 85.1300316,76.4786737" id="路径_3127" fill="#FFFFFF" fill-rule="nonzero"></path>
                            <path d="M42.9410316,74.3496737 C41.6104745,79.3282252 36.4959831,82.2855568 31.5174013,80.955113 C26.5388195,79.6246693 23.5813715,74.5102451 24.911702,69.531633 C26.2420324,64.553021 31.3563893,61.5954566 36.3350316,62.9256737 C38.7261522,63.56427 40.7655734,65.1267444 42.0044924,67.2692529 C43.2434114,69.4117613 43.5803038,71.9587338 42.9410316,74.3496737 L42.9410316,74.3496737" id="路径_3128" fill="#7C3821" fill-rule="nonzero"></path>
                            <path d="M33.5280316,68.7766737 C33.1875245,70.0482786 31.8807995,70.8032216 30.6091065,70.4630439 C29.3374135,70.1228662 28.5821321,68.8163367 28.9219804,67.5445556 C29.2618288,66.2727746 30.5681626,65.5171548 31.8400316,65.8566737 C32.4512266,66.0198291 32.9725166,66.4192139 33.2891157,66.9668854 C33.6057148,67.5145569 33.6916618,68.1656057 33.5280316,68.7766737 L33.5280316,68.7766737" id="路径_3129" fill="#FFFFFF" fill-rule="nonzero"></path>
                            <path d="M95.2400316,91.2566737 L95.2400316,91.2566737 C93.1058532,95.8406366 90.0372621,99.928004 86.2310316,103.256674 C84.3897613,104.858352 82.388166,106.265802 80.2580316,107.456674 C75.3607643,105.501721 72.3509561,100.539109 72.8806374,95.2927286 C73.4103187,90.0463482 77.3513391,85.7855012 82.5405424,84.8488911 C87.7297457,83.9122809 92.9116629,86.5265098 95.2420316,91.2566737" id="路径_3131" fill="#F59679" fill-rule="nonzero"></path>
                            <path d="M37.5960316,99.2196737 C36.803746,102.203391 34.8718556,104.756862 32.2160316,106.330674 C25.8588414,103.174901 20.6909847,98.0501861 17.4820316,91.7196737 C17.4050316,91.5746737 17.3370316,91.4196737 17.2710316,91.2606737 C17.1350316,90.9706737 17.0150316,90.6916737 16.8890316,90.4026737 C16.7440316,90.0656737 16.6200316,89.7226737 16.4890316,89.3806737 C19.7790238,84.6823963 25.9671928,83.0241169 31.1656686,85.4476906 C36.3641443,87.8712643 39.0724525,93.6771573 37.5890316,99.2176737" id="路径_3132" fill="#F59679" fill-rule="nonzero"></path>
                            <path d="M81.4690316,73.8116737 L81.4690316,73.8256737 C81.2162125,74.7937275 80.8053583,75.7134191 80.2530316,76.5476737 C77.6403895,80.5159117 72.4567808,81.876839 68.2317775,79.7037863 C64.0067742,77.5307336 62.0990271,72.522498 63.8075408,68.0892382 C65.5160545,63.6559785 70.2914154,61.2233152 74.8820316,62.4476737 L74.8960316,62.4476737 C79.8477114,63.7726112 82.7896077,68.858829 81.4690316,73.8116737 L81.4690316,73.8116737 Z" id="路径_3796" fill="#7C3821" fill-rule="nonzero"></path>
                            <path d="M80.2540316,76.5486737 C78.5313859,79.1579573 75.6136702,80.7279101 72.4870316,80.7279101 C69.3603931,80.7279101 66.4426773,79.1579573 64.7200316,76.5486737 C65.4137603,75.4856046 66.3209625,74.5784024 67.3840316,73.8846737 C69.4425326,72.5263638 71.9572491,72.0438281 74.3723124,72.5437293 C76.7873757,73.0436305 78.9038987,74.4848004 80.2540316,76.5486737 L80.2540316,76.5486737 Z" id="路径_3797" fill="#9E5036" fill-rule="nonzero"></path>
                            <path d="M71.5550316,68.2716737 C71.3072264,69.2002792 70.5243924,69.8881392 69.5716275,70.01445 C68.6188625,70.1407607 67.6838377,69.6806422 67.2026295,68.8486842 C66.7214213,68.0167261 66.7888159,66.9768038 67.3733817,66.2139157 C67.9579475,65.4510276 68.9445396,65.1154438 69.8730316,65.3636737 L69.8730316,65.3636737 C71.1399228,65.7029259 71.8923269,67.0045267 71.5540316,68.2716737" id="路径_3135" fill="#FFFFFF" fill-rule="nonzero"></path>
                            <path d="M65.5060316,95.8706737 C64.2535426,98.6049341 61.7862263,100.589458 58.8470316,101.226674 C58.1808179,101.369726 57.5014295,101.442457 56.8200316,101.443679 C55.4749959,101.445074 54.1452296,101.158663 52.9200316,100.603674 C52.6780316,100.493674 52.4420316,100.377674 52.2110316,100.247674 C49.9553992,99.0054859 48.3012477,96.9001693 47.6280316,94.4146737 L47.1110316,92.5226737 L65.9310316,88.6636737 L66.2100316,90.2026737 C66.5620141,92.120296 66.3144447,94.099803 65.5010316,95.8716737" id="路径_3136" fill="#DA5257" fill-rule="nonzero"></path>
                            <path d="M65.5060316,95.8706737 C64.2535426,98.6049341 61.7862263,100.589458 58.8470316,101.226674 C58.1808168,101.369718 57.5014291,101.44245 56.8200316,101.443679 C55.4749959,101.445074 54.1452296,101.158663 52.9200316,100.603674 C52.6780316,100.493674 52.4420316,100.377674 52.2110316,100.247674 C54.2770487,98.426449 56.7648639,97.1495447 59.4490316,96.5326737 C61.4161947,95.9911468 63.4572951,95.7676588 65.4950316,95.8706737" id="路径_3137" fill="#EE706E" fill-rule="nonzero"></path>
                            <path d="M51.5030316,91.6186737 L51.5030316,91.6186737 C51.6011901,92.1206516 51.894793,92.5630531 52.3192166,92.8485028 C52.7436402,93.1339525 53.2640971,93.239054 53.7660316,93.1406737 L53.7730316,93.1406737 L60.5990316,91.7756737 C61.5013825,91.5958524 62.1510316,90.8037676 62.1510316,89.8836737 L62.1510316,89.4376737 L51.5030316,91.6186737 Z" id="路径_3138" fill="#FFFFFF" fill-rule="nonzero"></path>
                            <path d="M10.5950316,62.4746737 C8.94624963,57.8438249 7.82679421,53.0412706 7.25803161,48.1586737 C6.909357,45.3685801 6.9794641,42.5420506 7.46603161,39.7726737 C7.62103161,38.9166737 10.3960316,30.4166737 10.8040316,30.6886737 C9.86303161,30.0606737 11.2760316,28.8066737 11.2760316,28.8066737 C9.58704263,29.1297048 7.86552142,29.249889 6.14803161,29.1646737 C3.61039616,28.7752123 1.36699832,27.3028456 0,25.1296737 C-0.0199683865,25.0966737 9.45603161,22.5106737 10.2930316,22.2586737 C17.4330316,20.1106737 21.0450316,12.8486737 26.8720316,8.77167374 C34.1100316,3.71167374 42.8960316,1.34167374 51.5870316,0.442673737 C59.2808222,-0.26501321 67.0291293,-0.123830034 74.6920316,0.863673737 C76.1050316,0.863673737 91.3300316,4.78867374 93.6860316,10.5966737 C93.0230316,8.96067374 97.6300316,1.36767374 99.6220316,1.44567374 C102.722032,1.56767374 100.741032,11.3146737 99.5470316,13.1086737 C100.560032,13.5086737 103.438032,12.0226737 104.427032,11.7446737 C106.189032,11.2446737 112.777032,9.01467374 111.343032,12.7016737 C110.703032,14.3486737 107.136032,16.4566737 105.407032,16.4566737 C105.170032,16.4566737 105.000032,16.4846737 104.964032,16.7226737 C106.086032,18.2946737 107.971032,19.1226737 109.379032,20.4116737 C114.879032,25.4656737 117.621032,36.6346737 118.479032,43.8046737 C119.096401,48.3193298 118.767426,52.9130619 117.513032,57.2936737 C116.076758,61.1581299 113.9649,64.7364715 111.276032,67.8616737 C109.026032,70.8016737 106.965032,74.6526737 103.943032,76.8616737 C102.107032,78.2006737 97.5270316,81.0116737 95.7510316,78.3306737 C94.5670316,76.5446737 95.5010316,72.7496737 95.4090316,70.7016737 C95.3090316,68.3506737 95.2220316,66.0016737 95.1980316,63.6446737 C95.1750316,61.3546737 96.0850316,58.3286737 92.7280316,58.7446737 C90.1220316,59.0706737 88.0550316,60.9886737 85.2000316,61.1376737 C79.2360316,61.4516737 74.2120316,51.7186737 75.4670316,48.5806737 C76.7220316,45.4426737 70.4450316,54.5446737 69.1880316,55.4876737 C69.1880316,55.4876737 61.9670316,54.4406737 59.0370316,48.3706737 C57.3630316,50.4636737 51.3640316,58.3116737 47.3690316,55.3296737 C47.3690316,54.2296737 48.7820316,50.7786737 48.4690316,48.7366737 C48.3130316,48.4226737 44.3880316,61.1366737 23.0400316,59.7246737 C23.0400316,59.7246737 20.2140316,60.3526737 19.2760316,55.9606737 C19.1200316,58.1606737 17.7070316,69.3036737 16.4520316,69.7746737 C14.7870316,70.3976737 12.0370316,65.9176737 11.5300316,64.7916737 C11.2060316,64.0366737 10.8920316,63.2736737 10.5950316,62.4746737 Z" id="路径_3139" fill="#111111" fill-rule="nonzero"></path>
                            <path d="M28.2390316,59.7806737 C27.7348353,59.8995337 27.2266338,59.5995358 27.0870903,59.1006678 C26.9475468,58.6017999 27.2263401,58.0816635 27.7190316,57.9216737 L33.5100316,56.3036737 C34.0142279,56.1848137 34.5224295,56.4848117 34.661973,56.9836797 C34.8015164,57.4825476 34.5227231,58.002684 34.0300316,58.1626737 L28.2390316,59.7806737 Z" id="路径_3140" fill="#333333" fill-rule="nonzero"></path>
                            <path d="M72.0370316,57.2496737 C71.52175,57.1149162 71.2132743,56.5879554 71.3480318,56.0726738 C71.4827892,55.5573922 72.00975,55.2489164 72.5250316,55.3836737 L78.3390316,56.9066737 C78.8366546,57.0564417 79.1266184,57.573055 78.9952665,58.0758529 C78.8639146,58.5786508 78.3583232,58.8874316 77.8510316,58.7746737 L72.0370316,57.2496737 Z" id="路径_3141" fill="#333333" fill-rule="nonzero"></path>
                            <line x1="18.5590316" y1="32.3896737" x2="18.5590316" y2="32.1276737" id="路径_3142"></line>
                            <path d="M15.2090316,39.2426737 C15.1090316,39.7176737 15.1220316,40.3816737 15.5960316,40.4936737 C15.9960316,40.5866737 16.3100316,40.1776737 16.5080316,39.8236737 C17.7532839,37.3949789 19.2095518,35.0804098 20.8600316,32.9066737 C22.3760316,31.0656737 25.2650316,29.9066737 26.4220316,28.1636737 C20.1160316,24.1786737 16.1000316,35.0676737 15.2090316,39.2426737 Z" id="路径_3143" fill="#333333" fill-rule="nonzero"></path>
                            <path d="M27.5480316,22.3616737 C36.1480316,15.4126737 45.9670316,9.36167374 56.9200316,7.82267374 C58.0460316,7.66367374 59.3610316,7.43467374 59.8820316,6.42267374 C54.0280316,4.33367374 46.7910316,6.60467374 41.4360316,9.23167374 C38.487847,10.6779665 35.7752073,12.5615755 33.3900316,14.8186737 C31.1930316,16.8996737 29.7480316,20.5836737 27.5480316,22.3616737 Z" id="路径_3144" fill="#333333" fill-rule="nonzero"></path>
                            <path d="M58.5120316,43.2606737 C60.2350316,41.1426737 63.0120316,37.6146737 61.7170316,34.6946737 C59.6090316,35.1286737 58.0620316,39.5686737 57.3540316,41.4036737 C56.436403,43.7606441 55.1805702,45.9714893 53.6260316,47.9666737 C54.9800316,46.2166737 57.0900316,45.0086737 58.5120316,43.2606737 Z" id="路径_3145" fill="#333333" fill-rule="nonzero"></path>
                            <path d="M76.3260316,42.8696737 C76.4190316,42.4586737 78.5510316,41.4216737 78.9610316,41.1096737 C79.9722374,40.3550151 80.8980529,39.4922395 81.7220316,38.5366737 C83.1220316,36.8746737 84.7820316,34.5886737 84.3500316,32.2896737 C80.6290316,32.2146737 77.0080316,39.8536737 76.3260316,42.8696737 Z" id="路径_3146" fill="#333333" fill-rule="nonzero"></path>
                            <path d="M112.493032,49.6746737 C113.437901,49.2730083 114.14606,48.4597867 114.414032,47.4686737 C115.640611,43.776899 115.557264,39.7751751 114.178032,36.1376737 C113.425032,33.8876737 111.485032,29.1626737 108.772032,28.5716737 C106.127032,27.9926737 107.507032,30.4146737 108.354032,32.1906737 C109.849673,34.8525994 111.051724,37.6691203 111.939032,40.5906737 C112.150032,41.4796737 113.559032,49.3716737 112.493032,49.6746737 Z" id="路径_3147" fill="#333333" fill-rule="nonzero"></path>
                            <g id="组_1818-Clipped" transform="translate(24.593110, 62.607137)">
                                <mask id="mask-2" fill="white">
                                    <use xlink:href="#path-1"></use>
                                </mask>
                                <g id="路径_3798"></g>
                                <g id="组_1818" mask="url(#mask-2)">
                                    <g transform="translate(0.075922, 10.745537)" id="蒙版组_2">
                                        <g transform="translate(0.000000, 0.000000)">
                                            <ellipse id="椭圆_623" fill="#9E5036" fill-rule="nonzero" cx="8.686" cy="7.962" rx="8.686" ry="7.962"></ellipse>
                                        </g>
                                    </g>
                                </g>
                            </g>
                        </g>
                        <path d="M78.5430316,130.851674 L78.4520316,130.970674 L78.4520316,130.979674 C78.0840316,131.438674 76.7730316,133.150674 75.5520316,134.905674 L45.7340316,134.905674 L45.6960316,134.943674 L45.6960316,134.905674 L35.9730316,134.905674 C35.0190316,133.585674 34.2110316,132.444674 33.9820316,132.105674 C33.9360316,132.040674 33.9080316,132.005674 33.9080316,132.005674 C36.9599745,128.406721 40.2287173,124.997384 43.6960316,121.796674 C45.5064094,120.655684 47.5575338,119.951776 49.6870316,119.740674 C50.4110316,120.015674 56.9620316,127.106674 62.2360316,119.566674 C62.2360316,119.566674 67.5480316,119.575674 70.6360316,122.107674 C73.4677567,124.838867 76.1095747,127.760336 78.5430316,130.851674 Z" id="路径_3148" fill="#71CCBB" fill-rule="nonzero"></path>
                        <path d="M41.9140316,123.417674 L43.9060316,121.662674 L45.3060316,128.269674 L42.9450316,128.925674 C42.9450316,128.925674 41.6140316,124.259674 41.9140316,123.417674 Z" id="路径_3149" fill="#365BAD" fill-rule="nonzero"></path>
                        <path d="M43.6540316,129.935674 C43.6540316,129.935674 41.7720316,129.978674 42.7850316,128.710674 C43.6380316,128.435674 44.6110316,128.210674 45.2160316,128.085674 C45.6693171,127.97962 46.1420422,128.155316 46.4160316,128.531674 C46.5360316,128.705674 46.5820316,128.886674 46.4160316,129.017674 C45.5288898,129.416576 44.6034555,129.72416 43.6540316,129.935674 L43.6540316,129.935674 Z" id="路径_3150" fill="#098C7A" fill-rule="nonzero"></path>
                        <path d="M70.5970316,121.875674 L68.2970316,120.760674 L67.0770316,128.117674 L69.4370316,128.773674 C69.4370316,128.773674 70.8930316,122.727674 70.5970316,121.875674 Z" id="路径_3151" fill="#365BAD" fill-rule="nonzero"></path>
                        <path d="M68.7190316,129.935674 C68.7190316,129.935674 70.6010316,129.978674 69.5880316,128.710674 C68.7350316,128.435674 67.7620316,128.210674 67.1570316,128.085674 C66.7037461,127.97962 66.231021,128.155316 65.9570316,128.531674 C65.8350316,128.705674 65.7910316,128.886674 65.9570316,129.017674 C66.8441735,129.416576 67.7696077,129.72416 68.7190316,129.935674 L68.7190316,129.935674 Z" id="路径_3152" fill="#098C7A" fill-rule="nonzero"></path>
                        <path d="M69.0190316,130.084674 C69.0190316,130.084674 68.8870316,130.673674 67.8060316,130.575674 C66.7250316,130.477674 66.1340316,129.657674 66.3580316,129.395674 C66.7864733,129.130265 67.3028106,129.045954 67.7934233,129.161293 C68.2840359,129.276632 68.7087229,129.58217 68.9740316,130.010674 C68.9900316,130.035674 69.0050316,130.062674 69.0190316,130.084674 Z" id="路径_3153" fill="#1AA389" fill-rule="nonzero"></path>
                        <path d="M42.9320316,132.804674 L43.9450316,130.672674 L68.4110316,130.672674 C68.838573,131.325649 69.1791125,132.031605 69.4240316,132.772674 C69.3940316,133.166674 42.9320316,132.804674 42.9320316,132.804674 Z" id="路径_3154" fill="#365BAD" fill-rule="nonzero"></path>
                        <polygon id="路径_3155" fill="#3174BB" fill-rule="nonzero" points="69.7270316 134.905674 45.7270316 134.905674 45.6910316 134.941674 45.6910316 134.905674 42.4250316 134.905674 42.9250316 132.805674 45.5860316 132.805674 47.9860316 132.796674 65.4150316 132.777674 66.4150316 132.768674 69.4230316 132.768674"></polygon>
                        <path d="M43.3590316,130.084674 C43.3590316,130.084674 43.4890316,130.673674 44.5720316,130.575674 C45.6550316,130.477674 46.2440316,129.657674 46.0200316,129.395674 C45.591506,129.129948 45.0749295,129.045456 44.5840747,129.160808 C44.0932199,129.27616 43.668347,129.581894 43.4030316,130.010674 C43.3880316,130.035674 43.3740316,130.062674 43.3590316,130.084674 Z" id="路径_3156" fill="#1AA389" fill-rule="nonzero"></path>
                        <polygon id="路径_3157" fill="#365BAD" fill-rule="nonzero" points="45.6930316 134.905674 44.5350316 134.905674 44.4440316 132.805674 44.4440316 132.778674 45.5820316 132.594674 45.5910316 132.805674"></polygon>
                        <polygon id="路径_3158" fill="#365BAD" fill-rule="nonzero" points="67.5620316 132.777674 67.4880316 134.556674 67.4690316 134.905674 66.3110316 134.905674 66.3750316 133.593674 66.4210316 132.768674 66.4300316 132.594674 67.5130316 132.768674"></polygon>
                        <ellipse id="椭圆_443" fill="#3174BB" fill-rule="nonzero" transform="translate(67.480908, 130.956875) rotate(-80.271000) translate(-67.480908, -130.956875) " cx="67.4809078" cy="130.956875" rx="1" ry="2.004"></ellipse>
                        <ellipse id="椭圆_444" fill="#3174BB" fill-rule="nonzero" transform="translate(44.777341, 130.956308) rotate(-9.729000) translate(-44.777341, -130.956308) " cx="44.7773406" cy="130.956308" rx="2.108" ry="1"></ellipse>
                    </g>
                    <g id="组_1691" transform="translate(157.739236, 0.000000)" fill-rule="nonzero">
                        <g id="组_1690">
                            <g id="组_1672" transform="translate(0.000000, 93.724680)">
                                <path d="M10.6957953,21.7340499 C8.74879534,21.6080499 7.95579534,18.8230499 9.01979534,17.1870499 C9.83523289,15.645951 11.3455226,14.5942618 13.0737953,14.3640499 C12.1716646,13.4376918 11.8340625,12.0994902 12.1887953,10.8560499 C12.372309,9.49095803 13.1001725,8.25813466 14.2067953,7.4380499 C15.3671691,6.64041424 16.9349511,6.80312459 17.9067953,7.8220499 C16.2679261,6.19848282 16.0949603,3.6084584 17.5033906,1.78138795 C18.911821,-0.0456824984 21.4605737,-0.537620898 23.4477953,0.634049901 L30.8377953,8.1490499 C32.1257953,8.2080499 31.0577953,11.6940499 30.1947953,12.6490499 C29.2032853,13.4971566 27.9111469,13.9086358 26.6117953,13.7900499 C25.3707953,13.8170499 25.2607953,13.4510499 24.0217953,13.3690499 C24.8117953,14.6690499 26.0107953,16.0690499 25.4697953,18.0900499 C24.5227953,21.6310499 20.2417953,19.4030499 20.2417953,19.4030499 C21.8267953,20.1720499 20.5137953,23.6620499 19.1817953,24.8160499 C17.7229449,25.873469 15.7947904,26.0248483 14.1887953,25.2080499 L10.6957953,21.7340499 Z" id="路径_3089" fill="#111111"></path>
                                <path d="M7.19879534,24.7810499 C5.16046276,24.4603319 3.07284455,24.7822298 1.22579534,25.7020499 C0.18907721,26.4729516 -0.246923462,27.8150475 0.138795342,29.0480499 C0.892795342,31.0480499 4.00879534,30.9890499 6.06379534,30.2910499 C4.91383285,30.9734804 3.99892552,31.9898891 3.44079534,33.2050499 C2.9808448,34.2864244 3.48449509,35.5359248 4.56579534,35.9960499 C4.68741397,36.0468715 4.81322103,36.0870227 4.94179534,36.1160499 C6.00879534,36.1910499 6.26979534,36.0800499 6.64979534,35.8260499 C8.06264914,34.6518224 9.27308758,33.2535515 10.2327953,31.6870499 C9.98039367,32.8491352 10.0147154,34.0551992 10.3327953,35.2010499 C10.4795902,35.7149085 10.8245035,36.149406 11.2916574,36.4089568 C11.7588113,36.6685076 12.3099383,36.7318502 12.8237953,36.5850499 C12.8617953,36.5730499 12.9007953,36.5620499 12.9377953,36.5490499 C13.777315,35.9425805 14.2849266,34.9784146 14.3097953,33.9430499 C14.5378227,32.2678478 14.4297174,30.5639991 13.9917953,28.9310499 L7.19879534,24.7810499 Z" id="路径_3090" fill="#111111"></path>
                                <rect id="矩形_260" fill="#F9DC0F" transform="translate(11.392477, 25.167586) rotate(-51.376000) translate(-11.392477, -25.167586) " x="9.2984766" y="20.1940864" width="4.188" height="9.947" rx="1.446"></rect>
                            </g>
                            <g id="组_1673" transform="translate(97.762026, 87.332549)">
                                <path d="M26.1827691,21.5761814 C28.3427691,21.1081814 28.6147691,17.9761814 27.0517691,16.4021814 C25.7674833,14.873599 23.8576523,14.0121512 21.8617691,14.0611814 C22.6707148,12.900085 22.7535802,11.3814011 22.0757691,10.1391814 C21.538729,8.67616024 20.4509633,7.48108939 19.0447691,6.80918135 C17.6109195,6.13574974 15.9008912,6.57405722 14.9677691,7.85418135 C16.3557414,5.75407178 15.970602,2.95025723 14.0677691,1.30218135 C12.0801226,-0.346681683 9.22774841,-0.438879636 7.13776905,1.07818135 L0.502769053,10.4161814 C-0.933230947,10.7061814 1.04376905,14.2651814 2.22976905,15.1481814 C3.52675318,15.8898405 5.05761281,16.1094031 6.51076905,15.7621814 C7.91076905,15.5811814 7.95876905,15.1681814 9.32776905,14.8671814 C8.72776905,16.4001814 7.69476905,18.1071814 8.74876905,20.1891814 C10.6007691,23.8331814 14.9187691,20.7071814 14.9187691,20.7071814 C13.3057691,21.8071814 15.5617691,25.3311814 17.3187691,26.3461814 C19.1592271,27.2335833 21.3338829,27.0680043 23.0187691,25.9121814 L26.1827691,21.5761814 Z" id="路径_3091" fill="#111111"></path>
                                <path d="M30.7927691,24.2581814 C33.0464483,23.5666564 35.4541796,23.5562197 37.7137691,24.2281814 C39.0167755,24.8435465 39.8008297,26.203185 39.6807691,27.6391814 C39.2807691,29.9181814 35.7637691,30.3901814 33.2967691,29.9871814 C34.7307686,30.5154504 35.9811207,31.4476573 36.8967691,32.6711814 C37.6171278,33.6565481 37.4027172,35.0392503 36.4177691,35.7601814 C36.2459893,35.8857805 36.0574997,35.9867571 35.8577691,36.0601814 C34.6747691,36.3221814 34.3577691,36.2481814 33.8717691,36.0341814 C32.0318592,35.0214191 30.3616753,33.7271109 28.9217691,32.1981814 C29.4594247,33.3845872 29.6891765,34.6874317 29.5897691,35.9861814 C29.4477883,37.1903179 28.3583215,38.0525888 27.1537691,37.9141814 C27.0857691,37.9071814 27.0207691,37.8951814 26.9537691,37.8821814 C25.8911541,37.3923678 25.1093945,36.4453493 24.8297691,35.3091814 C24.2030959,33.5672027 23.9446496,31.7141525 24.0707691,29.8671814 L30.7927691,24.2581814 Z" id="路径_3092" fill="#111111"></path>
                                <path d="M25.8677691,29.2391814 L30.1257691,24.6061814 C30.9395363,23.6881803 30.8553804,22.2843881 29.9377691,21.4701814 C29.9047691,21.4411814 29.8707691,21.4141814 29.8377691,21.3861814 L29.8377691,21.3861814 C28.8474108,20.5385019 27.3699395,20.601847 26.4557691,21.5311814 L22.1977691,26.1641814 C21.807091,26.6046995 21.607416,27.1823752 21.6426731,27.7701188 C21.6779302,28.3578624 21.9452311,28.9075256 22.3857691,29.2981814 C22.4187691,29.3271814 22.4527691,29.3561814 22.4857691,29.3831814 L22.4857691,29.3831814 C23.4762136,30.2301321 24.9529022,30.1672571 25.8677691,29.2391814 L25.8677691,29.2391814 Z" id="路径_3093" fill="#F8DD0D"></path>
                            </g>
                            <g id="组_1674" transform="translate(38.792795, 117.586730)" fill="#FFCBA6">
                                <polygon id="路径_3094" points="22.142 9.969 13.218 18.302 0 18.302 9.579 5.674 9.929 5.212 13.883 0 19.083 6.273"></polygon>
                            </g>
                            <g id="组_1677" transform="translate(66.168795, 118.843730)">
                                <g id="组_1675" fill="#FFCBA6">
                                    <polygon id="路径_3095" points="7.728 0 21.815 17.044 7.939 17.044 0 10.218 3.15 6.052"></polygon>
                                </g>
                                <g id="组_1676" transform="translate(9.698000, 15.030000)" fill="#FFB885">
                                    <polygon id="路径_3096" points="3.041 1.737 3.331 2.014 0 2.014 1.2 0"></polygon>
                                </g>
                            </g>
                            <g id="组_1680" transform="translate(45.888142, 113.728730)">
                                <path d="M33.0706529,22.159 L0.691652945,22.159 C1.00565295,20.1816667 1.27231961,18.4266667 1.49165295,16.894 C1.57565295,16.315 1.65765295,15.758 1.73165295,15.239 C1.73165295,15.203 1.74065295,15.175 1.74065295,15.146 C1.82465295,14.602 1.88565295,14.094 1.95365295,13.623 C2.02165295,13.152 2.07365295,12.717 2.12865295,12.323 C2.15765295,12.123 2.18465295,11.923 2.20265295,11.744 C2.22065295,11.565 2.24865295,11.394 2.27765295,11.227 C2.30665295,11.06 2.31365295,10.913 2.33265295,10.765 C2.35965295,10.525 2.38765295,10.312 2.40665295,10.127 C2.43465295,9.888 2.46165295,9.684 2.48065295,9.527 L2.53565295,9.027 C2.53565295,9.027 2.63565295,9.036 2.82565295,9.065 C2.83897913,9.0635174 2.85240737,9.06669778 2.86365295,9.074 C2.94665295,9.083 3.04865295,9.093 3.16365295,9.11 C3.27865295,9.127 3.41365295,9.139 3.56365295,9.156 C3.71365295,9.173 3.87765295,9.194 4.05265295,9.221 C4.22765295,9.248 4.41265295,9.267 4.61565295,9.286 C5.12365295,9.35 5.70565295,9.431 6.36165295,9.497 C6.67565295,9.535 7.01865295,9.572 7.37465295,9.617 L7.60665295,9.646 C7.89665295,9.682 8.19765295,9.71 8.50665295,9.746 C8.95965295,9.801 9.43865295,9.856 9.94665295,9.913 L10.4546529,9.968 C10.9456529,10.014 11.4546529,10.068 11.9786529,10.124 C13.9456529,10.337 16.0896529,10.55 18.2516529,10.744 L19.1856529,10.827 C20.6076529,10.957 22.0306529,11.067 23.4156529,11.16 L23.8036529,11.187 C26.8336529,11.387 29.6696529,11.511 31.8966529,11.465 C31.9769866,14.9601957 32.3509698,18.4424542 33.0146529,21.875 C33.0384146,21.9685904 33.0571085,22.0633949 33.0706529,22.159 L33.0706529,22.159 Z" id="路径_3097" fill="#F8CF39"></path>
                                <path d="M28.8676529,22.159 L0.691652945,22.159 C1.00565295,20.1816667 1.27231961,18.4266667 1.49165295,16.894 C1.57565295,16.315 1.65765295,15.758 1.73165295,15.239 C1.73165295,15.203 1.74065295,15.175 1.74065295,15.146 C1.82465295,14.602 1.88565295,14.094 1.95365295,13.623 C2.02165295,13.152 2.07365295,12.717 2.12865295,12.323 C2.15765295,12.123 2.18465295,11.923 2.20265295,11.744 C2.22065295,11.565 2.24865295,11.394 2.27765295,11.227 C2.30665295,11.06 2.31365295,10.913 2.33265295,10.765 C2.35965295,10.525 2.38765295,10.312 2.40665295,10.127 C2.43465295,9.888 2.46165295,9.684 2.48065295,9.527 L2.53565295,9.027 C2.53565295,9.027 2.63565295,9.036 2.82565295,9.065 C2.83897913,9.0635174 2.85240737,9.06669778 2.86365295,9.074 C2.94665295,9.083 3.04865295,9.093 3.16365295,9.11 C3.27865295,9.127 3.41365295,9.139 3.56365295,9.156 C3.71365295,9.173 3.87765295,9.194 4.05265295,9.221 C4.22765295,9.248 4.41265295,9.267 4.61565295,9.286 C5.12365295,9.35 5.70565295,9.431 6.36165295,9.497 C6.67565295,9.535 7.01865295,9.581 7.37465295,9.617 L7.60665295,9.646 C7.89665295,9.682 8.19765295,9.71 8.50665295,9.746 C8.95965295,9.801 9.43865295,9.856 9.94665295,9.913 L10.4546529,9.968 C10.9456529,10.014 11.4546529,10.068 11.9786529,10.124 C13.9456529,10.337 16.0896529,10.55 18.2516529,10.744 L19.1856529,10.827 C20.6076529,10.957 22.0306529,11.067 23.4156529,11.16 L23.8036529,11.187 C26.2268059,14.4580119 27.950587,18.192871 28.8676529,22.159 L28.8676529,22.159 Z" id="路径_3098" fill="#F8E343"></path>
                                <path d="M16.7506529,0.363 L10.4806529,0 C6.53865295,0.618 1.78065295,3.926 0.359652945,7.657 C-1.08834705,11.482 2.04465295,15.957 6.02465295,16.906 C10.0046529,17.855 14.2246529,16.006 17.2166529,13.223 L17.5816529,13.223 C20.5816529,16.008 24.7956529,17.856 28.7756529,16.906 C32.7556529,15.956 35.8926529,11.482 34.4406529,7.657 C33.0236529,3.926 28.2616529,0.618 24.3196529,0 L16.7506529,0.363 Z" id="路径_3099" fill="#FFFFE8"></path>
                                <g id="组_1679" transform="translate(1.730237, 0.249170)" fill="#F8E343">
                                    <path d="M14.822416,0.351829539 C12.9143906,0.0799182418 10.9807661,0.0362774104 9.062416,0.221829539 C5.21916004,1.00413549 1.97995022,3.57350986 0.343416002,7.13782954 C-0.947583998,10.6528295 1.582416,14.4378295 4.909416,15.6228295 C8.991416,17.0778295 13.009416,14.1058295 15.871416,11.5228295 L15.102416,11.8418295 L15.402416,11.8418295 L14.635416,11.5248295 C17.803416,14.3728295 22.135416,17.2418295 26.429416,15.0138295 C29.681416,13.3268295 31.589416,9.34282954 29.829416,5.93682954 C27.9840614,2.65109374 24.6772914,0.447323942 20.934416,0.00882953889 C18.919416,-0.0551704611 16.834416,0.245829539 14.819416,0.361829539 C13.429416,0.442829539 13.419416,2.61482954 14.819416,2.53382954 C17.299416,2.38882954 20.154416,1.74182954 22.535416,2.60482954 C24.799416,3.42382954 27.579416,5.31082954 28.249416,7.77182954 C28.919416,10.2328295 26.801416,12.7478295 24.549416,13.4578295 C21.661416,14.3698295 18.703416,12.2158295 16.649416,10.4178295 C15.901416,9.76482954 15.227416,9.35482954 14.333416,9.98382954 C13.133416,10.8288295 12.133416,11.8838295 10.841416,12.6288295 C8.392416,14.0548295 5.518416,14.3938295 3.451416,12.1178295 C1.424416,9.88282954 2.151416,7.31782954 4.126416,5.36582954 C5.646416,3.86582954 8.083416,2.21382954 10.313416,2.31682954 L14.821416,2.52482954 C16.219416,2.58782954 16.212416,0.416829539 14.822416,0.351829539 Z" id="路径_3100"></path>
                                </g>
                            </g>
                            <path d="M69.7067953,116.73873 L63.4247953,123.01973 L55.5707953,116.73873 L55.8607953,109.45673 C60.0665676,110.024324 64.3224839,110.12159 68.5497953,109.74673 L69.7067953,116.73873 Z" id="路径_3101" fill="#FFB885"></path>
                            <g id="组_1681" transform="translate(7.394025, 67.484872)">
                                <path d="M15.7207704,6.69385807 L15.7207704,18.4508581 C15.243665,18.5122394 14.7627396,18.5389761 14.2817704,18.5308581 C13.3707635,18.5207742 12.4620918,18.4364955 11.5647704,18.2788581 C11.0887704,18.1908581 10.5807704,18.0788581 10.0517704,17.9328581 C6.29777039,16.9078581 2.55977039,14.9388581 0.874770392,11.4328581 C-0.52093274,8.49732307 -0.231045365,5.03815317 1.63377039,2.37585807 C2.03958001,1.81999582 2.52787165,1.32934366 3.08177039,0.920858073 C3.3462629,0.729882752 3.63474007,0.574548893 3.93977039,0.458858073 C6.41574202,-0.346231196 9.1151434,-0.083900109 11.3897704,1.18285807 C11.6644739,1.32811473 11.9269944,1.49532522 12.1747704,1.68285807 C12.9243054,2.20973188 13.5687125,2.87211458 14.0747704,3.63585807 L15.7207704,6.69385807 Z" id="路径_3102" fill="#FFCBA6"></path>
                                <path d="M14.4027704,11.0718581 C12.9783399,8.94973304 10.7798376,7.46946798 8.27777039,6.94785807 C5.96177039,6.49185807 4.84977039,9.77685807 6.87777039,11.1008581 C8.35364264,11.9376333 9.98907127,12.4544969 11.6777704,12.6178581 C20.7337704,13.9438581 14.4027704,11.0718581 14.4027704,11.0718581 Z" id="路径_3103" fill="#F17558"></path>
                            </g>
                            <g id="组_1682" transform="translate(10.419736, 0.000000)" fill="#111111">
                                <path d="M110.65306,66.9217304 C110.44506,67.6217304 110.21906,68.2767304 109.96806,68.9007304 L98.9740597,73.5487304 C98.9330597,73.5557304 98.8940597,73.5607304 98.8540597,73.5647304 C97.9424571,73.6169218 97.0314107,73.4531459 96.1950597,73.0867304 C95.8394449,72.9487359 95.4915979,72.7915037 95.1530597,72.6157304 C94.9970597,72.5317304 94.8450597,72.4437304 94.6930597,72.3537304 C90.8607409,69.9859874 88.2006292,66.1159422 87.3630597,61.6897304 C86.8861703,59.2544506 87.1380063,56.7326125 88.0870597,54.4397304 L72.6690597,55.3397304 L52.4880597,56.5287304 L10.0880597,60.7167304 L9.16105974,69.1607304 L8.44405974,75.7047304 L7.97805974,79.9867304 L7.84205974,81.1957304 L7.78405974,81.7257304 L7.75805974,81.9817304 C7.32405974,81.5257304 6.92605974,81.0817304 6.55805974,80.6247304 C6.21805974,80.2117304 5.90905974,79.8087304 5.61605974,79.3997304 C5.42205974,79.1337304 5.24005974,78.8657304 5.06205974,78.5997304 C4.36141563,77.5285386 3.75162212,76.4006045 3.23905974,75.2277304 C2.90905974,74.4847304 2.58005974,73.6727304 2.23905974,72.7567304 C1.67564379,71.1893692 1.24087203,69.5787071 0.939059736,67.9407304 C0.0935549598,63.3926523 -0.182567581,58.7570184 0.117059736,54.1407304 C0.243059736,52.4987304 0.37039307,50.865397 0.499059736,49.2407304 L0.499059736,49.3507304 C2.75605974,34.9227304 8.10505974,23.0447304 16.1510597,14.9407304 C20.3729694,10.6936289 25.3679778,7.29290937 30.8670597,4.92173036 C39.0332867,1.52094734 47.8154925,-0.151189008 56.6600597,0.0107303561 C59.2323033,0.00916777562 61.8027408,0.147036693 64.3600597,0.423730356 C91.2730597,3.40873036 103.80506,22.3007304 108.98806,33.4107304 C110.30607,36.148887 111.372134,39.0013193 112.17306,41.9327304 C113.435655,50.2763222 112.917632,58.7926847 110.65306,66.9217304 Z" id="路径_3105"></path>
                            </g>
                            <path d="M99.5467953,49.7297304 C99.5467953,50.1150637 99.541462,50.497397 99.5307953,50.8767304 C99.5107953,51.6927304 99.4627953,52.5057304 99.3857953,53.3057304 C99.3829496,53.4061497 99.3742683,53.5063187 99.3597953,53.6057304 C99.3297953,53.9517304 99.2977953,54.3057304 99.2497953,54.6377304 C99.1137953,55.8147304 98.9207953,56.9767304 98.6847953,58.1237304 C98.6527953,58.2957304 98.6167953,58.4637304 98.5847953,58.6237304 C98.3587953,59.660397 98.0921287,60.6830637 97.7847953,61.6917304 C97.3079059,59.2564506 97.5597419,56.7346125 98.5087953,54.4417304 L83.0907953,55.3417304 L62.9097953,56.5307304 L20.5097953,60.7187304 L19.5827953,69.1627304 L18.8657953,75.7067304 L18.3997953,79.9887304 L18.2637953,81.1977304 L18.2057953,81.7277304 L18.1797953,81.9837304 C17.7457953,81.5277304 17.3477953,81.0837304 16.9797953,80.6267304 C16.6397953,80.2137304 16.3307953,79.8107304 16.0377953,79.4017304 C15.8437953,79.1357304 15.6617953,78.8677304 15.4837953,78.6017304 C14.7831593,77.5305338 14.1733661,76.4026004 13.6607953,75.2297304 C13.3307953,74.4867304 13.0017953,73.6747304 12.6607953,72.7587304 C12.0973752,71.1913706 11.6626033,69.5807081 11.3607953,67.9427304 C10.5152803,63.3946536 10.2391576,58.7590184 10.5387953,54.1427304 C10.6647953,52.5007304 10.7921287,50.867397 10.9207953,49.2427304 L10.9207953,49.3527304 C13.1777953,34.9247304 18.5267953,23.0467304 26.5727953,14.9427304 C30.7944365,10.6953056 35.789511,7.29454104 41.2887953,4.92373036 C44.2349654,4.42912851 47.217399,4.18226489 50.2047953,4.18569437 C77.4447953,4.18569437 99.5467953,24.8677304 99.5467953,49.7297304 Z" id="路径_3106" fill="#222222"></path>
                            <circle id="椭圆_435" fill="#333333" cx="79.3897953" cy="12.2977304" r="3.402"></circle>
                            <circle id="椭圆_436" fill="#333333" cx="74.6797953" cy="8.63373036" r="3.402"></circle>
                            <circle id="椭圆_437" fill="#333333" cx="84.6257953" cy="17.5337304" r="2.355"></circle>
                            <g id="组_1683" transform="translate(105.686379, 65.576789)">
                                <path d="M7.24341634,19.9589416 C11.4184163,18.8199416 15.5794163,16.6289416 17.4584163,12.7319416 C19.4316463,8.73072852 18.4153659,3.89916388 14.9974163,1.03194162 C12.7104163,-0.662058376 5.90441634,-0.662058376 2.76341634,4.04994162 L0.932416336,7.44994162 L0.932416336,20.5369416 C3.05368509,20.750523 5.19623479,20.5542952 7.24341634,19.9589416 L7.24341634,19.9589416 Z" id="路径_3107" fill="#FFB885"></path>
                                <path d="M2.39541634,12.3229416 C3.98104555,9.96022125 6.42875709,8.3122606 9.21441634,7.73194162 C11.7844163,7.22394162 13.0304163,10.8809416 10.7754163,12.3539416 C9.13226512,13.2863594 7.31099169,13.861875 5.43041634,14.0429416 C-4.65258366,15.5209416 2.39541634,12.3229416 2.39541634,12.3229416 Z" id="路径_3108" fill="#F17558"></path>
                            </g>
                            <g id="组_1684" transform="translate(17.974234, 42.929730)" fill="#FFCBA6">
                                <path d="M87.5975618,29.688 C87.3096751,29.5331961 87.0299697,29.3636372 86.7595618,29.18 C81.2595618,25.516 80.0495618,17.502 81.0485618,11.518 L82.0965618,6.806 L80.0015618,11.518 L54.8735618,11.518 L53.3025618,0 L50.1615618,12.04 L41.2615618,12.564 L40.2135618,1.046 L39.1665618,12.564 L37.0735618,12.564 L37.0735618,2.619 L35.5025618,12.566 L26.6025618,12.566 L27.0525618,2.432 L23.9885618,12.564 L4.61956181,15.705 L4.09556181,6.805 L2.23256181,17.631 C1.10357306,22.8465304 0.373792295,28.1405333 0.0495618083,33.467 C-0.180347169,37.4540047 0.391244801,41.4466477 1.73056181,45.209 L1.87556181,45.617 C1.98156181,45.907 2.10156181,46.203 2.22756181,46.486 C2.35356181,46.769 2.46256181,47.042 2.59356181,47.314 C2.66156181,47.48 2.73856181,47.648 2.82356181,47.814 C6.30407908,54.6817366 11.9096281,60.2416892 18.8055618,63.666 C19.6102285,64.1 20.4305618,64.51 21.2665618,64.896 C23.2262971,65.8014987 25.2381874,66.5895586 27.2915618,67.256 C30.7416033,68.38028 34.2864336,69.1895898 37.8825618,69.674 C42.088334,70.2415934 46.3442503,70.3388599 50.5715618,69.964 C51.0055618,69.976 51.4405618,69.98 51.8715618,69.98 C52.9962285,69.97 54.1182285,69.9106667 55.2375618,69.802 C60.7561889,69.270763 66.1033652,67.5944062 70.9375618,64.88 C73.2496856,63.5919475 75.4216858,62.06709 77.4185618,60.33 C81.549991,56.7193361 84.8809132,52.2848054 87.1975618,47.311 L87.1975618,47.311 C89.0143384,43.4494976 90.1878051,39.3170303 90.6715618,35.077 L91.2995618,30.644 C90.002156,30.6631101 88.7234921,30.3329095 87.5975618,29.688 Z" id="路径_3109"></path>
                            </g>
                            <path d="M109.272795,73.5657304 L108.644795,77.9987304 C108.161233,82.238799 106.987757,86.3712974 105.170795,90.2327304 L105.170795,90.2327304 C102.854503,95.2067491 99.5235286,99.6413489 95.3917953,103.25173 C93.3949193,104.98882 91.2229191,106.513678 88.9107953,107.80173 C84.0765871,110.516109 78.7294166,112.192464 73.2107953,112.72373 C96.2807953,103.92873 103.110795,79.7907304 104.735795,72.1107304 C105.006203,72.2943676 105.285909,72.4639264 105.573795,72.6187304 C106.699732,73.259978 107.977235,73.5870382 109.272795,73.5657304 Z" id="路径_3110" fill="#FFB885"></path>
                            <g id="组_1689" transform="translate(19.726795, 51.278580)">
                                <circle id="椭圆_438" fill="#FFFFFF" cx="20.438" cy="20.2021505" r="12.564"></circle>
                                <circle id="椭圆_439" fill="#FFFFFF" cx="62.327" cy="19.6781505" r="12.564"></circle>
                                <g id="组_1686" transform="translate(8.785917, 7.970782)">
                                    <path d="M20.253166,10.0263682 C20.2611824,12.0101405 19.6765229,13.9511126 18.574083,15.6003682 L18.574083,15.6143682 C16.6957894,18.447321 13.5218803,20.1494235 10.1228216,20.1466104 C6.72376286,20.1437903 3.55267902,18.43643 1.67908302,15.6003682 C0.576643196,13.9511126 -0.00801632127,12.0101405 0,10.0263682 C0.0552702878,4.47291426 4.57285484,0 10.126583,0 C15.6803112,0 20.1978958,4.47291426 20.253166,10.0263682 L20.253166,10.0263682 Z" id="路径_3799" fill="#7C3821"></path>
                                    <circle id="椭圆_441" fill="#FFFFFF" cx="7.19508302" cy="5.92536825" r="2.587"></circle>
                                    <path d="M18.574083,15.6003682 L18.574083,15.6143682 C16.6957894,18.447321 13.5218803,20.1494235 10.1228216,20.1466104 C6.72376286,20.1437903 3.55267902,18.43643 1.67908302,15.6003682 C2.42892278,14.445182 3.40985059,13.4577851 4.56008302,12.7003682 C9.23105279,9.63288145 15.5041445,10.9310095 18.574083,15.6003682 L18.574083,15.6003682 Z" id="路径_3800" fill="#9E5036"></path>
                                </g>
                                <path d="M85.443,38.9531505 L85.443,38.9531505 C83.126866,43.9267503 79.7970449,48.3615162 75.667,51.9731505 C73.6694823,53.709132 71.4975656,55.2335956 69.186,56.5221505 C63.8718183,54.4010083 60.6058256,49.0159136 61.1808904,43.323017 C61.7559552,37.6301204 66.0329247,33.0069739 71.6639544,31.9914561 C77.294984,30.9759383 82.9174922,33.8137817 85.445,38.9471505 L85.443,38.9531505 Z" id="路径_3112" fill="#F59679"></path>
                                <path d="M22.894,47.5981505 C22.0352924,50.8359919 19.9391042,53.6069681 17.057,55.3141505 C10.1624776,51.8889053 4.55815108,46.3291215 1.078,39.4621505 C0.994,39.3001505 0.916,39.1321505 0.848,38.9621505 C0.703,38.6521505 0.57,38.3441505 0.434,38.0301505 C0.289,37.6641505 0.144,37.2921505 0,36.9201505 C3.57209714,31.8276213 10.2833912,30.0323415 15.9209871,32.6612658 C21.5585831,35.2901902 24.4971268,41.5853835 22.892,47.5951505 L22.894,47.5981505 Z" id="路径_3113" fill="#F59679"></path>
                                <g id="组_1687" transform="translate(50.664511, 7.352084)">
                                    <path d="M20.1824887,10.0810667 C20.1811183,10.9611592 20.064459,11.83728 19.8354887,12.6870667 C19.5549919,13.7347034 19.110496,14.7313596 18.5184887,15.6400667 C16.6534574,18.4776029 13.4847866,20.1850629 10.0892092,20.1822453 C6.69363185,20.1794208 3.52780255,18.4666979 1.66748872,15.6260667 C0.0744818223,13.2313841 -0.405692922,10.2650198 0.350488724,7.49006666 C1.65401139,2.59765085 6.38266912,-0.570148517 11.4030965,0.0857574614 C16.4235239,0.74166344 20.1796276,5.01797516 20.1824887,10.0810667 L20.1824887,10.0810667 Z" id="路径_3801" fill="#7C3821"></path>
                                    <path d="M18.5194887,15.6400667 C16.6544574,18.4776029 13.4857866,20.1850629 10.0902092,20.1822453 C6.69463185,20.1794208 3.52880255,18.4666979 1.66848872,15.6260667 C3.54076646,12.7988777 6.70682154,11.099892 10.0977526,11.1027057 C13.4886836,11.1055264 16.6519113,12.8097706 18.5194887,15.6400667 L18.5194887,15.6400667 Z" id="路径_3802" fill="#9E5036"></path>
                                    <circle id="椭圆_442" fill="#FFFFFF" cx="6.58648872" cy="6.00106666" r="2.578"></circle>
                                </g>
                                <path d="M11.044,2.78815045 L17.326,1.03215045 C17.8823811,0.876511358 18.4596776,1.20096094 18.616,1.75715045 L18.616,1.75715045 C18.6909502,2.02462857 18.6564284,2.31093456 18.5200474,2.55293106 C18.3836665,2.79492756 18.1566282,2.97273784 17.889,3.04715045 L11.609,4.80515045 C11.3415288,4.87982287 11.0553486,4.84517734 10.8134231,4.70883638 C10.5714976,4.57249542 10.3936467,4.34562882 10.319,4.07815045 L10.319,4.07815045 C10.2439773,3.81094246 10.2782253,3.52487283 10.4142033,3.28292559 C10.5501814,3.04097835 10.7767409,2.86299078 11.044,2.78815045 L11.044,2.78815045 Z" id="矩形_261" fill="#333333"></path>
                                <path d="M60.787,0.0341504529 L67.096,1.68715045 C67.3647092,1.75693041 67.5945591,1.93086305 67.7347363,2.17049656 C67.8749135,2.41013008 67.9138723,2.69572732 67.843,2.96415045 L67.843,2.96415045 C67.7729827,3.23271323 67.5990065,3.46239151 67.3594436,3.60252732 C67.1198808,3.74266313 66.8344119,3.78174408 66.566,3.71115045 L60.257,2.05915045 C59.6982693,1.91191618 59.3641181,1.34023575 59.51,0.781150453 L59.51,0.781150453 C59.5802538,0.512733727 59.7542735,0.283226489 59.9937659,0.143131848 C60.2332584,0.00303720754 60.5185995,-0.0361654408 60.787,0.0341504529 L60.787,0.0341504529 Z" id="矩形_262" fill="#333333"></path>
                                <g id="组_1688" transform="translate(33.229000, 36.143150)">
                                    <path d="M19.95,7.822 C18.5915431,10.7885984 15.9147833,12.9417893 12.726,13.633 C12.0051509,13.7874338 11.2702022,13.8665254 10.533,13.869 C9.07423093,13.869 7.63222696,13.5579683 6.303,12.957 C6.041,12.837 5.785,12.711 5.534,12.57 C3.08613864,11.2223741 1.29085805,8.93802935 0.56,6.241 L0,4.188 L20.412,0 L20.712,1.671 C21.0965991,3.75090779 20.8305112,5.89881697 19.95,7.822 Z" id="路径_3116" fill="#DA5257"></path>
                                    <path d="M4.33,3.301 L4.33,3.301 C4.43076454,3.81261211 4.73064848,4.26323736 5.16367487,4.55373449 C5.59670126,4.84423162 6.12739532,4.95080227 6.639,4.85 L6.646,4.85 L13.595,3.459 C14.5140911,3.27586037 15.176,2.46915982 15.176,1.532 L15.176,1.076 L4.33,3.301 Z" id="路径_3117" fill="#FFFFFF"></path>
                                    <path d="M19.95,7.821 C18.5915431,10.7875984 15.9147833,12.9407893 12.726,13.632 C12.0051509,13.7864338 11.2702022,13.8655254 10.533,13.868 C9.07423093,13.8678684 7.63222696,13.5569683 6.303,12.956 C6.041,12.836 5.785,12.71 5.534,12.569 C7.776263,10.5915211 10.4770343,9.20555828 13.391,8.537 C15.5250648,7.9495797 17.7394588,7.70784985 19.95,7.821 L19.95,7.821 Z" id="路径_3118" fill="#EE706E"></path>
                                </g>
                            </g>
                        </g>
                    </g>
                </g>
            </g>
        </g>
    </g>
</svg>