<svg xmlns="http://www.w3.org/2000/svg" width="115.844" height="142.644" viewBox="0 0 115.844 142.644">
  <defs>
    <style>
      .cls-1 {
        fill: #65c27e;
      }

      .cls-2, .cls-3 {
        fill: #fff;
      }

      .cls-3 {
        font-size: 64px;
        font-family: TimesNewRomanPS-BoldMT, Times New Roman;
        font-weight: 700;
      }
    </style>
  </defs>
  <g id="组_6901" data-name="组 6901" transform="translate(-1720 -287.818)">
    <g id="组_6899" data-name="组 6899">
      <path id="路径_16939" data-name="路径 16939" class="cls-1" d="M567.54,439.573H683.384v85.336a21.437,21.437,0,0,1-21.437,21.437h0a21.44,21.44,0,0,1-12.9-4.32l-9.723-7.33a22.743,22.743,0,0,0-27.594.16l-8.975,6.932a21.85,21.85,0,0,1-13.357,4.558h0a21.854,21.854,0,0,1-21.853-21.853Z" transform="translate(1152.46 -151.755)"/>
      <g id="组_6574" data-name="组 6574" transform="translate(1728.213 293.097)">
        <path id="路径_16940" data-name="路径 16940" class="cls-2" d="M577.111,462.137a3.416,3.416,0,0,1-3.417-3.417c0-5.081,1.515-9.026,4.5-11.724a14.675,14.675,0,0,1,10.663-3.422,3.416,3.416,0,0,1-.669,6.8,8.01,8.01,0,0,0-5.449,1.726c-1.467,1.349-2.211,3.577-2.211,6.62A3.416,3.416,0,0,1,577.111,462.137Z" transform="translate(-573.694 -443.528)"/>
      </g>
      <text id="_09" data-name="09" class="cls-3" transform="translate(1746.055 352.283)"><tspan x="0" y="0">09</tspan></text>
    </g>
    <path id="路径_16941" data-name="路径 16941" class="cls-1" d="M630.232,531.3a3.206,3.206,0,0,0,.952-2.213,2.841,2.841,0,0,0-.854-2.218,2.909,2.909,0,0,0-2.2-.873,3.1,3.1,0,0,0-2.2.921l-14.113,14.052-4.859-4.786a3.1,3.1,0,0,0-2.2-.921,2.917,2.917,0,0,0-2.2.872,2.981,2.981,0,0,0-.926,2.117,2.789,2.789,0,0,0,.878,2.121l6.956,6.975a3.1,3.1,0,0,0,2.353.872,3.267,3.267,0,0,0,2.346-.921l-.195.2,16.265-16.2Zm-13.766-17.735a21.264,21.264,0,0,1,8.535,1.72,22.1,22.1,0,0,1,6.956,4.706,22.449,22.449,0,0,1,4.706,6.975,21.953,21.953,0,0,1,0,17.063A22.022,22.022,0,0,1,625,555.737a22.092,22.092,0,0,1-17.094,0,21.974,21.974,0,0,1-6.98-4.7,22.314,22.314,0,0,1-4.707-7.006,21.953,21.953,0,0,1,0-17.063,22.45,22.45,0,0,1,4.707-6.975,22.006,22.006,0,0,1,6.98-4.707,21.464,21.464,0,0,1,8.559-1.719" transform="translate(1161.48 -126.995)"/>
  </g>
</svg>
