<svg xmlns="http://www.w3.org/2000/svg" width="115.844" height="106.773" viewBox="0 0 115.844 106.773">
  <defs>
    <style>
      .cls-1 {
        fill: #d3d0d4;
      }

      .cls-2, .cls-3 {
        fill: #fff;
      }

      .cls-3 {
        font-size: 64px;
        font-family: TimesNewRomanPS-BoldMT, Times New Roman;
        font-weight: 700;
      }
    </style>
  </defs>
  <g id="组_6931" data-name="组 6931" transform="translate(-1720 -678)">
    <g id="组_6880" data-name="组 6880" transform="translate(1720 678)">
      <path id="路径_16926" data-name="路径 16926" class="cls-1" d="M819.189,439.573H935.033v85.336A21.436,21.436,0,0,1,913.6,546.346h0a21.441,21.441,0,0,1-12.906-4.32l-9.722-7.33a22.742,22.742,0,0,0-27.594.16l-8.976,6.932a21.857,21.857,0,0,1-13.358,4.558h0a21.854,21.854,0,0,1-21.853-21.853Z" transform="translate(-819.189 -439.573)"/>
    </g>
    <g id="组_6840" data-name="组 6840" transform="translate(1728.213 684.097)">
      <path id="路径_16940" data-name="路径 16940" class="cls-2" d="M577.111,462.137a3.416,3.416,0,0,1-3.417-3.417c0-5.081,1.515-9.026,4.5-11.724a14.675,14.675,0,0,1,10.663-3.422,3.416,3.416,0,0,1-.669,6.8,8.01,8.01,0,0,0-5.449,1.726c-1.467,1.349-2.211,3.577-2.211,6.62A3.416,3.416,0,0,1,577.111,462.137Z" transform="translate(-573.694 -443.528)"/>
    </g>
    <text id="_09" data-name="09" class="cls-3" transform="translate(1746.055 743.283)"><tspan x="0" y="0">09</tspan></text>
  </g>
</svg>
