<svg xmlns="http://www.w3.org/2000/svg" width="115.843" height="142.644" viewBox="0 0 115.843 142.644">
  <defs>
    <style>
      .cls-1 {
        fill: #65c27e;
      }

      .cls-2, .cls-3 {
        fill: #fff;
      }

      .cls-3 {
        font-size: 64px;
        font-family: TimesNewRomanPS-BoldMT, Times New Roman;
        font-weight: 700;
      }
    </style>
  </defs>
  <g id="组_6897" data-name="组 6897" transform="translate(-2132 -287.818)">
    <path id="路径_16942" data-name="路径 16942" class="cls-1" d="M693.365,439.573H809.208v85.336a21.436,21.436,0,0,1-21.436,21.437h0a21.443,21.443,0,0,1-12.906-4.32l-9.722-7.33a22.743,22.743,0,0,0-27.594.16l-8.975,6.932a21.854,21.854,0,0,1-13.358,4.558h0a21.852,21.852,0,0,1-21.852-21.853Z" transform="translate(1438.635 -151.755)"/>
    <g id="组_6577" data-name="组 6577" transform="translate(2140.213 293.097)">
      <path id="路径_16943" data-name="路径 16943" class="cls-2" d="M702.936,462.137a3.417,3.417,0,0,1-3.417-3.417c0-5.081,1.515-9.026,4.5-11.724a14.674,14.674,0,0,1,10.661-3.422,3.416,3.416,0,0,1-.667,6.8,8.009,8.009,0,0,0-5.449,1.726c-1.467,1.349-2.212,3.577-2.212,6.62A3.416,3.416,0,0,1,702.936,462.137Z" transform="translate(-699.519 -443.528)"/>
    </g>
    <text id="_11" data-name="11" class="cls-3" transform="translate(2158.055 352.283)"><tspan x="0" y="0">11</tspan></text>
    <path id="路径_16944" data-name="路径 16944" class="cls-1" d="M756.057,531.3a3.2,3.2,0,0,0,.95-2.213,2.835,2.835,0,0,0-.853-2.218,2.909,2.909,0,0,0-2.2-.873,3.094,3.094,0,0,0-2.2.921L737.64,540.966l-4.859-4.786a3.1,3.1,0,0,0-2.2-.921,2.916,2.916,0,0,0-2.2.872,2.981,2.981,0,0,0-.926,2.117,2.784,2.784,0,0,0,.878,2.121l6.956,6.975a3.093,3.093,0,0,0,2.353.872,3.27,3.27,0,0,0,2.346-.921l-.195.2,16.265-16.2Zm-13.766-17.735a21.268,21.268,0,0,1,8.535,1.72,22.1,22.1,0,0,1,6.956,4.706,22.447,22.447,0,0,1,4.706,6.975,21.953,21.953,0,0,1,0,17.063,22.022,22.022,0,0,1-11.662,11.71,22.1,22.1,0,0,1-17.1,0,21.985,21.985,0,0,1-6.979-4.7,22.311,22.311,0,0,1-4.707-7.006,21.951,21.951,0,0,1,0-17.063,22.448,22.448,0,0,1,4.707-6.975,22.017,22.017,0,0,1,6.979-4.707,21.475,21.475,0,0,1,8.56-1.719" transform="translate(1447.655 -126.995)"/>
  </g>
</svg>
