<svg xmlns="http://www.w3.org/2000/svg" width="1204.859" height="781.702" viewBox="0 0 1204.859 781.702">
  <defs>
    <style>
      .cls-1 {
        fill: #e5ae93;
      }

      .cls-2 {
        fill: #fff0ff;
      }

      .cls-3 {
        fill: #ffdfbd;
      }

      .cls-4 {
        fill: #fef9ed;
      }

      .cls-5 {
        fill: #dfc2a1;
      }

      .cls-6 {
        fill: #fdeec1;
      }

      .cls-7 {
        fill: #fff7ef;
      }

      .cls-8 {
        fill: #ff9409;
      }

      .cls-9 {
        fill: #df7c00;
      }

      .cls-10 {
        fill: #feaa00;
      }

      .cls-11 {
        fill: #fff;
      }

      .cls-12 {
        fill: #ffe5ef;
      }

      .cls-13 {
        fill: #6f43c8;
      }

      .cls-14 {
        fill: #4d32ad;
      }

      .cls-15 {
        fill: #9ecdeb;
      }

      .cls-16 {
        fill: #f9faff;
      }
    </style>
  </defs>
  <g id="组_6602" data-name="组 6602" transform="translate(-222.472 -45.596)">
    <g id="组_6560" data-name="组 6560" transform="translate(222.472 77.599)">
      <rect id="矩形_3640" data-name="矩形 3640" class="cls-1" width="1204.859" height="738.416" rx="63.027" transform="translate(0 11.283)"/>
      <rect id="矩形_3641" data-name="矩形 3641" class="cls-2" width="1204.859" height="738.416" rx="63.027"/>
      <rect id="矩形_3642" data-name="矩形 3642" class="cls-3" width="1204.859" height="738.416" rx="63.027" transform="translate(0 3.753)"/>
      <path id="路径_16922" data-name="路径 16922" class="cls-4" d="M1384.852,157.422V657.137a.555.555,0,0,1-.012.088c-.515,3.577-17.157,114.712-113.722,121.464h-980.5a42.824,42.824,0,0,1-42.7-42.7V157.422a42.814,42.814,0,0,1,42.7-42.686H1342.156A42.814,42.814,0,0,1,1384.852,157.422Z" transform="translate(-213.956 -54.462)"/>
      <path id="路径_16923" data-name="路径 16923" class="cls-5" d="M1133.033,521.2c-.515,3.577-17.157,114.712-113.722,121.464a140.071,140.071,0,0,1-18.925,0c20.507-11.534,46.3-16.83,50.779-47.592,2.573-15.374,21.386-22.014,31.791-18.55C1091.527,579.376,1127.209,555.116,1133.033,521.2Z" transform="translate(37.85 81.559)"/>
      <path id="路径_16924" data-name="路径 16924" class="cls-6" d="M1136.9,510.41s.348,118.883-148.044,136.2c23.713-7.379,46.937-25.274,51.835-58.971,2.8-16.85,23.343-24.122,34.707-20.329C1084.773,570.434,1130.6,547.618,1136.9,510.41Z" transform="translate(33.992 77.947)"/>
      <path id="路径_16925" data-name="路径 16925" class="cls-7" d="M1133.043,519.053s-16.021,110.14-132.662,124.331c20.508-11.535,40.055-23.072,44.541-53.834,2.564-15.38,21.381-22.02,31.79-18.557C1085.3,573.849,1127.276,553.02,1133.043,519.053Z" transform="translate(37.849 80.839)"/>
    </g>
    <g id="组_6599" data-name="组 6599" transform="translate(513.472 45.596)">
      <path id="路径_16960" data-name="路径 16960" class="cls-8" d="M490.56,58.362H456.833a16.366,16.366,0,0,0-16.365,16.365h0A16.368,16.368,0,0,0,444.1,85.011l6.66,8.244a8.837,8.837,0,0,1,.547,10.347l-8.44,13.062a15,15,0,0,0-2.4,8.14h0a15,15,0,0,0,15,15h43.952V58.362Z" transform="translate(-440.468 -41.324)"/>
      <path id="路径_16961" data-name="路径 16961" class="cls-8" d="M871.923,58.362H905.65a16.366,16.366,0,0,1,16.365,16.365h0a16.368,16.368,0,0,1-3.634,10.283l-6.659,8.244a8.837,8.837,0,0,0-.548,10.347l8.44,13.062a15,15,0,0,1,2.4,8.14h0a15,15,0,0,1-15,15H863.064V58.362Z" transform="translate(-299.05 -41.324)"/>
      <rect id="矩形_3643" data-name="矩形 3643" class="cls-9" width="25.33" height="81.441" transform="translate(33.622 17.038)"/>
      <rect id="矩形_3644" data-name="矩形 3644" class="cls-9" width="25.33" height="81.441" transform="translate(564.014 17.038)"/>
      <rect id="矩形_3645" data-name="矩形 3645" class="cls-10" width="546.294" height="113.814" rx="23.489" transform="translate(38.847)"/>
      <g id="组_6597" data-name="组 6597" transform="translate(197.308 34.075)">
        <g id="组_6596" data-name="组 6596">
          <path id="路径_16962" data-name="路径 16962" class="cls-9" d="M619.832,98.3h-16.69a2.107,2.107,0,0,1-2.252-2.252v-.147a63.814,63.814,0,0,1-8.077,4.5,2.7,2.7,0,0,1-3.72-.98q-1.812-2.643,1.664-4.061a48.085,48.085,0,0,0,15.761-11.4A3.527,3.527,0,0,1,609.5,82.69h.929c-.195-.129-.472-.31-.831-.538s-.587-.375-.685-.44q-1.077-.637-.049-1.517l.1-.1h-6.019q.146.292.489.88c.228.392.392.686.49.881q1.029,2.4-1.518,3.231a3.28,3.28,0,0,1-2.226.171,2.327,2.327,0,0,1-1.347-1.591,33.446,33.446,0,0,0-1.811-3.572h-.49q-.929,1.515-2.74,4.061a3.075,3.075,0,0,1-1.811,1.249,3.238,3.238,0,0,1-2.1-.661,2.987,2.987,0,0,1-1.565-1.983,3.22,3.22,0,0,1,1.125-2.325,30.681,30.681,0,0,0,4.307-7.2,2.886,2.886,0,0,1,3.72-1.958q2.937.735,1.763,3.622l-.049.1-.049.1h8.125a2.7,2.7,0,0,1,1.958.71,2.56,2.56,0,0,1,.734,1.933v.147q0,1.175.734.294a22.194,22.194,0,0,0,3.035-4.992,2.975,2.975,0,0,1,3.769-1.959q3.033.687,1.859,3.672l-.048.1v.1h11.354a2.5,2.5,0,1,1,0,4.993h-5.531a5.328,5.328,0,0,1,.44.635,9.47,9.47,0,0,0,.539.783q1.321,2.546-1.371,3.523a3.68,3.68,0,0,1-2.276.22,2.541,2.541,0,0,1-1.541-1.542q-.589-1.125-2.252-3.621h-2.2a21.7,21.7,0,0,1-2.644,3.377,43.983,43.983,0,0,0,17.082,11.649q3.571,1.223,1.468,4.209a2.7,2.7,0,0,1-3.67,1.028A73.831,73.831,0,0,1,620.81,96.1v1.224A.865.865,0,0,1,619.832,98.3Zm-20.508,3.279h23.053a3.129,3.129,0,0,1,2.349.9,3.261,3.261,0,0,1,.881,2.374v8.467a3.029,3.029,0,0,1-3.23,3.23H599.324a3.261,3.261,0,0,1-2.374-.88,3.132,3.132,0,0,1-.9-2.35v-8.467a3.107,3.107,0,0,1,3.279-3.279Zm3.573,9.838h15.614q1.175,0,1.174-1.224v-2.3a1.039,1.039,0,0,0-1.174-1.176H602.9a1.039,1.039,0,0,0-1.174,1.176v2.3Q601.722,111.422,602.9,111.421Zm1.518-18.012H615.72q1.223,0,.147-.782a43.477,43.477,0,0,1-5.285-4.9A38,38,0,0,1,604.414,93.409Z" transform="translate(-588.304 -71.127)"/>
          <path id="路径_16963" data-name="路径 16963" class="cls-9" d="M636.6,91.985h18.11a2.154,2.154,0,1,1,0,4.308H648.69V100.4h4.992a2.153,2.153,0,1,1,0,4.307H648.69v5.922q3.523,1.077,10.915,1.077,12.284,0,17.865-.1,1.81-.048,2.153.611a3.233,3.233,0,0,1-.344,2.373,2.914,2.914,0,0,1-3.084,1.86H659.556a45.768,45.768,0,0,1-11.992-1.248,13.468,13.468,0,0,1-7.243-5.017,25.27,25.27,0,0,1-1.714,5.041,2.379,2.379,0,0,1-1.395,1.347,2.434,2.434,0,0,1-1.835-.563,3.094,3.094,0,0,1-1.347-1.542,2.721,2.721,0,0,1,.514-1.885q1.91-3.818,2.252-11.551a3.248,3.248,0,0,1,.71-2.079,2.238,2.238,0,0,1,1.885-.71q2.35.146,2.2,2.595-.048,1.271-.244,3.377a11.407,11.407,0,0,0,2.4,3.523V96.293H636.6a2.154,2.154,0,0,1,0-4.308ZM639.978,72.6H651.43a3.261,3.261,0,0,1,2.374.881,3.131,3.131,0,0,1,.9,2.349V85.868a3.109,3.109,0,0,1-3.279,3.279H639.978a3.109,3.109,0,0,1-3.279-3.279V75.833a3.131,3.131,0,0,1,.9-2.349A3.261,3.261,0,0,1,639.978,72.6Zm2.007,6.314h7.292V77.547a.865.865,0,0,0-.98-.978H643.16a1.038,1.038,0,0,0-1.174,1.174Zm1.028,6.217h5.09q1.175,0,1.174-1.224V82.637h-7.292v1.42Q641.985,85.134,643.013,85.134Zm27.556,5.041q-.294,8.763-2.472,13.289t-8.052,7.071q-2.643.931-3.72-.685-1.519-2.25,2.2-3.67a10.56,10.56,0,0,0,5.507-5.457,31.193,31.193,0,0,0,1.639-10.059,4.707,4.707,0,0,1,.71-2.373,2.024,2.024,0,0,1,1.786-1.053,2.144,2.144,0,0,1,1.811.833A3.158,3.158,0,0,1,670.569,90.175Zm-11.5-17.522h18.5a2.35,2.35,0,0,1,0,4.7h-6.705c-.195.488-.488,1.142-.881,1.957s-.653,1.371-.782,1.666h5.628a3.029,3.029,0,0,1,3.23,3.23V99.082a2.5,2.5,0,1,1-4.992,0V86.406q0-1.175-1.224-1.174H664.3q-1.223,0-1.224,1.174V99.572a2.076,2.076,0,0,1-2.349,2.349,2.1,2.1,0,0,1-2.4-2.349V84.2a3.03,3.03,0,0,1,3.231-3.23h2.3q.783-2.056,1.224-3.622h-6.021a2.35,2.35,0,0,1,0-4.7ZM674.972,110q-1.614-1.467-4.8-3.964-1.908-1.419-.1-3.231a2.175,2.175,0,0,1,3.034-.342q2.739,1.958,5.335,4.111a2.27,2.27,0,0,1,.908,1.542,4.251,4.251,0,0,1-2.644,2.741A2.375,2.375,0,0,1,674.972,110Z" transform="translate(-573.014 -70.633)"/>
          <path id="路径_16964" data-name="路径 16964" class="cls-9" d="M685.812,93.676q-1.567-1.273-3.866-2.791-2.448-1.566-.49-3.817a2.47,2.47,0,0,1,3.378-.734,43.78,43.78,0,0,1,5.041,3.18A2.362,2.362,0,0,1,691,91.228a3.226,3.226,0,0,1-.98,1.958Q688.015,95.535,685.812,93.676Zm-.978,11.942q2.887-5.041,3.034-5.336,1.664-3.131,4.209-.782a2.949,2.949,0,0,1,.734,3.769q-2.544,5.187-5.481,10.425-1.762,3.033-4.454.831-2.35-1.86-.833-4.16Q683.755,107.625,684.834,105.619Zm3.377-25.3q-.636-.539-1.934-1.493t-1.835-1.395q-2.448-1.664-.44-3.866a2.641,2.641,0,0,1,3.573-.587q3.279,2.106,4.8,3.329,1.908,1.664.048,3.72Q690.411,82.32,688.211,80.314Zm34.653,34.9H698.146a3.111,3.111,0,0,1-3.279-3.281V76.741a3.109,3.109,0,0,1,3.279-3.279h23.789q2.935,0,2.936,2.887,0,2.987-2.936,2.986H702.208q-1.223,0-1.224,1.174v27.7q0,1.175,1.224,1.176h20.655q2.887,0,2.888,2.936A2.553,2.553,0,0,1,722.863,115.212Z" transform="translate(-557.423 -70.659)"/>
          <path id="路径_16965" data-name="路径 16965" class="cls-9" d="M733.9,109.286q-.344,1.077-1.42,3.573-1.175,2.25-3.72,1.126-3.083-1.323-1.468-4.063a30.337,30.337,0,0,0,1.909-5.384q.586-2.985,3.475-2.448,2.741.539,2.3,3.132A34.059,34.059,0,0,1,733.9,109.286Zm14.389-11.208H735.71a3.111,3.111,0,0,1-3.279-3.279V83.883A3.109,3.109,0,0,1,735.71,80.6h4.358a41.554,41.554,0,0,0-2.448-4.552q-1.862-2.691,1.126-4.063a2.779,2.779,0,0,1,3.67.93,43.739,43.739,0,0,1,2.448,3.818,2.922,2.922,0,0,1-.025,2.252A2.723,2.723,0,0,1,743.1,80.6h9.153a45.365,45.365,0,0,0,3.328-6.656q1.123-3.133,4.208-1.86,3.133,1.273,1.371,4.4-.637,1.175-2.5,4.112h3.818a3.124,3.124,0,0,1,2.348.9,3.257,3.257,0,0,1,.882,2.374V94.8a3.253,3.253,0,0,1-.882,2.373,3.12,3.12,0,0,1-2.348.906H749.953a44.684,44.684,0,0,1,5.776,4.894,2.475,2.475,0,0,1,.807,1.86,3.114,3.114,0,0,1-1.248,1.712,3.312,3.312,0,0,1-2.057,1.077,2.8,2.8,0,0,1-1.909-1.125,42.085,42.085,0,0,0-3.573-3.426,3,3,0,0,1-1.3-2.252,3.055,3.055,0,0,1,1.3-2.349Zm7.929,19.187h-9.739q-5.385,0-7.292-1.517t-1.91-5.678v-6.118q0-3.131,3.182-3.132,3.131,0,3.131,3.132v6.021c0,.782.214,1.289.638,1.516a7.245,7.245,0,0,0,2.839.343h8.564a3.737,3.737,0,0,0,1.419-.2q1.568-4.258,4.846-2.984,2.35.929,1.517,4.7a5.248,5.248,0,0,1-2.4,3.059A10.558,10.558,0,0,1,756.218,117.264Zm2.741-31.08H738.892v6.265h20.068Zm7.391,25.059a51.1,51.1,0,0,0-3.672-6.265q-1.762-2.3.784-3.72a2.434,2.434,0,0,1,3.525.587,38.157,38.157,0,0,1,4.648,7.39q.783,2.008-1.321,3.231Q767.476,114.229,766.35,111.244Z" transform="translate(-541.979 -70.95)"/>
        </g>
      </g>
      <g id="组_6598" data-name="组 6598" transform="translate(197.308 31.406)">
        <path id="路径_16966" data-name="路径 16966" class="cls-11" d="M619.832,96.3h-16.69a2.107,2.107,0,0,1-2.252-2.252v-.147a63.812,63.812,0,0,1-8.077,4.5,2.7,2.7,0,0,1-3.72-.98q-1.812-2.643,1.664-4.061a48.085,48.085,0,0,0,15.761-11.4A3.527,3.527,0,0,1,609.5,80.69h.929c-.195-.129-.472-.31-.831-.538s-.587-.375-.685-.44q-1.077-.637-.049-1.517l.1-.1h-6.019q.146.292.489.88c.228.392.392.686.49.881q1.029,2.4-1.518,3.231a3.28,3.28,0,0,1-2.226.171,2.327,2.327,0,0,1-1.347-1.591,33.445,33.445,0,0,0-1.811-3.572h-.49q-.929,1.515-2.74,4.061a3.075,3.075,0,0,1-1.811,1.249,3.238,3.238,0,0,1-2.1-.661,2.987,2.987,0,0,1-1.565-1.983,3.219,3.219,0,0,1,1.125-2.325,30.681,30.681,0,0,0,4.307-7.2,2.886,2.886,0,0,1,3.72-1.958q2.937.735,1.763,3.622l-.049.1-.049.1h8.125a2.7,2.7,0,0,1,1.958.71,2.56,2.56,0,0,1,.734,1.933v.147q0,1.175.734.294a22.194,22.194,0,0,0,3.035-4.992,2.975,2.975,0,0,1,3.769-1.959q3.033.687,1.859,3.672l-.048.1v.1h11.354a2.5,2.5,0,1,1,0,4.993h-5.531a5.328,5.328,0,0,1,.44.635,9.471,9.471,0,0,0,.539.783q1.321,2.546-1.371,3.523a3.68,3.68,0,0,1-2.276.22,2.541,2.541,0,0,1-1.541-1.542q-.589-1.125-2.252-3.621h-2.2a21.7,21.7,0,0,1-2.644,3.377,43.983,43.983,0,0,0,17.082,11.649q3.571,1.223,1.468,4.209a2.7,2.7,0,0,1-3.67,1.028A73.833,73.833,0,0,1,620.81,94.1v1.224A.865.865,0,0,1,619.832,96.3Zm-20.508,3.279h23.053a3.129,3.129,0,0,1,2.349.9,3.261,3.261,0,0,1,.881,2.374v8.467a3.029,3.029,0,0,1-3.23,3.23H599.324a3.26,3.26,0,0,1-2.374-.88,3.132,3.132,0,0,1-.9-2.35v-8.467a3.107,3.107,0,0,1,3.279-3.279Zm3.573,9.838h15.614q1.175,0,1.174-1.224v-2.3a1.039,1.039,0,0,0-1.174-1.176H602.9a1.039,1.039,0,0,0-1.174,1.176v2.3Q601.722,109.422,602.9,109.421Zm1.518-18.012H615.72q1.223,0,.147-.782a43.477,43.477,0,0,1-5.285-4.9A38,38,0,0,1,604.414,91.409Z" transform="translate(-588.304 -69.127)"/>
        <path id="路径_16967" data-name="路径 16967" class="cls-11" d="M636.6,89.985h18.11a2.154,2.154,0,1,1,0,4.308H648.69V98.4h4.992a2.153,2.153,0,1,1,0,4.307H648.69v5.922q3.523,1.077,10.915,1.077,12.284,0,17.865-.1,1.81-.048,2.153.611a3.233,3.233,0,0,1-.344,2.373,2.914,2.914,0,0,1-3.084,1.86H659.556a45.768,45.768,0,0,1-11.992-1.248,13.468,13.468,0,0,1-7.243-5.017,25.271,25.271,0,0,1-1.714,5.041,2.379,2.379,0,0,1-1.395,1.347,2.434,2.434,0,0,1-1.835-.563,3.094,3.094,0,0,1-1.347-1.542,2.721,2.721,0,0,1,.514-1.885q1.91-3.818,2.252-11.551a3.248,3.248,0,0,1,.71-2.079,2.238,2.238,0,0,1,1.885-.71q2.35.146,2.2,2.595-.048,1.271-.244,3.377a11.407,11.407,0,0,0,2.4,3.523V94.293H636.6a2.154,2.154,0,0,1,0-4.308ZM639.978,70.6H651.43a3.261,3.261,0,0,1,2.374.881,3.131,3.131,0,0,1,.9,2.349V83.868a3.109,3.109,0,0,1-3.279,3.279H639.978a3.109,3.109,0,0,1-3.279-3.279V73.833a3.131,3.131,0,0,1,.9-2.349A3.261,3.261,0,0,1,639.978,70.6Zm2.007,6.314h7.292V75.547a.865.865,0,0,0-.98-.978H643.16a1.038,1.038,0,0,0-1.174,1.174Zm1.028,6.217h5.09q1.175,0,1.174-1.224V80.637h-7.292v1.42Q641.985,83.134,643.013,83.134Zm27.556,5.041q-.294,8.763-2.472,13.289t-8.052,7.071q-2.643.931-3.72-.685-1.519-2.25,2.2-3.67a10.559,10.559,0,0,0,5.507-5.457,31.193,31.193,0,0,0,1.639-10.059,4.707,4.707,0,0,1,.71-2.373,2.024,2.024,0,0,1,1.786-1.053,2.144,2.144,0,0,1,1.811.833A3.158,3.158,0,0,1,670.569,88.175Zm-11.5-17.522h18.5a2.35,2.35,0,0,1,0,4.7h-6.705c-.195.488-.488,1.142-.881,1.957s-.653,1.371-.782,1.666h5.628a3.029,3.029,0,0,1,3.23,3.23V97.082a2.5,2.5,0,1,1-4.992,0V84.406q0-1.175-1.224-1.174H664.3q-1.223,0-1.224,1.174V97.572a2.076,2.076,0,0,1-2.349,2.349,2.1,2.1,0,0,1-2.4-2.349V82.2a3.03,3.03,0,0,1,3.231-3.23h2.3q.783-2.056,1.224-3.622h-6.021a2.35,2.35,0,0,1,0-4.7ZM674.972,108q-1.614-1.467-4.8-3.964-1.908-1.419-.1-3.231a2.175,2.175,0,0,1,3.034-.342q2.739,1.958,5.335,4.111a2.27,2.27,0,0,1,.908,1.542,4.251,4.251,0,0,1-2.644,2.741A2.375,2.375,0,0,1,674.972,108Z" transform="translate(-573.014 -68.633)"/>
        <path id="路径_16968" data-name="路径 16968" class="cls-11" d="M685.812,91.676q-1.567-1.273-3.866-2.791-2.448-1.566-.49-3.817a2.47,2.47,0,0,1,3.378-.734,43.78,43.78,0,0,1,5.041,3.18A2.362,2.362,0,0,1,691,89.228a3.226,3.226,0,0,1-.98,1.958Q688.015,93.535,685.812,91.676Zm-.978,11.942q2.887-5.041,3.034-5.336,1.664-3.131,4.209-.782a2.949,2.949,0,0,1,.734,3.769q-2.544,5.187-5.481,10.425-1.762,3.033-4.454.831-2.35-1.86-.833-4.16Q683.755,105.625,684.834,103.619Zm3.377-25.3q-.636-.539-1.934-1.493t-1.835-1.395q-2.448-1.664-.44-3.866a2.641,2.641,0,0,1,3.573-.587q3.279,2.106,4.8,3.329,1.908,1.664.048,3.72Q690.411,80.32,688.211,78.314Zm34.653,34.9H698.146a3.111,3.111,0,0,1-3.279-3.281V74.741a3.109,3.109,0,0,1,3.279-3.279h23.789q2.935,0,2.936,2.887,0,2.987-2.936,2.986H702.208q-1.223,0-1.224,1.174v27.7q0,1.175,1.224,1.176h20.655q2.887,0,2.888,2.936A2.553,2.553,0,0,1,722.863,113.212Z" transform="translate(-557.423 -68.659)"/>
        <path id="路径_16969" data-name="路径 16969" class="cls-11" d="M733.9,107.286q-.344,1.077-1.42,3.573-1.175,2.25-3.72,1.126-3.083-1.323-1.468-4.063a30.337,30.337,0,0,0,1.909-5.384q.586-2.985,3.475-2.448,2.741.539,2.3,3.132A34.059,34.059,0,0,1,733.9,107.286Zm14.389-11.208H735.71a3.111,3.111,0,0,1-3.279-3.279V81.883A3.109,3.109,0,0,1,735.71,78.6h4.358a41.556,41.556,0,0,0-2.448-4.552q-1.862-2.691,1.126-4.063a2.779,2.779,0,0,1,3.67.93,43.739,43.739,0,0,1,2.448,3.818,2.922,2.922,0,0,1-.025,2.252A2.723,2.723,0,0,1,743.1,78.6h9.153a45.366,45.366,0,0,0,3.328-6.656q1.123-3.133,4.208-1.86,3.133,1.273,1.371,4.4-.637,1.175-2.5,4.112h3.818a3.124,3.124,0,0,1,2.348.9,3.257,3.257,0,0,1,.882,2.374V92.8a3.253,3.253,0,0,1-.882,2.373,3.12,3.12,0,0,1-2.348.906H749.953a44.684,44.684,0,0,1,5.776,4.894,2.475,2.475,0,0,1,.807,1.86,3.114,3.114,0,0,1-1.248,1.712,3.312,3.312,0,0,1-2.057,1.077,2.8,2.8,0,0,1-1.909-1.125,42.086,42.086,0,0,0-3.573-3.426,3,3,0,0,1-1.3-2.252,3.055,3.055,0,0,1,1.3-2.349Zm7.929,19.187h-9.739q-5.385,0-7.292-1.517t-1.91-5.678v-6.118q0-3.131,3.182-3.132,3.131,0,3.131,3.132v6.021c0,.782.214,1.289.638,1.516a7.245,7.245,0,0,0,2.839.343h8.564a3.737,3.737,0,0,0,1.419-.2q1.568-4.258,4.846-2.984,2.35.929,1.517,4.7a5.248,5.248,0,0,1-2.4,3.059A10.558,10.558,0,0,1,756.218,115.264Zm2.741-31.08H738.892v6.265h20.068Zm7.391,25.059a51.1,51.1,0,0,0-3.672-6.265q-1.762-2.3.784-3.72a2.434,2.434,0,0,1,3.525.587,38.158,38.158,0,0,1,4.648,7.39q.783,2.008-1.321,3.231Q767.476,112.229,766.35,109.244Z" transform="translate(-541.979 -68.95)"/>
      </g>
    </g>
    <g id="组_6600" data-name="组 6600" transform="translate(337.36 48.663)">
      <circle id="椭圆_3519" data-name="椭圆 3519" class="cls-12" cx="25.131" cy="25.131" r="25.131" transform="translate(0 32.764)"/>
      <circle id="椭圆_3520" data-name="椭圆 3520" class="cls-13" cx="22.814" cy="22.814" r="22.814" transform="translate(2.317 33.88)"/>
      <circle id="椭圆_3521" data-name="椭圆 3521" class="cls-14" cx="19.095" cy="19.095" r="19.095" transform="translate(6.036 33.88)"/>
      <rect id="矩形_3646" data-name="矩形 3646" class="cls-15" width="34.246" height="69.685" rx="12.83" transform="translate(7.923)"/>
      <rect id="矩形_3647" data-name="矩形 3647" class="cls-16" width="5.623" height="22.66" rx="2.106" transform="translate(16.101 24.705)"/>
      <rect id="矩形_3648" data-name="矩形 3648" class="cls-16" width="5.623" height="7.241" rx="2.106" transform="translate(16.101 13.971)"/>
    </g>
    <g id="组_6601" data-name="组 6601" transform="translate(1258.432 48.663)">
      <circle id="椭圆_3522" data-name="椭圆 3522" class="cls-12" cx="25.131" cy="25.131" r="25.131" transform="translate(0 32.764)"/>
      <circle id="椭圆_3523" data-name="椭圆 3523" class="cls-13" cx="22.814" cy="22.814" r="22.814" transform="translate(2.317 33.88)"/>
      <circle id="椭圆_3524" data-name="椭圆 3524" class="cls-14" cx="19.095" cy="19.095" r="19.095" transform="translate(6.036 33.88)"/>
      <rect id="矩形_3649" data-name="矩形 3649" class="cls-15" width="34.246" height="69.685" rx="12.83" transform="translate(7.923)"/>
      <rect id="矩形_3650" data-name="矩形 3650" class="cls-16" width="5.623" height="22.66" rx="2.106" transform="translate(16.101 24.705)"/>
      <rect id="矩形_3651" data-name="矩形 3651" class="cls-16" width="5.623" height="7.241" rx="2.106" transform="translate(16.101 13.971)"/>
    </g>
  </g>
</svg>
