<svg xmlns="http://www.w3.org/2000/svg" width="115.844" height="143.33" viewBox="0 0 115.844 143.33">
  <defs>
    <style>
      .cls-1 {
        fill: #65c27e;
      }

      .cls-2, .cls-3 {
        fill: #fff;
      }

      .cls-3 {
        font-size: 64px;
        font-family: TimesNewRomanPS-BoldMT, Times New Roman;
        font-weight: 700;
      }
    </style>
  </defs>
  <g id="组_6904" data-name="组 6904" transform="translate(-1101 -287.023)">
    <path id="路径_16954" data-name="路径 16954" class="cls-1" d="M945.014,269.643h115.844v85.336a21.436,21.436,0,0,1-21.437,21.436h0a21.432,21.432,0,0,1-12.9-4.32l-9.723-7.33a22.743,22.743,0,0,0-27.594.16l-8.974,6.932a21.856,21.856,0,0,1-13.358,4.558h0a21.854,21.854,0,0,1-21.853-21.853Z" transform="translate(155.986 17.38)"/>
    <g id="组_6589" data-name="组 6589" transform="translate(1109.215 292.3)">
      <path id="路径_16955" data-name="路径 16955" class="cls-2" d="M954.586,292.207a3.416,3.416,0,0,1-3.417-3.417c0-5.082,1.514-9.026,4.5-11.723a14.677,14.677,0,0,1,10.661-3.423,3.416,3.416,0,0,1-.667,6.8,8,8,0,0,0-5.449,1.727c-1.468,1.349-2.212,3.577-2.212,6.62A3.416,3.416,0,0,1,954.586,292.207Z" transform="translate(-951.169 -273.597)"/>
    </g>
    <text id="_06" data-name="06" class="cls-3" transform="translate(1127.056 351.487)"><tspan x="0" y="0">06</tspan></text>
    <path id="路径_16956" data-name="路径 16956" class="cls-1" d="M1007.707,361.881a3.2,3.2,0,0,0,.95-2.213,2.84,2.84,0,0,0-.853-2.218,2.913,2.913,0,0,0-2.2-.873,3.092,3.092,0,0,0-2.2.921L989.289,371.55l-4.859-4.786a3.1,3.1,0,0,0-2.2-.921,2.913,2.913,0,0,0-2.2.872,2.983,2.983,0,0,0-.927,2.117,2.788,2.788,0,0,0,.878,2.121l6.956,6.975a3.1,3.1,0,0,0,2.353.871,3.273,3.273,0,0,0,2.348-.921l-.2.2,16.266-16.2ZM993.94,344.146a21.26,21.26,0,0,1,8.535,1.72,22.07,22.07,0,0,1,6.956,4.706,22.475,22.475,0,0,1,4.707,6.975,21.97,21.97,0,0,1,0,17.063,22.335,22.335,0,0,1-4.707,7.006,22.065,22.065,0,0,1-6.956,4.7,22.1,22.1,0,0,1-17.094,0,22,22,0,0,1-6.98-4.706,22.3,22.3,0,0,1-4.706-7.006,21.953,21.953,0,0,1,0-17.063,22.443,22.443,0,0,1,4.706-6.975,21.981,21.981,0,0,1,6.98-4.706,21.445,21.445,0,0,1,8.559-1.72" transform="translate(165.006 42.312)"/>
  </g>
</svg>
