<svg xmlns="http://www.w3.org/2000/svg" width="115.844" height="106.773" viewBox="0 0 115.844 106.773">
  <defs>
    <style>
      .cls-1 {
        fill: #d3d0d4;
      }

      .cls-2, .cls-3 {
        fill: #fff;
      }

      .cls-3 {
        font-size: 64px;
        font-family: TimesNewRomanPS-BoldMT, Times New Roman;
        font-weight: 700;
      }
    </style>
  </defs>
  <g id="组_6924" data-name="组 6924" transform="translate(-277 -678)">
    <g id="组_6872" data-name="组 6872" transform="translate(277 678)">
      <path id="路径_16926" data-name="路径 16926" class="cls-1" d="M819.189,439.573H935.033v85.336A21.436,21.436,0,0,1,913.6,546.346h0a21.441,21.441,0,0,1-12.906-4.32l-9.722-7.33a22.742,22.742,0,0,0-27.594.16l-8.976,6.932a21.857,21.857,0,0,1-13.358,4.558h0a21.854,21.854,0,0,1-21.853-21.853Z" transform="translate(-819.189 -439.573)"/>
    </g>
    <g id="组_6844" data-name="组 6844" transform="translate(285.215 683.3)">
      <path id="路径_16946" data-name="路径 16946" class="cls-2" d="M451.287,292.207a3.416,3.416,0,0,1-3.417-3.417c0-5.082,1.513-9.026,4.5-11.723a14.675,14.675,0,0,1,10.661-3.423,3.416,3.416,0,0,1-.669,6.8,8.006,8.006,0,0,0-5.449,1.727c-1.467,1.349-2.21,3.577-2.21,6.62A3.416,3.416,0,0,1,451.287,292.207Z" transform="translate(-447.87 -273.597)"/>
    </g>
    <text id="_02" data-name="02" class="cls-3" transform="translate(303.056 742.487)"><tspan x="0" y="0">02</tspan></text>
  </g>
</svg>
