<svg xmlns="http://www.w3.org/2000/svg" width="115.843" height="143.33" viewBox="0 0 115.843 143.33">
  <defs>
    <style>
      .cls-1 {
        fill: #65c27e;
      }

      .cls-2, .cls-3 {
        fill: #fff;
      }

      .cls-3 {
        font-size: 64px;
        font-family: TimesNewRomanPS-BoldMT, Times New Roman;
        font-weight: 700;
      }
    </style>
  </defs>
  <g id="组_6906" data-name="组 6906" transform="translate(-689 -287.023)">
    <path id="路径_16948" data-name="路径 16948" class="cls-1" d="M693.365,269.643H809.208v85.336a21.436,21.436,0,0,1-21.436,21.436h0a21.435,21.435,0,0,1-12.906-4.32l-9.722-7.33a22.743,22.743,0,0,0-27.594.16l-8.975,6.932a21.853,21.853,0,0,1-13.358,4.558h0a21.852,21.852,0,0,1-21.852-21.853Z" transform="translate(-4.365 17.38)"/>
    <g id="组_6583" data-name="组 6583" transform="translate(697.213 292.3)">
      <path id="路径_16949" data-name="路径 16949" class="cls-2" d="M702.936,292.207a3.416,3.416,0,0,1-3.417-3.417c0-5.082,1.515-9.026,4.5-11.723a14.677,14.677,0,0,1,10.661-3.423,3.416,3.416,0,0,1-.667,6.8,8,8,0,0,0-5.449,1.727c-1.467,1.349-2.212,3.577-2.212,6.62A3.416,3.416,0,0,1,702.936,292.207Z" transform="translate(-699.519 -273.597)"/>
    </g>
    <text id="_04" data-name="04" class="cls-3" transform="translate(715.055 351.487)"><tspan x="0" y="0">04</tspan></text>
    <path id="路径_16950" data-name="路径 16950" class="cls-1" d="M756.057,361.881a3.2,3.2,0,0,0,.95-2.213,2.835,2.835,0,0,0-.853-2.218,2.909,2.909,0,0,0-2.2-.873,3.094,3.094,0,0,0-2.2.921L737.64,371.55l-4.859-4.786a3.1,3.1,0,0,0-2.2-.921,2.915,2.915,0,0,0-2.2.872,2.981,2.981,0,0,0-.926,2.117,2.784,2.784,0,0,0,.878,2.121l6.956,6.975a3.093,3.093,0,0,0,2.353.871,3.269,3.269,0,0,0,2.346-.921l-.195.2,16.265-16.2Zm-13.766-17.735a21.269,21.269,0,0,1,8.535,1.72,22.1,22.1,0,0,1,6.956,4.706,22.448,22.448,0,0,1,4.706,6.975,21.953,21.953,0,0,1,0,17.063,22.023,22.023,0,0,1-11.662,11.71,22.1,22.1,0,0,1-17.1,0,22.011,22.011,0,0,1-6.979-4.706,22.309,22.309,0,0,1-4.707-7.006,21.951,21.951,0,0,1,0-17.063,22.448,22.448,0,0,1,4.707-6.975,21.99,21.99,0,0,1,6.979-4.706,21.452,21.452,0,0,1,8.56-1.72" transform="translate(4.655 42.312)"/>
  </g>
</svg>
