<svg xmlns="http://www.w3.org/2000/svg" width="115.844" height="142.644" viewBox="0 0 115.844 142.644">
  <defs>
    <style>
      .cls-1 {
        fill: #65c27e;
      }

      .cls-2, .cls-3 {
        fill: #fff;
      }

      .cls-3 {
        font-size: 64px;
        font-family: TimesNewRomanPS-BoldMT, Times New Roman;
        font-weight: 700;
      }
    </style>
  </defs>
  <g id="组_6903" data-name="组 6903" transform="translate(-1307 -287.818)">
    <path id="路径_16933" data-name="路径 16933" class="cls-1" d="M315.89,439.573H431.734v85.336A21.437,21.437,0,0,1,410.3,546.346h0a21.44,21.44,0,0,1-12.9-4.32l-9.723-7.33a22.742,22.742,0,0,0-27.594.16l-8.974,6.932a21.857,21.857,0,0,1-13.358,4.558h0a21.854,21.854,0,0,1-21.853-21.853Z" transform="translate(991.11 -151.755)"/>
    <g id="组_6568" data-name="组 6568" transform="translate(1315.215 293.097)">
      <path id="路径_16934" data-name="路径 16934" class="cls-2" d="M325.462,462.137a3.416,3.416,0,0,1-3.417-3.417c0-5.081,1.513-9.026,4.5-11.724a14.673,14.673,0,0,1,10.661-3.422,3.416,3.416,0,0,1-.667,6.8,8.007,8.007,0,0,0-5.449,1.726c-1.468,1.349-2.211,3.577-2.211,6.62A3.416,3.416,0,0,1,325.462,462.137Z" transform="translate(-322.045 -443.528)"/>
    </g>
    <text id="_07" data-name="07" class="cls-3" transform="translate(1333.057 352.283)"><tspan x="0" y="0">07</tspan></text>
    <path id="路径_16935" data-name="路径 16935" class="cls-1" d="M378.583,531.3a3.2,3.2,0,0,0,.95-2.213,2.84,2.84,0,0,0-.853-2.218,2.913,2.913,0,0,0-2.2-.873,3.091,3.091,0,0,0-2.2.921l-14.114,14.052-4.859-4.786a3.1,3.1,0,0,0-2.2-.921,2.914,2.914,0,0,0-2.2.872,2.983,2.983,0,0,0-.928,2.117,2.789,2.789,0,0,0,.878,2.121l6.956,6.975a3.1,3.1,0,0,0,2.353.872,3.273,3.273,0,0,0,2.348-.921l-.2.2,16.267-16.2Zm-13.767-17.735a21.259,21.259,0,0,1,8.535,1.72,22.067,22.067,0,0,1,6.956,4.706,22.473,22.473,0,0,1,4.707,6.975,21.968,21.968,0,0,1,0,17.063,22.336,22.336,0,0,1-4.707,7.006,22.063,22.063,0,0,1-6.956,4.7,22.092,22.092,0,0,1-17.094,0,21.976,21.976,0,0,1-6.98-4.7,22.31,22.31,0,0,1-4.706-7.006,21.953,21.953,0,0,1,0-17.063,22.446,22.446,0,0,1,4.706-6.975,22.008,22.008,0,0,1,6.98-4.707,21.468,21.468,0,0,1,8.559-1.719" transform="translate(1000.13 -126.995)"/>
  </g>
</svg>
