<svg xmlns="http://www.w3.org/2000/svg" width="115.844" height="142.644" viewBox="0 0 115.844 142.644">
  <defs>
    <style>
      .cls-1 {
        fill: #fe4e65;
      }

      .cls-2, .cls-3 {
        fill: #fff;
      }

      .cls-3 {
        font-size: 64px;
        font-family: TimesNewRomanPS-BoldMT, Times New Roman;
        font-weight: 700;
      }
    </style>
  </defs>
  <g id="组_6918" data-name="组 6918" transform="translate(-1514 -487)">
    <g id="组_6866" data-name="组 6866" transform="translate(1514 487)">
      <g id="组_6572" data-name="组 6572">
        <path id="路径_16936" data-name="路径 16936" class="cls-1" d="M441.715,439.573H557.559v85.336a21.437,21.437,0,0,1-21.437,21.437h0a21.439,21.439,0,0,1-12.9-4.32l-9.723-7.33a22.743,22.743,0,0,0-27.594.16l-8.974,6.932a21.856,21.856,0,0,1-13.358,4.558h0a21.854,21.854,0,0,1-21.853-21.853Z" transform="translate(-441.715 -439.573)"/>
      </g>
      <path id="路径_16938" data-name="路径 16938" class="cls-1" d="M510.838,526.963a22.446,22.446,0,0,0-4.706-6.975,22.112,22.112,0,0,0-6.956-4.707,21.283,21.283,0,0,0-8.535-1.719h0a21.468,21.468,0,0,0-8.559,1.719,22.006,22.006,0,0,0-6.98,4.707,22.471,22.471,0,0,0-4.707,6.975,21.968,21.968,0,0,0,0,17.063,22.335,22.335,0,0,0,4.707,7.006,21.974,21.974,0,0,0,6.98,4.7,22.092,22.092,0,0,0,17.094,0,22.08,22.08,0,0,0,6.956-4.7,22.31,22.31,0,0,0,4.706-7.006,21.953,21.953,0,0,0,0-17.063Zm-9.505,15.2a2.653,2.653,0,0,1,0,3.791,2.769,2.769,0,0,1-3.854,0l-6.856-6.673-6.853,6.672a2.779,2.779,0,0,1-3.858,0,2.657,2.657,0,0,1,0-3.793l6.837-6.656-6.836-6.657a2.672,2.672,0,0,1-.806-1.946,2.62,2.62,0,0,1,.809-1.846,2.766,2.766,0,0,1,3.854,0l6.855,6.669,6.856-6.668a2.768,2.768,0,0,1,3.857,0,2.654,2.654,0,0,1,0,3.792L494.5,535.51Z" transform="translate(-432.695 -414.813)"/>
    </g>
    <g id="组_6815" data-name="组 6815" transform="translate(1522.215 493.097)">
      <path id="路径_16934" data-name="路径 16934" class="cls-2" d="M325.462,462.137a3.416,3.416,0,0,1-3.417-3.417c0-5.081,1.513-9.026,4.5-11.724a14.673,14.673,0,0,1,10.661-3.422,3.416,3.416,0,0,1-.667,6.8,8.007,8.007,0,0,0-5.449,1.726c-1.468,1.349-2.211,3.577-2.211,6.62A3.416,3.416,0,0,1,325.462,462.137Z" transform="translate(-322.045 -443.528)"/>
    </g>
    <text id="_08" data-name="08" class="cls-3" transform="translate(1540.057 552.283)"><tspan x="0" y="0">08</tspan></text>
    <g id="组_6827" data-name="组 6827" transform="translate(1522.215 493.097)">
      <path id="路径_16934-2" data-name="路径 16934" class="cls-2" d="M325.462,462.137a3.416,3.416,0,0,1-3.417-3.417c0-5.081,1.513-9.026,4.5-11.724a14.673,14.673,0,0,1,10.661-3.422,3.416,3.416,0,0,1-.667,6.8,8.007,8.007,0,0,0-5.449,1.726c-1.468,1.349-2.211,3.577-2.211,6.62A3.416,3.416,0,0,1,325.462,462.137Z" transform="translate(-322.045 -443.528)"/>
    </g>
    <text id="_08-2" data-name="08" class="cls-3" transform="translate(1540.057 552.283)"><tspan x="0" y="0">08</tspan></text>
  </g>
</svg>
