<svg xmlns="http://www.w3.org/2000/svg" width="115.844" height="142.644" viewBox="0 0 115.844 142.644">
  <defs>
    <style>
      .cls-1 {
        fill: #fe4e65;
      }

      .cls-2, .cls-3 {
        fill: #fff;
      }

      .cls-3 {
        font-size: 64px;
        font-family: TimesNewRomanPS-BoldMT, Times New Roman;
        font-weight: 700;
      }
    </style>
  </defs>
  <g id="组_6912" data-name="组 6912" transform="translate(-71 -487)">
    <g id="组_6910" data-name="组 6910">
      <g id="组_6859" data-name="组 6859" transform="translate(71 487)">
        <g id="组_6572" data-name="组 6572">
          <path id="路径_16936" data-name="路径 16936" class="cls-1" d="M441.715,439.573H557.559v85.336a21.437,21.437,0,0,1-21.437,21.437h0a21.439,21.439,0,0,1-12.9-4.32l-9.723-7.33a22.743,22.743,0,0,0-27.594.16l-8.974,6.932a21.856,21.856,0,0,1-13.358,4.558h0a21.854,21.854,0,0,1-21.853-21.853Z" transform="translate(-441.715 -439.573)"/>
        </g>
        <path id="路径_16938" data-name="路径 16938" class="cls-1" d="M510.838,526.963a22.446,22.446,0,0,0-4.706-6.975,22.112,22.112,0,0,0-6.956-4.707,21.283,21.283,0,0,0-8.535-1.719h0a21.468,21.468,0,0,0-8.559,1.719,22.006,22.006,0,0,0-6.98,4.707,22.471,22.471,0,0,0-4.707,6.975,21.968,21.968,0,0,0,0,17.063,22.335,22.335,0,0,0,4.707,7.006,21.974,21.974,0,0,0,6.98,4.7,22.092,22.092,0,0,0,17.094,0,22.08,22.08,0,0,0,6.956-4.7,22.31,22.31,0,0,0,4.706-7.006,21.953,21.953,0,0,0,0-17.063Zm-9.505,15.2a2.653,2.653,0,0,1,0,3.791,2.769,2.769,0,0,1-3.854,0l-6.856-6.673-6.853,6.672a2.779,2.779,0,0,1-3.858,0,2.657,2.657,0,0,1,0-3.793l6.837-6.656-6.836-6.657a2.672,2.672,0,0,1-.806-1.946,2.62,2.62,0,0,1,.809-1.846,2.766,2.766,0,0,1,3.854,0l6.855,6.669,6.856-6.668a2.768,2.768,0,0,1,3.857,0,2.654,2.654,0,0,1,0,3.792L494.5,535.51Z" transform="translate(-432.695 -414.813)"/>
      </g>
      <g id="组_6813" data-name="组 6813" transform="translate(0 391)">
        <g id="组_6810" data-name="组 6810" transform="translate(70.862 96.023)">
          <g id="组_6593" data-name="组 6593">
            <g id="组_6592" data-name="组 6592" transform="translate(8.213 5.277)">
              <path id="路径_16958" data-name="路径 16958" class="cls-2" d="M577.111,292.207a3.416,3.416,0,0,1-3.417-3.417c0-5.082,1.515-9.026,4.5-11.723a14.678,14.678,0,0,1,10.663-3.423,3.416,3.416,0,0,1-.669,6.8,8.006,8.006,0,0,0-5.449,1.727c-1.467,1.349-2.211,3.577-2.211,6.62A3.416,3.416,0,0,1,577.111,292.207Z" transform="translate(-573.694 -273.597)"/>
            </g>
          </g>
        </g>
        <g id="组_6567" data-name="组 6567" transform="translate(71 96.022)">
          <g id="组_6566" data-name="组 6566">
            <g id="组_6565" data-name="组 6565" transform="translate(8.215 5.277)">
              <path id="路径_16931" data-name="路径 16931" class="cls-2" d="M325.462,292.207a3.416,3.416,0,0,1-3.417-3.417c0-5.082,1.513-9.026,4.5-11.723a14.677,14.677,0,0,1,10.661-3.423,3.416,3.416,0,0,1-.667,6.8,8,8,0,0,0-5.449,1.727c-1.468,1.349-2.211,3.577-2.211,6.62A3.416,3.416,0,0,1,325.462,292.207Z" transform="translate(-322.045 -273.597)"/>
            </g>
            <text id="_01" data-name="01" class="cls-3" transform="translate(26.056 64.464)"><tspan x="0" y="0">01</tspan></text>
          </g>
        </g>
      </g>
      <g id="组_6825" data-name="组 6825" transform="translate(0.138 390.977)">
        <g id="组_6567-2" data-name="组 6567" transform="translate(71 96.022)">
          <g id="组_6566-2" data-name="组 6566">
            <g id="组_6565-2" data-name="组 6565" transform="translate(8.215 5.277)">
              <path id="路径_16931-2" data-name="路径 16931" class="cls-2" d="M325.462,292.207a3.416,3.416,0,0,1-3.417-3.417c0-5.082,1.513-9.026,4.5-11.723a14.677,14.677,0,0,1,10.661-3.423,3.416,3.416,0,0,1-.667,6.8,8,8,0,0,0-5.449,1.727c-1.468,1.349-2.211,3.577-2.211,6.62A3.416,3.416,0,0,1,325.462,292.207Z" transform="translate(-322.045 -273.597)"/>
            </g>
            <text id="_01-2" data-name="01" class="cls-3" transform="translate(26.056 64.464)"><tspan x="0" y="0">01</tspan></text>
          </g>
        </g>
      </g>
    </g>
  </g>
</svg>
