<svg xmlns="http://www.w3.org/2000/svg" width="115.844" height="143.33" viewBox="0 0 115.844 143.33">
  <defs>
    <style>
      .cls-1 {
        fill: #65c27e;
      }

      .cls-2, .cls-3 {
        fill: #fff;
      }

      .cls-3 {
        font-size: 64px;
        font-family: TimesNewRomanPS-BoldMT, Times New Roman;
        font-weight: 700;
      }
    </style>
  </defs>
  <g id="组_6907" data-name="组 6907" transform="translate(-483 -287.023)">
    <path id="路径_16945" data-name="路径 16945" class="cls-1" d="M441.715,269.643H557.559v85.336a21.436,21.436,0,0,1-21.437,21.436h0a21.432,21.432,0,0,1-12.9-4.32l-9.723-7.33a22.743,22.743,0,0,0-27.594.16l-8.974,6.932a21.856,21.856,0,0,1-13.358,4.558h0a21.854,21.854,0,0,1-21.853-21.853Z" transform="translate(41.285 17.38)"/>
    <g id="组_6580" data-name="组 6580" transform="translate(491.215 292.3)">
      <path id="路径_16946" data-name="路径 16946" class="cls-2" d="M451.287,292.207a3.416,3.416,0,0,1-3.417-3.417c0-5.082,1.513-9.026,4.5-11.723a14.675,14.675,0,0,1,10.661-3.423,3.416,3.416,0,0,1-.669,6.8,8.006,8.006,0,0,0-5.449,1.727c-1.467,1.349-2.21,3.577-2.21,6.62A3.416,3.416,0,0,1,451.287,292.207Z" transform="translate(-447.87 -273.597)"/>
    </g>
    <text id="_03" data-name="03" class="cls-3" transform="translate(509.056 351.487)"><tspan x="0" y="0">03</tspan></text>
    <path id="路径_16947" data-name="路径 16947" class="cls-1" d="M504.406,361.881a3.2,3.2,0,0,0,.952-2.213,2.844,2.844,0,0,0-.853-2.218,2.914,2.914,0,0,0-2.2-.873,3.091,3.091,0,0,0-2.2.921L485.99,371.55l-4.859-4.786a3.1,3.1,0,0,0-2.2-.921,2.912,2.912,0,0,0-2.2.872,2.977,2.977,0,0,0-.928,2.117,2.789,2.789,0,0,0,.878,2.121l6.956,6.975a3.094,3.094,0,0,0,2.353.871,3.267,3.267,0,0,0,2.346-.921l-.195.2,16.265-16.2Zm-13.766-17.735a21.26,21.26,0,0,1,8.535,1.72,22.085,22.085,0,0,1,6.956,4.706,22.447,22.447,0,0,1,4.706,6.975,21.953,21.953,0,0,1,0,17.063,22.308,22.308,0,0,1-4.706,7.006,22.08,22.08,0,0,1-6.956,4.7,22.1,22.1,0,0,1-17.094,0,22,22,0,0,1-6.98-4.706,22.332,22.332,0,0,1-4.707-7.006,21.968,21.968,0,0,1,0-17.063,22.472,22.472,0,0,1,4.707-6.975,21.98,21.98,0,0,1,6.98-4.706,21.445,21.445,0,0,1,8.559-1.72" transform="translate(50.305 42.312)"/>
  </g>
</svg>
