<svg xmlns="http://www.w3.org/2000/svg" width="115.844" height="143.33" viewBox="0 0 115.844 143.33">
  <defs>
    <style>
      .cls-1 {
        fill: #65c27e;
      }

      .cls-2, .cls-3 {
        fill: #fff;
      }

      .cls-3 {
        font-size: 64px;
        font-family: TimesNewRomanPS-BoldMT, Times New Roman;
        font-weight: 700;
      }
    </style>
  </defs>
  <g id="组_6905" data-name="组 6905" transform="translate(-895 -287.023)">
    <path id="路径_16951" data-name="路径 16951" class="cls-1" d="M819.189,269.643H935.033v85.336A21.436,21.436,0,0,1,913.6,376.414h0a21.433,21.433,0,0,1-12.906-4.32l-9.722-7.33a22.742,22.742,0,0,0-27.594.16l-8.976,6.932a21.856,21.856,0,0,1-13.358,4.558h0a21.854,21.854,0,0,1-21.853-21.853Z" transform="translate(75.811 17.38)"/>
    <g id="组_6586" data-name="组 6586" transform="translate(903.215 292.3)">
      <path id="路径_16952" data-name="路径 16952" class="cls-2" d="M828.761,292.207a3.416,3.416,0,0,1-3.417-3.417c0-5.082,1.515-9.026,4.5-11.723a14.677,14.677,0,0,1,10.661-3.423,3.416,3.416,0,0,1-.667,6.8,8,8,0,0,0-5.449,1.727c-1.468,1.349-2.211,3.577-2.211,6.62A3.416,3.416,0,0,1,828.761,292.207Z" transform="translate(-825.344 -273.597)"/>
    </g>
    <text id="_05" data-name="05" class="cls-3" transform="translate(921.057 351.487)"><tspan x="0" y="0">05</tspan></text>
    <path id="路径_16953" data-name="路径 16953" class="cls-1" d="M881.882,361.881a3.2,3.2,0,0,0,.95-2.213,2.84,2.84,0,0,0-.853-2.218,2.911,2.911,0,0,0-2.2-.873,3.091,3.091,0,0,0-2.2.921L863.464,371.55l-4.859-4.786a3.1,3.1,0,0,0-2.2-.921,2.913,2.913,0,0,0-2.2.872,2.976,2.976,0,0,0-.926,2.117,2.787,2.787,0,0,0,.877,2.121l6.956,6.975a3.1,3.1,0,0,0,2.353.871,3.272,3.272,0,0,0,2.348-.921l-.2.2,16.267-16.2Zm-13.766-17.735a21.269,21.269,0,0,1,8.535,1.72,22.1,22.1,0,0,1,6.956,4.706,22.448,22.448,0,0,1,4.706,6.975,21.952,21.952,0,0,1,0,17.063,22.022,22.022,0,0,1-11.662,11.71,22.1,22.1,0,0,1-17.1,0,22.017,22.017,0,0,1-6.98-4.706,22.3,22.3,0,0,1-4.706-7.006,21.952,21.952,0,0,1,0-17.063,22.443,22.443,0,0,1,4.706-6.975,22,22,0,0,1,6.98-4.706,21.447,21.447,0,0,1,8.56-1.72" transform="translate(84.831 42.312)"/>
  </g>
</svg>
