<?xml version="1.0" encoding="UTF-8"?>
<svg width="99px" height="112px" viewBox="0 0 99 112" version="1.1" xmlns="http://www.w3.org/2000/svg" xmlns:xlink="http://www.w3.org/1999/xlink">
    <title>男孩中</title>
    <g id="人教一年级上" stroke="none" stroke-width="1" fill="none" fill-rule="evenodd">
        <g id="第1课练一练第5题" transform="translate(-310.000000, -95.000000)">
            <g id="男孩中" transform="translate(310.000000, 95.000000)">
                <g id="手-2" transform="translate(26.390028, 104.084818)" fill="#FFCBA6" fill-rule="nonzero">
                    <polygon id="路径_3222" points="15.83 3.705 13.382 5.986 11.512 7.735 11.481 7.765 11.481 7.735 -5.68434189e-14 7.735 1.772 5.416 2.631 4.298"></polygon>
                    <polygon id="路径_3223" points="38.638 4.48 41.413 7.734 29.893 7.734 29.551 7.445 28.623 6.645 27.832 5.968 25.232 3.733 34.82 0 38.637 4.471"></polygon>
                </g>
                <g id="头" transform="translate(0.000000, 0.000000)">
                    <path d="M11.9290275,71.9508176 C9.06402755,71.1688176 6.20802755,69.6668176 4.92002755,66.9908176 C3.56384019,64.2448067 4.26109304,60.9274859 6.60802755,58.9598176 C8.17802755,57.7978176 12.8480275,57.7978176 15.0080275,61.0308176 L16.2650275,63.3658176 L16.2650275,72.3508176 C14.8087345,72.4957034 13.3381677,72.359917 11.9330275,71.9508176" id="路径_3224" fill="#FFCBA6" fill-rule="nonzero"></path>
                    <path d="M15.2550275,66.7138176 C14.1674441,65.0920089 12.4877483,63.9608438 10.5760275,63.5628176 C8.81202755,63.2148176 7.95602755,65.7238176 9.50402755,66.7348176 C10.6316351,67.3748513 11.8814508,67.7701038 13.1720275,67.8948176 C20.0910275,68.9078176 15.2550275,66.7138176 15.2550275,66.7138176" id="路径_3225" fill="#F17558" fill-rule="nonzero"></path>
                    <path d="M84.8710275,72.0458176 C88.0600275,71.1748176 91.2380275,69.5028176 92.6710275,66.5248176 C94.1040275,63.5468176 93.4480275,59.5528176 90.7910275,57.5848176 C89.0440275,56.2908176 83.8450275,56.2908176 81.4460275,59.8848176 L80.0460275,62.4848176 L80.0460275,72.4848176 C81.6671645,72.6478575 83.304529,72.4978025 84.8690275,72.0428176" id="路径_3226" fill="#FFCBA6" fill-rule="nonzero"></path>
                    <path d="M81.1680275,66.2138176 C82.3790774,64.4087512 84.2489667,63.1498336 86.3770275,62.7068176 C88.3400275,62.3188176 89.2930275,65.1068176 87.5700275,66.2378176 C86.3147405,66.9499919 84.9235618,67.3898674 83.4870275,67.5288176 C75.7870275,68.6558176 81.1680275,66.2138176 81.1680275,66.2138176" id="路径_3227" fill="#F17558" fill-rule="nonzero"></path>
                    <line x1="50.6550275" y1="48.6928176" x2="43.8560275" y2="49.0928176" id="直线_8"></line>
                    <path d="M82.0800275,62.9018176 L82.0030275,63.4418176 L81.6030275,66.2888176 C81.2330268,69.5280946 80.3358573,72.6850773 78.9470275,75.6348176 L78.9470275,75.6348176 C77.1772218,79.4344155 74.6328247,82.8221764 71.4770275,85.5808176 C69.9515628,86.9075761 68.2923128,88.0721678 66.5260275,89.0558176 C61.7821006,91.7207567 56.4087978,93.0608875 50.9690275,92.9358176 L51.4570275,99.4778176 L46.2570275,104.277818 L41.0570275,99.4778176 L41.2730275,92.7158176 C38.5261312,92.3451451 35.8184198,91.7266221 33.1830275,90.8678176 C31.6152298,90.3599221 30.0791622,89.7588522 28.5830275,89.0678176 C27.9430275,88.7731509 27.3150275,88.4601509 26.6990275,88.1288176 C21.4305982,85.5110516 17.1484344,81.2618572 14.4900275,76.0138176 C14.4260275,75.8898176 14.3660275,75.7618176 14.3140275,75.6338176 C14.2140275,75.4248176 14.1250275,75.2158176 14.0330275,75.0038176 C13.9410275,74.7918176 13.8470275,74.5588176 13.7650275,74.3328176 L13.6510275,74.0218176 C12.626903,71.1479113 12.190273,68.0976224 12.3670275,65.0518176 C12.6143715,60.9819798 13.1716532,56.9369235 14.0340275,52.9518176 C14.0340275,52.9518176 15.8570275,25.0598176 48.1230275,24.5158176 C48.1270275,24.5278176 85.2640275,21.1568176 82.0800275,62.9018176 Z" id="路径_3228" fill="#FFCBA6" fill-rule="nonzero"></path>
                    <path d="M38.5590275,63.7868176 C37.191796,68.9093899 31.9307959,71.9537184 26.8082088,70.5865425 C21.6856217,69.2193665 18.641236,63.9583995 20.0083564,58.8357975 C21.3754768,53.7131956 26.6364108,50.6687528 31.7590275,52.0358176 C34.2190661,52.6923243 36.3175416,54.2992081 37.5927954,56.5029591 C38.8680491,58.7067101 39.2156143,61.3268005 38.5590275,63.7868176 L38.5590275,63.7868176" id="路径_3229" fill="#FFFFFF" fill-rule="nonzero"></path>
                    <path d="M70.5590275,63.3868176 C69.191796,68.5093899 63.9307959,71.5537184 58.8082088,70.1865425 C53.6856217,68.8193665 50.641236,63.5583995 52.0083564,58.4357975 C53.3754768,53.3131956 58.6364108,50.2687528 63.7590275,51.6358176 C66.2190661,52.2923243 68.3175416,53.8992081 69.5927954,56.1029591 C70.8680491,58.3067101 71.2156143,60.9268005 70.5590275,63.3868176 L70.5590275,63.3868176" id="路径_3230" fill="#FFFFFF" fill-rule="nonzero"></path>
                    <path d="M35.5900275,61.6238176 C35.3794411,62.4273938 35.0382278,63.1909007 34.5800275,63.8838176 C32.3647547,67.2596721 27.9280557,68.3679223 24.3855255,66.4303189 C20.8429953,64.4927154 19.3827485,60.1591031 21.0302181,56.472686 C22.6776877,52.7862688 26.8803357,50.9834192 30.6869253,52.3301569 C34.493515,53.6768946 36.6273699,57.7215429 35.5900275,61.6238176 L35.5900275,61.6238176 Z" id="路径_3807" fill="#7C3821" fill-rule="nonzero"></path>
                    <path d="M27.7910275,57.0028176 C27.5090654,58.0568309 26.4261918,58.6828397 25.3720913,58.4012036 C24.3179908,58.1195675 23.6916471,57.0368876 23.972957,55.9827001 C24.254267,54.9285125 25.336753,54.3018338 26.3910275,54.5828176 C26.8977259,54.7178621 27.3299666,55.0487752 27.5925549,55.5026778 C27.8551432,55.9565804 27.9265423,56.4962449 27.7910275,57.0028176" id="路径_3232" fill="#FFFFFF" fill-rule="nonzero"></path>
                    <path d="M34.5800275,63.8838176 C33.1500518,66.0579994 30.7223144,67.3670267 28.1200275,67.3670267 C25.5177407,67.3670267 23.0900033,66.0579994 21.6600275,63.8838176 C22.2362639,63.0025125 22.9887224,62.2500539 23.8700275,61.6738176 C25.5832743,60.5464706 27.6742216,60.1459681 29.6827892,60.5604344 C31.6913567,60.9749007 33.452975,62.1703771 34.5800275,63.8838176 L34.5800275,63.8838176 Z" id="路径_3808" fill="#9E5036" fill-rule="nonzero"></path>
                    <path d="M78.9440275,75.6338176 L78.9440275,75.6338176 C77.1750024,79.4336368 74.631279,82.8217483 71.4760275,85.5808176 C69.949889,86.9067146 68.2907317,88.0712413 66.5250275,89.0558176 C62.4601736,87.4380397 59.9599908,83.3219008 60.3981614,78.968942 C60.836332,74.6159833 64.1067088,71.0807112 68.41244,70.3055198 C72.7181713,69.5303283 77.0161913,71.703008 78.9450275,75.6298176" id="路径_3234" fill="#F59679" fill-rule="nonzero"></path>
                    <path d="M31.1620275,82.2378176 C30.5075848,84.7134546 28.906056,86.832544 26.7030275,88.1378176 C21.4353723,85.5213456 17.1533002,81.2739958 14.4940275,76.0278176 C14.4300275,75.9038176 14.3700275,75.7758176 14.3180275,75.6478176 C14.2060275,75.4118176 14.1060275,75.1758176 14.0020275,74.9358176 C13.8860275,74.6558176 13.7780275,74.3718176 13.6740275,74.0878176 C16.4051622,70.2026085 21.5289686,68.8347739 25.8330946,70.8418729 C30.1372205,72.8489718 32.3828222,77.6533071 31.1620275,82.2428176" id="路径_3235" fill="#F59679" fill-rule="nonzero"></path>
                    <path d="M67.5300275,61.1838176 C66.4337165,65.2955038 62.2118135,67.7399604 58.1001197,66.6436776 C53.9884259,65.5473949 51.5439404,61.3255087 52.6401948,57.2138074 C53.7364493,53.102106 57.9583187,50.6575914 62.0700275,51.7538176 L62.0800275,51.7538176 C66.1805316,52.8639273 68.6152478,57.0766563 67.5300275,61.1838176 L67.5300275,61.1838176 Z" id="路径_3809" fill="#7C3821" fill-rule="nonzero"></path>
                    <path d="M66.5200275,63.4438176 C65.0918341,65.6042339 62.6748412,66.9038111 60.0850275,66.9038111 C57.4952139,66.9038111 55.078221,65.6042339 53.6500275,63.4438176 C55.0738119,61.2771136 57.4923903,59.9723842 60.0850275,59.9723842 C62.6776648,59.9723842 65.0962432,61.2771136 66.5200275,63.4438176 L66.5200275,63.4438176 Z" id="路径_3810" fill="#9E5036" fill-rule="nonzero"></path>
                    <path d="M59.3110275,56.5848176 C59.0307347,57.6355154 57.9517577,58.2600559 56.9010574,57.9797722 C55.8503572,57.6994885 55.2258073,56.620517 55.5060818,55.5698143 C55.7863563,54.5191116 56.8653224,53.8945523 57.9160275,54.1748176 L57.9160275,54.1748176 C58.9663538,54.455534 59.5903937,55.5343978 59.3100275,56.5848176" id="路径_3238" fill="#FFFFFF" fill-rule="nonzero"></path>
                    <path d="M54.2970275,79.4618176 C53.2589525,81.7279614 51.2140318,83.3727164 48.7780275,83.9008176 C48.2275088,84.0191262 47.6661136,84.0794553 47.1030275,84.0808176 C45.988257,84.0791999 44.8865687,83.8405917 43.8710275,83.3808176 C43.6701074,83.2914483 43.4741559,83.1913027 43.2840275,83.0808176 C41.4142775,82.0509448 40.0428557,80.305991 39.4840275,78.2458176 L39.0560275,76.6778176 L54.6560275,73.4778176 L54.8880275,74.7528176 C55.1801748,76.3426697 54.9748416,77.9839386 54.3000275,79.4528176" id="路径_3239" fill="#DA5257" fill-rule="nonzero"></path>
                    <path d="M54.2970275,79.4618176 C53.2589525,81.7279614 51.2140318,83.3727164 48.7780275,83.9008176 C48.2275088,84.0191262 47.6661136,84.0794553 47.1030275,84.0808176 C45.988257,84.0791999 44.8865687,83.8405917 43.8710275,83.3808176 C43.6701074,83.2914483 43.4741559,83.1913027 43.2840275,83.0808176 C44.9964115,81.5706333 47.0587938,80.5119437 49.2840275,80.0008176 C50.9143937,79.5518032 52.6061499,79.3667937 54.2950275,79.4528176" id="路径_3240" fill="#EE706E" fill-rule="nonzero"></path>
                    <path d="M42.6880275,75.9378176 L42.6880275,75.9378176 C42.7699503,76.3542231 43.0139495,76.7210234 43.3663384,76.9575122 C43.7187273,77.194001 44.1506343,77.2808024 44.5670275,77.1988176 L44.5670275,77.1988176 L50.2250275,76.0668176 C50.971713,75.9168798 51.5092251,75.261408 51.5100275,74.4998176 L51.5100275,74.1288176 L42.6880275,75.9378176 Z" id="路径_3241" fill="#FFFFFF" fill-rule="nonzero"></path>
                    <path d="M8.78102755,51.7798176 C7.41629262,47.9412217 6.4900731,43.9605913 6.02002755,39.9138176 C5.73002939,37.6008897 5.78800554,35.2575747 6.19202755,32.9618176 C6.32102755,32.2528176 8.62102755,25.2058176 8.96002755,25.4318176 C8.17902755,24.9108176 9.35002755,23.8698176 9.35002755,23.8698176 C7.95039125,24.1389263 6.52358852,24.2396418 5.10002755,24.1698176 C2.99530411,23.8480704 1.13420056,22.6277703 0,20.8258176 C-0.0169724502,20.7988176 7.83902755,18.6548176 8.53202755,18.4458176 C14.4520275,16.6658176 17.4450275,10.6458176 22.2750275,7.26681761 C28.2750275,3.07281761 35.5580275,1.10781761 42.7620275,0.366817612 C49.1395212,-0.219874445 55.5622286,-0.102500407 61.9140275,0.716817612 C63.0850275,0.716817612 75.7060275,3.96881761 77.6580275,8.78381761 C77.1080275,7.42781761 80.9270275,1.13381761 82.5790275,1.19881761 C85.1520275,1.29881761 83.5060275,9.37981761 82.5160275,10.8658176 C83.3550275,11.1948176 85.7420275,9.96581761 86.5610275,9.73581761 C88.0220275,9.32481761 93.4830275,7.47281761 92.2950275,10.5298176 C91.7640275,11.8938176 88.8070275,13.6408176 87.3730275,13.6418176 C87.1730275,13.6418176 87.0360275,13.6638176 87.0060275,13.8618176 C87.9360275,15.1618176 89.4980275,15.8488176 90.6650275,16.9198176 C95.2300275,21.1098176 97.4970275,30.3678176 98.2100275,36.3108176 C98.7222339,40.0532801 98.4497883,43.8613884 97.4100275,47.4928176 C96.4100275,50.7668176 94.2920275,53.5708176 92.2400275,56.2538176 C90.3760275,58.6908176 88.6670275,61.8838176 86.1620275,63.7118176 C84.6410275,64.8238176 80.8430275,67.1528176 79.3710275,64.9308176 C78.3900275,63.4508176 79.1640275,60.3048176 79.0880275,58.6068176 C79.0020275,56.6578176 78.9330275,54.7068176 78.9130275,52.7568176 C78.8930275,50.8568176 79.6480275,48.3508176 76.8660275,48.6978176 C74.7010275,48.9678176 72.9920275,50.5568176 70.6320275,50.6808176 C65.6870275,50.9408176 61.5240275,42.8738176 62.5640275,40.2718176 C63.6040275,37.6698176 58.4010275,45.2148176 57.3640275,45.9958176 C57.3640275,45.9958176 51.3780275,45.1288176 48.9500275,40.0958176 C47.5620275,41.8298176 42.5960275,48.3358176 39.2780275,45.8638176 C39.2780275,44.9528176 40.4490275,42.0908176 40.1880275,40.3988176 C40.0580275,40.1388176 36.8050275,50.6778176 19.1100275,49.5068176 C19.1100275,49.5068176 16.7680275,50.0278176 15.9870275,46.3848176 C15.8570275,48.2058176 14.6870275,57.4438176 13.6450275,57.8348176 C12.2650275,58.3508176 9.98502755,54.6348176 9.56802755,53.7048176 C9.28936088,53.0841509 9.02702755,52.4424843 8.78102755,51.7798176 Z" id="路径_3242" fill="#111111" fill-rule="nonzero"></path>
                    <g id="头发" transform="translate(12.563571, 4.639813)" fill="#333333" fill-rule="nonzero">
                        <path d="M15.6454564,43.5660047 L10.8454564,44.9080047 C10.5701833,44.9849954 10.2747463,44.9092813 10.0704338,44.7093832 C9.86612133,44.509485 9.78397319,44.2157721 9.85493383,43.9388832 C9.92589447,43.6619943 10.1391833,43.4439954 10.4144564,43.3670047 L15.2144564,42.0250047 C15.6376528,41.9127316 16.0724833,42.1615126 16.1901613,42.5832379 C16.3078394,43.0049633 16.0646417,43.442941 15.6444564,43.5660047" id="路径_3243"></path>
                        <path d="M51.9564564,44.0740047 L47.1374564,42.8110047 C46.8545208,42.7505503 46.6262733,42.5420408 46.5405444,42.2657115 C46.4548155,41.9893823 46.5249656,41.6882974 46.7240006,41.4783155 C46.9230356,41.2683337 47.2199372,41.1821792 47.5004564,41.2530047 L47.5434564,41.2640047 L52.3624564,42.5270047 C52.645392,42.5874591 52.8736395,42.7959687 52.9593684,43.0722979 C53.0450973,43.3486271 52.9749472,43.6497121 52.7759122,43.8596939 C52.5768772,44.0696757 52.2799756,44.1558302 51.9994564,44.0850047 L51.9564564,44.0740047" id="路径_3244"></path>
                        <path d="M0.0424564025,27.8830047 C-0.0425435975,28.2770047 -0.0295435975,28.8280047 0.362456403,28.9200047 C0.690456403,28.9970047 0.953456403,28.6580047 1.1194564,28.3640047 C2.15001932,26.3503923 3.35672434,24.4319121 4.7254564,22.6310047 C5.9824564,21.1050047 8.3774564,20.1420047 9.3364564,18.7000047 C4.1094564,15.3920047 0.781456403,24.4230047 0.0424564025,27.8830047 Z" id="路径_3246"></path>
                        <path d="M10.2694564,13.8890047 C17.4004564,8.12700471 25.5374564,3.11600471 34.6164564,1.83800471 C35.5504564,1.70600471 36.6404564,1.51600471 37.0714564,0.678004711 C32.2184564,-1.05399529 26.2194564,0.828004711 21.7814564,3.00500471 C19.3377508,4.20413386 17.0893505,5.76577578 15.1124564,7.63700471 C13.2914564,9.36200471 12.0934564,12.4110047 10.2694564,13.8890047 Z" id="路径_3247"></path>
                        <path d="M31.8874564,35.1190047 C33.0084564,33.6690047 34.7584564,32.6680047 35.9374564,31.2190047 C37.3654564,29.4630047 39.6694564,26.5400047 38.5934564,24.1190047 C36.8464564,24.4790047 35.5634564,28.1580047 34.9764564,29.6800047 C34.2160501,31.633235 33.1754828,33.4654285 31.8874564,35.1190047 L31.8874564,35.1190047 Z" id="路径_3248"></path>
                        <path d="M50.7024564,30.8890047 C50.7794564,30.5480047 52.5474564,29.6890047 52.8874564,29.4300047 C53.7254237,28.805065 54.49234,28.090126 55.1744564,27.2980047 C56.3324564,25.9200047 57.7114564,24.0250047 57.3534564,22.1190047 C54.2684564,22.0580047 51.2684564,28.3900047 50.7024564,30.8890047 Z" id="路径_3249"></path>
                        <path d="M80.6814564,36.5300047 C81.465288,36.198031 82.0527833,35.5238682 82.2744564,34.7020047 C83.290321,31.6412246 83.2196842,28.3237698 82.0744564,25.3090047 C81.4514564,23.4440047 79.8434564,19.5280047 77.5944564,19.0380047 C75.4024564,18.5610047 76.5454564,20.5650047 77.2474564,22.0380047 C78.4874634,24.2453992 79.4836568,26.5811392 80.2184564,29.0040047 C80.3974564,29.7370047 81.5654564,36.2740047 80.6814564,36.5300047 Z" id="路径_3250"></path>
                    </g>
                    <line x1="15.3820275" y1="26.8428176" x2="15.3820275" y2="26.6248176" id="路径_3245"></line>
                </g>
                <path d="M65.1030275,108.458818 C65.1030275,108.458818 65.0810275,108.488818 65.0270275,108.558818 L65.0270275,108.565818 C64.7270275,108.945818 63.6360275,110.365818 62.6270275,111.820818 L37.9070275,111.820818 L37.8770275,111.850818 L37.8770275,111.820818 L29.8200275,111.820818 C29.0290275,110.720818 28.3600275,109.774818 28.1700275,109.500818 C28.1320275,109.447818 28.1090275,109.417818 28.1090275,109.417818 C30.6382636,106.434026 33.3476568,103.607748 36.2220275,100.954818 C37.7225068,100.010174 39.4224438,99.4281208 41.1870275,99.2548176 C41.7870275,99.4828176 47.2170275,105.354818 51.5870275,99.1098176 C51.5870275,99.1098176 55.9870275,99.1178176 58.5450275,101.215818 C60.7540275,103.021818 65.1030275,108.458818 65.1030275,108.458818 Z" id="路径_3251" fill="#71CCBB" fill-rule="nonzero"></path>
                <path d="M34.7410275,102.295818 L36.3930275,100.841818 L37.5500275,106.318818 L35.5930275,106.861818 C35.5930275,106.861818 34.4970275,103.002818 34.7410275,102.295818 Z" id="路径_3252" fill="#365BAD" fill-rule="nonzero"></path>
                <path d="M36.1840275,107.695818 C36.1840275,107.695818 34.6260275,107.731818 35.4590275,106.680818 C36.1660275,106.452818 36.9730275,106.267818 37.4750275,106.161818 C37.8496101,106.076166 38.2392336,106.221636 38.4660275,106.531818 C38.5660275,106.676818 38.6030275,106.825818 38.4660275,106.931818 C37.7331114,107.26289 36.9685415,107.518863 36.1840275,107.695818 L36.1840275,107.695818 Z" id="路径_3253" fill="#098C7A" fill-rule="nonzero"></path>
                <path d="M58.5200275,101.013818 L56.6200275,100.088818 L55.6080275,106.188818 L57.5650275,106.732818 C57.5650275,106.732818 58.7620275,101.724818 58.5200275,101.013818 Z" id="路径_3254" fill="#365BAD" fill-rule="nonzero"></path>
                <path d="M56.9620275,107.695818 C56.9620275,107.695818 58.5200275,107.731818 57.6860275,106.680818 C56.9800275,106.452818 56.1730275,106.267818 55.6710275,106.161818 C55.296445,106.076166 54.9068215,106.221636 54.6800275,106.531818 C54.5800275,106.676818 54.5430275,106.825818 54.6800275,106.931818 C55.4129437,107.26289 56.1775136,107.518863 56.9620275,107.695818 L56.9620275,107.695818 Z" id="路径_3255" fill="#098C7A" fill-rule="nonzero"></path>
                <path d="M57.2060275,107.822818 C57.2060275,107.822818 57.0970275,108.311818 56.2060275,108.230818 C55.3150275,108.149818 54.8190275,107.468818 55.0060275,107.251818 C55.3609001,107.031366 55.7888922,106.961139 56.1956053,107.056627 C56.6023184,107.152114 56.95434,107.405472 57.1740275,107.760818 C57.1820275,107.780818 57.1940275,107.801818 57.2060275,107.822818 Z" id="路径_3256" fill="#1AA389" fill-rule="nonzero"></path>
                <path d="M35.5860275,110.078818 L36.4290275,108.311818 L56.7060275,108.311818 C57.0609884,108.852835 57.3440319,109.437747 57.5480275,110.051818 C57.5200275,110.377818 35.5860275,110.078818 35.5860275,110.078818 Z" id="路径_3257" fill="#365BAD" fill-rule="nonzero"></path>
                <polygon id="路径_3258" fill="#3174BB" fill-rule="nonzero" points="57.7960275 111.819818 37.9050275 111.819818 37.8740275 111.849818 37.8740275 111.819818 35.1670275 111.819818 35.5850275 110.078818 37.7850275 110.078818 39.7770275 110.070818 54.2240275 110.055818 55.0530275 110.047818 57.5470275 110.047818"></polygon>
                <path d="M35.9400275,107.822818 C35.9400275,107.822818 36.0480275,108.311818 36.9450275,108.230818 C37.8420275,108.149818 38.3310275,107.468818 38.1450275,107.251818 C37.7900004,107.031317 37.3618553,106.961064 36.9549794,107.056546 C36.5481036,107.152028 36.1959049,107.405404 35.9760275,107.760818 L35.9400275,107.822818 Z" id="路径_3259" fill="#1AA389" fill-rule="nonzero"></path>
                <polygon id="路径_3260" fill="#365BAD" fill-rule="nonzero" points="37.8750275 111.819818 36.9090275 111.819818 36.8330275 110.078818 36.8330275 110.055818 37.7760275 109.903818 37.7840275 110.078818"></polygon>
                <polygon id="路径_3261" fill="#365BAD" fill-rule="nonzero" points="56.0020275 110.050818 55.9410275 111.525818 55.9260275 111.814818 54.9600275 111.814818 55.0130275 110.727818 55.0510275 110.043818 55.0590275 109.899818 55.9590275 110.043818"></polygon>
                <ellipse id="椭圆_461" fill="#3174BB" fill-rule="nonzero" transform="translate(55.933531, 108.545902) rotate(-80.271000) translate(-55.933531, -108.545902) " cx="55.9335307" cy="108.545902" rx="1" ry="1.66"></ellipse>
                <ellipse id="椭圆_462" fill="#3174BB" fill-rule="nonzero" transform="translate(37.115194, 108.545528) rotate(-9.729000) translate(-37.115194, -108.545528) " cx="37.1151941" cy="108.545528" rx="1.747" ry="1"></ellipse>
            </g>
        </g>
    </g>
</svg>