<?xml version="1.0" encoding="UTF-8"?>
<svg width="119px" height="132px" viewBox="0 0 119 132" version="1.1" xmlns="http://www.w3.org/2000/svg" xmlns:xlink="http://www.w3.org/1999/xlink">
    <title>男孩大</title>
    <g id="人教一年级上" stroke="none" stroke-width="1" fill="none" fill-rule="evenodd">
        <g id="第1课练一练第5题" transform="translate(-107.000000, -85.000000)">
            <g id="男孩大" transform="translate(107.000000, 85.000000)">
                <g id="路径_3262" fill="#FFFFFF" fill-rule="nonzero">
                    <path d="M60.3252754,9.99994012 C57.7998032,9.99561114 55.2757829,10.121445 52.7632754,10.3770537 C45.5632754,11.1220537 38.2742754,13.0870537 32.2772754,17.2770537 C27.4462754,20.6540537 24.4532754,26.6770537 18.5342754,28.4560537 C17.8402754,28.6650537 9.9852754,30.8090537 10.001251,30.8360537 C11.1355453,32.6379114 12.9966005,33.8581798 15.1012754,34.1800537 C15.3932754,34.2030537 15.6892754,34.2130537 15.9872754,34.2130537 C17.1154031,34.1950228 18.2401607,34.0846541 19.3502754,33.8830537 C19.3502754,33.8830537 18.1792754,34.9240537 18.9602754,35.4450537 C18.9551565,35.4410198 18.9487908,35.4388979 18.9422754,35.4390537 C18.5492754,35.4390537 16.3192754,42.2770537 16.1932754,42.9750537 C15.7889057,45.2707593 15.7305924,47.6140767 16.0202754,49.9270537 C16.4921442,53.9743134 17.4200358,57.9552571 18.7862754,61.7940537 C19.0322754,62.4560537 19.2922754,63.0940537 19.5682754,63.7140537 C19.9392754,64.5440537 21.7832754,67.5670537 23.1572754,67.8620537 C23.0866087,68.3140537 23.0199421,68.7513871 22.9572754,69.1740537 C21.859845,68.5773916 20.6294032,68.2678032 19.3802754,68.2740537 C18.406408,68.2276386 17.4409495,68.4738793 16.6082754,68.9810537 C14.2606639,70.9482614 13.5629378,74.2658684 14.9192754,77.0120537 C16.2072754,79.6880537 19.0632754,81.1900537 21.9282754,81.9720537 C22.3382754,82.0840537 22.7212754,82.1620537 23.0902754,82.2280537 C23.2522754,82.8420537 23.4352754,83.4500537 23.6542754,84.0490537 L23.7682754,84.3600537 C23.8512754,84.5860537 23.9412754,84.8100537 24.0362754,85.0310537 C24.1312754,85.2520537 24.2172754,85.4520537 24.3172754,85.6610537 C24.3692754,85.7890537 24.4292754,85.9170537 24.4932754,86.0410537 C27.1527821,91.2870616 31.4347887,95.5343463 36.7022754,98.1510537 C37.3182754,98.4843871 37.9462754,98.7973871 38.5862754,99.0900537 C40.0808446,99.7807551 41.6152284,100.381819 43.1812754,100.890054 C45.8166808,101.748811 48.5243879,102.367333 51.2712754,102.738054 L51.0632754,109.255054 L51.0542754,109.255054 C49.3378532,109.476813 47.6884839,110.062172 46.2162754,110.972054 C43.3421806,113.625265 40.6328041,116.451526 38.1032754,119.435054 C38.1032754,119.435054 38.1262754,119.465054 38.1642754,119.518054 L36.3922754,121.838054 L47.8752754,121.838054 L47.8752754,121.868054 L47.9052754,121.838054 L77.8052754,121.838054 L75.0302754,118.583054 L75.0302754,118.576054 L75.1062754,118.476054 C75.1062754,118.476054 70.7562754,113.039054 68.5442754,111.229054 C65.9892754,109.129054 61.5862754,109.123054 61.5862754,109.123054 C61.5392754,109.191054 61.4862754,109.250054 61.4432754,109.315054 L60.9682754,102.957054 C61.2252754,102.964054 61.4832754,102.967054 61.7402754,102.967054 C66.9196468,102.95204 72.0091637,101.612966 76.5252754,99.0770537 C78.2918419,98.0938525 79.9511369,96.9292291 81.4762754,95.6020537 C84.6324554,92.8435316 87.1772022,89.4557587 88.9472754,85.6560537 L88.9472754,85.6560537 C89.4172142,84.6359511 89.8305091,83.5906957 90.1852754,82.5250537 C90.5231638,82.5594483 90.8626455,82.5758049 91.2022754,82.5740537 C92.4429326,82.5674942 93.6772835,82.3970186 94.8732754,82.0670537 C98.0622754,81.1960537 101.241275,79.5240537 102.673275,76.5460537 C104.097862,73.6189016 103.454579,70.105556 101.085275,67.8730537 C101.469275,67.3190537 101.851275,66.7730537 102.239275,66.2670537 C104.292275,63.5840537 106.408275,60.7800537 107.409275,57.5060537 C108.449499,53.8747065 108.721952,50.066501 108.209275,46.3240537 C107.497275,40.3810537 105.230275,31.1240537 100.665275,26.9330537 C99.4972754,25.8620537 97.9352754,25.1790537 97.0052754,23.8750537 C97.0352754,23.6750537 97.1752754,23.6550537 97.3732754,23.6550537 C98.8062754,23.6550537 101.763275,21.9070537 102.294275,20.5430537 C102.807275,19.2220537 102.079275,18.8170537 100.968275,18.8170537 C99.4671243,18.9492541 97.9874205,19.2621844 96.5612754,19.7490537 C95.8382754,19.9490537 93.8902754,20.9340537 92.8672754,20.9340537 C92.74757,20.9373361 92.6282738,20.9186961 92.5152754,20.8790537 C93.5062754,19.3930537 95.1512754,11.3130537 92.5792754,11.2120537 L92.5532754,11.2120537 C90.8872754,11.2120537 87.1102754,17.4490537 87.6532754,18.7980537 C85.7012754,13.9840537 73.0802754,10.7310537 71.9092754,10.7310537 C68.0634366,10.2627852 64.1934845,10.0200367 60.3192754,10.0040537 M59.8782754,110.956054 L60.7982754,110.106054 C60.5175985,110.416283 60.209702,110.700753 59.8782754,110.956054 M60.3192754,0.00405374294 C64.5842187,0.0176052693 68.8446382,0.28306757 73.0782754,0.799053743 L73.0722754,0.853053743 C77.1006055,1.52008335 81.0306207,2.68430836 84.7722754,4.31905374 C86.8904973,2.35556599 89.662226,1.2483712 92.5502754,1.21205374 C96.7500195,1.24881512 100.578046,3.62657445 102.472275,7.37505374 C102.738229,7.89882775 102.964854,8.44165864 103.150275,8.99905374 C106.155263,9.46134815 108.83818,11.1383519 110.570275,13.6370537 C112.657963,16.7511089 113.04908,20.7031981 111.612275,24.1660537 C111.570275,24.2740537 111.526275,24.3820537 111.480275,24.4890537 C116.045275,31.6620537 117.626275,40.8890537 118.135275,45.1350537 C118.819479,50.2605149 118.42228,55.4724674 116.969275,60.4350537 C116.01295,63.4000498 114.613802,66.2034023 112.819275,68.7500537 C113.888911,72.8047 113.484938,77.1073664 111.679275,80.8920537 C109.156275,86.1310537 104.254275,89.8760537 97.5032754,91.7190537 C97.3442754,91.7630537 97.1852754,91.8040537 97.0262754,91.8450537 C94.7362344,96.1283673 91.689011,99.9612823 88.0322754,103.158054 C85.9851332,104.938651 83.7585102,106.501711 81.3882754,107.822054 C80.8949421,108.09872 80.3949421,108.365387 79.8882754,108.622054 C81.1452754,110.066054 82.2442754,111.416054 82.9042754,112.240054 C83.1684049,112.569567 83.4112319,112.915604 83.6312754,113.276054 L85.4122754,115.369054 C87.9386736,118.338509 88.5089198,122.505529 86.8731915,126.04456 C85.2374632,129.583591 81.694038,131.849286 77.7952754,131.849054 L48.3562754,131.849054 C48.1962754,131.856054 48.0362754,131.860054 47.8772754,131.860054 C47.7182754,131.860054 47.5572754,131.860054 47.3982754,131.849054 L36.3982754,131.849054 C32.5947407,131.849047 29.1205134,129.691298 27.4344735,126.281878 C25.7484336,122.872457 26.1425298,118.80173 28.4512754,115.779054 L29.9862754,113.769054 C31.2478118,111.748843 32.7302702,109.875311 34.4062754,108.183054 L34.3862754,108.173054 C33.5762754,107.800054 32.7622754,107.395054 31.9642754,106.965054 C24.8189593,103.343736 19.0324265,97.5140674 15.4642754,90.3420537 L15.4242754,90.2550537 C11.2870818,88.5278904 7.91035683,85.3684232 5.9122754,81.3550537 C2.96625936,75.2097109 4.01557973,67.8944715 8.5702754,62.8250537 C7.39394351,59.0098224 6.56391825,55.0963203 6.0902754,51.1320537 C5.68050904,47.8283133 5.76814892,44.481818 6.3502754,41.2040537 L6.3502754,41.2040537 C4.3820309,39.8415498 2.71710669,38.0863997 1.4602754,36.0490537 C-0.183163686,33.3517313 -0.45566125,30.0365296 0.7252754,27.1070537 C2.5812754,22.5010537 5.2082754,21.7760537 12.2252754,19.8400537 L15.6762754,18.8820537 C16.7202754,18.5680537 18.3622754,16.8180537 19.9512754,15.1250537 C21.9285301,12.8846743 24.1394007,10.8618701 26.5462754,9.09105374 C33.2822754,4.38005374 41.7562754,1.46705374 51.7322754,0.436053743 C54.5872219,0.143264961 57.4553557,-0.00226120316 60.3252754,2.65565033e-05 L60.3192754,0.00405374294 Z" id="路径_3819"></path>
                </g>
                <g id="手" transform="translate(36.396275, 114.103054)" fill="#FFCBA6" fill-rule="nonzero">
                    <polygon id="路径_3263" points="15.83 3.705 13.382 5.986 11.512 7.735 11.482 7.765 11.482 7.735 0 7.735 1.772 5.416 2.631 4.298"></polygon>
                    <polygon id="路径_3264" points="38.634 4.48 41.409 7.734 29.889 7.734 29.547 7.445 28.619 6.645 27.828 5.968 25.228 3.733 34.816 -2.84217094e-14 38.633 4.471"></polygon>
                </g>
                <path d="M21.9312754,81.9690537 C19.0662754,81.1870537 16.2102754,79.6850537 14.9222754,77.0090537 C13.5663182,74.2628203 14.2639927,70.9454586 16.6112754,68.9780537 C18.1802754,67.8160537 22.8512754,67.8160537 25.0112754,71.0490537 L26.2692754,73.3840537 L26.2692754,82.3690537 C24.8126521,82.513994 23.3417476,82.3782078 21.9362754,81.9690537" id="路径_3265" fill="#FFCBA6" fill-rule="nonzero"></path>
                <path d="M25.2572754,76.7320537 C24.169692,75.1102451 22.4899962,73.97908 20.5782754,73.5810537 C18.8142754,73.2330537 17.9582754,75.7420537 19.5062754,76.7530537 C20.6338829,77.3930874 21.8836987,77.7883399 23.1742754,77.9130537 C30.0932754,78.9260537 25.2572754,76.7320537 25.2572754,76.7320537" id="路径_3266" fill="#F17558" fill-rule="nonzero"></path>
                <path d="M94.8752754,82.0640537 C98.0642754,81.1930537 101.243275,79.5210537 102.675275,76.5430537 C104.107275,73.5650537 103.452275,69.5710537 100.795275,67.6030537 C99.0482754,66.3090537 93.8502754,66.3090537 91.4502754,69.9030537 L90.0502754,72.5030537 L90.0502754,82.5030537 C91.6714123,82.6660936 93.3087769,82.5160387 94.8732754,82.0610537" id="路径_3267" fill="#FFCBA6" fill-rule="nonzero"></path>
                <path d="M91.1752754,76.2320537 C92.3863252,74.4269873 94.2562145,73.1680697 96.3842754,72.7250537 C98.3472754,72.3370537 99.3002754,75.1250537 97.5772754,76.2560537 C96.3219403,76.9681178 94.9307856,77.4079858 93.4942754,77.5470537 C85.7942754,78.6740537 91.1752754,76.2320537 91.1752754,76.2320537" id="路径_3268" fill="#F17558" fill-rule="nonzero"></path>
                <line x1="60.6572754" y1="58.7110537" x2="53.8582754" y2="59.1110537" id="直线_9"></line>
                <path d="M92.0822754,72.9200537 L92.0052754,73.4600537 L91.6052754,76.3070537 C91.2357322,79.5463012 90.3388948,82.7033041 88.9502754,85.6530537 L88.9502754,85.6530537 C87.1798722,89.4525608 84.6351734,92.8402698 81.4792754,95.5990537 C79.9538062,96.9258065 78.2945569,98.0903978 76.5282754,99.0740537 C71.7855233,101.738296 66.4136962,103.078403 60.9752754,102.954054 L61.4632754,109.496054 L56.2632754,114.296054 L51.0632754,109.496054 L51.2792754,102.734054 C48.5324659,102.362902 45.8247973,101.744389 43.1892754,100.886054 C41.6217896,100.377286 40.0857733,99.7762357 38.5892754,99.0860537 C37.9492754,98.7913871 37.3212754,98.4783871 36.7052754,98.1470537 C31.4380413,95.5299934 27.156133,91.2828061 24.4962754,86.0370537 C24.4322754,85.9130537 24.3722754,85.7850537 24.3202754,85.6570537 C24.2202754,85.4480537 24.1312754,85.2390537 24.0392754,85.0270537 C23.9472754,84.8150537 23.8542754,84.5820537 23.7712754,84.3560537 L23.6572754,84.0450537 C22.6336539,81.1710231 22.1970385,78.1208367 22.3732754,75.0750537 C22.6211017,71.0052638 23.1783784,66.960244 24.0402754,62.9750537 C24.0402754,62.9750537 25.8642754,35.0830537 58.1292754,34.5390537 C58.1292754,34.5460537 95.2672754,31.1750537 92.0822754,72.9200537 Z" id="路径_3269" fill="#FFCBA6" fill-rule="nonzero"></path>
                <path d="M48.5612754,73.8050537 C47.1940439,78.927626 41.9330437,81.9719546 36.8104567,80.6047786 C31.6878696,79.2376027 28.6434839,73.9766356 30.0106042,68.8540337 C31.3777246,63.7314318 36.6386586,60.686989 41.7612754,62.0540537 C44.2213139,62.7105604 46.3197895,64.3174442 47.5950432,66.5211952 C48.870297,68.7249462 49.2178621,71.3450366 48.5612754,73.8050537 L48.5612754,73.8050537" id="路径_3270" fill="#FFFFFF" fill-rule="nonzero"></path>
                <path d="M80.5612754,73.4050537 C79.1940439,78.527626 73.9330437,81.5719546 68.8104567,80.2047786 C63.6878696,78.8376027 60.6434839,73.5766356 62.0106042,68.4540337 C63.3777246,63.3314318 68.6386586,60.286989 73.7612754,61.6540537 C76.2213139,62.3105604 78.3197895,63.9174442 79.5950432,66.1211952 C80.870297,68.3249462 81.2178621,70.9450366 80.5612754,73.4050537 L80.5612754,73.4050537" id="路径_3271" fill="#FFFFFF" fill-rule="nonzero"></path>
                <path d="M45.5952754,71.6420537 C45.3804468,72.4472563 45.0395654,73.2133957 44.5852754,73.9120537 C43.1525685,76.0849284 40.7225751,77.3909401 38.1198809,77.3869205 C35.5171867,77.3828822 33.0912482,76.0693536 31.6652754,73.8920537 C29.7122809,70.9217705 30.036197,67.0025615 32.4503386,64.3932148 C34.8644802,61.783868 38.7467353,61.1567988 41.8596139,62.8734108 C44.9724925,64.5900228 46.5138217,68.2079538 45.5952754,71.6420537 Z" id="路径_3820" fill="#7C3821" fill-rule="nonzero"></path>
                <path d="M37.7932754,67.0210537 C37.5113132,68.075067 36.4284396,68.7010758 35.3743391,68.4194397 C34.3202387,68.1378036 33.6938949,67.0551237 33.9752049,66.0009362 C34.2565148,64.9467486 35.3390009,64.32007 36.3932754,64.6010537 C36.8999737,64.7360983 37.3322145,65.0670113 37.5948028,65.5209139 C37.8573911,65.9748166 37.9287902,66.514481 37.7932754,67.0210537 L37.7932754,67.0210537" id="路径_3273" fill="#FFFFFF" fill-rule="nonzero"></path>
                <path d="M44.5852754,73.9120537 C43.1525685,76.0849284 40.7225751,77.3909401 38.1198809,77.3869205 C35.5171867,77.3828822 33.0912482,76.0693536 31.6652754,73.8920537 C33.0967681,71.7220044 35.5233,70.4169694 38.1229695,70.4189807 C40.722639,70.4209967 43.1471463,71.7297893 44.5752754,73.9020537 C44.5752754,73.9075766 44.5797526,73.9120537 44.5852754,73.9120537 Z" id="路径_3821" fill="#9E5036" fill-rule="nonzero"></path>
                <path d="M88.9472754,85.6520537 L88.9472754,85.6520537 C87.1776411,89.4515078 84.6340063,92.8395013 81.4792754,95.5990537 C79.9523475,96.9244006 78.2929177,98.0888834 76.5272754,99.0740537 C72.4628592,97.4558072 69.9632616,93.3396632 70.4017233,88.9869684 C70.840185,84.6342736 74.1105005,81.0993525 78.4160082,80.3242368 C82.7215158,79.5491212 87.0193212,81.7215621 88.9482754,85.6480537" id="路径_3275" fill="#F59679" fill-rule="nonzero"></path>
                <path d="M41.1642754,92.2560537 C40.5098326,94.7316907 38.9083039,96.8507801 36.7052754,98.1560537 C31.4376202,95.5395817 27.1555481,91.292232 24.4962754,86.0460537 C24.4322754,85.9220537 24.3722754,85.7940537 24.3202754,85.6660537 C24.2082754,85.4300537 24.1082754,85.1940537 24.0042754,84.9540537 C23.8882754,84.6740537 23.7802754,84.3900537 23.6762754,84.1060537 C26.40741,80.2208446 31.5312165,78.85301 35.8353424,80.860109 C40.1394684,82.867208 42.38507,87.6715432 41.1642754,92.2610537" id="路径_3276" fill="#F59679" fill-rule="nonzero"></path>
                <path d="M77.8052778,69.1920537 C77.8052778,69.8467518 77.7212471,70.4987426 77.5552754,71.1320537 C77.5452821,71.1543057 77.5385463,71.1778811 77.5352754,71.2020537 C76.4737986,75.0936946 72.5764618,77.4955515 68.6229858,76.6945336 C64.6695099,75.8935156 62.0144429,72.1640693 62.5514741,68.16617 C63.0885054,64.1682706 66.6336362,61.2716867 70.6583516,61.5423662 C74.6830671,61.8130456 77.8084109,65.1582476 77.8052778,69.1920537 L77.8052778,69.1920537 Z" id="路径_3822" fill="#7C3821" fill-rule="nonzero"></path>
                <path d="M76.5252754,73.4620537 C75.0980224,75.623813 72.6806913,76.9244898 70.0902754,76.9244898 C67.4998595,76.9244898 65.0825284,75.623813 63.6552754,73.4620537 C65.0790597,71.2953498 67.4976382,69.9906203 70.0902754,69.9906203 C72.6829126,69.9906203 75.1014911,71.2953498 76.5252754,73.4620537 L76.5252754,73.4620537 Z" id="路径_3823" fill="#9E5036" fill-rule="nonzero"></path>
                <path d="M69.3142754,66.6030537 C69.0347859,67.6534876 67.9569618,68.2787311 66.9063578,67.9998819 C65.8557538,67.7210326 65.2298534,66.6435898 65.5080623,65.5928161 C65.7862712,64.5420423 66.8633323,63.9154854 67.9142754,64.1930537 L67.9142754,64.1930537 C68.9646017,64.4737702 69.5886415,65.5526339 69.3082754,66.6030537" id="路径_3279" fill="#FFFFFF" fill-rule="nonzero"></path>
                <path d="M64.3002754,89.4800537 C63.2613072,91.7455021 61.2167918,93.3899311 58.7812754,93.9190537 C58.2304182,94.0373593 57.6686918,94.0976879 57.1052754,94.0990537 C55.9908256,94.0974468 54.8894612,93.8588349 53.8742754,93.3990537 C53.6731277,93.3094813 53.476854,93.2093417 53.2862754,93.0990537 C51.4162973,92.0694495 50.0447887,90.3243852 49.4862754,88.2640537 L49.0582754,86.6960537 L64.6582754,83.4960537 L64.8902754,84.7710537 C65.1822745,86.3608166 64.9773084,88.0019422 64.3032754,89.4710537" id="路径_3280" fill="#DA5257" fill-rule="nonzero"></path>
                <path d="M64.3002754,89.4800537 C63.2613072,91.7455021 61.2167918,93.3899311 58.7812754,93.9190537 C58.2304182,94.0373593 57.6686918,94.0976879 57.1052754,94.0990537 C55.9908256,94.0974468 54.8894612,93.8588349 53.8742754,93.3990537 C53.6731277,93.3094813 53.476854,93.2093417 53.2862754,93.0990537 C54.9986593,91.5888695 57.0610416,90.5301799 59.2862754,90.0190537 C60.9166416,89.5700393 62.6083977,89.3850298 64.2972754,89.4710537" id="路径_3281" fill="#EE706E" fill-rule="nonzero"></path>
                <path d="M52.6902754,85.9560537 L52.6902754,85.9560537 C52.7721982,86.3724592 53.0161974,86.7392596 53.3685863,86.9757483 C53.7209752,87.2122371 54.1528821,87.2990385 54.5692754,87.2170537 L54.5692754,87.2170537 L60.2272754,86.0850537 C60.9743584,85.9355316 61.5123771,85.2799521 61.5132754,84.5180537 L61.5132754,84.1470537 L52.6902754,85.9560537 Z" id="路径_3282" fill="#FFFFFF" fill-rule="nonzero"></path>
                <g id="头发" transform="translate(9.999248, 10.017242)" fill-rule="nonzero">
                    <path d="M8.78502755,51.7808117 C7.41899322,47.9419548 6.49110705,43.9610346 6.01902755,39.9138117 C5.72934455,37.6008347 5.78765783,35.2575173 6.19202755,32.9618117 C6.32002755,32.2528117 8.62002755,25.2058117 8.95902755,25.4318117 C8.17802755,24.9108117 9.34902755,23.8698117 9.34902755,23.8698117 C7.94973438,24.1389644 6.52325729,24.2396806 5.10002755,24.1698117 C2.99530412,23.8480645 1.13420056,22.6277644 0,20.8258117 C-0.0169724467,20.7988117 7.83802755,18.6548117 8.53202755,18.4458117 C14.4510276,16.6658117 17.4440276,10.6458117 22.2750276,7.2668117 C28.2750276,3.0728117 35.5570276,1.1078117 42.7610276,0.366811698 C49.1385215,-0.219872243 55.561228,-0.102498221 61.9130276,0.716811698 C63.0840276,0.716811698 75.7050276,3.9688117 77.6570276,8.7838117 C77.1070276,7.4278117 80.9260276,1.1338117 82.5790276,1.1988117 C85.1510276,1.2988117 83.5060276,9.3798117 82.5150276,10.8658117 C83.3540276,11.1948117 85.7420276,9.9658117 86.5610276,9.7358117 C88.0210276,9.3248117 93.4820276,7.4728117 92.2940276,10.5298117 C91.7630276,11.8938117 88.8060276,13.6408117 87.3730276,13.6418117 C87.1730276,13.6418117 87.0350276,13.6638117 87.0050276,13.8618117 C87.9350276,15.1618117 89.4970276,15.8488117 90.6640276,16.9198117 C95.2300276,21.1098117 97.4960276,30.3678117 98.2090276,36.3108117 C98.7217039,40.053259 98.4492513,43.8614644 97.4090276,47.4928117 C96.4090276,50.7668117 94.2920276,53.5708117 92.2390276,56.2538117 C90.3750276,58.6908117 88.6660276,61.8838117 86.1610276,63.7118117 C84.6400276,64.8238117 80.8430276,67.1528117 79.3700276,64.9308117 C78.3890276,63.4508117 79.1630276,60.3048117 79.0880276,58.6068117 C79.0020276,56.6578117 78.9320276,54.7068117 78.9120276,52.7568117 C78.8930276,50.8568117 79.6480276,48.3508117 76.8650276,48.6978117 C74.7000276,48.9678117 72.9910276,50.5568117 70.6310276,50.6808117 C65.6870276,50.9408117 61.5230276,42.8738117 62.5640276,40.2718117 C63.6050276,37.6698117 58.4000276,45.2148117 57.3640276,45.9958117 C57.3640276,45.9958117 51.3790276,45.1288117 48.9500276,40.0958117 C47.5620276,41.8298117 42.5960276,48.3358117 39.2780276,45.8638117 C39.2780276,44.9528117 40.4490276,42.0908117 40.1890276,40.3988117 C40.0590276,40.1388117 36.8060276,50.6778117 19.1100276,49.5068117 C19.1100276,49.5068117 16.7680276,50.0278117 15.9870276,46.3848117 C15.8570276,48.2058117 14.6870276,57.4438117 13.6450276,57.8348117 C12.2660276,58.3508117 9.98602755,54.6348117 9.56902755,53.7048117 C9.29102755,53.0848117 9.02969422,52.4434784 8.78502755,51.7808117 Z" id="路径_3283" fill="#111111"></path>
                    <path d="M28.2130276,48.2068117 L23.4130276,49.5488117 C23.1377544,49.6258025 22.8423174,49.5500884 22.6380049,49.3501902 C22.4336924,49.1502921 22.3515442,48.8565791 22.4225049,48.5796902 C22.4934655,48.3028012 22.7067544,48.0848024 22.9820276,48.0078117 L27.7820276,46.6658117 C28.0573007,46.588821 28.3527376,46.6645351 28.5570501,46.8644332 C28.7613626,47.0643314 28.8435108,47.3580443 28.7725501,47.6349332 C28.7015895,47.9118221 28.4883007,48.129821 28.2130276,48.2068117 L28.2130276,48.2068117" id="路径_3284" fill="#333333"></path>
                    <path d="M64.5280276,48.7148117 L59.7090276,47.4518117 C59.2779693,47.3540573 59.0077732,46.9253699 59.1055276,46.4943117 C59.203282,46.0632535 59.6319693,45.7930573 60.0630276,45.8908117 L60.1140276,45.9048117 L64.9330276,47.1678117 C65.3392465,47.2954984 65.5742587,47.7190066 65.4676637,48.1312629 C65.3610687,48.5435191 64.9502268,48.8000321 64.5330276,48.7148117" id="路径_3285" fill="#333333"></path>
                    <path d="M12.6090276,32.5238117 C12.5250276,32.9178117 12.5370276,33.4688117 12.9290276,33.5608117 C13.2580276,33.6378117 13.5210276,33.2988117 13.6860276,33.0048117 C14.7171889,30.9915399 15.9238616,29.073111 17.2920276,27.2718117 C18.5490276,25.7458117 20.9440276,24.7828117 21.9030276,23.3408117 C16.6760276,20.0328117 13.3480276,29.0638117 12.6090276,32.5238117 Z" id="路径_3287" fill="#333333"></path>
                    <path d="M22.8360276,18.5298117 C29.9680276,12.7678117 38.1040276,7.7568117 47.1840276,6.4788117 C48.1180276,6.3468117 49.2070276,6.1568117 49.6380276,5.3188117 C44.7860276,3.5868117 38.7870276,5.4688117 34.3490276,7.6458117 C31.9047977,8.84456255 29.6560132,10.4062372 27.6790276,12.2778117 C25.8590276,14.0028117 24.6600276,17.0518117 22.8360276,18.5298117 Z" id="路径_3288" fill="#333333"></path>
                    <path d="M44.4540276,39.7598117 C45.5750276,38.3098117 47.3260276,37.3088117 48.5040276,35.8598117 C49.9320276,34.1038117 52.2360276,31.1808117 51.1600276,28.7598117 C49.4140276,29.1198117 48.1300276,32.7988117 47.5440276,34.3208117 C46.7828626,36.2738873 45.7419923,38.1060212 44.4540276,39.7598117 L44.4540276,39.7598117 Z" id="路径_3289" fill="#333333"></path>
                    <path d="M63.2700276,35.5298117 C63.3470276,35.1888117 65.1140276,34.3298117 65.4540276,34.0708117 C66.2919949,33.445872 67.0589111,32.730933 67.7410276,31.9388117 C68.8990276,30.5608117 70.2780276,28.6658117 69.9200276,26.7598117 C66.8350276,26.6988117 63.8350276,33.0308117 63.2700276,35.5298117 Z" id="路径_3290" fill="#333333"></path>
                    <path d="M93.2490276,41.1708117 C94.0322055,40.8382184 94.6191622,40.1642505 94.8410276,39.3428117 C95.8568921,36.2820316 95.7862554,32.9645768 94.6410276,29.9498117 C94.0170276,28.0848117 92.4090276,24.1688117 90.1600276,23.6788117 C87.9680276,23.2018117 89.1110276,25.2058117 89.8140276,26.6788117 C91.0532989,28.8864409 92.0491379,31.222136 92.7840276,33.6448117 C92.9650276,34.3778117 94.1320276,40.9148117 93.2490276,41.1708117 Z" id="路径_3291" fill="#333333"></path>
                </g>
                <line x1="25.3842754" y1="36.8610537" x2="25.3842754" y2="36.6430537" id="路径_3286"></line>
                <path d="M75.1062754,118.477054 L75.0302754,118.577054 L75.0302754,118.584054 C74.7302754,118.964054 73.6382754,120.384054 72.6302754,121.839054 L47.9102754,121.839054 L47.8802754,121.869054 L47.8802754,121.839054 L39.8202754,121.839054 C39.0292754,120.739054 38.3602754,119.793054 38.1702754,119.519054 C38.1322754,119.466054 38.1092754,119.436054 38.1092754,119.436054 C40.6385262,116.452276 43.3479186,113.625998 46.2222754,110.973054 C47.7229869,110.02813 49.4233153,109.44606 51.1882754,109.273054 C51.7882754,109.501054 57.2172754,115.373054 61.5882754,109.128054 C61.5882754,109.128054 65.9882754,109.136054 68.5462754,111.234054 C70.7562754,113.040054 75.1062754,118.477054 75.1062754,118.477054 Z" id="路径_3292" fill="#71CCBB" fill-rule="nonzero"></path>
                <path d="M44.7442754,112.314054 L46.3952754,110.860054 L47.5522754,116.337054 L45.5952754,116.880054 C45.5952754,116.880054 44.4992754,113.021054 44.7442754,112.314054 Z" id="路径_3293" fill="#365BAD" fill-rule="nonzero"></path>
                <path d="M46.1862754,117.714054 C46.1862754,117.714054 44.6282754,117.750054 45.4622754,116.699054 C46.1682754,116.471054 46.9752754,116.286054 47.4772754,116.180054 C47.8518579,116.094402 48.2414815,116.239872 48.4682754,116.550054 C48.5682754,116.695054 48.6062754,116.844054 48.4682754,116.950054 C47.7353617,117.281132 46.9707912,117.537106 46.1862754,117.714054 L46.1862754,117.714054 Z" id="路径_3294" fill="#098C7A" fill-rule="nonzero"></path>
                <path d="M68.5202754,111.032054 L66.6202754,110.107054 L65.6082754,116.207054 L67.5652754,116.751054 C67.5652754,116.751054 68.7652754,111.743054 68.5202754,111.032054 Z" id="路径_3295" fill="#365BAD" fill-rule="nonzero"></path>
                <path d="M66.9642754,117.714054 C66.9642754,117.714054 68.5222754,117.750054 67.6892754,116.699054 C66.9822754,116.471054 66.1752754,116.286054 65.6732754,116.180054 C65.2986929,116.094402 64.9090693,116.239872 64.6822754,116.550054 C64.5822754,116.695054 64.5452754,116.844054 64.6822754,116.950054 C65.4151916,117.281126 66.1797614,117.537099 66.9642754,117.714054 L66.9642754,117.714054 Z" id="路径_3296" fill="#098C7A" fill-rule="nonzero"></path>
                <path d="M67.2082754,117.841054 C67.2082754,117.841054 67.1002754,118.330054 66.2082754,118.249054 C65.3162754,118.168054 64.8222754,117.487054 65.0082754,117.270054 C65.3631479,117.049602 65.7911401,116.979375 66.1978532,117.074863 C66.6045662,117.170351 66.9565878,117.423708 67.1762754,117.779054 C67.1842754,117.799054 67.1962754,117.820054 67.2082754,117.841054 Z" id="路径_3297" fill="#1AA389" fill-rule="nonzero"></path>
                <path d="M45.5882754,120.097054 L46.4312754,118.330054 L66.7082754,118.330054 C67.064401,118.87041 67.3475209,119.45548 67.5502754,120.070054 C67.5232754,120.396054 45.5882754,120.097054 45.5882754,120.097054 Z" id="路径_3298" fill="#365BAD" fill-rule="nonzero"></path>
                <polygon id="路径_3299" fill="#3174BB" fill-rule="nonzero" points="67.7992754 121.838054 47.9082754 121.838054 47.8782754 121.868054 47.8782754 121.838054 45.1752754 121.838054 45.5932754 120.097054 47.7932754 120.097054 49.7852754 120.089054 64.2322754 120.074054 65.0612754 120.066054 67.5552754 120.066054"></polygon>
                <path d="M45.9422754,117.841054 C45.9422754,117.841054 46.0512754,118.330054 46.9482754,118.249054 C47.8452754,118.168054 48.3342754,117.487054 48.1482754,117.270054 C47.7928098,117.050633 47.3647004,116.981516 46.9582445,117.077925 C46.5517886,117.174334 46.2003274,117.428361 45.9812754,117.784054 C45.9642754,117.802054 45.9532754,117.821054 45.9422754,117.841054 Z" id="路径_3300" fill="#1AA389" fill-rule="nonzero"></path>
                <polygon id="路径_3301" fill="#365BAD" fill-rule="nonzero" points="47.8752754 121.838054 46.9092754 121.838054 46.8332754 120.097054 46.8332754 120.074054 47.7762754 119.922054 47.7842754 120.097054"></polygon>
                <polygon id="路径_3302" fill="#365BAD" fill-rule="nonzero" points="66.0042754 120.069054 65.9432754 121.544054 65.9282754 121.833054 64.9622754 121.833054 65.0152754 120.746054 65.0532754 120.062054 65.0612754 119.918054 65.9612754 120.062054"></polygon>
                <ellipse id="椭圆_463" fill="#3174BB" fill-rule="nonzero" transform="translate(65.936779, 118.564138) rotate(-80.271000) translate(-65.936779, -118.564138) " cx="65.9367786" cy="118.564138" rx="1" ry="1.66"></ellipse>
                <ellipse id="椭圆_464" fill="#3174BB" fill-rule="nonzero" transform="translate(47.118442, 118.563764) rotate(-9.729000) translate(-47.118442, -118.563764) " cx="47.1184419" cy="118.563764" rx="1.747" ry="1"></ellipse>
            </g>
        </g>
    </g>
</svg>