<?xml version="1.0" encoding="UTF-8"?>
<svg width="134px" height="236px" viewBox="0 0 134 236" version="1.1" xmlns="http://www.w3.org/2000/svg" xmlns:xlink="http://www.w3.org/1999/xlink">
    <title>男孩02</title>
    <g id="人教一年级上" stroke="none" stroke-width="1" fill="none" fill-rule="evenodd">
        <g id="第3课练一练第1—4题" transform="translate(-738.000000, -379.000000)">
            <g id="男孩02" transform="translate(738.000000, 379.000000)">
                <g id="手" transform="translate(17.378771, 141.428077)" fill="#FFCBA6" fill-rule="nonzero">
                    <polygon id="路径_3887" points="59.0210485 5.022 74.5830485 19.555 88.9010485 32.925 89.0510485 32.763 89.4960485 32.289 93.7370485 27.742 93.6160485 27.58 76.9510485 5.835"></polygon>
                    <path d="M90.9580485,36.993 C91.0580485,37.068 91.1670485,37.138 91.2770485,37.207 L91.2530485,37.444 L90.8890485,41.176 C90.8483807,41.7917148 91.2932739,42.3330074 91.905209,42.4123421 C92.5171441,42.4916768 93.0853614,42.0817296 93.2030485,41.476 L93.7700485,37.947 C94.0427161,37.9561295 94.3156694,37.942415 94.5860485,37.906 L95.9630485,41.898 C96.1680541,42.5227206 96.8325079,42.8713373 97.4630485,42.685 C97.9596598,42.524948 98.2946472,42.0607453 98.2900485,41.539 C98.2898658,41.4194386 98.2723503,41.3005353 98.2380485,41.186 L97.0520485,36.986 C97.1740485,36.917 97.1520485,36.929 97.2780485,36.859 L100.749049,40.712 C101.173756,41.2151314 101.925917,41.278707 102.429049,40.854 C102.93218,40.429293 102.995756,39.6771314 102.571049,39.174 L99.0310485,34.765 C99.1277547,34.6303616 99.2361769,34.5045383 99.3550485,34.389 L102.755049,36.321 C103.119121,36.5542013 103.580872,36.5721728 103.961968,36.3679737 C104.343064,36.1637745 104.583854,35.7693671 104.591342,35.3370761 C104.59883,34.9047851 104.371844,34.5022751 103.998049,34.285 L100.203049,31.838 C99.8260653,31.5912957 99.5440063,31.2239139 99.4030485,30.796 C99.3772911,30.7036247 99.3462398,30.6128079 99.3100485,30.524 L102.041049,29.489 C102.623541,29.2796749 102.941908,28.6525871 102.767143,28.0588093 C102.592377,27.4650315 101.985063,27.1103974 101.382049,27.25 L97.1930485,28.077 C96.1029713,27.4842804 94.8350379,27.3066489 93.6240485,27.577 C91.4279048,28.0545913 89.7014992,29.7514325 89.1860485,31.939 C89.1184059,32.2081481 89.0758902,32.4829935 89.0590485,32.76 C88.9536861,34.0927061 89.4038993,35.4096884 90.3030485,36.399 C90.5027151,36.6169236 90.7234574,36.8145532 90.9620485,36.989" id="路径_3888"></path>
                    <polygon id="路径_3889" points="10.9970485 26.093 14.1670485 29.807 15.4110485 31.265 15.5560485 31.433 36.1800485 13.719 46.2580485 5.064 33.2330485 0 11.1210485 25.937"></polygon>
                    <path d="M0.127048545,33.747 C0.449641335,34.3108563 1.16235386,34.5156282 1.73504855,34.209 L5.17204855,32.439 C5.28547426,32.5591562 5.38819731,32.688982 5.47904855,32.827 L1.79904855,37.044 C1.51323597,37.3530347 1.41400235,37.7910738 1.53872803,38.1931121 C1.66345372,38.5951504 1.9931899,38.9001087 2.40372813,38.9931122 C2.81426637,39.0861157 3.2432361,38.9530348 3.52904855,38.644 L7.12204855,34.976 C7.24304855,35.051 7.22204855,35.04 7.34104855,35.109 L5.98804855,39.222 C5.78056125,39.8345139 6.09095604,40.5019728 6.69304855,40.738 C7.30924313,40.9503522 7.98227971,40.6320361 8.20904855,40.021 L9.73604855,36.127 C10.0022444,36.1713577 10.2712544,36.196755 10.5410485,36.203 L10.8240485,38.655 L10.9510485,39.72 C10.9867751,40.1308554 11.2389766,40.4914416 11.6126511,40.6659292 C11.9863256,40.8404168 12.4247031,40.802297 12.7626511,40.5659292 C13.100599,40.3295614 13.2867751,39.9308554 13.2510485,39.52 L13.0370485,35.575 C13.4031456,35.3655188 13.7414634,35.1108566 14.0440485,34.817 C14.9722942,33.8733513 15.4685715,32.5875915 15.4150485,31.265 C15.3937231,30.4121705 15.1739077,29.5760504 14.7730485,28.823 C14.4997229,28.3140751 14.1526347,27.8483704 13.7430485,27.441 C13.020925,26.7165129 12.1179962,26.1985804 11.1280485,25.941 C9.94266062,25.6279539 8.68426317,25.7510968 7.58204855,26.288 L3.48204855,25.293 C2.89150367,25.1300082 2.27635136,25.4560239 2.07967866,26.0362216 C1.88300596,26.6164193 2.17311716,27.2492969 2.74104855,27.479 L5.39104855,28.619 C5.35256952,28.705646 5.31917944,28.7944637 5.29104855,28.885 C5.13883609,29.3026797 4.84612086,29.6544329 4.46304855,29.88 L0.611048545,32.148 C0.0470178173,32.4658681 -0.16316607,33.1738559 0.136048545,33.748" id="路径_3890"></path>
                    <polygon id="路径_3891" points="62.1010485 78.82 73.5580485 72.549 73.2470485 66.492 73.1680485 56.184 73.1510485 54.05 73.1510485 53.575 60.8750485 52.625 60.9750485 55.478 61.4110485 67.668 61.4110485 67.685 61.4250485 68.085"></polygon>
                    <polygon id="路径_3892" points="36.8150485 73.411 48.5980485 78.875 48.0570485 67.828 48.0570485 67.816 47.7700485 57.302 47.6470485 52.837 35.4470485 53.898 36.1570485 66.751 36.3110485 69.503"></polygon>
                </g>
                <g id="头" transform="translate(0.000000, -0.000000)">
                    <path d="M117.561819,97.7690766 C121.454819,96.7050766 125.334819,94.6690766 127.084819,91.0300766 C128.834819,87.3910766 128.032819,82.5200766 124.790819,80.1190766 C122.658819,78.5400766 116.312819,78.5400766 113.384819,82.9330766 L111.676819,86.1050766 L111.676819,98.3050766 C113.654902,98.5039176 115.652767,98.3209356 117.561819,97.7660766" id="路径_3893" fill="#FFCBA6" fill-rule="nonzero"></path>
                    <path d="M113.043819,90.6510766 C114.522095,88.4483114 116.803874,86.9116913 119.400819,86.3700766 C121.800819,85.8970766 122.959819,89.3060766 120.856819,90.6800766 C119.325006,91.5495296 117.627069,92.0862043 115.873819,92.2550766 C106.473819,93.6310766 113.043819,90.6550766 113.043819,90.6550766" id="路径_3894" fill="#F17558" fill-rule="nonzero"></path>
                    <path d="M18.4648194,97.8940766 C14.1328194,96.7110766 9.8138194,94.4390766 7.8648194,90.3940766 C5.9158194,86.3490766 6.8098194,80.9210766 10.4188194,78.2480766 C12.7928194,76.4900766 19.8558194,76.4900766 23.1188194,81.3800766 L25.0188194,84.9120766 L25.0188194,98.4950766 C22.8165488,98.7166169 20.592223,98.5129241 18.4668194,97.8950766" id="路径_3895" fill="#FFCBA6" fill-rule="nonzero"></path>
                    <path d="M23.4998194,89.9700766 C21.8535524,87.518549 19.3135388,85.8083378 16.4228194,85.2050766 C13.7558194,84.6780766 12.4618194,88.4730766 14.8028194,90.0050766 C16.5075616,90.9730986 18.3974076,91.5704481 20.3488194,91.7580766 C30.8128194,93.2900766 23.4998194,89.9720766 23.4998194,89.9720766" id="路径_3896" fill="#F17558" fill-rule="nonzero"></path>
                    <line x1="64.9508194" y1="66.1660766" x2="74.1868194" y2="66.7090766" id="直线_55" fill="#FFCBA6" fill-rule="nonzero"></line>
                    <path d="M22.2568194,85.4700766 L22.3568194,86.2040766 L22.9048194,90.0720766 C23.4070577,94.473802 24.6258103,98.7637571 26.5128194,102.772077 L26.5128194,102.777077 C28.9166832,107.939453 32.3736944,112.541988 36.6618194,116.289077 C38.7341293,118.091901 40.9882446,119.674407 43.3878194,121.011077 C49.8324705,124.631976 57.1326143,126.452262 64.5228194,126.281077 L63.8598194,135.170077 L70.9238194,141.690077 L77.9868194,135.170077 L77.6928194,125.982077 C81.4250345,125.47871 85.1040386,124.638617 88.6848194,123.472077 C90.813856,122.780426 92.8995854,121.961962 94.9308194,121.021077 C95.8008194,120.621077 96.6538194,120.19541 97.4898194,119.744077 C104.640819,115.936077 110.659819,110.486077 114.077819,103.293077 C114.164819,103.124077 114.245819,102.950077 114.316819,102.777077 C114.451819,102.492077 114.573819,102.208077 114.697819,101.920077 C114.821819,101.632077 114.950819,101.320077 115.062819,101.009077 L115.217819,100.586077 C116.608354,96.6816087 117.20139,92.5378372 116.961819,88.4000766 C116.624938,82.872207 115.867751,77.3780011 114.696819,71.9650766 C114.696819,71.9650766 112.219819,34.0720766 68.3848194,33.3320766 C68.3848194,33.3360766 17.9308194,28.7560766 22.2568194,85.4700766 Z" id="路径_3897" fill="#FFCBA6" fill-rule="nonzero"></path>
                    <path d="M81.3838194,86.6730766 C83.2432698,93.629957 90.3902261,97.7623257 97.3471605,95.9030772 C104.304095,94.0438288 108.436671,86.8969925 106.577625,79.9400041 C104.718578,72.9830158 97.5718617,68.8502321 90.6148194,70.7090766 C83.6575694,72.5685483 79.5248089,79.7157034 81.3838194,86.6730766" id="路径_3898" fill="#FFFFFF" fill-rule="nonzero"></path>
                    <path d="M37.9088194,86.1290766 C39.7682698,93.085957 46.9152261,97.2183257 53.8721605,95.3590772 C60.8290949,93.4998288 64.961671,86.3529925 63.1026246,79.3960041 C61.2435781,72.4390158 54.0968617,68.3062321 47.1398194,70.1650766 C43.7986712,71.0577944 40.9490346,73.2412855 39.2178631,76.2351562 C37.4866917,79.2290269 37.0158107,82.7880062 37.9088194,86.1290766" id="路径_3899" fill="#FFFFFF" fill-rule="nonzero"></path>
                    <path d="M85.4128194,83.7340766 C86.9112513,89.3406327 92.6709403,92.6709639 98.2775207,91.1726236 C103.884101,89.6742833 107.214527,83.9146487 105.716278,78.3080438 C104.218029,72.7014388 98.4584488,69.3709194 92.8518194,70.8690766 C90.1593038,71.5885484 87.862892,73.3481823 86.4677984,75.7608559 C85.0727048,78.1735295 84.6932157,81.0415962 85.4128194,83.7340766" id="路径_3900" fill="#7C3821" fill-rule="nonzero"></path>
                    <path d="M96.0128194,77.4560766 C96.3960295,78.8878519 97.8672655,79.737975 99.2990997,79.3549854 C100.730934,78.9719959 101.581284,77.5008909 101.198515,76.0689976 C100.815746,74.6371044 99.3447716,73.7865281 97.9128194,74.1690766 C97.2248892,74.3528584 96.6381813,74.8024694 96.281837,75.4189452 C95.9254926,76.0354209 95.8287198,76.7682315 96.0128194,77.4560766" id="路径_3901" fill="#FFFFFF" fill-rule="nonzero"></path>
                    <path d="M86.7898194,86.8040766 C88.7348023,89.7548444 92.032818,91.5302625 95.5669357,91.5290549 C99.1010534,91.5278461 102.397854,89.7501736 104.340819,86.7980766 C102.395837,83.8473088 99.0978208,82.0718908 95.5637031,82.0730983 C92.0295854,82.0743071 88.7327843,83.8519797 86.7898194,86.8040766" id="路径_3902" fill="#9E5036" fill-rule="nonzero"></path>
                    <path d="M26.5168194,102.768077 C26.5168194,102.768077 26.5108194,102.768077 26.5168194,102.774077 C28.9203214,107.936155 32.3762092,112.538897 36.6628194,116.287077 C38.7363339,118.088533 40.9906691,119.670622 43.3898194,121.008077 C48.9048331,118.806614 52.2941962,113.217919 51.697368,107.309822 C51.1005397,101.401725 46.6619338,96.6038013 40.8180574,95.5497994 C34.9741809,94.4957975 29.1390687,97.4407532 26.5158194,102.768077" id="路径_3903" fill="#F59679" fill-rule="nonzero"></path>
                    <path d="M91.4328194,111.740077 C92.3229265,115.101015 94.4987736,117.977242 97.4908194,119.748077 C104.640819,115.940077 110.660819,110.490077 114.077819,103.297077 C114.164819,103.128077 114.246819,102.954077 114.316819,102.780077 C114.468819,102.460077 114.604819,102.139077 114.746819,101.813077 C114.903819,101.433077 115.046819,101.047077 115.190819,100.662077 C111.483827,95.3767854 104.518745,93.5133605 98.667841,96.2415497 C92.8169366,98.9697389 89.7670922,105.502974 91.4328194,111.740077" id="路径_3904" fill="#F59679" fill-rule="nonzero"></path>
                    <path d="M42.0238194,83.1430766 C43.1163787,87.2345632 46.5662838,90.2648465 50.7645068,90.8206092 C54.9627297,91.3763719 59.0822838,89.3481371 61.2018182,85.681869 C63.3213527,82.0156009 63.0233511,77.433499 60.4468007,74.0726455 C57.8702504,70.711792 53.5226929,69.2342242 49.4318194,70.3290766 C46.747258,71.0412196 44.4568236,72.7931461 43.0667339,75.1976561 C41.6766442,77.602166 41.3013582,80.4612736 42.0238194,83.1430766" id="路径_3905" fill="#7C3821" fill-rule="nonzero"></path>
                    <path d="M43.3938194,86.2040766 C45.3320509,89.143927 48.6181488,90.9127033 52.1394355,90.9114958 C55.6607222,90.910287 58.9456057,89.1392563 60.8818194,86.1980766 C58.9439031,83.2577767 55.6576916,81.488632 52.136203,81.4898396 C48.6147144,81.4910484 45.3297177,83.2624476 43.3938194,86.2040766" id="路径_3906" fill="#9E5036" fill-rule="nonzero"></path>
                    <path d="M53.1898194,76.8890766 C53.5712208,78.3163169 55.0373901,79.1641594 56.4646447,78.7828116 C57.8918993,78.4014638 58.7397968,76.9353263 58.3585026,75.5080574 C57.9772083,74.0807885 56.5111026,73.2328359 55.0838194,73.6140766 C54.3983453,73.7971732 53.8136907,74.2450929 53.4584907,74.8592852 C53.1032907,75.4734774 53.0066457,76.2036231 53.1898194,76.8890766" id="路径_3907" fill="#FFFFFF" fill-rule="nonzero"></path>
                    <path d="M59.9998194,107.969077 C61.4114696,111.047624 64.1900551,113.281977 67.4998194,114.000077 C68.2481874,114.160881 69.0113714,114.242662 69.7768194,114.244077 C71.2906788,114.244608 72.7872631,113.922451 74.1668194,113.299077 C74.4388194,113.174077 74.7048194,113.044077 74.9668194,112.899077 C77.5066314,111.499708 79.3692706,109.128912 80.1278194,106.330077 L80.7098194,104.201077 L59.5198194,99.8540766 L59.2048194,101.587077 C58.8089902,103.746721 59.0883337,105.975883 60.0048194,107.971077" id="路径_3908" fill="#DA5257" fill-rule="nonzero"></path>
                    <path d="M59.9998194,107.969077 C61.4114696,111.047624 64.1900551,113.281977 67.4998194,114.000077 C68.2481874,114.160881 69.0113714,114.242662 69.7768194,114.244077 C71.2906788,114.244608 72.7872631,113.922451 74.1668194,113.299077 C74.4388194,113.174077 74.7048194,113.044077 74.9668194,112.899077 C72.6385699,110.847604 69.8352302,109.409501 66.8108194,108.715077 C64.596013,108.105666 62.2979766,107.854492 60.0038194,107.971077" id="路径_3909" fill="#EE706E" fill-rule="nonzero"></path>
                    <path d="M75.7738194,103.181077 L75.7738194,103.181077 C75.6624908,103.747774 75.3301503,104.246843 74.8501949,104.568064 C74.3702394,104.889285 73.7821552,105.006232 73.2158194,104.893077 L65.5288194,103.356077 C64.5135809,103.152215 63.7830352,102.260581 63.7828194,101.225077 L63.7828194,100.725077 L75.7738194,103.181077 Z" id="路径_3910" fill="#FFFFFF" fill-rule="nonzero"></path>
                    <path d="M121.838819,70.3600766 C123.694355,65.1447273 124.954682,59.7364241 125.595819,54.2380766 C125.989446,51.0960001 125.910234,47.912687 125.360819,44.7940766 C125.186819,43.8300766 122.060819,34.2560766 121.601819,34.5630766 C122.662819,33.8560766 121.071819,32.4420766 121.071819,32.4420766 C122.973382,32.8046374 124.911425,32.9389206 126.844819,32.8420766 C129.702693,32.4035169 132.229428,30.7459059 133.769857,28.2990766 C133.792819,28.2610766 123.119819,25.3490766 122.177819,25.0650766 C114.135819,22.6470766 110.069819,14.4650766 103.506819,9.87707663 C95.3588194,4.17707663 85.4618194,1.51107663 75.6748194,0.49807663 C67.0103194,-0.298494272 58.284473,-0.139202302 49.6548194,0.97307663 C48.0638194,0.97307663 30.9178194,5.39207663 28.2658194,11.9330766 C29.0128194,10.0910766 23.8248194,1.54007663 21.5798194,1.62807663 C18.0848194,1.76507663 20.3198194,12.7430766 21.6658194,14.7620766 C20.5258194,15.2080766 17.2818194,13.5390766 16.1658194,13.2260766 C14.1808194,12.6690766 6.7658194,10.1520766 8.3768194,14.3050766 C9.0978194,16.1590766 13.1148194,18.5320766 15.0618194,18.5330766 C15.3308194,18.5330766 15.5208194,18.5640766 15.5618194,18.8330766 C14.2988194,20.6050766 12.1768194,21.5330766 10.5898194,22.9880766 C4.3898194,28.6800766 1.3088194,41.2580766 0.339819405,49.3320766 C-0.354167539,54.4159382 0.017375105,59.5885883 1.4308194,64.5210766 C2.7908194,68.9700766 5.6668194,72.7780766 8.4548194,76.4210766 C10.9878194,79.7330766 13.3088194,84.0690766 16.7128194,86.5550766 C18.7788194,88.0630766 23.9378194,91.2290766 25.9388194,88.2090766 C27.2708194,86.1980766 26.2198194,81.9250766 26.3218194,79.6170766 C26.4388194,76.9700766 26.5328194,74.3170766 26.5608194,71.6700766 C26.5878194,69.0900766 25.5608194,65.6840766 29.3418194,66.1550766 C32.2828194,66.5220766 34.6048194,68.6810766 37.8108194,68.8550766 C44.5288194,69.2090766 50.1858194,58.2490766 48.7708194,54.7130766 C47.3558194,51.1770766 54.4278194,61.4310766 55.8418194,62.4910766 C55.8418194,62.4910766 63.9738194,61.3130766 67.2738194,54.4770766 C69.1588194,56.8340766 75.9058194,65.6770766 80.4138194,62.3140766 C80.4138194,61.0770766 78.8228194,57.1880766 79.1758194,54.8900766 C79.3528194,54.5360766 83.7758194,68.8550766 107.813819,67.2640766 C107.813819,67.2640766 110.995819,67.9710766 112.055819,63.0220766 C112.232819,65.4960766 113.823819,78.0470766 115.237819,78.5780766 C117.111819,79.2780766 120.209819,74.2350766 120.775819,72.9670766 C121.149819,72.1320766 121.499819,71.2600766 121.838819,70.3600766 Z" id="路径_3911" fill="#111111" fill-rule="nonzero"></path>
                    <path d="M95.4438194,65.5050766 L101.961819,67.3280766 C102.533103,67.4713449 103.114566,67.133566 103.273109,66.5663316 C103.431653,65.9990972 103.109596,65.4087818 102.546819,65.2350766 L96.0288194,63.4120766 C95.4575356,63.2688084 94.8760732,63.6065872 94.7175294,64.1738217 C94.5589856,64.7410561 94.8810428,65.3313715 95.4438194,65.5050766" id="路径_3912" fill="#333333" fill-rule="nonzero"></path>
                    <path d="M46.1068194,66.1920766 L52.6538194,64.4770766 C53.0404694,64.3892663 53.3485338,64.0977178 53.4574947,63.7164876 C53.5664557,63.3352575 53.458993,62.9249455 53.1771471,62.6460696 C52.8953012,62.3671936 52.4838739,62.2640834 52.1038194,62.3770766 L45.5558194,64.0920766 C45.0046553,64.2676617 44.6875505,64.844143 44.8343572,65.4036605 C44.981164,65.963178 45.5404501,66.3097111 46.1068194,66.1920766" id="路径_3913" fill="#333333" fill-rule="nonzero"></path>
                    <line x1="112.870819" y1="36.4810766" x2="112.870819" y2="36.1860766" id="路径_3914"></line>
                    <path d="M116.642819,44.1980766 C116.756819,44.7340766 116.742819,45.4820766 116.207819,45.6070766 C115.761819,45.7120766 115.407819,45.2510766 115.179819,44.8520766 C113.778558,42.1167905 112.138877,39.5103671 110.279819,37.0630766 C108.572819,34.9890766 105.318819,33.6810766 104.015819,31.7220766 C111.116819,27.2280766 115.638819,39.4970766 116.642819,44.1980766 Z" id="路径_3915" fill="#333333" fill-rule="nonzero"></path>
                    <path d="M102.747819,25.1870766 C93.0598194,17.3580766 82.0048194,10.5510766 69.6708194,8.81407663 C68.4018194,8.63507663 66.9218194,8.37707663 66.3358194,7.23807663 C72.9288194,4.88607663 81.0788194,7.43807663 87.1078194,10.4000766 C90.4282558,12.0283258 93.4831744,14.1496754 96.1688194,16.6920766 C98.6418194,19.0360766 100.270819,23.1850766 102.747819,25.1870766 Z" id="路径_3916" fill="#333333" fill-rule="nonzero"></path>
                    <path d="M73.3788194,54.0290766 C71.8558194,52.0590766 69.4788194,50.6990766 67.8788194,48.7290766 C65.9388194,46.3430766 62.8088194,42.3720766 64.2698194,39.0830766 C66.6428194,39.5730766 68.3868194,44.5710766 69.1828194,46.6380766 C70.2160202,49.29202 71.6294602,51.781709 73.3788194,54.0290766 L73.3788194,54.0290766 Z" id="路径_3917" fill="#333333" fill-rule="nonzero"></path>
                    <path d="M47.8168194,48.2820766 C47.7168194,47.8190766 45.3098194,46.6530766 44.8488194,46.3000766 C43.7096591,45.4502473 42.6673962,44.4777368 41.7408194,43.4000766 C40.1688194,41.5280766 38.2948194,38.9540766 38.7808194,36.3650766 C42.9718194,36.2840766 47.0488194,44.8870766 47.8168194,48.2820766 Z" id="路径_3918" fill="#333333" fill-rule="nonzero"></path>
                    <path d="M7.0878194,55.9460766 C6.02301649,55.494722 5.2249906,54.5786885 4.9238194,53.4620766 C3.3618194,49.4120766 3.8128194,44.8180766 5.1898194,40.7010766 C6.0368194,38.1680766 8.2208194,32.8470766 11.2768194,32.1820766 C14.2548194,31.5340766 12.7018194,34.2560766 11.7468194,36.2600766 C10.2318194,39.4410766 8.5468194,42.2370766 7.7118194,45.7240766 C7.4728194,46.7210766 5.8868194,55.6050766 7.0878194,55.9460766 Z" id="路径_3919" fill="#333333" fill-rule="nonzero"></path>
                </g>
                <path d="M89.2378194,178.084077 L89.8288194,193.643077 C89.8288194,193.643077 76.7288194,195.021077 74.1718194,194.233077 L71.7098194,188.621077 C71.7098194,188.621077 67.5738194,194.431077 67.1798194,194.530077 C66.7858194,194.629077 55.2648194,194.630077 53.4928194,192.757077 C51.7208194,190.884077 54.6738194,177.888077 54.6738194,177.888077 C54.6738194,177.888077 89.3358194,177.296077 89.2378194,178.084077 Z" id="路径_3920" fill="#EA764D" fill-rule="nonzero"></path>
                <path d="M91.1578194,177.542077 C71.9578194,185.519077 52.6058194,177.395077 52.6058194,177.395077 L55.4128194,154.131077 L51.3258194,156.912077 C51.7198194,155.534077 45.3188194,147.361077 45.3188194,147.361077 C45.3188194,147.361077 51.2278194,139.975077 54.2308194,137.513077 C57.7048194,134.666077 63.6838194,134.658077 63.6838194,134.658077 C69.6248194,143.144077 76.9998194,135.165077 77.8148194,134.858077 C78.2858194,134.678077 82.5418194,135.695077 84.5608194,137.172077 C86.8358194,138.837077 95.7858194,148.672077 95.5888194,148.672077 C95.5888194,148.672077 89.2628194,157.732077 88.5238194,157.732077 C87.7848194,157.732077 84.9298194,154.332077 84.9298194,154.332077 L91.1578194,177.542077 Z" id="路径_3921" fill="#71CCBB" fill-rule="nonzero"></path>
                <path d="M86.5698194,138.990077 L84.3268194,137.015077 L82.7538194,144.456077 L85.4128194,145.194077 C85.4128194,145.194077 86.8998194,139.951077 86.5698194,138.990077 Z" id="路径_3922" fill="#365BAD" fill-rule="nonzero"></path>
                <path d="M84.6098194,146.327077 C84.6098194,146.327077 86.7268194,146.376077 85.5938194,144.948077 C84.6338194,144.638077 83.5378194,144.387077 82.8568194,144.243077 C82.3481401,144.123935 81.8175581,144.320884 81.5098194,144.743077 C81.3738194,144.943077 81.3228194,145.143077 81.5098194,145.290077 C82.5052262,145.740195 83.5439299,146.087658 84.6098194,146.327077 Z" id="路径_3923" fill="#098C7A" fill-rule="nonzero"></path>
                <path d="M54.2678194,137.255077 L56.8528194,135.999077 L58.2278194,144.283077 L55.5698194,145.021077 C55.5698194,145.021077 53.9358194,138.215077 54.2678194,137.255077 Z" id="路径_3924" fill="#365BAD" fill-rule="nonzero"></path>
                <path d="M56.3818194,146.327077 C56.3818194,146.327077 54.2648194,146.376077 55.3968194,144.948077 C56.3568194,144.638077 57.4538194,144.387077 58.1348194,144.243077 C58.6434987,144.123935 59.1740807,144.320884 59.4818194,144.743077 C59.6178194,144.943077 59.6688194,145.143077 59.4818194,145.290077 C58.4864126,145.740195 57.4477089,146.087658 56.3818194,146.327077 L56.3818194,146.327077 Z" id="路径_3925" fill="#098C7A" fill-rule="nonzero"></path>
                <path d="M56.0498194,146.499077 C56.0498194,146.499077 56.1968194,147.164077 57.4158194,147.053077 C58.6348194,146.942077 59.2998194,146.021077 59.0408194,145.721077 C58.5441923,145.414657 57.9439341,145.324443 57.3791763,145.471344 C56.8144186,145.618245 56.3341967,145.989507 56.0498194,146.499077 L56.0498194,146.499077 Z" id="路径_3926" fill="#1AA389" fill-rule="nonzero"></path>
                <path d="M85.4218194,149.564077 L84.2768194,147.164077 L56.7298194,147.164077 C56.2466548,147.898393 55.8617164,148.692812 55.5848194,149.527077 C55.6218194,149.970077 85.4218194,149.564077 85.4218194,149.564077 Z" id="路径_3927" fill="#365BAD" fill-rule="nonzero"></path>
                <path d="M91.2568194,173.798077 L85.4218194,149.566077 L55.5848194,149.527077 L52.2618194,173.103077 C52.2618194,173.103077 78.9228194,175.344077 91.2568194,173.798077 Z" id="路径_3928" fill="#3174BB" fill-rule="nonzero"></path>
                <path d="M91.2568194,172.721077 C91.2568194,172.721077 92.0688194,178.186077 92.5118194,183.799077 C92.5118194,183.799077 93.9888194,191.628077 93.6198194,191.923077 C93.2508194,192.218077 80.3258194,195.838077 76.1898194,193.696077 C72.0538194,191.554077 73.5318194,192.071077 73.5318194,192.071077 L71.8318194,187.787077 L71.3888194,191.849077 C71.3888194,191.849077 65.0368194,195.099077 59.6458194,194.804077 C56.7052905,194.632437 53.783074,194.227159 50.9068194,193.592077 C50.5883171,193.528471 50.3744442,193.227822 50.4188194,192.906077 L50.4978194,192.344077 C50.5208719,192.19259 50.4850927,192.038025 50.3978194,191.912077 C50.0828194,191.466077 49.3898194,189.796077 50.3348194,184.242077 C51.5008194,177.397077 51.0738194,174.642077 52.2558194,172.057074 C52.2618194,172.053077 61.9608194,176.238077 91.2568194,172.721077 Z" id="路径_3929" fill="#365BAD" fill-rule="nonzero"></path>
                <path d="M93.8908194,191.932077 L94.0658194,192.418077 C94.2643076,192.965165 94.2108684,193.572006 93.9198219,194.075985 C93.6287753,194.579964 93.1298782,194.929555 92.5568194,195.031077 C88.0778194,195.823077 80.3358194,197.206077 76.4568194,194.960077 C73.3568194,193.560077 73.5028194,193.483077 73.4288194,193.187077 C73.3548194,192.891077 73.0598194,190.898077 73.0598194,190.898077 C73.0598194,190.898077 76.6088194,195.255077 93.8908194,191.932077 Z" id="路径_3930" fill="#3174BB" fill-rule="nonzero"></path>
                <path d="M71.3898194,191.845077 L71.7528194,194.507077 C71.7998419,194.842391 71.5827629,195.158024 71.2528194,195.234077 C68.0058194,195.992077 54.7268194,199.427077 50.5028194,194.610077 C50.4416972,194.541583 50.3959999,194.460761 50.3688194,194.373077 C50.2223692,193.717229 50.2489033,193.034578 50.4458194,192.392077 C50.4899071,192.213081 50.6138303,192.064288 50.7818984,191.98855 C50.9499665,191.912812 51.1435219,191.918537 51.3068194,192.004077 C53.0998194,192.932077 58.3378194,195.078077 71.3898194,191.845077 Z" id="路径_3931" fill="#3174BB" fill-rule="nonzero"></path>
                <path d="M91.3998194,174.736077 C90.6258194,176.444077 87.3888194,182.464077 92.3998194,183.795077 C92.5268194,184.608077 92.6538194,185.642077 92.6538194,185.642077 C92.6538194,185.642077 87.0668194,182.761077 88.3358194,176.927077 C88.4628194,176.779077 91.3488194,173.136077 91.3488194,173.136077 L91.2748194,173.530077 C91.4826621,173.897113 91.5279671,174.334215 91.3998194,174.736077 Z" id="路径_3932" fill="#4E70B8" fill-rule="nonzero"></path>
                <path d="M51.9908194,183.306077 C53.5908194,182.374077 54.6678194,180.541077 54.3098194,177.739077 C53.7089392,175.94331 52.9662669,174.198147 52.0888194,172.520077 L51.5718194,174.220077 C51.5718194,174.220077 55.6478194,179.054077 50.6458194,182.409077 C50.4538194,182.538077 50.5018194,182.698077 50.5258194,182.873077 C50.5258194,182.879077 50.5008194,183.028077 50.5008194,183.033077 C50.5678194,183.536077 51.3998194,183.650077 51.9908194,183.306077 Z" id="路径_3933" fill="#4E70B8" fill-rule="nonzero"></path>
                <ellipse id="椭圆_627" stroke="#3174BB" transform="translate(57.711750, 147.481019) rotate(-9.729000) translate(-57.711750, -147.481019) " cx="57.7117505" cy="147.481019" rx="1.368" ry="1"></ellipse>
                <path d="M84.9418194,146.499077 C84.9418194,146.499077 84.7938194,147.164077 83.5758194,147.053077 C82.3578194,146.942077 81.6928194,146.019077 81.9508194,145.724077 C82.4470755,145.417417 83.0470511,145.326746 83.6117634,145.473069 C84.1764758,145.619392 84.6569261,145.990013 84.9418194,146.499077 L84.9418194,146.499077 Z" id="路径_3934" fill="#1AA389" fill-rule="nonzero"></path>
                <ellipse id="椭圆_628" stroke="#3174BB" transform="translate(83.278750, 147.481134) rotate(-80.271000) translate(-83.278750, -147.481134) " cx="83.2787505" cy="147.481134" rx="1" ry="1.368"></ellipse>
                <path d="M76.2398194,155.337077 C76.2398194,155.337077 65.6048194,154.746077 64.6198194,155.437077 C63.6348194,156.128077 64.1278194,161.637077 64.3198194,162.823077 C64.5118194,164.009077 73.3798194,165.777077 75.8418194,162.429077 C78.3038194,159.081077 76.2398194,155.337077 76.2398194,155.337077 Z" id="路径_3935" fill="#FFFFFF" fill-rule="nonzero"></path>
                <path d="M76.2398194,155.337077 C76.9930524,155.916287 77.3703348,156.86026 77.2238194,157.799077 C76.8298194,159.177077 63.9308194,159.177077 63.9308194,158.291077 C63.9308194,157.405077 64.2258194,155.731077 64.6198194,155.435077 C65.0138194,155.139077 73.4818194,154.057077 76.2398194,155.337077 Z" id="路径_3936" fill="#D2EAFF" fill-rule="nonzero"></path>
                <polygon id="路径_3937" fill="#365BAD" fill-rule="nonzero" points="83.7228194 149.533077 82.7378194 173.406077 81.2238194 173.330077 82.4428194 149.330077"></polygon>
                <polygon id="路径_3938" fill="#365BAD" fill-rule="nonzero" points="57.6898194 149.533077 58.6748194 173.406077 60.1888194 173.330077 58.9698194 149.330077"></polygon>
                <path d="M91.5998194,174.145077 C91.5998194,174.145077 63.8308194,176.705077 52.1128194,173.456077 C52.0128194,172.373077 52.7278194,172.126077 52.7278194,172.126077 C52.7278194,172.126077 61.6148194,175.031077 91.3788194,172.446077 C92.1918194,172.742077 91.6748194,174.108077 91.5998194,174.145077 Z" id="路径_3939" fill="#29529B" fill-rule="nonzero"></path>
                <path d="M65.6778194,214.181077 C61.8544821,214.94677 57.9236291,215.00946 54.0778194,214.366077 C54.0548194,214.478077 53.7078194,223.089077 53.7078194,223.089077 C53.7078194,223.089077 65.1338194,223.137077 65.9128194,222.483077 C66.6918194,221.829077 65.6778194,214.181077 65.6778194,214.181077 Z" id="路径_3940" fill="#E6EFFF" fill-rule="nonzero"></path>
                <path d="M67.2248194,224.168077 C67.1952871,225.312069 66.8626269,226.427723 66.2608194,227.401077 C64.6138194,230.073077 62.0298194,231.585077 59.2878194,232.961077 C57.260109,234.11144 55.0387538,234.880475 52.7338194,235.230077 C50.0968238,235.478798 47.468181,234.677089 45.4188194,232.999077 C42.7498194,230.454077 45.5608194,226.792077 47.3698194,224.618077 C49.0999409,222.453246 51.3866751,220.80016 53.9848194,219.836077 C60.2848194,217.670077 60.6848194,222.593077 60.6848194,222.593077 C60.6848194,222.593077 66.0518194,222.003077 66.0518194,220.893077 C66.0518194,219.783077 66.0888194,218.793077 66.0888194,218.788077 C66.0418194,220.037077 66.7378194,221.181077 67.0308194,222.365077 C67.1763135,222.954611 67.2415692,223.561085 67.2248194,224.168077 L67.2248194,224.168077 Z" id="路径_3941" fill="#365BAD" fill-rule="nonzero"></path>
                <path d="M91.0098194,213.963077 C91.0098194,213.963077 84.4368194,215.104077 79.0458194,213.879077 C79.0208194,213.992077 77.9378194,221.744077 77.9378194,221.744077 C77.9378194,221.744077 89.8288194,223.435077 90.6168194,222.776077 C91.4048194,222.117077 91.0098194,213.963077 91.0098194,213.963077 Z" id="路径_3942" fill="#E6EFFF" fill-rule="nonzero"></path>
                <path d="M50.1468194,222.199077 C50.1468194,222.199077 57.0398194,221.412077 59.0088194,225.154077 C59.3088194,225.254077 57.4338194,225.449077 57.4338194,225.941077 C57.4338194,226.433077 51.2548194,222.532077 48.2758194,223.603077 C48.7559664,223.096932 49.2698064,222.623852 49.8138194,222.187077 C49.92414,222.202188 50.0356972,222.206208 50.1468194,222.199077 L50.1468194,222.199077 Z" id="路径_3943" fill="#FFFFFF" fill-rule="nonzero"></path>
                <path d="M47.6108194,224.329077 C47.6108194,224.329077 52.2638194,224.070077 55.1808194,226.508077 C54.5528194,226.692077 53.2608194,227.508077 53.2978194,227.763077 C53.3348194,228.018077 48.7558194,225.523077 46.2978194,226.003077 C46.7063046,225.422792 47.1445578,224.864044 47.6108194,224.329077 L47.6108194,224.329077 Z" id="路径_3944" fill="#FFFFFF" fill-rule="nonzero"></path>
                <path d="M90.9998194,214.654077 C88.9595245,215.184008 86.8463863,215.377217 84.7438194,215.226077 C82.8296459,215.315071 80.9122349,215.144522 79.0438194,214.719077 L79.0688194,213.829077 C81.2688194,214.519077 85.4448194,214.605077 90.9528194,213.983077 L90.9998194,214.654077 Z" id="路径_3945" fill="#3174BB" fill-rule="nonzero"></path>
                <path d="M90.9998194,215.910077 C88.9594352,216.439496 86.8463812,216.632697 84.7438194,216.482077 C82.8295897,216.57126 80.9121084,216.400369 79.0438194,215.974077 L79.0688194,215.085077 C81.2688194,215.774077 85.4448194,215.860077 90.9528194,215.239077 L90.9998194,215.910077 Z" id="路径_3946" fill="#365BAD" fill-rule="nonzero"></path>
                <path d="M65.7248194,214.746077 C63.7139803,215.270777 61.6299797,215.457989 59.5578194,215.300077 C57.7110662,215.397713 55.8597403,215.236143 54.0578194,214.820077 L54.0848194,213.980077 C56.2848194,214.669077 60.1848194,214.666077 65.6848194,214.045077 L65.7248194,214.746077 Z" id="路径_3947" fill="#3174BB" fill-rule="nonzero"></path>
                <path d="M65.7888194,215.993077 C63.7565457,216.520013 61.6516302,216.710202 59.5578194,216.556077 C57.6889024,216.653221 55.8155248,216.491694 53.9908194,216.076077 L54.0368194,215.176077 C56.2368194,215.866077 60.2438194,215.927077 65.7518194,215.305077 L65.7888194,215.993077 Z" id="路径_3948" fill="#3174BB" fill-rule="nonzero"></path>
                <path d="M77.2438194,223.856077 C77.6811822,227.264033 79.8033327,230.223469 82.8908194,231.731077 C87.4838194,234.224077 95.1268194,237.596077 99.5118194,232.720077 C101.150819,230.899077 98.9928194,227.520077 97.9118194,225.920077 C96.1896122,223.263387 93.7021216,221.191524 90.7778194,219.978077 C84.5518194,217.601077 83.9928194,222.509077 83.9928194,222.509077 C83.9928194,222.509077 78.6488194,221.738077 78.6858194,220.631077 C78.6831588,219.783655 78.5947077,218.938679 78.4218194,218.109077 C78.4218194,218.109077 77.3388194,223.221077 77.2438194,223.856077 Z" id="路径_3949" fill="#365BAD" fill-rule="nonzero"></path>
                <path d="M94.1618194,222.199077 C94.1618194,222.199077 87.2678194,221.412077 85.2988194,225.154077 C85.0038194,225.254077 86.8748194,225.449077 86.8748194,225.941077 C86.8748194,226.433077 93.0538194,222.532077 96.0328194,223.603077 C95.552083,223.09717 95.037927,222.624107 94.4938194,222.187077 C94.3838342,222.202188 94.2726086,222.206209 94.1618194,222.199077 L94.1618194,222.199077 Z" id="路径_3950" fill="#FFFFFF" fill-rule="nonzero"></path>
                <path d="M96.6998194,224.329077 C96.6998194,224.329077 92.0468194,224.070077 89.1298194,226.508077 C89.7578194,226.692077 91.0498194,227.508077 91.0128194,227.763077 C90.9758194,228.018077 95.5548194,225.523077 98.0128194,226.003077 C97.6043313,225.422794 97.1660782,224.864047 96.6998194,224.329077 L96.6998194,224.329077 Z" id="路径_3951" fill="#FFFFFF" fill-rule="nonzero"></path>
            </g>
        </g>
    </g>
</svg>