<svg xmlns="http://www.w3.org/2000/svg" width="75.218" height="75.218" viewBox="0 0 75.218 75.218">
  <defs>
    <style>
      .cls-1 {
        fill: #ccd9ff;
      }

      .cls-2 {
        fill: #8ca6fd;
      }

      .cls-3 {
        fill: #fff;
      }
    </style>
  </defs>
  <g id="组_4731" data-name="组 4731" transform="translate(-863.829 -1162.609)">
    <g id="组_4729" data-name="组 4729">
      <rect id="矩形_2172" data-name="矩形 2172" class="cls-1" width="75.218" height="75.218" rx="5.5" transform="translate(863.829 1162.609)"/>
      <rect id="矩形_2173" data-name="矩形 2173" class="cls-2" width="61.133" height="61.133" rx="4.47" transform="translate(870.872 1169.652)"/>
    </g>
    <g id="组_4730" data-name="组 4730">
      <path id="路径_11650" data-name="路径 11650" class="cls-3" d="M905.992,1198a18.4,18.4,0,0,1,4.86,4.787,9.508,9.508,0,0,1,1.36,5.08,8.878,8.878,0,0,1-3.024,6.794,11.671,11.671,0,0,1-8.215,2.779q-4.92,0-7.614-2.424a7.67,7.67,0,0,1-2.694-5.925,7.417,7.417,0,0,1,1.556-4.676,13.638,13.638,0,0,1,5.178-3.673,20.334,20.334,0,0,1-5.056-4.921,8.632,8.632,0,0,1-1.114-4.432,7.678,7.678,0,0,1,2.827-5.864,11.2,11.2,0,0,1,7.75-2.534q4.75,0,7.308,2.241a6.9,6.9,0,0,1,2.558,5.374,6.623,6.623,0,0,1-1.382,4.15A12.087,12.087,0,0,1,905.992,1198Zm-6.757,3.917a5.353,5.353,0,0,0-1.078,1.249,9.83,9.83,0,0,0-.881,2.5,14.727,14.727,0,0,0-.391,3.428,11,11,0,0,0,.587,3.856,4.334,4.334,0,0,0,1.677,2.24,4.15,4.15,0,0,0,2.241.686,3.959,3.959,0,0,0,3.011-1.31,5.046,5.046,0,0,0,1.224-3.587Q905.625,1206.23,899.235,1201.92Zm4.9-5.166a8.576,8.576,0,0,0,1.346-2.742,11.9,11.9,0,0,0,.441-3.33,7.565,7.565,0,0,0-1.371-4.872,3.422,3.422,0,0,0-2.84-1.3,3.74,3.74,0,0,0-2.791,1.188,4.07,4.07,0,0,0-1.151,2.95,6.7,6.7,0,0,0,1.285,3.709A18.028,18.028,0,0,0,904.132,1196.754Z"/>
    </g>
  </g>
</svg>
