<svg xmlns="http://www.w3.org/2000/svg" width="81.218" height="81.218" viewBox="0 0 81.218 81.218">
  <defs>
    <style>
      .cls-1, .cls-3 {
        fill: #fff;
      }

      .cls-1 {
        stroke: #fff;
        stroke-linecap: round;
        stroke-linejoin: round;
        stroke-width: 3px;
      }

      .cls-2 {
        fill: #8ca6fd;
      }

      .cls-4 {
        stroke: none;
      }

      .cls-5 {
        fill: none;
      }
    </style>
  </defs>
  <g id="组_4750" data-name="组 4750" transform="translate(-369.48 -1297.521)">
    <g id="矩形_2182" data-name="矩形 2182" class="cls-1" transform="translate(372.48 1300.521)">
      <rect class="cls-4" width="75.218" height="75.218" rx="5.5"/>
      <rect class="cls-5" x="-1.5" y="-1.5" width="78.218" height="78.218" rx="7"/>
    </g>
    <g id="组_4749" data-name="组 4749">
      <g id="组_4747" data-name="组 4747">
        <rect id="矩形_2183" data-name="矩形 2183" class="cls-2" width="61.133" height="61.133" rx="4.47" transform="translate(379.523 1307.563)"/>
      </g>
      <g id="组_4748" data-name="组 4748">
        <path id="路径_11655" data-name="路径 11655" class="cls-3" d="M406.012,1338.069v-.857a16.069,16.069,0,0,0,3.869-1.506,5.739,5.739,0,0,0,1.86-2.13,5.991,5.991,0,0,0,.783-2.9,4.72,4.72,0,0,0-1.48-3.488,5.05,5.05,0,0,0-3.686-1.457q-3.428,0-5.826,3.624l-.906-.319a14.711,14.711,0,0,1,4.517-6.145,10.007,10.007,0,0,1,6.133-2.057,7.978,7.978,0,0,1,5.692,2.106,6.553,6.553,0,0,1,2.241,4.921,6.686,6.686,0,0,1-1.041,3.538,9.044,9.044,0,0,1-3.268,3,11.577,11.577,0,0,1,4.37,3.44,8.417,8.417,0,0,1,1.506,5.13,11.824,11.824,0,0,1-3.758,8.826q-3.759,3.636-10.076,3.636-4.21,0-6.145-1.4a2.961,2.961,0,0,1-1.395-2.522,2.736,2.736,0,0,1,2.668-2.717,3.45,3.45,0,0,1,1.518.342,31.3,31.3,0,0,1,2.779,2.143,7.278,7.278,0,0,0,4.469,1.946,4.053,4.053,0,0,0,3.109-1.432,5.21,5.21,0,0,0,1.3-3.636,9.466,9.466,0,0,0-2.351-6.182A12.32,12.32,0,0,0,406.012,1338.069Z"/>
      </g>
    </g>
  </g>
</svg>
