<svg xmlns="http://www.w3.org/2000/svg" width="81.218" height="81.218" viewBox="0 0 81.218 81.218">
  <defs>
    <style>
      .cls-1, .cls-3 {
        fill: #fff;
      }

      .cls-1 {
        stroke: #fff;
        stroke-linecap: round;
        stroke-linejoin: round;
        stroke-width: 3px;
      }

      .cls-2 {
        fill: #8ca6fd;
      }

      .cls-4 {
        stroke: none;
      }

      .cls-5 {
        fill: none;
      }
    </style>
  </defs>
  <g id="组_4742" data-name="组 4742" transform="translate(-172.94 -1297.521)">
    <g id="矩形_2178" data-name="矩形 2178" class="cls-1" transform="translate(175.94 1300.521)">
      <rect class="cls-4" width="75.218" height="75.218" rx="5.5"/>
      <rect class="cls-5" x="-1.5" y="-1.5" width="78.218" height="78.218" rx="7"/>
    </g>
    <g id="组_4741" data-name="组 4741">
      <g id="组_4739" data-name="组 4739">
        <rect id="矩形_2179" data-name="矩形 2179" class="cls-2" width="61.133" height="61.133" rx="4.47" transform="translate(182.983 1307.563)"/>
      </g>
      <g id="组_4740" data-name="组 4740">
        <path id="路径_11653" data-name="路径 11653" class="cls-3" d="M217.613,1321.187v27.153a16.787,16.787,0,0,0,.27,3.905,2.523,2.523,0,0,0,1.126,1.383,5.316,5.316,0,0,0,2.742.539h.759v.906H205.029v-.906h.881a6.817,6.817,0,0,0,3.036-.49,2.507,2.507,0,0,0,1.224-1.347,14.88,14.88,0,0,0,.319-3.99v-17.212a10.851,10.851,0,0,0-.221-2.877,2.088,2.088,0,0,0-.82-.98,2.419,2.419,0,0,0-1.383-.4,7.854,7.854,0,0,0-3.036.783l-.441-.881,12.217-5.583Z"/>
      </g>
    </g>
  </g>
</svg>
