<svg xmlns="http://www.w3.org/2000/svg" width="81.218" height="81.218" viewBox="0 0 81.218 81.218">
  <defs>
    <style>
      .cls-1, .cls-3 {
        fill: #fff;
      }

      .cls-1 {
        stroke: #fff;
        stroke-linecap: round;
        stroke-linejoin: round;
        stroke-width: 3px;
      }

      .cls-2 {
        fill: #8ca6fd;
      }

      .cls-4 {
        stroke: none;
      }

      .cls-5 {
        fill: none;
      }
    </style>
  </defs>
  <g id="组_5273" data-name="组 5273" transform="translate(-1469.297 -49.719)">
    <g id="矩形_2645" data-name="矩形 2645" class="cls-1" transform="translate(1472.297 52.719)">
      <rect class="cls-4" width="75.218" height="75.218" rx="5.5"/>
      <rect class="cls-5" x="-1.5" y="-1.5" width="78.218" height="78.218" rx="7"/>
    </g>
    <g id="组_5269" data-name="组 5269">
      <rect id="矩形_2646" data-name="矩形 2646" class="cls-2" width="61.133" height="61.133" rx="4.47" transform="translate(1479.34 59.761)"/>
    </g>
    <g id="组_5272" data-name="组 5272">
      <g id="组_5270" data-name="组 5270">
        <path id="路径_13520" data-name="路径 13520" class="cls-3" d="M1504.278,74.895V99.628a15.307,15.307,0,0,0,.245,3.557,2.3,2.3,0,0,0,1.026,1.26,4.855,4.855,0,0,0,2.5.491h.692v.825h-15.924v-.825h.8a6.222,6.222,0,0,0,2.765-.446,2.288,2.288,0,0,0,1.115-1.227,13.531,13.531,0,0,0,.29-3.635V83.95a9.89,9.89,0,0,0-.2-2.621,1.9,1.9,0,0,0-.747-.892,2.2,2.2,0,0,0-1.26-.368,7.15,7.15,0,0,0-2.765.714l-.4-.8,11.128-5.085Z"/>
      </g>
      <g id="组_5271" data-name="组 5271">
        <path id="路径_13521" data-name="路径 13521" class="cls-3" d="M1522.939,74.895V99.628a15.307,15.307,0,0,0,.245,3.557,2.3,2.3,0,0,0,1.026,1.26,4.853,4.853,0,0,0,2.5.491h.691v.825h-15.923v-.825h.8a6.224,6.224,0,0,0,2.765-.446,2.292,2.292,0,0,0,1.115-1.227,13.574,13.574,0,0,0,.29-3.635V83.95a9.89,9.89,0,0,0-.2-2.621,1.9,1.9,0,0,0-.747-.892,2.208,2.208,0,0,0-1.26-.368,7.146,7.146,0,0,0-2.765.714l-.4-.8,11.129-5.085Z"/>
      </g>
    </g>
  </g>
</svg>
