<svg xmlns="http://www.w3.org/2000/svg" width="81.218" height="81.218" viewBox="0 0 81.218 81.218">
  <defs>
    <style>
      .cls-1, .cls-3 {
        fill: #fff;
      }

      .cls-1 {
        stroke: #fff;
        stroke-linecap: round;
        stroke-linejoin: round;
        stroke-width: 3px;
      }

      .cls-2 {
        fill: #8ca6fd;
      }

      .cls-4 {
        stroke: none;
      }

      .cls-5 {
        fill: none;
      }
    </style>
  </defs>
  <g id="组_4746" data-name="组 4746" transform="translate(-271.21 -1297.521)">
    <g id="矩形_2180" data-name="矩形 2180" class="cls-1" transform="translate(274.21 1300.521)">
      <rect class="cls-4" width="75.218" height="75.218" rx="5.5"/>
      <rect class="cls-5" x="-1.5" y="-1.5" width="78.218" height="78.218" rx="7"/>
    </g>
    <g id="组_4745" data-name="组 4745">
      <g id="组_4743" data-name="组 4743">
        <rect id="矩形_2181" data-name="矩形 2181" class="cls-2" width="61.133" height="61.133" rx="4.47" transform="translate(281.253 1307.563)"/>
      </g>
      <g id="组_4744" data-name="组 4744">
        <path id="路径_11654" data-name="路径 11654" class="cls-3" d="M320.658,1355.073H301.12v-.539q8.984-10.7,10.907-14.4a15.6,15.6,0,0,0,1.922-7.223,6.005,6.005,0,0,0-1.592-4.272,5.122,5.122,0,0,0-3.892-1.7q-3.771,0-5.852,3.77l-.9-.318a13.566,13.566,0,0,1,4.014-6.953,9.411,9.411,0,0,1,6.22-2.253,9.207,9.207,0,0,1,4.6,1.175,8.513,8.513,0,0,1,3.256,3.22,7.757,7.757,0,0,1,1.175,3.832,13.834,13.834,0,0,1-1.812,6.61q-2.473,4.531-10.8,12.634h7.173a16.465,16.465,0,0,0,3.441-.22,2.857,2.857,0,0,0,1.31-.747,9.712,9.712,0,0,0,1.346-2.216h.881Z"/>
      </g>
    </g>
  </g>
</svg>
