<svg xmlns="http://www.w3.org/2000/svg" width="75.218" height="75.218" viewBox="0 0 75.218 75.218">
  <defs>
    <style>
      .cls-1 {
        fill: #ccd9ff;
      }

      .cls-2 {
        fill: #8ca6fd;
      }

      .cls-3 {
        fill: #fff;
      }
    </style>
  </defs>
  <g id="组_5263" data-name="组 5263" transform="translate(-2258.457 250.281)">
    <g id="组_5259" data-name="组 5259">
      <rect id="矩形_2641" data-name="矩形 2641" class="cls-1" width="75.218" height="75.218" rx="5.5" transform="translate(2258.457 -250.281)"/>
      <rect id="矩形_2642" data-name="矩形 2642" class="cls-2" width="61.133" height="61.133" rx="4.47" transform="translate(2265.499 -243.239)"/>
    </g>
    <g id="组_5262" data-name="组 5262">
      <g id="组_5260" data-name="组 5260">
        <path id="路径_13516" data-name="路径 13516" class="cls-3" d="M2289.607-228.1v24.733a15.3,15.3,0,0,0,.245,3.557,2.3,2.3,0,0,0,1.026,1.26,4.853,4.853,0,0,0,2.5.491h.691v.825h-15.923v-.825h.8a6.216,6.216,0,0,0,2.764-.446,2.289,2.289,0,0,0,1.116-1.227,13.567,13.567,0,0,0,.29-3.635V-219.05a9.885,9.885,0,0,0-.2-2.621,1.9,1.9,0,0,0-.747-.892,2.208,2.208,0,0,0-1.26-.368,7.144,7.144,0,0,0-2.765.714l-.4-.8,11.128-5.085Z"/>
      </g>
      <g id="组_5261" data-name="组 5261">
        <path id="路径_13517" data-name="路径 13517" class="cls-3" d="M2294.742-197.051v-.62a19.544,19.544,0,0,0,6.227-2.478,12.77,12.77,0,0,0,4.05-4.049,16.169,16.169,0,0,0,2.09-5.554,13.228,13.228,0,0,1-2.334.985,7.264,7.264,0,0,1-2.024.277,7.406,7.406,0,0,1-5.676-2.456,9.533,9.533,0,0,1-2.268-6.726,12.017,12.017,0,0,1,1.229-5.432,9.032,9.032,0,0,1,3.507-3.828,9.107,9.107,0,0,1,4.734-1.361,9.064,9.064,0,0,1,4.978,1.505,10.485,10.485,0,0,1,3.74,4.359,14.638,14.638,0,0,1,1.394,6.505,19.319,19.319,0,0,1-2.268,9.071,17.22,17.22,0,0,1-6.76,6.959A22.354,22.354,0,0,1,2294.742-197.051Zm12.7-14.559q.222-2.478.222-4.359a28.959,28.959,0,0,0-.929-7.5,5.652,5.652,0,0,0-1.572-2.832,2.093,2.093,0,0,0-1.438-.487,1.952,1.952,0,0,0-1.726.951q-.862,1.307-.863,4.978,0,6.129,1.461,8.452a2.909,2.909,0,0,0,2.566,1.505A5.491,5.491,0,0,0,2307.441-211.61Z"/>
      </g>
    </g>
  </g>
</svg>
