<svg xmlns="http://www.w3.org/2000/svg" width="81.218" height="81.218" viewBox="0 0 81.218 81.218">
  <defs>
    <style>
      .cls-1, .cls-3 {
        fill: #fff;
      }

      .cls-1 {
        stroke: #fff;
        stroke-linecap: round;
        stroke-linejoin: round;
        stroke-width: 3px;
      }

      .cls-2 {
        fill: #8ca6fd;
      }

      .cls-4 {
        stroke: none;
      }

      .cls-5 {
        fill: none;
      }
    </style>
  </defs>
  <g id="组_5283" data-name="组 5283" transform="translate(-1567.567 -49.719)">
    <g id="矩形_2649" data-name="矩形 2649" class="cls-1" transform="translate(1570.567 52.719)">
      <rect class="cls-4" width="75.218" height="75.218" rx="5.5"/>
      <rect class="cls-5" x="-1.5" y="-1.5" width="78.218" height="78.218" rx="7"/>
    </g>
    <g id="组_5279" data-name="组 5279">
      <rect id="矩形_2650" data-name="矩形 2650" class="cls-2" width="61.133" height="61.133" rx="4.47" transform="translate(1577.61 59.761)"/>
    </g>
    <g id="组_5282" data-name="组 5282">
      <g id="组_5280" data-name="组 5280">
        <path id="路径_13524" data-name="路径 13524" class="cls-3" d="M1601.756,74.895V99.628a15.287,15.287,0,0,0,.246,3.557,2.3,2.3,0,0,0,1.025,1.26,4.857,4.857,0,0,0,2.5.491h.691v.825h-15.923v-.825h.8a6.221,6.221,0,0,0,2.765-.446,2.287,2.287,0,0,0,1.115-1.227,13.509,13.509,0,0,0,.291-3.635V83.95a9.935,9.935,0,0,0-.2-2.621,1.9,1.9,0,0,0-.747-.892,2.209,2.209,0,0,0-1.261-.368,7.142,7.142,0,0,0-2.764.714l-.4-.8,11.128-5.085Z"/>
      </g>
      <g id="组_5281" data-name="组 5281">
        <path id="路径_13525" data-name="路径 13525" class="cls-3" d="M1624.766,105.761h-17.8v-.491q8.184-9.745,9.935-13.113a14.2,14.2,0,0,0,1.751-6.579,5.473,5.473,0,0,0-1.45-3.892,4.668,4.668,0,0,0-3.545-1.55,5.861,5.861,0,0,0-5.331,3.434l-.824-.289a12.354,12.354,0,0,1,3.657-6.334,8.57,8.57,0,0,1,5.665-2.052,8.393,8.393,0,0,1,4.193,1.07,7.757,7.757,0,0,1,2.965,2.933,7.062,7.062,0,0,1,1.071,3.49,12.608,12.608,0,0,1-1.65,6.022q-2.253,4.126-9.835,11.508h6.534a14.9,14.9,0,0,0,3.133-.2,2.6,2.6,0,0,0,1.194-.68,8.858,8.858,0,0,0,1.226-2.018h.8Z"/>
      </g>
    </g>
  </g>
</svg>
