<svg xmlns="http://www.w3.org/2000/svg" width="75.218" height="75.218" viewBox="0 0 75.218 75.218">
  <defs>
    <style>
      .cls-1 {
        fill: #ccd9ff;
      }

      .cls-2 {
        fill: #8ca6fd;
      }

      .cls-3 {
        fill: #fff;
      }
    </style>
  </defs>
  <g id="组_4725" data-name="组 4725" transform="translate(-667.29 -1162.609)">
    <g id="组_4723" data-name="组 4723">
      <rect id="矩形_2168" data-name="矩形 2168" class="cls-1" width="75.218" height="75.218" rx="5.5" transform="translate(667.29 1162.609)"/>
      <rect id="矩形_2169" data-name="矩形 2169" class="cls-2" width="61.133" height="61.133" rx="4.47" transform="translate(674.332 1169.652)"/>
    </g>
    <g id="组_4724" data-name="组 4724">
      <path id="路径_11648" data-name="路径 11648" class="cls-3" d="M715.745,1182.933v.685a23.4,23.4,0,0,0-7.113,2.9,13.828,13.828,0,0,0-4.235,4.309,20.865,20.865,0,0,0-2.412,6.28,7.21,7.21,0,0,1,1.787-.955,10.868,10.868,0,0,1,3.207-.489,8.08,8.08,0,0,1,6.207,2.7,10.492,10.492,0,0,1,2.485,7.382,13.487,13.487,0,0,1-1.346,6.023,9.934,9.934,0,0,1-3.82,4.236,10.062,10.062,0,0,1-5.288,1.493,10.217,10.217,0,0,1-5.656-1.677,11.055,11.055,0,0,1-4.051-4.909,16.87,16.87,0,0,1-1.458-7.027,21.008,21.008,0,0,1,2.681-10.393,19.967,19.967,0,0,1,7.614-7.664A22.728,22.728,0,0,1,715.745,1182.933Zm-14.078,16.159q-.2,3.379-.2,4.946a32.438,32.438,0,0,0,.648,6.537,9.842,9.842,0,0,0,1.776,4.432,2.309,2.309,0,0,0,3.917-.4q.882-1.31.881-5.325,0-6.758-1.64-9.329a3.221,3.221,0,0,0-2.84-1.665A5.968,5.968,0,0,0,701.667,1199.092Z"/>
    </g>
  </g>
</svg>
