<svg xmlns="http://www.w3.org/2000/svg" width="75.218" height="75.218" viewBox="0 0 75.218 75.218">
  <defs>
    <style>
      .cls-1 {
        fill: #ccd9ff;
      }

      .cls-2 {
        fill: #8ca6fd;
      }

      .cls-3 {
        fill: #fff;
      }
    </style>
  </defs>
  <g id="组_5218" data-name="组 5218" transform="translate(-1472.297 250.281)">
    <g id="组_5214" data-name="组 5214">
      <rect id="矩形_2623" data-name="矩形 2623" class="cls-1" width="75.218" height="75.218" rx="5.5" transform="translate(1472.297 -250.281)"/>
      <rect id="矩形_2624" data-name="矩形 2624" class="cls-2" width="61.133" height="61.133" rx="4.47" transform="translate(1479.34 -243.239)"/>
    </g>
    <g id="组_5217" data-name="组 5217">
      <g id="组_5215" data-name="组 5215">
        <path id="路径_13498" data-name="路径 13498" class="cls-3" d="M1504.278-228.1v24.733a15.307,15.307,0,0,0,.245,3.557,2.3,2.3,0,0,0,1.026,1.26,4.856,4.856,0,0,0,2.5.491h.692v.825h-15.924v-.825h.8a6.222,6.222,0,0,0,2.765-.446,2.288,2.288,0,0,0,1.115-1.227,13.531,13.531,0,0,0,.29-3.635V-219.05a9.89,9.89,0,0,0-.2-2.621,1.9,1.9,0,0,0-.747-.892,2.2,2.2,0,0,0-1.26-.368,7.15,7.15,0,0,0-2.765.714l-.4-.8,11.128-5.085Z"/>
      </g>
      <g id="组_5216" data-name="组 5216">
        <path id="路径_13499" data-name="路径 13499" class="cls-3" d="M1522.939-228.1v24.733a15.307,15.307,0,0,0,.245,3.557,2.3,2.3,0,0,0,1.026,1.26,4.853,4.853,0,0,0,2.5.491h.691v.825h-15.923v-.825h.8a6.224,6.224,0,0,0,2.765-.446,2.292,2.292,0,0,0,1.115-1.227,13.574,13.574,0,0,0,.29-3.635V-219.05a9.89,9.89,0,0,0-.2-2.621,1.9,1.9,0,0,0-.747-.892,2.208,2.208,0,0,0-1.26-.368,7.146,7.146,0,0,0-2.765.714l-.4-.8L1522.2-228.1Z"/>
      </g>
    </g>
  </g>
</svg>
