<svg xmlns="http://www.w3.org/2000/svg" width="81.218" height="81.218" viewBox="0 0 81.218 81.218">
  <defs>
    <style>
      .cls-1, .cls-3 {
        fill: #fff;
      }

      .cls-1 {
        stroke: #fff;
        stroke-linecap: round;
        stroke-linejoin: round;
        stroke-width: 3px;
      }

      .cls-2 {
        fill: #8ca6fd;
      }

      .cls-4 {
        stroke: none;
      }

      .cls-5 {
        fill: none;
      }
    </style>
  </defs>
  <g id="组_4774" data-name="组 4774" transform="translate(-959.099 -1297.521)">
    <g id="矩形_2194" data-name="矩形 2194" class="cls-1" transform="translate(962.099 1300.521)">
      <rect class="cls-4" width="75.218" height="75.218" rx="5.5"/>
      <rect class="cls-5" x="-1.5" y="-1.5" width="78.218" height="78.218" rx="7"/>
    </g>
    <g id="组_4773" data-name="组 4773">
      <g id="组_4771" data-name="组 4771">
        <rect id="矩形_2195" data-name="矩形 2195" class="cls-2" width="61.133" height="61.133" rx="4.47" transform="translate(969.142 1307.563)"/>
      </g>
      <g id="组_4772" data-name="组 4772">
        <path id="路径_11661" data-name="路径 11661" class="cls-3" d="M988.838,1355.416v-.686a21.649,21.649,0,0,0,6.891-2.742,14.137,14.137,0,0,0,4.481-4.481,17.909,17.909,0,0,0,2.314-6.145,14.73,14.73,0,0,1-2.584,1.089,8.027,8.027,0,0,1-2.239.306,8.2,8.2,0,0,1-6.281-2.717,10.548,10.548,0,0,1-2.509-7.443,13.286,13.286,0,0,1,1.359-6.011,10.058,10.058,0,0,1,14.628-4.077,11.612,11.612,0,0,1,4.138,4.824,16.2,16.2,0,0,1,1.543,7.2,21.389,21.389,0,0,1-2.509,10.038,19.045,19.045,0,0,1-7.481,7.7A24.732,24.732,0,0,1,988.838,1355.416Zm14.053-16.111q.245-2.741.245-4.823a32.049,32.049,0,0,0-1.028-8.3,6.268,6.268,0,0,0-1.739-3.134,2.321,2.321,0,0,0-1.592-.539,2.16,2.16,0,0,0-1.909,1.053q-.954,1.446-.955,5.509,0,6.781,1.616,9.353a3.221,3.221,0,0,0,2.84,1.665A6.074,6.074,0,0,0,1002.891,1339.305Z"/>
      </g>
    </g>
  </g>
</svg>
