<svg xmlns="http://www.w3.org/2000/svg" width="75.218" height="75.218" viewBox="0 0 75.218 75.218">
  <defs>
    <style>
      .cls-1 {
        fill: #ccd9ff;
      }

      .cls-2 {
        fill: #8ca6fd;
      }

      .cls-3 {
        fill: #fff;
      }
    </style>
  </defs>
  <g id="组_5253" data-name="组 5253" transform="translate(-2061.917 250.281)">
    <g id="组_5249" data-name="组 5249">
      <rect id="矩形_2637" data-name="矩形 2637" class="cls-1" width="75.218" height="75.218" rx="5.5" transform="translate(2061.917 -250.281)"/>
      <rect id="矩形_2638" data-name="矩形 2638" class="cls-2" width="61.133" height="61.133" rx="4.47" transform="translate(2068.959 -243.239)"/>
    </g>
    <g id="组_5252" data-name="组 5252">
      <g id="组_5250" data-name="组 5250">
        <path id="路径_13512" data-name="路径 13512" class="cls-3" d="M2092.872-228.1v24.733a15.3,15.3,0,0,0,.245,3.557,2.3,2.3,0,0,0,1.026,1.26,4.851,4.851,0,0,0,2.5.491h.691v.825h-15.923v-.825h.8a6.218,6.218,0,0,0,2.764-.446,2.29,2.29,0,0,0,1.116-1.227,13.578,13.578,0,0,0,.29-3.635V-219.05a9.88,9.88,0,0,0-.2-2.621,1.9,1.9,0,0,0-.747-.892,2.208,2.208,0,0,0-1.26-.368,7.145,7.145,0,0,0-2.765.714l-.4-.8,11.128-5.085Z"/>
      </g>
      <g id="组_5251" data-name="组 5251">
        <path id="路径_13513" data-name="路径 13513" class="cls-3" d="M2104.245-197.068l8.321-25.232h-6.337a12.574,12.574,0,0,0-5.592.969,5.113,5.113,0,0,0-2.165,2.548h-.856l2.209-9.493h18.22l-10.259,31.208Z"/>
      </g>
    </g>
  </g>
</svg>
