<svg xmlns="http://www.w3.org/2000/svg" width="81.218" height="81.218" viewBox="0 0 81.218 81.218">
  <defs>
    <style>
      .cls-1, .cls-3 {
        fill: #fff;
      }

      .cls-1 {
        stroke: #fff;
        stroke-linecap: round;
        stroke-linejoin: round;
        stroke-width: 3px;
      }

      .cls-2 {
        fill: #8ca6fd;
      }

      .cls-4 {
        stroke: none;
      }

      .cls-5 {
        fill: none;
      }
    </style>
  </defs>
  <g id="组_5268" data-name="组 5268" transform="translate(-2451.457 47.718)">
    <g id="矩形_2643" data-name="矩形 2643" class="cls-1" transform="translate(2454.457 -44.718)">
      <rect class="cls-4" width="75.218" height="75.218" rx="5.5"/>
      <rect class="cls-5" x="-1.5" y="-1.5" width="78.218" height="78.218" rx="7"/>
    </g>
    <g id="组_5264" data-name="组 5264">
      <rect id="矩形_2644" data-name="矩形 2644" class="cls-2" width="61.133" height="61.133" rx="4.47" transform="translate(2461.499 -37.675)"/>
    </g>
    <g id="组_5267" data-name="组 5267">
      <g id="组_5265" data-name="组 5265">
        <path id="路径_13518" data-name="路径 13518" class="cls-3" d="M2510.049-7.109a28.321,28.321,0,0,1-1.191,8.354,11.589,11.589,0,0,1-1.912,3.9,9.769,9.769,0,0,1-2.728,2.413,6.466,6.466,0,0,1-3.323.893,6.522,6.522,0,0,1-3.7-1.1,10.118,10.118,0,0,1-2.926-3.152,15.716,15.716,0,0,1-1.61-3.989,26.906,26.906,0,0,1-.9-6.965,29.425,29.425,0,0,1,1.3-8.949,10.669,10.669,0,0,1,3.24-5.168,7.115,7.115,0,0,1,4.6-1.8A7.1,7.1,0,0,1,2505.5-20.9a10.241,10.241,0,0,1,3.146,4.772A27.875,27.875,0,0,1,2510.049-7.109Zm-6.437-.044q0-7.846-.084-9.147a8.527,8.527,0,0,0-1-4.144,1.966,1.966,0,0,0-1.692-.7,1.908,1.908,0,0,0-1.421.529,4.768,4.768,0,0,0-1.046,2.722q-.271,1.952-.272,13.611a54.918,54.918,0,0,0,.418,8.507,3.9,3.9,0,0,0,.9,2.094,2.213,2.213,0,0,0,1.546.529,1.823,1.823,0,0,0,1.567-.7,7.256,7.256,0,0,0,1-3.813Z"/>
      </g>
      <g id="组_5266" data-name="组 5266">
        <path id="路径_13519" data-name="路径 13519" class="cls-3" d="M2485.946-22.67V2.063a15.328,15.328,0,0,0,.245,3.558,2.306,2.306,0,0,0,1.026,1.259,4.847,4.847,0,0,0,2.5.491h.691V8.2h-15.924V7.371h.8a6.207,6.207,0,0,0,2.765-.446,2.284,2.284,0,0,0,1.115-1.227,13.519,13.519,0,0,0,.29-3.635V-13.615a9.948,9.948,0,0,0-.2-2.62,1.905,1.905,0,0,0-.747-.893,2.208,2.208,0,0,0-1.261-.367,7.146,7.146,0,0,0-2.765.713l-.4-.8,11.128-5.085Z"/>
      </g>
    </g>
  </g>
</svg>
