<svg xmlns="http://www.w3.org/2000/svg" width="75.218" height="75.218" viewBox="0 0 75.218 75.218">
  <defs>
    <style>
      .cls-1 {
        fill: #ccd9ff;
      }

      .cls-2 {
        fill: #8ca6fd;
      }

      .cls-3 {
        fill: #fff;
      }
    </style>
  </defs>
  <g id="组_5238" data-name="组 5238" transform="translate(-1963.647 250.281)">
    <g id="组_5234" data-name="组 5234">
      <rect id="矩形_2631" data-name="矩形 2631" class="cls-1" width="75.218" height="75.218" rx="5.5" transform="translate(1963.647 -250.281)"/>
      <rect id="矩形_2632" data-name="矩形 2632" class="cls-2" width="61.133" height="61.133" rx="4.47" transform="translate(1970.689 -243.239)"/>
    </g>
    <g id="组_5237" data-name="组 5237">
      <g id="组_5235" data-name="组 5235">
        <path id="路径_13506" data-name="路径 13506" class="cls-3" d="M1993.728-228.231V-203.5a15.306,15.306,0,0,0,.245,3.557,2.3,2.3,0,0,0,1.026,1.26,4.854,4.854,0,0,0,2.5.49h.691v.826h-15.923v-.826h.8a6.211,6.211,0,0,0,2.765-.446,2.289,2.289,0,0,0,1.115-1.226,13.577,13.577,0,0,0,.29-3.635v-15.679a9.878,9.878,0,0,0-.2-2.62,1.9,1.9,0,0,0-.747-.892,2.208,2.208,0,0,0-1.26-.368,7.159,7.159,0,0,0-2.765.713l-.4-.8,11.128-5.085Z"/>
      </g>
      <g id="组_5236" data-name="组 5236">
        <path id="路径_13507" data-name="路径 13507" class="cls-3" d="M2020.649-228.228v.617a21.032,21.032,0,0,0-6.4,2.611,12.43,12.43,0,0,0-3.812,3.879,18.749,18.749,0,0,0-2.171,5.652,6.509,6.509,0,0,1,1.608-.86,9.8,9.8,0,0,1,2.887-.44,7.27,7.27,0,0,1,5.586,2.435,9.44,9.44,0,0,1,2.237,6.644,12.128,12.128,0,0,1-1.212,5.421,8.942,8.942,0,0,1-3.437,3.812,9.057,9.057,0,0,1-4.76,1.344,9.2,9.2,0,0,1-5.091-1.509,9.947,9.947,0,0,1-3.646-4.419,15.194,15.194,0,0,1-1.312-6.324,18.914,18.914,0,0,1,2.413-9.355,17.979,17.979,0,0,1,6.853-6.9A20.447,20.447,0,0,1,2020.649-228.228Zm-12.672,14.544q-.176,3.041-.175,4.451a29.187,29.187,0,0,0,.583,5.884,8.854,8.854,0,0,0,1.6,3.988,2.234,2.234,0,0,0,1.719.816,2.219,2.219,0,0,0,1.807-1.179q.793-1.179.793-4.793,0-6.083-1.476-8.4a2.9,2.9,0,0,0-2.557-1.5A5.362,5.362,0,0,0,2007.977-213.684Z"/>
      </g>
    </g>
  </g>
</svg>
