<svg xmlns="http://www.w3.org/2000/svg" width="81.218" height="81.218" viewBox="0 0 81.218 81.218">
  <defs>
    <style>
      .cls-1, .cls-3 {
        fill: #fff;
      }

      .cls-1 {
        stroke: #fff;
        stroke-linecap: round;
        stroke-linejoin: round;
        stroke-width: 3px;
      }

      .cls-2 {
        fill: #8ca6fd;
      }

      .cls-4 {
        stroke: none;
      }

      .cls-5 {
        fill: none;
      }
    </style>
  </defs>
  <g id="组_4770" data-name="组 4770" transform="translate(-860.829 -1297.521)">
    <g id="矩形_2192" data-name="矩形 2192" class="cls-1" transform="translate(863.829 1300.521)">
      <rect class="cls-4" width="75.218" height="75.218" rx="5.5"/>
      <rect class="cls-5" x="-1.5" y="-1.5" width="78.218" height="78.218" rx="7"/>
    </g>
    <g id="组_4769" data-name="组 4769">
      <g id="组_4767" data-name="组 4767">
        <rect id="矩形_2193" data-name="矩形 2193" class="cls-2" width="61.133" height="61.133" rx="4.47" transform="translate(870.872 1307.563)"/>
      </g>
      <g id="组_4768" data-name="组 4768">
        <path id="路径_11660" data-name="路径 11660" class="cls-3" d="M905.992,1335.914a18.431,18.431,0,0,1,4.86,4.787,9.508,9.508,0,0,1,1.36,5.08,8.882,8.882,0,0,1-3.024,6.8,11.676,11.676,0,0,1-8.215,2.778q-4.92,0-7.614-2.423a7.672,7.672,0,0,1-2.694-5.926,7.421,7.421,0,0,1,1.556-4.676,13.659,13.659,0,0,1,5.178-3.673,20.334,20.334,0,0,1-5.056-4.921,8.628,8.628,0,0,1-1.114-4.431,7.676,7.676,0,0,1,2.827-5.864,11.192,11.192,0,0,1,7.75-2.534q4.75,0,7.308,2.24a6.906,6.906,0,0,1,2.558,5.374,6.623,6.623,0,0,1-1.382,4.15A12.074,12.074,0,0,1,905.992,1335.914Zm-6.757,3.917a5.373,5.373,0,0,0-1.078,1.249,9.825,9.825,0,0,0-.881,2.5,14.713,14.713,0,0,0-.391,3.427,11.007,11.007,0,0,0,.587,3.857,4.344,4.344,0,0,0,1.677,2.24,4.159,4.159,0,0,0,2.241.686,3.96,3.96,0,0,0,3.011-1.311,5.042,5.042,0,0,0,1.224-3.586Q905.625,1344.141,899.235,1339.831Zm4.9-5.166a8.571,8.571,0,0,0,1.346-2.741,11.912,11.912,0,0,0,.441-3.331,7.567,7.567,0,0,0-1.371-4.872,3.422,3.422,0,0,0-2.84-1.3,3.743,3.743,0,0,0-2.791,1.187,4.07,4.07,0,0,0-1.151,2.95,6.7,6.7,0,0,0,1.285,3.71A18.044,18.044,0,0,0,904.132,1334.665Z"/>
      </g>
    </g>
  </g>
</svg>
