<svg xmlns="http://www.w3.org/2000/svg" width="75.218" height="75.218" viewBox="0 0 75.218 75.218">
  <defs>
    <style>
      .cls-1 {
        fill: #ccd9ff;
      }

      .cls-2 {
        fill: #8ca6fd;
      }

      .cls-3 {
        fill: #fff;
      }
    </style>
  </defs>
  <g id="组_4713" data-name="组 4713" transform="translate(-274.21 -1162.609)">
    <g id="组_4711" data-name="组 4711">
      <rect id="矩形_2160" data-name="矩形 2160" class="cls-1" width="75.218" height="75.218" rx="5.5" transform="translate(274.21 1162.609)"/>
      <rect id="矩形_2161" data-name="矩形 2161" class="cls-2" width="61.133" height="61.133" rx="4.47" transform="translate(281.253 1169.652)"/>
    </g>
    <g id="组_4712" data-name="组 4712">
      <path id="路径_11644" data-name="路径 11644" class="cls-3" d="M320.658,1217.161H301.12v-.538q8.984-10.7,10.907-14.4a15.59,15.59,0,0,0,1.922-7.223,6.008,6.008,0,0,0-1.592-4.272,5.124,5.124,0,0,0-3.892-1.7q-3.771,0-5.852,3.77l-.9-.318a13.569,13.569,0,0,1,4.014-6.954,9.415,9.415,0,0,1,6.22-2.252,9.207,9.207,0,0,1,4.6,1.175,8.506,8.506,0,0,1,3.256,3.22,7.757,7.757,0,0,1,1.175,3.831,13.838,13.838,0,0,1-1.812,6.611q-2.473,4.53-10.8,12.634h7.173a16.371,16.371,0,0,0,3.441-.221,2.847,2.847,0,0,0,1.31-.746,9.712,9.712,0,0,0,1.346-2.216h.881Z"/>
    </g>
  </g>
</svg>
