<svg xmlns="http://www.w3.org/2000/svg" width="75.218" height="75.218" viewBox="0 0 75.218 75.218">
  <defs>
    <style>
      .cls-1 {
        fill: #ccd9ff;
      }

      .cls-2 {
        fill: #8ca6fd;
      }

      .cls-3 {
        fill: #fff;
      }
    </style>
  </defs>
  <g id="组_4722" data-name="组 4722" transform="translate(-569.02 -1162.609)">
    <g id="组_4720" data-name="组 4720">
      <rect id="矩形_2166" data-name="矩形 2166" class="cls-1" width="75.218" height="75.218" rx="5.5" transform="translate(569.02 1162.609)"/>
      <rect id="矩形_2167" data-name="矩形 2167" class="cls-2" width="61.133" height="61.133" rx="4.47" transform="translate(576.062 1169.652)"/>
    </g>
    <g id="组_4721" data-name="组 4721">
      <path id="路径_11647" data-name="路径 11647" class="cls-3" d="M601.83,1183.276h15.547l-2.473,6.317H601.83l-1.249,3.3q8.446.318,13,4.211a10.09,10.09,0,0,1,3.746,7.982,11.987,11.987,0,0,1-6.635,10.491,15.275,15.275,0,0,1-6.929,1.579,10.851,10.851,0,0,1-6.243-1.518,3.028,3.028,0,0,1-1.518-2.448,2.577,2.577,0,0,1,.8-1.861,2.514,2.514,0,0,1,1.848-.808,5.186,5.186,0,0,1,1.934.392,20.568,20.568,0,0,1,3.354,2.057,12.031,12.031,0,0,0,2.571,1.42,4.737,4.737,0,0,0,1.714.294,4.559,4.559,0,0,0,3.416-1.469,4.919,4.919,0,0,0,1.408-3.526q0-4.309-4.31-7A20.174,20.174,0,0,0,597.863,1200q-.661,0-1.983.025Z"/>
    </g>
  </g>
</svg>
