<svg xmlns="http://www.w3.org/2000/svg" width="81.218" height="81.218" viewBox="0 0 81.218 81.218">
  <defs>
    <style>
      .cls-1, .cls-3 {
        fill: #fff;
      }

      .cls-1 {
        stroke: #fff;
        stroke-linecap: round;
        stroke-linejoin: round;
        stroke-width: 3px;
      }

      .cls-2 {
        fill: #8ca6fd;
      }

      .cls-4 {
        stroke: none;
      }

      .cls-5 {
        fill: none;
      }
    </style>
  </defs>
  <g id="组_4758" data-name="组 4758" transform="translate(-566.02 -1297.521)">
    <g id="矩形_2186" data-name="矩形 2186" class="cls-1" transform="translate(569.02 1300.521)">
      <rect class="cls-4" width="75.218" height="75.218" rx="5.5"/>
      <rect class="cls-5" x="-1.5" y="-1.5" width="78.218" height="78.218" rx="7"/>
    </g>
    <g id="组_4757" data-name="组 4757">
      <g id="组_4755" data-name="组 4755">
        <rect id="矩形_2187" data-name="矩形 2187" class="cls-2" width="61.133" height="61.133" rx="4.47" transform="translate(576.062 1307.563)"/>
      </g>
      <g id="组_4756" data-name="组 4756">
        <path id="路径_11657" data-name="路径 11657" class="cls-3" d="M601.83,1321.187h15.547L614.9,1327.5H601.83l-1.249,3.3q8.446.32,13,4.212a10.089,10.089,0,0,1,3.746,7.982,11.984,11.984,0,0,1-6.635,10.49,15.263,15.263,0,0,1-6.929,1.58,10.852,10.852,0,0,1-6.243-1.518,3.029,3.029,0,0,1-1.518-2.448,2.574,2.574,0,0,1,.8-1.861,2.514,2.514,0,0,1,1.848-.808,5.2,5.2,0,0,1,1.934.391,20.641,20.641,0,0,1,3.354,2.057,11.988,11.988,0,0,0,2.571,1.42,4.716,4.716,0,0,0,1.714.294,4.559,4.559,0,0,0,3.416-1.469,4.917,4.917,0,0,0,1.408-3.525q0-4.309-4.31-7a20.183,20.183,0,0,0-10.871-2.693q-.661,0-1.983.024Z"/>
      </g>
    </g>
  </g>
</svg>
