<svg xmlns="http://www.w3.org/2000/svg" width="81.218" height="81.218" viewBox="0 0 81.218 81.218">
  <defs>
    <style>
      .cls-1, .cls-3 {
        fill: #fff;
      }

      .cls-1 {
        stroke: #fff;
        stroke-linecap: round;
        stroke-linejoin: round;
        stroke-width: 3px;
      }

      .cls-2 {
        fill: #8ca6fd;
      }

      .cls-4 {
        stroke: none;
      }

      .cls-5 {
        fill: none;
      }
    </style>
  </defs>
  <g id="组_5288" data-name="组 5288" transform="translate(-1764.107 -49.719)">
    <g id="矩形_2651" data-name="矩形 2651" class="cls-1" transform="translate(1767.107 52.719)">
      <rect class="cls-4" width="75.218" height="75.218" rx="5.5"/>
      <rect class="cls-5" x="-1.5" y="-1.5" width="78.218" height="78.218" rx="7"/>
    </g>
    <g id="组_5284" data-name="组 5284">
      <rect id="矩形_2652" data-name="矩形 2652" class="cls-2" width="61.133" height="61.133" rx="4.47" transform="translate(1774.15 59.761)"/>
    </g>
    <g id="组_5287" data-name="组 5287">
      <g id="组_5285" data-name="组 5285">
        <path id="路径_13526" data-name="路径 13526" class="cls-3" d="M1798.152,74.895V99.628a15.307,15.307,0,0,0,.245,3.557,2.3,2.3,0,0,0,1.026,1.26,4.855,4.855,0,0,0,2.5.491h.691v.825h-15.923v-.825h.8a6.224,6.224,0,0,0,2.765-.446,2.291,2.291,0,0,0,1.115-1.227,13.572,13.572,0,0,0,.29-3.635V83.95a9.89,9.89,0,0,0-.2-2.621,1.9,1.9,0,0,0-.747-.892,2.206,2.206,0,0,0-1.26-.368,7.15,7.15,0,0,0-2.765.714l-.4-.8,11.129-5.085Z"/>
      </g>
      <g id="组_5286" data-name="组 5286">
        <path id="路径_13527" data-name="路径 13527" class="cls-3" d="M1803.076,94.409,1817.6,74.724h2.751V94.409h2.8v4.668h-2.8v6.855h-6.2V99.077h-11.072Zm2.188,0h8.884V82.346Z"/>
      </g>
    </g>
  </g>
</svg>
