<svg xmlns="http://www.w3.org/2000/svg" width="81.218" height="81.218" viewBox="0 0 81.218 81.218">
  <defs>
    <style>
      .cls-1, .cls-3 {
        fill: #fff;
      }

      .cls-1 {
        stroke: #fff;
        stroke-linecap: round;
        stroke-linejoin: round;
        stroke-width: 3px;
      }

      .cls-2 {
        fill: #8ca6fd;
      }

      .cls-4 {
        stroke: none;
      }

      .cls-5 {
        fill: none;
      }
    </style>
  </defs>
  <g id="组_5313" data-name="组 5313" transform="translate(-2157.187 -49.719)">
    <g id="矩形_2661" data-name="矩形 2661" class="cls-1" transform="translate(2160.187 52.719)">
      <rect class="cls-4" width="75.218" height="75.218" rx="5.5"/>
      <rect class="cls-5" x="-1.5" y="-1.5" width="78.218" height="78.218" rx="7"/>
    </g>
    <g id="组_5309" data-name="组 5309">
      <rect id="矩形_2662" data-name="矩形 2662" class="cls-2" width="61.133" height="61.133" rx="4.47" transform="translate(2167.229 59.761)"/>
    </g>
    <g id="组_5312" data-name="组 5312">
      <g id="组_5310" data-name="组 5310">
        <path id="路径_13536" data-name="路径 13536" class="cls-3" d="M2191.369,74.895V99.628a15.3,15.3,0,0,0,.245,3.557,2.3,2.3,0,0,0,1.026,1.26,4.855,4.855,0,0,0,2.5.491h.691v.825h-15.923v-.825h.8a6.222,6.222,0,0,0,2.765-.446,2.292,2.292,0,0,0,1.115-1.227,13.582,13.582,0,0,0,.29-3.635V83.95a9.885,9.885,0,0,0-.2-2.621,1.9,1.9,0,0,0-.747-.892,2.206,2.206,0,0,0-1.26-.368,7.149,7.149,0,0,0-2.765.714l-.4-.8,11.129-5.085Z"/>
      </g>
      <g id="组_5311" data-name="组 5311">
        <path id="路径_13537" data-name="路径 13537" class="cls-3" d="M2210.453,88.321a16.708,16.708,0,0,1,4.4,4.336,8.619,8.619,0,0,1,1.231,4.6,8.041,8.041,0,0,1-2.739,6.155,10.572,10.572,0,0,1-7.442,2.518q-4.458,0-6.9-2.2a6.948,6.948,0,0,1-2.44-5.368,6.722,6.722,0,0,1,1.409-4.236,12.372,12.372,0,0,1,4.691-3.327,18.452,18.452,0,0,1-4.58-4.458,7.824,7.824,0,0,1-1.009-4.015,6.952,6.952,0,0,1,2.561-5.312,10.141,10.141,0,0,1,7.02-2.3q4.3,0,6.621,2.03a6.259,6.259,0,0,1,2.318,4.868,6,6,0,0,1-1.253,3.76A10.944,10.944,0,0,1,2210.453,88.321Zm-6.122,3.548a4.875,4.875,0,0,0-.976,1.132,8.868,8.868,0,0,0-.8,2.262,13.317,13.317,0,0,0-.355,3.1,9.944,9.944,0,0,0,.533,3.494,3.924,3.924,0,0,0,1.519,2.029,3.764,3.764,0,0,0,2.03.621,3.584,3.584,0,0,0,2.727-1.187,4.565,4.565,0,0,0,1.109-3.249Q2210.12,95.774,2204.331,91.869Zm4.436-4.68a7.751,7.751,0,0,0,1.22-2.483,10.805,10.805,0,0,0,.4-3.017,6.85,6.85,0,0,0-1.243-4.414,3.1,3.1,0,0,0-2.573-1.175,3.39,3.39,0,0,0-2.528,1.075A3.69,3.69,0,0,0,2203,79.848a6.068,6.068,0,0,0,1.164,3.36A16.337,16.337,0,0,0,2208.767,87.189Z"/>
      </g>
    </g>
  </g>
</svg>
