<svg xmlns="http://www.w3.org/2000/svg" width="75.218" height="75.218" viewBox="0 0 75.218 75.218">
  <defs>
    <style>
      .cls-1 {
        fill: #ccd9ff;
      }

      .cls-2 {
        fill: #8ca6fd;
      }

      .cls-3 {
        fill: #fff;
      }
    </style>
  </defs>
  <g id="组_4716" data-name="组 4716" transform="translate(-372.48 -1162.609)">
    <g id="组_4714" data-name="组 4714">
      <rect id="矩形_2162" data-name="矩形 2162" class="cls-1" width="75.218" height="75.218" rx="5.5" transform="translate(372.48 1162.609)"/>
      <rect id="矩形_2163" data-name="矩形 2163" class="cls-2" width="61.133" height="61.133" rx="4.47" transform="translate(379.523 1169.652)"/>
    </g>
    <g id="组_4715" data-name="组 4715">
      <path id="路径_11645" data-name="路径 11645" class="cls-3" d="M406.012,1200.157v-.857a15.98,15.98,0,0,0,3.869-1.506,5.742,5.742,0,0,0,1.86-2.129,5.994,5.994,0,0,0,.783-2.9,4.724,4.724,0,0,0-1.48-3.489,5.05,5.05,0,0,0-3.686-1.457q-3.428,0-5.826,3.624l-.906-.318a14.708,14.708,0,0,1,4.517-6.146,10.006,10.006,0,0,1,6.133-2.056,7.981,7.981,0,0,1,5.692,2.1,6.555,6.555,0,0,1,2.241,4.922,6.683,6.683,0,0,1-1.041,3.537,9.037,9.037,0,0,1-3.268,3,11.577,11.577,0,0,1,4.37,3.44,8.414,8.414,0,0,1,1.506,5.129,11.821,11.821,0,0,1-3.758,8.826q-3.759,3.636-10.076,3.636-4.21,0-6.145-1.4a2.964,2.964,0,0,1-1.395-2.522,2.738,2.738,0,0,1,2.668-2.718,3.451,3.451,0,0,1,1.518.343,31.4,31.4,0,0,1,2.779,2.142,7.274,7.274,0,0,0,4.469,1.947,4.054,4.054,0,0,0,3.109-1.433,5.206,5.206,0,0,0,1.3-3.635,9.471,9.471,0,0,0-2.351-6.183A12.325,12.325,0,0,0,406.012,1200.157Z"/>
    </g>
  </g>
</svg>
