<svg xmlns="http://www.w3.org/2000/svg" width="75.218" height="75.218" viewBox="0 0 75.218 75.218">
  <defs>
    <style>
      .cls-1 {
        fill: #ccd9ff;
      }

      .cls-2 {
        fill: #8ca6fd;
      }

      .cls-3 {
        fill: #fff;
      }
    </style>
  </defs>
  <g id="组_4707" data-name="组 4707" transform="translate(-77.67 -1162.609)">
    <g id="组_4705" data-name="组 4705">
      <rect id="矩形_2156" data-name="矩形 2156" class="cls-1" width="75.218" height="75.218" rx="5.5" transform="translate(77.67 1162.609)"/>
      <rect id="矩形_2157" data-name="矩形 2157" class="cls-2" width="61.133" height="61.133" rx="4.47" transform="translate(84.713 1169.652)"/>
    </g>
    <g id="组_4706" data-name="组 4706">
      <path id="路径_11642" data-name="路径 11642" class="cls-3" d="M125.236,1200.219a30.855,30.855,0,0,1-1.3,9.095,12.6,12.6,0,0,1-2.083,4.248,10.622,10.622,0,0,1-2.969,2.627,7.3,7.3,0,0,1-7.647-.228,11,11,0,0,1-3.186-3.431,17.158,17.158,0,0,1-1.753-4.344,29.29,29.29,0,0,1-.978-7.583,32.058,32.058,0,0,1,1.41-9.744,11.608,11.608,0,0,1,3.528-5.627,7.434,7.434,0,0,1,10.025-.024,11.167,11.167,0,0,1,3.426,5.195A30.385,30.385,0,0,1,125.236,1200.219Zm-7.009-.048q0-8.544-.091-9.96-.228-3.335-1.093-4.512a2.144,2.144,0,0,0-1.844-.767,2.075,2.075,0,0,0-1.547.576,5.193,5.193,0,0,0-1.138,2.963q-.3,2.124-.3,14.82a59.776,59.776,0,0,0,.455,9.263,4.237,4.237,0,0,0,.979,2.279,2.41,2.41,0,0,0,1.684.577,1.985,1.985,0,0,0,1.707-.769,7.911,7.911,0,0,0,1.093-4.151Z"/>
    </g>
  </g>
</svg>
