<svg xmlns="http://www.w3.org/2000/svg" width="75.218" height="75.218" viewBox="0 0 75.218 75.218">
  <defs>
    <style>
      .cls-1 {
        fill: #ccd9ff;
      }

      .cls-2 {
        fill: #8ca6fd;
      }

      .cls-3 {
        fill: #fff;
      }
    </style>
  </defs>
  <g id="组_5248" data-name="组 5248" transform="translate(-1865.377 250.281)">
    <g id="组_5244" data-name="组 5244">
      <rect id="矩形_2635" data-name="矩形 2635" class="cls-1" width="75.218" height="75.218" rx="5.5" transform="translate(1865.377 -250.281)"/>
      <rect id="矩形_2636" data-name="矩形 2636" class="cls-2" width="61.133" height="61.133" rx="4.47" transform="translate(1872.42 -243.239)"/>
    </g>
    <g id="组_5247" data-name="组 5247">
      <g id="组_5245" data-name="组 5245">
        <path id="路径_13510" data-name="路径 13510" class="cls-3" d="M1896.544-228.1v24.733a15.307,15.307,0,0,0,.245,3.557,2.3,2.3,0,0,0,1.026,1.26,4.853,4.853,0,0,0,2.5.491H1901v.825h-15.923v-.825h.8a6.216,6.216,0,0,0,2.764-.446,2.29,2.29,0,0,0,1.116-1.227,13.574,13.574,0,0,0,.29-3.635V-219.05a9.885,9.885,0,0,0-.2-2.621,1.9,1.9,0,0,0-.747-.892,2.208,2.208,0,0,0-1.26-.368,7.145,7.145,0,0,0-2.765.714l-.4-.8,11.128-5.085Z"/>
      </g>
      <g id="组_5246" data-name="组 5246">
        <path id="路径_13511" data-name="路径 13511" class="cls-3" d="M1907.131-228.1h14.162l-2.252,5.754h-11.91l-1.137,3.011q7.694.289,11.842,3.836a9.188,9.188,0,0,1,3.412,7.27,10.548,10.548,0,0,1-1.583,5.453,10.544,10.544,0,0,1-4.461,4.1,13.9,13.9,0,0,1-6.311,1.439,9.884,9.884,0,0,1-5.687-1.383,2.758,2.758,0,0,1-1.383-2.23,2.345,2.345,0,0,1,.725-1.695,2.291,2.291,0,0,1,1.684-.736,4.722,4.722,0,0,1,1.762.357,18.822,18.822,0,0,1,3.055,1.873,10.923,10.923,0,0,0,2.341,1.294,4.31,4.31,0,0,0,1.562.268,4.15,4.15,0,0,0,3.111-1.339,4.476,4.476,0,0,0,1.283-3.211q0-3.926-3.926-6.378a18.376,18.376,0,0,0-9.9-2.454c-.4,0-1,.008-1.806.023Z"/>
      </g>
    </g>
  </g>
</svg>
