<svg xmlns="http://www.w3.org/2000/svg" width="75.218" height="75.218" viewBox="0 0 75.218 75.218">
  <defs>
    <style>
      .cls-1 {
        fill: #ccd9ff;
      }

      .cls-2 {
        fill: #8ca6fd;
      }

      .cls-3 {
        fill: #fff;
      }
    </style>
  </defs>
  <g id="组_4734" data-name="组 4734" transform="translate(-962.099 -1162.609)">
    <g id="组_4732" data-name="组 4732">
      <rect id="矩形_2174" data-name="矩形 2174" class="cls-1" width="75.218" height="75.218" rx="5.5" transform="translate(962.099 1162.609)"/>
      <rect id="矩形_2175" data-name="矩形 2175" class="cls-2" width="61.133" height="61.133" rx="4.47" transform="translate(969.142 1169.652)"/>
    </g>
    <g id="组_4733" data-name="组 4733">
      <path id="路径_11651" data-name="路径 11651" class="cls-3" d="M988.838,1217.5v-.685a21.649,21.649,0,0,0,6.891-2.743,14.134,14.134,0,0,0,4.481-4.48,17.914,17.914,0,0,0,2.314-6.146,14.737,14.737,0,0,1-2.584,1.09,8.063,8.063,0,0,1-2.239.306,8.193,8.193,0,0,1-6.281-2.718,10.546,10.546,0,0,1-2.509-7.443,13.282,13.282,0,0,1,1.359-6.01,10.058,10.058,0,0,1,14.628-4.077,11.61,11.61,0,0,1,4.138,4.823,16.2,16.2,0,0,1,1.543,7.2,21.39,21.39,0,0,1-2.509,10.039,19.051,19.051,0,0,1-7.481,7.7A24.72,24.72,0,0,1,988.838,1217.5Zm14.053-16.11q.245-2.742.245-4.824a32.041,32.041,0,0,0-1.028-8.3,6.26,6.26,0,0,0-1.739-3.134,2.321,2.321,0,0,0-1.592-.539,2.158,2.158,0,0,0-1.909,1.053q-.954,1.445-.955,5.509,0,6.781,1.616,9.352a3.22,3.22,0,0,0,2.84,1.666A6.088,6.088,0,0,0,1002.891,1201.394Z"/>
    </g>
  </g>
</svg>
