<svg xmlns="http://www.w3.org/2000/svg" width="81.218" height="81.218" viewBox="0 0 81.218 81.218">
  <defs>
    <style>
      .cls-1, .cls-3 {
        fill: #fff;
      }

      .cls-1 {
        stroke: #fff;
        stroke-linecap: round;
        stroke-linejoin: round;
        stroke-width: 3px;
      }

      .cls-2 {
        fill: #8ca6fd;
      }

      .cls-4 {
        stroke: none;
      }

      .cls-5 {
        fill: none;
      }
    </style>
  </defs>
  <g id="组_4762" data-name="组 4762" transform="translate(-664.29 -1297.521)">
    <g id="矩形_2188" data-name="矩形 2188" class="cls-1" transform="translate(667.29 1300.521)">
      <rect class="cls-4" width="75.218" height="75.218" rx="5.5"/>
      <rect class="cls-5" x="-1.5" y="-1.5" width="78.218" height="78.218" rx="7"/>
    </g>
    <g id="组_4761" data-name="组 4761">
      <g id="组_4759" data-name="组 4759">
        <rect id="矩形_2189" data-name="矩形 2189" class="cls-2" width="61.133" height="61.133" rx="4.47" transform="translate(674.332 1307.563)"/>
      </g>
      <g id="组_4760" data-name="组 4760">
        <path id="路径_11658" data-name="路径 11658" class="cls-3" d="M715.745,1320.844v.686a23.354,23.354,0,0,0-7.113,2.9,13.818,13.818,0,0,0-4.235,4.309,20.855,20.855,0,0,0-2.412,6.28,7.21,7.21,0,0,1,1.787-.955,10.838,10.838,0,0,1,3.207-.49,8.077,8.077,0,0,1,6.207,2.706,10.49,10.49,0,0,1,2.485,7.381,13.481,13.481,0,0,1-1.346,6.023,9.923,9.923,0,0,1-3.82,4.236,10.063,10.063,0,0,1-5.288,1.494,10.225,10.225,0,0,1-5.656-1.677,11.057,11.057,0,0,1-4.051-4.91,16.867,16.867,0,0,1-1.458-7.027,21.008,21.008,0,0,1,2.681-10.393,19.971,19.971,0,0,1,7.614-7.663A22.728,22.728,0,0,1,715.745,1320.844ZM701.667,1337q-.2,3.378-.2,4.946a32.455,32.455,0,0,0,.648,6.537,9.837,9.837,0,0,0,1.776,4.431,2.309,2.309,0,0,0,3.917-.4q.882-1.31.881-5.325,0-6.758-1.64-9.328a3.221,3.221,0,0,0-2.84-1.665A5.954,5.954,0,0,0,701.667,1337Z"/>
      </g>
    </g>
  </g>
</svg>
