<svg xmlns="http://www.w3.org/2000/svg" width="81.218" height="81.218" viewBox="0 0 81.218 81.218">
  <defs>
    <style>
      .cls-1, .cls-3 {
        fill: #fff;
      }

      .cls-1 {
        stroke: #fff;
        stroke-linecap: round;
        stroke-linejoin: round;
        stroke-width: 3px;
      }

      .cls-2 {
        fill: #8ca6fd;
      }

      .cls-4 {
        stroke: none;
      }

      .cls-5 {
        fill: none;
      }
    </style>
  </defs>
  <g id="组_5293" data-name="组 5293" transform="translate(-1960.647 -49.719)">
    <g id="矩形_2653" data-name="矩形 2653" class="cls-1" transform="translate(1963.647 52.719)">
      <rect class="cls-4" width="75.218" height="75.218" rx="5.5"/>
      <rect class="cls-5" x="-1.5" y="-1.5" width="78.218" height="78.218" rx="7"/>
    </g>
    <g id="组_5289" data-name="组 5289">
      <rect id="矩形_2654" data-name="矩形 2654" class="cls-2" width="61.133" height="61.133" rx="4.47" transform="translate(1970.689 59.761)"/>
    </g>
    <g id="组_5292" data-name="组 5292">
      <g id="组_5290" data-name="组 5290">
        <path id="路径_13528" data-name="路径 13528" class="cls-3" d="M1993.728,74.769V99.5a15.306,15.306,0,0,0,.245,3.557,2.3,2.3,0,0,0,1.026,1.26,4.854,4.854,0,0,0,2.5.49h.691v.826h-15.923v-.826h.8a6.21,6.21,0,0,0,2.765-.446,2.289,2.289,0,0,0,1.115-1.226,13.578,13.578,0,0,0,.29-3.635V83.823a9.878,9.878,0,0,0-.2-2.62,1.9,1.9,0,0,0-.747-.892,2.208,2.208,0,0,0-1.26-.368,7.159,7.159,0,0,0-2.765.713l-.4-.8,11.128-5.085Z"/>
      </g>
      <g id="组_5291" data-name="组 5291">
        <path id="路径_13529" data-name="路径 13529" class="cls-3" d="M2020.649,74.772v.617a21.033,21.033,0,0,0-6.4,2.611,12.43,12.43,0,0,0-3.812,3.879,18.748,18.748,0,0,0-2.171,5.652,6.51,6.51,0,0,1,1.608-.86,9.8,9.8,0,0,1,2.887-.44,7.27,7.27,0,0,1,5.586,2.435,9.44,9.44,0,0,1,2.237,6.644,12.128,12.128,0,0,1-1.212,5.421,8.942,8.942,0,0,1-3.437,3.812,9.057,9.057,0,0,1-4.76,1.344,9.2,9.2,0,0,1-5.091-1.509,9.947,9.947,0,0,1-3.646-4.419,15.194,15.194,0,0,1-1.312-6.324,18.914,18.914,0,0,1,2.413-9.355,17.979,17.979,0,0,1,6.853-6.9A20.447,20.447,0,0,1,2020.649,74.772Zm-12.672,14.544q-.176,3.041-.175,4.451a29.187,29.187,0,0,0,.583,5.884,8.854,8.854,0,0,0,1.6,3.988,2.078,2.078,0,0,0,3.526-.363q.793-1.179.793-4.793,0-6.083-1.476-8.4a2.9,2.9,0,0,0-2.557-1.5A5.363,5.363,0,0,0,2007.977,89.316Z"/>
      </g>
    </g>
  </g>
</svg>
