<svg xmlns="http://www.w3.org/2000/svg" width="75.218" height="75.218" viewBox="0 0 75.218 75.218">
  <defs>
    <style>
      .cls-1 {
        fill: #ccd9ff;
      }

      .cls-2 {
        fill: #8ca6fd;
      }

      .cls-3 {
        fill: #fff;
      }
    </style>
  </defs>
  <g id="组_5213" data-name="组 5213" transform="translate(-2454.457 351.629)">
    <g id="组_5209" data-name="组 5209">
      <rect id="矩形_2621" data-name="矩形 2621" class="cls-1" width="75.218" height="75.218" rx="5.5" transform="translate(2454.457 -351.629)"/>
      <rect id="矩形_2622" data-name="矩形 2622" class="cls-2" width="61.133" height="61.133" rx="4.47" transform="translate(2461.499 -344.587)"/>
    </g>
    <g id="组_5212" data-name="组 5212">
      <g id="组_5210" data-name="组 5210">
        <path id="路径_13496" data-name="路径 13496" class="cls-3" d="M2510.049-314.02a28.315,28.315,0,0,1-1.191,8.353,11.57,11.57,0,0,1-1.912,3.9,9.774,9.774,0,0,1-2.728,2.414,6.465,6.465,0,0,1-3.323.892,6.514,6.514,0,0,1-3.7-1.1,10.114,10.114,0,0,1-2.926-3.151,15.776,15.776,0,0,1-1.61-3.99,26.894,26.894,0,0,1-.9-6.965,29.418,29.418,0,0,1,1.3-8.948,10.664,10.664,0,0,1,3.24-5.168,7.115,7.115,0,0,1,4.6-1.8,7.1,7.1,0,0,1,4.608,1.774,10.246,10.246,0,0,1,3.146,4.772A27.881,27.881,0,0,1,2510.049-314.02Zm-6.437-.044q0-7.847-.084-9.147a8.537,8.537,0,0,0-1-4.144,1.969,1.969,0,0,0-1.693-.7,1.9,1.9,0,0,0-1.421.529,4.759,4.759,0,0,0-1.045,2.722q-.273,1.95-.273,13.61a54.756,54.756,0,0,0,.419,8.508,3.886,3.886,0,0,0,.9,2.093,2.214,2.214,0,0,0,1.546.53,1.825,1.825,0,0,0,1.568-.706,7.263,7.263,0,0,0,1-3.813Z"/>
      </g>
      <g id="组_5211" data-name="组 5211">
        <path id="路径_13497" data-name="路径 13497" class="cls-3" d="M2485.946-329.581v24.733a15.3,15.3,0,0,0,.246,3.557,2.3,2.3,0,0,0,1.025,1.26,4.847,4.847,0,0,0,2.5.491h.691v.825h-15.923v-.825h.8a6.222,6.222,0,0,0,2.765-.446,2.288,2.288,0,0,0,1.115-1.227,13.524,13.524,0,0,0,.29-3.635v-15.678a9.963,9.963,0,0,0-.2-2.621,1.9,1.9,0,0,0-.747-.892,2.209,2.209,0,0,0-1.261-.368,7.142,7.142,0,0,0-2.764.714l-.4-.8,11.128-5.085Z"/>
      </g>
    </g>
  </g>
</svg>
