<svg xmlns="http://www.w3.org/2000/svg" width="81.218" height="81.218" viewBox="0 0 81.218 81.218">
  <defs>
    <style>
      .cls-1, .cls-3 {
        fill: #fff;
      }

      .cls-1 {
        stroke: #fff;
        stroke-linecap: round;
        stroke-linejoin: round;
        stroke-width: 3px;
      }

      .cls-2 {
        fill: #8ca6fd;
      }

      .cls-4 {
        stroke: none;
      }

      .cls-5 {
        fill: none;
      }
    </style>
  </defs>
  <g id="组_5308" data-name="组 5308" transform="translate(-2058.917 -49.719)">
    <g id="矩形_2659" data-name="矩形 2659" class="cls-1" transform="translate(2061.917 52.719)">
      <rect class="cls-4" width="75.218" height="75.218" rx="5.5"/>
      <rect class="cls-5" x="-1.5" y="-1.5" width="78.218" height="78.218" rx="7"/>
    </g>
    <g id="组_5304" data-name="组 5304">
      <rect id="矩形_2660" data-name="矩形 2660" class="cls-2" width="61.133" height="61.133" rx="4.47" transform="translate(2068.959 59.761)"/>
    </g>
    <g id="组_5307" data-name="组 5307">
      <g id="组_5305" data-name="组 5305">
        <path id="路径_13534" data-name="路径 13534" class="cls-3" d="M2092.872,74.895V99.628a15.3,15.3,0,0,0,.245,3.557,2.3,2.3,0,0,0,1.026,1.26,4.851,4.851,0,0,0,2.5.491h.691v.825h-15.923v-.825h.8a6.218,6.218,0,0,0,2.764-.446,2.29,2.29,0,0,0,1.116-1.227,13.578,13.578,0,0,0,.29-3.635V83.95a9.88,9.88,0,0,0-.2-2.621,1.9,1.9,0,0,0-.747-.892,2.208,2.208,0,0,0-1.26-.368,7.145,7.145,0,0,0-2.765.714l-.4-.8,11.128-5.085Z"/>
      </g>
      <g id="组_5306" data-name="组 5306">
        <path id="路径_13535" data-name="路径 13535" class="cls-3" d="M2104.245,105.932l8.321-25.232h-6.337a12.574,12.574,0,0,0-5.592.969,5.113,5.113,0,0,0-2.165,2.548h-.856l2.209-9.493h18.22l-10.259,31.208Z"/>
      </g>
    </g>
  </g>
</svg>
