<svg xmlns="http://www.w3.org/2000/svg" width="75.218" height="75.218" viewBox="0 0 75.218 75.218">
  <defs>
    <style>
      .cls-1 {
        fill: #ccd9ff;
      }

      .cls-2 {
        fill: #8ca6fd;
      }

      .cls-3 {
        fill: #fff;
      }
    </style>
  </defs>
  <g id="组_4710" data-name="组 4710" transform="translate(-175.94 -1162.609)">
    <g id="组_4708" data-name="组 4708">
      <rect id="矩形_2158" data-name="矩形 2158" class="cls-1" width="75.218" height="75.218" rx="5.5" transform="translate(175.94 1162.609)"/>
      <rect id="矩形_2159" data-name="矩形 2159" class="cls-2" width="61.133" height="61.133" rx="4.47" transform="translate(182.983 1169.652)"/>
    </g>
    <g id="组_4709" data-name="组 4709">
      <path id="路径_11643" data-name="路径 11643" class="cls-3" d="M217.613,1183.276v27.152a16.8,16.8,0,0,0,.27,3.906,2.523,2.523,0,0,0,1.126,1.383,5.328,5.328,0,0,0,2.742.538h.759v.906H205.029v-.906h.881a6.834,6.834,0,0,0,3.036-.489,2.51,2.51,0,0,0,1.224-1.347,14.884,14.884,0,0,0,.319-3.991v-17.212a10.851,10.851,0,0,0-.221-2.877,2.086,2.086,0,0,0-.82-.979,2.42,2.42,0,0,0-1.383-.4,7.854,7.854,0,0,0-3.036.783l-.441-.881,12.217-5.582Z"/>
    </g>
  </g>
</svg>
