<svg xmlns="http://www.w3.org/2000/svg" width="75.218" height="75.218" viewBox="0 0 75.218 75.218">
  <defs>
    <style>
      .cls-1 {
        fill: #ccd9ff;
      }

      .cls-2 {
        fill: #8ca6fd;
      }

      .cls-3 {
        fill: #fff;
      }
    </style>
  </defs>
  <g id="组_5233" data-name="组 5233" transform="translate(-1767.107 250.281)">
    <g id="组_5229" data-name="组 5229">
      <rect id="矩形_2629" data-name="矩形 2629" class="cls-1" width="75.218" height="75.218" rx="5.5" transform="translate(1767.107 -250.281)"/>
      <rect id="矩形_2630" data-name="矩形 2630" class="cls-2" width="61.133" height="61.133" rx="4.47" transform="translate(1774.15 -243.239)"/>
    </g>
    <g id="组_5232" data-name="组 5232">
      <g id="组_5230" data-name="组 5230">
        <path id="路径_13504" data-name="路径 13504" class="cls-3" d="M1798.152-228.1v24.733a15.307,15.307,0,0,0,.245,3.557,2.3,2.3,0,0,0,1.026,1.26,4.856,4.856,0,0,0,2.5.491h.691v.825h-15.923v-.825h.8a6.224,6.224,0,0,0,2.765-.446,2.291,2.291,0,0,0,1.115-1.227,13.572,13.572,0,0,0,.29-3.635V-219.05a9.89,9.89,0,0,0-.2-2.621,1.9,1.9,0,0,0-.747-.892,2.206,2.206,0,0,0-1.26-.368,7.15,7.15,0,0,0-2.765.714l-.4-.8,11.129-5.085Z"/>
      </g>
      <g id="组_5231" data-name="组 5231">
        <path id="路径_13505" data-name="路径 13505" class="cls-3" d="M1803.076-208.591l14.522-19.685h2.751v19.685h2.8v4.668h-2.8v6.855h-6.2v-6.855h-11.072Zm2.188,0h8.884v-12.063Z"/>
      </g>
    </g>
  </g>
</svg>
