<svg xmlns="http://www.w3.org/2000/svg" width="81.218" height="81.218" viewBox="0 0 81.218 81.218">
  <defs>
    <style>
      .cls-1, .cls-3 {
        fill: #fff;
      }

      .cls-1 {
        stroke: #fff;
        stroke-linecap: round;
        stroke-linejoin: round;
        stroke-width: 3px;
      }

      .cls-2 {
        fill: #8ca6fd;
      }

      .cls-4 {
        stroke: none;
      }

      .cls-5 {
        fill: none;
      }
    </style>
  </defs>
  <g id="组_5278" data-name="组 5278" transform="translate(-1665.837 -49.719)">
    <g id="矩形_2647" data-name="矩形 2647" class="cls-1" transform="translate(1668.837 52.719)">
      <rect class="cls-4" width="75.218" height="75.218" rx="5.5"/>
      <rect class="cls-5" x="-1.5" y="-1.5" width="78.218" height="78.218" rx="7"/>
    </g>
    <g id="组_5274" data-name="组 5274">
      <rect id="矩形_2648" data-name="矩形 2648" class="cls-2" width="61.133" height="61.133" rx="4.47" transform="translate(1675.88 59.761)"/>
    </g>
    <g id="组_5277" data-name="组 5277">
      <g id="组_5275" data-name="组 5275">
        <path id="路径_13522" data-name="路径 13522" class="cls-3" d="M1700.079,74.895V99.628a15.307,15.307,0,0,0,.245,3.557,2.3,2.3,0,0,0,1.026,1.26,4.855,4.855,0,0,0,2.5.491h.692v.825h-15.924v-.825h.8a6.221,6.221,0,0,0,2.765-.446,2.291,2.291,0,0,0,1.115-1.227,13.572,13.572,0,0,0,.29-3.635V83.95a9.882,9.882,0,0,0-.2-2.621,1.9,1.9,0,0,0-.747-.892,2.206,2.206,0,0,0-1.26-.368,7.15,7.15,0,0,0-2.765.714l-.4-.8,11.129-5.085Z"/>
      </g>
      <g id="组_5276" data-name="组 5276">
        <path id="路径_13523" data-name="路径 13523" class="cls-3" d="M1711.36,90.273V89.5a14.439,14.439,0,0,0,3.49-1.359,5.172,5.172,0,0,0,1.678-1.921,5.4,5.4,0,0,0,.706-2.617,4.256,4.256,0,0,0-1.335-3.147,4.554,4.554,0,0,0-3.325-1.315q-3.092,0-5.256,3.269l-.816-.287a13.254,13.254,0,0,1,4.074-5.543,9.028,9.028,0,0,1,5.532-1.856,7.2,7.2,0,0,1,5.135,1.9,5.916,5.916,0,0,1,2.021,4.44,6.038,6.038,0,0,1-.938,3.191,8.157,8.157,0,0,1-2.949,2.706,10.445,10.445,0,0,1,3.943,3.1,7.6,7.6,0,0,1,1.358,4.627,10.665,10.665,0,0,1-3.39,7.962,12.521,12.521,0,0,1-9.089,3.28q-3.8,0-5.543-1.259a2.673,2.673,0,0,1-1.259-2.275,2.472,2.472,0,0,1,2.407-2.452,3.127,3.127,0,0,1,1.37.309,28.622,28.622,0,0,1,2.506,1.933,6.565,6.565,0,0,0,4.031,1.756,3.66,3.66,0,0,0,2.8-1.292,4.7,4.7,0,0,0,1.171-3.28,8.545,8.545,0,0,0-2.121-5.577A11.116,11.116,0,0,0,1711.36,90.273Z"/>
      </g>
    </g>
  </g>
</svg>
