<svg xmlns="http://www.w3.org/2000/svg" width="81.218" height="81.218" viewBox="0 0 81.218 81.218">
  <defs>
    <style>
      .cls-1, .cls-3 {
        fill: #fff;
      }

      .cls-1 {
        stroke: #fff;
        stroke-linecap: round;
        stroke-linejoin: round;
        stroke-width: 3px;
      }

      .cls-2 {
        fill: #8ca6fd;
      }

      .cls-4 {
        stroke: none;
      }

      .cls-5 {
        fill: none;
      }
    </style>
  </defs>
  <g id="组_4738" data-name="组 4738" transform="translate(-74.67 -1297.521)">
    <g id="矩形_2176" data-name="矩形 2176" class="cls-1" transform="translate(77.67 1300.521)">
      <rect class="cls-4" width="75.218" height="75.218" rx="5.5"/>
      <rect class="cls-5" x="-1.5" y="-1.5" width="78.218" height="78.218" rx="7"/>
    </g>
    <g id="组_4737" data-name="组 4737">
      <g id="组_4735" data-name="组 4735">
        <rect id="矩形_2177" data-name="矩形 2177" class="cls-2" width="61.133" height="61.133" rx="4.47" transform="translate(84.713 1307.563)"/>
      </g>
      <g id="组_4736" data-name="组 4736">
        <path id="路径_11652" data-name="路径 11652" class="cls-3" d="M125.236,1338.13a30.85,30.85,0,0,1-1.3,9.095,12.6,12.6,0,0,1-2.083,4.248,10.626,10.626,0,0,1-2.969,2.628,7.3,7.3,0,0,1-7.647-.228,11.016,11.016,0,0,1-3.186-3.432,17.143,17.143,0,0,1-1.753-4.344,29.291,29.291,0,0,1-.978-7.583,32.056,32.056,0,0,1,1.41-9.743,11.612,11.612,0,0,1,3.528-5.628,7.434,7.434,0,0,1,10.025-.024,11.166,11.166,0,0,1,3.426,5.2A30.379,30.379,0,0,1,125.236,1338.13Zm-7.009-.048q0-8.543-.091-9.959-.228-3.336-1.093-4.512a2.142,2.142,0,0,0-1.844-.768,2.076,2.076,0,0,0-1.547.576,5.2,5.2,0,0,0-1.138,2.964q-.3,2.124-.3,14.819a59.776,59.776,0,0,0,.455,9.263,4.244,4.244,0,0,0,.979,2.28,2.414,2.414,0,0,0,1.684.576,1.987,1.987,0,0,0,1.707-.768,7.918,7.918,0,0,0,1.093-4.152Z"/>
      </g>
    </g>
  </g>
</svg>
