<svg xmlns="http://www.w3.org/2000/svg" width="75.218" height="75.218" viewBox="0 0 75.218 75.218">
  <defs>
    <style>
      .cls-1 {
        fill: #ccd9ff;
      }

      .cls-2 {
        fill: #8ca6fd;
      }

      .cls-3 {
        fill: #fff;
      }
    </style>
  </defs>
  <g id="组_5243" data-name="组 5243" transform="translate(-2356.457 250.281)">
    <g id="组_5239" data-name="组 5239">
      <rect id="矩形_2633" data-name="矩形 2633" class="cls-1" width="75.218" height="75.218" rx="5.5" transform="translate(2356.457 -250.281)"/>
      <rect id="矩形_2634" data-name="矩形 2634" class="cls-2" width="61.133" height="61.133" rx="4.47" transform="translate(2363.499 -243.239)"/>
    </g>
    <g id="组_5242" data-name="组 5242">
      <g id="组_5240" data-name="组 5240">
        <path id="路径_13508" data-name="路径 13508" class="cls-3" d="M2392.04-197.271h-17.87v-.493q8.217-9.786,9.976-13.167a14.26,14.26,0,0,0,1.758-6.607,5.494,5.494,0,0,0-1.456-3.907,4.685,4.685,0,0,0-3.56-1.557,5.884,5.884,0,0,0-5.352,3.449l-.828-.291a12.4,12.4,0,0,1,3.672-6.36,8.6,8.6,0,0,1,5.688-2.061,8.428,8.428,0,0,1,4.211,1.075,7.8,7.8,0,0,1,2.978,2.945,7.1,7.1,0,0,1,1.075,3.5,12.662,12.662,0,0,1-1.657,6.046q-2.264,4.145-9.876,11.556h6.561a15.01,15.01,0,0,0,3.147-.2,2.609,2.609,0,0,0,1.2-.683,8.876,8.876,0,0,0,1.231-2.026h.806Z"/>
      </g>
      <g id="组_5241" data-name="组 5241">
        <path id="路径_13509" data-name="路径 13509" class="cls-3" d="M2413.961-212.64a28.323,28.323,0,0,1-1.191,8.353,11.557,11.557,0,0,1-1.913,3.9,9.74,9.74,0,0,1-2.727,2.414,6.469,6.469,0,0,1-3.324.893,6.519,6.519,0,0,1-3.7-1.1,10.135,10.135,0,0,1-2.926-3.152,15.726,15.726,0,0,1-1.61-3.99,26.882,26.882,0,0,1-.9-6.964,29.425,29.425,0,0,1,1.3-8.949,10.656,10.656,0,0,1,3.24-5.168,7.113,7.113,0,0,1,4.6-1.8,7.1,7.1,0,0,1,4.609,1.774,10.246,10.246,0,0,1,3.146,4.772A27.887,27.887,0,0,1,2413.961-212.64Zm-6.437-.044q0-7.846-.084-9.147a8.524,8.524,0,0,0-1-4.144,1.967,1.967,0,0,0-1.693-.7,1.906,1.906,0,0,0-1.421.529,4.771,4.771,0,0,0-1.045,2.722q-.272,1.95-.272,13.61a54.786,54.786,0,0,0,.418,8.508,3.891,3.891,0,0,0,.9,2.093,2.218,2.218,0,0,0,1.547.53,1.822,1.822,0,0,0,1.567-.706,7.256,7.256,0,0,0,1-3.813Z"/>
      </g>
    </g>
  </g>
</svg>
