<svg id="组_1274" data-name="组 1274" xmlns="http://www.w3.org/2000/svg" width="388.932" height="428" viewBox="0 0 388.932 428">
  <defs>
    <style>
      .cls-1 {
        fill: #1bb9e1;
      }

      .cls-2 {
        fill: #197e92;
      }

      .cls-3 {
        fill: #fff;
      }

      .cls-4 {
        fill: #ffc62e;
      }
    </style>
  </defs>
  <g id="组_1270" data-name="组 1270">
    <path id="路径_2472" data-name="路径 2472" class="cls-1" d="M2076.517,227.444c0,20.035-20.222,36.631-26.091,54.709-6.085,18.739.311,44.011-11.04,59.606-11.463,15.751-37.551,17.427-53.3,28.892-15.6,11.35-25.189,35.707-43.926,41.791-18.077,5.868-40.071-8.005-60.109-8.005s-42.027,13.873-60.106,8.005c-18.739-6.084-28.329-30.439-43.925-41.791-15.751-11.465-41.836-13.142-53.3-28.892-11.35-15.6-4.955-40.868-11.039-59.6-5.871-18.079-26.091-34.675-26.091-54.71s20.22-36.631,26.091-54.711c6.085-18.736-.311-44.008,11.039-59.6,11.466-15.751,37.552-17.426,53.3-28.891,15.6-11.35,25.186-35.705,43.925-41.789,18.079-5.871,40.073,8.005,60.106,8.005s42.03-13.876,60.108-8.005c18.737,6.084,28.332,30.439,43.927,41.789,15.751,11.465,41.838,13.139,53.3,28.888,11.351,15.6,4.955,40.872,11.04,59.606C2056.295,190.813,2076.517,207.409,2076.517,227.444Z" transform="translate(-1687.585 -41.001)"/>
    <path id="路径_2473" data-name="路径 2473" class="cls-2" d="M1894.225,215.909V400.4l-52.242-32.039L1789.745,400.4v-184.5h104.48Z" transform="translate(-1647.519 27.595)"/>
    <path id="路径_2474" data-name="路径 2474" class="cls-3" d="M2026.749,218.767A155.637,155.637,0,1,1,1871.11,63.129,155.638,155.638,0,0,1,2026.749,218.767Z" transform="translate(-1676.646 -32.322)"/>
    <g id="组_1269" data-name="组 1269" transform="translate(52.977 44.955)">
      <path id="路径_2475" data-name="路径 2475" class="cls-4" d="M2008.616,214.781A141.489,141.489,0,1,1,1867.124,73.292,141.49,141.49,0,0,1,2008.616,214.781Z" transform="translate(-1725.638 -73.292)"/>
    </g>
  </g>
  <g id="组_1272" data-name="组 1272" transform="translate(162.1 295.168)">
    <g id="组_1271" data-name="组 1271">
      <path id="路径_2476" data-name="路径 2476" class="cls-3" d="M1833.533,254.86c1.249-2.454,3.292-2.454,4.547,0l6.045,12.857a10.955,10.955,0,0,0,7.355,5.178l13.52,1.9c2.794.394,3.426,2.278,1.4,4.189l-9.78,9.239a10.419,10.419,0,0,0-2.808,8.378l2.308,13.048c.476,2.7-1.181,3.861-3.679,2.588l-12.088-6.162a11.309,11.309,0,0,0-9.094,0l-12.091,6.162c-2.5,1.272-4.158.109-3.679-2.588L1817.8,296.6a10.419,10.419,0,0,0-2.808-8.378l-9.784-9.239c-2.023-1.911-1.389-3.8,1.406-4.189l13.52-1.9a10.962,10.962,0,0,0,7.355-5.178Z" transform="translate(-1804.02 -253.019)"/>
    </g>
  </g>
  <path id="路径_2477" data-name="路径 2477" class="cls-3" d="M1792.513,254.054a18.218,18.218,0,1,1-18.219-18.22A18.219,18.219,0,0,1,1792.513,254.054Z" transform="translate(-1660.723 35.41)"/>
  <path id="路径_2478" data-name="路径 2478" class="cls-3" d="M1758.747,220.723a7.878,7.878,0,1,1-7.878-7.878A7.879,7.879,0,0,1,1758.747,220.723Z" transform="translate(-1665.856 26.394)"/>
  <path id="路径_2479" data-name="路径 2479" class="cls-3" d="M1907.918,258.526a15.264,15.264,0,1,1-15.264-15.264A15.264,15.264,0,0,1,1907.918,258.526Z" transform="translate(-1613.146 38.323)"/>
  <path id="路径_2480" data-name="路径 2480" class="cls-3" d="M1913.1,221.153a6.894,6.894,0,1,1-6.894-6.894A6.894,6.894,0,0,1,1913.1,221.153Z" transform="translate(-1604.547 26.948)"/>
  <g id="组_1273" data-name="组 1273" transform="translate(71.067 144.354)">
    <path id="路径_2481" data-name="路径 2481" class="cls-3" d="M1746.514,147.875h62.153q4.513,0,4.515,4.516,0,4.678-4.515,4.679h-26.52v5.5h19.376a5.249,5.249,0,0,1,3.941,1.519,5.468,5.468,0,0,1,1.477,3.983v25.37h4.927q4.6,0,4.6,4.6,0,4.682-4.6,4.681h-4.927v8.293a14.939,14.939,0,0,1-.984,6.076,6.4,6.4,0,0,1-3.532,3.2q-3.036,1.395-9.852,1.561-5.417.163-6.813-3.614-1.067-2.955.615-4.31t5.3-1.272h3.448a2.6,2.6,0,0,0,1.6-.369,1.8,1.8,0,0,0,.451-1.437V202.72h-39.328v14.369q0,4.843-4.843,4.843t-4.845-4.843V202.72h-4.926q-4.6,0-4.6-4.681,0-4.6,4.6-4.6h4.926v-25.37a5.469,5.469,0,0,1,1.479-3.983,5.246,5.246,0,0,1,3.94-1.519h18.8v-5.5h-25.863q-4.517,0-4.516-4.679Q1742,147.876,1746.514,147.875Zm11.33,30.3h14.533V171.6H1759.9q-2.055,0-2.053,1.971Zm14.533,8.456h-14.533v6.815h14.533Zm9.771-8.456h15.024v-4.6q0-1.971-2.052-1.971h-12.972Zm15.024,8.456h-15.024v6.815h15.024Z" transform="translate(-1738.632 -143.441)"/>
    <path id="路径_2482" data-name="路径 2482" class="cls-3" d="M1804.471,156.512h9.44v-7.143q0-4.68,4.763-4.679,4.68,0,4.679,4.679v7.143h7.473q4.187,0,4.188,4.188,0,4.354-4.187,4.352h-7.473v3.038q3.369,1.971,10.429,7.225,1.725,1.314,1.724,2.463a6.314,6.314,0,0,1-1.314,3.12q-1.56,2.383-3.038,2.587t-3.366-1.765q-.737-.656-2.217-2.134t-2.218-2.136v12.89q0,4.68-4.679,4.681-4.763,0-4.763-4.681v-11.9a57.035,57.035,0,0,1-6.156,8.867q-1.808,1.89-3.162,1.889c-.9,0-1.931-.629-3.078-1.889q-1.809-2.051-1.725-3.531t2.134-3.284a51.492,51.492,0,0,0,10.427-15.435h-7.881q-4.27,0-4.27-4.352Q1800.2,156.513,1804.471,156.512Zm9.194,47.7a74.12,74.12,0,0,1-3.694,10.181q-1.971,4.022-6.4,1.888-4.847-2.381-2.3-6.731a59.381,59.381,0,0,0,3.366-7.883q1.393-4.926,6.158-3.12Q1814.9,200.194,1813.666,204.216Zm33.418,17.242h-15.026q-8.374,0-11.289-2.463t-2.915-9.115v-6.65q0-4.843,4.927-4.843,4.843,0,4.844,4.843v6.486q0,1.892.987,2.382a12.216,12.216,0,0,0,4.431.493h13.22q2.38,0,3.2-.821a12.685,12.685,0,0,1,2.463-5.747,3.764,3.764,0,0,1,4.6-.986,3.934,3.934,0,0,1,2.381,3.16,14.6,14.6,0,0,1,.082,5.133q-1.232,4.68-3.859,6.4T1847.083,221.458ZM1843.8,148.8h22.825a5.473,5.473,0,0,1,3.981,1.477,5.251,5.251,0,0,1,1.519,3.941v34.32a5.214,5.214,0,0,1-5.5,5.5h-27.506q.656.658,1.93,1.847t2.3,2.176q1.027.986,1.847,1.806a4.18,4.18,0,0,1,1.355,3.162,5.194,5.194,0,0,1-2.094,2.915,5.826,5.826,0,0,1-3.284,1.6,4.317,4.317,0,0,1-3.038-1.685q-2.216-2.462-4.843-5.09a4.064,4.064,0,0,1-1.15-3.693,6.466,6.466,0,0,1,2.381-3.614,3.422,3.422,0,0,1,1.93-.738,2.4,2.4,0,0,1,1.849.574V154.214a5.245,5.245,0,0,1,1.518-3.941A5.473,5.473,0,0,1,1843.8,148.8Zm16.83,7.881H1849.3q-1.969,0-1.971,2.053V161.6H1862.6V158.73Q1862.6,156.677,1860.629,156.677Zm1.971,12.317h-15.272v4.843H1862.6Zm0,12.151h-15.272v5.09h13.3q1.971,0,1.971-2.052Zm2.791,31.365q-1.888-3.613-5.091-8.622-2.38-4.35,2.218-6.486,4.1-1.888,6.322,1.725,1.888,2.792,5.911,9.2,1.151,2.3.615,3.695a5.7,5.7,0,0,1-2.914,2.627,5.985,5.985,0,0,1-4.146.78Q1866.622,214.974,1865.392,212.509Z" transform="translate(-1714.648 -144.69)"/>
    <path id="路径_2483" data-name="路径 2483" class="cls-3" d="M1864.861,156.512h9.442v-7.143q0-4.68,4.763-4.679,4.68,0,4.679,4.679v7.143h7.472q4.187,0,4.188,4.188,0,4.354-4.188,4.352h-7.472v3.038q3.367,1.971,10.427,7.225,1.725,1.314,1.724,2.463a6.314,6.314,0,0,1-1.314,3.12q-1.558,2.383-3.038,2.587t-3.366-1.765q-.737-.656-2.216-2.134t-2.217-2.136v12.89q0,4.68-4.679,4.681-4.764,0-4.763-4.681v-11.9a57.116,57.116,0,0,1-6.158,8.867q-1.808,1.89-3.162,1.889t-3.078-1.889q-1.808-2.051-1.725-3.531t2.134-3.284a51.527,51.527,0,0,0,10.429-15.435h-7.883q-4.27,0-4.27-4.352Q1860.592,156.513,1864.861,156.512Zm9.2,47.7a74.1,74.1,0,0,1-3.695,10.181q-1.972,4.022-6.4,1.888-4.847-2.381-2.3-6.731a59.354,59.354,0,0,0,3.366-7.883q1.395-4.926,6.158-3.12Q1875.287,200.194,1874.057,204.216Zm33.417,17.242h-15.026q-8.374,0-11.289-2.463t-2.915-9.115v-6.65q0-4.843,4.927-4.843,4.843,0,4.844,4.843v6.486q0,1.892.987,2.382a12.219,12.219,0,0,0,4.433.493h13.219q2.38,0,3.2-.821a12.7,12.7,0,0,1,2.463-5.747,3.764,3.764,0,0,1,4.6-.986,3.939,3.939,0,0,1,2.382,3.16,14.669,14.669,0,0,1,.082,5.133q-1.234,4.68-3.861,6.4T1907.473,221.458Zm-3.284-72.662h22.825a5.473,5.473,0,0,1,3.982,1.477,5.252,5.252,0,0,1,1.519,3.941v34.32a5.214,5.214,0,0,1-5.5,5.5h-27.506q.658.658,1.93,1.847t2.3,2.176q1.028.986,1.848,1.806,1.56,1.808,1.354,3.162a5.2,5.2,0,0,1-2.093,2.915,5.834,5.834,0,0,1-3.284,1.6,4.313,4.313,0,0,1-3.038-1.685q-2.218-2.462-4.845-5.09a4.064,4.064,0,0,1-1.15-3.693,6.467,6.467,0,0,1,2.382-3.614,3.413,3.413,0,0,1,1.928-.738,2.4,2.4,0,0,1,1.849.574V154.214a5.25,5.25,0,0,1,1.518-3.941A5.473,5.473,0,0,1,1904.189,148.8Zm16.832,7.881h-11.33q-1.972,0-1.973,2.053V161.6h15.272V158.73Q1922.991,156.677,1921.021,156.677Zm1.97,12.317h-15.272v4.843h15.272Zm0,12.151h-15.272v5.09h13.3q1.971,0,1.97-2.052Zm2.793,31.365q-1.89-3.613-5.091-8.622-2.381-4.35,2.217-6.486,4.105-1.888,6.322,1.725,1.89,2.792,5.911,9.2,1.151,2.3.615,3.695a5.7,5.7,0,0,1-2.914,2.627,5.984,5.984,0,0,1-4.146.78Q1927.012,214.974,1925.783,212.509Z" transform="translate(-1690.964 -144.69)"/>
  </g>
</svg>
