<?xml version="1.0" encoding="UTF-8"?>
<svg width="151px" height="236px" viewBox="0 0 151 236" version="1.1" xmlns="http://www.w3.org/2000/svg" xmlns:xlink="http://www.w3.org/1999/xlink">
    <title>女孩02</title>
    <g id="人教一年级上" stroke="none" stroke-width="1" fill="none" fill-rule="evenodd">
        <g id="第3课练一练第1—4题" transform="translate(-948.000000, -379.000000)" fill-rule="nonzero">
            <g id="女孩02" transform="translate(948.000000, 379.000000)">
                <path d="M11.7141613,125.862026 C9.58116134,125.724026 8.71416134,122.673026 9.87816134,120.882026 C10.7718634,119.193389 12.4272194,118.041384 14.3211613,117.790026 C13.3338507,116.775478 12.9642707,115.310507 13.3521613,113.949026 C13.554542,112.453805 14.351734,111.103519 15.5631613,110.204026 C16.8346825,109.330402 18.5522851,109.508772 19.6171613,110.625026 C17.8296504,108.845858 17.6440643,106.015036 19.1839925,104.017724 C20.7239206,102.020411 23.5088418,101.479852 25.6841613,102.756026 L33.7781613,110.986026 C35.1901613,111.051026 34.0201613,114.869026 33.0781613,115.919026 C32.1361613,116.969026 30.5671613,117.136026 29.1551613,117.168026 C27.7961613,117.199026 27.6751613,116.798026 26.3191613,116.707026 C27.1831613,118.132026 28.4961613,119.662026 27.9041613,121.878026 C26.8681613,125.755026 22.1791613,123.316026 22.1791613,123.316026 C23.9161613,124.157026 22.4791613,127.979026 21.0201613,129.244026 C19.4222404,130.402143 17.3104423,130.568183 15.5511613,129.674026 L11.7141613,125.862026 Z" id="路径_3952" fill="#111111"></path>
                <path d="M7.88416134,129.204026 C5.65172853,128.85317 3.36543852,129.205445 1.34216134,130.212026 C0.207732559,131.056782 -0.269746088,132.525701 0.151161342,133.876026 C0.977161342,136.067026 4.38916134,136.003026 6.64116134,135.239026 C5.38108578,135.985997 4.37882452,137.099543 3.76816134,138.431026 C3.28216134,139.831026 4.05116134,141.522026 5.41216134,141.618026 C6.58016134,141.700026 6.86516134,141.579026 7.28216134,141.294026 C8.96016134,140.149026 9.94716134,138.429026 11.2061613,136.763026 C10.9304929,138.035373 10.9685889,139.355691 11.3171613,140.610026 C11.7661613,141.789026 13.0651613,142.650026 14.1771613,142.087026 C15.0967429,141.421486 15.6518106,140.363897 15.6771613,139.229026 C15.9262208,137.393996 15.8075831,135.527747 15.3281613,133.739026 L7.88416134,129.204026 Z" id="路径_3953" fill="#111111"></path>
                <path d="M13.5051613,133.387026 L8.57816134,129.449026 C7.58874332,128.65843 7.42756589,127.215444 8.21816147,126.226026 C9.00875705,125.236608 10.4517432,125.075431 11.4411613,125.866026 L16.3681613,129.803026 C17.0267173,130.30849 17.3607958,131.130318 17.241695,131.951905 C17.1225943,132.773492 16.5689007,133.466624 15.7939214,133.764277 C15.0189421,134.061929 14.1436176,133.917652 13.5051613,133.387026" id="路径_3954" fill="#F9DC0F"></path>
                <path d="M135.746161,118.692026 C138.113161,118.180026 138.410161,114.751026 136.699161,113.026026 C135.293356,111.351543 133.201854,110.40792 131.016161,110.462026 C132.039161,109.342026 131.840161,107.590026 131.250161,106.167026 C130.661631,104.564238 129.469799,103.255052 127.929161,102.519026 C126.343161,101.860026 124.249161,102.253026 123.465161,103.664026 C124.984185,101.363623 124.563284,98.2936953 122.481161,96.4870261 C120.302809,94.6837324 117.180262,94.5829519 114.890161,96.2420261 L107.624161,106.470026 C106.051161,106.781026 108.217161,110.685026 109.514161,111.652026 C110.811161,112.619026 112.608161,112.532026 114.204161,112.325026 C115.738161,112.125026 115.786161,111.674026 117.290161,111.345026 C116.635161,113.024026 115.500161,114.894026 116.659161,117.174026 C118.689161,121.164026 123.417161,117.741026 123.417161,117.741026 C121.651161,118.941026 124.117161,122.805026 126.041161,123.916026 C128.056776,124.890359 130.439888,124.710243 132.286161,123.444026 L135.746161,118.692026 Z" id="路径_3955" fill="#111111"></path>
                <path d="M140.796161,121.632026 C143.264678,120.874088 145.90214,120.862607 148.377161,121.599026 C148.377161,121.599026 150.968161,122.862026 150.532161,125.335026 C150.091161,127.829026 146.241161,128.344026 143.539161,127.906026 C145.109394,128.484483 146.478294,129.505688 147.480161,130.846026 C148.340161,132.272026 147.851161,134.218026 146.342161,134.554026 C145.047161,134.842026 144.700161,134.760026 144.167161,134.525026 C142.026161,133.581026 140.533161,131.900026 138.745161,130.325026 C139.335861,131.62575 139.588341,133.054636 139.479161,134.479026 C139.400621,135.151072 139.042961,135.759066 138.493713,136.154212 C137.944466,136.549358 137.254314,136.695193 136.592161,136.556026 C135.427671,136.021052 134.571133,134.983706 134.266161,133.739026 C133.579301,131.831372 133.29632,129.801808 133.435161,127.779026 L140.796161,121.632026 Z" id="路径_3956" fill="#111111"></path>
                <path d="M135.405161,127.087026 L140.067161,122.013026 C140.512536,121.512302 140.731458,120.849936 140.672204,120.182425 C140.612949,119.514913 140.280774,118.901468 139.754161,118.487026 C138.668158,117.564402 137.054277,117.635937 136.054161,118.651026 L131.391161,123.724026 C130.94618,124.225005 130.727612,124.887381 130.787048,125.554805 C130.846484,126.22223 131.178658,126.835561 131.705161,127.250026 C132.790909,128.172916 134.404777,128.101818 135.405161,127.087026" id="路径_3957" fill="#F8DD0D"></path>
                <polygon id="路径_3958" fill="#FFCBA6" points="66.7401613 139.113026 51.3171613 153.513026 37.1261613 166.763026 36.9771613 166.602026 36.5361613 166.132026 32.3361613 161.625026 32.4561613 161.464026 57.6951613 128.198026"></polygon>
                <path d="M35.0911613,170.797026 C34.9911613,170.871026 34.8851613,170.940026 34.7761613,171.009026 L34.7991613,171.244026 L35.1601613,174.944026 C35.2120028,175.560621 34.7699385,176.109031 34.1563926,176.189268 C33.5428468,176.269505 32.974623,175.853216 32.8661613,175.244026 L32.3051613,171.744026 C32.0348532,171.753006 31.7642653,171.739627 31.4961613,171.704026 L30.1321613,175.660026 C29.9286348,176.27806 29.2715277,176.623207 28.6471613,176.440026 C28.1546804,176.281609 27.8224423,175.821338 27.8271613,175.304026 C27.8274587,175.185858 27.8446321,175.068338 27.8781613,174.955026 L29.0541613,170.792026 C28.9331613,170.723026 28.9541613,170.735026 28.8301613,170.666026 L25.3901613,174.484026 C25.1219938,174.82028 24.692344,174.984332 24.2683122,174.912379 C23.8442803,174.840426 23.4927973,174.543826 23.3505626,174.137932 C23.2083279,173.732039 23.2977924,173.28092 23.5841613,172.960026 L27.0931613,168.590026 C26.9968777,168.457168 26.8894923,168.332722 26.7721613,168.218026 L23.4051613,170.132026 C23.0446804,170.35228 22.5940779,170.363489 22.2230916,170.161431 C21.8521053,169.959372 21.6170968,169.574744 21.6065916,169.152431 C21.5960863,168.730118 21.8116803,168.33428 22.1721613,168.114026 L25.9341613,165.688026 C26.3071365,165.44358 26.5860337,165.07971 26.7251613,164.656026 C26.750232,164.564542 26.7809578,164.474703 26.8171613,164.387026 L24.1101613,163.360026 C23.5313312,163.153694 23.2144642,162.531164 23.3882598,161.941747 C23.5620554,161.35233 24.1659851,161.001305 24.7641613,161.142026 L28.9151613,161.961026 C29.9964959,161.375541 31.2529591,161.200461 32.4531613,161.468026 C34.6301793,161.94103 36.3417998,163.622697 36.8531613,165.791026 C36.920463,166.058174 36.9626464,166.331027 36.9791613,166.606026 C37.0836512,167.926529 36.6378002,169.231512 35.7471613,170.212026 C35.5486496,170.427775 35.3296178,170.623698 35.0931613,170.797026" id="路径_3959" fill="#FFCBA6"></path>
                <path d="M52.2631613,150.532026 L51.3171613,153.519026 L37.1271613,166.769026 C37.173108,168.061193 36.6712091,169.312672 35.7451613,170.215026 C35.5466496,170.430775 35.3276178,170.626698 35.0911613,170.800026 C35.9401613,169.888026 36.0911613,165.800026 36.0911613,165.800026 L36.6761613,165.169026 L36.9911613,164.825026 L51.0601613,149.345026 L52.2631613,150.532026 Z" id="路径_3960" fill="#FFB885"></path>
                <polygon id="路径_3961" fill="#FFCBA6" points="107.405161 161.606026 104.263161 165.287026 103.030161 166.732026 102.887161 166.898026 82.4471613 149.342026 72.4591613 140.765026 80.9271613 129.579026 107.278161 161.452026"></polygon>
                <path d="M118.181161,169.192026 C117.861228,169.750781 117.154903,169.953728 116.587161,169.650026 L113.187161,167.896026 C113.07582,168.014747 112.975414,168.143267 112.887161,168.280026 L116.533161,172.460026 C116.815759,172.766203 116.913546,173.199885 116.789688,173.59771 C116.665829,173.995535 116.339143,174.297062 115.932688,174.38871 C115.526232,174.480358 115.101758,174.348203 114.819161,174.042026 L111.258161,170.407026 C111.138161,170.482026 111.158161,170.470026 111.041161,170.539026 L112.382161,174.615026 C112.58621,175.221695 112.278194,175.881728 111.682161,176.115026 C111.072212,176.321759 110.408283,176.007056 110.182161,175.404026 L108.668161,171.545026 C108.403573,171.588673 108.136252,171.613734 107.868161,171.620026 L107.587161,174.050026 L107.461161,175.106026 C107.375817,175.708211 106.834206,176.138346 106.228339,176.085106 C105.622471,176.031866 105.164177,175.513866 105.185161,174.906026 L105.397161,170.996026 C105.033583,170.788725 104.697599,170.536401 104.397161,170.245026 C103.476753,169.310194 102.984748,168.035831 103.038161,166.725026 C103.058892,165.879725 103.277034,165.050988 103.675161,164.305026 C103.945689,163.800525 104.289415,163.338854 104.695161,162.935026 C105.410482,162.215438 106.305498,161.700596 107.287161,161.444026 C108.461876,161.13395 109.708881,161.256025 110.801161,161.788026 L114.867161,160.802026 C115.455285,160.632577 116.072679,160.95561 116.268792,161.535387 C116.464905,162.115165 116.170385,162.746658 115.600161,162.969026 L112.974161,164.099026 C113.012616,164.185 113.046007,164.273151 113.074161,164.363026 C113.224965,164.776792 113.514818,165.125323 113.894161,165.349026 L117.712161,167.596026 C118.27378,167.910623 118.482283,168.615541 118.182161,169.185026" id="路径_3962" fill="#FFCBA6"></path>
                <path d="M107.861161,171.623026 L107.454161,175.109026 C107.368817,175.711211 106.827206,176.141346 106.221339,176.088106 C105.615471,176.034866 105.157177,175.516866 105.178161,174.909026 L105.390161,170.999026 C105.026365,170.792058 104.690341,170.539704 104.390161,170.248026 C103.43762,169.392989 102.89247,168.174034 102.890161,166.894026 L82.4501613,149.338026 L84.4221613,146.038026 L103.670161,164.310026 C103.670161,164.310026 104.355161,169.991026 107.861161,171.621026" id="路径_3963" fill="#FFB885"></path>
                <polygon id="路径_3964" fill="#FFCBA6" points="65.7421613 221.802026 52.9971613 216.160026 51.9641613 202.073026 51.2131613 191.879026 51.0581613 189.768026 51.0241613 189.298026 64.2631613 187.451026 64.3831613 190.278026 64.8991613 202.358026 64.8991613 202.375026 64.9161613 202.775026"></polygon>
                <polygon id="路径_3965" fill="#FFB885" points="64.9171613 202.773026 63.4781613 202.773026 62.3261613 195.010026 51.2141613 191.880026 51.0591613 189.769026 64.3841613 190.280026 64.9001613 202.360026 64.9001613 202.378026"></polygon>
                <path d="M65.7421613,221.802026 L61.5421613,222.426026 L52.9981613,216.163026 L52.3671613,207.655026 L52.2031613,205.396026 L51.9621613,202.076026 C51.9621613,202.076026 56.9771613,204.922026 64.8981613,202.363026 L64.8981613,202.375026 L65.0391613,205.693026 L65.1331613,207.698026 L65.7421613,221.802026 Z" id="路径_3966" fill="#FFFFE8"></path>
                <path d="M65.1351613,207.699026 C62.9020729,208.610066 60.5098214,209.066963 58.0981613,209.043026 C56.1084421,209.016855 54.1502254,208.542426 52.3691613,207.655026 L52.2051613,205.395026 C53.9561613,206.556026 58.2861613,208.530026 65.0411613,205.695026 L65.1351613,207.699026 Z" id="路径_3967" fill="#F8E343"></path>
                <path d="M65.7191613,223.041026 C65.1461613,224.526026 58.1351613,233.648026 55.4851613,234.611026 C52.8351613,235.574026 45.4171613,236.371026 44.5631613,231.417026 C44.0471613,228.407026 45.9221613,225.117026 48.2951613,221.974026 C49.0581613,220.960026 49.8781613,219.956026 50.6751613,218.987026 C50.6779303,218.983698 50.6818645,218.981553 50.6861613,218.981026 C51.4861613,218.007026 52.2861613,217.061026 52.9971613,216.161026 C52.9971613,216.161026 59.3321613,213.561026 61.7971613,221.022026 C63.6601613,221.705026 65.5811613,217.938026 65.5811613,217.938026 C65.5811613,217.938026 66.2921613,221.550026 65.7241613,223.038026" id="路径_3968" fill="#FF973C"></path>
                <path d="M58.6671613,223.385026 L56.6431613,226.068026 C56.6431613,226.068026 51.7581613,222.135026 48.2951613,221.974026 C49.0581613,220.960026 49.8781613,219.956026 50.6751613,218.987026 C50.6779303,218.983698 50.6818645,218.981553 50.6861613,218.981026 C50.6861613,218.981026 57.1371613,218.844026 58.6671613,223.381026" id="路径_3969" fill="#FFFFFF"></path>
                <polygon id="路径_3970" fill="#FFCBA6" points="91.8241613 216.189026 81.1601613 225.162026 76.5501613 206.270026 76.5441613 206.259026 74.0561613 196.082026 73.0011613 191.759026 86.2281613 189.843026 88.8881613 202.371026 89.4561613 205.054026"></polygon>
                <path d="M89.4571613,205.055026 L86.6301613,206.866026 C86.6301613,206.866026 84.7301613,197.716026 84.3711613,194.935026 C83.6481613,195.445026 73.4301613,193.514026 73.4301613,193.514026 L73.0011613,191.759026 L86.2291613,189.844026 L88.8891613,202.371026 L89.4571613,205.055026 Z" id="路径_3971" fill="#FFB885"></path>
                <path d="M81.1581613,225.160026 L86.4871613,223.922026 L91.8221613,216.191026 L90.0541613,207.845026 L89.5811613,205.629026 L88.8881613,202.373026 C88.8881613,202.373026 84.8641613,206.505026 76.5451613,206.257026 L76.5451613,206.269026 L77.3351613,209.494026 L77.8051613,211.447026 L81.1581613,225.160026 Z" id="路径_3972" fill="#FFFFE8"></path>
                <path d="M77.8051613,211.447026 C80.2038595,211.699331 82.628789,211.470878 84.9381613,210.775026 C86.8413356,210.195039 88.5893142,209.193557 90.0521613,207.845026 L89.5801613,205.629026 C88.2221613,207.229026 84.6151613,210.335026 77.3361613,209.494026 L77.8051613,211.447026 Z" id="路径_3973" fill="#F8E343"></path>
                <path d="M94.5761613,234.600026 C91.7671613,234.416026 82.4901613,227.611026 81.5271613,226.338026 C80.5641613,225.065026 80.2371613,221.407026 80.2371613,221.407026 C80.2371613,221.407026 83.1371613,224.485026 84.7321613,223.307026 C85.0191613,215.458026 91.8191613,216.186026 91.8191613,216.186026 C92.6101613,216.742026 93.4581613,217.315026 94.3301613,217.906026 C95.3731613,218.617026 96.4511613,219.351026 97.4951613,220.106026 C100.843161,222.561026 103.825161,225.306026 104.180161,228.484026 C104.736161,233.478026 97.3921613,234.779026 94.5801613,234.596026" id="路径_3974" fill="#FF973C"></path>
                <path d="M97.4951613,220.111026 C94.2551613,221.326026 90.7701613,226.355026 90.7701613,226.355026 L88.0701613,224.355026 C88.2311613,219.998026 93.4081613,218.197026 94.3311613,217.910026 C95.3751613,218.621026 96.4521613,219.356026 97.4961613,220.110026" id="路径_3975" fill="#FFFFFF"></path>
                <path d="M53.0411613,133.861026 C53.0411613,133.861026 51.9641613,143.993026 48.2501613,164.536026 C63.8501613,164.536026 90.1051613,164.823026 90.1051613,164.823026 C90.1051613,164.823026 85.0911613,145.603026 85.2051613,136.530026 C74.9901613,136.730026 53.0451613,133.861026 53.0451613,133.861026" id="路径_3976" fill="#F8CF39"></path>
                <path d="M83.7921613,164.771026 C79.2051613,164.725026 72.3311613,164.662026 65.1461613,164.611026 C59.3671613,164.570026 53.3871613,164.536026 48.2461613,164.536026 C49.0081613,160.322026 49.6634947,156.547359 50.2121613,153.212026 C52.3571613,140.266026 53.0391613,133.862026 53.0391613,133.862026 C53.0391613,133.862026 65.7621613,135.524026 76.3391613,136.235026 C81.7291613,143.196026 83.6091613,153.379026 83.7871613,164.771026" id="路径_3977" fill="#F8E343"></path>
                <path d="M68.6051613,124.364026 L61.7371613,123.964026 C57.4191613,124.641026 52.2051613,128.264026 50.6531613,132.349026 C49.0621613,136.538026 52.4991613,141.438026 56.8531613,142.479026 C61.2071613,143.520026 65.8281613,141.496026 69.1111613,138.446026 L69.5111613,138.446026 C72.7941613,141.496026 77.4111613,143.519026 81.7691613,142.479026 C86.1271613,141.439026 89.5691613,136.538026 87.9691613,132.349026 C86.4171613,128.263026 81.2021613,124.641026 76.8851613,123.964026 L68.6051613,124.364026 Z" id="路径_3978" fill="#FFFFE8"></path>
                <path d="M68.3861613,125.389026 L63.2991613,125.154026 C62.3254336,125.15672 61.3634392,125.366709 60.4771613,125.770026 C58.9675716,126.368274 57.5645076,127.206398 56.3221613,128.252026 C54.0111613,130.191026 52.1481613,133.052026 53.2461613,136.141026 C54.267378,138.980714 56.9161793,140.911256 59.9321613,141.014026 C61.6673772,140.943305 63.3534607,140.417374 64.8211613,139.489026 C65.5718373,139.046425 66.2933213,138.556083 66.9811613,138.021026 C67.3191613,137.761026 67.6524947,137.494359 67.9811613,137.221026 C68.125828,137.098359 68.2704947,136.973693 68.4151613,136.847026 L68.6691613,136.623026 C68.8751613,136.523026 68.9001613,136.464026 68.7461613,136.451026 C68.8591613,136.368026 69.0401613,136.551026 68.8801613,136.470026 C69.0636251,136.601396 69.2334725,136.750808 69.3871613,136.916026 C69.7391613,137.220026 70.0984947,137.514693 70.4651613,137.800026 C71.1757456,138.361547 71.9241857,138.873427 72.7051613,139.332026 C74.1898494,140.265609 75.8988868,140.781395 77.6521613,140.825026 C80.714902,140.653898 83.3872181,138.689283 84.4641613,135.817026 C85.5901613,132.812026 83.9131613,129.999026 81.6451613,128.069026 C79.6021613,126.332026 76.9051613,124.896026 74.1691613,125.054026 L68.3821613,125.388026 C67.8321613,125.420026 67.8291613,126.281026 68.3821613,126.248026 L72.8211613,125.992026 C73.5321613,125.951026 74.2501613,125.876026 74.9631613,125.868026 C76.0374838,125.948602 77.0826511,126.255303 78.0301613,126.768026 C80.5071613,127.924026 83.4991613,130.177026 83.9431613,133.080026 C84.3871613,135.983026 81.9671613,138.820026 79.3251613,139.680026 C75.9791613,140.771026 72.6051613,138.531026 70.1631613,136.456026 C69.7631613,136.119026 69.4031613,135.586026 68.8511613,135.588026 C68.2511613,135.588026 67.7991613,136.247026 67.3661613,136.611026 C66.0919997,137.728804 64.6691447,138.664698 63.1381613,139.392026 C61.6674152,140.132607 59.9809703,140.325111 58.3811613,139.935026 C56.957485,139.50554 55.7179553,138.613022 54.8591613,137.399026 C53.9981618,136.25837 53.625506,134.822423 53.8231613,133.407026 C54.1651368,131.996681 54.9162547,130.718842 55.9821613,129.734026 C57.2017531,128.501927 58.6403209,127.507952 60.2241613,126.803026 C61.1729904,126.306206 62.2243319,126.036781 63.2951613,126.016026 L68.3821613,126.251026 C68.9361613,126.277026 68.9341613,125.417026 68.3821613,125.391026" id="路径_3979" fill="#F8E343"></path>
                <path d="M97.5581613,186.560026 C86.1581613,194.951026 49.4821613,194.251026 39.0761613,186.560026 C39.2618073,185.456953 39.5068301,184.364699 39.8101613,183.288026 C39.9251613,182.869026 40.0451613,182.449026 40.1771613,182.029026 C40.5611613,180.792026 41.0021613,179.541026 41.4771613,178.310026 C43.3892694,173.556875 45.6528685,168.952797 48.2491613,164.536026 L89.8171613,164.886026 C91.9292972,169.333331 93.8121004,173.88597 95.4581613,178.526026 L95.4581613,178.534026 C95.7581613,179.408026 96.0431613,180.274026 96.3011613,181.127026 C96.5081613,181.806026 96.7011613,182.463026 96.8631613,183.106026 L96.8631613,183.113026 C97.1622886,184.24733 97.394027,185.398342 97.5571613,186.560026" id="路径_3980" fill="#F8CF39"></path>
                <path d="M83.8051613,165.648026 C83.8051613,175.865026 82.7331613,185.188026 78.4051613,192.131026 L78.3991613,192.131026 C68.1531613,193.146026 56.4681613,192.476026 48.0111613,190.308026 C44.8278528,189.614244 41.7985378,188.343274 39.0731613,186.558026 C39.2586999,185.45625 39.5037248,184.365322 39.8071613,183.290026 C39.9211613,182.866026 40.0421613,182.447026 40.1741613,182.029026 C40.5581613,180.790026 40.9991613,179.540026 41.4741613,178.308026 C43.3866758,173.555873 45.6499159,168.952514 48.2451613,164.536026 L65.1651613,164.673026 L83.7881613,164.823026 C83.7991613,165.098026 83.7991613,165.373026 83.7991613,165.648026" id="路径_3981" fill="#F8E343"></path>
                <path d="M97.5581613,186.560026 C86.1581613,194.951026 49.4821613,194.251026 39.0761613,186.560026 C39.2618073,185.456953 39.5068301,184.364699 39.8101613,183.288026 C39.9251613,182.869026 40.0451613,182.449026 40.1771613,182.029026 C40.1771613,182.029026 42.3611613,182.911026 45.9621613,183.929026 C46.0191613,183.943026 46.0771613,183.964026 46.1341613,183.978026 C47.8771613,184.468026 49.9521613,184.985026 52.2631613,185.453026 C52.3831613,185.474026 52.5041613,185.503026 52.6301613,185.531026 C54.4761613,185.887026 56.4771613,186.215026 58.5811613,186.468026 C58.7361613,186.488026 58.8811613,186.502026 59.0401613,186.523026 C60.9151613,186.733026 62.8701613,186.887026 64.8771613,186.943026 C65.0491613,186.950026 65.2211613,186.950026 65.3931613,186.957026 C66.7264947,186.985026 68.0834947,186.968693 69.4641613,186.908026 C70.0431613,186.880026 70.6161613,186.852026 71.1891613,186.808026 L71.7511613,186.766026 C73.7411613,186.619026 75.6791613,186.389026 77.5311613,186.109026 C77.6861613,186.088026 77.8401613,186.060026 77.9891613,186.039026 C80.0591613,185.717026 82.0321613,185.326026 83.8611613,184.913026 C84.0151613,184.878026 84.1701613,184.844026 84.3191613,184.813026 C86.5191613,184.303026 88.5101613,183.751026 90.2481613,183.227026 C90.3621613,183.191026 90.4711613,183.157026 90.5801613,183.127026 C93.1491613,182.327026 95.1211613,181.596026 96.3021613,181.127026 C96.5091613,181.806026 96.7021613,182.463026 96.8641613,183.106026 L96.8641613,183.113026 C97.1632886,184.24733 97.395027,185.398342 97.5581613,186.560026" id="路径_3982" fill="#FFFFE8"></path>
                <path d="M43.0891613,179.087026 C44.2261613,179.087026 45.1991613,180.332026 45.2581613,181.862026 L45.2581613,181.889026 L45.2581613,181.922026 C45.2581613,181.952026 45.2581613,181.984026 45.2581613,182.015026 C45.2617776,182.516548 45.1623926,183.013473 44.9661613,183.475026 C44.9325309,183.550039 44.8948075,183.623149 44.8531613,183.694026 L44.8451613,183.707026 L44.8381613,183.720026 C44.5259146,184.422327 43.8500963,184.893667 43.0831613,184.944026 C42.1461696,184.846626 41.3664762,184.181102 41.1231613,183.271026 C41.2111613,182.959026 41.2961613,182.671026 41.3801613,182.405026 C41.6991613,181.376026 42.0711613,180.305026 42.4871613,179.205026 C42.677869,179.128342 42.881615,179.089291 43.0871613,179.090026 M43.0871613,177.823026 C42.513669,177.824444 41.9533177,177.994879 41.4761613,178.313026 C41.0001613,179.543026 40.5591613,180.795026 40.1761613,182.032026 C40.0441613,182.452026 39.9241613,182.872026 39.8091613,183.291026 C40.1122044,184.896566 41.4584913,186.096687 43.0881613,186.214026 C44.3248015,186.16474 45.4317337,185.432692 45.9611613,184.314026 C46.0242327,184.205057 46.0816422,184.092908 46.1331613,183.978026 C46.398676,183.357025 46.5347815,182.688406 46.5331756,182.013026 C46.5331756,181.944026 46.5331756,181.874026 46.5271613,181.813026 C46.4411613,179.589026 44.9331613,177.820026 43.0921613,177.820026" id="路径_3983" fill="#FFFFE8"></path>
                <path d="M49.3961613,181.184026 C50.5751613,181.184026 51.5701613,182.525026 51.5701613,184.113026 C51.5701613,185.701026 50.5751613,187.042026 49.3961613,187.042026 C48.2171613,187.042026 47.2221613,185.701026 47.2221613,184.113026 C47.2221613,182.525026 48.2221613,181.184026 49.3961613,181.184026 M49.3961613,179.918026 C47.4961613,179.918026 45.9561613,181.796026 45.9561613,184.118026 C45.9561613,186.440026 47.4971613,188.318026 49.3961613,188.318026 C51.2951613,188.318026 52.8361613,186.440026 52.8361613,184.118026 C52.8361613,181.796026 51.2961613,179.918026 49.3961613,179.918026" id="路径_3984" fill="#FFFFE8"></path>
                <path d="M55.7051613,182.582026 C56.8831613,182.582026 57.8791613,183.924026 57.8791613,185.511026 C57.8791613,187.098026 56.8791613,188.440026 55.7051613,188.440026 C54.5311613,188.440026 53.5311613,187.099026 53.5311613,185.511026 C53.5311613,183.923026 54.5311613,182.582026 55.7051613,182.582026 M55.7051613,181.317026 C53.8051613,181.317026 52.2651613,183.194026 52.2651613,185.511026 C52.2651613,187.828026 53.8061613,189.711026 55.7051613,189.711026 C57.6041613,189.711026 59.1451613,187.833026 59.1451613,185.511026 C59.1451613,183.189026 57.6051613,181.317026 55.7051613,181.317026" id="路径_3985" fill="#FFFFE8"></path>
                <path d="M62.0101613,183.282026 C63.1881613,183.282026 64.1841613,184.623026 64.1841613,186.210026 C64.1841613,187.797026 63.1841613,189.140026 62.0101613,189.140026 C60.8361613,189.140026 59.8361613,187.798026 59.8361613,186.210026 C59.8361613,184.622026 60.8361613,183.282026 62.0101613,183.282026 M62.0101613,182.015026 C60.1101613,182.015026 58.5701613,183.894026 58.5701613,186.215026 C58.5701613,188.536026 60.1111613,190.415026 62.0101613,190.415026 C63.9091613,190.415026 65.4501613,188.536026 65.4501613,186.215026 C65.4501613,183.894026 63.9101613,182.015026 62.0101613,182.015026" id="路径_3986" fill="#FFFFE8"></path>
                <path d="M68.3171613,183.981026 C69.4951613,183.981026 70.4911613,185.322026 70.4911613,186.910026 C70.4911613,188.498026 69.4911613,189.839026 68.3171613,189.839026 C67.1431613,189.839026 66.1431613,188.497026 66.1431613,186.910026 C66.1431613,185.323026 67.1431613,183.981026 68.3171613,183.981026 M68.3171613,182.715026 C66.4171613,182.715026 64.8771613,184.593026 64.8771613,186.915026 C64.8771613,189.237026 66.4171613,191.115026 68.3171613,191.115026 C70.2171613,191.115026 71.7571613,189.237026 71.7571613,186.915026 C71.7571613,184.593026 70.2161613,182.715026 68.3171613,182.715026" id="路径_3987" fill="#FFFFE8"></path>
                <path d="M74.6241613,183.981026 C75.8021613,183.981026 76.7981613,185.322026 76.7981613,186.910026 C76.7981613,188.498026 75.7981613,189.839026 74.6241613,189.839026 C73.4501613,189.839026 72.4501613,188.497026 72.4501613,186.910026 C72.4501613,185.323026 73.4501613,183.981026 74.6241613,183.981026 M74.6241613,182.715026 C72.7241613,182.715026 71.1841613,184.593026 71.1841613,186.915026 C71.1841613,189.237026 72.7241613,191.115026 74.6241613,191.115026 C76.5241613,191.115026 78.0641613,189.237026 78.0641613,186.915026 C78.0641613,184.593026 76.5231613,182.715026 74.6241613,182.715026" id="路径_3988" fill="#FFFFE8"></path>
                <path d="M80.9311613,182.582026 C82.1091613,182.582026 83.1051613,183.924026 83.1051613,185.511026 C83.1051613,187.098026 82.1051613,188.440026 80.9311613,188.440026 C79.7571613,188.440026 78.7571613,187.099026 78.7571613,185.511026 C78.7571613,183.923026 79.7521613,182.582026 80.9311613,182.582026 M80.9311613,181.317026 C79.0311613,181.317026 77.4911613,183.194026 77.4911613,185.511026 C77.4911613,187.828026 79.0311613,189.711026 80.9311613,189.711026 C82.8311613,189.711026 84.3711613,187.833026 84.3711613,185.511026 C84.3711613,183.189026 82.8301613,181.317026 80.9311613,181.317026" id="路径_3989" fill="#FFFFE8"></path>
                <path d="M87.2381613,181.184026 C88.4161613,181.184026 89.4121613,182.525026 89.4121613,184.113026 C89.4121613,185.701026 88.4121613,187.042026 87.2381613,187.042026 C86.0641613,187.042026 85.0631613,185.701026 85.0631613,184.113026 C85.0631613,182.525026 86.0631613,181.184026 87.2381613,181.184026 M87.2381613,179.918026 C85.3381613,179.918026 83.7971613,181.796026 83.7971613,184.118026 C83.7971613,186.440026 85.3381613,188.318026 87.2381613,188.318026 C89.1381613,188.318026 90.6781613,186.440026 90.6781613,184.118026 C90.6781613,181.796026 89.1371613,179.918026 87.2381613,179.918026" id="路径_3990" fill="#FFFFE8"></path>
                <path d="M93.5441613,179.087026 C93.842049,179.087705 94.1342652,179.168531 94.3901613,179.321026 C94.6731613,180.161026 94.8981613,180.860026 95.0901613,181.496026 C95.2711613,182.096026 95.4241613,182.623026 95.5551613,183.112026 C95.3564037,184.096475 94.5418764,184.838133 93.5431613,184.944026 C92.7722724,184.891587 92.0940565,184.41595 91.7821613,183.709026 C91.6500936,183.463225 91.5493103,183.20186 91.4821613,182.931026 C91.4102045,182.630993 91.3736222,182.323567 91.3731613,182.015026 C91.3731613,181.984026 91.3731613,181.952026 91.3731613,181.928026 L91.3731613,181.895026 L91.3731613,181.862026 C91.4331613,180.332026 92.4061613,179.087026 93.5421613,179.087026 M93.5421613,177.820026 C91.7021613,177.820026 90.1941613,179.589026 90.1081613,181.813026 C90.1021613,181.876026 90.1021613,181.946026 90.1021613,182.013026 C90.1025747,182.420609 90.1509065,182.82673 90.2461613,183.223026 C90.3398048,183.603471 90.4823234,183.970188 90.6701613,184.314026 C91.1990702,185.43269 92.3057426,186.16482 93.5421613,186.214026 C95.2378593,186.084821 96.6171792,184.796901 96.8621613,183.114026 L96.8621613,183.107026 C96.6961613,182.464026 96.5071613,181.807026 96.3001613,181.128026 C96.0421613,180.275026 95.7561613,179.409026 95.4571613,178.535026 L95.4571613,178.527026 C94.9204437,178.075999 94.2432054,177.826323 93.5421613,177.821026" id="路径_3991" fill="#FFFFE8"></path>
                <path d="M76.3441613,127.268026 L69.4641613,134.148026 L60.8641613,127.268026 L61.1741613,119.293026 C61.1741613,119.293026 69.1031613,120.399026 75.0741613,119.608026 L76.3441613,127.268026 Z" id="路径_3992" fill="#FFB885"></path>
                <path d="M25.3151613,80.6540261 L25.3151613,93.5320261 C24.7926326,93.5991354 24.2658898,93.627879 23.7391613,93.6180261 C22.74133,93.6075102 21.7460233,93.515538 20.7631613,93.3430261 C20.2411613,93.2430261 19.6851613,93.1250261 19.1061613,92.9640261 C14.9951613,91.8410261 10.9061613,89.6850261 9.05516134,85.8490261 C7.52784042,82.6337855 7.84556541,78.8459079 9.88716134,75.9300261 C10.332791,75.3214027 10.8682228,74.7839478 11.4751613,74.3360261 C11.7655736,74.1294425 12.0815395,73.9613755 12.4151613,73.8360261 C15.1257617,72.9526592 18.0817075,73.2370589 20.5741613,74.6210261 C20.8751492,74.7813178 21.1627448,74.9655796 21.4341613,75.1720261 C22.2549125,75.7488875 22.9606836,76.4739902 23.5151613,77.3100261 L25.3151613,80.6540261 Z" id="路径_3993" fill="#FFCBA6"></path>
                <path d="M23.8731613,85.4500261 C22.3129214,83.1255973 19.9047837,81.5042591 17.1641613,80.9330261 C14.6361613,80.4330261 13.4091613,84.0330261 15.6281613,85.4810261 C17.2445977,86.3982797 19.0361939,86.964585 20.8861613,87.1430261 C30.8061613,88.5960261 23.8731613,85.4500261 23.8731613,85.4500261" id="路径_3994" fill="#F17558"></path>
                <path d="M132.605161,72.7080261 C132.376161,73.4700261 132.124161,74.1930261 131.854161,74.8750261 L119.814161,79.9660261 C119.770588,79.9746177 119.72649,79.9802969 119.682161,79.9830261 C118.683679,80.0412307 117.685569,79.8627155 116.769161,79.4620261 C116.379689,79.3109961 115.998784,79.1387378 115.628161,78.9460261 C115.456161,78.8540261 115.290161,78.7560261 115.128161,78.6590261 C110.93153,76.0655811 108.018551,71.8273003 107.101161,66.9800261 C106.576559,64.3134094 106.849603,61.5513157 107.886161,59.0390261 L91.0011613,60.0310261 L68.9011613,61.3310261 L22.4601613,65.9180261 L21.4451613,75.1660261 L20.6591613,82.3330261 L20.1491613,87.0230261 L20.0001613,88.3480261 L19.9371613,88.9270261 L19.9081613,89.2080261 C19.4381613,88.7080261 18.9971613,88.2210261 18.5951613,87.7230261 C18.2231613,87.2700261 17.8841613,86.8230261 17.5631613,86.3810261 C17.3511613,86.0890261 17.1511613,85.7960261 16.9561613,85.5040261 C16.1884757,84.330476 15.519513,83.0952363 14.9561613,81.8110261 C14.5951613,80.9970261 14.2341613,80.1110261 13.8561613,79.1050261 C13.2359688,77.3885471 12.7567154,75.6243729 12.4231613,73.8300261 C11.4969081,68.8492583 11.1945814,63.7725209 11.5231613,58.7170261 C11.6611613,56.9220261 11.8041613,55.1330261 11.9411613,53.3440261 L11.9411613,53.4650261 C14.4131613,37.6650261 20.2721613,25.2270261 29.0851613,16.3520261 C33.7087727,11.7000117 39.1793578,7.97511245 45.2021613,5.37802608 C53.3661613,1.81102608 62.8321613,0 73.4511613,0 C76.2666404,-0.00228436003 79.0801509,0.148940156 81.8791613,0.453026076 C111.355161,3.72102608 125.079161,23.8400261 130.757161,36.0060261 C132.197738,39.0055347 133.362859,42.1297056 134.238161,45.3400261 C135.682161,52.8630261 135.063161,64.7480261 132.609161,72.7070261" id="路径_3995" fill="#111111"></path>
                <path d="M109.025161,53.8790261 C109.025161,54.2970261 109.019495,54.7153594 109.008161,55.1340261 C108.985161,56.0340261 108.933161,56.9180261 108.853161,57.7950261 C108.849658,57.9044851 108.839976,58.0136589 108.824161,58.1220261 C108.790161,58.5000261 108.756161,58.8840261 108.704161,59.2510261 C108.555161,60.5410261 108.343161,61.8140261 108.085161,63.0700261 C108.050161,63.2590261 108.010161,63.4420261 107.970161,63.6200261 C107.722828,64.7533594 107.430495,65.8733594 107.093161,66.9800261 C106.568559,64.3134094 106.841603,61.5513157 107.878161,59.0390261 L90.9931613,60.0310261 L68.8931613,61.3310261 L22.4521613,65.9180261 L21.4371613,75.1660261 L20.6511613,82.3330261 L20.1411613,87.0230261 L19.9921613,88.3480261 L19.9291613,88.9270261 L19.9001613,89.2080261 C19.4301613,88.7080261 18.9891613,88.2220261 18.5871613,87.7230261 C18.2151613,87.2700261 17.8761613,86.8230261 17.5551613,86.3810261 C17.3431613,86.0890261 17.1421613,85.7960261 16.9481613,85.5040261 C16.1804769,84.3308246 15.5115129,83.0959171 14.9481613,81.8120261 C14.5871613,80.9970261 14.2261613,80.1120261 13.8481613,79.1050261 C13.2279688,77.3885471 12.7487154,75.6243729 12.4151613,73.8300261 C11.4889081,68.8492583 11.1865814,63.7725209 11.5151613,58.7170261 C11.6521613,56.9220261 11.7961613,55.1330261 11.9331613,53.3450261 L11.9331613,53.4650261 C14.4051613,37.6650261 20.2641613,25.2270261 29.0771613,16.3520261 C33.7005989,11.6998024 39.1712268,7.97487406 45.1941613,5.37802608 C48.4206362,4.83705243 51.6866501,4.56644559 54.9581613,4.56900779 C84.8181613,4.56900779 109.025161,26.6440261 109.025161,53.8780261" id="路径_3996" fill="#222222"></path>
                <path d="M90.6781615,13.4570261 C90.6785658,14.9645478 89.7707679,16.3238541 88.3781155,16.901038 C86.9854632,17.4782219 85.38225,17.1596025 84.3161281,16.0937666 C83.2500062,15.0279308 82.9309566,13.4248032 83.5077668,12.031996 C84.0845769,10.6391888 85.4436396,9.73102608 86.9511613,9.73102608 C89.0091361,9.73102608 90.6776092,11.3990513 90.6781615,13.4570261" id="路径_3997" fill="#333333"></path>
                <path d="M85.5181613,9.44402608 C85.5181613,11.5023913 83.8495266,13.1710261 81.7911613,13.1710261 C79.7327961,13.1710261 78.0641613,11.5023913 78.0641613,9.44402608 C78.0641613,7.38566081 79.7327961,5.71702608 81.7911613,5.71702608 C83.8495266,5.71702608 85.5181613,7.38566081 85.5181613,9.44402608" id="路径_3998" fill="#333333"></path>
                <path d="M95.2651615,19.1910261 C95.2655658,20.235034 94.6369819,21.1764672 93.6725604,21.576272 C92.7081389,21.9760769 91.5978408,21.7555044 90.8594726,21.0174223 C90.1211044,20.2793402 89.9001016,19.1691276 90.2995327,18.2045512 C90.6989638,17.2399749 91.6401533,16.6110261 92.6841613,16.6110261 C94.1092178,16.6110261 95.2646092,17.7659697 95.2651615,19.1910261" id="路径_3999" fill="#333333"></path>
                <path d="M123.679161,93.0940261 C128.251161,91.8450261 132.809161,89.4480261 134.865161,85.1780261 C136.921161,80.9080261 135.979161,75.1780261 132.165161,72.3610261 C129.665161,70.5060261 122.207161,70.5060261 118.765161,75.6610261 L116.758161,79.3880261 L116.758161,93.7320261 C119.082098,93.9659691 121.42934,93.7510712 123.672161,93.0990261" id="路径_4000" fill="#FFB885"></path>
                <path d="M118.371161,84.7320261 C120.107841,82.1445617 122.788449,80.3397818 125.839161,79.7040261 C128.654161,79.1480261 130.019161,83.1520261 127.549161,84.7660261 C125.750059,85.7878093 123.755631,86.4185433 121.696161,86.6170261 C110.654161,88.2340261 118.371161,84.7320261 118.371161,84.7320261" id="路径_4001" fill="#F17558"></path>
                <path d="M115.624161,78.9460261 C115.309171,78.7761624 115.003102,78.5902514 114.707161,78.3890261 C108.681161,74.3760261 107.356161,65.5980261 108.452161,59.0390261 L109.598161,53.8790261 L107.305161,59.0390261 L79.7841613,59.0390261 L78.0641613,46.4250261 L74.6241613,59.6120261 L64.8771613,60.1860261 L63.7301613,47.5720261 L62.5831613,60.1860261 L60.2901613,60.1860261 L60.2901613,49.2920261 L58.5701613,60.1860261 L48.8231613,60.1860261 L49.3161613,49.0860261 L45.9561613,60.1860261 L24.7421613,63.6260261 L24.1691613,53.8790261 L22.1281613,65.7360261 C20.8926283,71.4480483 20.0933231,77.2457689 19.7371613,83.0790261 C19.4860492,87.4458614 20.111675,91.8187814 21.5771613,95.9400261 L21.7431613,96.3870261 C21.8581613,96.7080261 21.9901613,97.0290261 22.1281613,97.3450261 C22.2661613,97.6610261 22.3861613,97.9520261 22.5281613,98.2500261 C22.6021613,98.4340261 22.6881613,98.6170261 22.7801613,98.7950261 C26.3871613,106.386026 32.7391613,112.137026 40.2851613,116.156026 C41.1681613,116.632026 42.0681613,117.079026 42.9851613,117.504026 C45.1281274,118.49374 47.3280034,119.355258 49.5731613,120.084026 C53.3520768,121.314871 57.2345523,122.201481 61.1731613,122.733026 C61.1731613,122.733026 69.1021613,123.839026 75.0731613,123.048026 C75.5481613,123.059026 76.0181613,123.065026 76.4941613,123.065026 C77.7274947,123.053693 78.9564947,122.987026 80.1811613,122.865026 C86.2249113,122.287405 92.0813385,120.453567 97.3751613,117.481026 C99.9083168,116.071269 102.287811,114.401601 104.475161,112.499026 C109.000241,108.544462 112.648613,103.687573 115.186161,98.2400261 L115.186161,98.2340261 C117.176863,94.0046478 118.462819,89.4782988 118.993161,84.8340261 L119.681161,79.9770261 C118.261269,80.0013006 116.860997,79.6431156 115.627161,78.9400261" id="路径_4002" fill="#FFCBA6"></path>
                <path d="M119.678161,79.9830261 L118.990161,84.8400261 C118.460278,89.4843896 117.174301,94.010812 115.183161,98.2400261 L115.183161,98.2460261 C112.645982,103.693527 108.997945,108.550424 104.473161,112.505026 C102.285695,114.407452 99.9062166,116.077109 97.3731613,117.487026 C92.0773821,120.460035 86.2189003,122.293876 80.1731613,122.871026 C105.440161,113.239026 112.923161,86.8020261 114.700161,78.3900261 C114.996102,78.5912514 115.302171,78.7771624 115.617161,78.9470261 C116.850997,79.6501156 118.251269,80.0083006 119.671161,79.9840261" id="路径_4003" fill="#FFB885"></path>
                <path d="M57.2831613,81.2520261 C55.3213337,88.593778 47.7793484,92.9551203 40.4375636,90.9934159 C33.0957787,89.0317115 28.7343098,81.4897996 30.6958908,74.1479818 C32.6574719,66.806164 40.1993106,62.4445683 47.5411613,64.4060261 C54.8829973,66.3680515 59.2444896,73.9100039 57.2831613,81.2520261" id="路径_4004" fill="#FFFFFF"></path>
                <path d="M103.161161,80.6790261 C101.198859,88.0204862 93.6568252,92.3812995 86.3152739,90.4193385 C78.9737226,88.4573775 74.612559,80.915546 76.574179,73.5739036 C78.5357989,66.2322611 86.0774278,61.8707472 93.4191613,63.8320261 C96.9452229,64.7739821 99.9526147,67.0782001 101.779633,70.237693 C103.606652,73.3971858 104.103609,77.1530958 103.161161,80.6790261" id="路径_4005" fill="#FFFFFF"></path>
                <path d="M53.0311613,78.1510261 C51.4501431,84.0676331 45.3721684,87.5823701 39.4555311,86.0014652 C33.5388938,84.4205602 30.0240403,78.342653 31.6048319,72.4259853 C33.1856235,66.5093177 39.2634634,62.9943479 45.1801613,64.5750261 C48.0216051,65.3341333 50.4450962,67.1909484 51.9174573,69.7369647 C53.3898184,72.282981 53.7904319,75.309626 53.0311613,78.1510261" id="路径_4006" fill="#7C3821"></path>
                <path d="M41.8451613,71.5260261 C41.4409874,73.0373965 39.8882207,73.9350389 38.3767981,73.5310602 C36.8653756,73.1270814 35.9675326,71.5744307 36.3713161,70.062956 C36.7750997,68.5514812 38.3276345,67.6534377 39.8391613,68.0570261 C40.5652722,68.2509028 41.1845913,68.7253537 41.5608116,69.3759561 C41.9370319,70.0265584 42.0393194,70.7999904 41.8451613,71.5260261" id="路径_4007" fill="#FFFFFF"></path>
                <path d="M51.5771613,81.3910261 C49.5243463,84.5043507 46.0442327,86.3774939 42.3150454,86.3762864 C38.585858,86.3750777 35.1069588,84.4996801 33.0561613,81.3850261 C35.1086614,78.271252 38.5888884,76.3977405 42.3182776,76.398948 C46.0476668,76.4001568 49.5266792,78.2759228 51.5771613,81.3910261" id="路径_4008" fill="#9E5036"></path>
                <path d="M115.183161,98.2370261 C115.183161,98.2370261 115.189161,98.2370261 115.183161,98.2430261 C112.64659,103.690666 108.999651,108.548143 104.476161,112.504026 C102.287724,114.404923 99.9083748,116.074154 97.3761613,117.485026 C91.5558604,115.162014 87.9787678,109.264124 88.6085826,103.029092 C89.2383974,96.7940606 93.9227135,91.7306745 100.090005,90.6185565 C106.257296,89.5064384 112.415167,92.6147049 115.183161,98.2370261" id="路径_4009" fill="#F59679"></path>
                <path d="M46.6791613,107.705026 C45.738837,111.251378 43.4429319,114.286368 40.2861613,116.156026 C32.7401613,112.137026 26.3861613,106.386026 22.7811613,98.7950261 C22.6891613,98.6170261 22.6031613,98.4340261 22.5291613,98.2500261 C22.3681613,97.9120261 22.2291613,97.5740261 22.0761613,97.2300261 C21.9101613,96.8300261 21.7551613,96.4220261 21.6061613,96.0140261 C25.518651,90.4369891 32.8687237,88.470956 39.0430651,91.3499185 C45.2174065,94.2288809 48.436204,101.122951 46.6791613,107.705026" id="路径_4010" fill="#F59679"></path>
                <path d="M98.8191613,77.5320261 C97.6661041,81.8497227 94.0254044,85.047507 89.5950425,85.6339696 C85.1646806,86.2204322 80.8173493,84.0800515 78.5805936,80.2110763 C76.3438378,76.3421012 76.6582539,71.5066424 79.3772017,67.959902 C82.0961496,64.4131616 86.6840508,62.8537766 91.0011613,64.0090261 C96.8900298,65.5900076 100.387571,71.6397969 98.8191613,77.5320261" id="路径_4011" fill="#7C3821"></path>
                <path d="M97.3731613,80.7580261 C95.3274943,83.8600205 91.859839,85.7262935 88.1440455,85.725086 C84.428252,85.7238774 80.9618109,83.85535 78.9181613,80.7520261 C80.9628829,77.6486829 84.4308787,75.7813048 88.147278,75.7825125 C91.8636773,75.7837213 95.3304581,77.653354 97.3731613,80.7580261" id="路径_4012" fill="#9E5036"></path>
                <path d="M87.0361613,70.9320261 C86.7418404,72.0357564 85.8115794,72.8534777 84.6792196,73.0038332 C83.5468598,73.1541887 82.4354399,72.6075631 81.8632874,71.6188837 C81.291135,70.6302042 81.3709457,69.3942091 82.0654986,68.4873234 C82.7600516,67.5804377 83.9325421,67.1812889 85.0361613,67.4760261 C86.5426006,67.8783421 87.4379091,69.4254352 87.0361613,70.9320261" id="路径_4013" fill="#FFFFFF"></path>
                <path d="M41.1981613,58.9150261 L34.3201613,60.8380261 C33.7264088,60.9668977 33.1351681,60.6104043 32.9720066,60.0251451 C32.8088451,59.439886 33.1303741,58.828926 33.7051613,58.6320261 L40.5841613,56.7090261 C40.9817654,56.5894288 41.4129607,56.6940442 41.7115519,56.9825503 C42.0101431,57.2710564 42.1295065,57.6984042 42.0236358,58.0998813 C41.9177651,58.5013585 41.6031917,58.8142759 41.2011613,58.9180261" id="路径_4014" fill="#333333"></path>
                <path d="M94.5051613,59.6390261 L87.5971613,57.8290261 C87.2009538,57.7254191 86.8901166,57.418308 86.7817391,57.0233787 C86.6733616,56.6284494 86.783909,56.205701 87.0717391,55.9143787 C87.3595692,55.6230564 87.7809538,55.507419 88.1771613,55.6110261 L95.0871613,57.4210261 C95.6830158,57.5954854 96.0318856,58.2123906 95.8743051,58.8129294 C95.7167245,59.4134683 95.1099066,59.7796024 94.5051613,59.6390261" id="路径_4015" fill="#333333"></path>
                <path d="M79.8471613,103.726026 C78.3585285,106.974453 75.4271713,109.332284 71.9351613,110.090026 C71.1463836,110.25971 70.341982,110.346183 69.5351613,110.348026 C67.9376937,110.347159 66.3587075,110.006273 64.9031613,109.348026 C64.6161613,109.216026 64.3351613,109.078026 64.0601613,108.923026 C61.3793185,107.446938 59.4132985,104.944928 58.6131613,101.991026 L58.0001613,99.7440261 L80.3601613,95.1570261 L80.6931613,96.9860261 C81.111631,99.2649501 80.8172595,101.617478 79.8501613,103.723026" id="路径_4016" fill="#DA5257"></path>
                <path d="M62.7401613,98.7740261 L62.7401613,98.7740261 C62.8495959,99.3363142 63.1785975,99.8318093 63.6543598,100.150861 C64.1301222,100.469913 64.713416,100.586213 65.2751613,100.474026 L72.8931613,98.9500261 C73.8995502,98.7488663 74.6241613,97.8653222 74.6241613,96.8390261 L74.6241613,96.3390261 L62.7401613,98.7740261 Z" id="路径_4017" fill="#FFFFFF"></path>
                <path d="M79.8471613,103.726026 C78.3585285,106.974453 75.4271713,109.332284 71.9351613,110.090026 C71.1463836,110.25971 70.341982,110.346183 69.5351613,110.348026 C67.9376937,110.347159 66.3587075,110.006273 64.9031613,109.348026 C64.6161613,109.216026 64.3351613,109.078026 64.0601613,108.923026 C66.5168877,106.758566 69.4749198,105.241398 72.6661613,104.509026 C75.0035417,103.865344 77.4288943,103.599987 79.8501613,103.723026" id="路径_4018" fill="#EE706E"></path>
            </g>
        </g>
    </g>
</svg>