<?xml version="1.0" encoding="UTF-8"?>
<svg width="114px" height="113px" viewBox="0 0 114 113" version="1.1" xmlns="http://www.w3.org/2000/svg" xmlns:xlink="http://www.w3.org/1999/xlink">
    <title>女孩中</title>
    <g id="人教一年级上" stroke="none" stroke-width="1" fill="none" fill-rule="evenodd">
        <g id="第1课练一练第5题" transform="translate(-303.000000, -283.000000)" fill-rule="nonzero">
            <g id="女孩中" transform="translate(303.000000, 283.000000)">
                <g id="组_1694" transform="translate(0.000000, 77.696441)">
                    <path d="M8.86470518,18.0074116 C7.25170518,17.9074116 6.59370518,15.5934116 7.47670518,14.2384116 C8.15172856,12.9594816 9.40494513,12.087225 10.8387052,11.8984116 C10.0922891,11.1297069 9.81251147,10.0212689 10.1047052,8.9904116 C10.2577992,7.85896124 10.8614702,6.83733643 11.7787052,6.1574116 C12.740655,5.49543527 14.0409748,5.63021418 14.8467052,6.4754116 C13.4948993,5.12885801 13.3548894,2.98731976 14.5198673,1.47622341 C15.6848452,-0.0348729432 17.7915348,-0.444320932 19.4377052,0.520411601 L25.5647052,6.7484116 C26.6327052,6.7974116 25.7477052,9.6874116 25.0317052,10.4814116 C24.2106003,11.1851125 23.1395592,11.5263738 22.0627052,11.4274116 C21.0337052,11.4504116 20.9417052,11.1474116 19.9157052,11.0784116 C20.5697052,12.1564116 21.5637052,13.3154116 21.1157052,14.9924116 C20.3317052,17.9264116 16.7827052,16.0804116 16.7827052,16.0804116 C18.0977052,16.7174116 17.0087052,19.6104116 15.9057052,20.5674116 C14.6962212,21.4435408 13.0981128,21.5690265 11.7667052,20.8924116 L8.86470518,18.0074116 Z" id="路径_3159" fill="#111111"></path>
                    <path d="M5.96670518,20.5404116 C4.27685458,20.2750943 2.54631727,20.541734 1.01470518,21.3034116 C0.156551077,21.9434833 -0.204216156,23.0554481 0.114705181,24.0774116 C0.739705181,25.7344116 3.32270518,25.6864116 5.02670518,25.1074116 C4.0733467,25.6730924 3.315,26.5158548 2.85270518,27.5234116 C2.66942525,27.9535911 2.66454778,28.4389608 2.83914584,28.8727366 C3.01374389,29.3065124 3.3535141,29.6531588 3.78370518,29.8364116 C3.8847831,29.8791867 3.98954994,29.9126585 4.09670518,29.9364116 C4.98070518,29.9984116 5.19670518,29.9064116 5.51270518,29.6914116 C6.6835263,28.7183798 7.68654824,27.5596175 8.48170518,26.2614116 C8.27278685,27.2244945 8.30161796,28.2239731 8.56570518,29.1734116 C8.81955229,30.0617043 9.7453657,30.5760948 10.6337052,30.3224116 L10.7337052,30.2914116 C11.430218,29.7875379 11.8509143,28.9868458 11.8707052,28.1274116 C12.0596021,26.7389586 11.9698536,25.3267804 11.6067052,23.9734116 L5.96670518,20.5404116 Z" id="路径_3160" fill="#111111"></path>
                    <rect id="矩形_263" fill="#F9DC0F" transform="translate(9.442757, 20.860829) rotate(-51.376000) translate(-9.442757, -20.860829) " x="7.7072568" y="16.7383294" width="3.471" height="8.245" rx="1.446"></rect>
                </g>
                <g id="组_1695" transform="translate(81.043157, 72.397266)">
                    <path d="M21.698548,17.8835858 C23.489548,17.4965858 23.714548,14.9015858 22.420548,13.5955858 C21.3566595,12.3287484 19.7743709,11.6145106 18.120548,11.6545858 C18.7908705,10.6923991 18.8594114,9.43387936 18.297548,8.40458584 C17.8526965,7.19156607 16.9506716,6.20088219 15.784548,5.64458584 C14.5962801,5.08559247 13.1784698,5.44896143 12.405548,6.51058584 C13.5552726,4.7694592 13.2365922,2.44587272 11.660548,1.07858584 C10.0127201,-0.287379522 7.64885844,-0.363513646 5.91654805,0.89358584 L0.416548049,8.63358584 C-0.773451951,8.86958584 0.865548049,11.8235858 1.84754805,12.5555858 C2.92271126,13.1705823 4.19187353,13.3526064 5.39654805,13.0645858 C6.55754805,12.9145858 6.59654805,12.5725858 7.73254805,12.3225858 C7.23754805,13.5945858 6.37754805,15.0085858 7.25554805,16.7345858 C8.79054805,19.7555858 12.369548,17.1645858 12.369548,17.1645858 C11.033548,18.0735858 12.901548,20.9975858 14.355548,21.8375858 C15.8809333,22.5746068 17.6841891,22.4383896 19.081548,21.4805858 L21.698548,17.8835858 Z" id="路径_3161" fill="#111111"></path>
                    <path d="M25.516548,20.1065858 C27.3848715,19.532407 29.3812923,19.5237087 31.254548,20.0815858 C31.254548,20.0815858 33.215548,21.0365858 32.885548,22.9085858 C32.552548,24.7965858 29.637548,25.1865858 27.592548,24.8555858 C28.7814217,25.2926328 29.8177422,26.0656174 30.575548,27.0805858 C30.9140947,27.5467218 31.0136553,28.1449559 30.8443279,28.6956144 C30.6750004,29.2462729 30.2565107,29.6852065 29.714548,29.8805858 C28.733548,30.0995858 28.470548,30.0375858 28.068548,29.8595858 C26.5444794,29.0197774 25.1611032,27.9468174 23.968548,26.6795858 C24.4156262,27.6640432 24.6065422,28.7455566 24.523548,29.8235858 C24.4071334,30.8234089 23.5024099,31.539667 22.502548,31.4235858 C22.447548,31.4165858 22.392548,31.4075858 22.338548,31.3965858 C21.4577276,30.9916587 20.8097229,30.2070575 20.578548,29.2655858 C20.0586686,27.8217238 19.8444747,26.2855894 19.949548,24.7545858 L25.516548,20.1065858 Z" id="路径_3162" fill="#111111"></path>
                    <path d="M21.435548,24.2375858 L24.964548,20.3975858 C25.2894593,20.0327071 25.4559134,19.5535875 25.4272124,19.0658581 C25.3985113,18.5781286 25.177012,18.1218386 24.811548,17.7975858 C24.784548,17.7735858 24.756548,17.7495858 24.727548,17.7275858 L24.727548,17.7275858 C23.9061842,17.0285279 22.6844491,17.082197 21.927548,17.8505858 L18.399548,21.6895858 C18.0748896,22.0545803 17.9086019,22.5336412 17.9372981,23.0212892 C17.9659943,23.5089372 18.1873215,23.9651884 18.552548,24.2895858 C18.580548,24.3135858 18.607548,24.3365858 18.636548,24.3595858 L18.636548,24.3595858 C19.4576678,25.0577905 20.6782922,25.0045871 21.435548,24.2375858 L21.435548,24.2375858 Z" id="路径_3163" fill="#F8DD0D"></path>
                </g>
                <g id="组_1696" transform="translate(32.151705, 97.474852)" fill="#FFCBA6">
                    <polygon id="路径_3164" points="18.358 8.263 10.958 15.17 0 15.17 7.941 4.702 8.232 4.319 11.509 0 15.82 5.2"></polygon>
                </g>
                <g id="组_1699" transform="translate(54.845705, 98.516852)">
                    <g id="组_1697" fill="#FFCBA6">
                        <polygon id="路径_3165" points="6.407 0 18.085 14.128 6.585 14.128 5.68434189e-14 8.469 2.611 5.015"></polygon>
                    </g>
                    <g id="组_1698" transform="translate(8.054000, 12.460000)" fill="#FFB885">
                        <polygon id="路径_3166" points="2.512 1.439 2.757 1.669 5.68434189e-14 1.669 1 0"></polygon>
                    </g>
                </g>
                <g id="组_1702" transform="translate(38.035934, 94.273852)">
                    <path d="M27.4137716,18.372 L0.573771631,18.372 C0.835104964,16.7333333 1.05710496,15.2783333 1.23977163,14.007 C1.30877163,13.524 1.37777163,13.065 1.43977163,12.636 C1.43977163,12.605 1.44677163,12.582 1.44677163,12.559 C1.51577163,12.108 1.56977163,11.687 1.62277163,11.296 C1.67577163,10.905 1.72277163,10.546 1.76877163,10.216 C1.79177163,10.048 1.81477163,9.887 1.82977163,9.742 C1.84477163,9.597 1.86777163,9.451 1.89077163,9.313 C1.91377163,9.175 1.92177163,9.052 1.93677163,8.93 C1.95977163,8.73 1.98277163,8.555 1.99877163,8.401 C2.02077163,8.201 2.04377163,8.034 2.05977163,7.901 L2.10577163,7.487 C2.10577163,7.487 2.18977163,7.495 2.35077163,7.518 C2.35777163,7.518 2.37377163,7.518 2.38077163,7.526 C2.44977163,7.533 2.53477163,7.541 2.63377163,7.556 C2.73277163,7.571 2.84077163,7.579 2.96277163,7.594 C3.08477163,7.609 3.22377163,7.625 3.36877163,7.648 C3.51377163,7.671 3.66877163,7.686 3.83577163,7.702 C4.25777163,7.755 4.73577163,7.816 5.28377163,7.878 C5.54377163,7.908 5.82677163,7.939 6.11777163,7.978 L6.30977163,8.001 C6.54677163,8.032 6.79977163,8.055 7.05977163,8.086 C7.43477163,8.13 7.83577163,8.176 8.25977163,8.223 L8.68077163,8.269 C9.08677163,8.308 9.50777163,8.354 9.94377163,8.399 C11.5747716,8.576 13.3517716,8.752 15.1437716,8.913 L15.9167716,8.981 C17.0957716,9.089 18.2757716,9.181 19.4237716,9.257 L19.7457716,9.28 C22.2577716,9.449 24.6077716,9.548 26.4537716,9.51 C26.5189523,12.4076047 26.8287197,15.2945294 27.3797716,18.14 C27.3951711,18.2166826 27.4065202,18.2941233 27.4137716,18.372 Z" id="路径_3167" fill="#F8CF39"></path>
                    <path d="M23.9297716,18.372 L0.573771631,18.372 C0.835104964,16.7333333 1.05710496,15.2783333 1.23977163,14.007 C1.30877163,13.524 1.37777163,13.065 1.43977163,12.636 C1.43977163,12.605 1.44677163,12.582 1.44677163,12.559 C1.51577163,12.108 1.56977163,11.687 1.62277163,11.296 C1.67577163,10.905 1.72277163,10.546 1.76877163,10.216 C1.79177163,10.048 1.81477163,9.887 1.82977163,9.742 C1.84477163,9.597 1.86777163,9.451 1.89077163,9.313 C1.91377163,9.175 1.92177163,9.052 1.93677163,8.93 C1.95977163,8.73 1.98277163,8.555 1.99877163,8.401 C2.02077163,8.201 2.04377163,8.034 2.05977163,7.901 L2.10577163,7.487 C2.10577163,7.487 2.18977163,7.495 2.35077163,7.518 C2.35777163,7.518 2.37377163,7.518 2.38077163,7.526 C2.44977163,7.533 2.53477163,7.541 2.63377163,7.556 C2.73277163,7.571 2.84077163,7.579 2.96277163,7.594 C3.08477163,7.609 3.22377163,7.625 3.36877163,7.648 C3.51377163,7.671 3.66877163,7.686 3.83577163,7.702 C4.25777163,7.755 4.73577163,7.816 5.28377163,7.878 C5.54377163,7.908 5.82677163,7.947 6.11777163,7.978 L6.30977163,8.001 C6.54677163,8.032 6.79977163,8.055 7.05977163,8.086 C7.43477163,8.13 7.83577163,8.176 8.25977163,8.223 L8.68077163,8.269 C9.08677163,8.308 9.50777163,8.354 9.94377163,8.399 C11.5747716,8.576 13.3517716,8.752 15.1437716,8.913 L15.9167716,8.981 C17.0957716,9.089 18.2757716,9.181 19.4237716,9.257 L19.7457716,9.28 C21.7487305,11.9919395 23.172867,15.0866453 23.9297716,18.372 Z" id="路径_3168" fill="#F8E343"></path>
                    <path d="M13.8857716,0.3 L8.68577163,5.68434189e-14 C5.41877163,0.513 1.47177163,3.254 0.297771631,6.346 C-0.902228369,9.516 1.69777163,13.225 4.99777163,14.013 C8.29777163,14.801 11.7907716,13.269 14.2757716,10.961 L14.5757716,10.961 C17.0607716,13.269 20.5547716,14.8 23.8537716,14.013 C27.1527716,13.226 29.7537716,9.513 28.5537716,6.346 C27.3797716,3.254 23.4327716,0.513 20.1647716,5.68434189e-14 L13.8857716,0.3 Z" id="路径_3169" fill="#FFFFE8"></path>
                    <g id="组_1701" transform="translate(1.434155, 0.205778)" fill="#F8E343">
                        <path d="M12.2876165,0.296222086 C10.7055814,0.0703568464 9.10224424,0.0341004786 7.51161648,0.188222086 C4.58761648,0.788222086 1.34161648,3.04522209 0.284616481,5.92022209 C-0.785383519,8.83422209 1.31161648,11.9702221 4.06961648,12.9532221 C7.45361648,14.1592221 10.7796165,11.6962221 13.1556165,9.55322209 L12.5186165,9.81622209 L12.7656165,9.81622209 L12.1296165,9.55222209 C14.7556165,11.9132221 18.3456165,14.2922221 21.9066165,12.4442221 C24.6006165,11.0442221 26.1836165,7.74422209 24.7286165,4.92122209 C23.4636165,2.46622209 20.1866165,0.0962220858 17.3556165,0.00722208576 C15.6856165,-0.0457779142 13.9556165,0.207222086 12.2876165,0.300222086 C11.1356165,0.366222086 11.1276165,2.16722209 12.2876165,2.10022209 C14.3426165,1.98122209 16.7096165,1.44322209 18.6876165,2.15822209 C20.5636165,2.83822209 22.8676165,4.40022209 23.4236165,6.44122209 C23.9796165,8.48222209 22.2236165,10.5662221 20.3596165,11.1542221 C17.9656165,11.9112221 15.5146165,10.1252221 13.8096165,8.63922209 C13.1896165,8.09822209 12.6316165,7.75822209 11.8866165,8.28222209 C10.8866165,8.98222209 10.0616165,9.85322209 8.99261648,10.4742221 C6.96161648,11.6562221 4.58061648,11.9382221 2.86561648,10.0512221 C1.18261648,8.19822209 1.78961648,6.07222209 3.42561648,4.45122209 C4.68561648,3.20522209 6.70461648,1.83922209 8.55461648,1.92522209 L12.2916165,2.09822209 C13.4456165,2.14922209 13.4426165,0.349222086 12.2876165,0.296222086 Z" id="路径_3170"></path>
                    </g>
                </g>
                <path d="M57.7797052,96.7668522 L52.5727052,101.973852 L46.0637052,96.7668522 L46.2977052,90.7308522 C49.7843686,91.1998149 53.3123403,91.2799732 56.8167052,90.9698522 L57.7797052,96.7668522 Z" id="路径_3171" fill="#FFB885"></path>
                <g id="组_1703" transform="translate(6.128188, 55.948594)">
                    <path d="M13.0315172,5.54425845 L13.0315172,15.2902585 C12.635623,15.3408834 12.2365675,15.3626075 11.8375172,15.3552585 C11.0824569,15.3470154 10.3293138,15.2774534 9.58551722,15.1472585 C9.18551722,15.0732585 8.77051722,14.9822585 8.33151722,14.8602585 C5.22051722,14.0102585 2.12251722,12.3782585 0.724517224,9.47525845 C-0.431809051,7.04190106 -0.191201806,4.17485568 1.35451722,1.96825845 C1.69105885,1.50774283 2.09568583,1.10109271 2.55451722,0.762258452 C2.77425517,0.605122501 3.01319511,0.476746895 3.26551722,0.380258452 C5.31775225,-0.286925226 7.55511348,-0.0695298034 9.44051722,0.980258452 C9.6682942,1.10129044 9.88599273,1.24040347 10.0915172,1.39625845 C10.7132629,1.83254206 11.247526,2.38173067 11.6665172,3.01525845 L13.0315172,5.54425845 Z" id="路径_3172" fill="#FFCBA6"></path>
                    <path d="M11.9395172,9.17325845 C10.758461,7.41420206 8.93575858,6.1873417 6.86151722,5.75525845 C4.94851722,5.37725845 4.01951722,8.10025845 5.69951722,9.19725845 C6.9227414,9.8914768 8.27853325,10.3201237 9.67851722,10.4552585 C17.1865172,11.5552585 11.9395172,9.17325845 11.9395172,9.17325845 Z" id="路径_3173" fill="#F17558"></path>
                </g>
                <g id="组_1704" transform="translate(8.620930, 0.000000)" fill="#111111">
                    <path d="M91.7367755,55.4788522 C91.5627755,56.0555189 91.3734422,56.6021855 91.1687755,57.1188522 L82.0557755,60.9718522 C82.0227342,60.9781938 81.9893401,60.9825351 81.9557755,60.9848522 C81.2011784,61.0265707 80.4473935,60.8895189 79.7557755,60.5848522 C79.4609875,60.4704465 79.1725704,60.3402582 78.8917755,60.1948522 C78.7617755,60.1248522 78.6357755,60.0518522 78.5097755,59.9778522 C75.3336596,58.0145904 73.1291024,54.8066422 72.4347755,51.1378522 C72.0393333,49.119109 72.2480389,47.0285743 73.0347755,45.1278522 L60.2547755,45.8788522 L43.5207755,46.8668522 L8.37177554,50.3388522 L7.60377554,57.3388522 L7.00977554,62.7628522 L6.62277554,66.3128522 L6.51077554,67.3128522 L6.46277554,67.7518522 L6.44077554,67.9638522 C6.08477554,67.5868522 5.75077554,67.2178522 5.44677554,66.8398522 C5.16477554,66.4978522 4.90877554,66.1628522 4.66577554,65.8248522 C4.50577554,65.6038522 4.35377554,65.3818522 4.20577554,65.1608522 C3.62612274,64.2707365 3.12106848,63.334212 2.69577554,62.3608522 C2.42277554,61.7448522 2.14877554,61.0728522 1.86277554,60.3128522 C1.39274371,59.0140343 1.02986431,57.6789057 0.777775536,56.3208522 C0.0776533229,52.5508018 -0.151100628,48.70834 0.0967755359,44.8818522 C0.196775536,43.5238522 0.309775536,42.1698522 0.413775536,40.8158522 L0.413775536,40.9078522 C2.28377554,28.9478522 6.71877554,19.1018522 13.3877755,12.3848522 C16.8878813,8.86391249 21.0288876,6.04463393 25.5877755,4.07885221 C32.3570439,1.26074572 39.6365548,-0.125017121 46.9677755,0.00885221157 C49.0987648,0.00707461601 51.2282637,0.121578161 53.3467755,0.351852212 C75.6557755,2.82485221 86.0467755,18.4858522 90.3397755,27.6938522 C91.4300417,29.9641729 92.3116694,32.3289033 92.9737755,34.7588522 C94.0283427,41.6754196 93.6067678,48.7368833 91.7367755,55.4788522 L91.7367755,55.4788522 Z" id="路径_3175"></path>
                </g>
                <path d="M82.5147052,41.2278522 C82.5147052,41.5448522 82.5097052,41.8618522 82.5017052,42.1778522 C82.4837052,42.8548522 82.4447052,43.5278522 82.3837052,44.1918522 C82.3816674,44.2745323 82.3746547,44.3570148 82.3627052,44.4388522 C82.3367052,44.7258522 82.3107052,45.0158522 82.2717052,45.2938522 C82.1587052,46.2698522 81.9977052,47.2338522 81.8027052,48.1838522 C81.7767052,48.3268522 81.7467052,48.4658522 81.7157052,48.6008522 C81.5297052,49.4595189 81.3083718,50.3068522 81.0517052,51.1428522 C80.6562629,49.124109 80.8649685,47.0335743 81.6517052,45.1328522 L68.8717052,45.8838522 L52.1417052,46.8668522 L16.9927052,50.3388522 L16.2247052,57.3388522 L15.6307052,62.7628522 L15.2437052,66.3128522 L15.1317052,67.3128522 L15.0837052,67.7518522 L15.0617052,67.9638522 C14.7057052,67.5868522 14.3717052,67.2178522 14.0677052,66.8398522 C13.7857052,66.4978522 13.5297052,66.1628522 13.2867052,65.8248522 C13.1267052,65.6038522 12.9747052,65.3818522 12.8267052,65.1608522 C12.2470524,64.2707365 11.7419981,63.334212 11.3167052,62.3608522 C11.0437052,61.7448522 10.7697052,61.0728522 10.4837052,60.3128522 C10.0136734,59.0140343 9.65079396,57.6789057 9.39870518,56.3208522 C8.69809904,52.5508609 8.4693415,48.7083387 8.71770518,44.8818522 C8.81770518,43.5238522 8.93070518,42.1698522 9.03470518,40.8158522 L9.03470518,40.9078522 C10.9047052,28.9478522 15.3397052,19.1018522 22.0087052,12.3848522 C25.5088109,8.86391249 29.6498173,6.04463393 34.2087052,4.07885221 C36.6507629,3.67004679 39.1226674,3.46567146 41.5987052,3.46783494 C64.1937052,3.47585221 82.5147052,20.6158522 82.5147052,41.2278522 Z" id="路径_3176" fill="#222222"></path>
                <circle id="椭圆_445" fill="#333333" cx="65.8077052" cy="10.2018522" r="2.821"></circle>
                <circle id="椭圆_446" fill="#333333" cx="61.9027052" cy="7.16385221" r="2.821"></circle>
                <circle id="椭圆_447" fill="#333333" cx="70.1477052" cy="14.5408522" r="1.953"></circle>
                <g id="组_1705" transform="translate(87.600538, 54.360312)">
                    <path d="M6.00516717,16.5435398 C9.46516717,15.5975398 12.9141672,13.7835398 14.4711672,10.5525398 C16.0281672,7.32153985 15.3131672,2.98653985 12.4311672,0.852539846 C10.5311672,-0.547460154 4.89416717,-0.547460154 2.29116717,3.35253985 L0.772167168,6.17253985 L0.772167168,17.0215398 C2.53101871,17.1981503 4.30742054,17.0358877 6.00516717,16.5435398 Z" id="路径_3177" fill="#FFB885"></path>
                    <path d="M1.98716717,10.2185398 C3.30196698,8.26171439 5.33084991,6.89763882 7.63916717,6.41853985 C9.76916717,5.99653985 10.8031672,9.02853985 8.93316717,10.2495398 C7.57137763,11.0225312 6.06185224,11.4995822 4.50316717,11.6495398 C-3.85883283,12.8685398 1.98716717,10.2185398 1.98716717,10.2185398 Z" id="路径_3178" fill="#F17558"></path>
                </g>
                <g id="组_1706" transform="translate(14.905086, 35.590852)" fill="#FFCBA6">
                    <path d="M72.6036189,24.613 C72.3656189,24.484 72.1336189,24.344 71.9096189,24.192 C67.3486189,21.154 66.3466189,14.511 67.1756189,9.546 L68.0436189,5.646 L66.3076189,9.546 L45.4786189,9.546 L44.1786189,0 L41.5786189,9.98 L34.2016189,10.414 L33.3346189,0.868 L32.4666189,10.414 L30.7306189,10.414 L30.7306189,2.17 L29.4306189,10.414 L22.0536189,10.414 L22.4266189,2.014 L19.8846189,10.414 L3.82861889,13.014 L3.39461889,5.637 L1.84961889,14.611 C0.9144833,18.9341023 0.309736768,23.3221084 0.040618894,27.737 C-0.14884313,31.043974 0.325821626,34.3554067 1.43661889,37.476 L1.56161889,37.814 C1.64861889,38.057 1.74861889,38.3 1.85261889,38.539 C1.95661889,38.778 2.05261889,38.999 2.15261889,39.224 C2.20861889,39.363 2.27361889,39.502 2.34361889,39.637 C5.07261889,45.382 9.88061889,49.737 15.5916189,52.776 C16.2582856,53.136 16.9396189,53.476 17.6356189,53.796 C19.257591,54.5448962 20.9225079,55.1970388 22.6216189,55.749 C25.4813905,56.6787564 28.419341,57.3481459 31.3996189,57.749 C34.8862078,58.2189128 38.4142854,58.2990735 41.9186189,57.988 C42.2786189,57.997 42.6346189,58.001 42.9946189,58.001 C43.9276189,57.992 44.8566189,57.945 45.7846189,57.854 C50.3581244,57.4147876 54.7896128,56.025839 58.7956189,53.776 C60.7121576,52.7086059 62.5125059,51.4448096 64.1676189,50.005 C67.5924886,47.0121638 70.3535925,43.3361419 72.2736189,39.213 L72.2736189,39.213 C73.7805038,36.0123789 74.7536866,32.5868159 75.1546189,29.072 L75.6756189,25.396 C74.5999962,25.4146465 73.5390853,25.1442386 72.6036189,24.613 L72.6036189,24.613 Z" id="路径_3179"></path>
                </g>
                <path d="M90.5767052,60.9848522 L90.0557052,64.6608522 C89.6547729,68.1756681 88.6815901,71.6012311 87.1747052,74.8018522 L87.1747052,74.8018522 C85.2546788,78.9249941 82.4935748,82.6010161 79.0687052,85.5938522 C77.4136863,87.0343583 75.6133345,88.2988272 73.6967052,89.3668522 C69.6894984,91.6159044 65.2569897,93.0038307 60.6827052,93.4418522 C79.8067052,86.1508522 85.4697052,66.1418522 86.8147052,59.7768522 C87.0387052,59.9288522 87.2707052,60.0688522 87.5087052,60.1978522 C88.442513,60.7300207 89.5020365,61.0018085 90.5767052,60.9848522 Z" id="路径_3180" fill="#FFB885"></path>
                <g id="组_1711" transform="translate(16.351705, 42.319140)">
                    <circle id="椭圆_448" fill="#FFFFFF" cx="16.94" cy="16.937712" r="10.414"></circle>
                    <circle id="椭圆_449" fill="#FFFFFF" cx="51.663" cy="16.503712" r="10.414"></circle>
                    <g id="组_1708" transform="translate(7.269760, 6.717650)">
                        <path d="M16.8003012,8.39006158 C16.804284,11.7893611 14.7591735,14.8560055 11.6194025,16.1587301 C8.47963144,17.4614546 4.864218,16.743422 2.46054858,14.3397526 C0.0568791667,11.9360832 -0.66115342,8.32066975 0.641571126,5.18089872 C1.94429567,2.0411277 5.01094012,-0.00398279907 8.4102396,0 C10.6380148,-0.00848428064 12.777013,0.872715073 14.3522996,2.44800161 C15.9275861,4.02328815 16.8087855,6.16228639 16.8003012,8.39006158 L16.8003012,8.39006158 Z" id="路径_3803" fill="#7C3821"></path>
                        <circle id="椭圆_451" fill="#FFFFFF" cx="5.9762396" cy="4.99306158" r="2.144"></circle>
                        <path d="M15.4102396,13.0100616 L15.4102396,13.0200616 C13.8537807,15.3738847 11.2194358,16.7889123 8.39754927,16.7869017 C5.57566272,16.7848868 2.94333914,15.3661027 1.3902396,13.0100616 C2.01669475,12.0535393 2.8337173,11.2365167 3.7902396,10.6100616 C7.66287411,8.06988451 12.8608601,9.14347886 15.4102396,13.0100616 Z" id="路径_3804" fill="#9E5036"></path>
                    </g>
                    <path d="M70.823,32.484712 L70.823,32.484712 C68.903935,36.6071145 66.1450328,40.2832665 62.723,43.277712 C61.0666523,44.7161142 59.2660881,45.9794916 57.35,47.047712 C52.944453,45.2898277 50.2366819,40.825816 50.7133095,36.1065123 C51.189937,31.3872086 54.7356112,27.5547655 59.4036829,26.7132742 C64.0717546,25.8717829 68.7324704,28.2248987 70.827,32.480712 L70.823,32.484712 Z" id="路径_3182" fill="#F59679"></path>
                    <path d="M18.976,39.647712 C18.2656065,42.3332317 16.5279871,44.6318601 14.138,46.047712 C8.427,43.005712 3.619,38.653712 0.89,32.908712 C0.82,32.773712 0.755,32.634712 0.699,32.495712 C0.577,32.239712 0.469,31.983712 0.356,31.723712 C0.23,31.423712 0.113,31.111712 0,30.803712 C2.96115984,26.583051 8.52376664,25.0952273 13.1965852,27.2740374 C17.8694038,29.4528474 20.3055349,34.6702681 18.976,39.651712 L18.976,39.647712 Z" id="路径_3183" fill="#F59679"></path>
                    <g id="组_1709" transform="translate(41.999647, 6.285829)">
                        <path d="M16.7203531,8.35188263 C16.7203531,9.08092241 16.6261044,9.80690358 16.4403531,10.5118826 L16.4403531,10.5218826 C16.2100507,11.3900625 15.8384166,12.2144147 15.3403531,12.9618826 L15.3403531,12.9718826 C13.3555809,15.9720638 9.67611354,17.3689732 6.20035309,16.4418826 C1.74667948,15.2374993 -0.89827606,10.662441 0.280353094,6.20188263 C1.36433478,2.14939887 5.28316247,-0.472740209 9.44269715,0.0712378668 C13.6022318,0.615215943 16.7149593,4.15693188 16.7203531,8.35188263 L16.7203531,8.35188263 Z" id="路径_3805" fill="#7C3821"></path>
                        <path d="M15.3403531,12.9618826 L15.3403531,12.9718826 C13.3555809,15.9720638 9.67611354,17.3689732 6.20035309,16.4418826 C4.2155438,15.9185163 2.49703885,14.6742047 1.38035309,12.9518826 C2.00005951,12.00209 2.81056042,11.191589 3.76035309,10.5718826 C7.61830062,8.03538062 12.8018921,9.10522377 15.3403531,12.9618826 Z" id="路径_3806" fill="#9E5036"></path>
                        <circle id="椭圆_452" fill="#FFFFFF" cx="5.45635309" cy="4.97488263" r="2.137"></circle>
                    </g>
                    <rect id="矩形_264" fill="#333333" transform="translate(11.992342, 2.612021) rotate(-15.624000) translate(-11.992342, -2.612021) " x="8.42184202" y="1.74402061" width="7.141" height="1.736" rx="0.723"></rect>
                    <rect id="矩形_265" fill="#333333" transform="translate(52.780277, 1.742692) rotate(-75.338130) translate(-52.780277, -1.742692) " x="51.9126691" y="-1.82619684" width="1.73521689" height="7.13777868" rx="0.723"></rect>
                    <g id="组_1710" transform="translate(27.541000, 30.153712)">
                        <path d="M16.539,6.482 C15.4096824,8.93835306 13.1910322,10.7206811 10.549,11.294 C9.95165054,11.4239921 9.34232272,11.4910248 8.731,11.4940001 C7.52197974,11.4941505 6.32679481,11.2367733 5.225,10.739 C5.008,10.639 4.795,10.539 4.587,10.418 C2.55883192,9.30021548 1.07127408,7.40702566 0.465,5.172 L0,3.472 L16.924,-5.68434189e-14 L17.175,1.385 C17.4918624,3.10898692 17.2697863,4.88873794 16.539,6.482 L16.539,6.482 Z" id="路径_3186" fill="#DA5257"></path>
                        <path d="M3.591,2.731 L3.591,2.731 C3.76511882,3.61354422 4.62127359,4.1881928 5.504,4.015 L5.51,4.015 L11.275,2.862 C12.0371659,2.7090045 12.5854291,2.03937013 12.5850003,1.262 L12.5850003,0.885 L3.591,2.731 Z" id="路径_3187" fill="#FFFFFF"></path>
                        <path d="M16.539,6.482 C15.4096824,8.93835306 13.1910322,10.7206811 10.549,11.294 C9.95165054,11.4239921 9.34232272,11.4910248 8.731,11.4940001 C7.52197974,11.4941505 6.32679481,11.2367733 5.225,10.739 C5.008,10.639 4.795,10.539 4.587,10.418 C6.44641365,8.78008813 8.6849629,7.63177045 11.1,7.077 C12.8695672,6.58935236 14.705855,6.38847145 16.539,6.482 Z" id="路径_3188" fill="#EE706E"></path>
                    </g>
                </g>
            </g>
        </g>
    </g>
</svg>