<?xml version="1.0" encoding="UTF-8"?>
<svg width="134px" height="133px" viewBox="0 0 134 133" version="1.1" xmlns="http://www.w3.org/2000/svg" xmlns:xlink="http://www.w3.org/1999/xlink">
    <title>女孩大</title>
    <g id="人教一年级上" stroke="none" stroke-width="1" fill="none" fill-rule="evenodd">
        <g id="第1课练一练第5题" transform="translate(-99.000000, -273.000000)" fill-rule="nonzero">
            <g id="女孩大" transform="translate(99.000000, 273.000000)">
                <g id="组_1714">
                    <g id="路径_3189">
                        <path d="M20.1733058,123.108605 C19.0387908,123.104715 17.925237,122.802617 16.9443058,122.232605 C16.183697,122.51172 15.3784393,122.649319 14.5683058,122.638605 C14.3153058,122.638605 14.0443058,122.628605 13.7403058,122.606605 C11.7626359,122.462201 9.96700912,121.399113 8.88930584,119.734605 C8.27450737,118.799463 7.8941036,117.729942 7.78030584,116.616605 C6.71714756,115.833121 5.90314098,114.759007 5.43630584,113.523605 C4.6389406,111.406405 4.87874066,109.038009 6.08430584,107.123605 C6.59864132,106.295852 7.25902202,105.568383 8.03330584,104.976605 L8.46830584,104.653605 L8.96230584,104.430605 C9.89636461,103.998924 10.8721022,103.663849 11.8743058,103.430605 C11.9433058,103.330605 12.0143058,103.230605 12.0893058,103.138605 C12.1172664,101.740198 12.5326736,100.37697 13.2893058,99.2006053 C13.7851641,98.4187648 14.3722914,97.698703 15.0383058,97.0556053 C15.0611347,96.6240039 15.1125811,96.1943933 15.1923058,95.7696053 L15.1923058,95.7696053 C15.5765871,93.3352929 16.9273158,91.1591991 18.9383058,89.7346053 C19.1900269,88.4174074 19.7457744,87.1771625 20.5613058,86.1126053 C20.8393723,85.7521895 21.1463916,85.4150703 21.4793058,85.1046053 C17.1303058,83.5736053 13.9923058,80.9956053 12.3503058,77.5836053 C11.3955986,75.578774 10.9904563,73.3563579 11.1763058,71.1436053 C11.3424343,68.9008117 12.1352114,66.7497799 13.4643058,64.9356053 C13.6396392,64.6989386 13.8239725,64.4692719 14.0173058,64.2466053 C13.6093948,61.0122956 13.5139541,57.7462154 13.7323058,54.4936053 C13.7863058,53.7936053 13.8406392,53.0936053 13.8953058,52.3936053 C13.9473058,51.7382719 13.9986392,51.0836053 14.0493058,50.4296053 L16.6383058,50.5296053 L14.0943058,50.1296053 C14.9884536,44.0876487 16.6952407,38.1942886 19.1683058,32.6096053 C21.4226688,27.5086752 24.5697219,22.8512534 28.4613058,18.8566053 C32.4068858,14.8890056 37.0728943,11.7102279 42.2093058,9.49060525 C49.6091752,6.39881638 57.5685978,4.87114381 65.5873058,5.00360525 C67.8993224,5.00284999 70.2096907,5.12703103 72.5083058,5.37560525 L72.5173058,5.37560525 C78.1124293,5.96678932 83.5720817,7.47495072 88.6773058,9.83960525 C93.0181508,11.8810658 97.0292002,14.5603793 100.577306,17.7886053 C103.607495,20.5534886 106.307462,23.659827 108.623306,27.0456053 C110.478352,29.7493451 112.106251,32.6020986 113.490306,35.5746053 C114.726049,38.1459367 115.718378,40.8273003 116.454306,43.5836053 L116.481306,43.6966053 L116.503306,43.8096053 C117.145497,47.5939895 117.337499,51.4410846 117.075306,55.2706053 C116.884716,59.2156621 116.236369,63.1252119 115.143306,66.9206053 C114.937306,67.6066053 114.701306,68.2876053 114.443306,68.9426053 L113.672306,70.8926053 L111.740306,71.7096053 L105.130306,74.5096053 L105.020306,75.2826053 C104.892306,76.4006053 104.710639,77.5169386 104.475306,78.6316053 C106.333756,79.675453 107.766486,81.3389487 108.523306,83.3316053 C108.598306,83.3596053 108.671306,83.3896053 108.745306,83.4196053 C111.140026,84.4749978 113.015631,86.4409279 113.957306,88.8826053 C114.164956,89.3834293 114.332158,89.9000814 114.457306,90.4276053 C115.392492,90.99373 116.250026,91.6791524 117.008306,92.4666053 L117.008306,92.4666053 C118.069074,93.5463173 118.795802,94.9091498 119.101306,96.3916053 C119.340346,96.6014712 119.564862,96.8273239 119.773306,97.0676053 C121.044371,97.1101441 122.306328,97.2987162 123.534306,97.6296053 L124.029306,97.7556053 L124.488306,97.9796053 C125.37557,98.4260983 126.178779,99.0229224 126.862306,99.7436053 C128.517179,101.442883 129.257183,103.832465 128.852306,106.169605 C128.602564,107.575816 127.920583,108.869168 126.901306,109.869605 C127.029127,111.061708 126.849414,112.26668 126.379306,113.369605 C125.574233,115.295877 123.882015,116.70979 121.843306,117.159605 C121.17202,117.321506 120.484773,117.408041 119.794306,117.417605 C119.242297,117.418916 118.692425,117.349006 118.158306,117.209605 C116.957911,118.26729 115.414188,118.852938 113.814306,118.857605 C113.178381,118.857628 112.545923,118.763955 111.937306,118.579605 L111.937306,118.579605 C110.46203,118.120701 109.17512,117.196217 108.269306,115.944605 C107.687238,115.147362 107.227501,114.267659 106.905306,113.334605 C106.555954,112.350118 106.301464,111.334503 106.145306,110.301605 C105.89001,110.059852 105.653025,109.799469 105.436306,109.522605 C104.541536,109.339017 103.681971,109.013219 102.890306,108.557605 C101.632369,107.787127 100.550333,106.760965 99.7143058,105.545605 C98.679355,105.437003 97.6792817,105.109781 96.7803058,104.585605 C95.5074191,103.827657 94.4832592,102.714878 93.8333058,101.383605 C93.6728955,101.06943 93.5316375,100.745839 93.4103058,100.414605 C92.8138337,100.317299 92.2295004,100.156382 91.6673058,99.9346053 C89.9436457,101.360678 88.0932868,102.626273 86.1393058,103.715605 C82.0932832,105.981014 77.6689435,107.491599 73.0823058,108.173605 L73.1323058,108.473605 L71.3133058,110.291605 L66.1053058,115.499605 L62.9413058,118.664605 L59.4463058,115.864605 L52.9373058,110.656605 L50.9673058,109.079605 L51.0303058,107.453605 C49.3053058,107.070605 47.6133058,106.608605 45.9693058,106.069605 L45.9693058,106.069605 C44.0804275,105.456836 42.2298041,104.73188 40.4273058,103.898605 C39.6273058,103.529605 38.8553058,103.142605 38.1273058,102.749605 C37.9713058,102.665605 37.8153058,102.581605 37.6593058,102.495605 C37.1714577,102.853154 36.6423122,103.150631 36.0833058,103.381605 C36.0466392,103.572272 36.0016392,103.766272 35.9483058,103.963605 C35.5263035,105.664333 34.4942819,107.1508 33.0483058,108.140605 C32.5488976,108.477085 32.0072069,108.746081 31.4373058,108.940605 C30.9072817,110.114548 30.1398249,111.165971 29.1833058,112.028605 C28.608922,112.527504 27.9652233,112.940468 27.2723058,113.254605 C27.1723058,113.424605 27.0636392,113.591272 26.9463058,113.754605 C26.985008,114.663124 26.9438499,115.573287 26.8233058,116.474605 C26.6501128,118.986992 25.2025244,121.235736 22.9873058,122.433605 C22.1149252,122.875369 21.15116,123.106549 20.1733058,123.108605 L20.1733058,123.108605 Z M99.9893058,67.0386053 L100.223306,68.6046053 L100.351306,65.9936053 L100.312306,65.9936053 L99.9893058,67.0386053 Z" id="路径_3811" fill="#71CCBB"></path>
                        <path d="M20.1733058,118.108605 C20.3669586,118.108605 20.5578537,118.062705 20.7303058,117.974605 C21.4276297,117.471886 21.8485985,116.671045 21.8673058,115.811605 C22.0454677,114.484009 21.9691068,113.134626 21.6423058,111.835605 C21.9723134,111.77631 22.2706338,111.601995 22.4843058,111.343605 L22.8453058,110.891605 C23.341331,110.267104 23.2399125,109.359253 22.6183058,108.859605 C22.9839943,108.94883 23.358894,108.994812 23.7353058,108.996605 C24.5249607,109.020412 25.2964088,108.756748 25.9063058,108.254605 C27.0013058,107.304605 28.0823058,104.445605 26.8063058,103.781605 L26.7783058,103.767605 L26.7783058,103.767605 L26.8063058,103.781605 C27.4885104,104.117008 28.2328377,104.307346 28.9923058,104.340605 C30.017959,104.404735 30.9291684,103.690811 31.1123058,102.679605 C31.5603058,101.002605 30.5653058,99.8446053 29.9123058,98.7656053 C30.9013058,98.8316053 31.0233058,99.1156053 31.9503058,99.1156053 L32.0593058,99.1156053 C33.1360198,99.2148419 34.2070437,98.8739468 35.0283058,98.1706053 C35.5808885,97.3966124 35.9283659,96.4952352 36.0383058,95.5506053 C37.4520884,96.5891323 38.9385725,97.5248686 40.4863058,98.3506053 C41.1529725,98.7106053 41.8343058,99.0502719 42.5303058,99.3696053 C44.1518958,100.119398 45.8168667,100.771561 47.5163058,101.322605 C50.3438496,102.243141 53.248099,102.908796 56.1943058,103.311605 L56.0603058,106.759605 L62.5693058,111.967605 L67.7773058,106.759605 L67.2473058,103.571605 C67.4613058,103.571605 67.6743058,103.579605 67.8893058,103.579605 C68.8226392,103.570272 69.7529725,103.520939 70.6803058,103.431605 C75.2544345,102.994374 79.6867766,101.606393 83.6933058,99.3566053 C86.6204133,97.7273308 89.2698263,95.6429729 91.5423058,93.1816053 C91.8715039,93.8485073 92.3261248,94.4457278 92.8813058,94.9406053 C93.5337235,95.3784437 94.3107074,95.5925179 95.0953058,95.5506053 C95.5419786,95.5456707 95.9878826,95.5122697 96.4303058,95.4506053 C97.5923058,95.2996053 97.6303058,94.9576053 98.7663058,94.7086053 C98.2713058,95.9796053 97.4123058,97.3946053 98.2893058,99.1206053 C98.670525,100.019867 99.5586892,100.598399 100.535306,100.583605 C101.555837,100.506693 102.536837,100.156435 103.375306,99.5696053 L103.403306,99.5496053 L103.375306,99.5696053 C102.094306,100.500605 103.946306,103.388605 105.390306,104.223605 C105.966074,104.547968 106.617524,104.713936 107.278306,104.704605 C107.965802,104.696566 108.645138,104.554585 109.278306,104.286605 C108.75314,105.084591 108.92313,106.151367 109.670306,106.746605 C110.040015,107.051946 110.502854,107.221983 110.982306,107.228605 C110.889568,108.73174 111.103923,110.238015 111.612306,111.655605 C111.843428,112.597415 112.491918,113.382158 113.373306,113.786605 C113.51473,113.829246 113.661594,113.851141 113.809306,113.851605 C114.70297,113.781966 115.429223,113.102636 115.558306,112.215605 C115.640778,111.137602 115.449884,110.056217 115.003306,109.071605 C116.195949,110.338739 117.579309,111.411687 119.103306,112.251605 C119.315608,112.35684 119.549354,112.411597 119.786306,112.411605 C120.111317,112.399446 120.434122,112.352852 120.749306,112.272605 C121.293415,112.077969 121.713796,111.63802 121.883491,111.085623 C122.053187,110.533227 121.952303,109.933145 121.611306,109.466605 C120.854042,108.45298 119.819844,107.679936 118.633306,107.240605 C119.079484,107.311368 119.530551,107.346812 119.982306,107.346605 C121.772306,107.346605 123.661306,106.791605 123.925306,105.293605 C124.255306,103.422605 122.294306,102.466605 122.294306,102.466605 C121.365414,102.20846 120.407288,102.070336 119.443306,102.055605 C118.465823,102.068304 117.494729,102.215348 116.557306,102.492605 L115.329306,103.517605 L116.005306,102.782605 C116.342069,102.403336 116.507441,101.901933 116.462392,101.396735 C116.417342,100.891536 116.165862,100.427304 115.767306,100.113605 C115.387041,99.7964873 114.907447,99.6230545 114.412306,99.6236053 C114.130582,99.6229516 113.851759,99.6804865 113.593306,99.7926053 C114.544291,98.6790935 114.484771,97.0229773 113.456306,95.9806053 C112.406633,94.7312413 110.851968,94.018503 109.220306,94.0386053 L109.154306,94.0386053 C109.824859,93.0764979 109.893407,91.8178449 109.331306,90.7886053 C108.886733,89.5754165 107.984624,88.5846399 106.818306,88.0286053 C106.435593,87.8718774 106.025866,87.7916988 105.612306,87.7926053 C104.846319,87.7614769 104.107137,88.0774292 103.600306,88.6526053 C103.550306,88.7356053 103.500306,88.8156053 103.439306,88.8946053 C103.486069,88.8095528 103.539926,88.7285988 103.600306,88.6526053 C104.561205,86.9258088 104.18394,84.7622672 102.695306,83.4626053 C101.84981,82.7589363 100.781235,82.3795818 99.6813058,82.3926053 C99.1297867,82.3910565 98.582232,82.4858126 98.0633058,82.6726053 C99.0684981,80.094159 99.7373359,77.3969615 100.053306,74.6476053 L100.573306,70.9726053 C100.473913,70.986344 100.373638,70.9926948 100.273306,70.9916053 C100.216306,70.9916053 100.158306,70.9916053 100.099306,70.9916053 C100.156306,70.9916053 100.212306,70.9916053 100.267306,70.9916053 C100.36763,70.9923987 100.467883,70.9860493 100.567306,70.9726053 C100.600872,70.9703076 100.634268,70.9659663 100.667306,70.9596053 L109.780306,67.1056053 C109.980306,66.5896053 110.180306,66.0426053 110.348306,65.4656053 C112.215707,58.7258729 112.635909,51.6672866 111.581306,44.7536053 C110.919126,42.3240028 110.0375,39.9596109 108.947306,37.6896053 C104.647306,28.4806053 94.2623058,12.8206053 71.9543058,10.3466053 C69.8357575,10.116781 67.7062832,10.0022788 65.5753058,10.0036053 C58.2440125,9.87002351 50.964493,11.2561285 44.1953058,14.0746053 C39.6363684,16.0398506 35.4953251,18.8588149 31.9953058,22.3796053 C25.3253058,29.0976053 20.8903058,38.9436053 19.0203058,50.9026053 L19.0203058,50.8116053 C18.9203058,52.1656053 18.8073058,53.5196053 18.7033058,54.8776053 C18.4548353,58.7037999 18.6839324,62.5460458 19.3853058,66.3156053 C19.1325578,66.4118454 18.8932563,66.5402347 18.6733058,66.6976053 C18.2147741,67.0371763 17.8102042,67.4441062 17.4733058,67.9046053 C15.9281169,70.1114625 15.6879018,72.9783857 16.8443058,75.4116053 C18.2443058,78.3116053 21.3393058,79.9456053 24.4513058,80.7966053 C24.8893058,80.9176053 25.3103058,81.0096053 25.7053058,81.0826053 L25.7123058,81.0826053 C25.8883058,81.7446053 26.0863058,82.4006053 26.3213058,83.0466053 L26.4473058,83.3856053 C26.5343058,83.6286053 26.6333058,83.8716053 26.7383058,84.1096053 C26.8433058,84.3476053 26.9383058,84.5696053 27.0383058,84.7956053 C27.0953058,84.9346053 27.1603058,85.0736053 27.2293058,85.2076053 C27.680769,86.1385621 28.1900994,87.0403275 28.7543058,87.9076053 C28.3702584,87.783303 27.968967,87.7205274 27.5653058,87.7216053 C26.3796288,87.7080152 25.2528257,88.2373437 24.5063058,89.1586053 C23.4595012,90.6061726 23.5194574,92.5773357 24.6523058,93.9586053 C24.7179423,94.0205741 24.7787835,94.0874326 24.8343058,94.1586053 C24.7703058,94.0956053 24.7103058,94.0296053 24.6523058,93.9586053 C24.2464201,93.6030991 23.721702,93.4132011 23.1823058,93.4266053 C22.6806858,93.4251736 22.1892063,93.5678276 21.7663058,93.8376053 C20.8489575,94.5177161 20.2455662,95.5398387 20.0933058,96.6716053 C19.7993145,97.7019494 20.0789222,98.8108438 20.8263058,99.5786053 C19.3929813,99.7685424 18.1402318,100.640474 17.4643058,101.918605 C16.8249486,102.982523 16.9738498,104.34227 17.8283058,105.242605 C17.7232035,105.219494 17.6159192,105.207759 17.5083058,105.207605 C17.0742179,105.204095 16.6623698,105.399336 16.3903058,105.737605 L16.0293058,106.189605 C15.5337409,106.814594 15.6350946,107.722313 16.2563058,108.222605 L17.1963058,108.973605 L15.9553058,108.217605 C15.5022254,108.159741 15.0460581,108.129352 14.5893058,108.126605 C13.3446114,108.135106 12.1182244,108.427168 11.0033058,108.980605 C10.1453185,109.620345 9.78454081,110.731941 10.1033058,111.753605 C10.4893058,112.776605 11.6193058,113.153605 12.8293058,113.153605 C13.5723551,113.148213 14.309848,113.025017 15.0143058,112.788605 C14.0609881,113.354336 13.3026543,114.197084 12.8403058,115.204605 C12.6341944,115.687327 12.6541576,116.236829 12.8947537,116.703323 C13.1353498,117.169816 13.571497,117.50467 14.0843058,117.616605 C14.2683058,117.629605 14.4233058,117.635605 14.5563058,117.635605 C14.8924829,117.665629 15.2280816,117.572131 15.5003058,117.372605 C16.6714787,116.399262 17.6748333,115.240168 18.4703058,113.941605 C18.2613834,114.904637 18.2898691,115.904037 18.5533058,116.853605 C18.7937466,117.552784 19.4245184,118.043907 20.1613058,118.105605 M19.7023058,106.535605 L18.5553058,105.618605 C18.6526002,105.652953 18.7531078,105.67741 18.8553058,105.691605 L19.7033058,106.535605 M113.086306,100.120605 C113.041227,100.156186 112.998161,100.194245 112.957306,100.234605 L111.962306,101.316605 L112.727306,100.265605 C112.851879,100.230439 112.972254,100.181819 113.086306,100.120605 M99.5633058,70.9206053 C99.7013058,70.9456053 99.8353058,70.9636053 99.9633058,70.9746053 C99.8313058,70.9636053 99.6963058,70.9456053 99.5633058,70.9206053 M98.9323058,70.7696053 C99.1013058,70.8196053 99.2723058,70.8626053 99.4423058,70.8986053 C99.2723058,70.8626053 99.1003058,70.8196053 98.9323058,70.7696053 M98.8323058,70.7366053 C98.7003058,70.6956053 98.5713058,70.6506053 98.4463058,70.6046053 L98.4463058,70.6046053 L98.4393058,70.6046053 L98.4293058,70.6046053 L98.4393058,70.6046053 L98.4463058,70.6046053 L98.4463058,70.6046053 C98.5713058,70.6506053 98.7003058,70.6956053 98.8323058,70.7366053 M98.2773058,70.5366053 C98.1583058,70.4886053 98.0443058,70.4366053 97.9363058,70.3926053 C98.0433058,70.4406053 98.1583058,70.4926053 98.2773058,70.5366053 M97.8683058,70.3626053 C97.7333058,70.3006053 97.6053058,70.2386053 97.4973058,70.1806053 C97.6053058,70.2386053 97.7323058,70.2996053 97.8683058,70.3626053 M96.9043058,69.8216053 C96.8703058,69.8006053 96.8343058,69.7816053 96.8043058,69.7596053 C96.7743058,69.7376053 96.7303058,69.7016053 96.6913058,69.6746053 C96.7633058,69.7216053 96.8323058,69.7746053 96.9063058,69.8216053 L96.9173058,69.8286053 L96.9063058,69.8216053 M20.1733058,128.108605 C18.8838616,128.108605 17.6040938,127.885991 16.3893058,127.453605 C15.7890554,127.569576 15.1796152,127.631491 14.5683058,127.638605 L13.3843058,127.593605 C9.85561946,127.346063 6.64722157,125.458117 4.71730584,122.493605 C4.05859951,121.493646 3.5545898,120.399996 3.22230584,119.249605 C2.14609771,118.106751 1.30844969,116.760871 0.758305843,115.290605 C-1.13838048,110.091631 0.607463555,104.264287 5.05030584,100.964605 C5.6286434,100.534963 6.25156814,100.168852 6.90830584,99.8726053 C7.13730584,99.7726053 7.38430584,99.6616053 7.64930584,99.5526053 C7.98817289,98.4639739 8.47542143,97.4272248 9.09730584,96.4716053 C9.45863107,95.9143997 9.85091336,95.3778911 10.2723058,94.8646053 L10.2723058,94.8446053 C10.7802857,91.9079849 12.1845076,89.2004914 14.2923058,87.0936053 C11.520889,85.2698786 9.29182144,82.7333773 7.83930584,79.7506053 C5.23739449,74.3177701 5.61251487,67.9286352 8.83230584,62.8376053 C8.5652563,59.9312033 8.53515697,57.0078897 8.74230584,54.0966053 L8.90530584,51.9966053 L9.05730584,50.0456053 C9.09302035,49.5856139 9.15983984,49.1285686 9.25730584,48.6776053 C11.5283058,34.8846053 16.9323058,23.3656053 24.9073058,15.3336053 C29.2982207,10.9173323 34.4909483,7.37881084 40.2073058,4.90760525 C48.2372386,1.54075018 56.8771437,-0.127579543 65.5833058,0.00760525094 C68.0763876,0.00542586815 70.5677398,0.13895674 73.0463058,0.407605251 C100.162306,3.41460525 112.860306,22.4076053 118.017306,33.4636053 C119.393753,36.3393352 120.498553,39.3373596 121.317306,42.4186053 C122.763791,51.0830251 122.285821,59.9596085 119.917306,68.4186053 C119.682306,69.2016053 119.397306,70.0186053 119.093306,70.7866053 C118.108118,73.2806919 116.162499,75.2745911 113.693306,76.3206053 L110.840306,77.5276053 C111.375214,78.1702598 111.851767,78.8593203 112.264306,79.5866053 C115.126889,81.2813993 117.348051,83.8759782 118.581306,86.9656053 C118.626306,87.0736053 118.670306,87.1816053 118.712306,87.2906053 C119.368225,87.8027216 119.9902,88.3568873 120.574306,88.9496053 C121.566766,89.9534055 122.384376,91.1161073 122.993306,92.3896053 C123.570306,92.4896053 124.163306,92.6246053 124.780306,92.7826053 C125.43851,92.95027 126.077838,93.1848241 126.688306,93.4826053 C131.791288,95.9329678 134.6787,101.444266 133.788306,107.034605 C133.500707,108.6975 132.858492,110.278993 131.905306,111.671605 C131.796032,112.934619 131.486144,114.172142 130.987306,115.337605 C129.53534,118.7327 126.54227,121.224755 122.940306,122.037605 C121.906722,122.24281 120.859039,122.369174 119.806306,122.415605 C119.679306,122.415605 119.553306,122.415605 119.427306,122.409605 C117.713499,123.358777 115.786403,123.856381 113.827306,123.855605 C112.699469,123.833607 111.579064,123.667597 110.493306,123.361605 C106.527699,122.103987 103.430999,118.981504 102.206306,115.005605 C102.038306,114.531605 101.886973,114.051939 101.752306,113.566605 C101.289437,113.365005 100.838379,113.137305 100.401306,112.884605 C99.1260365,112.126216 97.9718417,111.18068 96.9773058,110.079605 C94.7755265,109.430165 92.8020522,108.171828 91.2843058,106.449605 C90.4056392,107.030939 89.5036392,107.579272 88.5783058,108.094605 C84.5850752,110.329463 80.2622239,111.915893 75.7713058,112.794605 C75.493294,113.162697 75.1902426,113.511189 74.8643058,113.837605 L69.6563058,119.045605 C66.0529526,122.649052 60.3162326,122.96649 56.3373058,119.782605 L49.8283058,114.574605 C48.8414091,113.785081 48.013121,112.815635 47.3873058,111.717605 C46.3873058,111.450939 45.3973058,111.155605 44.4173058,110.831605 C42.6514833,110.257261 40.9159214,109.593742 39.2173058,108.843605 C38.1653363,110.474768 36.733396,111.826412 35.0443058,112.782605 C34.3417644,113.914134 33.4764903,114.936087 32.4763058,115.815605 C32.2863058,115.980939 32.0916392,116.139939 31.8923058,116.292605 C31.8663058,116.578605 31.8333058,116.864605 31.7923058,117.150605 C31.3789107,121.289805 28.9270193,124.949635 25.2563058,126.906605 C23.6645882,127.658081 21.9330204,128.067552 20.1733058,128.108605 Z" id="路径_3812" fill="#FFFFFF"></path>
                    </g>
                    <g id="路径_3190" transform="translate(32.155053, 97.463605)" fill="#FFFFFF">
                        <path d="M21.5102532,10.0000005 L18.2322532,14.3180005 C18.0712532,14.2950005 17.9872532,14.2880005 17.9872532,14.2880005 C17.9872532,14.2880005 17.9722532,14.4250005 17.9412532,14.7010005 L10.0002532,25.1690005 L50.7782532,25.1690005 L44.1602532,17.1620005 C44.8022279,15.9170748 44.9006768,14.4620576 44.4322532,13.1420005 L42.9022532,15.6420005 L39.1022532,11.0420005 L35.3022532,16.0580005 C34.1532532,15.9810005 32.9742532,15.8890005 31.7952532,15.7820005 L31.0212532,15.7130005 C29.2292532,15.5520005 27.4532532,15.3760005 25.8212532,15.2000005 L21.5102532,10.0000005 M21.5102532,2.25654503e-07 C24.4873685,-0.000631521105 27.3099605,1.32525359 29.2102532,3.61700045 L30.7622532,5.48800045 L31.1282532,5.00400045 C32.9735653,2.56702589 35.832143,1.1078988 38.8882532,1.04300045 C38.9592532,1.04300045 39.0302532,1.04300045 39.1012532,1.04300045 C41.3421829,1.04287696 43.5182102,1.79545347 45.2802532,3.18000045 L45.3652532,3.18700045 C49.1637735,3.54281831 52.428862,6.02897159 53.7822532,9.59600045 C54.3480936,11.0848068 54.6659775,12.6563224 54.7232532,14.2480005 L58.4862532,18.8000005 C60.9537196,21.7852094 61.475575,25.9267787 59.8257768,29.4307805 C58.1759786,32.9347824 54.6512189,35.1710005 50.7782532,35.1710005 L10.0002532,35.1710005 C6.20256948,35.1710005 2.73258492,33.0199595 1.04354374,29.6185567 C-0.645497451,26.2171538 -0.26206684,22.152543 2.03325321,19.1270005 L9.45225321,9.34700045 C9.85190276,8.68483581 10.3212396,8.06732268 10.8522532,7.50500045 L13.5522532,3.95500045 C15.3974364,1.52450648 18.2513998,0.0695375293 21.3022532,0.00400045147 C21.3672532,2.25654503e-07 21.4392532,2.25654503e-07 21.5102532,2.25654503e-07 L21.5102532,2.25654503e-07 Z" id="路径_3813"></path>
                    </g>
                    <g id="路径_3191" transform="translate(93.606565, 64.903604)" fill="#FFFFFF">
                        <path d="M18.4657411,10.0000017 L9.99974111,15.9910017 C13.4597411,15.0460017 16.9097411,13.2320017 18.4657411,10.0000017 M18.4657411,8.51409823e-07 C21.9048234,8.51409823e-07 25.1026927,1.7669084 26.9327538,4.67863698 C28.7628149,7.59036555 28.9682711,11.2381914 27.4767411,14.3370017 C24.8487411,19.7960017 19.7167411,23.7030017 12.6357411,25.6370017 C7.95471793,26.9155363 3.03136656,24.6489739 0.958882013,20.261328 C-1.11360254,15.873682 0.262970422,10.631379 4.22374111,7.8280017 L12.6897411,1.8370017 C14.3778907,0.641065117 16.3958978,-0.000853350887 18.4647411,8.51409823e-07 L18.4657411,8.51409823e-07 Z" id="路径_3814"></path>
                    </g>
                </g>
                <g id="组_1715" transform="translate(10.001522, 87.685766)">
                    <path d="M8.86478367,18.0088388 C7.25078367,17.9088388 6.59278367,15.5958388 7.47578367,14.2398388 C8.15183824,12.9618213 9.4045212,12.0899361 10.8377837,11.8998388 C10.0905875,11.1319726 9.81100708,10.0231862 10.1047837,8.99283877 C10.2566039,7.86091976 10.8600892,6.83863797 11.7777837,6.15883877 C12.7397335,5.49686244 14.0400533,5.63164135 14.8457837,6.47683877 C13.492605,5.13035626 13.3520551,2.9876112 14.5177556,1.47590684 C15.683456,-0.0357975189 17.7915363,-0.444586255 19.4377837,0.52183877 L25.5637837,6.74983877 C26.6317837,6.79983877 25.7467837,9.68883877 25.0307837,10.4838388 C24.2095215,11.1871803 23.1384977,11.5280754 22.0617837,11.4288388 C21.0337837,11.4518388 20.9417837,11.1488388 19.9147837,11.0798388 C20.5687837,12.1588388 21.5637837,13.3168388 21.1147837,14.9938388 C20.3307837,17.9288388 16.7817837,16.0818388 16.7817837,16.0818388 C18.0967837,16.7188388 17.0077837,19.6118388 15.9047837,20.5688388 C14.6955467,21.4456391 13.097052,21.5711551 11.7657837,20.8938388 L8.86478367,18.0088388 Z" id="路径_3192" fill="#111111"></path>
                    <path d="M5.96678367,20.5348388 C4.27693388,20.2689856 2.5462337,20.5356504 1.01478367,21.2978388 C0.156539841,21.9373945 -0.204296961,23.0491727 0.114783673,24.0708388 C0.739783673,25.7288388 3.32178367,25.6808388 5.02578367,25.1018388 C4.07222155,25.6672711 3.31381007,26.5101056 2.85178367,27.5178388 C2.46990737,28.4122642 2.88537896,29.4469139 3.77978367,29.8288388 C3.88190726,29.8715749 3.98766631,29.905043 4.09578367,29.9288388 C4.98078367,29.9918388 5.19578367,29.8998388 5.51178367,29.6838388 C6.68296139,28.7108877 7.68632507,27.5521209 8.48178367,26.2538388 C8.27257965,27.2168444 8.30106724,28.2163127 8.56478367,29.1658388 C8.81777777,30.0528851 9.74135054,30.5674726 10.6287837,30.3158388 L10.7287837,30.2838388 C11.4257442,29.7808041 11.8466106,28.9801584 11.8657837,28.1208388 C12.0546806,26.7320533 11.964933,25.3195484 11.6017837,23.9658388 L5.96678367,20.5348388 Z" id="路径_3193" fill="#111111"></path>
                    <rect id="矩形_266" fill="#F9DC0F" transform="translate(9.441835, 20.857257) rotate(-51.376000) translate(-9.441835, -20.857257) " x="7.70633529" y="16.7347566" width="3.471" height="8.245" rx="1.446"></rect>
                </g>
                <g id="组_1716" transform="translate(91.034758, 82.384163)">
                    <path d="M21.698548,17.8844426 C23.490548,17.4964426 23.714548,14.9024426 22.420548,13.5954426 C21.3565551,12.3288584 19.7742345,11.6149742 18.120548,11.6554426 C18.7896681,10.6924709 18.8581653,9.43436712 18.297548,8.40444263 C17.8526965,7.19142286 16.9506716,6.20073898 15.784548,5.64444263 C14.5962009,5.08628693 13.1789421,5.44951455 12.405548,6.51044263 C13.5555115,4.76955614 13.2372635,2.44600345 11.661548,1.07844263 C10.0132687,-0.287336168 7.64928282,-0.363461039 5.91654805,0.893442629 L0.416548049,8.63344263 C-0.773451951,8.86944263 0.865548049,11.8244426 1.84754805,12.5554426 C2.92274423,13.1702944 4.19172378,13.3526499 5.39654805,13.0654426 C6.55854805,12.9144426 6.59654805,12.5724426 7.73254805,12.3234426 C7.23754805,13.5944426 6.37854805,15.0094426 7.25554805,16.7354426 C8.79054805,19.7554426 12.369548,17.1644426 12.369548,17.1644426 C11.033548,18.0734426 12.902548,20.9974426 14.356548,21.8384426 C15.8819893,22.5758055 17.6855885,22.4391808 19.082548,21.4804426 L21.698548,17.8844426 Z" id="路径_3194" fill="#111111"></path>
                    <path d="M25.526548,20.1084426 C27.394517,19.5344964 29.3904537,19.5254509 31.263548,20.0824426 C31.263548,20.0824426 33.224548,21.0384426 32.894548,22.9094426 C32.561548,24.7984426 29.647548,25.1874426 27.602548,24.8564426 C28.7907595,25.294711 29.8267602,26.0674571 30.585548,27.0814426 C30.9265449,27.5479827 31.0274291,28.1480639 30.8577335,28.7004604 C30.6880379,29.2528569 30.2676576,29.6928062 29.723548,29.8874426 C28.743548,30.1054426 28.480548,30.0434426 28.077548,29.8664426 C26.5536599,29.0263596 25.1703242,27.9534309 23.977548,26.6864426 C24.4246262,27.6709 24.6155422,28.7524134 24.532548,29.8304426 C24.4768969,30.3106946 24.2326534,30.7491382 23.8535979,31.0492316 C23.4745425,31.349325 22.9917574,31.4864607 22.511548,31.4304426 C22.456548,31.4234426 22.401548,31.4144426 22.347548,31.4034426 C21.4658835,30.9993553 20.8172642,30.2144559 20.586548,29.2724426 C20.066697,27.8285736 19.8525039,26.2924451 19.957548,24.7614426 L25.526548,20.1084426 Z" id="路径_3195" fill="#111111"></path>
                    <path d="M21.445548,24.2364426 L24.974548,20.3974426 C25.2990845,20.0323203 25.4651992,19.5531825 25.4363152,19.065531 C25.4074312,18.5778796 25.185917,18.1217013 24.820548,17.7974426 C24.792548,17.7734426 24.765548,17.7494426 24.736548,17.7274426 L24.736548,17.7274426 C23.9150976,17.0281548 22.692967,17.0822777 21.936548,17.8514426 L18.407548,21.6904426 C18.0828896,22.0554371 17.9166019,22.5344979 17.9452981,23.022146 C17.9739943,23.509794 18.1953215,23.9660452 18.560548,24.2904426 C18.588548,24.3144426 18.615548,24.3374426 18.644548,24.3604426 L18.644548,24.3604426 C19.4668341,25.0583762 20.6881528,25.0043086 21.445548,24.2364426 Z" id="路径_3196" fill="#F8DD0D"></path>
                </g>
                <g id="组_1717" transform="translate(42.152306, 107.457605)" fill="#FFCBA6">
                    <polygon id="路径_3197" points="18.358 8.263 10.958 15.17 0 15.17 7.941 4.702 8.232 4.319 11.509 5.68434189e-14 15.82 5.2"></polygon>
                </g>
                <g id="组_1720" transform="translate(64.848306, 108.504605)">
                    <g id="组_1718" fill="#FFCBA6">
                        <polygon id="路径_3198" points="6.406 0 18.085 14.128 6.585 14.128 0 8.469 2.611 5.016"></polygon>
                    </g>
                    <g id="组_1719" transform="translate(8.052000, 12.459000)" fill="#FFB885">
                        <polygon id="路径_3199" points="2.512 1.439 2.757 1.669 0 1.669 1 0"></polygon>
                    </g>
                </g>
                <g id="组_1723" transform="translate(48.035534, 104.260605)">
                    <path d="M27.4147716,18.372 L0.575771631,18.372 C0.835771631,16.732 1.05777163,15.277 1.24177163,14.007 C1.31077163,13.525 1.37977163,13.065 1.44177163,12.637 C1.44177163,12.606 1.44977163,12.583 1.44977163,12.56 C1.51777163,12.108 1.57177163,11.687 1.62577163,11.297 C1.67977163,10.907 1.72577163,10.546 1.77077163,10.217 C1.79377163,10.048 1.81677163,9.888 1.83177163,9.742 C1.84677163,9.596 1.87077163,9.451 1.89377163,9.313 C1.91677163,9.175 1.92377163,9.053 1.93977163,8.93 C1.96277163,8.73 1.98577163,8.555 2.00077163,8.402 C2.02377163,8.202 2.04677163,8.034 2.06177163,7.902 L2.10777163,7.489 C2.10777163,7.489 2.19177163,7.496 2.35277163,7.519 C2.36371599,7.51804041 2.37465833,7.52086424 2.38377163,7.527 C2.45277163,7.535 2.53677163,7.542 2.63577163,7.558 C2.73477163,7.574 2.84277163,7.581 2.96577163,7.596 C3.08877163,7.611 3.22577163,7.627 3.37177163,7.65 C3.51777163,7.673 3.67177163,7.688 3.83877163,7.703 C4.25977163,7.757 4.73877163,7.818 5.28577163,7.879 C5.54577163,7.91 5.82977163,7.941 6.12077163,7.979 L6.31177163,8.002 C6.54877163,8.032 6.80177163,8.055 7.06277163,8.086 C7.43810496,8.132 7.83610496,8.178 8.25677163,8.224 L8.67777163,8.27 C9.08377163,8.308 9.50477163,8.354 9.94177163,8.4 C11.5727716,8.576 13.3487716,8.752 15.1417716,8.913 L15.9157716,8.982 C17.0947716,9.089 18.2737716,9.182 19.4227716,9.258 L19.7437716,9.281 C22.2557716,9.449 24.6067716,9.549 26.4517716,9.51 C26.5187949,12.4075347 26.8288832,15.2943328 27.3787716,18.14 C27.3948207,18.2166505 27.4068372,18.2940903 27.4147716,18.372 Z" id="路径_3200" fill="#F8CF39"></path>
                    <path d="M23.9307716,18.372 L0.575771631,18.372 C0.835771631,16.732 1.05777163,15.277 1.24177163,14.007 C1.31077163,13.525 1.37977163,13.065 1.44177163,12.637 C1.44177163,12.606 1.44977163,12.583 1.44977163,12.56 C1.51777163,12.108 1.57177163,11.687 1.62577163,11.297 C1.67977163,10.907 1.72577163,10.546 1.77077163,10.217 C1.79377163,10.048 1.81677163,9.888 1.83177163,9.742 C1.84677163,9.596 1.87077163,9.451 1.89377163,9.313 C1.91677163,9.175 1.92377163,9.053 1.93977163,8.93 C1.96277163,8.73 1.98577163,8.555 2.00077163,8.402 C2.02377163,8.202 2.04677163,8.034 2.06177163,7.902 L2.10777163,7.489 C2.10777163,7.489 2.19177163,7.496 2.35277163,7.519 C2.36371599,7.51804041 2.37465833,7.52086424 2.38377163,7.527 C2.45277163,7.535 2.53677163,7.542 2.63577163,7.558 C2.73477163,7.574 2.84277163,7.581 2.96577163,7.596 C3.08877163,7.611 3.22577163,7.627 3.37177163,7.65 C3.51777163,7.673 3.67177163,7.688 3.83877163,7.703 C4.25977163,7.757 4.73877163,7.818 5.28577163,7.879 C5.54577163,7.91 5.82977163,7.948 6.12077163,7.979 L6.31177163,8.002 C6.54877163,8.032 6.80177163,8.055 7.06277163,8.086 C7.43810496,8.132 7.83610496,8.178 8.25677163,8.224 L8.67777163,8.27 C9.08377163,8.308 9.50477163,8.354 9.94177163,8.4 C11.5727716,8.576 13.3487716,8.752 15.1417716,8.913 L15.9157716,8.982 C17.0947716,9.089 18.2737716,9.182 19.4227716,9.258 L19.7437716,9.281 C21.7486843,11.9917932 23.1739447,15.0863817 23.9307716,18.372 L23.9307716,18.372 Z" id="路径_3201" fill="#F8E343"></path>
                    <path d="M13.8867716,0.3 L8.68677163,0 C5.41877163,0.513 1.47277163,3.254 0.297771631,6.346 C-0.902228369,9.517 1.69777163,13.226 4.99777163,14.013 C8.29777163,14.8 11.7897716,13.269 14.2747716,10.961 L14.5747716,10.961 C17.0587716,13.269 20.5527716,14.801 23.8517716,14.013 C27.1507716,13.225 29.7517716,9.513 28.5517716,6.346 C27.3767716,3.254 23.4307716,0.513 20.1627716,0 L13.8867716,0.3 Z" id="路径_3202" fill="#FFFFE8"></path>
                    <g id="组_1722" transform="translate(1.435236, 0.207007)" fill="#F8E343">
                        <path d="M12.2875352,0.294993365 C10.7058368,0.0691127441 9.10282874,0.0328562271 7.51253518,0.186993365 C4.58753518,0.786993365 1.34153518,3.04399337 0.284535182,5.91899337 C-0.785464818,8.83299337 1.31253518,11.9699934 4.06953518,12.9519934 C7.45353518,14.1579934 10.7805352,11.6949934 13.1555352,9.55199337 L12.5195352,9.81599337 L12.7665352,9.81599337 L12.1295352,9.55299337 C14.7555352,11.9129934 18.3455352,14.2919934 21.9075352,12.4449934 C24.6015352,11.0449934 26.1835352,7.74499337 24.7285352,4.92199337 C23.4635352,2.46699337 20.1865352,0.0969933654 17.3565352,0.00699336539 C15.6855352,-0.0450066346 13.9565352,0.206993365 12.2875352,0.299993365 C11.1355352,0.366993365 11.1285352,2.16699337 12.2875352,2.09999337 C14.3435352,1.98099337 16.7095352,1.44399337 18.6875352,2.15899337 C20.5635352,2.83799337 22.8685352,4.40099337 23.4245352,6.44099337 C23.9805352,8.48099337 22.2245352,10.5659934 20.3605352,11.1549934 C17.9665352,11.9119934 15.5145352,10.1249934 13.8105352,8.63899337 C13.1905352,8.09899337 12.6315352,7.75899337 11.8865352,8.28199337 C10.8865352,8.98199337 10.0615352,9.85299337 8.99353518,10.4749934 C6.96153518,11.6559934 4.58053518,11.9379934 2.86653518,10.0509934 C1.18253518,8.19899337 1.78953518,6.07199337 3.42553518,4.45099337 C4.68653518,3.20399337 6.70553518,1.83799337 8.55453518,1.92399337 L12.2915352,2.09699337 C13.4455352,2.15299337 13.4425352,0.352993365 12.2875352,0.294993365 Z" id="路径_3203"></path>
                    </g>
                </g>
                <path d="M67.7813058,106.758605 L62.5733058,111.966605 L56.0643058,106.758605 L56.2993058,100.722605 C59.7855595,101.192518 63.3133058,101.272679 66.8173058,100.961605 L67.7813058,106.758605 Z" id="路径_3204" fill="#FFB885"></path>
                <g id="组_1724" transform="translate(16.129384, 65.938045)">
                    <path d="M13.0309214,5.54555977 L13.0309214,15.2925598 C12.635317,15.3426854 12.23663,15.3644077 11.8379214,15.3575598 C11.0828074,15.3494972 10.3296225,15.2795968 9.58592139,15.1485598 C9.18592139,15.0755598 8.76992139,14.9845598 8.33192139,14.8625598 C5.21992139,14.0115598 2.12192139,12.3805598 0.724921389,9.47755977 C-0.431696194,7.04437912 -0.19147165,4.17734311 1.35392139,1.97055977 C1.69044372,1.50973956 2.09506629,1.10275669 2.55392139,0.763559774 C2.7734374,0.605753688 3.01284266,0.477644971 3.26592139,0.382559774 C5.3173185,-0.286571117 7.5546937,-0.0713483042 9.44092139,0.976559774 C9.66875235,1.09733627 9.88616539,1.2368151 10.0909214,1.39355977 C10.7127029,1.82972295 11.2472586,2.37852445 11.6669214,3.01155977 L13.0309214,5.54555977 Z" id="路径_3205" fill="#FFCBA6"></path>
                    <path d="M11.9389214,9.17155977 C10.758904,7.41172692 8.93629548,6.18432912 6.86192139,5.75255977 C4.94792139,5.37455977 4.01992139,8.09755977 5.69892139,9.19455977 C6.92250784,9.88877351 8.27862411,10.3174153 9.67892139,10.4525598 C17.1869214,11.5525598 11.9389214,9.17155977 11.9389214,9.17155977 Z" id="路径_3206" fill="#F17558"></path>
                </g>
                <g id="组_1725" transform="translate(18.623220, 9.992687)" fill="#111111">
                    <path d="M91.7350858,55.4729182 C91.5620858,56.0499182 91.3710858,56.5969182 91.1670858,57.1129182 L82.0540858,60.9669182 C82.0210858,60.9729182 81.9870858,60.9769182 81.9540858,60.9799182 C81.1995313,61.0209571 80.4459031,60.8839338 79.7540858,60.5799182 C79.4593493,60.4657885 79.171232,60.335251 78.8910858,60.1889182 C78.7600858,60.1199182 78.6350858,60.0459182 78.5090858,59.9719182 C75.3331993,58.0088813 73.1286723,54.8013399 72.4340858,51.1329182 C72.0372273,49.1147391 72.2438303,47.0243615 73.0280858,45.1229182 L60.2490858,45.8739182 L43.5200858,46.8589182 L8.37208582,50.3299182 L7.60308582,57.3299182 L7.01008582,62.7539182 L6.62408582,66.3019182 L6.51108582,67.3019182 L6.46308582,67.7399182 L6.44108582,67.9529182 C6.08608582,67.5749182 5.75208582,67.2069182 5.44808582,66.8289182 C5.16608582,66.4859182 4.91008582,66.1519182 4.66708582,65.8129182 C4.50608582,65.5929182 4.35408582,65.3709182 4.20708582,65.1499182 C3.62732239,64.2619633 3.12225549,63.3274223 2.69708582,62.3559182 C2.42308582,61.7399182 2.15008582,61.0669182 1.86308582,60.3079182 C1.39339362,59.0090708 1.03084882,57.6739427 0.779085815,56.3159182 C0.077649917,52.5460292 -0.151447253,48.7034448 0.0970858153,44.8769182 C0.197085815,43.5189182 0.310085815,42.1649182 0.414085815,40.8109182 L0.414085815,40.9019182 C2.28408582,28.9429182 6.71408582,19.1019182 13.3890858,12.3789182 C16.8891777,8.85948272 21.0302817,6.04217427 25.5890858,4.07891815 C32.3582039,1.26031044 39.6378207,-0.125472566 46.9690858,0.0089181508 C49.1000558,0.00684816256 51.2295525,0.121017759 53.3480858,0.350918151 C75.6560858,2.82491815 86.0480858,18.4859182 90.3410858,27.6939182 C91.4313259,29.9639044 92.3129538,32.3283005 92.9750858,34.7579182 C94.0279018,41.673068 93.6053097,48.7327415 91.7350858,55.4729182 L91.7350858,55.4729182 Z" id="路径_3208"></path>
                </g>
                <path d="M92.5153058,51.2206053 C92.5153058,51.5366053 92.5153058,51.8526053 92.5023058,52.1706053 C92.4849725,52.8479386 92.4459725,53.5189386 92.3853058,54.1836053 C92.3853058,54.2666053 92.3743058,54.3486053 92.3633058,54.4316053 C92.3373058,54.7176053 92.3113058,55.0086053 92.2723058,55.2866053 C92.1593058,56.2626053 91.9993058,57.2256053 91.8033058,58.1766053 C91.7773058,58.3196053 91.7473058,58.4586053 91.7173058,58.5926053 C91.5299725,59.4519386 91.3086392,60.2996053 91.0533058,61.1356053 C90.6564473,59.1174262 90.8630504,57.0270486 91.6473058,55.1256053 L78.8683058,55.8766053 L62.1393058,56.8616053 L26.9913058,60.3326053 L26.2223058,67.3326053 L25.6283058,72.7566053 L25.2423058,76.3046053 L25.1293058,77.3046053 L25.0813058,77.7426053 L25.0593058,77.9556053 C24.7043058,77.5776053 24.3703058,77.2096053 24.0663058,76.8316053 C23.7843058,76.4886053 23.5283058,76.1546053 23.2853058,75.8156053 C23.1243058,75.5956053 22.9723058,75.3736053 22.8253058,75.1526053 C22.245487,74.2646834 21.7404175,73.3301377 21.3153058,72.3586053 C21.0413058,71.7426053 20.7683058,71.0696053 20.4813058,70.3106053 C20.0120732,69.0116127 19.6495387,67.6765226 19.3973058,66.3186053 C18.6963858,62.5486532 18.4672925,58.7061333 18.7153058,54.8796053 C18.8153058,53.5216053 18.9283058,52.1676053 19.0323058,50.8136053 L19.0323058,50.9046053 C20.9023058,38.9456053 25.3323058,29.0996053 32.0073058,22.3816053 C35.5077452,18.8625885 39.6487636,16.0453383 44.2073058,14.0816053 C46.6492096,13.6714583 49.1211988,13.4667414 51.5973058,13.4695756 C74.1943058,13.4626053 92.5153058,30.6036053 92.5153058,51.2206053 Z" id="路径_3209" fill="#222222"></path>
                <circle id="椭圆_453" fill="#333333" cx="75.8093058" cy="20.1886053" r="2.821"></circle>
                <circle id="椭圆_454" fill="#333333" cx="71.9033058" cy="17.1516053" r="2.821"></circle>
                <circle id="椭圆_455" fill="#333333" cx="80.1483058" cy="24.5286053" r="1.953"></circle>
                <g id="组_1726" transform="translate(97.603839, 64.351065)">
                    <path d="M6.00246636,16.5435398 C9.46246636,15.5985398 12.9124664,13.7845398 14.4684664,10.5525398 C16.0244664,7.32053985 15.3114664,2.98753985 12.4284664,0.852539846 C10.5284664,-0.547460154 4.89246636,-0.547460154 2.28846636,3.35253985 L0.769466362,6.17353985 L0.769466362,17.0215398 C2.52831552,17.198673 4.30481679,17.0364013 6.00246636,16.5435398 L6.00246636,16.5435398 Z" id="路径_3210" fill="#FFB885"></path>
                    <path d="M1.98546636,10.2155398 C3.29944839,8.25675793 5.3283464,6.8905184 7.63746636,6.40953985 C9.76746636,5.98853985 10.8014664,9.01953985 8.93046636,10.2405398 C7.56902713,11.0135084 6.05983214,11.4905625 4.50146636,11.6405398 C-3.85653364,12.8695398 1.98546636,10.2155398 1.98546636,10.2155398 Z" id="路径_3211" fill="#F17558"></path>
                </g>
                <g id="组_1727" transform="translate(24.902338, 45.570605)" fill="#FFCBA6">
                    <path d="M72.607968,24.613 C72.367635,24.4846481 72.1339987,24.3441326 71.907968,24.192 C67.347968,21.155 66.344968,14.511 67.173968,9.547 L68.041968,5.647 L66.305968,9.547 L45.481968,9.547 L44.181968,0 L41.581968,9.981 L34.204968,10.415 L33.336968,0.868 L32.468968,10.415 L30.730968,10.415 L30.730968,2.173 L29.430968,10.418 L22.053968,10.418 L22.426968,2.018 L19.883968,10.418 L3.83096803,13.013 L3.39696803,5.637 L1.85096803,14.613 C0.915936943,18.9364916 0.310860991,23.3247966 0.0409680313,27.74 C-0.149271966,31.0448018 0.324378065,34.3542316 1.43396803,37.473 L1.55996803,37.812 C1.64696803,38.055 1.74596803,38.298 1.85096803,38.536 C1.95596803,38.774 2.05096803,38.996 2.15096803,39.222 C2.20796803,39.361 2.27296803,39.5 2.34196803,39.634 C5.07196803,45.379 9.87996803,49.734 15.589968,52.774 C16.2566347,53.134 16.937968,53.4736667 17.633968,53.793 C19.2555036,54.5429199 20.9204822,55.1950866 22.619968,55.746 C25.4797866,56.6779381 28.4181165,57.3490112 31.398968,57.751 C34.8853021,58.2198885 38.4129343,58.3000467 41.916968,57.99 C42.276968,57.998 42.632968,58.003 42.992968,58.003 C43.9263014,57.993 44.8566347,57.9436667 45.783968,57.855 C50.358126,57.417914 54.7904974,56.029924 58.796968,53.78 C60.7134296,52.7123749 62.5140531,51.4489558 64.169968,50.01 C67.5919977,47.0159458 70.3509111,43.3401194 72.269968,39.218 L72.269968,39.213 C73.7776205,36.012597 74.7511619,32.5869608 75.151968,29.072 L75.672968,25.397 C74.5995609,25.4145756 73.5410979,25.1438301 72.607968,24.613 L72.607968,24.613 Z" id="路径_3212"></path>
                </g>
                <path d="M100.578306,70.9726053 L100.057306,74.6476053 C99.656022,78.1624716 98.6825023,81.5880314 97.1753058,84.7886053 L97.1753058,84.7886053 C95.2562236,88.9107094 92.4973138,92.5865309 89.0753058,95.5806053 C87.4196484,97.0198903 85.6189894,98.2833343 83.7023058,99.3506053 C79.6958235,101.600502 75.2634579,102.98849 70.6893058,103.425605 C89.8123058,96.1356053 95.4753058,76.1256053 96.8203058,69.7606053 C97.0463365,69.9127379 97.2799728,70.0532534 97.5203058,70.1816053 C98.4508249,70.7133462 99.5066611,70.9864549 100.578306,70.9726053 Z" id="路径_3213" fill="#FFB885"></path>
                <g id="组_1732" transform="translate(26.357306, 52.306893)">
                    <circle id="椭圆_456" fill="#FFFFFF" cx="16.936" cy="16.936712" r="10.414"></circle>
                    <circle id="椭圆_457" fill="#FFFFFF" cx="51.658" cy="16.502712" r="10.414"></circle>
                    <g id="组_1729" transform="translate(7.275971, 6.721711)">
                        <path d="M16.7900579,8.395001 C16.7943707,10.0386618 16.3105956,11.6466048 15.400029,13.015001 C13.8466747,15.3687045 11.2151051,16.7849691 8.39502897,16.7849691 C5.57495281,16.7849691 2.9433832,15.3687045 1.39002897,13.015001 C0.479462303,11.6466048 -0.00431274533,10.0386618 -1.13686838e-13,8.395001 C-1.13686838e-13,5.39575614 1.60010649,2.62433944 4.19752868,1.1247169 C6.79495087,-0.374905634 9.99510707,-0.374905634 12.5925293,1.1247169 C15.1899514,2.62433944 16.7900579,5.39575614 16.7900579,8.395001 L16.7900579,8.395001 Z" id="路径_3815" fill="#7C3821"></path>
                        <circle id="椭圆_459" fill="#FFFFFF" cx="5.96602897" cy="4.989001" r="2.144"></circle>
                        <path d="M15.400029,13.005001 L15.400029,13.015001 C13.8466747,15.3687045 11.2151051,16.7849691 8.39502897,16.7849691 C5.57495281,16.7849691 2.9433832,15.3687045 1.39002897,13.015001 C2.00995165,12.0565527 2.82417738,11.2389201 3.78002897,10.615001 C5.63774727,9.39060656 7.90584746,8.95454174 10.0851459,9.40277955 C12.2644444,9.85101736 14.176334,11.1468219 15.400029,13.005001 Z" id="路径_3816" fill="#9E5036"></path>
                    </g>
                    <path d="M70.819,32.476712 L70.819,32.476712 C68.8999604,36.5991297 66.1410545,40.2752866 62.719,43.269712 C61.062151,44.708221 59.2612796,45.9719139 57.345,47.040712 C52.9388606,45.2828976 50.2307702,40.8182933 50.7077956,36.0985028 C51.1848209,31.3787122 54.7314869,27.546271 59.4002481,26.7056494 C64.0690093,25.8650277 68.729683,28.2197178 70.823,32.476712 L70.819,32.476712 Z" id="路径_3215" fill="#F59679"></path>
                    <path d="M18.976,39.646712 C18.2647738,42.3321136 16.526928,44.6305664 14.137,46.046712 C8.427,43.004712 3.619,38.646712 0.889,32.906712 C0.82,32.772712 0.755,32.633712 0.698,32.494712 C0.577,32.238712 0.468,31.982712 0.355,31.721712 C0.23,31.421712 0.112,31.110712 0,30.802712 C2.96115984,26.582051 8.52376664,25.0942273 13.1965852,27.2730374 C17.8694038,29.4518474 20.3055349,34.6692681 18.976,39.650712 L18.976,39.646712 Z" id="路径_3216" fill="#F59679"></path>
                    <g id="组_1730" transform="translate(41.986967, 6.280990)">
                        <path d="M16.7290331,8.34572161 C16.7290331,9.07476138 16.6347844,9.80074255 16.4490331,10.5057216 L16.4490331,10.5257216 C15.2484089,14.9822835 10.6702187,17.6290498 6.20903308,16.4457216 C2.02000535,15.328131 -0.620601261,11.1948329 0.126003112,6.924055 C0.872607486,2.65327707 4.75888725,-0.339010578 9.07862643,0.0308754566 C13.3983656,0.400761491 16.719361,4.01018604 16.7290331,8.34572161 L16.7290331,8.34572161 Z" id="路径_3817" fill="#7C3821"></path>
                        <path d="M15.3490331,12.9657216 C13.8040743,15.3150906 11.180871,16.7296327 8.36903308,16.7296327 C5.55719517,16.7296327 2.9339919,15.3150906 1.38903308,12.9657216 C2.00876226,12.0159474 2.81925889,11.2054508 3.76903308,10.5857216 C5.61942572,9.36293846 7.88031454,8.92666808 10.0528205,9.37317621 C12.2253264,9.81968433 14.1308886,11.1122719 15.3490331,12.9657216 L15.3490331,12.9657216 Z" id="路径_3818" fill="#9E5036"></path>
                        <circle id="椭圆_460" fill="#FFFFFF" cx="5.46503308" cy="4.97972161" r="2.137"></circle>
                    </g>
                    <rect id="矩形_267" fill="#333333" transform="translate(11.987342, 2.612021) rotate(-15.624000) translate(-11.987342, -2.612021) " x="8.41684202" y="1.74402061" width="7.141" height="1.736" rx="0.723"></rect>
                    <rect id="矩形_268" fill="#333333" transform="translate(52.775277, 1.742692) rotate(-75.338130) translate(-52.775277, -1.742692) " x="51.9076691" y="-1.82619684" width="1.73521689" height="7.13777868" rx="0.723"></rect>
                    <g id="组_1731" transform="translate(27.539000, 30.157712)">
                        <path d="M16.537,6.477 C15.4093221,8.93478735 13.191311,10.7190491 10.549,11.294 C9.95131073,11.4239817 9.34165251,11.491014 8.73,11.494 C7.52103178,11.4936618 6.32594852,11.2363065 5.224,10.739 C5.007,10.639 4.795,10.539 4.586,10.418 C2.55754392,9.30007537 1.06992812,7.40645088 0.464,5.171 L1.13686838e-13,3.471 L16.923,0 L17.175,1.384 C17.4898713,3.10691702 17.2671321,4.88499053 16.537,6.477 L16.537,6.477 Z" id="路径_3219" fill="#DA5257"></path>
                        <path d="M3.589,2.729 L3.589,2.729 C3.76216519,3.61181128 4.61817851,4.18711312 5.501,4.014 L5.507,4.014 L11.273,2.861 C12.0349523,2.70764932 12.583,2.03823078 12.583,1.261 L12.583,0.883 L3.589,2.729 Z" id="路径_3220" fill="#FFFFFF"></path>
                        <path d="M16.537,6.477 C15.4093221,8.93478735 13.191311,10.7190491 10.549,11.294 C9.95131073,11.4239817 9.34165251,11.491014 8.73,11.494 C7.52103178,11.4936618 6.32594852,11.2363065 5.224,10.739 C5.007,10.639 4.795,10.539 4.586,10.418 C6.44559311,8.77958064 8.6845117,7.6309061 11.1,7.076 C12.8687786,6.58759005 14.7043175,6.3853668 16.537,6.477 L16.537,6.477 Z" id="路径_3221" fill="#EE706E"></path>
                    </g>
                </g>
            </g>
        </g>
    </g>
</svg>