<svg xmlns="http://www.w3.org/2000/svg" width="104.693" height="120.801" viewBox="0 0 104.693 120.801">
  <defs>
    <style>
      .cls-1 {
        fill: #fff;
      }

      .cls-2 {
        fill: #ffde78;
      }

      .cls-3 {
        fill: #7cd0a4;
      }

      .cls-4 {
        fill: #b36339;
      }

      .cls-5 {
        fill: #fee066;
      }

      .cls-6 {
        fill: #683818;
      }

      .cls-7 {
        fill: #a3dffd;
      }

      .cls-8 {
        fill: #be42f5;
      }

      .cls-9 {
        fill: #f8c34f;
      }

      .cls-10 {
        fill: #73aeff;
      }

      .cls-11 {
        fill: #e66847;
      }

      .cls-12 {
        fill: #ffe2c9;
      }

      .cls-13 {
        fill: #f84f4f;
      }

      .cls-14 {
        fill: #f8934f;
      }

      .cls-15 {
        fill: #f9fbf8;
      }
    </style>
  </defs>
  <g id="组_377" data-name="组 377" transform="translate(-51.187 -120.385)">
    <circle id="椭圆_91" data-name="椭圆 91" class="cls-1" cx="52.347" cy="52.347" r="52.347" transform="translate(51.187 136.493)"/>
    <circle id="椭圆_92" data-name="椭圆 92" class="cls-2" cx="46.023" cy="46.023" r="46.023" transform="translate(57.51 142.816)"/>
    <g id="组_166" data-name="组 166">
      <path id="路径_372" data-name="路径 372" class="cls-3" d="M124.064,169.8l.96,1.945a.519.519,0,0,0,.394.286l2.146.312a.523.523,0,0,1,.29.892L126.3,174.75a.526.526,0,0,0-.151.463l.367,2.139a.523.523,0,0,1-.759.551l-1.92-1.01a.522.522,0,0,0-.486,0l-1.921,1.01a.522.522,0,0,1-.758-.551l.366-2.139a.525.525,0,0,0-.15-.463l-1.554-1.514a.523.523,0,0,1,.29-.892l2.147-.312a.52.52,0,0,0,.394-.286l.96-1.945A.523.523,0,0,1,124.064,169.8Z"/>
      <path id="路径_373" data-name="路径 373" class="cls-4" d="M53.519,179.4v21.99a2.017,2.017,0,0,0,1.663,2.049,153.539,153.539,0,0,0,25.9,1.39c14.31-.57,36.268-2.922,42.6-3.136,5.934-.2,19.054-.4,27.843,1.1a1.532,1.532,0,0,0,1.719-1.585c.023-4.887,0-17.159-.015-21.9a2.212,2.212,0,0,0-1.776-2.229,112.724,112.724,0,0,0-23.221-1.4c-12.859.712-35.015,2.85-43.588,3.136-8.145.27-19.923.413-29.618-.858A1.384,1.384,0,0,0,53.519,179.4Z"/>
      <path id="路径_374" data-name="路径 374" class="cls-5" d="M57.5,180.086a1.96,1.96,0,1,0,1.96,1.96A1.961,1.961,0,0,0,57.5,180.086Zm0,3.065a1.046,1.046,0,1,1,1.045-1.045A1.045,1.045,0,0,1,57.5,183.151Z"/>
      <path id="路径_375" data-name="路径 375" class="cls-5" d="M149.9,177.964a1.96,1.96,0,1,0,1.96,1.96A1.961,1.961,0,0,0,149.9,177.964Zm0,3.065a1.046,1.046,0,1,1,1.045-1.046A1.045,1.045,0,0,1,149.9,181.029Z"/>
      <path id="路径_376" data-name="路径 376" class="cls-6" d="M144.686,161.291h0c.307-.154.723.086.886.512.863,2.25,3.258,8.649,3.733,11.5.429,2.575.82,5.1,1,6.251.054.357-.141.63-.438.615h0a.784.784,0,0,1-.644-.695,74.957,74.957,0,0,0-1.632-8.753,83.618,83.618,0,0,0-3.083-8.533A.674.674,0,0,1,144.686,161.291Z"/>
      <path id="路径_377" data-name="路径 377" class="cls-6" d="M64.445,162.488h0c-.282-.227-.743-.014-.924.428-1.032,2.517-3.976,9.754-4.859,12.576-.795,2.54-1.413,4.933-1.752,6.068-.1.352.041.669.325.711h0a.734.734,0,0,0,.718-.582c.469-1.666,1.92-6.244,2.832-8.82,1.15-3.247,2.908-7.916,3.739-9.549A.68.68,0,0,0,64.445,162.488Z"/>
      <path id="路径_378" data-name="路径 378" class="cls-7" d="M84.733,181.76s1.39-9.031,4.581-11.942a1.224,1.224,0,0,1,1.371-.175l.029.015a1.222,1.222,0,0,1,.433,1.822C89.288,173.986,85.18,179.693,84.733,181.76Z"/>
      <circle id="椭圆_93" data-name="椭圆 93" class="cls-8" cx="1.32" cy="1.32" r="1.32" transform="translate(74.827 178.407)"/>
      <circle id="椭圆_94" data-name="椭圆 94" class="cls-9" cx="1.32" cy="1.32" r="1.32" transform="translate(96.407 164.151)"/>
      <rect id="矩形_38" data-name="矩形 38" class="cls-7" width="3.353" height="6.025" rx="1.676" transform="translate(95.934 201.513) rotate(45)"/>
      <path id="路径_379" data-name="路径 379" class="cls-5" d="M60.381,201.023l.565,1.145a.31.31,0,0,0,.232.169l1.264.183a.308.308,0,0,1,.171.526l-.915.891a.311.311,0,0,0-.088.273l.216,1.258a.308.308,0,0,1-.447.325l-1.131-.594a.308.308,0,0,0-.286,0l-1.131.594a.308.308,0,0,1-.446-.325l.216-1.258a.308.308,0,0,0-.089-.273l-.915-.891a.309.309,0,0,1,.171-.526l1.264-.183a.31.31,0,0,0,.232-.169l.565-1.145A.308.308,0,0,1,60.381,201.023Z"/>
      <g id="组_163" data-name="组 163">
        <g id="组_162" data-name="组 162">
          <path id="路径_380" data-name="路径 380" class="cls-10" d="M136.685,179.656a3.841,3.841,0,0,1-2.691.441.4.4,0,0,1,.16-.785,2.87,2.87,0,0,0,2.217-.434,1.8,1.8,0,0,0,.458-1.4,1.841,1.841,0,0,1-1.677-.363,1.607,1.607,0,0,1-.5-1.532,1.5,1.5,0,0,1,1.424-.851c.493.039,1.121.37,1.422,1.676a3.8,3.8,0,0,0,2.3-4.086,5.436,5.436,0,0,0-4.01-3.536.4.4,0,0,1,.18-.781,6.264,6.264,0,0,1,4.6,4.093,4.577,4.577,0,0,1-2.785,5.062c-.053.025-.1.048-.157.069a2.66,2.66,0,0,1-.694,2.229A2.106,2.106,0,0,1,136.685,179.656Zm-1.114-3.979a.57.57,0,0,0-.166.165.883.883,0,0,0,.3.69,1.153,1.153,0,0,0,1.029.149c-.143-.69-.393-1.1-.7-1.148A.679.679,0,0,0,135.571,175.677Z"/>
        </g>
      </g>
      <g id="组_165" data-name="组 165">
        <g id="组_164" data-name="组 164">
          <path id="路径_381" data-name="路径 381" class="cls-11" d="M136.209,210.773a4,4,0,0,1-2.665-.962.416.416,0,0,1,.542-.631,2.988,2.988,0,0,0,2.232.728,1.871,1.871,0,0,0,1.124-1.039,1.913,1.913,0,0,1-1.338-1.178,1.665,1.665,0,0,1,.318-1.646,1.56,1.56,0,0,1,1.722-.052c.428.285.83.9.442,2.241a3.948,3.948,0,0,0,4.152-2.545,5.649,5.649,0,0,0-1.85-5.239.416.416,0,1,1,.559-.617,6.507,6.507,0,0,1,2.1,6.041,4.754,4.754,0,0,1-5.089,3.185c-.06-.005-.119-.01-.177-.017a2.765,2.765,0,0,1-1.758,1.672A2.324,2.324,0,0,1,136.209,210.773Zm1-4.175a.579.579,0,0,0-.234.066.91.91,0,0,0-.079.776,1.2,1.2,0,0,0,.859.656c.219-.7.2-1.2-.053-1.394A.7.7,0,0,0,137.212,206.6Z"/>
        </g>
      </g>
    </g>
    <g id="组_167" data-name="组 167">
      <path id="路径_382" data-name="路径 382" class="cls-1" d="M73.163,195.781a3.689,3.689,0,0,1-6.043.236,7.881,7.881,0,0,1-1.323-4.5,7.589,7.589,0,0,1,.913-4.538,3.762,3.762,0,0,1,6.066-.258,7.512,7.512,0,0,1,1.334,4.419A7.992,7.992,0,0,1,73.163,195.781Zm-2-1.313a8.355,8.355,0,0,0,.3-3.207,10.441,10.441,0,0,0-.332-2.406,2.441,2.441,0,0,0-.584-1.146,1.112,1.112,0,0,0-.783-.241,1.041,1.041,0,0,0-.577.187,1.5,1.5,0,0,0-.436.584,3.732,3.732,0,0,0-.277,1.207,13.79,13.79,0,0,0-.028,1.951,8.406,8.406,0,0,0,.534,3.085,1.219,1.219,0,0,0,1.139.82A1.13,1.13,0,0,0,71.16,194.468Z"/>
      <path id="路径_383" data-name="路径 383" class="cls-1" d="M83.262,191.268a2.862,2.862,0,0,1-2.121,1.191,2.392,2.392,0,0,1-.987-.164,2.856,2.856,0,0,1-.782-.435,3.992,3.992,0,0,0-.676-.44,1.38,1.38,0,0,0-.695-.177,1.172,1.172,0,0,0-.561.211q-.7.9-1.481.33a.828.828,0,0,1-.323-.673,1.326,1.326,0,0,1,.305-.761,2.865,2.865,0,0,1,2-1.078,2.366,2.366,0,0,1,.972.164,3.27,3.27,0,0,1,.79.427,4.423,4.423,0,0,0,.683.431,1.377,1.377,0,0,0,.694.177,1.127,1.127,0,0,0,.562-.194.991.991,0,0,1,1.482-.315Q83.827,190.455,83.262,191.268Z"/>
      <path id="路径_384" data-name="路径 384" class="cls-1" d="M91.96,194.978a3.956,3.956,0,0,1-3.148,1.653,4.818,4.818,0,0,1-2.762-.677.928.928,0,0,1-.422-.644,1.258,1.258,0,0,1,.329-.741,1.229,1.229,0,0,1,1.745-.309,2.423,2.423,0,0,0,.822.115q2.124-.095,2.108-3.518a3.107,3.107,0,0,1-2.194,1.272,3.387,3.387,0,0,1-2.536-.819,3.719,3.719,0,0,1-1.064-2.705,3.846,3.846,0,0,1,.986-2.945,3.8,3.8,0,0,1,2.7-1.2,3.971,3.971,0,0,1,1.64.264,4.183,4.183,0,0,1,1.431.961A4.933,4.933,0,0,1,92.67,187.5a9.082,9.082,0,0,1,.493,2.7A7.142,7.142,0,0,1,91.96,194.978Zm-2.226-7.953a1.269,1.269,0,0,0-1.055-.475,1.227,1.227,0,0,0-.965.5,2.19,2.19,0,0,0-.32,1.435q.077,1.705,1.493,1.644a1.873,1.873,0,0,0,1.6-1.168A3.877,3.877,0,0,0,89.734,187.025Z"/>
      <path id="路径_385" data-name="路径 385" class="cls-1" d="M104.371,184.62l3.248-.147a.8.8,0,0,1,.765.4,3.44,3.44,0,0,1,.294,1.546q.1,4.931-.011,6.91a5.724,5.724,0,0,1-.531,2.585,2.3,2.3,0,0,1-.684.724,3.137,3.137,0,0,1-.917.35,9.022,9.022,0,0,1-1.474.144,1.123,1.123,0,0,1-1.259-.868,1.147,1.147,0,0,1-.052-.121c-.023-.061-.041-.106-.052-.137-.179-.321-.2-.568-.065-.745a1.077,1.077,0,0,1,.868-.263c.3,0,.636-.013,1.017-.031a.89.89,0,0,0,.664-.307,4.367,4.367,0,0,0,.4-2.047q.095-1.676.023-5.3a1.176,1.176,0,0,0-.1-.559.3.3,0,0,0-.292-.133l-2.586.117q-.264.645-.716,1.544a.869.869,0,0,1-.589.459.935.935,0,0,1-.757-.2c-.053-.029-.134-.081-.246-.159a2.839,2.839,0,0,0-.246-.158l.293,6.479a.978.978,0,0,1-.985,1.079l-4.078.185a1,1,0,0,1-.753-.251,1.027,1.027,0,0,1-.31-.736l-.4-8.742a1.031,1.031,0,0,1,.243-.76.994.994,0,0,1,.726-.317l.754-.034c.094-.653.152-1.086.173-1.3q.049-1.268,1.274-1.152,1.284.111.885,1.487c-.018.063-.058.2-.12.406s-.113.365-.149.47l1.262-.058a.978.978,0,0,1,1.078.985l.049,1.077a15.493,15.493,0,0,0,1.38-3.594,1.046,1.046,0,0,1,1.346-.909.951.951,0,0,1,.862,1.318c-.027.084-.067.21-.121.383S104.4,184.537,104.371,184.62Zm-7.413,2.865.079,1.755,2.047-.093L99,187.393a.34.34,0,0,0-.4-.367l-1.293.059A.332.332,0,0,0,96.958,187.485Zm.168,3.725.105,2.325q.018.386.387.367l1.293-.058a.34.34,0,0,0,.367-.4l-.105-2.325Zm6.735.883c-.134-.22-.328-.526-.582-.922s-.426-.657-.514-.786a.89.89,0,0,1,.338-1.4.913.913,0,0,1,1.4.245q.246.33,1.286,1.824a.989.989,0,0,1,.173.763,1.322,1.322,0,0,1-.543.612A.939.939,0,0,1,103.861,192.093Z"/>
      <path id="路径_386" data-name="路径 386" class="cls-1" d="M111.283,186.713l2.232-.1a1.023,1.023,0,0,1,.759.243.987.987,0,0,1,.318.726l.218,4.818.045-.033q1.027-.833,1.463.3a1.124,1.124,0,0,1-.234.967,4.333,4.333,0,0,1-.834.979,26.329,26.329,0,0,0-1.987,1.77.781.781,0,0,1-.184.024.591.591,0,0,1-.322-.124,1.218,1.218,0,0,1-.347-.353.968.968,0,0,1-.316-.674.857.857,0,0,1,.209-.664,2.514,2.514,0,0,0,.341-1.327l-.183-4.032c-.011-.257-.14-.381-.387-.369l-.692.031a.973.973,0,0,1-1.143-1.059A.961.961,0,0,1,111.283,186.713Zm1.684-1.633c-.118-.108-.294-.262-.53-.463s-.412-.353-.53-.461a.9.9,0,0,1-.05-1.463.933.933,0,0,1,1.412-.141c.043.03.227.167.551.414s.568.44.728.576a1,1,0,0,1,.41.7,1.314,1.314,0,0,1-.375.749A.98.98,0,0,1,112.967,185.08Zm5.591,3.9a35.934,35.934,0,0,0,.138-6.146,1.029,1.029,0,0,1,1.1-1.223,1.006,1.006,0,0,1,1.207,1.1q.047,1.371.018,3.131.594,4.939,3.009,7.514,1.38,1.187.575,2.134-.749.851-1.744-.014a11.693,11.693,0,0,1-2.542-4.018,11.1,11.1,0,0,1-2.126,4.152q-.957,1-1.8.19-.933-.87.158-1.966A9.752,9.752,0,0,0,118.558,188.977Z"/>
      <path id="路径_387" data-name="路径 387" class="cls-1" d="M127.03,186l1.816-.083a.928.928,0,0,1,.681.216.891.891,0,0,1,.284.651l.2,4.418.162-.162a1.213,1.213,0,0,1,.889-.465q.387.037.692.641a1.2,1.2,0,0,1-.16,1.056,4.514,4.514,0,0,1-.806,1.115q-1.831,1.8-2.168,2.181a.627.627,0,0,1-.169.023.879.879,0,0,1-.359-.1,1.185,1.185,0,0,1-.416-.313,1.24,1.24,0,0,1-.4-.638.772.772,0,0,1,.141-.646,3.139,3.139,0,0,0,.432-1.7l-.165-3.647c-.012-.257-.141-.381-.387-.369l-.169.008a.975.975,0,0,1-1.144-1.06A.961.961,0,0,1,127.03,186Zm1.129-1.625-1.062-.969a.849.849,0,0,1-.032-1.4.912.912,0,0,1,1.366-.139q.927.729,1.346,1.11a.972.972,0,0,1,.362.671,1.214,1.214,0,0,1-.361.7A.961.961,0,0,1,128.159,184.376Zm6.966,8.045a13.761,13.761,0,0,1-1.3,2.589,1.31,1.31,0,0,1-.7.541,1.252,1.252,0,0,1-.858-.209,1.215,1.215,0,0,1-.676-.794,1.382,1.382,0,0,1,.41-1,7.718,7.718,0,0,0,.791-1.609,1.206,1.206,0,0,1,1.484-.931A.958.958,0,0,1,135.125,192.421Zm-2.252-10.557,5.619-.254a1.022,1.022,0,0,1,.759.244.985.985,0,0,1,.318.726l.261,5.772a.978.978,0,0,1-.984,1.078l-5.619.255a.981.981,0,0,1-1.078-.985l-.261-5.773a.987.987,0,0,1,.252-.752A1.024,1.024,0,0,1,132.873,181.864Zm1.857,5.577,2.663-.121-.158-3.478-2.663.12a.334.334,0,0,0-.351.4l.122,2.709C134.355,187.331,134.483,187.452,134.73,187.441Zm3.648,6.992q-.19-.438-1.035-2.081-.666-1.065.548-1.536a1.077,1.077,0,0,1,1.423.443,20.416,20.416,0,0,1,1.375,2.437.986.986,0,0,1,.045.831,1.321,1.321,0,0,1-.708.541,1.354,1.354,0,0,1-1.019.123A1.124,1.124,0,0,1,138.378,194.433Z"/>
    </g>
    <g id="组_169" data-name="组 169">
      <g id="组_168" data-name="组 168">
        <path id="路径_388" data-name="路径 388" class="cls-10" d="M62.788,182.92A2.38,2.38,0,0,1,63.6,181l-.067-.137a4.094,4.094,0,0,1,1.035-5.064,5.6,5.6,0,0,1,5.506-.126.358.358,0,0,1-.329.637,4.868,4.868,0,0,0-4.783.087,3.4,3.4,0,0,0-.8,4.116c.962-.716,1.581-.578,1.939-.319a1.345,1.345,0,0,1,.478,1.4,1.433,1.433,0,0,1-1.231.752A1.646,1.646,0,0,1,64,181.625a1.612,1.612,0,0,0-.5,1.22c.092.92,1.244,1.571,1.26,1.58a.358.358,0,0,1-.345.628,3.44,3.44,0,0,1-1.58-1.86A1.875,1.875,0,0,1,62.788,182.92Zm2.88-2.16c-.233-.147-.644-.01-1.141.378a1.035,1.035,0,0,0,.788.495.786.786,0,0,0,.6-.3.5.5,0,0,0-.017-.209A.6.6,0,0,0,65.668,180.76Z"/>
      </g>
    </g>
    <g id="组_170" data-name="组 170">
      <path id="路径_389" data-name="路径 389" class="cls-12" d="M59.837,154.974l9.1-9.1a2.365,2.365,0,0,1,3.344,0l0,0,9.026,9.026-.177,10.429a1.787,1.787,0,0,1-1.742,1.756l-10.53.264-9.026-9.026a2.364,2.364,0,0,1,0-3.344l0,0Z"/>
      <path id="路径_390" data-name="路径 390" class="cls-13" d="M68.922,145.9a2.306,2.306,0,0,1,3.26,0l8.968,8.968a.173.173,0,0,1,.023.229l-.013.013a3.736,3.736,0,0,1-5.837.727l-8.169-8.169Z"/>
      <path id="路径_391" data-name="路径 391" class="cls-9" d="M61.413,153.31a.178.178,0,0,1,.252,0L69.359,161c1.664,1.665,2.043,4.011.378,5.676a4.129,4.129,0,0,1-.731.579.174.174,0,0,1-.229-.023l-8.848-8.848a2.544,2.544,0,0,1,0-3.6Z"/>
      <path id="路径_392" data-name="路径 392" class="cls-14" d="M67.034,147.688a.18.18,0,0,1,.254,0h0l7.693,7.694a4,4,0,0,1,.249,5.8,4.139,4.139,0,0,1-5.925-.129l-7.694-7.694a.193.193,0,0,1,0-.253Z"/>
      <path id="路径_393" data-name="路径 393" class="cls-6" d="M76.042,167.165l3.354-.084a1.787,1.787,0,0,0,1.742-1.756l.056-3.311Z"/>
      <path id="路径_394" data-name="路径 394" class="cls-15" d="M78.834,157.864a.957.957,0,0,1,1.354,1.354h0a.957.957,0,0,1-1.354-1.354Zm.812,2.979a.575.575,0,1,1-.005.818A.583.583,0,0,1,79.646,160.843Z"/>
    </g>
    <g id="组_171" data-name="组 171">
      <path id="路径_395" data-name="路径 395" class="cls-4" d="M96.957,154.984a4.4,4.4,0,1,1,0-8.807h1.976V132.034H97.116c-2.349,0-3.752-1.447-3.752-3.869a3.992,3.992,0,0,1,.974-2.638,4.239,4.239,0,0,1,2.444-1.4,17.715,17.715,0,0,0,3.9-1.534,5.115,5.115,0,0,1,2.675-.707H105.1a3.871,3.871,0,0,1,4.027,4.028v20.264h.989a4.4,4.4,0,1,1,0,8.807Z"/>
      <path id="路径_396" data-name="路径 396" class="cls-1" d="M105.1,123.385a2.377,2.377,0,0,1,2.527,2.528v21.764h2.489q2.923,0,2.923,2.884a2.583,2.583,0,0,1-2.923,2.923H96.957a2.583,2.583,0,0,1-2.923-2.923q0-2.883,2.923-2.884h3.476V130.534H97.116q-2.251,0-2.252-2.369a2.465,2.465,0,0,1,.612-1.66,2.761,2.761,0,0,1,1.6-.908,19.246,19.246,0,0,0,4.345-1.7,3.612,3.612,0,0,1,1.935-.513H105.1m0-3h-1.739a6.6,6.6,0,0,0-3.407.9,16.251,16.251,0,0,1-3.539,1.389,5.773,5.773,0,0,0-3.206,1.874,5.475,5.475,0,0,0-1.34,3.62,5.028,5.028,0,0,0,5.252,5.369h.317v11.143h-.476a5.9,5.9,0,1,0,0,11.807h13.154a5.55,5.55,0,0,0,5.923-5.923,5.485,5.485,0,0,0-5.412-5.868v-18.78a5.369,5.369,0,0,0-5.527-5.528Z"/>
    </g>
  </g>
</svg>
