<svg xmlns="http://www.w3.org/2000/svg" width="105.273" height="120.25" viewBox="0 0 105.273 120.25">
  <defs>
    <style>
      .cls-1 {
        fill: #fff;
      }

      .cls-2 {
        fill: #ffde78;
      }

      .cls-3 {
        fill: #ff9f38;
      }

      .cls-4 {
        fill: #739e20;
      }

      .cls-5 {
        fill: #7cd0a4;
      }

      .cls-6 {
        fill: #e83d46;
      }

      .cls-7 {
        fill: #ff4f51;
      }

      .cls-8 {
        fill: #f84f4f;
      }

      .cls-9 {
        fill: #83c3fc;
      }

      .cls-10 {
        fill: #ffe2c9;
      }

      .cls-11 {
        fill: #f8c34f;
      }

      .cls-12 {
        fill: #f8934f;
      }

      .cls-13 {
        fill: #683818;
      }

      .cls-14 {
        fill: #f9fbf8;
      }

      .cls-15 {
        fill: #b36339;
      }
    </style>
  </defs>
  <g id="组_375" data-name="组 375" transform="translate(-428.931 -43.261)">
    <circle id="椭圆_97" data-name="椭圆 97" class="cls-1" cx="52.637" cy="52.637" r="52.637" transform="translate(428.931 58.237)"/>
    <circle id="椭圆_98" data-name="椭圆 98" class="cls-2" cx="46.278" cy="46.278" r="46.278" transform="translate(435.29 64.595)"/>
    <g id="组_180" data-name="组 180">
      <path id="路径_415" data-name="路径 415" class="cls-3" d="M448.917,87.991l.71,35.9-.355,17.318,64.947-4.4-1.278-23.848-3.171-32.84H508.21l-1.8,2.158-1.136-1.922L502.2,83.033l-2.839-2.3-5.253,3.01-2.792-2.016-2.839,2.395-3.123-2.205-7.145,3.436-2.461-1.543L473.713,86.2l-2.082-1.638-4.022,2.726-3.171-1.827-2.461,2.442-1.8-1.874L458.428,88.1l-1.42-1.59L454.5,88.948l-1.136-1.59Z"/>
    </g>
    <g id="组_181" data-name="组 181">
      <path id="路径_416" data-name="路径 416" class="cls-4" d="M457.723,99.47a3.064,3.064,0,0,0-.868-.8c-.957-.6-2.023-.617-2.382-.043s.126,1.524,1.083,2.121a2.88,2.88,0,0,0,1.379.46A4.756,4.756,0,0,1,457.723,99.47Z"/>
      <path id="路径_417" data-name="路径 417" class="cls-5" d="M455.07,98.244a.9.9,0,0,0-.6.384c-.358.574.126,1.525,1.083,2.121a3.085,3.085,0,0,0,1.046.422,4.719,4.719,0,0,1,.771-1.668,3.053,3.053,0,0,0-.869-.8,2.834,2.834,0,0,0-1.433-.46Z"/>
      <path id="路径_418" data-name="路径 418" class="cls-6" d="M457.079,102.5a.372.372,0,0,1-.661-.236,5.532,5.532,0,0,1,.231-1.431,4.512,4.512,0,0,1,1.674-2.459.373.373,0,0,1,.432.608,4.379,4.379,0,0,0-1.592,3.281.358.358,0,0,1-.084.237Z"/>
      <path id="路径_419" data-name="路径 419" class="cls-7" d="M456.65,100.827a5.481,5.481,0,0,0-.231,1.431.371.371,0,0,0,.229.343.372.372,0,0,0,.166-.311,4.373,4.373,0,0,1,1.592-3.281.372.372,0,0,0,.088-.52.362.362,0,0,0-.16-.129l-.01.008A4.5,4.5,0,0,0,456.65,100.827Z"/>
      <path id="路径_420" data-name="路径 420" class="cls-6" d="M456.436,102.29c1.907-.209,1.958-1.311,3.8-1.222,3.68.175,3.517,9.02-1.1,9.676a15.406,15.406,0,0,0-2.4.246c-3.588.921-7.671-6.465-3.995-8.682C454.242,101.406,455.4,102.4,456.436,102.29Z"/>
      <path id="路径_421" data-name="路径 421" class="cls-8" d="M459.364,101.152c-.027,0-.052,0-.078,0-.994.251-1.34.976-2.851,1.141a1.8,1.8,0,0,1-.367,0,4.044,4.044,0,0,1-.508.084,15.356,15.356,0,0,1-2.157-.356,2.731,2.731,0,0,0-.657.29c-3.394,2.046-.169,8.506,3.171,8.753a6.2,6.2,0,0,1,1.291-.169,8.778,8.778,0,0,1,1.253-.1C462.885,109.92,462.992,101.324,459.364,101.152Z"/>
    </g>
    <g id="组_182" data-name="组 182">
      <path id="路径_422" data-name="路径 422" class="cls-4" d="M505.186,123.671a2.145,2.145,0,0,0-.608-.559c-.669-.419-1.415-.432-1.666-.031s.088,1.067.758,1.485a2.017,2.017,0,0,0,.964.321A3.332,3.332,0,0,1,505.186,123.671Z"/>
      <path id="路径_423" data-name="路径 423" class="cls-5" d="M503.329,122.813a.633.633,0,0,0-.418.269c-.251.4.088,1.067.758,1.485a2.162,2.162,0,0,0,.732.295,3.277,3.277,0,0,1,.539-1.167,2.147,2.147,0,0,0-.608-.56,2,2,0,0,0-1-.322Z"/>
      <path id="路径_424" data-name="路径 424" class="cls-6" d="M504.735,125.788a.261.261,0,0,1-.463-.165,3.938,3.938,0,0,1,.162-1,3.159,3.159,0,0,1,1.172-1.72.261.261,0,1,1,.3.426,3.065,3.065,0,0,0-1.114,2.295.253.253,0,0,1-.059.166Z"/>
      <path id="路径_425" data-name="路径 425" class="cls-7" d="M504.435,124.621a3.879,3.879,0,0,0-.162,1,.26.26,0,0,0,.16.24.232.232,0,0,0,.057-.051.262.262,0,0,0,.06-.167,3.061,3.061,0,0,1,1.113-2.295.26.26,0,0,0,.062-.364.255.255,0,0,0-.112-.09l-.007.005A3.156,3.156,0,0,0,504.435,124.621Z"/>
      <path id="路径_426" data-name="路径 426" class="cls-6" d="M504.285,125.645c1.335-.147,1.37-.918,2.661-.856,2.575.123,2.462,6.311-.768,6.77a10.724,10.724,0,0,0-1.679.173c-2.51.644-5.367-4.524-2.795-6.075C502.75,125.026,503.562,125.724,504.285,125.645Z"/>
      <path id="路径_427" data-name="路径 427" class="cls-7" d="M506.334,124.848c-.019,0-.037,0-.054,0-.7.176-.938.683-1.995.8a1.226,1.226,0,0,1-.257,0,3,3,0,0,1-.356.059,10.752,10.752,0,0,1-1.509-.249,1.856,1.856,0,0,0-.459.2c-2.376,1.432-.119,5.951,2.218,6.124a4.359,4.359,0,0,1,.9-.119,6.279,6.279,0,0,1,.877-.067C508.8,130.983,508.872,124.969,506.334,124.848Z"/>
    </g>
    <g id="组_183" data-name="组 183">
      <path id="路径_428" data-name="路径 428" class="cls-1" d="M475.808,102.721l-1.646.17.451,4.366q.645-.2,1.555-.493a.908.908,0,0,1,1.311.791,1.012,1.012,0,0,1-.764,1.279q-1.737.57-4.273,1.367a1.059,1.059,0,0,1-.825-.016,1.2,1.2,0,0,1-.491-.687.937.937,0,0,1,.722-1.42,3.136,3.136,0,0,1,.308-.1l.309-.083-1.011-9.805a1.1,1.1,0,1,1,2.19-.226l.3,2.934,1.646-.17a1.051,1.051,0,0,1,.215,2.09Zm2.2,4.172-.969-9.391a.973.973,0,0,1,.99-1.2.961.961,0,0,1,1.186.977l.347,3.364a17.594,17.594,0,0,0,1.707-1.117,1.063,1.063,0,0,1,1.58.156q.891.935-.269,1.6-1.053.586-2.8,1.433l.409,3.965a2.23,2.23,0,0,0,.171.806c.067.1.221.138.46.113l1.188-.123a.438.438,0,0,0,.383-.358,2.832,2.832,0,0,1,.323-1.415.71.71,0,0,1,.961-.294.981.981,0,0,1,.6.683,3.387,3.387,0,0,1,.168,1.133,3.14,3.14,0,0,1-.58,1.665,2.024,2.024,0,0,1-1.41.637l-1.761.182a2.253,2.253,0,0,1-1.935-.451A4.232,4.232,0,0,1,478,106.893Z"/>
      <path id="路径_429" data-name="路径 429" class="cls-1" d="M494.629,96.252l2.262-.234a.972.972,0,1,1,.2,1.933l-.3.031q1.083,1.377,1.749,2.365.338.617-.77,1.512a.558.558,0,0,1-.284.123.212.212,0,0,1-.233-.084l-.016-.013,0-.015a11.832,11.832,0,0,1-.962,2.733,8.3,8.3,0,0,0,1.545.955,1.548,1.548,0,0,1,.9.615,1.076,1.076,0,0,1-.174.987,1.111,1.111,0,0,1-1.49.415,9.651,9.651,0,0,1-1.934-1.2,10.148,10.148,0,0,1-2.023,1.843,1.038,1.038,0,0,1-1.426-.084q-.441-.49-.34-.847a1.426,1.426,0,0,1,.685-.722,8.2,8.2,0,0,0,1.7-1.636,14.229,14.229,0,0,1-1.526-2.447c-.168.326-.3.436-.4.331a12.5,12.5,0,0,0-1.239-1.348l.073.7a.547.547,0,0,1-.553.679l-.329.034.139,1.346.24-.054a.8.8,0,0,1,1.078.771.859.859,0,0,1-.714,1.072l-.409.1.184,1.79a.921.921,0,0,1-1.832.189l-.161-1.561-1.71.394a.908.908,0,0,1-1.176-.747,1.193,1.193,0,0,1-.015-.838.867.867,0,0,1,.669-.387l1.051-.195q.709-.13.979-.187l-.155-1.5-1.146.118c-.038,0-.133.019-.284.044a3.324,3.324,0,0,1-.358.044,1.386,1.386,0,0,1-.321-.031.721.721,0,0,1-.344-.175,1.153,1.153,0,0,1-.264-.385.93.93,0,0,1-.154-.592,1.928,1.928,0,0,1,.07-.513c.037-.11.1-.268.182-.475s.145-.369.181-.488a15.779,15.779,0,0,0,.365-1.789l-.214.022a1.007,1.007,0,1,1-.207-2l.686-.071a3.166,3.166,0,0,0,.025-.465.91.91,0,0,1,1.1-1q1,.069.895,1.108a.508.508,0,0,1-.014.146l.859-.088a1.007,1.007,0,0,1,.207,2l-1.418.146-.12.519.888-.092a.808.808,0,0,1,.617.161.791.791,0,0,1,.282.557l.124,1.2.6-.062a.312.312,0,0,1,.381.322l0,.043a9.966,9.966,0,0,0,1.491-2.8l-.515.053a.971.971,0,0,1-.2-1.932l1.947-.2q-.3-.5-.416-.666a.618.618,0,0,1-.117-.494.545.545,0,0,1,.331-.367l.425-.232a.854.854,0,0,1,.7-.058,1.26,1.26,0,0,1,.6.473.912.912,0,0,1,.226.65.648.648,0,0,1-.349.535Zm-7.082,3.305q-.279,1.071-.449,1.667l.615-.064Zm8.712-1.521-3.521.364.668.162a.529.529,0,0,1,.371.244.469.469,0,0,1,.029.409,18.578,18.578,0,0,1-1.014,2.231l.486-.194a.412.412,0,0,1,.562.26,9.327,9.327,0,0,0,.959,1.579,7.811,7.811,0,0,0,.428-1.187.989.989,0,0,1,.4-.649.965.965,0,0,1,.744-.149l.455.068a19.2,19.2,0,0,0-1.078-1.61.955.955,0,0,1-.2-.718.885.885,0,0,1,.409-.606Z"/>
      <path id="路径_430" data-name="路径 430" class="cls-1" d="M475.6,117.968l6.16-.636a1.339,1.339,0,0,1,1.67,1.339,1.356,1.356,0,0,1-1.358,1.692l-5.274.544a13.216,13.216,0,0,0,5.873,6.415,2.575,2.575,0,0,1,1.419,1.027,1.653,1.653,0,0,1-.257,1.558,1.739,1.739,0,0,1-2.445.59,15.018,15.018,0,0,1-6.413-6.438,13.713,13.713,0,0,1-4.815,7.5q-1.557,1.116-2.59.149-1.386-1.29.78-2.845a11.41,11.41,0,0,0,3.941-7.488l-5.1.526a1.355,1.355,0,0,1-1.674-1.379,1.338,1.338,0,0,1,1.362-1.652l5.589-.576q-.033-1.469-.264-3.713a1.4,1.4,0,0,1,1.435-1.7,1.678,1.678,0,0,1,1.251.268,1.535,1.535,0,0,1,.507,1.142Q475.583,116.5,475.6,117.968Z"/>
      <path id="路径_431" data-name="路径 431" class="cls-1" d="M492.206,118.519a15.884,15.884,0,0,1-.9,3.788,1.054,1.054,0,0,1-.487.559.918.918,0,0,1-.715-.072.827.827,0,0,1-.5-1.328,12.113,12.113,0,0,0,.677-3.076.876.876,0,0,1,1.053-.9Q492.329,117.558,492.206,118.519Zm2.917-3.354.832,8.067a2.764,2.764,0,0,1-.068,1.153,1.307,1.307,0,0,1-.562.678,4.983,4.983,0,0,1-1.588.468,1.172,1.172,0,0,1-1.344-.551q-.281-.557-.01-.83a1.526,1.526,0,0,1,.978-.323c.062-.006.135-.016.22-.029s.138-.02.161-.022a.428.428,0,0,0,.282-.105.327.327,0,0,0,.055-.257l-.831-8.055a.943.943,0,1,1,1.875-.194Zm2.7,4.856q-.675-1.322-1.028-1.917a.761.761,0,0,1,.374-1.244.841.841,0,0,1,1.19.311,21.8,21.8,0,0,1,2.011,3.733.82.82,0,0,1,.016.66,1.182,1.182,0,0,1-.543.46,1.1,1.1,0,0,1-.835.185q-.327-.1-.5-.644Q498.3,121.025,497.823,120.021Z"/>
    </g>
    <path id="路径_432" data-name="路径 432" class="cls-9" d="M502.108,89.666l.721,7.541,12.893-1.969-4.817-3.367,2.515-3.836Z"/>
    <path id="路径_433" data-name="路径 433" class="cls-5" d="M507.215,100.575l.528,5.521,9.439-1.442-3.526-2.465,1.841-2.808Z"/>
    <g id="组_184" data-name="组 184">
      <path id="路径_434" data-name="路径 434" class="cls-10" d="M436.623,78.287l9.156-9.156a2.378,2.378,0,0,1,3.362,0l0,0,9.077,9.077L458.042,88.7a1.8,1.8,0,0,1-1.752,1.766l-10.588.266-9.077-9.076a2.379,2.379,0,0,1,0-3.363l0,0Z"/>
      <path id="路径_435" data-name="路径 435" class="cls-8" d="M445.759,69.157a2.318,2.318,0,0,1,3.278,0l9.018,9.019a.173.173,0,0,1,.023.229l-.014.014a3.757,3.757,0,0,1-5.155,1.287,3.8,3.8,0,0,1-.714-.556l-8.214-8.214Z"/>
      <path id="路径_436" data-name="路径 436" class="cls-11" d="M438.208,76.613a.181.181,0,0,1,.254,0l7.736,7.737c1.674,1.674,2.055,4.032.381,5.706a4.1,4.1,0,0,1-.736.583.173.173,0,0,1-.229-.023l-8.9-8.9a2.559,2.559,0,0,1,0-3.617Z"/>
      <path id="路径_437" data-name="路径 437" class="cls-12" d="M444,70.9a.181.181,0,0,1,.255,0h0l7.736,7.736a4.025,4.025,0,0,1,.251,5.837,4.161,4.161,0,0,1-5.958-.129L438.545,76.6a.193.193,0,0,1,0-.255Z"/>
      <path id="路径_438" data-name="路径 438" class="cls-13" d="M452.919,90.546l3.372-.085a1.8,1.8,0,0,0,1.752-1.766l.056-3.329Z"/>
      <path id="路径_439" data-name="路径 439" class="cls-14" d="M455.726,81.193a.963.963,0,0,1,1.362,1.362h0a.963.963,0,1,1-1.362-1.362Zm.817,3a.578.578,0,1,1-.006.823A.586.586,0,0,1,456.543,84.188Z"/>
    </g>
    <g id="组_189" data-name="组 189">
      <g id="组_188" data-name="组 188">
        <g id="组_187" data-name="组 187">
          <g id="组_185" data-name="组 185">
            <path id="路径_440" data-name="路径 440" class="cls-15" d="M480.871,76.43a13.863,13.863,0,0,1-8.965-2.8l-.076-.066a3.682,3.682,0,0,1-.339-5.21,4.33,4.33,0,0,1,2.895-1.876,3.929,3.929,0,0,1,.517-.035,4.569,4.569,0,0,1,2.671.941,5.42,5.42,0,0,0,2.607.713,3.851,3.851,0,0,0,2.232-.537,1.2,1.2,0,0,0,.514-1.12,2.013,2.013,0,0,0-.342-1.274,2.752,2.752,0,0,0-1.518-.689,7.859,7.859,0,0,1-3.14-1.055,3.547,3.547,0,0,1-2.076-3.115,3.593,3.593,0,0,1,1.837-3.069,7.1,7.1,0,0,1,2.967-1.123c1.159-.392,1.4-.988,1.4-1.759s-.255-1-.339-1.081a1.931,1.931,0,0,0-1.319-.358,4,4,0,0,0-1.829.472,4.654,4.654,0,0,1-2.67.937,4.205,4.205,0,0,1-3.253-1.689,3.994,3.994,0,0,1-1.031-3.064,4.036,4.036,0,0,1,1.8-2.708l.109-.073a13.784,13.784,0,0,1,7.2-2.029,12.435,12.435,0,0,1,7.857,2.316,8.209,8.209,0,0,1,3.114,6.805,7.417,7.417,0,0,1-2.885,6.063,8.981,8.981,0,0,1,1.941,1.686,7.792,7.792,0,0,1,1.815,5.242A8.358,8.358,0,0,1,488.99,74,13.528,13.528,0,0,1,480.871,76.43Z"/>
          </g>
          <g id="组_186" data-name="组 186">
            <path id="路径_441" data-name="路径 441" class="cls-1" d="M480.725,46.261a10.938,10.938,0,0,1,6.931,2,6.745,6.745,0,0,1,2.541,5.625q0,4.281-4.464,6.1v.181a8.238,8.238,0,0,1,3.883,2.449,6.315,6.315,0,0,1,1.452,4.264,6.9,6.9,0,0,1-2.958,5.916,12.014,12.014,0,0,1-7.239,2.141,12.361,12.361,0,0,1-8.021-2.467q-1.488-1.38-.145-3.23a2.87,2.87,0,0,1,1.887-1.271,2.314,2.314,0,0,1,.312-.021,3.149,3.149,0,0,1,1.865.711,6.992,6.992,0,0,0,3.412.943,5.251,5.251,0,0,0,3.1-.816,2.7,2.7,0,0,0,1.143-2.34,3.434,3.434,0,0,0-.672-2.215,4.283,4.283,0,0,0-2.45-1.234,6.308,6.308,0,0,1-2.63-.87,1.949,1.949,0,0,1-.164-3.629,5.567,5.567,0,0,1,2.468-.907,3.191,3.191,0,0,0,2.577-3.23,2.836,2.836,0,0,0-.816-2.178,3.312,3.312,0,0,0-2.342-.761,5.569,5.569,0,0,0-2.612.688,3.252,3.252,0,0,1-1.887.721,2.768,2.768,0,0,1-2.106-1.155q-1.632-2.034.509-3.594a12.246,12.246,0,0,1,6.423-1.814m0-3a15.256,15.256,0,0,0-7.97,2.244l-.113.068-.106.077a5.481,5.481,0,0,0-2.408,3.723,5.415,5.415,0,0,0,1.327,4.175l.022.027.023.027a5.656,5.656,0,0,0,4.4,2.222,5.477,5.477,0,0,0,1.7-.274c-.247.131-.491.276-.73.432a5.087,5.087,0,0,0-2.516,4.323,5.021,5.021,0,0,0,2.829,4.416,9.4,9.4,0,0,0,3.63,1.235,3.466,3.466,0,0,1,.6.2,1.652,1.652,0,0,1,.019.247,3.025,3.025,0,0,1-1.245.194,3.921,3.921,0,0,1-1.821-.494,5.994,5.994,0,0,0-3.456-1.16,5.233,5.233,0,0,0-.719.049,5.79,5.79,0,0,0-3.889,2.454c-1.811,2.5-1.607,5.252.514,7.218l.074.069.079.064a15.315,15.315,0,0,0,9.908,3.135,15,15,0,0,0,9-2.712,9.909,9.909,0,0,0,4.2-8.345,9.248,9.248,0,0,0-2.178-6.219,10.281,10.281,0,0,0-.8-.831,8.933,8.933,0,0,0,2.106-5.941,9.76,9.76,0,0,0-3.686-7.983,13.873,13.873,0,0,0-8.786-2.638Zm-1.4,11.423a2.48,2.48,0,0,1,1.068-.269c.059,0,.111,0,.157,0a.99.99,0,0,1-.01.1,1.268,1.268,0,0,1-.258.13,8.331,8.331,0,0,0-1.523.385q.283-.159.566-.351Z"/>
          </g>
        </g>
      </g>
    </g>
  </g>
</svg>
