<svg id="组_263" data-name="组 263" xmlns="http://www.w3.org/2000/svg" width="153.414" height="174.508" viewBox="0 0 153.414 174.508">
  <defs>
    <style>
      .cls-1 {
        fill: #fff;
      }

      .cls-2 {
        fill: #ffde78;
      }

      .cls-3 {
        fill: #fe8965;
      }

      .cls-4 {
        fill: #8a493c;
      }

      .cls-5 {
        fill: #ff6d6d;
      }

      .cls-6 {
        fill: #d94453;
      }

      .cls-7 {
        fill: #caced7;
      }

      .cls-8 {
        fill: #e4e7ec;
      }

      .cls-9 {
        fill: #f8c24b;
      }

      .cls-10 {
        fill: #fdd376;
      }

      .cls-11 {
        fill: #fddbae;
      }

      .cls-12 {
        fill: #656d78;
      }

      .cls-13 {
        fill: #9c835a;
      }

      .cls-14 {
        fill: #ffe2c9;
      }

      .cls-15 {
        fill: #f84f4f;
      }

      .cls-16 {
        fill: #f8c34f;
      }

      .cls-17 {
        fill: #f8934f;
      }

      .cls-18 {
        fill: #683818;
      }

      .cls-19 {
        fill: #f9fbf8;
      }

      .cls-20 {
        fill: #b36339;
      }
    </style>
  </defs>
  <circle id="椭圆_115" data-name="椭圆 115" class="cls-1" cx="76.707" cy="76.707" r="76.707" transform="translate(0 21.093)"/>
  <circle id="椭圆_116" data-name="椭圆 116" class="cls-2" cx="67.441" cy="67.441" r="67.441" transform="translate(9.266 30.359)"/>
  <g id="组_253" data-name="组 253" transform="translate(22.442 53.676)">
    <rect id="矩形_46" data-name="矩形 46" class="cls-1" width="97.055" height="80" rx="4.018" transform="translate(6.019 7.693)"/>
    <rect id="矩形_47" data-name="矩形 47" class="cls-3" width="13.524" height="74.921" rx="2.441" transform="translate(9.751 10.284)"/>
    <path id="路径_561" data-name="路径 561" class="cls-4" d="M772.077,579.525a6.106,6.106,0,1,1,5.872-6.1,1.542,1.542,0,1,1-3.082,0,2.792,2.792,0,1,0-2.791,2.9,1.6,1.6,0,0,1,0,3.2Zm0,28.252a6.106,6.106,0,1,1,5.872-6.1,1.542,1.542,0,1,1-3.082,0,2.792,2.792,0,1,0-2.791,2.9,1.6,1.6,0,0,1,0,3.2Z" transform="translate(-766.205 -542.948)"/>
    <path id="路径_562" data-name="路径 562" class="cls-1" d="M784.811,611.662" transform="translate(-758.117 -529.672)"/>
    <path id="路径_563" data-name="路径 563" class="cls-1" d="M784.811,559.877" transform="translate(-758.117 -552.184)"/>
    <g id="组_251" data-name="组 251" transform="translate(27.453 18.373)">
      <path id="路径_564" data-name="路径 564" class="cls-5" d="M794.745,584.7h-8.094a1.219,1.219,0,0,1-1.312-1.31V583.3a2.159,2.159,0,0,1,.833-1.54,37.54,37.54,0,0,0,4.326-4.587,5.943,5.943,0,0,0,1.457-3.424,2.328,2.328,0,0,0-.551-1.663,1.978,1.978,0,0,0-1.509-.583,2.956,2.956,0,0,0-1.54.5,1.4,1.4,0,0,1-2.184,0,1.275,1.275,0,0,1,.123-2.08,6.479,6.479,0,0,1,4.12-1.372,5.258,5.258,0,0,1,3.755,1.362,4.734,4.734,0,0,1,1.447,3.61q0,3.371-4.786,8.2a21.907,21.907,0,0,1,2.581-.23h1.332a1.6,1.6,0,0,1,0,3.2Z" transform="translate(-785.34 -569.536)"/>
      <path id="路径_565" data-name="路径 565" class="cls-5" d="M802.672,582.887a4.981,4.981,0,0,1-8.166-.052A10.634,10.634,0,0,1,793,576.686a10.23,10.23,0,0,1,1.508-6.064,5.079,5.079,0,0,1,8.2.02,10.143,10.143,0,0,1,1.528,6.043A10.782,10.782,0,0,1,802.672,582.887Zm-2.621-1.893a11.307,11.307,0,0,0,.6-4.308,13.918,13.918,0,0,0-.3-3.265,3.276,3.276,0,0,0-.717-1.582,1.5,1.5,0,0,0-1.041-.375,1.4,1.4,0,0,0-.791.22,2.05,2.05,0,0,0-.624.759,5.109,5.109,0,0,0-.448,1.612,18.845,18.845,0,0,0-.155,2.631,11.387,11.387,0,0,0,.531,4.193,1.648,1.648,0,0,0,1.487,1.176A1.527,1.527,0,0,0,800.051,580.994Z" transform="translate(-780.056 -569.536)"/>
      <path id="路径_566" data-name="路径 566" class="cls-5" d="M802.834,574.226l-.166-4.431a1.624,1.624,0,0,1,3.245-.125l.353,9.363c.111-.042.282-.108.51-.2l.51-.2q1.6-.624,1.976,1.061a1.476,1.476,0,0,1-.914,1.893q-1.978.895-5.41,2.31-1.6.684-2.123-1.061a1.49,1.49,0,0,1,1.019-2.123l1.249-.438Zm5.638,8.884a11.692,11.692,0,0,0,4.578-5,25.1,25.1,0,0,0,2.1-8.041,2.253,2.253,0,0,1,.583-1.394,1.51,1.51,0,0,1,1.31-.438,1.548,1.548,0,0,1,1.208.646,2.129,2.129,0,0,1,.27,1.457,33.054,33.054,0,0,1-2.248,8.8q3.017,3.372,3.662,4.2a1.622,1.622,0,0,1,.323,1.134,2.246,2.246,0,0,1-.676,1.051,2,2,0,0,1-1.364.781q-.614-.013-1.2-.886-1.083-1.518-2.5-3.225a14.976,14.976,0,0,1-4.348,3.975,1.927,1.927,0,0,1-2.642-.272Q806.08,584.275,808.472,583.11Zm1.021-8.739q-.583-1.1-1.374-2.309-1.019-1.374.624-2.206a1.506,1.506,0,0,1,2.018.416,27.163,27.163,0,0,1,1.852,2.829,1.544,1.544,0,0,1,.177,1.2,1.856,1.856,0,0,1-.906.843,1.466,1.466,0,0,1-2.391-.771Z" transform="translate(-774.746 -569.843)"/>
      <path id="路径_567" data-name="路径 567" class="cls-5" d="M824.256,570.816h5.888a1.323,1.323,0,0,1,1.394,1.394v11.984a4.917,4.917,0,0,1-.281,1.862,2.081,2.081,0,0,1-1.011,1.029,6.076,6.076,0,0,1-2.412.478q-1.833.043-2.205-1.185-.335-1,.166-1.394a2.61,2.61,0,0,1,1.685-.355h.478c.362-.012.541-.179.541-.5V581.28l-1.186.916a1.47,1.47,0,0,1-.987.343.886.886,0,0,1-.739-.426q-1.083-1.351-2.664-2.974a10.269,10.269,0,0,1-2.934,3.6,1.774,1.774,0,0,1-1.134.375,1.2,1.2,0,0,1-.884-.5c-.292-.331-.632-.679-1.019-1.039v4.516a1.551,1.551,0,0,1-3.1,0V572.21a1.323,1.323,0,0,1,1.394-1.394h5.847V568.9a1.581,1.581,0,0,1,3.162,0Zm-3.184,3.037h-3.62a.441.441,0,0,0-.5.5v6.679a8.551,8.551,0,0,0,2.038-1.529,6.053,6.053,0,0,0,1.249-1.852,10.466,10.466,0,0,0,.6-1.872A11.441,11.441,0,0,0,821.072,573.853Zm6.907,0h-3.744a18.808,18.808,0,0,1-.272,2.185,53.884,53.884,0,0,1,4.536,4.577v-6.261Q828.5,573.854,827.979,573.853Z" transform="translate(-766.843 -570.386)"/>
      <path id="路径_568" data-name="路径 568" class="cls-4" d="M786.593,588.872h2.155a1,1,0,0,1,.759.291,1.058,1.058,0,0,1,.283.768v5.583c.307.188.59.346.848.476a11.349,11.349,0,0,0,4.964.759q1.907,0,4.822-.247a1.648,1.648,0,0,1,1.3.185c.217.207.25.61.1,1.209a1.915,1.915,0,0,1-.442.884,1.423,1.423,0,0,1-.9.283q-2.862.14-5,.141a11.811,11.811,0,0,1-5.175-.9c-.211-.106-.462-.251-.75-.433s-.521-.318-.7-.406a1.057,1.057,0,0,0-.459-.133.775.775,0,0,0-.478.284q-1.253,1.924-2.314.406a1.366,1.366,0,0,1,.372-1.943,6.454,6.454,0,0,1,1.272-.8v-3.549a.391.391,0,0,0-.442-.442h-.212a1.209,1.209,0,1,1,0-2.419Zm.865-2.773c-.211-.248-.559-.63-1.042-1.149q-.865-.865.141-1.677a1.082,1.082,0,0,1,1.591.017q.635.566,1.395,1.36a1.128,1.128,0,0,1,.344.857,1.465,1.465,0,0,1-.557.786A1.145,1.145,0,0,1,787.458,586.1Zm9.468,8.813v-2.455h-1.89a8.968,8.968,0,0,1-1.307,3.09,1.629,1.629,0,0,1-.92.583,1.264,1.264,0,0,1-.953-.423,1.44,1.44,0,0,1,0-2.191,4.719,4.719,0,0,0,.476-1.059h-.476a1.117,1.117,0,0,1-1.254-1.273,1.1,1.1,0,0,1,1.254-1.237h.953c.024-.342.036-.841.036-1.5v-.618h-.795a1.272,1.272,0,0,1,0-2.544h.795V584.12a1.148,1.148,0,0,1,1.307-1.29,1.133,1.133,0,0,1,1.273,1.29v1.165h1.5v-1.112a1.307,1.307,0,0,1,2.614,0v1.112h.636a1.272,1.272,0,0,1,0,2.544h-.636v2.119h1.007a1.1,1.1,0,0,1,1.254,1.237,1.117,1.117,0,0,1-1.254,1.273H799.54v2.455a1.307,1.307,0,1,1-2.614,0Zm-1.519-5.706c0,.165-.011.413-.034.742h1.554v-2.119h-1.5v.654C795.425,588.8,795.418,589.041,795.407,589.206Z" transform="translate(-785.339 -560.579)"/>
      <path id="路径_569" data-name="路径 569" class="cls-4" d="M802.491,586.607v11.676a1.228,1.228,0,0,1-2.456,0v-7.948l-.017.017q-1.2,1.306-1.96-.247a1.706,1.706,0,0,1,.281-2.121,18.835,18.835,0,0,0,2.827-4.38,1.206,1.206,0,0,1,1.679-.795,1.039,1.039,0,0,1,.742,1.59A22.948,22.948,0,0,1,802.491,586.607Zm11.145,12.224h-9.062a1.237,1.237,0,0,1,0-2.473H809.1a41.48,41.48,0,0,0,1.271-6.394,1.233,1.233,0,0,1,1.608-1.237q1.377.213,1.095,1.714-.725,3.549-1.466,5.917h2.031a1.237,1.237,0,0,1,0,2.473Zm-.336-10.864h-8.425a1.1,1.1,0,0,1-1.237-1.254,1.085,1.085,0,0,1,1.237-1.218h2.755v-1.538a1.316,1.316,0,1,1,2.633,0V585.5H813.3a1.085,1.085,0,0,1,1.237,1.218A1.1,1.1,0,0,1,813.3,587.967Zm-7.666,6.677a43.206,43.206,0,0,0-.618-4.469q-.265-1.184.989-1.4a1.072,1.072,0,0,1,1.379.9q.635,3,.829,4.752a1.051,1.051,0,0,1-.221.831,1.628,1.628,0,0,1-.857.387,1.5,1.5,0,0,1-1.1-.07A1.1,1.1,0,0,1,805.635,594.644Z" transform="translate(-779.917 -560.664)"/>
      <path id="路径_570" data-name="路径 570" class="cls-4" d="M815.2,585.524h2.931a.719.719,0,0,1,.663.389,3.026,3.026,0,0,1,.2,1.413q-.125,5.705-.293,7.887a7.027,7.027,0,0,1-.555,2.763,2.423,2.423,0,0,1-.981.92,4.7,4.7,0,0,1-1.562.283,1.356,1.356,0,0,1-.884-.274,1.125,1.125,0,0,1-.406-.716,6.652,6.652,0,0,0-.547-1.572,12.67,12.67,0,0,1-.778,1.608,1.687,1.687,0,0,1-.91.778c-.288.057-.627-.106-1.016-.5a1.641,1.641,0,0,1-.539-.963,1.715,1.715,0,0,1,.4-1.033,10.635,10.635,0,0,0,1.272-3.551,30.729,30.729,0,0,0,.423-4.875h-.565a1.281,1.281,0,1,1,0-2.561h.6v-1.59a1.132,1.132,0,0,1,1.271-1.29,1.148,1.148,0,0,1,1.29,1.307Q815.213,585.013,815.2,585.524Zm-.053,2.561a26.581,26.581,0,0,1-1.36,8.443c.554.047,1.047.07,1.484.07a.707.707,0,0,0,.618-.353q.4-.6.565-7.313a1.341,1.341,0,0,0-.089-.671.362.362,0,0,0-.336-.176Zm5.811-3.745h4.416a1.13,1.13,0,0,1,.848.327,1.182,1.182,0,0,1,.318.857v11.217a1.1,1.1,0,0,1-1.167,1.165h-4.416a1.176,1.176,0,0,1-.857-.318,1.124,1.124,0,0,1-.327-.847V585.524a1.123,1.123,0,0,1,1.184-1.184Zm1.324,2.967v7.631q0,.441.425.442h.778a.39.39,0,0,0,.441-.442v-7.631a.389.389,0,0,0-.441-.44H822.7C822.419,586.867,822.277,587.014,822.277,587.308Z" transform="translate(-774.393 -560.659)"/>
      <path id="路径_8668" data-name="路径 8668" class="cls-4" d="M3.727-12.234l-.51-.308q-.334-.2-.457-.29-1.2-.6-.387-1.705a1.133,1.133,0,0,1,1.459-.457,14.273,14.273,0,0,1,1.6.844,1.117,1.117,0,0,1,.536.729,1.266,1.266,0,0,1-.325.87A1.188,1.188,0,0,1,3.727-12.234ZM3.674-9.756q.088.053.3.149t.3.149A1.025,1.025,0,0,1,4.57-7.8a1.544,1.544,0,0,1-.826.7,1.266,1.266,0,0,1-1-.3q-.7-.4-.967-.545-1.266-.633-.51-1.74a1.154,1.154,0,0,1,1.477-.51q.141.07.457.22T3.674-9.756ZM1.564-1.23q.105-.193.8-1.4T3.393-4.482q.65-1.336,1.811-.352A1.238,1.238,0,0,1,5.555-3.2Q4.535-1.055,3.867.158a1.1,1.1,0,0,1-1.881.4A1.213,1.213,0,0,1,1.564-1.23ZM16-5.889H11.215q.193.07.193.105-1,2.566-1.705,4.025.4-.018,1.714-.105t2.048-.123q-.07-.105-.211-.308T13.043-2.6q-.809-1.107.457-1.811a1.188,1.188,0,0,1,1.67.352A21.194,21.194,0,0,1,17.314-.668a1.222,1.222,0,0,1,.035.949,1.83,1.83,0,0,1-.756.686q-1.336.756-1.846-.615L14.73.334V.316q-3.445.316-7.682.65A1.018,1.018,0,0,1,6.152.7a1.826,1.826,0,0,1-.369-.984q-.158-1.3,1.072-1.354h.035A25.324,25.324,0,0,0,8.332-5.889H6.855A1.1,1.1,0,0,1,5.607-7.137a1.1,1.1,0,0,1,1.248-1.23H10v-2.145H7.734A1.1,1.1,0,0,1,6.5-11.76a1.088,1.088,0,0,1,1.23-1.23H10v-1.055A1.2,1.2,0,0,1,11.355-15.4a1.2,1.2,0,0,1,1.354,1.354v1.055h2.426a1.1,1.1,0,0,1,1.248,1.23,1.1,1.1,0,0,1-1.248,1.248H12.709v2.145H16a1.1,1.1,0,0,1,1.248,1.23A1.1,1.1,0,0,1,16-5.889Z" transform="translate(53.255 37.728)"/>
      <path id="路径_8667" data-name="路径 8667" class="cls-4" d="M13.078-12.34a6.306,6.306,0,0,1-.853,2.54,5.156,5.156,0,0,1-1.837,1.7l.826.158a.735.735,0,0,1,.475.308.689.689,0,0,1,.088.554l-.053.264H12.2v-.809a.677.677,0,0,1,.185-.5.677.677,0,0,1,.5-.185h.58a6.263,6.263,0,0,0-.176-1.143q-.352-.932.668-.879h.035a.556.556,0,0,0,.457-.193,2.631,2.631,0,0,0,.246-1.125.976.976,0,0,0-.079-.545.366.366,0,0,0-.325-.141ZM8.895-9.193V-5.01a9.339,9.339,0,0,0,.9-2.812A4.545,4.545,0,0,0,8.895-9.193ZM6.117-6.029V-4.9h.668V-6.029Zm-2.338.6q0,.352-.018.527h.686V-6.029H3.779Zm.3-6.311q-.439.984-.457,1.02h1.23a9.557,9.557,0,0,0,.369-1.02Zm2.707,3.9v-.809a.171.171,0,0,0-.193-.193H6.117v1Zm-2.338,0v-1H3.779v1Zm5.607-6.627h5.818q1.178,0,1.107,2a8.135,8.135,0,0,1-.562,3.41,1.487,1.487,0,0,1-.747.563,6.078,6.078,0,0,1-1.257.176h.176q.088,0,.088.07V-6.82h1.354a.956.956,0,0,1,1.09,1.072.971.971,0,0,1-1.09,1.107H14.678v1.318h1.705A.979.979,0,0,1,17.49-2.215.987.987,0,0,1,16.383-1.09H14.678V.439a1.08,1.08,0,0,1-1.23,1.213A1.088,1.088,0,0,1,12.2.439V-1.09H10.266A.994.994,0,0,1,9.141-2.215a.987.987,0,0,1,1.125-1.107H12.2V-4.641H11.021q-.053.123-.334.7a.522.522,0,0,1-.343.281.516.516,0,0,1-.413-.07,7.992,7.992,0,0,0-1.037-.545V-.7a2.212,2.212,0,0,1-.756,1.986,2.1,2.1,0,0,1-1.521.325A1.246,1.246,0,0,1,5.484.738q-.211-.65.044-.94A1.233,1.233,0,0,1,6.5-.475h.018q.264,0,.264-.281v-2.25H3.639a13.465,13.465,0,0,1-.9,3.779,1.1,1.1,0,0,1-.589.624,1.029,1.029,0,0,1-.817-.22A1.109,1.109,0,0,1,.967-.457a15.331,15.331,0,0,0,.756-5.52V-8.771q-.4-.369-.773-.668a.777.777,0,0,1-.325-.527.684.684,0,0,1,.167-.562A11.786,11.786,0,0,0,2.549-14.2a1.1,1.1,0,0,1,1.441-.949.994.994,0,0,1,.826,1.406l-.018.035-.018.035H6.645q1.266,0,.932,1.512A11.8,11.8,0,0,1,7-10.723H8.033a.855.855,0,0,1,.633.229.855.855,0,0,1,.229.633v.053a3.373,3.373,0,0,0,1.863-2.531h-.7A.94.94,0,0,1,9-13.412.932.932,0,0,1,10.055-14.467Zm10.688,4.043q-.316-.475-1.371-2.021-.738-.984.369-1.67a1.128,1.128,0,0,1,1.617.264q1.055,1.3,1.688,2.215a1.147,1.147,0,0,1,.22.914,1.455,1.455,0,0,1-.677.721A1.136,1.136,0,0,1,20.742-10.424ZM18.984-1.687q1.23-2.232,1.846-3.6t1.758-.439a1.265,1.265,0,0,1,.422,1.617q-.668,1.547-1.723,3.691Q20.619.914,19.441.07a1.578,1.578,0,0,1-.659-.782A1.318,1.318,0,0,1,18.984-1.687ZM30.2-8.209q0,.264-.035.756h1.494V-9.914q0-.439-.422-.439h-1.02v1.389Q30.217-8.455,30.2-8.209Zm4.008,3.252H31.412A7.646,7.646,0,0,0,33.979-1.6q1.811.949.791,2.285A1.374,1.374,0,0,1,32.8.949,9.4,9.4,0,0,1,29.3-3.6,10.263,10.263,0,0,1,25.8.879Q24.451,1.74,23.66.844q-1.09-1.213.826-2.355a7.083,7.083,0,0,0,2.5-3.445H24.961a1.1,1.1,0,0,1-1.23-1.248,1.1,1.1,0,0,1,1.23-1.248h2.5q.053-.791.053-1.529v-1.371H25.664a1.08,1.08,0,0,1-1.213-1.23,1.08,1.08,0,0,1,1.213-1.23H27.51v-1.248a1.2,1.2,0,0,1,1.354-1.354,1.2,1.2,0,0,1,1.354,1.354v1.248h2.76a1.171,1.171,0,0,1,.853.316,1.123,1.123,0,0,1,.325.844v4.2h.053a1.1,1.1,0,0,1,1.23,1.248A1.1,1.1,0,0,1,34.207-4.957ZM39.8-9.615V.4A1.283,1.283,0,0,1,37.23.4V-9.615A1.134,1.134,0,0,1,38.514-10.9,1.134,1.134,0,0,1,39.8-9.615ZM38.76-12.41l-.686-.791q-.756-.879.264-1.564a1.029,1.029,0,0,1,1.494.123q.791.826,1.424,1.529a1.043,1.043,0,0,1,.334.835,1.292,1.292,0,0,1-.6.729,1.1,1.1,0,0,1-1.74-.264q-.07-.088-.237-.29ZM45.9-5.537V-7.031q0-.439-.422-.439H44.191a.388.388,0,0,0-.439.439v1.494q0,.422.439.422h1.283A.373.373,0,0,0,45.9-5.537ZM42.609-9.791h4.623a1.153,1.153,0,0,1,.853.325,1.153,1.153,0,0,1,.325.853v4.658a1.123,1.123,0,0,1-.325.844,1.171,1.171,0,0,1-.853.316H42.609a1.171,1.171,0,0,1-.853-.316,1.123,1.123,0,0,1-.325-.844V-8.613a1.153,1.153,0,0,1,.325-.853A1.153,1.153,0,0,1,42.609-9.791Zm.773-4.764h8.244a1.14,1.14,0,0,1,.844.316,1.14,1.14,0,0,1,.316.844V-1.283A4.186,4.186,0,0,1,52.55.308a1.779,1.779,0,0,1-.817.87,4.731,4.731,0,0,1-1.969.422Q48.3,1.635,47.988.58q-.246-.791.149-1.134a1.879,1.879,0,0,1,1.31-.308,2.57,2.57,0,0,1,.316-.018.388.388,0,0,0,.439-.439V-11.725q0-.422-.439-.422H43.383a1.072,1.072,0,0,1-1.213-1.213A1.064,1.064,0,0,1,43.383-14.555ZM57.8-12.463h2.057V-12.8a.186.186,0,0,0-.211-.211H58.236q-.439,0-.439.422Zm.229,2.18h1.389q.439,0,.439-.422v-.141H57.8v.334A.2.2,0,0,0,58.025-10.283ZM56.689-14.73h4.359a1.153,1.153,0,0,1,.853.325,1.153,1.153,0,0,1,.325.853v3.814a1.153,1.153,0,0,1-.325.853,1.153,1.153,0,0,1-.853.325H56.689a1.153,1.153,0,0,1-.853-.325,1.153,1.153,0,0,1-.325-.853v-3.814a1.153,1.153,0,0,1,.325-.853A1.153,1.153,0,0,1,56.689-14.73Zm7.172.018h6.5a.893.893,0,0,1,1,1.02.893.893,0,0,1-1,1.02H68.256q-.281.563-.545,1.037h1.934a1.123,1.123,0,0,1,.844.325,1.171,1.171,0,0,1,.316.853v5.15a.948.948,0,0,1-1.072,1.072A.948.948,0,0,1,68.66-5.309V-9.387q0-.422-.439-.422H65.848q-.439,0-.439.422v4.9a8.948,8.948,0,0,0,.6-3.375,1.592,1.592,0,0,1,.3-.923.911.911,0,0,1,.773-.378.854.854,0,0,1,.765.439A1.788,1.788,0,0,1,68.1-7.7a19.854,19.854,0,0,1-.185,2.065,8.7,8.7,0,0,1-.431,1.688,4.451,4.451,0,0,1-.8,1.4,5.557,5.557,0,0,1-1.274,1.063,8.352,8.352,0,0,1-1.863.835q4.1,0,6.205-.035-.492-.475-1.793-1.529a.839.839,0,0,1-.07-1.424.94.94,0,0,1,1.336-.141q.281.211.809.6t.65.475a.85.85,0,0,1,.36.694,1.225,1.225,0,0,1-.343.835L70.277-.7h.035a.959.959,0,0,1,.844.272.938.938,0,0,1-.018.888,1.33,1.33,0,0,1-1.354.932H63.3A15.768,15.768,0,0,1,59.388,1a4.578,4.578,0,0,1-2.4-1.529q-.07.3-.4,1.266a1.108,1.108,0,0,1-.58.624,1.015,1.015,0,0,1-.809-.22,1.3,1.3,0,0,1-.58-.659,1.2,1.2,0,0,1,.176-.835A11.229,11.229,0,0,0,55.424-4.1a1.381,1.381,0,0,1,.3-.888.923.923,0,0,1,.809-.29A.933.933,0,0,1,57.5-4.2q-.035.738-.07,1.037a3.843,3.843,0,0,0,.58,1.037V-5.836h-2.25a.823.823,0,0,1-.932-.932.823.823,0,0,1,.932-.932H62a.823.823,0,0,1,.932.932A.823.823,0,0,1,62-5.836H60.17v1.2h1.424a.808.808,0,0,1,.914.914.816.816,0,0,1-.914.932H60.17V-.879a16,16,0,0,0,3.094.229,4.528,4.528,0,0,0-.51-.914q-.58-.721.475-1.072A4.588,4.588,0,0,0,65.18-4.078h-.967a.85.85,0,0,1-.642-.246.874.874,0,0,1-.237-.633v-5.5a1.153,1.153,0,0,1,.325-.853,1.153,1.153,0,0,1,.853-.325h.861a10.258,10.258,0,0,0,.387-1.037h-1.9a.893.893,0,0,1-1-1.02A.893.893,0,0,1,63.861-14.713Z" transform="translate(-0.745 58.728)"/>
    </g>
    <g id="组_252" data-name="组 252" transform="translate(83.156 -4)">
      <path id="路径_572" data-name="路径 572" class="cls-6" d="M821.555,559.519a.735.735,0,0,1,.092-1.047q2.139-1.909,4.287-3.808a.743.743,0,0,1,.88-.01c.349.314.6.73.968,1.022a1.454,1.454,0,0,0,.422.475,1.486,1.486,0,0,0,.284.359c.115.115.2.275.359.336-.455.469-.971.874-1.452,1.319-.89.8-1.792,1.584-2.683,2.382-.386.353-.783.693-1.169,1.044l-.172-.026C822.774,560.875,822.155,560.205,821.555,559.519Z" transform="translate(-821.377 -554.515)"/>
      <path id="路径_573" data-name="路径 573" class="cls-7" d="M823.094,561.331a1.746,1.746,0,0,1-.318-.422l.133,0,.024-.022c.386-.352.783-.692,1.169-1.044.5.617,1.054,1.192,1.587,1.783l-.027.026c-.4.36-.8.714-1.2,1.07a.089.089,0,0,1-.149-.026c-.407-.453-.809-.91-1.217-1.362Zm5.274-2.1q-.775-.9-1.583-1.77c.481-.445,1-.849,1.452-1.319.554.571,1.06,1.185,1.6,1.773l-.089.109q-.693.6-1.37,1.214Z" transform="translate(-820.769 -553.809)"/>
      <path id="路径_574" data-name="路径 574" class="cls-8" d="M823.7,559.44c.891-.8,1.793-1.584,2.683-2.382q.809.869,1.583,1.77c-.885.806-1.793,1.588-2.679,2.395C824.755,560.632,824.2,560.057,823.7,559.44Z" transform="translate(-820.367 -553.41)"/>
      <path id="路径_575" data-name="路径 575" class="cls-9" d="M825.346,563.743c-.463-.529-.948-1.04-1.4-1.583.4-.356.8-.71,1.2-1.07,1.551,1.753,3.116,3.494,4.673,5.241.615.692,1.251,1.363,1.87,2.05q5.316,5.942,10.6,11.907c.037.066.073.133.109.2a1.121,1.121,0,0,1-.562,1.012,1.143,1.143,0,0,1-.551.087c-.073-.06-.149-.118-.221-.178a1.458,1.458,0,0,0-.33-.438Q833.053,572.347,825.346,563.743Zm2.519-5.066q.676-.618,1.37-1.214l.049-.04c.208.235.422.466.627.706.649.772,1.339,1.507,2,2.264,1.637,1.832,3.251,3.683,4.892,5.509a4.487,4.487,0,0,0,.613.633c2.951,3.273,5.871,6.574,8.815,9.851a1.114,1.114,0,0,1,.247.456,1.242,1.242,0,0,1-.5.954.862.862,0,0,1-.842.222c-.062-.065-.125-.129-.184-.2-.383-.507-.838-.956-1.252-1.438q-4.466-4.976-8.917-9.963c-2.311-2.578-4.6-5.179-6.918-7.746Z" transform="translate(-820.258 -553.251)"/>
      <path id="路径_576" data-name="路径 576" class="cls-10" d="M824.788,560.876l.027-.026c.885-.806,1.793-1.588,2.679-2.395l.007.007c2.323,2.567,4.607,5.168,6.918,7.746q4.446,4.993,8.917,9.963c.415.482.869.931,1.252,1.438a.643.643,0,0,0,.1.258,1.318,1.318,0,0,1-.433,1.062,4.642,4.642,0,0,1-1.412,1.08,1.224,1.224,0,0,1-.706.143c-.069-.024-.133-.053-.2-.079q-5.29-5.963-10.6-11.907c-.618-.687-1.254-1.359-1.87-2.05C827.9,564.37,826.339,562.629,824.788,560.876Zm6.762-.7c-.664-.757-1.354-1.492-2-2.264,2.505,2.8,5.017,5.594,7.508,8.406a4.487,4.487,0,0,1-.613-.633C834.8,563.862,833.187,562.011,831.55,560.179Z" transform="translate(-819.894 -553.037)"/>
      <path id="路径_577" data-name="路径 577" class="cls-11" d="M836.161,575.731l-.123-.027a1.143,1.143,0,0,0,.551-.087,1.121,1.121,0,0,0,.563-1.012c.03-.04.06-.082.092-.122a1.224,1.224,0,0,0,.706-.143,4.642,4.642,0,0,0,1.412-1.08,1.318,1.318,0,0,0,.433-1.062l.108.017-.02-.08a.862.862,0,0,0,.842-.222,1.242,1.242,0,0,0,.5-.954c.109,0,.185.042.141.162l.06.006a.588.588,0,0,0,.115.356l-.019.1.069.006c-.014.166.113.3.109.466l.062,0c-.03.167.12.293.108.456l.054,0c-.019.165.118.291.113.453l.053.009a.668.668,0,0,0,.118.36l-.029.083.079.02c-.019.162.118.29.112.449l.054.009c-.019.164.116.291.113.452l.053.01c-.014.161.11.29.115.449l.053.013c-.02.161.112.288.115.448l.049.013c0,.159.1.3.113.453l.056.006c-.013.161.106.293.118.451l.047.011c-.009.158.1.29.113.446l.053.016a.686.686,0,0,0,.1.336l.016.116.01.095c-.537.495-1.1.964-1.633,1.461l.252.151c-.148-.036-.247-.168-.393-.2a.593.593,0,0,0-.334-.142l.006-.073-.1.009a.57.57,0,0,0-.341-.156l0-.073-.1.011a1.978,1.978,0,0,0-.436-.231.737.737,0,0,0-.341-.145v-.052c-.159-.016-.273-.162-.435-.167l-.01-.047c-.146-.039-.266-.139-.412-.176a.605.605,0,0,0-.336-.141l.006-.076-.1.014a.569.569,0,0,0-.34-.158l0-.072-.1.01a.564.564,0,0,0-.339-.158v-.056c-.161-.01-.273-.159-.438-.164l0-.049c-.156-.026-.273-.159-.433-.169l0-.044a1.153,1.153,0,0,0-.314-.1l.013-.079-.106.013a.611.611,0,0,0-.343-.154l0-.073-.1.011c-.064-.066-.191-.079-.176-.2Z" transform="translate(-815.003 -547.367)"/>
      <path id="路径_578" data-name="路径 578" class="cls-12" d="M840.139,576.806c.536-.5,1.1-.966,1.633-1.461l-.01-.095.044-.016c.021.108.05.214.063.324l.047.128c.217.463.337.967.548,1.432a.726.726,0,0,0,.129.321c0,.032,0,.095,0,.126-.158.079-.247.31-.448.261l-.119-.063-.069-.042-.122-.062a2.072,2.072,0,0,1-.275-.108c-.382-.214-.788-.382-1.168-.6l-.252-.151Z" transform="translate(-813.221 -545.508)"/>
      <path id="路径_579" data-name="路径 579" class="cls-13" d="M841.4,575.589l-.047-.128.057.011.024.066-.034.05Zm-.073,2.033-.009-.059.122.062-.052.029-.062-.031Zm.188.1-.006-.059.119.063-.053.027Z" transform="translate(-812.707 -545.409)"/>
    </g>
  </g>
  <g id="组_254" data-name="组 254" transform="translate(10.195 35.842)">
    <path id="路径_580" data-name="路径 580" class="cls-14" d="M758.683,552.26l13.343-13.343a3.465,3.465,0,0,1,4.9,0l0,0,13.227,13.227-.26,15.281A2.617,2.617,0,0,1,787.343,570l-15.43.387-13.227-13.227a3.465,3.465,0,0,1-.006-4.9l0,0Z" transform="translate(-757.669 -537.903)"/>
    <path id="路径_581" data-name="路径 581" class="cls-15" d="M768.441,538.936a3.378,3.378,0,0,1,4.776,0l13.142,13.143a.254.254,0,0,1,.033.334l-.02.02a5.473,5.473,0,0,1-8.552,1.065l-11.971-11.97Z" transform="translate(-754.113 -537.884)"/>
    <path id="路径_582" data-name="路径 582" class="cls-16" d="M760.976,546.233a.261.261,0,0,1,.369,0l11.274,11.274c2.439,2.439,2.994,5.877.555,8.316a6.047,6.047,0,0,1-1.072.849.256.256,0,0,1-.336-.033L758.8,553.675a3.729,3.729,0,0,1,0-5.271Z" transform="translate(-757.651 -534.314)"/>
    <path id="路径_583" data-name="路径 583" class="cls-17" d="M768.156,540.491a.264.264,0,0,1,.372,0h0L779.8,551.765c2.439,2.439,2.809,6.063.365,8.507a6.064,6.064,0,0,1-8.682-.188L760.209,548.81a.285.285,0,0,1,0-.372Z" transform="translate(-756.594 -536.811)"/>
    <path id="路径_584" data-name="路径 584" class="cls-18" d="M774.927,562.648l4.915-.123a2.617,2.617,0,0,0,2.552-2.574l.082-4.851Z" transform="translate(-750.166 -530.427)"/>
    <path id="路径_585" data-name="路径 585" class="cls-19" d="M777.9,550.987a1.4,1.4,0,0,1,1.984,1.984h0a1.4,1.4,0,0,1-1.984-1.984Zm1.189,4.364a.843.843,0,1,1-.007,1.2A.853.853,0,0,1,779.093,555.351Z" transform="translate(-749.05 -532.393)"/>
  </g>
  <g id="组_262" data-name="组 262" transform="translate(44.791 0)">
    <g id="组_261" data-name="组 261">
      <g id="组_257" data-name="组 257">
        <g id="组_255" data-name="组 255" transform="translate(2.152 2.153)">
          <path id="路径_586" data-name="路径 586" class="cls-20" d="M789.336,558.9c-3.792,0-6.055-2.263-6.055-6.053,0-3.759,2.263-6,6.055-6h2.488V528.268h-2.278c-3.179,0-5.155-2.037-5.155-5.316a5.474,5.474,0,0,1,1.336-3.618,5.815,5.815,0,0,1,3.344-1.92,23.537,23.537,0,0,0,5.164-2.03,6.941,6.941,0,0,1,3.641-.963h2.319a5.317,5.317,0,0,1,5.526,5.524v26.9h1.171c3.791,0,6.053,2.242,6.053,6,0,3.79-2.263,6.053-6.053,6.053Z" transform="translate(-783.282 -514.422)"/>
        </g>
        <g id="组_256" data-name="组 256">
          <path id="路径_587" data-name="路径 587" class="cls-1" d="M800.848,517.225a3.175,3.175,0,0,1,3.373,3.373v29.049h3.324q3.9,0,3.9,3.851,0,3.9-3.9,3.9H789.989q-3.906,0-3.9-3.9,0-3.852,3.9-3.851h4.64V526.769H790.2q-3,0-3-3.164a3.292,3.292,0,0,1,.815-2.215,3.694,3.694,0,0,1,2.136-1.214,25.476,25.476,0,0,0,5.8-2.267,4.811,4.811,0,0,1,2.581-.684h2.32m0-4.3h-2.32a9.093,9.093,0,0,0-4.691,1.235,21.274,21.274,0,0,1-4.644,1.822,8.029,8.029,0,0,0-4.438,2.6,7.608,7.608,0,0,0-1.864,5.031c0,4.466,2.937,7.468,7.307,7.468h.126v14.27h-.336c-4.986,0-8.207,3.2-8.207,8.155,0,4.984,3.221,8.2,8.207,8.2h17.557c4.983,0,8.2-3.22,8.2-8.2,0-4.621-2.8-7.716-7.224-8.112V520.6a7.466,7.466,0,0,0-7.677-7.677Z" transform="translate(-781.782 -512.921)"/>
        </g>
      </g>
      <g id="组_260" data-name="组 260" transform="translate(32.844)">
        <g id="组_258" data-name="组 258" transform="translate(2.152 2.153)">
          <path id="路径_588" data-name="路径 588" class="cls-20" d="M812.23,558.9c-3.792,0-6.056-2.263-6.056-6.053,0-3.759,2.264-6,6.056-6h2.486V528.268h-2.278c-3.179,0-5.155-2.037-5.155-5.316a5.483,5.483,0,0,1,1.333-3.615,5.819,5.819,0,0,1,3.347-1.923,23.444,23.444,0,0,0,5.162-2.03,6.947,6.947,0,0,1,3.643-.963h2.32a5.315,5.315,0,0,1,5.524,5.524v26.9h1.174c3.788,0,6.052,2.242,6.052,6,0,3.79-2.264,6.053-6.052,6.053Z" transform="translate(-806.174 -514.422)"/>
        </g>
        <g id="组_259" data-name="组 259">
          <path id="路径_589" data-name="路径 589" class="cls-1" d="M823.74,517.225a3.175,3.175,0,0,1,3.373,3.373v29.049h3.324q3.9,0,3.9,3.851,0,3.9-3.9,3.9H812.882q-3.908,0-3.9-3.9,0-3.852,3.9-3.851h4.638V526.769h-4.43q-3,0-3-3.164a3.291,3.291,0,0,1,.815-2.215,3.7,3.7,0,0,1,2.136-1.214,25.475,25.475,0,0,0,5.8-2.267,4.811,4.811,0,0,1,2.581-.684h2.32m0-4.3h-2.32a9.093,9.093,0,0,0-4.692,1.235,21.243,21.243,0,0,1-4.644,1.822,8.029,8.029,0,0,0-4.438,2.6,7.608,7.608,0,0,0-1.864,5.031c0,4.466,2.937,7.468,7.307,7.468h.126v14.27h-.334c-4.987,0-8.208,3.2-8.208,8.155,0,4.984,3.221,8.2,8.208,8.2h17.555c4.983,0,8.2-3.22,8.2-8.2,0-4.621-2.8-7.716-7.224-8.112V520.6a7.466,7.466,0,0,0-7.677-7.677Z" transform="translate(-804.674 -512.921)"/>
        </g>
      </g>
    </g>
  </g>
</svg>
