<svg id="组_365" data-name="组 365" xmlns="http://www.w3.org/2000/svg" width="114.478" height="114.258" viewBox="0 0 114.478 114.258">
  <defs>
    <style>
      .cls-1 {
        fill: #8a493c;
      }

      .cls-2 {
        fill: #e37863;
      }

      .cls-3 {
        fill: #cf9946;
      }

      .cls-4 {
        fill: #deaf66;
      }

      .cls-5 {
        fill: #fff;
      }
    </style>
  </defs>
  <g id="组_363" data-name="组 363" transform="translate(0 0)">
    <rect id="矩形_65" data-name="矩形 65" class="cls-1" width="99.217" height="15.232" transform="translate(7.827 14.939)"/>
    <rect id="矩形_66" data-name="矩形 66" class="cls-1" width="11.914" height="29.829" rx="4.152" transform="translate(0 7.958)"/>
    <path id="路径_762" data-name="路径 762" class="cls-1" d="M1133.235,11.936v17.91a5.953,5.953,0,0,1-11.907,0V11.936a5.953,5.953,0,1,1,11.907,0Z" transform="translate(-1018.757 1.984)"/>
    <path id="路径_763" data-name="路径 763" class="cls-2" d="M1133.235,8.412V23.884c0,4.392-2.671,7.986-5.953,7.986s-5.954-3.594-5.954-7.986V8.412c0-4.393,2.673-7.986,5.954-7.986a5.325,5.325,0,0,1,4.212,2.346A9.554,9.554,0,0,1,1133.235,8.412Z" transform="translate(-1018.757 -0.426)"/>
    <path id="路径_764" data-name="路径 764" class="cls-2" d="M1061.744,8.412V23.884c0,4.392-2.671,7.986-5.953,7.986s-5.953-3.594-5.953-7.986V8.412c0-4.393,2.672-7.986,5.953-7.986a5.329,5.329,0,0,1,4.214,2.346A9.554,9.554,0,0,1,1061.744,8.412Z" transform="translate(-1049.835 -0.426)"/>
    <path id="路径_765" data-name="路径 765" class="cls-3" d="M1149.993,75.232a14.591,14.591,0,0,1-3.269,9.857c-7.967,9.57-24.7,18.356-37.919,24.795a11.412,11.412,0,0,1-9.347.323c-13.2-5.432-26.087-15.462-33.943-22.247a21.488,21.488,0,0,1-7.37-16.854l1.666-56.637a5.875,5.875,0,0,1,5.866-5.693h75.466a5.566,5.566,0,0,1,.907.075,5.848,5.848,0,0,1,4.96,5.469C1147.73,27.717,1149.521,61.7,1149.993,75.232Z" transform="translate(-1046.228 3.204)"/>
    <g id="组_362" data-name="组 362" transform="translate(17.631 11.98)">
      <g id="组_361" data-name="组 361">
        <path id="路径_766" data-name="路径 766" class="cls-4" d="M1143.485,64.693a22.909,22.909,0,0,1-8.736,18.083c-5.842,4.611-20.695,15.313-32.415,15.313-15.113,0-33.321-14.778-38.205-24.746-4.4-8.961-.323-54.66.621-64.567h3.119l3.095.3c-1.989,20.719-4.089,55.755-1.255,61.534,3.667,7.471,19.588,21.265,32.626,21.265,7.991,0,20-7.221,28.574-13.981a16.689,16.689,0,0,0,6.363-13.2c.024-23.267-1.4-51.8-3.356-55.917h5.494a5.565,5.565,0,0,1,.907.075C1143.474,22.535,1143.485,64.221,1143.485,64.693Z" transform="translate(-1062.125 -8.776)"/>
      </g>
    </g>
  </g>
  <path id="路径_17065" data-name="路径 17065" class="cls-5" d="M-9.587-10.63h-1.766a.412.412,0,0,0-.466.466v.687q0,.613.589.613h1.644ZM-6-8.864h1.791q.466,0,.466-.491v-.662q0-.613-.589-.613H-6Zm4.661-6.084H-6v1.374h4.1a1.609,1.609,0,0,1,1.19.454,1.609,1.609,0,0,1,.454,1.19v4.367A1.568,1.568,0,0,1-.718-6.386a1.634,1.634,0,0,1-1.19.442H-6.177a11.2,11.2,0,0,1-1.251,4.1A19.666,19.666,0,0,0-2.3-.351Q.741.016-.608,2.077a2.284,2.284,0,0,1-2.478.908A20.121,20.121,0,0,1-9.538.777,11.8,11.8,0,0,1-12.6,2.666,2.087,2.087,0,0,1-15.253,2.1Q-16.652.237-13.9-.572a7.488,7.488,0,0,0,1.423-.81,17.612,17.612,0,0,1-1.791-2.061q-.981-1.472.76-1.987a1.583,1.583,0,0,1,1.938.589,10.914,10.914,0,0,0,1.128,1.153,9.566,9.566,0,0,0,.687-2.257h-3.7a1.591,1.591,0,0,1-1.178-.442,1.591,1.591,0,0,1-.442-1.178V-11.93a1.634,1.634,0,0,1,.442-1.19,1.568,1.568,0,0,1,1.178-.454h3.876v-1.374h-4.269a1.609,1.609,0,0,1-1.19-.454,1.609,1.609,0,0,1-.454-1.19V-17.2q-.319.711-1.251,2.429V1.66a1.507,1.507,0,0,1-1.717,1.693A1.5,1.5,0,0,1-20.16,1.66V-9.575q0,.025-.012.025t-.012.025q-1.644,1.84-2.723-.319a2.347,2.347,0,0,1,.393-2.895,25.832,25.832,0,0,0,3.974-6.207,1.692,1.692,0,0,1,1.043-1.03,2.315,2.315,0,0,1,1.558,0,1.559,1.559,0,0,1,.9.675,1.135,1.135,0,0,1,.037,1.018v.025l-.025.025h5.446v-.319A1.583,1.583,0,0,1-7.771-20.32,1.561,1.561,0,0,1-6-18.554v.319h4.661A1.431,1.431,0,0,1,.275-16.616,1.453,1.453,0,0,1-1.344-14.948Zm21.563,5.2H15.8v2.478h4.416ZM8.125-8.545q0,.393-.049,1.276h4.1V-9.747H8.15Q8.15-8.962,8.125-8.545Zm.025-4.587h4.023v-2.306H8.739q-.589,0-.589.613Zm7.654,0h4.416v-1.693q0-.613-.589-.613H15.8ZM6.212-18.9H22.206a1.609,1.609,0,0,1,1.19.454,1.609,1.609,0,0,1,.454,1.19V-.769a5.415,5.415,0,0,1-.343,2.147,2.429,2.429,0,0,1-1.153,1.19,6.986,6.986,0,0,1-2.8.589q-2.085.049-2.551-1.4Q16.662.63,17.2.176a2.82,2.82,0,0,1,1.889-.4h.54a.52.52,0,0,0,.589-.589V-3.835H15.8v5a1.6,1.6,0,0,1-1.815,1.815,1.6,1.6,0,0,1-1.815-1.815v-5H7.659A15.4,15.4,0,0,1,5.672,1.93a2.079,2.079,0,0,1-1.178.932,1.788,1.788,0,0,1-1.349-.54q-1.5-1.227-.2-3.017A12.5,12.5,0,0,0,4.262-4.853a37.7,37.7,0,0,0,.307-5.066v-7.335a1.609,1.609,0,0,1,.454-1.19A1.609,1.609,0,0,1,6.212-18.9ZM-19.4,15.259q-1.374-1.545-1.619-1.791a1.4,1.4,0,0,1,.1-2.331,1.491,1.491,0,0,1,2.232-.049q1.668,1.595,2.085,2.061a1.506,1.506,0,0,1,.466,1.141,2.037,2.037,0,0,1-.687,1.092A1.528,1.528,0,0,1-19.4,15.259Zm-1.889,2.232H-18.2a1.518,1.518,0,0,1,1.1.4,1.483,1.483,0,0,1,.417,1.116V26l.343-.27q1.815-1.447,2.576.589a1.9,1.9,0,0,1-.429,1.668,7.605,7.605,0,0,1-1.484,1.668q-3.066,2.5-3.827,3.263a1.347,1.347,0,0,1-.343.012,1.191,1.191,0,0,1-.626-.331,2.433,2.433,0,0,1-.626-.834.022.022,0,0,0-.025-.025l-.025-.049a2.036,2.036,0,0,1-.4-1.374,2.017,2.017,0,0,1,.626-1.276,2.9,2.9,0,0,0,.589-1.619V21.048h-.957a1.572,1.572,0,0,1-1.791-1.766A1.583,1.583,0,0,1-21.288,17.491Zm10.671,3.091h5.593v-2.6h-5.593a.542.542,0,0,0-.613.613v1.374A.542.542,0,0,0-10.617,20.582Zm9.273-4.759v6.3a1.609,1.609,0,0,1-.454,1.19,1.609,1.609,0,0,1-1.19.454h-.736v5.372a3.351,3.351,0,0,0,.049.76.208.208,0,0,0,.221.147h.294q.221,0,.294-.564a2.734,2.734,0,0,1,.38-1.607q.331-.356.846.012a4.527,4.527,0,0,0,.589.245Q.373,28.6.005,31.008a3.512,3.512,0,0,1-.994,1.864,2.7,2.7,0,0,1-1.779.54h-1.4a2.843,2.843,0,0,1-2.5-.908,6.333,6.333,0,0,1-.613-3.312V23.771H-8.605a16.736,16.736,0,0,1-1.116,5.311,7.936,7.936,0,0,1-3.128,3.569q-1.84.981-2.748-.2-1.178-1.595,1.251-3.042a4.947,4.947,0,0,0,1.533-2.281,15.249,15.249,0,0,0,.552-3.361h-1.3a1.144,1.144,0,0,1-.846-.307,1.144,1.144,0,0,1-.307-.846V16.436a1.634,1.634,0,0,1,.442-1.19,1.568,1.568,0,0,1,1.178-.454h.957A18.5,18.5,0,0,0-13,12.83q-1.006-1.668.736-2.4a1.635,1.635,0,0,1,2.159.662,15.9,15.9,0,0,1,.981,1.693,1.334,1.334,0,0,1,.012,1.1,1.55,1.55,0,0,1-.871.81l-.245.1h2.8A28.485,28.485,0,0,0-6.177,11.8a1.775,1.775,0,0,1,2.453-1.374q2.036.564,1.03,2.649-.147.294-.442.859t-.442.859h1.2a1.011,1.011,0,0,1,.748.282A1.011,1.011,0,0,1-1.344,15.823ZM8.469,17.27V14.989q0-.589-.613-.589H6.678a.52.52,0,0,0-.589.589V17.27Zm-2.38,3.238v2.968H7.855a.542.542,0,0,0,.613-.613V20.509Zm-1.717-9.4h5.814a1.52,1.52,0,0,1,1.619,1.619V25.145a1.634,1.634,0,0,1-.442,1.19,1.568,1.568,0,0,1-1.178.454h-4.1v.417a1.474,1.474,0,0,1-1.668,1.668,1.474,1.474,0,0,1-1.668-1.668V12.732a1.591,1.591,0,0,1,.442-1.178A1.591,1.591,0,0,1,4.372,11.113Zm12.29,11.456h4.563V19.993H16.76Q16.76,21.367,16.662,22.569Zm.1-5.839h4.465V14.768a.52.52,0,0,0-.589-.589H17.374q-.613,0-.613.589Zm-1.938-5.937h8.365a1.558,1.558,0,0,1,1.644,1.644V29.684a5.69,5.69,0,0,1-.319,2.134,2.43,2.43,0,0,1-1.128,1.2,5.7,5.7,0,0,1-1.815.576,4.575,4.575,0,0,1-2.024-.135,1.793,1.793,0,0,1-1.288-1.153q-.417-1.153.123-1.631a2.838,2.838,0,0,1,1.913-.454h.343a.52.52,0,0,0,.589-.589v-3.8H16.2a13.814,13.814,0,0,1-3.361,6.8q-1.447,1.251-2.649.2Q8.64,31.45,10.6,29.61a10.019,10.019,0,0,0,1.717-3.152,14.425,14.425,0,0,0,.748-3.2q.135-1.4.135-3.287V12.438a1.634,1.634,0,0,1,.442-1.19A1.568,1.568,0,0,1,14.822,10.794Z" transform="translate(55.505 43.768)"/>
</svg>
