<svg id="组_161" data-name="组 161" xmlns="http://www.w3.org/2000/svg" width="151.957" height="173.642" viewBox="0 0 151.957 173.642">
  <defs>
    <style>
      .cls-1 {
        fill: #fff;
      }

      .cls-2 {
        fill: #ffde78;
      }

      .cls-3 {
        fill: #ffe0f5;
      }

      .cls-4 {
        fill: #ffabe7;
      }

      .cls-5 {
        fill: #f0dadc;
      }

      .cls-6 {
        fill: #f0b2b7;
      }

      .cls-7 {
        fill: #e8f7ff;
      }

      .cls-8 {
        fill: #c3e1f0;
      }

      .cls-9 {
        fill: #ebffd4;
      }

      .cls-10 {
        fill: #b6f582;
      }

      .cls-11 {
        fill: #7d5d3c;
      }

      .cls-12 {
        fill: #a3dffd;
      }

      .cls-13 {
        fill: #f84f4f;
      }

      .cls-14 {
        fill: #e66847;
      }

      .cls-15 {
        fill: #ffe2c9;
      }

      .cls-16 {
        fill: #f8c34f;
      }

      .cls-17 {
        fill: #f8934f;
      }

      .cls-18 {
        fill: #683818;
      }

      .cls-19 {
        fill: #f9fbf8;
      }

      .cls-20 {
        fill: #b36339;
      }
    </style>
  </defs>
  <circle id="椭圆_89" data-name="椭圆 89" class="cls-1" cx="75.978" cy="75.978" r="75.978" transform="translate(0 21.685)"/>
  <circle id="椭圆_90" data-name="椭圆 90" class="cls-2" cx="66.801" cy="66.801" r="66.801" transform="translate(9.178 30.863)"/>
  <g id="组_154" data-name="组 154" transform="translate(7.904 65.175)">
    <g id="组_146" data-name="组 146" transform="translate(0 14.295)">
      <path id="路径_340" data-name="路径 340" class="cls-3" d="M1026.132,562.467l-9.07,45.349h36.6l4.391-43.567Z" transform="translate(-1017.062 -562.467)"/>
      <path id="路径_341" data-name="路径 341" class="cls-4" d="M1026.007,563.088l-6.235,44.458h10.689l4.895-43.189Z" transform="translate(-1015.884 -562.197)"/>
      <path id="路径_342" data-name="路径 342" class="cls-4" d="M1036.272,563.088l-6.235,44.458h10.689l4.895-43.189Z" transform="translate(-1011.422 -562.197)"/>
    </g>
    <g id="组_147" data-name="组 147" transform="translate(38.006 14.257)">
      <path id="路径_343" data-name="路径 343" class="cls-5" d="M1077.782,606.3l-27.74,2.128a1.91,1.91,0,0,1-2.046-1.7l-.736-7-1.373-13.062-.469-4.472-1.288-12.24-.577-5.491,5.5-.142,10.849-.283,5.9-.152,4.33-.111,2.57-.067.252,2.129.175,1.475Z" transform="translate(-1043.552 -561.889)"/>
      <path id="路径_344" data-name="路径 344" class="cls-6" d="M1046.748,603.149l26.191-29.947,1.265,10.106L1060.475,603.4S1046.748,605.092,1046.748,603.149Z" transform="translate(-1042.162 -557.762)"/>
      <path id="路径_345" data-name="路径 345" class="cls-6" d="M1072.427,567.864l-25.875,32.415-1.373-13.061,19.921-22.779,1.748-2,2.582,1.887,2.823,2.062Z" transform="translate(-1042.845 -562.44)"/>
      <path id="路径_346" data-name="路径 346" class="cls-6" d="M1059.73,563.939l-14.488,18.155-1.288-12.24,4.926-5.633Z" transform="translate(-1043.377 -561.789)"/>
    </g>
    <g id="组_148" data-name="组 148" transform="translate(69.898 15.191)">
      <path id="路径_347" data-name="路径 347" class="cls-7" d="M1097.7,603.748c-.674,1.455-28.847,1.27-31.3.829a24.227,24.227,0,0,1-.179-2.647c-.359-9.306-.39-38.839-.39-38.839l30.054,1.133s1.841,28.169,1.93,36.971A11.7,11.7,0,0,1,1097.7,603.748Z" transform="translate(-1065.758 -563.091)"/>
      <path id="路径_348" data-name="路径 348" class="cls-8" d="M1096.315,568.925,1066,567.052l-.222,7.786,30.91.293Z" transform="translate(-1065.781 -561.369)"/>
      <path id="路径_349" data-name="路径 349" class="cls-8" d="M1096.946,579.788l-30.937-1.929-.213,7.787,31.545.351Z" transform="translate(-1065.774 -556.671)"/>
      <path id="路径_350" data-name="路径 350" class="cls-8" d="M1097.583,592.8c-.674,1.455-28.847,1.27-31.3.829a24.208,24.208,0,0,1-.179-2.647l.07-2.722,31.524,1.987A11.709,11.709,0,0,1,1097.583,592.8Z" transform="translate(-1065.64 -552.147)"/>
    </g>
    <g id="组_149" data-name="组 149" transform="translate(99.283 10.559)">
      <path id="路径_351" data-name="路径 351" class="cls-9" d="M1124.592,601.408s-1.344.3-3.479.752c-2.89.61-7.228,1.5-11.65,2.3-3.558.644-7.171,1.234-10.121,1.574a27,27,0,0,1-5.415.25,2.711,2.711,0,0,1-1.4-1.344l-.007-.01a11.736,11.736,0,0,1-.868-1.881l-.029-.056v0a48.347,48.347,0,0,1-1.928-7.491c-.749-3.892-1.37-8.386-1.865-12.7v0c-.327-2.829-.6-5.58-.822-8.034-.5-5.535-.742-9.562-.742-9.562s3.365-.605,7.91-1.433l5.884-1.066c3.052-.558,6.207-1.136,9.017-1.656,2.5-.456,4.713-.872,6.34-1.179a10.855,10.855,0,0,0,.149,3.789c.466,3.264,1.514,8.139,2.738,13.313.723,3.066,1.509,6.238,2.274,9.238,1.221,4.8,2.382,9.161,3.141,11.97C1124.256,600.19,1124.592,601.408,1124.592,601.408Z" transform="translate(-1086.262 -559.863)"/>
      <path id="路径_352" data-name="路径 352" class="cls-10" d="M1116.676,575.817l-18.957,29.072a27,27,0,0,1-5.415.25,2.71,2.71,0,0,1-1.4-1.344l-.007-.01-.868-1.881-.029-.056v0l23.943-39.339C1114.4,565.768,1115.452,570.643,1116.676,575.817Z" transform="translate(-1084.639 -558.715)"/>
      <path id="路径_353" data-name="路径 353" class="cls-10" d="M1116.684,590.192l-2.6,3.987c-2.89.61-7.228,1.5-11.65,2.3l11.11-18.26C1114.764,583.021,1115.925,587.383,1116.684,590.192Z" transform="translate(-1079.232 -551.882)"/>
      <path id="路径_354" data-name="路径 354" class="cls-10" d="M1111.856,560.294l-22.639,35.019c-.749-3.892-1.37-8.386-1.865-12.7v0l12.229-20.1c3.052-.558,6.207-1.136,9.017-1.656Z" transform="translate(-1085.788 -559.676)"/>
      <path id="路径_355" data-name="路径 355" class="cls-10" d="M1094.172,562.582l-7.168,11c-.5-5.535-.742-9.562-.742-9.562S1089.626,563.41,1094.172,562.582Z" transform="translate(-1086.262 -558.681)"/>
    </g>
    <path id="路径_356" data-name="路径 356" class="cls-11" d="M1020.11,561.652s84.854,8.611,128.155-4.389c.954,0,1.8,3.019,1.8,3.019s-13.943,6.56-61.333,7.21c-50.563.693-68.624-2.006-68.624-2.006Z" transform="translate(-1015.737 -550.434)"/>
    <g id="组_151" data-name="组 151" transform="translate(11.731 25.284)">
      <g id="组_150" data-name="组 150">
        <path id="路径_359" data-name="路径 359" class="cls-11" d="M1073.676,577.828v10.927a1.4,1.4,0,0,1-2.8,0V577.828a1.4,1.4,0,1,1,2.8,0Zm-1.13-3.049-.748-.862q-.824-.958.287-1.706a1.123,1.123,0,0,1,1.63.133q.863.9,1.552,1.669a1.134,1.134,0,0,1,.365.91,1.411,1.411,0,0,1-.651.8,1.2,1.2,0,0,1-1.9-.288l-.258-.316C1072.7,574.968,1072.609,574.856,1072.546,574.779Zm4.2,2.857h5.042a1.219,1.219,0,0,1,1.285,1.284V584a1.226,1.226,0,0,1-.356.921,1.274,1.274,0,0,1-.93.344h-5.042a1.278,1.278,0,0,1-.929-.344,1.225,1.225,0,0,1-.354-.921v-5.08a1.217,1.217,0,0,1,1.284-1.284Zm.844-5.2h8.991a1.189,1.189,0,0,1,1.265,1.265v13.208a4.548,4.548,0,0,1-.26,1.736,1.938,1.938,0,0,1-.891.948,5.17,5.17,0,0,1-2.148.461q-1.59.037-1.936-1.112-.269-.863.162-1.237a2.049,2.049,0,0,1,1.429-.336,2.776,2.776,0,0,1,.344-.019.425.425,0,0,0,.48-.479v-11.35q0-.458-.48-.459h-6.958a1.314,1.314,0,1,1,0-2.627Zm2.742,9.835v-1.63q0-.48-.46-.479h-1.4a.423.423,0,0,0-.479.479v1.63q0,.458.479.459h1.4A.407.407,0,0,0,1080.329,582.275Z" transform="translate(-1005.399 -569.344)"/>
        <path id="路径_360" data-name="路径 360" class="cls-11" d="M1101.011,571.284l6.445-1.132a1.026,1.026,0,0,1,.354,2.02l-2.09.367q-.181.607-.359,1.122l1.916-.336a1.128,1.128,0,0,1,.892.175,1.18,1.18,0,0,1,.462.789l.9,5.1a1.079,1.079,0,0,1-2.125.373l-.71-4.04a.383.383,0,0,0-.51-.341l-2.35.413a.381.381,0,0,0-.362.494l.852,4.859a9.01,9.01,0,0,0,.006-3.448,1.6,1.6,0,0,1,.135-.967.916.916,0,0,1,.7-.508.86.86,0,0,1,.835.3,1.8,1.8,0,0,1,.429.966,19.944,19.944,0,0,1,.178,2.079,8.843,8.843,0,0,1-.134,1.746,4.474,4.474,0,0,1-.549,1.524,5.6,5.6,0,0,1-1.077,1.276,8.369,8.369,0,0,1-1.7,1.152q4.057-.712,6.141-1.115-.571-.385-2.043-1.2a.843.843,0,0,1-.317-1.4.945.945,0,0,1,1.3-.372q.314.159.9.45t.727.357a.855.855,0,0,1,.478.625,1.229,1.229,0,0,1-.194.887l-.336.544.034-.006a.959.959,0,0,1,.884.123.944.944,0,0,1,.138.882,1.339,1.339,0,0,1-1.179,1.158l-6.426,1.129a15.845,15.845,0,0,1-3.943.3,4.606,4.606,0,0,1-2.643-1.1c-.011.207-.072.647-.181,1.324a1.114,1.114,0,0,1-.466.719,1.019,1.019,0,0,1-.839-.076,1.312,1.312,0,0,1-.689-.552,1.211,1.211,0,0,1,.029-.858,11.29,11.29,0,0,0-.024-3.819,1.385,1.385,0,0,1,.142-.931.928.928,0,0,1,.75-.429.938.938,0,0,1,1.144.9c.063.491.1.838.112,1.039a3.828,3.828,0,0,0,.755.927l-.646-3.674-2.228.392a.937.937,0,1,1-.324-1.847l6.182-1.086a.937.937,0,0,1,.324,1.846l-1.812.318.208,1.184,1.41-.248a.929.929,0,0,1,.321,1.829l-1.41.247.333,1.9a15.97,15.97,0,0,0,3.1-.311,4.514,4.514,0,0,0-.664-.816q-.7-.613.284-1.145a4.621,4.621,0,0,0,1.683-1.768l-.958.168a.854.854,0,0,1-.678-.132.883.883,0,0,1-.346-.585l-.957-5.452a1.122,1.122,0,0,1,.963-1.372l.852-.149a10.344,10.344,0,0,0,.2-1.095l-1.881.33a1.026,1.026,0,0,1-.356-2.02Zm-7.108,1.231,4.319-.759a1.122,1.122,0,0,1,1.372.963l.664,3.779a1.123,1.123,0,0,1-.961,1.372l-4.32.758a1.123,1.123,0,0,1-1.372-.961l-.664-3.779a1.125,1.125,0,0,1,.963-1.372Zm1.492,2.053,2.037-.357-.059-.331a.187.187,0,0,0-.245-.172l-1.393.245a.382.382,0,0,0-.362.494Zm.605,2.121,1.376-.242a.382.382,0,0,0,.361-.494l-.024-.139-2.037.357.057.331A.2.2,0,0,0,1096,576.688Z" transform="translate(-995.817 -570.126)"/>
        <path id="路径_8670" data-name="路径 8670" class="cls-11" d="M15.02-11.895a7.289,7.289,0,0,1-.985,2.936A5.96,5.96,0,0,1,11.912-7l.955.183a.849.849,0,0,1,.549.356.8.8,0,0,1,.1.64l-.061.3H14V-6.45a.782.782,0,0,1,.213-.579.782.782,0,0,1,.579-.213h.67a7.239,7.239,0,0,0-.2-1.321q-.406-1.077.772-1.016h.041a.643.643,0,0,0,.528-.223,3.041,3.041,0,0,0,.284-1.3,1.128,1.128,0,0,0-.091-.63.423.423,0,0,0-.376-.163ZM10.185-8.258v4.836a10.794,10.794,0,0,0,1.036-3.251A5.253,5.253,0,0,0,10.185-8.258ZM6.974-4.6v1.3h.772V-4.6Zm-2.7.691q0,.406-.02.61h.792V-4.6H4.272ZM4.618-11.2q-.508,1.138-.528,1.178H5.512A11.047,11.047,0,0,0,5.938-11.2ZM7.747-6.694v-.935a.2.2,0,0,0-.223-.223H6.974v1.158Zm-2.7,0V-7.852H4.272v1.158Zm6.481-7.66h6.725q1.361,0,1.28,2.316-.142,3.251-.65,3.942a1.719,1.719,0,0,1-.863.65,7.025,7.025,0,0,1-1.453.2h.2q.1,0,.1.081v1.646h1.564a1.1,1.1,0,0,1,1.26,1.239A1.122,1.122,0,0,1,18.434-3H16.869v1.524H18.84a1.131,1.131,0,0,1,1.28,1.28,1.14,1.14,0,0,1-1.28,1.3H16.869V2.876a1.248,1.248,0,0,1-1.422,1.4A1.257,1.257,0,0,1,14,2.876V1.108H11.769a1.149,1.149,0,0,1-1.3-1.3,1.14,1.14,0,0,1,1.3-1.28H14V-3H12.643q-.061.142-.386.813a.6.6,0,0,1-.4.325.6.6,0,0,1-.477-.081,9.237,9.237,0,0,0-1.2-.63V1.555a2.556,2.556,0,0,1-.874,2.3,2.431,2.431,0,0,1-1.757.376,1.44,1.44,0,0,1-1.31-1.006Q6,2.47,6.294,2.134a1.425,1.425,0,0,1,1.128-.315h.02q.3,0,.3-.325v-2.6H4.11A15.564,15.564,0,0,1,3.073,3.262a1.271,1.271,0,0,1-.681.721,1.189,1.189,0,0,1-.945-.254,1.282,1.282,0,0,1-.427-1.89A17.72,17.72,0,0,0,1.9-4.54V-7.77Q1.428-8.2,1-8.543a.9.9,0,0,1-.376-.61A.791.791,0,0,1,.818-9.8,13.623,13.623,0,0,0,2.85-14.049a1.273,1.273,0,0,1,1.666-1.1,1.149,1.149,0,0,1,.955,1.625l-.02.041-.02.041H7.584q1.463,0,1.077,1.747a13.634,13.634,0,0,1-.67,1.666h1.2a.989.989,0,0,1,.731.264.989.989,0,0,1,.264.731v.061a3.9,3.9,0,0,0,2.154-2.926h-.813a1.087,1.087,0,0,1-1.219-1.239A1.078,1.078,0,0,1,11.526-14.353Z" transform="matrix(0.995, 0.105, -0.105, 0.995, -0.476, 17.931)"/>
        <path id="路径_8671" data-name="路径 8671" class="cls-11" d="M3.039-9.679Q2.675-10.225,1.463-12q-.848-1.131.424-1.919a1.3,1.3,0,0,1,1.858.3q1.212,1.495,1.939,2.545a1.318,1.318,0,0,1,.252,1.05,1.672,1.672,0,0,1-.778.828A1.305,1.305,0,0,1,3.039-9.679ZM1.019.36Q2.433-2.205,3.14-3.781t2.02-.5a1.453,1.453,0,0,1,.485,1.858Q4.877-.65,3.665,1.814,2.9,3.35,1.544,2.38a1.813,1.813,0,0,1-.757-.9A1.515,1.515,0,0,1,1.019.36ZM13.907-7.134q0,.3-.04.869h1.717V-9.093q0-.5-.485-.5H13.927V-8Q13.927-7.417,13.907-7.134ZM18.512-3.4H15.3A8.786,8.786,0,0,0,18.249.461q2.081,1.091.909,2.626a1.578,1.578,0,0,1-2.262.3,10.8,10.8,0,0,1-4.02-5.232,11.794,11.794,0,0,1-4.02,5.151Q7.3,4.3,6.392,3.269,5.14,1.875,7.342.562A8.14,8.14,0,0,0,10.21-3.4H7.887A1.259,1.259,0,0,1,6.473-4.831,1.259,1.259,0,0,1,7.887-6.266h2.868q.061-.909.061-1.757V-9.6H8.695A1.241,1.241,0,0,1,7.3-11.012a1.241,1.241,0,0,1,1.394-1.414h2.121v-1.434a1.375,1.375,0,0,1,1.555-1.555,1.375,1.375,0,0,1,1.555,1.555v1.434H17.1a1.345,1.345,0,0,1,.98.364,1.291,1.291,0,0,1,.374.97v4.828h.061a1.259,1.259,0,0,1,1.414,1.434A1.259,1.259,0,0,1,18.512-3.4Z" transform="translate(33.852 19.213) rotate(-7)"/>
      </g>
    </g>
    <path id="路径_361" data-name="路径 361" class="cls-12" d="M1043.937,567.841s5.208-12.2,10.745-15.139a1.775,1.775,0,0,1,1.99.247l.036.032a1.775,1.775,0,0,1-.049,2.719C1053.144,558.553,1045.31,565.1,1043.937,567.841Z" transform="translate(-1005.379 -552.503)"/>
    <path id="路径_362" data-name="路径 362" class="cls-13" d="M1091.083,558.779l.509,1.032a.47.47,0,0,0,.357.26l1.139.166a.475.475,0,0,1,.264.811l-.825.8a.477.477,0,0,0-.136.42l.2,1.135a.476.476,0,0,1-.69.5l-1.019-.537a.475.475,0,0,0-.443,0l-1.019.537a.476.476,0,0,1-.69-.5l.2-1.135a.477.477,0,0,0-.136-.42l-.825-.8a.475.475,0,0,1,.264-.811l1.139-.166a.47.47,0,0,0,.357-.26l.51-1.032A.476.476,0,0,1,1091.083,558.779Z" transform="translate(-986.304 -549.89)"/>
    <g id="组_153" data-name="组 153" transform="translate(83.234 50.96)">
      <g id="组_152" data-name="组 152">
        <path id="路径_363" data-name="路径 363" class="cls-14" d="M1079.155,604.056a5.8,5.8,0,0,1-3.869-1.4.6.6,0,0,1,.788-.917c.023.022,1.732,1.456,3.24,1.057a2.715,2.715,0,0,0,1.631-1.508,2.778,2.778,0,0,1-1.943-1.71,2.424,2.424,0,0,1,.461-2.389,2.268,2.268,0,0,1,2.5-.075c.621.413,1.2,1.31.641,3.251,3.331.222,5.637-1.99,6.027-3.693a8.2,8.2,0,0,0-2.686-7.6.6.6,0,0,1,.812-.9,9.444,9.444,0,0,1,3.052,8.769c-.472,2.062-3.148,4.957-7.386,4.621-.088-.007-.173-.014-.257-.024a4.014,4.014,0,0,1-2.551,2.426A3.327,3.327,0,0,1,1079.155,604.056Zm1.455-6.06a.867.867,0,0,0-.34.1,1.33,1.33,0,0,0-.115,1.128,1.738,1.738,0,0,0,1.247.951c.318-1.013.294-1.743-.076-2.024A1.026,1.026,0,0,0,1080.61,598Z" transform="translate(-1075.076 -588.022)"/>
      </g>
    </g>
  </g>
  <g id="组_155" data-name="组 155" transform="translate(7.228 39.231)">
    <path id="路径_364" data-name="路径 364" class="cls-15" d="M1017.6,548.641l13.217-13.215a3.43,3.43,0,0,1,4.854,0l0,0,13.1,13.1-.257,15.136a2.593,2.593,0,0,1-2.528,2.549l-15.284.383-13.1-13.1a3.432,3.432,0,0,1-.006-4.854l0,0Z" transform="translate(-1016.59 -534.42)"/>
    <path id="路径_365" data-name="路径 365" class="cls-13" d="M1027.261,535.444a3.345,3.345,0,0,1,4.732,0l13.017,13.017a.252.252,0,0,1,.033.331l-.02.019a5.423,5.423,0,0,1-8.472,1.056l-11.857-11.857Z" transform="translate(-1013.068 -534.401)"/>
    <path id="路径_366" data-name="路径 366" class="cls-16" d="M1019.866,542.671a.26.26,0,0,1,.366,0L1031.4,553.84c2.418,2.416,2.967,5.821.55,8.237a5.9,5.9,0,0,1-1.062.841.251.251,0,0,1-.331-.033l-12.842-12.842a3.692,3.692,0,0,1,0-5.221Z" transform="translate(-1016.573 -530.865)"/>
    <path id="路径_367" data-name="路径 367" class="cls-17" d="M1026.979,536.984a.259.259,0,0,1,.367,0h0l11.168,11.167c2.416,2.416,2.782,6.006.361,8.426a6.008,6.008,0,0,1-8.6-.187l-11.167-11.168a.279.279,0,0,1,0-.367Z" transform="translate(-1015.526 -533.338)"/>
    <path id="路径_368" data-name="路径 368" class="cls-18" d="M1033.686,558.93l4.868-.122a2.593,2.593,0,0,0,2.528-2.55l.08-4.8Z" transform="translate(-1009.159 -527.015)"/>
    <path id="路径_369" data-name="路径 369" class="cls-19" d="M1036.635,547.379a1.39,1.39,0,0,1,1.966,1.966h0a1.389,1.389,0,0,1-1.964-1.966Zm1.178,4.323a.835.835,0,1,1-.007,1.188A.846.846,0,0,1,1037.813,551.7Z" transform="translate(-1008.054 -528.963)"/>
  </g>
  <g id="组_160" data-name="组 160" transform="translate(60.018 0)">
    <g id="组_159" data-name="组 159">
      <g id="组_158" data-name="组 158">
        <g id="组_156" data-name="组 156" transform="translate(2.152 2.152)">
          <path id="路径_370" data-name="路径 370" class="cls-20" d="M1068.959,553.133a18.061,18.061,0,0,1-10.212-3.011l-.119-.08-.108-.1a5.045,5.045,0,0,1-2.03-3.852,6.081,6.081,0,0,1,1.713-3.743,6.356,6.356,0,0,1,4.819-2.4,6.9,6.9,0,0,1,3.558,1.079,5.659,5.659,0,0,0,1.771.314c1.047,0,3.436,0,4.644-4.258a11.084,11.084,0,0,1-4.593,1.125,13.335,13.335,0,0,1-9.772-3.709c-2.485-2.466-3.746-6.039-3.746-10.623a14.583,14.583,0,0,1,14.941-15.3,15.269,15.269,0,0,1,6.251,1.307,15.969,15.969,0,0,1,5.3,3.9,18.477,18.477,0,0,1,3.748,6.973,32.338,32.338,0,0,1,1.32,9.637c0,7.149-1.746,12.858-5.188,16.973A15.2,15.2,0,0,1,1068.959,553.133Zm1.071-33.323a1.912,1.912,0,0,0-1.607.753,5.414,5.414,0,0,0-.775,3.311c0,3.505,1.466,3.505,2.535,3.505a3.716,3.716,0,0,0,3.224-1.963,10.119,10.119,0,0,0-1.667-4.717A2.017,2.017,0,0,0,1070.03,519.81Z" transform="translate(-1054.885 -508.576)"/>
        </g>
        <g id="组_157" data-name="组 157">
          <path id="路径_371" data-name="路径 371" class="cls-1" d="M1070.478,511.38a13.08,13.08,0,0,1,5.376,1.121,13.761,13.761,0,0,1,4.587,3.387,16.3,16.3,0,0,1,3.285,6.168,30.022,30.022,0,0,1,1.223,8.993q0,9.988-4.686,15.591a13.088,13.088,0,0,1-10.65,4.993,15.871,15.871,0,0,1-9.019-2.65,3.053,3.053,0,0,1-1.3-2.189,4.137,4.137,0,0,1,1.2-2.395,4.253,4.253,0,0,1,3.181-1.649,4.9,4.9,0,0,1,2.628.882,7.99,7.99,0,0,0,2.7.511q7.029,0,7.489-11.31a9.291,9.291,0,0,1-3.489,2.825,9.2,9.2,0,0,1-3.949,1.047,11.207,11.207,0,0,1-8.256-3.085q-3.107-3.084-3.109-9.095a12.435,12.435,0,0,1,12.789-13.146m.357,18.8q3.366,0,5.452-3.62a12.855,12.855,0,0,0-2.189-6.522,4.208,4.208,0,0,0-3.416-1.73,4.053,4.053,0,0,0-3.26,1.525,7.238,7.238,0,0,0-1.274,4.69q0,5.656,4.687,5.657m-.357-23.108a16.731,16.731,0,0,0-17.093,17.451c0,5.176,1.475,9.265,4.382,12.151a14.466,14.466,0,0,0,3.042,2.316,9.3,9.3,0,0,0-3.527,2.539l-.033.036-.03.037a8.1,8.1,0,0,0-2.227,5.088,7.073,7.073,0,0,0,2.757,5.519l.217.191.238.161a20.18,20.18,0,0,0,11.409,3.373,17.488,17.488,0,0,0,13.984-6.575c3.742-4.471,5.656-10.646,5.656-18.313a34.426,34.426,0,0,0-1.42-10.284,20.553,20.553,0,0,0-4.207-7.772,18.105,18.105,0,0,0-6.026-4.426,17.41,17.41,0,0,0-7.122-1.491Zm.116,18.793a5.025,5.025,0,0,1-.142-1.343,5.106,5.106,0,0,1,.242-1.848l.017.02a6.866,6.866,0,0,1,1.062,2.77,1.22,1.22,0,0,1-.938.41c-.1,0-.178,0-.241-.01Z" transform="translate(-1053.385 -507.076)"/>
        </g>
      </g>
    </g>
  </g>
</svg>
