<svg xmlns="http://www.w3.org/2000/svg" width="106.606" height="121.232" viewBox="0 0 106.606 121.232">
  <defs>
    <style>
      .cls-1 {
        fill: #fff;
      }

      .cls-2 {
        fill: #ffde78;
      }

      .cls-3 {
        fill: #a3dffd;
      }

      .cls-4 {
        fill: #ff6d6d;
      }

      .cls-5 {
        fill: #ffe2c9;
      }

      .cls-6 {
        fill: #f84f4f;
      }

      .cls-7 {
        fill: #f8c34f;
      }

      .cls-8 {
        fill: #f8934f;
      }

      .cls-9 {
        fill: #683818;
      }

      .cls-10 {
        fill: #f9fbf8;
      }

      .cls-11 {
        fill: #b36339;
      }
    </style>
  </defs>
  <g id="组_237" data-name="组 237" transform="translate(-1121.6 -371.108)">
    <circle id="椭圆_109" data-name="椭圆 109" class="cls-1" cx="53.303" cy="53.303" r="53.303" transform="translate(1121.6 385.734)"/>
    <circle id="椭圆_110" data-name="椭圆 110" class="cls-2" cx="46.864" cy="46.864" r="46.864" transform="translate(1128.038 392.173)"/>
    <g id="组_230" data-name="组 230">
      <g id="组_224" data-name="组 224">
        <path id="路径_525" data-name="路径 525" class="cls-1" d="M1211.267,439.887c-.031-6.711-4.931-12.14-10.974-12.14a10.047,10.047,0,0,0-4.977,1.328,13.554,13.554,0,0,0,.178-2.178c0-6.739-4.914-12.2-10.975-12.2a10.7,10.7,0,0,0-9.045,5.293,10.184,10.184,0,0,0-6.24-2.166,10.007,10.007,0,0,0-4.528,1.088,10.954,10.954,0,0,0-9.9-6.934c-6.061,0-10.974,5.463-10.974,12.2a13.084,13.084,0,0,0,2.073,7.134c-.251-.018-.5-.03-.759-.03-6.449,0-11.678,5.813-11.678,12.983,0,6.318,4.06,11.58,9.437,12.742a10.887,10.887,0,0,0,9.7,6.5,10,10,0,0,0,4.355-1,10.349,10.349,0,0,0,7.384,3.176,10,10,0,0,1,8.438.952,10.611,10.611,0,0,0,8.678-4.737,10.23,10.23,0,0,0,6.607,2.459,10.545,10.545,0,0,0,8.389-4.338,9.963,9.963,0,0,0,3.839.77c.061,0,.122,0,.183-.006a10.27,10.27,0,0,0,6.91,2.725c6.061,0,10.974-5.463,10.974-12.2A12.228,12.228,0,0,0,1211.267,439.887Z"/>
        <path id="路径_526" data-name="路径 526" class="cls-3" d="M1216.587,449.87a10.6,10.6,0,0,1-10.449,10.743c-.2,0-.4,0-.6-.02a10.188,10.188,0,0,1-5.794-2.233c-.061-.048-.122-.095-.183-.147-.061,0-.119.008-.176.008a10.191,10.191,0,0,1-3.653-.679,10.409,10.409,0,0,1-5.291,3.454,10.029,10.029,0,0,1-2.7.364,10.15,10.15,0,0,1-4.016-.823,10.555,10.555,0,0,1-2.274-1.342,10.36,10.36,0,0,1-7.151,4.109,9.333,9.333,0,0,1-1.114.064,10.2,10.2,0,0,1-4.928-1.27l-.061-.036a10.143,10.143,0,0,1-6.663-.2,10.237,10.237,0,0,1-3.409-2.129,9.951,9.951,0,0,1-2.748.779,9.529,9.529,0,0,1-1.4.1,10.164,10.164,0,0,1-4.626-1.11,10.606,10.606,0,0,1-4.253-3.97c-.126-.208-.245-.423-.356-.639a10.951,10.951,0,0,1-4.3-1.9,11.435,11.435,0,0,1-3.844-4.944v0a11.774,11.774,0,0,1-.517-7.133,11.321,11.321,0,0,1,7.278-8.091,10.678,10.678,0,0,1,3.513-.587c.244,0,.485.012.725.028a10.764,10.764,0,0,1-1.358-2.644,10.971,10.971,0,0,1-.617-3.638,10.6,10.6,0,0,1,10.449-10.743,10.171,10.171,0,0,1,2.762.38,10.339,10.339,0,0,1,4.53,2.671,10.628,10.628,0,0,1,2.133,3.051,10.17,10.17,0,0,1,4.275-.954h.036a10.189,10.189,0,0,1,5.47,1.585c.162.1.32.208.475.32a10.349,10.349,0,0,1,8.61-4.661,9.8,9.8,0,0,1,2.388.288,10.22,10.22,0,0,1,4.659,2.528,10.733,10.733,0,0,1,2.974,4.888,10.887,10.887,0,0,1,.428,3.043,11.2,11.2,0,0,1-.169,1.917,10.07,10.07,0,0,1,4.738-1.17,10.141,10.141,0,0,1,4.648,1.122,10.48,10.48,0,0,1,3.872,3.407,10.829,10.829,0,0,1,1.918,5.791c.007.123.011.247.011.371a10.455,10.455,0,0,1,4.041,2.831,10.812,10.812,0,0,1,2.615,5.767A10.7,10.7,0,0,1,1216.587,449.87Z"/>
      </g>
      <g id="组_226" data-name="组 226">
        <path id="路径_527" data-name="路径 527" class="cls-4" d="M1136.429,433.5s-2.116-1.4-4.129,1.342c-1.763,2.4,2.727,9.543,8.437,6.484s1.285-12.194-2.93-10.154A2.432,2.432,0,0,0,1136.429,433.5Z"/>
        <circle id="椭圆_111" data-name="椭圆 111" class="cls-1" cx="0.533" cy="0.533" r="0.533" transform="translate(1140.952 434.304)"/>
        <g id="组_225" data-name="组 225">
          <path id="路径_528" data-name="路径 528" class="cls-1" d="M1140.553,433.878a.4.4,0,0,1-.372-.254,1.543,1.543,0,0,0-1.188-.955.4.4,0,0,1-.349-.443.4.4,0,0,1,.438-.351,2.346,2.346,0,0,1,1.843,1.459.4.4,0,0,1-.227.517A.414.414,0,0,1,1140.553,433.878Z"/>
        </g>
      </g>
      <g id="组_228" data-name="组 228">
        <path id="路径_529" data-name="路径 529" class="cls-4" d="M1205.332,426.68s.44-1.9-2.073-2.607c-2.2-.621-6.123,4.521-2.393,7.8s9.1-2.349,6.509-4.83A1.865,1.865,0,0,0,1205.332,426.68Z"/>
        <circle id="椭圆_112" data-name="椭圆 112" class="cls-1" cx="0.409" cy="0.409" r="0.409" transform="translate(1205.317 430.263)"/>
        <g id="组_227" data-name="组 227">
          <path id="路径_530" data-name="路径 530" class="cls-1" d="M1206.164,429.745a.307.307,0,0,1,.083-.336,1.185,1.185,0,0,0,.368-1.109.306.306,0,0,1,.594-.149,1.8,1.8,0,0,1-.554,1.715.306.306,0,0,1-.432-.024A.317.317,0,0,1,1206.164,429.745Z"/>
        </g>
      </g>
      <g id="组_229" data-name="组 229">
        <path id="路径_531" data-name="路径 531" class="cls-1" d="M1154.946,427.654h1.995a.916.916,0,0,1,.667.247.879.879,0,0,1,.255.661v4.3l.041-.027q.949-.7,1.293.33a1,1,0,0,1-.247.853,3.866,3.866,0,0,1-.784.839,23.323,23.323,0,0,0-1.844,1.5.757.757,0,0,1-.165.013.53.53,0,0,1-.282-.123,1.1,1.1,0,0,1-.3-.331.853.853,0,0,1-.254-.612.767.767,0,0,1,.213-.585,2.252,2.252,0,0,0,.358-1.169v-3.6q0-.344-.33-.344h-.62a.869.869,0,0,1-.976-.99A.857.857,0,0,1,1154.946,427.654Zm1.569-1.39c-.1-.1-.253-.245-.454-.433s-.354-.332-.454-.433a.807.807,0,0,1,.013-1.307.834.834,0,0,1,1.266-.069q.055.041.475.392t.626.543a.894.894,0,0,1,.337.64,1.176,1.176,0,0,1-.365.653A.873.873,0,0,1,1156.515,426.264Zm4.828,3.7a31.984,31.984,0,0,0,.371-5.475.919.919,0,0,1,1.033-1.046c.705,0,1.05.344,1.031,1.032q-.013,1.224-.11,2.792a11.57,11.57,0,0,0,2.38,6.824q1.182,1.114.426,1.926-.7.729-1.554-.083a10.438,10.438,0,0,1-2.105-3.687,9.907,9.907,0,0,1-2.063,3.618q-.9.854-1.61.1-.8-.813.22-1.747A8.7,8.7,0,0,0,1161.343,429.965Z"/>
        <path id="路径_532" data-name="路径 532" class="cls-1" d="M1169.02,427.654h1.623a.821.821,0,0,1,.6.22.786.786,0,0,1,.227.591v3.948l.151-.137a1.077,1.077,0,0,1,.812-.378c.229.032.427.231.591.6a1.072,1.072,0,0,1-.185.935,3.958,3.958,0,0,1-.764.963q-1.705,1.527-2.022,1.858a.567.567,0,0,1-.151.013.789.789,0,0,1-.317-.1,1.05,1.05,0,0,1-.357-.3,1.093,1.093,0,0,1-.33-.584.688.688,0,0,1,.151-.571,2.8,2.8,0,0,0,.454-1.5v-3.26q0-.344-.33-.344h-.151a.869.869,0,0,1-.977-.99A.857.857,0,0,1,1169.02,427.654Zm1.072-1.4-.908-.908a.758.758,0,0,1,.028-1.251.814.814,0,0,1,1.224-.069q.8.687,1.156,1.045a.87.87,0,0,1,.3.613,1.085,1.085,0,0,1-.351.612A.857.857,0,0,1,1170.092,426.25Zm5.888,7.457a12.234,12.234,0,0,1-1.266,2.256,1.161,1.161,0,0,1-.646.454,1.123,1.123,0,0,1-.757-.22,1.089,1.089,0,0,1-.57-.737,1.236,1.236,0,0,1,.405-.873,6.857,6.857,0,0,0,.771-1.4,1.077,1.077,0,0,1,1.362-.771A.856.856,0,0,1,1175.98,433.707ZM1174.4,424.2h5.021a.917.917,0,0,1,.668.247.882.882,0,0,1,.254.661v5.158a.872.872,0,0,1-.922.922H1174.4a.874.874,0,0,1-.922-.922v-5.158a.879.879,0,0,1,.255-.661A.916.916,0,0,1,1174.4,424.2Zm1.431,5.048h2.38V426.14h-2.38q-.33,0-.33.344V428.9C1175.5,429.135,1175.609,429.249,1175.829,429.249Zm2.971,6.384q-.152-.4-.839-1.9-.551-.977.55-1.348a.962.962,0,0,1,1.252.454,18.022,18.022,0,0,1,1.128,2.228.883.883,0,0,1,.007.743,1.173,1.173,0,0,1-.653.454,1.21,1.21,0,0,1-.915.069A1.01,1.01,0,0,1,1178.8,435.633Z"/>
        <path id="路径_533" data-name="路径 533" class="cls-1" d="M1155.377,441.438h12.186a1.13,1.13,0,1,1,0,2.259h-2.975V445h2.466a1.011,1.011,0,0,1,1.066,1.065v7.3a3.513,3.513,0,0,1-.223,1.4,1.63,1.63,0,0,1-.8.779,5.8,5.8,0,0,1-1.845.366q-1.368.031-1.67-.923-.255-.764.127-1.066a2,2,0,0,1,1.289-.27h.365q.366,0,.366-.35v-1.543l-.3.445c-.17.244-.318.265-.446.064a11.766,11.766,0,0,0-.986-1.241,7.56,7.56,0,0,1-1.066,2.179,1.446,1.446,0,0,1-.8.549,1.047,1.047,0,0,1-.827-.374,1.313,1.313,0,0,1,.063-1.956,8.686,8.686,0,0,0,.891-4.216h-1.639q-.031.859-.079,1.32.429.414.875.907.525.621-.111,1.511a1.115,1.115,0,0,1-.637.5.677.677,0,0,1-.652-.3c0-.01,0-.016-.008-.016s-.008-.005-.008-.016a7.679,7.679,0,0,1-1.1,2.164,1.034,1.034,0,0,1-.755.406.906.906,0,0,1-.724-.374l-.334-.334v1.766a1.177,1.177,0,0,1-2.354,0v-8.687a1.009,1.009,0,0,1,1.065-1.065h2.5V443.7h-2.927a1.13,1.13,0,1,1,0-2.259Zm1.718,6.173v4.3a7.753,7.753,0,0,0,1.209-4.693h-.827C1157.222,447.213,1157.095,447.345,1157.095,447.611Zm3.531-2.609h1.639V443.7h-1.639Zm4.519,4.1a6.445,6.445,0,0,1,.588.636v-2.529h-1.145q-.031.859-.079,1.272C1164.582,448.549,1164.8,448.756,1165.145,449.106Z"/>
        <path id="路径_534" data-name="路径 534" class="cls-1" d="M1174.308,444.238v10.516a1.106,1.106,0,0,1-2.211,0V447.6l-.016.016q-1.083,1.178-1.766-.223a1.534,1.534,0,0,1,.254-1.909,17.034,17.034,0,0,0,2.546-3.946,1.084,1.084,0,0,1,1.511-.715.936.936,0,0,1,.669,1.431A20.746,20.746,0,0,1,1174.308,444.238Zm10.038,11.009h-8.161a1.114,1.114,0,0,1,0-2.228h4.073a37.314,37.314,0,0,0,1.145-5.758,1.109,1.109,0,0,1,1.448-1.114q1.241.19.987,1.543-.654,3.2-1.321,5.329h1.829a1.114,1.114,0,0,1,0,2.228Zm-.3-9.784h-7.588a.991.991,0,0,1-1.114-1.13.977.977,0,0,1,1.114-1.1h2.481v-1.384a1.186,1.186,0,1,1,2.371,0v1.384h2.736a.977.977,0,0,1,1.114,1.1A.992.992,0,0,1,1184.044,445.463Zm-6.9,6.013a39.2,39.2,0,0,0-.557-4.025q-.239-1.065.891-1.256a.964.964,0,0,1,1.241.811q.573,2.7.747,4.279a.953.953,0,0,1-.2.748,1.479,1.479,0,0,1-.772.35,1.342,1.342,0,0,1-.994-.064A.986.986,0,0,1,1177.14,451.476Z"/>
        <path id="路径_535" data-name="路径 535" class="cls-1" d="M1197.583,443.347h2.99a.987.987,0,0,1,.8.334,1.376,1.376,0,0,1,.278.907q0,.939-.827.939h-.032a18.482,18.482,0,0,1-1.607,5.854,8.058,8.058,0,0,0,1.337,1.511,1.892,1.892,0,0,1,.827.931,1.342,1.342,0,0,1-.35,1.106,1.193,1.193,0,0,1-.867.54,1.564,1.564,0,0,1-.995-.413,9.766,9.766,0,0,1-1.415-1.5,10.472,10.472,0,0,1-2.212,1.846,1.164,1.164,0,0,1-.875.167.968.968,0,0,1-.62-.533c-.022-.032-.056-.085-.1-.159s-.083-.127-.1-.159l-.493.509a.66.66,0,0,1-.43.207.5.5,0,0,1-.4-.143q-.987-.717-1.162-.828a8.143,8.143,0,0,1-2.783,1.193q-1.194.27-1.544-.715l-.048-.1q-.492-.859.637-1.034a8.358,8.358,0,0,0,1.718-.525l-.525-.239q-.113.238-.445.128a2.207,2.207,0,0,1-1.043-.6.7.7,0,0,1-.087-.9q.414-.7.541-.97h-.461a.947.947,0,0,1,0-1.893h1.415l.4-.8a.29.29,0,0,1,.4-.175V446.7a11.891,11.891,0,0,1-1.321,1.066,1.154,1.154,0,0,1-.755.246.918.918,0,0,1-.613-.469,1.041,1.041,0,0,1-.23-.875,1.34,1.34,0,0,1,.708-.636,8.381,8.381,0,0,0,1.511-1.162h-1.3a.923.923,0,0,1,0-1.845h.111q-.144-.414-.4-.986a.723.723,0,0,1-.056-.629.751.751,0,0,1,.486-.421.925.925,0,0,1,.787,0,1.226,1.226,0,0,1,.565.62,1.136,1.136,0,0,1,.1.859.868.868,0,0,1-.6.557h1.018V441.47a.949.949,0,0,1,1.082-1.066.935.935,0,0,1,1.05,1.066v1.082a10.38,10.38,0,0,0,.556-1.034.928.928,0,0,1,1.321-.621q1.081.414.27,1.48-.254.349-.509.652h.4a.923.923,0,1,1,0,1.845H1192.4c.148.075.361.194.636.358s.435.257.478.279c.286.18.435.36.445.541a1.1,1.1,0,0,1-.318.684.784.784,0,0,1-1.368.143q-.255-.238-.636-.557v.923a.741.741,0,0,1-.8.8h-.477l.541.111c.307.075.4.245.27.509l-.079.16h3.309c-.319-.3-.541-.5-.669-.605a.665.665,0,0,1-.254-.421.571.571,0,0,1,.111-.47,14.781,14.781,0,0,0,1.893-5.536,1.466,1.466,0,0,1,.446-.947,1.138,1.138,0,0,1,.955-.246,1.031,1.031,0,0,1,.986,1.352Q1197.758,442.631,1197.583,443.347Zm-7.239,8.193.525.239a5.782,5.782,0,0,0,.43-1.066h-1.209l-.3.6Q1189.963,451.381,1190.344,451.54Zm2.323-8.511c-.425-.18-.695-.3-.812-.35-.148-.064-.222-.021-.222.127v.223Zm2.64,9.481a6.841,6.841,0,0,0,1.146-1.193,16.253,16.253,0,0,1-.891-2.545.82.82,0,0,1-.08.151,1.387,1.387,0,0,1-.135.2,1.941,1.941,0,0,1-.151.151.226.226,0,0,1-.191.072.341.341,0,0,1-.191-.128l-.175-.175v.875a.785.785,0,0,1-.214.581.765.765,0,0,1-.565.215h-.382a7.674,7.674,0,0,1-.7,2.084q.207.111,1.082.684A6.741,6.741,0,0,0,1195.307,452.51Zm1.751-6.983a28.089,28.089,0,0,0,.747,2.974,18.66,18.66,0,0,0,.573-2.974Z"/>
      </g>
    </g>
    <g id="组_231" data-name="组 231">
      <path id="路径_536" data-name="路径 536" class="cls-5" d="M1129.389,405.975l9.272-9.272a2.408,2.408,0,0,1,3.405,0l0,0,9.191,9.191-.181,10.619a1.819,1.819,0,0,1-1.773,1.789l-10.723.269-9.191-9.191a2.408,2.408,0,0,1,0-3.4l0,0Z"/>
      <path id="路径_537" data-name="路径 537" class="cls-6" d="M1138.641,396.729a2.348,2.348,0,0,1,3.319,0l9.132,9.133a.176.176,0,0,1,.023.232l-.013.014a3.807,3.807,0,0,1-5.944.741l-8.318-8.319Z"/>
      <path id="路径_538" data-name="路径 538" class="cls-7" d="M1130.994,404.28a.183.183,0,0,1,.257,0l7.834,7.834c1.7,1.7,2.081,4.084.386,5.779a4.238,4.238,0,0,1-.745.59.177.177,0,0,1-.233-.023l-9.01-9.01a2.59,2.59,0,0,1,0-3.662Z"/>
      <path id="路径_539" data-name="路径 539" class="cls-8" d="M1136.718,398.556a.181.181,0,0,1,.258,0h0l7.834,7.834a4.077,4.077,0,0,1,.254,5.911,4.215,4.215,0,0,1-6.034-.131l-7.834-7.835a.2.2,0,0,1,0-.257Z"/>
      <path id="路径_540" data-name="路径 540" class="cls-9" d="M1145.891,418.389l3.415-.086a1.821,1.821,0,0,0,1.774-1.789l.056-3.371Z"/>
      <path id="路径_541" data-name="路径 541" class="cls-10" d="M1148.734,408.918a.975.975,0,0,1,1.379,1.378h0a.975.975,0,0,1-1.379-1.379Zm.826,3.033a.586.586,0,1,1-.005.833A.594.594,0,0,1,1149.56,411.951Z"/>
    </g>
    <g id="组_236" data-name="组 236">
      <g id="组_235" data-name="组 235">
        <g id="组_234" data-name="组 234">
          <g id="组_232" data-name="组 232">
            <path id="路径_542" data-name="路径 542" class="cls-11" d="M1176.8,404.035a12.276,12.276,0,0,1-7.638-2.341,7.793,7.793,0,0,1-3.253-6.463,8.614,8.614,0,0,1,3.623-7.21,9.034,9.034,0,0,1-2.687-6.5,8.142,8.142,0,0,1,2.947-6.547,10.936,10.936,0,0,1,7.226-2.366,10.2,10.2,0,0,1,6.964,2.371,8.244,8.244,0,0,1,2.776,6.471,7.98,7.98,0,0,1-1.2,4.238,10.261,10.261,0,0,1-1.361,1.763,9.064,9.064,0,0,1,3.707,7.635,7.8,7.8,0,0,1-3.416,6.671A12.908,12.908,0,0,1,1176.8,404.035Zm-1.515-12.258a4.574,4.574,0,0,0-.764,2.661,1.7,1.7,0,0,0,.6,1.426,2.713,2.713,0,0,0,1.824.6,2.218,2.218,0,0,0,1.47-.446c.114-.1.413-.342.413-1.185a1.845,1.845,0,0,0-.861-1.6A12.382,12.382,0,0,0,1175.285,391.777Zm1.551-11.635a1.266,1.266,0,0,0-.952.334,1.389,1.389,0,0,0-.319,1.045,1.975,1.975,0,0,0,.714,1.5,8.626,8.626,0,0,0,1.645,1.041,4.672,4.672,0,0,0,.508-2.179,1.725,1.725,0,0,0-.411-1.334A1.481,1.481,0,0,0,1176.836,380.142Z"/>
          </g>
          <g id="组_233" data-name="组 233">
            <path id="路径_543" data-name="路径 543" class="cls-1" d="M1177.017,374.108a8.7,8.7,0,0,1,5.974,2,6.769,6.769,0,0,1,2.266,5.344,6.475,6.475,0,0,1-.972,3.454,8.678,8.678,0,0,1-2.483,2.627v.179a7.847,7.847,0,0,1,4.607,7.376,6.347,6.347,0,0,1-2.789,5.451,11.394,11.394,0,0,1-6.82,2,10.772,10.772,0,0,1-6.728-2.033,6.333,6.333,0,0,1-2.663-5.271q0-4.534,4.5-6.945v-.179a7.968,7.968,0,0,1-3.561-6.585,6.679,6.679,0,0,1,2.41-5.4,9.438,9.438,0,0,1,6.262-2.016m1.438,11.839a6.148,6.148,0,0,0,1.476-4.067,3.283,3.283,0,0,0-.828-2.374,2.988,2.988,0,0,0-2.267-.865,2.64,2.64,0,0,0-2.771,2.881,3.453,3.453,0,0,0,1.187,2.589,12.029,12.029,0,0,0,3.2,1.836m-1.509,12.019a3.668,3.668,0,0,0,2.428-.793,2.86,2.86,0,0,0,.954-2.338,3.33,3.33,0,0,0-1.476-2.807,16.94,16.94,0,0,0-3.994-2.051,5.927,5.927,0,0,0-1.836,4.461,3.192,3.192,0,0,0,1.133,2.574,4.191,4.191,0,0,0,2.791.954m.071-26.858a12.385,12.385,0,0,0-8.186,2.714,9.708,9.708,0,0,0-3.486,7.7,10.466,10.466,0,0,0,2.088,6.335,10.107,10.107,0,0,0-3.024,7.374,9.343,9.343,0,0,0,3.843,7.656,13.745,13.745,0,0,0,8.548,2.648,14.382,14.382,0,0,0,8.568-2.559,9.347,9.347,0,0,0,4.041-7.89,10.627,10.627,0,0,0-3.113-7.8q.288-.393.547-.814a9.475,9.475,0,0,0,1.414-5.023,9.8,9.8,0,0,0-3.283-7.6,11.64,11.64,0,0,0-7.957-2.747Zm-.968,23.572a.76.76,0,0,1-.027-.242,4.059,4.059,0,0,1,.045-.63,6.353,6.353,0,0,1,.925.574l.044.035.045.033c.247.181.247.24.247.385,0,.034,0,.064,0,.09a1.579,1.579,0,0,1-.38.041,1.207,1.207,0,0,1-.861-.251.3.3,0,0,1-.036-.035Z"/>
          </g>
        </g>
      </g>
    </g>
  </g>
</svg>
