<svg xmlns="http://www.w3.org/2000/svg" width="105.614" height="119.439" viewBox="0 0 105.614 119.439">
  <defs>
    <style>
      .cls-1 {
        fill: #fff;
      }

      .cls-2 {
        fill: #ffde78;
      }

      .cls-3 {
        fill: #b36339;
      }

      .cls-4 {
        fill: #ffb03b;
      }

      .cls-5 {
        fill: #ee3734;
      }

      .cls-6 {
        fill: #f36c52;
      }

      .cls-7 {
        fill: #ffe2c9;
      }

      .cls-8 {
        fill: #f84f4f;
      }

      .cls-9 {
        fill: #f8c34f;
      }

      .cls-10 {
        fill: #f8934f;
      }

      .cls-11 {
        fill: #683818;
      }

      .cls-12 {
        fill: #f9fbf8;
      }
    </style>
  </defs>
  <g id="组_345" data-name="组 345" transform="translate(-139.692 -524.674)">
    <circle id="椭圆_126" data-name="椭圆 126" class="cls-1" cx="52.807" cy="52.807" r="52.807" transform="translate(139.692 538.499)"/>
    <circle id="椭圆_127" data-name="椭圆 127" class="cls-2" cx="46.428" cy="46.428" r="46.428" transform="translate(146.071 544.878)"/>
    <g id="组_340" data-name="组 340">
      <g id="组_339" data-name="组 339">
        <g id="组_335" data-name="组 335">
          <g id="组_333" data-name="组 333">
            <path id="路径_702" data-name="路径 702" class="cls-3" d="M174.032,557.174a4.2,4.2,0,1,1,0-8.4h1.733V535.825h-1.587a3.386,3.386,0,0,1-3.594-3.7,3.813,3.813,0,0,1,.933-2.523,4.026,4.026,0,0,1,2.333-1.337,16.579,16.579,0,0,0,3.594-1.414,4.847,4.847,0,0,1,2.541-.673H181.6a3.709,3.709,0,0,1,3.852,3.852v18.745h.814a4.2,4.2,0,1,1,0,8.4Z"/>
          </g>
          <g id="组_334" data-name="组 334">
            <path id="路径_703" data-name="路径 703" class="cls-1" d="M181.6,527.674a2.213,2.213,0,0,1,2.351,2.353v20.245h2.315a2.7,2.7,0,1,1,0,5.4H174.032a2.7,2.7,0,1,1,0-5.4h3.233V534.325h-3.087q-2.092,0-2.094-2.2a2.3,2.3,0,0,1,.569-1.545,2.565,2.565,0,0,1,1.49-.845,17.887,17.887,0,0,0,4.041-1.579,3.349,3.349,0,0,1,1.8-.478H181.6m0-3h-1.617a6.336,6.336,0,0,0-3.272.862,14.953,14.953,0,0,1-3.236,1.269,5.584,5.584,0,0,0-3.1,1.813,5.3,5.3,0,0,0-1.3,3.5,4.876,4.876,0,0,0,5.094,5.2h.087v9.947h-.233a5.7,5.7,0,1,0,0,11.4h12.236a5.36,5.36,0,0,0,5.72-5.72,5.282,5.282,0,0,0-5.035-5.652V530.027a5.2,5.2,0,0,0-5.351-5.353Z"/>
          </g>
        </g>
        <g id="组_338" data-name="组 338">
          <g id="组_336" data-name="组 336">
            <path id="路径_704" data-name="路径 704" class="cls-3" d="M201.48,557.174a4.452,4.452,0,0,1-3.695-1.62,5.31,5.31,0,0,1-1-3.863,41.666,41.666,0,0,1,2.2-10.128,36.034,36.034,0,0,1,3.42-6.8h-6.438a4.292,4.292,0,1,1,0-8.585h13.963a3.854,3.854,0,0,1,2.838,1.132,3.965,3.965,0,0,1,1.087,2.829v.441a5.033,5.033,0,0,1-1.211,3.179,26.343,26.343,0,0,0-4.557,8.015,41.086,41.086,0,0,0-1.621,10.022,6.1,6.1,0,0,1-1.348,3.7A4.559,4.559,0,0,1,201.48,557.174Z"/>
          </g>
          <g id="组_337" data-name="组 337">
            <path id="路径_705" data-name="路径 705" class="cls-1" d="M209.932,527.674a2.35,2.35,0,0,1,1.764.679,2.45,2.45,0,0,1,.661,1.782v.441a3.573,3.573,0,0,1-.881,2.242,27.7,27.7,0,0,0-4.814,8.489,42.311,42.311,0,0,0-1.691,10.4,4.648,4.648,0,0,1-1.01,2.831,3.053,3.053,0,0,1-2.481,1.138,3,3,0,0,1-2.516-1.048,3.856,3.856,0,0,1-.68-2.81,39.94,39.94,0,0,1,2.112-9.738,37.323,37.323,0,0,1,4.832-8.819h-9.259a2.792,2.792,0,1,1,0-5.585h13.963m0-3H195.969a5.792,5.792,0,1,0,0,11.585h3.81a34.943,34.943,0,0,0-2.2,4.787,43.071,43.071,0,0,0-2.28,10.47l0,.025,0,.026a6.762,6.762,0,0,0,1.317,4.921,5.9,5.9,0,0,0,4.869,2.186,6.014,6.014,0,0,0,4.8-2.233,7.585,7.585,0,0,0,1.69-4.607,39.506,39.506,0,0,1,1.548-9.6,24.9,24.9,0,0,1,4.312-7.552,6.49,6.49,0,0,0,1.529-4.1v-.441a5.438,5.438,0,0,0-1.507-3.871,5.328,5.328,0,0,0-3.918-1.59Z"/>
          </g>
        </g>
      </g>
    </g>
    <g id="组_343" data-name="组 343">
      <path id="路径_706" data-name="路径 706" class="cls-4" d="M166.9,565.328h40.843v16.359H166.9Z"/>
      <g id="组_341" data-name="组 341">
        <path id="路径_707" data-name="路径 707" class="cls-1" d="M173.537,577.347H177.4v6.766h-3.863Z"/>
        <path id="路径_708" data-name="路径 708" class="cls-5" d="M189.4,577.347h-5.985l-.439-4.94a3.445,3.445,0,0,1,3.125-3.738c.1-.009.205-.014.308-.014a3.445,3.445,0,0,1,3.445,3.445c0,.1,0,.205-.013.307Z"/>
        <path id="路径_709" data-name="路径 709" class="cls-1" d="M184.382,577.347h3.862v6.766h-3.862Z"/>
        <path id="路径_710" data-name="路径 710" class="cls-5" d="M200.249,577.347h-5.987l-.44-4.94a3.445,3.445,0,0,1,3.126-3.738c.1-.009.205-.014.307-.014A3.445,3.445,0,0,1,200.7,572.1c0,.1,0,.206-.013.308Z"/>
        <path id="路径_711" data-name="路径 711" class="cls-1" d="M195.228,577.347h3.862v6.766h-3.862Z"/>
      </g>
      <path id="路径_712" data-name="路径 712" class="cls-6" d="M164.158,581.686h47.355V619.47H164.158Z"/>
      <path id="路径_713" data-name="路径 713" class="cls-5" d="M224.187,578.358H218.2l-.438-4.94a3.445,3.445,0,0,1,3.125-3.738c.1-.009.2-.013.306-.013a3.445,3.445,0,0,1,3.447,3.444c0,.1,0,.2-.013.307Z"/>
      <path id="路径_714" data-name="路径 714" class="cls-1" d="M219.166,578.358h3.862V618.38h-3.862Z"/>
      <g id="组_342" data-name="组 342">
        <path id="路径_715" data-name="路径 715" class="cls-1" d="M174.685,592.152v-2.676a.917.917,0,0,1,1.834,0v2.665a5.409,5.409,0,0,0,.745,2.687,6.371,6.371,0,0,0,2.318,2.277,2.856,2.856,0,0,1,.677.456,1.3,1.3,0,0,1,.365.569.691.691,0,0,1-.166.649q-.5.683-1.56.125a8.3,8.3,0,0,1-2.146-1.867,6.294,6.294,0,0,1-1.156-1.959,6.405,6.405,0,0,1-1.11,2,7.732,7.732,0,0,1-2.09,1.861,2.218,2.218,0,0,1-.529.211,1.056,1.056,0,0,1-.518-.005.794.794,0,0,1-.433-.286.644.644,0,0,1-.187-.6,1.124,1.124,0,0,1,.318-.541,2.584,2.584,0,0,1,.621-.433,6.264,6.264,0,0,0,2.277-2.368A5.894,5.894,0,0,0,174.685,592.152Zm-1.332-.239a6.088,6.088,0,0,1-.865,2.357.781.781,0,0,1-1.116.16.821.821,0,0,1-.273-1.367,5.579,5.579,0,0,0,.5-1.333,1.091,1.091,0,0,1,.358-.694.828.828,0,0,1,.723-.137A.792.792,0,0,1,173.353,591.913Zm6.775.433q-.4.695-1,1.685a.729.729,0,0,1-.991.239q-.819-.365-.421-1.071a13.718,13.718,0,0,0,.706-1.548.867.867,0,0,1,1.264-.627Q180.641,591.4,180.128,592.346Z"/>
        <path id="路径_716" data-name="路径 716" class="cls-1" d="M184.569,592.266v-3.04a.831.831,0,0,1,1.662,0v.455h.3a.723.723,0,1,1,0,1.446h-.3v.979l.319-.034q.786-.09.809.718a.7.7,0,0,1-.695.773q-1.776.218-4,.457a.581.581,0,0,1-.546-.155,1.089,1.089,0,0,1-.205-.632c-.038-.477.167-.736.615-.774h.023v-2.346a.7.7,0,0,1,.8-.785.689.689,0,0,1,.774.785v2.209Zm3.541,2.164h3.678a.8.8,0,1,1,0,1.593h-2.471a9.246,9.246,0,0,0,2.335,1.3,1.247,1.247,0,0,1,.751.479q.137.273-.216.763a.9.9,0,0,1-.524.364,1.132,1.132,0,0,1-.649-.091,10.007,10.007,0,0,1-2.9-1.936v1.663a.894.894,0,0,1-1.787,0v-1.389a10.608,10.608,0,0,1-2.859,1.753,1.1,1.1,0,0,1-.626.08.888.888,0,0,1-.5-.342q-.705-.9.524-1.252a9.387,9.387,0,0,0,2.551-1.39h-2.528a.8.8,0,1,1,0-1.593h3.439v-.024a.631.631,0,0,1,.261-.535,1.046,1.046,0,0,1,.638-.193,1.016,1.016,0,0,1,.632.193.635.635,0,0,1,.256.535Zm-.466-2.631v-2.562a.842.842,0,0,1,1.685,0v.706a12.113,12.113,0,0,0,1.446-.524.86.86,0,0,1,1.059.239q.694.751-.251,1.116-1.275.4-2.254.6v.409a.366.366,0,0,0,.478.479H190.9a1.442,1.442,0,0,1,.5-.723.914.914,0,0,1,.8.006q.593.227.376,1.286a1.341,1.341,0,0,1-.558.724,2.04,2.04,0,0,1-1.014.21h-1.457a2.069,2.069,0,0,1-1.514-.415A2.318,2.318,0,0,1,187.644,591.8Z"/>
        <path id="路径_717" data-name="路径 717" class="cls-1" d="M203.505,590.774h-2.47l-.046.3h2.323a.554.554,0,0,1,.626.626q0,.65-.626.65h-.581a2.441,2.441,0,0,0,.125.318h.923a.689.689,0,0,1,0,1.378h-.171a5.18,5.18,0,0,0,.364.467,1.177,1.177,0,0,1,.422.627.892.892,0,0,1-.251.66.759.759,0,0,1-.563.312,1.047,1.047,0,0,1-.6-.346l-.068-.1v.353q0,.285-.273.285h-.888v.41H203.2a.683.683,0,0,1,0,1.366h-1.446v.649a.758.758,0,0,1-1.515,0v-.649H198.8a.683.683,0,1,1,0-1.366h1.434v-.41H199.6a.512.512,0,0,1-.547-.547v-.193c-.167.189-.334.364-.5.523a.749.749,0,0,1-1.15,0q-.6-.625.16-1.264a4.988,4.988,0,0,0,.671-.774h-.489l-.433.626c-.129.168-.252.247-.37.239s-.214-.1-.291-.273c-.038-.075-.094-.2-.171-.364v4.452a.757.757,0,0,1-1.514,0v-3.063c-.061.19-.167.459-.319.809a1.439,1.439,0,0,1-.353.467.25.25,0,0,1-.318,0,1.242,1.242,0,0,1-.33-.467.956.956,0,0,1,.045-.968,10.86,10.86,0,0,0,1.173-3.178h-.387a.786.786,0,1,1,0-1.571h.489v-1.594a.757.757,0,1,1,1.514,0v1.594h.274a.786.786,0,1,1,0,1.571h-.216q.147.2.535.746t.478.678v-.581a.471.471,0,0,1,.5-.5h.957a2.441,2.441,0,0,0,.125-.318h-.182q-.627,0-.627-.65a.554.554,0,0,1,.627-.626h.535a.721.721,0,0,1,.023-.148.766.766,0,0,0,.022-.148H198.7a.683.683,0,1,1,0-1.366h.934v-.342a.474.474,0,0,1,.211-.41.882.882,0,0,1,.518-.148.929.929,0,0,1,.54.154.5.5,0,0,1,.222.439v.307h2.38a.683.683,0,1,1,0,1.366Zm-3.427,3.268a7.391,7.391,0,0,1-.592.979h.751V595a.6.6,0,0,1,.205-.49.833.833,0,0,1,.547-.171.855.855,0,0,1,.552.171.593.593,0,0,1,.211.49v.022h.694a8.313,8.313,0,0,1-.523-.979Zm.66-1.7a3.133,3.133,0,0,1-.1.318h.774l-.1-.318Z"/>
        <path id="路径_718" data-name="路径 718" class="cls-1" d="M176.336,611.849q.672-1.833.82-2.288.285-.9,1.071-.4a.785.785,0,0,1,.387.968q-.354,1.285-.729,2.346-.3.864-1.127.42a1.031,1.031,0,0,1-.467-.438A.8.8,0,0,1,176.336,611.849Zm1.139-6.024.638.32a.649.649,0,0,1,.159,1.036.774.774,0,0,1-1.241.215l-.114-.074-.114-.073q-.819-.445-.284-1.15A.753.753,0,0,1,177.475,605.825Zm8.7-.557h-1.857l-.17.41c-.068.167-.008.25.182.25h1.878a.568.568,0,0,1,.542.251.992.992,0,0,1-.018.762,6.749,6.749,0,0,1-.99,1.628v.16h.512a.655.655,0,0,1,.741.74.665.665,0,0,1-.741.763h-.512v1.606a2.613,2.613,0,0,1-.12.888.946.946,0,0,1-.45.5,2.715,2.715,0,0,1-.979.239q-.865.023-1.036-.615a.684.684,0,0,1,.08-.683.983.983,0,0,1,.728-.193H184c.136,0,.205-.054.205-.161v-1.582h-.513a.669.669,0,0,1-.751-.763.659.659,0,0,1,.751-.74h.513v-.536a.341.341,0,0,1,.387-.386h.034c.061-.083.152-.224.273-.421h-.831a.668.668,0,0,1-.506-.2.7.7,0,0,1-.188-.511v-.034a9.438,9.438,0,0,0-.843-.491.351.351,0,0,1-.2-.239.373.373,0,0,1,.074-.318c.015-.016.022-.027.022-.035h-1.48q-.022.729-.023,1.071H182.1a.611.611,0,0,1,.564.324,2.248,2.248,0,0,1,.153,1.133q-.092,2.392-.21,3.422a3.08,3.08,0,0,1-.348,1.327,1.153,1.153,0,0,1-.506.467,2.734,2.734,0,0,1-.814.147c-.388,0-.6-.163-.638-.489a3.832,3.832,0,0,0-.114-.433.427.427,0,0,1,.006-.416.461.461,0,0,1,.4-.131h.023a.342.342,0,0,0,.319-.181,10.592,10.592,0,0,0,.364-3.11.889.889,0,0,0-.051-.426.223.223,0,0,0-.211-.109h-.216a11.146,11.146,0,0,1-1.253,4.555.915.915,0,0,1-.512.428c-.16.026-.353-.071-.581-.291a.915.915,0,0,1-.313-.546,1.015,1.015,0,0,1,.222-.6,6.49,6.49,0,0,0,.672-1.873,12.952,12.952,0,0,0,.284-1.953q.047-.831.08-2.312h-.4a.281.281,0,0,1-.318-.319v-1.149l-.308.421a.373.373,0,0,1-.273.182.337.337,0,0,1-.285-.08,6.321,6.321,0,0,0-.672-.455q-.819-.456-.272-1.162a.753.753,0,0,1,.99-.25q.182.08.877.489a.465.465,0,0,1,.182.32.55.55,0,0,1-.114.386l-.034.024H180v-.741a.715.715,0,0,1,.82-.8.7.7,0,0,1,.8.8v.741h.649a.527.527,0,0,1,.558.557v.16a10.084,10.084,0,0,0,.387-1.435.73.73,0,0,1,.945-.694.692.692,0,0,1,.649.91.737.737,0,0,0-.023.1.748.748,0,0,1-.022.1h1.412a.8.8,0,0,1,0,1.6Z"/>
        <path id="路径_719" data-name="路径 719" class="cls-1" d="M188.566,603.594h3.1a.654.654,0,0,1,.558.239.968.968,0,0,1,.137.694,18.455,18.455,0,0,1-.991,4.122q.466.625,1.025,1.469a.771.771,0,0,1-.205,1.048q-.764.707-1.23-.171-.034-.057-.171-.273c-.091-.145-.163-.254-.216-.33a10.108,10.108,0,0,1-1.116,1.617,1.022,1.022,0,0,1-.643.387.886.886,0,0,1-.632-.353,1.066,1.066,0,0,1-.319-.712,1.2,1.2,0,0,1,.41-.689,8.387,8.387,0,0,0,1.195-1.856l-.649-.883c-.3-.414-.535-.726-.694-.939a.66.66,0,0,1,.125-1.014.628.628,0,0,1,1.036.069q.411.491.865,1.07a15.17,15.17,0,0,0,.5-2.015h-2.083a.659.659,0,0,1-.74-.752A.649.649,0,0,1,188.566,603.594Zm6.49,1.639q1.971-.228,2.494-.285a.671.671,0,0,1,.854.661.679.679,0,0,1-.672.854l-.831.1.74.456a.758.758,0,0,1,.347.427.73.73,0,0,1-.039.541,12.292,12.292,0,0,1-1.89,2.744,1.116,1.116,0,0,0,.717.58.161.161,0,0,0,.171-.079q.249-1.617,1.173-.957a.95.95,0,0,1,.29.724,2.473,2.473,0,0,1-.052.848,2.8,2.8,0,0,1-.654,1.269,1.093,1.093,0,0,1-.837.314,2.866,2.866,0,0,1-2.164-1.412q-.638.5-.786.592a.921.921,0,0,1-1.207-.1c-.288-.281-.405-.525-.352-.73s.269-.405.649-.6a7.5,7.5,0,0,0,1.013-.751,17.969,17.969,0,0,1-.546-3.416l-.205.022a.7.7,0,0,1-.866-.683.68.68,0,0,1,.672-.866l.285-.034q-.057-.864-.08-2.049-.022-.935.854-.934a.786.786,0,0,1,.877.9Q195.034,604.618,195.056,605.233Zm1.2,2.574a7.977,7.977,0,0,0,.638-1.23l-1.731.216a20.086,20.086,0,0,0,.3,2.175A7.81,7.81,0,0,0,196.252,607.807Zm.045-3.451c-.09-.114-.216-.273-.375-.478a.641.641,0,0,1,.137-1.059.673.673,0,0,1,1.013.079q.193.2.535.559a.748.748,0,0,1,.233.546.828.828,0,0,1-.358.5A.742.742,0,0,1,196.3,604.356Z"/>
      </g>
    </g>
    <g id="组_344" data-name="组 344">
      <path id="路径_720" data-name="路径 720" class="cls-7" d="M147.409,558.6l9.185-9.186a2.386,2.386,0,0,1,3.373,0l0,0,9.106,9.106-.179,10.52a1.8,1.8,0,0,1-1.757,1.772l-10.623.267-9.105-9.106a2.384,2.384,0,0,1,0-3.373l0,0Z"/>
      <path id="路径_721" data-name="路径 721" class="cls-8" d="M156.574,549.438a2.325,2.325,0,0,1,3.288,0l9.048,9.048a.175.175,0,0,1,.023.23l-.014.014a3.77,3.77,0,0,1-5.172,1.291,3.827,3.827,0,0,1-.716-.558l-8.241-8.241Z"/>
      <path id="路径_722" data-name="路径 722" class="cls-9" d="M149,556.918a.181.181,0,0,1,.254,0l7.761,7.762c1.68,1.679,2.062,4.046.382,5.725a4.124,4.124,0,0,1-.738.584.174.174,0,0,1-.23-.023l-8.926-8.926a2.565,2.565,0,0,1,0-3.628Z"/>
      <path id="路径_723" data-name="路径 723" class="cls-10" d="M154.67,551.247a.181.181,0,0,1,.255,0h0l7.762,7.762a4.039,4.039,0,0,1,.251,5.856,4.177,4.177,0,0,1-5.978-.13l-7.761-7.762a.193.193,0,0,1,0-.255Z"/>
      <path id="路径_724" data-name="路径 724" class="cls-11" d="M163.757,570.9l3.383-.085a1.8,1.8,0,0,0,1.757-1.772l.056-3.34Z"/>
      <path id="路径_725" data-name="路径 725" class="cls-12" d="M166.574,561.513a.966.966,0,0,1,1.365,1.366h0a.966.966,0,0,1-1.365-1.366Zm.818,3.005a.58.58,0,1,1-.005.825A.588.588,0,0,1,167.392,564.518Z"/>
    </g>
  </g>
</svg>
