<svg id="组_372" data-name="组 372" xmlns="http://www.w3.org/2000/svg" width="391.867" height="69.519" viewBox="0 0 391.867 69.519">
  <defs>
    <style>
      .cls-1 {
        opacity: 0.4;
      }

      .cls-2 {
        fill: #fff;
      }

      .cls-3 {
        fill: #c66e16;
      }

      .cls-4 {
        fill: #683818;
      }

      .cls-5 {
        fill: #ffe063;
      }

      .cls-6 {
        fill: #ff8c54;
      }
    </style>
  </defs>
  <rect id="矩形_64" data-name="矩形 64" class="cls-1" width="371.579" height="50.575" rx="10.923" transform="translate(20.288 15.54)"/>
  <g id="组_359" data-name="组 359" transform="translate(0 0)">
    <path id="路径_751" data-name="路径 751" class="cls-2" d="M119.02,60.933A25.176,25.176,0,0,0,114.261,49.8c-.313-.428-.626-.842-.951-1.245a10.6,10.6,0,0,0,.115-3.4,12.067,12.067,0,0,0-.481-2.154,2.342,2.342,0,0,0-.456-3.088h0a2.356,2.356,0,1,0-1.251,4.139,9.252,9.252,0,0,1,.352,2.568,22.542,22.542,0,0,0-8.669-5.605l.125.759a10.636,10.636,0,0,0-.941-3.207,11.888,11.888,0,0,0-1.126-1.9,2.349,2.349,0,1,0-1.3,1.529,9.366,9.366,0,0,1,1.086,2.207c-7.871-1.813-16.885.99-25.264,8.8l-.828.783q-12.086-6.669-17.235-2.933c-6.692,4.867-4.452,14.6,2.063,18.039a7.115,7.115,0,0,0,4.36.6c-2.364,6.215-2.524,12.634.928,18.258l-5.159,6.059a.481.481,0,0,0,.544.759L67.8,87.751C73.016,92.966,80.155,94.336,88,92.8c1.75,5.707,7.836,9.9,14.106,7.116q5.832-2.6,6.08-16.481C114.969,78.193,118.6,71.99,119.155,65.6" transform="translate(-53.389 -31.279)"/>
    <path id="路径_752" data-name="路径 752" class="cls-3" d="M98.7,43.862a4.808,4.808,0,0,1-7.367-6.179h0a4.807,4.807,0,0,1,7.367,6.178Z" transform="translate(-37.381 -30.298)"/>
    <path id="路径_753" data-name="路径 753" class="cls-3" d="M95.186,39.6a.962.962,0,1,0-1.758.785,9.377,9.377,0,0,1,.772,2.745,8.65,8.65,0,0,1-.077,2.733.962.962,0,1,0,1.888.367h0a10.547,10.547,0,0,0,.1-3.346,11.448,11.448,0,0,0-.918-3.288Z" transform="translate(-36.02 -28.966)"/>
    <path id="路径_754" data-name="路径 754" class="cls-4" d="M66.917,65.812,56.9,77.557l14.407-5.7Z" transform="translate(-51.862 -17.322)"/>
    <path id="路径_755" data-name="路径 755" class="cls-5" d="M100.3,85.087c17.02-9.778,20.6-24.4,11.352-37.129s-24.88-13.538-38.759-.6C62.12,57.4,54.875,72.155,63.014,83.357S85.812,93.414,100.3,85.087Z" transform="translate(-50.723 -29.4)"/>
    <path id="路径_756" data-name="路径 756" class="cls-4" d="M87.648,60.968c5.37,7.006,15.644,11.981,23.847,13.765a35.284,35.284,0,0,1-8.255,7.664c-8.605-2.933-17.577-8.212-23.221-15.583a33.371,33.371,0,0,1-6.812-20.692l.235-.207a36.716,36.716,0,0,1,9.976-6.452S82.688,56.016,87.648,60.968ZM66.926,57.632c1.034,10.548,5.145,19,10.376,22.847,1.712,1.258,3.884,4.806,2.624,6.518s-5.115-.773-6.826-2.033C67.408,80.781,62.576,74.17,60.341,64.824A38.376,38.376,0,0,1,66.652,53.18Q66.7,55.3,66.926,57.632Z" transform="translate(-50.367 -28.776)"/>
    <path id="路径_757" data-name="路径 757" class="cls-6" d="M83.014,48.714c2.063,1.674,4.74,1.785,5.981.255s.571-4.129-1.491-5.8-4.746-1.778-5.986-.25-.572,4.125,1.491,5.8Zm20.562,11.255c1.538,1.245,3.534,1.327,4.456.188s.433-3.077-1.1-4.327-3.539-1.327-4.462-.184-.433,3.077,1.106,4.323Z" transform="translate(-41.431 -27.743)"/>
    <path id="路径_758" data-name="路径 758" class="cls-3" d="M93.824,49.817a.963.963,0,0,1,.188,1.347,2.639,2.639,0,0,1-3.333.927,2.828,2.828,0,0,1-1.8-2.933.963.963,0,0,1,1.924.106h0a.921.921,0,0,0,.624,1.057.693.693,0,0,0,.857-.1L92.478,50A.962.962,0,0,1,93.824,49.817Z" transform="translate(-37.966 -24.957)"/>
    <path id="路径_759" data-name="路径 759" d="M89.551,42.66l1.773,5.528-5.1,1.644a1.207,1.207,0,0,1-1.092-2.125l.347-.178,2.808-.9L87.249,43.4a1.21,1.21,0,0,1,.432-1.346l.346-.174a1.213,1.213,0,0,1,1.347.433ZM100.67,57.621l-2.438-5.27,4.861-2.254a1.207,1.207,0,0,1,1.337,1.976l-.317.217-2.674,1.245,1.423,3.072A1.205,1.205,0,0,1,102.594,58l-.317.217a1.23,1.23,0,0,1-1.395-.27Z" transform="translate(-39.808 -27.75)"/>
    <path id="路径_760" data-name="路径 760" class="cls-3" d="M90.932,38.624a4.808,4.808,0,1,1-2.657-6.258A4.808,4.808,0,0,1,90.932,38.624Z" transform="translate(-41.097 -32.014)"/>
    <path id="路径_761" data-name="路径 761" class="cls-3" d="M86.57,35.237a.962.962,0,0,0-1.429,1.29A9.413,9.413,0,0,1,86.725,38.9a8.687,8.687,0,0,1,.769,2.624.962.962,0,1,0,1.91-.235h0a10.511,10.511,0,0,0-.941-3.211,11.49,11.49,0,0,0-1.891-2.844Z" transform="translate(-39.694 -30.751)"/>
  </g>
</svg>
