<svg xmlns="http://www.w3.org/2000/svg" width="106.271" height="120.042" viewBox="0 0 106.271 120.042">
  <defs>
    <style>
      .cls-1 {
        fill: #fff;
      }

      .cls-2 {
        fill: #ffde78;
      }

      .cls-3 {
        fill: #8a493c;
      }

      .cls-4 {
        fill: #c77969;
      }

      .cls-5 {
        fill: #7ad7f4;
      }

      .cls-6 {
        fill: #65b4f6;
      }

      .cls-7 {
        fill: #ffe2c9;
      }

      .cls-8 {
        fill: #f84f4f;
      }

      .cls-9 {
        fill: #f8c34f;
      }

      .cls-10 {
        fill: #f8934f;
      }

      .cls-11 {
        fill: #683818;
      }

      .cls-12 {
        fill: #f9fbf8;
      }

      .cls-13 {
        fill: #b36339;
      }
    </style>
  </defs>
  <g id="组_292" data-name="组 292" transform="translate(-414.75 -508.527)">
    <circle id="椭圆_120" data-name="椭圆 120" class="cls-1" cx="53.135" cy="53.135" r="53.135" transform="translate(414.75 522.299)"/>
    <circle id="椭圆_121" data-name="椭圆 121" class="cls-2" cx="46.717" cy="46.717" r="46.717" transform="translate(421.169 528.717)"/>
    <g id="组_282" data-name="组 282">
      <g id="组_280" data-name="组 280">
        <rect id="矩形_50" data-name="矩形 50" class="cls-3" width="55.995" height="8.596" transform="translate(439.633 553.926)"/>
        <rect id="矩形_51" data-name="矩形 51" class="cls-3" width="6.724" height="16.834" rx="3.362" transform="translate(435.216 549.986)"/>
        <path id="路径_618" data-name="路径 618" class="cls-3" d="M499.823,553.351v10.107a3.359,3.359,0,1,1-6.719,0V553.351a3.36,3.36,0,1,1,6.719,0Z"/>
        <path id="路径_619" data-name="路径 619" class="cls-4" d="M499.823,553.351v6.523a3.36,3.36,0,1,1-6.719,0v-6.523a3.36,3.36,0,1,1,6.719,0Z"/>
        <path id="路径_620" data-name="路径 620" class="cls-4" d="M441.937,553.351v6.523a3.36,3.36,0,1,1-6.719,0v-6.523a3.36,3.36,0,1,1,6.719,0Z"/>
        <path id="路径_621" data-name="路径 621" class="cls-5" d="M493.777,589.762a8.232,8.232,0,0,1-1.845,5.562c-4.5,5.4-13.937,10.36-21.4,13.994a6.436,6.436,0,0,1-5.274.182c-7.449-3.065-14.723-8.726-19.156-12.555a12.126,12.126,0,0,1-4.16-9.512l.94-31.964a3.315,3.315,0,0,1,3.311-3.212h42.591a3.1,3.1,0,0,1,.512.042,3.3,3.3,0,0,1,2.8,3.086C492.5,562.946,493.51,582.123,493.777,589.762Z"/>
        <g id="组_279" data-name="组 279">
          <path id="路径_622" data-name="路径 622" class="cls-6" d="M491.083,583.814a12.931,12.931,0,0,1-4.931,10.206c-3.3,2.6-11.678,8.641-18.293,8.641-8.529,0-18.805-8.34-21.562-13.965-2.483-5.058-.182-30.849.351-36.439h1.76l1.747.168c-1.122,11.693-2.308,31.466-.708,34.728,2.069,4.215,11.054,12,18.412,12,4.51,0,11.286-4.075,16.126-7.891a9.416,9.416,0,0,0,3.591-7.449c.014-13.131-.792-29.236-1.894-31.557h3.1a3.1,3.1,0,0,1,.512.042C491.076,560.021,491.083,583.547,491.083,583.814Z"/>
        </g>
      </g>
      <g id="组_281" data-name="组 281">
        <path id="路径_623" data-name="路径 623" class="cls-1" d="M465.627,574.991h-7.171a.792.792,0,0,1-.577-.215.757.757,0,0,1-.22-.57v-3.782a.759.759,0,0,1,.22-.571.792.792,0,0,1,.577-.214h2.628V567.7H457.35a.868.868,0,1,1,0-1.736h3.734v-1.046a.963.963,0,1,1,1.927,0v1.046h3.722a.868.868,0,1,1,0,1.736h-3.722v1.939h2.616a.792.792,0,0,1,.577.214.763.763,0,0,1,.22.571v3.782a.761.761,0,0,1-.22.57A.792.792,0,0,1,465.627,574.991Zm-6.136-1.677H464.5v-2h-5.006Z"/>
        <path id="路径_624" data-name="路径 624" class="cls-1" d="M478.935,569.52h-3.378a23.881,23.881,0,0,1-2.057,1.522v.262q1.878-.512,3.08-.975a.966.966,0,0,1,.559-.078,1.19,1.19,0,0,1,.5.3q.916.831-.226,1.224a36.2,36.2,0,0,1-3.912,1.011v.44q0,.369.166.458a2.224,2.224,0,0,0,.821.089h2.271a1.27,1.27,0,0,0,.523-.083q.417-1.342,1.368-.963a.74.74,0,0,1,.464.57,1.6,1.6,0,0,1-.743,1.785,3.273,3.273,0,0,1-1.481.261H474.32a3.56,3.56,0,0,1-2.105-.44,2.056,2.056,0,0,1-.546-1.665v-1.106q-.714.381-1.38.666a.981.981,0,0,1-1.273-.285q-.369-.488-.255-.8t.707-.535a20.267,20.267,0,0,0,3.152-1.665H469.5a.82.82,0,1,1,0-1.641h2.842v-.94H470.61a.809.809,0,1,1,0-1.617h1.736v-.452a.916.916,0,1,1,1.832,0v.452h1.914a.4.4,0,0,1,.452.452v.036c0,.189.06.213.178.071q.383-.475.559-.738a.891.891,0,0,1,1.238-.333q.879.453.321,1.237a18.983,18.983,0,0,1-1.546,1.832h1.641a.82.82,0,1,1,0,1.641Zm-3.628-2.105c.111-.1.274-.261.488-.476h-1.617v.94h.63Z"/>
        <path id="路径_625" data-name="路径 625" class="cls-1" d="M458.111,580.435h2.509a.613.613,0,0,1,.577.333,2.652,2.652,0,0,1,.173,1.2q-.1,3.805-.25,5.328a4.406,4.406,0,0,1-.5,1.974,1.775,1.775,0,0,1-.552.535,2.449,2.449,0,0,1-.72.238,7.146,7.146,0,0,1-1.141.06.867.867,0,0,1-.94-.714.935.935,0,0,1-.036-.1l-.036-.107q-.189-.381-.024-.577a.832.832,0,0,1,.679-.173c.23.009.491.013.785.013a.688.688,0,0,0,.523-.215,3.37,3.37,0,0,0,.38-1.564q.132-1.29.2-4.085a.893.893,0,0,0-.053-.433.233.233,0,0,0-.22-.114h-2q-.227.489-.606,1.166a.675.675,0,0,1-.47.333.721.721,0,0,1-.577-.179c-.04-.024-.1-.067-.184-.13s-.145-.107-.185-.131V588.1a.755.755,0,0,1-.8.8H451.5a.759.759,0,0,1-.571-.22.79.79,0,0,1-.214-.577v-6.754a.792.792,0,0,1,.214-.577.759.759,0,0,1,.571-.22h.583q.143-.75.178-1,.084-.975,1.023-.844.987.13.63,1.177c-.016.048-.051.15-.107.309s-.1.278-.131.357h.976a.755.755,0,0,1,.8.8v.832a11.929,11.929,0,0,0,1.19-2.724.808.808,0,0,1,1.07-.653.734.734,0,0,1,.618,1.046l-.107.292C458.171,580.275,458.135,580.372,458.111,580.435Zm-5.815,1.95v1.356h1.581v-1.356a.263.263,0,0,0-.3-.3h-1Q452.3,582.088,452.3,582.385Zm0,2.878v1.8q0,.3.285.3h1a.263.263,0,0,0,.3-.3v-1.8Zm5.161.916q-.143-.261-.416-.731c-.183-.313-.3-.522-.369-.625a.686.686,0,0,1,.31-1.07.7.7,0,0,1,1.07.238q.178.261.927,1.45a.766.766,0,0,1,.108.6,1.023,1.023,0,0,1-.441.452A.724.724,0,0,1,457.457,586.179Z"/>
        <path id="路径_626" data-name="路径 626" class="cls-1" d="M470.788,580.756h2.236a.739.739,0,0,1,.6.249,1.033,1.033,0,0,1,.208.679q0,.7-.618.7h-.024a13.831,13.831,0,0,1-1.2,4.376,5.978,5.978,0,0,0,1,1.131,1.416,1.416,0,0,1,.618.695,1,1,0,0,1-.262.827.9.9,0,0,1-.648.4,1.166,1.166,0,0,1-.743-.309,7.352,7.352,0,0,1-1.059-1.118,7.835,7.835,0,0,1-1.653,1.38.865.865,0,0,1-.654.124.723.723,0,0,1-.464-.4l-.077-.119-.077-.119-.369.381a.5.5,0,0,1-.321.155.37.37,0,0,1-.3-.108q-.738-.535-.868-.618a6.114,6.114,0,0,1-2.081.892q-.893.2-1.154-.536l-.035-.071q-.369-.642.475-.773a6.272,6.272,0,0,0,1.284-.392l-.392-.179q-.084.179-.333.095a1.636,1.636,0,0,1-.779-.446.521.521,0,0,1-.066-.672c.207-.348.341-.59.4-.725h-.345a.708.708,0,0,1,0-1.415h1.058l.3-.595a.216.216,0,0,1,.3-.131v-.856a8.8,8.8,0,0,1-.987.8.859.859,0,0,1-.565.184.682.682,0,0,1-.458-.351.781.781,0,0,1-.172-.654,1.009,1.009,0,0,1,.529-.475,6.258,6.258,0,0,0,1.13-.868h-.975a.69.69,0,0,1,0-1.38h.083q-.108-.309-.3-.737a.542.542,0,0,1-.041-.47.558.558,0,0,1,.363-.315.7.7,0,0,1,.589,0,.927.927,0,0,1,.422.463.848.848,0,0,1,.071.643.649.649,0,0,1-.452.416h.761v-1.165a.71.71,0,0,1,.809-.8.7.7,0,0,1,.785.8v.809a7.976,7.976,0,0,0,.416-.774.694.694,0,0,1,.987-.464q.809.31.2,1.107c-.127.174-.254.337-.38.487h.3a.69.69,0,0,1,0,1.38h-.952c.111.055.27.145.476.267s.325.193.357.208q.321.2.333.405a.829.829,0,0,1-.238.511.586.586,0,0,1-1.023.107c-.127-.119-.285-.257-.475-.416v.689a.554.554,0,0,1-.6.595h-.357l.4.084c.231.055.3.182.2.38l-.059.119h2.473c-.238-.222-.4-.373-.5-.452a.492.492,0,0,1-.191-.315.426.426,0,0,1,.083-.351,11.047,11.047,0,0,0,1.415-4.139,1.1,1.1,0,0,1,.333-.707.852.852,0,0,1,.714-.185.772.772,0,0,1,.738,1.011C470.947,580.051,470.875,580.4,470.788,580.756Zm-5.41,6.125.392.178a4.261,4.261,0,0,0,.321-.8h-.9l-.226.452C465.048,586.746,465.187,586.8,465.378,586.881Zm1.735-6.363q-.476-.2-.606-.261c-.111-.048-.166-.016-.166.095v.166Zm1.975,7.088a5.148,5.148,0,0,0,.856-.892,12.088,12.088,0,0,1-.666-1.9.592.592,0,0,1-.06.113,1.041,1.041,0,0,1-.1.149c-.028.031-.066.07-.113.113a.165.165,0,0,1-.143.053.245.245,0,0,1-.143-.1l-.131-.131v.655a.587.587,0,0,1-.16.434.572.572,0,0,1-.423.16h-.285a5.712,5.712,0,0,1-.523,1.558q.154.084.808.511A5.064,5.064,0,0,0,469.088,587.606Zm1.308-5.221a20.992,20.992,0,0,0,.559,2.224,14.031,14.031,0,0,0,.428-2.224Z"/>
        <path id="路径_627" data-name="路径 627" class="cls-1" d="M483.763,581.327H477.02c-.2,0-.3.095-.3.285v.511a.862.862,0,1,1-1.724,0v-1.676a.737.737,0,0,1,.785-.785h3.556v-.143a.94.94,0,0,1,1.879,0v.143h3.58a.738.738,0,0,1,.785.785v1.629a.91.91,0,1,1-1.82,0Zm-5.863.761h4.293l.226-.048a.355.355,0,0,1,.309.072l.464.357a.6.6,0,0,1,.262.434.583.583,0,0,1-.155.457,11.99,11.99,0,0,1-2,1.725h3.508a.844.844,0,1,1,0,1.689h-3.591v1.391a2.4,2.4,0,0,1-.2,1.082,1.275,1.275,0,0,1-.683.583,4.983,4.983,0,0,1-1.546.262,1.165,1.165,0,0,1-1.249-.678c-.166-.4-.151-.68.048-.85a1.5,1.5,0,0,1,1.023-.233h.392a.508.508,0,0,0,.262-.047.2.2,0,0,0,.071-.179v-1.331h-3.508a.845.845,0,0,1,0-1.689h3.508V584.7a.306.306,0,0,1,.309-.309h.25a5.708,5.708,0,0,0,.832-.7H477.9a.8.8,0,0,1,0-1.6Z"/>
      </g>
      <path id="路径_628" data-name="路径 628" class="cls-6" d="M458.581,554.511l.478.969a.5.5,0,0,0,.376.273l1.069.155a.5.5,0,0,1,.277.853l-.774.754a.5.5,0,0,0-.143.442l.182,1.064a.5.5,0,0,1-.725.527l-.956-.5a.5.5,0,0,0-.465,0l-.956.5a.5.5,0,0,1-.725-.527l.183-1.064a.5.5,0,0,0-.144-.442l-.773-.754a.5.5,0,0,1,.277-.853l1.068-.155a.5.5,0,0,0,.377-.273l.478-.969A.5.5,0,0,1,458.581,554.511Z"/>
      <path id="路径_629" data-name="路径 629" class="cls-1" d="M467.571,554.511l.478.969a.5.5,0,0,0,.376.273l1.069.155a.5.5,0,0,1,.277.853l-.773.754a.5.5,0,0,0-.144.442l.183,1.064a.5.5,0,0,1-.725.527l-.956-.5a.5.5,0,0,0-.465,0l-.957.5a.5.5,0,0,1-.725-.527l.183-1.064a.5.5,0,0,0-.144-.442l-.773-.754a.5.5,0,0,1,.277-.853l1.069-.155a.5.5,0,0,0,.376-.273l.478-.969A.5.5,0,0,1,467.571,554.511Z"/>
      <path id="路径_630" data-name="路径 630" class="cls-6" d="M476.526,554.511l.478.969a.5.5,0,0,0,.376.273l1.069.155a.5.5,0,0,1,.277.853l-.774.754a.5.5,0,0,0-.144.442l.183,1.064a.5.5,0,0,1-.725.527l-.956-.5a.5.5,0,0,0-.465,0l-.956.5a.5.5,0,0,1-.725-.527l.182-1.064a.5.5,0,0,0-.143-.442l-.774-.754a.5.5,0,0,1,.277-.853l1.069-.155a.5.5,0,0,0,.376-.273l.478-.969A.5.5,0,0,1,476.526,554.511Z"/>
    </g>
    <g id="组_283" data-name="组 283">
      <path id="路径_631" data-name="路径 631" class="cls-7" d="M422.515,542.492l9.243-9.243a2.4,2.4,0,0,1,3.394,0l0,0,9.162,9.162L444.136,553a1.814,1.814,0,0,1-1.768,1.783l-10.689.268-9.162-9.162a2.4,2.4,0,0,1,0-3.394l0,0Z"/>
      <path id="路径_632" data-name="路径 632" class="cls-8" d="M431.738,533.275a2.338,2.338,0,0,1,3.308,0l9.1,9.1a.176.176,0,0,1,.023.232l-.014.013a3.794,3.794,0,0,1-5.924.739l-8.293-8.293Z"/>
      <path id="路径_633" data-name="路径 633" class="cls-9" d="M424.115,540.8a.181.181,0,0,1,.256,0l7.81,7.81c1.689,1.689,2.074,4.07.384,5.76a4.169,4.169,0,0,1-.743.588.176.176,0,0,1-.232-.023l-8.981-8.981a2.582,2.582,0,0,1,0-3.651Z"/>
      <path id="路径_634" data-name="路径 634" class="cls-10" d="M429.821,535.095a.182.182,0,0,1,.257,0h0l7.81,7.81a4.063,4.063,0,0,1,.253,5.892,4.2,4.2,0,0,1-6.015-.13l-7.809-7.81a.194.194,0,0,1,0-.257Z"/>
      <path id="路径_635" data-name="路径 635" class="cls-11" d="M438.965,554.866l3.4-.086A1.813,1.813,0,0,0,444.137,553l.057-3.361Z"/>
      <path id="路径_636" data-name="路径 636" class="cls-12" d="M441.8,545.425a.972.972,0,0,1,1.374,1.374h0a.972.972,0,0,1-1.374-1.375Zm.824,3.024a.583.583,0,1,1,0,.83A.59.59,0,0,1,442.623,548.449Z"/>
    </g>
    <g id="组_291" data-name="组 291">
      <g id="组_290" data-name="组 290">
        <g id="组_286" data-name="组 286">
          <g id="组_284" data-name="组 284">
            <path id="路径_637" data-name="路径 637" class="cls-13" d="M450.554,540.532a4.105,4.105,0,1,1,0-8.21h1.618V519.938H450.7a3.316,3.316,0,0,1-3.52-3.625,3.726,3.726,0,0,1,.912-2.467,3.967,3.967,0,0,1,2.277-1.308,15.7,15.7,0,0,0,3.454-1.358,4.724,4.724,0,0,1,2.476-.655h1.56a3.629,3.629,0,0,1,3.769,3.769v18.028h.733a4.105,4.105,0,1,1,0,8.21Z"/>
          </g>
          <g id="组_285" data-name="组 285">
            <path id="路径_638" data-name="路径 638" class="cls-1" d="M457.855,512.025a2.134,2.134,0,0,1,2.268,2.269v19.528h2.233a2.605,2.605,0,1,1,0,5.21h-11.8a2.605,2.605,0,1,1,0-5.21h3.118V518.439H450.7q-2.019,0-2.02-2.127a2.2,2.2,0,0,1,.549-1.487,2.487,2.487,0,0,1,1.436-.817,17.161,17.161,0,0,0,3.9-1.522,3.222,3.222,0,0,1,1.736-.461h1.561m0-3h-1.561a6.2,6.2,0,0,0-3.207.845,14.26,14.26,0,0,1-3.094,1.213,5.5,5.5,0,0,0-3.042,1.783,5.209,5.209,0,0,0-1.276,3.446,4.8,4.8,0,0,0,5,5.127v9.383h-.118a5.605,5.605,0,1,0,0,11.21h11.8a5.269,5.269,0,0,0,5.623-5.623,5.188,5.188,0,0,0-4.856-5.548V514.294a5.125,5.125,0,0,0-5.268-5.269Z"/>
          </g>
        </g>
        <g id="组_289" data-name="组 289">
          <g id="组_287" data-name="组 287">
            <path id="路径_639" data-name="路径 639" class="cls-13" d="M477.313,541.027a13.568,13.568,0,0,1-8.777-2.744,3.646,3.646,0,0,1-.411-5.2,4.266,4.266,0,0,1,2.85-1.847,3.977,3.977,0,0,1,.51-.034,4.489,4.489,0,0,1,2.627.926,5.284,5.284,0,0,0,2.528.69,3.733,3.733,0,0,0,2.16-.518,1.144,1.144,0,0,0,.486-1.065,1.923,1.923,0,0,0-.325-1.221,2.645,2.645,0,0,0-1.462-.662,7.746,7.746,0,0,1-3.079-1.036,3.491,3.491,0,0,1-2.045-3.072,3.547,3.547,0,0,1,1.81-3.025,6.972,6.972,0,0,1,2.908-1.1c1.111-.376,1.343-.946,1.343-1.682s-.241-.956-.321-1.03a1.954,1.954,0,0,0-1.263-.34,3.864,3.864,0,0,0-1.769.456,4.581,4.581,0,0,1-2.625.919,4.139,4.139,0,0,1-3.2-1.661,3.933,3.933,0,0,1-1.016-3.021,3.976,3.976,0,0,1,1.775-2.668l.109-.073a13.487,13.487,0,0,1,7.047-1.988,12.166,12.166,0,0,1,7.7,2.271,8.049,8.049,0,0,1,3.054,6.675,7.275,7.275,0,0,1-2.792,5.917,8.881,8.881,0,0,1,1.862,1.626,7.648,7.648,0,0,1,1.781,5.144,8.194,8.194,0,0,1-3.508,6.991A13.252,13.252,0,0,1,477.313,541.027Z"/>
          </g>
          <g id="组_288" data-name="组 288">
            <path id="路径_640" data-name="路径 640" class="cls-1" d="M477.171,511.527a10.682,10.682,0,0,1,6.769,1.95,6.587,6.587,0,0,1,2.481,5.495q0,4.18-4.358,5.954v.177a8.038,8.038,0,0,1,3.792,2.392,6.162,6.162,0,0,1,1.417,4.165,6.737,6.737,0,0,1-2.888,5.776,11.737,11.737,0,0,1-7.071,2.091,12.066,12.066,0,0,1-7.833-2.41q-1.454-1.344-.142-3.153a2.806,2.806,0,0,1,1.843-1.242,2.348,2.348,0,0,1,.3-.02,3.08,3.08,0,0,1,1.824.695,6.841,6.841,0,0,0,3.331.921,5.128,5.128,0,0,0,3.031-.8,2.641,2.641,0,0,0,1.116-2.286,3.348,3.348,0,0,0-.655-2.162,4.171,4.171,0,0,0-2.393-1.206,6.167,6.167,0,0,1-2.569-.85,1.9,1.9,0,0,1-.16-3.545,5.452,5.452,0,0,1,2.411-.886,3.115,3.115,0,0,0,2.516-3.153,2.764,2.764,0,0,0-.8-2.127,3.228,3.228,0,0,0-2.286-.744,5.424,5.424,0,0,0-2.552.673,3.175,3.175,0,0,1-1.842.7,2.7,2.7,0,0,1-2.056-1.128q-1.6-1.984.5-3.51a11.947,11.947,0,0,1,6.273-1.773m0-3a14.965,14.965,0,0,0-7.822,2.2l-.112.067-.106.077a5.421,5.421,0,0,0-2.379,3.683,5.357,5.357,0,0,0,1.311,4.131l.022.028.023.027a5.591,5.591,0,0,0,4.35,2.194,5.335,5.335,0,0,0,1.143-.125q-.12.074-.237.15a5.042,5.042,0,0,0-2.489,4.281,4.968,4.968,0,0,0,2.8,4.374,9.25,9.25,0,0,0,3.564,1.214,3.547,3.547,0,0,1,.534.173c.005.039.009.089.011.15a3.215,3.215,0,0,1-1.145.163,3.773,3.773,0,0,1-1.742-.472,5.909,5.909,0,0,0-3.413-1.144,5.392,5.392,0,0,0-.707.047,5.725,5.725,0,0,0-3.848,2.428c-1.794,2.47-1.59,5.2.514,7.143l.073.067.077.062a15.019,15.019,0,0,0,9.72,3.078,14.72,14.72,0,0,0,8.83-2.661,9.742,9.742,0,0,0,4.129-8.206,9.1,9.1,0,0,0-2.142-6.12,10.361,10.361,0,0,0-.738-.772,8.8,8.8,0,0,0,2.029-5.8,9.6,9.6,0,0,0-3.626-7.853,13.622,13.622,0,0,0-8.624-2.592Zm-1.327,11.289a2.348,2.348,0,0,1,1.008-.254h.061a1.45,1.45,0,0,1-.19.091,8.109,8.109,0,0,0-.94.2l.061-.041Z"/>
          </g>
        </g>
      </g>
    </g>
  </g>
</svg>
