<svg xmlns="http://www.w3.org/2000/svg" width="105.47" height="120.194" viewBox="0 0 105.47 120.194">
  <defs>
    <style>
      .cls-1 {
        fill: #fff;
      }

      .cls-2 {
        fill: #ffde78;
      }

      .cls-3 {
        fill: #d3cfcd;
      }

      .cls-4 {
        fill: #ffe0df;
      }

      .cls-5 {
        fill: #66c1ff;
      }

      .cls-6 {
        fill: #ff7a75;
      }

      .cls-7 {
        fill: #8a493c;
      }

      .cls-8 {
        fill: #bff836;
      }

      .cls-9 {
        fill: #ffe2c9;
      }

      .cls-10 {
        fill: #f84f4f;
      }

      .cls-11 {
        fill: #f8c34f;
      }

      .cls-12 {
        fill: #f8934f;
      }

      .cls-13 {
        fill: #683818;
      }

      .cls-14 {
        fill: #f9fbf8;
      }

      .cls-15 {
        fill: #b36339;
      }
    </style>
  </defs>
  <g id="组_306" data-name="组 306" transform="translate(-320.36 -358)">
    <circle id="椭圆_122" data-name="椭圆 122" class="cls-1" cx="52.735" cy="52.735" r="52.735" transform="translate(320.36 372.724)"/>
    <circle id="椭圆_123" data-name="椭圆 123" class="cls-2" cx="46.365" cy="46.365" r="46.365" transform="translate(326.731 379.094)"/>
    <g id="组_296" data-name="组 296">
      <g id="组_293" data-name="组 293">
        <path id="路径_641" data-name="路径 641" class="cls-3" d="M341.728,407.243v39.963a2.7,2.7,0,0,0,2.678,2.725h58.376a2.7,2.7,0,0,0,2.677-2.725V407.243a2.7,2.7,0,0,0-2.677-2.725H344.406A2.7,2.7,0,0,0,341.728,407.243Z"/>
        <rect id="矩形_52" data-name="矩形 52" class="cls-1" width="59.481" height="41.647" rx="2.499" transform="translate(343.853 406.401)"/>
        <rect id="矩形_53" data-name="矩形 53" class="cls-4" width="42.333" height="1.47" transform="translate(347.479 441.286)"/>
        <rect id="矩形_54" data-name="矩形 54" class="cls-4" width="20.774" height="1.47" transform="translate(347.479 437.073)"/>
        <rect id="矩形_55" data-name="矩形 55" class="cls-4" width="33.971" height="1.47" transform="translate(347.479 432.859)"/>
        <rect id="矩形_56" data-name="矩形 56" class="cls-4" width="16.985" height="3.724" transform="translate(347.479 426.392)"/>
        <rect id="矩形_57" data-name="矩形 57" class="cls-4" width="16.985" height="3.724" transform="translate(347.479 411.497)"/>
        <rect id="矩形_58" data-name="矩形 58" class="cls-4" width="48.506" height="1.568" transform="translate(347.479 417.801)"/>
        <rect id="矩形_59" data-name="矩形 59" class="cls-4" width="48.506" height="1.568" transform="translate(347.479 421.843)"/>
      </g>
      <g id="组_294" data-name="组 294">
        <path id="路径_642" data-name="路径 642" class="cls-5" d="M394.673,445.007a2.676,2.676,0,1,0,3.725.665A2.677,2.677,0,0,0,394.673,445.007Zm2.306,3.229a1.383,1.383,0,1,1,.343-1.928A1.385,1.385,0,0,1,396.979,448.236Z"/>
        <path id="路径_643" data-name="路径 643" class="cls-5" d="M399.734,441.255a2.7,2.7,0,1,0,3.756.669A2.7,2.7,0,0,0,399.734,441.255Zm2.4,3.328a1.383,1.383,0,1,1,.344-1.926A1.384,1.384,0,0,1,402.137,444.583Z"/>
        <path id="路径_644" data-name="路径 644" class="cls-3" d="M395.957,432.246l-.424,8.507-8.514-2.615a3.7,3.7,0,0,0,2.431,3.648c2.617.931,8.482,2.411,8.482,2.411l.537-9.315A3.382,3.382,0,0,0,395.957,432.246Zm1.105,10.7a.692.692,0,1,1,.172-.964A.692.692,0,0,1,397.062,442.947Z"/>
      </g>
      <path id="路径_645" data-name="路径 645" class="cls-5" d="M362.753,401.207v8.109h4.268v-8.109l-2.134,2.845Z"/>
      <path id="路径_646" data-name="路径 646" class="cls-6" d="M354.334,401.207v8.109H358.6v-8.109l-2.134,2.845Z"/>
      <g id="组_295" data-name="组 295">
        <path id="路径_647" data-name="路径 647" class="cls-7" d="M356.667,425.079h4.8l.034-.494h-3.527a.963.963,0,0,1,0-1.925h3.612l.017-.324a.166.166,0,0,0-.187-.188h-3.85a1.031,1.031,0,1,1,0-2.061h5.23a1.116,1.116,0,0,1,.826.315,1.044,1.044,0,0,1,.3.81q-.018,1.4-.188,3.867h.239a1.056,1.056,0,0,1,0,2.112h-.92l1.073.614a.924.924,0,0,1,.52.639,1.057,1.057,0,0,1-.231.827q-.2.271-.579.775c-.25.335-.408.548-.477.639q.8.527,1.431,1.039a.935.935,0,0,1,.41.69,1.332,1.332,0,0,1-.358.792,1.428,1.428,0,0,1-.759.6,1.024,1.024,0,0,1-.826-.358q-.7-.6-1.738-1.363v1.67a3.622,3.622,0,0,1-.179,1.278,1.3,1.3,0,0,1-.638.7,3.618,3.618,0,0,1-.793.263,3.494,3.494,0,0,1-.877.077,1.508,1.508,0,0,1-.784-.238,1.092,1.092,0,0,1-.46-.631.938.938,0,0,1,.1-.954,1.41,1.41,0,0,1,1.04-.272h.017a.39.39,0,0,0,.221-.069.263.263,0,0,0,.051-.187v-1.346l-1.976,1.363a.961.961,0,0,1-1.584-.425,1.337,1.337,0,0,1-.231-.895,1.025,1.025,0,0,1,.6-.622q1.466-.783,3.186-1.789v-2.812h-1.516c-.262,0-.3.1-.1.29a10.167,10.167,0,0,1,1.228,1.415.466.466,0,0,1,.067.391.642.642,0,0,1-.255.375l-.034.034q-1.294,1-2.181-.187a1.436,1.436,0,0,1-.332-1.108,1.79,1.79,0,0,1,.775-.937l.375-.273h-.58a1.056,1.056,0,1,1,0-2.112Zm4.976,4.464a21.158,21.158,0,0,0,1.209-1.993c.114-.239.034-.359-.238-.359h-1.091v2.267Zm3.833.409V422.3a1.167,1.167,0,0,1,2.334,0v7.65a1.167,1.167,0,0,1-2.334,0Zm5.759-8.86V433.24a4.2,4.2,0,0,1-.214,1.508,1.774,1.774,0,0,1-.724.86,3.82,3.82,0,0,1-.9.324,3.9,3.9,0,0,1-1.022.1,1.932,1.932,0,0,1-.929-.263,1.2,1.2,0,0,1-.554-.725q-.222-.784.136-1.124a1.739,1.739,0,0,1,1.244-.324h.17a.331.331,0,0,0,.375-.375V421.092a1.21,1.21,0,0,1,2.42,0Z"/>
        <path id="路径_648" data-name="路径 648" class="cls-7" d="M386.364,425.676h5.264a1.329,1.329,0,1,1,0,2.657h-5.264V434.7a1.38,1.38,0,0,1-2.76,0v-6.372h-5.18a1.329,1.329,0,0,1,0-2.657h5.18v-4.788a1.38,1.38,0,1,1,2.76,0Z"/>
      </g>
      <path id="路径_649" data-name="路径 649" class="cls-6" d="M336.906,427.954l-3.557,1.423,3.983,1Z"/>
      <path id="路径_650" data-name="路径 650" class="cls-5" d="M384.017,400.4l-1.209,1.849,3.414.356Z"/>
      <path id="路径_651" data-name="路径 651" class="cls-6" d="M376.639,450.948l-1.314,3.7h2.767Z"/>
      <path id="路径_652" data-name="路径 652" class="cls-8" d="M409.107,425.677l-1.352,2.134h3.557Z"/>
    </g>
    <g id="组_297" data-name="组 297">
      <path id="路径_653" data-name="路径 653" class="cls-9" d="M328.067,392.8l9.173-9.173a2.382,2.382,0,0,1,3.368,0l0,0,9.093,9.093-.178,10.506A1.8,1.8,0,0,1,347.77,405l-10.608.266-9.093-9.093a2.382,2.382,0,0,1,0-3.369l0,0Z"/>
      <path id="路径_654" data-name="路径 654" class="cls-10" d="M337.22,383.655a2.322,2.322,0,0,1,3.284,0l9.035,9.035a.175.175,0,0,1,.022.23l-.013.014a3.766,3.766,0,0,1-5.88.733l-8.23-8.23Z"/>
      <path id="路径_655" data-name="路径 655" class="cls-11" d="M329.655,391.125a.181.181,0,0,1,.254,0l7.75,7.751c1.678,1.677,2.059,4.04.382,5.717a4.151,4.151,0,0,1-.737.584.174.174,0,0,1-.23-.023l-8.914-8.914a2.561,2.561,0,0,1,0-3.623Z"/>
      <path id="路径_656" data-name="路径 656" class="cls-12" d="M335.318,385.462a.179.179,0,0,1,.255,0h0l7.751,7.751a4.033,4.033,0,0,1,.251,5.848,4.169,4.169,0,0,1-5.969-.13l-7.751-7.751a.193.193,0,0,1,0-.255Z"/>
      <path id="路径_657" data-name="路径 657" class="cls-13" d="M344.393,405.084l3.378-.085a1.8,1.8,0,0,0,1.755-1.77l.056-3.335Z"/>
      <path id="路径_658" data-name="路径 658" class="cls-14" d="M347.206,395.714a.965.965,0,0,1,1.364,1.364h0a.965.965,0,0,1-1.364-1.364Zm.817,3a.58.58,0,1,1-.005.824A.586.586,0,0,1,348.023,398.714Z"/>
    </g>
    <g id="组_305" data-name="组 305">
      <g id="组_304" data-name="组 304">
        <g id="组_300" data-name="组 300">
          <g id="组_298" data-name="组 298">
            <path id="路径_659" data-name="路径 659" class="cls-15" d="M358.482,390.5a4.2,4.2,0,1,1,0-8.4h1.734V369.149H358.63a3.387,3.387,0,0,1-3.6-3.7,3.818,3.818,0,0,1,.931-2.521,4.04,4.04,0,0,1,2.333-1.338,16.48,16.48,0,0,0,3.6-1.417,4.87,4.87,0,0,1,2.539-.67h1.617a3.706,3.706,0,0,1,3.852,3.852V382.1h.815a4.2,4.2,0,1,1,0,8.4Z"/>
          </g>
          <g id="组_299" data-name="组 299">
            <path id="路径_660" data-name="路径 660" class="cls-1" d="M366.052,361a2.212,2.212,0,0,1,2.352,2.351V383.6h2.315a2.7,2.7,0,1,1,0,5.4H358.482a2.7,2.7,0,1,1,0-5.4h3.234v-15.95H358.63q-2.094,0-2.1-2.2a2.3,2.3,0,0,1,.569-1.545,2.56,2.56,0,0,1,1.489-.843,17.894,17.894,0,0,0,4.042-1.582,3.373,3.373,0,0,1,1.8-.476h1.617m0-3h-1.617a6.35,6.35,0,0,0-3.269.859,14.972,14.972,0,0,1-3.24,1.273,5.57,5.57,0,0,0-3.1,1.812,5.3,5.3,0,0,0-1.3,3.5,4.876,4.876,0,0,0,5.1,5.2h.086v9.95h-.234a5.7,5.7,0,1,0,0,11.4h12.237a5.359,5.359,0,0,0,5.719-5.719,5.282,5.282,0,0,0-5.034-5.652V363.351A5.2,5.2,0,0,0,366.052,358Z"/>
          </g>
        </g>
        <g id="组_303" data-name="组 303">
          <g id="组_301" data-name="组 301">
            <path id="路径_661" data-name="路径 661" class="cls-15" d="M391.408,390.5a4.249,4.249,0,0,1-4.624-4.623v-2.359h-7.8a3.857,3.857,0,0,1-2.839-1.133,3.964,3.964,0,0,1-1.086-2.829v-1.248a4.59,4.59,0,0,1,.719-2.545l8.346-14.1a4.233,4.233,0,0,1,3.827-2.166h4.115a3.827,3.827,0,0,1,3.962,3.96v12.023a3.634,3.634,0,0,1,3.123,3.961c0,2.227-1.15,3.67-3.123,4v2.432A4.248,4.248,0,0,1,391.408,390.5Zm-4.624-15.089V373.3l-1.226,2.115Z"/>
          </g>
          <g id="组_302" data-name="组 302">
            <path id="路径_662" data-name="路径 662" class="cls-1" d="M392.069,361a2.334,2.334,0,0,1,2.462,2.46v13.451h.587a2.554,2.554,0,0,1,0,5.107h-.587v3.859q0,3.124-3.123,3.123t-3.124-3.123v-3.859h-9.3a2.348,2.348,0,0,1-1.764-.68,2.446,2.446,0,0,1-.662-1.782v-1.249a3.1,3.1,0,0,1,.478-1.727l8.378-14.149A2.757,2.757,0,0,1,387.954,361h4.115m-3.528,5.62h-.147q-1.287,2.907-2.241,4.779l-3.2,5.512h5.329V372.83q0-.034.257-6.21m3.528-8.62h-4.115a5.736,5.736,0,0,0-5.121,2.907l-8.35,14.1a6.079,6.079,0,0,0-.922,3.3v1.249a5.434,5.434,0,0,0,1.51,3.873,5.328,5.328,0,0,0,3.916,1.589h6.3v.859a6.124,6.124,0,0,0,12.247,0v-1.305a5.741,5.741,0,0,0,0-10.219V363.46a5.325,5.325,0,0,0-5.462-5.46Z"/>
          </g>
        </g>
      </g>
    </g>
  </g>
</svg>
