<svg xmlns="http://www.w3.org/2000/svg" width="106.144" height="122.296" viewBox="0 0 106.144 122.296">
  <defs>
    <style>
      .cls-1 {
        fill: #fff;
      }

      .cls-2 {
        fill: #ffde78;
      }

      .cls-3 {
        fill: #529af3;
      }

      .cls-4 {
        fill: #e9f7ff;
      }

      .cls-5 {
        fill: #bcc9e0;
      }

      .cls-6 {
        fill: #ffe2c9;
      }

      .cls-7 {
        fill: #f84f4f;
      }

      .cls-8 {
        fill: #f8c34f;
      }

      .cls-9 {
        fill: #f8934f;
      }

      .cls-10 {
        fill: #683818;
      }

      .cls-11 {
        fill: #f9fbf8;
      }

      .cls-12 {
        fill: #b36339;
      }
    </style>
  </defs>
  <g id="组_207" data-name="组 207" transform="translate(-769.092 -65.332)">
    <circle id="椭圆_102" data-name="椭圆 102" class="cls-1" cx="53.072" cy="53.072" r="53.072" transform="translate(769.092 81.484)"/>
    <circle id="椭圆_103" data-name="椭圆 103" class="cls-2" cx="46.661" cy="46.661" r="46.661" transform="translate(775.503 87.895)"/>
    <g id="组_200" data-name="组 200">
      <path id="路径_464" data-name="路径 464" class="cls-3" d="M801.389,108.786h41.878q5.235,0,5.235,5.234V155.9q0,5.235-5.235,5.235H801.389q-5.235,0-5.235-5.235V114.02Q796.154,108.785,801.389,108.786Z"/>
      <path id="路径_465" data-name="路径 465" class="cls-4" d="M801.389,111.4h41.878a2.314,2.314,0,0,1,2.618,2.617v7.853a2.314,2.314,0,0,1-2.618,2.617H801.389a2.314,2.314,0,0,1-2.618-2.617V114.02A2.314,2.314,0,0,1,801.389,111.4Z"/>
      <path id="路径_466" data-name="路径 466" class="cls-1" d="M792.948,132.441l5.92-1.84a.942.942,0,0,1,1.181.621l.08.257a.943.943,0,0,1-.621,1.181l-5.92,1.84a.943.943,0,0,1-1.181-.621l-.08-.257A.943.943,0,0,1,792.948,132.441Zm1.951-3.712.258-.08a.945.945,0,0,1,1.181.621l1.84,5.921a.943.943,0,0,1-.621,1.181h0l-.257.08a.944.944,0,0,1-1.181-.621h0l-1.841-5.921A.945.945,0,0,1,794.9,128.729Z"/>
      <path id="路径_467" data-name="路径 467" class="cls-5" d="M824.945,111.4h2.094l6.282,13.087h-2.094Z"/>
      <path id="路径_468" data-name="路径 468" class="cls-5" d="M830.18,111.4h7.329l6.282,13.087h-7.329Z"/>
      <path id="路径_469" data-name="路径 469" class="cls-1" d="M793.54,141.951l5.8,1.6a.817.817,0,0,1,.634,1.142l-.071.257a.817.817,0,0,1-1.13.655l-5.8-1.6a.816.816,0,0,1-.633-1.142l.071-.256A.816.816,0,0,1,793.54,141.951Z"/>
      <g id="组_198" data-name="组 198">
        <path id="路径_470" data-name="路径 470" class="cls-1" d="M807.169,132.059h2.2a.537.537,0,0,1,.5.291,2.28,2.28,0,0,1,.153,1.061q-.093,4.281-.219,5.917a5.264,5.264,0,0,1-.417,2.074,1.826,1.826,0,0,1-.736.69,3.5,3.5,0,0,1-1.173.212,1.012,1.012,0,0,1-.662-.206.838.838,0,0,1-.3-.536,4.974,4.974,0,0,0-.411-1.18,9.745,9.745,0,0,1-.583,1.206,1.256,1.256,0,0,1-.683.583q-.326.066-.762-.371a1.224,1.224,0,0,1-.4-.722,1.283,1.283,0,0,1,.3-.776,8.016,8.016,0,0,0,.954-2.663,22.994,22.994,0,0,0,.318-3.659h-.423a.961.961,0,1,1,0-1.921h.45v-1.193a.85.85,0,0,1,.954-.968.862.862,0,0,1,.968.981Q807.183,131.674,807.169,132.059Zm-.039,1.921a19.933,19.933,0,0,1-1.021,6.335c.415.036.787.054,1.114.054a.533.533,0,0,0,.464-.265q.3-.452.423-5.487a1.017,1.017,0,0,0-.066-.5.273.273,0,0,0-.252-.133Zm4.36-2.809H814.8a.845.845,0,0,1,.636.245.879.879,0,0,1,.239.643v8.416a.822.822,0,0,1-.875.875H811.49a.884.884,0,0,1-.643-.239.848.848,0,0,1-.245-.636v-8.416a.841.841,0,0,1,.888-.888Zm.993,2.226v5.726c0,.221.107.331.319.331h.583a.293.293,0,0,0,.332-.331V133.4a.294.294,0,0,0-.332-.331H812.8A.288.288,0,0,0,812.483,133.4Z"/>
        <path id="路径_471" data-name="路径 471" class="cls-1" d="M817.388,139.057q1.046-2.175,1.258-2.691.438-1.006,1.286-.318a.912.912,0,0,1,.3,1.14q-.556,1.444-1.153,2.77-.477,1.007-1.352.371A.869.869,0,0,1,817.388,139.057ZM820.9,131.9h4.758q0-.822-.012-1.259a.931.931,0,0,1,.257-.709,1.028,1.028,0,0,1,.737-.245.873.873,0,0,1,.635.218.777.777,0,0,1,.212.616v.027l.331-.239a.888.888,0,0,1,1.246.107q.77.7.053,1.285l-.251.2h.027q.754,0,.754.821a1,1,0,0,1-.231.7.847.847,0,0,1-.656.252h-1.273q.027,1.286.08,2.345l.239-.675a.791.791,0,0,1,1.033-.65q.863.186.61,1.087a14.751,14.751,0,0,1-1.551,3.393q.24,1.524.531,1.524c.061,0,.119-.106.172-.318a2.3,2.3,0,0,1,.311-1.073q.244-.358.683-.014a1.037,1.037,0,0,1,.292.709,2.651,2.651,0,0,1,0,.842,2.557,2.557,0,0,1-.551,1.385,1.6,1.6,0,0,1-1.119.338q-1.047,0-1.631-1.67a10.6,10.6,0,0,1-1.312,1.193.887.887,0,0,1-1.259-.067q-.4-.411-.331-.715a1.137,1.137,0,0,1,.57-.623,10.416,10.416,0,0,0,.888-.743h-1.6a.847.847,0,0,1-.637-.245.884.884,0,0,1-.238-.642v-2.041a.82.82,0,0,1,.875-.875h1.113a.882.882,0,0,1,.643.238.851.851,0,0,1,.245.637v2.518q.318-.358.57-.689a46.974,46.974,0,0,1-.411-5.169H822.7q-.332,0-.331.318v1.087a15.482,15.482,0,0,1-1.113,6.507,1.112,1.112,0,0,1-.511.517.805.805,0,0,1-.669-.159.907.907,0,0,1-.252-1.365,14.173,14.173,0,0,0,.848-5.514v-2.558l-.715.676a.809.809,0,0,1-.616.246.649.649,0,0,1-.485-.325q-.382-.49-.662-.782A.9.9,0,1,1,819.415,131a7.216,7.216,0,0,1,1.259,1.444v-.3C820.674,131.979,820.749,131.9,820.9,131.9Zm2.493,2.292h1.378a.71.71,0,1,1,0,1.419h-1.378a.71.71,0,0,1,0-1.419Zm.423,3.579v.557a.176.176,0,0,0,.2.2h.358v-.7a.259.259,0,0,0-.292-.292h-.039C823.891,137.532,823.815,137.612,823.815,137.771Zm4.228-6.388a5.478,5.478,0,0,0-.557-.5c0,.124,0,.3-.007.517s-.005.389-.005.5h.7q.423,0-.107-.491Z"/>
        <path id="路径_472" data-name="路径 472" class="cls-1" d="M833.039,133.941c.045.026.12.064.226.112s.18.087.225.113a.774.774,0,0,1,.226,1.246,1.168,1.168,0,0,1-.623.53.957.957,0,0,1-.756-.225c-.354-.2-.6-.341-.729-.411q-.954-.477-.384-1.312a.872.872,0,0,1,1.113-.385c.07.036.185.091.345.166S832.96,133.906,833.039,133.941Zm-1.59,6.428q.08-.147.6-1.054t.775-1.4q.49-1.007,1.365-.265a.933.933,0,0,1,.266,1.232q-.77,1.617-1.272,2.532a.833.833,0,0,1-1.418.3A.915.915,0,0,1,831.449,140.369Zm1.63-8.3c-.088-.053-.217-.13-.384-.232s-.283-.174-.344-.218q-.9-.451-.292-1.286a.854.854,0,0,1,1.1-.345,10.975,10.975,0,0,1,1.206.636.848.848,0,0,1,.405.55.958.958,0,0,1-.247.656A.894.894,0,0,1,833.079,132.072Zm9.251,4.784h-3.6c.1.036.145.062.145.08q-.756,1.935-1.286,3.035c.2-.009.635-.035,1.293-.079s1.173-.076,1.544-.093c-.035-.053-.089-.131-.159-.232s-.124-.179-.159-.232q-.61-.836.344-1.365a.9.9,0,0,1,1.259.265,15.914,15.914,0,0,1,1.617,2.558.926.926,0,0,1,.027.715,1.378,1.378,0,0,1-.571.517q-1.007.57-1.391-.463l-.013-.014v-.013q-2.6.238-5.792.49a.769.769,0,0,1-.676-.2,1.384,1.384,0,0,1-.278-.743c-.079-.653.189-.994.808-1.02h.027a19.111,19.111,0,0,0,1.087-3.208h-1.114a.934.934,0,1,1,0-1.868h2.373v-1.617H836.1a.935.935,0,0,1,0-1.869h1.71v-.795a1.021,1.021,0,0,1,2.041,0v.795h1.829a.935.935,0,1,1,0,1.869h-1.829v1.617h2.478a.934.934,0,1,1,0,1.868Z"/>
      </g>
      <g id="组_199" data-name="组 199">
        <path id="路径_473" data-name="路径 473" class="cls-1" d="M813.731,146.813h2.445a.6.6,0,0,1,.561.324,2.585,2.585,0,0,1,.168,1.17q-.093,3.706-.243,5.189a4.317,4.317,0,0,1-.486,1.922,1.747,1.747,0,0,1-.539.522,2.382,2.382,0,0,1-.7.231,6.823,6.823,0,0,1-1.113.058.843.843,0,0,1-.915-.7.858.858,0,0,1-.035-.092c-.016-.046-.026-.081-.034-.1q-.186-.371-.024-.561a.805.805,0,0,1,.661-.168q.335.012.764.012a.672.672,0,0,0,.51-.209,3.285,3.285,0,0,0,.37-1.523q.128-1.257.2-3.979a.882.882,0,0,0-.051-.422.229.229,0,0,0-.215-.111h-1.946q-.221.475-.59,1.136a.657.657,0,0,1-.458.324.7.7,0,0,1-.562-.174,2.035,2.035,0,0,1-.18-.127c-.081-.062-.14-.1-.179-.128v4.877a.736.736,0,0,1-.776.776h-3.069a.745.745,0,0,1-.557-.215.773.773,0,0,1-.208-.561v-6.579a.775.775,0,0,1,.208-.562.744.744,0,0,1,.557-.214h.567q.14-.73.174-.973.081-.949,1-.823.961.129.614,1.147c-.016.047-.05.147-.1.3s-.1.271-.128.348h.95a.735.735,0,0,1,.776.776v.811a11.615,11.615,0,0,0,1.158-2.653.788.788,0,0,1,1.043-.637.715.715,0,0,1,.6,1.02c-.023.061-.058.156-.1.283S813.755,146.751,813.731,146.813Zm-5.664,1.9v1.321h1.541v-1.321a.256.256,0,0,0-.29-.289h-.972A.251.251,0,0,0,808.067,148.712Zm0,2.8v1.749c0,.194.093.29.279.29h.972a.256.256,0,0,0,.29-.29v-1.749Zm5.028.892c-.093-.17-.229-.407-.406-.712s-.3-.508-.359-.608a.669.669,0,0,1,.3-1.043.687.687,0,0,1,1.043.232q.172.255.9,1.413a.75.75,0,0,1,.1.579,1,1,0,0,1-.429.44A.7.7,0,0,1,813.095,152.407Z"/>
        <path id="路径_474" data-name="路径 474" class="cls-1" d="M820.473,154.341a4.379,4.379,0,0,1-.834,1.3.74.74,0,0,1-.985.058q-.8-.569-.081-1.217a3.835,3.835,0,0,0,.429-.625.746.746,0,0,1,1.042-.463A.642.642,0,0,1,820.473,154.341Zm7.505-5.605h-8.965a.661.661,0,0,1,0-1.321h1.715l-.174-.556h-.95a.655.655,0,0,1,0-1.309h3.011v-.023a.436.436,0,0,1,.279-.388,1.236,1.236,0,0,1,1.158,0,.437.437,0,0,1,.277.388v.023h3.012a.655.655,0,0,1,0,1.309H826.6c-.032.047-.072.11-.122.191s-.1.151-.139.209-.079.11-.11.156h1.749a.661.661,0,0,1,0,1.321Zm-7.656.405h6.486a.717.717,0,0,1,.764.764v2.189a.718.718,0,0,1-.764.765h-2.746a.49.49,0,0,1,.1.058.542.542,0,0,0,.1.058.553.553,0,0,1,.117.973.692.692,0,0,1-1,.127c-.387-.232-.668-.39-.846-.475v.811c0,.162.034.262.1.3a1.237,1.237,0,0,0,.487.058h1.378a1.023,1.023,0,0,1,1.332-.544q.59.209.382,1.181a1.1,1.1,0,0,1-.562.573,2.645,2.645,0,0,1-1.014.157h-1.725a2.6,2.6,0,0,1-1.627-.359,1.739,1.739,0,0,1-.411-1.344v-.591a.477.477,0,0,1,.509-.509h.661l.486-.475h-2.224a.768.768,0,0,1-.562-.209.739.739,0,0,1-.214-.556V149.9a.737.737,0,0,1,.214-.555A.768.768,0,0,1,820.322,149.141Zm5.42,1.019h-4.3c-.193,0-.289.093-.289.278v.081h4.726v-.22A.124.124,0,0,0,825.742,150.16Zm.14,1.32h-4.726v.221c0,.092.05.139.151.139h4.285c.193,0,.29-.093.29-.278Zm-1.148-4.621h-2.478c.085.247.142.433.174.556h2.142l-.057-.011c.023-.062.063-.162.122-.3S824.727,146.882,824.734,146.859Zm2.537,8.409c-.247-.34-.486-.644-.718-.915q-.591-.638.2-1.089a.734.734,0,0,1,.961.116,10.065,10.065,0,0,1,1.019,1.182.7.7,0,0,1,.134.567.914.914,0,0,1-.434.429A.76.76,0,0,1,827.271,155.268Z"/>
        <path id="路径_475" data-name="路径 475" class="cls-1" d="M839.966,147.323a15.341,15.341,0,0,1-3.2,5.408,11.923,11.923,0,0,0,2.883,1.495,1.364,1.364,0,0,1,.858.515q.174.319-.2.863a1.1,1.1,0,0,1-1.332.347,12.548,12.548,0,0,1-3.637-1.957,14.2,14.2,0,0,1-3.845,2.05.943.943,0,0,1-1.239-.382q-.51-.881.636-1.228a12.506,12.506,0,0,0,3.151-1.644,15,15,0,0,1-2.838-4.7.936.936,0,0,1-.022-.707.747.747,0,0,1,.532-.428.779.779,0,0,1,1.077.579,11.555,11.555,0,0,0,2.618,4.077,12.1,12.1,0,0,0,2.8-4.795.836.836,0,0,1,1.17-.66A.786.786,0,0,1,839.966,147.323Zm-5.212.359q-.3-.741-.6-1.425-.383-.764.475-1.054a.731.731,0,0,1,1,.394q.441.881.73,1.587a.777.777,0,0,1,.023.613.909.909,0,0,1-.51.371A.748.748,0,0,1,834.754,147.682Z"/>
      </g>
    </g>
    <g id="组_201" data-name="组 201">
      <path id="路径_476" data-name="路径 476" class="cls-6" d="M776.847,101.659l9.232-9.232a2.4,2.4,0,0,1,3.39,0l0,0,9.151,9.151-.179,10.573a1.811,1.811,0,0,1-1.766,1.781L786,114.2l-9.152-9.151a2.4,2.4,0,0,1,0-3.39l0,0Z"/>
      <path id="路径_477" data-name="路径 477" class="cls-7" d="M786.059,92.453a2.338,2.338,0,0,1,3.3,0l9.093,9.093a.176.176,0,0,1,.022.232l-.013.013a3.79,3.79,0,0,1-5.918.738l-8.282-8.283Z"/>
      <path id="路径_478" data-name="路径 478" class="cls-8" d="M778.445,99.971a.181.181,0,0,1,.256,0l7.8,7.8c1.688,1.688,2.072,4.066.384,5.754a4.2,4.2,0,0,1-.741.587.175.175,0,0,1-.232-.023l-8.971-8.97a2.579,2.579,0,0,1,0-3.647Z"/>
      <path id="路径_479" data-name="路径 479" class="cls-9" d="M784.145,94.271a.182.182,0,0,1,.257,0h0l7.8,7.8a4.058,4.058,0,0,1,.252,5.885,4.2,4.2,0,0,1-6.007-.13l-7.8-7.8a.192.192,0,0,1,0-.256Z"/>
      <path id="路径_480" data-name="路径 480" class="cls-10" d="M793.277,114.018l3.4-.085a1.811,1.811,0,0,0,1.766-1.781l.056-3.356Z"/>
      <path id="路径_481" data-name="路径 481" class="cls-11" d="M796.108,104.589a.971.971,0,0,1,1.373,1.372h0a.971.971,0,0,1-1.373-1.372Zm.824,3.02a.582.582,0,1,1-.006.829A.59.59,0,0,1,796.932,107.609Z"/>
    </g>
    <g id="组_206" data-name="组 206">
      <g id="组_205" data-name="组 205">
        <g id="组_204" data-name="组 204">
          <g id="组_202" data-name="组 202">
            <path id="路径_482" data-name="路径 482" class="cls-12" d="M821.634,98.136a14.65,14.65,0,0,1-8.995-2.78,3.642,3.642,0,0,1-.579-5.317,4.073,4.073,0,0,1,3.34-1.963,4.509,4.509,0,0,1,2.652.972,5.868,5.868,0,0,0,2.6.726,3.008,3.008,0,0,0,2.185-.69,2.859,2.859,0,0,0,.691-2.15,2.894,2.894,0,0,0-.679-2.121,2.5,2.5,0,0,0-1.9-.683,4.832,4.832,0,0,0-1.576.275,4.861,4.861,0,0,1-2.278.605,4.476,4.476,0,0,1-4.391-4.6l.511-9.784a4.02,4.02,0,0,1,1.2-2.712,3.887,3.887,0,0,1,2.776-1.081h10.5a3.926,3.926,0,0,1,4.273,4.273,3.925,3.925,0,0,1-4.273,4.271h-5.77l-.1,1.21a8.422,8.422,0,0,1,1.207-.088,10.3,10.3,0,0,1,7.213,2.638c1.946,1.785,2.931,4.36,2.931,7.652a10.721,10.721,0,0,1-3.408,8.293A11.661,11.661,0,0,1,821.634,98.136Z"/>
          </g>
          <g id="组_203" data-name="组 203">
            <path id="路径_483" data-name="路径 483" class="cls-1" d="M827.687,68.332a2.772,2.772,0,1,1,0,5.544h-7.148l-.4,4.705A7.923,7.923,0,0,1,823.02,78a8.819,8.819,0,0,1,6.2,2.243q2.442,2.243,2.444,6.547a9.248,9.248,0,0,1-2.919,7.185,10.164,10.164,0,0,1-7.111,2.663,13.137,13.137,0,0,1-8.1-2.481q-1.608-1.347-.256-3.246a2.663,2.663,0,0,1,2.119-1.333,3.129,3.129,0,0,1,1.856.749,7.4,7.4,0,0,0,3.393.949,4.448,4.448,0,0,0,3.228-1.113,5.1,5.1,0,0,0,.037-6.4,3.986,3.986,0,0,0-2.974-1.131,6.3,6.3,0,0,0-2.188.4,3.433,3.433,0,0,1-1.666.479,2.978,2.978,0,0,1-2.892-3.033l.51-9.773a2.535,2.535,0,0,1,.748-1.715,2.375,2.375,0,0,1,1.731-.657h10.5m0-3h-10.5a5.359,5.359,0,0,0-3.825,1.509,5.525,5.525,0,0,0-1.647,3.659l-.513,9.821a5.974,5.974,0,0,0,5.888,6.189,6.314,6.314,0,0,0,2.864-.719,3.222,3.222,0,0,1,.99-.161c.6,0,.768.166.838.238a1.846,1.846,0,0,1,.246,1.066,1.748,1.748,0,0,1-.236,1.074,1.8,1.8,0,0,1-1.139.266,4.29,4.29,0,0,1-1.82-.515,5.913,5.913,0,0,0-3.429-1.183,5.5,5.5,0,0,0-4.555,2.583,5.126,5.126,0,0,0,.765,7.3l.063.053.067.05a16.12,16.12,0,0,0,9.894,3.079,13.119,13.119,0,0,0,9.134-3.448,12.165,12.165,0,0,0,3.9-9.4c0-3.73-1.149-6.676-3.415-8.757a11.4,11.4,0,0,0-1.818-1.363,5.328,5.328,0,0,0,4.029-5.563,5.41,5.41,0,0,0-5.773-5.773Z"/>
          </g>
        </g>
      </g>
    </g>
  </g>
</svg>
