<svg xmlns="http://www.w3.org/2000/svg" width="105.843" height="121.639" viewBox="0 0 105.843 121.639">
  <defs>
    <style>
      .cls-1 {
        fill: #fff;
      }

      .cls-2 {
        fill: #ffde78;
      }

      .cls-3 {
        fill: #b0c6ff;
      }

      .cls-4 {
        fill: #4697f4;
      }

      .cls-5 {
        fill: #ffb566;
      }

      .cls-6 {
        fill: #48dbb2;
      }

      .cls-7 {
        fill: #ffe2c9;
      }

      .cls-8 {
        fill: #f84f4f;
      }

      .cls-9 {
        fill: #f8c34f;
      }

      .cls-10 {
        fill: #f8934f;
      }

      .cls-11 {
        fill: #683818;
      }

      .cls-12 {
        fill: #f9fbf8;
      }

      .cls-13 {
        fill: #b36339;
      }
    </style>
  </defs>
  <g id="组_223" data-name="组 223" transform="translate(-1109.986 -193.084)">
    <circle id="椭圆_107" data-name="椭圆 107" class="cls-1" cx="52.921" cy="52.921" r="52.921" transform="translate(1109.986 208.88)"/>
    <circle id="椭圆_108" data-name="椭圆 108" class="cls-2" cx="46.529" cy="46.529" r="46.529" transform="translate(1116.378 215.273)"/>
    <g id="组_216" data-name="组 216">
      <path id="路径_507" data-name="路径 507" class="cls-3" d="M1170.569,243.081h5.5V259.7h-5.5Z"/>
      <path id="路径_508" data-name="路径 508" class="cls-3" d="M1149.857,243.081h5.5V259.7h-5.5Z"/>
      <path id="路径_509" data-name="路径 509" class="cls-4" d="M1144.349,243.081h37.231v7.1h-37.231Z"/>
      <path id="路径_510" data-name="路径 510" class="cls-5" d="M1144.349,243.039l18.594-18.594,18.631,18.636Z"/>
      <path id="路径_511" data-name="路径 511" class="cls-1" d="M1168.176,291.764h28.3V259.7h-67.033v32.066h28.3"/>
      <path id="路径_512" data-name="路径 512" class="cls-6" d="M1130.972,260.923v29.446h27.012a4.983,4.983,0,0,1,9.955,0h27.012V260.923Z"/>
      <g id="组_215" data-name="组 215">
        <path id="路径_513" data-name="路径 513" class="cls-1" d="M1138.781,275.228V278.2a3.874,3.874,0,0,1-.139,1.155,1.254,1.254,0,0,1-.491.665,2.51,2.51,0,0,1-1.007.364,1.47,1.47,0,0,1-.889-.217,1.112,1.112,0,0,1-.5-.707.866.866,0,0,1,.084-.77.846.846,0,0,1,.727-.252h.015c.148,0,.224-.084.224-.252v-2.408q-1.134.378-1.358-.686a.876.876,0,0,1,.756-1.189c.121-.038.321-.084.6-.14v-2.212h-.378a.848.848,0,0,1-.952-.966.835.835,0,0,1,.952-.937h.378v-1.624a.987.987,0,0,1,1.973,0v1.624h.113a.828.828,0,0,1,.937.937.841.841,0,0,1-.937.966h-.113v1.722h.042q.8-.21.939.7a.921.921,0,0,1-.687,1.176Zm6.272,4.325V275.62h-1.3a7.8,7.8,0,0,1-1.764,4.3q-.84.8-1.5.1-.756-.785.239-1.708a5.347,5.347,0,0,0,1.007-2.687h-.714a.879.879,0,0,1-.98-1.008.866.866,0,0,1,.98-.98h.812v-1.848h-.378a.98.98,0,0,1,0-1.96h.574q-.1-.321-.476-1.189a.834.834,0,0,1,.5-1.316.907.907,0,0,1,1.232.433q.336.618.462.9a.778.778,0,0,1-.008.623.844.844,0,0,1-.5.427l-.309.126h2.157a16.653,16.653,0,0,0,.756-1.763,1,1,0,0,1,1.427-.756q1.148.378.5,1.526-.1.182-.294.518c-.131.223-.224.382-.28.475h.112a.98.98,0,0,1,0,1.96h-.238v1.848h.532a.872.872,0,0,1,.994.98.885.885,0,0,1-.994,1.008h-.532v3.933a1.015,1.015,0,1,1-2.029,0Zm-1.218-7.769v1.848h1.218v-1.848Z"/>
        <path id="路径_514" data-name="路径 514" class="cls-1" d="M1153.115,275.228V278.2a3.874,3.874,0,0,1-.139,1.155,1.254,1.254,0,0,1-.491.665,2.51,2.51,0,0,1-1.007.364,1.47,1.47,0,0,1-.889-.217,1.112,1.112,0,0,1-.5-.707.866.866,0,0,1,.084-.77.846.846,0,0,1,.727-.252h.015c.148,0,.224-.084.224-.252v-2.408q-1.134.378-1.358-.686a.876.876,0,0,1,.756-1.189c.121-.038.321-.084.6-.14v-2.212h-.378a.848.848,0,0,1-.952-.966.835.835,0,0,1,.952-.937h.378v-1.624a.987.987,0,0,1,1.973,0v1.624h.113a.828.828,0,0,1,.937.937.841.841,0,0,1-.937.966h-.113v1.722h.042q.8-.21.939.7a.921.921,0,0,1-.687,1.176Zm6.272,4.325V275.62h-1.3a7.8,7.8,0,0,1-1.764,4.3q-.84.8-1.5.1-.756-.785.239-1.708a5.347,5.347,0,0,0,1.007-2.687h-.714a.879.879,0,0,1-.98-1.008.866.866,0,0,1,.98-.98h.812v-1.848h-.378a.98.98,0,0,1,0-1.96h.574q-.1-.321-.476-1.189a.834.834,0,0,1,.5-1.316.907.907,0,0,1,1.232.433q.336.618.462.9a.778.778,0,0,1-.008.623.844.844,0,0,1-.5.427l-.309.126h2.157a16.677,16.677,0,0,0,.756-1.763,1,1,0,0,1,1.427-.756q1.147.378.5,1.526-.1.182-.294.518c-.131.223-.224.382-.28.475h.112a.98.98,0,0,1,0,1.96h-.238v1.848h.532a.872.872,0,0,1,.994.98.885.885,0,0,1-.994,1.008h-.532v3.933a1.015,1.015,0,1,1-2.029,0Zm-1.218-7.769v1.848h1.218v-1.848Z"/>
        <path id="路径_515" data-name="路径 515" class="cls-1" d="M1174.687,275.326h-3.318a.651.651,0,0,1-.7-.7v-.042c-.43.318-.756.546-.98.687a.928.928,0,0,1-.728.105.857.857,0,0,1-.518-.5l-.042-.084a.293.293,0,0,0-.042-.069l-.658.21v3.415a4.06,4.06,0,0,1-.139,1.2,1.211,1.211,0,0,1-.519.665,2.409,2.409,0,0,1-.924.329,1.781,1.781,0,0,1-.986-.126.99.99,0,0,1-.6-.693.92.92,0,0,1,.077-.854,1.057,1.057,0,0,1,.847-.252h.014c.176,0,.265-.093.265-.28v-2.814l-.378.1a.864.864,0,0,1-1.245-.728.886.886,0,0,1,.728-1.2c.1-.019.26-.054.475-.1s.355-.086.42-.105v-1.932h-.573a.848.848,0,0,1-.952-.966.835.835,0,0,1,.952-.937h.573V268a.98.98,0,0,1,1.96,0v1.639h.028q.9,0,.9.937,0,.966-.9.966h-.028v1.428l.477-.126a.354.354,0,0,1,.294.042.328.328,0,0,1,.139.266l.071.49a8.708,8.708,0,0,0,2.813-2.632h-.756a.606.606,0,0,1-.658-.658v-.392h-.574a.875.875,0,1,1,0-1.75h.574v-.252a.951.951,0,0,1,1.9,0v.252h1.834v-.237a.86.86,0,0,1,.98-.966.848.848,0,0,1,.952.966v.237h.63a.875.875,0,1,1,0,1.75h-.63v.6a.452.452,0,0,1-.5.518h-1.162a9.042,9.042,0,0,0,2.464,2.114,1.352,1.352,0,0,1,.721.609,1.082,1.082,0,0,1-.175.889.9.9,0,0,1-1.4.322c-.233-.149-.458-.309-.672-.476v.448A.3.3,0,0,1,1174.687,275.326Zm-4.284.714h4.941a.867.867,0,0,1,.924.923v2.3a.933.933,0,0,1-.252.679.9.9,0,0,1-.672.259H1170.4a.9.9,0,0,1-.672-.259.933.933,0,0,1-.252-.679v-2.3a.867.867,0,0,1,.924-.923Zm1.274,2.533h2.309a.309.309,0,0,0,.35-.35V278a.309.309,0,0,0-.35-.35h-2.309a.309.309,0,0,0-.35.35v.224A.309.309,0,0,0,1171.677,278.573Zm1.666-5.543c-.131-.149-.314-.383-.546-.7a6.345,6.345,0,0,1-.9,1.12c-.176.177-.149.266.084.266h1.695c.223,0,.252-.084.084-.252C1173.566,273.268,1173.427,273.123,1173.343,273.03Zm.084-2.478a.616.616,0,0,1,.391.224v-.812h-1.834v.588Z"/>
        <path id="路径_516" data-name="路径 516" class="cls-1" d="M1189.021,275.326H1185.7a.651.651,0,0,1-.7-.7v-.042c-.43.318-.756.546-.98.687a.928.928,0,0,1-.728.105.857.857,0,0,1-.518-.5l-.042-.084a.293.293,0,0,0-.042-.069l-.658.21v3.415a4.06,4.06,0,0,1-.139,1.2,1.211,1.211,0,0,1-.519.665,2.409,2.409,0,0,1-.924.329,1.781,1.781,0,0,1-.986-.126.991.991,0,0,1-.6-.693.92.92,0,0,1,.077-.854,1.057,1.057,0,0,1,.847-.252h.014c.176,0,.265-.093.265-.28v-2.814l-.378.1a.864.864,0,0,1-1.245-.728.886.886,0,0,1,.728-1.2c.1-.019.26-.054.475-.1s.355-.086.42-.105v-1.932h-.573a.847.847,0,0,1-.952-.966.835.835,0,0,1,.952-.937h.573V268a.98.98,0,0,1,1.96,0v1.639h.028q.9,0,.9.937,0,.966-.9.966h-.028v1.428l.477-.126a.354.354,0,0,1,.294.042.328.328,0,0,1,.139.266l.071.49a8.708,8.708,0,0,0,2.813-2.632h-.756a.606.606,0,0,1-.658-.658v-.392h-.574a.875.875,0,1,1,0-1.75h.574v-.252a.951.951,0,0,1,1.9,0v.252h1.834v-.237a.86.86,0,0,1,.98-.966.848.848,0,0,1,.952.966v.237h.63a.875.875,0,1,1,0,1.75h-.63v.6a.452.452,0,0,1-.5.518h-1.162a9.042,9.042,0,0,0,2.464,2.114,1.351,1.351,0,0,1,.721.609,1.082,1.082,0,0,1-.175.889.9.9,0,0,1-1.4.322c-.233-.149-.458-.309-.672-.476v.448A.3.3,0,0,1,1189.021,275.326Zm-4.284.714h4.941a.867.867,0,0,1,.924.923v2.3a.933.933,0,0,1-.252.679.9.9,0,0,1-.672.259h-4.941a.9.9,0,0,1-.672-.259.933.933,0,0,1-.252-.679v-2.3a.867.867,0,0,1,.924-.923Zm1.274,2.533h2.309a.309.309,0,0,0,.35-.35V278a.309.309,0,0,0-.35-.35h-2.309a.309.309,0,0,0-.35.35v.224A.309.309,0,0,0,1186.011,278.573Zm1.666-5.543c-.131-.149-.314-.383-.546-.7a6.345,6.345,0,0,1-.9,1.12c-.176.177-.149.266.084.266h1.695c.223,0,.252-.084.084-.252C1187.9,273.268,1187.761,273.123,1187.677,273.03Zm.084-2.478a.616.616,0,0,1,.391.224v-.812h-1.834v.588Z"/>
      </g>
    </g>
    <g id="组_217" data-name="组 217">
      <path id="路径_517" data-name="路径 517" class="cls-7" d="M1117.719,229.012l9.2-9.206a2.392,2.392,0,0,1,3.381,0l0,0,9.125,9.126-.179,10.543a1.806,1.806,0,0,1-1.761,1.775l-10.646.267-9.125-9.125a2.391,2.391,0,0,1,0-3.38l0,0Z"/>
      <path id="路径_518" data-name="路径 518" class="cls-8" d="M1126.905,219.832a2.33,2.33,0,0,1,3.295,0l9.067,9.067a.175.175,0,0,1,.023.231l-.014.014a3.777,3.777,0,0,1-5.9.735l-8.258-8.259Z"/>
      <path id="路径_519" data-name="路径 519" class="cls-9" d="M1119.313,227.329a.179.179,0,0,1,.254,0l7.779,7.778c1.683,1.683,2.065,4.054.382,5.737a4.1,4.1,0,0,1-.739.586.175.175,0,0,1-.231-.023l-8.945-8.945a2.572,2.572,0,0,1,0-3.637Z"/>
      <path id="路径_520" data-name="路径 520" class="cls-10" d="M1125,221.645a.182.182,0,0,1,.256,0h0l7.778,7.779a4.047,4.047,0,0,1,.252,5.868,4.184,4.184,0,0,1-5.99-.13l-7.779-7.778a.2.2,0,0,1,0-.256Z"/>
      <path id="路径_521" data-name="路径 521" class="cls-11" d="M1134.1,241.336l3.39-.085a1.806,1.806,0,0,0,1.761-1.775l.057-3.348Z"/>
      <path id="路径_522" data-name="路径 522" class="cls-12" d="M1136.926,231.933a.968.968,0,1,1,1.368,1.369h0a.968.968,0,0,1-1.368-1.369Zm.82,3.012a.581.581,0,1,1-.005.827A.588.588,0,0,1,1137.746,234.945Z"/>
    </g>
    <g id="组_222" data-name="组 222">
      <g id="组_221" data-name="组 221">
        <g id="组_220" data-name="组 220">
          <g id="组_218" data-name="组 218">
            <path id="路径_523" data-name="路径 523" class="cls-13" d="M1161.69,225.317a4.427,4.427,0,0,1-3.669-1.608,5.269,5.269,0,0,1-.991-3.84,41.237,41.237,0,0,1,2.18-10.034,35.768,35.768,0,0,1,3.373-6.719h-6.351a4.267,4.267,0,1,1,0-8.533h13.83a3.833,3.833,0,0,1,2.822,1.129,3.937,3.937,0,0,1,1.081,2.811v.437a5.008,5.008,0,0,1-1.2,3.157,26.076,26.076,0,0,0-4.515,7.933,40.7,40.7,0,0,0-1.6,9.923,6.074,6.074,0,0,1-1.34,3.669A4.528,4.528,0,0,1,1161.69,225.317Z"/>
          </g>
          <g id="组_219" data-name="组 219">
            <path id="路径_524" data-name="路径 524" class="cls-1" d="M1170.062,196.084a2.316,2.316,0,0,1,1.745.674,2.418,2.418,0,0,1,.657,1.765v.437a3.543,3.543,0,0,1-.873,2.22,27.418,27.418,0,0,0-4.769,8.407,41.892,41.892,0,0,0-1.673,10.3,4.6,4.6,0,0,1-1,2.8,3.019,3.019,0,0,1-2.457,1.128,2.981,2.981,0,0,1-2.492-1.037,3.822,3.822,0,0,1-.673-2.785,39.492,39.492,0,0,1,2.093-9.644,37.014,37.014,0,0,1,4.784-8.735h-9.17a2.766,2.766,0,1,1,0-5.532h13.83m0-3h-13.83a5.766,5.766,0,1,0,0,11.532h3.726a34.578,34.578,0,0,0-2.157,4.7,42.667,42.667,0,0,0-2.261,10.376,6.758,6.758,0,0,0,1.307,4.948,5.871,5.871,0,0,0,4.843,2.174,5.982,5.982,0,0,0,4.776-2.225,7.557,7.557,0,0,0,1.68-4.571,39.068,39.068,0,0,1,1.529-9.508,24.615,24.615,0,0,1,4.267-7.47,6.458,6.458,0,0,0,1.522-4.083v-.437a5.4,5.4,0,0,0-1.511-3.862,5.284,5.284,0,0,0-3.891-1.577Z"/>
          </g>
        </g>
      </g>
    </g>
  </g>
</svg>
