<svg xmlns="http://www.w3.org/2000/svg" width="105.048" height="120.048" viewBox="0 0 105.048 120.048">
  <defs>
    <style>
      .cls-1 {
        fill: #fff;
      }

      .cls-2 {
        fill: #ffde78;
      }

      .cls-3 {
        fill: #ff893b;
      }

      .cls-4 {
        fill: #ffd236;
      }

      .cls-5 {
        fill: #ffeeb2;
      }

      .cls-6 {
        fill: #ffc600;
      }

      .cls-7 {
        opacity: 0.5;
      }

      .cls-8 {
        fill: #ff8a36;
      }

      .cls-9 {
        fill: #ffe2c9;
      }

      .cls-10 {
        fill: #f84f4f;
      }

      .cls-11 {
        fill: #f8c34f;
      }

      .cls-12 {
        fill: #f8934f;
      }

      .cls-13 {
        fill: #683818;
      }

      .cls-14 {
        fill: #f9fbf8;
      }

      .cls-15 {
        fill: #b36339;
      }
    </style>
  </defs>
  <g id="组_278" data-name="组 278" transform="translate(-580.844 -437.795)">
    <circle id="椭圆_117" data-name="椭圆 117" class="cls-1" cx="52.524" cy="52.524" r="52.524" transform="translate(580.844 452.795)"/>
    <circle id="椭圆_118" data-name="椭圆 118" class="cls-2" cx="46.179" cy="46.179" r="46.179" transform="translate(587.188 459.14)"/>
    <g id="组_268" data-name="组 268">
      <g id="组_264" data-name="组 264">
        <path id="路径_590" data-name="路径 590" class="cls-3" d="M659.158,511.69a25.864,25.864,0,0,0-11.138-21.277l1.162-1.839,7.272,4.6a1.061,1.061,0,0,0,.568.163,1.118,1.118,0,0,0,.3-.027,1.014,1.014,0,0,0,.676-.568,10.5,10.5,0,0,0,1.162-4.866,10.8,10.8,0,0,0-19.276-6.705,1.067,1.067,0,0,0,.271,1.567l7.246,4.622-1.162,1.839a25.922,25.922,0,0,0-13.005-3.515,25.657,25.657,0,0,0-13,3.515l-1.162-1.839,7.245-4.623a.026.026,0,0,0,.027-.027c.027,0,.027-.026.054-.026.054-.055.081-.109.135-.136l.135-.135a.964.964,0,0,0,.109-.243c0-.054.054-.081.054-.135V482a1.3,1.3,0,0,0,0-.324v-.109a1.369,1.369,0,0,0-.189-.405,11.188,11.188,0,0,0-8.571-4.083A10.812,10.812,0,0,0,607.251,487.9a10.587,10.587,0,0,0,1.162,4.865,1.5,1.5,0,0,0,.244.325c.027.027.054.027.081.054a1.455,1.455,0,0,0,.351.189,1.016,1.016,0,0,0,.3.027c.08,0,.189-.027.27-.027.026,0,.054-.026.081-.026.054-.027.081-.027.135-.055l.026-.026c.027,0,.027-.027.055-.027l7.245-4.623,1.163,1.839a25.913,25.913,0,0,0-1.19,41.661l-2.973,4.975a3.321,3.321,0,0,0-.46,1.676,3.249,3.249,0,0,0,6.029,1.677l2.974-4.947a25.92,25.92,0,0,0,10.462,2.217,25.466,25.466,0,0,0,10.463-2.217l2.973,4.947a3.249,3.249,0,0,0,6.029-1.677,3.33,3.33,0,0,0-.459-1.676l-2.974-4.975A25.956,25.956,0,0,0,659.158,511.69Zm-41.255,27.6a1.055,1.055,0,0,1-.919.514,1.085,1.085,0,0,1-1.082-1.081,1.136,1.136,0,0,1,.163-.568l2.893-4.812a18.515,18.515,0,0,0,1.838,1.108Zm32.443-1.109a.979.979,0,0,1,.162.541,1.085,1.085,0,0,1-1.081,1.081,1.054,1.054,0,0,1-.919-.513l-2.893-4.813c.622-.351,1.244-.729,1.839-1.108Z"/>
        <path id="路径_591" data-name="路径 591" class="cls-4" d="M655.349,490.727a7.425,7.425,0,0,0,.823-3.418,7.588,7.588,0,0,0-13.546-4.7Z"/>
        <path id="路径_592" data-name="路径 592" class="cls-5" d="M646.8,481.383l8.273,5.271a5.3,5.3,0,0,1,.081.919,6.154,6.154,0,0,1-.568,2.6L643.8,483.3A6.6,6.6,0,0,1,646.8,481.383Z"/>
        <path id="路径_593" data-name="路径 593" class="cls-4" d="M611.274,490.53a7.225,7.225,0,0,1-.793-3.3,7.315,7.315,0,0,1,13.06-4.536Z"/>
        <path id="路径_594" data-name="路径 594" class="cls-5" d="M619.687,481.383l-8.273,5.271a5.068,5.068,0,0,0-.08.919,6.153,6.153,0,0,0,.567,2.6l10.787-6.867A6.6,6.6,0,0,0,619.687,481.383Z"/>
        <path id="路径_595" data-name="路径 595" class="cls-6" d="M615.118,537.615a2.2,2.2,0,0,0-.3,1.109,2.17,2.17,0,0,0,2.163,2.163,2.2,2.2,0,0,0,1.865-1.054l3.461-5.787-3.7-2.217Z"/>
        <path id="路径_596" data-name="路径 596" class="cls-6" d="M616.93,534.587a26.975,26.975,0,0,0,3.7,2.244l1.676-2.785-3.7-2.217-1.676,2.758Z"/>
        <path id="路径_597" data-name="路径 597" class="cls-6" d="M651.292,537.615,647.8,531.83l-3.7,2.244,3.461,5.785a2.168,2.168,0,0,0,4.028-1.109A2.222,2.222,0,0,0,651.292,537.615Z"/>
        <path id="路径_598" data-name="路径 598" class="cls-6" d="M647.8,531.829l-3.7,2.244,1.676,2.785a26.974,26.974,0,0,0,3.7-2.244Z"/>
        <path id="路径_599" data-name="路径 599" class="cls-5" d="M643.587,500.225a1.082,1.082,0,1,0,1.081-1.082A1.081,1.081,0,0,0,643.587,500.225Z"/>
        <circle id="椭圆_119" data-name="椭圆 119" class="cls-4" cx="21.628" cy="21.628" r="21.628" transform="translate(607.187 495.608) rotate(-13.283)"/>
        <path id="路径_600" data-name="路径 600" class="cls-1" d="M661.322,511.688a1.081,1.081,0,1,0,1.082-1.081A1.082,1.082,0,0,0,661.322,511.688Z"/>
        <path id="路径_601" data-name="路径 601" class="cls-1" d="M661,515.987a1.082,1.082,0,1,0,1.081-1.082A1.081,1.081,0,0,0,661,515.987Z"/>
        <path id="路径_602" data-name="路径 602" class="cls-1" d="M603.25,507.389a1.082,1.082,0,1,0,2.163,0v0a1.082,1.082,0,0,0-2.163,0Z"/>
        <path id="路径_603" data-name="路径 603" class="cls-1" d="M604.2,503.172a1.082,1.082,0,0,0,2.163,0h0a1.082,1.082,0,0,0-2.163,0Z"/>
      </g>
      <g id="组_266" data-name="组 266" class="cls-7">
        <g id="组_265" data-name="组 265">
          <rect id="矩形_48" data-name="矩形 48" class="cls-8" width="3.743" height="20.94" rx="1.714" transform="translate(630.921 494.874)"/>
          <rect id="矩形_49" data-name="矩形 49" class="cls-8" width="12.774" height="3.743" rx="1.482" transform="translate(630.541 512.628) rotate(-17.686)"/>
        </g>
      </g>
      <g id="组_267" data-name="组 267">
        <path id="路径_604" data-name="路径 604" class="cls-1" d="M621.325,502.259h1.769a.808.808,0,0,1,.591.22.777.777,0,0,1,.226.585v3.819l.037-.025q.841-.623,1.146.293a.892.892,0,0,1-.219.756,3.439,3.439,0,0,1-.7.744,20.787,20.787,0,0,0-1.635,1.329.593.593,0,0,1-.146.013.469.469,0,0,1-.25-.11.974.974,0,0,1-.263-.293.758.758,0,0,1-.225-.543.674.674,0,0,1,.189-.518,2,2,0,0,0,.317-1.037v-3.2c0-.2-.1-.3-.293-.3h-.549a.771.771,0,0,1-.866-.878A.76.76,0,0,1,621.325,502.259Zm1.391-1.232q-.135-.134-.4-.384c-.179-.166-.313-.3-.4-.384a.715.715,0,0,1,.012-1.159.739.739,0,0,1,1.122-.061c.032.024.173.14.421.347s.433.369.555.482a.792.792,0,0,1,.3.568,1.035,1.035,0,0,1-.324.579A.775.775,0,0,1,622.716,501.027ZM627,504.309a28.367,28.367,0,0,0,.33-4.855.815.815,0,0,1,.915-.928q.939,0,.914.915-.012,1.086-.1,2.477a10.259,10.259,0,0,0,2.11,6.05q1.048.989.378,1.708-.622.646-1.378-.074a9.227,9.227,0,0,1-1.866-3.269,8.794,8.794,0,0,1-1.83,3.209q-.794.756-1.427.085-.708-.72.2-1.549A7.717,7.717,0,0,0,627,504.309Z"/>
        <path id="路径_605" data-name="路径 605" class="cls-1" d="M635.089,502.259h1.439a.731.731,0,0,1,.531.2.7.7,0,0,1,.2.524v3.5l.134-.122a.96.96,0,0,1,.72-.336q.3.043.524.531a.95.95,0,0,1-.164.83,3.557,3.557,0,0,1-.677.853q-1.513,1.355-1.794,1.647a.5.5,0,0,1-.134.012.7.7,0,0,1-.28-.091.934.934,0,0,1-.317-.262.976.976,0,0,1-.293-.519.611.611,0,0,1,.134-.506,2.488,2.488,0,0,0,.4-1.33V504.3q0-.3-.293-.3h-.134a.77.77,0,0,1-.866-.878A.76.76,0,0,1,635.089,502.259Zm.951-1.244-.8-.805a.673.673,0,0,1,.024-1.11.723.723,0,0,1,1.086-.061q.708.609,1.025.927a.771.771,0,0,1,.262.543.964.964,0,0,1-.311.543A.76.76,0,0,1,636.04,501.015Zm5.221,6.612a10.925,10.925,0,0,1-1.122,2,1.024,1.024,0,0,1-.574.4.982.982,0,0,1-.67-.195.962.962,0,0,1-.507-.652,1.1,1.1,0,0,1,.36-.775,6.124,6.124,0,0,0,.683-1.244.954.954,0,0,1,1.208-.683A.759.759,0,0,1,641.261,507.627Zm-1.4-8.43h4.453a.815.815,0,0,1,.591.22.778.778,0,0,1,.226.586v4.574a.774.774,0,0,1-.817.817h-4.453a.774.774,0,0,1-.817-.817V500a.778.778,0,0,1,.226-.586A.812.812,0,0,1,639.858,499.2Zm1.269,4.477h2.11v-2.756h-2.11c-.2,0-.293.1-.293.3v2.147C640.834,503.573,640.932,503.674,641.127,503.674Zm2.634,5.66q-.133-.354-.744-1.683-.488-.867.488-1.2a.854.854,0,0,1,1.11.4,16.2,16.2,0,0,1,1,1.976.79.79,0,0,1,.006.659,1.047,1.047,0,0,1-.58.4,1.071,1.071,0,0,1-.811.061A.892.892,0,0,1,643.761,509.334Z"/>
        <path id="路径_606" data-name="路径 606" class="cls-1" d="M621.532,514.37h2.879a.783.783,0,0,1,.586.225.815.815,0,0,1,.219.592v6.989a.815.815,0,0,1-.219.592.783.783,0,0,1-.586.226h-2v.158a.848.848,0,0,1-1.7,0v-7.965a.774.774,0,0,1,.817-.817Zm2.013,3.488v-1.573a.269.269,0,0,0-.3-.3H622.7c-.2,0-.293.1-.293.3v1.573Zm-1.134,1.574v1.952h.829a.269.269,0,0,0,.3-.3v-1.647Zm4.111-3.794h2.622V514.43a.909.909,0,0,1,1.818,0v1.208h.231a.9.9,0,0,1,0,1.794h-.231v5.55a2.989,2.989,0,0,1-.177,1.171,1.207,1.207,0,0,1-.629.6,4.737,4.737,0,0,1-1.719.318q-1.05.023-1.306-.733-.2-.573.116-.823a1.5,1.5,0,0,1,.995-.225h.524a.453.453,0,0,0,.293-.074.327.327,0,0,0,.085-.256v-5.525h-2.622a.9.9,0,1,1,0-1.794Zm.305,5.27q-.708-1.148-.781-1.257a.71.71,0,0,1,.329-1.134.785.785,0,0,1,1.122.232q.793,1.122.94,1.342a.818.818,0,0,1,.152.64,1.014,1.014,0,0,1-.482.494A.814.814,0,0,1,626.827,520.908Z"/>
        <path id="路径_607" data-name="路径 607" class="cls-1" d="M636.406,517.492v6.843a.933.933,0,1,1-1.866,0v-6.843a.933.933,0,1,1,1.866,0Zm-.744-1.927q-.256-.342-.354-.488a.72.72,0,0,1,.208-1.232.805.805,0,0,1,1.109.134q.6.732.647.8.4.622-.3,1.086A.818.818,0,0,1,635.662,515.565Zm2.525,1.342H641.9a.783.783,0,0,1,.586.225.815.815,0,0,1,.219.592v4.514a.813.813,0,0,1-.219.591.779.779,0,0,1-.586.225h-3.708a.773.773,0,0,1-.817-.816v-4.514a.773.773,0,0,1,.817-.817Zm.561-2.891h6.014a.808.808,0,0,1,.591.22.776.776,0,0,1,.226.585v8.6a2.824,2.824,0,0,1-.122.946,1.116,1.116,0,0,1-.463.543,2.555,2.555,0,0,1-1,.268,1.248,1.248,0,0,1-.707-.176.953.953,0,0,1-.415-.556.7.7,0,0,1,.037-.628.662.662,0,0,1,.585-.2h.012q.2,0,.2-.207V515.7h-4.952a.749.749,0,0,1-.842-.854A.739.739,0,0,1,638.748,514.016Zm.22,5.245h2.061v-.622q0-.293-.3-.293h-1.451c-.2,0-.3.1-.3.293Zm.3,2.354h1.451c.2,0,.3-.1.3-.292v-.635h-2.061v.635C638.968,521.517,639.069,521.615,639.273,521.615Z"/>
      </g>
    </g>
    <g id="组_269" data-name="组 269">
      <path id="路径_608" data-name="路径 608" class="cls-9" d="M588.519,472.813l9.136-9.136a2.371,2.371,0,0,1,3.355,0l0,0,9.057,9.057-.177,10.463a1.794,1.794,0,0,1-1.748,1.763l-10.566.265-9.057-9.057a2.372,2.372,0,0,1,0-3.355l0,0Z"/>
      <path id="路径_609" data-name="路径 609" class="cls-10" d="M597.636,463.7a2.312,2.312,0,0,1,3.27,0l9,9a.174.174,0,0,1,.023.229l-.014.013a3.749,3.749,0,0,1-5.144,1.284,3.709,3.709,0,0,1-.712-.554l-8.2-8.2Z"/>
      <path id="路径_610" data-name="路径 610" class="cls-11" d="M590.1,471.143a.178.178,0,0,1,.252,0l7.72,7.72c1.671,1.67,2.051,4.024.38,5.694a4.116,4.116,0,0,1-.734.581.172.172,0,0,1-.229-.023l-8.878-8.878a2.551,2.551,0,0,1,0-3.609Z"/>
      <path id="路径_611" data-name="路径 611" class="cls-12" d="M595.741,465.5a.18.18,0,0,1,.254,0h0l7.72,7.72a4.017,4.017,0,0,1,.25,5.824,4.151,4.151,0,0,1-5.945-.129l-7.72-7.72a.192.192,0,0,1,0-.254Z"/>
      <path id="路径_612" data-name="路径 612" class="cls-13" d="M604.779,485.045l3.366-.084a1.794,1.794,0,0,0,1.748-1.763l.055-3.322Z"/>
      <path id="路径_613" data-name="路径 613" class="cls-14" d="M607.581,475.713a.961.961,0,1,1,1.359,1.358h0a.961.961,0,0,1-1.359-1.358Zm.815,2.988a.577.577,0,1,1-.005.821A.584.584,0,0,1,608.4,478.7Z"/>
    </g>
    <g id="组_277" data-name="组 277">
      <g id="组_276" data-name="组 276">
        <g id="组_272" data-name="组 272">
          <g id="组_270" data-name="组 270">
            <path id="路径_614" data-name="路径 614" class="cls-15" d="M615.777,470.3a4.152,4.152,0,1,1,0-8.3h1.676v-12.66h-1.532a3.35,3.35,0,0,1-3.556-3.663,3.73,3.73,0,0,1,.92-2.491,3.981,3.981,0,0,1,2.311-1.325,16.35,16.35,0,0,0,3.52-1.387,4.776,4.776,0,0,1,2.506-.664h1.588a3.666,3.666,0,0,1,3.809,3.809v18.381h.774a4.152,4.152,0,1,1,0,8.3Z"/>
          </g>
          <g id="组_271" data-name="组 271">
            <path id="路径_615" data-name="路径 615" class="cls-1" d="M623.21,441.3a2.172,2.172,0,0,1,2.309,2.309v19.881h2.274a2.652,2.652,0,1,1,0,5.3H615.777a2.652,2.652,0,1,1,0-5.3h3.175v-15.66h-3.031q-2.055,0-2.056-2.163a2.253,2.253,0,0,1,.559-1.516,2.5,2.5,0,0,1,1.461-.829,17.73,17.73,0,0,0,3.97-1.552,3.282,3.282,0,0,1,1.766-.47h1.589m0-3h-1.589a6.268,6.268,0,0,0-3.236.853,14.833,14.833,0,0,1-3.165,1.243,5.517,5.517,0,0,0-3.067,1.795,5.262,5.262,0,0,0-1.288,3.476,4.838,4.838,0,0,0,5.056,5.163h.031v9.66h-.175a5.652,5.652,0,1,0,0,11.3h12.016a5.312,5.312,0,0,0,5.669-5.669,5.233,5.233,0,0,0-4.943-5.6V443.61a5.163,5.163,0,0,0-5.309-5.309Z"/>
          </g>
        </g>
        <g id="组_275" data-name="组 275">
          <g id="组_273" data-name="组 273">
            <path id="路径_616" data-name="路径 616" class="cls-15" d="M636.525,470.3a3.609,3.609,0,0,1-3.773-3.773v-.145a5.168,5.168,0,0,1,1.925-3.771,64.132,64.132,0,0,0,7.328-7.759c1.474-1.951,2.222-3.643,2.222-5.031a2.645,2.645,0,0,0-.546-1.853,1.9,1.9,0,0,0-1.527-.544,3.6,3.6,0,0,0-1.778.58,4.3,4.3,0,0,1-2.831,1.189,4.081,4.081,0,0,1-2.91-1.342,3.83,3.83,0,0,1-1.272-2.806,4.167,4.167,0,0,1,1.53-2.964l.092-.079a12.739,12.739,0,0,1,8.07-2.7,10.619,10.619,0,0,1,7.542,2.77,9.7,9.7,0,0,1,2.979,7.355c0,3.611-1.97,7.669-6,12.335.246-.012.473-.017.679-.017h2.309a4.279,4.279,0,0,1,0,8.557Z"/>
          </g>
          <g id="组_274" data-name="组 274">
            <path id="路径_617" data-name="路径 617" class="cls-1" d="M643.055,440.8a9.116,9.116,0,0,1,6.514,2.364,8.2,8.2,0,0,1,2.507,6.261q0,5.845-8.3,14.215a38.482,38.482,0,0,1,4.475-.4h2.308a2.779,2.779,0,0,1,0,5.557H636.525a2.115,2.115,0,0,1-2.272-2.272v-.146a3.744,3.744,0,0,1,1.442-2.669,65.216,65.216,0,0,0,7.506-7.957q2.523-3.336,2.525-5.935a4.03,4.03,0,0,0-.957-2.885,3.42,3.42,0,0,0-2.614-1.012,5.134,5.134,0,0,0-2.672.866,2.931,2.931,0,0,1-1.938.9,2.636,2.636,0,0,1-1.85-.9q-1.767-1.767.217-3.608a11.225,11.225,0,0,1,7.143-2.382m0-3a14.2,14.2,0,0,0-9,3.023l-.1.075-.089.083a5.6,5.6,0,0,0-2.011,4.035,5.289,5.289,0,0,0,1.711,3.9,5.547,5.547,0,0,0,3.971,1.781,5.689,5.689,0,0,0,3.7-1.457,1.986,1.986,0,0,1,.912-.311.879.879,0,0,1,.431.069,1.631,1.631,0,0,1,.14.828,7.907,7.907,0,0,1-1.918,4.126,62.752,62.752,0,0,1-7.153,7.567,6.587,6.587,0,0,0-2.4,4.868v.146a5.1,5.1,0,0,0,5.272,5.272H650.56a5.779,5.779,0,0,0,.151-11.555c2.929-3.95,4.365-7.523,4.365-10.82a11.131,11.131,0,0,0-3.448-8.443,12.061,12.061,0,0,0-8.573-3.182Z"/>
          </g>
        </g>
      </g>
    </g>
  </g>
</svg>
