<svg xmlns="http://www.w3.org/2000/svg" width="106.483" height="121.086" viewBox="0 0 106.483 121.086">
  <defs>
    <style>
      .cls-1 {
        fill: #fff;
      }

      .cls-2 {
        fill: #ffde78;
      }

      .cls-3 {
        fill: #fefefe;
      }

      .cls-4 {
        fill: #fe8b65;
      }

      .cls-5 {
        fill: #fe8965;
      }

      .cls-6 {
        fill: #f8c34f;
      }

      .cls-7 {
        fill: #8a493c;
      }

      .cls-8 {
        fill: #ffe2c9;
      }

      .cls-9 {
        fill: #f84f4f;
      }

      .cls-10 {
        fill: #f8934f;
      }

      .cls-11 {
        fill: #683818;
      }

      .cls-12 {
        fill: #f9fbf8;
      }

      .cls-13 {
        fill: #b36339;
      }
    </style>
  </defs>
  <g id="组_373" data-name="组 373" transform="translate(-961.183 -86.628)">
    <circle id="椭圆_104" data-name="椭圆 104" class="cls-1" cx="53.242" cy="53.242" r="53.242" transform="translate(961.183 101.231)"/>
    <circle id="椭圆_105" data-name="椭圆 105" class="cls-2" cx="46.81" cy="46.81" r="46.81" transform="translate(967.614 107.663)"/>
    <path id="路径_484" data-name="路径 484" class="cls-3" d="M1042.337,176.888h-45.4V179.2a1.33,1.33,0,1,1-2.66,0v-2.315h-.388V178.2a1.022,1.022,0,1,1-2.043,0v-1.308H988.8a5.872,5.872,0,0,1-5.872-5.873V137.766a5.872,5.872,0,0,1,5.872-5.872h41.924v-1.538a1.649,1.649,0,0,1,3.3,0v1.538h.34v-6.2a1.68,1.68,0,0,1,3.361,0v6.2h.361v-1.887a1.083,1.083,0,1,1,2.167,0v1.887h2.084a5.872,5.872,0,0,1,5.872,5.872v33.249A5.872,5.872,0,0,1,1042.337,176.888Z"/>
    <path id="路径_485" data-name="路径 485" class="cls-4" d="M1040.447,177.008H995.541v2.24a1.316,1.316,0,0,1-2.631,0v-2.24h-.384v1.266a1.011,1.011,0,0,1-2.021,0v-1.266h-3.012a5.747,5.747,0,0,1-5.808-5.683V139.146a5.746,5.746,0,0,1,5.808-5.683h41.469v-1.489a1.631,1.631,0,0,1,3.262,0v1.489h.337v-6a1.663,1.663,0,0,1,3.325,0v6h.357v-1.826a1.072,1.072,0,0,1,2.143,0v1.826h2.061a5.747,5.747,0,0,1,5.809,5.683v32.179A5.748,5.748,0,0,1,1040.447,177.008Z"/>
    <path id="路径_486" data-name="路径 486" class="cls-5" d="M979.693,160.053h-.516v-.517a.9.9,0,0,0-1.8,0v.517h-.516a.9.9,0,0,0,0,1.8h.516v.517a.9.9,0,0,0,1.8,0v-.517h.516a.9.9,0,0,0,0-1.8Z"/>
    <path id="路径_487" data-name="路径 487" class="cls-6" d="M1053.742,140.765h-.517v-.517a.9.9,0,1,0-1.8,0v.517h-.516a.9.9,0,1,0,0,1.8h.516v.517a.9.9,0,1,0,1.8,0v-.517h.517a.9.9,0,1,0,0-1.8Z"/>
    <circle id="椭圆_106" data-name="椭圆 106" class="cls-6" cx="1.283" cy="1.283" r="1.283" transform="translate(1006.294 125.829) rotate(-76.717)"/>
    <path id="路径_488" data-name="路径 488" class="cls-5" d="M1002.5,124.967a.536.536,0,1,1-.536-.537A.536.536,0,0,1,1002.5,124.967Z"/>
    <path id="路径_489" data-name="路径 489" class="cls-5" d="M1006.15,122.364a.489.489,0,1,1-.489-.489A.489.489,0,0,1,1006.15,122.364Z"/>
    <g id="组_208" data-name="组 208">
      <path id="路径_490" data-name="路径 490" class="cls-7" d="M993.8,152.779h-4.081a.9.9,0,1,1,0-1.8H990.8V145.66h-1.03c-.465,0-.7-.245-.7-.736a.764.764,0,0,1,.191-.514.855.855,0,0,1,.5-.282,5.933,5.933,0,0,0,1.347-.527,1.121,1.121,0,0,1,.6-.159h.539a.736.736,0,0,1,.784.784v6.752h.773a.9.9,0,1,1,0,1.8Z"/>
      <path id="路径_491" data-name="路径 491" class="cls-7" d="M1001.683,151.713a2.935,2.935,0,0,1-4.81-.03,6.26,6.26,0,0,1-.889-3.621,6.022,6.022,0,0,1,.889-3.573,2.991,2.991,0,0,1,4.828.012,5.972,5.972,0,0,1,.9,3.561A6.361,6.361,0,0,1,1001.683,151.713Zm-1.544-1.115a6.671,6.671,0,0,0,.355-2.536,8.223,8.223,0,0,0-.178-1.924,1.941,1.941,0,0,0-.422-.931.884.884,0,0,0-.614-.221.833.833,0,0,0-.465.128,1.217,1.217,0,0,0-.368.448,2.991,2.991,0,0,0-.263.949,11.052,11.052,0,0,0-.092,1.551,6.713,6.713,0,0,0,.312,2.469.973.973,0,0,0,.876.692A.9.9,0,0,0,1000.139,150.6Z"/>
      <path id="路径_492" data-name="路径 492" class="cls-7" d="M1004.906,146.432l-.1-2.61a.957.957,0,1,1,1.912-.074l.208,5.514c.065-.024.165-.063.3-.116s.235-.092.3-.116a.759.759,0,0,1,1.164.624.871.871,0,0,1-.539,1.116q-1.164.526-3.186,1.36-.943.4-1.25-.625a.878.878,0,0,1,.6-1.25l.736-.257Zm3.321,5.232a6.889,6.889,0,0,0,2.7-2.947,14.818,14.818,0,0,0,1.237-4.736,1.328,1.328,0,0,1,.343-.821.889.889,0,0,1,.772-.258.911.911,0,0,1,.711.38,1.249,1.249,0,0,1,.16.858,19.5,19.5,0,0,1-1.324,5.184q1.777,1.984,2.157,2.475a.96.96,0,0,1,.19.668,1.321,1.321,0,0,1-.4.618,1.174,1.174,0,0,1-.8.46q-.362-.006-.705-.521-.637-.894-1.47-1.9a8.821,8.821,0,0,1-2.562,2.34,1.135,1.135,0,0,1-1.556-.159Q1006.819,152.351,1008.227,151.664Zm.6-5.146q-.342-.651-.808-1.361-.6-.809.367-1.3a.887.887,0,0,1,1.188.246,15.882,15.882,0,0,1,1.091,1.666.915.915,0,0,1,.105.705,1.1,1.1,0,0,1-.534.5.863.863,0,0,1-1.409-.453Z"/>
      <path id="路径_493" data-name="路径 493" class="cls-7" d="M1022.87,144.1h3.468a.776.776,0,0,1,.821.82v7.059a2.865,2.865,0,0,1-.166,1.1,1.22,1.22,0,0,1-.594.606,3.586,3.586,0,0,1-1.421.282q-1.078.024-1.3-.7c-.131-.393-.1-.666.1-.822a1.545,1.545,0,0,1,.994-.208h.281c.213-.008.319-.106.319-.294v-1.679l-.7.54a.872.872,0,0,1-.582.2.525.525,0,0,1-.435-.252q-.637-.795-1.568-1.752a6.048,6.048,0,0,1-1.729,2.12,1.038,1.038,0,0,1-.667.221.71.71,0,0,1-.521-.295,7.938,7.938,0,0,0-.6-.612V153.1a.913.913,0,0,1-1.825,0v-8.174a.778.778,0,0,1,.821-.82h3.444v-1.128a.931.931,0,1,1,1.862,0Zm-1.875,1.789h-2.132a.261.261,0,0,0-.295.294v3.933a5.014,5.014,0,0,0,1.2-.9,3.571,3.571,0,0,0,.735-1.091,6.1,6.1,0,0,0,.355-1.1A6.7,6.7,0,0,0,1020.995,145.893Zm4.068,0h-2.206a10.971,10.971,0,0,1-.159,1.286,31.8,31.8,0,0,1,2.672,2.7v-3.688Q1025.37,145.893,1025.063,145.893Z"/>
      <path id="路径_494" data-name="路径 494" class="cls-7" d="M1036.7,143.969h2.586a.633.633,0,0,1,.595.343,2.748,2.748,0,0,1,.178,1.237q-.1,3.923-.258,5.49a4.567,4.567,0,0,1-.515,2.034,1.829,1.829,0,0,1-.569.552,2.518,2.518,0,0,1-.742.245,7.332,7.332,0,0,1-1.176.061,1.21,1.21,0,0,1-1.005-.833c-.017-.049-.029-.086-.037-.11q-.2-.393-.025-.6a.852.852,0,0,1,.7-.177c.237.008.506.012.809.012a.709.709,0,0,0,.539-.221,3.481,3.481,0,0,0,.392-1.611q.135-1.329.208-4.209a.923.923,0,0,0-.055-.448.241.241,0,0,0-.226-.116h-2.059q-.233.5-.625,1.2a.693.693,0,0,1-.484.343.743.743,0,0,1-.594-.184,2.331,2.331,0,0,1-.191-.135q-.129-.1-.189-.135v5.16a.779.779,0,0,1-.821.82h-3.247a.784.784,0,0,1-.589-.226.816.816,0,0,1-.221-.594v-6.961a.816.816,0,0,1,.221-.594.784.784,0,0,1,.589-.227h.6c.1-.514.159-.858.184-1.029q.084-1,1.053-.87,1.017.135.65,1.213c-.017.049-.054.155-.11.319s-.1.286-.135.367h1.005a.78.78,0,0,1,.821.821v.858a12.3,12.3,0,0,0,1.225-2.806.833.833,0,0,1,1.1-.674.756.756,0,0,1,.637,1.078c-.025.066-.061.166-.111.3S1036.729,143.9,1036.7,143.969Zm-5.992,2.01v1.4h1.63v-1.4a.271.271,0,0,0-.306-.307h-1.029C1030.811,145.672,1030.712,145.774,1030.712,145.979Zm0,2.965v1.85c0,.2.1.307.295.307h1.029a.271.271,0,0,0,.306-.307v-1.85Zm5.318.943c-.1-.179-.241-.43-.428-.753s-.315-.537-.38-.644a.706.706,0,0,1,.318-1.1.726.726,0,0,1,1.1.245q.183.27.955,1.494a.786.786,0,0,1,.11.613,1.042,1.042,0,0,1-.453.466A.747.747,0,0,1,1036.03,149.887Z"/>
      <path id="路径_495" data-name="路径 495" class="cls-7" d="M994.846,157.752H998.9q.82,0,.772,1.4a5.668,5.668,0,0,1-.392,2.377,1.038,1.038,0,0,1-.52.392,4.23,4.23,0,0,1-.877.123h.123c.041,0,.061.016.061.049v.993h.944a.666.666,0,0,1,.759.747.677.677,0,0,1-.759.772h-.944v.919h1.189a.778.778,0,0,1,0,1.556h-1.189v1.066a.864.864,0,0,1-1.728,0v-1.066h-1.348a.778.778,0,1,1,0-1.556h1.348V164.6h-.82q-.038.085-.234.49a.364.364,0,0,1-.238.2.358.358,0,0,1-.288-.049,5.643,5.643,0,0,0-.724-.38v2.488a1.544,1.544,0,0,1-.526,1.384,1.465,1.465,0,0,1-1.061.227.868.868,0,0,1-.79-.606c-.1-.3-.088-.521.03-.656a.864.864,0,0,1,.681-.19h.012c.123,0,.184-.065.184-.2v-1.568h-2.194a9.38,9.38,0,0,1-.624,2.634.769.769,0,0,1-.411.435.715.715,0,0,1-.569-.153.774.774,0,0,1-.258-1.14,10.69,10.69,0,0,0,.527-3.848v-1.948q-.282-.257-.539-.466a.537.537,0,0,1-.227-.367.472.472,0,0,1,.117-.392,8.22,8.22,0,0,0,1.224-2.561.769.769,0,0,1,1.005-.662.692.692,0,0,1,.576.98l-.011.025-.013.024h1.3c.589,0,.8.352.649,1.054a8.09,8.09,0,0,1-.4,1.005h.723a.551.551,0,0,1,.6.6V161a2.352,2.352,0,0,0,1.3-1.765h-.489a.741.741,0,0,1,0-1.482Zm-4.167,1.9c-.2.458-.311.695-.319.711h.858a6.829,6.829,0,0,0,.258-.711Zm-.208,4.4c0,.164,0,.286-.013.368h.479v-.784h-.466Zm.466-1.678v-.7h-.466v.7Zm1.629,0v-.564a.119.119,0,0,0-.134-.135H992.1v.7Zm-.465,1.262v.784h.465v-.784Zm1.935-2.206v2.917a6.525,6.525,0,0,0,.625-1.961A3.146,3.146,0,0,0,994.036,161.428Zm2.917-2.194a4.409,4.409,0,0,1-.6,1.771,3.581,3.581,0,0,1-1.28,1.183l.576.11a.513.513,0,0,1,.331.215.475.475,0,0,1,.061.385l-.036.185h.33v-.564a.444.444,0,0,1,.478-.478h.405a4.467,4.467,0,0,0-.123-.8q-.244-.648.465-.613h.025a.388.388,0,0,0,.319-.134,1.842,1.842,0,0,0,.171-.785.677.677,0,0,0-.055-.379.254.254,0,0,0-.226-.1Z"/>
      <path id="路径_496" data-name="路径 496" class="cls-7" d="M1001.07,166.661q.858-1.557,1.286-2.513t1.226-.306a.881.881,0,0,1,.294,1.127q-.466,1.079-1.2,2.574-.468.932-1.287.343a1.1,1.1,0,0,1-.46-.545A.918.918,0,0,1,1001.07,166.661Zm1.226-6.091q-.222-.33-.956-1.409-.516-.686.257-1.164a.787.787,0,0,1,1.128.184q.735.906,1.175,1.544a.8.8,0,0,1,.154.637,1.008,1.008,0,0,1-.472.5A.79.79,0,0,1,1002.3,160.57Zm9.386,3.811h-1.949a5.345,5.345,0,0,0,1.789,2.341q1.263.661.552,1.593a.958.958,0,0,1-1.372.184,6.549,6.549,0,0,1-2.439-3.174,7.153,7.153,0,0,1-2.439,3.125q-.943.6-1.495-.025-.759-.846.576-1.642a4.939,4.939,0,0,0,1.741-2.4h-1.41a.87.87,0,0,1,0-1.74h1.741c.024-.368.037-.723.037-1.066v-.956h-1.287a.858.858,0,0,1,0-1.715h1.287v-.87a.943.943,0,1,1,1.886,0v.87h1.924a.814.814,0,0,1,.6.221.783.783,0,0,1,.227.587v2.929h.036a.87.87,0,0,1,0,1.74Zm-2.794-2.267c0,.123-.008.3-.025.527h1.042v-1.715c0-.2-.1-.307-.294-.307h-.711v.968C1008.9,161.824,1008.9,162,1008.888,162.114Z"/>
      <path id="路径_497" data-name="路径 497" class="cls-7" d="M1015.579,161.134v6.985a.895.895,0,0,1-1.789,0v-6.985a.895.895,0,1,1,1.789,0Zm-.723-1.948-.477-.552q-.528-.612.184-1.091a.718.718,0,0,1,1.041.086q.552.576.993,1.066a.728.728,0,0,1,.232.582.9.9,0,0,1-.416.509.768.768,0,0,1-1.214-.184l-.165-.2C1014.956,159.306,1014.9,159.234,1014.856,159.186Zm2.684,1.825h3.223a.779.779,0,0,1,.821.822v3.247a.78.78,0,0,1-.227.588.816.816,0,0,1-.594.221h-3.223a.816.816,0,0,1-.594-.221.783.783,0,0,1-.227-.588v-3.247a.779.779,0,0,1,.821-.822Zm.539-3.321h5.747a.759.759,0,0,1,.809.81v8.442a2.924,2.924,0,0,1-.165,1.109,1.239,1.239,0,0,1-.57.607,3.288,3.288,0,0,1-1.373.294q-1.016.024-1.237-.711-.171-.551.1-.79a1.313,1.313,0,0,1,.913-.215,2.042,2.042,0,0,1,.22-.012.271.271,0,0,0,.307-.306v-7.254c0-.2-.1-.295-.307-.295h-4.448a.84.84,0,1,1,0-1.679Zm1.753,6.287v-1.042a.266.266,0,0,0-.295-.306h-.894a.27.27,0,0,0-.306.306v1.042c0,.2.1.294.306.294h.894A.261.261,0,0,0,1019.832,163.977Z"/>
      <path id="路径_498" data-name="路径 498" class="cls-7" d="M1032.355,157.58h4.534a.711.711,0,0,1,0,1.422h-1.47q-.2.392-.38.723h1.348a.78.78,0,0,1,.588.227.815.815,0,0,1,.22.594v3.59a.747.747,0,1,1-1.495,0v-2.843q0-.294-.306-.294h-1.655c-.2,0-.305.1-.305.294v3.419a6.26,6.26,0,0,0,.416-2.353,1.108,1.108,0,0,1,.209-.643.634.634,0,0,1,.539-.263.6.6,0,0,1,.533.306,1.26,1.26,0,0,1,.178.711,14.078,14.078,0,0,1-.129,1.44,6.041,6.041,0,0,1-.3,1.176,3.075,3.075,0,0,1-.558.974,3.831,3.831,0,0,1-.887.741,5.811,5.811,0,0,1-1.3.582q2.854,0,4.325-.024-.344-.33-1.25-1.066a.585.585,0,0,1-.049-.993.657.657,0,0,1,.932-.1q.2.147.563.417l.453.331a.593.593,0,0,1,.251.484.85.85,0,0,1-.238.582l-.294.331h.025a.665.665,0,0,1,.587.19.654.654,0,0,1-.012.619.928.928,0,0,1-.944.649h-4.521a10.98,10.98,0,0,1-2.727-.27,3.2,3.2,0,0,1-1.673-1.066q-.048.209-.281.883a.775.775,0,0,1-.405.435.709.709,0,0,1-.564-.154.909.909,0,0,1-.4-.459.836.836,0,0,1,.123-.582,7.841,7.841,0,0,0,.441-2.61.959.959,0,0,1,.209-.619.643.643,0,0,1,.563-.2.65.65,0,0,1,.674.747c-.017.343-.032.584-.049.723a2.7,2.7,0,0,0,.4.723v-2.585h-1.568a.649.649,0,0,1,0-1.3h4.35a.649.649,0,0,1,0,1.3h-1.275v.833h.993a.563.563,0,0,1,.637.637.569.569,0,0,1-.637.65h-.993v1.335a11.1,11.1,0,0,0,2.157.159,3.2,3.2,0,0,0-.355-.637q-.405-.5.331-.747a3.2,3.2,0,0,0,1.36-1h-.674a.593.593,0,0,1-.448-.172.613.613,0,0,1-.165-.441v-3.835a.779.779,0,0,1,.822-.821h.6a7.668,7.668,0,0,0,.27-.723h-1.324a.711.711,0,0,1,0-1.422Zm-5-.012h3.04a.78.78,0,0,1,.821.821v2.659a.779.779,0,0,1-.821.821h-3.04a.778.778,0,0,1-.821-.821v-2.659a.779.779,0,0,1,.821-.821Zm.772,1.581h1.435v-.233a.131.131,0,0,0-.148-.147h-.98q-.307,0-.307.294Zm.16,1.519h.968c.2,0,.307-.1.307-.294v-.1h-1.435v.233A.141.141,0,0,0,1028.287,160.668Z"/>
    </g>
    <g id="组_209" data-name="组 209">
      <path id="路径_499" data-name="路径 499" class="cls-8" d="M968.963,121.455l9.261-9.261a2.4,2.4,0,0,1,3.4,0l0,0,9.181,9.18-.18,10.607a1.817,1.817,0,0,1-1.772,1.786l-10.71.269-9.181-9.18a2.4,2.4,0,0,1,0-3.4l0,0Z"/>
      <path id="路径_500" data-name="路径 500" class="cls-9" d="M978.2,112.22a2.343,2.343,0,0,1,3.315,0l9.122,9.122a.175.175,0,0,1,.023.232l-.013.013a3.8,3.8,0,0,1-5.937.74l-8.309-8.308Z"/>
      <path id="路径_501" data-name="路径 501" class="cls-6" d="M970.566,119.761a.184.184,0,0,1,.257,0l7.825,7.826c1.693,1.693,2.078,4.079.385,5.772a4.148,4.148,0,0,1-.744.589.176.176,0,0,1-.232-.023l-9-9a2.588,2.588,0,0,1,0-3.659Z"/>
      <path id="路径_502" data-name="路径 502" class="cls-10" d="M976.284,114.044a.182.182,0,0,1,.257,0h0l7.826,7.825a4.072,4.072,0,0,1,.253,5.9,4.209,4.209,0,0,1-6.026-.131l-7.826-7.825a.2.2,0,0,1,0-.258Z"/>
      <path id="路径_503" data-name="路径 503" class="cls-11" d="M985.446,133.854l3.411-.086a1.818,1.818,0,0,0,1.772-1.786l.056-3.368Z"/>
      <path id="路径_504" data-name="路径 504" class="cls-12" d="M988.286,124.394a.974.974,0,1,1,1.377,1.377h0a.974.974,0,0,1-1.377-1.377Zm.825,3.029a.585.585,0,1,1-.005.832A.592.592,0,0,1,989.111,127.423Z"/>
    </g>
    <g id="组_214" data-name="组 214">
      <g id="组_213" data-name="组 213">
        <g id="组_212" data-name="组 212">
          <g id="组_210" data-name="组 210">
            <path id="路径_505" data-name="路径 505" class="cls-13" d="M1016.174,119.132a10.453,10.453,0,0,1-4.361-.932,11.522,11.522,0,0,1-3.691-2.724,12.707,12.707,0,0,1-2.635-4.9,22.915,22.915,0,0,1-.918-6.736c0-4.926,1.216-8.875,3.613-11.739a10.826,10.826,0,0,1,8.628-3.976,12.515,12.515,0,0,1,7.034,2.057l.088.059.079.069a3.555,3.555,0,0,1,1.408,2.715,4.1,4.1,0,0,1-1.265,2.649,4.326,4.326,0,0,1-3.268,1.619,4.649,4.649,0,0,1-2.517-.809,3,3,0,0,0-1.133-.219c-.741,0-2.434,0-3.276,3.013a7.657,7.657,0,0,1,3.17-.766,9.376,9.376,0,0,1,6.808,2.553c1.746,1.7,2.631,4.2,2.631,7.418a10.147,10.147,0,0,1-10.395,10.646Zm-2.511-11.809a7.945,7.945,0,0,0,1.17,3.365,1.371,1.371,0,0,0,1.2.624,1.267,1.267,0,0,0,1.081-.52,3.819,3.819,0,0,0,.54-2.306c0-2.434-1-2.434-1.727-2.434A2.67,2.67,0,0,0,1013.663,107.323Z"/>
          </g>
          <g id="组_211" data-name="组 211">
            <path id="路径_506" data-name="路径 506" class="cls-1" d="M1016.81,89.628a10.985,10.985,0,0,1,6.205,1.808,2.151,2.151,0,0,1,.9,1.559,2.738,2.738,0,0,1-.868,1.666,2.909,2.909,0,0,1-2.165,1.135,3.247,3.247,0,0,1-1.807-.638,4.538,4.538,0,0,0-1.843-.39q-4.928,0-5.246,7.87a6.833,6.833,0,0,1,2.428-1.914,6.3,6.3,0,0,1,2.712-.709,7.893,7.893,0,0,1,5.759,2.126q2.181,2.127,2.181,6.345a8.945,8.945,0,0,1-12.636,8.348,9.976,9.976,0,0,1-3.21-2.374,11.2,11.2,0,0,1-2.3-4.326,21.333,21.333,0,0,1-.85-6.291q0-6.877,3.262-10.777a9.346,9.346,0,0,1,7.478-3.438m-.78,23.184a2.748,2.748,0,0,0,2.251-1.082,5.109,5.109,0,0,0,.871-3.244q0-3.935-3.228-3.934a4.4,4.4,0,0,0-3.828,2.41,10.058,10.058,0,0,0,1.524,4.608,2.865,2.865,0,0,0,2.41,1.242m.78-26.184a12.264,12.264,0,0,0-9.769,4.5c-2.638,3.153-3.971,7.427-3.971,12.714a24.392,24.392,0,0,0,.984,7.177,14.179,14.179,0,0,0,2.962,5.471,13.012,13.012,0,0,0,4.178,3.075,11.925,11.925,0,0,0,4.98,1.066,11.644,11.644,0,0,0,11.9-12.146c0-3.638-1.039-6.5-3.086-8.492a10.09,10.09,0,0,0-2.108-1.585,6.469,6.469,0,0,0,2.413-1.75,5.534,5.534,0,0,0,1.629-3.583A4.971,4.971,0,0,0,1025,89.189l-.157-.139-.175-.116a13.989,13.989,0,0,0-7.861-2.306Zm-1.535,21.152a.928.928,0,0,1,.649-.228c.052,0,.095,0,.132,0a3.576,3.576,0,0,1,.1.93,3.866,3.866,0,0,1-.157,1.248,5.678,5.678,0,0,1-.72-1.954Z"/>
          </g>
        </g>
      </g>
    </g>
  </g>
</svg>
