<svg xmlns="http://www.w3.org/2000/svg" width="564.926" height="70.237" viewBox="0 0 564.926 70.237">
  <defs>
    <style>
      .cls-1 {
        fill: #4697f4;
      }

      .cls-2 {
        fill: #fff;
      }
    </style>
  </defs>
  <g id="组_145" data-name="组 145" transform="translate(-365.659 -282.071)">
    <g id="组_144" data-name="组 144">
      <g id="组_143" data-name="组 143">
        <g id="组_133" data-name="组 133">
          <path id="路径_320" data-name="路径 320" class="cls-1" d="M391.136,349.622c-5.636,0-7.9-2.866-8.806-5.27-1.575-4.144.046-6.292,1.152-7.2,1.434-1.181,3.494-1.755,6.3-1.755.235,0,.475,0,.722.012.216,0,.569-.011.978-.03l.456-.02,0-42.286c0-4.7,2.808-7.509,7.509-7.509s7.509,2.807,7.509,7.509v43.1a16.859,16.859,0,0,1-1.227,7.125,9.444,9.444,0,0,1-4.483,4.449c-.044.022-.089.043-.134.062a28.573,28.573,0,0,1-9.5,1.806Zm31.4-14.431a5.987,5.987,0,0,1-2.358-.46c-1.886-.8-3.145-2.616-3.738-5.393-.52-1.907-1.431-4.693-2.707-8.282-1.847-4.773-3.3-8.322-4.3-10.487a6.966,6.966,0,0,1-.551-5.811A7.266,7.266,0,0,1,413.5,300.8a8.962,8.962,0,0,1,3.018-.569c1.846,0,4.414.7,6.169,4.046a119.467,119.467,0,0,1,8.791,21.327,6.752,6.752,0,0,1-.6,5.544,8.479,8.479,0,0,1-4.268,3.074A10.342,10.342,0,0,1,422.532,335.191Zm-45.886-1.123a8.39,8.39,0,0,1-4.075-1.214c-2.343-1.283-3.774-2.864-4.238-4.693-.456-1.786,0-3.809,1.352-6.012a62.153,62.153,0,0,0,4.992-15.176c.686-3.981,3.3-6.31,7.156-6.31a11.3,11.3,0,0,1,1.734.14,7.6,7.6,0,0,1,5.333,3.082,7.34,7.34,0,0,1,.739,5.9c-1.98,8.3-4.344,15.071-7.027,20.14-.024.046-.05.091-.076.135a7.9,7.9,0,0,1-4.278,3.776A5.481,5.481,0,0,1,376.646,334.068Z"/>
          <path id="路径_321" data-name="路径 321" class="cls-2" d="M399.449,288.061q5.008,0,5.009,5.009v43.1a14.682,14.682,0,0,1-.989,6.06,6.975,6.975,0,0,1-3.34,3.277,26.508,26.508,0,0,1-8.657,1.608c-.113,0-.225,0-.336,0q-5.089,0-6.467-3.652-1.175-3.093.4-4.391,1.44-1.187,4.71-1.186c.207,0,.421,0,.64.011.329,0,.72-.01,1.175-.031s.742-.031.865-.031a2.278,2.278,0,0,0,1.546-.4,1.749,1.749,0,0,0,.433-1.329V293.07q0-5.009,5.009-5.009m17.07,14.67a4.359,4.359,0,0,1,3.956,2.707,116.435,116.435,0,0,1,8.6,20.84,4.327,4.327,0,0,1-.279,3.494,6.256,6.256,0,0,1-3.123,2.134,8.1,8.1,0,0,1-3.137.785,3.489,3.489,0,0,1-1.377-.26q-1.67-.709-2.288-3.679-.8-2.969-2.783-8.534-2.846-7.359-4.391-10.7-2.287-4.575,2.66-6.369a6.463,6.463,0,0,1,2.166-.419m-34.687.431a8.862,8.862,0,0,1,1.353.111q5.195.928,4.02,5.937-2.907,12.185-6.8,19.542a5.645,5.645,0,0,1-2.876,2.69,3,3,0,0,1-.88.126,6.067,6.067,0,0,1-2.861-.9q-2.6-1.422-3.03-3.123t1.112-4.175a64.123,64.123,0,0,0,5.257-15.892q.746-4.317,4.707-4.317m17.617-20.1c-6.08,0-10.009,3.929-10.009,10.009v7.67a10.985,10.985,0,0,0-5.375-2.389l-.116-.019a13.861,13.861,0,0,0-2.116-.17h0c-5.088,0-8.677,3.129-9.618,8.375a59.774,59.774,0,0,1-4.719,14.4c-1.673,2.766-2.206,5.4-1.585,7.843.641,2.523,2.483,4.636,5.475,6.274a10.755,10.755,0,0,0,5.262,1.513,8.015,8.015,0,0,0,2.344-.345,10.391,10.391,0,0,0,5.677-4.863c.054-.088.105-.178.154-.269a70.93,70.93,0,0,0,4.618-11.263V332.9c-3.239.049-5.71.811-7.547,2.323-1.308,1.078-4.109,4.21-1.9,10.028.965,2.559,3.7,6.875,11.14,6.875.148,0,.3,0,.45-.005.054,0,.108,0,.161-.006a30.94,30.94,0,0,0,10.352-2.005c.09-.039.179-.08.267-.124a11.886,11.886,0,0,0,5.626-5.619,19.209,19.209,0,0,0,1.466-8.19V317.041q.876,2.169,1.938,4.917c1.229,3.46,2.107,6.142,2.611,7.975.973,4.452,3.354,6.318,5.192,7.1a8.456,8.456,0,0,0,3.333.658,12.713,12.713,0,0,0,5.021-1.153,10.818,10.818,0,0,0,5.415-4.016,9.084,9.084,0,0,0,.954-7.456l-.036-.136a121.736,121.736,0,0,0-8.958-21.764l-.026-.051a9.262,9.262,0,0,0-8.382-5.384h0a11.46,11.46,0,0,0-3.853.712,12.339,12.339,0,0,0-3.208,1.69V293.07c0-6.08-3.929-10.009-10.009-10.009Z"/>
        </g>
        <g id="组_134" data-name="组 134">
          <path id="路径_322" data-name="路径 322" class="cls-1" d="M454.664,349.808c-5.4,0-7.416-3.137-8.137-5.006-1.6-3.945-.066-6.047.989-6.946,1.361-1.158,3.316-1.721,5.976-1.721.231,0,.467.005.712.013h1.246v-2.174H438.594c-4.2,0-6.7-2.507-6.7-6.7s2.507-6.705,6.7-6.705h16.87a4.624,4.624,0,0,1,.245-1.185h-5.737c-3.479,0-5.74-1.839-6.274-5a7.155,7.155,0,0,1-4.486,1.351c-4.237,0-6.767-2.506-6.767-6.705v-7.916a6.64,6.64,0,0,1,1.82-4.741,6.355,6.355,0,0,1,4.212-1.884,4.756,4.756,0,0,1-.476-3.537,5.05,5.05,0,0,1,3.02-3.306s1.223-.613,1.258-.629a5.887,5.887,0,0,1,2.4-.511,7.093,7.093,0,0,1,3.489.989,12.355,12.355,0,0,1,4.1,3.714,8.006,8.006,0,0,1,1.3,3.262h.809l-.022-.04a6,6,0,0,1-.562-4.854,5.583,5.583,0,0,1,3.508-3.411c.035-.014.85-.286.85-.286a6.575,6.575,0,0,1,5.616.509,10.119,10.119,0,0,1,3.784,3.914,7.241,7.241,0,0,1,1.064,4.168h2.772c.907-1.515,1.6-2.763,2.062-3.722a8.064,8.064,0,0,1,3.7-4.081,6.579,6.579,0,0,1,2.811-.592,10.227,10.227,0,0,1,2.641.38c2.684.759,4.361,2.091,5.013,3.968a5.75,5.75,0,0,1-.207,4.068,5.975,5.975,0,0,1,3.855,1.7,6.1,6.1,0,0,1,1.723,4.427v8.163c0,4.354-2.623,6.953-7.015,6.953a7.66,7.66,0,0,1-4.3-1.147,5.747,5.747,0,0,1-1.429,2.465q-1.809,1.861-3.665,3.515h10.134c4.2,0,6.705,2.506,6.705,6.705s-2.507,6.7-6.705,6.7H469.788v3.869a14.054,14.054,0,0,1-1.238,6.465,8.706,8.706,0,0,1-4.724,4.019l-.1.037a29.866,29.866,0,0,1-8.651,1.439Zm24.285-41.352v-.951H477.7Zm-32.97-.888.094-.063h-.094Z"/>
          <path id="路径_323" data-name="路径 323" class="cls-2" d="M460.43,287.97a4.189,4.189,0,0,1,2.1.585,7.625,7.625,0,0,1,2.844,2.969,4.817,4.817,0,0,1,.711,3.185,2.526,2.526,0,0,1-1.762,2.195l-.123.062h8.595q1.979-3.215,2.907-5.133a5.689,5.689,0,0,1,2.5-2.906,4.081,4.081,0,0,1,1.751-.356,7.708,7.708,0,0,1,1.991.294q5.688,1.609,1.978,6.741a5.265,5.265,0,0,0-.525.68,5.322,5.322,0,0,1-.526.68h3.958a3.409,3.409,0,0,1,3.648,3.648v8.163q0,4.453-4.513,4.453t-4.515-4.453v-2.226q0-1.545-1.484-1.546h-35q-1.484,0-1.484,1.546v2.474q0,4.206-4.267,4.205t-4.267-4.205v-7.916a4.12,4.12,0,0,1,1.113-3,3.956,3.956,0,0,1,2.969-1.144h3.9q-.311-.557-.99-1.639t-.928-1.515a2.58,2.58,0,0,1-.587-2.226,2.661,2.661,0,0,1,1.639-1.67l1.236-.618a3.377,3.377,0,0,1,1.385-.3,4.635,4.635,0,0,1,2.264.668,9.851,9.851,0,0,1,3.278,2.968,5.212,5.212,0,0,1,.9,2.412A1.893,1.893,0,0,1,450.1,296.9l-.124.062h8.287a23.815,23.815,0,0,0-1.732-3.772,3.518,3.518,0,0,1-.371-2.814,3.172,3.172,0,0,1,2.041-1.886l.742-.247a4.306,4.306,0,0,1,1.491-.277m14.113,20.7a1.605,1.605,0,0,1,1.031.36l2.35,1.793a3.2,3.2,0,0,1,1.392,2.164,2.845,2.845,0,0,1-.9,2.35,61.7,61.7,0,0,1-9.029,7.731h17.316q4.2,0,4.205,4.205t-4.205,4.2H467.288v6.369a11.834,11.834,0,0,1-.959,5.318,6.265,6.265,0,0,1-3.432,2.845,27.3,27.3,0,0,1-7.916,1.3c-.107,0-.213,0-.317,0q-4.491,0-5.8-3.406-1.175-2.907.278-4.143a6.716,6.716,0,0,1,4.355-1.124q.3,0,.624.011h2.226a2.3,2.3,0,0,0,1.268-.247,1,1,0,0,0,.339-.866v-6.06H438.594q-4.206,0-4.2-4.2t4.2-4.205h19.355v-2.1q0-1.67,1.732-1.67h2.226A37.9,37.9,0,0,0,465,316.878H449.972q-3.9,0-3.9-4.019,0-3.9,3.9-3.9h23.005l1.113-.248a2.2,2.2,0,0,1,.453-.05m-14.113-25.7a9.29,9.29,0,0,0-3.129.552l-.683.227c-.073.025-.146.051-.218.079a8.471,8.471,0,0,0-4.278,3.447,14.952,14.952,0,0,0-2.729-1.964,9.573,9.573,0,0,0-4.715-1.31,8.367,8.367,0,0,0-3.414.727c-.07.031-.14.064-.208.1l-1.167.584a7.539,7.539,0,0,0-4.3,4.894,7,7,0,0,0-.211,2.354,8.578,8.578,0,0,0-2.9,1.964,9.093,9.093,0,0,0-2.531,6.487v7.916c0,5,2.91,8.419,7.552,9.086-4.963.445-8.108,3.94-8.108,9.157,0,5.591,3.613,9.2,9.2,9.2h6.754c-1.325,1.4-3.1,4.38-1.139,9.267,1.628,4.175,5.436,6.568,10.455,6.568.147,0,.3,0,.446-.006l.066,0a31.873,31.873,0,0,0,9.385-1.58c.066-.023.131-.047.2-.073a11.129,11.129,0,0,0,6.015-5.191,16.427,16.427,0,0,0,1.517-7.614v-1.369h14.418c5.591,0,9.205-3.614,9.205-9.2,0-5.239-3.172-8.741-8.171-9.163,4.757-.689,7.737-4.2,7.737-9.328v-8.163a8.509,8.509,0,0,0-2.452-6.193,8.242,8.242,0,0,0-2.649-1.775,7.6,7.6,0,0,0-.407-3.048c-.644-1.851-2.322-4.316-6.664-5.544l-.06-.017a12.729,12.729,0,0,0-3.292-.466,9.056,9.056,0,0,0-3.87.827,10.5,10.5,0,0,0-4.907,5.3c-.166.343-.37.737-.61,1.179a10.524,10.524,0,0,0-.871-1.864,12.562,12.562,0,0,0-4.686-4.8,9.138,9.138,0,0,0-4.579-1.246Zm22.225,35.093c.061-.08.121-.161.179-.242a10.713,10.713,0,0,0,1.081.242Zm-41.422,0a10.466,10.466,0,0,0,1.055-.239c.046.08.093.16.142.239Z"/>
        </g>
        <g id="组_135" data-name="组 135">
          <path id="路径_324" data-name="路径 324" class="cls-1" d="M502.8,349.1a6.528,6.528,0,0,1-6.454-4.518l-.092-.185a4.634,4.634,0,0,1,2.756-7.314,9.253,9.253,0,0,1-1.06-.982,5.174,5.174,0,0,1-.662-6.442c.071-.119.138-.235.2-.348-2.441-.776-3.882-2.884-3.882-5.879,0-2.8,1.288-4.823,3.492-5.685a8.375,8.375,0,0,1-1.278-1.524c-1.367-2.111-1.755-3.995-1.172-5.629.532-1.485,1.8-2.734,3.894-3.82l.1-.062c-2.579-.678-4.111-2.793-4.111-5.852a5.66,5.66,0,0,1,3.039-5.46q-.182-.426-.383-.88a5.23,5.23,0,0,1-.279-4.46,5.354,5.354,0,0,1,3.322-3.042,6.707,6.707,0,0,1,2.483-.5,5.79,5.79,0,0,1,2.557.592,6.578,6.578,0,0,1,1.249.8c1.007-2.136,3.11-3.34,6.034-3.34,2.745,0,4.754,1.1,5.789,3.068a5.544,5.544,0,0,1,3.831-1.511,7.486,7.486,0,0,1,2.645.523,5.743,5.743,0,0,1,3.835,3.691,6.154,6.154,0,0,1-1.085,5.061,5.31,5.31,0,0,1,.824.489q.395-1.842.735-3.816a8.11,8.11,0,0,1,2.54-5.17,6.654,6.654,0,0,1,4.511-1.653,9.008,9.008,0,0,1,1.2.083,6.966,6.966,0,0,1,4.9,2.588,7.1,7.1,0,0,1,1.067,5.54q-.205,1.259-.465,2.548h8.509a6.275,6.275,0,0,1,5.043,2.2,7.775,7.775,0,0,1,1.662,5.125c0,2.969-1.342,5.057-3.616,5.825a75,75,0,0,1-5.573,20.321,28.2,28.2,0,0,0,3.834,4.157c2.259,1.566,3.6,3.175,4.087,4.919.546,1.946-.043,4.116-1.75,6.45-1.6,2.03-3.363,3.057-5.3,3.125l-.213,0a8.615,8.615,0,0,1-5.3-2.153l-.08-.066a43.029,43.029,0,0,1-4.026-3.959,43.313,43.313,0,0,1-7.116,5.55l-.089.053a7.618,7.618,0,0,1-3.756,1.086,5.947,5.947,0,0,1-4.445-1.983,5.033,5.033,0,0,1-3.068,1.341c-.115.007-.224.011-.331.011a4.359,4.359,0,0,1-2.98-1.133c-1.359-.986-2.3-1.664-2.953-2.127a36.681,36.681,0,0,1-10.18,4.045A11.023,11.023,0,0,1,502.8,349.1Zm22.629-14.1a24.954,24.954,0,0,0,3.863-2.765,29.053,29.053,0,0,0,3.2-3.116q-.9-2.155-1.684-4.5a5.306,5.306,0,0,1-4.978,4.995,32.748,32.748,0,0,1-1.529,4.655C524.617,334.484,524.99,334.724,525.424,335.005Zm-3.775-17.72a5.491,5.491,0,0,1-.3-1.04c-.013-.072-.024-.143-.034-.214a5.609,5.609,0,0,1-2.365-.808,5.307,5.307,0,0,1-1.019,2.062Z"/>
          <path id="路径_325" data-name="路径 325" class="cls-2" d="M512.555,287.071q4.082,0,4.081,4.144v4.205A40.2,40.2,0,0,0,518.8,291.4q1.135-2.773,3.375-2.773a4.976,4.976,0,0,1,1.758.361q4.2,1.608,1.05,5.751-.988,1.361-1.978,2.535h1.546q3.586,0,3.586,3.587t-3.586,3.587H519.6q.864.432,2.473,1.391t1.856,1.082q1.668,1.053,1.731,2.1a4.3,4.3,0,0,1-1.237,2.659,3.984,3.984,0,0,1-2.5,1.855,1.833,1.833,0,0,1-.2.01,4.236,4.236,0,0,1-2.617-1.309q-.99-.927-2.474-2.164v3.587a2.878,2.878,0,0,1-3.092,3.092h-1.855l2.1.433q1.793.434,1.051,1.979l-.309.618H527.4q-1.854-1.731-2.6-2.35a2.576,2.576,0,0,1-.989-1.639,2.215,2.215,0,0,1,.432-1.824q4.947-7.545,7.359-21.52a5.7,5.7,0,0,1,1.732-3.68,4.125,4.125,0,0,1,2.848-1.019,6.52,6.52,0,0,1,.863.06q4.575.62,3.834,5.257-.434,2.659-1.114,5.442h11.627a3.835,3.835,0,0,1,3.122,1.3,5.34,5.34,0,0,1,1.083,3.525q0,3.65-3.216,3.649h-.124q-1.794,13.852-6.246,22.757a31.3,31.3,0,0,0,5.2,5.875q2.721,1.855,3.216,3.618t-1.361,4.3a4.645,4.645,0,0,1-3.37,2.1l-.125,0a6.212,6.212,0,0,1-3.74-1.61,37.979,37.979,0,0,1-5.5-5.813,40.746,40.746,0,0,1-8.6,7.173,5.146,5.146,0,0,1-2.523.761,3.477,3.477,0,0,1-.878-.111,3.763,3.763,0,0,1-2.412-2.072c-.083-.123-.216-.33-.4-.618s-.32-.495-.4-.618l-1.917,1.978a2.556,2.556,0,0,1-1.669.8q-.084.006-.165.006a1.879,1.879,0,0,1-1.381-.562q-3.836-2.783-4.515-3.216a31.693,31.693,0,0,1-10.822,4.638,8.368,8.368,0,0,1-1.844.226,4.084,4.084,0,0,1-4.154-3.009l-.186-.371q-1.917-3.339,2.474-4.019a32.655,32.655,0,0,0,6.679-2.041l-2.041-.928a1.018,1.018,0,0,1-.993.633,2.368,2.368,0,0,1-.739-.138,8.556,8.556,0,0,1-4.05-2.319,2.7,2.7,0,0,1-.34-3.494q1.606-2.721,2.1-3.772h-1.793q-3.649,0-3.649-3.711,0-3.648,3.649-3.648h5.5l1.546-3.092a1.136,1.136,0,0,1,1.035-.777,1.53,1.53,0,0,1,.511.1V311.56a46.174,46.174,0,0,1-5.133,4.144,4.892,4.892,0,0,1-2.621.977,2.731,2.731,0,0,1-.316-.019,3.57,3.57,0,0,1-2.381-1.824q-1.36-2.1-.9-3.4a5.237,5.237,0,0,1,2.752-2.473,32.421,32.421,0,0,0,5.875-4.514h-5.071q-3.525,0-3.525-3.587t3.525-3.587h.433q-.557-1.606-1.546-3.834a2.8,2.8,0,0,1-.217-2.443,2.928,2.928,0,0,1,1.887-1.639,4.243,4.243,0,0,1,1.6-.339,3.3,3.3,0,0,1,1.461.339,4.8,4.8,0,0,1,2.2,2.412,4.419,4.419,0,0,1,.371,3.34,3.373,3.373,0,0,1-2.35,2.164h3.958v-6.06q0-4.143,4.2-4.144m4.081,10.2h4.02q-2.473-1.05-3.154-1.361a1.164,1.164,0,0,0-.441-.111q-.424,0-.425.606v.866m26.22,9.709h-5.132a109.776,109.776,0,0,0,2.906,11.564,72.758,72.758,0,0,0,2.226-11.564m-12.994,14.851a.651.651,0,0,1-.116-.01,1.3,1.3,0,0,1-.742-.494l-.68-.68v3.4a3.047,3.047,0,0,1-.835,2.257,2.965,2.965,0,0,1-2.2.835H523.81a29.733,29.733,0,0,1-2.721,8.1q.8.434,4.205,2.659a26.344,26.344,0,0,0,5.627-3.772,26.811,26.811,0,0,0,4.453-4.638,63.134,63.134,0,0,1-3.463-9.895,3.1,3.1,0,0,1-.31.588,5.3,5.3,0,0,1-.525.773,7.827,7.827,0,0,1-.587.587.938.938,0,0,1-.627.288m-14.525,5.309h-4.7l-1.175,2.35q.679.248,2.164.866l2.041.927a22.253,22.253,0,0,0,1.669-4.143m-2.782-45.073a9.232,9.232,0,0,0-6.754,2.543,8.252,8.252,0,0,0-3.086-.594,9.2,9.2,0,0,0-3.369.662,7.912,7.912,0,0,0-4.751,4.435,7.643,7.643,0,0,0-.108,5.423,8.582,8.582,0,0,0-2.454,6.322,8.71,8.71,0,0,0,2.127,5.985,7.832,7.832,0,0,0-1.866,2.906c-.821,2.3-.425,4.8,1.177,7.435a8.654,8.654,0,0,0-2.366,6.245,8.5,8.5,0,0,0,3.163,6.992,7.546,7.546,0,0,0,.816,6.014,6.72,6.72,0,0,0-1.557,2.091,7.355,7.355,0,0,0,.512,7.039l.011.023a8.977,8.977,0,0,0,8.745,6.01,13.37,13.37,0,0,0,2.95-.35l.107-.025a41.259,41.259,0,0,0,9.418-3.506c.436.314.948.684,1.547,1.118a6.9,6.9,0,0,0,4.54,1.677c.162,0,.326-.006.493-.017a7.374,7.374,0,0,0,2.729-.718,8.475,8.475,0,0,0,4.623,1.366,10.07,10.07,0,0,0,4.988-1.411c.061-.034.121-.07.18-.107a45.55,45.55,0,0,0,5.66-4.168q1.2,1.2,2.523,2.346c.053.046.106.09.161.134a11.029,11.029,0,0,0,6.851,2.695c.1,0,.2,0,.3,0,1.862-.065,4.608-.813,7.123-4.005.037-.046.073-.094.108-.142,2.184-2.985,2.9-5.878,2.14-8.6-.645-2.293-2.264-4.327-4.945-6.212a24.932,24.932,0,0,1-2.485-2.565,78.4,78.4,0,0,0,4.946-18.248c2.4-1.422,3.845-4.1,3.845-7.523a10.2,10.2,0,0,0-2.24-6.724,8.7,8.7,0,0,0-6.965-3.1h-5.525a8.9,8.9,0,0,0-8.152-10.654,11.527,11.527,0,0,0-1.533-.105,9.125,9.125,0,0,0-6.175,2.286,9.729,9.729,0,0,0-1.111,1.169,10.66,10.66,0,0,0-6.72-2.58,8.265,8.265,0,0,0-3.268.685,9.173,9.173,0,0,0-6.352-2.242Z"/>
        </g>
        <g id="组_136" data-name="组 136">
          <path id="路径_326" data-name="路径 326" class="cls-1" d="M581.312,349.808c-5.4,0-7.416-3.137-8.137-5.006-1.595-3.945-.065-6.048.991-6.946,1.359-1.158,3.314-1.721,5.975-1.721.231,0,.467.005.712.013H582.1v-2.174H565.243c-4.2,0-6.706-2.507-6.706-6.7s2.507-6.705,6.706-6.705h16.87a4.545,4.545,0,0,1,.245-1.185h-5.737c-3.479,0-5.741-1.839-6.274-5a7.157,7.157,0,0,1-4.486,1.351c-4.237,0-6.767-2.506-6.767-6.705v-7.916a6.641,6.641,0,0,1,1.82-4.741,6.355,6.355,0,0,1,4.212-1.884,4.758,4.758,0,0,1-.477-3.537,5.052,5.052,0,0,1,3.021-3.306s1.223-.613,1.258-.629a5.887,5.887,0,0,1,2.4-.511,7.1,7.1,0,0,1,3.489.989,12.382,12.382,0,0,1,4.1,3.713,8.03,8.03,0,0,1,1.3,3.263h.808l-.022-.04a6.01,6.01,0,0,1-.562-4.855,5.584,5.584,0,0,1,3.508-3.41c.036-.014.851-.286.851-.286a6.575,6.575,0,0,1,5.616.509A10.119,10.119,0,0,1,594.2,290.3a7.251,7.251,0,0,1,1.064,4.168h2.771c.909-1.518,1.6-2.766,2.062-3.721a8.057,8.057,0,0,1,3.7-4.082,6.568,6.568,0,0,1,2.81-.592,10.238,10.238,0,0,1,2.641.38c2.684.759,4.361,2.091,5.013,3.968a5.755,5.755,0,0,1-.207,4.068,5.973,5.973,0,0,1,3.855,1.7,6.1,6.1,0,0,1,1.722,4.427v8.163c0,4.354-2.622,6.953-7.014,6.953a7.663,7.663,0,0,1-4.3-1.147,5.741,5.741,0,0,1-1.429,2.466q-1.809,1.86-3.664,3.514h10.133c4.2,0,6.705,2.506,6.705,6.705s-2.506,6.7-6.705,6.7H596.437v3.869a14.059,14.059,0,0,1-1.238,6.466,8.706,8.706,0,0,1-4.723,4.018l-.1.037a29.865,29.865,0,0,1-8.651,1.439ZM605.6,308.456v-.951h-1.246Zm-32.97-.888.094-.063h-.094Z"/>
          <path id="路径_327" data-name="路径 327" class="cls-2" d="M587.079,287.97a4.182,4.182,0,0,1,2.1.585,7.62,7.62,0,0,1,2.845,2.969,4.817,4.817,0,0,1,.711,3.185,2.528,2.528,0,0,1-1.762,2.195l-.124.062h8.6q1.978-3.215,2.906-5.133a5.7,5.7,0,0,1,2.505-2.906,4.078,4.078,0,0,1,1.751-.356,7.7,7.7,0,0,1,1.99.294q5.69,1.609,1.979,6.741a5.091,5.091,0,0,0-.525.68,5.33,5.33,0,0,1-.526.68h3.957a3.409,3.409,0,0,1,3.649,3.648v8.163q0,4.453-4.514,4.453t-4.514-4.453v-2.226q0-1.545-1.484-1.546h-35q-1.485,0-1.484,1.546v2.474q0,4.206-4.267,4.205t-4.267-4.205v-7.916a4.12,4.12,0,0,1,1.113-3,3.955,3.955,0,0,1,2.968-1.144h3.9q-.309-.557-.989-1.639t-.928-1.515a2.576,2.576,0,0,1-.587-2.226,2.656,2.656,0,0,1,1.639-1.67l1.236-.618a3.373,3.373,0,0,1,1.385-.3,4.638,4.638,0,0,1,2.264.668,9.838,9.838,0,0,1,3.277,2.968,5.2,5.2,0,0,1,.9,2.412,1.89,1.89,0,0,1-1.02,1.855l-.124.062h8.287a23.9,23.9,0,0,0-1.732-3.772,3.514,3.514,0,0,1-.371-2.814,3.172,3.172,0,0,1,2.041-1.886l.742-.247a4.3,4.3,0,0,1,1.491-.277m14.113,20.7a1.605,1.605,0,0,1,1.031.36l2.35,1.793a3.2,3.2,0,0,1,1.391,2.164,2.843,2.843,0,0,1-.9,2.35,61.756,61.756,0,0,1-9.029,7.731h17.315q4.2,0,4.205,4.205t-4.205,4.2H593.936v6.369a11.835,11.835,0,0,1-.958,5.318,6.268,6.268,0,0,1-3.432,2.845,27.315,27.315,0,0,1-7.916,1.3c-.107,0-.213,0-.318,0q-4.49,0-5.8-3.406-1.176-2.907.278-4.143a6.712,6.712,0,0,1,4.355-1.124q.3,0,.624.011h2.226a2.3,2.3,0,0,0,1.267-.247,1,1,0,0,0,.34-.866v-6.06H565.243q-4.207,0-4.206-4.2t4.206-4.205H584.6v-2.1q0-1.67,1.732-1.67h2.226a38.055,38.055,0,0,0,3.092-2.412H576.621q-3.9,0-3.9-4.019,0-3.9,3.9-3.9h23l1.114-.248a2.2,2.2,0,0,1,.453-.05m-14.113-25.7a9.285,9.285,0,0,0-3.129.552l-.683.227c-.074.025-.146.051-.218.079a8.471,8.471,0,0,0-4.278,3.447,14.985,14.985,0,0,0-2.729-1.964,9.573,9.573,0,0,0-4.715-1.31,8.367,8.367,0,0,0-3.414.727c-.071.031-.14.064-.208.1l-1.168.584a7.536,7.536,0,0,0-4.3,4.894,6.976,6.976,0,0,0-.212,2.354,8.578,8.578,0,0,0-2.9,1.964,9.1,9.1,0,0,0-2.53,6.487v7.916c0,5,2.91,8.419,7.551,9.086-4.963.445-8.108,3.94-8.108,9.157,0,5.591,3.614,9.2,9.206,9.2H572c-1.325,1.4-3.1,4.379-1.139,9.267,1.627,4.175,5.435,6.568,10.454,6.568q.22,0,.447-.006l.066,0a31.885,31.885,0,0,0,9.385-1.58c.065-.023.13-.047.2-.073a11.127,11.127,0,0,0,6.014-5.191,16.427,16.427,0,0,0,1.517-7.614v-1.369h14.418c5.592,0,9.205-3.614,9.205-9.2,0-5.239-3.171-8.741-8.17-9.163,4.756-.689,7.737-4.2,7.737-9.328v-8.163a8.5,8.5,0,0,0-2.452-6.192,8.239,8.239,0,0,0-2.649-1.776,7.621,7.621,0,0,0-.407-3.048c-.644-1.851-2.323-4.316-6.665-5.544l-.059-.017a12.735,12.735,0,0,0-3.292-.466,9.056,9.056,0,0,0-3.87.827,10.5,10.5,0,0,0-4.907,5.3q-.249.516-.61,1.179a10.5,10.5,0,0,0-.871-1.862,12.553,12.553,0,0,0-4.686-4.8,9.143,9.143,0,0,0-4.579-1.246ZM609.3,318.063c.062-.08.122-.161.18-.242a10.655,10.655,0,0,0,1.081.242Zm-41.421,0a10.446,10.446,0,0,0,1.054-.239c.046.08.094.16.143.239Z"/>
        </g>
        <g id="组_137" data-name="组 137">
          <path id="路径_328" data-name="路径 328" class="cls-1" d="M628.443,324.2c-4.7,0-7.509-2.83-7.509-7.571,0-4.7,2.807-7.509,7.509-7.509H676.8c4.7,0,7.51,2.807,7.51,7.509,0,4.741-2.808,7.571-7.51,7.571Z"/>
          <path id="路径_329" data-name="路径 329" class="cls-2" d="M676.8,311.622q5.01,0,5.009,5.009,0,5.071-5.009,5.071H628.443q-5.01,0-5.009-5.071,0-5.009,5.009-5.009H676.8m0-5H628.443c-6.08,0-10.009,3.929-10.009,10.009,0,6.118,3.929,10.071,10.009,10.071H676.8c6.081,0,10.009-3.953,10.009-10.071,0-6.08-3.928-10.009-10.009-10.009Z"/>
        </g>
        <g id="组_138" data-name="组 138">
          <path id="路径_330" data-name="路径 330" class="cls-1" d="M719.472,349.8c-4.509,0-7.2-2.669-7.2-7.138v-5.849h-21c-4.353,0-6.952-2.576-6.952-6.891,0-4.353,2.6-6.952,6.952-6.952h2.757v-7.8l-.107,0a6.533,6.533,0,0,1-4.087-1.6c-2.351-1.828-3.632-3.847-3.782-5.98a7.071,7.071,0,0,1,2.235-5.426,46.76,46.76,0,0,0,6.838-11.613c1.634-4.5,4.977-5.176,6.83-5.176a10.023,10.023,0,0,1,2.414.317,6.876,6.876,0,0,1,4.711,3.277,5.519,5.519,0,0,1,.62,2.276h27.148c4.353,0,6.952,2.6,6.952,6.953,0,4.314-2.6,6.89-6.952,6.89H726.672v1.494h8.816c4.238,0,6.767,2.506,6.767,6.7,0,4.276-2.529,6.829-6.767,6.829h-8.816v2.853H740.5c4.354,0,6.953,2.6,6.953,6.952,0,4.315-2.6,6.891-6.953,6.891H726.672v5.849C726.672,347.135,723.98,349.8,719.472,349.8Zm-7.2-26.83v-2.853h-4.09v2.853Zm0-16.387v-1.494H703.78q-.458.773-.909,1.494Z"/>
          <path id="路径_331" data-name="路径 331" class="cls-2" d="M701.956,287.88a7.475,7.475,0,0,1,1.809.243q4.638,1.176,3.03,5.5c0,.041-.011.061-.032.061s-.03.022-.03.062h30.115q4.453,0,4.453,4.453,0,4.392-4.453,4.39H724.172v6.494h11.316q4.268,0,4.267,4.2,0,4.329-4.267,4.328H724.172v7.854H740.5q4.453,0,4.453,4.452,0,4.394-4.453,4.391H724.172v8.349q0,4.638-4.7,4.638t-4.7-4.638v-8.349h-23.5q-4.452,0-4.452-4.391,0-4.452,4.452-4.452h5.257V311.251l-.061.062v.062a3.481,3.481,0,0,1-2.546,1.3,4.111,4.111,0,0,1-2.526-1.055q-5.008-3.9-1.236-7.792a49.027,49.027,0,0,0,7.3-12.368q1.275-3.58,4.5-3.582m-3.819,21.207h16.635v-6.494h-12.43a59.9,59.9,0,0,1-4.2,6.494m7.544,16.387h9.091V317.62h-9.091v7.854m-3.725-42.594h0c-4.243,0-7.574,2.463-9.158,6.762a44.307,44.307,0,0,1-6.389,10.877,9.461,9.461,0,0,0-2.849,7.252c.2,2.863,1.8,5.48,4.741,7.778a9.983,9.983,0,0,0,3.228,1.761v3.164h-.257c-5.742,0-9.452,3.71-9.452,9.452,0,5.705,3.71,9.391,9.452,9.391h18.5v3.349c0,5.855,3.807,9.638,9.7,9.638s9.7-3.783,9.7-9.638v-3.349H740.5c5.743,0,9.453-3.686,9.453-9.391,0-5.316-3.18-8.89-8.208-9.391a9.179,9.179,0,0,0,3.013-7.243,9.086,9.086,0,0,0-2.773-6.938c2.721-1.534,4.319-4.408,4.319-8.151,0-5.743-3.71-9.453-9.453-9.453H711.71a7.59,7.59,0,0,0-.416-.938,9.244,9.244,0,0,0-6.3-4.536,12.541,12.541,0,0,0-3.037-.4Zm5.094,15.8Zm-.008,0h0Z"/>
        </g>
        <g id="组_139" data-name="组 139">
          <path id="路径_332" data-name="路径 332" class="cls-1" d="M773.993,348.52a7.776,7.776,0,0,1-4.347-1.557c-2.205-1.549-3.372-3.325-3.505-5.3v0c-2.914,1.327-5.694,2.574-8.309,3.728a8.168,8.168,0,0,1-3.285.778c-1.67,0-4.631-.7-5.768-5.391a7.534,7.534,0,0,1-.035-4.924,5.533,5.533,0,0,1,2.861-2.933l-.012,0c-1.612-.55-2.833-2.011-3.629-4.341a7.634,7.634,0,0,1-.267-5.112,7.551,7.551,0,0,1,3.214-3.649c.464-.476.953-1.021,1.455-1.624.028-.033.056-.066.085-.1q.4-.431.921-1.087a4.808,4.808,0,0,1-1.954-.387,12.07,12.07,0,0,1-1.216-.663,4.979,4.979,0,0,1-1.784-1.887,12.534,12.534,0,0,1-.814-1.846,9.417,9.417,0,0,1-.608-2.93,6.617,6.617,0,0,1,.554-2.917,12.284,12.284,0,0,1,.9-1.705,15.872,15.872,0,0,1,1.174-1.547c.518-.616.69-.864.732-.925a63,63,0,0,0,5.365-10.684,9.124,9.124,0,0,1,3.586-4.872,5.923,5.923,0,0,1,3.247-.969,7.08,7.08,0,0,1,3.092.761c3.752,1.756,5,5.127,3.3,9-.016.038-.035.077-.053.115q-.821,1.639-1.653,3.181a5.375,5.375,0,0,1,.949-.084,7.221,7.221,0,0,1,4.005,1.378l.158.1a6.889,6.889,0,0,1-1.7-4.894c0-4.237,2.507-6.767,6.705-6.767h20.84a5.853,5.853,0,0,1,6.09,7.486c-.439,1.762-1.14,4.49-2.112,8.222H803.7a5.858,5.858,0,0,1,5.027,2.367,7.414,7.414,0,0,1,.963,5.748,71.531,71.531,0,0,1-7.05,20.03,33.478,33.478,0,0,0,3.079,2.2c2.334,1.315,3.737,2.791,4.289,4.51.612,1.913.054,4.022-1.661,6.269a7.167,7.167,0,0,1-4.657,2.883,5.912,5.912,0,0,1-.709.042,8.457,8.457,0,0,1-4.439-1.456c-.036-.022-.071-.045-.106-.07-1.669-1.165-3.059-2.2-4.2-3.129-1.193,1.144-2.537,2.307-4.017,3.475-.053.042-.108.081-.163.119a6.938,6.938,0,0,1-3.885,1.23,6.678,6.678,0,0,1-.9-.061,6.592,6.592,0,0,1-4.32-2.574c-.35-.42-.706-.821-1.064-1.2l-.053.092a2.516,2.516,0,0,1-.137.214,8.122,8.122,0,0,1-4.458,3.508A5.165,5.165,0,0,1,773.993,348.52Zm-2.189-21.3c.082.041.167.085.253.133q.145-.468.288-.95a10.107,10.107,0,0,1-.838.683C771.606,327.124,771.706,327.169,771.8,327.216Zm18.8-10.447a45.834,45.834,0,0,0,2.4,4.533q.93-2.062,1.686-4.274h-2A7.98,7.98,0,0,1,790.6,316.769Zm-20.529-1.16a5.082,5.082,0,0,1,2.238.8,4.74,4.74,0,0,1,1.825,2.366,140.339,140.339,0,0,0,1.944-16.856,6.737,6.737,0,0,1-2.6-.885c2.193,2.109,2.54,4.985.854,7.934Q772.144,312.576,770.072,315.609Z"/>
          <path id="路径_333" data-name="路径 333" class="cls-2" d="M762.552,288.169a4.587,4.587,0,0,1,2,.51q3.834,1.8,2.1,5.751a85.473,85.473,0,0,1-7.174,12.059l4.02-.247c.163-.288.391-.7.68-1.237s.515-.948.68-1.237q1.35-2.622,3.326-2.623a4.781,4.781,0,0,1,2.611.954q3.339,2.164,1.36,5.627a114.463,114.463,0,0,1-7.729,11.379l3.091-.8a7.476,7.476,0,0,1,1.745-.239,2.939,2.939,0,0,1,1.656.424q1.114.742,1.175,2.969a3.8,3.8,0,0,1-1.3,2.968,7.821,7.821,0,0,1-3.278,1.855q-3.71,1.053-10.7,3.34a1.886,1.886,0,0,1-.433.123,1.966,1.966,0,0,0-.433.124,6.645,6.645,0,0,1-2.767.8,2.428,2.428,0,0,1-.789-.122q-1.269-.432-2.071-2.783a5.365,5.365,0,0,1-.278-3.463,5.492,5.492,0,0,1,2.443-2.535q.864-.865,1.792-1.979a57.081,57.081,0,0,0,4.33-5.751q-.621.062-1.856.216t-1.7.186c-.308.021-.752.041-1.329.061-.083,0-.164.005-.241.005a2.556,2.556,0,0,1-1.027-.159,9.8,9.8,0,0,1-.959-.526,2.513,2.513,0,0,1-.9-.958,10.272,10.272,0,0,1-.65-1.484,6.933,6.933,0,0,1-.463-2.165,4.118,4.118,0,0,1,.34-1.824,10.016,10.016,0,0,1,.711-1.36,13.752,13.752,0,0,1,.99-1.3q.649-.772.9-1.144a65.311,65.311,0,0,0,5.627-11.193,6.71,6.71,0,0,1,2.6-3.649,3.447,3.447,0,0,1,1.9-.572m35.642,2.8a3.725,3.725,0,0,1,3.092,1.237,3.664,3.664,0,0,1,.556,3.216q-.8,3.216-2.906,11.255H803.7a3.446,3.446,0,0,1,3,1.329,5.052,5.052,0,0,1,.527,3.865,66.8,66.8,0,0,1-7.792,21.026,38.645,38.645,0,0,0,5.009,3.772q2.658,1.485,3.185,3.123t-1.268,3.989a4.7,4.7,0,0,1-2.969,1.917,3.461,3.461,0,0,1-.41.024,6.019,6.019,0,0,1-3.114-1.076,49.478,49.478,0,0,1-5.752-4.514,47.059,47.059,0,0,1-5.442,4.948,4.452,4.452,0,0,1-2.5.811,4.257,4.257,0,0,1-.562-.038,4.063,4.063,0,0,1-2.691-1.639,23.623,23.623,0,0,0-3.709-3.649q-.558,1.113-1.546,2.845a5.888,5.888,0,0,1-3.031,2.535,2.633,2.633,0,0,1-.64.077,5.481,5.481,0,0,1-2.947-1.128q-2.288-1.609-2.411-3.4a6,6,0,0,1,1.67-4.02c.04-.082.092-.186.154-.309l.154-.309q-7.483,3.463-13.79,6.246a5.717,5.717,0,0,1-2.276.565q-2.512,0-3.351-3.534a5.3,5.3,0,0,1-.124-3.37,3.708,3.708,0,0,1,2.474-1.948q6.367-2.349,13.6-5.256a5.781,5.781,0,0,1,2.048-.426,3.389,3.389,0,0,1,1.507.333,3.8,3.8,0,0,1,1.948,2.69l.124.495q4.884-11.441,5.936-33.146h-1.36q-4.206,0-4.205-4.268t4.205-4.267h20.84m-6.308,8.535h-4.267q-.311,6-1.174,13.666a48.4,48.4,0,0,0,6.864,13.048,50.036,50.036,0,0,0,4.761-11.688h-5.38a3.612,3.612,0,0,1-3.091-1.236,3.53,3.53,0,0,1-.372-3.216q.372-1.669,1.3-5.164t1.36-5.41m-12.492,40.752a34.648,34.648,0,0,0,8.721-6.864,43.384,43.384,0,0,1-4.145-6.37,67.9,67.9,0,0,1-4.576,13.234m-16.842-57.085a8.487,8.487,0,0,0-4.6,1.367,11.515,11.515,0,0,0-4.573,6.089,60.394,60.394,0,0,1-5.117,10.2h0s-.139.193-.552.683a18.608,18.608,0,0,0-1.361,1.8,14.9,14.9,0,0,0-1.084,2.048,9.123,9.123,0,0,0-.769,4.013,11.892,11.892,0,0,0,.761,3.714,15.079,15.079,0,0,0,.971,2.192,7.457,7.457,0,0,0,2.672,2.813l.055.033a9.513,9.513,0,0,0-3.613,4.5,10.14,10.14,0,0,0,.257,6.768A11.367,11.367,0,0,0,747.538,333a7.417,7.417,0,0,0-1.125,1.943,10.014,10.014,0,0,0-.051,6.469c1.657,6.724,6.677,7.25,8.185,7.25a10.638,10.638,0,0,0,4.306-1q2.749-1.212,5.74-2.563a11.22,11.22,0,0,0,3.577,3.877l.075.052a10.309,10.309,0,0,0,5.748,1.986,7.677,7.677,0,0,0,1.851-.225,9.025,9.025,0,0,0,4.129-2.406,8.841,8.841,0,0,0,4.954,2.415,9.181,9.181,0,0,0,1.245.085,9.378,9.378,0,0,0,5.271-1.651c.111-.074.219-.152.324-.235q1.375-1.084,2.6-2.164,1.191.9,2.635,1.9c.069.048.139.1.21.139a10.892,10.892,0,0,0,5.766,1.837,8.425,8.425,0,0,0,1.007-.06,9.5,9.5,0,0,0,6.233-3.705q.059-.07.114-.144c2.788-3.655,2.657-6.664,2.055-8.544-.751-2.339-2.515-4.268-5.391-5.9q-.574-.361-1.16-.772a75.6,75.6,0,0,0,6.286-18.726q.016-.081.03-.162a9.8,9.8,0,0,0-1.4-7.628,8.136,8.136,0,0,0-5.383-3.27c.575-2.222,1.018-3.954,1.324-5.177.012-.049.024-.1.034-.148a8.34,8.34,0,0,0-8.533-10.518h-20.84a9.39,9.39,0,0,0-6.239,2.1,9.705,9.705,0,0,0-4.412-3.9,9.538,9.538,0,0,0-4.151-1Z"/>
        </g>
        <g id="组_140" data-name="组 140">
          <path id="路径_334" data-name="路径 334" class="cls-1" d="M835.951,349.6a5.7,5.7,0,0,1-4.183-1.794c-7.622-8.366-11.461-18.628-11.461-30.554,0-11.792,3.77-22.006,11.207-30.357.022-.025.046-.05.069-.075a6,6,0,0,1,4.388-1.9,7.9,7.9,0,0,1,3,.644c2.407,1.023,3.826,2.423,4.241,4.172a5.422,5.422,0,0,1-1.453,4.84,36.869,36.869,0,0,0,0,45.347,5.422,5.422,0,0,1,1.453,4.84c-.416,1.749-1.834,3.149-4.217,4.161A7.859,7.859,0,0,1,835.951,349.6Z"/>
          <path id="路径_335" data-name="路径 335" class="cls-2" d="M835.971,287.42a5.405,5.405,0,0,1,2.048.455q4.514,1.918,1.794,5.133a39.371,39.371,0,0,0,0,48.483q2.719,3.215-1.794,5.133a5.369,5.369,0,0,1-2.068.474,3.2,3.2,0,0,1-2.384-1.031q-10.761-11.811-10.761-28.817,0-16.821,10.575-28.7a3.485,3.485,0,0,1,2.59-1.135m0-5h0a8.439,8.439,0,0,0-6.185,2.66c-.047.049-.094.1-.139.15-7.857,8.823-11.841,19.6-11.841,32.02,0,12.569,4.059,23.4,12.064,32.184l.1.105a8.148,8.148,0,0,0,5.983,2.559,10.329,10.329,0,0,0,4.012-.868c3.165-1.345,5.074-3.325,5.683-5.889a7.8,7.8,0,0,0-1.932-6.979,34.369,34.369,0,0,1,0-42.225,7.8,7.8,0,0,0,1.932-6.979c-.609-2.564-2.518-4.544-5.671-5.885l-.049-.02a10.372,10.372,0,0,0-3.955-.833Z"/>
        </g>
        <g id="组_141" data-name="组 141">
          <path id="路径_336" data-name="路径 336" class="cls-1" d="M849.954,346.65c-4.47,0-7.138-2.692-7.138-7.2,0-4.43,2.668-7.076,7.138-7.076H864.77V292.823c0-4.663,2.784-7.448,7.447-7.448s7.447,2.785,7.447,7.448v9.991h14.444c4.431,0,7.077,2.669,7.077,7.138,0,4.508-2.646,7.2-7.077,7.2H879.664v15.222H898.5c4.47,0,7.138,2.646,7.138,7.076,0,4.508-2.668,7.2-7.138,7.2Z"/>
          <path id="路径_337" data-name="路径 337" class="cls-2" d="M872.217,287.875q4.945,0,4.947,4.948v12.491h16.944q4.577,0,4.576,4.638,0,4.7-4.576,4.7H877.164v20.222H898.5q4.638,0,4.638,4.576,0,4.7-4.638,4.7H849.954q-4.638,0-4.638-4.7,0-4.577,4.638-4.576h17.315V292.823q0-4.947,4.948-4.948m0-5c-6.043,0-9.948,3.9-9.948,9.948v37.051H849.954c-5.855,0-9.638,3.759-9.638,9.576,0,5.892,3.783,9.7,9.638,9.7H898.5c5.855,0,9.638-3.808,9.638-9.7,0-5.817-3.783-9.576-9.638-9.576H882.164V319.652h11.944c5.817,0,9.576-3.807,9.576-9.7,0-5.855-3.759-9.638-9.576-9.638H882.164v-7.491c0-6.043-3.9-9.948-9.947-9.948Z"/>
        </g>
        <g id="组_142" data-name="组 142">
          <path id="路径_338" data-name="路径 338" class="cls-1" d="M912.42,349.579a7.886,7.886,0,0,1-3-.645c-2.406-1.021-3.825-2.422-4.241-4.171a5.422,5.422,0,0,1,1.453-4.84,36.862,36.862,0,0,0,0-45.347,5.422,5.422,0,0,1-1.453-4.84c.416-1.749,1.835-3.15,4.218-4.162a7.874,7.874,0,0,1,3.045-.673,5.7,5.7,0,0,1,4.184,1.8c7.621,8.364,11.461,18.626,11.461,30.553a46.342,46.342,0,0,1-3.05,17.056,42.715,42.715,0,0,1-8.183,13.328A6.034,6.034,0,0,1,912.42,349.579Z"/>
          <path id="路径_339" data-name="路径 339" class="cls-2" d="M912.44,287.4a3.2,3.2,0,0,1,2.385,1.031q10.759,11.813,10.76,28.818a43.666,43.666,0,0,1-2.876,16.14,40.039,40.039,0,0,1-7.7,12.553,3.488,3.488,0,0,1-2.59,1.136,5.406,5.406,0,0,1-2.048-.455q-4.515-1.918-1.794-5.133a39.364,39.364,0,0,0,0-48.483q-2.721-3.215,1.794-5.133a5.369,5.369,0,0,1,2.068-.474m0-5h0a10.332,10.332,0,0,0-4.01.867c-3.168,1.345-5.076,3.325-5.686,5.89a7.8,7.8,0,0,0,1.934,6.98,34.363,34.363,0,0,1,0,42.223,7.8,7.8,0,0,0-1.934,6.979c.61,2.565,2.518,4.545,5.673,5.886l.047.019a10.373,10.373,0,0,0,3.955.834,8.442,8.442,0,0,0,6.185-2.659l.09-.1a45.206,45.206,0,0,0,8.667-14.1,48.827,48.827,0,0,0,3.224-17.972c0-12.569-4.059-23.4-12.064-32.185-.032-.035-.064-.069-.1-.1a8.144,8.144,0,0,0-5.984-2.561Z"/>
        </g>
      </g>
    </g>
  </g>
</svg>
