<svg xmlns="http://www.w3.org/2000/svg" width="105.263" height="120.141" viewBox="0 0 105.263 120.141">
  <defs>
    <style>
      .cls-1 {
        fill: #fff;
      }

      .cls-2 {
        fill: #ffde78;
      }

      .cls-3 {
        fill: #e67e23;
      }

      .cls-4 {
        fill: #ff9f38;
      }

      .cls-5 {
        fill: #ffd057;
      }

      .cls-6 {
        fill: #a87c63;
      }

      .cls-7 {
        fill: #f2b446;
      }

      .cls-8 {
        fill: #faf9f7;
      }

      .cls-9 {
        fill: #a3dffd;
      }

      .cls-10 {
        fill: #ff6d6d;
      }

      .cls-11 {
        fill: #d94453;
      }

      .cls-12 {
        fill: #caced7;
      }

      .cls-13 {
        fill: #e4e7ec;
      }

      .cls-14 {
        fill: #f8c24b;
      }

      .cls-15 {
        fill: #fdd376;
      }

      .cls-16 {
        fill: #fddbae;
      }

      .cls-17 {
        fill: #656d78;
      }

      .cls-18 {
        fill: #9c835a;
      }

      .cls-19 {
        fill: #ffe2c9;
      }

      .cls-20 {
        fill: #f84f4f;
      }

      .cls-21 {
        fill: #f8c34f;
      }

      .cls-22 {
        fill: #f8934f;
      }

      .cls-23 {
        fill: #683818;
      }

      .cls-24 {
        fill: #f9fbf8;
      }

      .cls-25 {
        fill: #b36339;
      }
    </style>
  </defs>
  <g id="组_332" data-name="组 332" transform="translate(-174.359 -243.281)">
    <circle id="椭圆_124" data-name="椭圆 124" class="cls-1" cx="52.631" cy="52.631" r="52.631" transform="translate(174.359 258.159)"/>
    <circle id="椭圆_125" data-name="椭圆 125" class="cls-2" cx="46.274" cy="46.274" r="46.274" transform="translate(180.717 264.517)"/>
    <g id="组_322" data-name="组 322">
      <path id="路径_663" data-name="路径 663" class="cls-3" d="M193.515,312.392l31.146-26.019a1.616,1.616,0,0,1,2.07,0l31.179,25.986a1.634,1.634,0,0,1-1.046,2.889H194.552A1.616,1.616,0,0,1,193.515,312.392Z"/>
      <path id="路径_664" data-name="路径 664" class="cls-1" d="M202.762,282.4h45.875a1.006,1.006,0,0,1,1.144,1.131v49.625a1.006,1.006,0,0,1-1.144,1.131H202.762a1,1,0,0,1-1.144-1.131V283.533A1,1,0,0,1,202.762,282.4Z"/>
      <path id="路径_665" data-name="路径 665" class="cls-3" d="M256.409,339.977h-59.88c-2.055,0-3.72-1.116-3.719-2.494a2.482,2.482,0,0,1,1.766-2.121l58.337-24.12a5.275,5.275,0,0,1,3.765-.056c1.68.649,2,1.059,1.907,2.177V338.52c0,.8-.973,1.457-2.173,1.457Z"/>
      <path id="路径_666" data-name="路径 666" class="cls-4" d="M255.537,340.07H194.979c-1.2,0-2.174-.652-2.174-1.457V313.457c-.05-1.176.731-1.737,1.907-2.177a5.34,5.34,0,0,1,3.765.056l58.335,24.117c2.106.872,2.528,2.9.2,4.251a2.981,2.981,0,0,1-1.471.366Z"/>
      <g id="组_318" data-name="组 318">
        <path id="路径_667" data-name="路径 667" class="cls-5" d="M237.16,280.727l1.563,1.331.4.346.852.723.4.339.83.708.4.346.857.722.4.345.9.768.4.339.816.7.4.344.786.672.4.344.793.676.4.339.824.7.4.339.922.79.4.339,3.044,2.594-5.594-18.117-11.509,3.554Zm9.321-.678,2.141,6.934-6.545-5.575Z"/>
        <g id="组_317" data-name="组 317">
          <g id="组_307" data-name="组 307">
            <path id="路径_668" data-name="路径 668" class="cls-6" d="M250.394,291.061l.4.352-.466.524-.4-.339Z"/>
          </g>
          <g id="组_308" data-name="组 308">
            <path id="路径_669" data-name="路径 669" class="cls-6" d="M249.1,289.894l.4.352-.5.562-.4-.339Z"/>
          </g>
          <g id="组_309" data-name="组 309">
            <path id="路径_670" data-name="路径 670" class="cls-6" d="M247.881,288.849l.394.347-.5.569-.4-.339Z"/>
          </g>
          <g id="组_310" data-name="组 310">
            <path id="路径_671" data-name="路径 671" class="cls-6" d="M246.684,287.83l.394.347-.5.574-.4-.344Z"/>
          </g>
          <g id="组_311" data-name="组 311">
            <path id="路径_672" data-name="路径 672" class="cls-6" d="M245.482,286.828l.394.347-.489.559-.4-.344Z"/>
          </g>
          <g id="组_312" data-name="组 312">
            <path id="路径_673" data-name="路径 673" class="cls-6" d="M244.235,285.824l.394.347-.461.523-.4-.339Z"/>
          </g>
          <g id="组_313" data-name="组 313">
            <path id="路径_674" data-name="路径 674" class="cls-6" d="M242.927,284.712l.4.352-.461.523-.4-.345Z"/>
          </g>
          <g id="组_314" data-name="组 314">
            <path id="路径_675" data-name="路径 675" class="cls-6" d="M241.679,283.637l.4.352-.47.531-.4-.345Z"/>
          </g>
          <g id="组_315" data-name="组 315">
            <path id="路径_676" data-name="路径 676" class="cls-6" d="M240.443,282.6l.394.347-.461.523-.4-.339Z"/>
          </g>
          <g id="组_316" data-name="组 316">
            <path id="路径_677" data-name="路径 677" class="cls-6" d="M239.155,281.566l.4.35-.434.487-.4-.345Z"/>
          </g>
        </g>
        <path id="路径_678" data-name="路径 678" class="cls-7" d="M236.264,279.968l11.509-3.554.292.946-10.905,3.367Z"/>
      </g>
      <g id="组_319" data-name="组 319">
        <rect id="矩形_60" data-name="矩形 60" class="cls-8" width="3.77" height="3.633" rx="1.02" transform="matrix(-0.273, -0.962, 0.962, -0.273, 251.255, 310.339)"/>
        <rect id="矩形_61" data-name="矩形 61" class="cls-8" width="3.77" height="3.633" rx="0.399" transform="matrix(-0.273, -0.962, 0.962, -0.273, 255.873, 309.029)"/>
        <rect id="矩形_62" data-name="矩形 62" class="cls-9" width="4.454" height="5.597" transform="matrix(-0.273, -0.962, 0.962, -0.273, 253.39, 310.089)"/>
      </g>
      <g id="组_320" data-name="组 320">
        <path id="路径_679" data-name="路径 679" class="cls-10" d="M215,289.407h8.978a.766.766,0,0,1,.573.221.8.8,0,0,1,.215.579v9.2a.8.8,0,0,1-.215.579.765.765,0,0,1-.573.22H215a.762.762,0,0,1-.572-.22.794.794,0,0,1-.215-.579v-9.2a.791.791,0,0,1,.215-.579A.762.762,0,0,1,215,289.407Zm3.14,1.588h-1.946a.264.264,0,0,0-.3.3v1.647A7.528,7.528,0,0,0,218.14,290.995Zm-2.244,3.772a21.421,21.421,0,0,0,2.089-.573q-.286-.227-.585-.478c-.032.024-.084.06-.155.108s-.123.084-.155.108a.279.279,0,0,1-.394-.013,10.039,10.039,0,0,0-.8-.74Zm.3,3.879h4.453a24.147,24.147,0,0,0-3.187-.7q-.884-.118-.358-.871a.706.706,0,0,1,.74-.334,26.933,26.933,0,0,1,3.76.763.548.548,0,0,1,.394.365.741.741,0,0,1-.131.614l-.108.167h.943c.2,0,.3-.1.3-.286v-3.139a5.347,5.347,0,0,0-.358.5.609.609,0,0,1-.7.275,13.084,13.084,0,0,1-2.4-.872,3.493,3.493,0,0,1-.316.149c-.14.06-.233.1-.281.126a14.914,14.914,0,0,1,1.934.561q.323.12.352.322a.711.711,0,0,1-.173.489.8.8,0,0,1-.316.323.573.573,0,0,1-.436-.036,18.749,18.749,0,0,0-2.173-.7q-.477-.095-.191-.537l.024-.024c-.326.12-.621.215-.883.287a.962.962,0,0,1-.621-.036.762.762,0,0,1-.418-.418c-.063-.126-.111-.218-.143-.274v3.008C215.9,298.551,216,298.646,216.194,298.646Zm3.259-5.1a9.643,9.643,0,0,0,.86-.5H218.63A6.5,6.5,0,0,0,219.453,293.549Zm3.247-2.554h-3.82l.454.167a.374.374,0,0,1,.173.125.2.2,0,0,1,.036.161.586.586,0,0,1-.066.168.754.754,0,0,1-.119.155h2.65q.453,0,.579.256a.89.89,0,0,1-.113.746,5.245,5.245,0,0,1-1.433,1.445,12.578,12.578,0,0,0,1.958.513v-3.438A.264.264,0,0,0,222.7,290.995Z"/>
        <path id="路径_680" data-name="路径 680" class="cls-10" d="M227.034,289.682h4.787a.818.818,0,1,1,0,1.635h-.12v2.352h.585a.473.473,0,0,1,.5.5v.895a9.178,9.178,0,0,0,2.411-1.957.867.867,0,0,1,1.134-.3q.9.383.287,1.17A12.638,12.638,0,0,1,234.411,296a.826.826,0,0,1-.561.149.76.76,0,0,1-.513-.281,5.587,5.587,0,0,0-.6-.561H231.7v4.429a.86.86,0,0,1-1.719,0V295.3h-1.1a8.911,8.911,0,0,1-1.182,4.62q-.619.775-1.265.179a.968.968,0,0,1-.024-1.457,7.3,7.3,0,0,0,.836-3.342h-.454a.818.818,0,0,1,0-1.635h.477v-2.352h-.238a.818.818,0,1,1,0-1.635Zm1.874,1.635v2.352h1.074v-2.352Zm8.046,5.921a10.354,10.354,0,0,1-2.985,2.841,1.137,1.137,0,0,1-.7.227,1.146,1.146,0,0,1-.877-1.146,1.23,1.23,0,0,1,.644-.609,8.112,8.112,0,0,0,2.328-2.113.926.926,0,0,1,1.217-.406Q237.491,296.378,236.954,297.238Zm-1.456-5.67q-.383.334-1.17.907a1.105,1.105,0,0,1-.639.215.866.866,0,0,1-.579-.311q-.395-.417-.322-.7t.573-.579a8.626,8.626,0,0,0,1.611-1.373.947.947,0,0,1,1.194-.3q.942.406.287,1.206Q236.034,291.09,235.5,291.568Z"/>
        <path id="路径_681" data-name="路径 681" class="cls-10" d="M216.29,305.878v5.349a.847.847,0,0,1-1.695,0v-3.534l-.764.752-.012.2q-.1,2.807-.489,3.283a1.284,1.284,0,0,1-.43.34,1.4,1.4,0,0,1-.436.137q-.2.024-.651.048c-.485,0-.76-.206-.823-.621a.359.359,0,0,1-.024-.083.832.832,0,0,0-.024-.1.465.465,0,0,1,.006-.489.567.567,0,0,1,.495-.144h.1a.444.444,0,0,0,.346-.13,3.535,3.535,0,0,0,.227-1.3h-1.54v3.367a.739.739,0,0,0,.108.495.8.8,0,0,0,.5.1h1.373a.558.558,0,0,0,.31-.071q.3-1.385,1.194-.991a.675.675,0,0,1,.406.525,2.355,2.355,0,0,1,.012.848,1.627,1.627,0,0,1-.6.919,2.13,2.13,0,0,1-1.164.262H210.93a2.287,2.287,0,0,1-1.623-.435,2.355,2.355,0,0,1-.43-1.642v-4.046a.3.3,0,0,1-.382-.072,2.309,2.309,0,0,1-.406-.6,1.154,1.154,0,0,1-.1-.639.793.793,0,0,1,.316-.537,9.76,9.76,0,0,0,2.16-2.757.763.763,0,0,1,.544-.442,1.3,1.3,0,0,1,.758.036.7.7,0,0,1,.4.275.405.405,0,0,1,.018.418l-.012.011v.012a31,31,0,0,1,2.423,2.913v-1.66a.847.847,0,0,1,1.695,0Zm-6.172,2.2h2.758q-.513-.728-1.516-1.958a12,12,0,0,1-1.349,1.755C209.875,308.008,209.911,308.075,210.118,308.075Zm8.524-3.3v8.488a2.864,2.864,0,0,1-.162,1.1,1.136,1.136,0,0,1-.59.573,4.293,4.293,0,0,1-1.576.287q-1,.024-1.23-.657-.19-.549.108-.782a1.476,1.476,0,0,1,.955-.209h.406c.23-.008.346-.115.346-.322V304.78a.775.775,0,0,1,.883-.871A.765.765,0,0,1,218.642,304.78Z"/>
        <path id="路径_682" data-name="路径 682" class="cls-10" d="M226.461,304.589h3.617a.763.763,0,0,1,.573.221.8.8,0,0,1,.215.579v1.349a.74.74,0,0,1-.788.788h-.955a7.636,7.636,0,0,1-1.851,2.089,19.438,19.438,0,0,0,2.531.561,1.417,1.417,0,0,1,.979.37q.215.287-.155.908a1.128,1.128,0,0,1-1.23.5l-.179-.036v2.2a.791.791,0,0,1-.215.579.759.759,0,0,1-.572.221h-5.515a.757.757,0,0,1-.8-.8v-2.136c-.12.032-.35.083-.693.155a.9.9,0,0,1-1.11-.478q-.251-.525-.071-.781a1.178,1.178,0,0,1,.776-.365,14.8,14.8,0,0,0,2.757-.787q-.2-.156-.776-.645a2.16,2.16,0,0,0-.239.131c-.1.064-.183.112-.239.144a.912.912,0,0,1-1.217-.18q-.68-.787.645-1.36a5.722,5.722,0,0,0,1.957-1.624h-1.564a.264.264,0,0,0-.3.3v.18a.86.86,0,0,1-1.719,0v-1.278a.793.793,0,0,1,.215-.579.763.763,0,0,1,.573-.221h3.533v-.024a.908.908,0,0,1,1.815,0Zm.955,8.261h-3.582v.346c0,.183.088.275.263.275h3.319Zm-3.45-1.444h3.152a13.517,13.517,0,0,1-1.636-.657A15.7,15.7,0,0,1,223.966,311.406Zm.358-3.271a10.123,10.123,0,0,0,1.146.764,6.64,6.64,0,0,0,1.051-.8h-2.149Zm4.739-1.946h-4.178l.573.131a.3.3,0,0,1,.251.161.3.3,0,0,1-.084.293l-.023.024h2.1l.191-.048a.259.259,0,0,1,.2.036l.967.573Z"/>
        <path id="路径_683" data-name="路径 683" class="cls-10" d="M234.769,309.949h4.286a.745.745,0,0,1,.6.233.7.7,0,0,1,.114.627,1.89,1.89,0,0,1-.06.31h2.041a.62.62,0,0,1,.585.317,1.87,1.87,0,0,1,.084,1.08,4.574,4.574,0,0,1-.656,2.208,1.626,1.626,0,0,1-.627.388,2.478,2.478,0,0,1-.669.143c-.2.013-.519.018-.949.018a.9.9,0,0,1-.991-.728.176.176,0,0,0-.024-.071.184.184,0,0,1-.024-.072q-.179-.359-.029-.549a.693.693,0,0,1,.6-.167c.207.008.449.012.728.012a.954.954,0,0,0,.525-.108,1.855,1.855,0,0,0,.358-.99H239.4a.04.04,0,0,1-.012.023.549.549,0,0,1-.7.406,1.19,1.19,0,0,1-.687-.31.632.632,0,0,1-.125-.645l.143-.644h-.9a5.267,5.267,0,0,1-.848,1.975,4.866,4.866,0,0,1-1.8,1.439q-1.135.441-1.552-.179a.669.669,0,0,1-.006-.854,2.353,2.353,0,0,1,.961-.663,2.9,2.9,0,0,0,1.373-1.718h-.693a.63.63,0,0,1-.459-.168.6.6,0,0,1-.174-.453V310.4a.935.935,0,0,1-1.277-.215q-.347-.489-.215-.77a1.252,1.252,0,0,1,.717-.507,8.774,8.774,0,0,0,1.9-1.134h-1.838a.788.788,0,0,1,0-1.576h3.689v-.585q-1.623.1-2.841.131a.771.771,0,0,1-.848-.608q-.215-.813.74-.836a48.887,48.887,0,0,0,6.411-.561.776.776,0,0,1,.459.036,1.4,1.4,0,0,1,.412.322q.835.932-.334,1.122-.979.143-2.256.263v.716h3.748a.788.788,0,1,1,0,1.576h-1.922a8.689,8.689,0,0,0,1.886,1.038,1.278,1.278,0,0,1,.776.508q.144.293-.227.8a.941.941,0,0,1-.555.382,1.153,1.153,0,0,1-.674-.1,9.359,9.359,0,0,1-3.032-2.2v.6a.872.872,0,0,1-1.743,0v-.645A9.2,9.2,0,0,1,234.769,309.949Z"/>
      </g>
      <g id="组_321" data-name="组 321">
        <path id="路径_684" data-name="路径 684" class="cls-11" d="M196.434,294.886a.267.267,0,0,1-.082-.374c.358-.6.72-1.194,1.079-1.791a.271.271,0,0,1,.3-.1c.156.071.29.188.448.25a.534.534,0,0,0,.2.12.549.549,0,0,0,.138.093.4.4,0,0,0,.161.078c-.107.213-.243.41-.362.617-.224.375-.452.746-.676,1.121-.1.165-.2.326-.293.49l-.063.01C197.006,295.226,196.717,295.06,196.434,294.886Z"/>
        <path id="路径_685" data-name="路径 685" class="cls-12" d="M197.455,295.53a.67.67,0,0,1-.157-.112l.046-.017.007-.01c.1-.164.2-.325.293-.49.242.16.5.3.746.449l-.006.011c-.1.169-.2.336-.3.5a.033.033,0,0,1-.055.007c-.19-.114-.38-.229-.571-.342Zm1.608-1.3q-.368-.23-.743-.445c.119-.207.255-.4.362-.617.254.139.5.3.748.445l-.019.047q-.177.283-.345.571Z"/>
        <path id="路径_686" data-name="路径 686" class="cls-13" d="M197.644,294.9c.224-.375.452-.746.676-1.121q.375.216.743.445c-.221.377-.452.747-.673,1.125C198.141,295.2,197.886,295.061,197.644,294.9Z"/>
        <path id="路径_687" data-name="路径 687" class="cls-14" d="M198.739,296.264c-.219-.134-.443-.259-.658-.4.1-.168.2-.335.3-.5.73.442,1.464.878,2.2,1.317.289.174.583.339.873.511q2.5,1.491,4.984,2.994l.06.058a.41.41,0,0,1-.086.413.421.421,0,0,1-.182.09l-.1-.038a.522.522,0,0,0-.162-.116Q202.357,298.422,198.739,296.264Zm.327-2.038q.168-.288.345-.571l.013-.019c.1.059.2.116.295.178.309.2.63.378.943.57.769.46,1.532.929,2.3,1.387a1.572,1.572,0,0,0,.282.153c1.383.819,2.758,1.651,4.139,2.473a.4.4,0,0,1,.135.131.455.455,0,0,1-.071.387.315.315,0,0,1-.269.169c-.028-.016-.057-.031-.085-.048-.189-.135-.4-.241-.592-.364q-2.1-1.248-4.186-2.5c-1.085-.646-2.163-1.3-3.25-1.945Z"/>
        <path id="路径_688" data-name="路径 688" class="cls-15" d="M198.384,295.361l.006-.011c.221-.378.452-.748.673-1.125h0c1.087.642,2.165,1.3,3.25,1.946q2.09,1.256,4.186,2.5c.2.123.4.229.592.364a.219.219,0,0,0,.062.08.482.482,0,0,1-.036.416,1.7,1.7,0,0,1-.374.53.452.452,0,0,1-.23.126l-.079,0q-2.488-1.5-4.984-2.994c-.29-.172-.584-.337-.873-.511C199.848,296.239,199.114,295.8,198.384,295.361Zm2.278-.977c-.313-.192-.634-.372-.943-.57,1.176.7,2.354,1.4,3.526,2.11a1.572,1.572,0,0,1-.282-.153C202.194,295.313,201.431,294.844,200.662,294.384Z"/>
        <path id="路径_689" data-name="路径 689" class="cls-16" d="M206.275,300.74l-.046,0a.421.421,0,0,0,.182-.09.41.41,0,0,0,.086-.413l.019-.053a.452.452,0,0,0,.23-.126,1.7,1.7,0,0,0,.374-.53.482.482,0,0,0,.036-.416l.039-.006-.016-.026a.315.315,0,0,0,.269-.169.455.455,0,0,0,.071-.387c.039-.01.069-.005.067.042l.021-.005a.216.216,0,0,0,.079.111l0,.037.025-.006c.013.06.072.093.088.15l.021-.008c.008.061.074.089.087.147l.02,0c.011.059.072.089.088.146l.02,0a.235.235,0,0,0,.08.112v.032h.029c.012.058.073.088.088.144l.02,0c.012.059.072.089.089.145l.019,0c.013.057.07.089.089.144l.02,0c.011.059.07.089.088.144h.019c.016.056.068.091.089.146l.02,0c.013.057.068.09.089.144l.018,0c.015.056.068.09.088.143h.021a.239.239,0,0,0,.072.105l.019.039.013.032c-.133.231-.277.455-.41.686l.1.025c-.055,0-.1-.032-.159-.026a.2.2,0,0,0-.131-.013l-.006-.027-.035.015a.207.207,0,0,0-.136-.018l-.007-.025-.034.015a.7.7,0,0,0-.176-.034.271.271,0,0,0-.135-.013l-.006-.018c-.057.012-.113-.027-.17-.01l-.008-.016c-.055,0-.108-.019-.163-.017a.221.221,0,0,0-.132-.012l-.006-.027-.034.016a.207.207,0,0,0-.136-.018l-.006-.026-.035.015a.2.2,0,0,0-.135-.018l0-.019c-.058.013-.113-.027-.171-.01l-.007-.017c-.057.008-.112-.025-.169-.011l-.006-.015a.4.4,0,0,0-.12,0l0-.029-.035.016a.221.221,0,0,0-.136-.016l-.007-.025-.034.015c-.03-.016-.075-.007-.083-.051Z"/>
        <path id="路径_690" data-name="路径 690" class="cls-17" d="M208.6,301.136c.133-.231.277-.455.41-.686l-.013-.032.013-.01c.019.035.041.069.057.106l.031.039c.125.138.222.3.346.44a.267.267,0,0,0,.08.1l.013.044c-.046.045-.052.135-.127.14l-.049-.009-.028-.007-.049-.008a.784.784,0,0,1-.108-.008c-.156-.033-.315-.047-.471-.081l-.1-.025Z"/>
        <path id="路径_691" data-name="路径 691" class="cls-18" d="M209.1,300.553l-.031-.039.022,0,.015.02-.006.021Zm.2.716-.009-.019.049.008-.015.015-.025,0Zm.076.016-.008-.02.049.009-.016.015Z"/>
      </g>
    </g>
    <g id="组_323" data-name="组 323">
      <path id="路径_692" data-name="路径 692" class="cls-19" d="M182.05,278.208l9.155-9.155a2.378,2.378,0,0,1,3.362,0l0,0,9.075,9.075-.178,10.485a1.8,1.8,0,0,1-1.751,1.766l-10.588.266-9.075-9.075a2.378,2.378,0,0,1,0-3.362l0,0Z"/>
      <path id="路径_693" data-name="路径 693" class="cls-20" d="M191.185,269.079a2.317,2.317,0,0,1,3.277,0l9.018,9.017a.175.175,0,0,1,.022.23l-.013.013a3.757,3.757,0,0,1-5.868.732l-8.214-8.214Z"/>
      <path id="路径_694" data-name="路径 694" class="cls-21" d="M183.635,276.534a.18.18,0,0,1,.253,0l7.736,7.736c1.674,1.674,2.054,4.032.381,5.706a4.133,4.133,0,0,1-.736.582.174.174,0,0,1-.23-.023l-8.9-8.9a2.556,2.556,0,0,1,0-3.616Z"/>
      <path id="路径_695" data-name="路径 695" class="cls-22" d="M189.287,270.882a.181.181,0,0,1,.255,0h0l7.735,7.736a4.024,4.024,0,0,1,.25,5.836,4.161,4.161,0,0,1-5.957-.129l-7.736-7.736a.2.2,0,0,1,0-.255Z"/>
      <path id="路径_696" data-name="路径 696" class="cls-23" d="M198.344,290.465l3.372-.085a1.8,1.8,0,0,0,1.751-1.766l.056-3.328Z"/>
      <path id="路径_697" data-name="路径 697" class="cls-24" d="M201.151,281.114a.963.963,0,0,1,1.362,1.361h0a.962.962,0,0,1-1.361-1.361Zm.816,2.994a.578.578,0,1,1,0,.823A.586.586,0,0,1,201.967,284.108Z"/>
    </g>
    <g id="组_331" data-name="组 331">
      <g id="组_330" data-name="组 330">
        <g id="组_326" data-name="组 326">
          <g id="组_324" data-name="组 324">
            <path id="路径_698" data-name="路径 698" class="cls-25" d="M210.129,275.276a4.152,4.152,0,1,1,0-8.3H211.8v-12.66h-1.532a3.351,3.351,0,0,1-3.557-3.665,3.771,3.771,0,0,1,.923-2.494,3.99,3.99,0,0,1,2.3-1.322,16.057,16.057,0,0,0,3.525-1.387,4.786,4.786,0,0,1,2.507-.663h1.588a3.667,3.667,0,0,1,3.81,3.809v18.382h.773a4.152,4.152,0,1,1,0,8.3Z"/>
          </g>
          <g id="组_325" data-name="组 325">
            <path id="路径_699" data-name="路径 699" class="cls-1" d="M217.562,246.281a2.173,2.173,0,0,1,2.31,2.309v19.882h2.273a2.652,2.652,0,1,1,0,5.3H210.129a2.652,2.652,0,1,1,0-5.3H213.3v-15.66h-3.031q-2.058,0-2.058-2.164a2.251,2.251,0,0,1,.56-1.516,2.519,2.519,0,0,1,1.461-.831,17.434,17.434,0,0,0,3.969-1.551,3.288,3.288,0,0,1,1.768-.469h1.588m0-3h-1.588a6.273,6.273,0,0,0-3.239.853,14.543,14.543,0,0,1-3.163,1.242,5.527,5.527,0,0,0-3.07,1.8,5.258,5.258,0,0,0-1.286,3.474,4.84,4.84,0,0,0,5.058,5.164h.031v9.66h-.176a5.652,5.652,0,1,0,0,11.3h12.016a5.312,5.312,0,0,0,5.669-5.67,5.234,5.234,0,0,0-4.942-5.6V248.59a5.163,5.163,0,0,0-5.31-5.309Z"/>
          </g>
        </g>
        <g id="组_329" data-name="组 329">
          <g id="组_327" data-name="组 327">
            <path id="路径_700" data-name="路径 700" class="cls-25" d="M237.588,275.781a14.517,14.517,0,0,1-8.908-2.752,3.621,3.621,0,0,1-.577-5.282,4.044,4.044,0,0,1,3.319-1.95,4.474,4.474,0,0,1,2.632.965,5.8,5.8,0,0,0,2.559.715,2.966,2.966,0,0,0,2.15-.677,3.606,3.606,0,0,0,.01-4.2,2.456,2.456,0,0,0-1.871-.671,4.764,4.764,0,0,0-1.553.272,4.84,4.84,0,0,1-2.26.6,4.447,4.447,0,0,1-4.36-4.567l.5-9.681a4.048,4.048,0,0,1,1.192-2.693,3.866,3.866,0,0,1,2.759-1.074h10.393a4.243,4.243,0,0,1,0,8.485h-5.7l-.1,1.162a8.277,8.277,0,0,1,1.176-.085,10.205,10.205,0,0,1,7.148,2.615c1.927,1.768,2.9,4.319,2.9,7.581a10.631,10.631,0,0,1-3.375,8.216A11.568,11.568,0,0,1,237.588,275.781Z"/>
          </g>
          <g id="组_328" data-name="组 328">
            <path id="路径_701" data-name="路径 701" class="cls-1" d="M243.578,246.281a2.743,2.743,0,0,1,0,5.485h-7.073l-.4,4.655a7.828,7.828,0,0,1,2.851-.578,8.719,8.719,0,0,1,6.134,2.219q2.418,2.22,2.418,6.477a9.146,9.146,0,0,1-2.887,7.108,10.062,10.062,0,0,1-7.036,2.634,13,13,0,0,1-8.01-2.453q-1.589-1.334-.253-3.212a2.636,2.636,0,0,1,2.1-1.319,3.086,3.086,0,0,1,1.836.743,7.333,7.333,0,0,0,3.355.937,4.4,4.4,0,0,0,3.194-1.1,5.04,5.04,0,0,0,.036-6.333,3.94,3.94,0,0,0-2.941-1.119,6.261,6.261,0,0,0-2.164.4,3.4,3.4,0,0,1-1.649.475,2.95,2.95,0,0,1-2.862-3l.5-9.669a2.512,2.512,0,0,1,.739-1.7,2.358,2.358,0,0,1,1.714-.65h10.393m0-3H233.185a5.337,5.337,0,0,0-3.8,1.5,5.507,5.507,0,0,0-1.641,3.642l-.508,9.718a5.945,5.945,0,0,0,5.858,6.157,6.265,6.265,0,0,0,2.844-.714,3.17,3.17,0,0,1,.969-.158c.583,0,.737.157.8.224a1.8,1.8,0,0,1,.238,1.034,1.639,1.639,0,0,1-.224,1.039,1.757,1.757,0,0,1-1.107.255,4.287,4.287,0,0,1-1.783-.5,5.868,5.868,0,0,0-3.408-1.176,5.477,5.477,0,0,0-4.533,2.569,5.106,5.106,0,0,0,.759,7.259l.065.055.069.051a15.985,15.985,0,0,0,9.806,3.05,13.021,13.021,0,0,0,9.058-3.417,12.071,12.071,0,0,0,3.865-9.325c0-3.7-1.14-6.622-3.389-8.687a11.217,11.217,0,0,0-1.737-1.312,5.3,5.3,0,0,0,3.935-5.516,5.381,5.381,0,0,0-5.742-5.743Z"/>
          </g>
        </g>
      </g>
    </g>
  </g>
</svg>
