<svg xmlns="http://www.w3.org/2000/svg" width="105.612" height="120.453" viewBox="0 0 105.612 120.453">
  <defs>
    <style>
      .cls-1 {
        fill: #fff;
      }

      .cls-2 {
        fill: #ffde78;
      }

      .cls-3 {
        fill: #ff9f38;
      }

      .cls-4 {
        fill: #ff476f;
      }

      .cls-5 {
        fill: #fdefeb;
      }

      .cls-6 {
        fill: #f36c52;
      }

      .cls-7 {
        fill: #73aeff;
      }

      .cls-8 {
        fill: #a3dffd;
      }

      .cls-9 {
        fill: #8a493c;
      }

      .cls-10 {
        fill: #ffe2c9;
      }

      .cls-11 {
        fill: #f84f4f;
      }

      .cls-12 {
        fill: #f8c34f;
      }

      .cls-13 {
        fill: #f8934f;
      }

      .cls-14 {
        fill: #683818;
      }

      .cls-15 {
        fill: #f9fbf8;
      }

      .cls-16 {
        fill: #b36339;
      }
    </style>
  </defs>
  <g id="组_358" data-name="组 358" transform="translate(-38.382 -363.688)">
    <circle id="椭圆_128" data-name="椭圆 128" class="cls-1" cx="52.806" cy="52.806" r="52.806" transform="translate(38.382 378.529)"/>
    <circle id="椭圆_129" data-name="椭圆 129" class="cls-2" cx="46.427" cy="46.427" r="46.427" transform="translate(44.761 384.908)"/>
    <g id="组_348" data-name="组 348">
      <path id="路径_726" data-name="路径 726" class="cls-3" d="M71.173,412.146l-3.96-9.023a2.62,2.62,0,1,1,2.318-1.285l5.755,10.3h2.266l5.756-10.3a2.624,2.624,0,1,1,2.317,1.285l-3.959,9.023a1.862,1.862,0,0,1,1.681,1.848v.906h28.631a8.06,8.06,0,0,1,8.037,8.037V451.29a8.06,8.06,0,0,1-8.037,8.036h-41.3a8.06,8.06,0,0,1-8.037-8.036V422.937a8.065,8.065,0,0,1,6.865-7.95v-.993A1.864,1.864,0,0,1,71.173,412.146Z"/>
      <path id="路径_727" data-name="路径 727" class="cls-4" d="M103.9,460.776h6.585l-1.265,4.689H105.17l-1.266-4.689Z"/>
      <path id="路径_728" data-name="路径 728" class="cls-4" d="M71.124,460.776h6.587l-1.266,4.689H72.389Z"/>
      <path id="路径_729" data-name="路径 729" class="cls-1" d="M115.435,440.732A2.57,2.57,0,1,0,118,443.3,2.57,2.57,0,0,0,115.435,440.732Z"/>
      <path id="路径_730" data-name="路径 730" class="cls-5" d="M72.941,418.774a6.5,6.5,0,0,0-6.268,6.667v23.516a6.5,6.5,0,0,0,6.268,6.666h32.217a6.5,6.5,0,0,0,6.269-6.666V425.441a6.5,6.5,0,0,0-6.269-6.667Z"/>
      <path id="路径_731" data-name="路径 731" class="cls-1" d="M70.776,423.8a8.193,8.193,0,0,1,2.289-.318h31.558a7.621,7.621,0,0,1,3.293.7c-.013-1.7-2.351-3.084-5.209-3.084H75.943A5.319,5.319,0,0,0,70.776,423.8Z"/>
      <path id="路径_732" data-name="路径 732" class="cls-1" d="M115.434,427.749a1.455,1.455,0,1,0,1.455,1.455A1.456,1.456,0,0,0,115.434,427.749Z"/>
      <path id="路径_733" data-name="路径 733" class="cls-1" d="M115.434,432.906a1.455,1.455,0,1,0,1.455,1.455A1.456,1.456,0,0,0,115.434,432.906Z"/>
      <g id="组_346" data-name="组 346">
        <path id="路径_734" data-name="路径 734" class="cls-6" d="M82.385,429.954H77l-.354.675h4.527a.707.707,0,0,1,.755.754v4.985a2.579,2.579,0,0,1-.143.961,1.058,1.058,0,0,1-.52.537,2.975,2.975,0,0,1-1.178.252q-.925.022-1.121-.64c-.106-.359-.078-.608.086-.749a1.241,1.241,0,0,1,.852-.189h.115c.175,0,.262-.068.262-.206v-.423H76.439v1.372a.835.835,0,0,1-1.669,0v-4q-.331.355-.617.607a.784.784,0,0,1-1.2-.092q-.594-.687.194-1.3a8.7,8.7,0,0,0,1.933-2.538H73.547a.8.8,0,1,1,0-1.6h2.264c.015-.053.045-.141.091-.263a2.894,2.894,0,0,0,.092-.275.8.8,0,0,1,1.074-.64.742.742,0,0,1,.606,1.1.135.135,0,0,0-.023.04.152.152,0,0,0-.011.04h4.745a.8.8,0,1,1,0,1.6ZM76.439,432.6h3.842v-.285c0-.138-.072-.206-.217-.206H76.439ZM80.281,434H76.439v.5h3.842Z"/>
        <path id="路径_735" data-name="路径 735" class="cls-6" d="M88.789,427.393h4.585a.709.709,0,0,1,0,1.418H92.047v.514H94.22q.777,0,.7.926a13.848,13.848,0,0,1-.777,3.431,4.442,4.442,0,0,0,.548.709,1,1,0,0,1,.355.537.791.791,0,0,1-.229.571q-.458.537-1.018-.011c-.076-.092-.182-.236-.319-.434a5.01,5.01,0,0,1-.378.5.4.4,0,0,1-.32.148.362.362,0,0,1-.286-.194,4.369,4.369,0,0,0-.446-.561v.446a.658.658,0,0,1-1.315,0v-.354c-.137.03-.381.09-.732.178s-.613.154-.789.2q-.651.15-.8-.583-.126-.641.469-.743H88.9v-5.282h-.389v.4a.314.314,0,0,1-.332.331h-.64v.709h.389a.743.743,0,1,1,0,1.486h-.16v.835h.114a.642.642,0,0,1,.732.721.652.652,0,0,1-.732.743h-.114v1.807a6.983,6.983,0,0,0,2.572.343q2.859,0,3.728-.023.651-.024.824.194c.114.145.1.415-.035.812a.981.981,0,0,1-1.029.651h-3.51a9.248,9.248,0,0,1-2.8-.348,3.463,3.463,0,0,1-1.767-1.321,8.862,8.862,0,0,1-.365,1.27q-.15.32-.372.349a.534.534,0,0,1-.452-.235c0-.008,0-.012-.011-.012l-.023-.011a.8.8,0,0,1-.315-.451.894.894,0,0,1,.029-.555,10.7,10.7,0,0,0,.377-3.487q-.022-.756.7-.721a.614.614,0,0,1,.652.675q.011.2.011.629a6.412,6.412,0,0,0,.331.835v-2.7H85.129a.743.743,0,1,1,0-1.486h.915v-.709h-.686a.646.646,0,0,1-.72-.743.637.637,0,0,1,.72-.721h.686v-.331a.749.749,0,1,1,1.5,0v.331h.949V427.7C88.491,427.495,88.59,427.393,88.789,427.393Zm1.406,1.418v.719h.537v-.719Zm0,1.977v.744h.537v-.744Zm0,2v1.064l.537-.115v-.949Zm3.087-.868q.057-.264.206-.983.057-.286-.24-.287h-1.2v.435l.5-.114a.379.379,0,0,1,.526.308A5.382,5.382,0,0,0,93.282,431.921Zm-1.235-.114v2.446c0,.19.057.218.172.08a3.355,3.355,0,0,0,.446-.731A16.083,16.083,0,0,1,92.047,431.807Z"/>
        <path id="路径_736" data-name="路径 736" class="cls-6" d="M103.459,428.787h2.413a.592.592,0,0,1,.554.32,2.559,2.559,0,0,1,.166,1.156q-.092,3.658-.24,5.122a4.284,4.284,0,0,1-.48,1.9,1.734,1.734,0,0,1-.532.515,2.357,2.357,0,0,1-.692.228,6.866,6.866,0,0,1-1.1.058.833.833,0,0,1-.9-.687.691.691,0,0,1-.034-.091c-.016-.045-.027-.08-.034-.1q-.183-.366-.023-.555a.8.8,0,0,1,.652-.166c.22.008.472.012.754.012a.658.658,0,0,0,.5-.206,3.236,3.236,0,0,0,.366-1.5q.126-1.24.194-3.928a.87.87,0,0,0-.051-.418.226.226,0,0,0-.212-.108h-1.921q-.218.47-.583,1.121a.641.641,0,0,1-.451.319.692.692,0,0,1-.555-.17c-.038-.024-.1-.065-.177-.126a2.088,2.088,0,0,0-.178-.126v4.814a.726.726,0,0,1-.766.766H97.1a.731.731,0,0,1-.549-.212.761.761,0,0,1-.206-.554v-6.495a.765.765,0,0,1,.206-.555.734.734,0,0,1,.549-.211h.56q.136-.72.171-.961.08-.937.983-.811.949.126.606,1.132c-.015.046-.049.144-.1.3s-.1.267-.126.343h.937a.725.725,0,0,1,.766.766v.8a11.5,11.5,0,0,0,1.144-2.619.778.778,0,0,1,1.029-.629.707.707,0,0,1,.6,1.007c-.023.06-.058.154-.1.28S103.482,428.727,103.459,428.787Zm-5.591,1.876v1.3h1.52v-1.3a.253.253,0,0,0-.285-.286h-.961C97.959,430.377,97.868,430.473,97.868,430.663Zm0,2.767v1.726c0,.191.091.286.274.286H99.1a.252.252,0,0,0,.285-.286V433.43Zm4.962.881q-.138-.252-.4-.7c-.176-.3-.294-.5-.355-.6a.66.66,0,0,1,.3-1.029.677.677,0,0,1,1.029.228q.171.252.891,1.4a.724.724,0,0,1,.1.571.971.971,0,0,1-.422.434A.7.7,0,0,1,102.83,434.311Z"/>
        <path id="路径_737" data-name="路径 737" class="cls-6" d="M77.537,441.775h5.077a.806.806,0,0,1,0,1.612H80.076a21.557,21.557,0,0,1-.847,2.539h3.122a.725.725,0,0,1,.766.765v4.585a.738.738,0,0,1-.28.619,1.136,1.136,0,0,1-.714.216.793.793,0,0,1-.487-.142.5.5,0,0,1-.188-.418v-.023H79.115v.023a.572.572,0,0,1-.188.458.767.767,0,0,1-.51.16.988.988,0,0,1-.646-.194.716.716,0,0,1-.234-.583v-2.55l-.011.011v.023a.64.64,0,0,1-1.1-.034.887.887,0,0,1,.023-1.3c.03-.046.076-.11.137-.194s.107-.15.138-.2c-.122.045-.321.119-.6.217s-.488.172-.64.218v2.767a2.724,2.724,0,0,1-.12.915.961.961,0,0,1-.441.5,2.391,2.391,0,0,1-.549.2,2.424,2.424,0,0,1-.623.068,1.1,1.1,0,0,1-.566-.16.728.728,0,0,1-.331-.451.687.687,0,0,1,.051-.675.905.905,0,0,1,.7-.194h.012c.152,0,.228-.073.228-.218v-2.195l-.171.057a.817.817,0,1,1-.5-1.555c.244-.069.468-.133.674-.2v-1.68h-.583a.784.784,0,0,1,0-1.567h.583v-1.338a.818.818,0,1,1,1.636,0V443.2h.342a.784.784,0,0,1,0,1.567h-.342v1.143l.549-.172a.425.425,0,0,1,.365.024.45.45,0,0,1,.195.308l.206.972a12.192,12.192,0,0,0,1.5-3.659h-.766a.806.806,0,1,1,0-1.612Zm1.578,8.164h2.333V447.8a.243.243,0,0,0-.275-.275H79.115Z"/>
        <path id="路径_738" data-name="路径 738" class="cls-6" d="M88.411,450.214H86.6v.034a.857.857,0,0,1-1.715,0v-7.421a.609.609,0,0,1,.235-.566.766.766,0,0,1,.646-.006,13.262,13.262,0,0,0,1.8-.823.925.925,0,0,1,1.258.228q.4.435.331.749c-.046.21-.251.395-.617.555q-1.1.435-1.933.675v1.28h1.807a.823.823,0,0,1,0,1.646H86.6v2.013h1.807a.818.818,0,1,1,0,1.636Zm2.115-8.382H94a.727.727,0,0,1,.549.212.761.761,0,0,1,.206.555V448.7a1.728,1.728,0,0,1-.606,1.578,2.24,2.24,0,0,1-.846.3,1.07,1.07,0,0,1-1.223-.731.788.788,0,0,1,0-.755.858.858,0,0,1,.738-.24h.023a.182.182,0,0,0,.205-.207v-5.122H91.738a.243.243,0,0,0-.274.275v7.513a.852.852,0,0,1-1.7,0V442.6a.728.728,0,0,1,.766-.767Z"/>
      </g>
      <g id="组_347" data-name="组 347">
        <rect id="矩形_63" data-name="矩形 63" class="cls-7" width="0.715" height="6.969" transform="translate(97.939 448.342) rotate(-64.864)"/>
        <path id="路径_739" data-name="路径 739" class="cls-8" d="M104.972,449.721a.492.492,0,0,0-.243-.659l-5.437-2.551a.545.545,0,0,0-.631.273l-.3.657,6.3,2.955.317-.675Z"/>
        <path id="路径_740" data-name="路径 740" class="cls-9" d="M101.583,445.281l.018.043a.289.289,0,0,1-.142.4c-.2.086-.332.13-.41.173a.484.484,0,0,0-.291.255l-.027.059a.483.483,0,0,0,.231.642l2.481,1.164a.482.482,0,0,0,.641-.232h0l.028-.059a.492.492,0,0,0,.04-.283,1.655,1.655,0,0,0-.122-.408c-.109-.249-.034-.383.137-.462a.729.729,0,0,0,.106-.058,2.146,2.146,0,1,0-2.69-1.232Z"/>
      </g>
    </g>
    <g id="组_349" data-name="组 349">
      <path id="路径_741" data-name="路径 741" class="cls-10" d="M46.1,398.627l9.185-9.185a2.386,2.386,0,0,1,3.373,0l0,0,9.106,9.106-.179,10.52a1.8,1.8,0,0,1-1.757,1.771l-10.623.267L46.1,402a2.385,2.385,0,0,1,0-3.374l0,0Z"/>
      <path id="路径_742" data-name="路径 742" class="cls-11" d="M55.264,389.468a2.325,2.325,0,0,1,3.288,0l9.048,9.047a.177.177,0,0,1,.023.231l-.014.013a3.77,3.77,0,0,1-5.888.734l-8.241-8.241Z"/>
      <path id="路径_743" data-name="路径 743" class="cls-12" d="M47.689,396.948a.181.181,0,0,1,.254,0l7.762,7.761c1.679,1.68,2.061,4.046.381,5.725a4.112,4.112,0,0,1-.737.585.176.176,0,0,1-.231-.023l-8.926-8.926a2.565,2.565,0,0,1,0-3.628Z"/>
      <path id="路径_744" data-name="路径 744" class="cls-13" d="M53.36,391.277a.181.181,0,0,1,.255,0h0l7.762,7.761a4.039,4.039,0,0,1,.251,5.856,4.174,4.174,0,0,1-5.977-.13L47.889,397a.193.193,0,0,1,0-.255Z"/>
      <path id="路径_745" data-name="路径 745" class="cls-14" d="M62.447,410.925l3.383-.085a1.8,1.8,0,0,0,1.757-1.771l.056-3.34Z"/>
      <path id="路径_746" data-name="路径 746" class="cls-15" d="M65.263,401.543a.966.966,0,1,1,1.366,1.366h0a.966.966,0,0,1-1.366-1.366Zm.819,3a.58.58,0,1,1,0,.826A.589.589,0,0,1,66.082,404.547Z"/>
    </g>
    <g id="组_357" data-name="组 357">
      <g id="组_356" data-name="组 356">
        <g id="组_352" data-name="组 352">
          <g id="组_350" data-name="组 350">
            <path id="路径_747" data-name="路径 747" class="cls-16" d="M73.857,395.691a4.106,4.106,0,1,1,0-8.211h1.619V375.1H74a3.316,3.316,0,0,1-3.52-3.626,3.679,3.679,0,0,1,.912-2.467,3.97,3.97,0,0,1,2.274-1.308,15.811,15.811,0,0,0,3.458-1.359,4.727,4.727,0,0,1,2.476-.655h1.559a3.629,3.629,0,0,1,3.769,3.768V387.48h.732a4.106,4.106,0,1,1,0,8.211Z"/>
          </g>
          <g id="组_351" data-name="组 351">
            <path id="路径_748" data-name="路径 748" class="cls-1" d="M81.158,367.184a2.136,2.136,0,0,1,2.269,2.27v19.527h2.232a2.605,2.605,0,1,1,0,5.21h-11.8a2.605,2.605,0,1,1,0-5.21h3.119V373.6H74q-2.019,0-2.019-2.127a2.2,2.2,0,0,1,.549-1.487,2.482,2.482,0,0,1,1.436-.817,17.187,17.187,0,0,0,3.9-1.524,3.233,3.233,0,0,1,1.737-.461h1.559m0-3H79.6a6.213,6.213,0,0,0-3.207.845,14.278,14.278,0,0,1-3.1,1.214,5.494,5.494,0,0,0-3.042,1.785,5.206,5.206,0,0,0-1.276,3.445,4.8,4.8,0,0,0,5,5.127v9.381h-.119a5.605,5.605,0,1,0,0,11.21h11.8a5.269,5.269,0,0,0,5.622-5.623,5.188,5.188,0,0,0-4.854-5.549V369.454a5.128,5.128,0,0,0-5.269-5.27Z"/>
          </g>
        </g>
        <g id="组_355" data-name="组 355">
          <g id="组_353" data-name="组 353">
            <path id="路径_749" data-name="路径 749" class="cls-16" d="M102.246,396.188a10.488,10.488,0,0,1-4.359-.931,11.45,11.45,0,0,1-3.692-2.728,12.657,12.657,0,0,1-2.632-4.893,22.884,22.884,0,0,1-.918-6.735c0-4.923,1.214-8.872,3.61-11.737a10.827,10.827,0,0,1,8.629-3.976,12.512,12.512,0,0,1,7.031,2.057l.087.059.079.069a3.543,3.543,0,0,1,1.408,2.719,4.12,4.12,0,0,1-1.268,2.648,4.32,4.32,0,0,1-3.263,1.615,4.632,4.632,0,0,1-2.515-.809,3.029,3.029,0,0,0-1.134-.219c-.741,0-2.434,0-3.275,3.013a7.661,7.661,0,0,1,3.169-.766,9.37,9.37,0,0,1,6.806,2.553c1.747,1.7,2.633,4.2,2.633,7.418a10.149,10.149,0,0,1-10.4,10.643Zm-2.51-11.808a7.959,7.959,0,0,0,1.171,3.365,1.369,1.369,0,0,0,1.2.622,1.265,1.265,0,0,0,1.081-.518,3.832,3.832,0,0,0,.538-2.3c0-2.436-1-2.436-1.725-2.436A2.671,2.671,0,0,0,99.736,384.38Z"/>
          </g>
          <g id="组_354" data-name="组 354">
            <path id="路径_750" data-name="路径 750" class="cls-1" d="M102.884,366.688a10.977,10.977,0,0,1,6.2,1.808,2.142,2.142,0,0,1,.9,1.559,2.705,2.705,0,0,1-.868,1.665,2.907,2.907,0,0,1-2.163,1.136,3.239,3.239,0,0,1-1.806-.639,4.558,4.558,0,0,0-1.843-.39q-4.927,0-5.245,7.868a6.847,6.847,0,0,1,2.427-1.913,6.311,6.311,0,0,1,2.712-.708,7.892,7.892,0,0,1,5.759,2.126q2.18,2.125,2.18,6.345a8.653,8.653,0,0,1-8.9,9.143,8.95,8.95,0,0,1-3.739-.8,9.976,9.976,0,0,1-3.208-2.376,11.157,11.157,0,0,1-2.3-4.323,21.311,21.311,0,0,1-.85-6.29q0-6.878,3.261-10.776a9.346,9.346,0,0,1,7.478-3.438m-.78,23.179a2.752,2.752,0,0,0,2.25-1.08,5.109,5.109,0,0,0,.869-3.242q0-3.936-3.226-3.935a4.408,4.408,0,0,0-3.828,2.409,10.037,10.037,0,0,0,1.525,4.607,2.861,2.861,0,0,0,2.41,1.241m.78-26.179a12.262,12.262,0,0,0-9.769,4.5c-2.638,3.155-3.97,7.427-3.97,12.712a24.388,24.388,0,0,0,.984,7.177,14.167,14.167,0,0,0,2.964,5.469,12.983,12.983,0,0,0,4.172,3.074,11.975,11.975,0,0,0,4.981,1.066,11.646,11.646,0,0,0,11.9-12.143c0-3.64-1.038-6.5-3.086-8.493a10.121,10.121,0,0,0-2.108-1.584,6.432,6.432,0,0,0,2.393-1.729,5.543,5.543,0,0,0,1.648-3.61,4.962,4.962,0,0,0-1.914-3.879l-.157-.139-.176-.117a13.986,13.986,0,0,0-7.858-2.306Zm-1.536,21.15a.931.931,0,0,1,.649-.228c.051,0,.094,0,.13,0a3.577,3.577,0,0,1,.1.931,3.909,3.909,0,0,1-.155,1.245,5.707,5.707,0,0,1-.72-1.952Z"/>
          </g>
        </g>
      </g>
    </g>
  </g>
</svg>
