<svg id="组_374" data-name="组 374" xmlns="http://www.w3.org/2000/svg" width="152.876" height="172.855" viewBox="0 0 152.876 172.855">
  <defs>
    <style>
      .cls-1 {
        fill: #fff;
      }

      .cls-2 {
        fill: #ffde78;
      }

      .cls-3 {
        fill: #fff2f5;
      }

      .cls-4 {
        fill: #ff6687;
      }

      .cls-5 {
        fill: #8a493c;
      }

      .cls-6 {
        fill: #f8934f;
      }

      .cls-7 {
        fill: #f8f8f8;
      }

      .cls-8 {
        fill: #ffe2c9;
      }

      .cls-9 {
        fill: #f84f4f;
      }

      .cls-10 {
        fill: #f8c34f;
      }

      .cls-11 {
        fill: #683818;
      }

      .cls-12 {
        fill: #f9fbf8;
      }

      .cls-13 {
        fill: #b36339;
      }
    </style>
  </defs>
  <circle id="椭圆_99" data-name="椭圆 99" class="cls-1" cx="76.438" cy="76.438" r="76.438" transform="translate(0 19.978)"/>
  <circle id="椭圆_100" data-name="椭圆 100" class="cls-2" cx="67.205" cy="67.205" r="67.205" transform="translate(9.233 29.212)"/>
  <path id="路径_442" data-name="路径 442" class="cls-1" d="M695.577,179.864v58.316a1.017,1.017,0,0,1-.291.7l-16.3,16.306a.79.79,0,0,1-.59.281H609.959a3.723,3.723,0,0,1-3.712-3.722V179.864a3.727,3.727,0,0,1,3.712-3.712h81.878a3.728,3.728,0,0,1,3.72,3.712Z" transform="translate(-574.21 -112.871)"/>
  <path id="路径_443" data-name="路径 443" class="cls-3" d="M673.954,185.321v8.891a9.556,9.556,0,1,1,0-8.891Z" transform="translate(-552.59 -111.1)"/>
  <path id="路径_444" data-name="路径 444" class="cls-3" d="M646.52,182.753v.009a9.537,9.537,0,1,1-16.419-6.61h13.763A9.509,9.509,0,0,1,646.52,182.753Z" transform="translate(-564.994 -112.871)"/>
  <path id="路径_445" data-name="路径 445" class="cls-3" d="M624.207,197.387a9.536,9.536,0,0,1-17.961,4.466v-8.938a9.536,9.536,0,0,1,17.961,4.472Z" transform="translate(-574.21 -107.787)"/>
  <path id="路径_446" data-name="路径 446" class="cls-3" d="M635.954,206.688a9.538,9.538,0,0,0,19.076.009v-.009a9.538,9.538,0,1,0-19.076,0Z" transform="translate(-561.296 -103.742)"/>
  <path id="路径_447" data-name="路径 447" class="cls-3" d="M615.215,222.549a9.538,9.538,0,1,0,19.076.009v-.009a9.538,9.538,0,1,0-19.076,0Z" transform="translate(-570.311 -96.847)"/>
  <path id="路径_448" data-name="路径 448" class="cls-4" d="M656.738,224.053v12.479l16.846-16.846H661.105A4.369,4.369,0,0,0,656.738,224.053Z" transform="translate(-552.26 -93.946)"/>
  <path id="路径_449" data-name="路径 449" class="cls-4" d="M661.91,176.964h-5.647a11.471,11.471,0,0,0-22.941,0h-5.647a7.365,7.365,0,0,0-7.343,7.343,6.128,6.128,0,0,0,6.108,6.108h36.706a6.127,6.127,0,0,0,6.108-6.108,7.372,7.372,0,0,0-7.343-7.343Zm-17.128,3.624a4.337,4.337,0,1,1,4.336-4.337A4.333,4.333,0,0,1,644.783,180.588Z" transform="translate(-568.087 -117.482)"/>
  <g id="组_190" data-name="组 190" transform="translate(42.75 79.462)">
    <path id="路径_450" data-name="路径 450" class="cls-5" d="M628.586,191.327h3.96a1.311,1.311,0,0,1,1.064.442,1.827,1.827,0,0,1,.367,1.2q0,1.244-1.095,1.242h-.043a24.494,24.494,0,0,1-2.126,7.752,10.622,10.622,0,0,0,1.768,2,2.5,2.5,0,0,1,1.1,1.232,1.768,1.768,0,0,1-.463,1.463,1.577,1.577,0,0,1-1.148.716,2.069,2.069,0,0,1-1.317-.547,13.093,13.093,0,0,1-1.875-1.98,13.916,13.916,0,0,1-2.927,2.443,1.546,1.546,0,0,1-1.158.221,1.285,1.285,0,0,1-.822-.706c-.029-.042-.073-.113-.136-.211s-.109-.168-.138-.209l-.653.673a.877.877,0,0,1-.568.274.655.655,0,0,1-.528-.189c-.869-.633-1.383-1-1.537-1.1a10.829,10.829,0,0,1-3.686,1.581q-1.582.357-2.045-.948l-.063-.126q-.652-1.138.844-1.369a11.205,11.205,0,0,0,2.274-.7l-.7-.316q-.146.316-.59.168a2.9,2.9,0,0,1-1.379-.791.92.92,0,0,1-.116-1.189q.547-.925.716-1.286h-.61a1.253,1.253,0,0,1,0-2.506h1.874l.527-1.053a.385.385,0,0,1,.528-.231v-1.516a15.848,15.848,0,0,1-1.749,1.412,1.534,1.534,0,0,1-1,.326,1.214,1.214,0,0,1-.812-.621,1.38,1.38,0,0,1-.306-1.159,1.783,1.783,0,0,1,.938-.842,11.044,11.044,0,0,0,2-1.538H615.23a1.222,1.222,0,0,1,0-2.443h.149q-.189-.547-.528-1.306a.951.951,0,0,1-.073-.832.99.99,0,0,1,.643-.558,1.223,1.223,0,0,1,1.042,0,1.637,1.637,0,0,1,.749.821,1.507,1.507,0,0,1,.126,1.138,1.15,1.15,0,0,1-.8.737h1.349v-2.063a1.256,1.256,0,0,1,1.432-1.412,1.237,1.237,0,0,1,1.389,1.412v1.432a13.677,13.677,0,0,0,.739-1.369,1.226,1.226,0,0,1,1.747-.822q1.433.549.359,1.958c-.224.31-.451.6-.674.864h.527a1.222,1.222,0,1,1,0,2.443h-1.686q.295.148.842.475c.366.218.577.34.633.369.379.238.575.478.59.716a1.462,1.462,0,0,1-.42.905,1.355,1.355,0,0,1-.854.631,1.34,1.34,0,0,1-.958-.442c-.225-.211-.505-.456-.844-.736v1.221a.98.98,0,0,1-1.052,1.053h-.631l.716.148c.406.1.527.323.357.674l-.106.209h4.382c-.42-.393-.716-.66-.884-.8a.874.874,0,0,1-.337-.558.75.75,0,0,1,.148-.623,19.629,19.629,0,0,0,2.506-7.33,1.943,1.943,0,0,1,.59-1.254,1.508,1.508,0,0,1,1.264-.326,1.366,1.366,0,0,1,1.306,1.791Q628.817,190.379,628.586,191.327ZM619,202.175l.694.316a7.672,7.672,0,0,0,.57-1.412h-1.6l-.4.8C618.42,201.936,618.665,202.034,619,202.175Zm3.075-11.27q-.842-.357-1.075-.463c-.2-.083-.3-.027-.3.168v.3Zm3.5,12.555a9.225,9.225,0,0,0,1.518-1.581,21.319,21.319,0,0,1-1.181-3.37,1.024,1.024,0,0,1-.1.2,2.023,2.023,0,0,1-.179.264,2.677,2.677,0,0,1-.2.2.294.294,0,0,1-.251.095.44.44,0,0,1-.254-.169l-.231-.231v1.158a1.043,1.043,0,0,1-.284.769,1.015,1.015,0,0,1-.749.284h-.505a10.156,10.156,0,0,1-.927,2.76q.273.148,1.432.905A8.971,8.971,0,0,0,625.573,203.46Zm2.317-9.248a37.089,37.089,0,0,0,.991,3.94,24.891,24.891,0,0,0,.758-3.94Z" transform="translate(-613.714 -187.43)"/>
    <path id="路径_452" data-name="路径 452" class="cls-5" d="M619.153,213.661h9.331a18.57,18.57,0,0,1-2.885-5.055h-3.75a1.443,1.443,0,1,1,0-2.887h4.93a1.622,1.622,0,0,1,.97.306,1.492,1.492,0,0,1,.568.812,12.576,12.576,0,0,0,3.792,5.623q2.021,1.306.821,2.908a1.628,1.628,0,0,1-1.189.779,2.166,2.166,0,0,1-1.38-.59.661.661,0,0,1-.115-.085c-.05-.042-.089-.077-.116-.1q-.211,4.466-.506,6.519a6.081,6.081,0,0,1-.842,2.727,2.891,2.891,0,0,1-1.485,1.032,10.53,10.53,0,0,1-2.455.211,1.532,1.532,0,0,1-1.728-1.264,2.67,2.67,0,0,0-.1-.359q-.316-.671-.032-1.032a1.343,1.343,0,0,1,1.148-.316q.4.022.991.022a1.275,1.275,0,0,0,.9-.3q.654-.652.928-6.046h-3.476q-1.326,5.856-5.2,8.594a1.731,1.731,0,0,1-2.317-.168q-.76-.822-.58-1.422a2.4,2.4,0,0,1,1.211-1.191,9.914,9.914,0,0,0,3.539-5.813h-1.6a1.023,1.023,0,0,1-1.116-1.116v-.063c-.113.141-.2.24-.252.3a1.541,1.541,0,0,1-2.423.189,1.862,1.862,0,0,1-.736-1.317,2.037,2.037,0,0,1,.8-1.316,13.981,13.981,0,0,0,2.255-3.581,1.651,1.651,0,0,1,2.148-1.222q1.685.4,1.075,2.065a18.444,18.444,0,0,1-1.369,2.717C618.719,213.515,618.8,213.661,619.153,213.661Z" transform="translate(-613.592 -179.479)"/>
    <path id="路径_453" data-name="路径 453" class="cls-5" d="M630.537,217.556h10.976q.062-.652.146-1.811h-6.593v.042a.824.824,0,0,1-.42.548,1.264,1.264,0,0,1-.759.148,2.975,2.975,0,0,1-1.568-.465,1.07,1.07,0,0,1-.37-1.221q.885-3.854,1.455-7.773a1.479,1.479,0,0,1,1.791-1.432,1.4,1.4,0,0,1,1.432,1.812c-.014.07-.036.168-.063.3s-.049.224-.063.294h8.172a1.506,1.506,0,0,1,0,3.011h-8.678q-.125.633-.337,1.854h7.92q1.455,0,1.327,2-.19,2.171-.231,2.7h2.382a1.5,1.5,0,0,1,0,2.991h-2.74q-.441,3.181-1.284,4.108a3.326,3.326,0,0,1-1.085.842,4.88,4.88,0,0,1-1.4.359,14.108,14.108,0,0,1-2.043.106,1.937,1.937,0,0,1-1.148-.37,1.438,1.438,0,0,1-.558-.894l-.148-.443c-.24-.463-.263-.813-.073-1.053s.594-.343,1.211-.316q.633.022,1.495.022a1.588,1.588,0,0,0,1.033-.3,3.979,3.979,0,0,0,.779-2.065H630.537a1.5,1.5,0,0,1,0-2.991Z" transform="translate(-607.051 -179.54)"/>
    <path id="路径_454" data-name="路径 454" class="cls-5" d="M658.52,215.142h-8.614a1.4,1.4,0,0,1-1.021-.38,1.341,1.341,0,0,1-.39-1.011v-.126q-1.1.779-1.79,1.2a1.827,1.827,0,0,1-1.2.317,1.687,1.687,0,0,1-1.011-.7q-1.074-1.39.739-2.4a23.969,23.969,0,0,0,3.57-2.769,19.231,19.231,0,0,0,2.727-3.108,1.53,1.53,0,0,1,1.39-.653h1.412a1.664,1.664,0,0,1,1.412.716,19.815,19.815,0,0,0,6.634,5.709,2.029,2.029,0,0,1,1.169,1.01,1.734,1.734,0,0,1-.431,1.433,1.7,1.7,0,0,1-1.033.769,1.848,1.848,0,0,1-1.264-.349q-.633-.379-1.643-1.073v.779a.617.617,0,0,1-.179.453A.644.644,0,0,1,658.52,215.142Zm-10.172,1.831H659.47a1.339,1.339,0,0,1,1.41,1.412v5.478a1.346,1.346,0,0,1-.39,1.01,1.4,1.4,0,0,1-1.02.379H648.348a1.4,1.4,0,0,1-1.023-.379,1.346,1.346,0,0,1-.39-1.01v-5.478a1.339,1.339,0,0,1,1.413-1.412Zm2.168,5.541h7.142v-2.8h-7.142c-.336,0-.505.176-.505.527v1.77A.447.447,0,0,0,650.516,222.514Zm-.442-10.111h6.847c.35,0,.386-.119.1-.359a22.189,22.189,0,0,1-3.307-3.475A20.574,20.574,0,0,1,650.074,212.4Z" transform="translate(-600.508 -179.568)"/>
    <path id="路径_8669" data-name="路径 8669" class="cls-5" d="M4.045-3.669V-.513q0,.522.5.522H6.3a.462.462,0,0,0,.522-.522V-3.669Zm0-5.057v2.382H6.824V-8.726A.462.462,0,0,0,6.3-9.248H4.547Q4.045-9.248,4.045-8.726Zm10.219-3.427h4.409a1.079,1.079,0,0,1,1.014.585,4.646,4.646,0,0,1,.3,2.111Q19.823-2.77,19.551-.1a7.778,7.778,0,0,1-.878,3.469,3.131,3.131,0,0,1-.972.94,4.265,4.265,0,0,1-1.264.418,12.467,12.467,0,0,1-2.006.1A1.522,1.522,0,0,1,12.78,3.583a1.537,1.537,0,0,1-.063-.167l-.063-.188q-.334-.669-.042-1.014a1.454,1.454,0,0,1,1.191-.3q.606.021,1.379.021a1.208,1.208,0,0,0,.919-.376,5.918,5.918,0,0,0,.669-2.748q.23-2.267.355-7.178a1.586,1.586,0,0,0-.094-.763.411.411,0,0,0-.387-.2H13.135q-.4.857-1.066,2.048a1.178,1.178,0,0,1-.825.585,1.271,1.271,0,0,1-1.014-.313q-.1-.063-.324-.23t-.324-.23v8.8A1.371,1.371,0,0,1,9.2,2.339a1.371,1.371,0,0,1-1.014.387H2.645a1.335,1.335,0,0,1-1-.387,1.392,1.392,0,0,1-.376-1.014v-11.87a1.392,1.392,0,0,1,.376-1.014,1.335,1.335,0,0,1,1-.387H3.669q.251-1.317.313-1.755.146-1.714,1.8-1.484,1.734.23,1.108,2.069-.042.125-.188.543t-.23.627H8.183a1.371,1.371,0,0,1,1.014.387,1.371,1.371,0,0,1,.387,1.014v1.463a21,21,0,0,0,2.09-4.786,1.421,1.421,0,0,1,1.881-1.149,1.29,1.29,0,0,1,1.087,1.839q-.063.167-.188.512T14.264-12.153ZM13.114-2.06q-.251-.46-.731-1.285t-.648-1.1a1.206,1.206,0,0,1,.543-1.881,1.237,1.237,0,0,1,1.881.418q.313.46,1.63,2.549a1.339,1.339,0,0,1,.188,1.045,1.788,1.788,0,0,1-.773.794A1.273,1.273,0,0,1,13.114-2.06Z" transform="translate(21.491 15.581)"/>
  </g>
  <g id="组_191" data-name="组 191" transform="translate(89.432 81.122)">
    <circle id="椭圆_101" data-name="椭圆 101" class="cls-6" cx="8.923" cy="8.923" r="8.923"/>
    <path id="路径_455" data-name="路径 455" class="cls-7" d="M654.859,196.363c-.067.339-.178.34-.248,0l-1.222-5.974a.488.488,0,0,1,.5-.61l1.62.019a.5.5,0,0,1,.508.624Zm-.25,1.234c.066-.339.178-.34.247,0l1.225,5.976a.489.489,0,0,1-.5.61l-1.618-.019a.507.507,0,0,1-.509-.624Zm-.222-1.142c.194.287.115.366-.174.175l-5.092-3.359a.487.487,0,0,1-.075-.786l1.158-1.132a.506.506,0,0,1,.8.082Zm.7,1.05c-.192-.287-.115-.366.174-.175l5.09,3.359a.487.487,0,0,1,.076.786l-1.158,1.132a.505.505,0,0,1-.8-.082Zm-.966-.65c.34.066.34.176,0,.247l-5.976,1.224a.486.486,0,0,1-.608-.5l.017-1.62a.506.506,0,0,1,.624-.508Zm1.235.25c-.34-.066-.34-.178,0-.247l5.976-1.225a.487.487,0,0,1,.608.5l-.017,1.62a.506.506,0,0,1-.624.508Zm-1.142.224c.286-.194.365-.116.175.174l-3.36,5.09a.488.488,0,0,1-.786.076l-1.132-1.158a.507.507,0,0,1,.082-.8Zm1.049-.7c-.287.194-.366.115-.175-.174l3.359-5.09a.488.488,0,0,1,.786-.076l1.132,1.158a.508.508,0,0,1-.082.8Z" transform="translate(-645.693 -188.069)"/>
  </g>
  <g id="组_192" data-name="组 192" transform="translate(10.159 34.7)">
    <path id="路径_456" data-name="路径 456" class="cls-8" d="M592.01,170.538l13.3-13.3a3.452,3.452,0,0,1,4.882,0l0,0,13.181,13.181-.258,15.228a2.61,2.61,0,0,1-2.544,2.564l-15.377.386-13.179-13.179a3.453,3.453,0,0,1-.006-4.884l0,0Z" transform="translate(-590.998 -156.231)"/>
    <path id="路径_457" data-name="路径 457" class="cls-9" d="M601.732,157.261a3.365,3.365,0,0,1,4.759,0l13.1,13.1a.252.252,0,0,1,.033.334l-.019.019a5.459,5.459,0,0,1-8.524,1.063l-11.928-11.93Z" transform="translate(-587.454 -156.212)"/>
    <path id="路径_458" data-name="路径 458" class="cls-10" d="M594.293,164.532a.26.26,0,0,1,.367,0L605.9,175.769c2.43,2.43,2.984,5.855.552,8.287a5.949,5.949,0,0,1-1.067.845.253.253,0,0,1-.334-.033l-12.92-12.92a3.714,3.714,0,0,1,0-5.253Z" transform="translate(-590.98 -152.655)"/>
    <path id="路径_459" data-name="路径 459" class="cls-6" d="M601.45,158.81a.261.261,0,0,1,.369,0h0l11.235,11.235c2.43,2.43,2.8,6.042.363,8.476a6.043,6.043,0,0,1-8.651-.188L593.53,167.1a.28.28,0,0,1,0-.37Z" transform="translate(-589.928 -155.143)"/>
    <path id="路径_460" data-name="路径 460" class="cls-11" d="M608.2,180.89l4.9-.123a2.61,2.61,0,0,0,2.544-2.564l.08-4.835Z" transform="translate(-583.522 -148.781)"/>
    <path id="路径_461" data-name="路径 461" class="cls-12" d="M611.162,169.269a1.4,1.4,0,1,1,1.977,1.977h0a1.4,1.4,0,0,1-1.977-1.977Zm1.185,4.349a.84.84,0,1,1-.007,1.2A.852.852,0,0,1,612.347,173.618Z" transform="translate(-582.41 -150.741)"/>
  </g>
  <g id="组_197" data-name="组 197" transform="translate(54.056 0)">
    <g id="组_196" data-name="组 196">
      <g id="组_195" data-name="组 195">
        <g id="组_193" data-name="组 193" transform="translate(2.152 2.152)">
          <path id="路径_462" data-name="路径 462" class="cls-13" d="M644.434,174.039c-3.875,0-6.189-2.314-6.189-6.189v-2.835h-9.864a5.2,5.2,0,0,1-3.822-1.528,5.339,5.339,0,0,1-1.465-3.806v-1.616a6.136,6.136,0,0,1,.964-3.4l10.782-18.211a5.742,5.742,0,0,1,5.128-2.907h5.321a5.159,5.159,0,0,1,5.334,5.334v15.363c2.522.508,4.034,2.44,4.034,5.3,0,2.93-1.482,4.851-4.034,5.349v2.963C650.623,171.724,648.309,174.039,644.434,174.039Zm-6.189-19.93V152.38l-1,1.729Z" transform="translate(-623.094 -133.545)"/>
        </g>
        <g id="组_194" data-name="组 194">
          <path id="路径_463" data-name="路径 463" class="cls-1" d="M645.941,136.349a3.015,3.015,0,0,1,3.182,3.182v17.382h.758q3.278,0,3.277,3.277,0,3.325-3.277,3.324h-.758V168.5q0,4.035-4.037,4.036t-4.037-4.036v-4.987H629.033a3.036,3.036,0,0,1-2.28-.878,3.169,3.169,0,0,1-.855-2.3v-1.616a4,4,0,0,1,.618-2.231L637.343,138.2a3.565,3.565,0,0,1,3.277-1.851h5.322m-4.561,7.267h-.189q-1.664,3.751-2.9,6.174l-4.132,7.123h6.888V151.64q0-.045.331-8.024m4.561-11.571H640.62a7.822,7.822,0,0,0-6.984,3.97L622.849,154.23a8.261,8.261,0,0,0-1.255,4.486v1.616a7.438,7.438,0,0,0,2.069,5.3,7.3,7.3,0,0,0,5.37,2.187h7.712v.683c0,5.066,3.274,8.34,8.342,8.34s8.341-3.274,8.341-8.34v-1.425a7.858,7.858,0,0,0,0-13.73V139.531a7.311,7.311,0,0,0-7.486-7.486Z" transform="translate(-621.594 -132.045)"/>
        </g>
      </g>
    </g>
  </g>
</svg>
