<svg id="组_13228" data-name="组 13228" xmlns="http://www.w3.org/2000/svg" width="114.478" height="114.258" viewBox="0 0 114.478 114.258">
  <defs>
    <style>
      .cls-1 {
        fill: #8a493c;
      }

      .cls-2 {
        fill: #e37863;
      }

      .cls-3 {
        fill: #cf9946;
      }

      .cls-4 {
        fill: #deaf66;
      }

      .cls-5 {
        fill: #fff;
      }
    </style>
  </defs>
  <g id="组_368" data-name="组 368" transform="translate(0 0)">
    <rect id="矩形_67" data-name="矩形 67" class="cls-1" width="99.217" height="15.232" transform="translate(7.827 14.939)"/>
    <rect id="矩形_68" data-name="矩形 68" class="cls-1" width="11.914" height="29.829" rx="4.152" transform="translate(0 7.958)"/>
    <path id="路径_771" data-name="路径 771" class="cls-1" d="M1235.618,11.936v17.91a5.953,5.953,0,0,1-11.907,0V11.936a5.953,5.953,0,1,1,11.907,0Z" transform="translate(-1121.14 1.984)"/>
    <path id="路径_772" data-name="路径 772" class="cls-2" d="M1235.618,8.412V23.884c0,4.392-2.672,7.986-5.953,7.986s-5.954-3.594-5.954-7.986V8.412c0-4.393,2.673-7.986,5.954-7.986a5.325,5.325,0,0,1,4.212,2.346A9.555,9.555,0,0,1,1235.618,8.412Z" transform="translate(-1121.14 -0.426)"/>
    <path id="路径_773" data-name="路径 773" class="cls-2" d="M1164.127,8.412V23.884c0,4.392-2.672,7.986-5.953,7.986s-5.953-3.594-5.953-7.986V8.412c0-4.393,2.671-7.986,5.953-7.986a5.33,5.33,0,0,1,4.214,2.346A9.555,9.555,0,0,1,1164.127,8.412Z" transform="translate(-1152.218 -0.426)"/>
    <path id="路径_774" data-name="路径 774" class="cls-3" d="M1252.376,75.232a14.589,14.589,0,0,1-3.268,9.857c-7.967,9.57-24.7,18.356-37.92,24.795a11.412,11.412,0,0,1-9.347.323c-13.2-5.432-26.088-15.462-33.943-22.247a21.488,21.488,0,0,1-7.37-16.854l1.666-56.637a5.875,5.875,0,0,1,5.866-5.693h75.466a5.561,5.561,0,0,1,.907.075,5.848,5.848,0,0,1,4.96,5.469C1250.113,27.717,1251.9,61.7,1252.376,75.232Z" transform="translate(-1148.611 3.204)"/>
    <g id="组_367" data-name="组 367" transform="translate(17.631 11.98)">
      <g id="组_366" data-name="组 366">
        <path id="路径_775" data-name="路径 775" class="cls-4" d="M1245.868,64.693a22.906,22.906,0,0,1-8.737,18.083c-5.841,4.611-20.693,15.313-32.413,15.313-15.113,0-33.322-14.778-38.205-24.746-4.4-8.961-.323-54.66.621-64.567h3.119l3.095.3c-1.989,20.719-4.089,55.755-1.255,61.534,3.667,7.471,19.588,21.265,32.626,21.265,7.991,0,20-7.221,28.574-13.981a16.689,16.689,0,0,0,6.363-13.2c.024-23.267-1.4-51.8-3.356-55.917h5.494a5.561,5.561,0,0,1,.907.075C1245.857,22.535,1245.868,64.221,1245.868,64.693Z" transform="translate(-1164.508 -8.776)"/>
      </g>
    </g>
  </g>
  <path id="路径_26565" data-name="路径 26565" class="cls-5" d="M8.295-24.673a7.416,7.416,0,0,1,.666.515,1.725,1.725,0,0,1,0,2.876,2.01,2.01,0,0,1-3.179.03q-.363-.333-1.15-1-1.968-1.423-.242-3.058a1.957,1.957,0,0,1,2.543-.333Q7.78-25.066,8.295-24.673ZM5.722-19.5A21.031,21.031,0,0,1,7.75-18.164a1.708,1.708,0,0,1,.121,2.876A2.08,2.08,0,0,1,4.6-15.2a12.6,12.6,0,0,0-1.12-.848q-2.089-1.393-.394-3.088A2.058,2.058,0,0,1,5.722-19.5ZM19.829-8.416a23.245,23.245,0,0,1-1.907-4.541h-1.7v5.086Zm-3.6-12.5h6.69v-.575q0-.363-.394-.363h-5.57q-.727,0-.727.757Zm6.721,9.748a19.635,19.635,0,0,0,2.3-1.786H22.009A14.387,14.387,0,0,0,22.947-11.171Zm-.03-6.569h-6.69v1.029h6.69ZM13.9-25.611H25.218a1.935,1.935,0,0,1,1.453.56,2.016,2.016,0,0,1,.545,1.468v10.626l1.241,1.029a.971.971,0,0,1,.469.863,1.151,1.151,0,0,1-.651.833l-2.967,1.7a14.656,14.656,0,0,0,1.423.969,3.415,3.415,0,0,1,1.953,1.393q.378.787-.5,2.119-1.15,1.544-3.33.636A12.875,12.875,0,0,1,20.979-6.66l.091,1.09a.85.85,0,0,1-.787,1q-1.635.3-4.813.908T10.9-2.815a10.838,10.838,0,0,0,4.269.969q5.146.212,12.17-.151,1.574-.121,2.074.454T29.486.515a2.866,2.866,0,0,1-.817,1.393,2.456,2.456,0,0,1-1.514.454q-6.933.212-12.049.03a15.106,15.106,0,0,1-4.768-.908A8.243,8.243,0,0,1,7.023-1Q5.752.151,5.086.7,2.755,2.6,1.574.091A2.254,2.254,0,0,1,2.6-3.148q.394-.242,1.075-.7T4.6-4.45V-7.72a.669.669,0,0,0-.757-.757H3.481a1.82,1.82,0,0,1-2.059-2.059,1.82,1.82,0,0,1,2.059-2.059H6.9a1.985,1.985,0,0,1,1.468.56,1.985,1.985,0,0,1,.56,1.468v5.813a5.037,5.037,0,0,0,1.544,1.665L10.2-5.146A1.919,1.919,0,0,1,10.5-6.6a1.817,1.817,0,0,1,1.271-.7h.091V-23.583a1.985,1.985,0,0,1,.56-1.468A1.985,1.985,0,0,1,13.9-25.611ZM57.1,1.211H36.056a1.985,1.985,0,0,1-1.468-.56,1.985,1.985,0,0,1-.56-1.468V-8.174a2.02,2.02,0,0,1,2.3-2.271A2.007,2.007,0,0,1,38.6-8.174v5h5.389v-8.749H37.3a1.985,1.985,0,0,1-1.468-.56,1.985,1.985,0,0,1-.56-1.468v-7.417a1.967,1.967,0,0,1,2.24-2.21,1.967,1.967,0,0,1,2.24,2.21v4.329a.642.642,0,0,0,.727.727h3.512v-7.478a2.047,2.047,0,0,1,2.331-2.3,2.034,2.034,0,0,1,2.3,2.3v7.478H53.16v-4.935a2.087,2.087,0,0,1,2.361-2.361,2.087,2.087,0,0,1,2.361,2.361v7.3a1.985,1.985,0,0,1-.56,1.468,1.985,1.985,0,0,1-1.468.56H48.619v8.749h5.813V-8.113a2.074,2.074,0,0,1,2.361-2.331,2.06,2.06,0,0,1,2.331,2.331v7.3a1.985,1.985,0,0,1-.56,1.468A1.985,1.985,0,0,1,57.1,1.211Z" transform="translate(27.886 62.064)"/>
</svg>
