<svg xmlns="http://www.w3.org/2000/svg" width="105.066" height="119.467" viewBox="0 0 105.066 119.467">
  <defs>
    <style>
      .cls-1 {
        fill: #fff;
      }

      .cls-2 {
        fill: #ffde78;
      }

      .cls-3 {
        fill: #ffa71c;
      }

      .cls-4 {
        fill: #666246;
      }

      .cls-5 {
        fill: #d18917;
      }

      .cls-6 {
        fill: #e23f3b;
      }

      .cls-7 {
        fill: #ffe2c9;
      }

      .cls-8 {
        fill: #f84f4f;
      }

      .cls-9 {
        fill: #f8c34f;
      }

      .cls-10 {
        fill: #f8934f;
      }

      .cls-11 {
        fill: #683818;
      }

      .cls-12 {
        fill: #f9fbf8;
      }

      .cls-13 {
        fill: #b36339;
      }
    </style>
  </defs>
  <g id="组_376" data-name="组 376" transform="translate(-233.651 -81.679)">
    <circle id="椭圆_95" data-name="椭圆 95" class="cls-1" cx="52.533" cy="52.533" r="52.533" transform="translate(233.651 96.08)"/>
    <circle id="椭圆_96" data-name="椭圆 96" class="cls-2" cx="46.187" cy="46.187" r="46.187" transform="translate(239.997 102.426)"/>
    <rect id="矩形_39" data-name="矩形 39" class="cls-3" width="70.491" height="44.053" transform="translate(250.939 124.812)"/>
    <rect id="矩形_40" data-name="矩形 40" class="cls-4" width="64.146" height="38.831" transform="translate(254.111 127.423)"/>
    <path id="路径_397" data-name="路径 397" class="cls-3" d="M256,168.865l-2.631,10.481h5.717l2.73-10.481Z"/>
    <path id="路径_398" data-name="路径 398" class="cls-3" d="M316.373,168.865l3.237,10.481h-5.717l-3.336-10.481Z"/>
    <path id="路径_399" data-name="路径 399" class="cls-5" d="M260.45,173.393h51.468l-1.361-4.529H261.812Z"/>
    <g id="组_172" data-name="组 172">
      <rect id="矩形_41" data-name="矩形 41" class="cls-1" width="1.95" height="4.795" rx="0.573" transform="translate(260.738 154.935)"/>
      <path id="路径_400" data-name="路径 400" class="cls-1" d="M264.2,159.95l-.726-.04a.573.573,0,0,1-.54-.613l.256-3.642a.574.574,0,0,1,.6-.532l.726.041a.573.573,0,0,1,.54.612l-.256,3.642A.573.573,0,0,1,264.2,159.95Z"/>
      <path id="路径_401" data-name="路径 401" class="cls-1" d="M266.523,160.116l-.866-.135a.574.574,0,0,1-.475-.677l.7-3.6a.573.573,0,0,1,.65-.457l.867.135a.573.573,0,0,1,.474.676l-.7,3.6A.574.574,0,0,1,266.523,160.116Z"/>
      <path id="路径_402" data-name="路径 402" class="cls-6" d="M260.01,158.95h8.278l-1.041,7.006h-6.8Z"/>
    </g>
    <rect id="矩形_42" data-name="矩形 42" class="cls-1" width="26.121" height="1.969" rx="0.984" transform="matrix(0.999, 0.049, -0.049, 0.999, 286.248, 153.311)"/>
    <g id="组_173" data-name="组 173">
      <path id="路径_403" data-name="路径 403" class="cls-1" d="M261.612,138.065h5.551a.865.865,0,0,1,.913.914v8.768a2.606,2.606,0,0,0,.055.7.233.233,0,0,0,.245.143h.546q.2,0,.273-.4a3.166,3.166,0,0,1,.368-1.418.628.628,0,0,1,.927-.232,1,1,0,0,1,.5.723,3.427,3.427,0,0,1,.075,1.118,3.482,3.482,0,0,1-.627,1.684,1.593,1.593,0,0,1-1.282.511h-1.187a1.787,1.787,0,0,1-1.561-.606,4.15,4.15,0,0,1-.43-2.244v-7.677H262.84v2.455q0,5.127-2.387,7.623-.914.8-1.636.136-.913-.833.286-1.937a6.053,6.053,0,0,0,1.289-2.625,15.541,15.541,0,0,0,.307-3.225v-3.5a.865.865,0,0,1,.913-.914Z"/>
      <path id="路径_404" data-name="路径 404" class="cls-1" d="M276.545,146.247v3.586a1.009,1.009,0,0,1-2.018,0v-3.245a11,11,0,0,1-.846,1.7q-.423.588-.75.566t-.655-.647a1.193,1.193,0,0,1,.164-1.4,11.969,11.969,0,0,0,1.6-3.177h-.914a.935.935,0,1,1,0-1.869h1.4v-1.513c-.537.082-.878.131-1.023.15a.839.839,0,0,1-1.009-.6c-.2-.582.041-.932.722-1.05a23.544,23.544,0,0,0,3.314-.819,1.065,1.065,0,0,1,.655-.033,1.255,1.255,0,0,1,.532.429q.777.954-.4,1.322c-.082.019-.209.051-.382.1s-.3.077-.395.1v1.923h.859a.935.935,0,1,1,0,1.869h-.859v.163q.369.369,1.609,1.787a.933.933,0,0,1,.232.539,1.258,1.258,0,0,1-.259.552q-.383.56-.7.532t-.674-.614a1.765,1.765,0,0,1-.11-.171C276.6,146.34,276.563,146.284,276.545,146.247Zm3.014-7.351h3.968a.845.845,0,0,1,.9.9v8.346a.843.843,0,0,1-.9.9h-2.9v.11a.989.989,0,0,1-1.978,0V139.8a.873.873,0,0,1,.252-.655A.912.912,0,0,1,279.559,138.9Zm1.064,2.278v5.932h1.731v-6.273h-1.4C280.731,140.833,280.623,140.947,280.623,141.174Z"/>
      <path id="路径_405" data-name="路径 405" class="cls-1" d="M293.428,145.811h4.145a.717.717,0,0,1,.669.348,2.23,2.23,0,0,1,.15,1.193,4.765,4.765,0,0,1-.559,2.3,1.593,1.593,0,0,1-.566.409,1.9,1.9,0,0,1-.559.157q-.24.021-.853.048a1.155,1.155,0,0,1-.736-.225.952.952,0,0,1-.355-.593.262.262,0,0,0-.027-.089.242.242,0,0,1-.028-.089.574.574,0,0,1,.007-.6.733.733,0,0,1,.648-.191h.3a.725.725,0,0,0,.464-.122,1.686,1.686,0,0,0,.245-.886h-2.945v2.4a.982.982,0,0,1-1.964,0v-1.5a12.3,12.3,0,0,1-3.151,2.045,1.024,1.024,0,0,1-1.309-.3q-.395-.546-.245-.859a1.347,1.347,0,0,1,.8-.546,12.763,12.763,0,0,0,2.346-1.24h-.941c-.054.154-.191.222-.409.2a2.277,2.277,0,0,1-1.091-.375.693.693,0,0,1-.3-.811q.342-1.282.505-2.087a.943.943,0,0,1,.968-.791h2.823v-.559h-3.137a.865.865,0,0,1-.913-.914V141.6c-.055.054-.105.059-.15.013a2.908,2.908,0,0,1-.607-.552,1.511,1.511,0,0,1-.327-.661.667.667,0,0,1,.211-.641,9.508,9.508,0,0,0,1.022-1.486.927.927,0,0,1,.58-.526,1.524,1.524,0,0,1,.866-.007.862.862,0,0,1,.491.307.507.507,0,0,1,.027.512v.013l-.013.014h1.95a.776.776,0,0,1,.832.832v.041c0,.209.072.236.218.082a7.038,7.038,0,0,0,.791-1.242.923.923,0,0,1,.572-.552,1.506,1.506,0,0,1,.887-.02.836.836,0,0,1,.505.307.511.511,0,0,1,.041.525v.013l-.014.014h2.755a.771.771,0,0,1,0,1.541h-1.214c.009.009.036.045.082.109s.079.112.1.143.052.08.089.144a.436.436,0,0,1,.061.149,1.2,1.2,0,0,1,.007.13.171.171,0,0,1-.061.13.545.545,0,0,1-.171.1l-1.009.4h.914a.8.8,0,0,1,.845.846v2.073a.864.864,0,0,1-.914.913h-3.354Zm-4.842-5.66a13.62,13.62,0,0,1-.995,1.268h1.623A12.492,12.492,0,0,0,288.586,140.151Zm.791,5.66h2.087v-.56H289.5Zm.464-4.392h3.3a10.006,10.006,0,0,0-1.213-.831q-.287-.177,0-.437l.027-.027H290.6c.1.155.169.266.2.334a.606.606,0,0,1,.048.3.324.324,0,0,1-.225.293Zm4.582-1.3a10.418,10.418,0,0,1-1.036,1.3h2.127a9.063,9.063,0,0,0-.791-1.3Zm-.995,3.491h2.018a.253.253,0,0,0,.286-.286v-.041c0-.155-.082-.232-.245-.232h-2.059Z"/>
      <path id="路径_406" data-name="路径 406" class="cls-1" d="M303.505,138.065h5.551a.865.865,0,0,1,.913.914v8.768a2.608,2.608,0,0,0,.055.7.233.233,0,0,0,.246.143h.545q.2,0,.273-.4a3.166,3.166,0,0,1,.368-1.418.628.628,0,0,1,.927-.232,1,1,0,0,1,.5.723,3.427,3.427,0,0,1,.075,1.118,3.482,3.482,0,0,1-.627,1.684,1.593,1.593,0,0,1-1.282.511H309.86a1.787,1.787,0,0,1-1.561-.606,4.149,4.149,0,0,1-.43-2.244v-7.677h-3.136v2.455q0,5.127-2.387,7.623-.914.8-1.636.136-.913-.833.286-1.937a6.053,6.053,0,0,0,1.289-2.625,15.541,15.541,0,0,0,.307-3.225v-3.5a.865.865,0,0,1,.913-.914Z"/>
    </g>
    <g id="组_174" data-name="组 174">
      <path id="路径_407" data-name="路径 407" class="cls-7" d="M241.328,115.509l9.138-9.138a2.371,2.371,0,0,1,3.355,0l0,0,9.059,9.058L262.7,125.9a1.793,1.793,0,0,1-1.748,1.762l-10.568.266-9.058-9.059a2.371,2.371,0,0,1,0-3.355l0,0Z"/>
      <path id="路径_408" data-name="路径 408" class="cls-8" d="M250.446,106.4a2.312,2.312,0,0,1,3.271,0l9,9a.173.173,0,0,1,.022.229l-.013.014a3.753,3.753,0,0,1-5.858.73l-8.2-8.2Z"/>
      <path id="路径_409" data-name="路径 409" class="cls-9" d="M242.91,113.838a.18.18,0,0,1,.253,0l7.721,7.721c1.67,1.671,2.05,4.025.38,5.7a4.115,4.115,0,0,1-.734.581.175.175,0,0,1-.23-.023l-8.879-8.88a2.551,2.551,0,0,1,0-3.609Z"/>
      <path id="路径_410" data-name="路径 410" class="cls-10" d="M248.551,108.2a.18.18,0,0,1,.254,0h0l7.722,7.721a4.018,4.018,0,0,1,.249,5.826,4.153,4.153,0,0,1-5.946-.129l-7.721-7.721a.192.192,0,0,1,0-.254Z"/>
      <path id="路径_411" data-name="路径 411" class="cls-11" d="M257.591,127.743l3.366-.085A1.792,1.792,0,0,0,262.7,125.9l.056-3.323Z"/>
      <path id="路径_412" data-name="路径 412" class="cls-12" d="M260.393,118.409a.961.961,0,0,1,1.359,1.359h0a.961.961,0,1,1-1.359-1.359Zm.815,2.989a.577.577,0,1,1-.005.821A.585.585,0,0,1,261.208,121.4Z"/>
    </g>
    <g id="组_179" data-name="组 179">
      <g id="组_178" data-name="组 178">
        <g id="组_177" data-name="组 177">
          <g id="组_175" data-name="组 175">
            <path id="路径_413" data-name="路径 413" class="cls-13" d="M278.951,114.1a3.6,3.6,0,0,1-3.767-3.767v-.145a5.162,5.162,0,0,1,1.921-3.763,63.728,63.728,0,0,0,7.307-7.739c1.47-1.943,2.216-3.63,2.216-5.015a2.641,2.641,0,0,0-.544-1.848,1.9,1.9,0,0,0-1.52-.538,3.583,3.583,0,0,0-1.77.577,4.3,4.3,0,0,1-2.827,1.187,4.073,4.073,0,0,1-2.9-1.34,3.823,3.823,0,0,1-1.27-2.8,4.166,4.166,0,0,1,1.528-2.961l.093-.08a12.707,12.707,0,0,1,8.051-2.695,10.576,10.576,0,0,1,7.524,2.765,9.658,9.658,0,0,1,2.972,7.336c0,3.6-1.962,7.646-5.981,12.3q.363-.017.667-.016h2.3a4.271,4.271,0,0,1,0,8.542Z"/>
          </g>
          <g id="组_176" data-name="组 176">
            <path id="路径_414" data-name="路径 414" class="cls-1" d="M285.464,84.679a9.088,9.088,0,0,1,6.5,2.357,8.18,8.18,0,0,1,2.5,6.244q0,5.829-8.276,14.178a38.187,38.187,0,0,1,4.463-.4h2.3a2.771,2.771,0,0,1,0,5.542h-14a2.11,2.11,0,0,1-2.267-2.267v-.144a3.736,3.736,0,0,1,1.44-2.663,64.987,64.987,0,0,0,7.484-7.935q2.518-3.329,2.52-5.92a4.029,4.029,0,0,0-.955-2.879,3.421,3.421,0,0,0-2.608-1.007,5.116,5.116,0,0,0-2.664.864,2.927,2.927,0,0,1-1.934.9,2.625,2.625,0,0,1-1.843-.9q-1.766-1.764.215-3.6a11.2,11.2,0,0,1,7.125-2.375m0-3a14.178,14.178,0,0,0-8.978,3.015l-.1.076-.09.084a5.6,5.6,0,0,0-2.007,4.033A5.284,5.284,0,0,0,276,92.775a5.536,5.536,0,0,0,3.964,1.778,5.692,5.692,0,0,0,3.694-1.455,1.966,1.966,0,0,1,.9-.309.864.864,0,0,1,.431.071,1.685,1.685,0,0,1,.132.815,7.876,7.876,0,0,1-1.912,4.11,62.644,62.644,0,0,1-7.132,7.546,6.583,6.583,0,0,0-2.4,4.862v.144a5.1,5.1,0,0,0,5.267,5.267h14a5.772,5.772,0,0,0,.165-11.54c2.916-3.936,4.345-7.5,4.345-10.784a11.1,11.1,0,0,0-3.442-8.427,12.033,12.033,0,0,0-8.554-3.174Z"/>
          </g>
        </g>
      </g>
    </g>
  </g>
</svg>
