<svg id="组_370" data-name="组 370" xmlns="http://www.w3.org/2000/svg" width="114.478" height="114.258" viewBox="0 0 114.478 114.258">
  <defs>
    <style>
      .cls-1 {
        fill: #8a493c;
      }

      .cls-2 {
        fill: #e37863;
      }

      .cls-3 {
        fill: #cf9946;
      }

      .cls-4 {
        fill: #deaf66;
      }

      .cls-5 {
        fill: #fff;
      }
    </style>
  </defs>
  <g id="组_368" data-name="组 368" transform="translate(0 0)">
    <rect id="矩形_67" data-name="矩形 67" class="cls-1" width="99.217" height="15.232" transform="translate(7.827 14.939)"/>
    <rect id="矩形_68" data-name="矩形 68" class="cls-1" width="11.914" height="29.829" rx="4.152" transform="translate(0 7.958)"/>
    <path id="路径_771" data-name="路径 771" class="cls-1" d="M1235.618,11.936v17.91a5.953,5.953,0,0,1-11.907,0V11.936a5.953,5.953,0,1,1,11.907,0Z" transform="translate(-1121.14 1.984)"/>
    <path id="路径_772" data-name="路径 772" class="cls-2" d="M1235.618,8.412V23.884c0,4.392-2.672,7.986-5.953,7.986s-5.954-3.594-5.954-7.986V8.412c0-4.393,2.673-7.986,5.954-7.986a5.325,5.325,0,0,1,4.212,2.346A9.555,9.555,0,0,1,1235.618,8.412Z" transform="translate(-1121.14 -0.426)"/>
    <path id="路径_773" data-name="路径 773" class="cls-2" d="M1164.127,8.412V23.884c0,4.392-2.672,7.986-5.953,7.986s-5.953-3.594-5.953-7.986V8.412c0-4.393,2.671-7.986,5.953-7.986a5.33,5.33,0,0,1,4.214,2.346A9.555,9.555,0,0,1,1164.127,8.412Z" transform="translate(-1152.218 -0.426)"/>
    <path id="路径_774" data-name="路径 774" class="cls-3" d="M1252.376,75.232a14.589,14.589,0,0,1-3.268,9.857c-7.967,9.57-24.7,18.356-37.92,24.795a11.412,11.412,0,0,1-9.347.323c-13.2-5.432-26.088-15.462-33.943-22.247a21.488,21.488,0,0,1-7.37-16.854l1.666-56.637a5.875,5.875,0,0,1,5.866-5.693h75.466a5.561,5.561,0,0,1,.907.075,5.848,5.848,0,0,1,4.96,5.469C1250.113,27.717,1251.9,61.7,1252.376,75.232Z" transform="translate(-1148.611 3.204)"/>
    <g id="组_367" data-name="组 367" transform="translate(17.631 11.98)">
      <g id="组_366" data-name="组 366">
        <path id="路径_775" data-name="路径 775" class="cls-4" d="M1245.868,64.693a22.906,22.906,0,0,1-8.737,18.083c-5.841,4.611-20.693,15.313-32.413,15.313-15.113,0-33.322-14.778-38.205-24.746-4.4-8.961-.323-54.66.621-64.567h3.119l3.095.3c-1.989,20.719-4.089,55.755-1.255,61.534,3.667,7.471,19.588,21.265,32.626,21.265,7.991,0,20-7.221,28.574-13.981a16.689,16.689,0,0,0,6.363-13.2c.024-23.267-1.4-51.8-3.356-55.917h5.494a5.561,5.561,0,0,1,.907.075C1245.857,22.535,1245.868,64.221,1245.868,64.693Z" transform="translate(-1164.508 -8.776)"/>
      </g>
    </g>
  </g>
  <path id="路径_17066" data-name="路径 17066" class="cls-5" d="M-17-17.927a30.594,30.594,0,0,1-2.58,5.014l1.217-.073q.195-.341.487-1,.706-1.679,2.191-.73a1.434,1.434,0,0,1,.609,2.045,49.407,49.407,0,0,1-2.994,4.99l.8-.17a1.666,1.666,0,0,1,1.254.11,1.336,1.336,0,0,1,.475,1.107q.049.633-.791,1.217A4.9,4.9,0,0,1-18-4.637q-1.46.365-2.093.511a9.66,9.66,0,0,1-1.314.207,1.515,1.515,0,0,1-.961-.134,1.2,1.2,0,0,1-.426-.633,1.982,1.982,0,0,1-.122-.669,1.733,1.733,0,0,1,.085-.572,2.5,2.5,0,0,1,.256-.511,3.834,3.834,0,0,1,.329-.45q.158-.183.4-.45t.389-.462A15.13,15.13,0,0,0-20.04-9.894q-.17.024-.6.073t-.572.061q-.146.012-.45.012a.969.969,0,0,1-.438-.073q-.134-.073-.341-.195a.885.885,0,0,1-.329-.341,4.275,4.275,0,0,1-.243-.535,3.257,3.257,0,0,1-.17-.815,1.621,1.621,0,0,1,.1-.694,4.275,4.275,0,0,1,.243-.535,4.623,4.623,0,0,1,.341-.511,4.841,4.841,0,0,0,.316-.462,21.981,21.981,0,0,0,1.85-4.479,2.625,2.625,0,0,1,.864-1.448A1.5,1.5,0,0,1-18-20.069,1.458,1.458,0,0,1-17-17.927ZM-3.22.4q.17,0,.17-.243V-2.276h-.584V.036q0,.365.341.365ZM-6.312-7.1v2.118h.584V-7.1Zm-2.75,0v2.118H-8.4V-7.1ZM-3.05-4.978V-6.633q0-.462-.438-.462h-.146v2.118Zm-7.838-8.933h6.109q.584,0,.584-.609v-.122a.473.473,0,0,0-.535-.535H-10.3a.516.516,0,0,0-.584.584Zm-.073,3.992h8.884A1.621,1.621,0,0,1-.9-9.481a1.556,1.556,0,0,1,.45,1.168V.207q0,1.753-.682,2.239a1.756,1.756,0,0,1-1.3.365.883.883,0,0,1-.864-.8A8.746,8.746,0,0,0-3.634.864v.511A.925.925,0,0,1-4.681,2.422.925.925,0,0,1-5.727,1.375V-2.276h-.584v3.7A.925.925,0,0,1-7.358,2.47.925.925,0,0,1-8.4,1.424v-3.7h-.657v3.87a1.162,1.162,0,0,1-1.314,1.314,1.173,1.173,0,0,1-1.339-1.314V-3.59a20.289,20.289,0,0,1-1.533,4.819,1.941,1.941,0,0,1-1,1,1.586,1.586,0,0,1-1.29-.414,1.859,1.859,0,0,1-.8-1.156,2.127,2.127,0,0,1,.365-1.4,1.371,1.371,0,0,0,.195-.438q-1.314.657-5.233,2.531Q-22.6,2.105-23.033.3a1.906,1.906,0,0,1-.049-1.193,1.364,1.364,0,0,1,.876-.73q1.582-.584,4.6-1.9a1.462,1.462,0,0,1,1.254-.061,1.342,1.342,0,0,1,.694.961q.195.584.365.049a34.98,34.98,0,0,0,1.168-10.077v-3.821a1.579,1.579,0,0,1,.438-1.168,1.579,1.579,0,0,1,1.168-.438h3.6a.07.07,0,0,0-.024-.049,1.5,1.5,0,0,1,.049-1.351,1.823,1.823,0,0,1,1.168-.791,1.713,1.713,0,0,1,2.312,1.022q.073.219.207.609t.183.56h2.507a1.579,1.579,0,0,1,1.168.438,1.579,1.579,0,0,1,.438,1.168v3.821a1.621,1.621,0,0,1-.438,1.181,1.556,1.556,0,0,1-1.168.45h-8.4Q-10.912-10.649-10.961-9.919ZM16.666-7.8q-.779.487-2.531,1.46h3.943a1.373,1.373,0,0,0-.243-.158q-.195-.11-.341-.207a1.256,1.256,0,0,1-.268-.243.417.417,0,0,1-.11-.3.519.519,0,0,1,.207-.329l.243-.219ZM18.905-.913H10.337V-.4a.28.28,0,0,0,.316.316h8.251ZM10.337-3.079h8.568v-.414a.215.215,0,0,0-.243-.243H10.337Zm5.233-7.667q.487-.292,1.363-.949H13.55v.949ZM21,2.519H8.439a1.556,1.556,0,0,1-1.168-.45A1.621,1.621,0,0,1,6.832.888V-3.177q-1.679.56-2.166.706a1.759,1.759,0,0,1-2.166-.8,1.633,1.633,0,0,1-.243-1.473,2.037,2.037,0,0,1,1.363-.815A49.021,49.021,0,0,0,10.07-7.8H3.717A1.312,1.312,0,0,1,2.232-9.286a1.3,1.3,0,0,1,1.485-1.46H10V-11.7H5.737a1.248,1.248,0,0,1-1.412-1.412,1.248,1.248,0,0,1,1.412-1.412H10v-.609H8.317a1.085,1.085,0,0,1-.8-.292,1.085,1.085,0,0,1-.292-.8V-16.3H3.863A1.377,1.377,0,0,1,2.3-17.854a1.366,1.366,0,0,1,1.558-1.533H7.222v-.049a.9.9,0,0,1,.584-.791A2.555,2.555,0,0,1,9-20.531a2.414,2.414,0,0,1,1.168.3.9.9,0,0,1,.56.791v.049H15.79v-.049a.9.9,0,0,1,.584-.791,2.555,2.555,0,0,1,1.193-.3,2.484,2.484,0,0,1,1.181.3.9.9,0,0,1,.572.791v.049H22.9a1.366,1.366,0,0,1,1.558,1.533A1.377,1.377,0,0,1,22.9-16.3H19.319v.049a.914.914,0,0,1-.548.815,2.439,2.439,0,0,1-1.2.3,2.508,2.508,0,0,1-1.217-.3.914.914,0,0,1-.56-.815V-16.3H10.727v.706h1.826a.987.987,0,0,1,.73.268.987.987,0,0,1,.268.73v.073h4.576q.657,0,.657.682v.073q0,.584.438.17a6.063,6.063,0,0,0,.462-.462q.292-.316.389-.414a1.641,1.641,0,0,1,2.239-.316q1.533.876.341,2.215a23.94,23.94,0,0,1-1.947,1.826h2.361a1.3,1.3,0,0,1,1.485,1.46A1.312,1.312,0,0,1,23.067-7.8H20.682a.775.775,0,0,0,.134.085q.11.061.183.1a.853.853,0,0,1,.17.122.838.838,0,0,1,.146.158.981.981,0,0,1,.085.158A.237.237,0,0,1,21.4-7a.479.479,0,0,1-.158.195l-.511.462h1.022a.872.872,0,0,1,.645.231.872.872,0,0,1,.231.645V.888a1.6,1.6,0,0,1-.45,1.181A1.6,1.6,0,0,1,21,2.519ZM-3.05,31.882H-19.967a1.6,1.6,0,0,1-1.181-.45,1.6,1.6,0,0,1-.45-1.181V24.336a1.624,1.624,0,0,1,1.85-1.826,1.614,1.614,0,0,1,1.826,1.826v4.016h4.333V21.318h-5.379a1.6,1.6,0,0,1-1.181-.45,1.6,1.6,0,0,1-.45-1.181V13.724a1.581,1.581,0,0,1,1.8-1.777A1.581,1.581,0,0,1-17,13.724V17.2a.516.516,0,0,0,.584.584h2.823V11.777a1.646,1.646,0,0,1,1.874-1.85,1.635,1.635,0,0,1,1.85,1.85v6.012h3.651V13.821a1.678,1.678,0,0,1,1.9-1.9,1.678,1.678,0,0,1,1.9,1.9v5.866a1.6,1.6,0,0,1-.45,1.181,1.6,1.6,0,0,1-1.181.45H-9.865v7.034h4.673V24.385a1.667,1.667,0,0,1,1.9-1.874,1.657,1.657,0,0,1,1.874,1.874v5.866a1.6,1.6,0,0,1-.45,1.181A1.6,1.6,0,0,1-3.05,31.882Zm18.888-8.714a34.964,34.964,0,0,1-1.1,6.888,10.283,10.283,0,0,0,2.872-2.75A25.843,25.843,0,0,1,15.838,23.168Zm2.9-1,.8,1.753A26.11,26.11,0,0,0,20.682,20.3h-2.6Q18.321,21.123,18.735,22.17ZM14.329,10.633H22.8a1.441,1.441,0,0,1,1.631,1.631A1.452,1.452,0,0,1,22.8,13.919H16.617a.516.516,0,0,0-.584.584v2.531h6.815a1.39,1.39,0,0,1,1.193.523,2.082,2.082,0,0,1,.268,1.521,25.8,25.8,0,0,1-2.531,8.276,13.107,13.107,0,0,0,1.7,1.655,2.614,2.614,0,0,1,1.181,1.375,1.963,1.963,0,0,1-.572,1.594,1.714,1.714,0,0,1-1.254.767,2.231,2.231,0,0,1-1.4-.6,16.819,16.819,0,0,1-1.7-1.7,16.634,16.634,0,0,1-1.655,1.7,1.634,1.634,0,0,1-1.266.389,1.51,1.51,0,0,1-1.047-.73,8.955,8.955,0,0,0-1.144-1.314,14.429,14.429,0,0,1-.462,1.485,1.086,1.086,0,0,1-.669.657,1.032,1.032,0,0,1-.888-.195,11.778,11.778,0,0,0-1.606-.852v.049a1.377,1.377,0,0,1-1.582,1.533,1.442,1.442,0,0,1-1.655-1.606v-6.3a.538.538,0,0,0-.609-.609H6.029A22.032,22.032,0,0,1,4.5,31.736q-.462.852-.974.925A1.611,1.611,0,0,1,2.3,32.077a2.138,2.138,0,0,1-.669-1.034,2.051,2.051,0,0,1,.183-1.2q1.193-3.286,1.193-10.053V11.923a1.409,1.409,0,0,1,1.606-1.582,1.388,1.388,0,0,1,1.558,1.582v4.089H7.416v-4.8A1.42,1.42,0,0,1,9.047,9.635a1.4,1.4,0,0,1,1.582,1.582v4.8h.049A1.291,1.291,0,0,1,12.114,17.5q0,1.679-1.582,1.679H6.175v.633q0,1.1-.024,1.679H9.364a1.621,1.621,0,0,1,1.181.438,1.556,1.556,0,0,1,.45,1.168v7.667a18.07,18.07,0,0,0,1.156-4.26,37.531,37.531,0,0,0,.475-4.247q.073-1.74.073-4.223V12.263a1.546,1.546,0,0,1,1.631-1.631Z" transform="translate(56.496 45.768)"/>
</svg>
