<svg xmlns="http://www.w3.org/2000/svg" width="104.966" height="117.699" viewBox="0 0 104.966 117.699">
  <defs>
    <style>
      .cls-1 {
        fill: #fff;
      }

      .cls-2 {
        fill: #ffde78;
      }

      .cls-3 {
        fill: #bff7e7;
      }

      .cls-4 {
        fill: #48dbb2;
      }

      .cls-5 {
        fill: #95f2dc;
      }

      .cls-6 {
        fill: #faf9f7;
      }

      .cls-7 {
        fill: #a3dffd;
      }

      .cls-8 {
        fill: #ffe2c9;
      }

      .cls-9 {
        fill: #f84f4f;
      }

      .cls-10 {
        fill: #f8c34f;
      }

      .cls-11 {
        fill: #f8934f;
      }

      .cls-12 {
        fill: #683818;
      }

      .cls-13 {
        fill: #f9fbf8;
      }

      .cls-14 {
        fill: #b36339;
      }
    </style>
  </defs>
  <g id="组_250" data-name="组 250" transform="translate(-872.125 -393.107)">
    <circle id="椭圆_113" data-name="椭圆 113" class="cls-1" cx="52.483" cy="52.483" r="52.483" transform="translate(872.125 405.84)"/>
    <circle id="椭圆_114" data-name="椭圆 114" class="cls-2" cx="46.143" cy="46.143" r="46.143" transform="translate(878.464 412.179)"/>
    <g id="组_240" data-name="组 240">
      <path id="路径_544" data-name="路径 544" class="cls-3" d="M900.8,442.032h19.443q7.755,0,7.756,7.516v28.519q0,7.517-7.756,7.517H900.8q-7.756,0-7.756-7.517V449.548Q893.042,442.031,900.8,442.032Z"/>
      <path id="路径_545" data-name="路径 545" class="cls-4" d="M951.343,434.2H904.337c-3.385,0-6.13,2.3-6.13,5.149h0v37.784c0,2.845,2.743,5.15,6.128,5.151h41.106c3.385,0,6.129-2.3,6.13-5.149V446.467a4.325,4.325,0,0,1,2.684-3.773,4.453,4.453,0,0,0,2.727-4.094C956.808,436.1,954.323,434.159,951.343,434.2Z"/>
      <path id="路径_546" data-name="路径 546" class="cls-5" d="M908.569,440.082h32.4q3.352,0,3.352,1.95h0q0,1.948-3.352,1.949h-32.4q-3.352,0-3.352-1.949h0Q905.217,440.082,908.569,440.082Z"/>
      <path id="路径_547" data-name="路径 547" class="cls-5" d="M908.569,471.7h32.4q3.352,0,3.352,1.95h0q0,1.949-3.352,1.949h-32.4q-3.352,0-3.352-1.949h0Q905.217,471.7,908.569,471.7Z"/>
      <g id="组_238" data-name="组 238">
        <rect id="矩形_43" data-name="矩形 43" class="cls-6" width="5.685" height="5.479" rx="1.538" transform="translate(945.392 452.813) rotate(-45)"/>
        <rect id="矩形_44" data-name="矩形 44" class="cls-6" width="5.685" height="5.479" rx="0.601" transform="translate(950.511 457.932) rotate(-45)"/>
        <rect id="矩形_45" data-name="矩形 45" class="cls-7" width="6.717" height="8.441" transform="translate(947.291 455.441) rotate(-45)"/>
      </g>
      <g id="组_239" data-name="组 239">
        <path id="路径_548" data-name="路径 548" class="cls-6" d="M915.933,454.636h-3.442l-.083.373h3.318a.635.635,0,0,1,.717.719q0,.746-.717.746h-1.148l.166.415h1.562a.8.8,0,0,1,0,1.6h-.567a5.165,5.165,0,0,0,.636.636,1.359,1.359,0,0,1,.649.691,1.059,1.059,0,0,1-.262.857.875.875,0,0,1-.622.393,1.19,1.19,0,0,1-.733-.255,6.344,6.344,0,0,1-1.81-2.322h-2.474a7.141,7.141,0,0,1-.414.622q1.326-.1,2.225-.249a.844.844,0,0,1,.9.373q.705.9-.373,1.078a.8.8,0,0,1-.152.028,1.283,1.283,0,0,1-.152.014c-.047.442-.074.7-.083.774h1.893a.795.795,0,1,1,0,1.589h-1.133a3.479,3.479,0,0,0,1.451.9q1.7.333.94,1.424a1.218,1.218,0,0,1-1.438.387,4.711,4.711,0,0,1-2.542-1.866,5.181,5.181,0,0,1-2.6,1.769q-1.092.318-1.452-.442a.28.28,0,0,0-.034-.056.091.091,0,0,1-.02-.041q-.567-.705.566-1.009a3.921,3.921,0,0,0,1.782-1.064h-.98a.811.811,0,0,1-.871-.87v-.692a.1.1,0,0,0-.048.029c-.024.018-.049.036-.076.054a.381.381,0,0,1-.083.042.273.273,0,0,1-.083.014.055.055,0,0,1-.056-.042,9.191,9.191,0,0,0-.677-.843q-.636,1.59-1.354,3.109-.54,1.092-1.492.374a1.486,1.486,0,0,1-.539-.6.981.981,0,0,1,.138-.739q.745-1.341,1.4-2.765a.884.884,0,0,1,.552-.573.788.788,0,0,1,.719.228l.248.207a6.03,6.03,0,0,0,1.465-1.161h-.636a.8.8,0,0,1,0-1.6h1.728a4.091,4.091,0,0,0,.166-.415h-1.23q-.719,0-.718-.746a.635.635,0,0,1,.718-.719h1.713l.083-.373h-2.017a.684.684,0,0,1-.76-.787.672.672,0,0,1,.76-.761h2.28v-.027a.738.738,0,0,1,.366-.6,1.265,1.265,0,0,1,.781-.152,1,1,0,0,1,.587.221.585.585,0,0,1,.2.526v.027h3.165a.672.672,0,0,1,.759.761Q916.692,454.635,915.933,454.636Zm-10.544,1.022c-.2-.22-.365-.391-.485-.511a.836.836,0,0,1,.056-1.381.9.9,0,0,1,1.327-.042q.525.5.981.981a.955.955,0,0,1,.283.677,1.145,1.145,0,0,1-.394.636.927.927,0,0,1-1.575-.138.42.42,0,0,1-.1-.111A.438.438,0,0,0,905.389,455.658Zm4.532,4.423a8.964,8.964,0,0,1-1.257,1.05h2.487c.009-.065.021-.163.035-.3s.025-.232.034-.3c-.165.009-.424.014-.774.014a.484.484,0,0,1-.511-.429v-.014Zm2.017-3.4-.083.208h1.092l-.124-.415h-.815A1.427,1.427,0,0,0,911.938,456.681Z"/>
        <path id="路径_549" data-name="路径 549" class="cls-6" d="M925.951,457.233h4.27a1.079,1.079,0,0,1,0,2.157h-4.27v5.168a1.12,1.12,0,1,1-2.239,0V459.39h-4.2a1.079,1.079,0,0,1,0-2.157h4.2v-3.882a1.12,1.12,0,1,1,2.239,0Z"/>
        <path id="路径_550" data-name="路径 550" class="cls-6" d="M934.768,456.667a2.518,2.518,0,0,0,.234.118c.11.051.188.09.235.117a.806.806,0,0,1,.235,1.3,1.212,1.212,0,0,1-.65.553.994.994,0,0,1-.787-.234c-.369-.212-.622-.356-.761-.429q-.994-.5-.4-1.368a.906.906,0,0,1,1.161-.4c.073.036.194.094.359.172S934.685,456.631,934.768,456.667Zm-1.66,6.7c.056-.1.266-.467.629-1.1s.634-1.117.809-1.458q.512-1.05,1.424-.276a.974.974,0,0,1,.276,1.285q-.8,1.686-1.327,2.639a.868.868,0,0,1-1.479.318A.955.955,0,0,1,933.108,463.369Zm1.7-8.65-.4-.242c-.176-.106-.3-.182-.359-.228q-.941-.469-.3-1.341a.892.892,0,0,1,1.148-.359,11.333,11.333,0,0,1,1.257.664.87.87,0,0,1,.421.573.984.984,0,0,1-.256.684A.933.933,0,0,1,934.809,454.719Zm9.645,4.988H940.7c.1.037.153.065.153.083q-.789,2.019-1.341,3.165.318-.013,1.347-.083c.687-.046,1.223-.078,1.611-.1l-.166-.242c-.074-.1-.129-.186-.166-.241q-.636-.871.359-1.424a.935.935,0,0,1,1.313.277,16.667,16.667,0,0,1,1.686,2.667.964.964,0,0,1,.028.746,1.442,1.442,0,0,1-.595.539q-1.05.594-1.45-.484l-.015-.013v-.014q-2.709.249-6.039.511a.8.8,0,0,1-.7-.207,1.431,1.431,0,0,1-.29-.774c-.083-.681.2-1.037.843-1.064h.027a19.807,19.807,0,0,0,1.133-3.345h-1.16a.974.974,0,1,1,0-1.948h2.473v-1.686h-1.783a.974.974,0,0,1,0-1.948h1.783v-.83a1.064,1.064,0,1,1,2.128,0v.83h1.907a.974.974,0,1,1,0,1.948H941.87v1.686h2.584a.974.974,0,1,1,0,1.948Z"/>
      </g>
    </g>
    <g id="组_241" data-name="组 241">
      <path id="路径_551" data-name="路径 551" class="cls-8" d="M879.794,426.846l9.129-9.129a2.371,2.371,0,0,1,3.353,0l0,0,9.049,9.05-.177,10.455a1.791,1.791,0,0,1-1.746,1.761l-10.558.265L879.8,430.2a2.371,2.371,0,0,1,0-3.353l0,0Z"/>
      <path id="路径_552" data-name="路径 552" class="cls-9" d="M888.9,417.743a2.309,2.309,0,0,1,3.267,0l8.992,8.992a.173.173,0,0,1,.023.229l-.013.013a3.745,3.745,0,0,1-5.852.729l-8.191-8.19Z"/>
      <path id="路径_553" data-name="路径 553" class="cls-10" d="M881.374,425.177a.18.18,0,0,1,.253,0l7.714,7.714c1.669,1.669,2.049,4.021.379,5.69a4.115,4.115,0,0,1-.733.581.175.175,0,0,1-.229-.023l-8.871-8.871a2.551,2.551,0,0,1,0-3.607Z"/>
      <path id="路径_554" data-name="路径 554" class="cls-11" d="M887.011,419.541a.179.179,0,0,1,.253,0h0l7.714,7.713a4.014,4.014,0,0,1,.25,5.82,4.148,4.148,0,0,1-5.941-.129l-7.714-7.713a.194.194,0,0,1,0-.254Z"/>
      <path id="路径_555" data-name="路径 555" class="cls-12" d="M896.042,439.069l3.363-.085a1.791,1.791,0,0,0,1.746-1.761l.056-3.319Z"/>
      <path id="路径_556" data-name="路径 556" class="cls-13" d="M898.841,429.744A.96.96,0,1,1,900.2,431.1h0a.96.96,0,0,1-1.358-1.357Zm.814,2.986a.576.576,0,1,1-.005.82A.583.583,0,0,1,899.655,432.73Z"/>
    </g>
    <g id="组_249" data-name="组 249">
      <g id="组_248" data-name="组 248">
        <g id="组_244" data-name="组 244">
          <g id="组_242" data-name="组 242">
            <path id="路径_557" data-name="路径 557" class="cls-14" d="M911.3,424.13a4.012,4.012,0,1,1,0-8.024h1.508V404.271h-1.372a3.248,3.248,0,0,1-3.447-3.55,3.643,3.643,0,0,1,.894-2.415,3.861,3.861,0,0,1,2.222-1.278,15.127,15.127,0,0,0,3.319-1.305,4.618,4.618,0,0,1,2.414-.638h1.5a3.553,3.553,0,0,1,3.686,3.688v17.333h.655a4.012,4.012,0,1,1,0,8.024Z"/>
          </g>
          <g id="组_243" data-name="组 243">
            <path id="路径_558" data-name="路径 558" class="cls-1" d="M918.343,396.585a2.057,2.057,0,0,1,2.186,2.188v18.833h2.155a2.512,2.512,0,1,1,0,5.024H911.3a2.512,2.512,0,1,1,0-5.024h3.008V402.771h-2.872q-1.947,0-1.947-2.051a2.126,2.126,0,0,1,.53-1.434,2.382,2.382,0,0,1,1.383-.787,16.649,16.649,0,0,0,3.761-1.469,3.113,3.113,0,0,1,1.675-.445h1.5m0-3h-1.5a6.094,6.094,0,0,0-3.144.828,13.77,13.77,0,0,1-2.96,1.161,5.389,5.389,0,0,0-2.992,1.758,5.123,5.123,0,0,0-1.253,3.388,4.725,4.725,0,0,0,4.819,5.049v8.837H911.3a5.512,5.512,0,1,0,0,11.024h11.383a5.182,5.182,0,0,0,5.528-5.531,5.1,5.1,0,0,0-4.683-5.445V398.773a5.049,5.049,0,0,0-5.186-5.188Z"/>
          </g>
        </g>
        <g id="组_247" data-name="组 247">
          <g id="组_245" data-name="组 245">
            <path id="路径_559" data-name="路径 559" class="cls-14" d="M937.962,424.607a9.248,9.248,0,0,1-7.946-4.176c-1.825-2.6-2.75-6.291-2.75-10.96s.93-8.328,2.766-10.847a9.842,9.842,0,0,1,15.891.034c1.857,2.537,2.8,6.176,2.8,10.813,0,4.6-.952,8.308-2.827,11.036A9.213,9.213,0,0,1,937.962,424.607Zm0-22.216a.816.816,0,0,0-.477.114,1.938,1.938,0,0,0-.527.7,6.777,6.777,0,0,0-.571,2.154,29.374,29.374,0,0,0-.241,4.108c0,3.83.4,5.522.739,6.268.472,1.05.9,1.05,1.077,1.05.26,0,.653,0,1.014-.838.4-.9.87-2.733.87-6.48a21.819,21.819,0,0,0-.452-5,4.223,4.223,0,0,0-.728-1.845A.957.957,0,0,0,937.962,402.391Z"/>
          </g>
          <g id="组_246" data-name="组 246">
            <path id="路径_560" data-name="路径 560" class="cls-1" d="M937.962,396.107a7.942,7.942,0,0,1,6.75,3.436q2.511,3.432,2.511,9.928,0,6.459-2.563,10.186a8.187,8.187,0,0,1-13.416-.087q-2.48-3.535-2.478-10.1t2.478-9.963a7.885,7.885,0,0,1,6.718-3.4m0,22.182a2.5,2.5,0,0,0,2.392-1.744,18.547,18.547,0,0,0,.992-7.074,23.064,23.064,0,0,0-.5-5.367,5.4,5.4,0,0,0-1.18-2.6,2.453,2.453,0,0,0-1.707-.616,2.311,2.311,0,0,0-1.3.361,3.339,3.339,0,0,0-1.024,1.246,8.325,8.325,0,0,0-.735,2.649,30.834,30.834,0,0,0-.257,4.324q0,4.956.873,6.886a2.706,2.706,0,0,0,2.444,1.932m0-25.182a10.912,10.912,0,0,0-9.142,4.633c-2.055,2.819-3.054,6.656-3.054,11.731,0,4.984,1.017,8.962,3.022,11.821a11.186,11.186,0,0,0,18.326.09c2.069-3.007,3.109-7.006,3.109-11.911,0-4.962-1.04-8.9-3.09-11.7a10.968,10.968,0,0,0-9.171-4.664Zm.01,21.034a25.082,25.082,0,0,1-.327-4.67,27.922,27.922,0,0,1,.226-3.892c.033-.228.068-.428.1-.6a20.8,20.8,0,0,1,.373,4.494,23.066,23.066,0,0,1-.374,4.67Zm.484,1.34Z"/>
          </g>
        </g>
      </g>
    </g>
  </g>
</svg>
