<svg xmlns="http://www.w3.org/2000/svg" width="169.589" height="325.078" viewBox="0 0 169.589 325.078">
  <defs>
    <style>
      .cls-1 {
        fill: #ffcba6;
      }

      .cls-2 {
        fill: #f17558;
      }

      .cls-3 {
        fill: #fff;
      }

      .cls-4 {
        fill: #7c3821;
      }

      .cls-5 {
        fill: #9e5036;
      }

      .cls-6 {
        fill: #f59679;
      }

      .cls-7 {
        fill: #da5257;
      }

      .cls-8 {
        fill: #ee706e;
      }

      .cls-9 {
        fill: #241f59;
      }

      .cls-10 {
        fill: #060628;
      }

      .cls-11 {
        fill: none;
      }

      .cls-12 {
        fill: #30306d;
      }

      .cls-13 {
        fill: #16153f;
      }

      .cls-14 {
        fill: #ea764d;
      }

      .cls-15 {
        fill: #ea5d4d;
      }

      .cls-16 {
        fill: #525ba1;
      }

      .cls-17 {
        fill: #828de5;
      }

      .cls-18 {
        fill: #6b76d1;
      }

      .cls-19 {
        fill: #4e70b8;
      }

      .cls-20 {
        fill: #e6efff;
      }

      .cls-21 {
        fill: #a16b52;
      }

      .cls-22 {
        fill: #ea7163;
      }

      .cls-23 {
        fill: #c35f53;
      }

      .cls-24 {
        fill: #fffffd;
      }

      .cls-25 {
        fill: #e87467;
      }
    </style>
  </defs>
  <g id="组_6657" data-name="组 6657" transform="translate(-50.345 -215.461)">
    <g id="组_4340" data-name="组 4340">
      <g id="手">
        <g id="组_4275" data-name="组 4275">
          <path id="路径_11790" data-name="路径 11790" class="cls-1" d="M150.871,421.629l20.834,19.456,19.169,17.9.2-.217.6-.635,5.677-6.088-.163-.217-22.31-29.111Z"/>
        </g>
        <g id="组_4276" data-name="组 4276">
          <path id="路径_11791" data-name="路径 11791" class="cls-1" d="M193.624,464.428c.14.1.279.194.426.287l-.031.318-.488,5a1.565,1.565,0,0,0,3.1.4l.759-4.725a6.38,6.38,0,0,0,1.092-.054L200.324,471a1.63,1.63,0,0,0,2.006,1.054,1.6,1.6,0,0,0,1.107-1.534,1.636,1.636,0,0,0-.07-.472l-1.587-5.623c.162-.093.139-.078.3-.171l4.647,5.158a1.6,1.6,0,1,0,2.44-2.059l-4.74-5.9a3.7,3.7,0,0,1,.433-.5l4.547,2.587a1.6,1.6,0,1,0,1.665-2.726l-5.081-3.276a2.664,2.664,0,0,1-1.069-1.4,3.255,3.255,0,0,0-.124-.364l3.656-1.386a1.564,1.564,0,0,0-.883-3l-5.607,1.107a6.88,6.88,0,0,0-4.779-.666,7.808,7.808,0,0,0-5.941,5.84,5.982,5.982,0,0,0-.17,1.1,6.486,6.486,0,0,0,1.665,4.871,6.042,6.042,0,0,0,.883.79"/>
        </g>
        <g id="组_4277" data-name="组 4277">
          <path id="路径_11792" data-name="路径 11792" class="cls-1" d="M86.575,449.838l4.244,4.972,1.665,1.952.194.225,27.611-23.715,13.492-11.587-17.438-6.779-29.6,34.723Z"/>
        </g>
        <g id="组_4278" data-name="组 4278">
          <path id="路径_11793" data-name="路径 11793" class="cls-1" d="M72.022,460.085a1.608,1.608,0,0,0,2.153.619l4.6-2.37a3.742,3.742,0,0,1,.411.519L74.261,464.5a1.576,1.576,0,1,0,2.315,2.138l4.81-4.91c.163.1.132.085.294.178l-1.812,5.507a1.623,1.623,0,0,0,.945,2.029,1.612,1.612,0,0,0,2.029-.961l2.045-5.212a7.639,7.639,0,0,0,1.076.1l.38,3.283.17,1.426a1.545,1.545,0,0,0,3.075-.264l-.286-5.282a6.777,6.777,0,0,0,1.347-1.014,6.41,6.41,0,0,0,1.836-4.756,7.314,7.314,0,0,0-.86-3.268,7.828,7.828,0,0,0-1.378-1.851,7.67,7.67,0,0,0-3.5-2.014,6.846,6.846,0,0,0-4.748.465l-5.491-1.333a1.548,1.548,0,0,0-.992,2.928l3.548,1.526a3.276,3.276,0,0,0-.14.356,2.56,2.56,0,0,1-1.108,1.332l-5.158,3.036a1.605,1.605,0,0,0-.635,2.146"/>
        </g>
        <g id="组_4279" data-name="组 4279">
          <path id="路径_11794" data-name="路径 11794" class="cls-1" d="M154.99,520.427l15.338-8.395-.417-8.109-.105-13.8-.023-2.857-.005-.636-16.434-1.272.137,3.82.584,16.32,0,.023.019.535Z"/>
        </g>
        <g id="组_4280" data-name="组 4280">
          <path id="路径_11795" data-name="路径 11795" class="cls-1" d="M121.139,513.186l15.774,7.314-.724-14.789,0-.017-.384-14.076-.165-5.978-16.331,1.42.951,17.207.206,3.685Z"/>
        </g>
      </g>
      <g id="头">
        <g id="组_4281" data-name="组 4281">
          <path id="路径_11796" data-name="路径 11796" class="cls-1" d="M205.974,356.456c5.211-1.423,10.4-4.155,12.749-9.021s1.269-11.393-3.072-14.607c-2.854-2.115-11.349-2.115-15.269,3.766l-2.287,4.247v16.337a20.774,20.774,0,0,0,7.879-.722"/>
        </g>
        <g id="组_4282" data-name="组 4282">
          <path id="路径_11797" data-name="路径 11797" class="cls-2" d="M199.925,346.927a13.589,13.589,0,0,1,8.511-5.731c3.208-.634,4.764,3.93,1.948,5.77a16.789,16.789,0,0,1-6.67,2.109c-12.585,1.842-3.789-2.148-3.789-2.148"/>
        </g>
        <g id="组_4283" data-name="组 4283">
          <path id="路径_11798" data-name="路径 11798" class="cls-1" d="M73.306,356.624c-5.8-1.584-11.582-4.626-14.191-10.042S57.7,333.9,62.535,330.321c3.177-2.353,12.633-2.353,17,4.193l2.546,4.728v18.185a23.127,23.127,0,0,1-8.772-.8"/>
        </g>
        <g id="组_4284" data-name="组 4284">
          <path id="路径_11799" data-name="路径 11799" class="cls-2" d="M80.041,346.016a15.131,15.131,0,0,0-9.474-6.379c-3.571-.706-5.3,4.375-2.169,6.422a18.648,18.648,0,0,0,7.425,2.348c14.008,2.051,4.218-2.391,4.218-2.391"/>
        </g>
        <g id="组_4285" data-name="组 4285">
          <line id="直线_148" data-name="直线 148" class="cls-1" x2="12.365" y2="0.727" transform="translate(135.54 314.148)"/>
        </g>
        <g id="组_4286" data-name="组 4286">
          <path id="路径_11800" data-name="路径 11800" class="cls-1" d="M78.383,339.992l.139.981.734,5.179a54.384,54.384,0,0,0,4.829,17v.008a54.679,54.679,0,0,0,13.588,18.089,52.994,52.994,0,0,0,9.005,6.321,55.163,55.163,0,0,0,28.3,7.056l-.888,11.9,9.456,8.728L153,406.525l-.393-12.3a83.474,83.474,0,0,0,14.715-3.361,75.439,75.439,0,0,0,8.358-3.273q1.746-.807,3.426-1.709c9.572-5.1,17.631-12.395,22.206-22.025.117-.226.226-.458.32-.691.182-.381.345-.761.511-1.147.174-.4.338-.808.488-1.219l.207-.566a41.46,41.46,0,0,0,2.335-16.315,146.02,146.02,0,0,0-3.031-22s-3.317-50.73-62-51.72C140.137,270.2,72.59,264.065,78.383,339.992Z"/>
        </g>
        <g id="组_4287" data-name="组 4287">
          <path id="路径_11801" data-name="路径 11801" class="cls-3" d="M157.539,341.6A17.457,17.457,0,1,0,169.9,320.229,17.458,17.458,0,0,0,157.539,341.6"/>
        </g>
        <g id="组_4288" data-name="组 4288">
          <path id="路径_11802" data-name="路径 11802" class="cls-3" d="M99.337,340.873A17.457,17.457,0,1,0,111.695,319.5a17.457,17.457,0,0,0-12.358,21.372"/>
        </g>
        <g id="组_4289" data-name="组 4289">
          <path id="路径_11803" data-name="路径 11803" class="cls-4" d="M162.933,337.667a14.068,14.068,0,1,0,9.96-17.223,14.069,14.069,0,0,0-9.96,17.223"/>
        </g>
        <g id="组_4290" data-name="组 4290">
          <path id="路径_11804" data-name="路径 11804" class="cls-3" d="M177.124,329.262a3.594,3.594,0,1,0,2.545-4.4,3.6,3.6,0,0,0-2.545,4.4"/>
        </g>
        <g id="组_4291" data-name="组 4291">
          <path id="路径_11805" data-name="路径 11805" class="cls-5" d="M164.778,341.778a14.068,14.068,0,0,0,23.5-.008,14.065,14.065,0,0,0-23.5.008"/>
        </g>
        <g id="组_4292" data-name="组 4292">
          <path id="路径_11806" data-name="路径 11806" class="cls-6" d="M84.085,363.149s-.007,0,0,.007A54.711,54.711,0,0,0,97.67,381.249a53.406,53.406,0,0,0,9.006,6.319,17.818,17.818,0,1,0-22.591-24.419"/>
        </g>
        <g id="组_4293" data-name="组 4293">
          <path id="路径_11807" data-name="路径 11807" class="cls-6" d="M170.993,375.16a17.744,17.744,0,0,0,8.11,10.722c9.572-5.1,17.632-12.395,22.207-22.025.116-.226.225-.459.32-.691.2-.429.385-.859.574-1.295.211-.509.408-1.026.6-1.542a17.82,17.82,0,0,0-31.807,14.831"/>
        </g>
        <g id="组_4294" data-name="组 4294">
          <path id="路径_11808" data-name="路径 11808" class="cls-4" d="M104.846,336.876a14.016,14.016,0,1,0,9.917-17.155,14.016,14.016,0,0,0-9.917,17.155"/>
        </g>
        <g id="组_4295" data-name="组 4295">
          <path id="路径_11809" data-name="路径 11809" class="cls-5" d="M106.68,340.974a14.019,14.019,0,0,0,23.413-.008,14.018,14.018,0,0,0-23.413.008"/>
        </g>
        <g id="组_4296" data-name="组 4296">
          <path id="路径_11810" data-name="路径 11810" class="cls-3" d="M119.794,328.5a3.582,3.582,0,1,0,2.536-4.384,3.583,3.583,0,0,0-2.536,4.384"/>
        </g>
        <g id="组_4297" data-name="组 4297">
          <path id="路径_11811" data-name="路径 11811" class="cls-7" d="M128.914,370.112a14.406,14.406,0,0,0,10.038,8.074,14.64,14.64,0,0,0,3.047.327,14.268,14.268,0,0,0,5.878-1.265c.363-.168.72-.342,1.069-.539a14.313,14.313,0,0,0,6.91-8.794l.778-2.851-28.367-5.819-.422,2.32a14.292,14.292,0,0,0,1.069,8.547"/>
        </g>
        <g id="组_4298" data-name="组 4298">
          <path id="路径_11812" data-name="路径 11812" class="cls-8" d="M128.914,370.112a14.406,14.406,0,0,0,10.038,8.074,14.64,14.64,0,0,0,3.047.327,14.268,14.268,0,0,0,5.878-1.265c.363-.168.72-.342,1.069-.539-2.3-2.276-6.219-4.364-10.918-5.6a28.815,28.815,0,0,0-9.114-1"/>
        </g>
        <g id="组_4299" data-name="组 4299">
          <path id="路径_11813" data-name="路径 11813" class="cls-3" d="M150.029,363.7h0a2.909,2.909,0,0,1-3.424,2.291l-10.291-2.058a2.909,2.909,0,0,1-2.338-2.852v-.674Z"/>
        </g>
        <g id="组_4300" data-name="组 4300">
          <path id="路径_11814" data-name="路径 11814" class="cls-9" d="M216.736,298.18a98.161,98.161,0,0,1-5.041,21.581c-.439,1.2-.921,2.367-1.418,3.493-.058.131-.146.306-.248.5-1.154,2.221-4.866,7.876-7.16,7.014-1.9-.7-4.032-17.505-4.266-20.821-1.417,6.619-5.684,5.683-5.684,5.683-32.174,2.119-38.092-17.051-38.34-16.569-.468,3.068,1.665,8.285,1.665,9.936-6.034,4.5-15.064-7.335-17.592-10.491-4.427,9.147-15.312,10.725-15.312,10.725-1.885-1.418-11.354-15.138-9.454-10.4s-5.684,19.4-14.685,18.922c-4.281-.219-7.393-3.112-11.338-3.609-5.056-.628-3.682,3.931-3.726,7.393-.029,3.551-.161,7.087-.307,10.637-.146,3.083,1.271,8.811-.511,11.5-2.689,4.047-9.6-.19-12.361-2.207-4.559-3.331-7.657-9.146-11.047-13.574-.175-.219-.336-.453-.511-.672-.584-.76-1.169-1.534-1.739-2.308a71.912,71.912,0,0,1-5.143-13.91,64.416,64.416,0,0,1,9.936-54.326,3.244,3.244,0,0,1,.321-.321c2.119-1.958,4.953-3.2,6.648-5.567-.058-.365-.306-.4-.672-.4A4.7,4.7,0,0,1,67.5,250.2C69.16,248.239,71,246.281,73,244.352c1.739.672,3.668,1.344,4.588.979a15.376,15.376,0,0,1-1.446-3.916c2.674-2.425,5.333-4.632,7.963-6.648,1.651,2.835,2.761,5.684,2.323,6.78,3.551-8.753,26.5-14.67,28.638-14.67a158.676,158.676,0,0,1,34.834-.643c13.092,1.359,26.344,4.938,37.259,12.566,6.093,4.252,10.579,10.841,16.35,15.546a79.1,79.1,0,0,1,8.4,14.845c-.424-.058-.833-.117-1.242-.19,0,0,2.1,1.856.745,2.82.716,0,4.763,12.435,5,13.721A42.627,42.627,0,0,1,216.736,298.18Z"/>
        </g>
        <g id="组_4301" data-name="组 4301">
          <path id="路径_11815" data-name="路径 11815" class="cls-10" d="M176.363,313.263l8.726,2.44a1.455,1.455,0,0,0,.784-2.8l-8.726-2.441a1.455,1.455,0,0,0-.784,2.8"/>
        </g>
        <g id="组_4302" data-name="组 4302">
          <path id="路径_11816" data-name="路径 11816" class="cls-10" d="M110.313,314.182l8.764-2.3a1.454,1.454,0,1,0-.736-2.814l-8.766,2.3a1.455,1.455,0,0,0,.738,2.814"/>
        </g>
        <g id="组_4303" data-name="组 4303">
          <path id="路径_11817" data-name="路径 11817" class="cls-11" d="M199.694,274.406v-.4"/>
        </g>
        <g id="组_4304" data-name="组 4304">
          <path id="路径_11818" data-name="路径 11818" class="cls-12" d="M204.743,284.738c.154.717.131,1.718-.583,1.886-.6.14-1.075-.476-1.375-1.011a69.993,69.993,0,0,0-6.56-10.427c-2.286-2.777-6.642-4.528-8.386-7.151C197.345,262.019,203.4,278.444,204.743,284.738Z"/>
        </g>
        <g id="组_4305" data-name="组 4305">
          <path id="路径_11819" data-name="路径 11819" class="cls-12" d="M186.142,259.286c-12.971-10.481-27.77-19.594-44.283-21.92-1.7-.239-3.681-.584-4.465-2.11,8.826-3.149,19.737.274,27.809,4.234a49.071,49.071,0,0,1,12.131,8.424C180.645,251.052,182.825,256.606,186.142,259.286Z"/>
        </g>
        <g id="组_4306" data-name="组 4306">
          <path id="路径_11820" data-name="路径 11820" class="cls-12" d="M146.823,297.9c-2.039-2.637-5.223-4.457-7.366-7.094-2.6-3.195-6.788-8.511-4.831-12.915,3.176.656,5.511,7.348,6.577,10.115A39.3,39.3,0,0,0,146.823,297.9Z"/>
        </g>
        <g id="组_4307" data-name="组 4307">
          <path id="路径_11821" data-name="路径 11821" class="cls-12" d="M112.6,290.2c-.14-.618-3.356-2.18-3.973-2.652a25.923,25.923,0,0,1-4.161-3.879c-2.105-2.506-4.614-5.952-3.962-9.418C106.115,274.142,111.573,285.66,112.6,290.2Z"/>
        </g>
        <g id="组_4308" data-name="组 4308">
          <path id="路径_11822" data-name="路径 11822" class="cls-13" d="M58.074,300.465c-1.468-.416-2.348-1.9-2.9-3.325-2.09-5.423-1.486-11.572.356-17.084,1.134-3.391,4.059-10.515,8.149-11.4,3.988-.868,1.909,2.777.631,5.459-2.03,4.258-4.285,8-5.4,12.67C58.591,288.11,56.467,300.009,58.074,300.465Z"/>
        </g>
      </g>
      <g id="组_4309" data-name="组 4309">
        <path id="路径_11823" data-name="路径 11823" class="cls-14" d="M168.054,463.98l.791,20.829s-17.368-.88-20.8-1.935l-3.3-7.514s-5.7,10.5-6.229,10.635-15.951.132-18.324-2.373,1.582-19.906,1.582-19.906S168.186,462.925,168.054,463.98Z"/>
      </g>
      <g id="组_4310" data-name="组 4310">
        <path id="路径_11824" data-name="路径 11824" class="cls-15" d="M170.625,463.255c-25.707,10.678-51.612-.2-51.612-.2l3.757-31.145-5.471,3.724c.528-1.846-8.041-12.788-8.041-12.788s7.91-9.887,11.93-13.183c4.651-3.812,12.656-3.823,12.656-3.823,7.953,11.361,17.827.679,18.918.264.631-.24,6.328,1.12,9.03,3.1,3.047,2.229,15.029,15.391,14.766,15.391,0,0-8.471,12.128-9.459,12.128s-4.812-4.548-4.812-4.548Z"/>
      </g>
      <g id="组_4311" data-name="组 4311">
        <path id="路径_11825" data-name="路径 11825" class="cls-16" d="M164.483,411.643l-3-2.645-2.105,9.961,3.56.989S164.928,412.928,164.483,411.643Z"/>
      </g>
      <g id="组_4312" data-name="组 4312">
        <path id="路径_11826" data-name="路径 11826" class="cls-17" d="M161.858,421.464s2.835.066,1.319-1.846c-1.286-.414-2.753-.751-3.666-.943a1.746,1.746,0,0,0-1.8.672c-.182.263-.249.535,0,.733A21.552,21.552,0,0,0,161.858,421.464Z"/>
      </g>
      <g id="组_4313" data-name="组 4313">
        <path id="路径_11827" data-name="路径 11827" class="cls-16" d="M121.238,409.319l3.46-1.681,1.842,11.09-3.56.989S120.793,410.6,121.238,409.319Z"/>
      </g>
      <g id="组_4314" data-name="组 4314">
        <path id="路径_11828" data-name="路径 11828" class="cls-17" d="M124.068,421.464s-2.834.066-1.318-1.846c1.285-.414,2.753-.751,3.665-.943a1.746,1.746,0,0,1,1.8.672c.182.263.25.535,0,.733A21.557,21.557,0,0,1,124.068,421.464Z"/>
      </g>
      <g id="组_4315" data-name="组 4315">
        <path id="路径_11829" data-name="路径 11829" class="cls-17" d="M123.623,421.7s.2.89,1.829.741,2.522-1.384,2.175-1.78S125.156,419.569,123.623,421.7Z"/>
      </g>
      <g id="组_4316" data-name="组 4316">
        <path id="路径_11830" data-name="路径 11830" class="cls-16" d="M162.946,425.8l-1.533-3.213H124.534s-1.582,2.57-1.533,3.163S162.946,425.8,162.946,425.8Z"/>
      </g>
      <g id="组_4317" data-name="组 4317">
        <path id="路径_11831" data-name="路径 11831" class="cls-17" d="M170.757,458.242,162.946,425.8,123,425.748l-4.449,31.563S154.245,460.312,170.757,458.242Z"/>
      </g>
      <g id="组_4318" data-name="组 4318">
        <path id="路径_11832" data-name="路径 11832" class="cls-18" d="M170.757,456.8s1.088,7.316,1.681,14.831c0,0,1.977,10.48,1.483,10.876s-17.8,5.24-23.334,2.373-3.56-2.175-3.56-2.175l-2.274-5.735-.593,5.438s-8.5,4.35-15.721,3.955a74.317,74.317,0,0,1-11.7-1.622.82.82,0,0,1-.653-.918l.105-.754a.8.8,0,0,0-.127-.577c-.421-.6-1.35-2.833-.084-10.268,1.56-9.164.989-12.854,2.571-16.314C118.552,455.9,131.537,461.508,170.757,456.8Z"/>
      </g>
      <g id="组_4319" data-name="组 4319">
        <path id="路径_11833" data-name="路径 11833" class="cls-16" d="M174.283,482.518l.236.651a2.639,2.639,0,0,1-2.021,3.5c-6,1.061-16.361,2.912-21.549-.1-4.152-1.878-3.955-1.977-4.053-2.373s-.495-3.065-.495-3.065S151.147,486.968,174.283,482.518Z"/>
      </g>
      <g id="组_4320" data-name="组 4320">
        <path id="路径_11834" data-name="路径 11834" class="cls-16" d="M144.16,482.4l.486,3.563a.874.874,0,0,1-.666.973c-4.347,1.016-22.125,5.614-27.78-.835a.868.868,0,0,1-.179-.317,5.2,5.2,0,0,1,.1-2.652.807.807,0,0,1,1.153-.52C119.679,483.858,126.687,486.731,144.16,482.4Z"/>
      </g>
      <g id="组_4321" data-name="组 4321">
        <path id="路径_11835" data-name="路径 11835" class="cls-19" d="M170.955,459.5c-1.037,2.288-5.37,10.347,1.341,12.129.17,1.087.34,2.472.34,2.472s-7.48-3.856-5.78-11.667c.17-.2,4.033-5.076,4.033-5.076l-.1.527A2.035,2.035,0,0,1,170.955,459.5Z"/>
      </g>
      <g id="组_4322" data-name="组 4322">
        <path id="路径_11836" data-name="路径 11836" class="cls-19" d="M118.19,470.971c2.141-1.249,3.583-3.7,3.1-7.453a47.9,47.9,0,0,0-2.973-6.987l-.692,2.274s5.456,6.472-1.241,10.964c-.256.172-.191.386-.16.621,0,.007-.034.207-.033.214C116.285,471.279,117.4,471.431,118.19,470.971Z"/>
      </g>
      <g id="组_4323" data-name="组 4323">
        <path id="路径_11837" data-name="路径 11837" class="cls-18" d="M125.254,424.184a3.283,3.283,0,0,1-.675-.065c-.715-.153-.881-.526-.917-.735-.13-.759.945-1.3,2-1.48s2.247-.029,2.377.73h0c.13.759-.944,1.3-2,1.481A4.6,4.6,0,0,1,125.254,424.184Zm1.193-1.575a3.822,3.822,0,0,0-.656.059c-.885.151-1.33.5-1.366.614a2.675,2.675,0,0,0,1.483.069,2.293,2.293,0,0,0,1.35-.583A1.569,1.569,0,0,0,126.447,422.609Z"/>
      </g>
      <g id="组_4324" data-name="组 4324">
        <path id="路径_11838" data-name="路径 11838" class="cls-17" d="M162.3,421.7s-.2.89-1.829.741-2.521-1.384-2.175-1.78S160.771,419.569,162.3,421.7Z"/>
      </g>
      <g id="组_4325" data-name="组 4325">
        <path id="路径_11839" data-name="路径 11839" class="cls-18" d="M160.672,424.184a4.591,4.591,0,0,1-.785-.069c-1.053-.181-2.127-.722-2-1.481h0c.035-.208.2-.58.917-.734a4.382,4.382,0,0,1,2.837.487c.623.383.656.789.62,1s-.2.581-.917.734A3.291,3.291,0,0,1,160.672,424.184Zm-2-1.416a2.293,2.293,0,0,0,1.35.583,2.062,2.062,0,0,0,1.492-.124,2.662,2.662,0,0,0-1.374-.559A2.291,2.291,0,0,0,158.668,422.768Z"/>
      </g>
      <g id="组_4326" data-name="组 4326">
        <path id="路径_11840" data-name="路径 11840" class="cls-18" d="M160.672,425.757l-1.318,31.961-2.027-.1,1.631-32.131Z"/>
      </g>
      <g id="组_4327" data-name="组 4327">
        <path id="路径_11841" data-name="路径 11841" class="cls-18" d="M125.819,425.757l1.318,31.961,2.027-.1-1.631-32.131Z"/>
      </g>
      <g id="组_4328" data-name="组 4328">
        <path id="路径_11842" data-name="路径 11842" class="cls-20" d="M136.513,512.3s-8.284,1.79-15.523.248c-.031.149-.495,11.678-.495,11.678s15.3.064,16.34-.812S136.513,512.3,136.513,512.3Z"/>
      </g>
      <g id="组_4329" data-name="组 4329">
        <path id="路径_11843" data-name="路径 11843" class="cls-21" d="M138.584,525.676A8.629,8.629,0,0,1,137.293,530c-2.2,3.577-5.663,5.6-9.334,7.445a25.574,25.574,0,0,1-8.775,3.036c-3.2.313-7.429-.732-9.793-2.986-3.573-3.407.19-8.309,2.612-11.22a20.433,20.433,0,0,1,8.856-6.4c8.437-2.9,8.964,3.691,8.964,3.691s7.185-.791,7.185-2.274.049-2.814.05-2.818c-.062,1.673.869,3.2,1.261,4.789A9.061,9.061,0,0,1,138.584,525.676Z"/>
      </g>
      <g id="组_4330" data-name="组 4330">
        <path id="路径_11844" data-name="路径 11844" class="cls-20" d="M170.427,512.014s-8.8,1.526-16.017-.114c-.033.152-1.483,10.53-1.483,10.53s15.918,2.264,16.973,1.382S170.427,512.014,170.427,512.014Z"/>
      </g>
      <g id="组_4331" data-name="组 4331">
        <path id="路径_11845" data-name="路径 11845" class="cls-3" d="M115.72,523.04s9.229-1.055,11.865,3.955c.4.132-2.109.4-2.109,1.055s-8.273-4.565-12.26-3.131a20.817,20.817,0,0,1,2.059-1.9A2.34,2.34,0,0,0,115.72,523.04Z"/>
      </g>
      <g id="组_4332" data-name="组 4332">
        <path id="路径_11846" data-name="路径 11846" class="cls-3" d="M112.326,525.891s6.229-.346,10.134,2.917c-.84.247-2.57,1.334-2.521,1.68s-6.081-3-9.377-2.356A27.454,27.454,0,0,1,112.326,525.891Z"/>
      </g>
      <g id="组_4333" data-name="组 4333">
        <path id="路径_11847" data-name="路径 11847" class="cls-21" d="M170.411,512.938c-3.448,1.051-5.916.717-8.375.767a28.415,28.415,0,0,1-7.626-.68l.033-1.191c2.95.923,8.536,1.039,15.91.206Z"/>
      </g>
      <g id="组_4334" data-name="组 4334">
        <path id="路径_11848" data-name="路径 11848" class="cls-21" d="M170.411,514.619c-3.448,1.051-5.916.717-8.375.767a28.415,28.415,0,0,1-7.626-.68l.033-1.191c2.95.923,8.536,1.038,15.91.206Z"/>
      </g>
      <g id="组_4335" data-name="组 4335">
        <path id="路径_11849" data-name="路径 11849" class="cls-21" d="M136.576,513.062c-3.449,1.051-5.8.692-8.256.742a26.549,26.549,0,0,1-7.366-.643l.037-1.125c2.949.923,8.161.919,15.535.087Z"/>
      </g>
      <g id="组_4336" data-name="组 4336">
        <path id="路径_11850" data-name="路径 11850" class="cls-21" d="M136.662,514.731c-3.448,1.05-5.883.7-8.342.753a27.168,27.168,0,0,1-7.453-.642l.062-1.2c2.95.923,8.309,1.005,15.684.173Z"/>
      </g>
      <g id="组_4337" data-name="组 4337">
        <path id="路径_11851" data-name="路径 11851" class="cls-21" d="M152,525.258s.306,6.606,7.56,10.543c6.149,3.337,16.381,7.852,22.252,1.324,2.194-2.439-.7-6.969-2.147-9.106a20.945,20.945,0,0,0-9.551-7.956c-8.335-3.182-9.084,3.388-9.084,3.388s-7.154-1.032-7.1-2.514a16.87,16.87,0,0,0-.354-3.376S152.125,524.405,152,525.258Z"/>
      </g>
      <g id="组_4338" data-name="组 4338">
        <path id="路径_11852" data-name="路径 11852" class="cls-3" d="M174.646,523.04s-9.228-1.055-11.865,3.955c-.4.132,2.109.4,2.109,1.055s8.273-4.565,12.261-3.131a20.72,20.72,0,0,0-2.06-1.9A2.34,2.34,0,0,1,174.646,523.04Z"/>
      </g>
      <g id="组_4339" data-name="组 4339">
        <path id="路径_11853" data-name="路径 11853" class="cls-3" d="M178.041,525.891s-6.229-.346-10.135,2.917c.841.247,2.571,1.334,2.521,1.68s6.081-3,9.377-2.356A27.439,27.439,0,0,0,178.041,525.891Z"/>
      </g>
    </g>
    <g id="组_4341" data-name="组 4341">
      <path id="路径_11854" data-name="路径 11854" class="cls-22" d="M216.575,308.233a36.667,36.667,0,0,1-6.546,15.517c-.438.57-.7.862-.7.862s3.17-9.292-8.373-23.071-64.217-22.531-64.217-22.531l-55.26,13.779s-19.185,6.94-22.078,34.424c-.029.249-.044.5-.073.76,0,0-.687-1.081-1.666-3.068a71.912,71.912,0,0,1-5.143-13.91,64.416,64.416,0,0,1,9.936-54.326A74.652,74.652,0,0,1,67.5,250.2C69.16,248.239,71,246.281,73,244.352c.877-.862,1.768-1.71,2.7-2.557.146-.132.293-.263.439-.38,2.674-2.425,5.333-4.632,7.963-6.648,41.292-31.824,75.482-17.607,94.317-4.69a101.871,101.871,0,0,1,25.087,24.269,79.1,79.1,0,0,1,8.4,14.845A69.157,69.157,0,0,1,216.575,308.233Z"/>
      <path id="路径_11855" data-name="路径 11855" class="cls-23" d="M209.335,324.614s3.163-9.3-8.383-23.077c-11.531-13.776-64.216-22.523-64.216-22.523l-49.5,17.527S63.78,303.374,61.171,331.48a49.962,49.962,0,0,1-7.312-16.5c.219-.874,7.259-34.6,51.476-49.3,43.969-14.617,93.239,1.6,112.22,36.586C216.309,316.655,209.335,324.614,209.335,324.614Z"/>
      <path id="路径_11856" data-name="路径 11856" class="cls-15" d="M213.735,310.255A4.77,4.77,0,0,1,210,312.048a4.671,4.671,0,0,1-3.149-1.21c-7.858-7.041-28.588-22.144-62.117-22.144-33.224,0-52.919,13.966-60.455,20.672a5.531,5.531,0,0,1-7.843-7.77c6.122-6.94,20.89-20.541,46.154-25.891a105.057,105.057,0,0,1,22.144-2.274,99.674,99.674,0,0,1,24.578,2.959c25.308,6.385,39.39,21.459,44.478,27.961A4.753,4.753,0,0,1,213.735,310.255Z"/>
      <path id="路径_11857" data-name="路径 11857" class="cls-24" d="M178.654,257.663a25.881,25.881,0,0,1-8.618,18.912,98.524,98.524,0,0,0-24.518-3.284,105.055,105.055,0,0,0-22.144,2.274,25.007,25.007,0,0,1-7.814-17.9c0-15,14.126-27.174,31.547-27.174S178.654,242.662,178.654,257.663Z"/>
      <path id="路径_11858" data-name="路径 11858" class="cls-25" d="M122.445,265.478l10.608,4.28,7.258-19.169,6.8,7.444,7.72-7.444,8.375,19.169,9.119-5.769-14.7-25.31-10.512,8.747-10.145-8.747Z"/>
    </g>
  </g>
</svg>
