<svg id="组_1268" data-name="组 1268" xmlns="http://www.w3.org/2000/svg" width="388.932" height="428" viewBox="0 0 388.932 428">
  <defs>
    <style>
      .cls-1 {
        fill: #1bb9e1;
      }

      .cls-2 {
        fill: #197e92;
      }

      .cls-3 {
        fill: #fff;
      }

      .cls-4 {
        fill: #ffc62e;
      }
    </style>
  </defs>
  <g id="组_1264" data-name="组 1264">
    <path id="路径_2456" data-name="路径 2456" class="cls-1" d="M1754.929,227.444c0,20.035-20.222,36.631-26.091,54.709-6.085,18.739.311,44.011-11.04,59.606-11.463,15.751-37.551,17.427-53.3,28.892-15.6,11.35-25.189,35.707-43.926,41.791-18.077,5.868-40.071-8.005-60.109-8.005s-42.027,13.873-60.1,8.005c-18.739-6.084-28.331-30.439-43.926-41.791-15.751-11.465-41.837-13.142-53.3-28.892-11.35-15.6-4.955-40.868-11.039-59.6-5.871-18.079-26.091-34.675-26.091-54.71s20.22-36.631,26.091-54.711c6.085-18.736-.31-44.008,11.039-59.6,11.466-15.751,37.551-17.426,53.3-28.891,15.6-11.35,25.187-35.705,43.926-41.789,18.077-5.871,40.071,8.005,60.1,8.005s42.03-13.876,60.108-8.005c18.737,6.084,28.332,30.439,43.927,41.789,15.751,11.465,41.838,13.139,53.3,28.888,11.351,15.6,4.955,40.872,11.04,59.606C1734.707,190.813,1754.929,207.409,1754.929,227.444Z" transform="translate(-1365.997 -41.001)"/>
    <path id="路径_2457" data-name="路径 2457" class="cls-2" d="M1572.637,215.909V400.4l-52.242-32.039L1468.157,400.4v-184.5h104.48Z" transform="translate(-1325.931 27.595)"/>
    <path id="路径_2458" data-name="路径 2458" class="cls-3" d="M1705.161,218.767A155.636,155.636,0,1,1,1549.521,63.129,155.637,155.637,0,0,1,1705.161,218.767Z" transform="translate(-1355.059 -32.322)"/>
    <g id="组_1263" data-name="组 1263" transform="translate(52.977 44.955)">
      <path id="路径_2459" data-name="路径 2459" class="cls-4" d="M1687.028,214.781A141.489,141.489,0,1,1,1545.536,73.292,141.49,141.49,0,0,1,1687.028,214.781Z" transform="translate(-1404.05 -73.292)"/>
    </g>
  </g>
  <g id="组_1266" data-name="组 1266" transform="translate(162.1 295.168)">
    <g id="组_1265" data-name="组 1265">
      <path id="路径_2460" data-name="路径 2460" class="cls-3" d="M1511.945,254.86c1.249-2.454,3.292-2.454,4.547,0l6.045,12.857a10.955,10.955,0,0,0,7.355,5.178l13.52,1.9c2.8.394,3.426,2.278,1.4,4.189l-9.781,9.239a10.419,10.419,0,0,0-2.808,8.378l2.308,13.048c.476,2.7-1.18,3.861-3.679,2.588l-12.088-6.162a11.309,11.309,0,0,0-9.094,0l-12.091,6.162c-2.5,1.272-4.157.109-3.679-2.588l2.308-13.048a10.419,10.419,0,0,0-2.808-8.378l-9.783-9.239c-2.024-1.911-1.391-3.8,1.4-4.189l13.52-1.9a10.961,10.961,0,0,0,7.355-5.178Z" transform="translate(-1482.432 -253.019)"/>
    </g>
  </g>
  <path id="路径_2461" data-name="路径 2461" class="cls-3" d="M1470.925,254.054a18.218,18.218,0,1,1-18.218-18.22A18.218,18.218,0,0,1,1470.925,254.054Z" transform="translate(-1339.135 35.41)"/>
  <path id="路径_2462" data-name="路径 2462" class="cls-3" d="M1437.159,220.723a7.878,7.878,0,1,1-7.878-7.878A7.879,7.879,0,0,1,1437.159,220.723Z" transform="translate(-1344.268 26.394)"/>
  <path id="路径_2463" data-name="路径 2463" class="cls-3" d="M1586.33,258.526a15.264,15.264,0,1,1-15.264-15.264A15.264,15.264,0,0,1,1586.33,258.526Z" transform="translate(-1291.558 38.323)"/>
  <path id="路径_2464" data-name="路径 2464" class="cls-3" d="M1591.517,221.153a6.894,6.894,0,1,1-6.894-6.894A6.894,6.894,0,0,1,1591.517,221.153Z" transform="translate(-1282.959 26.948)"/>
  <g id="组_1267" data-name="组 1267" transform="translate(72.901 143.108)">
    <path id="路径_2465" data-name="路径 2465" class="cls-3" d="M1439.319,145.4h0a5.543,5.543,0,0,1,3.524,7.065q-2.168,6.307-4.734,12.4v51.38a5.366,5.366,0,0,1-5.367,5.365h0a5.365,5.365,0,0,1-5.365-5.365V186.2l-.056.1a4.464,4.464,0,0,1-8.2-1.343l-.658-3.025a4.5,4.5,0,0,1,.535-3.254,153.634,153.634,0,0,0,13.364-29.755A5.531,5.531,0,0,1,1439.319,145.4Z" transform="translate(-1418.362 -143.273)"/>
    <path id="路径_2466" data-name="路径 2466" class="cls-3" d="M1436.063,190.394q3.356-7.756,6.333-16.844a5.344,5.344,0,0,1,6.443-3.51h0a5.361,5.361,0,0,1,3.727,6.784q-2.9,9.307-6.439,17.855a5.342,5.342,0,0,1-7.108,2.847l-.231-.1A5.346,5.346,0,0,1,1436.063,190.394Z" transform="translate(-1411.595 -133.572)"/>
    <path id="路径_2467" data-name="路径 2467" class="cls-3" d="M1489.047,163.055h0l-2.4,9.142a5.366,5.366,0,0,1-6.226,3.9h0a5.363,5.363,0,0,1-4.145-6.65l1.561-5.832H1451.4a109.268,109.268,0,0,1-5.681,10.8,5.337,5.337,0,0,1-7.877,1.42l-.088-.068a5.411,5.411,0,0,1-1.271-7.007,110.947,110.947,0,0,0,9.1-20.251,5.581,5.581,0,0,1,6.014-3.738h0a5.584,5.584,0,0,1,4.5,7.444q-.284.783-.57,1.551h24.228A9.291,9.291,0,0,1,1489.047,163.055Z" transform="translate(-1411.552 -143.432)"/>
    <path id="路径_2468" data-name="路径 2468" class="cls-3" d="M1460.635,161.8a4.959,4.959,0,0,1,4.959,4.959v37.251q0,4.765-1.963,7.309t-6.468,2.943q-3.23.286-8.283.327a4.947,4.947,0,0,1-4.914-4.015l-.02-.1a4.981,4.981,0,0,1,4.932-5.9h.337q3.041,0,4.145-.781a3.441,3.441,0,0,0,1.1-2.983V166.761a4.959,4.959,0,0,1,4.959-4.959Z" transform="translate(-1408.362 -136.733)"/>
    <path id="路径_2469" data-name="路径 2469" class="cls-3" d="M1472.741,173.822q2.52,6.956,5.971,17.87a5.216,5.216,0,0,1-3.379,6.535l-.79.253a5.223,5.223,0,0,1-6.639-3.646q-2.575-9.729-5.055-17.713a5.206,5.206,0,0,1,3.635-6.564h0A5.212,5.212,0,0,1,1472.741,173.822Z" transform="translate(-1401.006 -133.37)"/>
    <path id="路径_2470" data-name="路径 2470" class="cls-3" d="M1481.455,201.062h3.324a1.762,1.762,0,0,0,1.761-1.762V167.327a6.793,6.793,0,0,1,6.792-6.792h15.875a1.762,1.762,0,0,0,1.761-1.763v-.32a1.761,1.761,0,0,0-1.761-1.761h-26.832a3.845,3.845,0,0,1-3.845-3.845h0a3.844,3.844,0,0,1,3.845-3.844h26.832a1.762,1.762,0,0,0,1.761-1.763h0a3.444,3.444,0,0,1,3.446-3.444h4.163a3.443,3.443,0,0,1,3.444,3.444h0a1.763,1.763,0,0,0,1.762,1.763h26.832a3.845,3.845,0,0,1,3.845,3.844h0a3.846,3.846,0,0,1-3.845,3.845h-26.832a1.762,1.762,0,0,0-1.762,1.761v.32a1.763,1.763,0,0,0,1.762,1.763h18a4.91,4.91,0,0,1,4.91,4.91V199.3a1.763,1.763,0,0,0,1.763,1.762h3.645a3.8,3.8,0,0,1,3.8,3.8h0a3.8,3.8,0,0,1-3.8,3.8h-70.644a3.8,3.8,0,0,1-3.8-3.8h0A3.8,3.8,0,0,1,1481.455,201.062Zm27.227,10.778h0a4.323,4.323,0,0,1-2.765,6.263q-9.1,2.239-18.065,4.4a4.312,4.312,0,0,1-4.891-2.333c-.108-.226-.217-.45-.324-.671a4.307,4.307,0,0,1,3.079-6.135q9.233-1.669,18.245-3.666A4.308,4.308,0,0,1,1508.682,211.841Zm25.435-43.937h-35a1.763,1.763,0,0,0-1.762,1.763v.079a1.763,1.763,0,0,0,1.762,1.763h35a1.762,1.762,0,0,0,1.761-1.763v-.079A1.762,1.762,0,0,0,1534.117,167.9Zm-35,13.455h35a1.762,1.762,0,0,0,1.761-1.762v-.079a1.762,1.762,0,0,0-1.761-1.762h-35a1.763,1.763,0,0,0-1.762,1.762v.079A1.763,1.763,0,0,0,1499.116,181.359Zm0,9.932h35a1.762,1.762,0,0,0,1.761-1.762v-.16a1.76,1.76,0,0,0-1.761-1.761h-35a1.762,1.762,0,0,0-1.762,1.761v.16A1.763,1.763,0,0,0,1499.116,191.291Zm0,9.772h35a1.762,1.762,0,0,0,1.761-1.762h0a1.762,1.762,0,0,0-1.761-1.763h-35a1.763,1.763,0,0,0-1.762,1.763h0A1.763,1.763,0,0,0,1499.116,201.062Zm29.484,8.771q8.506,1.42,20.02,3.411a4.3,4.3,0,0,1,3.313,5.682l-.354.988a4.3,4.3,0,0,1-5,2.733q-10.026-2.268-19.6-4.385a4.293,4.293,0,0,1-2.922-6.1h0A4.281,4.281,0,0,1,1528.6,209.833Z" transform="translate(-1395.11 -143.795)"/>
    <path id="路径_2471" data-name="路径 2471" class="cls-3" d="M1592.3,199.2h8.211a3,3,0,0,0,3-3h0q1.161.973,2.407,1.878a5.014,5.014,0,0,0,7.235-1.492l.057-.093a4.93,4.93,0,0,0-1.857-6.894,30.889,30.889,0,0,1-9.885-8.416h10.052a3.845,3.845,0,0,0,3.844-3.845h0a3.844,3.844,0,0,0-3.844-3.844h-25.43q.72-1.963,1.362-4h19.262a3.846,3.846,0,0,0,3.845-3.845h0a3.846,3.846,0,0,0-3.845-3.845h-17.3q.4-1.961.681-4h18.382a3.844,3.844,0,0,0,3.844-3.844h0a3.844,3.844,0,0,0-3.844-3.845h-16.954l-.549-.617a5.325,5.325,0,0,0-5.321-5.63h0a5.325,5.325,0,0,0-5.315,5.1q-.025.576-.054,1.147h-12.815a3.845,3.845,0,0,0-3.845,3.845h0a3.845,3.845,0,0,0,3.845,3.844H1579.6q-.242,2.082-.6,4h-9.13a3.846,3.846,0,0,0-3.845,3.845h0a3.846,3.846,0,0,0,3.845,3.845h7.288q-.641,2.082-1.4,4h-10.212a4.164,4.164,0,0,0-4.164,4.164h0q-3.406-2.042-6.248-3.643v-5.647h2.484a5.046,5.046,0,0,0,5.045-5.045h0a5.047,5.047,0,0,0-5.045-5.047h-2.484V148.9a4.725,4.725,0,0,0-4.725-4.725h0a4.725,4.725,0,0,0-4.727,4.725v9.371H1541.6a5.046,5.046,0,0,0-5.045,5.047h0a5.045,5.045,0,0,0,5.045,5.045h3.444a89.4,89.4,0,0,1-8.493,20.62,4.422,4.422,0,0,0-.5,2.971l.023.128a4.373,4.373,0,0,0,8.3.951q.685-1.579,1.306-3.164V218.26a4.726,4.726,0,0,0,4.727,4.725h0a4.726,4.726,0,0,0,4.725-4.725V184.14h0a5.3,5.3,0,0,0,8.4-1.776l.526-1.186h7.569a38.83,38.83,0,0,1-9.988,9.184,4.912,4.912,0,0,0-1.08,7.256l.068.082a4.835,4.835,0,0,0,6.7.71q1.871-1.493,3.578-3.015h0a3.8,3.8,0,0,0,3.8,3.8h7.568V204.4h-14.738a4,4,0,0,0-4,4.005h0a4,4,0,0,0,4,4h14.738v5.566a5.006,5.006,0,0,0,5,5.006h0a5.006,5.006,0,0,0,5.007-5.006v-5.566h14.738a4,4,0,0,0,4-4h0a4,4,0,0,0-4-4.005H1592.3Zm-10.011-8.929v1.24h-7.408a52.905,52.905,0,0,0,7.769-10.331h9.17a45.562,45.562,0,0,0,6.808,10.331H1592.3v-1.24a5.006,5.006,0,0,0-5.007-5.006h0A5.006,5.006,0,0,0,1582.285,190.267Z" transform="translate(-1372.234 -143.772)"/>
  </g>
</svg>
