<svg xmlns="http://www.w3.org/2000/svg" width="96" height="63" viewBox="0 0 96 63">
  <defs>
    <style>
      .cls-1 {
        fill: #68c494;
      }

      .cls-2 {
        fill: #fff;
      }
    </style>
  </defs>
  <g id="组_2_拷贝_4" data-name="组 2 拷贝 4" transform="translate(-15.49 -4.871)">
    <rect id="圆角矩形_4_拷贝" data-name="圆角矩形 4 拷贝" class="cls-1" width="96" height="58" rx="15" transform="translate(15.49 9.871)"/>
    <rect id="圆角矩形_4" data-name="圆角矩形 4" class="cls-2" width="96" height="55" rx="15" transform="translate(15.49 4.871)"/>
    <g id="组_1331" data-name="组 1331" transform="translate(48.49 19.871)">
      <path id="路径_1" data-name="路径 1" class="cls-1" d="M394.551,782.495a2.419,2.419,0,0,1-1.273-.365l-6.706-4.1c-.03-.021-.064-.041-.091-.062a1.791,1.791,0,0,0-.84-.214h-4.663a3.677,3.677,0,0,1-3.414-3.883v-7.749a3.675,3.675,0,0,1,3.414-3.883h4.663a1.815,1.815,0,0,0,.951-.279l6.706-4.1a2.408,2.408,0,0,1,2.5-.031,3.021,3.021,0,0,1,1.425,2.636l-.01,4.5-.01,14.561a3.029,3.029,0,0,1-1.425,2.636,2.425,2.425,0,0,1-1.223.334Zm9.055-4.407a1.163,1.163,0,0,1-.837-.355,1.235,1.235,0,0,1,0-1.712,8.681,8.681,0,0,0,0-12.052,1.235,1.235,0,0,1,0-1.712,1.161,1.161,0,0,1,1.67,0,11.145,11.145,0,0,1,0,15.477,1.15,1.15,0,0,1-.833.355Z" transform="translate(-377.564 -757.495)"/>
      <path id="路径_2" data-name="路径 2" class="cls-1" d="M500.118,808.65a1.181,1.181,0,0,1-.837-2.016,4.461,4.461,0,0,0,0-6.3,1.181,1.181,0,1,1,1.67-1.67,6.826,6.826,0,0,1,0,9.642,1.165,1.165,0,0,1-.834.346Z" transform="translate(-478.058 -790.984)"/>
    </g>
  </g>
</svg>
