<?xml version="1.0" encoding="UTF-8"?>
<svg width="129px" height="235px" viewBox="0 0 129 235" version="1.1" xmlns="http://www.w3.org/2000/svg" xmlns:xlink="http://www.w3.org/1999/xlink">
    <title>小希</title>
    <g id="人教一年级上" stroke="none" stroke-width="1" fill="none" fill-rule="evenodd">
        <g id="第6课练一练第4、5、6、7题" transform="translate(-921.000000, -124.000000)" fill-rule="nonzero">
            <g id="小希" transform="translate(921.000000, 124.000000)">
                <path d="M4.82617113,41.6479959 C4.82617113,41.6479959 -5.41709824,75.2496584 7.00987629,96.3346344 C19.4368508,117.41961 -3.08673834,131.735906 0.364214171,146.967585 C3.81516668,162.199265 30.7862085,180.280773 59.9683525,170.893258 C89.1504965,161.505744 140.655318,172.659562 124.847764,133.156255 C109.04021,93.6529477 122.41856,107.733951 124.847764,67.4350559 C127.276968,27.1361605 35.9894971,30.6263283 35.9894971,30.6263283 L4.82617113,41.6479959 Z" id="路径_17012" fill="#111111"></path>
                <path d="M17.9880309,41.6479959 C17.9880309,41.6479959 8.84225472,75.2496584 19.9375183,96.3346344 C31.0327818,117.41961 10.9217437,131.735906 14.003642,146.967585 C17.0855403,162.199265 41.169149,180.280773 67.2280306,170.893258 C93.2869122,161.505744 139.275797,172.659562 125.162561,133.156255 C111.049326,93.6529477 122.992823,107.733951 125.162561,67.4350559 C127.332299,27.1361605 45.8153645,30.6263283 45.8153645,30.6263283 L17.9880309,41.6479959 Z" id="路径_17013" fill="#222222"></path>
                <g id="组_11308" transform="translate(69.724922, 128.279045)">
                    <polygon id="路径_4097" fill="#FFCBA6" points="0 10.8717897 15.3638297 25.2192429 29.4996273 38.4187065 29.6478937 38.2575474 30.0878579 37.7891118 34.2742329 33.2997578 34.154438 33.1385987 9.0136258 0"></polygon>
                    <path d="M31.5296942,42.4337157 C31.6333732,42.5078489 31.7354406,42.5771472 31.8444916,42.6448341 L31.8219293,42.8795891 L31.4620074,46.563685 C31.4161964,47.1746504 31.8560737,47.7148102 32.4636556,47.7936872 C33.0712375,47.8725643 33.6344575,47.4626279 33.7461684,46.8602177 L34.3064647,43.3764961 C34.5757054,43.3862706 34.8452886,43.3729711 35.1122599,43.3367436 L36.4708308,47.2770824 C36.6738129,47.8926029 37.3283392,48.2362649 37.9502709,48.053869 C38.439686,47.8966118 38.7703285,47.439803 38.7668101,46.9257557 C38.7664196,46.8075721 38.7494211,46.6900299 38.7163136,46.5765777 L37.5452244,42.4304925 C37.6650193,42.3617313 37.647829,42.3735496 37.7681611,42.3042513 L41.1944026,46.1086793 C41.6139161,46.6056277 42.3568552,46.6684011 42.8538036,46.2488877 C43.350752,45.8293742 43.4135255,45.086435 42.994012,44.5894866 L39.4984722,40.2381922 C39.5945971,40.104904 39.7024675,39.9804935 39.8207903,39.866452 L43.1728985,41.7735008 C43.727849,42.1127608 44.4527498,41.9379091 44.7920098,41.3829587 C45.1312698,40.8280082 44.9564182,40.1031074 44.4014677,39.7638474 L40.655057,37.3464616 C40.2829387,37.1033531 40.004781,36.740687 39.866452,36.3182669 C39.8411819,36.2269927 39.8105075,36.1373016 39.7745913,36.0496684 L42.4702451,35.0289944 C43.0501103,34.8259986 43.3690687,34.2040893 43.1955822,33.6147223 C43.0220957,33.0253553 42.4170678,32.6754312 41.8196997,32.8189666 L37.683284,33.6355058 C36.6066405,33.0516851 35.3551281,32.8770954 34.1598099,33.1439707 C31.9914148,33.6152053 30.2868675,35.2907025 29.7784325,37.4506778 C29.7102982,37.7160994 29.6671345,37.9873111 29.6495053,38.2607706 C29.5464169,39.5766573 29.9909279,40.8767596 30.8780744,41.8540803 C31.0761951,42.0677367 31.2944064,42.2618422 31.5296942,42.4337157 L31.5296942,42.4337157 Z" id="路径_4098" fill="#FFCBA6"></path>
                    <path d="M14.4221236,22.2431724 L15.3638297,25.2192429 L29.5007017,38.4187065 L29.5007017,38.4187065 C29.5124339,40.000081 30.262152,41.4852103 31.5275454,42.4337157 C30.6825348,41.5253158 30.5331941,37.4533638 30.5331941,37.4533638 L29.9503355,36.8253807 L29.6366125,36.4826491 L15.6216841,21.0613394 L14.4221236,22.2431724 Z" id="路径_4099" fill="#FFB885"></path>
                </g>
                <g id="组_11309" transform="translate(18.344226, 129.652120)">
                    <g id="组_1921" transform="translate(10.868533, 0.000000)" fill="#FFCBA6">
                        <polygon id="路径_4100" points="0 31.9051948 3.1297088 35.5721004 4.35774078 37.0112508 4.50063514 37.1767074 24.8603954 19.687727 34.8098181 11.1430741 26.3758277 0 0.125704061 31.7483333"></polygon>
                    </g>
                    <path d="M0.135877242,39.4608684 C0.454722145,40.0176575 1.15852294,40.2199675 1.7243683,39.9174857 L5.11730355,38.1699844 C5.2290118,38.288612 5.33037388,38.4165727 5.42028257,38.5524685 L1.78668314,42.7168184 C1.49292038,43.0198234 1.38654561,43.4582862 1.50879904,43.8622201 C1.63105247,44.2661541 1.96271056,44.5720432 2.37519345,44.661298 C2.78767634,44.7505527 3.2161238,44.6091384 3.49443189,44.2918796 L7.03993105,40.6717101 C7.15972594,40.7458432 7.13716368,40.7340249 7.25480978,40.8033233 L5.91880124,44.8645314 C5.876459,44.9894156 5.85539433,45.120525 5.85648641,45.2523875 C5.8483752,45.7455801 6.15309595,46.1899465 6.61608274,46.3600874 C7.22434203,46.5676524 7.88740044,46.2539729 8.11271314,45.652062 L9.62008748,41.8084186 C9.88263548,41.8520665 10.1479742,41.8768411 10.4140644,41.8825517 L10.6934068,44.3036979 L10.819648,45.3544549 C10.90466,45.9530589 11.4424279,46.3810305 12.0448382,46.3294973 C12.6472484,46.2779641 13.1045131,45.7648724 13.0866187,45.1605269 L12.8755003,41.2653126 C13.2367338,41.0583372 13.5707593,40.8071414 13.8698517,40.5175346 C14.7863747,39.5857479 15.2762301,38.3160909 15.2230505,37.0101764 C15.2024924,36.1683542 14.9856144,35.3429669 14.5896955,34.5997742 C14.3199307,34.0970863 13.9772461,33.6370961 13.5727818,33.234757 C12.8601316,32.518273 11.968696,32.0055955 10.9910138,31.7499449 C9.82068354,31.4408957 8.57827634,31.5625247 7.490102,32.0926765 L3.44393539,31.1101435 C2.8590622,30.9447404 2.24715355,31.2666288 2.05211362,31.8422973 C1.85707369,32.4179659 2.14731014,33.0455064 2.71227329,33.2696748 L5.32842191,34.394565 C5.28939973,34.4803004 5.25479473,34.5679783 5.22474292,34.6572542 C5.07560233,35.0690936 4.78788635,35.4162519 4.41088971,35.63925 L0.607536069,37.8782865 C0.0467071736,38.1902558 -0.162666737,38.8927791 0.135877242,39.4608684 Z" id="路径_4101" fill="#FFCBA6"></path>
                    <g id="组_1922" transform="translate(10.417825, 16.397934)" fill="#FFB885">
                        <path d="M0,25.4851553 L0.405046418,28.9570585 C0.490058363,29.5556625 1.02782633,29.9836341 1.63023656,29.9321009 C2.2326468,29.8805677 2.68991149,29.367476 2.67201709,28.7631305 L2.46089873,24.8679162 C2.8221322,24.6609409 3.15615768,24.409745 3.45525008,24.1201382 C4.4046302,23.2685243 4.94817402,22.0541412 4.95080609,20.7787738 L4.95080609,20.7787738 L25.3105664,3.28979346 L23.3460375,0 L4.17509385,18.2023778 C4.17509385,18.2023778 3.49231667,23.8612093 0,25.4851553 Z" id="路径_4102"></path>
                    </g>
                </g>
                <g id="组_11310" transform="translate(70.521606, 187.306233)">
                    <polygon id="路径_4103" fill="#FFCBA6" points="0.19712947 34.2162156 12.8937768 28.5960623 13.9219716 14.5628692 14.6702868 4.40984887 14.8244623 2.30779763 14.8588429 1.83936198 1.67066041 0 1.55086551 2.81598584 1.03676813 14.8491951 1.03676813 14.8663854 1.01957783 15.2606879"></polygon>
                    <polygon id="路径_4104" fill="#FFB885" points="1.01904064 15.2596135 2.45281901 15.2596135 3.60080866 7.52397896 14.6697496 4.4055513 14.8239251 2.30350006 1.55032831 2.81168827 1.03623094 14.8448975 1.03623094 14.8620878"></polygon>
                    <path d="M0.19712947,34.2162156 L4.37974408,34.8377524 L12.8910908,28.5992854 L13.5190739,20.1233937 L13.680233,17.8725389 L13.9214344,14.5655552 C13.9214344,14.5655552 8.92550375,17.4003429 1.03354495,14.8513439 L1.03354495,14.8642366 L0.893336577,18.1690716 L0.802550311,20.165295 L0.19712947,34.2162156 Z" id="路径_4105" fill="#FFFFE8"></path>
                    <g id="组_1924" transform="translate(0.802550, 17.872002)" fill="#89CC76">
                        <path d="M0,2.29490491 C2.22425141,3.20251041 4.60716869,3.6574343 7.00934439,3.63306224 C8.99163251,3.60726611 10.9425893,3.13481323 12.7170608,2.25085477 L12.8782199,0 C11.1339417,1.1560476 6.82132549,3.12272524 0.0929350535,0.296532656 L0,2.29490491 Z" id="路径_4106"></path>
                    </g>
                    <g id="组_1925" transform="translate(0.000537, 28.158706)" fill="#36A4AD">
                        <path d="M0.219154541,7.29091405 C0.790194783,8.77035415 8.05148449,17.8624107 10.6901954,18.8223814 C13.1801027,19.7243349 19.632374,20.4796337 21.0892518,16.4049957 C21.1830894,16.1556351 21.2520076,15.8975964 21.2949982,15.6346554 C21.8090956,12.6360226 19.940725,9.3569731 17.5765217,6.22672711 C16.8169253,5.21625985 16.0003861,4.21707373 15.205872,3.251731 C15.2030154,3.24801472 15.1987248,3.24567441 15.1940537,3.24528464 C14.3947048,2.27456995 13.606637,1.33286388 12.8927024,0.436282356 C12.8927024,0.436282356 6.58171393,-2.15193203 4.13155914,5.27964908 C3.75153635,5.41139006 3.33397138,5.38028652 2.97766032,5.19369758 C1.56160945,4.54906137 0.361511704,2.20688314 0.361511704,2.20688314 C0.361511704,2.20688314 -0.346513733,5.80717638 0.219154541,7.29091405 Z" id="路径_4107"></path>
                    </g>
                    <path d="M7.24515203,35.7923511 L9.26125177,38.4654426 C9.26125177,38.4654426 14.1271808,34.5476661 17.5775961,34.3870442 C16.8179997,33.3765769 16.0014605,32.3773908 15.2069464,31.4120481 C15.2040898,31.4083318 15.1997992,31.4059915 15.1951281,31.4056017 C15.1951281,31.4056017 8.76971666,31.2691537 7.24515203,35.7923511 Z" id="路径_4108" fill="#FFFFFF"></path>
                    <path d="M0.361511704,30.3672002 C0.361511704,30.3672002 -0.346513733,33.9664191 0.219154541,35.4496196 C0.784822815,36.93282 8.05148449,46.0211162 10.6901954,46.981087 C13.1801027,47.8830405 19.632374,48.6383392 21.0892518,44.5637012 C20.0261995,45.485926 18.7213189,46.0844934 17.3288739,46.2886402 C7.51536204,48.1414321 1.98223457,32.623427 1.98223457,32.623427 C1.98223457,32.623427 0.589283165,31.2251036 0.361511704,30.3672002 Z" id="路径_4109" fill="#36A4AD"></path>
                </g>
                <g id="组_11311" transform="translate(32.394278, 189.686015)">
                    <polygon id="路径_4110" fill="#FFCBA6" points="12.3429329 26.2447517 22.9665376 35.1831699 27.5584962 16.363553 27.5644054 16.3522718 30.0430316 6.21429306 31.0937886 1.90758598 17.9174245 0 15.2668953 12.4806942 14.701227 15.1537857"></polygon>
                    <path d="M14.701227,15.1527113 L17.5166757,16.9576927 C17.5166757,16.9576927 19.4129805,7.84199949 19.7675304,5.07167538 C20.4873742,5.58040079 30.6667171,3.6566989 30.6667171,3.6566989 L31.0932514,1.90812318 L17.9163501,3.05361051e-14 L15.2668953,12.4806942 L14.701227,15.1527113 Z" id="路径_4111" fill="#FFB885"></path>
                    <path d="M22.9681492,35.1815583 L17.6590328,33.9460056 L12.3445445,26.2452889 L14.1054757,17.9337794 L14.5765973,15.7269747 L15.2685069,12.4839174 C15.2685069,12.4839174 19.2759953,16.5999196 27.5638682,16.3517347 L27.560645,16.363553 L26.7731144,19.5765273 L26.3062904,21.5211799 L22.9681492,35.1815583 Z" id="路径_4112" fill="#FFFFE8"></path>
                    <g id="组_1927" transform="translate(14.104939, 15.723214)" fill="#89CC76">
                        <path d="M12.2013519,5.79742831 C9.81158481,6.04815696 7.39581095,5.81987473 5.09531204,5.12593226 C3.19895617,4.54846294 1.45729225,3.5506557 0,2.20680462 L0.47112163,0 C1.82432047,1.59708621 5.41709295,4.68811683 12.6654899,3.85116416 L12.2013519,5.79742831 Z" id="路径_4113"></path>
                    </g>
                    <g id="组_1928" transform="translate(0.002239, 26.229705)" fill="#36A4AD">
                        <path d="M0.529347401,14.785811 C0.529347401,14.791183 0.53471937,14.7965549 0.53471937,14.8030013 C2.19734359,17.6984923 7.3490613,18.5032131 9.59884167,18.355484 C12.3981744,18.1722999 21.6390345,11.3928758 22.5990052,10.124554 C23.558976,8.85623227 23.8845173,5.21350049 23.8845173,5.21350049 C23.2899156,5.82745222 22.622411,6.36632689 21.896889,6.81810746 C21.0508039,7.3214609 20.1026515,7.62390272 19.4069816,7.11034254 C19.2699964,3.26562474 17.5622476,1.49018918 15.8614824,0.673112789 C14.764459,0.162144791 13.5563181,-0.0640005685 12.3487523,0.0155838549 C11.5612217,0.569433798 10.7151367,1.14047404 9.84702661,1.72870458 C8.80808792,2.43780441 7.73423144,3.16839212 6.69421835,3.92261648 C3.46190496,6.29326614 0.570174361,8.93090263 0.0748788736,11.9757343 C0.0576885747,12.072967 0.0458702442,12.1696624 0.0351263074,12.266895 C-0.081014914,13.138018 0.0926527005,14.0231566 0.529347401,14.785811 L0.529347401,14.785811 Z" id="路径_4114"></path>
                    </g>
                    <path d="M6.6932337,30.1528587 C9.92017513,31.3642376 13.3931527,36.3719865 13.3931527,36.3719865 L16.0834345,34.3784491 C15.9222754,30.0384358 10.7651858,28.2441983 9.84550477,27.9584096 C8.80710327,28.6669722 7.73324679,29.3975599 6.6932337,30.1528587 Z" id="路径_4115" fill="#FFFFFF"></path>
                    <path d="M0.0346788527,38.4960628 C-0.0807729978,39.3676587 0.0938461834,40.2530251 0.531585931,41.015516 C0.531585931,41.020888 0.536957899,41.02626 0.536957899,41.0327063 C2.19958212,43.9281973 5.78107346,45.3147024 9.6010802,44.585189 C12.3563628,44.0592733 21.641273,37.6225808 22.6012438,36.354259 C23.5612145,35.0859373 23.8867558,31.4432055 23.8867558,31.4432055 C23.2921541,32.0571572 22.6246495,32.5960319 21.8991275,33.0478125 L21.8991275,33.0542588 C21.8991275,33.0542588 20.3627445,38.0281644 9.42487964,42.1119348 C4.8049868,43.8143116 1.59469848,41.1412201 0.0776546,38.2059766 C0.0572411201,38.3021348 0.0427368053,38.4004418 0.0346788527,38.4960628 Z" id="路径_4116" fill="#36A4AD"></path>
                </g>
                <g id="组_11312" transform="translate(39.025196, 124.062049)">
                    <path d="M44.3466736,9.85702484 C44.3466736,9.85702484 45.4210673,19.9498791 49.1191304,40.4138556 C33.5737282,40.4138556 7.42513474,40.6991071 7.42513474,40.6991071 C7.42513474,40.6991071 12.4210654,21.5528745 12.3104028,12.5161492 C22.4827622,12.7122261 44.3466736,9.85702484 44.3466736,9.85702484 Z" id="路径_4117" fill="#70BE5A"></path>
                    <path d="M13.713561,40.6475362 C18.2834945,40.6024117 25.1306054,40.5400968 32.287679,40.4863771 C38.0448175,40.4466246 44.0023305,40.412244 49.1191304,40.412244 C48.359534,36.2140507 47.7138234,32.4558216 47.1599735,29.1311103 C45.0246161,16.2346257 44.3445249,9.85433886 44.3445249,9.85433886 C44.3445249,9.85433886 31.670977,11.5105167 21.1327865,12.218005 C15.7640413,19.1559022 13.8902987,29.2976413 13.713561,40.6475362 Z" id="路径_4118" fill="#89CC76"></path>
                    <path d="M28.84371,0.395914072 L35.6849118,0.000537196841 C39.9862469,0.67525643 45.1798659,4.28253322 46.7259185,8.35233649 C48.3111863,12.5252816 44.8876309,17.4078636 40.5454688,18.4441164 C36.2033067,19.4803691 31.605439,17.4648065 28.3339102,14.4269584 L27.9363845,14.4269584 C24.6648558,17.4642693 20.0675252,19.4803691 15.7248259,18.4441164 C11.3821267,17.4078636 7.9591084,12.5247444 9.5416903,8.35179929 C11.0877428,4.28199602 16.2824363,0.674719233 20.5837714,0 L28.84371,0.395914072 Z" id="路径_4119" fill="#FFFFE8"></path>
                    <g id="组_1930" transform="translate(12.653840, 1.032444)" fill="#F8E343">
                        <path d="M16.4063604,1.24204753 L20.9725335,1.0271688 C21.653814,0.967650446 22.3402279,1.03448884 22.9972284,1.22432004 C24.4519764,1.66273139 25.8216329,2.34519817 27.0476926,3.24256857 C29.3189608,4.87510977 31.6305189,7.51704384 30.7726155,10.511379 C29.8921121,13.4376325 27.0658785,15.3333373 24.0243488,15.0377996 C22.3463855,14.744804 20.7590555,14.0672514 19.3867284,13.0582293 C18.703209,12.5945178 18.0452573,12.0941947 17.4157532,11.5594501 C16.9806238,11.1920074 16.5395852,10.5387761 15.9363131,10.5387761 C15.3932071,10.5387761 15.0230785,11.0700637 14.6293132,11.4031258 C13.944002,11.9908794 13.2227632,12.5353968 12.4697819,13.0335182 C11.0961557,14.0195976 9.50147306,14.6534125 7.82571522,14.8793265 C4.84319836,15.1441646 1.88324376,12.9421947 1.06240699,10.0982747 C0.184090155,7.05559175 2.55903739,4.39807898 4.91679433,2.81442269 C6.28097941,1.83806725 7.84531047,1.17746997 9.4963974,0.880514058 C10.1077141,0.844761332 10.7210399,0.866704366 11.3282386,0.946052073 L16.4042116,1.23936155 C16.9548383,1.27051896 16.9526896,0.4142272 16.4042116,0.382532586 L11.3282386,0.0892231109 C10.7572657,0.0283979948 10.1834106,-0.00137074052 9.60920874,0 C8.11042955,0.0774047804 6.49346706,0.865472547 5.21923615,1.61163896 C2.71213849,3.08248391 -0.0850454621,5.68896298 0.00198042616,8.84284564 C0.083634346,11.7619733 2.34469585,14.3469645 4.99791105,15.3429274 C8.32530829,16.5940589 11.749401,14.7520109 14.3354665,12.7396715 C14.7007604,12.4553153 15.0588916,12.1618268 15.4098602,11.8592059 C15.5631561,11.6945044 15.7324948,11.5455008 15.9153625,11.4144069 C15.7568894,11.4971352 15.9357759,11.3128767 16.0491245,11.3950678 C15.8766843,11.269901 16.1565638,11.5954423 16.2102835,11.6405668 C16.3513872,11.766629 16.4935653,11.8909005 16.6368178,12.0133814 C17.0182276,12.3399971 17.4078743,12.656406 17.8057581,12.9626082 C19.2229296,14.1176917 20.8366763,15.0079091 22.5696197,15.5905752 C25.5461381,16.5066801 28.77392,15.4003095 30.5625715,12.8508713 C31.4360511,11.6864665 31.8799733,10.2558186 31.8190749,8.80148148 C31.6670417,7.40917196 31.0975876,6.09536401 30.1854593,5.03250844 C28.9908558,3.56002138 27.5077027,2.34742992 25.8271814,1.4692818 C24.6711338,0.852042626 23.2013632,0.146165976 21.8696522,0.126289693 C20.0571501,0.0983554572 18.2167137,0.295506698 16.4068976,0.379309405 C15.856808,0.410466822 15.8535848,1.26675859 16.4063604,1.24204753 Z" id="路径_4120"></path>
                    </g>
                    <g id="组_1932" transform="translate(0.000000, 40.412244)">
                        <path d="M7.63402627e-15,21.941805 C11.3547296,30.3000506 47.8916356,29.6027691 58.2573859,21.941805 C58.0725463,20.8429082 57.828664,19.7547626 57.5267981,18.6820946 C57.4123752,18.2641554 57.2931175,17.8462163 57.1615043,17.4277399 C56.7779458,16.1948732 56.3385187,14.9485765 55.8641739,13.7210817 C53.9600969,8.98604886 51.7054948,4.3996323 49.1191304,0 L7.71038626,0.348103553 C5.60607184,4.77948706 3.73022755,9.31579564 2.09023291,13.9391836 L2.09023291,13.94563 C1.79370025,14.8164261 1.50737434,15.6802386 1.25059425,16.5295468 C1.04484786,17.2053404 0.856291765,17.8601834 0.690297941,18.500522 L0.690297941,18.5080428 C0.392843472,19.6380525 0.162343376,20.7846335 7.63402627e-15,21.941805 Z" id="路径_4121" fill="#70BE5A"></path>
                        <path d="M13.7017426,1.10931148 C13.7017426,11.28758 14.7707643,20.574639 19.073711,27.4910484 L19.0801574,27.4910484 C29.2868974,28.5015156 40.9263414,27.8337799 49.3517366,25.675323 C53.0863291,24.7153523 56.1886408,23.4642208 58.2552371,21.9396562 C58.0703489,20.8423624 57.8264661,19.7558286 57.5246494,18.6847805 C57.4102264,18.2614694 57.2909687,17.8440675 57.1593555,17.4272027 C56.775797,16.19165 56.3363699,14.9491137 55.8620251,13.7205445 C53.9573811,8.9864561 51.7027975,4.40079538 49.1169816,0.00161159052 L32.2624307,0.138596785 L13.710875,0.28740031 C13.7017426,0.560833502 13.7017426,0.835341088 13.7017426,1.10931148 Z" id="路径_4122" fill="#89CC76"></path>
                        <path d="M0,21.941805 C11.3547296,30.3000506 47.8916356,29.6027691 58.2573859,21.941805 C58.0725463,20.8429082 57.828664,19.7547626 57.5267981,18.6820946 C57.4123752,18.2641554 57.2931175,17.8462163 57.1615043,17.4277399 C57.1615043,17.4277399 54.9847827,18.3049824 51.3979194,19.321896 C51.3409765,19.3358631 51.2834965,19.357351 51.2265536,19.3702437 C49.4908706,19.8585556 47.4232,20.3731902 45.1213115,20.8400143 C45.0004422,20.8615021 44.8811845,20.8894364 44.7549432,20.9162962 C42.9166557,21.2719205 40.9231182,21.5996106 38.8264389,21.8504815 C38.6722634,21.870895 38.5234599,21.8848621 38.3698216,21.9042012 C36.5025254,22.1131708 34.555724,22.2673463 32.5557402,22.3221403 C32.3843744,22.3296611 32.2130086,22.3296611 32.0416428,22.3361075 C30.7108272,22.3640417 29.3592399,22.3479258 27.986881,22.2877597 C27.4093944,22.2598255 26.8383542,22.2340401 26.2678511,22.1894527 L25.7086292,22.1486258 C23.7258357,22.001971 21.7962246,21.772588 19.9504163,21.4932456 C19.7962408,21.4728321 19.6420653,21.4448979 19.493799,21.42341 C17.4325747,21.1010919 15.4648227,20.7132358 13.645337,20.3028174 L13.1887197,20.198064 C11.0012541,19.6893386 9.01470019,19.1387119 7.28277758,18.6160193 C7.16835465,18.5816387 7.06091528,18.5472581 6.95186432,18.5187867 C4.39265857,17.7248098 2.42866692,16.9931477 1.25166864,16.5263236 C1.04592225,17.2021173 0.857366159,17.8569602 0.691372335,18.4972988 L0.691372335,18.5048196 C0.393431813,19.6358666 0.162572186,20.7835277 0,21.941805 Z" id="路径_4123" fill="#FFFFE8"></path>
                        <g id="组_1931" transform="translate(0.686538, 13.230621)" fill="#FFFFE8">
                            <path d="M53.5730294,1.26617296 C53.7764724,1.26625213 53.9780011,1.30546359 54.1666319,1.38167028 C54.5813479,2.47647744 54.9509393,3.54764794 55.2711086,4.57637989 C55.3538369,4.84014354 55.4381768,5.12378347 55.5252027,5.43589484 C55.2826337,6.34223581 54.5057625,7.004767 53.5724922,7.10120505 C52.8084936,7.05028319 52.1354325,6.58069132 51.8239165,5.88123102 L51.8174701,5.86833829 L51.8099494,5.85544557 C51.7692666,5.78574932 51.7321522,5.71403058 51.6987496,5.64056683 C51.5025597,5.17933504 51.4030969,4.68275231 51.4065145,4.18154021 C51.4065145,4.1503828 51.4065145,4.11815099 51.4065145,4.09451432 L51.4065145,4.06120812 L51.4065145,4.02897631 C51.4645318,2.50441167 52.4347093,1.26402417 53.5671202,1.26402417 M53.5671202,0.00322318105 C51.7331302,0.00322318105 50.2311278,1.76469162 50.1462507,3.97847981 C50.1397619,4.04079464 50.1397619,4.11009303 50.1397619,4.17992862 C50.1370184,4.85226848 50.2711785,5.5181336 50.5341069,6.13693672 C50.5855961,6.25146477 50.6427897,6.36334189 50.7054727,6.47214754 C51.2341397,7.58454001 52.3364356,8.31167868 53.5671202,8.35985724 C55.0970568,8.35985724 56.3943872,7.13343686 56.8343514,5.44825036 C56.7199285,5.03031122 56.6006708,4.61237208 56.4690576,4.19389574 C56.085499,2.96102899 55.646072,1.71473232 55.1717272,0.487237535 C54.6964903,0.170395016 54.1382931,0.000898907864 53.5671202,0 L53.5671202,0.00322318105 Z" id="路径_4124"></path>
                            <path d="M47.2889007,3.35586867 C48.4621386,3.35586867 49.4548784,4.69187721 49.4548784,6.27284752 C49.4548784,7.85381782 48.4626758,9.19090076 47.2889007,9.19090076 C46.1151256,9.19090076 45.1229231,7.85489221 45.1229231,6.27284752 C45.1229231,4.69080282 46.1151256,3.35586867 47.2889007,3.35586867 M47.2889007,2.09399329 C45.3968935,2.09399329 43.8626593,3.96451269 43.8626593,6.27231032 C43.8626593,8.58010795 45.3968935,10.4517017 47.2889007,10.4517017 C49.180908,10.4517017 50.7162166,8.58010795 50.7162166,6.27231032 C50.7162166,3.96451269 49.1819824,2.09399329 47.2889007,2.09399329 Z" id="路径_4125"></path>
                            <path d="M41.0074581,4.74828288 C42.1817704,4.74828288 43.1734357,6.08429142 43.1734357,7.66633612 C43.1734357,9.24838082 42.1823076,10.5843894 41.0074581,10.5843894 C39.8326086,10.5843894 38.8425548,9.24838082 38.8425548,7.66633612 C38.8425548,6.08429142 39.833683,4.74828288 41.0074581,4.74828288 M41.0074581,3.48748189 C39.1154508,3.48748189 37.5812166,5.3580013 37.5812166,7.66579893 C37.5812166,9.97359656 39.1154508,11.8451904 41.0074581,11.8451904 C42.8994654,11.8451904 44.4347739,9.97359656 44.4347739,7.66579893 C44.4347739,5.3580013 42.9005397,3.48748189 41.0074581,3.48748189 Z" id="路径_4126"></path>
                            <path d="M34.7254782,5.44502718 C35.8987161,5.44502718 36.8903815,6.78103573 36.8903815,8.36308043 C36.8903815,9.94512512 35.8992533,11.2800593 34.7254782,11.2800593 C33.5517031,11.2800593 32.5595006,9.94405073 32.5595006,8.36308043 C32.5595006,6.78211012 33.5506287,5.44502718 34.7254782,5.44502718 M34.7254782,4.1831518 C32.8323965,4.1831518 31.2981624,6.0547456 31.2981624,8.36254323 C31.2981624,10.6703409 32.8323965,12.5408603 34.7254782,12.5408603 C36.6185599,12.5408603 38.1517197,10.6703409 38.1517197,8.36254323 C38.1517197,6.0547456 36.6174855,4.1831518 34.7254782,4.1831518 Z" id="路径_4127"></path>
                            <path d="M28.442424,6.14123429 C29.6156619,6.14123429 30.6073272,7.47724283 30.6073272,9.05928753 C30.6073272,10.6413322 29.6161991,11.9773408 28.442424,11.9773408 C27.2686489,11.9773408 26.2764463,10.6413322 26.2764463,9.05928753 C26.2764463,7.47724283 27.2675745,6.14123429 28.442424,6.14123429 M28.442424,4.87935891 C26.5493423,4.87935891 25.0151081,6.7509527 25.0151081,9.05875034 C25.0151081,11.366548 26.5493423,13.2370674 28.442424,13.2370674 C30.3355056,13.2370674 31.8686654,11.366548 31.8686654,9.05875034 C31.8686654,6.7509527 30.3344312,4.87935891 28.442424,4.87935891 Z" id="路径_4128"></path>
                            <path d="M22.1599069,6.14123429 C23.3331448,6.14123429 24.3258846,7.47724283 24.3258846,9.05928753 C24.3258846,10.6413322 23.333682,11.9773408 22.1599069,11.9773408 C20.9861318,11.9773408 19.9939292,10.6413322 19.9939292,9.05928753 C19.9939292,7.47724283 20.9861318,6.14123429 22.1599069,6.14123429 M22.1599069,4.87935891 C20.2668252,4.87935891 18.7336654,6.7509527 18.7336654,9.05875034 C18.7336654,11.366548 20.2668252,13.2370674 22.1599069,13.2370674 C24.0529886,13.2370674 25.5861484,11.366548 25.5861484,9.05875034 C25.5861484,6.7509527 24.0519142,4.87935891 22.1599069,4.87935891 Z" id="路径_4129"></path>
                            <path d="M15.8768526,4.74828288 C17.0511649,4.74828288 18.0428303,6.08429142 18.0428303,7.66633612 C18.0428303,9.24838082 17.0517021,10.5843894 15.8768526,10.5843894 C14.7020032,10.5843894 13.710875,9.24838082 13.710875,7.66633612 C13.710875,6.08429142 14.7030775,4.74828288 15.8768526,4.74828288 M15.8768526,3.48748189 C13.9848454,3.48748189 12.4506112,5.3580013 12.4506112,7.66579893 C12.4506112,9.97359656 13.9848454,11.8451904 15.8768526,11.8451904 C17.7688599,11.8451904 19.3041685,9.97359656 19.3041685,7.66579893 C19.3041685,5.3580013 17.7699343,3.48748189 15.8768526,3.48748189 Z" id="路径_4130"></path>
                            <path d="M9.59379839,3.35586867 C10.7681107,3.35586867 11.7597761,4.69187721 11.7597761,6.27284752 C11.7597761,7.85381782 10.7659619,9.18982636 9.59379839,9.18982636 C8.42163488,9.18982636 7.42889512,7.85381782 7.42889512,6.27177312 C7.42889512,4.68972842 8.42002329,3.35479427 9.59379839,3.35479427 M9.59379839,2.09291889 C7.70179111,2.09291889 6.16755694,3.9634383 6.16755694,6.27123593 C6.16755694,8.57903356 7.70179111,10.4506274 9.59379839,10.4506274 C11.4858057,10.4506274 13.0211142,8.57903356 13.0211142,6.27123593 C13.0211142,3.9634383 11.4868801,2.09291889 9.59379839,2.09291889 Z" id="路径_4131"></path>
                            <path d="M3.31235572,1.26617296 C4.44476667,1.26617296 5.41333257,2.50656046 5.47296142,4.0311251 L5.47296142,4.05798494 L5.47296142,4.09129114 C5.47296142,4.12029977 5.47296142,4.15253158 5.47296142,4.183689 C5.47212289,4.4871274 5.43606854,4.78944312 5.36552205,5.0845681 C5.29638331,5.36259608 5.19166073,5.63054144 5.05394788,5.88176822 C4.74280187,6.58106198 4.07013183,7.05066962 3.30644656,7.10174224 C2.42920412,7.10174224 1.6330784,6.36363378 1.30216514,5.27527298 C1.43270398,4.78696105 1.58580508,4.25459898 1.76684041,3.66368246 C1.95754529,3.03140178 2.18155637,2.33626906 2.4651963,1.49877919 C2.72012364,1.34673984 3.01123658,1.26602975 3.30805815,1.26509856 M3.30805815,0.00429757473 C2.60943525,0.00930032629 1.93451064,0.25821678 1.39993497,0.708025437 L1.39993497,0.714471799 C1.10340231,1.58526788 0.817076396,2.4490804 0.560296306,3.29838861 C0.354549915,3.97418223 0.165993824,4.62902518 0,5.26936382 L0,5.27688457 C0.394302482,7.05285733 1.72493906,8.36308043 3.30805815,8.36308043 C4.53904684,8.31603457 5.64212264,7.58941184 6.17131731,6.47698232 C6.35822387,6.13421433 6.50014016,5.76877084 6.59355403,5.38969591 C6.68843047,4.99524475 6.73657186,4.59100132 6.73698559,4.18530059 C6.73698559,4.115465 6.73698559,4.04616661 6.73161362,3.98385178 C6.64566212,1.768452 5.14312256,0.00859514946 3.31074413,0.00859514946 L3.30805815,0.00429757473 Z" id="路径_4132"></path>
                        </g>
                    </g>
                </g>
                <g id="图层_1" transform="translate(1.603965, 0.000000)">
                    <path d="M58.9730313,126.526171 L65.7809268,133.334067 L74.293348,126.526171 L73.9844598,118.629378 C69.424352,119.243715 64.8099339,119.347319 60.2268487,118.938266 L58.9730313,126.526171 Z" id="路径_4133" fill="#FFB885"></path>
                    <g id="组_1934" transform="translate(108.559228, 73.113327)">
                        <path d="M0.914066604,7.28106527 L0.914066604,20.0233743 C1.42930553,20.0896076 1.94886898,20.1161874 2.46817707,20.1028795 C3.45677632,20.0941883 4.44305657,20.0056207 5.41738773,19.8380414 C5.92933631,19.7408088 6.48587224,19.6172535 7.05959847,19.4582433 C11.1213438,18.3457086 15.174494,16.2173347 17.0025748,12.3941048 C18.5153496,9.2115671 18.2016787,5.46167227 16.1812008,2.57468374 C15.7373291,1.97386809 15.207749,1.44139214 14.6093629,0.994250631 C14.3200447,0.789709923 14.0055079,0.623413466 13.673566,0.499492341 C10.9921924,-0.37454409 8.06799198,-0.0929068427 5.60272064,1.27681617 C5.29289021,1.43309758 4.9973727,1.6162681 4.71956903,1.82421975 C3.906885,2.39465545 3.20646646,3.11018963 2.65350998,3.93486614 L0.914066604,7.28106527 Z" id="路径_4134" fill="#FFCBA6"></path>
                        <path d="M2.3268943,12.0229018 C3.87102626,9.72269566 6.25472877,8.11884049 8.96718445,7.55503565 C11.4662242,7.06027736 12.6845866,10.6170577 10.4858399,12.0497616 C8.88714849,12.9573977 7.11473012,13.517022 5.28470011,13.6919724 C-4.52397702,15.1402551 2.3268943,12.0229018 2.3268943,12.0229018 Z" id="路径_4135" fill="#F17558"></path>
                    </g>
                    <g id="组_1935" transform="translate(0.921866, 0.000000)" fill="#111111">
                        <path d="M2.37608477,72.5266076 C2.60546782,73.2786831 2.85311556,73.9926177 3.11795361,74.6635766 L15.0297564,79.7057062 L15.162444,79.7057062 C16.1516462,79.762071 17.1403506,79.5867714 18.049877,79.1937576 C18.4296752,79.0438796 18.8094733,78.8671419 19.1779904,78.681809 L19.6727487,78.3992434 C23.8260116,75.827708 26.7092807,71.631045 27.6200387,66.8317838 C28.1338864,64.1923519 27.8636617,61.4602251 26.8427149,58.9725941 L43.5495367,59.9615734 L65.4220433,61.2417135 L111.383531,65.7804896 L112.390237,74.937547 L113.167561,82.0016855 L113.670915,86.6462893 L113.820793,87.9532893 L113.88257,88.5270155 L113.88257,88.8009859 C114.350469,88.3067648 114.765722,87.829734 115.180438,87.3349757 C115.595154,86.8402174 115.886852,86.4518241 116.204872,86.0102483 C116.417065,85.7190876 116.610993,85.4273897 116.805458,85.1270967 C117.565618,83.9658759 118.227247,82.7430658 118.783417,81.4714722 C119.136893,80.6656769 119.498426,79.7938064 119.869629,78.8225545 C120.479527,77.1228878 120.9548,75.3778848 121.291052,73.6036872 C122.202376,68.6732507 122.499021,63.6488609 122.174204,58.6454412 C122.041516,56.879138 121.900233,55.113372 121.768083,53.3470687 L121.768083,53.470624 C119.322226,37.8322868 113.5205,24.9578273 104.796423,16.1714357 C100.221147,11.5681984 94.8083211,7.88172928 88.8491975,5.31038999 C79.994621,1.6377081 70.476782,-0.166112772 60.8923995,0.0120175447 C58.1032602,0.0117442044 55.3161488,0.162379485 52.5432862,0.463262891 C23.4272174,3.6767744 9.82700496,24.1627759 4.20201683,36.1986712 C2.77705851,39.1670376 1.62434423,42.258563 0.758047881,45.4352337 C-0.67035852,52.8883026 -0.0520449556,64.6486159 2.37608477,72.5266076 Z" id="路径_4137"></path>
                    </g>
                    <path d="M26.6278723,53.8944723 L26.6278723,55.1300251 C26.6278723,56.0131767 26.6987822,56.8963283 26.7777502,57.7789427 L26.7777502,58.0969632 C26.789106,58.4701008 26.8275269,58.8419223 26.8927103,59.2094979 C27.0425882,60.4896379 27.254781,61.7525877 27.5018915,62.9886776 C27.5212176,63.1746239 27.559743,63.3580697 27.6168516,63.5360812 C27.8639622,64.6577482 28.1540485,65.7702829 28.5000032,66.8667016 C29.0148668,64.2273174 28.7446131,61.4948971 27.7226794,59.0075119 L44.4295012,59.9878961 L66.3020078,61.270185 L112.263495,65.8089611 L113.270202,74.9660184 L114.047526,82.0301569 L114.550879,86.6747608 L114.700757,87.9817607 L114.762535,88.5554869 L114.762535,88.8380525 C115.230433,88.3432942 115.645686,87.8576682 116.060402,87.3634471 C116.475118,86.869226 116.766816,86.4802955 117.084837,86.0387197 C117.29703,85.747559 117.490958,85.4558611 117.685423,85.1555681 C118.443883,83.9933346 119.105434,82.7706688 119.663382,81.4999436 C120.016857,80.687702 120.378391,79.8131455 120.749594,78.851026 C121.359622,77.1484689 121.834893,75.4005994 122.171016,73.6235635 C123.081965,68.6959786 123.37861,63.6744783 123.054168,58.6739126 C122.92148,56.9076094 122.780198,55.1418434 122.648047,53.3755402 L122.648047,53.4990954 C120.20219,37.8607582 114.400464,24.9862987 105.676387,16.1999072 C101.099026,11.5986361 95.686746,7.91180975 89.729162,5.33671264 C86.5362034,4.80787597 83.3052081,4.542188 80.0687512,4.542188 C50.5841654,4.52447101 26.6278723,26.9433068 26.6278723,53.8944723 Z" id="路径_4138" fill="#222222"></path>
                    <circle id="椭圆_637" fill="#333333" cx="48.473519" cy="13.3194577" r="3.6910795"></circle>
                    <circle id="椭圆_638" fill="#333333" cx="53.5774262" cy="9.34581266" r="3.6910795"></circle>
                    <circle id="椭圆_639" fill="#333333" cx="42.7953484" cy="18.9970911" r="2.551685"></circle>
                    <g id="组_1936" transform="translate(0.000000, 71.063656)">
                        <path d="M12.1283923,21.6400647 C7.59821135,20.404512 3.09489022,18.0284903 1.05515382,13.8077348 C-0.984582589,9.58697917 -0.048785691,3.90880856 3.70407144,1.11860816 C6.18538365,-0.718067837 13.5584103,-0.718067837 16.949734,4.3955089 L18.9373623,8.07745605 L18.9373623,22.2675106 C16.6484573,22.493537 14.3374458,22.2805775 12.1283923,21.6400647 L12.1283923,21.6400647 Z" id="路径_4139" fill="#FFCBA6"></path>
                        <path d="M17.3821774,13.3656218 C15.6637464,10.8038071 13.0109937,9.01621665 9.99142327,8.38526984 C7.20981803,7.83786625 5.85876797,11.8023789 8.30462519,13.3919444 C10.0804981,14.4075585 12.0521603,15.0336487 14.0886236,15.2286204 C25.0205793,16.8273182 17.3821774,13.3656218 17.3821774,13.3656218 Z" id="路径_4140" fill="#F17558"></path>
                    </g>
                    <g id="组_1937" transform="translate(16.086459, 46.516611)" fill="#FFD9BF">
                        <path d="M0,33.2062855 L0.680091201,38.0190321 C1.209854,42.6096095 2.48337014,47.0833362 4.45067583,51.2646946 L4.45067583,51.2646946 C6.95591526,56.6632811 10.5657075,61.4763374 15.0468835,65.3929715 C17.2237933,67.2766169 19.5913276,68.9279496 22.111022,70.3201409 C27.3514338,73.2534133 33.147432,75.0581782 39.1267319,75.6185134 C40.3450944,75.7334735 41.5548617,75.7952511 42.7737613,75.8129786 L44.186589,75.8129786 C48.7671319,76.2194661 53.3787551,76.1127973 57.9356049,75.4949581 C61.8347431,74.9634191 65.6771658,74.0767615 69.4149642,72.8460405 C71.6380671,72.1201801 73.8168857,71.2651189 75.9402943,70.2852231 C76.8234459,69.8705072 77.7065975,69.4020715 78.5892119,68.9519006 C86.050876,64.9766439 92.3382279,59.2823574 95.9052149,51.7771804 C96.0024475,51.6004426 96.0819526,51.4151097 96.1614578,51.2399835 C96.2409629,51.0648573 96.4262958,50.649067 96.5589834,50.3568319 C96.6916711,50.0645968 96.8238215,49.7207908 96.9387816,49.4033075 L97.0999407,48.9617317 C98.5436551,44.9073815 99.1592543,40.6045804 98.910294,36.3080601 C98.5692874,30.526721 97.7870002,24.7798917 96.5702646,19.1177612 L94.5568508,7.38215899 L93.9208098,17.0334374 L72.9314548,13.6249235 L69.6379009,2.64891762 L70.1326592,13.6249235 L60.476546,13.6249235 L58.7725576,2.84338288 L58.7725576,13.6249235 L56.502901,13.6249235 L55.3747876,1.1388573 L54.2359303,13.6249235 L44.593247,13.0597924 L41.184733,0 L39.4807447,12.4683387 L12.248088,12.4683387 L9.97896852,7.36496869 L11.1070819,12.4683387 C12.1932939,18.9587509 10.886294,27.6473726 4.92609503,31.6210177 C4.63959005,31.8179898 4.34520618,32.0004577 4.04294343,32.1684213 C2.8139561,32.8736393 1.41670892,33.2323267 0,33.2062855 L0,33.2062855 Z" id="路径_4141"></path>
                    </g>
                    <path d="M16.0864586,79.7234336 L16.7665498,84.535643 C17.2963126,89.1262204 18.5698288,93.5999471 20.5371345,97.7813055 L20.5371345,97.7813055 C23.0423601,103.1799 26.6521543,107.992959 31.1333422,111.909582 C33.3102616,113.793215 35.6777946,115.444547 38.1974806,116.836752 C43.4378988,119.77001 49.2338938,121.574774 55.2131906,122.135124 C30.2056032,112.598269 22.8062539,86.4340966 21.0474715,78.1161407 C20.7563108,78.310606 20.4468854,78.4959389 20.1643199,78.6635443 C18.9274229,79.3828352 17.5170595,79.749407 16.0864586,79.7234336 Z" id="路径_4142" fill="#FFCBA6"></path>
                    <g id="组_1941" transform="translate(20.534986, 55.595417)">
                        <circle id="椭圆_640" fill="#FFFFFF" cx="70.4565889" cy="21.8760874" r="13.6163283"></circle>
                        <circle id="椭圆_641" fill="#FFFFFF" cx="25.0511003" cy="21.301824" r="13.6163283"></circle>
                        <g id="组_1938" transform="translate(61.131389, 8.506870)">
                            <circle id="椭圆_642" fill="#7C3821" cx="10.9760059" cy="10.9760059" r="10.9760059"></circle>
                            <circle id="椭圆_643" fill="#FFFFFF" cx="14.1551368" cy="6.53446238" r="2.79933274"></circle>
                            <path d="M1.84580835,17.0157099 C3.87747616,20.0937515 7.31907248,21.9458185 11.0071633,21.9458185 C14.6952541,21.9458185 18.1368504,20.0937515 20.1685182,17.0157099 C18.1426173,13.9294508 14.6989474,12.0706465 11.0071633,12.0706465 C7.31537911,12.0706465 3.87170929,13.9294508 1.84580835,17.0157099 L1.84580835,17.0157099 Z" id="路径_4143" fill="#9E5036"></path>
                        </g>
                        <path d="M0,42.2385336 L0,42.2385336 C2.50736658,47.6358478 6.11684879,52.4484907 10.5962077,56.3668106 C12.7731343,58.2504343 15.1406663,59.9017654 17.6603462,61.29398 C23.4033989,58.977223 26.920915,53.1403893 26.2863929,46.9802433 C25.6518707,40.8200973 21.0183966,35.8228515 14.9236693,34.725438 C8.82894205,33.6280245 2.74339094,36.6952081 0,42.2471288 L0,42.2385336 Z" id="路径_4144" fill="#F59679"></path>
                        <path d="M67.7990761,51.5631964 C68.7237135,55.0740391 70.9954344,58.078679 74.1213458,59.9252024 C81.591605,55.9499458 87.8789569,50.2556593 91.4464811,42.7504822 C91.5345814,42.5737445 91.6232189,42.3884116 91.6935916,42.2132854 C91.8547507,41.8775374 91.9938847,41.5423265 92.1437626,41.2065785 C92.2936405,40.8708305 92.4617831,40.4007833 92.6116611,40.0059436 C88.7441943,34.4778437 81.4652999,32.525484 75.3504736,35.376113 C69.2356472,38.2267421 66.0510613,45.057 67.7985389,51.5734032 L67.7990761,51.5631964 Z" id="路径_4145" fill="#F59679"></path>
                        <g id="组_1939" transform="translate(15.811087, 7.940769)">
                            <path d="M0.366058861,13.758581 C1.92567057,19.5897298 7.91635631,23.0531526 13.7479217,21.495099 C19.579487,19.9370454 23.0445104,13.9472853 21.488015,8.11530384 C19.9315197,2.28332237 13.9426857,-1.1833013 8.11028853,0.371635672 L8.11028853,0.371635672 C5.31454696,1.1129062 2.9278045,2.934468 1.47516186,5.43556421 C0.022519217,7.93666042 -0.377019451,10.9123949 0.364447271,13.7080845 L0.364447271,13.7139936 L0.366058861,13.758581 Z" id="路径_4146" fill="#7C3821"></path>
                            <path d="M1.81649033,16.9538278 C5.13402953,21.991775 11.9073481,23.3866991 16.945565,20.0695694 L16.9606065,20.0598999 C18.2038859,19.2484633 19.2649116,18.1874376 20.0763482,16.9441582 C16.7584251,11.90641 9.98518068,10.5115507 4.94673633,13.8284165 L4.93276921,13.8380861 C3.6908698,14.6514026 2.63002095,15.7120686 1.81649033,16.9538278 Z" id="路径_4147" fill="#9E5036"></path>
                            <circle id="椭圆_644" fill="#FFFFFF" cx="14.7409091" cy="6.50857239" r="2.79020039"></circle>
                        </g>
                        <path d="M72.4259525,1.88430693 L72.4259525,1.88430693 C72.5049125,1.59500211 72.6958134,1.34904191 72.9564788,1.20076699 C73.2171443,1.05249207 73.5261202,1.0141063 73.8151436,1.09409037 L73.8301851,1.09838795 L80.6380807,2.99684158 C81.2387397,3.16812196 81.5893625,3.79123836 81.4239996,4.39355337 L81.4239996,4.39355337 C81.3448151,4.68278056 81.1537355,4.92857982 80.8929724,5.07665132 C80.6322093,5.22472282 80.3232228,5.26288073 80.0342714,5.18269553 L80.0203043,5.17893515 L73.2210039,3.28048152 C72.9312526,3.20298189 72.6842921,3.01328544 72.5347009,2.7533153 C72.3851097,2.49334516 72.3452043,2.18450573 72.4238038,1.89505086 L72.4259525,1.88430693 Z" id="矩形_296" fill="#333333"></path>
                        <path d="M19.8859527,1.8042646 L26.7207081,0.0384985785 C27.010304,-0.0391580637 27.3189009,0.00166328643 27.5783447,0.151947165 C27.8377885,0.302231044 28.0267342,0.549613272 28.1034528,0.839459069 L28.1072131,0.850740203 L28.1072131,0.850740203 C28.2636249,1.45760634 27.9008166,2.07692403 27.2949715,2.23724525 L20.4602161,4.00354846 C19.8552201,4.1610249 19.2363803,3.80137374 19.073711,3.1977532 L19.073711,3.1977532 C18.9935636,2.90865613 19.0318684,2.59954175 19.1801567,2.33875195 C19.328445,2.07796215 19.5745021,1.88697833 19.8639276,1.80802497 L19.8859527,1.8042646 Z" id="矩形_297" fill="#333333"></path>
                        <g id="组_1940" transform="translate(33.947621, 39.148040)">
                            <path d="M1.02013324,8.47696616 C2.49514833,11.6925043 5.39603627,14.02754 8.85246318,14.7815083 C9.63377717,14.9458488 10.4295601,15.0316897 11.2279476,15.0377512 C12.7992346,15.0303988 14.3515015,14.6934826 15.7844512,14.0487718 C16.0756119,13.9160842 16.3495823,13.7748014 16.6676028,13.6249235 C19.320303,12.1642499 21.2647881,9.68744099 22.0540756,6.76384543 L22.6632568,4.53877611 L0.516779797,0 L0.190164117,1.76630321 C-0.234249195,4.03518265 0.0557377042,6.37985343 1.02013324,8.47696616 Z" id="路径_4148" fill="#DA5257"></path>
                            <path d="M17.9477429,3.57611937 L17.9477429,3.57611937 C17.7253518,4.73021323 16.609977,5.48589829 15.4556868,5.26452904 L15.4487032,5.26452904 L15.4487032,5.26452904 L7.91666629,3.76360107 C6.91960429,3.56226164 6.20286338,2.68572055 6.20354507,1.66853339 L6.20354507,1.1737751 L17.9477429,3.57611937 Z" id="路径_4149" fill="#FFFFFF"></path>
                            <path d="M1.02013324,8.47696616 C2.49514833,11.6925043 5.39603627,14.02754 8.85246318,14.7815083 C9.63377379,14.9458701 10.4295589,15.0317112 11.2279476,15.0377512 C12.7992381,15.0304307 14.3515115,14.693513 15.7844512,14.0487718 C16.0756119,13.9160842 16.3495823,13.7748014 16.6676028,13.6249235 C14.2387044,11.4667649 11.3094387,9.94913795 8.14551214,9.20970265 C5.8241064,8.59004069 3.41906702,8.34271909 1.02013324,8.47696616 L1.02013324,8.47696616 Z" id="路径_4150" fill="#EE706E"></path>
                        </g>
                    </g>
                </g>
            </g>
        </g>
    </g>
</svg>